# Blender 4.0.2
# www.blender.org
mtllib zombieDamaged.mtl
o Cube
v 0.146540 0.428267 -0.095410
v 0.138974 0.283607 -0.066692
v 0.166082 0.419365 0.068711
v 0.138942 0.232017 0.120232
v -0.000000 0.309696 -0.062783
v 0.001279 0.440480 0.117875
v -0.000446 0.261280 0.124929
v -0.000812 0.430526 -0.090750
v 0.156553 0.069977 -0.058363
v 0.168132 0.112005 0.117731
v -0.000000 -0.008067 -0.047519
v 0.000000 -0.040121 0.110099
v 0.179654 0.598809 -0.101744
v 0.233257 0.551738 0.086697
v 0.018434 0.533736 0.143220
v 0.006627 0.647415 -0.060696
v 0.220316 0.700692 -0.012581
v 0.226764 0.633162 0.117917
v 0.026205 0.680121 0.144978
v 0.020362 0.732858 0.038390
v 0.069346 0.246846 0.123305
v 0.073165 0.428662 -0.092145
v 0.070012 0.295704 -0.062783
v 0.075980 0.431211 0.113324
v 0.084066 -0.000690 0.110099
v 0.084066 0.018643 -0.094158
v 0.093049 0.624269 -0.080610
v 0.103609 0.519010 0.124583
v 0.135674 0.725059 0.006504
v 0.141903 0.664529 0.127438
v 0.027540 0.695581 0.150831
v 0.026037 0.768854 0.079518
v 0.108365 0.735479 0.031346
v 0.114065 0.683725 0.138101
v 0.019118 0.705447 0.209326
v 0.005670 0.792582 0.260426
v 0.028661 0.762642 0.103487
v 0.032624 0.797334 0.053137
v 0.058348 0.730627 0.213488
v 0.033061 0.795985 0.243918
v 0.068200 0.779792 0.110000
v 0.056045 0.812535 0.055286
v 0.073631 0.766607 0.216927
v 0.078143 0.802984 0.222635
v 0.083573 0.812102 0.114899
v 0.074361 0.822101 0.079982
v -0.003411 0.909857 0.260768
v 0.022861 0.929357 0.050031
v 0.054194 0.900527 0.260089
v 0.073676 0.928193 0.062292
v 0.084685 0.907357 0.213420
v 0.098364 0.917484 0.103710
v -0.002936 0.932181 0.244116
v 0.018010 0.957000 0.070683
v 0.042350 0.932605 0.249802
v 0.064793 0.955569 0.090728
v 0.073724 0.952008 0.216175
v 0.087403 0.962135 0.106465
v -0.001531 0.976157 0.207743
v 0.010058 0.988042 0.112869
v 0.027370 0.975318 0.211269
v 0.037830 0.987116 0.116246
v 0.056582 0.968576 0.212180
v 0.066163 0.978478 0.122085
v 0.197412 -0.162055 -0.047519
v 0.197412 -0.162055 0.047519
v 0.031929 -0.163892 -0.116417
v 0.010864 -0.181439 0.089677
v 0.099347 -0.178224 0.089677
v 0.120412 -0.160677 -0.116417
v 0.202702 -0.375379 -0.047519
v 0.202702 -0.375379 0.047519
v 0.084918 -0.319095 -0.099634
v 0.084918 -0.403892 0.047519
v 0.144251 -0.391844 0.047519
v 0.144251 -0.307047 -0.099634
v 0.207170 -0.428736 -0.047519
v 0.207170 -0.428736 0.047519
v 0.103518 -0.451066 -0.118183
v 0.103518 -0.460782 0.047519
v 0.160202 -0.446967 0.047519
v 0.160202 -0.437251 -0.118183
v 0.237919 -0.556311 -0.047519
v 0.237920 -0.556311 0.047519
v 0.106886 -0.617506 -0.114650
v 0.106886 -0.611323 0.047519
v 0.168869 -0.574542 0.047519
v 0.168869 -0.580725 -0.114650
v 0.228433 -0.682251 -0.047519
v 0.228433 -0.682251 0.047519
v 0.123015 -0.716947 -0.102284
v 0.123015 -0.688681 0.047519
v 0.177932 -0.679283 0.047519
v 0.177932 -0.707548 -0.102284
v 0.218456 -0.865530 -0.047519
v 0.218456 -0.865530 0.047519
v 0.162503 -0.855015 -0.103994
v 0.162503 -0.859594 0.047519
v 0.190038 -0.859912 0.047519
v 0.190038 -0.855333 -0.103994
v 0.245295 -0.907492 -0.049046
v 0.245295 -0.907492 0.045993
v 0.138110 -0.901479 -0.113152
v 0.138110 -0.895373 0.045993
v 0.194794 -0.907980 -0.113152
v 0.250197 -0.956646 -0.029492
v 0.274253 -0.961138 0.045993
v 0.135269 -0.972790 -0.113152
v 0.135269 -0.966685 0.045993
v 0.201670 -0.967886 0.045993
v 0.201669 -0.973991 -0.113152
v 0.173890 0.539821 0.039724
v 0.202066 0.638680 0.100842
v 0.218497 0.579922 -0.045706
v 0.246673 0.678782 0.015411
v 0.239472 0.456146 0.053808
v 0.303282 0.544236 0.131358
v 0.297451 0.508269 -0.057233
v 0.363277 0.598172 0.016455
v 0.369056 0.386169 0.069504
v 0.428505 0.439149 0.125414
v 0.413663 0.426271 -0.015927
v 0.473112 0.479251 0.039983
v 0.187978 0.589250 0.070283
v 0.232585 0.629352 -0.015148
v 0.333002 0.556569 -0.024188
v 0.269294 0.499296 0.097825
v 0.438204 0.461081 0.013227
v 0.393597 0.420979 0.098658
v 0.510871 0.257825 0.083306
v 0.555995 0.323329 0.113117
v 0.555478 0.297926 -0.002125
v 0.592056 0.355748 0.044054
v 0.575702 0.335352 0.026003
v 0.531095 0.295251 0.111434
v 0.594430 0.210105 0.084954
v 0.621972 0.229465 0.108423
v 0.625341 0.237894 0.025755
v 0.652883 0.257254 0.049223
v 0.638940 0.248703 0.037930
v 0.608029 0.220914 0.097129
v 0.670628 0.138269 0.061357
v 0.709178 0.167204 0.095067
v 0.687397 0.153345 0.029241
v 0.725947 0.182279 0.062951
v 0.705161 0.169160 0.045939
v 0.688392 0.154084 0.078055
v 0.683069 0.098117 0.049005
v 0.765784 0.128769 0.106582
v 0.699838 0.113192 0.016888
v 0.782553 0.143844 0.074466
v 0.744351 0.122310 0.044411
v 0.727582 0.107235 0.076527
v 0.154079 0.173201 0.123073
v 0.154078 0.171674 -0.116205
v -0.000000 0.146235 -0.116205
v 0.000000 0.111129 0.119257
v 0.077039 0.123849 0.119257
v 0.077039 0.158955 -0.116205
v 0.218112 -0.888451 0.125274
v 0.162159 -0.882515 0.125274
v 0.189694 -0.882833 0.125274
v 0.244951 -0.938045 0.197012
v 0.137767 -0.925926 0.197012
v 0.194451 -0.932427 0.197012
v 0.246388 -0.948073 0.208325
v 0.143227 -0.953355 0.190048
v 0.201326 -0.963333 0.198538
v 0.027042 0.731716 0.133845
v 0.018083 0.800475 0.161628
v 0.066581 0.748865 0.140358
v 0.081955 0.781175 0.145257
v 0.086684 0.817713 0.149219
v 0.010426 0.921034 0.149248
v 0.091525 0.912420 0.158565
v 0.006459 0.966224 0.152925
v 0.080563 0.957071 0.161320
v 0.004293 0.990909 0.154934
v 0.032065 0.989983 0.158311
v 0.060883 0.980407 0.161020
v 0.081442 0.855623 0.217987
v 0.043719 0.848709 0.252073
v 0.029706 0.874463 0.030188
v 0.073986 0.875921 0.038886
v 0.095965 0.870541 0.099078
v 0.001090 0.851727 0.260598
v 0.014221 0.861277 0.155384
v 0.089125 0.865477 0.153933
v 0.012953 0.751050 0.229444
v 0.030642 0.779988 0.078312
v 0.062122 0.796163 0.082643
v 0.046264 0.765341 0.223270
v 0.078967 0.817101 0.097440
v 0.075887 0.784795 0.219781
v 0.084319 0.799444 0.147238
v 0.022563 0.766095 0.147736
v 0.025454 0.680312 0.175942
v 0.021250 0.739151 0.173449
v 0.039914 0.691026 0.059968
v 0.029205 0.807727 0.072997
v 0.064533 0.683323 0.181093
v 0.060328 0.742162 0.178600
v 0.070426 0.693912 0.081384
v 0.059717 0.810613 0.094413
v 0.084058 0.834158 0.158767
v 0.082619 0.850558 0.160101
v 0.086093 0.835665 0.142446
v 0.084654 0.852065 0.143780
v 0.097960 0.834875 0.160567
v 0.102868 0.851409 0.162705
v 0.099995 0.836381 0.144245
v 0.104903 0.852915 0.146383
v 0.081735 0.867222 0.161529
v 0.083770 0.868728 0.145208
v 0.106030 0.866255 0.164469
v 0.108065 0.867761 0.148148
v 0.084861 0.880983 0.163189
v 0.086896 0.882489 0.146868
v 0.100806 0.882566 0.165324
v 0.102841 0.884072 0.149002
v 0.196193 0.559871 -0.002991
v 0.224370 0.658731 0.058126
v 0.265516 0.477823 -0.005309
v 0.331666 0.615069 0.093655
v 0.391360 0.406220 0.026789
v 0.450808 0.459200 0.082698
v 0.210282 0.609301 0.027568
v 0.533175 0.277875 0.040590
v 0.581264 0.354014 0.101440
v 0.609885 0.223999 0.055355
v 0.637428 0.243359 0.078823
v 0.675709 0.142837 0.051626
v 0.714259 0.171772 0.085336
v 0.688150 0.102684 0.039274
v 0.770865 0.133337 0.096851
v 0.749806 0.162837 0.114231
v 0.729053 0.059491 0.033080
v 0.805954 0.099174 0.091861
v 0.732078 0.066929 0.012006
v 0.813417 0.108902 0.074179
v 0.784761 0.076795 0.044146
v 0.778862 0.068819 0.063466
v 0.728510 0.061310 0.028203
v 0.805411 0.100993 0.086984
v 0.778319 0.070638 0.058589
v 0.766575 0.177913 0.082115
v 0.780070 0.134318 0.116646
v 0.796839 0.149394 0.084530
v 0.754887 0.167405 0.104500
v 0.785150 0.138886 0.106915
v 0.803165 0.151404 0.136725
v 0.819934 0.166479 0.104609
v 0.815134 0.135823 0.135661
v 0.831903 0.150898 0.103544
v 0.808246 0.155971 0.126994
v 0.820214 0.140391 0.125930
v 0.825609 0.149868 0.147723
v 0.842378 0.164944 0.115607
v 0.825886 0.138170 0.142376
v 0.842655 0.153245 0.110260
v 0.830690 0.154436 0.137992
v 0.830967 0.142737 0.132645
v 0.807006 0.084465 0.059518
v 0.798762 0.097864 0.061503
v 0.821426 0.100276 0.074469
v 0.811525 0.110765 0.074223
v 0.797536 0.075951 0.077656
v 0.789292 0.089350 0.079641
v 0.811956 0.091762 0.092607
v 0.802055 0.102251 0.092361
v 0.831436 0.063037 0.062216
v 0.842878 0.075996 0.074273
v 0.821966 0.054523 0.080353
v 0.833408 0.067482 0.092411
v 0.852926 0.042474 0.063784
v 0.862043 0.051739 0.072894
v 0.843456 0.033960 0.081922
v 0.852573 0.043225 0.091031
v 0.863914 0.034528 0.065792
v 0.866909 0.039181 0.069539
v 0.854444 0.026014 0.083929
v 0.857438 0.030667 0.087677
v 0.793411 0.064262 0.042937
v 0.780992 0.085637 0.046486
v 0.810223 0.077471 0.057915
v 0.795502 0.096014 0.058933
v 0.783941 0.055749 0.061074
v 0.771522 0.077123 0.064623
v 0.800752 0.068958 0.076053
v 0.786031 0.087500 0.077070
v 0.815389 0.040175 0.043105
v 0.828785 0.051054 0.055206
v 0.805919 0.031661 0.061243
v 0.819314 0.042540 0.073344
v 0.833321 0.014675 0.040498
v 0.845021 0.024981 0.051446
v 0.823850 0.006161 0.058636
v 0.835551 0.016467 0.069583
v 0.841347 0.003665 0.039521
v 0.850544 0.009385 0.047008
v 0.831876 -0.004849 0.057658
v 0.841074 0.000871 0.065146
v 0.777474 0.051030 0.030266
v 0.762481 0.076727 0.034500
v 0.792603 0.059907 0.042333
v 0.776117 0.084085 0.045075
v 0.769306 0.043687 0.045909
v 0.754314 0.069385 0.050143
v 0.784436 0.052565 0.057975
v 0.767950 0.076743 0.060717
v 0.792568 0.027480 0.027093
v 0.806491 0.035989 0.038357
v 0.784401 0.020138 0.042736
v 0.798324 0.028646 0.054000
v 0.807204 0.005016 0.024191
v 0.818815 0.012558 0.033793
v 0.799037 -0.002327 0.039833
v 0.810647 0.005216 0.049435
v 0.814533 -0.004810 0.023405
v 0.823320 -0.000876 0.029840
v 0.806365 -0.012152 0.039047
v 0.815153 -0.008218 0.045482
v 0.739219 0.054068 0.013886
v 0.726721 0.073204 0.016343
v 0.760628 0.057985 0.026903
v 0.756649 0.077508 0.033990
v 0.732568 0.048089 0.026624
v 0.720070 0.067225 0.029081
v 0.753977 0.052006 0.039641
v 0.749998 0.071528 0.046728
v 0.748681 0.034383 0.009586
v 0.766792 0.037063 0.020301
v 0.742030 0.028404 0.022324
v 0.760141 0.031083 0.033039
v 0.755235 0.016630 0.004675
v 0.769621 0.018099 0.012876
v 0.748583 0.010651 0.017413
v 0.762970 0.012120 0.025614
v 0.761381 0.005059 0.002453
v 0.769561 0.005823 0.007082
v 0.754730 -0.000920 0.015191
v 0.762910 -0.000156 0.019820
v -0.150808 0.432303 -0.088770
v -0.140978 0.284375 -0.065427
v -0.160938 0.432580 0.090456
v -0.140973 0.233082 0.121984
v -0.156553 0.069977 -0.058363
v -0.168132 0.112005 0.117731
v -0.174550 0.613855 -0.076986
v -0.204352 0.573975 0.123288
v -0.189309 0.720684 0.020314
v -0.182740 0.654110 0.152384
v -0.070632 0.247216 0.123913
v -0.075613 0.429860 -0.090174
v -0.070012 0.295704 -0.062783
v -0.072593 0.434036 0.117972
v -0.084066 -0.000690 0.110099
v -0.084066 0.018643 -0.094157
v -0.083846 0.633438 -0.065522
v -0.073229 0.528629 0.140410
v -0.099411 0.737071 0.026269
v -0.093144 0.676843 0.147700
v -0.067206 0.744539 0.046253
v -0.061482 0.692977 0.153324
v -0.023189 0.724345 0.202741
v -0.016734 0.792148 0.237355
v -0.013337 0.773510 0.099253
v 0.007427 0.808789 0.048878
v -0.044080 0.757537 0.201413
v -0.055334 0.792700 0.205043
v -0.034138 0.803033 0.099385
v -0.017856 0.814996 0.067828
v -0.056812 0.891974 0.245459
v -0.028622 0.920311 0.048810
v -0.074921 0.895060 0.192384
v -0.061242 0.905187 0.082674
v -0.047688 0.925668 0.237935
v -0.031590 0.948143 0.078025
v -0.071892 0.940789 0.196983
v -0.058213 0.950916 0.087273
v -0.029897 0.970905 0.203721
v -0.017180 0.982878 0.108996
v -0.056997 0.959825 0.197210
v -0.044425 0.969958 0.107510
v -0.197412 -0.162055 -0.047519
v -0.197412 -0.162055 0.047519
v -0.031929 -0.163892 -0.116417
v -0.010864 -0.181439 0.089677
v -0.099347 -0.178224 0.089678
v -0.120412 -0.160677 -0.116417
v -0.202702 -0.375379 -0.047519
v -0.202702 -0.375379 0.047519
v -0.084918 -0.319095 -0.099634
v -0.084918 -0.403892 0.047519
v -0.144251 -0.391844 0.047519
v -0.144251 -0.307047 -0.099634
v -0.207170 -0.428736 -0.047519
v -0.207170 -0.428736 0.047519
v -0.103518 -0.451066 -0.118183
v -0.103518 -0.460782 0.047519
v -0.160202 -0.446967 0.047519
v -0.160202 -0.437251 -0.118183
v -0.237920 -0.556311 -0.047519
v -0.237919 -0.556311 0.047519
v -0.106886 -0.617506 -0.114650
v -0.106886 -0.611323 0.047519
v -0.168869 -0.574542 0.047519
v -0.168869 -0.580725 -0.114650
v -0.228433 -0.682251 -0.047519
v -0.228433 -0.682251 0.047519
v -0.123015 -0.716947 -0.102284
v -0.123015 -0.688681 0.047519
v -0.177932 -0.679283 0.047519
v -0.177932 -0.707548 -0.102284
v -0.218456 -0.865530 -0.047519
v -0.218456 -0.865530 0.047519
v -0.162503 -0.855015 -0.103994
v -0.162503 -0.859594 0.047519
v -0.190038 -0.859912 0.047519
v -0.190038 -0.855333 -0.103994
v -0.245295 -0.907492 -0.049045
v -0.245295 -0.907492 0.045993
v -0.138110 -0.901479 -0.113152
v -0.138110 -0.895373 0.045993
v -0.194794 -0.907980 -0.113152
v -0.250197 -0.956646 -0.029491
v -0.274253 -0.961138 0.045993
v -0.135269 -0.972790 -0.113152
v -0.135269 -0.966685 0.045993
v -0.201670 -0.967886 0.045993
v -0.201670 -0.973991 -0.113152
v -0.134874 0.564345 0.117546
v -0.174176 0.675534 0.137413
v -0.145422 0.578986 0.014733
v -0.184724 0.690176 0.034599
v -0.207544 0.486435 0.129792
v -0.286620 0.591063 0.155200
v -0.221255 0.505466 -0.003843
v -0.300807 0.610756 0.016917
v -0.339891 0.420981 0.118164
v -0.410339 0.486036 0.134655
v -0.350439 0.435623 0.015350
v -0.420887 0.500677 0.031841
v -0.154525 0.619940 0.127480
v -0.165073 0.634581 0.024666
v -0.261997 0.560257 0.001334
v -0.246932 0.539345 0.148174
v -0.380558 0.476576 0.024272
v -0.370010 0.461935 0.127086
v -0.487526 0.298617 0.115884
v -0.534894 0.368915 0.110399
v -0.498074 0.313258 0.013070
v -0.543421 0.380752 0.027283
v -0.523595 0.356530 0.021851
v -0.513048 0.341889 0.124665
v -0.570250 0.251616 0.101407
v -0.602473 0.276105 0.108200
v -0.577560 0.261762 0.030162
v -0.609782 0.286251 0.036955
v -0.593570 0.275216 0.033721
v -0.586261 0.265070 0.104966
v -0.639498 0.174700 0.072910
v -0.684745 0.210978 0.082718
v -0.643463 0.180204 0.034259
v -0.688711 0.216483 0.044067
v -0.664512 0.199625 0.039184
v -0.660547 0.194121 0.077835
v -0.650132 0.132483 0.067989
v -0.744700 0.176077 0.083899
v -0.654098 0.137987 0.029338
v -0.748666 0.181581 0.045248
v -0.704398 0.153409 0.036694
v -0.700433 0.147905 0.075345
v -0.154078 0.173201 0.123073
v -0.154079 0.171674 -0.116205
v -0.077039 0.123849 0.119257
v -0.077039 0.158955 -0.116205
v -0.218112 -0.888451 0.125274
v -0.162159 -0.882515 0.125274
v -0.189694 -0.882833 0.125274
v -0.244951 -0.938045 0.197012
v -0.137767 -0.925926 0.197012
v -0.194450 -0.932427 0.197012
v -0.246388 -0.948073 0.208326
v -0.143227 -0.953355 0.190048
v -0.201326 -0.963333 0.198539
v -0.014956 0.742583 0.129611
v -0.035756 0.772106 0.129743
v -0.046793 0.807429 0.131627
v -0.068082 0.900123 0.137529
v -0.065053 0.945852 0.142128
v -0.022945 0.985745 0.151061
v -0.049706 0.971886 0.146445
v -0.065212 0.844323 0.198659
v -0.036947 0.842494 0.241442
v -0.015017 0.869064 0.027156
v -0.050690 0.859241 0.079749
v -0.057529 0.854178 0.134604
v -0.002955 0.791149 0.074066
v -0.019403 0.760282 0.214616
v -0.025997 0.809014 0.083606
v -0.049707 0.775119 0.203228
v -0.041274 0.789768 0.130685
v -0.013624 0.677301 0.170792
v -0.017829 0.736140 0.168299
v 0.004841 0.688859 0.072740
v -0.005868 0.805560 0.085769
v -0.049222 0.823890 0.141201
v -0.050662 0.840289 0.142535
v -0.047187 0.825396 0.124880
v -0.048627 0.841796 0.126214
v -0.063062 0.822468 0.139344
v -0.070787 0.838029 0.139817
v -0.061027 0.823975 0.123023
v -0.068752 0.839536 0.123496
v -0.052696 0.856864 0.143812
v -0.050661 0.858371 0.127490
v -0.076496 0.852192 0.140413
v -0.074461 0.853698 0.124092
v -0.058178 0.869962 0.144337
v -0.056143 0.871468 0.128016
v -0.074186 0.869083 0.142260
v -0.072151 0.870590 0.125939
v -0.140148 0.571666 0.066139
v -0.179450 0.682855 0.086006
v -0.210767 0.490810 0.061870
v -0.295433 0.648506 0.093013
v -0.345165 0.428302 0.066757
v -0.415613 0.493356 0.083248
v -0.159799 0.627260 0.076073
v -0.492800 0.305937 0.064477
v -0.552455 0.394824 0.083256
v -0.573905 0.256689 0.065785
v -0.606127 0.281178 0.072578
v -0.640699 0.176368 0.061199
v -0.685947 0.212646 0.071007
v -0.651334 0.134151 0.056278
v -0.745902 0.177744 0.072188
v -0.729638 0.211228 0.087359
v -0.691005 0.090158 0.048037
v -0.779822 0.142874 0.064657
v -0.686291 0.091553 0.026028
v -0.780234 0.147311 0.043606
v -0.745749 0.108796 0.034584
v -0.747219 0.106461 0.056126
v -0.688739 0.090598 0.043341
v -0.777556 0.143314 0.059960
v -0.744953 0.106901 0.051430
v -0.733604 0.216732 0.048708
v -0.761053 0.183884 0.086688
v -0.765018 0.189388 0.048037
v -0.730840 0.212895 0.075649
v -0.762255 0.185552 0.074977
v -0.788141 0.205346 0.092524
v -0.792106 0.210850 0.053873
v -0.800220 0.189845 0.091556
v -0.804186 0.195349 0.052905
v -0.789342 0.207014 0.080813
v -0.801422 0.191513 0.079845
v -0.813012 0.206440 0.095231
v -0.816977 0.211944 0.056580
v -0.812382 0.193727 0.093356
v -0.816347 0.199231 0.054705
v -0.814213 0.208107 0.083520
v -0.813583 0.195395 0.081645
v -0.771188 0.119938 0.038911
v -0.763082 0.133521 0.040014
v -0.788514 0.138942 0.043395
v -0.778329 0.149151 0.043804
v -0.768948 0.116829 0.060739
v -0.760842 0.130413 0.061842
v -0.786274 0.135834 0.065223
v -0.776090 0.146043 0.065632
v -0.796676 0.099601 0.038630
v -0.810456 0.115131 0.042255
v -0.794436 0.096492 0.060458
v -0.808217 0.112022 0.064083
v -0.818958 0.079844 0.038102
v -0.829853 0.091063 0.040818
v -0.816719 0.076736 0.059930
v -0.827614 0.087955 0.062646
v -0.830557 0.072541 0.038252
v -0.834265 0.077980 0.039407
v -0.828318 0.069432 0.060080
v -0.832025 0.074871 0.061235
v -0.754430 0.096249 0.033818
v -0.742313 0.118009 0.035674
v -0.774210 0.112714 0.038192
v -0.759303 0.131104 0.039282
v -0.752190 0.093141 0.055646
v -0.740074 0.114900 0.057502
v -0.771970 0.109606 0.060020
v -0.757063 0.127995 0.061110
v -0.776973 0.072712 0.032779
v -0.792762 0.086218 0.036322
v -0.774733 0.069604 0.054607
v -0.790523 0.083109 0.058150
v -0.794897 0.047138 0.030976
v -0.808753 0.059810 0.034202
v -0.792658 0.044029 0.052804
v -0.806513 0.056701 0.056030
v -0.802952 0.036131 0.030235
v -0.813653 0.043497 0.032382
v -0.800712 0.033022 0.052063
v -0.811414 0.040388 0.054210
v -0.736240 0.080371 0.031239
v -0.721604 0.106523 0.033461
v -0.753799 0.091909 0.034683
v -0.737379 0.116222 0.036461
v -0.734308 0.077691 0.050064
v -0.719672 0.103843 0.052286
v -0.751867 0.089228 0.053508
v -0.735447 0.113541 0.055286
v -0.751161 0.056572 0.029380
v -0.767347 0.067560 0.032606
v -0.749229 0.053891 0.048205
v -0.765416 0.064879 0.051431
v -0.765658 0.033899 0.027639
v -0.779192 0.043548 0.030401
v -0.763727 0.031218 0.046464
v -0.777261 0.040867 0.049226
v -0.773032 0.024097 0.026999
v -0.783132 0.029466 0.028800
v -0.771100 0.021416 0.045824
v -0.781201 0.026785 0.047625
v -0.694602 0.079554 0.028652
v -0.682219 0.098864 0.030131
v -0.718757 0.086461 0.032114
v -0.715892 0.107242 0.034779
v -0.693030 0.077371 0.043982
v -0.680647 0.096681 0.045461
v -0.717184 0.084278 0.047444
v -0.714319 0.105059 0.050109
v -0.703561 0.059272 0.026683
v -0.723945 0.064424 0.029508
v -0.701988 0.057089 0.042013
v -0.722372 0.062240 0.044837
v -0.709436 0.040736 0.024646
v -0.725574 0.044110 0.026782
v -0.707864 0.038553 0.039976
v -0.724002 0.041926 0.042112
v -0.715353 0.028886 0.023565
v -0.724524 0.030727 0.024768
v -0.713781 0.026703 0.038895
v -0.722951 0.028543 0.040098
vn 0.0416 0.0371 -0.9984
vn 0.6805 0.1255 -0.7219
vn 0.8636 0.0077 -0.5040
vn 0.1096 -0.0534 -0.9925
vn 0.7317 0.0946 -0.6750
vn 0.5435 -0.1962 -0.8162
vn 0.8624 -0.1993 0.4654
vn 0.6956 0.0776 0.7142
vn -0.0320 0.0771 -0.9965
vn -0.0905 -0.0707 -0.9934
vn 0.0988 0.0345 0.9945
vn 0.2020 -0.0836 0.9758
vn 0.0358 -0.1081 0.9935
vn 0.0117 0.0070 0.9999
vn -0.0292 -0.0478 -0.9984
vn -0.0357 0.4866 -0.8729
vn -0.0820 0.4058 -0.9103
vn -0.0000 -0.1721 0.9851
vn -0.0000 -0.0988 -0.9951
vn -0.6873 -0.0869 -0.7212
vn -0.7253 -0.2694 0.6335
vn 0.6938 0.0658 0.7171
vn 0.7449 0.0063 0.6671
vn 0.0094 -0.0515 0.9986
vn 0.0009 -0.0526 0.9986
vn 0.1269 -0.1159 0.9851
vn 0.2280 -0.1853 0.9559
vn 0.8817 -0.2544 0.3973
vn 0.7417 0.2294 0.6303
vn 0.3954 0.3813 0.8356
vn 0.5229 0.1477 -0.8395
vn 0.2233 0.9296 -0.2932
vn -0.0153 0.7644 -0.6446
vn 0.0643 0.9903 0.1231
vn 0.2993 0.9512 -0.0755
vn 0.6859 0.6704 -0.2831
vn 0.0737 -0.1281 0.9890
vn 0.0737 -0.2178 0.9732
vn 0.1495 -0.1371 0.9792
vn -0.0048 0.0276 -0.9996
vn -0.0000 -0.0098 -1.0000
vn 0.0974 0.2940 0.9508
vn 0.4079 0.3092 0.8591
vn -0.9885 -0.0762 -0.1303
vn -0.2733 -0.6110 -0.7430
vn -0.3392 -0.7457 -0.5735
vn 0.5614 -0.4574 -0.6897
vn 0.6622 -0.5884 -0.4639
vn 0.6983 -0.6402 -0.3201
vn 0.6930 -0.5445 -0.4725
vn 0.9743 -0.1373 -0.1786
vn 0.9628 -0.2554 -0.0877
vn 0.3096 -0.3116 0.8984
vn 0.4321 -0.2551 0.8650
vn -0.5477 -0.3244 0.7712
vn -0.5633 -0.4161 0.7138
vn -0.3159 -0.8088 -0.4959
vn 0.6073 -0.6305 0.4834
vn -0.4093 -0.8651 0.2899
vn 0.6131 -0.0058 -0.7900
vn -0.2740 0.0171 -0.9616
vn -0.3602 0.4518 -0.8162
vn 0.5750 0.4243 -0.6995
vn 0.9991 -0.0383 0.0176
vn 0.9942 -0.1076 -0.0019
vn 0.8212 -0.1714 0.5443
vn 0.7837 -0.2464 0.5701
vn 0.4471 -0.1014 0.8887
vn 0.8946 -0.0912 0.4375
vn 0.9197 0.0874 0.3827
vn 0.4734 0.1065 0.8744
vn 0.8856 -0.3286 -0.3283
vn 0.9415 -0.2006 -0.2708
vn 0.7552 -0.2930 0.5863
vn -0.5272 0.1617 0.8342
vn 0.2662 0.5030 0.8222
vn -0.5762 0.4542 0.6795
vn 0.7317 0.5038 0.4591
vn 0.9924 -0.1015 0.0701
vn 0.9772 -0.1194 -0.1756
vn 0.9697 0.1724 -0.1732
vn 0.9879 0.0850 0.1299
vn -0.5711 -0.1360 0.8095
vn 0.8684 0.4725 0.1503
vn 0.7655 0.5826 -0.2730
vn 0.4784 0.8563 -0.1946
vn 0.5003 0.8544 0.1407
vn 0.4051 0.6679 -0.6243
vn 0.2125 0.9196 -0.3303
vn -0.3924 0.6189 -0.6804
vn 0.1464 0.9826 0.1145
vn -0.4937 0.8692 0.0276
vn -0.5140 0.7439 0.4271
vn 0.0846 0.8436 0.5303
vn 0.4173 0.7822 0.4626
vn -0.4230 0.8195 -0.3866
vn -0.6500 -0.1705 -0.7406
vn -0.7244 -0.2476 0.6434
vn 0.2548 0.0585 -0.9652
vn 0.8944 0.0856 -0.4389
vn 0.9350 0.0902 -0.3429
vn 0.3926 0.0351 -0.9190
vn 0.8409 -0.0067 0.5411
vn 0.4157 0.1037 -0.9035
vn -0.6662 -0.0337 -0.7450
vn 0.0705 -0.0616 0.9956
vn -0.6794 -0.0695 0.7305
vn -0.0000 -0.0000 1.0000
vn 0.7575 0.0116 0.6527
vn -0.6979 -0.1249 -0.7053
vn -0.7201 -0.0710 0.6903
vn 0.9290 0.1503 -0.3382
vn 0.9348 0.0662 -0.3490
vn 0.4064 -0.0143 -0.9136
vn 0.6802 0.1098 0.7247
vn 0.4440 -0.0328 -0.8954
vn -0.7138 -0.1940 -0.6730
vn -0.6869 -0.1468 0.7118
vn 0.7365 0.0595 0.6738
vn -0.6048 0.1759 -0.7767
vn -0.7247 0.5127 0.4604
vn 0.9367 -0.0444 -0.3474
vn 0.9268 0.2326 -0.2950
vn 0.4745 0.1463 -0.8680
vn 0.7033 -0.0456 0.7095
vn 0.4597 0.1327 -0.8781
vn -0.6946 0.2454 -0.6762
vn 0.8874 -0.4607 0.0164
vn 0.8813 0.4717 0.0295
vn 0.5565 0.6144 0.5593
vn 0.4177 -0.3438 0.8410
vn 0.7560 0.5422 0.3667
vn 0.0586 0.5729 0.8175
vn 0.9013 0.2801 -0.3305
vn 0.8305 -0.5016 -0.2420
vn -0.9473 0.3172 0.0443
vn -0.5923 -0.5731 -0.5663
vn -0.7284 -0.6838 0.0421
vn -0.6158 -0.5547 0.5596
vn -0.6157 0.3931 0.6829
vn 0.3881 -0.6381 -0.6650
vn 0.0684 -0.9969 0.0396
vn 0.4746 0.8158 0.3304
vn 0.0968 0.9040 0.4165
vn -0.8729 0.4112 -0.2627
vn -0.4395 0.8793 0.1833
vn -0.0708 0.9271 -0.3681
vn -0.3838 0.5763 -0.7215
vn 0.6447 0.6912 -0.3266
vn 0.4027 0.3758 -0.8346
vn -0.4515 -0.3921 0.8015
vn -0.6510 -0.7414 0.1627
vn -0.5634 -0.8003 0.2052
vn -0.3371 -0.4135 0.8458
vn -0.0461 0.0702 0.9965
vn -0.6068 0.4452 0.6585
vn -0.9375 0.0785 0.3390
vn -0.8694 -0.0736 -0.4885
vn -0.4806 -0.6702 -0.5655
vn -0.9664 -0.2528 0.0464
vn 0.4506 0.6943 0.5612
vn 0.5741 0.5726 0.5852
vn 0.1052 0.0629 0.9925
vn 0.1927 0.0808 0.9779
vn 0.6246 0.5045 0.5961
vn -0.0560 -0.2065 -0.9768
vn 0.0487 -0.2501 -0.9670
vn -0.4271 -0.7121 -0.5572
vn 0.7185 0.6406 -0.2709
vn 0.4795 0.3302 -0.8131
vn -0.2782 -0.3330 0.9009
vn -0.4980 0.1683 -0.8507
vn 0.4779 0.3338 -0.8126
vn 0.7645 0.5771 -0.2870
vn 0.7932 0.5449 -0.2719
vn 0.5064 0.2959 -0.8100
vn -0.4638 -0.6839 -0.5632
vn 0.0187 -0.2464 -0.9690
vn 0.0259 -0.2074 -0.9779
vn -0.5344 -0.6228 -0.5714
vn -0.5850 -0.7891 0.1872
vn 0.1749 -0.0332 0.9840
vn -0.2434 -0.4506 0.8589
vn -0.3505 -0.4762 0.8065
vn -0.1307 0.1727 0.9763
vn 0.4542 0.3487 -0.8198
vn -0.1696 0.0586 -0.9838
vn 0.6379 0.4965 0.5887
vn -0.5531 -0.7996 0.2339
vn -0.0476 -0.5622 0.8257
vn -0.0888 -0.8935 0.4402
vn -0.3230 0.3881 0.8632
vn 0.5072 0.7951 -0.3324
vn 0.7220 0.2540 -0.6436
vn 0.4273 0.3842 -0.8184
vn -0.7945 -0.5634 0.2265
vn -0.7732 -0.3139 -0.5510
vn 0.2401 0.8245 0.5124
vn 0.9174 -0.2627 0.2989
vn 0.6753 -0.2616 0.6896
vn 0.9641 -0.0388 0.2628
vn 0.9794 0.1608 -0.1221
vn 0.6854 -0.3836 -0.6189
vn -0.3166 0.0260 -0.9482
vn -0.3449 -0.5229 0.7795
vn -0.8070 -0.5652 0.1711
vn -0.7973 -0.3361 -0.5014
vn -0.3708 0.8651 0.3379
vn -0.0051 0.4962 0.8682
vn -0.0267 -0.7206 0.6928
vn -0.3000 -0.7058 -0.6417
vn -0.3585 -0.7130 0.6025
vn -0.5001 0.3975 0.7694
vn -0.3661 0.7405 -0.5635
vn -0.2683 -0.5232 -0.8088
vn 0.5724 0.8197 -0.0206
vn 0.7718 -0.4912 -0.4038
vn 0.4917 0.4206 0.7625
vn 0.5674 -0.5420 0.6199
vn -0.5989 -0.6626 0.4498
vn -0.7904 -0.1060 0.6033
vn -0.6172 0.0223 -0.7865
vn -0.4563 -0.5570 -0.6939
vn 0.7744 -0.1200 -0.6213
vn 0.5691 -0.5754 -0.5874
vn 0.6023 -0.2474 0.7590
vn 0.4217 -0.6845 0.5947
vn 0.8308 0.0894 -0.5493
vn 0.6698 -0.0297 0.7420
vn -0.8109 0.0088 0.5852
vn 0.3633 0.6170 0.6980
vn -0.6037 0.5477 0.5794
vn -0.6440 0.1324 -0.7535
vn 0.5084 0.7244 -0.4655
vn -0.4566 0.6566 -0.6004
vn 0.0204 -0.4376 -0.8990
vn -0.2628 -0.8433 -0.4688
vn -0.0360 0.9117 0.4092
vn 0.5639 -0.7936 -0.2283
vn 0.3543 -0.8961 0.2672
vn -0.2048 -0.9786 -0.0188
vn -0.0904 -0.9287 0.3598
vn -0.3461 0.3529 0.8693
vn 0.3399 -0.9071 -0.2483
vn 0.5449 -0.3237 -0.7735
vn 0.4992 -0.3987 -0.7693
vn 0.2823 -0.9167 -0.2829
vn 0.2713 0.9224 -0.2750
vn 0.7586 -0.6449 0.0934
vn 0.3509 -0.7465 0.5654
vn 0.2725 0.9090 -0.3154
vn -0.0534 0.9144 0.4014
vn 0.5878 0.5698 0.5744
vn 0.7266 0.6871 0.0031
vn 0.2378 0.2477 0.9392
vn 0.8633 -0.2858 -0.4159
vn -0.1853 -0.1290 -0.9742
vn -0.4743 0.4023 -0.7831
vn 0.1831 0.9711 -0.1528
vn 0.7288 0.6643 -0.1662
vn -0.3095 0.5283 0.7906
vn 0.1283 0.1245 0.9839
vn -0.9809 -0.0532 0.1871
vn -0.7567 -0.6427 0.1201
vn 0.7545 0.6359 -0.1624
vn -0.0638 -0.1684 -0.9837
vn 0.1565 0.0984 0.9828
vn 0.2772 -0.0037 0.9608
vn 0.8492 0.5106 -0.1347
vn -0.6732 -0.7163 0.1836
vn -0.6446 -0.7489 0.1537
vn -0.0399 -0.9722 0.2307
vn 0.4434 -0.4231 0.7902
vn -0.0558 -0.2196 -0.9740
vn 0.9731 0.0531 -0.2242
vn 0.4553 -0.5271 -0.7176
vn -0.2122 -0.0722 -0.9746
vn -0.4764 0.4617 -0.7482
vn 0.2738 0.9549 -0.1154
vn 0.7839 0.5988 -0.1639
vn -0.2204 0.5106 0.8311
vn 0.1864 0.0616 0.9805
vn -0.9774 0.0113 0.2112
vn -0.7927 -0.5940 0.1371
vn 0.8122 0.5585 -0.1686
vn -0.1399 -0.0626 -0.9882
vn 0.2142 0.0210 0.9766
vn 0.2942 -0.0649 0.9536
vn 0.8750 0.4573 -0.1589
vn -0.7595 -0.6196 0.1984
vn -0.7929 -0.5843 0.1729
vn -0.3118 -0.9448 0.1004
vn 0.4467 -0.5562 0.7008
vn -0.1906 -0.0428 -0.9807
vn 0.9564 -0.0981 -0.2753
vn 0.1825 -0.5004 -0.8463
vn -0.2285 0.0062 -0.9735
vn -0.4773 0.4967 -0.7249
vn 0.3448 0.9345 -0.0889
vn 0.8232 0.5424 -0.1677
vn -0.1502 0.4895 0.8590
vn 0.2272 0.0065 0.9738
vn -0.9731 0.0510 0.2247
vn -0.8280 -0.5328 0.1747
vn 0.8467 0.5008 -0.1800
vn -0.2120 -0.0080 -0.9772
vn 0.2471 -0.0383 0.9682
vn 0.3014 -0.1037 0.9478
vn 0.8884 0.4239 -0.1762
vn -0.8155 -0.5506 0.1785
vn -0.8006 -0.5760 0.1651
vn -0.3507 -0.9317 0.0948
vn 0.4392 -0.5991 0.6694
vn -0.2036 -0.0392 -0.9783
vn 0.9438 -0.1455 -0.2969
vn 0.1496 -0.4819 -0.8634
vn -0.2153 0.0490 -0.9753
vn -0.4743 0.5787 -0.6634
vn 0.6095 0.7928 -0.0076
vn 0.9156 0.3135 -0.2519
vn 0.1213 0.3539 0.9274
vn 0.3020 -0.2380 0.9231
vn -0.9551 0.1464 0.2575
vn -0.8349 -0.5081 0.2114
vn 0.9321 0.2855 -0.2230
vn -0.2619 0.1261 -0.9568
vn 0.3419 -0.2450 0.9072
vn 0.3580 -0.3477 0.8666
vn 0.9475 0.1823 -0.2625
vn -0.8769 -0.4268 0.2211
vn -0.8817 -0.4372 0.1773
vn -0.5191 -0.8532 0.0515
vn 0.3272 -0.7827 0.5295
vn -0.2921 0.0929 -0.9519
vn 0.8350 -0.3261 -0.4431
vn -0.0134 -0.3985 -0.9171
vn -0.0432 0.0380 -0.9983
vn -0.1096 -0.0534 -0.9925
vn -0.8636 0.0077 -0.5040
vn -0.6796 0.1209 -0.7235
vn -0.7448 0.1051 -0.6590
vn -0.6872 0.0525 0.7246
vn -0.8216 -0.1649 0.5458
vn -0.6242 -0.1127 -0.7731
vn 0.0131 0.0884 -0.9960
vn 0.0251 -0.0421 -0.9988
vn -0.0561 0.0163 0.9983
vn -0.1146 -0.0981 0.9886
vn 0.0047 0.4295 -0.9030
vn 0.7253 -0.2694 0.6335
vn 0.6873 -0.0869 -0.7212
vn -0.7449 0.0063 0.6671
vn -0.6936 0.0519 0.7185
vn -0.0076 -0.0544 0.9985
vn -0.1269 -0.1159 0.9851
vn -0.0856 -0.1808 0.9798
vn -0.2093 0.4190 0.8835
vn -0.6011 0.3070 0.7378
vn -0.8311 -0.1607 0.5324
vn -0.6210 0.2314 -0.7489
vn -0.1712 0.9504 -0.2598
vn -0.2052 0.9781 -0.0353
vn -0.6443 0.7432 -0.1806
vn -0.1495 -0.1371 0.9792
vn -0.2203 0.3448 0.9125
vn -0.4239 -0.6721 -0.6071
vn -0.2892 -0.5230 -0.8018
vn -0.4876 -0.7316 -0.4764
vn -0.8579 -0.3957 -0.3277
vn -0.8632 -0.2789 -0.4208
vn -0.4577 -0.6331 -0.6242
vn -0.4799 -0.3724 0.7943
vn -0.5968 -0.3344 0.7294
vn -0.6092 -0.7242 0.3230
vn -0.3808 -0.0824 -0.9210
vn -0.4326 0.3467 -0.8323
vn -0.9524 -0.1887 -0.2396
vn -0.8578 -0.3729 0.3538
vn -0.8982 -0.3039 0.3177
vn -0.9322 -0.2561 -0.2558
vn -0.6404 -0.1852 0.7454
vn -0.6931 0.0166 0.7207
vn -0.9896 -0.0597 0.1310
vn -0.9528 -0.2336 0.1940
vn -0.7987 -0.3346 -0.5001
vn -0.7112 -0.4516 -0.5388
vn -0.8277 -0.4149 0.3777
vn -0.5416 0.4408 0.7158
vn -0.8925 0.3787 0.2451
vn -0.9499 -0.2512 -0.1859
vn -0.9891 -0.0673 -0.1307
vn -0.9068 0.0279 -0.4206
vn -0.8695 -0.2617 -0.4190
vn -0.9387 0.3332 -0.0878
vn -0.6424 0.7663 -0.0099
vn -0.5354 0.7782 -0.3282
vn -0.7481 0.4660 -0.4725
vn -0.2562 0.8835 -0.3921
vn -0.3264 0.6115 -0.7207
vn -0.3171 0.9469 0.0534
vn -0.3443 0.8105 0.4738
vn -0.6352 0.7011 0.3239
vn 0.7244 -0.2476 0.6434
vn 0.6500 -0.1705 -0.7406
vn -0.2548 0.0585 -0.9652
vn -0.3926 0.0351 -0.9190
vn -0.9350 0.0902 -0.3429
vn -0.8944 0.0856 -0.4389
vn -0.8409 -0.0067 0.5412
vn 0.6662 -0.0337 -0.7450
vn -0.4157 0.1037 -0.9035
vn -0.0705 -0.0616 0.9956
vn 0.6794 -0.0695 0.7305
vn -0.7575 0.0116 0.6527
vn 0.7201 -0.0710 0.6903
vn 0.6979 -0.1249 -0.7053
vn -0.4064 -0.0143 -0.9136
vn -0.9348 0.0662 -0.3490
vn -0.9290 0.1503 -0.3382
vn -0.6802 0.1098 0.7247
vn 0.7138 -0.1940 -0.6730
vn -0.4440 -0.0328 -0.8954
vn 0.6869 -0.1468 0.7118
vn -0.7365 0.0595 0.6738
vn 0.7247 0.5127 0.4604
vn 0.6048 0.1759 -0.7767
vn -0.4745 0.1463 -0.8680
vn -0.9268 0.2326 -0.2950
vn -0.9367 -0.0444 -0.3474
vn -0.7033 -0.0456 0.7095
vn 0.6946 0.2454 -0.6762
vn -0.4597 0.1327 -0.8781
vn -0.8874 -0.4607 0.0164
vn -0.4177 -0.3438 0.8410
vn -0.5565 0.6144 0.5593
vn -0.8813 0.4717 0.0295
vn -0.7560 0.5422 0.3667
vn -0.0586 0.5729 0.8175
vn -0.9013 0.2801 -0.3305
vn -0.8305 -0.5016 -0.2420
vn 0.9473 0.3172 0.0443
vn 0.7284 -0.6838 0.0421
vn 0.5923 -0.5731 -0.5663
vn 0.6157 0.3931 0.6829
vn 0.6158 -0.5547 0.5596
vn -0.3881 -0.6381 -0.6650
vn -0.0684 -0.9969 0.0396
vn -0.4746 0.8158 0.3304
vn -0.0968 0.9040 0.4165
vn 0.9390 0.3405 -0.0479
vn 0.6440 0.3662 -0.6717
vn 0.2589 0.7939 -0.5502
vn 0.4189 0.9040 0.0858
vn -0.0732 0.1283 -0.9890
vn -0.4454 0.5650 -0.6945
vn 0.1288 -0.1521 0.9799
vn 0.0049 -0.1628 0.9867
vn 0.4010 -0.7044 0.5857
vn 0.5020 -0.6576 0.5617
vn 0.7749 0.1845 0.6046
vn 0.3857 0.6179 0.6852
vn -0.2821 0.3383 0.8978
vn 0.9741 -0.1874 -0.1266
vn 0.8741 -0.2132 0.4364
vn 0.5889 -0.7895 -0.1728
vn -0.5575 0.8120 0.1728
vn -0.6907 0.6992 0.1843
vn -0.7470 0.6357 0.1947
vn -0.4997 0.3392 0.7971
vn -0.4236 0.3275 0.8446
vn 0.5326 -0.8285 -0.1726
vn 0.2563 -0.5035 -0.8251
vn 0.3613 -0.4623 -0.8098
vn -0.1560 0.0888 -0.9838
vn -0.5372 0.5301 -0.6561
vn -0.0627 -0.0714 0.9955
vn 0.7634 -0.0595 -0.6432
vn -0.1543 0.0924 -0.9837
vn -0.1849 0.0562 -0.9812
vn -0.6143 0.4364 -0.6575
vn -0.5799 0.4638 -0.6698
vn 0.5713 -0.8024 -0.1729
vn 0.6451 -0.7445 -0.1722
vn 0.2846 -0.4650 -0.8383
vn 0.2854 -0.5000 -0.8176
vn 0.4282 -0.6981 0.5738
vn -0.4936 0.2314 0.8383
vn -0.1882 0.4330 0.8815
vn 0.0258 -0.2334 0.9720
vn -0.0904 -0.1966 0.9763
vn 0.4905 -0.2070 -0.8465
vn -0.1285 0.1053 -0.9861
vn -0.7576 0.6257 0.1856
vn 0.3819 -0.6962 0.6079
vn 0.0465 0.6132 0.7885
vn -0.1302 -0.7390 0.6610
vn -0.2719 -0.3165 0.9088
vn -0.1010 0.1403 -0.9849
vn -0.4460 0.0569 -0.8932
vn -0.3064 0.6660 -0.6801
vn 0.6292 -0.4664 0.6217
vn 0.8862 -0.4373 -0.1532
vn -0.3335 0.9280 0.1664
vn -0.9817 -0.1885 0.0267
vn -0.9966 0.0163 -0.0802
vn -0.8836 -0.0772 0.4618
vn -0.4681 -0.5493 -0.6922
vn -0.8682 0.1039 -0.4852
vn 0.6145 -0.2261 -0.7559
vn 0.0260 -0.2859 0.9579
vn 0.6592 -0.4830 0.5763
vn 0.8907 -0.4448 -0.0943
vn 0.0051 0.4962 0.8682
vn 0.3708 0.8651 0.3379
vn 0.0267 -0.7206 0.6928
vn -0.5586 -0.5937 -0.5792
vn -0.6645 0.7244 -0.1836
vn -0.6196 -0.6335 0.4635
vn -0.7290 0.3266 0.6016
vn 0.5556 -0.5736 0.6019
vn 0.6982 -0.4680 -0.5418
vn 0.7883 0.1306 -0.6013
vn 0.6150 0.0023 0.7885
vn -0.3052 -0.6428 -0.7026
vn -0.5610 -0.2229 -0.7973
vn -0.4526 -0.7519 0.4794
vn -0.7331 -0.3503 0.5830
vn -0.8259 -0.1450 0.5448
vn -0.6649 -0.0258 -0.7465
vn 0.6219 0.1192 0.7740
vn 0.3445 0.6207 0.7043
vn -0.6195 0.5413 0.5685
vn 0.7888 0.2428 -0.5647
vn -0.4744 0.6487 -0.5950
vn 0.4916 0.7296 -0.4754
vn 0.3389 -0.9338 -0.1143
vn 0.2462 -0.6650 -0.7051
vn -0.0331 0.9890 0.1442
vn -0.5145 -0.8359 -0.1911
vn -0.4896 -0.7965 0.3546
vn 0.1248 -0.9432 0.3078
vn 0.0636 0.5814 0.8111
vn -0.1047 -0.7947 0.5979
vn -0.3058 -0.9465 -0.1034
vn -0.2409 -0.9640 -0.1126
vn -0.2441 -0.6012 -0.7609
vn -0.2801 -0.5310 -0.7997
vn -0.0940 0.8083 -0.5812
vn -0.5741 -0.5716 0.5862
vn -0.7930 -0.6092 -0.0054
vn -0.0827 0.7845 -0.6146
vn -0.6322 0.6489 -0.4234
vn -0.7002 0.6933 0.1706
vn -0.0139 0.9897 0.1424
vn -0.5166 0.4885 0.7032
vn -0.6953 -0.4035 -0.5948
vn 0.4879 -0.3847 -0.7836
vn -0.5798 0.5811 -0.5711
vn -0.0479 0.8899 -0.4536
vn 0.7364 0.1836 -0.6512
vn -0.4378 0.3840 0.8129
vn 0.0685 0.7282 0.6819
vn 0.6230 -0.5722 0.5334
vn 0.8561 0.0174 0.5164
vn 0.3737 -0.4274 -0.8232
vn -0.6074 0.5543 -0.5691
vn -0.7151 0.4395 -0.5436
vn -0.5799 0.2517 0.7749
vn -0.4660 0.3580 0.8091
vn 0.5179 -0.6274 0.5815
vn -0.7112 -0.2012 0.6735
vn -0.1126 -0.8725 0.4755
vn 0.4984 -0.6675 0.5533
vn 0.3592 -0.4742 -0.8038
vn -0.8365 -0.0273 -0.5473
vn -0.2297 -0.7099 -0.6658
vn 0.5176 -0.3296 -0.7896
vn -0.6374 0.5177 -0.5708
vn -0.1469 0.8828 -0.4463
vn 0.7313 0.2503 -0.6345
vn -0.4961 0.3215 0.8066
vn -0.0300 0.7205 0.6928
vn 0.6548 -0.5201 0.5483
vn 0.8497 0.0859 0.5202
vn 0.4549 -0.3254 -0.8290
vn -0.6654 0.4771 -0.5741
vn -0.7354 0.3812 -0.5603
vn -0.5980 0.1905 0.7785
vn -0.5240 0.2808 0.8041
vn 0.6014 -0.5287 0.5990
vn -0.6948 -0.3536 0.6263
vn 0.1884 -0.8765 0.4431
vn 0.6440 -0.5011 0.5781
vn 0.5015 -0.3034 -0.8102
vn -0.8153 -0.1863 -0.5483
vn 0.0715 -0.7142 -0.6963
vn 0.5385 -0.2536 -0.8036
vn -0.6773 0.4616 -0.5729
vn -0.2239 0.8690 -0.4412
vn 0.7270 0.2904 -0.6222
vn -0.5364 0.2659 0.8010
vn -0.1069 0.7066 0.6995
vn 0.6802 -0.4504 0.5783
vn 0.8442 0.1276 0.5206
vn 0.5231 -0.2686 -0.8088
vn -0.6984 0.4178 -0.5811
vn -0.7447 0.3441 -0.5718
vn -0.6059 0.1515 0.7810
vn -0.5566 0.2210 0.8008
vn 0.6658 -0.4667 0.5821
vn -0.6805 -0.4033 0.6118
vn 0.2278 -0.8646 0.4479
vn 0.6544 -0.4950 0.5716
vn 0.5132 -0.2991 -0.8045
vn -0.7998 -0.2376 -0.5512
vn 0.1095 -0.7004 -0.7053
vn 0.5299 -0.2131 -0.8208
vn -0.7535 0.2169 -0.6206
vn -0.5106 0.7498 -0.4208
vn 0.7100 0.3859 -0.5891
vn -0.6084 0.0155 0.7935
vn -0.3951 0.5896 0.7044
vn 0.6764 -0.4165 0.6074
vn 0.8237 0.2281 0.5192
vn 0.5734 -0.1330 -0.8084
vn -0.7807 0.1974 -0.5928
vn -0.7900 0.0871 -0.6069
vn -0.6506 -0.1064 0.7519
vn -0.6412 0.0037 0.7674
vn 0.7188 -0.3349 0.6092
vn -0.5426 -0.6158 0.5713
vn 0.4065 -0.7977 0.4455
vn 0.7371 -0.3567 0.5740
vn 0.5977 -0.1631 -0.7850
vn -0.6627 -0.4491 -0.5992
vn 0.2869 -0.6317 -0.7202
vt 0.117766 0.248745
vt 0.147122 0.243902
vt 0.148169 0.282178
vt 0.120483 0.302020
vt 0.382355 0.171717
vt 0.376193 0.118992
vt 0.445977 0.112333
vt 0.453386 0.195957
vt 0.115185 0.196217
vt 0.116832 0.147850
vt 0.145206 0.149064
vt 0.141863 0.201550
vt 0.537683 0.201288
vt 0.535953 0.125034
vt 0.564325 0.123783
vt 0.564358 0.195949
vt 0.088458 0.146636
vt 0.088378 0.077788
vt 0.122300 0.084333
vt 0.704035 0.410626
vt 0.763979 0.398128
vt 0.790873 0.454413
vt 0.712342 0.462953
vt 0.359453 0.209023
vt 0.450078 0.217001
vt 0.446770 0.238044
vt 0.378529 0.248293
vt 0.534955 0.248005
vt 0.564308 0.252768
vt 0.564257 0.309587
vt 0.532227 0.294722
vt 0.530279 0.076166
vt 0.480089 0.065488
vt 0.485456 0.031691
vt 0.518839 0.020998
vt 0.364775 0.058172
vt 0.441081 0.051782
vt 0.501532 0.122661
vt 0.133538 0.033077
vt 0.088491 0.029497
vt 0.088535 0.009938
vt 0.122158 0.026468
vt 0.386693 0.009938
vt 0.441925 0.020238
vt 0.156223 0.090878
vt 0.166983 0.041561
vt 0.010353 0.857015
vt 0.009938 0.823151
vt 0.061964 0.823203
vt 0.066530 0.857153
vt 0.564198 0.069610
vt 0.563911 0.016349
vt 0.505624 0.229553
vt 0.500240 0.252477
vt 0.560005 0.362148
vt 0.526293 0.360990
vt 0.511008 0.206628
vt 0.088507 0.190884
vt 0.088411 0.253587
vt 0.088535 0.311817
vt 0.016012 0.811382
vt 0.024508 0.776835
vt 0.061424 0.777582
vt 0.061591 0.811387
vt 0.530247 0.013395
vt 0.563911 0.009938
vt 0.892631 0.929678
vt 0.878728 0.927618
vt 0.901394 0.892587
vt 0.901986 0.904198
vt 0.282800 0.771745
vt 0.283793 0.761396
vt 0.291952 0.762097
vt 0.293880 0.773462
vt 0.239059 0.959128
vt 0.224327 0.951871
vt 0.221600 0.938930
vt 0.236333 0.946187
vt 0.904479 0.806247
vt 0.906172 0.794226
vt 0.915898 0.793775
vt 0.917665 0.809219
vt 0.281294 0.795146
vt 0.295296 0.797880
vt 0.290215 0.826107
vt 0.276558 0.824706
vt 0.119161 0.913018
vt 0.102965 0.907317
vt 0.109451 0.886581
vt 0.127779 0.894073
vt 0.234734 0.939314
vt 0.233136 0.932442
vt 0.261612 0.928895
vt 0.262883 0.935843
vt 0.267849 0.910815
vt 0.253411 0.910590
vt 0.245351 0.892600
vt 0.264041 0.890814
vt 0.212721 0.949830
vt 0.201115 0.947789
vt 0.208167 0.940278
vt 0.214884 0.939604
vt 0.903053 0.819914
vt 0.894498 0.807690
vt 0.892155 0.801125
vt 0.910316 0.749338
vt 0.889686 0.757096
vt 0.892069 0.744044
vt 0.909140 0.740720
vt 0.241293 0.876981
vt 0.256861 0.881355
vt 0.228923 0.914737
vt 0.208354 0.919474
vt 0.204213 0.902073
vt 0.224782 0.897336
vt 0.186859 0.926345
vt 0.188911 0.904833
vt 0.860289 0.913855
vt 0.842385 0.950254
vt 0.823531 0.939112
vt 0.842166 0.900328
vt 0.913083 0.771364
vt 0.897858 0.775500
vt 0.899735 0.031065
vt 0.899735 0.009938
vt 0.906886 0.015901
vt 0.907002 0.030622
vt 0.139996 0.883155
vt 0.130227 0.882538
vt 0.126768 0.866984
vt 0.135809 0.873994
vt 0.112873 0.875704
vt 0.137416 0.900512
vt 0.200155 0.886454
vt 0.220724 0.881717
vt 0.819626 0.929342
vt 0.826802 0.892831
vt 0.917947 0.030432
vt 0.928598 0.030404
vt 0.928389 0.051234
vt 0.917304 0.051261
vt 0.906273 0.050608
vt 0.812647 0.908923
vt 0.818409 0.888735
vt 0.910138 0.067270
vt 0.899735 0.052193
vt 0.895994 0.726245
vt 0.906800 0.723712
vt 0.116993 0.862716
vt 0.785185 0.509366
vt 0.729412 0.541645
vt 0.134293 0.370515
vt 0.163757 0.370488
vt 0.165773 0.451757
vt 0.143407 0.426143
vt 0.413331 0.333726
vt 0.377353 0.330334
vt 0.100577 0.371737
vt 0.488696 0.353040
vt 0.120798 0.430730
vt 0.149451 0.475896
vt 0.127852 0.481156
vt 0.508951 0.439954
vt 0.531557 0.444474
vt 0.524470 0.466013
vt 0.502873 0.460823
vt 0.407418 0.411761
vt 0.371440 0.408369
vt 0.486681 0.433762
vt 0.729669 0.561822
vt 0.792771 0.557691
vt 0.792015 0.620003
vt 0.730204 0.618152
vt 0.341532 0.432525
vt 0.370064 0.427599
vt 0.367432 0.471732
vt 0.339060 0.484666
vt 0.484978 0.453955
vt 0.351746 0.386727
vt 0.406042 0.430991
vt 0.129142 0.544535
vt 0.152760 0.530526
vt 0.156236 0.578741
vt 0.135310 0.582319
vt 0.499571 0.509101
vt 0.523187 0.522977
vt 0.517042 0.552259
vt 0.496118 0.548739
vt 0.403410 0.475124
vt 0.473262 0.502247
vt 0.730524 0.646176
vt 0.787700 0.656358
vt 0.788956 0.705685
vt 0.731243 0.707845
vt 0.340420 0.530956
vt 0.363528 0.518960
vt 0.357972 0.587339
vt 0.335953 0.584180
vt 0.476877 0.549895
vt 0.399506 0.522352
vt 0.150353 0.634934
vt 0.160846 0.635056
vt 0.162641 0.655186
vt 0.141042 0.652708
vt 0.392473 0.620743
vt 0.393055 0.603657
vt 0.449342 0.620324
vt 0.453386 0.624287
vt 0.393951 0.590731
vt 0.501997 0.616956
vt 0.491506 0.617094
vt 0.480678 0.619238
vt 0.357077 0.600265
vt 0.363237 0.618605
vt 0.731873 0.722842
vt 0.792531 0.724673
vt 0.792771 0.751640
vt 0.732112 0.749810
vt 0.677203 0.744712
vt 0.674437 0.734780
vt 0.331140 0.602795
vt 0.699285 0.771517
vt 0.716261 0.802959
vt 0.725811 0.831629
vt 0.699285 0.832072
vt 0.674437 0.771849
vt 0.674437 0.832404
vt 0.746370 0.771699
vt 0.757470 0.771560
vt 0.757030 0.801578
vt 0.745687 0.829742
vt 0.165261 0.680335
vt 0.139960 0.679874
vt 0.768402 0.771517
vt 0.767961 0.801534
vt 0.329482 0.626462
vt 0.920027 0.484823
vt 0.920027 0.462750
vt 0.939914 0.462700
vt 0.939914 0.484774
vt 0.856982 0.016705
vt 0.878734 0.009938
vt 0.879859 0.063572
vt 0.854903 0.063363
vt 0.498230 0.692563
vt 0.523817 0.692186
vt 0.514180 0.747108
vt 0.494610 0.747159
vt 0.473262 0.693028
vt 0.473427 0.639115
vt 0.495127 0.645562
vt 0.356026 0.646338
vt 0.355261 0.677018
vt 0.329482 0.678148
vt 0.336146 0.646338
vt 0.112210 0.746045
vt 0.106920 0.702294
vt 0.126675 0.700211
vt 0.139547 0.742000
vt 0.119792 0.789900
vt 0.139547 0.787817
vt 0.139016 0.833803
vt 0.127052 0.840802
vt 0.381161 0.678148
vt 0.374670 0.731006
vt 0.354790 0.731006
vt 0.875108 0.125257
vt 0.858279 0.118510
vt 0.828990 0.063491
vt 0.838617 0.118734
vt 0.477911 0.754126
vt 0.498956 0.818001
vt 0.486168 0.818145
vt 0.516827 0.652010
vt 0.835230 0.023472
vt 0.920027 0.506896
vt 0.939914 0.506847
vt 0.854454 0.189564
vt 0.866547 0.190044
vt 0.853971 0.231820
vt 0.846790 0.229417
vt 0.353694 0.792896
vt 0.373574 0.792896
vt 0.367061 0.826031
vt 0.353285 0.826031
vt 0.835145 0.191719
vt 0.518190 0.819881
vt 0.499270 0.859815
vt 0.506399 0.857317
vt 0.512018 0.895440
vt 0.501258 0.899083
vt 0.838908 0.227629
vt 0.840586 0.268291
vt 0.829687 0.266338
vt 0.834058 0.335378
vt 0.843235 0.347292
vt 0.838811 0.377465
vt 0.825532 0.373886
vt 0.514230 0.855423
vt 0.498311 0.925317
vt 0.492148 0.928583
vt 0.490891 0.912804
vt 0.851424 0.271790
vt 0.854585 0.298038
vt 0.835581 0.291025
vt 0.522850 0.893339
vt 0.362938 0.855234
vt 0.352520 0.855234
vt 0.273864 0.659575
vt 0.287629 0.659575
vt 0.279695 0.689431
vt 0.275170 0.689431
vt 0.022327 0.980924
vt 0.022327 0.985449
vt 0.009938 0.979336
vt 0.010981 0.977642
vt 0.851338 0.315502
vt 0.831414 0.313839
vt 0.819115 0.279254
vt 0.517171 0.918054
vt 0.533470 0.906079
vt 0.299184 0.933921
vt 0.309606 0.933981
vt 0.309568 0.949762
vt 0.299146 0.949702
vt 0.778444 0.801587
vt 0.786724 0.829745
vt 0.765020 0.829745
vt 0.642201 0.722898
vt 0.642167 0.701157
vt 0.651931 0.704403
vt 0.653597 0.726825
vt 0.642167 0.742260
vt 0.646388 0.743229
vt 0.699259 0.890131
vt 0.676788 0.887099
vt 0.701696 0.716703
vt 0.778884 0.771569
vt 0.714884 0.893474
vt 0.846200 0.867593
vt 0.827731 0.875470
vt 0.917804 0.014566
vt 0.928455 0.014538
vt 0.859271 0.866135
vt 0.881003 0.870191
vt 0.281807 0.782094
vt 0.295809 0.784828
vt 0.267849 0.956848
vt 0.264154 0.942791
vt 0.881197 0.959414
vt 0.861568 0.961591
vt 0.889812 0.794560
vt 0.884772 0.775072
vt 0.105029 0.932372
vt 0.094593 0.934380
vt 0.899975 0.961591
vt 0.906533 0.931737
vt 0.919700 0.826309
vt 0.902579 0.915808
vt 0.942999 0.442824
vt 0.921092 0.439367
vt 0.900140 0.398128
vt 0.944435 0.398128
vt 0.912345 0.346342
vt 0.912351 0.301413
vt 0.925022 0.300538
vt 0.925016 0.345467
vt 0.900140 0.699083
vt 0.900140 0.655572
vt 0.934960 0.677070
vt 0.938411 0.698649
vt 0.453306 0.978600
vt 0.430809 0.978640
vt 0.430783 0.963578
vt 0.453281 0.963538
vt 0.915144 0.590993
vt 0.927321 0.597500
vt 0.929617 0.635695
vt 0.914879 0.635695
vt 0.678058 0.919838
vt 0.690620 0.913350
vt 0.689477 0.954988
vt 0.674437 0.954988
vt 0.973295 0.318424
vt 0.973295 0.312220
vt 0.979588 0.312230
vt 0.979588 0.318434
vt 0.945117 0.375892
vt 0.944898 0.369603
vt 0.952684 0.369604
vt 0.950465 0.375842
vt 0.160297 0.977872
vt 0.160395 0.971303
vt 0.166675 0.971345
vt 0.166577 0.977914
vt 0.561320 0.980064
vt 0.559101 0.973872
vt 0.566886 0.973862
vt 0.566668 0.980108
vt 0.812647 0.981495
vt 0.817906 0.981467
vt 0.817906 0.987759
vt 0.812647 0.987786
vt 0.160452 0.965487
vt 0.166732 0.965529
vt 0.566886 0.967525
vt 0.557585 0.968291
vt 0.559258 0.962016
vt 0.565407 0.962356
vt 0.973297 0.305895
vt 0.979590 0.305905
vt 0.944898 0.363223
vt 0.954200 0.363983
vt 0.329482 0.980783
vt 0.335623 0.980806
vt 0.335623 0.987092
vt 0.329482 0.987069
vt 0.946377 0.358016
vt 0.952527 0.357668
vt 0.160297 0.959674
vt 0.166577 0.959716
vt 0.973313 0.300536
vt 0.979607 0.300546
vt 0.294654 0.933895
vt 0.294616 0.949676
vt 0.022327 0.970514
vt 0.010594 0.971165
vt 0.309606 0.966332
vt 0.303170 0.965591
vt 0.260099 0.659575
vt 0.264760 0.689431
vt 0.339509 0.826031
vt 0.347991 0.855234
vt 0.279701 0.706628
vt 0.275176 0.706628
vt 0.812254 0.338941
vt 0.812254 0.370307
vt 0.334910 0.731006
vt 0.333814 0.792896
vt 0.900140 0.506945
vt 0.900140 0.484872
vt 0.086407 0.747603
vt 0.100037 0.791983
vt 0.107076 0.837171
vt 0.087165 0.704377
vt 0.375906 0.646338
vt 0.900140 0.462799
vt 0.619419 0.978535
vt 0.619419 0.962440
vt 0.621168 0.962111
vt 0.621168 0.978206
vt 0.647330 0.900302
vt 0.644011 0.920572
vt 0.642167 0.921283
vt 0.645486 0.901014
vt 0.653925 0.899936
vt 0.650414 0.921375
vt 0.612973 0.979040
vt 0.612973 0.962017
vt 0.812254 0.299698
vt 0.642167 0.883186
vt 0.646626 0.883974
vt 0.519782 0.941275
vt 0.501046 0.943107
vt 0.537709 0.927682
vt 0.481327 0.939265
vt 0.479301 0.932079
vt 0.125851 0.960128
vt 0.136269 0.960229
vt 0.136251 0.974799
vt 0.125833 0.974698
vt 0.125798 0.954300
vt 0.136216 0.954401
vt 0.264766 0.706628
vt 0.121270 0.954257
vt 0.121322 0.960084
vt 0.861944 0.285394
vt 0.860802 0.301224
vt 0.121305 0.974654
vt 0.125851 0.979125
vt 0.121322 0.979081
vt 0.264890 0.728974
vt 0.275300 0.728974
vt 0.275286 0.738511
vt 0.264876 0.738511
vt 0.873735 0.304547
vt 0.871755 0.311777
vt 0.279825 0.728974
vt 0.982308 0.601393
vt 0.982308 0.605914
vt 0.977440 0.605952
vt 0.977440 0.601431
vt 0.982308 0.590993
vt 0.977440 0.591031
vt 0.279811 0.738511
vt 0.136269 0.979225
vt 0.477339 0.942126
vt 0.473262 0.939466
vt 0.879859 0.311865
vt 0.875784 0.314588
vt 0.745687 0.933748
vt 0.747178 0.927894
vt 0.755620 0.927741
vt 0.755620 0.933238
vt 0.969863 0.058562
vt 0.969874 0.054763
vt 0.978296 0.055218
vt 0.978285 0.059018
vt 0.954366 0.928960
vt 0.954366 0.923481
vt 0.962777 0.923575
vt 0.964262 0.929401
vt 0.899777 0.377708
vt 0.899735 0.372810
vt 0.908180 0.372798
vt 0.908221 0.377695
vt 0.755124 0.945573
vt 0.747111 0.946091
vt 0.899777 0.366231
vt 0.908221 0.366218
vt 0.974076 0.357668
vt 0.982494 0.358050
vt 0.982716 0.365854
vt 0.974298 0.365472
vt 0.962844 0.941714
vt 0.954861 0.941253
vt 0.969882 0.010082
vt 0.978322 0.009938
vt 0.978322 0.020587
vt 0.969882 0.020730
vt 0.978296 0.067185
vt 0.969874 0.066730
vt 0.956119 0.952929
vt 0.962142 0.953010
vt 0.960966 0.958090
vt 0.958475 0.957627
vt 0.753861 0.957295
vt 0.747815 0.957417
vt 0.978303 0.029991
vt 0.969863 0.030135
vt 0.974249 0.370133
vt 0.982668 0.370515
vt 0.982494 0.372831
vt 0.974076 0.372449
vt 0.751496 0.962024
vt 0.748996 0.962505
vt 0.978322 0.034743
vt 0.969882 0.034886
vt 0.642167 0.833579
vt 0.643667 0.824183
vt 0.651954 0.824183
vt 0.652106 0.833211
vt 0.960828 0.729441
vt 0.960728 0.723482
vt 0.969141 0.723966
vt 0.969240 0.729925
vt 0.863112 0.344370
vt 0.863324 0.335378
vt 0.871587 0.335378
vt 0.873020 0.344737
vt 0.186873 0.979043
vt 0.194752 0.979005
vt 0.194738 0.987449
vt 0.186859 0.987487
vt 0.651434 0.845537
vt 0.643414 0.845940
vt 0.977440 0.634263
vt 0.977440 0.625828
vt 0.984084 0.626070
vt 0.984084 0.634505
vt 0.960888 0.738225
vt 0.969301 0.738710
vt 0.969289 0.747635
vt 0.960877 0.747150
vt 0.871693 0.357048
vt 0.863698 0.356646
vt 0.260099 0.846175
vt 0.268538 0.845983
vt 0.268538 0.855670
vt 0.260099 0.855861
vt 0.865045 0.368302
vt 0.872253 0.368902
vt 0.872391 0.374082
vt 0.867394 0.374348
vt 0.650004 0.857239
vt 0.642771 0.857841
vt 0.700237 0.974864
vt 0.708681 0.974933
vt 0.708681 0.984052
vt 0.700237 0.983983
vt 0.218333 0.979005
vt 0.218333 0.987446
vt 0.214628 0.987542
vt 0.214628 0.979100
vt 0.647607 0.863309
vt 0.642597 0.863043
vt 0.708682 0.987963
vt 0.700238 0.987895
vt 0.969141 0.753486
vt 0.960728 0.753002
vt 0.926410 0.877955
vt 0.926410 0.866506
vt 0.933547 0.866135
vt 0.934495 0.877293
vt 0.959891 0.470801
vt 0.959791 0.462700
vt 0.967049 0.463062
vt 0.967149 0.471163
vt 0.949493 0.602101
vt 0.950439 0.590993
vt 0.957563 0.591319
vt 0.957563 0.602711
vt 0.960728 0.782829
vt 0.960735 0.773362
vt 0.968017 0.773415
vt 0.968010 0.782882
vt 0.934468 0.887939
vt 0.926949 0.888667
vt 0.238209 0.986279
vt 0.238209 0.979005
vt 0.244353 0.979183
vt 0.244353 0.986457
vt 0.959911 0.479112
vt 0.967169 0.479474
vt 0.967146 0.487773
vt 0.959888 0.487411
vt 0.957025 0.613373
vt 0.949520 0.612693
vt 0.968011 0.791436
vt 0.960728 0.791383
vt 0.950055 0.622860
vt 0.956417 0.623582
vt 0.955783 0.628199
vt 0.951379 0.628270
vt 0.933932 0.898160
vt 0.927558 0.898924
vt 0.968012 0.799574
vt 0.960730 0.799521
vt 0.987733 0.866135
vt 0.987733 0.873415
vt 0.984160 0.873488
vt 0.984160 0.866208
vt 0.932605 0.903605
vt 0.928193 0.903560
vt 0.968017 0.803050
vt 0.960735 0.802997
vt 0.967049 0.492844
vt 0.959791 0.492482
vt 0.964577 0.095476
vt 0.961873 0.087146
vt 0.975213 0.087146
vt 0.974235 0.095143
vt 0.160745 0.918934
vt 0.160732 0.911245
vt 0.166649 0.911356
vt 0.166663 0.919044
vt 0.963507 0.239959
vt 0.962560 0.232013
vt 0.975892 0.232013
vt 0.973158 0.240290
vt 0.642180 0.948181
vt 0.642167 0.941251
vt 0.648097 0.941284
vt 0.648110 0.948214
vt 0.973996 0.103821
vt 0.965913 0.103851
vt 0.990062 0.936467
vt 0.984138 0.936535
vt 0.984138 0.923549
vt 0.990062 0.923481
vt 0.160815 0.926939
vt 0.166732 0.927050
vt 0.166715 0.934646
vt 0.160798 0.934536
vt 0.971791 0.248613
vt 0.963713 0.248583
vt 0.648108 0.955648
vt 0.642178 0.955615
vt 0.965074 0.256243
vt 0.971402 0.256005
vt 0.970350 0.260930
vt 0.966761 0.261093
vt 0.972604 0.111530
vt 0.966274 0.111291
vt 0.648097 0.962530
vt 0.642167 0.962497
vt 0.410002 0.980783
vt 0.410002 0.986711
vt 0.406612 0.986745
vt 0.406612 0.980816
vt 0.970898 0.116411
vt 0.967308 0.116247
vt 0.648098 0.966847
vt 0.642168 0.966814
vt 0.166649 0.939797
vt 0.160732 0.939687
vt 0.059056 0.248739
vt 0.056418 0.302014
vt 0.028862 0.282166
vt 0.029700 0.243890
vt 0.283929 0.163775
vt 0.211334 0.182456
vt 0.224614 0.102168
vt 0.293638 0.112250
vt 0.061829 0.196212
vt 0.035152 0.201539
vt 0.031709 0.149053
vt 0.060084 0.147844
vt 0.591034 0.201197
vt 0.592696 0.124937
vt 0.054456 0.084326
vt 0.764773 0.023106
vt 0.756433 0.076126
vt 0.677573 0.069883
vt 0.704921 0.009938
vt 0.304827 0.205751
vt 0.283322 0.244382
vt 0.215974 0.230175
vt 0.213654 0.206315
vt 0.593660 0.247905
vt 0.596287 0.294612
vt 0.598117 0.076050
vt 0.608984 0.020844
vt 0.642485 0.031422
vt 0.647888 0.065201
vt 0.234684 0.050110
vt 0.309606 0.056185
vt 0.626764 0.122447
vt 0.043383 0.033068
vt 0.054823 0.026462
vt 0.235490 0.015796
vt 0.291399 0.009938
vt 0.020533 0.090864
vt 0.009938 0.041545
vt 0.010353 0.700211
vt 0.066530 0.700349
vt 0.061964 0.733187
vt 0.009938 0.733134
vt 0.623034 0.229352
vt 0.628359 0.252258
vt 0.601996 0.360860
vt 0.568284 0.362134
vt 0.617709 0.206446
vt 0.016012 0.744150
vt 0.061591 0.744156
vt 0.597576 0.013280
vt 0.269844 0.768498
vt 0.273995 0.758388
vt 0.358238 0.960906
vt 0.360656 0.950662
vt 0.375370 0.943390
vt 0.372952 0.953634
vt 0.929589 0.803078
vt 0.925214 0.791823
vt 0.260099 0.819887
vt 0.265180 0.791660
vt 0.086407 0.902815
vt 0.090132 0.882345
vt 0.362186 0.944302
vt 0.334070 0.940498
vt 0.335272 0.934058
vt 0.363715 0.937942
vt 0.329482 0.911245
vt 0.333028 0.893330
vt 0.351289 0.899280
vt 0.343350 0.916519
vt 0.260099 0.770392
vt 0.263516 0.764387
vt 0.940180 0.795065
vt 0.939509 0.802010
vt 0.934232 0.815979
vt 0.926498 0.739700
vt 0.932133 0.751740
vt 0.340374 0.882033
vt 0.355457 0.882233
vt 0.367810 0.920979
vt 0.371835 0.904306
vt 0.392380 0.909333
vt 0.388356 0.926005
vt 0.408144 0.907629
vt 0.410308 0.928527
vt 0.928703 0.771608
vt 0.376002 0.887259
vt 0.378539 0.877098
vt 0.392465 0.882640
vt 0.396548 0.892286
vt 0.086407 0.866463
vt 0.095111 0.861317
vt 0.106523 0.860678
vt 0.094757 0.871489
vt 0.401001 0.893985
vt 0.939119 0.030490
vt 0.939344 0.051321
vt 0.949564 0.030738
vt 0.949986 0.050727
vt 0.917892 0.723481
vt 0.929064 0.725473
vt 0.936050 0.731464
vt 0.738012 0.164854
vt 0.682248 0.132303
vt 0.042528 0.370506
vt 0.033475 0.426132
vt 0.011296 0.451741
vt 0.013312 0.370473
vt 0.280306 0.334200
vt 0.244096 0.334652
vt 0.076244 0.371735
vt 0.639127 0.352783
vt 0.056083 0.430724
vt 0.048962 0.481148
vt 0.027363 0.475883
vt 0.618872 0.439766
vt 0.624950 0.460614
vt 0.603353 0.465878
vt 0.596266 0.444364
vt 0.281422 0.414663
vt 0.245212 0.415115
vt 0.641142 0.433498
vt 0.737408 0.187605
vt 0.737008 0.243498
vt 0.675346 0.244407
vt 0.674437 0.182614
vt 0.308793 0.434843
vt 0.308183 0.489304
vt 0.282282 0.484876
vt 0.281692 0.434990
vt 0.642845 0.453685
vt 0.301080 0.385006
vt 0.245483 0.435441
vt 0.047686 0.544527
vt 0.041562 0.582310
vt 0.020636 0.578728
vt 0.024067 0.530513
vt 0.628252 0.508880
vt 0.631705 0.548507
vt 0.610781 0.552099
vt 0.604636 0.522838
vt 0.246072 0.485328
vt 0.654561 0.501937
vt 0.736426 0.273573
vt 0.735040 0.340382
vt 0.677453 0.337408
vt 0.679420 0.282740
vt 0.304119 0.537577
vt 0.305520 0.593851
vt 0.283977 0.599770
vt 0.282977 0.531571
vt 0.650946 0.549597
vt 0.246767 0.532022
vt 0.026512 0.634921
vt 0.035790 0.652697
vt 0.014191 0.655171
vt 0.016020 0.635041
vt 0.248698 0.639699
vt 0.186859 0.633779
vt 0.191120 0.629866
vt 0.248496 0.617695
vt 0.247767 0.600222
vt 0.636317 0.616846
vt 0.625826 0.616744
vt 0.647145 0.618954
vt 0.284705 0.617243
vt 0.277502 0.636112
vt 0.735022 0.351286
vt 0.734948 0.377346
vt 0.674437 0.378252
vt 0.674511 0.352192
vt 0.792377 0.363812
vt 0.789530 0.374392
vt 0.309275 0.613887
vt 0.840237 0.723838
vt 0.840237 0.784393
vt 0.812647 0.784702
vt 0.821033 0.755782
vt 0.864896 0.723482
vt 0.864896 0.784037
vt 0.218265 0.609179
vt 0.036873 0.679864
vt 0.011572 0.680319
vt 0.777180 0.849666
vt 0.776815 0.879688
vt 0.766121 0.879644
vt 0.766486 0.849621
vt 0.309606 0.639121
vt 0.035949 0.894887
vt 0.016103 0.894887
vt 0.015183 0.877030
vt 0.035029 0.877030
vt 0.835589 0.404903
vt 0.837595 0.451617
vt 0.812647 0.451805
vt 0.813838 0.398128
vt 0.597311 0.692689
vt 0.600869 0.747001
vt 0.581266 0.746974
vt 0.571631 0.692288
vt 0.600177 0.645578
vt 0.621903 0.639115
vt 0.622290 0.693087
vt 0.036869 0.912745
vt 0.056715 0.912745
vt 0.061529 0.949204
vt 0.035861 0.950637
vt 0.941997 0.112982
vt 0.938816 0.140581
vt 0.899735 0.131939
vt 0.899735 0.112075
vt 0.216785 0.728080
vt 0.219826 0.777034
vt 0.208148 0.784561
vt 0.196947 0.729474
vt 0.942356 0.186339
vt 0.899735 0.187386
vt 0.899735 0.167506
vt 0.940450 0.160457
vt 0.212257 0.659575
vt 0.186859 0.678992
vt 0.834250 0.506697
vt 0.817416 0.513437
vt 0.863527 0.451737
vt 0.853914 0.506929
vt 0.617608 0.753937
vt 0.609302 0.817689
vt 0.596637 0.817729
vt 0.578451 0.652041
vt 0.857340 0.411678
vt 0.017023 0.912745
vt 0.838046 0.577746
vt 0.845732 0.617554
vt 0.838549 0.619955
vt 0.825951 0.578221
vt 0.420868 0.709423
vt 0.420460 0.737119
vt 0.406718 0.737668
vt 0.401038 0.710216
vt 0.857356 0.579908
vt 0.577373 0.819629
vt 0.420868 0.647131
vt 0.401038 0.647923
vt 0.596278 0.859339
vt 0.594178 0.898340
vt 0.583394 0.894716
vt 0.589133 0.856853
vt 0.853616 0.615770
vt 0.862843 0.654454
vt 0.851942 0.656403
vt 0.223048 0.824120
vt 0.209301 0.825086
vt 0.581285 0.854972
vt 0.604586 0.912025
vt 0.603354 0.927779
vt 0.597175 0.924525
vt 0.856938 0.679137
vt 0.837929 0.686141
vt 0.841101 0.659897
vt 0.572540 0.892632
vt 0.421026 0.774364
vt 0.410634 0.774779
vt 0.225121 0.856786
vt 0.220602 0.857104
vt 0.504025 0.962991
vt 0.507889 0.979131
vt 0.506180 0.979304
vt 0.499494 0.962984
vt 0.861096 0.701950
vt 0.841170 0.703605
vt 0.873411 0.667373
vt 0.578270 0.917298
vt 0.561923 0.905362
vt 0.421785 0.790978
vt 0.411393 0.791394
vt 0.767116 0.907865
vt 0.745687 0.907865
vt 0.755652 0.879697
vt 0.786211 0.907862
vt 0.653565 0.660847
vt 0.642167 0.664752
vt 0.643823 0.642250
vt 0.653600 0.639115
vt 0.653600 0.680202
vt 0.649391 0.681281
vt 0.861314 0.838814
vt 0.840468 0.842448
vt 0.756017 0.849675
vt 0.745980 0.849817
vt 0.822496 0.846259
vt 0.938976 0.014624
vt 0.949447 0.016016
vt 0.358562 0.875110
vt 0.382185 0.943103
vt 0.389001 0.942816
vt 0.265694 0.778608
vt 0.329482 0.958312
vt 0.332867 0.946938
vt 0.396410 0.947003
vt 0.940852 0.767995
vt 0.940852 0.788120
vt 0.087136 0.926798
vt 0.384681 0.950318
vt 0.899735 0.345465
vt 0.899742 0.300536
vt 0.938367 0.571117
vt 0.900140 0.571024
vt 0.903597 0.549117
vt 0.938367 0.526822
vt 0.453255 0.948476
vt 0.430758 0.948517
vt 0.900140 0.635695
vt 0.902586 0.597500
vt 0.703299 0.919838
vt 0.704517 0.954988
vt 0.479541 0.979942
vt 0.473262 0.979790
vt 0.473308 0.973693
vt 0.479587 0.973844
vt 0.410120 0.850251
vt 0.404772 0.850200
vt 0.402553 0.843962
vt 0.410339 0.843963
vt 0.593097 0.979413
vt 0.586803 0.979403
vt 0.586779 0.973741
vt 0.593073 0.973751
vt 0.966294 0.840983
vt 0.960947 0.841045
vt 0.960728 0.834800
vt 0.968513 0.834782
vt 0.386736 0.980783
vt 0.386736 0.987074
vt 0.381533 0.987109
vt 0.381533 0.980817
vt 0.586763 0.968541
vt 0.593056 0.968551
vt 0.960728 0.828462
vt 0.962207 0.823286
vt 0.968356 0.822926
vt 0.970028 0.829196
vt 0.473339 0.967568
vt 0.479618 0.967720
vt 0.401038 0.838340
vt 0.410339 0.837582
vt 0.361656 0.980793
vt 0.361656 0.987079
vt 0.355500 0.987069
vt 0.355500 0.980783
vt 0.402710 0.832025
vt 0.408860 0.832375
vt 0.586777 0.962016
vt 0.593070 0.962027
vt 0.473262 0.962984
vt 0.479541 0.963135
vt 0.425544 0.774183
vt 0.426302 0.790798
vt 0.514446 0.963008
vt 0.514339 0.978624
vt 0.418167 0.811879
vt 0.411841 0.812149
vt 0.236795 0.823153
vt 0.235517 0.856055
vt 0.434201 0.736569
vt 0.910196 0.280568
vt 0.910145 0.263490
vt 0.914670 0.263450
vt 0.914721 0.280528
vt 0.240223 0.782306
vt 0.440698 0.646338
vt 0.440698 0.708631
vt 0.055795 0.894887
vt 0.240223 0.675240
vt 0.236623 0.726685
vt 0.940450 0.212136
vt 0.899735 0.207266
vt 0.938816 0.087146
vt 0.899735 0.092211
vt 0.009938 0.949204
vt 0.054875 0.877030
vt 0.643878 0.780151
vt 0.642167 0.779142
vt 0.642330 0.763106
vt 0.644042 0.764115
vt 0.644042 0.802665
vt 0.642330 0.801656
vt 0.650504 0.804307
vt 0.650331 0.780494
vt 0.650504 0.763532
vt 0.880264 0.687818
vt 0.419805 0.812073
vt 0.594337 0.942140
vt 0.575566 0.940333
vt 0.557585 0.926785
vt 0.616229 0.931253
vt 0.614211 0.938430
vt 0.090975 0.974262
vt 0.090936 0.959171
vt 0.101354 0.959181
vt 0.101393 0.974272
vt 0.090936 0.981150
vt 0.101354 0.981160
vt 0.899787 0.280659
vt 0.899735 0.263582
vt 0.086407 0.981146
vt 0.086446 0.974258
vt 0.831711 0.689325
vt 0.830575 0.673496
vt 0.086407 0.959167
vt 0.086416 0.954257
vt 0.090945 0.954261
vt 0.899787 0.241656
vt 0.899740 0.232144
vt 0.910149 0.232052
vt 0.910196 0.241564
vt 0.820752 0.699872
vt 0.818774 0.692642
vt 0.914721 0.241524
vt 0.046902 0.975044
vt 0.042220 0.975050
vt 0.042227 0.970520
vt 0.046910 0.970514
vt 0.046885 0.985466
vt 0.042203 0.985472
vt 0.914675 0.232013
vt 0.101363 0.954271
vt 0.622290 0.938621
vt 0.618211 0.941281
vt 0.816722 0.702681
vt 0.812647 0.699957
vt 0.785430 0.933748
vt 0.775496 0.933238
vt 0.775496 0.927741
vt 0.783939 0.927894
vt 0.966699 0.531544
vt 0.958255 0.531580
vt 0.958262 0.526858
vt 0.966706 0.526822
vt 0.964283 0.871605
vt 0.954371 0.872050
vt 0.955859 0.866233
vt 0.964283 0.866135
vt 0.966843 0.661485
vt 0.958421 0.661790
vt 0.958288 0.655876
vt 0.966709 0.655572
vt 0.784007 0.946089
vt 0.775992 0.945571
vt 0.295040 0.854418
vt 0.288415 0.854674
vt 0.288415 0.846239
vt 0.295040 0.845983
vt 0.966689 0.542396
vt 0.966687 0.553114
vt 0.958243 0.553150
vt 0.958245 0.542432
vt 0.963788 0.883877
vt 0.955791 0.884342
vt 0.966785 0.671953
vt 0.958364 0.672258
vt 0.962528 0.895534
vt 0.960168 0.900226
vt 0.957672 0.900689
vt 0.956494 0.895618
vt 0.783302 0.957415
vt 0.777255 0.957292
vt 0.966777 0.681822
vt 0.958355 0.682127
vt 0.307505 0.659575
vt 0.309472 0.659621
vt 0.309472 0.668062
vt 0.307505 0.668016
vt 0.782121 0.962502
vt 0.779621 0.962021
vt 0.966709 0.685877
vt 0.958288 0.686182
vt 0.966706 0.558388
vt 0.958262 0.558424
vt 0.440698 0.841420
vt 0.430758 0.841052
vt 0.430908 0.832025
vt 0.439197 0.832025
vt 0.439209 0.899221
vt 0.430765 0.899247
vt 0.430776 0.891050
vt 0.439221 0.891024
vt 0.309606 0.884088
vt 0.299681 0.884454
vt 0.301129 0.875110
vt 0.309406 0.875110
vt 0.953418 0.309905
vt 0.944994 0.310089
vt 0.944898 0.300719
vt 0.953323 0.300536
vt 0.439451 0.853780
vt 0.431431 0.853377
vt 0.961520 0.986401
vt 0.954366 0.986605
vt 0.954366 0.978170
vt 0.961520 0.977966
vt 0.439202 0.910769
vt 0.439203 0.922052
vt 0.430759 0.922078
vt 0.430758 0.910794
vt 0.309002 0.896345
vt 0.300994 0.896746
vt 0.953323 0.321179
vt 0.944898 0.321362
vt 0.307637 0.907983
vt 0.305276 0.914019
vt 0.300272 0.913754
vt 0.300416 0.908581
vt 0.440096 0.865680
vt 0.432861 0.865078
vt 0.953358 0.332636
vt 0.944933 0.332819
vt 0.981396 0.977966
vt 0.986153 0.978011
vt 0.986153 0.986453
vt 0.981396 0.986408
vt 0.440269 0.870881
vt 0.435259 0.871148
vt 0.953365 0.337608
vt 0.944941 0.337791
vt 0.439221 0.928574
vt 0.430776 0.928600
vt 0.942683 0.243833
vt 0.934598 0.243170
vt 0.935545 0.232013
vt 0.942683 0.232385
vt 0.166708 0.710752
vt 0.159425 0.710769
vt 0.159437 0.700228
vt 0.166720 0.700211
vt 0.934490 0.934572
vt 0.926410 0.935199
vt 0.926410 0.923822
vt 0.933544 0.923481
vt 0.166726 0.767833
vt 0.159460 0.767942
vt 0.159423 0.756671
vt 0.166690 0.756563
vt 0.942144 0.254544
vt 0.934624 0.253815
vt 0.270740 0.986279
vt 0.264229 0.986423
vt 0.264229 0.979149
vt 0.270740 0.979005
vt 0.166705 0.721048
vt 0.166708 0.731065
vt 0.159426 0.731082
vt 0.159423 0.721065
vt 0.934464 0.945151
vt 0.926949 0.945846
vt 0.166725 0.778283
vt 0.159458 0.778392
vt 0.933928 0.955306
vt 0.932602 0.960711
vt 0.928192 0.960650
vt 0.927557 0.956041
vt 0.941535 0.264800
vt 0.935161 0.264035
vt 0.166717 0.788272
vt 0.159450 0.788381
vt 0.926410 0.980588
vt 0.930725 0.980614
vt 0.930725 0.987894
vt 0.926410 0.987868
vt 0.940900 0.269436
vt 0.936487 0.269480
vt 0.166690 0.792724
vt 0.159423 0.792833
vt 0.166720 0.736669
vt 0.159437 0.736686
vt 0.972870 0.168787
vt 0.963213 0.168453
vt 0.962233 0.160457
vt 0.975573 0.160457
vt 0.166675 0.870073
vt 0.160745 0.870063
vt 0.160749 0.862059
vt 0.166679 0.862069
vt 0.976678 0.406070
vt 0.967021 0.406401
vt 0.964312 0.398128
vt 0.977651 0.398128
vt 0.166650 0.821221
vt 0.160732 0.821261
vt 0.160808 0.812750
vt 0.166726 0.812709
vt 0.971536 0.177161
vt 0.963453 0.177132
vt 0.680361 0.974899
vt 0.680361 0.988143
vt 0.674437 0.988108
vt 0.674437 0.974864
vt 0.166662 0.878755
vt 0.166663 0.886474
vt 0.160732 0.886465
vt 0.160732 0.878745
vt 0.976444 0.414689
vt 0.968361 0.414719
vt 0.166662 0.829674
vt 0.160744 0.829714
vt 0.975057 0.422344
vt 0.973354 0.427192
vt 0.969764 0.427029
vt 0.968727 0.422107
vt 0.971176 0.184601
vt 0.964846 0.184840
vt 0.166726 0.837121
vt 0.160808 0.837161
vt 0.837783 0.981475
vt 0.841365 0.981467
vt 0.841365 0.987396
vt 0.837783 0.987404
vt 0.970143 0.189557
vt 0.966554 0.189721
vt 0.166718 0.842142
vt 0.160800 0.842182
vt 0.166671 0.891369
vt 0.160740 0.891359
s 1
usemtl Material
f 159/1/1 155/2/2 9/3/3 26/4/4
f 2/5/5 1/6/6 3/7/7 4/8/8
f 23/9/9 22/10/10 1/11/6 2/12/5
f 21/13/11 24/14/12 6/15/13 7/16/14
f 22/10/10 8/17/15 16/18/16 27/19/17
f 12/20/18 11/21/19 67/22/20 68/23/21
f 155/24/2 154/25/22 10/26/23 9/27/3
f 158/28/24 157/29/25 12/30/18 25/31/26
f 28/32/27 14/33/28 18/34/29 30/35/30
f 3/7/7 1/6/6 13/36/31 14/37/28
f 24/14/12 3/38/7 14/33/28 28/32/27
f 29/39/32 20/40/33 32/41/34 33/42/35
f 14/37/28 13/36/31 17/43/36 18/44/29
f 27/19/17 16/18/16 20/40/33 29/39/32
f 13/45/31 27/19/17 29/39/32 17/46/36
f 17/47/36 29/48/32 30/49/30 18/50/29
f 6/15/13 24/14/12 28/32/27 15/51/37
f 15/51/37 28/32/27 30/35/30 19/52/38
f 154/53/22 158/28/24 25/31/26 10/54/23
f 25/31/26 12/30/18 68/55/21 69/56/39
f 1/11/6 22/10/10 27/19/17 13/45/31
f 4/57/8 3/38/7 24/14/12 21/13/11
f 5/58/40 8/17/15 22/10/10 23/9/9
f 156/59/41 159/1/1 26/4/4 11/60/19
f 33/61/35 32/62/34 31/63/42 34/64/43
f 19/52/38 30/35/30 34/65/43 31/66/42
f 30/49/30 29/48/32 33/61/35 34/64/43
f 196/67/44 170/68/44 38/69/45 190/70/46
f 190/71/46 38/72/45 42/73/47 191/74/48
f 171/75/49 41/76/50 45/77/51 172/78/52
f 192/79/53 40/80/54 36/81/55 189/82/56
f 169/83/57 171/84/49 39/85/58 35/86/59
f 184/87/60 183/88/61 48/89/62 50/90/63
f 195/91/64 173/92/65 44/93/66 194/94/67
f 182/95/68 181/96/69 51/97/70 49/98/71
f 191/99/48 42/100/47 46/101/72 193/102/73
f 192/79/53 39/103/58 43/104/74 194/105/67
f 47/106/75 49/107/71 55/108/76 53/109/77
f 49/98/71 51/97/70 57/110/78 55/111/76
f 188/112/79 185/113/80 52/114/81 175/115/82
f 185/113/80 184/116/60 50/117/63 52/114/81
f 187/118/44 186/119/83 47/120/75 174/121/44
f 186/122/83 182/123/68 49/107/71 47/106/75
f 177/124/84 58/125/85 64/126/86 180/127/87
f 58/128/85 56/129/88 62/130/89 64/131/86
f 50/90/63 48/89/62 54/132/90 56/129/88
f 52/133/81 50/90/63 56/129/88 58/128/85
f 175/115/82 52/114/81 58/134/85 177/135/84
f 174/121/44 47/120/75 53/136/77 176/137/44
f 179/138/91 178/139/92 59/140/93 61/141/94
f 179/138/91 61/141/94 63/142/95 180/127/87
f 176/137/44 53/136/77 59/143/93 178/144/92
f 55/145/76 57/146/78 63/142/95 61/141/94
f 53/109/77 55/108/76 61/147/94 59/148/93
f 56/129/88 54/132/90 60/149/96 62/130/89
f 68/23/21 67/22/20 73/150/97 74/151/98
f 70/152/99 65/153/100 71/154/101 76/155/102
f 9/27/3 10/26/23 66/156/103 65/157/100
f 26/4/4 9/3/3 65/153/100 70/152/99
f 11/60/19 26/4/4 70/152/99 67/158/20
f 10/54/23 25/31/26 69/56/39 66/159/103
f 73/160/97 76/155/102 82/161/104 79/162/105
f 75/163/106 74/164/98 80/165/107 81/166/108
f 65/157/100 66/156/103 72/167/109 71/168/101
f 69/56/39 68/55/21 74/164/98 75/163/106
f 67/158/20 70/152/99 76/155/102 73/160/97
f 66/159/103 69/56/39 75/163/106 72/169/109
f 80/170/107 79/171/105 85/172/110 86/173/111
f 82/174/104 77/175/112 83/176/113 88/177/114
f 72/169/109 75/163/106 81/166/108 78/178/115
f 76/179/102 71/168/101 77/175/112 82/174/104
f 74/151/98 73/150/97 79/171/105 80/170/107
f 71/168/101 72/167/109 78/180/115 77/175/112
f 85/181/110 88/182/114 94/183/116 91/184/117
f 87/185/108 86/186/111 92/187/118 93/188/108
f 77/175/112 78/180/115 84/189/119 83/176/113
f 81/166/108 80/165/107 86/186/111 87/185/108
f 79/162/105 82/161/104 88/182/114 85/181/110
f 78/178/115 81/166/108 87/185/108 84/190/119
f 92/191/118 91/192/117 97/193/120 98/194/121
f 94/195/116 89/196/122 95/197/123 100/198/124
f 84/190/119 87/185/108 93/188/108 90/199/125
f 88/177/114 83/176/113 89/196/122 94/195/116
f 86/173/111 85/172/110 91/192/117 92/191/118
f 83/176/113 84/189/119 90/200/125 89/196/122
f 97/201/120 100/202/124 105/203/126 103/204/127
f 107/205/128 102/206/129 163/207/130 166/208/131
f 89/196/122 90/200/125 96/209/132 95/197/123
f 93/188/108 92/187/118 98/210/121 99/211/133
f 91/184/117 94/183/116 100/202/124 97/201/120
f 90/199/125 93/188/108 99/211/133 96/212/132
f 101/213/134 102/206/129 107/205/128 106/214/135
f 104/215/136 103/216/127 108/217/137 109/218/138
f 104/215/136 109/218/138 167/219/139 164/220/140
f 100/198/124 95/197/123 101/213/134 105/221/126
f 98/194/121 97/193/120 103/216/127 104/215/136
f 95/197/123 96/209/132 102/206/129 101/213/134
f 111/222/141 106/223/135 107/224/128 110/225/142
f 108/226/137 111/222/141 110/225/142 109/227/138
f 102/228/129 96/229/132 160/230/143 163/231/130
f 103/204/127 105/203/126 111/232/141 108/233/137
f 96/229/132 99/234/133 162/235/144 160/230/143
f 105/221/126 101/213/134 106/214/135 111/236/141
f 227/237/145 222/238/146 115/239/147 125/240/148
f 125/241/148 115/242/147 119/243/149 126/244/150
f 127/245/151 116/246/152 120/247/153 129/248/154
f 127/245/151 117/249/155 113/250/156 124/251/157
f 221/252/158 223/253/159 116/254/152 112/255/160
f 224/256/161 222/257/146 113/258/156 117/259/155
f 226/260/162 121/261/163 131/262/164 229/263/165
f 223/253/159 118/264/166 122/265/167 225/266/168
f 224/256/161 117/259/155 121/261/163 226/260/162
f 126/244/150 119/243/149 123/267/169 128/268/170
f 118/269/166 126/244/150 128/268/170 122/270/167
f 121/271/163 129/248/154 135/272/171 131/273/164
f 116/246/152 127/245/151 124/251/157 112/274/160
f 117/249/155 127/245/151 129/248/154 121/271/163
f 114/275/172 125/241/148 126/244/150 118/269/166
f 221/276/158 227/237/145 125/240/148 114/277/172
f 134/278/173 133/279/174 139/280/175 140/281/176
f 228/282/177 132/283/178 138/284/179 230/285/180
f 122/270/167 128/268/170 134/278/173 132/286/178
f 129/248/154 120/247/153 130/287/181 135/272/171
f 128/268/170 123/267/169 133/279/174 134/278/173
f 225/266/168 122/265/167 132/283/178 228/282/177
f 137/288/182 141/289/183 147/290/184 143/291/185
f 138/292/179 140/281/176 146/293/186 144/294/187
f 229/295/165 131/296/164 137/297/182 231/298/188
f 132/286/178 134/278/173 140/281/176 138/292/179
f 131/273/164 135/272/171 141/289/183 137/288/182
f 135/272/171 130/287/181 136/299/189 141/289/183
f 143/291/185 149/300/190 247/301/191 236/302/192
f 146/293/186 145/303/193 151/304/194 152/305/195
f 141/289/183 136/299/189 142/306/196 147/290/184
f 230/285/180 138/284/179 144/307/187 232/308/197
f 140/281/176 139/280/175 145/303/193 146/293/186
f 231/309/188 137/310/182 143/311/185 233/312/198
f 235/313/199 149/314/190 238/315/200 244/316/201
f 152/305/195 151/304/194 240/317/202 241/318/203
f 144/294/187 146/293/186 152/305/195 150/319/204
f 143/291/185 147/290/184 153/320/205 149/300/190
f 147/290/184 142/306/196 148/321/206 153/320/205
f 232/322/197 144/323/187 150/324/204 234/325/207
f 5/58/40 23/9/9 159/1/1 156/59/41
f 4/57/8 21/13/11 158/28/24 154/53/22
f 21/13/11 7/16/14 157/29/25 158/28/24
f 2/5/5 4/8/8 154/25/22 155/24/2
f 23/9/9 2/12/5 155/2/2 159/1/1
f 162/235/144 161/326/208 164/327/140 165/328/209
f 160/230/143 162/235/144 165/328/209 163/231/130
f 165/329/209 164/330/140 167/331/139 168/332/210
f 163/333/130 165/329/209 168/332/210 166/334/131
f 109/227/138 110/225/142 168/335/210 167/336/139
f 98/194/121 104/215/136 164/220/140 161/337/208
f 99/234/133 98/338/121 161/326/208 162/235/144
f 110/225/142 107/224/128 166/339/131 168/335/210
f 54/340/90 176/137/44 178/144/92 60/341/96
f 62/342/89 179/138/91 180/127/87 64/126/86
f 62/342/89 60/343/96 178/139/92 179/138/91
f 48/344/62 174/121/44 176/137/44 54/340/90
f 51/97/70 175/115/82 177/135/84 57/110/78
f 57/146/78 177/124/84 180/127/87 63/142/95
f 183/345/61 187/118/44 174/121/44 48/344/62
f 181/96/69 188/112/79 175/115/82 51/97/70
f 193/102/73 46/101/72 173/92/65 195/91/64
f 37/346/211 41/347/50 171/84/49 169/83/57
f 39/348/58 171/75/49 172/78/52 43/349/74
f 189/350/56 36/351/55 170/68/44 196/67/44
f 44/93/66 173/92/65 188/112/79 181/96/69
f 38/69/45 170/68/44 187/118/44 183/345/61
f 36/81/55 40/80/54 182/123/68 186/122/83
f 170/68/44 36/351/55 186/119/83 187/118/44
f 46/101/72 42/100/47 184/116/60 185/113/80
f 173/92/65 46/101/72 185/113/80 188/112/79
f 40/80/54 44/352/66 181/353/69 182/123/68
f 42/354/47 38/355/45 183/88/61 184/87/60
f 35/356/59 189/350/56 196/67/44 169/357/57
f 45/77/51 193/102/73 195/91/64 172/78/52
f 40/80/54 192/79/53 194/105/67 44/352/66
f 41/76/50 191/99/48 193/102/73 45/77/51
f 172/78/52 195/91/64 194/94/67 43/349/74
f 39/103/58 192/79/53 189/82/56 35/358/59
f 37/346/211 190/71/46 191/74/48 41/347/50
f 169/357/57 196/67/44 190/70/46 37/359/211
f 197/360/212 198/361/213 200/362/214 199/363/215
f 199/364/215 200/365/214 204/366/216 203/367/217
f 203/368/217 204/369/216 202/370/218 201/371/219
f 201/372/219 202/373/218 198/374/213 197/375/212
f 199/376/215 203/377/217 201/378/219 197/379/212
f 204/380/216 200/381/214 198/382/213 202/383/218
f 205/384/220 206/385/221 208/386/222 207/387/223
f 207/388/223 208/389/222 212/390/224 211/391/225
f 211/392/225 212/393/224 210/394/226 209/395/227
f 209/396/227 210/397/226 206/398/221 205/399/220
f 207/400/223 211/401/225 209/402/227 205/403/220
f 210/394/226 212/393/224 216/404/228 215/405/229
f 213/406/230 215/407/229 219/408/231 217/409/232
f 208/386/222 206/385/221 213/410/230 214/411/233
f 206/398/221 210/397/226 215/407/229 213/406/230
f 212/390/224 208/389/222 214/412/233 216/413/228
f 220/414/234 218/415/235 217/416/232 219/417/231
f 216/413/228 214/412/233 218/418/235 220/419/234
f 215/405/229 216/404/228 220/420/234 219/421/231
f 214/411/233 213/410/230 217/422/232 218/423/235
f 142/424/196 232/322/197 234/325/207 148/425/206
f 151/426/194 235/313/199 244/316/201 240/427/202
f 234/325/207 150/324/204 239/428/236 243/429/237
f 139/430/175 231/309/188 233/312/198 145/431/193
f 136/432/189 230/285/180 232/308/197 142/433/196
f 233/312/198 143/311/185 236/434/192 249/435/238
f 133/436/174 229/295/165 231/298/188 139/437/175
f 120/438/153 225/266/168 228/282/177 130/439/181
f 130/439/181 228/282/177 230/285/180 136/432/189
f 112/440/160 124/441/157 227/237/145 221/276/158
f 119/442/149 224/256/161 226/260/162 123/443/169
f 116/254/152 223/253/159 225/266/168 120/438/153
f 123/443/169 226/260/162 229/263/165 133/444/174
f 119/442/149 115/445/147 222/257/146 224/256/161
f 114/446/172 118/264/166 223/253/159 221/252/158
f 124/441/157 113/447/156 222/238/146 227/237/145
f 245/448/239 244/449/201 238/450/200 242/451/240
f 243/452/237 245/453/239 242/454/240 237/455/241
f 239/456/236 241/457/203 245/453/239 243/452/237
f 241/458/203 240/459/202 244/449/201 245/448/239
f 150/319/204 152/305/195 241/318/203 239/460/236
f 148/461/206 234/462/207 243/452/237 237/455/241
f 149/300/190 153/320/205 242/463/240 238/464/200
f 153/320/205 148/321/206 237/465/241 242/463/240
f 236/302/192 247/301/191 253/466/242 251/467/243
f 250/468/244 248/469/245 254/470/246 256/471/247
f 235/472/199 151/473/194 248/469/245 250/468/244
f 145/431/193 233/312/198 249/435/238 246/474/248
f 149/475/190 235/472/199 250/468/244 247/476/191
f 151/304/194 145/303/193 246/477/248 248/478/245
f 253/479/242 256/471/247 262/480/249 259/481/250
f 252/482/251 255/483/252 261/484/253 258/485/254
f 248/478/245 246/477/248 252/486/251 254/487/246
f 246/474/248 249/435/238 255/483/252 252/482/251
f 247/476/191 250/468/244 256/471/247 253/479/242
f 249/435/238 236/434/192 251/488/243 255/483/252
f 261/489/253 257/490/255 259/491/250 262/492/249
f 258/493/254 261/489/253 262/492/249 260/494/256
f 255/483/252 251/488/243 257/495/255 261/484/253
f 256/471/247 254/470/246 260/496/256 262/480/249
f 251/467/243 253/466/242 259/497/250 257/498/255
f 254/487/246 252/486/251 258/499/254 260/500/256
f 263/501/257 264/502/258 266/503/259 265/504/260
f 265/505/260 266/506/259 270/507/261 269/508/262
f 269/509/262 270/510/261 268/511/263 267/512/264
f 267/513/264 268/514/263 264/515/258 263/516/257
f 263/501/257 265/504/260 272/517/265 271/518/266
f 270/519/261 266/520/259 264/515/258 268/514/263
f 272/521/265 274/522/267 278/523/268 276/524/269
f 269/509/262 267/512/264 273/525/270 274/526/267
f 267/527/264 263/528/257 271/529/266 273/530/270
f 265/505/260 269/508/262 274/531/267 272/532/265
f 278/533/268 277/534/271 281/535/272 282/536/273
f 274/526/267 273/525/270 277/534/271 278/533/268
f 271/518/266 272/517/265 276/537/269 275/538/274
f 273/530/270 271/529/266 275/539/274 277/540/271
f 280/541/275 282/542/273 281/543/272 279/544/276
f 275/538/274 276/537/269 280/545/275 279/546/276
f 277/540/271 275/539/274 279/547/276 281/548/272
f 276/524/269 278/523/268 282/542/273 280/541/275
f 283/549/277 284/550/278 286/551/279 285/552/280
f 285/553/280 286/554/279 290/555/281 289/556/282
f 289/557/282 290/558/281 288/559/283 287/560/284
f 287/561/284 288/562/283 284/563/278 283/564/277
f 283/549/277 285/552/280 292/565/285 291/566/286
f 290/567/281 286/568/279 284/569/278 288/570/283
f 292/571/285 294/572/287 298/573/288 296/574/289
f 289/557/282 287/560/284 293/575/290 294/576/287
f 287/577/284 283/578/277 291/579/286 293/580/290
f 285/553/280 289/556/282 294/572/287 292/571/285
f 298/581/288 297/582/291 301/583/292 302/584/293
f 294/576/287 293/575/290 297/582/291 298/581/288
f 291/566/286 292/565/285 296/585/289 295/586/294
f 293/587/290 291/588/286 295/589/294 297/590/291
f 300/591/295 302/592/293 301/593/292 299/594/296
f 295/586/294 296/585/289 300/595/295 299/596/296
f 297/590/291 295/589/294 299/597/296 301/598/292
f 296/574/289 298/573/288 302/599/293 300/600/295
f 303/601/297 304/602/298 306/603/299 305/604/300
f 305/605/300 306/606/299 310/607/301 309/608/302
f 309/609/302 310/610/301 308/611/303 307/612/304
f 307/613/304 308/614/303 304/615/298 303/616/297
f 303/601/297 305/604/300 312/617/305 311/618/306
f 310/619/301 306/620/299 304/621/298 308/622/303
f 312/623/305 314/624/307 318/625/308 316/626/309
f 309/609/302 307/612/304 313/627/310 314/628/307
f 307/613/304 303/616/297 311/629/306 313/630/310
f 305/605/300 309/608/302 314/624/307 312/623/305
f 318/631/308 317/632/311 321/633/312 322/634/313
f 314/628/307 313/627/310 317/632/311 318/631/308
f 311/618/306 312/617/305 316/635/309 315/636/314
f 313/630/310 311/629/306 315/637/314 317/638/311
f 320/639/315 322/640/313 321/641/312 319/642/316
f 315/636/314 316/635/309 320/643/315 319/644/316
f 317/638/311 315/637/314 319/645/316 321/646/312
f 316/626/309 318/625/308 322/647/313 320/648/315
f 323/649/317 324/650/318 326/651/319 325/652/320
f 325/653/320 326/654/319 330/655/321 329/656/322
f 329/657/322 330/658/321 328/659/323 327/660/324
f 327/661/324 328/662/323 324/663/318 323/664/317
f 323/649/317 325/652/320 332/665/325 331/666/326
f 330/667/321 326/668/319 324/669/318 328/670/323
f 332/671/325 334/672/327 338/673/328 336/674/329
f 329/657/322 327/660/324 333/675/330 334/676/327
f 327/661/324 323/664/317 331/677/326 333/678/330
f 325/653/320 329/656/322 334/672/327 332/671/325
f 338/679/328 337/680/331 341/681/332 342/682/333
f 334/676/327 333/675/330 337/680/331 338/679/328
f 331/666/326 332/665/325 336/683/329 335/684/334
f 333/678/330 331/677/326 335/685/334 337/686/331
f 340/687/335 342/688/333 341/689/332 339/690/336
f 335/684/334 336/683/329 340/691/335 339/692/336
f 337/686/331 335/685/334 339/693/336 341/694/332
f 336/674/329 338/673/328 342/695/333 340/696/335
f 477/697/337 358/698/338 347/699/339 475/700/340
f 344/701/341 346/702/342 345/703/343 343/704/344
f 355/705/345 344/706/341 343/707/344 354/708/346
f 353/709/347 7/16/14 6/15/13 356/710/348
f 354/708/346 359/711/349 16/18/16 8/17/15
f 12/712/18 388/713/350 387/714/351 11/715/19
f 475/716/340 347/717/339 348/718/352 474/719/353
f 476/720/354 357/721/355 12/30/18 157/29/25
f 360/722/356 362/723/357 352/724/358 350/725/359
f 345/703/343 350/726/359 349/727/360 343/704/344
f 356/710/348 360/722/356 350/725/359 345/728/343
f 361/729/361 363/730/362 32/41/34 20/40/33
f 350/726/359 352/731/358 351/732/363 349/727/360
f 359/711/349 361/729/361 20/40/33 16/18/16
f 349/733/360 351/734/363 361/729/361 359/711/349
f 351/735/363 352/736/358 362/737/357 361/738/361
f 6/15/13 15/51/37 360/722/356 356/710/348
f 15/51/37 19/52/38 362/723/357 360/722/356
f 474/739/353 348/740/352 357/721/355 476/720/354
f 357/721/355 389/741/364 388/742/350 12/30/18
f 343/707/344 349/733/360 359/711/349 354/708/346
f 346/743/342 353/709/347 356/710/348 345/728/343
f 5/58/40 355/705/345 354/708/346 8/17/15
f 156/59/41 11/60/19 358/698/338 477/697/337
f 363/744/362 364/745/365 31/63/42 32/62/34
f 19/52/38 31/66/42 364/746/365 362/723/357
f 362/737/357 364/745/365 363/744/362 361/738/361
f 190/71/46 499/747/366 368/748/367 38/72/45
f 487/749/368 488/750/369 371/751/370 367/752/371
f 500/753/372 189/82/56 36/81/55 366/754/373
f 169/83/57 35/86/59 365/755/374 487/756/368
f 496/757/375 374/758/376 48/89/62 183/88/61
f 503/759/377 502/760/378 370/761/379 489/762/380
f 495/763/381 373/764/382 375/765/383 494/766/384
f 499/747/366 501/767/385 372/768/386 368/748/367
f 500/753/372 502/769/378 369/770/387 365/771/374
f 47/106/75 53/109/77 377/772/388 373/773/382
f 373/764/382 377/774/388 379/775/389 375/765/383
f 498/776/390 490/777/391 376/778/392 497/779/393
f 497/779/393 376/778/392 374/780/376 496/781/375
f 186/122/83 47/106/75 373/773/382 495/782/381
f 491/783/394 493/784/395 384/785/396 380/786/397
f 380/787/397 384/788/396 382/789/398 378/790/399
f 374/758/376 378/790/399 54/132/90 48/89/62
f 376/778/392 380/786/397 378/791/399 374/780/376
f 490/777/391 491/783/394 380/786/397 376/778/392
f 492/792/400 381/793/401 59/140/93 178/139/92
f 492/792/400 493/794/395 383/795/402 381/793/401
f 377/772/388 381/796/401 383/797/402 379/798/389
f 53/109/77 59/148/93 381/796/401 377/772/388
f 378/790/399 382/789/398 60/149/96 54/132/90
f 388/713/350 394/799/403 393/800/404 387/714/351
f 390/801/405 396/802/406 391/803/407 385/804/408
f 347/717/339 385/805/408 386/806/409 348/718/352
f 358/698/338 390/801/405 385/804/408 347/699/339
f 11/60/19 387/807/351 390/801/405 358/698/338
f 348/740/352 386/808/409 389/741/364 357/721/355
f 393/809/404 399/810/410 402/811/411 396/802/406
f 395/812/412 401/813/108 400/814/413 394/815/403
f 385/805/408 391/816/407 392/817/414 386/806/409
f 389/741/364 395/812/412 394/815/403 388/742/350
f 387/807/351 393/809/404 396/802/406 390/801/405
f 386/808/409 392/818/414 395/812/412 389/741/364
f 400/819/413 406/820/415 405/821/416 399/822/410
f 402/823/411 408/824/417 403/825/418 397/826/419
f 392/818/414 398/827/420 401/813/108 395/812/412
f 396/828/406 402/823/411 397/826/419 391/816/407
f 394/799/403 400/819/413 399/822/410 393/800/404
f 391/816/407 397/826/419 398/829/420 392/817/414
f 405/830/416 411/831/421 414/832/422 408/833/417
f 407/834/108 413/835/108 412/836/423 406/837/415
f 397/826/419 403/825/418 404/838/424 398/829/420
f 401/813/108 407/834/108 406/837/415 400/814/413
f 399/810/410 405/830/416 408/833/417 402/811/411
f 398/827/420 404/839/424 407/834/108 401/813/108
f 412/840/423 418/841/425 417/842/426 411/843/421
f 414/844/422 420/845/427 415/846/428 409/847/429
f 404/839/424 410/848/430 413/835/108 407/834/108
f 408/824/417 414/844/422 409/847/429 403/825/418
f 406/820/415 412/840/423 411/843/421 405/821/416
f 403/825/418 409/847/429 410/849/430 404/838/424
f 417/850/426 423/851/431 425/852/432 420/853/427
f 427/854/433 484/855/434 481/856/435 422/857/436
f 409/847/429 415/846/428 416/858/437 410/849/430
f 413/835/108 419/859/438 418/860/425 412/836/423
f 411/831/421 417/850/426 420/853/427 414/832/422
f 410/848/430 416/861/437 419/859/438 413/835/108
f 421/862/439 426/863/440 427/854/433 422/857/436
f 424/864/441 429/865/442 428/866/443 423/867/431
f 424/864/441 482/868/444 485/869/445 429/865/442
f 420/845/427 425/870/432 421/862/439 415/846/428
f 418/841/425 424/864/441 423/867/431 417/842/426
f 415/846/428 421/862/439 422/857/436 416/858/437
f 431/871/446 430/872/447 427/873/433 426/874/440
f 428/875/443 429/876/442 430/872/447 431/871/446
f 422/857/436 481/856/435 478/877/448 416/858/437
f 423/851/431 428/878/443 431/879/446 425/852/432
f 416/880/437 478/881/448 480/882/449 419/883/438
f 425/870/432 431/884/446 426/863/440 421/862/439
f 530/885/450 445/886/451 435/887/452 525/888/453
f 445/889/451 446/890/454 439/891/455 435/892/452
f 447/893/456 449/894/457 440/895/458 436/896/459
f 447/893/456 444/897/460 433/898/461 437/899/462
f 524/900/463 432/901/464 436/902/459 526/903/465
f 527/904/466 437/905/462 433/906/461 525/907/453
f 529/908/467 532/909/468 451/910/469 441/911/470
f 526/912/465 528/913/471 442/914/472 438/915/473
f 527/916/466 529/908/467 441/911/470 437/917/462
f 446/890/454 448/918/474 443/919/475 439/891/455
f 438/920/473 442/921/472 448/918/474 446/890/454
f 441/922/470 451/923/469 455/924/476 449/894/457
f 436/896/459 432/925/464 444/897/460 447/893/456
f 437/899/462 441/922/470 449/894/457 447/893/456
f 434/926/477 438/920/473 446/890/454 445/889/451
f 524/900/463 434/927/477 445/886/451 530/885/450
f 454/928/478 460/929/479 459/930/480 453/931/481
f 531/932/482 533/933/483 458/934/484 452/935/485
f 442/921/472 452/936/485 454/928/478 448/918/474
f 449/894/457 455/924/476 450/937/486 440/895/458
f 448/918/474 454/928/478 453/931/481 443/919/475
f 528/938/471 531/932/482 452/935/485 442/939/472
f 457/940/487 463/941/488 467/942/489 461/943/490
f 458/944/484 464/945/491 466/946/492 460/929/479
f 532/909/468 534/947/493 457/948/487 451/910/469
f 452/936/485 458/944/484 460/929/479 454/928/478
f 451/923/469 457/940/487 461/943/490 455/924/476
f 455/924/476 461/943/490 456/949/494 450/937/486
f 463/941/488 539/950/495 550/951/496 469/952/497
f 466/946/492 472/953/498 471/954/499 465/955/500
f 461/943/490 467/942/489 462/956/501 456/949/494
f 533/933/483 535/957/502 464/958/491 458/934/484
f 460/929/479 466/946/492 465/955/500 459/930/480
f 534/947/493 536/959/503 463/960/488 457/948/487
f 538/961/504 547/962/505 541/963/506 469/964/497
f 472/953/498 544/965/507 543/966/508 471/954/499
f 464/945/491 470/967/509 472/953/498 466/946/492
f 463/941/488 469/952/497 473/968/510 467/942/489
f 467/942/489 473/968/510 468/969/511 462/956/501
f 535/957/502 537/970/512 470/971/509 464/958/491
f 5/58/40 156/59/41 477/697/337 355/705/345
f 346/743/342 474/739/353 476/720/354 353/709/347
f 353/709/347 476/720/354 157/29/25 7/16/14
f 344/701/341 475/716/340 474/719/353 346/702/342
f 355/705/345 477/697/337 475/700/340 344/706/341
f 480/882/449 483/972/513 482/973/444 479/974/514
f 478/881/448 481/975/435 483/972/513 480/882/449
f 483/976/513 486/977/515 485/978/445 482/979/444
f 481/980/435 484/981/434 486/977/515 483/976/513
f 429/876/442 485/982/445 486/983/515 430/872/447
f 418/984/425 479/974/514 482/973/444 424/985/441
f 419/883/438 480/882/449 479/974/514 418/984/425
f 430/872/447 486/983/515 484/986/434 427/873/433
f 382/987/398 384/988/396 493/794/395 492/792/400
f 382/987/398 492/792/400 178/139/92 60/343/96
f 375/765/383 379/775/389 491/783/394 490/777/391
f 379/775/389 383/989/402 493/784/395 491/783/394
f 494/766/384 375/765/383 490/777/391 498/776/390
f 501/990/385 503/759/377 489/762/380 372/991/386
f 37/346/211 169/83/57 487/756/368 367/992/371
f 365/993/374 369/994/387 488/750/369 487/749/368
f 370/761/379 494/766/384 498/776/390 489/762/380
f 36/81/55 186/122/83 495/782/381 366/754/373
f 372/991/386 497/779/393 496/781/375 368/995/367
f 489/762/380 498/776/390 497/779/393 372/991/386
f 366/754/373 495/782/381 494/996/384 370/997/379
f 368/998/367 496/757/375 183/88/61 38/355/45
f 371/751/370 488/750/369 503/759/377 501/990/385
f 366/754/373 370/997/379 502/769/378 500/753/372
f 367/752/371 371/751/370 501/990/385 499/999/366
f 488/750/369 369/994/387 502/760/378 503/759/377
f 365/771/374 35/358/59 189/82/56 500/753/372
f 37/346/211 367/992/371 499/747/366 190/71/46
f 199/364/215 506/1000/516 507/1001/517 200/365/214
f 506/1002/516 504/1003/518 505/1004/519 507/1005/517
f 504/1006/518 197/375/212 198/374/213 505/1007/519
f 199/376/215 197/379/212 504/1008/518 506/1009/516
f 507/1010/517 505/1011/519 198/382/213 200/381/214
f 508/1012/520 510/1013/521 511/1014/522 509/1015/523
f 510/1016/521 514/1017/524 515/1018/525 511/1019/522
f 514/1020/524 512/1021/526 513/1022/527 515/1023/525
f 512/1024/526 508/1025/520 509/1026/523 513/1027/527
f 510/1028/521 508/1029/520 512/1030/526 514/1031/524
f 513/1022/527 518/1032/528 519/1033/529 515/1023/525
f 516/1034/530 520/1035/531 522/1036/532 518/1037/528
f 511/1014/522 517/1038/533 516/1039/530 509/1015/523
f 509/1026/523 516/1034/530 518/1037/528 513/1027/527
f 515/1018/525 519/1040/529 517/1041/533 511/1019/522
f 523/1042/534 522/1043/532 520/1044/531 521/1045/535
f 519/1040/529 523/1046/534 521/1047/535 517/1041/533
f 518/1032/528 522/1048/532 523/1049/534 519/1033/529
f 517/1038/533 521/1050/535 520/1051/531 516/1039/530
f 462/1052/501 468/1053/511 537/970/512 535/957/502
f 471/1054/499 543/1055/508 547/962/505 538/961/504
f 537/970/512 546/1056/536 542/1057/537 470/971/509
f 459/1058/480 465/1059/500 536/959/503 534/947/493
f 456/1060/494 462/1052/501 535/957/502 533/933/483
f 536/1061/503 552/1062/538 539/1063/495 463/1064/488
f 453/1065/481 459/1058/480 534/947/493 532/909/468
f 440/1066/458 450/1067/486 531/932/482 528/938/471
f 450/1067/486 456/1060/494 533/933/483 531/932/482
f 432/901/464 524/900/463 530/885/450 444/1068/460
f 439/1069/455 443/1070/475 529/908/467 527/916/466
f 436/1071/459 440/1072/458 528/913/471 526/912/465
f 443/1070/475 453/1065/481 532/909/468 529/908/467
f 439/1073/455 527/904/466 525/907/453 435/1074/452
f 434/927/477 524/900/463 526/903/465 438/1075/473
f 444/1068/460 530/885/450 525/888/453 433/1076/461
f 548/1077/539 545/1078/540 541/1079/506 547/1080/505
f 546/1081/536 540/1082/541 545/1078/540 548/1077/539
f 542/1083/537 546/1081/536 548/1077/539 544/1084/507
f 544/1084/507 548/1077/539 547/1080/505 543/1085/508
f 470/967/509 542/1086/537 544/965/507 472/953/498
f 468/1053/511 540/1087/541 546/1056/536 537/970/512
f 469/952/497 541/1088/506 545/1089/540 473/968/510
f 473/968/510 545/1089/540 540/1090/541 468/969/511
f 539/950/495 554/1091/542 556/1092/543 550/951/496
f 553/1093/544 559/1094/545 557/1095/546 551/1096/547
f 538/1097/504 553/1093/544 551/1096/547 471/1098/499
f 465/1099/500 549/1100/548 552/1062/538 536/1061/503
f 469/1101/497 550/1102/496 553/1093/544 538/1097/504
f 471/954/499 551/1103/547 549/1104/548 465/955/500
f 556/1105/543 562/1106/549 565/1107/550 559/1094/545
f 555/1108/551 561/1109/552 564/1110/553 558/1111/554
f 551/1103/547 557/1112/546 555/1113/551 549/1104/548
f 549/1100/548 555/1108/551 558/1111/554 552/1062/538
f 550/1102/496 556/1105/543 559/1094/545 553/1093/544
f 552/1062/538 558/1111/554 554/1114/542 539/1063/495
f 564/1115/553 565/1116/550 562/1117/549 560/1118/555
f 561/1119/552 563/1120/556 565/1116/550 564/1115/553
f 558/1111/554 564/1110/553 560/1121/555 554/1114/542
f 559/1094/545 565/1107/550 563/1122/556 557/1095/546
f 554/1091/542 560/1123/555 562/1124/549 556/1092/543
f 557/1112/546 563/1125/556 561/1126/552 555/1113/551
f 566/1127/557 568/1128/558 569/1129/559 567/1130/560
f 568/1131/558 572/1132/561 573/1133/562 569/1134/559
f 572/1135/561 570/1136/563 571/1137/564 573/1138/562
f 570/1139/563 566/1140/557 567/1141/560 571/1142/564
f 566/1127/557 574/1143/565 575/1144/566 568/1128/558
f 573/1145/562 571/1146/564 567/1147/560 569/1148/559
f 575/1149/566 579/1150/567 581/1151/568 577/1152/569
f 572/1135/561 577/1153/569 576/1154/570 570/1136/563
f 570/1139/563 576/1155/570 574/1156/565 566/1140/557
f 568/1131/558 575/1149/566 577/1152/569 572/1132/561
f 581/1157/568 585/1158/571 584/1159/572 580/1160/573
f 577/1153/569 581/1157/568 580/1160/573 576/1154/570
f 574/1143/565 578/1161/574 579/1162/567 575/1144/566
f 576/1155/570 580/1163/573 578/1164/574 574/1156/565
f 583/1165/575 582/1166/576 584/1167/572 585/1168/571
f 578/1161/574 582/1169/576 583/1170/575 579/1162/567
f 580/1163/573 584/1171/572 582/1172/576 578/1164/574
f 579/1150/567 583/1173/575 585/1174/571 581/1151/568
f 586/1175/577 588/1176/578 589/1177/579 587/1178/580
f 588/1179/578 592/1180/581 593/1181/582 589/1182/579
f 592/1183/581 590/1184/583 591/1185/584 593/1186/582
f 590/1187/583 586/1188/577 587/1189/580 591/1190/584
f 586/1175/577 594/1191/585 595/1192/586 588/1176/578
f 593/1193/582 591/1194/584 587/1195/580 589/1196/579
f 595/1197/586 599/1198/587 601/1199/588 597/1200/589
f 592/1183/581 597/1201/589 596/1202/590 590/1184/583
f 590/1187/583 596/1203/590 594/1204/585 586/1188/577
f 588/1179/578 595/1197/586 597/1200/589 592/1180/581
f 601/1205/588 605/1206/591 604/1207/592 600/1208/593
f 597/1201/589 601/1205/588 600/1208/593 596/1202/590
f 594/1191/585 598/1209/594 599/1210/587 595/1192/586
f 596/1203/590 600/1211/593 598/1212/594 594/1204/585
f 603/1213/595 602/1214/596 604/1215/592 605/1216/591
f 598/1209/594 602/1217/596 603/1218/595 599/1210/587
f 600/1211/593 604/1219/592 602/1220/596 598/1212/594
f 599/1198/587 603/1221/595 605/1222/591 601/1199/588
f 606/1223/597 608/1224/598 609/1225/599 607/1226/600
f 608/1227/598 612/1228/601 613/1229/602 609/1230/599
f 612/1231/601 610/1232/603 611/1233/604 613/1234/602
f 610/1235/603 606/1236/597 607/1237/600 611/1238/604
f 606/1223/597 614/1239/605 615/1240/606 608/1224/598
f 613/1241/602 611/1242/604 607/1243/600 609/1244/599
f 615/1245/606 619/1246/607 621/1247/608 617/1248/609
f 612/1231/601 617/1249/609 616/1250/610 610/1232/603
f 610/1235/603 616/1251/610 614/1252/605 606/1236/597
f 608/1227/598 615/1245/606 617/1248/609 612/1228/601
f 621/1253/608 625/1254/611 624/1255/612 620/1256/613
f 617/1249/609 621/1253/608 620/1256/613 616/1250/610
f 614/1239/605 618/1257/614 619/1258/607 615/1240/606
f 616/1251/610 620/1259/613 618/1260/614 614/1252/605
f 623/1261/615 622/1262/616 624/1263/612 625/1264/611
f 618/1257/614 622/1265/616 623/1266/615 619/1258/607
f 620/1259/613 624/1267/612 622/1268/616 618/1260/614
f 619/1246/607 623/1269/615 625/1270/611 621/1247/608
f 626/1271/617 628/1272/618 629/1273/619 627/1274/620
f 628/1275/618 632/1276/621 633/1277/622 629/1278/619
f 632/1279/621 630/1280/623 631/1281/624 633/1282/622
f 630/1283/623 626/1284/617 627/1285/620 631/1286/624
f 626/1271/617 634/1287/625 635/1288/626 628/1272/618
f 633/1289/622 631/1290/624 627/1291/620 629/1292/619
f 635/1293/626 639/1294/627 641/1295/628 637/1296/629
f 632/1279/621 637/1297/629 636/1298/630 630/1280/623
f 630/1283/623 636/1299/630 634/1300/625 626/1284/617
f 628/1275/618 635/1293/626 637/1296/629 632/1276/621
f 641/1301/628 645/1302/631 644/1303/632 640/1304/633
f 637/1297/629 641/1301/628 640/1304/633 636/1298/630
f 634/1287/625 638/1305/634 639/1306/627 635/1288/626
f 636/1299/630 640/1307/633 638/1308/634 634/1300/625
f 643/1309/635 642/1310/636 644/1311/632 645/1312/631
f 638/1305/634 642/1313/636 643/1314/635 639/1306/627
f 640/1307/633 644/1315/632 642/1316/636 638/1308/634
f 639/1294/627 643/1317/635 645/1318/631 641/1295/628
