# Body.002 -- imported by tools/import_asset_pack.py from Body.fbx
o __pending__
v -0.492689 1.100646 0.254204
v -0.958383 0.565760 0.356017
v -0.458173 0.613095 0.333461
v -0.958383 0.565760 0.356017
v -0.458173 0.613095 -0.273185
v -0.458173 0.613095 0.333461
v -0.492689 1.100646 -0.193928
v -0.458173 0.613095 -0.273185
v -0.995465 1.089565 -0.210588
v -0.492689 1.100646 0.254204
v -0.492689 1.100646 -0.193928
v -0.958383 0.565760 -0.295739
v -1.498239 1.078484 -0.227249
v -0.995465 1.089565 0.270864
v -1.458590 0.518425 -0.318293
v -0.995465 1.089565 -0.210588
v -1.458590 0.518425 -0.318293
v -0.958383 0.565760 -0.295739
v -1.992481 0.591195 -0.181406
v -1.498239 1.078484 -0.227249
v -1.992481 0.591195 0.241684
v -1.458590 0.518425 0.378571
v -2.151490 0.703371 -0.028590
v -1.992481 0.591195 -0.181406
v -2.151490 0.703371 -0.028590
v -2.016553 0.931224 -0.126129
v -2.151490 0.703371 0.088866
v -2.158173 0.797767 -0.013244
v -2.151490 0.703371 -0.028590
v -2.158173 0.797767 -0.013244
v -2.016553 0.931224 0.186407
v -2.016553 0.931224 -0.126129
v -2.016553 0.931224 0.186407
v -2.151490 0.703371 0.088866
v -1.992481 0.591195 0.241684
v -1.498239 1.078484 0.287525
v -1.498239 1.078484 0.287525
v -1.458590 0.518425 0.378571
v -0.995465 1.089565 0.270864
v -2.151490 0.703371 0.088866
v -2.158173 0.797767 -0.013244
v -2.158173 0.797767 0.073521
v -2.158173 0.797767 0.073521
v -2.158173 0.797767 0.073521
vt 0.095735 0.370888
vt 0.005773 0.281669
vt 0.008188 0.370888
vt 0.508706 0.288499
vt 0.396969 0.377330
vt 0.504701 0.377330
vt 0.267905 0.376596
vt 0.355355 0.376596
vt 0.993684 0.332319
vt 0.911143 0.421605
vt 0.990725 0.421605
vt 0.357724 0.287380
vt 0.996642 0.243033
vt 0.908184 0.332319
vt 0.360094 0.198164
vt 0.263772 0.287380
vt 0.388958 0.199669
vt 0.392963 0.288499
vt 0.339220 0.104585
vt 0.259639 0.198164
vt 0.488402 0.104857
vt 0.512712 0.199669
vt 0.440406 0.076619
vt 0.413267 0.104857
vt 0.315885 0.077918
vt 0.278230 0.104585
vt 0.127436 0.267308
vt 0.110639 0.285441
vt 0.127435 0.288167
vt 0.958638 0.125837
vt 0.923183 0.150987
vt 0.978685 0.150987
vt 0.085543 0.098889
vt 0.048107 0.072239
vt 0.024486 0.098889
vt 0.905225 0.243033
vt 0.103924 0.192451
vt 0.003358 0.192451
vt 0.099829 0.281669
vt 0.461264 0.076619
vt 0.298953 0.077918
vt 0.110640 0.270033
vt 0.943230 0.125837
vt 0.065057 0.072239
vn 0.563911 0.644694 0.516115
vn 0.095079 -0.642393 0.760455
vn 0.623432 -0.484954 0.613312
vn 0.095079 -0.642393 0.760455
vn 0.623410 -0.484988 -0.613309
vn 0.623432 -0.484954 0.613312
vn 0.563940 0.644664 -0.516120
vn 0.623410 -0.484988 -0.613309
vn 0.004638 0.762422 -0.647064
vn 0.563911 0.644694 0.516115
vn 0.563940 0.644664 -0.516120
vn 0.095077 -0.642377 -0.760468
vn -0.155143 0.748316 -0.644945
vn 0.004638 0.762428 0.647057
vn -0.079468 -0.646914 -0.758411
vn 0.004638 0.762422 -0.647064
vn -0.079468 -0.646914 -0.758411
vn 0.095077 -0.642377 -0.760468
vn -0.479509 -0.590124 -0.649480
vn -0.155143 0.748316 -0.644945
vn -0.479506 -0.590121 0.649485
vn -0.079467 -0.646900 0.758423
vn -0.865253 -0.367199 -0.341325
vn -0.479509 -0.590124 -0.649480
vn -0.865253 -0.367199 -0.341325
vn -0.527955 0.632069 -0.567232
vn -0.865256 -0.367194 0.341323
vn -0.900982 0.309729 -0.303809
vn -0.865253 -0.367199 -0.341325
vn -0.900982 0.309729 -0.303809
vn -0.527958 0.632062 0.567238
vn -0.527955 0.632069 -0.567232
vn -0.527958 0.632062 0.567238
vn -0.865256 -0.367194 0.341323
vn -0.479506 -0.590121 0.649485
vn -0.155144 0.748310 0.644951
vn -0.155144 0.748310 0.644951
vn -0.079467 -0.646900 0.758423
vn 0.004638 0.762428 0.647057
vn -0.865256 -0.367194 0.341323
vn -0.900982 0.309729 -0.303809
vn -0.900979 0.309732 0.303814
vn -0.900979 0.309732 0.303814
vn -0.900979 0.309732 0.303814
f 1/1/1 2/2/2 3/3/3
f 4/4/4 5/5/5 6/6/6
f 7/7/7 3/3/3 8/8/8
f 9/9/9 10/10/10 11/11/11
f 12/12/12 7/7/7 8/8/8
f 13/13/13 14/14/14 9/9/9
f 15/15/15 16/16/16 12/12/12
f 4/4/4 17/17/17 18/18/18
f 19/19/19 20/20/20 15/15/15
f 21/21/21 17/17/17 22/22/22
f 21/21/21 23/23/23 24/24/24
f 25/25/25 26/26/26 19/19/19
f 27/27/27 28/28/28 29/29/29
f 30/30/30 31/31/31 32/32/32
f 33/33/33 34/34/34 35/35/35
f 32/32/32 36/36/36 13/13/13
f 37/37/37 35/35/35 38/38/38
f 39/39/39 38/38/38 2/2/2
f 1/1/1 39/39/39 2/2/2
f 4/4/4 18/18/18 5/5/5
f 7/7/7 10/10/10 3/3/3
f 9/9/9 14/14/14 10/10/10
f 12/12/12 16/16/16 7/7/7
f 13/13/13 36/36/36 14/14/14
f 15/15/15 20/20/20 16/16/16
f 4/4/4 22/22/22 17/17/17
f 19/19/19 26/26/26 20/20/20
f 21/21/21 24/24/24 17/17/17
f 21/21/21 40/40/40 23/23/23
f 25/25/25 41/41/41 26/26/26
f 27/27/27 42/42/42 28/28/28
f 30/30/30 43/43/43 31/31/31
f 33/33/33 44/44/44 34/34/34
f 32/32/32 31/31/31 36/36/36
f 37/37/37 33/33/33 35/35/35
f 39/39/39 37/37/37 38/38/38
