# Body.001 -- imported by tools/import_asset_pack.py from Body.fbx
o __pending__
v 0.907804 0.613095 -0.273185
v 1.408013 0.565760 0.356015
v 0.907804 0.613095 0.333461
v 0.942319 1.100646 0.254204
v 1.408013 0.565760 0.356015
v 1.445095 1.089565 0.270864
v 0.942319 1.100646 0.254204
v 1.445095 1.089565 -0.210588
v 0.942319 1.100646 -0.193928
v 1.908223 0.518425 0.378571
v 1.947870 1.078483 0.287525
v 1.445095 1.089565 0.270864
v 1.947870 1.078483 -0.227249
v 0.942319 1.100646 -0.193928
v 1.408013 0.565760 -0.295739
v 0.907804 0.613095 -0.273185
v 1.445095 1.089565 -0.210588
v 1.908223 0.518425 -0.318293
v 1.947870 1.078483 0.287525
v 2.466185 0.931224 -0.126131
v 1.947870 1.078483 -0.227249
v 2.442112 0.591195 -0.181406
v 1.908223 0.518425 -0.318293
v 1.908223 0.518425 0.378571
v 2.442112 0.591195 0.241684
v 2.601121 0.703369 -0.028590
v 2.601121 0.703369 0.088866
v 2.466185 0.931224 -0.126131
v 2.601121 0.703369 -0.028590
v 2.607804 0.797767 -0.013244
v 2.601121 0.703369 0.088866
v 2.601121 0.703369 -0.028590
v 2.466185 0.931224 0.186407
v 2.601121 0.703369 0.088866
v 2.607804 0.797767 0.073520
v 2.607804 0.797767 0.073520
v 2.607804 0.797767 -0.013244
v 2.442112 0.591195 0.241684
v 1.408013 0.565760 -0.295739
v 0.907804 0.613095 0.333461
v 2.466185 0.931224 0.186407
v 2.442112 0.591195 -0.181406
v 2.607804 0.797767 -0.013244
v 2.607804 0.797767 0.073520
vt 0.782767 0.120895
vt 0.894505 0.209725
vt 0.890499 0.120895
vt 0.872343 0.996642
vt 0.962305 0.907424
vt 0.868248 0.907424
vt 0.604926 0.377330
vt 0.522386 0.288043
vt 0.525344 0.377330
vt 0.964720 0.818206
vt 0.864154 0.818206
vt 0.607885 0.288043
vt 0.519427 0.198757
vt 0.244657 0.376596
vt 0.154838 0.287380
vt 0.157208 0.376596
vt 0.248790 0.287380
vt 0.152469 0.198164
vt 0.610844 0.198757
vt 0.537384 0.106712
vt 0.252924 0.198164
vt 0.173343 0.104585
vt 0.774757 0.298555
vt 0.898510 0.298555
vt 0.874201 0.393367
vt 0.826204 0.421605
vt 0.847063 0.421605
vt 0.234332 0.104585
vt 0.196678 0.077918
vt 0.127441 0.313014
vt 0.110639 0.294882
vt 0.110640 0.315740
vt 0.882535 0.724644
vt 0.919971 0.697994
vt 0.903021 0.697994
vt 0.572840 0.081562
vt 0.557431 0.081562
vt 0.943592 0.724644
vt 0.778762 0.209725
vt 0.959890 0.996642
vt 0.592887 0.106712
vt 0.799066 0.393367
vt 0.213609 0.077918
vt 0.127440 0.297606
vn -0.095302 -0.646378 -0.757042
vn -0.095079 -0.642393 0.760455
vn -0.095300 -0.646353 0.757064
vn -0.004738 0.760793 0.648977
vn -0.095079 -0.642393 0.760455
vn -0.004638 0.762428 0.647057
vn -0.004738 0.760793 0.648977
vn -0.004638 0.762422 -0.647064
vn -0.004739 0.760773 -0.649001
vn 0.079467 -0.646899 0.758424
vn 0.155144 0.748310 0.644951
vn -0.004638 0.762428 0.647057
vn 0.155143 0.748316 -0.644945
vn -0.004739 0.760773 -0.649001
vn -0.095078 -0.642377 -0.760468
vn -0.095302 -0.646378 -0.757042
vn -0.004638 0.762422 -0.647064
vn 0.079468 -0.646915 -0.758410
vn 0.155144 0.748310 0.644951
vn 0.527956 0.632070 -0.567230
vn 0.155143 0.748316 -0.644945
vn 0.479509 -0.590124 -0.649480
vn 0.079468 -0.646915 -0.758410
vn 0.079467 -0.646899 0.758424
vn 0.479506 -0.590121 0.649485
vn 0.865253 -0.367199 -0.341325
vn 0.865256 -0.367193 0.341322
vn 0.527956 0.632070 -0.567230
vn 0.865253 -0.367199 -0.341325
vn 0.900982 0.309728 -0.303809
vn 0.865256 -0.367193 0.341322
vn 0.865253 -0.367199 -0.341325
vn 0.527957 0.632061 0.567239
vn 0.865256 -0.367193 0.341322
vn 0.900979 0.309734 0.303812
vn 0.900979 0.309734 0.303812
vn 0.900982 0.309728 -0.303809
vn 0.479506 -0.590121 0.649485
vn -0.095078 -0.642377 -0.760468
vn -0.095300 -0.646353 0.757064
vn 0.527957 0.632061 0.567239
vn 0.479509 -0.590124 -0.649480
vn 0.900982 0.309728 -0.303809
vn 0.900979 0.309734 0.303812
f 1/1/1 2/2/2 3/3/3
f 4/4/4 5/5/5 6/6/6
f 7/7/7 8/8/8 9/9/9
f 6/6/6 10/10/10 11/11/11
f 12/12/12 13/13/13 8/8/8
f 14/14/14 15/15/15 16/16/16
f 17/17/17 18/18/18 15/15/15
f 19/19/19 20/20/20 13/13/13
f 21/21/21 22/22/22 18/18/18
f 2/2/2 23/23/23 24/24/24
f 23/23/23 25/25/25 24/24/24
f 25/25/25 26/26/26 27/27/27
f 28/28/28 29/29/29 22/22/22
f 30/30/30 31/31/31 32/32/32
f 33/33/33 34/34/34 35/35/35
f 20/20/20 36/36/36 37/37/37
f 11/11/11 38/38/38 33/33/33
f 1/1/1 39/39/39 2/2/2
f 4/4/4 40/40/40 5/5/5
f 7/7/7 12/12/12 8/8/8
f 6/6/6 5/5/5 10/10/10
f 12/12/12 19/19/19 13/13/13
f 14/14/14 17/17/17 15/15/15
f 17/17/17 21/21/21 18/18/18
f 19/19/19 41/41/41 20/20/20
f 21/21/21 28/28/28 22/22/22
f 2/2/2 39/39/39 23/23/23
f 23/23/23 42/42/42 25/25/25
f 25/25/25 42/42/42 26/26/26
f 28/28/28 43/43/43 29/29/29
f 30/30/30 44/44/44 31/31/31
f 33/33/33 38/38/38 34/34/34
f 20/20/20 41/41/41 36/36/36
f 11/11/11 10/10/10 38/38/38
