# Body.001 -- imported by tools/import_asset_pack.py from Body.fbx
o __pending__
v 0.445616 0.613095 0.333461
v 0.480131 1.100646 -0.193928
v 0.445616 0.613095 -0.273185
v 0.445616 0.613095 0.333461
v 0.945824 0.565760 -0.295739
v 0.945824 0.565760 0.356017
v 0.480131 1.100646 0.254204
v 0.945824 0.565760 0.356017
v 0.982906 1.089565 0.270864
v 0.480131 1.100646 0.254204
v 0.982906 1.089565 -0.210588
v 0.480131 1.100646 -0.193928
v 1.446033 0.518425 0.378571
v 1.485682 1.078484 0.287525
v 0.982906 1.089565 0.270864
v 1.485682 1.078484 -0.227249
v 0.945824 0.565760 -0.295739
v 0.982906 1.089565 -0.210588
v 1.446033 0.518425 -0.318293
v 1.485682 1.078484 0.287525
v 2.003995 0.931224 -0.126129
v 1.485682 1.078484 -0.227249
v 1.979924 0.591195 -0.181406
v 1.446033 0.518425 -0.318293
v 1.446033 0.518425 0.378571
v 1.979924 0.591195 0.241684
v 2.138933 0.703371 -0.028590
v 2.138933 0.703371 0.088866
v 2.003995 0.931224 -0.126129
v 2.138933 0.703371 -0.028590
v 2.145615 0.797767 -0.013244
v 2.138933 0.703371 0.088866
v 2.138933 0.703371 -0.028590
v 2.003995 0.931224 0.186407
v 2.138933 0.703371 0.088866
v 2.145615 0.797767 0.073521
v 2.145615 0.797767 0.073521
v 2.145615 0.797767 -0.013244
v 1.979924 0.591195 0.241684
v 0.445616 0.613095 -0.273185
v 2.003995 0.931224 0.186407
v 1.979924 0.591195 -0.181406
v 2.145615 0.797767 -0.013244
v 2.145615 0.797767 0.073521
vt 0.959890 0.996642
vt 0.244657 0.376596
vt 0.157208 0.376596
vt 0.890499 0.120895
vt 0.778762 0.209725
vt 0.894505 0.209725
vt 0.872343 0.996642
vt 0.962305 0.907424
vt 0.868248 0.907424
vt 0.604926 0.377330
vt 0.522386 0.288043
vt 0.525344 0.377330
vt 0.964720 0.818206
vt 0.864154 0.818206
vt 0.607885 0.288043
vt 0.519427 0.198757
vt 0.154838 0.287380
vt 0.248790 0.287380
vt 0.152469 0.198164
vt 0.610844 0.198757
vt 0.537384 0.106712
vt 0.252924 0.198164
vt 0.173343 0.104585
vt 0.774757 0.298555
vt 0.898510 0.298555
vt 0.874201 0.393367
vt 0.826204 0.421605
vt 0.847063 0.421605
vt 0.234332 0.104585
vt 0.196678 0.077918
vt 0.127441 0.313014
vt 0.110639 0.294882
vt 0.110640 0.315740
vt 0.882535 0.724644
vt 0.919971 0.697994
vt 0.903021 0.697994
vt 0.572840 0.081562
vt 0.557431 0.081562
vt 0.943592 0.724644
vt 0.782767 0.120895
vt 0.592887 0.106712
vt 0.799066 0.393367
vt 0.213609 0.077918
vt 0.127440 0.297606
vn -0.623424 -0.484980 0.613301
vn -0.563940 0.644664 -0.516120
vn -0.623419 -0.484961 -0.613320
vn -0.623424 -0.484980 0.613301
vn -0.095078 -0.642383 -0.760464
vn -0.095078 -0.642388 0.760459
vn -0.563911 0.644694 0.516115
vn -0.095078 -0.642388 0.760459
vn -0.004638 0.762428 0.647057
vn -0.563911 0.644694 0.516115
vn -0.004639 0.762422 -0.647064
vn -0.563940 0.644664 -0.516120
vn 0.079467 -0.646900 0.758423
vn 0.155144 0.748310 0.644951
vn -0.004638 0.762428 0.647057
vn 0.155143 0.748316 -0.644945
vn -0.095078 -0.642383 -0.760464
vn -0.004639 0.762422 -0.647064
vn 0.079468 -0.646914 -0.758411
vn 0.155144 0.748310 0.644951
vn 0.527956 0.632070 -0.567230
vn 0.155143 0.748316 -0.644945
vn 0.479509 -0.590124 -0.649480
vn 0.079468 -0.646914 -0.758411
vn 0.079467 -0.646900 0.758423
vn 0.479507 -0.590121 0.649485
vn 0.865253 -0.367198 -0.341324
vn 0.865256 -0.367194 0.341322
vn 0.527956 0.632070 -0.567230
vn 0.865253 -0.367198 -0.341324
vn 0.900982 0.309728 -0.303809
vn 0.865256 -0.367194 0.341322
vn 0.865253 -0.367198 -0.341324
vn 0.527957 0.632061 0.567239
vn 0.865256 -0.367194 0.341322
vn 0.900979 0.309734 0.303813
vn 0.900979 0.309734 0.303813
vn 0.900982 0.309728 -0.303809
vn 0.479507 -0.590121 0.649485
vn -0.623419 -0.484961 -0.613320
vn 0.527957 0.632061 0.567239
vn 0.479509 -0.590124 -0.649480
vn 0.900982 0.309728 -0.303809
vn 0.900979 0.309734 0.303813
f 1/1/1 2/2/2 3/3/3
f 4/4/4 5/5/5 6/6/6
f 7/7/7 8/8/8 9/9/9
f 10/10/10 11/11/11 12/12/12
f 9/9/9 13/13/13 14/14/14
f 15/15/15 16/16/16 11/11/11
f 2/2/2 17/17/17 3/3/3
f 18/18/18 19/19/19 17/17/17
f 20/20/20 21/21/21 16/16/16
f 22/22/22 23/23/23 19/19/19
f 6/6/6 24/24/24 25/25/25
f 24/24/24 26/26/26 25/25/25
f 26/26/26 27/27/27 28/28/28
f 29/29/29 30/30/30 23/23/23
f 31/31/31 32/32/32 33/33/33
f 34/34/34 35/35/35 36/36/36
f 21/21/21 37/37/37 38/38/38
f 14/14/14 39/39/39 34/34/34
f 1/1/1 10/10/10 2/2/2
f 4/4/4 40/40/40 5/5/5
f 7/7/7 1/1/1 8/8/8
f 10/10/10 15/15/15 11/11/11
f 9/9/9 8/8/8 13/13/13
f 15/15/15 20/20/20 16/16/16
f 2/2/2 18/18/18 17/17/17
f 18/18/18 22/22/22 19/19/19
f 20/20/20 41/41/41 21/21/21
f 22/22/22 29/29/29 23/23/23
f 6/6/6 5/5/5 24/24/24
f 24/24/24 42/42/42 26/26/26
f 26/26/26 42/42/42 27/27/27
f 29/29/29 43/43/43 30/30/30
f 31/31/31 44/44/44 32/32/32
f 34/34/34 39/39/39 35/35/35
f 21/21/21 41/41/41 37/37/37
f 14/14/14 13/13/13 39/39/39
