# Cube.020 -- imported by tools/import_asset_pack.py from CharactersSingle.fbx
o __pending__
v -0.208747 2.644325 0.537321
v -0.537322 2.340426 0.208745
v -0.208747 2.340426 0.537321
v 0.208747 2.644325 0.537321
v -0.208747 2.340426 0.537321
v 0.208747 2.340426 0.537321
v 0.208747 2.340426 0.537321
v -0.208745 2.340426 1.162678
v 0.208747 2.340426 1.162678
v -0.208747 2.340426 0.537321
v -0.537322 2.340426 0.834102
v 0.208747 2.340426 1.162678
v -0.208745 2.257528 1.162678
v 0.208747 2.257528 1.162678
v -0.537322 2.340426 0.834102
v -0.208745 2.257528 1.162678
v -0.208745 2.340426 1.162678
v -0.537322 2.257528 0.208745
v -0.208747 2.257528 0.537321
v -0.537322 2.257528 0.834102
v -0.537322 2.257528 0.208745
v 0.537322 2.257528 -0.208747
v 0.208747 2.257528 0.537321
v -0.537322 2.340426 -0.208747
v -0.208747 2.340426 -0.537322
v -0.537322 2.257528 -0.208747
v -0.537322 2.340426 -0.208747
v -0.208747 2.340426 -0.537322
v -0.537322 2.644325 -0.208747
v -0.208747 2.644325 -0.537322
v -0.537322 2.644325 0.208745
v -0.208747 2.644325 -0.537322
v 0.208747 2.340426 -0.537322
v -0.208747 2.257527 -0.537322
v 0.537322 2.340426 -0.208747
v 0.208747 2.644325 -0.537322
v 0.537322 2.644325 -0.208747
v 0.208747 2.257527 -0.537322
v 0.537322 2.340426 0.208745
v 0.537322 2.257528 -0.208747
v 0.537322 2.340426 -0.208747
v 0.537322 2.257528 0.834102
v 0.208747 2.257528 1.162678
v 0.537322 2.257528 0.834102
v 0.537322 2.257528 0.208745
v 0.537322 2.644325 0.208745
v 0.537322 2.644325 -0.208747
v 0.537322 2.340426 0.834102
v 0.537322 2.340426 0.208745
v 0.537322 2.340426 0.834102
v 0.537322 2.644325 -0.208747
v 0.284059 2.926180 0.110355
v 0.537322 2.644325 0.208745
v 0.110356 2.926180 0.284059
v 0.110356 2.926180 -0.284061
v -0.284059 2.926180 -0.110356
v -0.110355 2.926180 0.284059
v 0.208747 2.644325 -0.537322
v 0.284059 2.926180 -0.110356
v -0.110355 2.926180 -0.284061
v 0.110356 2.926180 -0.284061
v -0.537322 2.644325 -0.208747
v -0.110355 2.926180 -0.284061
v -0.208747 2.644325 -0.537322
v -0.284059 2.926180 -0.110356
v -0.208747 2.644325 0.537321
v -0.284059 2.926180 0.110355
v -0.537322 2.644325 0.208745
v 0.208747 2.644325 0.537321
v -0.208745 2.257528 1.162678
v -0.208747 2.644325 0.537321
v -0.537322 2.340426 0.208745
v -0.208745 2.340426 1.162678
v -0.537322 2.257528 0.834102
v -0.537322 2.257528 -0.208747
v -0.208747 2.257527 -0.537322
v 0.208747 2.257527 -0.537322
v 0.537322 2.257528 0.208745
v -0.537322 2.257528 -0.208747
v 0.537322 2.257528 -0.208747
v 0.284059 2.926180 0.110355
v 0.110356 2.926180 0.284059
v -0.284059 2.926180 0.110355
vt 0.491254 0.613934
vt 0.599790 0.731283
vt 0.599790 0.613934
vt 0.734584 0.734377
vt 0.843120 0.839810
vt 0.843120 0.734377
vt 0.857264 0.341113
vt 0.633921 0.192007
vt 0.633921 0.341113
vt 0.857264 0.192007
vt 0.751270 0.074658
vt 0.843120 0.892304
vt 0.872727 0.997738
vt 0.872727 0.892304
vt 0.599790 0.507940
vt 0.629397 0.390590
vt 0.599790 0.390590
vt 0.629397 0.731283
vt 0.268717 0.774395
vt 0.386066 0.880388
vt 0.386066 0.657045
vt 0.002262 0.507940
vt 0.119611 0.774395
vt 0.599790 0.880389
vt 0.211461 0.119611
vt 0.241068 0.002262
vt 0.211461 0.002262
vt 0.599790 0.997738
vt 0.491254 0.880389
vt 0.491254 0.997738
vt 0.491254 0.731283
vt 0.102925 0.119611
vt 0.211461 0.268717
vt 0.241068 0.119612
vt 0.211461 0.386066
vt 0.102925 0.268717
vt 0.102925 0.386066
vt 0.241068 0.268717
vt 0.843120 0.568420
vt 0.872727 0.462986
vt 0.843120 0.462986
vt 0.002262 0.880388
vt 0.119611 0.997738
vt 0.872727 0.726347
vt 0.872727 0.568420
vt 0.734584 0.568420
vt 0.734584 0.462986
vt 0.751270 0.458462
vt 0.974613 0.458462
vt 0.843120 0.726347
vt 0.622416 0.280633
vt 0.477872 0.297260
vt 0.516983 0.386066
vt 0.633921 0.695266
vt 0.533610 0.153787
vt 0.390137 0.098049
vt 0.334399 0.241522
vt 0.622416 0.114676
vt 0.533610 0.241522
vt 0.002262 0.154751
vt 0.002262 0.233577
vt 0.351026 0.009242
vt 0.477872 0.098049
vt 0.516983 0.009242
vt 0.390590 0.845249
vt 0.245592 0.280633
vt 0.334399 0.153787
vt 0.245592 0.114676
vt 0.351026 0.386066
vt 0.268717 0.997738
vt 0.734584 0.839810
vt 0.974613 0.074658
vt 0.843120 0.997738
vt 0.629397 0.507940
vt 0.386066 0.507940
vt 0.268717 0.390590
vt 0.119611 0.390590
vt 0.002262 0.657045
vt 0.629397 0.880389
vt 0.241068 0.386066
vt 0.633921 0.607531
vt 0.390137 0.297260
vt 0.390590 0.766423
vn -0.358085 0.345779 0.867301
vn -0.973780 0.131347 0.185744
vn -0.227455 0.804188 0.549132
vn 0.358077 0.345776 0.867306
vn -0.227455 0.804188 0.549132
vn 0.227457 0.804192 0.549125
vn 0.227457 0.804192 0.549125
vn -0.297105 0.630273 0.717276
vn 0.297105 0.630277 0.717272
vn -0.227455 0.804188 0.549132
vn -0.717273 0.630278 0.297101
vn 0.297105 0.630277 0.717272
vn -0.297103 -0.630280 0.717270
vn 0.297107 -0.630269 0.717278
vn -0.717273 0.630278 0.297101
vn -0.297103 -0.630280 0.717270
vn -0.297105 0.630273 0.717276
vn -0.707095 -0.707119 0.000000
vn 0.000001 -1.000000 0.000000
vn -0.717274 -0.630276 0.297104
vn -0.707095 -0.707119 0.000000
vn 0.717275 -0.630271 -0.297110
vn -0.000001 -1.000000 0.000000
vn -0.923880 -0.000000 -0.382683
vn -0.382683 0.000000 -0.923880
vn -0.717288 -0.630259 -0.297107
vn -0.923880 -0.000000 -0.382683
vn -0.382683 0.000000 -0.923880
vn -0.867301 0.345779 -0.358085
vn -0.358079 0.345773 -0.867307
vn -0.867306 0.345776 0.358076
vn -0.358079 0.345773 -0.867307
vn 0.382683 -0.000000 -0.923880
vn -0.297113 -0.630257 -0.717287
vn 0.923880 -0.000000 -0.382683
vn 0.358083 0.345782 -0.867301
vn 0.867306 0.345776 -0.358077
vn 0.297108 -0.630258 -0.717287
vn 0.973780 0.131347 0.185742
vn 0.717275 -0.630271 -0.297110
vn 0.923880 -0.000000 -0.382683
vn 0.717272 -0.630278 0.297102
vn 0.297107 -0.630269 0.717278
vn 0.717272 -0.630278 0.297102
vn 0.707106 -0.707107 0.000000
vn 0.867301 0.345779 0.358085
vn 0.867306 0.345776 -0.358077
vn 0.717274 0.630275 0.297105
vn 0.973780 0.131347 0.185742
vn 0.717274 0.630275 0.297105
vn 0.867306 0.345776 -0.358077
vn 0.430876 0.884073 0.181002
vn 0.867301 0.345779 0.358085
vn 0.181002 0.884074 0.430872
vn 0.181000 0.884077 -0.430868
vn -0.430876 0.884073 -0.181002
vn -0.180999 0.884076 0.430869
vn 0.358083 0.345782 -0.867301
vn 0.430871 0.884075 -0.181002
vn -0.181001 0.884073 -0.430874
vn 0.181000 0.884077 -0.430868
vn -0.867301 0.345779 -0.358085
vn -0.181001 0.884073 -0.430874
vn -0.358079 0.345773 -0.867307
vn -0.430876 0.884073 -0.181002
vn -0.358085 0.345779 0.867301
vn -0.430870 0.884075 0.181002
vn -0.867306 0.345776 0.358076
vn 0.358077 0.345776 0.867306
vn -0.297103 -0.630280 0.717270
vn -0.358085 0.345779 0.867301
vn -0.973780 0.131347 0.185744
vn -0.297105 0.630273 0.717276
vn -0.717274 -0.630276 0.297104
vn -0.717288 -0.630259 -0.297107
vn -0.297113 -0.630257 -0.717287
vn 0.297108 -0.630258 -0.717287
vn 0.707106 -0.707107 0.000000
vn -0.717288 -0.630259 -0.297107
vn 0.717275 -0.630271 -0.297110
vn 0.430876 0.884073 0.181002
vn 0.181002 0.884074 0.430872
vn -0.430870 0.884075 0.181002
f 1/1/1 2/2/2 3/3/3
f 4/4/4 5/5/5 6/6/6
f 7/7/7 8/8/8 9/9/9
f 10/10/10 11/11/11 8/8/8
f 12/12/12 13/13/13 14/14/14
f 15/15/15 16/16/16 17/17/17
f 18/18/18 15/15/15 2/2/2
f 19/19/19 20/20/20 21/21/21
f 22/22/22 23/23/23 21/21/21
f 24/24/24 18/18/18 2/2/2
f 25/25/25 26/26/26 27/27/27
f 28/28/28 29/29/29 30/30/30
f 31/31/31 24/24/24 2/2/2
f 32/32/32 33/33/33 25/25/25
f 33/33/33 34/34/34 25/25/25
f 35/35/35 36/36/36 37/37/37
f 35/35/35 38/38/38 33/33/33
f 39/39/39 40/40/40 41/41/41
f 23/23/23 42/42/42 43/43/43
f 39/39/39 44/44/44 45/45/45
f 6/6/6 46/46/46 4/4/4
f 47/47/47 39/39/39 41/41/41
f 7/7/7 48/48/48 49/49/49
f 12/12/12 44/44/44 50/50/50
f 51/51/51 52/52/52 53/53/53
f 46/46/46 54/54/54 4/4/4
f 55/55/55 56/56/56 57/57/57
f 58/58/58 59/59/59 51/51/51
f 36/36/36 60/60/60 61/61/61
f 62/62/62 63/63/63 64/64/64
f 31/31/31 65/65/65 29/29/29
f 66/66/66 67/67/67 68/68/68
f 69/69/69 57/57/57 66/66/66
f 23/23/23 70/70/70 19/19/19
f 1/1/1 31/31/31 2/2/2
f 4/4/4 71/71/71 5/5/5
f 7/7/7 10/10/10 8/8/8
f 10/10/10 72/72/72 11/11/11
f 12/12/12 73/73/73 13/13/13
f 15/15/15 74/74/74 16/16/16
f 18/18/18 74/74/74 15/15/15
f 19/19/19 70/70/70 20/20/20
f 21/21/21 75/75/75 76/76/76
f 76/76/76 77/77/77 22/22/22
f 22/22/22 78/78/78 23/23/23
f 23/23/23 19/19/19 21/21/21
f 21/21/21 76/76/76 22/22/22
f 24/24/24 79/79/79 18/18/18
f 25/25/25 34/34/34 26/26/26
f 28/28/28 24/24/24 29/29/29
f 31/31/31 29/29/29 24/24/24
f 32/32/32 36/36/36 33/33/33
f 33/33/33 38/38/38 34/34/34
f 35/35/35 33/33/33 36/36/36
f 35/35/35 80/80/80 38/38/38
f 39/39/39 45/45/45 40/40/40
f 23/23/23 78/78/78 42/42/42
f 39/39/39 50/50/50 44/44/44
f 6/6/6 39/39/39 46/46/46
f 47/47/47 46/46/46 39/39/39
f 7/7/7 9/9/9 48/48/48
f 12/12/12 14/14/14 44/44/44
f 51/51/51 59/59/59 52/52/52
f 46/46/46 81/81/81 54/54/54
f 52/52/52 59/59/59 55/55/55
f 55/55/55 63/63/63 56/56/56
f 56/56/56 67/67/67 57/57/57
f 57/57/57 82/82/82 52/52/52
f 52/52/52 55/55/55 57/57/57
f 58/58/58 55/55/55 59/59/59
f 36/36/36 32/32/32 60/60/60
f 62/62/62 56/56/56 63/63/63
f 31/31/31 83/83/83 65/65/65
f 66/66/66 57/57/57 67/67/67
f 69/69/69 82/82/82 57/57/57
f 23/23/23 43/43/43 70/70/70
