# Cube.006 -- imported by tools/import_asset_pack.py from CharactersSingle.fbx
o __pending__
v -0.954877 -2.518830 0.254204
v -1.420571 -3.053715 0.356017
v -0.920361 -3.006380 0.333461
v -0.920361 -3.006380 0.333461
v -1.420571 -3.053715 -0.295739
v -0.920361 -3.006380 -0.273185
v -1.457653 -2.529910 -0.210588
v -0.954877 -2.518830 0.254204
v -0.954877 -2.518830 -0.193928
v -1.420571 -3.053715 -0.295739
v -0.954877 -2.518830 -0.193928
v -0.920361 -3.006380 -0.273185
v -1.960429 -2.540992 -0.227249
v -1.457653 -2.529910 0.270864
v -1.920780 -3.101050 -0.318293
v -1.457653 -2.529910 -0.210588
v -1.920780 -3.101050 0.378571
v -1.420571 -3.053715 0.356017
v -2.454671 -3.028280 -0.181406
v -1.960429 -2.540992 -0.227249
v -2.454671 -3.028280 -0.181406
v -1.920780 -3.101050 -0.318293
v -2.454671 -3.028280 0.241684
v -2.613679 -2.916105 -0.028588
v -2.613679 -2.916105 -0.028588
v -2.478742 -2.688250 -0.126129
v -2.613679 -2.916105 0.088866
v -2.620361 -2.821709 -0.013244
v -2.613679 -2.916105 -0.028588
v -2.478742 -2.688250 -0.126129
v -2.620361 -2.821709 0.073521
v -2.478742 -2.688250 0.186407
v -2.478742 -2.688250 0.186407
v -2.613679 -2.916105 0.088866
v -2.454671 -3.028280 0.241684
v -1.960429 -2.540992 0.287525
v -1.960429 -2.540992 0.287525
v -1.920780 -3.101050 0.378571
v -1.457653 -2.529910 0.270864
v -2.613679 -2.916105 0.088866
v -2.620361 -2.821709 -0.013244
v -2.620361 -2.821709 0.073521
v -2.620361 -2.821709 -0.013244
v -2.620361 -2.821709 0.073521
vt 0.095735 0.370888
vt 0.005773 0.281669
vt 0.008188 0.370888
vt 0.504701 0.377330
vt 0.392963 0.288499
vt 0.396969 0.377330
vt 0.993684 0.332319
vt 0.911143 0.421605
vt 0.990725 0.421605
vt 0.357724 0.287380
vt 0.267905 0.376596
vt 0.355355 0.376596
vt 0.996642 0.243033
vt 0.908184 0.332319
vt 0.360094 0.198164
vt 0.263772 0.287380
vt 0.512712 0.199669
vt 0.508706 0.288499
vt 0.339220 0.104585
vt 0.259639 0.198164
vt 0.413267 0.104857
vt 0.388958 0.199669
vt 0.488402 0.104857
vt 0.440406 0.076619
vt 0.315885 0.077918
vt 0.278230 0.104585
vt 0.127436 0.267308
vt 0.110639 0.285441
vt 0.127435 0.288167
vt 0.978685 0.150987
vt 0.943230 0.125837
vt 0.923183 0.150987
vt 0.085543 0.098889
vt 0.048107 0.072239
vt 0.024486 0.098889
vt 0.905225 0.243033
vt 0.103924 0.192451
vt 0.003358 0.192451
vt 0.099829 0.281669
vt 0.461264 0.076619
vt 0.298953 0.077918
vt 0.110640 0.270033
vt 0.958638 0.125837
vt 0.065057 0.072239
vn 0.004737 0.760793 0.648977
vn 0.095078 -0.642377 0.760468
vn 0.095302 -0.646378 0.757042
vn 0.095302 -0.646378 0.757042
vn 0.095078 -0.642393 -0.760455
vn 0.095301 -0.646353 -0.757064
vn 0.004638 0.762422 -0.647064
vn 0.004737 0.760793 0.648977
vn 0.004738 0.760773 -0.649001
vn 0.095078 -0.642393 -0.760455
vn 0.004738 0.760773 -0.649001
vn 0.095301 -0.646353 -0.757064
vn -0.155143 0.748316 -0.644945
vn 0.004638 0.762428 0.647057
vn -0.079468 -0.646899 -0.758423
vn 0.004638 0.762422 -0.647064
vn -0.079468 -0.646914 0.758411
vn 0.095078 -0.642377 0.760468
vn -0.479509 -0.590126 -0.649479
vn -0.155143 0.748316 -0.644945
vn -0.479509 -0.590126 -0.649479
vn -0.079468 -0.646899 -0.758423
vn -0.479507 -0.590120 0.649486
vn -0.865253 -0.367199 -0.341325
vn -0.865253 -0.367199 -0.341325
vn -0.527956 0.632070 -0.567230
vn -0.865256 -0.367194 0.341322
vn -0.900982 0.309728 -0.303809
vn -0.865253 -0.367199 -0.341325
vn -0.527956 0.632070 -0.567230
vn -0.900979 0.309733 0.303812
vn -0.527957 0.632061 0.567239
vn -0.527957 0.632061 0.567239
vn -0.865256 -0.367194 0.341322
vn -0.479507 -0.590120 0.649486
vn -0.155144 0.748310 0.644951
vn -0.155144 0.748310 0.644951
vn -0.079468 -0.646914 0.758411
vn 0.004638 0.762428 0.647057
vn -0.865256 -0.367194 0.341322
vn -0.900982 0.309728 -0.303809
vn -0.900979 0.309733 0.303812
vn -0.900982 0.309728 -0.303809
vn -0.900979 0.309733 0.303812
f 1/1/1 2/2/2 3/3/3
f 4/4/4 5/5/5 6/6/6
f 7/7/7 8/8/8 9/9/9
f 10/10/10 11/11/11 12/12/12
f 13/13/13 14/14/14 7/7/7
f 15/15/15 16/16/16 10/10/10
f 17/17/17 5/5/5 18/18/18
f 19/19/19 20/20/20 15/15/15
f 17/17/17 21/21/21 22/22/22
f 23/23/23 24/24/24 21/21/21
f 25/25/25 26/26/26 19/19/19
f 27/27/27 28/28/28 29/29/29
f 30/30/30 31/31/31 32/32/32
f 33/33/33 34/34/34 35/35/35
f 30/30/30 36/36/36 13/13/13
f 37/37/37 35/35/35 38/38/38
f 39/39/39 38/38/38 2/2/2
f 1/1/1 39/39/39 2/2/2
f 4/4/4 18/18/18 5/5/5
f 7/7/7 14/14/14 8/8/8
f 10/10/10 16/16/16 11/11/11
f 13/13/13 36/36/36 14/14/14
f 15/15/15 20/20/20 16/16/16
f 17/17/17 22/22/22 5/5/5
f 19/19/19 26/26/26 20/20/20
f 17/17/17 23/23/23 21/21/21
f 23/23/23 40/40/40 24/24/24
f 25/25/25 41/41/41 26/26/26
f 27/27/27 42/42/42 28/28/28
f 30/30/30 43/43/43 31/31/31
f 33/33/33 44/44/44 34/34/34
f 30/30/30 32/32/32 36/36/36
f 37/37/37 33/33/33 35/35/35
f 39/39/39 37/37/37 38/38/38
