# Cube.011 -- imported by tools/import_asset_pack.py from CharactersSingle.fbx
o __pending__
v 0.966605 -24.182910 0.134550
v 2.172728 -24.296355 -1.510486
v 2.172728 -24.296355 0.189513
v 1.057445 -22.888997 -0.065647
v 2.172728 -24.296355 0.189513
v 2.269733 -22.915436 -0.025806
v 1.057445 -22.888997 -0.065647
v 2.269733 -22.915436 -1.295166
v 1.057445 -22.888997 -1.255326
v 1.057445 -22.888997 -1.255326
v 2.172728 -24.296355 -1.510486
v 0.966605 -24.182910 -1.455519
v 0.966605 -24.182910 -1.455519
v 0.966605 -24.182910 0.134550
v 2.269733 -22.915436 -0.025806
v 2.269733 -22.915436 -1.295166
vt 0.274418 0.985222
vt 0.002381 0.614189
vt 0.002381 0.997619
vt 0.831734 0.597765
vt 0.558458 0.293444
vt 0.558458 0.609427
vt 0.002381 0.279696
vt 0.275809 0.002381
vt 0.002381 0.011367
vt 0.002381 0.597765
vt 0.275657 0.293444
vt 0.002390 0.301745
vt 0.274418 0.626587
vt 0.831725 0.301746
vt 0.275809 0.288682
vt 0.275657 0.609427
vn -0.095465 -0.649441 0.754396
vn -0.094523 -0.640780 -0.761883
vn -0.094522 -0.640774 0.761889
vn -0.005282 0.758469 0.651687
vn -0.094522 -0.640774 0.761889
vn -0.004656 0.762100 0.647443
vn -0.005282 0.758469 0.651687
vn -0.004656 0.762110 -0.647431
vn -0.005284 0.758449 -0.651711
vn -0.005284 0.758449 -0.651711
vn -0.094523 -0.640780 -0.761883
vn -0.095465 -0.649421 -0.754413
vn -0.095465 -0.649421 -0.754413
vn -0.095465 -0.649441 0.754396
vn -0.004656 0.762100 0.647443
vn -0.004656 0.762110 -0.647431
f 1/1/1 2/2/2 3/3/3
f 4/4/4 5/5/5 6/6/6
f 7/7/7 8/8/8 9/9/9
f 10/10/10 11/11/11 12/12/12
f 1/1/1 13/13/13 2/2/2
f 4/4/4 14/14/14 5/5/5
f 7/7/7 15/15/15 8/8/8
f 10/10/10 16/16/16 11/11/11
