# Cube.008 -- imported by tools/import_asset_pack.py from CharactersSingle.fbx
o __pending__
v 0.163147 -4.365243 -4.915883
v -0.163147 -4.578522 -4.915883
v 0.163147 -4.578522 -4.915883
v -0.163147 -4.578522 -4.915883
v -0.294764 -4.401193 -5.429418
v -0.294764 -4.786532 -5.429418
v 0.294764 -4.786532 -5.429418
v -0.294764 -4.786532 -5.429418
v 0.294764 -4.401193 -5.429418
v 0.163147 -4.578522 -4.915883
v 0.294764 -4.786532 -5.429418
v 0.557312 -4.348523 -6.408123
v 0.557312 -4.440509 -5.498426
v -0.294764 -4.401193 -5.429418
v 0.163147 -4.365243 -4.915883
v 0.294764 -4.401193 -5.429418
v 0.294764 -4.401193 -5.429418
v -0.557312 -4.440509 -5.498426
v -0.294764 -4.401193 -5.429418
v 0.411917 -3.608282 -5.737412
v 0.411917 -3.982810 -5.174889
v 0.557312 -4.440509 -5.498426
v -0.411917 -3.982810 -5.174889
v -0.557312 -4.440509 -5.498426
v -0.557312 -4.440509 -5.498426
v -0.557312 -4.348523 -6.408123
v -0.411917 -3.608282 -5.737412
v 0.411917 -3.982810 -5.174889
v -0.206836 -3.809737 -4.708123
v -0.411917 -3.982810 -5.174889
v -0.206836 -3.621676 -4.990583
v -0.557312 -4.348523 -6.408123
v 0.411917 -3.608282 -5.737412
v 0.557312 -4.348523 -6.408123
v 0.411917 -3.608282 -5.737412
v -0.206836 -3.621676 -4.990583
v 0.206836 -3.621676 -4.990583
v -0.206836 -3.809737 -4.708123
v 0.206836 -3.621676 -4.990583
v 0.206836 -3.809737 -4.708123
v -0.163147 -4.365243 -4.915883
v -0.163147 -4.365243 -4.915883
v 0.163147 -4.365243 -4.915883
v -0.557312 -4.348523 -6.408123
v 0.557312 -4.348523 -6.408123
v -0.163147 -4.365243 -4.915883
v 0.557312 -4.440509 -5.498426
v 0.206836 -3.809737 -4.708123
v -0.206836 -3.809737 -4.708123
v -0.411917 -3.608282 -5.737412
v -0.411917 -3.608282 -5.737412
v 0.206836 -3.809737 -4.708123
vt 0.117527 0.553726
vt 0.212948 0.514987
vt 0.117527 0.514987
vt 0.245567 0.558240
vt 0.259052 0.720102
vt 0.361300 0.677955
vt 0.079036 0.359506
vt 0.251439 0.359506
vt 0.468062 0.720102
vt 0.481547 0.558240
vt 0.365814 0.677955
vt 0.002257 0.214755
vt 0.431753 0.742602
vt 0.332732 0.223251
vt 0.472951 0.089340
vt 0.332732 0.050849
vt 0.729371 0.920964
vt 0.752307 0.671782
vt 0.729371 0.748561
vt 0.639380 0.893465
vt 0.595868 0.700953
vt 0.628435 0.227765
vt 0.471148 0.511207
vt 0.628435 0.553726
vt 0.295361 0.742602
vt 0.361300 0.997743
vt 0.087734 0.893465
vt 0.471148 0.270285
vt 0.332732 0.451233
vt 0.131246 0.700953
vt 0.002257 0.684386
vt 0.921413 0.227765
vt 0.632949 0.511207
vt 0.921413 0.553726
vt 0.756820 0.997743
vt 0.937769 0.788100
vt 0.816795 0.788100
vt 0.937769 0.692859
vt 0.724857 0.684386
vt 0.703009 0.587719
vt 0.212948 0.553726
vt 0.188975 0.581567
vt 0.538139 0.581568
vt 0.328218 0.214755
vt 0.365814 0.997743
vt 0.472951 0.184761
vt 0.752306 0.997743
vt 0.332732 0.330259
vt 0.024105 0.587719
vt 0.632949 0.270285
vt 0.997743 0.997743
vt 0.816795 0.692859
vn 0.493048 0.615164 0.615205
vn -0.507058 -0.450073 0.735069
vn 0.507064 -0.450068 0.735069
vn -0.507058 -0.450073 0.735069
vn -0.456302 0.887324 0.066662
vn -0.505913 -0.848008 0.157905
vn 0.505913 -0.848007 0.157911
vn -0.505913 -0.848008 0.157905
vn 0.456309 0.887320 0.066668
vn 0.507064 -0.450068 0.735069
vn 0.505913 -0.848007 0.157911
vn 0.603124 -0.161676 -0.781090
vn 0.848506 -0.277052 0.450866
vn -0.456302 0.887324 0.066662
vn 0.493048 0.615164 0.615205
vn 0.456309 0.887320 0.066668
vn 0.456309 0.887320 0.066668
vn -0.848511 -0.277049 0.450858
vn -0.456302 0.887324 0.066662
vn 0.576758 0.777502 -0.250682
vn 0.767361 -0.231264 0.598059
vn 0.848506 -0.277052 0.450866
vn -0.767371 -0.231245 0.598052
vn -0.848511 -0.277049 0.450858
vn -0.848511 -0.277049 0.450858
vn -0.603121 -0.161653 -0.781098
vn -0.576772 0.777495 -0.250670
vn 0.767361 -0.231264 0.598059
vn -0.440407 -0.077075 0.894484
vn -0.767371 -0.231245 0.598052
vn -0.456358 0.833116 0.312498
vn -0.603121 -0.161653 -0.781098
vn 0.576758 0.777502 -0.250682
vn 0.603124 -0.161676 -0.781090
vn 0.576758 0.777502 -0.250682
vn -0.456358 0.833116 0.312498
vn 0.456354 0.833117 0.312502
vn -0.440407 -0.077075 0.894484
vn 0.456354 0.833117 0.312502
vn 0.440410 -0.077122 0.894478
vn -0.493052 0.615161 0.615205
vn -0.493052 0.615161 0.615205
vn 0.493048 0.615164 0.615205
vn -0.603121 -0.161653 -0.781098
vn 0.603124 -0.161676 -0.781090
vn -0.493052 0.615161 0.615205
vn 0.848506 -0.277052 0.450866
vn 0.440410 -0.077122 0.894478
vn -0.440407 -0.077075 0.894484
vn -0.576772 0.777495 -0.250670
vn -0.576772 0.777495 -0.250670
vn 0.440410 -0.077122 0.894478
f 1/1/1 2/2/2 3/3/3
f 4/4/4 5/5/5 6/6/6
f 7/7/7 2/2/2 8/8/8
f 9/9/9 10/10/10 11/11/11
f 8/8/8 12/12/12 7/7/7
f 11/11/11 13/13/13 9/9/9
f 14/14/14 15/15/15 16/16/16
f 17/17/17 18/18/18 19/19/19
f 13/13/13 20/20/20 21/21/21
f 22/22/22 23/23/23 24/24/24
f 6/6/6 25/25/25 26/26/26
f 25/25/25 27/27/27 26/26/26
f 28/28/28 29/29/29 23/23/23
f 30/30/30 31/31/31 27/27/27
f 32/32/32 33/33/33 34/34/34
f 35/35/35 36/36/36 37/37/37
f 38/38/38 37/37/37 36/36/36
f 21/21/21 39/39/39 40/40/40
f 1/1/1 41/41/41 2/2/2
f 4/4/4 42/42/42 5/5/5
f 7/7/7 3/3/3 2/2/2
f 9/9/9 43/43/43 10/10/10
f 8/8/8 44/44/44 12/12/12
f 11/11/11 45/45/45 13/13/13
f 14/14/14 46/46/46 15/15/15
f 17/17/17 47/47/47 18/18/18
f 13/13/13 45/45/45 20/20/20
f 22/22/22 28/28/28 23/23/23
f 6/6/6 5/5/5 25/25/25
f 25/25/25 30/30/30 27/27/27
f 28/28/28 48/48/48 29/29/29
f 30/30/30 49/49/49 31/31/31
f 32/32/32 50/50/50 33/33/33
f 35/35/35 51/51/51 36/36/36
f 38/38/38 52/52/52 37/37/37
f 21/21/21 20/20/20 39/39/39
