# Cube.016 -- imported by tools/import_asset_pack.py from CharactersSingle.fbx
o __pending__
v 1.197016 8.726016 -0.609802
v 1.027782 8.545749 -0.737496
v 1.027782 8.754700 -0.734361
v 1.167995 8.521983 -0.634297
v 1.027782 8.415131 -0.660568
v 1.027782 8.545749 -0.737496
v 1.167995 8.521983 -0.634297
v 1.098961 8.378937 -0.503402
v 1.098961 8.403067 -0.608179
v 1.197016 8.668646 -0.360686
v 1.205467 9.225680 -0.501282
v 1.205467 9.165446 -0.239727
v 1.027782 8.639961 -0.236129
v 1.027782 8.450685 -0.324703
v 1.167995 8.474450 -0.427901
v 1.139556 9.919065 -0.290516
v 1.139556 9.881174 -0.125982
v 1.027782 9.862230 -0.043715
v 1.027782 9.135328 -0.108949
v 1.067862 10.060079 -0.202475
v 1.067862 10.046492 -0.143476
v 1.027782 10.039698 -0.113977
v 0.987701 10.046492 -0.143476
v 1.027782 10.039698 -0.113977
v 1.067862 10.046492 -0.143476
v 1.027782 10.066872 -0.231974
v 0.916007 9.919065 -0.290516
v 1.027782 10.066872 -0.231974
v 1.027782 9.938011 -0.372783
v 0.850097 9.225680 -0.501282
v 1.027782 9.255798 -0.632060
v 1.027782 9.938011 -0.372783
v 1.027782 8.754700 -0.734361
v 0.858547 8.726016 -0.609802
v 0.850097 9.165446 -0.239727
v 0.858547 8.668646 -0.360686
v 0.887568 8.521983 -0.634297
v 0.887568 8.474450 -0.427901
v 1.027782 8.545749 -0.737496
v 0.956602 8.378937 -0.503402
v 0.887568 8.521983 -0.634297
v 0.956602 8.403067 -0.608179
v 0.956602 8.378937 -0.503402
v 1.098961 8.403067 -0.608179
v 0.887568 8.474450 -0.427901
v 1.027782 8.366872 -0.451014
v 1.027782 8.450685 -0.324703
v 1.167995 8.474450 -0.427901
v 1.098961 8.378937 -0.503402
v 1.027782 8.450685 -0.324703
v 1.027782 8.639961 -0.236129
v 1.027782 9.862230 -0.043715
v 0.916007 9.881174 -0.125982
v 0.987701 10.060079 -0.202475
v 1.027782 10.039698 -0.113977
v 0.987701 10.046492 -0.143476
v 1.027782 9.255798 -0.632060
v 1.067862 10.060079 -0.202475
v 1.027782 10.066872 -0.231974
v 0.987701 10.060079 -0.202475
v 0.956602 8.403067 -0.608179
v 1.027782 9.135328 -0.108949
vt 0.561074 0.565836
vt 0.534877 0.500184
vt 0.521209 0.563842
vt 0.604658 0.429372
vt 0.560943 0.429625
vt 0.560943 0.462388
vt 0.567906 0.501837
vt 0.617678 0.466745
vt 0.584156 0.466745
vt 0.640775 0.565836
vt 0.559083 0.725224
vt 0.642764 0.725224
vt 0.680611 0.563842
vt 0.666944 0.500184
vt 0.633940 0.501836
vt 0.574596 0.949698
vt 0.627236 0.949698
vt 0.653546 0.948381
vt 0.684589 0.723129
vt 0.591471 0.997821
vt 0.610347 0.997821
vt 0.619781 0.997349
vt 0.027171 0.433426
vt 0.014675 0.423988
vt 0.002179 0.433426
vt 0.582030 0.997349
vt 0.112214 0.945957
vt 0.104750 0.997821
vt 0.138512 0.949006
vt 0.127735 0.719611
vt 0.169540 0.724458
vt 0.548266 0.948381
vt 0.165552 0.565667
vt 0.125735 0.561051
vt 0.044055 0.719612
vt 0.046034 0.561052
vt 0.118892 0.498384
vt 0.052858 0.498384
vt 0.151881 0.502208
vt 0.069099 0.466096
vt 0.517228 0.429372
vt 0.538751 0.412865
vt 0.538751 0.379344
vt 0.583135 0.412865
vt 0.517228 0.363340
vt 0.560943 0.362584
vt 0.560943 0.330324
vt 0.604658 0.363340
vt 0.583135 0.379344
vt 0.019814 0.502208
vt 0.006150 0.565667
vt 0.033232 0.949006
vt 0.059574 0.945958
vt 0.095321 0.996728
vt 0.066999 0.997821
vt 0.076445 0.996728
vt 0.517228 0.723130
vt 0.002179 0.452301
vt 0.014675 0.461739
vt 0.027171 0.452301
vt 0.102620 0.466096
vt 0.002179 0.724458
vn 0.889567 0.007968 -0.456735
vn -0.000000 -0.213950 -0.976845
vn 0.000000 0.111961 -0.993713
vn 0.825831 -0.278242 -0.490494
vn -0.000000 -0.721551 -0.692361
vn -0.000000 -0.213950 -0.976845
vn 0.825831 -0.278242 -0.490494
vn 0.488760 -0.872135 0.022240
vn 0.488756 -0.774561 -0.401463
vn 0.889567 -0.192608 0.414213
vn 0.892791 0.144385 -0.426705
vn 0.892789 -0.056798 0.446880
vn 0.000000 -0.333958 0.942588
vn 0.000000 -0.619664 0.784868
vn 0.825825 -0.464756 0.319397
vn 0.853695 0.381443 -0.354550
vn 0.853698 0.187942 0.485672
vn -0.000000 0.114705 0.993400
vn 0.000000 -0.171217 0.985233
vn 0.545985 0.835336 -0.064145
vn 0.545991 0.723133 0.423051
vn 0.000001 0.656703 0.754149
vn -0.545985 0.723138 0.423051
vn 0.000001 0.656703 0.754149
vn 0.545991 0.723133 0.423051
vn 0.000000 0.920413 -0.390949
vn -0.853695 0.381443 -0.354550
vn 0.000000 0.920413 -0.390949
vn -0.000000 0.537655 -0.843165
vn -0.892791 0.144385 -0.426705
vn -0.000000 0.276963 -0.960881
vn -0.000000 0.537655 -0.843165
vn 0.000000 0.111961 -0.993713
vn -0.889567 0.007967 -0.456736
vn -0.892789 -0.056798 0.446880
vn -0.889567 -0.192608 0.414213
vn -0.825831 -0.278242 -0.490494
vn -0.825825 -0.464756 0.319397
vn -0.000000 -0.213950 -0.976845
vn -0.488756 -0.872137 0.022238
vn -0.825831 -0.278242 -0.490494
vn -0.488760 -0.774558 -0.401465
vn -0.488756 -0.872137 0.022238
vn 0.488756 -0.774561 -0.401463
vn -0.825825 -0.464756 0.319397
vn 0.000000 -0.951704 0.307017
vn 0.000000 -0.619664 0.784868
vn 0.825825 -0.464756 0.319397
vn 0.488760 -0.872135 0.022240
vn 0.000000 -0.619664 0.784868
vn 0.000000 -0.333958 0.942588
vn -0.000000 0.114705 0.993400
vn -0.853698 0.187942 0.485672
vn -0.545990 0.835333 -0.064147
vn 0.000001 0.656703 0.754149
vn -0.545985 0.723138 0.423051
vn -0.000000 0.276963 -0.960881
vn 0.545985 0.835336 -0.064145
vn 0.000000 0.920413 -0.390949
vn -0.545990 0.835333 -0.064147
vn -0.488760 -0.774558 -0.401465
vn 0.000000 -0.171217 0.985233
f 1/1/1 2/2/2 3/3/3
f 4/4/4 5/5/5 6/6/6
f 7/7/7 8/8/8 9/9/9
f 10/10/10 7/7/7 1/1/1
f 11/11/11 10/10/10 1/1/1
f 3/3/3 11/11/11 1/1/1
f 12/12/12 13/13/13 10/10/10
f 10/10/10 14/14/14 15/15/15
f 12/12/12 16/16/16 17/17/17
f 12/12/12 18/18/18 19/19/19
f 17/17/17 20/20/20 21/21/21
f 17/17/17 22/22/22 18/18/18
f 23/23/23 24/24/24 25/25/25
f 16/16/16 26/26/26 20/20/20
f 27/27/27 28/28/28 29/29/29
f 30/30/30 29/29/29 31/31/31
f 11/11/11 32/32/32 16/16/16
f 30/30/30 33/33/33 34/34/34
f 35/35/35 27/27/27 30/30/30
f 36/36/36 30/30/30 34/34/34
f 36/36/36 37/37/37 38/38/38
f 34/34/34 39/39/39 37/37/37
f 37/37/37 40/40/40 38/38/38
f 41/41/41 5/5/5 42/42/42
f 43/43/43 42/42/42 44/44/44
f 45/45/45 46/46/46 47/47/47
f 48/48/48 46/46/46 49/49/49
f 36/36/36 50/50/50 51/51/51
f 51/51/51 35/35/35 36/36/36
f 35/35/35 52/52/52 53/53/53
f 53/53/53 54/54/54 27/27/27
f 53/53/53 55/55/55 56/56/56
f 1/1/1 7/7/7 2/2/2
f 4/4/4 44/44/44 5/5/5
f 7/7/7 15/15/15 8/8/8
f 10/10/10 15/15/15 7/7/7
f 11/11/11 12/12/12 10/10/10
f 3/3/3 57/57/57 11/11/11
f 12/12/12 19/19/19 13/13/13
f 10/10/10 13/13/13 14/14/14
f 12/12/12 11/11/11 16/16/16
f 12/12/12 17/17/17 18/18/18
f 17/17/17 16/16/16 20/20/20
f 17/17/17 21/21/21 22/22/22
f 25/25/25 58/58/58 23/23/23
f 58/58/58 59/59/59 60/60/60
f 23/23/23 58/58/58 60/60/60
f 16/16/16 32/32/32 26/26/26
f 27/27/27 54/54/54 28/28/28
f 30/30/30 27/27/27 29/29/29
f 11/11/11 57/57/57 32/32/32
f 30/30/30 31/31/31 33/33/33
f 35/35/35 53/53/53 27/27/27
f 36/36/36 35/35/35 30/30/30
f 36/36/36 34/34/34 37/37/37
f 34/34/34 33/33/33 39/39/39
f 37/37/37 61/61/61 40/40/40
f 41/41/41 6/6/6 5/5/5
f 42/42/42 5/5/5 44/44/44
f 44/44/44 49/49/49 43/43/43
f 49/49/49 46/46/46 43/43/43
f 45/45/45 43/43/43 46/46/46
f 48/48/48 47/47/47 46/46/46
f 36/36/36 38/38/38 50/50/50
f 51/51/51 62/62/62 35/35/35
f 35/35/35 62/62/62 52/52/52
f 53/53/53 56/56/56 54/54/54
f 53/53/53 52/52/52 55/55/55
