# Cube.007 -- imported by tools/import_asset_pack.py from CharactersSingle.fbx
o __pending__
v 0.104275 -2.678170 -0.907239
v -0.104275 -2.814486 -0.907239
v 0.104275 -2.814486 -0.907239
v -0.104275 -2.814486 -0.907239
v -0.188398 -2.701147 -1.235464
v -0.188398 -2.947434 -1.235464
v 0.188398 -2.947434 -1.235464
v -0.104275 -2.814486 -0.907239
v -0.188398 -2.947434 -1.235464
v 0.188398 -2.701147 -1.235464
v 0.104275 -2.814486 -0.907239
v 0.188398 -2.947434 -1.235464
v 0.376629 -3.070470 -2.141030
v 0.376629 -2.578111 -2.141030
v -0.188398 -2.701147 -1.235464
v 0.104275 -2.678170 -0.907239
v 0.188398 -2.701147 -1.235464
v -0.376629 -2.578111 -2.141030
v 0.278372 -2.751236 -2.573955
v 0.278372 -2.429569 -2.403774
v 0.376629 -2.578111 -2.141030
v -0.278372 -2.429569 -2.403774
v -0.376629 -3.070470 -2.141030
v -0.376629 -2.578111 -2.141030
v -0.278372 -2.751236 -2.573955
v 0.278372 -2.429569 -2.403774
v -0.139779 -2.188873 -2.521785
v -0.278372 -2.429569 -2.403774
v -0.278372 -2.429569 -2.403774
v -0.139779 -2.350391 -2.607239
v -0.376629 -3.070470 -2.141030
v 0.278372 -2.751236 -2.573955
v -0.278372 -2.751236 -2.573955
v 0.139779 -2.350391 -2.607239
v 0.278372 -2.751236 -2.573955
v -0.139779 -2.188873 -2.521785
v -0.139779 -2.350391 -2.607239
v 0.139779 -2.350391 -2.607239
v 0.139779 -2.188873 -2.521785
v -0.104275 -2.678170 -0.907239
v -0.104275 -2.678170 -0.907239
v 0.104275 -2.814486 -0.907239
v 0.104275 -2.678170 -0.907239
v 0.376629 -3.070470 -2.141030
v -0.104275 -2.678170 -0.907239
v 0.278372 -2.429569 -2.403774
v 0.139779 -2.188873 -2.521785
v -0.139779 -2.188873 -2.521785
v -0.278372 -2.751236 -2.573955
v 0.139779 -2.188873 -2.521785
vt 0.091525 0.345902
vt 0.135276 0.414613
vt 0.135276 0.345902
vt 0.044791 0.418272
vt 0.041369 0.534146
vt 0.118990 0.510535
vt 0.560175 0.882405
vt 0.656602 0.998171
vt 0.684318 0.882405
vt 0.454960 0.534146
vt 0.451537 0.418272
vt 0.377339 0.510535
vt 0.498158 0.583651
vt 0.405168 0.834730
vt 0.936154 0.610536
vt 0.839727 0.502700
vt 0.812011 0.610536
vt 0.998170 0.910056
vt 0.310585 0.952208
vt 0.428170 0.929524
vt 0.749994 0.910056
vt 0.965798 0.998171
vt 0.246335 0.787528
vt 0.091161 0.834730
vt 0.185744 0.952208
vt 0.087867 0.231182
vt 0.001829 0.368951
vt 0.087867 0.414613
vt 0.068158 0.929524
vt 0.060873 0.998170
vt 0.746335 0.583651
vt 0.530531 0.472841
vt 0.498158 0.284217
vt 0.635927 0.411402
vt 0.681589 0.284217
vt 0.543821 0.469182
vt 0.543821 0.411402
vt 0.435456 0.998170
vt 0.494499 0.986780
vt 0.091525 0.414613
vt 0.001829 0.431341
vt 0.587891 0.998171
vt 0.494499 0.431341
vt 0.249994 0.787528
vt 0.908438 0.502700
vt 0.782367 0.998171
vt 0.001829 0.276844
vt 0.001829 0.986780
vt 0.713962 0.472841
vt 0.635927 0.469182
vn 0.493048 0.615164 0.615205
vn -0.507058 -0.450073 0.735069
vn 0.507063 -0.450068 0.735069
vn -0.507058 -0.450073 0.735069
vn -0.712607 0.673320 0.197057
vn -0.650331 -0.689625 0.318571
vn 0.650331 -0.689624 0.318573
vn -0.507058 -0.450073 0.735069
vn -0.650331 -0.689625 0.318571
vn 0.712609 0.673317 0.197059
vn 0.507063 -0.450068 0.735069
vn 0.650331 -0.689624 0.318573
vn 0.676920 -0.718031 -0.161896
vn 0.789976 0.597548 0.137388
vn -0.712607 0.673320 0.197057
vn 0.493048 0.615164 0.615205
vn 0.712609 0.673317 0.197059
vn -0.789997 0.597520 0.137385
vn 0.562457 -0.316213 -0.763971
vn 0.744388 0.658735 0.109334
vn 0.789976 0.597548 0.137388
vn -0.744394 0.658731 0.109322
vn -0.676884 -0.718061 -0.161913
vn -0.789997 0.597520 0.137385
vn -0.562451 -0.316205 -0.763978
vn 0.744388 0.658735 0.109334
vn -0.413767 0.910220 -0.017194
vn -0.744394 0.658731 0.109322
vn -0.744394 0.658731 0.109322
vn -0.413012 0.236948 -0.879362
vn -0.676884 -0.718061 -0.161913
vn 0.562457 -0.316213 -0.763971
vn -0.562451 -0.316205 -0.763978
vn 0.413014 0.236951 -0.879360
vn 0.562457 -0.316213 -0.763971
vn -0.413767 0.910220 -0.017194
vn -0.413012 0.236948 -0.879362
vn 0.413014 0.236951 -0.879360
vn 0.413771 0.910218 -0.017198
vn -0.493052 0.615161 0.615205
vn -0.493052 0.615161 0.615205
vn 0.507063 -0.450068 0.735069
vn 0.493048 0.615164 0.615205
vn 0.676920 -0.718031 -0.161896
vn -0.493052 0.615161 0.615205
vn 0.744388 0.658735 0.109334
vn 0.413771 0.910218 -0.017198
vn -0.413767 0.910220 -0.017194
vn -0.562451 -0.316205 -0.763978
vn 0.413771 0.910218 -0.017198
f 1/1/1 2/2/2 3/3/3
f 4/4/4 5/5/5 6/6/6
f 7/7/7 8/8/8 9/9/9
f 10/10/10 11/11/11 12/12/12
f 9/9/9 13/13/13 7/7/7
f 12/12/12 14/14/14 10/10/10
f 15/15/15 16/16/16 17/17/17
f 17/17/17 18/18/18 15/15/15
f 14/14/14 19/19/19 20/20/20
f 21/21/21 22/22/22 18/18/18
f 5/5/5 23/23/23 6/6/6
f 24/24/24 25/25/25 23/23/23
f 26/26/26 27/27/27 28/28/28
f 29/29/29 30/30/30 25/25/25
f 31/31/31 32/32/32 13/13/13
f 33/33/33 34/34/34 35/35/35
f 36/36/36 34/34/34 37/37/37
f 20/20/20 38/38/38 39/39/39
f 1/1/1 40/40/40 2/2/2
f 4/4/4 41/41/41 5/5/5
f 7/7/7 42/42/42 8/8/8
f 10/10/10 43/43/43 11/11/11
f 9/9/9 31/31/31 13/13/13
f 12/12/12 44/44/44 14/14/14
f 15/15/15 45/45/45 16/16/16
f 17/17/17 21/21/21 18/18/18
f 14/14/14 44/44/44 19/19/19
f 21/21/21 46/46/46 22/22/22
f 5/5/5 24/24/24 23/23/23
f 24/24/24 29/29/29 25/25/25
f 26/26/26 47/47/47 27/27/27
f 29/29/29 48/48/48 30/30/30
f 31/31/31 49/49/49 32/32/32
f 33/33/33 37/37/37 34/34/34
f 36/36/36 50/50/50 34/34/34
f 20/20/20 19/19/19 38/38/38
