# Cube.009 -- imported by tools/import_asset_pack.py from CharactersSingle.fbx
o __pending__
v 0.072436 -2.488615 -4.225445
v -0.072436 -2.614179 -4.225445
v 0.072436 -2.614179 -4.225445
v -0.072436 -2.614179 -4.225445
v -0.130872 -2.509780 -4.527779
v -0.130872 -2.736642 -4.527779
v 0.130872 -2.736642 -4.527779
v -0.072436 -2.614179 -4.225445
v -0.130872 -2.736642 -4.527779
v 0.130872 -2.509780 -4.527779
v 0.072436 -2.614179 -4.225445
v 0.130872 -2.736642 -4.527779
v 0.132800 -2.670189 -5.439241
v 0.132800 -2.670189 -5.439241
v 0.132800 -2.439984 -5.439241
v -0.130872 -2.509780 -4.527779
v 0.072436 -2.488615 -4.225445
v 0.130872 -2.509780 -4.527779
v -0.132800 -2.439984 -5.439241
v 0.125729 -2.656842 -5.648570
v 0.125729 -2.439237 -5.636379
v 0.132800 -2.439984 -5.439241
v -0.125729 -2.439237 -5.636379
v -0.132800 -2.670189 -5.439241
v -0.132800 -2.439984 -5.439241
v -0.125729 -2.656842 -5.648570
v 0.125729 -2.439237 -5.636379
v -0.063132 -2.463226 -5.925445
v -0.125729 -2.439237 -5.636379
v -0.063132 -2.623148 -5.910104
v -0.132800 -2.670189 -5.439241
v 0.125729 -2.656842 -5.648570
v -0.063132 -2.623148 -5.910104
v 0.063132 -2.623148 -5.910104
v -0.063132 -2.463226 -5.925445
v 0.063132 -2.623148 -5.910104
v -0.063132 -2.623148 -5.910104
v 0.063132 -2.623148 -5.910104
v 0.063132 -2.463226 -5.925445
v -0.072436 -2.488615 -4.225445
v -0.072436 -2.488615 -4.225445
v 0.072436 -2.614179 -4.225445
v 0.072436 -2.488615 -4.225445
v -0.072436 -2.488615 -4.225445
v 0.063132 -2.463226 -5.925445
v -0.063132 -2.463226 -5.925445
v -0.125729 -2.656842 -5.648570
v 0.063132 -2.463226 -5.925445
vt 0.629946 0.816211
vt 0.703353 0.900905
vt 0.703353 0.816211
vt 0.075073 0.001724
vt 0.021141 0.180200
vt 0.153663 0.174883
vt 0.472349 0.819560
vt 0.591207 0.998276
vt 0.625371 0.819560
vt 0.289633 0.180200
vt 0.235701 0.001724
vt 0.157111 0.174883
vt 0.471222 0.288020
vt 0.174575 0.708783
vt 0.309049 0.714178
vt 0.313625 0.821329
vt 0.432483 0.998276
vt 0.466646 0.821329
vt 0.312498 0.289297
vt 0.177464 0.831427
vt 0.304864 0.829406
vt 0.467774 0.289297
vt 0.316632 0.174073
vt 0.136199 0.708783
vt 0.001724 0.714178
vt 0.133310 0.831427
vt 0.463639 0.174073
vt 0.353227 0.004852
vt 0.005910 0.829406
vt 0.119787 0.985568
vt 0.626498 0.288020
vt 0.475356 0.165914
vt 0.585768 0.013637
vt 0.511952 0.013637
vt 0.629946 0.998276
vt 0.703763 0.904353
vt 0.629946 0.904353
vt 0.190986 0.985568
vt 0.284045 0.998276
vt 0.629946 0.900905
vt 0.001724 0.004667
vt 0.506513 0.998276
vt 0.309049 0.004667
vt 0.347788 0.998276
vt 0.427044 0.004852
vt 0.026729 0.998276
vt 0.622363 0.165914
vt 0.703763 0.998276
vn 0.513015 0.611137 0.602767
vn -0.530146 -0.448802 0.719390
vn 0.530160 -0.448800 0.719381
vn -0.530146 -0.448802 0.719390
vn -0.739497 0.668763 0.076815
vn -0.673284 -0.721637 0.161023
vn 0.673283 -0.721640 0.161016
vn -0.530146 -0.448802 0.719390
vn -0.673284 -0.721637 0.161023
vn 0.739501 0.668759 0.076813
vn 0.530160 -0.448800 0.719381
vn 0.673283 -0.721640 0.161016
vn 0.711676 -0.700061 -0.058584
vn 0.711676 -0.700061 -0.058584
vn 0.703260 0.710731 0.016941
vn -0.739497 0.668763 0.076815
vn 0.513015 0.611137 0.602767
vn 0.739501 0.668759 0.076813
vn -0.703273 0.710719 0.016940
vn 0.713306 -0.682707 -0.158447
vn 0.708941 0.695995 -0.113990
vn 0.703260 0.710731 0.016941
vn -0.708927 0.696009 -0.113988
vn -0.711663 -0.700074 -0.058584
vn -0.703273 0.710719 0.016940
vn -0.713316 -0.682697 -0.158448
vn 0.708941 0.695995 -0.113990
vn -0.507109 0.531309 -0.678639
vn -0.708927 0.696009 -0.113988
vn -0.511812 -0.572371 -0.640655
vn -0.711663 -0.700074 -0.058584
vn 0.713306 -0.682707 -0.158447
vn -0.511812 -0.572371 -0.640655
vn 0.511810 -0.572359 -0.640669
vn -0.507109 0.531309 -0.678639
vn 0.511810 -0.572359 -0.640669
vn -0.511812 -0.572371 -0.640655
vn 0.511810 -0.572359 -0.640669
vn 0.507120 0.531308 -0.678632
vn -0.513029 0.611134 0.602757
vn -0.513029 0.611134 0.602757
vn 0.530160 -0.448800 0.719381
vn 0.513015 0.611137 0.602767
vn -0.513029 0.611134 0.602757
vn 0.507120 0.531308 -0.678632
vn -0.507109 0.531309 -0.678639
vn -0.713316 -0.682697 -0.158448
vn 0.507120 0.531308 -0.678632
f 1/1/1 2/2/2 3/3/3
f 4/4/4 5/5/5 6/6/6
f 7/7/7 8/8/8 9/9/9
f 10/10/10 11/11/11 12/12/12
f 9/9/9 13/13/13 7/7/7
f 10/10/10 14/14/14 15/15/15
f 16/16/16 17/17/17 18/18/18
f 18/18/18 19/19/19 16/16/16
f 15/15/15 20/20/20 21/21/21
f 22/22/22 23/23/23 19/19/19
f 5/5/5 24/24/24 6/6/6
f 25/25/25 26/26/26 24/24/24
f 27/27/27 28/28/28 23/23/23
f 29/29/29 30/30/30 26/26/26
f 31/31/31 32/32/32 13/13/13
f 32/32/32 33/33/33 34/34/34
f 35/35/35 36/36/36 37/37/37
f 21/21/21 38/38/38 39/39/39
f 1/1/1 40/40/40 2/2/2
f 4/4/4 41/41/41 5/5/5
f 7/7/7 42/42/42 8/8/8
f 10/10/10 43/43/43 11/11/11
f 9/9/9 31/31/31 13/13/13
f 10/10/10 12/12/12 14/14/14
f 16/16/16 44/44/44 17/17/17
f 18/18/18 22/22/22 19/19/19
f 15/15/15 14/14/14 20/20/20
f 22/22/22 27/27/27 23/23/23
f 5/5/5 25/25/25 24/24/24
f 25/25/25 29/29/29 26/26/26
f 27/27/27 45/45/45 28/28/28
f 29/29/29 46/46/46 30/30/30
f 31/31/31 47/47/47 32/32/32
f 32/32/32 47/47/47 33/33/33
f 35/35/35 48/48/48 36/36/36
f 21/21/21 20/20/20 38/38/38
