# Cube.015 -- imported by tools/import_asset_pack.py from CharactersSingle.fbx
o __pending__
v 1.192949 8.641024 -0.121779
v 1.024290 8.437392 -0.205475
v 1.024290 8.641024 -0.249164
v 1.164027 8.437392 -0.099935
v 1.024290 8.327744 -0.101549
v 1.024290 8.437392 -0.205475
v 1.164027 8.437392 -0.099935
v 1.095227 8.327745 0.059182
v 1.095227 8.327744 -0.047972
v 1.192949 8.641025 0.132989
v 1.201371 9.150559 -0.128140
v 1.201371 9.150560 0.139349
v 1.024290 8.641025 0.260372
v 1.024290 8.437393 0.216684
v 1.164027 8.437393 0.111145
v 1.135684 9.871103 0.089738
v 1.024290 9.871103 0.173871
v 1.024290 9.150560 0.273094
v 1.135684 9.871103 -0.078528
v 1.064234 10.027744 0.035773
v 1.135684 9.871103 0.089738
v 1.024290 10.027744 0.065941
v 1.024290 9.871103 0.173871
v 0.984346 10.027744 0.035773
v 1.064234 10.027744 0.035773
v 1.024290 10.027743 -0.054733
v 1.064234 10.027743 -0.024564
v 0.912894 9.871103 -0.078528
v 1.024290 10.027743 -0.054733
v 1.024290 9.871103 -0.162662
v 0.847209 9.150559 -0.128140
v 1.024290 9.150559 -0.261885
v 1.024290 9.871103 -0.162662
v 1.024290 8.641024 -0.249164
v 0.855630 8.641024 -0.121779
v 0.847209 9.150560 0.139349
v 0.855630 8.641025 0.132989
v 0.884553 8.437393 0.111145
v 1.024290 8.437392 -0.205475
v 0.884553 8.437392 -0.099935
v 0.953352 8.327745 0.059182
v 0.884553 8.437392 -0.099935
v 0.953352 8.327744 -0.047972
v 1.095227 8.327745 0.059182
v 0.953352 8.327745 0.059182
v 1.024290 8.327745 0.112759
v 1.024290 8.437393 0.216684
v 1.024290 8.327745 0.112759
v 1.024290 8.641025 0.260372
v 1.024290 9.871103 0.173871
v 0.912894 9.871103 0.089738
v 0.984346 10.027744 0.035773
v 0.984346 10.027743 -0.024564
v 0.912894 9.871103 0.089738
v 1.095227 8.327744 -0.047972
v 1.024290 9.150559 -0.261885
v 1.064234 10.027743 -0.024564
v 0.984346 10.027743 -0.024564
v 1.024290 10.027743 -0.054733
v 0.953352 8.327744 -0.047972
v 1.024290 8.327745 0.112759
v 1.024290 9.150560 0.273094
vt 0.392437 0.565041
vt 0.366886 0.499015
vt 0.352163 0.562444
vt 0.397305 0.462005
vt 0.377426 0.422365
vt 0.345537 0.445795
vt 0.400253 0.501167
vt 0.450416 0.466909
vt 0.416900 0.466363
vt 0.472124 0.566339
vt 0.387822 0.724378
vt 0.471488 0.725741
vt 0.511538 0.565041
vt 0.498930 0.501167
vt 0.466275 0.502242
vt 0.452060 0.949958
vt 0.478092 0.949101
vt 0.512870 0.724378
vt 0.399429 0.949101
vt 0.434185 0.997821
vt 0.458285 0.396537
vt 0.463939 0.435626
vt 0.499553 0.409459
vt 0.463939 0.451132
vt 0.449141 0.430992
vt 0.405775 0.996899
vt 0.415313 0.997514
vt 0.290106 0.945856
vt 0.283254 0.997821
vt 0.315779 0.948224
vt 0.300367 0.719211
vt 0.341179 0.722976
vt 0.372830 0.947385
vt 0.333224 0.564296
vt 0.294352 0.560710
vt 0.216726 0.721162
vt 0.214689 0.562568
vt 0.219765 0.499730
vt 0.317973 0.501162
vt 0.285767 0.498191
vt 0.234766 0.467026
vt 0.345537 0.391549
vt 0.377426 0.394827
vt 0.429985 0.411285
vt 0.403706 0.375518
vt 0.217609 0.469316
vt 0.185969 0.504241
vt 0.466994 0.466363
vt 0.173898 0.568012
vt 0.210549 0.950678
vt 0.237491 0.947083
vt 0.255181 0.997412
vt 0.274048 0.996972
vt 0.499553 0.452703
vt 0.403706 0.430594
vt 0.345537 0.721651
vt 0.434343 0.441865
vt 0.449141 0.462005
vt 0.434343 0.457371
vt 0.268272 0.466245
vt 0.429985 0.383747
vt 0.173898 0.726878
vn 0.889567 -0.094736 -0.446874
vn -0.000000 -0.427716 -0.903913
vn 0.000000 -0.113904 -0.993492
vn 0.825832 -0.381221 -0.415538
vn 0.000000 -0.858527 -0.512769
vn -0.000000 -0.427716 -0.903913
vn 0.825832 -0.381221 -0.415538
vn 0.488751 -0.844903 0.217398
vn 0.488760 -0.844898 -0.217397
vn 0.889567 -0.094737 0.446872
vn 0.892787 0.044940 -0.448232
vn 0.892793 0.044941 0.448219
vn 0.000000 -0.113904 0.993492
vn -0.000000 -0.427717 0.903913
vn 0.825825 -0.381223 0.415551
vn 0.853696 0.292145 0.431109
vn -0.000000 0.334718 0.942318
vn 0.000000 0.054257 0.998527
vn 0.853697 0.292144 -0.431108
vn 0.545987 0.799633 0.249971
vn 0.853696 0.292145 0.431109
vn 0.000000 0.809203 0.587529
vn -0.000000 0.334718 0.942318
vn -0.545991 0.799629 0.249973
vn 0.545987 0.799633 0.249971
vn 0.000001 0.809203 -0.587529
vn 0.545994 0.799627 -0.249972
vn -0.853695 0.292145 -0.431110
vn 0.000001 0.809203 -0.587529
vn -0.000000 0.334718 -0.942318
vn -0.892793 0.044940 -0.448219
vn 0.000000 0.054257 -0.998527
vn -0.000000 0.334718 -0.942318
vn 0.000000 -0.113904 -0.993492
vn -0.889567 -0.094737 -0.446872
vn -0.892786 0.044940 0.448233
vn -0.889567 -0.094737 0.446874
vn -0.825830 -0.381219 0.415545
vn -0.000000 -0.427716 -0.903913
vn -0.825827 -0.381225 -0.415544
vn -0.488755 -0.844899 0.217401
vn -0.825827 -0.381225 -0.415544
vn -0.488756 -0.844900 -0.217396
vn 0.488751 -0.844903 0.217398
vn -0.488755 -0.844899 0.217401
vn 0.000000 -0.858526 0.512770
vn -0.000000 -0.427717 0.903913
vn 0.000000 -0.858526 0.512770
vn 0.000000 -0.113904 0.993492
vn -0.000000 0.334718 0.942318
vn -0.853697 0.292144 0.431107
vn -0.545991 0.799629 0.249973
vn -0.545989 0.799632 -0.249970
vn -0.853697 0.292144 0.431107
vn 0.488760 -0.844898 -0.217397
vn 0.000000 0.054257 -0.998527
vn 0.545994 0.799627 -0.249972
vn -0.545989 0.799632 -0.249970
vn 0.000001 0.809203 -0.587529
vn -0.488756 -0.844900 -0.217396
vn 0.000000 -0.858526 0.512770
vn 0.000000 0.054257 0.998527
f 1/1/1 2/2/2 3/3/3
f 4/4/4 5/5/5 6/6/6
f 7/7/7 8/8/8 9/9/9
f 10/10/10 7/7/7 1/1/1
f 11/11/11 10/10/10 1/1/1
f 3/3/3 11/11/11 1/1/1
f 12/12/12 13/13/13 10/10/10
f 10/10/10 14/14/14 15/15/15
f 11/11/11 16/16/16 12/12/12
f 12/12/12 17/17/17 18/18/18
f 19/19/19 20/20/20 16/16/16
f 21/21/21 22/22/22 23/23/23
f 24/24/24 22/22/22 25/25/25
f 19/19/19 26/26/26 27/27/27
f 28/28/28 29/29/29 30/30/30
f 31/31/31 30/30/30 32/32/32
f 11/11/11 33/33/33 19/19/19
f 31/31/31 34/34/34 35/35/35
f 36/36/36 28/28/28 31/31/31
f 36/36/36 35/35/35 37/37/37
f 35/35/35 38/38/38 37/37/37
f 35/35/35 39/39/39 40/40/40
f 40/40/40 41/41/41 38/38/38
f 42/42/42 5/5/5 43/43/43
f 43/43/43 44/44/44 45/45/45
f 38/38/38 46/46/46 47/47/47
f 15/15/15 48/48/48 8/8/8
f 37/37/37 47/47/47 49/49/49
f 49/49/49 36/36/36 37/37/37
f 36/36/36 50/50/50 51/51/51
f 28/28/28 52/52/52 53/53/53
f 54/54/54 22/22/22 24/24/24
f 1/1/1 7/7/7 2/2/2
f 4/4/4 55/55/55 5/5/5
f 7/7/7 15/15/15 8/8/8
f 10/10/10 15/15/15 7/7/7
f 11/11/11 12/12/12 10/10/10
f 3/3/3 56/56/56 11/11/11
f 12/12/12 18/18/18 13/13/13
f 10/10/10 13/13/13 14/14/14
f 11/11/11 19/19/19 16/16/16
f 12/12/12 16/16/16 17/17/17
f 19/19/19 27/27/27 20/20/20
f 21/21/21 25/25/25 22/22/22
f 25/25/25 57/57/57 58/58/58
f 57/57/57 59/59/59 58/58/58
f 58/58/58 24/24/24 25/25/25
f 19/19/19 33/33/33 26/26/26
f 28/28/28 53/53/53 29/29/29
f 31/31/31 28/28/28 30/30/30
f 11/11/11 56/56/56 33/33/33
f 31/31/31 32/32/32 34/34/34
f 36/36/36 51/51/51 28/28/28
f 36/36/36 31/31/31 35/35/35
f 35/35/35 40/40/40 38/38/38
f 35/35/35 34/34/34 39/39/39
f 40/40/40 60/60/60 41/41/41
f 42/42/42 6/6/6 5/5/5
f 43/43/43 5/5/5 55/55/55
f 55/55/55 44/44/44 43/43/43
f 44/44/44 61/61/61 45/45/45
f 38/38/38 41/41/41 46/46/46
f 15/15/15 14/14/14 48/48/48
f 37/37/37 38/38/38 47/47/47
f 49/49/49 62/62/62 36/36/36
f 36/36/36 62/62/62 50/50/50
f 28/28/28 51/51/51 52/52/52
f 54/54/54 23/23/23 22/22/22
