# Cube.021 -- imported by tools/import_asset_pack.py from CharactersSingle.fbx
o __pending__
v 2.151497 4.785057 0.256858
v 1.581374 4.214934 0.172283
v 2.151497 3.935057 0.256858
v 2.151497 3.935057 -0.256860
v 1.581374 4.214934 0.172283
v 1.581374 4.214934 -0.172285
v 1.301497 4.785057 0.256858
v 1.581374 5.355180 0.172283
v 1.301497 4.785057 0.256858
v 1.581374 5.355180 0.172283
v 1.301497 4.785057 -0.256860
v 1.301497 4.785057 0.256858
v 2.721620 5.355180 0.172283
v 3.001497 4.785057 0.256858
v 2.721620 4.214934 0.172283
v 2.721620 5.355180 -0.172285
v 3.001497 4.785057 0.256858
v 3.001497 4.785057 -0.256860
v 3.001497 4.785057 -0.256860
v 2.721620 4.214934 0.172283
v 2.721620 4.214934 -0.172285
v 2.151497 3.935057 0.256858
v 2.151497 3.935057 -0.256860
v 2.151497 4.785057 -0.256860
v 2.721620 4.214934 -0.172285
v 2.151497 3.935057 -0.256860
v 1.581374 4.214934 -0.172285
v 1.581374 5.355180 -0.172285
v 1.301497 4.785057 -0.256860
v 2.721620 5.355180 -0.172285
v 3.001497 4.785057 -0.256860
v 2.151497 5.635056 -0.256860
v 2.721620 5.355180 0.172283
v 1.581374 5.355180 -0.172285
v 2.151497 5.635056 0.256858
v 2.151497 5.635056 -0.256860
v 2.151497 3.935057 0.256858
v 1.301497 4.785057 -0.256860
v 2.151497 5.635056 0.256858
v 3.001497 4.785057 0.256858
v 2.151497 5.635056 -0.256860
v 2.151497 5.635056 0.256858
vt 0.750000 0.750000
vt 0.834688 0.501986
vt 0.628248 0.501986
vt 0.339920 0.128248
vt 0.200430 0.291574
vt 0.312429 0.291574
vt 0.172939 0.498014
vt 0.998014 0.834688
vt 0.998014 0.628249
vt 0.542336 0.291574
vt 0.681826 0.128248
vt 0.514845 0.128248
vt 0.665312 0.998014
vt 0.501986 0.871752
vt 0.501986 0.665312
vt 0.371383 0.334688
vt 0.510873 0.128248
vt 0.343892 0.128248
vt 0.001986 0.498014
vt 0.141476 0.334688
vt 0.029477 0.334688
vt 0.168967 0.128248
vt 0.001986 0.128248
vt 0.250000 0.750000
vt 0.334688 0.501986
vt 0.128248 0.501986
vt 0.001986 0.665312
vt 0.165312 0.998014
vt 0.001986 0.871752
vt 0.498014 0.834688
vt 0.498014 0.628248
vt 0.343892 0.498014
vt 0.483382 0.334688
vt 0.654335 0.291574
vt 0.514845 0.498014
vt 0.681826 0.498014
vt 0.172939 0.128248
vt 0.339920 0.498014
vt 0.871752 0.998014
vt 0.168967 0.498014
vt 0.371751 0.998014
vt 0.510873 0.498014
vn 0.000000 0.000000 1.000000
vn -0.579142 -0.579151 0.573741
vn -0.000006 -0.759306 0.650734
vn 0.000006 -0.759306 -0.650734
vn -0.579142 -0.579151 0.573741
vn -0.579151 -0.579142 -0.573741
vn -0.759306 0.000006 0.650734
vn -0.579151 0.579142 0.573741
vn -0.759306 0.000006 0.650734
vn -0.579151 0.579142 0.573741
vn -0.759306 -0.000005 -0.650734
vn -0.759306 0.000006 0.650734
vn 0.579142 0.579151 0.573741
vn 0.759306 -0.000005 0.650734
vn 0.579151 -0.579142 0.573741
vn 0.579151 0.579142 -0.573741
vn 0.759306 -0.000005 0.650734
vn 0.759306 0.000006 -0.650734
vn 0.759306 0.000006 -0.650734
vn 0.579151 -0.579142 0.573741
vn 0.579142 -0.579151 -0.573741
vn -0.000006 -0.759306 0.650734
vn 0.000006 -0.759306 -0.650734
vn 0.000000 -0.000000 -1.000000
vn 0.579142 -0.579151 -0.573741
vn 0.000006 -0.759306 -0.650734
vn -0.579151 -0.579142 -0.573741
vn -0.579142 0.579151 -0.573741
vn -0.759306 -0.000005 -0.650734
vn 0.579151 0.579142 -0.573741
vn 0.759306 0.000006 -0.650734
vn -0.000006 0.759306 -0.650734
vn 0.579142 0.579151 0.573741
vn -0.579142 0.579151 -0.573741
vn 0.000006 0.759306 0.650733
vn -0.000006 0.759306 -0.650734
vn -0.000006 -0.759306 0.650734
vn -0.759306 -0.000005 -0.650734
vn 0.000006 0.759306 0.650733
vn 0.759306 -0.000005 0.650734
vn -0.000006 0.759306 -0.650734
vn 0.000006 0.759306 0.650733
f 1/1/1 2/2/2 3/3/3
f 4/4/4 5/5/5 6/6/6
f 7/7/7 6/6/6 5/5/5
f 1/1/1 8/8/8 9/9/9
f 10/10/10 11/11/11 12/12/12
f 13/13/13 1/1/1 14/14/14
f 15/15/15 1/1/1 3/3/3
f 16/16/16 17/17/17 18/18/18
f 19/19/19 20/20/20 21/21/21
f 21/21/21 22/22/22 23/23/23
f 24/24/24 25/25/25 26/26/26
f 27/27/27 24/24/24 26/26/26
f 28/28/28 24/24/24 29/29/29
f 24/24/24 30/30/30 31/31/31
f 32/32/32 33/33/33 16/16/16
f 34/34/34 35/35/35 36/36/36
f 1/1/1 9/9/9 2/2/2
f 4/4/4 37/37/37 5/5/5
f 7/7/7 38/38/38 6/6/6
f 1/1/1 39/39/39 8/8/8
f 10/10/10 34/34/34 11/11/11
f 13/13/13 39/39/39 1/1/1
f 15/15/15 14/14/14 1/1/1
f 16/16/16 33/33/33 17/17/17
f 19/19/19 40/40/40 20/20/20
f 21/21/21 20/20/20 22/22/22
f 24/24/24 31/31/31 25/25/25
f 27/27/27 29/29/29 24/24/24
f 28/28/28 41/41/41 24/24/24
f 24/24/24 41/41/41 30/30/30
f 32/32/32 42/42/42 33/33/33
f 34/34/34 10/10/10 35/35/35
