# Cube.019 -- imported by tools/import_asset_pack.py from CharactersSingle.fbx
o __pending__
v 0.921898 5.119932 -0.011321
v 0.904570 3.428746 -0.145589
v 0.579422 3.437261 -0.145589
v 1.247046 3.419932 -0.145589
v 0.904570 3.428746 0.145588
v 0.904570 3.428746 -0.145589
v 0.921898 5.119932 -0.011321
v 1.247046 3.419932 0.145588
v 1.247046 3.419932 -0.145589
v 0.921898 5.119932 0.011320
v 0.579422 3.437261 -0.145589
v 0.579423 3.437261 0.145588
v 0.579423 3.437261 0.145588
v 0.579422 3.437261 -0.145589
v 0.904570 3.428746 0.145588
v 0.921898 5.119932 0.011320
v 0.579423 3.437261 0.145588
v 1.247046 3.419932 -0.145589
v 1.247046 3.419932 0.145588
v 0.921898 5.119932 0.011320
v 0.921898 5.119932 -0.011321
v 1.247046 3.419932 0.145588
vt 0.295942 0.998203
vt 0.145046 0.248504
vt 0.001797 0.279712
vt 0.998203 0.697173
vt 0.866957 0.851594
vt 0.998203 0.851594
vt 0.657796 0.998203
vt 0.728522 0.218045
vt 0.597276 0.218045
vt 0.792637 0.998203
vt 0.863363 0.224196
vt 0.732116 0.224196
vt 0.866957 0.998203
vt 0.998203 0.998203
vt 0.450433 0.248504
vt 0.299536 0.998203
vt 0.593682 0.279712
vt 0.295942 0.215701
vt 0.866957 0.697173
vt 0.668002 0.998203
vt 0.802842 0.998203
vt 0.299536 0.215701
vn 0.005196 0.865503 -0.500876
vn -0.017613 -0.678386 -0.734495
vn -0.637612 -0.493601 -0.591446
vn 0.622564 -0.515087 -0.589152
vn -0.017613 -0.678385 0.734496
vn -0.017613 -0.678386 -0.734495
vn 0.005196 0.865503 -0.500876
vn 0.622575 -0.515062 0.589162
vn 0.622564 -0.515087 -0.589152
vn 0.005065 0.865504 0.500876
vn -0.637612 -0.493601 -0.591446
vn -0.637602 -0.493626 0.591436
vn -0.637602 -0.493626 0.591436
vn -0.637612 -0.493601 -0.591446
vn -0.017613 -0.678385 0.734496
vn 0.005065 0.865504 0.500876
vn -0.637602 -0.493626 0.591436
vn 0.622564 -0.515087 -0.589152
vn 0.622575 -0.515062 0.589162
vn 0.005065 0.865504 0.500876
vn 0.005196 0.865503 -0.500876
vn 0.622575 -0.515062 0.589162
f 1/1/1 2/2/2 3/3/3
f 4/4/4 5/5/5 6/6/6
f 7/7/7 8/8/8 9/9/9
f 10/10/10 11/11/11 12/12/12
f 6/6/6 13/13/13 14/14/14
f 15/15/15 16/16/16 17/17/17
f 1/1/1 18/18/18 2/2/2
f 4/4/4 19/19/19 5/5/5
f 7/7/7 20/20/20 8/8/8
f 10/10/10 21/21/21 11/11/11
f 6/6/6 5/5/5 13/13/13
f 15/15/15 22/22/22 16/16/16
