# Cube.018 -- imported by tools/import_asset_pack.py from CharactersSingle.fbx
o __pending__
v 1.478951 9.701076 -0.017134
v 1.452722 8.014419 -0.220359
v 0.960586 8.027306 -0.220359
v 1.452722 8.014419 -0.220359
v 1.971088 8.001077 0.220359
v 1.452722 8.014419 0.528740
v 1.478951 9.701076 -0.017134
v 1.971088 8.001077 0.220359
v 1.971088 8.001077 -0.220359
v 1.478951 9.701077 0.017134
v 0.960586 8.027306 -0.220359
v 0.960587 8.027306 0.220359
v 0.960587 8.027306 0.220359
v 0.960586 8.027306 -0.220359
v 1.452722 8.014419 0.528740
v 1.478951 9.701077 0.017134
v 0.960587 8.027306 0.220359
v 1.971088 8.001077 -0.220359
v 1.971088 8.001077 -0.220359
v 1.478951 9.701077 0.017134
v 1.478951 9.701076 -0.017134
v 1.971088 8.001077 0.220359
vt 0.001827 0.998173
vt 0.167079 0.429562
vt 0.001827 0.383422
vt 0.763086 0.216857
vt 0.609491 0.036142
vt 0.502018 0.216857
vt 0.415595 0.998173
vt 0.498364 0.381381
vt 0.344769 0.381381
vt 0.915404 0.998173
vt 0.998173 0.387515
vt 0.844579 0.387515
vt 0.609491 0.388429
vt 0.763086 0.388429
vt 0.667342 0.408876
vt 0.840924 0.998173
vt 0.840924 0.392084
vt 0.341115 0.478239
vt 0.763086 0.036142
vt 0.427538 0.998173
vt 0.927347 0.998173
vt 0.502018 0.488256
vn 0.008187 0.874820 -0.484378
vn -0.017222 -0.663327 -0.748131
vn -0.660590 -0.455635 -0.596673
vn -0.017222 -0.663327 -0.748131
vn 0.752177 -0.506596 0.421415
vn -0.019498 -0.494254 0.869099
vn 0.008187 0.874820 -0.484378
vn 0.752177 -0.506596 0.421415
vn 0.644983 -0.479976 -0.594659
vn 0.008512 0.898171 0.439564
vn -0.660590 -0.455635 -0.596673
vn -0.773962 -0.479665 0.413407
vn -0.773962 -0.479665 0.413407
vn -0.660590 -0.455635 -0.596673
vn -0.019498 -0.494254 0.869099
vn 0.008512 0.898171 0.439564
vn -0.773962 -0.479665 0.413407
vn 0.644983 -0.479976 -0.594659
vn 0.644983 -0.479976 -0.594659
vn 0.008512 0.898171 0.439564
vn 0.008187 0.874820 -0.484378
vn 0.752177 -0.506596 0.421415
f 1/1/1 2/2/2 3/3/3
f 4/4/4 5/5/5 6/6/6
f 7/7/7 8/8/8 9/9/9
f 10/10/10 11/11/11 12/12/12
f 4/4/4 13/13/13 14/14/14
f 15/15/15 16/16/16 17/17/17
f 1/1/1 18/18/18 2/2/2
f 4/4/4 19/19/19 5/5/5
f 7/7/7 20/20/20 8/8/8
f 10/10/10 21/21/21 11/11/11
f 4/4/4 6/6/6 13/13/13
f 15/15/15 22/22/22 16/16/16
