# Cube.008 -- imported by tools/import_asset_pack.py from FruitsSingle.fbx
o __pending__
v -0.194333 0.037181 -0.012235
v -0.204928 0.037181 0.006117
v -0.183737 0.037181 0.006117
v -0.147764 0.004218 -0.026886
v -0.183737 0.037181 -0.006117
v -0.147764 0.004218 -0.026886
v -0.183737 0.037181 0.006117
v -0.147764 0.004218 0.026886
v -0.194333 0.004219 0.053773
v -0.194333 0.037181 0.012235
v -0.194333 0.004219 0.053773
v -0.204928 0.037181 0.006117
v -0.240901 0.004218 0.026886
v -0.240901 0.004218 0.026886
v -0.204928 0.037181 -0.006117
v -0.240901 0.004218 -0.026886
v -0.240901 0.004218 -0.026886
v -0.194333 0.037181 -0.012235
v -0.194333 0.004218 -0.053773
v -0.194333 -0.013062 -0.060000
v -0.246294 -0.013062 -0.030000
v -0.246294 -0.013062 -0.030000
v -0.246294 -0.013062 0.030000
v -0.142371 -0.013062 -0.030000
v -0.194333 -0.013062 0.060000
v -0.246294 -0.013062 -0.030000
v -0.194333 0.004218 -0.053773
v -0.142371 -0.013062 -0.030000
v -0.194333 -0.013062 -0.060000
v -0.142371 -0.013062 0.030000
v -0.147764 0.004218 0.026886
v -0.194333 -0.013062 0.060000
v -0.142371 -0.013062 0.030000
v -0.194333 0.004218 -0.053773
v -0.183737 0.037181 -0.006117
v -0.147764 0.004218 0.026886
v -0.194333 0.037181 0.012235
v -0.204928 0.037181 -0.006117
v -0.240901 0.004218 -0.026886
v -0.194333 -0.013062 -0.060000
v -0.142371 -0.013062 0.030000
v -0.246294 -0.013062 0.030000
vt 0.142249 0.314151
vt 0.228314 0.314239
vt 0.185281 0.239592
vt 0.002559 0.176983
vt 0.142249 0.264416
vt 0.594922 0.277452
vt 0.430225 0.384977
vt 0.594922 0.491064
vt 0.380822 0.177369
vt 0.228314 0.264504
vt 0.584775 0.647030
vt 0.430225 0.779427
vt 0.584775 0.865648
vt 0.380822 0.395960
vt 0.185281 0.339063
vt 0.191691 0.505062
vt 0.686513 0.076098
vt 0.838521 0.243232
vt 0.901196 0.076098
vt 0.913036 0.002559
vt 0.673491 0.002559
vt 0.625680 0.997441
vt 0.657542 0.878466
vt 0.425107 0.875566
vt 0.213833 0.510180
vt 0.002559 0.875686
vt 0.550338 0.131407
vt 0.668373 0.266099
vt 0.618626 0.103141
vt 0.668373 0.504450
vt 0.556220 0.535038
vt 0.657542 0.634529
vt 0.625680 0.509568
vt 0.002559 0.395573
vt 0.430225 0.336375
vt 0.191691 0.067880
vt 0.430225 0.729686
vt 0.789675 0.243232
vt 0.556220 0.972275
vt 0.213833 0.997441
vt 0.425107 0.631935
vt 0.002559 0.632055
vn -0.000000 0.908001 -0.418969
vn -0.362841 0.908000 0.209483
vn 0.362838 0.908000 0.209484
vn 0.726083 0.545042 -0.419204
vn 0.362839 0.908000 -0.209485
vn 0.726083 0.545042 -0.419204
vn 0.362838 0.908000 0.209484
vn 0.726084 0.545041 0.419205
vn -0.000001 0.545042 0.838409
vn -0.000000 0.908000 0.418970
vn -0.000001 0.545042 0.838409
vn -0.362841 0.908000 0.209483
vn -0.726084 0.545042 0.419203
vn -0.726084 0.545042 0.419203
vn -0.362836 0.908001 -0.209486
vn -0.726083 0.545042 -0.419206
vn -0.726083 0.545042 -0.419206
vn -0.000000 0.908001 -0.418969
vn 0.000001 0.545041 -0.838409
vn 0.000017 -0.477973 -0.878374
vn -0.760691 -0.477963 -0.439204
vn -0.760691 -0.477963 -0.439204
vn -0.760703 -0.477973 0.439173
vn 0.760690 -0.477984 -0.439184
vn -0.000016 -0.477963 0.878380
vn -0.760691 -0.477963 -0.439204
vn 0.000001 0.545041 -0.838409
vn 0.760690 -0.477984 -0.439184
vn 0.000017 -0.477973 -0.878374
vn 0.760704 -0.477953 0.439193
vn 0.726084 0.545041 0.419205
vn -0.000016 -0.477963 0.878380
vn 0.760704 -0.477953 0.439193
vn 0.000001 0.545041 -0.838409
vn 0.362839 0.908000 -0.209485
vn 0.726084 0.545041 0.419205
vn -0.000000 0.908000 0.418970
vn -0.362836 0.908001 -0.209486
vn -0.726083 0.545042 -0.419206
vn 0.000017 -0.477973 -0.878374
vn 0.760704 -0.477953 0.439193
vn -0.760703 -0.477973 0.439173
f 1/1/1 2/2/2 3/3/3
f 4/4/4 1/1/1 5/5/5
f 6/6/6 7/7/7 8/8/8
f 9/9/9 3/3/3 10/10/10
f 11/11/11 12/12/12 13/13/13
f 14/14/14 15/15/15 16/16/16
f 17/17/17 18/18/18 19/19/19
f 17/17/17 20/20/20 21/21/21
f 13/13/13 22/22/22 23/23/23
f 24/24/24 25/25/25 26/26/26
f 27/27/27 28/28/28 29/29/29
f 28/28/28 8/8/8 30/30/30
f 31/31/31 32/32/32 33/33/33
f 11/11/11 23/23/23 32/32/32
f 3/3/3 5/5/5 1/1/1
f 1/1/1 15/15/15 2/2/2
f 2/2/2 10/10/10 3/3/3
f 4/4/4 34/34/34 1/1/1
f 6/6/6 35/35/35 7/7/7
f 9/9/9 36/36/36 3/3/3
f 11/11/11 37/37/37 12/12/12
f 14/14/14 2/2/2 15/15/15
f 17/17/17 38/38/38 18/18/18
f 17/17/17 19/19/19 20/20/20
f 13/13/13 39/39/39 22/22/22
f 26/26/26 40/40/40 24/24/24
f 24/24/24 41/41/41 25/25/25
f 25/25/25 42/42/42 26/26/26
f 27/27/27 6/6/6 28/28/28
f 28/28/28 6/6/6 8/8/8
f 31/31/31 11/11/11 32/32/32
f 11/11/11 13/13/13 23/23/23
