# Cube.002 -- imported by tools/import_asset_pack.py from FruitsSingle.fbx
o __pending__
v -0.025965 -0.002131 0.035738
v -0.011612 0.052744 0.027361
v -0.031965 0.017625 0.023224
v -0.018788 0.067097 0.010451
v -0.037577 0.021093 0.000000
v -0.042013 -0.002131 0.013651
v -0.025965 -0.002131 0.035738
v 0.000000 -0.002131 0.044175
v -0.011612 0.052744 0.027361
v -0.012209 -0.021887 0.037577
v -0.030401 -0.025355 0.022087
v -0.012209 -0.021887 0.037577
v -0.023224 -0.039708 0.000000
v -0.039511 -0.021886 0.000000
v -0.007176 -0.039708 0.022087
v -0.030401 -0.025355 0.022087
v -0.023224 -0.039708 0.000000
v -0.007176 -0.039708 0.022087
v -0.030401 -0.025355 0.022087
v 0.018788 -0.039708 0.013650
v 0.011612 -0.025355 0.035738
v 0.000000 -0.046306 0.000000
v 0.018788 -0.039708 0.013650
v 0.025965 -0.002131 0.035738
v 0.031965 -0.021887 0.023224
v 0.031965 -0.021887 0.023224
v 0.037577 -0.025355 0.000000
v 0.031965 -0.021887 0.023224
v 0.037577 -0.025355 0.000000
v 0.042013 -0.002131 0.013651
v 0.042013 -0.002131 0.013651
v 0.042013 -0.002131 -0.013651
v 0.030401 0.021093 0.022087
v 0.039511 0.017625 0.000000
v 0.030401 0.021093 0.022087
v 0.025965 -0.002131 -0.035738
v 0.030401 0.021093 -0.022087
v 0.031965 -0.021887 -0.023224
v 0.023224 0.067097 -0.000000
v 0.007176 0.067097 -0.016910
v 0.012209 0.049276 -0.028769
v 0.000000 -0.002131 -0.044175
v -0.011612 0.052744 -0.027361
v 0.012209 0.049276 -0.028769
v 0.007176 0.067097 -0.016910
v 0.025965 -0.002131 -0.035738
v -0.025965 -0.002131 -0.035738
v -0.012209 -0.021887 -0.037577
v 0.011612 -0.025355 -0.035738
v 0.018788 -0.039708 -0.013650
v 0.011612 -0.025355 -0.035738
v 0.031965 -0.021887 -0.023224
v 0.011612 -0.025355 -0.035738
v -0.007176 -0.039708 -0.022087
v -0.012209 -0.021887 -0.037577
v -0.030401 -0.025355 -0.022087
v -0.030401 -0.025355 -0.022087
v -0.042013 -0.002131 -0.013651
v -0.030401 -0.025355 -0.022087
v -0.042013 -0.002131 -0.013651
v -0.039511 -0.021886 0.000000
v -0.031965 0.017625 -0.023224
v -0.031965 0.017625 -0.023224
v -0.018788 0.067097 -0.010451
v -0.018788 0.067097 -0.010451
v 0.007176 0.067097 -0.016910
v -0.018788 0.067097 -0.010451
v 0.000000 0.073694 -0.000000
v -0.018788 0.067097 0.010451
v 0.023224 0.067097 -0.000000
v 0.007176 0.067097 0.016910
v 0.007176 0.067097 0.016910
v 0.030401 0.021093 0.022087
v 0.023224 0.067097 -0.000000
v 0.012209 0.049276 0.028769
v 0.030401 0.021093 0.022087
v 0.007176 0.067097 0.016910
v 0.012209 0.049276 0.028769
v 0.007176 0.067097 0.016910
v -0.011612 0.052744 0.027361
vt 0.024628 0.618179
vt 0.002861 0.899007
vt 0.080877 0.722489
vt 0.084691 0.980037
vt 0.195343 0.756144
vt 0.155311 0.629693
vt 0.657934 0.626961
vt 0.550871 0.670673
vt 0.657934 0.904298
vt 0.569885 0.556181
vt 0.109454 0.514068
vt 0.002861 0.525775
vt 0.205972 0.464949
vt 0.225190 0.545364
vt 0.500687 0.474291
vt 0.626918 0.505590
vt 0.083874 0.380348
vt 0.002861 0.276998
vt 0.005328 0.389354
vt 0.370541 0.511573
vt 0.453687 0.576317
vt 0.096319 0.268077
vt 0.068536 0.161419
vt 0.420723 0.707955
vt 0.348465 0.619609
vt 0.074423 0.086761
vt 0.177267 0.086761
vt 0.967272 0.583167
vt 0.880989 0.540226
vt 0.942912 0.659680
vt 0.317201 0.724567
vt 0.824307 0.635026
vt 0.414385 0.818923
vt 0.870837 0.744450
vt 0.943819 0.789694
vt 0.689985 0.630350
vt 0.751909 0.749804
vt 0.765488 0.541224
vt 0.814892 0.997139
vt 0.703063 0.997139
vt 0.669702 0.896197
vt 0.568892 0.100716
vt 0.489171 0.380277
vt 0.600305 0.370866
vt 0.556105 0.468570
vt 0.670904 0.120190
vt 0.433790 0.100716
vt 0.497947 0.008524
vt 0.602712 0.002861
vt 0.190137 0.193336
vt 0.308349 0.253983
vt 0.281304 0.141062
vt 0.663655 0.532660
vt 0.199617 0.328640
vt 0.297433 0.371258
vt 0.202085 0.440997
vt 0.384112 0.002861
vt 0.317201 0.120190
vt 0.311480 0.550214
vt 0.280168 0.652032
vt 0.100517 0.459227
vt 0.293298 0.760495
vt 0.384111 0.208136
vt 0.180281 0.997139
vt 0.424883 0.466288
vt 0.856921 0.267220
vt 0.807338 0.389252
vt 0.896775 0.348508
vt 0.889686 0.451671
vt 0.969914 0.254220
vt 0.990164 0.368218
vt 0.801617 0.468570
vt 0.801617 0.226666
vt 0.718001 0.417051
vt 0.712280 0.369030
vt 0.676626 0.212756
vt 0.676626 0.468570
vt 0.546179 0.925672
vt 0.577958 0.997139
vt 0.990164 0.468570
vn -0.584114 -0.006235 0.811648
vn -0.344560 0.458929 0.818940
vn -0.802826 0.278048 0.527408
vn -0.602365 0.719311 0.346045
vn -0.950634 0.310314 -0.000000
vn -0.951057 0.000000 0.309015
vn -0.584114 -0.006235 0.811648
vn 0.005950 0.005566 0.999967
vn -0.344560 0.458929 0.818940
vn -0.276389 -0.447218 0.850650
vn -0.688189 -0.525734 0.499999
vn -0.276389 -0.447218 0.850650
vn -0.525730 -0.850652 0.000000
vn -0.894426 -0.447215 0.000000
vn -0.162457 -0.850653 0.499997
vn -0.688189 -0.525734 0.499999
vn -0.525730 -0.850652 0.000000
vn -0.162457 -0.850653 0.499997
vn -0.688189 -0.525734 0.499999
vn 0.425324 -0.850653 0.309013
vn 0.262869 -0.525735 0.809013
vn -0.000001 -1.000000 0.000000
vn 0.425324 -0.850653 0.309013
vn 0.579597 -0.000294 0.814903
vn 0.723608 -0.447217 0.525727
vn 0.723608 -0.447217 0.525727
vn 0.850649 -0.525734 0.000001
vn 0.723608 -0.447217 0.525727
vn 0.850649 -0.525734 0.000001
vn 0.951057 -0.000000 0.309015
vn 0.951057 -0.000000 0.309015
vn 0.951057 -0.000000 -0.309015
vn 0.800343 0.297721 0.520396
vn 0.957137 0.289635 -0.000000
vn 0.800343 0.297721 0.520396
vn 0.579597 -0.000294 -0.814903
vn 0.800343 0.297721 -0.520397
vn 0.723608 -0.447218 -0.525726
vn 0.722694 0.691168 -0.000000
vn 0.263627 0.755294 -0.600026
vn 0.459154 0.457279 -0.761625
vn 0.005950 0.005566 -0.999967
vn -0.344560 0.458929 -0.818940
vn 0.459154 0.457279 -0.761625
vn 0.263627 0.755294 -0.600026
vn 0.579597 -0.000294 -0.814903
vn -0.584114 -0.006235 -0.811648
vn -0.276389 -0.447219 -0.850649
vn 0.262869 -0.525736 -0.809013
vn 0.425324 -0.850653 -0.309013
vn 0.262869 -0.525736 -0.809013
vn 0.723608 -0.447218 -0.525726
vn 0.262869 -0.525736 -0.809013
vn -0.162457 -0.850654 -0.499996
vn -0.276389 -0.447219 -0.850649
vn -0.688189 -0.525734 -0.499999
vn -0.688189 -0.525734 -0.499999
vn -0.951057 0.000000 -0.309015
vn -0.688189 -0.525734 -0.499999
vn -0.951057 0.000000 -0.309015
vn -0.894426 -0.447215 0.000000
vn -0.802826 0.278048 -0.527408
vn -0.802826 0.278048 -0.527408
vn -0.602365 0.719311 -0.346045
vn -0.602365 0.719311 -0.346045
vn 0.263627 0.755294 -0.600026
vn -0.602365 0.719311 -0.346045
vn -0.001097 0.999999 -0.000000
vn -0.602365 0.719311 0.346045
vn 0.722694 0.691168 -0.000000
vn 0.263627 0.755295 0.600026
vn 0.263627 0.755295 0.600026
vn 0.800343 0.297721 0.520396
vn 0.722694 0.691168 -0.000000
vn 0.459155 0.457280 0.761625
vn 0.800343 0.297721 0.520396
vn 0.263627 0.755295 0.600026
vn 0.459155 0.457280 0.761625
vn 0.263627 0.755295 0.600026
vn -0.344560 0.458929 0.818940
f 1/1/1 2/2/2 3/3/3
f 3/3/3 2/2/2 4/4/4
f 5/5/5 3/3/3 4/4/4
f 6/6/6 3/3/3 5/5/5
f 6/6/6 1/1/1 3/3/3
f 7/7/7 8/8/8 9/9/9
f 10/10/10 8/8/8 7/7/7
f 11/11/11 12/12/12 1/1/1
f 6/6/6 11/11/11 1/1/1
f 13/13/13 11/11/11 14/14/14
f 14/14/14 11/11/11 6/6/6
f 15/15/15 10/10/10 16/16/16
f 17/17/17 18/18/18 19/19/19
f 15/15/15 20/20/20 21/21/21
f 22/22/22 23/23/23 18/18/18
f 22/22/22 18/18/18 17/17/17
f 15/15/15 21/21/21 10/10/10
f 10/10/10 21/21/21 8/8/8
f 8/8/8 21/21/21 24/24/24
f 21/21/21 25/25/25 24/24/24
f 20/20/20 25/25/25 21/21/21
f 26/26/26 23/23/23 27/27/27
f 28/28/28 29/29/29 30/30/30
f 25/25/25 31/31/31 24/24/24
f 30/30/30 29/29/29 32/32/32
f 24/24/24 31/31/31 33/33/33
f 30/30/30 34/34/34 35/35/35
f 30/30/30 32/32/32 34/34/34
f 32/32/32 36/36/36 37/37/37
f 38/38/38 36/36/36 32/32/32
f 29/29/29 38/38/38 32/32/32
f 32/32/32 37/37/37 34/34/34
f 34/34/34 37/37/37 39/39/39
f 39/39/39 37/37/37 40/40/40
f 37/37/37 41/41/41 40/40/40
f 36/36/36 41/41/41 37/37/37
f 42/42/42 43/43/43 44/44/44
f 44/44/44 43/43/43 45/45/45
f 46/46/46 42/42/42 44/44/44
f 42/42/42 47/47/47 43/43/43
f 48/48/48 47/47/47 42/42/42
f 49/49/49 48/48/48 42/42/42
f 46/46/46 49/49/49 42/42/42
f 50/50/50 51/51/51 52/52/52
f 38/38/38 53/53/53 36/36/36
f 54/54/54 55/55/55 51/51/51
f 50/50/50 54/54/54 51/51/51
f 54/54/54 17/17/17 56/56/56
f 22/22/22 17/17/17 54/54/54
f 22/22/22 54/54/54 50/50/50
f 54/54/54 56/56/56 55/55/55
f 48/48/48 57/57/57 47/47/47
f 47/47/47 57/57/57 58/58/58
f 59/59/59 14/14/14 60/60/60
f 17/17/17 61/61/61 56/56/56
f 60/60/60 6/6/6 5/5/5
f 14/14/14 6/6/6 60/60/60
f 60/60/60 5/5/5 62/62/62
f 47/47/47 58/58/58 63/63/63
f 62/62/62 5/5/5 64/64/64
f 43/43/43 63/63/63 65/65/65
f 47/47/47 63/63/63 43/43/43
f 64/64/64 5/5/5 4/4/4
f 45/45/45 43/43/43 65/65/65
f 66/66/66 67/67/67 68/68/68
f 67/67/67 69/69/69 68/68/68
f 70/70/70 66/66/66 68/68/68
f 71/71/71 70/70/70 68/68/68
f 69/69/69 71/71/71 68/68/68
f 72/72/72 73/73/73 74/74/74
f 75/75/75 76/76/76 77/77/77
f 9/9/9 78/78/78 79/79/79
f 69/69/69 80/80/80 71/71/71
f 24/24/24 33/33/33 78/78/78
f 8/8/8 78/78/78 9/9/9
f 8/8/8 24/24/24 78/78/78
f 23/23/23 22/22/22 50/50/50
f 27/27/27 50/50/50 52/52/52
f 27/27/27 23/23/23 50/50/50
f 35/35/35 34/34/34 39/39/39
