# Cube.005 -- imported by tools/import_asset_pack.py from FruitsSingle.fbx
o __pending__
v 0.201870 -0.007774 0.060789
v 0.213459 0.023735 0.041226
v 0.186373 0.019255 0.049817
v 0.193632 0.043373 0.025781
v 0.164216 0.024001 0.025783
v 0.167992 -0.007774 0.045054
v 0.201870 -0.007774 0.060789
v 0.238527 -0.007774 0.053605
v 0.213459 0.023735 0.041226
v 0.219541 -0.034804 0.053838
v 0.187488 -0.039550 0.047417
v 0.219541 -0.034804 0.053838
v 0.181377 -0.059187 0.016236
v 0.161904 -0.034804 0.027069
v 0.215255 -0.047940 0.031970
v 0.187488 -0.039550 0.047417
v 0.181377 -0.059187 0.016236
v 0.215255 -0.047940 0.031970
v 0.187488 -0.039550 0.047417
v 0.240688 -0.059188 0.004613
v 0.246799 -0.039550 0.035794
v 0.209145 -0.055841 0.000789
v 0.240688 -0.059188 0.004613
v 0.263960 -0.007774 0.026248
v 0.262810 -0.034804 0.007295
v 0.262810 -0.034804 0.007295
v 0.254073 -0.039550 -0.024205
v 0.262810 -0.034804 0.007295
v 0.254073 -0.039550 -0.024205
v 0.268456 -0.007774 -0.010835
v 0.268456 -0.007774 -0.010835
v 0.250297 -0.007774 -0.043477
v 0.260184 0.024001 0.006976
v 0.256385 0.019255 -0.025492
v 0.260184 0.024001 0.006976
v 0.216419 -0.007774 -0.059211
v 0.230801 0.024001 -0.045840
v 0.231916 -0.034804 -0.048240
v 0.236912 0.043373 -0.014658
v 0.206478 0.043373 -0.024203
v 0.204607 0.018990 -0.041729
v 0.179762 -0.007774 -0.052028
v 0.177062 0.023735 -0.024201
v 0.204607 0.018990 -0.041729
v 0.206478 0.043373 -0.024203
v 0.216419 -0.007774 -0.059211
v 0.154329 -0.007774 -0.024670
v 0.169553 -0.034804 -0.036019
v 0.199258 -0.039550 -0.049664
v 0.222529 -0.059188 -0.028029
v 0.199258 -0.039550 -0.049664
v 0.231916 -0.034804 -0.048240
v 0.199258 -0.039550 -0.049664
v 0.185873 -0.059188 -0.020846
v 0.169553 -0.034804 -0.036019
v 0.158106 -0.039550 -0.005399
v 0.158106 -0.039550 -0.005399
v 0.149833 -0.007774 0.012412
v 0.158106 -0.039550 -0.005399
v 0.149833 -0.007774 0.012412
v 0.161904 -0.034804 0.027069
v 0.155479 0.019255 -0.005717
v 0.155479 0.019255 -0.005717
v 0.179729 0.043373 0.000790
v 0.179729 0.043373 0.000790
v 0.206478 0.043373 -0.024203
v 0.179729 0.043373 0.000790
v 0.206715 0.025924 0.000789
v 0.193632 0.043373 0.025781
v 0.236912 0.043373 -0.014658
v 0.228972 0.043373 0.016233
v 0.228972 0.043373 0.016233
v 0.260184 0.024001 0.006976
v 0.236912 0.043373 -0.014658
v 0.242878 0.018990 0.027065
v 0.260184 0.024001 0.006976
v 0.228972 0.043373 0.016233
v 0.242878 0.018990 0.027065
v 0.228972 0.043373 0.016233
v 0.213459 0.023735 0.041226
vt 0.024628 0.618179
vt 0.002861 0.899007
vt 0.080877 0.722489
vt 0.084691 0.980037
vt 0.195343 0.756144
vt 0.155311 0.629693
vt 0.657934 0.626961
vt 0.550871 0.670673
vt 0.657934 0.904298
vt 0.569885 0.556181
vt 0.109454 0.514068
vt 0.002861 0.525775
vt 0.205972 0.464949
vt 0.225190 0.545364
vt 0.500687 0.474291
vt 0.626918 0.505590
vt 0.083874 0.380348
vt 0.002861 0.276998
vt 0.005328 0.389354
vt 0.370541 0.511573
vt 0.453687 0.576317
vt 0.096319 0.268077
vt 0.068536 0.161419
vt 0.420723 0.707955
vt 0.348465 0.619609
vt 0.074423 0.086761
vt 0.177267 0.086761
vt 0.967272 0.583167
vt 0.880989 0.540226
vt 0.942912 0.659680
vt 0.317201 0.724567
vt 0.824307 0.635026
vt 0.414385 0.818923
vt 0.870837 0.744450
vt 0.943819 0.789694
vt 0.689985 0.630350
vt 0.751909 0.749804
vt 0.765488 0.541224
vt 0.814892 0.997139
vt 0.703063 0.997139
vt 0.669702 0.896197
vt 0.568892 0.100716
vt 0.489171 0.380277
vt 0.600305 0.370866
vt 0.556105 0.468570
vt 0.670904 0.120190
vt 0.433790 0.100716
vt 0.497947 0.008524
vt 0.602712 0.002861
vt 0.190137 0.193336
vt 0.308349 0.253983
vt 0.281304 0.141062
vt 0.663655 0.532660
vt 0.199617 0.328640
vt 0.297433 0.371258
vt 0.202085 0.440997
vt 0.384112 0.002861
vt 0.317201 0.120190
vt 0.311480 0.550214
vt 0.280168 0.652032
vt 0.100517 0.459227
vt 0.293298 0.760495
vt 0.384111 0.208136
vt 0.180281 0.997139
vt 0.424883 0.466288
vt 0.856921 0.267220
vt 0.807338 0.389252
vt 0.896775 0.348508
vt 0.889686 0.451671
vt 0.969914 0.254220
vt 0.990164 0.368218
vt 0.801617 0.468570
vt 0.801617 0.226666
vt 0.718001 0.417051
vt 0.712280 0.369030
vt 0.676626 0.212756
vt 0.676626 0.468570
vt 0.546179 0.925672
vt 0.577958 0.997139
vt 0.990164 0.468570
vn -0.079639 0.076503 0.993884
vn 0.249593 0.600793 0.759441
vn -0.263867 0.494907 0.827914
vn -0.073551 0.956972 0.280706
vn -0.738424 0.534773 0.410790
vn -0.680883 0.000000 0.732392
vn -0.079639 0.076503 0.993884
vn 0.489657 0.155982 0.857849
vn 0.249593 0.600793 0.759441
vn 0.161061 -0.546427 0.821874
vn -0.301945 -0.586178 0.751814
vn 0.161061 -0.546427 0.821874
vn -0.292804 -0.922868 0.250162
vn -0.781620 -0.447215 0.434820
vn 0.085055 -0.896873 0.434034
vn -0.301945 -0.586178 0.751814
vn -0.292804 -0.922868 0.250162
vn 0.085055 -0.896873 0.434034
vn -0.301945 -0.586178 0.751814
vn 0.365561 -0.922870 0.121144
vn 0.563375 -0.586179 0.582239
vn 0.026938 -0.990139 0.137474
vn 0.365561 -0.922870 0.121144
vn 0.880671 0.084827 0.466071
vn 0.887924 -0.447217 0.107645
vn 0.887924 -0.447217 0.107645
vn 0.743364 -0.525734 -0.413537
vn 0.887924 -0.447217 0.107645
vn 0.743364 -0.525734 -0.413537
vn 0.981334 0.000000 -0.192309
vn 0.981334 0.000000 -0.192309
vn 0.680883 -0.000000 -0.732392
vn 0.805717 0.549802 0.220313
vn 0.780787 0.449116 -0.434357
vn 0.805717 0.549802 0.220313
vn 0.068401 0.084827 -0.994045
vn 0.237685 0.549801 -0.800765
vn 0.376767 -0.447217 -0.811199
vn 0.280785 0.946719 -0.157742
vn -0.129229 0.955138 -0.266478
vn -0.272082 0.543346 -0.794195
vn -0.470672 0.155982 -0.868411
vn -0.513651 0.600793 -0.612544
vn -0.272082 0.543346 -0.794195
vn -0.129229 0.955138 -0.266478
vn 0.068401 0.084827 -0.994045
vn -0.886460 0.076503 -0.456439
vn -0.655068 -0.447218 -0.609000
vn -0.163581 -0.525736 -0.834771
vn 0.177075 -0.907354 -0.381251
vn -0.163581 -0.525736 -0.834771
vn 0.376767 -0.447217 -0.811199
vn -0.163581 -0.525736 -0.834771
vn -0.307873 -0.907355 -0.286220
vn -0.655068 -0.447218 -0.609000
vn -0.844465 -0.525734 -0.102380
vn -0.844465 -0.525734 -0.102380
vn -0.981335 0.000001 0.192307
vn -0.844465 -0.525734 -0.102380
vn -0.981335 0.000001 0.192307
vn -0.781620 -0.447215 0.434820
vn -0.842591 0.494907 -0.212385
vn -0.842591 0.494907 -0.212385
vn -0.270276 0.958718 -0.088374
vn -0.270276 0.958718 -0.088374
vn -0.129229 0.955138 -0.266478
vn -0.270276 0.958718 -0.088374
vn 0.044722 0.998976 0.006798
vn -0.073551 0.956972 0.280706
vn 0.280785 0.946719 -0.157742
vn 0.169920 0.951342 0.257053
vn 0.169920 0.951342 0.257053
vn 0.805717 0.549802 0.220313
vn 0.280785 0.946719 -0.157742
vn 0.531321 0.543346 0.649980
vn 0.805717 0.549802 0.220313
vn 0.169920 0.951342 0.257053
vn 0.531321 0.543346 0.649980
vn 0.169920 0.951342 0.257053
vn 0.249593 0.600793 0.759441
f 1/1/1 2/2/2 3/3/3
f 3/3/3 2/2/2 4/4/4
f 5/5/5 3/3/3 4/4/4
f 6/6/6 3/3/3 5/5/5
f 6/6/6 1/1/1 3/3/3
f 7/7/7 8/8/8 9/9/9
f 10/10/10 8/8/8 7/7/7
f 11/11/11 12/12/12 1/1/1
f 6/6/6 11/11/11 1/1/1
f 13/13/13 11/11/11 14/14/14
f 14/14/14 11/11/11 6/6/6
f 15/15/15 10/10/10 16/16/16
f 17/17/17 18/18/18 19/19/19
f 15/15/15 20/20/20 21/21/21
f 22/22/22 23/23/23 18/18/18
f 22/22/22 18/18/18 17/17/17
f 15/15/15 21/21/21 10/10/10
f 10/10/10 21/21/21 8/8/8
f 8/8/8 21/21/21 24/24/24
f 21/21/21 25/25/25 24/24/24
f 20/20/20 25/25/25 21/21/21
f 26/26/26 23/23/23 27/27/27
f 28/28/28 29/29/29 30/30/30
f 25/25/25 31/31/31 24/24/24
f 30/30/30 29/29/29 32/32/32
f 24/24/24 31/31/31 33/33/33
f 30/30/30 34/34/34 35/35/35
f 30/30/30 32/32/32 34/34/34
f 32/32/32 36/36/36 37/37/37
f 38/38/38 36/36/36 32/32/32
f 29/29/29 38/38/38 32/32/32
f 32/32/32 37/37/37 34/34/34
f 34/34/34 37/37/37 39/39/39
f 39/39/39 37/37/37 40/40/40
f 37/37/37 41/41/41 40/40/40
f 36/36/36 41/41/41 37/37/37
f 42/42/42 43/43/43 44/44/44
f 44/44/44 43/43/43 45/45/45
f 46/46/46 42/42/42 44/44/44
f 42/42/42 47/47/47 43/43/43
f 48/48/48 47/47/47 42/42/42
f 49/49/49 48/48/48 42/42/42
f 46/46/46 49/49/49 42/42/42
f 50/50/50 51/51/51 52/52/52
f 38/38/38 53/53/53 36/36/36
f 54/54/54 55/55/55 51/51/51
f 50/50/50 54/54/54 51/51/51
f 54/54/54 17/17/17 56/56/56
f 22/22/22 17/17/17 54/54/54
f 22/22/22 54/54/54 50/50/50
f 54/54/54 56/56/56 55/55/55
f 48/48/48 57/57/57 47/47/47
f 47/47/47 57/57/57 58/58/58
f 59/59/59 14/14/14 60/60/60
f 17/17/17 61/61/61 56/56/56
f 60/60/60 6/6/6 5/5/5
f 14/14/14 6/6/6 60/60/60
f 60/60/60 5/5/5 62/62/62
f 47/47/47 58/58/58 63/63/63
f 62/62/62 5/5/5 64/64/64
f 43/43/43 63/63/63 65/65/65
f 47/47/47 63/63/63 43/43/43
f 64/64/64 5/5/5 4/4/4
f 45/45/45 43/43/43 65/65/65
f 66/66/66 67/67/67 68/68/68
f 67/67/67 69/69/69 68/68/68
f 70/70/70 66/66/66 68/68/68
f 71/71/71 70/70/70 68/68/68
f 69/69/69 71/71/71 68/68/68
f 72/72/72 73/73/73 74/74/74
f 75/75/75 76/76/76 77/77/77
f 9/9/9 78/78/78 79/79/79
f 69/69/69 80/80/80 71/71/71
f 24/24/24 33/33/33 78/78/78
f 8/8/8 78/78/78 9/9/9
f 8/8/8 24/24/24 78/78/78
f 23/23/23 22/22/22 50/50/50
f 27/27/27 50/50/50 52/52/52
f 27/27/27 23/23/23 50/50/50
f 35/35/35 34/34/34 39/39/39
