# Cube.007 -- imported by tools/import_asset_pack.py from FruitsSingle.fbx
o __pending__
v -0.335765 0.017010 0.004643
v -0.341237 -0.092349 -0.046785
v -0.349009 0.019750 -0.022935
v -0.341237 -0.092349 -0.046785
v -0.379457 0.019002 -0.018958
v -0.349009 0.019750 -0.022935
v -0.379457 0.019002 -0.018958
v -0.358028 0.014569 0.025663
v -0.335765 0.017010 0.004643
v -0.354991 -0.100250 0.027329
v -0.358028 0.014569 0.025663
v -0.396171 -0.098372 0.005084
v -0.358028 0.014569 0.025663
v -0.385031 0.015801 0.011077
v -0.396171 -0.098372 0.005084
v -0.385031 0.015801 0.011077
v -0.321039 -0.096527 -0.004728
v -0.354991 -0.100250 0.027329
v -0.396171 -0.098372 0.005084
v -0.321039 -0.096527 -0.004728
v -0.387671 -0.093489 -0.040721
v -0.349009 0.019750 -0.022935
v -0.385031 0.015801 0.011077
v -0.354991 -0.100250 0.027329
v -0.387671 -0.093489 -0.040721
v -0.341237 -0.092349 -0.046785
vt 0.771365 0.989019
vt 0.662660 0.753415
vt 0.706479 0.997441
vt 0.822781 0.258857
vt 0.717278 0.497561
vt 0.782534 0.504450
vt 0.887662 0.735453
vt 0.887662 0.627566
vt 0.824208 0.648093
vt 0.813258 0.753415
vt 0.805230 0.997441
vt 0.920143 0.751259
vt 0.835158 0.997441
vt 0.901890 0.997441
vt 0.673490 0.258857
vt 0.684640 0.504450
vt 0.759339 0.735453
vt 0.819091 0.653149
vt 0.759339 0.570770
vt 0.761612 0.740571
vt 0.723264 0.248350
vt 0.824208 0.714771
vt 0.926879 0.681558
vt 0.818376 0.751259
vt 0.662660 0.602162
vt 0.662660 0.703941
vn 0.748397 0.630421 0.206089
vn 0.403660 -0.467081 -0.786698
vn 0.359039 0.710966 -0.604664
vn 0.403660 -0.467081 -0.786698
vn -0.536081 0.688996 -0.487751
vn 0.359039 0.710966 -0.604664
vn -0.536081 0.688996 -0.487751
vn 0.093906 0.558655 0.824067
vn 0.748397 0.630421 0.206089
vn 0.115525 -0.632578 0.765833
vn 0.093906 0.558655 0.824067
vn -0.747074 -0.593278 0.299836
vn 0.093906 0.558655 0.824067
vn -0.699953 0.594853 0.395241
vn -0.747074 -0.593278 0.299836
vn -0.699953 0.594853 0.395241
vn 0.826778 -0.554567 0.094311
vn 0.115525 -0.632578 0.765833
vn -0.747074 -0.593278 0.299836
vn 0.826778 -0.554567 0.094311
vn -0.569039 -0.490941 -0.659676
vn 0.359039 0.710966 -0.604664
vn -0.699953 0.594853 0.395241
vn 0.115525 -0.632578 0.765833
vn -0.569039 -0.490941 -0.659676
vn 0.403660 -0.467081 -0.786698
f 1/1/1 2/2/2 3/3/3
f 4/4/4 5/5/5 6/6/6
f 7/7/7 8/8/8 9/9/9
f 10/10/10 1/1/1 11/11/11
f 12/12/12 13/13/13 14/14/14
f 5/5/5 15/15/15 16/16/16
f 17/17/17 18/18/18 19/19/19
f 1/1/1 20/20/20 2/2/2
f 4/4/4 21/21/21 5/5/5
f 9/9/9 22/22/22 7/7/7
f 7/7/7 23/23/23 8/8/8
f 10/10/10 20/20/20 1/1/1
f 12/12/12 24/24/24 13/13/13
f 5/5/5 21/21/21 15/15/15
f 19/19/19 25/25/25 26/26/26
f 26/26/26 17/17/17 19/19/19
