# Cube.010 -- imported by tools/import_asset_pack.py from FruitsSingle.fbx
o __pending__
v 0.723769 0.103535 -0.011193
v 0.668569 -0.015580 -0.004594
v 0.666498 -0.014694 -0.000000
v 0.727734 0.101839 -0.019986
v 0.673564 -0.016465 -0.003931
v 0.668569 -0.015580 -0.004594
v 0.674580 -0.016127 0.001071
v 0.670212 -0.015033 0.003501
v 0.666498 -0.014694 -0.000000
v 0.670212 -0.015033 0.003501
v 0.674580 -0.016127 0.001071
v 0.730881 0.102887 -0.004490
v 0.670212 -0.015033 0.003501
v 0.737296 0.100144 -0.018718
v 0.674580 -0.016127 0.001071
v 0.673564 -0.016465 -0.003931
v 0.723769 0.103535 -0.011193
v 0.730881 0.102887 -0.004490
v 0.739241 0.100792 -0.009141
v 0.727734 0.101839 -0.019986
v 0.737296 0.100144 -0.018718
v 0.668569 -0.015580 -0.004594
v 0.673564 -0.016465 -0.003931
v 0.730881 0.102887 -0.004490
v 0.739241 0.100792 -0.009141
v 0.739241 0.100792 -0.009141
vt 0.195934 0.986736
vt 0.217438 0.651247
vt 0.206205 0.647107
vt 0.279293 0.964088
vt 0.304935 0.718139
vt 0.292164 0.712652
vt 0.265377 0.685145
vt 0.265377 0.698647
vt 0.276696 0.704461
vt 0.194948 0.651897
vt 0.313125 0.723407
vt 0.337862 0.986074
vt 0.326047 0.718272
vt 0.139611 0.995006
vt 0.153497 0.643911
vt 0.139611 0.643442
vt 0.265377 0.977260
vt 0.281225 0.995905
vt 0.304935 0.994256
vt 0.217438 0.994661
vt 0.303741 0.974592
vt 0.283692 0.694551
vt 0.276696 0.682613
vt 0.174385 0.995905
vt 0.313125 0.995905
vt 0.166194 0.995905
vn -0.564423 0.821678 0.079195
vn -0.570836 -0.513555 -0.640631
vn -0.930276 -0.312734 0.191790
vn -0.192383 0.598757 -0.777483
vn 0.314414 -0.801100 -0.509296
vn -0.570836 -0.513555 -0.640631
vn 0.490514 -0.769299 0.409359
vn -0.281483 -0.453625 0.845572
vn -0.930276 -0.312734 0.191790
vn -0.281483 -0.453625 0.845572
vn 0.490514 -0.769299 0.409359
vn 0.105691 0.654801 0.748375
vn -0.281483 -0.453625 0.845572
vn 0.708714 0.313971 -0.631781
vn 0.490514 -0.769299 0.409359
vn 0.314414 -0.801100 -0.509296
vn -0.564423 0.821678 0.079195
vn 0.105691 0.654801 0.748375
vn 0.886599 0.355717 0.295648
vn -0.192383 0.598757 -0.777483
vn 0.708714 0.313971 -0.631781
vn -0.570836 -0.513555 -0.640631
vn 0.314414 -0.801100 -0.509296
vn 0.105691 0.654801 0.748375
vn 0.886599 0.355717 0.295648
vn 0.886599 0.355717 0.295648
f 1/1/1 2/2/2 3/3/3
f 4/4/4 5/5/5 6/6/6
f 7/7/7 8/8/8 9/9/9
f 10/10/10 1/1/1 3/3/3
f 11/11/11 12/12/12 13/13/13
f 14/14/14 15/15/15 16/16/16
f 17/17/17 18/18/18 19/19/19
f 1/1/1 20/20/20 2/2/2
f 4/4/4 21/21/21 5/5/5
f 9/9/9 22/22/22 23/23/23
f 23/23/23 7/7/7 9/9/9
f 10/10/10 24/24/24 1/1/1
f 11/11/11 25/25/25 12/12/12
f 14/14/14 26/26/26 15/15/15
f 19/19/19 21/21/21 4/4/4
f 4/4/4 17/17/17 19/19/19
