# Cube.004 -- imported by tools/import_asset_pack.py from FruitsSingle.fbx
o __pending__
v -0.314509 -0.055641 -0.002411
v -0.324242 -0.044768 0.003004
v -0.322666 -0.044768 -0.009994
v -0.272641 0.004230 0.005611
v -0.303452 -0.044768 -0.001070
v -0.279361 0.000580 -0.018617
v -0.312367 -0.040826 0.008519
v -0.309817 -0.044768 -0.012512
v -0.272641 0.004230 0.005611
v -0.279361 0.000580 -0.018617
v -0.268299 0.025019 -0.008333
v -0.305922 0.004230 0.041409
v -0.284956 0.000579 0.027531
v -0.291318 0.025019 0.041230
v -0.350253 0.004230 0.020820
v -0.330575 0.000580 0.036471
v -0.345570 0.025019 0.034653
v -0.344370 0.004229 -0.027704
v -0.353174 0.000580 -0.004153
v -0.356079 0.025019 -0.018975
v -0.296403 0.004230 -0.037103
v -0.317975 -0.037885 -0.020096
v -0.308323 0.025019 -0.045542
v -0.272641 0.004230 0.005611
v -0.268299 0.025019 -0.008333
v -0.271756 0.025019 0.020188
v -0.319513 0.025019 0.046755
v -0.359537 0.025019 0.009547
v -0.336517 0.025019 -0.040017
v -0.282265 0.025019 -0.033440
v -0.287972 0.045605 0.020817
v -0.274661 0.049459 0.005366
v -0.298667 0.064359 0.012486
v -0.331432 0.045809 0.038317
v -0.310599 0.049255 0.031709
v -0.325849 0.064359 0.019829
v -0.355194 0.045809 -0.004397
v -0.348474 0.049459 0.019831
v -0.336542 0.064359 0.000608
v -0.317408 0.045605 -0.032096
v -0.338594 0.049255 -0.018614
v -0.315969 0.064359 -0.018615
v -0.277583 0.045809 -0.019607
v -0.297260 0.049459 -0.035258
v -0.292560 0.064359 -0.011275
v -0.292560 0.064359 -0.011275
v -0.315969 0.064359 -0.018615
v -0.315786 0.050938 0.000607
v -0.315969 0.064359 -0.018615
v -0.317408 0.045605 -0.032096
v -0.336542 0.064359 0.000608
v -0.336542 0.064359 0.000608
v -0.355194 0.045809 -0.004397
v -0.325849 0.064359 0.019829
v -0.298667 0.064359 0.012486
v -0.310599 0.049255 0.031709
v -0.310599 0.049255 0.031709
v -0.287972 0.045605 0.020817
v -0.298667 0.064359 0.012486
v -0.298667 0.064359 0.012486
v -0.274661 0.049459 0.005366
v -0.292560 0.064359 -0.011275
v -0.274661 0.049459 0.005366
v -0.319513 0.025019 0.046755
v -0.274661 0.049459 0.005366
v -0.308323 0.025019 -0.045542
v -0.317975 -0.037885 -0.020096
v -0.359537 0.025019 0.009547
v -0.353174 0.000580 -0.004153
v -0.305922 0.004230 0.041409
v -0.317975 -0.037885 -0.020096
v -0.296403 0.004230 -0.037103
v -0.344370 0.004229 -0.027704
v -0.324242 -0.044768 0.003004
v -0.330575 0.000580 0.036471
v -0.312367 -0.040826 0.008519
v -0.330575 0.000580 0.036471
v -0.303452 -0.044768 -0.001070
v -0.353174 0.000580 -0.004153
v -0.350253 0.004230 0.020820
vt 0.096319 0.268077
vt 0.083874 0.380348
vt 0.199617 0.328640
vt 0.074423 0.086761
vt 0.068536 0.161419
vt 0.177267 0.086761
vt 0.002861 0.276998
vt 0.190137 0.193336
vt 0.967272 0.583167
vt 0.880989 0.540226
vt 0.942912 0.659680
vt 0.569885 0.556181
vt 0.453687 0.576317
vt 0.550871 0.670673
vt 0.225190 0.545364
vt 0.109454 0.514068
vt 0.155311 0.629693
vt 0.497947 0.008524
vt 0.384112 0.002861
vt 0.433790 0.100716
vt 0.765488 0.541224
vt 0.663655 0.532660
vt 0.689985 0.630350
vt 0.348465 0.619609
vt 0.317201 0.724567
vt 0.420723 0.707955
vt 0.657934 0.626961
vt 0.280168 0.652032
vt 0.568892 0.100716
vt 0.824307 0.635026
vt 0.712280 0.369030
vt 0.676626 0.212756
vt 0.676626 0.468570
vt 0.080877 0.722489
vt 0.002861 0.899007
vt 0.084691 0.980037
vt 0.293298 0.760495
vt 0.195343 0.756144
vt 0.180281 0.997139
vt 0.600305 0.370866
vt 0.489171 0.380277
vt 0.556105 0.468570
vt 0.870837 0.744450
vt 0.751909 0.749804
vt 0.814892 0.997139
vt 0.969914 0.254220
vt 0.856921 0.267220
vt 0.896775 0.348508
vt 0.703063 0.997139
vt 0.669702 0.896197
vt 0.807338 0.389252
vt 0.424883 0.466288
vt 0.384111 0.208136
vt 0.889686 0.451671
vt 0.990164 0.368218
vt 0.990164 0.468570
vt 0.657934 0.904298
vt 0.546179 0.925672
vt 0.577958 0.997139
vt 0.801617 0.468570
vt 0.801617 0.226666
vt 0.718001 0.417051
vt 0.943819 0.789694
vt 0.024628 0.618179
vt 0.414385 0.818923
vt 0.670904 0.120190
vt 0.602712 0.002861
vt 0.317201 0.120190
vt 0.311480 0.550214
vt 0.002861 0.525775
vt 0.308349 0.253983
vt 0.281304 0.141062
vt 0.297433 0.371258
vt 0.205972 0.464949
vt 0.005328 0.389354
vt 0.500687 0.474291
vt 0.626918 0.505590
vt 0.370541 0.511573
vt 0.202085 0.440997
vt 0.100517 0.459227
vn 0.010009 -0.998645 0.051078
vn -0.616536 -0.673272 0.408151
vn -0.588148 -0.672651 -0.449024
vn 0.915431 -0.386157 0.113440
vn 0.724987 -0.673271 0.145260
vn 0.799486 -0.409676 -0.439304
vn 0.151295 -0.617305 0.772039
vn 0.375174 -0.672651 -0.637797
vn 0.915431 -0.386157 0.113440
vn 0.799486 -0.409676 -0.439304
vn 0.981335 -0.000000 -0.192308
vn 0.175277 -0.411459 0.894416
vn 0.650253 -0.442906 0.617257
vn 0.489657 0.155982 0.857850
vn -0.804905 -0.386157 0.450568
vn -0.369180 -0.442905 0.817032
vn -0.680883 0.000000 0.732392
vn -0.664545 -0.364669 -0.652225
vn -0.906162 -0.409675 -0.105058
vn -0.886460 0.076502 -0.456438
vn 0.369229 -0.364668 -0.854803
vn -0.156804 -0.578887 -0.800189
vn 0.044565 0.050782 -0.997715
vn 0.915431 -0.386157 0.113440
vn 0.981335 -0.000000 -0.192308
vn 0.880672 0.084827 0.466070
vn -0.079638 0.076502 0.993884
vn -0.981335 0.000000 0.192308
vn -0.451415 0.122486 -0.883867
vn 0.680883 -0.000000 -0.732392
vn 0.531321 0.543346 0.649979
vn 0.805717 0.549802 0.220314
vn 0.169920 0.951342 0.257052
vn -0.263867 0.494907 0.827914
vn 0.249593 0.600793 0.759442
vn -0.073550 0.956971 0.280706
vn -0.842591 0.494907 -0.212385
vn -0.738424 0.534773 0.410789
vn -0.270276 0.958719 -0.088374
vn -0.272082 0.543346 -0.794196
vn -0.513651 0.600793 -0.612545
vn -0.129229 0.955138 -0.266478
vn 0.780787 0.449117 -0.434356
vn 0.237685 0.549801 -0.800765
vn 0.280785 0.946719 -0.157742
vn 0.280785 0.946719 -0.157742
vn -0.129229 0.955138 -0.266478
vn 0.044722 0.998976 0.006798
vn -0.129229 0.955138 -0.266478
vn -0.272082 0.543346 -0.794196
vn -0.270276 0.958719 -0.088374
vn -0.270276 0.958719 -0.088374
vn -0.842591 0.494907 -0.212385
vn -0.073550 0.956971 0.280706
vn 0.169920 0.951342 0.257052
vn 0.249593 0.600793 0.759442
vn 0.249593 0.600793 0.759442
vn 0.531321 0.543346 0.649979
vn 0.169920 0.951342 0.257052
vn 0.169920 0.951342 0.257052
vn 0.805717 0.549802 0.220314
vn 0.280785 0.946719 -0.157742
vn 0.805717 0.549802 0.220314
vn -0.079638 0.076502 0.993884
vn 0.805717 0.549802 0.220314
vn 0.044565 0.050782 -0.997715
vn -0.156804 -0.578887 -0.800189
vn -0.981335 0.000000 0.192308
vn -0.906162 -0.409675 -0.105058
vn 0.175277 -0.411459 0.894416
vn -0.156804 -0.578887 -0.800189
vn 0.369229 -0.364668 -0.854803
vn -0.664545 -0.364669 -0.652225
vn -0.616536 -0.673272 0.408151
vn -0.369180 -0.442905 0.817032
vn 0.151295 -0.617305 0.772039
vn -0.369180 -0.442905 0.817032
vn 0.724987 -0.673271 0.145260
vn -0.906162 -0.409675 -0.105058
vn -0.804905 -0.386157 0.450568
f 1/1/1 2/2/2 3/3/3
f 4/4/4 5/5/5 6/6/6
f 1/1/1 5/5/5 7/7/7
f 1/1/1 7/7/7 2/2/2
f 1/1/1 3/3/3 8/8/8
f 9/9/9 10/10/10 11/11/11
f 12/12/12 13/13/13 14/14/14
f 15/15/15 16/16/16 17/17/17
f 18/18/18 19/19/19 20/20/20
f 21/21/21 22/22/22 23/23/23
f 24/24/24 25/25/25 26/26/26
f 12/12/12 14/14/14 27/27/27
f 15/15/15 17/17/17 28/28/28
f 18/18/18 20/20/20 29/29/29
f 21/21/21 23/23/23 30/30/30
f 31/31/31 32/32/32 33/33/33
f 34/34/34 35/35/35 36/36/36
f 37/37/37 38/38/38 39/39/39
f 40/40/40 41/41/41 42/42/42
f 43/43/43 44/44/44 45/45/45
f 46/46/46 47/47/47 48/48/48
f 45/45/45 44/44/44 49/49/49
f 44/44/44 50/50/50 49/49/49
f 47/47/47 51/51/51 48/48/48
f 42/42/42 41/41/41 52/52/52
f 41/41/41 53/53/53 52/52/52
f 51/51/51 54/54/54 48/48/48
f 39/39/39 38/38/38 36/36/36
f 38/38/38 34/34/34 36/36/36
f 54/54/54 55/55/55 48/48/48
f 54/54/54 56/56/56 55/55/55
f 57/57/57 58/58/58 59/59/59
f 55/55/55 46/46/46 48/48/48
f 60/60/60 61/61/61 62/62/62
f 63/63/63 43/43/43 45/45/45
f 30/30/30 44/44/44 43/43/43
f 30/30/30 23/23/23 44/44/44
f 23/23/23 50/50/50 44/44/44
f 29/29/29 41/41/41 40/40/40
f 29/29/29 20/20/20 41/41/41
f 20/20/20 53/53/53 41/41/41
f 28/28/28 38/38/38 37/37/37
f 28/28/28 17/17/17 38/38/38
f 17/17/17 34/34/34 38/38/38
f 64/64/64 35/35/35 34/34/34
f 27/27/27 14/14/14 57/57/57
f 14/14/14 58/58/58 57/57/57
f 26/26/26 65/65/65 58/58/58
f 26/26/26 25/25/25 65/65/65
f 11/11/11 43/43/43 63/63/63
f 66/66/66 29/29/29 40/40/40
f 66/66/66 67/67/67 29/29/29
f 67/67/67 18/18/18 29/29/29
f 20/20/20 68/68/68 53/53/53
f 20/20/20 19/19/19 68/68/68
f 69/69/69 15/15/15 28/28/28
f 17/17/17 64/64/64 34/34/34
f 17/17/17 16/16/16 64/64/64
f 16/16/16 70/70/70 64/64/64
f 14/14/14 26/26/26 58/58/58
f 14/14/14 13/13/13 26/26/26
f 13/13/13 24/24/24 26/26/26
f 11/11/11 30/30/30 43/43/43
f 11/11/11 10/10/10 30/30/30
f 10/10/10 21/21/21 30/30/30
f 8/8/8 71/71/71 72/72/72
f 8/8/8 3/3/3 71/71/71
f 3/3/3 73/73/73 71/71/71
f 74/74/74 16/16/16 15/15/15
f 2/2/2 7/7/7 75/75/75
f 76/76/76 12/12/12 77/77/77
f 76/76/76 13/13/13 12/12/12
f 76/76/76 78/78/78 13/13/13
f 78/78/78 24/24/24 13/13/13
f 6/6/6 8/8/8 72/72/72
f 6/6/6 5/5/5 8/8/8
f 5/5/5 1/1/1 8/8/8
f 3/3/3 79/79/79 73/73/73
f 3/3/3 2/2/2 79/79/79
f 2/2/2 80/80/80 79/79/79
