# Cube.011 -- imported by tools/import_asset_pack.py from FruitsSingle.fbx
o __pending__
v 0.914024 -0.067912 -0.039234
v 0.892584 -0.036374 -0.031602
v 0.918924 -0.040859 -0.020872
v 0.897952 -0.016719 -0.007025
v 0.920585 -0.036109 0.011805
v 0.930017 -0.067912 -0.005440
v 0.918924 -0.040859 -0.020872
v 0.920585 -0.036109 0.011805
v 0.930017 -0.067912 -0.005440
v 0.881223 -0.067912 -0.057174
v 0.895980 -0.094966 -0.045199
v 0.916530 -0.099716 -0.019739
v 0.895980 -0.094966 -0.045199
v 0.914024 -0.067912 -0.039234
v 0.930017 -0.067912 -0.005440
v 0.901270 -0.119372 0.008164
v 0.923187 -0.094966 0.012295
v 0.885277 -0.108114 -0.025630
v 0.848196 -0.119372 -0.020864
v 0.863456 -0.099716 -0.048766
v 0.870017 -0.116022 0.002272
v 0.863456 -0.099716 -0.048766
v 0.881223 -0.067912 -0.057174
v 0.863456 -0.099716 -0.048766
v 0.844141 -0.067912 -0.052408
v 0.832892 -0.094966 -0.037089
v 0.848196 -0.119372 -0.020864
v 0.819449 -0.099716 -0.007260
v 0.816942 -0.067912 -0.026755
v 0.810017 -0.067912 0.009985
v 0.834709 -0.036109 -0.035163
v 0.816942 -0.067912 -0.026755
v 0.816846 -0.040859 -0.007751
v 0.834709 -0.036109 -0.035163
v 0.810017 -0.067912 0.009985
v 0.826009 -0.067912 0.043779
v 0.823503 -0.036109 0.024284
v 0.821109 -0.094966 0.025416
v 0.821109 -0.094966 0.025416
v 0.838764 -0.016719 -0.003619
v 0.856070 -0.016719 0.023208
v 0.846288 -0.041124 0.037890
v 0.858811 -0.067912 0.061719
v 0.878703 -0.036374 0.042038
v 0.846288 -0.041124 0.037890
v 0.856070 -0.016719 0.023208
v 0.858811 -0.067912 0.061719
v 0.895893 -0.067912 0.056952
v 0.876915 -0.094966 0.055938
v 0.895893 -0.067912 0.056952
v 0.858811 -0.067912 0.061719
v 0.845324 -0.099716 0.047420
v 0.826009 -0.067912 0.043779
v 0.841270 -0.119372 0.015876
v 0.821109 -0.094966 0.025416
v 0.874071 -0.119372 0.033816
v 0.901270 -0.119372 0.008164
v 0.905324 -0.099716 0.039707
v 0.870017 -0.116022 0.002272
v 0.874071 -0.119372 0.033816
v 0.841270 -0.119372 0.015876
v 0.905324 -0.099716 0.039707
v 0.923091 -0.067912 0.031300
v 0.905324 -0.099716 0.039707
v 0.923091 -0.067912 0.031300
v 0.907141 -0.040858 0.041634
v 0.892650 -0.016719 0.021102
v 0.897952 -0.016719 -0.007025
v 0.856070 -0.016719 0.023208
v 0.892650 -0.016719 0.021102
v 0.871886 -0.034184 0.003828
v 0.892650 -0.016719 0.021102
v 0.897952 -0.016719 -0.007025
v 0.871886 -0.034184 0.003828
v 0.838764 -0.016719 -0.003619
v 0.864649 -0.016719 -0.022304
v 0.838764 -0.016719 -0.003619
v 0.871886 -0.034184 0.003828
v 0.864649 -0.016719 -0.022304
v 0.864649 -0.016719 -0.022304
v 0.860884 -0.041124 -0.039540
v 0.834709 -0.036109 -0.035163
v 0.864649 -0.016719 -0.022304
v 0.844141 -0.067912 -0.052408
v 0.841270 -0.119372 0.015876
vt 0.862762 0.643952
vt 0.775792 0.607969
vt 0.788545 0.676819
vt 0.708643 0.645783
vt 0.738208 0.710080
vt 0.124356 0.046624
vt 0.055345 0.089787
vt 0.101811 0.112308
vt 0.830031 0.710081
vt 0.863886 0.553061
vt 0.912261 0.591720
vt 0.587349 0.907298
vt 0.525473 0.867468
vt 0.522515 0.947042
vt 0.601979 0.990776
vt 0.666811 0.860835
vt 0.660664 0.941873
vt 0.580832 0.835950
vt 0.601978 0.754637
vt 0.522515 0.801099
vt 0.653495 0.809155
vt 0.904566 0.512997
vt 0.669725 0.710081
vt 0.697821 0.646942
vt 0.610536 0.676274
vt 0.636486 0.607665
vt 0.697821 0.556903
vt 0.610536 0.530587
vt 0.556589 0.604362
vt 0.528493 0.521815
vt 0.528493 0.667500
vt 0.713254 0.412083
vt 0.656755 0.386036
vt 0.637210 0.459037
vt 0.699733 0.323788
vt 0.648543 0.249374
vt 0.615333 0.316171
vt 0.713254 0.272396
vt 0.588686 0.467228
vt 0.577120 0.399577
vt 0.528493 0.341908
vt 0.574453 0.287741
vt 0.265982 0.239936
vt 0.169864 0.219809
vt 0.183757 0.280474
vt 0.112494 0.277108
vt 0.579236 0.217267
vt 0.243439 0.158531
vt 0.770075 0.075117
vt 0.721445 0.039065
vt 0.721445 0.129361
vt 0.801289 0.150197
vt 0.763410 0.209124
vt 0.892599 0.152541
vt 0.841470 0.210817
vt 0.850634 0.072779
vt 0.892598 0.006440
vt 0.801288 0.004095
vt 0.906155 0.083748
vt 0.730550 0.825399
vt 0.690480 0.759765
vt 0.265982 0.092848
vt 0.189342 0.084692
vt 0.730551 0.915596
vt 0.690482 0.995905
vt 0.165906 0.154552
vt 0.094658 0.198461
vt 0.044905 0.169316
vt 0.590252 0.156385
vt 0.590252 0.069910
vt 0.528493 0.119339
vt 0.598443 0.209076
vt 0.660423 0.180178
vt 0.598443 0.129853
vt 0.548700 0.209076
vt 0.874415 0.384362
vt 0.899048 0.459037
vt 0.948497 0.384362
vt 0.665936 0.107382
vt 0.545242 0.451286
vt 0.774263 0.527330
vt 0.741149 0.472127
vt 0.706012 0.556061
vt 0.832972 0.472127
vt 0.669725 0.474356
vn 0.696917 0.076502 -0.713060
vn 0.293884 0.600792 -0.743425
vn 0.732376 0.494905 -0.467648
vn 0.236080 0.956971 -0.168738
vn 0.830372 0.534772 0.156528
vn 0.991840 -0.000000 -0.127492
vn 0.732376 0.494905 -0.467648
vn 0.830372 0.534772 0.156528
vn 0.991840 -0.000000 -0.127492
vn 0.172290 0.155983 -0.972618
vn 0.401871 -0.546427 -0.734790
vn 0.712973 -0.586177 -0.384793
vn 0.401871 -0.546427 -0.734790
vn 0.696917 0.076502 -0.713060
vn 0.991840 -0.000000 -0.127492
vn 0.385084 -0.922868 -0.005020
vn 0.878947 -0.447215 0.165682
vn 0.212230 -0.896873 -0.388042
vn -0.203522 -0.922870 -0.326940
vn -0.060661 -0.586180 -0.807906
vn 0.067222 -0.990139 -0.122906
vn -0.060661 -0.586180 -0.807906
vn 0.172290 0.155983 -0.972618
vn -0.060661 -0.586180 -0.807906
vn -0.378869 0.084827 -0.921555
vn -0.613695 -0.447217 -0.650673
vn -0.203522 -0.922870 -0.326940
vn -0.835926 -0.525735 -0.157578
vn -0.877354 -0.000001 -0.479845
vn -0.991840 -0.000000 0.127490
vn -0.478440 0.549803 -0.684699
vn -0.877354 -0.000001 -0.479845
vn -0.878009 0.449117 -0.165509
vn -0.478440 0.549803 -0.684699
vn -0.991840 -0.000000 0.127490
vn -0.688381 0.084827 0.720372
vn -0.694885 0.549803 0.463521
vn -0.808471 -0.447218 0.382583
vn -0.808471 -0.447218 0.382583
vn -0.316732 0.946719 -0.058336
vn -0.071104 0.955138 0.287498
vn -0.298826 0.543346 0.784524
vn -0.193638 0.155981 0.968594
vn 0.003054 0.600793 0.799399
vn -0.298826 0.543346 0.784524
vn -0.071104 0.955138 0.287498
vn -0.193638 0.155981 0.968594
vn 0.389479 0.076503 0.917853
vn 0.114030 -0.447219 0.887126
vn 0.389479 0.076503 0.917853
vn -0.193638 0.155981 0.968594
vn -0.408183 -0.525736 0.746317
vn -0.688381 0.084827 0.720372
vn -0.379969 -0.907354 0.179810
vn -0.808471 -0.447218 0.382583
vn 0.053593 -0.907354 0.416936
vn 0.385084 -0.922868 -0.005020
vn 0.583659 -0.525734 0.618827
vn 0.067222 -0.990139 -0.122906
vn 0.053593 -0.907354 0.416936
vn -0.379969 -0.907354 0.179810
vn 0.583659 -0.525734 0.618827
vn 0.877354 0.000000 0.479844
vn 0.583659 -0.525734 0.618827
vn 0.877354 0.000000 0.479844
vn 0.511855 0.494906 0.702191
vn 0.151236 0.958718 0.240805
vn 0.236080 0.956971 -0.168738
vn -0.071104 0.955138 0.287498
vn 0.151236 0.958718 0.240805
vn -0.030030 0.998976 -0.033830
vn 0.151236 0.958718 0.240805
vn 0.236080 0.956971 -0.168738
vn -0.030030 0.998976 -0.033830
vn -0.316732 0.946719 -0.058336
vn 0.033795 0.951342 -0.306279
vn -0.316732 0.946719 -0.058336
vn -0.030030 0.998976 -0.033830
vn 0.033795 0.951342 -0.306279
vn 0.033795 0.951342 -0.306279
vn 0.007307 0.543346 -0.839477
vn -0.478440 0.549803 -0.684699
vn 0.033795 0.951342 -0.306279
vn -0.378869 0.084827 -0.921555
vn -0.379969 -0.907354 0.179810
f 1/1/1 2/2/2 3/3/3
f 3/3/3 2/2/2 4/4/4
f 5/5/5 3/3/3 4/4/4
f 6/6/6 7/7/7 8/8/8
f 9/9/9 1/1/1 3/3/3
f 1/1/1 10/10/10 2/2/2
f 11/11/11 10/10/10 1/1/1
f 12/12/12 13/13/13 14/14/14
f 15/15/15 12/12/12 14/14/14
f 16/16/16 12/12/12 17/17/17
f 17/17/17 12/12/12 15/15/15
f 18/18/18 13/13/13 12/12/12
f 16/16/16 18/18/18 12/12/12
f 18/18/18 19/19/19 20/20/20
f 21/21/21 19/19/19 18/18/18
f 21/21/21 18/18/18 16/16/16
f 18/18/18 20/20/20 13/13/13
f 11/11/11 22/22/22 10/10/10
f 23/23/23 24/24/24 25/25/25
f 24/24/24 26/26/26 25/25/25
f 27/27/27 26/26/26 24/24/24
f 26/26/26 27/27/27 28/28/28
f 26/26/26 28/28/28 29/29/29
f 26/26/26 29/29/29 25/25/25
f 29/29/29 28/28/28 30/30/30
f 25/25/25 29/29/29 31/31/31
f 32/32/32 33/33/33 34/34/34
f 32/32/32 35/35/35 33/33/33
f 35/35/35 36/36/36 37/37/37
f 38/38/38 36/36/36 35/35/35
f 28/28/28 39/39/39 30/30/30
f 35/35/35 37/37/37 33/33/33
f 33/33/33 37/37/37 40/40/40
f 40/40/40 37/37/37 41/41/41
f 37/37/37 42/42/42 41/41/41
f 36/36/36 42/42/42 37/37/37
f 43/43/43 44/44/44 45/45/45
f 45/45/45 44/44/44 46/46/46
f 36/36/36 47/47/47 42/42/42
f 43/43/43 48/48/48 44/44/44
f 49/49/49 50/50/50 51/51/51
f 52/52/52 49/49/49 51/51/51
f 53/53/53 52/52/52 51/51/51
f 54/54/54 52/52/52 55/55/55
f 55/55/55 52/52/52 53/53/53
f 56/56/56 49/49/49 52/52/52
f 54/54/54 56/56/56 52/52/52
f 56/56/56 57/57/57 58/58/58
f 59/59/59 57/57/57 56/56/56
f 21/21/21 60/60/60 61/61/61
f 56/56/56 58/58/58 49/49/49
f 49/49/49 58/58/58 50/50/50
f 48/48/48 62/62/62 63/63/63
f 64/64/64 17/17/17 65/65/65
f 16/16/16 17/17/17 64/64/64
f 63/63/63 6/6/6 8/8/8
f 17/17/17 15/15/15 65/65/65
f 63/63/63 8/8/8 66/66/66
f 48/48/48 63/63/63 66/66/66
f 66/66/66 8/8/8 67/67/67
f 44/44/44 66/66/66 67/67/67
f 48/48/48 66/66/66 44/44/44
f 67/67/67 8/8/8 68/68/68
f 46/46/46 44/44/44 67/67/67
f 69/69/69 70/70/70 71/71/71
f 72/72/72 73/73/73 74/74/74
f 75/75/75 69/69/69 71/71/71
f 76/76/76 77/77/77 78/78/78
f 73/73/73 79/79/79 74/74/74
f 80/80/80 34/34/34 40/40/40
f 81/81/81 82/82/82 83/83/83
f 2/2/2 81/81/81 83/83/83
f 4/4/4 2/2/2 83/83/83
f 84/84/84 82/82/82 81/81/81
f 10/10/10 81/81/81 2/2/2
f 10/10/10 84/84/84 81/81/81
f 19/19/19 21/21/21 61/61/61
f 28/28/28 85/85/85 39/39/39
f 28/28/28 27/27/27 85/85/85
f 34/34/34 33/33/33 40/40/40
