# Cube.006 -- imported by tools/import_asset_pack.py from FruitsSingle.fbx
o __pending__
v 0.507351 0.205265 -0.009061
v 0.506680 0.087651 -0.012377
v 0.501099 0.090037 -0.000001
v 0.520445 0.199667 -0.038099
v 0.520139 0.085265 -0.010593
v 0.506680 0.087651 -0.012377
v 0.520139 0.085265 -0.010593
v 0.522876 0.086176 0.002887
v 0.511109 0.089125 0.009433
v 0.530836 0.203127 0.013073
v 0.501099 0.090037 -0.000001
v 0.511109 0.089125 0.009433
v 0.558444 0.196207 -0.002286
v 0.511109 0.089125 0.009433
v 0.522876 0.086176 0.002887
v 0.520139 0.085265 -0.010593
v 0.507351 0.205265 -0.009061
v 0.530836 0.203127 0.013073
v 0.558444 0.196207 -0.002286
v 0.520445 0.199667 -0.038099
v 0.552023 0.194069 -0.033912
v 0.501099 0.090037 -0.000001
v 0.506680 0.087651 -0.012377
v 0.507351 0.205265 -0.009061
v 0.530836 0.203127 0.013073
v 0.552023 0.194069 -0.033912
v 0.552023 0.194069 -0.033912
v 0.520445 0.199667 -0.038099
vt 0.718001 0.220945
vt 0.759683 0.055531
vt 0.739500 0.055531
vt 0.939613 0.248498
vt 0.957673 0.092290
vt 0.939613 0.098395
vt 0.693250 0.507678
vt 0.679290 0.495775
vt 0.663655 0.507678
vt 0.885863 0.248498
vt 0.919712 0.077130
vt 0.899242 0.077130
vt 0.833797 0.248498
vt 0.866626 0.076945
vt 0.846873 0.076945
vt 0.835597 0.074880
vt 0.076650 0.066526
vt 0.076650 0.018611
vt 0.031046 0.003511
vt 0.765357 0.220945
vt 0.981987 0.234173
vt 0.667952 0.526939
vt 0.686243 0.526939
vt 0.933891 0.248498
vt 0.880141 0.248498
vt 0.807339 0.243654
vt 0.002861 0.042094
vt 0.031046 0.081040
vn -0.705373 0.702338 0.095762
vn -0.491731 -0.631629 -0.599371
vn -0.854795 -0.476425 0.205777
vn -0.306102 0.531640 -0.789722
vn 0.383829 -0.786842 -0.483276
vn -0.491731 -0.631629 -0.599371
vn 0.383829 -0.786842 -0.483276
vn 0.561885 -0.727562 0.393623
vn -0.203629 -0.535721 0.819474
vn 0.010776 0.637141 0.770672
vn -0.854795 -0.476425 0.205777
vn -0.203629 -0.535721 0.819474
vn 0.852629 0.426176 0.302321
vn -0.203629 -0.535721 0.819474
vn 0.561885 -0.727562 0.393623
vn 0.383829 -0.786842 -0.483276
vn -0.705373 0.702338 0.095762
vn 0.010776 0.637141 0.770672
vn 0.852629 0.426176 0.302321
vn -0.306102 0.531640 -0.789722
vn 0.656819 0.360941 -0.662050
vn -0.854795 -0.476425 0.205777
vn -0.491731 -0.631629 -0.599371
vn -0.705373 0.702338 0.095762
vn 0.010776 0.637141 0.770672
vn 0.656819 0.360941 -0.662050
vn 0.656819 0.360941 -0.662050
vn -0.306102 0.531640 -0.789722
f 1/1/1 2/2/2 3/3/3
f 4/4/4 5/5/5 6/6/6
f 7/7/7 8/8/8 9/9/9
f 10/10/10 11/11/11 12/12/12
f 13/13/13 14/14/14 15/15/15
f 16/16/16 13/13/13 15/15/15
f 17/17/17 18/18/18 19/19/19
f 1/1/1 20/20/20 2/2/2
f 4/4/4 21/21/21 5/5/5
f 22/22/22 23/23/23 9/9/9
f 23/23/23 7/7/7 9/9/9
f 10/10/10 24/24/24 11/11/11
f 13/13/13 25/25/25 14/14/14
f 16/16/16 26/26/26 13/13/13
f 19/19/19 27/27/27 28/28/28
f 28/28/28 17/17/17 19/19/19
