# Cube.012 -- imported by tools/import_asset_pack.py from FruitsSingle.fbx
o __pending__
v 0.552150 0.102649 -0.011862
v 0.597304 -0.016678 0.005449
v 0.600747 -0.016005 0.003772
v 0.544074 0.101071 -0.007929
v 0.594709 -0.017351 0.002634
v 0.597304 -0.016678 0.005449
v 0.596547 -0.017094 -0.000782
v 0.600278 -0.016262 -0.000078
v 0.600747 -0.016005 0.003772
v 0.600278 -0.016262 -0.000078
v 0.596547 -0.017094 -0.000782
v 0.551051 0.102046 -0.020896
v 0.600278 -0.016262 -0.000078
v 0.594709 -0.017351 0.002634
v 0.542296 0.100095 -0.022546
v 0.596547 -0.017094 -0.000782
v 0.552150 0.102649 -0.011862
v 0.551051 0.102046 -0.020896
v 0.542296 0.100095 -0.022546
v 0.544074 0.101071 -0.007929
v 0.537984 0.099492 -0.014532
v 0.597304 -0.016678 0.005449
v 0.594709 -0.017351 0.002634
v 0.551051 0.102046 -0.020896
v 0.542296 0.100095 -0.022546
v 0.537984 0.099492 -0.014532
v 0.537984 0.099492 -0.014532
v 0.544074 0.101071 -0.007929
vt 0.063273 0.985806
vt 0.066063 0.539403
vt 0.052734 0.537162
vt 0.225629 0.995368
vt 0.239079 0.667073
vt 0.225629 0.666845
vt 0.347690 0.742456
vt 0.359716 0.742456
vt 0.365512 0.729893
vt 0.044905 0.541467
vt 0.102738 0.604452
vt 0.131420 0.982033
vt 0.114963 0.598540
vt 0.017725 0.528055
vt 0.036714 0.995905
vt 0.031627 0.528055
vt 0.473885 0.171854
vt 0.486974 0.201641
vt 0.515233 0.201641
vt 0.094547 0.991063
vt 0.257187 0.995905
vt 0.357067 0.722128
vt 0.346053 0.729893
vt 0.044905 0.995905
vt 0.102738 0.995905
vt 0.004095 0.995905
vt 0.519609 0.171854
vt 0.494054 0.153444
vn 0.495169 0.803386 0.330725
vn 0.034157 -0.551121 0.833726
vn 0.840876 -0.336914 0.423577
vn -0.337453 0.569671 0.749400
vn -0.566830 -0.807776 0.161870
vn 0.034157 -0.551121 0.833726
vn -0.126631 -0.740942 -0.659522
vn 0.746838 -0.444160 -0.494929
vn 0.840876 -0.336914 0.423577
vn 0.746838 -0.444160 -0.494929
vn -0.126631 -0.740942 -0.659522
vn 0.395616 0.680386 -0.616898
vn 0.746838 -0.444160 -0.494929
vn -0.566830 -0.807776 0.161870
vn -0.498987 0.386245 -0.775775
vn -0.126631 -0.740942 -0.659522
vn 0.495169 0.803386 0.330725
vn 0.395616 0.680386 -0.616898
vn -0.498987 0.386245 -0.775775
vn -0.337453 0.569671 0.749400
vn -0.945717 0.319779 0.057972
vn 0.034157 -0.551121 0.833726
vn -0.566830 -0.807776 0.161870
vn 0.395616 0.680386 -0.616898
vn -0.498987 0.386245 -0.775775
vn -0.945717 0.319779 0.057972
vn -0.945717 0.319779 0.057972
vn -0.337453 0.569671 0.749400
f 1/1/1 2/2/2 3/3/3
f 4/4/4 5/5/5 6/6/6
f 7/7/7 8/8/8 9/9/9
f 10/10/10 1/1/1 3/3/3
f 11/11/11 12/12/12 13/13/13
f 14/14/14 15/15/15 16/16/16
f 17/17/17 18/18/18 19/19/19
f 1/1/1 20/20/20 2/2/2
f 4/4/4 21/21/21 5/5/5
f 9/9/9 22/22/22 23/23/23
f 23/23/23 7/7/7 9/9/9
f 10/10/10 24/24/24 1/1/1
f 11/11/11 25/25/25 12/12/12
f 14/14/14 26/26/26 15/15/15
f 19/19/19 27/27/27 28/28/28
f 28/28/28 17/17/17 19/19/19
