# Cube.011 -- imported by tools/import_asset_pack.py from ModularHouse.fbx
o __pending__
v 7.321291 23.174940 -2.906402
v 6.836307 22.520426 -5.906404
v 6.836307 22.520426 -2.906402
v 7.321291 23.174940 -5.906404
v 7.764716 22.052291 -7.406403
v 7.321291 23.174940 -2.906402
v 8.249699 22.706800 -1.406403
v 10.337160 21.160026 -2.906402
v 7.764716 22.052291 -1.406403
v 6.836307 22.520426 -2.906402
v 6.836307 22.520426 -5.906404
v 9.852177 20.505512 -5.906400
v 10.337160 21.160026 -2.906402
v 7.764716 22.052291 -1.406403
v 9.852177 20.505512 -2.906402
v 10.337160 21.160026 -5.906400
v 9.852177 20.505512 -2.906402
v 9.852177 20.505512 -5.906400
v 7.764716 22.052291 -7.406403
v 10.337160 21.160026 -5.906400
v 9.852177 20.505512 -5.906400
v 8.249695 22.706800 -7.406403
v 10.337160 21.160026 -5.906400
v 7.321291 23.174940 -5.906404
v 8.249695 22.706800 -7.406403
v 8.249699 22.706800 -1.406403
v 7.764716 22.052291 -7.406403
v 9.852177 20.505512 -2.906402
v 7.764716 22.052291 -1.406403
v 8.249699 22.706800 -1.406403
v 10.337160 21.160026 -2.906402
v 8.249695 22.706800 -7.406403
vt 0.893623 0.297074
vt 0.904086 0.336190
vt 0.904086 0.297074
vt 0.893623 0.336190
vt 0.899519 0.355749
vt 0.699813 0.241477
vt 0.712792 0.261035
vt 0.746414 0.241477
vt 0.899519 0.277516
vt 0.636725 0.297074
vt 0.636725 0.336190
vt 0.683333 0.336190
vt 0.960037 0.522966
vt 0.970297 0.559166
vt 0.970297 0.522090
vt 0.920567 0.188959
vt 0.931028 0.228075
vt 0.931028 0.188959
vt 0.780033 0.070733
vt 0.790293 0.034533
vt 0.780033 0.033656
vt 0.889056 0.355749
vt 0.746414 0.202361
vt 0.699813 0.202361
vt 0.712792 0.182802
vt 0.889056 0.277516
vt 0.649707 0.355749
vt 0.683333 0.297074
vt 0.649707 0.277516
vt 0.960037 0.560042
vt 0.920567 0.228075
vt 0.790293 0.071609
vn -0.235413 0.948734 0.210914
vn -0.963244 -0.118761 -0.240952
vn -0.963245 -0.118762 0.240946
vn -0.235413 0.948735 -0.210909
vn -0.464890 -0.339174 -0.817825
vn -0.235413 0.948734 0.210914
vn 0.210886 0.605656 0.767273
vn 0.913754 0.101325 0.393429
vn -0.464890 -0.339173 0.817826
vn -0.963245 -0.118762 0.240946
vn -0.963244 -0.118761 -0.240952
vn 0.207220 -0.893239 -0.398978
vn 0.913754 0.101325 0.393429
vn -0.464890 -0.339173 0.817826
vn 0.207221 -0.893234 0.398988
vn 0.913750 0.101323 -0.393440
vn 0.207221 -0.893234 0.398988
vn 0.207220 -0.893239 -0.398978
vn -0.464890 -0.339174 -0.817825
vn 0.913750 0.101323 -0.393440
vn 0.207220 -0.893239 -0.398978
vn 0.210885 0.605657 -0.767273
vn 0.913750 0.101323 -0.393440
vn -0.235413 0.948735 -0.210909
vn 0.210885 0.605657 -0.767273
vn 0.210886 0.605656 0.767273
vn -0.464890 -0.339174 -0.817825
vn 0.207221 -0.893234 0.398988
vn -0.464890 -0.339173 0.817826
vn 0.210886 0.605656 0.767273
vn 0.913754 0.101325 0.393429
vn 0.210885 0.605657 -0.767273
f 1/1/1 2/2/2 3/3/3
f 4/4/4 5/5/5 2/2/2
f 6/6/6 7/7/7 8/8/8
f 9/9/9 1/1/1 3/3/3
f 10/10/10 11/11/11 12/12/12
f 13/13/13 14/14/14 15/15/15
f 16/16/16 17/17/17 18/18/18
f 19/19/19 20/20/20 21/21/21
f 1/1/1 4/4/4 2/2/2
f 4/4/4 22/22/22 5/5/5
f 8/8/8 23/23/23 24/24/24
f 23/23/23 25/25/25 24/24/24
f 24/24/24 6/6/6 8/8/8
f 9/9/9 26/26/26 1/1/1
f 11/11/11 27/27/27 12/12/12
f 12/12/12 28/28/28 10/10/10
f 28/28/28 29/29/29 10/10/10
f 13/13/13 30/30/30 14/14/14
f 16/16/16 31/31/31 17/17/17
f 19/19/19 32/32/32 20/20/20
