# Cube.037 -- imported by tools/import_asset_pack.py from ModularHouse.fbx
o __pending__
v -2.058778 27.997596 -3.010395
v -2.058778 27.997592 -6.010393
v -5.074648 25.982682 -3.010395
v -2.502204 26.874942 -7.510396
v -2.058778 27.997592 -6.010393
v -1.573795 27.343078 -6.010393
v -2.058778 27.997596 -3.010395
v -1.573795 27.343082 -3.010395
v -2.502204 26.874946 -1.510397
v -2.987183 27.529456 -1.510397
v -2.502204 26.874946 -1.510397
v -5.074648 25.982682 -3.010395
v -4.589665 25.328168 -3.010395
v -4.589665 25.328168 -3.010395
v -5.074648 25.982678 -6.010393
v -4.589665 25.328168 -6.010393
v -2.502204 26.874942 -7.510396
v -5.074648 25.982678 -6.010393
v -2.987183 27.529456 -7.510396
v -4.589665 25.328168 -6.010393
v -1.573795 27.343082 -3.010395
v -4.589665 25.328168 -3.010395
v -2.987183 27.529456 -7.510396
v -5.074648 25.982678 -6.010393
v -2.987183 27.529456 -1.510397
v -2.987183 27.529456 -7.510396
v -2.987183 27.529456 -1.510397
v -5.074648 25.982682 -3.010395
v -4.589665 25.328168 -6.010393
v -2.502204 26.874942 -7.510396
v -1.573795 27.343078 -6.010393
v -2.502204 26.874946 -1.510397
vt 0.837796 0.713475
vt 0.837796 0.752592
vt 0.884397 0.713475
vt 0.144866 0.085933
vt 0.138969 0.105491
vt 0.149432 0.105491
vt 0.138969 0.144607
vt 0.149432 0.144607
vt 0.144866 0.164166
vt 0.134402 0.164166
vt 0.554419 0.070733
vt 0.564679 0.034533
vt 0.554419 0.033657
vt 0.943759 0.630955
vt 0.933297 0.670072
vt 0.943759 0.670072
vt 0.945086 0.936451
vt 0.934827 0.900251
vt 0.934827 0.937327
vt 0.307202 0.294917
vt 0.260593 0.334034
vt 0.307202 0.334034
vt 0.850775 0.772150
vt 0.884397 0.752592
vt 0.850775 0.693917
vt 0.134402 0.085933
vt 0.564679 0.071609
vt 0.933297 0.630955
vt 0.945086 0.899375
vt 0.273576 0.275359
vt 0.260593 0.294917
vt 0.273576 0.353592
vn 0.235414 0.948734 0.210914
vn 0.235411 0.948735 -0.210909
vn -0.913754 0.101325 0.393430
vn 0.464890 -0.339173 -0.817826
vn 0.235411 0.948735 -0.210909
vn 0.963244 -0.118760 -0.240952
vn 0.235414 0.948734 0.210914
vn 0.963245 -0.118762 0.240946
vn 0.464891 -0.339174 0.817825
vn -0.210885 0.605656 0.767273
vn 0.464891 -0.339174 0.817825
vn -0.913754 0.101325 0.393430
vn -0.207220 -0.893234 0.398988
vn -0.207220 -0.893234 0.398988
vn -0.913750 0.101322 -0.393440
vn -0.207219 -0.893240 -0.398977
vn 0.464890 -0.339173 -0.817826
vn -0.913750 0.101322 -0.393440
vn -0.210885 0.605657 -0.767273
vn -0.207219 -0.893240 -0.398977
vn 0.963245 -0.118762 0.240946
vn -0.207220 -0.893234 0.398988
vn -0.210885 0.605657 -0.767273
vn -0.913750 0.101322 -0.393440
vn -0.210885 0.605656 0.767273
vn -0.210885 0.605657 -0.767273
vn -0.210885 0.605656 0.767273
vn -0.913754 0.101325 0.393430
vn -0.207219 -0.893240 -0.398977
vn 0.464890 -0.339173 -0.817826
vn 0.963244 -0.118760 -0.240952
vn 0.464891 -0.339174 0.817825
f 1/1/1 2/2/2 3/3/3
f 4/4/4 5/5/5 6/6/6
f 6/6/6 7/7/7 8/8/8
f 9/9/9 7/7/7 10/10/10
f 11/11/11 12/12/12 13/13/13
f 14/14/14 15/15/15 16/16/16
f 17/17/17 18/18/18 19/19/19
f 20/20/20 21/21/21 22/22/22
f 23/23/23 24/24/24 2/2/2
f 24/24/24 3/3/3 2/2/2
f 3/3/3 25/25/25 1/1/1
f 4/4/4 26/26/26 5/5/5
f 6/6/6 5/5/5 7/7/7
f 9/9/9 8/8/8 7/7/7
f 11/11/11 27/27/27 12/12/12
f 14/14/14 28/28/28 15/15/15
f 17/17/17 29/29/29 18/18/18
f 20/20/20 30/30/30 31/31/31
f 31/31/31 21/21/21 20/20/20
f 21/21/21 32/32/32 22/22/22
