# Cube.007 -- imported by tools/import_asset_pack.py from ModularHouse.fbx
o __pending__
v 9.944172 20.758140 -3.814167
v 9.459189 20.103626 -6.814169
v 9.459189 20.103626 -3.814167
v 9.944172 20.758136 -6.814169
v 10.387594 19.635486 -8.314168
v 9.944172 20.758140 -3.814167
v 10.872577 20.290000 -2.314168
v 12.960038 18.743226 -3.814167
v 10.387594 19.635490 -2.314168
v 9.459189 20.103626 -3.814167
v 9.459189 20.103626 -6.814169
v 12.475059 18.088712 -6.814169
v 12.960038 18.743226 -3.814167
v 10.387594 19.635490 -2.314168
v 12.475059 18.088712 -3.814167
v 12.960038 18.743226 -6.814169
v 12.475059 18.088712 -3.814167
v 12.475059 18.088712 -6.814169
v 10.872577 20.290000 -8.314168
v 12.475059 18.088712 -6.814169
v 10.387594 19.635486 -8.314168
v 10.872577 20.290000 -8.314168
v 12.960038 18.743226 -6.814169
v 9.944172 20.758136 -6.814169
v 10.872577 20.290000 -8.314168
v 10.872577 20.290000 -2.314168
v 10.387594 19.635486 -8.314168
v 12.475059 18.088712 -3.814167
v 10.387594 19.635490 -2.314168
v 10.872577 20.290000 -2.314168
v 12.960038 18.743226 -3.814167
v 12.960038 18.743226 -6.814169
vt 0.397226 0.239321
vt 0.386763 0.200204
vt 0.386763 0.239321
vt 0.397226 0.200204
vt 0.391330 0.180646
vt 0.699813 0.430904
vt 0.712792 0.450462
vt 0.746414 0.430904
vt 0.391330 0.258879
vt 0.624036 0.838372
vt 0.624036 0.877488
vt 0.670644 0.877488
vt 0.947447 0.073649
vt 0.957707 0.109850
vt 0.957707 0.072773
vt 0.920567 0.411345
vt 0.931028 0.450462
vt 0.931028 0.411345
vt 0.098720 0.069452
vt 0.088460 0.031500
vt 0.088460 0.068576
vt 0.401793 0.180646
vt 0.746414 0.391787
vt 0.699813 0.391787
vt 0.712792 0.372229
vt 0.401793 0.258879
vt 0.637018 0.897047
vt 0.670644 0.838372
vt 0.637018 0.818814
vt 0.947447 0.110726
vt 0.920567 0.450462
vt 0.098720 0.032376
vn -0.235414 0.948734 0.210914
vn -0.963243 -0.118760 -0.240952
vn -0.963245 -0.118763 0.240946
vn -0.235411 0.948735 -0.210909
vn -0.464875 -0.339175 -0.817833
vn -0.235414 0.948734 0.210914
vn 0.210886 0.605657 0.767272
vn 0.913754 0.101326 0.393430
vn -0.464891 -0.339173 0.817825
vn -0.963245 -0.118763 0.240946
vn -0.963243 -0.118760 -0.240952
vn 0.207216 -0.893246 -0.398966
vn 0.913754 0.101326 0.393430
vn -0.464891 -0.339173 0.817825
vn 0.207221 -0.893235 0.398989
vn 0.913746 0.101316 -0.393452
vn 0.207221 -0.893235 0.398989
vn 0.207216 -0.893246 -0.398966
vn 0.210877 0.605673 -0.767262
vn 0.207216 -0.893246 -0.398966
vn -0.464875 -0.339175 -0.817833
vn 0.210877 0.605673 -0.767262
vn 0.913746 0.101316 -0.393452
vn -0.235411 0.948735 -0.210909
vn 0.210877 0.605673 -0.767262
vn 0.210886 0.605657 0.767272
vn -0.464875 -0.339175 -0.817833
vn 0.207221 -0.893235 0.398989
vn -0.464891 -0.339173 0.817825
vn 0.210886 0.605657 0.767272
vn 0.913754 0.101326 0.393430
vn 0.913746 0.101316 -0.393452
f 1/1/1 2/2/2 3/3/3
f 4/4/4 5/5/5 2/2/2
f 6/6/6 7/7/7 8/8/8
f 9/9/9 1/1/1 3/3/3
f 10/10/10 11/11/11 12/12/12
f 13/13/13 14/14/14 15/15/15
f 16/16/16 17/17/17 18/18/18
f 19/19/19 20/20/20 21/21/21
f 1/1/1 4/4/4 2/2/2
f 4/4/4 22/22/22 5/5/5
f 8/8/8 23/23/23 24/24/24
f 23/23/23 25/25/25 24/24/24
f 24/24/24 6/6/6 8/8/8
f 9/9/9 26/26/26 1/1/1
f 11/11/11 27/27/27 12/12/12
f 12/12/12 28/28/28 10/10/10
f 28/28/28 29/29/29 10/10/10
f 13/13/13 30/30/30 14/14/14
f 16/16/16 31/31/31 17/17/17
f 19/19/19 32/32/32 20/20/20
