# Cube.032 -- imported by tools/import_asset_pack.py from ModularHouse.fbx
o __pending__
v -5.319424 23.758926 -11.672198
v -7.891869 22.866662 -10.172199
v -5.804404 24.413440 -11.672198
v -5.319424 23.758926 -11.672198
v -4.875999 24.881576 -10.172199
v -4.391019 24.227062 -10.172199
v -4.875999 24.881576 -7.172201
v -4.875999 24.881576 -10.172199
v -7.891869 22.866662 -7.172201
v -7.406885 22.212148 -7.172197
v -7.891869 22.866662 -10.172199
v -7.406885 22.212148 -10.172199
v -7.406885 22.212148 -10.172199
v -4.391019 24.227062 -7.172201
v -7.406885 22.212148 -7.172197
v -5.319424 23.758930 -5.672198
v -7.891869 22.866662 -7.172201
v -7.406885 22.212148 -7.172197
v -5.319424 23.758930 -5.672198
v -4.875999 24.881576 -7.172201
v -5.804408 24.413440 -5.672198
v -4.391019 24.227062 -7.172201
v -7.406885 22.212148 -10.172199
v -5.804404 24.413440 -11.672198
v -5.804404 24.413440 -11.672198
v -7.891869 22.866662 -10.172199
v -5.804408 24.413440 -5.672198
v -7.891869 22.866662 -7.172201
v -5.319424 23.758926 -11.672198
v -4.391019 24.227062 -10.172199
v -5.319424 23.758930 -5.672198
v -5.804408 24.413440 -5.672198
vt 0.991760 0.865987
vt 0.981500 0.829787
vt 0.981500 0.866863
vt 0.050214 0.085933
vt 0.044317 0.105491
vt 0.054780 0.105491
vt 0.843274 0.611397
vt 0.843274 0.650513
vt 0.889875 0.611397
vt 0.938280 0.716554
vt 0.927819 0.755670
vt 0.938280 0.755670
vt 0.244113 0.294917
vt 0.197505 0.334034
vt 0.244113 0.334034
vt 0.527679 0.070733
vt 0.537939 0.034533
vt 0.527679 0.033657
vt 0.050214 0.164166
vt 0.044317 0.144607
vt 0.039750 0.164166
vt 0.054780 0.144607
vt 0.991760 0.828911
vt 0.039750 0.085933
vt 0.856253 0.670072
vt 0.889875 0.650513
vt 0.856253 0.591838
vt 0.927819 0.716554
vt 0.210487 0.275359
vt 0.197505 0.294917
vt 0.210487 0.353592
vt 0.537939 0.071609
vn 0.464889 -0.339174 -0.817826
vn -0.913750 0.101323 -0.393440
vn -0.210886 0.605657 -0.767273
vn 0.464889 -0.339174 -0.817826
vn 0.235412 0.948735 -0.210909
vn 0.963244 -0.118760 -0.240952
vn 0.235414 0.948734 0.210914
vn 0.235412 0.948735 -0.210909
vn -0.913754 0.101325 0.393429
vn -0.207221 -0.893234 0.398988
vn -0.913750 0.101323 -0.393440
vn -0.207219 -0.893240 -0.398978
vn -0.207219 -0.893240 -0.398978
vn 0.963245 -0.118762 0.240946
vn -0.207221 -0.893234 0.398988
vn 0.464890 -0.339173 0.817826
vn -0.913754 0.101325 0.393429
vn -0.207221 -0.893234 0.398988
vn 0.464890 -0.339173 0.817826
vn 0.235414 0.948734 0.210914
vn -0.210885 0.605657 0.767273
vn 0.963245 -0.118762 0.240946
vn -0.207219 -0.893240 -0.398978
vn -0.210886 0.605657 -0.767273
vn -0.210886 0.605657 -0.767273
vn -0.913750 0.101323 -0.393440
vn -0.210885 0.605657 0.767273
vn -0.913754 0.101325 0.393429
vn 0.464889 -0.339174 -0.817826
vn 0.963244 -0.118760 -0.240952
vn 0.464890 -0.339173 0.817826
vn -0.210885 0.605657 0.767273
f 1/1/1 2/2/2 3/3/3
f 4/4/4 5/5/5 6/6/6
f 7/7/7 8/8/8 9/9/9
f 10/10/10 11/11/11 12/12/12
f 13/13/13 14/14/14 15/15/15
f 16/16/16 17/17/17 18/18/18
f 19/19/19 20/20/20 21/21/21
f 6/6/6 20/20/20 22/22/22
f 1/1/1 23/23/23 2/2/2
f 4/4/4 24/24/24 5/5/5
f 25/25/25 26/26/26 8/8/8
f 26/26/26 9/9/9 8/8/8
f 9/9/9 27/27/27 7/7/7
f 10/10/10 28/28/28 11/11/11
f 13/13/13 29/29/29 30/30/30
f 30/30/30 14/14/14 13/13/13
f 14/14/14 31/31/31 15/15/15
f 16/16/16 32/32/32 17/17/17
f 19/19/19 22/22/22 20/20/20
f 6/6/6 5/5/5 20/20/20
