# Cube.040 -- imported by tools/import_asset_pack.py from ModularHouse.fbx
o __pending__
v -4.860554 0.065212 58.628427
v -10.860551 -3.209406 58.628427
v -4.860554 -3.209406 58.628427
v -10.860551 0.065212 58.628427
v -10.860551 -3.209406 55.353809
v -10.860551 -3.209406 58.628427
v -4.860554 -3.209406 55.353809
v -10.860551 -3.209406 58.628427
v -10.860551 -3.209406 55.353809
v -4.860554 0.065195 55.353809
v -4.860554 -3.209406 58.628427
v -4.860554 -3.209406 55.353809
v -10.860551 0.065195 55.353809
v -4.860554 -3.209406 55.353809
v -10.860551 -3.209406 55.353809
v -10.860551 0.065195 55.353809
v -4.860554 0.065212 58.628427
v -4.860554 0.065195 55.353809
v -10.860551 0.065212 58.628427
v -10.860551 0.065195 55.353809
v -4.860554 -3.209406 58.628427
v -4.860554 0.065212 58.628427
v -4.860554 0.065195 55.353809
v -10.860551 0.065212 58.628427
vt 0.208989 0.363482
vt 0.259726 0.456445
vt 0.259726 0.363482
vt 0.319562 0.405708
vt 0.370285 0.456445
vt 0.370285 0.405708
vt 0.149152 0.363481
vt 0.098416 0.456445
vt 0.149152 0.456445
vt 0.374835 0.405708
vt 0.425540 0.456445
vt 0.425540 0.405708
vt 0.153702 0.363482
vt 0.204439 0.456445
vt 0.204439 0.363482
vt 0.315012 0.363482
vt 0.264276 0.456445
vt 0.315012 0.456445
vt 0.208989 0.456445
vt 0.319562 0.456445
vt 0.098416 0.363481
vt 0.374835 0.456445
vt 0.153702 0.456445
vt 0.264276 0.363482
vn 0.577358 0.577347 0.577346
vn -0.577358 -0.577346 0.577347
vn 0.577372 -0.577339 0.577339
vn -0.577372 0.577339 0.577339
vn -0.577372 -0.577339 -0.577339
vn -0.577358 -0.577346 0.577347
vn 0.577358 -0.577347 -0.577346
vn -0.577358 -0.577346 0.577347
vn -0.577372 -0.577339 -0.577339
vn 0.577372 0.577339 -0.577339
vn 0.577372 -0.577339 0.577339
vn 0.577358 -0.577347 -0.577346
vn -0.577358 0.577346 -0.577347
vn 0.577358 -0.577347 -0.577346
vn -0.577372 -0.577339 -0.577339
vn -0.577358 0.577346 -0.577347
vn 0.577358 0.577347 0.577346
vn 0.577372 0.577339 -0.577339
vn -0.577372 0.577339 0.577339
vn -0.577358 0.577346 -0.577347
vn 0.577372 -0.577339 0.577339
vn 0.577358 0.577347 0.577346
vn 0.577372 0.577339 -0.577339
vn -0.577372 0.577339 0.577339
f 1/1/1 2/2/2 3/3/3
f 4/4/4 5/5/5 6/6/6
f 7/7/7 8/8/8 9/9/9
f 10/10/10 11/11/11 12/12/12
f 13/13/13 14/14/14 15/15/15
f 16/16/16 17/17/17 18/18/18
f 1/1/1 19/19/19 2/2/2
f 4/4/4 20/20/20 5/5/5
f 7/7/7 21/21/21 8/8/8
f 10/10/10 22/22/22 11/11/11
f 13/13/13 23/23/23 14/14/14
f 16/16/16 24/24/24 17/17/17
