# Cube.012 -- imported by tools/import_asset_pack.py from ModularHouse.fbx
o __pending__
v 5.662584 24.474296 -3.559382
v 7.265061 22.273007 -2.059383
v 5.177600 23.819786 -3.559382
v 4.734175 24.942431 0.940615
v 5.662584 24.474296 2.440618
v 7.750045 22.927521 0.940619
v 4.734175 24.942431 -2.059383
v 5.177600 23.819786 -3.559382
v 4.249196 24.287921 -2.059383
v 4.249196 24.287921 0.940615
v 4.249196 24.287921 -2.059383
v 7.265061 22.273007 -2.059383
v 4.734175 24.942431 0.940615
v 4.249196 24.287921 0.940615
v 5.177600 23.819786 2.440618
v 7.265061 22.273007 0.940619
v 5.662584 24.474296 2.440618
v 5.177600 23.819786 2.440618
v 7.750045 22.927521 -2.059383
v 7.265061 22.273007 0.940619
v 7.265061 22.273007 -2.059383
v 7.750045 22.927521 -2.059383
v 7.750045 22.927521 -2.059383
v 4.734175 24.942431 -2.059383
v 5.662584 24.474296 -3.559382
v 5.662584 24.474296 -3.559382
v 5.177600 23.819786 -3.559382
v 7.265061 22.273007 0.940619
v 5.177600 23.819786 2.440618
v 5.662584 24.474296 2.440618
v 7.750045 22.927521 0.940619
v 7.750045 22.927521 0.940619
vt 0.957768 0.450462
vt 0.947508 0.412509
vt 0.947508 0.449586
vt 0.762894 0.336190
vt 0.775873 0.355749
vt 0.809495 0.336190
vt 0.893623 0.241477
vt 0.899520 0.261035
vt 0.904086 0.241477
vt 0.636725 0.391787
vt 0.636725 0.430903
vt 0.683333 0.430904
vt 0.893623 0.202361
vt 0.904086 0.202361
vt 0.899520 0.182802
vt 0.965020 0.774478
vt 0.954760 0.812431
vt 0.965020 0.811555
vt 0.418280 0.075609
vt 0.428742 0.114725
vt 0.428742 0.075609
vt 0.957768 0.413385
vt 0.809495 0.297074
vt 0.762894 0.297074
vt 0.775873 0.277516
vt 0.889056 0.261035
vt 0.649707 0.450462
vt 0.683333 0.391787
vt 0.649707 0.372229
vt 0.889056 0.182802
vt 0.954760 0.775354
vt 0.418280 0.114725
vn 0.210877 0.605673 -0.767262
vn 0.207216 -0.893246 -0.398966
vn -0.464875 -0.339175 -0.817834
vn -0.235413 0.948734 0.210914
vn 0.210878 0.605673 0.767262
vn 0.913750 0.101318 0.393441
vn -0.235413 0.948735 -0.210909
vn -0.464875 -0.339175 -0.817834
vn -0.963244 -0.118761 -0.240952
vn -0.963245 -0.118762 0.240946
vn -0.963244 -0.118761 -0.240952
vn 0.207216 -0.893246 -0.398966
vn -0.235413 0.948734 0.210914
vn -0.963245 -0.118762 0.240946
vn -0.464875 -0.339174 0.817834
vn 0.207216 -0.893241 0.398977
vn 0.210878 0.605673 0.767262
vn -0.464875 -0.339174 0.817834
vn 0.913746 0.101316 -0.393452
vn 0.207216 -0.893241 0.398977
vn 0.207216 -0.893246 -0.398966
vn 0.913746 0.101316 -0.393452
vn 0.913746 0.101316 -0.393452
vn -0.235413 0.948735 -0.210909
vn 0.210877 0.605673 -0.767262
vn 0.210877 0.605673 -0.767262
vn -0.464875 -0.339175 -0.817834
vn 0.207216 -0.893241 0.398977
vn -0.464875 -0.339174 0.817834
vn 0.210878 0.605673 0.767262
vn 0.913750 0.101318 0.393441
vn 0.913750 0.101318 0.393441
f 1/1/1 2/2/2 3/3/3
f 4/4/4 5/5/5 6/6/6
f 7/7/7 8/8/8 9/9/9
f 10/10/10 11/11/11 12/12/12
f 13/13/13 9/9/9 14/14/14
f 15/15/15 13/13/13 14/14/14
f 16/16/16 17/17/17 18/18/18
f 19/19/19 20/20/20 21/21/21
f 1/1/1 22/22/22 2/2/2
f 6/6/6 23/23/23 24/24/24
f 23/23/23 25/25/25 24/24/24
f 24/24/24 4/4/4 6/6/6
f 7/7/7 26/26/26 8/8/8
f 11/11/11 27/27/27 12/12/12
f 12/12/12 28/28/28 10/10/10
f 28/28/28 29/29/29 10/10/10
f 13/13/13 7/7/7 9/9/9
f 15/15/15 30/30/30 13/13/13
f 16/16/16 31/31/31 17/17/17
f 19/19/19 32/32/32 20/20/20
