# Cube.014 -- imported by tools/import_asset_pack.py from ModularHouse.fbx
o __pending__
v 4.875999 24.881576 -7.172201
v 5.804408 24.413440 -5.672198
v 7.891869 22.866662 -7.172201
v 4.875999 24.881576 -10.172199
v 5.319424 23.758926 -11.672198
v 4.391019 24.227062 -10.172199
v 5.319424 23.758926 -11.672198
v 7.891869 22.866662 -10.172199
v 7.406885 22.212148 -10.172199
v 7.891869 22.866662 -10.172199
v 7.406885 22.212148 -7.172197
v 7.406885 22.212148 -10.172199
v 7.891869 22.866662 -7.172201
v 5.319424 23.758930 -5.672198
v 7.406885 22.212148 -7.172197
v 5.319424 23.758930 -5.672198
v 4.875999 24.881576 -7.172201
v 4.391019 24.227062 -7.172201
v 4.391019 24.227062 -7.172201
v 4.391019 24.227062 -10.172199
v 7.406885 22.212148 -10.172199
v 7.891869 22.866662 -10.172199
v 4.875999 24.881576 -10.172199
v 5.804404 24.413440 -11.672198
v 5.804404 24.413440 -11.672198
v 5.804404 24.413440 -11.672198
v 7.891869 22.866662 -7.172201
v 5.804408 24.413440 -5.672198
v 5.804408 24.413440 -5.672198
v 5.319424 23.758926 -11.672198
v 7.406885 22.212148 -7.172197
v 5.319424 23.758930 -5.672198
vt 0.762894 0.241477
vt 0.775873 0.261035
vt 0.809495 0.241477
vt 0.483537 0.146764
vt 0.489433 0.166322
vt 0.494000 0.146764
vt 0.960037 0.504733
vt 0.970297 0.468533
vt 0.960037 0.467657
vt 0.927819 0.827747
vt 0.938280 0.866863
vt 0.938280 0.827747
vt 0.447460 0.034533
vt 0.457719 0.070733
vt 0.457719 0.033657
vt 0.489433 0.088089
vt 0.483537 0.107648
vt 0.494000 0.107648
vt 0.687124 0.838372
vt 0.687124 0.877488
vt 0.733732 0.877488
vt 0.809495 0.202361
vt 0.762894 0.202361
vt 0.775873 0.182802
vt 0.478970 0.166322
vt 0.970297 0.505610
vt 0.927819 0.866863
vt 0.447460 0.071609
vt 0.478970 0.088089
vt 0.700107 0.897047
vt 0.733732 0.838372
vt 0.700107 0.818814
vn -0.235414 0.948734 0.210914
vn 0.210886 0.605657 0.767273
vn 0.913754 0.101325 0.393429
vn -0.235412 0.948735 -0.210909
vn -0.464890 -0.339173 -0.817826
vn -0.963244 -0.118760 -0.240952
vn -0.464890 -0.339173 -0.817826
vn 0.913750 0.101323 -0.393440
vn 0.207219 -0.893240 -0.398978
vn 0.913750 0.101323 -0.393440
vn 0.207221 -0.893235 0.398988
vn 0.207219 -0.893240 -0.398978
vn 0.913754 0.101325 0.393429
vn -0.464890 -0.339173 0.817826
vn 0.207221 -0.893235 0.398988
vn -0.464890 -0.339173 0.817826
vn -0.235414 0.948734 0.210914
vn -0.963245 -0.118762 0.240946
vn -0.963245 -0.118762 0.240946
vn -0.963244 -0.118760 -0.240952
vn 0.207219 -0.893240 -0.398978
vn 0.913750 0.101323 -0.393440
vn -0.235412 0.948735 -0.210909
vn 0.210886 0.605657 -0.767272
vn 0.210886 0.605657 -0.767272
vn 0.210886 0.605657 -0.767272
vn 0.913754 0.101325 0.393429
vn 0.210886 0.605657 0.767273
vn 0.210886 0.605657 0.767273
vn -0.464890 -0.339173 -0.817826
vn 0.207221 -0.893235 0.398988
vn -0.464890 -0.339173 0.817826
f 1/1/1 2/2/2 3/3/3
f 4/4/4 5/5/5 6/6/6
f 7/7/7 8/8/8 9/9/9
f 10/10/10 11/11/11 12/12/12
f 13/13/13 14/14/14 15/15/15
f 16/16/16 17/17/17 18/18/18
f 17/17/17 6/6/6 18/18/18
f 19/19/19 20/20/20 21/21/21
f 3/3/3 22/22/22 23/23/23
f 22/22/22 24/24/24 23/23/23
f 23/23/23 1/1/1 3/3/3
f 4/4/4 25/25/25 5/5/5
f 7/7/7 26/26/26 8/8/8
f 10/10/10 27/27/27 11/11/11
f 13/13/13 28/28/28 14/14/14
f 16/16/16 29/29/29 17/17/17
f 17/17/17 4/4/4 6/6/6
f 20/20/20 30/30/30 21/21/21
f 21/21/21 31/31/31 19/19/19
f 31/31/31 32/32/32 19/19/19
