# Cube.029 -- imported by tools/import_asset_pack.py from ModularHouse.fbx
o __pending__
v -7.321291 23.174940 -2.906402
v -7.321291 23.174940 -5.906404
v -10.337160 21.160026 -2.906402
v -7.764716 22.052291 -7.406403
v -7.321291 23.174940 -5.906404
v -6.836307 22.520426 -5.906404
v -7.321291 23.174940 -2.906402
v -6.836307 22.520426 -2.906402
v -7.764716 22.052291 -1.406403
v -8.249699 22.706800 -1.406403
v -7.764716 22.052291 -1.406403
v -10.337160 21.160026 -2.906402
v -9.852177 20.505512 -2.906402
v -9.852177 20.505512 -2.906402
v -10.337160 21.160026 -5.906400
v -9.852177 20.505512 -5.906400
v -7.764716 22.052291 -7.406403
v -10.337160 21.160026 -5.906400
v -8.249695 22.706800 -7.406403
v -9.852177 20.505512 -5.906400
v -6.836307 22.520426 -2.906402
v -9.852177 20.505512 -2.906402
v -8.249695 22.706800 -7.406403
v -10.337160 21.160026 -5.906400
v -8.249699 22.706800 -1.406403
v -8.249695 22.706800 -7.406403
v -8.249699 22.706800 -1.406403
v -10.337160 21.160026 -2.906402
v -9.852177 20.505512 -5.906400
v -7.764716 22.052291 -7.406403
v -6.836307 22.520426 -5.906404
v -7.764716 22.052291 -1.406403
vt 0.813294 0.933085
vt 0.813294 0.972202
vt 0.859895 0.933085
vt 0.862052 0.166322
vt 0.867949 0.146764
vt 0.857485 0.146764
vt 0.867949 0.107647
vt 0.857485 0.107647
vt 0.862052 0.088089
vt 0.872515 0.088089
vt 0.418280 0.058252
vt 0.428540 0.022052
vt 0.418280 0.021176
vt 0.931028 0.355749
vt 0.920567 0.394865
vt 0.931028 0.394865
vt 0.018500 0.068577
vt 0.008240 0.032376
vt 0.008240 0.069453
vt 0.700632 0.516684
vt 0.654024 0.555800
vt 0.700632 0.555800
vt 0.826272 0.991760
vt 0.859895 0.972202
vt 0.826273 0.913527
vt 0.872515 0.166322
vt 0.428540 0.059129
vt 0.920567 0.355749
vt 0.018500 0.031500
vt 0.667006 0.497125
vt 0.654024 0.516684
vt 0.667006 0.575358
vn 0.235413 0.948734 0.210914
vn 0.235413 0.948735 -0.210909
vn -0.913754 0.101325 0.393429
vn 0.464890 -0.339174 -0.817825
vn 0.235413 0.948735 -0.210909
vn 0.963244 -0.118761 -0.240952
vn 0.235413 0.948734 0.210914
vn 0.963245 -0.118762 0.240946
vn 0.464890 -0.339173 0.817826
vn -0.210886 0.605656 0.767273
vn 0.464890 -0.339173 0.817826
vn -0.913754 0.101325 0.393429
vn -0.207221 -0.893234 0.398988
vn -0.207221 -0.893234 0.398988
vn -0.913750 0.101323 -0.393440
vn -0.207220 -0.893239 -0.398978
vn 0.464890 -0.339174 -0.817825
vn -0.913750 0.101323 -0.393440
vn -0.210885 0.605656 -0.767273
vn -0.207220 -0.893239 -0.398978
vn 0.963245 -0.118762 0.240946
vn -0.207221 -0.893234 0.398988
vn -0.210885 0.605656 -0.767273
vn -0.913750 0.101323 -0.393440
vn -0.210886 0.605656 0.767273
vn -0.210885 0.605656 -0.767273
vn -0.210886 0.605656 0.767273
vn -0.913754 0.101325 0.393429
vn -0.207220 -0.893239 -0.398978
vn 0.464890 -0.339174 -0.817825
vn 0.963244 -0.118761 -0.240952
vn 0.464890 -0.339173 0.817826
f 1/1/1 2/2/2 3/3/3
f 4/4/4 5/5/5 6/6/6
f 6/6/6 7/7/7 8/8/8
f 9/9/9 7/7/7 10/10/10
f 11/11/11 12/12/12 13/13/13
f 14/14/14 15/15/15 16/16/16
f 17/17/17 18/18/18 19/19/19
f 20/20/20 21/21/21 22/22/22
f 23/23/23 24/24/24 2/2/2
f 24/24/24 3/3/3 2/2/2
f 3/3/3 25/25/25 1/1/1
f 4/4/4 26/26/26 5/5/5
f 6/6/6 5/5/5 7/7/7
f 9/9/9 8/8/8 7/7/7
f 11/11/11 27/27/27 12/12/12
f 14/14/14 28/28/28 15/15/15
f 17/17/17 29/29/29 18/18/18
f 20/20/20 30/30/30 31/31/31
f 31/31/31 21/21/21 20/20/20
f 21/21/21 32/32/32 22/22/22
