# Cube.005 -- imported by tools/import_asset_pack.py from ModularHouse.fbx
o __pending__
v 9.944173 20.864852 -11.497499
v 9.459189 20.210338 -14.497501
v 9.459189 20.210338 -11.497499
v 9.944173 20.864852 -14.497501
v 10.387594 19.742203 -15.997500
v 9.944173 20.864852 -11.497499
v 10.872578 20.396713 -9.997500
v 12.960039 18.849938 -11.497499
v 10.387594 19.742203 -9.997500
v 9.459189 20.210338 -11.497499
v 9.459189 20.210338 -14.497501
v 12.475059 18.195424 -14.497501
v 12.960039 18.849938 -11.497499
v 10.387594 19.742203 -9.997500
v 12.475059 18.195424 -11.497499
v 12.960039 18.849938 -14.497501
v 12.475059 18.195424 -11.497499
v 12.475059 18.195424 -14.497501
v 10.387594 19.742203 -15.997500
v 12.960039 18.849938 -14.497501
v 12.475059 18.195424 -14.497501
v 10.872578 20.396713 -15.997500
v 12.960039 18.849938 -14.497501
v 9.944173 20.864852 -14.497501
v 10.872578 20.396713 -15.997500
v 10.872578 20.396713 -9.997500
v 10.387594 19.742203 -15.997500
v 12.475059 18.195424 -11.497499
v 10.387594 19.742203 -9.997500
v 10.872578 20.396713 -9.997500
v 12.960039 18.849938 -11.497499
v 10.872578 20.396713 -15.997500
vt 0.391337 0.389630
vt 0.401800 0.428747
vt 0.401800 0.389630
vt 0.391337 0.428747
vt 0.397233 0.448305
vt 0.260593 0.239321
vt 0.273572 0.258879
vt 0.307194 0.239321
vt 0.397233 0.370072
vt 0.624036 0.933085
vt 0.624036 0.972202
vt 0.670644 0.972202
vt 0.947508 0.190999
vt 0.957768 0.227199
vt 0.957768 0.190123
vt 0.418280 0.353592
vt 0.428742 0.392708
vt 0.428742 0.353592
vt 0.960037 0.613599
vt 0.970297 0.577398
vt 0.960037 0.576522
vt 0.386770 0.448305
vt 0.307194 0.200204
vt 0.260593 0.200204
vt 0.273572 0.180646
vt 0.386770 0.370072
vt 0.637018 0.991760
vt 0.670644 0.933085
vt 0.637018 0.913527
vt 0.947508 0.228075
vt 0.418280 0.392708
vt 0.970297 0.614475
vn -0.235413 0.948734 0.210914
vn -0.963243 -0.118760 -0.240952
vn -0.963245 -0.118762 0.240946
vn -0.235412 0.948735 -0.210909
vn -0.464891 -0.339173 -0.817825
vn -0.235413 0.948734 0.210914
vn 0.210885 0.605657 0.767272
vn 0.913754 0.101326 0.393430
vn -0.464890 -0.339173 0.817825
vn -0.963245 -0.118762 0.240946
vn -0.963243 -0.118760 -0.240952
vn 0.207220 -0.893239 -0.398977
vn 0.913754 0.101326 0.393430
vn -0.464890 -0.339173 0.817825
vn 0.207221 -0.893234 0.398989
vn 0.913750 0.101323 -0.393440
vn 0.207221 -0.893234 0.398989
vn 0.207220 -0.893239 -0.398977
vn -0.464891 -0.339173 -0.817825
vn 0.913750 0.101323 -0.393440
vn 0.207220 -0.893239 -0.398977
vn 0.210884 0.605657 -0.767273
vn 0.913750 0.101323 -0.393440
vn -0.235412 0.948735 -0.210909
vn 0.210884 0.605657 -0.767273
vn 0.210885 0.605657 0.767272
vn -0.464891 -0.339173 -0.817825
vn 0.207221 -0.893234 0.398989
vn -0.464890 -0.339173 0.817825
vn 0.210885 0.605657 0.767272
vn 0.913754 0.101326 0.393430
vn 0.210884 0.605657 -0.767273
f 1/1/1 2/2/2 3/3/3
f 4/4/4 5/5/5 2/2/2
f 6/6/6 7/7/7 8/8/8
f 9/9/9 1/1/1 3/3/3
f 10/10/10 11/11/11 12/12/12
f 13/13/13 14/14/14 15/15/15
f 16/16/16 17/17/17 18/18/18
f 19/19/19 20/20/20 21/21/21
f 1/1/1 4/4/4 2/2/2
f 4/4/4 22/22/22 5/5/5
f 8/8/8 23/23/23 24/24/24
f 23/23/23 25/25/25 24/24/24
f 24/24/24 6/6/6 8/8/8
f 9/9/9 26/26/26 1/1/1
f 11/11/11 27/27/27 12/12/12
f 12/12/12 28/28/28 10/10/10
f 28/28/28 29/29/29 10/10/10
f 13/13/13 30/30/30 14/14/14
f 16/16/16 31/31/31 17/17/17
f 19/19/19 32/32/32 20/20/20
