# Cube.034 -- imported by tools/import_asset_pack.py from ModularHouse.fbx
o __pending__
v -2.360380 26.508948 -3.559382
v -1.916955 27.631597 -2.059383
v -1.431971 26.977083 -2.059383
v -1.916955 27.631597 0.940615
v -1.916955 27.631597 -2.059383
v -4.932825 25.616683 0.940619
v -2.360380 26.508948 -3.559382
v -4.932825 25.616683 -2.059383
v -2.845360 27.163462 -3.559382
v -4.447841 24.962173 -2.059383
v -1.431971 26.977083 0.940615
v -4.447841 24.962173 0.940619
v -4.447841 24.962173 0.940619
v -4.932825 25.616683 -2.059383
v -4.447841 24.962173 -2.059383
v -2.360380 26.508948 2.440618
v -4.932825 25.616683 0.940619
v -4.447841 24.962173 0.940619
v -2.360380 26.508948 2.440618
v -1.916955 27.631597 0.940615
v -2.845364 27.163462 2.440618
v -1.431971 26.977083 0.940615
v -2.845360 27.163462 -3.559382
v -2.845360 27.163462 -3.559382
v -4.932825 25.616683 -2.059383
v -2.845364 27.163462 2.440618
v -4.447841 24.962173 -2.059383
v -2.360380 26.508948 -3.559382
v -1.431971 26.977083 -2.059383
v -2.360380 26.508948 2.440618
v -4.932825 25.616683 0.940619
v -2.845364 27.163462 2.440618
vt 0.081784 0.085933
vt 0.075888 0.105491
vt 0.086351 0.105491
vt 0.825975 0.297074
vt 0.825975 0.336190
vt 0.872576 0.297074
vt 0.152199 0.068577
vt 0.141940 0.032376
vt 0.141940 0.069453
vt 0.307202 0.389630
vt 0.260593 0.428747
vt 0.307202 0.428747
vt 0.916817 0.630955
vt 0.906356 0.670072
vt 0.916817 0.670072
vt 0.947447 0.055417
vt 0.957707 0.019216
vt 0.947447 0.018340
vt 0.081784 0.164166
vt 0.075888 0.144607
vt 0.071321 0.164166
vt 0.086351 0.144607
vt 0.071321 0.085933
vt 0.838954 0.355749
vt 0.872576 0.336190
vt 0.838954 0.277515
vt 0.152199 0.031500
vt 0.273576 0.370072
vt 0.260593 0.389630
vt 0.273576 0.448305
vt 0.906356 0.630955
vt 0.957707 0.056293
vn 0.464892 -0.339174 -0.817824
vn 0.235410 0.948736 -0.210910
vn 0.963243 -0.118759 -0.240954
vn 0.235412 0.948734 0.210915
vn 0.235410 0.948736 -0.210910
vn -0.913754 0.101325 0.393430
vn 0.464892 -0.339174 -0.817824
vn -0.913750 0.101322 -0.393440
vn -0.210883 0.605656 -0.767274
vn -0.207219 -0.893240 -0.398978
vn 0.963244 -0.118761 0.240948
vn -0.207220 -0.893235 0.398988
vn -0.207220 -0.893235 0.398988
vn -0.913750 0.101322 -0.393440
vn -0.207219 -0.893240 -0.398978
vn 0.464892 -0.339173 0.817825
vn -0.913754 0.101325 0.393430
vn -0.207220 -0.893235 0.398988
vn 0.464892 -0.339173 0.817825
vn 0.235412 0.948734 0.210915
vn -0.210884 0.605657 0.767273
vn 0.963244 -0.118761 0.240948
vn -0.210883 0.605656 -0.767274
vn -0.210883 0.605656 -0.767274
vn -0.913750 0.101322 -0.393440
vn -0.210884 0.605657 0.767273
vn -0.207219 -0.893240 -0.398978
vn 0.464892 -0.339174 -0.817824
vn 0.963243 -0.118759 -0.240954
vn 0.464892 -0.339173 0.817825
vn -0.913754 0.101325 0.393430
vn -0.210884 0.605657 0.767273
f 1/1/1 2/2/2 3/3/3
f 4/4/4 5/5/5 6/6/6
f 7/7/7 8/8/8 9/9/9
f 10/10/10 11/11/11 12/12/12
f 13/13/13 14/14/14 15/15/15
f 16/16/16 17/17/17 18/18/18
f 19/19/19 20/20/20 21/21/21
f 3/3/3 20/20/20 22/22/22
f 1/1/1 23/23/23 2/2/2
f 24/24/24 25/25/25 5/5/5
f 25/25/25 6/6/6 5/5/5
f 6/6/6 26/26/26 4/4/4
f 7/7/7 27/27/27 8/8/8
f 10/10/10 28/28/28 29/29/29
f 29/29/29 11/11/11 10/10/10
f 11/11/11 30/30/30 12/12/12
f 13/13/13 31/31/31 14/14/14
f 16/16/16 32/32/32 17/17/17
f 19/19/19 22/22/22 20/20/20
f 3/3/3 2/2/2 20/20/20
