# Cube.020 -- imported by tools/import_asset_pack.py from ModularHouse.fbx
o __pending__
v 0.000000 -3.067752 9.840905
v -2.100984 2.461725 9.840902
v -1.708881 -3.067752 9.840905
v 0.000000 2.932248 9.840902
v 0.000000 -3.067752 8.817032
v 0.000000 -3.067752 9.840905
v 2.100984 2.461725 9.840902
v 1.708881 -3.067752 9.840905
v 0.000000 -3.067752 9.840905
v -1.708881 -3.067752 8.817032
v 0.000000 -3.067752 8.817032
v 1.708881 -3.067752 8.817032
v -1.708881 -3.067752 9.840905
v -2.100984 2.461725 8.817029
v -1.708881 -3.067752 8.817032
v -2.100984 2.461725 9.840902
v 0.000000 2.932248 8.817029
v -2.100984 2.461725 8.817029
v 0.000000 -3.067752 8.817032
v -2.100984 2.461725 8.817029
v 0.000000 2.932248 8.817029
v 0.000000 2.932248 8.817029
v 2.100984 2.461725 9.840902
v 2.100984 2.461725 8.817029
v 2.100984 2.461725 8.817029
v 1.708881 -3.067752 8.817032
v 2.100984 2.461725 8.817029
v 1.708881 -3.067752 9.840905
v 1.708881 -3.067752 8.817032
v 0.000000 2.932248 9.840902
v 0.000000 2.932248 8.817029
v 0.000000 2.932248 9.840902
v -1.708881 -3.067752 9.840905
v 1.708881 -3.067752 9.840905
v -2.100984 2.461725 9.840902
v 0.000000 2.932248 9.840902
v -1.708881 -3.067752 8.817032
v 0.000000 2.932248 9.840902
v 0.000000 2.932248 8.817029
v 2.100984 2.461725 9.840902
vt 0.570656 0.460995
vt 0.758599 0.955634
vt 0.723524 0.460995
vt 0.763149 0.997725
vt 0.854740 0.461144
vt 0.763149 0.461144
vt 0.382712 0.955634
vt 0.417788 0.460995
vt 0.002275 0.303577
vt 0.093866 0.456445
vt 0.093866 0.303577
vt 0.093866 0.150709
vt 0.859290 0.002275
vt 0.950881 0.497604
vt 0.950881 0.002275
vt 0.763149 0.080707
vt 0.854740 0.268651
vt 0.854740 0.080707
vt 0.190219 0.460995
vt 0.002275 0.955634
vt 0.190219 0.997725
vt 0.854740 0.268651
vt 0.763149 0.456594
vt 0.854740 0.456594
vt 0.378162 0.955634
vt 0.343086 0.460995
vt 0.859290 0.997725
vt 0.950881 0.502154
vt 0.859290 0.502154
vt 0.570656 0.997725
vt 0.854740 0.997725
vt 0.570656 0.997725
vt 0.002275 0.456445
vt 0.002275 0.150709
vt 0.859290 0.497604
vt 0.763149 0.268651
vt 0.037351 0.460995
vt 0.763149 0.268651
vt 0.190219 0.997725
vt 0.950881 0.997725
vn -0.334658 -0.666344 0.666326
vn -0.650247 0.483962 0.585627
vn -0.554708 -0.595445 0.581158
vn -0.358921 0.700361 0.616985
vn -0.333422 -0.666693 -0.666596
vn -0.333422 -0.666596 0.666693
vn 0.650247 0.483962 0.585627
vn 0.554708 -0.595445 0.581158
vn -0.334658 -0.666344 0.666326
vn -0.554715 -0.595441 -0.581155
vn -0.340803 -0.664800 -0.664751
vn 0.554715 -0.595441 -0.581155
vn -0.554708 -0.595445 0.581158
vn -0.650238 0.483979 -0.585624
vn -0.554715 -0.595441 -0.581155
vn -0.650247 0.483962 0.585627
vn -0.353577 0.701854 -0.618373
vn -0.650238 0.483979 -0.585624
vn -0.340803 -0.664800 -0.664751
vn -0.650238 0.483979 -0.585624
vn -0.353577 0.701854 -0.618373
vn -0.345050 0.704256 -0.620456
vn 0.650247 0.483962 0.585627
vn 0.650238 0.483979 -0.585624
vn 0.650238 0.483979 -0.585624
vn 0.554715 -0.595441 -0.581155
vn 0.650238 0.483979 -0.585624
vn 0.554708 -0.595445 0.581158
vn 0.554715 -0.595441 -0.581155
vn -0.358757 0.700379 0.617059
vn -0.358921 0.700272 -0.617086
vn -0.358850 0.700358 0.617029
vn -0.554708 -0.595445 0.581158
vn 0.554708 -0.595445 0.581158
vn -0.650247 0.483962 0.585627
vn -0.358757 0.700379 0.617059
vn -0.554715 -0.595441 -0.581155
vn -0.358850 0.700358 0.617029
vn -0.345050 0.704256 -0.620456
vn 0.650247 0.483962 0.585627
f 1/1/1 2/2/2 3/3/3
f 4/4/4 5/5/5 6/6/6
f 7/7/7 1/1/1 8/8/8
f 9/9/9 10/10/10 11/11/11
f 12/12/12 9/9/9 11/11/11
f 13/13/13 14/14/14 15/15/15
f 16/16/16 17/17/17 18/18/18
f 19/19/19 20/20/20 21/21/21
f 22/22/22 23/23/23 24/24/24
f 19/19/19 25/25/25 26/26/26
f 27/27/27 28/28/28 29/29/29
f 1/1/1 30/30/30 2/2/2
f 4/4/4 31/31/31 5/5/5
f 7/7/7 32/32/32 1/1/1
f 9/9/9 33/33/33 10/10/10
f 12/12/12 34/34/34 9/9/9
f 13/13/13 35/35/35 14/14/14
f 16/16/16 36/36/36 17/17/17
f 19/19/19 37/37/37 20/20/20
f 22/22/22 38/38/38 23/23/23
f 19/19/19 39/39/39 25/25/25
f 27/27/27 40/40/40 28/28/28
