# Cube.025 -- imported by tools/import_asset_pack.py from ModularHouse.fbx
o __pending__
v -9.944172 20.758140 -3.814167
v -9.944172 20.758136 -6.814169
v -12.960038 18.743226 -3.814167
v -10.387594 19.635486 -8.314168
v -9.944172 20.758136 -6.814169
v -9.459189 20.103626 -6.814169
v -9.944172 20.758140 -3.814167
v -9.459189 20.103626 -3.814167
v -10.387594 19.635490 -2.314168
v -10.872577 20.290000 -2.314168
v -10.387594 19.635490 -2.314168
v -12.960038 18.743226 -3.814167
v -12.475059 18.088712 -3.814167
v -12.475059 18.088712 -3.814167
v -12.960038 18.743226 -6.814169
v -12.475059 18.088712 -6.814169
v -12.475059 18.088712 -6.814169
v -10.872577 20.290000 -8.314168
v -10.387594 19.635486 -8.314168
v -12.475059 18.088712 -6.814169
v -9.459189 20.103626 -3.814167
v -12.475059 18.088712 -3.814167
v -10.872577 20.290000 -8.314168
v -12.960038 18.743226 -6.814169
v -10.872577 20.290000 -2.314168
v -10.872577 20.290000 -8.314168
v -10.872577 20.290000 -2.314168
v -12.960038 18.743226 -3.814167
v -12.960038 18.743226 -6.814169
v -10.387594 19.635486 -8.314168
v -9.459189 20.103626 -6.814169
v -10.387594 19.635490 -2.314168
vt 0.717112 0.611397
vt 0.717112 0.650513
vt 0.763713 0.611397
vt 0.741786 0.088089
vt 0.735890 0.107647
vt 0.746353 0.107647
vt 0.735890 0.146764
vt 0.746353 0.146764
vt 0.741786 0.166322
vt 0.731323 0.166322
vt 0.699813 0.070733
vt 0.710073 0.034533
vt 0.699813 0.033656
vt 0.938280 0.772150
vt 0.927819 0.811267
vt 0.938280 0.811267
vt 0.870512 0.033656
vt 0.860253 0.071609
vt 0.870512 0.070733
vt 0.700632 0.611397
vt 0.654024 0.650513
vt 0.700632 0.650513
vt 0.730091 0.670072
vt 0.763713 0.650513
vt 0.730091 0.591838
vt 0.731323 0.088089
vt 0.710073 0.071609
vt 0.927819 0.772150
vt 0.860253 0.034533
vt 0.667006 0.591838
vt 0.654024 0.611397
vt 0.667006 0.670072
vn 0.235414 0.948734 0.210914
vn 0.235411 0.948735 -0.210909
vn -0.913754 0.101326 0.393430
vn 0.464875 -0.339175 -0.817833
vn 0.235411 0.948735 -0.210909
vn 0.963243 -0.118760 -0.240952
vn 0.235414 0.948734 0.210914
vn 0.963245 -0.118763 0.240946
vn 0.464891 -0.339173 0.817825
vn -0.210885 0.605657 0.767272
vn 0.464891 -0.339173 0.817825
vn -0.913754 0.101326 0.393430
vn -0.207220 -0.893234 0.398988
vn -0.207220 -0.893234 0.398988
vn -0.913746 0.101316 -0.393452
vn -0.207216 -0.893246 -0.398966
vn -0.207216 -0.893246 -0.398966
vn -0.210877 0.605673 -0.767262
vn 0.464875 -0.339175 -0.817833
vn -0.207216 -0.893246 -0.398966
vn 0.963245 -0.118763 0.240946
vn -0.207220 -0.893234 0.398988
vn -0.210877 0.605673 -0.767262
vn -0.913746 0.101316 -0.393452
vn -0.210885 0.605657 0.767272
vn -0.210877 0.605673 -0.767262
vn -0.210885 0.605657 0.767272
vn -0.913754 0.101326 0.393430
vn -0.913746 0.101316 -0.393452
vn 0.464875 -0.339175 -0.817833
vn 0.963243 -0.118760 -0.240952
vn 0.464891 -0.339173 0.817825
f 1/1/1 2/2/2 3/3/3
f 4/4/4 5/5/5 6/6/6
f 6/6/6 7/7/7 8/8/8
f 9/9/9 7/7/7 10/10/10
f 11/11/11 12/12/12 13/13/13
f 14/14/14 15/15/15 16/16/16
f 17/17/17 18/18/18 19/19/19
f 20/20/20 21/21/21 22/22/22
f 23/23/23 24/24/24 2/2/2
f 24/24/24 3/3/3 2/2/2
f 3/3/3 25/25/25 1/1/1
f 4/4/4 26/26/26 5/5/5
f 6/6/6 5/5/5 7/7/7
f 9/9/9 8/8/8 7/7/7
f 11/11/11 27/27/27 12/12/12
f 14/14/14 28/28/28 15/15/15
f 17/17/17 29/29/29 18/18/18
f 20/20/20 30/30/30 31/31/31
f 31/31/31 21/21/21 20/20/20
f 21/21/21 32/32/32 22/22/22
