# Cube.019 -- imported by tools/import_asset_pack.py from ModularHouse.fbx
o __pending__
v 2.058778 27.997596 -3.010395
v 1.573795 27.343078 -6.010393
v 1.573795 27.343082 -3.010395
v 2.058778 27.997592 -6.010393
v 2.502204 26.874942 -7.510396
v 2.058778 27.997596 -3.010395
v 2.987183 27.529456 -1.510397
v 5.074648 25.982682 -3.010395
v 2.502204 26.874946 -1.510397
v 1.573795 27.343082 -3.010395
v 1.573795 27.343078 -6.010393
v 4.589665 25.328168 -6.010393
v 5.074648 25.982682 -3.010395
v 2.502204 26.874946 -1.510397
v 4.589665 25.328168 -3.010395
v 5.074648 25.982678 -6.010393
v 4.589665 25.328168 -3.010395
v 4.589665 25.328168 -6.010393
v 2.502204 26.874942 -7.510396
v 5.074648 25.982678 -6.010393
v 4.589665 25.328168 -6.010393
v 2.987183 27.529456 -7.510396
v 5.074648 25.982678 -6.010393
v 2.058778 27.997592 -6.010393
v 2.987183 27.529456 -7.510396
v 2.987183 27.529456 -1.510397
v 2.502204 26.874942 -7.510396
v 4.589665 25.328168 -3.010395
v 2.502204 26.874946 -1.510397
v 2.987183 27.529456 -1.510397
v 5.074648 25.982682 -3.010395
v 2.987183 27.529456 -7.510396
vt 0.239471 0.144607
vt 0.229008 0.105491
vt 0.229008 0.144607
vt 0.239471 0.105491
vt 0.233575 0.085933
vt 0.717112 0.555800
vt 0.730091 0.575358
vt 0.763713 0.555800
vt 0.233575 0.164166
vt 0.134417 0.294917
vt 0.134417 0.334034
vt 0.181025 0.334034
vt 0.806773 0.034533
vt 0.817033 0.070733
vt 0.817033 0.033657
vt 0.920567 0.300152
vt 0.931028 0.339269
vt 0.931028 0.300152
vt 0.933297 0.504733
vt 0.943557 0.468533
vt 0.933297 0.467657
vt 0.244038 0.085933
vt 0.763713 0.516684
vt 0.717112 0.516684
vt 0.730091 0.497125
vt 0.244038 0.164166
vt 0.147399 0.353592
vt 0.181025 0.294917
vt 0.147399 0.275359
vt 0.806773 0.071609
vt 0.920567 0.339269
vt 0.943557 0.505609
vn -0.235414 0.948734 0.210914
vn -0.963244 -0.118760 -0.240952
vn -0.963245 -0.118762 0.240946
vn -0.235411 0.948735 -0.210909
vn -0.464890 -0.339173 -0.817826
vn -0.235414 0.948734 0.210914
vn 0.210885 0.605656 0.767273
vn 0.913754 0.101325 0.393430
vn -0.464891 -0.339174 0.817825
vn -0.963245 -0.118762 0.240946
vn -0.963244 -0.118760 -0.240952
vn 0.207219 -0.893240 -0.398977
vn 0.913754 0.101325 0.393430
vn -0.464891 -0.339174 0.817825
vn 0.207220 -0.893235 0.398988
vn 0.913750 0.101322 -0.393440
vn 0.207220 -0.893235 0.398988
vn 0.207219 -0.893240 -0.398977
vn -0.464890 -0.339173 -0.817826
vn 0.913750 0.101322 -0.393440
vn 0.207219 -0.893240 -0.398977
vn 0.210885 0.605657 -0.767273
vn 0.913750 0.101322 -0.393440
vn -0.235411 0.948735 -0.210909
vn 0.210885 0.605657 -0.767273
vn 0.210885 0.605656 0.767273
vn -0.464890 -0.339173 -0.817826
vn 0.207220 -0.893235 0.398988
vn -0.464891 -0.339174 0.817825
vn 0.210885 0.605656 0.767273
vn 0.913754 0.101325 0.393430
vn 0.210885 0.605657 -0.767273
f 1/1/1 2/2/2 3/3/3
f 4/4/4 5/5/5 2/2/2
f 6/6/6 7/7/7 8/8/8
f 9/9/9 1/1/1 3/3/3
f 10/10/10 11/11/11 12/12/12
f 13/13/13 14/14/14 15/15/15
f 16/16/16 17/17/17 18/18/18
f 19/19/19 20/20/20 21/21/21
f 1/1/1 4/4/4 2/2/2
f 4/4/4 22/22/22 5/5/5
f 8/8/8 23/23/23 24/24/24
f 23/23/23 25/25/25 24/24/24
f 24/24/24 6/6/6 8/8/8
f 9/9/9 26/26/26 1/1/1
f 11/11/11 27/27/27 12/12/12
f 12/12/12 28/28/28 10/10/10
f 28/28/28 29/29/29 10/10/10
f 13/13/13 30/30/30 14/14/14
f 16/16/16 31/31/31 17/17/17
f 19/19/19 32/32/32 20/20/20
