# Cube.027 -- imported by tools/import_asset_pack.py from ModularHouse.fbx
o __pending__
v -7.321291 23.281654 -10.589734
v -7.321291 23.281654 -13.589732
v -10.337161 21.266740 -10.589734
v -7.764717 22.159005 -15.089731
v -7.321291 23.281654 -13.589732
v -6.836308 22.627140 -13.589732
v -7.321291 23.281654 -10.589734
v -6.836308 22.627140 -10.589734
v -7.764717 22.159005 -9.089731
v -8.249700 22.813515 -9.089731
v -7.764717 22.159005 -9.089731
v -10.337161 21.266740 -10.589734
v -9.852178 20.612226 -10.589730
v -9.852178 20.612226 -10.589730
v -10.337161 21.266740 -13.589732
v -9.852178 20.612226 -13.589732
v -9.852178 20.612226 -13.589732
v -6.836308 22.627140 -10.589734
v -9.852178 20.612226 -10.589730
v -7.764717 22.159005 -15.089731
v -10.337161 21.266740 -13.589732
v -8.249696 22.813515 -15.089731
v -8.249696 22.813515 -15.089731
v -10.337161 21.266740 -13.589732
v -8.249700 22.813515 -9.089731
v -8.249696 22.813515 -15.089731
v -8.249700 22.813515 -9.089731
v -10.337161 21.266740 -10.589734
v -7.764717 22.159005 -15.089731
v -6.836308 22.627140 -13.589732
v -7.764717 22.159005 -9.089731
v -9.852178 20.612226 -13.589732
vt 0.117922 0.239321
vt 0.117922 0.200204
vt 0.071321 0.239321
vt 0.804868 0.088089
vt 0.798971 0.107647
vt 0.809434 0.107647
vt 0.798971 0.146764
vt 0.809434 0.146764
vt 0.804868 0.166322
vt 0.794404 0.166322
vt 0.377565 0.052096
vt 0.387825 0.015896
vt 0.377565 0.015020
vt 0.361085 0.069453
vt 0.350623 0.108569
vt 0.361085 0.108569
vt 0.117937 0.389630
vt 0.071328 0.428747
vt 0.117937 0.428747
vt 0.984508 0.283960
vt 0.974248 0.247759
vt 0.974248 0.284836
vt 0.104943 0.180646
vt 0.071321 0.200204
vt 0.104943 0.258879
vt 0.794404 0.088089
vt 0.387825 0.052972
vt 0.350623 0.069453
vt 0.084311 0.370072
vt 0.071328 0.389630
vt 0.084311 0.448305
vt 0.984508 0.246883
vn 0.235414 0.948734 0.210914
vn 0.235412 0.948735 -0.210909
vn -0.913754 0.101326 0.393430
vn 0.464891 -0.339174 -0.817825
vn 0.235412 0.948735 -0.210909
vn 0.963244 -0.118760 -0.240952
vn 0.235414 0.948734 0.210914
vn 0.963245 -0.118762 0.240946
vn 0.464891 -0.339174 0.817825
vn -0.210886 0.605656 0.767273
vn 0.464891 -0.339174 0.817825
vn -0.913754 0.101326 0.393430
vn -0.207220 -0.893234 0.398989
vn -0.207220 -0.893234 0.398989
vn -0.913750 0.101323 -0.393440
vn -0.207220 -0.893239 -0.398978
vn -0.207220 -0.893239 -0.398978
vn 0.963245 -0.118762 0.240946
vn -0.207220 -0.893234 0.398989
vn 0.464891 -0.339174 -0.817825
vn -0.913750 0.101323 -0.393440
vn -0.210884 0.605656 -0.767273
vn -0.210884 0.605656 -0.767273
vn -0.913750 0.101323 -0.393440
vn -0.210886 0.605656 0.767273
vn -0.210884 0.605656 -0.767273
vn -0.210886 0.605656 0.767273
vn -0.913754 0.101326 0.393430
vn 0.464891 -0.339174 -0.817825
vn 0.963244 -0.118760 -0.240952
vn 0.464891 -0.339174 0.817825
vn -0.207220 -0.893239 -0.398978
f 1/1/1 2/2/2 3/3/3
f 4/4/4 5/5/5 6/6/6
f 6/6/6 7/7/7 8/8/8
f 9/9/9 7/7/7 10/10/10
f 11/11/11 12/12/12 13/13/13
f 14/14/14 15/15/15 16/16/16
f 17/17/17 18/18/18 19/19/19
f 20/20/20 21/21/21 22/22/22
f 23/23/23 24/24/24 2/2/2
f 24/24/24 3/3/3 2/2/2
f 3/3/3 25/25/25 1/1/1
f 4/4/4 26/26/26 5/5/5
f 6/6/6 5/5/5 7/7/7
f 9/9/9 8/8/8 7/7/7
f 11/11/11 27/27/27 12/12/12
f 14/14/14 28/28/28 15/15/15
f 17/17/17 29/29/29 30/30/30
f 30/30/30 18/18/18 17/17/17
f 18/18/18 31/31/31 19/19/19
f 20/20/20 32/32/32 21/21/21
