# Cube.030 -- imported by tools/import_asset_pack.py from ModularHouse.fbx
o __pending__
v -5.177600 23.819786 -3.559382
v -4.734175 24.942431 -2.059383
v -4.249196 24.287921 -2.059383
v -4.734175 24.942431 0.940615
v -4.734175 24.942431 -2.059383
v -7.750045 22.927521 0.940619
v -7.265061 22.273007 -2.059383
v -5.662584 24.474296 -3.559382
v -5.177600 23.819786 -3.559382
v -7.265061 22.273007 -2.059383
v -4.249196 24.287921 0.940615
v -7.265061 22.273007 0.940619
v -7.265061 22.273007 0.940619
v -7.750045 22.927521 -2.059383
v -7.265061 22.273007 -2.059383
v -5.177600 23.819786 2.440618
v -7.750045 22.927521 0.940619
v -7.265061 22.273007 0.940619
v -5.177600 23.819786 2.440618
v -4.734175 24.942431 0.940615
v -5.662584 24.474296 2.440618
v -4.249196 24.287921 0.940615
v -5.662584 24.474296 -3.559382
v -5.662584 24.474296 -3.559382
v -7.750045 22.927521 -2.059383
v -5.662584 24.474296 2.440618
v -7.750045 22.927521 -2.059383
v -5.177600 23.819786 -3.559382
v -4.249196 24.287921 -2.059383
v -5.177600 23.819786 2.440618
v -7.750045 22.927521 0.940619
v -5.662584 24.474296 2.440618
vt 0.899459 0.088089
vt 0.893562 0.107647
vt 0.904026 0.107647
vt 0.825975 0.391787
vt 0.825975 0.430904
vt 0.872576 0.391787
vt 0.261162 0.031500
vt 0.250903 0.069453
vt 0.261162 0.068577
vt 0.494068 0.297074
vt 0.447460 0.336190
vt 0.494068 0.336190
vt 0.931028 0.244555
vt 0.920567 0.283672
vt 0.931028 0.283672
vt 0.034980 0.068577
vt 0.045240 0.032376
vt 0.034980 0.031500
vt 0.899459 0.166322
vt 0.893562 0.146764
vt 0.888996 0.166322
vt 0.904026 0.146764
vt 0.888996 0.088089
vt 0.838954 0.450462
vt 0.872576 0.430904
vt 0.838954 0.372229
vt 0.250903 0.032376
vt 0.460442 0.277516
vt 0.447460 0.297074
vt 0.460442 0.355749
vt 0.920567 0.244555
vt 0.045240 0.069453
vn 0.464875 -0.339175 -0.817834
vn 0.235413 0.948735 -0.210909
vn 0.963244 -0.118761 -0.240952
vn 0.235413 0.948734 0.210914
vn 0.235413 0.948735 -0.210909
vn -0.913754 0.101325 0.393430
vn -0.207216 -0.893245 -0.398966
vn -0.210877 0.605673 -0.767262
vn 0.464875 -0.339175 -0.817834
vn -0.207216 -0.893245 -0.398966
vn 0.963245 -0.118762 0.240946
vn -0.207220 -0.893234 0.398989
vn -0.207220 -0.893234 0.398989
vn -0.913745 0.101316 -0.393452
vn -0.207216 -0.893245 -0.398966
vn 0.464890 -0.339172 0.817826
vn -0.913754 0.101325 0.393430
vn -0.207220 -0.893234 0.398989
vn 0.464890 -0.339172 0.817826
vn 0.235413 0.948734 0.210914
vn -0.210886 0.605657 0.767273
vn 0.963245 -0.118762 0.240946
vn -0.210877 0.605673 -0.767262
vn -0.210877 0.605673 -0.767262
vn -0.913745 0.101316 -0.393452
vn -0.210886 0.605657 0.767273
vn -0.913745 0.101316 -0.393452
vn 0.464875 -0.339175 -0.817834
vn 0.963244 -0.118761 -0.240952
vn 0.464890 -0.339172 0.817826
vn -0.913754 0.101325 0.393430
vn -0.210886 0.605657 0.767273
f 1/1/1 2/2/2 3/3/3
f 4/4/4 5/5/5 6/6/6
f 7/7/7 8/8/8 9/9/9
f 10/10/10 11/11/11 12/12/12
f 13/13/13 14/14/14 15/15/15
f 16/16/16 17/17/17 18/18/18
f 19/19/19 20/20/20 21/21/21
f 3/3/3 20/20/20 22/22/22
f 1/1/1 23/23/23 2/2/2
f 24/24/24 25/25/25 5/5/5
f 25/25/25 6/6/6 5/5/5
f 6/6/6 26/26/26 4/4/4
f 7/7/7 27/27/27 8/8/8
f 10/10/10 28/28/28 29/29/29
f 29/29/29 11/11/11 10/10/10
f 11/11/11 30/30/30 12/12/12
f 13/13/13 31/31/31 14/14/14
f 16/16/16 32/32/32 17/17/17
f 19/19/19 22/22/22 20/20/20
f 3/3/3 2/2/2 20/20/20
