# Cube.016 -- imported by tools/import_asset_pack.py from ModularHouse.fbx
o __pending__
v 2.360380 26.508948 -3.559382
v 4.932825 25.616683 -2.059383
v 4.447841 24.962173 -2.059383
v 1.916955 27.631597 0.940615
v 2.845364 27.163462 2.440618
v 4.932825 25.616683 0.940619
v 1.916955 27.631597 -2.059383
v 2.360380 26.508948 -3.559382
v 1.431971 26.977083 -2.059383
v 1.431971 26.977083 0.940615
v 1.431971 26.977083 -2.059383
v 4.447841 24.962173 -2.059383
v 1.916955 27.631597 0.940615
v 1.431971 26.977083 0.940615
v 2.360380 26.508948 2.440618
v 4.932825 25.616683 0.940619
v 2.360380 26.508948 2.440618
v 4.447841 24.962173 0.940619
v 4.932825 25.616683 -2.059383
v 4.447841 24.962173 0.940619
v 4.447841 24.962173 -2.059383
v 2.845360 27.163462 -3.559382
v 4.932825 25.616683 -2.059383
v 1.916955 27.631597 -2.059383
v 2.845360 27.163462 -3.559382
v 2.845360 27.163462 -3.559382
v 2.360380 26.508948 -3.559382
v 4.447841 24.962173 0.940619
v 2.360380 26.508948 2.440618
v 2.845364 27.163462 2.440618
v 2.845364 27.163462 2.440618
v 4.932825 25.616683 0.940619
vt 0.668235 0.070733
vt 0.678495 0.034533
vt 0.668235 0.033657
vt 0.780193 0.650513
vt 0.793172 0.670072
vt 0.826794 0.650513
vt 0.546557 0.146764
vt 0.552454 0.166322
vt 0.557020 0.146764
vt 0.573636 0.391787
vt 0.573636 0.430903
vt 0.620245 0.430903
vt 0.546557 0.107648
vt 0.557020 0.107648
vt 0.552454 0.088089
vt 0.960239 0.632995
vt 0.970499 0.669196
vt 0.970499 0.632119
vt 0.418280 0.131205
vt 0.428742 0.170322
vt 0.428742 0.131205
vt 0.678495 0.071609
vt 0.826794 0.611397
vt 0.780193 0.611397
vt 0.793172 0.591838
vt 0.541990 0.166322
vt 0.586619 0.450462
vt 0.620245 0.391787
vt 0.586619 0.372229
vt 0.541990 0.088089
vt 0.960239 0.670072
vt 0.418280 0.170322
vn -0.464892 -0.339174 -0.817824
vn 0.913750 0.101322 -0.393440
vn 0.207219 -0.893240 -0.398978
vn -0.235412 0.948734 0.210915
vn 0.210884 0.605657 0.767273
vn 0.913754 0.101325 0.393430
vn -0.235410 0.948736 -0.210910
vn -0.464892 -0.339174 -0.817824
vn -0.963243 -0.118759 -0.240954
vn -0.963244 -0.118761 0.240948
vn -0.963243 -0.118759 -0.240954
vn 0.207219 -0.893240 -0.398978
vn -0.235412 0.948734 0.210915
vn -0.963244 -0.118761 0.240948
vn -0.464892 -0.339173 0.817825
vn 0.913754 0.101325 0.393430
vn -0.464892 -0.339173 0.817825
vn 0.207220 -0.893235 0.398988
vn 0.913750 0.101322 -0.393440
vn 0.207220 -0.893235 0.398988
vn 0.207219 -0.893240 -0.398978
vn 0.210883 0.605656 -0.767274
vn 0.913750 0.101322 -0.393440
vn -0.235410 0.948736 -0.210910
vn 0.210883 0.605656 -0.767274
vn 0.210883 0.605656 -0.767274
vn -0.464892 -0.339174 -0.817824
vn 0.207220 -0.893235 0.398988
vn -0.464892 -0.339173 0.817825
vn 0.210884 0.605657 0.767273
vn 0.210884 0.605657 0.767273
vn 0.913754 0.101325 0.393430
f 1/1/1 2/2/2 3/3/3
f 4/4/4 5/5/5 6/6/6
f 7/7/7 8/8/8 9/9/9
f 10/10/10 11/11/11 12/12/12
f 13/13/13 9/9/9 14/14/14
f 15/15/15 13/13/13 14/14/14
f 16/16/16 17/17/17 18/18/18
f 19/19/19 20/20/20 21/21/21
f 1/1/1 22/22/22 2/2/2
f 6/6/6 23/23/23 24/24/24
f 23/23/23 25/25/25 24/24/24
f 24/24/24 4/4/4 6/6/6
f 7/7/7 26/26/26 8/8/8
f 11/11/11 27/27/27 12/12/12
f 12/12/12 28/28/28 10/10/10
f 28/28/28 29/29/29 10/10/10
f 13/13/13 7/7/7 9/9/9
f 15/15/15 30/30/30 13/13/13
f 16/16/16 31/31/31 17/17/17
f 19/19/19 32/32/32 20/20/20
