# Cube.022 -- imported by tools/import_asset_pack.py from ModularHouse.fbx
o __pending__
v -10.245774 19.269490 -4.363157
v -9.802349 20.392140 -2.863158
v -9.317365 19.737630 -2.863158
v -9.802349 20.392140 0.136843
v -9.802349 20.392140 -2.863158
v -12.818214 18.377230 0.136843
v -10.245774 19.269490 -4.363157
v -12.818214 18.377230 -2.863154
v -10.730753 19.924004 -4.363157
v -12.333235 17.722716 -2.863154
v -9.317365 19.737630 0.136843
v -12.333235 17.722716 0.136843
v -12.333235 17.722716 0.136843
v -12.818214 18.377230 -2.863154
v -12.333235 17.722716 -2.863154
v -10.245774 19.269490 1.636842
v -12.818214 18.377230 0.136843
v -12.333235 17.722716 0.136843
v -10.245774 19.269490 1.636842
v -9.802349 20.392140 0.136843
v -10.730753 19.924004 1.636842
v -9.317365 19.737630 0.136843
v -10.730753 19.924004 -4.363157
v -10.730753 19.924004 -4.363157
v -12.818214 18.377230 -2.863154
v -10.730753 19.924004 1.636842
v -12.333235 17.722716 -2.863154
v -10.245774 19.269490 -4.363157
v -9.317365 19.737630 -2.863158
v -10.245774 19.269490 1.636842
v -12.818214 18.377230 0.136843
v -10.730753 19.924004 1.636842
vt 0.641292 0.166322
vt 0.647188 0.146764
vt 0.636725 0.146764
vt 0.843274 0.516684
vt 0.843274 0.555800
vt 0.889875 0.516684
vt 0.511199 0.070733
vt 0.500939 0.034533
vt 0.500939 0.071609
vt 0.370290 0.389630
vt 0.323682 0.428747
vt 0.370290 0.428747
vt 0.377565 0.164166
vt 0.388027 0.125049
vt 0.377565 0.125049
vt 0.224163 0.068576
vt 0.234422 0.032376
vt 0.224163 0.031500
vt 0.641292 0.088089
vt 0.647188 0.107648
vt 0.651755 0.088089
vt 0.636725 0.107648
vt 0.651755 0.166322
vt 0.856253 0.575358
vt 0.889875 0.555800
vt 0.856253 0.497125
vt 0.511199 0.033657
vt 0.336664 0.370072
vt 0.323682 0.389630
vt 0.336664 0.448305
vt 0.388027 0.164166
vt 0.234422 0.069453
vn 0.464892 -0.339173 -0.817825
vn 0.235411 0.948735 -0.210910
vn 0.963243 -0.118760 -0.240954
vn 0.235412 0.948734 0.210915
vn 0.235411 0.948735 -0.210910
vn -0.913754 0.101326 0.393429
vn 0.464892 -0.339173 -0.817825
vn -0.913750 0.101322 -0.393440
vn -0.210882 0.605657 -0.767273
vn -0.207220 -0.893240 -0.398977
vn 0.963244 -0.118761 0.240948
vn -0.207221 -0.893234 0.398988
vn -0.207221 -0.893234 0.398988
vn -0.913750 0.101322 -0.393440
vn -0.207220 -0.893240 -0.398977
vn 0.464892 -0.339173 0.817825
vn -0.913754 0.101326 0.393429
vn -0.207221 -0.893234 0.398988
vn 0.464892 -0.339173 0.817825
vn 0.235412 0.948734 0.210915
vn -0.210883 0.605657 0.767273
vn 0.963244 -0.118761 0.240948
vn -0.210882 0.605657 -0.767273
vn -0.210882 0.605657 -0.767273
vn -0.913750 0.101322 -0.393440
vn -0.210883 0.605657 0.767273
vn -0.207220 -0.893240 -0.398977
vn 0.464892 -0.339173 -0.817825
vn 0.963243 -0.118760 -0.240954
vn 0.464892 -0.339173 0.817825
vn -0.913754 0.101326 0.393429
vn -0.210883 0.605657 0.767273
f 1/1/1 2/2/2 3/3/3
f 4/4/4 5/5/5 6/6/6
f 7/7/7 8/8/8 9/9/9
f 10/10/10 11/11/11 12/12/12
f 13/13/13 14/14/14 15/15/15
f 16/16/16 17/17/17 18/18/18
f 19/19/19 20/20/20 21/21/21
f 3/3/3 20/20/20 22/22/22
f 1/1/1 23/23/23 2/2/2
f 24/24/24 25/25/25 5/5/5
f 25/25/25 6/6/6 5/5/5
f 6/6/6 26/26/26 4/4/4
f 7/7/7 27/27/27 8/8/8
f 10/10/10 28/28/28 29/29/29
f 29/29/29 11/11/11 10/10/10
f 11/11/11 30/30/30 12/12/12
f 13/13/13 31/31/31 14/14/14
f 16/16/16 32/32/32 17/17/17
f 19/19/19 22/22/22 20/20/20
f 3/3/3 2/2/2 20/20/20
