# Cube.010 -- imported by tools/import_asset_pack.py from ModularHouse.fbx
o __pending__
v 7.321290 22.748083 -7.068207
v 8.249699 22.279948 -5.568204
v 10.337160 20.733170 -7.068203
v 7.321290 22.748083 -10.068204
v 7.764716 21.625434 -11.568207
v 6.836307 22.093570 -10.068204
v 8.249695 22.279948 -11.568207
v 9.852176 20.078660 -10.068204
v 7.764716 21.625434 -11.568207
v 10.337160 20.733170 -10.068204
v 9.852176 20.078660 -7.068203
v 9.852176 20.078660 -10.068204
v 10.337160 20.733170 -7.068203
v 7.764716 21.625438 -5.568204
v 9.852176 20.078660 -7.068203
v 7.764716 21.625438 -5.568204
v 7.321290 22.748083 -7.068207
v 6.836307 22.093570 -7.068207
v 6.836307 22.093570 -7.068207
v 6.836307 22.093570 -10.068204
v 9.852176 20.078660 -10.068204
v 10.337160 20.733170 -10.068204
v 7.321290 22.748083 -10.068204
v 8.249695 22.279948 -11.568207
v 8.249695 22.279948 -11.568207
v 10.337160 20.733170 -10.068204
v 10.337160 20.733170 -7.068203
v 8.249699 22.279948 -5.568204
v 8.249699 22.279948 -5.568204
v 7.764716 21.625434 -11.568207
v 9.852176 20.078660 -7.068203
v 7.764716 21.625438 -5.568204
vt 0.636725 0.241477
vt 0.649703 0.261035
vt 0.683326 0.241477
vt 0.899520 0.391787
vt 0.893623 0.372229
vt 0.889056 0.391787
vt 0.591419 0.071609
vt 0.581159 0.033657
vt 0.581159 0.070733
vt 0.907885 0.897047
vt 0.918347 0.936163
vt 0.918347 0.897047
vt 0.954760 0.829787
vt 0.965020 0.865987
vt 0.965020 0.828911
vt 0.893623 0.450462
vt 0.899520 0.430904
vt 0.889056 0.430904
vt 0.396192 0.713475
vt 0.396192 0.752592
vt 0.442800 0.752592
vt 0.683326 0.202361
vt 0.636725 0.202361
vt 0.649703 0.182802
vt 0.904086 0.372229
vt 0.591419 0.034533
vt 0.907885 0.936163
vt 0.954760 0.866863
vt 0.904086 0.450462
vt 0.409174 0.772150
vt 0.442800 0.713475
vt 0.409174 0.693917
vn -0.235413 0.948734 0.210915
vn 0.210884 0.605656 0.767273
vn 0.913754 0.101326 0.393429
vn -0.235410 0.948736 -0.210910
vn -0.464875 -0.339175 -0.817834
vn -0.963243 -0.118759 -0.240953
vn 0.210877 0.605673 -0.767262
vn 0.207214 -0.893246 -0.398966
vn -0.464875 -0.339175 -0.817834
vn 0.913745 0.101315 -0.393453
vn 0.207221 -0.893234 0.398989
vn 0.207214 -0.893246 -0.398966
vn 0.913754 0.101326 0.393429
vn -0.464891 -0.339172 0.817825
vn 0.207221 -0.893234 0.398989
vn -0.464891 -0.339172 0.817825
vn -0.235413 0.948734 0.210915
vn -0.963245 -0.118761 0.240947
vn -0.963245 -0.118761 0.240947
vn -0.963243 -0.118759 -0.240953
vn 0.207214 -0.893246 -0.398966
vn 0.913745 0.101315 -0.393453
vn -0.235410 0.948736 -0.210910
vn 0.210877 0.605673 -0.767262
vn 0.210877 0.605673 -0.767262
vn 0.913745 0.101315 -0.393453
vn 0.913754 0.101326 0.393429
vn 0.210884 0.605656 0.767273
vn 0.210884 0.605656 0.767273
vn -0.464875 -0.339175 -0.817834
vn 0.207221 -0.893234 0.398989
vn -0.464891 -0.339172 0.817825
f 1/1/1 2/2/2 3/3/3
f 4/4/4 5/5/5 6/6/6
f 7/7/7 8/8/8 9/9/9
f 10/10/10 11/11/11 12/12/12
f 13/13/13 14/14/14 15/15/15
f 16/16/16 17/17/17 18/18/18
f 17/17/17 6/6/6 18/18/18
f 19/19/19 20/20/20 21/21/21
f 3/3/3 22/22/22 23/23/23
f 22/22/22 24/24/24 23/23/23
f 23/23/23 1/1/1 3/3/3
f 4/4/4 25/25/25 5/5/5
f 7/7/7 26/26/26 8/8/8
f 10/10/10 27/27/27 11/11/11
f 13/13/13 28/28/28 14/14/14
f 16/16/16 29/29/29 17/17/17
f 17/17/17 4/4/4 6/6/6
f 20/20/20 30/30/30 21/21/21
f 21/21/21 31/31/31 19/19/19
f 31/31/31 32/32/32 19/19/19
