# Cube.035 -- imported by tools/import_asset_pack.py from ModularHouse.fbx
o __pending__
v -2.058779 28.104305 -10.693727
v -2.058779 28.104305 -13.693725
v -5.074649 26.089395 -10.693723
v -2.502204 26.981660 -15.193728
v -2.058779 28.104305 -13.693725
v -1.573795 27.449795 -13.693725
v -2.058779 28.104305 -10.693727
v -1.573795 27.449795 -10.693727
v -2.502204 26.981660 -9.193724
v -2.987184 27.636170 -9.193724
v -2.502204 26.981660 -9.193724
v -5.074649 26.089395 -10.693723
v -4.589665 25.434881 -10.693723
v -4.589665 25.434881 -10.693723
v -5.074649 26.089395 -13.693725
v -4.589665 25.434881 -13.693725
v -4.589665 25.434881 -13.693725
v -1.573795 27.449795 -10.693727
v -4.589665 25.434881 -10.693723
v -2.502204 26.981660 -15.193728
v -5.074649 26.089395 -13.693725
v -2.987184 27.636170 -15.193728
v -2.987184 27.636170 -15.193728
v -5.074649 26.089395 -13.693725
v -2.987184 27.636170 -9.193724
v -2.987184 27.636170 -15.193728
v -2.987184 27.636170 -9.193724
v -5.074649 26.089395 -10.693723
v -2.502204 26.981660 -15.193728
v -1.573795 27.449795 -13.693725
v -2.502204 26.981660 -9.193724
v -4.589665 25.434881 -13.693725
vt 0.134417 0.200204
vt 0.134417 0.239321
vt 0.181018 0.200204
vt 0.113295 0.085933
vt 0.107398 0.105491
vt 0.117862 0.105491
vt 0.107398 0.144607
vt 0.117862 0.144607
vt 0.113295 0.164166
vt 0.102831 0.164166
vt 0.168679 0.068576
vt 0.178939 0.032376
vt 0.168679 0.031500
vt 0.916817 0.575358
vt 0.906356 0.614475
vt 0.916817 0.614475
vt 0.620245 0.297074
vt 0.573636 0.336190
vt 0.620245 0.336190
vt 0.945086 0.990884
vt 0.934827 0.954683
vt 0.934827 0.991760
vt 0.147396 0.258879
vt 0.181018 0.239321
vt 0.147396 0.180646
vt 0.102831 0.085933
vt 0.178939 0.069453
vt 0.906356 0.575358
vt 0.586619 0.277516
vt 0.573636 0.297074
vt 0.586619 0.355749
vt 0.945086 0.953807
vn 0.235413 0.948734 0.210914
vn 0.235412 0.948735 -0.210909
vn -0.913754 0.101325 0.393430
vn 0.464890 -0.339173 -0.817826
vn 0.235412 0.948735 -0.210909
vn 0.963244 -0.118760 -0.240952
vn 0.235413 0.948734 0.210914
vn 0.963245 -0.118762 0.240946
vn 0.464890 -0.339173 0.817826
vn -0.210885 0.605657 0.767272
vn 0.464890 -0.339173 0.817826
vn -0.913754 0.101325 0.393430
vn -0.207220 -0.893234 0.398989
vn -0.207220 -0.893234 0.398989
vn -0.913750 0.101324 -0.393439
vn -0.207222 -0.893239 -0.398978
vn -0.207222 -0.893239 -0.398978
vn 0.963245 -0.118762 0.240946
vn -0.207220 -0.893234 0.398989
vn 0.464890 -0.339173 -0.817826
vn -0.913750 0.101324 -0.393439
vn -0.210885 0.605656 -0.767273
vn -0.210885 0.605656 -0.767273
vn -0.913750 0.101324 -0.393439
vn -0.210885 0.605657 0.767272
vn -0.210885 0.605656 -0.767273
vn -0.210885 0.605657 0.767272
vn -0.913754 0.101325 0.393430
vn 0.464890 -0.339173 -0.817826
vn 0.963244 -0.118760 -0.240952
vn 0.464890 -0.339173 0.817826
vn -0.207222 -0.893239 -0.398978
f 1/1/1 2/2/2 3/3/3
f 4/4/4 5/5/5 6/6/6
f 6/6/6 7/7/7 8/8/8
f 9/9/9 7/7/7 10/10/10
f 11/11/11 12/12/12 13/13/13
f 14/14/14 15/15/15 16/16/16
f 17/17/17 18/18/18 19/19/19
f 20/20/20 21/21/21 22/22/22
f 23/23/23 24/24/24 2/2/2
f 24/24/24 3/3/3 2/2/2
f 3/3/3 25/25/25 1/1/1
f 4/4/4 26/26/26 5/5/5
f 6/6/6 5/5/5 7/7/7
f 9/9/9 8/8/8 7/7/7
f 11/11/11 27/27/27 12/12/12
f 14/14/14 28/28/28 15/15/15
f 17/17/17 29/29/29 30/30/30
f 30/30/30 18/18/18 17/17/17
f 18/18/18 31/31/31 19/19/19
f 20/20/20 32/32/32 21/21/21
