# Cube.007 -- imported by tools/import_asset_pack.py from Shovel.fbx
o __pending__
v -1.843056 -0.334465 -0.072621
v -1.805945 -0.982270 -0.038664
v -1.839429 -0.982270 -0.019332
v -1.768835 -0.334465 -0.072621
v -1.772462 -0.982271 -0.019332
v -1.805945 -0.334465 -0.094047
v -1.759217 -0.339911 -0.078175
v -1.768835 -0.334465 -0.072621
v -1.852674 -0.339911 -0.078175
v -1.805945 -0.339911 -0.105154
v -1.805945 -0.339911 -0.105154
v -1.848725 -0.186331 -0.075894
v -1.805945 -0.186331 -0.100593
v -1.763166 -0.186331 -0.075894
v -1.759217 -0.339911 -0.078175
v -1.805945 -0.165487 -0.079704
v -1.805945 -0.186331 -0.100593
v -1.781257 -0.165487 -0.065450
v -1.763166 -0.186331 -0.075894
v -1.805945 -0.165487 -0.079704
v -1.799961 -0.152812 -0.054651
v -1.830634 -0.165487 -0.065450
v -1.805945 -0.152812 -0.058106
v -1.830634 -0.165487 -0.036942
v -1.811930 -0.152812 -0.054651
v -1.848725 -0.186331 -0.026497
v -1.830634 -0.165487 -0.065450
v -1.848725 -0.186331 -0.075894
v -1.805945 -0.152812 -0.044285
v -1.799961 -0.152812 -0.047741
v -1.805945 -0.165487 -0.022688
v -1.811930 -0.152812 -0.047741
v -1.763166 -0.186331 -0.026497
v -1.805945 -0.165487 -0.022688
v -1.805945 -0.186331 -0.001798
v -1.805945 -0.186331 -0.001798
v -1.848725 -0.186331 -0.026497
v -1.805945 -0.339911 0.002762
v -1.852674 -0.339911 -0.024217
v -1.848725 -0.186331 -0.026497
v -1.852674 -0.339911 -0.024217
v -1.852674 -0.339911 -0.078175
v -1.805945 -0.334465 -0.008345
v -1.852674 -0.339911 -0.024217
v -1.843056 -0.334465 -0.029770
v -1.843056 -0.334465 -0.072621
v -1.805945 -0.334465 -0.008345
v -1.839429 -0.982270 0.019332
v -1.805945 -0.982270 0.038664
v -1.843056 -0.334465 -0.029770
v -1.839429 -0.982270 -0.019332
v -1.839429 -0.982270 0.019332
v -1.839429 -0.982270 0.019332
v -1.805945 -0.982419 0.061606
v -1.805945 -0.982270 0.038664
v -1.839429 -0.982270 -0.019332
v -1.859297 -0.982419 0.030803
v -1.859297 -0.982419 0.030803
v -1.853701 -1.252812 -0.027571
v -1.853701 -1.252812 0.027571
v -1.805946 -1.252812 0.055143
v -1.859297 -0.982419 0.030803
v -1.853701 -1.252812 0.027571
v -1.853701 -1.252812 0.027571
v -1.853701 -1.252812 -0.027571
v -1.758191 -1.252813 -0.027571
v -1.859297 -0.982419 -0.030803
v -1.805946 -1.252812 -0.055142
v -1.853701 -1.252812 -0.027571
v -1.752594 -0.982419 -0.030803
v -1.758191 -1.252813 -0.027571
v -1.805945 -0.982270 -0.038664
v -1.752594 -0.982419 -0.030803
v -1.805945 -0.982419 -0.061605
v -1.859297 -0.982419 -0.030803
v -1.772462 -0.982271 0.019332
v -1.772462 -0.982271 -0.019332
v -1.752594 -0.982419 -0.030803
v -1.758191 -1.252813 0.027571
v -1.758191 -1.252813 -0.027571
v -1.752594 -0.982419 0.030803
v -1.758191 -1.252813 0.027571
v -1.752594 -0.982419 0.030803
v -1.772462 -0.982271 0.019332
v -1.772462 -0.982271 -0.019332
v -1.768835 -0.334465 -0.029770
v -1.772462 -0.982271 0.019332
v -1.759217 -0.339911 -0.024217
v -1.768835 -0.334465 -0.029770
v -1.805945 -0.339911 0.002762
v -1.759217 -0.339911 -0.078175
v -1.763166 -0.186331 -0.026497
v -1.759217 -0.339911 -0.024217
v -1.781257 -0.165487 -0.065450
v -1.781257 -0.165487 -0.036942
v -1.781257 -0.165487 -0.036942
v -1.805945 -0.334465 -0.094047
v -1.852674 -0.339911 -0.078175
v -1.830634 -0.165487 -0.065450
v -1.830634 -0.165487 -0.036942
v -1.781257 -0.165487 -0.036942
v -1.759217 -0.339911 -0.024217
v -1.843056 -0.334465 -0.029770
v -1.843056 -0.334465 -0.072621
v -1.859297 -0.982419 -0.030803
v -1.805945 -0.982419 0.061606
v -1.805946 -1.252812 -0.055142
v -1.758191 -1.252813 0.027571
v -1.805946 -1.252812 0.055143
v -1.805945 -0.982419 -0.061605
v -1.752594 -0.982419 0.030803
v -1.768835 -0.334465 -0.029770
v -1.768835 -0.334465 -0.072621
v -1.763166 -0.186331 -0.075894
vt 0.703355 0.532897
vt 0.727112 0.130192
vt 0.703355 0.129561
vt 0.746355 0.533743
vt 0.742153 0.130323
vt 0.312630 0.075281
vt 0.289553 0.055051
vt 0.289553 0.061958
vt 0.318611 0.105382
vt 0.318611 0.071828
vt 0.104366 0.112504
vt 0.072502 0.207753
vt 0.102865 0.207962
vt 0.122082 0.207753
vt 0.125358 0.112275
vt 0.098087 0.220746
vt 0.935822 0.695679
vt 0.911041 0.684761
vt 0.905133 0.695679
vt 0.928752 0.684761
vt 0.917392 0.673333
vt 0.937591 0.669413
vt 0.921685 0.673333
vt 0.928718 0.654065
vt 0.923827 0.669613
vt 0.903587 0.798996
vt 0.927810 0.811731
vt 0.934305 0.798996
vt 0.917384 0.665893
vt 0.915241 0.669613
vt 0.911007 0.654065
vt 0.921677 0.665893
vt 0.262268 0.225556
vt 0.287917 0.238531
vt 0.292631 0.225548
vt 0.905074 0.642491
vt 0.935763 0.642491
vt 0.293660 0.130038
vt 0.314649 0.130084
vt 0.311846 0.225589
vt 0.902169 0.703558
vt 0.935723 0.703558
vt 0.266475 0.101929
vt 0.289553 0.122159
vt 0.289553 0.115252
vt 0.312630 0.101929
vt 0.780567 0.533149
vt 0.797232 0.129819
vt 0.782195 0.130122
vt 0.668918 0.531558
vt 0.695475 0.129572
vt 0.671513 0.127601
vt 0.920081 0.577070
vt 0.899290 0.550782
vt 0.899286 0.565048
vt 0.920081 0.601114
vt 0.932425 0.569937
vt 0.214305 0.238536
vt 0.250605 0.070353
vt 0.216314 0.070353
vt 0.181003 0.070344
vt 0.206426 0.238535
vt 0.202453 0.070390
vt 0.373111 0.138249
vt 0.402808 0.121103
vt 0.373111 0.069667
vt 0.805111 0.239825
vt 0.842353 0.071901
vt 0.808459 0.071666
vt 0.866944 0.239825
vt 0.863805 0.071666
vt 0.899286 0.613135
vt 0.866155 0.608247
vt 0.899290 0.627402
vt 0.932425 0.608247
vt 0.878490 0.577070
vt 0.878490 0.601114
vt 0.874823 0.240087
vt 0.911123 0.071904
vt 0.876833 0.071904
vt 0.144594 0.238494
vt 0.147108 0.070352
vt 0.866155 0.569937
vt 0.758436 0.130658
vt 0.634481 0.129572
vt 0.661039 0.531558
vt 0.658444 0.127601
vt 0.260494 0.071828
vt 0.266475 0.075281
vt 0.260494 0.105382
vt 0.003940 0.109933
vt 0.036076 0.205371
vt 0.037494 0.109933
vt 0.011853 0.218106
vt 0.029581 0.218106
vt 0.902169 0.669413
vt 0.729685 0.533597
vt 0.071201 0.112275
vt 0.080565 0.220625
vt 0.910082 0.811731
vt 0.270394 0.238536
vt 0.260494 0.130047
vt 0.797232 0.532813
vt 0.695475 0.533743
vt 0.252615 0.238536
vt 0.182461 0.238484
vt 0.402808 0.086812
vt 0.343414 0.086812
vt 0.343414 0.121103
vt 0.842978 0.240087
vt 0.913133 0.240087
vt 0.754234 0.533743
vt 0.634481 0.533743
vt 0.005358 0.205371
vn -0.207181 -0.968669 -0.136953
vn 0.000001 0.814486 -0.580183
vn -0.495425 0.825065 -0.271703
vn 0.207179 -0.968670 -0.136953
vn 0.495409 0.825077 -0.271692
vn 0.000000 -0.972542 -0.232730
vn 0.596401 -0.725070 -0.344353
vn 0.207179 -0.968670 -0.136953
vn -0.596427 -0.725052 -0.344345
vn 0.000000 -0.725083 -0.688662
vn 0.000000 -0.725083 -0.688662
vn -0.808154 0.359411 -0.466596
vn 0.000007 0.359403 -0.933182
vn 0.808164 0.359400 -0.466586
vn 0.596401 -0.725070 -0.344353
vn 0.000004 0.771868 -0.635783
vn 0.000007 0.359403 -0.933182
vn 0.550604 0.771868 -0.317890
vn 0.808164 0.359400 -0.466586
vn 0.000004 0.771868 -0.635783
vn 0.293793 0.940699 -0.169619
vn -0.550602 0.771868 -0.317895
vn 0.000003 0.940699 -0.339242
vn -0.550606 0.771868 0.317888
vn -0.293790 0.940699 -0.169623
vn -0.808163 0.359403 0.466585
vn -0.550602 0.771868 -0.317895
vn -0.808154 0.359411 -0.466596
vn 0.000000 0.940698 0.339245
vn 0.293791 0.940700 0.169620
vn -0.000003 0.771868 0.635782
vn -0.293794 0.940699 0.169619
vn 0.808155 0.359417 0.466588
vn -0.000003 0.771868 0.635782
vn -0.000000 0.359407 0.933181
vn -0.000000 0.359407 0.933181
vn -0.808163 0.359403 0.466585
vn -0.000022 -0.725070 0.688675
vn -0.596389 -0.725093 0.344325
vn -0.808163 0.359403 0.466585
vn -0.596389 -0.725093 0.344325
vn -0.596427 -0.725052 -0.344345
vn -0.000005 -0.954829 0.297157
vn -0.596389 -0.725093 0.344325
vn -0.250979 -0.959825 0.125478
vn -0.207181 -0.968669 -0.136953
vn -0.000005 -0.954829 0.297157
vn -0.458260 0.844329 0.277680
vn 0.000001 0.853060 0.521813
vn -0.250979 -0.959825 0.125478
vn -0.495425 0.825065 -0.271703
vn -0.458260 0.844329 0.277680
vn -0.458260 0.844329 0.277680
vn -0.000001 0.599071 0.800696
vn 0.000001 0.853060 0.521813
vn -0.495425 0.825065 -0.271703
vn -0.693414 0.599086 0.400342
vn -0.693414 0.599086 0.400342
vn -0.680192 -0.618964 -0.392713
vn -0.680201 -0.618953 0.392713
vn -0.000001 -0.618967 0.785417
vn -0.693414 0.599086 0.400342
vn -0.680201 -0.618953 0.392713
vn -0.680201 -0.618953 0.392713
vn -0.680192 -0.618964 -0.392713
vn 0.680193 -0.618964 -0.392710
vn -0.693424 0.599075 -0.400340
vn -0.000001 -0.618969 -0.785416
vn -0.680192 -0.618964 -0.392713
vn 0.693411 0.599089 -0.400342
vn 0.680193 -0.618964 -0.392710
vn 0.000001 0.814486 -0.580183
vn 0.693411 0.599089 -0.400342
vn -0.000001 0.599071 -0.800696
vn -0.693424 0.599075 -0.400340
vn 0.458263 0.844329 0.277677
vn 0.495409 0.825077 -0.271692
vn 0.693411 0.599089 -0.400342
vn 0.680187 -0.618970 0.392711
vn 0.680193 -0.618964 -0.392710
vn 0.693425 0.599076 0.400337
vn 0.680187 -0.618970 0.392711
vn 0.693425 0.599076 0.400337
vn 0.458263 0.844329 0.277677
vn 0.495409 0.825077 -0.271692
vn 0.250987 -0.959822 0.125487
vn 0.458263 0.844329 0.277677
vn 0.596425 -0.725053 0.344348
vn 0.250987 -0.959822 0.125487
vn -0.000022 -0.725070 0.688675
vn 0.596401 -0.725070 -0.344353
vn 0.808155 0.359417 0.466588
vn 0.596425 -0.725053 0.344348
vn 0.550604 0.771868 -0.317890
vn 0.550605 0.771867 0.317892
vn 0.550605 0.771867 0.317892
vn 0.000000 -0.972542 -0.232730
vn -0.596427 -0.725052 -0.344345
vn -0.550602 0.771868 -0.317895
vn -0.550606 0.771868 0.317888
vn 0.550605 0.771867 0.317892
vn 0.596425 -0.725053 0.344348
vn -0.250979 -0.959825 0.125478
vn -0.207181 -0.968669 -0.136953
vn -0.693424 0.599075 -0.400340
vn -0.000001 0.599071 0.800696
vn -0.000001 -0.618969 -0.785416
vn 0.680187 -0.618970 0.392711
vn -0.000001 -0.618967 0.785417
vn -0.000001 0.599071 -0.800696
vn 0.693425 0.599076 0.400337
vn 0.250987 -0.959822 0.125487
vn 0.207179 -0.968670 -0.136953
vn 0.808164 0.359400 -0.466586
f 1/1/1 2/2/2 3/3/3
f 2/2/2 4/4/4 5/5/5
f 6/6/6 7/7/7 8/8/8
f 6/6/6 9/9/9 10/10/10
f 11/11/11 12/12/12 13/13/13
f 11/11/11 14/14/14 15/15/15
f 12/12/12 16/16/16 13/13/13
f 17/17/17 18/18/18 19/19/19
f 20/20/20 21/21/21 18/18/18
f 22/22/22 23/23/23 20/20/20
f 24/24/24 25/25/25 22/22/22
f 26/26/26 27/27/27 28/28/28
f 29/29/29 30/30/30 23/23/23
f 31/31/31 32/32/32 24/24/24
f 31/31/31 30/30/30 29/29/29
f 33/33/33 34/34/34 35/35/35
f 36/36/36 24/24/24 37/37/37
f 38/38/38 33/33/33 35/35/35
f 39/39/39 35/35/35 40/40/40
f 41/41/41 28/28/28 42/42/42
f 43/43/43 44/44/44 45/45/45
f 46/46/46 44/44/44 9/9/9
f 47/47/47 48/48/48 49/49/49
f 50/50/50 51/51/51 52/52/52
f 53/53/53 54/54/54 55/55/55
f 56/56/56 57/57/57 53/53/53
f 58/58/58 59/59/59 60/60/60
f 61/61/61 62/62/62 63/63/63
f 64/64/64 65/65/65 66/66/66
f 67/67/67 68/68/68 69/69/69
f 68/68/68 70/70/70 71/71/71
f 72/72/72 73/73/73 74/74/74
f 56/56/56 74/74/74 75/75/75
f 76/76/76 73/73/73 77/77/77
f 78/78/78 79/79/79 80/80/80
f 81/81/81 61/61/61 82/82/82
f 55/55/55 83/83/83 76/76/76
f 84/84/84 47/47/47 49/49/49
f 85/85/85 86/86/86 87/87/87
f 8/8/8 88/88/88 89/89/89
f 89/89/89 90/90/90 43/43/43
f 91/91/91 92/92/92 93/93/93
f 92/92/92 94/94/94 95/95/95
f 18/18/18 30/30/30 96/96/96
f 1/1/1 97/97/97 2/2/2
f 2/2/2 97/97/97 4/4/4
f 6/6/6 10/10/10 7/7/7
f 6/6/6 46/46/46 9/9/9
f 11/11/11 98/98/98 12/12/12
f 11/11/11 13/13/13 14/14/14
f 12/12/12 99/99/99 16/16/16
f 17/17/17 20/20/20 18/18/18
f 20/20/20 23/23/23 21/21/21
f 22/22/22 25/25/25 23/23/23
f 24/24/24 32/32/32 25/25/25
f 26/26/26 100/100/100 27/27/27
f 30/30/30 21/21/21 23/23/23
f 23/23/23 25/25/25 32/32/32
f 32/32/32 29/29/29 23/23/23
f 31/31/31 29/29/29 32/32/32
f 31/31/31 96/96/96 30/30/30
f 33/33/33 101/101/101 34/34/34
f 36/36/36 31/31/31 24/24/24
f 38/38/38 102/102/102 33/33/33
f 39/39/39 38/38/38 35/35/35
f 41/41/41 26/26/26 28/28/28
f 43/43/43 90/90/90 44/44/44
f 46/46/46 45/45/45 44/44/44
f 47/47/47 103/103/103 48/48/48
f 50/50/50 104/104/104 51/51/51
f 53/53/53 57/57/57 54/54/54
f 56/56/56 75/75/75 57/57/57
f 58/58/58 105/105/105 59/59/59
f 61/61/61 106/106/106 62/62/62
f 65/65/65 107/107/107 66/66/66
f 66/66/66 108/108/108 109/109/109
f 109/109/109 64/64/64 66/66/66
f 67/67/67 110/110/110 68/68/68
f 68/68/68 110/110/110 70/70/70
f 72/72/72 77/77/77 73/73/73
f 56/56/56 72/72/72 74/74/74
f 76/76/76 83/83/83 73/73/73
f 78/78/78 111/111/111 79/79/79
f 81/81/81 106/106/106 61/61/61
f 55/55/55 54/54/54 83/83/83
f 84/84/84 112/112/112 47/47/47
f 85/85/85 113/113/113 86/86/86
f 8/8/8 7/7/7 88/88/88
f 89/89/89 88/88/88 90/90/90
f 91/91/91 114/114/114 92/92/92
f 92/92/92 114/114/114 94/94/94
f 18/18/18 21/21/21 30/30/30
