# Cube.004 -- imported by tools/import_asset_pack.py from Shovel.fbx
o __pending__
v 1.443986 0.095640 -0.044613
v 1.482622 -0.515425 -0.022306
v 1.443986 -0.515425 -0.044613
v 1.482622 0.095640 -0.022306
v 1.482622 -0.515425 0.022306
v 1.482622 -0.515425 -0.022306
v 1.482622 0.095640 0.022306
v 1.443986 -0.515425 0.044613
v 1.482622 -0.515425 0.022306
v 1.443986 0.095640 0.044613
v 1.405350 -0.515425 0.022306
v 1.443986 0.095640 0.044613
v 1.482622 0.095640 0.022306
v 1.443986 0.095640 -0.044613
v 1.405350 0.095640 0.022306
v 1.405350 -0.515425 -0.022306
v 1.405350 -0.515425 0.022306
v 1.405350 0.095640 -0.022306
v 1.405350 -0.515425 -0.022306
v 1.443986 -1.004360 0.044613
v 1.405350 -1.004360 0.022306
v 1.405350 -1.004360 -0.022306
v 1.405350 -0.842670 -0.022306
v 1.443986 -1.004360 -0.044612
v 1.405350 -1.004360 -0.022306
v 1.482622 -0.515425 0.022306
v 1.492510 -0.515425 -0.028015
v 1.482622 -0.515425 -0.022306
v 1.405350 -0.842670 0.022306
v 1.395463 -0.842670 -0.028015
v 1.405350 -0.842670 -0.022306
v 1.443986 -0.842670 0.044613
v 1.405350 -1.004360 0.022306
v 1.443986 -1.004360 0.044613
v 1.443986 -0.515425 0.044613
v 1.395463 -0.515425 0.028015
v 1.443986 -0.515425 0.056030
v 1.482622 -0.842670 0.022306
v 1.482622 -1.004360 0.022306
v 1.482622 -0.842670 -0.022306
v 1.492510 -0.842670 0.028015
v 1.482622 -0.842670 0.022306
v 1.482622 -0.842670 -0.022306
v 1.482622 -1.004360 0.022306
v 1.482622 -1.004360 -0.022306
v 1.443986 -0.515425 -0.044613
v 1.395463 -0.515425 -0.028015
v 1.405350 -0.515425 -0.022306
v 1.482622 -0.842670 -0.022306
v 1.482622 -1.004360 -0.022306
v 1.443986 -0.515425 -0.056030
v 1.395463 -0.515425 -0.028015
v 1.443986 -0.842670 -0.056030
v 1.395463 -0.842670 -0.028015
v 1.395463 -0.515425 0.028015
v 1.395463 -0.842670 0.028015
v 1.443986 -0.515425 0.056030
v 1.395463 -0.842670 0.028015
v 1.443986 -0.842670 0.056030
v 1.492510 -0.515425 0.028015
v 1.492510 -0.842670 0.028015
v 1.492510 -0.515425 -0.028015
v 1.492510 -0.842670 0.028015
v 1.492510 -0.842670 -0.028015
v 1.492510 -0.515425 -0.028015
v 1.492510 -0.842670 -0.028015
v 1.443986 -0.842670 0.044613
v 1.443986 -0.842670 0.056030
v 1.405350 -0.515425 0.022306
v 1.443986 -0.842670 -0.044613
v 1.492510 -0.842670 -0.028015
v 1.443986 -0.842670 -0.056030
v 1.492510 -0.515425 0.028015
v 1.482622 0.095640 -0.022306
v 1.482622 0.095640 0.022306
v 1.405350 0.095640 0.022306
v 1.482622 0.095640 -0.022306
v 1.405350 0.095640 -0.022306
v 1.405350 0.095640 0.022306
v 1.405350 0.095640 -0.022306
v 1.443986 -1.004360 -0.044612
v 1.482622 -1.004360 -0.022306
v 1.482622 -1.004360 0.022306
v 1.443986 -0.842670 -0.044613
v 1.405350 -0.842670 0.022306
v 1.482622 -0.842670 0.022306
v 1.443986 -0.515425 -0.056030
v 1.395463 -0.515425 -0.028015
v 1.395463 -0.515425 0.028015
v 1.492510 -0.515425 0.028015
vt 0.622615 0.996375
vt 0.641259 0.601872
vt 0.622615 0.602191
vt 0.112912 0.523807
vt 0.134208 0.296504
vt 0.112912 0.281242
vt 0.648508 0.996309
vt 0.675624 0.602022
vt 0.648508 0.602094
vt 0.675624 0.996237
vt 0.697538 0.602160
vt 0.821833 0.621409
vt 0.800247 0.631322
vt 0.821833 0.676239
vt 0.083081 0.209628
vt 0.111724 0.014249
vt 0.083081 0.011808
vt 0.594304 0.996300
vt 0.594304 0.602116
vt 0.006537 0.027246
vt 0.020297 0.048833
vt 0.049043 0.048833
vt 0.389156 0.195776
vt 0.417467 0.091549
vt 0.389156 0.091473
vt 0.750852 0.620035
vt 0.733332 0.644949
vt 0.739411 0.644949
vt 0.024742 0.100988
vt 0.057010 0.106512
vt 0.053488 0.100988
vt 0.470477 0.195713
vt 0.492390 0.091541
vt 0.470477 0.091403
vt 0.774606 0.620035
vt 0.792998 0.644949
vt 0.777534 0.613659
vt 0.443360 0.195785
vt 0.443360 0.091474
vt 0.054715 0.057815
vt 0.022447 0.052290
vt 0.025968 0.057815
vt 0.704787 0.660976
vt 0.726083 0.612055
vt 0.704787 0.596793
vt 0.751724 0.669863
vt 0.778629 0.676239
vt 0.775478 0.669863
vt 0.436111 0.195532
vt 0.436111 0.091229
vt 0.748796 0.676239
vt 0.141457 0.538974
vt 0.177014 0.327971
vt 0.141457 0.327876
vt 0.029903 0.212069
vt 0.020906 0.106512
vt 0.175514 0.320148
vt 0.203035 0.109206
vt 0.175514 0.109032
vt 0.141457 0.320237
vt 0.141457 0.109122
vt 0.228156 0.176683
vt 0.254903 0.065950
vt 0.228156 0.046782
vt 0.200429 0.538668
vt 0.200429 0.327570
vt 0.010982 0.079401
vt 0.003625 0.079401
vt 0.786919 0.644949
vt 0.068475 0.079401
vt 0.058550 0.052290
vt 0.075832 0.079401
vt 0.747701 0.613659
vt 0.641259 0.996056
vt 0.134208 0.539069
vt 0.697538 0.996375
vt 0.800247 0.658737
vt 0.843419 0.666326
vt 0.843419 0.638911
vt 0.111724 0.212069
vt 0.064030 0.027246
vt 0.050270 0.005660
vt 0.021523 0.005660
vt 0.417467 0.195851
vt 0.492390 0.195851
vt 0.726083 0.676239
vt 0.177014 0.539069
vt 0.066006 0.212069
vt 0.203035 0.320321
vt 0.254903 0.195851
vn 0.000004 0.609992 -0.792408
vn 0.471725 0.838629 -0.272355
vn -0.000003 0.838625 -0.544709
vn 0.686245 0.609994 -0.396200
vn 0.471731 0.838627 0.272351
vn 0.471725 0.838629 -0.272355
vn 0.686243 0.609991 0.396208
vn 0.000003 0.838626 0.544708
vn 0.471731 0.838627 0.272351
vn -0.000004 0.609985 0.792413
vn -0.471726 0.838628 0.272355
vn -0.000004 0.609985 0.792413
vn 0.686243 0.609991 0.396208
vn 0.000004 0.609992 -0.792408
vn -0.686247 0.609991 0.396201
vn -0.471729 0.838628 -0.272352
vn -0.471726 0.838628 0.272355
vn -0.686241 0.609994 -0.396207
vn -0.471729 0.838628 -0.272352
vn -0.000010 -0.610004 0.792399
vn -0.686241 -0.610006 0.396190
vn -0.686232 -0.610003 -0.396209
vn -0.471722 -0.838635 -0.272342
vn -0.000000 -0.610005 -0.792397
vn -0.686232 -0.610003 -0.396209
vn 0.471731 0.838627 0.272351
vn 0.686241 0.609998 -0.396202
vn 0.471725 0.838629 -0.272355
vn -0.471715 -0.838635 0.272354
vn -0.686242 -0.609995 -0.396205
vn -0.471722 -0.838635 -0.272342
vn 0.000007 -0.838633 0.544697
vn -0.686241 -0.610006 0.396190
vn -0.000010 -0.610004 0.792399
vn 0.000003 0.838626 0.544708
vn -0.686241 0.609996 0.396205
vn 0.000003 0.609990 0.792409
vn 0.471722 -0.838635 0.272340
vn 0.686231 -0.610005 0.396208
vn 0.471713 -0.838639 -0.272344
vn 0.686242 -0.609995 0.396205
vn 0.471722 -0.838635 0.272340
vn 0.471713 -0.838639 -0.272344
vn 0.686231 -0.610005 0.396208
vn 0.686243 -0.609994 -0.396203
vn -0.000003 0.838625 -0.544709
vn -0.686245 0.609994 -0.396202
vn -0.471729 0.838628 -0.272352
vn 0.471713 -0.838639 -0.272344
vn 0.686243 -0.609994 -0.396203
vn 0.000000 0.609988 -0.792411
vn -0.686245 0.609994 -0.396202
vn 0.000000 -0.609992 -0.792407
vn -0.686242 -0.609995 -0.396205
vn -0.686241 0.609996 0.396205
vn -0.686246 -0.609993 0.396201
vn 0.000003 0.609990 0.792409
vn -0.686246 -0.609993 0.396201
vn -0.000003 -0.609990 0.792409
vn 0.686246 0.609993 0.396201
vn 0.686242 -0.609995 0.396205
vn 0.686241 0.609998 -0.396202
vn 0.686242 -0.609995 0.396205
vn 0.686246 -0.609990 -0.396205
vn 0.686241 0.609998 -0.396202
vn 0.686246 -0.609990 -0.396205
vn 0.000007 -0.838633 0.544697
vn -0.000003 -0.609990 0.792409
vn -0.471726 0.838628 0.272355
vn -0.000000 -0.838628 -0.544705
vn 0.686246 -0.609990 -0.396205
vn 0.000000 -0.609992 -0.792407
vn 0.686246 0.609993 0.396201
vn 0.686245 0.609994 -0.396200
vn 0.686243 0.609991 0.396208
vn -0.686247 0.609991 0.396201
vn 0.686245 0.609994 -0.396200
vn -0.686241 0.609994 -0.396207
vn -0.686247 0.609991 0.396201
vn -0.686241 0.609994 -0.396207
vn -0.000000 -0.610005 -0.792397
vn 0.686243 -0.609994 -0.396203
vn 0.686231 -0.610005 0.396208
vn -0.000000 -0.838628 -0.544705
vn -0.471715 -0.838635 0.272354
vn 0.471722 -0.838635 0.272340
vn 0.000000 0.609988 -0.792411
vn -0.686245 0.609994 -0.396202
vn -0.686241 0.609996 0.396205
vn 0.686246 0.609993 0.396201
f 1/1/1 2/2/2 3/3/3
f 4/4/4 5/5/5 6/6/6
f 7/7/7 8/8/8 9/9/9
f 10/10/10 11/11/11 8/8/8
f 12/12/12 13/13/13 14/14/14
f 15/15/15 16/16/16 17/17/17
f 18/18/18 3/3/3 19/19/19
f 20/20/20 21/21/21 22/22/22
f 23/23/23 24/24/24 25/25/25
f 26/26/26 27/27/27 28/28/28
f 29/29/29 22/22/22 21/21/21
f 29/29/29 30/30/30 31/31/31
f 32/32/32 33/33/33 34/34/34
f 35/35/35 36/36/36 37/37/37
f 38/38/38 34/34/34 39/39/39
f 40/40/40 41/41/41 42/42/42
f 43/43/43 44/44/44 45/45/45
f 46/46/46 47/47/47 48/48/48
f 24/24/24 49/49/49 50/50/50
f 46/46/46 27/27/27 51/51/51
f 52/52/52 53/53/53 54/54/54
f 55/55/55 30/30/30 56/56/56
f 57/57/57 58/58/58 59/59/59
f 60/60/60 59/59/59 61/61/61
f 62/62/62 63/63/63 64/64/64
f 53/53/53 65/65/65 66/66/66
f 67/67/67 41/41/41 68/68/68
f 48/48/48 36/36/36 69/69/69
f 70/70/70 71/71/71 40/40/40
f 70/70/70 30/30/30 72/72/72
f 35/35/35 73/73/73 26/26/26
f 67/67/67 56/56/56 29/29/29
f 1/1/1 74/74/74 2/2/2
f 4/4/4 75/75/75 5/5/5
f 7/7/7 10/10/10 8/8/8
f 10/10/10 76/76/76 11/11/11
f 13/13/13 77/77/77 14/14/14
f 14/14/14 78/78/78 79/79/79
f 79/79/79 12/12/12 14/14/14
f 15/15/15 80/80/80 16/16/16
f 18/18/18 1/1/1 3/3/3
f 22/22/22 81/81/81 20/20/20
f 81/81/81 82/82/82 20/20/20
f 82/82/82 83/83/83 20/20/20
f 23/23/23 84/84/84 24/24/24
f 26/26/26 73/73/73 27/27/27
f 29/29/29 31/31/31 22/22/22
f 29/29/29 56/56/56 30/30/30
f 32/32/32 85/85/85 33/33/33
f 35/35/35 69/69/69 36/36/36
f 38/38/38 32/32/32 34/34/34
f 40/40/40 71/71/71 41/41/41
f 43/43/43 86/86/86 44/44/44
f 46/46/46 51/51/51 47/47/47
f 24/24/24 84/84/84 49/49/49
f 46/46/46 28/28/28 27/27/27
f 52/52/52 87/87/87 53/53/53
f 55/55/55 88/88/88 30/30/30
f 57/57/57 89/89/89 58/58/58
f 60/60/60 57/57/57 59/59/59
f 62/62/62 90/90/90 63/63/63
f 53/53/53 87/87/87 65/65/65
f 67/67/67 42/42/42 41/41/41
f 48/48/48 47/47/47 36/36/36
f 70/70/70 72/72/72 71/71/71
f 70/70/70 31/31/31 30/30/30
f 35/35/35 37/37/37 73/73/73
f 67/67/67 68/68/68 56/56/56
