# Cube.011 -- imported by tools/import_asset_pack.py from Shovel.fbx
o __pending__
v 2.355251 0.395697 -1.008567
v 2.567812 0.663804 -0.460069
v 2.394443 0.373069 -1.008567
v 2.567812 0.418359 -0.460069
v 2.394443 0.327813 -1.008567
v 2.697052 0.373918 -0.048945
v 2.355251 0.786526 -0.460069
v 2.697052 0.768596 -0.048945
v 2.697052 0.373918 -0.048945
v 2.768212 0.807552 -0.081244
v 2.768022 0.330788 -0.075918
v 2.697052 0.768596 -0.048945
v 2.355251 1.045965 -0.083870
v 2.013450 0.768596 -0.048945
v 2.355251 0.786526 -0.460069
v 2.142690 0.663804 -0.460069
v 2.013450 0.768596 -0.048945
v 2.355251 0.965935 -0.048945
v 1.899783 0.846023 0.058958
v 2.355251 1.045965 -0.083870
v 1.942290 0.807552 -0.081244
v 2.355251 1.045965 -0.083870
v 2.810719 0.846023 0.058958
v 2.768212 0.807552 -0.081244
v 2.355251 1.027195 0.091433
v 2.810719 0.846023 0.058958
v 2.355251 1.107224 0.056509
v 1.899783 0.846023 0.058958
v 1.969321 0.804378 0.091433
v 2.813735 0.318463 0.064271
v 2.768022 0.330788 -0.075918
v 2.741181 0.804378 0.091433
v 2.813735 0.318463 0.064271
v 2.667951 0.762099 0.091433
v 2.741181 0.358744 0.091433
v 2.667951 0.401023 0.091433
v 2.355251 0.135927 0.091433
v 2.355251 0.220485 0.091433
v 2.355251 0.052055 0.067144
v 2.667951 0.762099 0.091433
v 2.543025 0.473149 -0.299392
v 2.667951 0.401023 0.091433
v 2.355251 0.220485 0.091433
v 2.355251 0.364738 -0.299392
v 2.042550 0.401023 0.091433
v 1.969321 0.358744 0.091433
v 2.042550 0.401023 0.091433
v 2.355251 0.364738 -0.299392
v 2.167477 0.473149 -0.299392
v 2.167477 0.473149 -0.299392
v 2.355251 0.364738 -0.299392
v 2.543025 0.473149 -0.299392
v 2.167477 0.689972 -0.299392
v 2.042550 0.762099 0.091433
v 2.042550 0.762099 0.091433
v 2.355251 0.798384 -0.299392
v 2.355251 0.942636 0.091433
v 2.355251 0.942636 0.091433
v 2.543025 0.689972 -0.299392
v 2.667951 0.762099 0.091433
v 1.896767 0.318463 0.064271
v 1.896767 0.318463 0.064271
v 1.942290 0.807552 -0.081244
v 1.942480 0.330788 -0.075918
v 2.355251 0.052055 0.067144
v 1.942480 0.330788 -0.075918
v 2.355251 0.092708 -0.073234
v 2.355251 0.176579 -0.048945
v 2.013450 0.373918 -0.048945
v 2.355251 0.176579 -0.048945
v 2.142690 0.418359 -0.460069
v 2.355251 0.295637 -0.460069
v 2.142690 0.663804 -0.460069
v 2.142690 0.418359 -0.460069
v 2.567812 0.418359 -0.460069
v 2.355251 0.092708 -0.073234
v 2.394443 0.327813 -1.008567
v 2.355251 0.305186 -1.008567
v 2.316058 0.327813 -1.008567
v 2.355251 0.305186 -1.008567
v 2.316058 0.327813 -1.008567
v 2.316058 0.373069 -1.008567
v 2.355251 0.395697 -1.008567
v 2.316058 0.373069 -1.008567
v 2.768022 0.330788 -0.075918
v 2.355251 0.965935 -0.048945
v 2.355251 0.965935 -0.048945
v 2.355251 1.107224 0.056509
v 2.355251 1.107224 0.056509
v 2.543025 0.689972 -0.299392
v 2.355251 0.220485 0.091433
v 2.543025 0.689972 -0.299392
v 2.355251 0.798384 -0.299392
v 2.167477 0.689972 -0.299392
v 1.899783 0.846023 0.058958
v 1.896767 0.318463 0.064271
v 2.013450 0.373918 -0.048945
v 2.697052 0.373918 -0.048945
v 2.355251 0.395697 -1.008567
v 2.394443 0.373069 -1.008567
v 2.394443 0.327813 -1.008567
v 2.813735 0.318463 0.064271
vt 0.028569 0.557935
vt 0.098331 0.800704
vt 0.046031 0.554364
vt 0.138750 0.757070
vt 0.053483 0.546318
vt 0.220907 0.895063
vt 0.003625 0.820075
vt 0.155913 0.965227
vt 0.539812 0.314131
vt 0.568984 0.485196
vt 0.569855 0.297418
vt 0.538449 0.469550
vt 0.415315 0.578549
vt 0.929965 0.695598
vt 0.809853 0.831197
vt 0.906520 0.831197
vt 0.284859 0.468643
vt 0.410973 0.546806
vt 0.937214 0.789588
vt 0.983557 0.984477
vt 0.983241 0.796674
vt 0.003625 0.514151
vt 0.105663 0.337748
vt 0.046448 0.331295
vt 0.559912 0.878627
vt 0.407613 0.996375
vt 0.585896 0.896812
vt 0.587055 0.692555
vt 0.560317 0.705387
vt 0.058575 0.219318
vt 0.003625 0.225227
vt 0.408270 0.962822
vt 0.228156 0.891631
vt 0.408347 0.929950
vt 0.257033 0.873775
vt 0.285807 0.857799
vt 0.257438 0.700534
vt 0.286135 0.717431
vt 0.228156 0.685300
vt 0.842138 0.578549
vt 0.981591 0.502028
vt 0.817518 0.502028
vt 0.842138 0.361968
vt 0.996375 0.417923
vt 0.409003 0.649212
vt 0.409080 0.616340
vt 0.381907 0.195851
vt 0.262152 0.082065
vt 0.262152 0.167459
vt 0.395718 0.729837
vt 0.321937 0.770801
vt 0.321740 0.855092
vt 0.469303 0.773162
vt 0.531543 0.721362
vt 0.817518 0.354719
vt 0.972004 0.250779
vt 0.821556 0.283470
vt 0.531215 0.861731
vt 0.969579 0.165419
vt 0.817518 0.141320
vt 0.408787 0.585798
vt 0.228156 0.290489
vt 0.262598 0.484101
vt 0.263610 0.296323
vt 0.704787 0.787652
vt 0.767274 0.981632
vt 0.760894 0.794067
vt 0.413698 0.235968
vt 0.286222 0.313224
vt 0.732545 0.198149
vt 0.612434 0.361869
vt 0.709101 0.361869
vt 0.387531 0.430246
vt 0.388378 0.333593
vt 0.757436 0.365988
vt 0.417200 0.203100
vt 0.716132 0.578549
vt 0.707220 0.577790
vt 0.689397 0.577790
vt 0.540154 0.292908
vt 0.525537 0.301766
vt 0.525381 0.319587
vt 0.886816 0.996375
vt 0.904639 0.996375
vt 0.767274 0.699940
vt 0.003625 0.996375
vt 0.774524 0.695598
vt 0.937214 0.996375
vt 0.058423 0.539069
vt 0.996375 0.547978
vt 0.381907 0.053645
vt 0.395324 0.898417
vt 0.469106 0.857453
vt 0.969579 0.293564
vt 0.228156 0.498274
vt 0.711876 0.996375
vt 0.577104 0.198149
vt 0.810269 0.204773
vt 0.539842 0.328550
vt 0.554459 0.319691
vt 0.554615 0.301870
vt 0.711876 0.683488
vn -0.000001 0.561333 -0.827590
vn 0.778279 0.465038 -0.421926
vn 0.574743 0.255600 -0.777393
vn 0.847798 -0.459540 -0.264689
vn 0.604175 -0.434147 -0.668199
vn 0.198242 -0.115301 -0.973348
vn -0.000000 0.877803 -0.479022
vn 0.142071 0.083330 -0.986343
vn 0.198242 -0.115301 -0.973348
vn 0.493922 0.257453 -0.830517
vn 0.509120 -0.324510 -0.797176
vn 0.142071 0.083330 -0.986343
vn -0.000000 0.531982 -0.846756
vn -0.142071 0.083330 -0.986343
vn -0.000000 0.877803 -0.479022
vn -0.778279 0.465037 -0.421926
vn -0.142071 0.083330 -0.986343
vn 0.000000 0.133618 -0.991033
vn -0.808211 0.488705 0.328576
vn -0.000000 0.531982 -0.846756
vn -0.493922 0.257453 -0.830517
vn -0.000000 0.531982 -0.846756
vn 0.808211 0.488705 0.328576
vn 0.493922 0.257453 -0.830517
vn -0.000000 0.265820 0.964023
vn 0.808211 0.488705 0.328576
vn -0.000000 0.952471 0.304630
vn -0.808211 0.488705 0.328576
vn -0.212320 0.125945 0.969050
vn 0.810235 -0.446242 0.379983
vn 0.509120 -0.324510 -0.797176
vn 0.212321 0.125945 0.969050
vn 0.810235 -0.446242 0.379983
vn -0.360153 -0.207937 0.909424
vn 0.179470 -0.102772 0.978381
vn -0.360155 0.207936 0.909423
vn -0.000000 -0.185626 0.982620
vn 0.000002 0.415868 0.909425
vn -0.000000 -0.913221 0.407464
vn -0.360153 -0.207937 0.909424
vn -0.583525 0.336898 0.738917
vn -0.360155 0.207936 0.909423
vn 0.000002 0.415868 0.909425
vn 0.000008 0.673790 0.738923
vn 0.360151 0.207933 0.909426
vn -0.179470 -0.102772 0.978381
vn 0.360151 0.207933 0.909426
vn 0.000008 0.673790 0.738923
vn 0.583516 0.336893 0.738927
vn 0.583516 0.336893 0.738927
vn 0.000008 0.673790 0.738923
vn -0.583525 0.336898 0.738917
vn 0.583523 -0.336887 0.738923
vn 0.360154 -0.207932 0.909425
vn 0.360154 -0.207932 0.909425
vn 0.000008 -0.673791 0.738922
vn 0.000002 -0.415869 0.909425
vn 0.000002 -0.415869 0.909425
vn -0.583520 -0.336905 0.738918
vn -0.360153 -0.207937 0.909424
vn -0.810235 -0.446242 0.379983
vn -0.810235 -0.446242 0.379983
vn -0.493922 0.257453 -0.830517
vn -0.509120 -0.324510 -0.797176
vn -0.000000 -0.913221 0.407464
vn -0.509120 -0.324510 -0.797176
vn -0.000000 -0.625263 -0.780414
vn -0.000000 -0.262847 -0.964838
vn -0.198242 -0.115300 -0.973348
vn -0.000000 -0.262847 -0.964838
vn -0.847799 -0.459540 -0.264690
vn -0.000001 -0.987808 -0.155677
vn -0.778279 0.465037 -0.421926
vn -0.847799 -0.459540 -0.264690
vn 0.847798 -0.459540 -0.264689
vn -0.000000 -0.625263 -0.780414
vn 0.604175 -0.434147 -0.668199
vn -0.000002 -0.787332 -0.616529
vn -0.604176 -0.434145 -0.668199
vn -0.000002 -0.787332 -0.616529
vn -0.604176 -0.434145 -0.668199
vn -0.574743 0.255599 -0.777393
vn -0.000001 0.561333 -0.827590
vn -0.574743 0.255599 -0.777393
vn 0.509120 -0.324510 -0.797176
vn 0.000000 0.133618 -0.991033
vn 0.000000 0.133618 -0.991033
vn -0.000000 0.952471 0.304630
vn -0.000000 0.952471 0.304630
vn -0.583520 -0.336905 0.738918
vn 0.000002 0.415868 0.909425
vn -0.583520 -0.336905 0.738918
vn 0.000008 -0.673791 0.738922
vn 0.583523 -0.336887 0.738923
vn -0.808211 0.488705 0.328576
vn -0.810235 -0.446242 0.379983
vn -0.198242 -0.115300 -0.973348
vn 0.198242 -0.115301 -0.973348
vn -0.000001 0.561333 -0.827590
vn 0.574743 0.255600 -0.777393
vn 0.604175 -0.434147 -0.668199
vn 0.810235 -0.446242 0.379983
f 1/1/1 2/2/2 3/3/3
f 3/3/3 4/4/4 5/5/5
f 2/2/2 6/6/6 4/4/4
f 7/7/7 8/8/8 2/2/2
f 9/9/9 10/10/10 11/11/11
f 12/12/12 13/13/13 10/10/10
f 14/14/14 15/15/15 16/16/16
f 17/17/17 13/13/13 18/18/18
f 19/19/19 20/20/20 21/21/21
f 22/22/22 23/23/23 24/24/24
f 25/25/25 26/26/26 27/27/27
f 25/25/25 28/28/28 29/29/29
f 24/24/24 30/30/30 31/31/31
f 32/32/32 33/33/33 26/26/26
f 25/25/25 34/34/34 32/32/32
f 35/35/35 34/34/34 36/36/36
f 37/37/37 36/36/36 38/38/38
f 35/35/35 39/39/39 33/33/33
f 40/40/40 41/41/41 42/42/42
f 43/43/43 41/41/41 44/44/44
f 37/37/37 45/45/45 46/46/46
f 47/47/47 48/48/48 49/49/49
f 50/50/50 51/51/51 52/52/52
f 45/45/45 53/53/53 54/54/54
f 55/55/55 56/56/56 57/57/57
f 46/46/46 54/54/54 29/29/29
f 29/29/29 58/58/58 25/25/25
f 57/57/57 59/59/59 60/60/60
f 29/29/29 61/61/61 46/46/46
f 46/46/46 39/39/39 37/37/37
f 62/62/62 63/63/63 64/64/64
f 65/65/65 66/66/66 67/67/67
f 68/68/68 64/64/64 69/69/69
f 69/69/69 63/63/63 17/17/17
f 70/70/70 71/71/71 72/72/72
f 69/69/69 73/73/73 74/74/74
f 75/75/75 70/70/70 72/72/72
f 68/68/68 11/11/11 76/76/76
f 77/77/77 72/72/72 78/78/78
f 72/72/72 79/79/79 78/78/78
f 80/80/80 81/81/81 82/82/82
f 74/74/74 82/82/82 81/81/81
f 16/16/16 83/83/83 84/84/84
f 85/85/85 65/65/65 67/67/67
f 1/1/1 7/7/7 2/2/2
f 3/3/3 2/2/2 4/4/4
f 2/2/2 8/8/8 6/6/6
f 7/7/7 86/86/86 8/8/8
f 9/9/9 12/12/12 10/10/10
f 12/12/12 18/18/18 13/13/13
f 14/14/14 87/87/87 15/15/15
f 17/17/17 63/63/63 13/13/13
f 19/19/19 88/88/88 20/20/20
f 22/22/22 89/89/89 23/23/23
f 25/25/25 32/32/32 26/26/26
f 25/25/25 27/27/27 28/28/28
f 24/24/24 23/23/23 30/30/30
f 32/32/32 35/35/35 33/33/33
f 25/25/25 58/58/58 34/34/34
f 35/35/35 32/32/32 34/34/34
f 37/37/37 35/35/35 36/36/36
f 35/35/35 37/37/37 39/39/39
f 40/40/40 90/90/90 41/41/41
f 43/43/43 42/42/42 41/41/41
f 37/37/37 38/38/38 45/45/45
f 47/47/47 91/91/91 48/48/48
f 52/52/52 92/92/92 50/50/50
f 92/92/92 93/93/93 50/50/50
f 93/93/93 53/53/53 50/50/50
f 45/45/45 50/50/50 53/53/53
f 55/55/55 94/94/94 56/56/56
f 46/46/46 45/45/45 54/54/54
f 29/29/29 54/54/54 58/58/58
f 57/57/57 56/56/56 59/59/59
f 29/29/29 28/28/28 61/61/61
f 46/46/46 61/61/61 39/39/39
f 62/62/62 95/95/95 63/63/63
f 65/65/65 96/96/96 66/66/66
f 68/68/68 76/76/76 64/64/64
f 69/69/69 64/64/64 63/63/63
f 70/70/70 97/97/97 71/71/71
f 69/69/69 17/17/17 73/73/73
f 75/75/75 98/98/98 70/70/70
f 68/68/68 9/9/9 11/11/11
f 77/77/77 75/75/75 72/72/72
f 72/72/72 71/71/71 79/79/79
f 82/82/82 99/99/99 80/80/80
f 99/99/99 100/100/100 80/80/80
f 100/100/100 101/101/101 80/80/80
f 74/74/74 73/73/73 82/82/82
f 16/16/16 15/15/15 83/83/83
f 85/85/85 102/102/102 65/65/65
