# Cube.005 -- imported by tools/import_asset_pack.py from Shovel.fbx
o __pending__
v 4.470391 -0.558328 -0.370158
v 5.015921 -1.298645 -0.261741
v 4.470391 -1.298645 -0.370158
v 5.015921 -0.558328 -0.261741
v 5.121573 -1.298645 -0.000000
v 5.015921 -1.298645 -0.261741
v 5.121573 -0.558328 -0.000000
v 5.015921 -1.298645 0.261741
v 5.015921 -0.558328 0.261741
v 4.470391 -1.298645 0.370158
v 5.015921 -1.298645 0.261741
v 4.470391 -0.558328 0.370158
v 4.127224 -1.298645 0.261741
v 4.127224 -0.558328 0.261741
v 4.021572 -1.298645 -0.000000
v 4.127224 -1.298645 0.261741
v 4.209539 -0.558328 -0.222248
v 4.400495 -0.558328 -0.000000
v 4.444668 -0.558328 -0.109434
v 4.021572 -0.558328 -0.000000
v 4.127224 -1.298645 -0.261741
v 4.127224 -0.558328 -0.261741
v 4.127224 -1.298645 -0.261741
v 4.127224 -1.298645 0.261741
v 4.021572 -1.298645 -0.000000
v 4.127224 -1.298645 -0.261741
v 4.400495 -0.558328 -0.000000
v 4.444668 -0.772930 -0.109434
v 4.444668 -0.558328 -0.109434
v 4.933607 -0.558328 -0.222248
v 4.742650 -0.558328 -0.000000
v 5.023316 -0.558328 -0.000000
v 4.209539 -0.558328 0.222247
v 4.470391 -0.558328 0.154763
v 4.444668 -0.558328 0.109434
v 4.470391 -0.558328 -0.154763
v 4.470391 -0.558328 -0.314305
v 4.698477 -0.558328 -0.109434
v 4.933607 -0.558328 0.222247
v 4.698477 -0.558328 0.109434
v 4.119829 -0.558328 -0.000000
v 4.470391 -0.558328 0.314305
v 4.698477 -0.772930 -0.109434
v 4.444668 -0.772930 -0.109434
v 4.444668 -0.772930 0.109434
v 4.470391 -0.558328 0.154763
v 4.444668 -0.772930 0.109434
v 4.444668 -0.558328 0.109434
v 4.742650 -0.558328 -0.000000
v 4.698477 -0.772930 0.109434
v 4.698477 -0.558328 0.109434
v 4.470391 -0.558328 -0.154763
v 4.698477 -0.772930 -0.109434
v 4.698477 -0.558328 -0.109434
v 4.470391 -0.772930 -0.154763
v 4.470391 -0.558328 -0.154763
v 4.400495 -0.772930 -0.000000
v 4.698477 -0.558328 0.109434
v 4.470391 -0.772930 0.154763
v 4.470391 -0.558328 0.154763
v 4.698477 -0.558328 -0.109434
v 4.742650 -0.772930 -0.000000
v 4.470391 -0.558328 0.370158
v 4.127224 -0.558328 0.261741
v 4.021572 -0.558328 -0.000000
v 5.015921 -0.558328 0.261741
v 4.470391 -0.558328 -0.370158
v 5.015921 -0.558328 -0.261741
v 5.121573 -0.558328 -0.000000
v 4.127224 -0.558328 -0.261741
v 5.015921 -0.558328 -0.261741
v 5.015921 -0.558328 0.261741
v 4.127224 -0.558328 0.261741
v 4.127224 -0.558328 -0.261741
v 4.470391 -1.298645 -0.370158
v 4.470391 -1.298645 0.370158
v 5.015921 -1.298645 -0.261741
v 5.015921 -1.298645 0.261741
v 5.121573 -1.298645 -0.000000
v 4.742650 -0.772930 -0.000000
v 4.698477 -0.772930 0.109434
v 4.470391 -0.772930 -0.154763
v 4.400495 -0.772930 -0.000000
v 4.470391 -0.772930 0.154763
v 4.470391 -0.772930 0.154763
v 4.470391 -0.772930 -0.154763
v 4.698477 -0.772930 0.109434
v 4.698477 -0.772930 -0.109434
vt 0.508047 0.840480
vt 0.740309 0.994301
vt 0.749839 0.839063
vt 0.461284 0.349513
vt 0.547277 0.106631
vt 0.461284 0.106300
vt 0.547277 0.349845
vt 0.633270 0.106300
vt 0.712607 0.633130
vt 0.461284 0.476475
vt 0.470814 0.631713
vt 0.703077 0.477892
vt 0.461284 0.358409
vt 0.721171 0.351561
vt 0.807164 0.106049
vt 0.721171 0.109647
vt 0.211883 0.716097
vt 0.128037 0.763388
vt 0.160472 0.784629
vt 0.807164 0.347963
vt 0.893157 0.109647
vt 0.508047 0.722414
vt 0.749839 0.720996
vt 0.264363 0.944934
vt 0.341937 0.995718
vt 0.433042 0.978496
vt 0.758622 0.706716
vt 0.828986 0.670762
vt 0.758484 0.670762
vt 0.165513 0.949390
vt 0.106125 0.873630
vt 0.088151 0.964060
vt 0.068650 0.687627
vt 0.073691 0.775996
vt 0.089945 0.770611
vt 0.173431 0.795821
vt 0.224842 0.806039
vt 0.144218 0.866406
vt 0.022280 0.920921
vt 0.073691 0.852388
vt 0.146011 0.672958
vt 0.022280 0.765778
vt 0.170546 0.124003
vt 0.154292 0.042226
vt 0.083765 0.056244
vt 0.758403 0.757562
vt 0.828986 0.742669
vt 0.758484 0.742669
vt 0.407323 0.074446
vt 0.335693 0.110400
vt 0.405819 0.110400
vt 0.934776 0.365407
vt 0.864696 0.439542
vt 0.934776 0.440796
vt 0.828905 0.655870
vt 0.758403 0.655870
vt 0.829125 0.706716
vt 0.786051 0.440796
vt 0.856131 0.364153
vt 0.786051 0.365407
vt 0.405819 0.038493
vt 0.337198 0.074446
vt 0.004282 0.762200
vt 0.061195 0.658576
vt 0.152304 0.641300
vt 0.004282 0.944913
vt 0.242840 0.809616
vt 0.172968 0.978441
vt 0.081859 0.995718
vt 0.229880 0.692105
vt 0.498517 0.995718
vt 0.633270 0.349513
vt 0.703077 0.359826
vt 0.893157 0.351561
vt 0.489952 0.875003
vt 0.251404 0.827538
vt 0.489952 0.692479
vt 0.321273 0.658916
vt 0.412378 0.641695
vt 0.138112 0.145244
vt 0.100019 0.138021
vt 0.170546 0.047611
vt 0.116200 0.035003
vt 0.070806 0.067435
vt 0.828905 0.757562
vt 0.864696 0.364153
vt 0.856131 0.439542
vt 0.335693 0.038493
vn -0.041460 0.655200 -0.754317
vn 0.503376 -0.614108 -0.607852
vn -0.041458 -0.655237 -0.754285
vn 0.503366 0.614123 -0.607846
vn 0.775159 -0.631766 0.000008
vn 0.503376 -0.614108 -0.607852
vn 0.775165 0.631759 -0.000008
vn 0.503362 -0.614129 0.607842
vn 0.503377 0.614107 0.607853
vn -0.041459 -0.655224 0.754296
vn 0.503362 -0.614129 0.607842
vn -0.041460 0.655213 0.754306
vn -0.531481 -0.622546 0.574426
vn -0.531471 0.622543 0.574438
vn -0.775159 -0.631766 -0.000008
vn -0.531481 -0.622546 0.574426
vn -0.000000 1.000000 -0.000000
vn 0.597570 0.801817 -0.000002
vn 0.622746 0.722314 0.300747
vn -0.775165 0.631759 0.000008
vn -0.531471 -0.622543 -0.574438
vn -0.531484 0.622539 -0.574430
vn -0.531471 -0.622543 -0.574438
vn -0.531481 -0.622546 0.574426
vn -0.775159 -0.631766 -0.000008
vn -0.531471 -0.622543 -0.574438
vn 0.597570 0.801817 -0.000002
vn 0.649627 0.692501 0.313730
vn 0.622746 0.722314 0.300747
vn 0.000000 1.000000 -0.000000
vn -0.597570 0.801817 0.000002
vn 0.000000 1.000000 -0.000000
vn -0.000000 1.000000 -0.000000
vn 0.208753 0.865087 -0.456122
vn 0.622749 0.722311 -0.300750
vn 0.208757 0.865077 0.456139
vn 0.000000 1.000000 -0.000000
vn -0.354570 0.831241 0.428158
vn 0.000000 1.000000 -0.000000
vn -0.354575 0.831231 -0.428172
vn -0.000000 1.000000 -0.000000
vn -0.000000 1.000000 -0.000000
vn -0.503371 0.614112 0.607853
vn 0.649627 0.692501 0.313730
vn 0.649617 0.692514 -0.313724
vn 0.208753 0.865087 -0.456122
vn 0.649617 0.692514 -0.313724
vn 0.622749 0.722311 -0.300750
vn -0.597570 0.801817 0.000002
vn -0.503376 0.614112 -0.607848
vn -0.354575 0.831231 -0.428172
vn 0.208757 0.865077 0.456139
vn -0.503371 0.614112 0.607853
vn -0.354570 0.831241 0.428158
vn 0.334141 0.596084 0.730091
vn 0.208757 0.865077 0.456139
vn 0.775164 0.631760 0.000003
vn -0.354575 0.831231 -0.428172
vn 0.334141 0.596067 -0.730106
vn 0.208753 0.865087 -0.456122
vn -0.354570 0.831241 0.428158
vn -0.775164 0.631760 -0.000003
vn -0.041460 0.655213 0.754306
vn -0.531471 0.622543 0.574438
vn -0.775165 0.631759 0.000008
vn 0.503377 0.614107 0.607853
vn -0.041460 0.655200 -0.754317
vn 0.503366 0.614123 -0.607846
vn 0.775165 0.631759 -0.000008
vn -0.531484 0.622539 -0.574430
vn 0.503366 0.614123 -0.607846
vn 0.503377 0.614107 0.607853
vn -0.531471 0.622543 0.574438
vn -0.531484 0.622539 -0.574430
vn -0.041458 -0.655237 -0.754285
vn -0.041459 -0.655224 0.754296
vn 0.503376 -0.614108 -0.607852
vn 0.503362 -0.614129 0.607842
vn 0.775159 -0.631766 0.000008
vn -0.775164 0.631760 -0.000003
vn -0.503376 0.614112 -0.607848
vn 0.334141 0.596084 0.730091
vn 0.775164 0.631760 0.000003
vn 0.334141 0.596067 -0.730106
vn 0.334141 0.596067 -0.730106
vn 0.334141 0.596084 0.730091
vn -0.503376 0.614112 -0.607848
vn -0.503371 0.614112 0.607853
f 1/1/1 2/2/2 3/3/3
f 4/4/4 5/5/5 6/6/6
f 7/7/7 8/8/8 5/5/5
f 9/9/9 10/10/10 11/11/11
f 12/12/12 13/13/13 10/10/10
f 14/14/14 15/15/15 16/16/16
f 17/17/17 18/18/18 19/19/19
f 20/20/20 21/21/21 15/15/15
f 22/22/22 3/3/3 23/23/23
f 24/24/24 25/25/25 26/26/26
f 27/27/27 28/28/28 29/29/29
f 30/30/30 31/31/31 32/32/32
f 33/33/33 34/34/34 35/35/35
f 17/17/17 36/36/36 37/37/37
f 37/37/37 38/38/38 30/30/30
f 39/39/39 31/31/31 40/40/40
f 33/33/33 18/18/18 41/41/41
f 42/42/42 40/40/40 34/34/34
f 43/43/43 44/44/44 45/45/45
f 46/46/46 47/47/47 48/48/48
f 49/49/49 50/50/50 51/51/51
f 52/52/52 53/53/53 54/54/54
f 29/29/29 55/55/55 56/56/56
f 48/48/48 57/57/57 27/27/27
f 58/58/58 59/59/59 60/60/60
f 61/61/61 62/62/62 49/49/49
f 63/63/63 39/39/39 42/42/42
f 64/64/64 41/41/41 65/65/65
f 66/66/66 32/32/32 39/39/39
f 67/67/67 30/30/30 68/68/68
f 67/67/67 17/17/17 37/37/37
f 63/63/63 33/33/33 64/64/64
f 68/68/68 32/32/32 69/69/69
f 70/70/70 41/41/41 17/17/17
f 1/1/1 71/71/71 2/2/2
f 4/4/4 7/7/7 5/5/5
f 7/7/7 72/72/72 8/8/8
f 9/9/9 12/12/12 10/10/10
f 12/12/12 73/73/73 13/13/13
f 14/14/14 20/20/20 15/15/15
f 17/17/17 41/41/41 18/18/18
f 20/20/20 74/74/74 21/21/21
f 22/22/22 1/1/1 3/3/3
f 26/26/26 75/75/75 76/76/76
f 75/75/75 77/77/77 78/78/78
f 77/77/77 79/79/79 78/78/78
f 78/78/78 76/76/76 75/75/75
f 76/76/76 24/24/24 26/26/26
f 27/27/27 57/57/57 28/28/28
f 30/30/30 38/38/38 31/31/31
f 33/33/33 42/42/42 34/34/34
f 17/17/17 19/19/19 36/36/36
f 37/37/37 36/36/36 38/38/38
f 39/39/39 32/32/32 31/31/31
f 33/33/33 35/35/35 18/18/18
f 42/42/42 39/39/39 40/40/40
f 80/80/80 43/43/43 81/81/81
f 43/43/43 82/82/82 44/44/44
f 44/44/44 83/83/83 45/45/45
f 43/43/43 45/45/45 81/81/81
f 45/45/45 84/84/84 81/81/81
f 46/46/46 85/85/85 47/47/47
f 49/49/49 62/62/62 50/50/50
f 52/52/52 86/86/86 53/53/53
f 29/29/29 28/28/28 55/55/55
f 48/48/48 47/47/47 57/57/57
f 58/58/58 87/87/87 59/59/59
f 61/61/61 88/88/88 62/62/62
f 63/63/63 66/66/66 39/39/39
f 64/64/64 33/33/33 41/41/41
f 66/66/66 69/69/69 32/32/32
f 67/67/67 37/37/37 30/30/30
f 67/67/67 70/70/70 17/17/17
f 63/63/63 42/42/42 33/33/33
f 68/68/68 30/30/30 32/32/32
f 70/70/70 65/65/65 41/41/41
