# Cube.010 -- imported by tools/import_asset_pack.py from Shovel.fbx
o __pending__
v 3.829958 -0.916393 0.289146
v 3.431977 -1.220425 0.000000
v 3.829958 -0.916393 -0.289146
v 3.431977 -1.220425 0.000000
v 3.829958 -0.916393 0.289146
v 3.279966 -0.916393 0.467852
v 2.940044 -0.916393 0.000000
v 3.279966 -0.916393 -0.467852
v 3.829958 -0.916393 -0.289146
v 3.279966 -0.916393 -0.467852
v 2.940044 -0.916393 0.000000
v 3.033997 -0.424457 -0.289146
v 3.829958 -0.916393 -0.289146
v 3.279966 -0.916393 -0.467852
v 3.583989 -0.424457 -0.467852
v 3.033997 -0.424457 -0.289146
v 3.583989 -0.424457 -0.467852
v 3.923912 -0.424457 0.000000
v 3.583989 -0.424457 -0.467852
v 3.033997 -0.424457 -0.289146
v 3.431977 -0.120425 0.000000
v 3.923912 -0.424457 0.000000
v 3.583989 -0.424457 0.467852
v 3.033997 -0.424457 0.289146
v 3.033997 -0.424457 0.289146
v 3.431977 -0.120425 0.000000
v 3.279966 -0.916393 0.467852
v 3.583989 -0.424457 0.467852
v 3.033997 -0.424457 0.289146
v 3.279966 -0.916393 0.467852
v 3.583989 -0.424457 0.467852
v 3.829958 -0.916393 0.289146
vt 0.587614 0.295238
vt 0.650408 0.232838
vt 0.576402 0.184257
vt 0.853083 0.894692
vt 0.867945 0.816363
vt 0.764774 0.846231
vt 0.764774 0.956217
vt 0.867947 0.994322
vt 0.931710 0.907887
vt 0.171795 0.248566
vt 0.171795 0.157645
vt 0.082727 0.224776
vt 0.947506 0.167152
vt 0.852499 0.213817
vt 0.947340 0.272520
vt 0.852499 0.320584
vt 0.486010 0.158743
vt 0.486010 0.249446
vt 0.070671 0.259923
vt 0.005678 0.348932
vt 0.092008 0.355666
vt 0.175834 0.295567
vt 0.175834 0.406607
vt 0.070672 0.439587
vt 0.069129 0.114062
vt 0.005678 0.178048
vt 0.365319 0.130145
vt 0.270478 0.188848
vt 0.365319 0.236912
vt 0.149792 0.069426
vt 0.504150 0.338316
vt 0.270312 0.083480
vn 0.723607 -0.447214 0.525731
vn 0.000001 -1.000000 0.000000
vn 0.723607 -0.447214 -0.525731
vn 0.000001 -1.000000 0.000000
vn 0.723607 -0.447214 0.525731
vn -0.276388 -0.447212 0.850653
vn -0.894428 -0.447211 0.000000
vn -0.276388 -0.447212 -0.850653
vn 0.723607 -0.447214 -0.525731
vn -0.276388 -0.447212 -0.850653
vn -0.894428 -0.447211 0.000000
vn -0.723607 0.447214 -0.525731
vn 0.723607 -0.447214 -0.525731
vn -0.276388 -0.447212 -0.850653
vn 0.276388 0.447212 -0.850653
vn -0.723607 0.447214 -0.525731
vn 0.276388 0.447212 -0.850653
vn 0.894428 0.447211 -0.000000
vn 0.276388 0.447212 -0.850653
vn -0.723607 0.447214 -0.525731
vn -0.000001 1.000000 -0.000000
vn 0.894428 0.447211 -0.000000
vn 0.276388 0.447212 0.850653
vn -0.723607 0.447214 0.525731
vn -0.723607 0.447214 0.525731
vn -0.000001 1.000000 -0.000000
vn -0.276388 -0.447212 0.850653
vn 0.276388 0.447212 0.850653
vn -0.723607 0.447214 0.525731
vn -0.276388 -0.447212 0.850653
vn 0.276388 0.447212 0.850653
vn 0.723607 -0.447214 0.525731
f 1/1/1 2/2/2 3/3/3
f 4/4/4 5/5/5 6/6/6
f 4/4/4 6/6/6 7/7/7
f 4/4/4 8/8/8 9/9/9
f 4/4/4 7/7/7 8/8/8
f 10/10/10 11/11/11 12/12/12
f 13/13/13 14/14/14 15/15/15
f 14/14/14 16/16/16 15/15/15
f 3/3/3 17/17/17 18/18/18
f 19/19/19 20/20/20 21/21/21
f 22/22/22 19/19/19 21/21/21
f 23/23/23 22/22/22 21/21/21
f 24/24/24 23/23/23 21/21/21
f 12/12/12 25/25/25 26/26/26
f 27/27/27 28/28/28 29/29/29
f 11/11/11 30/30/30 25/25/25
f 11/11/11 25/25/25 12/12/12
f 1/1/1 18/18/18 31/31/31
f 27/27/27 32/32/32 28/28/28
f 1/1/1 3/3/3 18/18/18
