# Cube.003 -- imported by tools/import_asset_pack.py from Shovel.fbx
o __pending__
v 0.030285 -0.074802 0.010701
v 0.058887 0.114957 -0.011152
v 0.030285 -0.074802 -0.010702
v 0.070992 -0.404183 -0.015499
v 0.067808 -0.243315 0.013563
v 0.070992 -0.404183 0.015499
v 0.044149 -0.490358 0.030482
v 0.006136 -0.494794 0.021947
v 0.017751 -0.490358 0.015241
v 0.048308 -0.077865 0.021709
v 0.094565 0.104626 0.010127
v 0.077565 0.109560 0.021461
v 0.017303 -0.404184 0.015498
v 0.020562 -0.243381 -0.013691
v 0.017303 -0.404184 -0.015498
v 0.070992 -0.404183 0.015499
v 0.082182 -0.399494 -0.021959
v 0.070992 -0.404183 -0.015499
v 0.030285 -0.074802 -0.010702
v 0.077565 0.109560 -0.021462
v 0.048308 -0.077865 -0.021709
v 0.044147 -0.404184 0.030997
v 0.020562 -0.243381 0.013691
v 0.017303 -0.404184 0.015498
v 0.044147 -0.404184 0.030997
v 0.006116 -0.399494 0.021959
v 0.044149 -0.399494 0.043917
v 0.169672 0.292621 -0.010124
v 0.185611 0.283206 -0.011031
v 0.170903 0.295616 -0.020930
v 0.070992 -0.404183 0.015499
v 0.044293 -0.243347 0.027271
v 0.070547 -0.490358 -0.015241
v 0.044149 -0.494794 -0.043894
v 0.082162 -0.494794 -0.021947
v 0.070992 -0.404183 -0.015499
v 0.044293 -0.243347 -0.027272
v 0.067808 -0.243315 -0.013563
v 0.094565 0.104626 -0.010128
v 0.066781 -0.080905 -0.010962
v 0.017751 -0.490358 -0.015241
v 0.006136 -0.494794 -0.021947
v 0.030285 -0.074802 0.010701
v 0.058887 0.114957 0.011152
v 0.044147 -0.404184 -0.030997
v 0.020562 -0.243381 -0.013691
v 0.082162 -0.494794 0.021947
v 0.070547 -0.490358 0.015241
v 0.044149 -0.614223 0.025029
v 0.022473 -0.614223 0.012514
v 0.022473 -0.614223 -0.012514
v 0.066781 -0.080905 -0.010962
v 0.094565 0.104626 0.010127
v 0.066781 -0.080905 0.010962
v 0.048308 -0.077865 0.021709
v 0.079189 -0.077155 0.017840
v 0.066781 -0.080905 0.010962
v 0.067940 -0.083778 -0.010378
v 0.079443 -0.088416 0.017319
v 0.067940 -0.083778 0.010378
v 0.050415 -0.081024 0.021778
v 0.049818 -0.085456 0.035109
v 0.066781 -0.080905 -0.010962
v 0.079189 -0.077155 -0.017840
v 0.030285 -0.074802 -0.010702
v 0.048732 -0.073446 -0.035110
v 0.019286 -0.069847 -0.017255
v 0.031204 -0.078249 0.011347
v 0.019419 -0.082400 0.017769
v 0.175170 0.285827 -0.004872
v 0.404661 0.478706 0.002582
v 0.175170 0.285827 0.004871
v 0.156307 0.281899 -0.006136
v 0.162526 0.272653 -0.022259
v 0.163500 0.274137 -0.010872
v 0.163992 0.299605 0.005042
v 0.158075 0.306713 -0.009750
v 0.158075 0.306713 0.009749
v 0.176900 0.261648 -0.010542
v 0.168405 0.267642 -0.004639
v 0.175170 0.285827 -0.004872
v 0.185611 0.283206 0.011031
v 0.176900 0.261648 0.010542
v 0.168405 0.267642 0.004638
v 0.402644 0.481588 0.005258
v 0.404661 0.478706 0.002582
v 0.402644 0.481588 -0.005258
v 0.169672 0.292621 0.010124
v 0.399260 0.485777 0.003604
v 0.163992 0.299605 0.005042
v 0.169672 0.292621 -0.010124
v 0.399260 0.485778 -0.003603
v 0.402644 0.481588 -0.005258
v 0.404661 0.478706 -0.002581
v 0.175170 0.285827 -0.004872
v 0.404661 0.478706 0.002582
v 0.402644 0.481588 0.005258
v 0.163992 0.299605 0.005042
v 0.399260 0.485778 -0.003603
v 0.163992 0.299605 -0.005042
v 0.017751 -0.490358 -0.015241
v 0.044149 -0.614223 -0.025029
v 0.022473 -0.614223 -0.012514
v 0.017751 -0.490358 0.015241
v 0.022473 -0.614223 -0.012514
v 0.022473 -0.614223 0.012514
v 0.044149 -0.490358 0.030482
v 0.022473 -0.614223 0.012514
v 0.044149 -0.614223 0.025029
v 0.070547 -0.490358 0.015241
v 0.065825 -0.614223 0.012514
v 0.070547 -0.490358 -0.015241
v 0.065825 -0.614223 0.012514
v 0.065825 -0.614223 -0.012514
v 0.044149 -0.490358 -0.030482
v 0.065825 -0.614223 -0.012514
v 0.044149 -0.494794 -0.043894
v 0.082182 -0.399494 -0.021959
v 0.082162 -0.494794 -0.021947
v 0.082182 -0.399494 -0.021959
v 0.082162 -0.494794 0.021947
v 0.082162 -0.494794 -0.021947
v 0.082182 -0.399494 0.021959
v 0.044149 -0.494794 0.043894
v 0.082162 -0.494794 0.021947
v 0.044149 -0.399494 0.043917
v 0.006136 -0.494794 0.021947
v 0.006116 -0.399494 0.021959
v 0.006136 -0.494794 -0.021947
v 0.006136 -0.494794 0.021947
v 0.006116 -0.399494 -0.021959
v 0.006136 -0.494794 -0.021947
v 0.044149 -0.399494 -0.043917
v 0.044147 -0.404184 -0.030997
v 0.006116 -0.399494 -0.021959
v 0.017303 -0.404184 -0.015498
v 0.044149 -0.494794 0.043894
v 0.017303 -0.404184 0.015498
v 0.082182 -0.399494 0.021959
v 0.044149 -0.490358 -0.030482
v 0.058887 0.114957 0.011152
v 0.075978 0.105830 0.030058
v 0.051470 0.113108 0.014757
v 0.063119 0.119527 0.011518
v 0.059206 0.127083 -0.014844
v 0.059206 0.127083 0.014844
v 0.077565 0.109560 -0.021462
v 0.101388 0.098256 -0.015307
v 0.094565 0.104626 -0.010128
v 0.063119 0.119527 -0.011519
v 0.083514 0.119182 -0.029202
v 0.059206 0.127083 -0.014844
v 0.051470 0.113108 -0.014758
v 0.058887 0.114957 -0.011152
v 0.101388 0.098256 0.015307
v 0.094565 0.104626 0.010127
v 0.020562 -0.243381 0.013691
v 0.031204 -0.078249 -0.011347
v 0.067940 -0.083778 0.010378
v 0.050415 -0.081024 0.021778
v 0.050415 -0.081024 -0.021779
v 0.067940 -0.083778 -0.010378
v 0.031204 -0.078249 0.011347
v 0.067808 -0.243315 -0.013563
v 0.067940 -0.083778 0.010378
v 0.079443 -0.088416 -0.017319
v 0.079189 -0.077155 0.017840
v 0.079443 -0.088416 0.017319
v 0.019419 -0.082400 0.017769
v 0.048732 -0.073446 0.035110
v 0.019286 -0.069847 0.017254
v 0.049818 -0.085456 -0.035109
v 0.079189 -0.077155 -0.017840
v 0.079443 -0.088416 -0.017319
v 0.019419 -0.082400 -0.017769
v 0.048732 -0.073446 -0.035110
v 0.049818 -0.085456 0.035109
v 0.079189 -0.077155 0.017840
v 0.019419 -0.082400 0.017769
v 0.019286 -0.069847 -0.017255
v 0.019419 -0.082400 -0.017769
v 0.031204 -0.078249 -0.011347
v 0.049818 -0.085456 -0.035109
v 0.050415 -0.081024 -0.021779
v 0.030285 -0.074802 0.010701
v 0.048732 -0.073446 0.035110
v 0.019286 -0.069847 0.017254
v 0.079443 -0.088416 -0.017319
v 0.048308 -0.077865 -0.021709
v 0.019419 -0.082400 -0.017769
v 0.051470 0.113108 0.014757
v 0.059206 0.127083 -0.014844
v 0.051470 0.113108 -0.014758
v 0.101388 0.098256 0.015307
v 0.083514 0.119182 0.029202
v 0.075978 0.105830 0.030058
v 0.101388 0.098256 -0.015307
v 0.083514 0.119182 -0.029202
v 0.107063 0.111535 -0.014378
v 0.075978 0.105830 -0.030058
v 0.059206 0.127083 -0.014844
v 0.059206 0.127083 0.014844
v 0.051470 0.113108 0.014757
v 0.101388 0.098256 -0.015307
v 0.107063 0.111535 0.014377
v 0.101388 0.098256 0.015307
v 0.063119 0.119527 0.011518
v 0.083514 0.119182 0.029202
v 0.082130 0.114230 0.021358
v 0.107063 0.111535 0.014377
v 0.098371 0.110233 0.009808
v 0.077565 0.109560 0.021461
v 0.107063 0.111535 -0.014378
v 0.098371 0.110233 -0.009808
v 0.075978 0.105830 -0.030058
v 0.082130 0.114230 -0.021358
v 0.063119 0.119527 0.011518
v 0.156307 0.281899 -0.006136
v 0.063119 0.119527 -0.011519
v 0.082130 0.114230 0.021358
v 0.168405 0.267642 0.004638
v 0.163500 0.274137 0.010871
v 0.082130 0.114230 -0.021358
v 0.168405 0.267642 -0.004639
v 0.098371 0.110233 -0.009808
v 0.063119 0.119527 -0.011519
v 0.163500 0.274137 -0.010872
v 0.063119 0.119527 0.011518
v 0.156307 0.281899 0.006136
v 0.098371 0.110233 -0.009808
v 0.168405 0.267642 0.004638
v 0.098371 0.110233 0.009808
v 0.176900 0.261648 -0.010542
v 0.185611 0.283206 0.011031
v 0.176900 0.261648 0.010542
v 0.146566 0.284689 0.011599
v 0.170903 0.295616 0.020930
v 0.158075 0.306713 0.009749
v 0.146566 0.284689 -0.011600
v 0.170903 0.295616 -0.020930
v 0.162526 0.272653 -0.022259
v 0.185611 0.283206 -0.011031
v 0.176900 0.261648 -0.010542
v 0.162526 0.272653 0.022259
v 0.185611 0.283206 0.011031
v 0.146566 0.284689 -0.011600
v 0.158075 0.306713 0.009749
v 0.158075 0.306713 -0.009750
v 0.170903 0.295616 0.020930
v 0.169672 0.292621 0.010124
v 0.156307 0.281899 0.006136
v 0.146566 0.284689 -0.011600
v 0.162526 0.272653 0.022259
v 0.146566 0.284689 0.011599
v 0.175170 0.285827 0.004871
v 0.163500 0.274137 0.010871
v 0.163992 0.299605 -0.005042
v 0.058887 0.114957 0.011152
v 0.066781 -0.080905 0.010962
v 0.058887 0.114957 -0.011152
v 0.067808 -0.243315 0.013563
v 0.017303 -0.404184 -0.015498
v 0.044149 -0.614223 -0.025029
v 0.065825 -0.614223 -0.012514
v 0.065825 -0.614223 0.012514
v 0.094565 0.104626 -0.010128
v 0.404661 0.478706 -0.002581
v 0.404661 0.478706 -0.002581
v 0.399260 0.485778 -0.003603
v 0.399260 0.485777 0.003604
v 0.163992 0.299605 -0.005042
v 0.175170 0.285827 0.004871
v 0.399260 0.485777 0.003604
v 0.017751 -0.490358 -0.015241
v 0.017751 -0.490358 0.015241
v 0.070547 -0.490358 0.015241
v 0.070547 -0.490358 -0.015241
v 0.044149 -0.399494 -0.043917
v 0.082182 -0.399494 0.021959
v 0.006116 -0.399494 0.021959
v 0.006116 -0.399494 -0.021959
v 0.063119 0.119527 -0.011519
v 0.031204 -0.078249 0.011347
v 0.031204 -0.078249 -0.011347
v 0.067940 -0.083778 -0.010378
v 0.079189 -0.077155 -0.017840
v 0.019286 -0.069847 -0.017255
v 0.079443 -0.088416 0.017319
v 0.019286 -0.069847 0.017254
v 0.059206 0.127083 0.014844
v 0.107063 0.111535 0.014377
v 0.051470 0.113108 -0.014758
v 0.107063 0.111535 -0.014378
v 0.059206 0.127083 0.014844
v 0.156307 0.281899 0.006136
v 0.098371 0.110233 0.009808
v 0.156307 0.281899 -0.006136
v 0.168405 0.267642 -0.004639
v 0.185611 0.283206 -0.011031
v 0.158075 0.306713 -0.009750
v 0.176900 0.261648 0.010542
v 0.146566 0.284689 0.011599
vt 0.617669 0.674611
vt 0.654084 0.994322
vt 0.653333 0.674611
vt 0.270312 0.466308
vt 0.318738 0.731029
vt 0.321965 0.466308
vt 0.778305 0.028026
vt 0.719663 0.042250
vt 0.736125 0.053424
vt 0.501916 0.673716
vt 0.471217 0.986203
vt 0.500270 0.989766
vt 0.207305 0.455101
vt 0.255944 0.720117
vt 0.258955 0.455101
vt 0.869631 0.056788
vt 0.852499 0.119205
vt 0.869631 0.108441
vt 0.543907 0.674611
vt 0.576188 0.989766
vt 0.574541 0.673716
vt 0.050224 0.450944
vt 0.092650 0.718951
vt 0.095135 0.450944
vt 0.913772 0.030963
vt 0.977573 0.046024
vt 0.915036 0.009434
vt 0.236058 0.129213
vt 0.207305 0.130724
vt 0.234843 0.147219
vt 0.005678 0.451933
vt 0.052947 0.719010
vt 0.820487 0.104218
vt 0.780403 0.151963
vt 0.841142 0.115392
vt 0.195948 0.451933
vt 0.148680 0.719010
vt 0.187696 0.719934
vt 0.605241 0.986203
vt 0.605561 0.673623
vt 0.736125 0.104218
vt 0.719663 0.115392
vt 0.532550 0.674611
vt 0.532550 0.994322
vt 0.151402 0.450944
vt 0.108977 0.718951
vt 0.841142 0.042250
vt 0.820487 0.053424
vt 0.414986 0.138778
vt 0.449621 0.117925
vt 0.449621 0.076218
vt 0.613876 0.349673
vt 0.649018 0.662266
vt 0.650408 0.349673
vt 0.815359 0.710326
vt 0.764774 0.716774
vt 0.784161 0.728235
vt 0.564191 0.106176
vt 0.584763 0.060023
vt 0.564191 0.071589
vt 0.534885 0.052592
vt 0.536027 0.030379
vt 0.784161 0.764768
vt 0.764774 0.776229
vt 0.845821 0.764334
vt 0.815855 0.805007
vt 0.865246 0.775254
vt 0.502878 0.069974
vt 0.486010 0.059273
vt 0.443304 0.622870
vt 0.455724 0.994322
vt 0.459540 0.622870
vt 0.893486 0.778140
vt 0.907796 0.805007
vt 0.908650 0.786030
vt 0.247286 0.103941
vt 0.258936 0.128588
vt 0.258936 0.096096
vt 0.935966 0.785482
vt 0.919559 0.775645
vt 0.225181 0.120460
vt 0.207305 0.093961
vt 0.935966 0.750348
vt 0.919559 0.760185
vt 0.253097 0.312107
vt 0.257192 0.307646
vt 0.253097 0.294583
vt 0.388625 0.494405
vt 0.398978 0.994322
vt 0.403788 0.494405
vt 0.348484 0.494405
vt 0.338132 0.994322
vt 0.347158 0.994307
vt 0.352918 0.993936
vt 0.362876 0.494484
vt 0.384191 0.993936
vt 0.389951 0.994307
vt 0.415145 0.622285
vt 0.429551 0.994322
vt 0.431948 0.622285
vt 0.270312 0.454939
vt 0.314413 0.248269
vt 0.278150 0.248665
vt 0.705810 0.445419
vt 0.752061 0.243319
vt 0.710354 0.243319
vt 0.709253 0.993827
vt 0.745579 0.788036
vt 0.709316 0.787639
vt 0.665441 0.994322
vt 0.673342 0.788045
vt 0.705810 0.662266
vt 0.752060 0.456776
vt 0.710354 0.456776
vt 0.314475 0.454457
vt 0.350387 0.248675
vt 0.831589 0.331941
vt 0.894711 0.491425
vt 0.894677 0.332652
vt 0.767961 0.320584
vt 0.841123 0.163320
vt 0.767981 0.163320
vt 0.767961 0.662266
vt 0.831084 0.502782
vt 0.767995 0.503494
vt 0.831083 0.661554
vt 0.894678 0.503477
vt 0.380352 0.306646
vt 0.453513 0.150135
vt 0.380371 0.150135
vt 0.767961 0.491408
vt 0.767995 0.332636
vt 0.915036 0.155795
vt 0.913772 0.134266
vt 0.977574 0.119205
vt 0.957911 0.108439
vt 0.780403 0.005679
vt 0.957911 0.056789
vt 0.852499 0.046024
vt 0.778305 0.129615
vt 0.676418 0.707613
vt 0.708041 0.676109
vt 0.665441 0.701605
vt 0.257962 0.367392
vt 0.246400 0.323463
vt 0.246400 0.372932
vt 0.708813 0.761958
vt 0.752225 0.751702
vt 0.738310 0.743072
vt 0.670535 0.117920
vt 0.636908 0.147386
vt 0.679011 0.123461
vt 0.665441 0.750787
vt 0.676418 0.744779
vt 0.752225 0.700690
vt 0.738310 0.709320
vt 0.210316 0.720117
vt 0.252039 0.994322
vt 0.016646 0.985817
vt 0.045763 0.989719
vt 0.155864 0.989719
vt 0.184980 0.985817
vt 0.077945 0.994322
vt 0.273539 0.731029
vt 0.313432 0.994322
vt 0.239439 0.442876
vt 0.257962 0.384289
vt 0.239439 0.385157
vt 0.395010 0.480514
vt 0.375323 0.433353
vt 0.374233 0.483048
vt 0.207305 0.390045
vt 0.226981 0.343186
vt 0.208397 0.340705
vt 0.207305 0.441210
vt 0.226992 0.394049
vt 0.395010 0.429349
vt 0.375334 0.382490
vt 0.906068 0.422618
vt 0.926646 0.364257
vt 0.906068 0.363399
vt 0.502878 0.107791
vt 0.536027 0.147386
vt 0.534885 0.125173
vt 0.845821 0.728669
vt 0.815855 0.687996
vt 0.865246 0.717749
vt 0.584763 0.117742
vt 0.815359 0.782677
vt 0.486010 0.118492
vt 0.399363 0.319327
vt 0.374233 0.368652
vt 0.399363 0.368509
vt 0.685753 0.288170
vt 0.662164 0.326972
vt 0.687223 0.332031
vt 0.209440 0.242586
vt 0.233030 0.281387
vt 0.233428 0.240441
vt 0.207970 0.286446
vt 0.233428 0.324273
vt 0.661765 0.369858
vt 0.687888 0.374933
vt 0.938003 0.422618
vt 0.961230 0.373154
vt 0.938003 0.371606
vt 0.670535 0.079532
vt 0.636908 0.050066
vt 0.637844 0.063136
vt 0.596120 0.074768
vt 0.610059 0.082382
vt 0.708813 0.690434
vt 0.596120 0.122684
vt 0.610059 0.115070
vt 0.708041 0.776283
vt 0.637845 0.134316
vt 0.415145 0.318003
vt 0.444563 0.610929
vt 0.453533 0.318003
vt 0.570395 0.358099
vt 0.573255 0.651721
vt 0.585566 0.656904
vt 0.503020 0.358099
vt 0.500160 0.651721
vt 0.529508 0.366041
vt 0.470897 0.350212
vt 0.487850 0.656904
vt 0.602519 0.350212
vt 0.602519 0.662266
vt 0.661765 0.386290
vt 0.685839 0.662266
vt 0.694453 0.386290
vt 0.927432 0.681875
vt 0.963381 0.719467
vt 0.962566 0.681875
vt 0.248144 0.222012
vt 0.209238 0.200557
vt 0.207305 0.229084
vt 0.661765 0.222179
vt 0.700671 0.200723
vt 0.661765 0.188569
vt 0.699290 0.168983
vt 0.661941 0.158743
vt 0.248144 0.188402
vt 0.210619 0.168816
vt 0.915260 0.680053
vt 0.879686 0.719467
vt 0.912178 0.719467
vt 0.234843 0.077465
vt 0.236058 0.095472
vt 0.893486 0.757690
vt 0.876603 0.787244
vt 0.907796 0.730823
vt 0.876603 0.748586
vt 0.225181 0.104225
vt 0.908650 0.749800
vt 0.247286 0.120744
vt 0.616918 0.994322
vt 0.470897 0.673623
vt 0.543907 0.994322
vt 0.013931 0.719934
vt 0.106492 0.450944
vt 0.414986 0.055365
vt 0.380352 0.076218
vt 0.380352 0.117925
vt 0.615266 0.662266
vt 0.447121 0.994322
vt 0.257192 0.299043
vt 0.246400 0.297340
vt 0.246400 0.309350
vt 0.333322 0.494405
vt 0.374233 0.494484
vt 0.417541 0.994322
vt 0.756604 0.445419
vt 0.753417 0.994310
vt 0.756604 0.662266
vt 0.358288 0.454951
vt 0.831589 0.490713
vt 0.841142 0.320584
vt 0.894711 0.662249
vt 0.453533 0.306646
vt 0.257962 0.329004
vt 0.214221 0.994322
vt 0.123681 0.994322
vt 0.278845 0.994322
vt 0.257962 0.443744
vt 0.228082 0.443744
vt 0.393918 0.380009
vt 0.926646 0.421761
vt 0.374233 0.319183
vt 0.661765 0.286026
vt 0.207305 0.329349
vt 0.961230 0.421070
vt 0.679011 0.073992
vt 0.424114 0.610929
vt 0.543907 0.366041
vt 0.470897 0.662266
vt 0.670380 0.662266
vt 0.926617 0.719467
vt 0.702604 0.229251
vt 0.247968 0.158576
vt 0.876603 0.680053
vn -0.213098 0.958881 0.187446
vn -0.443986 -0.890908 -0.095701
vn -0.213082 0.958885 -0.187444
vn 0.280386 0.946146 -0.161838
vn 0.865617 0.016273 0.500442
vn 0.280405 0.946140 0.161840
vn 0.000005 -0.942934 0.332981
vn -0.619047 -0.699322 0.357394
vn -0.288357 -0.942937 0.166492
vn 0.134915 0.930609 0.340243
vn 0.027848 -0.979963 0.197223
vn -0.291576 -0.915737 0.276424
vn -0.280221 0.946219 0.161699
vn -0.865510 0.043885 -0.498965
vn -0.280240 0.946212 -0.161701
vn 0.280405 0.946140 0.161840
vn 0.612700 0.706725 -0.353750
vn 0.280386 0.946146 -0.161838
vn -0.213082 0.958885 -0.187444
vn -0.291576 -0.915737 -0.276424
vn 0.134914 0.930609 -0.340244
vn -0.000037 0.946152 0.323724
vn -0.865510 0.043885 0.498965
vn -0.280221 0.946219 0.161699
vn -0.000037 0.946152 0.323724
vn -0.612682 0.706748 0.353735
vn 0.000001 0.706724 0.707489
vn 0.661503 0.660458 -0.355259
vn 0.899188 0.279503 -0.336660
vn 0.365926 0.589969 -0.719747
vn 0.280405 0.946140 0.161840
vn -0.000818 0.030445 0.999536
vn 0.288374 -0.942930 -0.166503
vn -0.000003 -0.699325 -0.714804
vn 0.619060 -0.699300 -0.357415
vn 0.280386 0.946146 -0.161838
vn -0.000818 0.030445 -0.999536
vn 0.865617 0.016273 -0.500443
vn 0.027860 -0.979962 -0.197226
vn 0.406047 0.901701 -0.148528
vn -0.288373 -0.942934 -0.166480
vn -0.619040 -0.699316 -0.357415
vn -0.213098 0.958881 0.187446
vn -0.444000 -0.890901 0.095703
vn -0.000037 0.946152 -0.323724
vn -0.865510 0.043885 -0.498965
vn 0.619040 -0.699315 0.357418
vn 0.288372 -0.942934 0.166486
vn -0.000004 -0.626485 0.779434
vn -0.675010 -0.626487 0.389713
vn -0.675008 -0.626484 -0.389721
vn 0.406047 0.901701 -0.148528
vn 0.027848 -0.979963 0.197223
vn 0.406030 0.901709 0.148525
vn 0.134915 0.930609 0.340243
vn 0.654683 0.666458 0.356685
vn 0.406030 0.901709 0.148525
vn 0.284044 -0.925388 -0.250952
vn 0.598314 -0.718954 0.353731
vn 0.284034 -0.925392 0.250948
vn -0.122083 -0.924251 0.361741
vn -0.019482 -0.702358 0.711557
vn 0.406047 0.901701 -0.148528
vn 0.654712 0.666433 -0.356678
vn -0.213082 0.958885 -0.187444
vn 0.026309 0.693647 -0.719834
vn -0.589730 0.729019 -0.347492
vn -0.350544 -0.925621 0.142637
vn -0.641674 -0.680626 0.353556
vn 0.864641 0.486498 -0.125359
vn 0.920612 -0.182949 0.344970
vn 0.864647 0.486488 0.125358
vn -0.788992 -0.599999 -0.132263
vn -0.325209 -0.557764 -0.763635
vn -0.597647 -0.632933 -0.492152
vn 0.354573 0.913053 0.201526
vn -0.164693 0.924998 -0.342427
vn -0.164744 0.924991 0.342420
vn 0.274407 -0.877186 -0.394012
vn 0.033036 -0.911877 -0.409132
vn 0.864641 0.486498 -0.125359
vn 0.899192 0.279497 0.336654
vn 0.274373 -0.877194 0.394019
vn 0.033051 -0.911876 0.409134
vn 0.581476 0.279895 0.763901
vn 0.920612 -0.182949 0.344970
vn 0.581484 0.279898 -0.763893
vn 0.661504 0.660457 0.355260
vn 0.062454 0.878171 0.474252
vn 0.354573 0.913053 0.201526
vn 0.661503 0.660458 -0.355259
vn 0.062463 0.878177 -0.474240
vn 0.581484 0.279898 -0.763893
vn 0.920612 -0.182951 -0.344967
vn 0.864641 0.486498 -0.125359
vn 0.920612 -0.182949 0.344970
vn 0.581476 0.279895 0.763901
vn 0.354573 0.913053 0.201526
vn 0.062463 0.878177 -0.474240
vn 0.354574 0.913052 -0.201528
vn -0.288373 -0.942934 -0.166480
vn 0.000005 -0.626478 -0.779439
vn -0.675008 -0.626484 -0.389721
vn -0.288357 -0.942937 0.166492
vn -0.675008 -0.626484 -0.389721
vn -0.675010 -0.626487 0.389713
vn 0.000005 -0.942934 0.332981
vn -0.675010 -0.626487 0.389713
vn -0.000004 -0.626485 0.779434
vn 0.288372 -0.942934 0.166486
vn 0.675003 -0.626489 0.389721
vn 0.288374 -0.942930 -0.166503
vn 0.675003 -0.626489 0.389721
vn 0.675012 -0.626484 -0.389714
vn -0.000013 -0.942934 -0.332981
vn 0.675012 -0.626484 -0.389714
vn -0.000003 -0.699325 -0.714804
vn 0.612700 0.706725 -0.353750
vn 0.619060 -0.699300 -0.357415
vn 0.612700 0.706725 -0.353750
vn 0.619040 -0.699315 0.357418
vn 0.619060 -0.699300 -0.357415
vn 0.612720 0.706709 0.353746
vn -0.000013 -0.699315 0.714813
vn 0.619040 -0.699315 0.357418
vn 0.000001 0.706724 0.707489
vn -0.619047 -0.699322 0.357394
vn -0.612682 0.706748 0.353735
vn -0.619040 -0.699316 -0.357415
vn -0.619047 -0.699322 0.357394
vn -0.612699 0.706741 -0.353718
vn -0.619040 -0.699316 -0.357415
vn -0.000010 0.706714 -0.707499
vn -0.000037 0.946152 -0.323724
vn -0.612699 0.706741 -0.353718
vn -0.280240 0.946212 -0.161701
vn -0.000013 -0.699315 0.714813
vn -0.280221 0.946219 0.161699
vn 0.612720 0.706709 0.353746
vn -0.000013 -0.942934 -0.332981
vn -0.444000 -0.890901 0.095703
vn -0.273050 -0.658674 0.701137
vn -0.821654 -0.465797 0.328509
vn 0.282229 0.959347 -0.000967
vn -0.173369 0.938331 -0.299129
vn -0.173393 0.938328 0.299126
vn -0.291576 -0.915737 -0.276424
vn 0.327545 -0.872701 -0.362087
vn 0.027860 -0.979962 -0.197226
vn 0.282257 0.959338 0.000966
vn 0.297506 0.727770 -0.617933
vn -0.173369 0.938331 -0.299129
vn -0.821652 -0.465802 -0.328506
vn -0.443986 -0.890908 -0.095701
vn 0.327558 -0.872700 0.362079
vn 0.027848 -0.979963 0.197223
vn -0.865510 0.043885 0.498965
vn -0.350561 -0.925614 -0.142639
vn 0.284034 -0.925392 0.250948
vn -0.122083 -0.924251 0.361741
vn -0.122083 -0.924251 -0.361740
vn 0.284044 -0.925388 -0.250952
vn -0.350544 -0.925621 0.142637
vn 0.865617 0.016273 -0.500443
vn 0.284034 -0.925392 0.250948
vn 0.598313 -0.718953 -0.353735
vn 0.654683 0.666458 0.356685
vn 0.598314 -0.718954 0.353731
vn -0.641674 -0.680626 0.353556
vn 0.026309 0.693648 0.719834
vn -0.589747 0.729005 0.347491
vn -0.019482 -0.702359 -0.711557
vn 0.654712 0.666433 -0.356678
vn 0.598313 -0.718953 -0.353735
vn -0.641707 -0.680600 -0.353549
vn 0.026309 0.693647 -0.719834
vn -0.019482 -0.702358 0.711557
vn 0.654683 0.666458 0.356685
vn -0.641674 -0.680626 0.353556
vn -0.589730 0.729019 -0.347492
vn -0.641707 -0.680600 -0.353549
vn -0.350561 -0.925614 -0.142639
vn -0.019482 -0.702359 -0.711557
vn -0.122083 -0.924251 -0.361740
vn -0.213098 0.958881 0.187446
vn 0.026309 0.693648 0.719834
vn -0.589747 0.729005 0.347491
vn 0.598313 -0.718953 -0.353735
vn 0.134914 0.930609 -0.340244
vn -0.641707 -0.680600 -0.353549
vn -0.821654 -0.465797 0.328509
vn -0.173369 0.938331 -0.299129
vn -0.821652 -0.465802 -0.328506
vn 0.327558 -0.872700 0.362079
vn 0.297506 0.727771 0.617932
vn -0.273050 -0.658674 0.701137
vn 0.327545 -0.872701 -0.362087
vn 0.297506 0.727770 -0.617933
vn 0.806781 0.490346 -0.329644
vn -0.273050 -0.658674 -0.701137
vn -0.173369 0.938331 -0.299129
vn -0.173393 0.938328 0.299126
vn -0.821654 -0.465797 0.328509
vn 0.327545 -0.872701 -0.362087
vn 0.806784 0.490339 0.329647
vn 0.327558 -0.872700 0.362079
vn 0.282229 0.959347 -0.000967
vn 0.297506 0.727771 0.617932
vn 0.253941 0.952382 0.168766
vn 0.806784 0.490339 0.329647
vn 0.559980 0.798469 0.221067
vn -0.291576 -0.915737 0.276424
vn 0.806781 0.490346 -0.329644
vn 0.559964 0.798481 -0.221062
vn -0.273050 -0.658674 -0.701137
vn 0.253941 0.952382 -0.168766
vn 0.282229 0.959347 -0.000967
vn -0.788992 -0.599999 -0.132263
vn 0.282257 0.959338 0.000966
vn 0.253941 0.952382 0.168766
vn 0.033051 -0.911876 0.409134
vn -0.597649 -0.632931 0.492153
vn 0.253941 0.952382 -0.168766
vn 0.033036 -0.911877 -0.409132
vn 0.559964 0.798481 -0.221062
vn 0.282257 0.959338 0.000966
vn -0.597647 -0.632933 -0.492152
vn 0.282229 0.959347 -0.000967
vn -0.788987 -0.600005 0.132264
vn 0.559964 0.798481 -0.221062
vn 0.033051 -0.911876 0.409134
vn 0.559980 0.798469 0.221067
vn 0.274407 -0.877186 -0.394012
vn 0.899192 0.279497 0.336654
vn 0.274373 -0.877194 0.394019
vn -0.896088 -0.247003 0.368805
vn 0.365926 0.589969 0.719746
vn -0.164744 0.924991 0.342420
vn -0.896088 -0.247008 -0.368801
vn 0.365926 0.589969 -0.719747
vn -0.325209 -0.557764 -0.763635
vn 0.899188 0.279503 -0.336660
vn 0.274407 -0.877186 -0.394012
vn -0.325209 -0.557764 0.763635
vn 0.899192 0.279497 0.336654
vn -0.896088 -0.247008 -0.368801
vn -0.164744 0.924991 0.342420
vn -0.164693 0.924998 -0.342427
vn 0.365926 0.589969 0.719746
vn 0.661504 0.660457 0.355260
vn -0.788987 -0.600005 0.132264
vn -0.896088 -0.247008 -0.368801
vn -0.325209 -0.557764 0.763635
vn -0.896088 -0.247003 0.368805
vn 0.864647 0.486488 0.125358
vn -0.597649 -0.632931 0.492153
vn 0.354574 0.913052 -0.201528
vn -0.444000 -0.890901 0.095703
vn 0.406030 0.901709 0.148525
vn -0.443986 -0.890908 -0.095701
vn 0.865617 0.016273 0.500442
vn -0.280240 0.946212 -0.161701
vn 0.000005 -0.626478 -0.779439
vn 0.675012 -0.626484 -0.389714
vn 0.675003 -0.626489 0.389721
vn 0.027860 -0.979962 -0.197226
vn 0.920612 -0.182951 -0.344967
vn 0.920612 -0.182951 -0.344967
vn 0.062463 0.878177 -0.474240
vn 0.062454 0.878171 0.474252
vn 0.354574 0.913052 -0.201528
vn 0.864647 0.486488 0.125358
vn 0.062454 0.878171 0.474252
vn -0.288373 -0.942934 -0.166480
vn -0.288357 -0.942937 0.166492
vn 0.288372 -0.942934 0.166486
vn 0.288374 -0.942930 -0.166503
vn -0.000010 0.706714 -0.707499
vn 0.612720 0.706709 0.353746
vn -0.612682 0.706748 0.353735
vn -0.612699 0.706741 -0.353718
vn 0.282257 0.959338 0.000966
vn -0.350544 -0.925621 0.142637
vn -0.350561 -0.925614 -0.142639
vn 0.284044 -0.925388 -0.250952
vn 0.654712 0.666433 -0.356678
vn -0.589730 0.729019 -0.347492
vn 0.598314 -0.718954 0.353731
vn -0.589747 0.729005 0.347491
vn -0.173393 0.938328 0.299126
vn 0.806784 0.490339 0.329647
vn -0.821652 -0.465802 -0.328506
vn 0.806781 0.490346 -0.329644
vn -0.173393 0.938328 0.299126
vn -0.788987 -0.600005 0.132264
vn 0.559980 0.798469 0.221067
vn -0.788992 -0.599999 -0.132263
vn 0.033036 -0.911877 -0.409132
vn 0.899188 0.279503 -0.336660
vn -0.164693 0.924998 -0.342427
vn 0.274373 -0.877194 0.394019
vn -0.896088 -0.247003 0.368805
f 1/1/1 2/2/2 3/3/3
f 4/4/4 5/5/5 6/6/6
f 7/7/7 8/8/8 9/9/9
f 10/10/10 11/11/11 12/12/12
f 13/13/13 14/14/14 15/15/15
f 16/16/16 17/17/17 18/18/18
f 19/19/19 20/20/20 21/21/21
f 22/22/22 23/23/23 24/24/24
f 25/25/25 26/26/26 27/27/27
f 28/28/28 29/29/29 30/30/30
f 31/31/31 32/32/32 22/22/22
f 33/33/33 34/34/34 35/35/35
f 36/36/36 37/37/37 38/38/38
f 21/21/21 39/39/39 40/40/40
f 41/41/41 8/8/8 42/42/42
f 43/43/43 12/12/12 44/44/44
f 45/45/45 46/46/46 37/37/37
f 33/33/33 47/47/47 48/48/48
f 49/49/49 50/50/50 51/51/51
f 52/52/52 53/53/53 54/54/54
f 55/55/55 56/56/56 57/57/57
f 58/58/58 59/59/59 60/60/60
f 61/61/61 59/59/59 62/62/62
f 63/63/63 56/56/56 64/64/64
f 65/65/65 66/66/66 67/67/67
f 68/68/68 62/62/62 69/69/69
f 70/70/70 71/71/71 72/72/72
f 73/73/73 74/74/74 75/75/75
f 76/76/76 77/77/77 78/78/78
f 75/75/75 79/79/79 80/80/80
f 81/81/81 82/82/82 29/29/29
f 80/80/80 83/83/83 84/84/84
f 85/85/85 86/86/86 87/87/87
f 88/88/88 89/89/89 90/90/90
f 91/91/91 92/92/92 93/93/93
f 91/91/91 94/94/94 95/95/95
f 88/88/88 96/96/96 97/97/97
f 98/98/98 99/99/99 100/100/100
f 101/101/101 102/102/102 103/103/103
f 104/104/104 105/105/105 106/106/106
f 107/107/107 108/108/108 109/109/109
f 110/110/110 109/109/109 111/111/111
f 112/112/112 113/113/113 114/114/114
f 115/115/115 116/116/116 102/102/102
f 117/117/117 118/118/118 119/119/119
f 120/120/120 121/121/121 122/122/122
f 123/123/123 124/124/124 125/125/125
f 126/126/126 127/127/127 124/124/124
f 128/128/128 129/129/129 130/130/130
f 131/131/131 117/117/117 132/132/132
f 18/18/18 133/133/133 134/134/134
f 134/134/134 135/135/135 136/136/136
f 48/48/48 137/137/137 7/7/7
f 136/136/136 26/26/26 138/138/138
f 16/16/16 27/27/27 139/139/139
f 140/140/140 42/42/42 34/34/34
f 141/141/141 142/142/142 143/143/143
f 144/144/144 145/145/145 146/146/146
f 147/147/147 148/148/148 149/149/149
f 150/150/150 151/151/151 152/152/152
f 141/141/141 153/153/153 154/154/154
f 149/149/149 155/155/155 156/156/156
f 157/157/157 158/158/158 14/14/14
f 32/32/32 159/159/159 160/160/160
f 46/46/46 161/161/161 37/37/37
f 37/37/37 162/162/162 38/38/38
f 23/23/23 160/160/160 163/163/163
f 164/164/164 165/165/165 5/5/5
f 166/166/166 167/167/167 168/168/168
f 169/169/169 170/170/170 171/171/171
f 172/172/172 173/173/173 174/174/174
f 175/175/175 176/176/176 172/172/172
f 177/177/177 178/178/178 170/170/170
f 179/179/179 180/180/180 181/181/181
f 182/182/182 183/183/183 184/184/184
f 185/185/185 186/186/186 55/55/55
f 185/185/185 67/67/67 187/187/187
f 184/184/184 188/188/188 58/58/58
f 189/189/189 64/64/64 66/66/66
f 182/182/182 69/69/69 190/190/190
f 191/191/191 192/192/192 193/193/193
f 194/194/194 195/195/195 196/196/196
f 197/197/197 198/198/198 199/199/199
f 200/200/200 201/201/201 198/198/198
f 196/196/196 202/202/202 203/203/203
f 204/204/204 205/205/205 206/206/206
f 207/207/207 208/208/208 209/209/209
f 209/209/209 210/210/210 211/211/211
f 212/212/212 155/155/155 142/142/142
f 211/211/211 213/213/213 214/214/214
f 154/154/154 215/215/215 147/147/147
f 216/216/216 213/213/213 151/151/151
f 217/217/217 218/218/218 219/219/219
f 220/220/220 221/221/221 222/222/222
f 223/223/223 224/224/224 225/225/225
f 226/226/226 227/227/227 223/223/223
f 228/228/228 222/222/222 229/229/229
f 230/230/230 231/231/231 232/232/232
f 233/233/233 234/234/234 235/235/235
f 236/236/236 237/237/237 238/238/238
f 239/239/239 240/240/240 241/241/241
f 241/241/241 242/242/242 243/243/243
f 244/244/244 245/245/245 237/237/237
f 246/246/246 247/247/247 248/248/248
f 76/76/76 249/249/249 250/250/250
f 251/251/251 252/252/252 73/73/73
f 251/251/251 253/253/253 254/254/254
f 250/250/250 82/82/82 255/255/255
f 256/256/256 83/83/83 253/253/253
f 257/257/257 30/30/30 77/77/77
f 1/1/1 258/258/258 2/2/2
f 4/4/4 164/164/164 5/5/5
f 7/7/7 137/137/137 8/8/8
f 10/10/10 259/259/259 11/11/11
f 13/13/13 157/157/157 14/14/14
f 16/16/16 139/139/139 17/17/17
f 19/19/19 260/260/260 20/20/20
f 22/22/22 32/32/32 23/23/23
f 25/25/25 138/138/138 26/26/26
f 28/28/28 81/81/81 29/29/29
f 31/31/31 261/261/261 32/32/32
f 33/33/33 140/140/140 34/34/34
f 36/36/36 45/45/45 37/37/37
f 21/21/21 20/20/20 39/39/39
f 41/41/41 9/9/9 8/8/8
f 43/43/43 10/10/10 12/12/12
f 45/45/45 262/262/262 46/46/46
f 33/33/33 35/35/35 47/47/47
f 51/51/51 263/263/263 49/49/49
f 263/263/263 264/264/264 49/49/49
f 264/264/264 265/265/265 49/49/49
f 52/52/52 266/266/266 53/53/53
f 55/55/55 186/186/186 56/56/56
f 58/58/58 188/188/188 59/59/59
f 61/61/61 60/60/60 59/59/59
f 63/63/63 57/57/57 56/56/56
f 65/65/65 189/189/189 66/66/66
f 68/68/68 61/61/61 62/62/62
f 70/70/70 267/267/267 71/71/71
f 73/73/73 252/252/252 74/74/74
f 76/76/76 257/257/257 77/77/77
f 75/75/75 74/74/74 79/79/79
f 81/81/81 255/255/255 82/82/82
f 80/80/80 79/79/79 83/83/83
f 86/86/86 268/268/268 87/87/87
f 87/87/87 269/269/269 270/270/270
f 270/270/270 85/85/85 87/87/87
f 88/88/88 97/97/97 89/89/89
f 91/91/91 271/271/271 92/92/92
f 91/91/91 93/93/93 94/94/94
f 88/88/88 272/272/272 96/96/96
f 98/98/98 273/273/273 99/99/99
f 101/101/101 115/115/115 102/102/102
f 104/104/104 274/274/274 105/105/105
f 107/107/107 275/275/275 108/108/108
f 110/110/110 107/107/107 109/109/109
f 112/112/112 276/276/276 113/113/113
f 115/115/115 277/277/277 116/116/116
f 117/117/117 278/278/278 118/118/118
f 120/120/120 279/279/279 121/121/121
f 123/123/123 126/126/126 124/124/124
f 126/126/126 280/280/280 127/127/127
f 128/128/128 281/281/281 129/129/129
f 131/131/131 278/278/278 117/117/117
f 18/18/18 17/17/17 133/133/133
f 134/134/134 133/133/133 135/135/135
f 48/48/48 47/47/47 137/137/137
f 136/136/136 135/135/135 26/26/26
f 16/16/16 25/25/25 27/27/27
f 140/140/140 41/41/41 42/42/42
f 141/141/141 212/212/212 142/142/142
f 144/144/144 282/282/282 145/145/145
f 147/147/147 215/215/215 148/148/148
f 150/150/150 216/216/216 151/151/151
f 141/141/141 143/143/143 153/153/153
f 149/149/149 148/148/148 155/155/155
f 157/157/157 283/283/283 158/158/158
f 32/32/32 261/261/261 159/159/159
f 46/46/46 284/284/284 161/161/161
f 37/37/37 161/161/161 162/162/162
f 23/23/23 32/32/32 160/160/160
f 164/164/164 285/285/285 165/165/165
f 166/166/166 286/286/286 167/167/167
f 169/169/169 177/177/177 170/170/170
f 172/172/172 176/176/176 173/173/173
f 175/175/175 287/287/287 176/176/176
f 177/177/177 288/288/288 178/178/178
f 179/179/179 289/289/289 180/180/180
f 182/182/182 190/190/190 183/183/183
f 185/185/185 187/187/187 186/186/186
f 185/185/185 65/65/65 67/67/67
f 184/184/184 183/183/183 188/188/188
f 189/189/189 63/63/63 64/64/64
f 182/182/182 68/68/68 69/69/69
f 191/191/191 290/290/290 192/192/192
f 194/194/194 291/291/291 195/195/195
f 197/197/197 200/200/200 198/198/198
f 200/200/200 292/292/292 201/201/201
f 196/196/196 195/195/195 202/202/202
f 204/204/204 293/293/293 205/205/205
f 207/207/207 294/294/294 208/208/208
f 209/209/209 208/208/208 210/210/210
f 212/212/212 156/156/156 155/155/155
f 211/211/211 210/210/210 213/213/213
f 154/154/154 153/153/153 215/215/215
f 216/216/216 214/214/214 213/213/213
f 217/217/217 295/295/295 218/218/218
f 220/220/220 296/296/296 221/221/221
f 223/223/223 227/227/227 224/224/224
f 226/226/226 297/297/297 227/227/227
f 228/228/228 220/220/220 222/222/222
f 230/230/230 298/298/298 231/231/231
f 233/233/233 299/299/299 234/234/234
f 236/236/236 244/244/244 237/237/237
f 239/239/239 300/300/300 240/240/240
f 241/241/241 240/240/240 242/242/242
f 244/244/244 301/301/301 245/245/245
f 246/246/246 302/302/302 247/247/247
f 76/76/76 78/78/78 249/249/249
f 251/251/251 254/254/254 252/252/252
f 251/251/251 256/256/256 253/253/253
f 250/250/250 249/249/249 82/82/82
f 256/256/256 84/84/84 83/83/83
f 257/257/257 28/28/28 30/30/30
