# Cube.006 -- imported by tools/import_asset_pack.py from Shovel.fbx
o __pending__
v -2.502908 -0.913989 -0.039436
v -2.468755 -0.771059 -0.019718
v -2.468755 -0.913989 -0.019718
v -2.502908 -0.913989 0.039436
v -2.537061 -0.913989 0.019718
v -2.537061 -0.913989 -0.019718
v -2.537061 -0.771059 -0.019718
v -2.537061 -0.913989 -0.019718
v -2.537061 -0.771059 -0.019718
v -2.502908 -0.771059 -0.049529
v -2.502908 -0.771059 -0.039436
v -2.468755 -0.771059 -0.019718
v -2.460015 -0.771059 -0.024764
v -2.502908 -0.771059 -0.049529
v -2.460015 -0.481783 -0.024765
v -2.460015 -0.771059 -0.024764
v -2.545802 -0.481783 -0.024765
v -2.545802 -0.771059 -0.024764
v -2.460015 -0.771059 0.024765
v -2.468755 -0.771059 0.019718
v -2.460015 -0.481783 -0.024765
v -2.460015 -0.771059 0.024765
v -2.460015 -0.771059 -0.024764
v -2.468755 -0.481783 0.019718
v -2.460015 -0.481783 -0.024765
v -2.468755 -0.481783 -0.019718
v -2.502908 -0.481783 -0.049529
v -2.502908 -0.481783 -0.039436
v -2.468755 0.186011 -0.019718
v -2.468755 -0.481783 0.019718
v -2.468755 -0.481783 -0.019718
v -2.502908 0.186011 -0.039436
v -2.468755 -0.481783 -0.019718
v -2.502908 -0.481783 -0.039436
v -2.468755 0.186011 0.019718
v -2.502908 -0.481783 0.039436
v -2.468755 -0.481783 0.019718
v -2.502908 -0.481783 0.049529
v -2.460015 -0.481783 0.024764
v -2.502908 0.186011 0.039436
v -2.537061 -0.481783 0.019718
v -2.537061 -0.481783 0.019718
v -2.502908 -0.481783 0.039436
v -2.502908 -0.481783 0.049529
v -2.545802 -0.771059 0.024765
v -2.502908 -0.771059 0.049529
v -2.460015 -0.481783 0.024764
v -2.460015 -0.771059 0.024765
v -2.537061 -0.771059 0.019718
v -2.502908 -0.771059 0.049529
v -2.545802 -0.771059 0.024765
v -2.502908 -0.771059 0.039436
v -2.468755 -0.771059 0.019718
v -2.502908 -0.913989 0.039436
v -2.468755 -0.913989 0.019718
v -2.502908 -0.771059 0.039436
v -2.537061 -0.913989 0.019718
v -2.468755 -0.771059 -0.019718
v -2.468755 -0.913989 0.019718
v -2.468755 -0.913989 -0.019718
v -2.537061 -0.771059 0.019718
v -2.537061 -0.913989 -0.019718
v -2.537061 -0.913989 0.019718
v -2.545802 -0.771059 -0.024764
v -2.545802 -0.481783 0.024764
v -2.545802 -0.771059 -0.024764
v -2.545802 -0.771059 0.024765
v -2.537061 -0.481783 -0.019718
v -2.545802 -0.481783 0.024764
v -2.545802 -0.481783 -0.024765
v -2.537061 0.186011 -0.019718
v -2.537061 -0.481783 -0.019718
v -2.537061 0.186011 0.019718
v -2.537061 -0.481783 -0.019718
v -2.537061 -0.481783 0.019718
v -2.502908 0.186011 0.039436
v -2.468755 0.186011 0.019718
v -2.502908 0.186011 -0.039436
v -2.502908 -0.771059 -0.039436
v -2.502908 -0.913989 -0.039436
v -2.468755 -0.913989 -0.019718
v -2.468755 -0.913989 0.019718
v -2.502908 -0.481783 -0.049529
v -2.460015 -0.481783 0.024764
v -2.468755 0.186011 0.019718
v -2.468755 0.186011 -0.019718
v -2.537061 0.186011 0.019718
v -2.545802 -0.481783 0.024764
v -2.537061 -0.771059 0.019718
v -2.468755 -0.771059 0.019718
v -2.537061 -0.771059 -0.019718
v -2.545802 -0.481783 -0.024765
v -2.537061 0.186011 -0.019718
v -2.468755 0.186011 -0.019718
v -2.537061 0.186011 -0.019718
v -2.537061 0.186011 0.019718
vt 0.666204 0.374504
vt 0.686033 0.475658
vt 0.686033 0.374504
vt 0.427368 0.250884
vt 0.451539 0.264839
vt 0.475710 0.250884
vt 0.639280 0.475658
vt 0.639280 0.374504
vt 0.756484 0.412695
vt 0.726127 0.423079
vt 0.732313 0.426650
vt 0.732313 0.454560
vt 0.726127 0.458132
vt 0.461184 0.270931
vt 0.486087 0.475658
vt 0.486087 0.270931
vt 0.427368 0.475658
vt 0.427368 0.270931
vt 0.756484 0.475658
vt 0.756484 0.468515
vt 0.598135 0.475658
vt 0.633188 0.270931
vt 0.598135 0.270931
vt 0.780655 0.378362
vt 0.786841 0.346881
vt 0.780655 0.350452
vt 0.756484 0.329354
vt 0.756484 0.336497
vt 0.003046 0.475658
vt 0.030956 0.003046
vt 0.003046 0.003046
vt 0.947281 0.996954
vt 0.967110 0.524342
vt 0.947281 0.524342
vt 0.920357 0.518249
vt 0.940185 0.045637
vt 0.920357 0.045637
vt 0.756484 0.399460
vt 0.786841 0.381934
vt 0.940185 0.518249
vt 0.967110 0.045637
vt 0.732313 0.378362
vt 0.756484 0.392317
vt 0.517082 0.475658
vt 0.550897 0.270931
vt 0.517082 0.270931
vt 0.492179 0.475658
vt 0.492179 0.270931
vt 0.780655 0.426650
vt 0.786841 0.458132
vt 0.786841 0.423079
vt 0.780655 0.454560
vt 0.639280 0.368411
vt 0.659108 0.267257
vt 0.639280 0.267257
vt 0.659108 0.368411
vt 0.686033 0.267257
vt 0.692125 0.368411
vt 0.720035 0.267257
vt 0.692125 0.267257
vt 0.692125 0.475658
vt 0.720035 0.374504
vt 0.692125 0.374504
vt 0.756484 0.405552
vt 0.556990 0.475658
vt 0.592043 0.270931
vt 0.556990 0.270931
vt 0.732313 0.350452
vt 0.726127 0.381934
vt 0.726127 0.346881
vt 0.920357 0.996954
vt 0.920357 0.524342
vt 0.037048 0.475658
vt 0.064958 0.003046
vt 0.037048 0.003046
vt 0.726127 0.309307
vt 0.750298 0.323262
vt 0.774469 0.281397
vt 0.666204 0.475658
vt 0.475710 0.222974
vt 0.451539 0.209019
vt 0.427368 0.222974
vt 0.461184 0.475658
vt 0.633188 0.475658
vt 0.030956 0.475658
vt 0.967110 0.996954
vt 0.967110 0.518249
vt 0.550897 0.475658
vt 0.686033 0.368411
vt 0.720035 0.368411
vt 0.720035 0.475658
vt 0.592043 0.475658
vt 0.064958 0.475658
vt 0.774469 0.309307
vt 0.750298 0.267442
vt 0.726127 0.281397
vn -0.000000 -0.610005 -0.792397
vn 0.471713 -0.838639 -0.272345
vn 0.686244 -0.609994 -0.396203
vn -0.000010 -0.610004 0.792399
vn -0.686242 -0.610005 0.396189
vn -0.686233 -0.610003 -0.396208
vn -0.471724 -0.838634 -0.272342
vn -0.686233 -0.610003 -0.396208
vn -0.471724 -0.838634 -0.272342
vn 0.000000 -0.609997 -0.792404
vn 0.000000 -0.838630 -0.544701
vn 0.471713 -0.838639 -0.272345
vn 0.686248 -0.609988 -0.396206
vn 0.000000 -0.609997 -0.792404
vn 0.686243 0.609995 -0.396203
vn 0.686248 -0.609988 -0.396206
vn -0.686248 0.609990 -0.396202
vn -0.686243 -0.609993 -0.396206
vn 0.686244 -0.609992 0.396206
vn 0.471724 -0.838634 0.272341
vn 0.686243 0.609995 -0.396203
vn 0.686244 -0.609992 0.396206
vn 0.686248 -0.609988 -0.396206
vn 0.471732 0.838626 0.272352
vn 0.686243 0.609995 -0.396203
vn 0.471727 0.838627 -0.272356
vn 0.000000 0.609993 -0.792407
vn -0.000003 0.838628 -0.544705
vn 0.686245 0.609994 -0.396200
vn 0.471732 0.838626 0.272352
vn 0.471727 0.838627 -0.272356
vn 0.000004 0.609992 -0.792408
vn 0.471727 0.838627 -0.272356
vn -0.000003 0.838628 -0.544705
vn 0.686244 0.609991 0.396207
vn 0.000003 0.838628 0.544705
vn 0.471732 0.838626 0.272352
vn 0.000003 0.609996 0.792405
vn 0.686248 0.609990 0.396202
vn -0.000004 0.609985 0.792413
vn -0.471728 0.838627 0.272355
vn -0.471728 0.838627 0.272355
vn 0.000003 0.838628 0.544705
vn 0.000003 0.609996 0.792405
vn -0.686248 -0.609990 0.396202
vn -0.000003 -0.609995 0.792405
vn 0.686248 0.609990 0.396202
vn 0.686244 -0.609992 0.396206
vn -0.471718 -0.838633 0.272354
vn -0.000003 -0.609995 0.792405
vn -0.686248 -0.609990 0.396202
vn 0.000007 -0.838636 0.544693
vn 0.471724 -0.838634 0.272341
vn -0.000010 -0.610004 0.792399
vn 0.686231 -0.610006 0.396207
vn 0.000007 -0.838636 0.544693
vn -0.686242 -0.610005 0.396189
vn 0.471713 -0.838639 -0.272345
vn 0.686231 -0.610006 0.396207
vn 0.686244 -0.609994 -0.396203
vn -0.471718 -0.838633 0.272354
vn -0.686233 -0.610003 -0.396208
vn -0.686242 -0.610005 0.396189
vn -0.686243 -0.609993 -0.396206
vn -0.686243 0.609993 0.396206
vn -0.686243 -0.609993 -0.396206
vn -0.686248 -0.609990 0.396202
vn -0.471732 0.838626 -0.272352
vn -0.686243 0.609993 0.396206
vn -0.686248 0.609990 -0.396202
vn -0.686242 0.609994 -0.396206
vn -0.471732 0.838626 -0.272352
vn -0.686248 0.609991 0.396201
vn -0.471732 0.838626 -0.272352
vn -0.471728 0.838627 0.272355
vn -0.000004 0.609985 0.792413
vn 0.686244 0.609991 0.396207
vn 0.000004 0.609992 -0.792408
vn 0.000000 -0.838630 -0.544701
vn -0.000000 -0.610005 -0.792397
vn 0.686244 -0.609994 -0.396203
vn 0.686231 -0.610006 0.396207
vn 0.000000 0.609993 -0.792407
vn 0.686248 0.609990 0.396202
vn 0.686244 0.609991 0.396207
vn 0.686245 0.609994 -0.396200
vn -0.686248 0.609991 0.396201
vn -0.686243 0.609993 0.396206
vn -0.471718 -0.838633 0.272354
vn 0.471724 -0.838634 0.272341
vn -0.471724 -0.838634 -0.272342
vn -0.686248 0.609990 -0.396202
vn -0.686242 0.609994 -0.396206
vn 0.686245 0.609994 -0.396200
vn -0.686242 0.609994 -0.396206
vn -0.686248 0.609991 0.396201
f 1/1/1 2/2/2 3/3/3
f 4/4/4 5/5/5 6/6/6
f 7/7/7 1/1/1 8/8/8
f 9/9/9 10/10/10 11/11/11
f 12/12/12 10/10/10 13/13/13
f 14/14/14 15/15/15 16/16/16
f 17/17/17 14/14/14 18/18/18
f 12/12/12 19/19/19 20/20/20
f 21/21/21 22/22/22 23/23/23
f 24/24/24 25/25/25 26/26/26
f 26/26/26 27/27/27 28/28/28
f 29/29/29 30/30/30 31/31/31
f 32/32/32 33/33/33 34/34/34
f 35/35/35 36/36/36 37/37/37
f 24/24/24 38/38/38 39/39/39
f 40/40/40 41/41/41 36/36/36
f 42/42/42 38/38/38 43/43/43
f 44/44/44 45/45/45 46/46/46
f 47/47/47 46/46/46 48/48/48
f 49/49/49 50/50/50 51/51/51
f 20/20/20 50/50/50 52/52/52
f 53/53/53 54/54/54 55/55/55
f 56/56/56 57/57/57 54/54/54
f 58/58/58 59/59/59 60/60/60
f 61/61/61 62/62/62 63/63/63
f 49/49/49 64/64/64 9/9/9
f 65/65/65 66/66/66 67/67/67
f 68/68/68 69/69/69 42/42/42
f 68/68/68 27/27/27 70/70/70
f 71/71/71 34/34/34 72/72/72
f 73/73/73 74/74/74 75/75/75
f 76/76/76 77/77/77 78/78/78
f 1/1/1 79/79/79 2/2/2
f 6/6/6 80/80/80 4/4/4
f 80/80/80 81/81/81 4/4/4
f 81/81/81 82/82/82 4/4/4
f 7/7/7 79/79/79 1/1/1
f 9/9/9 64/64/64 10/10/10
f 12/12/12 11/11/11 10/10/10
f 14/14/14 83/83/83 15/15/15
f 17/17/17 83/83/83 14/14/14
f 12/12/12 13/13/13 19/19/19
f 21/21/21 84/84/84 22/22/22
f 24/24/24 39/39/39 25/25/25
f 26/26/26 25/25/25 27/27/27
f 29/29/29 85/85/85 30/30/30
f 32/32/32 86/86/86 33/33/33
f 35/35/35 40/40/40 36/36/36
f 24/24/24 43/43/43 38/38/38
f 40/40/40 87/87/87 41/41/41
f 42/42/42 69/69/69 38/38/38
f 44/44/44 88/88/88 45/45/45
f 47/47/47 44/44/44 46/46/46
f 49/49/49 52/52/52 50/50/50
f 20/20/20 19/19/19 50/50/50
f 53/53/53 56/56/56 54/54/54
f 56/56/56 89/89/89 57/57/57
f 58/58/58 90/90/90 59/59/59
f 61/61/61 91/91/91 62/62/62
f 49/49/49 51/51/51 64/64/64
f 65/65/65 92/92/92 66/66/66
f 68/68/68 70/70/70 69/69/69
f 68/68/68 28/28/28 27/27/27
f 71/71/71 32/32/32 34/34/34
f 73/73/73 93/93/93 74/74/74
f 77/77/77 94/94/94 78/78/78
f 78/78/78 95/95/95 96/96/96
f 96/96/96 76/76/76 78/78/78
