# Cube.008 -- imported by tools/import_asset_pack.py from treesSingle.fbx
o __pending__
v -8.544909 0.424031 -0.499638
v -9.608216 0.092710 -1.272165
v -8.544909 0.424031 -2.044695
v -10.014355 0.424031 -0.022178
v -10.922540 0.424036 -1.272166
v -10.014355 0.424030 -2.522154
v -8.951043 1.144854 -3.294695
v -7.799197 1.319045 -2.586480
v -7.481595 1.144857 -1.272166
v -7.799197 1.319045 0.042147
v -7.799197 1.319045 0.042147
v -7.481595 1.144857 -1.272166
v -7.230571 2.311196 -0.499634
v -7.230571 2.311196 -2.044697
v -7.799197 1.319045 -2.586480
v -8.138752 2.311195 -3.294709
v -7.887741 3.477535 -2.522159
v -7.372149 3.303338 -1.272166
v -7.372149 3.303338 -1.272166
v -7.887741 3.477535 -2.522159
v -8.293891 4.198355 -1.272166
v -7.887741 3.477535 -0.022173
v -7.887741 3.477535 -0.022173
v -8.138752 2.311196 0.750376
v -8.917245 3.303348 0.854457
v -8.917245 3.303348 0.854457
v -9.202076 4.198362 -0.022178
v -8.951043 1.144854 0.750364
v -9.608216 2.311196 1.227834
v -8.138752 2.311196 0.750376
v -8.917245 3.303348 0.854457
v -8.951043 1.144854 0.750364
v -8.951043 1.144854 0.750364
v -10.299187 1.319045 0.854458
v -10.299187 1.319045 0.854458
v -11.077681 2.311196 0.750376
v -11.328689 1.144857 -0.022173
v -10.014355 0.424031 -0.022178
v -11.328689 1.144857 -0.022173
v -11.844282 1.319054 -1.272166
v -11.844282 1.319054 -1.272166
v -11.985860 2.311196 -0.499634
v -11.844282 1.319054 -1.272166
v -11.985860 2.311196 -0.499634
v -11.985860 2.311196 -2.044697
v -11.734835 3.477533 -1.272166
v -11.417234 3.303347 0.042147
v -11.734835 3.477533 -1.272166
v -10.265388 3.477538 0.750364
v -10.671523 4.198362 -0.499638
v -11.734835 3.477533 -1.272166
v -11.417234 3.303347 0.042147
v -10.671523 4.198362 -0.499638
v -10.265388 3.477538 0.750364
v -10.671523 4.198362 -2.044695
v -9.608216 4.529682 -1.272166
v -9.202076 4.198361 -2.522155
v -10.265388 3.477538 -3.294696
v -8.917245 3.303347 -3.398790
v -9.608216 2.311195 -3.772166
v -10.265388 3.477538 -3.294696
v -8.917245 3.303347 -3.398790
v -8.917245 3.303347 -3.398790
v -8.138752 2.311195 -3.294709
v -11.077681 2.311195 -3.294709
v -10.299187 1.319044 -3.398789
v -8.951043 1.144854 -3.294695
v -10.014355 0.424030 -2.522154
v -11.328689 1.144857 -2.522159
v -10.299187 1.319044 -3.398789
v -11.328689 1.144857 -2.522159
v -11.417234 3.303347 -2.586480
v -11.417234 3.303347 -2.586480
v -10.671523 4.198362 -2.044695
v -8.951043 1.144854 -3.294695
vt 0.601201 0.158180
vt 0.605647 0.100596
vt 0.549508 0.114163
vt 0.659038 0.122619
vt 0.643091 0.056623
vt 0.575396 0.051397
vt 0.519257 0.064963
vt 0.510136 0.123677
vt 0.545061 0.171747
vt 0.598083 0.198564
vt 0.972897 0.960176
vt 0.980808 0.902421
vt 0.929769 0.936368
vt 0.929769 0.868473
vt 0.972897 0.844666
vt 0.929029 0.813544
vt 0.877990 0.847492
vt 0.886063 0.902421
vt 0.916113 0.042632
vt 0.859603 0.024271
vt 0.889853 0.073471
vt 0.943245 0.095494
vt 0.877990 0.957350
vt 0.929029 0.991298
vt 0.884805 0.995871
vt 0.943245 0.154912
vt 0.905801 0.139467
vt 0.979612 0.991297
vt 0.901614 0.302917
vt 0.886395 0.264958
vt 0.855452 0.304878
vt 0.944835 0.272888
vt 0.654593 0.180203
vt 0.696482 0.138064
vt 0.954876 0.318368
vt 0.925913 0.363142
vt 0.984151 0.370334
vt 0.995844 0.314554
vt 0.696482 0.078645
vt 0.669350 0.025784
vt 0.995871 0.419574
vt 0.950010 0.422630
vt 0.821493 0.668555
vt 0.852665 0.707637
vt 0.867355 0.671610
vt 0.910902 0.700445
vt 0.896792 0.407339
vt 0.906462 0.451464
vt 0.867473 0.355213
vt 0.855452 0.409798
vt 0.791824 0.188595
vt 0.844845 0.215413
vt 0.847963 0.175028
vt 0.901355 0.197052
vt 0.796270 0.131011
vt 0.852409 0.117445
vt 0.822159 0.068245
vt 0.766019 0.081812
vt 0.800944 0.033741
vt 0.915750 0.551897
vt 0.949891 0.604193
vt 0.961912 0.553858
vt 0.884805 0.808970
vt 0.930970 0.513938
vt 0.891451 0.612123
vt 0.862488 0.567349
vt 0.872530 0.521868
vt 0.821520 0.563535
vt 0.833214 0.619315
vt 0.554181 0.016893
vt 0.612840 0.007423
vt 0.920573 0.656319
vt 0.756899 0.140526
vt 0.961912 0.658779
vt 0.979612 0.813545
vn 0.395337 -0.872473 0.287227
vn -0.000001 -1.000000 0.000000
vn 0.395337 -0.872473 -0.287227
vn -0.151004 -0.872473 0.464746
vn -0.488665 -0.872472 0.000000
vn -0.151004 -0.872473 -0.464745
vn 0.256010 -0.560058 -0.787905
vn 0.709036 -0.481558 -0.515140
vn 0.828454 -0.560058 0.000000
vn 0.709036 -0.481558 0.515140
vn 0.709036 -0.481558 0.515140
vn 0.828454 -0.560058 0.000000
vn 0.951057 -0.000000 0.309015
vn 0.951057 -0.000000 -0.309015
vn 0.709036 -0.481558 -0.515140
vn 0.587786 0.000000 -0.809017
vn 0.670233 0.560057 -0.486953
vn 0.876415 0.481556 -0.000000
vn 0.876415 0.481556 -0.000000
vn 0.670233 0.560057 -0.486953
vn 0.488665 0.872472 -0.000000
vn 0.670233 0.560057 0.486953
vn 0.670233 0.560057 0.486953
vn 0.587786 0.000000 0.809017
vn 0.270824 0.481559 0.833520
vn 0.270824 0.481559 0.833520
vn 0.151003 0.872473 0.464745
vn 0.256010 -0.560058 0.787905
vn -0.000000 0.000000 1.000000
vn 0.587786 0.000000 0.809017
vn 0.270824 0.481559 0.833520
vn 0.256010 -0.560058 0.787905
vn 0.256010 -0.560058 0.787905
vn -0.270824 -0.481559 0.833520
vn -0.270824 -0.481559 0.833520
vn -0.587786 -0.000000 0.809016
vn -0.670233 -0.560057 0.486953
vn -0.151004 -0.872473 0.464746
vn -0.670233 -0.560057 0.486953
vn -0.876416 -0.481556 0.000000
vn -0.876416 -0.481556 0.000000
vn -0.951057 0.000000 0.309015
vn -0.876416 -0.481556 0.000000
vn -0.951057 0.000000 0.309015
vn -0.951057 0.000000 -0.309015
vn -0.828454 0.560057 -0.000000
vn -0.709037 0.481557 0.515140
vn -0.828454 0.560057 -0.000000
vn -0.256010 0.560058 0.787905
vn -0.395338 0.872473 0.287227
vn -0.828454 0.560057 -0.000000
vn -0.709037 0.481557 0.515140
vn -0.395338 0.872473 0.287227
vn -0.256010 0.560058 0.787905
vn -0.395338 0.872473 -0.287227
vn 0.000001 1.000000 -0.000000
vn 0.151004 0.872473 -0.464746
vn -0.256010 0.560058 -0.787905
vn 0.270824 0.481558 -0.833520
vn -0.000000 -0.000000 -1.000000
vn -0.256010 0.560058 -0.787905
vn 0.270824 0.481558 -0.833520
vn 0.270824 0.481558 -0.833520
vn 0.587786 0.000000 -0.809017
vn -0.587786 -0.000001 -0.809016
vn -0.270824 -0.481559 -0.833520
vn 0.256010 -0.560058 -0.787905
vn -0.151004 -0.872473 -0.464745
vn -0.670233 -0.560057 -0.486953
vn -0.270824 -0.481559 -0.833520
vn -0.670233 -0.560057 -0.486953
vn -0.709037 0.481557 -0.515140
vn -0.709037 0.481557 -0.515140
vn -0.395338 0.872473 -0.287227
vn 0.256010 -0.560058 -0.787905
f 1/1/1 2/2/2 3/3/3
f 2/2/2 1/1/1 4/4/4
f 2/2/2 4/4/4 5/5/5
f 2/2/2 5/5/5 6/6/6
f 2/2/2 6/6/6 3/3/3
f 3/3/3 6/6/6 7/7/7
f 3/3/3 7/7/7 8/8/8
f 9/9/9 3/3/3 8/8/8
f 9/9/9 1/1/1 3/3/3
f 10/10/10 1/1/1 9/9/9
f 11/11/11 12/12/12 13/13/13
f 13/13/13 12/12/12 14/14/14
f 12/12/12 15/15/15 14/14/14
f 14/14/14 16/16/16 17/17/17
f 15/15/15 16/16/16 14/14/14
f 14/14/14 17/17/17 18/18/18
f 13/13/13 14/14/14 18/18/18
f 19/19/19 20/20/20 21/21/21
f 22/22/22 19/19/19 21/21/21
f 13/13/13 18/18/18 23/23/23
f 24/24/24 23/23/23 25/25/25
f 26/26/26 22/22/22 27/27/27
f 27/27/27 22/22/22 21/21/21
f 24/24/24 13/13/13 23/23/23
f 11/11/11 13/13/13 24/24/24
f 28/28/28 11/11/11 24/24/24
f 29/29/29 30/30/30 31/31/31
f 29/29/29 32/32/32 30/30/30
f 4/4/4 33/33/33 34/34/34
f 35/35/35 32/32/32 29/29/29
f 1/1/1 10/10/10 33/33/33
f 4/4/4 1/1/1 33/33/33
f 35/35/35 29/29/29 36/36/36
f 37/37/37 35/35/35 36/36/36
f 38/38/38 35/35/35 37/37/37
f 5/5/5 39/39/39 40/40/40
f 41/41/41 37/37/37 42/42/42
f 42/42/42 37/37/37 36/36/36
f 5/5/5 4/4/4 39/39/39
f 43/43/43 44/44/44 45/45/45
f 45/45/45 44/44/44 46/46/46
f 42/42/42 47/47/47 48/48/48
f 42/42/42 36/36/36 47/47/47
f 36/36/36 49/49/49 47/47/47
f 47/47/47 49/49/49 50/50/50
f 51/51/51 52/52/52 53/53/53
f 53/53/53 54/54/54 27/27/27
f 55/55/55 51/51/51 53/53/53
f 55/55/55 53/53/53 56/56/56
f 53/53/53 27/27/27 56/56/56
f 57/57/57 55/55/55 56/56/56
f 21/21/21 57/57/57 56/56/56
f 27/27/27 21/21/21 56/56/56
f 57/57/57 58/58/58 55/55/55
f 59/59/59 58/58/58 57/57/57
f 20/20/20 59/59/59 57/57/57
f 21/21/21 20/20/20 57/57/57
f 60/60/60 61/61/61 62/62/62
f 16/16/16 63/63/63 17/17/17
f 64/64/64 60/60/60 62/62/62
f 60/60/60 65/65/65 61/61/61
f 66/66/66 65/65/65 60/60/60
f 67/67/67 66/66/66 60/60/60
f 64/64/64 67/67/67 60/60/60
f 68/68/68 69/69/69 66/66/66
f 66/66/66 69/69/69 65/65/65
f 6/6/6 70/70/70 7/7/7
f 65/65/65 69/69/69 45/45/45
f 69/69/69 43/43/43 45/45/45
f 5/5/5 40/40/40 71/71/71
f 6/6/6 5/5/5 71/71/71
f 65/65/65 72/72/72 61/61/61
f 65/65/65 45/45/45 72/72/72
f 45/45/45 46/46/46 72/72/72
f 73/73/73 51/51/51 55/55/55
f 61/61/61 72/72/72 74/74/74
f 54/54/54 26/26/26 27/27/27
f 29/29/29 31/31/31 49/49/49
f 36/36/36 29/29/29 49/49/49
f 15/15/15 75/75/75 16/16/16
