# Cube.009 -- imported by tools/import_asset_pack.py from treesSingle.fbx
o __pending__
v 24.169541 3.672610 0.189420
v 24.331117 3.673573 0.094785
v 24.169541 3.672610 -0.189421
v 24.496364 1.499229 -0.474804
v 24.331117 3.673573 -0.094785
v 24.885412 1.334848 -0.265296
v 24.885412 1.334848 -0.265296
v 24.331117 3.673573 0.094785
v 24.885412 1.334846 0.265296
v 24.496364 1.499229 0.474804
v 24.331117 3.673573 0.094785
v 24.169541 3.672610 0.189420
v 23.986758 3.689963 0.096973
v 23.754542 1.080503 0.302612
v 23.754542 1.080503 0.302612
v 23.986758 3.689963 -0.096974
v 23.754542 1.080503 -0.302612
v 23.986758 3.689963 -0.096974
v 24.169541 3.672610 -0.189421
v 23.754542 1.080503 -0.302612
v 24.147134 -1.310037 -0.844085
v 23.416134 -1.310037 -0.422043
v 23.416134 -1.310037 -0.422043
v 23.416134 -1.310037 0.422043
v 23.416134 -1.310037 0.422043
v 23.416134 -1.310037 -0.422043
v 24.878132 -1.310037 -0.422043
v 24.878132 -1.310037 -0.422043
v 24.878132 -1.310037 0.422043
v 24.878132 -1.310037 -0.422043
v 24.885412 1.334846 0.265296
v 24.147134 -1.310037 0.844086
v 24.878132 -1.310037 0.422043
v 23.416134 -1.310037 0.422043
v 24.331117 3.673573 -0.094785
v 23.986758 3.689963 -0.096974
v 23.986758 3.689963 0.096973
v 24.331117 3.673573 -0.094785
v 23.986758 3.689963 0.096973
v 24.147134 -1.310037 -0.844085
v 24.878132 -1.310037 0.422043
v 24.147134 -1.310037 0.844086
vt 0.237116 0.241155
vt 0.261199 0.227050
vt 0.237116 0.184689
vt 0.358467 0.670476
vt 0.311865 0.996410
vt 0.403027 0.650281
vt 0.444839 0.654396
vt 0.498509 0.996885
vt 0.523924 0.654396
vt 0.112417 0.671487
vt 0.155974 0.996885
vt 0.183329 0.992825
vt 0.203642 0.994852
vt 0.196628 0.603735
vt 0.571318 0.613030
vt 0.630876 0.996885
vt 0.661526 0.613030
vt 0.263567 0.996885
vt 0.293881 0.994433
vt 0.246549 0.605745
vt 0.333569 0.247386
vt 0.209872 0.247386
vt 0.679327 0.263168
vt 0.553517 0.263168
vt 0.639378 0.066027
vt 0.530427 0.003115
vt 0.421476 0.191796
vt 0.415246 0.255622
vt 0.547287 0.260939
vt 0.421476 0.260939
vt 0.044355 0.656363
vt 0.126622 0.246258
vt 0.003115 0.263863
vt 0.203642 0.245173
vt 0.261199 0.198794
vt 0.209872 0.198468
vt 0.209872 0.227376
vt 0.470254 0.996885
vt 0.601968 0.996885
vt 0.421476 0.066000
vt 0.530427 0.254708
vt 0.639378 0.191824
vn 0.006059 0.650816 0.759212
vn 0.612364 0.700654 0.366190
vn 0.006063 0.650825 -0.759204
vn 0.153235 0.137743 -0.978543
vn 0.612357 0.700659 -0.366190
vn 0.869477 0.120864 -0.478959
vn 0.869477 0.120864 -0.478959
vn 0.612364 0.700654 0.366190
vn 0.869482 0.120865 0.478950
vn 0.153229 0.137742 0.978544
vn 0.612364 0.700654 0.366190
vn 0.006059 0.650816 0.759212
vn -0.616127 0.671295 0.412008
vn -0.798456 0.155096 0.581733
vn -0.798456 0.155096 0.581733
vn -0.616134 0.671288 -0.412009
vn -0.798463 0.155096 -0.581724
vn -0.616134 0.671288 -0.412009
vn 0.006063 0.650825 -0.759204
vn -0.798463 0.155096 -0.581724
vn -0.015904 -0.570884 -0.820877
vn -0.724073 -0.554432 -0.410273
vn -0.724073 -0.554432 -0.410273
vn -0.724098 -0.554404 0.410266
vn -0.724098 -0.554404 0.410266
vn -0.724073 -0.554432 -0.410273
vn 0.686509 -0.599389 -0.411629
vn 0.686509 -0.599389 -0.411629
vn 0.686491 -0.599404 0.411637
vn 0.686509 -0.599389 -0.411629
vn 0.869482 0.120865 0.478950
vn -0.015906 -0.570880 0.820879
vn 0.686491 -0.599404 0.411637
vn -0.724098 -0.554404 0.410266
vn 0.612357 0.700659 -0.366190
vn -0.616134 0.671288 -0.412009
vn -0.616127 0.671295 0.412008
vn 0.612357 0.700659 -0.366190
vn -0.616127 0.671295 0.412008
vn -0.015904 -0.570884 -0.820877
vn 0.686491 -0.599404 0.411637
vn -0.015906 -0.570880 0.820879
f 1/1/1 2/2/2 3/3/3
f 4/4/4 5/5/5 6/6/6
f 7/7/7 8/8/8 9/9/9
f 10/10/10 11/11/11 12/12/12
f 10/10/10 13/13/13 14/14/14
f 15/15/15 16/16/16 17/17/17
f 4/4/4 18/18/18 19/19/19
f 20/20/20 21/21/21 22/22/22
f 15/15/15 23/23/23 24/24/24
f 25/25/25 26/26/26 27/27/27
f 21/21/21 6/6/6 28/28/28
f 7/7/7 29/29/29 30/30/30
f 31/31/31 32/32/32 33/33/33
f 32/32/32 14/14/14 34/34/34
f 2/2/2 35/35/35 3/3/3
f 3/3/3 36/36/36 37/37/37
f 37/37/37 1/1/1 3/3/3
f 4/4/4 19/19/19 5/5/5
f 7/7/7 38/38/38 8/8/8
f 10/10/10 31/31/31 11/11/11
f 10/10/10 12/12/12 13/13/13
f 15/15/15 39/39/39 16/16/16
f 4/4/4 20/20/20 18/18/18
f 20/20/20 4/4/4 21/21/21
f 15/15/15 17/17/17 23/23/23
f 26/26/26 40/40/40 27/27/27
f 27/27/27 41/41/41 42/42/42
f 42/42/42 25/25/25 27/27/27
f 21/21/21 4/4/4 6/6/6
f 7/7/7 9/9/9 29/29/29
f 31/31/31 10/10/10 32/32/32
f 32/32/32 10/10/10 14/14/14
