# Cube -- imported by tools/import_asset_pack.py from treesSingle.fbx
o __pending__
v -0.643313 0.691054 0.359273
v -0.021034 3.698953 0.200917
v -0.195032 3.698953 0.100458
v 0.000000 -1.301047 -0.838292
v 0.601245 0.691053 -0.359273
v 0.725982 -1.301047 -0.419147
v 0.601245 0.691054 0.359273
v -0.021034 0.691054 0.718545
v 0.725982 -1.301047 0.419147
v -0.021034 0.691053 -0.718546
v 0.152964 3.698953 -0.100460
v 0.000000 -1.301047 0.838294
v 0.725982 -1.301047 0.419147
v -0.195032 3.698953 -0.100460
v -0.021034 3.698953 -0.200918
v -0.021034 0.691054 0.718545
v -0.725982 -1.301047 0.419147
v 0.000000 -1.301047 0.838294
v 0.152964 3.698953 0.100458
v 0.601245 0.691054 0.359273
v -0.195032 3.698953 0.100458
v -0.021034 3.698953 0.200917
v 0.152964 3.698953 0.100458
v -0.643313 0.691054 0.359273
v -0.725982 -1.301047 -0.419147
v -0.195032 3.698953 -0.100460
v -0.643313 0.691053 -0.359273
v -0.021034 0.691053 -0.718546
v 0.000000 -1.301047 -0.838292
v -0.725982 -1.301047 0.419147
v -0.725982 -1.301047 -0.419147
v 0.725982 -1.301047 -0.419147
v 0.152964 3.698953 0.100458
v -0.643313 0.691053 -0.359273
v 0.152964 3.698953 -0.100460
v -0.021034 3.698953 -0.200918
v -0.195032 3.698953 -0.100460
v -0.195032 3.698953 0.100458
v 0.000000 -1.301047 -0.838292
v 0.725982 -1.301047 0.419147
v 0.000000 -1.301047 0.838294
vt 0.079597 0.214399
vt 0.016925 0.420135
vt 0.023962 0.423583
vt 0.792460 0.065727
vt 0.868447 0.198921
vt 0.852737 0.056639
vt 0.002368 0.197624
vt 0.054429 0.202068
vt 0.884640 0.063799
vt 0.816780 0.206711
vt 0.882707 0.419729
vt 0.069613 0.059810
vt 0.008876 0.054625
vt 0.861460 0.425802
vt 0.868260 0.421907
vt 0.093040 0.212503
vt 0.114812 0.060071
vt 0.084332 0.071256
vt 0.890353 0.421445
vt 0.895793 0.205058
vt 0.321303 0.416278
vt 0.333955 0.423583
vt 0.346608 0.416278
vt 0.119165 0.202916
vt 0.175770 0.060071
vt 0.152596 0.423582
vt 0.171416 0.202916
vt 0.197541 0.212503
vt 0.206249 0.071256
vt 0.316567 0.393103
vt 0.316567 0.332145
vt 0.210985 0.332145
vt 0.002368 0.418892
vt 0.792460 0.220638
vt 0.346608 0.401667
vt 0.333955 0.394362
vt 0.321303 0.401667
vt 0.137986 0.423582
vt 0.263776 0.301666
vt 0.210985 0.393103
vt 0.263776 0.423583
vn -0.861363 0.108411 0.496287
vn 0.000000 0.673242 0.739422
vn -0.640357 0.673245 0.369709
vn 0.002623 -0.587358 -0.809323
vn 0.859563 0.117624 -0.497309
vn 0.703717 -0.583905 -0.404769
vn 0.859568 0.117624 0.497299
vn -0.001782 0.113002 0.993593
vn 0.703696 -0.583923 0.404778
vn -0.001782 0.113001 -0.993593
vn 0.640355 0.673244 -0.369712
vn 0.002623 -0.587355 0.809325
vn 0.703696 -0.583923 0.404778
vn -0.640365 0.673234 -0.369714
vn -0.000000 0.673244 -0.739421
vn -0.001782 0.113002 0.993593
vn -0.698068 -0.590805 0.404537
vn 0.002623 -0.587355 0.809325
vn 0.640360 0.673243 0.369707
vn 0.859568 0.117624 0.497299
vn -0.640357 0.673245 0.369709
vn 0.000000 0.673242 0.739422
vn 0.640360 0.673243 0.369707
vn -0.861363 0.108411 0.496287
vn -0.698045 -0.590827 -0.404544
vn -0.640365 0.673234 -0.369714
vn -0.861365 0.108411 -0.496283
vn -0.001782 0.113001 -0.993593
vn 0.002623 -0.587358 -0.809323
vn -0.698068 -0.590805 0.404537
vn -0.698045 -0.590827 -0.404544
vn 0.703717 -0.583905 -0.404769
vn 0.640360 0.673243 0.369707
vn -0.861365 0.108411 -0.496283
vn 0.640355 0.673244 -0.369712
vn -0.000000 0.673244 -0.739421
vn -0.640365 0.673234 -0.369714
vn -0.640357 0.673245 0.369709
vn 0.002623 -0.587358 -0.809323
vn 0.703696 -0.583923 0.404778
vn 0.002623 -0.587355 0.809325
f 1/1/1 2/2/2 3/3/3
f 4/4/4 5/5/5 6/6/6
f 7/7/7 2/2/2 8/8/8
f 5/5/5 9/9/9 6/6/6
f 10/10/10 11/11/11 5/5/5
f 7/7/7 12/12/12 13/13/13
f 10/10/10 14/14/14 15/15/15
f 16/16/16 17/17/17 18/18/18
f 5/5/5 19/19/19 20/20/20
f 21/21/21 22/22/22 23/23/23
f 24/24/24 25/25/25 17/17/17
f 24/24/24 26/26/26 27/27/27
f 25/25/25 28/28/28 29/29/29
f 30/30/30 31/31/31 32/32/32
f 1/1/1 8/8/8 2/2/2
f 4/4/4 10/10/10 5/5/5
f 7/7/7 33/33/33 2/2/2
f 5/5/5 20/20/20 9/9/9
f 10/10/10 15/15/15 11/11/11
f 7/7/7 8/8/8 12/12/12
f 10/10/10 34/34/34 14/14/14
f 16/16/16 24/24/24 17/17/17
f 5/5/5 11/11/11 19/19/19
f 23/23/23 35/35/35 36/36/36
f 36/36/36 37/37/37 23/23/23
f 37/37/37 21/21/21 23/23/23
f 24/24/24 27/27/27 25/25/25
f 24/24/24 38/38/38 26/26/26
f 25/25/25 27/27/27 28/28/28
f 31/31/31 39/39/39 32/32/32
f 32/32/32 40/40/40 41/41/41
f 41/41/41 30/30/30 32/32/32
