# Cube.013 -- imported by tools/import_asset_pack.py from treesSingle.fbx
o __pending__
v -29.322321 -2.085163 0.700955
v -30.245449 -1.807212 -0.290732
v -29.008764 -2.085163 -0.844102
v -30.672615 -1.302534 0.924047
v -31.193589 -0.818828 -0.483151
v -30.165259 -1.302534 -1.575929
v -28.725263 -1.241483 -2.088050
v -29.008764 -2.085163 -0.844102
v -28.725263 -1.241483 -2.088050
v -27.795580 -1.703350 -1.161993
v -27.882325 -2.024109 0.188848
v -29.322321 -2.085163 0.700955
v -28.329044 -1.703348 1.466634
v -27.216207 -1.142676 1.128380
v -26.902644 -1.142676 -0.416681
v -27.423616 -0.658978 -1.823903
v -26.757513 0.222465 -0.884354
v -26.662330 -0.203753 0.436438
v -26.662330 -0.203753 0.436438
v -26.757513 0.222465 -0.884354
v -26.981380 1.066154 0.371687
v -27.264867 0.222467 1.615631
v -27.216207 -1.142676 1.128380
v -26.662330 -0.203753 0.436438
v -27.264867 0.222467 1.615631
v -28.244535 -0.658976 2.221181
v -28.411828 0.619177 2.295598
v -28.009710 1.549860 1.464467
v -28.009710 1.549860 1.464467
v -28.329044 -1.703348 1.466634
v -29.546180 -1.241483 1.957008
v -29.594843 0.123664 2.444268
v -29.546180 -1.241483 1.957008
v -30.626307 -0.371851 1.846185
v -30.626307 -0.371851 1.846185
v -28.329044 -1.703348 1.466634
v -30.751354 0.906304 1.712439
v -31.417456 0.024861 0.772891
v -30.751354 0.906304 1.712439
v -31.512639 0.451079 -0.547900
v -31.512639 0.451079 -0.547900
v -31.417456 0.024861 0.772891
v -31.272321 1.390002 0.305219
v -30.751354 0.906304 1.712439
v -30.958762 1.390002 -1.239845
v -30.292640 2.271435 -0.300310
v -30.379386 1.950676 1.050531
v -29.449706 1.488808 1.976588
v -29.166204 2.332490 0.732639
v -29.166204 2.332490 0.732639
v -29.449706 1.488808 1.976588
v -28.852644 2.332490 -0.812418
v -28.852644 2.332490 -0.812418
v -29.166204 2.332490 0.732639
v -27.929519 2.054538 0.179269
v -27.502354 1.549860 -1.035511
v -28.628789 1.488808 -2.068472
v -27.548657 0.619177 -1.957648
v -28.580125 0.123662 -2.555732
v -28.628789 1.488808 -2.068472
v -27.548657 0.619177 -1.957648
v -27.423616 -0.658978 -1.823903
v -27.423616 -0.658978 -1.823903
v -29.930431 0.906302 -2.332644
v -29.763138 -0.371851 -2.407062
v -28.725263 -1.241483 -2.088050
v -30.165259 -1.302534 -1.575929
v -30.910098 0.024859 -1.727093
v -30.958762 1.390002 -1.239845
v -31.512639 0.451079 -0.547900
v -30.910098 0.024859 -1.727093
v -29.845921 1.950674 -1.578098
v -29.845921 1.950674 -1.578098
v -29.845921 1.950674 -1.578098
vt 0.737422 0.271857
vt 0.688886 0.341466
vt 0.762124 0.369475
vt 0.638617 0.267748
vt 0.602253 0.362827
vt 0.678586 0.425698
vt 0.745846 0.451422
vt 0.776987 0.908270
vt 0.810269 0.997026
vt 0.850452 0.939408
vt 0.848053 0.849962
vt 0.776987 0.808121
vt 0.850452 0.769023
vt 0.925257 0.802532
vt 0.925257 0.902681
vt 0.901905 0.993573
vt 0.979109 0.946141
vt 0.981799 0.858714
vt 0.997026 0.378750
vt 0.974592 0.293925
vt 0.919116 0.374492
vt 0.948823 0.451422
vt 0.074282 0.150740
vt 0.002974 0.169313
vt 0.023262 0.223392
vt 0.112258 0.224570
vt 0.067582 0.294922
vt 0.002974 0.318359
vt 0.851786 0.439064
vt 0.154383 0.171318
vt 0.197992 0.247612
vt 0.146972 0.320265
vt 0.681175 0.195851
vt 0.593192 0.212158
vt 0.213443 0.334122
vt 0.761290 0.219149
vt 0.165166 0.401272
vt 0.546006 0.286822
vt 0.531327 0.226715
vt 0.531327 0.373918
vt 0.981800 0.673384
vt 0.979109 0.585957
vt 0.925257 0.629417
vt 0.901905 0.538526
vt 0.925257 0.729566
vt 0.848053 0.682136
vt 0.850452 0.592691
vt 0.810269 0.535072
vt 0.776987 0.623828
vt 0.021167 0.399365
vt 0.079431 0.378230
vt 0.776987 0.723977
vt 0.784541 0.288708
vt 0.768615 0.386045
vt 0.831937 0.357725
vt 0.877555 0.281567
vt 0.840016 0.208139
vt 0.926318 0.220655
vt 0.423045 0.229159
vt 0.474065 0.301812
vt 0.489515 0.215302
vt 0.997026 0.228134
vt 0.441238 0.148152
vt 0.388330 0.324854
vt 0.343654 0.254502
vt 0.355503 0.171194
vt 0.279046 0.231065
vt 0.299334 0.326032
vt 0.350354 0.398684
vt 0.279046 0.380111
vt 0.585975 0.444774
vt 0.430455 0.378107
vt 0.850453 0.763075
vt 0.768072 0.232804
vn -0.172952 -0.950543 0.257982
vn -0.511535 -0.852969 -0.103812
vn -0.058700 -0.950543 -0.304994
vn -0.664960 -0.665374 0.339271
vn -0.854788 -0.489127 -0.173474
vn -0.480095 -0.665374 -0.571652
vn 0.084223 -0.611340 -0.786874
vn -0.058700 -0.950543 -0.304994
vn 0.084223 -0.611340 -0.786874
vn 0.448826 -0.780844 -0.434555
vn 0.406040 -0.910133 0.082403
vn -0.172952 -0.950543 0.257982
vn 0.243915 -0.780844 0.575142
vn 0.733556 -0.496416 0.464184
vn 0.856476 -0.496415 -0.141498
vn 0.652252 -0.306802 -0.693138
vn 0.943605 0.127875 -0.305381
vn 0.978953 -0.046703 0.198672
vn 0.978953 -0.046703 0.198672
vn 0.943605 0.127875 -0.305381
vn 0.854788 0.489127 0.173473
vn 0.749906 0.127876 0.649068
vn 0.733556 -0.496416 0.464184
vn 0.978953 -0.046703 0.198672
vn 0.749906 0.127876 0.649068
vn 0.330443 -0.306802 0.892569
vn 0.306945 0.269395 0.912804
vn 0.480095 0.665375 0.571651
vn 0.480095 0.665375 0.571651
vn 0.243915 -0.780844 0.575142
vn -0.229189 -0.611340 0.757454
vn -0.198890 0.000000 0.980022
vn -0.229189 -0.611340 0.757454
vn -0.638500 -0.269395 0.720933
vn -0.638500 -0.269395 0.720933
vn 0.243915 -0.780844 0.575142
vn -0.652252 0.306802 0.693138
vn -0.943604 -0.127875 0.305384
vn -0.652252 0.306802 0.693138
vn -0.978953 0.046704 -0.198673
vn -0.978953 0.046704 -0.198673
vn -0.943604 -0.127875 0.305384
vn -0.856475 0.496416 0.141499
vn -0.652252 0.306802 0.693138
vn -0.733556 0.496416 -0.464184
vn -0.406040 0.910133 -0.082403
vn -0.448827 0.780844 0.434554
vn -0.084223 0.611340 0.786874
vn 0.058700 0.950543 0.304995
vn 0.058700 0.950543 0.304995
vn -0.084223 0.611340 0.786874
vn 0.172952 0.950543 -0.257983
vn 0.172952 0.950543 -0.257983
vn 0.058700 0.950543 0.304995
vn 0.511535 0.852968 0.103813
vn 0.664961 0.665375 -0.339270
vn 0.229188 0.611340 -0.757454
vn 0.638502 0.269395 -0.720931
vn 0.198889 -0.000000 -0.980022
vn 0.229188 0.611340 -0.757454
vn 0.638502 0.269395 -0.720931
vn 0.652252 -0.306802 -0.693138
vn 0.652252 -0.306802 -0.693138
vn -0.330444 0.306801 -0.892569
vn -0.306944 -0.269395 -0.912804
vn 0.084223 -0.611340 -0.786874
vn -0.480095 -0.665374 -0.571652
vn -0.749905 -0.127875 -0.649069
vn -0.733556 0.496416 -0.464184
vn -0.978953 0.046704 -0.198673
vn -0.749905 -0.127875 -0.649069
vn -0.243915 0.780844 -0.575143
vn -0.243915 0.780844 -0.575143
vn -0.243915 0.780844 -0.575143
f 1/1/1 2/2/2 3/3/3
f 2/2/2 1/1/1 4/4/4
f 2/2/2 4/4/4 5/5/5
f 2/2/2 5/5/5 6/6/6
f 2/2/2 6/6/6 3/3/3
f 3/3/3 6/6/6 7/7/7
f 8/8/8 9/9/9 10/10/10
f 11/11/11 8/8/8 10/10/10
f 11/11/11 12/12/12 8/8/8
f 13/13/13 12/12/12 11/11/11
f 13/13/13 11/11/11 14/14/14
f 14/14/14 11/11/11 15/15/15
f 11/11/11 10/10/10 15/15/15
f 15/15/15 16/16/16 17/17/17
f 10/10/10 16/16/16 15/15/15
f 15/15/15 17/17/17 18/18/18
f 14/14/14 15/15/15 18/18/18
f 19/19/19 20/20/20 21/21/21
f 22/22/22 19/19/19 21/21/21
f 23/23/23 24/24/24 25/25/25
f 26/26/26 25/25/25 27/27/27
f 27/27/27 25/25/25 28/28/28
f 29/29/29 22/22/22 21/21/21
f 26/26/26 23/23/23 25/25/25
f 30/30/30 23/23/23 26/26/26
f 31/31/31 30/30/30 26/26/26
f 32/32/32 26/26/26 27/27/27
f 32/32/32 31/31/31 26/26/26
f 4/4/4 33/33/33 34/34/34
f 35/35/35 31/31/31 32/32/32
f 1/1/1 36/36/36 33/33/33
f 4/4/4 1/1/1 33/33/33
f 35/35/35 32/32/32 37/37/37
f 38/38/38 34/34/34 39/39/39
f 4/4/4 34/34/34 38/38/38
f 5/5/5 38/38/38 40/40/40
f 41/41/41 42/42/42 43/43/43
f 43/43/43 42/42/42 44/44/44
f 5/5/5 4/4/4 38/38/38
f 41/41/41 43/43/43 45/45/45
f 45/45/45 43/43/43 46/46/46
f 43/43/43 47/47/47 46/46/46
f 43/43/43 44/44/44 47/47/47
f 44/44/44 48/48/48 47/47/47
f 47/47/47 48/48/48 49/49/49
f 46/46/46 47/47/47 49/49/49
f 50/50/50 51/51/51 28/28/28
f 52/52/52 46/46/46 49/49/49
f 53/53/53 54/54/54 55/55/55
f 54/54/54 29/29/29 55/55/55
f 56/56/56 53/53/53 55/55/55
f 21/21/21 56/56/56 55/55/55
f 29/29/29 21/21/21 55/55/55
f 56/56/56 57/57/57 53/53/53
f 58/58/58 57/57/57 56/56/56
f 20/20/20 58/58/58 56/56/56
f 21/21/21 20/20/20 56/56/56
f 59/59/59 60/60/60 61/61/61
f 62/62/62 58/58/58 20/20/20
f 63/63/63 59/59/59 61/61/61
f 59/59/59 64/64/64 60/60/60
f 65/65/65 64/64/64 59/59/59
f 66/66/66 65/65/65 59/59/59
f 63/63/63 66/66/66 59/59/59
f 67/67/67 68/68/68 65/65/65
f 65/65/65 68/68/68 64/64/64
f 67/67/67 65/65/65 66/66/66
f 64/64/64 68/68/68 69/69/69
f 68/68/68 70/70/70 69/69/69
f 5/5/5 40/40/40 71/71/71
f 6/6/6 5/5/5 71/71/71
f 64/64/64 72/72/72 60/60/60
f 64/64/64 69/69/69 72/72/72
f 45/45/45 46/46/46 73/73/73
f 73/73/73 46/46/46 52/52/52
f 57/57/57 74/74/74 53/53/53
f 51/51/51 27/27/27 28/28/28
f 32/32/32 27/27/27 51/51/51
f 37/37/37 32/32/32 51/51/51
f 10/10/10 9/9/9 16/16/16
