# Cube.001 -- imported by tools/import_asset_pack.py from treesSingle.fbx
o __pending__
v -0.047186 4.131215 -0.479545
v 0.001081 5.213603 -0.027868
v 0.368111 4.131215 -0.239773
v 1.438057 1.774458 -0.857506
v 0.368111 4.131215 0.239772
v 1.438057 1.774459 0.857506
v 0.001081 5.213603 0.027867
v -0.047186 5.213603 0.055734
v 0.001081 5.213603 0.027867
v -0.047186 5.213603 -0.055735
v -0.095455 5.213603 -0.027868
v -0.047186 5.213603 -0.055735
v -0.462484 4.131215 0.239772
v -0.095455 5.213603 -0.027868
v -0.462484 4.131215 -0.239773
v -1.532430 1.774459 0.857506
v -1.532430 1.774458 -0.857506
v -1.532430 1.774458 -0.857506
v -0.047186 1.774458 -1.715012
v -0.047186 4.131215 0.479545
v -0.095455 5.213603 0.027867
v -0.462484 4.131215 0.239772
v -0.047186 1.774459 1.715012
v -1.532430 1.774459 0.857506
v -1.729746 0.213603 1.000412
v 0.003018 0.213603 2.000824
v -1.729746 0.213603 1.000412
v -1.729746 0.213603 -1.000412
v -1.729746 0.213603 1.000412
v -1.729746 0.213603 -1.000412
v 1.735781 0.213603 -1.000412
v -1.729746 0.213603 -1.000412
v 0.003018 0.213603 -2.000824
v 1.735781 0.213603 -1.000412
v 1.735781 0.213603 1.000412
v 1.438057 1.774459 0.857506
v 1.735781 0.213603 1.000412
v 0.368111 4.131215 0.239772
v -0.047186 5.213603 0.055734
v 0.001081 5.213603 -0.027868
v -0.095455 5.213603 -0.027868
v -0.095455 5.213603 0.027867
v -0.462484 4.131215 -0.239773
v -0.095455 5.213603 0.027867
v 0.003018 0.213603 -2.000824
v 1.735781 0.213603 1.000412
v 0.003018 0.213603 2.000824
v 0.001081 5.213603 0.027867
vt 0.263249 0.882999
vt 0.316301 0.994648
vt 0.312852 0.872300
vt 0.320157 0.596138
vt 0.339730 0.876582
vt 0.416284 0.611452
vt 0.319425 0.995145
vt 0.356451 0.423582
vt 0.361559 0.420634
vt 0.356451 0.411787
vt 0.307895 0.997632
vt 0.310536 0.995891
vt 0.816827 0.877471
vt 0.845148 0.997632
vt 0.867570 0.877471
vt 0.751462 0.609766
vt 0.932936 0.609766
vt 0.061494 0.687973
vt 0.142763 0.634398
vt 0.504929 0.879275
vt 0.471378 0.997632
vt 0.528974 0.892028
vt 0.601247 0.620350
vt 0.687239 0.665959
vt 0.731605 0.508516
vt 0.631283 0.455306
vt 0.736340 0.443930
vt 0.948057 0.443930
vt 0.787724 0.108226
vt 0.604372 0.002368
vt 0.421019 0.319943
vt 0.002368 0.535458
vt 0.097180 0.472955
vt 0.304138 0.428318
vt 0.416284 0.446184
vt 0.421019 0.599120
vt 0.421019 0.430537
vt 0.454535 0.873338
vt 0.468584 0.996150
vt 0.361559 0.414736
vt 0.351344 0.414736
vt 0.351344 0.420634
vt 0.240526 0.897979
vt 0.839250 0.997632
vt 0.421019 0.108226
vt 0.604372 0.425802
vt 0.787724 0.319943
vt 0.462727 0.995460
vn 0.000000 0.421854 -0.906664
vn 0.576940 0.745781 -0.333092
vn 0.785193 0.421854 -0.453334
vn 0.817409 0.325310 -0.475412
vn 0.785194 0.421854 0.453331
vn 0.817406 0.325313 0.475415
vn 0.576939 0.745780 0.333096
vn 0.000004 0.745776 0.666197
vn 0.576939 0.745780 0.333096
vn 0.000006 0.745778 -0.666195
vn -0.576936 0.745782 -0.333097
vn 0.000006 0.745778 -0.666195
vn -0.785194 0.421853 0.453333
vn -0.576936 0.745782 -0.333097
vn -0.785193 0.421853 -0.453334
vn -0.828024 0.298506 0.474626
vn -0.828036 0.298503 -0.474608
vn -0.828036 0.298503 -0.474608
vn -0.006006 0.311822 -0.950121
vn 0.000001 0.421854 0.906664
vn -0.576940 0.745779 0.333097
vn -0.785194 0.421853 0.453333
vn -0.006000 0.311821 0.950122
vn -0.828024 0.298506 0.474626
vn -0.720392 -0.551584 0.420465
vn 0.007818 -0.541168 0.840878
vn -0.720392 -0.551584 0.420465
vn -0.720380 -0.551599 -0.420465
vn -0.720392 -0.551584 0.420465
vn -0.720380 -0.551599 -0.420465
vn 0.735773 -0.531002 -0.420327
vn -0.720380 -0.551599 -0.420465
vn 0.007818 -0.541172 -0.840875
vn 0.735773 -0.531002 -0.420327
vn 0.735779 -0.530997 0.420322
vn 0.817406 0.325313 0.475415
vn 0.735779 -0.530997 0.420322
vn 0.785194 0.421854 0.453331
vn 0.000004 0.745776 0.666197
vn 0.576940 0.745781 -0.333092
vn -0.576936 0.745782 -0.333097
vn -0.576940 0.745779 0.333097
vn -0.785193 0.421853 -0.453334
vn -0.576940 0.745779 0.333097
vn 0.007818 -0.541172 -0.840875
vn 0.735779 -0.530997 0.420322
vn 0.007818 -0.541168 0.840878
vn 0.576939 0.745780 0.333096
f 1/1/1 2/2/2 3/3/3
f 4/4/4 1/1/1 3/3/3
f 4/4/4 5/5/5 6/6/6
f 3/3/3 7/7/7 5/5/5
f 8/8/8 9/9/9 10/10/10
f 1/1/1 11/11/11 12/12/12
f 13/13/13 14/14/14 15/15/15
f 16/16/16 15/15/15 17/17/17
f 18/18/18 1/1/1 19/19/19
f 20/20/20 21/21/21 22/22/22
f 23/23/23 22/22/22 24/24/24
f 23/23/23 25/25/25 26/26/26
f 27/27/27 17/17/17 28/28/28
f 29/29/29 30/30/30 31/31/31
f 32/32/32 19/19/19 33/33/33
f 33/33/33 4/4/4 34/34/34
f 4/4/4 35/35/35 34/34/34
f 36/36/36 26/26/26 37/37/37
f 36/36/36 20/20/20 23/23/23
f 38/38/38 39/39/39 20/20/20
f 1/1/1 12/12/12 2/2/2
f 4/4/4 19/19/19 1/1/1
f 4/4/4 3/3/3 5/5/5
f 3/3/3 2/2/2 7/7/7
f 9/9/9 40/40/40 10/10/10
f 10/10/10 41/41/41 42/42/42
f 42/42/42 8/8/8 10/10/10
f 1/1/1 43/43/43 11/11/11
f 13/13/13 44/44/44 14/14/14
f 16/16/16 13/13/13 15/15/15
f 18/18/18 43/43/43 1/1/1
f 20/20/20 39/39/39 21/21/21
f 23/23/23 20/20/20 22/22/22
f 23/23/23 24/24/24 25/25/25
f 27/27/27 16/16/16 17/17/17
f 30/30/30 45/45/45 31/31/31
f 31/31/31 46/46/46 47/47/47
f 47/47/47 29/29/29 31/31/31
f 32/32/32 18/18/18 19/19/19
f 33/33/33 19/19/19 4/4/4
f 4/4/4 6/6/6 35/35/35
f 36/36/36 23/23/23 26/26/26
f 36/36/36 38/38/38 20/20/20
f 38/38/38 48/48/48 39/39/39
