# Cube.006 -- imported by tools/import_asset_pack.py from treesSingle.fbx
o __pending__
v -4.990229 1.058951 0.772529
v -6.053535 0.727629 0.000000
v -4.990229 1.058951 -0.772529
v -6.459674 1.058950 1.249989
v -7.367859 1.058956 0.000000
v -6.459674 1.058950 -1.249988
v -5.396363 1.779774 -2.022529
v -4.244517 1.953965 -1.314313
v -3.926915 1.779777 0.000000
v -4.244517 1.953965 1.314313
v -4.244517 1.953965 1.314313
v -3.926915 1.779777 0.000000
v -3.675890 2.946115 0.772532
v -3.675890 2.946115 -0.772532
v -4.244517 1.953965 -1.314313
v -4.584070 2.946115 -2.022542
v -4.333061 4.112453 -1.249992
v -3.817469 3.938258 -0.000000
v -3.817469 3.938258 -0.000000
v -4.333061 4.112453 -1.249992
v -4.739211 4.833274 -0.000001
v -4.333061 4.112454 1.249992
v -4.333061 4.112454 1.249992
v -4.584070 2.946115 2.022542
v -5.362565 3.938268 2.126623
v -5.362565 3.938268 2.126623
v -5.647396 4.833281 1.249988
v -5.396363 1.779774 2.022529
v -6.053535 2.946115 2.500000
v -4.584070 2.946115 2.022542
v -5.362565 3.938268 2.126623
v -5.396363 1.779774 2.022529
v -5.396363 1.779774 2.022529
v -6.744505 1.953965 2.126623
v -6.744505 1.953965 2.126623
v -7.523000 2.946115 2.022542
v -7.774008 1.779777 1.249992
v -6.459674 1.058950 1.249989
v -7.774008 1.779777 1.249992
v -8.289601 1.953974 0.000000
v -8.289601 1.953974 0.000000
v -8.431179 2.946115 0.772532
v -8.289601 1.953974 0.000000
v -8.431179 2.946115 0.772532
v -8.431179 2.946115 -0.772532
v -8.180155 4.112453 -0.000000
v -7.862552 3.938267 1.314313
v -8.180155 4.112453 -0.000000
v -6.710708 4.112458 2.022529
v -7.116841 4.833281 0.772529
v -8.180155 4.112453 -0.000000
v -7.862552 3.938267 1.314313
v -7.116841 4.833281 0.772529
v -6.710708 4.112458 2.022529
v -7.116841 4.833281 -0.772529
v -6.053535 5.164602 -0.000001
v -5.647396 4.833281 -1.249989
v -6.710708 4.112457 -2.022530
v -5.362565 3.938267 -2.126624
v -6.053535 2.946115 -2.500001
v -6.710708 4.112457 -2.022530
v -5.362565 3.938267 -2.126624
v -5.362565 3.938267 -2.126624
v -4.584070 2.946115 -2.022542
v -7.523000 2.946115 -2.022542
v -6.744505 1.953964 -2.126623
v -5.396363 1.779774 -2.022529
v -6.459674 1.058950 -1.249988
v -7.774008 1.779777 -1.249992
v -6.744505 1.953964 -2.126623
v -7.774008 1.779777 -1.249992
v -7.862552 3.938266 -1.314313
v -7.862552 3.938266 -1.314313
v -7.116841 4.833281 -0.772529
v -5.396363 1.779774 -2.022529
vt 0.359148 0.640790
vt 0.365808 0.554529
vt 0.281711 0.574852
vt 0.445788 0.587519
vt 0.421898 0.488657
vt 0.320492 0.480829
vt 0.236395 0.501152
vt 0.222733 0.589105
vt 0.275051 0.661113
vt 0.354477 0.701285
vt 0.652307 0.942400
vt 0.664158 0.855883
vt 0.587701 0.906736
vt 0.587701 0.805029
vt 0.652307 0.769366
vt 0.586594 0.722745
vt 0.510137 0.773600
vt 0.522230 0.855883
vt 0.461235 0.968367
vt 0.501879 0.889181
vt 0.421898 0.922170
vt 0.376583 0.995871
vt 0.510137 0.938166
vt 0.586594 0.989020
vt 0.520345 0.995871
vt 0.288712 0.981686
vt 0.320492 0.929999
vt 0.662366 0.989019
vt 0.073279 0.474931
vt 0.050480 0.418068
vt 0.004129 0.477868
vt 0.138023 0.429947
vt 0.439128 0.673781
vt 0.501879 0.610656
vt 0.153066 0.498077
vt 0.109679 0.565148
vt 0.196919 0.575922
vt 0.214436 0.492364
vt 0.501879 0.521647
vt 0.461235 0.442461
vt 0.214476 0.649684
vt 0.145776 0.654260
vt 0.004129 0.937327
vt 0.050824 0.995871
vt 0.072829 0.941904
vt 0.138064 0.985097
vt 0.066055 0.631355
vt 0.080541 0.697454
vt 0.022136 0.553270
vt 0.004129 0.635039
vt 0.275051 0.749715
vt 0.222733 0.821723
vt 0.281711 0.835976
vt 0.236395 0.909676
vt 0.359148 0.770038
vt 0.365808 0.856298
vt 0.445788 0.823308
vt 0.439128 0.737047
vt 0.501879 0.800172
vt 0.145326 0.762574
vt 0.196469 0.840913
vt 0.214476 0.765512
vt 0.520345 0.715894
vt 0.168125 0.705711
vt 0.108926 0.852791
vt 0.065539 0.785720
vt 0.080582 0.717591
vt 0.004169 0.780007
vt 0.021686 0.863565
vt 0.288712 0.429142
vt 0.376583 0.414956
vt 0.152550 0.918998
vt 0.354477 0.709542
vt 0.214476 0.922682
vt 0.662366 0.722746
vn 0.395337 -0.872473 0.287227
vn -0.000001 -1.000000 0.000000
vn 0.395337 -0.872473 -0.287227
vn -0.151003 -0.872473 0.464746
vn -0.488665 -0.872472 0.000000
vn -0.151003 -0.872473 -0.464745
vn 0.256010 -0.560058 -0.787904
vn 0.709036 -0.481558 -0.515140
vn 0.828454 -0.560058 0.000000
vn 0.709036 -0.481558 0.515140
vn 0.709036 -0.481558 0.515140
vn 0.828454 -0.560058 0.000000
vn 0.951057 -0.000000 0.309015
vn 0.951057 -0.000000 -0.309015
vn 0.709036 -0.481558 -0.515140
vn 0.587786 -0.000000 -0.809016
vn 0.670233 0.560057 -0.486953
vn 0.876415 0.481556 -0.000000
vn 0.876415 0.481556 -0.000000
vn 0.670233 0.560057 -0.486953
vn 0.488665 0.872472 -0.000000
vn 0.670233 0.560057 0.486953
vn 0.670233 0.560057 0.486953
vn 0.587786 0.000000 0.809016
vn 0.270824 0.481559 0.833520
vn 0.270824 0.481559 0.833520
vn 0.151003 0.872473 0.464745
vn 0.256010 -0.560058 0.787904
vn -0.000000 0.000000 1.000000
vn 0.587786 0.000000 0.809016
vn 0.270824 0.481559 0.833520
vn 0.256010 -0.560058 0.787904
vn 0.256010 -0.560058 0.787904
vn -0.270824 -0.481559 0.833520
vn -0.270824 -0.481559 0.833520
vn -0.587786 -0.000000 0.809016
vn -0.670233 -0.560057 0.486953
vn -0.151003 -0.872473 0.464746
vn -0.670233 -0.560057 0.486953
vn -0.876416 -0.481556 0.000000
vn -0.876416 -0.481556 0.000000
vn -0.951057 0.000000 0.309015
vn -0.876416 -0.481556 0.000000
vn -0.951057 0.000000 0.309015
vn -0.951057 0.000000 -0.309015
vn -0.828454 0.560057 -0.000000
vn -0.709036 0.481558 0.515140
vn -0.828454 0.560057 -0.000000
vn -0.256010 0.560058 0.787905
vn -0.395337 0.872473 0.287227
vn -0.828454 0.560057 -0.000000
vn -0.709036 0.481558 0.515140
vn -0.395337 0.872473 0.287227
vn -0.256010 0.560058 0.787905
vn -0.395337 0.872473 -0.287227
vn 0.000002 1.000000 -0.000000
vn 0.151004 0.872473 -0.464746
vn -0.256010 0.560058 -0.787905
vn 0.270824 0.481559 -0.833520
vn -0.000000 -0.000000 -1.000000
vn -0.256010 0.560058 -0.787905
vn 0.270824 0.481559 -0.833520
vn 0.270824 0.481559 -0.833520
vn 0.587786 -0.000000 -0.809016
vn -0.587786 -0.000000 -0.809016
vn -0.270824 -0.481559 -0.833520
vn 0.256010 -0.560058 -0.787904
vn -0.151003 -0.872473 -0.464745
vn -0.670233 -0.560057 -0.486953
vn -0.270824 -0.481559 -0.833520
vn -0.670233 -0.560057 -0.486953
vn -0.709037 0.481557 -0.515140
vn -0.709037 0.481557 -0.515140
vn -0.395337 0.872473 -0.287227
vn 0.256010 -0.560058 -0.787904
f 1/1/1 2/2/2 3/3/3
f 2/2/2 1/1/1 4/4/4
f 2/2/2 4/4/4 5/5/5
f 2/2/2 5/5/5 6/6/6
f 2/2/2 6/6/6 3/3/3
f 3/3/3 6/6/6 7/7/7
f 3/3/3 7/7/7 8/8/8
f 9/9/9 3/3/3 8/8/8
f 9/9/9 1/1/1 3/3/3
f 10/10/10 1/1/1 9/9/9
f 11/11/11 12/12/12 13/13/13
f 13/13/13 12/12/12 14/14/14
f 12/12/12 15/15/15 14/14/14
f 14/14/14 16/16/16 17/17/17
f 15/15/15 16/16/16 14/14/14
f 14/14/14 17/17/17 18/18/18
f 13/13/13 14/14/14 18/18/18
f 19/19/19 20/20/20 21/21/21
f 22/22/22 19/19/19 21/21/21
f 13/13/13 18/18/18 23/23/23
f 24/24/24 23/23/23 25/25/25
f 26/26/26 22/22/22 27/27/27
f 27/27/27 22/22/22 21/21/21
f 24/24/24 13/13/13 23/23/23
f 11/11/11 13/13/13 24/24/24
f 28/28/28 11/11/11 24/24/24
f 29/29/29 30/30/30 31/31/31
f 29/29/29 32/32/32 30/30/30
f 4/4/4 33/33/33 34/34/34
f 35/35/35 32/32/32 29/29/29
f 1/1/1 10/10/10 33/33/33
f 4/4/4 1/1/1 33/33/33
f 35/35/35 29/29/29 36/36/36
f 37/37/37 35/35/35 36/36/36
f 38/38/38 35/35/35 37/37/37
f 5/5/5 39/39/39 40/40/40
f 41/41/41 37/37/37 42/42/42
f 42/42/42 37/37/37 36/36/36
f 5/5/5 4/4/4 39/39/39
f 43/43/43 44/44/44 45/45/45
f 45/45/45 44/44/44 46/46/46
f 42/42/42 47/47/47 48/48/48
f 42/42/42 36/36/36 47/47/47
f 36/36/36 49/49/49 47/47/47
f 47/47/47 49/49/49 50/50/50
f 51/51/51 52/52/52 53/53/53
f 53/53/53 54/54/54 27/27/27
f 55/55/55 51/51/51 53/53/53
f 55/55/55 53/53/53 56/56/56
f 53/53/53 27/27/27 56/56/56
f 57/57/57 55/55/55 56/56/56
f 21/21/21 57/57/57 56/56/56
f 27/27/27 21/21/21 56/56/56
f 57/57/57 58/58/58 55/55/55
f 59/59/59 58/58/58 57/57/57
f 20/20/20 59/59/59 57/57/57
f 21/21/21 20/20/20 57/57/57
f 60/60/60 61/61/61 62/62/62
f 16/16/16 63/63/63 17/17/17
f 64/64/64 60/60/60 62/62/62
f 60/60/60 65/65/65 61/61/61
f 66/66/66 65/65/65 60/60/60
f 67/67/67 66/66/66 60/60/60
f 64/64/64 67/67/67 60/60/60
f 68/68/68 69/69/69 66/66/66
f 66/66/66 69/69/69 65/65/65
f 6/6/6 70/70/70 7/7/7
f 65/65/65 69/69/69 45/45/45
f 69/69/69 43/43/43 45/45/45
f 5/5/5 40/40/40 71/71/71
f 6/6/6 5/5/5 71/71/71
f 65/65/65 72/72/72 61/61/61
f 65/65/65 45/45/45 72/72/72
f 45/45/45 46/46/46 72/72/72
f 73/73/73 51/51/51 55/55/55
f 61/61/61 72/72/72 74/74/74
f 54/54/54 26/26/26 27/27/27
f 29/29/29 31/31/31 49/49/49
f 36/36/36 29/29/29 49/49/49
f 15/15/15 75/75/75 16/16/16
