# Cube.012 -- imported by tools/import_asset_pack.py from treesSingle.fbx
o __pending__
v -23.335061 -1.667948 0.288544
v -24.258184 -1.389997 -0.703144
v -23.021501 -1.667948 -1.256514
v -24.685349 -0.885320 0.511636
v -25.206321 -0.401612 -0.895562
v -24.177995 -0.885320 -1.988342
v -22.738000 -0.824268 -2.500463
v -23.021501 -1.667948 -1.256514
v -22.738000 -0.824268 -2.500463
v -21.808317 -1.286135 -1.574405
v -21.895063 -1.606895 -0.223565
v -23.335061 -1.667948 0.288544
v -22.341778 -1.286134 1.054223
v -21.228941 -0.725460 0.715969
v -20.915383 -0.725462 -0.829093
v -21.436350 -0.241763 -2.236314
v -20.770246 0.639680 -1.296765
v -20.675065 0.213462 0.024026
v -20.675065 0.213462 0.024026
v -20.770246 0.639680 -1.296765
v -20.994117 1.483368 -0.040724
v -21.277602 0.639680 1.203219
v -21.228941 -0.725460 0.715969
v -20.675065 0.213462 0.024026
v -21.277602 0.639680 1.203219
v -22.257272 -0.241761 1.808769
v -22.424562 1.036392 1.883188
v -22.022444 1.967075 1.052054
v -22.022444 1.967075 1.052054
v -22.341778 -1.286134 1.054223
v -23.558918 -0.824268 1.544596
v -23.607578 0.540878 2.031856
v -23.558918 -0.824268 1.544596
v -24.639047 0.045365 1.433773
v -24.639047 0.045365 1.433773
v -22.341778 -1.286134 1.054223
v -24.764089 1.323518 1.300029
v -25.430192 0.442075 0.360480
v -24.764089 1.323518 1.300029
v -25.525373 0.868294 -0.960313
v -25.525373 0.868294 -0.960313
v -25.430192 0.442075 0.360480
v -25.285058 1.807216 -0.107192
v -24.764089 1.323518 1.300029
v -24.971495 1.807216 -1.652255
v -24.305377 2.688650 -0.712722
v -24.392121 2.367891 0.638118
v -23.462441 1.906023 1.564175
v -23.178937 2.749705 0.320227
v -23.178937 2.749705 0.320227
v -23.462441 1.906023 1.564175
v -22.865380 2.749705 -1.224831
v -22.865380 2.749705 -1.224831
v -23.178937 2.749705 0.320227
v -21.942255 2.471753 -0.233142
v -21.515090 1.967075 -1.447922
v -22.641523 1.906023 -2.480884
v -21.561394 1.036391 -2.370060
v -22.592862 0.540877 -2.968143
v -22.641523 1.906023 -2.480884
v -21.561394 1.036391 -2.370060
v -21.436350 -0.241763 -2.236314
v -21.436350 -0.241763 -2.236314
v -23.943165 1.323517 -2.745056
v -23.775876 0.045363 -2.819474
v -22.738000 -0.824268 -2.500463
v -24.177995 -0.885320 -1.988342
v -24.922836 0.442074 -2.139506
v -24.971495 1.807216 -1.652255
v -25.525373 0.868294 -0.960313
v -24.922836 0.442074 -2.139506
v -23.858658 2.367889 -1.990509
v -23.858658 2.367889 -1.990509
v -23.858658 2.367889 -1.990509
vt 0.244187 0.786863
vt 0.187380 0.868334
vt 0.273098 0.901115
vt 0.128546 0.782054
vt 0.085986 0.893335
vt 0.175326 0.966919
vt 0.254047 0.997026
vt 0.531327 0.893146
vt 0.570280 0.997026
vt 0.617311 0.929590
vt 0.614502 0.824903
vt 0.531327 0.775932
vt 0.617311 0.730172
vt 0.704861 0.769391
vt 0.704861 0.886605
vt 0.677531 0.992984
vt 0.767890 0.937471
vt 0.771039 0.835146
vt 0.270941 0.606903
vt 0.244684 0.507624
vt 0.179755 0.601920
vt 0.214525 0.691958
vt 0.362505 0.703803
vt 0.279047 0.725542
vt 0.302791 0.788836
vt 0.406952 0.790215
vt 0.354663 0.872554
vt 0.279047 0.899985
vt 0.100953 0.677494
vt 0.456255 0.727888
vt 0.507295 0.817183
vt 0.447581 0.902216
vt 0.178356 0.697907
vt 0.075381 0.716992
vt 0.525379 0.918434
vt 0.272123 0.725175
vt 0.468875 0.997026
vt 0.020154 0.804379
vt 0.002974 0.734029
vt 0.002974 0.906316
vt 0.771039 0.619250
vt 0.767890 0.516926
vt 0.704861 0.567791
vt 0.677531 0.461412
vt 0.704861 0.685005
vt 0.614502 0.629493
vt 0.617311 0.524807
vt 0.570280 0.457370
vt 0.531327 0.561250
vt 0.300340 0.994794
vt 0.368531 0.970057
vt 0.531327 0.678464
vt 0.022249 0.501518
vt 0.003610 0.615441
vt 0.077722 0.582296
vt 0.131112 0.493160
vt 0.087177 0.407221
vt 0.188185 0.421869
vt 0.447581 0.499443
vt 0.507295 0.584476
vt 0.525379 0.483225
vt 0.270941 0.430623
vt 0.468875 0.404633
vt 0.406952 0.611444
vt 0.354663 0.529105
vt 0.368531 0.431601
vt 0.279046 0.501674
vt 0.302791 0.612823
vt 0.362505 0.697855
vt 0.279046 0.676117
vt 0.066934 0.989245
vt 0.456255 0.673771
vt 0.617311 0.724224
vt 0.002974 0.436088
vn -0.172952 -0.950543 0.257983
vn -0.511535 -0.852968 -0.103813
vn -0.058700 -0.950543 -0.304995
vn -0.664961 -0.665374 0.339270
vn -0.854788 -0.489127 -0.173474
vn -0.480095 -0.665374 -0.571652
vn 0.084223 -0.611340 -0.786873
vn -0.058700 -0.950543 -0.304995
vn 0.084223 -0.611340 -0.786873
vn 0.448826 -0.780844 -0.434555
vn 0.406039 -0.910133 0.082403
vn -0.172952 -0.950543 0.257983
vn 0.243915 -0.780844 0.575142
vn 0.733556 -0.496416 0.464185
vn 0.856475 -0.496416 -0.141499
vn 0.652251 -0.306802 -0.693138
vn 0.943605 0.127875 -0.305381
vn 0.978953 -0.046703 0.198671
vn 0.978953 -0.046703 0.198671
vn 0.943605 0.127875 -0.305381
vn 0.854788 0.489127 0.173473
vn 0.749906 0.127875 0.649068
vn 0.733556 -0.496416 0.464185
vn 0.978953 -0.046703 0.198671
vn 0.749906 0.127875 0.649068
vn 0.330443 -0.306802 0.892570
vn 0.306945 0.269395 0.912804
vn 0.480095 0.665375 0.571652
vn 0.480095 0.665375 0.571652
vn 0.243915 -0.780844 0.575142
vn -0.229188 -0.611340 0.757454
vn -0.198888 0.000000 0.980022
vn -0.229188 -0.611340 0.757454
vn -0.638500 -0.269394 0.720933
vn -0.638500 -0.269394 0.720933
vn 0.243915 -0.780844 0.575142
vn -0.652252 0.306802 0.693138
vn -0.943605 -0.127875 0.305380
vn -0.652252 0.306802 0.693138
vn -0.978953 0.046703 -0.198671
vn -0.978953 0.046703 -0.198671
vn -0.943605 -0.127875 0.305380
vn -0.856475 0.496415 0.141498
vn -0.652252 0.306802 0.693138
vn -0.733556 0.496415 -0.464185
vn -0.406040 0.910133 -0.082403
vn -0.448826 0.780844 0.434555
vn -0.084223 0.611340 0.786874
vn 0.058700 0.950543 0.304995
vn 0.058700 0.950543 0.304995
vn -0.084223 0.611340 0.786874
vn 0.172952 0.950543 -0.257982
vn 0.172952 0.950543 -0.257982
vn 0.058700 0.950543 0.304995
vn 0.511535 0.852968 0.103813
vn 0.664961 0.665375 -0.339270
vn 0.229188 0.611340 -0.757454
vn 0.638501 0.269395 -0.720932
vn 0.198889 -0.000000 -0.980022
vn 0.229188 0.611340 -0.757454
vn 0.638501 0.269395 -0.720932
vn 0.652251 -0.306802 -0.693138
vn 0.652251 -0.306802 -0.693138
vn -0.330442 0.306801 -0.892570
vn -0.306944 -0.269395 -0.912804
vn 0.084223 -0.611340 -0.786873
vn -0.480095 -0.665374 -0.571652
vn -0.749906 -0.127875 -0.649068
vn -0.733556 0.496415 -0.464185
vn -0.978953 0.046703 -0.198671
vn -0.749906 -0.127875 -0.649068
vn -0.243915 0.780843 -0.575143
vn -0.243915 0.780843 -0.575143
vn -0.243915 0.780843 -0.575143
f 1/1/1 2/2/2 3/3/3
f 2/2/2 1/1/1 4/4/4
f 2/2/2 4/4/4 5/5/5
f 2/2/2 5/5/5 6/6/6
f 2/2/2 6/6/6 3/3/3
f 3/3/3 6/6/6 7/7/7
f 8/8/8 9/9/9 10/10/10
f 11/11/11 8/8/8 10/10/10
f 11/11/11 12/12/12 8/8/8
f 13/13/13 12/12/12 11/11/11
f 13/13/13 11/11/11 14/14/14
f 14/14/14 11/11/11 15/15/15
f 11/11/11 10/10/10 15/15/15
f 15/15/15 16/16/16 17/17/17
f 10/10/10 16/16/16 15/15/15
f 15/15/15 17/17/17 18/18/18
f 14/14/14 15/15/15 18/18/18
f 19/19/19 20/20/20 21/21/21
f 22/22/22 19/19/19 21/21/21
f 23/23/23 24/24/24 25/25/25
f 26/26/26 25/25/25 27/27/27
f 27/27/27 25/25/25 28/28/28
f 29/29/29 22/22/22 21/21/21
f 26/26/26 23/23/23 25/25/25
f 30/30/30 23/23/23 26/26/26
f 31/31/31 30/30/30 26/26/26
f 32/32/32 26/26/26 27/27/27
f 32/32/32 31/31/31 26/26/26
f 4/4/4 33/33/33 34/34/34
f 35/35/35 31/31/31 32/32/32
f 1/1/1 36/36/36 33/33/33
f 4/4/4 1/1/1 33/33/33
f 35/35/35 32/32/32 37/37/37
f 38/38/38 34/34/34 39/39/39
f 4/4/4 34/34/34 38/38/38
f 5/5/5 38/38/38 40/40/40
f 41/41/41 42/42/42 43/43/43
f 43/43/43 42/42/42 44/44/44
f 5/5/5 4/4/4 38/38/38
f 41/41/41 43/43/43 45/45/45
f 45/45/45 43/43/43 46/46/46
f 43/43/43 47/47/47 46/46/46
f 43/43/43 44/44/44 47/47/47
f 44/44/44 48/48/48 47/47/47
f 47/47/47 48/48/48 49/49/49
f 46/46/46 47/47/47 49/49/49
f 50/50/50 51/51/51 28/28/28
f 52/52/52 46/46/46 49/49/49
f 53/53/53 54/54/54 55/55/55
f 54/54/54 29/29/29 55/55/55
f 56/56/56 53/53/53 55/55/55
f 21/21/21 56/56/56 55/55/55
f 29/29/29 21/21/21 55/55/55
f 56/56/56 57/57/57 53/53/53
f 58/58/58 57/57/57 56/56/56
f 20/20/20 58/58/58 56/56/56
f 21/21/21 20/20/20 56/56/56
f 59/59/59 60/60/60 61/61/61
f 62/62/62 58/58/58 20/20/20
f 63/63/63 59/59/59 61/61/61
f 59/59/59 64/64/64 60/60/60
f 65/65/65 64/64/64 59/59/59
f 66/66/66 65/65/65 59/59/59
f 63/63/63 66/66/66 59/59/59
f 67/67/67 68/68/68 65/65/65
f 65/65/65 68/68/68 64/64/64
f 67/67/67 65/65/65 66/66/66
f 64/64/64 68/68/68 69/69/69
f 68/68/68 70/70/70 69/69/69
f 5/5/5 40/40/40 71/71/71
f 6/6/6 5/5/5 71/71/71
f 64/64/64 72/72/72 60/60/60
f 64/64/64 69/69/69 72/72/72
f 45/45/45 46/46/46 73/73/73
f 73/73/73 46/46/46 52/52/52
f 57/57/57 74/74/74 53/53/53
f 51/51/51 27/27/27 28/28/28
f 32/32/32 27/27/27 51/51/51
f 37/37/37 32/32/32 51/51/51
f 10/10/10 9/9/9 16/16/16
