# Cube.011 -- imported by tools/import_asset_pack.py from treesSingle.fbx
o __pending__
v 47.197867 9.175809 0.126798
v 47.359799 9.244446 0.063397
v 47.197867 9.175809 -0.126798
v 48.384440 6.376495 -0.453472
v 47.359799 9.244446 -0.063400
v 48.963570 6.621975 -0.226735
v 48.963570 6.621975 -0.226735
v 47.359799 9.244446 0.063397
v 48.963570 6.621975 0.226735
v 48.384440 6.376495 0.453469
v 47.359799 9.244446 0.063397
v 47.197867 9.175809 0.126798
v 47.035935 9.107167 0.063397
v 47.805311 6.131015 0.226735
v 47.805311 6.131015 0.226735
v 47.035935 9.107167 -0.063400
v 47.805311 6.131015 -0.226735
v 47.035935 9.107167 -0.063400
v 47.197867 9.175809 -0.126798
v 47.805311 6.131015 -0.226735
v 49.189869 4.530836 -0.529043
v 48.514232 4.244446 -0.264520
v 48.514232 4.244446 -0.264520
v 48.514232 4.244446 0.264520
v 49.189869 4.530836 0.529043
v 48.514232 4.244446 0.264520
v 48.514232 4.244446 -0.264520
v 49.865504 4.817223 -0.264520
v 49.865504 4.817223 -0.264520
v 49.865504 4.817223 0.264520
v 48.963570 6.621975 0.226735
v 49.189869 4.530836 0.529043
v 49.865504 4.817223 0.264520
v 48.514232 4.244446 0.264520
v 47.359799 9.244446 -0.063400
v 47.035935 9.107167 -0.063400
v 47.035935 9.107167 0.063397
v 47.359799 9.244446 -0.063400
v 47.035935 9.107167 0.063397
v 49.189869 4.530836 -0.529043
v 49.865504 4.817223 -0.264520
v 49.865504 4.817223 0.264520
vt 0.662171 0.247661
vt 0.670749 0.256937
vt 0.679327 0.240944
vt 0.737394 0.774229
vt 0.739015 0.996885
vt 0.776512 0.780378
vt 0.946225 0.441117
vt 0.967305 0.623687
vt 0.979172 0.441117
vt 0.845788 0.778293
vt 0.816886 0.996550
vt 0.830447 0.996885
vt 0.840458 0.996550
vt 0.881591 0.777097
vt 0.901558 0.403108
vt 0.922637 0.623687
vt 0.934504 0.403108
vt 0.714517 0.995165
vt 0.728077 0.995165
vt 0.688899 0.774229
vt 0.742135 0.629918
vt 0.685558 0.629918
vt 0.937249 0.261749
vt 0.898812 0.261749
vt 0.845537 0.201500
vt 0.826318 0.152068
vt 0.787881 0.152068
vt 0.787771 0.637091
vt 0.943480 0.314523
vt 0.981917 0.314523
vt 0.797289 0.777097
vt 0.850582 0.632779
vt 0.794002 0.631384
vt 0.892352 0.631384
vt 0.679327 0.253579
vt 0.670749 0.231668
vt 0.662171 0.235027
vt 0.958092 0.623687
vt 0.913424 0.623687
vt 0.768663 0.201500
vt 0.787881 0.250932
vt 0.826318 0.250932
vn -0.264507 0.624001 0.735295
vn 0.308176 0.840816 0.445034
vn -0.264514 0.624020 -0.735277
vn -0.029046 0.065524 -0.997428
vn 0.308160 0.840822 -0.445035
vn 0.709568 0.414906 -0.569532
vn 0.709568 0.414906 -0.569532
vn 0.308176 0.840816 0.445034
vn 0.709566 0.414905 0.569535
vn -0.029047 0.065524 0.997428
vn 0.308176 0.840816 0.445034
vn -0.264507 0.624001 0.735295
vn -0.818541 0.363226 0.445037
vn -0.790143 -0.230195 0.568053
vn -0.790143 -0.230195 0.568053
vn -0.818545 0.363227 -0.445029
vn -0.790146 -0.230197 -0.568048
vn -0.818545 0.363227 -0.445029
vn -0.264514 0.624020 -0.735277
vn -0.790146 -0.230197 -0.568048
vn 0.245161 -0.573862 -0.781395
vn -0.387754 -0.795369 -0.465870
vn -0.387754 -0.795369 -0.465870
vn -0.387764 -0.795371 0.465859
vn 0.245170 -0.573886 0.781375
vn -0.387764 -0.795371 0.465859
vn -0.387754 -0.795369 -0.465870
vn 0.843994 -0.266161 -0.465653
vn 0.843994 -0.266161 -0.465653
vn 0.844002 -0.266156 0.465642
vn 0.709566 0.414905 0.569535
vn 0.245170 -0.573886 0.781375
vn 0.844002 -0.266156 0.465642
vn -0.387764 -0.795371 0.465859
vn 0.308160 0.840822 -0.445035
vn -0.818545 0.363227 -0.445029
vn -0.818541 0.363226 0.445037
vn 0.308160 0.840822 -0.445035
vn -0.818541 0.363226 0.445037
vn 0.245161 -0.573862 -0.781395
vn 0.843994 -0.266161 -0.465653
vn 0.844002 -0.266156 0.465642
f 1/1/1 2/2/2 3/3/3
f 4/4/4 5/5/5 6/6/6
f 7/7/7 8/8/8 9/9/9
f 10/10/10 11/11/11 12/12/12
f 10/10/10 13/13/13 14/14/14
f 15/15/15 16/16/16 17/17/17
f 4/4/4 18/18/18 19/19/19
f 20/20/20 21/21/21 22/22/22
f 15/15/15 23/23/23 24/24/24
f 25/25/25 26/26/26 27/27/27
f 21/21/21 6/6/6 28/28/28
f 29/29/29 9/9/9 30/30/30
f 31/31/31 32/32/32 33/33/33
f 32/32/32 14/14/14 34/34/34
f 2/2/2 35/35/35 3/3/3
f 3/3/3 36/36/36 37/37/37
f 37/37/37 1/1/1 3/3/3
f 4/4/4 19/19/19 5/5/5
f 7/7/7 38/38/38 8/8/8
f 10/10/10 31/31/31 11/11/11
f 10/10/10 12/12/12 13/13/13
f 15/15/15 39/39/39 16/16/16
f 4/4/4 20/20/20 18/18/18
f 20/20/20 4/4/4 21/21/21
f 15/15/15 17/17/17 23/23/23
f 27/27/27 40/40/40 25/25/25
f 40/40/40 41/41/41 25/25/25
f 41/41/41 42/42/42 25/25/25
f 21/21/21 4/4/4 6/6/6
f 29/29/29 7/7/7 9/9/9
f 31/31/31 10/10/10 32/32/32
f 32/32/32 10/10/10 14/14/14
