# Blender 5.1.2
# www.blender.org
mtllib Heavy Bold.mtl
o Heavy_Bold
v -2.860576 6.639502 -2.357264
v -3.021735 5.981328 -2.609540
v -2.125286 6.731461 -2.769454
v -2.125287 6.103756 -3.122249
v -1.555716 -0.013368 -0.937352
v -1.555711 -0.013371 -1.530190
v -2.285794 -0.013368 -0.937352
v -1.963554 -0.013368 -1.299082
v -1.389998 6.639502 -2.357264
v -1.218766 5.981332 -2.609536
v -1.555714 0.865412 -0.762776
v -1.963553 0.525885 -0.794372
v -0.931366 -0.013368 -0.937352
v -0.201287 -0.013368 -0.937352
v -0.931370 -0.013371 -1.530190
v -0.523528 -0.013368 -1.299082
v -2.285796 -0.013370 -0.264133
v -2.125286 9.116604 -2.213257
v -1.389998 9.024649 -1.801066
v -2.860576 9.024649 -1.801066
v -3.021735 5.746568 -1.604201
v -2.125288 5.624139 -1.091486
v -2.860576 6.445598 -1.532890
v -0.931368 0.865412 -0.762776
v -0.523529 0.525885 -0.794372
v -1.963553 0.525884 -0.151295
v -0.201285 -0.013370 -0.264133
v -0.130942 8.179051 -2.646217
v -0.513695 9.017213 -2.423880
v -1.118042 8.169063 -2.646229
v -0.684927 9.017214 -2.423880
v -1.118043 7.171090 -2.878818
v -0.130943 7.171092 -2.878818
v 0.130943 7.171092 -2.878818
v 1.118043 7.171090 -2.878818
v 0.130942 8.179051 -2.646217
v 1.118042 8.169063 -2.646229
v -1.400071 8.035748 -1.952504
v -1.400072 6.698479 -2.265997
v 0.000000 6.959741 -2.567349
v -2.689344 9.343470 -1.619630
v -2.125287 9.414995 -1.941349
v -1.389998 6.445598 -1.532890
v -1.218765 5.746566 -1.604203
v 1.389998 6.639502 -2.357264
v 1.218766 5.981332 -2.609536
v 2.125286 6.731461 -2.769454
v 2.125287 6.103756 -3.122249
v -0.523529 0.525884 -0.151295
v -1.555715 0.865415 -0.119697
v 0.000000 8.127353 -2.294305
v 0.513695 9.017213 -2.423880
v 0.684927 9.017214 -2.423880
v -0.473405 5.877221 -1.864816
v 1.400072 6.698479 -2.265997
v -1.389998 8.830744 -0.976692
v -2.860577 8.830744 -0.976692
v -1.561230 9.343470 -1.619630
v -2.125286 9.471618 -1.267493
v 2.860576 6.639502 -2.357264
v 3.021735 5.981328 -2.609540
v -0.931367 0.865415 -0.119697
v -1.641334 1.120841 -0.178380
v -1.641334 1.260601 -0.821436
v -1.893101 0.561789 0.071589
v -2.351317 1.400368 -0.177687
v -0.845747 1.120841 -0.178380
v -0.845748 1.260601 -0.821436
v 0.412971 9.075323 -2.051721
v -0.412971 9.075323 -2.051721
v 0.775578 9.075323 -2.051717
v -0.775578 9.075323 -2.051717
v 1.400071 8.035748 -1.952504
v -0.866230 9.083525 -1.689680
v 0.473405 5.877221 -1.864816
v -2.689344 9.190473 -0.986279
v -2.125287 6.353639 -1.120710
v 2.125286 9.116604 -2.213257
v 1.389998 9.024649 -1.801066
v 2.860576 9.024649 -1.801066
v 3.021735 5.746568 -1.604201
v 2.125288 5.624139 -1.091486
v 1.389998 6.445598 -1.532890
v 1.218765 5.746566 -1.604203
v -1.555714 1.574431 -0.116662
v -0.931368 1.574431 -0.116662
v -1.641333 2.418638 -0.627619
v -0.845748 2.418638 -0.627619
v -0.593981 0.561789 0.071589
v -0.135764 1.400368 -0.177687
v -2.280821 2.448589 -0.175150
v -1.400070 6.531319 -0.787925
v -1.400070 7.199927 -0.626159
v -1.400071 6.060444 -0.527076
v 0.866230 9.083525 -1.689680
v -2.125286 8.728796 -0.564510
v -1.561230 9.190473 -0.986279
v -2.125287 9.118998 -0.674622
v 1.389998 8.830744 -0.976692
v 1.561230 9.343470 -1.619630
v 2.125287 9.414995 -1.941349
v 2.860576 6.445598 -1.532890
v -1.963552 0.525884 1.647309
v -2.285795 -0.013368 1.644999
v -1.963554 0.525885 0.833415
v -2.285795 -0.013369 0.650242
v -1.555713 -0.013368 1.645000
v -0.201287 -0.013369 0.650242
v -0.931368 -0.013368 1.645000
v -0.523528 0.525885 0.833415
v -0.931369 0.865414 1.005686
v -1.555713 0.865414 1.005686
v -1.893100 0.561790 0.704926
v -2.351316 1.400369 1.099036
v -1.641334 1.120844 1.098348
v -0.593982 0.561790 0.704926
v -0.845748 1.120844 1.098348
v -0.206260 2.448589 -0.175150
v -0.473405 5.381642 -0.648640
v 0.473405 5.381642 -0.648640
v -0.866232 8.485508 0.039233
v 1.400071 6.060444 -0.527076
v 2.860577 8.830744 -0.976692
v 2.689344 9.343470 -1.619630
v 2.125286 9.471618 -1.267493
v 2.125287 6.353639 -1.120710
v -0.523530 0.525884 1.647309
v -0.201286 -0.013368 1.644999
v -1.555715 0.865415 1.648757
v -1.555714 1.574432 1.290067
v -0.931368 1.574432 1.290067
v -1.641334 3.307133 -0.032340
v -0.845748 3.307133 -0.032340
v -0.135765 1.400369 1.099036
v -2.280822 2.448592 1.031206
v 1.400070 6.531319 -0.787925
v 1.400070 7.199927 -0.626159
v -1.722389 6.530872 -0.697423
v -1.722388 6.150264 -0.506849
v -1.722389 7.129595 -0.545792
v -1.400071 7.447823 -0.243693
v 2.125286 8.728796 -0.564510
v 1.561230 9.190473 -0.986279
v 2.689344 9.190473 -0.986279
v -0.931367 0.865415 1.648757
v -1.963552 -0.013368 2.750290
v -1.555716 -0.013371 2.971341
v -1.641333 1.260607 1.721964
v -1.852817 3.706038 -0.097398
v -1.711828 3.376612 -0.096939
v -1.560767 3.775917 -0.439472
v -0.775254 3.376612 -0.096939
v -0.926315 3.775917 -0.439472
v -1.560767 4.744235 -0.440819
v -0.926315 4.744235 -0.440819
v -1.480202 2.917407 0.084742
v -1.006880 2.917407 0.084742
v -1.993808 4.514635 -0.098524
v 2.041478 3.944367 -0.392214
v 2.565153 3.944383 -0.392056
v 2.304046 4.403754 -0.552424
v 1.780374 4.403801 -0.391661
v -0.302173 5.082235 -0.523069
v -0.302174 4.470057 -0.780959
v 0.302173 5.082235 -0.523069
v 0.302174 4.470057 -0.780959
v -0.302174 3.778862 -0.305311
v 0.302174 3.778862 -0.305311
v -0.473405 4.970740 -0.418445
v -0.473405 4.482880 -0.625441
v -0.473404 3.947524 -0.249196
v 0.866232 8.485508 0.039233
v -1.722389 7.357899 -0.243807
v 3.219531 2.869817 0.960945
v 3.220949 3.788039 -0.667166
v 2.897267 2.869803 0.960842
v 2.898685 3.788024 -0.667271
v 3.222902 5.006566 -0.665459
v 2.900640 5.006555 -0.665556
v 2.125287 9.118998 -0.674622
v -0.931366 -0.013371 2.971341
v -0.523530 -0.013368 2.750290
v -1.641334 3.307136 0.892534
v -0.845749 1.260607 1.721964
v -0.206260 2.448592 1.031206
v -1.641333 5.413074 -0.099776
v -0.845749 5.413074 -0.099776
v -0.634265 3.706038 -0.097398
v -1.711829 3.376613 0.637301
v -1.852818 3.706038 0.636846
v -0.493273 4.514635 -0.098524
v 2.685712 3.754820 0.110614
v 1.920341 3.754797 0.110379
v 1.548767 4.404002 0.111176
v 2.837799 4.403835 -0.391322
v 2.566610 4.853281 -0.390785
v 2.042934 4.853270 -0.390945
v 1.984958 5.906783 -0.764405
v 1.861465 5.568024 -0.402546
v 2.377730 5.903956 -0.764328
v 2.495941 5.563450 -0.402437
v 1.675166 6.218698 -0.402001
v 1.846373 6.217465 -0.764146
v 1.799435 6.657357 -0.542434
v 1.939346 6.516496 -0.763852
v 2.521132 6.212601 -0.764033
v 2.432828 6.512940 -0.763762
v 0.473405 4.970740 -0.418445
v 0.473405 4.482880 -0.625441
v 0.473405 3.947524 -0.249196
v 1.722389 6.530872 -0.697423
v 1.722388 6.150264 -0.506849
v 1.722389 7.129595 -0.545792
v 1.400071 7.447823 -0.243693
v -1.400069 5.792877 1.051421
v 2.898741 3.788693 0.962132
v 3.513026 3.788381 0.157678
v 3.514979 5.006908 0.159384
v -0.845747 3.307136 0.892534
v -1.641333 2.418644 1.604141
v -1.852818 3.706038 1.049223
v -1.993807 4.514635 1.118505
v -1.480203 2.917408 0.869276
v -1.006878 2.917408 0.869276
v -1.711827 3.376610 1.049683
v -0.775254 3.376610 1.049683
v -0.775252 3.376613 0.637301
v -0.634264 3.706038 0.636846
v -1.958561 3.706038 0.697191
v -1.973666 3.376611 0.697650
v 2.687812 5.063240 0.112455
v 3.069443 4.404047 0.111646
v 1.922439 5.063218 0.112212
v 1.920374 3.755185 1.055835
v 2.833336 6.210358 -0.401798
v 1.799441 6.657363 -0.401578
v 1.762963 7.147121 -0.572167
v 2.578720 7.141248 -0.572023
v 2.574911 6.651776 -0.542289
v 2.574914 6.651772 -0.401435
v 0.302173 5.512676 0.687260
v -0.302173 5.512676 0.687260
v -0.473404 5.350739 0.650051
v -0.473406 4.910859 1.205157
v -0.473405 5.374640 0.769304
v 0.473405 5.374640 0.769304
v 1.722389 7.357899 -0.243807
v -1.722388 5.872803 1.051530
v 2.900691 5.007214 0.963825
v 3.724538 3.788719 0.962386
v -0.845748 2.418644 1.604141
v -1.641334 5.413074 0.815510
v -0.845747 5.413074 0.815510
v -0.493274 4.514635 1.118505
v -0.634264 3.706038 1.049223
v -1.973666 3.376610 1.120091
v -1.691686 2.867495 1.120800
v -0.513416 3.376611 0.697650
v -0.528521 3.706038 0.697191
v -1.958560 3.706039 1.119630
v 2.685746 3.755211 1.056069
v 1.823121 6.688019 0.086797
v 1.821698 5.649150 0.085943
v 2.457575 6.688023 -0.114211
v 2.456151 5.649153 -0.115064
v 1.932352 5.559251 0.166388
v 2.405674 5.559247 0.015627
v 2.697722 5.559247 0.408073
v 2.828767 5.649149 0.408192
v 1.932353 5.559248 0.649291
v 1.931845 5.189650 0.648983
v 1.931844 5.189649 0.166081
v 2.405167 5.189651 0.015325
v 2.697217 5.189651 0.407772
v 2.283744 4.770109 0.437482
v 2.583307 7.730614 -0.199258
v 3.025622 6.328853 -0.401659
v 3.381761 6.795809 -0.370982
v -0.473406 4.468766 1.216454
v -0.302174 4.374083 1.368347
v 0.473404 5.350739 0.650051
v 0.473406 4.910859 1.205157
v 0.473406 4.468766 1.216454
v -1.661953 6.800388 1.374539
v -1.329562 6.900153 1.404837
v 1.400069 5.792877 1.051421
v 2.902245 5.976046 0.965189
v 3.224508 5.976050 0.965281
v 3.726491 5.007243 0.964085
v -1.057232 2.867494 1.452712
v -0.795395 2.867495 1.120800
v -1.429849 2.867494 1.452712
v -1.565802 3.276783 1.663359
v -1.560767 3.706038 1.451545
v -1.565804 3.706037 1.572242
v -0.513416 3.376610 1.120091
v -0.528521 3.706039 1.119630
v 1.919395 3.145921 1.054975
v 2.684767 3.145942 1.055211
v 1.548837 4.404884 2.273637
v 1.823121 6.688021 0.730667
v 1.821697 5.649151 0.729812
v 2.830190 6.688019 0.409047
v 2.405676 5.559248 0.800349
v 2.405168 5.189651 0.800040
v 3.589911 6.364747 0.010960
v 3.494221 5.716098 0.020415
v 3.522137 6.714881 0.051501
v 1.747487 7.746625 -0.199389
v 3.596441 7.203841 -0.179437
v 1.747486 7.746625 1.007862
v 0.302174 4.374083 1.368347
v 1.722388 5.872803 1.051530
v -0.866232 7.817548 1.768071
v -1.560767 4.444756 1.621509
v -0.926314 4.444756 1.621509
v -0.921280 3.276783 1.663359
v -0.926315 3.706038 1.451545
v -0.921278 3.706037 1.572242
v 1.922510 5.064096 2.274673
v 2.684807 3.146440 2.272229
v 1.919436 3.146417 2.271996
v 1.920413 3.755682 2.272846
v 3.069512 4.404929 2.274117
v 2.457574 6.688018 0.932075
v 2.456151 5.649148 0.931221
v 3.599373 6.344653 0.796361
v 3.494218 5.716098 0.785008
v 3.025619 6.328853 1.208014
v 2.585329 7.990339 0.404609
v 1.799440 6.657360 1.208097
v 2.574913 6.651776 1.208236
v 3.789425 7.412241 0.404298
v 0.302173 4.957937 1.337540
v -0.302173 4.957937 1.337540
v 0.866232 7.817548 1.768071
v 1.661953 6.800388 1.374539
v 1.329562 6.900153 1.404837
v -1.661954 6.420230 1.474612
v -1.661955 6.101210 1.333403
v -1.329563 6.021081 1.373531
v -0.251811 4.833534 1.090395
v 0.251811 4.833534 1.090395
v 3.492959 3.789314 2.450891
v 2.687881 5.064118 2.274910
v 2.685784 3.755702 2.273083
v 3.522136 6.714877 0.755738
v 1.759580 8.006275 0.404478
v 1.861465 5.568020 1.207128
v 2.495941 5.563450 1.207234
v 1.675167 6.218700 1.207677
v -1.329562 6.429873 1.545016
v -0.866229 5.817635 2.107373
v -0.251811 5.120290 1.694156
v 0.251811 5.120290 1.694156
v -0.251811 5.458900 1.915834
v 2.898838 3.789918 3.969466
v 3.565088 4.817909 2.050035
v 3.563775 3.998900 2.048884
v 2.521136 6.212605 1.570001
v 2.833338 6.210358 1.207873
v 2.377731 5.903952 1.569685
v 1.799441 6.657361 1.348942
v 1.984958 5.906784 1.569623
v 2.583305 7.730618 1.007991
v 1.846375 6.217466 1.569880
v 1.939347 6.516493 1.570170
v 3.596443 7.203844 0.987584
v 1.762967 7.147124 1.379568
v 1.661954 6.420230 1.474612
v 1.661955 6.101210 1.333403
v 1.329563 6.021081 1.373531
v -0.866231 6.495393 2.440114
v 0.251811 5.458900 1.915834
v 3.221101 3.789929 3.969563
v 2.900154 4.628560 3.125772
v 2.899449 4.189086 3.125145
v 3.494913 5.007842 2.452599
v 2.041575 3.945577 2.574891
v 2.565251 3.945595 2.575055
v 1.780473 4.405015 2.575449
v 2.574912 6.651769 1.349069
v 2.432829 6.512936 1.570253
v 2.578720 7.141248 1.379697
v 3.381763 6.795808 1.178324
v 1.329562 6.429873 1.545016
v 0.866229 5.817635 2.107373
v -0.614419 7.063890 2.641994
v 2.900791 5.008442 3.971164
v 2.837895 4.405045 2.575782
v 2.566709 4.854495 2.576324
v 2.043031 4.854475 2.576160
v 2.223349 4.255270 2.726249
v 2.394549 4.255274 2.726299
v 2.485425 4.405095 2.726537
v 2.223827 4.554908 2.726666
v 2.132954 4.405087 2.726437
v 0.614419 7.063890 2.641994
v -0.251811 5.745559 2.539711
v 0.251811 5.745559 2.539711
v 0.866231 6.495393 2.440114
v -0.531296 6.254064 2.751557
v 3.383552 4.628577 3.125922
v 3.382843 4.189108 3.125297
v 2.395030 4.554915 2.726723
v 2.223366 4.255485 3.239211
v 2.394568 4.255484 3.239261
v 2.485443 4.405308 3.239498
v 2.395044 4.555114 3.239666
v 2.223845 4.555114 3.239622
v 2.132968 4.405293 3.239383
v 0.475950 6.254067 2.751554
v -0.450575 6.742980 2.882926
v 0.000000 6.233535 2.862139
v 3.223053 5.008453 3.971272
v 0.385438 6.742987 2.882925
v 2.899350 4.109531 3.969908
v 3.221612 4.109542 3.970016
v 2.900328 4.718793 3.970764
v 3.222587 4.718804 3.970852
v -2.041478 3.944367 -0.392214
v -2.565153 3.944383 -0.392056
v -2.304046 4.403754 -0.552424
v -1.780374 4.403801 -0.391661
v -2.685712 3.754820 0.110614
v -1.920341 3.754797 0.110379
v -1.548767 4.404002 0.111176
v -2.837799 4.403835 -0.391322
v -2.566610 4.853281 -0.390785
v -2.042934 4.853270 -0.390945
v -1.984958 5.906783 -0.764405
v -1.861465 5.568024 -0.402546
v -2.377730 5.903956 -0.764328
v -2.495941 5.563450 -0.402437
v -1.675166 6.218698 -0.402001
v -1.846373 6.217465 -0.764146
v -1.799435 6.657357 -0.542434
v -1.939346 6.516496 -0.763852
v -2.521132 6.212601 -0.764033
v -2.432828 6.512940 -0.763762
v -2.687812 5.063240 0.112455
v -3.069443 4.404047 0.111646
v -1.922439 5.063218 0.112212
v -1.920374 3.755185 1.055835
v -2.833336 6.210358 -0.401798
v -1.799441 6.657363 -0.401578
v -1.762963 7.147121 -0.572167
v -2.578720 7.141248 -0.572023
v -2.574911 6.651776 -0.542289
v -2.574914 6.651772 -0.401435
v -2.685746 3.755211 1.056069
v -1.823121 6.688019 0.086797
v -1.821698 5.649150 0.085943
v -2.457575 6.688023 -0.114211
v -2.456151 5.649153 -0.115064
v -1.932352 5.559251 0.166388
v -2.405674 5.559247 0.015627
v -2.697722 5.559247 0.408073
v -2.828767 5.649149 0.408192
v -1.932353 5.559248 0.649291
v -1.931845 5.189650 0.648983
v -1.931844 5.189649 0.166081
v -2.405167 5.189651 0.015325
v -2.697217 5.189651 0.407772
v -2.283744 4.770109 0.437482
v -2.583307 7.730614 -0.199258
v -3.025622 6.328853 -0.401659
v -3.381761 6.795809 -0.370982
v -1.919395 3.145921 1.054975
v -2.684767 3.145942 1.055211
v -1.548837 4.404884 2.273637
v -1.823121 6.688021 0.730667
v -1.821697 5.649151 0.729812
v -2.830190 6.688019 0.409047
v -2.405676 5.559248 0.800349
v -2.405168 5.189651 0.800040
v -3.589911 6.364747 0.010960
v -3.494221 5.716098 0.020415
v -3.522137 6.714881 0.051501
v -1.747487 7.746625 -0.199389
v -3.596441 7.203841 -0.179437
v -1.747486 7.746625 1.007862
v -1.922510 5.064096 2.274673
v -2.684807 3.146440 2.272229
v -1.919436 3.146417 2.271996
v -1.920413 3.755682 2.272846
v -3.069512 4.404929 2.274117
v -2.457574 6.688018 0.932075
v -2.456151 5.649148 0.931221
v -3.599373 6.344653 0.796361
v -3.494218 5.716098 0.785008
v -3.025619 6.328853 1.208014
v -2.585329 7.990339 0.404609
v -1.799440 6.657360 1.208097
v -2.574913 6.651776 1.208236
v -3.789425 7.412241 0.404298
v -2.687881 5.064118 2.274910
v -2.685784 3.755702 2.273083
v -3.522136 6.714877 0.755738
v -1.759580 8.006275 0.404478
v -1.861465 5.568020 1.207128
v -2.495941 5.563450 1.207234
v -1.675167 6.218700 1.207677
v -2.521136 6.212605 1.570001
v -2.833338 6.210358 1.207873
v -2.377731 5.903952 1.569685
v -1.799441 6.657361 1.348942
v -1.984958 5.906784 1.569623
v -2.583305 7.730618 1.007991
v -1.846375 6.217466 1.569880
v -1.939347 6.516493 1.570170
v -3.596443 7.203844 0.987584
v -1.762967 7.147124 1.379568
v -2.041575 3.945577 2.574891
v -2.565251 3.945595 2.575055
v -1.780473 4.405015 2.575449
v -2.574912 6.651769 1.349069
v -2.432829 6.512936 1.570253
v -2.578720 7.141248 1.379697
v -3.381763 6.795808 1.178324
v -2.837895 4.405045 2.575782
v -2.566709 4.854495 2.576324
v -2.043031 4.854475 2.576160
v -2.223349 4.255270 2.726249
v -2.394549 4.255274 2.726299
v -2.485425 4.405095 2.726537
v -2.223827 4.554908 2.726666
v -2.132954 4.405087 2.726437
v -2.395030 4.554915 2.726723
v -2.223366 4.255485 3.239211
v -2.394568 4.255484 3.239261
v -2.485443 4.405308 3.239498
v -2.395044 4.555114 3.239666
v -2.223845 4.555114 3.239622
v -2.132968 4.405293 3.239383
v 1.555716 -0.013368 -0.937352
v 1.555711 -0.013371 -1.530190
v 2.285794 -0.013368 -0.937352
v 1.963554 -0.013368 -1.299082
v 1.555714 0.865412 -0.762776
v 1.963553 0.525885 -0.794372
v 0.931366 -0.013368 -0.937352
v 0.201287 -0.013368 -0.937352
v 0.931370 -0.013371 -1.530190
v 0.523528 -0.013368 -1.299082
v 2.285796 -0.013370 -0.264133
v 0.931368 0.865412 -0.762776
v 0.523529 0.525885 -0.794372
v 1.963553 0.525884 -0.151295
v 0.201285 -0.013370 -0.264133
v 0.523529 0.525884 -0.151295
v 1.555715 0.865415 -0.119697
v 0.931367 0.865415 -0.119697
v 1.641334 1.120841 -0.178380
v 1.641334 1.260601 -0.821436
v 1.893101 0.561789 0.071589
v 2.351317 1.400368 -0.177687
v 0.845747 1.120841 -0.178380
v 0.845748 1.260601 -0.821436
v 1.555714 1.574431 -0.116662
v 0.931368 1.574431 -0.116662
v 1.641333 2.418638 -0.627619
v 0.845748 2.418638 -0.627619
v 0.593981 0.561789 0.071589
v 0.135764 1.400368 -0.177687
v 2.280821 2.448589 -0.175150
v 1.963552 0.525884 1.647309
v 2.285795 -0.013368 1.644999
v 1.963554 0.525885 0.833415
v 2.285795 -0.013369 0.650242
v 1.555713 -0.013368 1.645000
v 0.201287 -0.013369 0.650242
v 0.931368 -0.013368 1.645000
v 0.523528 0.525885 0.833415
v 0.931369 0.865414 1.005686
v 1.555713 0.865414 1.005686
v 1.893100 0.561790 0.704926
v 2.351316 1.400369 1.099036
v 1.641334 1.120844 1.098348
v 0.593982 0.561790 0.704926
v 0.845748 1.120844 1.098348
v 0.206260 2.448589 -0.175150
v 0.523530 0.525884 1.647309
v 0.201286 -0.013368 1.644999
v 1.555715 0.865415 1.648757
v 1.555714 1.574432 1.290067
v 0.931368 1.574432 1.290067
v 1.641334 3.307133 -0.032340
v 0.845748 3.307133 -0.032340
v 0.135765 1.400369 1.099036
v 2.280822 2.448592 1.031206
v 0.931367 0.865415 1.648757
v 1.963552 -0.013368 2.750290
v 1.555716 -0.013371 2.971341
v 1.641333 1.260607 1.721964
v 1.852817 3.706038 -0.097398
v 1.711828 3.376612 -0.096939
v 1.560767 3.775917 -0.439472
v 0.775254 3.376612 -0.096939
v 0.926315 3.775917 -0.439472
v 1.560767 4.744235 -0.440819
v 0.926315 4.744235 -0.440819
v 1.480202 2.917407 0.084742
v 1.006880 2.917407 0.084742
v 1.993808 4.514635 -0.098524
v 0.931366 -0.013371 2.971341
v 0.523530 -0.013368 2.750290
v 1.641334 3.307136 0.892534
v 0.845749 1.260607 1.721964
v 0.206260 2.448592 1.031206
v 1.641333 5.413074 -0.099776
v 0.845749 5.413074 -0.099776
v 0.634265 3.706038 -0.097398
v 1.711829 3.376613 0.637301
v 1.852818 3.706038 0.636846
v 0.493273 4.514635 -0.098524
v 0.845747 3.307136 0.892534
v 1.641333 2.418644 1.604141
v 1.852818 3.706038 1.049223
v 1.993807 4.514635 1.118505
v 1.480203 2.917408 0.869276
v 1.006878 2.917408 0.869276
v 1.711827 3.376610 1.049683
v 0.775254 3.376610 1.049683
v 0.775252 3.376613 0.637301
v 0.634264 3.706038 0.636846
v 1.958561 3.706038 0.697191
v 1.973666 3.376611 0.697650
v 0.845748 2.418644 1.604141
v 1.641334 5.413074 0.815510
v 0.845747 5.413074 0.815510
v 0.493274 4.514635 1.118505
v 0.634264 3.706038 1.049223
v 1.973666 3.376610 1.120091
v 1.691686 2.867495 1.120800
v 0.513416 3.376611 0.697650
v 0.528521 3.706038 0.697191
v 1.958560 3.706039 1.119630
v 1.057232 2.867494 1.452712
v 0.795395 2.867495 1.120800
v 1.429849 2.867494 1.452712
v 1.565802 3.276783 1.663359
v 1.560767 3.706038 1.451545
v 1.565804 3.706037 1.572242
v 0.513416 3.376610 1.120091
v 0.528521 3.706039 1.119630
v 1.560767 4.444756 1.621509
v 0.926314 4.444756 1.621509
v 0.921280 3.276783 1.663359
v 0.926315 3.706038 1.451545
v 0.921278 3.706037 1.572242
vn -0.8583 0.2474 -0.4497
vn -0.0008 0.3652 -0.9309
vn -0.0012 -0.2932 -0.9560
vn -0.7454 -0.3979 -0.5348
vn 0.3540 -0.8828 -0.3087
vn -0.8512 -0.4084 -0.3297
vn -0.5476 -0.4222 -0.7224
vn 0.3725 -0.3102 -0.8746
vn 0.8566 0.2529 -0.4498
vn 0.7478 -0.3937 -0.5346
vn -0.3576 0.6456 -0.6748
vn -0.6879 0.6563 -0.3100
vn -0.3540 -0.8828 -0.3087
vn -0.3725 -0.3102 -0.8746
vn 0.5476 -0.4222 -0.7224
vn 0.8512 -0.4084 -0.3297
vn -0.7431 -0.4393 0.5047
vn -0.0000 0.4513 -0.8924
vn 0.8402 0.3420 -0.4208
vn -0.8402 0.3420 -0.4208
vn -0.0011 -0.6919 0.7220
vn -0.7461 -0.5946 0.2997
vn -0.8579 0.0201 0.5134
vn 0.3576 0.6456 -0.6748
vn 0.6879 0.6563 -0.3100
vn -0.5832 0.3836 0.7160
vn 0.7431 -0.4393 0.5047
vn 0.5978 0.3103 -0.7391
vn -0.5931 0.3269 -0.7358
vn -0.3420 0.7131 -0.6120
vn 0.3478 0.7068 -0.6160
vn -0.4538 -0.2560 -0.8536
vn 0.4658 -0.2766 -0.8406
vn -0.4650 -0.2756 -0.8413
vn -0.5978 0.3103 -0.7391
vn 0.5931 0.3269 -0.7358
vn 0.4538 -0.2560 -0.8536
vn -0.9580 0.2623 -0.1158
vn -0.7589 -0.4397 -0.4803
vn -0.0000 -0.6037 -0.7972
vn -0.6000 0.7820 -0.1691
vn -0.0000 0.8587 -0.5125
vn 0.8562 0.0250 0.5160
vn 0.7484 -0.5908 0.3014
vn -0.8566 0.2529 -0.4498
vn 0.0008 0.3652 -0.9309
vn 0.0012 -0.2932 -0.9560
vn -0.7478 -0.3937 -0.5346
vn 0.5832 0.3836 0.7160
vn -0.8528 -0.1320 0.5053
vn 0.0004 0.5748 -0.8183
vn -0.3478 0.7068 -0.6160
vn 0.3420 0.7131 -0.6120
vn -0.2370 -0.7804 -0.5787
vn 0.7589 -0.4397 -0.4803
vn 0.8422 0.1177 0.5262
vn -0.8422 0.1177 0.5262
vn 0.6000 0.7820 -0.1691
vn -0.0000 0.9744 0.2249
vn 0.8583 0.2474 -0.4497
vn 0.7454 -0.3979 -0.5348
vn 0.8528 -0.1320 0.5053
vn 0.5473 -0.8310 -0.0989
vn 0.0175 -0.9710 -0.2386
vn -0.2394 -0.4585 -0.8559
vn -0.8980 -0.2143 -0.3842
vn 0.2394 -0.4585 -0.8559
vn -0.5473 -0.8310 -0.0989
vn -0.3723 0.7257 -0.5785
vn 0.3723 0.7257 -0.5785
vn 0.4757 0.8590 -0.1893
vn -0.4757 0.8590 -0.1893
vn 0.9580 0.2623 -0.1158
vn -0.5243 0.8480 0.0774
vn 0.2370 -0.7804 -0.5787
vn -0.5991 0.6185 0.5085
vn -0.0008 -0.0913 0.9958
vn 0.7461 -0.5946 0.2997
vn 0.0011 -0.6919 0.7220
vn -0.7484 -0.5908 0.3014
vn -0.8562 0.0250 0.5160
vn -0.6265 0.7130 -0.3149
vn 0.6265 0.7130 -0.3149
vn -0.2742 0.3430 -0.8984
vn 0.2742 0.3430 -0.8984
vn -0.0175 -0.9710 -0.2386
vn 0.8980 -0.2143 -0.3842
vn -0.8455 0.3349 -0.4159
vn -0.8650 -0.0583 -0.4983
vn -0.8725 0.2803 -0.4002
vn -0.5443 -0.7613 -0.3524
vn 0.5243 0.8480 0.0774
vn -0.0000 0.0023 1.0000
vn 0.5991 0.6185 0.5085
vn -0.0000 0.5401 0.8416
vn 0.8579 0.0201 0.5134
vn -0.7401 0.6541 0.1562
vn -0.5191 0.6343 -0.5729
vn -0.6924 -0.3579 -0.6265
vn -0.8775 -0.4645 0.1196
vn 0.6924 -0.3579 -0.6265
vn -0.3004 -0.9050 0.3012
vn 0.3004 -0.9050 0.3012
vn 0.5191 0.6343 -0.5729
vn 0.8807 0.1943 -0.4319
vn -0.8807 0.1943 -0.4319
vn 0.0230 -0.9801 0.1970
vn -0.8866 -0.2200 0.4069
vn 0.5375 -0.8364 0.1069
vn -0.0230 -0.9801 0.1970
vn -0.5375 -0.8364 0.1069
vn 0.8455 0.3349 -0.4159
vn -0.2865 -0.9359 -0.2049
vn 0.2865 -0.9359 -0.2049
vn -0.5238 0.8002 0.2922
vn 0.5443 -0.7613 -0.3524
vn 0.0008 -0.0913 0.9958
vn 0.7401 0.6541 0.1562
vn 0.8775 -0.4645 0.1196
vn -0.3676 0.5871 0.7213
vn -0.6061 0.6776 0.4166
vn 0.6061 0.6776 0.4166
vn -0.3776 0.8340 -0.4024
vn 0.3776 0.8340 -0.4024
vn 0.8866 -0.2200 0.4069
vn -0.8635 0.3350 0.3770
vn 0.8725 0.2803 -0.4002
vn 0.8650 -0.0583 -0.4983
vn -0.7313 -0.0898 -0.6761
vn -0.7191 -0.5505 -0.4241
vn -0.7447 0.3736 -0.5530
vn -0.7637 0.6448 0.0308
vn 0.3676 0.5871 0.7213
vn -0.6746 -0.2894 0.6791
vn 0.3702 -0.2149 0.9037
vn -0.2570 -0.4820 0.8376
vn -0.9003 -0.2667 -0.3439
vn -0.3271 -0.3000 -0.8961
vn -0.6454 -0.5452 -0.5349
vn 0.3271 -0.3000 -0.8961
vn 0.6454 -0.5452 -0.5349
vn -0.3273 0.2141 -0.9203
vn 0.3273 0.2141 -0.9203
vn -0.4205 -0.7816 -0.4607
vn 0.4205 -0.7816 -0.4607
vn -0.9205 0.0906 -0.3802
vn -0.3606 -0.6291 -0.6886
vn -0.0015 0.0040 -1.0000
vn 0.3555 -0.6320 -0.6886
vn -0.7209 0.0018 -0.6931
vn -0.3286 0.6868 -0.6484
vn 0.3286 0.6868 -0.6484
vn 0.3319 -0.0948 -0.9386
vn -0.3319 -0.0948 -0.9386
vn 0.3425 -0.8935 -0.2904
vn -0.3425 -0.8935 -0.2904
vn -0.8679 -0.0536 -0.4939
vn -0.8713 0.3566 -0.3371
vn -0.8699 -0.4697 -0.1502
vn 0.5238 0.8002 0.2922
vn -0.7268 0.6803 -0.0953
vn 0.4548 -0.8861 -0.0894
vn -0.6288 -0.7730 -0.0842
vn -0.6094 -0.3990 -0.6852
vn 0.4938 -0.4199 -0.7615
vn 0.4960 0.4115 -0.7646
vn -0.6106 0.3925 -0.6878
vn -0.3702 -0.2149 0.9037
vn 0.6746 -0.2894 0.6791
vn -0.3837 0.8461 0.3700
vn 0.2570 -0.4820 0.8376
vn 0.8635 0.3350 0.3770
vn -0.4837 0.7540 -0.4444
vn 0.4837 0.7540 -0.4444
vn 0.9003 -0.2667 -0.3439
vn -0.5843 -0.7110 -0.3912
vn -0.7718 0.1346 -0.6214
vn 0.9205 0.0906 -0.3802
vn 0.4879 -0.8506 -0.1958
vn -0.4938 -0.8470 -0.1966
vn -0.9793 -0.0007 -0.2025
vn 0.7203 -0.0001 -0.6936
vn 0.3554 0.6230 -0.6969
vn -0.3594 0.6211 -0.6965
vn -0.3556 -0.3849 -0.8517
vn 0.2899 -0.4014 -0.8688
vn 0.4642 -0.8318 0.3043
vn -0.5191 -0.7951 0.3138
vn -0.8847 -0.0499 0.4634
vn -0.5798 -0.0446 -0.8136
vn -0.7874 0.2434 -0.5664
vn -0.3418 0.4364 -0.8323
vn 0.4931 -0.0492 -0.8686
vn 0.2887 0.4442 -0.8482
vn 0.8713 0.3566 -0.3371
vn 0.8679 -0.0536 -0.4939
vn 0.8699 -0.4697 -0.1502
vn 0.7313 -0.0898 -0.6761
vn 0.7191 -0.5505 -0.4241
vn 0.7447 0.3736 -0.5530
vn 0.7637 0.6448 0.0308
vn -0.4177 -0.8876 0.1942
vn -1.0000 0.0016 -0.0000
vn 0.9218 -0.2563 -0.2907
vn 0.9250 0.2435 -0.2917
vn 0.3837 0.8461 0.3700
vn -0.3209 0.3425 0.8830
vn -0.6590 0.7223 0.2099
vn -0.9210 0.1419 0.3628
vn -0.4205 -0.7811 0.4616
vn 0.4205 -0.7811 0.4616
vn -0.3691 -0.7945 -0.4821
vn 0.3691 -0.7945 -0.4821
vn 0.7718 0.1346 -0.6214
vn 0.5843 -0.7110 -0.3912
vn -0.6726 0.6241 -0.3977
vn -0.6510 -0.5939 -0.4727
vn 0.4877 0.8483 -0.2064
vn 0.9791 -0.0030 -0.2035
vn -0.4915 0.8460 -0.2068
vn -0.7755 -0.5641 -0.2834
vn 0.9323 -0.0444 0.3590
vn -0.8966 -0.2605 0.3581
vn -0.6549 0.1605 -0.7384
vn 0.1367 0.2538 -0.9576
vn 0.3579 0.1047 -0.9279
vn -0.1224 -0.8389 0.5304
vn 0.3285 0.9282 0.1745
vn -0.3285 0.9282 0.1745
vn -0.8673 0.4910 0.0826
vn -0.8676 0.2308 0.4405
vn 0.3883 -0.9140 -0.1172
vn -0.3883 -0.9140 -0.1172
vn 0.7268 0.6803 -0.0953
vn -0.7351 -0.6478 0.1997
vn 0.9688 -0.2427 -0.0501
vn 0.3209 0.3425 0.8830
vn -0.4854 0.8027 0.3465
vn 0.4854 0.8027 0.3465
vn 0.9210 0.1419 0.3628
vn 0.6590 0.7223 0.2099
vn -0.5411 -0.7413 -0.3970
vn -0.9065 -0.4039 0.1226
vn 0.6510 -0.5939 -0.4727
vn 0.6726 0.6241 -0.3977
vn -0.7096 0.6587 0.2504
vn 0.7708 -0.5711 -0.2825
vn -0.8068 0.0016 -0.5908
vn 0.3176 0.0003 -0.9482
vn 0.2926 -0.4119 -0.8630
vn -0.7354 -0.4116 -0.5383
vn -0.6632 -0.5690 -0.4862
vn 0.2477 -0.5676 -0.7851
vn 0.8183 -0.5748 -0.0000
vn 0.9088 -0.4173 -0.0001
vn -0.6631 -0.5694 0.4859
vn -0.7555 -0.3494 -0.5543
vn -0.7645 -0.3347 0.5509
vn 0.2849 -0.3484 -0.8930
vn 0.9414 -0.3372 -0.0048
vn 0.0126 -0.9991 0.0411
vn 0.1895 0.7551 -0.6277
vn -0.0815 -0.6787 -0.7299
vn 0.6262 -0.1892 -0.7564
vn -0.8712 -0.2794 0.4037
vn -0.3422 -0.5196 0.7829
vn 0.8673 0.4910 0.0826
vn 0.8676 0.2308 0.4405
vn 0.8712 -0.2794 0.4037
vn -0.6910 0.4615 0.5563
vn -0.7075 0.4788 0.5198
vn 0.4177 -0.8876 0.1942
vn -0.6245 0.7761 -0.0876
vn 0.4620 0.8820 -0.0925
vn 0.9719 0.2301 -0.0504
vn 0.2425 -0.8125 0.5301
vn -0.2425 -0.8125 0.5301
vn 0.5411 -0.7413 -0.3970
vn -0.4305 -0.1711 0.8862
vn -0.3149 0.6940 0.6474
vn -0.3034 0.7612 0.5732
vn 0.9065 -0.4039 0.1226
vn 0.7096 0.6587 0.2504
vn 0.5768 -0.5775 -0.5777
vn -0.5777 -0.5767 -0.5777
vn -0.9553 -0.0015 0.2958
vn -0.8067 0.0006 0.5910
vn -0.7355 -0.4121 0.5377
vn 1.0000 -0.0014 0.0004
vn 0.2471 -0.5686 0.7846
vn 0.2901 -0.3232 0.9008
vn 0.8913 0.0431 -0.4513
vn 0.2509 -0.8788 -0.4059
vn 0.9464 -0.1399 -0.2913
vn -0.6483 0.5747 -0.4995
vn 0.7501 0.2783 -0.5999
vn -0.6538 0.5670 0.5010
vn 0.3422 -0.5196 0.7829
vn 0.7351 -0.6478 0.1997
vn -0.5251 0.7048 0.4770
vn -0.3666 0.1899 0.9108
vn 0.3666 0.1899 0.9108
vn 0.4305 -0.1711 0.8862
vn 0.3034 0.7612 0.5732
vn 0.3149 0.6940 0.6474
vn -0.4797 0.8245 0.3003
vn 0.5769 -0.5780 0.5772
vn -0.5780 -0.5772 0.5768
vn -0.7151 -0.4376 0.5451
vn 0.9549 -0.0037 0.2969
vn 0.3170 -0.0012 0.9484
vn 0.2922 -0.4127 0.8627
vn 0.8938 0.0358 0.4469
vn 0.2505 -0.8822 0.3988
vn -0.0837 -0.6782 0.7301
vn 0.2205 0.9754 0.0002
vn -0.8974 -0.2558 -0.3594
vn -0.1221 -0.8385 -0.5310
vn 0.8967 0.4427 0.0001
vn -0.3282 0.4124 0.8498
vn 0.3282 0.4124 0.8498
vn 0.5251 0.7048 0.4770
vn 0.6910 0.4615 0.5563
vn 0.7075 0.4788 0.5198
vn -0.6676 -0.0540 0.7426
vn -0.6787 -0.4011 0.6153
vn -0.6211 -0.4569 0.6367
vn 0.4640 -0.8588 -0.2171
vn -0.4640 -0.8588 -0.2171
vn 0.9520 -0.2568 0.1666
vn 0.4760 0.8267 0.3001
vn 0.7111 -0.4450 0.5443
vn 0.9464 -0.1394 0.2915
vn -0.6017 0.7987 0.0001
vn -0.5190 -0.7946 -0.3150
vn -0.8846 -0.0493 -0.4637
vn 0.4642 -0.8315 -0.3053
vn -0.6470 -0.0597 0.7602
vn -0.6552 -0.5995 0.4597
vn -0.5641 -0.6144 0.5516
vn 0.5641 -0.6144 0.5516
vn -0.3339 -0.8088 0.4841
vn -0.5951 -0.4782 0.6459
vn 0.9875 0.0158 0.1565
vn 0.9875 -0.0175 0.1566
vn 0.4929 -0.0505 0.8686
vn 0.2895 -0.4026 0.8684
vn 0.9324 -0.0441 -0.3588
vn -0.7877 0.2423 0.5664
vn -0.3558 -0.3860 0.8511
vn 0.1894 0.7570 0.6253
vn -0.5799 -0.0459 0.8134
vn -0.3420 0.4354 0.8327
vn 0.7500 0.2777 0.6003
vn -0.6679 0.1591 0.7271
vn 0.6676 -0.0540 0.7426
vn 0.6787 -0.4011 0.6153
vn 0.6211 -0.4569 0.6367
vn -0.8256 -0.0377 0.5630
vn 0.3339 -0.8088 0.4841
vn 0.5337 -0.4905 0.6889
vn -0.8932 0.3033 0.3319
vn -0.8920 -0.3014 0.3369
vn 0.9556 0.2425 0.1671
vn 0.3237 -0.5828 0.7454
vn -0.3288 -0.5783 0.7467
vn -0.6576 -0.0000 0.7534
vn 0.3577 0.1032 0.9281
vn 0.2885 0.4432 0.8488
vn 0.1364 0.2524 0.9580
vn 0.6258 -0.1904 0.7564
vn 0.6470 -0.0597 0.7602
vn 0.6525 -0.5958 0.4683
vn -0.4776 0.5007 0.7219
vn -0.5951 0.4732 0.6496
vn 0.6577 -0.0019 0.7533
vn 0.3244 0.5681 0.7564
vn -0.3287 0.5646 0.7571
vn 0.3756 -0.6629 0.6477
vn -0.3748 -0.6611 0.6500
vn 0.7555 -0.0005 0.6551
vn -0.3738 0.6659 0.6457
vn -0.7543 0.0015 0.6565
vn 0.4776 0.4783 0.7370
vn 0.2336 -0.7206 0.6528
vn -0.2228 -0.7285 0.6478
vn 0.8039 -0.0510 0.5925
vn -0.4979 -0.3216 0.8054
vn 0.8494 -0.2429 0.4686
vn 0.8516 0.2397 0.4662
vn 0.3754 0.6662 0.6443
vn 0.3880 -0.6898 0.6113
vn -0.3891 -0.6894 0.6110
vn 0.7946 -0.0013 0.6072
vn 0.3890 0.6888 0.6118
vn -0.3883 0.6891 0.6119
vn -0.7948 0.0006 0.6069
vn 0.4772 -0.3124 0.8214
vn -0.3404 0.1964 0.9195
vn 0.0101 -0.3202 0.9473
vn 0.5353 0.4836 0.6925
vn 0.2986 0.1942 0.9344
vn -0.5820 0.5472 0.6015
vn 0.5188 0.5549 0.6503
vn -0.5838 -0.5431 0.6036
vn 0.5185 -0.5521 0.6529
vn 0.3606 -0.6291 -0.6886
vn -0.3555 -0.6320 -0.6886
vn 0.0015 0.0040 -1.0000
vn 0.7209 0.0018 -0.6931
vn -0.4879 -0.8506 -0.1958
vn 0.4938 -0.8470 -0.1966
vn 0.9793 -0.0007 -0.2025
vn -0.7203 -0.0001 -0.6936
vn -0.3554 0.6230 -0.6969
vn 0.3594 0.6211 -0.6965
vn 0.3556 -0.3849 -0.8517
vn 0.5191 -0.7951 0.3138
vn -0.4642 -0.8318 0.3043
vn -0.2899 -0.4014 -0.8688
vn 0.8847 -0.0499 0.4634
vn 0.5798 -0.0446 -0.8136
vn 0.7874 0.2434 -0.5664
vn 0.3418 0.4364 -0.8323
vn -0.4931 -0.0492 -0.8686
vn -0.2887 0.4442 -0.8482
vn -0.9791 -0.0030 -0.2035
vn -0.4877 0.8483 -0.2064
vn 0.4915 0.8460 -0.2068
vn 0.7755 -0.5641 -0.2834
vn -0.9323 -0.0444 0.3590
vn 0.8966 -0.2605 0.3581
vn 0.6568 0.1580 -0.7373
vn -0.1367 0.2538 -0.9576
vn -0.3579 0.1047 -0.9279
vn 0.1224 -0.8389 0.5304
vn -0.7708 -0.5711 -0.2825
vn 0.8068 0.0016 -0.5908
vn 0.7354 -0.4116 -0.5383
vn -0.2926 -0.4119 -0.8630
vn -0.3176 0.0003 -0.9482
vn 0.6632 -0.5690 -0.4862
vn -0.2477 -0.5676 -0.7851
vn -0.8183 -0.5748 -0.0000
vn -0.9088 -0.4173 -0.0001
vn 0.6631 -0.5694 0.4859
vn 0.7645 -0.3347 0.5509
vn 0.7555 -0.3494 -0.5543
vn -0.2849 -0.3484 -0.8930
vn -0.9414 -0.3372 -0.0048
vn -0.0126 -0.9991 0.0411
vn -0.1880 0.7557 -0.6273
vn 0.0815 -0.6787 -0.7299
vn -0.6262 -0.1892 -0.7564
vn 0.5777 -0.5767 -0.5777
vn -0.5768 -0.5775 -0.5777
vn 0.9553 -0.0015 0.2958
vn 0.8067 0.0006 0.5910
vn 0.7355 -0.4121 0.5377
vn -1.0000 -0.0014 0.0004
vn -0.2471 -0.5686 0.7846
vn -0.2901 -0.3232 0.9008
vn -0.8913 0.0431 -0.4513
vn -0.2509 -0.8788 -0.4059
vn -0.9464 -0.1399 -0.2913
vn 0.6483 0.5747 -0.4995
vn -0.7501 0.2783 -0.5999
vn 0.6538 0.5670 0.5010
vn 0.4797 0.8245 0.3003
vn 0.5780 -0.5772 0.5768
vn -0.5769 -0.5780 0.5772
vn 0.7151 -0.4376 0.5451
vn -0.9549 -0.0037 0.2969
vn -0.2922 -0.4127 0.8627
vn -0.3170 -0.0012 0.9484
vn -0.2505 -0.8822 0.3988
vn -0.8938 0.0358 0.4469
vn 0.0837 -0.6782 0.7301
vn -0.2205 0.9754 0.0002
vn 0.8974 -0.2558 -0.3594
vn 0.1221 -0.8385 -0.5310
vn -0.8967 0.4427 0.0001
vn -0.4760 0.8267 0.3001
vn -0.7111 -0.4450 0.5443
vn -0.9464 -0.1394 0.2915
vn 0.6017 0.7987 0.0001
vn 0.5190 -0.7946 -0.3150
vn -0.4642 -0.8315 -0.3053
vn 0.8846 -0.0493 -0.4637
vn -0.4929 -0.0505 0.8686
vn -0.9324 -0.0441 -0.3588
vn -0.2895 -0.4026 0.8684
vn 0.7877 0.2423 0.5664
vn 0.3558 -0.3860 0.8511
vn -0.1874 0.7561 0.6270
vn 0.5799 -0.0459 0.8134
vn 0.3420 0.4354 0.8327
vn -0.7500 0.2777 0.6003
vn 0.6675 0.1590 0.7274
vn 0.3288 -0.5783 0.7467
vn -0.3237 -0.5828 0.7454
vn 0.6576 -0.0000 0.7534
vn -0.3577 0.1032 0.9281
vn -0.2885 0.4432 0.8488
vn -0.1364 0.2524 0.9580
vn -0.6258 -0.1904 0.7564
vn -0.6577 -0.0019 0.7533
vn -0.3244 0.5681 0.7564
vn 0.3287 0.5646 0.7571
vn 0.3748 -0.6611 0.6500
vn -0.3756 -0.6629 0.6477
vn -0.7555 -0.0005 0.6551
vn 0.3738 0.6659 0.6457
vn 0.7543 0.0015 0.6565
vn -0.3754 0.6662 0.6443
vn 0.3891 -0.6894 0.6110
vn -0.3880 -0.6898 0.6113
vn -0.7946 -0.0013 0.6072
vn -0.3890 0.6888 0.6118
vn 0.3883 0.6891 0.6119
vn 0.7948 0.0006 0.6069
vt 0.482400 0.189500
vt 0.384800 0.189500
vt 0.377000 0.130900
vt 0.494100 0.130900
vt 0.330100 0.322300
vt 0.373000 0.322300
vt 0.373000 0.373000
vt 0.330100 0.373000
vt 0.345700 0.380900
vt 0.252000 0.380900
vt 0.373000 0.498000
vt 0.302700 0.380900
vt 0.314500 0.455100
vt 0.267600 0.380900
vt 0.318400 0.498000
vt 0.294900 0.322300
vt 0.294900 0.373000
vt 0.252000 0.373000
vt 0.252000 0.322300
vt 0.373000 0.259800
vt 0.373000 0.095700
vt 0.252000 0.095700
vt 0.252000 0.037100
vt 0.373000 0.037100
vt 0.373000 0.123000
vt 0.252000 0.123000
vt 0.494100 0.123000
vt 0.435500 0.123000
vt 0.435500 0.005900
vt 0.494100 0.005900
vt 0.271500 0.380900
vt 0.494100 0.365200
vt 0.377000 0.365200
vt 0.377000 0.259800
vt 0.494100 0.259800
vt 0.373000 0.455100
vt 0.361300 0.380900
vt 0.252000 0.259800
vt 0.248000 0.599600
vt 0.185500 0.599600
vt 0.209000 0.654300
vt 0.228500 0.654300
vt 0.189500 0.716800
vt 0.189500 0.658200
vt 0.248000 0.658200
vt 0.248000 0.716800
vt 0.181600 0.720700
vt 0.138700 0.720700
vt 0.181600 0.662100
vt 0.127000 0.662100
vt 0.177700 0.720700
vt 0.134800 0.720700
vt 0.181600 0.693400
vt 0.169900 0.720700
vt 0.127000 0.689500
vt 0.130900 0.720700
vt 0.494100 0.193400
vt 0.482400 0.248000
vt 0.388700 0.248000
vt 0.377000 0.193400
vt 0.380900 0.005900
vt 0.380900 0.123000
vt 0.482400 0.185500
vt 0.384800 0.185500
vt 0.353500 0.330100
vt 0.267600 0.330100
vt 0.127000 0.720700
vt 0.216800 0.728500
vt 0.189500 0.724600
vt 0.197300 0.810500
vt 0.252000 0.005900
vt 0.373000 0.005900
vt 0.310500 0.248000
vt 0.252000 0.220700
vt 0.310500 0.189500
vt 0.228500 0.162100
vt 0.244100 0.111300
vt 0.244100 0.169900
vt 0.091800 0.084000
vt 0.119100 0.080100
vt 0.076200 0.048800
vt 0.209000 0.166000
vt 0.193400 0.111300
vt 0.127000 0.716800
vt 0.154300 0.662100
vt 0.181600 0.716800
vt 0.169900 0.689500
vt 0.181600 0.689500
vt 0.138700 0.689500
vt 0.244100 0.724600
vt 0.216800 0.810500
vt 0.232400 0.810500
vt 0.369100 0.220700
vt 0.252000 0.158200
vt 0.380900 0.119100
vt 0.435500 0.119100
vt 0.494100 0.119100
vt 0.181600 0.048800
vt 0.181600 0.103500
vt 0.127000 0.103500
vt 0.127000 0.048800
vt 0.080100 0.048800
vt 0.091800 0.134800
vt 0.111300 0.130900
vt 0.193400 0.724600
vt 0.201200 0.798800
vt 0.228500 0.798800
vt 0.123000 0.502000
vt 0.002000 0.560500
vt 0.123000 0.560500
vt 0.369100 0.158200
vt 0.310500 0.130900
vt 0.322300 0.455100
vt 0.365200 0.455100
vt 0.373000 0.380900
vt 0.322300 0.380900
vt 0.330100 0.310500
vt 0.294900 0.310500
vt 0.252000 0.310500
vt 0.048800 0.048800
vt 0.025400 0.084000
vt 0.244100 0.810500
vt 0.189500 0.810500
vt 0.181600 0.654300
vt 0.181600 0.572300
vt 0.091800 0.654300
vt 0.252000 0.033200
vt 0.373000 0.033200
vt 0.306600 0.248000
vt 0.306600 0.189500
vt 0.361300 0.220700
vt 0.322300 0.498000
vt 0.357400 0.498000
vt 0.373000 0.310500
vt 0.084000 0.166000
vt 0.197300 0.115200
vt 0.236300 0.115200
vt 0.244100 0.166000
vt 0.193400 0.166000
vt 0.029300 0.134800
vt 0.185500 0.931600
vt 0.248000 0.931600
vt 0.248000 0.908200
vt 0.185500 0.908200
vt 0.185500 0.966800
vt 0.248000 0.966800
vt 0.240200 0.810500
vt 0.002000 0.502000
vt 0.252000 0.162100
vt 0.263700 0.380900
vt 0.193400 0.169900
vt 0.002000 0.080100
vt 0.119100 0.212900
vt 0.087900 0.216800
vt 0.119100 0.197300
vt 0.033200 0.216800
vt 0.002000 0.197300
vt 0.087900 0.267600
vt 0.033200 0.267600
vt 0.080100 0.173800
vt 0.041000 0.173800
vt 0.119100 0.252000
vt 0.435500 0.697300
vt 0.408200 0.724600
vt 0.377000 0.697300
vt 0.435500 0.724600
vt 0.076200 0.498000
vt 0.005900 0.498000
vt 0.005900 0.459000
vt 0.076200 0.459000
vt 0.005900 0.419900
vt 0.076200 0.419900
vt 0.080100 0.459000
vt 0.080100 0.494100
vt 0.080100 0.427700
vt 0.091800 0.724600
vt 0.181600 0.724600
vt 0.181600 0.810500
vt 0.091800 0.810500
vt 0.189500 0.752000
vt 0.212900 0.724600
vt 0.209000 0.798800
vt 0.185500 0.998000
vt 0.248000 0.998000
vt 0.087900 0.572300
vt 0.408200 0.505900
vt 0.494100 0.560500
vt 0.494100 0.634800
vt 0.306600 0.130900
vt 0.361300 0.162100
vt 0.037100 0.166000
vt 0.091800 0.294900
vt 0.029300 0.294900
vt 0.002000 0.212900
vt 0.236300 0.318400
vt 0.189500 0.318400
vt 0.193400 0.337900
vt 0.240200 0.334000
vt 0.002000 0.252000
vt 0.451200 0.697300
vt 0.486300 0.697300
vt 0.494100 0.752000
vt 0.443400 0.752000
vt 0.377000 0.724600
vt 0.377000 0.752000
vt 0.435500 0.752000
vt 0.310500 0.916000
vt 0.263700 0.916000
vt 0.252000 0.880900
vt 0.326200 0.880900
vt 0.349600 0.841800
vt 0.396500 0.841800
vt 0.334000 0.884800
vt 0.412100 0.884800
vt 0.404300 0.919900
vt 0.341800 0.919900
vt 0.002000 0.494100
vt 0.002000 0.459000
vt 0.002000 0.427700
vt 0.408200 0.560500
vt 0.455100 0.556600
vt 0.494100 0.556600
vt 0.494100 0.630900
vt 0.455100 0.634800
vt 0.408200 0.498000
vt 0.244100 0.119100
vt 0.193400 0.119100
vt 0.005900 0.130900
vt 0.166000 0.337900
vt 0.162100 0.377000
vt 0.244100 0.377000
vt 0.240200 0.322300
vt 0.166000 0.318400
vt 0.173800 0.298800
vt 0.224600 0.298800
vt 0.169900 0.298800
vt 0.162100 0.318400
vt 0.220700 0.298800
vt 0.123000 0.318400
vt 0.201200 0.318400
vt 0.193400 0.298800
vt 0.142600 0.298800
vt 0.119100 0.334000
vt 0.169900 0.337900
vt 0.173800 0.318400
vt 0.002000 0.037100
vt 0.009800 0.037100
vt 0.002000 0.025400
vt 0.017600 0.029300
vt 0.377000 0.701200
vt 0.435500 0.701200
vt 0.494100 0.759800
vt 0.423800 0.759800
vt 0.494100 0.794900
vt 0.439500 0.752000
vt 0.439500 0.697300
vt 0.494100 0.697300
vt 0.252000 0.951200
vt 0.294900 0.951200
vt 0.252000 0.923800
vt 0.443400 0.755900
vt 0.439500 0.732400
vt 0.482400 0.755900
vt 0.494100 0.732400
vt 0.478500 0.697300
vt 0.447300 0.697300
vt 0.158200 0.498000
vt 0.084000 0.498000
vt 0.084000 0.423800
vt 0.158200 0.423800
vt 0.142600 0.498000
vt 0.095700 0.498000
vt 0.084000 0.470700
vt 0.158200 0.455100
vt 0.244100 0.752000
vt 0.224600 0.794900
vt 0.220700 0.724600
vt 0.189500 0.814500
vt 0.248000 0.814500
vt 0.248000 0.904300
vt 0.189500 0.904300
vt 0.408200 0.634800
vt 0.412100 0.556600
vt 0.127000 0.107400
vt 0.185500 0.107400
vt 0.185500 0.166000
vt 0.127000 0.166000
vt 0.177700 0.416000
vt 0.236300 0.416000
vt 0.123000 0.291000
vt 0.244100 0.291000
vt 0.244100 0.173800
vt 0.123000 0.173800
vt 0.119100 0.377000
vt 0.201200 0.377000
vt 0.201200 0.337900
vt 0.029300 0.025400
vt 0.029300 0.005900
vt 0.009800 0.025400
vt 0.119100 0.025400
vt 0.103500 0.029300
vt 0.111300 0.037100
vt 0.119100 0.037100
vt 0.017600 0.037100
vt 0.427700 0.763700
vt 0.494100 0.763700
vt 0.494100 0.771500
vt 0.427700 0.771500
vt 0.455100 0.919900
vt 0.416000 0.919900
vt 0.416000 0.853500
vt 0.455100 0.853500
vt 0.455100 0.841800
vt 0.423800 0.841800
vt 0.326200 0.912100
vt 0.252000 0.912100
vt 0.252000 0.908200
vt 0.326200 0.908200
vt 0.291000 0.884800
vt 0.294900 0.923800
vt 0.294900 0.986300
vt 0.326200 0.923800
vt 0.326200 0.951200
vt 0.154300 0.423800
vt 0.084000 0.455100
vt 0.158200 0.470700
vt 0.150400 0.423800
vt 0.236300 0.732400
vt 0.408200 0.689500
vt 0.412100 0.634800
vt 0.072300 0.005900
vt 0.044900 0.005900
vt 0.091800 0.005900
vt 0.037100 0.017600
vt 0.037100 0.037100
vt 0.127000 0.416000
vt 0.189500 0.416000
vt 0.091800 0.025400
vt 0.111300 0.025400
vt 0.103500 0.037100
vt 0.130900 0.337900
vt 0.310500 0.752000
vt 0.252000 0.752000
vt 0.252000 0.701200
vt 0.310500 0.701200
vt 0.334000 0.794900
vt 0.392600 0.970700
vt 0.388700 0.923800
vt 0.408200 0.970700
vt 0.388700 0.998000
vt 0.252000 0.986300
vt 0.326200 0.986300
vt 0.498000 0.955100
vt 0.490200 0.982400
vt 0.478500 0.927700
vt 0.498000 0.927700
vt 0.439500 0.720700
vt 0.443400 0.697300
vt 0.486300 0.744100
vt 0.193400 0.736300
vt 0.002000 0.654300
vt 0.119100 0.416000
vt 0.111300 0.345700
vt 0.009800 0.345700
vt 0.002000 0.416000
vt 0.123000 0.373000
vt 0.084000 0.017600
vt 0.084000 0.037100
vt 0.232400 0.337900
vt 0.494100 0.834000
vt 0.334000 0.834000
vt 0.373000 0.752000
vt 0.314500 0.752000
vt 0.314500 0.693400
vt 0.373000 0.693400
vt 0.494100 0.919900
vt 0.494100 0.853500
vt 0.486300 0.841800
vt 0.349600 0.970700
vt 0.349600 0.923800
vt 0.294900 0.998000
vt 0.326200 0.998000
vt 0.447300 0.744100
vt 0.002000 0.810500
vt 0.002000 0.724600
vt 0.209000 0.794900
vt 0.189500 0.767600
vt 0.002000 0.572300
vt 0.330100 0.556600
vt 0.107400 0.298800
vt 0.009800 0.298800
vt 0.244100 0.373000
vt 0.334000 0.826200
vt 0.494100 0.826200
vt 0.334000 0.759800
vt 0.353500 0.998000
vt 0.252000 0.998000
vt 0.455100 0.998000
vt 0.435500 0.927700
vt 0.490200 0.697300
vt 0.466800 0.755900
vt 0.455100 0.697300
vt 0.002000 0.857400
vt 0.002000 0.837900
vt 0.037100 0.853500
vt 0.002000 0.697300
vt 0.002000 0.662100
vt 0.060500 0.662100
vt 0.060500 0.697300
vt 0.064500 0.662100
vt 0.087900 0.697300
vt 0.119100 0.662100
vt 0.119100 0.716800
vt 0.060500 0.818400
vt 0.076200 0.834000
vt 0.252000 0.560500
vt 0.353500 0.623000
vt 0.353500 0.564500
vt 0.334000 0.970700
vt 0.423800 0.982400
vt 0.451200 0.755900
vt 0.490200 0.755900
vt 0.232400 0.787100
vt 0.216800 0.724600
vt 0.002000 0.888700
vt 0.037100 0.908200
vt 0.002000 0.919900
vt 0.127000 0.818400
vt 0.185500 0.834000
vt 0.111300 0.834000
vt 0.294900 0.584000
vt 0.294900 0.611300
vt 0.252000 0.556600
vt 0.330100 0.634800
vt 0.271500 0.763700
vt 0.306600 0.763700
vt 0.302700 0.771500
vt 0.275400 0.771500
vt 0.259800 0.798800
vt 0.252000 0.798800
vt 0.416000 0.955100
vt 0.416000 0.927700
vt 0.494100 0.720700
vt 0.412100 0.880900
vt 0.334000 0.880900
vt 0.185500 0.857400
vt 0.150400 0.853500
vt 0.060500 0.716800
vt 0.002000 0.716800
vt 0.052700 0.947300
vt 0.033200 0.998000
vt 0.252000 0.634800
vt 0.326200 0.798800
vt 0.318400 0.798800
vt 0.302700 0.826200
vt 0.306600 0.834000
vt 0.271500 0.834000
vt 0.275400 0.826200
vt 0.294900 0.791000
vt 0.283200 0.791000
vt 0.298800 0.798800
vt 0.283200 0.806600
vt 0.279300 0.798800
vt 0.134800 0.947300
vt 0.150400 0.998000
vt 0.111300 0.857400
vt 0.076200 0.857400
vt 0.185500 0.888700
vt 0.185500 0.919900
vt 0.150400 0.908200
vt 0.056600 0.896500
vt 0.294900 0.576200
vt 0.294900 0.806600
vt 0.326200 0.841800
vt 0.326200 0.857400
vt 0.252000 0.857400
vt 0.252000 0.841800
vt 0.326200 0.873000
vt 0.252000 0.873000
vt 0.127000 0.896500
vt 0.064500 0.931600
vt 0.095700 0.896500
vt 0.252000 0.630900
vt 0.412100 0.744100
vt 0.396500 0.744100
vt 0.400400 0.736300
vt 0.408200 0.736300
vt 0.400400 0.752000
vt 0.408200 0.752000
vt 0.123000 0.931600
vt 0.252000 0.580100
vt 0.252000 0.572300
vt 0.252000 0.615200
s 1
usemtl BAF950E9EBEB1271D6498C9340BA998D
f 1/1/1 3/2/2 4/3/3 2/4/4
f 5/5/5 7/6/6 8/7/7 6/8/8
f 9/2/9 10/3/10 4/4/3 3/1/2
f 5/9/5 6/10/8 11/11/11
f 7/12/6 12/13/12 8/14/7
f 8/14/7 11/15/11 6/10/8
f 13/16/13 15/17/14 16/18/15 14/19/16
f 7/6/6 5/5/5 17/20/17
f 3/21/2 18/22/18 19/23/19 9/24/9
f 3/21/2 1/25/1 20/26/20 18/22/18
f 2/27/4 4/28/3 22/29/21 21/30/22
f 1/2/1 2/3/4 21/4/22 23/1/23
f 13/9/13 24/11/24 15/10/14
f 14/12/16 16/31/15 25/13/25
f 24/32/24 13/33/13 5/34/5 11/35/11
f 26/36/26 12/13/12 7/12/6 17/37/17
f 16/31/15 15/10/14 24/15/24
f 12/13/12 11/15/11 8/14/7
f 13/16/13 27/38/27 17/20/17 5/5/5
f 14/19/16 27/38/27 13/16/13
f 28/39/28 30/40/29 31/41/30 29/42/31
f 32/43/32 30/44/29 28/45/28 33/46/33
f 34/45/34 36/46/35 37/43/36 35/44/37
f 30/47/29 32/48/32 38/49/38
f 32/48/32 39/50/39 38/49/38
f 34/51/34 35/52/37 40/53/40
f 32/54/32 40/55/40 39/49/39
f 33/56/33 40/55/40 32/54/32
f 20/57/20 41/58/41 42/59/42 18/60/18
f 9/1/9 43/2/43 44/3/44 10/4/10
f 44/61/44 22/29/21 4/28/3 10/62/10
f 45/63/45 47/64/46 48/3/47 46/4/48
f 27/37/27 14/12/16 25/13/25 49/36/49
f 50/11/50 11/15/11 12/13/12 26/36/26
f 25/13/25 16/31/15 24/15/24
f 17/38/17 27/20/27 49/65/49 26/66/26
f 36/47/35 34/56/34 51/49/51
f 34/56/34 40/50/40 51/49/51
f 30/56/29 38/50/38 31/51/30
f 28/67/28 51/50/51 33/51/33
f 33/51/33 51/50/51 40/49/40
f 36/67/35 51/50/51 52/51/52
f 28/47/28 29/56/31 51/49/51
f 36/39/35 52/42/52 53/41/53 37/40/36
f 54/68/54 39/69/39 40/70/40
f 35/52/37 55/50/55 40/53/40
f 9/24/9 19/23/19 56/71/56 43/72/43
f 23/21/23 57/22/57 20/26/20 1/25/1
f 19/60/19 18/57/18 42/58/42 58/59/58
f 42/73/42 41/74/41 59/75/59
f 60/64/60 61/3/61 48/4/47 47/63/46
f 25/13/25 24/15/24 62/11/62 49/36/49
f 63/76/63 65/77/64 64/78/65
f 66/79/66 64/80/65 65/81/64
f 63/82/63 64/83/65 68/77/67 67/76/68
f 69/84/69 51/85/51 70/86/70
f 69/87/69 71/88/71 53/51/53 52/54/52
f 72/55/72 70/89/70 29/48/31 31/56/30
f 37/51/36 53/56/53 73/49/73
f 74/49/74 72/88/72 38/50/38
f 72/88/72 31/51/30 38/50/38
f 52/51/52 51/50/51 69/49/69
f 29/56/31 70/50/70 51/49/51
f 54/90/54 40/91/40 75/69/75
f 75/68/75 40/92/40 55/90/55
f 35/54/37 73/50/73 55/49/55
f 37/67/36 73/50/73 35/54/37
f 57/57/57 76/58/76 41/59/41 20/60/20
f 42/73/42 59/75/59 58/93/58
f 41/74/41 76/94/76 59/75/59
f 43/1/43 77/2/77 22/3/21 44/4/44
f 23/2/23 21/3/22 22/4/21 77/1/77
f 47/24/46 45/21/45 79/22/20 78/23/18
f 47/24/46 78/23/18 80/71/19 60/72/60
f 61/95/61 81/61/78 82/29/79 48/96/47
f 45/64/45 46/3/48 84/4/80 83/63/81
f 46/97/48 48/96/47 82/29/79 84/30/80
f 85/32/82 86/33/83 24/34/24 11/35/11
f 50/32/50 85/33/82 11/35/11
f 62/35/62 24/32/24 86/33/83
f 50/17/50 26/66/26 49/65/49 62/8/62
f 64/98/65 87/99/84 88/100/85 68/101/67
f 67/76/68 68/77/67 89/78/86
f 90/79/87 89/102/86 68/80/67
f 66/79/66 91/103/88 64/80/65
f 87/104/84 64/80/65 91/103/88
f 39/105/39 92/106/89 93/107/90 38/90/38
f 54/108/54 94/109/91 39/110/39
f 74/50/74 95/49/92 71/88/71 72/55/72
f 71/55/71 73/49/73 53/56/53
f 23/21/23 77/24/77 96/23/93 57/22/57
f 43/72/43 56/71/56 96/23/93 77/24/77
f 56/60/56 19/57/19 58/58/58 97/59/94
f 58/93/58 59/75/59 97/111/94
f 76/94/76 98/112/95 59/75/59
f 99/26/57 79/22/20 45/21/45 83/25/81
f 79/57/20 100/58/41 101/59/42 78/60/18
f 60/63/60 102/64/96 81/3/78 61/4/61
f 103/113/97 105/114/98 106/115/99 104/116/100
f 106/38/99 108/20/101 109/117/102 107/118/103
f 104/119/100 106/38/99 107/118/103
f 110/66/104 108/38/101 106/20/99 105/65/98
f 62/32/62 111/33/105 112/34/106 50/35/50
f 65/81/64 113/120/107 114/121/108 66/79/66
f 63/76/63 115/82/109 113/83/107 65/77/64
f 89/83/86 116/77/110 117/76/111 67/82/68
f 90/79/87 68/80/67 118/103/112
f 88/104/85 118/103/112 68/80/67
f 119/122/113 54/90/54 75/69/75 120/123/114
f 92/106/89 39/105/39 94/123/91
f 74/124/74 38/125/38 121/126/115
f 75/108/75 55/110/55 122/109/116
f 95/50/92 73/49/73 71/55/71
f 98/59/95 96/60/93 56/57/56 97/58/94
f 98/58/95 76/59/76 57/60/57 96/57/93
f 97/111/94 59/75/59 98/112/95
f 80/71/19 123/127/56 102/128/96 60/72/60
f 80/60/19 78/57/18 101/58/42 124/59/58
f 101/129/42 125/130/59 124/131/58
f 101/129/42 100/74/41 125/130/59
f 83/64/81 84/3/80 82/4/79 126/63/117
f 127/113/118 128/116/119 108/115/101 110/114/104
f 103/113/97 129/132/120 112/133/106 105/114/98
f 110/66/104 105/65/98 112/8/106 111/17/105
f 128/134/119 109/117/102 108/20/101
f 50/32/50 112/33/106 130/34/121 85/35/82
f 86/32/83 131/33/122 111/34/105 62/35/62
f 87/104/84 91/103/88 132/135/123
f 115/82/109 63/136/63 67/137/68 117/76/111
f 87/77/84 132/138/123 133/139/124 88/83/85
f 90/79/87 134/121/125 116/120/110 89/102/86
f 91/103/88 66/79/66 114/121/108 135/140/126
f 55/105/55 73/90/73 137/107/127 136/106/128
f 138/141/129 92/142/89 94/143/91 139/144/130
f 92/142/89 138/141/129 140/145/131 93/146/90
f 93/107/90 141/147/132 38/90/38
f 119/148/113 94/109/91 54/108/54
f 83/25/81 126/21/117 142/22/93 99/26/57
f 99/57/57 143/58/76 100/59/41 79/60/20
f 123/60/56 80/57/19 124/58/58 144/59/94
f 100/74/41 143/149/76 125/130/59
f 102/63/96 126/64/117 82/3/79 81/4/78
f 127/113/118 110/114/104 111/133/105 145/132/133
f 107/32/103 109/33/102 145/34/133 129/35/120
f 104/116/100 146/150/134 103/113/97
f 112/32/106 129/33/120 130/35/121
f 107/118/103 147/17/135 146/18/134 104/119/100
f 85/32/82 130/33/121 131/34/122 86/35/83
f 115/82/109 148/151/136 113/83/107
f 118/103/112 88/104/85 133/135/124
f 114/121/108 113/120/107 148/152/136
f 149/153/137 151/154/138 150/155/139
f 150/155/139 151/154/138 153/156/140 152/157/141
f 151/154/138 154/158/142 155/159/143 153/156/140
f 156/160/144 150/155/139 152/157/141 157/161/145
f 158/162/146 154/158/142 151/154/138
f 149/153/137 158/162/146 151/154/138
f 159/163/147 161/164/148 160/165/149
f 159/163/147 162/166/150 161/164/148
f 163/167/151 165/168/152 166/169/153 164/170/154
f 164/170/154 166/169/153 168/171/155 167/172/156
f 163/167/151 164/170/154 170/173/157 169/174/158
f 164/170/154 167/172/156 171/175/159 170/173/157
f 172/176/160 95/177/92 74/178/74 121/179/115
f 136/106/128 122/123/116 55/105/55
f 138/180/129 139/181/130 173/122/161 140/182/131
f 140/145/131 173/183/161 141/184/132 93/146/90
f 95/124/92 172/126/160 73/125/73
f 120/148/114 75/108/75 122/109/116
f 141/185/132 121/126/115 38/125/38
f 174/186/162 176/186/163 177/187/164 175/187/165
f 178/188/166 175/187/165 177/187/164 179/188/167
f 102/128/96 123/127/56 142/22/93 126/21/117
f 180/58/95 143/59/76 99/60/57 142/57/93
f 143/149/76 180/189/95 125/130/59
f 144/190/94 125/130/59 180/189/95
f 124/131/58 125/130/59 144/190/94
f 145/32/133 131/33/122 130/34/121 129/35/120
f 109/115/102 181/10/168 145/11/133
f 128/116/119 127/113/118 182/150/169
f 107/115/103 129/11/120 147/10/135
f 111/33/105 131/35/122 145/32/133
f 146/150/134 147/10/135 129/132/120
f 103/113/97 146/150/134 129/132/120
f 109/117/102 128/134/119 182/7/169 181/8/168
f 132/135/123 91/103/88 135/140/126 183/191/170
f 148/77/136 115/76/109 117/82/111 184/83/171
f 117/82/111 116/151/110 184/83/171
f 134/121/125 184/152/171 116/120/110
f 118/103/112 185/140/172 134/121/125 90/79/87
f 114/121/108 148/152/136 135/140/126
f 154/158/142 158/162/146 186/192/173
f 154/158/142 186/192/173 187/193/174 155/159/143
f 188/194/175 152/157/141 153/156/140
f 150/195/139 189/196/176 190/197/177 149/198/137
f 191/199/178 153/156/140 155/159/143
f 188/194/175 153/156/140 191/199/178
f 192/200/179 193/201/180 159/202/147 160/203/149
f 159/203/147 193/200/180 194/201/181 162/202/150
f 160/165/149 161/164/148 195/204/182
f 196/205/183 195/204/182 161/164/148
f 196/205/183 161/164/148 197/206/184
f 197/206/184 161/164/148 162/166/150
f 198/207/185 200/208/186 201/209/187 199/210/188
f 202/210/189 203/207/190 198/208/185 199/209/188
f 204/210/191 205/207/192 203/208/190 202/209/189
f 200/211/186 198/212/185 206/213/193
f 198/212/185 203/214/190 206/213/193
f 205/215/192 206/213/193 203/214/190
f 207/216/194 206/213/193 205/215/192
f 208/217/195 209/218/196 166/169/153 165/168/152
f 166/169/153 209/218/196 210/219/197 168/171/155
f 211/141/198 212/144/199 122/143/116 136/142/128
f 136/142/128 137/146/127 213/145/200 211/141/198
f 137/107/127 73/90/73 214/147/201
f 214/185/201 73/125/73 172/126/160
f 94/122/91 119/123/113 215/69/202
f 216/220/203 177/187/164 176/186/163
f 217/221/204 175/222/165 178/223/166 218/224/205
f 217/221/204 174/225/162 175/222/165
f 180/59/95 142/60/93 123/57/56 144/58/94
f 182/150/169 145/132/133 181/10/168
f 127/113/118 145/132/133 182/150/169
f 132/226/123 183/138/170 219/139/206 133/227/124
f 185/140/172 118/103/112 133/135/124 219/191/206
f 220/228/207 135/140/126 148/152/136
f 134/121/125 185/140/172 184/152/171
f 149/198/137 221/229/208 222/230/209 158/231/146
f 223/232/210 156/233/144 157/234/145 224/235/211
f 223/236/210 225/237/212 150/195/139 156/238/144
f 155/159/143 187/193/174 191/199/178
f 152/239/141 226/240/213 224/241/211 157/242/145
f 152/239/141 188/243/175 228/244/214 227/245/215
f 229/246/216 190/247/177 230/248/217
f 230/248/217 190/247/177 189/249/176
f 196/203/183 231/200/218 232/201/219 195/202/182
f 160/202/149 195/203/182 232/200/219 192/201/179
f 197/202/184 162/203/150 194/200/181 233/201/220
f 233/250/220 231/251/218 196/206/183 197/205/184
f 193/252/180 234/253/221 194/254/181
f 206/208/193 235/209/222 201/210/187 200/207/186
f 236/255/223 204/256/191 202/257/189
f 237/258/224 238/259/225 204/260/191
f 204/209/191 239/210/226 207/207/194 205/208/192
f 239/209/226 235/210/222 206/207/193 207/208/194
f 204/255/191 236/256/223 237/257/224
f 236/261/223 202/262/189 240/263/227
f 240/263/227 202/262/189 235/264/222
f 201/265/187 235/264/222 202/262/189
f 199/266/188 201/265/187 202/262/189
f 241/267/228 165/268/152 163/269/151 242/270/229
f 169/269/158 243/270/230 242/267/229 163/268/151
f 243/271/230 169/272/158 170/273/157 244/274/231
f 119/123/113 120/122/114 246/90/232 245/69/233
f 211/275/198 213/276/200 247/123/234 212/277/199
f 213/145/200 137/146/127 214/184/201 247/183/234
f 215/278/202 248/279/235 139/280/130 94/281/91
f 179/188/167 177/187/164 216/220/203 249/282/203
f 250/283/236 174/225/162 217/221/204
f 135/140/126 220/228/207 183/191/170
f 251/77/237 219/138/206 183/139/170 220/83/207
f 185/140/172 219/191/206 251/228/237
f 148/284/136 184/285/171 251/286/237 220/287/207
f 251/228/237 184/152/171 185/140/172
f 158/231/146 222/230/209 252/288/238 186/289/173
f 186/290/173 252/291/238 253/292/239 187/293/174
f 226/232/213 225/233/212 223/234/210 224/235/211
f 191/294/178 254/295/240 255/296/241 188/243/175
f 225/297/212 257/298/242 256/299/243
f 258/300/244 227/301/215 228/302/214
f 259/303/245 258/300/244 228/302/214
f 230/248/217 256/299/243 229/246/216
f 260/247/246 229/246/216 256/299/243
f 229/246/216 221/304/208 190/247/177
f 221/304/208 229/246/216 260/247/246
f 230/248/217 189/249/176 225/297/212 256/299/243
f 234/305/221 193/306/180 192/307/179 261/308/247
f 192/252/179 232/254/219 261/253/247
f 262/309/248 264/310/249 265/311/250 263/312/251
f 266/313/252 263/312/251 265/311/250 267/314/253
f 268/314/254 267/313/253 265/312/250 269/311/255
f 270/315/256 266/316/252 272/317/257 271/318/258
f 266/315/252 267/316/253 273/317/259 272/318/257
f 267/315/253 268/316/254 274/317/260 273/318/259
f 271/317/258 272/319/257 275/318/261
f 274/318/260 275/317/261 273/319/259
f 272/318/257 273/317/259 275/319/261
f 239/320/226 204/260/191 238/259/225
f 238/259/225 237/258/224 276/321/262
f 277/322/263 239/320/226 278/323/264
f 239/320/226 238/259/225 278/323/264
f 240/208/227 235/209/222 239/210/226
f 240/257/227 239/255/226 277/256/263
f 279/267/265 171/268/159 167/269/156 280/270/266
f 165/269/152 241/270/228 281/267/267 208/268/195
f 244/274/231 170/273/157 171/269/159 279/324/265
f 281/272/267 282/325/268 209/326/196 208/271/195
f 282/325/268 283/269/269 210/327/197 209/326/196
f 284/279/270 173/280/161 139/281/130 248/278/235
f 284/280/270 285/281/271 141/278/132 173/279/161
f 122/122/116 286/90/272 120/123/114
f 245/69/233 215/328/202 119/122/113
f 179/188/167 287/329/273 288/329/274 178/188/166
f 218/224/205 289/330/275 250/283/236 217/221/204
f 218/224/205 178/223/166 288/329/274
f 290/331/276 292/332/277 257/298/242 291/333/278
f 292/332/277 293/334/279 257/298/242
f 256/299/243 293/334/279 260/247/246
f 221/304/208 260/247/246 295/335/280 294/335/281
f 187/336/174 253/337/239 254/295/240 191/294/178
f 256/299/243 257/298/242 293/334/279
f 257/298/242 225/297/212 226/338/213 291/333/278
f 226/338/213 296/339/282 291/333/278
f 258/300/244 259/303/245 296/339/282
f 297/302/283 296/339/282 259/303/245
f 259/303/245 228/302/214 255/340/241
f 255/340/241 297/302/283 259/303/245
f 258/300/244 296/339/282 226/338/213 227/301/215
f 221/229/208 294/341/281 222/230/209
f 234/342/221 261/343/247 299/344/284 298/345/285
f 234/253/221 300/346/286 194/254/181
f 301/309/287 262/310/248 263/311/251 302/312/288
f 264/309/249 303/310/289 269/311/255 265/312/250
f 302/312/288 263/311/251 266/314/252 270/313/256
f 304/315/290 270/316/256 271/317/258 305/318/291
f 268/315/254 304/316/290 305/317/291 274/318/260
f 305/319/291 271/318/258 275/317/261
f 305/319/291 275/318/261 274/317/260
f 306/347/292 307/348/293 277/349/263
f 306/347/292 277/349/263 308/350/294
f 309/351/295 276/321/262 237/258/224
f 238/259/225 276/321/262 310/352/296
f 278/323/264 238/259/225 310/352/296
f 278/353/264 310/354/296 308/355/294
f 278/353/264 308/355/294 277/356/263
f 237/357/224 236/358/223 311/359/297
f 167/267/156 168/268/155 312/269/298 280/270/266
f 312/269/298 168/270/155 210/267/197 283/268/269
f 286/278/272 122/281/116 212/280/199 313/279/299
f 246/360/232 120/123/114 286/90/272
f 121/126/115 141/185/132 314/361/300
f 249/282/203 287/329/273 179/188/167
f 252/362/238 315/363/301 316/364/302 253/365/239
f 222/230/209 315/366/301 252/288/238
f 317/367/303 293/334/279 292/332/277 290/331/276
f 295/335/280 260/247/246 293/334/279
f 318/368/304 294/335/281 295/335/280 319/368/305
f 296/339/282 317/367/303 291/333/278
f 296/339/282 297/302/283 317/367/303
f 319/368/305 317/367/303 297/302/283
f 255/340/241 318/368/304 319/368/305 297/302/283
f 290/331/276 291/333/278 317/367/303
f 315/366/301 222/230/209 294/341/281
f 255/296/241 254/295/240 318/369/304
f 233/370/220 194/254/181 300/346/286 320/371/306
f 299/345/284 321/342/307 322/343/308 298/344/285
f 323/372/309 234/373/221 298/374/285 322/375/308
f 261/253/247 232/254/219 324/346/310
f 303/376/289 325/309/311 326/312/312 269/377/255
f 270/314/256 304/313/290 326/312/312 302/311/288
f 268/378/254 269/377/255 326/312/312 304/313/290
f 306/347/292 327/379/313 328/380/314 307/348/293
f 329/256/315 277/257/263 307/202/293 328/255/314
f 276/321/262 309/351/295 330/381/316
f 331/256/317 236/257/223 240/202/227 332/255/318
f 240/256/227 277/257/263 329/202/315 332/255/318
f 310/352/296 276/321/262 333/382/319
f 309/383/295 237/357/224 311/359/297
f 241/167/228 242/168/229 335/169/320 334/170/321
f 335/169/320 242/168/229 243/217/230 244/218/231
f 334/170/321 282/173/268 281/174/267 241/167/228
f 314/384/300 336/385/322 172/176/160 121/179/115
f 337/281/323 313/280/299 212/279/199 247/278/234
f 337/280/323 247/279/234 214/278/201 338/281/324
f 339/386/325 284/122/270 248/69/235 340/387/326
f 248/143/235 215/144/202 341/141/327 340/142/326
f 245/90/233 246/69/232 343/123/328 342/122/329
f 172/126/160 336/361/322 214/185/201
f 285/388/271 314/361/300 141/185/132
f 289/330/275 218/224/205 288/329/274
f 250/283/236 344/389/330 174/225/162
f 315/363/301 294/390/281 318/391/304 316/364/302
f 319/368/305 295/335/280 293/334/279 317/367/303
f 254/295/240 253/337/239 316/392/302
f 316/392/302 318/369/304 254/295/240
f 232/254/219 231/370/218 345/371/331 324/346/310
f 231/371/218 233/393/220 320/394/306 345/370/331
f 261/372/247 346/373/332 321/374/307 299/375/284
f 323/395/309 300/346/286 234/253/221
f 325/309/311 301/310/287 302/311/288 326/312/312
f 308/350/294 347/396/333 327/379/313 306/347/292
f 348/397/334 330/381/316 309/351/295
f 330/381/316 333/382/319 276/321/262
f 308/355/294 333/398/319 347/399/333
f 310/354/296 333/398/319 308/355/294
f 331/400/317 311/359/297 236/358/223
f 348/401/334 309/383/295 311/359/297
f 349/201/335 351/264/336 350/402/337
f 334/170/321 335/169/320 280/171/266 312/172/298
f 335/169/320 244/218/231 279/219/265 280/171/266
f 334/170/321 312/172/298 283/175/269 282/173/268
f 339/146/325 352/145/338 285/183/271 284/184/270
f 352/145/338 339/146/325 340/142/326 341/141/327
f 341/403/327 215/404/202 353/405/339
f 354/406/340 342/407/329 343/408/328 355/409/341
f 342/410/329 354/411/340 245/412/233
f 354/411/340 356/413/342 245/412/233
f 343/410/328 246/412/232 355/411/341
f 338/388/324 214/185/201 336/361/322
f 245/414/233 356/415/342 215/404/202
f 216/220/203 176/186/163 357/416/343
f 358/417/344 359/418/345 250/283/236 289/330/275
f 359/418/345 344/389/330 250/283/236
f 346/342/332 323/343/309 322/344/308 321/345/307
f 346/395/332 261/253/247 324/346/310
f 327/379/313 329/419/315 328/380/314
f 327/379/313 347/396/333 329/419/315
f 360/207/346 362/208/347 350/209/337 361/210/348
f 331/255/317 351/256/336 363/257/349
f 364/208/350 349/209/335 350/210/337 362/207/347
f 348/397/334 311/351/297 330/381/316
f 365/321/351 330/381/316 311/351/297
f 351/209/336 349/210/335 364/207/350 366/208/352
f 363/209/349 351/210/336 366/207/352 367/208/353
f 330/381/316 365/321/351 333/382/319
f 368/420/354 347/399/333 333/398/319
f 363/255/349 369/256/355 331/257/317
f 332/421/318 361/262/348 351/264/336
f 331/422/317 332/421/318 351/264/336
f 350/402/337 351/264/336 361/262/348
f 370/423/356 371/275/357 313/424/299 337/123/323
f 313/143/299 371/142/357 372/141/358 286/144/272
f 352/425/338 373/426/359 285/427/271
f 341/403/327 353/405/339 373/426/359 352/425/338
f 355/411/341 246/412/232 374/413/360
f 246/428/232 286/429/272 374/430/360
f 353/405/339 215/404/202 356/415/342
f 375/416/361 357/416/343 176/186/163 174/186/162
f 249/282/203 216/220/203 377/431/362 376/432/363
f 344/389/330 375/433/361 174/225/162
f 289/330/275 288/329/274 378/434/364
f 323/435/309 346/436/332 380/437/365 379/438/366
f 379/438/366 381/439/367 300/440/286 323/435/309
f 382/210/368 383/207/369 360/208/346 361/209/348
f 382/320/368 384/259/370 363/260/349
f 369/258/355 363/260/349 384/259/370
f 311/351/297 369/258/355 365/321/351
f 384/259/370 365/321/351 369/258/355
f 367/207/353 383/208/369 382/209/368 363/210/349
f 384/259/370 368/352/354 365/321/351
f 385/323/371 368/352/354 384/259/370
f 382/320/368 385/323/371 384/259/370
f 329/322/315 385/323/371 382/320/368
f 385/441/371 347/399/333 368/420/354
f 385/441/371 329/442/315 347/399/333
f 332/210/318 382/208/368 361/209/348
f 332/255/318 329/256/315 382/257/368
f 368/352/354 333/382/319 365/321/351
f 369/443/355 311/359/297 331/400/317
f 364/211/350 360/444/346 366/445/352
f 362/212/347 360/444/346 364/211/350
f 367/216/353 366/445/352 360/444/346
f 383/215/369 367/216/353 360/444/346
f 370/146/356 337/184/323 338/183/324 386/145/372
f 386/145/372 372/141/358 371/142/357 370/146/356
f 372/446/358 387/447/373 286/429/272
f 354/406/340 355/409/341 374/448/360 356/449/342
f 373/426/359 388/450/374 285/427/271
f 314/451/300 285/427/271 388/450/374
f 387/447/373 374/430/360 286/429/272
f 249/282/203 389/452/375 287/329/273
f 377/431/362 216/220/203 357/416/343
f 358/417/344 289/330/275 378/434/364
f 380/437/365 346/436/332 324/453/310 390/454/376
f 391/455/377 390/454/376 324/453/310 345/456/331
f 345/456/331 320/457/306 392/458/378 391/455/377
f 392/458/378 320/457/306 300/440/286 381/439/367
f 379/438/366 380/437/365 394/459/379 393/460/380
f 394/459/379 380/437/365 390/454/376 395/461/381
f 396/462/382 392/458/378 381/439/367 397/463/383
f 393/460/380 397/463/383 381/439/367 379/438/366
f 388/450/374 398/464/384 336/465/322 314/451/300
f 356/415/342 374/430/360 400/466/385 399/467/386
f 374/430/360 387/447/373 400/466/385
f 386/468/372 338/469/324 401/470/387
f 372/446/358 386/468/372 401/470/387 387/447/373
f 373/426/359 353/405/339 402/471/388
f 399/467/386 402/471/388 353/405/339
f 356/415/342 399/467/386 353/405/339
f 336/465/322 398/464/384 338/469/324
f 376/432/363 389/452/375 249/282/203
f 403/432/389 404/472/390 359/418/345 358/417/344
f 344/389/330 359/418/345 375/433/361
f 405/473/391 395/461/381 390/454/376 391/455/377
f 391/455/377 392/458/378 396/462/382 405/473/391
f 393/474/380 394/475/379 407/476/392 406/477/393
f 394/475/379 395/478/381 408/479/394 407/476/392
f 395/474/381 405/475/391 409/476/395 408/477/394
f 405/475/391 396/478/382 410/479/396 409/476/395
f 396/474/382 397/475/383 411/476/397 410/477/396
f 397/475/383 393/478/380 406/479/393 411/476/397
f 401/470/387 412/480/398 387/447/373
f 400/466/385 387/447/373 412/480/398
f 402/471/388 413/481/399 373/426/359
f 388/450/374 373/426/359 413/481/399
f 402/471/388 399/467/386 414/482/400
f 400/466/385 414/482/400 399/467/386
f 401/470/387 338/469/324 398/464/384
f 287/329/273 389/452/375 415/452/401 288/329/274
f 403/432/389 376/432/363 377/431/362 404/431/390
f 404/472/390 375/433/361 359/418/345
f 378/434/364 288/329/274 415/483/401
f 378/434/364 415/483/401 358/417/344
f 408/484/394 411/485/397 406/486/393 407/487/392
f 410/488/396 411/485/397 408/484/394 409/489/395
f 412/480/398 401/470/387 416/490/402
f 398/464/384 416/490/402 401/470/387
f 412/480/398 414/482/400 400/466/385
f 412/480/398 416/490/402 414/482/400
f 402/471/388 414/482/400 413/481/399
f 413/481/399 416/490/402 398/464/384 388/450/374
f 414/482/400 416/490/402 413/481/399
f 417/491/403 377/431/362 357/416/343
f 418/492/404 375/433/361 404/472/390
f 377/431/362 417/491/403 418/491/404 404/431/390
f 403/432/389 358/417/344 415/483/401
f 357/416/343 375/416/361 418/491/404 417/491/403
f 419/493/405 389/452/375 376/432/363
f 420/493/406 403/432/389 415/483/401
f 376/432/363 403/432/389 420/493/406 419/493/405
f 389/452/375 419/493/405 420/493/406 415/452/401
f 421/163/407 422/165/408 423/164/409
f 421/163/407 423/164/409 424/166/410
f 425/200/411 422/203/408 421/202/407 426/201/412
f 421/203/407 424/202/410 427/201/413 426/200/412
f 422/165/408 428/204/414 423/164/409
f 429/205/415 423/164/409 428/204/414
f 429/205/415 430/206/416 423/164/409
f 430/206/416 424/166/410 423/164/409
f 431/207/417 432/210/418 434/209/419 433/208/420
f 435/210/421 432/209/418 431/208/417 436/207/422
f 437/210/423 435/209/421 436/208/422 438/207/424
f 433/211/420 439/213/425 431/212/417
f 431/212/417 439/213/425 436/214/422
f 438/215/424 436/214/422 439/213/425
f 440/216/426 438/215/424 439/213/425
f 429/203/415 428/202/414 442/201/427 441/200/428
f 422/202/408 425/201/411 442/200/427 428/203/414
f 430/202/416 443/201/429 427/200/413 424/203/410
f 443/250/429 430/205/416 429/206/415 441/251/428
f 426/252/412 427/254/413 444/253/430
f 439/208/425 433/207/420 434/210/419 445/209/431
f 446/255/432 435/257/421 437/256/423
f 447/258/433 437/260/423 448/259/434
f 437/209/423 438/208/424 440/207/426 449/210/435
f 449/209/435 440/208/426 439/207/425 445/210/431
f 437/255/423 447/257/433 446/256/432
f 446/261/432 450/263/436 435/262/421
f 450/263/436 445/264/431 435/262/421
f 434/265/419 435/262/421 445/264/431
f 432/266/418 435/262/421 434/265/419
f 444/305/430 451/308/437 425/307/411 426/306/412
f 425/252/411 451/253/437 442/254/427
f 452/309/438 453/312/439 455/311/440 454/310/441
f 456/313/442 457/314/443 455/311/440 453/312/439
f 458/314/444 459/311/445 455/312/440 457/313/443
f 460/315/446 461/318/447 462/317/448 456/316/442
f 456/315/442 462/318/448 463/317/449 457/316/443
f 457/315/443 463/318/449 464/317/450 458/316/444
f 461/317/447 465/318/451 462/319/448
f 464/318/450 463/319/449 465/317/451
f 462/318/448 465/319/451 463/317/449
f 449/320/435 448/259/434 437/260/423
f 448/259/434 466/321/452 447/258/433
f 467/322/453 468/323/454 449/320/435
f 449/320/435 468/323/454 448/259/434
f 450/208/436 449/210/435 445/209/431
f 450/257/436 467/256/453 449/255/435
f 444/342/430 469/345/455 470/344/456 451/343/437
f 444/253/430 427/254/413 471/346/457
f 472/309/458 473/312/459 453/311/439 452/310/438
f 454/309/441 455/312/440 459/311/445 474/310/460
f 473/312/459 460/313/446 456/314/442 453/311/439
f 475/315/461 476/318/462 461/317/447 460/316/446
f 458/315/444 464/318/450 476/317/462 475/316/461
f 476/319/462 465/317/451 461/318/447
f 476/319/462 464/317/450 465/318/451
f 477/347/463 467/349/453 478/348/464
f 477/347/463 479/350/465 467/349/453
f 480/351/466 447/258/433 466/321/452
f 448/259/434 481/352/467 466/321/452
f 468/323/454 481/352/467 448/259/434
f 468/353/454 479/355/465 481/354/467
f 468/353/454 467/356/453 479/355/465
f 447/357/433 482/359/468 446/358/432
f 443/370/429 483/371/469 471/346/457 427/254/413
f 470/345/456 469/344/455 485/343/470 484/342/471
f 486/372/472 485/375/470 469/374/455 444/373/430
f 451/253/437 487/346/473 442/254/427
f 474/376/460 459/377/445 489/312/474 488/309/475
f 460/314/446 473/311/459 489/312/474 475/313/461
f 458/378/444 475/313/461 489/312/474 459/377/445
f 477/347/463 478/348/464 491/380/476 490/379/477
f 492/256/478 491/255/476 478/202/464 467/257/453
f 466/321/452 493/381/479 480/351/466
f 494/256/480 495/255/481 450/202/436 446/257/432
f 450/256/436 495/255/481 492/202/478 467/257/453
f 481/352/467 496/382/482 466/321/452
f 480/383/466 482/359/468 447/357/433
f 442/254/427 487/346/473 497/371/483 441/370/428
f 441/371/428 497/370/483 483/394/469 443/393/429
f 451/372/437 470/375/456 484/374/471 498/373/484
f 486/395/472 444/253/430 471/346/457
f 488/309/475 489/312/474 473/311/459 472/310/458
f 479/350/465 477/347/463 490/379/477 499/396/485
f 500/397/486 480/351/466 493/381/479
f 493/381/479 466/321/452 496/382/482
f 479/355/465 499/399/485 496/398/482
f 481/354/467 479/355/465 496/398/482
f 494/400/480 446/358/432 482/359/468
f 500/401/486 482/359/468 480/383/466
f 501/201/487 502/402/488 503/264/489
f 498/342/484 484/345/471 485/344/470 486/343/472
f 498/395/484 487/346/473 451/253/437
f 490/379/477 491/380/476 492/419/478
f 490/379/477 492/419/478 499/396/485
f 504/207/490 505/210/491 502/209/488 506/208/492
f 494/255/480 507/257/493 503/256/489
f 508/208/494 506/207/492 502/210/488 501/209/487
f 500/397/486 493/381/479 482/351/468
f 509/321/495 482/351/468 493/381/479
f 503/209/489 510/208/496 508/207/494 501/210/487
f 507/209/493 511/208/497 510/207/496 503/210/489
f 493/381/479 496/382/482 509/321/495
f 512/420/498 496/398/482 499/399/485
f 507/255/493 494/257/480 513/256/499
f 495/421/481 503/264/489 505/262/491
f 494/422/480 503/264/489 495/421/481
f 502/402/488 505/262/491 503/264/489
f 486/435/472 514/438/500 515/437/501 498/436/484
f 514/438/500 486/435/472 471/440/457 516/439/502
f 517/210/503 505/209/491 504/208/490 518/207/504
f 517/320/503 507/260/493 519/259/505
f 513/258/499 519/259/505 507/260/493
f 482/351/468 509/321/495 513/258/499
f 519/259/505 513/258/499 509/321/495
f 511/207/497 507/210/493 517/209/503 518/208/504
f 519/259/505 509/321/495 512/352/498
f 520/323/506 519/259/505 512/352/498
f 517/320/503 519/259/505 520/323/506
f 492/322/478 517/320/503 520/323/506
f 520/441/506 512/420/498 499/399/485
f 520/441/506 499/399/485 492/442/478
f 495/210/481 505/209/491 517/208/503
f 495/255/481 517/257/503 492/256/478
f 512/352/498 509/321/495 496/382/482
f 513/443/499 494/400/480 482/359/468
f 508/211/494 510/445/496 504/444/490
f 506/212/492 508/211/494 504/444/490
f 511/216/497 504/444/490 510/445/496
f 518/215/504 504/444/490 511/216/497
f 515/437/501 521/454/507 487/453/473 498/436/484
f 522/455/508 497/456/483 487/453/473 521/454/507
f 497/456/483 522/455/508 523/458/509 483/457/469
f 523/458/509 516/439/502 471/440/457 483/457/469
f 514/438/500 524/460/510 525/459/511 515/437/501
f 525/459/511 526/461/512 521/454/507 515/437/501
f 527/462/513 528/463/514 516/439/502 523/458/509
f 524/460/510 514/438/500 516/439/502 528/463/514
f 529/473/515 522/455/508 521/454/507 526/461/512
f 522/455/508 529/473/515 527/462/513 523/458/509
f 524/474/510 530/477/516 531/476/517 525/475/511
f 525/475/511 531/476/517 532/479/518 526/478/512
f 526/474/512 532/477/518 533/476/519 529/475/515
f 529/475/515 533/476/519 534/479/520 527/478/513
f 527/474/513 534/477/520 535/476/521 528/475/514
f 528/475/514 535/476/521 530/479/516 524/478/510
f 532/484/518 531/487/517 530/486/516 535/485/521
f 534/488/520 533/489/519 532/484/518 535/485/521
f 536/5/13 537/8/14 539/7/15 538/6/16
f 536/9/13 540/11/24 537/10/14
f 538/12/16 539/14/15 541/13/25
f 539/14/15 537/10/14 540/15/24
f 542/16/5 543/19/6 545/18/7 544/17/8
f 538/6/16 546/20/27 536/5/13
f 542/9/5 544/10/8 547/11/11
f 543/12/6 548/13/12 545/31/7
f 547/32/11 540/35/24 536/34/13 542/33/5
f 549/36/49 546/37/27 538/12/16 541/13/25
f 545/31/7 547/15/11 544/10/8
f 541/13/25 539/14/15 540/15/24
f 542/16/5 536/5/13 546/20/27 550/38/17
f 543/19/6 542/16/5 550/38/17
f 550/37/17 551/36/26 548/13/12 543/12/6
f 552/11/62 549/36/49 541/13/25 540/15/24
f 548/13/12 547/15/11 545/31/7
f 546/38/27 549/66/49 551/65/26 550/20/17
f 548/13/12 551/36/26 553/11/50 547/15/11
f 554/76/68 555/78/67 556/77/86
f 557/79/87 556/81/86 555/80/67
f 554/82/68 558/76/63 559/77/65 555/83/67
f 560/32/83 540/35/24 547/34/11 561/33/82
f 552/32/62 540/35/24 560/33/83
f 553/35/50 561/33/82 547/32/11
f 552/17/62 553/8/50 551/65/26 549/66/49
f 555/98/67 559/101/65 563/100/84 562/99/85
f 558/76/63 564/78/64 559/77/65
f 565/79/66 559/80/65 564/102/64
f 557/79/87 555/80/67 566/103/112
f 562/104/85 566/103/112 555/80/67
f 567/113/118 568/116/119 570/115/101 569/114/104
f 570/38/101 571/118/102 573/117/103 572/20/99
f 568/119/119 571/118/102 570/38/101
f 574/66/98 569/65/104 570/20/101 572/38/99
f 553/32/50 552/35/62 576/34/105 575/33/106
f 556/81/86 557/79/87 578/121/125 577/120/110
f 554/76/68 556/77/86 577/83/110 579/82/111
f 564/83/64 558/82/63 581/76/109 580/77/107
f 565/79/66 582/103/88 559/80/65
f 563/104/84 559/80/65 582/103/88
f 583/113/97 574/114/98 572/115/99 584/116/100
f 567/113/118 569/114/104 576/133/105 585/132/133
f 574/66/98 575/17/106 576/8/105 569/65/104
f 584/134/100 572/20/99 573/117/103
f 552/32/62 560/35/83 586/34/122 576/33/105
f 561/32/82 553/35/50 575/34/106 587/33/121
f 562/104/85 588/135/124 566/103/112
f 579/82/111 581/76/109 558/137/63 554/136/68
f 562/77/85 563/83/84 589/139/123 588/138/124
f 565/79/66 564/102/64 580/120/107 590/121/108
f 566/103/112 591/140/172 578/121/125 557/79/87
f 583/113/97 592/132/120 575/133/106 574/114/98
f 571/32/102 585/35/133 592/34/120 573/33/103
f 568/116/119 567/113/118 593/150/169
f 576/32/105 586/35/122 585/33/133
f 571/118/102 568/119/119 593/18/169 594/17/168
f 560/32/83 561/35/82 587/34/121 586/33/122
f 579/82/111 577/83/110 595/151/171
f 582/103/88 589/135/123 563/104/84
f 578/121/125 595/152/171 577/120/110
f 596/153/175 597/155/141 598/154/140
f 597/155/141 599/157/139 600/156/138 598/154/140
f 598/154/140 600/156/138 602/159/142 601/158/143
f 603/160/145 604/161/144 599/157/139 597/155/141
f 605/162/178 598/154/140 601/158/143
f 596/153/175 598/154/140 605/162/178
f 592/32/120 585/35/133 586/34/122 587/33/121
f 573/115/103 592/11/120 606/10/135
f 584/116/100 607/150/134 583/113/97
f 571/115/102 594/10/168 585/11/133
f 575/33/106 592/32/120 587/35/121
f 593/150/169 585/132/133 594/10/168
f 567/113/118 585/132/133 593/150/169
f 573/117/103 606/8/135 607/7/134 584/134/100
f 588/135/124 608/191/206 591/140/172 566/103/112
f 595/77/171 609/83/136 581/82/109 579/76/111
f 581/82/109 609/83/136 580/151/107
f 590/121/108 580/120/107 609/152/136
f 582/103/88 565/79/66 590/121/108 610/140/126
f 578/121/125 591/140/172 595/152/171
f 601/158/143 611/192/174 605/162/178
f 601/158/143 602/159/142 612/193/173 611/192/174
f 613/194/137 600/156/138 599/157/139
f 597/195/141 596/198/175 615/197/214 614/196/215
f 616/199/146 602/159/142 600/156/138
f 613/194/137 616/199/146 600/156/138
f 607/150/134 606/10/135 592/132/120
f 583/113/97 607/150/134 592/132/120
f 588/226/124 589/227/123 617/139/170 608/138/206
f 610/140/126 617/191/170 589/135/123 582/103/88
f 618/228/237 595/152/171 591/140/172
f 590/121/108 609/152/136 610/140/126
f 596/198/175 605/231/178 620/230/240 619/229/241
f 621/232/211 622/235/210 604/234/144 603/233/145
f 621/236/211 603/238/145 597/195/141 623/237/213
f 602/159/142 616/199/146 612/193/173
f 599/239/139 604/242/144 622/241/210 624/240/212
f 599/239/139 625/245/176 626/244/177 613/243/137
f 627/246/245 628/248/244 615/247/214
f 628/248/244 614/249/215 615/247/214
f 591/140/172 608/191/206 618/228/237
f 629/77/207 618/83/237 608/139/206 617/138/170
f 610/140/126 629/228/207 617/191/170
f 595/284/171 618/287/237 629/286/207 609/285/136
f 629/228/207 610/140/126 609/152/136
f 605/231/178 611/289/174 630/288/239 620/230/240
f 611/290/174 612/293/173 631/292/238 630/291/239
f 624/232/212 622/235/210 621/234/211 623/233/213
f 616/294/146 613/243/137 633/296/208 632/295/209
f 623/297/213 634/299/282 635/298/278
f 636/300/217 626/302/177 625/301/176
f 637/303/216 626/302/177 636/300/217
f 628/248/244 627/246/245 634/299/282
f 638/247/283 634/299/282 627/246/245
f 627/246/245 615/247/214 619/304/241
f 619/304/241 638/247/283 627/246/245
f 628/248/244 634/299/282 623/297/213 614/249/215
f 639/331/277 640/333/242 635/298/278 641/332/276
f 641/332/276 635/298/278 642/334/303
f 634/299/282 638/247/283 642/334/303
f 619/304/241 643/335/304 644/335/305 638/247/283
f 612/336/173 616/294/146 632/295/209 631/337/238
f 634/299/282 642/334/303 635/298/278
f 635/298/278 640/333/242 624/338/212 623/297/213
f 624/338/212 640/333/242 645/339/243
f 636/300/217 645/339/243 637/303/216
f 646/302/246 637/303/216 645/339/243
f 637/303/216 633/340/208 626/302/177
f 633/340/208 637/303/216 646/302/246
f 636/300/217 625/301/176 624/338/212 645/339/243
f 619/229/241 620/230/240 643/341/304
f 630/362/239 631/365/238 648/364/301 647/363/302
f 620/230/240 630/288/239 647/366/302
f 649/367/279 639/331/277 641/332/276 642/334/303
f 644/335/305 642/334/303 638/247/283
f 650/368/281 651/368/280 644/335/305 643/335/304
f 645/339/243 640/333/242 649/367/279
f 645/339/243 649/367/279 646/302/246
f 651/368/280 646/302/246 649/367/279
f 633/340/208 646/302/246 651/368/280 650/368/281
f 639/331/277 649/367/279 640/333/242
f 647/366/302 643/341/304 620/230/240
f 633/296/208 650/369/281 632/295/209
f 647/363/302 648/364/301 650/391/281 643/390/304
f 651/368/280 649/367/279 642/334/303 644/335/305
f 632/295/209 648/392/301 631/337/238
f 648/392/301 632/295/209 650/369/281
