# Wavefront OBJ file
# Exported by Misfit Model 3D 1.3.8
# Sun Jul 12 17:31:58 2026

mtllib Tiny.mtl

# 798 Vertices
v -0.265625 0.515625 -0.183594
v -0.195312 0.816406 -0.132812
v -0.078125 0.464844 -0.386719
v -0.078125 0.464844 -0.386719
v -0.195312 0.816406 -0.132812
v 0.0 0.558594 -0.40625
v -0.195312 0.816406 -0.132812
v 0.191406 0.816406 -0.132812
v 0.0 0.558594 -0.40625
v 0.0 0.558594 -0.40625
v 0.191406 0.816406 -0.132812
v 0.074219 0.464844 -0.386719
v 0.191406 0.816406 -0.132812
v 0.265625 0.515625 -0.183594
v 0.074219 0.464844 -0.386719
v 2.32422 1.98438 -0.3125
v 1.85547 1.91797 -0.101562
v 2.32422 1.98438 0.179688
v 1.85547 1.91797 -0.101562
v 2.0 1.65625 0.277344
v 2.32422 1.98438 0.179688
v 2.32422 1.98438 0.179688
v 2.0 1.65625 0.277344
v 2.40625 1.64844 -0.027344
v 2.0 1.65625 0.277344
v 2.05469 1.60938 -0.042969
v 2.40625 1.64844 -0.027344
v 2.40625 1.64844 -0.027344
v 2.05469 1.60938 -0.042969
v 2.32422 1.98438 -0.3125
v 2.05469 1.60938 -0.042969
v 1.85547 1.80469 -0.175781
v 2.32422 1.98438 -0.3125
v 2.32422 1.98438 -0.3125
v 1.85547 1.80469 -0.175781
v 1.85547 1.91797 -0.101562
v 1.85547 1.80469 -0.175781
v 1.27734 1.91797 -0.285156
v 1.85547 1.91797 -0.101562
v 1.85547 1.91797 -0.101562
v 1.27734 1.91797 -0.285156
v 1.27734 2.05859 -0.058594
v 1.27734 1.91797 -0.285156
v 0.667969 2.23828 -0.066406
v 1.27734 2.05859 -0.058594
v 1.27734 2.05859 -0.058594
v 0.667969 2.23828 -0.066406
v 1.27734 1.91797 0.121094
v 0.667969 2.23828 -0.066406
v 0.628906 1.92578 0.265625
v 1.27734 1.91797 0.121094
v 1.27734 1.91797 0.121094
v 0.628906 1.92578 0.265625
v 1.27734 1.75391 -0.058594
v 0.628906 1.92578 0.265625
v 0.585938 1.60156 -0.066406
v 1.27734 1.75391 -0.058594
v 1.27734 1.75391 -0.058594
v 0.585938 1.60156 -0.066406
v 0.628906 1.92578 -0.402344
v 0.585938 1.60156 -0.066406
v 0.246094 1.13281 -0.179688
v 0.628906 1.92578 -0.402344
v 0.628906 1.92578 -0.402344
v 0.246094 1.13281 -0.179688
v -0.628906 1.92578 -0.402344
v 0.246094 1.13281 -0.179688
v -0.25 1.13281 -0.179688
v -0.628906 1.92578 -0.402344
v -0.628906 1.92578 -0.402344
v -0.25 1.13281 -0.179688
v -0.585938 1.60156 -0.066406
v -0.25 1.13281 -0.179688
v -0.433594 1.44922 0.640625
v -0.585938 1.60156 -0.066406
v -0.585938 1.60156 -0.066406
v -0.433594 1.44922 0.640625
v -0.628906 1.92578 0.265625
v -0.433594 1.44922 0.640625
v -0.261719 2.13281 0.585938
v -0.628906 1.92578 0.265625
v -0.628906 1.92578 0.265625
v -0.261719 2.13281 0.585938
v -0.339844 2.32031 0.347656
v -0.261719 2.13281 0.585938
v -0.4375 2.35547 0.523438
v -0.339844 2.32031 0.347656
v -0.339844 2.32031 0.347656
v -0.4375 2.35547 0.523438
v -0.226562 2.32812 0.703125
v -0.4375 2.35547 0.523438
v -0.261719 2.13281 0.585938
v -0.226562 2.32812 0.703125
v -0.226562 2.32812 0.703125
v -0.261719 2.13281 0.585938
v -0.261719 2.01953 0.898438
v -0.261719 2.13281 0.585938
v -0.367188 1.58984 0.898438
v -0.261719 2.01953 0.898438
v -0.261719 2.01953 0.898438
v -0.367188 1.58984 0.898438
v -0.175781 1.99609 1.15625
v -0.367188 1.58984 0.898438
v 0.0 1.54688 1.21875
v -0.175781 1.99609 1.15625
v -0.175781 1.99609 1.15625
v 0.0 1.54688 1.21875
v 0.0 2.00391 1.33984
v 0.0 1.54688 1.21875
v 0.179688 1.99609 1.15625
v 0.0 2.00391 1.33984
v 0.0 2.00391 1.33984
v 0.179688 1.99609 1.15625
v 0.121094 2.24609 0.878906
v 0.179688 1.99609 1.15625
v 0.265625 2.01953 0.898438
v 0.121094 2.24609 0.878906
v 0.121094 2.24609 0.878906
v 0.265625 2.01953 0.898438
v 0.230469 2.32812 0.703125
v 0.265625 2.01953 0.898438
v 0.265625 2.13281 0.585938
v 0.230469 2.32812 0.703125
v 0.230469 2.32812 0.703125
v 0.265625 2.13281 0.585938
v 0.441406 2.35547 0.523438
v 0.265625 2.13281 0.585938
v 0.34375 2.32031 0.347656
v 0.441406 2.35547 0.523438
v 0.441406 2.35547 0.523438
v 0.34375 2.32031 0.347656
v 0.230469 2.32812 0.703125
v 0.34375 2.32031 0.347656
v 0.234375 2.48828 0.765625
v 0.230469 2.32812 0.703125
v 0.230469 2.32812 0.703125
v 0.234375 2.48828 0.765625
v 0.121094 2.24609 0.878906
v 0.234375 2.48828 0.765625
v 0.0 2.30469 0.894531
v 0.121094 2.24609 0.878906
v 0.121094 2.24609 0.878906
v 0.0 2.30469 0.894531
v 0.261719 2.15625 1.42188
v 0.0 2.30469 0.894531
v 0.0 2.25391 1.55078
v 0.261719 2.15625 1.42188
v 0.261719 2.15625 1.42188
v 0.0 2.25391 1.55078
v 0.0 2.00391 1.33984
v 0.0 2.25391 1.55078
v -0.257812 2.15625 1.42188
v 0.0 2.00391 1.33984
v 0.0 2.00391 1.33984
v -0.257812 2.15625 1.42188
v -0.117188 2.24609 0.878906
v -0.257812 2.15625 1.42188
v 0.0 2.30469 0.894531
v -0.117188 2.24609 0.878906
v -0.117188 2.24609 0.878906
v 0.0 2.30469 0.894531
v -0.238281 2.48828 0.765625
v 0.0 2.30469 0.894531
v -0.136719 2.61719 0.875
v -0.238281 2.48828 0.765625
v -0.238281 2.48828 0.765625
v -0.136719 2.61719 0.875
v -0.316406 2.65625 0.789062
v 0.0 2.00391 1.33984
v 0.121094 2.24609 0.878906
v 0.261719 2.15625 1.42188
v 0.246094 1.13281 -0.179688
v 0.0 0.917969 -0.3125
v -0.25 1.13281 -0.179688
v 2.32422 1.98438 0.179688
v 2.40625 1.64844 -0.027344
v 2.32422 1.98438 -0.3125
v 0.0 2.25391 1.55078
v 0.0 2.30469 0.894531
v -0.257812 2.15625 1.42188
v 1.27734 1.91797 -0.285156
v 1.85547 1.80469 -0.175781
v 1.27734 1.75391 -0.058594
v 1.85547 1.80469 -0.175781
v 1.85547 1.80469 -0.023438
v 1.27734 1.75391 -0.058594
v 1.27734 1.75391 -0.058594
v 1.85547 1.80469 -0.023438
v 1.27734 1.91797 0.121094
v 1.85547 1.80469 -0.023438
v 1.85547 1.91797 -0.101562
v 1.27734 1.91797 0.121094
v 1.27734 1.91797 0.121094
v 1.85547 1.91797 -0.101562
v 1.27734 2.05859 -0.058594
v -0.628906 1.92578 0.265625
v -0.339844 2.32031 0.347656
v -0.667969 2.23828 -0.066406
v -0.339844 2.32031 0.347656
v 0.0 2.41016 0.042969
v -0.667969 2.23828 -0.066406
v -0.667969 2.23828 -0.066406
v 0.0 2.41016 0.042969
v 0.0 2.22266 -0.347656
v 0.0 2.41016 0.042969
v 0.667969 2.23828 -0.066406
v 0.0 2.22266 -0.347656
v 0.0 2.22266 -0.347656
v 0.667969 2.23828 -0.066406
v 0.628906 1.92578 -0.402344
v 0.667969 2.23828 -0.066406
v 1.27734 1.91797 -0.285156
v 0.628906 1.92578 -0.402344
v 0.628906 1.92578 -0.402344
v 1.27734 1.91797 -0.285156
v 1.27734 1.75391 -0.058594
v 0.0 2.30469 0.894531
v 0.234375 2.48828 0.765625
v 0.140625 2.61719 0.875
v 0.140625 2.61719 0.875
v 0.234375 2.48828 0.765625
v 0.320312 2.65625 0.789062
v 0.234375 2.48828 0.765625
v 0.34375 2.32031 0.347656
v 0.554688 2.82812 0.078125
v 0.34375 2.32031 0.347656
v 0.179688 2.52734 0.476562
v 0.554688 2.82812 0.078125
v 0.554688 2.82812 0.078125
v 0.179688 2.52734 0.476562
v 0.234375 2.48828 0.765625
v 0.179688 2.52734 0.476562
v -0.238281 2.48828 0.765625
v 0.234375 2.48828 0.765625
v 0.234375 2.48828 0.765625
v -0.238281 2.48828 0.765625
v 0.0 2.30469 0.894531
v -0.25 1.13281 -0.179688
v -0.183594 1.13672 0.199219
v -0.433594 1.44922 0.640625
v -0.433594 1.44922 0.640625
v -0.183594 1.13672 0.199219
v 0.179688 1.13672 0.199219
v -0.183594 1.13672 0.199219
v 0.0 0.9375 0.378906
v 0.179688 1.13672 0.199219
v -0.25 1.13281 -0.179688
v -0.433594 0.960938 0.015625
v -0.183594 1.13672 0.199219
v 0.628906 1.92578 0.265625
v 0.429688 1.44922 0.640625
v 0.585938 1.60156 -0.066406
v 0.585938 1.60156 -0.066406
v 0.429688 1.44922 0.640625
v 0.246094 1.13281 -0.179688
v 0.429688 1.44922 0.640625
v 0.179688 1.13672 0.199219
v 0.246094 1.13281 -0.179688
v 0.246094 1.13281 -0.179688
v 0.179688 1.13672 0.199219
v 0.4375 0.960938 0.015625
v 0.179688 1.99609 1.15625
v 0.363281 1.58984 0.898438
v 0.265625 2.01953 0.898438
v 0.265625 2.01953 0.898438
v 0.363281 1.58984 0.898438
v 0.265625 2.13281 0.585938
v 0.363281 1.58984 0.898438
v 0.273438 1.69531 0.667969
v 0.265625 2.13281 0.585938
v 0.265625 2.13281 0.585938
v 0.273438 1.69531 0.667969
v 0.429688 1.44922 0.640625
v 0.273438 1.69531 0.667969
v -0.433594 1.44922 0.640625
v 0.429688 1.44922 0.640625
v 0.429688 1.44922 0.640625
v -0.433594 1.44922 0.640625
v 0.179688 1.13672 0.199219
v -0.367188 1.58984 0.898438
v 0.363281 1.58984 0.898438
v 0.0 1.54688 1.21875
v 0.0 1.54688 1.21875
v 0.363281 1.58984 0.898438
v 0.179688 1.99609 1.15625
v -0.433594 1.44922 0.640625
v -0.277344 1.69531 0.667969
v -0.261719 2.13281 0.585938
v -0.261719 2.13281 0.585938
v -0.277344 1.69531 0.667969
v -0.367188 1.58984 0.898438
v -0.277344 1.69531 0.667969
v 0.273438 1.69531 0.667969
v -0.367188 1.58984 0.898438
v -0.367188 1.58984 0.898438
v 0.273438 1.69531 0.667969
v 0.363281 1.58984 0.898438
v -0.433594 1.44922 0.640625
v 0.273438 1.69531 0.667969
v -0.277344 1.69531 0.667969
v 0.179688 1.13672 0.199219
v -0.183594 1.13672 0.199219
v 0.136719 0.816406 0.144531
v -0.183594 1.13672 0.199219
v -0.144531 0.816406 0.144531
v 0.136719 0.816406 0.144531
v 0.136719 0.816406 0.144531
v -0.144531 0.816406 0.144531
v 0.1875 0.472656 0.226562
v -0.144531 0.816406 0.144531
v -0.191406 0.472656 0.226562
v 0.1875 0.472656 0.226562
v 1.85547 1.80469 -0.175781
v 2.05469 1.60938 -0.042969
v 1.85547 1.80469 -0.023438
v 2.05469 1.60938 -0.042969
v 2.0 1.65625 0.277344
v 1.85547 1.80469 -0.023438
v 1.85547 1.80469 -0.023438
v 2.0 1.65625 0.277344
v 1.85547 1.91797 -0.101562
v 0.34375 2.32031 0.347656
v 0.265625 2.13281 0.585938
v 0.628906 1.92578 0.265625
v 0.265625 2.13281 0.585938
v 0.429688 1.44922 0.640625
v 0.628906 1.92578 0.265625
v 0.0 2.41016 0.042969
v 0.34375 2.32031 0.347656
v 0.667969 2.23828 -0.066406
v 0.667969 2.23828 -0.066406
v 0.34375 2.32031 0.347656
v 0.628906 1.92578 0.265625
v 0.0 2.41016 0.042969
v -0.339844 2.32031 0.347656
v -0.183594 2.52734 0.476562
v -0.183594 2.52734 0.476562
v -0.339844 2.32031 0.347656
v -0.550781 2.82812 0.078125
v -0.339844 2.32031 0.347656
v -0.238281 2.48828 0.765625
v -0.550781 2.82812 0.078125
v -0.550781 2.82812 0.078125
v -0.238281 2.48828 0.765625
v -0.183594 2.52734 0.476562
v -0.238281 2.48828 0.765625
v 0.179688 2.52734 0.476562
v -0.183594 2.52734 0.476562
v -0.183594 2.52734 0.476562
v 0.179688 2.52734 0.476562
v 0.0 2.41016 0.042969
v 0.179688 2.52734 0.476562
v 0.34375 2.32031 0.347656
v 0.0 2.41016 0.042969
v -0.226562 2.32812 0.703125
v -0.261719 2.01953 0.898438
v -0.117188 2.24609 0.878906
v -0.261719 2.01953 0.898438
v -0.175781 1.99609 1.15625
v -0.117188 2.24609 0.878906
v -0.117188 2.24609 0.878906
v -0.175781 1.99609 1.15625
v 0.0 2.00391 1.33984
v -0.339844 2.32031 0.347656
v -0.226562 2.32812 0.703125
v -0.238281 2.48828 0.765625
v -0.238281 2.48828 0.765625
v -0.226562 2.32812 0.703125
v -0.117188 2.24609 0.878906
v -0.667969 2.23828 -0.066406
v 0.0 2.22266 -0.347656
v -0.628906 1.92578 -0.402344
v 0.0 2.22266 -0.347656
v 0.628906 1.92578 -0.402344
v -0.628906 1.92578 -0.402344
v -1.99609 1.65625 0.277344
v -1.85547 1.91797 -0.101562
v -2.32422 1.98438 0.179688
v -1.85547 1.91797 -0.101562
v -2.32422 1.98438 -0.3125
v -2.32422 1.98438 0.179688
v -2.32422 1.98438 0.179688
v -2.32422 1.98438 -0.3125
v -2.40625 1.64844 -0.027344
v -2.32422 1.98438 -0.3125
v -2.05469 1.60938 -0.042969
v -2.40625 1.64844 -0.027344
v -2.40625 1.64844 -0.027344
v -2.05469 1.60938 -0.042969
v -1.99609 1.65625 0.277344
v -2.05469 1.60938 -0.042969
v -1.85547 1.80469 -0.023438
v -1.99609 1.65625 0.277344
v -1.99609 1.65625 0.277344
v -1.85547 1.80469 -0.023438
v -1.85547 1.91797 -0.101562
v -1.85547 1.80469 -0.023438
v -1.27734 1.91797 0.121094
v -1.85547 1.91797 -0.101562
v -1.85547 1.91797 -0.101562
v -1.27734 1.91797 0.121094
v -1.27734 2.05859 -0.058594
v -1.27734 1.91797 0.121094
v -0.667969 2.23828 -0.066406
v -1.27734 2.05859 -0.058594
v -1.27734 2.05859 -0.058594
v -0.667969 2.23828 -0.066406
v -1.27734 1.91797 -0.285156
v -0.667969 2.23828 -0.066406
v -0.628906 1.92578 -0.402344
v -1.27734 1.91797 -0.285156
v -1.27734 1.91797 -0.285156
v -0.628906 1.92578 -0.402344
v -1.27734 1.75391 -0.058594
v -0.628906 1.92578 -0.402344
v -0.585938 1.60156 -0.066406
v -1.27734 1.75391 -0.058594
v -1.27734 1.75391 -0.058594
v -0.585938 1.60156 -0.066406
v -0.628906 1.92578 0.265625
v -2.40625 1.64844 -0.027344
v -1.99609 1.65625 0.277344
v -2.32422 1.98438 0.179688
v -2.05469 1.60938 -0.042969
v -2.32422 1.98438 -0.3125
v -1.85547 1.80469 -0.175781
v -2.32422 1.98438 -0.3125
v -1.85547 1.91797 -0.101562
v -1.85547 1.80469 -0.175781
v -1.85547 1.80469 -0.175781
v -1.85547 1.91797 -0.101562
v -1.27734 1.91797 -0.285156
v -1.85547 1.91797 -0.101562
v -1.27734 2.05859 -0.058594
v -1.27734 1.91797 -0.285156
v -1.27734 1.75391 -0.058594
v -0.628906 1.92578 0.265625
v -1.27734 1.91797 0.121094
v -0.628906 1.92578 0.265625
v -0.667969 2.23828 -0.066406
v -1.27734 1.91797 0.121094
v -2.05469 1.60938 -0.042969
v -1.85547 1.80469 -0.175781
v -1.85547 1.80469 -0.023438
v -1.85547 1.80469 -0.175781
v -1.27734 1.75391 -0.058594
v -1.85547 1.80469 -0.023438
v -1.85547 1.80469 -0.023438
v -1.27734 1.75391 -0.058594
v -1.27734 1.91797 0.121094
v -1.27734 1.75391 -0.058594
v -1.85547 1.80469 -0.175781
v -1.27734 1.91797 -0.285156
v 0.925781 2.32422 0.144531
v 0.980469 2.71875 0.058594
v 0.835938 2.34375 -0.082031
v 0.835938 2.34375 -0.082031
v 0.980469 2.71875 0.058594
v 1.03125 2.29688 -0.082031
v 0.980469 2.71875 0.058594
v 0.925781 2.32422 0.144531
v 1.03125 2.29688 -0.082031
v 0.4375 2.44531 -0.082031
v 0.53125 2.42188 0.148438
v 0.59375 2.8125 0.058594
v 0.53125 2.42188 0.148438
v 0.628906 2.39844 -0.082031
v 0.59375 2.8125 0.058594
v 0.59375 2.8125 0.058594
v 0.628906 2.39844 -0.082031
v 0.4375 2.44531 -0.082031
v -1.03125 2.29688 -0.082031
v -0.925781 2.32422 0.144531
v -0.980469 2.71875 0.058594
v -0.925781 2.32422 0.144531
v -0.835938 2.34375 -0.082031
v -0.980469 2.71875 0.058594
v -0.980469 2.71875 0.058594
v -0.835938 2.34375 -0.082031
v -1.03125 2.29688 -0.082031
v -0.53125 2.42188 0.148438
v -0.59375 2.8125 0.058594
v -0.628906 2.39844 -0.082031
v -0.628906 2.39844 -0.082031
v -0.59375 2.8125 0.058594
v -0.4375 2.44531 -0.082031
v -0.59375 2.8125 0.058594
v -0.53125 2.42188 0.148438
v -0.4375 2.44531 -0.082031
v -0.195312 0.816406 -0.132812
v -0.078125 0.464844 -0.386719
v -0.144531 0.816406 0.144531
v -0.078125 0.464844 -0.386719
v 0.074219 0.464844 -0.386719
v -0.144531 0.816406 0.144531
v -0.144531 0.816406 0.144531
v 0.074219 0.464844 -0.386719
v 0.136719 0.816406 0.144531
v 0.074219 0.464844 -0.386719
v 0.191406 0.816406 -0.132812
v 0.136719 0.816406 0.144531
v 0.136719 0.816406 0.144531
v 0.191406 0.816406 -0.132812
v 0.308594 0.644531 0.210938
v 0.191406 0.816406 -0.132812
v 0.351562 0.644531 0.132812
v 0.308594 0.644531 0.210938
v 0.308594 0.644531 0.210938
v 0.351562 0.644531 0.132812
v 0.226562 0.0 -0.113281
v 0.351562 0.644531 0.132812
v 0.398438 0.0 -0.152344
v 0.226562 0.0 -0.113281
v 0.226562 0.0 -0.113281
v 0.398438 0.0 -0.152344
v 0.714844 0.0 0.3125
v 0.398438 0.0 -0.152344
v 0.683594 0.296875 0.539062
v 0.714844 0.0 0.3125
v 0.714844 0.0 0.3125
v 0.683594 0.296875 0.539062
v 0.613281 0.0 0.726562
v 0.683594 0.296875 0.539062
v 0.300781 0.296875 0.628906
v 0.613281 0.0 0.726562
v 0.613281 0.0 0.726562
v 0.300781 0.296875 0.628906
v 0.394531 0.0 0.773438
v 0.300781 0.296875 0.628906
v 0.234375 0.0 0.425781
v 0.394531 0.0 0.773438
v 0.394531 0.0 0.773438
v 0.234375 0.0 0.425781
v 0.613281 0.0 0.726562
v 0.234375 0.0 0.425781
v 0.714844 0.0 0.3125
v 0.613281 0.0 0.726562
v 0.300781 0.296875 0.628906
v 0.226562 0.0 -0.113281
v 0.234375 0.0 0.425781
v 0.234375 0.0 0.425781
v 0.226562 0.0 -0.113281
v 0.714844 0.0 0.3125
v 0.300781 0.296875 0.628906
v 0.371094 0.207031 0.082031
v 0.226562 0.0 -0.113281
v 0.226562 0.0 -0.113281
v 0.371094 0.207031 0.082031
v 0.308594 0.644531 0.210938
v 0.371094 0.207031 0.082031
v 0.386719 0.644531 0.257812
v 0.308594 0.644531 0.210938
v 0.308594 0.644531 0.210938
v 0.386719 0.644531 0.257812
v 0.136719 0.816406 0.144531
v 0.386719 0.644531 0.257812
v 0.214844 0.964844 0.015625
v 0.136719 0.816406 0.144531
v 0.136719 0.816406 0.144531
v 0.214844 0.964844 0.015625
v 0.179688 1.13672 0.199219
v 0.214844 0.964844 0.015625
v 0.246094 1.13281 -0.179688
v 0.179688 1.13672 0.199219
v 0.398438 0.0 -0.152344
v 0.371094 0.207031 0.082031
v 0.683594 0.296875 0.539062
v 0.683594 0.296875 0.539062
v 0.371094 0.207031 0.082031
v 0.300781 0.296875 0.628906
v 0.398438 0.0 -0.152344
v 0.429688 0.644531 0.179688
v 0.371094 0.207031 0.082031
v 0.371094 0.207031 0.082031
v 0.429688 0.644531 0.179688
v 0.386719 0.644531 0.257812
v 0.429688 0.644531 0.179688
v 0.214844 0.964844 0.015625
v 0.386719 0.644531 0.257812
v 0.191406 0.816406 -0.132812
v 0.429688 0.644531 0.179688
v 0.351562 0.644531 0.132812
v 0.351562 0.644531 0.132812
v 0.429688 0.644531 0.179688
v 0.398438 0.0 -0.152344
v -0.144531 0.816406 0.144531
v -0.183594 1.13672 0.199219
v -0.210938 0.964844 0.015625
v -0.183594 1.13672 0.199219
v -0.25 1.13281 -0.179688
v -0.210938 0.964844 0.015625
v -0.210938 0.964844 0.015625
v -0.25 1.13281 -0.179688
v -0.195312 0.816406 -0.132812
v -0.25 1.13281 -0.179688
v 0.246094 1.13281 -0.179688
v -0.195312 0.816406 -0.132812
v -0.195312 0.816406 -0.132812
v 0.246094 1.13281 -0.179688
v 0.191406 0.816406 -0.132812
v 0.246094 1.13281 -0.179688
v 0.214844 0.964844 0.015625
v 0.191406 0.816406 -0.132812
v 0.191406 0.816406 -0.132812
v 0.214844 0.964844 0.015625
v 0.429688 0.644531 0.179688
v -0.078125 0.464844 -0.386719
v -0.035156 0.554688 -0.710938
v 0.03125 0.554688 -0.710938
v 0.03125 0.554688 -0.710938
v -0.035156 0.554688 -0.710938
v 0.0 0.640625 -1.23438
v -0.035156 0.554688 -0.710938
v -0.105469 0.796875 -0.921875
v 0.0 0.640625 -1.23438
v 0.0 0.640625 -1.23438
v -0.105469 0.796875 -0.921875
v 0.101562 0.796875 -0.921875
v -0.105469 0.796875 -0.921875
v 0.0 0.585938 -0.699219
v 0.101562 0.796875 -0.921875
v 0.101562 0.796875 -0.921875
v 0.0 0.585938 -0.699219
v 0.03125 0.554688 -0.710938
v 0.0 0.585938 -0.699219
v 0.074219 0.464844 -0.386719
v 0.03125 0.554688 -0.710938
v 0.03125 0.554688 -0.710938
v 0.074219 0.464844 -0.386719
v -0.078125 0.464844 -0.386719
v 0.0 0.640625 -1.23438
v 0.101562 0.796875 -0.921875
v 0.03125 0.554688 -0.710938
v -0.035156 0.554688 -0.710938
v -0.078125 0.464844 -0.386719
v 0.0 0.585938 -0.699219
v -0.078125 0.464844 -0.386719
v 0.0 0.558594 -0.40625
v 0.0 0.585938 -0.699219
v 0.0 0.585938 -0.699219
v 0.0 0.558594 -0.40625
v 0.074219 0.464844 -0.386719
v 0.0 0.585938 -0.699219
v -0.105469 0.796875 -0.921875
v -0.035156 0.554688 -0.710938
v -0.371094 0.207031 0.082031
v -0.425781 0.644531 0.179688
v -0.398438 0.0 -0.152344
v -0.425781 0.644531 0.179688
v -0.347656 0.644531 0.132812
v -0.398438 0.0 -0.152344
v -0.398438 0.0 -0.152344
v -0.347656 0.644531 0.132812
v -0.226562 0.0 -0.113281
v -0.347656 0.644531 0.132812
v -0.304688 0.644531 0.210938
v -0.226562 0.0 -0.113281
v -0.226562 0.0 -0.113281
v -0.304688 0.644531 0.210938
v -0.371094 0.207031 0.082031
v -0.304688 0.644531 0.210938
v -0.382812 0.644531 0.257812
v -0.371094 0.207031 0.082031
v -0.371094 0.207031 0.082031
v -0.382812 0.644531 0.257812
v -0.425781 0.644531 0.179688
v -0.382812 0.644531 0.257812
v -0.210938 0.964844 0.015625
v -0.425781 0.644531 0.179688
v -0.425781 0.644531 0.179688
v -0.210938 0.964844 0.015625
v -0.195312 0.816406 -0.132812
v -0.304688 0.644531 0.210938
v -0.144531 0.816406 0.144531
v -0.382812 0.644531 0.257812
v -0.382812 0.644531 0.257812
v -0.144531 0.816406 0.144531
v -0.210938 0.964844 0.015625
v -0.144531 0.816406 0.144531
v -0.304688 0.644531 0.210938
v -0.195312 0.816406 -0.132812
v -0.304688 0.644531 0.210938
v -0.347656 0.644531 0.132812
v -0.195312 0.816406 -0.132812
v -0.195312 0.816406 -0.132812
v -0.347656 0.644531 0.132812
v -0.425781 0.644531 0.179688
v -0.234375 0.0 0.425781
v -0.714844 0.0 0.3125
v -0.226562 0.0 -0.113281
v -0.226562 0.0 -0.113281
v -0.714844 0.0 0.3125
v -0.398438 0.0 -0.152344
v -0.714844 0.0 0.3125
v -0.683594 0.296875 0.539062
v -0.398438 0.0 -0.152344
v -0.398438 0.0 -0.152344
v -0.683594 0.296875 0.539062
v -0.371094 0.207031 0.082031
v -0.683594 0.296875 0.539062
v -0.300781 0.296875 0.628906
v -0.371094 0.207031 0.082031
v -0.371094 0.207031 0.082031
v -0.300781 0.296875 0.628906
v -0.226562 0.0 -0.113281
v -0.300781 0.296875 0.628906
v -0.234375 0.0 0.425781
v -0.226562 0.0 -0.113281
v -0.714844 0.0 0.3125
v -0.234375 0.0 0.425781
v -0.613281 0.0 0.726562
v -0.613281 0.0 0.726562
v -0.234375 0.0 0.425781
v -0.394531 0.0 0.773438
v -0.234375 0.0 0.425781
v -0.300781 0.296875 0.628906
v -0.394531 0.0 0.773438
v -0.394531 0.0 0.773438
v -0.300781 0.296875 0.628906
v -0.613281 0.0 0.726562
v -0.300781 0.296875 0.628906
v -0.683594 0.296875 0.539062
v -0.613281 0.0 0.726562
v -0.613281 0.0 0.726562
v -0.683594 0.296875 0.539062
v -0.714844 0.0 0.3125
v -1.03906 2.29297 0.386719
v -1.03906 2.29297 -0.332031
v -1.0 2.14844 0.378906
v -1.0 2.14844 0.378906
v -1.03906 2.29297 -0.332031
v -1.0 2.15234 -0.328125
v -1.03906 2.29297 -0.332031
v -0.433594 2.44141 -0.332031
v -1.0 2.15234 -0.328125
v -1.0 2.15234 -0.328125
v -0.433594 2.44141 -0.332031
v -0.394531 2.30859 -0.328125
v -0.433594 2.44141 -0.332031
v -0.394531 2.30469 0.378906
v -0.394531 2.30859 -0.328125
v -0.394531 2.30859 -0.328125
v -0.394531 2.30469 0.378906
v -1.0 2.14844 0.378906
v -0.394531 2.30469 0.378906
v -0.433594 2.44531 0.386719
v -1.0 2.14844 0.378906
v -1.0 2.14844 0.378906
v -0.433594 2.44531 0.386719
v -1.03906 2.29297 0.386719
v -0.433594 2.44531 0.386719
v -0.433594 2.44141 -0.332031
v -1.03906 2.29297 0.386719
v -1.03906 2.29297 0.386719
v -0.433594 2.44141 -0.332031
v -1.03906 2.29297 -0.332031
v -0.433594 2.44141 -0.332031
v -0.433594 2.44531 0.386719
v -0.394531 2.30469 0.378906
v -1.0 2.14844 0.378906
v -1.0 2.15234 -0.328125
v -0.394531 2.30859 -0.328125
v 0.433594 2.44531 0.386719
v 1.03906 2.29297 0.386719
v 0.433594 2.44141 -0.332031
v 0.433594 2.44141 -0.332031
v 1.03906 2.29297 0.386719
v 1.03906 2.29297 -0.332031
v 1.03906 2.29297 0.386719
v 1.0 2.14844 0.378906
v 1.03906 2.29297 -0.332031
v 1.03906 2.29297 -0.332031
v 1.0 2.14844 0.378906
v 1.0 2.15234 -0.328125
v 1.0 2.14844 0.378906
v 0.394531 2.30859 -0.328125
v 1.0 2.15234 -0.328125
v 1.0 2.15234 -0.328125
v 0.394531 2.30859 -0.328125
v 0.433594 2.44141 -0.332031
v 0.394531 2.30859 -0.328125
v 0.394531 2.30469 0.378906
v 0.433594 2.44141 -0.332031
v 0.433594 2.44141 -0.332031
v 0.394531 2.30469 0.378906
v 0.433594 2.44531 0.386719
v 0.394531 2.30469 0.378906
v 1.0 2.14844 0.378906
v 0.433594 2.44531 0.386719
v 0.433594 2.44531 0.386719
v 1.0 2.14844 0.378906
v 1.03906 2.29297 0.386719
v 0.433594 2.44141 -0.332031
v 1.03906 2.29297 -0.332031
v 1.0 2.15234 -0.328125
v 1.0 2.14844 0.378906
v 0.394531 2.30469 0.378906
v 0.394531 2.30859 -0.328125

# 798 Texture Coordinates
vt 0.002199 0.939887
vt 0.002199 0.997801
vt 0.021503 0.939887
vt 0.025364 0.939887
vt 0.002199 0.997801
vt 0.029225 0.947609
vt 0.002199 0.997801
vt 0.060113 0.997801
vt 0.033086 0.947609
vt 0.033086 0.947609
vt 0.060113 0.997801
vt 0.036947 0.939887
vt 0.060113 0.997801
vt 0.060113 0.939887
vt 0.040808 0.939887
vt 0.059638 0.537941
vt 0.059638 0.537941
vt 0.059638 0.537941
vt 0.059638 0.537941
vt 0.059638 0.537941
vt 0.059638 0.537941
vt 0.059638 0.537941
vt 0.059638 0.537941
vt 0.059638 0.537941
vt 0.059638 0.537941
vt 0.059638 0.537941
vt 0.059638 0.537941
vt 0.059638 0.537941
vt 0.059638 0.537941
vt 0.059638 0.537941
vt 0.059638 0.537941
vt 0.059638 0.537941
vt 0.059638 0.537941
vt 0.059638 0.537941
vt 0.059638 0.537941
vt 0.059638 0.537941
vt 0.120927 0.872971
vt 0.003868 0.872971
vt 0.120927 0.816329
vt 0.120927 0.816329
vt 0.003868 0.872971
vt 0.003868 0.846538
vt 0.120927 0.876747
vt 0.003868 0.933388
vt 0.120927 0.933388
vt 0.120927 0.876747
vt 0.003868 0.876747
vt 0.120927 0.933388
vt 0.003868 0.876747
vt 0.003868 0.933388
vt 0.120927 0.933388
vt 0.120927 0.933388
vt 0.003868 0.933388
vt 0.120927 0.876747
vt 0.003868 0.933388
vt 0.003868 0.876747
vt 0.120927 0.876747
vt 0.120927 0.933388
vt 0.003868 0.933388
vt 0.003868 0.876747
vt 0.054792 0.53681
vt 0.054792 0.53681
vt 0.054792 0.53681
vt 0.053636 0.536355
vt 0.053636 0.536355
vt 0.053636 0.536355
vt 0.053636 0.536355
vt 0.053636 0.536355
vt 0.053636 0.536355
vt 0.054792 0.53681
vt 0.054792 0.53681
vt 0.054792 0.53681
vt 0.054792 0.53681
vt 0.054792 0.53681
vt 0.054792 0.53681
vt 0.054792 0.53681
vt 0.054792 0.53681
vt 0.054792 0.53681
vt 0.054792 0.53681
vt 0.054792 0.53681
vt 0.054792 0.53681
vt 0.058225 0.536188
vt 0.058225 0.536188
vt 0.058225 0.536188
vt 0.084618 0.740654
vt 0.084618 0.740654
vt 0.084618 0.740654
vt 0.058225 0.536188
vt 0.058225 0.536188
vt 0.058225 0.536188
vt 0.060803 0.785685
vt 0.060803 0.785685
vt 0.060803 0.785685
vt 0.243368 0.807729
vt 0.243368 0.690445
vt 0.126084 0.690445
vt 0.243368 0.686662
vt 0.126084 0.569378
vt 0.126084 0.686662
vt 0.122301 0.686662
vt 0.122301 0.569378
vt 0.0542 0.686662
vt 0.122301 0.569378
vt 0.005017 0.569378
vt 0.0542 0.686662
vt 0.050417 0.686662
vt 0.005017 0.569378
vt 0.005017 0.686662
vt 0.005017 0.569378
vt 0.050417 0.686662
vt 0.005017 0.686662
vt 0.084467 0.728279
vt 0.084467 0.728279
vt 0.084467 0.728279
vt 0.084467 0.728279
vt 0.084467 0.728279
vt 0.084467 0.728279
vt 0.126084 0.807729
vt 0.126084 0.690445
vt 0.243368 0.807729
vt 0.126084 0.690445
vt 0.243368 0.690445
vt 0.243368 0.807729
vt 0.060803 0.785685
vt 0.060803 0.785685
vt 0.060803 0.785685
vt 0.084618 0.740654
vt 0.084618 0.740654
vt 0.084618 0.740654
vt 0.058225 0.536188
vt 0.058225 0.536188
vt 0.058225 0.536188
vt 0.058225 0.536188
vt 0.058225 0.536188
vt 0.058225 0.536188
vt 0.185071 0.939401
vt 0.185071 0.966714
vt 0.126542 0.939401
vt 0.185071 0.966714
vt 0.126542 0.966714
vt 0.126542 0.939401
vt 0.057351 0.537431
vt 0.057351 0.537431
vt 0.057351 0.537431
vt 0.057351 0.537431
vt 0.057351 0.537431
vt 0.057351 0.537431
vt 0.010207 0.558156
vt 0.010207 0.558156
vt 0.010207 0.558156
vt 0.010207 0.558156
vt 0.010207 0.558156
vt 0.010207 0.558156
vt 0.201404 0.798596
vt 0.201404 0.798596
vt 0.201404 0.798596
vt 0.057351 0.537431
vt 0.057351 0.537431
vt 0.057351 0.537431
vt 0.126542 0.939401
vt 0.126542 0.966714
vt 0.185071 0.966714
vt 0.126542 0.970616
vt 0.126542 0.997929
vt 0.185071 0.970616
vt 0.185071 0.970616
vt 0.126542 0.997929
vt 0.185071 0.997929
vt 0.200409 0.799591
vt 0.200409 0.796606
vt 0.203394 0.796606
vt 0.002791 0.997209
vt 0.058552 0.941448
vt 0.058552 0.997209
vt 0.057892 0.536135
vt 0.057892 0.536134
vt 0.057892 0.536134
vt 0.057221 0.537481
vt 0.057221 0.537332
vt 0.057371 0.537332
vt 0.003868 0.816329
vt 0.120927 0.816329
vt 0.003868 0.842762
vt 0.120927 0.872971
vt 0.120927 0.816329
vt 0.003868 0.842762
vt 0.003868 0.816329
vt 0.120927 0.816329
vt 0.003868 0.842762
vt 0.120927 0.872971
vt 0.120927 0.816329
vt 0.003868 0.872971
vt 0.003868 0.872971
vt 0.120927 0.816329
vt 0.003868 0.846538
vt 0.058225 0.536188
vt 0.058225 0.536188
vt 0.058225 0.536188
vt 0.058225 0.536188
vt 0.058225 0.536188
vt 0.058225 0.536188
vt 0.058225 0.536188
vt 0.058225 0.536188
vt 0.058225 0.536188
vt 0.058225 0.536188
vt 0.058225 0.536188
vt 0.058225 0.536188
vt 0.058225 0.536188
vt 0.058225 0.536188
vt 0.058225 0.536188
vt 0.003868 0.933388
vt 0.120927 0.876747
vt 0.003868 0.876747
vt 0.003868 0.876747
vt 0.120927 0.876747
vt 0.120927 0.933388
vt 0.126542 0.970616
vt 0.185071 0.970616
vt 0.126542 0.997929
vt 0.126542 0.997929
vt 0.185071 0.970616
vt 0.185071 0.997929
vt 0.06324 0.998194
vt 0.06324 0.939502
vt 0.121932 0.998194
vt 0.055556 0.540677
vt 0.055556 0.540677
vt 0.055556 0.540677
vt 0.055556 0.540677
vt 0.055556 0.540677
vt 0.055556 0.540677
vt 0.058225 0.536188
vt 0.058225 0.536188
vt 0.058225 0.536188
vt 0.05482 0.539332
vt 0.05482 0.539332
vt 0.05482 0.539332
vt 0.054792 0.53681
vt 0.054792 0.53681
vt 0.054792 0.53681
vt 0.190049 0.996705
vt 0.205472 0.938869
vt 0.232462 0.938869
vt 0.002791 0.997209
vt 0.058552 0.941448
vt 0.058552 0.997209
vt 0.058552 0.997209
vt 0.002791 0.997209
vt 0.058552 0.941448
vt 0.054792 0.53681
vt 0.054792 0.53681
vt 0.054792 0.53681
vt 0.054792 0.53681
vt 0.054792 0.53681
vt 0.054792 0.53681
vt 0.054792 0.53681
vt 0.054792 0.53681
vt 0.054792 0.53681
vt 0.002791 0.997209
vt 0.058552 0.941448
vt 0.058552 0.997209
vt 0.0542 0.686662
vt 0.122301 0.569378
vt 0.122301 0.686662
vt 0.126084 0.686662
vt 0.126084 0.569378
vt 0.243368 0.686662
vt 0.126084 0.569378
vt 0.243368 0.569378
vt 0.243368 0.686662
vt 0.054792 0.53681
vt 0.054792 0.53681
vt 0.054792 0.53681
vt 0.054792 0.53681
vt 0.054792 0.53681
vt 0.054792 0.53681
vt 0.247884 0.996705
vt 0.190049 0.996705
vt 0.232462 0.938869
vt 0.123701 0.751653
vt 0.123701 0.751653
vt 0.123701 0.751653
vt 0.005017 0.569378
vt 0.122301 0.569378
vt 0.0542 0.686662
vt 0.054792 0.53681
vt 0.054792 0.53681
vt 0.054792 0.53681
vt 0.243368 0.686662
vt 0.243368 0.569378
vt 0.126084 0.569378
vt 0.123701 0.751653
vt 0.123701 0.751653
vt 0.123701 0.751653
vt 0.123701 0.751653
vt 0.123701 0.751653
vt 0.123701 0.751653
vt 0.053126 0.537451
vt 0.053126 0.535529
vt 0.055048 0.535529
vt 0.025843 0.540507
vt 0.025843 0.540507
vt 0.025843 0.540507
vt 0.025843 0.540507
vt 0.025843 0.540507
vt 0.025843 0.540507
vt 0.058552 0.997209
vt 0.002791 0.997209
vt 0.058552 0.941448
vt 0.002791 0.997209
vt 0.002791 0.941448
vt 0.058552 0.941448
vt 0.058452 0.538397
vt 0.058452 0.537028
vt 0.05982 0.537028
vt 0.058452 0.538397
vt 0.058452 0.537028
vt 0.05982 0.537028
vt 0.058452 0.538397
vt 0.058452 0.537028
vt 0.05982 0.537028
vt 0.057868 0.536325
vt 0.057868 0.535913
vt 0.05828 0.535913
vt 0.053126 0.537451
vt 0.053126 0.535529
vt 0.055048 0.535529
vt 0.057868 0.536325
vt 0.057868 0.535913
vt 0.05828 0.535913
vt 0.057868 0.536325
vt 0.057868 0.535913
vt 0.05828 0.535913
vt 0.058225 0.536188
vt 0.058225 0.536188
vt 0.058225 0.536188
vt 0.055556 0.540677
vt 0.055556 0.540677
vt 0.055556 0.540677
vt 0.06324 0.939502
vt 0.06324 0.998194
vt 0.121932 0.998194
vt 0.055556 0.540677
vt 0.055556 0.540677
vt 0.055556 0.540677
vt 0.058225 0.536188
vt 0.058225 0.536188
vt 0.058225 0.536188
vt 0.058225 0.536188
vt 0.058225 0.536188
vt 0.058225 0.536188
vt 0.058225 0.536188
vt 0.058225 0.536188
vt 0.058225 0.536188
vt 0.243368 0.807729
vt 0.126084 0.690445
vt 0.126084 0.807729
vt 0.084467 0.728279
vt 0.084467 0.728279
vt 0.084467 0.728279
vt 0.084467 0.728279
vt 0.084467 0.728279
vt 0.084467 0.728279
vt 0.058225 0.536188
vt 0.058225 0.536188
vt 0.058225 0.536188
vt 0.185071 0.966714
vt 0.185071 0.939401
vt 0.126542 0.939401
vt 0.057868 0.536325
vt 0.057868 0.535913
vt 0.05828 0.535913
vt 0.057868 0.536325
vt 0.057868 0.535913
vt 0.05828 0.535913
vt 0.059638 0.537941
vt 0.059638 0.537941
vt 0.059638 0.537941
vt 0.059638 0.537941
vt 0.059638 0.537941
vt 0.059638 0.537941
vt 0.059638 0.537941
vt 0.059638 0.537941
vt 0.059638 0.537941
vt 0.059638 0.537941
vt 0.059638 0.537941
vt 0.059638 0.537941
vt 0.059638 0.537941
vt 0.059638 0.537941
vt 0.059638 0.537941
vt 0.059638 0.537941
vt 0.059638 0.537941
vt 0.059638 0.537941
vt 0.059638 0.537941
vt 0.059638 0.537941
vt 0.059638 0.537941
vt 0.120927 0.872971
vt 0.003868 0.872971
vt 0.120927 0.816329
vt 0.120927 0.816329
vt 0.003868 0.872971
vt 0.003868 0.846538
vt 0.120927 0.933388
vt 0.003868 0.876747
vt 0.120927 0.876747
vt 0.120927 0.933388
vt 0.003868 0.933388
vt 0.120927 0.876747
vt 0.003868 0.933388
vt 0.003868 0.876747
vt 0.120927 0.876747
vt 0.120927 0.876747
vt 0.003868 0.876747
vt 0.120927 0.933388
vt 0.003868 0.876747
vt 0.003868 0.933388
vt 0.120927 0.933388
vt 0.120927 0.876747
vt 0.003868 0.876747
vt 0.003868 0.933388
vt 0.058452 0.538397
vt 0.058452 0.537028
vt 0.05982 0.537028
vt 0.059638 0.537941
vt 0.059638 0.537941
vt 0.059638 0.537941
vt 0.059638 0.537941
vt 0.059638 0.537941
vt 0.059638 0.537941
vt 0.120927 0.872971
vt 0.120927 0.816329
vt 0.003868 0.872971
vt 0.120927 0.816329
vt 0.003868 0.846538
vt 0.003868 0.872971
vt 0.120927 0.876747
vt 0.003868 0.933388
vt 0.120927 0.933388
vt 0.003868 0.933388
vt 0.003868 0.876747
vt 0.120927 0.933388
vt 0.059638 0.537941
vt 0.059638 0.537941
vt 0.059638 0.537941
vt 0.120927 0.872971
vt 0.003868 0.842762
vt 0.120927 0.816329
vt 0.120927 0.816329
vt 0.003868 0.816329
vt 0.003868 0.842762
vt 0.003868 0.842762
vt 0.120927 0.816329
vt 0.003868 0.816329
vt 0.121932 0.939502
vt 0.121932 0.990368
vt 0.071066 0.939502
vt 0.071066 0.939502
vt 0.121932 0.990368
vt 0.121932 0.939502
vt 0.121932 0.990368
vt 0.071066 0.939502
vt 0.121932 0.939502
vt 0.071066 0.939502
vt 0.121932 0.939502
vt 0.121932 0.990368
vt 0.071066 0.939502
vt 0.121932 0.939502
vt 0.121932 0.990368
vt 0.121932 0.990368
vt 0.121932 0.939502
vt 0.071066 0.939502
vt 0.121932 0.939502
vt 0.071066 0.939502
vt 0.121932 0.990368
vt 0.121932 0.939502
vt 0.071066 0.939502
vt 0.121932 0.990368
vt 0.121932 0.990368
vt 0.071066 0.939502
vt 0.121932 0.939502
vt 0.071066 0.939502
vt 0.121932 0.990368
vt 0.121932 0.939502
vt 0.121932 0.939502
vt 0.121932 0.990368
vt 0.071066 0.939502
vt 0.121932 0.990368
vt 0.121932 0.939502
vt 0.071066 0.939502
vt 0.054332 0.539188
vt 0.054332 0.539188
vt 0.054332 0.539188
vt 0.054332 0.539188
vt 0.054332 0.539188
vt 0.054332 0.539188
vt 0.054332 0.539188
vt 0.054332 0.539188
vt 0.054332 0.539188
vt 0.054332 0.539188
vt 0.054332 0.539188
vt 0.054332 0.539188
vt 0.056514 0.540756
vt 0.056514 0.540756
vt 0.056514 0.540756
vt 0.056514 0.540756
vt 0.056514 0.540756
vt 0.056514 0.540756
vt 0.220262 0.935165
vt 0.247817 0.935165
vt 0.247817 0.813133
vt 0.247817 0.935165
vt 0.247817 0.813133
vt 0.247817 0.813133
vt 0.040578 0.523878
vt 0.040578 0.523878
vt 0.040578 0.523878
vt 0.247817 0.813133
vt 0.125785 0.868245
vt 0.17696 0.813133
vt 0.173024 0.813133
vt 0.125785 0.868245
vt 0.125785 0.813133
vt 0.043093 0.52094
vt 0.043093 0.52094
vt 0.043093 0.52094
vt 0.043093 0.52094
vt 0.043093 0.52094
vt 0.043093 0.52094
vt 0.125785 0.868245
vt 0.17696 0.813133
vt 0.125785 0.813133
vt 0.040578 0.523878
vt 0.040578 0.523878
vt 0.040578 0.523878
vt 0.040578 0.523878
vt 0.040578 0.523878
vt 0.040578 0.523878
vt 0.125785 0.868245
vt 0.247817 0.813133
vt 0.17696 0.813133
vt 0.040578 0.523878
vt 0.040578 0.523878
vt 0.040578 0.523878
vt 0.125785 0.868245
vt 0.224198 0.852499
vt 0.247817 0.813133
vt 0.247817 0.813133
vt 0.224198 0.852499
vt 0.220262 0.935165
vt 0.224198 0.852499
vt 0.192706 0.935165
vt 0.220262 0.935165
vt 0.056514 0.540756
vt 0.056514 0.540756
vt 0.056514 0.540756
vt 0.056514 0.540756
vt 0.056514 0.540756
vt 0.056514 0.540756
vt 0.025843 0.540507
vt 0.025843 0.540507
vt 0.025843 0.540507
vt 0.026635 0.534738
vt 0.026635 0.534738
vt 0.026635 0.534738
vt 0.247817 0.813133
vt 0.224198 0.852499
vt 0.125785 0.868245
vt 0.125785 0.868245
vt 0.224198 0.852499
vt 0.125785 0.868245
vt 0.247817 0.813133
vt 0.224198 0.935165
vt 0.224198 0.852499
vt 0.224198 0.852499
vt 0.224198 0.935165
vt 0.192706 0.935165
vt 0.056514 0.540756
vt 0.056514 0.540756
vt 0.056514 0.540756
vt 0.056514 0.540756
vt 0.056514 0.540756
vt 0.056514 0.540756
vt 0.247817 0.935165
vt 0.224198 0.935165
vt 0.247817 0.813133
vt 0.025787 0.540785
vt 0.025787 0.539952
vt 0.026621 0.539952
vt 0.024073 0.541366
vt 0.024073 0.539867
vt 0.025572 0.539867
vt 0.025787 0.540785
vt 0.025787 0.539952
vt 0.026621 0.539952
vt 0.053848 0.53726
vt 0.053848 0.537163
vt 0.053945 0.537163
vt 0.053848 0.53726
vt 0.053848 0.537163
vt 0.053945 0.537163
vt 0.025787 0.540785
vt 0.025787 0.539952
vt 0.026621 0.539952
vt 0.053712 0.541045
vt 0.053712 0.540179
vt 0.056945 0.540179
vt 0.054182 0.543552
vt 0.054182 0.541434
vt 0.0563 0.541434
vt 0.055029 0.5539
vt 0.055029 0.553433
vt 0.055496 0.553433
vt 0.055029 0.5539
vt 0.055029 0.553433
vt 0.055496 0.553433
vt 0.055029 0.5539
vt 0.055029 0.553433
vt 0.055496 0.553433
vt 0.055029 0.5539
vt 0.055029 0.553433
vt 0.055496 0.553433
vt 0.055029 0.5539
vt 0.055029 0.553433
vt 0.055496 0.553433
vt 0.054182 0.543552
vt 0.054182 0.541434
vt 0.0563 0.541434
vt 0.054182 0.543552
vt 0.054182 0.541434
vt 0.0563 0.541434
vt 0.055029 0.5539
vt 0.055029 0.553433
vt 0.055496 0.553433
vt 0.054182 0.543552
vt 0.054182 0.541434
vt 0.0563 0.541434
vt 0.054182 0.543552
vt 0.054182 0.541434
vt 0.0563 0.541434
vt 0.054182 0.543552
vt 0.054182 0.541434
vt 0.0563 0.541434
vt 0.055029 0.5539
vt 0.055029 0.553433
vt 0.055496 0.553433
vt 0.224198 0.852499
vt 0.224198 0.935165
vt 0.247817 0.813133
vt 0.224198 0.935165
vt 0.247817 0.935165
vt 0.247817 0.813133
vt 0.247817 0.813133
vt 0.247817 0.935165
vt 0.247817 0.813133
vt 0.247817 0.935165
vt 0.220262 0.935165
vt 0.247817 0.813133
vt 0.247817 0.813133
vt 0.220262 0.935165
vt 0.224198 0.852499
vt 0.220262 0.935165
vt 0.192706 0.935165
vt 0.224198 0.852499
vt 0.224198 0.852499
vt 0.192706 0.935165
vt 0.224198 0.935165
vt 0.056514 0.540756
vt 0.056514 0.540756
vt 0.056514 0.540756
vt 0.056514 0.540756
vt 0.056514 0.540756
vt 0.056514 0.540756
vt 0.053712 0.541045
vt 0.053712 0.540179
vt 0.056945 0.540179
vt 0.053712 0.541045
vt 0.053712 0.540179
vt 0.056945 0.540179
vt 0.053712 0.541045
vt 0.053712 0.540179
vt 0.056945 0.540179
vt 0.053712 0.541045
vt 0.053712 0.540179
vt 0.056945 0.540179
vt 0.053712 0.541045
vt 0.053712 0.540179
vt 0.056945 0.540179
vt 0.040578 0.523878
vt 0.040578 0.523878
vt 0.040578 0.523878
vt 0.040578 0.523878
vt 0.040578 0.523878
vt 0.040578 0.523878
vt 0.17696 0.813133
vt 0.125785 0.868245
vt 0.247817 0.813133
vt 0.247817 0.813133
vt 0.125785 0.868245
vt 0.224198 0.852499
vt 0.125785 0.868245
vt 0.125785 0.868245
vt 0.224198 0.852499
vt 0.224198 0.852499
vt 0.125785 0.868245
vt 0.247817 0.813133
vt 0.125785 0.868245
vt 0.17696 0.813133
vt 0.247817 0.813133
vt 0.040578 0.523878
vt 0.040578 0.523878
vt 0.040578 0.523878
vt 0.040578 0.523878
vt 0.040578 0.523878
vt 0.040578 0.523878
vt 0.17696 0.813133
vt 0.125785 0.868245
vt 0.125785 0.813133
vt 0.043093 0.52094
vt 0.043093 0.52094
vt 0.043093 0.52094
vt 0.043093 0.52094
vt 0.043093 0.52094
vt 0.043093 0.52094
vt 0.125785 0.813133
vt 0.125785 0.868245
vt 0.173024 0.813133
vt 0.054185 0.556987
vt 0.054185 0.556259
vt 0.054914 0.556259
vt 0.054185 0.556987
vt 0.054185 0.556259
vt 0.054914 0.556259
vt 0.054185 0.556987
vt 0.054185 0.556259
vt 0.054914 0.556259
vt 0.054185 0.556987
vt 0.054185 0.556259
vt 0.054914 0.556259
vt 0.054185 0.556987
vt 0.054185 0.556259
vt 0.054914 0.556259
vt 0.054185 0.556987
vt 0.054185 0.556259
vt 0.054914 0.556259
vt 0.054185 0.556987
vt 0.054185 0.556259
vt 0.054914 0.556259
vt 0.054185 0.556987
vt 0.054185 0.556259
vt 0.054914 0.556259
vt 0.054185 0.556987
vt 0.054185 0.556259
vt 0.054914 0.556259
vt 0.054185 0.556987
vt 0.054185 0.556259
vt 0.054914 0.556259
vt 0.054185 0.556987
vt 0.054185 0.556259
vt 0.054914 0.556259
vt 0.054185 0.556987
vt 0.054185 0.556259
vt 0.054914 0.556259
vt 0.054185 0.556987
vt 0.054185 0.556259
vt 0.054914 0.556259
vt 0.054185 0.556987
vt 0.054185 0.556259
vt 0.054914 0.556259
vt 0.054185 0.556987
vt 0.054185 0.556259
vt 0.054914 0.556259
vt 0.054185 0.556987
vt 0.054185 0.556259
vt 0.054914 0.556259
vt 0.054185 0.556987
vt 0.054185 0.556259
vt 0.054914 0.556259
vt 0.054185 0.556987
vt 0.054185 0.556259
vt 0.054914 0.556259
vt 0.054185 0.556987
vt 0.054185 0.556259
vt 0.054914 0.556259
vt 0.054185 0.556987
vt 0.054185 0.556259
vt 0.054914 0.556259
vt 0.054185 0.556987
vt 0.054185 0.556259
vt 0.054914 0.556259
vt 0.054185 0.556987
vt 0.054185 0.556259
vt 0.054914 0.556259
vt 0.054185 0.556987
vt 0.054185 0.556259
vt 0.054914 0.556259
vt 0.054185 0.556987
vt 0.054185 0.556259
vt 0.054914 0.556259

# 798 Vertex Normals
vn -0.671817 0.273285 -0.68846
vn -0.671817 0.273285 -0.68846
vn -0.671817 0.273285 -0.68846
vn -0.587303 0.336021 -0.736319
vn -0.587303 0.336021 -0.736319
vn -0.587303 0.336021 -0.736319
vn -0.0 0.727591 -0.686012
vn -0.0 0.727591 -0.686012
vn -0.0 0.727591 -0.686012
vn 0.602698 0.32534 -0.728635
vn 0.602698 0.32534 -0.728635
vn 0.602698 0.32534 -0.728635
vn 0.662505 0.280725 -0.694464
vn 0.662505 0.280725 -0.694464
vn 0.662505 0.280725 -0.694464
vn -0.140274 0.990113 0.0
vn -0.140274 0.990113 0.0
vn -0.140274 0.990113 0.0
vn -0.460463 0.638506 0.616672
vn -0.460463 0.638506 0.616672
vn -0.460463 0.638506 0.616672
vn 0.562328 -0.329968 0.758227
vn 0.562328 -0.329968 0.758227
vn 0.562328 -0.329968 0.758227
vn 0.101911 -0.981672 0.161044
vn 0.101911 -0.981672 0.161044
vn 0.101911 -0.981672 0.161044
vn 0.104104 -0.628717 -0.770634
vn 0.104104 -0.628717 -0.770634
vn 0.104104 -0.628717 -0.770634
vn -0.018228 -0.574867 -0.818044
vn -0.018228 -0.574867 -0.818044
vn -0.018228 -0.574867 -0.818044
vn -0.413428 0.499003 -0.761625
vn -0.413428 0.499003 -0.761625
vn -0.413428 0.499003 -0.761625
vn 0.256727 0.529664 -0.808423
vn 0.256727 0.529664 -0.808423
vn 0.256727 0.529664 -0.808423
vn 0.165168 0.837979 -0.520107
vn 0.165168 0.837979 -0.520107
vn 0.165168 0.837979 -0.520107
vn 0.249186 0.822846 -0.510715
vn 0.249186 0.822846 -0.510715
vn 0.249186 0.822846 -0.510715
vn 0.218881 0.76842 0.601349
vn 0.218881 0.76842 0.601349
vn 0.218881 0.76842 0.601349
vn 0.161528 0.709082 0.686375
vn 0.161528 0.709082 0.686375
vn 0.161528 0.709082 0.686375
vn 0.140001 -0.731218 0.667622
vn 0.140001 -0.731218 0.667622
vn 0.140001 -0.731218 0.667622
vn 0.150299 -0.716997 0.68068
vn 0.150299 -0.716997 0.68068
vn 0.150299 -0.716997 0.68068
vn 0.166279 -0.72007 -0.673685
vn 0.166279 -0.72007 -0.673685
vn 0.166279 -0.72007 -0.673685
vn 0.79288 -0.485994 -0.367629
vn 0.79288 -0.485994 -0.367629
vn 0.79288 -0.485994 -0.367629
vn 0.0 -0.270333 -0.962767
vn 0.0 -0.270333 -0.962767
vn 0.0 -0.270333 -0.962767
vn -0.0 -0.270333 -0.962767
vn -0.0 -0.270333 -0.962767
vn -0.0 -0.270333 -0.962767
vn -0.796454 -0.482803 -0.364092
vn -0.796454 -0.482803 -0.364092
vn -0.796454 -0.482803 -0.364092
vn -0.806536 -0.589329 0.046805
vn -0.806536 -0.589329 0.046805
vn -0.806536 -0.589329 0.046805
vn -0.950371 -0.274984 0.145527
vn -0.950371 -0.274984 0.145527
vn -0.950371 -0.274984 0.145527
vn -0.710394 0.231778 0.664545
vn -0.710394 0.231778 0.664545
vn -0.710394 0.231778 0.664545
vn -0.719776 0.411043 0.559434
vn -0.719776 0.411043 0.559434
vn -0.719776 0.411043 0.559434
vn -0.717396 -0.642173 -0.270104
vn -0.717396 -0.642173 -0.270104
vn -0.717396 -0.642173 -0.270104
vn 0.198846 0.976353 -0.08482
vn 0.198846 0.976353 -0.08482
vn 0.198846 0.976353 -0.08482
vn -0.639845 -0.307428 0.704334
vn -0.639845 -0.307428 0.704334
vn -0.639845 -0.307428 0.704334
vn -0.987859 0.146054 0.052944
vn -0.987859 0.146054 0.052944
vn -0.987859 0.146054 0.052944
vn -0.967567 0.237493 0.08609
vn -0.967567 0.237493 0.08609
vn -0.967567 0.237493 0.08609
vn -0.917958 0.225316 0.326474
vn -0.917958 0.225316 0.326474
vn -0.917958 0.225316 0.326474
vn -0.659628 -0.155821 0.735263
vn -0.659628 -0.155821 0.735263
vn -0.659628 -0.155821 0.735263
vn -0.706468 -0.181263 0.684139
vn -0.706468 -0.181263 0.684139
vn -0.706468 -0.181263 0.684139
vn 0.698647 -0.18324 0.691603
vn 0.698647 -0.18324 0.691603
vn 0.698647 -0.18324 0.691603
vn 0.538785 0.679195 0.498403
vn 0.538785 0.679195 0.498403
vn 0.538785 0.679195 0.498403
vn 0.788827 0.530045 0.311133
vn 0.788827 0.530045 0.311133
vn 0.788827 0.530045 0.311133
vn 0.640459 0.461495 0.613869
vn 0.640459 0.461495 0.613869
vn 0.640459 0.461495 0.613869
vn 0.987859 0.14605 0.052943
vn 0.987859 0.14605 0.052943
vn 0.987859 0.14605 0.052943
vn 0.639847 -0.30743 0.704332
vn 0.639847 -0.30743 0.704332
vn 0.639847 -0.30743 0.704332
vn 0.717396 -0.642173 -0.270104
vn 0.717396 -0.642173 -0.270104
vn 0.717396 -0.642173 -0.270104
vn -0.198847 0.976353 -0.08482
vn -0.198847 0.976353 -0.08482
vn -0.198847 0.976353 -0.08482
vn 0.942315 -0.14138 0.303404
vn 0.942315 -0.14138 0.303404
vn 0.942315 -0.14138 0.303404
vn 0.871011 -0.196881 0.450086
vn 0.871011 -0.196881 0.450086
vn 0.871011 -0.196881 0.450086
vn 0.265165 0.303968 0.915036
vn 0.265165 0.303968 0.915036
vn 0.265165 0.303968 0.915036
vn 0.438974 0.897823 0.034863
vn 0.438974 0.897823 0.034863
vn 0.438974 0.897823 0.034863
vn 0.37938 0.922484 0.071381
vn 0.37938 0.922484 0.071381
vn 0.37938 0.922484 0.071381
vn 0.134552 -0.639011 0.757338
vn 0.134552 -0.639011 0.757338
vn 0.134552 -0.639011 0.757338
vn -0.136554 -0.638835 0.757128
vn -0.136554 -0.638835 0.757128
vn -0.136554 -0.638835 0.757128
vn -0.552334 -0.787532 -0.273352
vn -0.552334 -0.787532 -0.273352
vn -0.552334 -0.787532 -0.273352
vn -0.450339 0.892319 0.03101
vn -0.450339 0.892319 0.03101
vn -0.450339 0.892319 0.03101
vn -0.269387 0.294217 0.916988
vn -0.269387 0.294217 0.916988
vn -0.269387 0.294217 0.916988
vn -0.583781 -0.206327 0.785257
vn -0.583781 -0.206327 0.785257
vn -0.583781 -0.206327 0.785257
vn -0.464727 -0.330755 0.821359
vn -0.464727 -0.330755 0.821359
vn -0.464727 -0.330755 0.821359
vn 0.5464 -0.791938 -0.272546
vn 0.5464 -0.791938 -0.272546
vn 0.5464 -0.791938 -0.272546
vn 0.0 0.525826 -0.850592
vn 0.0 0.525826 -0.850592
vn 0.0 0.525826 -0.850592
vn 0.971458 0.237211 0.0
vn 0.971458 0.237211 0.0
vn 0.971458 0.237211 0.0
vn -0.384285 0.920463 0.071224
vn -0.384285 0.920463 0.071224
vn -0.384285 0.920463 0.071224
vn -0.047689 -0.809024 -0.585837
vn -0.047689 -0.809024 -0.585837
vn -0.047689 -0.809024 -0.585837
vn 0.087498 -0.996165 -0.0
vn 0.087498 -0.996165 -0.0
vn 0.087498 -0.996165 -0.0
vn 0.023857 -0.738281 0.674071
vn 0.023857 -0.738281 0.674071
vn 0.023857 -0.738281 0.674071
vn 0.30222 0.541184 0.784718
vn 0.30222 0.541184 0.784718
vn 0.30222 0.541184 0.784718
vn 0.230938 0.766229 0.599634
vn 0.230938 0.766229 0.599634
vn 0.230938 0.766229 0.599634
vn -0.743993 0.44067 0.502279
vn -0.743993 0.44067 0.502279
vn -0.743993 0.44067 0.502279
vn -0.250185 0.968176 0.006454
vn -0.250185 0.968176 0.006454
vn -0.250185 0.968176 0.006454
vn -0.159069 0.890044 -0.427221
vn -0.159069 0.890044 -0.427221
vn -0.159069 0.890044 -0.427221
vn 0.15907 0.890044 -0.427221
vn 0.15907 0.890044 -0.427221
vn 0.15907 0.890044 -0.427221
vn 0.267159 0.689885 -0.672818
vn 0.267159 0.689885 -0.672818
vn 0.267159 0.689885 -0.672818
vn 0.132142 0.718057 -0.683325
vn 0.132142 0.718057 -0.683325
vn 0.132142 0.718057 -0.683325
vn 0.095798 -0.806221 -0.583807
vn 0.095798 -0.806221 -0.583807
vn 0.095798 -0.806221 -0.583807
vn 0.59693 -0.220405 0.771425
vn 0.59693 -0.220405 0.771425
vn 0.59693 -0.220405 0.771425
vn 0.465013 -0.351296 0.812622
vn 0.465013 -0.351296 0.812622
vn 0.465013 -0.351296 0.812622
vn 0.921854 -0.210077 0.325657
vn 0.921854 -0.210077 0.325657
vn 0.921854 -0.210077 0.325657
vn -0.687399 -0.096531 -0.719836
vn -0.687399 -0.096531 -0.719836
vn -0.687399 -0.096531 -0.719836
vn -0.470561 0.858225 0.204992
vn -0.470561 0.858225 0.204992
vn -0.470561 0.858225 0.204992
vn -0.0 0.990994 0.133909
vn -0.0 0.990994 0.133909
vn -0.0 0.990994 0.133909
vn -0.0 0.574637 0.818408
vn -0.0 0.574637 0.818408
vn -0.0 0.574637 0.818408
vn -0.679668 -0.722517 0.126572
vn -0.679668 -0.722517 0.126572
vn -0.679668 -0.722517 0.126572
vn -0.0 -0.816166 0.577817
vn -0.0 -0.816166 0.577817
vn -0.0 -0.816166 0.577817
vn 0.0 0.669766 0.742573
vn 0.0 0.669766 0.742573
vn 0.0 0.669766 0.742573
vn -0.620706 0.777542 0.10076
vn -0.620706 0.777542 0.10076
vn -0.620706 0.777542 0.10076
vn 0.948612 -0.278871 0.149551
vn 0.948612 -0.278871 0.149551
vn 0.948612 -0.278871 0.149551
vn 0.802904 -0.594054 0.04944
vn 0.802904 -0.594054 0.04944
vn 0.802904 -0.594054 0.04944
vn 0.679668 -0.722517 0.126572
vn 0.679668 -0.722517 0.126572
vn 0.679668 -0.722517 0.126572
vn 0.607461 0.78824 0.098328
vn 0.607461 0.78824 0.098328
vn 0.607461 0.78824 0.098328
vn 0.921761 0.209489 0.326299
vn 0.921761 0.209489 0.326299
vn 0.921761 0.209489 0.326299
vn 0.972002 0.220908 0.080078
vn 0.972002 0.220908 0.080078
vn 0.972002 0.220908 0.080078
vn 0.921381 -0.055668 -0.384654
vn 0.921381 -0.055668 -0.384654
vn 0.921381 -0.055668 -0.384654
vn 0.428962 0.173866 0.886432
vn 0.428962 0.173866 0.886432
vn 0.428962 0.173866 0.886432
vn -0.0 -0.110434 0.993883
vn -0.0 -0.110434 0.993883
vn -0.0 -0.110434 0.993883
vn 0.0 -0.816166 0.577817
vn 0.0 -0.816166 0.577817
vn 0.0 -0.816166 0.577817
vn 0.0 -0.991126 -0.132929
vn 0.0 -0.991126 -0.132929
vn 0.0 -0.991126 -0.132929
vn 0.663253 -0.163702 0.730271
vn 0.663253 -0.163702 0.730271
vn 0.663253 -0.163702 0.730271
vn -0.438681 0.18072 0.880284
vn -0.438681 0.18072 0.880284
vn -0.438681 0.18072 0.880284
vn -0.925062 -0.037823 -0.377927
vn -0.925062 -0.037823 -0.377927
vn -0.925062 -0.037823 -0.377927
vn 0.0 -0.909306 -0.416127
vn 0.0 -0.909306 -0.416127
vn 0.0 -0.909306 -0.416127
vn 0.0 -0.909306 -0.416128
vn 0.0 -0.909306 -0.416128
vn 0.0 -0.909306 -0.416128
vn -0.0 -0.110434 0.993883
vn -0.0 -0.110434 0.993883
vn -0.0 -0.110434 0.993883
vn -0.0 -0.168297 0.985736
vn -0.0 -0.168297 0.985736
vn -0.0 -0.168297 0.985736
vn -0.0 -0.168297 0.985736
vn -0.0 -0.168297 0.985736
vn -0.0 -0.168297 0.985736
vn -0.0 0.232118 0.972688
vn -0.0 0.232118 0.972688
vn -0.0 0.232118 0.972688
vn 0.0 0.232118 0.972688
vn 0.0 0.232118 0.972688
vn 0.0 0.232118 0.972688
vn -0.700065 -0.714079 -0.0
vn -0.700065 -0.714079 -0.0
vn -0.700065 -0.714079 -0.0
vn -0.700746 -0.713247 -0.015278
vn -0.700746 -0.713247 -0.015278
vn -0.700746 -0.713247 -0.015278
vn -0.748899 0.376227 0.54553
vn -0.748899 0.376227 0.54553
vn -0.748899 0.376227 0.54553
vn 0.723535 0.407034 0.557512
vn 0.723535 0.407034 0.557512
vn 0.723535 0.407034 0.557512
vn 0.713295 0.224312 0.663998
vn 0.713295 0.224312 0.663998
vn 0.713295 0.224312 0.663998
vn 0.249774 0.968297 0.003748
vn 0.249774 0.968297 0.003748
vn 0.249774 0.968297 0.003748
vn 0.748188 0.43696 0.49928
vn 0.748188 0.43696 0.49928
vn 0.748188 0.43696 0.49928
vn -0.570902 0.699011 -0.430644
vn -0.570902 0.699011 -0.430644
vn -0.570902 0.699011 -0.430644
vn 0.699404 -0.086073 -0.709525
vn 0.699404 -0.086073 -0.709525
vn 0.699404 -0.086073 -0.709525
vn -0.924551 -0.21825 0.312367
vn -0.924551 -0.21825 0.312367
vn -0.924551 -0.21825 0.312367
vn 0.476838 0.854586 0.205688
vn 0.476838 0.854586 0.205688
vn 0.476838 0.854586 0.205688
vn -0.0 0.990994 0.133909
vn -0.0 0.990994 0.133909
vn -0.0 0.990994 0.133909
vn -0.0 0.965368 -0.260894
vn -0.0 0.965368 -0.260894
vn -0.0 0.965368 -0.260894
vn 0.561977 0.709788 -0.424715
vn 0.561977 0.709788 -0.424715
vn 0.561977 0.709788 -0.424715
vn -0.64046 0.461495 0.613867
vn -0.64046 0.461495 0.613867
vn -0.64046 0.461495 0.613867
vn -0.788826 0.530045 0.311135
vn -0.788826 0.530045 0.311135
vn -0.788826 0.530045 0.311135
vn -0.54625 0.67629 0.494209
vn -0.54625 0.67629 0.494209
vn -0.54625 0.67629 0.494209
vn -0.93492 -0.186274 0.302036
vn -0.93492 -0.186274 0.302036
vn -0.93492 -0.186274 0.302036
vn -0.87074 -0.232752 0.433173
vn -0.87074 -0.232752 0.433173
vn -0.87074 -0.232752 0.433173
vn -0.267159 0.689885 -0.672818
vn -0.267159 0.689885 -0.672818
vn -0.267159 0.689885 -0.672818
vn 0.0 0.181161 -0.983453
vn 0.0 0.181161 -0.983453
vn 0.0 0.181161 -0.983453
vn 0.459298 0.642003 0.613903
vn 0.459298 0.642003 0.613903
vn 0.459298 0.642003 0.613903
vn 0.140274 0.990113 0.0
vn 0.140274 0.990113 0.0
vn 0.140274 0.990113 0.0
vn -0.971458 0.237211 0.0
vn -0.971458 0.237211 0.0
vn -0.971458 0.237211 0.0
vn -0.104104 -0.628717 -0.770634
vn -0.104104 -0.628717 -0.770634
vn -0.104104 -0.628717 -0.770634
vn -0.101836 -0.981481 0.162246
vn -0.101836 -0.981481 0.162246
vn -0.101836 -0.981481 0.162246
vn 0.701061 -0.712698 -0.02397
vn 0.701061 -0.712698 -0.02397
vn 0.701061 -0.712698 -0.02397
vn 0.757833 0.370416 0.537104
vn 0.757833 0.370416 0.537104
vn 0.757833 0.370416 0.537104
vn -0.30222 0.541184 0.784718
vn -0.30222 0.541184 0.784718
vn -0.30222 0.541184 0.784718
vn -0.230938 0.766229 0.599634
vn -0.230938 0.766229 0.599634
vn -0.230938 0.766229 0.599634
vn -0.218881 0.76842 0.601349
vn -0.218881 0.76842 0.601349
vn -0.218881 0.76842 0.601349
vn -0.249187 0.822846 -0.510715
vn -0.249187 0.822846 -0.510715
vn -0.249187 0.822846 -0.510715
vn -0.132142 0.718057 -0.683325
vn -0.132142 0.718057 -0.683325
vn -0.132142 0.718057 -0.683325
vn -0.095798 -0.806221 -0.583807
vn -0.095798 -0.806221 -0.583807
vn -0.095798 -0.806221 -0.583807
vn -0.166279 -0.72007 -0.673685
vn -0.166279 -0.72007 -0.673685
vn -0.166279 -0.72007 -0.673685
vn -0.150299 -0.716997 0.68068
vn -0.150299 -0.716997 0.68068
vn -0.150299 -0.716997 0.68068
vn -0.558384 -0.332141 0.76019
vn -0.558384 -0.332141 0.76019
vn -0.558384 -0.332141 0.76019
vn 0.018228 -0.574867 -0.818044
vn 0.018228 -0.574867 -0.818044
vn 0.018228 -0.574867 -0.818044
vn 0.413428 0.499003 -0.761625
vn 0.413428 0.499003 -0.761625
vn 0.413428 0.499003 -0.761625
vn -0.256727 0.529664 -0.808423
vn -0.256727 0.529664 -0.808423
vn -0.256727 0.529664 -0.808423
vn -0.165168 0.837979 -0.520107
vn -0.165168 0.837979 -0.520107
vn -0.165168 0.837979 -0.520107
vn -0.140001 -0.731218 0.667622
vn -0.140001 -0.731218 0.667622
vn -0.140001 -0.731218 0.667622
vn -0.161528 0.709082 0.686375
vn -0.161528 0.709082 0.686375
vn -0.161528 0.709082 0.686375
vn 0.700065 -0.714079 -0.0
vn 0.700065 -0.714079 -0.0
vn 0.700065 -0.714079 -0.0
vn -0.087498 -0.996165 -0.0
vn -0.087498 -0.996165 -0.0
vn -0.087498 -0.996165 -0.0
vn -0.023857 -0.738281 0.674071
vn -0.023857 -0.738281 0.674071
vn -0.023857 -0.738281 0.674071
vn 0.047689 -0.809024 -0.585837
vn 0.047689 -0.809024 -0.585837
vn 0.047689 -0.809024 -0.585837
vn -0.903178 0.207097 0.376007
vn -0.903178 0.207097 0.376007
vn -0.903178 0.207097 0.376007
vn 0.077675 0.323678 -0.942974
vn 0.077675 0.323678 -0.942974
vn 0.077675 0.323678 -0.942974
vn 0.904573 -0.032802 0.425055
vn 0.904573 -0.032802 0.425055
vn 0.904573 -0.032802 0.425055
vn -0.892626 0.231756 0.386663
vn -0.892626 0.231756 0.386663
vn -0.892626 0.231756 0.386663
vn 0.917244 -0.056056 0.394362
vn 0.917244 -0.056056 0.394362
vn 0.917244 -0.056056 0.394362
vn 0.079984 0.326636 -0.94176
vn 0.079984 0.326636 -0.94176
vn 0.079984 0.326636 -0.94176
vn -0.904573 -0.032802 0.425055
vn -0.904573 -0.032802 0.425055
vn -0.904573 -0.032802 0.425055
vn 0.903178 0.207097 0.376007
vn 0.903178 0.207097 0.376007
vn 0.903178 0.207097 0.376007
vn -0.077675 0.323678 -0.942974
vn -0.077675 0.323678 -0.942974
vn -0.077675 0.323678 -0.942974
vn -0.917244 -0.056056 0.394362
vn -0.917244 -0.056056 0.394362
vn -0.917244 -0.056056 0.394362
vn -0.079984 0.326636 -0.94176
vn -0.079984 0.326636 -0.94176
vn -0.079984 0.326636 -0.94176
vn 0.892626 0.231756 0.386663
vn 0.892626 0.231756 0.386663
vn 0.892626 0.231756 0.386663
vn -0.894327 -0.416372 0.16375
vn -0.894327 -0.416372 0.16375
vn -0.894327 -0.416372 0.16375
vn 0.0 -0.833933 0.551866
vn 0.0 -0.833933 0.551866
vn 0.0 -0.833933 0.551866
vn 0.0 -0.833933 0.551866
vn 0.0 -0.833933 0.551866
vn 0.0 -0.833933 0.551866
vn 0.889034 -0.422951 0.175301
vn 0.889034 -0.422951 0.175301
vn 0.889034 -0.422951 0.175301
vn -0.674652 -0.72605 -0.133029
vn -0.674652 -0.72605 -0.133029
vn -0.674652 -0.72605 -0.133029
vn -0.472601 -0.842074 -0.259923
vn -0.472601 -0.842074 -0.259923
vn -0.472601 -0.842074 -0.259923
vn -0.826011 0.333653 -0.454292
vn -0.826011 0.333653 -0.454292
vn -0.826011 0.333653 -0.454292
vn -0.204674 0.383543 -0.900558
vn -0.204674 0.383543 -0.900558
vn -0.204674 0.383543 -0.900558
vn 0.0 -1.0 0.0
vn 0.0 -1.0 0.0
vn 0.0 -1.0 0.0
vn 0.734502 0.458859 -0.499955
vn 0.734502 0.458859 -0.499955
vn 0.734502 0.458859 -0.499955
vn 0.968151 -0.079318 0.237472
vn 0.968151 -0.079318 0.237472
vn 0.968151 -0.079318 0.237472
vn 0.199291 0.489106 0.849152
vn 0.199291 0.489106 0.849152
vn 0.199291 0.489106 0.849152
vn 0.184199 0.476649 0.859579
vn 0.184199 0.476649 0.859579
vn 0.184199 0.476649 0.859579
vn -0.905137 -0.082832 0.416972
vn -0.905137 -0.082832 0.416972
vn -0.905137 -0.082832 0.416972
vn 0.0 -1.0 0.0
vn 0.0 -1.0 0.0
vn 0.0 -1.0 0.0
vn 0.0 -1.0 0.0
vn 0.0 -1.0 0.0
vn 0.0 -1.0 0.0
vn -0.977808 0.209023 0.014172
vn -0.977808 0.209023 0.014172
vn -0.977808 0.209023 0.014172
vn 0.0 -1.0 0.0
vn 0.0 -1.0 0.0
vn 0.0 -1.0 0.0
vn -0.703041 0.681741 -0.202392
vn -0.703041 0.681741 -0.202392
vn -0.703041 0.681741 -0.202392
vn -0.58165 -0.305253 0.753992
vn -0.58165 -0.305253 0.753992
vn -0.58165 -0.305253 0.753992
vn -0.489129 -0.310079 0.815232
vn -0.489129 -0.310079 0.815232
vn -0.489129 -0.310079 0.815232
vn -0.506067 -0.18018 0.843464
vn -0.506067 -0.18018 0.843464
vn -0.506067 -0.18018 0.843464
vn 0.08173 0.628622 0.773405
vn 0.08173 0.628622 0.773405
vn 0.08173 0.628622 0.773405
vn 0.91985 -0.182664 0.347145
vn 0.91985 -0.182664 0.347145
vn 0.91985 -0.182664 0.347145
vn 0.984871 0.017266 0.172427
vn 0.984871 0.017266 0.172427
vn 0.984871 0.017266 0.172427
vn 0.559733 0.652386 -0.510971
vn 0.559733 0.652386 -0.510971
vn 0.559733 0.652386 -0.510971
vn -0.039168 0.985197 -0.16689
vn -0.039168 0.985197 -0.16689
vn -0.039168 0.985197 -0.16689
vn 0.942655 -0.187834 0.275897
vn 0.942655 -0.187834 0.275897
vn 0.942655 -0.187834 0.275897
vn 0.854855 -0.219442 0.470179
vn 0.854855 -0.219442 0.470179
vn 0.854855 -0.219442 0.470179
vn 0.672724 0.640733 0.370006
vn 0.672724 0.640733 0.370006
vn 0.672724 0.640733 0.370006
vn 0.392832 -0.64578 -0.654714
vn 0.392832 -0.64578 -0.654714
vn 0.392832 -0.64578 -0.654714
vn 0.474901 0.384715 -0.791494
vn 0.474901 0.384715 -0.791494
vn 0.474901 0.384715 -0.791494
vn -0.941204 -0.165105 0.294747
vn -0.941204 -0.165105 0.294747
vn -0.941204 -0.165105 0.294747
vn -0.984552 -0.027988 0.172838
vn -0.984552 -0.027988 0.172838
vn -0.984552 -0.027988 0.172838
vn -0.985138 -0.161684 0.057979
vn -0.985138 -0.161684 0.057979
vn -0.985138 -0.161684 0.057979
vn -0.0 -0.146553 -0.989203
vn -0.0 -0.146553 -0.989203
vn -0.0 -0.146553 -0.989203
vn 0.0 -0.146553 -0.989203
vn 0.0 -0.146553 -0.989203
vn 0.0 -0.146553 -0.989203
vn 0.985626 -0.168457 0.012829
vn 0.985626 -0.168457 0.012829
vn 0.985626 -0.168457 0.012829
vn 0.829763 0.323662 -0.454682
vn 0.829763 0.323662 -0.454682
vn 0.829763 0.323662 -0.454682
vn 0.0 -0.963684 -0.267045
vn 0.0 -0.963684 -0.267045
vn 0.0 -0.963684 -0.267045
vn 0.0 -0.986789 -0.162008
vn 0.0 -0.986789 -0.162008
vn 0.0 -0.986789 -0.162008
vn -0.919166 -0.374122 -0.123156
vn -0.919166 -0.374122 -0.123156
vn -0.919166 -0.374122 -0.123156
vn 0.0 0.89443 -0.447208
vn 0.0 0.89443 -0.447208
vn 0.0 0.89443 -0.447208
vn -0.0 0.725953 0.687744
vn -0.0 0.725953 0.687744
vn -0.0 0.725953 0.687744
vn 0.639326 0.39104 0.66208
vn 0.639326 0.39104 0.66208
vn 0.639326 0.39104 0.66208
vn 0.721437 0.686004 0.094485
vn 0.721437 0.686004 0.094485
vn 0.721437 0.686004 0.094485
vn 0.0 -0.963684 -0.267045
vn 0.0 -0.963684 -0.267045
vn 0.0 -0.963684 -0.267045
vn 0.922436 -0.368453 -0.115562
vn 0.922436 -0.368453 -0.115562
vn 0.922436 -0.368453 -0.115562
vn -0.68062 0.724256 0.110495
vn -0.68062 0.724256 0.110495
vn -0.68062 0.724256 0.110495
vn -0.760605 0.646406 0.060332
vn -0.760605 0.646406 0.060332
vn -0.760605 0.646406 0.060332
vn 0.776731 0.627107 0.05853
vn 0.776731 0.627107 0.05853
vn 0.776731 0.627107 0.05853
vn -0.599877 0.419324 0.681407
vn -0.599877 0.419324 0.681407
vn -0.599877 0.419324 0.681407
vn -0.946857 -0.178138 0.267823
vn -0.946857 -0.178138 0.267823
vn -0.946857 -0.178138 0.267823
vn -0.474379 0.387162 -0.790614
vn -0.474379 0.387162 -0.790614
vn -0.474379 0.387162 -0.790614
vn 0.204771 0.382484 -0.900986
vn 0.204771 0.382484 -0.900986
vn 0.204771 0.382484 -0.900986
vn 0.827384 0.329193 -0.455047
vn 0.827384 0.329193 -0.455047
vn 0.827384 0.329193 -0.455047
vn 0.576824 -0.310209 0.755675
vn 0.576824 -0.310209 0.755675
vn 0.576824 -0.310209 0.755675
vn 0.488468 -0.314018 0.81412
vn 0.488468 -0.314018 0.81412
vn 0.488468 -0.314018 0.81412
vn -0.856266 -0.212157 0.470955
vn -0.856266 -0.212157 0.470955
vn -0.856266 -0.212157 0.470955
vn -0.672725 0.640731 0.370006
vn -0.672725 0.640731 0.370006
vn -0.672725 0.640731 0.370006
vn -0.836327 0.341129 -0.429171
vn -0.836327 0.341129 -0.429171
vn -0.836327 0.341129 -0.429171
vn 0.508941 -0.146509 0.848242
vn 0.508941 -0.146509 0.848242
vn 0.508941 -0.146509 0.848242
vn -0.088043 0.630393 0.771267
vn -0.088043 0.630393 0.771267
vn -0.088043 0.630393 0.771267
vn 0.70037 -0.702167 -0.128236
vn 0.70037 -0.702167 -0.128236
vn 0.70037 -0.702167 -0.128236
vn 0.481273 -0.835652 -0.264692
vn 0.481273 -0.835652 -0.264692
vn 0.481273 -0.835652 -0.264692
vn -0.388325 -0.656007 -0.647193
vn -0.388325 -0.656007 -0.647193
vn -0.388325 -0.656007 -0.647193
vn 0.0 -1.0 0.0
vn 0.0 -1.0 0.0
vn 0.0 -1.0 0.0
vn 0.0 -1.0 0.0
vn 0.0 -1.0 0.0
vn 0.0 -1.0 0.0
vn -0.734502 0.458859 -0.499955
vn -0.734502 0.458859 -0.499955
vn -0.734502 0.458859 -0.499955
vn -0.559733 0.652386 -0.510971
vn -0.559733 0.652386 -0.510971
vn -0.559733 0.652386 -0.510971
vn 0.039168 0.985197 -0.16689
vn 0.039168 0.985197 -0.16689
vn 0.039168 0.985197 -0.16689
vn 0.703041 0.681741 -0.202392
vn 0.703041 0.681741 -0.202392
vn 0.703041 0.681741 -0.202392
vn 0.977808 0.209023 0.014172
vn 0.977808 0.209023 0.014172
vn 0.977808 0.209023 0.014172
vn 0.0 -1.0 0.0
vn 0.0 -1.0 0.0
vn 0.0 -1.0 0.0
vn 0.0 -1.0 0.0
vn 0.0 -1.0 0.0
vn 0.0 -1.0 0.0
vn 0.905137 -0.082832 0.416972
vn 0.905137 -0.082832 0.416972
vn 0.905137 -0.082832 0.416972
vn -0.184199 0.476649 0.859579
vn -0.184199 0.476649 0.859579
vn -0.184199 0.476649 0.859579
vn -0.199291 0.489106 0.849152
vn -0.199291 0.489106 0.849152
vn -0.199291 0.489106 0.849152
vn -0.968151 -0.079318 0.237472
vn -0.968151 -0.079318 0.237472
vn -0.968151 -0.079318 0.237472
vn -0.965367 -0.260895 -0.0
vn -0.965367 -0.260895 -0.0
vn -0.965367 -0.260895 -0.0
vn -0.963513 -0.267657 -0.001476
vn -0.963513 -0.267657 -0.001476
vn -0.963513 -0.267657 -0.001476
vn 0.006373 -0.025995 -0.999642
vn 0.006373 -0.025995 -0.999642
vn 0.006373 -0.025995 -0.999642
vn 0.007051 -0.027323 -0.999602
vn 0.007051 -0.027323 -0.999602
vn 0.007051 -0.027323 -0.999602
vn 0.959355 0.282196 0.001557
vn 0.959355 0.282196 0.001557
vn 0.959355 0.282196 0.001557
vn 0.249874 -0.968264 -0.005341
vn 0.249874 -0.968264 -0.005341
vn 0.249874 -0.968264 -0.005341
vn 0.01336 -0.05177 0.99857
vn 0.01336 -0.05177 0.99857
vn 0.01336 -0.05177 0.99857
vn 0.012718 -0.050547 0.998641
vn 0.012718 -0.050547 0.998641
vn 0.012718 -0.050547 0.998641
vn -0.244 0.969761 -0.005262
vn -0.244 0.969761 -0.005262
vn -0.244 0.969761 -0.005262
vn -0.238115 0.971237 -0.0
vn -0.238115 0.971237 -0.0
vn -0.238115 0.971237 -0.0
vn 0.963493 0.26773 -0.001453
vn 0.963493 0.26773 -0.001453
vn 0.963493 0.26773 -0.001453
vn 0.249874 -0.968264 -0.005341
vn 0.249874 -0.968264 -0.005341
vn 0.249874 -0.968264 -0.005341
vn 0.244 0.969761 -0.005262
vn 0.244 0.969761 -0.005262
vn 0.244 0.969761 -0.005262
vn 0.238115 0.971237 -0.0
vn 0.238115 0.971237 -0.0
vn 0.238115 0.971237 -0.0
vn 0.965367 -0.260895 -0.0
vn 0.965367 -0.260895 -0.0
vn 0.965367 -0.260895 -0.0
vn 0.963513 -0.267657 -0.001476
vn 0.963513 -0.267657 -0.001476
vn 0.963513 -0.267657 -0.001476
vn -0.249874 -0.968264 -0.005341
vn -0.249874 -0.968264 -0.005341
vn -0.249874 -0.968264 -0.005341
vn -0.007051 -0.027323 -0.999602
vn -0.007051 -0.027323 -0.999602
vn -0.007051 -0.027323 -0.999602
vn -0.959355 0.282196 0.001557
vn -0.959355 0.282196 0.001557
vn -0.959355 0.282196 0.001557
vn -0.963493 0.26773 -0.001453
vn -0.963493 0.26773 -0.001453
vn -0.963493 0.26773 -0.001453
vn -0.01336 -0.05177 0.99857
vn -0.01336 -0.05177 0.99857
vn -0.01336 -0.05177 0.99857
vn -0.012718 -0.050547 0.998641
vn -0.012718 -0.050547 0.998641
vn -0.012718 -0.050547 0.998641
vn -0.006373 -0.025995 -0.999642
vn -0.006373 -0.025995 -0.999642
vn -0.006373 -0.025995 -0.999642
vn -0.249874 -0.968264 -0.005341
vn -0.249874 -0.968264 -0.005341
vn -0.249874 -0.968264 -0.005341

# Tex, 266 grouped triangles

usemtl Tex
o Tex
g Tex

f 1/1/1 2/2/2 3/3/3
f 4/4/4 5/5/5 6/6/6
f 7/7/7 8/8/8 9/9/9
f 10/10/10 11/11/11 12/12/12
f 13/13/13 14/14/14 15/15/15
f 16/16/16 17/17/17 18/18/18
f 19/19/19 20/20/20 21/21/21
f 22/22/22 23/23/23 24/24/24
f 25/25/25 26/26/26 27/27/27
f 28/28/28 29/29/29 30/30/30
f 31/31/31 32/32/32 33/33/33
f 34/34/34 35/35/35 36/36/36
f 37/37/37 38/38/38 39/39/39
f 40/40/40 41/41/41 42/42/42
f 43/43/43 44/44/44 45/45/45
f 46/46/46 47/47/47 48/48/48
f 49/49/49 50/50/50 51/51/51
f 52/52/52 53/53/53 54/54/54
f 55/55/55 56/56/56 57/57/57
f 58/58/58 59/59/59 60/60/60
f 61/61/61 62/62/62 63/63/63
f 64/64/64 65/65/65 66/66/66
f 67/67/67 68/68/68 69/69/69
f 70/70/70 71/71/71 72/72/72
f 73/73/73 74/74/74 75/75/75
f 76/76/76 77/77/77 78/78/78
f 79/79/79 80/80/80 81/81/81
f 82/82/82 83/83/83 84/84/84
f 85/85/85 86/86/86 87/87/87
f 88/88/88 89/89/89 90/90/90
f 91/91/91 92/92/92 93/93/93
f 94/94/94 95/95/95 96/96/96
f 97/97/97 98/98/98 99/99/99
f 100/100/100 101/101/101 102/102/102
f 103/103/103 104/104/104 105/105/105
f 106/106/106 107/107/107 108/108/108
f 109/109/109 110/110/110 111/111/111
f 112/112/112 113/113/113 114/114/114
f 115/115/115 116/116/116 117/117/117
f 118/118/118 119/119/119 120/120/120
f 121/121/121 122/122/122 123/123/123
f 124/124/124 125/125/125 126/126/126
f 127/127/127 128/128/128 129/129/129
f 130/130/130 131/131/131 132/132/132
f 133/133/133 134/134/134 135/135/135
f 136/136/136 137/137/137 138/138/138
f 139/139/139 140/140/140 141/141/141
f 142/142/142 143/143/143 144/144/144
f 145/145/145 146/146/146 147/147/147
f 148/148/148 149/149/149 150/150/150
f 151/151/151 152/152/152 153/153/153
f 154/154/154 155/155/155 156/156/156
f 157/157/157 158/158/158 159/159/159
f 160/160/160 161/161/161 162/162/162
f 163/163/163 164/164/164 165/165/165
f 166/166/166 167/167/167 168/168/168
f 169/169/169 170/170/170 171/171/171
f 172/172/172 173/173/173 174/174/174
f 175/175/175 176/176/176 177/177/177
f 178/178/178 179/179/179 180/180/180
f 181/181/181 182/182/182 183/183/183
f 184/184/184 185/185/185 186/186/186
f 187/187/187 188/188/188 189/189/189
f 190/190/190 191/191/191 192/192/192
f 193/193/193 194/194/194 195/195/195
f 196/196/196 197/197/197 198/198/198
f 199/199/199 200/200/200 201/201/201
f 202/202/202 203/203/203 204/204/204
f 205/205/205 206/206/206 207/207/207
f 208/208/208 209/209/209 210/210/210
f 211/211/211 212/212/212 213/213/213
f 214/214/214 215/215/215 216/216/216
f 217/217/217 218/218/218 219/219/219
f 220/220/220 221/221/221 222/222/222
f 223/223/223 224/224/224 225/225/225
f 226/226/226 227/227/227 228/228/228
f 229/229/229 230/230/230 231/231/231
f 232/232/232 233/233/233 234/234/234
f 235/235/235 236/236/236 237/237/237
f 238/238/238 239/239/239 240/240/240
f 241/241/241 242/242/242 243/243/243
f 244/244/244 245/245/245 246/246/246
f 247/247/247 248/248/248 249/249/249
f 250/250/250 251/251/251 252/252/252
f 253/253/253 254/254/254 255/255/255
f 256/256/256 257/257/257 258/258/258
f 259/259/259 260/260/260 261/261/261
f 262/262/262 263/263/263 264/264/264
f 265/265/265 266/266/266 267/267/267
f 268/268/268 269/269/269 270/270/270
f 271/271/271 272/272/272 273/273/273
f 274/274/274 275/275/275 276/276/276
f 277/277/277 278/278/278 279/279/279
f 280/280/280 281/281/281 282/282/282
f 283/283/283 284/284/284 285/285/285
f 286/286/286 287/287/287 288/288/288
f 289/289/289 290/290/290 291/291/291
f 292/292/292 293/293/293 294/294/294
f 295/295/295 296/296/296 297/297/297
f 298/298/298 299/299/299 300/300/300
f 301/301/301 302/302/302 303/303/303
f 304/304/304 305/305/305 306/306/306
f 307/307/307 308/308/308 309/309/309
f 310/310/310 311/311/311 312/312/312
f 313/313/313 314/314/314 315/315/315
f 316/316/316 317/317/317 318/318/318
f 319/319/319 320/320/320 321/321/321
f 322/322/322 323/323/323 324/324/324
f 325/325/325 326/326/326 327/327/327
f 328/328/328 329/329/329 330/330/330
f 331/331/331 332/332/332 333/333/333
f 334/334/334 335/335/335 336/336/336
f 337/337/337 338/338/338 339/339/339
f 340/340/340 341/341/341 342/342/342
f 343/343/343 344/344/344 345/345/345
f 346/346/346 347/347/347 348/348/348
f 349/349/349 350/350/350 351/351/351
f 352/352/352 353/353/353 354/354/354
f 355/355/355 356/356/356 357/357/357
f 358/358/358 359/359/359 360/360/360
f 361/361/361 362/362/362 363/363/363
f 364/364/364 365/365/365 366/366/366
f 367/367/367 368/368/368 369/369/369
f 370/370/370 371/371/371 372/372/372
f 373/373/373 374/374/374 375/375/375
f 376/376/376 377/377/377 378/378/378
f 379/379/379 380/380/380 381/381/381
f 382/382/382 383/383/383 384/384/384
f 385/385/385 386/386/386 387/387/387
f 388/388/388 389/389/389 390/390/390
f 391/391/391 392/392/392 393/393/393
f 394/394/394 395/395/395 396/396/396
f 397/397/397 398/398/398 399/399/399
f 400/400/400 401/401/401 402/402/402
f 403/403/403 404/404/404 405/405/405
f 406/406/406 407/407/407 408/408/408
f 409/409/409 410/410/410 411/411/411
f 412/412/412 413/413/413 414/414/414
f 415/415/415 416/416/416 417/417/417
f 418/418/418 419/419/419 420/420/420
f 421/421/421 422/422/422 423/423/423
f 424/424/424 425/425/425 426/426/426
f 427/427/427 428/428/428 429/429/429
f 430/430/430 431/431/431 432/432/432
f 433/433/433 434/434/434 435/435/435
f 436/436/436 437/437/437 438/438/438
f 439/439/439 440/440/440 441/441/441
f 442/442/442 443/443/443 444/444/444
f 445/445/445 446/446/446 447/447/447
f 448/448/448 449/449/449 450/450/450
f 451/451/451 452/452/452 453/453/453
f 454/454/454 455/455/455 456/456/456
f 457/457/457 458/458/458 459/459/459
f 460/460/460 461/461/461 462/462/462
f 463/463/463 464/464/464 465/465/465
f 466/466/466 467/467/467 468/468/468
f 469/469/469 470/470/470 471/471/471
f 472/472/472 473/473/473 474/474/474
f 475/475/475 476/476/476 477/477/477
f 478/478/478 479/479/479 480/480/480
f 481/481/481 482/482/482 483/483/483
f 484/484/484 485/485/485 486/486/486
f 487/487/487 488/488/488 489/489/489
f 490/490/490 491/491/491 492/492/492
f 493/493/493 494/494/494 495/495/495
f 496/496/496 497/497/497 498/498/498
f 499/499/499 500/500/500 501/501/501
f 502/502/502 503/503/503 504/504/504
f 505/505/505 506/506/506 507/507/507
f 508/508/508 509/509/509 510/510/510
f 511/511/511 512/512/512 513/513/513
f 514/514/514 515/515/515 516/516/516
f 517/517/517 518/518/518 519/519/519
f 520/520/520 521/521/521 522/522/522
f 523/523/523 524/524/524 525/525/525
f 526/526/526 527/527/527 528/528/528
f 529/529/529 530/530/530 531/531/531
f 532/532/532 533/533/533 534/534/534
f 535/535/535 536/536/536 537/537/537
f 538/538/538 539/539/539 540/540/540
f 541/541/541 542/542/542 543/543/543
f 544/544/544 545/545/545 546/546/546
f 547/547/547 548/548/548 549/549/549
f 550/550/550 551/551/551 552/552/552
f 553/553/553 554/554/554 555/555/555
f 556/556/556 557/557/557 558/558/558
f 559/559/559 560/560/560 561/561/561
f 562/562/562 563/563/563 564/564/564
f 565/565/565 566/566/566 567/567/567
f 568/568/568 569/569/569 570/570/570
f 571/571/571 572/572/572 573/573/573
f 574/574/574 575/575/575 576/576/576
f 577/577/577 578/578/578 579/579/579
f 580/580/580 581/581/581 582/582/582
f 583/583/583 584/584/584 585/585/585
f 586/586/586 587/587/587 588/588/588
f 589/589/589 590/590/590 591/591/591
f 592/592/592 593/593/593 594/594/594
f 595/595/595 596/596/596 597/597/597
f 598/598/598 599/599/599 600/600/600
f 601/601/601 602/602/602 603/603/603
f 604/604/604 605/605/605 606/606/606
f 607/607/607 608/608/608 609/609/609
f 610/610/610 611/611/611 612/612/612
f 613/613/613 614/614/614 615/615/615
f 616/616/616 617/617/617 618/618/618
f 619/619/619 620/620/620 621/621/621
f 622/622/622 623/623/623 624/624/624
f 625/625/625 626/626/626 627/627/627
f 628/628/628 629/629/629 630/630/630
f 631/631/631 632/632/632 633/633/633
f 634/634/634 635/635/635 636/636/636
f 637/637/637 638/638/638 639/639/639
f 640/640/640 641/641/641 642/642/642
f 643/643/643 644/644/644 645/645/645
f 646/646/646 647/647/647 648/648/648
f 649/649/649 650/650/650 651/651/651
f 652/652/652 653/653/653 654/654/654
f 655/655/655 656/656/656 657/657/657
f 658/658/658 659/659/659 660/660/660
f 661/661/661 662/662/662 663/663/663
f 664/664/664 665/665/665 666/666/666
f 667/667/667 668/668/668 669/669/669
f 670/670/670 671/671/671 672/672/672
f 673/673/673 674/674/674 675/675/675
f 676/676/676 677/677/677 678/678/678
f 679/679/679 680/680/680 681/681/681
f 682/682/682 683/683/683 684/684/684
f 685/685/685 686/686/686 687/687/687
f 688/688/688 689/689/689 690/690/690
f 691/691/691 692/692/692 693/693/693
f 694/694/694 695/695/695 696/696/696
f 697/697/697 698/698/698 699/699/699
f 700/700/700 701/701/701 702/702/702
f 703/703/703 704/704/704 705/705/705
f 706/706/706 707/707/707 708/708/708
f 709/709/709 710/710/710 711/711/711
f 712/712/712 713/713/713 714/714/714
f 715/715/715 716/716/716 717/717/717
f 718/718/718 719/719/719 720/720/720
f 721/721/721 722/722/722 723/723/723
f 724/724/724 725/725/725 726/726/726
f 727/727/727 728/728/728 729/729/729
f 730/730/730 731/731/731 732/732/732
f 733/733/733 734/734/734 735/735/735
f 736/736/736 737/737/737 738/738/738
f 739/739/739 740/740/740 741/741/741
f 742/742/742 743/743/743 744/744/744
f 745/745/745 746/746/746 747/747/747
f 748/748/748 749/749/749 750/750/750
f 751/751/751 752/752/752 753/753/753
f 754/754/754 755/755/755 756/756/756
f 757/757/757 758/758/758 759/759/759
f 760/760/760 761/761/761 762/762/762
f 763/763/763 764/764/764 765/765/765
f 766/766/766 767/767/767 768/768/768
f 769/769/769 770/770/770 771/771/771
f 772/772/772 773/773/773 774/774/774
f 775/775/775 776/776/776 777/777/777
f 778/778/778 779/779/779 780/780/780
f 781/781/781 782/782/782 783/783/783
f 784/784/784 785/785/785 786/786/786
f 787/787/787 788/788/788 789/789/789
f 790/790/790 791/791/791 792/792/792
f 793/793/793 794/794/794 795/795/795
f 796/796/796 797/797/797 798/798/798
