# Blender 5.0.0
# www.blender.org
mtllib General1.mtl
o General1
v -0.066000 0.160000 -0.110000
v -0.154000 0.158000 -0.154000
v -0.162000 0.642000 -0.158000
v -0.046000 0.612000 -0.118000
v -0.048000 0.572000 -0.014000
v -0.072000 0.160000 -0.020000
v -0.162000 0.550000 0.080000
v -0.162000 0.156000 0.022000
v -0.214000 0.156000 -0.076000
v -0.232000 0.600000 -0.082000
v -0.168000 0.038000 -0.184000
v -0.148000 0.084000 -0.146000
v -0.072000 0.086000 -0.110000
v -0.068000 0.040000 -0.122000
v -0.080000 0.086000 -0.020000
v -0.084000 0.038000 0.046000
v -0.160000 0.082000 0.010000
v -0.198000 0.032000 0.132000
v -0.248000 0.034000 -0.040000
v -0.202000 0.082000 -0.078000
v -0.174000 0.680000 0.178000
v -0.068000 -0.012000 -0.108000
v -0.084000 -0.014000 0.074000
v -0.198000 -0.018000 0.150000
v 0.330000 1.580000 -0.238000
v 0.000000 1.582000 -0.356000
v 0.000000 1.586000 -0.262000
v -0.406000 1.500000 -0.238000
v 0.314000 1.608000 -0.140000
v -0.310000 1.608000 -0.140000
v -0.416000 0.858000 -0.512000
v 0.436000 0.824000 -0.468000
v 0.000000 0.988000 -0.480000
v -0.426000 0.952000 -0.042000
v -0.448000 0.912000 -0.090000
v -0.500000 0.988000 -0.104000
v -0.450000 0.916000 0.038000
v -0.446000 0.966000 0.050000
v -0.520000 0.990000 0.042000
v -0.566000 0.960000 0.030000
v -0.562000 1.000000 -0.046000
v -0.568000 0.958000 -0.082000
v 0.098000 1.776000 -0.050000
v 0.050000 1.768000 -0.156000
v 0.096000 1.826000 -0.082000
v 0.058000 1.724000 -0.094000
v -0.096000 1.776000 -0.050000
v -0.048000 1.768000 -0.156000
v -0.058000 1.724000 -0.094000
v -0.094000 1.826000 -0.082000
v 0.050000 1.866000 -0.138000
v 0.092000 1.856000 -0.038000
v -0.024000 1.726000 0.124000
v 0.050000 1.816000 0.094000
v -0.048000 1.816000 0.094000
v 0.028000 1.726000 0.124000
v -0.046000 1.866000 -0.138000
v 0.102000 1.814000 -0.010000
v 0.050000 1.876000 0.070000
v 0.084000 1.700000 0.000000
v -0.046000 1.876000 0.070000
v -0.098000 1.814000 -0.010000
v -0.088000 1.856000 -0.038000
v -0.088000 1.700000 0.000000
v -0.480000 0.792000 0.072000
v -0.490000 0.888000 0.056000
v -0.508000 0.840000 0.066000
v -0.634000 0.830000 0.066000
v -0.558000 0.858000 0.066000
v -0.540000 0.906000 0.056000
v -0.566000 0.860000 -0.116000
v -0.634000 0.830000 -0.126000
v -0.548000 0.910000 -0.106000
v -0.514000 0.842000 -0.116000
v -0.476000 0.786000 -0.124000
v -0.496000 0.890000 -0.106000
v -0.384000 1.196000 0.074000
v -0.468000 1.208000 0.074000
v -0.462000 1.206000 -0.140000
v -0.316000 1.122000 -0.046000
v -0.384000 1.192000 -0.140000
v -0.114000 1.748000 -0.088000
v -0.142000 1.674000 -0.048000
v -0.132000 1.720000 -0.034000
v -0.138000 1.660000 -0.140000
v 0.000000 1.668000 -0.216000
v -0.128000 1.654000 0.066000
v -0.090000 1.700000 0.102000
v 0.142000 1.674000 -0.048000
v 0.110000 1.748000 -0.088000
v 0.128000 1.720000 -0.034000
v 0.140000 1.660000 -0.140000
v 0.130000 1.654000 0.066000
v 0.086000 1.700000 0.102000
v 0.312000 1.646000 -0.048000
v 0.310000 1.612000 0.036000
v 0.446000 0.966000 0.050000
v 0.316000 1.120000 -0.046000
v 0.426000 0.952000 -0.044000
v 0.378000 1.192000 0.068000
v 0.500000 0.988000 -0.104000
v 0.382000 1.188000 -0.140000
v 0.562000 1.000000 -0.046000
v 0.462000 1.204000 -0.140000
v 0.520000 0.990000 0.042000
v 0.468000 1.208000 0.074000
v -0.310000 1.646000 -0.048000
v -0.308000 1.612000 0.036000
v 0.068000 0.158000 -0.116000
v 0.160000 0.642000 -0.158000
v 0.160000 0.158000 -0.154000
v 0.044000 0.612000 -0.120000
v 0.046000 0.572000 -0.016000
v 0.070000 0.158000 -0.024000
v 0.158000 0.550000 0.080000
v 0.158000 0.156000 0.022000
v 0.216000 0.158000 -0.072000
v 0.232000 0.600000 -0.080000
v -0.000000 1.508000 0.208000
v -0.208000 1.044000 -0.222000
v -0.154000 1.168000 -0.114000
v 0.000000 1.164000 -0.162000
v -0.068000 0.958000 0.168000
v -0.150000 1.172000 0.050000
v -0.224000 1.044000 0.106000
v -0.000000 1.102000 0.114000
v -0.262000 1.042000 -0.044000
v -0.186000 1.172000 -0.050000
v 0.216000 1.044000 -0.222000
v 0.068000 0.958000 0.168000
v 0.150000 1.172000 0.050000
v 0.224000 1.044000 0.106000
v 0.262000 1.042000 -0.044000
v 0.154000 1.168000 -0.114000
v 0.186000 1.172000 -0.050000
v -0.292000 0.780000 -0.206000
v -0.324000 0.816000 0.008000
v 0.002000 0.742000 -0.282000
v -0.184000 0.816000 0.194000
v 0.292000 0.780000 -0.206000
v 0.324000 0.816000 0.008000
v 0.184000 0.816000 0.194000
v -0.260000 1.366000 -0.148000
v -0.288000 1.388000 -0.048000
v -0.278000 1.458000 -0.156000
v 0.264000 1.366000 -0.148000
v 0.274000 1.448000 -0.140000
v 0.302000 1.388000 -0.048000
v -0.590000 0.720000 0.616000
v -0.574000 0.716000 0.384000
v -0.634000 0.554000 0.556000
v -0.570000 0.708000 0.620000
v -0.558000 0.858000 0.696000
v -0.570000 0.788000 0.676000
v -0.558000 0.858000 0.816000
v -0.508000 0.840000 0.696000
v -0.508000 0.840000 0.816000
v -0.542000 0.778000 0.676000
v -0.566000 0.738000 1.046000
v -0.490000 0.888000 0.816000
v -0.540000 0.906000 0.816000
v -0.522000 0.868000 0.886000
v -0.000000 1.628000 0.142000
v -0.000000 1.736000 0.208000
v -0.000000 1.664000 0.108000
v 0.002000 1.920000 -0.060000
v 0.076000 1.906000 -0.040000
v 0.030000 1.906000 -0.116000
v -0.026000 1.906000 -0.116000
v -0.074000 1.906000 -0.040000
v -0.026000 1.898000 0.046000
v 0.030000 1.898000 0.046000
v 0.204000 1.876000 -0.088000
v 0.192000 2.134000 -0.160000
v 0.232000 1.870000 -0.070000
v 0.180000 1.880000 -0.058000
v 0.202000 1.878000 -0.036000
v -0.190000 2.132000 -0.162000
v -0.200000 1.876000 -0.088000
v -0.230000 1.870000 -0.070000
v -0.176000 1.880000 -0.058000
v -0.198000 1.878000 -0.036000
v 0.248000 1.334000 0.074000
v -0.000000 1.318000 0.186000
v 0.000000 1.346000 -0.212000
v -0.246000 1.334000 0.074000
v 0.450000 0.918000 0.038000
v 0.566000 0.958000 0.034000
v 0.566000 0.956000 -0.082000
v 0.448000 0.912000 -0.090000
v 0.466000 0.816000 -0.124000
v 0.648000 0.864000 -0.126000
v 0.534000 0.766000 -0.102000
v 0.646000 0.864000 0.066000
v 0.470000 0.820000 0.072000
v 0.540000 0.770000 0.068000
v 0.284000 1.476000 0.058000
v -0.282000 1.476000 0.058000
v 0.550000 1.320000 -0.042000
v -0.552000 1.326000 -0.046000
v -0.390000 1.438000 -0.120000
v -0.336000 1.410000 -0.152000
v -0.396000 1.444000 0.048000
v -0.448000 1.274000 0.038000
v -0.454000 1.384000 -0.040000
v -0.484000 1.300000 -0.040000
v -0.442000 1.268000 -0.110000
v 0.396000 1.442000 0.048000
v 0.390000 1.436000 -0.120000
v 0.338000 1.408000 -0.152000
v 0.454000 1.382000 -0.040000
v 0.448000 1.272000 0.038000
v 0.484000 1.298000 -0.040000
v 0.442000 1.266000 -0.110000
v 0.182000 0.038000 -0.180000
v 0.080000 0.084000 -0.116000
v 0.160000 0.084000 -0.144000
v 0.078000 0.038000 -0.126000
v 0.080000 0.084000 -0.024000
v 0.078000 0.038000 0.042000
v 0.156000 0.084000 0.012000
v 0.186000 0.036000 0.138000
v 0.250000 0.038000 -0.030000
v 0.206000 0.084000 -0.072000
v 0.174000 0.680000 0.178000
v 0.000000 0.224000 -0.724000
v -0.522000 0.202000 -0.650000
v 0.522000 0.238000 -0.774000
v 0.078000 -0.014000 -0.112000
v 0.186000 -0.016000 0.156000
v 0.078000 -0.014000 0.070000
v -0.166000 -0.014000 -0.186000
v -0.252000 -0.018000 0.034000
v -0.620000 0.590000 0.896000
v -0.566000 0.860000 -0.306000
v -0.548000 0.910000 -0.306000
v -0.514000 0.842000 -0.306000
v -0.496000 0.890000 -0.306000
v 0.200000 1.802000 -0.050000
v 0.164000 1.832000 -0.074000
v 0.152000 1.862000 -0.038000
v 0.162000 1.828000 -0.016000
v -0.196000 1.802000 -0.050000
v -0.160000 1.832000 -0.074000
v -0.150000 1.862000 -0.038000
v -0.158000 1.828000 -0.016000
v 0.182000 -0.014000 -0.180000
v 0.250000 -0.014000 0.044000
v -0.162000 0.642000 -0.158000
v -0.028000 0.666000 -0.108000
v -0.046000 0.612000 -0.118000
v -0.048000 0.572000 -0.014000
v -0.030000 0.694000 -0.010000
v -0.158000 0.650000 0.082000
v -0.158000 0.722000 0.086000
v -0.234000 0.676000 -0.072000
v -0.232000 0.600000 -0.082000
v -0.174000 0.680000 0.178000
v -0.134000 0.956000 -0.136000
v -0.020000 0.976000 -0.080000
v -0.198000 0.956000 -0.050000
v -0.130000 0.956000 0.058000
v -0.020000 0.976000 0.002000
v 0.028000 0.666000 -0.108000
v 0.020000 0.976000 -0.080000
v 0.134000 0.956000 -0.136000
v 0.160000 0.642000 -0.158000
v 0.232000 0.676000 -0.072000
v 0.200000 0.956000 -0.050000
v 0.158000 0.722000 0.086000
v 0.130000 0.956000 0.056000
v 0.020000 0.976000 0.002000
v 0.030000 0.694000 -0.010000
v 0.002000 0.742000 -0.282000
v -0.292000 0.780000 -0.206000
v 0.292000 0.780000 -0.206000
v -0.324000 0.816000 0.008000
v -0.184000 0.816000 0.194000
v -0.068000 0.958000 0.168000
v 0.324000 0.816000 0.008000
v 0.184000 0.816000 0.194000
v 0.068000 0.958000 0.168000
v -0.000000 1.664000 0.108000
v -0.088000 1.700000 0.000000
v -0.090000 1.700000 0.102000
v 0.084000 1.700000 0.000000
v 0.086000 1.700000 0.102000
v -0.114000 1.748000 -0.088000
v -0.058000 1.724000 -0.094000
v -0.048000 1.768000 -0.156000
v -0.000000 1.736000 0.208000
v 0.110000 1.748000 -0.088000
v 0.058000 1.724000 -0.094000
v 0.128000 1.720000 -0.034000
v -0.132000 1.720000 -0.034000
v 0.050000 1.768000 -0.156000
v 0.550000 1.320000 -0.042000
v 0.462000 1.204000 -0.140000
v 0.496000 1.248000 -0.046000
v 0.468000 1.208000 0.074000
v -0.552000 1.326000 -0.046000
v -0.494000 1.250000 -0.046000
v -0.462000 1.206000 -0.140000
v -0.468000 1.208000 0.074000
v -0.336000 1.410000 -0.152000
v -0.278000 1.458000 -0.156000
v -0.288000 1.388000 -0.048000
v -0.224000 1.370000 -0.050000
v -0.342000 1.418000 0.086000
v -0.282000 1.476000 0.058000
v -0.448000 1.274000 0.038000
v -0.396000 1.444000 0.048000
v -0.390000 1.238000 0.058000
v -0.320000 1.194000 -0.040000
v -0.442000 1.268000 -0.110000
v -0.384000 1.240000 -0.118000
v -0.384000 1.196000 0.074000
v -0.384000 1.192000 -0.140000
v -0.484000 1.300000 -0.040000
v -0.316000 1.122000 -0.046000
v 0.338000 1.408000 -0.152000
v 0.224000 1.368000 -0.050000
v 0.302000 1.388000 -0.048000
v 0.274000 1.448000 -0.140000
v 0.344000 1.416000 0.086000
v 0.396000 1.442000 0.048000
v 0.284000 1.476000 0.058000
v 0.448000 1.272000 0.038000
v 0.442000 1.266000 -0.110000
v 0.484000 1.298000 -0.040000
v 0.392000 1.236000 0.058000
v 0.322000 1.192000 -0.040000
v 0.384000 1.238000 -0.118000
v 0.378000 1.192000 0.068000
v 0.382000 1.188000 -0.140000
v 0.316000 1.120000 -0.046000
v 0.044000 0.612000 -0.120000
v 0.046000 0.572000 -0.016000
v 0.158000 0.650000 0.082000
v 0.232000 0.600000 -0.080000
v 0.174000 0.680000 0.178000
vn 0.8179 -0.0921 -0.5679
vn -0.4403 -0.0842 -0.8939
vn -0.2586 0.0339 -0.9654
vn 0.7868 -0.0776 -0.6123
vn 0.9554 -0.0347 0.2932
vn 0.7600 -0.1052 0.6413
vn -0.2354 -0.2728 0.9328
vn -0.4360 -0.1363 0.8896
vn -0.9950 -0.0718 -0.0691
vn -0.9845 0.1286 -0.1189
vn -0.0944 0.2947 -0.9509
vn -0.3015 0.2584 -0.9178
vn 0.7543 0.1370 -0.6421
vn 0.9189 0.0681 -0.3885
vn 0.9495 0.1018 0.2968
vn 0.7649 0.5025 0.4031
vn -0.0714 0.6255 0.7769
vn -0.1453 0.7736 0.6168
vn -0.8768 0.4804 -0.0196
vn -0.9879 0.1429 -0.0606
vn 0.1673 0.9135 0.3710
vn 0.5848 -0.7487 -0.3122
vn 0.8610 -0.3216 0.3941
vn -0.1450 -0.7498 0.6456
vn -0.3491 -0.6455 -0.6793
vn 0.3246 0.8093 -0.4896
vn 0.0056 0.2645 -0.9644
vn 0.0735 0.7932 0.6045
vn 0.3521 0.6193 -0.7017
vn -0.3530 0.6380 -0.6844
vn -0.8768 -0.1315 0.4626
vn -0.0921 0.3112 -0.9459
vn -0.9461 -0.0361 0.3217
vn 0.0557 -0.9736 -0.2212
vn 0.2489 -0.6143 -0.7487
vn -0.0100 -0.0791 -0.9968
vn 0.1396 -0.5094 0.8491
vn -0.0975 -0.6400 0.7622
vn -0.0801 0.3657 0.9273
vn 0.1976 0.6263 0.7541
vn -0.0338 0.9920 -0.1219
vn 0.1812 0.6843 -0.7064
vn 0.8371 -0.4895 -0.2441
vn 0.5300 0.3054 -0.7911
vn 0.6689 0.1728 -0.7230
vn 0.3687 0.8549 0.3650
vn -0.8484 -0.4617 -0.2588
vn -0.6101 0.3225 -0.7237
vn -0.3836 0.8581 0.3413
vn -0.6711 0.1768 -0.7200
vn 0.5837 0.3672 -0.7242
vn 0.6950 0.7189 -0.0085
vn -0.3966 -0.0406 0.9171
vn 0.5341 0.1958 0.8224
vn -0.5286 0.2217 0.8194
vn 0.5059 -0.1572 0.8482
vn -0.4905 0.3433 -0.8010
vn 0.8068 0.0437 0.5891
vn 0.4859 0.5640 0.6677
vn 0.8535 0.3981 0.3362
vn -0.5778 0.5808 0.5735
vn -0.8116 0.0647 0.5807
vn -0.6950 0.7189 -0.0085
vn -0.8375 0.4361 0.3291
vn -0.0454 -0.6040 0.7957
vn 0.5207 -0.3399 0.7832
vn -0.2085 -0.3032 0.9298
vn -0.0912 0.5849 0.8059
vn -0.1643 0.4715 0.8664
vn 0.5618 0.3788 0.7354
vn -0.0983 0.4526 -0.8863
vn -0.0498 0.3252 -0.9443
vn 0.5448 0.3832 -0.7459
vn -0.1254 -0.3164 -0.9403
vn -0.0738 -0.3737 -0.9246
vn 0.5076 -0.3073 -0.8050
vn 0.1936 -0.4291 0.8823
vn 0.2439 0.4563 0.8557
vn 0.2320 0.3416 -0.9108
vn 0.0264 -0.9881 -0.1517
vn 0.2185 -0.4743 -0.8528
vn -0.5678 0.8155 0.1119
vn -0.6316 0.7753 -0.0112
vn -0.4306 0.8558 0.2867
vn -0.5692 0.5913 -0.5712
vn -0.0029 0.4314 -0.9021
vn -0.6987 0.5081 0.5037
vn -0.2785 0.8097 0.5166
vn 0.6150 0.7885 -0.0041
vn 0.5412 0.8297 0.1365
vn 0.3972 0.8734 0.2819
vn 0.5675 0.6033 -0.5603
vn 0.6704 0.5452 0.5033
vn 0.2494 0.8230 0.5104
vn 0.3522 0.6194 -0.7017
vn 0.2303 0.9731 -0.0071
vn 0.2723 0.6850 0.6757
vn 0.0967 -0.5452 0.8327
vn -0.0259 -0.9871 -0.1580
vn -0.0611 -0.9713 -0.2301
vn -0.2598 -0.5468 0.7959
vn 0.0171 -0.0786 -0.9968
vn -0.2105 -0.4851 -0.8488
vn 0.0436 0.9914 -0.1230
vn -0.2276 0.3365 -0.9138
vn 0.0552 0.4463 0.8932
vn -0.1842 0.3810 0.9060
vn -0.3531 0.6379 -0.6844
vn -0.2313 0.9729 -0.0071
vn -0.2731 0.6849 0.6756
vn -0.8179 -0.0921 -0.5679
vn 0.2585 0.0339 -0.9654
vn 0.4403 -0.0842 -0.8939
vn -0.7868 -0.0776 -0.6123
vn -0.9554 -0.0347 0.2932
vn -0.7601 -0.1052 0.6413
vn 0.2353 -0.2728 0.9328
vn 0.4360 -0.1363 0.8896
vn 0.9950 -0.0718 -0.0691
vn 0.9845 0.1285 -0.1189
vn -0.0051 0.2460 0.9693
vn -0.4263 0.4285 -0.7967
vn -0.7350 0.0489 -0.6763
vn -0.0005 0.3097 -0.9508
vn 0.1102 -0.3265 0.9387
vn -0.6432 0.1362 0.7535
vn -0.6452 0.3985 0.6518
vn -0.0000 0.1406 0.9901
vn -0.9013 0.4292 -0.0593
vn -0.9950 -0.0966 -0.0245
vn 0.4330 0.4324 -0.7910
vn -0.0987 -0.5683 0.8169
vn 0.6409 0.1327 0.7561
vn 0.6452 0.3985 0.6518
vn 0.9029 0.4268 -0.0505
vn 0.7263 0.0423 -0.6861
vn 0.9927 -0.1200 -0.0130
vn -0.4406 -0.8958 0.0582
vn -0.4651 -0.8850 0.0201
vn 0.0012 -0.9620 -0.2732
vn 0.2580 -0.7514 0.6073
vn 0.4440 -0.8921 0.0840
vn 0.4652 -0.8851 0.0146
vn -0.2585 -0.7522 0.6061
vn -0.6780 -0.3233 -0.6602
vn -0.7210 -0.6909 -0.0539
vn -0.3914 -0.1313 -0.9108
vn 0.6578 -0.2393 -0.7142
vn 0.3535 -0.1161 -0.9282
vn 0.7136 -0.6970 -0.0705
vn 0.5978 0.7340 -0.3223
vn 0.9761 -0.2020 -0.0798
vn -0.9464 -0.0248 -0.3220
vn 0.5549 -0.7835 -0.2796
vn -0.2794 0.9138 -0.2948
vn 0.1497 0.8533 -0.4995
vn -0.0916 0.9576 0.2730
vn -0.2699 -0.9165 -0.2952
vn -0.0731 -0.9645 0.2537
vn 0.1756 -0.8467 -0.5024
vn 0.8703 -0.0056 0.4924
vn 0.5347 -0.8211 0.1997
vn 0.5359 0.8151 0.2200
vn -0.0254 -0.0193 0.9995
vn 0.0059 0.0557 0.9984
vn 0.0038 0.9534 0.3015
vn -0.0122 0.9387 0.3444
vn -0.0000 1.0000 0.0007
vn 0.5452 0.8362 -0.0590
vn 0.3362 0.8032 -0.4917
vn -0.3362 0.8032 -0.4917
vn -0.5453 0.8362 -0.0590
vn -0.2151 0.9237 0.3169
vn 0.2151 0.9237 0.3169
vn -0.1979 -0.2244 -0.9542
vn -0.5727 0.6835 -0.4526
vn 0.9622 -0.2473 -0.1138
vn -0.9263 0.3766 0.0120
vn 0.1004 0.3954 0.9130
vn 0.5716 0.6817 -0.4566
vn 0.1984 -0.2295 -0.9529
vn -0.9617 -0.2492 -0.1143
vn 0.9257 0.3781 0.0120
vn -0.1009 0.4006 0.9107
vn 0.7539 -0.3459 0.5586
vn -0.0015 -0.2124 0.9772
vn 0.0037 -0.1998 -0.9798
vn -0.7736 -0.3410 0.5341
vn -0.0214 -0.6555 0.7549
vn -0.2299 0.6400 0.7332
vn -0.2397 0.7005 -0.6722
vn -0.1678 -0.7971 -0.5801
vn 0.0120 -0.5432 -0.8395
vn 0.2184 0.5492 -0.8066
vn 0.8638 -0.2449 -0.4403
vn -0.0155 0.7637 0.6454
vn -0.0805 -0.6662 0.7415
vn 0.7991 -0.2336 0.5540
vn 0.0056 0.2644 -0.9644
vn 0.3331 -0.0620 0.9409
vn -0.3431 -0.0656 0.9370
vn -0.9561 0.2863 -0.0627
vn 0.9577 0.2800 -0.0659
vn -0.1814 0.4936 -0.8506
vn -0.0999 -0.1995 -0.9748
vn -0.0126 0.6189 0.7853
vn 0.0168 0.7303 0.6829
vn -0.2417 0.9689 -0.0527
vn -0.0653 0.9956 -0.0666
vn 0.0245 0.6343 -0.7727
vn 0.0126 0.6186 0.7856
vn 0.1418 0.4768 -0.8675
vn 0.0637 -0.2020 -0.9773
vn 0.2419 0.9685 -0.0586
vn -0.0198 0.7305 0.6827
vn 0.0653 0.9956 -0.0667
vn -0.0244 0.6343 -0.7727
vn 0.0944 0.2947 -0.9509
vn -0.7543 0.1369 -0.6421
vn 0.3015 0.2583 -0.9178
vn -0.9189 0.0681 -0.3885
vn -0.9495 0.1018 0.2967
vn -0.7649 0.5024 0.4031
vn 0.0714 0.6255 0.7769
vn 0.1453 0.7736 0.6168
vn 0.8768 0.4804 -0.0195
vn 0.9879 0.1429 -0.0606
vn -0.1672 0.9134 0.3710
vn -0.5008 0.7027 -0.5054
vn -0.7708 -0.6363 -0.0326
vn 0.4384 -0.7817 -0.4436
vn -0.5848 -0.7487 -0.3123
vn 0.1450 -0.7498 0.6456
vn -0.8610 -0.3216 0.3940
vn -0.1867 -0.7672 -0.6136
vn -0.8166 -0.5669 0.1086
vn -0.9921 -0.0179 -0.1241
vn -0.5773 0.5773 -0.5774
vn 0.5774 0.5773 -0.5774
vn -0.5773 -0.5773 -0.5774
vn 0.5773 -0.5773 -0.5774
vn 0.5836 -0.8092 -0.0679
vn -0.0962 -0.0049 -0.9954
vn -0.4953 0.8666 0.0603
vn 0.1244 0.1242 0.9844
vn -0.5836 -0.8092 -0.0679
vn 0.0962 -0.0049 -0.9954
vn 0.4953 0.8666 0.0603
vn -0.1243 0.1242 0.9844
vn 0.1868 -0.7672 -0.6136
vn 0.8166 -0.5668 0.1087
vn -0.2586 0.0340 -0.9654
vn 0.8211 -0.0464 -0.5689
vn 0.7868 -0.0777 -0.6123
vn 0.8855 -0.0762 0.4583
vn -0.0613 0.6311 0.7733
vn -0.2530 0.0464 0.9664
vn -0.9898 0.0613 -0.1289
vn 0.1672 0.9134 0.3711
vn -0.0082 -0.9634 -0.2678
vn 0.5310 -0.8462 -0.0442
vn -0.3232 -0.8853 0.3344
vn 0.5098 -0.8589 0.0479
vn 0.4578 -0.8392 0.2936
vn -0.8211 -0.0464 -0.5689
vn -0.7715 -0.6128 -0.1711
vn 0.0043 -0.9954 -0.0954
vn 0.2586 0.0340 -0.9654
vn 0.9896 0.0590 -0.1313
vn 0.3166 -0.8876 0.3345
vn 0.2522 0.0449 0.9666
vn -0.5108 -0.8584 0.0475
vn -0.4529 -0.8338 0.3156
vn -0.8854 -0.0764 0.4585
vn 0.0013 -0.9620 -0.2731
vn -0.4651 -0.8851 0.0200
vn 0.1100 -0.3264 0.9388
vn 0.4651 -0.8851 0.0146
vn -0.2586 -0.7522 0.6061
vn -0.0987 -0.5684 0.8168
vn -0.0122 0.9387 0.3445
vn -0.8376 0.4359 0.3291
vn -0.2786 0.8096 0.5166
vn 0.8536 0.3979 0.3361
vn 0.2494 0.8229 0.5105
vn -0.5679 0.8155 0.1119
vn -0.6102 0.3225 -0.7236
vn 0.0039 0.9534 0.3015
vn 0.5413 0.8297 0.1366
vn 0.3687 0.8549 0.3649
vn 0.3973 0.8733 0.2818
vn -0.4308 0.8557 0.2866
vn 0.5300 0.3055 -0.7911
vn -0.9560 0.2865 -0.0627
vn -0.2275 0.3365 -0.9138
vn -0.5906 0.8027 -0.0831
vn -0.1840 0.3809 0.9061
vn 0.9577 0.2801 -0.0659
vn 0.5897 0.8040 -0.0767
vn 0.2319 0.3416 -0.9108
vn -0.0999 -0.1994 -0.9748
vn -0.3913 -0.1313 -0.9108
vn -0.7208 -0.6910 -0.0540
vn -0.0657 -0.9966 -0.0503
vn 0.0090 -0.1901 0.9817
vn -0.3430 -0.0656 0.9370
vn 0.0169 0.7303 0.6829
vn -0.0127 0.6189 0.7854
vn 0.2085 -0.3296 0.9208
vn 0.3304 -0.9433 -0.0305
vn 0.0244 0.6343 -0.7727
vn 0.1726 -0.3366 -0.9257
vn 0.1936 -0.4292 0.8822
vn 0.2185 -0.4744 -0.8528
vn -0.0652 0.9956 -0.0667
vn 0.0264 -0.9881 -0.1516
vn 0.0638 -0.2018 -0.9773
vn 0.0630 -0.9967 -0.0503
vn 0.3535 -0.1162 -0.9282
vn -0.0107 -0.1891 0.9819
vn 0.3330 -0.0620 0.9409
vn -0.0199 0.7306 0.6826
vn -0.2068 -0.3409 0.9171
vn -0.3433 -0.9384 -0.0394
vn -0.1673 -0.3418 -0.9248
vn -0.2598 -0.5469 0.7959
vn -0.2105 -0.4852 -0.8487
vn -0.0260 -0.9871 -0.1579
vn -0.7868 -0.0777 -0.6123
vn 0.0613 0.6311 0.7733
vn 0.9845 0.1286 -0.1189
vn -0.1672 0.9134 0.3711
vt 0.500000 0.789070
vt 0.656250 0.792960
vt 0.652350 1.000000
vt 0.652340 1.000000
vt 0.500000 1.000000
vt 0.562500 0.753910
vt 0.542970 1.000000
vt 0.500000 0.753910
vt 0.742180 0.789070
vt 0.742180 0.984370
vt 0.640630 0.984370
vt 0.621100 0.792960
vt 0.640620 0.984370
vt 0.500000 0.984370
vt 0.742180 1.000000
vt 0.796880 0.882820
vt 0.812500 1.000000
vt 0.871090 0.992180
vt 0.871090 0.882820
vt 0.873050 0.882820
vt 0.873050 0.992180
vt 0.873050 1.000000
vt 0.871090 1.000000
vt 0.816410 0.992180
vt 0.750000 0.882820
vt 0.816400 0.992180
vt 0.781250 1.000000
vt 0.648440 0.753910
vt 0.500000 0.789060
vt 0.648430 0.753910
vt 0.539070 0.753910
vt 0.539060 0.753910
vt 0.523440 0.785150
vt 0.621100 0.753910
vt 0.703130 0.753910
vt 0.742180 0.789060
vt 0.527350 0.753910
vt 0.621090 0.753910
vt 0.621090 0.792960
vt 0.707040 0.753910
vt 0.707030 0.753910
vt 0.648440 1.000000
vt 0.636720 0.753910
vt 0.742180 0.753910
vt 0.648430 1.000000
vt 0.835940 0.753910
vt 0.871090 0.917960
vt 0.746090 0.753910
vt 0.746090 0.839840
vt 0.500000 0.875000
vt 0.500000 0.757820
vt 0.746090 0.757820
vt 0.511720 0.925780
vt 0.734380 1.000000
vt 0.187493 0.745117
vt 0.187500 0.613396
vt 0.308600 0.746090
vt 0.433590 0.746090
vt 0.433590 0.617190
vt 0.312500 0.640620
vt 0.187500 0.613290
vt 0.687500 0.960930
vt 0.675790 1.000000
vt 0.574220 0.957040
vt 0.976560 0.902340
vt 0.894540 0.902340
vt 0.925790 0.878910
vt 0.574220 1.000000
vt 0.562500 0.964840
vt 0.593750 0.960940
vt 0.703120 0.960940
vt 0.703130 0.960940
vt 0.746090 1.000000
vt 0.605470 0.789060
vt 0.695320 0.757820
vt 0.710930 0.789060
vt 0.542970 0.808590
vt 0.640630 0.757820
vt 0.687500 0.812500
vt 0.539070 0.792960
vt 0.605460 0.789060
vt 0.675780 1.000000
vt 0.507820 0.839840
vt 0.562500 0.785160
vt 0.507820 0.898430
vt 0.550790 0.781250
vt 0.562500 0.785150
vt 0.734370 0.839840
vt 0.683600 0.785150
vt 0.695320 0.781250
vt 0.734370 0.898430
vt 0.683600 0.785160
vt 0.507820 0.898440
vt 0.562500 0.941400
vt 0.507820 0.929680
vt 0.089850 0.812500
vt 0.183590 0.902340
vt 0.058600 0.902340
vt 0.152350 0.812500
vt 0.683590 0.941400
vt 0.683590 0.785160
vt 0.246090 0.902350
vt 0.179690 0.957030
vt 0.183600 0.902350
vt 0.246090 0.937500
vt 0.246090 0.753910
vt 0.183600 0.902340
vt 0.246090 0.902340
vt 0.062500 0.957030
vt 0.000000 0.902350
vt 0.058600 0.902350
vt 0.000000 0.937500
vt 0.000000 0.753910
vt 0.089840 0.812500
vt 0.058590 0.902340
vt 0.000000 0.902340
vt 0.683600 0.941400
vt 0.734370 0.898440
vt 0.734370 0.929680
vt 0.179680 0.957030
vt 0.183590 0.902350
vt 0.964840 0.753910
vt 0.906250 0.785150
vt 0.941410 0.785150
vt 0.875000 0.765620
vt 0.972650 0.875000
vt 0.941410 0.785160
vt 0.941410 0.828120
vt 0.964850 0.753910
vt 0.875000 0.859370
vt 0.941400 0.828130
vt 0.906250 0.828130
vt 0.941410 0.828130
vt 0.875000 0.765630
vt 0.906250 0.828120
vt 0.875000 0.863280
vt 0.937500 0.843750
vt 0.902350 0.843750
vt 0.937500 0.812500
vt 0.964850 0.781250
vt 0.964840 0.781250
vt 0.902350 0.812500
vt 0.878910 0.789060
vt 0.902340 0.843750
vt 0.878910 0.789070
vt 0.902340 0.812500
vt 0.703120 0.960930
vt 0.593750 0.960930
vt 0.703130 0.960930
vt 0.738280 0.753910
vt 0.710940 0.789070
vt 0.605470 0.789070
vt 0.605460 0.789070
vt 0.574220 0.957030
vt 0.628910 0.753910
vt 0.562500 1.000000
vt 0.609380 0.769540
vt 0.617180 1.000000
vt 0.609370 0.769540
vt 0.500000 0.769540
vt 0.746090 0.890620
vt 0.664070 1.000000
vt 0.625000 0.863290
vt 0.617190 1.000000
vt 0.746090 0.769540
vt 0.621100 0.769540
vt 0.671870 1.000000
vt 0.613290 1.000000
vt 0.671880 1.000000
vt 0.582040 1.000000
vt 0.500000 0.894530
vt 0.613280 1.000000
vt 0.621090 0.769540
vt 0.609370 0.753910
vt 0.609370 0.894530
vt 0.609370 0.757820
vt 0.500000 0.765620
vt 0.609380 0.757820
vt 0.742180 0.757820
vt 0.742180 0.894530
vt 0.609380 0.894530
vt 0.609380 0.753910
vt 0.746090 0.839850
vt 0.640630 0.925780
vt 0.625000 0.863280
vt 0.652350 0.960930
vt 0.683600 0.964840
vt 0.671870 0.957030
vt 0.613290 0.753910
vt 0.558600 0.964840
vt 0.636720 0.785160
vt 0.703130 0.789060
vt 0.535160 0.789060
vt 0.636710 0.785160
vt 0.652340 0.960930
vt 0.503910 0.753910
vt 0.539070 0.960930
vt 0.609370 1.000000
vt 0.500000 0.996090
vt 0.609370 0.863290
vt 0.500000 0.863290
vt 0.742180 0.863290
vt 0.609380 1.000000
vt 0.609380 0.863290
vt 0.605470 1.000000
vt 0.734370 1.000000
vt 0.589850 1.000000
vt 0.589850 0.792960
vt 0.675790 0.753910
vt 0.703130 1.000000
vt 0.601560 0.984370
vt 0.617180 0.792960
vt 0.601570 0.984370
vt 0.617190 0.792960
vt 0.589840 1.000000
vt 0.589840 0.792960
vt 0.574220 0.964840
vt 0.500000 0.914060
vt 0.585940 0.964840
vt 0.523440 0.753910
vt 0.628900 0.753910
vt 0.855460 0.925790
vt 0.843750 1.000000
vt 0.871090 0.894540
vt 0.796880 1.000000
vt 0.804690 0.906250
vt 0.859370 0.898440
vt 0.820320 1.000000
vt 0.757820 0.925780
vt 0.859370 0.992180
vt 0.750000 0.906250
vt 0.804680 0.906250
vt 0.796870 1.000000
vt 0.750000 1.000000
vt 0.765630 0.925790
vt 0.871090 0.910160
vt 0.789070 1.000000
vt 0.871090 0.910150
vt 0.757820 0.898440
vt 0.757820 0.992180
vt 0.863280 0.921870
vt 0.750000 0.898440
vt 0.789060 1.000000
vt 0.871090 0.906250
vt 0.859370 0.898430
vt 0.750000 0.753910
vt 0.808600 0.753910
vt 0.871090 0.765620
vt 0.855470 0.925780
vt 0.871090 0.753910
vt 0.859380 0.898430
vt 0.871090 0.894530
vt 0.757820 0.898430
vt 0.863290 0.921870
vt 0.750000 0.898430
vt 0.855460 0.925780
vt 0.765630 0.925780
vt 0.808590 0.753910
vt 0.750000 0.765620
vt 0.777350 1.000000
vt 0.507820 0.968750
vt 0.742180 0.968750
vt 0.632820 1.000000
vt 0.542970 0.808600
vt 0.894540 0.902350
vt 0.976570 0.902350
vt 0.996090 0.964840
vt 0.875000 0.968750
vt 0.109380 0.617180
vt 0.117190 0.546880
vt 0.183590 0.601560
vt 0.117190 0.621090
vt 0.062500 0.644530
vt 0.082030 0.632820
vt 0.062500 0.679680
vt 0.089840 0.636720
vt 0.156250 0.687500
vt 0.148440 0.750000
vt 0.144540 0.687500
vt 0.152340 0.589840
vt 0.148440 0.589840
vt 0.152340 0.503910
vt 0.437500 0.695320
vt 0.492180 0.730460
vt 0.437500 0.730460
vt 0.007820 0.656250
vt 0.023440 0.750000
vt 0.058590 0.656250
vt 0.000000 0.656250
vt 0.023430 0.750000
vt 0.050780 0.656250
vt 0.050790 0.656250
vt 0.664060 1.000000
vt 0.738280 0.886710
vt 0.742180 0.886710
vt 0.738290 0.886720
vt 0.738290 1.000000
vt 0.742180 0.886720
vt 0.515630 0.753910
vt 0.550780 0.781250
vt 0.734370 0.757820
vt 0.500000 0.882810
vt 0.515620 0.753910
vt 0.734380 0.757820
vt 0.746090 0.882810
vt 0.734380 0.839840
vt 0.121090 0.753910
vt 0.121100 0.753910
vt 0.117180 0.992180
vt 0.000000 1.000000
vt 0.070320 0.968750
vt 0.117190 0.992180
vt 0.164060 0.968750
vt 0.164070 0.968750
vt 0.242180 1.000000
vt 0.121090 1.000000
vt 0.089850 0.980470
vt 0.121100 1.000000
vt 0.152340 0.980470
vt 0.152350 0.980470
vt 0.246090 1.000000
vt 0.152340 0.812500
vt 0.464850 0.574210
vt 0.460940 0.750000
vt 0.496090 0.566410
vt 0.437500 0.574220
vt 0.464840 0.574220
vt 0.460930 0.574220
vt 0.460930 0.750000
vt 0.460940 0.574210
vt 0.468750 0.750000
vt 0.437500 0.570320
vt 0.496090 0.574220
vt 0.464850 0.574220
vt 0.468750 0.574220
vt 0.468750 0.574210
vt 0.710930 0.753910
vt 0.710940 0.753910
vt 0.636710 0.753910
vt 0.500000 0.933590
vt 0.746090 0.835930
vt 0.621100 1.000000
vt 0.625000 0.753910
vt 0.371100 0.753910
vt 0.496090 0.753910
vt 0.496090 0.835930
vt 0.562500 0.757820
vt 0.625000 0.855460
vt 0.515630 0.867180
vt 0.562500 0.757810
vt 0.542970 0.753910
vt 0.742180 0.933590
vt 0.718750 0.753910
vt 0.500000 0.835930
vt 0.250000 0.753910
vt 0.371090 0.753910
vt 0.250000 0.835930
vt 0.683590 0.757810
vt 0.683600 0.757820
vt 0.726560 0.867180
vt 0.667960 1.000000
vt 0.539070 0.960940
vt 0.652350 0.960940
vt 0.636710 0.785150
vt 0.699210 0.804680
vt 0.550790 0.804680
vt 0.597660 0.753910
vt 0.679690 0.753910
vt 0.703120 0.789060
vt 0.636720 0.785150
vt 0.566410 1.000000
vt 0.671880 0.957040
vt 0.671870 0.957040
vt 0.894540 0.910150
vt 0.945320 0.890630
vt 0.976560 0.914060
vt 0.683590 0.964840
vt 0.667970 1.000000
vt 0.949220 0.781250
vt 0.960940 0.875000
vt 0.996090 0.804680
vt 0.957040 0.875000
vt 0.945320 0.753910
vt 0.996090 0.789060
vt 0.738280 0.941400
vt 0.500000 0.941400
vt 0.550790 0.804690
vt 0.699220 0.804690
vt 0.875000 0.960930
vt 0.894540 0.910160
vt 0.976570 0.914070
vt 0.996090 0.960930
vt 0.875000 0.855460
vt 0.960930 0.875000
vt 0.949210 0.781250
vt 0.875000 0.789060
vt 0.875000 0.847650
vt 0.945310 0.753910
vt 0.957030 0.875000
vt 0.515630 0.910160
vt 0.625000 0.992180
vt 0.515630 0.910150
vt 0.625000 0.855470
vt 0.734370 0.917960
vt 0.734380 0.917970
vt 0.500000 0.933600
vt 0.632810 1.000000
vt 0.511720 1.000000
vt 0.742180 0.933600
vt 0.730470 1.000000
vt 0.425790 1.000000
vt 0.371100 0.925790
vt 0.496090 1.000000
vt 0.371100 0.925780
vt 0.496090 0.910160
vt 0.496090 0.910150
vt 0.726560 0.753910
vt 0.671880 0.957030
vt 0.628910 1.000000
vt 0.726570 0.867180
vt 0.320320 1.000000
vt 0.250000 1.000000
vt 0.371090 0.925790
vt 0.371090 0.925780
vt 0.250000 0.910160
vt 0.250000 0.910150
vt 0.605460 1.000000
vt 0.789060 0.925790
vt 0.789060 0.925780
vt 0.761720 0.910160
vt 0.871090 0.929690
vt 0.859380 1.000000
vt 0.871090 0.757820
vt 0.871090 0.929680
vt 0.835940 0.863280
vt 0.839850 0.781250
vt 0.792960 0.757820
vt 0.789070 0.925780
vt 0.761720 0.910150
vt 0.792970 0.757820
vt 0.835930 0.863280
vt 0.839840 0.781250
vt 0.742180 0.863280
vt 0.609380 0.863280
vt 0.617190 0.753910
vt 0.500000 0.863280
vt 0.617180 0.753910
vt 0.835940 0.863290
vt 0.835930 0.863290
vt 0.750000 0.992180
vt 0.761710 0.996090
vt 0.750000 0.921880
vt 0.835940 0.921870
vt 0.859380 0.902350
vt 0.835940 0.921880
vt 0.839850 0.992180
vt 0.742180 0.894540
vt 0.609380 0.894540
vt 0.500000 0.894540
vt 0.750000 0.921870
vt 0.785150 0.859380
vt 0.785160 0.859380
vt 0.839840 0.992180
vt 0.750000 0.757820
vt 0.781250 0.777340
vt 0.785150 0.859370
vt 0.824220 0.757820
vt 0.859370 0.902340
vt 0.785160 0.859370
vt 0.835930 0.921870
vt 0.824210 0.757820
vt 0.820310 0.886720
vt 0.804690 1.000000
vt 0.750000 0.886720
vt 0.751950 0.886720
vt 0.751950 1.000000
vt 0.804680 1.000000
vt 0.824210 0.886720
vt 0.871090 0.886720
vt 0.824220 0.886720
vt 0.839850 1.000000
vt 0.820320 0.886720
vt 0.593750 0.753910
vt 0.695320 0.753910
vt 0.699220 0.753910
vt 0.714850 0.785150
vt 0.531250 0.753910
vt 0.601560 0.753910
vt 0.601570 0.753910
vt 0.310984 0.502380
vt 0.433590 0.502380
vt 0.310974 0.502380
vt 0.191410 0.502380
vt 0.792960 0.753910
vt 0.796880 0.882810
vt 0.871090 0.765630
vt 0.796880 0.765630
vt 0.871090 0.882810
vt 0.873050 0.882810
vt 0.873050 0.765630
vt 0.796880 0.757820
vt 0.796870 0.882810
vt 0.796870 0.757820
vt 0.750000 0.882810
vt 0.750000 0.765630
vt 0.796870 0.765630
vt 0.835930 0.753910
vt 0.750000 0.933590
vt 0.109380 0.617190
vt 0.167960 0.707030
vt 0.082040 0.632810
vt 0.183590 0.601570
vt 0.167970 0.707030
vt 0.117190 0.621100
vt 0.089850 0.636710
vt 0.082040 0.632820
vt 0.164070 0.750000
vt 0.062500 0.679690
vt 0.089850 0.636720
vt 0.148440 0.640620
vt 0.156250 0.625000
vt 0.160150 0.640620
vt 0.148440 0.625000
vt 0.152350 0.589850
vt 0.148440 0.589850
vt 0.152340 0.589850
vt 0.492180 0.503910
vt 0.437500 0.695310
vt 0.437500 0.507810
vt 0.437500 0.507820
vt 0.492180 0.695310
vt 0.492180 0.507820
vt 0.437500 0.503910
vt 0.875000 0.878910
vt 0.992180 1.000000
vt 0.875000 1.000000
vt 0.992180 0.878910
vt 0.437500 0.750000
vt 0.437500 0.519530
vt 0.492180 0.750000
vt 0.488280 0.523440
vt 0.437500 0.523440
vt 0.488280 0.750000
vt 0.437500 0.519540
vt 0.445320 0.507820
vt 0.496090 0.750000
vt 0.496090 0.507820
vt 0.445320 0.750000
vt 0.000000 0.750000
vt 0.054680 0.656250
vt 0.054680 0.750000
vt 0.507820 1.000000
vt 0.507820 0.929690
vt 0.562500 0.941410
vt 0.585930 0.984370
vt 0.683590 0.941410
vt 0.585940 0.984370
vt 0.656250 0.984370
vt 0.152350 0.980460
vt 0.437500 0.710930
vt 0.476560 0.585940
vt 0.476560 0.667960
vt 0.437500 0.589840
vt 0.476570 0.667960
vt 0.496090 0.578130
vt 0.496090 0.652340
vt 0.476570 0.585930
vt 0.437500 0.671870
vt 0.468750 0.589850
vt 0.468750 0.687500
vt 0.468750 0.589840
vt 0.496090 0.589850
vt 0.496090 0.746090
vt 0.476560 0.667970
vt 0.476560 0.750000
vt 0.476570 0.750000
vt 0.496090 0.652350
vt 0.441410 0.750000
vt 0.437500 0.671880
vt 0.496090 0.746100
vt 0.734370 0.929690
vt 0.683600 0.941410
vt 0.089840 0.980460
vt 0.457040 0.582040
vt 0.496090 0.710930
vt 0.457040 0.667960
vt 0.496090 0.585930
vt 0.437500 0.578130
vt 0.457030 0.667960
vt 0.437500 0.652340
vt 0.457030 0.582030
vt 0.464850 0.589850
vt 0.464850 0.667960
vt 0.464850 0.589840
vt 0.496090 0.582040
vt 0.437500 0.589850
vt 0.464840 0.667960
vt 0.464840 0.589850
vt 0.457040 0.667970
vt 0.457040 0.750000
vt 0.437500 0.652350
vt 0.457030 0.750000
vt 0.464850 0.667970
vt 0.464850 0.750000
vt 0.437500 0.710940
vt 0.464840 0.750000
vt 0.464840 0.667970
vt 0.062500 0.957040
vt 0.152340 0.980460
vt 0.089850 0.980460
vt 0.179680 0.957040
vt 0.875000 0.929680
vt 0.996090 0.878910
vt 0.996090 0.921870
vt 0.875000 0.929690
vt 0.996090 1.000000
vt 0.996090 0.921880
vt 0.820310 0.886710
vt 0.820310 0.765630
vt 0.750000 0.886710
vt 0.751950 0.765630
vt 0.751950 0.886710
vt 0.824210 0.886710
vt 0.824220 0.886710
vt 0.871090 0.886710
vt 0.871090 0.890620
vt 0.851570 0.941400
vt 0.873050 0.753910
vt 0.873050 0.890620
vt 0.792970 0.753910
vt 0.513115 0.733243
s 1
usemtl General1
f 1/1/1 2/2/2 3/3/3
f 3/4/3 4/5/4 1/1/1
f 1/6/1 4/7/4 5/5/5
f 1/6/1 5/5/5 6/8/6
f 6/9/6 5/10/5 7/11/7
f 6/9/6 7/11/7 8/12/8
f 9/1/9 8/12/8 7/13/7
f 7/13/7 10/14/10 9/1/9
f 9/9/9 10/15/10 3/3/3
f 9/9/9 3/3/3 2/2/2
f 11/16/11 12/17/12 13/18/13
f 11/16/11 13/18/13 14/19/14
f 14/20/14 13/21/13 15/22/15
f 14/20/14 15/22/15 16/20/16
f 16/19/16 15/23/15 17/24/17
f 16/19/16 17/24/17 18/16/18
f 19/25/19 18/16/18 17/26/17
f 17/26/17 20/27/20 19/25/19
f 19/25/19 20/27/20 12/17/12
f 19/25/19 12/17/12 11/16/11
f 12/28/12 2/2/2 1/29/1
f 12/30/12 1/29/1 13/31/13
f 15/32/15 13/32/13 1/29/1
f 1/29/1 6/33/6 15/32/15
f 17/34/17 15/35/15 6/36/6
f 6/36/6 8/12/8 17/34/17
f 20/37/20 17/38/17 8/39/8
f 8/39/8 9/29/9 20/37/20
f 20/40/20 9/36/9 2/2/2
f 20/41/20 2/2/2 12/28/12
f 21/42/21 7/43/7 5/44/5
f 10/8/10 7/43/7 21/45/21
f 22/46/22 23/47/23 24/17/24
f 25/8/25 26/48/26 27/49/27
f 27/50/27 26/51/26 28/52/28
f 25/8/25 27/49/27 29/53/29
f 27/50/27 28/52/28 30/54/30
f 25/55/25 32/56/31 26/57/26
f 28/58/28 26/57/26 31/59/32
f 31/59/32 26/57/26 33/60/33
f 33/60/33 26/57/26 32/61/31
f 34/62/34 35/63/35 36/64/36
f 37/65/37 35/66/35 34/67/34
f 37/68/37 34/69/34 38/70/38
f 39/71/39 37/68/37 38/70/38
f 37/68/37 39/72/39 40/73/40
f 41/74/41 40/75/40 39/76/39
f 40/77/40 41/78/41 42/79/42
f 36/80/36 42/6/42 41/81/41
f 42/5/42 36/64/36 35/82/35
f 43/83/43 44/84/44 45/85/45
f 43/83/43 46/86/46 44/87/44
f 47/88/47 48/89/48 49/90/49
f 50/91/50 48/92/48 47/88/47
f 45/93/45 51/94/51 52/95/52
f 51/94/51 45/85/45 44/84/44
f 53/96/53 54/97/54 55/98/55
f 53/96/53 56/99/56 54/97/54
f 44/84/44 57/100/57 51/94/51
f 44/84/44 48/101/48 57/100/57
f 58/102/58 59/103/59 54/104/54
f 59/103/59 58/102/58 52/105/52
f 60/106/60 54/107/54 56/99/56
f 54/107/54 60/106/60 58/108/58
f 61/109/61 62/110/62 55/111/55
f 62/110/62 61/109/61 63/112/63
f 55/98/55 64/113/64 53/114/53
f 64/113/64 55/115/55 62/116/62
f 57/117/57 50/118/50 63/119/63
f 50/91/50 57/117/57 48/92/48
f 55/111/55 59/120/59 61/109/61
f 59/103/59 55/111/55 54/121/54
f 65/122/65 66/123/66 67/124/67
f 65/122/65 37/125/37 66/123/66
f 68/126/68 67/127/67 69/128/69
f 68/126/68 65/129/65 67/124/67
f 40/130/40 69/131/69 70/132/70
f 40/130/40 68/126/68 69/133/69
f 37/134/37 70/135/70 66/123/66
f 37/134/37 40/130/40 70/135/70
f 42/136/42 71/137/71 72/126/72
f 71/137/71 42/136/42 73/138/73
f 72/126/72 74/139/74 75/140/75
f 74/139/74 72/126/72 71/137/71
f 75/141/75 76/142/76 35/143/35
f 76/142/76 75/141/75 74/139/74
f 73/144/73 35/145/35 76/146/76
f 73/144/73 42/136/42 35/145/35
f 77/34/77 39/147/39 38/148/38
f 39/149/39 77/34/77 78/150/78
f 39/151/39 78/15/78 41/152/41
f 36/80/36 41/153/41 79/5/79
f 36/154/36 80/44/80 34/62/34
f 36/154/36 81/155/81 80/44/80
f 80/8/80 38/148/38 34/69/34
f 38/148/38 80/8/80 77/38/77
f 82/156/82 83/157/83 84/158/84
f 83/159/83 82/156/82 85/160/85
f 48/5/48 85/160/85 82/156/82
f 85/161/85 48/162/48 86/163/86
f 84/164/84 87/165/87 88/73/88
f 87/165/87 84/164/84 83/157/83
f 89/166/89 90/167/90 91/168/91
f 90/169/90 89/166/89 92/165/92
f 92/165/92 44/73/44 90/169/90
f 44/170/44 92/171/92 86/163/86
f 93/160/93 91/172/91 94/5/94
f 91/168/91 93/160/93 89/173/89
f 29/171/95 89/174/89 95/175/96
f 89/176/89 29/5/95 92/177/92
f 96/15/97 89/178/89 93/179/93
f 96/180/97 95/181/96 89/182/89
f 27/183/27 92/184/92 29/53/95
f 92/171/92 27/34/27 86/185/86
f 97/186/98 98/48/99 99/187/100
f 98/48/99 97/186/98 100/155/101
f 101/188/102 98/8/99 102/189/103
f 101/188/102 99/190/100 98/8/99
f 103/191/104 101/192/102 104/15/105
f 105/193/106 103/194/104 106/5/107
f 97/195/98 106/196/107 100/155/101
f 97/195/98 105/197/106 106/196/107
f 30/51/108 83/198/83 85/199/85
f 107/200/109 83/198/83 30/201/108
f 108/202/110 83/203/83 107/204/109
f 108/179/110 87/15/87 83/203/83
f 85/205/85 27/50/27 30/206/108
f 27/34/27 85/161/85 86/185/86
f 109/9/111 110/207/112 111/208/113
f 110/207/112 109/9/111 112/15/114
f 109/209/111 113/15/115 112/210/114
f 109/209/111 114/44/116 113/15/115
f 114/1/116 115/211/117 113/14/115
f 114/1/116 116/212/118 115/213/117
f 117/9/119 115/213/117 116/214/118
f 115/213/117 117/9/119 118/10/120
f 117/1/119 110/215/112 118/5/120
f 117/1/119 111/216/113 110/215/112
f 119/150/121 88/217/88 87/218/87
f 94/219/94 119/44/121 93/218/93
f 79/220/79 81/221/81 36/154/36
f 120/222/122 121/223/123 122/17/124
f 123/224/125 124/225/126 125/226/127
f 123/224/125 126/23/128 124/225/126
f 127/227/129 121/228/123 120/229/122
f 127/227/129 128/230/130 121/228/123
f 124/225/126 127/231/129 125/232/127
f 127/231/129 124/233/126 128/234/130
f 120/222/122 122/17/124 129/235/131
f 130/236/132 131/237/133 126/23/128
f 130/238/132 132/226/134 131/237/133
f 133/239/135 134/233/136 135/240/137
f 133/239/135 129/241/131 134/225/136
f 133/242/135 131/237/133 132/232/134
f 131/243/133 133/242/135 135/234/137
f 126/17/128 123/231/125 130/244/132
f 127/245/129 120/229/122 136/246/138
f 125/232/127 127/231/129 137/246/139
f 138/247/140 136/248/138 120/249/122
f 139/250/141 125/226/127 137/246/139
f 137/250/139 127/251/129 136/246/138
f 123/252/125 125/226/127 139/250/141
f 133/253/135 140/250/142 129/254/131
f 132/232/134 141/246/143 133/255/135
f 138/247/140 120/256/122 129/257/131
f 142/250/144 141/246/143 132/226/134
f 141/246/143 140/250/142 133/253/135
f 130/238/132 142/250/144 132/226/134
f 138/258/140 129/257/131 140/259/142
f 129/235/131 122/17/124 134/260/136
f 143/261/145 144/172/146 145/5/147
f 146/262/148 147/54/149 148/263/150
f 68/5/68 42/79/42 72/15/72
f 68/5/68 40/264/40 42/79/42
f 35/265/35 37/266/37 65/267/65
f 65/267/65 75/268/75 35/265/35
f 149/269/151 150/270/152 151/271/153
f 152/272/154 151/271/153 150/270/152
f 153/273/155 154/274/156 155/275/157
f 156/273/158 157/275/159 158/276/160
f 155/277/157 159/278/161 157/279/159
f 149/280/151 152/281/154 150/282/152
f 156/283/158 160/284/162 157/285/159
f 155/285/157 161/284/163 153/283/155
f 155/286/157 162/287/164 161/288/163
f 157/289/159 162/290/164 155/286/157
f 160/291/162 162/287/164 157/289/159
f 161/288/163 162/287/164 160/292/162
f 86/163/86 48/293/48 44/170/44
f 163/294/165 88/217/88 119/150/121
f 94/219/94 163/295/165 119/44/121
f 163/296/165 164/15/166 88/217/88
f 94/219/94 164/297/166 163/298/165
f 43/83/43 60/299/60 46/300/46
f 47/88/47 49/90/49 64/301/64
f 58/302/58 60/303/60 43/83/43
f 64/304/64 62/305/62 47/306/47
f 64/113/64 165/307/167 53/96/53
f 60/106/60 56/99/56 165/308/167
f 166/309/168 167/310/169 168/311/170
f 166/312/168 168/311/170 169/313/171
f 166/312/168 169/314/171 170/315/172
f 166/316/168 170/310/172 171/317/173
f 166/318/168 171/317/173 172/319/174
f 166/318/168 172/320/174 167/321/169
f 53/96/53 165/308/167 56/322/56
f 173/323/175 174/324/176 175/325/177
f 176/326/178 174/324/176 173/327/175
f 177/328/179 174/329/176 176/326/178
f 175/325/177 174/324/176 177/330/179
f 178/331/180 179/323/181 180/332/182
f 178/331/180 181/333/183 179/334/181
f 178/331/180 182/335/184 181/333/183
f 178/331/180 180/332/182 182/336/184
f 134/337/136 148/263/150 135/43/137
f 148/263/150 134/338/136 146/262/148
f 135/339/137 183/340/185 131/37/133
f 183/340/185 135/339/137 148/263/150
f 131/341/133 184/342/186 126/343/128
f 184/344/186 131/345/133 183/346/185
f 134/347/136 185/348/187 146/349/148
f 134/350/136 122/343/124 185/348/187
f 121/351/123 144/172/146 143/261/145
f 128/182/130 144/172/146 121/351/123
f 186/352/188 128/182/130 124/353/126
f 128/182/130 186/352/188 144/168/146
f 184/342/186 124/354/126 126/343/128
f 124/355/126 184/356/186 186/357/188
f 121/358/123 185/348/187 122/343/124
f 121/359/123 143/360/145 185/348/187
f 187/361/189 105/362/106 97/363/98
f 187/361/189 188/5/190 105/362/106
f 188/351/190 103/364/104 105/193/106
f 188/365/190 189/366/191 103/367/104
f 189/368/191 101/369/102 103/370/104
f 189/15/191 190/371/192 101/372/102
f 101/373/102 190/371/192 99/190/100
f 187/374/189 99/375/100 190/376/192
f 99/377/100 187/378/189 97/363/98
f 191/379/193 192/380/194 193/381/195
f 194/382/196 195/383/197 196/384/198
f 194/385/196 192/386/194 189/387/191
f 194/385/196 189/387/191 188/388/190
f 190/376/192 195/389/197 187/390/189
f 195/389/197 190/391/192 191/392/193
f 189/393/191 192/394/194 191/379/193
f 189/393/191 191/395/193 190/396/192
f 188/397/190 187/125/189 195/398/197
f 188/397/190 195/383/197 194/399/196
f 147/400/149 27/401/199 29/5/95
f 147/402/149 185/403/187 27/401/199
f 145/404/147 27/401/199 185/403/187
f 145/405/147 30/73/108 27/401/199
f 183/406/185 148/407/150 197/408/200
f 144/168/146 186/409/188 198/410/201
f 146/349/148 185/403/187 147/402/149
f 93/411/93 119/412/121 96/413/97
f 119/414/121 197/415/200 96/413/97
f 184/344/186 183/346/185 197/416/200
f 184/344/186 197/416/200 119/414/121
f 104/417/105 101/418/102 102/189/103
f 106/5/107 103/194/104 199/419/202
f 103/191/104 104/15/105 199/419/202
f 143/420/145 145/404/147 185/403/187
f 87/421/87 108/422/110 119/423/121
f 119/424/121 108/422/110 198/425/201
f 184/356/186 198/426/201 186/357/188
f 184/356/186 119/424/121 198/426/201
f 78/15/78 200/205/203 41/152/41
f 41/153/41 200/427/203 79/5/79
f 201/428/204 30/27/108 145/234/147
f 201/429/204 145/234/147 202/430/205
f 108/23/110 203/431/206 198/432/201
f 204/433/207 203/434/206 205/435/208
f 204/433/207 205/435/208 206/436/209
f 207/437/210 201/438/204 202/439/205
f 207/440/210 205/441/208 201/438/204
f 205/435/208 207/440/210 206/442/209
f 108/443/110 107/444/109 205/445/208
f 107/444/109 30/446/108 205/447/208
f 108/23/110 205/448/208 203/434/206
f 205/449/208 30/27/108 201/438/204
f 96/450/97 197/451/200 208/452/211
f 209/453/212 210/454/213 147/23/149
f 209/455/212 147/23/149 29/456/95
f 96/457/97 211/164/214 95/458/96
f 95/458/96 211/158/214 29/459/95
f 96/450/97 208/460/211 211/461/214
f 211/462/214 209/453/212 29/463/95
f 212/464/215 213/465/216 211/466/214
f 212/464/215 211/466/214 208/460/211
f 214/467/217 210/468/213 209/453/212
f 211/469/214 214/467/217 209/470/212
f 214/471/217 211/469/214 213/465/216
f 215/472/218 216/234/219 217/473/220
f 215/472/218 218/474/221 216/234/219
f 218/475/221 219/476/222 216/476/219
f 218/475/221 220/475/223 219/476/222
f 220/474/223 221/477/224 219/234/222
f 220/474/223 222/478/225 221/473/224
f 223/479/226 221/473/224 222/480/225
f 221/473/224 223/479/226 224/481/227
f 223/479/226 217/473/220 224/481/227
f 223/479/226 215/482/218 217/473/220
f 217/483/220 109/36/111 111/208/113
f 217/483/220 216/484/219 109/36/111
f 219/485/222 109/36/111 216/484/219
f 109/36/111 219/485/222 114/486/116
f 221/343/224 114/29/116 219/351/222
f 114/29/116 221/343/224 116/214/118
f 224/41/227 116/214/118 221/343/224
f 116/214/118 224/40/227 117/36/119
f 224/487/227 111/216/113 117/29/119
f 224/487/227 217/483/220 111/208/113
f 225/207/228 113/8/115 115/488/117
f 118/44/120 225/207/228 115/489/117
f 226/490/229 227/491/230 31/59/32
f 226/490/229 31/59/32 33/60/33
f 226/492/229 32/56/31 228/493/231
f 226/492/229 33/60/33 32/56/31
f 229/494/232 230/237/233 231/231/234
f 11/495/11 22/496/22 232/497/235
f 11/495/11 14/498/14 22/496/22
f 14/499/14 23/500/23 22/500/22
f 14/499/14 16/499/16 23/500/23
f 16/498/16 24/501/24 23/248/23
f 16/498/16 18/495/18 24/501/24
f 18/502/18 233/259/236 24/503/24
f 18/502/18 19/504/19 233/505/236
f 19/504/19 232/506/235 233/505/236
f 19/504/19 11/502/11 232/506/235
f 24/17/24 232/246/235 22/507/22
f 24/17/24 233/508/236 232/246/235
f 149/509/151 234/510/237 154/511/156
f 149/269/151 151/512/153 234/513/237
f 234/510/237 152/514/154 158/515/160
f 234/513/237 151/512/153 152/272/154
f 234/510/237 155/275/157 154/516/156
f 234/510/237 159/517/161 155/518/157
f 157/275/159 234/510/237 158/519/160
f 157/518/159 159/517/161 234/510/237
f 156/520/158 154/521/156 153/522/155
f 156/520/158 158/523/160 154/521/156
f 158/523/160 149/524/151 154/521/156
f 158/523/160 152/525/154 149/526/151
f 66/527/66 156/528/158 67/529/67
f 66/527/66 160/284/162 156/528/158
f 67/530/67 153/531/155 69/532/69
f 67/530/67 156/528/158 153/531/155
f 69/529/69 161/284/163 70/527/70
f 69/530/69 153/528/155 161/284/163
f 70/527/70 160/285/162 66/533/66
f 70/527/70 161/284/163 160/285/162
f 75/534/75 68/535/68 72/536/72
f 75/534/75 65/537/65 68/535/68
f 73/532/73 235/538/238 71/539/71
f 73/532/73 236/540/239 235/538/238
f 71/541/71 237/538/240 74/542/74
f 71/541/71 235/543/238 237/538/240
f 74/539/74 238/540/241 76/532/76
f 74/544/74 237/538/240 238/540/241
f 76/545/76 236/546/239 73/547/73
f 76/545/76 238/548/241 236/546/239
f 236/549/239 237/550/240 235/551/238
f 236/549/239 238/289/241 237/550/240
f 51/94/51 167/552/169 52/553/52
f 51/554/51 168/555/170 167/552/169
f 57/556/57 168/557/170 51/554/51
f 57/556/57 169/558/171 168/557/170
f 52/105/52 172/559/174 59/103/59
f 52/105/52 167/321/169 172/559/174
f 239/560/242 45/561/45 240/562/243
f 239/560/242 43/563/43 45/561/45
f 240/564/243 52/565/52 241/566/244
f 240/564/243 45/567/45 52/565/52
f 241/568/244 58/569/58 242/570/245
f 241/568/244 52/326/52 58/571/58
f 242/570/245 43/572/43 239/573/242
f 242/570/245 58/569/58 43/572/43
f 175/538/177 240/574/243 173/575/175
f 175/538/177 239/560/242 240/574/243
f 173/576/175 241/577/244 176/546/178
f 173/576/175 240/564/243 241/577/244
f 176/578/178 242/570/245 177/331/179
f 176/578/178 241/579/244 242/570/245
f 177/331/179 239/580/242 175/546/177
f 177/331/179 242/570/245 239/573/242
f 170/206/172 57/117/57 63/581/63
f 170/206/172 169/558/171 57/582/57
f 171/583/173 63/112/63 61/109/61
f 171/583/173 170/310/172 63/112/63
f 50/584/50 243/585/246 244/586/247
f 50/584/50 47/587/47 243/585/246
f 63/588/63 244/589/247 245/590/248
f 63/588/63 50/591/50 244/589/247
f 62/592/62 245/566/248 246/593/249
f 62/594/62 63/595/63 245/566/248
f 47/596/47 246/597/249 243/560/246
f 47/596/47 62/598/62 246/597/249
f 244/599/247 180/546/182 179/600/181
f 244/599/247 243/585/246 180/546/182
f 245/601/248 179/602/181 181/538/183
f 245/601/248 244/589/247 179/602/181
f 246/603/249 181/546/183 182/604/184
f 246/593/249 245/577/248 181/546/183
f 243/605/246 182/606/184 180/538/182
f 243/560/246 246/607/249 182/606/184
f 61/608/61 172/609/174 171/610/173
f 61/608/61 59/611/59 172/559/174
f 196/612/198 191/613/193 193/614/195
f 196/612/198 195/534/197 191/613/193
f 196/615/198 192/616/194 194/536/196
f 196/612/198 193/617/195 192/616/194
f 229/505/232 215/618/218 247/619/250
f 229/505/232 218/620/221 215/618/218
f 231/621/234 218/622/221 229/621/232
f 231/621/234 220/622/223 218/622/221
f 230/471/233 220/620/223 231/259/234
f 230/471/233 222/623/225 220/620/223
f 248/248/251 222/624/225 230/467/233
f 248/496/251 223/625/226 222/624/225
f 247/250/250 223/626/226 248/627/251
f 247/628/250 215/628/218 223/629/226
f 247/250/250 230/237/233 229/630/232
f 247/250/250 248/627/251 230/237/233
f 249/631/252 250/631/253 251/631/254
f 252/631/5 251/631/254 250/631/253
f 250/631/253 253/631/255 252/631/5
f 254/631/256 252/631/5 253/631/255
f 253/631/255 255/631/257 254/631/256
f 256/631/258 257/631/10 254/631/256
f 254/631/256 255/631/257 256/631/258
f 257/631/10 256/631/258 249/631/252
f 258/631/259 254/631/256 257/631/10
f 252/631/5 254/631/256 258/631/259
f 250/631/253 259/631/260 260/631/261
f 250/631/253 249/631/252 259/631/260
f 256/631/258 259/631/260 249/631/252
f 259/631/260 256/631/258 261/631/262
f 255/631/257 261/631/262 256/631/258
f 261/631/262 255/631/257 262/631/263
f 255/631/257 263/631/264 262/631/263
f 255/631/257 253/631/255 263/631/264
f 253/631/255 260/631/261 263/631/264
f 253/631/255 250/631/253 260/631/261
f 264/631/265 265/631/266 266/631/267
f 264/631/265 266/631/267 267/631/268
f 268/631/269 267/631/268 266/631/267
f 266/631/267 269/631/270 268/631/269
f 270/631/271 268/631/269 269/631/270
f 269/631/270 271/631/272 270/631/271
f 270/631/271 271/631/272 272/631/273
f 270/631/271 272/631/273 273/631/274
f 273/631/274 272/631/273 265/631/266
f 273/631/274 265/631/266 264/631/265
f 266/631/267 265/631/266 260/631/261
f 266/631/267 260/631/261 259/631/260
f 260/631/261 272/631/273 263/631/264
f 260/631/261 265/631/266 272/631/273
f 274/631/275 259/631/260 275/631/138
f 266/631/267 274/631/275 276/631/142
f 266/631/267 259/631/260 274/631/275
f 259/631/260 261/631/262 275/631/138
f 261/631/262 277/631/276 275/631/138
f 261/631/262 262/631/263 277/631/276
f 262/631/263 278/631/141 277/631/276
f 262/631/263 279/631/277 278/631/141
f 266/631/267 276/631/142 269/631/270
f 269/631/270 276/631/142 280/631/278
f 269/631/270 280/631/278 271/631/272
f 271/631/272 280/631/278 281/631/279
f 271/631/272 281/631/279 282/631/280
f 282/631/280 272/631/273 271/631/272
f 282/631/280 263/631/264 272/631/273
f 262/631/263 263/631/264 279/631/277
f 279/631/277 263/631/264 282/631/280
f 283/631/281 284/631/282 285/631/283
f 286/631/284 283/631/281 287/631/285
f 288/631/286 289/631/49 290/631/287
f 285/631/283 291/631/288 283/631/281
f 283/631/281 291/631/288 287/631/285
f 292/631/289 293/631/290 294/631/291
f 295/631/292 289/631/49 288/631/286
f 292/631/289 296/631/293 293/631/290
f 284/631/282 289/631/49 295/631/292
f 293/631/290 286/631/284 294/631/291
f 294/631/291 286/631/284 287/631/285
f 284/631/282 295/631/292 285/631/283
f 297/631/294 298/631/295 299/631/296
f 300/631/297 297/631/294 299/631/296
f 301/631/298 302/631/299 303/631/300
f 304/631/78 302/631/299 301/631/298
f 305/631/301 306/631/302 307/631/303
f 305/631/301 307/631/303 308/631/304
f 309/631/305 307/631/303 310/631/306
f 307/631/303 309/631/305 308/631/304
f 311/631/307 309/631/305 312/631/308
f 309/631/305 311/631/307 313/631/309
f 313/631/309 308/631/304 309/631/305
f 308/631/304 313/631/309 314/631/310
f 315/631/311 305/631/301 316/631/312
f 316/631/312 305/631/301 308/631/304
f 316/631/312 308/631/304 314/631/310
f 314/631/310 313/631/309 317/631/313
f 318/631/314 316/631/312 314/631/310
f 303/631/300 315/631/311 316/631/312
f 303/631/300 316/631/312 318/631/314
f 304/631/78 313/631/309 311/631/307
f 313/631/309 304/631/78 317/631/313
f 302/631/299 304/631/78 311/631/307
f 302/631/299 315/631/311 303/631/300
f 315/631/311 302/631/299 319/631/315
f 311/631/307 319/631/315 302/631/299
f 320/631/316 314/631/310 317/631/313
f 320/631/316 318/631/314 314/631/310
f 309/631/305 310/631/306 312/631/308
f 321/631/317 322/631/318 323/631/150
f 321/631/317 323/631/150 324/631/319
f 325/631/320 326/631/211 327/631/321
f 323/631/150 325/631/320 327/631/321
f 325/631/320 323/631/150 322/631/318
f 299/631/296 328/631/322 300/631/297
f 329/631/217 299/631/296 298/631/295
f 299/631/296 329/631/217 330/631/216
f 328/631/322 299/631/296 330/631/216
f 325/631/320 328/631/322 326/631/211
f 328/631/322 325/631/320 331/631/323
f 322/631/318 331/631/323 325/631/320
f 331/631/323 322/631/318 332/631/324
f 329/631/217 333/631/325 321/631/317
f 333/631/325 332/631/324 322/631/318
f 333/631/325 322/631/318 321/631/317
f 332/631/324 334/631/326 331/631/323
f 335/631/327 332/631/324 333/631/325
f 298/631/295 335/631/327 333/631/325
f 298/631/295 333/631/325 329/631/217
f 331/631/323 300/631/297 328/631/322
f 300/631/297 331/631/323 334/631/326
f 336/631/328 334/631/326 332/631/324
f 335/631/327 336/631/328 332/631/324
f 267/631/268 337/631/329 264/631/265
f 338/631/115 264/631/265 337/631/329
f 264/631/265 338/631/115 273/631/274
f 339/631/330 273/631/274 338/631/115
f 273/631/274 339/631/330 270/631/271
f 268/631/269 339/631/330 340/631/331
f 339/631/330 268/631/269 270/631/271
f 340/631/331 267/631/268 268/631/269
f 341/631/332 340/631/331 339/631/330
f 338/631/115 341/631/332 339/631/330
