# generated by fbx_to_obj.py from Chandelier.fbx geometry 0
v 0.000000 -11.500000 -10.000000
v 0.000000 -10.000000 -10.000000
v 8.660254 -10.000000 -5.000000
v 8.660254 -11.500000 -5.000000
v 8.660254 -11.500000 -5.000000
v 8.660254 -10.000000 -5.000000
v 8.660254 -10.000000 5.000000
v 8.660254 -11.500000 5.000000
v 8.660254 -11.500000 5.000000
v 8.660254 -10.000000 5.000000
v -0.000001 -10.000000 10.000000
v -0.000001 -11.500000 10.000000
v -0.000001 -11.500000 10.000000
v -0.000001 -10.000000 10.000000
v -8.660254 -10.000000 4.999999
v -8.660254 -11.500000 4.999999
v 0.000000 -11.500000 -7.690599
v 6.660254 -11.500000 -3.845299
v 6.660254 -10.000000 -3.845299
v 0.000000 -10.000000 -7.690599
v -8.660254 -11.500000 4.999999
v -8.660254 -10.000000 4.999999
v -8.660254 -10.000000 -4.999999
v -8.660254 -11.500000 -4.999999
v -8.660254 -11.500000 -4.999999
v -8.660254 -10.000000 -4.999999
v 0.000000 -10.000000 -10.000000
v 0.000000 -11.500000 -10.000000
v -6.660254 -11.500000 -3.845299
v 0.000000 -11.500000 -7.690599
v 0.000000 -10.000000 -7.690599
v -6.660254 -10.000000 -3.845299
v 6.660254 -13.000000 -3.845299
v 0.000000 -13.000000 -7.690599
v 0.000000 -13.000000 -10.000000
v 8.660254 -13.000000 -5.000000
v 0.000000 -10.000000 -7.690599
v 6.660254 -10.000000 -3.845299
v 8.660254 -10.000000 -5.000000
v 0.000000 -10.000000 -10.000000
v 6.660254 -13.000000 3.845300
v 6.660254 -13.000000 -3.845299
v 8.660254 -13.000000 -5.000000
v 8.660254 -13.000000 5.000000
v 6.660254 -10.000000 -3.845299
v 6.660254 -10.000000 3.845300
v 8.660254 -10.000000 5.000000
v 8.660254 -10.000000 -5.000000
v -0.000001 -13.000000 7.690599
v 6.660254 -13.000000 3.845300
v 8.660254 -13.000000 5.000000
v -0.000001 -13.000000 10.000000
v 6.660254 -10.000000 3.845300
v -0.000001 -10.000000 7.690599
v -0.000001 -10.000000 10.000000
v 8.660254 -10.000000 5.000000
v -6.660254 -13.000000 3.845299
v -0.000001 -13.000000 7.690599
v -0.000001 -13.000000 10.000000
v -8.660254 -13.000000 4.999999
v -0.000001 -10.000000 7.690599
v -6.660254 -10.000000 3.845299
v -8.660254 -10.000000 4.999999
v -0.000001 -10.000000 10.000000
v -6.660254 -13.000000 -3.845299
v -6.660254 -13.000000 3.845299
v -8.660254 -13.000000 4.999999
v -8.660254 -13.000000 -4.999999
v -6.660254 -10.000000 3.845299
v -6.660254 -10.000000 -3.845299
v -8.660254 -10.000000 -4.999999
v -8.660254 -10.000000 4.999999
v 0.000000 -13.000000 -7.690599
v -6.660254 -13.000000 -3.845299
v -8.660254 -13.000000 -4.999999
v 0.000000 -13.000000 -10.000000
v -6.660254 -10.000000 -3.845299
v 0.000000 -10.000000 -7.690599
v 0.000000 -10.000000 -10.000000
v -8.660254 -10.000000 -4.999999
v 6.660254 -11.500000 -3.845299
v 6.660254 -11.500000 3.845300
v 6.660254 -10.000000 3.845300
v 6.660254 -10.000000 -3.845299
v 6.660254 -11.500000 3.845300
v -0.000001 -11.500000 7.690599
v -0.000001 -10.000000 7.690599
v 6.660254 -10.000000 3.845300
v -0.000001 -11.500000 7.690599
v -6.660254 -11.500000 3.845299
v -6.660254 -10.000000 3.845299
v -0.000001 -10.000000 7.690599
v -6.660254 -11.500000 3.845299
v -6.660254 -11.500000 -3.845299
v -6.660254 -10.000000 -3.845299
v -6.660254 -10.000000 3.845299
v -8.660254 -13.000000 -4.999999
v -8.660254 -11.500000 -4.999999
v 0.000000 -11.500000 -10.000000
v 0.000000 -13.000000 -10.000000
v -8.660254 -13.000000 4.999999
v -8.660254 -11.500000 4.999999
v -8.660254 -11.500000 -4.999999
v -8.660254 -13.000000 -4.999999
v -0.000001 -13.000000 10.000000
v -0.000001 -11.500000 10.000000
v -8.660254 -11.500000 4.999999
v -8.660254 -13.000000 4.999999
v 8.660254 -13.000000 5.000000
v 8.660254 -11.500000 5.000000
v -0.000001 -11.500000 10.000000
v -0.000001 -13.000000 10.000000
v 8.660254 -13.000000 -5.000000
v 8.660254 -11.500000 -5.000000
v 8.660254 -11.500000 5.000000
v 8.660254 -13.000000 5.000000
v 0.000000 -13.000000 -10.000000
v 0.000000 -11.500000 -10.000000
v 8.660254 -11.500000 -5.000000
v 8.660254 -13.000000 -5.000000
v -6.660254 -13.000000 3.845299
v -6.660254 -13.000000 -3.845299
v -6.660254 -11.500000 -3.845299
v -6.660254 -11.500000 3.845299
v -0.000001 -13.000000 7.690599
v -6.660254 -13.000000 3.845299
v -6.660254 -11.500000 3.845299
v -0.000001 -11.500000 7.690599
v 6.660254 -13.000000 3.845300
v -0.000001 -13.000000 7.690599
v -0.000001 -11.500000 7.690599
v 6.660254 -11.500000 3.845300
v 6.660254 -13.000000 -3.845299
v 6.660254 -13.000000 3.845300
v 6.660254 -11.500000 3.845300
v 6.660254 -11.500000 -3.845299
v -6.660254 -13.000000 -3.845299
v 0.000000 -13.000000 -7.690599
v 0.000000 -11.500000 -7.690599
v -6.660254 -11.500000 -3.845299
v 0.000000 -13.000000 -7.690599
v 6.660254 -13.000000 -3.845299
v 6.660254 -11.500000 -3.845299
v 0.000000 -11.500000 -7.690599
v -0.573577 -9.000000 7.980848
v -0.573577 -7.800000 7.980848
v 0.419918 -7.724521 7.895583
v 0.422618 -9.000000 7.893692
v 0.422618 -9.000000 7.893692
v 0.419918 -7.724521 7.895583
v 0.993495 -7.724521 8.714735
v 0.996194 -9.000000 8.712845
v 0.996194 -9.000000 8.712845
v 0.993495 -7.724521 8.714735
v 0.573576 -7.800000 9.619152
v 0.573576 -9.000000 9.619152
v 0.573576 -9.000000 9.619152
v 0.573576 -7.800000 9.619152
v -0.419919 -7.875479 9.704418
v -0.422619 -9.000000 9.706308
v 0.419918 -7.724521 7.895583
v -0.573577 -7.800000 7.980848
v -0.993496 -7.875479 8.885266
v -0.419919 -7.875479 9.704418
v 0.573576 -7.800000 9.619152
v 0.993495 -7.724521 8.714735
v -0.422619 -9.000000 9.706308
v -0.419919 -7.875479 9.704418
v -0.993496 -7.875479 8.885266
v -0.996195 -9.000000 8.887156
v -0.996195 -9.000000 8.887156
v -0.993496 -7.875479 8.885266
v -0.573577 -7.800000 7.980848
v -0.573577 -9.000000 7.980848
v -0.630935 -10.000000 7.898933
v 0.464879 -10.000000 7.803061
v 1.095814 -10.000000 8.704129
v 0.630934 -10.000000 9.701068
v -0.464881 -10.000000 9.796939
v -1.095815 -10.000000 8.895871
v -1.095815 -10.000000 8.895871
v -0.996195 -9.000000 8.887156
v -0.573577 -9.000000 7.980848
v -0.630935 -10.000000 7.898933
v -0.464881 -10.000000 9.796939
v -0.422619 -9.000000 9.706308
v -0.996195 -9.000000 8.887156
v -1.095815 -10.000000 8.895871
v 0.630934 -10.000000 9.701068
v 0.573576 -9.000000 9.619152
v -0.422619 -9.000000 9.706308
v -0.464881 -10.000000 9.796939
v 1.095814 -10.000000 8.704129
v 0.996194 -9.000000 8.712845
v 0.573576 -9.000000 9.619152
v 0.630934 -10.000000 9.701068
v 0.464879 -10.000000 7.803061
v 0.422618 -9.000000 7.893692
v 0.996194 -9.000000 8.712845
v 1.095814 -10.000000 8.704129
v -0.630935 -10.000000 7.898933
v -0.573577 -9.000000 7.980848
v 0.422618 -9.000000 7.893692
v 0.464879 -10.000000 7.803061
v 6.833955 -9.000000 3.657212
v 6.833955 -7.400000 3.657212
v 7.771530 -7.324521 3.317716
v 7.773649 -9.000000 3.315191
v 7.773649 -9.000000 3.315191
v 7.771530 -7.324521 3.317716
v 8.537575 -7.324521 3.960504
v 8.539692 -9.000000 3.957980
v 8.539692 -9.000000 3.957980
v 8.537575 -7.324521 3.960504
v 8.366044 -7.400000 4.942788
v 8.366044 -9.000000 4.942788
v 8.366044 -9.000000 4.942788
v 8.366044 -7.400000 4.942788
v 7.428470 -7.475479 5.282283
v 7.426352 -9.000000 5.284808
v 7.771530 -7.324521 3.317716
v 6.833955 -7.400000 3.657212
v 6.662426 -7.475479 4.639495
v 7.428470 -7.475479 5.282283
v 8.366044 -7.400000 4.942788
v 8.537575 -7.324521 3.960504
v 7.426352 -9.000000 5.284808
v 7.428470 -7.475479 5.282283
v 6.662426 -7.475479 4.639495
v 6.660307 -9.000000 4.642020
v 6.660307 -9.000000 4.642020
v 6.662426 -7.475479 4.639495
v 6.833955 -7.400000 3.657212
v 6.833955 -9.000000 3.657212
v 6.757351 -10.000000 3.592933
v 7.791013 -10.000000 3.216711
v 8.633662 -10.000000 3.923777
v 8.442649 -10.000000 5.007067
v 7.408987 -10.000000 5.383288
v 6.566338 -10.000000 4.676222
v 6.566338 -10.000000 4.676222
v 6.660307 -9.000000 4.642020
v 6.833955 -9.000000 3.657212
v 6.757351 -10.000000 3.592933
v 7.408987 -10.000000 5.383288
v 7.426352 -9.000000 5.284808
v 6.660307 -9.000000 4.642020
v 6.566338 -10.000000 4.676222
v 8.442649 -10.000000 5.007067
v 8.366044 -9.000000 4.942788
v 7.426352 -9.000000 5.284808
v 7.408987 -10.000000 5.383288
v 8.633662 -10.000000 3.923777
v 8.539692 -9.000000 3.957980
v 8.366044 -9.000000 4.942788
v 8.442649 -10.000000 5.007067
v 7.791013 -10.000000 3.216711
v 7.773649 -9.000000 3.315191
v 8.539692 -9.000000 3.957980
v 8.633662 -10.000000 3.923777
v 6.757351 -10.000000 3.592933
v 6.833955 -9.000000 3.657212
v 7.773649 -9.000000 3.315191
v 7.791013 -10.000000 3.216711
v 6.603806 -9.000000 -4.312846
v 6.603806 -7.700000 -4.312846
v 7.026711 -7.624521 -5.215871
v 7.026424 -9.000000 -5.219154
v 7.026424 -9.000000 -5.219154
v 7.026711 -7.624521 -5.215871
v 8.022905 -7.624521 -5.303027
v 8.022618 -9.000000 -5.306309
v 8.022618 -9.000000 -5.306309
v 8.022905 -7.624521 -5.303027
v 8.596195 -7.700000 -4.487157
v 8.596195 -9.000000 -4.487157
v 8.596195 -9.000000 -4.487157
v 8.596195 -7.700000 -4.487157
v 8.173289 -7.775479 -3.584132
v 8.173576 -9.000000 -3.580849
v 7.026711 -7.624521 -5.215871
v 6.603806 -7.700000 -4.312846
v 7.177095 -7.775479 -3.496976
v 8.173289 -7.775479 -3.584132
v 8.596195 -7.700000 -4.487157
v 8.022905 -7.624521 -5.303027
v 8.173576 -9.000000 -3.580849
v 8.173289 -7.775479 -3.584132
v 7.177095 -7.775479 -3.496976
v 7.177382 -9.000000 -3.493693
v 7.177382 -9.000000 -3.493693
v 7.177095 -7.775479 -3.496976
v 6.603806 -7.700000 -4.312846
v 6.603806 -9.000000 -4.312846
v 6.504186 -10.000000 -4.304130
v 6.969066 -10.000000 -5.301069
v 8.064880 -10.000000 -5.396940
v 8.695815 -10.000000 -4.495872
v 8.230934 -10.000000 -3.498934
v 7.135120 -10.000000 -3.403062
v 7.135120 -10.000000 -3.403062
v 7.177382 -9.000000 -3.493693
v 6.603806 -9.000000 -4.312846
v 6.504186 -10.000000 -4.304130
v 8.230934 -10.000000 -3.498934
v 8.173576 -9.000000 -3.580849
v 7.177382 -9.000000 -3.493693
v 7.135120 -10.000000 -3.403062
v 8.695815 -10.000000 -4.495872
v 8.596195 -9.000000 -4.487157
v 8.173576 -9.000000 -3.580849
v 8.230934 -10.000000 -3.498934
v 8.064880 -10.000000 -5.396940
v 8.022618 -9.000000 -5.306309
v 8.596195 -9.000000 -4.487157
v 8.695815 -10.000000 -4.495872
v 6.969066 -10.000000 -5.301069
v 7.026424 -9.000000 -5.219154
v 8.022618 -9.000000 -5.306309
v 8.064880 -10.000000 -5.396940
v 6.504186 -10.000000 -4.304130
v 6.603806 -9.000000 -4.312846
v 7.026424 -9.000000 -5.219154
v 6.969066 -10.000000 -5.301069
v 0.000000 -9.000000 -9.800000
v 0.000000 -6.900000 -9.800000
v 0.862730 -6.824521 -9.300000
v 0.866025 -9.000000 -9.300000
v 0.866025 -9.000000 -9.300000
v 0.862730 -6.824521 -9.300000
v 0.862730 -6.824521 -8.300000
v 0.866025 -9.000000 -8.300000
v 0.866025 -9.000000 -8.300000
v 0.862730 -6.824521 -8.300000
v -0.000000 -6.900000 -7.800000
v -0.000000 -9.000000 -7.800000
v -0.000000 -9.000000 -7.800000
v -0.000000 -6.900000 -7.800000
v -0.862730 -6.975479 -8.300000
v -0.866025 -9.000000 -8.300000
v 0.862730 -6.824521 -9.300000
v 0.000000 -6.900000 -9.800000
v -0.862730 -6.975479 -9.300000
v -0.862730 -6.975479 -8.300000
v -0.000000 -6.900000 -7.800000
v 0.862730 -6.824521 -8.300000
v -0.866025 -9.000000 -8.300000
v -0.862730 -6.975479 -8.300000
v -0.862730 -6.975479 -9.300000
v -0.866025 -9.000000 -9.300000
v -0.866025 -9.000000 -9.300000
v -0.862730 -6.975479 -9.300000
v 0.000000 -6.900000 -9.800000
v 0.000000 -9.000000 -9.800000
v 0.000000 -10.000000 -9.900000
v 0.952628 -10.000000 -9.350000
v 0.952628 -10.000000 -8.250000
v -0.000000 -10.000000 -7.699999
v -0.952628 -10.000000 -8.250000
v -0.952628 -10.000000 -9.350000
v -0.952628 -10.000000 -9.350000
v -0.866025 -9.000000 -9.300000
v 0.000000 -9.000000 -9.800000
v 0.000000 -10.000000 -9.900000
v -0.952628 -10.000000 -8.250000
v -0.866025 -9.000000 -8.300000
v -0.866025 -9.000000 -9.300000
v -0.952628 -10.000000 -9.350000
v -0.000000 -10.000000 -7.699999
v -0.000000 -9.000000 -7.800000
v -0.866025 -9.000000 -8.300000
v -0.952628 -10.000000 -8.250000
v 0.952628 -10.000000 -8.250000
v 0.866025 -9.000000 -8.300000
v -0.000000 -9.000000 -7.800000
v -0.000000 -10.000000 -7.699999
v 0.952628 -10.000000 -9.350000
v 0.866025 -9.000000 -9.300000
v 0.866025 -9.000000 -8.300000
v 0.952628 -10.000000 -8.250000
v 0.000000 -10.000000 -9.900000
v 0.000000 -9.000000 -9.800000
v 0.866025 -9.000000 -9.300000
v 0.952628 -10.000000 -9.350000
v -8.366043 -9.000000 4.942788
v -8.366043 -7.500000 4.942788
v -8.537574 -7.424521 3.960505
v -8.539692 -9.000000 3.957980
v -8.539692 -9.000000 3.957980
v -8.537574 -7.424521 3.960505
v -7.771529 -7.424521 3.317717
v -7.773647 -9.000000 3.315193
v -7.773647 -9.000000 3.315193
v -7.771529 -7.424521 3.317717
v -6.833955 -7.500000 3.657213
v -6.833955 -9.000000 3.657213
v -6.833955 -9.000000 3.657213
v -6.833955 -7.500000 3.657213
v -6.662425 -7.575479 4.639496
v -6.660306 -9.000000 4.642021
v -8.537574 -7.424521 3.960505
v -8.366043 -7.500000 4.942788
v -7.428470 -7.575479 5.282284
v -6.662425 -7.575479 4.639496
v -6.833955 -7.500000 3.657213
v -7.771529 -7.424521 3.317717
v -6.660306 -9.000000 4.642021
v -6.662425 -7.575479 4.639496
v -7.428470 -7.575479 5.282284
v -7.426351 -9.000000 5.284808
v -7.426351 -9.000000 5.284808
v -7.428470 -7.575479 5.282284
v -8.366043 -7.500000 4.942788
v -8.366043 -9.000000 4.942788
v -8.442648 -10.000000 5.007067
v -8.633661 -10.000000 3.923778
v -7.791012 -10.000000 3.216712
v -6.757350 -10.000000 3.592934
v -6.566337 -10.000000 4.676223
v -7.408986 -10.000000 5.383290
v -7.408986 -10.000000 5.383290
v -7.426351 -9.000000 5.284808
v -8.366043 -9.000000 4.942788
v -8.442648 -10.000000 5.007067
v -6.566337 -10.000000 4.676223
v -6.660306 -9.000000 4.642021
v -7.426351 -9.000000 5.284808
v -7.408986 -10.000000 5.383290
v -6.757350 -10.000000 3.592934
v -6.833955 -9.000000 3.657213
v -6.660306 -9.000000 4.642021
v -6.566337 -10.000000 4.676223
v -7.791012 -10.000000 3.216712
v -7.773647 -9.000000 3.315193
v -6.833955 -9.000000 3.657213
v -6.757350 -10.000000 3.592934
v -8.633661 -10.000000 3.923778
v -8.539692 -9.000000 3.957980
v -7.773647 -9.000000 3.315193
v -7.791012 -10.000000 3.216712
v -8.442648 -10.000000 5.007067
v -8.366043 -9.000000 4.942788
v -8.539692 -9.000000 3.957980
v -8.633661 -10.000000 3.923778
v -8.565925 -9.000000 -4.658819
v -8.565925 -7.200000 -4.658819
v -7.859671 -7.124521 -5.362743
v -7.858818 -9.000000 -5.365927
v -7.858818 -9.000000 -5.365927
v -7.859671 -7.124521 -5.362743
v -6.893745 -7.124521 -5.103924
v -6.892892 -9.000000 -5.107107
v -6.892892 -9.000000 -5.107107
v -6.893745 -7.124521 -5.103924
v -6.634073 -7.200000 -4.141181
v -6.634073 -9.000000 -4.141181
v -6.634073 -9.000000 -4.141181
v -6.634073 -7.200000 -4.141181
v -7.340327 -7.275479 -3.437258
v -7.341180 -9.000000 -3.434074
v -7.859671 -7.124521 -5.362743
v -8.565925 -7.200000 -4.658819
v -8.306252 -7.275479 -3.696077
v -7.340327 -7.275479 -3.437258
v -6.634073 -7.200000 -4.141181
v -6.893745 -7.124521 -5.103924
v -7.341180 -9.000000 -3.434074
v -7.340327 -7.275479 -3.437258
v -8.306252 -7.275479 -3.696077
v -8.307105 -9.000000 -3.692893
v -8.307105 -9.000000 -3.692893
v -8.306252 -7.275479 -3.696077
v -8.565925 -7.200000 -4.658819
v -8.565925 -9.000000 -4.658819
v -8.662517 -10.000000 -4.684701
v -7.884699 -10.000000 -5.462519
v -6.822181 -10.000000 -5.177818
v -6.537480 -10.000000 -4.115299
v -7.315298 -10.000000 -3.337481
v -8.377816 -10.000000 -3.622182
v -8.377816 -10.000000 -3.622182
v -8.307105 -9.000000 -3.692893
v -8.565925 -9.000000 -4.658819
v -8.662517 -10.000000 -4.684701
v -7.315298 -10.000000 -3.337481
v -7.341180 -9.000000 -3.434074
v -8.307105 -9.000000 -3.692893
v -8.377816 -10.000000 -3.622182
v -6.537480 -10.000000 -4.115299
v -6.634073 -9.000000 -4.141181
v -7.341180 -9.000000 -3.434074
v -7.315298 -10.000000 -3.337481
v -6.822181 -10.000000 -5.177818
v -6.892892 -9.000000 -5.107107
v -6.634073 -9.000000 -4.141181
v -6.537480 -10.000000 -4.115299
v -7.884699 -10.000000 -5.462519
v -7.858818 -9.000000 -5.365927
v -6.892892 -9.000000 -5.107107
v -6.822181 -10.000000 -5.177818
v -8.662517 -10.000000 -4.684701
v -8.565925 -9.000000 -4.658819
v -7.858818 -9.000000 -5.365927
v -7.884699 -10.000000 -5.462519
v -0.600000 -1.361696 0.852847
v -0.600000 -3.000000 2.000000
v 0.400000 -3.000000 2.000000
v 0.400000 -1.361696 0.852847
v -0.600000 0.976608 0.005694
v -0.600000 -1.361696 0.852847
v 0.400000 -1.361696 0.852847
v 0.400000 0.976608 0.005694
v -0.600000 -3.000000 2.000000
v -0.600000 -4.638304 3.147153
v 0.400000 -4.638304 3.147153
v 0.400000 -3.000000 2.000000
v -0.600000 -4.638304 3.147153
v -0.600000 -6.276608 4.294306
v 0.400000 -6.276608 4.294306
v 0.400000 -4.638304 3.147153
v -0.600000 -6.276608 4.294306
v -0.600000 -7.914912 5.441459
v 0.400000 -7.914912 5.441459
v 0.400000 -6.276608 4.294306
v -0.600000 -7.914912 5.441459
v -0.600000 -9.553217 6.588612
v 0.400000 -9.553217 6.588612
v 0.400000 -7.914912 5.441459
v -0.600000 -9.553217 6.588612
v -0.600000 -11.191521 7.735765
v 0.400000 -11.191521 7.735765
v 0.400000 -9.553217 6.588612
v 0.438587 -1.361696 0.946039
v 1.432051 -3.000000 1.519615
v 1.932051 -3.000000 0.653590
v 0.938587 -1.361696 0.080013
v -0.295069 0.976608 0.522462
v 0.438587 -1.361696 0.946039
v 0.938587 -1.361696 0.080013
v 0.204931 0.976608 -0.343563
v 1.432051 -3.000000 1.519615
v 2.425514 -4.638304 2.093192
v 2.925514 -4.638304 1.227166
v 1.932051 -3.000000 0.653590
v 2.425514 -4.638304 2.093192
v 3.418978 -6.276608 2.666768
v 3.918978 -6.276608 1.800743
v 2.925514 -4.638304 1.227166
v 3.418978 -6.276608 2.666768
v 4.412442 -7.914912 3.240344
v 4.912442 -7.914912 2.374319
v 3.918978 -6.276608 1.800743
v 4.412442 -7.914912 3.240344
v 5.405905 -9.553217 3.813921
v 5.905905 -9.553217 2.947896
v 4.912442 -7.914912 2.374319
v 5.405905 -9.553217 3.813921
v 6.399369 -11.191521 4.387497
v 6.899369 -11.191521 3.521472
v 5.905905 -9.553217 2.947896
v 1.038587 -1.361696 0.093192
v 2.032051 -3.000000 -0.480385
v 1.532051 -3.000000 -1.346410
v 0.538587 -1.361696 -0.772834
v 0.304931 0.976608 0.516768
v 1.038587 -1.361696 0.093192
v 0.538587 -1.361696 -0.772834
v -0.195069 0.976608 -0.349257
v 2.032051 -3.000000 -0.480385
v 3.025514 -4.638304 -1.053962
v 2.525514 -4.638304 -1.919987
v 1.532051 -3.000000 -1.346410
v 3.025514 -4.638304 -1.053962
v 4.018978 -6.276608 -1.627538
v 3.518978 -6.276608 -2.493564
v 2.525514 -4.638304 -1.919987
v 4.018978 -6.276608 -1.627538
v 5.012442 -7.914912 -2.201115
v 4.512442 -7.914912 -3.067140
v 3.518978 -6.276608 -2.493564
v 5.012442 -7.914912 -2.201115
v 6.005905 -9.553217 -2.774691
v 5.505905 -9.553217 -3.640717
v 4.512442 -7.914912 -3.067140
v 6.005905 -9.553217 -2.774691
v 6.999369 -11.191521 -3.348269
v 6.499369 -11.191521 -4.214293
v 5.505905 -9.553217 -3.640717
v 0.600000 -1.361696 -0.852847
v 0.600000 -3.000000 -2.000000
v -0.400000 -3.000000 -2.000000
v -0.400000 -1.361696 -0.852847
v 0.600000 0.976608 -0.005694
v 0.600000 -1.361696 -0.852847
v -0.400000 -1.361696 -0.852847
v -0.400000 0.976608 -0.005694
v 0.600000 -3.000000 -2.000000
v 0.599999 -4.638304 -3.147153
v -0.400001 -4.638304 -3.147153
v -0.400000 -3.000000 -2.000000
v 0.599999 -4.638304 -3.147153
v 0.599999 -6.276608 -4.294306
v -0.400001 -6.276608 -4.294306
v -0.400001 -4.638304 -3.147153
v 0.599999 -6.276608 -4.294306
v 0.599998 -7.914912 -5.441460
v -0.400001 -7.914912 -5.441459
v -0.400001 -6.276608 -4.294306
v 0.599998 -7.914912 -5.441460
v 0.599999 -9.553217 -6.588612
v -0.400001 -9.553217 -6.588612
v -0.400001 -7.914912 -5.441459
v 0.599999 -9.553217 -6.588612
v 0.599998 -11.191521 -7.735765
v -0.400001 -11.191521 -7.735765
v -0.400001 -9.553217 -6.588612
v -0.438587 -1.361696 -0.946039
v -1.432051 -3.000000 -1.519615
v -1.932051 -3.000000 -0.653590
v -0.938587 -1.361696 -0.080013
v 0.295069 0.976608 -0.522462
v -0.438587 -1.361696 -0.946039
v -0.938587 -1.361696 -0.080013
v -0.204931 0.976608 0.343563
v -1.432051 -3.000000 -1.519615
v -2.425515 -4.638304 -2.093191
v -2.925515 -4.638304 -1.227166
v -1.932051 -3.000000 -0.653590
v -2.425515 -4.638304 -2.093191
v -3.418979 -6.276608 -2.666768
v -3.918979 -6.276608 -1.800742
v -2.925515 -4.638304 -1.227166
v -3.418979 -6.276608 -2.666768
v -4.412443 -7.914912 -3.240344
v -4.912442 -7.914912 -2.374319
v -3.918979 -6.276608 -1.800742
v -4.412443 -7.914912 -3.240344
v -5.405906 -9.553217 -3.813920
v -5.905906 -9.553217 -2.947895
v -4.912442 -7.914912 -2.374319
v -5.405906 -9.553217 -3.813920
v -6.399371 -11.191521 -4.387496
v -6.899370 -11.191521 -3.521472
v -5.905906 -9.553217 -2.947895
v -1.038587 -1.361696 -0.093192
v -2.032051 -3.000000 0.480386
v -1.532051 -3.000000 1.346410
v -0.538587 -1.361696 0.772834
v -0.304931 0.976608 -0.516768
v -1.038587 -1.361696 -0.093192
v -0.538587 -1.361696 0.772834
v 0.195069 0.976608 0.349257
v -2.032051 -3.000000 0.480386
v -3.025515 -4.638304 1.053962
v -2.525514 -4.638304 1.919987
v -1.532051 -3.000000 1.346410
v -3.025515 -4.638304 1.053962
v -4.018978 -6.276608 1.627539
v -3.518978 -6.276608 2.493564
v -2.525514 -4.638304 1.919987
v -4.018978 -6.276608 1.627539
v -5.012442 -7.914912 2.201117
v -4.512441 -7.914912 3.067141
v -3.518978 -6.276608 2.493564
v -5.012442 -7.914912 2.201117
v -6.005905 -9.553217 2.774693
v -5.505905 -9.553217 3.640718
v -4.512441 -7.914912 3.067141
v -6.005905 -9.553217 2.774693
v -6.999369 -11.191521 3.348270
v -6.499369 -11.191521 4.214294
v -5.505905 -9.553217 3.640718
v 0.000000 -1.500000 -1.500000
v 0.000000 1.500000 -1.500000
v 1.299038 1.500000 -0.750000
v 1.299038 -1.500000 -0.750000
v 1.299038 -1.500000 -0.750000
v 1.299038 1.500000 -0.750000
v 1.299038 1.500000 0.750000
v 1.299038 -1.500000 0.750000
v 1.299038 -1.500000 0.750000
v 1.299038 1.500000 0.750000
v -0.000000 1.500000 1.500000
v -0.000000 -1.500000 1.500000
v -0.000000 -1.500000 1.500000
v -0.000000 1.500000 1.500000
v -1.299038 1.500000 0.750000
v -1.299038 -1.500000 0.750000
v 1.299038 1.500000 -0.750000
v 0.000000 1.500000 -1.500000
v -1.299038 1.500000 -0.750000
v -1.299038 1.500000 0.750000
v -0.000000 1.500000 1.500000
v 1.299038 1.500000 0.750000
v -1.299038 -1.500000 0.750000
v -1.299038 1.500000 0.750000
v -1.299038 1.500000 -0.750000
v -1.299038 -1.500000 -0.750000
v -1.299038 -1.500000 -0.750000
v -1.299038 1.500000 -0.750000
v 0.000000 1.500000 -1.500000
v 0.000000 -1.500000 -1.500000
v 0.000000 -1.500000 -1.500000
v 1.299038 -1.500000 -0.750000
v 1.299038 -1.500000 0.750000
v -0.000000 -1.500000 1.500000
v -1.299038 -1.500000 0.750000
v -1.299038 -1.500000 -0.750000
vt 0.225000 0.531250
vt 0.225000 0.500000
vt 0.025000 0.500000
vt 0.025000 0.531250
vt 0.225000 0.531250
vt 0.225000 0.500000
vt 0.025000 0.500000
vt 0.025000 0.531250
vt 0.225000 0.531250
vt 0.225000 0.500000
vt 0.025000 0.500000
vt 0.025000 0.531250
vt 0.225000 0.531250
vt 0.225000 0.500000
vt 0.025000 0.500000
vt 0.025000 0.531250
vt 0.025000 0.531250
vt 0.225000 0.531250
vt 0.225000 0.500009
vt 0.025000 0.500009
vt 0.225000 0.531250
vt 0.225000 0.500000
vt 0.025000 0.500000
vt 0.025000 0.531250
vt 0.225000 0.531250
vt 0.225000 0.500000
vt 0.025000 0.500000
vt 0.025000 0.531250
vt 0.025000 0.531246
vt 0.225000 0.531246
vt 0.225000 0.499991
vt 0.025000 0.499991
vt 0.217764 0.547719
vt 0.033190 0.547719
vt 0.005477 0.500000
vt 0.245477 0.500000
vt 0.033190 0.547719
vt 0.217764 0.547719
vt 0.245477 0.500000
vt 0.005477 0.500000
vt 0.217764 0.547719
vt 0.033190 0.547719
vt 0.005477 0.500000
vt 0.245477 0.500000
vt 0.033190 0.547719
vt 0.217764 0.547719
vt 0.245477 0.500000
vt 0.005477 0.500000
vt 0.217764 0.547719
vt 0.033190 0.547719
vt 0.005477 0.500000
vt 0.245477 0.500000
vt 0.033190 0.547719
vt 0.217764 0.547719
vt 0.245477 0.500000
vt 0.005477 0.500000
vt 0.217764 0.547719
vt 0.033190 0.547719
vt 0.005477 0.500000
vt 0.245477 0.500000
vt 0.033190 0.547719
vt 0.217764 0.547719
vt 0.245477 0.500000
vt 0.005477 0.500000
vt 0.217764 0.547719
vt 0.033190 0.547719
vt 0.005477 0.500000
vt 0.245477 0.500000
vt 0.033190 0.547719
vt 0.217764 0.547719
vt 0.245477 0.500000
vt 0.005477 0.500000
vt 0.217764 0.547719
vt 0.033190 0.547719
vt 0.005477 0.500000
vt 0.245477 0.500000
vt 0.033190 0.547719
vt 0.217764 0.547719
vt 0.245477 0.500000
vt 0.005477 0.500000
vt 0.025000 0.531250
vt 0.225000 0.531250
vt 0.225000 0.499996
vt 0.025000 0.499996
vt 0.025000 0.531250
vt 0.225000 0.531250
vt 0.225000 0.499996
vt 0.025000 0.499996
vt 0.025000 0.531237
vt 0.225000 0.531237
vt 0.225000 0.499996
vt 0.025000 0.499996
vt 0.025000 0.531250
vt 0.225000 0.531250
vt 0.225000 0.499996
vt 0.025000 0.499995
vt 0.225000 0.500000
vt 0.225000 0.531250
vt 0.025000 0.531250
vt 0.025000 0.500000
vt 0.225000 0.500000
vt 0.225000 0.531250
vt 0.025000 0.531250
vt 0.025000 0.500000
vt 0.225000 0.500000
vt 0.225000 0.531250
vt 0.025000 0.531250
vt 0.025000 0.500000
vt 0.225000 0.500000
vt 0.225000 0.531250
vt 0.025000 0.531250
vt 0.025000 0.500000
vt 0.225000 0.500000
vt 0.225000 0.531250
vt 0.025000 0.531250
vt 0.025000 0.500000
vt 0.225000 0.500000
vt 0.225000 0.531250
vt 0.025000 0.531250
vt 0.025000 0.500000
vt 0.225000 0.499991
vt 0.025000 0.499991
vt 0.025000 0.531246
vt 0.225000 0.531246
vt 0.225000 0.500017
vt 0.025000 0.500017
vt 0.025000 0.531259
vt 0.225000 0.531259
vt 0.225000 0.499991
vt 0.025000 0.499991
vt 0.025000 0.531246
vt 0.225000 0.531246
vt 0.225000 0.499991
vt 0.025000 0.499991
vt 0.025000 0.531246
vt 0.225000 0.531246
vt 0.225000 0.499996
vt 0.025000 0.499996
vt 0.025000 0.531250
vt 0.225000 0.531250
vt 0.225000 0.500017
vt 0.025000 0.500017
vt 0.025000 0.531259
vt 0.225000 0.531259
vt 0.493750 0.622113
vt 0.493750 0.504925
vt 0.454167 0.504925
vt 0.454167 0.622113
vt 0.454167 0.622113
vt 0.454167 0.504925
vt 0.414583 0.504925
vt 0.414583 0.622113
vt 0.414583 0.622113
vt 0.414583 0.504925
vt 0.375000 0.504925
vt 0.375000 0.622113
vt 0.375000 0.622113
vt 0.375000 0.504925
vt 0.335417 0.504925
vt 0.335417 0.622113
vt 0.434236 0.589475
vt 0.375000 0.555275
vt 0.315764 0.589475
vt 0.315764 0.657875
vt 0.375000 0.692075
vt 0.434236 0.657875
vt 0.335417 0.622113
vt 0.335417 0.504925
vt 0.295833 0.504925
vt 0.295833 0.622113
vt 0.295833 0.622113
vt 0.295833 0.504925
vt 0.256250 0.504925
vt 0.256250 0.622113
vt 0.375000 0.555275
vt 0.434236 0.589475
vt 0.434236 0.657875
vt 0.375000 0.692075
vt 0.315764 0.657875
vt 0.315764 0.589475
vt 0.295833 0.623675
vt 0.295833 0.564300
vt 0.256250 0.564300
vt 0.256250 0.623675
vt 0.335417 0.623675
vt 0.335417 0.564300
vt 0.295833 0.564300
vt 0.295833 0.623675
vt 0.375000 0.623675
vt 0.375000 0.564300
vt 0.335417 0.564300
vt 0.335417 0.623675
vt 0.414583 0.623675
vt 0.414583 0.564300
vt 0.375000 0.564300
vt 0.375000 0.623675
vt 0.454167 0.623675
vt 0.454167 0.564300
vt 0.414583 0.564300
vt 0.414583 0.623675
vt 0.493750 0.623675
vt 0.493750 0.564300
vt 0.454167 0.564300
vt 0.454167 0.623675
vt 0.493750 0.622113
vt 0.493750 0.504925
vt 0.454167 0.504925
vt 0.454167 0.622113
vt 0.454167 0.622113
vt 0.454167 0.504925
vt 0.414583 0.504925
vt 0.414583 0.622113
vt 0.414583 0.622113
vt 0.414583 0.504925
vt 0.375000 0.504925
vt 0.375000 0.622113
vt 0.375000 0.622113
vt 0.375000 0.504925
vt 0.335417 0.504925
vt 0.335417 0.622113
vt 0.434236 0.589475
vt 0.375000 0.555275
vt 0.315764 0.589475
vt 0.315764 0.657875
vt 0.375000 0.692075
vt 0.434236 0.657875
vt 0.335417 0.622113
vt 0.335417 0.504925
vt 0.295833 0.504925
vt 0.295833 0.622113
vt 0.295833 0.622113
vt 0.295833 0.504925
vt 0.256250 0.504925
vt 0.256250 0.622113
vt 0.375000 0.555275
vt 0.434236 0.589475
vt 0.434236 0.657875
vt 0.375000 0.692075
vt 0.315764 0.657875
vt 0.315764 0.589475
vt 0.295833 0.623675
vt 0.295833 0.564300
vt 0.256250 0.564300
vt 0.256250 0.623675
vt 0.335417 0.623675
vt 0.335417 0.564300
vt 0.295833 0.564300
vt 0.295833 0.623675
vt 0.375000 0.623675
vt 0.375000 0.564300
vt 0.335417 0.564300
vt 0.335417 0.623675
vt 0.414583 0.623675
vt 0.414583 0.564300
vt 0.375000 0.564300
vt 0.375000 0.623675
vt 0.454167 0.623675
vt 0.454167 0.564300
vt 0.414583 0.564300
vt 0.414583 0.623675
vt 0.493750 0.623675
vt 0.493750 0.564300
vt 0.454167 0.564300
vt 0.454167 0.623675
vt 0.493750 0.622113
vt 0.493750 0.504925
vt 0.454167 0.504925
vt 0.454167 0.622113
vt 0.454167 0.622113
vt 0.454167 0.504925
vt 0.414583 0.504925
vt 0.414583 0.622113
vt 0.414583 0.622113
vt 0.414583 0.504925
vt 0.375000 0.504925
vt 0.375000 0.622113
vt 0.375000 0.622113
vt 0.375000 0.504925
vt 0.335417 0.504925
vt 0.335417 0.622113
vt 0.434236 0.589475
vt 0.375000 0.555275
vt 0.315764 0.589475
vt 0.315764 0.657875
vt 0.375000 0.692075
vt 0.434236 0.657875
vt 0.335417 0.622113
vt 0.335417 0.504925
vt 0.295833 0.504925
vt 0.295833 0.622113
vt 0.295833 0.622113
vt 0.295833 0.504925
vt 0.256250 0.504925
vt 0.256250 0.622113
vt 0.375000 0.555275
vt 0.434236 0.589475
vt 0.434236 0.657875
vt 0.375000 0.692075
vt 0.315764 0.657875
vt 0.315764 0.589475
vt 0.295833 0.623675
vt 0.295833 0.564300
vt 0.256250 0.564300
vt 0.256250 0.623675
vt 0.335417 0.623675
vt 0.335417 0.564300
vt 0.295833 0.564300
vt 0.295833 0.623675
vt 0.375000 0.623675
vt 0.375000 0.564300
vt 0.335417 0.564300
vt 0.335417 0.623675
vt 0.414583 0.623675
vt 0.414583 0.564300
vt 0.375000 0.564300
vt 0.375000 0.623675
vt 0.454167 0.623675
vt 0.454167 0.564300
vt 0.414583 0.564300
vt 0.414583 0.623675
vt 0.493750 0.623675
vt 0.493750 0.564300
vt 0.454167 0.564300
vt 0.454167 0.623675
vt 0.493750 0.622113
vt 0.493750 0.504925
vt 0.454167 0.504925
vt 0.454167 0.622113
vt 0.454167 0.622113
vt 0.454167 0.504925
vt 0.414583 0.504925
vt 0.414583 0.622113
vt 0.414583 0.622113
vt 0.414583 0.504925
vt 0.375000 0.504925
vt 0.375000 0.622113
vt 0.375000 0.622113
vt 0.375000 0.504925
vt 0.335417 0.504925
vt 0.335417 0.622113
vt 0.434236 0.589475
vt 0.375000 0.555275
vt 0.315764 0.589475
vt 0.315764 0.657875
vt 0.375000 0.692075
vt 0.434236 0.657875
vt 0.335417 0.622113
vt 0.335417 0.504925
vt 0.295833 0.504925
vt 0.295833 0.622113
vt 0.295833 0.622113
vt 0.295833 0.504925
vt 0.256250 0.504925
vt 0.256250 0.622113
vt 0.375000 0.555275
vt 0.434236 0.589475
vt 0.434236 0.657875
vt 0.375000 0.692075
vt 0.315764 0.657875
vt 0.315764 0.589475
vt 0.295833 0.623675
vt 0.295833 0.564300
vt 0.256250 0.564300
vt 0.256250 0.623675
vt 0.335417 0.623675
vt 0.335417 0.564300
vt 0.295833 0.564300
vt 0.295833 0.623675
vt 0.375000 0.623675
vt 0.375000 0.564300
vt 0.335417 0.564300
vt 0.335417 0.623675
vt 0.414583 0.623675
vt 0.414583 0.564300
vt 0.375000 0.564300
vt 0.375000 0.623675
vt 0.454167 0.623675
vt 0.454167 0.564300
vt 0.414583 0.564300
vt 0.414583 0.623675
vt 0.493750 0.623675
vt 0.493750 0.564300
vt 0.454167 0.564300
vt 0.454167 0.623675
vt 0.493750 0.622113
vt 0.493750 0.504925
vt 0.454167 0.504925
vt 0.454167 0.622113
vt 0.454167 0.622113
vt 0.454167 0.504925
vt 0.414583 0.504925
vt 0.414583 0.622113
vt 0.414583 0.622113
vt 0.414583 0.504925
vt 0.375000 0.504925
vt 0.375000 0.622113
vt 0.375000 0.622113
vt 0.375000 0.504925
vt 0.335417 0.504925
vt 0.335417 0.622113
vt 0.434236 0.589475
vt 0.375000 0.555275
vt 0.315764 0.589475
vt 0.315764 0.657875
vt 0.375000 0.692075
vt 0.434236 0.657875
vt 0.335417 0.622113
vt 0.335417 0.504925
vt 0.295833 0.504925
vt 0.295833 0.622113
vt 0.295833 0.622113
vt 0.295833 0.504925
vt 0.256250 0.504925
vt 0.256250 0.622113
vt 0.375000 0.555275
vt 0.434236 0.589475
vt 0.434236 0.657875
vt 0.375000 0.692075
vt 0.315764 0.657875
vt 0.315764 0.589475
vt 0.295833 0.623675
vt 0.295833 0.564300
vt 0.256250 0.564300
vt 0.256250 0.623675
vt 0.335417 0.623675
vt 0.335417 0.564300
vt 0.295833 0.564300
vt 0.295833 0.623675
vt 0.375000 0.623675
vt 0.375000 0.564300
vt 0.335417 0.564300
vt 0.335417 0.623675
vt 0.414583 0.623675
vt 0.414583 0.564300
vt 0.375000 0.564300
vt 0.375000 0.623675
vt 0.454167 0.623675
vt 0.454167 0.564300
vt 0.414583 0.564300
vt 0.414583 0.623675
vt 0.493750 0.623675
vt 0.493750 0.564300
vt 0.454167 0.564300
vt 0.454167 0.623675
vt 0.493750 0.622113
vt 0.493750 0.504925
vt 0.454167 0.504925
vt 0.454167 0.622113
vt 0.454167 0.622113
vt 0.454167 0.504925
vt 0.414583 0.504925
vt 0.414583 0.622113
vt 0.414583 0.622113
vt 0.414583 0.504925
vt 0.375000 0.504925
vt 0.375000 0.622113
vt 0.375000 0.622113
vt 0.375000 0.504925
vt 0.335417 0.504925
vt 0.335417 0.622113
vt 0.434236 0.589475
vt 0.375000 0.555275
vt 0.315764 0.589475
vt 0.315764 0.657875
vt 0.375000 0.692075
vt 0.434236 0.657875
vt 0.335417 0.622113
vt 0.335417 0.504925
vt 0.295833 0.504925
vt 0.295833 0.622113
vt 0.295833 0.622113
vt 0.295833 0.504925
vt 0.256250 0.504925
vt 0.256250 0.622113
vt 0.375000 0.555275
vt 0.434236 0.589475
vt 0.434236 0.657875
vt 0.375000 0.692075
vt 0.315764 0.657875
vt 0.315764 0.589475
vt 0.295833 0.623675
vt 0.295833 0.564300
vt 0.256250 0.564300
vt 0.256250 0.623675
vt 0.335417 0.623675
vt 0.335417 0.564300
vt 0.295833 0.564300
vt 0.295833 0.623675
vt 0.375000 0.623675
vt 0.375000 0.564300
vt 0.335417 0.564300
vt 0.335417 0.623675
vt 0.414583 0.623675
vt 0.414583 0.564300
vt 0.375000 0.564300
vt 0.375000 0.623675
vt 0.454167 0.623675
vt 0.454167 0.564300
vt 0.414583 0.564300
vt 0.414583 0.623675
vt 0.493750 0.623675
vt 0.493750 0.564300
vt 0.454167 0.564300
vt 0.454167 0.623675
vt 0.000000 0.700000
vt 1.000000 0.700000
vt 1.000000 0.300000
vt 0.000000 0.300000
vt 0.000000 0.700000
vt 1.000000 0.700000
vt 1.000000 0.300000
vt 0.000000 0.300000
vt 0.000000 0.700000
vt 1.000000 0.700000
vt 1.000000 0.300000
vt 0.000000 0.300000
vt 0.000000 0.700000
vt 1.000000 0.700000
vt 1.000000 0.300000
vt 0.000000 0.300000
vt 0.000000 0.700000
vt 1.000000 0.700000
vt 1.000000 0.300000
vt 0.000000 0.300000
vt 0.000000 0.700000
vt 1.000000 0.700000
vt 1.000000 0.300000
vt 0.000000 0.300000
vt 0.000000 0.700000
vt 1.000000 0.700000
vt 1.000000 0.300000
vt 0.000000 0.300000
vt 0.000000 0.700000
vt 1.000000 0.700000
vt 1.000000 0.300000
vt 0.000000 0.300000
vt 0.000000 0.700000
vt 1.000000 0.700000
vt 1.000000 0.300000
vt 0.000000 0.300000
vt 0.000000 0.700000
vt 1.000000 0.700000
vt 1.000000 0.300000
vt 0.000000 0.300000
vt 0.000000 0.700000
vt 1.000000 0.700000
vt 1.000000 0.300000
vt 0.000000 0.300000
vt 0.000000 0.700000
vt 1.000000 0.700000
vt 1.000000 0.300000
vt 0.000000 0.300000
vt 0.000000 0.700000
vt 1.000000 0.700000
vt 1.000000 0.300000
vt 0.000000 0.300000
vt 0.000000 0.700000
vt 1.000000 0.700000
vt 1.000000 0.300000
vt 0.000000 0.300000
vt 0.000000 0.700000
vt 1.000000 0.700000
vt 1.000000 0.300000
vt 0.000000 0.300000
vt 0.000000 0.700000
vt 1.000000 0.700000
vt 1.000000 0.300000
vt 0.000000 0.300000
vt 0.000000 0.700000
vt 1.000000 0.700000
vt 1.000000 0.300000
vt 0.000000 0.300000
vt 0.000000 0.700000
vt 1.000000 0.700000
vt 1.000000 0.300000
vt 0.000000 0.300000
vt 0.000000 0.700000
vt 1.000000 0.700000
vt 1.000000 0.300000
vt 0.000000 0.300000
vt 0.000000 0.700000
vt 1.000000 0.700000
vt 1.000000 0.300000
vt 0.000000 0.300000
vt 0.000000 0.700000
vt 1.000000 0.700000
vt 1.000000 0.300000
vt 0.000000 0.300000
vt 0.000000 0.700000
vt 1.000000 0.700000
vt 1.000000 0.300000
vt 0.000000 0.300000
vt 0.000000 0.700000
vt 1.000000 0.700000
vt 1.000000 0.300000
vt 0.000000 0.300000
vt 0.000000 0.700000
vt 1.000000 0.700000
vt 1.000000 0.300000
vt 0.000000 0.300000
vt 0.000000 0.700000
vt 1.000000 0.700000
vt 1.000000 0.300000
vt 0.000000 0.300000
vt 0.000000 0.700000
vt 1.000000 0.700000
vt 1.000000 0.300000
vt 0.000000 0.300000
vt 0.000000 0.700000
vt 1.000000 0.700000
vt 1.000000 0.300000
vt 0.000000 0.300000
vt 0.000000 0.700000
vt 1.000000 0.700000
vt 1.000000 0.300000
vt 0.000000 0.300000
vt 0.000000 0.700000
vt 1.000000 0.700000
vt 1.000000 0.300000
vt 0.000000 0.300000
vt 0.000000 0.700000
vt 1.000000 0.700000
vt 1.000000 0.300000
vt 0.000000 0.300000
vt 0.000000 0.700000
vt 1.000000 0.700000
vt 1.000000 0.300000
vt 0.000000 0.300000
vt 0.000000 0.700000
vt 1.000000 0.700000
vt 1.000000 0.300000
vt 0.000000 0.300000
vt 0.000000 0.700000
vt 1.000000 0.700000
vt 1.000000 0.300000
vt 0.000000 0.300000
vt 0.000000 0.700000
vt 1.000000 0.700000
vt 1.000000 0.300000
vt 0.000000 0.300000
vt 0.000000 0.700000
vt 1.000000 0.700000
vt 1.000000 0.300000
vt 0.000000 0.300000
vt 0.000000 0.700000
vt 1.000000 0.700000
vt 1.000000 0.300000
vt 0.000000 0.300000
vt 0.000000 0.700000
vt 1.000000 0.700000
vt 1.000000 0.300000
vt 0.000000 0.300000
vt 0.000000 0.700000
vt 1.000000 0.700000
vt 1.000000 0.300000
vt 0.000000 0.300000
vt 0.000000 0.700000
vt 1.000000 0.700000
vt 1.000000 0.300000
vt 0.000000 0.300000
vt 0.000000 0.700000
vt 1.000000 0.700000
vt 1.000000 0.300000
vt 0.000000 0.300000
vt 0.000000 0.700000
vt 1.000000 0.700000
vt 1.000000 0.300000
vt 0.000000 0.300000
vt 0.000000 0.700000
vt 1.000000 0.700000
vt 1.000000 0.300000
vt 0.000000 0.300000
vt 0.225000 0.750000
vt 0.225000 0.500000
vt 0.191667 0.500000
vt 0.191667 0.750000
vt 0.191667 0.750000
vt 0.191667 0.500000
vt 0.158333 0.500000
vt 0.158333 0.750000
vt 0.158333 0.750000
vt 0.158333 0.500000
vt 0.125000 0.500000
vt 0.125000 0.750000
vt 0.125000 0.750000
vt 0.125000 0.500000
vt 0.091667 0.500000
vt 0.091667 0.750000
vt 0.208138 0.577000
vt 0.125000 0.529000
vt 0.041862 0.577000
vt 0.041862 0.673000
vt 0.125000 0.721000
vt 0.208138 0.673000
vt 0.091667 0.750000
vt 0.091667 0.500000
vt 0.058333 0.500000
vt 0.058333 0.750000
vt 0.058333 0.750000
vt 0.058333 0.500000
vt 0.025000 0.500000
vt 0.025000 0.750000
vt 0.125000 0.529000
vt 0.208138 0.577000
vt 0.208138 0.673000
vt 0.125000 0.721000
vt 0.041862 0.673000
vt 0.041862 0.577000
vn 0.500000 0.000000 -0.866025
vn 0.500000 0.000000 -0.866025
vn 0.500000 0.000000 -0.866025
vn 0.500000 0.000000 -0.866025
vn 1.000000 0.000000 0.000000
vn 1.000000 0.000000 0.000000
vn 1.000000 0.000000 0.000000
vn 1.000000 0.000000 0.000000
vn 0.500000 0.000000 0.866025
vn 0.500000 0.000000 0.866025
vn 0.500000 0.000000 0.866025
vn 0.500000 0.000000 0.866025
vn -0.500000 0.000000 0.866025
vn -0.500000 0.000000 0.866025
vn -0.500000 0.000000 0.866025
vn -0.500000 0.000000 0.866025
vn -0.500000 0.000000 0.866025
vn -0.500000 0.000000 0.866025
vn -0.500000 0.000000 0.866025
vn -0.500000 0.000000 0.866025
vn -1.000000 0.000000 0.000000
vn -1.000000 0.000000 0.000000
vn -1.000000 0.000000 0.000000
vn -1.000000 0.000000 0.000000
vn -0.500000 0.000000 -0.866025
vn -0.500000 0.000000 -0.866025
vn -0.500000 0.000000 -0.866025
vn -0.500000 0.000000 -0.866025
vn 0.500000 0.000000 0.866026
vn 0.500000 0.000000 0.866026
vn 0.500000 0.000000 0.866026
vn 0.500000 0.000000 0.866026
vn -0.000000 -1.000000 0.000000
vn -0.000000 -1.000000 0.000000
vn -0.000000 -1.000000 0.000000
vn -0.000000 -1.000000 0.000000
vn 0.000000 1.000000 0.000000
vn 0.000000 1.000000 0.000000
vn 0.000000 1.000000 0.000000
vn 0.000000 1.000000 0.000000
vn 0.000000 -1.000000 0.000000
vn 0.000000 -1.000000 0.000000
vn 0.000000 -1.000000 0.000000
vn 0.000000 -1.000000 0.000000
vn 0.000000 1.000000 0.000000
vn 0.000000 1.000000 0.000000
vn 0.000000 1.000000 0.000000
vn 0.000000 1.000000 0.000000
vn 0.000000 -1.000000 0.000000
vn 0.000000 -1.000000 0.000000
vn 0.000000 -1.000000 0.000000
vn 0.000000 -1.000000 0.000000
vn 0.000000 1.000000 0.000000
vn 0.000000 1.000000 0.000000
vn 0.000000 1.000000 0.000000
vn 0.000000 1.000000 0.000000
vn 0.000000 -1.000000 0.000000
vn 0.000000 -1.000000 0.000000
vn 0.000000 -1.000000 0.000000
vn 0.000000 -1.000000 0.000000
vn 0.000000 1.000000 0.000000
vn 0.000000 1.000000 0.000000
vn 0.000000 1.000000 0.000000
vn 0.000000 1.000000 0.000000
vn 0.000000 -1.000000 0.000000
vn 0.000000 -1.000000 0.000000
vn 0.000000 -1.000000 0.000000
vn 0.000000 -1.000000 0.000000
vn 0.000000 1.000000 0.000000
vn 0.000000 1.000000 0.000000
vn 0.000000 1.000000 0.000000
vn 0.000000 1.000000 0.000000
vn 0.000000 -1.000000 0.000000
vn 0.000000 -1.000000 0.000000
vn 0.000000 -1.000000 0.000000
vn 0.000000 -1.000000 0.000000
vn 0.000000 1.000000 0.000000
vn 0.000000 1.000000 0.000000
vn 0.000000 1.000000 0.000000
vn 0.000000 1.000000 0.000000
vn -1.000000 0.000000 -0.000000
vn -1.000000 0.000000 -0.000000
vn -1.000000 0.000000 -0.000000
vn -1.000000 0.000000 -0.000000
vn -0.500000 0.000000 -0.866026
vn -0.500000 0.000000 -0.866026
vn -0.500000 0.000000 -0.866026
vn -0.500000 0.000000 -0.866026
vn 0.500000 0.000000 -0.866025
vn 0.500000 0.000000 -0.866025
vn 0.500000 0.000000 -0.866025
vn 0.500000 0.000000 -0.866025
vn 1.000000 0.000000 0.000000
vn 1.000000 0.000000 0.000000
vn 1.000000 0.000000 0.000000
vn 1.000000 0.000000 0.000000
vn -0.500000 0.000000 -0.866025
vn -0.500000 0.000000 -0.866025
vn -0.500000 0.000000 -0.866025
vn -0.500000 0.000000 -0.866025
vn -1.000000 0.000000 0.000000
vn -1.000000 0.000000 0.000000
vn -1.000000 0.000000 0.000000
vn -1.000000 0.000000 0.000000
vn -0.500000 0.000000 0.866025
vn -0.500000 0.000000 0.866025
vn -0.500000 0.000000 0.866025
vn -0.500000 0.000000 0.866025
vn 0.500000 0.000000 0.866026
vn 0.500000 0.000000 0.866026
vn 0.500000 0.000000 0.866026
vn 0.500000 0.000000 0.866026
vn 1.000000 0.000000 0.000000
vn 1.000000 0.000000 0.000000
vn 1.000000 0.000000 0.000000
vn 1.000000 0.000000 0.000000
vn 0.500000 0.000000 -0.866025
vn 0.500000 0.000000 -0.866025
vn 0.500000 0.000000 -0.866025
vn 0.500000 0.000000 -0.866025
vn 1.000000 0.000000 0.000000
vn 1.000000 0.000000 0.000000
vn 1.000000 0.000000 0.000000
vn 1.000000 0.000000 0.000000
vn 0.500000 0.000000 -0.866025
vn 0.500000 0.000000 -0.866025
vn 0.500000 0.000000 -0.866025
vn 0.500000 0.000000 -0.866025
vn -0.500000 0.000000 -0.866025
vn -0.500000 0.000000 -0.866025
vn -0.500000 0.000000 -0.866025
vn -0.500000 0.000000 -0.866025
vn -1.000000 0.000000 -0.000000
vn -1.000000 0.000000 -0.000000
vn -1.000000 0.000000 -0.000000
vn -1.000000 0.000000 -0.000000
vn 0.500000 0.000000 0.866025
vn 0.500000 0.000000 0.866025
vn 0.500000 0.000000 0.866025
vn 0.500000 0.000000 0.866025
vn -0.500000 0.000000 0.866026
vn -0.500000 0.000000 0.866026
vn -0.500000 0.000000 0.866026
vn -0.500000 0.000000 0.866026
vn -0.086359 0.000666 -0.996264
vn -0.086359 0.000666 -0.996264
vn -0.086359 0.000666 -0.996264
vn -0.086359 0.000666 -0.996264
vn 0.819149 0.002583 -0.573574
vn 0.819149 0.002583 -0.573574
vn 0.819149 0.002583 -0.573574
vn 0.819149 0.002583 -0.573574
vn 0.906645 0.000667 0.421893
vn 0.906645 0.000667 0.421893
vn 0.906645 0.000667 0.421893
vn 0.906645 0.000667 0.421893
vn 0.086308 0.000709 0.996268
vn 0.086308 0.000709 0.996268
vn 0.086308 0.000709 0.996268
vn 0.086308 0.000709 0.996268
vn -0.071394 0.996195 0.049990
vn -0.071394 0.996195 0.049990
vn -0.071394 0.996195 0.049990
vn -0.071394 0.996195 0.049990
vn -0.071394 0.996195 0.049990
vn -0.071394 0.996195 0.049990
vn -0.819149 0.002931 0.573574
vn -0.819149 0.002931 0.573574
vn -0.819149 0.002931 0.573574
vn -0.819149 0.002931 0.573574
vn -0.906667 0.000710 -0.421846
vn -0.906667 0.000710 -0.421846
vn -0.906667 0.000710 -0.421846
vn -0.906667 0.000710 -0.421846
vn 0.000000 -1.000000 0.000000
vn 0.000000 -1.000000 0.000000
vn 0.000000 -1.000000 0.000000
vn 0.000000 -1.000000 0.000000
vn 0.000000 -1.000000 0.000000
vn 0.000000 -1.000000 0.000000
vn -0.902928 0.086280 -0.421042
vn -0.902928 0.086280 -0.421042
vn -0.902928 0.086280 -0.421042
vn -0.902928 0.086280 -0.421042
vn -0.816097 0.086279 0.571438
vn -0.816097 0.086279 0.571438
vn -0.816097 0.086279 0.571438
vn -0.816097 0.086279 0.571438
vn 0.086831 0.086281 0.992480
vn 0.086831 0.086281 0.992480
vn 0.086831 0.086281 0.992480
vn 0.086831 0.086281 0.992480
vn 0.902928 0.086280 0.421042
vn 0.902928 0.086280 0.421042
vn 0.902928 0.086280 0.421042
vn 0.902928 0.086280 0.421042
vn 0.816097 0.086280 -0.571437
vn 0.816097 0.086280 -0.571437
vn 0.816097 0.086280 -0.571437
vn 0.816097 0.086280 -0.571437
vn -0.086831 0.086279 -0.992480
vn -0.086831 0.086279 -0.992480
vn -0.086831 0.086279 -0.992480
vn -0.086831 0.086279 -0.992480
vn -0.341263 0.000504 -0.939968
vn -0.341263 0.000504 -0.939968
vn -0.341263 0.000504 -0.939968
vn -0.341263 0.000504 -0.939968
vn 0.642787 0.001967 -0.766042
vn 0.642787 0.001967 -0.766042
vn 0.642787 0.001967 -0.766042
vn 0.642787 0.001967 -0.766042
vn 0.984947 0.000503 0.172854
vn 0.984947 0.000503 0.172854
vn 0.984947 0.000503 0.172854
vn 0.984947 0.000503 0.172854
vn 0.341226 0.000528 0.939981
vn 0.341226 0.000528 0.939981
vn 0.341226 0.000528 0.939981
vn 0.341226 0.000528 0.939981
vn -0.056022 0.996195 0.066765
vn -0.056022 0.996195 0.066765
vn -0.056022 0.996195 0.066765
vn -0.056022 0.996195 0.066765
vn -0.056022 0.996195 0.066765
vn -0.056022 0.996195 0.066765
vn -0.642787 0.002161 0.766042
vn -0.642787 0.002161 0.766042
vn -0.642787 0.002161 0.766042
vn -0.642787 0.002161 0.766042
vn -0.984954 0.000528 -0.172816
vn -0.984954 0.000528 -0.172816
vn -0.984954 0.000528 -0.172816
vn -0.984954 0.000528 -0.172816
vn -0.000000 -1.000000 0.000000
vn -0.000000 -1.000000 0.000000
vn -0.000000 -1.000000 0.000000
vn -0.000000 -1.000000 0.000000
vn -0.000000 -1.000000 0.000000
vn -0.000000 -1.000000 0.000000
vn -0.981135 0.086280 -0.173001
vn -0.981135 0.086280 -0.173001
vn -0.981135 0.086280 -0.173001
vn -0.981135 0.086280 -0.173001
vn -0.640390 0.086280 0.763188
vn -0.640390 0.086280 0.763188
vn -0.640390 0.086280 0.763188
vn -0.640390 0.086280 0.763188
vn 0.340744 0.086280 0.936189
vn 0.340744 0.086280 0.936189
vn 0.340744 0.086280 0.936189
vn 0.340744 0.086280 0.936189
vn 0.981135 0.086280 0.173001
vn 0.981135 0.086280 0.173001
vn 0.981135 0.086280 0.173001
vn 0.981135 0.086280 0.173001
vn 0.640391 0.086280 -0.763187
vn 0.640391 0.086280 -0.763187
vn 0.640391 0.086280 -0.763187
vn 0.640391 0.086280 -0.763187
vn -0.340745 0.086280 -0.936188
vn -0.340745 0.086280 -0.936188
vn -0.340745 0.086280 -0.936188
vn -0.340745 0.086280 -0.936188
vn -0.905968 0.000617 -0.423345
vn -0.905968 0.000617 -0.423345
vn -0.905968 0.000617 -0.423345
vn -0.905968 0.000617 -0.423345
vn -0.087155 0.002396 -0.996192
vn -0.087155 0.002396 -0.996192
vn -0.087155 0.002396 -0.996192
vn -0.087155 0.002396 -0.996192
vn 0.818692 0.000616 -0.574233
vn 0.818692 0.000616 -0.574233
vn 0.818692 0.000616 -0.574233
vn 0.818692 0.000616 -0.574233
vn 0.905948 0.000654 0.423388
vn 0.905948 0.000654 0.423388
vn 0.905948 0.000654 0.423388
vn 0.905948 0.000654 0.423388
vn 0.007596 0.996195 0.086824
vn 0.007596 0.996195 0.086824
vn 0.007596 0.996195 0.086824
vn 0.007596 0.996195 0.086824
vn 0.007596 0.996195 0.086824
vn 0.007596 0.996195 0.086824
vn 0.087155 0.002691 0.996191
vn 0.087155 0.002691 0.996191
vn 0.087155 0.002691 0.996191
vn 0.087155 0.002691 0.996191
vn -0.818664 0.000654 0.574272
vn -0.818664 0.000654 0.574272
vn -0.818664 0.000654 0.574272
vn -0.818664 0.000654 0.574272
vn -0.000000 -1.000000 0.000000
vn -0.000000 -1.000000 0.000000
vn -0.000000 -1.000000 0.000000
vn -0.000000 -1.000000 0.000000
vn -0.000000 -1.000000 0.000000
vn -0.000000 -1.000000 0.000000
vn -0.816098 0.086280 0.571437
vn -0.816098 0.086280 0.571437
vn -0.816098 0.086280 0.571437
vn -0.816098 0.086280 0.571437
vn 0.086831 0.086280 0.992480
vn 0.086831 0.086280 0.992480
vn 0.086831 0.086280 0.992480
vn 0.086831 0.086280 0.992480
vn 0.902928 0.086280 0.421043
vn 0.902928 0.086280 0.421043
vn 0.902928 0.086280 0.421043
vn 0.902928 0.086280 0.421043
vn 0.816097 0.086280 -0.571438
vn 0.816097 0.086280 -0.571438
vn 0.816097 0.086280 -0.571438
vn 0.816097 0.086280 -0.571438
vn -0.086830 0.086280 -0.992480
vn -0.086830 0.086280 -0.992480
vn -0.086830 0.086280 -0.992480
vn -0.086830 0.086280 -0.992480
vn -0.902928 0.086280 -0.421042
vn -0.902928 0.086280 -0.421042
vn -0.902928 0.086280 -0.421042
vn -0.902928 0.086280 -0.421042
vn 0.500702 0.000386 -0.865620
vn 0.500702 0.000386 -0.865620
vn 0.500702 0.000386 -0.865620
vn 0.500702 0.000386 -0.865620
vn 0.999999 0.001515 0.000000
vn 0.999999 0.001515 0.000000
vn 0.999999 0.001515 0.000000
vn 0.999999 0.001515 0.000000
vn 0.500702 0.000386 0.865620
vn 0.500702 0.000386 0.865620
vn 0.500702 0.000386 0.865620
vn 0.500702 0.000386 0.865620
vn -0.500728 0.000400 0.865605
vn -0.500728 0.000400 0.865605
vn -0.500728 0.000400 0.865605
vn -0.500728 0.000400 0.865605
vn -0.087155 0.996195 -0.000000
vn -0.087155 0.996195 -0.000000
vn -0.087155 0.996195 -0.000000
vn -0.087155 0.996195 -0.000000
vn -0.087155 0.996195 -0.000000
vn -0.087155 0.996195 -0.000000
vn -0.999999 0.001628 0.000000
vn -0.999999 0.001628 0.000000
vn -0.999999 0.001628 0.000000
vn -0.999999 0.001628 0.000000
vn -0.500727 0.000400 -0.865605
vn -0.500727 0.000400 -0.865605
vn -0.500727 0.000400 -0.865605
vn -0.500727 0.000400 -0.865605
vn -0.000000 -1.000000 0.000000
vn -0.000000 -1.000000 0.000000
vn -0.000000 -1.000000 0.000000
vn -0.000000 -1.000000 0.000000
vn -0.000000 -1.000000 0.000000
vn -0.000000 -1.000000 0.000000
vn -0.498135 0.086279 -0.862796
vn -0.498135 0.086279 -0.862796
vn -0.498135 0.086279 -0.862796
vn -0.498135 0.086279 -0.862796
vn -0.996271 0.086280 0.000000
vn -0.996271 0.086280 0.000000
vn -0.996271 0.086280 0.000000
vn -0.996271 0.086280 0.000000
vn -0.498136 0.086281 0.862796
vn -0.498136 0.086281 0.862796
vn -0.498136 0.086281 0.862796
vn -0.498136 0.086281 0.862796
vn 0.498136 0.086280 0.862796
vn 0.498136 0.086280 0.862796
vn 0.498136 0.086280 0.862796
vn 0.498136 0.086280 0.862796
vn 0.996271 0.086280 0.000000
vn 0.996271 0.086280 0.000000
vn 0.996271 0.086280 0.000000
vn 0.996271 0.086280 0.000000
vn 0.498135 0.086279 -0.862796
vn 0.498135 0.086279 -0.862796
vn 0.498135 0.086279 -0.862796
vn 0.498135 0.086279 -0.862796
vn -0.984947 0.000536 0.172856
vn -0.984947 0.000536 0.172856
vn -0.984947 0.000536 0.172856
vn -0.984947 0.000536 0.172856
vn -0.642786 0.002092 -0.766043
vn -0.642786 0.002092 -0.766043
vn -0.642786 0.002092 -0.766043
vn -0.642786 0.002092 -0.766043
vn 0.341264 0.000536 -0.939967
vn 0.341264 0.000536 -0.939967
vn 0.341264 0.000536 -0.939967
vn 0.341264 0.000536 -0.939967
vn 0.984954 0.000564 -0.172815
vn 0.984954 0.000564 -0.172815
vn 0.984954 0.000564 -0.172815
vn 0.984954 0.000564 -0.172815
vn 0.056023 0.996195 0.066765
vn 0.056023 0.996195 0.066765
vn 0.056023 0.996195 0.066765
vn 0.056023 0.996195 0.066765
vn 0.056023 0.996195 0.066765
vn 0.056023 0.996195 0.066765
vn 0.642786 0.002313 0.766042
vn 0.642786 0.002313 0.766042
vn 0.642786 0.002313 0.766042
vn 0.642786 0.002313 0.766042
vn -0.341225 0.000564 0.939982
vn -0.341225 0.000564 0.939982
vn -0.341225 0.000564 0.939982
vn -0.341225 0.000564 0.939982
vn 0.000000 -1.000000 0.000000
vn 0.000000 -1.000000 0.000000
vn 0.000000 -1.000000 0.000000
vn 0.000000 -1.000000 0.000000
vn 0.000000 -1.000000 0.000000
vn 0.000000 -1.000000 0.000000
vn -0.340745 0.086280 0.936188
vn -0.340745 0.086280 0.936188
vn -0.340745 0.086280 0.936188
vn -0.340745 0.086280 0.936188
vn 0.640390 0.086281 0.763188
vn 0.640390 0.086281 0.763188
vn 0.640390 0.086281 0.763188
vn 0.640390 0.086281 0.763188
vn 0.981135 0.086280 -0.173001
vn 0.981135 0.086280 -0.173001
vn 0.981135 0.086280 -0.173001
vn 0.981135 0.086280 -0.173001
vn 0.340745 0.086280 -0.936188
vn 0.340745 0.086280 -0.936188
vn 0.340745 0.086280 -0.936188
vn 0.340745 0.086280 -0.936188
vn -0.640390 0.086280 -0.763188
vn -0.640390 0.086280 -0.763188
vn -0.640390 0.086280 -0.763188
vn -0.640390 0.086280 -0.763188
vn -0.981135 0.086280 0.173001
vn -0.981135 0.086280 0.173001
vn -0.981135 0.086280 0.173001
vn -0.981135 0.086280 0.173001
vn -0.706535 0.000449 -0.707677
vn -0.706535 0.000449 -0.707677
vn -0.706535 0.000449 -0.707677
vn -0.706535 0.000449 -0.707677
vn 0.258819 0.001757 -0.965924
vn 0.258819 0.001757 -0.965924
vn 0.258819 0.001757 -0.965924
vn 0.258819 0.001757 -0.965924
vn 0.965716 0.000449 -0.259599
vn 0.965716 0.000449 -0.259599
vn 0.965716 0.000449 -0.259599
vn 0.965716 0.000449 -0.259599
vn 0.706511 0.000468 0.707702
vn 0.706511 0.000468 0.707702
vn 0.706511 0.000468 0.707702
vn 0.706511 0.000468 0.707702
vn -0.022557 0.996195 0.084186
vn -0.022557 0.996195 0.084186
vn -0.022557 0.996195 0.084186
vn -0.022557 0.996195 0.084186
vn -0.022557 0.996195 0.084186
vn -0.022557 0.996195 0.084186
vn -0.258819 0.001911 0.965924
vn -0.258819 0.001911 0.965924
vn -0.258819 0.001911 0.965924
vn -0.258819 0.001911 0.965924
vn -0.965707 0.000468 0.259633
vn -0.965707 0.000468 0.259633
vn -0.965707 0.000468 0.259633
vn -0.965707 0.000468 0.259633
vn 0.000000 -1.000000 0.000000
vn 0.000000 -1.000000 0.000000
vn 0.000000 -1.000000 0.000000
vn 0.000000 -1.000000 0.000000
vn 0.000000 -1.000000 0.000000
vn 0.000000 -1.000000 0.000000
vn -0.962324 0.086280 0.257854
vn -0.962324 0.086280 0.257854
vn -0.962324 0.086280 0.257854
vn -0.962324 0.086280 0.257854
vn -0.257854 0.086280 0.962324
vn -0.257854 0.086280 0.962324
vn -0.257854 0.086280 0.962324
vn -0.257854 0.086280 0.962324
vn 0.704470 0.086280 0.704470
vn 0.704470 0.086280 0.704470
vn 0.704470 0.086280 0.704470
vn 0.704470 0.086280 0.704470
vn 0.962324 0.086280 -0.257853
vn 0.962324 0.086280 -0.257853
vn 0.962324 0.086280 -0.257853
vn 0.962324 0.086280 -0.257853
vn 0.257854 0.086280 -0.962324
vn 0.257854 0.086280 -0.962324
vn 0.257854 0.086280 -0.962324
vn 0.257854 0.086280 -0.962324
vn -0.704470 0.086279 -0.704470
vn -0.704470 0.086279 -0.704470
vn -0.704470 0.086279 -0.704470
vn -0.704470 0.086279 -0.704470
vn 0.000000 0.573576 0.819152
vn 0.000000 0.573576 0.819152
vn 0.000000 0.573576 0.819152
vn 0.000000 0.573576 0.819152
vn 0.000000 0.340628 0.940198
vn 0.000000 0.340628 0.940198
vn 0.000000 0.340628 0.940198
vn 0.000000 0.340628 0.940198
vn 0.000000 0.573576 0.819152
vn 0.000000 0.573576 0.819152
vn 0.000000 0.573576 0.819152
vn 0.000000 0.573576 0.819152
vn 0.000000 0.573576 0.819152
vn 0.000000 0.573576 0.819152
vn 0.000000 0.573576 0.819152
vn 0.000000 0.573576 0.819152
vn 0.000000 0.573577 0.819152
vn 0.000000 0.573577 0.819152
vn 0.000000 0.573577 0.819152
vn 0.000000 0.573577 0.819152
vn 0.000000 0.573576 0.819152
vn 0.000000 0.573576 0.819152
vn 0.000000 0.573576 0.819152
vn 0.000000 0.573576 0.819152
vn 0.000000 0.573577 0.819152
vn 0.000000 0.573577 0.819152
vn 0.000000 0.573577 0.819152
vn 0.000000 0.573577 0.819152
vn 0.709407 0.573576 0.409576
vn 0.709407 0.573576 0.409576
vn 0.709407 0.573576 0.409576
vn 0.709407 0.573576 0.409576
vn 0.814235 0.340628 0.470099
vn 0.814235 0.340628 0.470099
vn 0.814235 0.340628 0.470099
vn 0.814235 0.340628 0.470099
vn 0.709407 0.573576 0.409576
vn 0.709407 0.573576 0.409576
vn 0.709407 0.573576 0.409576
vn 0.709407 0.573576 0.409576
vn 0.709407 0.573576 0.409576
vn 0.709407 0.573576 0.409576
vn 0.709407 0.573576 0.409576
vn 0.709407 0.573576 0.409576
vn 0.709406 0.573577 0.409576
vn 0.709406 0.573577 0.409576
vn 0.709406 0.573577 0.409576
vn 0.709406 0.573577 0.409576
vn 0.709407 0.573576 0.409576
vn 0.709407 0.573576 0.409576
vn 0.709407 0.573576 0.409576
vn 0.709407 0.573576 0.409576
vn 0.709407 0.573577 0.409576
vn 0.709407 0.573577 0.409576
vn 0.709407 0.573577 0.409576
vn 0.709407 0.573577 0.409576
vn 0.709406 0.573577 -0.409576
vn 0.709406 0.573577 -0.409576
vn 0.709406 0.573577 -0.409576
vn 0.709406 0.573577 -0.409576
vn 0.814235 0.340628 -0.470099
vn 0.814235 0.340628 -0.470099
vn 0.814235 0.340628 -0.470099
vn 0.814235 0.340628 -0.470099
vn 0.709406 0.573576 -0.409576
vn 0.709406 0.573576 -0.409576
vn 0.709406 0.573576 -0.409576
vn 0.709406 0.573576 -0.409576
vn 0.709406 0.573576 -0.409576
vn 0.709406 0.573576 -0.409576
vn 0.709406 0.573576 -0.409576
vn 0.709406 0.573576 -0.409576
vn 0.709406 0.573577 -0.409576
vn 0.709406 0.573577 -0.409576
vn 0.709406 0.573577 -0.409576
vn 0.709406 0.573577 -0.409576
vn 0.709407 0.573576 -0.409576
vn 0.709407 0.573576 -0.409576
vn 0.709407 0.573576 -0.409576
vn 0.709407 0.573576 -0.409576
vn 0.709406 0.573577 -0.409576
vn 0.709406 0.573577 -0.409576
vn 0.709406 0.573577 -0.409576
vn 0.709406 0.573577 -0.409576
vn -0.000000 0.573576 -0.819152
vn -0.000000 0.573576 -0.819152
vn -0.000000 0.573576 -0.819152
vn -0.000000 0.573576 -0.819152
vn -0.000000 0.340628 -0.940198
vn -0.000000 0.340628 -0.940198
vn -0.000000 0.340628 -0.940198
vn -0.000000 0.340628 -0.940198
vn -0.000000 0.573577 -0.819152
vn -0.000000 0.573577 -0.819152
vn -0.000000 0.573577 -0.819152
vn -0.000000 0.573577 -0.819152
vn 0.000000 0.573577 -0.819152
vn 0.000000 0.573577 -0.819152
vn 0.000000 0.573577 -0.819152
vn 0.000000 0.573577 -0.819152
vn -0.000000 0.573577 -0.819152
vn -0.000000 0.573577 -0.819152
vn -0.000000 0.573577 -0.819152
vn -0.000000 0.573577 -0.819152
vn -0.000000 0.573576 -0.819152
vn -0.000000 0.573576 -0.819152
vn -0.000000 0.573576 -0.819152
vn -0.000000 0.573576 -0.819152
vn -0.000000 0.573577 -0.819152
vn -0.000000 0.573577 -0.819152
vn -0.000000 0.573577 -0.819152
vn -0.000000 0.573577 -0.819152
vn -0.709406 0.573577 -0.409576
vn -0.709406 0.573577 -0.409576
vn -0.709406 0.573577 -0.409576
vn -0.709406 0.573577 -0.409576
vn -0.814236 0.340628 -0.470099
vn -0.814236 0.340628 -0.470099
vn -0.814236 0.340628 -0.470099
vn -0.814236 0.340628 -0.470099
vn -0.709407 0.573577 -0.409576
vn -0.709407 0.573577 -0.409576
vn -0.709407 0.573577 -0.409576
vn -0.709407 0.573577 -0.409576
vn -0.709407 0.573576 -0.409576
vn -0.709407 0.573576 -0.409576
vn -0.709407 0.573576 -0.409576
vn -0.709407 0.573576 -0.409576
vn -0.709406 0.573577 -0.409576
vn -0.709406 0.573577 -0.409576
vn -0.709406 0.573577 -0.409576
vn -0.709406 0.573577 -0.409576
vn -0.709407 0.573577 -0.409576
vn -0.709407 0.573577 -0.409576
vn -0.709407 0.573577 -0.409576
vn -0.709407 0.573577 -0.409576
vn -0.709407 0.573577 -0.409576
vn -0.709407 0.573577 -0.409576
vn -0.709407 0.573577 -0.409576
vn -0.709407 0.573577 -0.409576
vn -0.709406 0.573577 0.409576
vn -0.709406 0.573577 0.409576
vn -0.709406 0.573577 0.409576
vn -0.709406 0.573577 0.409576
vn -0.814235 0.340628 0.470099
vn -0.814235 0.340628 0.470099
vn -0.814235 0.340628 0.470099
vn -0.814235 0.340628 0.470099
vn -0.709406 0.573576 0.409576
vn -0.709406 0.573576 0.409576
vn -0.709406 0.573576 0.409576
vn -0.709406 0.573576 0.409576
vn -0.709407 0.573576 0.409576
vn -0.709407 0.573576 0.409576
vn -0.709407 0.573576 0.409576
vn -0.709407 0.573576 0.409576
vn -0.709406 0.573577 0.409576
vn -0.709406 0.573577 0.409576
vn -0.709406 0.573577 0.409576
vn -0.709406 0.573577 0.409576
vn -0.709406 0.573577 0.409576
vn -0.709406 0.573577 0.409576
vn -0.709406 0.573577 0.409576
vn -0.709406 0.573577 0.409576
vn -0.709406 0.573577 0.409576
vn -0.709406 0.573577 0.409576
vn -0.709406 0.573577 0.409576
vn -0.709406 0.573577 0.409576
vn 0.500000 0.000000 -0.866025
vn 0.500000 0.000000 -0.866025
vn 0.500000 0.000000 -0.866025
vn 0.500000 0.000000 -0.866025
vn 1.000000 0.000000 0.000000
vn 1.000000 0.000000 0.000000
vn 1.000000 0.000000 0.000000
vn 1.000000 0.000000 0.000000
vn 0.500000 0.000000 0.866026
vn 0.500000 0.000000 0.866026
vn 0.500000 0.000000 0.866026
vn 0.500000 0.000000 0.866026
vn -0.500000 0.000000 0.866025
vn -0.500000 0.000000 0.866025
vn -0.500000 0.000000 0.866025
vn -0.500000 0.000000 0.866025
vn 0.000000 1.000000 0.000000
vn 0.000000 1.000000 0.000000
vn 0.000000 1.000000 0.000000
vn 0.000000 1.000000 0.000000
vn 0.000000 1.000000 0.000000
vn 0.000000 1.000000 0.000000
vn -1.000000 0.000000 0.000000
vn -1.000000 0.000000 0.000000
vn -1.000000 0.000000 0.000000
vn -1.000000 0.000000 0.000000
vn -0.500000 0.000000 -0.866025
vn -0.500000 0.000000 -0.866025
vn -0.500000 0.000000 -0.866025
vn -0.500000 0.000000 -0.866025
vn 0.000000 -1.000000 0.000000
vn 0.000000 -1.000000 0.000000
vn 0.000000 -1.000000 0.000000
vn 0.000000 -1.000000 0.000000
vn 0.000000 -1.000000 0.000000
vn 0.000000 -1.000000 0.000000
f 1/1/1 2/2/2 3/3/3
f 1/1/1 3/3/3 4/4/4
f 5/5/5 6/6/6 7/7/7
f 5/5/5 7/7/7 8/8/8
f 9/9/9 10/10/10 11/11/11
f 9/9/9 11/11/11 12/12/12
f 13/13/13 14/14/14 15/15/15
f 13/13/13 15/15/15 16/16/16
f 17/17/17 18/18/18 19/19/19
f 17/17/17 19/19/19 20/20/20
f 21/21/21 22/22/22 23/23/23
f 21/21/21 23/23/23 24/24/24
f 25/25/25 26/26/26 27/27/27
f 25/25/25 27/27/27 28/28/28
f 29/29/29 30/30/30 31/31/31
f 29/29/29 31/31/31 32/32/32
f 33/33/33 34/34/34 35/35/35
f 33/33/33 35/35/35 36/36/36
f 37/37/37 38/38/38 39/39/39
f 37/37/37 39/39/39 40/40/40
f 41/41/41 42/42/42 43/43/43
f 41/41/41 43/43/43 44/44/44
f 45/45/45 46/46/46 47/47/47
f 45/45/45 47/47/47 48/48/48
f 49/49/49 50/50/50 51/51/51
f 49/49/49 51/51/51 52/52/52
f 53/53/53 54/54/54 55/55/55
f 53/53/53 55/55/55 56/56/56
f 57/57/57 58/58/58 59/59/59
f 57/57/57 59/59/59 60/60/60
f 61/61/61 62/62/62 63/63/63
f 61/61/61 63/63/63 64/64/64
f 65/65/65 66/66/66 67/67/67
f 65/65/65 67/67/67 68/68/68
f 69/69/69 70/70/70 71/71/71
f 69/69/69 71/71/71 72/72/72
f 73/73/73 74/74/74 75/75/75
f 73/73/73 75/75/75 76/76/76
f 77/77/77 78/78/78 79/79/79
f 77/77/77 79/79/79 80/80/80
f 81/81/81 82/82/82 83/83/83
f 81/81/81 83/83/83 84/84/84
f 85/85/85 86/86/86 87/87/87
f 85/85/85 87/87/87 88/88/88
f 89/89/89 90/90/90 91/91/91
f 89/89/89 91/91/91 92/92/92
f 93/93/93 94/94/94 95/95/95
f 93/93/93 95/95/95 96/96/96
f 97/97/97 98/98/98 99/99/99
f 97/97/97 99/99/99 100/100/100
f 101/101/101 102/102/102 103/103/103
f 101/101/101 103/103/103 104/104/104
f 105/105/105 106/106/106 107/107/107
f 105/105/105 107/107/107 108/108/108
f 109/109/109 110/110/110 111/111/111
f 109/109/109 111/111/111 112/112/112
f 113/113/113 114/114/114 115/115/115
f 113/113/113 115/115/115 116/116/116
f 117/117/117 118/118/118 119/119/119
f 117/117/117 119/119/119 120/120/120
f 121/121/121 122/122/122 123/123/123
f 121/121/121 123/123/123 124/124/124
f 125/125/125 126/126/126 127/127/127
f 125/125/125 127/127/127 128/128/128
f 129/129/129 130/130/130 131/131/131
f 129/129/129 131/131/131 132/132/132
f 133/133/133 134/134/134 135/135/135
f 133/133/133 135/135/135 136/136/136
f 137/137/137 138/138/138 139/139/139
f 137/137/137 139/139/139 140/140/140
f 141/141/141 142/142/142 143/143/143
f 141/141/141 143/143/143 144/144/144
f 145/145/145 146/146/146 147/147/147
f 145/145/145 147/147/147 148/148/148
f 149/149/149 150/150/150 151/151/151
f 149/149/149 151/151/151 152/152/152
f 153/153/153 154/154/154 155/155/155
f 153/153/153 155/155/155 156/156/156
f 157/157/157 158/158/158 159/159/159
f 157/157/157 159/159/159 160/160/160
f 161/161/161 162/162/162 163/163/163
f 161/161/161 163/163/163 164/164/164
f 161/161/161 164/164/164 165/165/165
f 161/161/161 165/165/165 166/166/166
f 167/167/167 168/168/168 169/169/169
f 167/167/167 169/169/169 170/170/170
f 171/171/171 172/172/172 173/173/173
f 171/171/171 173/173/173 174/174/174
f 175/175/175 176/176/176 177/177/177
f 175/175/175 177/177/177 178/178/178
f 175/175/175 178/178/178 179/179/179
f 175/175/175 179/179/179 180/180/180
f 181/181/181 182/182/182 183/183/183
f 181/181/181 183/183/183 184/184/184
f 185/185/185 186/186/186 187/187/187
f 185/185/185 187/187/187 188/188/188
f 189/189/189 190/190/190 191/191/191
f 189/189/189 191/191/191 192/192/192
f 193/193/193 194/194/194 195/195/195
f 193/193/193 195/195/195 196/196/196
f 197/197/197 198/198/198 199/199/199
f 197/197/197 199/199/199 200/200/200
f 201/201/201 202/202/202 203/203/203
f 201/201/201 203/203/203 204/204/204
f 205/205/205 206/206/206 207/207/207
f 205/205/205 207/207/207 208/208/208
f 209/209/209 210/210/210 211/211/211
f 209/209/209 211/211/211 212/212/212
f 213/213/213 214/214/214 215/215/215
f 213/213/213 215/215/215 216/216/216
f 217/217/217 218/218/218 219/219/219
f 217/217/217 219/219/219 220/220/220
f 221/221/221 222/222/222 223/223/223
f 221/221/221 223/223/223 224/224/224
f 221/221/221 224/224/224 225/225/225
f 221/221/221 225/225/225 226/226/226
f 227/227/227 228/228/228 229/229/229
f 227/227/227 229/229/229 230/230/230
f 231/231/231 232/232/232 233/233/233
f 231/231/231 233/233/233 234/234/234
f 235/235/235 236/236/236 237/237/237
f 235/235/235 237/237/237 238/238/238
f 235/235/235 238/238/238 239/239/239
f 235/235/235 239/239/239 240/240/240
f 241/241/241 242/242/242 243/243/243
f 241/241/241 243/243/243 244/244/244
f 245/245/245 246/246/246 247/247/247
f 245/245/245 247/247/247 248/248/248
f 249/249/249 250/250/250 251/251/251
f 249/249/249 251/251/251 252/252/252
f 253/253/253 254/254/254 255/255/255
f 253/253/253 255/255/255 256/256/256
f 257/257/257 258/258/258 259/259/259
f 257/257/257 259/259/259 260/260/260
f 261/261/261 262/262/262 263/263/263
f 261/261/261 263/263/263 264/264/264
f 265/265/265 266/266/266 267/267/267
f 265/265/265 267/267/267 268/268/268
f 269/269/269 270/270/270 271/271/271
f 269/269/269 271/271/271 272/272/272
f 273/273/273 274/274/274 275/275/275
f 273/273/273 275/275/275 276/276/276
f 277/277/277 278/278/278 279/279/279
f 277/277/277 279/279/279 280/280/280
f 281/281/281 282/282/282 283/283/283
f 281/281/281 283/283/283 284/284/284
f 281/281/281 284/284/284 285/285/285
f 281/281/281 285/285/285 286/286/286
f 287/287/287 288/288/288 289/289/289
f 287/287/287 289/289/289 290/290/290
f 291/291/291 292/292/292 293/293/293
f 291/291/291 293/293/293 294/294/294
f 295/295/295 296/296/296 297/297/297
f 295/295/295 297/297/297 298/298/298
f 295/295/295 298/298/298 299/299/299
f 295/295/295 299/299/299 300/300/300
f 301/301/301 302/302/302 303/303/303
f 301/301/301 303/303/303 304/304/304
f 305/305/305 306/306/306 307/307/307
f 305/305/305 307/307/307 308/308/308
f 309/309/309 310/310/310 311/311/311
f 309/309/309 311/311/311 312/312/312
f 313/313/313 314/314/314 315/315/315
f 313/313/313 315/315/315 316/316/316
f 317/317/317 318/318/318 319/319/319
f 317/317/317 319/319/319 320/320/320
f 321/321/321 322/322/322 323/323/323
f 321/321/321 323/323/323 324/324/324
f 325/325/325 326/326/326 327/327/327
f 325/325/325 327/327/327 328/328/328
f 329/329/329 330/330/330 331/331/331
f 329/329/329 331/331/331 332/332/332
f 333/333/333 334/334/334 335/335/335
f 333/333/333 335/335/335 336/336/336
f 337/337/337 338/338/338 339/339/339
f 337/337/337 339/339/339 340/340/340
f 341/341/341 342/342/342 343/343/343
f 341/341/341 343/343/343 344/344/344
f 341/341/341 344/344/344 345/345/345
f 341/341/341 345/345/345 346/346/346
f 347/347/347 348/348/348 349/349/349
f 347/347/347 349/349/349 350/350/350
f 351/351/351 352/352/352 353/353/353
f 351/351/351 353/353/353 354/354/354
f 355/355/355 356/356/356 357/357/357
f 355/355/355 357/357/357 358/358/358
f 355/355/355 358/358/358 359/359/359
f 355/355/355 359/359/359 360/360/360
f 361/361/361 362/362/362 363/363/363
f 361/361/361 363/363/363 364/364/364
f 365/365/365 366/366/366 367/367/367
f 365/365/365 367/367/367 368/368/368
f 369/369/369 370/370/370 371/371/371
f 369/369/369 371/371/371 372/372/372
f 373/373/373 374/374/374 375/375/375
f 373/373/373 375/375/375 376/376/376
f 377/377/377 378/378/378 379/379/379
f 377/377/377 379/379/379 380/380/380
f 381/381/381 382/382/382 383/383/383
f 381/381/381 383/383/383 384/384/384
f 385/385/385 386/386/386 387/387/387
f 385/385/385 387/387/387 388/388/388
f 389/389/389 390/390/390 391/391/391
f 389/389/389 391/391/391 392/392/392
f 393/393/393 394/394/394 395/395/395
f 393/393/393 395/395/395 396/396/396
f 397/397/397 398/398/398 399/399/399
f 397/397/397 399/399/399 400/400/400
f 401/401/401 402/402/402 403/403/403
f 401/401/401 403/403/403 404/404/404
f 401/401/401 404/404/404 405/405/405
f 401/401/401 405/405/405 406/406/406
f 407/407/407 408/408/408 409/409/409
f 407/407/407 409/409/409 410/410/410
f 411/411/411 412/412/412 413/413/413
f 411/411/411 413/413/413 414/414/414
f 415/415/415 416/416/416 417/417/417
f 415/415/415 417/417/417 418/418/418
f 415/415/415 418/418/418 419/419/419
f 415/415/415 419/419/419 420/420/420
f 421/421/421 422/422/422 423/423/423
f 421/421/421 423/423/423 424/424/424
f 425/425/425 426/426/426 427/427/427
f 425/425/425 427/427/427 428/428/428
f 429/429/429 430/430/430 431/431/431
f 429/429/429 431/431/431 432/432/432
f 433/433/433 434/434/434 435/435/435
f 433/433/433 435/435/435 436/436/436
f 437/437/437 438/438/438 439/439/439
f 437/437/437 439/439/439 440/440/440
f 441/441/441 442/442/442 443/443/443
f 441/441/441 443/443/443 444/444/444
f 445/445/445 446/446/446 447/447/447
f 445/445/445 447/447/447 448/448/448
f 449/449/449 450/450/450 451/451/451
f 449/449/449 451/451/451 452/452/452
f 453/453/453 454/454/454 455/455/455
f 453/453/453 455/455/455 456/456/456
f 457/457/457 458/458/458 459/459/459
f 457/457/457 459/459/459 460/460/460
f 461/461/461 462/462/462 463/463/463
f 461/461/461 463/463/463 464/464/464
f 461/461/461 464/464/464 465/465/465
f 461/461/461 465/465/465 466/466/466
f 467/467/467 468/468/468 469/469/469
f 467/467/467 469/469/469 470/470/470
f 471/471/471 472/472/472 473/473/473
f 471/471/471 473/473/473 474/474/474
f 475/475/475 476/476/476 477/477/477
f 475/475/475 477/477/477 478/478/478
f 475/475/475 478/478/478 479/479/479
f 475/475/475 479/479/479 480/480/480
f 481/481/481 482/482/482 483/483/483
f 481/481/481 483/483/483 484/484/484
f 485/485/485 486/486/486 487/487/487
f 485/485/485 487/487/487 488/488/488
f 489/489/489 490/490/490 491/491/491
f 489/489/489 491/491/491 492/492/492
f 493/493/493 494/494/494 495/495/495
f 493/493/493 495/495/495 496/496/496
f 497/497/497 498/498/498 499/499/499
f 497/497/497 499/499/499 500/500/500
f 501/501/501 502/502/502 503/503/503
f 501/501/501 503/503/503 504/504/504
f 505/505/505 506/506/506 507/507/507
f 505/505/505 507/507/507 508/508/508
f 509/509/509 510/510/510 511/511/511
f 509/509/509 511/511/511 512/512/512
f 513/513/513 514/514/514 515/515/515
f 513/513/513 515/515/515 516/516/516
f 517/517/517 518/518/518 519/519/519
f 517/517/517 519/519/519 520/520/520
f 521/521/521 522/522/522 523/523/523
f 521/521/521 523/523/523 524/524/524
f 525/525/525 526/526/526 527/527/527
f 525/525/525 527/527/527 528/528/528
f 529/529/529 530/530/530 531/531/531
f 529/529/529 531/531/531 532/532/532
f 533/533/533 534/534/534 535/535/535
f 533/533/533 535/535/535 536/536/536
f 537/537/537 538/538/538 539/539/539
f 537/537/537 539/539/539 540/540/540
f 541/541/541 542/542/542 543/543/543
f 541/541/541 543/543/543 544/544/544
f 545/545/545 546/546/546 547/547/547
f 545/545/545 547/547/547 548/548/548
f 549/549/549 550/550/550 551/551/551
f 549/549/549 551/551/551 552/552/552
f 553/553/553 554/554/554 555/555/555
f 553/553/553 555/555/555 556/556/556
f 557/557/557 558/558/558 559/559/559
f 557/557/557 559/559/559 560/560/560
f 561/561/561 562/562/562 563/563/563
f 561/561/561 563/563/563 564/564/564
f 565/565/565 566/566/566 567/567/567
f 565/565/565 567/567/567 568/568/568
f 569/569/569 570/570/570 571/571/571
f 569/569/569 571/571/571 572/572/572
f 573/573/573 574/574/574 575/575/575
f 573/573/573 575/575/575 576/576/576
f 577/577/577 578/578/578 579/579/579
f 577/577/577 579/579/579 580/580/580
f 581/581/581 582/582/582 583/583/583
f 581/581/581 583/583/583 584/584/584
f 585/585/585 586/586/586 587/587/587
f 585/585/585 587/587/587 588/588/588
f 589/589/589 590/590/590 591/591/591
f 589/589/589 591/591/591 592/592/592
f 593/593/593 594/594/594 595/595/595
f 593/593/593 595/595/595 596/596/596
f 597/597/597 598/598/598 599/599/599
f 597/597/597 599/599/599 600/600/600
f 601/601/601 602/602/602 603/603/603
f 601/601/601 603/603/603 604/604/604
f 605/605/605 606/606/606 607/607/607
f 605/605/605 607/607/607 608/608/608
f 609/609/609 610/610/610 611/611/611
f 609/609/609 611/611/611 612/612/612
f 613/613/613 614/614/614 615/615/615
f 613/613/613 615/615/615 616/616/616
f 617/617/617 618/618/618 619/619/619
f 617/617/617 619/619/619 620/620/620
f 621/621/621 622/622/622 623/623/623
f 621/621/621 623/623/623 624/624/624
f 625/625/625 626/626/626 627/627/627
f 625/625/625 627/627/627 628/628/628
f 629/629/629 630/630/630 631/631/631
f 629/629/629 631/631/631 632/632/632
f 633/633/633 634/634/634 635/635/635
f 633/633/633 635/635/635 636/636/636
f 637/637/637 638/638/638 639/639/639
f 637/637/637 639/639/639 640/640/640
f 641/641/641 642/642/642 643/643/643
f 641/641/641 643/643/643 644/644/644
f 645/645/645 646/646/646 647/647/647
f 645/645/645 647/647/647 648/648/648
f 649/649/649 650/650/650 651/651/651
f 649/649/649 651/651/651 652/652/652
f 653/653/653 654/654/654 655/655/655
f 653/653/653 655/655/655 656/656/656
f 657/657/657 658/658/658 659/659/659
f 657/657/657 659/659/659 660/660/660
f 661/661/661 662/662/662 663/663/663
f 661/661/661 663/663/663 664/664/664
f 665/665/665 666/666/666 667/667/667
f 665/665/665 667/667/667 668/668/668
f 669/669/669 670/670/670 671/671/671
f 669/669/669 671/671/671 672/672/672
f 673/673/673 674/674/674 675/675/675
f 673/673/673 675/675/675 676/676/676
f 677/677/677 678/678/678 679/679/679
f 677/677/677 679/679/679 680/680/680
f 681/681/681 682/682/682 683/683/683
f 681/681/681 683/683/683 684/684/684
f 685/685/685 686/686/686 687/687/687
f 685/685/685 687/687/687 688/688/688
f 689/689/689 690/690/690 691/691/691
f 689/689/689 691/691/691 692/692/692
f 689/689/689 692/692/692 693/693/693
f 689/689/689 693/693/693 694/694/694
f 695/695/695 696/696/696 697/697/697
f 695/695/695 697/697/697 698/698/698
f 699/699/699 700/700/700 701/701/701
f 699/699/699 701/701/701 702/702/702
f 703/703/703 704/704/704 705/705/705
f 703/703/703 705/705/705 706/706/706
f 703/703/703 706/706/706 707/707/707
f 703/703/703 707/707/707 708/708/708
