# generated by fbx_to_obj.py from Door_01.fbx geometry 0
v -10.000000 0.000000 1.000000
v -10.000000 15.000000 1.000000
v -10.000000 15.000000 -1.000000
v -10.000000 0.000000 -1.000000
v -10.000000 0.000000 -1.000000
v -10.000000 15.000000 -1.000000
v 0.000000 15.000000 -1.000000
v 0.000000 0.000000 -1.000000
v 0.000000 0.000000 -1.000000
v 0.000000 15.000000 -1.000000
v 0.000000 15.000000 1.000000
v 0.000000 0.000000 1.000000
v 0.000000 0.000000 1.000000
v 0.000000 15.000000 1.000000
v -10.000000 15.000000 1.000000
v -10.000000 0.000000 1.000000
v -10.000000 0.000000 -1.000000
v 0.000000 0.000000 -1.000000
v 0.000000 0.000000 1.000000
v -10.000000 0.000000 1.000000
v 0.000000 15.000000 -1.000000
v -10.000000 15.000000 -1.000000
v -10.000000 15.000000 1.000000
v 0.000000 15.000000 1.000000
vt 0.865000 0.984375
vt 0.865000 0.031250
vt 0.746875 0.031250
vt 0.746875 0.984375
vt 0.500000 0.968750
vt 0.500000 0.030000
vt 1.000000 0.030000
vt 1.000000 0.968750
vt 0.865000 0.984374
vt 0.865000 0.031250
vt 0.746875 0.031250
vt 0.746875 0.984375
vt 1.000000 0.968750
vt 1.000000 0.030000
vt 0.500000 0.030000
vt 0.500000 0.968750
vt 0.514063 0.757539
vt 0.982813 0.757539
vt 0.982813 0.638946
vt 0.514063 0.638946
vt 0.514062 0.517071
vt 0.982812 0.517071
vt 0.982812 0.406758
vt 0.514062 0.406758
vn -1.000000 0.000000 0.000000
vn -1.000000 0.000000 0.000000
vn -1.000000 0.000000 0.000000
vn -1.000000 0.000000 0.000000
vn 0.000000 0.000000 -1.000000
vn 0.000000 0.000000 -1.000000
vn 0.000000 0.000000 -1.000000
vn 0.000000 0.000000 -1.000000
vn 1.000000 0.000000 0.000000
vn 1.000000 0.000000 0.000000
vn 1.000000 0.000000 0.000000
vn 1.000000 0.000000 0.000000
vn 0.000000 0.000000 1.000000
vn 0.000000 0.000000 1.000000
vn 0.000000 0.000000 1.000000
vn 0.000000 0.000000 1.000000
vn 0.000000 -1.000000 0.000000
vn 0.000000 -1.000000 0.000000
vn 0.000000 -1.000000 0.000000
vn 0.000000 -1.000000 0.000000
vn 0.000000 1.000000 0.000000
vn 0.000000 1.000000 0.000000
vn 0.000000 1.000000 0.000000
vn 0.000000 1.000000 0.000000
f 1/1/1 2/2/2 3/3/3
f 1/1/1 3/3/3 4/4/4
f 5/5/5 6/6/6 7/7/7
f 5/5/5 7/7/7 8/8/8
f 9/9/9 10/10/10 11/11/11
f 9/9/9 11/11/11 12/12/12
f 13/13/13 14/14/14 15/15/15
f 13/13/13 15/15/15 16/16/16
f 17/17/17 18/18/18 19/19/19
f 17/17/17 19/19/19 20/20/20
f 21/21/21 22/22/22 23/23/23
f 21/21/21 23/23/23 24/24/24
