# generated by fbx_to_obj.py from Pillar_Collapsed_02.fbx geometry 0
v 0.002776 1.727778 -2.000000
v 0.002776 3.459829 -1.000000
v 0.002775 3.459829 1.000000
v 0.002775 1.727778 2.000000
v 0.002775 -0.004273 1.000000
v 0.002775 -0.004273 -1.000000
v -6.697220 3.459829 0.999999
v -6.097219 3.459830 -1.000000
v -7.397219 1.727779 -2.000001
v -6.897219 -0.004272 -1.000001
v -6.697220 3.459829 0.999999
v -7.397219 1.727779 -2.000001
v 6.602779 1.727778 -1.999999
v 5.602778 1.727777 2.000001
v 6.002778 -0.004273 1.000000
v 6.002778 -0.004273 1.000000
v 6.502779 -0.004273 -0.999999
v 6.602779 1.727778 -1.999999
v 5.602779 3.459829 -0.999999
v 5.602778 1.727777 2.000001
v 6.602779 1.727778 -1.999999
v 5.602779 3.459829 -0.999999
v 6.402779 3.459828 1.000001
v 5.602778 1.727777 2.000001
v 0.002775 -0.004273 -1.000000
v 0.002776 1.727778 -2.000000
v 6.602779 1.727778 -1.999999
v 6.502779 -0.004273 -0.999999
v 0.002775 -0.004273 1.000000
v 0.002775 -0.004273 -1.000000
v 6.502779 -0.004273 -0.999999
v 6.002778 -0.004273 1.000000
v 0.002775 1.727778 2.000000
v 0.002775 -0.004273 1.000000
v 6.002778 -0.004273 1.000000
v 5.602778 1.727777 2.000001
v 0.002775 3.459829 1.000000
v 0.002775 1.727778 2.000000
v 5.602778 1.727777 2.000001
v 6.402779 3.459828 1.000001
v 0.002776 3.459829 -1.000000
v 0.002775 3.459829 1.000000
v 6.402779 3.459828 1.000001
v 5.602779 3.459829 -0.999999
v 0.002776 1.727778 -2.000000
v 0.002776 3.459829 -1.000000
v 5.602779 3.459829 -0.999999
v 6.602779 1.727778 -1.999999
v 0.002775 -0.004273 -1.000000
v -6.897219 -0.004272 -1.000001
v -7.397219 1.727779 -2.000001
v 0.002776 1.727778 -2.000000
v 0.002775 -0.004273 1.000000
v -7.597220 -0.004272 0.999999
v -6.897219 -0.004272 -1.000001
v 0.002775 -0.004273 -1.000000
v 0.002775 1.727778 2.000000
v -6.097220 1.727778 1.999999
v -7.597220 -0.004272 0.999999
v 0.002775 -0.004273 1.000000
v 0.002775 3.459829 1.000000
v -6.697220 3.459829 0.999999
v -6.097220 1.727778 1.999999
v 0.002775 1.727778 2.000000
v 0.002776 3.459829 -1.000000
v -6.097219 3.459830 -1.000000
v -6.697220 3.459829 0.999999
v 0.002775 3.459829 1.000000
v 0.002776 1.727778 -2.000000
v -7.397219 1.727779 -2.000001
v -6.097219 3.459830 -1.000000
v 0.002776 3.459829 -1.000000
v -7.597220 -0.004272 0.999999
v -6.097220 1.727778 1.999999
v -6.897219 -0.004272 -1.000001
v -6.697220 3.459829 0.999999
v -6.897219 -0.004272 -1.000001
v -6.097220 1.727778 1.999999
vt 0.600000 0.529000
vt 0.683138 0.577000
vt 0.683138 0.673000
vt 0.600000 0.721000
vt 0.516862 0.673000
vt 0.516862 0.577000
vt 0.330513 0.209907
vt 0.410513 0.209907
vt 0.450513 0.140625
vt 0.410513 0.071343
vt 0.330513 0.209907
vt 0.450513 0.140625
vt 0.330513 0.209907
vt 0.410513 0.071343
vt 0.330513 0.071343
vt 0.330513 0.071343
vt 0.290513 0.140625
vt 0.330513 0.209907
vt 0.410513 0.209907
vt 0.410513 0.071343
vt 0.330513 0.209907
vt 0.410513 0.209907
vt 0.450513 0.140625
vt 0.410513 0.071343
vt 0.542500 0.483125
vt 0.501250 0.483125
vt 0.501250 0.334625
vt 0.542500 0.334625
vt 0.583750 0.483125
vt 0.542500 0.483125
vt 0.542500 0.334625
vt 0.583750 0.334625
vt 0.625000 0.483125
vt 0.583750 0.483125
vt 0.583750 0.334625
vt 0.625000 0.334625
vt 0.666250 0.483125
vt 0.625000 0.483125
vt 0.625000 0.334625
vt 0.666250 0.334625
vt 0.707500 0.483125
vt 0.666250 0.483125
vt 0.666250 0.334625
vt 0.707500 0.334625
vt 0.748750 0.483125
vt 0.707500 0.483125
vt 0.707500 0.334625
vt 0.748750 0.334625
vt 0.542500 0.483125
vt 0.542500 0.334625
vt 0.501250 0.334625
vt 0.501250 0.483125
vt 0.583750 0.483125
vt 0.583750 0.334625
vt 0.542500 0.334625
vt 0.542500 0.483125
vt 0.625000 0.483125
vt 0.625000 0.334625
vt 0.583750 0.334625
vt 0.583750 0.483125
vt 0.666250 0.483125
vt 0.666250 0.334625
vt 0.625000 0.334625
vt 0.625000 0.483125
vt 0.707500 0.483125
vt 0.707500 0.334625
vt 0.666250 0.334625
vt 0.666250 0.483125
vt 0.748750 0.483125
vt 0.748750 0.334625
vt 0.707500 0.334625
vt 0.707500 0.483125
vt 0.330513 0.071343
vt 0.290513 0.140625
vt 0.410513 0.071343
vt 0.330513 0.209907
vt 0.410513 0.071343
vt 0.290513 0.140625
vn 1.000000 -0.000000 0.000000
vn 1.000000 -0.000000 0.000000
vn 1.000000 -0.000000 0.000000
vn 1.000000 -0.000000 0.000000
vn 1.000000 -0.000000 0.000000
vn 1.000000 -0.000000 0.000000
vn -0.717342 0.662652 -0.215203
vn -0.717342 0.662652 -0.215203
vn -0.717342 0.662652 -0.215203
vn -0.952021 -0.109930 0.285606
vn -0.952021 -0.109930 0.285606
vn -0.952021 -0.109930 0.285606
vn 0.966736 0.083721 0.241684
vn 0.966736 0.083721 0.241684
vn 0.966736 0.083721 0.241684
vn 0.966736 0.083722 0.241684
vn 0.966736 0.083722 0.241684
vn 0.966736 0.083722 0.241684
vn 0.894427 0.387298 0.223607
vn 0.894427 0.387298 0.223607
vn 0.894427 0.387298 0.223607
vn 0.780869 -0.541002 -0.312348
vn 0.780869 -0.541002 -0.312348
vn 0.780869 -0.541002 -0.312348
vn 0.000000 -0.500000 -0.866025
vn 0.000000 -0.500000 -0.866025
vn 0.000000 -0.500000 -0.866025
vn 0.000000 -0.500000 -0.866025
vn -0.000000 -1.000000 -0.000000
vn -0.000000 -1.000000 -0.000000
vn -0.000000 -1.000000 -0.000000
vn -0.000000 -1.000000 -0.000000
vn -0.000000 -0.500000 0.866025
vn -0.000000 -0.500000 0.866025
vn -0.000000 -0.500000 0.866025
vn -0.000000 -0.500000 0.866025
vn -0.000000 0.500000 0.866026
vn -0.000000 0.500000 0.866026
vn -0.000000 0.500000 0.866026
vn -0.000000 0.500000 0.866026
vn 0.000000 1.000000 0.000000
vn 0.000000 1.000000 0.000000
vn 0.000000 1.000000 0.000000
vn 0.000000 1.000000 0.000000
vn 0.000000 0.500000 -0.866025
vn 0.000000 0.500000 -0.866025
vn 0.000000 0.500000 -0.866025
vn 0.000000 0.500000 -0.866025
vn 0.000000 -0.500000 -0.866026
vn 0.000000 -0.500000 -0.866026
vn 0.000000 -0.500000 -0.866026
vn 0.000000 -0.500000 -0.866026
vn -0.000000 -1.000000 -0.000000
vn -0.000000 -1.000000 -0.000000
vn -0.000000 -1.000000 -0.000000
vn -0.000000 -1.000000 -0.000000
vn -0.000000 -0.500000 0.866025
vn -0.000000 -0.500000 0.866025
vn -0.000000 -0.500000 0.866025
vn -0.000000 -0.500000 0.866025
vn -0.000000 0.500000 0.866026
vn -0.000000 0.500000 0.866026
vn -0.000000 0.500000 0.866026
vn -0.000000 0.500000 0.866026
vn 0.000000 1.000000 0.000000
vn 0.000000 1.000000 0.000000
vn 0.000000 1.000000 0.000000
vn 0.000000 1.000000 0.000000
vn 0.000000 0.500000 -0.866025
vn 0.000000 0.500000 -0.866025
vn 0.000000 0.500000 -0.866025
vn 0.000000 0.500000 -0.866025
vn -0.664700 0.709965 -0.232645
vn -0.664700 0.709965 -0.232645
vn -0.664700 0.709965 -0.232645
vn -0.935220 -0.134988 0.327326
vn -0.935220 -0.134988 0.327326
vn -0.935220 -0.134988 0.327326
f 1/1/1 2/2/2 3/3/3
f 1/1/1 3/3/3 4/4/4
f 1/1/1 4/4/4 5/5/5
f 1/1/1 5/5/5 6/6/6
f 7/7/7 8/8/8 9/9/9
f 10/10/10 11/11/11 12/12/12
f 13/13/13 14/14/14 15/15/15
f 16/16/16 17/17/17 18/18/18
f 19/19/19 20/20/20 21/21/21
f 22/22/22 23/23/23 24/24/24
f 25/25/25 26/26/26 27/27/27
f 25/25/25 27/27/27 28/28/28
f 29/29/29 30/30/30 31/31/31
f 29/29/29 31/31/31 32/32/32
f 33/33/33 34/34/34 35/35/35
f 33/33/33 35/35/35 36/36/36
f 37/37/37 38/38/38 39/39/39
f 37/37/37 39/39/39 40/40/40
f 41/41/41 42/42/42 43/43/43
f 41/41/41 43/43/43 44/44/44
f 45/45/45 46/46/46 47/47/47
f 45/45/45 47/47/47 48/48/48
f 49/49/49 50/50/50 51/51/51
f 49/49/49 51/51/51 52/52/52
f 53/53/53 54/54/54 55/55/55
f 53/53/53 55/55/55 56/56/56
f 57/57/57 58/58/58 59/59/59
f 57/57/57 59/59/59 60/60/60
f 61/61/61 62/62/62 63/63/63
f 61/61/61 63/63/63 64/64/64
f 65/65/65 66/66/66 67/67/67
f 65/65/65 67/67/67 68/68/68
f 69/69/69 70/70/70 71/71/71
f 69/69/69 71/71/71 72/72/72
f 73/73/73 74/74/74 75/75/75
f 76/76/76 77/77/77 78/78/78
