# generated by fbx_to_obj.py from Spikes.fbx geometry 0
v -1.000000 0.000000 1.000000
v 0.000000 7.000000 0.000000
v -1.000000 0.000000 -1.000000
v -1.000000 0.000000 -1.000000
v 0.000000 7.000000 0.000000
v 1.000000 0.000000 -1.000000
v 1.000000 0.000000 -1.000000
v 0.000000 7.000000 0.000000
v 1.000000 0.000000 1.000000
v 1.000000 0.000000 1.000000
v 0.000000 7.000000 0.000000
v -1.000000 0.000000 1.000000
v -1.000000 0.000000 -1.000000
v 1.000000 0.000000 -1.000000
v 1.000000 0.000000 1.000000
v -1.000000 0.000000 1.000000
v -7.000000 0.000000 1.000000
v -6.000000 8.000000 0.000000
v -7.000000 0.000000 -1.000000
v -7.000000 0.000000 -1.000000
v -6.000000 8.000000 0.000000
v -5.000000 0.000000 -1.000000
v -5.000000 0.000000 -1.000000
v -6.000000 8.000000 0.000000
v -5.000000 0.000000 1.000000
v -5.000000 0.000000 1.000000
v -6.000000 8.000000 0.000000
v -7.000000 0.000000 1.000000
v -7.000000 0.000000 -1.000000
v -5.000000 0.000000 -1.000000
v -5.000000 0.000000 1.000000
v -7.000000 0.000000 1.000000
v 5.000000 0.000000 1.000000
v 6.000000 6.000000 0.000000
v 5.000000 0.000000 -1.000000
v 5.000000 0.000000 -1.000000
v 6.000000 6.000000 0.000000
v 7.000000 0.000000 -1.000000
v 7.000000 0.000000 -1.000000
v 6.000000 6.000000 0.000000
v 7.000000 0.000000 1.000000
v 7.000000 0.000000 1.000000
v 6.000000 6.000000 0.000000
v 5.000000 0.000000 1.000000
v 5.000000 0.000000 -1.000000
v 7.000000 0.000000 -1.000000
v 7.000000 0.000000 1.000000
v 5.000000 0.000000 1.000000
v 2.000000 0.000000 5.000000
v 3.000000 7.000000 4.000000
v 2.000000 0.000000 3.000000
v 2.000000 0.000000 3.000000
v 3.000000 7.000000 4.000000
v 4.000000 0.000000 3.000000
v 4.000000 0.000000 3.000000
v 3.000000 7.000000 4.000000
v 4.000000 0.000000 5.000000
v 4.000000 0.000000 5.000000
v 3.000000 7.000000 4.000000
v 2.000000 0.000000 5.000000
v 2.000000 0.000000 3.000000
v 4.000000 0.000000 3.000000
v 4.000000 0.000000 5.000000
v 2.000000 0.000000 5.000000
v -4.000000 0.000000 5.000000
v -3.000000 6.000000 4.000000
v -4.000000 0.000000 3.000000
v -4.000000 0.000000 3.000000
v -3.000000 6.000000 4.000000
v -2.000000 0.000000 3.000000
v -2.000000 0.000000 3.000000
v -3.000000 6.000000 4.000000
v -2.000000 0.000000 5.000000
v -2.000000 0.000000 5.000000
v -3.000000 6.000000 4.000000
v -4.000000 0.000000 5.000000
v -4.000000 0.000000 3.000000
v -2.000000 0.000000 3.000000
v -2.000000 0.000000 5.000000
v -4.000000 0.000000 5.000000
v 4.000000 0.000000 -3.000000
v 3.000000 7.000000 -4.000000
v 2.000000 0.000000 -3.000000
v 2.000000 0.000000 -5.000000
v 3.000000 7.000000 -4.000000
v 4.000000 0.000000 -5.000000
v 2.000000 0.000000 -3.000000
v 3.000000 7.000000 -4.000000
v 2.000000 0.000000 -5.000000
v 4.000000 0.000000 -5.000000
v 3.000000 7.000000 -4.000000
v 4.000000 0.000000 -3.000000
v 2.000000 0.000000 -5.000000
v 4.000000 0.000000 -5.000000
v 4.000000 0.000000 -3.000000
v 2.000000 0.000000 -3.000000
v -4.000000 0.000000 -3.000000
v -3.000000 8.000000 -4.000000
v -4.000000 0.000000 -5.000000
v -4.000000 0.000000 -5.000000
v -3.000000 8.000000 -4.000000
v -2.000000 0.000000 -5.000000
v -2.000000 0.000000 -5.000000
v -3.000000 8.000000 -4.000000
v -2.000000 0.000000 -3.000000
v -2.000000 0.000000 -3.000000
v -3.000000 8.000000 -4.000000
v -4.000000 0.000000 -3.000000
v -4.000000 0.000000 -5.000000
v -2.000000 0.000000 -5.000000
v -2.000000 0.000000 -3.000000
v -4.000000 0.000000 -3.000000
v -1.000000 0.000000 -7.000000
v 0.000000 7.000000 -8.000000
v -1.000000 0.000000 -9.000000
v -1.000000 0.000000 -9.000000
v 0.000000 7.000000 -8.000000
v 1.000000 0.000000 -9.000000
v 1.000000 0.000000 -9.000000
v 0.000000 7.000000 -8.000000
v 1.000000 0.000000 -7.000000
v 1.000000 0.000000 -7.000000
v 0.000000 7.000000 -8.000000
v -1.000000 0.000000 -7.000000
v -1.000000 0.000000 -9.000000
v 1.000000 0.000000 -9.000000
v 1.000000 0.000000 -7.000000
v -1.000000 0.000000 -7.000000
v -7.000000 0.000000 -7.000000
v -6.000000 6.000000 -8.000000
v -7.000000 0.000000 -9.000000
v -7.000000 0.000000 -9.000000
v -6.000000 6.000000 -8.000000
v -5.000000 0.000000 -9.000000
v -5.000000 0.000000 -9.000000
v -6.000000 6.000000 -8.000000
v -5.000000 0.000000 -7.000000
v -5.000000 0.000000 -7.000000
v -6.000000 6.000000 -8.000000
v -7.000000 0.000000 -7.000000
v -7.000000 0.000000 -9.000000
v -5.000000 0.000000 -9.000000
v -5.000000 0.000000 -7.000000
v -7.000000 0.000000 -7.000000
v 5.000000 0.000000 -7.000000
v 6.000000 7.000000 -8.000000
v 5.000000 0.000000 -9.000000
v 5.000000 0.000000 -9.000000
v 6.000000 7.000000 -8.000000
v 7.000000 0.000000 -9.000000
v 7.000000 0.000000 -9.000000
v 6.000000 7.000000 -8.000000
v 7.000000 0.000000 -7.000000
v 7.000000 0.000000 -7.000000
v 6.000000 7.000000 -8.000000
v 5.000000 0.000000 -7.000000
v 5.000000 0.000000 -9.000000
v 7.000000 0.000000 -9.000000
v 7.000000 0.000000 -7.000000
v 5.000000 0.000000 -7.000000
v -1.000000 0.000000 9.000000
v 0.000000 8.000000 8.000000
v -1.000000 0.000000 7.000000
v -1.000000 0.000000 7.000000
v 0.000000 8.000000 8.000000
v 1.000000 0.000000 7.000000
v 1.000000 0.000000 7.000000
v 0.000000 8.000000 8.000000
v 1.000000 0.000000 9.000000
v 1.000000 0.000000 9.000000
v 0.000000 8.000000 8.000000
v -1.000000 0.000000 9.000000
v -1.000000 0.000000 7.000000
v 1.000000 0.000000 7.000000
v 1.000000 0.000000 9.000000
v -1.000000 0.000000 9.000000
v -7.000000 0.000000 9.000000
v -6.000000 6.000000 8.000000
v -7.000000 0.000000 7.000000
v -7.000000 0.000000 7.000000
v -6.000000 6.000000 8.000000
v -5.000000 0.000000 7.000000
v -5.000000 0.000000 7.000000
v -6.000000 6.000000 8.000000
v -5.000000 0.000000 9.000000
v -5.000000 0.000000 9.000000
v -6.000000 6.000000 8.000000
v -7.000000 0.000000 9.000000
v -7.000000 0.000000 7.000000
v -5.000000 0.000000 7.000000
v -5.000000 0.000000 9.000000
v -7.000000 0.000000 9.000000
v 5.000000 0.000000 9.000000
v 6.000000 7.000000 8.000000
v 5.000000 0.000000 7.000000
v 5.000000 0.000000 7.000000
v 6.000000 7.000000 8.000000
v 7.000000 0.000000 7.000000
v 7.000000 0.000000 7.000000
v 6.000000 7.000000 8.000000
v 7.000000 0.000000 9.000000
v 7.000000 0.000000 9.000000
v 6.000000 7.000000 8.000000
v 5.000000 0.000000 9.000000
v 5.000000 0.000000 7.000000
v 7.000000 0.000000 7.000000
v 7.000000 0.000000 9.000000
v 5.000000 0.000000 9.000000
vt 0.750000 0.250000
vt 1.000000 0.000000
vt 0.750000 0.000000
vt 0.750000 0.250000
vt 1.000000 0.000000
vt 0.750000 0.000000
vt 0.750000 0.250000
vt 1.000000 0.000000
vt 0.750000 0.000000
vt 0.750000 0.250000
vt 1.000000 0.000000
vt 0.750000 0.000000
vt 0.750000 0.250000
vt 1.000000 0.250000
vt 1.000000 0.000000
vt 0.750000 0.000000
vt 0.750000 0.250000
vt 1.000000 0.000000
vt 0.750000 0.000000
vt 0.750000 0.250000
vt 1.000000 0.000000
vt 0.750000 0.000000
vt 0.750000 0.250000
vt 1.000000 0.000000
vt 0.750000 0.000000
vt 0.750000 0.250000
vt 1.000000 0.000000
vt 0.750000 0.000000
vt 0.750000 0.250000
vt 1.000000 0.250000
vt 1.000000 0.000000
vt 0.750000 0.000000
vt 0.750000 0.250000
vt 1.000000 0.000000
vt 0.750000 0.000000
vt 0.750000 0.250000
vt 1.000000 0.000000
vt 0.750000 0.000000
vt 0.750000 0.250000
vt 1.000000 0.000000
vt 0.750000 0.000000
vt 0.750000 0.250000
vt 1.000000 0.000000
vt 0.750000 0.000000
vt 0.750000 0.250000
vt 1.000000 0.250000
vt 1.000000 0.000000
vt 0.750000 0.000000
vt 0.750000 0.250000
vt 1.000000 0.000000
vt 0.750000 0.000000
vt 0.750000 0.250000
vt 1.000000 0.000000
vt 0.750000 0.000000
vt 0.750000 0.250000
vt 1.000000 0.000000
vt 0.750000 0.000000
vt 0.750000 0.250000
vt 1.000000 0.000000
vt 0.750000 0.000000
vt 0.750000 0.250000
vt 1.000000 0.250000
vt 1.000000 0.000000
vt 0.750000 0.000000
vt 0.750000 0.250000
vt 1.000000 0.000000
vt 0.750000 0.000000
vt 0.750000 0.250000
vt 1.000000 0.000000
vt 0.750000 0.000000
vt 0.750000 0.250000
vt 1.000000 0.000000
vt 0.750000 0.000000
vt 0.750000 0.250000
vt 1.000000 0.000000
vt 0.750000 0.000000
vt 0.750000 0.250000
vt 1.000000 0.250000
vt 1.000000 0.000000
vt 0.750000 0.000000
vt 0.750000 0.250000
vt 1.000000 0.000000
vt 0.750000 0.000000
vt 0.750000 0.250000
vt 1.000000 0.000000
vt 0.750000 0.000000
vt 0.750000 0.250000
vt 1.000000 0.000000
vt 0.750000 0.000000
vt 0.750000 0.250000
vt 1.000000 0.000000
vt 0.750000 0.000000
vt 0.750000 0.250000
vt 1.000000 0.250000
vt 1.000000 0.000000
vt 0.750000 0.000000
vt 0.750000 0.250000
vt 1.000000 0.000000
vt 0.750000 0.000000
vt 0.750000 0.250000
vt 1.000000 0.000000
vt 0.750000 0.000000
vt 0.750000 0.250000
vt 1.000000 0.000000
vt 0.750000 0.000000
vt 0.750000 0.250000
vt 1.000000 0.000000
vt 0.750000 0.000000
vt 0.750000 0.250000
vt 1.000000 0.250000
vt 1.000000 0.000000
vt 0.750000 0.000000
vt 0.750000 0.250000
vt 1.000000 0.000000
vt 0.750000 0.000000
vt 0.750000 0.250000
vt 1.000000 0.000000
vt 0.750000 0.000000
vt 0.750000 0.250000
vt 1.000000 0.000000
vt 0.750000 0.000000
vt 0.750000 0.250000
vt 1.000000 0.000000
vt 0.750000 0.000000
vt 0.750000 0.250000
vt 1.000000 0.250000
vt 1.000000 0.000000
vt 0.750000 0.000000
vt 0.750000 0.250000
vt 1.000000 0.000000
vt 0.750000 0.000000
vt 0.750000 0.250000
vt 1.000000 0.000000
vt 0.750000 0.000000
vt 0.750000 0.250000
vt 1.000000 0.000000
vt 0.750000 0.000000
vt 0.750000 0.250000
vt 1.000000 0.000000
vt 0.750000 0.000000
vt 0.750000 0.250000
vt 1.000000 0.250000
vt 1.000000 0.000000
vt 0.750000 0.000000
vt 0.750000 0.250000
vt 1.000000 0.000000
vt 0.750000 0.000000
vt 0.750000 0.250000
vt 1.000000 0.000000
vt 0.750000 0.000000
vt 0.750000 0.250000
vt 1.000000 0.000000
vt 0.750000 0.000000
vt 0.750000 0.250000
vt 1.000000 0.000000
vt 0.750000 0.000000
vt 0.750000 0.250000
vt 1.000000 0.250000
vt 1.000000 0.000000
vt 0.750000 0.000000
vt 0.750000 0.250000
vt 1.000000 0.000000
vt 0.750000 0.000000
vt 0.750000 0.250000
vt 1.000000 0.000000
vt 0.750000 0.000000
vt 0.750000 0.250000
vt 1.000000 0.000000
vt 0.750000 0.000000
vt 0.750000 0.250000
vt 1.000000 0.000000
vt 0.750000 0.000000
vt 0.750000 0.250000
vt 1.000000 0.250000
vt 1.000000 0.000000
vt 0.750000 0.000000
vt 0.750000 0.250000
vt 1.000000 0.000000
vt 0.750000 0.000000
vt 0.750000 0.250000
vt 1.000000 0.000000
vt 0.750000 0.000000
vt 0.750000 0.250000
vt 1.000000 0.000000
vt 0.750000 0.000000
vt 0.750000 0.250000
vt 1.000000 0.000000
vt 0.750000 0.000000
vt 0.750000 0.250000
vt 1.000000 0.250000
vt 1.000000 0.000000
vt 0.750000 0.000000
vt 0.750000 0.250000
vt 1.000000 0.000000
vt 0.750000 0.000000
vt 0.750000 0.250000
vt 1.000000 0.000000
vt 0.750000 0.000000
vt 0.750000 0.250000
vt 1.000000 0.000000
vt 0.750000 0.000000
vt 0.750000 0.250000
vt 1.000000 0.000000
vt 0.750000 0.000000
vt 0.750000 0.250000
vt 1.000000 0.250000
vt 1.000000 0.000000
vt 0.750000 0.000000
vn -0.989950 0.141421 0.000000
vn -0.989950 0.141421 0.000000
vn -0.989950 0.141421 0.000000
vn 0.000000 0.141421 -0.989950
vn 0.000000 0.141421 -0.989950
vn 0.000000 0.141421 -0.989950
vn 0.989950 0.141421 0.000000
vn 0.989950 0.141421 0.000000
vn 0.989950 0.141421 0.000000
vn 0.000000 0.141421 0.989950
vn 0.000000 0.141421 0.989950
vn 0.000000 0.141421 0.989950
vn 0.000000 -1.000000 0.000000
vn 0.000000 -1.000000 0.000000
vn 0.000000 -1.000000 0.000000
vn 0.000000 -1.000000 0.000000
vn -0.992278 0.124035 0.000000
vn -0.992278 0.124035 0.000000
vn -0.992278 0.124035 0.000000
vn 0.000000 0.124035 -0.992278
vn 0.000000 0.124035 -0.992278
vn 0.000000 0.124035 -0.992278
vn 0.992278 0.124035 0.000000
vn 0.992278 0.124035 0.000000
vn 0.992278 0.124035 0.000000
vn 0.000000 0.124035 0.992278
vn 0.000000 0.124035 0.992278
vn 0.000000 0.124035 0.992278
vn 0.000000 -1.000000 0.000000
vn 0.000000 -1.000000 0.000000
vn 0.000000 -1.000000 0.000000
vn 0.000000 -1.000000 0.000000
vn -0.986394 0.164399 0.000000
vn -0.986394 0.164399 0.000000
vn -0.986394 0.164399 0.000000
vn 0.000000 0.164399 -0.986394
vn 0.000000 0.164399 -0.986394
vn 0.000000 0.164399 -0.986394
vn 0.986394 0.164399 0.000000
vn 0.986394 0.164399 0.000000
vn 0.986394 0.164399 0.000000
vn 0.000000 0.164399 0.986394
vn 0.000000 0.164399 0.986394
vn 0.000000 0.164399 0.986394
vn 0.000000 -1.000000 0.000000
vn 0.000000 -1.000000 0.000000
vn 0.000000 -1.000000 0.000000
vn 0.000000 -1.000000 0.000000
vn -0.989950 0.141421 0.000000
vn -0.989950 0.141421 0.000000
vn -0.989950 0.141421 0.000000
vn 0.000000 0.141421 -0.989950
vn 0.000000 0.141421 -0.989950
vn 0.000000 0.141421 -0.989950
vn 0.989950 0.141421 0.000000
vn 0.989950 0.141421 0.000000
vn 0.989950 0.141421 0.000000
vn 0.000000 0.141421 0.989950
vn 0.000000 0.141421 0.989950
vn 0.000000 0.141421 0.989950
vn 0.000000 -1.000000 0.000000
vn 0.000000 -1.000000 0.000000
vn 0.000000 -1.000000 0.000000
vn 0.000000 -1.000000 0.000000
vn -0.986394 0.164399 0.000000
vn -0.986394 0.164399 0.000000
vn -0.986394 0.164399 0.000000
vn 0.000000 0.164399 -0.986394
vn 0.000000 0.164399 -0.986394
vn 0.000000 0.164399 -0.986394
vn 0.986394 0.164399 0.000000
vn 0.986394 0.164399 0.000000
vn 0.986394 0.164399 0.000000
vn 0.000000 0.164399 0.986394
vn 0.000000 0.164399 0.986394
vn 0.000000 0.164399 0.986394
vn 0.000000 -1.000000 0.000000
vn 0.000000 -1.000000 0.000000
vn 0.000000 -1.000000 0.000000
vn 0.000000 -1.000000 0.000000
vn 0.000000 0.141421 0.989950
vn 0.000000 0.141421 0.989950
vn 0.000000 0.141421 0.989950
vn 0.000000 0.141421 -0.989950
vn 0.000000 0.141421 -0.989950
vn 0.000000 0.141421 -0.989950
vn -0.989950 0.141421 0.000000
vn -0.989950 0.141421 0.000000
vn -0.989950 0.141421 0.000000
vn 0.989950 0.141421 0.000000
vn 0.989950 0.141421 0.000000
vn 0.989950 0.141421 0.000000
vn 0.000000 -1.000000 0.000000
vn 0.000000 -1.000000 0.000000
vn 0.000000 -1.000000 0.000000
vn 0.000000 -1.000000 0.000000
vn -0.992278 0.124035 0.000000
vn -0.992278 0.124035 0.000000
vn -0.992278 0.124035 0.000000
vn 0.000000 0.124035 -0.992278
vn 0.000000 0.124035 -0.992278
vn 0.000000 0.124035 -0.992278
vn 0.992278 0.124035 0.000000
vn 0.992278 0.124035 0.000000
vn 0.992278 0.124035 0.000000
vn 0.000000 0.124035 0.992278
vn 0.000000 0.124035 0.992278
vn 0.000000 0.124035 0.992278
vn 0.000000 -1.000000 0.000000
vn 0.000000 -1.000000 0.000000
vn 0.000000 -1.000000 0.000000
vn 0.000000 -1.000000 0.000000
vn -0.989950 0.141421 0.000000
vn -0.989950 0.141421 0.000000
vn -0.989950 0.141421 0.000000
vn 0.000000 0.141421 -0.989950
vn 0.000000 0.141421 -0.989950
vn 0.000000 0.141421 -0.989950
vn 0.989950 0.141421 0.000000
vn 0.989950 0.141421 0.000000
vn 0.989950 0.141421 0.000000
vn 0.000000 0.141421 0.989950
vn 0.000000 0.141421 0.989950
vn 0.000000 0.141421 0.989950
vn 0.000000 -1.000000 0.000000
vn 0.000000 -1.000000 0.000000
vn 0.000000 -1.000000 0.000000
vn 0.000000 -1.000000 0.000000
vn -0.986394 0.164399 0.000000
vn -0.986394 0.164399 0.000000
vn -0.986394 0.164399 0.000000
vn 0.000000 0.164399 -0.986394
vn 0.000000 0.164399 -0.986394
vn 0.000000 0.164399 -0.986394
vn 0.986394 0.164399 0.000000
vn 0.986394 0.164399 0.000000
vn 0.986394 0.164399 0.000000
vn 0.000000 0.164399 0.986394
vn 0.000000 0.164399 0.986394
vn 0.000000 0.164399 0.986394
vn 0.000000 -1.000000 0.000000
vn 0.000000 -1.000000 0.000000
vn 0.000000 -1.000000 0.000000
vn 0.000000 -1.000000 0.000000
vn -0.989950 0.141421 0.000000
vn -0.989950 0.141421 0.000000
vn -0.989950 0.141421 0.000000
vn 0.000000 0.141421 -0.989950
vn 0.000000 0.141421 -0.989950
vn 0.000000 0.141421 -0.989950
vn 0.989950 0.141421 0.000000
vn 0.989950 0.141421 0.000000
vn 0.989950 0.141421 0.000000
vn 0.000000 0.141421 0.989950
vn 0.000000 0.141421 0.989950
vn 0.000000 0.141421 0.989950
vn 0.000000 -1.000000 0.000000
vn 0.000000 -1.000000 0.000000
vn 0.000000 -1.000000 0.000000
vn 0.000000 -1.000000 0.000000
vn -0.992278 0.124035 0.000000
vn -0.992278 0.124035 0.000000
vn -0.992278 0.124035 0.000000
vn 0.000000 0.124035 -0.992278
vn 0.000000 0.124035 -0.992278
vn 0.000000 0.124035 -0.992278
vn 0.992278 0.124035 0.000000
vn 0.992278 0.124035 0.000000
vn 0.992278 0.124035 0.000000
vn 0.000000 0.124035 0.992278
vn 0.000000 0.124035 0.992278
vn 0.000000 0.124035 0.992278
vn 0.000000 -1.000000 0.000000
vn 0.000000 -1.000000 0.000000
vn 0.000000 -1.000000 0.000000
vn 0.000000 -1.000000 0.000000
vn -0.986394 0.164399 0.000000
vn -0.986394 0.164399 0.000000
vn -0.986394 0.164399 0.000000
vn 0.000000 0.164399 -0.986394
vn 0.000000 0.164399 -0.986394
vn 0.000000 0.164399 -0.986394
vn 0.986394 0.164399 0.000000
vn 0.986394 0.164399 0.000000
vn 0.986394 0.164399 0.000000
vn 0.000000 0.164399 0.986394
vn 0.000000 0.164399 0.986394
vn 0.000000 0.164399 0.986394
vn 0.000000 -1.000000 0.000000
vn 0.000000 -1.000000 0.000000
vn 0.000000 -1.000000 0.000000
vn 0.000000 -1.000000 0.000000
vn -0.989950 0.141421 0.000000
vn -0.989950 0.141421 0.000000
vn -0.989950 0.141421 0.000000
vn 0.000000 0.141421 -0.989950
vn 0.000000 0.141421 -0.989950
vn 0.000000 0.141421 -0.989950
vn 0.989950 0.141421 0.000000
vn 0.989950 0.141421 0.000000
vn 0.989950 0.141421 0.000000
vn 0.000000 0.141421 0.989950
vn 0.000000 0.141421 0.989950
vn 0.000000 0.141421 0.989950
vn 0.000000 -1.000000 0.000000
vn 0.000000 -1.000000 0.000000
vn 0.000000 -1.000000 0.000000
vn 0.000000 -1.000000 0.000000
f 1/1/1 2/2/2 3/3/3
f 4/4/4 5/5/5 6/6/6
f 7/7/7 8/8/8 9/9/9
f 10/10/10 11/11/11 12/12/12
f 13/13/13 14/14/14 15/15/15
f 13/13/13 15/15/15 16/16/16
f 17/17/17 18/18/18 19/19/19
f 20/20/20 21/21/21 22/22/22
f 23/23/23 24/24/24 25/25/25
f 26/26/26 27/27/27 28/28/28
f 29/29/29 30/30/30 31/31/31
f 29/29/29 31/31/31 32/32/32
f 33/33/33 34/34/34 35/35/35
f 36/36/36 37/37/37 38/38/38
f 39/39/39 40/40/40 41/41/41
f 42/42/42 43/43/43 44/44/44
f 45/45/45 46/46/46 47/47/47
f 45/45/45 47/47/47 48/48/48
f 49/49/49 50/50/50 51/51/51
f 52/52/52 53/53/53 54/54/54
f 55/55/55 56/56/56 57/57/57
f 58/58/58 59/59/59 60/60/60
f 61/61/61 62/62/62 63/63/63
f 61/61/61 63/63/63 64/64/64
f 65/65/65 66/66/66 67/67/67
f 68/68/68 69/69/69 70/70/70
f 71/71/71 72/72/72 73/73/73
f 74/74/74 75/75/75 76/76/76
f 77/77/77 78/78/78 79/79/79
f 77/77/77 79/79/79 80/80/80
f 81/81/81 82/82/82 83/83/83
f 84/84/84 85/85/85 86/86/86
f 87/87/87 88/88/88 89/89/89
f 90/90/90 91/91/91 92/92/92
f 93/93/93 94/94/94 95/95/95
f 93/93/93 95/95/95 96/96/96
f 97/97/97 98/98/98 99/99/99
f 100/100/100 101/101/101 102/102/102
f 103/103/103 104/104/104 105/105/105
f 106/106/106 107/107/107 108/108/108
f 109/109/109 110/110/110 111/111/111
f 109/109/109 111/111/111 112/112/112
f 113/113/113 114/114/114 115/115/115
f 116/116/116 117/117/117 118/118/118
f 119/119/119 120/120/120 121/121/121
f 122/122/122 123/123/123 124/124/124
f 125/125/125 126/126/126 127/127/127
f 125/125/125 127/127/127 128/128/128
f 129/129/129 130/130/130 131/131/131
f 132/132/132 133/133/133 134/134/134
f 135/135/135 136/136/136 137/137/137
f 138/138/138 139/139/139 140/140/140
f 141/141/141 142/142/142 143/143/143
f 141/141/141 143/143/143 144/144/144
f 145/145/145 146/146/146 147/147/147
f 148/148/148 149/149/149 150/150/150
f 151/151/151 152/152/152 153/153/153
f 154/154/154 155/155/155 156/156/156
f 157/157/157 158/158/158 159/159/159
f 157/157/157 159/159/159 160/160/160
f 161/161/161 162/162/162 163/163/163
f 164/164/164 165/165/165 166/166/166
f 167/167/167 168/168/168 169/169/169
f 170/170/170 171/171/171 172/172/172
f 173/173/173 174/174/174 175/175/175
f 173/173/173 175/175/175 176/176/176
f 177/177/177 178/178/178 179/179/179
f 180/180/180 181/181/181 182/182/182
f 183/183/183 184/184/184 185/185/185
f 186/186/186 187/187/187 188/188/188
f 189/189/189 190/190/190 191/191/191
f 189/189/189 191/191/191 192/192/192
f 193/193/193 194/194/194 195/195/195
f 196/196/196 197/197/197 198/198/198
f 199/199/199 200/200/200 201/201/201
f 202/202/202 203/203/203 204/204/204
f 205/205/205 206/206/206 207/207/207
f 205/205/205 207/207/207 208/208/208
