# generated by fbx_to_obj.py from Arch_Fence.fbx geometry 0
v -0.270206 6.483223 0.000000
v -0.265685 15.535105 0.000000
v -0.000000 15.535105 -0.265685
v -0.000000 6.483223 -0.270206
v -0.000000 6.483223 -0.270206
v -0.000000 15.535105 -0.265685
v 0.265685 15.535105 -0.000000
v 0.270206 6.483223 -0.000000
v 0.270206 6.483223 -0.000000
v 0.265685 15.535105 -0.000000
v 0.000000 15.535105 0.265685
v 0.000000 6.483223 0.270206
v 0.000000 6.483223 0.270206
v 0.000000 15.535105 0.265685
v -0.265685 15.535105 0.000000
v -0.270206 6.483223 0.000000
v 1.729794 6.483223 0.000000
v 1.734315 14.535105 0.000000
v 2.000000 14.535105 -0.265685
v 2.000000 6.483223 -0.270206
v 2.000000 6.483223 -0.270206
v 2.000000 14.535105 -0.265685
v 2.265685 14.535105 -0.000000
v 2.270205 6.483223 -0.000000
v 2.270205 6.483223 -0.000000
v 2.265685 14.535105 -0.000000
v 2.000000 14.535105 0.265685
v 2.000000 6.483223 0.270206
v 2.000000 6.483223 0.270206
v 2.000000 14.535105 0.265685
v 1.734315 14.535105 0.000000
v 1.729794 6.483223 0.000000
v -2.270205 6.483223 0.000000
v -2.265685 14.535105 0.000000
v -2.000000 14.535105 -0.265685
v -2.000000 6.483223 -0.270206
v -2.000000 6.483223 -0.270206
v -2.000000 14.535105 -0.265685
v -1.734315 14.535105 -0.000000
v -1.729795 6.483223 -0.000000
v -1.729795 6.483223 -0.000000
v -1.734315 14.535105 -0.000000
v -2.000000 14.535105 0.265685
v -2.000000 6.483223 0.270206
v -2.000000 6.483223 0.270206
v -2.000000 14.535105 0.265685
v -2.265685 14.535105 0.000000
v -2.270205 6.483223 0.000000
v -4.000000 5.958070 -0.466566
v -3.533435 5.958070 -0.000000
v -4.000000 4.835105 -0.000000
v -4.000000 6.483223 -0.270206
v -3.729795 6.483223 -0.000000
v -3.533435 5.958070 -0.000000
v -4.000000 5.958070 -0.466566
v -4.466566 5.958070 0.000000
v -4.000000 5.958070 -0.466566
v -4.000000 4.835105 -0.000000
v 3.729795 6.483223 0.000000
v 3.734315 13.535105 0.000000
v 4.000000 13.535105 -0.265685
v 4.000000 6.483223 -0.270206
v 4.000000 6.483223 -0.270206
v 4.000000 13.535105 -0.265685
v 4.265685 13.535105 -0.000000
v 4.270205 6.483223 -0.000000
v 4.270205 6.483223 -0.000000
v 4.265685 13.535105 -0.000000
v 4.000000 13.535105 0.265685
v 4.000000 6.483223 0.270206
v 4.000000 6.483223 0.270206
v 4.000000 13.535105 0.265685
v 3.734315 13.535105 0.000000
v 3.729795 6.483223 0.000000
v 5.729795 6.483223 0.000000
v 5.734315 12.535105 0.000000
v 6.000000 12.535105 -0.265685
v 6.000000 6.483223 -0.270206
v 6.000000 6.483223 -0.270206
v 6.000000 12.535105 -0.265685
v 6.265685 12.535105 -0.000000
v 6.270205 6.483223 -0.000000
v 6.270205 6.483223 -0.000000
v 6.265685 12.535105 -0.000000
v 6.000000 12.535105 0.265685
v 6.000000 6.483223 0.270206
v 6.000000 6.483223 0.270206
v 6.000000 12.535105 0.265685
v 5.734315 12.535105 0.000000
v 5.729795 6.483223 0.000000
v -6.270205 6.483223 0.000000
v -6.265685 12.535105 0.000000
v -6.000000 12.535105 -0.265685
v -6.000000 6.483223 -0.270206
v -6.000000 6.483223 -0.270206
v -6.000000 12.535105 -0.265685
v -5.734315 12.535105 -0.000000
v -5.729795 6.483223 -0.000000
v -5.729795 6.483223 -0.000000
v -5.734315 12.535105 -0.000000
v -6.000000 12.535105 0.265685
v -6.000000 6.483223 0.270206
v -6.000000 6.483223 0.270206
v -6.000000 12.535105 0.265685
v -6.265685 12.535105 0.000000
v -6.270205 6.483223 0.000000
v 8.000000 7.269419 0.000001
v -8.000000 7.269420 -0.000001
v -8.000000 7.535105 -0.265686
v 8.000000 7.535104 -0.265684
v 8.000000 7.535104 -0.265684
v -8.000000 7.535105 -0.265686
v -8.000000 7.800790 -0.000001
v 8.000000 7.800789 0.000001
v 8.000000 7.800789 0.000001
v -8.000000 7.800790 -0.000001
v -8.000000 7.535105 0.265684
v 8.000000 7.535104 0.265686
v 8.000000 7.535104 0.265686
v -8.000000 7.535105 0.265684
v -8.000000 7.269420 -0.000001
v 8.000000 7.269419 0.000001
v 8.000000 9.269419 0.000001
v -8.000000 9.269420 -0.000001
v -8.000000 9.535105 -0.265686
v 8.000000 9.535105 -0.265684
v 8.000000 9.535105 -0.265684
v -8.000000 9.535105 -0.265686
v -8.000000 9.800790 -0.000001
v 8.000000 9.800790 0.000001
v 8.000000 9.800790 0.000001
v -8.000000 9.800790 -0.000001
v -8.000000 9.535105 0.265684
v 8.000000 9.535105 0.265686
v 8.000000 9.535105 0.265686
v -8.000000 9.535105 0.265684
v -8.000000 9.269420 -0.000001
v 8.000000 9.269419 0.000001
v -6.270205 6.483223 0.000000
v -6.000000 6.483223 -0.270206
v -6.000000 5.958070 -0.466566
v -6.466565 5.958070 0.000000
v 2.270205 6.483223 -0.000000
v 2.000000 6.483223 0.270206
v 2.000000 5.958070 0.466566
v 2.466566 5.958070 -0.000000
v -4.000000 5.958070 0.466566
v -4.466566 5.958070 0.000000
v -4.000000 4.835105 -0.000000
v 5.729795 6.483223 0.000000
v 6.000000 6.483223 -0.270206
v 6.000000 5.958070 -0.466566
v 5.533435 5.958070 0.000000
v 0.270206 6.483223 -0.000000
v 0.000000 6.483223 0.270206
v 0.000000 5.958070 0.466566
v 0.466566 5.958070 -0.000000
v -2.000000 6.483223 0.270206
v -2.270205 6.483223 0.000000
v -2.466566 5.958070 0.000000
v -2.000000 5.958070 0.466566
v 3.729795 6.483223 0.000000
v 4.000000 6.483223 -0.270206
v 4.000000 5.958070 -0.466566
v 3.533434 5.958070 0.000000
v 2.000000 6.483223 0.270206
v 1.729794 6.483223 0.000000
v 1.533434 5.958070 0.000000
v 2.000000 5.958070 0.466566
v -6.000000 6.483223 -0.270206
v -5.729795 6.483223 -0.000000
v -5.533435 5.958070 -0.000000
v -6.000000 5.958070 -0.466566
v 0.000000 6.483223 0.270206
v -0.270206 6.483223 0.000000
v -0.466566 5.958070 0.000000
v 0.000000 5.958070 0.466566
v 6.000000 6.483223 -0.270206
v 6.270205 6.483223 -0.000000
v 6.466565 5.958070 -0.000000
v 6.000000 5.958070 -0.466566
v -2.270205 6.483223 0.000000
v -2.000000 6.483223 -0.270206
v -2.000000 5.958070 -0.466566
v -2.466566 5.958070 0.000000
v 4.000000 6.483223 -0.270206
v 4.270205 6.483223 -0.000000
v 4.466565 5.958070 -0.000000
v 4.000000 5.958070 -0.466566
v -5.729795 6.483223 -0.000000
v -6.000000 6.483223 0.270206
v -6.000000 5.958070 0.466566
v -5.533435 5.958070 -0.000000
v 1.729794 6.483223 0.000000
v 2.000000 6.483223 -0.270206
v 2.000000 5.958070 -0.466566
v 1.533434 5.958070 0.000000
v -3.533435 5.958070 -0.000000
v -4.000000 5.958070 0.466566
v -4.000000 4.835105 -0.000000
v -4.000000 6.483223 0.270206
v -4.270205 6.483223 0.000000
v -4.466566 5.958070 0.000000
v -4.000000 5.958070 0.466566
v 6.270205 6.483223 -0.000000
v 6.000000 6.483223 0.270206
v 6.000000 5.958070 0.466566
v 6.466565 5.958070 -0.000000
v -0.270206 6.483223 0.000000
v -0.000000 6.483223 -0.270206
v -0.000000 5.958070 -0.466566
v -0.466566 5.958070 0.000000
v -2.000000 6.483223 -0.270206
v -1.729795 6.483223 -0.000000
v -1.533435 5.958070 -0.000000
v -2.000000 5.958070 -0.466566
v 4.270205 6.483223 -0.000000
v 4.000000 6.483223 0.270206
v 4.000000 5.958070 0.466566
v 4.466565 5.958070 -0.000000
v -6.000000 6.483223 0.270206
v -6.270205 6.483223 0.000000
v -6.466565 5.958070 0.000000
v -6.000000 5.958070 0.466566
v 2.000000 6.483223 -0.270206
v 2.270205 6.483223 -0.000000
v 2.466566 5.958070 -0.000000
v 2.000000 5.958070 -0.466566
v -3.729795 6.483223 -0.000000
v -4.000000 6.483223 0.270206
v -4.000000 5.958070 0.466566
v -3.533435 5.958070 -0.000000
v 6.000000 6.483223 0.270206
v 5.729795 6.483223 0.000000
v 5.533435 5.958070 0.000000
v 6.000000 5.958070 0.466566
v -0.000000 6.483223 -0.270206
v 0.270206 6.483223 -0.000000
v 0.466566 5.958070 -0.000000
v -0.000000 5.958070 -0.466566
v -1.729795 6.483223 -0.000000
v -2.000000 6.483223 0.270206
v -2.000000 5.958070 0.466566
v -1.533435 5.958070 -0.000000
v 4.000000 6.483223 0.270206
v 3.729795 6.483223 0.000000
v 3.533434 5.958070 0.000000
v 4.000000 5.958070 0.466566
v 4.000000 5.958070 -0.466566
v 4.466565 5.958070 -0.000000
v 4.000000 4.835105 -0.000000
v 2.000000 5.958070 -0.466566
v 2.466566 5.958070 -0.000000
v 2.000000 4.835105 0.000000
v 4.466565 5.958070 -0.000000
v 4.000000 5.958070 0.466566
v 4.000000 4.835105 -0.000000
v 2.466566 5.958070 -0.000000
v 2.000000 5.958070 0.466566
v 2.000000 4.835105 0.000000
v 4.000000 5.958070 0.466566
v 3.533434 5.958070 0.000000
v 4.000000 4.835105 -0.000000
v 2.000000 5.958070 0.466566
v 1.533434 5.958070 0.000000
v 2.000000 4.835105 0.000000
v 5.533435 5.958070 0.000000
v 6.000000 5.958070 -0.466566
v 6.000000 4.835105 0.000000
v -2.466566 5.958070 0.000000
v -2.000000 5.958070 -0.466566
v -2.000000 4.835105 0.000000
v 6.000000 5.958070 -0.466566
v 6.466565 5.958070 -0.000000
v 6.000000 4.835105 0.000000
v -2.000000 5.958070 -0.466566
v -1.533435 5.958070 -0.000000
v -2.000000 4.835105 0.000000
v 6.466565 5.958070 -0.000000
v 6.000000 5.958070 0.466566
v 6.000000 4.835105 0.000000
v -1.533435 5.958070 -0.000000
v -2.000000 5.958070 0.466566
v -2.000000 4.835105 0.000000
v 6.000000 5.958070 0.466566
v 5.533435 5.958070 0.000000
v 6.000000 4.835105 0.000000
v -2.000000 5.958070 0.466566
v -2.466566 5.958070 0.000000
v -2.000000 4.835105 0.000000
v -6.466565 5.958070 0.000000
v -6.000000 5.958070 -0.466566
v -6.000000 4.835105 -0.000000
v -4.270205 6.483223 0.000000
v -4.000000 6.483223 -0.270206
v -4.000000 5.958070 -0.466566
v -4.466566 5.958070 0.000000
v -6.000000 5.958070 -0.466566
v -5.533435 5.958070 -0.000000
v -6.000000 4.835105 -0.000000
v -3.729795 6.483223 -0.000000
v -3.734315 13.535105 -0.000000
v -4.000000 13.535105 0.265685
v -4.000000 6.483223 0.270206
v -0.466566 5.958070 0.000000
v -0.000000 5.958070 -0.466566
v -0.000000 4.835105 -0.000000
v -5.533435 5.958070 -0.000000
v -6.000000 5.958070 0.466566
v -6.000000 4.835105 -0.000000
v -4.000000 6.483223 -0.270206
v -4.000000 13.535105 -0.265685
v -3.734315 13.535105 -0.000000
v -3.729795 6.483223 -0.000000
v -0.000000 5.958070 -0.466566
v 0.466566 5.958070 -0.000000
v -0.000000 4.835105 -0.000000
v -6.000000 5.958070 0.466566
v -6.466565 5.958070 0.000000
v -6.000000 4.835105 -0.000000
v -4.270205 6.483223 0.000000
v -4.265685 13.535105 0.000000
v -4.000000 13.535105 -0.265685
v -4.000000 6.483223 -0.270206
v 0.466566 5.958070 -0.000000
v 0.000000 5.958070 0.466566
v -0.000000 4.835105 -0.000000
v -4.000000 6.483223 0.270206
v -4.000000 13.535105 0.265685
v -4.265685 13.535105 0.000000
v -4.270205 6.483223 0.000000
v 0.000000 5.958070 0.466566
v -0.466566 5.958070 0.000000
v -0.000000 4.835105 -0.000000
v 3.533434 5.958070 0.000000
v 4.000000 5.958070 -0.466566
v 4.000000 4.835105 -0.000000
v 1.533434 5.958070 0.000000
v 2.000000 5.958070 -0.466566
v 2.000000 4.835105 0.000000
vt 0.929250 0.245000
vt 0.929250 0.005000
vt 0.905250 0.005000
vt 0.905250 0.245000
vt 0.857250 0.245000
vt 0.857250 0.005000
vt 0.833250 0.005000
vt 0.833250 0.245000
vt 0.881250 0.245000
vt 0.881250 0.005000
vt 0.857250 0.005000
vt 0.857250 0.245000
vt 0.905250 0.245000
vt 0.905250 0.005000
vt 0.881250 0.005000
vt 0.881250 0.245000
vt 0.929250 0.245000
vt 0.929250 0.005000
vt 0.905250 0.005000
vt 0.905250 0.245000
vt 0.857250 0.245000
vt 0.857250 0.005000
vt 0.833250 0.005000
vt 0.833250 0.245000
vt 0.881250 0.245000
vt 0.881250 0.005000
vt 0.857250 0.005000
vt 0.857250 0.245000
vt 0.905250 0.245000
vt 0.905250 0.005000
vt 0.881250 0.005000
vt 0.881250 0.245000
vt 0.929250 0.245000
vt 0.929250 0.005000
vt 0.905250 0.005000
vt 0.905250 0.245000
vt 0.857250 0.245000
vt 0.857250 0.005000
vt 0.833250 0.005000
vt 0.833250 0.245000
vt 0.881250 0.245000
vt 0.881250 0.005000
vt 0.857250 0.005000
vt 0.857250 0.245000
vt 0.905250 0.245000
vt 0.905250 0.005000
vt 0.881250 0.005000
vt 0.881250 0.245000
vt 0.857250 0.245000
vt 0.833250 0.245000
vt 0.857250 0.245000
vt 0.857250 0.245000
vt 0.833250 0.245000
vt 0.833250 0.245000
vt 0.857250 0.245000
vt 0.929250 0.245000
vt 0.905250 0.245000
vt 0.929250 0.245000
vt 0.929250 0.245000
vt 0.929250 0.005000
vt 0.905250 0.005000
vt 0.905250 0.245000
vt 0.857250 0.245000
vt 0.857250 0.005000
vt 0.833250 0.005000
vt 0.833250 0.245000
vt 0.881250 0.245000
vt 0.881250 0.005000
vt 0.857250 0.005000
vt 0.857250 0.245000
vt 0.905250 0.245000
vt 0.905250 0.005000
vt 0.881250 0.005000
vt 0.881250 0.245000
vt 0.929250 0.245000
vt 0.929250 0.005000
vt 0.905250 0.005000
vt 0.905250 0.245000
vt 0.857250 0.245000
vt 0.857250 0.005000
vt 0.833250 0.005000
vt 0.833250 0.245000
vt 0.881250 0.245000
vt 0.881250 0.005000
vt 0.857250 0.005000
vt 0.857250 0.245000
vt 0.905250 0.245000
vt 0.905250 0.005000
vt 0.881250 0.005000
vt 0.881250 0.245000
vt 0.929250 0.245000
vt 0.929250 0.005000
vt 0.905250 0.005000
vt 0.905250 0.245000
vt 0.857250 0.245000
vt 0.857250 0.005000
vt 0.833250 0.005000
vt 0.833250 0.245000
vt 0.881250 0.245000
vt 0.881250 0.005000
vt 0.857250 0.005000
vt 0.857250 0.245000
vt 0.905250 0.245000
vt 0.905250 0.005000
vt 0.881250 0.005000
vt 0.881250 0.245000
vt 0.929250 0.245000
vt 0.929250 0.005000
vt 0.905250 0.005000
vt 0.905250 0.245000
vt 0.857250 0.245000
vt 0.857250 0.005000
vt 0.833250 0.005000
vt 0.833250 0.245000
vt 0.881250 0.245000
vt 0.881250 0.005000
vt 0.857250 0.005000
vt 0.857250 0.245000
vt 0.905250 0.245000
vt 0.905250 0.005000
vt 0.881250 0.005000
vt 0.881250 0.245000
vt 0.929250 0.245000
vt 0.929250 0.005000
vt 0.905250 0.005000
vt 0.905250 0.245000
vt 0.857250 0.245000
vt 0.857250 0.005000
vt 0.833250 0.005000
vt 0.833250 0.245000
vt 0.881250 0.245000
vt 0.881250 0.005000
vt 0.857250 0.005000
vt 0.857250 0.245000
vt 0.905250 0.245000
vt 0.905250 0.005000
vt 0.881250 0.005000
vt 0.881250 0.245000
vt 0.929250 0.245000
vt 0.905250 0.245000
vt 0.905250 0.245000
vt 0.929250 0.245000
vt 0.881250 0.245000
vt 0.857250 0.245000
vt 0.857250 0.245000
vt 0.881250 0.245000
vt 0.905250 0.245000
vt 0.881250 0.245000
vt 0.905250 0.245000
vt 0.929250 0.245000
vt 0.905250 0.245000
vt 0.905250 0.245000
vt 0.929250 0.245000
vt 0.881250 0.245000
vt 0.857250 0.245000
vt 0.857250 0.245000
vt 0.881250 0.245000
vt 0.905250 0.245000
vt 0.881250 0.245000
vt 0.881250 0.245000
vt 0.905250 0.245000
vt 0.929250 0.245000
vt 0.905250 0.245000
vt 0.905250 0.245000
vt 0.929250 0.245000
vt 0.905250 0.245000
vt 0.881250 0.245000
vt 0.881250 0.245000
vt 0.905250 0.245000
vt 0.857250 0.245000
vt 0.833250 0.245000
vt 0.833250 0.245000
vt 0.857250 0.245000
vt 0.905250 0.245000
vt 0.881250 0.245000
vt 0.881250 0.245000
vt 0.905250 0.245000
vt 0.857250 0.245000
vt 0.833250 0.245000
vt 0.833250 0.245000
vt 0.857250 0.245000
vt 0.929250 0.245000
vt 0.905250 0.245000
vt 0.905250 0.245000
vt 0.929250 0.245000
vt 0.857250 0.245000
vt 0.833250 0.245000
vt 0.833250 0.245000
vt 0.857250 0.245000
vt 0.881250 0.245000
vt 0.857250 0.245000
vt 0.857250 0.245000
vt 0.881250 0.245000
vt 0.929250 0.245000
vt 0.905250 0.245000
vt 0.905250 0.245000
vt 0.929250 0.245000
vt 0.881250 0.245000
vt 0.857250 0.245000
vt 0.881250 0.245000
vt 0.905250 0.245000
vt 0.881250 0.245000
vt 0.881250 0.245000
vt 0.905250 0.245000
vt 0.881250 0.245000
vt 0.857250 0.245000
vt 0.857250 0.245000
vt 0.881250 0.245000
vt 0.929250 0.245000
vt 0.905250 0.245000
vt 0.905250 0.245000
vt 0.929250 0.245000
vt 0.857250 0.245000
vt 0.833250 0.245000
vt 0.833250 0.245000
vt 0.857250 0.245000
vt 0.881250 0.245000
vt 0.857250 0.245000
vt 0.857250 0.245000
vt 0.881250 0.245000
vt 0.905250 0.245000
vt 0.881250 0.245000
vt 0.881250 0.245000
vt 0.905250 0.245000
vt 0.857250 0.245000
vt 0.833250 0.245000
vt 0.833250 0.245000
vt 0.857250 0.245000
vt 0.881250 0.245000
vt 0.857250 0.245000
vt 0.857250 0.245000
vt 0.881250 0.245000
vt 0.905250 0.245000
vt 0.881250 0.245000
vt 0.881250 0.245000
vt 0.905250 0.245000
vt 0.857250 0.245000
vt 0.833250 0.245000
vt 0.833250 0.245000
vt 0.857250 0.245000
vt 0.881250 0.245000
vt 0.857250 0.245000
vt 0.857250 0.245000
vt 0.881250 0.245000
vt 0.905250 0.245000
vt 0.881250 0.245000
vt 0.881250 0.245000
vt 0.905250 0.245000
vt 0.857250 0.245000
vt 0.833250 0.245000
vt 0.857250 0.245000
vt 0.857250 0.245000
vt 0.833250 0.245000
vt 0.857250 0.245000
vt 0.881250 0.245000
vt 0.857250 0.245000
vt 0.881250 0.245000
vt 0.881250 0.245000
vt 0.857250 0.245000
vt 0.881250 0.245000
vt 0.905250 0.245000
vt 0.881250 0.245000
vt 0.905250 0.245000
vt 0.905250 0.245000
vt 0.881250 0.245000
vt 0.905250 0.245000
vt 0.929250 0.245000
vt 0.905250 0.245000
vt 0.929250 0.245000
vt 0.929250 0.245000
vt 0.905250 0.245000
vt 0.929250 0.245000
vt 0.857250 0.245000
vt 0.833250 0.245000
vt 0.857250 0.245000
vt 0.857250 0.245000
vt 0.833250 0.245000
vt 0.857250 0.245000
vt 0.881250 0.245000
vt 0.857250 0.245000
vt 0.881250 0.245000
vt 0.881250 0.245000
vt 0.857250 0.245000
vt 0.881250 0.245000
vt 0.905250 0.245000
vt 0.881250 0.245000
vt 0.905250 0.245000
vt 0.905250 0.245000
vt 0.881250 0.245000
vt 0.905250 0.245000
vt 0.929250 0.245000
vt 0.905250 0.245000
vt 0.929250 0.245000
vt 0.929250 0.245000
vt 0.905250 0.245000
vt 0.905250 0.245000
vt 0.929250 0.245000
vt 0.857250 0.245000
vt 0.833250 0.245000
vt 0.857250 0.245000
vt 0.881250 0.245000
vt 0.881250 0.005000
vt 0.857250 0.005000
vt 0.857250 0.245000
vt 0.929250 0.245000
vt 0.905250 0.245000
vt 0.929250 0.245000
vt 0.881250 0.245000
vt 0.857250 0.245000
vt 0.881250 0.245000
vt 0.857250 0.245000
vt 0.857250 0.005000
vt 0.833250 0.005000
vt 0.833250 0.245000
vt 0.857250 0.245000
vt 0.833250 0.245000
vt 0.857250 0.245000
vt 0.905250 0.245000
vt 0.881250 0.245000
vt 0.905250 0.245000
vt 0.929250 0.245000
vt 0.929250 0.005000
vt 0.905250 0.005000
vt 0.905250 0.245000
vt 0.881250 0.245000
vt 0.857250 0.245000
vt 0.881250 0.245000
vt 0.905250 0.245000
vt 0.905250 0.005000
vt 0.881250 0.005000
vt 0.881250 0.245000
vt 0.905250 0.245000
vt 0.881250 0.245000
vt 0.905250 0.245000
vt 0.929250 0.245000
vt 0.905250 0.245000
vt 0.929250 0.245000
vt 0.929250 0.245000
vt 0.905250 0.245000
vt 0.929250 0.245000
vn -0.707107 0.000353 -0.707107
vn -0.707107 0.000353 -0.707107
vn -0.707107 0.000353 -0.707107
vn -0.707107 0.000353 -0.707107
vn 0.707107 0.000353 -0.707107
vn 0.707107 0.000353 -0.707107
vn 0.707107 0.000353 -0.707107
vn 0.707107 0.000353 -0.707107
vn 0.707107 0.000353 0.707107
vn 0.707107 0.000353 0.707107
vn 0.707107 0.000353 0.707107
vn 0.707107 0.000353 0.707107
vn -0.707107 0.000353 0.707107
vn -0.707107 0.000353 0.707107
vn -0.707107 0.000353 0.707107
vn -0.707107 0.000353 0.707107
vn -0.707107 0.000397 -0.707107
vn -0.707107 0.000397 -0.707107
vn -0.707107 0.000397 -0.707107
vn -0.707107 0.000397 -0.707107
vn 0.707107 0.000397 -0.707106
vn 0.707107 0.000397 -0.707106
vn 0.707107 0.000397 -0.707106
vn 0.707107 0.000397 -0.707106
vn 0.707107 0.000397 0.707106
vn 0.707107 0.000397 0.707106
vn 0.707107 0.000397 0.707106
vn 0.707107 0.000397 0.707106
vn -0.707107 0.000397 0.707107
vn -0.707107 0.000397 0.707107
vn -0.707107 0.000397 0.707107
vn -0.707107 0.000397 0.707107
vn -0.707107 0.000397 -0.707106
vn -0.707107 0.000397 -0.707106
vn -0.707107 0.000397 -0.707106
vn -0.707107 0.000397 -0.707106
vn 0.707107 0.000397 -0.707107
vn 0.707107 0.000397 -0.707107
vn 0.707107 0.000397 -0.707107
vn 0.707107 0.000397 -0.707107
vn 0.707107 0.000397 0.707107
vn 0.707107 0.000397 0.707107
vn 0.707107 0.000397 0.707107
vn 0.707107 0.000397 0.707107
vn -0.707107 0.000397 0.707106
vn -0.707107 0.000397 0.707106
vn -0.707107 0.000397 0.707106
vn -0.707107 0.000397 0.707106
vn 0.678435 -0.281874 -0.678434
vn 0.678435 -0.281874 -0.678434
vn 0.678435 -0.281874 -0.678434
vn 0.683617 0.255610 -0.683616
vn 0.683617 0.255610 -0.683616
vn 0.683617 0.255610 -0.683616
vn 0.683617 0.255610 -0.683616
vn -0.678434 -0.281874 -0.678435
vn -0.678434 -0.281874 -0.678435
vn -0.678434 -0.281874 -0.678435
vn -0.707107 0.000453 -0.707106
vn -0.707107 0.000453 -0.707106
vn -0.707107 0.000453 -0.707106
vn -0.707107 0.000453 -0.707106
vn 0.707107 0.000453 -0.707106
vn 0.707107 0.000453 -0.707106
vn 0.707107 0.000453 -0.707106
vn 0.707107 0.000453 -0.707106
vn 0.707107 0.000453 0.707107
vn 0.707107 0.000453 0.707107
vn 0.707107 0.000453 0.707107
vn 0.707107 0.000453 0.707107
vn -0.707107 0.000453 0.707107
vn -0.707107 0.000453 0.707107
vn -0.707107 0.000453 0.707107
vn -0.707107 0.000453 0.707107
vn -0.707108 0.000528 -0.707106
vn -0.707108 0.000528 -0.707106
vn -0.707108 0.000528 -0.707106
vn -0.707108 0.000528 -0.707106
vn 0.707107 0.000528 -0.707107
vn 0.707107 0.000528 -0.707107
vn 0.707107 0.000528 -0.707107
vn 0.707107 0.000528 -0.707107
vn 0.707107 0.000528 0.707107
vn 0.707107 0.000528 0.707107
vn 0.707107 0.000528 0.707107
vn 0.707107 0.000528 0.707107
vn -0.707108 0.000528 0.707106
vn -0.707108 0.000528 0.707106
vn -0.707108 0.000528 0.707106
vn -0.707108 0.000528 0.707106
vn -0.707107 0.000528 -0.707107
vn -0.707107 0.000528 -0.707107
vn -0.707107 0.000528 -0.707107
vn -0.707107 0.000528 -0.707107
vn 0.707108 0.000528 -0.707106
vn 0.707108 0.000528 -0.707106
vn 0.707108 0.000528 -0.707106
vn 0.707108 0.000528 -0.707106
vn 0.707108 0.000528 0.707106
vn 0.707108 0.000528 0.707106
vn 0.707108 0.000528 0.707106
vn 0.707108 0.000528 0.707106
vn -0.707107 0.000528 0.707107
vn -0.707107 0.000528 0.707107
vn -0.707107 0.000528 0.707107
vn -0.707107 0.000528 0.707107
vn 0.000000 -0.707107 -0.707107
vn 0.000000 -0.707107 -0.707107
vn 0.000000 -0.707107 -0.707107
vn 0.000000 -0.707107 -0.707107
vn 0.000000 0.707107 -0.707106
vn 0.000000 0.707107 -0.707106
vn 0.000000 0.707107 -0.707106
vn 0.000000 0.707107 -0.707106
vn -0.000000 0.707107 0.707106
vn -0.000000 0.707107 0.707106
vn -0.000000 0.707107 0.707106
vn -0.000000 0.707107 0.707106
vn -0.000000 -0.707107 0.707107
vn -0.000000 -0.707107 0.707107
vn -0.000000 -0.707107 0.707107
vn -0.000000 -0.707107 0.707107
vn 0.000000 -0.707107 -0.707107
vn 0.000000 -0.707107 -0.707107
vn 0.000000 -0.707107 -0.707107
vn 0.000000 -0.707107 -0.707107
vn 0.000000 0.707107 -0.707106
vn 0.000000 0.707107 -0.707106
vn 0.000000 0.707107 -0.707106
vn 0.000000 0.707107 -0.707106
vn -0.000000 0.707107 0.707106
vn -0.000000 0.707107 0.707106
vn -0.000000 0.707107 0.707106
vn -0.000000 0.707107 0.707106
vn -0.000000 -0.707107 0.707107
vn -0.000000 -0.707107 0.707107
vn -0.000000 -0.707107 0.707107
vn -0.000000 -0.707107 0.707107
vn -0.683617 0.255610 -0.683616
vn -0.683617 0.255610 -0.683616
vn -0.683617 0.255610 -0.683616
vn -0.683617 0.255610 -0.683616
vn 0.683617 0.255611 0.683617
vn 0.683617 0.255611 0.683617
vn 0.683617 0.255611 0.683617
vn 0.683617 0.255611 0.683617
vn -0.678434 -0.281874 0.678435
vn -0.678434 -0.281874 0.678435
vn -0.678434 -0.281874 0.678435
vn -0.683617 0.255610 -0.683616
vn -0.683617 0.255610 -0.683616
vn -0.683617 0.255610 -0.683616
vn -0.683617 0.255610 -0.683616
vn 0.683617 0.255611 0.683616
vn 0.683617 0.255611 0.683616
vn 0.683617 0.255611 0.683616
vn 0.683617 0.255611 0.683616
vn -0.683617 0.255611 0.683616
vn -0.683617 0.255611 0.683616
vn -0.683617 0.255611 0.683616
vn -0.683617 0.255611 0.683616
vn -0.683617 0.255611 -0.683617
vn -0.683617 0.255611 -0.683617
vn -0.683617 0.255611 -0.683617
vn -0.683617 0.255611 -0.683617
vn -0.683617 0.255611 0.683617
vn -0.683617 0.255611 0.683617
vn -0.683617 0.255611 0.683617
vn -0.683617 0.255611 0.683617
vn 0.683617 0.255611 -0.683616
vn 0.683617 0.255611 -0.683616
vn 0.683617 0.255611 -0.683616
vn 0.683617 0.255611 -0.683616
vn -0.683617 0.255611 0.683617
vn -0.683617 0.255611 0.683617
vn -0.683617 0.255611 0.683617
vn -0.683617 0.255611 0.683617
vn 0.683617 0.255611 -0.683616
vn 0.683617 0.255611 -0.683616
vn 0.683617 0.255611 -0.683616
vn 0.683617 0.255611 -0.683616
vn -0.683617 0.255611 -0.683616
vn -0.683617 0.255611 -0.683616
vn -0.683617 0.255611 -0.683616
vn -0.683617 0.255611 -0.683616
vn 0.683617 0.255611 -0.683616
vn 0.683617 0.255611 -0.683616
vn 0.683617 0.255611 -0.683616
vn 0.683617 0.255611 -0.683616
vn 0.683617 0.255610 0.683616
vn 0.683617 0.255610 0.683616
vn 0.683617 0.255610 0.683616
vn 0.683617 0.255610 0.683616
vn -0.683617 0.255611 -0.683616
vn -0.683617 0.255611 -0.683616
vn -0.683617 0.255611 -0.683616
vn -0.683617 0.255611 -0.683616
vn 0.678435 -0.281874 0.678434
vn 0.678435 -0.281874 0.678434
vn 0.678435 -0.281874 0.678434
vn -0.683617 0.255611 0.683616
vn -0.683617 0.255611 0.683616
vn -0.683617 0.255611 0.683616
vn -0.683617 0.255611 0.683616
vn 0.683617 0.255610 0.683616
vn 0.683617 0.255610 0.683616
vn 0.683617 0.255610 0.683616
vn 0.683617 0.255610 0.683616
vn -0.683617 0.255611 -0.683616
vn -0.683617 0.255611 -0.683616
vn -0.683617 0.255611 -0.683616
vn -0.683617 0.255611 -0.683616
vn 0.683617 0.255611 -0.683616
vn 0.683617 0.255611 -0.683616
vn 0.683617 0.255611 -0.683616
vn 0.683617 0.255611 -0.683616
vn 0.683618 0.255610 0.683615
vn 0.683618 0.255610 0.683615
vn 0.683618 0.255610 0.683615
vn 0.683618 0.255610 0.683615
vn -0.683617 0.255611 0.683616
vn -0.683617 0.255611 0.683616
vn -0.683617 0.255611 0.683616
vn -0.683617 0.255611 0.683616
vn 0.683617 0.255611 -0.683616
vn 0.683617 0.255611 -0.683616
vn 0.683617 0.255611 -0.683616
vn 0.683617 0.255611 -0.683616
vn 0.683618 0.255610 0.683616
vn 0.683618 0.255610 0.683616
vn 0.683618 0.255610 0.683616
vn 0.683618 0.255610 0.683616
vn -0.683617 0.255611 0.683616
vn -0.683617 0.255611 0.683616
vn -0.683617 0.255611 0.683616
vn -0.683617 0.255611 0.683616
vn 0.683617 0.255611 -0.683616
vn 0.683617 0.255611 -0.683616
vn 0.683617 0.255611 -0.683616
vn 0.683617 0.255611 -0.683616
vn 0.683617 0.255611 0.683616
vn 0.683617 0.255611 0.683616
vn 0.683617 0.255611 0.683616
vn 0.683617 0.255611 0.683616
vn -0.683617 0.255611 0.683616
vn -0.683617 0.255611 0.683616
vn -0.683617 0.255611 0.683616
vn -0.683617 0.255611 0.683616
vn 0.678435 -0.281874 -0.678434
vn 0.678435 -0.281874 -0.678434
vn 0.678435 -0.281874 -0.678434
vn 0.678434 -0.281874 -0.678435
vn 0.678434 -0.281874 -0.678435
vn 0.678434 -0.281874 -0.678435
vn 0.678435 -0.281874 0.678434
vn 0.678435 -0.281874 0.678434
vn 0.678435 -0.281874 0.678434
vn 0.678435 -0.281874 0.678435
vn 0.678435 -0.281874 0.678435
vn 0.678435 -0.281874 0.678435
vn -0.678434 -0.281874 0.678435
vn -0.678434 -0.281874 0.678435
vn -0.678434 -0.281874 0.678435
vn -0.678435 -0.281874 0.678435
vn -0.678435 -0.281874 0.678435
vn -0.678435 -0.281874 0.678435
vn -0.678435 -0.281874 -0.678435
vn -0.678435 -0.281874 -0.678435
vn -0.678435 -0.281874 -0.678435
vn -0.678435 -0.281874 -0.678435
vn -0.678435 -0.281874 -0.678435
vn -0.678435 -0.281874 -0.678435
vn 0.678435 -0.281874 -0.678434
vn 0.678435 -0.281874 -0.678434
vn 0.678435 -0.281874 -0.678434
vn 0.678435 -0.281874 -0.678435
vn 0.678435 -0.281874 -0.678435
vn 0.678435 -0.281874 -0.678435
vn 0.678435 -0.281874 0.678435
vn 0.678435 -0.281874 0.678435
vn 0.678435 -0.281874 0.678435
vn 0.678435 -0.281874 0.678435
vn 0.678435 -0.281874 0.678435
vn 0.678435 -0.281874 0.678435
vn -0.678435 -0.281874 0.678434
vn -0.678435 -0.281874 0.678434
vn -0.678435 -0.281874 0.678434
vn -0.678434 -0.281874 0.678435
vn -0.678434 -0.281874 0.678435
vn -0.678434 -0.281874 0.678435
vn -0.678435 -0.281874 -0.678434
vn -0.678435 -0.281874 -0.678434
vn -0.678435 -0.281874 -0.678434
vn -0.683617 0.255611 -0.683616
vn -0.683617 0.255611 -0.683616
vn -0.683617 0.255611 -0.683616
vn -0.683617 0.255611 -0.683616
vn 0.678435 -0.281873 -0.678434
vn 0.678435 -0.281873 -0.678434
vn 0.678435 -0.281873 -0.678434
vn 0.707107 0.000453 0.707107
vn 0.707107 0.000453 0.707107
vn 0.707107 0.000453 0.707107
vn 0.707107 0.000453 0.707107
vn -0.678435 -0.281874 -0.678435
vn -0.678435 -0.281874 -0.678435
vn -0.678435 -0.281874 -0.678435
vn 0.678435 -0.281874 0.678434
vn 0.678435 -0.281874 0.678434
vn 0.678435 -0.281874 0.678434
vn 0.707107 0.000453 -0.707106
vn 0.707107 0.000453 -0.707106
vn 0.707107 0.000453 -0.707106
vn 0.707107 0.000453 -0.707106
vn 0.678435 -0.281874 -0.678435
vn 0.678435 -0.281874 -0.678435
vn 0.678435 -0.281874 -0.678435
vn -0.678435 -0.281873 0.678434
vn -0.678435 -0.281873 0.678434
vn -0.678435 -0.281873 0.678434
vn -0.707107 0.000453 -0.707106
vn -0.707107 0.000453 -0.707106
vn -0.707107 0.000453 -0.707106
vn -0.707107 0.000453 -0.707106
vn 0.678435 -0.281874 0.678435
vn 0.678435 -0.281874 0.678435
vn 0.678435 -0.281874 0.678435
vn -0.707107 0.000453 0.707107
vn -0.707107 0.000453 0.707107
vn -0.707107 0.000453 0.707107
vn -0.707107 0.000453 0.707107
vn -0.678435 -0.281874 0.678435
vn -0.678435 -0.281874 0.678435
vn -0.678435 -0.281874 0.678435
vn -0.678434 -0.281874 -0.678435
vn -0.678434 -0.281874 -0.678435
vn -0.678434 -0.281874 -0.678435
vn -0.678434 -0.281874 -0.678435
vn -0.678434 -0.281874 -0.678435
vn -0.678434 -0.281874 -0.678435
f 1/1/1 2/2/2 3/3/3
f 1/1/1 3/3/3 4/4/4
f 5/5/5 6/6/6 7/7/7
f 5/5/5 7/7/7 8/8/8
f 9/9/9 10/10/10 11/11/11
f 9/9/9 11/11/11 12/12/12
f 13/13/13 14/14/14 15/15/15
f 13/13/13 15/15/15 16/16/16
f 17/17/17 18/18/18 19/19/19
f 17/17/17 19/19/19 20/20/20
f 21/21/21 22/22/22 23/23/23
f 21/21/21 23/23/23 24/24/24
f 25/25/25 26/26/26 27/27/27
f 25/25/25 27/27/27 28/28/28
f 29/29/29 30/30/30 31/31/31
f 29/29/29 31/31/31 32/32/32
f 33/33/33 34/34/34 35/35/35
f 33/33/33 35/35/35 36/36/36
f 37/37/37 38/38/38 39/39/39
f 37/37/37 39/39/39 40/40/40
f 41/41/41 42/42/42 43/43/43
f 41/41/41 43/43/43 44/44/44
f 45/45/45 46/46/46 47/47/47
f 45/45/45 47/47/47 48/48/48
f 49/49/49 50/50/50 51/51/51
f 52/52/52 53/53/53 54/54/54
f 52/52/52 54/54/54 55/55/55
f 56/56/56 57/57/57 58/58/58
f 59/59/59 60/60/60 61/61/61
f 59/59/59 61/61/61 62/62/62
f 63/63/63 64/64/64 65/65/65
f 63/63/63 65/65/65 66/66/66
f 67/67/67 68/68/68 69/69/69
f 67/67/67 69/69/69 70/70/70
f 71/71/71 72/72/72 73/73/73
f 71/71/71 73/73/73 74/74/74
f 75/75/75 76/76/76 77/77/77
f 75/75/75 77/77/77 78/78/78
f 79/79/79 80/80/80 81/81/81
f 79/79/79 81/81/81 82/82/82
f 83/83/83 84/84/84 85/85/85
f 83/83/83 85/85/85 86/86/86
f 87/87/87 88/88/88 89/89/89
f 87/87/87 89/89/89 90/90/90
f 91/91/91 92/92/92 93/93/93
f 91/91/91 93/93/93 94/94/94
f 95/95/95 96/96/96 97/97/97
f 95/95/95 97/97/97 98/98/98
f 99/99/99 100/100/100 101/101/101
f 99/99/99 101/101/101 102/102/102
f 103/103/103 104/104/104 105/105/105
f 103/103/103 105/105/105 106/106/106
f 107/107/107 108/108/108 109/109/109
f 107/107/107 109/109/109 110/110/110
f 111/111/111 112/112/112 113/113/113
f 111/111/111 113/113/113 114/114/114
f 115/115/115 116/116/116 117/117/117
f 115/115/115 117/117/117 118/118/118
f 119/119/119 120/120/120 121/121/121
f 119/119/119 121/121/121 122/122/122
f 123/123/123 124/124/124 125/125/125
f 123/123/123 125/125/125 126/126/126
f 127/127/127 128/128/128 129/129/129
f 127/127/127 129/129/129 130/130/130
f 131/131/131 132/132/132 133/133/133
f 131/131/131 133/133/133 134/134/134
f 135/135/135 136/136/136 137/137/137
f 135/135/135 137/137/137 138/138/138
f 139/139/139 140/140/140 141/141/141
f 139/139/139 141/141/141 142/142/142
f 143/143/143 144/144/144 145/145/145
f 143/143/143 145/145/145 146/146/146
f 147/147/147 148/148/148 149/149/149
f 150/150/150 151/151/151 152/152/152
f 150/150/150 152/152/152 153/153/153
f 154/154/154 155/155/155 156/156/156
f 154/154/154 156/156/156 157/157/157
f 158/158/158 159/159/159 160/160/160
f 158/158/158 160/160/160 161/161/161
f 162/162/162 163/163/163 164/164/164
f 162/162/162 164/164/164 165/165/165
f 166/166/166 167/167/167 168/168/168
f 166/166/166 168/168/168 169/169/169
f 170/170/170 171/171/171 172/172/172
f 170/170/170 172/172/172 173/173/173
f 174/174/174 175/175/175 176/176/176
f 174/174/174 176/176/176 177/177/177
f 178/178/178 179/179/179 180/180/180
f 178/178/178 180/180/180 181/181/181
f 182/182/182 183/183/183 184/184/184
f 182/182/182 184/184/184 185/185/185
f 186/186/186 187/187/187 188/188/188
f 186/186/186 188/188/188 189/189/189
f 190/190/190 191/191/191 192/192/192
f 190/190/190 192/192/192 193/193/193
f 194/194/194 195/195/195 196/196/196
f 194/194/194 196/196/196 197/197/197
f 198/198/198 199/199/199 200/200/200
f 201/201/201 202/202/202 203/203/203
f 201/201/201 203/203/203 204/204/204
f 205/205/205 206/206/206 207/207/207
f 205/205/205 207/207/207 208/208/208
f 209/209/209 210/210/210 211/211/211
f 209/209/209 211/211/211 212/212/212
f 213/213/213 214/214/214 215/215/215
f 213/213/213 215/215/215 216/216/216
f 217/217/217 218/218/218 219/219/219
f 217/217/217 219/219/219 220/220/220
f 221/221/221 222/222/222 223/223/223
f 221/221/221 223/223/223 224/224/224
f 225/225/225 226/226/226 227/227/227
f 225/225/225 227/227/227 228/228/228
f 229/229/229 230/230/230 231/231/231
f 229/229/229 231/231/231 232/232/232
f 233/233/233 234/234/234 235/235/235
f 233/233/233 235/235/235 236/236/236
f 237/237/237 238/238/238 239/239/239
f 237/237/237 239/239/239 240/240/240
f 241/241/241 242/242/242 243/243/243
f 241/241/241 243/243/243 244/244/244
f 245/245/245 246/246/246 247/247/247
f 245/245/245 247/247/247 248/248/248
f 249/249/249 250/250/250 251/251/251
f 252/252/252 253/253/253 254/254/254
f 255/255/255 256/256/256 257/257/257
f 258/258/258 259/259/259 260/260/260
f 261/261/261 262/262/262 263/263/263
f 264/264/264 265/265/265 266/266/266
f 267/267/267 268/268/268 269/269/269
f 270/270/270 271/271/271 272/272/272
f 273/273/273 274/274/274 275/275/275
f 276/276/276 277/277/277 278/278/278
f 279/279/279 280/280/280 281/281/281
f 282/282/282 283/283/283 284/284/284
f 285/285/285 286/286/286 287/287/287
f 288/288/288 289/289/289 290/290/290
f 291/291/291 292/292/292 293/293/293
f 294/294/294 295/295/295 296/296/296
f 294/294/294 296/296/296 297/297/297
f 298/298/298 299/299/299 300/300/300
f 301/301/301 302/302/302 303/303/303
f 301/301/301 303/303/303 304/304/304
f 305/305/305 306/306/306 307/307/307
f 308/308/308 309/309/309 310/310/310
f 311/311/311 312/312/312 313/313/313
f 311/311/311 313/313/313 314/314/314
f 315/315/315 316/316/316 317/317/317
f 318/318/318 319/319/319 320/320/320
f 321/321/321 322/322/322 323/323/323
f 321/321/321 323/323/323 324/324/324
f 325/325/325 326/326/326 327/327/327
f 328/328/328 329/329/329 330/330/330
f 328/328/328 330/330/330 331/331/331
f 332/332/332 333/333/333 334/334/334
f 335/335/335 336/336/336 337/337/337
f 338/338/338 339/339/339 340/340/340
