# generated by fbx_to_obj.py from Candle_03.fbx geometry 0
v 0.000000 1.000000 -1.000000
v -0.000000 2.100000 -1.000000
v 0.862730 2.024521 -0.500000
v 0.866025 1.000000 -0.500000
v 0.866025 1.000000 -0.500000
v 0.862730 2.024521 -0.500000
v 0.862730 2.024521 0.500000
v 0.866025 1.000000 0.500000
v 0.866025 1.000000 0.500000
v 0.862730 2.024521 0.500000
v -0.000000 2.100000 1.000000
v -0.000000 1.000000 1.000000
v -0.000000 1.000000 1.000000
v -0.000000 2.100000 1.000000
v -0.862730 2.175479 0.500000
v -0.866025 1.000000 0.500000
v 0.862730 2.024521 -0.500000
v -0.000000 2.100000 -1.000000
v -0.862730 2.175479 -0.500000
v -0.862730 2.175479 0.500000
v -0.000000 2.100000 1.000000
v 0.862730 2.024521 0.500000
v -0.866025 1.000000 0.500000
v -0.862730 2.175479 0.500000
v -0.862730 2.175479 -0.500000
v -0.866025 1.000000 -0.500000
v -0.866025 1.000000 -0.500000
v -0.862730 2.175479 -0.500000
v -0.000000 2.100000 -1.000000
v 0.000000 1.000000 -1.000000
v 0.000000 0.000000 -1.100000
v 0.952628 0.000000 -0.550000
v 0.952628 0.000000 0.550000
v -0.000000 0.000000 1.100000
v -0.952628 0.000000 0.550000
v -0.952628 0.000000 -0.550000
v -0.952628 0.000000 -0.550000
v -0.866025 1.000000 -0.500000
v 0.000000 1.000000 -1.000000
v 0.000000 0.000000 -1.100000
v -0.952628 0.000000 0.550000
v -0.866025 1.000000 0.500000
v -0.866025 1.000000 -0.500000
v -0.952628 0.000000 -0.550000
v -0.000000 0.000000 1.100000
v -0.000000 1.000000 1.000000
v -0.866025 1.000000 0.500000
v -0.952628 0.000000 0.550000
v 0.952628 0.000000 0.550000
v 0.866025 1.000000 0.500000
v -0.000000 1.000000 1.000000
v -0.000000 0.000000 1.100000
v 0.952628 0.000000 -0.550000
v 0.866025 1.000000 -0.500000
v 0.866025 1.000000 0.500000
v 0.952628 0.000000 0.550000
v 0.000000 0.000000 -1.100000
v 0.000000 1.000000 -1.000000
v 0.866025 1.000000 -0.500000
v 0.952628 0.000000 -0.550000
vt 0.493750 0.622113
vt 0.493750 0.504925
vt 0.454167 0.504925
vt 0.454167 0.622113
vt 0.454167 0.622113
vt 0.454167 0.504925
vt 0.414583 0.504925
vt 0.414583 0.622113
vt 0.414583 0.622113
vt 0.414583 0.504925
vt 0.375000 0.504925
vt 0.375000 0.622113
vt 0.375000 0.622113
vt 0.375000 0.504925
vt 0.335417 0.504925
vt 0.335417 0.622113
vt 0.434236 0.589475
vt 0.375000 0.555275
vt 0.315764 0.589475
vt 0.315764 0.657875
vt 0.375000 0.692075
vt 0.434236 0.657875
vt 0.335417 0.622113
vt 0.335417 0.504925
vt 0.295833 0.504925
vt 0.295833 0.622113
vt 0.295833 0.622113
vt 0.295833 0.504925
vt 0.256250 0.504925
vt 0.256250 0.622113
vt 0.375000 0.555275
vt 0.434236 0.589475
vt 0.434236 0.657875
vt 0.375000 0.692075
vt 0.315764 0.657875
vt 0.315764 0.589475
vt 0.295833 0.623675
vt 0.295833 0.564300
vt 0.256250 0.564300
vt 0.256250 0.623675
vt 0.335417 0.623675
vt 0.335417 0.564300
vt 0.295833 0.564300
vt 0.295833 0.623675
vt 0.375000 0.623675
vt 0.375000 0.564300
vt 0.335417 0.564300
vt 0.335417 0.623675
vt 0.414583 0.623675
vt 0.414583 0.564300
vt 0.375000 0.564300
vt 0.375000 0.623675
vt 0.454167 0.623675
vt 0.454167 0.564300
vt 0.414583 0.564300
vt 0.414583 0.623675
vt 0.493750 0.623675
vt 0.493750 0.564300
vt 0.454167 0.564300
vt 0.454167 0.623675
vn 0.500740 0.000777 -0.865598
vn 0.500740 0.000777 -0.865598
vn 0.500740 0.000777 -0.865598
vn 0.500740 0.000777 -0.865598
vn 0.999995 0.003217 0.000000
vn 0.999995 0.003217 0.000000
vn 0.999995 0.003217 0.000000
vn 0.999995 0.003217 0.000000
vn 0.500740 0.000777 0.865598
vn 0.500740 0.000777 0.865598
vn 0.500740 0.000777 0.865598
vn 0.500740 0.000777 0.865598
vn -0.500691 0.000725 0.865626
vn -0.500691 0.000725 0.865626
vn -0.500691 0.000725 0.865626
vn -0.500691 0.000725 0.865626
vn 0.087156 0.996195 -0.000000
vn 0.087156 0.996195 -0.000000
vn 0.087156 0.996195 -0.000000
vn 0.087156 0.996195 -0.000000
vn 0.087156 0.996195 -0.000000
vn 0.087156 0.996195 -0.000000
vn -0.999996 0.002804 0.000000
vn -0.999996 0.002804 0.000000
vn -0.999996 0.002804 0.000000
vn -0.999996 0.002804 0.000000
vn -0.500691 0.000725 -0.865626
vn -0.500691 0.000725 -0.865626
vn -0.500691 0.000725 -0.865626
vn -0.500691 0.000725 -0.865626
vn 0.000000 -1.000000 0.000000
vn 0.000000 -1.000000 0.000000
vn 0.000000 -1.000000 0.000000
vn 0.000000 -1.000000 0.000000
vn 0.000000 -1.000000 0.000000
vn 0.000000 -1.000000 0.000000
vn -0.498136 0.086280 -0.862796
vn -0.498136 0.086280 -0.862796
vn -0.498136 0.086280 -0.862796
vn -0.498136 0.086280 -0.862796
vn -0.996271 0.086280 0.000000
vn -0.996271 0.086280 0.000000
vn -0.996271 0.086280 0.000000
vn -0.996271 0.086280 0.000000
vn -0.498136 0.086280 0.862796
vn -0.498136 0.086280 0.862796
vn -0.498136 0.086280 0.862796
vn -0.498136 0.086280 0.862796
vn 0.498135 0.086280 0.862796
vn 0.498135 0.086280 0.862796
vn 0.498135 0.086280 0.862796
vn 0.498135 0.086280 0.862796
vn 0.996271 0.086280 0.000000
vn 0.996271 0.086280 0.000000
vn 0.996271 0.086280 0.000000
vn 0.996271 0.086280 0.000000
vn 0.498136 0.086280 -0.862796
vn 0.498136 0.086280 -0.862796
vn 0.498136 0.086280 -0.862796
vn 0.498136 0.086280 -0.862796
f 1/1/1 2/2/2 3/3/3
f 1/1/1 3/3/3 4/4/4
f 5/5/5 6/6/6 7/7/7
f 5/5/5 7/7/7 8/8/8
f 9/9/9 10/10/10 11/11/11
f 9/9/9 11/11/11 12/12/12
f 13/13/13 14/14/14 15/15/15
f 13/13/13 15/15/15 16/16/16
f 17/17/17 18/18/18 19/19/19
f 17/17/17 19/19/19 20/20/20
f 17/17/17 20/20/20 21/21/21
f 17/17/17 21/21/21 22/22/22
f 23/23/23 24/24/24 25/25/25
f 23/23/23 25/25/25 26/26/26
f 27/27/27 28/28/28 29/29/29
f 27/27/27 29/29/29 30/30/30
f 31/31/31 32/32/32 33/33/33
f 31/31/31 33/33/33 34/34/34
f 31/31/31 34/34/34 35/35/35
f 31/31/31 35/35/35 36/36/36
f 37/37/37 38/38/38 39/39/39
f 37/37/37 39/39/39 40/40/40
f 41/41/41 42/42/42 43/43/43
f 41/41/41 43/43/43 44/44/44
f 45/45/45 46/46/46 47/47/47
f 45/45/45 47/47/47 48/48/48
f 49/49/49 50/50/50 51/51/51
f 49/49/49 51/51/51 52/52/52
f 53/53/53 54/54/54 55/55/55
f 53/53/53 55/55/55 56/56/56
f 57/57/57 58/58/58 59/59/59
f 57/57/57 59/59/59 60/60/60
