# generated by fbx_to_obj.py from Debris.fbx geometry 0
v -2.891709 0.203680 -1.635899
v -2.891709 1.697972 -1.766633
v -1.170979 1.483791 -4.214738
v -1.170979 -0.010501 -4.084004
v -1.170979 -0.010501 -4.084004
v -1.170979 1.483791 -4.214738
v 0.057748 1.558777 -3.357647
v 0.057748 0.064484 -3.226913
v 0.057748 0.064484 -3.226913
v 0.057748 1.558777 -3.357647
v -1.662981 1.772958 -0.909542
v -1.662981 0.278666 -0.778808
v -1.662981 0.278666 -0.778808
v -1.662981 1.772958 -0.909542
v -2.891709 1.697972 -1.766633
v -2.891709 0.203680 -1.635899
v -1.170979 -0.010501 -4.084004
v 0.057748 0.064484 -3.226913
v -1.662981 0.278666 -0.778808
v -2.891709 0.203680 -1.635899
v 0.057748 1.558777 -3.357647
v -1.170979 1.483791 -4.214738
v -2.891709 1.697972 -1.766633
v -1.662981 1.772958 -0.909542
v -1.050021 0.201245 2.116354
v -0.919287 1.695537 2.116354
v 1.247575 1.505961 3.130638
v 1.116841 0.011669 3.130638
v 1.116841 0.011669 3.130638
v 1.247575 1.505961 3.130638
v 0.616060 1.561212 4.490099
v 0.485326 0.066920 4.490099
v 0.485326 0.066920 4.490099
v 0.616060 1.561212 4.490099
v -1.550802 1.750788 3.475816
v -1.681536 0.256496 3.475816
v -1.681536 0.256496 3.475816
v -1.550802 1.750788 3.475816
v -0.919287 1.695537 2.116354
v -1.050021 0.201245 2.116354
v 1.116841 0.011669 3.130638
v 0.485326 0.066920 4.490099
v -1.681536 0.256496 3.475816
v -1.050021 0.201245 2.116354
v 0.616060 1.561212 4.490099
v 1.247575 1.505961 3.130638
v -0.919287 1.695537 2.116354
v -1.550802 1.750788 3.475816
v 3.768272 0.500105 -3.202187
v 3.768272 1.496300 -3.289342
v 3.593960 1.669948 -1.304535
v 3.593960 0.673753 -1.217379
v 3.593960 0.673753 -1.217379
v 3.593960 1.669948 -1.304535
v 2.597766 1.662352 -1.391358
v 2.597766 0.666157 -1.304203
v 2.597766 0.666157 -1.304203
v 2.597766 1.662352 -1.391358
v 2.772077 1.488704 -3.376166
v 2.772077 0.492509 -3.289011
v 2.772077 0.492509 -3.289011
v 2.772077 1.488704 -3.376166
v 3.768272 1.496300 -3.289342
v 3.768272 0.500105 -3.202187
v 3.593960 0.673753 -1.217379
v 2.597766 0.666157 -1.304203
v 2.772077 0.492509 -3.289011
v 3.768272 0.500105 -3.202187
v 2.597766 1.662352 -1.391358
v 3.593960 1.669948 -1.304535
v 3.768272 1.496300 -3.289342
v 2.772077 1.488704 -3.376166
v -3.349345 -0.018772 1.720074
v -3.349345 0.781229 1.720074
v -2.511041 0.781229 2.267227
v -2.311041 -0.018772 2.467227
v -2.311041 -0.018772 2.467227
v -2.511041 0.781229 2.267227
v -3.284618 0.781229 2.886381
v -2.884618 -0.018772 3.286380
v -2.884618 -0.018772 3.286380
v -3.284618 0.781229 2.886381
v -3.922922 0.781229 2.539227
v -3.922922 -0.018772 2.539227
v -3.922922 -0.018772 2.539227
v -3.922922 0.781229 2.539227
v -3.349345 0.781229 1.720074
v -3.349345 -0.018772 1.720074
v -2.311041 -0.018772 2.467227
v -2.884618 -0.018772 3.286380
v -3.922922 -0.018772 2.539227
v -3.349345 -0.018772 1.720074
v -3.284618 0.781229 2.886381
v -2.511041 0.781229 2.267227
v -3.349345 0.781229 1.720074
v -3.922922 0.781229 2.539227
v 2.130318 -0.018772 2.684384
v 2.130318 0.781229 2.684384
v 3.096244 0.781229 2.943203
v 3.482614 -0.018772 3.046731
v 3.482614 -0.018772 3.046731
v 3.096244 0.781229 2.943203
v 2.644240 0.781229 3.857365
v 2.837425 -0.018772 3.909129
v 2.837425 -0.018772 3.909129
v 2.644240 0.781229 3.857365
v 1.871499 0.781229 3.650310
v 1.871499 -0.018772 3.650310
v 1.871499 -0.018772 3.650310
v 1.871499 0.781229 3.650310
v 2.130318 0.781229 2.684384
v 2.130318 -0.018772 2.684384
v 3.482614 -0.018772 3.046731
v 2.837425 -0.018772 3.909129
v 1.871499 -0.018772 3.650310
v 2.130318 -0.018772 2.684384
v 2.644240 0.781229 3.857365
v 3.096244 0.781229 2.943203
v 2.130318 0.781229 2.684384
v 1.871499 0.781229 3.650310
v 1.212682 0.981228 0.673741
v 1.212682 1.781229 0.673741
v 0.346656 1.781229 1.173741
v 0.000247 0.981228 1.373741
v 0.000247 0.981228 1.373741
v 0.346656 1.781229 1.173741
v 0.019861 1.781229 0.207716
v -0.153344 0.981228 0.307716
v -0.153344 0.981228 0.307716
v 0.019861 1.781229 0.207716
v 0.712682 1.781229 -0.192285
v 0.712682 0.981228 -0.192285
v 0.712682 0.981228 -0.192285
v 0.712682 1.781229 -0.192285
v 1.212682 1.781229 0.673741
v 1.212682 0.981228 0.673741
v 0.000247 0.981228 1.373741
v -0.153344 0.981228 0.307716
v 0.712682 0.981228 -0.192285
v 1.212682 0.981228 0.673741
v 0.019861 1.781229 0.207716
v 0.346656 1.781229 1.173741
v 1.212682 1.781229 0.673741
v 0.712682 1.781229 -0.192285
v -2.167276 -0.018772 3.942063
v -2.167276 0.381229 3.942063
v -2.338286 0.381229 4.411910
v -2.406690 -0.018772 4.599847
v -2.406690 -0.018772 4.599847
v -2.338286 0.381229 4.411910
v -2.773930 0.381229 4.146930
v -2.808132 -0.018772 4.240899
v -2.808132 -0.018772 4.240899
v -2.773930 0.381229 4.146930
v -2.637122 0.381229 3.771053
v -2.637122 -0.018772 3.771053
v -2.637122 -0.018772 3.771053
v -2.637122 0.381229 3.771053
v -2.167276 0.381229 3.942063
v -2.167276 -0.018772 3.942063
v -2.406690 -0.018772 4.599847
v -2.808132 -0.018772 4.240899
v -2.637122 -0.018772 3.771053
v -2.167276 -0.018772 3.942063
v -2.773930 0.381229 4.146930
v -2.338286 0.381229 4.411910
v -2.167276 0.381229 3.942063
v -2.637122 0.381229 3.771053
v 3.446238 -0.018772 2.280447
v 3.446238 0.381229 2.280447
v 3.829260 0.381229 1.959053
v 3.982469 -0.018772 1.830497
v 3.982469 -0.018772 1.830497
v 3.829260 0.381229 1.959053
v 4.074049 0.381229 2.406354
v 4.150654 -0.018772 2.342076
v 4.150654 -0.018772 2.342076
v 4.074049 0.381229 2.406354
v 3.767632 0.381229 2.663470
v 3.767632 -0.018772 2.663470
v 3.767632 -0.018772 2.663470
v 3.767632 0.381229 2.663470
v 3.446238 0.381229 2.280447
v 3.446238 -0.018772 2.280447
v 3.982469 -0.018772 1.830497
v 4.150654 -0.018772 2.342076
v 3.767632 -0.018772 2.663470
v 3.446238 -0.018772 2.280447
v 4.074049 0.381229 2.406354
v 3.829260 0.381229 1.959053
v 3.446238 0.381229 2.280447
v 3.767632 0.381229 2.663470
v 0.000000 0.000000 -5.899950
v 2.364452 1.368437 -2.064451
v 4.800000 0.000000 -4.400000
v -4.400000 0.000000 4.599999
v 0.100000 0.000000 5.499950
v -1.764452 0.868437 2.464452
v 1.864452 0.568437 2.464452
v 0.100000 0.000000 5.499950
v 4.199999 0.000000 4.700000
v -4.800000 0.000000 -4.500000
v -5.600000 0.000000 0.200000
v -2.064452 0.968437 -1.964452
v 5.800000 0.000000 0.100000
v 2.364452 1.368437 -2.064451
v 0.000008 2.000000 -1.000003
v 1.864452 0.568437 2.464452
v 0.000000 0.000000 -5.899950
v -2.064452 0.968437 -1.964452
v 0.000008 2.000000 -1.000003
v 2.364452 1.368437 -2.064451
v -5.600000 0.000000 0.200000
v -1.764452 0.868437 2.464452
v 0.000008 2.000000 -1.000003
v -2.064452 0.968437 -1.964452
v 0.100000 0.000000 5.499950
v 1.864452 0.568437 2.464452
v 0.000008 2.000000 -1.000003
v -1.764452 0.868437 2.464452
v 4.800000 0.000000 -4.400000
v 2.364452 1.368437 -2.064451
v 5.800000 0.000000 0.100000
v -5.600000 0.000000 0.200000
v -4.400000 0.000000 4.599999
v -1.764452 0.868437 2.464452
v 0.000000 0.000000 -5.899950
v -4.800000 0.000000 -4.500000
v -2.064452 0.968437 -1.964452
v 5.800000 0.000000 0.100000
v 1.864452 0.568437 2.464452
v 4.199999 0.000000 4.700000
v 1.272524 0.581228 -1.921743
v 1.272524 1.381229 -1.921743
v 0.366216 1.381229 -2.344362
v 0.003695 0.581228 -2.513410
v 0.003695 0.581228 -2.513410
v 0.366216 1.381229 -2.344362
v 0.970096 1.381229 -3.166146
v 0.788836 0.581228 -3.250670
v 0.788836 0.581228 -3.250670
v 0.970096 1.381229 -3.166146
v 1.695142 1.381229 -2.828052
v 1.695142 0.581228 -2.828052
v 1.695142 0.581228 -2.828052
v 1.695142 1.381229 -2.828052
v 1.272524 1.381229 -1.921743
v 1.272524 0.581228 -1.921743
v 0.003695 0.581228 -2.513410
v 0.788836 0.581228 -3.250670
v 1.695142 0.581228 -2.828052
v 1.272524 0.581228 -1.921743
v 0.970096 1.381229 -3.166146
v 0.366216 1.381229 -2.344362
v 1.272524 1.381229 -1.921743
v 1.695142 1.381229 -2.828052
v -4.147954 0.385464 0.744709
v -4.125396 1.369503 0.568192
v -4.470731 1.029356 -1.372180
v -4.493288 0.045317 -1.195663
v -4.493288 0.045317 -1.195663
v -4.470731 1.029356 -1.372180
v -3.486009 0.976992 -1.538255
v -3.508567 -0.007047 -1.361738
v -3.508567 -0.007047 -1.361738
v -3.486009 0.976992 -1.538255
v -3.140674 1.317140 0.402117
v -3.163232 0.333101 0.578634
v -3.163232 0.333101 0.578634
v -3.140674 1.317140 0.402117
v -4.125396 1.369503 0.568192
v -4.147954 0.385464 0.744709
v -4.493288 0.045317 -1.195663
v -3.508567 -0.007047 -1.361738
v -3.163232 0.333101 0.578634
v -4.147954 0.385464 0.744709
v -3.486009 0.976992 -1.538255
v -4.470731 1.029356 -1.372180
v -4.125396 1.369503 0.568192
v -3.140674 1.317140 0.402117
v 3.628837 0.190421 0.180209
v 3.835276 0.872525 0.543689
v 2.869751 1.083431 0.696274
v 2.277104 0.485689 0.393828
v 2.277104 0.485689 0.393828
v 2.869751 1.083431 0.696274
v 3.028583 1.519310 -0.211901
v 2.629040 0.879387 -0.544864
v 2.629040 0.879387 -0.544864
v 3.028583 1.519310 -0.211901
v 3.801002 1.350585 -0.333969
v 3.594564 0.668481 -0.697450
v 3.594564 0.668481 -0.697450
v 3.801002 1.350585 -0.333969
v 3.835276 0.872525 0.543689
v 3.628837 0.190421 0.180209
v 2.277104 0.485689 0.393828
v 2.629040 0.879387 -0.544864
v 3.594564 0.668481 -0.697450
v 3.628837 0.190421 0.180209
v 3.028583 1.519310 -0.211901
v 2.869751 1.083431 0.696274
v 3.835276 0.872525 0.543689
v 3.801002 1.350585 -0.333969
vt 0.334141 0.384000
vt 0.415859 0.384000
vt 0.415859 0.317906
vt 0.334141 0.317906
vt 0.334141 0.384313
vt 0.415859 0.384313
vt 0.415859 0.318219
vt 0.334141 0.318219
vt 0.334141 0.384625
vt 0.415859 0.384625
vt 0.415859 0.320625
vt 0.334141 0.320625
vt 0.334141 0.385078
vt 0.415859 0.385078
vt 0.415859 0.318984
vt 0.334141 0.318984
vt 0.254375 0.384625
vt 0.334141 0.384625
vt 0.334141 0.320625
vt 0.254375 0.320625
vt 0.415859 0.384625
vt 0.495625 0.384625
vt 0.495625 0.320625
vt 0.415859 0.320625
vt 0.334141 0.384000
vt 0.415859 0.384000
vt 0.415859 0.317906
vt 0.334141 0.317906
vt 0.334141 0.384313
vt 0.415859 0.384313
vt 0.415859 0.318219
vt 0.334141 0.318219
vt 0.334141 0.384625
vt 0.415859 0.384625
vt 0.415859 0.320625
vt 0.334141 0.320625
vt 0.334141 0.385078
vt 0.415859 0.385078
vt 0.415859 0.318984
vt 0.334141 0.318984
vt 0.254375 0.384625
vt 0.334141 0.384625
vt 0.334141 0.320625
vt 0.254375 0.320625
vt 0.415859 0.384625
vt 0.495625 0.384625
vt 0.495625 0.320625
vt 0.415859 0.320625
vt 0.334141 0.384000
vt 0.415859 0.384000
vt 0.415859 0.317906
vt 0.334141 0.317906
vt 0.334141 0.384313
vt 0.415859 0.384313
vt 0.415859 0.318219
vt 0.334141 0.318219
vt 0.334141 0.384625
vt 0.415859 0.384625
vt 0.415859 0.320625
vt 0.334141 0.320625
vt 0.334141 0.385078
vt 0.415859 0.385078
vt 0.415859 0.318984
vt 0.334141 0.318984
vt 0.254375 0.384625
vt 0.334141 0.384625
vt 0.334141 0.320625
vt 0.254375 0.320625
vt 0.415859 0.384625
vt 0.495625 0.384625
vt 0.495625 0.320625
vt 0.415859 0.320625
vt 0.334141 0.384000
vt 0.415859 0.384000
vt 0.415859 0.317906
vt 0.334141 0.317906
vt 0.334141 0.384313
vt 0.415859 0.384313
vt 0.415859 0.318219
vt 0.334141 0.318219
vt 0.334141 0.384625
vt 0.415859 0.384625
vt 0.415859 0.320625
vt 0.334141 0.320625
vt 0.334141 0.385078
vt 0.415859 0.385078
vt 0.415859 0.318984
vt 0.334141 0.318984
vt 0.254375 0.384625
vt 0.334141 0.384625
vt 0.334141 0.320625
vt 0.254375 0.320625
vt 0.415859 0.384625
vt 0.495625 0.384625
vt 0.495625 0.320625
vt 0.415859 0.320625
vt 0.334141 0.384000
vt 0.415859 0.384000
vt 0.415859 0.317906
vt 0.334141 0.317906
vt 0.334141 0.384313
vt 0.415859 0.384313
vt 0.415859 0.318219
vt 0.334141 0.318219
vt 0.334141 0.384625
vt 0.415859 0.384625
vt 0.415859 0.320625
vt 0.334141 0.320625
vt 0.334141 0.385078
vt 0.415859 0.385078
vt 0.415859 0.318984
vt 0.334141 0.318984
vt 0.254375 0.384625
vt 0.334141 0.384625
vt 0.334141 0.320625
vt 0.254375 0.320625
vt 0.415859 0.384625
vt 0.495625 0.384625
vt 0.495625 0.320625
vt 0.415859 0.320625
vt 0.334141 0.384000
vt 0.415859 0.384000
vt 0.415859 0.317906
vt 0.334141 0.317906
vt 0.334141 0.384313
vt 0.415859 0.384313
vt 0.415859 0.318219
vt 0.334141 0.318219
vt 0.334141 0.384625
vt 0.415859 0.384625
vt 0.415859 0.320625
vt 0.334141 0.320625
vt 0.334141 0.385078
vt 0.415859 0.385078
vt 0.415859 0.318984
vt 0.334141 0.318984
vt 0.254375 0.384625
vt 0.334141 0.384625
vt 0.334141 0.320625
vt 0.254375 0.320625
vt 0.415859 0.384625
vt 0.495625 0.384625
vt 0.495625 0.320625
vt 0.415859 0.320625
vt 0.334141 0.384000
vt 0.415859 0.384000
vt 0.415859 0.317906
vt 0.334141 0.317906
vt 0.334141 0.384313
vt 0.415859 0.384313
vt 0.415859 0.318219
vt 0.334141 0.318219
vt 0.334141 0.384625
vt 0.415859 0.384625
vt 0.415859 0.320625
vt 0.334141 0.320625
vt 0.334141 0.385078
vt 0.415859 0.385078
vt 0.415859 0.318984
vt 0.334141 0.318984
vt 0.254375 0.384625
vt 0.334141 0.384625
vt 0.334141 0.320625
vt 0.254375 0.320625
vt 0.415859 0.384625
vt 0.495625 0.384625
vt 0.495625 0.320625
vt 0.415859 0.320625
vt 0.334141 0.384000
vt 0.415859 0.384000
vt 0.415859 0.317906
vt 0.334141 0.317906
vt 0.334141 0.384313
vt 0.415859 0.384313
vt 0.415859 0.318219
vt 0.334141 0.318219
vt 0.334141 0.384625
vt 0.415859 0.384625
vt 0.415859 0.320625
vt 0.334141 0.320625
vt 0.334141 0.385078
vt 0.415859 0.385078
vt 0.415859 0.318984
vt 0.334141 0.318984
vt 0.254375 0.384625
vt 0.334141 0.384625
vt 0.334141 0.320625
vt 0.254375 0.320625
vt 0.415859 0.384625
vt 0.495625 0.384625
vt 0.495625 0.320625
vt 0.415859 0.320625
vt 0.307501 0.140625
vt 0.355230 0.120855
vt 0.307500 0.073125
vt 0.442500 0.208125
vt 0.442499 0.140625
vt 0.394770 0.160395
vt 0.394770 0.120855
vt 0.442500 0.140625
vt 0.442500 0.073125
vt 0.307500 0.208125
vt 0.375000 0.208124
vt 0.355230 0.160395
vt 0.375000 0.073126
vt 0.355230 0.120855
vt 0.375000 0.140625
vt 0.394770 0.120855
vt 0.307501 0.140625
vt 0.355230 0.160395
vt 0.375000 0.140625
vt 0.355230 0.120855
vt 0.375000 0.208124
vt 0.394770 0.160395
vt 0.375000 0.140625
vt 0.355230 0.160395
vt 0.442499 0.140625
vt 0.394770 0.120855
vt 0.375000 0.140625
vt 0.394770 0.160395
vt 0.307500 0.073125
vt 0.355230 0.120855
vt 0.375000 0.073125
vt 0.375000 0.208125
vt 0.442500 0.208125
vt 0.394770 0.160395
vt 0.307500 0.140625
vt 0.307500 0.208125
vt 0.355230 0.160395
vt 0.375000 0.073126
vt 0.394770 0.120855
vt 0.442500 0.073125
vt 0.334141 0.384000
vt 0.415859 0.384000
vt 0.415859 0.317906
vt 0.334141 0.317906
vt 0.334141 0.384313
vt 0.415859 0.384313
vt 0.415859 0.318219
vt 0.334141 0.318219
vt 0.334141 0.384625
vt 0.415859 0.384625
vt 0.415859 0.320625
vt 0.334141 0.320625
vt 0.334141 0.385078
vt 0.415859 0.385078
vt 0.415859 0.318984
vt 0.334141 0.318984
vt 0.254375 0.384625
vt 0.334141 0.384625
vt 0.334141 0.320625
vt 0.254375 0.320625
vt 0.415859 0.384625
vt 0.495625 0.384625
vt 0.495625 0.320625
vt 0.415859 0.320625
vt 0.334141 0.384000
vt 0.415859 0.384000
vt 0.415859 0.317906
vt 0.334141 0.317906
vt 0.334141 0.384313
vt 0.415859 0.384313
vt 0.415859 0.318219
vt 0.334141 0.318219
vt 0.334141 0.384625
vt 0.415859 0.384625
vt 0.415859 0.320625
vt 0.334141 0.320625
vt 0.334141 0.385078
vt 0.415859 0.385078
vt 0.415859 0.318984
vt 0.334141 0.318984
vt 0.254375 0.384625
vt 0.334141 0.384625
vt 0.334141 0.320625
vt 0.254375 0.320625
vt 0.415859 0.384625
vt 0.495625 0.384625
vt 0.495625 0.320625
vt 0.415859 0.320625
vt 0.334141 0.384000
vt 0.415859 0.384000
vt 0.415859 0.317906
vt 0.334141 0.317906
vt 0.334141 0.384313
vt 0.415859 0.384313
vt 0.415859 0.318219
vt 0.334141 0.318219
vt 0.334141 0.384625
vt 0.415859 0.384625
vt 0.415859 0.320625
vt 0.334141 0.320625
vt 0.334141 0.385078
vt 0.415859 0.385078
vt 0.415859 0.318984
vt 0.334141 0.318984
vt 0.254375 0.384625
vt 0.334141 0.384625
vt 0.334141 0.320625
vt 0.254375 0.320625
vt 0.415859 0.384625
vt 0.495625 0.384625
vt 0.495625 0.320625
vt 0.415859 0.320625
vn -0.819152 -0.049990 -0.571394
vn -0.819152 -0.049990 -0.571394
vn -0.819152 -0.049990 -0.571394
vn -0.819152 -0.049990 -0.571394
vn 0.573577 -0.071394 -0.816035
vn 0.573577 -0.071394 -0.816035
vn 0.573577 -0.071394 -0.816035
vn 0.573577 -0.071394 -0.816035
vn 0.819152 0.049991 0.571394
vn 0.819152 0.049991 0.571394
vn 0.819152 0.049991 0.571394
vn 0.819152 0.049991 0.571394
vn -0.573577 0.071394 0.816035
vn -0.573577 0.071394 0.816035
vn -0.573577 0.071394 0.816035
vn -0.573577 0.071394 0.816035
vn 0.000000 -0.996195 0.087156
vn 0.000000 -0.996195 0.087156
vn 0.000000 -0.996195 0.087156
vn 0.000000 -0.996195 0.087156
vn -0.000000 0.996195 -0.087156
vn -0.000000 0.996195 -0.087156
vn -0.000000 0.996195 -0.087156
vn -0.000000 0.996195 -0.087156
vn 0.421010 -0.036834 -0.906308
vn 0.421010 -0.036834 -0.906308
vn 0.421010 -0.036834 -0.906308
vn 0.421010 -0.036834 -0.906308
vn 0.902859 -0.078990 0.422618
vn 0.902859 -0.078990 0.422618
vn 0.902859 -0.078990 0.422618
vn 0.902859 -0.078990 0.422618
vn -0.421010 0.036833 0.906308
vn -0.421010 0.036833 0.906308
vn -0.421010 0.036833 0.906308
vn -0.421010 0.036833 0.906308
vn -0.902859 0.078990 -0.422618
vn -0.902859 0.078990 -0.422618
vn -0.902859 0.078990 -0.422618
vn -0.902859 0.078990 -0.422618
vn -0.087156 -0.996195 0.000000
vn -0.087156 -0.996195 0.000000
vn -0.087156 -0.996195 0.000000
vn -0.087156 -0.996195 0.000000
vn 0.087156 0.996195 0.000000
vn 0.087156 0.996195 0.000000
vn 0.087156 0.996195 0.000000
vn 0.087156 0.996195 0.000000
vn 0.996195 0.007596 0.086824
vn 0.996195 0.007596 0.086824
vn 0.996195 0.007596 0.086824
vn 0.996195 0.007596 0.086824
vn -0.087155 0.086824 0.992404
vn -0.087155 0.086824 0.992404
vn -0.087155 0.086824 0.992404
vn -0.087155 0.086824 0.992404
vn -0.996195 -0.007596 -0.086824
vn -0.996195 -0.007596 -0.086824
vn -0.996195 -0.007596 -0.086824
vn -0.996195 -0.007596 -0.086824
vn 0.087155 -0.086824 -0.992404
vn 0.087155 -0.086824 -0.992404
vn 0.087155 -0.086824 -0.992404
vn 0.087155 -0.086824 -0.992404
vn 0.000000 -0.996195 0.087156
vn 0.000000 -0.996195 0.087156
vn 0.000000 -0.996195 0.087156
vn 0.000000 -0.996195 0.087156
vn 0.000000 0.996195 -0.087156
vn 0.000000 0.996195 -0.087156
vn 0.000000 0.996195 -0.087156
vn 0.000000 0.996195 -0.087156
vn 0.567472 -0.031913 -0.822774
vn 0.567472 -0.031913 -0.822774
vn 0.567472 -0.031913 -0.822774
vn 0.567472 -0.031913 -0.822774
vn 0.644869 0.468325 0.604000
vn 0.644869 0.468325 0.604000
vn 0.644869 0.468325 0.604000
vn 0.644869 0.468325 0.604000
vn -0.545133 0.072518 0.835207
vn -0.545133 0.072518 0.835207
vn -0.545133 0.072518 0.835207
vn -0.545133 0.072518 0.835207
vn -0.819152 0.000000 -0.573576
vn -0.819152 0.000000 -0.573576
vn -0.819152 0.000000 -0.573576
vn -0.819152 0.000000 -0.573576
vn 0.000000 -1.000000 0.000000
vn 0.000000 -1.000000 0.000000
vn 0.000000 -1.000000 0.000000
vn 0.000000 -1.000000 0.000000
vn 0.000000 1.000000 0.000000
vn 0.000000 1.000000 0.000000
vn 0.000000 1.000000 0.000000
vn 0.000000 1.000000 0.000000
vn 0.258819 0.000000 -0.965926
vn 0.258819 0.000000 -0.965926
vn 0.258819 0.000000 -0.965926
vn 0.258819 0.000000 -0.965926
vn 0.800732 0.338040 0.494527
vn 0.800732 0.338040 0.494527
vn 0.800732 0.338040 0.494527
vn 0.800732 0.338040 0.494527
vn -0.258819 0.000000 0.965926
vn -0.258819 0.000000 0.965926
vn -0.258819 0.000000 0.965926
vn -0.258819 0.000000 0.965926
vn -0.965926 0.000000 -0.258819
vn -0.965926 0.000000 -0.258819
vn -0.965926 0.000000 -0.258819
vn -0.965926 0.000000 -0.258819
vn 0.000000 -1.000000 0.000000
vn 0.000000 -1.000000 0.000000
vn 0.000000 -1.000000 0.000000
vn 0.000000 -1.000000 0.000000
vn 0.000000 1.000000 0.000000
vn 0.000000 1.000000 0.000000
vn 0.000000 1.000000 0.000000
vn 0.000000 1.000000 0.000000
vn 0.500000 0.000000 0.866026
vn 0.500000 0.000000 0.866026
vn 0.500000 0.000000 0.866026
vn 0.500000 0.000000 0.866026
vn -0.915887 0.338040 0.216520
vn -0.915887 0.338040 0.216520
vn -0.915887 0.338040 0.216520
vn -0.915887 0.338040 0.216520
vn -0.500000 0.000000 -0.866025
vn -0.500000 0.000000 -0.866025
vn -0.500000 0.000000 -0.866025
vn -0.500000 0.000000 -0.866025
vn 0.866026 0.000000 -0.500000
vn 0.866026 0.000000 -0.500000
vn 0.866026 0.000000 -0.500000
vn 0.866026 0.000000 -0.500000
vn 0.000000 -1.000000 0.000000
vn 0.000000 -1.000000 0.000000
vn 0.000000 -1.000000 0.000000
vn 0.000000 -1.000000 0.000000
vn 0.000000 1.000000 0.000000
vn 0.000000 1.000000 0.000000
vn 0.000000 1.000000 0.000000
vn 0.000000 1.000000 0.000000
vn 0.939693 -0.000000 0.342020
vn 0.939693 -0.000000 0.342020
vn 0.939693 -0.000000 0.342020
vn 0.939693 -0.000000 0.342020
vn -0.562434 0.338038 0.754585
vn -0.562434 0.338038 0.754585
vn -0.562434 0.338038 0.754585
vn -0.562434 0.338038 0.754585
vn -0.939693 0.000000 -0.342020
vn -0.939693 0.000000 -0.342020
vn -0.939693 0.000000 -0.342020
vn -0.939693 0.000000 -0.342020
vn 0.342020 0.000000 -0.939693
vn 0.342020 0.000000 -0.939693
vn 0.342020 0.000000 -0.939693
vn 0.342020 0.000000 -0.939693
vn 0.000000 -1.000000 0.000000
vn 0.000000 -1.000000 0.000000
vn 0.000000 -1.000000 0.000000
vn 0.000000 -1.000000 0.000000
vn 0.000000 1.000000 0.000000
vn 0.000000 1.000000 0.000000
vn 0.000000 1.000000 0.000000
vn 0.000000 1.000000 0.000000
vn -0.642788 -0.000001 -0.766044
vn -0.642788 -0.000001 -0.766044
vn -0.642788 -0.000001 -0.766044
vn -0.642788 -0.000001 -0.766044
vn 0.864375 0.338039 -0.372272
vn 0.864375 0.338039 -0.372272
vn 0.864375 0.338039 -0.372272
vn 0.864375 0.338039 -0.372272
vn 0.642789 0.000001 0.766044
vn 0.642789 0.000001 0.766044
vn 0.642789 0.000001 0.766044
vn 0.642789 0.000001 0.766044
vn -0.766044 0.000000 0.642788
vn -0.766044 0.000000 0.642788
vn -0.766044 0.000000 0.642788
vn -0.766044 0.000000 0.642788
vn -0.000000 -1.000000 0.000000
vn -0.000000 -1.000000 0.000000
vn -0.000000 -1.000000 0.000000
vn -0.000000 -1.000000 0.000000
vn 0.000000 1.000000 0.000000
vn 0.000000 1.000000 0.000000
vn 0.000000 1.000000 0.000000
vn 0.000000 1.000000 0.000000
vn 0.125314 0.907459 -0.401017
vn 0.125314 0.907459 -0.401017
vn 0.125314 0.907459 -0.401017
vn -0.061894 0.948887 0.309487
vn -0.061894 0.948887 0.309487
vn -0.061894 0.948887 0.309487
vn 0.040288 0.977619 0.206490
vn 0.040288 0.977619 0.206490
vn 0.040288 0.977619 0.206490
vn -0.292051 0.955110 -0.049711
vn -0.292051 0.955110 -0.049711
vn -0.292051 0.955110 -0.049711
vn 0.285953 0.937730 0.197213
vn 0.285953 0.937730 0.197213
vn 0.285953 0.937730 0.197213
vn 0.285953 0.937730 0.197213
vn -0.091762 0.921940 -0.376306
vn -0.091762 0.921940 -0.376306
vn -0.091762 0.921940 -0.376306
vn -0.091762 0.921940 -0.376306
vn -0.327736 0.943767 0.043509
vn -0.327736 0.943767 0.043509
vn -0.327736 0.943767 0.043509
vn -0.327736 0.943767 0.043509
vn 0.078796 0.953147 0.292066
vn 0.078796 0.953147 0.292066
vn 0.078796 0.953147 0.292066
vn 0.078796 0.953147 0.292066
vn 0.418451 0.903467 -0.092989
vn 0.418451 0.903467 -0.092989
vn 0.418451 0.903467 -0.092989
vn -0.259894 0.963032 0.070880
vn -0.259894 0.963032 0.070880
vn -0.259894 0.963032 0.070880
vn -0.081101 0.957130 -0.278072
vn -0.081101 0.957130 -0.278072
vn -0.081101 0.957130 -0.278072
vn 0.179274 0.981821 0.062356
vn 0.179274 0.981821 0.062356
vn 0.179274 0.981821 0.062356
vn -0.422619 -0.000001 0.906308
vn -0.422619 -0.000001 0.906308
vn -0.422619 -0.000001 0.906308
vn -0.422619 -0.000001 0.906308
vn -0.702693 0.338039 -0.626060
vn -0.702693 0.338039 -0.626060
vn -0.702693 0.338039 -0.626060
vn -0.702693 0.338039 -0.626060
vn 0.422618 0.000001 -0.906308
vn 0.422618 0.000001 -0.906308
vn 0.422618 0.000001 -0.906308
vn 0.422618 0.000001 -0.906308
vn 0.906308 0.000000 0.422617
vn 0.906308 0.000000 0.422617
vn 0.906308 0.000000 0.422617
vn 0.906308 0.000000 0.422617
vn 0.000000 -1.000000 0.000000
vn 0.000000 -1.000000 0.000000
vn 0.000000 -1.000000 0.000000
vn 0.000000 -1.000000 0.000000
vn 0.000000 1.000000 0.000000
vn 0.000000 1.000000 0.000000
vn 0.000000 1.000000 0.000000
vn 0.000000 1.000000 0.000000
vn -0.984722 0.052364 0.166075
vn -0.984722 0.052364 0.166075
vn -0.984722 0.052364 0.166075
vn -0.984722 0.052364 0.166075
vn -0.172667 -0.170074 -0.970186
vn -0.172667 -0.170074 -0.970186
vn -0.172667 -0.170074 -0.970186
vn -0.172667 -0.170074 -0.970186
vn 0.984722 -0.052364 -0.166075
vn 0.984722 -0.052364 -0.166075
vn 0.984722 -0.052364 -0.166075
vn 0.984722 -0.052364 -0.166075
vn 0.172668 0.170074 0.970186
vn 0.172668 0.170074 0.970186
vn 0.172668 0.170074 0.970186
vn 0.172668 0.170074 0.970186
vn -0.022558 -0.984039 0.176517
vn -0.022558 -0.984039 0.176517
vn -0.022558 -0.984039 0.176517
vn -0.022558 -0.984039 0.176517
vn 0.022557 0.984039 -0.176517
vn 0.022557 0.984039 -0.176517
vn 0.022557 0.984039 -0.176517
vn 0.022557 0.984039 -0.176517
vn 0.034273 -0.478060 0.877658
vn 0.034273 -0.478060 0.877658
vn 0.034273 -0.478060 0.877658
vn 0.034273 -0.478060 0.877658
vn -0.792401 0.607625 0.053788
vn -0.792401 0.607625 0.053788
vn -0.792401 0.607625 0.053788
vn -0.792401 0.607625 0.053788
vn -0.034274 0.478060 -0.877658
vn -0.034274 0.478060 -0.877658
vn -0.034274 0.478060 -0.877658
vn -0.034274 0.478060 -0.877658
vn 0.965524 -0.210906 -0.152585
vn 0.965524 -0.210906 -0.152585
vn 0.965524 -0.210906 -0.152585
vn 0.965524 -0.210906 -0.152585
vn -0.258048 -0.852630 -0.454350
vn -0.258048 -0.852630 -0.454350
vn -0.258048 -0.852630 -0.454350
vn -0.258048 -0.852630 -0.454350
vn 0.258048 0.852630 0.454350
vn 0.258048 0.852630 0.454350
vn 0.258048 0.852630 0.454350
vn 0.258048 0.852630 0.454350
f 1/1/1 2/2/2 3/3/3
f 1/1/1 3/3/3 4/4/4
f 5/5/5 6/6/6 7/7/7
f 5/5/5 7/7/7 8/8/8
f 9/9/9 10/10/10 11/11/11
f 9/9/9 11/11/11 12/12/12
f 13/13/13 14/14/14 15/15/15
f 13/13/13 15/15/15 16/16/16
f 17/17/17 18/18/18 19/19/19
f 17/17/17 19/19/19 20/20/20
f 21/21/21 22/22/22 23/23/23
f 21/21/21 23/23/23 24/24/24
f 25/25/25 26/26/26 27/27/27
f 25/25/25 27/27/27 28/28/28
f 29/29/29 30/30/30 31/31/31
f 29/29/29 31/31/31 32/32/32
f 33/33/33 34/34/34 35/35/35
f 33/33/33 35/35/35 36/36/36
f 37/37/37 38/38/38 39/39/39
f 37/37/37 39/39/39 40/40/40
f 41/41/41 42/42/42 43/43/43
f 41/41/41 43/43/43 44/44/44
f 45/45/45 46/46/46 47/47/47
f 45/45/45 47/47/47 48/48/48
f 49/49/49 50/50/50 51/51/51
f 49/49/49 51/51/51 52/52/52
f 53/53/53 54/54/54 55/55/55
f 53/53/53 55/55/55 56/56/56
f 57/57/57 58/58/58 59/59/59
f 57/57/57 59/59/59 60/60/60
f 61/61/61 62/62/62 63/63/63
f 61/61/61 63/63/63 64/64/64
f 65/65/65 66/66/66 67/67/67
f 65/65/65 67/67/67 68/68/68
f 69/69/69 70/70/70 71/71/71
f 69/69/69 71/71/71 72/72/72
f 73/73/73 74/74/74 75/75/75
f 73/73/73 75/75/75 76/76/76
f 77/77/77 78/78/78 79/79/79
f 77/77/77 79/79/79 80/80/80
f 81/81/81 82/82/82 83/83/83
f 81/81/81 83/83/83 84/84/84
f 85/85/85 86/86/86 87/87/87
f 85/85/85 87/87/87 88/88/88
f 89/89/89 90/90/90 91/91/91
f 89/89/89 91/91/91 92/92/92
f 93/93/93 94/94/94 95/95/95
f 93/93/93 95/95/95 96/96/96
f 97/97/97 98/98/98 99/99/99
f 97/97/97 99/99/99 100/100/100
f 101/101/101 102/102/102 103/103/103
f 101/101/101 103/103/103 104/104/104
f 105/105/105 106/106/106 107/107/107
f 105/105/105 107/107/107 108/108/108
f 109/109/109 110/110/110 111/111/111
f 109/109/109 111/111/111 112/112/112
f 113/113/113 114/114/114 115/115/115
f 113/113/113 115/115/115 116/116/116
f 117/117/117 118/118/118 119/119/119
f 117/117/117 119/119/119 120/120/120
f 121/121/121 122/122/122 123/123/123
f 121/121/121 123/123/123 124/124/124
f 125/125/125 126/126/126 127/127/127
f 125/125/125 127/127/127 128/128/128
f 129/129/129 130/130/130 131/131/131
f 129/129/129 131/131/131 132/132/132
f 133/133/133 134/134/134 135/135/135
f 133/133/133 135/135/135 136/136/136
f 137/137/137 138/138/138 139/139/139
f 137/137/137 139/139/139 140/140/140
f 141/141/141 142/142/142 143/143/143
f 141/141/141 143/143/143 144/144/144
f 145/145/145 146/146/146 147/147/147
f 145/145/145 147/147/147 148/148/148
f 149/149/149 150/150/150 151/151/151
f 149/149/149 151/151/151 152/152/152
f 153/153/153 154/154/154 155/155/155
f 153/153/153 155/155/155 156/156/156
f 157/157/157 158/158/158 159/159/159
f 157/157/157 159/159/159 160/160/160
f 161/161/161 162/162/162 163/163/163
f 161/161/161 163/163/163 164/164/164
f 165/165/165 166/166/166 167/167/167
f 165/165/165 167/167/167 168/168/168
f 169/169/169 170/170/170 171/171/171
f 169/169/169 171/171/171 172/172/172
f 173/173/173 174/174/174 175/175/175
f 173/173/173 175/175/175 176/176/176
f 177/177/177 178/178/178 179/179/179
f 177/177/177 179/179/179 180/180/180
f 181/181/181 182/182/182 183/183/183
f 181/181/181 183/183/183 184/184/184
f 185/185/185 186/186/186 187/187/187
f 185/185/185 187/187/187 188/188/188
f 189/189/189 190/190/190 191/191/191
f 189/189/189 191/191/191 192/192/192
f 193/193/193 194/194/194 195/195/195
f 196/196/196 197/197/197 198/198/198
f 199/199/199 200/200/200 201/201/201
f 202/202/202 203/203/203 204/204/204
f 205/205/205 206/206/206 207/207/207
f 205/205/205 207/207/207 208/208/208
f 209/209/209 210/210/210 211/211/211
f 209/209/209 211/211/211 212/212/212
f 213/213/213 214/214/214 215/215/215
f 213/213/213 215/215/215 216/216/216
f 217/217/217 218/218/218 219/219/219
f 217/217/217 219/219/219 220/220/220
f 221/221/221 222/222/222 223/223/223
f 224/224/224 225/225/225 226/226/226
f 227/227/227 228/228/228 229/229/229
f 230/230/230 231/231/231 232/232/232
f 233/233/233 234/234/234 235/235/235
f 233/233/233 235/235/235 236/236/236
f 237/237/237 238/238/238 239/239/239
f 237/237/237 239/239/239 240/240/240
f 241/241/241 242/242/242 243/243/243
f 241/241/241 243/243/243 244/244/244
f 245/245/245 246/246/246 247/247/247
f 245/245/245 247/247/247 248/248/248
f 249/249/249 250/250/250 251/251/251
f 249/249/249 251/251/251 252/252/252
f 253/253/253 254/254/254 255/255/255
f 253/253/253 255/255/255 256/256/256
f 257/257/257 258/258/258 259/259/259
f 257/257/257 259/259/259 260/260/260
f 261/261/261 262/262/262 263/263/263
f 261/261/261 263/263/263 264/264/264
f 265/265/265 266/266/266 267/267/267
f 265/265/265 267/267/267 268/268/268
f 269/269/269 270/270/270 271/271/271
f 269/269/269 271/271/271 272/272/272
f 273/273/273 274/274/274 275/275/275
f 273/273/273 275/275/275 276/276/276
f 277/277/277 278/278/278 279/279/279
f 277/277/277 279/279/279 280/280/280
f 281/281/281 282/282/282 283/283/283
f 281/281/281 283/283/283 284/284/284
f 285/285/285 286/286/286 287/287/287
f 285/285/285 287/287/287 288/288/288
f 289/289/289 290/290/290 291/291/291
f 289/289/289 291/291/291 292/292/292
f 293/293/293 294/294/294 295/295/295
f 293/293/293 295/295/295 296/296/296
f 297/297/297 298/298/298 299/299/299
f 297/297/297 299/299/299 300/300/300
f 301/301/301 302/302/302 303/303/303
f 301/301/301 303/303/303 304/304/304
