# generated by fbx_to_obj.py from Hexagon.fbx geometry 0
v 0.000001 0.000000 -20.000000
v 0.000001 8.000000 -20.000000
v 17.320509 8.000000 -9.999999
v 17.320509 0.000000 -9.999999
v 17.320509 0.000000 -9.999999
v 17.320509 8.000000 -9.999999
v 17.320507 8.000000 10.000001
v 17.320507 0.000000 10.000001
v 17.320507 0.000000 10.000001
v 17.320507 8.000000 10.000001
v -0.000001 8.000000 20.000000
v -0.000000 0.000000 20.000000
v -0.000000 0.000000 20.000000
v -0.000001 8.000000 20.000000
v -17.320509 8.000000 9.999998
v -17.320509 0.000000 9.999998
v 11.320509 8.000000 -6.535898
v 0.000001 8.000000 -13.071796
v -11.320508 8.000000 -6.535897
v -11.320508 8.000000 6.535896
v -0.000001 8.000000 13.071796
v 11.320508 8.000000 6.535899
v -17.320509 0.000000 9.999998
v -17.320509 8.000000 9.999998
v -17.320509 8.000000 -9.999998
v -17.320509 0.000000 -9.999998
v -17.320509 0.000000 -9.999998
v -17.320509 8.000000 -9.999998
v 0.000001 8.000000 -20.000000
v 0.000001 0.000000 -20.000000
v 0.000001 0.000000 -20.000000
v 17.320509 0.000000 -9.999999
v 17.320507 0.000000 10.000001
v -0.000000 0.000000 20.000000
v -17.320509 0.000000 9.999998
v -17.320509 0.000000 -9.999998
v 0.000001 8.000000 -13.071796
v 11.320509 8.000000 -6.535898
v 17.320509 8.000000 -9.999999
v 0.000001 8.000000 -20.000000
v 11.320509 8.000000 -6.535898
v 11.320508 8.000000 6.535899
v 17.320507 8.000000 10.000001
v 17.320509 8.000000 -9.999999
v 11.320508 8.000000 6.535899
v -0.000001 8.000000 13.071796
v -0.000001 8.000000 20.000000
v 17.320507 8.000000 10.000001
v -0.000001 8.000000 13.071796
v -11.320508 8.000000 6.535896
v -17.320509 8.000000 9.999998
v -0.000001 8.000000 20.000000
v -11.320508 8.000000 6.535896
v -11.320508 8.000000 -6.535897
v -17.320509 8.000000 -9.999998
v -17.320509 8.000000 9.999998
v -11.320508 8.000000 -6.535897
v 0.000001 8.000000 -13.071796
v 0.000001 8.000000 -20.000000
v -17.320509 8.000000 -9.999998
vt 0.255000 0.230600
vt 0.255000 0.019400
vt 0.495000 0.019400
vt 0.495000 0.230600
vt 0.495000 0.230600
vt 0.495000 0.019400
vt 0.255000 0.019400
vt 0.255000 0.230600
vt 0.495000 0.230600
vt 0.495000 0.019400
vt 0.255000 0.019400
vt 0.255000 0.230600
vt 0.495000 0.230600
vt 0.495000 0.019400
vt 0.255000 0.019400
vt 0.255000 0.230600
vt 0.021077 0.435000
vt 0.125000 0.495000
vt 0.228923 0.435000
vt 0.228923 0.315000
vt 0.125000 0.255000
vt 0.021077 0.315000
vt 0.255000 0.230600
vt 0.255000 0.019400
vt 0.495000 0.019400
vt 0.495000 0.230600
vt 0.255000 0.230600
vt 0.255000 0.019400
vt 0.495000 0.019400
vt 0.495000 0.230600
vt 0.750000 0.510000
vt 0.957846 0.630000
vt 0.957846 0.870000
vt 0.750000 0.990000
vt 0.542154 0.870000
vt 0.542154 0.630000
vt 0.287766 0.061250
vt 0.465359 0.061250
vt 0.500000 0.001250
vt 0.253125 0.001250
vt 0.287766 0.061250
vt 0.465359 0.061250
vt 0.500000 0.001250
vt 0.253125 0.001250
vt 0.287766 0.061250
vt 0.465359 0.061250
vt 0.500000 0.001250
vt 0.253125 0.001250
vt 0.287855 0.061250
vt 0.465448 0.061250
vt 0.500089 0.001250
vt 0.253214 0.001250
vt 0.287766 0.061250
vt 0.465359 0.061250
vt 0.500000 0.001250
vt 0.253125 0.001250
vt 0.287766 0.061250
vt 0.465359 0.061250
vt 0.500000 0.001250
vt 0.253125 0.001250
vn 0.500000 -0.000000 -0.866025
vn 0.500000 -0.000000 -0.866025
vn 0.500000 -0.000000 -0.866025
vn 0.500000 -0.000000 -0.866025
vn 1.000000 0.000000 0.000000
vn 1.000000 0.000000 0.000000
vn 1.000000 0.000000 0.000000
vn 1.000000 0.000000 0.000000
vn 0.500000 -0.000000 0.866025
vn 0.500000 -0.000000 0.866025
vn 0.500000 -0.000000 0.866025
vn 0.500000 -0.000000 0.866025
vn -0.500000 0.000000 0.866025
vn -0.500000 0.000000 0.866025
vn -0.500000 0.000000 0.866025
vn -0.500000 0.000000 0.866025
vn 0.000000 1.000000 0.000000
vn 0.000000 1.000000 0.000000
vn 0.000000 1.000000 0.000000
vn 0.000000 1.000000 0.000000
vn 0.000000 1.000000 0.000000
vn 0.000000 1.000000 0.000000
vn -1.000000 0.000000 0.000000
vn -1.000000 0.000000 0.000000
vn -1.000000 0.000000 0.000000
vn -1.000000 0.000000 0.000000
vn -0.500000 0.000000 -0.866025
vn -0.500000 0.000000 -0.866025
vn -0.500000 0.000000 -0.866025
vn -0.500000 0.000000 -0.866025
vn 0.000000 -1.000000 0.000000
vn 0.000000 -1.000000 0.000000
vn 0.000000 -1.000000 0.000000
vn 0.000000 -1.000000 0.000000
vn 0.000000 -1.000000 0.000000
vn 0.000000 -1.000000 0.000000
vn 0.000000 1.000000 0.000000
vn 0.000000 1.000000 0.000000
vn 0.000000 1.000000 0.000000
vn 0.000000 1.000000 0.000000
vn -0.000000 1.000000 0.000000
vn -0.000000 1.000000 0.000000
vn -0.000000 1.000000 0.000000
vn -0.000000 1.000000 0.000000
vn 0.000000 1.000000 0.000000
vn 0.000000 1.000000 0.000000
vn 0.000000 1.000000 0.000000
vn 0.000000 1.000000 0.000000
vn 0.000000 1.000000 0.000000
vn 0.000000 1.000000 0.000000
vn 0.000000 1.000000 0.000000
vn 0.000000 1.000000 0.000000
vn 0.000000 1.000000 0.000000
vn 0.000000 1.000000 0.000000
vn 0.000000 1.000000 0.000000
vn 0.000000 1.000000 0.000000
vn 0.000000 1.000000 0.000000
vn 0.000000 1.000000 0.000000
vn 0.000000 1.000000 0.000000
vn 0.000000 1.000000 0.000000
f 1/1/1 2/2/2 3/3/3
f 1/1/1 3/3/3 4/4/4
f 5/5/5 6/6/6 7/7/7
f 5/5/5 7/7/7 8/8/8
f 9/9/9 10/10/10 11/11/11
f 9/9/9 11/11/11 12/12/12
f 13/13/13 14/14/14 15/15/15
f 13/13/13 15/15/15 16/16/16
f 17/17/17 18/18/18 19/19/19
f 17/17/17 19/19/19 20/20/20
f 17/17/17 20/20/20 21/21/21
f 17/17/17 21/21/21 22/22/22
f 23/23/23 24/24/24 25/25/25
f 23/23/23 25/25/25 26/26/26
f 27/27/27 28/28/28 29/29/29
f 27/27/27 29/29/29 30/30/30
f 31/31/31 32/32/32 33/33/33
f 31/31/31 33/33/33 34/34/34
f 31/31/31 34/34/34 35/35/35
f 31/31/31 35/35/35 36/36/36
f 37/37/37 38/38/38 39/39/39
f 37/37/37 39/39/39 40/40/40
f 41/41/41 42/42/42 43/43/43
f 41/41/41 43/43/43 44/44/44
f 45/45/45 46/46/46 47/47/47
f 45/45/45 47/47/47 48/48/48
f 49/49/49 50/50/50 51/51/51
f 49/49/49 51/51/51 52/52/52
f 53/53/53 54/54/54 55/55/55
f 53/53/53 55/55/55 56/56/56
f 57/57/57 58/58/58 59/59/59
f 57/57/57 59/59/59 60/60/60
