# generated by fbx_to_obj.py from Stairs_Ultrawide.fbx geometry 0
v -10.000000 0.000000 -30.000000
v 10.000000 10.000000 -30.000000
v 10.000000 0.000000 -30.000000
v 10.000000 0.000000 30.000000
v 10.000000 10.000000 30.000000
v -10.000000 0.000000 30.000000
v 10.000000 0.000000 -30.000000
v 10.000000 10.000000 -30.000000
v 10.000000 10.000000 -27.000000
v 10.000000 0.000000 -27.000000
v -10.000000 0.000000 -30.000000
v 10.000000 0.000000 -30.000000
v 10.000000 0.000000 -27.000000
v -10.000000 0.000000 -27.000000
v -10.000000 0.000000 27.000000
v 10.000000 0.000000 27.000000
v 10.000000 0.000000 30.000000
v -10.000000 0.000000 30.000000
v 10.000000 10.000000 -30.000000
v -10.000000 0.000000 -30.000000
v -10.000000 0.000000 -27.000000
v 10.000000 10.000000 -27.000000
v 10.000000 0.000000 27.000000
v 10.000000 10.000000 27.000000
v 10.000000 10.000000 30.000000
v 10.000000 0.000000 30.000000
v -10.000000 0.000000 27.000000
v 10.000000 10.000000 27.000000
v 10.000000 10.000000 -27.000000
v -10.000000 0.000000 -27.000000
v 10.000000 0.000000 27.000000
v -10.000000 0.000000 27.000000
v -10.000000 0.000000 -27.000000
v 10.000000 0.000000 -27.000000
v 10.000000 10.000000 27.000000
v -10.000000 0.000000 27.000000
v -10.000000 0.000000 30.000000
v 10.000000 10.000000 30.000000
v 10.000000 10.000000 27.000000
v 10.000000 0.000000 27.000000
v 10.000000 0.000000 -27.000000
v 10.000000 10.000000 -27.000000
vt 0.500000 0.250000
vt 0.500000 0.500000
vt 0.750000 0.500000
vt 0.500000 0.500000
vt 0.750000 0.500000
vt 0.500000 0.250000
vt 0.500000 0.500000
vt 0.750000 0.500000
vt 0.750000 0.487500
vt 0.500000 0.487500
vt 0.125000 0.500000
vt 0.375000 0.500000
vt 0.375000 0.487500
vt 0.125000 0.487500
vt 0.125000 0.262500
vt 0.375000 0.262500
vt 0.375000 0.250000
vt 0.125000 0.250000
vt 0.750000 0.250000
vt 0.750000 0.000000
vt 0.731250 0.000000
vt 0.731250 0.250000
vt 0.500000 0.262500
vt 0.750000 0.262500
vt 0.750000 0.250000
vt 0.500000 0.250000
vt 0.527712 0.000000
vt 0.527712 0.250000
vt 0.718750 0.250000
vt 0.718750 0.000000
vt 0.375000 0.262500
vt 0.125000 0.262500
vt 0.125000 0.487500
vt 0.375000 0.487500
vt 0.518750 0.250000
vt 0.518750 0.000000
vt 0.500000 0.000000
vt 0.500000 0.250000
vt 0.750000 0.262500
vt 0.500000 0.262500
vt 0.500000 0.487500
vt 0.750000 0.487500
vn 0.000000 0.000000 -1.000000
vn 0.000000 0.000000 -1.000000
vn 0.000000 0.000000 -1.000000
vn 0.000000 0.000000 1.000000
vn 0.000000 0.000000 1.000000
vn 0.000000 0.000000 1.000000
vn 1.000000 0.000000 0.000000
vn 1.000000 0.000000 0.000000
vn 1.000000 0.000000 0.000000
vn 1.000000 0.000000 0.000000
vn 0.000000 -1.000000 0.000000
vn 0.000000 -1.000000 0.000000
vn 0.000000 -1.000000 0.000000
vn 0.000000 -1.000000 0.000000
vn 0.000000 -1.000000 0.000000
vn 0.000000 -1.000000 0.000000
vn 0.000000 -1.000000 0.000000
vn 0.000000 -1.000000 0.000000
vn -0.447214 0.894427 0.000000
vn -0.447214 0.894427 0.000000
vn -0.447214 0.894427 0.000000
vn -0.447214 0.894427 0.000000
vn 1.000000 0.000000 0.000000
vn 1.000000 0.000000 0.000000
vn 1.000000 0.000000 0.000000
vn 1.000000 0.000000 0.000000
vn -0.447214 0.894427 0.000000
vn -0.447214 0.894427 0.000000
vn -0.447214 0.894427 0.000000
vn -0.447214 0.894427 0.000000
vn 0.000000 -1.000000 0.000000
vn 0.000000 -1.000000 0.000000
vn 0.000000 -1.000000 0.000000
vn 0.000000 -1.000000 0.000000
vn -0.447214 0.894427 0.000000
vn -0.447214 0.894427 0.000000
vn -0.447214 0.894427 0.000000
vn -0.447214 0.894427 0.000000
vn 1.000000 0.000000 0.000000
vn 1.000000 0.000000 0.000000
vn 1.000000 0.000000 0.000000
vn 1.000000 0.000000 0.000000
f 1/1/1 2/2/2 3/3/3
f 4/4/4 5/5/5 6/6/6
f 7/7/7 8/8/8 9/9/9
f 7/7/7 9/9/9 10/10/10
f 11/11/11 12/12/12 13/13/13
f 11/11/11 13/13/13 14/14/14
f 15/15/15 16/16/16 17/17/17
f 15/15/15 17/17/17 18/18/18
f 19/19/19 20/20/20 21/21/21
f 19/19/19 21/21/21 22/22/22
f 23/23/23 24/24/24 25/25/25
f 23/23/23 25/25/25 26/26/26
f 27/27/27 28/28/28 29/29/29
f 27/27/27 29/29/29 30/30/30
f 31/31/31 32/32/32 33/33/33
f 31/31/31 33/33/33 34/34/34
f 35/35/35 36/36/36 37/37/37
f 35/35/35 37/37/37 38/38/38
f 39/39/39 40/40/40 41/41/41
f 39/39/39 41/41/41 42/42/42
