# generated by fbx_to_obj.py from Wall_Table.fbx geometry 0
v 10.000000 -5.000000 -0.000002
v 10.000000 -3.000000 -0.000002
v 10.000002 -3.000000 9.999998
v 10.000002 -5.000000 9.999998
v 0.000002 -5.000000 10.000000
v 0.000002 -3.000000 10.000000
v -9.999998 -3.000000 10.000002
v -9.999998 -5.000000 10.000002
v -9.999998 -5.000000 10.000002
v -9.999998 -3.000000 10.000002
v -10.000000 -3.000000 0.000002
v -10.000000 -5.000000 0.000002
v 0.000000 -5.000000 0.000000
v 0.000000 -3.000000 0.000000
v 10.000000 -3.000000 -0.000002
v 10.000000 -5.000000 -0.000002
v 0.000002 -5.000000 10.000000
v -9.999998 -5.000000 10.000002
v -10.000000 -5.000000 0.000002
v 0.000000 -5.000000 0.000000
v 0.000002 -3.000000 10.000000
v 10.000002 -3.000000 9.999998
v 10.000000 -3.000000 -0.000002
v 0.000000 -3.000000 0.000000
v -9.999998 -3.000000 10.000002
v 0.000002 -3.000000 10.000000
v 0.000000 -3.000000 0.000000
v -10.000000 -3.000000 0.000002
v 10.000002 -5.000000 9.999998
v 0.000002 -5.000000 10.000000
v 0.000000 -5.000000 0.000000
v 10.000000 -5.000000 -0.000002
v -10.000000 -5.000000 0.000002
v -10.000000 -3.000000 0.000002
v 0.000000 -3.000000 0.000000
v 0.000000 -5.000000 0.000000
v 10.000002 -5.000000 9.999998
v 10.000002 -3.000000 9.999998
v 0.000002 -3.000000 10.000000
v 0.000002 -5.000000 10.000000
v -5.500000 3.535413 -0.535531
v -5.500000 2.121199 0.878683
v -6.500000 2.121199 0.878683
v -6.500000 3.535413 -0.535531
v -6.000000 1.767645 0.525130
v -6.000000 0.353432 1.939343
v -6.000000 1.060538 2.646450
v -6.000000 2.474752 1.232237
v -5.500000 2.121199 0.878683
v -5.500000 0.706985 2.292896
v -6.500000 0.706985 2.292896
v -6.500000 2.121199 0.878683
v -5.500000 0.706985 2.292896
v -5.500000 -0.707228 3.707109
v -6.500000 -0.707228 3.707109
v -6.500000 0.706985 2.292896
v -5.500000 -0.707228 3.707109
v -5.499999 -2.121442 5.121323
v -6.499999 -2.121442 5.121323
v -6.500000 -0.707228 3.707109
v -5.499999 -2.121442 5.121323
v -5.499999 -3.535656 6.535538
v -6.499999 -3.535656 6.535538
v -6.499999 -2.121442 5.121323
v -6.000000 3.181860 -0.889085
v -6.000000 1.767645 0.525130
v -6.000000 2.474752 1.232237
v -6.000000 3.888967 -0.181977
v -6.000000 0.353432 1.939343
v -6.000000 -1.060781 3.353556
v -6.000000 -0.353675 4.060663
v -6.000000 1.060538 2.646450
v -6.000000 -1.060781 3.353556
v -6.000000 -2.474995 4.767770
v -5.999999 -1.767888 5.474876
v -6.000000 -0.353675 4.060663
v -6.000000 -2.474995 4.767770
v -5.999999 -3.889210 6.181984
v -5.999999 -3.182103 6.889091
v -5.999999 -1.767888 5.474876
v 7.500000 3.535413 -0.535533
v 7.500000 2.121199 0.878681
v 6.500000 2.121199 0.878681
v 6.500000 3.535413 -0.535533
v 7.000000 1.767645 0.525128
v 7.000000 0.353432 1.939342
v 7.000000 1.060538 2.646448
v 7.000000 2.474752 1.232235
v 7.500000 2.121199 0.878681
v 7.500000 0.706985 2.292894
v 6.500000 0.706985 2.292894
v 6.500000 2.121199 0.878681
v 7.500000 0.706985 2.292894
v 7.500000 -0.707228 3.707108
v 6.500000 -0.707228 3.707108
v 6.500000 0.706985 2.292894
v 7.500000 -0.707228 3.707108
v 7.500001 -2.121442 5.121321
v 6.500001 -2.121442 5.121321
v 6.500000 -0.707228 3.707108
v 7.500001 -2.121442 5.121321
v 7.500001 -3.535656 6.535536
v 6.500001 -3.535656 6.535536
v 6.500001 -2.121442 5.121321
v 7.000000 3.181860 -0.889087
v 7.000000 1.767645 0.525128
v 7.000000 2.474752 1.232235
v 7.000000 3.888967 -0.181979
v 7.000000 0.353432 1.939342
v 7.000000 -1.060781 3.353554
v 7.000000 -0.353675 4.060661
v 7.000000 1.060538 2.646448
v 7.000000 -1.060781 3.353554
v 7.000001 -2.474995 4.767768
v 7.000001 -1.767888 5.474874
v 7.000000 -0.353675 4.060661
v 7.000001 -2.474995 4.767768
v 7.000001 -3.889210 6.181982
v 7.000001 -3.182103 6.889089
v 7.000001 -1.767888 5.474874
vt 0.375000 0.709027
vt 0.375000 0.804639
vt 0.125000 0.804639
vt 0.125000 0.709027
vt 0.437313 0.750000
vt 0.384195 0.750000
vt 0.384195 0.562500
vt 0.437313 0.562500
vt 0.125000 0.709027
vt 0.125000 0.804639
vt 0.375000 0.804639
vt 0.375000 0.709027
vt 0.437313 0.750000
vt 0.384195 0.750000
vt 0.384195 0.953125
vt 0.437313 0.953125
vt 0.375000 0.750000
vt 0.375000 0.562500
vt 0.125000 0.562500
vt 0.125000 0.750000
vt 0.125000 0.750000
vt 0.125000 0.953125
vt 0.375000 0.953125
vt 0.375000 0.750000
vt 0.125000 0.562500
vt 0.125000 0.750000
vt 0.375000 0.750000
vt 0.375000 0.562500
vt 0.375000 0.953125
vt 0.375000 0.750000
vt 0.125000 0.750000
vt 0.125000 0.953125
vt 0.437313 0.562500
vt 0.384195 0.562500
vt 0.384195 0.750000
vt 0.437313 0.750000
vt 0.437313 0.953125
vt 0.384195 0.953125
vt 0.384195 0.750000
vt 0.437313 0.750000
vt 0.000000 0.700000
vt 1.000000 0.700000
vt 1.000000 0.300000
vt 0.000000 0.300000
vt 0.000000 0.700000
vt 1.000000 0.700000
vt 1.000000 0.300000
vt 0.000000 0.300000
vt 0.000000 0.700000
vt 1.000000 0.700000
vt 1.000000 0.300000
vt 0.000000 0.300000
vt 0.000000 0.700000
vt 1.000000 0.700000
vt 1.000000 0.300000
vt 0.000000 0.300000
vt 0.000000 0.700000
vt 1.000000 0.700000
vt 1.000000 0.300000
vt 0.000000 0.300000
vt 0.000000 0.700000
vt 1.000000 0.700000
vt 1.000000 0.300000
vt 0.000000 0.300000
vt 0.000000 0.700000
vt 1.000000 0.700000
vt 1.000000 0.300000
vt 0.000000 0.300000
vt 0.000000 0.700000
vt 1.000000 0.700000
vt 1.000000 0.300000
vt 0.000000 0.300000
vt 0.000000 0.700000
vt 1.000000 0.700000
vt 1.000000 0.300000
vt 0.000000 0.300000
vt 0.000000 0.700000
vt 1.000000 0.700000
vt 1.000000 0.300000
vt 0.000000 0.300000
vt 0.000000 0.700000
vt 1.000000 0.700000
vt 1.000000 0.300000
vt 0.000000 0.300000
vt 0.000000 0.700000
vt 1.000000 0.700000
vt 1.000000 0.300000
vt 0.000000 0.300000
vt 0.000000 0.700000
vt 1.000000 0.700000
vt 1.000000 0.300000
vt 0.000000 0.300000
vt 0.000000 0.700000
vt 1.000000 0.700000
vt 1.000000 0.300000
vt 0.000000 0.300000
vt 0.000000 0.700000
vt 1.000000 0.700000
vt 1.000000 0.300000
vt 0.000000 0.300000
vt 0.000000 0.700000
vt 1.000000 0.700000
vt 1.000000 0.300000
vt 0.000000 0.300000
vt 0.000000 0.700000
vt 1.000000 0.700000
vt 1.000000 0.300000
vt 0.000000 0.300000
vt 0.000000 0.700000
vt 1.000000 0.700000
vt 1.000000 0.300000
vt 0.000000 0.300000
vt 0.000000 0.700000
vt 1.000000 0.700000
vt 1.000000 0.300000
vt 0.000000 0.300000
vt 0.000000 0.700000
vt 1.000000 0.700000
vt 1.000000 0.300000
vt 0.000000 0.300000
vn 1.000000 0.000000 -0.000000
vn 1.000000 0.000000 -0.000000
vn 1.000000 0.000000 -0.000000
vn 1.000000 0.000000 -0.000000
vn 0.000000 0.000000 1.000000
vn 0.000000 0.000000 1.000000
vn 0.000000 0.000000 1.000000
vn 0.000000 0.000000 1.000000
vn -1.000000 0.000000 0.000000
vn -1.000000 0.000000 0.000000
vn -1.000000 0.000000 0.000000
vn -1.000000 0.000000 0.000000
vn -0.000000 0.000000 -1.000000
vn -0.000000 0.000000 -1.000000
vn -0.000000 0.000000 -1.000000
vn -0.000000 0.000000 -1.000000
vn -0.000000 -1.000000 0.000000
vn -0.000000 -1.000000 0.000000
vn -0.000000 -1.000000 0.000000
vn -0.000000 -1.000000 0.000000
vn 0.000000 1.000000 0.000000
vn 0.000000 1.000000 0.000000
vn 0.000000 1.000000 0.000000
vn 0.000000 1.000000 0.000000
vn 0.000000 1.000000 0.000000
vn 0.000000 1.000000 0.000000
vn 0.000000 1.000000 0.000000
vn 0.000000 1.000000 0.000000
vn -0.000000 -1.000000 0.000000
vn -0.000000 -1.000000 0.000000
vn -0.000000 -1.000000 0.000000
vn -0.000000 -1.000000 0.000000
vn -0.000000 0.000000 -1.000000
vn -0.000000 0.000000 -1.000000
vn -0.000000 0.000000 -1.000000
vn -0.000000 0.000000 -1.000000
vn 0.000000 0.000000 1.000000
vn 0.000000 0.000000 1.000000
vn 0.000000 0.000000 1.000000
vn 0.000000 0.000000 1.000000
vn -0.000000 -0.707107 -0.707107
vn -0.000000 -0.707107 -0.707107
vn -0.000000 -0.707107 -0.707107
vn -0.000000 -0.707107 -0.707107
vn -1.000000 0.000000 0.000000
vn -1.000000 0.000000 0.000000
vn -1.000000 0.000000 0.000000
vn -1.000000 0.000000 0.000000
vn 0.000000 -0.707107 -0.707107
vn 0.000000 -0.707107 -0.707107
vn 0.000000 -0.707107 -0.707107
vn 0.000000 -0.707107 -0.707107
vn 0.000000 -0.707107 -0.707107
vn 0.000000 -0.707107 -0.707107
vn 0.000000 -0.707107 -0.707107
vn 0.000000 -0.707107 -0.707107
vn 0.000000 -0.707107 -0.707107
vn 0.000000 -0.707107 -0.707107
vn 0.000000 -0.707107 -0.707107
vn 0.000000 -0.707107 -0.707107
vn 0.000000 -0.707107 -0.707107
vn 0.000000 -0.707107 -0.707107
vn 0.000000 -0.707107 -0.707107
vn 0.000000 -0.707107 -0.707107
vn -1.000000 0.000000 0.000000
vn -1.000000 0.000000 0.000000
vn -1.000000 0.000000 0.000000
vn -1.000000 0.000000 0.000000
vn -1.000000 0.000000 0.000000
vn -1.000000 0.000000 0.000000
vn -1.000000 0.000000 0.000000
vn -1.000000 0.000000 0.000000
vn -1.000000 -0.000000 0.000000
vn -1.000000 -0.000000 0.000000
vn -1.000000 -0.000000 0.000000
vn -1.000000 -0.000000 0.000000
vn -1.000000 0.000000 0.000000
vn -1.000000 0.000000 0.000000
vn -1.000000 0.000000 0.000000
vn -1.000000 0.000000 0.000000
vn -0.000000 -0.707107 -0.707107
vn -0.000000 -0.707107 -0.707107
vn -0.000000 -0.707107 -0.707107
vn -0.000000 -0.707107 -0.707107
vn -1.000000 0.000000 0.000000
vn -1.000000 0.000000 0.000000
vn -1.000000 0.000000 0.000000
vn -1.000000 0.000000 0.000000
vn -0.000000 -0.707107 -0.707107
vn -0.000000 -0.707107 -0.707107
vn -0.000000 -0.707107 -0.707107
vn -0.000000 -0.707107 -0.707107
vn 0.000000 -0.707107 -0.707107
vn 0.000000 -0.707107 -0.707107
vn 0.000000 -0.707107 -0.707107
vn 0.000000 -0.707107 -0.707107
vn 0.000000 -0.707107 -0.707107
vn 0.000000 -0.707107 -0.707107
vn 0.000000 -0.707107 -0.707107
vn 0.000000 -0.707107 -0.707107
vn 0.000000 -0.707107 -0.707107
vn 0.000000 -0.707107 -0.707107
vn 0.000000 -0.707107 -0.707107
vn 0.000000 -0.707107 -0.707107
vn -1.000000 0.000000 0.000000
vn -1.000000 0.000000 0.000000
vn -1.000000 0.000000 0.000000
vn -1.000000 0.000000 0.000000
vn -1.000000 0.000000 0.000000
vn -1.000000 0.000000 0.000000
vn -1.000000 0.000000 0.000000
vn -1.000000 0.000000 0.000000
vn -1.000000 -0.000000 0.000000
vn -1.000000 -0.000000 0.000000
vn -1.000000 -0.000000 0.000000
vn -1.000000 -0.000000 0.000000
vn -1.000000 0.000000 0.000000
vn -1.000000 0.000000 0.000000
vn -1.000000 0.000000 0.000000
vn -1.000000 0.000000 0.000000
f 1/1/1 2/2/2 3/3/3
f 1/1/1 3/3/3 4/4/4
f 5/5/5 6/6/6 7/7/7
f 5/5/5 7/7/7 8/8/8
f 9/9/9 10/10/10 11/11/11
f 9/9/9 11/11/11 12/12/12
f 13/13/13 14/14/14 15/15/15
f 13/13/13 15/15/15 16/16/16
f 17/17/17 18/18/18 19/19/19
f 17/17/17 19/19/19 20/20/20
f 21/21/21 22/22/22 23/23/23
f 21/21/21 23/23/23 24/24/24
f 25/25/25 26/26/26 27/27/27
f 25/25/25 27/27/27 28/28/28
f 29/29/29 30/30/30 31/31/31
f 29/29/29 31/31/31 32/32/32
f 33/33/33 34/34/34 35/35/35
f 33/33/33 35/35/35 36/36/36
f 37/37/37 38/38/38 39/39/39
f 37/37/37 39/39/39 40/40/40
f 41/41/41 42/42/42 43/43/43
f 41/41/41 43/43/43 44/44/44
f 45/45/45 46/46/46 47/47/47
f 45/45/45 47/47/47 48/48/48
f 49/49/49 50/50/50 51/51/51
f 49/49/49 51/51/51 52/52/52
f 53/53/53 54/54/54 55/55/55
f 53/53/53 55/55/55 56/56/56
f 57/57/57 58/58/58 59/59/59
f 57/57/57 59/59/59 60/60/60
f 61/61/61 62/62/62 63/63/63
f 61/61/61 63/63/63 64/64/64
f 65/65/65 66/66/66 67/67/67
f 65/65/65 67/67/67 68/68/68
f 69/69/69 70/70/70 71/71/71
f 69/69/69 71/71/71 72/72/72
f 73/73/73 74/74/74 75/75/75
f 73/73/73 75/75/75 76/76/76
f 77/77/77 78/78/78 79/79/79
f 77/77/77 79/79/79 80/80/80
f 81/81/81 82/82/82 83/83/83
f 81/81/81 83/83/83 84/84/84
f 85/85/85 86/86/86 87/87/87
f 85/85/85 87/87/87 88/88/88
f 89/89/89 90/90/90 91/91/91
f 89/89/89 91/91/91 92/92/92
f 93/93/93 94/94/94 95/95/95
f 93/93/93 95/95/95 96/96/96
f 97/97/97 98/98/98 99/99/99
f 97/97/97 99/99/99 100/100/100
f 101/101/101 102/102/102 103/103/103
f 101/101/101 103/103/103 104/104/104
f 105/105/105 106/106/106 107/107/107
f 105/105/105 107/107/107 108/108/108
f 109/109/109 110/110/110 111/111/111
f 109/109/109 111/111/111 112/112/112
f 113/113/113 114/114/114 115/115/115
f 113/113/113 115/115/115 116/116/116
f 117/117/117 118/118/118 119/119/119
f 117/117/117 119/119/119 120/120/120
