# generated by fbx_to_obj.py from Windowed_Wall_01.fbx geometry 0
v -10.000000 20.000000 2.500000
v 0.000000 20.000000 2.500000
v -0.000001 20.000000 -2.500000
v -10.000000 20.000000 -2.500000
v -3.000000 13.000000 2.500000
v 0.000000 13.000000 2.500000
v 0.000000 20.000000 2.500000
v -10.000000 20.000000 2.500000
v -10.000000 20.000000 -2.500000
v -10.000000 10.000000 -2.500000
v -10.000000 10.000000 2.500000
v -10.000000 20.000000 2.500000
v 2.999999 13.000000 -2.500000
v 9.999999 20.000000 -2.500000
v 9.999999 10.000000 -2.500000
v 2.999999 10.000000 -2.500000
v 3.000001 7.000000 2.500000
v 10.000001 -0.000000 2.500000
v 10.000001 10.000000 2.500000
v 3.000000 10.000000 2.500000
v 10.000000 0.000000 -2.500000
v 9.999999 10.000000 -2.500000
v 10.000001 10.000000 2.500000
v 10.000001 -0.000000 2.500000
v -3.000000 7.000000 -2.500000
v 0.000000 7.000000 -2.500000
v 0.000000 0.000001 -2.500000
v -10.000000 0.000000 -2.500000
v -10.000000 0.000000 -2.500000
v 0.000000 0.000001 -2.500000
v 0.000001 -0.000001 2.500000
v -10.000000 -0.000000 2.500000
v 0.000000 0.000001 -2.500000
v 10.000000 0.000000 -2.500000
v 10.000001 -0.000000 2.500000
v 0.000001 -0.000001 2.500000
v 0.000000 7.000000 -2.500000
v 3.000000 7.000000 -2.500000
v 10.000000 0.000000 -2.500000
v 0.000000 0.000001 -2.500000
v 0.000000 13.000000 2.500000
v 3.000000 13.000000 2.500000
v 10.000000 20.000000 2.500000
v 0.000000 20.000000 2.500000
v 0.000000 20.000000 2.500000
v 10.000000 20.000000 2.500000
v 9.999999 20.000000 -2.500000
v -0.000001 20.000000 -2.500000
v -10.000000 -0.000000 2.500000
v -3.000000 7.000000 2.500000
v -3.000000 10.000000 2.500000
v -10.000000 10.000000 2.500000
v -10.000000 20.000000 -2.500000
v -3.000001 13.000000 -2.500000
v -3.000001 10.000000 -2.500000
v -10.000000 10.000000 -2.500000
v -10.000000 10.000000 2.500000
v -3.000000 10.000000 2.500000
v -3.000000 13.000000 2.500000
v -10.000000 20.000000 2.500000
v -0.000001 20.000000 -2.500000
v 9.999999 20.000000 -2.500000
v 2.999999 13.000000 -2.500000
v -0.000001 13.000000 -2.500000
v 9.999999 10.000000 -2.500000
v 9.999999 20.000000 -2.500000
v 10.000000 20.000000 2.500000
v 10.000001 10.000000 2.500000
v 3.000000 10.000000 2.500000
v 10.000001 10.000000 2.500000
v 10.000000 20.000000 2.500000
v 3.000000 13.000000 2.500000
v -10.000000 20.000000 -2.500000
v -0.000001 20.000000 -2.500000
v -0.000001 13.000000 -2.500000
v -3.000001 13.000000 -2.500000
v -10.000000 10.000000 -2.500000
v -3.000001 10.000000 -2.500000
v -3.000000 7.000000 -2.500000
v -10.000000 0.000000 -2.500000
v 0.000001 -0.000001 2.500000
v 10.000001 -0.000000 2.500000
v 3.000001 7.000000 2.500000
v 0.000000 7.000000 2.500000
v -10.000000 10.000000 -2.500000
v -10.000000 0.000000 -2.500000
v -10.000000 -0.000000 2.500000
v -10.000000 10.000000 2.500000
v -10.000000 -0.000000 2.500000
v 0.000001 -0.000001 2.500000
v 0.000000 7.000000 2.500000
v -3.000000 7.000000 2.500000
v 2.999999 10.000000 -2.500000
v 9.999999 10.000000 -2.500000
v 10.000000 0.000000 -2.500000
v 3.000000 7.000000 -2.500000
v 3.000001 7.000000 2.500000
v 3.000000 10.000000 2.500000
v 2.999999 10.000000 -2.500000
v 3.000000 7.000000 -2.500000
v 2.999999 13.000000 -2.500000
v 2.999999 10.000000 -2.500000
v 3.000000 10.000000 2.500000
v 3.000000 13.000000 2.500000
v -0.000001 13.000000 -2.500000
v 2.999999 13.000000 -2.500000
v 3.000000 13.000000 2.500000
v 0.000000 13.000000 2.500000
v -3.000000 13.000000 2.500000
v -3.000001 13.000000 -2.500000
v -0.000001 13.000000 -2.500000
v 0.000000 13.000000 2.500000
v -3.000001 13.000000 -2.500000
v -3.000000 13.000000 2.500000
v -3.000000 10.000000 2.500000
v -3.000001 10.000000 -2.500000
v -3.000000 7.000000 2.500000
v -3.000000 7.000000 -2.500000
v -3.000001 10.000000 -2.500000
v -3.000000 10.000000 2.500000
v -3.000000 7.000000 2.500000
v 0.000000 7.000000 2.500000
v 0.000000 7.000000 -2.500000
v -3.000000 7.000000 -2.500000
v 0.000000 7.000000 -2.500000
v 0.000000 7.000000 2.500000
v 3.000001 7.000000 2.500000
v 3.000000 7.000000 -2.500000
v -0.486967 7.000000 0.000000
v -0.486967 13.000000 0.000000
v 0.000000 13.000000 -0.486967
v 0.000000 7.000000 -0.486967
v 0.000000 7.000000 -0.486967
v 0.000000 13.000000 -0.486967
v 0.486967 13.000000 0.000000
v 0.486967 7.000000 0.000000
v 0.486967 7.000000 0.000000
v 0.486967 13.000000 0.000000
v 0.000000 13.000000 0.486967
v 0.000000 7.000000 0.486967
v 0.000000 7.000000 0.486967
v 0.000000 13.000000 0.486967
v -0.486967 13.000000 0.000000
v -0.486967 7.000000 0.000000
v 0.000000 7.000000 -0.486967
v 0.486967 7.000000 0.000000
v 0.000000 7.000000 0.486967
v -0.486967 7.000000 0.000000
v 0.486967 13.000000 0.000000
v 0.000000 13.000000 -0.486967
v -0.486967 13.000000 0.000000
v 0.000000 13.000000 0.486967
v -2.332843 7.000000 0.000000
v -2.332843 13.000000 0.000000
v -1.800000 13.000000 -0.532843
v -1.800000 7.000000 -0.532843
v -1.800000 7.000000 -0.532843
v -1.800000 13.000000 -0.532843
v -1.267158 13.000000 0.000000
v -1.267158 7.000000 0.000000
v -1.267158 7.000000 0.000000
v -1.267158 13.000000 0.000000
v -1.800000 13.000000 0.532843
v -1.800000 7.000000 0.532843
v -1.800000 7.000000 0.532843
v -1.800000 13.000000 0.532843
v -2.332843 13.000000 0.000000
v -2.332843 7.000000 0.000000
v 1.267158 7.000000 0.000000
v 1.267158 13.000000 0.000000
v 1.800000 13.000000 -0.532843
v 1.800000 7.000000 -0.532843
v 1.800000 7.000000 -0.532843
v 1.800000 13.000000 -0.532843
v 2.332843 13.000000 0.000000
v 2.332843 7.000000 0.000000
v 2.332843 7.000000 0.000000
v 2.332843 13.000000 0.000000
v 1.800000 13.000000 0.532843
v 1.800000 7.000000 0.532843
v 1.800000 7.000000 0.532843
v 1.800000 13.000000 0.532843
v 1.267158 13.000000 0.000000
v 1.267158 7.000000 0.000000
v -3.080000 6.450000 2.800000
v -3.080000 7.550000 2.800000
v -3.080000 7.550000 -2.800000
v -3.080000 6.450000 -2.800000
v -3.080000 6.450000 -2.800000
v -3.080000 7.550000 -2.800000
v 3.080000 7.550000 -2.800000
v 3.080000 6.450000 -2.800000
v 3.080000 6.450000 -2.800000
v 3.080000 7.550000 -2.800000
v 3.080000 7.550000 2.800000
v 3.080000 6.450000 2.800000
v 3.080000 6.450000 2.800000
v 3.080000 7.550000 2.800000
v -3.080000 7.550000 2.800000
v -3.080000 6.450000 2.800000
v -3.080000 6.450000 -2.800000
v 3.080000 6.450000 -2.800000
v 3.080000 6.450000 2.800000
v -3.080000 6.450000 2.800000
v 3.080000 7.550000 -2.800000
v -3.080000 7.550000 -2.800000
v -3.080000 7.550000 2.800000
v 3.080000 7.550000 2.800000
vt 0.000000 0.500000
vt 0.250000 0.500000
vt 0.250000 0.375000
vt 0.000000 0.375000
vt 0.424500 0.424500
vt 0.498750 0.424500
vt 0.498750 0.251250
vt 0.251250 0.251250
vt 0.312500 0.250000
vt 0.312500 0.500000
vt 0.437500 0.500000
vt 0.437500 0.250000
vt 0.424500 0.424500
vt 0.251250 0.251250
vt 0.251250 0.498750
vt 0.424500 0.498750
vt 0.325500 0.325500
vt 0.498750 0.498750
vt 0.498750 0.251250
vt 0.325500 0.251250
vt 0.437500 0.500000
vt 0.437500 0.250000
vt 0.312500 0.250000
vt 0.312500 0.500000
vt 0.325500 0.325500
vt 0.251250 0.325500
vt 0.251250 0.498750
vt 0.498750 0.498750
vt 0.250000 0.056250
vt 0.500000 0.056250
vt 0.500000 0.006250
vt 0.250000 0.006250
vt 0.250000 0.056250
vt 0.500000 0.056250
vt 0.500000 0.006250
vt 0.250000 0.006250
vt 0.498750 0.325500
vt 0.424500 0.325500
vt 0.251250 0.498750
vt 0.498750 0.498750
vt 0.251250 0.424500
vt 0.325500 0.424500
vt 0.498750 0.251250
vt 0.251250 0.251250
vt 0.000000 0.500000
vt 0.250000 0.500000
vt 0.250000 0.375000
vt 0.000000 0.375000
vt 0.251250 0.498750
vt 0.424500 0.325500
vt 0.424500 0.251250
vt 0.251250 0.251250
vt 0.498750 0.251250
vt 0.325500 0.424500
vt 0.325500 0.498750
vt 0.498750 0.498750
vt 0.251250 0.498750
vt 0.424500 0.498750
vt 0.424500 0.424500
vt 0.251250 0.251250
vt 0.498750 0.251250
vt 0.251250 0.251250
vt 0.424500 0.424500
vt 0.498750 0.424500
vt 0.437500 0.500000
vt 0.437500 0.250000
vt 0.312500 0.250000
vt 0.312500 0.500000
vt 0.325500 0.498750
vt 0.498750 0.498750
vt 0.498750 0.251250
vt 0.325500 0.424500
vt 0.498750 0.251250
vt 0.251250 0.251250
vt 0.251250 0.424500
vt 0.325500 0.424500
vt 0.498750 0.251250
vt 0.325500 0.251250
vt 0.325500 0.325500
vt 0.498750 0.498750
vt 0.251250 0.498750
vt 0.498750 0.498750
vt 0.325500 0.325500
vt 0.251250 0.325500
vt 0.312500 0.250000
vt 0.312500 0.500000
vt 0.437500 0.500000
vt 0.437500 0.250000
vt 0.251250 0.498750
vt 0.498750 0.498750
vt 0.498750 0.325500
vt 0.424500 0.325500
vt 0.424500 0.251250
vt 0.251250 0.251250
vt 0.251250 0.498750
vt 0.424500 0.325500
vt 0.310000 0.325000
vt 0.310000 0.260000
vt 0.440000 0.260000
vt 0.440000 0.325000
vt 0.440000 0.429375
vt 0.440000 0.494375
vt 0.310000 0.494375
vt 0.310000 0.429375
vt 0.375000 0.320000
vt 0.440000 0.320000
vt 0.440000 0.450000
vt 0.375000 0.450000
vt 0.310000 0.450000
vt 0.310000 0.320000
vt 0.375000 0.320000
vt 0.375000 0.450000
vt 0.440000 0.429375
vt 0.310000 0.429375
vt 0.310000 0.494375
vt 0.440000 0.494375
vt 0.310000 0.325000
vt 0.440000 0.325000
vt 0.440000 0.260000
vt 0.310000 0.260000
vt 0.310000 0.418750
vt 0.375000 0.418750
vt 0.375000 0.288750
vt 0.310000 0.288750
vt 0.375000 0.288750
vt 0.375000 0.418750
vt 0.440000 0.418750
vt 0.440000 0.288750
vt 0.937911 0.249330
vt 0.937911 0.060670
vt 0.896590 0.060670
vt 0.896590 0.249330
vt 0.865911 0.249330
vt 0.865910 0.060670
vt 0.824590 0.060670
vt 0.824590 0.249330
vt 0.889910 0.249330
vt 0.889910 0.060670
vt 0.848590 0.060670
vt 0.848590 0.249330
vt 0.913910 0.249330
vt 0.913910 0.060670
vt 0.872590 0.060670
vt 0.872590 0.249330
vt 0.034789 0.590211
vt 0.465211 0.590211
vt 0.465211 0.159789
vt 0.034789 0.159789
vt 0.534789 0.590211
vt 0.965211 0.590211
vt 0.965211 0.159789
vt 0.534789 0.159789
vt 0.931372 0.245000
vt 0.931372 0.065000
vt 0.886158 0.065000
vt 0.886158 0.245000
vt 0.859372 0.245000
vt 0.859371 0.065000
vt 0.814158 0.065000
vt 0.814158 0.245000
vt 0.900342 0.245000
vt 0.900342 0.065000
vt 0.855129 0.065000
vt 0.855129 0.245000
vt 0.924342 0.245000
vt 0.924342 0.065000
vt 0.879129 0.065000
vt 0.879129 0.245000
vt 0.948342 0.245000
vt 0.948342 0.065000
vt 0.903129 0.065000
vt 0.903129 0.245000
vt 0.876342 0.245000
vt 0.876342 0.065000
vt 0.831129 0.065000
vt 0.831129 0.245000
vt 0.883371 0.245000
vt 0.883371 0.065000
vt 0.838158 0.065000
vt 0.838158 0.245000
vt 0.907371 0.245000
vt 0.907371 0.065000
vt 0.862158 0.065000
vt 0.862158 0.245000
vt 0.250000 0.375000
vt 0.250000 0.250000
vt 0.000000 0.250000
vt -0.000000 0.375000
vt 0.250000 0.375000
vt 0.250000 0.250000
vt 0.000000 0.250000
vt -0.000000 0.375000
vt 0.250000 0.375000
vt 0.250000 0.250000
vt 0.000000 0.250000
vt -0.000000 0.375000
vt 0.000000 0.250000
vt 0.000000 0.375000
vt 0.250000 0.375000
vt 0.250000 0.250000
vt 0.250000 0.250000
vt 0.000000 0.250000
vt 0.000000 0.500000
vt 0.250000 0.500000
vt 0.000000 0.500000
vt 0.250000 0.500000
vt 0.250000 0.250000
vt 0.000000 0.250000
vn 0.000000 1.000000 0.000000
vn 0.000000 1.000000 0.000000
vn 0.000000 1.000000 0.000000
vn 0.000000 1.000000 0.000000
vn 0.000000 0.000000 1.000000
vn 0.000000 0.000000 1.000000
vn 0.000000 0.000000 1.000000
vn 0.000000 0.000000 1.000000
vn -1.000000 0.000000 0.000000
vn -1.000000 0.000000 0.000000
vn -1.000000 0.000000 0.000000
vn -1.000000 0.000000 0.000000
vn 0.000000 0.000000 -1.000000
vn 0.000000 0.000000 -1.000000
vn 0.000000 0.000000 -1.000000
vn 0.000000 0.000000 -1.000000
vn 0.000000 0.000000 1.000000
vn 0.000000 0.000000 1.000000
vn 0.000000 0.000000 1.000000
vn 0.000000 0.000000 1.000000
vn 1.000000 0.000000 0.000000
vn 1.000000 0.000000 0.000000
vn 1.000000 0.000000 0.000000
vn 1.000000 0.000000 0.000000
vn -0.000000 0.000000 -1.000000
vn -0.000000 0.000000 -1.000000
vn -0.000000 0.000000 -1.000000
vn -0.000000 0.000000 -1.000000
vn 0.000000 -1.000000 -0.000000
vn 0.000000 -1.000000 -0.000000
vn 0.000000 -1.000000 -0.000000
vn 0.000000 -1.000000 -0.000000
vn 0.000000 -1.000000 -0.000000
vn 0.000000 -1.000000 -0.000000
vn 0.000000 -1.000000 -0.000000
vn 0.000000 -1.000000 -0.000000
vn 0.000000 0.000000 -1.000000
vn 0.000000 0.000000 -1.000000
vn 0.000000 0.000000 -1.000000
vn 0.000000 0.000000 -1.000000
vn 0.000000 0.000000 1.000000
vn 0.000000 0.000000 1.000000
vn 0.000000 0.000000 1.000000
vn 0.000000 0.000000 1.000000
vn 0.000000 1.000000 0.000000
vn 0.000000 1.000000 0.000000
vn 0.000000 1.000000 0.000000
vn 0.000000 1.000000 0.000000
vn 0.000000 -0.000000 1.000000
vn 0.000000 -0.000000 1.000000
vn 0.000000 -0.000000 1.000000
vn 0.000000 -0.000000 1.000000
vn -0.000000 0.000000 -1.000000
vn -0.000000 0.000000 -1.000000
vn -0.000000 0.000000 -1.000000
vn -0.000000 0.000000 -1.000000
vn 0.000000 0.000000 1.000000
vn 0.000000 0.000000 1.000000
vn 0.000000 0.000000 1.000000
vn 0.000000 0.000000 1.000000
vn -0.000000 0.000000 -1.000000
vn -0.000000 0.000000 -1.000000
vn -0.000000 0.000000 -1.000000
vn -0.000000 0.000000 -1.000000
vn 1.000000 0.000000 -0.000000
vn 1.000000 0.000000 -0.000000
vn 1.000000 0.000000 -0.000000
vn 1.000000 0.000000 -0.000000
vn 0.000000 -0.000000 1.000000
vn 0.000000 -0.000000 1.000000
vn 0.000000 -0.000000 1.000000
vn 0.000000 -0.000000 1.000000
vn -0.000000 0.000000 -1.000000
vn -0.000000 0.000000 -1.000000
vn -0.000000 0.000000 -1.000000
vn -0.000000 0.000000 -1.000000
vn -0.000000 0.000000 -1.000000
vn -0.000000 0.000000 -1.000000
vn -0.000000 0.000000 -1.000000
vn -0.000000 0.000000 -1.000000
vn 0.000000 0.000000 1.000000
vn 0.000000 0.000000 1.000000
vn 0.000000 0.000000 1.000000
vn 0.000000 0.000000 1.000000
vn -1.000000 0.000000 0.000000
vn -1.000000 0.000000 0.000000
vn -1.000000 0.000000 0.000000
vn -1.000000 0.000000 0.000000
vn 0.000000 -0.000000 1.000000
vn 0.000000 -0.000000 1.000000
vn 0.000000 -0.000000 1.000000
vn 0.000000 -0.000000 1.000000
vn 0.000000 0.000000 -1.000000
vn 0.000000 0.000000 -1.000000
vn 0.000000 0.000000 -1.000000
vn 0.000000 0.000000 -1.000000
vn -1.000000 -0.000000 0.000000
vn -1.000000 -0.000000 0.000000
vn -1.000000 -0.000000 0.000000
vn -1.000000 -0.000000 0.000000
vn -1.000000 -0.000000 0.000000
vn -1.000000 -0.000000 0.000000
vn -1.000000 -0.000000 0.000000
vn -1.000000 -0.000000 0.000000
vn 0.000000 -1.000000 0.000000
vn 0.000000 -1.000000 0.000000
vn 0.000000 -1.000000 0.000000
vn 0.000000 -1.000000 0.000000
vn -0.000001 -1.000000 0.000000
vn -0.000001 -1.000000 0.000000
vn -0.000001 -1.000000 0.000000
vn -0.000001 -1.000000 0.000000
vn 1.000000 0.000000 -0.000000
vn 1.000000 0.000000 -0.000000
vn 1.000000 0.000000 -0.000000
vn 1.000000 0.000000 -0.000000
vn 1.000000 0.000000 -0.000000
vn 1.000000 0.000000 -0.000000
vn 1.000000 0.000000 -0.000000
vn 1.000000 0.000000 -0.000000
vn 0.000000 1.000000 0.000000
vn 0.000000 1.000000 0.000000
vn 0.000000 1.000000 0.000000
vn 0.000000 1.000000 0.000000
vn 0.000000 1.000000 0.000000
vn 0.000000 1.000000 0.000000
vn 0.000000 1.000000 0.000000
vn 0.000000 1.000000 0.000000
vn -0.707107 0.000000 -0.707107
vn -0.707107 0.000000 -0.707107
vn -0.707107 0.000000 -0.707107
vn -0.707107 0.000000 -0.707107
vn 0.707107 0.000000 -0.707107
vn 0.707107 0.000000 -0.707107
vn 0.707107 0.000000 -0.707107
vn 0.707107 0.000000 -0.707107
vn 0.707107 0.000000 0.707107
vn 0.707107 0.000000 0.707107
vn 0.707107 0.000000 0.707107
vn 0.707107 0.000000 0.707107
vn -0.707107 0.000000 0.707107
vn -0.707107 0.000000 0.707107
vn -0.707107 0.000000 0.707107
vn -0.707107 0.000000 0.707107
vn 0.000000 -1.000000 0.000000
vn 0.000000 -1.000000 0.000000
vn 0.000000 -1.000000 0.000000
vn 0.000000 -1.000000 0.000000
vn 0.000000 1.000000 0.000000
vn 0.000000 1.000000 0.000000
vn 0.000000 1.000000 0.000000
vn 0.000000 1.000000 0.000000
vn -0.707107 0.000000 -0.707107
vn -0.707107 0.000000 -0.707107
vn -0.707107 0.000000 -0.707107
vn -0.707107 0.000000 -0.707107
vn 0.707107 0.000000 -0.707107
vn 0.707107 0.000000 -0.707107
vn 0.707107 0.000000 -0.707107
vn 0.707107 0.000000 -0.707107
vn 0.707107 0.000000 0.707107
vn 0.707107 0.000000 0.707107
vn 0.707107 0.000000 0.707107
vn 0.707107 0.000000 0.707107
vn -0.707107 0.000000 0.707107
vn -0.707107 0.000000 0.707107
vn -0.707107 0.000000 0.707107
vn -0.707107 0.000000 0.707107
vn -0.707107 0.000000 -0.707107
vn -0.707107 0.000000 -0.707107
vn -0.707107 0.000000 -0.707107
vn -0.707107 0.000000 -0.707107
vn 0.707107 0.000000 -0.707107
vn 0.707107 0.000000 -0.707107
vn 0.707107 0.000000 -0.707107
vn 0.707107 0.000000 -0.707107
vn 0.707107 0.000000 0.707107
vn 0.707107 0.000000 0.707107
vn 0.707107 0.000000 0.707107
vn 0.707107 0.000000 0.707107
vn -0.707107 0.000000 0.707107
vn -0.707107 0.000000 0.707107
vn -0.707107 0.000000 0.707107
vn -0.707107 0.000000 0.707107
vn -1.000000 0.000000 0.000000
vn -1.000000 0.000000 0.000000
vn -1.000000 0.000000 0.000000
vn -1.000000 0.000000 0.000000
vn 0.000000 0.000000 -1.000000
vn 0.000000 0.000000 -1.000000
vn 0.000000 0.000000 -1.000000
vn 0.000000 0.000000 -1.000000
vn 1.000000 0.000000 0.000000
vn 1.000000 0.000000 0.000000
vn 1.000000 0.000000 0.000000
vn 1.000000 0.000000 0.000000
vn 0.000000 0.000000 1.000000
vn 0.000000 0.000000 1.000000
vn 0.000000 0.000000 1.000000
vn 0.000000 0.000000 1.000000
vn 0.000000 -1.000000 0.000000
vn 0.000000 -1.000000 0.000000
vn 0.000000 -1.000000 0.000000
vn 0.000000 -1.000000 0.000000
vn 0.000000 1.000000 0.000000
vn 0.000000 1.000000 0.000000
vn 0.000000 1.000000 0.000000
vn 0.000000 1.000000 0.000000
f 1/1/1 2/2/2 3/3/3
f 1/1/1 3/3/3 4/4/4
f 5/5/5 6/6/6 7/7/7
f 5/5/5 7/7/7 8/8/8
f 9/9/9 10/10/10 11/11/11
f 9/9/9 11/11/11 12/12/12
f 13/13/13 14/14/14 15/15/15
f 13/13/13 15/15/15 16/16/16
f 17/17/17 18/18/18 19/19/19
f 17/17/17 19/19/19 20/20/20
f 21/21/21 22/22/22 23/23/23
f 21/21/21 23/23/23 24/24/24
f 25/25/25 26/26/26 27/27/27
f 25/25/25 27/27/27 28/28/28
f 29/29/29 30/30/30 31/31/31
f 29/29/29 31/31/31 32/32/32
f 33/33/33 34/34/34 35/35/35
f 33/33/33 35/35/35 36/36/36
f 37/37/37 38/38/38 39/39/39
f 37/37/37 39/39/39 40/40/40
f 41/41/41 42/42/42 43/43/43
f 41/41/41 43/43/43 44/44/44
f 45/45/45 46/46/46 47/47/47
f 45/45/45 47/47/47 48/48/48
f 49/49/49 50/50/50 51/51/51
f 49/49/49 51/51/51 52/52/52
f 53/53/53 54/54/54 55/55/55
f 53/53/53 55/55/55 56/56/56
f 57/57/57 58/58/58 59/59/59
f 57/57/57 59/59/59 60/60/60
f 61/61/61 62/62/62 63/63/63
f 61/61/61 63/63/63 64/64/64
f 65/65/65 66/66/66 67/67/67
f 65/65/65 67/67/67 68/68/68
f 69/69/69 70/70/70 71/71/71
f 69/69/69 71/71/71 72/72/72
f 73/73/73 74/74/74 75/75/75
f 73/73/73 75/75/75 76/76/76
f 77/77/77 78/78/78 79/79/79
f 77/77/77 79/79/79 80/80/80
f 81/81/81 82/82/82 83/83/83
f 81/81/81 83/83/83 84/84/84
f 85/85/85 86/86/86 87/87/87
f 85/85/85 87/87/87 88/88/88
f 89/89/89 90/90/90 91/91/91
f 89/89/89 91/91/91 92/92/92
f 93/93/93 94/94/94 95/95/95
f 93/93/93 95/95/95 96/96/96
f 97/97/97 98/98/98 99/99/99
f 97/97/97 99/99/99 100/100/100
f 101/101/101 102/102/102 103/103/103
f 101/101/101 103/103/103 104/104/104
f 105/105/105 106/106/106 107/107/107
f 105/105/105 107/107/107 108/108/108
f 109/109/109 110/110/110 111/111/111
f 109/109/109 111/111/111 112/112/112
f 113/113/113 114/114/114 115/115/115
f 113/113/113 115/115/115 116/116/116
f 117/117/117 118/118/118 119/119/119
f 117/117/117 119/119/119 120/120/120
f 121/121/121 122/122/122 123/123/123
f 121/121/121 123/123/123 124/124/124
f 125/125/125 126/126/126 127/127/127
f 125/125/125 127/127/127 128/128/128
f 129/129/129 130/130/130 131/131/131
f 129/129/129 131/131/131 132/132/132
f 133/133/133 134/134/134 135/135/135
f 133/133/133 135/135/135 136/136/136
f 137/137/137 138/138/138 139/139/139
f 137/137/137 139/139/139 140/140/140
f 141/141/141 142/142/142 143/143/143
f 141/141/141 143/143/143 144/144/144
f 145/145/145 146/146/146 147/147/147
f 145/145/145 147/147/147 148/148/148
f 149/149/149 150/150/150 151/151/151
f 149/149/149 151/151/151 152/152/152
f 153/153/153 154/154/154 155/155/155
f 153/153/153 155/155/155 156/156/156
f 157/157/157 158/158/158 159/159/159
f 157/157/157 159/159/159 160/160/160
f 161/161/161 162/162/162 163/163/163
f 161/161/161 163/163/163 164/164/164
f 165/165/165 166/166/166 167/167/167
f 165/165/165 167/167/167 168/168/168
f 169/169/169 170/170/170 171/171/171
f 169/169/169 171/171/171 172/172/172
f 173/173/173 174/174/174 175/175/175
f 173/173/173 175/175/175 176/176/176
f 177/177/177 178/178/178 179/179/179
f 177/177/177 179/179/179 180/180/180
f 181/181/181 182/182/182 183/183/183
f 181/181/181 183/183/183 184/184/184
f 185/185/185 186/186/186 187/187/187
f 185/185/185 187/187/187 188/188/188
f 189/189/189 190/190/190 191/191/191
f 189/189/189 191/191/191 192/192/192
f 193/193/193 194/194/194 195/195/195
f 193/193/193 195/195/195 196/196/196
f 197/197/197 198/198/198 199/199/199
f 197/197/197 199/199/199 200/200/200
f 201/201/201 202/202/202 203/203/203
f 201/201/201 203/203/203 204/204/204
f 205/205/205 206/206/206 207/207/207
f 205/205/205 207/207/207 208/208/208
