# CrashEdit exported model
mtllib polar.mtl

# Vertices
v -0.19029786 0.86722165 0.465271 0.42745098 0.35686275 0.28627452
v -0.29409668 0.83593017 0.38462403 0.654902 0.654902 0.58431375
v -0.17299806 0.7822876 0.48388183 0.34117648 0.28627452 0.17254902
v -0.27679688 0.7599365 0.47147462 0.42745098 0.35686275 0.28627452
v -0.17299806 0.7822876 0.48388183 0.34117648 0.28627452 0.17254902
v -0.29409668 0.83593017 0.38462403 0.654902 0.654902 0.58431375
v 0.22489747 0.7956982 0.49008545 0.42745098 0.35686275 0.28627452
v 0.12686524 0.7822876 0.49628907 0.34117648 0.28627452 0.17254902
v 0.21913087 0.8761621 0.40323487 0.654902 0.654902 0.58431375
v 0.10956544 0.8716919 0.4776782 0.42745098 0.35686275 0.28627452
v 0.21913087 0.8761621 0.40323487 0.654902 0.654902 0.58431375
v 0.12686524 0.7822876 0.49628907 0.34117648 0.28627452 0.17254902
v 0.046132814 0.54536617 0.78165525 0.3647059 0 0
v -0.08649903 0.540896 0.77545166 0.3647059 0 0
v -0.08649903 0.50066406 0.76924807 0 0 0
v -0.14993164 0.540896 0.73823 0.28627452 0.28627452 0.43137255
v -0.08649903 0.50066406 0.76924807 0 0 0
v -0.08649903 0.540896 0.77545166 0 0 0
v -0.09803223 0.41125974 0.6327686 0.43137255 0.43137255 0.28627452
v -0.14993164 0.540896 0.73823 0.5568628 0.5568628 0.44313726
v -0.08649903 0.50066406 0.76924807 0.654902 0.654902 0.58431375
v 0.08649903 0.42020017 0.63897216 0.43137255 0.43137255 0.28627452
v -0.09803223 0.41125974 0.6327686 0.43137255 0.43137255 0.28627452
v -0.08649903 0.50066406 0.76924807 0.654902 0.654902 0.58431375
v 0.051899415 0.5140747 0.76924807 0.654902 0.654902 0.58431375
v 0.08649903 0.42020017 0.63897216 0.43137255 0.43137255 0.28627452
v -0.08649903 0.50066406 0.76924807 0.654902 0.654902 0.58431375
v 0.046132814 0.54536617 0.78165525 0.3647059 0 0
v 0.051899415 0.5140747 0.76924807 0 0 0
v -0.08649903 0.50066406 0.76924807 0 0 0
v 0.11533204 0.5543066 0.7444336 0.28627452 0.28627452 0.43137255
v 0.046132814 0.54536617 0.78165525 0 0 0
v 0.051899415 0.5140747 0.76924807 0 0 0
v 0.08649903 0.42020017 0.63897216 0.43137255 0.43137255 0.28627452
v 0.11533204 0.5543066 0.7444336 0.5568628 0.5568628 0.44313726
v 0.051899415 0.5140747 0.76924807 0.654902 0.654902 0.58431375
v 0.26526368 0.5274853 0.58934325 0.6901961 0.6901961 0.654902
v 0.08649903 0.42020017 0.63897216 0.43137255 0.43137255 0.28627452
v 0.11533204 0.5543066 0.7444336 0.5568628 0.5568628 0.44313726
v 0.23066407 0.52301514 0.45286375 0.49803922 0.49803922 0.36862746
v 0.26526368 0.5274853 0.58934325 0.6901961 0.6901961 0.654902
v 0.08649903 0.42020017 0.63897216 0.43137255 0.43137255 0.28627452
v 0.23643067 0.62583005 0.5583252 0.7254902 0.7254902 0.7254902
v 0.23066407 0.52301514 0.45286375 0.49803922 0.49803922 0.36862746
v 0.26526368 0.5274853 0.58934325 0.6901961 0.6901961 0.654902
v 0.05766602 0.6884131 0.8002661 0.6901961 0.6901961 0.654902
v 0.23643067 0.62583005 0.5583252 0.7254902 0.7254902 0.7254902
v 0.26526368 0.5274853 0.58934325 0.6901961 0.6901961 0.654902
v 0.11533204 0.5543066 0.7444336 0.5568628 0.5568628 0.44313726
v 0.05766602 0.6884131 0.8002661 0.6901961 0.6901961 0.654902
v 0.26526368 0.5274853 0.58934325 0.6901961 0.6901961 0.654902
v -0.023066407 0.5990088 0.80646974 0.49803922 0.49803922 0.36862746
v 0.11533204 0.5543066 0.7444336 0.5568628 0.5568628 0.44313726
v 0.05766602 0.6884131 0.8002661 0.6901961 0.6901961 0.654902
v 0.046132814 0.54536617 0.78165525 0.58431375 0.58431375 0.654902
v -0.023066407 0.5990088 0.80646974 0.49803922 0.49803922 0.36862746
v 0.11533204 0.5543066 0.7444336 0.5568628 0.5568628 0.44313726
v -0.08649903 0.540896 0.77545166 0.654902 0.654902 0.58431375
v 0.046132814 0.54536617 0.78165525 0.58431375 0.58431375 0.654902
v -0.023066407 0.5990088 0.80646974 0.49803922 0.49803922 0.36862746
v -0.14993164 0.540896 0.73823 0.5568628 0.5568628 0.44313726
v -0.08649903 0.540896 0.77545166 0.654902 0.654902 0.58431375
v -0.023066407 0.5990088 0.80646974 0.49803922 0.49803922 0.36862746
v -0.10956544 0.6794726 0.7940625 0.6901961 0.6901961 0.654902
v -0.14993164 0.540896 0.73823 0.5568628 0.5568628 0.44313726
v -0.023066407 0.5990088 0.80646974 0.49803922 0.49803922 0.36862746
v -0.02883301 0.6750024 0.8747095 0 0 0
v -0.10956544 0.6794726 0.7940625 0 0 0
v -0.023066407 0.5990088 0.80646974 0 0 0.3647059
v 0.05766602 0.6884131 0.8002661 0 0 0
v -0.02883301 0.6750024 0.8747095 0 0 0.3647059
v -0.023066407 0.5990088 0.80646974 0 0 0.18431373
v -0.10956544 0.6794726 0.7940625 0 0 0.3647059
v 0.05766602 0.6884131 0.8002661 0 0 0.18431373
v -0.02883301 0.6750024 0.8747095 0 0 0
v -0.023066407 0.69288325 0.6265649 0.5686275 0.5686275 0.45490196
v -0.10956544 0.6794726 0.7940625 0.6901961 0.6901961 0.654902
v 0.05766602 0.6884131 0.8002661 0.6901961 0.6901961 0.654902
v -0.20759766 0.6705322 0.52730715 0.5686275 0.5686275 0.45490196
v -0.023066407 0.69288325 0.6265649 0.5686275 0.5686275 0.45490196
v -0.10956544 0.6794726 0.7940625 0.6901961 0.6901961 0.654902
v -0.26526368 0.60347897 0.53971434 0.7254902 0.7254902 0.7254902
v -0.20759766 0.6705322 0.52730715 0.5686275 0.5686275 0.45490196
v -0.10956544 0.6794726 0.7940625 0.6901961 0.6901961 0.654902
v -0.28833008 0.5051343 0.5707324 0.6901961 0.6901961 0.654902
v -0.26526368 0.60347897 0.53971434 0.7254902 0.7254902 0.7254902
v -0.10956544 0.6794726 0.7940625 0.6901961 0.6901961 0.654902
v -0.14993164 0.540896 0.73823 0.5568628 0.5568628 0.44313726
v -0.28833008 0.5051343 0.5707324 0.6901961 0.6901961 0.654902
v -0.10956544 0.6794726 0.7940625 0.6901961 0.6901961 0.654902
v -0.09803223 0.41125974 0.6327686 0.43137255 0.43137255 0.28627452
v -0.14993164 0.540896 0.73823 0.5568628 0.5568628 0.44313726
v -0.28833008 0.5051343 0.5707324 0.6901961 0.6901961 0.654902
v -0.24219728 0.50066406 0.44045654 0.49803922 0.49803922 0.36862746
v -0.09803223 0.41125974 0.6327686 0.43137255 0.43137255 0.28627452
v -0.28833008 0.5051343 0.5707324 0.6901961 0.6901961 0.654902
v -0.26526368 0.60347897 0.53971434 0.7254902 0.7254902 0.7254902
v -0.24219728 0.50066406 0.44045654 0.49803922 0.49803922 0.36862746
v -0.28833008 0.5051343 0.5707324 0.6901961 0.6901961 0.654902
v -0.20759766 0.6705322 0.52730715 0.5686275 0.5686275 0.45490196
v -0.26526368 0.60347897 0.53971434 0.7254902 0.7254902 0.7254902
v -0.24219728 0.50066406 0.44045654 0.49803922 0.49803922 0.36862746
v -0.21913087 0.4827832 0.3287915 0.654902 0.654902 0.58431375
v -0.20759766 0.6705322 0.52730715 0.5686275 0.5686275 0.45490196
v -0.24219728 0.50066406 0.44045654 0.49803922 0.49803922 0.36862746
v -0.19606446 0.58112794 0.1861084 0.654902 0.654902 0.58431375
v -0.21913087 0.4827832 0.3287915 0.654902 0.654902 0.58431375
v -0.20759766 0.6705322 0.52730715 0.5686275 0.5686275 0.45490196
v -0.13263184 0.7331152 0.3784204 0.654902 0.654902 0.58431375
v -0.19606446 0.58112794 0.1861084 0.654902 0.654902 0.58431375
v -0.20759766 0.6705322 0.52730715 0.5686275 0.5686275 0.45490196
v -0.005766602 0.7554663 0.29777342 0.6901961 0.6901961 0.654902
v -0.13263184 0.7331152 0.3784204 0.654902 0.654902 0.58431375
v -0.19606446 0.58112794 0.1861084 0.654902 0.654902 0.58431375
v 0 0.6392407 0.08685058 0.7254902 0.7254902 0.7254902
v -0.005766602 0.7554663 0.29777342 0.6901961 0.6901961 0.654902
v -0.19606446 0.58112794 0.1861084 0.654902 0.654902 0.58431375
v 0.19606446 0.563247 0.1426831 0.654902 0.654902 0.58431375
v 0 0.6392407 0.08685058 0.7254902 0.7254902 0.7254902
v -0.005766602 0.7554663 0.29777342 0.6901961 0.6901961 0.654902
v 0.11533204 0.74205565 0.38462403 0.654902 0.654902 0.58431375
v 0.19606446 0.563247 0.1426831 0.654902 0.654902 0.58431375
v -0.005766602 0.7554663 0.29777342 0.6901961 0.6901961 0.654902
v 0.17299806 0.6884131 0.53971434 0.5686275 0.5686275 0.45490196
v 0.11533204 0.74205565 0.38462403 0.654902 0.654902 0.58431375
v 0.19606446 0.563247 0.1426831 0.654902 0.654902 0.58431375
v 0.21913087 0.50960445 0.32258788 0.654902 0.654902 0.58431375
v 0.17299806 0.6884131 0.53971434 0.5686275 0.5686275 0.45490196
v 0.19606446 0.563247 0.1426831 0.654902 0.654902 0.58431375
v 0.23066407 0.52301514 0.45286375 0.49803922 0.49803922 0.36862746
v 0.21913087 0.50960445 0.32258788 0.654902 0.654902 0.58431375
v 0.17299806 0.6884131 0.53971434 0.5686275 0.5686275 0.45490196
v 0.23643067 0.62583005 0.5583252 0.7254902 0.7254902 0.7254902
v 0.23066407 0.52301514 0.45286375 0.49803922 0.49803922 0.36862746
v 0.17299806 0.6884131 0.53971434 0.5686275 0.5686275 0.45490196
v 0.05766602 0.6884131 0.8002661 0.6901961 0.6901961 0.654902
v 0.23643067 0.62583005 0.5583252 0.7254902 0.7254902 0.7254902
v 0.17299806 0.6884131 0.53971434 0.5686275 0.5686275 0.45490196
v -0.023066407 0.69288325 0.6265649 0.5686275 0.5686275 0.45490196
v 0.05766602 0.6884131 0.8002661 0.6901961 0.6901961 0.654902
v 0.17299806 0.6884131 0.53971434 0.5686275 0.5686275 0.45490196
v 0.12686524 0.7822876 0.49628907 0.654902 0.654902 0.58431375
v -0.023066407 0.69288325 0.6265649 0.5686275 0.5686275 0.45490196
v 0.17299806 0.6884131 0.53971434 0.5686275 0.5686275 0.45490196
v 0.11533204 0.74205565 0.38462403 0.654902 0.654902 0.58431375
v 0.12686524 0.7822876 0.49628907 0.654902 0.654902 0.58431375
v 0.17299806 0.6884131 0.53971434 0.5686275 0.5686275 0.45490196
v -0.005766602 0.7554663 0.29777342 0.6901961 0.6901961 0.654902
v 0.11533204 0.74205565 0.38462403 0.654902 0.654902 0.58431375
v 0.12686524 0.7822876 0.49628907 0.654902 0.654902 0.58431375
v -0.023066407 0.8135791 0.5211035 0.7254902 0.7254902 0.7254902
v -0.005766602 0.7554663 0.29777342 0.6901961 0.6901961 0.654902
v 0.12686524 0.7822876 0.49628907 0.654902 0.654902 0.58431375
v 0.12686524 0.7822876 0.49628907 0.654902 0.654902 0.58431375
v -0.023066407 0.8135791 0.5211035 0.7254902 0.7254902 0.7254902
v -0.023066407 0.69288325 0.6265649 0.5686275 0.5686275 0.45490196
v -0.17299806 0.7822876 0.48388183 0.654902 0.654902 0.58431375
v -0.023066407 0.69288325 0.6265649 0.5686275 0.5686275 0.45490196
v -0.023066407 0.8135791 0.5211035 0.7254902 0.7254902 0.7254902
v -0.023066407 0.69288325 0.6265649 0.5686275 0.5686275 0.45490196
v -0.17299806 0.7822876 0.48388183 0.654902 0.654902 0.58431375
v -0.20759766 0.6705322 0.52730715 0.5686275 0.5686275 0.45490196
v -0.13263184 0.7331152 0.3784204 0.654902 0.654902 0.58431375
v -0.20759766 0.6705322 0.52730715 0.5686275 0.5686275 0.45490196
v -0.17299806 0.7822876 0.48388183 0.654902 0.654902 0.58431375
v -0.005766602 0.7554663 0.29777342 0.6901961 0.6901961 0.654902
v -0.13263184 0.7331152 0.3784204 0.654902 0.654902 0.58431375
v -0.17299806 0.7822876 0.48388183 0.654902 0.654902 0.58431375
v -0.023066407 0.8135791 0.5211035 0.7254902 0.7254902 0.7254902
v -0.005766602 0.7554663 0.29777342 0.6901961 0.6901961 0.654902
v -0.17299806 0.7822876 0.48388183 0.654902 0.654902 0.58431375
v 0.21913087 0.50960445 0.32258788 0.654902 0.654902 0.58431375
v 0.23066407 0.52301514 0.45286375 0.49803922 0.49803922 0.36862746
v 0.14416504 0.38443846 0.50249267 0.34117648 0.34117648 0.17254902
v 0.08649903 0.42020017 0.63897216 0.43137255 0.43137255 0.28627452
v 0.14416504 0.38443846 0.50249267 0.34117648 0.34117648 0.17254902
v 0.23066407 0.52301514 0.45286375 0.49803922 0.49803922 0.36862746
v -0.09803223 0.41125974 0.6327686 0.43137255 0.43137255 0.28627452
v 0.08649903 0.42020017 0.63897216 0.43137255 0.43137255 0.28627452
v 0.14416504 0.38443846 0.50249267 0.34117648 0.34117648 0.17254902
v -0.14993164 0.37996826 0.50249267 0.34117648 0.34117648 0.17254902
v -0.09803223 0.41125974 0.6327686 0.43137255 0.43137255 0.28627452
v 0.14416504 0.38443846 0.50249267 0.34117648 0.34117648 0.17254902
v -0.24219728 0.50066406 0.44045654 0.49803922 0.49803922 0.36862746
v -0.14993164 0.37996826 0.50249267 0.34117648 0.34117648 0.17254902
v -0.09803223 0.41125974 0.6327686 0.43137255 0.43137255 0.28627452
v -0.21913087 0.4827832 0.3287915 0.654902 0.654902 0.58431375
v -0.24219728 0.50066406 0.44045654 0.49803922 0.49803922 0.36862746
v -0.14993164 0.37996826 0.50249267 0.34117648 0.34117648 0.17254902
v -0.19606446 0.20115966 0.3287915 0.7254902 0.7254902 0.7254902
v -0.21913087 0.4827832 0.3287915 0.654902 0.654902 0.58431375
v -0.14993164 0.37996826 0.50249267 0.34117648 0.34117648 0.17254902
v -0.06919922 0.19668944 0.3287915 0.49803922 0.49803922 0.36862746
v -0.19606446 0.20115966 0.3287915 0.7254902 0.7254902 0.7254902
v -0.14993164 0.37996826 0.50249267 0.34117648 0.34117648 0.17254902
v 0.14416504 0.38443846 0.50249267 0.34117648 0.34117648 0.17254902
v -0.06919922 0.19668944 0.3287915 0.49803922 0.49803922 0.36862746
v -0.14993164 0.37996826 0.50249267 0.34117648 0.34117648 0.17254902
v 0.06919922 0.19668944 0.3287915 0.49803922 0.49803922 0.36862746
v 0.14416504 0.38443846 0.50249267 0.34117648 0.34117648 0.17254902
v -0.06919922 0.19668944 0.3287915 0.49803922 0.49803922 0.36862746
v 0 0.102814935 0.26675537 0.18431373 0.18431373 0
v 0.06919922 0.19668944 0.3287915 0.49803922 0.49803922 0.36862746
v -0.06919922 0.19668944 0.3287915 0.49803922 0.49803922 0.36862746
v 0.19606446 0.18774901 0.062036134 0.49803922 0.49803922 0.36862746
v 0 0.102814935 0.26675537 0.18431373 0.18431373 0
v 0.06919922 0.19668944 0.3287915 0.49803922 0.49803922 0.36862746
v 0 -0.0044702147 -0.024814453 0.2627451 0.2627451 0.08627451
v 0.19606446 0.18774901 0.062036134 0.49803922 0.49803922 0.36862746
v 0 0.102814935 0.26675537 0.18431373 0.18431373 0
v -0.19606446 0.18774901 0.062036134 0.49803922 0.49803922 0.36862746
v 0 -0.0044702147 -0.024814453 0.2627451 0.2627451 0.08627451
v 0 0.102814935 0.26675537 0.18431373 0.18431373 0
v -0.06919922 0.19668944 0.3287915 0.49803922 0.49803922 0.36862746
v -0.19606446 0.18774901 0.062036134 0.49803922 0.49803922 0.36862746
v 0 0.102814935 0.26675537 0.18431373 0.18431373 0
v -0.07496582 0.008940429 0.06823975 0.18431373 0.18431373 0
v -0.06919922 0.19668944 0.3287915 0.49803922 0.49803922 0.36862746
v -0.19606446 0.18774901 0.062036134 0.34117648 0.34117648 0.17254902
v -0.3344629 0.008940429 0.06823975 0.34117648 0.34117648 0.17254902
v -0.07496582 0.008940429 0.06823975 0.18431373 0.18431373 0
v -0.19606446 0.18774901 0.062036134 0.34117648 0.34117648 0.17254902
v -0.28256348 0.2816235 0.22953369 0.654902 0.654902 0.58431375
v -0.3344629 0.008940429 0.06823975 0.34117648 0.34117648 0.17254902
v -0.19606446 0.18774901 0.062036134 0.34117648 0.34117648 0.17254902
v -0.29986328 0.0044702147 0.35360596 0.654902 0.654902 0.58431375
v -0.28256348 0.2816235 0.22953369 0.654902 0.654902 0.58431375
v -0.3344629 0.008940429 0.06823975 0.34117648 0.34117648 0.17254902
v -0.08073243 0.0044702147 0.41564208 0.7254902 0.7254902 0.7254902
v -0.29986328 0.0044702147 0.35360596 0.654902 0.654902 0.58431375
v -0.3344629 0.008940429 0.06823975 0.34117648 0.34117648 0.17254902
v -0.07496582 0.008940429 0.06823975 0.18431373 0.18431373 0
v -0.08073243 0.0044702147 0.41564208 0.7254902 0.7254902 0.7254902
v -0.3344629 0.008940429 0.06823975 0.34117648 0.34117648 0.17254902
v -0.09226563 0.05364258 0.35360596 0.654902 0.654902 0.58431375
v -0.07496582 0.008940429 0.06823975 0.18431373 0.18431373 0
v -0.08073243 0.0044702147 0.41564208 0.7254902 0.7254902 0.7254902
v -0.29986328 0.0044702147 0.35360596 0.654902 0.654902 0.58431375
v -0.09226563 0.05364258 0.35360596 0.654902 0.654902 0.58431375
v -0.08073243 0.0044702147 0.41564208 0.7254902 0.7254902 0.7254902
v -0.06919922 0.19668944 0.3287915 0.49803922 0.49803922 0.36862746
v -0.29986328 0.0044702147 0.35360596 0.654902 0.654902 0.58431375
v -0.09226563 0.05364258 0.35360596 0.49803922 0.49803922 0.36862746
v -0.07496582 0.008940429 0.06823975 0.18431373 0.18431373 0
v -0.06919922 0.19668944 0.3287915 0.49803922 0.49803922 0.36862746
v -0.09226563 0.05364258 0.35360596 0.49803922 0.49803922 0.36862746
v -0.06919922 0.19668944 0.3287915 0.49803922 0.49803922 0.36862746
v -0.29986328 0.0044702147 0.35360596 0.654902 0.654902 0.58431375
v -0.19606446 0.20115966 0.3287915 0.7254902 0.7254902 0.7254902
v -0.28256348 0.2816235 0.22953369 0.654902 0.654902 0.58431375
v -0.19606446 0.20115966 0.3287915 0.7254902 0.7254902 0.7254902
v -0.29986328 0.0044702147 0.35360596 0.654902 0.654902 0.58431375
v -0.21913087 0.4827832 0.3287915 0.654902 0.654902 0.58431375
v -0.28256348 0.2816235 0.22953369 0.654902 0.654902 0.58431375
v -0.19606446 0.20115966 0.3287915 0.7254902 0.7254902 0.7254902
v -0.25949708 0.43361083 0.06823975 0.5568628 0.5568628 0.44313726
v -0.21913087 0.4827832 0.3287915 0.654902 0.654902 0.58431375
v -0.28256348 0.2816235 0.22953369 0.654902 0.654902 0.58431375
v -0.19606446 0.18774901 0.062036134 0.34117648 0.34117648 0.17254902
v -0.25949708 0.43361083 0.06823975 0.5568628 0.5568628 0.44313726
v -0.28256348 0.2816235 0.22953369 0.654902 0.654902 0.58431375
v -0.3575293 0.32632568 -0.1364795 0.5568628 0.5568628 0.44313726
v -0.19606446 0.18774901 0.062036134 0.49803922 0.49803922 0.36862746
v -0.25949708 0.43361083 0.06823975 0.5568628 0.5568628 0.44313726
v -0.19606446 0.58112794 0.1861084 0.654902 0.654902 0.58431375
v -0.3575293 0.32632568 -0.1364795 0.5568628 0.5568628 0.44313726
v -0.25949708 0.43361083 0.06823975 0.5568628 0.5568628 0.44313726
v -0.21913087 0.4827832 0.3287915 0.654902 0.654902 0.58431375
v -0.19606446 0.58112794 0.1861084 0.654902 0.654902 0.58431375
v -0.25949708 0.43361083 0.06823975 0.5568628 0.5568628 0.44313726
v -0.3575293 0.32632568 -0.1364795 0.5568628 0.5568628 0.44313726
v -0.23066407 0.37996826 -0.20471923 0.654902 0.654902 0.58431375
v -0.19606446 0.58112794 0.1861084 0.654902 0.654902 0.58431375
v 0 0.4559619 -0.24814454 0.7254902 0.7254902 0.7254902
v -0.19606446 0.58112794 0.1861084 0.654902 0.654902 0.58431375
v -0.23066407 0.37996826 -0.20471923 0.654902 0.654902 0.58431375
v 0 0.6392407 0.08685058 0.7254902 0.7254902 0.7254902
v 0 0.4559619 -0.24814454 0.7254902 0.7254902 0.7254902
v -0.19606446 0.58112794 0.1861084 0.654902 0.654902 0.58431375
v 0.19606446 0.563247 0.1426831 0.654902 0.654902 0.58431375
v 0 0.6392407 0.08685058 0.7254902 0.7254902 0.7254902
v 0 0.4559619 -0.24814454 0.7254902 0.7254902 0.7254902
v 0.23066407 0.37996826 -0.20471923 0.654902 0.654902 0.58431375
v 0.19606446 0.563247 0.1426831 0.654902 0.654902 0.58431375
v 0 0.4559619 -0.24814454 0.7254902 0.7254902 0.7254902
v 0.3575293 0.32632568 -0.1364795 0.5568628 0.5568628 0.42745098
v 0.23066407 0.37996826 -0.20471923 0.654902 0.654902 0.58431375
v 0.19606446 0.563247 0.1426831 0.654902 0.654902 0.58431375
v 0.25949708 0.4023193 0.08064697 0.5568628 0.5568628 0.44313726
v 0.3575293 0.32632568 -0.1364795 0.5568628 0.5568628 0.42745098
v 0.19606446 0.563247 0.1426831 0.654902 0.654902 0.58431375
v 0.21913087 0.50960445 0.32258788 0.654902 0.654902 0.58431375
v 0.25949708 0.4023193 0.08064697 0.5568628 0.5568628 0.44313726
v 0.19606446 0.563247 0.1426831 0.654902 0.654902 0.58431375
v 0.28256348 0.2816235 0.22953369 0.654902 0.654902 0.58431375
v 0.21913087 0.50960445 0.32258788 0.654902 0.654902 0.58431375
v 0.25949708 0.4023193 0.08064697 0.5568628 0.5568628 0.44313726
v 0.19606446 0.18774901 0.062036134 0.34117648 0.34117648 0.17254902
v 0.28256348 0.2816235 0.22953369 0.654902 0.654902 0.58431375
v 0.25949708 0.4023193 0.08064697 0.5568628 0.5568628 0.44313726
v 0.3575293 0.32632568 -0.1364795 0.5568628 0.5568628 0.42745098
v 0.19606446 0.18774901 0.062036134 0.49803922 0.49803922 0.36862746
v 0.25949708 0.4023193 0.08064697 0.5568628 0.5568628 0.44313726
v 0.3402295 0.32632568 0.04342529 0.43137255 0.43137255 0.28627452
v 0.3575293 0.32632568 -0.1364795 0.5568628 0.5568628 0.42745098
v 0.19606446 0.18774901 0.062036134 0.49803922 0.49803922 0.36862746
v 0 -0.0044702147 -0.024814453 0.2627451 0.2627451 0.08627451
v 0.3402295 0.32632568 0.04342529 0.43137255 0.43137255 0.28627452
v 0.19606446 0.18774901 0.062036134 0.49803922 0.49803922 0.36862746
v 0.26526368 0 -0.018610839 0.34117648 0.34117648 0.17254902
v 0 -0.0044702147 -0.024814453 0.2627451 0.2627451 0.08627451
v 0.3402295 0.32632568 0.04342529 0.43137255 0.43137255 0.28627452
v 0.3690625 0.28609374 0.17990479 0.5568628 0.5568628 0.44313726
v 0.26526368 0 -0.018610839 0.5568628 0.5568628 0.42745098
v 0.3402295 0.32632568 0.04342529 0.43137255 0.43137255 0.28627452
v 0.5478272 0.30844483 0.1426831 0.7254902 0.7254902 0.7254902
v 0.3690625 0.28609374 0.17990479 0.5568628 0.5568628 0.44313726
v 0.3402295 0.32632568 0.04342529 0.6901961 0.6901961 0.654902
v 0.43826175 0.1832788 -0.074443355 0.654902 0.654902 0.58431375
v 0.5478272 0.30844483 0.1426831 0.7254902 0.7254902 0.7254902
v 0.3402295 0.32632568 0.04342529 0.6901961 0.6901961 0.654902
v 0.3575293 0.32632568 -0.1364795 0.5568628 0.5568628 0.42745098
v 0.43826175 0.1832788 -0.074443355 0.654902 0.654902 0.58431375
v 0.3402295 0.32632568 0.04342529 0.6901961 0.6901961 0.654902
v 0.28833008 0.11175537 -0.3163843 0.654902 0.654902 0.58431375
v 0.3575293 0.32632568 -0.1364795 0.5568628 0.5568628 0.42745098
v 0.43826175 0.1832788 -0.074443355 0.654902 0.654902 0.58431375
v 0.18453126 0.16986816 -0.43425292 0.654902 0.654902 0.58431375
v 0.28833008 0.11175537 -0.3163843 0.654902 0.654902 0.58431375
v 0.3575293 0.32632568 -0.1364795 0.5568628 0.5568628 0.42745098
v 0.23066407 0.37996826 -0.20471923 0.654902 0.654902 0.58431375
v 0.18453126 0.16986816 -0.43425292 0.654902 0.654902 0.58431375
v 0.3575293 0.32632568 -0.1364795 0.5568628 0.5568628 0.42745098
v 0 0.2771533 -0.50869626 0.7254902 0.7254902 0.7254902
v 0.23066407 0.37996826 -0.20471923 0.654902 0.654902 0.58431375
v 0.18453126 0.16986816 -0.43425292 0.654902 0.654902 0.58431375
v 0 0.4559619 -0.24814454 0.7254902 0.7254902 0.7254902
v 0 0.2771533 -0.50869626 0.7254902 0.7254902 0.7254902
v 0.23066407 0.37996826 -0.20471923 0.654902 0.654902 0.58431375
v -0.23066407 0.37996826 -0.20471923 0.654902 0.654902 0.58431375
v 0 0.4559619 -0.24814454 0.7254902 0.7254902 0.7254902
v 0 0.2771533 -0.50869626 0.7254902 0.7254902 0.7254902
v -0.18453126 0.17433837 -0.43425292 0.654902 0.654902 0.58431375
v -0.23066407 0.37996826 -0.20471923 0.654902 0.654902 0.58431375
v 0 0.2771533 -0.50869626 0.7254902 0.7254902 0.7254902
v -0.3575293 0.32632568 -0.1364795 0.5568628 0.5568628 0.44313726
v -0.18453126 0.17433837 -0.43425292 0.654902 0.654902 0.58431375
v -0.23066407 0.37996826 -0.20471923 0.654902 0.654902 0.58431375
v -0.28833008 0.11175537 -0.3163843 0.654902 0.654902 0.58431375
v -0.3575293 0.32632568 -0.1364795 0.5568628 0.5568628 0.44313726
v -0.18453126 0.17433837 -0.43425292 0.654902 0.654902 0.58431375
v -0.44402835 0.18774901 -0.08064697 0.654902 0.654902 0.58431375
v -0.28833008 0.11175537 -0.3163843 0.654902 0.654902 0.58431375
v -0.3575293 0.32632568 -0.1364795 0.5568628 0.5568628 0.44313726
v -0.3402295 0.32632568 0.04342529 0.7254902 0.7254902 0.7254902
v -0.44402835 0.18774901 -0.08064697 0.654902 0.654902 0.58431375
v -0.3575293 0.32632568 -0.1364795 0.5568628 0.5568628 0.44313726
v -0.19606446 0.18774901 0.062036134 0.49803922 0.49803922 0.36862746
v -0.3402295 0.32632568 0.04342529 0.43137255 0.43137255 0.28627452
v -0.3575293 0.32632568 -0.1364795 0.5568628 0.5568628 0.44313726
v 0 -0.0044702147 -0.024814453 0.2627451 0.2627451 0.08627451
v -0.19606446 0.18774901 0.062036134 0.49803922 0.49803922 0.36862746
v -0.3402295 0.32632568 0.04342529 0.43137255 0.43137255 0.28627452
v -0.26526368 0.0044702147 -0.018610839 0.34117648 0.34117648 0.17254902
v 0 -0.0044702147 -0.024814453 0.2627451 0.2627451 0.08627451
v -0.3402295 0.32632568 0.04342529 0.43137255 0.43137255 0.28627452
v -0.3748291 0.29056397 0.17370117 0.5568628 0.5568628 0.44313726
v -0.26526368 0.0044702147 -0.018610839 0.5568628 0.5568628 0.42745098
v -0.3402295 0.32632568 0.04342529 0.43137255 0.43137255 0.28627452
v -0.3690625 -0.02682129 0.1364795 0.18431373 0.18431373 0
v -0.3748291 0.29056397 0.17370117 0.5568628 0.5568628 0.44313726
v -0.26526368 0.0044702147 -0.018610839 0.5568628 0.5568628 0.42745098
v -0.3632959 0.32632568 0.24194092 0.7254902 0.7254902 0.7254902
v -0.3690625 -0.02682129 0.1364795 0.18431373 0.18431373 0
v -0.3748291 0.29056397 0.17370117 0.58431375 0.58431375 0.654902
v -0.56512696 0.31738526 0.13027588 0.7254902 0.7254902 0.7254902
v -0.3632959 0.32632568 0.24194092 0.7254902 0.7254902 0.7254902
v -0.3748291 0.29056397 0.17370117 0.58431375 0.58431375 0.654902
v -0.3402295 0.32632568 0.04342529 0.7254902 0.7254902 0.7254902
v -0.56512696 0.31738526 0.13027588 0.7254902 0.7254902 0.7254902
v -0.3748291 0.29056397 0.17370117 0.5568628 0.5568628 0.44313726
v -0.44402835 0.18774901 -0.08064697 0.654902 0.654902 0.58431375
v -0.3402295 0.32632568 0.04342529 0.7254902 0.7254902 0.7254902
v -0.56512696 0.31738526 0.13027588 0.7254902 0.7254902 0.7254902
v -0.56512696 0.008940429 0.049628906 0.5568628 0.5568628 0.42745098
v -0.44402835 0.18774901 -0.08064697 0.654902 0.654902 0.58431375
v -0.56512696 0.31738526 0.13027588 0.7254902 0.7254902 0.7254902
v -0.56512696 0.31738526 0.13027588 0.7254902 0.7254902 0.7254902
v -0.56512696 0.008940429 0.049628906 0.5568628 0.5568628 0.42745098
v -0.3632959 0.32632568 0.24194092 0.7254902 0.7254902 0.7254902
v -0.3690625 -0.02682129 0.1364795 0.18431373 0.18431373 0
v -0.3632959 0.32632568 0.24194092 0.7254902 0.7254902 0.7254902
v -0.56512696 0.008940429 0.049628906 0.5568628 0.5568628 0.42745098
v -0.26526368 0.0044702147 -0.018610839 0.5568628 0.5568628 0.42745098
v -0.3690625 -0.02682129 0.1364795 0.18431373 0.18431373 0
v -0.56512696 0.008940429 0.049628906 0.5568628 0.5568628 0.42745098
v -0.43249515 0.06705322 -0.0930542 0.5568628 0.5568628 0.42745098
v -0.26526368 0.0044702147 -0.018610839 0.5568628 0.5568628 0.42745098
v -0.56512696 0.008940429 0.049628906 0.5568628 0.5568628 0.42745098
v -0.44402835 0.18774901 -0.08064697 0.654902 0.654902 0.58431375
v -0.43249515 0.06705322 -0.0930542 0.5568628 0.5568628 0.42745098
v -0.56512696 0.008940429 0.049628906 0.5568628 0.5568628 0.42745098
v -0.28833008 0.11175537 -0.3163843 0.654902 0.654902 0.58431375
v -0.44402835 0.18774901 -0.08064697 0.654902 0.654902 0.58431375
v -0.43249515 0.06705322 -0.0930542 0.5568628 0.5568628 0.42745098
v -0.26526368 0.0044702147 -0.018610839 0.5568628 0.5568628 0.42745098
v -0.28833008 0.11175537 -0.3163843 0.654902 0.654902 0.58431375
v -0.43249515 0.06705322 -0.0930542 0.5568628 0.5568628 0.42745098
v -0.10379883 0.044702146 -0.40943846 0.5568628 0.5568628 0.44313726
v -0.26526368 0.0044702147 -0.018610839 0.5568628 0.5568628 0.42745098
v -0.28833008 0.11175537 -0.3163843 0.654902 0.654902 0.58431375
v -0.18453126 0.17433837 -0.43425292 0.654902 0.654902 0.58431375
v -0.10379883 0.044702146 -0.40943846 0.5568628 0.5568628 0.44313726
v -0.28833008 0.11175537 -0.3163843 0.654902 0.654902 0.58431375
v 0 0.2771533 -0.50869626 0.7254902 0.7254902 0.7254902
v -0.18453126 0.17433837 -0.43425292 0.654902 0.654902 0.58431375
v -0.10379883 0.044702146 -0.40943846 0.5568628 0.5568628 0.44313726
v 0 -0.0044702147 -0.5211035 0.6901961 0.6901961 0.654902
v 0 0.2771533 -0.50869626 0.7254902 0.7254902 0.7254902
v -0.10379883 0.044702146 -0.40943846 0.6039216 0.6039216 0.5137255
v 0 -0.031291503 -0.45906737 0.49803922 0.49803922 0.36862746
v 0 -0.0044702147 -0.5211035 0.6901961 0.6901961 0.654902
v -0.10379883 0.044702146 -0.40943846 0.6039216 0.6039216 0.5137255
v 0 0.022351073 -0.40323487 0.34117648 0.34117648 0.17254902
v 0 -0.031291503 -0.45906737 0.49803922 0.49803922 0.36862746
v -0.10379883 0.044702146 -0.40943846 0.5568628 0.5568628 0.44313726
v -0.26526368 0.0044702147 -0.018610839 0.5568628 0.5568628 0.42745098
v 0 0.022351073 -0.40323487 0.49803922 0.49803922 0.36862746
v -0.10379883 0.044702146 -0.40943846 0.5568628 0.5568628 0.44313726
v 0 0.0044702147 -0.21712646 0.43137255 0.43137255 0.28627452
v -0.26526368 0.0044702147 -0.018610839 0.34117648 0.34117648 0.17254902
v 0 0.022351073 -0.40323487 0.49803922 0.49803922 0.36862746
v 0 -0.0044702147 -0.024814453 0.2627451 0.2627451 0.08627451
v 0 0.0044702147 -0.21712646 0.43137255 0.43137255 0.28627452
v -0.26526368 0.0044702147 -0.018610839 0.34117648 0.34117648 0.17254902
v 0.26526368 0 -0.018610839 0.34117648 0.34117648 0.17254902
v 0 -0.0044702147 -0.024814453 0.2627451 0.2627451 0.08627451
v 0 0.0044702147 -0.21712646 0.43137255 0.43137255 0.28627452
v 0 0.022351073 -0.40323487 0.49803922 0.49803922 0.36862746
v 0.26526368 0 -0.018610839 0.34117648 0.34117648 0.17254902
v 0 0.0044702147 -0.21712646 0.43137255 0.43137255 0.28627452
v 0.10379883 0.040231932 -0.40323487 0.5568628 0.5568628 0.42745098
v 0 0.022351073 -0.40323487 0.49803922 0.49803922 0.36862746
v 0.26526368 0 -0.018610839 0.5568628 0.5568628 0.42745098
v 0 -0.031291503 -0.45906737 0.49803922 0.49803922 0.36862746
v 0.10379883 0.040231932 -0.40323487 0.5568628 0.5568628 0.42745098
v 0 0.022351073 -0.40323487 0.34117648 0.34117648 0.17254902
v 0 -0.0044702147 -0.5211035 0.6901961 0.6901961 0.654902
v 0 -0.031291503 -0.45906737 0.49803922 0.49803922 0.36862746
v 0.10379883 0.040231932 -0.40323487 0.6039216 0.6039216 0.5137255
v 0 0.2771533 -0.50869626 0.7254902 0.7254902 0.7254902
v 0 -0.0044702147 -0.5211035 0.6901961 0.6901961 0.654902
v 0.10379883 0.040231932 -0.40323487 0.6039216 0.6039216 0.5137255
v 0.18453126 0.16986816 -0.43425292 0.654902 0.654902 0.58431375
v 0 0.2771533 -0.50869626 0.7254902 0.7254902 0.7254902
v 0.10379883 0.040231932 -0.40323487 0.5568628 0.5568628 0.42745098
v 0.28833008 0.11175537 -0.3163843 0.654902 0.654902 0.58431375
v 0.18453126 0.16986816 -0.43425292 0.654902 0.654902 0.58431375
v 0.10379883 0.040231932 -0.40323487 0.5568628 0.5568628 0.42745098
v 0.26526368 0 -0.018610839 0.5568628 0.5568628 0.42745098
v 0.28833008 0.11175537 -0.3163843 0.654902 0.654902 0.58431375
v 0.10379883 0.040231932 -0.40323487 0.5568628 0.5568628 0.42745098
v 0.42672852 0.06705322 -0.08685058 0.43137255 0.43137255 0.28627452
v 0.26526368 0 -0.018610839 0.5568628 0.5568628 0.42745098
v 0.28833008 0.11175537 -0.3163843 0.654902 0.654902 0.58431375
v 0.43826175 0.1832788 -0.074443355 0.654902 0.654902 0.58431375
v 0.42672852 0.06705322 -0.08685058 0.43137255 0.43137255 0.28627452
v 0.28833008 0.11175537 -0.3163843 0.654902 0.654902 0.58431375
v 0.55359375 0.0044702147 0.05583252 0.43137255 0.43137255 0.28627452
v 0.43826175 0.1832788 -0.074443355 0.654902 0.654902 0.58431375
v 0.42672852 0.06705322 -0.08685058 0.43137255 0.43137255 0.28627452
v 0.5478272 0.30844483 0.1426831 0.7254902 0.7254902 0.7254902
v 0.55359375 0.0044702147 0.05583252 0.43137255 0.43137255 0.28627452
v 0.43826175 0.1832788 -0.074443355 0.654902 0.654902 0.58431375
v 0.55359375 0.0044702147 0.05583252 0.43137255 0.43137255 0.28627452
v 0.5478272 0.30844483 0.1426831 0.7254902 0.7254902 0.7254902
v 0.3517627 0.32185546 0.24814454 0.7254902 0.7254902 0.7254902
v 0.3690625 0.28609374 0.17990479 0.654902 0.654902 0.58431375
v 0.3517627 0.32185546 0.24814454 0.7254902 0.7254902 0.7254902
v 0.5478272 0.30844483 0.1426831 0.7254902 0.7254902 0.7254902
v 0.3632959 -0.031291503 0.1426831 0.18431373 0.18431373 0
v 0.3690625 0.28609374 0.17990479 0.654902 0.654902 0.58431375
v 0.3517627 0.32185546 0.24814454 0.7254902 0.7254902 0.7254902
v 0.3517627 0.32185546 0.24814454 0.7254902 0.7254902 0.7254902
v 0.3632959 -0.031291503 0.1426831 0.18431373 0.18431373 0
v 0.55359375 0.0044702147 0.05583252 0.43137255 0.43137255 0.28627452
v 0.26526368 0 -0.018610839 0.5568628 0.5568628 0.42745098
v 0.55359375 0.0044702147 0.05583252 0.43137255 0.43137255 0.28627452
v 0.3632959 -0.031291503 0.1426831 0.18431373 0.18431373 0
v 0.3690625 0.28609374 0.17990479 0.5568628 0.5568628 0.44313726
v 0.26526368 0 -0.018610839 0.5568628 0.5568628 0.42745098
v 0.3632959 -0.031291503 0.1426831 0.18431373 0.18431373 0
v 0.55359375 0.0044702147 0.05583252 0.43137255 0.43137255 0.28627452
v 0.26526368 0 -0.018610839 0.5568628 0.5568628 0.42745098
v 0.42672852 0.06705322 -0.08685058 0.43137255 0.43137255 0.28627452
v 0.28256348 0.2816235 0.22953369 0.654902 0.654902 0.58431375
v 0.3229297 0.008940429 0.06823975 0.34117648 0.34117648 0.17254902
v 0.19606446 0.18774901 0.062036134 0.34117648 0.34117648 0.17254902
v 0.07496582 0.008940429 0.06823975 0.18431373 0.18431373 0
v 0.19606446 0.18774901 0.062036134 0.34117648 0.34117648 0.17254902
v 0.3229297 0.008940429 0.06823975 0.34117648 0.34117648 0.17254902
v 0.06919922 0.19668944 0.3287915 0.49803922 0.49803922 0.36862746
v 0.07496582 0.008940429 0.06823975 0.18431373 0.18431373 0
v 0.19606446 0.18774901 0.062036134 0.34117648 0.34117648 0.17254902
v 0.09226563 0.05364258 0.35360596 0.49803922 0.49803922 0.36862746
v 0.06919922 0.19668944 0.3287915 0.49803922 0.49803922 0.36862746
v 0.07496582 0.008940429 0.06823975 0.18431373 0.18431373 0
v 0.28833008 0.0044702147 0.35360596 0.654902 0.654902 0.58431375
v 0.09226563 0.05364258 0.35360596 0.49803922 0.49803922 0.36862746
v 0.06919922 0.19668944 0.3287915 0.49803922 0.49803922 0.36862746
v 0.19029786 0.20115966 0.3287915 0.7254902 0.7254902 0.7254902
v 0.28833008 0.0044702147 0.35360596 0.654902 0.654902 0.58431375
v 0.06919922 0.19668944 0.3287915 0.49803922 0.49803922 0.36862746
v 0.14416504 0.38443846 0.50249267 0.34117648 0.34117648 0.17254902
v 0.19029786 0.20115966 0.3287915 0.7254902 0.7254902 0.7254902
v 0.06919922 0.19668944 0.3287915 0.49803922 0.49803922 0.36862746
v 0.21913087 0.50960445 0.32258788 0.654902 0.654902 0.58431375
v 0.14416504 0.38443846 0.50249267 0.34117648 0.34117648 0.17254902
v 0.19029786 0.20115966 0.3287915 0.7254902 0.7254902 0.7254902
v 0.28256348 0.2816235 0.22953369 0.654902 0.654902 0.58431375
v 0.21913087 0.50960445 0.32258788 0.654902 0.654902 0.58431375
v 0.19029786 0.20115966 0.3287915 0.7254902 0.7254902 0.7254902
v 0.28833008 0.0044702147 0.35360596 0.654902 0.654902 0.58431375
v 0.28256348 0.2816235 0.22953369 0.654902 0.654902 0.58431375
v 0.19029786 0.20115966 0.3287915 0.7254902 0.7254902 0.7254902
v 0.3229297 0.008940429 0.06823975 0.34117648 0.34117648 0.17254902
v 0.28833008 0.0044702147 0.35360596 0.654902 0.654902 0.58431375
v 0.28256348 0.2816235 0.22953369 0.654902 0.654902 0.58431375
v 0.08073243 0.0044702147 0.41564208 0.7254902 0.7254902 0.7254902
v 0.3229297 0.008940429 0.06823975 0.34117648 0.34117648 0.17254902
v 0.28833008 0.0044702147 0.35360596 0.654902 0.654902 0.58431375
v 0.3229297 0.008940429 0.06823975 0.34117648 0.34117648 0.17254902
v 0.08073243 0.0044702147 0.41564208 0.7254902 0.7254902 0.7254902
v 0.07496582 0.008940429 0.06823975 0.18431373 0.18431373 0
v 0.09226563 0.05364258 0.35360596 0.654902 0.654902 0.58431375
v 0.07496582 0.008940429 0.06823975 0.18431373 0.18431373 0
v 0.08073243 0.0044702147 0.41564208 0.7254902 0.7254902 0.7254902
v 0.28833008 0.0044702147 0.35360596 0.654902 0.654902 0.58431375
v 0.09226563 0.05364258 0.35360596 0.654902 0.654902 0.58431375
v 0.08073243 0.0044702147 0.41564208 0.7254902 0.7254902 0.7254902

# UVs
vt 0.015625 1
vt 0 0
vt 0.015625 0
vt 0.015625 1
vt 0 1
vt 0 0
vt 0 1
vt 0.015625 0
vt 0.015625 1
vt 0.015625 0
vt 0 1
vt 0 0
vt 1 1
vt 0 1
vt 0 0
vt 1 0
vt 1 1
vt 0 0
vt 0 1
vt 0 0
vt 1 1
vt 1 0
vt 1 1
vt 0 0
vt 1 0
vt 1 1
vt 0 1
vt 0 1
vt 0 0
vt 1 0
vt 0 1
vt 1 0
vt 1 1
vt 1 0
vt 0 1
vt 0 0

# Faces with textures
usemtl notex
f 1 2 3
f 4 5 6
f 7 8 9
f 10 11 12
f 13 14 15
f 16 17 18
f 19 20 21
f 22 23 24
f 25 26 27
f 28 29 30
f 31 32 33
f 34 35 36
f 37 38 39
f 40 41 42
f 43 44 45
f 46 47 48
f 49 50 51
f 52 53 54
f 55 56 57
f 58 59 60
f 61 62 63
f 64 65 66
f 67 68 69
f 70 71 72
f 73 74 75
f 76 77 78
f 79 80 81
f 82 83 84
f 85 86 87
f 88 89 90
f 91 92 93
f 94 95 96
f 97 98 99
f 100 101 102
f 103 104 105
f 106 107 108
f 109 110 111
f 112 113 114
f 115 116 117
f 118 119 120
f 121 122 123
f 124 125 126
f 127 128 129
f 130 131 132
f 133 134 135
f 136 137 138
f 139 140 141
f 145 146 147
f 148 149 150
f 151 152 153
f 163 164 165
f 166 167 168
f 169 170 171
f 172 173 174
f 175 176 177
f 178 179 180
f 181 182 183
f 184 185 186
f 187 188 189
f 190 191 192
f 193 194 195
f 196 197 198
f 199 200 201
f 202 203 204
f 205 206 207
f 208 209 210
f 211 212 213
f 214 215 216
f 217 218 219
f 220 221 222
f 223 224 225
f 226 227 228
f 235 236 237
f 238 239 240
f 241 242 243
f 244 245 246
f 247 248 249
f 250 251 252
f 253 254 255
f 256 257 258
f 259 260 261
f 262 263 264
f 265 266 267
f 268 269 270
f 271 272 273
f 274 275 276
f 277 278 279
f 280 281 282
f 283 284 285
f 286 287 288
f 289 290 291
f 292 293 294
f 295 296 297
f 298 299 300
f 301 302 303
f 304 305 306
f 307 308 309
f 310 311 312
f 313 314 315
f 316 317 318
f 319 320 321
f 322 323 324
f 325 326 327
f 328 329 330
f 331 332 333
f 334 335 336
f 337 338 339
f 340 341 342
f 343 344 345
f 346 347 348
f 349 350 351
f 352 353 354
f 355 356 357
f 358 359 360
f 361 362 363
f 364 365 366
f 367 368 369
f 370 371 372
f 373 374 375
f 376 377 378
f 379 380 381
f 382 383 384
f 385 386 387
f 394 395 396
f 397 398 399
f 400 401 402
f 403 404 405
f 406 407 408
f 409 410 411
f 412 413 414
f 415 416 417
f 418 419 420
f 421 422 423
f 424 425 426
f 427 428 429
f 430 431 432
f 433 434 435
f 436 437 438
f 439 440 441
f 442 443 444
f 445 446 447
f 448 449 450
f 451 452 453
f 454 455 456
f 457 458 459
f 460 461 462
f 463 464 465
f 466 467 468
f 469 470 471
f 472 473 474
f 478 479 480
f 481 482 483
f 487 488 489
f 490 491 492
f 493 494 495
f 496 497 498
f 499 500 501
f 502 503 504
f 505 506 507
f 508 509 510
f 511 512 513
f 514 515 516
f 517 518 519
f 520 521 522
f 523 524 525
f 526 527 528
f 535 536 537
f 538 539 540
usemtl texCr10T_x864y16_w16h16_cx12cy8_c0b3_a64x1
f 142/1 143/2 144/3
f 154/4 155/5 156/6
f 157/7 158/8 159/9
f 160/10 161/11 162/12
usemtl texCr10T_x912y16_w16h16_cx13cy8_c0b3
f 229/13 230/14 231/15
f 232/16 233/17 234/18
f 388/19 389/20 390/21
f 391/22 392/23 393/24
f 475/25 476/26 477/27
f 484/28 485/29 486/30
f 529/31 530/32 531/33
f 532/34 533/35 534/36
