<?xml version="1.0" encoding="utf-8"?>
<COLLADA xmlns="http://www.collada.org/2005/11/COLLADASchema" version="1.4.1" xmlns:xsi="http://www.w3.org/2001/XMLSchema-instance">
  <asset>
    <contributor>
      <author>Blender User</author>
      <authoring_tool>Blender 3.6.4 commit date:2023-09-25, commit time:13:24, hash:21bfc5e7fe3f</authoring_tool>
    </contributor>
    <created>2026-07-19T00:56:28</created>
    <modified>2026-07-19T00:56:28</modified>
    <unit name="meter" meter="1"/>
    <up_axis>Z_UP</up_axis>
  </asset>
  <library_effects>
    <effect id="notex-effect">
      <profile_COMMON>
        <technique sid="common">
          <lambert>
            <emission>
              <color sid="emission">0 0 0 1</color>
            </emission>
            <diffuse>
              <color sid="diffuse">0.8 0.8 0.8 1</color>
            </diffuse>
            <index_of_refraction>
              <float sid="ior">1.45</float>
            </index_of_refraction>
          </lambert>
        </technique>
      </profile_COMMON>
    </effect>
    <effect id="texCr10T_x864y16_w16h16_cx12cy8_c0b3_a64x1-effect">
      <profile_COMMON>
        <newparam sid="texCr10T_x864y16_w16h16_cx12cy8_c0b3_a64x1_png-surface">
          <surface type="2D">
            <init_from>texCr10T_x864y16_w16h16_cx12cy8_c0b3_a64x1_png</init_from>
          </surface>
        </newparam>
        <newparam sid="texCr10T_x864y16_w16h16_cx12cy8_c0b3_a64x1_png-sampler">
          <sampler2D>
            <source>texCr10T_x864y16_w16h16_cx12cy8_c0b3_a64x1_png-surface</source>
          </sampler2D>
        </newparam>
        <technique sid="common">
          <lambert>
            <emission>
              <color sid="emission">0 0 0 1</color>
            </emission>
            <diffuse>
              <texture texture="texCr10T_x864y16_w16h16_cx12cy8_c0b3_a64x1_png-sampler" texcoord="polar-mesh-map-0"/>
            </diffuse>
            <index_of_refraction>
              <float sid="ior">1.45</float>
            </index_of_refraction>
          </lambert>
        </technique>
      </profile_COMMON>
    </effect>
    <effect id="texCr10T_x912y16_w16h16_cx13cy8_c0b3-effect">
      <profile_COMMON>
        <newparam sid="texCr10T_x912y16_w16h16_cx13cy8_c0b3_png-surface">
          <surface type="2D">
            <init_from>texCr10T_x912y16_w16h16_cx13cy8_c0b3_png</init_from>
          </surface>
        </newparam>
        <newparam sid="texCr10T_x912y16_w16h16_cx13cy8_c0b3_png-sampler">
          <sampler2D>
            <source>texCr10T_x912y16_w16h16_cx13cy8_c0b3_png-surface</source>
          </sampler2D>
        </newparam>
        <technique sid="common">
          <lambert>
            <emission>
              <color sid="emission">0 0 0 1</color>
            </emission>
            <diffuse>
              <texture texture="texCr10T_x912y16_w16h16_cx13cy8_c0b3_png-sampler" texcoord="polar-mesh-map-0"/>
            </diffuse>
            <index_of_refraction>
              <float sid="ior">1.45</float>
            </index_of_refraction>
          </lambert>
        </technique>
      </profile_COMMON>
    </effect>
  </library_effects>
  <library_images>
    <image id="texCr10T_x864y16_w16h16_cx12cy8_c0b3_a64x1_png" name="texCr10T_x864y16_w16h16_cx12cy8_c0b3_a64x1_png">
      <init_from>texCr10T_x864y16_w16h16_cx12cy8_c0b3_a64x1.png</init_from>
    </image>
    <image id="texCr10T_x912y16_w16h16_cx13cy8_c0b3_png" name="texCr10T_x912y16_w16h16_cx13cy8_c0b3_png">
      <init_from>texCr10T_x912y16_w16h16_cx13cy8_c0b3.png</init_from>
    </image>
  </library_images>
  <library_materials>
    <material id="notex-material" name="notex">
      <instance_effect url="#notex-effect"/>
    </material>
    <material id="texCr10T_x864y16_w16h16_cx12cy8_c0b3_a64x1-material" name="texCr10T_x864y16_w16h16_cx12cy8_c0b3_a64x1">
      <instance_effect url="#texCr10T_x864y16_w16h16_cx12cy8_c0b3_a64x1-effect"/>
    </material>
    <material id="texCr10T_x912y16_w16h16_cx13cy8_c0b3-material" name="texCr10T_x912y16_w16h16_cx13cy8_c0b3">
      <instance_effect url="#texCr10T_x912y16_w16h16_cx13cy8_c0b3-effect"/>
    </material>
  </library_materials>
  <library_geometries>
    <geometry id="polar-mesh" name="polar">
      <mesh>
        <source id="polar-mesh-positions">
          <float_array id="polar-mesh-positions-array" count="1620">-0.1902979 0.8672217 0.465271 -0.2940967 0.8359302 0.384624 -0.172998 0.7822876 0.4838818 -0.2767969 0.7599365 0.4714746 -0.172998 0.7822876 0.4838818 -0.2940967 0.8359302 0.384624 0.2248975 0.7956982 0.4900854 0.1268652 0.7822876 0.4962891 0.2191308 0.8761621 0.4032348 0.1095654 0.8716919 0.4776782 0.2191308 0.8761621 0.4032348 0.1268652 0.7822876 0.4962891 0.0461328 0.5453662 0.7816553 -0.08649903 0.540896 0.7754517 -0.08649903 0.5006641 0.7692481 -0.1499316 0.540896 0.73823 -0.08649903 0.5006641 0.7692481 -0.08649903 0.540896 0.7754517 -0.09803223 0.4112597 0.6327686 -0.1499316 0.540896 0.73823 -0.08649903 0.5006641 0.7692481 0.08649903 0.4202002 0.6389722 -0.09803223 0.4112597 0.6327686 -0.08649903 0.5006641 0.7692481 0.05189937 0.5140747 0.7692481 0.08649903 0.4202002 0.6389722 -0.08649903 0.5006641 0.7692481 0.0461328 0.5453662 0.7816553 0.05189937 0.5140747 0.7692481 -0.08649903 0.5006641 0.7692481 0.115332 0.5543066 0.7444336 0.0461328 0.5453662 0.7816553 0.05189937 0.5140747 0.7692481 0.08649903 0.4202002 0.6389722 0.115332 0.5543066 0.7444336 0.05189937 0.5140747 0.7692481 0.2652637 0.5274853 0.5893433 0.08649903 0.4202002 0.6389722 0.115332 0.5543066 0.7444336 0.230664 0.5230152 0.4528638 0.2652637 0.5274853 0.5893433 0.08649903 0.4202002 0.6389722 0.2364307 0.6258301 0.5583252 0.230664 0.5230152 0.4528638 0.2652637 0.5274853 0.5893433 0.057666 0.6884131 0.8002661 0.2364307 0.6258301 0.5583252 0.2652637 0.5274853 0.5893433 0.115332 0.5543066 0.7444336 0.057666 0.6884131 0.8002661 0.2652637 0.5274853 0.5893433 -0.0230664 0.5990088 0.8064697 0.115332 0.5543066 0.7444336 0.057666 0.6884131 0.8002661 0.0461328 0.5453662 0.7816553 -0.0230664 0.5990088 0.8064697 0.115332 0.5543066 0.7444336 -0.08649903 0.540896 0.7754517 0.0461328 0.5453662 0.7816553 -0.0230664 0.5990088 0.8064697 -0.1499316 0.540896 0.73823 -0.08649903 0.540896 0.7754517 -0.0230664 0.5990088 0.8064697 -0.1095654 0.6794726 0.7940625 -0.1499316 0.540896 0.73823 -0.0230664 0.5990088 0.8064697 -0.02883297 0.6750024 0.8747095 -0.1095654 0.6794726 0.7940625 -0.0230664 0.5990088 0.8064697 0.057666 0.6884131 0.8002661 -0.02883297 0.6750024 0.8747095 -0.0230664 0.5990088 0.8064697 -0.1095654 0.6794726 0.7940625 0.057666 0.6884131 0.8002661 -0.02883297 0.6750024 0.8747095 -0.0230664 0.6928833 0.6265649 -0.1095654 0.6794726 0.7940625 0.057666 0.6884131 0.8002661 -0.2075976 0.6705322 0.5273072 -0.0230664 0.6928833 0.6265649 -0.1095654 0.6794726 0.7940625 -0.2652637 0.603479 0.5397143 -0.2075976 0.6705322 0.5273072 -0.1095654 0.6794726 0.7940625 -0.2883301 0.5051343 0.5707324 -0.2652637 0.603479 0.5397143 -0.1095654 0.6794726 0.7940625 -0.1499316 0.540896 0.73823 -0.2883301 0.5051343 0.5707324 -0.1095654 0.6794726 0.7940625 -0.09803223 0.4112597 0.6327686 -0.1499316 0.540896 0.73823 -0.2883301 0.5051343 0.5707324 -0.2421972 0.5006641 0.4404565 -0.09803223 0.4112597 0.6327686 -0.2883301 0.5051343 0.5707324 -0.2652637 0.603479 0.5397143 -0.2421972 0.5006641 0.4404565 -0.2883301 0.5051343 0.5707324 -0.2075976 0.6705322 0.5273072 -0.2652637 0.603479 0.5397143 -0.2421972 0.5006641 0.4404565 -0.2191308 0.4827832 0.3287915 -0.2075976 0.6705322 0.5273072 -0.2421972 0.5006641 0.4404565 -0.1960644 0.581128 0.1861084 -0.2191308 0.4827832 0.3287915 -0.2075976 0.6705322 0.5273072 -0.1326318 0.7331152 0.3784204 -0.1960644 0.581128 0.1861084 -0.2075976 0.6705322 0.5273072 -0.00576657 0.7554663 0.2977734 -0.1326318 0.7331152 0.3784204 -0.1960644 0.581128 0.1861084 0 0.6392407 0.08685058 -0.00576657 0.7554663 0.2977734 -0.1960644 0.581128 0.1861084 0.1960644 0.563247 0.1426831 0 0.6392407 0.08685058 -0.00576657 0.7554663 0.2977734 0.115332 0.7420557 0.384624 0.1960644 0.563247 0.1426831 -0.00576657 0.7554663 0.2977734 0.172998 0.6884131 0.5397143 0.115332 0.7420557 0.384624 0.1960644 0.563247 0.1426831 0.2191308 0.5096045 0.3225879 0.172998 0.6884131 0.5397143 0.1960644 0.563247 0.1426831 0.230664 0.5230152 0.4528638 0.2191308 0.5096045 0.3225879 0.172998 0.6884131 0.5397143 0.2364307 0.6258301 0.5583252 0.230664 0.5230152 0.4528638 0.172998 0.6884131 0.5397143 0.057666 0.6884131 0.8002661 0.2364307 0.6258301 0.5583252 0.172998 0.6884131 0.5397143 -0.0230664 0.6928833 0.6265649 0.057666 0.6884131 0.8002661 0.172998 0.6884131 0.5397143 0.115332 0.7420557 0.384624 0.1268652 0.7822876 0.4962891 0.172998 0.6884131 0.5397143 -0.00576657 0.7554663 0.2977734 0.115332 0.7420557 0.384624 0.1268652 0.7822876 0.4962891 -0.0230664 0.8135791 0.5211035 -0.00576657 0.7554663 0.2977734 0.1268652 0.7822876 0.4962891 -0.1326318 0.7331152 0.3784204 -0.2075976 0.6705322 0.5273072 -0.172998 0.7822876 0.4838818 -0.00576657 0.7554663 0.2977734 -0.1326318 0.7331152 0.3784204 -0.172998 0.7822876 0.4838818 -0.0230664 0.8135791 0.5211035 -0.00576657 0.7554663 0.2977734 -0.172998 0.7822876 0.4838818 0.2191308 0.5096045 0.3225879 0.230664 0.5230152 0.4528638 0.144165 0.3844385 0.5024927 0.08649903 0.4202002 0.6389722 0.144165 0.3844385 0.5024927 0.230664 0.5230152 0.4528638 -0.09803223 0.4112597 0.6327686 0.08649903 0.4202002 0.6389722 0.144165 0.3844385 0.5024927 -0.1499316 0.3799682 0.5024927 -0.09803223 0.4112597 0.6327686 0.144165 0.3844385 0.5024927 -0.2421972 0.5006641 0.4404565 -0.1499316 0.3799682 0.5024927 -0.09803223 0.4112597 0.6327686 -0.2191308 0.4827832 0.3287915 -0.2421972 0.5006641 0.4404565 -0.1499316 0.3799682 0.5024927 -0.1960644 0.2011595 0.3287915 -0.2191308 0.4827832 0.3287915 -0.1499316 0.3799682 0.5024927 -0.0691992 0.1966894 0.3287915 -0.1960644 0.2011595 0.3287915 -0.1499316 0.3799682 0.5024927 0.144165 0.3844385 0.5024927 -0.0691992 0.1966894 0.3287915 -0.1499316 0.3799682 0.5024927 0.0691992 0.1966894 0.3287915 0.144165 0.3844385 0.5024927 -0.0691992 0.1966894 0.3287915 0 0.1028149 0.2667554 0.0691992 0.1966894 0.3287915 -0.0691992 0.1966894 0.3287915 0.1960644 0.187749 0.06203603 0 0.1028149 0.2667554 0.0691992 0.1966894 0.3287915 0 -0.004470169 -0.02481436 0.1960644 0.187749 0.06203603 0 0.1028149 0.2667554 -0.1960644 0.187749 0.06203603 0 -0.004470169 -0.02481436 0 0.1028149 0.2667554 -0.0691992 0.1966894 0.3287915 -0.1960644 0.187749 0.06203603 0 0.1028149 0.2667554 -0.07496577 0.008940398 0.06823974 -0.0691992 0.1966894 0.3287915 -0.1960644 0.187749 0.06203603 -0.3344629 0.008940398 0.06823974 -0.07496577 0.008940398 0.06823974 -0.1960644 0.187749 0.06203603 -0.2825635 0.2816235 0.2295337 -0.3344629 0.008940398 0.06823974 -0.1960644 0.187749 0.06203603 -0.2998633 0.004470169 0.3536059 -0.2825635 0.2816235 0.2295337 -0.3344629 0.008940398 0.06823974 -0.0922656 0.05364257 0.3536059 -0.07496577 0.008940398 0.06823974 -0.0807324 0.004470169 0.4156421 -0.2998633 0.004470169 0.3536059 -0.0922656 0.05364257 0.3536059 -0.0807324 0.004470169 0.4156421 -0.0691992 0.1966894 0.3287915 -0.2998633 0.004470169 0.3536059 -0.0922656 0.05364257 0.3536059 -0.07496577 0.008940398 0.06823974 -0.0691992 0.1966894 0.3287915 -0.0922656 0.05364257 0.3536059 -0.0691992 0.1966894 0.3287915 -0.2998633 0.004470169 0.3536059 -0.1960644 0.2011595 0.3287915 -0.2825635 0.2816235 0.2295337 -0.1960644 0.2011595 0.3287915 -0.2998633 0.004470169 0.3536059 -0.2191308 0.4827832 0.3287915 -0.2825635 0.2816235 0.2295337 -0.1960644 0.2011595 0.3287915 -0.2594971 0.4336108 0.06823974 -0.2191308 0.4827832 0.3287915 -0.2825635 0.2816235 0.2295337 -0.1960644 0.187749 0.06203603 -0.2594971 0.4336108 0.06823974 -0.2825635 0.2816235 0.2295337 -0.3575293 0.3263257 -0.1364794 -0.1960644 0.187749 0.06203603 -0.2594971 0.4336108 0.06823974 -0.1960644 0.581128 0.1861084 -0.3575293 0.3263257 -0.1364794 -0.2594971 0.4336108 0.06823974 -0.2191308 0.4827832 0.3287915 -0.1960644 0.581128 0.1861084 -0.2594971 0.4336108 0.06823974 -0.3575293 0.3263257 -0.1364794 -0.230664 0.3799682 -0.2047192 -0.1960644 0.581128 0.1861084 0 0.4559619 -0.2481445 -0.1960644 0.581128 0.1861084 -0.230664 0.3799682 -0.2047192 0 0.6392407 0.08685058 0 0.4559619 -0.2481445 -0.1960644 0.581128 0.1861084 0.1960644 0.563247 0.1426831 0 0.6392407 0.08685058 0 0.4559619 -0.2481445 0.230664 0.3799682 -0.2047192 0.1960644 0.563247 0.1426831 0 0.4559619 -0.2481445 0.3575293 0.3263257 -0.1364794 0.230664 0.3799682 -0.2047192 0.1960644 0.563247 0.1426831 0.2594971 0.4023193 0.08064693 0.3575293 0.3263257 -0.1364794 0.1960644 0.563247 0.1426831 0.2191308 0.5096045 0.3225879 0.2594971 0.4023193 0.08064693 0.1960644 0.563247 0.1426831 0.2825635 0.2816235 0.2295337 0.2191308 0.5096045 0.3225879 0.2594971 0.4023193 0.08064693 0.1960644 0.187749 0.06203603 0.2825635 0.2816235 0.2295337 0.2594971 0.4023193 0.08064693 0.3575293 0.3263257 -0.1364794 0.1960644 0.187749 0.06203603 0.2594971 0.4023193 0.08064693 0.3402295 0.3263257 0.04342526 0.3575293 0.3263257 -0.1364794 0.1960644 0.187749 0.06203603 0 -0.004470169 -0.02481436 0.3402295 0.3263257 0.04342526 0.1960644 0.187749 0.06203603 0.2652637 0 -0.01861083 0 -0.004470169 -0.02481436 0.3402295 0.3263257 0.04342526 0.3690625 0.2860937 0.1799048 0.2652637 0 -0.01861083 0.3402295 0.3263257 0.04342526 0.5478272 0.3084448 0.1426831 0.3690625 0.2860937 0.1799048 0.3402295 0.3263257 0.04342526 0.4382618 0.1832787 -0.07444334 0.5478272 0.3084448 0.1426831 0.3402295 0.3263257 0.04342526 0.3575293 0.3263257 -0.1364794 0.4382618 0.1832787 -0.07444334 0.3402295 0.3263257 0.04342526 0.2883301 0.1117553 -0.3163843 0.3575293 0.3263257 -0.1364794 0.4382618 0.1832787 -0.07444334 0.1845312 0.1698681 -0.4342529 0.2883301 0.1117553 -0.3163843 0.3575293 0.3263257 -0.1364794 0.230664 0.3799682 -0.2047192 0.1845312 0.1698681 -0.4342529 0.3575293 0.3263257 -0.1364794 0 0.2771533 -0.5086963 0.230664 0.3799682 -0.2047192 0.1845312 0.1698681 -0.4342529 0 0.4559619 -0.2481445 0 0.2771533 -0.5086963 0.230664 0.3799682 -0.2047192 -0.230664 0.3799682 -0.2047192 0 0.4559619 -0.2481445 0 0.2771533 -0.5086963 -0.1845312 0.1743384 -0.4342529 -0.230664 0.3799682 -0.2047192 0 0.2771533 -0.5086963 -0.3575293 0.3263257 -0.1364794 -0.1845312 0.1743384 -0.4342529 -0.230664 0.3799682 -0.2047192 -0.2883301 0.1117553 -0.3163843 -0.3575293 0.3263257 -0.1364794 -0.1845312 0.1743384 -0.4342529 -0.4440283 0.187749 -0.08064693 -0.2883301 0.1117553 -0.3163843 -0.3575293 0.3263257 -0.1364794 -0.3402295 0.3263257 0.04342526 -0.4440283 0.187749 -0.08064693 -0.3575293 0.3263257 -0.1364794 -0.1960644 0.187749 0.06203603 -0.3402295 0.3263257 0.04342526 -0.3575293 0.3263257 -0.1364794 0 -0.004470169 -0.02481436 -0.1960644 0.187749 0.06203603 -0.3402295 0.3263257 0.04342526 -0.2652637 0.004470169 -0.01861083 0 -0.004470169 -0.02481436 -0.3402295 0.3263257 0.04342526 -0.3748291 0.290564 0.1737011 -0.2652637 0.004470169 -0.01861083 -0.3402295 0.3263257 0.04342526 -0.3690625 -0.02682125 0.1364794 -0.3748291 0.290564 0.1737011 -0.2652637 0.004470169 -0.01861083 -0.3632959 0.3263257 0.2419409 -0.3690625 -0.02682125 0.1364794 -0.3748291 0.290564 0.1737011 -0.565127 0.3173853 0.1302759 -0.3632959 0.3263257 0.2419409 -0.3748291 0.290564 0.1737011 -0.3402295 0.3263257 0.04342526 -0.565127 0.3173853 0.1302759 -0.3748291 0.290564 0.1737011 -0.4440283 0.187749 -0.08064693 -0.3402295 0.3263257 0.04342526 -0.565127 0.3173853 0.1302759 -0.565127 0.008940398 0.04962885 -0.4440283 0.187749 -0.08064693 -0.565127 0.3173853 0.1302759 -0.2652637 0.004470169 -0.01861083 -0.3690625 -0.02682125 0.1364794 -0.565127 0.008940398 0.04962885 -0.4324951 0.06705319 -0.09305417 -0.2652637 0.004470169 -0.01861083 -0.565127 0.008940398 0.04962885 -0.4440283 0.187749 -0.08064693 -0.4324951 0.06705319 -0.09305417 -0.565127 0.008940398 0.04962885 -0.2883301 0.1117553 -0.3163843 -0.4440283 0.187749 -0.08064693 -0.4324951 0.06705319 -0.09305417 -0.2652637 0.004470169 -0.01861083 -0.2883301 0.1117553 -0.3163843 -0.4324951 0.06705319 -0.09305417 -0.1037988 0.04470211 -0.4094384 -0.2652637 0.004470169 -0.01861083 -0.2883301 0.1117553 -0.3163843 -0.1845312 0.1743384 -0.4342529 -0.1037988 0.04470211 -0.4094384 -0.2883301 0.1117553 -0.3163843 0 0.2771533 -0.5086963 -0.1845312 0.1743384 -0.4342529 -0.1037988 0.04470211 -0.4094384 0 -0.004470169 -0.5211035 0 0.2771533 -0.5086963 -0.1037988 0.04470211 -0.4094384 0 -0.03129148 -0.4590674 0 -0.004470169 -0.5211035 -0.1037988 0.04470211 -0.4094384 0 0.02235096 -0.4032348 0 -0.03129148 -0.4590674 -0.1037988 0.04470211 -0.4094384 -0.2652637 0.004470169 -0.01861083 0 0.02235096 -0.4032348 -0.1037988 0.04470211 -0.4094384 0 0.004470169 -0.2171264 -0.2652637 0.004470169 -0.01861083 0 0.02235096 -0.4032348 0 -0.004470169 -0.02481436 0 0.004470169 -0.2171264 -0.2652637 0.004470169 -0.01861083 0.2652637 0 -0.01861083 0 -0.004470169 -0.02481436 0 0.004470169 -0.2171264 0 0.02235096 -0.4032348 0.2652637 0 -0.01861083 0 0.004470169 -0.2171264 0.1037988 0.04023188 -0.4032348 0 0.02235096 -0.4032348 0.2652637 0 -0.01861083 0 -0.03129148 -0.4590674 0.1037988 0.04023188 -0.4032348 0 0.02235096 -0.4032348 0 -0.004470169 -0.5211035 0 -0.03129148 -0.4590674 0.1037988 0.04023188 -0.4032348 0 0.2771533 -0.5086963 0 -0.004470169 -0.5211035 0.1037988 0.04023188 -0.4032348 0.1845312 0.1698681 -0.4342529 0 0.2771533 -0.5086963 0.1037988 0.04023188 -0.4032348 0.2883301 0.1117553 -0.3163843 0.1845312 0.1698681 -0.4342529 0.1037988 0.04023188 -0.4032348 0.2652637 0 -0.01861083 0.2883301 0.1117553 -0.3163843 0.1037988 0.04023188 -0.4032348 0.4267285 0.06705319 -0.08685058 0.2652637 0 -0.01861083 0.2883301 0.1117553 -0.3163843 0.4382618 0.1832787 -0.07444334 0.4267285 0.06705319 -0.08685058 0.2883301 0.1117553 -0.3163843 0.5535938 0.004470169 0.0558325 0.4382618 0.1832787 -0.07444334 0.4267285 0.06705319 -0.08685058 0.5478272 0.3084448 0.1426831 0.5535938 0.004470169 0.0558325 0.4382618 0.1832787 -0.07444334 0.3690625 0.2860937 0.1799048 0.3517627 0.3218554 0.2481445 0.5478272 0.3084448 0.1426831 0.3632959 -0.03129148 0.1426831 0.3690625 0.2860937 0.1799048 0.3517627 0.3218554 0.2481445 0.2652637 0 -0.01861083 0.5535938 0.004470169 0.0558325 0.3632959 -0.03129148 0.1426831 0.3690625 0.2860937 0.1799048 0.2652637 0 -0.01861083 0.3632959 -0.03129148 0.1426831 0.5535938 0.004470169 0.0558325 0.2652637 0 -0.01861083 0.4267285 0.06705319 -0.08685058 0.2825635 0.2816235 0.2295337 0.3229297 0.008940398 0.06823974 0.1960644 0.187749 0.06203603 0.07496577 0.008940398 0.06823974 0.1960644 0.187749 0.06203603 0.3229297 0.008940398 0.06823974 0.0691992 0.1966894 0.3287915 0.07496577 0.008940398 0.06823974 0.1960644 0.187749 0.06203603 0.0922656 0.05364257 0.3536059 0.0691992 0.1966894 0.3287915 0.07496577 0.008940398 0.06823974 0.2883301 0.004470169 0.3536059 0.0922656 0.05364257 0.3536059 0.0691992 0.1966894 0.3287915 0.1902979 0.2011595 0.3287915 0.2883301 0.004470169 0.3536059 0.0691992 0.1966894 0.3287915 0.144165 0.3844385 0.5024927 0.1902979 0.2011595 0.3287915 0.0691992 0.1966894 0.3287915 0.2191308 0.5096045 0.3225879 0.144165 0.3844385 0.5024927 0.1902979 0.2011595 0.3287915 0.2825635 0.2816235 0.2295337 0.2191308 0.5096045 0.3225879 0.1902979 0.2011595 0.3287915 0.2883301 0.004470169 0.3536059 0.2825635 0.2816235 0.2295337 0.1902979 0.2011595 0.3287915 0.3229297 0.008940398 0.06823974 0.2883301 0.004470169 0.3536059 0.2825635 0.2816235 0.2295337 0.0922656 0.05364257 0.3536059 0.07496577 0.008940398 0.06823974 0.0807324 0.004470169 0.4156421 0.2883301 0.004470169 0.3536059 0.0922656 0.05364257 0.3536059 0.0807324 0.004470169 0.4156421 0.1268652 0.7822876 0.4962891 -0.0230664 0.6928833 0.6265649 0.172998 0.6884131 0.5397143 0.1268652 0.7822876 0.4962891 -0.0230664 0.8135791 0.5211035 -0.0230664 0.6928833 0.6265649 -0.172998 0.7822876 0.4838818 -0.0230664 0.6928833 0.6265649 -0.0230664 0.8135791 0.5211035 -0.0230664 0.6928833 0.6265649 -0.172998 0.7822876 0.4838818 -0.2075976 0.6705322 0.5273072 -0.0807324 0.004470169 0.4156421 -0.2998633 0.004470169 0.3536059 -0.3344629 0.008940398 0.06823974 -0.07496577 0.008940398 0.06823974 -0.0807324 0.004470169 0.4156421 -0.3344629 0.008940398 0.06823974 -0.565127 0.3173853 0.1302759 -0.565127 0.008940398 0.04962885 -0.3632959 0.3263257 0.2419409 -0.3690625 -0.02682125 0.1364794 -0.3632959 0.3263257 0.2419409 -0.565127 0.008940398 0.04962885 0.5535938 0.004470169 0.0558325 0.5478272 0.3084448 0.1426831 0.3517627 0.3218554 0.2481445 0.3517627 0.3218554 0.2481445 0.3632959 -0.03129148 0.1426831 0.5535938 0.004470169 0.0558325 0.0807324 0.004470169 0.4156421 0.3229297 0.008940398 0.06823974 0.2883301 0.004470169 0.3536059 0.3229297 0.008940398 0.06823974 0.0807324 0.004470169 0.4156421 0.07496577 0.008940398 0.06823974</float_array>
          <technique_common>
            <accessor source="#polar-mesh-positions-array" count="540" stride="3">
              <param name="X" type="float"/>
              <param name="Y" type="float"/>
              <param name="Z" type="float"/>
            </accessor>
          </technique_common>
        </source>
        <source id="polar-mesh-normals">
          <float_array id="polar-mesh-normals-array" count="540">-0.6213161 0.04485881 0.782275 -0.2322276 0.7086119 0.666288 0.05686306 -0.7304924 -0.6805494 -0.5335457 -0.2700841 -0.8014884 -0.04105526 -0.1522663 0.9874864 -0.5016791 -0.1318299 0.8549497 0.6250281 0.6277149 -0.4640193 -0.02218651 0.8371505 -0.5465224 -0.07742285 0.7990093 -0.5963135 -0.03514963 0.3627544 -0.9312217 0.4836547 -0.2441394 0.8405202 0.5873763 -0.5745343 0.5699996 -0.5252836 0.5929163 -0.6103503 0.4923574 -0.8650285 -0.09648865 -0.9481498 -0.2001003 0.2469246 -0.7874954 -0.3831422 -0.4827557 -0.7206428 -0.0213707 -0.6929771 0.3326051 -0.237005 0.9127994 -0.4489975 -0.1737641 -0.8764744 -0.02670592 -0.4478666 0.8937016 -0.5039647 0.09168487 0.8588443 -0.3651366 -0.2544391 0.895509 -0.6014953 -0.558538 0.5711731 0.6066163 -0.5051825 0.6138464 0.05719947 -0.9920326 -0.1122478 -0.05521345 0.9971547 0.05132424 0.1274368 -0.9917536 -0.01359367 0.7135757 -0.6581205 -0.2401816 0.8457206 -0.330501 -0.418958 0.766749 0.03491014 -0.640997 -0.5062245 -0.6570688 0.5585673 -0.4094074 -0.9052118 -0.1139175 -0.9352977 0.1136777 -0.3351054 0.6511557 -0.4464327 0.6137542 0.9200463 -0.3099461 0.2396836 -0.9887772 0.1328993 -0.06824618 -0.8111898 0.5583801 -0.173732 0.4326525 -0.7712767 0.466845 0.4525771 -0.7757148 0.4398187 0.4299106 0.7956817 -0.4266939 0.4102663 0.7934779 -0.449527 -0.8320519 -0.5410625 0.1222326 -0.95622 -0.2904256 0.03600454 0.9160112 0.3826326 -0.1204821 0.6664652 0.5152868 -0.5387985 0.6315159 0.7232195 0.2795377 0.02834707 0.9995194 0.01254743 0.9119789 0.3468016 -0.2191424 -0.3469818 -0.8703515 0.3494165 -0.160768 -0.9581482 0.2368668 -0.9062131 0.1234219 -0.4044068 -0.4545838 0.7278748 -0.5133731 -0.1352061 0.9562836 -0.259309 0.8449412 -0.5344933 -0.01978105 0.8236736 -0.3560802 0.4413263 -0.03762543 0.9626451 -0.2681396 -0.01479822 0.9735607 -0.2279487 -0.8120293 -0.404537 0.4206644 0.7777624 0.6256422 0.06047683 0.9410797 0.07707917 -0.3292841 0.02443021 0.6933309 -0.7202053 -0.01041859 0.6854292 -0.7280648 0 -0.6791122 0.7340345 0 -0.5513307 0.8342869 -0.6431013 0.6914932 -0.3290257 0.6086541 -0.7446271 0.2739905 -0.6086541 -0.7446271 0.2739905 -0.6431012 -0.6914933 0.3290258 -0.7707621 -0.5086917 0.3836128 0 0.03467345 0.9993987 0.6429763 -0.4768733 0.5993108 -0.9858263 0.1158558 0.1213427 -0.967712 -0.2513186 -0.01929718 0.1787394 -0.7546084 -0.6313625 -0.04200506 0.1773387 0.9832531 0.9860355 -0.1446973 0.08244329 -0.004330992 -0.1229167 -0.9924076 0.5271061 -0.3744137 -0.762872 -0.7773612 -0.06366974 0.625824 0.9620457 -0.2534224 -0.1012192 0.9113566 0.2264585 0.3437235 -0.8269916 -0.2263506 0.5146361 -0.9140655 0.07451367 0.3986625 -0.9375854 0.3380818 0.08145236 0.519376 -0.7776479 0.3542774 0.3539303 -0.8439655 0.4030578 -0.4493628 0.7837219 -0.4287809 -0.4303165 -0.7919057 0.4332587 -0.3540733 -0.8412569 0.4085572 0.5202139 0.7756558 -0.3574013 0.9143546 0.2326585 0.3313998 0.929123 0.3696637 -0.008903741 -0.9673481 -0.2481984 -0.05133599 -0.9108166 0.2401379 0.3357781 -0.8313767 0.2870486 -0.4758317 -0.6959187 0.7149957 -0.06692004 0.6944084 -0.7191783 0.02407693 0.01991766 0.182305 -0.9830403 0.9525918 -0.1709952 -0.2516536 0.05817556 -0.9541676 -0.2935639 -0.3463641 -0.7264477 0.5935535 -0.8523132 -0.5165703 -0.08195918 0.8020036 0.2101515 -0.5591303 -0.7838301 -0.2306265 0.5765603 -0.5639324 -0.5495817 0.6163929 0.5667545 0.5478335 -0.61536 -0.35372 -0.7712118 0.5292585 -0.35372 0.7712118 -0.5292585 -0.5586198 0.5588291 -0.6129062 0.5636805 -0.5556973 0.6111177 -0.7874838 0.2266032 -0.573167 0.7710433 -0.2443661 0.5880286 0.8308172 -0.5507814 -0.07989215 -0.6959187 -0.7149957 0.0669201 -0.6944084 -0.7191783 0.02407693 0.01672607 -0.1854774 0.9825062 0.9416645 0.1625262 0.2947088 -0.8345993 0.04918032 -0.5486579 0.9816086 0.03973287 -0.1867241 0.2291724 0.8457072 -0.481933 0.07065099 0.9569689 0.2814591 0.26556 -0.7458559 0.6108821 0.8165137 -0.1460402 0.5585496 -0.06944394 -0.9678497 -0.2417534 -0.1195032 -0.8757389 -0.4677612 -0.7324337 0 -0.6808384 0.8377237 0.02396696 0.5455682 0.2050423 0.9257688 0.3176631 -0.4469686 -0.8520756 -0.2723717 -0.5274944 -0.4646447 -0.7112349 0.2048683 0.305576 0.9298668 0.7254109 -0.03029501 0.6876491 0.6528002 0.6953252 0.3006239 0.192987 0.7075526 -0.679798 0.1967287 0.9637038 0.1804797 -0.07138943 -0.9928766 -0.09539318 0.03473228 0.9983186 0.0464105 0.01791673 -0.9987609 -0.04643106 0.05471539 -0.9939252 -0.09549391 -0.1672412 0.9708396 0.1717581 0.1232739 -0.7156084 0.6875378 -0.6458459 0.7007754 0.3029803 -0.7446022 -0.02937918 0.6668617 -0.1796033 0.3333073 0.9255533 -0.519452 0.4908528 0.699452 -0.4588897 0.8429493 0.2808145 0.2426121 -0.9142974 -0.3243451 0.8534902 -0.02915173 -0.5202929 -0.7466418 0.003077328 0.6652193 0.8394485 0.1639591 -0.5181156 -0.208521 0.8435424 -0.4949297 0.9617379 -0.04908406 0.2695384 0.07541579 -0.9693338 -0.2338901 -0.8575068 -0.04452866 0.512542 0.1426312 -0.853507 -0.5011807 0.6645783 0.4508467 -0.59588 0 -0.03467351 -0.9993988 0.770762 -0.5086916 0.3836127 -0.9860355 -0.1446974 0.08244329 -0.04457181 -0.177721 -0.983071 0.004538118 -0.12294 -0.9924038 -0.02526044 0.6843113 -0.7287523 0.9387918 -0.08102256 0.3348216 0.7539759 -0.05731886 0.6543965 0.521489 0.3576504 0.7746842 -0.9898046 -0.07484376 -0.1211826 -0.967712 0.2513186 0.01929718 0.1886563 0.7522271 0.6313187 0.3534728 0.53021 0.7706714 0.2534043 0.6365072 0.7284537 -0.308458 0.6258989 0.716313 -0.4658499 0.4420781 0.7665186 0.004591703 -0.999858 -0.01621937 0 -0.9999173 -0.01286649 -0.4641814 -0.2240565 0.8569331 -0.4299908 -0.2518888 0.8669832 0.4474515 -0.2378292 0.8621047 0.4402081 -0.2436997 0.8641918 -0.004856407 -0.9998562 -0.01625144 0 -0.9999173 -0.01286649</float_array>
          <technique_common>
            <accessor source="#polar-mesh-normals-array" count="180" stride="3">
              <param name="X" type="float"/>
              <param name="Y" type="float"/>
              <param name="Z" type="float"/>
            </accessor>
          </technique_common>
        </source>
        <source id="polar-mesh-map-0">
          <float_array id="polar-mesh-map-0-array" count="1080">0 0 0 0 0 0 0 0 0 0 0 0 0 0 0 0 0 0 0 0 0 0 0 0 0 0 0 0 0 0 0 0 0 0 0 0 0 0 0 0 0 0 0 0 0 0 0 0 0 0 0 0 0 0 0 0 0 0 0 0 0 0 0 0 0 0 0 0 0 0 0 0 0 0 0 0 0 0 0 0 0 0 0 0 0 0 0 0 0 0 0 0 0 0 0 0 0 0 0 0 0 0 0 0 0 0 0 0 0 0 0 0 0 0 0 0 0 0 0 0 0 0 0 0 0 0 0 0 0 0 0 0 0 0 0 0 0 0 0 0 0 0 0 0 0 0 0 0 0 0 0 0 0 0 0 0 0 0 0 0 0 0 0 0 0 0 0 0 0 0 0 0 0 0 0 0 0 0 0 0 0 0 0 0 0 0 0 0 0 0 0 0 0 0 0 0 0 0 0 0 0 0 0 0 0 0 0 0 0 0 0 0 0 0 0 0 0 0 0 0 0 0 0 0 0 0 0 0 0 0 0 0 0 0 0 0 0 0 0 0 0 0 0 0 0 0 0 0 0 0 0 0 0 0 0 0 0 0 0 0 0 0 0 0 0 0 0 0 0 0 0 0 0 0 0 0 0 0 0 0 0 0 0 0 0 0 0 0 0 0 0 0 0 0 0 0 0 0 0 0 0 0 0 0 0 0 0 0 0 0 0 0 0 0 0 0 0 0 0 0 0 0 0 0 0 0 0 0 0 0 0 0 0 0 0 0 0 0 0 0 0 0 0 0 0 0 0 0 0 0 0 0 0 0 0 0 0 0 0 0 0 0 0 0 0 0 0 0 0 0 0 0 0 0 0 0 0 0 0 0 0 0 0 0 0 0 0 0 0 0 0 0 0 0 0 0 0 0 0 0 0 0 0 0 0 0 0 0 0 0 0 0 0 0 0 0 0 0 0 0 0 0 0 0 0 0 0 0 0 0 0 0 0 0 0 0 0 0 0 0 0 0 0 0 0 0 0 0 0 0 0 0 0 0 0 0 0 0 0 0 0 0 0 0 0 0 0 0 0 0 0 0 0 0 0 0 0 0 0 0 0 0 0 0 0 0 0 0 0 0 0 0 0 0 0 0 0 0 0 0 0 0 0 0 0 0 0 0 0 0 0 0 0 0 0 0 0 0 0 0 0 0 0 0 0 0 0 0 0 0 0 0 0 0 0 0 0 0 0 0 0 0 0 0 0 0 0 0 0 0 0 0 0 0 0 0 0 0 0 0 0 0 0 0 0 0 0 0 0 0 0 0 0 0 0 0 0 0 0 0 0 0 0 0 0 0 0 0 0 0 0 0 0 0 0 0 0 0 0 0 0 0 0 0 0 0 0 0 0 0 0 0 0 0 0 0 0 0 0 0 0 0 0 0 0 0 0 0 0 0 0 0 0 0 0 0 0 0 0 0 0 0 0 0 0 0 0 0 0 0 0 0 0 0 0 0 0 0 0 0 0 0 0 0 0 0 0 0 0 0 0 0 0 0 0 0 0 0 0 0 0 0 0 0 0 0 0 0 0 0 0 0 0 0 0 0 0 0 0 0 0 0 0 0 0 0 0 0 0 0 0 0 0 0 0 0 0 0 0 0 0 0 0 0 0 0 0 0 0 0 0 0 0 0 0 0 0 0 0 0 0 0 0 0 0 0 0 0 0 0 0 0 0 0 0 0 0 0 0 0 0 0 0 0 0 0 0 0 0 0 0 0 0 0 0 0 0 0 0 0 0 0 0 0 0 0 0 0 0 0 0 0 0 0 0 0 0 0 0 0 0 0 0 0 0 0 0 0 0 0 0 0 0 0 0 0 0 0 0 0 0 0 0 0 0 0 0 0 0 0 0 0 0 0 0 0 0 0 0 0 0 0 0 0 0 0 0 0 0 0 0 0 0 0 0 0 0 0 0 0 0 0 0 0 0 0 0 0 0 0 0 0 0 0 0 0 0 0 0 0 0 0 0 0 0 0 0 0 0 0 0 0 0 0 0 0 0 0 0 0 0 0 0 0 0 0 0 0 0 0 0 0 0 0 0 0 0 0 0 0 0 0 0 0 0 0 0 0 0 0 0 0 0 0 0 0 0 0 0 0 0 0 0 0 0 0 0 0 0 0 0 0 0 0 0 0 0 0 0 0 0 0 0 0 0 0 0 0 0 0 0 0 0 0 0 0 0 0 0 0 0 0 0 0 0 0 0 0 0 0 0 0 0 0 0 0 0 0 0 0 0 0 0 0 0 0 0 0 0.015625 1 0 0 0.015625 0 0.015625 1 0 1 0 0 0 1 0.015625 0 0.015625 1 0.015625 0 0 1 0 0 1 1 0 1 0 0 1 0 1 1 0 0 0 1 0 0 1 1 1 0 1 1 0 0 1 0 1 1 0 1 0 1 0 0 1 0 0 1 1 0 1 1 1 0 0 1 0 0</float_array>
          <technique_common>
            <accessor source="#polar-mesh-map-0-array" count="540" stride="2">
              <param name="S" type="float"/>
              <param name="T" type="float"/>
            </accessor>
          </technique_common>
        </source>
        <source id="polar-mesh-colors-Col" name="Col">
          <float_array id="polar-mesh-colors-Col-array" count="2160">0.427451 0.3568627 0.2862745 1 0.654902 0.654902 0.5843138 1 0.3411765 0.2862745 0.172549 1 0.427451 0.3568627 0.2862745 1 0.3411765 0.2862745 0.172549 1 0.654902 0.654902 0.5843138 1 0.427451 0.3568627 0.2862745 1 0.3411765 0.2862745 0.172549 1 0.654902 0.654902 0.5843138 1 0.427451 0.3568627 0.2862745 1 0.654902 0.654902 0.5843138 1 0.3411765 0.2862745 0.172549 1 0.3647059 0 0 1 0.3647059 0 0 1 0 0 0 1 0.2862745 0.2862745 0.4313725 1 0 0 0 1 0 0 0 1 0.4313725 0.4313725 0.2862745 1 0.5568628 0.5568628 0.4431372 1 0.654902 0.654902 0.5843138 1 0.4313725 0.4313725 0.2862745 1 0.4313725 0.4313725 0.2862745 1 0.654902 0.654902 0.5843138 1 0.654902 0.654902 0.5843138 1 0.4313725 0.4313725 0.2862745 1 0.654902 0.654902 0.5843138 1 0.3647059 0 0 1 0 0 0 1 0 0 0 1 0.2862745 0.2862745 0.4313725 1 0 0 0 1 0 0 0 1 0.4313725 0.4313725 0.2862745 1 0.5568628 0.5568628 0.4431372 1 0.654902 0.654902 0.5843138 1 0.6901961 0.6901961 0.654902 1 0.4313725 0.4313725 0.2862745 1 0.5568628 0.5568628 0.4431372 1 0.4980392 0.4980392 0.3686274 1 0.6901961 0.6901961 0.654902 1 0.4313725 0.4313725 0.2862745 1 0.7254902 0.7254902 0.7254902 1 0.4980392 0.4980392 0.3686274 1 0.6901961 0.6901961 0.654902 1 0.6901961 0.6901961 0.654902 1 0.7254902 0.7254902 0.7254902 1 0.6901961 0.6901961 0.654902 1 0.5568628 0.5568628 0.4431372 1 0.6901961 0.6901961 0.654902 1 0.6901961 0.6901961 0.654902 1 0.4980392 0.4980392 0.3686274 1 0.5568628 0.5568628 0.4431372 1 0.6901961 0.6901961 0.654902 1 0.5843138 0.5843138 0.654902 1 0.4980392 0.4980392 0.3686274 1 0.5568628 0.5568628 0.4431372 1 0.654902 0.654902 0.5843138 1 0.5843138 0.5843138 0.654902 1 0.4980392 0.4980392 0.3686274 1 0.5568628 0.5568628 0.4431372 1 0.654902 0.654902 0.5843138 1 0.4980392 0.4980392 0.3686274 1 0.6901961 0.6901961 0.654902 1 0.5568628 0.5568628 0.4431372 1 0.4980392 0.4980392 0.3686274 1 0 0 0 1 0 0 0 1 0 0 0.3647059 1 0 0 0 1 0 0 0.3647059 1 0 0 0.1843137 1 0 0 0.3647059 1 0 0 0.1843137 1 0 0 0 1 0.5686275 0.5686275 0.4549019 1 0.6901961 0.6901961 0.654902 1 0.6901961 0.6901961 0.654902 1 0.5686275 0.5686275 0.4549019 1 0.5686275 0.5686275 0.4549019 1 0.6901961 0.6901961 0.654902 1 0.7254902 0.7254902 0.7254902 1 0.5686275 0.5686275 0.4549019 1 0.6901961 0.6901961 0.654902 1 0.6901961 0.6901961 0.654902 1 0.7254902 0.7254902 0.7254902 1 0.6901961 0.6901961 0.654902 1 0.5568628 0.5568628 0.4431372 1 0.6901961 0.6901961 0.654902 1 0.6901961 0.6901961 0.654902 1 0.4313725 0.4313725 0.2862745 1 0.5568628 0.5568628 0.4431372 1 0.6901961 0.6901961 0.654902 1 0.4980392 0.4980392 0.3686274 1 0.4313725 0.4313725 0.2862745 1 0.6901961 0.6901961 0.654902 1 0.7254902 0.7254902 0.7254902 1 0.4980392 0.4980392 0.3686274 1 0.6901961 0.6901961 0.654902 1 0.5686275 0.5686275 0.4549019 1 0.7254902 0.7254902 0.7254902 1 0.4980392 0.4980392 0.3686274 1 0.654902 0.654902 0.5843138 1 0.5686275 0.5686275 0.4549019 1 0.4980392 0.4980392 0.3686274 1 0.654902 0.654902 0.5843138 1 0.654902 0.654902 0.5843138 1 0.5686275 0.5686275 0.4549019 1 0.654902 0.654902 0.5843138 1 0.654902 0.654902 0.5843138 1 0.5686275 0.5686275 0.4549019 1 0.6901961 0.6901961 0.654902 1 0.654902 0.654902 0.5843138 1 0.654902 0.654902 0.5843138 1 0.7254902 0.7254902 0.7254902 1 0.6901961 0.6901961 0.654902 1 0.654902 0.654902 0.5843138 1 0.654902 0.654902 0.5843138 1 0.7254902 0.7254902 0.7254902 1 0.6901961 0.6901961 0.654902 1 0.654902 0.654902 0.5843138 1 0.654902 0.654902 0.5843138 1 0.6901961 0.6901961 0.654902 1 0.5686275 0.5686275 0.4549019 1 0.654902 0.654902 0.5843138 1 0.654902 0.654902 0.5843138 1 0.654902 0.654902 0.5843138 1 0.5686275 0.5686275 0.4549019 1 0.654902 0.654902 0.5843138 1 0.4980392 0.4980392 0.3686274 1 0.654902 0.654902 0.5843138 1 0.5686275 0.5686275 0.4549019 1 0.7254902 0.7254902 0.7254902 1 0.4980392 0.4980392 0.3686274 1 0.5686275 0.5686275 0.4549019 1 0.6901961 0.6901961 0.654902 1 0.7254902 0.7254902 0.7254902 1 0.5686275 0.5686275 0.4549019 1 0.5686275 0.5686275 0.4549019 1 0.6901961 0.6901961 0.654902 1 0.5686275 0.5686275 0.4549019 1 0.654902 0.654902 0.5843138 1 0.654902 0.654902 0.5843138 1 0.5686275 0.5686275 0.4549019 1 0.6901961 0.6901961 0.654902 1 0.654902 0.654902 0.5843138 1 0.654902 0.654902 0.5843138 1 0.7254902 0.7254902 0.7254902 1 0.6901961 0.6901961 0.654902 1 0.654902 0.654902 0.5843138 1 0.654902 0.654902 0.5843138 1 0.5686275 0.5686275 0.4549019 1 0.654902 0.654902 0.5843138 1 0.6901961 0.6901961 0.654902 1 0.654902 0.654902 0.5843138 1 0.654902 0.654902 0.5843138 1 0.7254902 0.7254902 0.7254902 1 0.6901961 0.6901961 0.654902 1 0.654902 0.654902 0.5843138 1 0.654902 0.654902 0.5843138 1 0.4980392 0.4980392 0.3686274 1 0.3411765 0.3411765 0.172549 1 0.4313725 0.4313725 0.2862745 1 0.3411765 0.3411765 0.172549 1 0.4980392 0.4980392 0.3686274 1 0.4313725 0.4313725 0.2862745 1 0.4313725 0.4313725 0.2862745 1 0.3411765 0.3411765 0.172549 1 0.3411765 0.3411765 0.172549 1 0.4313725 0.4313725 0.2862745 1 0.3411765 0.3411765 0.172549 1 0.4980392 0.4980392 0.3686274 1 0.3411765 0.3411765 0.172549 1 0.4313725 0.4313725 0.2862745 1 0.654902 0.654902 0.5843138 1 0.4980392 0.4980392 0.3686274 1 0.3411765 0.3411765 0.172549 1 0.7254902 0.7254902 0.7254902 1 0.654902 0.654902 0.5843138 1 0.3411765 0.3411765 0.172549 1 0.4980392 0.4980392 0.3686274 1 0.7254902 0.7254902 0.7254902 1 0.3411765 0.3411765 0.172549 1 0.3411765 0.3411765 0.172549 1 0.4980392 0.4980392 0.3686274 1 0.3411765 0.3411765 0.172549 1 0.4980392 0.4980392 0.3686274 1 0.3411765 0.3411765 0.172549 1 0.4980392 0.4980392 0.3686274 1 0.1843137 0.1843137 0 1 0.4980392 0.4980392 0.3686274 1 0.4980392 0.4980392 0.3686274 1 0.4980392 0.4980392 0.3686274 1 0.1843137 0.1843137 0 1 0.4980392 0.4980392 0.3686274 1 0.2627451 0.2627451 0.0862745 1 0.4980392 0.4980392 0.3686274 1 0.1843137 0.1843137 0 1 0.4980392 0.4980392 0.3686274 1 0.2627451 0.2627451 0.0862745 1 0.1843137 0.1843137 0 1 0.4980392 0.4980392 0.3686274 1 0.4980392 0.4980392 0.3686274 1 0.1843137 0.1843137 0 1 0.1843137 0.1843137 0 1 0.4980392 0.4980392 0.3686274 1 0.3411765 0.3411765 0.172549 1 0.3411765 0.3411765 0.172549 1 0.1843137 0.1843137 0 1 0.3411765 0.3411765 0.172549 1 0.654902 0.654902 0.5843138 1 0.3411765 0.3411765 0.172549 1 0.3411765 0.3411765 0.172549 1 0.654902 0.654902 0.5843138 1 0.654902 0.654902 0.5843138 1 0.3411765 0.3411765 0.172549 1 0.654902 0.654902 0.5843138 1 0.1843137 0.1843137 0 1 0.7254902 0.7254902 0.7254902 1 0.654902 0.654902 0.5843138 1 0.654902 0.654902 0.5843138 1 0.7254902 0.7254902 0.7254902 1 0.4980392 0.4980392 0.3686274 1 0.654902 0.654902 0.5843138 1 0.4980392 0.4980392 0.3686274 1 0.1843137 0.1843137 0 1 0.4980392 0.4980392 0.3686274 1 0.4980392 0.4980392 0.3686274 1 0.4980392 0.4980392 0.3686274 1 0.654902 0.654902 0.5843138 1 0.7254902 0.7254902 0.7254902 1 0.654902 0.654902 0.5843138 1 0.7254902 0.7254902 0.7254902 1 0.654902 0.654902 0.5843138 1 0.654902 0.654902 0.5843138 1 0.654902 0.654902 0.5843138 1 0.7254902 0.7254902 0.7254902 1 0.5568628 0.5568628 0.4431372 1 0.654902 0.654902 0.5843138 1 0.654902 0.654902 0.5843138 1 0.3411765 0.3411765 0.172549 1 0.5568628 0.5568628 0.4431372 1 0.654902 0.654902 0.5843138 1 0.5568628 0.5568628 0.4431372 1 0.4980392 0.4980392 0.3686274 1 0.5568628 0.5568628 0.4431372 1 0.654902 0.654902 0.5843138 1 0.5568628 0.5568628 0.4431372 1 0.5568628 0.5568628 0.4431372 1 0.654902 0.654902 0.5843138 1 0.654902 0.654902 0.5843138 1 0.5568628 0.5568628 0.4431372 1 0.5568628 0.5568628 0.4431372 1 0.654902 0.654902 0.5843138 1 0.654902 0.654902 0.5843138 1 0.7254902 0.7254902 0.7254902 1 0.654902 0.654902 0.5843138 1 0.654902 0.654902 0.5843138 1 0.7254902 0.7254902 0.7254902 1 0.7254902 0.7254902 0.7254902 1 0.654902 0.654902 0.5843138 1 0.654902 0.654902 0.5843138 1 0.7254902 0.7254902 0.7254902 1 0.7254902 0.7254902 0.7254902 1 0.654902 0.654902 0.5843138 1 0.654902 0.654902 0.5843138 1 0.7254902 0.7254902 0.7254902 1 0.5568628 0.5568628 0.427451 1 0.654902 0.654902 0.5843138 1 0.654902 0.654902 0.5843138 1 0.5568628 0.5568628 0.4431372 1 0.5568628 0.5568628 0.427451 1 0.654902 0.654902 0.5843138 1 0.654902 0.654902 0.5843138 1 0.5568628 0.5568628 0.4431372 1 0.654902 0.654902 0.5843138 1 0.654902 0.654902 0.5843138 1 0.654902 0.654902 0.5843138 1 0.5568628 0.5568628 0.4431372 1 0.3411765 0.3411765 0.172549 1 0.654902 0.654902 0.5843138 1 0.5568628 0.5568628 0.4431372 1 0.5568628 0.5568628 0.427451 1 0.4980392 0.4980392 0.3686274 1 0.5568628 0.5568628 0.4431372 1 0.4313725 0.4313725 0.2862745 1 0.5568628 0.5568628 0.427451 1 0.4980392 0.4980392 0.3686274 1 0.2627451 0.2627451 0.0862745 1 0.4313725 0.4313725 0.2862745 1 0.4980392 0.4980392 0.3686274 1 0.3411765 0.3411765 0.172549 1 0.2627451 0.2627451 0.0862745 1 0.4313725 0.4313725 0.2862745 1 0.5568628 0.5568628 0.4431372 1 0.5568628 0.5568628 0.427451 1 0.4313725 0.4313725 0.2862745 1 0.7254902 0.7254902 0.7254902 1 0.5568628 0.5568628 0.4431372 1 0.6901961 0.6901961 0.654902 1 0.654902 0.654902 0.5843138 1 0.7254902 0.7254902 0.7254902 1 0.6901961 0.6901961 0.654902 1 0.5568628 0.5568628 0.427451 1 0.654902 0.654902 0.5843138 1 0.6901961 0.6901961 0.654902 1 0.654902 0.654902 0.5843138 1 0.5568628 0.5568628 0.427451 1 0.654902 0.654902 0.5843138 1 0.654902 0.654902 0.5843138 1 0.654902 0.654902 0.5843138 1 0.5568628 0.5568628 0.427451 1 0.654902 0.654902 0.5843138 1 0.654902 0.654902 0.5843138 1 0.5568628 0.5568628 0.427451 1 0.7254902 0.7254902 0.7254902 1 0.654902 0.654902 0.5843138 1 0.654902 0.654902 0.5843138 1 0.7254902 0.7254902 0.7254902 1 0.7254902 0.7254902 0.7254902 1 0.654902 0.654902 0.5843138 1 0.654902 0.654902 0.5843138 1 0.7254902 0.7254902 0.7254902 1 0.7254902 0.7254902 0.7254902 1 0.654902 0.654902 0.5843138 1 0.654902 0.654902 0.5843138 1 0.7254902 0.7254902 0.7254902 1 0.5568628 0.5568628 0.4431372 1 0.654902 0.654902 0.5843138 1 0.654902 0.654902 0.5843138 1 0.654902 0.654902 0.5843138 1 0.5568628 0.5568628 0.4431372 1 0.654902 0.654902 0.5843138 1 0.654902 0.654902 0.5843138 1 0.654902 0.654902 0.5843138 1 0.5568628 0.5568628 0.4431372 1 0.7254902 0.7254902 0.7254902 1 0.654902 0.654902 0.5843138 1 0.5568628 0.5568628 0.4431372 1 0.4980392 0.4980392 0.3686274 1 0.4313725 0.4313725 0.2862745 1 0.5568628 0.5568628 0.4431372 1 0.2627451 0.2627451 0.0862745 1 0.4980392 0.4980392 0.3686274 1 0.4313725 0.4313725 0.2862745 1 0.3411765 0.3411765 0.172549 1 0.2627451 0.2627451 0.0862745 1 0.4313725 0.4313725 0.2862745 1 0.5568628 0.5568628 0.4431372 1 0.5568628 0.5568628 0.427451 1 0.4313725 0.4313725 0.2862745 1 0.1843137 0.1843137 0 1 0.5568628 0.5568628 0.4431372 1 0.5568628 0.5568628 0.427451 1 0.7254902 0.7254902 0.7254902 1 0.1843137 0.1843137 0 1 0.5843138 0.5843138 0.654902 1 0.7254902 0.7254902 0.7254902 1 0.7254902 0.7254902 0.7254902 1 0.5843138 0.5843138 0.654902 1 0.7254902 0.7254902 0.7254902 1 0.7254902 0.7254902 0.7254902 1 0.5568628 0.5568628 0.4431372 1 0.654902 0.654902 0.5843138 1 0.7254902 0.7254902 0.7254902 1 0.7254902 0.7254902 0.7254902 1 0.5568628 0.5568628 0.427451 1 0.654902 0.654902 0.5843138 1 0.7254902 0.7254902 0.7254902 1 0.5568628 0.5568628 0.427451 1 0.1843137 0.1843137 0 1 0.5568628 0.5568628 0.427451 1 0.5568628 0.5568628 0.427451 1 0.5568628 0.5568628 0.427451 1 0.5568628 0.5568628 0.427451 1 0.654902 0.654902 0.5843138 1 0.5568628 0.5568628 0.427451 1 0.5568628 0.5568628 0.427451 1 0.654902 0.654902 0.5843138 1 0.654902 0.654902 0.5843138 1 0.5568628 0.5568628 0.427451 1 0.5568628 0.5568628 0.427451 1 0.654902 0.654902 0.5843138 1 0.5568628 0.5568628 0.427451 1 0.5568628 0.5568628 0.4431372 1 0.5568628 0.5568628 0.427451 1 0.654902 0.654902 0.5843138 1 0.654902 0.654902 0.5843138 1 0.5568628 0.5568628 0.4431372 1 0.654902 0.654902 0.5843138 1 0.7254902 0.7254902 0.7254902 1 0.654902 0.654902 0.5843138 1 0.5568628 0.5568628 0.4431372 1 0.6901961 0.6901961 0.654902 1 0.7254902 0.7254902 0.7254902 1 0.6039216 0.6039216 0.5137255 1 0.4980392 0.4980392 0.3686274 1 0.6901961 0.6901961 0.654902 1 0.6039216 0.6039216 0.5137255 1 0.3411765 0.3411765 0.172549 1 0.4980392 0.4980392 0.3686274 1 0.5568628 0.5568628 0.4431372 1 0.5568628 0.5568628 0.427451 1 0.4980392 0.4980392 0.3686274 1 0.5568628 0.5568628 0.4431372 1 0.4313725 0.4313725 0.2862745 1 0.3411765 0.3411765 0.172549 1 0.4980392 0.4980392 0.3686274 1 0.2627451 0.2627451 0.0862745 1 0.4313725 0.4313725 0.2862745 1 0.3411765 0.3411765 0.172549 1 0.3411765 0.3411765 0.172549 1 0.2627451 0.2627451 0.0862745 1 0.4313725 0.4313725 0.2862745 1 0.4980392 0.4980392 0.3686274 1 0.3411765 0.3411765 0.172549 1 0.4313725 0.4313725 0.2862745 1 0.5568628 0.5568628 0.427451 1 0.4980392 0.4980392 0.3686274 1 0.5568628 0.5568628 0.427451 1 0.4980392 0.4980392 0.3686274 1 0.5568628 0.5568628 0.427451 1 0.3411765 0.3411765 0.172549 1 0.6901961 0.6901961 0.654902 1 0.4980392 0.4980392 0.3686274 1 0.6039216 0.6039216 0.5137255 1 0.7254902 0.7254902 0.7254902 1 0.6901961 0.6901961 0.654902 1 0.6039216 0.6039216 0.5137255 1 0.654902 0.654902 0.5843138 1 0.7254902 0.7254902 0.7254902 1 0.5568628 0.5568628 0.427451 1 0.654902 0.654902 0.5843138 1 0.654902 0.654902 0.5843138 1 0.5568628 0.5568628 0.427451 1 0.5568628 0.5568628 0.427451 1 0.654902 0.654902 0.5843138 1 0.5568628 0.5568628 0.427451 1 0.4313725 0.4313725 0.2862745 1 0.5568628 0.5568628 0.427451 1 0.654902 0.654902 0.5843138 1 0.654902 0.654902 0.5843138 1 0.4313725 0.4313725 0.2862745 1 0.654902 0.654902 0.5843138 1 0.4313725 0.4313725 0.2862745 1 0.654902 0.654902 0.5843138 1 0.4313725 0.4313725 0.2862745 1 0.7254902 0.7254902 0.7254902 1 0.4313725 0.4313725 0.2862745 1 0.654902 0.654902 0.5843138 1 0.654902 0.654902 0.5843138 1 0.7254902 0.7254902 0.7254902 1 0.7254902 0.7254902 0.7254902 1 0.1843137 0.1843137 0 1 0.654902 0.654902 0.5843138 1 0.7254902 0.7254902 0.7254902 1 0.5568628 0.5568628 0.427451 1 0.4313725 0.4313725 0.2862745 1 0.1843137 0.1843137 0 1 0.5568628 0.5568628 0.4431372 1 0.5568628 0.5568628 0.427451 1 0.1843137 0.1843137 0 1 0.4313725 0.4313725 0.2862745 1 0.5568628 0.5568628 0.427451 1 0.4313725 0.4313725 0.2862745 1 0.654902 0.654902 0.5843138 1 0.3411765 0.3411765 0.172549 1 0.3411765 0.3411765 0.172549 1 0.1843137 0.1843137 0 1 0.3411765 0.3411765 0.172549 1 0.3411765 0.3411765 0.172549 1 0.4980392 0.4980392 0.3686274 1 0.1843137 0.1843137 0 1 0.3411765 0.3411765 0.172549 1 0.4980392 0.4980392 0.3686274 1 0.4980392 0.4980392 0.3686274 1 0.1843137 0.1843137 0 1 0.654902 0.654902 0.5843138 1 0.4980392 0.4980392 0.3686274 1 0.4980392 0.4980392 0.3686274 1 0.7254902 0.7254902 0.7254902 1 0.654902 0.654902 0.5843138 1 0.4980392 0.4980392 0.3686274 1 0.3411765 0.3411765 0.172549 1 0.7254902 0.7254902 0.7254902 1 0.4980392 0.4980392 0.3686274 1 0.654902 0.654902 0.5843138 1 0.3411765 0.3411765 0.172549 1 0.7254902 0.7254902 0.7254902 1 0.654902 0.654902 0.5843138 1 0.654902 0.654902 0.5843138 1 0.7254902 0.7254902 0.7254902 1 0.654902 0.654902 0.5843138 1 0.654902 0.654902 0.5843138 1 0.7254902 0.7254902 0.7254902 1 0.3411765 0.3411765 0.172549 1 0.654902 0.654902 0.5843138 1 0.654902 0.654902 0.5843138 1 0.654902 0.654902 0.5843138 1 0.1843137 0.1843137 0 1 0.7254902 0.7254902 0.7254902 1 0.654902 0.654902 0.5843138 1 0.654902 0.654902 0.5843138 1 0.7254902 0.7254902 0.7254902 1 0.654902 0.654902 0.5843138 1 0.5686275 0.5686275 0.4549019 1 0.5686275 0.5686275 0.4549019 1 0.654902 0.654902 0.5843138 1 0.7254902 0.7254902 0.7254902 1 0.5686275 0.5686275 0.4549019 1 0.654902 0.654902 0.5843138 1 0.5686275 0.5686275 0.4549019 1 0.7254902 0.7254902 0.7254902 1 0.5686275 0.5686275 0.4549019 1 0.654902 0.654902 0.5843138 1 0.5686275 0.5686275 0.4549019 1 0.7254902 0.7254902 0.7254902 1 0.654902 0.654902 0.5843138 1 0.3411765 0.3411765 0.172549 1 0.1843137 0.1843137 0 1 0.7254902 0.7254902 0.7254902 1 0.3411765 0.3411765 0.172549 1 0.7254902 0.7254902 0.7254902 1 0.5568628 0.5568628 0.427451 1 0.7254902 0.7254902 0.7254902 1 0.1843137 0.1843137 0 1 0.7254902 0.7254902 0.7254902 1 0.5568628 0.5568628 0.427451 1 0.4313725 0.4313725 0.2862745 1 0.7254902 0.7254902 0.7254902 1 0.7254902 0.7254902 0.7254902 1 0.7254902 0.7254902 0.7254902 1 0.1843137 0.1843137 0 1 0.4313725 0.4313725 0.2862745 1 0.7254902 0.7254902 0.7254902 1 0.3411765 0.3411765 0.172549 1 0.654902 0.654902 0.5843138 1 0.3411765 0.3411765 0.172549 1 0.7254902 0.7254902 0.7254902 1 0.1843137 0.1843137 0 1</float_array>
          <technique_common>
            <accessor source="#polar-mesh-colors-Col-array" count="540" stride="4">
              <param name="R" type="float"/>
              <param name="G" type="float"/>
              <param name="B" type="float"/>
              <param name="A" type="float"/>
            </accessor>
          </technique_common>
        </source>
        <vertices id="polar-mesh-vertices">
          <input semantic="POSITION" source="#polar-mesh-positions"/>
        </vertices>
        <triangles material="notex-material" count="168">
          <input semantic="VERTEX" source="#polar-mesh-vertices" offset="0"/>
          <input semantic="NORMAL" source="#polar-mesh-normals" offset="1"/>
          <input semantic="TEXCOORD" source="#polar-mesh-map-0" offset="2" set="0"/>
          <input semantic="COLOR" source="#polar-mesh-colors-Col" offset="3" set="0"/>
          <p>0 0 0 0 1 0 1 1 2 0 2 2 3 1 3 3 4 1 4 4 5 1 5 5 6 2 6 6 7 2 7 7 8 2 8 8 9 3 9 9 10 3 10 10 11 3 11 11 12 4 12 12 13 4 13 13 14 4 14 14 15 5 15 15 16 5 16 16 17 5 17 17 18 6 18 18 19 6 19 19 20 6 20 20 21 7 21 21 22 7 22 22 23 7 23 23 24 8 24 24 25 8 25 25 26 8 26 26 27 9 27 27 28 9 28 28 29 9 29 29 30 10 30 30 31 10 31 31 32 10 32 32 33 11 33 33 34 11 34 34 35 11 35 35 36 12 36 36 37 12 37 37 38 12 38 38 39 13 39 39 40 13 40 40 41 13 41 41 42 14 42 42 43 14 43 43 44 14 44 44 45 15 45 45 46 15 46 46 47 15 47 47 48 16 48 48 49 16 49 49 50 16 50 50 51 17 51 51 52 17 52 52 53 17 53 53 54 18 54 54 55 18 55 55 56 18 56 56 57 19 57 57 58 19 58 58 59 19 59 59 60 20 60 60 61 20 61 61 62 20 62 62 63 21 63 63 64 21 64 64 65 21 65 65 66 22 66 66 67 22 67 67 68 22 68 68 69 23 69 69 70 23 70 70 71 23 71 71 72 24 72 72 73 24 73 73 74 24 74 74 75 25 75 75 76 25 76 76 77 25 77 77 78 26 78 78 79 26 79 79 80 26 80 80 81 27 81 81 82 27 82 82 83 27 83 83 84 28 84 84 85 28 85 85 86 28 86 86 87 29 87 87 88 29 88 88 89 29 89 89 90 30 90 90 91 30 91 91 92 30 92 92 93 31 93 93 94 31 94 94 95 31 95 95 96 32 96 96 97 32 97 97 98 32 98 98 99 33 99 99 100 33 100 100 101 33 101 101 102 34 102 102 103 34 103 103 104 34 104 104 105 35 105 105 106 35 106 106 107 35 107 107 108 36 108 108 109 36 109 109 110 36 110 110 111 37 111 111 112 37 112 112 113 37 113 113 114 38 114 114 115 38 115 115 116 38 116 116 117 39 117 117 118 39 118 118 119 39 119 119 120 40 120 120 121 40 121 121 122 40 122 122 123 41 123 123 124 41 124 124 125 41 125 125 126 42 126 126 127 42 127 127 128 42 128 128 129 43 129 129 130 43 130 130 131 43 131 131 132 44 132 132 133 44 133 133 134 44 134 134 135 45 135 135 136 45 136 136 137 45 137 137 138 46 138 138 139 46 139 139 140 46 140 140 141 47 141 141 142 47 142 142 143 47 143 143 144 48 144 144 145 48 145 145 146 48 146 146 147 49 147 147 148 49 148 148 149 49 149 149 150 50 150 150 151 50 151 151 152 50 152 152 153 51 153 153 154 51 154 154 155 51 155 155 156 52 156 156 157 52 157 157 158 52 158 158 159 53 159 159 160 53 160 160 161 53 161 161 162 54 162 162 163 54 163 163 164 54 164 164 165 55 165 165 166 55 166 166 167 55 167 167 168 56 168 168 169 56 169 169 170 56 170 170 171 57 171 171 172 57 172 172 173 57 173 173 174 58 174 174 175 58 175 175 176 58 176 176 177 59 177 177 178 59 178 178 179 59 179 179 180 60 180 180 181 60 181 181 182 60 182 182 183 61 183 183 184 61 184 184 185 61 185 185 186 62 186 186 187 62 187 187 188 62 188 188 189 63 189 189 190 63 190 190 191 63 191 191 192 64 192 192 193 64 193 193 194 64 194 194 195 65 195 195 196 65 196 196 197 65 197 197 198 66 198 198 199 66 199 199 200 66 200 200 201 67 201 201 202 67 202 202 203 67 203 203 204 68 204 204 205 68 205 205 206 68 206 206 207 69 207 207 208 69 208 208 209 69 209 209 210 70 210 210 211 70 211 211 212 70 212 212 213 71 213 213 214 71 214 214 215 71 215 215 216 72 216 216 217 72 217 217 218 72 218 218 219 73 219 219 220 73 220 220 221 73 221 221 222 74 222 222 223 74 223 223 224 74 224 224 225 75 225 225 226 75 226 226 227 75 227 227 228 76 228 228 229 76 229 229 230 76 230 230 231 77 231 231 232 77 232 232 233 77 233 233 234 78 234 234 235 78 235 235 236 78 236 236 237 79 237 237 238 79 238 238 239 79 239 239 240 80 240 240 241 80 241 241 242 80 242 242 243 81 243 243 244 81 244 244 245 81 245 245 246 82 246 246 247 82 247 247 248 82 248 248 249 83 249 249 250 83 250 250 251 83 251 251 252 84 252 252 253 84 253 253 254 84 254 254 255 85 255 255 256 85 256 256 257 85 257 257 258 86 258 258 259 86 259 259 260 86 260 260 261 87 261 261 262 87 262 262 263 87 263 263 264 88 264 264 265 88 265 265 266 88 266 266 267 89 267 267 268 89 268 268 269 89 269 269 270 90 270 270 271 90 271 271 272 90 272 272 273 91 273 273 274 91 274 274 275 91 275 275 276 92 276 276 277 92 277 277 278 92 278 278 279 93 279 279 280 93 280 280 281 93 281 281 282 94 282 282 283 94 283 283 284 94 284 284 285 95 285 285 286 95 286 286 287 95 287 287 288 96 288 288 289 96 289 289 290 96 290 290 291 97 291 291 292 97 292 292 293 97 293 293 294 98 294 294 295 98 295 295 296 98 296 296 297 99 297 297 298 99 298 298 299 99 299 299 300 100 300 300 301 100 301 301 302 100 302 302 303 101 303 303 304 101 304 304 305 101 305 305 306 102 306 306 307 102 307 307 308 102 308 308 309 103 309 309 310 103 310 310 311 103 311 311 312 104 312 312 313 104 313 313 314 104 314 314 315 105 315 315 316 105 316 316 317 105 317 317 318 106 318 318 319 106 319 319 320 106 320 320 321 107 321 321 322 107 322 322 323 107 323 323 324 108 324 324 325 108 325 325 326 108 326 326 327 109 327 327 328 109 328 328 329 109 329 329 330 110 330 330 331 110 331 331 332 110 332 332 333 111 333 333 334 111 334 334 335 111 335 335 336 112 336 336 337 112 337 337 338 112 338 338 339 113 339 339 340 113 340 340 341 113 341 341 342 114 342 342 343 114 343 343 344 114 344 344 345 115 345 345 346 115 346 346 347 115 347 347 348 116 348 348 349 116 349 349 350 116 350 350 351 117 351 351 352 117 352 352 353 117 353 353 354 118 354 354 355 118 355 355 356 118 356 356 357 119 357 357 358 119 358 358 359 119 359 359 360 120 360 360 361 120 361 361 362 120 362 362 363 121 363 363 364 121 364 364 365 121 365 365 366 122 366 366 367 122 367 367 368 122 368 368 369 123 369 369 370 123 370 370 371 123 371 371 372 124 372 372 373 124 373 373 374 124 374 374 375 125 375 375 376 125 376 376 377 125 377 377 378 126 378 378 379 126 379 379 380 126 380 380 381 127 381 381 382 127 382 382 383 127 383 383 384 128 384 384 385 128 385 385 386 128 386 386 387 129 387 387 388 129 388 388 389 129 389 389 390 130 390 390 391 130 391 391 392 130 392 392 393 131 393 393 394 131 394 394 395 131 395 395 396 132 396 396 397 132 397 397 398 132 398 398 399 133 399 399 400 133 400 400 401 133 401 401 402 134 402 402 403 134 403 403 404 134 404 404 405 135 405 405 406 135 406 406 407 135 407 407 408 136 408 408 409 136 409 409 410 136 410 410 411 137 411 411 412 137 412 412 413 137 413 413 414 138 414 414 415 138 415 415 416 138 416 416 417 139 417 417 418 139 418 418 419 139 419 419 420 140 420 420 421 140 421 421 422 140 422 422 423 141 423 423 424 141 424 424 425 141 425 425 426 142 426 426 427 142 427 427 428 142 428 428 429 143 429 429 430 143 430 430 431 143 431 431 432 144 432 432 433 144 433 433 434 144 434 434 435 145 435 435 436 145 436 436 437 145 437 437 438 146 438 438 439 146 439 439 440 146 440 440 441 147 441 441 442 147 442 442 443 147 443 443 444 148 444 444 445 148 445 445 446 148 446 446 447 149 447 447 448 149 448 448 449 149 449 449 450 150 450 450 451 150 451 451 452 150 452 452 453 151 453 453 454 151 454 454 455 151 455 455 456 152 456 456 457 152 457 457 458 152 458 458 459 153 459 459 460 153 460 460 461 153 461 461 462 154 462 462 463 154 463 463 464 154 464 464 465 155 465 465 466 155 466 466 467 155 467 467 468 156 468 468 469 156 469 469 470 156 470 470 471 157 471 471 472 157 472 472 473 157 473 473 474 158 474 474 475 158 475 475 476 158 476 476 477 159 477 477 478 159 478 478 479 159 479 479 480 160 480 480 481 160 481 481 482 160 482 482 483 161 483 483 484 161 484 484 485 161 485 485 486 162 486 486 487 162 487 487 488 162 488 488 489 163 489 489 490 163 490 490 491 163 491 491 492 164 492 492 493 164 493 493 494 164 494 494 495 165 495 495 496 165 496 496 497 165 497 497 498 166 498 498 499 166 499 499 500 166 500 500 501 167 501 501 502 167 502 502 503 167 503 503</p>
        </triangles>
        <triangles material="texCr10T_x864y16_w16h16_cx12cy8_c0b3_a64x1-material" count="4">
          <input semantic="VERTEX" source="#polar-mesh-vertices" offset="0"/>
          <input semantic="NORMAL" source="#polar-mesh-normals" offset="1"/>
          <input semantic="TEXCOORD" source="#polar-mesh-map-0" offset="2" set="0"/>
          <input semantic="COLOR" source="#polar-mesh-colors-Col" offset="3" set="0"/>
          <p>504 168 504 504 505 168 505 505 506 168 506 506 507 169 507 507 508 169 508 508 509 169 509 509 510 170 510 510 511 170 511 511 512 170 512 512 513 171 513 513 514 171 514 514 515 171 515 515</p>
        </triangles>
        <triangles material="texCr10T_x912y16_w16h16_cx13cy8_c0b3-material" count="8">
          <input semantic="VERTEX" source="#polar-mesh-vertices" offset="0"/>
          <input semantic="NORMAL" source="#polar-mesh-normals" offset="1"/>
          <input semantic="TEXCOORD" source="#polar-mesh-map-0" offset="2" set="0"/>
          <input semantic="COLOR" source="#polar-mesh-colors-Col" offset="3" set="0"/>
          <p>516 172 516 516 517 172 517 517 518 172 518 518 519 173 519 519 520 173 520 520 521 173 521 521 522 174 522 522 523 174 523 523 524 174 524 524 525 175 525 525 526 175 526 526 527 175 527 527 528 176 528 528 529 176 529 529 530 176 530 530 531 177 531 531 532 177 532 532 533 177 533 533 534 178 534 534 535 178 535 535 536 178 536 536 537 179 537 537 538 179 538 538 539 179 539 539</p>
        </triangles>
      </mesh>
    </geometry>
  </library_geometries>
  <library_visual_scenes>
    <visual_scene id="Scene" name="Scene">
      <node id="polar" name="polar" type="NODE">
        <matrix sid="transform">1 0 0 0 0 -2.8213e-7 -1 0 0 1 -2.8213e-7 0 0 0 0 1</matrix>
        <instance_geometry url="#polar-mesh" name="polar">
          <bind_material>
            <technique_common>
              <instance_material symbol="notex-material" target="#notex-material">
                <bind_vertex_input semantic="polar-mesh-map-0" input_semantic="TEXCOORD" input_set="0"/>
              </instance_material>
              <instance_material symbol="texCr10T_x864y16_w16h16_cx12cy8_c0b3_a64x1-material" target="#texCr10T_x864y16_w16h16_cx12cy8_c0b3_a64x1-material">
                <bind_vertex_input semantic="polar-mesh-map-0" input_semantic="TEXCOORD" input_set="0"/>
              </instance_material>
              <instance_material symbol="texCr10T_x912y16_w16h16_cx13cy8_c0b3-material" target="#texCr10T_x912y16_w16h16_cx13cy8_c0b3-material">
                <bind_vertex_input semantic="polar-mesh-map-0" input_semantic="TEXCOORD" input_set="0"/>
              </instance_material>
            </technique_common>
          </bind_material>
        </instance_geometry>
      </node>
    </visual_scene>
  </library_visual_scenes>
  <scene>
    <instance_visual_scene url="#Scene"/>
  </scene>
</COLLADA>