# re-tessellated from /tmp/tile_floor.orig.obj (8x8 grid, flat on axis 1)
v 0.000000 0.000000 -4.000000
v 0.000000 0.000000 -3.500000
v 0.000000 0.000000 -3.000000
v 0.000000 0.000000 -2.500000
v 0.000000 0.000000 -2.000000
v 0.000000 0.000000 -1.500000
v 0.000000 0.000000 -1.000000
v 0.000000 0.000000 -0.500000
v 0.000000 0.000000 0.000000
v 0.500000 0.000000 -4.000000
v 0.500000 0.000000 -3.500000
v 0.500000 0.000000 -3.000000
v 0.500000 0.000000 -2.500000
v 0.500000 0.000000 -2.000000
v 0.500000 0.000000 -1.500000
v 0.500000 0.000000 -1.000000
v 0.500000 0.000000 -0.500000
v 0.500000 0.000000 0.000000
v 1.000000 0.000000 -4.000000
v 1.000000 0.000000 -3.500000
v 1.000000 0.000000 -3.000000
v 1.000000 0.000000 -2.500000
v 1.000000 0.000000 -2.000000
v 1.000000 0.000000 -1.500000
v 1.000000 0.000000 -1.000000
v 1.000000 0.000000 -0.500000
v 1.000000 0.000000 0.000000
v 1.500000 0.000000 -4.000000
v 1.500000 0.000000 -3.500000
v 1.500000 0.000000 -3.000000
v 1.500000 0.000000 -2.500000
v 1.500000 0.000000 -2.000000
v 1.500000 0.000000 -1.500000
v 1.500000 0.000000 -1.000000
v 1.500000 0.000000 -0.500000
v 1.500000 0.000000 0.000000
v 2.000000 0.000000 -4.000000
v 2.000000 0.000000 -3.500000
v 2.000000 0.000000 -3.000000
v 2.000000 0.000000 -2.500000
v 2.000000 0.000000 -2.000000
v 2.000000 0.000000 -1.500000
v 2.000000 0.000000 -1.000000
v 2.000000 0.000000 -0.500000
v 2.000000 0.000000 0.000000
v 2.500000 0.000000 -4.000000
v 2.500000 0.000000 -3.500000
v 2.500000 0.000000 -3.000000
v 2.500000 0.000000 -2.500000
v 2.500000 0.000000 -2.000000
v 2.500000 0.000000 -1.500000
v 2.500000 0.000000 -1.000000
v 2.500000 0.000000 -0.500000
v 2.500000 0.000000 0.000000
v 3.000000 0.000000 -4.000000
v 3.000000 0.000000 -3.500000
v 3.000000 0.000000 -3.000000
v 3.000000 0.000000 -2.500000
v 3.000000 0.000000 -2.000000
v 3.000000 0.000000 -1.500000
v 3.000000 0.000000 -1.000000
v 3.000000 0.000000 -0.500000
v 3.000000 0.000000 0.000000
v 3.500000 0.000000 -4.000000
v 3.500000 0.000000 -3.500000
v 3.500000 0.000000 -3.000000
v 3.500000 0.000000 -2.500000
v 3.500000 0.000000 -2.000000
v 3.500000 0.000000 -1.500000
v 3.500000 0.000000 -1.000000
v 3.500000 0.000000 -0.500000
v 3.500000 0.000000 0.000000
v 4.000000 0.000000 -4.000000
v 4.000000 0.000000 -3.500000
v 4.000000 0.000000 -3.000000
v 4.000000 0.000000 -2.500000
v 4.000000 0.000000 -2.000000
v 4.000000 0.000000 -1.500000
v 4.000000 0.000000 -1.000000
v 4.000000 0.000000 -0.500000
v 4.000000 0.000000 0.000000
vt 0.818200 0.272700
vt 0.818200 0.284062
vt 0.818200 0.295425
vt 0.818200 0.306787
vt 0.818200 0.318150
vt 0.818200 0.329512
vt 0.818200 0.340875
vt 0.818200 0.352237
vt 0.818200 0.363600
vt 0.829562 0.272700
vt 0.829562 0.284062
vt 0.829562 0.295425
vt 0.829562 0.306787
vt 0.829562 0.318150
vt 0.829562 0.329512
vt 0.829562 0.340875
vt 0.829562 0.352237
vt 0.829562 0.363600
vt 0.840925 0.272700
vt 0.840925 0.284062
vt 0.840925 0.295425
vt 0.840925 0.306787
vt 0.840925 0.318150
vt 0.840925 0.329512
vt 0.840925 0.340875
vt 0.840925 0.352237
vt 0.840925 0.363600
vt 0.852288 0.272700
vt 0.852288 0.284062
vt 0.852288 0.295425
vt 0.852288 0.306787
vt 0.852288 0.318150
vt 0.852288 0.329512
vt 0.852288 0.340875
vt 0.852288 0.352237
vt 0.852288 0.363600
vt 0.863650 0.272700
vt 0.863650 0.284062
vt 0.863650 0.295425
vt 0.863650 0.306787
vt 0.863650 0.318150
vt 0.863650 0.329512
vt 0.863650 0.340875
vt 0.863650 0.352237
vt 0.863650 0.363600
vt 0.875012 0.272700
vt 0.875012 0.284062
vt 0.875012 0.295425
vt 0.875012 0.306787
vt 0.875012 0.318150
vt 0.875012 0.329512
vt 0.875012 0.340875
vt 0.875012 0.352237
vt 0.875012 0.363600
vt 0.886375 0.272700
vt 0.886375 0.284062
vt 0.886375 0.295425
vt 0.886375 0.306787
vt 0.886375 0.318150
vt 0.886375 0.329512
vt 0.886375 0.340875
vt 0.886375 0.352237
vt 0.886375 0.363600
vt 0.897738 0.272700
vt 0.897738 0.284062
vt 0.897738 0.295425
vt 0.897738 0.306787
vt 0.897738 0.318150
vt 0.897738 0.329512
vt 0.897738 0.340875
vt 0.897738 0.352237
vt 0.897738 0.363600
vt 0.909100 0.272700
vt 0.909100 0.284062
vt 0.909100 0.295425
vt 0.909100 0.306787
vt 0.909100 0.318150
vt 0.909100 0.329512
vt 0.909100 0.340875
vt 0.909100 0.352237
vt 0.909100 0.363600
vn 0.000000 1.000000 0.000000
f 1/1/1 11/11/1 10/10/1
f 1/1/1 2/2/1 11/11/1
f 2/2/1 12/12/1 11/11/1
f 2/2/1 3/3/1 12/12/1
f 3/3/1 13/13/1 12/12/1
f 3/3/1 4/4/1 13/13/1
f 4/4/1 14/14/1 13/13/1
f 4/4/1 5/5/1 14/14/1
f 5/5/1 15/15/1 14/14/1
f 5/5/1 6/6/1 15/15/1
f 6/6/1 16/16/1 15/15/1
f 6/6/1 7/7/1 16/16/1
f 7/7/1 17/17/1 16/16/1
f 7/7/1 8/8/1 17/17/1
f 8/8/1 18/18/1 17/17/1
f 8/8/1 9/9/1 18/18/1
f 10/10/1 20/20/1 19/19/1
f 10/10/1 11/11/1 20/20/1
f 11/11/1 21/21/1 20/20/1
f 11/11/1 12/12/1 21/21/1
f 12/12/1 22/22/1 21/21/1
f 12/12/1 13/13/1 22/22/1
f 13/13/1 23/23/1 22/22/1
f 13/13/1 14/14/1 23/23/1
f 14/14/1 24/24/1 23/23/1
f 14/14/1 15/15/1 24/24/1
f 15/15/1 25/25/1 24/24/1
f 15/15/1 16/16/1 25/25/1
f 16/16/1 26/26/1 25/25/1
f 16/16/1 17/17/1 26/26/1
f 17/17/1 27/27/1 26/26/1
f 17/17/1 18/18/1 27/27/1
f 19/19/1 29/29/1 28/28/1
f 19/19/1 20/20/1 29/29/1
f 20/20/1 30/30/1 29/29/1
f 20/20/1 21/21/1 30/30/1
f 21/21/1 31/31/1 30/30/1
f 21/21/1 22/22/1 31/31/1
f 22/22/1 32/32/1 31/31/1
f 22/22/1 23/23/1 32/32/1
f 23/23/1 33/33/1 32/32/1
f 23/23/1 24/24/1 33/33/1
f 24/24/1 34/34/1 33/33/1
f 24/24/1 25/25/1 34/34/1
f 25/25/1 35/35/1 34/34/1
f 25/25/1 26/26/1 35/35/1
f 26/26/1 36/36/1 35/35/1
f 26/26/1 27/27/1 36/36/1
f 28/28/1 38/38/1 37/37/1
f 28/28/1 29/29/1 38/38/1
f 29/29/1 39/39/1 38/38/1
f 29/29/1 30/30/1 39/39/1
f 30/30/1 40/40/1 39/39/1
f 30/30/1 31/31/1 40/40/1
f 31/31/1 41/41/1 40/40/1
f 31/31/1 32/32/1 41/41/1
f 32/32/1 42/42/1 41/41/1
f 32/32/1 33/33/1 42/42/1
f 33/33/1 43/43/1 42/42/1
f 33/33/1 34/34/1 43/43/1
f 34/34/1 44/44/1 43/43/1
f 34/34/1 35/35/1 44/44/1
f 35/35/1 45/45/1 44/44/1
f 35/35/1 36/36/1 45/45/1
f 37/37/1 47/47/1 46/46/1
f 37/37/1 38/38/1 47/47/1
f 38/38/1 48/48/1 47/47/1
f 38/38/1 39/39/1 48/48/1
f 39/39/1 49/49/1 48/48/1
f 39/39/1 40/40/1 49/49/1
f 40/40/1 50/50/1 49/49/1
f 40/40/1 41/41/1 50/50/1
f 41/41/1 51/51/1 50/50/1
f 41/41/1 42/42/1 51/51/1
f 42/42/1 52/52/1 51/51/1
f 42/42/1 43/43/1 52/52/1
f 43/43/1 53/53/1 52/52/1
f 43/43/1 44/44/1 53/53/1
f 44/44/1 54/54/1 53/53/1
f 44/44/1 45/45/1 54/54/1
f 46/46/1 56/56/1 55/55/1
f 46/46/1 47/47/1 56/56/1
f 47/47/1 57/57/1 56/56/1
f 47/47/1 48/48/1 57/57/1
f 48/48/1 58/58/1 57/57/1
f 48/48/1 49/49/1 58/58/1
f 49/49/1 59/59/1 58/58/1
f 49/49/1 50/50/1 59/59/1
f 50/50/1 60/60/1 59/59/1
f 50/50/1 51/51/1 60/60/1
f 51/51/1 61/61/1 60/60/1
f 51/51/1 52/52/1 61/61/1
f 52/52/1 62/62/1 61/61/1
f 52/52/1 53/53/1 62/62/1
f 53/53/1 63/63/1 62/62/1
f 53/53/1 54/54/1 63/63/1
f 55/55/1 65/65/1 64/64/1
f 55/55/1 56/56/1 65/65/1
f 56/56/1 66/66/1 65/65/1
f 56/56/1 57/57/1 66/66/1
f 57/57/1 67/67/1 66/66/1
f 57/57/1 58/58/1 67/67/1
f 58/58/1 68/68/1 67/67/1
f 58/58/1 59/59/1 68/68/1
f 59/59/1 69/69/1 68/68/1
f 59/59/1 60/60/1 69/69/1
f 60/60/1 70/70/1 69/69/1
f 60/60/1 61/61/1 70/70/1
f 61/61/1 71/71/1 70/70/1
f 61/61/1 62/62/1 71/71/1
f 62/62/1 72/72/1 71/71/1
f 62/62/1 63/63/1 72/72/1
f 64/64/1 74/74/1 73/73/1
f 64/64/1 65/65/1 74/74/1
f 65/65/1 75/75/1 74/74/1
f 65/65/1 66/66/1 75/75/1
f 66/66/1 76/76/1 75/75/1
f 66/66/1 67/67/1 76/76/1
f 67/67/1 77/77/1 76/76/1
f 67/67/1 68/68/1 77/77/1
f 68/68/1 78/78/1 77/77/1
f 68/68/1 69/69/1 78/78/1
f 69/69/1 79/79/1 78/78/1
f 69/69/1 70/70/1 79/79/1
f 70/70/1 80/80/1 79/79/1
f 70/70/1 71/71/1 80/80/1
f 71/71/1 81/81/1 80/80/1
f 71/71/1 72/72/1 81/81/1
