# f_armchair -- imported by tools/import_asset_pack.py from f_armchair.fbx
o __pending__
v 2.949769 -0.629796 -0.500083
v 2.520732 -0.629796 0.363254
v 2.520732 -0.629796 -0.500083
v 2.520732 -0.094541 -0.500083
v 2.949769 -0.629796 -0.500083
v 2.520732 -0.629796 -0.500083
v 2.948509 -0.623056 -0.622606
v 2.520732 -0.623056 -0.386772
v 2.520732 -0.623056 -0.622606
v 2.917326 0.424893 -0.448234
v 2.949683 0.363084 -0.622930
v 2.917326 0.424893 -0.561144
v 2.917326 0.424893 -0.561144
v 2.520732 0.363084 -0.622930
v 2.520732 0.424893 -0.561144
v 2.520732 0.363084 -0.622930
v 2.949379 0.107642 -0.622846
v 2.520732 0.107642 -0.622846
v 2.949379 0.107642 -0.622846
v 2.949683 0.363084 -0.386449
v 2.949379 0.107642 -0.310887
v 2.949769 -0.094541 0.277340
v 2.949769 -0.180455 0.363254
v 2.949769 -0.405125 0.363254
v 2.917326 0.424893 -0.448234
v 2.520732 0.363084 -0.386449
v 2.949683 0.363084 -0.386449
v 3.114452 0.115222 0.447453
v 3.209918 -0.052528 -0.447453
v 3.114452 0.115222 -0.447453
v 3.209918 -0.052528 0.447453
v 3.112374 -0.219079 -0.447453
v 3.112374 -0.219079 -0.447453
v 2.994908 -0.679003 -0.447453
v 2.997771 -0.218367 -0.447453
v 2.917326 0.424893 -0.448234
v 2.919365 -0.217879 0.447453
v 2.823900 -0.050129 -0.447453
v 2.919365 -0.217879 -0.447453
v 2.823900 -0.050129 0.447453
v 2.919365 -0.217879 0.447453
v 2.997771 -0.218366 0.447453
v 2.949379 0.107642 -0.310887
v 2.520732 0.107642 -0.310887
v 2.823900 -0.050129 0.447453
v 2.921443 0.116422 -0.447453
v 2.921443 0.116422 0.447453
v 3.114452 0.115222 -0.447453
v 2.921443 0.116422 -0.447453
v 2.823900 -0.050129 -0.447453
v 2.921443 0.116422 -0.447453
v 2.520732 -0.094541 -0.500083
v 2.949769 -0.094541 0.277340
v 2.949769 -0.094541 -0.500083
v 2.949769 -0.078211 0.316763
v 2.949769 -0.164125 0.402677
v 2.949769 -0.388796 0.402677
v 2.994908 -0.679003 0.447453
v 2.916502 -0.678516 -0.447453
v 2.994908 -0.679003 -0.447453
v 3.112374 -0.219079 0.447453
v 3.109511 -0.679716 -0.447453
v 2.916502 -0.678516 0.447453
v 2.916502 -0.678516 0.447453
v 2.994908 -0.679003 0.447453
v 2.949769 -0.405125 0.363254
v 2.520732 -0.629796 0.363254
v 2.949769 -0.629796 0.363254
v 2.949769 -0.164125 0.402677
v 2.520732 -0.388796 0.402677
v 2.949769 -0.388796 0.402677
v 2.520732 -0.078211 0.316763
v 2.949769 -0.078211 0.316763
v 2.520732 -0.094541 0.277340
v 2.949769 -0.078211 0.316763
v 2.949769 -0.405125 0.363254
v 2.520732 -0.388796 0.402677
v 2.520732 -0.405125 0.363254
v 2.948509 -0.623056 -0.386772
v 2.520732 -0.623056 -0.386772
v 2.948509 -0.623056 -0.386772
v 2.948509 -0.623056 -0.622606
v 2.948509 -0.623056 -0.622606
v 2.520732 -0.623056 -0.622606
v 2.091695 -0.629796 -0.500083
v 2.091695 -0.629796 -0.500083
v 2.092955 -0.623056 -0.622606
v 2.091781 0.363084 -0.622930
v 2.124138 0.424893 -0.448234
v 2.124138 0.424893 -0.561144
v 2.124138 0.424893 -0.561144
v 2.092085 0.107642 -0.622846
v 2.092085 0.107642 -0.622846
v 2.091781 0.363084 -0.386449
v 2.091695 -0.629796 -0.500083
v 2.091695 -0.405125 0.363254
v 2.091695 -0.094541 0.277340
v 2.124138 0.424893 -0.448234
v 2.520732 0.424893 -0.448234
v 1.812660 -0.052528 -0.447453
v 1.908126 0.115222 0.447453
v 1.908126 0.115222 -0.447453
v 1.910204 -0.219079 -0.447453
v 1.812660 -0.052528 0.447453
v 2.024441 -0.218369 -0.447453
v 1.913067 -0.679716 -0.447453
v 1.910204 -0.219079 -0.447453
v 2.124138 0.424893 -0.448234
v 2.198678 -0.050129 -0.447453
v 2.103212 -0.217879 0.447453
v 2.103212 -0.217879 -0.447453
v 2.101134 0.116422 0.447453
v 1.908126 0.115222 0.447453
v 2.024441 -0.218369 0.447453
v 2.092085 0.107642 -0.310887
v 2.091781 0.363084 -0.386449
v 2.101134 0.116422 -0.447453
v 2.198678 -0.050129 0.447453
v 1.908126 0.115222 -0.447453
v 2.101134 0.116422 0.447453
v 2.101134 0.116422 -0.447453
v 1.812660 -0.052528 -0.447453
v 2.091695 -0.094541 0.277340
v 2.091695 -0.094541 -0.500083
v 2.091695 -0.180455 0.363254
v 2.091695 -0.078211 0.316763
v 2.091695 -0.388796 0.402677
v 2.106076 -0.678516 -0.447453
v 2.027304 -0.679006 0.447453
v 2.027304 -0.679006 -0.447453
v 1.913067 -0.679716 -0.447453
v 1.910204 -0.219079 0.447453
v 2.106076 -0.678516 0.447453
v 2.027304 -0.679006 0.447453
v 2.103212 -0.217879 0.447453
v 2.024441 -0.218369 0.447453
v 2.091695 -0.405125 0.363254
v 2.091695 -0.629796 0.363254
v 2.091695 -0.164125 0.402677
v 2.091695 -0.388796 0.402677
v 2.091695 -0.078211 0.316763
v 2.091695 -0.078211 0.316763
v 2.091695 -0.405125 0.363254
v 2.092955 -0.623056 -0.386772
v 2.092955 -0.623056 -0.386772
v 2.092955 -0.623056 -0.622606
v 2.092955 -0.623056 -0.622606
v 3.109511 -0.679716 0.447453
v 3.112374 -0.219079 0.447453
v 3.109511 -0.679716 0.447453
v 3.109511 -0.679716 -0.447453
v 2.916502 -0.678516 -0.447453
v 2.919365 -0.217879 -0.447453
v 1.913067 -0.679716 0.447453
v 1.910204 -0.219079 0.447453
v 1.913067 -0.679716 0.447453
v 1.913067 -0.679716 -0.447453
v 2.106076 -0.678516 -0.447453
v 2.103212 -0.217879 -0.447453
v 2.949769 -0.629796 0.363254
v 2.949769 -0.094541 -0.500083
v 2.948509 -0.623056 -0.386772
v 2.949683 0.363084 -0.622930
v 2.949683 0.363084 -0.622930
v 2.949769 -0.629796 0.363254
v 2.949769 -0.629796 -0.500083
v 2.949769 -0.094541 -0.500083
v 3.109511 -0.679716 -0.447453
v 2.520732 0.424893 -0.448234
v 3.209918 -0.052528 0.447453
v 3.114452 0.115222 0.447453
v 2.921443 0.116422 0.447453
v 2.921443 0.116422 0.447453
v 3.114452 0.115222 0.447453
v 3.114452 0.115222 -0.447453
v 3.209918 -0.052528 -0.447453
v 2.916502 -0.678516 0.447453
v 3.109511 -0.679716 0.447453
v 2.916502 -0.678516 -0.447453
v 2.520732 -0.405125 0.363254
v 2.520732 -0.164125 0.402677
v 2.520732 -0.078211 0.316763
v 2.949769 -0.388796 0.402677
v 2.091695 -0.629796 0.363254
v 2.091695 -0.094541 -0.500083
v 2.092955 -0.623056 -0.386772
v 2.091781 0.363084 -0.622930
v 2.091781 0.363084 -0.622930
v 2.092085 0.107642 -0.310887
v 2.091695 -0.094541 -0.500083
v 2.091695 -0.629796 0.363254
v 2.027304 -0.679006 -0.447453
v 1.812660 -0.052528 0.447453
v 2.103212 -0.217879 0.447453
v 2.198678 -0.050129 0.447453
v 2.101134 0.116422 0.447453
v 1.908126 0.115222 0.447453
v 1.908126 0.115222 -0.447453
v 2.101134 0.116422 -0.447453
v 2.198678 -0.050129 -0.447453
v 2.091695 -0.164125 0.402677
v 2.106076 -0.678516 0.447453
v 1.913067 -0.679716 0.447453
v 2.106076 -0.678516 -0.447453
v 2.106076 -0.678516 0.447453
v 2.091695 -0.388796 0.402677
v 2.027304 -0.679006 0.447453
vt 0.238956 0.500575
vt 0.352122 0.727219
vt 0.352122 0.500575
vt 0.691693 0.882611
vt 0.832876 0.995777
vt 0.832876 0.882611
vt 0.219951 0.243580
vt 0.158040 0.356414
vt 0.219951 0.356414
vt 0.743122 0.482716
vt 0.697038 0.466095
vt 0.713340 0.482726
vt 0.446666 0.239100
vt 0.464468 0.134492
vt 0.446665 0.134492
vt 0.352099 0.995777
vt 0.465162 0.928400
vt 0.352099 0.928400
vt 0.697038 0.398777
vt 0.759414 0.466074
vt 0.779323 0.398750
vt 0.145289 0.264189
vt 0.122647 0.241528
vt 0.063435 0.241528
vt 0.012758 0.995777
vt 0.117366 0.976395
vt 0.004223 0.976395
vt 0.448408 0.256082
vt 0.403175 0.492128
vt 0.448408 0.492128
vt 0.403175 0.256082
vt 0.360326 0.492128
vt 0.552868 0.622509
vt 0.522639 0.501006
vt 0.522639 0.622509
vt 0.417024 0.239100
vt 0.125654 0.713740
vt 0.168842 0.477694
vt 0.125654 0.477694
vt 0.685821 0.204856
vt 0.660379 0.161764
vt 0.639697 0.161764
vt 0.004304 0.906327
vt 0.117366 0.906327
vt 0.168842 0.713740
vt 0.213781 0.477694
vt 0.357668 0.247635
vt 0.408577 0.012673
vt 0.357668 0.012703
vt 0.476502 0.666599
vt 0.501957 0.710688
vt 0.688591 0.369560
vt 0.484501 0.482726
vt 0.688591 0.482726
vt 0.149593 0.253791
vt 0.126950 0.231129
vt 0.067739 0.231129
vt 0.269185 0.247622
vt 0.289865 0.012703
vt 0.269185 0.012691
vt 0.360326 0.256082
vt 0.238956 0.492128
vt 0.004223 0.713740
vt 0.660412 0.043009
vt 0.639731 0.043009
vt 0.878501 0.021617
vt 0.936421 0.134782
vt 0.936421 0.021617
vt 0.905442 0.256395
vt 0.963362 0.369560
vt 0.963362 0.256395
vt 0.878501 0.369560
vt 0.878501 0.256395
vt 0.484501 0.369560
vt 0.473734 0.482726
vt 0.962357 0.769446
vt 0.951590 0.882611
vt 0.962357 0.882611
vt 0.004533 0.722187
vt 0.117366 0.722187
vt 0.759243 0.206191
vt 0.697038 0.206211
vt 0.464932 0.735666
vt 0.352099 0.735666
vt 0.465287 0.500575
vt 0.832876 0.769446
vt 0.219951 0.469247
vt 0.870054 0.466095
vt 0.823970 0.482716
vt 0.853751 0.482726
vt 0.446665 0.029884
vt 0.239036 0.928400
vt 0.870054 0.398777
vt 0.807678 0.466074
vt 0.691633 0.491173
vt 0.750844 0.718892
vt 0.832699 0.696231
vt 0.221975 0.995777
vt 0.117366 0.995777
vt 0.637953 0.491173
vt 0.683186 0.727219
vt 0.683186 0.491173
vt 0.595104 0.491173
vt 0.637953 0.727219
vt 0.535714 0.623912
vt 0.505582 0.502409
vt 0.505582 0.623912
vt 0.417024 0.029884
vt 0.638307 0.995777
vt 0.595120 0.759730
vt 0.595120 0.995777
vt 0.499201 0.247948
vt 0.550111 0.247948
vt 0.519955 0.161764
vt 0.230429 0.906327
vt 0.230509 0.976395
vt 0.683247 0.995777
vt 0.638307 0.759730
vt 0.944867 0.012986
vt 0.995777 0.247948
vt 0.995777 0.013016
vt 0.480127 0.668001
vt 0.484501 0.256395
vt 0.688591 0.256395
vt 0.810056 0.718892
vt 0.837002 0.706629
vt 0.755148 0.729291
vt 0.298312 0.012703
vt 0.319089 0.247622
vt 0.319089 0.012691
vt 0.473734 0.491173
vt 0.595104 0.727219
vt 0.473689 0.759730
vt 0.659183 0.043498
vt 0.641165 0.162252
vt 0.659212 0.162252
vt 0.878501 0.247948
vt 0.936421 0.247948
vt 0.905442 0.482726
vt 0.963362 0.482726
vt 0.878501 0.482726
vt 0.473734 0.256395
vt 0.962357 0.995777
vt 0.230200 0.722187
vt 0.807849 0.206191
vt 0.870054 0.206211
vt 0.239266 0.735666
vt 0.609502 0.043009
vt 0.609468 0.161764
vt 0.238956 0.247604
vt 0.238956 0.012673
vt 0.501957 0.501006
vt 0.501957 0.622509
vt 0.550053 0.043009
vt 0.550087 0.161764
vt 0.349221 0.247604
vt 0.349221 0.012673
vt 0.556492 0.502409
vt 0.556492 0.623912
vt 0.238956 0.727219
vt 0.691693 0.995777
vt 0.158040 0.243581
vt 0.464468 0.247635
vt 0.465242 0.995777
vt 0.004223 0.241528
vt 0.004223 0.469247
vt 0.145289 0.469247
vt 0.552868 0.501006
vt 0.417024 0.134492
vt 0.584001 0.204856
vt 0.609444 0.247948
vt 0.660354 0.247948
vt 0.213781 0.713740
vt 0.408577 0.247604
vt 0.552868 0.710688
vt 0.578323 0.666599
vt 0.289865 0.247635
vt 0.238956 0.256082
vt 0.004223 0.477694
vt 0.878501 0.134782
vt 0.905442 0.369560
vt 0.473734 0.369560
vt 0.951590 0.769446
vt 0.465287 0.727219
vt 0.691693 0.769446
vt 0.158040 0.469247
vt 0.464468 0.021349
vt 0.238956 0.995777
vt 0.787769 0.398750
vt 0.832699 0.491173
vt 0.691633 0.718892
vt 0.535715 0.502409
vt 0.575554 0.204856
vt 0.499177 0.161764
vt 0.473734 0.204856
vt 0.683247 0.759730
vt 0.944867 0.247917
vt 0.505582 0.712091
vt 0.556492 0.712091
vt 0.581947 0.668001
vt 0.814360 0.729291
vt 0.298312 0.247635
vt 0.473734 0.727219
vt 0.473689 0.995777
vt 0.641135 0.043498
vt 0.951590 0.995777
vt 0.519921 0.043009
vn 0.577330 -0.577339 -0.577382
vn 0.000000 -0.707104 0.707109
vn 0.000000 -0.707107 -0.707107
vn 0.000000 0.707085 -0.707128
vn 0.577330 -0.577339 -0.577382
vn 0.000000 -0.707107 -0.707107
vn 0.576997 -0.577743 -0.577310
vn 0.000000 -0.742725 0.669596
vn 0.000000 -0.707223 -0.706991
vn 0.433974 0.852787 0.290552
vn 0.647239 0.348668 -0.677873
vn 0.433963 0.852793 -0.290551
vn 0.433963 0.852793 -0.290551
vn 0.000000 0.382439 -0.923981
vn 0.000000 0.923840 -0.382780
vn 0.000000 0.382439 -0.923981
vn 0.707108 -0.001074 -0.707105
vn 0.000000 -0.000328 -1.000000
vn 0.707108 -0.001074 -0.707105
vn 0.667397 0.433815 0.605298
vn 0.665918 0.067907 0.742927
vn 0.753764 0.644518 -0.128204
vn 1.000000 0.000000 0.000000
vn 0.855708 -0.287490 0.430248
vn 0.433974 0.852787 0.290552
vn 0.000000 0.511048 0.859552
vn 0.667397 0.433815 0.605298
vn 0.400453 0.683768 0.609999
vn 0.792395 -0.004932 -0.609988
vn 0.400465 0.683761 -0.609999
vn 0.792395 -0.004919 0.609988
vn 0.614960 -0.168879 -0.770263
vn 0.614960 -0.168879 -0.770263
vn -0.004396 -0.707101 -0.707099
vn 0.000000 -0.000000 -1.000000
vn 0.433974 0.852787 0.290552
vn -0.617005 -0.161220 0.770268
vn -0.792391 0.004932 -0.609994
vn -0.617004 -0.161224 -0.770268
vn -0.792391 0.004919 0.609994
vn -0.617005 -0.161220 0.770268
vn 0.000000 0.000000 1.000000
vn 0.665918 0.067907 0.742927
vn 0.000000 0.091934 0.995765
vn -0.792391 0.004919 0.609994
vn -0.391919 0.688688 -0.610006
vn -0.391931 0.688682 0.610006
vn 0.400465 0.683761 -0.609999
vn -0.391919 0.688688 -0.610006
vn -0.792391 0.004932 -0.609994
vn -0.391919 0.688688 -0.610006
vn 0.000000 0.707085 -0.707128
vn 0.753764 0.644518 -0.128204
vn 0.577350 0.577350 -0.577350
vn 0.600844 0.784007 0.155946
vn 0.630262 0.297106 0.717285
vn 0.600852 -0.444101 0.664644
vn -0.004395 -0.707096 0.707104
vn -0.580928 -0.573758 -0.577342
vn -0.004396 -0.707101 -0.707099
vn 0.614952 -0.168882 0.770268
vn 0.573740 -0.580933 -0.577356
vn -0.580920 -0.573758 0.577351
vn -0.580920 -0.573758 0.577351
vn -0.004395 -0.707096 0.707104
vn 0.855708 -0.287490 0.430248
vn 0.000000 -0.707104 0.707109
vn 0.577350 -0.577350 0.577350
vn 0.630262 0.297106 0.717285
vn 0.000000 -0.555581 0.831463
vn 0.600852 -0.444101 0.664644
vn 0.000000 0.980788 0.195075
vn 0.600844 0.784007 0.155946
vn 0.000000 0.980785 -0.195092
vn 0.600844 0.784007 0.155946
vn 0.855708 -0.287490 0.430248
vn 0.000000 -0.555581 0.831463
vn 0.000000 -0.555570 0.831470
vn 0.582586 -0.603797 0.544080
vn 0.000000 -0.742725 0.669596
vn 0.582586 -0.603797 0.544080
vn 0.576997 -0.577743 -0.577310
vn 0.576997 -0.577743 -0.577310
vn 0.000000 -0.707223 -0.706991
vn -0.577330 -0.577339 -0.577382
vn -0.577330 -0.577339 -0.577382
vn -0.576997 -0.577743 -0.577310
vn -0.647239 0.348668 -0.677874
vn -0.433974 0.852787 0.290552
vn -0.433963 0.852793 -0.290551
vn -0.433963 0.852793 -0.290551
vn -0.707108 -0.001074 -0.707105
vn -0.707108 -0.001074 -0.707105
vn -0.667397 0.433815 0.605298
vn -0.577330 -0.577339 -0.577382
vn -0.855708 -0.287490 0.430247
vn -0.753764 0.644518 -0.128204
vn -0.433974 0.852787 0.290552
vn 0.000000 0.923843 0.382771
vn -0.792395 -0.004932 -0.609988
vn -0.400453 0.683768 0.609999
vn -0.400465 0.683761 -0.609999
vn -0.614954 -0.168878 -0.770268
vn -0.792395 -0.004919 0.609988
vn 0.000000 -0.000000 -1.000000
vn -0.573747 -0.580941 -0.577341
vn -0.614954 -0.168878 -0.770268
vn -0.433974 0.852787 0.290552
vn 0.792391 0.004932 -0.609994
vn 0.617007 -0.161220 0.770266
vn 0.617004 -0.161225 -0.770268
vn 0.391931 0.688682 0.610006
vn -0.400453 0.683768 0.609999
vn 0.000000 0.000000 1.000000
vn -0.665918 0.067907 0.742927
vn -0.667397 0.433815 0.605298
vn 0.391919 0.688688 -0.610006
vn 0.792391 0.004919 0.609994
vn -0.400465 0.683761 -0.609999
vn 0.391931 0.688682 0.610006
vn 0.391919 0.688688 -0.610006
vn -0.792395 -0.004932 -0.609988
vn -0.753764 0.644518 -0.128204
vn -0.577350 0.577350 -0.577350
vn -1.000000 0.000000 0.000000
vn -0.600844 0.784007 0.155945
vn -0.600852 -0.444101 0.664644
vn 0.580927 -0.573759 -0.577343
vn 0.004396 -0.707098 0.707102
vn 0.004395 -0.707094 -0.707106
vn -0.573747 -0.580941 -0.577341
vn -0.614952 -0.168882 0.770268
vn 0.580918 -0.573755 0.577355
vn 0.004396 -0.707098 0.707102
vn 0.617007 -0.161220 0.770266
vn 0.000000 0.000000 1.000000
vn -0.855708 -0.287490 0.430247
vn -0.577350 -0.577350 0.577350
vn -0.630262 0.297106 0.717286
vn -0.600852 -0.444101 0.664644
vn -0.600844 0.784007 0.155945
vn -0.600844 0.784007 0.155945
vn -0.855708 -0.287490 0.430247
vn -0.582586 -0.603797 0.544080
vn -0.582586 -0.603797 0.544080
vn -0.576997 -0.577743 -0.577310
vn -0.576997 -0.577743 -0.577310
vn 0.573758 -0.580936 0.577335
vn 0.614952 -0.168882 0.770268
vn 0.573758 -0.580936 0.577335
vn 0.573740 -0.580933 -0.577356
vn -0.580928 -0.573758 -0.577342
vn -0.617004 -0.161224 -0.770268
vn -0.573757 -0.580936 0.577335
vn -0.614952 -0.168882 0.770268
vn -0.573757 -0.580936 0.577335
vn -0.573747 -0.580941 -0.577341
vn 0.580927 -0.573759 -0.577343
vn 0.617004 -0.161225 -0.770268
vn 0.577350 -0.577350 0.577350
vn 0.577350 0.577350 -0.577350
vn 0.582586 -0.603797 0.544080
vn 0.647239 0.348668 -0.677873
vn 0.647239 0.348668 -0.677873
vn 0.577350 -0.577350 0.577350
vn 0.577330 -0.577339 -0.577382
vn 0.577350 0.577350 -0.577350
vn 0.573740 -0.580933 -0.577356
vn 0.000000 0.923843 0.382771
vn 0.792395 -0.004919 0.609988
vn 0.400453 0.683768 0.609999
vn -0.391931 0.688682 0.610006
vn -0.391931 0.688682 0.610006
vn 0.400453 0.683768 0.609999
vn 0.400465 0.683761 -0.609999
vn 0.792395 -0.004932 -0.609988
vn -0.580920 -0.573758 0.577351
vn 0.573758 -0.580936 0.577335
vn -0.580928 -0.573758 -0.577342
vn 0.000000 -0.555570 0.831470
vn 0.000000 0.382684 0.923880
vn 0.000000 0.980788 0.195075
vn 0.600852 -0.444101 0.664644
vn -0.577350 -0.577350 0.577350
vn -0.577350 0.577350 -0.577350
vn -0.582586 -0.603797 0.544080
vn -0.647239 0.348668 -0.677874
vn -0.647239 0.348668 -0.677874
vn -0.665918 0.067907 0.742927
vn -0.577350 0.577350 -0.577350
vn -0.577350 -0.577350 0.577350
vn 0.004395 -0.707094 -0.707106
vn -0.792395 -0.004919 0.609988
vn 0.617007 -0.161220 0.770266
vn 0.792391 0.004919 0.609994
vn 0.391931 0.688682 0.610006
vn -0.400453 0.683768 0.609999
vn -0.400465 0.683761 -0.609999
vn 0.391919 0.688688 -0.610006
vn 0.792391 0.004932 -0.609994
vn -0.630262 0.297106 0.717286
vn 0.580918 -0.573755 0.577355
vn -0.573757 -0.580936 0.577335
vn 0.580927 -0.573759 -0.577343
vn 0.580918 -0.573755 0.577355
vn -0.600852 -0.444101 0.664644
vn 0.004396 -0.707098 0.707102
f 1/1/1 2/2/2 3/3/3
f 4/4/4 5/5/5 6/6/6
f 7/7/7 8/8/8 9/9/9
f 10/10/10 11/11/11 12/12/12
f 13/13/13 14/14/14 15/15/15
f 16/16/16 17/17/17 18/18/18
f 19/19/19 20/20/20 21/21/21
f 22/22/22 23/23/23 24/24/24
f 25/25/25 26/26/26 27/27/27
f 28/28/28 29/29/29 30/30/30
f 31/31/31 32/32/32 29/29/29
f 33/33/33 34/34/34 35/35/35
f 15/15/15 36/36/36 13/13/13
f 37/37/37 38/38/38 39/39/39
f 40/40/40 41/41/41 42/42/42
f 43/43/43 26/26/26 44/44/44
f 45/45/45 46/46/46 38/38/38
f 47/47/47 48/48/48 49/49/49
f 50/50/50 51/51/51 35/35/35
f 52/52/52 53/53/53 54/54/54
f 23/23/23 55/55/55 56/56/56
f 23/23/23 57/57/57 24/24/24
f 58/58/58 59/59/59 60/60/60
f 61/61/61 62/62/62 32/32/32
f 39/39/39 63/63/63 37/37/37
f 42/42/42 64/64/64 65/65/65
f 66/66/66 67/67/67 68/68/68
f 69/69/69 70/70/70 71/71/71
f 72/72/72 69/69/69 73/73/73
f 74/74/74 75/75/75 53/53/53
f 76/76/76 77/77/77 78/78/78
f 79/79/79 44/44/44 80/80/80
f 19/19/19 81/81/81 82/82/82
f 18/18/18 83/83/83 84/84/84
f 2/2/2 85/85/85 3/3/3
f 86/86/86 4/4/4 6/6/6
f 8/8/8 87/87/87 9/9/9
f 88/88/88 89/89/89 90/90/90
f 14/14/14 91/91/91 15/15/15
f 92/92/92 16/16/16 18/18/18
f 93/93/93 94/94/94 88/88/88
f 95/95/95 96/96/96 97/97/97
f 98/98/98 26/26/26 99/99/99
f 100/100/100 101/101/101 102/102/102
f 103/103/103 104/104/104 100/100/100
f 105/105/105 106/106/106 107/107/107
f 108/108/108 15/15/15 91/91/91
f 109/109/109 110/110/110 111/111/111
f 112/112/112 113/113/113 114/114/114
f 115/115/115 26/26/26 116/116/116
f 117/117/117 118/118/118 109/109/109
f 119/119/119 120/120/120 121/121/121
f 105/105/105 107/107/107 122/122/122
f 123/123/123 52/52/52 124/124/124
f 125/125/125 126/126/126 97/97/97
f 127/127/127 125/125/125 96/96/96
f 128/128/128 129/129/129 130/130/130
f 131/131/131 132/132/132 103/103/103
f 133/133/133 111/111/111 110/110/110
f 134/134/134 135/135/135 136/136/136
f 67/67/67 137/137/137 138/138/138
f 70/70/70 139/139/139 140/140/140
f 139/139/139 72/72/72 141/141/141
f 142/142/142 74/74/74 123/123/123
f 77/77/77 143/143/143 78/78/78
f 144/144/144 44/44/44 115/115/115
f 145/145/145 93/93/93 146/146/146
f 147/147/147 18/18/18 84/84/84
f 42/42/42 148/148/148 149/149/149
f 150/150/150 60/60/60 151/151/151
f 35/35/35 152/152/152 153/153/153
f 154/154/154 114/114/114 155/155/155
f 130/130/130 156/156/156 157/157/157
f 158/158/158 105/105/105 159/159/159
f 1/1/1 160/160/160 2/2/2
f 4/4/4 161/161/161 5/5/5
f 7/7/7 162/162/162 8/8/8
f 10/10/10 20/20/20 11/11/11
f 13/13/13 163/163/163 14/14/14
f 16/16/16 164/164/164 17/17/17
f 19/19/19 11/11/11 20/20/20
f 165/165/165 166/166/166 24/24/24
f 166/166/166 167/167/167 22/22/22
f 24/24/24 166/166/166 22/22/22
f 25/25/25 99/99/99 26/26/26
f 28/28/28 31/31/31 29/29/29
f 31/31/31 61/61/61 32/32/32
f 33/33/33 168/168/168 34/34/34
f 15/15/15 169/169/169 36/36/36
f 37/37/37 45/45/45 38/38/38
f 149/149/149 170/170/170 42/42/42
f 170/170/170 171/171/171 42/42/42
f 171/171/171 172/172/172 42/42/42
f 172/172/172 40/40/40 42/42/42
f 43/43/43 27/27/27 26/26/26
f 45/45/45 173/173/173 46/46/46
f 47/47/47 174/174/174 48/48/48
f 51/51/51 175/175/175 35/35/35
f 175/175/175 176/176/176 35/35/35
f 176/176/176 33/33/33 35/35/35
f 35/35/35 153/153/153 50/50/50
f 52/52/52 74/74/74 53/53/53
f 23/23/23 22/22/22 55/55/55
f 23/23/23 56/56/56 57/57/57
f 58/58/58 177/177/177 59/59/59
f 61/61/61 178/178/178 62/62/62
f 39/39/39 179/179/179 63/63/63
f 42/42/42 41/41/41 64/64/64
f 66/66/66 180/180/180 67/67/67
f 69/69/69 181/181/181 70/70/70
f 72/72/72 181/181/181 69/69/69
f 74/74/74 182/182/182 75/75/75
f 76/76/76 183/183/183 77/77/77
f 79/79/79 43/43/43 44/44/44
f 19/19/19 21/21/21 81/81/81
f 18/18/18 17/17/17 83/83/83
f 2/2/2 184/184/184 85/85/85
f 86/86/86 185/185/185 4/4/4
f 8/8/8 186/186/186 87/87/87
f 88/88/88 94/94/94 89/89/89
f 14/14/14 187/187/187 91/91/91
f 92/92/92 188/188/188 16/16/16
f 93/93/93 189/189/189 94/94/94
f 190/190/190 95/95/95 97/97/97
f 95/95/95 191/191/191 96/96/96
f 96/96/96 125/125/125 97/97/97
f 98/98/98 116/116/116 26/26/26
f 100/100/100 104/104/104 101/101/101
f 103/103/103 132/132/132 104/104/104
f 105/105/105 192/192/192 106/106/106
f 108/108/108 169/169/169 15/15/15
f 109/109/109 118/118/118 110/110/110
f 113/113/113 193/193/193 114/114/114
f 193/193/193 155/155/155 114/114/114
f 114/114/114 194/194/194 195/195/195
f 112/112/112 114/114/114 195/195/195
f 115/115/115 44/44/44 26/26/26
f 117/117/117 196/196/196 118/118/118
f 119/119/119 197/197/197 120/120/120
f 122/122/122 198/198/198 105/105/105
f 198/198/198 199/199/199 105/105/105
f 199/199/199 200/200/200 105/105/105
f 200/200/200 159/159/159 105/105/105
f 123/123/123 74/74/74 52/52/52
f 125/125/125 201/201/201 126/126/126
f 127/127/127 201/201/201 125/125/125
f 128/128/128 202/202/202 129/129/129
f 131/131/131 203/203/203 132/132/132
f 133/133/133 204/204/204 111/111/111
f 134/134/134 205/205/205 135/135/135
f 67/67/67 180/180/180 137/137/137
f 70/70/70 181/181/181 139/139/139
f 139/139/139 181/181/181 72/72/72
f 142/142/142 182/182/182 74/74/74
f 77/77/77 206/206/206 143/143/143
f 144/144/144 80/80/80 44/44/44
f 145/145/145 189/189/189 93/93/93
f 147/147/147 92/92/92 18/18/18
f 42/42/42 65/65/65 148/148/148
f 150/150/150 58/58/58 60/60/60
f 35/35/35 34/34/34 152/152/152
f 154/154/154 207/207/207 114/114/114
f 130/130/130 129/129/129 156/156/156
f 158/158/158 192/192/192 105/105/105
