# f_bed -- imported by tools/import_asset_pack.py from f_bed.fbx
o __pending__
v 1.189179 -3.309551 -0.561524
v 1.524981 -3.921218 -0.561524
v 1.189179 -3.921218 -0.688423
v 1.524981 -3.309551 -0.561524
v 1.524981 -3.921218 0.562336
v 1.524981 -3.921218 -0.561524
v -0.154032 -3.309551 0.562336
v -0.489835 -3.921218 0.562336
v -0.154032 -3.921218 0.689235
v 1.524981 -3.921218 -0.561524
v 1.189179 -3.921218 0.562336
v 1.189179 -3.921218 -0.688423
v -0.489835 -3.309551 -0.561524
v -0.154032 -3.309551 0.562336
v -0.154032 -3.309551 -0.561524
v 0.181771 -3.921218 0.562336
v -0.154032 -3.309551 0.562336
v -0.154032 -3.921218 0.689235
v 0.853376 -3.309551 -0.561524
v 1.189179 -3.309551 0.562336
v 1.189179 -3.309551 -0.561524
v 0.853376 -3.921218 -0.561524
v 1.189179 -3.309551 -0.561524
v 1.189179 -3.921218 -0.688423
v 0.517573 -3.309551 -0.561524
v 0.853376 -3.921218 -0.561524
v 0.517573 -3.921218 -0.561524
v 0.181771 -3.309551 -0.561524
v 0.517573 -3.921218 -0.561524
v 0.181771 -3.921218 -0.688423
v -0.154032 -3.921218 -0.561524
v 0.181771 -3.309551 -0.561524
v 0.181771 -3.921218 -0.688423
v -0.154032 -3.921218 -0.561524
v -0.489835 -3.921218 0.562336
v -0.489835 -3.921218 -0.561524
v 1.189179 -3.309551 0.562336
v 0.853376 -3.921218 0.562336
v 1.189179 -3.921218 0.562336
v 0.181771 -3.309551 0.562336
v 0.181771 -3.309551 -0.561524
v 0.517573 -3.309551 -0.561524
v 0.853376 -3.309551 0.562336
v 1.524981 -3.309551 0.562336
v 1.524981 -3.921218 0.562336
v 0.181771 -3.921218 0.562336
v -0.154032 -3.921218 0.689235
v 0.517573 -3.309551 0.562336
v 0.853376 -3.921218 -0.561524
v 0.853376 -3.921218 0.562336
v 0.853376 -3.921218 0.562336
v 0.517573 -3.309551 0.562336
v 0.517573 -3.921218 0.689235
v 0.517573 -3.921218 -0.561524
v 0.181771 -3.921218 -0.688423
v 0.517573 -3.921218 0.689235
v 1.524981 -3.309551 0.562336
v 1.524981 -3.309551 -0.561524
v 0.517573 -3.309551 0.562336
v 0.181771 -3.921218 0.562336
v 0.517573 -3.921218 0.689235
v -0.489835 -3.309551 -0.561524
v -0.154032 -3.921218 -0.561524
v -0.489835 -3.921218 -0.561524
v -0.489835 -3.309551 -0.561524
v -0.489835 -3.038547 0.562336
v -0.489835 -3.309551 0.562336
v -0.639355 -3.309551 0.562336
v -0.639355 -3.921218 -0.561524
v -0.639355 -3.921218 0.562336
v -0.489835 -3.921218 0.562336
v -0.639355 -3.921218 -0.561524
v -0.639355 -3.309551 -0.561524
v -0.489835 -3.309551 -0.561524
v -0.489835 -3.309551 0.562336
v -0.639355 -3.921218 0.562336
v -0.489835 -3.921218 0.562336
v -0.489835 -3.038547 0.562336
v -0.639355 -2.801970 0.356202
v -0.639355 -3.038547 0.562336
v -0.639355 -3.038547 0.562336
v -0.639355 -3.309551 0.562336
v -0.489835 -3.038547 -0.561524
v -0.639355 -3.038547 -0.561524
v -0.639355 -3.309551 -0.561524
v -0.489835 -2.801970 -0.355390
v -0.639355 -2.801970 0.356202
v -0.489835 -2.801970 0.356202
v -0.639355 -3.038547 0.562336
v -0.639355 -2.801970 -0.355390
v -0.639355 -3.038547 -0.561524
v -0.489835 -2.801970 -0.355390
v -0.489835 -3.038547 -0.561524
v -0.489835 -3.038547 -0.561524
v -0.489835 -2.801970 0.356202
v -0.183182 -3.479541 0.437752
v 0.061030 -3.411859 0.437752
v -0.142803 -3.107244 0.437751
v -0.183182 -3.479541 0.437752
v -0.407205 -3.361075 -0.405449
v -0.183182 -3.479541 -0.405449
v -0.183182 -3.479541 -0.405449
v -0.407205 -3.361075 -0.405449
v -0.387015 -3.174927 -0.405449
v 0.061030 -3.411859 0.437752
v -0.183182 -3.479541 -0.405449
v 0.061030 -3.411859 -0.405449
v -0.387015 -3.174927 -0.405449
v -0.142803 -3.107244 0.437751
v -0.142803 -3.107244 -0.405449
v 0.081220 -3.225710 0.437751
v 0.061030 -3.411859 -0.405449
v 0.081220 -3.225711 -0.405449
v -0.142803 -3.107244 0.437751
v 0.081220 -3.225711 -0.405449
v -0.142803 -3.107244 -0.405449
v -0.407205 -3.361075 0.437752
v -0.387015 -3.174927 -0.405449
v -0.407205 -3.361075 -0.405449
v 1.524981 -3.309551 -0.561524
v 1.524981 -3.309551 0.562336
v -0.489835 -3.309551 0.562336
v 1.524981 -3.921218 0.562336
v -0.489835 -3.309551 0.562336
v 0.181771 -3.309551 0.562336
v 0.853376 -3.309551 -0.561524
v 0.853376 -3.309551 -0.561524
v 0.517573 -3.309551 -0.561524
v -0.154032 -3.309551 -0.561524
v 0.853376 -3.309551 0.562336
v 0.853376 -3.309551 0.562336
v 0.181771 -3.309551 0.562336
v -0.154032 -3.309551 -0.561524
v -0.639355 -3.921218 0.562336
v -0.639355 -3.921218 -0.561524
v -0.489835 -2.801970 0.356202
v -0.489835 -3.038547 0.562336
v -0.639355 -3.038547 -0.561524
v -0.639355 -2.801970 -0.355390
v -0.639355 -2.801970 0.356202
v -0.639355 -2.801970 -0.355390
v -0.489835 -2.801970 -0.355390
v 0.081220 -3.225710 0.437751
v -0.387015 -3.174927 0.437751
v -0.407205 -3.361075 0.437752
v -0.407205 -3.361075 0.437752
v -0.142803 -3.107244 -0.405449
v 0.081220 -3.225711 -0.405449
v 0.061030 -3.411859 -0.405449
v -0.183182 -3.479541 0.437752
v -0.387015 -3.174927 0.437751
v 0.061030 -3.411859 0.437752
v 0.081220 -3.225710 0.437751
v -0.387015 -3.174927 0.437751
vt 0.855209 0.704827
vt 0.938313 0.549976
vt 0.849276 0.548384
vt 0.649065 0.197380
vt 0.803118 0.480433
vt 0.803118 0.197380
vt 0.559264 0.189300
vt 0.642368 0.034449
vt 0.553330 0.032857
vt 0.319053 0.450856
vt 0.036000 0.535430
vt 0.351014 0.535430
vt 0.642147 0.488513
vt 0.359094 0.573088
vt 0.642147 0.573088
vt 0.004040 0.057537
vt 0.087144 0.212388
vt 0.093078 0.055944
vt 0.642147 0.826811
vt 0.359094 0.911385
vt 0.642147 0.911385
vt 0.811198 0.138282
vt 0.894302 0.293133
vt 0.900236 0.136690
vt 0.650448 0.189300
vt 0.735023 0.035247
vt 0.650448 0.035247
vt 0.365028 0.189300
vt 0.448132 0.034449
vt 0.359094 0.032857
vt 0.841383 0.841109
vt 0.924487 0.995960
vt 0.930421 0.839517
vt 0.319053 0.873728
vt 0.036000 0.958302
vt 0.319053 0.958302
vt 0.180090 0.137754
vt 0.334143 0.222329
vt 0.334143 0.137754
vt 0.359094 0.657662
vt 0.642147 0.657662
vt 0.642147 0.742237
vt 0.359094 0.826811
vt 0.180090 0.053180
vt 0.334143 0.053180
vt 0.036000 0.789153
vt 0.004040 0.873728
vt 0.359094 0.742237
vt 0.319053 0.620005
vt 0.036000 0.620005
vt 0.456212 0.034449
vt 0.539316 0.189300
vt 0.545250 0.032857
vt 0.319053 0.704579
vt 0.351014 0.789153
vt 0.004040 0.704579
vt 0.359094 0.995960
vt 0.642147 0.995960
vt 0.862870 0.480433
vt 0.945974 0.325582
vt 0.856936 0.323990
vt 0.041698 0.374521
vt 0.126272 0.220468
vt 0.041698 0.220468
vt 0.778065 0.712907
vt 0.709811 0.995960
vt 0.778065 0.995960
vt 0.486932 0.197380
vt 0.640985 0.480433
vt 0.640985 0.197380
vt 0.036000 0.958302
vt 0.319053 0.995960
vt 0.004040 0.374521
vt 0.041698 0.374521
vt 0.134352 0.374521
vt 0.172010 0.220468
vt 0.134352 0.220468
vt 0.101158 0.133359
vt 0.138816 0.212388
vt 0.138816 0.133359
vt 0.172010 0.442775
vt 0.172010 0.374521
vt 0.041698 0.442775
vt 0.418678 0.480433
vt 0.486932 0.480433
vt 0.848856 0.301213
vt 0.811198 0.480433
vt 0.848856 0.480433
vt 0.418678 0.197380
vt 0.359094 0.428516
vt 0.841383 0.752408
vt 0.879041 0.831436
vt 0.879041 0.752408
vt 0.709811 0.712907
vt 0.650227 0.944043
vt 0.908316 0.211886
vt 0.908316 0.275712
vt 0.995960 0.246729
vt 0.785957 0.492460
vt 0.722132 0.704827
vt 0.785957 0.704827
vt 0.995960 0.076156
vt 0.952138 0.029752
vt 0.908316 0.047174
vt 0.650227 0.704827
vt 0.714052 0.492460
vt 0.650227 0.492460
vt 0.315821 0.442775
vt 0.251996 0.230409
vt 0.251996 0.442775
vt 0.786145 0.995960
vt 0.833303 0.783593
vt 0.786145 0.783593
vt 0.180090 0.442775
vt 0.243916 0.230409
vt 0.180090 0.230409
vt 0.841195 0.492460
vt 0.794038 0.704827
vt 0.841195 0.704827
vt 0.938313 0.703235
vt 0.649065 0.480433
vt 0.642368 0.187708
vt 0.036000 0.450856
vt 0.359094 0.488513
vt 0.004040 0.210795
vt 0.811198 0.291541
vt 0.735023 0.189300
vt 0.448132 0.187708
vt 0.841383 0.994368
vt 0.180090 0.222329
vt 0.456212 0.187708
vt 0.945974 0.478841
vt 0.126272 0.374521
vt 0.036000 0.995960
vt 0.004040 0.220468
vt 0.101158 0.212388
vt 0.134352 0.442775
vt 0.004040 0.442775
vt 0.811198 0.301213
vt 0.359094 0.249297
vt 0.841383 0.831436
vt 0.650227 0.764824
vt 0.952138 0.293133
vt 0.995960 0.182904
vt 0.952138 0.165483
vt 0.722132 0.492460
vt 0.908316 0.110999
vt 0.952138 0.157403
vt 0.995960 0.139981
vt 0.714052 0.704827
vt 0.315821 0.230409
vt 0.833303 0.995960
vt 0.243916 0.442775
vt 0.794038 0.492460
vn 0.000000 0.730693 -0.682706
vn 0.648435 -0.571401 -0.503024
vn 0.000000 -0.557286 -0.830321
vn 0.577343 0.577354 -0.577354
vn 0.577343 -0.577354 0.577354
vn 0.648435 -0.571401 -0.503024
vn 0.000000 0.730694 0.682705
vn -0.164709 -0.740337 0.651745
vn 0.000000 -0.557285 0.830321
vn 0.648435 -0.571401 -0.503024
vn 0.000000 -0.707093 0.707121
vn 0.000000 -0.557286 -0.830321
vn 0.000000 0.707096 -0.707118
vn 0.000000 0.730694 0.682705
vn 0.000000 0.707098 -0.707116
vn 0.000000 -0.750589 0.660770
vn 0.000000 0.730694 0.682705
vn 0.000000 -0.557285 0.830321
vn 0.000000 0.707098 -0.707116
vn 0.000000 0.707101 0.707112
vn 0.000000 0.730693 -0.682706
vn -0.084572 -0.726954 -0.681458
vn 0.000000 0.730693 -0.682706
vn 0.000000 -0.557286 -0.830321
vn 0.000000 0.707101 -0.707112
vn -0.084572 -0.726954 -0.681458
vn 0.084573 -0.726943 -0.681470
vn 0.000000 0.730693 -0.682706
vn 0.084573 -0.726943 -0.681470
vn 0.000000 -0.557286 -0.830321
vn -0.084573 -0.726946 -0.681467
vn 0.000000 0.730693 -0.682706
vn 0.000000 -0.557286 -0.830321
vn -0.084573 -0.726946 -0.681467
vn -0.164709 -0.740337 0.651745
vn 0.000000 -0.707107 -0.707107
vn 0.000000 0.707101 0.707112
vn 0.084572 -0.726954 0.681458
vn 0.000000 -0.707093 0.707121
vn 0.000000 0.707098 0.707115
vn 0.000000 0.730693 -0.682706
vn 0.000000 0.707101 -0.707112
vn 0.000000 0.707098 0.707115
vn 0.577363 0.577335 0.577352
vn 0.577343 -0.577354 0.577354
vn 0.000000 -0.750589 0.660770
vn 0.000000 -0.557285 0.830321
vn 0.000000 0.730694 0.682705
vn -0.084572 -0.726954 -0.681458
vn 0.084572 -0.726954 0.681458
vn 0.084572 -0.726954 0.681458
vn 0.000000 0.730694 0.682705
vn 0.000000 -0.557285 0.830321
vn 0.084573 -0.726943 -0.681470
vn 0.000000 -0.557286 -0.830321
vn 0.000000 -0.557285 0.830321
vn 0.577363 0.577335 0.577352
vn 0.577343 0.577354 -0.577354
vn 0.000000 0.730694 0.682705
vn 0.000000 -0.750589 0.660770
vn 0.000000 -0.557285 0.830321
vn 0.000000 0.707096 -0.707118
vn -0.084573 -0.726946 -0.681467
vn 0.000000 -0.707107 -0.707107
vn 0.447201 -0.000000 -0.894434
vn 0.636027 0.270657 0.722644
vn 0.447223 0.000000 0.894422
vn -0.707097 0.000000 0.707117
vn -0.577342 -0.577355 -0.577354
vn -0.577357 -0.577357 0.577336
vn 0.000000 -0.707107 0.707106
vn -0.577342 -0.577355 -0.577354
vn -0.707117 -0.000000 -0.707097
vn 0.447201 -0.000000 -0.894434
vn 0.447223 0.000000 0.894422
vn -0.577357 -0.577357 0.577336
vn 0.000000 -0.707107 0.707106
vn 0.636027 0.270657 0.722644
vn -0.624693 0.710750 0.323408
vn -0.636023 0.270665 0.722644
vn -0.636023 0.270665 0.722644
vn -0.707097 0.000000 0.707117
vn 0.636023 0.270665 -0.722644
vn -0.636027 0.270657 -0.722644
vn -0.707117 -0.000000 -0.707097
vn 0.624693 0.710750 -0.323409
vn -0.624693 0.710750 0.323408
vn 0.624686 0.710755 0.323413
vn -0.636023 0.270665 0.722644
vn -0.624686 0.710755 -0.323413
vn -0.636027 0.270657 -0.722644
vn 0.624693 0.710750 -0.323409
vn 0.636023 0.270665 -0.722644
vn 0.636023 0.270665 -0.722644
vn 0.624686 0.710755 0.323413
vn -0.083499 -0.769935 0.632635
vn 0.609744 -0.517995 0.599911
vn 0.083503 0.769907 0.632670
vn -0.083499 -0.769935 0.632635
vn -0.706616 -0.375221 -0.599920
vn -0.083511 -0.769914 -0.632660
vn -0.083511 -0.769914 -0.632660
vn -0.706616 -0.375221 -0.599920
vn -0.609736 0.517998 -0.599917
vn 0.609744 -0.517995 0.599911
vn -0.083511 -0.769914 -0.632660
vn 0.609727 -0.518009 -0.599916
vn -0.609736 0.517998 -0.599917
vn 0.083503 0.769907 0.632670
vn 0.083507 0.769942 -0.632626
vn 0.706608 0.375242 0.599916
vn 0.609727 -0.518009 -0.599916
vn 0.706621 0.375224 -0.599911
vn 0.083503 0.769907 0.632670
vn 0.706621 0.375224 -0.599911
vn 0.083507 0.769942 -0.632626
vn -0.706613 -0.375244 0.599908
vn -0.609736 0.517998 -0.599917
vn -0.706616 -0.375221 -0.599920
vn 0.577343 0.577354 -0.577354
vn 0.577363 0.577335 0.577352
vn 0.000000 0.707107 0.707107
vn 0.577343 -0.577354 0.577354
vn 0.000000 0.707107 0.707107
vn 0.000000 0.707098 0.707115
vn 0.000000 0.707098 -0.707116
vn 0.000000 0.707098 -0.707116
vn 0.000000 0.707101 -0.707112
vn 0.000000 0.707098 -0.707116
vn 0.000000 0.707098 0.707115
vn 0.000000 0.707098 0.707115
vn 0.000000 0.707098 0.707115
vn 0.000000 0.707098 -0.707116
vn -0.577357 -0.577357 0.577336
vn -0.577342 -0.577355 -0.577354
vn 0.624686 0.710755 0.323413
vn 0.636027 0.270657 0.722644
vn -0.636027 0.270657 -0.722644
vn -0.624686 0.710755 -0.323413
vn -0.624693 0.710750 0.323408
vn -0.624686 0.710755 -0.323413
vn 0.624693 0.710750 -0.323409
vn 0.706608 0.375242 0.599916
vn -0.609736 0.518006 0.599910
vn -0.706613 -0.375244 0.599908
vn -0.706613 -0.375244 0.599908
vn 0.083507 0.769942 -0.632626
vn 0.706621 0.375224 -0.599911
vn 0.609727 -0.518009 -0.599916
vn -0.083499 -0.769935 0.632635
vn -0.609736 0.518006 0.599910
vn 0.609744 -0.517995 0.599911
vn 0.706608 0.375242 0.599916
vn -0.609736 0.518006 0.599910
f 1/1/1 2/2/2 3/3/3
f 4/4/4 5/5/5 6/6/6
f 7/7/7 8/8/8 9/9/9
f 10/10/10 11/11/11 12/12/12
f 13/13/13 14/14/14 15/15/15
f 16/16/16 17/17/17 18/18/18
f 19/19/19 20/20/20 21/21/21
f 22/22/22 23/23/23 24/24/24
f 25/25/25 26/26/26 27/27/27
f 28/28/28 29/29/29 30/30/30
f 31/31/31 32/32/32 33/33/33
f 34/34/34 35/35/35 36/36/36
f 37/37/37 38/38/38 39/39/39
f 15/15/15 40/40/40 41/41/41
f 42/42/42 43/43/43 19/19/19
f 44/44/44 39/39/39 45/45/45
f 34/34/34 46/46/46 47/47/47
f 41/41/41 48/48/48 42/42/42
f 49/49/49 11/11/11 50/50/50
f 51/51/51 52/52/52 53/53/53
f 54/54/54 46/46/46 55/55/55
f 54/54/54 50/50/50 56/56/56
f 21/21/21 57/57/57 58/58/58
f 59/59/59 60/60/60 61/61/61
f 62/62/62 63/63/63 64/64/64
f 65/65/65 66/66/66 67/67/67
f 68/68/68 69/69/69 70/70/70
f 71/71/71 72/72/72 36/36/36
f 64/64/64 73/73/73 74/74/74
f 75/75/75 76/76/76 77/77/77
f 78/78/78 79/79/79 80/80/80
f 75/75/75 81/81/81 82/82/82
f 73/73/73 83/83/83 74/74/74
f 68/68/68 84/84/84 85/85/85
f 86/86/86 87/87/87 88/88/88
f 89/89/89 90/90/90 84/84/84
f 91/91/91 92/92/92 93/93/93
f 94/94/94 95/95/95 66/66/66
f 96/96/96 97/97/97 98/98/98
f 99/99/99 100/100/100 101/101/101
f 102/102/102 103/103/103 104/104/104
f 105/105/105 106/106/106 107/107/107
f 108/108/108 109/109/109 110/110/110
f 111/111/111 112/112/112 113/113/113
f 114/114/114 115/115/115 116/116/116
f 117/117/117 118/118/118 119/119/119
f 1/1/1 120/120/120 2/2/2
f 4/4/4 121/121/121 5/5/5
f 7/7/7 122/122/122 8/8/8
f 10/10/10 123/123/123 11/11/11
f 13/13/13 124/124/124 14/14/14
f 16/16/16 125/125/125 17/17/17
f 19/19/19 43/43/43 20/20/20
f 22/22/22 126/126/126 23/23/23
f 25/25/25 127/127/127 26/26/26
f 28/28/28 128/128/128 29/29/29
f 31/31/31 129/129/129 32/32/32
f 34/34/34 47/47/47 35/35/35
f 37/37/37 130/130/130 38/38/38
f 15/15/15 14/14/14 40/40/40
f 42/42/42 48/48/48 43/43/43
f 44/44/44 37/37/37 39/39/39
f 34/34/34 55/55/55 46/46/46
f 41/41/41 40/40/40 48/48/48
f 49/49/49 12/12/12 11/11/11
f 51/51/51 131/131/131 52/52/52
f 54/54/54 56/56/56 46/46/46
f 54/54/54 49/49/49 50/50/50
f 21/21/21 20/20/20 57/57/57
f 59/59/59 132/132/132 60/60/60
f 62/62/62 133/133/133 63/63/63
f 65/65/65 94/94/94 66/66/66
f 68/68/68 85/85/85 69/69/69
f 71/71/71 134/134/134 72/72/72
f 64/64/64 135/135/135 73/73/73
f 75/75/75 82/82/82 76/76/76
f 78/78/78 136/136/136 79/79/79
f 75/75/75 137/137/137 81/81/81
f 73/73/73 138/138/138 83/83/83
f 68/68/68 89/89/89 84/84/84
f 86/86/86 139/139/139 87/87/87
f 89/89/89 140/140/140 90/90/90
f 91/91/91 141/141/141 92/92/92
f 94/94/94 142/142/142 95/95/95
f 97/97/97 143/143/143 98/98/98
f 98/98/98 144/144/144 145/145/145
f 145/145/145 96/96/96 98/98/98
f 99/99/99 146/146/146 100/100/100
f 104/104/104 147/147/147 102/102/102
f 147/147/147 148/148/148 102/102/102
f 148/148/148 149/149/149 102/102/102
f 105/105/105 150/150/150 106/106/106
f 108/108/108 151/151/151 109/109/109
f 111/111/111 152/152/152 112/112/112
f 114/114/114 153/153/153 115/115/115
f 117/117/117 154/154/154 118/118/118
