# f_chair -- imported by tools/import_asset_pack.py from f_chair.fbx
o __pending__
v 11.285895 -3.444814 -0.459252
v 11.400579 -3.939153 -0.393039
v 11.285895 -3.939153 -0.459252
v 10.675560 -3.444814 0.330080
v 10.790243 -3.444814 0.396293
v 10.904927 -3.444814 0.330080
v 11.285895 -3.444814 0.131442
v 11.400579 -3.939153 0.197655
v 11.285895 -3.939153 0.131442
v 10.790243 -3.444814 -0.194401
v 10.675560 -3.939153 -0.260614
v 10.790243 -3.939153 -0.194401
v 10.790243 -3.444814 0.396293
v 10.675560 -3.939153 0.330080
v 10.790243 -3.939153 0.396293
v 11.400579 -3.444814 0.197655
v 11.400579 -3.939153 0.330080
v 11.400579 -3.939153 0.197655
v 10.675560 -3.939153 0.330080
v 10.675560 -3.939153 0.197655
v 10.904927 -3.939153 0.197655
v 10.904927 -3.444814 0.330080
v 10.790243 -3.939153 0.396293
v 10.904927 -3.939153 0.330080
v 11.400579 -3.444814 0.330080
v 11.285895 -3.939153 0.396293
v 11.400579 -3.939153 0.330080
v 10.675560 -3.444814 0.197655
v 10.790243 -3.939153 0.131442
v 10.675560 -3.939153 0.197655
v 10.904927 -3.444814 0.197655
v 10.904927 -3.939153 0.330080
v 10.904927 -3.939153 0.197655
v 11.285895 -3.444814 0.396293
v 11.171212 -3.939153 0.330080
v 11.285895 -3.939153 0.396293
v 11.171212 -3.444814 0.330080
v 11.285895 -3.444814 0.396293
v 11.400579 -3.444814 0.330080
v 10.790243 -3.444814 0.131442
v 10.904927 -3.939153 0.197655
v 10.790243 -3.939153 0.131442
v 11.171212 -3.444814 0.330080
v 11.171212 -3.939153 0.197655
v 11.171212 -3.939153 0.330080
v 10.790243 -3.444814 -0.459252
v 10.675560 -3.444814 -0.260614
v 10.904927 -3.444814 -0.260614
v 10.675560 -3.444814 0.330080
v 10.675560 -3.939153 0.197655
v 10.675560 -3.939153 0.330080
v 11.171212 -3.444814 0.197655
v 11.285895 -3.939153 0.131442
v 11.171212 -3.939153 0.197655
v 11.171212 -3.939153 0.330080
v 11.171212 -3.939153 0.197655
v 11.400579 -3.939153 0.197655
v 11.400579 -3.444814 -0.393039
v 11.400579 -3.939153 -0.260614
v 11.400579 -3.939153 -0.393039
v 10.790243 -3.939153 -0.194401
v 10.675560 -3.939153 -0.260614
v 10.675560 -3.939153 -0.393039
v 10.904927 -3.444814 -0.260614
v 10.790243 -3.939153 -0.194401
v 10.904927 -3.939153 -0.260614
v 11.400579 -3.444814 -0.260614
v 11.285895 -3.939153 -0.194401
v 11.400579 -3.939153 -0.260614
v 10.675560 -3.444814 -0.393039
v 10.790243 -3.939153 -0.459252
v 10.675560 -3.939153 -0.393039
v 10.904927 -3.444814 -0.393039
v 10.904927 -3.939153 -0.260614
v 10.904927 -3.939153 -0.393039
v 11.285895 -3.444814 -0.194401
v 11.171212 -3.939153 -0.260614
v 11.285895 -3.939153 -0.194401
v 11.285895 -3.444814 -0.194401
v 11.400579 -3.444814 -0.260614
v 11.285895 -3.444814 -0.459252
v 10.790243 -3.444814 -0.459252
v 10.904927 -3.939153 -0.393039
v 10.790243 -3.939153 -0.459252
v 11.171212 -3.444814 -0.260614
v 11.171212 -3.939153 -0.393039
v 11.171212 -3.939153 -0.260614
v 10.675560 -3.444814 -0.260614
v 10.675560 -3.939153 -0.393039
v 10.675560 -3.939153 -0.260614
v 11.171212 -3.444814 -0.393039
v 11.285895 -3.939153 -0.459252
v 11.171212 -3.939153 -0.393039
v 11.400579 -3.939153 -0.393039
v 11.285895 -3.939153 -0.194401
v 11.171212 -3.939153 -0.393039
v 10.763622 -3.355201 0.428413
v 10.570683 -3.483364 0.235474
v 10.763622 -3.483364 0.428413
v 10.763622 -3.483364 -0.494277
v 10.570683 -3.355201 -0.301338
v 10.763622 -3.355201 -0.494277
v 11.511526 -3.483364 -0.301338
v 11.318586 -3.355201 -0.494277
v 11.511526 -3.355201 -0.301338
v 11.318586 -3.483364 0.428413
v 11.511526 -3.355201 0.235473
v 11.318586 -3.355201 0.428413
v 10.763622 -3.483364 0.428413
v 10.570683 -3.483364 0.235474
v 10.763622 -3.483364 -0.494277
v 10.570683 -3.355201 0.235473
v 10.570683 -3.483364 -0.301338
v 10.570683 -3.483364 0.235474
v 11.318586 -3.355201 0.428413
v 10.763622 -3.483364 0.428413
v 11.318586 -3.483364 0.428413
v 11.318586 -3.355201 0.428413
v 11.511526 -3.355201 0.235473
v 11.318586 -3.355201 -0.494277
v 10.763622 -3.355201 -0.494277
v 11.318586 -3.483364 -0.494277
v 10.763622 -3.483364 -0.494277
v 11.511526 -3.355201 -0.301338
v 11.511526 -3.483364 0.235474
v 11.511526 -3.483364 -0.301338
v 10.763622 -3.397017 -0.437938
v 10.570683 -3.204077 -0.566102
v 10.763622 -3.397017 -0.566102
v 10.763622 -2.474326 -0.566102
v 10.570683 -2.667266 -0.437939
v 10.763622 -2.474326 -0.437939
v 11.511526 -2.667266 -0.566102
v 11.318586 -2.474326 -0.437939
v 11.511526 -2.667266 -0.437939
v 11.318586 -3.397017 -0.437938
v 11.511526 -3.204077 -0.566102
v 11.511526 -3.204077 -0.437938
v 10.763622 -3.397017 -0.566102
v 10.570683 -3.204077 -0.566102
v 10.763622 -2.474326 -0.566102
v 10.570683 -3.204077 -0.437938
v 10.570683 -2.667266 -0.566102
v 10.570683 -3.204077 -0.566102
v 11.318586 -3.397017 -0.437938
v 10.763622 -3.397017 -0.566102
v 11.318586 -3.397017 -0.566102
v 11.318586 -3.397017 -0.437938
v 11.511526 -3.204077 -0.437938
v 11.318586 -2.474326 -0.437939
v 10.763622 -2.474326 -0.437939
v 11.318586 -2.474326 -0.566102
v 10.763622 -2.474326 -0.566102
v 11.511526 -2.667266 -0.437939
v 11.511526 -3.204077 -0.566102
v 11.511526 -2.667266 -0.566102
v 11.400579 -3.444814 -0.393039
v 10.904927 -3.444814 0.197655
v 10.790243 -3.444814 0.131442
v 10.675560 -3.444814 0.197655
v 11.400579 -3.444814 0.197655
v 10.675560 -3.444814 -0.260614
v 10.675560 -3.444814 0.330080
v 11.400579 -3.444814 0.330080
v 10.790243 -3.939153 0.131442
v 10.904927 -3.939153 0.330080
v 10.790243 -3.939153 0.396293
v 10.790243 -3.444814 0.396293
v 11.285895 -3.444814 0.396293
v 10.790243 -3.444814 0.131442
v 10.904927 -3.444814 0.330080
v 11.171212 -3.444814 0.330080
v 11.400579 -3.444814 0.197655
v 11.285895 -3.444814 0.131442
v 11.171212 -3.444814 0.197655
v 10.904927 -3.444814 0.197655
v 11.171212 -3.444814 0.197655
v 10.904927 -3.444814 -0.393039
v 10.675560 -3.444814 -0.393039
v 10.790243 -3.444814 -0.194401
v 10.675560 -3.444814 0.197655
v 11.285895 -3.444814 0.131442
v 11.285895 -3.939153 0.131442
v 11.400579 -3.939153 0.330080
v 11.285895 -3.939153 0.396293
v 11.400579 -3.444814 -0.260614
v 10.790243 -3.939153 -0.459252
v 10.904927 -3.939153 -0.393039
v 10.904927 -3.939153 -0.260614
v 10.790243 -3.444814 -0.194401
v 11.285895 -3.444814 -0.194401
v 10.790243 -3.444814 -0.459252
v 10.904927 -3.444814 -0.260614
v 11.171212 -3.444814 -0.260614
v 11.400579 -3.444814 -0.393039
v 11.171212 -3.444814 -0.393039
v 11.171212 -3.444814 -0.260614
v 10.904927 -3.444814 -0.393039
v 11.171212 -3.444814 -0.393039
v 10.675560 -3.444814 -0.393039
v 11.285895 -3.444814 -0.459252
v 11.285895 -3.939153 -0.459252
v 11.400579 -3.939153 -0.260614
v 11.171212 -3.939153 -0.260614
v 10.570683 -3.355201 0.235473
v 10.570683 -3.483364 -0.301338
v 11.318586 -3.483364 -0.494277
v 11.511526 -3.483364 0.235474
v 10.570683 -3.483364 -0.301338
v 11.318586 -3.483364 -0.494277
v 11.318586 -3.483364 0.428413
v 11.511526 -3.483364 -0.301338
v 11.511526 -3.483364 0.235474
v 10.570683 -3.355201 -0.301338
v 10.763622 -3.355201 0.428413
v 11.511526 -3.355201 -0.301338
v 10.763622 -3.355201 -0.494277
v 10.763622 -3.355201 0.428413
v 10.570683 -3.355201 -0.301338
v 10.570683 -3.355201 0.235473
v 11.318586 -3.355201 -0.494277
v 11.511526 -3.355201 0.235473
v 10.570683 -3.204077 -0.437938
v 10.570683 -2.667266 -0.566102
v 11.318586 -2.474326 -0.566102
v 11.318586 -3.397017 -0.566102
v 10.570683 -2.667266 -0.566102
v 11.318586 -2.474326 -0.566102
v 11.318586 -3.397017 -0.566102
v 11.511526 -2.667266 -0.566102
v 11.511526 -3.204077 -0.566102
v 10.570683 -2.667266 -0.437939
v 10.763622 -3.397017 -0.437938
v 11.511526 -2.667266 -0.437939
v 10.763622 -2.474326 -0.437939
v 10.763622 -3.397017 -0.437938
v 10.570683 -2.667266 -0.437939
v 10.570683 -3.204077 -0.437938
v 11.318586 -2.474326 -0.437939
v 11.511526 -3.204077 -0.437938
vt 0.754135 0.797625
vt 0.798703 0.631255
vt 0.754135 0.631255
vt 0.455231 0.097091
vt 0.455231 0.141659
vt 0.493828 0.163943
vt 0.754135 0.994800
vt 0.798703 0.828429
vt 0.754135 0.828429
vt 0.335010 0.340714
vt 0.379578 0.174344
vt 0.335010 0.174344
vt 0.280042 0.340714
vt 0.324610 0.174344
vt 0.280042 0.174344
vt 0.809104 0.267313
vt 0.853672 0.100942
vt 0.809104 0.100942
vt 0.632077 0.097091
vt 0.593480 0.074807
vt 0.554883 0.141659
vt 0.005200 0.340714
vt 0.049768 0.174344
vt 0.005200 0.174344
vt 0.115137 0.340714
vt 0.159705 0.174344
vt 0.115137 0.174344
vt 0.389978 0.340714
vt 0.434546 0.174344
vt 0.389978 0.174344
vt 0.864072 0.994800
vt 0.908640 0.828429
vt 0.864072 0.828429
vt 0.225074 0.340714
vt 0.269642 0.174344
vt 0.225074 0.174344
vt 0.864072 0.070538
vt 0.864072 0.115106
vt 0.902669 0.137390
vt 0.754135 0.620855
vt 0.798703 0.454484
vt 0.754135 0.454484
vt 0.864072 0.797625
vt 0.908640 0.631255
vt 0.864072 0.631255
vt 0.367636 0.097091
vt 0.406233 0.163943
vt 0.444830 0.097091
vt 0.864072 0.620855
vt 0.908640 0.454484
vt 0.864072 0.454484
vt 0.444947 0.340714
vt 0.489515 0.174344
vt 0.444947 0.174344
vt 0.724261 0.043128
vt 0.685664 0.020844
vt 0.647067 0.087696
vt 0.499915 0.340714
vt 0.544483 0.174344
vt 0.499915 0.174344
vt 0.917606 0.421800
vt 0.956203 0.444084
vt 0.994800 0.421800
vt 0.170105 0.340714
vt 0.214673 0.174344
vt 0.170105 0.174344
vt 0.060168 0.340714
vt 0.104737 0.174344
vt 0.060168 0.174344
vt 0.754135 0.267313
vt 0.798703 0.100942
vt 0.754135 0.100942
vt 0.554883 0.340714
vt 0.599451 0.174344
vt 0.554883 0.174344
vt 0.809103 0.994800
vt 0.853671 0.828429
vt 0.809103 0.828429
vt 0.247299 0.141659
vt 0.247299 0.097091
vt 0.170105 0.097091
vt 0.754135 0.444084
vt 0.798703 0.277713
vt 0.754135 0.277713
vt 0.809103 0.797625
vt 0.853672 0.631255
vt 0.809103 0.631255
vt 0.809103 0.620855
vt 0.853672 0.454484
vt 0.809103 0.454484
vt 0.809104 0.444084
vt 0.853672 0.277713
vt 0.809104 0.277713
vt 0.318639 0.074807
vt 0.280042 0.141659
vt 0.357236 0.141659
vt 0.864072 0.147791
vt 0.907206 0.239621
vt 0.907206 0.147791
vt 0.743735 0.218321
vt 0.700601 0.126490
vt 0.700601 0.218321
vt 0.907206 0.444084
vt 0.864072 0.352253
vt 0.864072 0.444084
vt 0.048334 0.163943
vt 0.005200 0.072112
vt 0.005200 0.163943
vt 0.005200 0.929866
vt 0.070134 0.994800
vt 0.315733 0.929866
vt 0.700601 0.616961
vt 0.743735 0.797625
vt 0.743735 0.616961
vt 0.647067 0.808026
vt 0.690201 0.994800
vt 0.690201 0.808026
vt 0.326134 0.929866
vt 0.391068 0.994800
vt 0.636667 0.929866
vt 0.647067 0.610851
vt 0.690201 0.797625
vt 0.690201 0.610851
vt 0.700601 0.419786
vt 0.743735 0.600451
vt 0.743735 0.419786
vt 0.112268 0.072112
vt 0.155402 0.163943
vt 0.155402 0.072112
vt 0.690201 0.212212
vt 0.647067 0.120381
vt 0.647067 0.212212
vt 0.864072 0.250022
vt 0.907205 0.341852
vt 0.907205 0.250022
vt 0.101868 0.072112
vt 0.058734 0.163943
vt 0.101868 0.163943
vt 0.315733 0.416049
vt 0.250799 0.351115
vt 0.005200 0.416049
vt 0.700601 0.228721
vt 0.743735 0.409386
vt 0.743735 0.228721
vt 0.700601 0.808026
vt 0.743735 0.994800
vt 0.743735 0.808026
vt 0.636667 0.416049
vt 0.571733 0.351115
vt 0.326134 0.416049
vt 0.647067 0.413677
vt 0.690201 0.600451
vt 0.690201 0.413677
vt 0.690201 0.403277
vt 0.647067 0.222612
vt 0.647067 0.403277
vt 0.798703 0.797625
vt 0.532425 0.141659
vt 0.532425 0.097091
vt 0.493828 0.074807
vt 0.798703 0.994800
vt 0.379578 0.340714
vt 0.324610 0.340714
vt 0.853672 0.267313
vt 0.554883 0.097091
vt 0.593480 0.163943
vt 0.632077 0.141659
vt 0.049768 0.340714
vt 0.159705 0.340714
vt 0.434546 0.340714
vt 0.908640 0.994800
vt 0.269642 0.340714
vt 0.941266 0.115106
vt 0.941266 0.070538
vt 0.902669 0.048254
vt 0.798703 0.620855
vt 0.908640 0.797625
vt 0.406233 0.074807
vt 0.367636 0.141659
vt 0.444830 0.141659
vt 0.908640 0.620855
vt 0.489515 0.340714
vt 0.647067 0.043128
vt 0.685664 0.109980
vt 0.724261 0.087696
vt 0.544483 0.340714
vt 0.994800 0.377232
vt 0.956203 0.354948
vt 0.917606 0.377232
vt 0.214673 0.340714
vt 0.104737 0.340714
vt 0.798703 0.267313
vt 0.599451 0.340714
vt 0.853671 0.994800
vt 0.208702 0.074807
vt 0.170105 0.141659
vt 0.208702 0.163943
vt 0.798703 0.444084
vt 0.853672 0.797625
vt 0.853672 0.620855
vt 0.853672 0.444084
vt 0.357236 0.097091
vt 0.280042 0.097091
vt 0.318639 0.163943
vt 0.864072 0.239621
vt 0.743735 0.126490
vt 0.907206 0.352253
vt 0.048334 0.072112
vt 0.250799 0.994800
vt 0.315733 0.743092
vt 0.005200 0.743092
vt 0.250799 0.678157
vt 0.070134 0.678157
vt 0.700601 0.797625
vt 0.647067 0.994800
vt 0.571733 0.994800
vt 0.636667 0.743092
vt 0.326134 0.743092
vt 0.571733 0.678157
vt 0.391068 0.678157
vt 0.647067 0.797625
vt 0.700601 0.600451
vt 0.112268 0.163943
vt 0.690201 0.120381
vt 0.864072 0.341852
vt 0.058734 0.072112
vt 0.070134 0.351115
vt 0.005200 0.602823
vt 0.315733 0.602823
vt 0.070134 0.667757
vt 0.250799 0.667757
vt 0.700601 0.409386
vt 0.700601 0.994800
vt 0.391068 0.351115
vt 0.326134 0.602823
vt 0.636667 0.602823
vt 0.391068 0.667757
vt 0.571733 0.667757
vt 0.647067 0.600451
vt 0.690201 0.222612
vn -0.000010 0.610003 -0.792399
vn 0.686245 -0.610000 -0.396192
vn 0.000010 -0.610006 -0.792397
vn -0.686233 0.610003 0.396208
vn 0.000010 0.610006 0.792397
vn 0.686243 0.610003 0.396191
vn -0.000010 0.610003 -0.792399
vn 0.686243 -0.610003 -0.396191
vn 0.000010 -0.610006 -0.792397
vn 0.000010 0.610006 0.792397
vn -0.686241 -0.610006 0.396190
vn -0.000010 -0.610003 0.792399
vn 0.000010 0.610006 0.792397
vn -0.686247 -0.609996 0.396194
vn -0.000010 -0.610003 0.792399
vn 0.686237 0.609996 -0.396211
vn 0.686231 -0.610006 0.396207
vn 0.686243 -0.610003 -0.396191
vn -0.686247 -0.609996 0.396194
vn -0.686233 -0.610003 -0.396208
vn 0.686243 -0.610003 -0.396191
vn 0.686243 0.610003 0.396191
vn -0.000010 -0.610003 0.792399
vn 0.686231 -0.610006 0.396207
vn 0.686243 0.610003 0.396191
vn -0.000010 -0.610003 0.792399
vn 0.686231 -0.610006 0.396207
vn -0.686247 0.609996 -0.396194
vn 0.000010 -0.610006 -0.792397
vn -0.686233 -0.610003 -0.396208
vn 0.686231 0.610006 -0.396207
vn 0.686231 -0.610006 0.396207
vn 0.686243 -0.610003 -0.396191
vn 0.000010 0.610006 0.792397
vn -0.686247 -0.609996 0.396194
vn -0.000010 -0.610003 0.792399
vn -0.686233 0.610003 0.396208
vn 0.000010 0.610006 0.792397
vn 0.686243 0.610003 0.396191
vn -0.000010 0.610003 -0.792399
vn 0.686243 -0.610003 -0.396191
vn 0.000010 -0.610006 -0.792397
vn -0.686233 0.610003 0.396208
vn -0.686233 -0.610003 -0.396208
vn -0.686247 -0.609996 0.396194
vn -0.000010 0.610000 -0.792402
vn -0.686235 0.610000 0.396209
vn 0.686245 0.610000 0.396192
vn -0.686233 0.610003 0.396208
vn -0.686233 -0.610003 -0.396208
vn -0.686247 -0.609996 0.396194
vn -0.686241 0.610006 -0.396190
vn 0.000010 -0.610006 -0.792397
vn -0.686233 -0.610003 -0.396208
vn -0.686247 -0.609996 0.396194
vn -0.686233 -0.610003 -0.396208
vn 0.686243 -0.610003 -0.396191
vn 0.686231 0.610006 -0.396207
vn 0.686231 -0.610006 0.396207
vn 0.686245 -0.610000 -0.396192
vn -0.000010 -0.610003 0.792399
vn -0.686241 -0.610006 0.396190
vn -0.686233 -0.610003 -0.396208
vn 0.686245 0.610000 0.396192
vn -0.000010 -0.610003 0.792399
vn 0.686231 -0.610006 0.396207
vn 0.686243 0.610003 0.396191
vn -0.000010 -0.610000 0.792402
vn 0.686231 -0.610006 0.396207
vn -0.686241 0.610006 -0.396190
vn 0.000010 -0.609996 -0.792404
vn -0.686233 -0.610003 -0.396208
vn 0.686231 0.610006 -0.396207
vn 0.686231 -0.610006 0.396207
vn 0.686243 -0.610003 -0.396191
vn 0.000010 0.609996 0.792404
vn -0.686241 -0.610006 0.396190
vn -0.000010 -0.610000 0.792402
vn 0.000010 0.609996 0.792404
vn 0.686243 0.610003 0.396191
vn -0.000010 0.610003 -0.792399
vn -0.000010 0.610000 -0.792402
vn 0.686243 -0.610003 -0.396191
vn 0.000010 -0.609996 -0.792404
vn -0.686233 0.610003 0.396208
vn -0.686235 -0.610000 -0.396209
vn -0.686241 -0.610006 0.396190
vn -0.686235 0.610000 0.396209
vn -0.686233 -0.610003 -0.396208
vn -0.686241 -0.610006 0.396190
vn -0.686241 0.610006 -0.396190
vn 0.000010 -0.610006 -0.792397
vn -0.686235 -0.610000 -0.396209
vn 0.686245 -0.610000 -0.396192
vn -0.000010 -0.610000 0.792402
vn -0.686235 -0.610000 -0.396209
vn -0.297103 0.630262 0.717286
vn -0.717284 -0.630265 0.297102
vn -0.297109 -0.630276 0.717272
vn -0.297103 -0.630262 -0.717286
vn -0.717284 0.630265 -0.297102
vn -0.297109 0.630276 -0.717272
vn 0.717284 -0.630265 -0.297102
vn 0.297103 0.630262 -0.717287
vn 0.717282 0.630262 -0.297114
vn 0.297103 -0.630262 0.717287
vn 0.717284 0.630265 0.297102
vn 0.297109 0.630276 0.717271
vn -0.297109 -0.630276 0.717272
vn -0.717284 -0.630265 0.297102
vn -0.297103 -0.630262 -0.717286
vn -0.717282 0.630262 0.297114
vn -0.717282 -0.630262 -0.297114
vn -0.717284 -0.630265 0.297102
vn 0.297109 0.630276 0.717271
vn -0.297109 -0.630276 0.717272
vn 0.297103 -0.630262 0.717287
vn 0.297109 0.630276 0.717271
vn 0.717284 0.630265 0.297102
vn 0.297103 0.630262 -0.717287
vn -0.297109 0.630276 -0.717272
vn 0.297109 -0.630276 -0.717271
vn -0.297103 -0.630262 -0.717286
vn 0.717282 0.630262 -0.297114
vn 0.717282 -0.630262 0.297114
vn 0.717284 -0.630265 -0.297102
vn -0.297103 -0.717286 0.630262
vn -0.717284 -0.297102 -0.630265
vn -0.297109 -0.717271 -0.630276
vn -0.297103 0.717286 -0.630262
vn -0.717284 0.297102 0.630265
vn -0.297109 0.717271 0.630276
vn 0.717284 0.297102 -0.630265
vn 0.297103 0.717286 0.630262
vn 0.717282 0.297114 0.630262
vn 0.297101 -0.717268 0.630283
vn 0.717279 -0.297106 -0.630269
vn 0.717287 -0.297110 0.630258
vn -0.297109 -0.717271 -0.630276
vn -0.717284 -0.297102 -0.630265
vn -0.297103 0.717286 -0.630262
vn -0.717282 -0.297114 0.630262
vn -0.717282 0.297114 -0.630262
vn -0.717284 -0.297102 -0.630265
vn 0.297101 -0.717268 0.630283
vn -0.297109 -0.717271 -0.630276
vn 0.297111 -0.717290 -0.630254
vn 0.297101 -0.717268 0.630283
vn 0.717287 -0.297110 0.630258
vn 0.297103 0.717286 0.630262
vn -0.297109 0.717271 0.630276
vn 0.297110 0.717271 -0.630276
vn -0.297103 0.717286 -0.630262
vn 0.717282 0.297114 0.630262
vn 0.717279 -0.297106 -0.630269
vn 0.717284 0.297102 -0.630265
vn 0.686231 0.610006 -0.396207
vn 0.686231 0.610006 -0.396207
vn -0.000010 0.610003 -0.792399
vn -0.686247 0.609996 -0.396194
vn 0.686237 0.609996 -0.396211
vn -0.686235 0.610000 0.396209
vn -0.686233 0.610003 0.396208
vn 0.686243 0.610003 0.396191
vn 0.000010 -0.610006 -0.792397
vn 0.686231 -0.610006 0.396207
vn -0.000010 -0.610003 0.792399
vn 0.000010 0.610006 0.792397
vn 0.000010 0.610006 0.792397
vn -0.000010 0.610003 -0.792399
vn 0.686243 0.610003 0.396191
vn -0.686233 0.610003 0.396208
vn 0.686237 0.609996 -0.396211
vn -0.000010 0.610003 -0.792399
vn -0.686241 0.610006 -0.396190
vn 0.686231 0.610006 -0.396207
vn -0.686241 0.610006 -0.396190
vn 0.686231 0.610006 -0.396207
vn -0.686241 0.610006 -0.396190
vn 0.000010 0.610006 0.792397
vn -0.686247 0.609996 -0.396194
vn -0.000010 0.610003 -0.792399
vn 0.000010 -0.610006 -0.792397
vn 0.686231 -0.610006 0.396207
vn -0.000010 -0.610003 0.792399
vn 0.686243 0.610003 0.396191
vn 0.000010 -0.609996 -0.792404
vn 0.686243 -0.610003 -0.396191
vn 0.686231 -0.610006 0.396207
vn 0.000010 0.610006 0.792397
vn 0.000010 0.609996 0.792404
vn -0.000010 0.610000 -0.792402
vn 0.686245 0.610000 0.396192
vn -0.686233 0.610003 0.396208
vn 0.686231 0.610006 -0.396207
vn -0.686241 0.610006 -0.396190
vn -0.686233 0.610003 0.396208
vn 0.686231 0.610006 -0.396207
vn -0.686241 0.610006 -0.396190
vn -0.686241 0.610006 -0.396190
vn -0.000010 0.610003 -0.792399
vn 0.000010 -0.610006 -0.792397
vn 0.686231 -0.610006 0.396207
vn -0.686241 -0.610006 0.396190
vn -0.717282 0.630262 0.297114
vn -0.717282 -0.630262 -0.297114
vn 0.297109 -0.630276 -0.717271
vn 0.717282 -0.630262 0.297114
vn -0.717282 -0.630262 -0.297114
vn 0.297109 -0.630276 -0.717271
vn 0.297103 -0.630262 0.717287
vn 0.717284 -0.630265 -0.297102
vn 0.717282 -0.630262 0.297114
vn -0.717284 0.630265 -0.297102
vn -0.297103 0.630262 0.717286
vn 0.717282 0.630262 -0.297114
vn -0.297109 0.630276 -0.717272
vn -0.297103 0.630262 0.717286
vn -0.717284 0.630265 -0.297102
vn -0.717282 0.630262 0.297114
vn 0.297103 0.630262 -0.717287
vn 0.717284 0.630265 0.297102
vn -0.717282 -0.297114 0.630262
vn -0.717282 0.297114 -0.630262
vn 0.297110 0.717271 -0.630276
vn 0.297111 -0.717290 -0.630254
vn -0.717282 0.297114 -0.630262
vn 0.297110 0.717271 -0.630276
vn 0.297111 -0.717290 -0.630254
vn 0.717284 0.297102 -0.630265
vn 0.717279 -0.297106 -0.630269
vn -0.717284 0.297102 0.630265
vn -0.297103 -0.717286 0.630262
vn 0.717282 0.297114 0.630262
vn -0.297109 0.717271 0.630276
vn -0.297103 -0.717286 0.630262
vn -0.717284 0.297102 0.630265
vn -0.717282 -0.297114 0.630262
vn 0.297103 0.717286 0.630262
vn 0.717287 -0.297110 0.630258
f 1/1/1 2/2/2 3/3/3
f 4/4/4 5/5/5 6/6/6
f 7/7/7 8/8/8 9/9/9
f 10/10/10 11/11/11 12/12/12
f 13/13/13 14/14/14 15/15/15
f 16/16/16 17/17/17 18/18/18
f 19/19/19 20/20/20 21/21/21
f 22/22/22 23/23/23 24/24/24
f 25/25/25 26/26/26 27/27/27
f 28/28/28 29/29/29 30/30/30
f 31/31/31 32/32/32 33/33/33
f 34/34/34 35/35/35 36/36/36
f 37/37/37 38/38/38 39/39/39
f 40/40/40 41/41/41 42/42/42
f 43/43/43 44/44/44 45/45/45
f 46/46/46 47/47/47 48/48/48
f 49/49/49 50/50/50 51/51/51
f 52/52/52 53/53/53 54/54/54
f 55/55/55 56/56/56 57/57/57
f 58/58/58 59/59/59 60/60/60
f 61/61/61 62/62/62 63/63/63
f 64/64/64 65/65/65 66/66/66
f 67/67/67 68/68/68 69/69/69
f 70/70/70 71/71/71 72/72/72
f 73/73/73 74/74/74 75/75/75
f 76/76/76 77/77/77 78/78/78
f 79/79/79 80/80/80 81/81/81
f 82/82/82 83/83/83 84/84/84
f 85/85/85 86/86/86 87/87/87
f 88/88/88 89/89/89 90/90/90
f 91/91/91 92/92/92 93/93/93
f 94/94/94 95/95/95 96/96/96
f 97/97/97 98/98/98 99/99/99
f 100/100/100 101/101/101 102/102/102
f 103/103/103 104/104/104 105/105/105
f 106/106/106 107/107/107 108/108/108
f 109/109/109 110/110/110 111/111/111
f 112/112/112 113/113/113 114/114/114
f 115/115/115 116/116/116 117/117/117
f 118/118/118 119/119/119 120/120/120
f 121/121/121 122/122/122 123/123/123
f 124/124/124 125/125/125 126/126/126
f 127/127/127 128/128/128 129/129/129
f 130/130/130 131/131/131 132/132/132
f 133/133/133 134/134/134 135/135/135
f 136/136/136 137/137/137 138/138/138
f 139/139/139 140/140/140 141/141/141
f 142/142/142 143/143/143 144/144/144
f 145/145/145 146/146/146 147/147/147
f 148/148/148 149/149/149 150/150/150
f 151/151/151 152/152/152 153/153/153
f 154/154/154 155/155/155 156/156/156
f 1/1/1 157/157/157 2/2/2
f 6/6/6 158/158/158 159/159/159
f 159/159/159 160/160/160 6/6/6
f 160/160/160 4/4/4 6/6/6
f 7/7/7 161/161/161 8/8/8
f 10/10/10 162/162/162 11/11/11
f 13/13/13 163/163/163 14/14/14
f 16/16/16 164/164/164 17/17/17
f 20/20/20 165/165/165 21/21/21
f 21/21/21 166/166/166 167/167/167
f 167/167/167 19/19/19 21/21/21
f 22/22/22 168/168/168 23/23/23
f 25/25/25 169/169/169 26/26/26
f 28/28/28 170/170/170 29/29/29
f 31/31/31 171/171/171 32/32/32
f 34/34/34 172/172/172 35/35/35
f 39/39/39 173/173/173 37/37/37
f 173/173/173 174/174/174 37/37/37
f 174/174/174 175/175/175 37/37/37
f 40/40/40 176/176/176 41/41/41
f 43/43/43 177/177/177 44/44/44
f 48/48/48 178/178/178 46/46/46
f 46/46/46 179/179/179 47/47/47
f 47/47/47 180/180/180 48/48/48
f 49/49/49 181/181/181 50/50/50
f 52/52/52 182/182/182 53/53/53
f 56/56/56 183/183/183 57/57/57
f 57/57/57 184/184/184 185/185/185
f 185/185/185 55/55/55 57/57/57
f 58/58/58 186/186/186 59/59/59
f 63/63/63 187/187/187 61/61/61
f 187/187/187 188/188/188 61/61/61
f 188/188/188 189/189/189 61/61/61
f 64/64/64 190/190/190 65/65/65
f 67/67/67 191/191/191 68/68/68
f 70/70/70 192/192/192 71/71/71
f 73/73/73 193/193/193 74/74/74
f 76/76/76 194/194/194 77/77/77
f 80/80/80 195/195/195 81/81/81
f 81/81/81 196/196/196 197/197/197
f 197/197/197 79/79/79 81/81/81
f 82/82/82 198/198/198 83/83/83
f 85/85/85 199/199/199 86/86/86
f 88/88/88 200/200/200 89/89/89
f 91/91/91 201/201/201 92/92/92
f 96/96/96 202/202/202 94/94/94
f 94/94/94 203/203/203 95/95/95
f 95/95/95 204/204/204 96/96/96
f 97/97/97 205/205/205 98/98/98
f 100/100/100 206/206/206 101/101/101
f 103/103/103 207/207/207 104/104/104
f 106/106/106 208/208/208 107/107/107
f 110/110/110 209/209/209 111/111/111
f 111/111/111 210/210/210 211/211/211
f 210/210/210 212/212/212 211/211/211
f 212/212/212 213/213/213 211/211/211
f 211/211/211 109/109/109 111/111/111
f 112/112/112 214/214/214 113/113/113
f 115/115/115 215/215/215 116/116/116
f 119/119/119 216/216/216 120/120/120
f 120/120/120 217/217/217 218/218/218
f 217/217/217 219/219/219 218/218/218
f 219/219/219 220/220/220 218/218/218
f 218/218/218 118/118/118 120/120/120
f 121/121/121 221/221/221 122/122/122
f 124/124/124 222/222/222 125/125/125
f 127/127/127 223/223/223 128/128/128
f 130/130/130 224/224/224 131/131/131
f 133/133/133 225/225/225 134/134/134
f 136/136/136 226/226/226 137/137/137
f 140/140/140 227/227/227 141/141/141
f 141/141/141 228/228/228 229/229/229
f 228/228/228 230/230/230 229/229/229
f 230/230/230 231/231/231 229/229/229
f 229/229/229 139/139/139 141/141/141
f 142/142/142 232/232/232 143/143/143
f 145/145/145 233/233/233 146/146/146
f 149/149/149 234/234/234 150/150/150
f 150/150/150 235/235/235 236/236/236
f 235/235/235 237/237/237 236/236/236
f 237/237/237 238/238/238 236/236/236
f 236/236/236 148/148/148 150/150/150
f 151/151/151 239/239/239 152/152/152
f 154/154/154 240/240/240 155/155/155
