# f_clock -- imported by tools/import_asset_pack.py from f_clock.fbx
o __pending__
v 8.605159 -1.154253 -0.240617
v 8.909766 -1.849853 -0.240617
v 8.605159 -1.849853 -0.240617
v 8.909766 -1.154253 -0.240617
v 8.909766 -1.849852 0.320988
v 8.909766 -1.849853 -0.240617
v 8.909766 -0.657355 0.320988
v 8.605159 -0.436467 0.320988
v 8.850404 -0.695330 0.320988
v 8.300551 -0.657355 -0.240617
v 8.198247 -1.154478 -0.240617
v 8.205334 -0.619922 -0.240618
v 8.300551 -1.154253 0.320988
v 8.300551 -1.849853 -0.240617
v 8.300551 -1.849852 0.320988
v 8.909766 -1.154253 0.320988
v 8.805846 -1.794149 0.320988
v 8.909766 -1.849852 0.320988
v 8.300551 -1.849852 0.320988
v 8.605159 -1.849852 0.382993
v 8.605159 -1.849852 0.320988
v 8.909766 -1.849852 0.320988
v 8.971771 -1.849853 -0.302622
v 8.909766 -1.849853 -0.240617
v 8.605159 -1.849853 -0.302622
v 8.605159 -1.849853 -0.240617
v 8.300551 -1.849853 -0.240617
v 8.238546 -1.849852 0.382993
v 8.605159 -2.097952 -0.295037
v 8.960393 -2.222002 -0.291244
v 8.605159 -2.222002 -0.291244
v 8.960393 -2.222002 -0.291244
v 8.605159 -2.222002 0.371615
v 8.605159 -2.222002 -0.291244
v 8.964186 -2.097952 0.375408
v 8.960393 -2.222002 -0.291244
v 8.964186 -2.097952 -0.295037
v 8.605159 -2.097952 0.375408
v 8.249925 -2.222002 0.371615
v 8.605159 -2.222002 0.371615
v 8.246132 -2.097952 -0.295037
v 8.249925 -2.222002 0.371615
v 8.246132 -2.097952 0.375408
v 8.605159 -0.335833 -0.240618
v 8.909766 -1.154253 -0.240617
v 9.012071 -1.154478 0.320988
v 8.909766 -1.154253 0.320988
v 8.605159 -0.233530 0.320988
v 9.004984 -0.619922 0.376513
v 9.004984 -0.619922 0.320988
v 8.909766 -0.657355 -0.240617
v 8.909766 -1.154253 -0.240617
v 8.960393 -2.222002 0.371615
v 8.964186 -2.097952 0.375408
v 8.249925 -2.222002 0.371615
v 8.249925 -2.222002 -0.291244
v 8.249925 -2.222002 -0.291244
v 8.246132 -2.097952 -0.295037
v 8.238546 -1.849853 -0.302622
v 8.971771 -1.849852 0.382993
v 8.605159 -1.849852 0.320988
v 8.404471 -1.794149 0.320988
v 8.300551 -1.849852 0.320988
v 8.909766 -1.154253 0.320988
v 8.909766 -0.657355 0.376513
v 8.909766 -0.657355 0.320988
v 8.300551 -0.657355 0.320988
v 8.359914 -1.095392 0.320988
v 8.359914 -0.695330 0.320988
v 8.300551 -1.154253 -0.240617
v 8.300551 -1.849853 -0.240617
v 8.205334 -0.619922 -0.240618
v 8.605159 -0.233530 0.320988
v 8.605159 -0.233530 -0.240618
v 9.012071 -1.154478 -0.240617
v 9.004984 -0.619922 0.320988
v 9.012071 -1.154478 0.320988
v 8.198247 -1.154478 0.320988
v 8.205334 -0.619922 -0.240618
v 8.198247 -1.154478 -0.240617
v 8.605159 -0.233530 -0.240618
v 9.004984 -0.619922 -0.240618
v 8.605159 -0.233530 -0.240618
v 9.012071 -1.154478 0.376513
v 9.012071 -1.154478 -0.240617
v 9.004984 -0.619922 -0.240618
v 8.605159 -0.335833 0.320988
v 8.300551 -0.657355 0.376513
v 8.300551 -0.657355 0.320988
v 8.300551 -1.154253 0.320988
v 8.198247 -1.154478 -0.240617
v 8.300551 -1.154253 -0.240617
v 8.605159 -0.335833 0.376513
v 9.004984 -0.619922 0.376513
v 8.605159 -0.233530 0.376513
v 8.300551 -0.657355 0.376513
v 8.198247 -1.154478 0.376513
v 8.300551 -1.154253 0.376513
v 8.205334 -0.619922 0.376513
v 8.909766 -0.657355 0.376513
v 9.012071 -1.154478 0.376513
v 8.205334 -0.619922 0.376513
v 8.205334 -0.619922 0.320988
v 8.205334 -0.619922 0.320988
v 8.605159 -0.233530 0.376513
v 8.300551 -0.657355 0.320988
v 8.300551 -1.154253 0.376513
v 8.300551 -1.154253 0.320988
v 8.909766 -0.657355 0.320988
v 8.605159 -0.335833 0.376513
v 8.605159 -0.335833 0.320988
v 8.198247 -1.154478 0.376513
v 8.198247 -1.154478 0.320988
v 8.909766 -1.154253 0.376513
v 8.359914 -1.095392 0.320988
v 8.359914 -0.695330 0.241654
v 8.359914 -0.695330 0.320988
v 8.605159 -0.436467 0.320988
v 8.850404 -0.695330 0.241654
v 8.850404 -0.695330 0.320988
v 8.605159 -1.154253 0.320988
v 8.850404 -1.095392 0.320988
v 8.605159 -1.095392 0.320988
v 8.300551 -1.154253 0.320988
v 8.605159 -0.335833 0.320988
v 8.605159 -1.095392 0.241654
v 8.850404 -0.695330 0.241654
v 8.605159 -0.436467 0.241654
v 8.359914 -0.695330 0.241654
v 8.359914 -1.095392 0.241654
v 8.359914 -0.695330 0.320988
v 8.605159 -0.436467 0.241654
v 8.605159 -0.436467 0.320988
v 8.850404 -1.095392 0.320988
v 8.605159 -1.095392 0.241654
v 8.605159 -1.095392 0.320988
v 8.850404 -0.695330 0.320988
v 8.850404 -1.095392 0.241654
v 8.850404 -1.095392 0.320988
v 8.359914 -1.095392 0.241654
v 8.359914 -1.095392 0.320988
v 8.605159 -1.794149 0.320988
v 8.404471 -1.794149 0.009455
v 8.404471 -1.794149 0.320988
v 8.805846 -1.209957 0.320988
v 8.805846 -1.794149 0.009455
v 8.805846 -1.794149 0.320988
v 8.605159 -1.794149 0.320988
v 8.404471 -1.209957 0.320988
v 8.805846 -1.209957 0.320988
v 8.605159 -1.209957 0.320988
v 8.605159 -1.209957 0.009455
v 8.404471 -1.794149 0.009455
v 8.605159 -1.794149 0.009455
v 8.805846 -1.209957 0.009455
v 8.805846 -1.794149 0.009455
v 8.805846 -1.794149 0.320988
v 8.605159 -1.794149 0.009455
v 8.404471 -1.209957 0.320988
v 8.605159 -1.209957 0.009455
v 8.605159 -1.209957 0.320988
v 8.805846 -1.209957 0.009455
v 8.805846 -1.209957 0.320988
v 8.404471 -1.794149 0.320988
v 8.404471 -1.209957 0.009455
v 8.404471 -1.209957 0.320988
v 8.608715 -1.529012 0.062899
v 8.686041 -1.573656 0.017471
v 8.608715 -1.529012 0.017471
v 8.686041 -1.573656 0.062899
v 8.686041 -1.662944 0.017471
v 8.686041 -1.573656 0.017471
v 8.686041 -1.662944 0.062899
v 8.608715 -1.707589 0.017471
v 8.686041 -1.662944 0.017471
v 8.608715 -1.707589 0.062899
v 8.531388 -1.662944 0.017471
v 8.608715 -1.707589 0.017471
v 8.608715 -1.707589 0.062899
v 8.686041 -1.662944 0.062899
v 8.608715 -1.529012 0.062899
v 8.531388 -1.662944 0.062899
v 8.531388 -1.573656 0.017471
v 8.531388 -1.662944 0.017471
v 8.531388 -1.573656 0.062899
v 8.608715 -1.529012 0.017471
v 8.531388 -1.573656 0.017471
v 8.686041 -1.573656 0.017471
v 8.608715 -1.707589 0.017471
v 8.531388 -1.573656 0.017471
v 8.609155 -1.118812 -0.000441
v 8.632612 -1.594918 0.013102
v 8.609155 -1.594918 -0.000441
v 8.632612 -1.118812 0.013102
v 8.632612 -1.594918 0.040189
v 8.632612 -1.594918 0.013102
v 8.632612 -1.118812 0.040189
v 8.609155 -1.594918 0.053732
v 8.632612 -1.594918 0.040189
v 8.609155 -1.118812 0.053732
v 8.585698 -1.594918 0.040189
v 8.609155 -1.594918 0.053732
v 8.609155 -1.118812 -0.000441
v 8.585698 -1.118812 0.040189
v 8.632612 -1.118812 0.040189
v 8.585698 -1.118812 0.040189
v 8.585698 -1.594918 0.013102
v 8.585698 -1.594918 0.040189
v 8.585698 -1.118812 0.013102
v 8.609155 -1.594918 -0.000441
v 8.585698 -1.594918 0.013102
v 8.609155 -1.594918 0.053732
v 8.585698 -1.594918 0.040189
v 8.585698 -1.594918 0.013102
v 8.608356 -0.620060 0.262146
v 8.805626 -0.733954 0.165089
v 8.608356 -0.620060 0.165088
v 8.805626 -0.733954 0.262146
v 8.805626 -0.961742 0.165089
v 8.805626 -0.733954 0.165089
v 8.805626 -0.961742 0.165089
v 8.608356 -1.075636 0.262146
v 8.608356 -1.075636 0.165089
v 8.608356 -1.075636 0.262146
v 8.411085 -0.961742 0.165089
v 8.608356 -1.075636 0.165089
v 8.608356 -0.620060 0.262146
v 8.411085 -0.961742 0.262146
v 8.805626 -0.961742 0.262146
v 8.411085 -0.961742 0.262146
v 8.411085 -0.733954 0.165089
v 8.411085 -0.961742 0.165089
v 8.411085 -0.733954 0.262146
v 8.608356 -0.620060 0.165088
v 8.411085 -0.733954 0.165089
v 8.608356 -1.075636 0.165089
v 8.411085 -0.961742 0.165089
v 8.411085 -0.733954 0.165089
v 8.605159 -1.849853 -0.302622
v 8.242339 -1.973902 -0.298829
v 8.238546 -1.849853 -0.302622
v 8.605159 -2.097952 0.375408
v 8.925329 -2.095576 0.336551
v 8.605159 -2.096271 0.320430
v 8.605159 -1.849852 0.382993
v 8.967978 -1.973902 0.379200
v 8.971771 -1.849852 0.382993
v 8.605159 -1.973902 0.379200
v 8.281196 -1.971526 0.340344
v 8.605159 -1.972221 0.324223
v 8.238546 -1.849853 -0.302622
v 8.242339 -1.973902 0.379200
v 8.238546 -1.849852 0.382993
v 8.964186 -2.097952 -0.295037
v 8.925329 -2.095576 0.336551
v 8.964186 -2.097952 0.375408
v 8.242339 -1.973902 0.379200
v 8.605159 -1.973902 0.379200
v 8.605159 -1.973902 0.379200
v 8.929122 -1.971526 0.340344
v 8.967978 -1.973902 0.379200
v 8.971771 -1.849852 0.382993
v 8.967978 -1.973902 -0.298829
v 8.971771 -1.849853 -0.302622
v 8.246132 -2.097952 0.375408
v 8.284988 -2.095576 -0.256180
v 8.246132 -2.097952 -0.295037
v 8.967978 -1.973902 -0.298829
v 8.605159 -1.973902 -0.298829
v 8.967978 -1.973902 0.379200
v 8.929122 -1.971526 -0.259973
v 8.967978 -1.973902 -0.298829
v 8.605159 -1.972221 -0.243852
v 8.284988 -2.095576 -0.256180
v 8.281196 -1.971526 -0.259973
v 8.605159 -1.972221 0.324223
v 8.925329 -2.095576 0.336551
v 8.929122 -1.971526 0.340344
v 8.281196 -1.971526 -0.259973
v 8.284988 -2.095576 0.336551
v 8.281196 -1.971526 0.340344
v 8.605159 -1.972221 0.324223
v 8.284988 -2.095576 0.336551
v 8.605159 -2.096271 0.320430
v 8.929122 -1.971526 0.340344
v 8.925329 -2.095576 -0.256180
v 8.929122 -1.971526 -0.259973
v 8.605159 -1.972221 -0.243852
v 8.925329 -2.095576 -0.256180
v 8.605159 -2.096271 -0.240060
v 8.605159 -1.973902 -0.298829
v 8.929122 -1.971526 -0.259973
v 8.605159 -1.972221 -0.243852
v 8.605159 -1.973902 -0.298829
v 8.281196 -1.971526 -0.259973
v 8.242339 -1.973902 -0.298829
v 8.605159 -2.097952 0.375408
v 8.284988 -2.095576 0.336551
v 8.246132 -2.097952 0.375408
v 8.242339 -1.973902 0.379200
v 8.281196 -1.971526 -0.259973
v 8.281196 -1.971526 0.340344
v 8.605159 -2.097952 -0.295037
v 8.925329 -2.095576 -0.256180
v 8.964186 -2.097952 -0.295037
v 8.605159 -2.097952 -0.295037
v 8.284988 -2.095576 -0.256180
v 8.605159 -2.096271 -0.240060
v 8.909766 -1.154253 0.320988
v 8.300551 -1.154253 -0.240617
v 8.964186 -2.097952 -0.295037
v 8.960393 -2.222002 0.371615
v 8.960393 -2.222002 0.371615
v 8.246132 -2.097952 0.375408
v 8.249925 -2.222002 -0.291244
v 9.012071 -1.154478 -0.240617
v 8.605159 -0.233530 0.376513
v 8.909766 -1.154253 0.376513
v 9.004984 -0.619922 -0.240618
v 9.004984 -0.619922 0.376513
v 8.605159 -0.335833 0.376513
v 8.909766 -1.154253 0.376513
v 8.198247 -1.154478 0.376513
v 8.205334 -0.619922 0.376513
v 8.300551 -0.657355 0.376513
v 8.909766 -0.657355 0.376513
v 8.300551 -1.154253 0.376513
v 9.012071 -1.154478 0.376513
v 8.359914 -1.095392 0.241654
v 8.605159 -0.436467 0.241654
v 8.850404 -1.095392 0.241654
v 8.359914 -0.695330 0.241654
v 8.850404 -1.095392 0.241654
v 8.850404 -0.695330 0.241654
v 8.805846 -1.209957 0.009455
v 8.404471 -1.209957 0.009455
v 8.805846 -1.794149 0.009455
v 8.404471 -1.209957 0.009455
v 8.404471 -1.794149 0.009455
v 8.686041 -1.573656 0.062899
v 8.686041 -1.662944 0.062899
v 8.608715 -1.707589 0.062899
v 8.531388 -1.662944 0.062899
v 8.686041 -1.573656 0.062899
v 8.531388 -1.573656 0.062899
v 8.531388 -1.662944 0.062899
v 8.531388 -1.573656 0.062899
v 8.608715 -1.529012 0.062899
v 8.608715 -1.529012 0.017471
v 8.686041 -1.662944 0.017471
v 8.531388 -1.662944 0.017471
v 8.632612 -1.118812 0.013102
v 8.632612 -1.118812 0.040189
v 8.609155 -1.118812 0.053732
v 8.585698 -1.118812 0.040189
v 8.632612 -1.118812 0.013102
v 8.585698 -1.118812 0.013102
v 8.609155 -1.118812 0.053732
v 8.585698 -1.118812 0.013102
v 8.609155 -1.118812 -0.000441
v 8.609155 -1.594918 -0.000441
v 8.632612 -1.594918 0.013102
v 8.632612 -1.594918 0.040189
v 8.805626 -0.733954 0.262146
v 8.805626 -0.961742 0.262146
v 8.805626 -0.961742 0.262146
v 8.411085 -0.961742 0.262146
v 8.805626 -0.733954 0.262146
v 8.411085 -0.733954 0.262146
v 8.608356 -1.075636 0.262146
v 8.411085 -0.733954 0.262146
v 8.608356 -0.620060 0.262146
v 8.608356 -0.620060 0.165088
v 8.805626 -0.733954 0.165089
v 8.805626 -0.961742 0.165089
v 8.964186 -2.097952 0.375408
v 8.242339 -1.973902 0.379200
v 8.242339 -1.973902 -0.298829
v 8.925329 -2.095576 -0.256180
v 8.238546 -1.849852 0.382993
v 8.605159 -1.972221 0.324223
v 8.967978 -1.973902 0.379200
v 8.284988 -2.095576 0.336551
v 8.971771 -1.849853 -0.302622
v 8.929122 -1.971526 0.340344
v 8.605159 -2.096271 -0.240060
v 8.605159 -2.096271 0.320430
v 8.284988 -2.095576 -0.256180
v 8.281196 -1.971526 0.340344
v 8.925329 -2.095576 0.336551
v 8.929122 -1.971526 -0.259973
v 8.967978 -1.973902 -0.298829
v 8.605159 -1.972221 -0.243852
v 8.605159 -2.096271 0.320430
v 8.242339 -1.973902 -0.298829
v 8.605159 -2.096271 -0.240060
v 8.246132 -2.097952 -0.295037
vt 0.117853 0.740740
vt 0.201684 0.549303
vt 0.117853 0.549303
vt 0.420965 0.515425
vt 0.575525 0.323987
vt 0.420965 0.323987
vt 0.241570 0.905648
vt 0.325402 0.966439
vt 0.257908 0.895196
vt 0.034021 0.877493
vt 0.005865 0.740678
vt 0.007816 0.887795
vt 0.587256 0.515425
vt 0.741817 0.323987
vt 0.587256 0.323987
vt 0.241570 0.768895
vt 0.270170 0.592788
vt 0.241570 0.577457
vt 0.438029 0.544220
vt 0.420965 0.628051
vt 0.438029 0.628051
vt 0.438029 0.711883
vt 0.609654 0.728948
vt 0.592590 0.711883
vt 0.609654 0.628051
vt 0.592590 0.628051
vt 0.592590 0.544220
vt 0.420965 0.527155
vt 0.333343 0.466918
vt 0.367499 0.564683
vt 0.367499 0.466918
vt 0.188292 0.342042
vt 0.005865 0.439807
vt 0.188292 0.439807
vt 0.702556 0.994135
vt 0.736712 0.810664
vt 0.702556 0.809620
vt 0.621385 0.630139
vt 0.655541 0.727904
vt 0.655541 0.630139
vt 0.713158 0.728948
vt 0.747314 0.545477
vt 0.713158 0.544433
vt 0.117853 0.965980
vt 0.770887 0.994135
vt 0.799043 0.839574
vt 0.770887 0.839574
vt 0.005865 0.315030
vt 0.158889 0.330312
vt 0.158889 0.315030
vt 0.201684 0.877493
vt 0.201684 0.740740
vt 0.655541 0.532374
vt 0.621385 0.531330
vt 0.005865 0.537572
vt 0.188292 0.537572
vt 0.367499 0.369153
vt 0.333343 0.368110
vt 0.609654 0.527155
vt 0.420965 0.728948
vt 0.325402 0.577457
vt 0.380634 0.592788
vt 0.409234 0.577457
vt 0.403571 0.215451
vt 0.388290 0.352204
vt 0.403571 0.352204
vt 0.409234 0.905648
vt 0.392897 0.785094
vt 0.392897 0.895196
vt 0.034021 0.740740
vt 0.034021 0.549303
vt 0.573988 0.312256
vt 0.420965 0.157696
vt 0.420965 0.312256
vt 0.734385 0.142414
vt 0.587256 0.296975
vt 0.734385 0.296975
vt 0.893245 0.157696
vt 0.746116 0.312256
vt 0.893245 0.312256
vt 0.005865 0.160469
vt 0.158889 0.160469
vt 0.117853 0.994135
vt 0.734385 0.312256
vt 0.229840 0.740678
vt 0.227889 0.887795
vt 0.170620 0.187551
vt 0.185901 0.065659
vt 0.170620 0.065659
vt 0.759045 0.713666
vt 0.787200 0.559106
vt 0.759045 0.559106
vt 0.532952 0.965980
vt 0.422915 0.887795
vt 0.532952 0.994135
vt 0.616784 0.877493
vt 0.644939 0.740678
vt 0.616784 0.740740
vt 0.642989 0.887795
vt 0.449120 0.877493
vt 0.420965 0.740678
vt 0.746116 0.142414
vt 0.746116 0.157696
vt 0.573988 0.157696
vt 0.420965 0.142414
vt 0.200023 0.339239
vt 0.215304 0.202487
vt 0.200023 0.202487
vt 0.948248 0.872242
vt 0.932967 0.994135
vt 0.948248 0.994135
vt 0.787200 0.728948
vt 0.787200 0.713666
vt 0.770887 0.824293
vt 0.926810 0.055435
vt 0.904976 0.165537
vt 0.926810 0.165537
vt 0.746116 0.130684
vt 0.767950 0.032546
vt 0.746116 0.032546
vt 0.325402 0.768895
vt 0.257908 0.785094
vt 0.325402 0.785094
vt 0.409234 0.768895
vt 0.325402 0.994135
vt 0.309065 0.170859
vt 0.241570 0.280961
vt 0.309065 0.352204
vt 0.376559 0.280961
vt 0.376559 0.170859
vt 0.718335 0.032546
vt 0.696501 0.130684
vt 0.718335 0.130684
vt 0.904976 0.312256
vt 0.926810 0.244762
vt 0.904976 0.244762
vt 0.932967 0.860512
vt 0.954801 0.750410
vt 0.932967 0.750410
vt 0.926810 0.177267
vt 0.904976 0.177267
vt 0.420965 0.075452
vt 0.506702 0.020220
vt 0.420965 0.020220
vt 0.821878 0.515425
vt 0.907616 0.354647
vt 0.821878 0.354647
vt 0.325402 0.592788
vt 0.380634 0.753565
vt 0.270170 0.753565
vt 0.325402 0.753565
vt 0.866005 0.994135
vt 0.921237 0.833358
vt 0.866005 0.833358
vt 0.810773 0.994135
vt 0.810773 0.833358
vt 0.420965 0.130684
vt 0.506702 0.075452
vt 0.518433 0.130684
vt 0.604170 0.075452
vt 0.518433 0.075452
vt 0.604170 0.020220
vt 0.518433 0.020220
vt 0.930555 0.568171
vt 0.844817 0.728948
vt 0.930555 0.728948
vt 0.374386 0.159129
vt 0.361884 0.134555
vt 0.361884 0.159129
vt 0.811433 0.552003
vt 0.798931 0.527429
vt 0.798931 0.552003
vt 0.859898 0.552003
vt 0.847396 0.527429
vt 0.847396 0.552003
vt 0.871453 0.106110
vt 0.883955 0.130684
vt 0.883955 0.106110
vt 0.699232 0.756854
vt 0.677951 0.744568
vt 0.656670 0.781428
vt 0.823163 0.527429
vt 0.835665 0.552003
vt 0.835665 0.527429
vt 0.871629 0.527429
vt 0.884131 0.552003
vt 0.884131 0.527429
vt 0.753525 0.756854
vt 0.710962 0.756854
vt 0.732243 0.793714
vt 0.200023 0.190756
vt 0.207477 0.059726
vt 0.200023 0.059726
vt 0.401675 0.565727
vt 0.409129 0.434697
vt 0.401675 0.434697
vt 0.919347 0.515425
vt 0.926801 0.384394
vt 0.919347 0.384394
vt 0.388290 0.203721
vt 0.395744 0.072690
vt 0.388290 0.072690
vt 0.771956 0.536193
vt 0.759044 0.536193
vt 0.765500 0.547375
vt 0.170620 0.330312
vt 0.178074 0.199281
vt 0.170620 0.199281
vt 0.219208 0.190756
vt 0.226662 0.059726
vt 0.219208 0.059726
vt 0.834790 0.339190
vt 0.834790 0.331735
vt 0.828334 0.328008
vt 0.965243 0.403841
vt 0.938532 0.341151
vt 0.938532 0.403841
vt 0.874482 0.812562
vt 0.847771 0.749872
vt 0.847771 0.812562
vt 0.809329 0.812562
vt 0.836040 0.749872
vt 0.809329 0.749872
vt 0.770887 0.749872
vt 0.797598 0.812562
vt 0.797598 0.749872
vt 0.295862 0.159129
vt 0.350153 0.065094
vt 0.241570 0.065094
vt 0.886213 0.749872
vt 0.912924 0.812562
vt 0.912924 0.749872
vt 0.938540 0.026400
vt 0.965252 0.089090
vt 0.965252 0.026400
vt 0.060157 0.023359
vt 0.005865 0.054704
vt 0.005865 0.117394
vt 0.241570 0.464831
vt 0.275726 0.364978
vt 0.241570 0.363934
vt 0.942285 0.630139
vt 0.952998 0.718254
vt 0.957421 0.630139
vt 0.287457 0.464831
vt 0.321613 0.364978
vt 0.287457 0.363934
vt 0.938531 0.415572
vt 0.949244 0.504731
vt 0.953668 0.415572
vt 0.656670 0.994135
vt 0.690826 0.806489
vt 0.656670 0.805445
vt 0.764261 0.330910
vt 0.753547 0.504731
vt 0.764261 0.515425
vt 0.321613 0.564683
vt 0.321613 0.464831
vt 0.953676 0.100821
vt 0.942964 0.189980
vt 0.953676 0.200673
vt 0.667271 0.728948
vt 0.701427 0.541302
vt 0.667271 0.540258
vt 0.748443 0.994135
vt 0.759157 0.820314
vt 0.748443 0.809620
vt 0.275726 0.564683
vt 0.275726 0.464831
vt 0.210737 0.350970
vt 0.200023 0.526878
vt 0.210737 0.537572
vt 0.994135 0.904866
vt 0.959983 0.992967
vt 0.994135 0.994135
vt 0.859723 0.041414
vt 0.825571 0.129516
vt 0.859723 0.130684
vt 0.810148 0.350210
vt 0.775992 0.514381
vt 0.810148 0.515425
vt 0.779680 0.041414
vt 0.813832 0.129516
vt 0.813836 0.041289
vt 0.798931 0.728948
vt 0.833087 0.564777
vt 0.798931 0.563733
vt 0.942285 0.529139
vt 0.976437 0.617241
vt 0.976441 0.529014
vt 0.938540 0.212404
vt 0.949253 0.301563
vt 0.953676 0.212404
vt 0.141314 0.048887
vt 0.130602 0.138045
vt 0.141314 0.148739
vt 0.657904 0.031875
vt 0.647192 0.119990
vt 0.657904 0.130684
vt 0.389944 0.565727
vt 0.379230 0.389818
vt 0.379230 0.555033
vt 0.631037 0.031875
vt 0.620325 0.119990
vt 0.631037 0.130684
vt 0.669634 0.031875
vt 0.680347 0.119990
vt 0.684770 0.031875
vt 0.575525 0.515425
vt 0.741817 0.515425
vt 0.333343 0.565727
vt 0.005865 0.342042
vt 0.736712 0.993091
vt 0.621385 0.728948
vt 0.747314 0.727904
vt 0.799043 0.994135
vt 0.005865 0.330312
vt 0.388290 0.215451
vt 0.587256 0.142414
vt 0.587256 0.312256
vt 0.185901 0.187551
vt 0.449120 0.740740
vt 0.893245 0.142414
vt 0.573988 0.142414
vt 0.215304 0.339239
vt 0.932967 0.872242
vt 0.759045 0.728948
vt 0.799043 0.824293
vt 0.904976 0.055435
vt 0.767950 0.130684
vt 0.241570 0.170859
vt 0.696501 0.032546
vt 0.926810 0.312256
vt 0.954801 0.860512
vt 0.907616 0.515425
vt 0.921237 0.994135
vt 0.506702 0.130684
vt 0.604170 0.130684
vt 0.844817 0.568171
vt 0.374386 0.134555
vt 0.811433 0.527429
vt 0.859898 0.527429
vt 0.871453 0.130684
vt 0.656670 0.756854
vt 0.677951 0.793714
vt 0.699232 0.781428
vt 0.823163 0.552003
vt 0.871629 0.552003
vt 0.753525 0.781428
vt 0.732243 0.744568
vt 0.710962 0.781428
vt 0.207477 0.190756
vt 0.409129 0.565727
vt 0.926801 0.515425
vt 0.395744 0.203721
vt 0.771956 0.543648
vt 0.765500 0.532466
vt 0.759044 0.543648
vt 0.178074 0.330312
vt 0.226662 0.190756
vt 0.821878 0.331735
vt 0.821878 0.339190
vt 0.828334 0.342917
vt 0.965243 0.341151
vt 0.874482 0.749872
vt 0.836040 0.812562
vt 0.770887 0.812562
vt 0.241570 0.127784
vt 0.350153 0.127784
vt 0.295862 0.033748
vt 0.886213 0.812562
vt 0.938540 0.089090
vt 0.060157 0.148739
vt 0.114448 0.117394
vt 0.114448 0.054704
vt 0.942285 0.728948
vt 0.938531 0.515425
vt 0.690826 0.993091
vt 0.753547 0.341604
vt 0.287457 0.565727
vt 0.938540 0.100820
vt 0.701427 0.727904
vt 0.759157 0.983441
vt 0.241570 0.565727
vt 0.200023 0.361664
vt 0.959979 0.904740
vt 0.825567 0.041289
vt 0.775992 0.351254
vt 0.779680 0.130684
vt 0.833087 0.727904
vt 0.942285 0.618408
vt 0.938540 0.312256
vt 0.126178 0.048886
vt 0.642768 0.031875
vt 0.389944 0.379125
vt 0.615901 0.031875
vt 0.669634 0.130684
vn 0.000000 -0.000000 -1.000000
vn 0.301517 0.904535 -0.301504
vn 0.000000 0.707115 -0.707099
vn 0.300807 -0.301450 -0.904789
vn 0.301529 0.904529 0.301509
vn 0.301517 0.904535 -0.301504
vn -0.719543 -0.286724 0.632493
vn 0.000007 -0.412870 0.910790
vn -0.556572 -0.221785 0.800649
vn 0.000000 -0.000000 -1.000000
vn -0.580948 -0.574548 -0.576535
vn -0.712954 0.308068 -0.629913
vn 0.001538 -0.707092 0.707120
vn -0.301529 0.904527 -0.301516
vn -0.301516 0.904532 0.301512
vn -0.001556 -0.707097 0.707114
vn -0.301516 0.301518 0.904530
vn 0.301529 0.904529 0.301509
vn -0.301516 0.904532 0.301512
vn 0.000000 0.696229 0.717820
vn 0.000000 0.707123 0.707091
vn 0.301529 0.904529 0.301509
vn 0.585203 0.561316 -0.585203
vn 0.301517 0.904535 -0.301504
vn 0.000000 0.696229 -0.717820
vn 0.000000 0.707115 -0.707099
vn -0.301529 0.904527 -0.301516
vn -0.585203 0.561316 0.585203
vn 0.000000 0.684331 -0.729171
vn 0.569179 -0.593377 -0.569156
vn 0.000000 -0.717826 -0.696222
vn 0.569179 -0.593377 -0.569156
vn 0.000000 -0.717826 0.696222
vn 0.000000 -0.717826 -0.696222
vn 0.590878 0.549266 0.590906
vn 0.569179 -0.593377 -0.569156
vn 0.590897 0.549253 -0.590899
vn 0.000000 0.684331 0.729171
vn -0.569179 -0.593377 0.569157
vn 0.000000 -0.717826 0.696222
vn -0.590878 0.549266 -0.590906
vn -0.569179 -0.593377 0.569157
vn -0.590897 0.549253 0.590899
vn 0.000000 -0.000000 -1.000000
vn 0.300807 -0.301450 -0.904789
vn 0.711013 -0.703179 0.000000
vn -0.001556 -0.707097 0.707114
vn -0.000011 1.000000 -0.000000
vn 0.712940 0.308064 0.629932
vn 0.917968 0.396654 -0.000000
vn 0.000000 -0.000000 -1.000000
vn 0.300807 -0.301450 -0.904789
vn 0.569171 -0.593387 0.569154
vn 0.590878 0.549266 0.590906
vn -0.569179 -0.593377 0.569157
vn -0.569171 -0.593387 -0.569154
vn -0.569171 -0.593387 -0.569154
vn -0.590878 0.549266 -0.590906
vn -0.585181 0.561333 -0.585208
vn 0.585181 0.561333 0.585208
vn 0.000000 0.707123 0.707091
vn 0.301508 0.301515 0.904534
vn -0.301516 0.904532 0.301512
vn -0.001556 -0.707097 0.707114
vn -0.556580 -0.221784 0.800644
vn -0.719543 -0.286724 0.632493
vn 0.719545 -0.286722 0.632492
vn 0.301510 0.301517 0.904533
vn 0.556573 -0.221779 0.800650
vn -0.300798 -0.301460 -0.904789
vn -0.301529 0.904527 -0.301516
vn -0.712954 0.308068 -0.629913
vn -0.000011 1.000000 -0.000000
vn 0.000022 0.815201 -0.579178
vn 0.580967 -0.574544 -0.576521
vn 0.917968 0.396654 -0.000000
vn 0.711013 -0.703179 0.000000
vn -0.711018 -0.703174 0.000000
vn -0.712954 0.308068 -0.629913
vn -0.580948 -0.574548 -0.576535
vn 0.000022 0.815201 -0.579178
vn 0.712939 0.308061 -0.629934
vn 0.000022 0.815201 -0.579178
vn 0.580949 -0.574553 0.576530
vn 0.580967 -0.574544 -0.576521
vn 0.712939 0.308061 -0.629934
vn 0.000002 -0.818445 0.574585
vn 0.556578 -0.221785 0.800645
vn 0.719545 -0.286722 0.632492
vn 0.001538 -0.707092 0.707120
vn -0.580948 -0.574548 -0.576535
vn -0.300798 -0.301460 -0.904789
vn -0.000001 -0.412875 0.910788
vn 0.712940 0.308064 0.629932
vn -0.000004 0.815195 0.579187
vn 0.556578 -0.221785 0.800645
vn -0.580949 -0.574547 0.576536
vn 0.577930 -0.576657 0.577464
vn -0.712941 0.308060 0.629932
vn -0.556580 -0.221784 0.800644
vn 0.580949 -0.574553 0.576530
vn -0.712941 0.308060 0.629932
vn -0.917968 0.396655 -0.000000
vn -0.917968 0.396655 -0.000000
vn -0.000004 0.815195 0.579187
vn 0.719545 -0.286722 0.632492
vn 0.577930 -0.576657 0.577464
vn 0.001538 -0.707092 0.707120
vn -0.719543 -0.286724 0.632493
vn -0.000001 -0.412875 0.910788
vn 0.000002 -0.818445 0.574585
vn -0.580949 -0.574547 0.576536
vn -0.711018 -0.703174 0.000000
vn -0.577930 -0.576651 0.577469
vn 0.301510 0.301517 0.904533
vn 0.719525 -0.286719 0.632516
vn 0.556573 -0.221779 0.800650
vn 0.000007 -0.412870 0.910790
vn -0.719526 -0.286711 0.632517
vn -0.556572 -0.221785 0.800649
vn 0.000000 -0.000000 1.000000
vn -0.301517 0.301502 0.904535
vn 0.000000 0.707098 0.707116
vn 0.001538 -0.707092 0.707120
vn 0.000002 -0.818445 0.574585
vn 0.000000 0.707098 0.707116
vn -0.719526 -0.286711 0.632517
vn -0.000013 -0.818440 0.574592
vn 0.719525 -0.286719 0.632516
vn 0.577360 0.577330 0.577360
vn 0.556573 -0.221779 0.800650
vn -0.000013 -0.818440 0.574592
vn 0.000007 -0.412870 0.910790
vn -0.301517 0.301502 0.904535
vn 0.000000 0.707098 0.707116
vn 0.000000 0.707098 0.707116
vn -0.556572 -0.221785 0.800649
vn -0.577342 0.577355 0.577354
vn -0.301517 0.301502 0.904535
vn 0.577360 0.577330 0.577360
vn 0.301510 0.301517 0.904533
vn 0.000000 0.707108 0.707106
vn 0.577359 0.577364 0.577329
vn 0.301508 0.301515 0.904534
vn -0.301508 -0.301515 0.904534
vn -0.577341 0.577355 0.577355
vn -0.301516 0.301518 0.904530
vn 0.000000 0.707108 0.707106
vn 0.301516 -0.301518 0.904531
vn -0.301508 -0.301515 0.904534
vn 0.000000 -0.707108 0.707106
vn 0.000000 -0.707117 0.707096
vn 0.577359 0.577364 0.577329
vn 0.000000 0.707118 0.707096
vn -0.577359 -0.577363 0.577329
vn -0.577341 0.577355 0.577355
vn -0.301516 0.301518 0.904530
vn 0.000000 0.707118 0.707096
vn 0.301516 -0.301518 0.904531
vn 0.000000 -0.707117 0.707096
vn 0.000000 -0.707108 0.707106
vn -0.577359 -0.577363 0.577329
vn -0.301508 -0.301515 0.904534
vn 0.301508 0.301515 0.904534
vn 0.577341 -0.577355 0.577355
vn 0.301516 -0.301518 0.904531
vn -0.000007 0.792401 0.610001
vn 0.686245 0.396196 -0.609997
vn 0.000007 0.792399 -0.610003
vn 0.686234 0.396205 0.610003
vn 0.686234 -0.396206 -0.610003
vn 0.686245 0.396196 -0.609997
vn 0.686243 -0.396195 0.610000
vn -0.000007 -0.792404 -0.609997
vn 0.686234 -0.396206 -0.610003
vn 0.000007 -0.792406 0.609994
vn -0.686241 -0.396194 -0.610003
vn -0.000007 -0.792404 -0.609997
vn 0.000007 -0.792406 0.609994
vn 0.686243 -0.396195 0.610000
vn -0.000007 0.792401 0.610001
vn -0.686236 -0.396206 0.610000
vn -0.686238 0.396208 -0.609997
vn -0.686241 -0.396194 -0.610003
vn -0.686241 0.396194 0.610003
vn 0.000007 0.792399 -0.610003
vn -0.686238 0.396208 -0.609997
vn 0.686245 0.396196 -0.609997
vn -0.000007 -0.792404 -0.609997
vn -0.686238 0.396208 -0.609997
vn 0.000004 0.609988 -0.792411
vn 0.686244 -0.609991 -0.396207
vn -0.000004 -0.609994 -0.792406
vn 0.686245 0.609994 -0.396200
vn 0.686252 -0.609985 0.396203
vn 0.686244 -0.609991 -0.396207
vn 0.686246 0.609988 0.396208
vn 0.000004 -0.609991 0.792408
vn 0.686252 -0.609985 0.396203
vn -0.000004 0.609994 0.792406
vn -0.686241 -0.609995 0.396207
vn 0.000004 -0.609991 0.792408
vn 0.000004 0.609988 -0.792411
vn -0.686250 0.609988 0.396202
vn 0.686246 0.609988 0.396208
vn -0.686250 0.609988 0.396202
vn -0.686247 -0.609992 -0.396200
vn -0.686241 -0.609995 0.396207
vn -0.686241 0.609995 -0.396207
vn -0.000004 -0.609994 -0.792406
vn -0.686247 -0.609992 -0.396200
vn 0.000004 -0.609991 0.792408
vn -0.686241 -0.609995 0.396207
vn -0.686247 -0.609992 -0.396200
vn -0.000011 0.792401 0.610000
vn 0.686243 0.396190 -0.610004
vn 0.000011 0.792396 -0.610007
vn 0.686230 0.396208 0.610007
vn 0.686236 -0.396199 -0.610006
vn 0.686243 0.396190 -0.610004
vn 0.686236 -0.396199 -0.610006
vn 0.000000 -0.792390 0.610015
vn 0.000000 -0.792406 -0.609994
vn 0.000000 -0.792390 0.610015
vn -0.686241 -0.396189 -0.610006
vn 0.000000 -0.792406 -0.609994
vn -0.000011 0.792401 0.610000
vn -0.686234 -0.396210 0.610000
vn 0.686246 -0.396204 0.609991
vn -0.686234 -0.396210 0.610000
vn -0.686232 0.396209 -0.610004
vn -0.686241 -0.396189 -0.610006
vn -0.686241 0.396189 0.610006
vn 0.000011 0.792396 -0.610007
vn -0.686232 0.396209 -0.610004
vn 0.000000 -0.792406 -0.609994
vn -0.686241 -0.396189 -0.610006
vn -0.686232 0.396209 -0.610004
vn 0.000000 0.696229 -0.717820
vn -0.563103 -0.604854 -0.563086
vn -0.585181 0.561333 -0.585208
vn 0.000000 0.684331 0.729171
vn 0.317358 0.888059 0.332620
vn 0.000000 0.674590 0.738193
vn 0.000000 0.696229 0.717820
vn 0.563106 -0.604850 0.563088
vn 0.585181 0.561333 0.585208
vn 0.000000 -0.729181 0.684321
vn -0.253430 -0.929687 0.267312
vn 0.000000 -0.716817 0.697261
vn -0.585181 0.561333 -0.585208
vn -0.563110 -0.604848 0.563087
vn -0.585203 0.561316 0.585203
vn 0.590897 0.549253 -0.590899
vn 0.317358 0.888059 0.332620
vn 0.590878 0.549266 0.590906
vn -0.563110 -0.604848 0.563087
vn 0.000000 -0.729181 0.684321
vn 0.000000 -0.729181 0.684321
vn 0.253416 -0.929690 0.267313
vn 0.563106 -0.604850 0.563088
vn 0.585181 0.561333 0.585208
vn 0.563108 -0.604852 -0.563084
vn 0.585203 0.561316 -0.585203
vn -0.590897 0.549253 0.590899
vn -0.317358 0.888059 -0.332620
vn -0.590878 0.549266 -0.590906
vn 0.563108 -0.604852 -0.563084
vn 0.000000 -0.729181 -0.684321
vn 0.563106 -0.604850 0.563088
vn 0.253431 -0.929686 -0.267312
vn 0.563108 -0.604852 -0.563084
vn 0.000000 -0.716818 -0.697261
vn -0.317358 0.888059 -0.332620
vn -0.253416 -0.929690 -0.267313
vn 0.000000 -0.716817 0.697261
vn 0.317358 0.888059 0.332620
vn 0.253416 -0.929690 0.267313
vn -0.253416 -0.929690 -0.267313
vn -0.317357 0.888059 0.332619
vn -0.253430 -0.929687 0.267312
vn 0.000000 -0.716817 0.697261
vn -0.317357 0.888059 0.332619
vn 0.000000 0.674590 0.738193
vn 0.253416 -0.929690 0.267313
vn 0.317357 0.888059 -0.332619
vn 0.253431 -0.929686 -0.267312
vn 0.000000 -0.716818 -0.697261
vn 0.317357 0.888059 -0.332619
vn 0.000000 0.674590 -0.738193
vn 0.000000 -0.729181 -0.684321
vn 0.253431 -0.929686 -0.267312
vn 0.000000 -0.716818 -0.697261
vn 0.000000 -0.729181 -0.684321
vn -0.253416 -0.929690 -0.267313
vn -0.563103 -0.604854 -0.563086
vn 0.000000 0.684331 0.729171
vn -0.317357 0.888059 0.332619
vn -0.590897 0.549253 0.590899
vn -0.563110 -0.604848 0.563087
vn -0.253416 -0.929690 -0.267313
vn -0.253430 -0.929687 0.267312
vn 0.000000 0.684331 -0.729171
vn 0.317357 0.888059 -0.332619
vn 0.590897 0.549253 -0.590899
vn 0.000000 0.684331 -0.729171
vn -0.317358 0.888059 -0.332620
vn 0.000000 0.674590 -0.738193
vn -0.001556 -0.707097 0.707114
vn -0.300798 -0.301460 -0.904789
vn 0.590897 0.549253 -0.590899
vn 0.569171 -0.593387 0.569154
vn 0.569171 -0.593387 0.569154
vn -0.590897 0.549253 0.590899
vn -0.569171 -0.593387 -0.569154
vn 0.580967 -0.574544 -0.576521
vn -0.000004 0.815195 0.579187
vn -0.577930 -0.576651 0.577469
vn 0.712939 0.308061 -0.629934
vn 0.712940 0.308064 0.629932
vn -0.000001 -0.412875 0.910788
vn -0.577930 -0.576651 0.577469
vn -0.580949 -0.574547 0.576536
vn -0.712941 0.308060 0.629932
vn 0.556578 -0.221785 0.800645
vn -0.556580 -0.221784 0.800644
vn 0.577930 -0.576657 0.577464
vn 0.580949 -0.574553 0.576530
vn 0.577360 0.577330 0.577360
vn -0.000013 -0.818440 0.574592
vn -0.577342 0.577355 0.577354
vn 0.719525 -0.286719 0.632516
vn -0.577342 0.577355 0.577354
vn -0.719526 -0.286711 0.632517
vn -0.577359 -0.577363 0.577329
vn 0.577341 -0.577355 0.577355
vn -0.577341 0.577355 0.577355
vn 0.577341 -0.577355 0.577355
vn 0.577359 0.577364 0.577329
vn 0.686234 0.396205 0.610003
vn 0.686243 -0.396195 0.610000
vn 0.000007 -0.792406 0.609994
vn -0.686236 -0.396206 0.610000
vn 0.686234 0.396205 0.610003
vn -0.686241 0.396194 0.610003
vn -0.686236 -0.396206 0.610000
vn -0.686241 0.396194 0.610003
vn -0.000007 0.792401 0.610001
vn 0.000007 0.792399 -0.610003
vn 0.686234 -0.396206 -0.610003
vn -0.686241 -0.396194 -0.610003
vn 0.686245 0.609994 -0.396200
vn 0.686246 0.609988 0.396208
vn -0.000004 0.609994 0.792406
vn -0.686250 0.609988 0.396202
vn 0.686245 0.609994 -0.396200
vn -0.686241 0.609995 -0.396207
vn -0.000004 0.609994 0.792406
vn -0.686241 0.609995 -0.396207
vn 0.000004 0.609988 -0.792411
vn -0.000004 -0.609994 -0.792406
vn 0.686244 -0.609991 -0.396207
vn 0.686252 -0.609985 0.396203
vn 0.686230 0.396208 0.610007
vn 0.686246 -0.396204 0.609991
vn 0.686246 -0.396204 0.609991
vn -0.686234 -0.396210 0.610000
vn 0.686230 0.396208 0.610007
vn -0.686241 0.396189 0.610006
vn 0.000000 -0.792390 0.610015
vn -0.686241 0.396189 0.610006
vn -0.000011 0.792401 0.610000
vn 0.000011 0.792396 -0.610007
vn 0.686243 0.396190 -0.610004
vn 0.686236 -0.396199 -0.610006
vn 0.590878 0.549266 0.590906
vn -0.563110 -0.604848 0.563087
vn -0.563103 -0.604854 -0.563086
vn 0.317357 0.888059 -0.332619
vn -0.585203 0.561316 0.585203
vn 0.000000 -0.716817 0.697261
vn 0.563106 -0.604850 0.563088
vn -0.317357 0.888059 0.332619
vn 0.585203 0.561316 -0.585203
vn 0.253416 -0.929690 0.267313
vn 0.000000 0.674590 -0.738193
vn 0.000000 0.674590 0.738193
vn -0.317358 0.888059 -0.332620
vn -0.253430 -0.929687 0.267312
vn 0.317358 0.888059 0.332620
vn 0.253431 -0.929686 -0.267312
vn 0.563108 -0.604852 -0.563084
vn 0.000000 -0.716818 -0.697261
vn 0.000000 0.674590 0.738193
vn -0.563103 -0.604854 -0.563086
vn 0.000000 0.674590 -0.738193
vn -0.590878 0.549266 -0.590906
f 1/1/1 2/2/2 3/3/3
f 4/4/4 5/5/5 6/6/6
f 7/7/7 8/8/8 9/9/9
f 10/10/10 11/11/11 12/12/12
f 13/13/13 14/14/14 15/15/15
f 16/16/16 17/17/17 18/18/18
f 19/19/19 20/20/20 21/21/21
f 22/22/22 23/23/23 24/24/24
f 24/24/24 25/25/25 26/26/26
f 27/27/27 28/28/28 19/19/19
f 29/29/29 30/30/30 31/31/31
f 32/32/32 33/33/33 34/34/34
f 35/35/35 36/36/36 37/37/37
f 38/38/38 39/39/39 40/40/40
f 41/41/41 42/42/42 43/43/43
f 1/1/1 10/10/10 44/44/44
f 45/45/45 46/46/46 47/47/47
f 48/48/48 49/49/49 50/50/50
f 1/1/1 51/51/51 52/52/52
f 38/38/38 53/53/53 54/54/54
f 34/34/34 55/55/55 56/56/56
f 29/29/29 57/57/57 58/58/58
f 27/27/27 25/25/25 59/59/59
f 22/22/22 20/20/20 60/60/60
f 61/61/61 62/62/62 63/63/63
f 64/64/64 65/65/65 66/66/66
f 67/67/67 68/68/68 69/69/69
f 70/70/70 3/3/3 71/71/71
f 72/72/72 73/73/73 74/74/74
f 75/75/75 76/76/76 77/77/77
f 78/78/78 79/79/79 80/80/80
f 81/81/81 50/50/50 82/82/82
f 44/44/44 12/12/12 83/83/83
f 76/76/76 84/84/84 77/77/77
f 51/51/51 85/85/85 52/52/52
f 44/44/44 86/86/86 51/51/51
f 87/87/87 88/88/88 89/89/89
f 90/90/90 91/91/91 92/92/92
f 93/93/93 94/94/94 95/95/95
f 96/96/96 97/97/97 98/98/98
f 93/93/93 99/99/99 96/96/96
f 100/100/100 101/101/101 94/94/94
f 78/78/78 102/102/102 103/103/103
f 104/104/104 105/105/105 73/73/73
f 106/106/106 107/107/107 108/108/108
f 109/109/109 110/110/110 111/111/111
f 90/90/90 112/112/112 113/113/113
f 46/46/46 114/114/114 47/47/47
f 115/115/115 116/116/116 117/117/117
f 118/118/118 119/119/119 120/120/120
f 121/121/121 122/122/122 123/123/123
f 121/121/121 68/68/68 124/124/124
f 67/67/67 8/8/8 125/125/125
f 7/7/7 122/122/122 16/16/16
f 126/126/126 127/127/127 128/128/128
f 126/126/126 129/129/129 130/130/130
f 131/131/131 132/132/132 133/133/133
f 134/134/134 135/135/135 136/136/136
f 137/137/137 138/138/138 139/139/139
f 136/136/136 140/140/140 141/141/141
f 142/142/142 143/143/143 144/144/144
f 145/145/145 146/146/146 147/147/147
f 61/61/61 17/17/17 148/148/148
f 63/63/63 149/149/149 124/124/124
f 121/121/121 150/150/150 16/16/16
f 121/121/121 149/149/149 151/151/151
f 152/152/152 153/153/153 154/154/154
f 155/155/155 154/154/154 156/156/156
f 157/157/157 158/158/158 142/142/142
f 159/159/159 160/160/160 161/161/161
f 161/161/161 162/162/162 163/163/163
f 164/164/164 165/165/165 166/166/166
f 167/167/167 168/168/168 169/169/169
f 170/170/170 171/171/171 172/172/172
f 173/173/173 174/174/174 175/175/175
f 176/176/176 177/177/177 178/178/178
f 179/179/179 180/180/180 181/181/181
f 182/182/182 183/183/183 184/184/184
f 185/185/185 186/186/186 187/187/187
f 188/188/188 189/189/189 190/190/190
f 191/191/191 192/192/192 193/193/193
f 194/194/194 195/195/195 196/196/196
f 197/197/197 198/198/198 199/199/199
f 200/200/200 201/201/201 202/202/202
f 203/203/203 204/204/204 205/205/205
f 206/206/206 207/207/207 208/208/208
f 209/209/209 210/210/210 211/211/211
f 212/212/212 213/213/213 214/214/214
f 215/215/215 216/216/216 217/217/217
f 218/218/218 219/219/219 220/220/220
f 221/221/221 222/222/222 223/223/223
f 224/224/224 225/225/225 226/226/226
f 227/227/227 228/228/228 229/229/229
f 230/230/230 231/231/231 232/232/232
f 233/233/233 234/234/234 235/235/235
f 236/236/236 237/237/237 238/238/238
f 239/239/239 240/240/240 241/241/241
f 242/242/242 243/243/243 244/244/244
f 245/245/245 246/246/246 247/247/247
f 248/248/248 249/249/249 250/250/250
f 251/251/251 252/252/252 253/253/253
f 254/254/254 255/255/255 256/256/256
f 245/245/245 257/257/257 258/258/258
f 259/259/259 260/260/260 261/261/261
f 262/262/262 263/263/263 264/264/264
f 265/265/265 266/266/266 267/267/267
f 239/239/239 268/268/268 269/269/269
f 270/270/270 271/271/271 272/272/272
f 273/273/273 274/274/274 275/275/275
f 276/276/276 277/277/277 278/278/278
f 279/279/279 280/280/280 281/281/281
f 282/282/282 283/283/283 284/284/284
f 285/285/285 286/286/286 287/287/287
f 288/288/288 289/289/289 290/290/290
f 291/291/291 292/292/292 293/293/293
f 294/294/294 295/295/295 296/296/296
f 297/297/297 298/298/298 299/299/299
f 300/300/300 301/301/301 302/302/302
f 303/303/303 304/304/304 305/305/305
f 306/306/306 307/307/307 308/308/308
f 1/1/1 52/52/52 2/2/2
f 4/4/4 309/309/309 5/5/5
f 7/7/7 125/125/125 8/8/8
f 10/10/10 70/70/70 11/11/11
f 13/13/13 310/310/310 14/14/14
f 16/16/16 150/150/150 17/17/17
f 19/19/19 28/28/28 20/20/20
f 22/22/22 60/60/60 23/23/23
f 24/24/24 23/23/23 25/25/25
f 27/27/27 59/59/59 28/28/28
f 29/29/29 311/311/311 30/30/30
f 32/32/32 312/312/312 33/33/33
f 35/35/35 313/313/313 36/36/36
f 38/38/38 314/314/314 39/39/39
f 41/41/41 315/315/315 42/42/42
f 1/1/1 70/70/70 10/10/10
f 45/45/45 316/316/316 46/46/46
f 48/48/48 317/317/317 49/49/49
f 1/1/1 44/44/44 51/51/51
f 38/38/38 40/40/40 53/53/53
f 34/34/34 33/33/33 55/55/55
f 29/29/29 31/31/31 57/57/57
f 27/27/27 26/26/26 25/25/25
f 22/22/22 21/21/21 20/20/20
f 61/61/61 148/148/148 62/62/62
f 64/64/64 318/318/318 65/65/65
f 67/67/67 124/124/124 68/68/68
f 70/70/70 1/1/1 3/3/3
f 72/72/72 104/104/104 73/73/73
f 75/75/75 319/319/319 76/76/76
f 78/78/78 103/103/103 79/79/79
f 81/81/81 48/48/48 50/50/50
f 44/44/44 10/10/10 12/12/12
f 76/76/76 320/320/320 84/84/84
f 51/51/51 86/86/86 85/85/85
f 44/44/44 83/83/83 86/86/86
f 87/87/87 321/321/321 88/88/88
f 90/90/90 113/113/113 91/91/91
f 93/93/93 100/100/100 94/94/94
f 96/96/96 99/99/99 97/97/97
f 93/93/93 95/95/95 99/99/99
f 100/100/100 322/322/322 101/101/101
f 78/78/78 323/323/323 102/102/102
f 104/104/104 324/324/324 105/105/105
f 106/106/106 325/325/325 107/107/107
f 109/109/109 326/326/326 110/110/110
f 90/90/90 327/327/327 112/112/112
f 46/46/46 328/328/328 114/114/114
f 115/115/115 329/329/329 116/116/116
f 118/118/118 330/330/330 119/119/119
f 121/121/121 16/16/16 122/122/122
f 121/121/121 123/123/123 68/68/68
f 67/67/67 69/69/69 8/8/8
f 7/7/7 9/9/9 122/122/122
f 126/126/126 331/331/331 127/127/127
f 126/126/126 128/128/128 129/129/129
f 131/131/131 332/332/332 132/132/132
f 134/134/134 333/333/333 135/135/135
f 137/137/137 334/334/334 138/138/138
f 136/136/136 135/135/135 140/140/140
f 142/142/142 158/158/158 143/143/143
f 145/145/145 335/335/335 146/146/146
f 61/61/61 18/18/18 17/17/17
f 63/63/63 62/62/62 149/149/149
f 121/121/121 151/151/151 150/150/150
f 121/121/121 124/124/124 149/149/149
f 152/152/152 336/336/336 153/153/153
f 155/155/155 152/152/152 154/154/154
f 157/157/157 337/337/337 158/158/158
f 159/159/159 338/338/338 160/160/160
f 161/161/161 160/160/160 162/162/162
f 164/164/164 339/339/339 165/165/165
f 167/167/167 340/340/340 168/168/168
f 170/170/170 341/341/341 171/171/171
f 173/173/173 342/342/342 174/174/174
f 176/176/176 343/343/343 177/177/177
f 180/180/180 344/344/344 181/181/181
f 181/181/181 345/345/345 346/346/346
f 346/346/346 179/179/179 181/181/181
f 182/182/182 347/347/347 183/183/183
f 185/185/185 348/348/348 186/186/186
f 190/190/190 349/349/349 188/188/188
f 188/188/188 350/350/350 189/189/189
f 189/189/189 351/351/351 190/190/190
f 191/191/191 352/352/352 192/192/192
f 194/194/194 353/353/353 195/195/195
f 197/197/197 354/354/354 198/198/198
f 200/200/200 355/355/355 201/201/201
f 205/205/205 356/356/356 203/203/203
f 203/203/203 357/357/357 204/204/204
f 204/204/204 358/358/358 205/205/205
f 206/206/206 359/359/359 207/207/207
f 209/209/209 360/360/360 210/210/210
f 214/214/214 361/361/361 362/362/362
f 362/362/362 363/363/363 214/214/214
f 363/363/363 212/212/212 214/214/214
f 215/215/215 364/364/364 216/216/216
f 218/218/218 365/365/365 219/219/219
f 221/221/221 366/366/366 222/222/222
f 224/224/224 367/367/367 225/225/225
f 229/229/229 368/368/368 227/227/227
f 227/227/227 369/369/369 228/228/228
f 228/228/228 370/370/370 229/229/229
f 230/230/230 371/371/371 231/231/231
f 233/233/233 372/372/372 234/234/234
f 238/238/238 373/373/373 374/374/374
f 374/374/374 375/375/375 238/238/238
f 375/375/375 236/236/236 238/238/238
f 239/239/239 269/269/269 240/240/240
f 242/242/242 376/376/376 243/243/243
f 245/245/245 258/258/258 246/246/246
f 248/248/248 377/377/377 249/249/249
f 251/251/251 378/378/378 252/252/252
f 254/254/254 379/379/379 255/255/255
f 245/245/245 380/380/380 257/257/257
f 259/259/259 381/381/381 260/260/260
f 262/262/262 382/382/382 263/263/263
f 265/265/265 383/383/383 266/266/266
f 239/239/239 384/384/384 268/268/268
f 270/270/270 385/385/385 271/271/271
f 273/273/273 386/386/386 274/274/274
f 276/276/276 387/387/387 277/277/277
f 279/279/279 388/388/388 280/280/280
f 282/282/282 389/389/389 283/283/283
f 285/285/285 390/390/390 286/286/286
f 288/288/288 391/391/391 289/289/289
f 291/291/291 392/392/392 292/292/292
f 294/294/294 393/393/393 295/295/295
f 297/297/297 394/394/394 298/298/298
f 300/300/300 395/395/395 301/301/301
f 303/303/303 396/396/396 304/304/304
f 306/306/306 397/397/397 307/307/307
