# f_couch -- imported by tools/import_asset_pack.py from f_couch.fbx
o __pending__
v -0.747485 -0.629796 -0.500083
v -1.868573 -0.629796 0.363254
v -1.868573 -0.629796 -0.500083
v -1.868573 -0.094541 -0.500083
v -0.747485 -0.629796 -0.500083
v -1.868573 -0.629796 -0.500083
v -0.748744 -0.623056 -0.622606
v -1.868573 -0.623056 -0.386772
v -1.868573 -0.623056 -0.622606
v -0.779927 0.424893 -0.448234
v -0.747571 0.363084 -0.622930
v -0.779927 0.424893 -0.561144
v -0.779927 0.424893 -0.561144
v -1.868573 0.363084 -0.622930
v -1.868573 0.424893 -0.561144
v -1.868573 0.363084 -0.622930
v -0.747875 0.107642 -0.622846
v -1.868573 0.107642 -0.622846
v -0.747875 0.107642 -0.622846
v -0.747571 0.363084 -0.386449
v -0.747875 0.107642 -0.310887
v -0.747485 -0.094541 0.277340
v -0.747485 -0.180455 0.363254
v -0.747485 -0.405125 0.363254
v -0.779927 0.424893 -0.448234
v -1.868573 0.363084 -0.386449
v -0.747571 0.363084 -0.386449
v -0.582801 0.115222 0.447453
v -0.487336 -0.052528 -0.447453
v -0.582801 0.115222 -0.447453
v -0.487336 -0.052528 0.447453
v -0.584879 -0.219079 -0.447453
v -0.584879 -0.219079 -0.447453
v -0.702692 -0.679001 -0.447453
v -0.699828 -0.218364 -0.447453
v -0.779927 0.424893 -0.448234
v -0.777888 -0.217879 0.447453
v -0.873353 -0.050129 -0.447453
v -0.777888 -0.217879 -0.447453
v -0.873353 -0.050129 0.447453
v -0.777888 -0.217879 0.447453
v -0.699828 -0.218364 0.447453
v -0.747875 0.107642 -0.310887
v -1.868573 0.107642 -0.310887
v -0.873353 -0.050129 0.447453
v -0.775810 0.116422 -0.447453
v -0.775810 0.116422 0.447453
v -0.582801 0.115222 -0.447453
v -0.775810 0.116422 -0.447453
v -0.873353 -0.050129 -0.447453
v -0.775810 0.116422 -0.447453
v -1.868573 -0.094541 -0.500083
v -0.747485 -0.094541 0.277340
v -0.747485 -0.094541 -0.500083
v -0.747485 -0.078211 0.316763
v -0.747485 -0.164125 0.402677
v -0.747485 -0.388796 0.402677
v -0.702692 -0.679001 0.447453
v -0.780751 -0.678516 -0.447453
v -0.702692 -0.679001 -0.447453
v -0.584879 -0.219079 0.447453
v -0.587743 -0.679716 -0.447453
v -0.780751 -0.678516 0.447453
v -0.702692 -0.679001 0.447453
v -0.747485 -0.405125 0.363254
v -1.868573 -0.629796 0.363254
v -0.747485 -0.629796 0.363254
v -0.747485 -0.164125 0.402677
v -1.868573 -0.388796 0.402677
v -0.747485 -0.388796 0.402677
v -1.868573 -0.078211 0.316763
v -0.747485 -0.078211 0.316763
v -1.868573 -0.094541 0.277340
v -0.747485 -0.078211 0.316763
v -0.747485 -0.405125 0.363254
v -1.868573 -0.388796 0.402677
v -1.868573 -0.405125 0.363254
v -0.748744 -0.623056 -0.386772
v -1.868573 -0.623056 -0.386772
v -0.748744 -0.623056 -0.386772
v -0.748744 -0.623056 -0.622606
v -0.748744 -0.623056 -0.622606
v -1.868573 -0.623056 -0.622606
v -2.998213 -0.629796 -0.500083
v -2.998213 -0.629796 -0.500083
v -2.996954 -0.623056 -0.622606
v -2.998127 0.363084 -0.622930
v -2.965771 0.424893 -0.448234
v -2.965771 0.424893 -0.561144
v -2.965771 0.424893 -0.561144
v -2.997823 0.107642 -0.622846
v -2.997823 0.107642 -0.622846
v -2.998127 0.363084 -0.386449
v -2.998213 -0.629796 -0.500083
v -2.998213 -0.405125 0.363254
v -2.998213 -0.094541 0.277340
v -2.965771 0.424893 -0.448234
v -1.868573 0.424893 -0.448234
v -3.277248 -0.052528 -0.447453
v -3.181783 0.115222 0.447453
v -3.181783 0.115222 -0.447453
v -3.179705 -0.219079 -0.447453
v -3.277248 -0.052528 0.447453
v -3.065741 -0.679025 -0.447453
v -3.179705 -0.219079 -0.447453
v -3.068604 -0.218388 -0.447453
v -2.965771 0.424893 -0.448234
v -2.891231 -0.050129 -0.447453
v -2.986696 -0.217879 0.447453
v -2.986696 -0.217879 -0.447453
v -2.988774 0.116422 0.447453
v -3.181783 0.115222 0.447453
v -3.068604 -0.218388 0.447453
v -2.997823 0.107642 -0.310887
v -2.998127 0.363084 -0.386449
v -2.988774 0.116422 -0.447453
v -2.891231 -0.050129 0.447453
v -3.181783 0.115222 -0.447453
v -2.988774 0.116422 0.447453
v -2.988774 0.116422 -0.447453
v -3.277248 -0.052528 -0.447453
v -2.998213 -0.094541 0.277340
v -2.998213 -0.094541 -0.500083
v -2.998213 -0.180455 0.363254
v -2.998213 -0.078211 0.316763
v -2.998213 -0.388796 0.402677
v -2.983833 -0.678516 -0.447453
v -3.065741 -0.679025 0.447453
v -3.065741 -0.679025 -0.447453
v -3.176841 -0.679716 -0.447453
v -3.179705 -0.219079 0.447453
v -2.983833 -0.678516 0.447453
v -3.065741 -0.679025 0.447453
v -2.986696 -0.217879 0.447453
v -3.068604 -0.218388 0.447453
v -2.998213 -0.405125 0.363254
v -2.998213 -0.629796 0.363254
v -2.998213 -0.164125 0.402677
v -2.998213 -0.388796 0.402677
v -2.998213 -0.078211 0.316763
v -2.998213 -0.078211 0.316763
v -2.998213 -0.405125 0.363254
v -2.996954 -0.623056 -0.386772
v -2.996954 -0.623056 -0.386772
v -2.996954 -0.623056 -0.622606
v -2.996954 -0.623056 -0.622606
v -0.587743 -0.679716 0.447453
v -0.584879 -0.219079 0.447453
v -0.587743 -0.679716 0.447453
v -0.587743 -0.679716 -0.447453
v -0.777888 -0.217879 -0.447453
v -0.780751 -0.678516 -0.447453
v -3.176841 -0.679716 0.447453
v -3.179705 -0.219079 0.447453
v -3.176841 -0.679716 0.447453
v -3.176841 -0.679716 -0.447453
v -2.983833 -0.678516 -0.447453
v -2.986696 -0.217879 -0.447453
v -0.747485 -0.629796 0.363254
v -0.747485 -0.094541 -0.500083
v -0.748744 -0.623056 -0.386772
v -0.747571 0.363084 -0.622930
v -0.747571 0.363084 -0.622930
v -0.747485 -0.629796 0.363254
v -0.747485 -0.629796 -0.500083
v -0.747485 -0.094541 -0.500083
v -0.587743 -0.679716 -0.447453
v -1.868573 0.424893 -0.448234
v -0.487336 -0.052528 0.447453
v -0.582801 0.115222 0.447453
v -0.775810 0.116422 0.447453
v -0.775810 0.116422 0.447453
v -0.582801 0.115222 0.447453
v -0.582801 0.115222 -0.447453
v -0.487336 -0.052528 -0.447453
v -0.780751 -0.678516 0.447453
v -0.587743 -0.679716 0.447453
v -0.780751 -0.678516 -0.447453
v -0.780751 -0.678516 0.447453
v -1.868573 -0.405125 0.363254
v -1.868573 -0.164125 0.402677
v -1.868573 -0.078211 0.316763
v -0.747485 -0.388796 0.402677
v -2.998213 -0.629796 0.363254
v -2.998213 -0.094541 -0.500083
v -2.996954 -0.623056 -0.386772
v -2.998127 0.363084 -0.622930
v -2.998127 0.363084 -0.622930
v -2.997823 0.107642 -0.310887
v -2.998213 -0.094541 -0.500083
v -2.998213 -0.629796 0.363254
v -3.176841 -0.679716 -0.447453
v -3.277248 -0.052528 0.447453
v -2.986696 -0.217879 0.447453
v -2.891231 -0.050129 0.447453
v -2.988774 0.116422 0.447453
v -3.181783 0.115222 0.447453
v -3.181783 0.115222 -0.447453
v -2.988774 0.116422 -0.447453
v -2.891231 -0.050129 -0.447453
v -2.998213 -0.164125 0.402677
v -2.983833 -0.678516 0.447453
v -3.176841 -0.679716 0.447453
v -2.983833 -0.678516 -0.447453
v -2.983833 -0.678516 0.447453
v -2.998213 -0.388796 0.402677
v -3.065741 -0.679025 0.447453
vt 0.238956 0.500575
vt 0.352122 0.727219
vt 0.352122 0.500575
vt 0.691693 0.882611
vt 0.832876 0.995777
vt 0.832876 0.882611
vt 0.219951 0.243580
vt 0.158040 0.356414
vt 0.219951 0.356414
vt 0.743122 0.482716
vt 0.697038 0.466095
vt 0.713340 0.482726
vt 0.446666 0.239100
vt 0.464468 0.134492
vt 0.446665 0.134492
vt 0.352099 0.995777
vt 0.465162 0.928400
vt 0.352099 0.928400
vt 0.697038 0.398777
vt 0.759414 0.466074
vt 0.779323 0.398750
vt 0.145289 0.264189
vt 0.122647 0.241528
vt 0.063435 0.241528
vt 0.012758 0.995777
vt 0.117366 0.976395
vt 0.004223 0.976395
vt 0.448408 0.256082
vt 0.403175 0.492128
vt 0.448408 0.492128
vt 0.403175 0.256082
vt 0.360326 0.492128
vt 0.555968 0.625609
vt 0.525648 0.504106
vt 0.525648 0.625609
vt 0.417024 0.239100
vt 0.125654 0.713740
vt 0.168842 0.477694
vt 0.125654 0.477694
vt 0.685821 0.204856
vt 0.660379 0.161764
vt 0.639789 0.161764
vt 0.004304 0.906327
vt 0.117366 0.906327
vt 0.168842 0.713740
vt 0.213781 0.477694
vt 0.357668 0.247635
vt 0.408577 0.012673
vt 0.357668 0.012703
vt 0.479603 0.669699
vt 0.505058 0.713789
vt 0.688591 0.369560
vt 0.484501 0.482726
vt 0.688591 0.482726
vt 0.149593 0.253791
vt 0.126950 0.231129
vt 0.067739 0.231129
vt 0.269276 0.247622
vt 0.289865 0.012703
vt 0.269276 0.012691
vt 0.360326 0.256082
vt 0.238956 0.492128
vt 0.004223 0.713740
vt 0.639822 0.043009
vt 0.878501 0.021617
vt 0.936421 0.134782
vt 0.936421 0.021617
vt 0.905442 0.256395
vt 0.963362 0.369560
vt 0.963362 0.256395
vt 0.878501 0.369560
vt 0.878501 0.256395
vt 0.484501 0.369560
vt 0.473734 0.482726
vt 0.962357 0.769446
vt 0.951590 0.882611
vt 0.962357 0.882611
vt 0.004533 0.722187
vt 0.117366 0.722187
vt 0.759243 0.206191
vt 0.697038 0.206211
vt 0.464932 0.735666
vt 0.352099 0.735666
vt 0.465287 0.500575
vt 0.832876 0.769446
vt 0.219951 0.469247
vt 0.870054 0.466095
vt 0.823970 0.482716
vt 0.853751 0.482726
vt 0.446665 0.029884
vt 0.239036 0.928400
vt 0.870054 0.398777
vt 0.807678 0.466074
vt 0.691633 0.491173
vt 0.750844 0.718892
vt 0.832699 0.696231
vt 0.221975 0.995777
vt 0.117366 0.995777
vt 0.637953 0.491173
vt 0.683186 0.727219
vt 0.683186 0.491173
vt 0.595104 0.491173
vt 0.637953 0.727219
vt 0.534887 0.497758
vt 0.505582 0.619261
vt 0.534887 0.619261
vt 0.417024 0.029884
vt 0.638307 0.995777
vt 0.595120 0.759730
vt 0.595120 0.995777
vt 0.499201 0.247948
vt 0.550111 0.247948
vt 0.520782 0.161764
vt 0.230429 0.906327
vt 0.230509 0.976395
vt 0.683247 0.995777
vt 0.638307 0.759730
vt 0.944867 0.012986
vt 0.995777 0.247948
vt 0.995777 0.013016
vt 0.480127 0.663351
vt 0.484501 0.256395
vt 0.688591 0.256395
vt 0.810056 0.718892
vt 0.837002 0.706629
vt 0.755148 0.729291
vt 0.298312 0.012703
vt 0.319917 0.247622
vt 0.319917 0.012690
vt 0.473734 0.491173
vt 0.595104 0.727219
vt 0.473689 0.759730
vt 0.657686 0.043009
vt 0.641274 0.161764
vt 0.657712 0.161764
vt 0.878501 0.247948
vt 0.936421 0.247948
vt 0.905442 0.482726
vt 0.963362 0.482726
vt 0.878501 0.482726
vt 0.473734 0.256395
vt 0.962357 0.995777
vt 0.230200 0.722187
vt 0.807849 0.206191
vt 0.870054 0.206211
vt 0.239266 0.735666
vt 0.609502 0.043009
vt 0.609468 0.161764
vt 0.238956 0.247604
vt 0.238956 0.012673
vt 0.505058 0.625609
vt 0.505058 0.504106
vt 0.550053 0.043009
vt 0.550087 0.161764
vt 0.349221 0.247604
vt 0.349221 0.012673
vt 0.556492 0.497758
vt 0.556492 0.619261
vt 0.238956 0.727219
vt 0.691693 0.995777
vt 0.158040 0.243581
vt 0.464468 0.247635
vt 0.465242 0.995777
vt 0.004223 0.241528
vt 0.004223 0.469247
vt 0.145289 0.469247
vt 0.555968 0.504106
vt 0.417024 0.134492
vt 0.584001 0.204856
vt 0.609444 0.247948
vt 0.660354 0.247948
vt 0.213781 0.713740
vt 0.408577 0.247604
vt 0.555968 0.713789
vt 0.581423 0.669699
vt 0.289865 0.247635
vt 0.238956 0.256082
vt 0.004223 0.477694
vt 0.660412 0.043009
vt 0.878501 0.134782
vt 0.905442 0.369560
vt 0.473734 0.369560
vt 0.951590 0.769446
vt 0.465287 0.727219
vt 0.691693 0.769446
vt 0.158040 0.469247
vt 0.464468 0.021349
vt 0.238956 0.995777
vt 0.787769 0.398750
vt 0.832699 0.491173
vt 0.691633 0.718892
vt 0.505582 0.497758
vt 0.575554 0.204856
vt 0.499177 0.161764
vt 0.473734 0.204856
vt 0.683247 0.759730
vt 0.944867 0.247917
vt 0.505582 0.707440
vt 0.556492 0.707440
vt 0.581947 0.663351
vt 0.814360 0.729291
vt 0.298312 0.247635
vt 0.473734 0.727219
vt 0.473689 0.995777
vt 0.641249 0.043009
vt 0.951590 0.995777
vt 0.520748 0.043009
vn 0.577332 -0.577381 -0.577338
vn 0.000000 -0.707128 0.707086
vn 0.000000 -0.707107 -0.707107
vn 0.000000 0.707127 -0.707087
vn 0.577332 -0.577381 -0.577338
vn 0.000000 -0.707107 -0.707107
vn 0.576996 -0.577736 -0.577318
vn 0.000000 -0.742723 0.669599
vn 0.000000 -0.707223 -0.706991
vn 0.433961 0.852793 0.290556
vn 0.647239 0.348668 -0.677874
vn 0.433956 0.852794 -0.290560
vn 0.433956 0.852794 -0.290560
vn 0.000000 0.382453 -0.923975
vn 0.000000 0.923844 -0.382769
vn 0.000000 0.382453 -0.923975
vn 0.707112 -0.001074 -0.707101
vn 0.000000 -0.000328 -1.000000
vn 0.707112 -0.001074 -0.707101
vn 0.667397 0.433815 0.605298
vn 0.665925 0.067904 0.742922
vn 0.753758 0.644525 -0.128203
vn 1.000000 -0.000000 -0.000000
vn 0.855708 -0.287491 0.430248
vn 0.433961 0.852793 0.290556
vn 0.000000 0.511057 0.859547
vn 0.667397 0.433815 0.605298
vn 0.400453 0.683768 0.609999
vn 0.792395 -0.004932 -0.609988
vn 0.400465 0.683761 -0.609999
vn 0.792395 -0.004918 0.609988
vn 0.614960 -0.168879 -0.770262
vn 0.614960 -0.168879 -0.770262
vn -0.004395 -0.707103 -0.707097
vn 0.000000 -0.000000 -1.000000
vn 0.433961 0.852793 0.290556
vn -0.617007 -0.161220 0.770266
vn -0.792391 0.004932 -0.609994
vn -0.617006 -0.161225 -0.770266
vn -0.792391 0.004919 0.609994
vn -0.617007 -0.161220 0.770266
vn 0.000000 0.000000 1.000000
vn 0.665925 0.067904 0.742922
vn 0.000000 0.091932 0.995765
vn -0.792391 0.004919 0.609994
vn -0.391920 0.688688 -0.610006
vn -0.391931 0.688682 0.610006
vn 0.400465 0.683761 -0.609999
vn -0.391920 0.688688 -0.610006
vn -0.792391 0.004932 -0.609994
vn -0.391920 0.688688 -0.610006
vn 0.000000 0.707127 -0.707087
vn 0.753758 0.644525 -0.128203
vn 0.577350 0.577350 -0.577350
vn 0.600843 0.784008 0.155944
vn 0.630251 0.297117 0.717290
vn 0.600852 -0.444101 0.664643
vn -0.004396 -0.707098 0.707102
vn -0.580925 -0.573756 -0.577347
vn -0.004395 -0.707103 -0.707097
vn 0.614952 -0.168882 0.770268
vn 0.573740 -0.580933 -0.577355
vn -0.580918 -0.573756 0.577355
vn -0.004396 -0.707098 0.707102
vn 0.855708 -0.287491 0.430248
vn 0.000000 -0.707128 0.707086
vn 0.577350 -0.577350 0.577350
vn 0.630251 0.297117 0.717290
vn 0.000000 -0.555581 0.831463
vn 0.600852 -0.444101 0.664643
vn 0.000000 0.980785 0.195093
vn 0.600843 0.784008 0.155944
vn 0.000000 0.980785 -0.195092
vn 0.600843 0.784008 0.155944
vn 0.855708 -0.287491 0.430248
vn 0.000000 -0.555581 0.831463
vn 0.000000 -0.555570 0.831470
vn 0.582582 -0.603794 0.544087
vn 0.000000 -0.742723 0.669599
vn 0.582582 -0.603794 0.544087
vn 0.576996 -0.577736 -0.577318
vn 0.576996 -0.577736 -0.577318
vn 0.000000 -0.707223 -0.706991
vn -0.577332 -0.577381 -0.577338
vn -0.577332 -0.577381 -0.577338
vn -0.576996 -0.577737 -0.577318
vn -0.647239 0.348668 -0.677874
vn -0.433961 0.852793 0.290556
vn -0.433956 0.852794 -0.290560
vn -0.433956 0.852794 -0.290560
vn -0.707112 -0.001073 -0.707101
vn -0.707112 -0.001073 -0.707101
vn -0.667397 0.433815 0.605298
vn -0.577332 -0.577381 -0.577338
vn -0.855708 -0.287491 0.430248
vn -0.753758 0.644525 -0.128203
vn -0.433961 0.852793 0.290556
vn 0.000000 0.923843 0.382771
vn -0.792395 -0.004932 -0.609989
vn -0.400453 0.683767 0.610000
vn -0.400465 0.683761 -0.610000
vn -0.614959 -0.168879 -0.770263
vn -0.792395 -0.004919 0.609989
vn 0.004396 -0.707101 -0.707099
vn -0.614959 -0.168879 -0.770263
vn 0.000000 -0.000000 -1.000000
vn -0.433961 0.852793 0.290556
vn 0.792391 0.004932 -0.609994
vn 0.617008 -0.161220 0.770266
vn 0.617005 -0.161224 -0.770268
vn 0.391931 0.688683 0.610005
vn -0.400453 0.683767 0.610000
vn 0.000000 0.000000 1.000000
vn -0.665925 0.067904 0.742922
vn -0.667397 0.433815 0.605298
vn 0.391920 0.688689 -0.610005
vn 0.792391 0.004919 0.609993
vn -0.400465 0.683761 -0.610000
vn 0.391931 0.688683 0.610005
vn 0.391920 0.688689 -0.610005
vn -0.792395 -0.004932 -0.609989
vn -0.753758 0.644525 -0.128203
vn -0.577350 0.577350 -0.577350
vn -1.000000 -0.000000 -0.000002
vn -0.600843 0.784008 0.155944
vn -0.600852 -0.444101 0.664644
vn 0.580929 -0.573758 -0.577341
vn 0.004395 -0.707098 0.707102
vn 0.004396 -0.707101 -0.707099
vn -0.573740 -0.580933 -0.577356
vn -0.614953 -0.168882 0.770268
vn 0.580917 -0.573756 0.577356
vn 0.004395 -0.707098 0.707102
vn 0.617008 -0.161220 0.770266
vn 0.000000 0.000000 1.000000
vn -0.855708 -0.287491 0.430248
vn -0.577350 -0.577350 0.577350
vn -0.630251 0.297117 0.717290
vn -0.600852 -0.444101 0.664644
vn -0.600843 0.784008 0.155944
vn -0.600843 0.784008 0.155944
vn -0.855708 -0.287491 0.430248
vn -0.582582 -0.603794 0.544087
vn -0.582582 -0.603794 0.544087
vn -0.576996 -0.577737 -0.577318
vn -0.576996 -0.577737 -0.577318
vn 0.573757 -0.580936 0.577335
vn 0.614952 -0.168882 0.770268
vn 0.573757 -0.580936 0.577335
vn 0.573740 -0.580933 -0.577355
vn -0.617006 -0.161225 -0.770266
vn -0.580925 -0.573756 -0.577347
vn -0.573757 -0.580936 0.577335
vn -0.614953 -0.168882 0.770268
vn -0.573757 -0.580936 0.577335
vn -0.573740 -0.580933 -0.577356
vn 0.580929 -0.573758 -0.577341
vn 0.617005 -0.161224 -0.770268
vn 0.577350 -0.577350 0.577350
vn 0.577350 0.577350 -0.577350
vn 0.582582 -0.603794 0.544087
vn 0.647239 0.348668 -0.677874
vn 0.647239 0.348668 -0.677874
vn 0.577350 -0.577350 0.577350
vn 0.577332 -0.577381 -0.577338
vn 0.577350 0.577350 -0.577350
vn 0.573740 -0.580933 -0.577355
vn 0.000000 0.923843 0.382771
vn 0.792395 -0.004918 0.609988
vn 0.400453 0.683768 0.609999
vn -0.391931 0.688682 0.610006
vn -0.391931 0.688682 0.610006
vn 0.400453 0.683768 0.609999
vn 0.400465 0.683761 -0.609999
vn 0.792395 -0.004932 -0.609988
vn -0.580918 -0.573756 0.577355
vn 0.573757 -0.580936 0.577335
vn -0.580925 -0.573756 -0.577347
vn -0.580918 -0.573756 0.577355
vn 0.000000 -0.555570 0.831470
vn 0.000000 0.382684 0.923880
vn 0.000000 0.980785 0.195093
vn 0.600852 -0.444101 0.664643
vn -0.577350 -0.577350 0.577350
vn -0.577350 0.577350 -0.577350
vn -0.582582 -0.603794 0.544087
vn -0.647239 0.348668 -0.677874
vn -0.647239 0.348668 -0.677874
vn -0.665925 0.067904 0.742922
vn -0.577350 0.577350 -0.577350
vn -0.577350 -0.577350 0.577350
vn -0.573740 -0.580933 -0.577356
vn -0.792395 -0.004919 0.609989
vn 0.617008 -0.161220 0.770266
vn 0.792391 0.004919 0.609993
vn 0.391931 0.688683 0.610005
vn -0.400453 0.683767 0.610000
vn -0.400465 0.683761 -0.610000
vn 0.391920 0.688689 -0.610005
vn 0.792391 0.004932 -0.609994
vn -0.630251 0.297117 0.717290
vn 0.580917 -0.573756 0.577356
vn -0.573757 -0.580936 0.577335
vn 0.580929 -0.573758 -0.577341
vn 0.580917 -0.573756 0.577356
vn -0.600852 -0.444101 0.664644
vn 0.004395 -0.707098 0.707102
f 1/1/1 2/2/2 3/3/3
f 4/4/4 5/5/5 6/6/6
f 7/7/7 8/8/8 9/9/9
f 10/10/10 11/11/11 12/12/12
f 13/13/13 14/14/14 15/15/15
f 16/16/16 17/17/17 18/18/18
f 19/19/19 20/20/20 21/21/21
f 22/22/22 23/23/23 24/24/24
f 25/25/25 26/26/26 27/27/27
f 28/28/28 29/29/29 30/30/30
f 31/31/31 32/32/32 29/29/29
f 33/33/33 34/34/34 35/35/35
f 15/15/15 36/36/36 13/13/13
f 37/37/37 38/38/38 39/39/39
f 40/40/40 41/41/41 42/42/42
f 43/43/43 26/26/26 44/44/44
f 45/45/45 46/46/46 38/38/38
f 47/47/47 48/48/48 49/49/49
f 50/50/50 51/51/51 35/35/35
f 52/52/52 53/53/53 54/54/54
f 23/23/23 55/55/55 56/56/56
f 23/23/23 57/57/57 24/24/24
f 58/58/58 59/59/59 60/60/60
f 61/61/61 62/62/62 32/32/32
f 39/39/39 63/63/63 37/37/37
f 41/41/41 64/64/64 42/42/42
f 65/65/65 66/66/66 67/67/67
f 68/68/68 69/69/69 70/70/70
f 71/71/71 68/68/68 72/72/72
f 73/73/73 74/74/74 53/53/53
f 75/75/75 76/76/76 77/77/77
f 78/78/78 44/44/44 79/79/79
f 19/19/19 80/80/80 81/81/81
f 18/18/18 82/82/82 83/83/83
f 2/2/2 84/84/84 3/3/3
f 85/85/85 4/4/4 6/6/6
f 8/8/8 86/86/86 9/9/9
f 87/87/87 88/88/88 89/89/89
f 14/14/14 90/90/90 15/15/15
f 91/91/91 16/16/16 18/18/18
f 92/92/92 93/93/93 87/87/87
f 94/94/94 95/95/95 96/96/96
f 97/97/97 26/26/26 98/98/98
f 99/99/99 100/100/100 101/101/101
f 102/102/102 103/103/103 99/99/99
f 104/104/104 105/105/105 106/106/106
f 107/107/107 15/15/15 90/90/90
f 108/108/108 109/109/109 110/110/110
f 111/111/111 112/112/112 113/113/113
f 114/114/114 26/26/26 115/115/115
f 116/116/116 117/117/117 108/108/108
f 118/118/118 119/119/119 120/120/120
f 106/106/106 105/105/105 121/121/121
f 122/122/122 52/52/52 123/123/123
f 124/124/124 125/125/125 96/96/96
f 126/126/126 124/124/124 95/95/95
f 127/127/127 128/128/128 129/129/129
f 130/130/130 131/131/131 102/102/102
f 132/132/132 110/110/110 109/109/109
f 133/133/133 134/134/134 135/135/135
f 66/66/66 136/136/136 137/137/137
f 69/69/69 138/138/138 139/139/139
f 138/138/138 71/71/71 140/140/140
f 141/141/141 73/73/73 122/122/122
f 76/76/76 142/142/142 77/77/77
f 143/143/143 44/44/44 114/114/114
f 144/144/144 92/92/92 145/145/145
f 146/146/146 18/18/18 83/83/83
f 42/42/42 147/147/147 148/148/148
f 149/149/149 60/60/60 150/150/150
f 151/151/151 34/34/34 152/152/152
f 153/153/153 113/113/113 154/154/154
f 129/129/129 155/155/155 156/156/156
f 157/157/157 106/106/106 158/158/158
f 1/1/1 159/159/159 2/2/2
f 4/4/4 160/160/160 5/5/5
f 7/7/7 161/161/161 8/8/8
f 10/10/10 20/20/20 11/11/11
f 13/13/13 162/162/162 14/14/14
f 16/16/16 163/163/163 17/17/17
f 19/19/19 11/11/11 20/20/20
f 164/164/164 165/165/165 24/24/24
f 165/165/165 166/166/166 22/22/22
f 24/24/24 165/165/165 22/22/22
f 25/25/25 98/98/98 26/26/26
f 28/28/28 31/31/31 29/29/29
f 31/31/31 61/61/61 32/32/32
f 33/33/33 167/167/167 34/34/34
f 15/15/15 168/168/168 36/36/36
f 37/37/37 45/45/45 38/38/38
f 148/148/148 169/169/169 42/42/42
f 169/169/169 170/170/170 42/42/42
f 170/170/170 171/171/171 42/42/42
f 171/171/171 40/40/40 42/42/42
f 43/43/43 27/27/27 26/26/26
f 45/45/45 172/172/172 46/46/46
f 47/47/47 173/173/173 48/48/48
f 51/51/51 174/174/174 35/35/35
f 174/174/174 175/175/175 35/35/35
f 175/175/175 33/33/33 35/35/35
f 35/35/35 151/151/151 50/50/50
f 52/52/52 73/73/73 53/53/53
f 23/23/23 22/22/22 55/55/55
f 23/23/23 56/56/56 57/57/57
f 58/58/58 176/176/176 59/59/59
f 61/61/61 177/177/177 62/62/62
f 39/39/39 178/178/178 63/63/63
f 41/41/41 179/179/179 64/64/64
f 65/65/65 180/180/180 66/66/66
f 68/68/68 181/181/181 69/69/69
f 71/71/71 181/181/181 68/68/68
f 73/73/73 182/182/182 74/74/74
f 75/75/75 183/183/183 76/76/76
f 78/78/78 43/43/43 44/44/44
f 19/19/19 21/21/21 80/80/80
f 18/18/18 17/17/17 82/82/82
f 2/2/2 184/184/184 84/84/84
f 85/85/85 185/185/185 4/4/4
f 8/8/8 186/186/186 86/86/86
f 87/87/87 93/93/93 88/88/88
f 14/14/14 187/187/187 90/90/90
f 91/91/91 188/188/188 16/16/16
f 92/92/92 189/189/189 93/93/93
f 190/190/190 94/94/94 96/96/96
f 94/94/94 191/191/191 95/95/95
f 95/95/95 124/124/124 96/96/96
f 97/97/97 115/115/115 26/26/26
f 99/99/99 103/103/103 100/100/100
f 102/102/102 131/131/131 103/103/103
f 104/104/104 192/192/192 105/105/105
f 107/107/107 168/168/168 15/15/15
f 108/108/108 117/117/117 109/109/109
f 112/112/112 193/193/193 113/113/113
f 193/193/193 154/154/154 113/113/113
f 113/113/113 194/194/194 195/195/195
f 111/111/111 113/113/113 195/195/195
f 114/114/114 44/44/44 26/26/26
f 116/116/116 196/196/196 117/117/117
f 118/118/118 197/197/197 119/119/119
f 121/121/121 198/198/198 106/106/106
f 198/198/198 199/199/199 106/106/106
f 199/199/199 200/200/200 106/106/106
f 200/200/200 158/158/158 106/106/106
f 122/122/122 73/73/73 52/52/52
f 124/124/124 201/201/201 125/125/125
f 126/126/126 201/201/201 124/124/124
f 127/127/127 202/202/202 128/128/128
f 130/130/130 203/203/203 131/131/131
f 132/132/132 204/204/204 110/110/110
f 133/133/133 205/205/205 134/134/134
f 66/66/66 180/180/180 136/136/136
f 69/69/69 181/181/181 138/138/138
f 138/138/138 181/181/181 71/71/71
f 141/141/141 182/182/182 73/73/73
f 76/76/76 206/206/206 142/142/142
f 143/143/143 79/79/79 44/44/44
f 144/144/144 189/189/189 92/92/92
f 146/146/146 91/91/91 18/18/18
f 42/42/42 64/64/64 147/147/147
f 149/149/149 58/58/58 60/60/60
f 151/151/151 35/35/35 34/34/34
f 153/153/153 207/207/207 113/113/113
f 129/129/129 128/128/128 155/155/155
f 157/157/157 104/104/104 106/106/106
