# f_desk -- imported by tools/import_asset_pack.py from f_desk.fbx
o __pending__
v 4.159475 -4.964122 -0.487001
v 3.207720 -4.964122 0.487650
v 3.207720 -4.964122 -0.487001
v 3.207720 -5.563404 0.487650
v 2.881805 -5.563404 0.564221
v 2.809938 -5.563404 0.486259
v 4.557257 -4.828741 0.486259
v 4.159778 -4.828741 0.661155
v 4.680158 -4.828741 0.608730
v 4.159778 -4.964122 0.661155
v 3.207416 -4.964122 0.661155
v 2.809938 -4.828742 -0.485610
v 3.207416 -4.828742 -0.660506
v 2.687037 -4.828742 -0.608082
v 4.557257 -4.964122 -0.485610
v 4.680158 -4.964122 0.608730
v 4.557257 -4.964122 0.486259
v 3.207720 -4.964122 -0.487001
v 2.809938 -5.563404 -0.485610
v 2.809938 -4.964122 -0.485610
v 4.159778 -4.964122 -0.660506
v 4.680158 -4.964122 -0.608082
v 3.207416 -4.964122 -0.660506
v 4.159475 -4.828741 0.487650
v 4.159475 -4.828742 -0.487001
v 2.809938 -4.828741 0.486259
v 3.207416 -4.828741 0.661155
v 3.207720 -4.828741 0.487650
v 2.809938 -4.964122 0.486259
v 2.687037 -4.964122 -0.608082
v 2.809938 -4.964122 -0.485610
v 3.207720 -5.563404 -0.487001
v 2.809938 -5.563404 -0.485610
v 4.557257 -5.563404 -0.485610
v 4.159475 -5.563404 0.487650
v 4.159475 -5.563404 -0.487001
v 4.159475 -4.964122 -0.487001
v 4.159475 -5.563404 0.487650
v 4.159475 -4.964122 0.487650
v 4.557257 -4.964122 0.486259
v 4.557257 -5.563404 -0.485610
v 4.557257 -4.964122 -0.485610
v 2.809938 -4.964122 -0.485610
v 2.809938 -5.563404 0.486259
v 2.809938 -4.964122 0.486259
v 4.159475 -5.563404 0.487650
v 4.231342 -4.964122 0.565612
v 4.159475 -4.964122 0.487650
v 4.557257 -4.964122 -0.485610
v 4.159475 -5.563404 -0.487001
v 4.159475 -4.964122 -0.487001
v 3.207720 -4.964122 0.487650
v 3.207720 -5.563404 -0.487001
v 3.207720 -4.964122 -0.487001
v 2.881805 -4.964122 0.564221
v 3.135852 -5.563404 0.565612
v 3.135852 -4.964122 0.565612
v 4.231342 -4.964122 0.565612
v 4.485389 -5.563404 0.564221
v 4.485389 -4.964122 0.564221
v 3.207720 -4.964122 0.487650
v 3.135852 -5.563404 0.565612
v 3.207720 -5.563404 0.487650
v 3.207720 -4.964122 0.487650
v 2.881805 -4.964122 0.564221
v 3.135852 -4.964122 0.565612
v 4.485389 -5.563404 0.564221
v 4.231342 -5.563404 0.565612
v 4.557257 -4.964122 0.486259
v 4.485389 -5.563404 0.564221
v 4.557257 -5.563404 0.486259
v 4.159475 -4.964122 0.487650
v 4.485389 -4.964122 0.564221
v 4.557257 -4.964122 0.486259
v 2.809938 -5.563404 0.486259
v 2.881805 -4.964122 0.564221
v 2.809938 -4.964122 0.486259
v 3.207416 -4.828741 0.661155
v 2.687037 -4.964122 0.608730
v 3.207416 -4.964122 0.661155
v 3.207416 -4.964122 -0.660506
v 2.687037 -4.828742 -0.608082
v 3.207416 -4.828742 -0.660506
v 4.680158 -4.964122 -0.608082
v 4.159778 -4.828742 -0.660506
v 4.680158 -4.828742 -0.608082
v 4.159778 -4.964122 0.661155
v 4.680158 -4.828741 0.608730
v 4.159778 -4.828741 0.661155
v 2.687037 -4.828741 0.608730
v 2.687037 -4.964122 -0.608082
v 2.687037 -4.964122 0.608730
v 4.159778 -4.828741 0.661155
v 3.207416 -4.964122 0.661155
v 4.159778 -4.964122 0.661155
v 3.207416 -4.828742 -0.660506
v 4.159778 -4.964122 -0.660506
v 3.207416 -4.964122 -0.660506
v 4.680158 -4.828742 -0.608082
v 4.680158 -4.964122 0.608730
v 4.680158 -4.964122 -0.608082
v 2.687037 -4.828741 0.608730
v 4.159475 -4.964122 0.487650
v 4.680158 -4.828742 -0.608082
v 4.557257 -4.828742 -0.485610
v 2.687037 -4.964122 0.608730
v 4.159778 -4.828742 -0.660506
v 3.207720 -4.828742 -0.487001
v 3.135852 -5.563404 0.565612
v 3.207720 -5.563404 -0.487001
v 4.557257 -5.563404 0.486259
v 4.159475 -5.563404 -0.487001
v 4.557257 -5.563404 0.486259
v 2.809938 -5.563404 -0.485610
v 4.231342 -5.563404 0.565612
v 4.557257 -5.563404 -0.485610
v 3.207720 -5.563404 0.487650
v 2.881805 -5.563404 0.564221
v 4.231342 -5.563404 0.565612
v 3.135852 -4.964122 0.565612
v 2.809938 -4.964122 0.486259
v 4.485389 -4.964122 0.564221
v 4.231342 -4.964122 0.565612
v 2.881805 -5.563404 0.564221
v 2.687037 -4.828741 0.608730
v 2.687037 -4.964122 -0.608082
v 4.159778 -4.964122 -0.660506
v 4.680158 -4.964122 0.608730
v 2.687037 -4.828742 -0.608082
v 3.207416 -4.828741 0.661155
v 4.159778 -4.828742 -0.660506
v 4.680158 -4.828741 0.608730
vt 0.320438 0.590095
vt 0.051540 0.852676
vt 0.320438 0.852676
vt 0.003671 0.417591
vt 0.093588 0.438716
vt 0.113416 0.417207
vt 0.423902 0.962421
vt 0.375650 0.852760
vt 0.390113 0.996329
vt 0.003671 0.590011
vt 0.003671 0.852760
vt 0.692033 0.480350
vt 0.740285 0.590011
vt 0.725822 0.446443
vt 0.320054 0.480350
vt 0.018135 0.446443
vt 0.051924 0.480350
vt 0.857373 0.310226
vt 0.747628 0.144889
vt 0.747628 0.310226
vt 0.368307 0.590011
vt 0.353844 0.446443
vt 0.368307 0.852760
vt 0.423518 0.852676
vt 0.692417 0.852676
vt 0.423902 0.480350
vt 0.375650 0.590011
vt 0.423518 0.590095
vt 0.051924 0.962421
vt 0.353843 0.996329
vt 0.320054 0.962421
vt 0.003671 0.148692
vt 0.113416 0.149076
vt 0.120759 0.149076
vt 0.230504 0.417591
vt 0.230504 0.148692
vt 0.237846 0.439100
vt 0.403183 0.170202
vt 0.237846 0.170202
vt 0.792321 0.996329
vt 0.957658 0.728198
vt 0.792321 0.728198
vt 0.792321 0.720855
vt 0.957658 0.452724
vt 0.792321 0.452724
vt 0.738443 0.273763
vt 0.709189 0.439100
vt 0.738443 0.439100
vt 0.974461 0.310226
vt 0.864716 0.144889
vt 0.864716 0.310226
vt 0.410526 0.439100
vt 0.575863 0.170202
vt 0.410526 0.170202
vt 0.730730 0.169008
vt 0.660639 0.003671
vt 0.660639 0.169008
vt 0.653296 0.169008
vt 0.583206 0.003671
vt 0.583206 0.169008
vt 0.965001 0.823649
vt 0.994255 0.658312
vt 0.965001 0.658312
vt 0.813899 0.445382
vt 0.792460 0.355539
vt 0.792321 0.425629
vt 0.140587 0.438716
vt 0.210676 0.439100
vt 0.965001 0.996329
vt 0.994255 0.830992
vt 0.965001 0.830992
vt 0.821242 0.445382
vt 0.842682 0.355539
vt 0.821242 0.335636
vt 0.701846 0.273763
vt 0.672592 0.439100
vt 0.701846 0.439100
vt 0.282540 0.018564
vt 0.319890 0.162859
vt 0.319890 0.018564
vt 0.364583 0.162859
vt 0.327233 0.018564
vt 0.327233 0.162859
vt 0.275197 0.162859
vt 0.237846 0.018564
vt 0.237846 0.162859
vt 0.409277 0.162859
vt 0.371926 0.018564
vt 0.371926 0.162859
vt 0.747628 0.660620
vt 0.784978 0.996329
vt 0.784978 0.660620
vt 0.583206 0.176351
vt 0.620556 0.439100
vt 0.620556 0.176351
vt 0.627899 0.176351
vt 0.665250 0.439100
vt 0.665250 0.176351
vt 0.747628 0.317568
vt 0.784978 0.653277
vt 0.784978 0.317568
vt 0.390113 0.446443
vt 0.051540 0.590095
vt 0.725822 0.996329
vt 0.692033 0.962421
vt 0.018135 0.996329
vt 0.740285 0.852760
vt 0.692417 0.590095
vt 0.023499 0.439100
vt 0.857373 0.144889
vt 0.120759 0.417207
vt 0.403183 0.439100
vt 0.957658 0.996329
vt 0.957658 0.720855
vt 0.709189 0.273763
vt 0.974461 0.144889
vt 0.575863 0.439100
vt 0.730730 0.003671
vt 0.653296 0.003671
vt 0.994255 0.823649
vt 0.813899 0.335636
vt 0.994255 0.996329
vt 0.842821 0.425629
vt 0.672592 0.273763
vt 0.282540 0.162859
vt 0.364583 0.018564
vt 0.275197 0.018564
vt 0.409277 0.018564
vt 0.747628 0.996329
vt 0.583206 0.439100
vt 0.627899 0.439100
vt 0.747628 0.653277
vn -0.300367 -0.904946 -0.301419
vn 0.560283 -0.798869 0.218842
vn 0.300370 -0.904942 -0.301426
vn 0.720603 -0.633648 0.281464
vn -0.314515 -0.627379 0.712374
vn -0.720604 -0.633648 0.281461
vn 0.000000 1.000000 -0.000000
vn 0.036033 0.695975 0.717161
vn 0.602705 0.582840 0.545018
vn 0.036032 -0.695979 0.717158
vn -0.036033 -0.695975 0.717161
vn -0.000000 1.000000 -0.000000
vn -0.036033 0.695975 -0.717161
vn -0.602705 0.582840 -0.545018
vn 0.302655 -0.904122 -0.301602
vn 0.602706 -0.582822 0.545035
vn 0.560298 -0.798857 0.218847
vn 0.300370 -0.904942 -0.301426
vn -0.578265 -0.577531 -0.576253
vn -0.302655 -0.904123 -0.301598
vn 0.036033 -0.695975 -0.717161
vn 0.602705 -0.582840 -0.545018
vn -0.036032 -0.695979 -0.717158
vn 0.000000 1.000000 -0.000000
vn 0.000000 1.000000 -0.000000
vn 0.000000 1.000000 -0.000000
vn -0.036032 0.695979 0.717158
vn -0.000000 1.000000 -0.000000
vn -0.560300 -0.798854 0.218850
vn -0.602706 -0.582823 -0.545035
vn -0.302655 -0.904123 -0.301598
vn 0.576441 -0.577148 -0.578460
vn -0.578265 -0.577531 -0.576253
vn 0.578276 -0.577516 -0.576257
vn -0.720611 -0.633638 0.281464
vn -0.576428 -0.577165 -0.578455
vn -0.300367 -0.904946 -0.301419
vn -0.720611 -0.633638 0.281464
vn -0.560291 -0.798862 0.218847
vn 0.560298 -0.798857 0.218847
vn 0.578276 -0.577516 -0.576257
vn 0.302655 -0.904122 -0.301602
vn -0.302655 -0.904123 -0.301598
vn -0.720604 -0.633648 0.281461
vn -0.560300 -0.798854 0.218850
vn -0.720611 -0.633638 0.281464
vn -0.310896 0.626501 0.714731
vn -0.560291 -0.798862 0.218847
vn 0.302655 -0.904122 -0.301602
vn -0.576428 -0.577165 -0.578455
vn -0.300367 -0.904946 -0.301419
vn 0.560283 -0.798869 0.218842
vn 0.576441 -0.577148 -0.578460
vn 0.300370 -0.904942 -0.301426
vn -0.314516 0.627391 0.712363
vn 0.310895 -0.626501 0.714731
vn 0.310894 0.626490 0.714742
vn -0.310896 0.626501 0.714731
vn 0.314516 -0.627390 0.712363
vn 0.314514 0.627379 0.712374
vn 0.560283 -0.798869 0.218842
vn 0.310895 -0.626501 0.714731
vn 0.720603 -0.633648 0.281464
vn 0.560283 -0.798869 0.218842
vn -0.314516 0.627391 0.712363
vn 0.310894 0.626490 0.714742
vn 0.314516 -0.627390 0.712363
vn -0.310894 -0.626489 0.714742
vn 0.560298 -0.798857 0.218847
vn 0.314516 -0.627390 0.712363
vn 0.720596 -0.633657 0.281460
vn -0.560291 -0.798862 0.218847
vn 0.314514 0.627379 0.712374
vn 0.560298 -0.798857 0.218847
vn -0.720604 -0.633648 0.281461
vn -0.314516 0.627391 0.712363
vn -0.560300 -0.798854 0.218850
vn -0.036032 0.695979 0.717158
vn -0.602705 -0.582840 0.545018
vn -0.036033 -0.695975 0.717161
vn -0.036032 -0.695979 -0.717158
vn -0.602705 0.582840 -0.545018
vn -0.036033 0.695975 -0.717161
vn 0.602705 -0.582840 -0.545018
vn 0.036032 0.695979 -0.717158
vn 0.602706 0.582822 -0.545035
vn 0.036032 -0.695979 0.717158
vn 0.602705 0.582840 0.545018
vn 0.036033 0.695975 0.717161
vn -0.602706 0.582823 0.545035
vn -0.602706 -0.582823 -0.545035
vn -0.602705 -0.582840 0.545018
vn 0.036033 0.695975 0.717161
vn -0.036033 -0.695975 0.717161
vn 0.036032 -0.695979 0.717158
vn -0.036033 0.695975 -0.717161
vn 0.036033 -0.695975 -0.717161
vn -0.036032 -0.695979 -0.717158
vn 0.602706 0.582822 -0.545035
vn 0.602706 -0.582822 0.545035
vn 0.602705 -0.582840 -0.545018
vn -0.602706 0.582823 0.545035
vn -0.560291 -0.798862 0.218847
vn 0.602706 0.582822 -0.545035
vn -0.000000 1.000000 -0.000000
vn -0.602705 -0.582840 0.545018
vn 0.036032 0.695979 -0.717158
vn -0.000000 1.000000 -0.000000
vn 0.310895 -0.626501 0.714731
vn 0.576441 -0.577148 -0.578460
vn 0.720596 -0.633657 0.281460
vn -0.576428 -0.577165 -0.578455
vn 0.720596 -0.633657 0.281460
vn -0.578265 -0.577531 -0.576253
vn -0.310894 -0.626489 0.714742
vn 0.578276 -0.577516 -0.576257
vn 0.720603 -0.633648 0.281464
vn -0.314515 -0.627379 0.712374
vn -0.310894 -0.626489 0.714742
vn 0.310894 0.626490 0.714742
vn -0.560300 -0.798854 0.218850
vn 0.314514 0.627379 0.712374
vn -0.310896 0.626501 0.714731
vn -0.314515 -0.627379 0.712374
vn -0.602706 0.582823 0.545035
vn -0.602706 -0.582823 -0.545035
vn 0.036033 -0.695975 -0.717161
vn 0.602706 -0.582822 0.545035
vn -0.602705 0.582840 -0.545018
vn -0.036032 0.695979 0.717158
vn 0.036032 0.695979 -0.717158
vn 0.602705 0.582840 0.545018
f 1/1/1 2/2/2 3/3/3
f 4/4/4 5/5/5 6/6/6
f 7/7/7 8/8/8 9/9/9
f 2/2/2 10/10/10 11/11/11
f 12/12/12 13/13/13 14/14/14
f 15/15/15 16/16/16 17/17/17
f 18/18/18 19/19/19 20/20/20
f 15/15/15 21/21/21 22/22/22
f 1/1/1 23/23/23 21/21/21
f 24/24/24 7/7/7 25/25/25
f 26/26/26 27/27/27 28/28/28
f 29/29/29 30/30/30 31/31/31
f 32/32/32 6/6/6 33/33/33
f 34/34/34 35/35/35 36/36/36
f 37/37/37 38/38/38 39/39/39
f 40/40/40 41/41/41 42/42/42
f 43/43/43 44/44/44 45/45/45
f 46/46/46 47/47/47 48/48/48
f 49/49/49 50/50/50 51/51/51
f 52/52/52 53/53/53 54/54/54
f 55/55/55 56/56/56 57/57/57
f 58/58/58 59/59/59 60/60/60
f 61/61/61 62/62/62 63/63/63
f 64/64/64 65/65/65 66/66/66
f 35/35/35 67/67/67 68/68/68
f 69/69/69 70/70/70 71/71/71
f 72/72/72 73/73/73 74/74/74
f 75/75/75 76/76/76 77/77/77
f 78/78/78 79/79/79 80/80/80
f 81/81/81 82/82/82 83/83/83
f 84/84/84 85/85/85 86/86/86
f 87/87/87 88/88/88 89/89/89
f 90/90/90 91/91/91 92/92/92
f 93/93/93 94/94/94 95/95/95
f 96/96/96 97/97/97 98/98/98
f 99/99/99 100/100/100 101/101/101
f 12/12/12 102/102/102 26/26/26
f 31/31/31 23/23/23 3/3/3
f 24/24/24 27/27/27 8/8/8
f 17/17/17 10/10/10 103/103/103
f 7/7/7 104/104/104 105/105/105
f 29/29/29 11/11/11 106/106/106
f 105/105/105 107/107/107 25/25/25
f 108/108/108 107/107/107 13/13/13
f 1/1/1 103/103/103 2/2/2
f 4/4/4 109/109/109 5/5/5
f 7/7/7 24/24/24 8/8/8
f 2/2/2 103/103/103 10/10/10
f 12/12/12 108/108/108 13/13/13
f 15/15/15 22/22/22 16/16/16
f 18/18/18 110/110/110 19/19/19
f 15/15/15 1/1/1 21/21/21
f 1/1/1 3/3/3 23/23/23
f 7/7/7 105/105/105 25/25/25
f 25/25/25 108/108/108 28/28/28
f 108/108/108 12/12/12 28/28/28
f 12/12/12 26/26/26 28/28/28
f 28/28/28 24/24/24 25/25/25
f 26/26/26 102/102/102 27/27/27
f 29/29/29 106/106/106 30/30/30
f 32/32/32 4/4/4 6/6/6
f 34/34/34 111/111/111 35/35/35
f 37/37/37 112/112/112 38/38/38
f 40/40/40 113/113/113 41/41/41
f 43/43/43 114/114/114 44/44/44
f 46/46/46 115/115/115 47/47/47
f 49/49/49 116/116/116 50/50/50
f 52/52/52 117/117/117 53/53/53
f 55/55/55 118/118/118 56/56/56
f 58/58/58 119/119/119 59/59/59
f 61/61/61 120/120/120 62/62/62
f 64/64/64 121/121/121 65/65/65
f 35/35/35 111/111/111 67/67/67
f 69/69/69 122/122/122 70/70/70
f 72/72/72 123/123/123 73/73/73
f 75/75/75 124/124/124 76/76/76
f 78/78/78 125/125/125 79/79/79
f 81/81/81 126/126/126 82/82/82
f 84/84/84 127/127/127 85/85/85
f 87/87/87 128/128/128 88/88/88
f 90/90/90 129/129/129 91/91/91
f 93/93/93 130/130/130 94/94/94
f 96/96/96 131/131/131 97/97/97
f 99/99/99 132/132/132 100/100/100
f 12/12/12 14/14/14 102/102/102
f 31/31/31 30/30/30 23/23/23
f 24/24/24 28/28/28 27/27/27
f 17/17/17 16/16/16 10/10/10
f 7/7/7 9/9/9 104/104/104
f 29/29/29 2/2/2 11/11/11
f 105/105/105 104/104/104 107/107/107
f 108/108/108 25/25/25 107/107/107
