# f_kingsbed -- imported by tools/import_asset_pack.py from f_doublebed.fbx
o __pending__
v -0.489835 -5.088373 -0.922269
v -0.489835 -4.817369 0.923081
v -0.489835 -5.088373 0.923081
v 1.189179 -5.088373 -0.922269
v 1.524981 -5.700040 -0.922269
v 1.189179 -5.700040 -1.130633
v 1.524981 -5.088373 -0.922269
v 1.524981 -5.700040 0.923082
v 1.524981 -5.700040 -0.922269
v -0.154032 -5.088373 0.923081
v -0.489835 -5.700040 0.923082
v -0.154032 -5.700040 1.131446
v 1.524981 -5.700040 -0.922269
v 1.189179 -5.700040 0.923082
v 1.189179 -5.700040 -1.130633
v -0.489835 -5.088373 -0.922269
v -0.154032 -5.088373 0.923081
v -0.154032 -5.088373 -0.922269
v 0.181771 -5.700040 0.923082
v -0.154032 -5.088373 0.923081
v -0.154032 -5.700040 1.131446
v -0.183182 -5.258362 0.840506
v 0.061030 -5.190681 0.840506
v -0.142803 -4.886066 0.840506
v 0.853376 -5.088373 -0.922269
v 1.189179 -5.088373 0.923081
v 1.189179 -5.088373 -0.922269
v -0.183182 -5.258362 0.095930
v -0.407205 -5.139896 0.840506
v -0.407205 -5.139896 0.095930
v 0.853376 -5.700040 -0.922269
v 1.189179 -5.088373 -0.922269
v 1.189179 -5.700040 -1.130633
v -0.183182 -5.258362 0.095930
v -0.407205 -5.139896 0.095930
v -0.387015 -4.953748 0.095930
v 0.061030 -5.190681 0.840506
v -0.183182 -5.258362 0.095930
v 0.061030 -5.190681 0.095930
v 0.517573 -5.088373 -0.922269
v 0.853376 -5.700040 -0.922269
v 0.517573 -5.700040 -0.922269
v -0.387015 -4.953748 0.095930
v -0.142803 -4.886066 0.840506
v -0.142803 -4.886066 0.095930
v 0.081220 -5.004532 0.840506
v 0.061030 -5.190681 0.095930
v 0.081220 -5.004532 0.095930
v 0.181771 -5.088373 -0.922269
v 0.517573 -5.700040 -0.922269
v 0.181771 -5.700040 -1.130633
v -0.142803 -4.886066 0.840506
v 0.081220 -5.004532 0.095930
v -0.142803 -4.886066 0.095930
v -0.154032 -5.700040 -0.922269
v 0.181771 -5.088373 -0.922269
v 0.181771 -5.700040 -1.130633
v -0.154032 -5.700040 -0.922269
v -0.489835 -5.700040 0.923082
v -0.489835 -5.700040 -0.922269
v -0.407205 -5.139896 0.840506
v -0.387015 -4.953748 0.095930
v -0.407205 -5.139896 0.095930
v 1.189179 -5.088373 0.923081
v 0.853376 -5.700040 0.923082
v 1.189179 -5.700040 0.923082
v 0.181771 -5.088373 0.923081
v 0.181771 -5.088373 -0.922269
v 0.517573 -5.088373 -0.922269
v 0.853376 -5.088373 0.923081
v 1.524981 -5.088373 0.923081
v 1.524981 -5.700040 0.923082
v 0.181771 -5.700040 0.923082
v -0.154032 -5.700040 1.131446
v 0.517573 -5.088373 0.923081
v 0.853376 -5.700040 -0.922269
v 0.853376 -5.700040 0.923082
v 0.853376 -5.700040 0.923082
v 0.517573 -5.088373 0.923081
v 0.517573 -5.700040 1.131446
v 0.517573 -5.700040 -0.922269
v 0.181771 -5.700040 -1.130633
v 0.517573 -5.700040 1.131446
v 1.524981 -5.088373 0.923081
v 1.524981 -5.088373 -0.922269
v 0.517573 -5.088373 0.923081
v 0.181771 -5.700040 0.923082
v 0.517573 -5.700040 1.131446
v -0.489835 -5.088373 -0.922269
v -0.154032 -5.700040 -0.922269
v -0.489835 -5.700040 -0.922269
v -0.639355 -5.088373 0.923081
v -0.639355 -5.700040 -0.922269
v -0.639355 -5.700040 0.923082
v -0.639355 -5.700040 -0.922269
v -0.639355 -5.088373 -0.922269
v -0.489835 -5.088373 0.923081
v -0.639355 -5.700040 0.923082
v -0.489835 -5.700040 0.923082
v -0.489835 -4.817369 0.923081
v -0.639355 -4.580791 0.584614
v -0.639355 -4.817369 0.923081
v -0.639355 -4.817369 0.923081
v -0.639355 -5.088373 0.923081
v -0.489835 -4.817369 -0.922269
v -0.639355 -4.817369 -0.922269
v -0.639355 -5.088373 -0.922269
v -0.489835 -4.580792 -0.583802
v -0.639355 -4.580791 0.584614
v -0.489835 -4.580791 0.584614
v -0.639355 -4.817369 0.923081
v -0.639355 -4.580792 -0.583802
v -0.639355 -4.817369 -0.922269
v -0.489835 -4.580792 -0.583802
v -0.489835 -4.817369 -0.922269
v -0.489835 -4.817369 -0.922269
v -0.489835 -4.580791 0.584614
v -0.183182 -5.258362 0.018969
v 0.061030 -5.190681 0.018969
v -0.142803 -4.886066 0.018969
v -0.183182 -5.258363 -0.725607
v -0.407205 -5.139896 0.018969
v -0.407205 -5.139896 -0.725607
v -0.183182 -5.258363 -0.725607
v -0.407205 -5.139896 -0.725607
v -0.387015 -4.953748 -0.725607
v 0.061030 -5.190681 0.018969
v -0.183182 -5.258363 -0.725607
v 0.061030 -5.190681 -0.725607
v -0.387015 -4.953748 -0.725607
v -0.142803 -4.886066 0.018969
v -0.142803 -4.886066 -0.725607
v 0.081220 -5.004532 0.018969
v 0.061030 -5.190681 -0.725607
v 0.081220 -5.004532 -0.725607
v -0.142803 -4.886066 0.018969
v 0.081220 -5.004532 -0.725607
v -0.142803 -4.886066 -0.725607
v -0.407205 -5.139896 0.018969
v -0.387015 -4.953748 -0.725607
v -0.407205 -5.139896 -0.725607
v 1.524981 -5.088373 -0.922269
v 1.524981 -5.088373 0.923081
v -0.489835 -5.088373 0.923081
v 1.524981 -5.700040 0.923082
v -0.489835 -5.088373 0.923081
v 0.181771 -5.088373 0.923081
v 0.081220 -5.004532 0.840506
v -0.387015 -4.953748 0.840506
v -0.407205 -5.139896 0.840506
v -0.183182 -5.258362 0.840506
v 0.853376 -5.088373 -0.922269
v -0.142803 -4.886066 0.095930
v 0.081220 -5.004532 0.095930
v 0.061030 -5.190681 0.095930
v -0.183182 -5.258362 0.840506
v 0.853376 -5.088373 -0.922269
v -0.387015 -4.953748 0.840506
v 0.061030 -5.190681 0.840506
v 0.517573 -5.088373 -0.922269
v 0.081220 -5.004532 0.840506
v -0.154032 -5.088373 -0.922269
v -0.387015 -4.953748 0.840506
v 0.853376 -5.088373 0.923081
v 0.853376 -5.088373 0.923081
v 0.181771 -5.088373 0.923081
v -0.154032 -5.088373 -0.922269
v -0.639355 -5.700040 0.923082
v -0.639355 -5.700040 -0.922269
v -0.489835 -4.580791 0.584614
v -0.489835 -4.817369 0.923081
v -0.639355 -4.817369 -0.922269
v -0.639355 -4.580792 -0.583802
v -0.639355 -4.580791 0.584614
v -0.639355 -4.580792 -0.583802
v -0.489835 -4.580792 -0.583802
v 0.081220 -5.004532 0.018969
v -0.387015 -4.953748 0.018969
v -0.407205 -5.139896 0.018969
v -0.183182 -5.258362 0.018969
v -0.142803 -4.886066 -0.725607
v 0.081220 -5.004532 -0.725607
v 0.061030 -5.190681 -0.725607
v -0.183182 -5.258362 0.018969
v -0.387015 -4.953748 0.018969
v 0.061030 -5.190681 0.018969
v 0.081220 -5.004532 0.018969
v -0.387015 -4.953748 0.018969
vt 0.778065 0.712907
vt 0.709811 0.995960
vt 0.778065 0.995960
vt 0.855209 0.704827
vt 0.938313 0.549976
vt 0.849276 0.548384
vt 0.649065 0.197380
vt 0.803118 0.480433
vt 0.803118 0.197380
vt 0.559264 0.189300
vt 0.642368 0.034449
vt 0.553330 0.032857
vt 0.319053 0.450856
vt 0.036000 0.535430
vt 0.351014 0.535430
vt 0.642147 0.488513
vt 0.359094 0.573088
vt 0.642147 0.573088
vt 0.004040 0.057537
vt 0.087144 0.212388
vt 0.093078 0.055944
vt 0.908316 0.211886
vt 0.908316 0.275712
vt 0.995960 0.246729
vt 0.642147 0.826811
vt 0.359094 0.911385
vt 0.642147 0.911385
vt 0.785957 0.704827
vt 0.722132 0.492460
vt 0.722132 0.704827
vt 0.811198 0.138282
vt 0.894302 0.293133
vt 0.900236 0.136690
vt 0.995960 0.076156
vt 0.952138 0.029752
vt 0.908316 0.047174
vt 0.650227 0.704827
vt 0.714052 0.492460
vt 0.650227 0.492460
vt 0.650448 0.189300
vt 0.735023 0.035247
vt 0.650448 0.035247
vt 0.315821 0.442775
vt 0.251996 0.230409
vt 0.251996 0.442775
vt 0.786145 0.995960
vt 0.833303 0.783593
vt 0.786145 0.783593
vt 0.365028 0.189300
vt 0.448132 0.034449
vt 0.359094 0.032857
vt 0.180090 0.442775
vt 0.243916 0.230409
vt 0.180090 0.230409
vt 0.841383 0.841109
vt 0.924487 0.995960
vt 0.930421 0.839517
vt 0.319053 0.873728
vt 0.036000 0.958302
vt 0.319053 0.958302
vt 0.841195 0.492460
vt 0.794038 0.704827
vt 0.841195 0.704827
vt 0.180090 0.137754
vt 0.334143 0.222329
vt 0.334143 0.137754
vt 0.359094 0.657662
vt 0.642147 0.657662
vt 0.642147 0.742237
vt 0.359094 0.826811
vt 0.180090 0.053180
vt 0.334143 0.053180
vt 0.036000 0.789153
vt 0.004040 0.873728
vt 0.359094 0.742237
vt 0.319053 0.620005
vt 0.036000 0.620005
vt 0.456212 0.034449
vt 0.539316 0.189300
vt 0.545250 0.032857
vt 0.319053 0.704579
vt 0.351014 0.789153
vt 0.004040 0.704579
vt 0.359094 0.995960
vt 0.642147 0.995960
vt 0.862870 0.480433
vt 0.945974 0.325582
vt 0.856936 0.323990
vt 0.041698 0.374521
vt 0.126272 0.220468
vt 0.041698 0.220468
vt 0.486932 0.197380
vt 0.640985 0.480433
vt 0.640985 0.197380
vt 0.319053 0.995960
vt 0.004040 0.374521
vt 0.134352 0.374521
vt 0.172010 0.220468
vt 0.134352 0.220468
vt 0.101158 0.133359
vt 0.138816 0.212388
vt 0.138816 0.133359
vt 0.172010 0.442775
vt 0.172010 0.374521
vt 0.041698 0.442775
vt 0.418678 0.480433
vt 0.486932 0.480433
vt 0.848856 0.301213
vt 0.811198 0.480433
vt 0.848856 0.480433
vt 0.418678 0.197380
vt 0.359094 0.428516
vt 0.841383 0.752408
vt 0.879041 0.831436
vt 0.879041 0.752408
vt 0.709811 0.712907
vt 0.650227 0.944043
vt 0.908316 0.211886
vt 0.908316 0.275712
vt 0.995960 0.246729
vt 0.785957 0.704827
vt 0.722132 0.492460
vt 0.722132 0.704827
vt 0.995960 0.076156
vt 0.952138 0.029752
vt 0.908316 0.047174
vt 0.650227 0.704827
vt 0.714052 0.492460
vt 0.650227 0.492460
vt 0.315821 0.442775
vt 0.251996 0.230409
vt 0.251996 0.442775
vt 0.786145 0.995960
vt 0.833303 0.783593
vt 0.786145 0.783593
vt 0.180090 0.442775
vt 0.243916 0.230409
vt 0.180090 0.230409
vt 0.841195 0.492460
vt 0.794038 0.704827
vt 0.841195 0.704827
vt 0.938313 0.703235
vt 0.649065 0.480433
vt 0.642368 0.187708
vt 0.036000 0.450856
vt 0.359094 0.488513
vt 0.004040 0.210795
vt 0.952138 0.293133
vt 0.995960 0.182904
vt 0.952138 0.165483
vt 0.785957 0.492460
vt 0.811198 0.291541
vt 0.908316 0.110999
vt 0.952138 0.157403
vt 0.995960 0.139981
vt 0.714052 0.704827
vt 0.735023 0.189300
vt 0.315821 0.230409
vt 0.833303 0.995960
vt 0.448132 0.187708
vt 0.243916 0.442775
vt 0.841383 0.994368
vt 0.794038 0.492460
vt 0.180090 0.222329
vt 0.456212 0.187708
vt 0.945974 0.478841
vt 0.126272 0.374521
vt 0.036000 0.995960
vt 0.004040 0.220468
vt 0.101158 0.212388
vt 0.134352 0.442775
vt 0.004040 0.442775
vt 0.811198 0.301213
vt 0.359094 0.249297
vt 0.841383 0.831436
vt 0.650227 0.764824
vt 0.952138 0.293133
vt 0.995960 0.182904
vt 0.952138 0.165483
vt 0.785957 0.492460
vt 0.908316 0.110999
vt 0.952138 0.157403
vt 0.995960 0.139981
vt 0.714052 0.704827
vt 0.315821 0.230409
vt 0.833303 0.995960
vt 0.243916 0.442775
vt 0.794038 0.492460
vn 0.301512 0.301508 -0.904535
vn 0.616403 0.363877 0.698313
vn 0.301516 0.301516 0.904531
vn -0.000000 0.745400 -0.666618
vn 0.681736 -0.572046 -0.456069
vn -0.000000 -0.480573 -0.876955
vn 0.577330 0.577360 -0.577360
vn 0.577330 -0.577360 0.577360
vn 0.681736 -0.572046 -0.456069
vn 0.000000 0.745400 0.666618
vn -0.127610 -0.740321 0.660031
vn 0.000000 -0.480573 0.876955
vn 0.681736 -0.572046 -0.456069
vn 0.000000 -0.707104 0.707110
vn -0.000000 -0.480573 -0.876955
vn 0.301512 0.301508 -0.904535
vn 0.000000 0.745400 0.666618
vn 0.000000 0.707104 -0.707110
vn 0.000000 -0.781913 0.623387
vn 0.000000 0.745400 0.666618
vn 0.000000 -0.480573 0.876955
vn -0.083507 -0.769942 0.632626
vn 0.609744 -0.517994 0.599912
vn 0.083503 0.769906 0.632671
vn 0.000000 0.707104 -0.707110
vn 0.000000 0.707107 0.707106
vn -0.000000 0.745400 -0.666618
vn -0.083503 -0.769906 -0.632671
vn -0.706611 -0.375229 0.599919
vn -0.706616 -0.375236 -0.599910
vn -0.127611 -0.740322 -0.660029
vn -0.000000 0.745400 -0.666618
vn -0.000000 -0.480573 -0.876955
vn -0.083503 -0.769906 -0.632671
vn -0.706616 -0.375236 -0.599910
vn -0.609733 0.517998 -0.599919
vn 0.609744 -0.517994 0.599912
vn -0.083503 -0.769906 -0.632671
vn 0.609725 -0.518010 -0.599918
vn 0.000000 0.707107 -0.707107
vn -0.127611 -0.740322 -0.660029
vn 0.127611 -0.740316 -0.660036
vn -0.609733 0.517998 -0.599919
vn 0.083503 0.769906 0.632671
vn 0.083507 0.769942 -0.632626
vn 0.706606 0.375243 0.599918
vn 0.609725 -0.518010 -0.599918
vn 0.706621 0.375223 -0.599912
vn 0.000000 0.745400 -0.666618
vn 0.127611 -0.740316 -0.660036
vn 0.000000 -0.480573 -0.876955
vn 0.083503 0.769906 0.632671
vn 0.706621 0.375223 -0.599912
vn 0.083507 0.769942 -0.632626
vn -0.127612 -0.740319 -0.660032
vn 0.000000 0.745400 -0.666618
vn 0.000000 -0.480573 -0.876955
vn -0.127612 -0.740319 -0.660032
vn -0.127610 -0.740321 0.660031
vn 0.000000 -0.707114 -0.707100
vn -0.706611 -0.375229 0.599919
vn -0.609733 0.517998 -0.599919
vn -0.706616 -0.375236 -0.599910
vn 0.000000 0.707107 0.707106
vn 0.127611 -0.740322 0.660030
vn 0.000000 -0.707104 0.707110
vn 0.000000 0.707104 0.707110
vn 0.000000 0.745400 -0.666618
vn 0.000000 0.707107 -0.707107
vn 0.000000 0.707104 0.707110
vn 0.577357 0.577348 0.577346
vn 0.577330 -0.577360 0.577360
vn 0.000000 -0.781913 0.623387
vn 0.000000 -0.480573 0.876955
vn -0.000000 0.745400 0.666618
vn -0.127611 -0.740322 -0.660029
vn 0.127611 -0.740322 0.660030
vn 0.127611 -0.740322 0.660030
vn -0.000000 0.745400 0.666618
vn -0.000000 -0.480573 0.876955
vn 0.127611 -0.740316 -0.660036
vn 0.000000 -0.480573 -0.876955
vn -0.000000 -0.480573 0.876955
vn 0.577357 0.577348 0.577346
vn 0.577330 0.577360 -0.577360
vn -0.000000 0.745400 0.666618
vn 0.000000 -0.781913 0.623387
vn -0.000000 -0.480573 0.876955
vn 0.301512 0.301508 -0.904535
vn -0.127612 -0.740319 -0.660032
vn 0.000000 -0.707114 -0.707100
vn -0.707097 0.000000 0.707117
vn -0.577327 -0.577366 -0.577357
vn -0.577358 -0.577357 0.577336
vn -0.577327 -0.577366 -0.577357
vn -0.707117 -0.000000 -0.707097
vn 0.301516 0.301516 0.904531
vn -0.577358 -0.577357 0.577336
vn -0.127610 -0.740321 0.660031
vn 0.616403 0.363877 0.698313
vn -0.645352 0.728628 0.229394
vn -0.616383 0.363897 0.698320
vn -0.616383 0.363897 0.698320
vn -0.707097 0.000000 0.707117
vn 0.616383 0.363897 -0.698320
vn -0.616403 0.363877 -0.698313
vn -0.707117 -0.000000 -0.707097
vn 0.645352 0.728628 -0.229394
vn -0.645352 0.728628 0.229394
vn 0.645334 0.728640 0.229405
vn -0.616383 0.363897 0.698320
vn -0.645334 0.728640 -0.229405
vn -0.616403 0.363877 -0.698313
vn 0.645352 0.728628 -0.229394
vn 0.616383 0.363897 -0.698320
vn 0.616383 0.363897 -0.698320
vn 0.645334 0.728640 0.229405
vn -0.083507 -0.769942 0.632626
vn 0.609744 -0.517994 0.599912
vn 0.083503 0.769906 0.632671
vn -0.083503 -0.769906 -0.632671
vn -0.706611 -0.375229 0.599919
vn -0.706616 -0.375236 -0.599910
vn -0.083503 -0.769906 -0.632671
vn -0.706616 -0.375236 -0.599910
vn -0.609733 0.517998 -0.599919
vn 0.609744 -0.517994 0.599912
vn -0.083503 -0.769906 -0.632671
vn 0.609725 -0.518010 -0.599918
vn -0.609733 0.517998 -0.599919
vn 0.083503 0.769906 0.632671
vn 0.083507 0.769942 -0.632626
vn 0.706606 0.375243 0.599918
vn 0.609725 -0.518010 -0.599918
vn 0.706621 0.375223 -0.599912
vn 0.083503 0.769906 0.632671
vn 0.706621 0.375223 -0.599912
vn 0.083507 0.769942 -0.632626
vn -0.706611 -0.375229 0.599919
vn -0.609733 0.517998 -0.599919
vn -0.706616 -0.375236 -0.599910
vn 0.577330 0.577360 -0.577360
vn 0.577357 0.577348 0.577346
vn 0.301516 0.301516 0.904531
vn 0.577330 -0.577360 0.577360
vn 0.301516 0.301516 0.904531
vn 0.000000 0.707104 0.707110
vn 0.706606 0.375243 0.599918
vn -0.609736 0.518006 0.599910
vn -0.706611 -0.375229 0.599919
vn -0.083507 -0.769942 0.632626
vn 0.000000 0.707104 -0.707110
vn 0.083507 0.769942 -0.632626
vn 0.706621 0.375223 -0.599912
vn 0.609725 -0.518010 -0.599918
vn -0.083507 -0.769942 0.632626
vn 0.000000 0.707104 -0.707110
vn -0.609736 0.518006 0.599910
vn 0.609744 -0.517994 0.599912
vn 0.000000 0.707107 -0.707107
vn 0.706606 0.375243 0.599918
vn 0.000000 0.707104 -0.707110
vn -0.609736 0.518006 0.599910
vn 0.000000 0.707104 0.707110
vn 0.000000 0.707104 0.707110
vn 0.000000 0.707104 0.707110
vn 0.000000 0.707104 -0.707110
vn -0.577358 -0.577357 0.577336
vn -0.577327 -0.577366 -0.577357
vn 0.645334 0.728640 0.229405
vn 0.616403 0.363877 0.698313
vn -0.616403 0.363877 -0.698313
vn -0.645334 0.728640 -0.229405
vn -0.645352 0.728628 0.229394
vn -0.645334 0.728640 -0.229405
vn 0.645352 0.728628 -0.229394
vn 0.706606 0.375243 0.599918
vn -0.609736 0.518005 0.599910
vn -0.706611 -0.375229 0.599919
vn -0.083507 -0.769942 0.632626
vn 0.083507 0.769942 -0.632626
vn 0.706621 0.375223 -0.599912
vn 0.609725 -0.518010 -0.599918
vn -0.083507 -0.769942 0.632626
vn -0.609736 0.518005 0.599910
vn 0.609744 -0.517994 0.599912
vn 0.706606 0.375243 0.599918
vn -0.609736 0.518005 0.599910
f 1/1/1 2/2/2 3/3/3
f 4/4/4 5/5/5 6/6/6
f 7/7/7 8/8/8 9/9/9
f 10/10/10 11/11/11 12/12/12
f 13/13/13 14/14/14 15/15/15
f 16/16/16 17/17/17 18/18/18
f 19/19/19 20/20/20 21/21/21
f 22/22/22 23/23/23 24/24/24
f 25/25/25 26/26/26 27/27/27
f 28/28/28 29/29/29 30/30/30
f 31/31/31 32/32/32 33/33/33
f 34/34/34 35/35/35 36/36/36
f 37/37/37 38/38/38 39/39/39
f 40/40/40 41/41/41 42/42/42
f 43/43/43 44/44/44 45/45/45
f 46/46/46 47/47/47 48/48/48
f 49/49/49 50/50/50 51/51/51
f 52/52/52 53/53/53 54/54/54
f 55/55/55 56/56/56 57/57/57
f 58/58/58 59/59/59 60/60/60
f 61/61/61 62/62/62 63/63/63
f 64/64/64 65/65/65 66/66/66
f 18/18/18 67/67/67 68/68/68
f 69/69/69 70/70/70 25/25/25
f 71/71/71 66/66/66 72/72/72
f 58/58/58 73/73/73 74/74/74
f 68/68/68 75/75/75 69/69/69
f 76/76/76 14/14/14 77/77/77
f 78/78/78 79/79/79 80/80/80
f 81/81/81 73/73/73 82/82/82
f 81/81/81 77/77/77 83/83/83
f 27/27/27 84/84/84 85/85/85
f 86/86/86 87/87/87 88/88/88
f 89/89/89 90/90/90 91/91/91
f 92/92/92 93/93/93 94/94/94
f 59/59/59 95/95/95 60/60/60
f 91/91/91 96/96/96 89/89/89
f 97/97/97 98/98/98 99/99/99
f 100/100/100 101/101/101 102/102/102
f 97/97/97 103/103/103 104/104/104
f 96/96/96 105/105/105 89/89/89
f 92/92/92 106/106/106 107/107/107
f 108/108/108 109/109/109 110/110/110
f 111/111/111 112/112/112 106/106/106
f 113/113/113 114/114/114 115/115/115
f 116/116/116 117/117/117 2/2/2
f 118/118/118 119/119/119 120/120/120
f 121/121/121 122/122/122 123/123/123
f 124/124/124 125/125/125 126/126/126
f 127/127/127 128/128/128 129/129/129
f 130/130/130 131/131/131 132/132/132
f 133/133/133 134/134/134 135/135/135
f 136/136/136 137/137/137 138/138/138
f 139/139/139 140/140/140 141/141/141
f 1/1/1 116/116/116 2/2/2
f 4/4/4 142/142/142 5/5/5
f 7/7/7 143/143/143 8/8/8
f 10/10/10 144/144/144 11/11/11
f 13/13/13 145/145/145 14/14/14
f 16/16/16 146/146/146 17/17/17
f 19/19/19 147/147/147 20/20/20
f 23/23/23 148/148/148 24/24/24
f 24/24/24 149/149/149 150/150/150
f 150/150/150 22/22/22 24/24/24
f 25/25/25 70/70/70 26/26/26
f 28/28/28 151/151/151 29/29/29
f 31/31/31 152/152/152 32/32/32
f 36/36/36 153/153/153 34/34/34
f 153/153/153 154/154/154 34/34/34
f 154/154/154 155/155/155 34/34/34
f 37/37/37 156/156/156 38/38/38
f 40/40/40 157/157/157 41/41/41
f 43/43/43 158/158/158 44/44/44
f 46/46/46 159/159/159 47/47/47
f 49/49/49 160/160/160 50/50/50
f 52/52/52 161/161/161 53/53/53
f 55/55/55 162/162/162 56/56/56
f 58/58/58 74/74/74 59/59/59
f 61/61/61 163/163/163 62/62/62
f 64/64/64 164/164/164 65/65/65
f 18/18/18 17/17/17 67/67/67
f 69/69/69 75/75/75 70/70/70
f 71/71/71 64/64/64 66/66/66
f 58/58/58 82/82/82 73/73/73
f 68/68/68 67/67/67 75/75/75
f 76/76/76 15/15/15 14/14/14
f 78/78/78 165/165/165 79/79/79
f 81/81/81 83/83/83 73/73/73
f 81/81/81 76/76/76 77/77/77
f 27/27/27 26/26/26 84/84/84
f 86/86/86 166/166/166 87/87/87
f 89/89/89 167/167/167 90/90/90
f 92/92/92 107/107/107 93/93/93
f 59/59/59 168/168/168 95/95/95
f 91/91/91 169/169/169 96/96/96
f 97/97/97 104/104/104 98/98/98
f 100/100/100 170/170/170 101/101/101
f 97/97/97 171/171/171 103/103/103
f 96/96/96 172/172/172 105/105/105
f 92/92/92 111/111/111 106/106/106
f 108/108/108 173/173/173 109/109/109
f 111/111/111 174/174/174 112/112/112
f 113/113/113 175/175/175 114/114/114
f 116/116/116 176/176/176 117/117/117
f 119/119/119 177/177/177 120/120/120
f 120/120/120 178/178/178 179/179/179
f 179/179/179 118/118/118 120/120/120
f 121/121/121 180/180/180 122/122/122
f 126/126/126 181/181/181 124/124/124
f 181/181/181 182/182/182 124/124/124
f 182/182/182 183/183/183 124/124/124
f 127/127/127 184/184/184 128/128/128
f 130/130/130 185/185/185 131/131/131
f 133/133/133 186/186/186 134/134/134
f 136/136/136 187/187/187 137/137/137
f 139/139/139 188/188/188 140/140/140
