# f_lamp.001 -- imported by tools/import_asset_pack.py from f_lamp.fbx
o __pending__
v 4.205276 -1.910556 0.238254
v 4.205276 -2.049627 -0.238255
v 4.205276 -2.049627 0.238254
v 4.205276 -1.910556 -0.238255
v 4.617946 -2.049627 -0.476510
v 4.205276 -2.049627 -0.238255
v 5.030615 -1.910556 -0.238255
v 5.030615 -2.049627 0.238254
v 5.030615 -2.049627 -0.238255
v 4.617946 -2.049627 -0.476510
v 5.030615 -1.910556 -0.238255
v 5.030615 -2.049627 -0.238255
v 5.030615 -1.910556 0.238254
v 4.617946 -2.049627 0.476509
v 5.030615 -2.049627 0.238254
v 4.617946 -1.910556 0.476509
v 4.205276 -2.049627 0.238254
v 4.617946 -2.049627 0.476509
v 5.030615 -1.910556 -0.238255
v 4.617946 -1.733716 -0.185991
v 4.779018 -1.733716 -0.092995
v 4.617946 -2.327770 -0.476509
v 5.030615 -2.327769 0.238255
v 4.205276 -2.327769 0.238255
v 4.617946 -1.681704 0.084999
v 4.544334 0.554799 0.042499
v 4.544334 -1.681704 0.042500
v 4.691558 -1.681704 -0.042500
v 4.691558 0.554799 0.042499
v 4.691558 -1.681704 0.042500
v 4.691558 -1.681704 0.042500
v 4.617946 0.554799 0.084999
v 4.617946 -1.681704 0.084999
v 4.544334 -1.681704 0.042500
v 4.544334 0.554799 -0.042500
v 4.544334 -1.681704 -0.042500
v 4.617946 -1.692106 -0.185991
v 4.544334 -1.681704 -0.042500
v 4.617946 -1.681704 -0.085000
v 4.617946 -1.681704 -0.085000
v 4.691558 0.554799 -0.042500
v 4.691558 -1.681704 -0.042500
v 4.779018 -1.733716 0.092995
v 4.617946 -1.692106 0.185990
v 4.617946 -1.733716 0.185990
v 4.779018 -1.692106 0.092995
v 4.617946 -1.681704 0.084999
v 4.617946 -1.692106 0.185990
v 4.617946 0.554799 0.084999
v 4.691558 0.554799 -0.042500
v 4.544334 0.554799 -0.042500
v 4.779018 -1.692106 -0.092995
v 4.617946 -1.681704 -0.085000
v 4.691558 -1.681704 -0.042500
v 4.779018 -1.692106 -0.092995
v 4.691558 -1.681704 0.042500
v 4.779018 -1.692106 0.092995
v 4.779018 -1.733716 -0.092995
v 4.779018 -1.692106 0.092995
v 4.779018 -1.733716 0.092995
v 4.456873 -1.692106 0.092995
v 4.544334 -1.681704 -0.042500
v 4.456873 -1.692106 -0.092995
v 4.544334 -1.681704 -0.042500
v 4.617946 0.554799 -0.085000
v 4.617946 -1.681704 -0.085000
v 5.030615 -1.910556 0.238254
v 4.617946 -1.733716 0.185990
v 4.617946 -1.910556 0.476509
v 5.030615 -1.910556 -0.238255
v 4.779018 -1.733716 0.092995
v 5.030615 -1.910556 0.238254
v 4.617946 -1.733716 0.185990
v 4.456873 -1.692106 0.092995
v 4.456873 -1.733716 0.092995
v 4.617946 -1.692106 0.185990
v 4.544334 -1.681704 0.042500
v 4.456873 -1.692106 0.092995
v 4.456873 -1.733716 -0.092995
v 4.617946 -1.692106 -0.185991
v 4.617946 -1.733716 -0.185991
v 4.205276 -1.910556 0.238254
v 4.456873 -1.733716 -0.092995
v 4.205276 -1.910556 -0.238255
v 4.617946 -1.733716 -0.185991
v 4.779018 -1.692106 -0.092995
v 4.779018 -1.733716 -0.092995
v 4.617946 -1.910556 -0.476510
v 4.456873 -1.733716 -0.092995
v 4.617946 -1.733716 -0.185991
v 4.617946 -1.910556 0.476509
v 4.456873 -1.733716 0.092995
v 4.205276 -1.910556 0.238254
v 4.456873 -1.733716 0.092995
v 4.456873 -1.692106 -0.092995
v 4.456873 -1.733716 -0.092995
v 4.617946 -2.188698 0.476509
v 4.205276 -2.327769 0.238255
v 4.617946 -2.327769 0.476509
v 4.205276 -2.188698 0.238255
v 4.277346 -2.188698 -0.196645
v 4.205276 -2.188698 -0.238255
v 5.030615 -2.188698 0.238255
v 4.617946 -2.327769 0.476509
v 5.030615 -2.327769 0.238255
v 4.617946 -2.049627 0.476509
v 4.958545 -2.049627 0.196645
v 5.030615 -2.049627 0.238254
v 4.617946 -2.188698 -0.476509
v 5.030615 -2.327770 -0.238255
v 4.617946 -2.327770 -0.476509
v 5.030615 -2.188698 -0.238255
v 4.958545 -2.188698 0.196645
v 5.030615 -2.188698 0.238255
v 5.030615 -2.188698 -0.238255
v 5.030615 -2.327769 0.238255
v 5.030615 -2.327770 -0.238255
v 4.617946 -2.049627 -0.476510
v 4.277346 -2.049627 -0.196645
v 4.205276 -2.049627 -0.238255
v 4.205276 -2.188698 -0.238255
v 4.617946 -2.327770 -0.476509
v 4.205276 -2.327770 -0.238255
v 4.617946 -2.188698 0.393290
v 4.617946 -2.188698 0.476509
v 4.205276 -2.188698 0.238255
v 4.205276 -2.327770 -0.238255
v 4.205276 -2.327769 0.238255
v 5.030615 -2.049627 -0.238255
v 4.617946 -2.049627 -0.393291
v 4.617946 -2.049627 0.393290
v 4.277346 -2.188698 0.196645
v 4.617946 -2.188698 0.393290
v 4.958545 -2.049627 0.196645
v 4.617946 -2.188698 0.393290
v 4.958545 -2.188698 0.196645
v 4.617946 -2.049627 -0.393291
v 4.958545 -2.188698 -0.196645
v 4.617946 -2.188698 -0.393291
v 4.958545 -2.049627 -0.196645
v 4.958545 -2.188698 0.196645
v 4.958545 -2.188698 -0.196645
v 4.277346 -2.188698 -0.196645
v 4.617946 -2.049627 -0.393291
v 4.617946 -2.188698 -0.393291
v 4.277346 -2.049627 0.196645
v 4.277346 -2.188698 -0.196645
v 4.277346 -2.188698 0.196645
v 4.277346 -2.188698 0.196645
v 4.958545 -2.049627 -0.196645
v 4.617946 -2.188698 -0.476509
v 4.958545 -2.188698 -0.196645
v 4.277346 -2.049627 0.196645
v 4.205276 -2.049627 0.238254
v 4.617946 -2.049627 0.393290
v 4.617946 -2.188698 -0.393291
v 4.618640 0.855829 -0.543759
v 5.089550 -0.231689 -0.271880
v 4.618640 -0.231689 -0.543759
v 5.089550 0.855829 -0.271880
v 5.089550 -0.231689 0.271879
v 5.089550 -0.231689 -0.271880
v 5.089550 0.855829 0.271879
v 4.618640 -0.231689 0.543759
v 5.089550 -0.231689 0.271879
v 4.618640 0.855829 0.543759
v 4.147731 -0.231689 0.271879
v 4.618640 -0.231689 0.543759
v 4.618640 -0.231689 0.543759
v 4.147731 -0.231689 0.271879
v 4.147731 -0.231689 -0.271880
v 4.147731 0.855829 0.271879
v 4.147731 -0.231689 -0.271880
v 4.147731 -0.231689 0.271879
v 4.147731 0.855829 -0.271880
v 4.618640 -0.231689 -0.543759
v 4.147731 -0.231689 -0.271880
v 4.147731 0.855829 0.271879
v 4.618640 0.855829 0.543759
v 5.089550 0.855829 0.271879
v 4.205276 -1.910556 -0.238255
v 4.617946 -1.910556 -0.476510
v 5.030615 -1.910556 0.238254
v 4.617946 -1.910556 -0.476510
v 4.617946 -1.910556 0.476509
v 4.205276 -1.910556 0.238254
v 4.617946 -1.910556 -0.476510
v 4.205276 -2.327770 -0.238255
v 5.030615 -2.327770 -0.238255
v 4.617946 -2.327769 0.476509
v 4.617946 0.554799 0.084999
v 4.691558 0.554799 -0.042500
v 4.691558 0.554799 0.042499
v 4.544334 0.554799 0.042499
v 4.456873 -1.692106 -0.092995
v 4.617946 0.554799 -0.085000
v 4.779018 -1.692106 0.092995
v 4.691558 -1.681704 0.042500
v 4.544334 0.554799 0.042499
v 4.691558 0.554799 0.042499
v 4.617946 0.554799 -0.085000
v 4.617946 -1.692106 -0.185991
v 4.691558 -1.681704 -0.042500
v 4.779018 -1.692106 -0.092995
v 4.544334 -1.681704 0.042500
v 4.544334 0.554799 -0.042500
v 4.779018 -1.733716 0.092995
v 4.779018 -1.733716 -0.092995
v 4.617946 -1.692106 0.185990
v 4.617946 -1.681704 0.084999
v 4.456873 -1.692106 -0.092995
v 4.456873 -1.733716 0.092995
v 4.617946 -1.692106 -0.185991
v 4.205276 -1.910556 -0.238255
v 4.617946 -1.733716 0.185990
v 4.456873 -1.692106 0.092995
v 4.205276 -2.188698 0.238255
v 4.617946 -2.188698 0.476509
v 5.030615 -2.188698 -0.238255
v 5.030615 -2.188698 0.238255
v 4.617946 -2.188698 -0.476509
v 4.205276 -2.188698 -0.238255
v 4.277346 -2.049627 0.196645
v 4.617946 -2.049627 0.393290
v 4.958545 -2.049627 -0.196645
v 4.958545 -2.049627 0.196645
v 4.277346 -2.049627 -0.196645
v 4.277346 -2.049627 -0.196645
v 5.089550 0.855829 -0.271880
v 5.089550 0.855829 0.271879
v 4.618640 0.855829 0.543759
v 4.147731 0.855829 0.271879
v 4.618640 -0.231689 -0.543759
v 5.089550 -0.231689 -0.271880
v 5.089550 -0.231689 0.271879
v 4.147731 0.855829 -0.271880
v 4.618640 0.855829 -0.543759
v 5.089550 0.855829 -0.271880
v 4.618640 0.855829 -0.543759
v 4.147731 0.855829 -0.271880
vt 0.614338 0.015888
vt 0.650877 0.141083
vt 0.650877 0.015888
vt 0.841774 0.276870
vt 0.878313 0.402065
vt 0.878313 0.276870
vt 0.661469 0.015888
vt 0.698008 0.141083
vt 0.698008 0.015888
vt 0.925444 0.276870
vt 0.888905 0.402065
vt 0.925444 0.402065
vt 0.888905 0.141083
vt 0.925444 0.266278
vt 0.925444 0.141083
vt 0.841774 0.141083
vt 0.878313 0.266278
vt 0.878313 0.141083
vt 0.356299 0.276870
vt 0.437097 0.363901
vt 0.437097 0.315035
vt 0.722760 0.151676
vt 0.614338 0.339468
vt 0.831182 0.339468
vt 0.005296 0.407100
vt 0.027628 0.994704
vt 0.027628 0.407100
vt 0.136994 0.407100
vt 0.159326 0.994704
vt 0.159326 0.407100
vt 0.104070 0.407100
vt 0.126402 0.994704
vt 0.126402 0.407100
vt 0.169919 0.407100
vt 0.192251 0.994704
vt 0.192251 0.407100
vt 0.790935 0.472740
vt 0.767794 0.437141
vt 0.767794 0.459473
vt 0.038221 0.407100
vt 0.060553 0.994704
vt 0.060553 0.407100
vt 0.256824 0.056880
vt 0.245892 0.105746
vt 0.256824 0.105746
vt 0.868993 0.472740
vt 0.892134 0.437141
vt 0.868993 0.423874
vt 0.306097 0.094580
vt 0.286757 0.061081
vt 0.267416 0.094580
vt 0.826003 0.141083
vt 0.802862 0.105484
vt 0.802862 0.127816
vt 0.169830 0.076068
vt 0.146689 0.111667
vt 0.169830 0.124934
vt 0.935183 0.423874
vt 0.924251 0.472740
vt 0.935183 0.472740
vt 0.858401 0.423874
vt 0.835260 0.459473
vt 0.858401 0.472740
vt 0.071145 0.407100
vt 0.093477 0.994704
vt 0.093477 0.407100
vt 0.005296 0.260721
vt 0.086094 0.173690
vt 0.005296 0.135526
vt 0.096686 0.260721
vt 0.177484 0.173690
vt 0.096686 0.135526
vt 0.913658 0.423874
vt 0.902726 0.472740
vt 0.913658 0.472740
vt 0.801527 0.472740
vt 0.824668 0.437141
vt 0.801527 0.423874
vt 0.191354 0.076068
vt 0.180422 0.124934
vt 0.191354 0.124934
vt 0.005296 0.396508
vt 0.086094 0.309478
vt 0.005296 0.271313
vt 0.213775 0.056880
vt 0.202843 0.105746
vt 0.213775 0.105746
vt 0.096686 0.271313
vt 0.177484 0.358343
vt 0.177484 0.309477
vt 0.356299 0.266278
vt 0.437097 0.179248
vt 0.356299 0.141083
vt 0.235300 0.056880
vt 0.224367 0.105746
vt 0.235300 0.105746
vt 0.936036 0.276870
vt 0.972575 0.402065
vt 0.972575 0.276870
vt 0.767794 0.932106
vt 0.786729 0.817844
vt 0.767794 0.806912
vt 0.708600 0.015888
vt 0.745139 0.141083
vt 0.745139 0.015888
vt 0.876216 0.733722
vt 0.786729 0.660192
vt 0.767794 0.671125
vt 0.755731 0.015888
vt 0.792270 0.141083
vt 0.792270 0.015888
vt 0.984638 0.806912
vt 0.965703 0.921174
vt 0.984638 0.932106
vt 0.356299 0.005296
vt 0.392837 0.130491
vt 0.392837 0.005296
vt 0.876216 0.483332
vt 0.965703 0.556862
vt 0.984638 0.545930
vt 0.936036 0.141083
vt 0.972575 0.266278
vt 0.972575 0.141083
vt 0.876216 0.972840
vt 0.876216 0.994704
vt 0.403430 0.005296
vt 0.439968 0.130491
vt 0.439968 0.005296
vt 0.767794 0.545930
vt 0.876216 0.505197
vt 0.936036 0.027160
vt 0.972575 0.130491
vt 0.972575 0.027160
vt 0.005296 0.021603
vt 0.041835 0.124934
vt 0.041835 0.021603
vt 0.878313 0.130491
vt 0.841774 0.027160
vt 0.841774 0.130491
vt 0.052427 0.021603
vt 0.088966 0.124934
vt 0.088966 0.021603
vt 0.888905 0.130491
vt 0.925444 0.027160
vt 0.888905 0.027160
vt 0.099558 0.021603
vt 0.136097 0.124934
vt 0.136097 0.021603
vt 0.786729 0.921174
vt 0.786729 0.556862
vt 0.876216 0.744314
vt 0.965703 0.817844
vt 0.965703 0.660192
vt 0.984638 0.671125
vt 0.876216 0.711858
vt 0.876216 0.766179
vt 0.460882 0.994704
vt 0.603746 0.708977
vt 0.460882 0.708977
vt 0.202843 0.402065
vt 0.345707 0.116338
vt 0.202843 0.116338
vt 0.614338 0.994704
vt 0.757202 0.708977
vt 0.614338 0.708977
vt 0.614338 0.698384
vt 0.757202 0.412657
vt 0.614338 0.412657
vt 0.326566 0.994704
vt 0.450290 0.923272
vt 0.450290 0.780409
vt 0.460882 0.402065
vt 0.603746 0.116338
vt 0.460882 0.116338
vt 0.460882 0.698385
vt 0.603746 0.412657
vt 0.460882 0.412657
vt 0.202843 0.626953
vt 0.326566 0.698385
vt 0.450290 0.626953
vt 0.614338 0.141083
vt 0.841774 0.402065
vt 0.661469 0.141083
vt 0.888905 0.276870
vt 0.888905 0.266278
vt 0.841774 0.266278
vt 0.356299 0.402065
vt 0.831182 0.214273
vt 0.614338 0.214273
vt 0.722760 0.402065
vt 0.005296 0.994704
vt 0.136994 0.994704
vt 0.104070 0.994704
vt 0.169919 0.994704
vt 0.790935 0.423874
vt 0.038221 0.994704
vt 0.245892 0.056880
vt 0.892134 0.459473
vt 0.286757 0.105746
vt 0.306097 0.072248
vt 0.267416 0.072248
vt 0.826003 0.092217
vt 0.146689 0.089335
vt 0.924251 0.423874
vt 0.835260 0.437141
vt 0.071145 0.994704
vt 0.086094 0.222556
vt 0.177484 0.222556
vt 0.902726 0.423874
vt 0.824668 0.459473
vt 0.180422 0.076068
vt 0.086094 0.358343
vt 0.202843 0.056880
vt 0.096686 0.396508
vt 0.437097 0.228114
vt 0.224367 0.056880
vt 0.936036 0.402065
vt 0.708600 0.141083
vt 0.755731 0.141083
vt 0.356299 0.130491
vt 0.936036 0.266278
vt 0.403430 0.130491
vt 0.936036 0.130491
vt 0.005296 0.124934
vt 0.878313 0.027160
vt 0.052427 0.124934
vt 0.925444 0.130491
vt 0.099558 0.124934
vt 0.603746 0.994704
vt 0.345707 0.402065
vt 0.757202 0.994704
vt 0.757202 0.698384
vt 0.326566 0.708977
vt 0.202843 0.780409
vt 0.202843 0.923272
vt 0.603746 0.402065
vt 0.603746 0.698385
vt 0.450290 0.484089
vt 0.326566 0.412657
vt 0.202843 0.484089
vn -0.780560 0.433162 0.450663
vn -0.686235 -0.609999 -0.396210
vn -0.686246 -0.609999 0.396192
vn -0.780570 0.433156 -0.450652
vn -0.000000 -0.610008 -0.792395
vn -0.686235 -0.609999 -0.396210
vn 0.780558 0.433173 -0.450656
vn 0.686235 -0.609999 0.396211
vn 0.686246 -0.609990 -0.396204
vn -0.000000 -0.610008 -0.792395
vn 0.780558 0.433173 -0.450656
vn 0.686246 -0.609990 -0.396204
vn 0.780566 0.433161 0.450653
vn -0.000011 -0.609999 0.792402
vn 0.686235 -0.609999 0.396211
vn 0.000005 0.433162 0.901316
vn -0.686246 -0.609999 0.396192
vn -0.000011 -0.609999 0.792402
vn 0.780558 0.433173 -0.450656
vn -0.000006 0.571715 -0.820452
vn 0.710529 0.571717 -0.410229
vn 0.000011 -0.610001 -0.792401
vn 0.686234 -0.610001 0.396210
vn -0.686245 -0.610000 0.396191
vn -0.000002 0.796914 0.604093
vn -0.686243 0.609994 0.396205
vn -0.523161 0.796914 0.302045
vn 0.523164 0.796911 -0.302046
vn 0.686247 0.609994 0.396199
vn 0.523159 0.796914 0.302048
vn 0.523159 0.796914 0.302048
vn 0.000003 0.609989 0.792410
vn -0.000002 0.796914 0.604093
vn -0.523161 0.796914 0.302045
vn -0.686249 0.609988 -0.396202
vn -0.523156 0.796916 -0.302047
vn 0.000006 0.579208 -0.815180
vn -0.523156 0.796916 -0.302047
vn 0.000003 0.796913 -0.604094
vn 0.000003 0.796913 -0.604094
vn 0.686246 0.609988 -0.396208
vn 0.523164 0.796911 -0.302046
vn 0.710534 0.571715 0.410224
vn -0.000007 0.579208 0.815180
vn 0.000003 0.571715 0.820452
vn 0.705963 0.579208 0.407596
vn -0.000002 0.796914 0.604093
vn -0.000007 0.579208 0.815180
vn 0.000003 0.609989 0.792410
vn 0.686246 0.609988 -0.396208
vn -0.686249 0.609988 -0.396202
vn 0.705968 0.579212 -0.407583
vn 0.000003 0.796913 -0.604094
vn 0.523164 0.796911 -0.302046
vn 0.705968 0.579212 -0.407583
vn 0.523159 0.796914 0.302048
vn 0.705963 0.579208 0.407596
vn 0.710529 0.571717 -0.410229
vn 0.705963 0.579208 0.407596
vn 0.710534 0.571715 0.410224
vn -0.705970 0.579208 0.407584
vn -0.523156 0.796916 -0.302047
vn -0.705965 0.579204 -0.407597
vn -0.523156 0.796916 -0.302047
vn -0.000003 0.609995 -0.792406
vn 0.000003 0.796913 -0.604094
vn 0.780566 0.433161 0.450653
vn 0.000003 0.571715 0.820452
vn 0.000005 0.433162 0.901316
vn 0.780558 0.433173 -0.450656
vn 0.710534 0.571715 0.410224
vn 0.780566 0.433161 0.450653
vn 0.000003 0.571715 0.820452
vn -0.705970 0.579208 0.407584
vn -0.710531 0.571716 0.410228
vn -0.000007 0.579208 0.815180
vn -0.523161 0.796914 0.302045
vn -0.705970 0.579208 0.407584
vn -0.710535 0.571714 -0.410223
vn 0.000006 0.579208 -0.815180
vn -0.000006 0.571715 -0.820452
vn -0.780560 0.433162 0.450663
vn -0.710535 0.571714 -0.410223
vn -0.780570 0.433156 -0.450652
vn -0.000006 0.571715 -0.820452
vn 0.705968 0.579212 -0.407583
vn 0.710529 0.571717 -0.410229
vn -0.000003 0.433155 -0.901319
vn -0.710535 0.571714 -0.410223
vn -0.000006 0.571715 -0.820452
vn 0.000005 0.433162 0.901316
vn -0.710531 0.571716 0.410228
vn -0.780560 0.433162 0.450663
vn -0.710531 0.571716 0.410228
vn -0.705965 0.579204 -0.407597
vn -0.710535 0.571714 -0.410223
vn 0.000011 0.609999 0.792402
vn -0.686245 -0.610000 0.396191
vn -0.000011 -0.610007 0.792396
vn -0.686235 0.609999 0.396210
vn -0.471709 0.838643 -0.272341
vn -0.686246 0.609999 -0.396192
vn 0.686246 0.609999 0.396191
vn -0.000011 -0.610007 0.792396
vn 0.686234 -0.610001 0.396210
vn -0.000011 -0.609999 0.792402
vn 0.471722 -0.838636 0.272339
vn 0.686235 -0.609999 0.396211
vn -0.000011 0.609999 -0.792402
vn 0.686241 -0.610007 -0.396189
vn 0.000011 -0.610001 -0.792401
vn 0.686235 0.609999 -0.396211
vn 0.471713 0.838636 0.272353
vn 0.686246 0.609999 0.396191
vn 0.686235 0.609999 -0.396211
vn 0.686234 -0.610001 0.396210
vn 0.686241 -0.610007 -0.396189
vn -0.000000 -0.610008 -0.792395
vn -0.471726 -0.838629 -0.272351
vn -0.686235 -0.609999 -0.396210
vn -0.686246 0.609999 -0.396192
vn 0.000011 -0.610001 -0.792401
vn -0.686230 -0.610007 -0.396208
vn -0.000008 0.838636 0.544692
vn 0.000011 0.609999 0.792402
vn -0.686235 0.609999 0.396210
vn -0.686230 -0.610007 -0.396208
vn -0.686245 -0.610000 0.396191
vn 0.686246 -0.609990 -0.396204
vn -0.000000 -0.838643 -0.544682
vn 0.000009 -0.838636 0.544693
vn -0.471722 0.838636 0.272339
vn -0.000008 0.838636 0.544692
vn 0.471722 -0.838636 0.272339
vn -0.000008 0.838636 0.544692
vn 0.471713 0.838636 0.272353
vn -0.000000 -0.838643 -0.544682
vn 0.471722 0.838636 -0.272339
vn -0.000000 0.838629 -0.544703
vn 0.471713 -0.838636 -0.272353
vn 0.471713 0.838636 0.272353
vn 0.471722 0.838636 -0.272339
vn -0.471709 0.838643 -0.272341
vn -0.000000 -0.838643 -0.544682
vn -0.000000 0.838629 -0.544703
vn -0.471713 -0.838636 0.272354
vn -0.471709 0.838643 -0.272341
vn -0.471722 0.838636 0.272339
vn -0.471722 0.838636 0.272339
vn 0.471713 -0.838636 -0.272353
vn -0.000011 0.609999 -0.792402
vn 0.471722 0.838636 -0.272339
vn -0.471713 -0.838636 0.272354
vn -0.686246 -0.609999 0.396192
vn 0.000009 -0.838636 0.544693
vn -0.000000 0.838629 -0.544703
vn -0.000008 0.610000 -0.792401
vn 0.686243 -0.610001 -0.396194
vn 0.000007 -0.610004 -0.792399
vn 0.686240 0.609994 -0.396209
vn 0.686240 -0.609994 0.396209
vn 0.686243 -0.610001 -0.396194
vn 0.686243 0.610001 0.396194
vn -0.000007 -0.610000 0.792401
vn 0.686240 -0.609994 0.396209
vn 0.000007 0.610004 0.792399
vn -0.686241 -0.610003 0.396193
vn -0.000007 -0.610000 0.792401
vn -0.000007 -0.610000 0.792401
vn -0.686241 -0.610003 0.396193
vn -0.686235 -0.610001 -0.396206
vn -0.686235 0.610001 0.396206
vn -0.686235 -0.610001 -0.396206
vn -0.686241 -0.610003 0.396193
vn -0.686241 0.610004 -0.396193
vn 0.000007 -0.610004 -0.792399
vn -0.686235 -0.610001 -0.396206
vn -0.686235 0.610001 0.396206
vn 0.000007 0.610004 0.792399
vn 0.686243 0.610001 0.396194
vn -0.780570 0.433156 -0.450652
vn -0.000003 0.433155 -0.901319
vn 0.780566 0.433161 0.450653
vn -0.000003 0.433155 -0.901319
vn 0.000005 0.433162 0.901316
vn -0.780560 0.433162 0.450663
vn -0.000003 0.433155 -0.901319
vn -0.686230 -0.610007 -0.396208
vn 0.686241 -0.610007 -0.396189
vn -0.000011 -0.610007 0.792396
vn 0.000003 0.609989 0.792410
vn 0.686246 0.609988 -0.396208
vn 0.686247 0.609994 0.396199
vn -0.686243 0.609994 0.396205
vn -0.705965 0.579204 -0.407597
vn -0.000003 0.609995 -0.792406
vn 0.705963 0.579208 0.407596
vn 0.523159 0.796914 0.302048
vn -0.686243 0.609994 0.396205
vn 0.686247 0.609994 0.396199
vn -0.000003 0.609995 -0.792406
vn 0.000006 0.579208 -0.815180
vn 0.523164 0.796911 -0.302046
vn 0.705968 0.579212 -0.407583
vn -0.523161 0.796914 0.302045
vn -0.686249 0.609988 -0.396202
vn 0.710534 0.571715 0.410224
vn 0.710529 0.571717 -0.410229
vn -0.000007 0.579208 0.815180
vn -0.000002 0.796914 0.604093
vn -0.705965 0.579204 -0.407597
vn -0.710531 0.571716 0.410228
vn 0.000006 0.579208 -0.815180
vn -0.780570 0.433156 -0.450652
vn 0.000003 0.571715 0.820452
vn -0.705970 0.579208 0.407584
vn -0.686235 0.609999 0.396210
vn 0.000011 0.609999 0.792402
vn 0.686235 0.609999 -0.396211
vn 0.686246 0.609999 0.396191
vn -0.000011 0.609999 -0.792402
vn -0.686246 0.609999 -0.396192
vn -0.471713 -0.838636 0.272354
vn 0.000009 -0.838636 0.544693
vn 0.471713 -0.838636 -0.272353
vn 0.471722 -0.838636 0.272339
vn -0.471726 -0.838629 -0.272351
vn -0.471726 -0.838629 -0.272351
vn 0.686240 0.609994 -0.396209
vn 0.686243 0.610001 0.396194
vn 0.000007 0.610004 0.792399
vn -0.686235 0.610001 0.396206
vn 0.000007 -0.610004 -0.792399
vn 0.686243 -0.610001 -0.396194
vn 0.686240 -0.609994 0.396209
vn -0.686241 0.610004 -0.396193
vn -0.000008 0.610000 -0.792401
vn 0.686240 0.609994 -0.396209
vn -0.000008 0.610000 -0.792401
vn -0.686241 0.610004 -0.396193
f 1/1/1 2/2/2 3/3/3
f 4/4/4 5/5/5 6/6/6
f 7/7/7 8/8/8 9/9/9
f 10/10/10 11/11/11 12/12/12
f 13/13/13 14/14/14 15/15/15
f 16/16/16 17/17/17 18/18/18
f 19/19/19 20/20/20 21/21/21
f 22/22/22 23/23/23 24/24/24
f 25/25/25 26/26/26 27/27/27
f 28/28/28 29/29/29 30/30/30
f 31/31/31 32/32/32 33/33/33
f 34/34/34 35/35/35 36/36/36
f 37/37/37 38/38/38 39/39/39
f 40/40/40 41/41/41 42/42/42
f 43/43/43 44/44/44 45/45/45
f 46/46/46 47/47/47 48/48/48
f 49/49/49 50/50/50 51/51/51
f 52/52/52 53/53/53 54/54/54
f 55/55/55 56/56/56 57/57/57
f 58/58/58 59/59/59 60/60/60
f 61/61/61 62/62/62 63/63/63
f 64/64/64 65/65/65 66/66/66
f 67/67/67 68/68/68 69/69/69
f 70/70/70 71/71/71 72/72/72
f 73/73/73 74/74/74 75/75/75
f 76/76/76 77/77/77 78/78/78
f 79/79/79 80/80/80 81/81/81
f 82/82/82 83/83/83 84/84/84
f 85/85/85 86/86/86 87/87/87
f 88/88/88 89/89/89 90/90/90
f 91/91/91 92/92/92 93/93/93
f 94/94/94 95/95/95 96/96/96
f 97/97/97 98/98/98 99/99/99
f 100/100/100 101/101/101 102/102/102
f 103/103/103 104/104/104 105/105/105
f 106/106/106 107/107/107 108/108/108
f 109/109/109 110/110/110 111/111/111
f 112/112/112 113/113/113 114/114/114
f 115/115/115 116/116/116 117/117/117
f 118/118/118 119/119/119 120/120/120
f 121/121/121 122/122/122 123/123/123
f 114/114/114 124/124/124 125/125/125
f 126/126/126 127/127/127 128/128/128
f 129/129/129 130/130/130 118/118/118
f 131/131/131 132/132/132 133/133/133
f 134/134/134 135/135/135 136/136/136
f 137/137/137 138/138/138 139/139/139
f 140/140/140 141/141/141 142/142/142
f 143/143/143 144/144/144 145/145/145
f 146/146/146 147/147/147 148/148/148
f 125/125/125 149/149/149 100/100/100
f 108/108/108 150/150/150 129/129/129
f 151/151/151 152/152/152 112/112/112
f 120/120/120 153/153/153 154/154/154
f 154/154/154 155/155/155 106/106/106
f 102/102/102 156/156/156 151/151/151
f 157/157/157 158/158/158 159/159/159
f 160/160/160 161/161/161 162/162/162
f 163/163/163 164/164/164 165/165/165
f 166/166/166 167/167/167 168/168/168
f 169/169/169 170/170/170 171/171/171
f 172/172/172 173/173/173 174/174/174
f 175/175/175 176/176/176 177/177/177
f 178/178/178 179/179/179 180/180/180
f 1/1/1 181/181/181 2/2/2
f 4/4/4 182/182/182 5/5/5
f 7/7/7 183/183/183 8/8/8
f 10/10/10 184/184/184 11/11/11
f 13/13/13 185/185/185 14/14/14
f 16/16/16 186/186/186 17/17/17
f 19/19/19 187/187/187 20/20/20
f 24/24/24 188/188/188 22/22/22
f 22/22/22 189/189/189 23/23/23
f 23/23/23 190/190/190 24/24/24
f 25/25/25 191/191/191 26/26/26
f 28/28/28 192/192/192 29/29/29
f 31/31/31 193/193/193 32/32/32
f 34/34/34 194/194/194 35/35/35
f 37/37/37 195/195/195 38/38/38
f 40/40/40 196/196/196 41/41/41
f 43/43/43 197/197/197 44/44/44
f 46/46/46 198/198/198 47/47/47
f 51/51/51 199/199/199 49/49/49
f 49/49/49 200/200/200 50/50/50
f 50/50/50 201/201/201 51/51/51
f 52/52/52 202/202/202 53/53/53
f 55/55/55 203/203/203 56/56/56
f 58/58/58 204/204/204 59/59/59
f 61/61/61 205/205/205 62/62/62
f 64/64/64 206/206/206 65/65/65
f 67/67/67 207/207/207 68/68/68
f 70/70/70 208/208/208 71/71/71
f 73/73/73 209/209/209 74/74/74
f 76/76/76 210/210/210 77/77/77
f 79/79/79 211/211/211 80/80/80
f 82/82/82 212/212/212 83/83/83
f 85/85/85 213/213/213 86/86/86
f 88/88/88 214/214/214 89/89/89
f 91/91/91 215/215/215 92/92/92
f 94/94/94 216/216/216 95/95/95
f 97/97/97 217/217/217 98/98/98
f 100/100/100 149/149/149 101/101/101
f 103/103/103 218/218/218 104/104/104
f 106/106/106 155/155/155 107/107/107
f 109/109/109 219/219/219 110/110/110
f 112/112/112 152/152/152 113/113/113
f 115/115/115 220/220/220 116/116/116
f 118/118/118 130/130/130 119/119/119
f 121/121/121 221/221/221 122/122/122
f 114/114/114 113/113/113 124/124/124
f 126/126/126 222/222/222 127/127/127
f 129/129/129 150/150/150 130/130/130
f 131/131/131 223/223/223 132/132/132
f 134/134/134 224/224/224 135/135/135
f 137/137/137 225/225/225 138/138/138
f 140/140/140 226/226/226 141/141/141
f 143/143/143 227/227/227 144/144/144
f 146/146/146 228/228/228 147/147/147
f 125/125/125 124/124/124 149/149/149
f 108/108/108 107/107/107 150/150/150
f 151/151/151 156/156/156 152/152/152
f 120/120/120 119/119/119 153/153/153
f 154/154/154 153/153/153 155/155/155
f 102/102/102 101/101/101 156/156/156
f 157/157/157 229/229/229 158/158/158
f 160/160/160 230/230/230 161/161/161
f 163/163/163 231/231/231 164/164/164
f 166/166/166 232/232/232 167/167/167
f 171/171/171 233/233/233 234/234/234
f 234/234/234 235/235/235 171/171/171
f 235/235/235 169/169/169 171/171/171
f 172/172/172 236/236/236 173/173/173
f 175/175/175 237/237/237 176/176/176
f 180/180/180 238/238/238 178/178/178
f 238/238/238 239/239/239 178/178/178
f 239/239/239 240/240/240 178/178/178
