# f_mouse -- imported by tools/import_asset_pack.py from f_mouse.fbx
o __pending__
v -2.647360 -3.872843 0.330006
v -2.561514 -3.787988 0.330006
v -2.561514 -3.872843 0.330006
v -2.733206 -3.787988 0.330006
v -2.733206 -3.872843 0.330006
v -2.684327 -3.872843 0.619954
v -2.733206 -3.787988 0.571075
v -2.733206 -3.872843 0.571075
v -2.610394 -3.872843 0.619954
v -2.561514 -3.787988 0.571075
v -2.610394 -3.770861 0.619954
v -2.647360 -3.757907 0.619954
v -2.610394 -3.770861 0.619954
v -2.561514 -3.787988 0.571075
v -2.561514 -3.787988 0.330006
v -2.561514 -3.872843 0.571075
v -2.561514 -3.872843 0.330006
v -2.610394 -3.770861 0.619954
v -2.647360 -3.872843 0.619954
v -2.610394 -3.872843 0.619954
v -2.561514 -3.872843 0.571075
v -2.610394 -3.872843 0.619954
v -2.647360 -3.872843 0.619954
v -2.733206 -3.787988 0.571075
v -2.684327 -3.770861 0.619954
v -2.647360 -3.757907 0.619954
v -2.733206 -3.787988 0.571075
v -2.733206 -3.872843 0.330006
v -2.733206 -3.872843 0.571075
v -2.684327 -3.770861 0.619954
v -2.684327 -3.872843 0.619954
v -2.684327 -3.872843 0.619954
v -2.733206 -3.872843 0.571075
v -2.647360 -3.757907 0.330006
v -2.684327 -3.770861 0.619954
v -2.561514 -3.872843 0.571075
v -2.561514 -3.787988 0.330006
v -2.647360 -3.757907 0.330006
v -2.561514 -3.787988 0.571075
v -2.647360 -3.757907 0.619954
v -2.647360 -3.872843 0.330006
v -2.561514 -3.872843 0.330006
v -2.647360 -3.757907 0.330006
v -2.733206 -3.787988 0.330006
v -2.733206 -3.787988 0.330006
v -2.733206 -3.872843 0.330006
vt 0.002535 0.220866
vt 0.176746 0.044619
vt 0.002535 0.044619
vt 0.176746 0.397114
vt 0.002535 0.397114
vt 0.400436 0.187737
vt 0.542355 0.361949
vt 0.542355 0.187737
vt 0.689343 0.187737
vt 0.547424 0.361949
vt 0.689343 0.397114
vt 0.360099 0.997465
vt 0.440519 0.997465
vt 0.546854 0.897114
vt 0.743747 0.502535
vt 0.917959 0.997465
vt 0.917959 0.502535
vt 0.243575 0.370519
vt 0.319471 0.161142
vt 0.243575 0.161142
vt 0.002535 0.897114
vt 0.102886 0.997465
vt 0.178782 0.997465
vt 0.738678 0.502535
vt 0.632344 0.402183
vt 0.551923 0.402183
vt 0.743747 0.002535
vt 0.917959 0.497465
vt 0.917959 0.002535
vt 0.395367 0.370519
vt 0.395367 0.161142
vt 0.254678 0.997465
vt 0.355030 0.897114
vt 0.238506 0.220866
vt 0.400436 0.397114
vt 0.547424 0.187737
vt 0.546854 0.402183
vt 0.360099 0.402183
vt 0.743747 0.997465
vt 0.319471 0.397114
vt 0.178782 0.402183
vt 0.002535 0.402183
vt 0.551923 0.997465
vt 0.738678 0.997465
vt 0.743747 0.497465
vt 0.355030 0.402183
vn 0.000000 -0.707068 -0.707145
vn 0.654258 0.464020 -0.597187
vn 0.577350 -0.577350 -0.577350
vn -0.654272 0.464012 -0.597177
vn -0.577330 -0.577361 -0.577360
vn -0.297120 -0.630247 0.717293
vn -0.818456 0.496168 0.289736
vn -0.717296 -0.630246 0.297114
vn 0.297120 -0.630247 0.717293
vn 0.818462 0.496160 0.289731
vn 0.429841 0.560007 0.708257
vn 0.000000 0.768632 0.639691
vn 0.429841 0.560007 0.708257
vn 0.818462 0.496160 0.289731
vn 0.654258 0.464020 -0.597187
vn 0.717285 -0.630256 0.297118
vn 0.577350 -0.577350 -0.577350
vn 0.429841 0.560007 0.708257
vn 0.000000 -0.707121 0.707093
vn 0.297120 -0.630247 0.717293
vn 0.717285 -0.630256 0.297118
vn 0.297120 -0.630247 0.717293
vn 0.000000 -0.707121 0.707093
vn -0.818456 0.496168 0.289736
vn -0.429841 0.560007 0.708258
vn 0.000000 0.768632 0.639691
vn -0.818456 0.496168 0.289736
vn -0.577330 -0.577361 -0.577360
vn -0.717296 -0.630246 0.297114
vn -0.429841 0.560007 0.708258
vn -0.297120 -0.630247 0.717293
vn -0.297120 -0.630247 0.717293
vn -0.717296 -0.630246 0.297114
vn 0.000000 0.768622 -0.639703
vn -0.429841 0.560007 0.708258
vn 0.717285 -0.630256 0.297118
vn 0.654258 0.464020 -0.597187
vn 0.000000 0.768622 -0.639703
vn 0.818462 0.496160 0.289731
vn 0.000000 0.768632 0.639691
vn 0.000000 -0.707068 -0.707145
vn 0.577350 -0.577350 -0.577350
vn 0.000000 0.768622 -0.639703
vn -0.654272 0.464012 -0.597177
vn -0.654272 0.464012 -0.597177
vn -0.577330 -0.577361 -0.577360
f 1/1/1 2/2/2 3/3/3
f 4/4/4 1/1/1 5/5/5
f 6/6/6 7/7/7 8/8/8
f 9/9/9 10/10/10 11/11/11
f 12/12/12 13/13/13 14/14/14
f 15/15/15 16/16/16 17/17/17
f 18/18/18 19/19/19 20/20/20
f 21/21/21 22/22/22 23/23/23
f 24/24/24 25/25/25 26/26/26
f 27/27/27 28/28/28 29/29/29
f 19/19/19 30/30/30 31/31/31
f 23/23/23 32/32/32 33/33/33
f 1/1/1 34/34/34 2/2/2
f 4/4/4 34/34/34 1/1/1
f 6/6/6 35/35/35 7/7/7
f 9/9/9 36/36/36 10/10/10
f 14/14/14 37/37/37 38/38/38
f 38/38/38 12/12/12 14/14/14
f 15/15/15 39/39/39 16/16/16
f 18/18/18 40/40/40 19/19/19
f 23/23/23 41/41/41 21/21/21
f 41/41/41 42/42/42 21/21/21
f 26/26/26 43/43/43 24/24/24
f 43/43/43 44/44/44 24/24/24
f 27/27/27 45/45/45 28/28/28
f 19/19/19 40/40/40 30/30/30
f 33/33/33 46/46/46 41/41/41
f 41/41/41 23/23/23 33/33/33
