# f_small_wardrobe -- imported by tools/import_asset_pack.py from f_small_wardrobe.fbx
o __pending__
v 13.624855 -3.927505 -0.442253
v 12.740349 -3.812071 -0.442253
v 13.624855 -3.812071 -0.442253
v 12.801920 -2.408939 0.380682
v 12.740349 -2.408940 -0.442253
v 12.801920 -2.408940 -0.380683
v 12.801920 -3.812071 0.380683
v 13.624855 -3.812071 0.442253
v 13.563285 -3.812071 0.380683
v 13.624855 -3.812071 -0.442253
v 13.563285 -3.812071 -0.380683
v 12.801920 -2.293506 0.380682
v 13.624855 -2.293506 0.442253
v 13.563285 -2.293506 0.380682
v 13.563285 -2.293506 -0.380683
v 12.740349 -2.293506 -0.442253
v 12.801920 -2.293506 -0.380683
v 13.563285 -2.408939 0.380682
v 12.740349 -2.408939 0.442253
v 12.801920 -3.927505 -0.380682
v 13.624855 -3.927505 -0.442253
v 13.563285 -3.927505 -0.380682
v 12.740349 -3.927504 0.442253
v 13.624855 -3.812071 0.442253
v 12.740349 -3.812071 0.442253
v 12.740349 -2.293506 0.442253
v 12.740349 -2.293506 0.442253
v 12.740349 -2.408940 -0.442253
v 12.740349 -2.408939 0.442253
v 12.801920 -3.812071 -0.380683
v 12.740349 -3.812071 0.442253
v 13.563285 -2.408940 -0.380683
v 13.624855 -2.408939 0.442253
v 13.624855 -2.293506 -0.442253
v 13.624855 -3.927504 0.442253
v 13.624855 -3.812071 -0.442253
v 13.624855 -3.812071 0.442253
v 12.740349 -2.293506 -0.442253
v 13.624855 -2.408940 -0.442253
v 12.740349 -2.408940 -0.442253
v 13.624855 -2.293506 -0.442253
v 13.624855 -2.408939 0.442253
v 13.624855 -2.408940 -0.442253
v 12.740349 -3.812071 -0.442253
v 13.563285 -3.927504 0.380683
v 12.740349 -3.927504 0.442253
v 12.801920 -3.927504 0.380683
v 12.740349 -3.927505 -0.442253
v 12.740349 -3.927505 -0.442253
v 12.740349 -3.812071 0.442253
v 12.740349 -3.812071 -0.442253
v 12.801920 -2.408939 0.380682
v 12.801920 -3.812071 -0.380683
v 12.801920 -3.812071 0.380683
v 13.563285 -2.408940 -0.380683
v 13.563285 -3.812071 0.380683
v 13.563285 -3.812071 -0.380683
v 13.624855 -3.927504 0.442253
v 13.624855 -2.408940 -0.442253
v 13.624855 -2.293506 0.442253
v 12.740349 -2.408939 0.442253
v 13.624855 -2.408939 0.442253
v 13.563285 -2.408939 0.380682
v 12.801920 -3.812071 0.380683
v 13.563285 -3.812071 0.380683
v 12.801920 -2.408940 -0.380683
v 13.563285 -3.812071 -0.380683
v 12.801920 -3.812071 -0.380683
v 12.740349 -3.927505 -0.442253
v 13.624855 -3.927504 0.442253
v 12.740349 -2.293506 -0.442253
v 13.624855 -3.927505 -0.442253
v 13.624855 -2.293506 -0.442253
v 13.624855 -2.293506 0.442253
v 12.740349 -3.927504 0.442253
v 12.801920 -2.408940 -0.380683
v 13.563285 -2.408939 0.380682
v 12.740349 -2.293506 0.442253
v 12.801920 -2.408939 0.380682
v 13.563285 -2.408940 -0.380683
vt 0.882414 0.556576
vt 0.846716 0.283033
vt 0.846716 0.556576
vt 0.499452 0.537535
vt 0.518494 0.283033
vt 0.499452 0.302074
vt 0.543862 0.537535
vt 0.798363 0.556576
vt 0.779322 0.537535
vt 0.798363 0.283033
vt 0.779322 0.302074
vt 0.263992 0.257665
vt 0.518494 0.276707
vt 0.499452 0.257665
vt 0.499452 0.022205
vt 0.244950 0.003163
vt 0.263992 0.022205
vt 0.263992 0.537535
vt 0.518494 0.556576
vt 0.779322 0.022205
vt 0.524820 0.003163
vt 0.543861 0.022205
vt 0.890300 0.996837
vt 0.854601 0.723294
vt 0.854601 0.996837
vt 0.244950 0.276707
vt 0.728525 0.723294
vt 0.764224 0.996837
vt 0.764224 0.723294
vt 0.543862 0.302074
vt 0.524820 0.556576
vt 0.263992 0.302074
vt 0.244950 0.556576
vt 0.518494 0.003163
vt 0.806249 0.996837
vt 0.770550 0.723294
vt 0.770550 0.996837
vt 0.888741 0.283033
vt 0.924440 0.556576
vt 0.924440 0.283033
vt 0.804690 0.283033
vt 0.840389 0.556576
vt 0.840389 0.283033
vt 0.524820 0.283033
vt 0.543861 0.257665
vt 0.798363 0.276707
vt 0.779322 0.257665
vt 0.798363 0.003163
vt 0.848275 0.996837
vt 0.812576 0.723294
vt 0.812576 0.996837
vt 0.003163 0.996837
vt 0.238624 0.562903
vt 0.003163 0.562903
vt 0.244950 0.996837
vt 0.480411 0.562903
vt 0.244950 0.562903
vt 0.524820 0.276707
vt 0.244950 0.283033
vt 0.896627 0.723294
vt 0.932326 0.996837
vt 0.932326 0.723294
vt 0.486737 0.996837
vt 0.722198 0.562903
vt 0.486737 0.562903
vt 0.003163 0.556576
vt 0.238624 0.122643
vt 0.003163 0.122643
vt 0.882414 0.283033
vt 0.890300 0.723294
vt 0.728525 0.996837
vt 0.806249 0.723294
vt 0.888741 0.556576
vt 0.804690 0.556576
vt 0.848275 0.723294
vt 0.238624 0.996837
vt 0.480411 0.996837
vt 0.896627 0.996837
vt 0.722198 0.996837
vt 0.238624 0.556576
vn 0.577342 -0.577366 -0.577343
vn -0.577342 0.577366 -0.577343
vn 0.577343 0.577366 -0.577342
vn -0.301511 -0.904532 0.301517
vn -0.577343 -0.577366 -0.577341
vn -0.301518 -0.904532 -0.301511
vn -0.301517 0.904532 0.301511
vn 0.577342 0.577366 0.577343
vn 0.301511 0.904532 0.301517
vn 0.577343 0.577366 -0.577342
vn 0.301517 0.904532 -0.301511
vn 0.000000 1.000000 -0.000000
vn 0.577342 0.577366 0.577343
vn -0.000000 1.000000 -0.000000
vn -0.000000 1.000000 -0.000000
vn -0.577342 0.577366 -0.577343
vn 0.000000 1.000000 -0.000000
vn 0.301518 -0.904532 0.301511
vn -0.577342 -0.577366 0.577343
vn 0.000000 -1.000000 0.000000
vn 0.577342 -0.577366 -0.577343
vn -0.000000 -1.000000 0.000000
vn -0.577342 -0.577366 0.577343
vn 0.577342 0.577366 0.577343
vn -0.577343 0.577366 0.577341
vn -0.577343 0.577366 0.577342
vn -0.577343 0.577366 0.577342
vn -0.577343 -0.577366 -0.577341
vn -0.577342 -0.577366 0.577343
vn -0.301511 0.904532 -0.301517
vn -0.577343 0.577366 0.577341
vn 0.301511 -0.904532 -0.301517
vn 0.577343 -0.577366 0.577342
vn 0.577343 0.577366 -0.577342
vn 0.577343 -0.577366 0.577342
vn 0.577343 0.577366 -0.577342
vn 0.577342 0.577366 0.577343
vn -0.577342 0.577366 -0.577343
vn 0.577342 -0.577366 -0.577343
vn -0.577343 -0.577366 -0.577341
vn 0.577343 0.577366 -0.577342
vn 0.577343 -0.577366 0.577342
vn 0.577342 -0.577366 -0.577343
vn -0.577342 0.577366 -0.577343
vn -0.000000 -1.000000 0.000000
vn -0.577342 -0.577366 0.577343
vn 0.000000 -1.000000 0.000000
vn -0.577343 -0.577366 -0.577342
vn -0.577343 -0.577366 -0.577342
vn -0.577343 0.577366 0.577341
vn -0.577342 0.577366 -0.577343
vn -0.301511 -0.904532 0.301517
vn -0.301511 0.904532 -0.301517
vn -0.301517 0.904532 0.301511
vn 0.301511 -0.904532 -0.301517
vn 0.301511 0.904532 0.301517
vn 0.301517 0.904532 -0.301511
vn 0.577343 -0.577366 0.577342
vn 0.577342 -0.577366 -0.577343
vn 0.577342 0.577366 0.577343
vn -0.577342 -0.577366 0.577343
vn 0.577343 -0.577366 0.577342
vn 0.301518 -0.904532 0.301511
vn -0.301517 0.904532 0.301511
vn 0.301511 0.904532 0.301517
vn -0.301518 -0.904532 -0.301511
vn 0.301517 0.904532 -0.301511
vn -0.301511 0.904532 -0.301517
vn -0.577343 -0.577366 -0.577342
vn 0.577343 -0.577366 0.577342
vn -0.577342 0.577366 -0.577343
vn 0.577342 -0.577366 -0.577343
vn 0.577343 0.577366 -0.577342
vn 0.577342 0.577366 0.577343
vn -0.577342 -0.577366 0.577343
vn -0.301518 -0.904532 -0.301511
vn 0.301518 -0.904532 0.301511
vn -0.577343 0.577366 0.577342
vn -0.301511 -0.904532 0.301517
vn 0.301511 -0.904532 -0.301517
f 1/1/1 2/2/2 3/3/3
f 4/4/4 5/5/5 6/6/6
f 7/7/7 8/8/8 9/9/9
f 9/9/9 10/10/10 11/11/11
f 12/12/12 13/13/13 14/14/14
f 15/15/15 16/16/16 17/17/17
f 18/18/18 19/19/19 4/4/4
f 20/20/20 21/21/21 22/22/22
f 23/23/23 24/24/24 25/25/25
f 17/17/17 26/26/26 12/12/12
f 27/27/27 28/28/28 29/29/29
f 30/30/30 31/31/31 7/7/7
f 32/32/32 33/33/33 18/18/18
f 14/14/14 34/34/34 15/15/15
f 35/35/35 36/36/36 37/37/37
f 38/38/38 39/39/39 40/40/40
f 41/41/41 42/42/42 43/43/43
f 11/11/11 44/44/44 30/30/30
f 45/45/45 46/46/46 47/47/47
f 17/17/17 14/14/14 15/15/15
f 47/47/47 48/48/48 20/20/20
f 49/49/49 50/50/50 51/51/51
f 52/52/52 53/53/53 54/54/54
f 55/55/55 56/56/56 57/57/57
f 22/22/22 58/58/58 45/45/45
f 22/22/22 47/47/47 20/20/20
f 6/6/6 59/59/59 32/32/32
f 60/60/60 61/61/61 62/62/62
f 63/63/63 64/64/64 65/65/65
f 66/66/66 67/67/67 68/68/68
f 1/1/1 69/69/69 2/2/2
f 4/4/4 19/19/19 5/5/5
f 7/7/7 31/31/31 8/8/8
f 9/9/9 8/8/8 10/10/10
f 12/12/12 26/26/26 13/13/13
f 15/15/15 34/34/34 16/16/16
f 18/18/18 33/33/33 19/19/19
f 20/20/20 48/48/48 21/21/21
f 23/23/23 70/70/70 24/24/24
f 17/17/17 16/16/16 26/26/26
f 27/27/27 71/71/71 28/28/28
f 30/30/30 44/44/44 31/31/31
f 32/32/32 59/59/59 33/33/33
f 14/14/14 13/13/13 34/34/34
f 35/35/35 72/72/72 36/36/36
f 38/38/38 73/73/73 39/39/39
f 41/41/41 74/74/74 42/42/42
f 11/11/11 10/10/10 44/44/44
f 45/45/45 58/58/58 46/46/46
f 17/17/17 12/12/12 14/14/14
f 47/47/47 46/46/46 48/48/48
f 49/49/49 75/75/75 50/50/50
f 52/52/52 76/76/76 53/53/53
f 55/55/55 77/77/77 56/56/56
f 22/22/22 21/21/21 58/58/58
f 22/22/22 45/45/45 47/47/47
f 6/6/6 5/5/5 59/59/59
f 60/60/60 78/78/78 61/61/61
f 63/63/63 79/79/79 64/64/64
f 66/66/66 80/80/80 67/67/67
