# f_stool.001 -- imported by tools/import_asset_pack.py from f_stool.fbx
o __pending__
v 2.506270 -2.114916 0.130593
v 2.311633 -2.114916 0.112374
v 2.393173 -2.114916 0.065296
v 2.700907 -2.005069 0.112374
v 2.700907 -2.114916 -0.112374
v 2.700907 -2.005069 -0.112374
v 2.311633 -2.005069 -0.112374
v 2.311633 -2.114916 0.112374
v 2.311633 -2.005069 0.112374
v 2.393173 -2.114916 -0.065297
v 2.506270 -2.114916 -0.224748
v 2.506270 -2.114916 -0.130593
v 2.619367 -2.005069 -0.065297
v 2.506270 -2.005069 -0.224748
v 2.506270 -2.005069 -0.130593
v 2.311633 -2.005069 -0.112374
v 2.393173 -2.005069 -0.065297
v 2.619367 -2.005069 0.065296
v 2.506270 -2.005069 0.224747
v 2.700907 -2.005069 0.112374
v 2.311633 -2.005069 0.112374
v 2.506270 -2.114916 0.224747
v 2.506270 -2.005069 0.224747
v 2.506270 -2.005069 0.224747
v 2.700907 -2.114916 0.112374
v 2.700907 -2.005069 0.112374
v 2.619367 -2.114916 -0.065297
v 2.700907 -2.114916 0.112374
v 2.619367 -2.114916 0.065296
v 2.506270 -2.114916 0.224747
v 2.506270 -1.796211 -0.130593
v 2.393173 -2.005069 -0.065297
v 2.393173 -1.796211 -0.065297
v 2.700907 -2.005069 -0.112374
v 2.700907 -2.005069 -0.112374
v 2.506270 -2.114916 -0.224748
v 2.506270 -2.005069 -0.224748
v 2.700907 -2.114916 -0.112374
v 2.311633 -2.005069 0.112374
v 2.393173 -2.005069 0.065296
v 2.393173 -1.796211 -0.065297
v 2.393173 -2.005069 0.065296
v 2.393173 -1.796211 0.065296
v 2.311633 -2.114916 -0.112374
v 2.506270 -2.005069 -0.224748
v 2.311633 -2.114916 -0.112374
v 2.311633 -2.005069 -0.112374
v 2.393173 -1.796211 0.065296
v 2.506270 -2.005069 0.130593
v 2.506270 -1.796211 0.130593
v 2.506270 -2.005069 0.130593
v 2.619367 -1.796211 0.065296
v 2.619367 -2.005069 -0.065297
v 2.619367 -1.796211 -0.065297
v 2.506270 -1.796211 0.130593
v 2.619367 -2.005069 0.065296
v 2.619367 -1.796211 0.065296
v 2.619367 -1.796211 -0.065297
v 2.506270 -2.005069 -0.130593
v 2.506270 -1.796211 -0.130593
v 2.093601 -1.378998 0.238254
v 2.093601 -1.796211 -0.238255
v 2.093601 -1.796211 0.238254
v 2.093601 -1.378998 -0.238255
v 2.506270 -1.796211 -0.476510
v 2.093601 -1.796211 -0.238255
v 2.918939 -1.378998 -0.238255
v 2.918939 -1.796211 0.238254
v 2.918939 -1.796211 -0.238255
v 2.506270 -1.378998 -0.476510
v 2.918939 -1.796211 -0.238255
v 2.506270 -1.796211 -0.476510
v 2.918939 -1.378998 0.238254
v 2.506270 -1.796211 0.476509
v 2.918939 -1.796211 0.238254
v 2.506270 -1.378998 0.476509
v 2.093601 -1.796211 0.238254
v 2.506270 -1.796211 0.476509
v 2.506270 -1.378998 0.476509
v 2.918939 -1.378998 -0.238255
v 2.093601 -1.378998 -0.238255
v 2.918939 -1.796211 0.238254
v 2.619367 -1.796211 -0.065297
v 2.918939 -1.796211 -0.238255
v 2.093601 -1.796211 -0.238255
v 2.393173 -1.796211 0.065296
v 2.093601 -1.796211 0.238254
v 2.506270 -1.796211 -0.476510
v 2.393173 -1.796211 -0.065297
v 2.506270 -1.796211 0.130593
v 2.619367 -1.796211 0.065296
v 2.506270 -1.796211 -0.130593
v 2.506270 -1.796211 0.476509
v 2.700907 -2.114916 0.112374
v 2.311633 -2.114916 -0.112374
v 2.311633 -2.114916 0.112374
v 2.506270 -2.114916 0.224747
v 2.506270 -2.005069 -0.130593
v 2.700907 -2.114916 -0.112374
v 2.393173 -2.005069 -0.065297
v 2.506270 -2.114916 -0.224748
v 2.393173 -2.005069 0.065296
v 2.619367 -2.005069 0.065296
v 2.506270 -2.005069 0.130593
v 2.619367 -2.005069 -0.065297
v 2.093601 -1.378998 -0.238255
v 2.506270 -1.378998 -0.476510
v 2.918939 -1.378998 0.238254
v 2.918939 -1.378998 -0.238255
v 2.506270 -1.378998 0.476509
v 2.093601 -1.378998 0.238254
v 2.093601 -1.378998 0.238254
v 2.918939 -1.378998 0.238254
v 2.506270 -1.378998 -0.476510
vt 0.546417 0.199848
vt 0.646264 0.190502
vt 0.604435 0.166351
vt 0.865299 0.996297
vt 0.921650 0.881003
vt 0.865299 0.881003
vt 0.889438 0.500000
vt 0.945788 0.384707
vt 0.889438 0.384707
vt 0.604435 0.099359
vt 0.546417 0.017562
vt 0.546417 0.065862
vt 0.825869 0.099359
vt 0.767851 0.017562
vt 0.767851 0.065862
vt 0.668004 0.075208
vt 0.709834 0.099359
vt 0.825869 0.166351
vt 0.767851 0.248148
vt 0.867698 0.190502
vt 0.865299 0.873596
vt 0.921650 0.758303
vt 0.865299 0.758303
vt 0.865299 0.750896
vt 0.921650 0.635603
vt 0.865299 0.635603
vt 0.488400 0.099359
vt 0.446570 0.190502
vt 0.488400 0.166351
vt 0.546417 0.248148
vt 0.996049 0.996297
vt 0.929056 0.889155
vt 0.929056 0.996297
vt 0.867698 0.075208
vt 0.865299 0.628196
vt 0.921650 0.512902
vt 0.865299 0.512902
vt 0.446570 0.075208
vt 0.668004 0.190502
vt 0.709834 0.166351
vt 0.996049 0.767199
vt 0.929056 0.660057
vt 0.929056 0.767199
vt 0.646264 0.075208
vt 0.875105 0.248148
vt 0.931455 0.132855
vt 0.875105 0.132855
vt 0.996049 0.881748
vt 0.929056 0.774606
vt 0.929056 0.881748
vt 0.767851 0.199848
vt 0.996049 0.652650
vt 0.929056 0.545508
vt 0.929056 0.652650
vt 0.956430 0.377300
vt 0.889438 0.270158
vt 0.889438 0.377300
vt 0.942098 0.125448
vt 0.875105 0.018306
vt 0.875105 0.125448
vt 0.003703 0.003703
vt 0.217730 0.248148
vt 0.217730 0.003703
vt 0.668004 0.255555
vt 0.882031 0.500000
vt 0.882031 0.255555
vt 0.225137 0.003703
vt 0.439164 0.248148
vt 0.439164 0.003703
vt 0.446571 0.255555
vt 0.660597 0.500000
vt 0.660597 0.255555
vt 0.003703 0.255555
vt 0.217730 0.500000
vt 0.217730 0.255555
vt 0.225137 0.255555
vt 0.439164 0.500000
vt 0.439164 0.255555
vt 0.215399 0.996297
vt 0.427094 0.629629
vt 0.003703 0.629629
vt 0.434501 0.874074
vt 0.588179 0.718355
vt 0.434501 0.629629
vt 0.857892 0.629629
vt 0.704214 0.785348
vt 0.857892 0.874074
vt 0.646197 0.507407
vt 0.704214 0.718355
vt 0.646197 0.818845
vt 0.588179 0.785348
vt 0.646197 0.684859
vt 0.646197 0.996297
vt 0.921650 0.996297
vt 0.945788 0.500000
vt 0.921650 0.873596
vt 0.921650 0.750896
vt 0.996049 0.889155
vt 0.921650 0.628196
vt 0.996049 0.660057
vt 0.931455 0.248148
vt 0.996049 0.774606
vt 0.996049 0.545508
vt 0.956430 0.270158
vt 0.942098 0.018306
vt 0.003703 0.248148
vt 0.668004 0.500000
vt 0.225137 0.248148
vt 0.446571 0.500000
vt 0.003703 0.500000
vt 0.225137 0.500000
vt 0.003703 0.874074
vt 0.427094 0.874074
vt 0.215399 0.507407
vn 0.000000 -1.000000 0.000000
vn -0.686237 -0.609998 0.396208
vn -0.000000 -1.000000 0.000000
vn 0.686240 0.609994 0.396210
vn 0.686240 -0.609994 -0.396210
vn 0.686245 0.609998 -0.396195
vn -0.686237 0.609998 -0.396208
vn -0.686237 -0.609998 0.396208
vn -0.686245 0.609998 0.396195
vn -0.000000 -1.000000 0.000000
vn -0.000008 -0.610002 -0.792400
vn -0.000000 -1.000000 0.000000
vn 0.471733 0.838625 -0.272355
vn 0.000008 0.609998 -0.792403
vn 0.000000 0.838625 -0.544710
vn -0.686237 0.609998 -0.396208
vn -0.471733 0.838624 -0.272355
vn 0.471739 0.838620 0.272359
vn -0.000008 0.610002 0.792400
vn 0.686240 0.609994 0.396210
vn -0.686245 0.609998 0.396195
vn 0.000008 -0.609998 0.792403
vn -0.000008 0.610002 0.792400
vn -0.000008 0.610002 0.792400
vn 0.686245 -0.609998 0.396195
vn 0.686240 0.609994 0.396210
vn 0.000000 -1.000000 0.000000
vn 0.686245 -0.609998 0.396195
vn -0.000000 -1.000000 0.000000
vn 0.000008 -0.609998 0.792403
vn -0.000001 -0.000000 -1.000000
vn -0.471733 0.838624 -0.272355
vn -0.866026 -0.000000 -0.499999
vn 0.686245 0.609998 -0.396195
vn 0.686245 0.609998 -0.396195
vn -0.000008 -0.610002 -0.792400
vn 0.000008 0.609998 -0.792403
vn 0.686240 -0.609994 -0.396210
vn -0.686245 0.609998 0.396195
vn -0.471733 0.838625 0.272354
vn -0.866026 -0.000000 -0.499999
vn -0.471733 0.838625 0.272354
vn -0.866025 0.000000 0.500001
vn -0.686245 -0.609998 -0.396195
vn 0.000008 0.609998 -0.792403
vn -0.686245 -0.609998 -0.396195
vn -0.686237 0.609998 -0.396208
vn -0.866025 0.000000 0.500001
vn -0.000000 0.838630 0.544702
vn 0.000001 0.000000 1.000000
vn -0.000000 0.838630 0.544702
vn 0.866026 0.000000 0.499999
vn 0.471733 0.838625 -0.272355
vn 0.866025 -0.000000 -0.500001
vn 0.000001 0.000000 1.000000
vn 0.471739 0.838620 0.272359
vn 0.866026 0.000000 0.499999
vn 0.866025 -0.000000 -0.500001
vn 0.000000 0.838625 -0.544710
vn -0.000001 -0.000000 -1.000000
vn -0.686254 0.609988 0.396195
vn -0.686258 -0.609981 -0.396198
vn -0.686249 -0.609978 0.396219
vn -0.686246 0.609982 -0.396218
vn -0.000012 -0.609981 -0.792416
vn -0.686258 -0.609981 -0.396198
vn 0.686258 0.609982 -0.396198
vn 0.686256 -0.609984 0.396197
vn 0.686246 -0.609981 -0.396218
vn 0.000012 0.609988 -0.792411
vn 0.686246 -0.609981 -0.396218
vn -0.000012 -0.609981 -0.792416
vn 0.686242 0.609988 0.396215
vn 0.000012 -0.609981 0.792416
vn 0.686256 -0.609984 0.396197
vn -0.000012 0.609982 0.792415
vn -0.686249 -0.609978 0.396219
vn 0.000012 -0.609981 0.792416
vn -0.000012 0.609982 0.792415
vn 0.686258 0.609982 -0.396198
vn -0.686246 0.609982 -0.396218
vn 0.686256 -0.609984 0.396197
vn -0.000000 -1.000000 0.000000
vn 0.686246 -0.609981 -0.396218
vn -0.686258 -0.609981 -0.396198
vn -0.000000 -1.000000 0.000000
vn -0.686249 -0.609978 0.396219
vn -0.000012 -0.609981 -0.792416
vn 0.000000 -1.000000 0.000000
vn 0.000000 -1.000000 0.000000
vn -0.000000 -1.000000 0.000000
vn 0.000000 -1.000000 0.000000
vn 0.000012 -0.609981 0.792416
vn 0.686245 -0.609998 0.396195
vn -0.686245 -0.609998 -0.396195
vn -0.686237 -0.609998 0.396208
vn 0.000008 -0.609998 0.792403
vn 0.000000 0.838625 -0.544710
vn 0.686240 -0.609994 -0.396210
vn -0.471733 0.838624 -0.272355
vn -0.000008 -0.610002 -0.792400
vn -0.471733 0.838625 0.272354
vn 0.471739 0.838620 0.272359
vn -0.000000 0.838630 0.544702
vn 0.471733 0.838625 -0.272355
vn -0.686246 0.609982 -0.396218
vn 0.000012 0.609988 -0.792411
vn 0.686242 0.609988 0.396215
vn 0.686258 0.609982 -0.396198
vn -0.000012 0.609982 0.792415
vn -0.686254 0.609988 0.396195
vn -0.686254 0.609988 0.396195
vn 0.686242 0.609988 0.396215
vn 0.000012 0.609988 -0.792411
f 1/1/1 2/2/2 3/3/3
f 4/4/4 5/5/5 6/6/6
f 7/7/7 8/8/8 9/9/9
f 10/10/10 11/11/11 12/12/12
f 13/13/13 14/14/14 15/15/15
f 15/15/15 16/16/16 17/17/17
f 18/18/18 19/19/19 20/20/20
f 21/21/21 22/22/22 23/23/23
f 24/24/24 25/25/25 26/26/26
f 27/27/27 28/28/28 29/29/29
f 29/29/29 30/30/30 1/1/1
f 12/12/12 29/29/29 3/3/3
f 31/31/31 32/32/32 33/33/33
f 18/18/18 34/34/34 13/13/13
f 35/35/35 36/36/36 37/37/37
f 27/27/27 11/11/11 38/38/38
f 17/17/17 39/39/39 40/40/40
f 41/41/41 42/42/42 43/43/43
f 3/3/3 44/44/44 10/10/10
f 45/45/45 46/46/46 47/47/47
f 48/48/48 49/49/49 50/50/50
f 40/40/40 19/19/19 51/51/51
f 52/52/52 53/53/53 54/54/54
f 55/55/55 56/56/56 57/57/57
f 58/58/58 59/59/59 60/60/60
f 61/61/61 62/62/62 63/63/63
f 64/64/64 65/65/65 66/66/66
f 67/67/67 68/68/68 69/69/69
f 70/70/70 71/71/71 72/72/72
f 73/73/73 74/74/74 75/75/75
f 76/76/76 77/77/77 78/78/78
f 79/79/79 80/80/80 81/81/81
f 82/82/82 83/83/83 84/84/84
f 85/85/85 86/86/86 87/87/87
f 88/88/88 89/89/89 85/85/85
f 82/82/82 90/90/90 91/91/91
f 84/84/84 92/92/92 88/88/88
f 93/93/93 86/86/86 90/90/90
f 1/1/1 30/30/30 2/2/2
f 4/4/4 94/94/94 5/5/5
f 7/7/7 95/95/95 8/8/8
f 10/10/10 44/44/44 11/11/11
f 13/13/13 34/34/34 14/14/14
f 15/15/15 14/14/14 16/16/16
f 18/18/18 51/51/51 19/19/19
f 21/21/21 96/96/96 22/22/22
f 24/24/24 97/97/97 25/25/25
f 27/27/27 38/38/38 28/28/28
f 29/29/29 28/28/28 30/30/30
f 3/3/3 10/10/10 12/12/12
f 12/12/12 27/27/27 29/29/29
f 29/29/29 1/1/1 3/3/3
f 31/31/31 98/98/98 32/32/32
f 18/18/18 20/20/20 34/34/34
f 35/35/35 99/99/99 36/36/36
f 27/27/27 12/12/12 11/11/11
f 17/17/17 16/16/16 39/39/39
f 41/41/41 100/100/100 42/42/42
f 3/3/3 2/2/2 44/44/44
f 45/45/45 101/101/101 46/46/46
f 48/48/48 102/102/102 49/49/49
f 40/40/40 39/39/39 19/19/19
f 52/52/52 103/103/103 53/53/53
f 55/55/55 104/104/104 56/56/56
f 58/58/58 105/105/105 59/59/59
f 61/61/61 106/106/106 62/62/62
f 64/64/64 107/107/107 65/65/65
f 67/67/67 108/108/108 68/68/68
f 70/70/70 109/109/109 71/71/71
f 73/73/73 110/110/110 74/74/74
f 76/76/76 111/111/111 77/77/77
f 81/81/81 112/112/112 79/79/79
f 79/79/79 113/113/113 80/80/80
f 80/80/80 114/114/114 81/81/81
f 82/82/82 91/91/91 83/83/83
f 85/85/85 89/89/89 86/86/86
f 88/88/88 92/92/92 89/89/89
f 82/82/82 93/93/93 90/90/90
f 84/84/84 83/83/83 92/92/92
f 93/93/93 87/87/87 86/86/86
