# f_washing_machine -- imported by tools/import_asset_pack.py from f_washing_machine.fbx
o __pending__
v 10.670547 -1.754016 0.575705
v 10.459907 -1.515079 0.575705
v 10.358301 -1.573741 0.575705
v 10.670547 -1.032916 0.575704
v 10.982792 -1.213191 0.446170
v 10.670547 -1.032916 0.446170
v 10.358301 -1.573741 0.575705
v 10.358301 -1.213191 0.446170
v 10.358301 -1.573741 0.446170
v 10.189776 -0.775320 -0.474964
v 11.139704 -0.775320 0.474964
v 11.139704 -0.775320 -0.474964
v 10.670547 -1.754016 0.446170
v 10.358301 -1.213191 0.446170
v 10.982792 -1.213191 0.446170
v 10.982792 -1.213191 0.575705
v 10.982792 -1.573741 0.446170
v 10.982792 -1.213191 0.446170
v 11.139704 -0.901396 0.474964
v 10.189776 -0.775320 0.474964
v 10.189776 -0.901396 0.474964
v 10.358301 -1.213191 0.575705
v 10.670547 -1.032916 0.446170
v 10.358301 -1.213191 0.446170
v 11.139704 -0.901396 -0.474964
v 11.139704 -0.775320 0.474964
v 11.139704 -0.901396 0.474964
v 10.670547 -1.754016 0.575705
v 10.358301 -1.573741 0.446170
v 10.670547 -1.754016 0.446170
v 10.189776 -0.901396 0.474964
v 10.189776 -0.775320 -0.474964
v 10.189776 -0.901396 -0.474964
v 10.189776 -1.851324 -0.474964
v 10.189776 -1.851324 0.474964
v 11.139704 -1.851324 0.474964
v 11.139704 -1.851324 -0.474964
v 10.982792 -1.573741 0.575705
v 10.670547 -1.754016 0.446170
v 10.982792 -1.573741 0.446170
v 11.139704 -1.851324 -0.474964
v 10.189776 -1.851324 0.474964
v 10.189776 -1.851324 -0.474964
v 10.189776 -0.901396 -0.474964
v 11.139704 -0.775320 -0.474964
v 11.139704 -0.901396 -0.474964
v 11.139704 -1.851324 -0.474964
v 10.189776 -1.851324 -0.474964
v 10.189776 -1.851324 0.474964
v 11.139704 -1.851324 0.474964
v 10.670547 -1.636693 0.575705
v 10.459907 -1.515079 0.517072
v 10.459907 -1.515079 0.575705
v 10.982792 -1.573741 0.575705
v 10.670547 -1.636693 0.575705
v 10.459907 -1.271853 0.575705
v 10.358301 -1.213191 0.575705
v 10.670547 -1.032916 0.575704
v 10.670547 -1.150239 0.575704
v 10.982792 -1.213191 0.575705
v 10.881187 -1.271853 0.575705
v 10.881187 -1.515079 0.575705
v 10.881187 -1.515079 0.517072
v 10.881187 -1.271853 0.517072
v 10.459907 -1.271853 0.517072
v 10.881187 -1.271853 0.575705
v 10.881187 -1.515079 0.517072
v 10.881187 -1.515079 0.575705
v 10.459907 -1.271853 0.575705
v 10.670547 -1.150239 0.517072
v 10.670547 -1.150239 0.575704
v 10.670547 -1.150239 0.575704
v 10.881187 -1.271853 0.517072
v 10.881187 -1.271853 0.575705
v 10.881187 -1.515079 0.575705
v 10.670547 -1.636693 0.517072
v 10.670547 -1.636693 0.575705
v 10.459907 -1.515079 0.575705
v 10.459907 -1.271853 0.517072
v 10.459907 -1.271853 0.575705
v 10.982792 -1.213191 0.575705
v 10.358301 -1.213191 0.575705
v 10.189776 -0.775320 0.474964
v 10.982792 -1.573741 0.446170
v 10.358301 -1.573741 0.446170
v 10.670547 -1.032916 0.446170
v 10.982792 -1.573741 0.575705
v 11.139704 -0.775320 0.474964
v 10.670547 -1.032916 0.575704
v 11.139704 -0.775320 -0.474964
v 10.358301 -1.573741 0.575705
v 10.189776 -0.775320 0.474964
v 10.670547 -1.754016 0.575705
v 11.139704 -1.851324 0.474964
v 10.189776 -0.775320 -0.474964
v 10.670547 -1.636693 0.517072
v 10.670547 -1.150239 0.517072
v 10.459907 -1.515079 0.517072
v 10.670547 -1.636693 0.517072
v 10.881187 -1.271853 0.517072
v 10.459907 -1.271853 0.517072
v 10.670547 -1.150239 0.517072
v 10.881187 -1.515079 0.517072
v 10.459907 -1.515079 0.517072
vt 0.877708 0.150831
vt 0.843050 0.253807
vt 0.877708 0.273817
vt 0.519216 0.249300
vt 0.475030 0.126313
vt 0.475030 0.249300
vt 0.373354 0.126313
vt 0.417539 0.249300
vt 0.417539 0.126313
vt 0.664689 0.672645
vt 0.988718 0.996674
vt 0.988718 0.672645
vt 0.216346 0.064820
vt 0.003326 0.064820
vt 0.109836 0.249300
vt 0.468377 0.249300
vt 0.424192 0.126313
vt 0.424192 0.249300
vt 0.003326 0.953668
vt 0.327355 0.996674
vt 0.327355 0.953668
vt 0.576706 0.126313
vt 0.620892 0.249300
vt 0.620892 0.126313
vt 0.334008 0.953668
vt 0.658036 0.996674
vt 0.658036 0.953668
vt 0.884361 0.212324
vt 0.928547 0.335311
vt 0.928547 0.212324
vt 0.003326 0.579981
vt 0.327355 0.622987
vt 0.327355 0.579981
vt 0.327355 0.255953
vt 0.003326 0.255953
vt 0.658036 0.629640
vt 0.334008 0.629640
vt 0.570054 0.249300
vt 0.525868 0.126313
vt 0.525868 0.249300
vt 0.664689 0.341964
vt 0.988718 0.665992
vt 0.988718 0.341964
vt 0.334008 0.579981
vt 0.658036 0.622987
vt 0.658036 0.579981
vt 0.658036 0.255953
vt 0.334008 0.255953
vt 0.327355 0.629640
vt 0.003326 0.629640
vt 0.647545 0.076714
vt 0.627545 0.159680
vt 0.647545 0.159680
vt 0.771199 0.089337
vt 0.843050 0.170841
vt 0.771199 0.295290
vt 0.771199 0.335311
vt 0.664689 0.273817
vt 0.699348 0.253807
vt 0.664689 0.150831
vt 0.699348 0.170841
vt 0.771199 0.129357
vt 0.294850 0.083367
vt 0.222999 0.124850
vt 0.294850 0.249300
vt 0.627545 0.249300
vt 0.647545 0.166333
vt 0.627545 0.166333
vt 0.931015 0.122705
vt 0.911014 0.205671
vt 0.931015 0.205671
vt 0.935200 0.335311
vt 0.955200 0.252344
vt 0.935200 0.252344
vt 0.937667 0.205671
vt 0.957668 0.122705
vt 0.937667 0.122705
vt 0.904362 0.122705
vt 0.884362 0.205671
vt 0.904362 0.205671
vt 0.519216 0.126313
vt 0.373354 0.249300
vt 0.664689 0.996674
vt 0.216346 0.187806
vt 0.109836 0.003326
vt 0.003326 0.187807
vt 0.468377 0.126313
vt 0.003326 0.996674
vt 0.576706 0.249300
vt 0.334008 0.996674
vt 0.884361 0.335311
vt 0.003326 0.622987
vt 0.570054 0.126313
vt 0.664689 0.665992
vt 0.334008 0.622987
vt 0.627545 0.076714
vt 0.222999 0.207817
vt 0.366701 0.207817
vt 0.366701 0.124850
vt 0.647545 0.249300
vt 0.911014 0.122705
vt 0.955200 0.335311
vt 0.957668 0.205671
vt 0.884362 0.122705
vn 0.000012 -0.792400 0.610002
vn 0.471721 0.272355 0.838631
vn -0.686233 -0.396210 0.610001
vn -0.000012 0.792400 0.610001
vn 0.686245 0.396190 -0.610002
vn 0.000012 0.792396 -0.610008
vn -0.686233 -0.396210 0.610001
vn -0.686233 0.396210 -0.610002
vn -0.686241 -0.396188 -0.610008
vn -0.577340 0.577372 -0.577339
vn 0.577340 0.577372 0.577339
vn 0.577350 0.577350 -0.577351
vn -0.000012 -0.792400 -0.610001
vn -0.686233 0.396210 -0.610002
vn 0.686245 0.396190 -0.610002
vn 0.686233 0.396211 0.610001
vn 0.686229 -0.396208 -0.610008
vn 0.686245 0.396190 -0.610002
vn 0.707097 0.000000 0.707117
vn -0.577350 0.577350 0.577351
vn -0.707117 0.000000 0.707097
vn -0.686247 0.396191 0.609998
vn 0.000012 0.792396 -0.610008
vn -0.686233 0.396210 -0.610002
vn 0.707117 -0.000000 -0.707097
vn 0.577340 0.577372 0.577339
vn 0.707097 0.000000 0.707117
vn 0.000012 -0.792400 0.610002
vn -0.686241 -0.396188 -0.610008
vn -0.000012 -0.792400 -0.610001
vn -0.707117 0.000000 0.707097
vn -0.577340 0.577372 -0.577339
vn -0.707097 -0.000000 -0.707117
vn -0.577372 -0.577340 -0.577339
vn -0.577329 -0.577361 0.577361
vn 0.577372 -0.577339 0.577339
vn 0.577329 -0.577361 -0.577361
vn 0.686243 -0.396188 0.610005
vn -0.000012 -0.792400 -0.610001
vn 0.686229 -0.396208 -0.610008
vn 0.577329 -0.577361 -0.577361
vn -0.577329 -0.577361 0.577361
vn -0.577372 -0.577340 -0.577339
vn -0.707097 -0.000000 -0.707117
vn 0.577350 0.577350 -0.577351
vn 0.707117 -0.000000 -0.707097
vn 0.577329 -0.577361 -0.577361
vn -0.577372 -0.577340 -0.577339
vn -0.577329 -0.577361 0.577361
vn 0.577372 -0.577339 0.577339
vn -0.000006 0.544700 0.838631
vn 0.686241 0.396192 0.610005
vn 0.471721 0.272355 0.838631
vn 0.686243 -0.396188 0.610005
vn -0.000006 0.544700 0.838631
vn 0.471732 -0.272348 0.838627
vn -0.686247 0.396191 0.609998
vn -0.000012 0.792400 0.610001
vn 0.000006 -0.544700 0.838631
vn 0.686233 0.396211 0.610001
vn -0.471722 -0.272355 0.838631
vn -0.471722 0.272342 0.838634
vn -0.686239 0.396210 0.609995
vn -0.686243 -0.396193 0.610002
vn 0.686234 -0.396207 0.610002
vn -0.471722 -0.272355 0.838631
vn -0.686239 0.396210 0.609995
vn -0.471722 0.272342 0.838634
vn 0.471732 -0.272348 0.838627
vn -0.000008 -0.792398 0.610005
vn 0.000006 -0.544700 0.838631
vn 0.000006 -0.544700 0.838631
vn -0.686243 -0.396193 0.610002
vn -0.471722 -0.272355 0.838631
vn -0.471722 0.272342 0.838634
vn 0.000008 0.792400 0.610001
vn -0.000006 0.544700 0.838631
vn 0.471721 0.272355 0.838631
vn 0.686234 -0.396207 0.610002
vn 0.471732 -0.272348 0.838627
vn 0.686233 0.396211 0.610001
vn -0.686247 0.396191 0.609998
vn -0.577350 0.577350 0.577351
vn 0.686229 -0.396208 -0.610008
vn -0.686241 -0.396188 -0.610008
vn 0.000012 0.792396 -0.610008
vn 0.686243 -0.396188 0.610005
vn 0.577340 0.577372 0.577339
vn -0.000012 0.792400 0.610001
vn 0.577350 0.577350 -0.577351
vn -0.686233 -0.396210 0.610001
vn -0.577350 0.577350 0.577351
vn 0.000012 -0.792400 0.610002
vn 0.577372 -0.577339 0.577339
vn -0.577340 0.577372 -0.577339
vn 0.000008 0.792400 0.610001
vn -0.000008 -0.792398 0.610005
vn 0.686241 0.396192 0.610005
vn 0.000008 0.792400 0.610001
vn -0.686243 -0.396193 0.610002
vn 0.686234 -0.396207 0.610002
vn -0.000008 -0.792398 0.610005
vn -0.686239 0.396210 0.609995
vn 0.686241 0.396192 0.610005
f 1/1/1 2/2/2 3/3/3
f 4/4/4 5/5/5 6/6/6
f 7/7/7 8/8/8 9/9/9
f 10/10/10 11/11/11 12/12/12
f 13/13/13 14/14/14 15/15/15
f 16/16/16 17/17/17 18/18/18
f 19/19/19 20/20/20 21/21/21
f 22/22/22 23/23/23 24/24/24
f 25/25/25 26/26/26 27/27/27
f 28/28/28 29/29/29 30/30/30
f 31/31/31 32/32/32 33/33/33
f 31/31/31 34/34/34 35/35/35
f 25/25/25 36/36/36 37/37/37
f 38/38/38 39/39/39 40/40/40
f 41/41/41 42/42/42 43/43/43
f 44/44/44 45/45/45 46/46/46
f 44/44/44 47/47/47 48/48/48
f 19/19/19 49/49/49 50/50/50
f 51/51/51 52/52/52 53/53/53
f 54/54/54 55/55/55 1/1/1
f 3/3/3 56/56/56 57/57/57
f 58/58/58 56/56/56 59/59/59
f 60/60/60 59/59/59 61/61/61
f 54/54/54 61/61/61 62/62/62
f 63/63/63 64/64/64 65/65/65
f 66/66/66 67/67/67 68/68/68
f 69/69/69 70/70/70 71/71/71
f 72/72/72 73/73/73 74/74/74
f 75/75/75 76/76/76 77/77/77
f 78/78/78 79/79/79 80/80/80
f 1/1/1 55/55/55 2/2/2
f 4/4/4 81/81/81 5/5/5
f 7/7/7 82/82/82 8/8/8
f 10/10/10 83/83/83 11/11/11
f 15/15/15 84/84/84 13/13/13
f 13/13/13 85/85/85 14/14/14
f 14/14/14 86/86/86 15/15/15
f 16/16/16 87/87/87 17/17/17
f 19/19/19 88/88/88 20/20/20
f 22/22/22 89/89/89 23/23/23
f 25/25/25 90/90/90 26/26/26
f 28/28/28 91/91/91 29/29/29
f 31/31/31 92/92/92 32/32/32
f 31/31/31 33/33/33 34/34/34
f 25/25/25 27/27/27 36/36/36
f 38/38/38 93/93/93 39/39/39
f 41/41/41 94/94/94 42/42/42
f 44/44/44 95/95/95 45/45/45
f 44/44/44 46/46/46 47/47/47
f 19/19/19 21/21/21 49/49/49
f 51/51/51 96/96/96 52/52/52
f 54/54/54 62/62/62 55/55/55
f 3/3/3 2/2/2 56/56/56
f 58/58/58 57/57/57 56/56/56
f 60/60/60 58/58/58 59/59/59
f 54/54/54 60/60/60 61/61/61
f 64/64/64 97/97/97 65/65/65
f 65/65/65 98/98/98 99/99/99
f 99/99/99 63/63/63 65/65/65
f 66/66/66 100/100/100 67/67/67
f 69/69/69 101/101/101 70/70/70
f 72/72/72 102/102/102 73/73/73
f 75/75/75 103/103/103 76/76/76
f 78/78/78 104/104/104 79/79/79
