# f_stylized_wall -- imported by tools/import_asset_pack.py from f_wooded_wall.fbx
o __pending__
v 6.153080 -9.740456 -0.000001
v 2.278290 -7.323155 -0.000002
v 2.278290 -9.740456 -0.000001
v 6.153080 -9.740456 0.207385
v 6.153080 -10.735815 -0.000001
v 6.153080 -11.197946 0.207385
v 6.153080 -11.197946 -0.000001
v 6.153080 -10.735815 0.207385
v 2.278290 -9.740456 0.207385
v 2.278290 -10.735815 0.207385
v 6.153080 -10.735815 0.235761
v 6.153080 -11.197946 0.327627
v 6.153080 -9.740456 -0.000001
v 6.153080 -10.735815 0.207385
v 2.278290 -11.197946 0.207385
v 2.278290 -11.197946 -0.000001
v 2.278290 -10.735815 -0.000001
v 2.278290 -9.740456 0.207385
v 2.278290 -9.740456 -0.000001
v 2.278290 -10.735815 0.207385
v 6.153080 -11.197946 0.327627
v 2.278290 -10.735815 0.235761
v 2.278290 -11.197946 0.327627
v 2.278290 -10.735815 0.235761
v 6.153080 -10.735815 0.235761
v 6.153080 -7.323155 -0.000002
v 6.153080 -9.740456 0.207385
vt 1.000000 0.623853
vt 0.000000 0.000000
vt 0.000000 0.623853
vt 1.000000 0.623853
vt 0.000000 1.000000
vt 0.000000 1.000000
vt 0.000000 1.000000
vt 1.000000 0.880734
vt 0.000000 0.623853
vt 0.000000 0.880734
vt 0.000000 1.000000
vt 0.000000 1.000000
vt 0.000000 1.000000
vt 0.000000 1.000000
vt 0.000000 1.000000
vt 0.000000 1.000000
vt 0.000000 1.000000
vt 0.000000 1.000000
vt 0.000000 1.000000
vt 0.000000 1.000000
vt 1.000000 1.000000
vt 0.000000 0.880734
vt 0.000000 1.000000
vt 0.000000 1.000000
vt 1.000000 0.880734
vt 1.000000 0.000000
vt 0.000000 1.000000
vn 0.577340 0.577355 0.577356
vn 0.000000 0.000000 1.000000
vn -0.577347 0.577357 0.577347
vn 0.577347 0.577357 0.577347
vn 1.000000 0.000000 0.000000
vn 0.707100 -0.707114 0.000000
vn 0.707101 -0.707113 0.000000
vn 0.904536 0.301515 0.301502
vn -0.577348 0.577363 0.577340
vn -0.904531 0.301516 0.301515
vn 0.588376 0.625017 0.512999
vn 0.567728 -0.522279 0.636325
vn 0.577340 0.577355 0.577356
vn 0.904536 0.301515 0.301502
vn -0.707107 -0.707107 0.000000
vn -0.707092 -0.707122 0.000000
vn -1.000000 0.000000 0.000000
vn -0.577348 0.577363 0.577340
vn -0.577347 0.577357 0.577347
vn -0.904531 0.301516 0.301515
vn 0.567728 -0.522279 0.636325
vn -0.588376 0.625015 0.513001
vn -0.567726 -0.522287 0.636320
vn -0.588376 0.625015 0.513001
vn 0.588376 0.625017 0.512999
vn 0.000000 0.000000 1.000000
vn 0.577347 0.577357 0.577347
f 1/1/1 2/2/2 3/3/3
f 3/3/3 4/4/4 1/1/1
f 5/5/5 6/6/6 7/7/7
f 8/8/8 9/9/9 10/10/10
f 6/6/6 11/11/11 12/12/12
f 13/13/13 14/14/14 5/5/5
f 7/7/7 15/15/15 16/16/16
f 17/17/17 18/18/18 19/19/19
f 16/16/16 20/20/20 17/17/17
f 21/21/21 22/22/22 23/23/23
f 15/15/15 24/24/24 20/20/20
f 10/10/10 25/25/25 8/8/8
f 6/6/6 23/23/23 15/15/15
f 1/1/1 26/26/26 2/2/2
f 3/3/3 9/9/9 4/4/4
f 5/5/5 14/14/14 6/6/6
f 8/8/8 4/4/4 9/9/9
f 6/6/6 14/14/14 11/11/11
f 13/13/13 27/27/27 14/14/14
f 7/7/7 6/6/6 15/15/15
f 17/17/17 20/20/20 18/18/18
f 16/16/16 15/15/15 20/20/20
f 21/21/21 25/25/25 22/22/22
f 15/15/15 23/23/23 24/24/24
f 10/10/10 22/22/22 25/25/25
f 6/6/6 12/12/12 23/23/23
