# Cube -- imported by tools/import_asset_pack.py from fox.fbx
o __pending__
v 0.000000 0.120433 0.091643
v 0.080788 0.118732 0.042011
v 0.000000 0.132212 -0.025176
v 0.080788 -0.019540 0.026887
v 0.080788 0.110890 0.119786
v 0.080788 -0.033544 0.134910
v 0.000000 0.153548 0.189326
v 0.080788 0.144859 0.214172
v 0.080788 0.132937 0.184822
v 0.000000 -0.096506 0.114359
v 0.080788 -0.019540 0.026887
v 0.080788 -0.033544 0.134910
v 0.080788 0.114517 -0.042683
v 0.080788 0.118732 0.042011
v 0.080788 -0.007576 0.217311
v 0.000000 0.010045 0.310816
v 0.000000 -0.057502 0.238125
v 0.000000 0.010045 0.310816
v 0.062322 0.082659 0.310117
v 0.000000 0.080167 0.363034
v 0.080788 0.110890 0.119786
v 0.080788 -0.007576 0.217311
v 0.080788 0.132937 0.184822
v 0.080788 0.037395 0.265707
v 0.074899 0.157825 0.319200
v 0.103761 0.097833 0.327496
v 0.080788 0.144859 0.214172
v 0.000000 0.171455 0.233411
v 0.062322 0.178543 0.277670
v 0.000000 0.108264 0.389856
v 0.027709 0.109545 0.378595
v 0.000000 0.116095 0.409665
v 0.000000 0.210202 0.313347
v 0.036149 0.208397 0.339527
v 0.036149 0.222255 0.305655
v 0.062322 0.082659 0.310117
v 0.000000 0.080167 0.363034
v 0.015556 0.122650 0.444487
v 0.000000 0.123439 0.448994
v 0.027709 0.109545 0.378595
v 0.000000 0.198372 0.377395
v 0.027709 0.148610 0.372542
v 0.010201 0.143284 0.448454
v 0.000000 0.123439 0.448994
v 0.015556 0.122650 0.444487
v 0.015556 0.122650 0.444487
v 0.000000 0.174771 0.400574
v 0.010201 0.143284 0.448454
v -0.000000 -0.087692 -0.175945
v 0.080788 0.041189 -0.091395
v 0.080788 -0.027676 -0.058368
v 0.000000 -0.075473 -0.047892
v 0.080788 -0.027676 -0.058368
v 0.080788 0.114517 -0.042683
v -0.000000 0.125882 -0.152387
v -0.000000 0.015743 -0.225552
v 0.080788 0.079193 -0.098677
v 0.080788 0.079193 -0.098677
v -0.000000 0.072825 -0.236489
v 0.072777 -0.036297 0.175093
v 0.029545 -0.036587 0.193260
v 0.043462 -0.058656 0.175093
v 0.043462 -0.058656 0.175093
v 0.029545 -0.047314 0.114943
v 0.043604 -0.065348 0.109150
v 0.067884 -0.063265 0.109150
v 0.072770 -0.044967 0.114943
v 0.084415 -0.063265 0.109150
v 0.072770 -0.044967 0.114943
v 0.089309 -0.036297 0.175093
v 0.084415 -0.063265 0.109150
v 0.071565 -0.099572 0.101264
v 0.072347 -0.151225 0.120416
v 0.072347 -0.157449 0.091824
v 0.063391 -0.005211 0.193260
v 0.072770 -0.044967 0.114943
v 0.056380 -0.044967 0.114943
v 0.072347 -0.157449 0.091824
v 0.055750 -0.224068 0.119319
v 0.055750 -0.157449 0.091824
v 0.036330 -0.101046 0.101264
v 0.043925 -0.152221 0.120416
v 0.035859 -0.103677 0.138616
v 0.054705 -0.102156 0.138616
v 0.043925 -0.152221 0.120416
v 0.055750 -0.151225 0.120416
v 0.071565 -0.099572 0.101264
v 0.054705 -0.099572 0.101264
v 0.072347 -0.224068 0.119319
v 0.079766 -0.232073 0.142635
v 0.072347 -0.232419 0.119722
v 0.055750 -0.217844 0.141664
v 0.039154 -0.224068 0.119319
v 0.039154 -0.221994 0.142232
v 0.055750 -0.232073 0.142635
v 0.072347 -0.232419 0.119722
v 0.079766 -0.232073 0.142635
v 0.039154 -0.232073 0.142635
v 0.072347 -0.224068 0.119319
v 0.055750 -0.232419 0.119722
v 0.039154 -0.223860 0.157942
v 0.039154 -0.223860 0.157942
v 0.055750 -0.232695 0.161753
v 0.055750 -0.219711 0.157374
v 0.039154 -0.221994 0.142232
v 0.055750 -0.219711 0.157374
v 0.055750 -0.217844 0.141664
v 0.072347 -0.223860 0.157942
v 0.072347 -0.232695 0.161753
v 0.072347 -0.232695 0.161753
v 0.055750 -0.232695 0.161753
v 0.039154 -0.232695 0.161753
v 0.039154 -0.232073 0.142635
v 0.072347 -0.223860 0.157942
v 0.079766 -0.221994 0.142232
v 0.072347 -0.223860 0.157942
v 0.072347 -0.232695 0.161753
v 0.039154 -0.232419 0.119722
v 0.039154 -0.224068 0.119319
v 0.039154 -0.232419 0.119722
v 0.072347 -0.151225 0.120416
v 0.079766 -0.221994 0.142232
v 0.036330 -0.101046 0.101264
v 0.043924 -0.158445 0.091824
v 0.071565 -0.102156 0.138616
v 0.029545 -0.036587 0.193260
v 0.029545 -0.047314 0.114943
v 0.043604 -0.065348 0.109150
v 0.056380 -0.044967 0.114943
v 0.079781 -0.005211 0.193260
v 0.089309 -0.036297 0.175093
v 0.036560 0.026232 -0.027046
v 0.026605 -0.099335 -0.077599
v 0.063441 -0.096429 -0.076729
v 0.026605 -0.099335 -0.077599
v -0.000000 0.019764 -0.173784
v 0.027526 -0.108158 -0.178114
v 0.063441 -0.105278 -0.178114
v 0.069515 0.024485 -0.173784
v 0.096396 -0.105278 -0.178114
v 0.069515 0.024485 -0.173784
v 0.096396 -0.096429 -0.076729
v 0.096396 -0.105278 -0.178114
v 0.080527 -0.176851 -0.103832
v 0.080527 -0.183076 -0.132424
v 0.000000 0.021620 -0.028426
v -0.000000 0.038896 -0.138335
v -0.000000 0.019764 -0.173784
v 0.080527 -0.183076 -0.132424
v 0.063930 -0.210441 -0.116077
v 0.063930 -0.183076 -0.132424
v 0.052104 -0.177847 -0.103832
v 0.052104 -0.177847 -0.103832
v 0.063930 -0.176851 -0.103832
v 0.087946 -0.209404 -0.082752
v 0.080527 -0.218792 -0.115674
v 0.080527 -0.210441 -0.116077
v 0.063930 -0.205254 -0.083320
v 0.047333 -0.210441 -0.116077
v 0.047333 -0.209404 -0.082752
v 0.063930 -0.219483 -0.082349
v 0.080527 -0.218792 -0.115674
v 0.087946 -0.219483 -0.082349
v 0.047333 -0.218792 -0.115674
v 0.047333 -0.219483 -0.082349
v 0.080527 -0.210441 -0.116077
v 0.063930 -0.218792 -0.115674
v 0.047333 -0.211271 -0.067042
v 0.047333 -0.211271 -0.067042
v 0.063930 -0.220105 -0.063231
v 0.063930 -0.207121 -0.067610
v 0.047333 -0.209404 -0.082752
v 0.063930 -0.207121 -0.067610
v 0.063930 -0.205254 -0.083320
v 0.087946 -0.219483 -0.082349
v 0.080527 -0.211271 -0.067042
v 0.080527 -0.220105 -0.063231
v 0.080527 -0.220105 -0.063231
v 0.063930 -0.220105 -0.063231
v 0.047333 -0.220105 -0.063231
v 0.047333 -0.219483 -0.082349
v 0.080527 -0.211271 -0.067042
v 0.087946 -0.209404 -0.082752
v 0.080527 -0.211271 -0.067042
v 0.080527 -0.220105 -0.063231
v 0.047333 -0.218792 -0.115674
v 0.047333 -0.210441 -0.116077
v 0.047333 -0.218792 -0.115674
v 0.080527 -0.176851 -0.103832
v 0.087946 -0.209404 -0.082752
v 0.052104 -0.184072 -0.132424
v 0.027526 -0.108158 -0.178114
v 0.096396 -0.096429 -0.076729
v 0.069515 0.024485 -0.173784
v 0.051079 0.042194 -0.063499
v 0.069515 0.026232 -0.027046
v 0.036560 0.024485 -0.173784
v 0.069515 0.026232 -0.027046
v 0.071565 -0.102156 0.138616
v 0.035859 -0.103677 0.138616
v 0.034272 0.042194 -0.063499
v 0.051079 0.041304 -0.138335
v 0.034272 0.041304 -0.138335
v 0.000000 0.039843 -0.064203
v -0.000000 0.038896 -0.138335
v 0.036560 0.024485 -0.173784
v 0.051079 0.042194 -0.063499
v 0.034272 0.042194 -0.063499
v 0.000000 0.021620 -0.028426
v 0.000000 0.039843 -0.064203
v 0.052460 0.048552 -0.232929
v -0.000000 0.084759 -0.181347
v 0.052653 0.037134 -0.234500
v -0.000000 0.007302 -0.223448
v -0.000000 0.020113 -0.299434
v -0.000000 -0.040683 -0.280656
v -0.000000 -0.087211 -0.261306
v 0.032260 -0.067339 -0.305904
v 0.033833 -0.051005 -0.269872
v 0.052979 0.036267 -0.259386
v 0.052653 0.037134 -0.234500
v 0.053542 -0.006369 -0.252880
v -0.000000 -0.038949 -0.209891
v 0.033833 -0.051005 -0.269872
v 0.053724 -0.029304 -0.239819
v -0.000000 0.089052 -0.220719
v 0.052460 0.048552 -0.232929
v 0.052979 0.036267 -0.259386
v 0.053202 0.006238 -0.241032
v 0.053724 -0.029304 -0.239819
v 0.033701 -0.028381 -0.286560
v 0.032146 -0.047732 -0.320366
v -0.000000 -0.038949 -0.209891
v -0.000000 -0.087211 -0.261306
v -0.000000 0.028195 -0.200998
v 0.053202 0.006238 -0.241032
v -0.000000 0.028195 -0.200998
v -0.000000 0.020113 -0.299434
v 0.033470 0.001691 -0.304322
v -0.000000 -0.038949 -0.209891
v 0.033470 0.001691 -0.304322
v -0.000000 0.084759 -0.181347
v -0.000000 0.089052 -0.220719
v -0.000000 -0.068979 -0.339608
v -0.000000 -0.067506 -0.430408
v -0.000000 -0.105355 -0.429156
v -0.000000 -0.109304 -0.322837
v 0.054162 -0.099687 -0.370782
v 0.032260 -0.067339 -0.305904
v -0.000000 -0.031130 -0.340859
v -0.000000 -0.031130 -0.340859
v -0.000000 -0.109304 -0.322837
v 0.034180 -0.028156 -0.324912
v 0.053862 -0.081030 -0.369381
v 0.056661 -0.086996 -0.403992
v 0.055897 -0.061453 -0.373927
v -0.000000 -0.137091 -0.461145
v -0.000000 -0.140117 -0.437026
v 0.055897 -0.061453 -0.373927
v -0.000000 -0.067506 -0.430408
v -0.000000 -0.108397 -0.485416
v 0.054592 -0.096969 -0.408228
v -0.000000 -0.126091 -0.495047
v -0.000000 -0.137091 -0.461145
v 0.054359 -0.100012 -0.386066
v -0.000000 -0.140117 -0.437026
v 0.054359 -0.100012 -0.386066
v -0.000000 -0.108397 -0.485416
v -0.000000 -0.126091 -0.495047
v 0.056661 -0.086996 -0.403992
v -0.000000 -0.108397 -0.485416
v 0.076358 0.186630 0.308286
v 0.081203 0.253806 0.325712
v 0.036149 0.208397 0.339527
v 0.062322 0.178543 0.277670
v 0.076358 0.186630 0.308286
v 0.062322 0.178543 0.277670
v 0.036149 0.222255 0.305655
v 0.069606 0.197752 0.285991
v 0.036149 0.208397 0.339527
v 0.081203 0.256383 0.319413
v 0.088680 0.249758 0.319902
v 0.087425 0.251826 0.315756
v 0.036149 0.222255 0.305655
v 0.069606 0.197752 0.285991
v 0.069606 0.197752 0.285991
v 0.088680 0.249758 0.319902
v 0.036149 0.222255 0.305655
v 0.081203 0.253806 0.325712
v 0.081203 0.256383 0.319413
v -0.080788 0.118732 0.042011
v -0.080788 -0.019540 0.026887
v -0.080788 0.110890 0.119786
v -0.080788 0.118732 0.042011
v -0.080788 0.144859 0.214172
v -0.080788 0.132937 0.184822
v -0.080788 -0.019540 0.026887
v -0.080788 0.114517 -0.042683
v -0.080788 -0.007576 0.217311
v 0.000000 0.010045 0.310816
v -0.062322 0.082659 0.310117
v -0.080788 0.037395 0.265707
v -0.080788 0.110890 0.119786
v -0.080788 -0.007576 0.217311
v -0.080788 -0.033544 0.134910
v -0.080788 -0.033544 0.134910
v -0.080788 0.132937 0.184822
v -0.074899 0.157825 0.319200
v -0.062322 0.178543 0.277670
v -0.080788 0.144859 0.214172
v -0.062322 0.178543 0.277670
v -0.027709 0.109545 0.378595
v -0.103761 0.097833 0.327496
v -0.036149 0.208397 0.339527
v 0.000000 0.198372 0.377395
v -0.062322 0.082659 0.310117
v -0.015556 0.122650 0.444487
v -0.027709 0.109545 0.378595
v -0.103761 0.097833 0.327496
v -0.027709 0.148610 0.372542
v 0.000000 0.198372 0.377395
v -0.010201 0.143284 0.448454
v -0.015556 0.122650 0.444487
v -0.015556 0.122650 0.444487
v -0.010201 0.143284 0.448454
v 0.000000 0.174771 0.400574
v -0.080788 0.041189 -0.091395
v -0.000000 -0.087692 -0.175945
v -0.080788 -0.027676 -0.058368
v -0.080788 -0.027676 -0.058368
v -0.080788 0.114517 -0.042683
v -0.000000 0.015743 -0.225552
v -0.080788 0.079193 -0.098677
v -0.000000 0.072825 -0.236489
v -0.080788 0.079193 -0.098677
v -0.072777 -0.036297 0.175093
v -0.029545 -0.036587 0.193260
v -0.063391 -0.005211 0.193260
v -0.043461 -0.058656 0.175093
v -0.029545 -0.047314 0.114943
v -0.029545 -0.036587 0.193260
v -0.067884 -0.063265 0.109150
v -0.072770 -0.044967 0.114943
v -0.056380 -0.044967 0.114943
v -0.089309 -0.036297 0.175093
v -0.072770 -0.044967 0.114943
v -0.084415 -0.063265 0.109150
v -0.071565 -0.099572 0.101264
v -0.072347 -0.151225 0.120416
v -0.071565 -0.102156 0.138616
v -0.072770 -0.044967 0.114943
v -0.063391 -0.005211 0.193260
v -0.056380 -0.044967 0.114943
v -0.055750 -0.224068 0.119319
v -0.072347 -0.157449 0.091824
v -0.055750 -0.157449 0.091824
v -0.043924 -0.152221 0.120416
v -0.036330 -0.101046 0.101264
v -0.035859 -0.103677 0.138616
v -0.054705 -0.102156 0.138616
v -0.043924 -0.152221 0.120416
v -0.035859 -0.103677 0.138616
v -0.071565 -0.099572 0.101264
v -0.054705 -0.099572 0.101264
v -0.072347 -0.224068 0.119319
v -0.079766 -0.232073 0.142635
v -0.079766 -0.221993 0.142232
v -0.055750 -0.217844 0.141664
v -0.055750 -0.151225 0.120416
v -0.072347 -0.157449 0.091824
v -0.039154 -0.224068 0.119319
v -0.043924 -0.158445 0.091824
v -0.055750 -0.232073 0.142635
v -0.072347 -0.232418 0.119722
v -0.055750 -0.232418 0.119722
v -0.039154 -0.232073 0.142635
v -0.039154 -0.221993 0.142232
v -0.055750 -0.232418 0.119722
v -0.072347 -0.224068 0.119319
v -0.039154 -0.223860 0.157942
v -0.055750 -0.232695 0.161753
v -0.039154 -0.223860 0.157942
v -0.055750 -0.219711 0.157374
v -0.055750 -0.219711 0.157374
v -0.039154 -0.221993 0.142232
v -0.055750 -0.217844 0.141664
v -0.072347 -0.223860 0.157942
v -0.072347 -0.232695 0.161753
v -0.079766 -0.232073 0.142635
v -0.039154 -0.232695 0.161753
v -0.039154 -0.232073 0.142635
v -0.072347 -0.223860 0.157942
v -0.079766 -0.221993 0.142232
v -0.072347 -0.223860 0.157942
v -0.039154 -0.232418 0.119722
v -0.039154 -0.224068 0.119319
v -0.039154 -0.232418 0.119722
v -0.072347 -0.151225 0.120416
v -0.036330 -0.101046 0.101264
v -0.071565 -0.102156 0.138616
v -0.043924 -0.158445 0.091824
v -0.029545 -0.036587 0.193260
v -0.029545 -0.047314 0.114943
v -0.043604 -0.065348 0.109150
v -0.029545 -0.047314 0.114943
v -0.079781 -0.005211 0.193260
v -0.089309 -0.036297 0.175093
v -0.026605 -0.099335 -0.077599
v -0.036560 0.026232 -0.027046
v -0.063441 -0.096429 -0.076729
v -0.026605 -0.099335 -0.077599
v -0.000000 0.019764 -0.173784
v 0.000000 0.021620 -0.028426
v -0.063441 -0.105278 -0.178114
v -0.069515 0.024485 -0.173784
v -0.036560 0.024485 -0.173784
v -0.096396 -0.096429 -0.076729
v -0.069515 0.024485 -0.173784
v -0.096396 -0.105278 -0.178114
v -0.080527 -0.176851 -0.103832
v -0.063930 -0.210441 -0.116077
v -0.080527 -0.183076 -0.132424
v -0.063930 -0.183076 -0.132424
v -0.052104 -0.177847 -0.103832
v -0.027526 -0.108158 -0.178114
v -0.052104 -0.177847 -0.103832
v -0.096396 -0.105278 -0.178114
v -0.080527 -0.218792 -0.115674
v -0.087946 -0.209404 -0.082752
v -0.080527 -0.210441 -0.116077
v -0.063930 -0.205254 -0.083320
v -0.063930 -0.176851 -0.103832
v -0.080527 -0.183076 -0.132424
v -0.047333 -0.210441 -0.116077
v -0.052104 -0.184072 -0.132424
v -0.063930 -0.219483 -0.082349
v -0.080527 -0.218792 -0.115674
v -0.063930 -0.218792 -0.115674
v -0.047333 -0.209404 -0.082752
v -0.047333 -0.218792 -0.115674
v -0.063930 -0.218792 -0.115674
v -0.080527 -0.210441 -0.116077
v -0.047333 -0.211271 -0.067042
v -0.047333 -0.219483 -0.082349
v -0.063930 -0.220105 -0.063231
v -0.047333 -0.211271 -0.067042
v -0.063930 -0.207121 -0.067610
v -0.063930 -0.207121 -0.067610
v -0.047333 -0.209404 -0.082752
v -0.063930 -0.205254 -0.083320
v -0.087946 -0.219483 -0.082349
v -0.080527 -0.211271 -0.067042
v -0.080527 -0.220105 -0.063231
v -0.087946 -0.219483 -0.082349
v -0.047333 -0.220105 -0.063231
v -0.047333 -0.219483 -0.082349
v -0.080527 -0.211271 -0.067042
v -0.087946 -0.209404 -0.082752
v -0.080527 -0.211271 -0.067042
v -0.047333 -0.218792 -0.115674
v -0.047333 -0.210441 -0.116077
v -0.047333 -0.218792 -0.115674
v -0.080527 -0.176851 -0.103832
v -0.052104 -0.184072 -0.132424
v -0.027526 -0.108158 -0.178114
v -0.096396 -0.096429 -0.076729
v -0.051079 0.042194 -0.063499
v -0.069515 0.024485 -0.173784
v -0.069515 0.026232 -0.027046
v -0.000000 0.019764 -0.173784
v -0.069515 0.026232 -0.027046
v -0.043604 -0.065348 0.109150
v -0.043461 -0.058656 0.175093
v -0.051079 0.041304 -0.138335
v -0.034272 0.042194 -0.063499
v -0.034272 0.041304 -0.138335
v 0.000000 0.039843 -0.064203
v -0.000000 0.038896 -0.138335
v -0.036560 0.024485 -0.173784
v -0.000000 0.019764 -0.173784
v -0.051079 0.042194 -0.063499
v 0.000000 0.021620 -0.028426
v -0.034272 0.042194 -0.063499
v -0.000000 0.084759 -0.181347
v -0.052460 0.048552 -0.232929
v -0.052653 0.037134 -0.234500
v -0.032260 -0.067339 -0.305904
v -0.000000 -0.087211 -0.261306
v -0.033833 -0.051005 -0.269872
v -0.052979 0.036267 -0.259386
v -0.053542 -0.006369 -0.252880
v -0.000000 -0.038949 -0.209891
v -0.033833 -0.051005 -0.269872
v -0.000000 -0.087211 -0.261306
v -0.000000 0.089052 -0.220719
v -0.052460 0.048552 -0.232929
v -0.000000 0.105863 -0.175409
v -0.053202 0.006238 -0.241032
v -0.053724 -0.029304 -0.239819
v -0.033701 -0.028381 -0.286560
v -0.000000 0.028195 -0.200998
v -0.052653 0.037134 -0.234500
v -0.053202 0.006238 -0.241032
v -0.000000 0.020113 -0.299434
v -0.052979 0.036267 -0.259386
v -0.000000 -0.038949 -0.209891
v -0.033470 0.001691 -0.304322
v -0.054162 -0.099687 -0.370782
v -0.000000 -0.109304 -0.322837
v -0.032260 -0.067339 -0.305904
v -0.000000 -0.031130 -0.340859
v -0.033470 0.001691 -0.304322
v -0.034180 -0.028156 -0.324912
v -0.056661 -0.086996 -0.403992
v -0.053862 -0.081030 -0.369381
v -0.055897 -0.061453 -0.373927
v -0.055897 -0.061453 -0.373927
v -0.034180 -0.028156 -0.324912
v -0.032146 -0.047732 -0.320366
v -0.054592 -0.096969 -0.408228
v -0.000000 -0.108397 -0.485416
v -0.000000 -0.126091 -0.495047
v -0.000000 -0.137091 -0.461145
v -0.054592 -0.096969 -0.408228
v -0.000000 -0.126091 -0.495047
v -0.054359 -0.100012 -0.386066
v -0.054162 -0.099687 -0.370782
v -0.054359 -0.100012 -0.386066
v -0.000000 -0.140117 -0.437026
v -0.000000 -0.067506 -0.430408
v -0.056661 -0.086996 -0.403992
v -0.081203 0.253806 0.325712
v -0.076358 0.186630 0.308286
v -0.036149 0.208397 0.339527
v -0.076358 0.186630 0.308286
v -0.062322 0.178543 0.277670
v -0.036149 0.222255 0.305655
v 0.000000 0.210202 0.313347
v -0.036149 0.208397 0.339527
v -0.088680 0.249758 0.319902
v -0.081203 0.256383 0.319413
v -0.087425 0.251826 0.315756
v -0.087425 0.251826 0.315756
v -0.036149 0.222255 0.305655
v -0.069606 0.197752 0.285991
v -0.069606 0.197752 0.285991
v -0.036149 0.222255 0.305655
v -0.081203 0.253806 0.325712
v -0.036149 0.208397 0.339527
v 0.080788 0.037395 0.265707
v 0.000000 0.210202 0.313347
v 0.103761 0.097833 0.327496
v 0.000000 0.154433 0.454953
v 0.000000 0.154433 0.454953
v -0.000000 -0.087692 -0.175945
v -0.000000 0.072825 -0.236489
v 0.063391 -0.005211 0.193260
v 0.029545 -0.036587 0.193260
v 0.079781 -0.005211 0.193260
v 0.079781 -0.005211 0.193260
v 0.043924 -0.158445 0.091824
v 0.079766 -0.221994 0.142232
v 0.039154 -0.221994 0.142232
v 0.055750 -0.232419 0.119722
v 0.039154 -0.232419 0.119722
v 0.072347 -0.232419 0.119722
v 0.039154 -0.232695 0.161753
v 0.039154 -0.232695 0.161753
v 0.039154 -0.223860 0.157942
v 0.029545 -0.047314 0.114943
v 0.000000 0.021620 -0.028426
v 0.069515 0.026232 -0.027046
v 0.000000 0.039843 -0.064203
v 0.052104 -0.184072 -0.132424
v 0.047333 -0.209404 -0.082752
v 0.063930 -0.218792 -0.115674
v 0.080527 -0.218792 -0.115674
v 0.047333 -0.220105 -0.063231
v 0.047333 -0.220105 -0.063231
v 0.047333 -0.211271 -0.067042
v -0.000000 0.019764 -0.173784
v -0.000000 0.019764 -0.173784
v -0.000000 0.105863 -0.175409
v -0.000000 -0.109304 -0.322837
v 0.052460 0.048552 -0.232929
v -0.000000 -0.087211 -0.261306
v -0.000000 0.105863 -0.175409
v 0.053724 -0.029304 -0.239819
v -0.000000 0.105863 -0.175409
v 0.034180 -0.028156 -0.324912
v 0.054162 -0.099687 -0.370782
v -0.000000 -0.137091 -0.461145
v 0.088680 0.249758 0.319902
v 0.000000 0.210202 0.313347
v 0.081203 0.253806 0.325712
v 0.087425 0.251826 0.315756
v 0.036149 0.208397 0.339527
v -0.080788 0.037395 0.265707
v 0.000000 0.080167 0.363034
v -0.036149 0.222255 0.305655
v 0.000000 0.154433 0.454953
v -0.084415 -0.063265 0.109150
v -0.079781 -0.005211 0.193260
v -0.079781 -0.005211 0.193260
v -0.072347 -0.232418 0.119722
v -0.039154 -0.221993 0.142232
v -0.039154 -0.232418 0.119722
v -0.072347 -0.232418 0.119722
v -0.039154 -0.232695 0.161753
v -0.039154 -0.232695 0.161753
v -0.039154 -0.223860 0.157942
v -0.072347 -0.232695 0.161753
v -0.055750 -0.232695 0.161753
v -0.072347 -0.232695 0.161753
v -0.079766 -0.221993 0.142232
v -0.069515 0.026232 -0.027046
v -0.047333 -0.209404 -0.082752
v -0.080527 -0.218792 -0.115674
v -0.047333 -0.220105 -0.063231
v -0.047333 -0.220105 -0.063231
v -0.047333 -0.211271 -0.067042
v -0.080527 -0.220105 -0.063231
v -0.063930 -0.220105 -0.063231
v -0.080527 -0.220105 -0.063231
v -0.087946 -0.209404 -0.082752
v 0.000000 0.039843 -0.064203
v -0.000000 0.105863 -0.175409
v -0.000000 -0.109304 -0.322837
v -0.053724 -0.029304 -0.239819
v -0.000000 0.084759 -0.181347
v -0.053724 -0.029304 -0.239819
v -0.000000 -0.108397 -0.485416
v -0.088680 0.249758 0.319902
v -0.069606 0.197752 0.285991
v -0.081203 0.253806 0.325712
v -0.081203 0.256383 0.319413
v -0.081203 0.256383 0.319413
vt 0.508030 0.794922
vt 0.576613 0.755938
vt 0.508030 0.708686
vt 0.370785 0.583544
vt 0.293236 0.695039
vt 0.412959 0.665790
vt 0.508030 0.882064
vt 0.576613 0.898242
vt 0.576613 0.871369
vt 0.654977 0.822024
vt 0.586395 0.752871
vt 0.586395 0.843426
vt 0.243733 0.566351
vt 0.264661 0.635182
vt 0.586395 0.914833
vt 0.654977 0.995109
vt 0.654977 0.929277
vt 0.429666 0.815857
vt 0.360045 0.837497
vt 0.378589 0.887391
vt 0.576613 0.813352
vt 0.415850 0.739015
vt 0.294278 0.753277
vt 0.393806 0.790524
vt 0.300866 0.863444
vt 0.352570 0.858556
vt 0.293173 0.780123
vt 0.508030 0.922427
vt 0.560937 0.946632
vt 0.088420 0.101494
vt 0.062208 0.099706
vt 0.096289 0.120443
vt 0.963388 0.856249
vt 0.994076 0.876192
vt 0.994076 0.847325
vt 0.007871 0.045469
vt 0.077813 0.075949
vt 0.097943 0.158863
vt 0.111932 0.158116
vt 0.358715 0.910289
vt 0.285809 0.927573
vt 0.324854 0.912825
vt 0.912514 0.589891
vt 0.929237 0.597216
vt 0.927089 0.584141
vt 0.367634 0.978284
vt 0.312048 0.945463
vt 0.351941 0.986562
vt 0.368117 0.399230
vt 0.288340 0.506476
vt 0.352829 0.513143
vt 0.654977 0.686010
vt 0.586395 0.680183
vt 0.576613 0.688953
vt 0.508030 0.608076
vt 0.271255 0.389215
vt 0.255890 0.511535
vt 0.576613 0.633285
vt 0.508030 0.524462
vt 0.920824 0.751988
vt 0.957525 0.745348
vt 0.945711 0.734728
vt 0.451756 0.215010
vt 0.503641 0.216294
vt 0.506123 0.200506
vt 0.908903 0.979673
vt 0.913822 0.994386
vt 0.922918 0.978944
vt 0.141557 0.336349
vt 0.191509 0.351101
vt 0.139127 0.320624
vt 0.144571 0.276984
vt 0.167102 0.222901
vt 0.143802 0.214342
vt 0.931196 0.130001
vt 0.939157 0.055516
vt 0.925244 0.055516
vt 0.907275 0.875499
vt 0.891512 0.843718
vt 0.893205 0.876232
vt 0.499499 0.157798
vt 0.475946 0.104630
vt 0.467837 0.160627
vt 0.936166 0.699668
vt 0.945318 0.656353
vt 0.935279 0.657122
vt 0.909766 0.936148
vt 0.895473 0.936892
vt 0.166219 0.186323
vt 0.186939 0.182518
vt 0.167536 0.179352
vt 0.935279 0.623652
vt 0.476176 0.068821
vt 0.457253 0.073650
vt 0.536293 0.050722
vt 0.522204 0.031303
vt 0.515906 0.050722
vt 0.455555 0.065257
vt 0.905583 0.842985
vt 0.891144 0.836641
vt 0.443834 0.074205
vt 0.780353 0.170149
vt 0.772187 0.184238
vt 0.783757 0.184238
vt 0.563205 0.470421
vt 0.575716 0.456331
vt 0.564218 0.456331
vt 0.198653 0.190993
vt 0.202892 0.184011
vt 0.522204 0.066866
vt 0.536293 0.066866
vt 0.550383 0.066866
vt 0.550383 0.050722
vt 0.574704 0.442242
vt 0.563205 0.435944
vt 0.780353 0.198327
vt 0.772187 0.198327
vt 0.877074 0.837373
vt 0.877442 0.844450
vt 0.550383 0.031303
vt 0.921189 0.657122
vt 0.914891 0.620248
vt 0.879831 0.936460
vt 0.883135 0.875913
vt 0.921854 0.699668
vt 0.902462 0.119024
vt 0.902462 0.054694
vt 0.888227 0.978987
vt 0.899927 0.995109
vt 0.914879 0.769568
vt 0.906790 0.751988
vt 0.784138 0.744370
vt 0.792589 0.665296
vt 0.761318 0.667232
vt 0.260762 0.261182
vt 0.345783 0.359173
vt 0.345783 0.250745
vt 0.766110 0.881543
vt 0.792030 0.987750
vt 0.793572 0.876200
vt 0.801476 0.562395
vt 0.887268 0.462603
vt 0.801477 0.452904
vt 0.865639 0.393397
vt 0.841528 0.387499
vt 0.222515 0.365027
vt 0.316271 0.376448
vt 0.345783 0.359173
vt 0.767041 0.810386
vt 0.748526 0.788998
vt 0.753211 0.813077
vt 0.280792 0.194010
vt 0.770942 0.613954
vt 0.760903 0.614723
vt 0.884458 0.366426
vt 0.856537 0.357564
vt 0.856007 0.364639
vt 0.760903 0.585552
vt 0.290207 0.165959
vt 0.261964 0.167820
vt 0.897461 0.809982
vt 0.883372 0.781815
vt 0.877074 0.809982
vt 0.289619 0.158887
vt 0.261325 0.159281
vt 0.762356 0.786307
vt 0.747172 0.782042
vt 0.248580 0.166699
vt 0.780353 0.132188
vt 0.772187 0.146277
vt 0.783757 0.146277
vt 0.575716 0.391684
vt 0.563205 0.405774
vt 0.574704 0.405774
vt 0.885027 0.357885
vt 0.897616 0.364995
vt 0.901046 0.357584
vt 0.883372 0.826126
vt 0.897461 0.826126
vt 0.911551 0.826126
vt 0.911551 0.809982
vt 0.564218 0.419863
vt 0.575716 0.426161
vt 0.780353 0.160366
vt 0.772187 0.160366
vt 0.733342 0.784733
vt 0.734695 0.791689
vt 0.911551 0.781815
vt 0.746814 0.614723
vt 0.740515 0.582148
vt 0.743196 0.814169
vt 0.735718 0.884979
vt 0.733342 0.667232
vt 0.336626 0.149105
vt 0.245127 0.133453
vt 0.222515 0.149105
vt 0.764568 0.993094
vt 0.756162 0.744370
vt 0.176264 0.279160
vt 0.952165 0.698493
vt 0.245127 0.119186
vt 0.303323 0.133453
vt 0.303323 0.119186
vt 0.246494 0.090092
vt 0.304165 0.090092
vt 0.336626 0.121128
vt 0.771813 0.769568
vt 0.786081 0.769568
vt 0.815175 0.741298
vt 0.815175 0.768002
vt 0.803466 0.106789
vt 0.848150 0.115809
vt 0.803172 0.098533
vt 0.631490 0.484335
vt 0.678774 0.439131
vt 0.627876 0.421051
vt 0.527054 0.430301
vt 0.492249 0.408769
vt 0.497090 0.442029
vt 0.439448 0.490187
vt 0.450240 0.508338
vt 0.472890 0.475333
vt 0.407109 0.108285
vt 0.355565 0.137007
vt 0.382386 0.153892
vt 0.747637 0.526131
vt 0.791694 0.501638
vt 0.791643 0.476873
vt 0.469317 0.489551
vt 0.495263 0.474164
vt 0.473276 0.440468
vt 0.471611 0.407416
vt 0.593138 0.470085
vt 0.586395 0.410603
vt 0.847566 0.079091
vt 0.802363 0.077000
vt 0.634311 0.510216
vt 0.745951 0.441144
vt 0.774155 0.430357
vt 0.846792 0.030406
vt 0.443648 0.441546
vt 0.662824 0.552298
vt 0.685729 0.527685
vt 0.638544 0.366574
vt 0.685633 0.305535
vt 0.659244 0.287176
vt 0.646686 0.197372
vt 0.590574 0.173632
vt 0.625926 0.222032
vt 0.664932 0.384933
vt 0.744959 0.391185
vt 0.602594 0.357519
vt 0.455530 0.413209
vt 0.472823 0.357994
vt 0.461204 0.330658
vt 0.456742 0.363787
vt 0.653886 0.249301
vt 0.639586 0.264177
vt 0.791684 0.354066
vt 0.743333 0.309211
vt 0.439448 0.260607
vt 0.466398 0.322990
vt 0.447675 0.245631
vt 0.471076 0.264798
vt 0.478733 0.337410
vt 0.616091 0.103612
vt 0.586395 0.161364
vt 0.685729 0.247349
vt 0.678578 0.231814
vt 0.791694 0.321868
vt 0.742205 0.252369
vt 0.536836 0.318759
vt 0.543255 0.365604
vt 0.571354 0.316623
vt 0.271724 0.826220
vt 0.273968 0.858947
vt 0.536836 0.450123
vt 0.553423 0.488832
vt 0.553423 0.454175
vt 0.265885 0.893374
vt 0.945332 0.833585
vt 0.950966 0.836832
vt 0.952495 0.833585
vt 0.932700 0.790757
vt 0.971222 0.790757
vt 0.258324 0.838964
vt 0.225425 0.884769
vt 0.966512 0.241077
vt 0.934422 0.230666
vt 0.934422 0.237622
vt 0.439448 0.755938
vt 0.062377 0.580259
vt 0.139751 0.692027
vt 0.168424 0.632183
vt 0.439448 0.898242
vt 0.439448 0.871369
vt 0.723560 0.752871
vt 0.189465 0.563339
vt 0.723560 0.914833
vt 0.004891 0.815508
vt 0.073112 0.835112
vt 0.039019 0.787367
vt 0.439448 0.813352
vt 0.017057 0.735762
vt 0.020067 0.662481
vt 0.723560 0.843426
vt 0.138614 0.750312
vt 0.131977 0.860770
vt 0.161457 0.824026
vt 0.139675 0.777185
vt 0.455124 0.946632
vt 0.105657 0.081665
vt 0.122335 0.017368
vt 0.932700 0.876192
vt 0.963388 0.910020
vt 0.105594 0.004891
vt 0.122335 0.148734
vt 0.075085 0.909200
vt 0.080278 0.855761
vt 0.108944 0.911815
vt 0.148577 0.927648
vt 0.913923 0.607154
vt 0.929237 0.610466
vt 0.066322 0.977666
vt 0.082120 0.986176
vt 0.122307 0.945494
vt 0.144952 0.503310
vt 0.067118 0.398659
vt 0.080448 0.509837
vt 0.723560 0.680183
vt 0.439448 0.688953
vt 0.164003 0.388855
vt 0.177395 0.508447
vt 0.212733 0.396571
vt 0.439448 0.633285
vt 0.175828 0.151989
vt 0.139127 0.145349
vt 0.167860 0.169570
vt 0.749843 0.221250
vt 0.698261 0.223033
vt 0.762405 0.242587
vt 0.529921 0.220413
vt 0.525002 0.235126
vt 0.538896 0.235849
vt 0.814966 0.966777
vt 0.864601 0.952602
vt 0.867291 0.936450
vt 0.861608 0.893251
vt 0.839128 0.839117
vt 0.829899 0.895435
vt 0.938652 0.920624
vt 0.946613 0.995109
vt 0.952566 0.920624
vt 0.547311 0.084458
vt 0.531549 0.116239
vt 0.545619 0.116971
vt 0.725782 0.110909
vt 0.702331 0.164322
vt 0.733986 0.167171
vt 0.160486 0.099670
vt 0.151334 0.056354
vt 0.144487 0.098495
vt 0.529057 0.176888
vt 0.543351 0.177632
vt 0.840041 0.802520
vt 0.819472 0.798451
vt 0.820986 0.806879
vt 0.161374 0.023653
vt 0.161374 0.057123
vt 0.862444 0.830548
vt 0.725690 0.075292
vt 0.702677 0.101837
vt 0.949765 0.550906
vt 0.963855 0.531487
vt 0.949765 0.531487
vt 0.746306 0.071733
vt 0.744600 0.080122
vt 0.547679 0.077381
vt 0.533241 0.083725
vt 0.758013 0.080678
vt 0.199645 0.155480
vt 0.207810 0.169570
vt 0.211214 0.155480
vt 0.575716 0.494292
vt 0.563205 0.480203
vt 0.564218 0.494292
vt 0.807588 0.807199
vt 0.963855 0.567050
vt 0.970153 0.550906
vt 0.935676 0.567050
vt 0.935676 0.550906
vt 0.574704 0.508382
vt 0.563205 0.514680
vt 0.207810 0.141391
vt 0.561750 0.078113
vt 0.561382 0.085190
vt 0.935676 0.531487
vt 0.175463 0.057123
vt 0.558993 0.177200
vt 0.174799 0.099670
vt 0.555688 0.116653
vt 0.975347 0.984132
vt 0.975347 0.919803
vt 0.550596 0.219727
vt 0.561750 0.235053
vt 0.181774 0.169570
vt 0.189862 0.151989
vt 0.837760 0.665296
vt 0.846211 0.744370
vt 0.869031 0.667232
vt 0.886409 0.242885
vt 0.801477 0.341288
vt 0.924640 0.347782
vt 0.383027 0.265867
vt 0.357107 0.372074
vt 0.384569 0.377418
vt 0.043568 0.273409
vt 0.129345 0.373530
vt 0.129345 0.263095
vt 0.064392 0.204556
vt 0.400612 0.173322
vt 0.382096 0.194710
vt 0.395926 0.197401
vt 0.866182 0.174777
vt 0.801477 0.231977
vt 0.859407 0.613954
vt 0.355565 0.260524
vt 0.073279 0.168645
vt 0.045582 0.177460
vt 0.073852 0.175718
vt 0.869447 0.585552
vt 0.869447 0.614723
vt 0.088479 0.198484
vt 0.857065 0.146849
vt 0.842159 0.168532
vt 0.948512 0.331637
vt 0.962601 0.303470
vt 0.948512 0.303470
vt 0.885280 0.148857
vt 0.857696 0.139783
vt 0.401965 0.166366
vt 0.386782 0.170631
vt 0.898664 0.147806
vt 0.885972 0.140325
vt 0.416891 0.139803
vt 0.425057 0.153892
vt 0.428461 0.139803
vt 0.784698 0.222199
vt 0.772187 0.208110
vt 0.773199 0.222199
vt 0.044961 0.168920
vt 0.032225 0.176372
vt 0.962601 0.347782
vt 0.968899 0.331637
vt 0.934422 0.347782
vt 0.934422 0.331637
vt 0.783685 0.236288
vt 0.772187 0.242587
vt 0.425057 0.125714
vt 0.415795 0.169057
vt 0.414442 0.176013
vt 0.934422 0.303470
vt 0.883536 0.614723
vt 0.405941 0.198493
vt 0.413419 0.269303
vt 0.897008 0.667232
vt 0.245127 0.046730
vt 0.336626 0.031079
vt 0.222515 0.031079
vt 0.415795 0.379433
vt 0.874188 0.744370
vt 0.695511 0.206742
vt 0.150941 0.134730
vt 0.303323 0.046730
vt 0.245127 0.060998
vt 0.303323 0.060998
vt 0.246494 0.090092
vt 0.304165 0.090092
vt 0.336626 0.059055
vt 0.338277 0.090092
vt 0.858537 0.769568
vt 0.815175 0.741298
vt 0.844269 0.769568
vt 0.662824 0.552298
vt 0.663929 0.498684
vt 0.656956 0.491819
vt 0.622282 0.390258
vt 0.586395 0.410603
vt 0.615095 0.423063
vt 0.668994 0.474444
vt 0.636677 0.457229
vt 0.407109 0.108285
vt 0.355565 0.079563
vt 0.360514 0.108285
vt 0.747637 0.526131
vt 0.702643 0.503405
vt 0.748449 0.567050
vt 0.639244 0.471691
vt 0.614440 0.454476
vt 0.638960 0.423191
vt 0.847566 0.079091
vt 0.892556 0.097111
vt 0.892680 0.075564
vt 0.745951 0.441144
vt 0.701711 0.478657
vt 0.846792 0.030406
vt 0.668439 0.426368
vt 0.677997 0.145105
vt 0.646686 0.197372
vt 0.677997 0.205041
vt 0.744959 0.391185
vt 0.717340 0.431484
vt 0.658575 0.397206
vt 0.658488 0.313471
vt 0.645004 0.340059
vt 0.660614 0.346896
vt 0.696799 0.355948
vt 0.716214 0.405134
vt 0.642965 0.390368
vt 0.653869 0.305532
vt 0.685729 0.247349
vt 0.678578 0.231814
vt 0.609817 0.084385
vt 0.668563 0.115021
vt 0.601131 0.057766
vt 0.640552 0.319068
vt 0.633017 0.329635
vt 0.674135 0.132733
vt 0.616091 0.103612
vt 0.743333 0.309211
vt 0.695511 0.323777
vt 0.564935 0.306444
vt 0.571354 0.259599
vt 0.536836 0.257463
vt 0.158851 0.856278
vt 0.553423 0.375783
vt 0.536836 0.414492
vt 0.553423 0.440340
vt 0.167763 0.892181
vt 0.207086 0.881795
vt 0.212733 0.882773
vt 0.210029 0.878127
vt 0.953149 0.293688
vt 0.972944 0.250859
vt 0.934422 0.250859
vt 0.174677 0.836553
vt 0.934422 0.193886
vt 0.964765 0.184250
vt 0.934422 0.156489
vt 0.586395 0.958662
vt 0.508030 0.995109
vt 0.004891 0.066135
vt 0.906790 0.599047
vt 0.344850 0.995109
vt 0.654977 0.576832
vt 0.222515 0.396814
vt 0.928792 0.769568
vt 0.439448 0.235849
vt 0.202892 0.379073
vt 0.945109 0.130001
vt 0.499070 0.095557
vt 0.185418 0.190942
vt 0.949368 0.620248
vt 0.536293 0.031303
vt 0.474712 0.061877
vt 0.905214 0.835908
vt 0.439448 0.067315
vt 0.772187 0.170149
vt 0.574704 0.470421
vt 0.877074 0.994313
vt 0.222515 0.365027
vt 0.925894 0.567050
vt 0.253405 0.379433
vt 0.304867 0.187888
vt 0.774992 0.582148
vt 0.897461 0.781815
vt 0.761002 0.779351
vt 0.245087 0.159316
vt 0.772187 0.132188
vt 0.564218 0.391684
vt 0.733342 0.995109
vt 0.338277 0.090092
vt 0.848376 0.130001
vt 0.514629 0.376259
vt 0.442803 0.514680
vt 0.360514 0.108285
vt 0.748449 0.567050
vt 0.801476 0.049146
vt 0.674170 0.567050
vt 0.774235 0.403983
vt 0.485509 0.348463
vt 0.609817 0.084385
vt 0.536836 0.366001
vt 0.536836 0.514680
vt 0.941705 0.837543
vt 0.222515 0.881053
vt 0.966512 0.203669
vt 0.723560 0.958662
vt 0.055856 0.887221
vt 0.932700 0.847325
vt 0.089423 0.995109
vt 0.515906 0.219684
vt 0.803354 0.995109
vt 0.932700 0.995109
vt 0.838728 0.795546
vt 0.147284 0.020249
vt 0.727161 0.068352
vt 0.533609 0.076648
vt 0.762405 0.073792
vt 0.199645 0.169570
vt 0.574704 0.480203
vt 0.803354 0.800216
vt 0.949765 0.567050
vt 0.199645 0.141391
vt 0.181761 0.020249
vt 0.004891 0.379073
vt 0.855357 0.582148
vt 0.388135 0.163675
vt 0.902201 0.140444
vt 0.416891 0.153892
vt 0.783685 0.208110
vt 0.028747 0.168982
vt 0.948512 0.347782
vt 0.416891 0.125714
vt 0.889834 0.582148
vt 0.815175 0.768002
vt 0.674170 0.567050
vt 0.602594 0.357519
vt 0.382386 0.062677
vt 0.848150 0.115809
vt 0.892680 0.047696
vt 0.742205 0.252369
vt 0.571354 0.306841
vt 0.536836 0.379836
vt 0.208743 0.888471
vt 0.960313 0.293688
vt 0.964765 0.191204
vn -0.000000 0.997619 -0.068962
vn 0.731754 0.680396 0.039967
vn -0.000000 0.999974 -0.007280
vn 0.906588 -0.421259 -0.025297
vn 0.808882 0.580945 -0.090625
vn 0.867896 -0.492720 0.063117
vn -0.000000 0.936275 -0.351267
vn 0.799654 0.581650 -0.149121
vn 0.785155 0.580947 -0.214553
vn 0.000000 -0.998355 0.057340
vn 0.906588 -0.421259 -0.025297
vn 0.867896 -0.492720 0.063117
vn 0.772347 0.627216 -0.100399
vn 0.731754 0.680396 0.039967
vn 0.853160 -0.447798 0.267574
vn 0.000000 -0.654369 0.756175
vn 0.000000 -0.868916 0.494960
vn 0.000000 -0.654369 0.756175
vn 0.815513 -0.472694 0.333914
vn 0.000000 -0.657409 0.753534
vn 0.808882 0.580945 -0.090625
vn 0.853160 -0.447798 0.267574
vn 0.785155 0.580947 -0.214553
vn 0.870584 -0.276015 0.407307
vn 0.970568 0.131133 0.201994
vn 0.947505 -0.319558 -0.010812
vn 0.799654 0.581650 -0.149121
vn -0.000000 0.912572 -0.408917
vn 0.713976 0.472526 -0.516679
vn 0.000000 -0.882093 0.471076
vn 0.618696 -0.499629 0.606289
vn 0.000000 -0.972737 0.231910
vn -0.000000 0.979304 -0.202394
vn 0.248223 0.649365 0.718826
vn -0.427364 0.783550 -0.451010
vn 0.815513 -0.472694 0.333914
vn 0.000000 -0.657409 0.753534
vn 0.638701 -0.520911 0.566315
vn -0.000000 -0.633817 0.773483
vn 0.618696 -0.499629 0.606289
vn 0.000000 0.719292 0.694708
vn 0.822113 0.259660 0.506663
vn 0.753179 0.210140 0.623348
vn -0.000000 -0.633817 0.773483
vn 0.638701 -0.520911 0.566315
vn 0.638701 -0.520911 0.566315
vn -0.000000 0.855365 0.518025
vn 0.753179 0.210140 0.623348
vn -0.000000 -0.802232 -0.597012
vn 0.958192 -0.092317 -0.270823
vn 0.873662 -0.475124 -0.104749
vn 0.000000 -0.999506 0.031424
vn 0.873662 -0.475124 -0.104749
vn 0.772347 0.627216 -0.100399
vn -0.000000 0.910223 -0.414118
vn -0.000000 -0.304968 -0.952362
vn 0.906703 0.256124 -0.335098
vn 0.906703 0.256124 -0.335098
vn 0.000000 0.306780 -0.951781
vn 0.159259 -0.483556 0.860703
vn -0.697998 0.059464 0.713627
vn -0.293111 -0.677342 0.674755
vn -0.293111 -0.677342 0.674755
vn -0.803507 0.309870 -0.508288
vn -0.603565 0.124421 -0.787546
vn -0.007805 0.257130 -0.966345
vn 0.334437 0.657216 -0.675440
vn 0.751273 0.137011 -0.645614
vn 0.334437 0.657216 -0.675440
vn 0.849802 -0.129370 0.510979
vn 0.751273 0.137011 -0.645614
vn 0.656831 0.046180 -0.752622
vn 0.790633 -0.000617 0.612290
vn 0.651871 -0.083558 -0.753712
vn -0.219126 0.736728 0.639699
vn 0.334437 0.657216 -0.675440
vn -0.092580 0.695992 -0.712056
vn 0.651871 -0.083558 -0.753712
vn 0.000855 -0.219239 -0.975671
vn 0.004303 -0.107499 -0.994196
vn -0.737225 0.134745 -0.662075
vn -0.763266 -0.049528 0.644184
vn -0.775356 -0.277873 0.567106
vn 0.049099 -0.461792 0.885628
vn -0.763266 -0.049528 0.644184
vn 0.001598 -0.031751 0.999495
vn 0.656831 0.046180 -0.752622
vn -0.008791 0.189408 -0.981859
vn 0.637895 -0.132080 -0.758713
vn 0.778717 -0.625658 0.046393
vn 0.472828 -0.615198 -0.630845
vn -0.014700 0.725354 0.688219
vn -0.755942 -0.115473 -0.644374
vn -0.886606 0.383256 0.258931
vn -0.000000 -0.999962 -0.008717
vn 0.472828 -0.615198 -0.630845
vn 0.778717 -0.625658 0.046393
vn -0.712491 -0.701655 -0.006117
vn 0.637895 -0.132080 -0.758713
vn -0.000000 -0.729149 -0.684355
vn -0.662680 0.562570 0.494339
vn -0.662680 0.562570 0.494339
vn 0.000000 -0.585520 0.810658
vn -0.000006 0.810546 0.585674
vn -0.886606 0.383256 0.258931
vn -0.000006 0.810546 0.585674
vn -0.014700 0.725354 0.688219
vn 0.502017 0.610975 0.612117
vn 0.448674 -0.477065 0.755712
vn 0.448674 -0.477065 0.755712
vn 0.000000 -0.585520 0.810658
vn -0.557659 -0.467369 0.685990
vn -0.712491 -0.701655 -0.006117
vn 0.502017 0.610975 0.612117
vn 0.908445 0.330081 0.256462
vn 0.502017 0.610975 0.612117
vn 0.448674 -0.477065 0.755712
vn -0.579107 -0.594451 -0.557909
vn -0.755942 -0.115473 -0.644374
vn -0.579107 -0.594451 -0.557909
vn 0.790633 -0.000617 0.612290
vn 0.908445 0.330081 0.256462
vn -0.737225 0.134745 -0.662075
vn -0.622476 -0.113952 -0.774299
vn 0.653535 -0.412395 0.634682
vn -0.697998 0.059464 0.713627
vn -0.803507 0.309870 -0.508288
vn -0.603565 0.124421 -0.787546
vn -0.092580 0.695992 -0.712056
vn 0.492996 0.608331 0.622003
vn 0.849802 -0.129370 0.510979
vn -0.040494 0.394794 0.917877
vn -0.668476 -0.403598 0.624699
vn 0.002896 -0.347254 0.937767
vn -0.668476 -0.403598 0.624699
vn -0.088326 0.428914 -0.899017
vn -0.618175 -0.325282 -0.715577
vn 0.009525 -0.239557 -0.970836
vn 0.557564 0.527070 -0.641341
vn 0.693009 -0.160332 -0.702874
vn 0.557564 0.527070 -0.641341
vn 0.757903 -0.184953 0.625600
vn 0.693009 -0.160332 -0.702874
vn 0.805982 0.025711 0.591381
vn 0.669294 -0.437291 -0.600685
vn -0.112322 0.267610 0.956958
vn -0.396337 0.890825 -0.222144
vn -0.099928 0.432463 -0.896097
vn 0.669294 -0.437291 -0.600685
vn 0.002582 -0.292194 -0.956356
vn 0.021398 -0.509382 -0.860274
vn -0.782191 0.026101 0.622491
vn -0.782191 0.026101 0.622491
vn -0.005328 0.137633 0.990469
vn 0.870997 0.407213 0.274848
vn 0.506999 -0.596697 -0.622016
vn 0.703557 -0.157951 -0.692863
vn -0.022522 0.831190 0.555533
vn -0.784850 -0.110064 -0.609832
vn -0.859635 0.458670 0.225052
vn -0.000000 -0.999645 -0.026634
vn 0.506999 -0.596697 -0.622016
vn 0.766772 -0.637943 0.071338
vn -0.581065 -0.583342 -0.567516
vn -0.708435 -0.705526 -0.018798
vn 0.703557 -0.157951 -0.692863
vn -0.000000 -0.716768 -0.697312
vn -0.662679 0.562571 0.494338
vn -0.662679 0.562571 0.494338
vn -0.000000 -0.585521 0.810657
vn -0.000006 0.810547 0.585674
vn -0.859635 0.458670 0.225052
vn -0.000006 0.810547 0.585674
vn -0.022522 0.831190 0.555533
vn 0.766772 -0.637943 0.071338
vn 0.502018 0.610976 0.612117
vn 0.448674 -0.477066 0.755711
vn 0.448674 -0.477066 0.755711
vn -0.000000 -0.585521 0.810657
vn -0.557659 -0.467370 0.685990
vn -0.708435 -0.705526 -0.018798
vn 0.502018 0.610976 0.612117
vn 0.870997 0.407213 0.274848
vn 0.502018 0.610976 0.612117
vn 0.448674 -0.477066 0.755711
vn -0.581065 -0.583342 -0.567516
vn -0.784850 -0.110064 -0.609832
vn -0.581065 -0.583342 -0.567516
vn 0.805982 0.025711 0.591381
vn 0.870997 0.407213 0.274848
vn -0.618742 -0.458092 -0.638209
vn -0.618175 -0.325282 -0.715577
vn 0.757903 -0.184953 0.625600
vn 0.557564 0.527070 -0.641341
vn 0.300681 0.944027 0.135664
vn 0.550915 0.382445 0.741774
vn -0.027917 0.556297 -0.830514
vn 0.550915 0.382445 0.741774
vn 0.653535 -0.412395 0.634682
vn -0.775356 -0.277873 0.567106
vn -0.043467 0.977191 0.207867
vn 0.300042 0.940286 -0.160738
vn -0.034465 0.973656 -0.225400
vn -0.383136 0.899530 0.209888
vn -0.395316 0.891426 -0.221551
vn -0.027917 0.556297 -0.830514
vn 0.300681 0.944027 0.135664
vn -0.043467 0.977191 0.207867
vn -0.105251 0.268015 0.957648
vn -0.383136 0.899530 0.209888
vn 0.892035 0.402560 0.205472
vn -0.543221 -0.210909 0.812667
vn 0.883669 -0.088331 0.459704
vn -1.000000 0.000000 0.000000
vn -0.446753 0.625496 -0.639661
vn -1.000000 -0.000000 0.000000
vn -0.450588 -0.790852 0.414155
vn 0.910578 -0.330966 0.247607
vn 0.858802 -0.497739 0.121303
vn 0.797260 0.436865 -0.416563
vn 0.883669 -0.088331 0.459704
vn 0.974105 -0.080186 -0.211399
vn -0.516956 -0.410873 0.750959
vn 0.858802 -0.497739 0.121303
vn 0.845999 -0.392415 0.360965
vn -0.462139 0.792944 -0.397073
vn 0.892035 0.402560 0.205472
vn 0.797260 0.436865 -0.416563
vn 0.889429 -0.035714 0.455677
vn 0.845999 -0.392415 0.360965
vn 0.971676 -0.129540 -0.197648
vn 0.980879 0.028909 0.192462
vn -0.505001 -0.412295 0.758279
vn -0.544013 -0.750512 0.375209
vn -0.471833 -0.195416 0.859759
vn 0.889429 -0.035714 0.455677
vn -0.477150 -0.182154 0.859737
vn -0.453550 0.624302 -0.636034
vn 0.692451 0.388293 -0.608062
vn -0.516956 -0.410873 0.750959
vn 0.692451 0.388293 -0.608062
vn -0.530468 -0.201162 0.823491
vn -0.474113 0.784244 -0.400221
vn -1.000000 -0.000000 0.000000
vn -0.467940 0.732609 -0.494284
vn -1.000000 -0.000000 0.000000
vn -0.453497 -0.817218 0.355663
vn 0.831531 -0.505161 0.231015
vn 0.910578 -0.330966 0.247607
vn -0.512348 0.701494 -0.495384
vn -0.527052 0.684769 -0.503296
vn -0.515637 -0.793376 0.323531
vn 0.842577 0.427161 -0.328020
vn 0.974423 -0.016828 0.224090
vn 0.919474 0.232632 -0.316938
vn 0.851861 0.513673 -0.102334
vn -0.552912 -0.817886 -0.159220
vn -0.510453 -0.858843 0.042747
vn 0.851861 0.513673 -0.102334
vn -0.454311 0.744166 -0.489713
vn -0.587364 0.420620 -0.691435
vn 0.896717 -0.338799 -0.284805
vn -0.668146 -0.387301 -0.635278
vn -0.524949 -0.833321 -0.173216
vn 0.889340 -0.457245 -0.001007
vn -0.504062 -0.863372 0.022565
vn 0.889340 -0.457245 -0.001007
vn -0.577116 0.421369 -0.699561
vn -0.677027 -0.353411 -0.645550
vn 0.919474 0.232632 -0.316938
vn -0.587364 0.420620 -0.691435
vn 0.981176 -0.096268 0.167409
vn 0.131957 0.582549 0.802012
vn 0.248223 0.649365 0.718826
vn 0.713976 0.472526 -0.516679
vn 0.981176 -0.096268 0.167409
vn 0.713976 0.472526 -0.516679
vn -0.427364 0.783550 -0.451010
vn 0.513767 0.215737 -0.830362
vn 0.248223 0.649365 0.718826
vn -0.028628 0.986363 -0.162074
vn 0.930339 0.139623 0.339080
vn 0.634614 0.549160 -0.543773
vn -0.427364 0.783550 -0.451010
vn 0.513767 0.215737 -0.830362
vn 0.513767 0.215737 -0.830362
vn 0.930339 0.139623 0.339080
vn -0.427364 0.783550 -0.451010
vn 0.131957 0.582549 0.802012
vn -0.028628 0.986363 -0.162074
vn -0.731754 0.680396 0.039968
vn -0.906587 -0.421259 -0.025297
vn -0.808882 0.580945 -0.090625
vn -0.731754 0.680396 0.039968
vn -0.799654 0.581650 -0.149121
vn -0.785155 0.580947 -0.214553
vn -0.906587 -0.421259 -0.025297
vn -0.772347 0.627216 -0.100399
vn -0.853160 -0.447798 0.267574
vn 0.000000 -0.654369 0.756175
vn -0.815513 -0.472694 0.333914
vn -0.870584 -0.276015 0.407307
vn -0.808882 0.580945 -0.090625
vn -0.853160 -0.447798 0.267574
vn -0.867896 -0.492720 0.063118
vn -0.867896 -0.492720 0.063118
vn -0.785155 0.580947 -0.214553
vn -0.970568 0.131133 0.201994
vn -0.713976 0.472526 -0.516679
vn -0.799654 0.581650 -0.149121
vn -0.713976 0.472526 -0.516679
vn -0.618696 -0.499631 0.606287
vn -0.947505 -0.319558 -0.010812
vn -0.248223 0.649365 0.718826
vn 0.000000 0.719292 0.694708
vn -0.815513 -0.472694 0.333914
vn -0.638702 -0.520911 0.566314
vn -0.618696 -0.499631 0.606287
vn -0.947505 -0.319558 -0.010812
vn -0.822113 0.259660 0.506663
vn 0.000000 0.719292 0.694708
vn -0.753179 0.210140 0.623348
vn -0.638702 -0.520911 0.566314
vn -0.638702 -0.520911 0.566314
vn -0.753179 0.210140 0.623348
vn -0.000000 0.855365 0.518025
vn -0.958192 -0.092317 -0.270823
vn -0.000000 -0.802232 -0.597012
vn -0.873662 -0.475124 -0.104749
vn -0.873662 -0.475124 -0.104749
vn -0.772347 0.627216 -0.100399
vn -0.000000 -0.304968 -0.952362
vn -0.906703 0.256124 -0.335098
vn 0.000000 0.306780 -0.951781
vn -0.906703 0.256124 -0.335098
vn -0.159259 -0.483556 0.860703
vn 0.697998 0.059464 0.713627
vn 0.219126 0.736728 0.639700
vn 0.293111 -0.677342 0.674755
vn 0.803507 0.309870 -0.508288
vn 0.697998 0.059464 0.713627
vn 0.007805 0.257129 -0.966346
vn -0.334437 0.657216 -0.675440
vn 0.092580 0.695992 -0.712056
vn -0.849802 -0.129370 0.510980
vn -0.334437 0.657216 -0.675440
vn -0.751273 0.137011 -0.645614
vn -0.656831 0.046180 -0.752622
vn -0.790633 -0.000617 0.612290
vn -0.653535 -0.412395 0.634683
vn -0.334437 0.657216 -0.675440
vn 0.219126 0.736728 0.639700
vn 0.092580 0.695992 -0.712056
vn -0.000855 -0.219239 -0.975671
vn -0.651871 -0.083558 -0.753712
vn -0.004303 -0.107499 -0.994196
vn 0.763266 -0.049528 0.644183
vn 0.737225 0.134745 -0.662075
vn 0.775356 -0.277873 0.567106
vn -0.049099 -0.461792 0.885628
vn 0.763266 -0.049528 0.644183
vn 0.775356 -0.277873 0.567106
vn -0.656831 0.046180 -0.752622
vn 0.008791 0.189408 -0.981859
vn -0.637895 -0.132080 -0.758713
vn -0.778716 -0.625658 0.046394
vn -0.908445 0.330081 0.256464
vn 0.014700 0.725355 0.688218
vn -0.001598 -0.031751 0.999495
vn -0.651871 -0.083558 -0.753712
vn 0.755942 -0.115473 -0.644374
vn 0.622476 -0.113952 -0.774299
vn -0.000000 -0.999962 -0.008717
vn -0.472828 -0.615197 -0.630846
vn -0.000000 -0.729149 -0.684355
vn 0.712491 -0.701655 -0.006116
vn 0.886606 0.383256 0.258932
vn -0.000000 -0.729149 -0.684355
vn -0.637895 -0.132080 -0.758713
vn 0.662680 0.562569 0.494339
vn 0.000000 -0.585521 0.810657
vn 0.662680 0.562569 0.494339
vn 0.000005 0.810547 0.585673
vn 0.000005 0.810547 0.585673
vn 0.886606 0.383256 0.258932
vn 0.014700 0.725355 0.688218
vn -0.502018 0.610975 0.612117
vn -0.448674 -0.477066 0.755712
vn -0.778716 -0.625658 0.046394
vn 0.557658 -0.467369 0.685990
vn 0.712491 -0.701655 -0.006116
vn -0.502018 0.610975 0.612117
vn -0.908445 0.330081 0.256464
vn -0.502018 0.610975 0.612117
vn 0.579107 -0.594451 -0.557909
vn 0.755942 -0.115473 -0.644374
vn 0.579107 -0.594451 -0.557909
vn -0.790633 -0.000617 0.612290
vn 0.737225 0.134745 -0.662075
vn -0.653535 -0.412395 0.634683
vn 0.622476 -0.113952 -0.774299
vn 0.697998 0.059464 0.713627
vn 0.803507 0.309870 -0.508288
vn 0.603565 0.124421 -0.787546
vn 0.803507 0.309870 -0.508288
vn -0.492996 0.608331 0.622003
vn -0.849802 -0.129370 0.510980
vn 0.668476 -0.403598 0.624699
vn 0.040494 0.394794 0.917877
vn -0.002896 -0.347254 0.937766
vn 0.668476 -0.403598 0.624699
vn -0.118590 0.429839 -0.895084
vn -0.123656 0.267578 0.955568
vn -0.009525 -0.239557 -0.970836
vn -0.557564 0.527070 -0.641341
vn 0.027917 0.556297 -0.830514
vn -0.757903 -0.184953 0.625600
vn -0.557564 0.527070 -0.641341
vn -0.693009 -0.160332 -0.702874
vn -0.805982 0.025711 0.591381
vn -0.002582 -0.292194 -0.956356
vn -0.669294 -0.437291 -0.600685
vn -0.021398 -0.509382 -0.860274
vn 0.782191 0.026101 0.622491
vn 0.618175 -0.325282 -0.715578
vn 0.782191 0.026101 0.622491
vn -0.693009 -0.160332 -0.702874
vn -0.506999 -0.596697 -0.622017
vn -0.870997 0.407213 0.274849
vn -0.703556 -0.157951 -0.692863
vn 0.022522 0.831190 0.555532
vn 0.005327 0.137632 0.990469
vn -0.669294 -0.437291 -0.600685
vn 0.784851 -0.110065 -0.609832
vn 0.618741 -0.458092 -0.638210
vn -0.000000 -0.999645 -0.026634
vn -0.506999 -0.596697 -0.622017
vn -0.000000 -0.716768 -0.697312
vn 0.859635 0.458671 0.225052
vn 0.581065 -0.583342 -0.567517
vn -0.000000 -0.716768 -0.697312
vn -0.703556 -0.157951 -0.692863
vn 0.662679 0.562571 0.494338
vn 0.708435 -0.705526 -0.018797
vn 0.000000 -0.585521 0.810657
vn 0.662679 0.562571 0.494338
vn 0.000006 0.810547 0.585673
vn 0.000006 0.810547 0.585673
vn 0.859635 0.458671 0.225052
vn 0.022522 0.831190 0.555532
vn -0.766772 -0.637943 0.071339
vn -0.502018 0.610976 0.612117
vn -0.448674 -0.477066 0.755711
vn -0.766772 -0.637943 0.071339
vn 0.557659 -0.467369 0.685991
vn 0.708435 -0.705526 -0.018797
vn -0.502018 0.610976 0.612117
vn -0.870997 0.407213 0.274849
vn -0.502018 0.610976 0.612117
vn 0.581065 -0.583342 -0.567517
vn 0.784851 -0.110065 -0.609832
vn 0.581065 -0.583342 -0.567517
vn -0.805982 0.025711 0.591381
vn 0.618741 -0.458092 -0.638210
vn 0.618175 -0.325282 -0.715578
vn -0.757903 -0.184953 0.625600
vn -0.300681 0.944027 0.135664
vn -0.557564 0.527070 -0.641341
vn -0.550915 0.382444 0.741774
vn -0.118590 0.429839 -0.895084
vn -0.550915 0.382444 0.741774
vn 0.603565 0.124421 -0.787546
vn 0.293111 -0.677342 0.674755
vn -0.300042 0.940286 -0.160738
vn 0.043467 0.977191 0.207867
vn 0.034465 0.973656 -0.225400
vn -0.412860 0.887197 0.205981
vn -0.396514 0.890914 -0.221471
vn 0.027917 0.556297 -0.830514
vn -0.118590 0.429839 -0.895084
vn -0.300681 0.944027 0.135664
vn -0.123656 0.267578 0.955568
vn 0.043467 0.977191 0.207867
vn -0.514362 -0.238684 0.823688
vn -0.892035 0.402560 0.205472
vn -0.883669 -0.088331 0.459703
vn -0.910578 -0.330966 0.247607
vn -0.609187 -0.687295 0.395622
vn -0.858802 -0.497739 0.121303
vn -0.797260 0.436865 -0.416563
vn -0.974105 -0.080186 -0.211399
vn -0.501149 -0.419062 0.757124
vn -0.858802 -0.497739 0.121303
vn -0.609187 -0.687295 0.395622
vn -0.476459 0.788760 -0.388386
vn -0.892035 0.402560 0.205472
vn -0.653285 0.564307 0.504753
vn -0.889429 -0.035714 0.455676
vn -0.845999 -0.392415 0.360965
vn -0.971676 -0.129540 -0.197648
vn -0.486277 -0.207973 0.848694
vn -0.883669 -0.088331 0.459703
vn -0.889429 -0.035714 0.455676
vn -0.439362 0.629574 -0.640779
vn -0.797260 0.436865 -0.416563
vn -0.501149 -0.419062 0.757124
vn -0.692451 0.388293 -0.608062
vn -0.831531 -0.505161 0.231015
vn -0.543145 -0.757750 0.361674
vn -0.910578 -0.330966 0.247607
vn -0.503317 0.692337 -0.517050
vn -0.692451 0.388293 -0.608062
vn -0.842577 0.427161 -0.328020
vn -0.919474 0.232632 -0.316938
vn -0.974423 -0.016828 0.224090
vn -0.851861 0.513673 -0.102334
vn -0.851861 0.513673 -0.102334
vn -0.842577 0.427161 -0.328020
vn -0.980879 0.028909 0.192462
vn -0.896717 -0.338799 -0.284805
vn -0.554109 0.472322 -0.685474
vn -0.682407 -0.296458 -0.668157
vn -0.573423 -0.795381 -0.196357
vn -0.896717 -0.338799 -0.284805
vn -0.682407 -0.296458 -0.668157
vn -0.889340 -0.457245 -0.001007
vn -0.831531 -0.505161 0.231015
vn -0.889340 -0.457245 -0.001007
vn -0.509665 -0.860309 -0.010502
vn -0.475274 0.738236 -0.478668
vn -0.919474 0.232632 -0.316938
vn -0.131957 0.582549 0.802012
vn -0.981176 -0.096268 0.167409
vn -0.248223 0.649365 0.718826
vn -0.981176 -0.096268 0.167409
vn -0.713976 0.472526 -0.516679
vn 0.427364 0.783550 -0.451010
vn -0.000000 0.979304 -0.202394
vn -0.248223 0.649365 0.718826
vn -0.930339 0.139623 0.339079
vn 0.028629 0.986363 -0.162074
vn -0.634612 0.549160 -0.543774
vn -0.634612 0.549160 -0.543774
vn 0.427364 0.783550 -0.451010
vn -0.513767 0.215737 -0.830362
vn -0.513767 0.215737 -0.830362
vn 0.427364 0.783550 -0.451010
vn -0.131957 0.582549 0.802012
vn -0.248223 0.649365 0.718826
vn 0.870584 -0.276015 0.407307
vn -0.000000 0.979304 -0.202394
vn 0.947505 -0.319558 -0.010812
vn 0.000000 0.587731 0.809057
vn 0.000000 0.587731 0.809057
vn -0.000000 -0.802232 -0.597012
vn 0.000000 0.306780 -0.951781
vn -0.219126 0.736728 0.639699
vn -0.697998 0.059464 0.713627
vn 0.492996 0.608331 0.622003
vn 0.492996 0.608331 0.622003
vn -0.622476 -0.113952 -0.774299
vn 0.908445 0.330081 0.256462
vn -0.886606 0.383256 0.258931
vn -0.000000 -0.729149 -0.684355
vn -0.579107 -0.594451 -0.557909
vn 0.472828 -0.615198 -0.630845
vn -0.557659 -0.467369 0.685990
vn -0.557659 -0.467369 0.685990
vn -0.662680 0.562570 0.494339
vn -0.803507 0.309870 -0.508288
vn -0.105251 0.268015 0.957648
vn 0.550915 0.382445 0.741774
vn -0.396029 0.897022 0.196246
vn -0.618742 -0.458092 -0.638209
vn -0.859635 0.458670 0.225052
vn -0.000000 -0.716768 -0.697312
vn 0.506999 -0.596697 -0.622016
vn -0.557659 -0.467370 0.685990
vn -0.557659 -0.467370 0.685990
vn -0.662679 0.562571 0.494338
vn -0.088326 0.428914 -0.899017
vn -0.088326 0.428914 -0.899017
vn -0.649574 0.599838 0.467171
vn -0.453497 -0.817218 0.355663
vn 0.892035 0.402560 0.205472
vn -0.450588 -0.790852 0.414155
vn -0.649574 0.599838 0.467171
vn 0.845999 -0.392415 0.360965
vn -0.651882 0.584678 0.482910
vn 0.842577 0.427161 -0.328020
vn 0.831531 -0.505161 0.231015
vn -0.524949 -0.833321 -0.173216
vn 0.930339 0.139623 0.339080
vn -0.000000 0.979304 -0.202394
vn 0.131957 0.582549 0.802012
vn 0.634614 0.549160 -0.543773
vn 0.248223 0.649365 0.718826
vn -0.870584 -0.276015 0.407307
vn 0.000000 -0.657409 0.753534
vn 0.427364 0.783550 -0.451010
vn 0.000000 0.587731 0.809057
vn -0.751273 0.137011 -0.645614
vn -0.492996 0.608331 0.622003
vn -0.492996 0.608331 0.622003
vn -0.472828 -0.615197 -0.630846
vn 0.886606 0.383256 0.258932
vn 0.579107 -0.594451 -0.557909
vn -0.472828 -0.615197 -0.630846
vn 0.557658 -0.467369 0.685990
vn 0.557658 -0.467369 0.685990
vn 0.662680 0.562569 0.494339
vn -0.448674 -0.477066 0.755712
vn 0.000000 -0.585521 0.810657
vn -0.448674 -0.477066 0.755712
vn -0.908445 0.330081 0.256464
vn -0.550915 0.382444 0.741774
vn 0.859635 0.458671 0.225052
vn -0.506999 -0.596697 -0.622017
vn 0.557659 -0.467369 0.685991
vn 0.557659 -0.467369 0.685991
vn 0.662679 0.562571 0.494338
vn -0.448674 -0.477066 0.755711
vn 0.000000 -0.585521 0.810657
vn -0.448674 -0.477066 0.755711
vn -0.870997 0.407213 0.274849
vn -0.412860 0.887197 0.205981
vn -0.653285 0.564307 0.504753
vn -0.543145 -0.757750 0.361674
vn -0.845999 -0.392415 0.360965
vn -0.514362 -0.238684 0.823688
vn -0.845999 -0.392415 0.360965
vn -0.554109 0.472322 -0.685474
vn -0.930339 0.139623 0.339079
vn -0.513767 0.215737 -0.830362
vn -0.131957 0.582549 0.802012
vn 0.028629 0.986363 -0.162074
vn 0.028629 0.986363 -0.162074
f 1/1/1 2/2/2 3/3/3
f 4/4/4 5/5/5 6/6/6
f 7/7/7 8/8/8 9/9/9
f 10/10/10 11/11/11 12/12/12
f 4/4/4 13/13/13 14/14/14
f 15/15/15 16/16/16 17/17/17
f 18/18/18 19/19/19 20/20/20
f 21/21/21 7/7/7 9/9/9
f 5/5/5 22/22/22 6/6/6
f 12/12/12 17/17/17 10/10/10
f 23/23/23 24/24/24 22/22/22
f 19/19/19 25/25/25 26/26/26
f 27/27/27 19/19/19 24/24/24
f 28/28/28 29/29/29 8/8/8
f 30/30/30 31/31/31 32/32/32
f 33/33/33 34/34/34 35/35/35
f 36/36/36 30/30/30 37/37/37
f 32/32/32 38/38/38 39/39/39
f 25/25/25 40/40/40 26/26/26
f 41/41/41 42/42/42 25/25/25
f 43/43/43 44/44/44 45/45/45
f 42/42/42 46/46/46 40/40/40
f 47/47/47 48/48/48 42/42/42
f 49/49/49 50/50/50 51/51/51
f 52/52/52 53/53/53 11/11/11
f 3/3/3 54/54/54 55/55/55
f 56/56/56 57/57/57 50/50/50
f 13/13/13 50/50/50 57/57/57
f 55/55/55 58/58/58 59/59/59
f 60/60/60 61/61/61 62/62/62
f 63/63/63 64/64/64 65/65/65
f 66/66/66 67/67/67 68/68/68
f 69/69/69 70/70/70 71/71/71
f 72/72/72 73/73/73 74/74/74
f 75/75/75 76/76/76 77/77/77
f 78/78/78 79/79/79 80/80/80
f 81/81/81 82/82/82 83/83/83
f 84/84/84 85/85/85 86/86/86
f 87/87/87 80/80/80 88/88/88
f 89/89/89 90/90/90 91/91/91
f 85/85/85 92/92/92 86/86/86
f 73/73/73 89/89/89 74/74/74
f 82/82/82 93/93/93 94/94/94
f 95/95/95 96/96/96 97/97/97
f 93/93/93 98/98/98 94/94/94
f 99/99/99 100/100/100 79/79/79
f 98/98/98 101/101/101 94/94/94
f 102/102/102 103/103/103 104/104/104
f 105/105/105 106/106/106 107/107/107
f 90/90/90 108/108/108 109/109/109
f 95/95/95 110/110/110 111/111/111
f 95/95/95 112/112/112 113/113/113
f 107/107/107 114/114/114 115/115/115
f 116/116/116 103/103/103 117/117/117
f 79/79/79 118/118/118 119/119/119
f 120/120/120 95/95/95 113/113/113
f 121/121/121 92/92/92 122/122/122
f 123/123/123 80/80/80 124/124/124
f 125/125/125 86/86/86 121/121/121
f 124/124/124 79/79/79 119/119/119
f 126/126/126 77/77/77 127/127/127
f 128/128/128 129/129/129 66/66/66
f 130/130/130 60/60/60 131/131/131
f 132/132/132 133/133/133 134/134/134
f 135/135/135 136/136/136 137/137/137
f 138/138/138 139/139/139 140/140/140
f 141/141/141 142/142/142 143/143/143
f 143/143/143 144/144/144 145/145/145
f 146/146/146 147/147/147 148/148/148
f 149/149/149 150/150/150 151/151/151
f 137/137/137 152/152/152 135/135/135
f 134/134/134 153/153/153 154/154/154
f 138/138/138 149/149/149 151/151/151
f 155/155/155 156/156/156 157/157/157
f 153/153/153 158/158/158 154/154/154
f 144/144/144 157/157/157 145/145/145
f 152/152/152 159/159/159 160/160/160
f 161/161/161 162/162/162 163/163/163
f 160/160/160 164/164/164 165/165/165
f 166/166/166 167/167/167 150/150/150
f 165/165/165 168/168/168 160/160/160
f 169/169/169 170/170/170 171/171/171
f 172/172/172 173/173/173 174/174/174
f 175/175/175 176/176/176 177/177/177
f 161/161/161 178/178/178 179/179/179
f 161/161/161 180/180/180 181/181/181
f 174/174/174 182/182/182 183/183/183
f 184/184/184 170/170/170 185/185/185
f 150/150/150 186/186/186 187/187/187
f 188/188/188 161/161/161 181/181/181
f 189/189/189 158/158/158 190/190/190
f 138/138/138 191/191/191 192/192/192
f 134/134/134 189/189/189 193/193/193
f 191/191/191 150/150/150 187/187/187
f 194/194/194 195/195/195 196/196/196
f 192/192/192 197/197/197 138/138/138
f 198/198/198 134/134/134 193/193/193
f 125/125/125 60/60/60 84/84/84
f 128/128/128 88/88/88 123/123/123
f 71/71/71 199/199/199 72/72/72
f 66/66/66 87/87/87 88/88/88
f 83/83/83 65/65/65 81/81/81
f 84/84/84 62/62/62 200/200/200
f 201/201/201 202/202/202 203/203/203
f 204/204/204 203/203/203 205/205/205
f 206/206/206 205/205/205 203/203/203
f 132/132/132 207/207/207 208/208/208
f 206/206/206 202/202/202 194/194/194
f 209/209/209 208/208/208 210/210/210
f 211/211/211 212/212/212 213/213/213
f 214/214/214 215/215/215 216/216/216
f 217/217/217 218/218/218 219/219/219
f 220/220/220 221/221/221 222/222/222
f 223/223/223 224/224/224 225/225/225
f 226/226/226 227/227/227 228/228/228
f 222/222/222 229/229/229 230/230/230
f 231/231/231 218/218/218 232/232/232
f 233/233/233 216/216/216 234/234/234
f 213/213/213 235/235/235 236/236/236
f 237/237/237 214/214/214 233/233/233
f 231/231/231 230/230/230 219/219/219
f 238/238/238 228/228/228 239/239/239
f 240/240/240 236/236/236 235/235/235
f 241/241/241 222/222/222 231/231/231
f 242/242/242 243/243/243 214/214/214
f 244/244/244 245/245/245 246/246/246
f 247/247/247 248/248/248 249/249/249
f 216/216/216 250/250/250 244/244/244
f 239/239/239 251/251/251 238/238/238
f 234/234/234 244/244/244 252/252/252
f 231/231/231 253/253/253 241/241/241
f 254/254/254 255/255/255 256/256/256
f 246/246/246 257/257/257 258/258/258
f 251/251/251 259/259/259 260/260/260
f 252/252/252 246/246/246 258/258/258
f 232/232/232 256/256/256 253/253/253
f 218/218/218 254/254/254 232/232/232
f 261/261/261 262/262/262 263/263/263
f 264/264/264 262/262/262 265/265/265
f 254/254/254 265/265/265 262/262/262
f 266/266/266 267/267/267 248/248/248
f 246/246/246 268/268/268 269/269/269
f 260/260/260 270/270/270 271/271/271
f 272/272/272 273/273/273 274/274/274
f 275/275/275 276/276/276 25/25/25
f 277/277/277 278/278/278 279/279/279
f 25/25/25 280/280/280 41/41/41
f 281/281/281 282/282/282 283/283/283
f 284/284/284 283/283/283 285/285/285
f 286/286/286 287/287/287 276/276/276
f 288/288/288 289/289/289 290/290/290
f 291/291/291 1/1/1 3/3/3
f 292/292/292 293/293/293 294/294/294
f 295/295/295 7/7/7 296/296/296
f 10/10/10 297/297/297 52/52/52
f 298/298/298 292/292/292 294/294/294
f 16/16/16 299/299/299 17/17/17
f 300/300/300 301/301/301 302/302/302
f 303/303/303 7/7/7 1/1/1
f 304/304/304 293/293/293 305/305/305
f 17/17/17 306/306/306 10/10/10
f 302/302/302 307/307/307 304/304/304
f 301/301/301 308/308/308 309/309/309
f 301/301/301 310/310/310 302/302/302
f 311/311/311 28/28/28 295/295/295
f 30/30/30 312/312/312 313/313/313
f 33/33/33 314/314/314 315/315/315
f 30/30/30 316/316/316 37/37/37
f 32/32/32 317/317/317 312/312/312
f 318/318/318 308/308/308 319/319/319
f 320/320/320 321/321/321 308/308/308
f 44/44/44 322/322/322 323/323/323
f 324/324/324 320/320/320 318/318/318
f 325/325/325 326/326/326 320/320/320
f 327/327/327 328/328/328 329/329/329
f 330/330/330 52/52/52 297/297/297
f 3/3/3 331/331/331 291/291/291
f 332/332/332 333/333/333 334/334/334
f 298/298/298 327/327/327 329/329/329
f 55/55/55 335/335/335 331/331/331
f 336/336/336 337/337/337 338/338/338
f 339/339/339 340/340/340 341/341/341
f 342/342/342 343/343/343 344/344/344
f 345/345/345 346/346/346 347/347/347
f 348/348/348 349/349/349 350/350/350
f 351/351/351 352/352/352 353/353/353
f 354/354/354 355/355/355 356/356/356
f 357/357/357 358/358/358 359/359/359
f 360/360/360 361/361/361 362/362/362
f 356/356/356 363/363/363 364/364/364
f 365/365/365 366/366/366 367/367/367
f 368/368/368 361/361/361 369/369/369
f 365/365/365 349/349/349 370/370/370
f 357/357/357 371/371/371 372/372/372
f 373/373/373 374/374/374 375/375/375
f 376/376/376 371/371/371 377/377/377
f 378/378/378 379/379/379 354/354/354
f 380/380/380 376/376/376 377/377/377
f 381/381/381 382/382/382 383/383/383
f 384/384/384 385/385/385 386/386/386
f 366/366/366 387/387/387 367/367/367
f 373/373/373 388/388/388 389/389/389
f 390/390/390 373/373/373 391/391/391
f 392/392/392 386/386/386 393/393/393
f 394/394/394 381/381/381 383/383/383
f 395/395/395 354/354/354 396/396/396
f 373/373/373 397/397/397 391/391/391
f 398/398/398 368/368/368 369/369/369
f 399/399/399 356/356/356 364/364/364
f 400/400/400 369/369/369 360/360/360
f 401/401/401 354/354/354 356/356/356
f 353/353/353 402/402/402 403/403/403
f 404/404/404 344/344/344 405/405/405
f 336/336/336 406/406/406 407/407/407
f 408/408/408 409/409/409 410/410/410
f 411/411/411 412/412/412 413/413/413
f 414/414/414 415/415/415 416/416/416
f 417/417/417 418/418/418 419/419/419
f 419/419/419 420/420/420 417/417/417
f 421/421/421 422/422/422 423/423/423
f 424/424/424 425/425/425 411/411/411
f 410/410/410 426/426/426 408/408/408
f 414/414/414 422/422/422 427/427/427
f 428/428/428 429/429/429 430/430/430
f 431/431/431 426/426/426 432/432/432
f 430/430/430 420/420/420 433/433/433
f 424/424/424 434/434/434 435/435/435
f 436/436/436 437/437/437 438/438/438
f 439/439/439 440/440/440 434/434/434
f 441/441/441 442/442/442 421/421/421
f 443/443/443 444/444/444 439/439/439
f 445/445/445 446/446/446 447/447/447
f 448/448/448 449/449/449 450/450/450
f 451/451/451 452/452/452 429/429/429
f 436/436/436 453/453/453 454/454/454
f 455/455/455 436/436/436 456/456/456
f 457/457/457 450/450/450 458/458/458
f 459/459/459 445/445/445 447/447/447
f 460/460/460 421/421/421 461/461/461
f 436/436/436 462/462/462 456/456/456
f 463/463/463 431/431/431 432/432/432
f 464/464/464 414/414/414 465/465/465
f 463/463/463 410/410/410 466/466/466
f 464/464/464 421/421/421 423/423/423
f 467/467/467 468/468/468 469/469/469
f 465/465/465 416/416/416 470/470/470
f 410/410/410 471/471/471 466/466/466
f 400/400/400 336/336/336 407/407/407
f 364/364/364 404/404/404 399/399/399
f 350/350/350 347/347/347 348/348/348
f 363/363/363 342/342/342 364/364/364
f 359/359/359 472/472/472 339/339/339
f 360/360/360 473/473/473 336/336/336
f 474/474/474 475/475/475 476/476/476
f 476/476/476 477/477/477 478/478/478
f 479/479/479 478/478/478 480/480/480
f 409/409/409 481/481/481 471/471/471
f 474/474/474 479/479/479 468/468/468
f 482/482/482 483/483/483 409/409/409
f 484/484/484 485/485/485 486/486/486
f 487/487/487 488/488/488 489/489/489
f 486/486/486 490/490/490 491/491/491
f 492/492/492 493/493/493 494/494/494
f 495/495/495 496/496/496 497/497/497
f 498/498/498 491/491/491 499/499/499
f 500/500/500 487/487/487 489/489/489
f 501/501/501 502/502/502 503/503/503
f 499/499/499 500/500/500 489/489/489
f 504/504/504 505/505/505 495/495/495
f 503/503/503 506/506/506 501/501/501
f 491/491/491 507/507/507 500/500/500
f 508/508/508 509/509/509 510/510/510
f 511/511/511 512/512/512 504/504/504
f 513/513/513 500/500/500 507/507/507
f 514/514/514 515/515/515 516/516/516
f 511/511/511 517/517/517 518/518/518
f 516/516/516 519/519/519 513/513/513
f 515/515/515 487/487/487 519/519/519
f 520/520/520 521/521/521 522/522/522
f 523/523/523 524/524/524 525/525/525
f 515/515/515 526/526/526 527/527/527
f 528/528/528 529/529/529 508/508/508
f 530/530/530 531/531/531 517/517/517
f 532/532/532 533/533/533 534/534/534
f 535/535/535 309/309/309 308/308/308
f 536/536/536 537/537/537 538/538/538
f 539/539/539 308/308/308 321/321/321
f 540/540/540 541/541/541 542/542/542
f 543/543/543 544/544/544 545/545/545
f 540/540/540 546/546/546 535/535/535
f 547/547/547 548/548/548 549/549/549
f 1/1/1 21/21/21 2/2/2
f 4/4/4 14/14/14 5/5/5
f 7/7/7 28/28/28 8/8/8
f 10/10/10 52/52/52 11/11/11
f 4/4/4 51/51/51 13/13/13
f 15/15/15 550/550/550 16/16/16
f 18/18/18 24/24/24 19/19/19
f 21/21/21 1/1/1 7/7/7
f 5/5/5 23/23/23 22/22/22
f 12/12/12 15/15/15 17/17/17
f 23/23/23 27/27/27 24/24/24
f 19/19/19 275/275/275 25/25/25
f 27/27/27 275/275/275 19/19/19
f 28/28/28 551/551/551 29/29/29
f 30/30/30 552/552/552 31/31/31
f 33/33/33 315/315/315 34/34/34
f 36/36/36 552/552/552 30/30/30
f 32/32/32 31/31/31 38/38/38
f 25/25/25 42/42/42 40/40/40
f 41/41/41 47/47/47 42/42/42
f 43/43/43 553/553/553 44/44/44
f 42/42/42 48/48/48 46/46/46
f 47/47/47 554/554/554 48/48/48
f 49/49/49 56/56/56 50/50/50
f 52/52/52 555/555/555 53/53/53
f 3/3/3 2/2/2 54/54/54
f 56/56/56 556/556/556 57/57/57
f 13/13/13 51/51/51 50/50/50
f 55/55/55 54/54/54 58/58/58
f 60/60/60 557/557/557 61/61/61
f 63/63/63 558/558/558 64/64/64
f 66/66/66 129/129/129 67/67/67
f 69/69/69 559/559/559 70/70/70
f 72/72/72 199/199/199 73/73/73
f 75/75/75 560/560/560 76/76/76
f 78/78/78 99/99/99 79/79/79
f 81/81/81 561/561/561 82/82/82
f 84/84/84 200/200/200 85/85/85
f 87/87/87 78/78/78 80/80/80
f 89/89/89 562/562/562 90/90/90
f 85/85/85 563/563/563 92/92/92
f 73/73/73 562/562/562 89/89/89
f 82/82/82 561/561/561 93/93/93
f 95/95/95 564/564/564 96/96/96
f 93/93/93 565/565/565 98/98/98
f 99/99/99 566/566/566 100/100/100
f 98/98/98 567/567/567 101/101/101
f 102/102/102 568/568/568 103/103/103
f 105/105/105 569/569/569 106/106/106
f 90/90/90 562/562/562 108/108/108
f 95/95/95 97/97/97 110/110/110
f 95/95/95 111/111/111 112/112/112
f 107/107/107 106/106/106 114/114/114
f 116/116/116 104/104/104 103/103/103
f 79/79/79 100/100/100 118/118/118
f 120/120/120 564/564/564 95/95/95
f 121/121/121 86/86/86 92/92/92
f 123/123/123 88/88/88 80/80/80
f 125/125/125 84/84/84 86/86/86
f 124/124/124 80/80/80 79/79/79
f 126/126/126 75/75/75 77/77/77
f 128/128/128 570/570/570 129/129/129
f 130/130/130 557/557/557 60/60/60
f 132/132/132 209/209/209 133/133/133
f 135/135/135 571/571/571 136/136/136
f 138/138/138 197/197/197 139/139/139
f 141/141/141 572/572/572 142/142/142
f 143/143/143 142/142/142 144/144/144
f 146/146/146 573/573/573 147/147/147
f 149/149/149 166/166/166 150/150/150
f 137/137/137 574/574/574 152/152/152
f 134/134/134 133/133/133 153/153/153
f 138/138/138 140/140/140 149/149/149
f 155/155/155 175/175/175 156/156/156
f 153/153/153 575/575/575 158/158/158
f 144/144/144 155/155/155 157/157/157
f 152/152/152 574/574/574 159/159/159
f 161/161/161 576/576/576 162/162/162
f 160/160/160 159/159/159 164/164/164
f 166/166/166 577/577/577 167/167/167
f 165/165/165 578/578/578 168/168/168
f 169/169/169 579/579/579 170/170/170
f 172/172/172 580/580/580 173/173/173
f 175/175/175 155/155/155 176/176/176
f 161/161/161 163/163/163 178/178/178
f 161/161/161 179/179/179 180/180/180
f 174/174/174 173/173/173 182/182/182
f 184/184/184 171/171/171 170/170/170
f 150/150/150 167/167/167 186/186/186
f 188/188/188 576/576/576 161/161/161
f 189/189/189 154/154/154 158/158/158
f 138/138/138 151/151/151 191/191/191
f 134/134/134 154/154/154 189/189/189
f 191/191/191 151/151/151 150/150/150
f 194/194/194 202/202/202 195/195/195
f 192/192/192 581/581/581 197/197/197
f 198/198/198 132/132/132 134/134/134
f 125/125/125 131/131/131 60/60/60
f 128/128/128 66/66/66 88/88/88
f 71/71/71 70/70/70 199/199/199
f 66/66/66 68/68/68 87/87/87
f 83/83/83 63/63/63 65/65/65
f 84/84/84 60/60/60 62/62/62
f 201/201/201 195/195/195 202/202/202
f 204/204/204 201/201/201 203/203/203
f 206/206/206 582/582/582 205/205/205
f 132/132/132 198/198/198 207/207/207
f 206/206/206 203/203/203 202/202/202
f 209/209/209 132/132/132 208/208/208
f 211/211/211 583/583/583 212/212/212
f 214/214/214 243/243/243 215/215/215
f 217/217/217 584/584/584 218/218/218
f 220/220/220 585/585/585 221/221/221
f 223/223/223 586/586/586 224/224/224
f 226/226/226 587/587/587 227/227/227
f 222/222/222 221/221/221 229/229/229
f 231/231/231 219/219/219 218/218/218
f 233/233/233 214/214/214 216/216/216
f 213/213/213 212/212/212 235/235/235
f 237/237/237 242/242/242 214/214/214
f 231/231/231 222/222/222 230/230/230
f 238/238/238 226/226/226 228/228/228
f 240/240/240 588/588/588 236/236/236
f 241/241/241 220/220/220 222/222/222
f 242/242/242 589/589/589 243/243/243
f 244/244/244 250/250/250 245/245/245
f 247/247/247 266/266/266 248/248/248
f 216/216/216 215/215/215 250/250/250
f 239/239/239 590/590/590 251/251/251
f 234/234/234 216/216/216 244/244/244
f 231/231/231 232/232/232 253/253/253
f 254/254/254 262/262/262 255/255/255
f 246/246/246 269/269/269 257/257/257
f 251/251/251 590/590/590 259/259/259
f 252/252/252 244/244/244 246/246/246
f 232/232/232 254/254/254 256/256/256
f 218/218/218 591/591/591 254/254/254
f 261/261/261 255/255/255 262/262/262
f 264/264/264 263/263/263 262/262/262
f 254/254/254 591/591/591 265/265/265
f 266/266/266 592/592/592 267/267/267
f 246/246/246 245/245/245 268/268/268
f 260/260/260 259/259/259 270/270/270
f 272/272/272 593/593/593 273/273/273
f 275/275/275 286/286/286 276/276/276
f 277/277/277 594/594/594 278/278/278
f 25/25/25 276/276/276 280/280/280
f 281/281/281 595/595/595 282/282/282
f 284/284/284 281/281/281 283/283/283
f 286/286/286 596/596/596 287/287/287
f 288/288/288 597/597/597 289/289/289
f 291/291/291 303/303/303 1/1/1
f 292/292/292 305/305/305 293/293/293
f 295/295/295 28/28/28 7/7/7
f 10/10/10 306/306/306 297/297/297
f 298/298/298 329/329/329 292/292/292
f 16/16/16 598/598/598 299/299/299
f 300/300/300 599/599/599 301/301/301
f 303/303/303 296/296/296 7/7/7
f 304/304/304 307/307/307 293/293/293
f 17/17/17 299/299/299 306/306/306
f 302/302/302 310/310/310 307/307/307
f 301/301/301 319/319/319 308/308/308
f 301/301/301 309/309/309 310/310/310
f 311/311/311 551/551/551 28/28/28
f 30/30/30 32/32/32 312/312/312
f 33/33/33 600/600/600 314/314/314
f 30/30/30 313/313/313 316/316/316
f 32/32/32 39/39/39 317/317/317
f 318/318/318 320/320/320 308/308/308
f 320/320/320 326/326/326 321/321/321
f 44/44/44 553/553/553 322/322/322
f 324/324/324 325/325/325 320/320/320
f 325/325/325 601/601/601 326/326/326
f 327/327/327 332/332/332 328/328/328
f 330/330/330 555/555/555 52/52/52
f 3/3/3 55/55/55 331/331/331
f 332/332/332 327/327/327 333/333/333
f 298/298/298 333/333/333 327/327/327
f 55/55/55 59/59/59 335/335/335
f 336/336/336 473/473/473 337/337/337
f 339/339/339 472/472/472 340/340/340
f 342/342/342 602/602/602 343/343/343
f 345/345/345 603/603/603 346/346/346
f 348/348/348 370/370/370 349/349/349
f 351/351/351 604/604/604 352/352/352
f 354/354/354 379/379/379 355/355/355
f 357/357/357 372/372/372 358/358/358
f 360/360/360 369/369/369 361/361/361
f 356/356/356 355/355/355 363/363/363
f 365/365/365 605/605/605 366/366/366
f 368/368/368 606/606/606 361/361/361
f 365/365/365 367/367/367 349/349/349
f 357/357/357 377/377/377 371/371/371
f 373/373/373 389/389/389 374/374/374
f 376/376/376 607/607/607 371/371/371
f 378/378/378 608/608/608 379/379/379
f 380/380/380 609/609/609 376/376/376
f 381/381/381 610/610/610 382/382/382
f 384/384/384 611/611/611 385/385/385
f 366/366/366 612/612/612 387/387/387
f 373/373/373 613/613/613 388/388/388
f 390/390/390 613/613/613 373/373/373
f 392/392/392 384/384/384 386/386/386
f 394/394/394 614/614/614 381/381/381
f 395/395/395 378/378/378 354/354/354
f 373/373/373 375/375/375 397/397/397
f 398/398/398 615/615/615 368/368/368
f 399/399/399 401/401/401 356/356/356
f 400/400/400 398/398/398 369/369/369
f 401/401/401 396/396/396 354/354/354
f 353/353/353 352/352/352 402/402/402
f 404/404/404 342/342/342 344/344/344
f 336/336/336 338/338/338 406/406/406
f 408/408/408 482/482/482 409/409/409
f 411/411/411 425/425/425 412/412/412
f 414/414/414 427/427/427 415/415/415
f 417/417/417 616/616/616 418/418/418
f 419/419/419 433/433/433 420/420/420
f 421/421/421 442/442/442 422/422/422
f 424/424/424 435/435/435 425/425/425
f 410/410/410 432/432/432 426/426/426
f 414/414/414 423/423/423 422/422/422
f 428/428/428 451/451/451 429/429/429
f 431/431/431 617/617/617 426/426/426
f 430/430/430 429/429/429 420/420/420
f 424/424/424 439/439/439 434/434/434
f 436/436/436 454/454/454 437/437/437
f 439/439/439 444/444/444 440/440/440
f 441/441/441 618/618/618 442/442/442
f 443/443/443 619/619/619 444/444/444
f 445/445/445 620/620/620 446/446/446
f 448/448/448 621/621/621 449/449/449
f 451/451/451 622/622/622 452/452/452
f 436/436/436 623/623/623 453/453/453
f 455/455/455 623/623/623 436/436/436
f 457/457/457 448/448/448 450/450/450
f 459/459/459 624/624/624 445/445/445
f 460/460/460 441/441/441 421/421/421
f 436/436/436 438/438/438 462/462/462
f 463/463/463 625/625/625 431/431/431
f 464/464/464 423/423/423 414/414/414
f 463/463/463 432/432/432 410/410/410
f 464/464/464 461/461/461 421/421/421
f 467/467/467 474/474/474 468/468/468
f 465/465/465 414/414/414 416/416/416
f 410/410/410 409/409/409 471/471/471
f 400/400/400 360/360/360 336/336/336
f 364/364/364 342/342/342 404/404/404
f 350/350/350 345/345/345 347/347/347
f 363/363/363 602/602/602 342/342/342
f 359/359/359 358/358/358 472/472/472
f 360/360/360 362/362/362 473/473/473
f 474/474/474 467/467/467 475/475/475
f 476/476/476 475/475/475 477/477/477
f 479/479/479 476/476/476 478/478/478
f 409/409/409 483/483/483 481/481/481
f 474/474/474 476/476/476 479/479/479
f 482/482/482 626/626/626 483/483/483
f 484/484/484 627/627/627 485/485/485
f 487/487/487 628/628/628 488/488/488
f 486/486/486 485/485/485 490/490/490
f 492/492/492 629/629/629 493/493/493
f 495/495/495 505/505/505 496/496/496
f 498/498/498 486/486/486 491/491/491
f 500/500/500 519/519/519 487/487/487
f 501/501/501 630/630/630 502/502/502
f 499/499/499 491/491/491 500/500/500
f 504/504/504 512/512/512 505/505/505
f 503/503/503 631/631/631 506/506/506
f 491/491/491 490/490/490 507/507/507
f 508/508/508 529/529/529 509/509/509
f 511/511/511 518/518/518 512/512/512
f 513/513/513 519/519/519 500/500/500
f 514/514/514 520/520/520 515/515/515
f 511/511/511 530/530/530 517/517/517
f 516/516/516 515/515/515 519/519/519
f 515/515/515 527/527/527 487/487/487
f 520/520/520 514/514/514 521/521/521
f 523/523/523 528/528/528 524/524/524
f 515/515/515 520/520/520 526/526/526
f 528/528/528 523/523/523 529/529/529
f 530/530/530 632/632/632 531/531/531
f 532/532/532 633/633/633 533/533/533
f 535/535/535 546/546/546 309/309/309
f 536/536/536 634/634/634 537/537/537
f 539/539/539 535/535/535 308/308/308
f 540/540/540 635/635/635 541/541/541
f 543/543/543 636/636/636 544/544/544
f 540/540/540 542/542/542 546/546/546
f 547/547/547 637/637/637 548/548/548
