# Cube -- imported by tools/import_asset_pack.py from Tick.fbx
o __pending__
v -1.103066 -0.065632 -0.006875
v -1.103066 -0.050018 -0.054337
v -1.064094 -0.057666 -0.020693
v -1.128413 -0.039109 0.077901
v -1.127152 -0.060335 0.049592
v -1.103066 -0.044304 0.088733
v -1.142039 -0.057527 -0.021283
v -1.078980 -0.058508 0.051498
v -1.128413 -0.039109 0.077901
v -1.103066 -0.044304 0.088733
v -1.127152 -0.012111 0.086631
v -1.169370 -0.027975 -0.027067
v -1.166125 -0.048593 0.035045
v -1.181012 -0.001526 0.001084
v -1.103066 -0.013287 -0.078764
v -1.142039 -0.023927 -0.063078
v -1.127152 0.018940 -0.075096
v -1.036762 -0.028175 -0.026830
v -1.064094 -0.024026 -0.063037
v -1.040007 0.009255 -0.046184
v -1.077720 -0.039210 0.077850
v -1.040007 -0.047507 0.036120
v -1.064062 -0.008913 0.066456
v -1.142071 -0.009272 0.066410
v -1.166125 0.009331 -0.046157
v -1.103066 -0.013287 -0.078764
v -1.127152 0.018940 -0.075096
v -1.078980 0.019023 -0.075075
v -1.025121 -0.001413 0.001003
v -1.078980 -0.012111 0.086631
v -1.159262 0.025348 0.022906
v -1.142039 0.028371 0.045694
v -1.129770 0.049209 0.016047
v -1.144044 0.043053 -0.048987
v -1.156512 0.034062 -0.009504
v -1.119570 0.056121 -0.013494
v -1.062088 0.043093 -0.048947
v -1.103066 0.052020 -0.056989
v -1.086562 0.056125 -0.013473
v -1.046870 0.025546 0.022713
v -1.049621 0.034058 -0.009546
v -1.076362 0.049219 0.016020
v -1.103066 0.019374 0.061948
v -1.064094 0.028623 0.045554
v -1.103066 0.042986 0.033766
v -1.103066 0.055273 0.012248
v -1.078980 -0.012111 0.086631
v -1.064094 0.028623 0.045554
v -1.046870 0.025546 0.022713
v -1.025121 -0.001413 0.001003
v -1.049621 0.034058 -0.009546
v -1.049621 0.034058 -0.009546
v -1.062088 0.043093 -0.048947
v -1.103066 0.052020 -0.056989
v -1.144044 0.043053 -0.048987
v -1.103066 0.052020 -0.056989
v -1.156512 0.034062 -0.009504
v -1.159262 0.025348 0.022906
v -1.142039 0.028371 0.045694
v -1.159262 0.025348 0.022906
v -1.103066 0.019374 0.061948
v -1.036762 -0.028175 -0.026830
v -1.181012 -0.001526 0.001084
v -1.166125 -0.048593 0.035045
v -1.078980 -0.012111 0.086631
v -1.103066 -0.044304 0.088733
v -1.040007 -0.047507 0.036120
v -1.077720 -0.039210 0.077850
v -1.036762 -0.028175 -0.026830
v -1.142039 -0.023927 -0.063078
v -1.103066 -0.013287 -0.078764
v -1.169370 -0.027975 -0.027067
v -1.166125 -0.048593 0.035045
v -1.064094 -0.024026 -0.063037
v -1.128121 -0.033923 0.083884
v -1.116793 -0.022949 0.086693
v -1.116793 -0.033923 0.083884
v -1.119987 -0.035596 0.100026
v -1.114323 -0.035856 0.116530
v -1.114323 -0.036942 0.116252
v -1.114323 -0.035856 0.116530
v -1.115106 -0.036942 0.116252
v -1.114323 -0.036942 0.116252
v -1.126043 -0.035596 0.100026
v -1.128121 -0.022949 0.086693
v -1.128121 -0.033923 0.083884
v -1.119987 -0.035596 0.100026
v -1.115106 -0.036942 0.116252
v -1.126043 -0.035596 0.100026
v -1.119987 -0.029239 0.101654
v -1.128121 -0.022949 0.086693
v -1.126043 -0.029239 0.101654
v -1.115106 -0.035856 0.116530
v -1.114323 -0.035856 0.116530
v -1.128121 -0.033923 0.083884
v -1.116793 -0.033923 0.083884
v -1.126043 -0.029239 0.101654
v -1.126043 -0.035596 0.100026
v -1.116793 -0.033923 0.083884
v -1.119987 -0.029239 0.101654
v -1.119987 -0.035596 0.100026
v -1.087533 -0.033923 0.083884
v -1.076205 -0.022949 0.086693
v -1.076205 -0.033923 0.083884
v -1.090003 -0.036942 0.116252
v -1.084339 -0.029239 0.101654
v -1.084339 -0.035596 0.100026
v -1.089220 -0.036942 0.116252
v -1.090003 -0.035856 0.116530
v -1.090003 -0.036942 0.116252
v -1.076205 -0.033923 0.083884
v -1.078284 -0.029239 0.101654
v -1.078284 -0.035596 0.100026
v -1.084339 -0.035596 0.100026
v -1.089220 -0.036942 0.116252
v -1.090003 -0.036942 0.116252
v -1.084339 -0.029239 0.101654
v -1.076205 -0.022949 0.086693
v -1.087533 -0.022949 0.086693
v -1.089220 -0.035856 0.116530
v -1.090003 -0.035856 0.116530
v -1.076205 -0.033923 0.083884
v -1.087533 -0.033923 0.083884
v -1.089220 -0.035856 0.116530
v -1.089220 -0.036942 0.116252
v -1.087533 -0.033923 0.083884
v -1.084339 -0.029239 0.101654
v -1.087533 -0.022949 0.086693
v -1.106003 -0.028449 0.086329
v -1.111280 -0.030575 0.096668
v -1.113919 -0.032926 0.085409
v -1.106003 -0.028449 0.086329
v -1.113919 -0.032926 0.085409
v -1.113919 -0.023972 0.087250
v -1.113919 -0.032926 0.085409
v -1.111280 -0.030575 0.096668
v -1.113919 -0.023972 0.087250
v -1.113919 -0.023972 0.087250
v -1.111280 -0.030575 0.096668
v -1.106003 -0.028449 0.086329
v -1.098273 -0.028772 0.086305
v -1.103551 -0.030899 0.096644
v -1.106190 -0.033249 0.085384
v -1.098273 -0.028772 0.086305
v -1.106190 -0.033249 0.085384
v -1.106190 -0.024296 0.087226
v -1.106190 -0.033249 0.085384
v -1.103551 -0.030899 0.096644
v -1.106190 -0.024296 0.087226
v -1.106190 -0.024296 0.087226
v -1.103551 -0.030899 0.096644
v -1.098273 -0.028772 0.086305
v -1.090562 -0.029074 0.086188
v -1.095839 -0.031201 0.096527
v -1.098478 -0.033551 0.085267
v -1.090562 -0.029074 0.086188
v -1.098478 -0.033551 0.085267
v -1.098478 -0.024598 0.087108
v -1.098478 -0.033551 0.085267
v -1.095839 -0.031201 0.096527
v -1.098478 -0.024598 0.087108
v -1.098478 -0.024598 0.087108
v -1.095839 -0.031201 0.096527
v -1.090562 -0.029074 0.086188
v -1.169554 -0.041919 0.041722
v -1.192381 -0.032453 0.052618
v -1.169554 -0.029819 0.041722
v -1.192381 -0.032453 0.052618
v -1.165476 -0.029819 0.050265
v -1.169554 -0.029819 0.041722
v -1.188303 -0.032453 0.061161
v -1.165476 -0.041919 0.050265
v -1.165476 -0.029819 0.050265
v -1.165476 -0.041919 0.050265
v -1.192381 -0.041919 0.052618
v -1.169554 -0.041919 0.041722
v -1.155822 -0.031017 0.047247
v -1.161136 -0.043354 0.036113
v -1.161136 -0.031017 0.036113
v -1.192381 -0.032453 0.052618
v -1.188303 -0.041918 0.061161
v -1.188303 -0.032453 0.061161
v -1.161136 -0.043354 0.036113
v -1.155822 -0.043354 0.047247
v -1.155822 -0.031017 0.047247
v -1.155822 -0.043354 0.047247
v -1.155822 -0.031017 0.047247
v -1.161136 -0.031017 0.036113
v -1.161136 -0.031017 0.036113
v -1.161136 -0.043354 0.036113
v -1.213478 -0.039962 0.064591
v -1.222862 -0.032453 0.067167
v -1.213478 -0.033092 0.064591
v -1.213478 -0.033092 0.064591
v -1.218785 -0.032453 0.075710
v -1.210880 -0.033092 0.070034
v -1.218785 -0.032453 0.075710
v -1.210880 -0.039962 0.070034
v -1.210880 -0.033092 0.070034
v -1.218785 -0.041918 0.075710
v -1.213478 -0.039962 0.064591
v -1.210880 -0.039962 0.070034
v -1.191718 -0.030783 0.050451
v -1.186202 -0.043589 0.062008
v -1.191718 -0.043589 0.050451
v -1.218785 -0.032453 0.075710
v -1.222862 -0.041918 0.067167
v -1.218785 -0.041918 0.075710
v -1.195957 -0.041918 0.064814
v -1.191718 -0.043589 0.050451
v -1.186202 -0.043589 0.062008
v -1.186202 -0.030783 0.062008
v -1.195957 -0.041918 0.064814
v -1.186202 -0.043589 0.062008
v -1.191718 -0.030783 0.050451
v -1.195957 -0.029819 0.064814
v -1.186202 -0.030783 0.062008
v -1.200035 -0.041918 0.056271
v -1.191718 -0.030783 0.050451
v -1.191718 -0.043589 0.050451
v -1.200035 -0.041918 0.056271
v -1.195957 -0.029819 0.064814
v -1.200035 -0.029819 0.056271
v -1.200035 -0.029819 0.056271
v -1.220135 -0.031465 0.070855
v -1.261614 -0.037186 0.090654
v -1.218001 -0.040046 0.075326
v -1.220135 -0.031465 0.070855
v -1.218001 -0.040046 0.075326
v -1.222269 -0.040046 0.066384
v -1.218001 -0.040046 0.075326
v -1.261614 -0.037186 0.090654
v -1.222269 -0.040046 0.066384
v -1.222269 -0.040046 0.066384
v -1.261614 -0.037186 0.090654
v -1.220135 -0.031465 0.070855
v -1.149638 -0.037889 0.067313
v -1.162038 -0.030726 0.081897
v -1.149638 -0.028732 0.067313
v -1.162038 -0.030726 0.081897
v -1.144181 -0.028732 0.071954
v -1.149638 -0.028732 0.067313
v -1.156580 -0.030726 0.086537
v -1.144181 -0.037889 0.071954
v -1.144181 -0.028732 0.071954
v -1.144181 -0.037889 0.071954
v -1.162038 -0.037889 0.081897
v -1.149638 -0.037889 0.067313
v -1.138445 -0.029639 0.066885
v -1.145558 -0.038976 0.060837
v -1.145558 -0.029639 0.060837
v -1.162038 -0.030726 0.081897
v -1.156580 -0.037889 0.086537
v -1.156580 -0.030726 0.086537
v -1.145558 -0.038976 0.060837
v -1.138445 -0.038976 0.066885
v -1.138445 -0.029639 0.066885
v -1.138445 -0.038976 0.066885
v -1.138445 -0.029639 0.066885
v -1.145558 -0.029639 0.060837
v -1.145558 -0.029639 0.060837
v -1.145558 -0.038976 0.060837
v -1.172909 -0.036409 0.096689
v -1.178595 -0.030726 0.101370
v -1.172909 -0.031209 0.096689
v -1.172909 -0.031209 0.096689
v -1.173137 -0.030726 0.106010
v -1.169432 -0.031209 0.099646
v -1.173137 -0.030726 0.106010
v -1.169432 -0.036409 0.099646
v -1.169432 -0.031209 0.099646
v -1.173137 -0.037889 0.106010
v -1.172909 -0.036409 0.096689
v -1.169432 -0.036409 0.099646
v -1.154867 -0.029462 0.086473
v -1.162250 -0.039153 0.080195
v -1.162250 -0.029462 0.080195
v -1.178595 -0.030726 0.101370
v -1.173137 -0.037889 0.106010
v -1.173137 -0.030726 0.106010
v -1.160738 -0.037889 0.091427
v -1.162250 -0.039153 0.080195
v -1.154867 -0.039153 0.086473
v -1.154867 -0.029462 0.086473
v -1.160738 -0.037889 0.091427
v -1.154867 -0.039153 0.086473
v -1.162250 -0.029462 0.080195
v -1.160738 -0.028732 0.091427
v -1.154867 -0.029462 0.086473
v -1.166195 -0.037889 0.086786
v -1.162250 -0.029462 0.080195
v -1.162250 -0.039153 0.080195
v -1.166195 -0.037889 0.086786
v -1.160738 -0.028732 0.091427
v -1.166195 -0.028732 0.086786
v -1.166195 -0.028732 0.086786
v -1.175571 -0.029978 0.103074
v -1.198102 -0.034307 0.129573
v -1.172714 -0.036472 0.105502
v -1.175571 -0.029978 0.103074
v -1.172714 -0.036472 0.105502
v -1.178427 -0.036472 0.100645
v -1.172714 -0.036472 0.105502
v -1.198102 -0.034307 0.129573
v -1.178427 -0.036472 0.100645
v -1.178427 -0.036472 0.100645
v -1.198102 -0.034307 0.129573
v -1.175571 -0.029978 0.103074
v -1.173907 -0.040455 0.016021
v -1.199201 -0.030990 0.016021
v -1.173907 -0.028356 0.016021
v -1.199201 -0.030990 0.016021
v -1.173907 -0.028356 0.025487
v -1.173907 -0.028356 0.016021
v -1.199201 -0.030990 0.025487
v -1.173907 -0.040455 0.025487
v -1.173907 -0.028356 0.025487
v -1.173907 -0.040455 0.025487
v -1.199201 -0.040455 0.016021
v -1.173907 -0.040455 0.016021
v -1.163894 -0.029554 0.026923
v -1.163894 -0.041891 0.014585
v -1.163894 -0.029554 0.014585
v -1.199201 -0.030990 0.016021
v -1.199201 -0.040455 0.025487
v -1.199201 -0.030990 0.025487
v -1.163894 -0.041891 0.026923
v -1.163894 -0.041891 0.014585
v -1.163894 -0.029554 0.026923
v -1.163894 -0.041891 0.026923
v -1.163894 -0.029554 0.026923
v -1.163894 -0.029554 0.014585
v -1.163894 -0.029554 0.014585
v -1.163894 -0.041891 0.014585
v -1.223398 -0.038499 0.017738
v -1.232977 -0.030990 0.016021
v -1.223398 -0.031629 0.017738
v -1.232977 -0.030990 0.016021
v -1.223398 -0.031629 0.023770
v -1.223398 -0.031629 0.017738
v -1.232977 -0.030990 0.025487
v -1.223398 -0.038499 0.023770
v -1.223398 -0.031629 0.023770
v -1.232977 -0.040455 0.025487
v -1.223398 -0.038499 0.017738
v -1.223398 -0.038499 0.023770
v -1.197670 -0.029320 0.027157
v -1.197670 -0.042126 0.014351
v -1.197670 -0.029320 0.014351
v -1.232977 -0.030990 0.016021
v -1.232977 -0.040455 0.025487
v -1.232977 -0.030990 0.025487
v -1.207682 -0.040455 0.025487
v -1.197670 -0.042126 0.014351
v -1.197670 -0.042126 0.027157
v -1.197670 -0.029320 0.027157
v -1.207682 -0.040455 0.025487
v -1.197670 -0.042126 0.027157
v -1.207682 -0.028356 0.016021
v -1.197670 -0.029320 0.027157
v -1.197670 -0.029320 0.014351
v -1.207682 -0.040455 0.016021
v -1.197670 -0.029320 0.014351
v -1.197670 -0.042126 0.014351
v -1.207682 -0.040455 0.016021
v -1.207682 -0.028356 0.025487
v -1.207682 -0.028356 0.025487
v -1.207682 -0.028356 0.016021
v -1.232104 -0.030002 0.020524
v -1.278066 -0.035723 0.020524
v -1.232104 -0.038583 0.025478
v -1.232104 -0.030002 0.020524
v -1.232104 -0.038583 0.025478
v -1.232104 -0.038583 0.015570
v -1.232104 -0.038583 0.025478
v -1.278066 -0.035723 0.020524
v -1.232104 -0.038583 0.015570
v -1.232104 -0.038583 0.015570
v -1.278066 -0.035723 0.020524
v -1.232104 -0.030002 0.020524
v -1.165383 -0.036744 -0.009556
v -1.188146 -0.027278 -0.020587
v -1.165383 -0.024644 -0.009556
v -1.188146 -0.027278 -0.020587
v -1.169511 -0.024644 -0.001038
v -1.165383 -0.024644 -0.009556
v -1.192274 -0.027278 -0.012069
v -1.169511 -0.036744 -0.001038
v -1.169511 -0.024644 -0.001038
v -1.169511 -0.036744 -0.001038
v -1.188146 -0.036744 -0.020587
v -1.165383 -0.036744 -0.009556
v -1.161127 -0.025842 0.004620
v -1.155747 -0.038180 -0.006482
v -1.155747 -0.025842 -0.006482
v -1.188146 -0.027278 -0.020587
v -1.192274 -0.036744 -0.012069
v -1.192274 -0.027278 -0.012069
v -1.155747 -0.038180 -0.006482
v -1.161127 -0.038180 0.004620
v -1.161127 -0.025842 0.004620
v -1.161127 -0.038180 0.004620
v -1.161127 -0.025842 0.004620
v -1.155747 -0.025842 -0.006482
v -1.155747 -0.025842 -0.006482
v -1.155747 -0.038180 -0.006482
v -1.210670 -0.034788 -0.029594
v -1.218541 -0.027278 -0.035316
v -1.210670 -0.027917 -0.029594
v -1.210670 -0.027917 -0.029594
v -1.222669 -0.027278 -0.026798
v -1.213300 -0.027917 -0.024166
v -1.222669 -0.027278 -0.026798
v -1.213300 -0.034788 -0.024166
v -1.213300 -0.027917 -0.024166
v -1.222669 -0.036744 -0.026798
v -1.210670 -0.034788 -0.029594
v -1.213300 -0.034788 -0.024166
v -1.186040 -0.025608 -0.021422
v -1.191624 -0.038414 -0.009898
v -1.186040 -0.038414 -0.021422
v -1.222669 -0.027278 -0.026798
v -1.218541 -0.036744 -0.035316
v -1.222669 -0.036744 -0.026798
v -1.191624 -0.038414 -0.009898
v -1.195778 -0.036744 -0.024286
v -1.186040 -0.038414 -0.021422
v -1.191624 -0.025608 -0.009898
v -1.199906 -0.036744 -0.015767
v -1.191624 -0.038414 -0.009898
v -1.186040 -0.025608 -0.021422
v -1.199906 -0.024644 -0.015767
v -1.191624 -0.025608 -0.009898
v -1.195778 -0.036744 -0.024286
v -1.186040 -0.025608 -0.021422
v -1.186040 -0.038414 -0.021422
v -1.199906 -0.036744 -0.015767
v -1.199906 -0.024644 -0.015767
v -1.195778 -0.024644 -0.024286
v -1.195778 -0.024644 -0.024286
v -1.219719 -0.026291 -0.030884
v -1.261080 -0.032011 -0.050927
v -1.221879 -0.034871 -0.026425
v -1.219719 -0.026291 -0.030884
v -1.221879 -0.034871 -0.026425
v -1.217558 -0.034871 -0.035342
v -1.221879 -0.034871 -0.026425
v -1.261080 -0.032011 -0.050927
v -1.217558 -0.034871 -0.035342
v -1.217558 -0.034871 -0.035342
v -1.261080 -0.032011 -0.050927
v -1.219719 -0.026291 -0.030884
v -1.036579 -0.041919 0.041722
v -1.013751 -0.032453 0.052618
v -1.013751 -0.041919 0.052618
v -1.040656 -0.029819 0.050265
v -1.013751 -0.032453 0.052618
v -1.036579 -0.029819 0.041722
v -1.040656 -0.041919 0.050265
v -1.017829 -0.032453 0.061161
v -1.040656 -0.029819 0.050265
v -1.036579 -0.041919 0.041722
v -1.017829 -0.041918 0.061161
v -1.040656 -0.041919 0.050265
v -1.044996 -0.043354 0.036113
v -1.050311 -0.031017 0.047247
v -1.044996 -0.031017 0.036113
v -1.017829 -0.041918 0.061161
v -1.013751 -0.032453 0.052618
v -1.017829 -0.032453 0.061161
v -1.050311 -0.043354 0.047247
v -1.050311 -0.031017 0.047247
v -1.050311 -0.031017 0.047247
v -1.044996 -0.031017 0.036113
v -1.044996 -0.031017 0.036113
v -1.044996 -0.043354 0.036113
v -0.992654 -0.039962 0.064591
v -0.983270 -0.032453 0.067167
v -0.983270 -0.041919 0.067167
v -0.995252 -0.033092 0.070034
v -0.983270 -0.032453 0.067167
v -0.992654 -0.033092 0.064591
v -0.995252 -0.039962 0.070034
v -0.987347 -0.032453 0.075710
v -0.995252 -0.033092 0.070034
v -0.992654 -0.039962 0.064591
v -0.987347 -0.041919 0.075710
v -0.995252 -0.039962 0.070034
v -1.014414 -0.043589 0.050451
v -1.019930 -0.030783 0.062008
v -1.014414 -0.030783 0.050451
v -0.987347 -0.041919 0.075710
v -0.983270 -0.032453 0.067167
v -0.987347 -0.032453 0.075710
v -1.014414 -0.043589 0.050451
v -1.010175 -0.041918 0.064814
v -1.019930 -0.043589 0.062008
v -1.019930 -0.030783 0.062008
v -1.010175 -0.041918 0.064814
v -1.010175 -0.029819 0.064814
v -1.014414 -0.030783 0.050451
v -1.010175 -0.029819 0.064814
v -1.006097 -0.029819 0.056271
v -1.014414 -0.030783 0.050451
v -1.006097 -0.041918 0.056271
v -1.014414 -0.043589 0.050451
v -0.992654 -0.033092 0.064591
v -0.985997 -0.031465 0.070855
v -0.988132 -0.040046 0.075326
v -0.944518 -0.037186 0.090654
v -0.985997 -0.031465 0.070855
v -0.983863 -0.040046 0.066384
v -0.988132 -0.040046 0.075326
v -0.988132 -0.040046 0.075326
v -0.983863 -0.040046 0.066384
v -0.944518 -0.037186 0.090654
v -0.983863 -0.040046 0.066384
v -0.985997 -0.031465 0.070855
v -0.944518 -0.037186 0.090654
v -1.056494 -0.037889 0.067313
v -1.044095 -0.030726 0.081897
v -1.044095 -0.037889 0.081897
v -1.061952 -0.028732 0.071954
v -1.044095 -0.030726 0.081897
v -1.056494 -0.028732 0.067313
v -1.061952 -0.037889 0.071954
v -1.049552 -0.030726 0.086537
v -1.061952 -0.028732 0.071954
v -1.056494 -0.037889 0.067313
v -1.049552 -0.037889 0.086537
v -1.061952 -0.037889 0.071954
v -1.060575 -0.038976 0.060837
v -1.067688 -0.029639 0.066885
v -1.060575 -0.029639 0.060837
v -1.049552 -0.030726 0.086537
v -1.044095 -0.037889 0.081897
v -1.044095 -0.030726 0.081897
v -1.060575 -0.038976 0.060837
v -1.067688 -0.038976 0.066885
v -1.067688 -0.029639 0.066885
v -1.067688 -0.029639 0.066885
v -1.060575 -0.029639 0.060837
v -1.060575 -0.029639 0.060837
v -1.060575 -0.038976 0.060837
v -1.033223 -0.036409 0.096689
v -1.027538 -0.030726 0.101370
v -1.027538 -0.037889 0.101370
v -1.036701 -0.031209 0.099646
v -1.027538 -0.030726 0.101370
v -1.033223 -0.031209 0.096689
v -1.036701 -0.036409 0.099646
v -1.032995 -0.030726 0.106010
v -1.036701 -0.031209 0.099646
v -1.033223 -0.036409 0.096689
v -1.032995 -0.037889 0.106010
v -1.036701 -0.036409 0.099646
v -1.043882 -0.039153 0.080195
v -1.051266 -0.029462 0.086473
v -1.043882 -0.029462 0.080195
v -1.032995 -0.037889 0.106010
v -1.027538 -0.030726 0.101370
v -1.032995 -0.030726 0.106010
v -1.043882 -0.039153 0.080195
v -1.045395 -0.037889 0.091427
v -1.051266 -0.039153 0.086473
v -1.051266 -0.029462 0.086473
v -1.045395 -0.037889 0.091427
v -1.045395 -0.028732 0.091427
v -1.051266 -0.029462 0.086473
v -1.039937 -0.028732 0.086787
v -1.043882 -0.029462 0.080195
v -1.043882 -0.029462 0.080195
v -1.039937 -0.037889 0.086787
v -1.043882 -0.039153 0.080195
v -1.039937 -0.037889 0.086787
v -1.033223 -0.031209 0.096689
v -1.030562 -0.029978 0.103074
v -1.033418 -0.036472 0.105502
v -1.008030 -0.034307 0.129573
v -1.030562 -0.029978 0.103074
v -1.027705 -0.036472 0.100645
v -1.033418 -0.036472 0.105502
v -1.033418 -0.036472 0.105502
v -1.027705 -0.036472 0.100645
v -1.008030 -0.034307 0.129573
v -1.027705 -0.036472 0.100645
v -1.030562 -0.029978 0.103074
v -1.008030 -0.034307 0.129573
v -1.032226 -0.040455 0.016021
v -1.006931 -0.030990 0.016021
v -1.006931 -0.040455 0.016021
v -1.032226 -0.028356 0.025487
v -1.006931 -0.030990 0.016021
v -1.032226 -0.028356 0.016021
v -1.032226 -0.040455 0.025487
v -1.006931 -0.030990 0.025487
v -1.032226 -0.028356 0.025487
v -1.032226 -0.040455 0.016021
v -1.006931 -0.040455 0.025487
v -1.032226 -0.040455 0.025487
v -1.042238 -0.041891 0.014585
v -1.042238 -0.029554 0.026923
v -1.042238 -0.029554 0.014585
v -1.006931 -0.040455 0.025487
v -1.006931 -0.030990 0.016021
v -1.006931 -0.030990 0.025487
v -1.042238 -0.041891 0.014585
v -1.042238 -0.041891 0.026923
v -1.042238 -0.029554 0.026923
v -1.042238 -0.029554 0.026923
v -1.042238 -0.029554 0.014585
v -1.042238 -0.029554 0.014585
v -1.042238 -0.041891 0.014585
v -0.982734 -0.038499 0.017738
v -0.973156 -0.030990 0.016021
v -0.973156 -0.040455 0.016021
v -0.982734 -0.031629 0.023770
v -0.973156 -0.030990 0.016021
v -0.982734 -0.031629 0.017738
v -0.982734 -0.038499 0.023770
v -0.973156 -0.030990 0.025487
v -0.982734 -0.031629 0.023770
v -0.982734 -0.038499 0.017738
v -0.973156 -0.040455 0.025487
v -0.982734 -0.038499 0.023770
v -1.008463 -0.042126 0.014351
v -1.008463 -0.029320 0.027157
v -1.008463 -0.029320 0.014351
v -0.973156 -0.040455 0.025487
v -0.973156 -0.030990 0.016021
v -0.973156 -0.030990 0.025487
v -1.008463 -0.042126 0.014351
v -0.998450 -0.040455 0.025487
v -1.008463 -0.042126 0.027157
v -1.008463 -0.029320 0.027157
v -0.998450 -0.040455 0.025487
v -0.998450 -0.028356 0.025487
v -1.008463 -0.029320 0.027157
v -0.998450 -0.028356 0.016021
v -1.008463 -0.029320 0.014351
v -1.008463 -0.029320 0.014351
v -0.998450 -0.040455 0.016021
v -1.008463 -0.042126 0.014351
v -0.998450 -0.040455 0.016021
v -0.982734 -0.031629 0.017738
v -0.974029 -0.030002 0.020524
v -0.974029 -0.038583 0.025478
v -0.928066 -0.035723 0.020524
v -0.974029 -0.030002 0.020524
v -0.974029 -0.038583 0.015570
v -0.974029 -0.038583 0.025478
v -0.974029 -0.038583 0.025478
v -0.974029 -0.038583 0.015570
v -0.928066 -0.035723 0.020524
v -0.974029 -0.038583 0.015570
v -0.974029 -0.030002 0.020524
v -0.928066 -0.035723 0.020524
v -1.040749 -0.036744 -0.009556
v -1.017986 -0.027278 -0.020587
v -1.017986 -0.036744 -0.020587
v -1.040749 -0.024644 -0.009556
v -1.013858 -0.027278 -0.012069
v -1.017986 -0.027278 -0.020587
v -1.036621 -0.036744 -0.001038
v -1.013858 -0.027278 -0.012069
v -1.036621 -0.024644 -0.001038
v -1.040749 -0.036744 -0.009556
v -1.013858 -0.036744 -0.012069
v -1.036621 -0.036744 -0.001038
v -1.050385 -0.038180 -0.006482
v -1.045005 -0.025842 0.004620
v -1.050385 -0.025842 -0.006482
v -1.013858 -0.036744 -0.012069
v -1.017986 -0.027278 -0.020587
v -1.013858 -0.027278 -0.012069
v -1.050385 -0.038180 -0.006482
v -1.045005 -0.038180 0.004620
v -1.045005 -0.025842 0.004620
v -1.050385 -0.025842 -0.006482
v -1.036621 -0.024644 -0.001038
v -1.050385 -0.025842 -0.006482
v -1.050385 -0.038180 -0.006482
v -0.995463 -0.034788 -0.029594
v -0.987592 -0.027278 -0.035316
v -0.987592 -0.036744 -0.035316
v -0.992832 -0.027917 -0.024166
v -0.987592 -0.027278 -0.035316
v -0.995463 -0.027917 -0.029594
v -0.992832 -0.034788 -0.024166
v -0.983464 -0.027278 -0.026798
v -0.992832 -0.027917 -0.024166
v -0.992832 -0.034788 -0.024166
v -0.987592 -0.036744 -0.035316
v -0.983464 -0.036744 -0.026798
v -1.020093 -0.038414 -0.021422
v -1.014508 -0.025608 -0.009898
v -1.020093 -0.025608 -0.021422
v -0.983464 -0.036744 -0.026798
v -0.987592 -0.027278 -0.035316
v -0.983464 -0.027278 -0.026798
v -1.020093 -0.038414 -0.021422
v -1.006226 -0.036744 -0.015767
v -1.014508 -0.038414 -0.009898
v -1.014508 -0.025608 -0.009898
v -1.006226 -0.036744 -0.015767
v -1.006226 -0.024644 -0.015767
v -1.020093 -0.025608 -0.021422
v -1.006226 -0.024644 -0.015767
v -1.010354 -0.024644 -0.024286
v -1.020093 -0.025608 -0.021422
v -1.010354 -0.036744 -0.024286
v -1.020093 -0.038414 -0.021422
v -1.010354 -0.036744 -0.024286
v -0.995463 -0.027917 -0.029594
v -0.986414 -0.026291 -0.030884
v -0.984253 -0.034871 -0.026425
v -0.945052 -0.032011 -0.050927
v -0.986414 -0.026291 -0.030884
v -0.988574 -0.034871 -0.035342
v -0.984253 -0.034871 -0.026425
v -0.984253 -0.034871 -0.026425
v -0.988574 -0.034871 -0.035342
v -0.945052 -0.032011 -0.050927
v -0.988574 -0.034871 -0.035342
v -0.986414 -0.026291 -0.030884
v -0.945052 -0.032011 -0.050927
v -1.128121 -0.022949 0.086693
v -1.119987 -0.029239 0.101654
v -1.115106 -0.035856 0.116530
v -1.126043 -0.029239 0.101654
v -1.114323 -0.036942 0.116252
v -1.116793 -0.022949 0.086693
v -1.116793 -0.022949 0.086693
v -1.087533 -0.022949 0.086693
v -1.090003 -0.035856 0.116530
v -1.089220 -0.035856 0.116530
v -1.076205 -0.022949 0.086693
v -1.078284 -0.035596 0.100026
v -1.078284 -0.029239 0.101654
v -1.084339 -0.035596 0.100026
v -1.192381 -0.041919 0.052618
v -1.188303 -0.032453 0.061161
v -1.188303 -0.041918 0.061161
v -1.188303 -0.041918 0.061161
v -1.155822 -0.043354 0.047247
v -1.192381 -0.041919 0.052618
v -1.222862 -0.041918 0.067167
v -1.222862 -0.032453 0.067167
v -1.218785 -0.041918 0.075710
v -1.222862 -0.041918 0.067167
v -1.186202 -0.030783 0.062008
v -1.222862 -0.032453 0.067167
v -1.162038 -0.037889 0.081897
v -1.156580 -0.030726 0.086537
v -1.156580 -0.037889 0.086537
v -1.156580 -0.037889 0.086537
v -1.138445 -0.038976 0.066885
v -1.162038 -0.037889 0.081897
v -1.178595 -0.037889 0.101370
v -1.178595 -0.030726 0.101370
v -1.173137 -0.037889 0.106010
v -1.178595 -0.037889 0.101370
v -1.154867 -0.039153 0.086473
v -1.178595 -0.037889 0.101370
v -1.199201 -0.040455 0.016021
v -1.199201 -0.030990 0.025487
v -1.199201 -0.040455 0.025487
v -1.199201 -0.040455 0.025487
v -1.163894 -0.041891 0.026923
v -1.199201 -0.040455 0.016021
v -1.232977 -0.040455 0.016021
v -1.232977 -0.030990 0.025487
v -1.232977 -0.040455 0.025487
v -1.232977 -0.040455 0.016021
v -1.197670 -0.042126 0.027157
v -1.232977 -0.040455 0.016021
v -1.188146 -0.036744 -0.020587
v -1.192274 -0.027278 -0.012069
v -1.192274 -0.036744 -0.012069
v -1.192274 -0.036744 -0.012069
v -1.161127 -0.038180 0.004620
v -1.188146 -0.036744 -0.020587
v -1.218541 -0.036744 -0.035316
v -1.218541 -0.027278 -0.035316
v -1.222669 -0.036744 -0.026798
v -1.218541 -0.036744 -0.035316
v -1.191624 -0.025608 -0.009898
v -1.218541 -0.027278 -0.035316
v -1.036579 -0.029819 0.041722
v -1.017829 -0.032453 0.061161
v -1.017829 -0.041918 0.061161
v -1.013751 -0.041919 0.052618
v -1.050311 -0.043354 0.047247
v -1.013751 -0.041919 0.052618
v -1.044996 -0.043354 0.036113
v -1.050311 -0.043354 0.047247
v -0.987347 -0.032453 0.075710
v -0.987347 -0.041919 0.075710
v -0.983270 -0.041919 0.067167
v -1.019930 -0.043589 0.062008
v -0.983270 -0.041919 0.067167
v -1.006097 -0.041918 0.056271
v -1.019930 -0.043589 0.062008
v -1.019930 -0.030783 0.062008
v -1.006097 -0.029819 0.056271
v -1.056494 -0.028732 0.067313
v -1.049552 -0.030726 0.086537
v -1.049552 -0.037889 0.086537
v -1.044095 -0.037889 0.081897
v -1.067688 -0.038976 0.066885
v -1.049552 -0.037889 0.086537
v -1.067688 -0.038976 0.066885
v -1.032995 -0.030726 0.106010
v -1.032995 -0.037889 0.106010
v -1.027538 -0.037889 0.101370
v -1.051266 -0.039153 0.086473
v -1.027538 -0.037889 0.101370
v -1.051266 -0.039153 0.086473
v -1.045395 -0.028732 0.091427
v -1.039937 -0.028732 0.086787
v -1.032226 -0.028356 0.016021
v -1.006931 -0.030990 0.025487
v -1.006931 -0.040455 0.025487
v -1.006931 -0.040455 0.016021
v -1.042238 -0.041891 0.026923
v -1.006931 -0.040455 0.016021
v -1.042238 -0.041891 0.026923
v -0.973156 -0.030990 0.025487
v -0.973156 -0.040455 0.025487
v -0.973156 -0.040455 0.016021
v -1.008463 -0.042126 0.027157
v -0.973156 -0.040455 0.016021
v -1.008463 -0.042126 0.027157
v -0.998450 -0.028356 0.025487
v -0.998450 -0.028356 0.016021
v -1.040749 -0.024644 -0.009556
v -1.013858 -0.036744 -0.012069
v -1.017986 -0.036744 -0.020587
v -1.045005 -0.038180 0.004620
v -1.017986 -0.036744 -0.020587
v -1.045005 -0.038180 0.004620
v -1.045005 -0.025842 0.004620
v -0.983464 -0.027278 -0.026798
v -0.983464 -0.036744 -0.026798
v -0.995463 -0.034788 -0.029594
v -1.014508 -0.038414 -0.009898
v -0.987592 -0.036744 -0.035316
v -1.014508 -0.038414 -0.009898
v -1.014508 -0.025608 -0.009898
v -1.010354 -0.024644 -0.024286
vt 0.453463 0.833357
vt 0.384851 0.904792
vt 0.501705 0.916990
vt 0.544663 0.654761
vt 0.504275 0.699341
vt 0.605162 0.678276
vt 0.368835 0.788363
vt 0.586393 0.778836
vt 0.466234 0.430520
vt 0.478253 0.366865
vt 0.403718 0.416322
vt 0.645522 0.447096
vt 0.665412 0.325804
vt 0.567236 0.391111
vt 0.656586 0.636439
vt 0.665412 0.550309
vt 0.583001 0.619433
vt 0.663355 0.736438
vt 0.645529 0.834857
vt 0.734932 0.779930
vt 0.026602 0.373283
vt 0.007226 0.497848
vt 0.098274 0.416433
vt 0.392248 0.472836
vt 0.576497 0.508140
vt 0.654212 0.935365
vt 0.725984 0.992774
vt 0.729557 0.896857
vt 0.740055 0.686657
vt 0.090366 0.357044
vt 0.262871 0.743531
vt 0.207547 0.700270
vt 0.207263 0.798269
vt 0.282824 0.937394
vt 0.282824 0.833039
vt 0.206916 0.882220
vt 0.096409 0.992774
vt 0.197150 0.989629
vt 0.131836 0.904524
vt 0.007226 0.819479
vt 0.039692 0.905268
vt 0.085781 0.834359
vt 0.106336 0.685943
vt 0.030255 0.752940
vt 0.129432 0.759721
vt 0.150808 0.829929
vt 0.032764 0.643977
vt 0.190090 0.466028
vt 0.180056 0.535993
vt 0.108833 0.600127
vt 0.190090 0.610705
vt 0.815387 0.762979
vt 0.806312 0.841920
vt 0.815387 0.937848
vt 0.505315 0.564698
vt 0.495348 0.640309
vt 0.492705 0.465423
vt 0.496717 0.385212
vt 0.297276 0.504405
vt 0.303049 0.571124
vt 0.321786 0.404801
vt 0.035690 0.629525
vt 0.370393 0.640309
vt 0.478253 0.556880
vt 0.399781 0.323588
vt 0.017397 0.319681
vt 0.631077 0.866661
vt 0.631077 0.738417
vt 0.534233 0.978889
vt 0.297276 0.864146
vt 0.335428 0.958134
vt 0.308180 0.760053
vt 0.416089 0.658537
vt 0.430147 0.992774
vt 0.963346 0.030819
vt 0.985726 0.060108
vt 0.985726 0.033750
vt 0.900726 0.698116
vt 0.904890 0.665817
vt 0.902282 0.665817
vt 0.724188 0.127967
vt 0.727046 0.129449
vt 0.726760 0.127967
vt 0.987049 0.153170
vt 0.963323 0.182438
vt 0.990058 0.182438
vt 0.760012 0.142983
vt 0.751384 0.182187
vt 0.774340 0.141925
vt 0.884040 0.758875
vt 0.900329 0.796337
vt 0.898351 0.760155
vt 0.875408 0.722278
vt 0.873557 0.722113
vt 0.776335 0.103421
vt 0.749531 0.105401
vt 0.714483 0.173140
vt 0.729543 0.173140
vt 0.859779 0.698116
vt 0.878548 0.661413
vt 0.863198 0.661413
vt 0.963346 0.074560
vt 0.985726 0.103850
vt 0.985726 0.077492
vt 0.839900 0.658843
vt 0.829839 0.698116
vt 0.845327 0.698116
vt 0.281343 0.626953
vt 0.282824 0.629239
vt 0.282824 0.626667
vt 0.485600 0.204421
vt 0.503982 0.169056
vt 0.488632 0.169056
vt 0.854432 0.143032
vt 0.863038 0.182292
vt 0.864890 0.182438
vt 0.891813 0.603135
vt 0.875487 0.640309
vt 0.902292 0.638316
vt 0.900439 0.566713
vt 0.902292 0.566575
vt 0.838097 0.103372
vt 0.864890 0.105486
vt 0.498149 0.123066
vt 0.495527 0.123066
vt 0.975672 0.991784
vt 0.960623 0.963292
vt 0.949696 0.992774
vt 0.965257 0.323696
vt 0.965257 0.351238
vt 0.983232 0.330368
vt 0.542236 0.021174
vt 0.526547 0.008834
vt 0.526547 0.030258
vt 0.939053 0.421564
vt 0.921764 0.409289
vt 0.921764 0.433787
vt 0.580701 0.055578
vt 0.564618 0.038232
vt 0.564618 0.065846
vt 0.641224 0.285531
vt 0.650809 0.311352
vt 0.660397 0.285531
vt 0.964174 0.543464
vt 0.948485 0.531124
vt 0.948485 0.552547
vt 0.896215 0.407862
vt 0.876211 0.414893
vt 0.896215 0.429036
vt 0.972280 0.433787
vt 0.972280 0.410132
vt 0.953505 0.430382
vt 0.965257 0.365690
vt 0.965257 0.393233
vt 0.983232 0.372363
vt 0.258063 0.019566
vt 0.242374 0.007226
vt 0.242374 0.028649
vt 0.934033 0.543399
vt 0.916744 0.531124
vt 0.916744 0.555622
vt 0.580701 0.097645
vt 0.564618 0.080298
vt 0.564618 0.107913
vt 0.671335 0.119445
vt 0.691308 0.171461
vt 0.700024 0.120262
vt 0.833364 0.796337
vt 0.855618 0.736347
vt 0.833163 0.736347
vt 0.912865 0.992774
vt 0.932626 0.940624
vt 0.904020 0.942859
vt 0.864047 0.256913
vt 0.841608 0.196890
vt 0.841588 0.256913
vt 0.987342 0.596481
vt 0.962397 0.567022
vt 0.962397 0.596300
vt 0.986462 0.857027
vt 0.966757 0.833995
vt 0.966757 0.856425
vt 0.838097 0.280620
vt 0.867370 0.280620
vt 0.906076 0.924519
vt 0.935244 0.922240
vt 0.859105 0.712568
vt 0.829839 0.712568
vt 0.698117 0.098085
vt 0.668864 0.097252
vt 0.797859 0.164332
vt 0.814539 0.182318
vt 0.814146 0.164921
vt 0.837061 0.370491
vt 0.855400 0.393233
vt 0.851368 0.370491
vt 0.924060 0.796337
vt 0.940315 0.773531
vt 0.924083 0.774941
vt 0.856377 0.810789
vt 0.838087 0.833591
vt 0.852398 0.833591
vt 0.930448 0.697929
vt 0.956341 0.667726
vt 0.930448 0.667539
vt 0.966757 0.893909
vt 0.986462 0.872081
vt 0.966757 0.871479
vt 0.856357 0.870813
vt 0.829839 0.894511
vt 0.860223 0.894511
vt 0.916169 0.728491
vt 0.943366 0.744017
vt 0.946422 0.725862
vt 0.828848 0.309467
vt 0.855199 0.333243
vt 0.859226 0.309467
vt 0.794963 0.130151
vt 0.822457 0.108729
vt 0.792101 0.107633
vt 0.833897 0.870813
vt 0.914782 0.746501
vt 0.832744 0.333243
vt 0.823645 0.131187
vt 0.546372 0.311352
vt 0.546372 0.218997
vt 0.526547 0.302518
vt 0.885652 0.552123
vt 0.895521 0.531760
vt 0.875487 0.531760
vt 0.703373 0.516648
vt 0.691807 0.407685
vt 0.679864 0.516648
vt 0.717825 0.416996
vt 0.717825 0.516648
vt 0.738156 0.424149
vt 0.436503 0.066978
vt 0.451587 0.112682
vt 0.458208 0.067805
vt 0.026731 0.045759
vt 0.009872 0.091219
vt 0.026865 0.091219
vt 0.533199 0.107913
vt 0.548235 0.062211
vt 0.526547 0.063279
vt 0.161396 0.090838
vt 0.144407 0.045409
vt 0.144401 0.090838
vt 0.507570 0.030879
vt 0.485599 0.008689
vt 0.485599 0.030846
vt 0.723725 0.672205
vt 0.706779 0.655155
vt 0.706779 0.672129
vt 0.141752 0.108807
vt 0.163902 0.108807
vt 0.528052 0.045799
vt 0.550166 0.044709
vt 0.007226 0.109187
vt 0.029374 0.109187
vt 0.456738 0.049573
vt 0.434607 0.048730
vt 0.929395 0.165153
vt 0.941945 0.182438
vt 0.941716 0.165707
vt 0.359667 0.066112
vt 0.345795 0.048916
vt 0.348840 0.066112
vt 0.492567 0.108614
vt 0.505021 0.090412
vt 0.492711 0.091106
vt 0.073394 0.045887
vt 0.059573 0.063108
vt 0.070402 0.063108
vt 0.691669 0.037335
vt 0.668864 0.014301
vt 0.668864 0.037300
vt 0.755124 0.672205
vt 0.738177 0.655155
vt 0.738177 0.672129
vt 0.073387 0.091316
vt 0.053312 0.109283
vt 0.076304 0.109283
vt 0.486582 0.046624
vt 0.507279 0.062807
vt 0.509527 0.045332
vt 0.365864 0.112347
vt 0.345929 0.094377
vt 0.342875 0.112347
vt 0.927173 0.136632
vt 0.947934 0.119334
vt 0.924970 0.118302
vt 0.056393 0.091316
vt 0.485599 0.064029
vt 0.362922 0.094377
vt 0.948871 0.137608
vt 0.542030 0.204545
vt 0.542030 0.122365
vt 0.526547 0.201338
vt 0.195825 0.019455
vt 0.211222 0.028277
vt 0.211249 0.010632
vt 0.578613 0.207849
vt 0.569866 0.125327
vt 0.560824 0.207849
vt 0.127300 0.206915
vt 0.116536 0.124438
vt 0.111573 0.206915
vt 0.922139 0.341595
vt 0.942027 0.393233
vt 0.950805 0.343260
vt 0.598766 0.212162
vt 0.621042 0.152259
vt 0.598584 0.152259
vt 0.925516 0.640309
vt 0.945414 0.591374
vt 0.916744 0.591712
vt 0.368798 0.186813
vt 0.346354 0.126799
vt 0.346335 0.186813
vt 0.985794 0.795715
vt 0.960874 0.767081
vt 0.960874 0.796337
vt 0.361624 0.034062
vt 0.342875 0.012011
vt 0.342875 0.034464
vt 0.372153 0.210488
vt 0.342875 0.210488
vt 0.918712 0.570418
vt 0.947945 0.570074
vt 0.624508 0.128448
vt 0.595237 0.128448
vt 0.948830 0.325017
vt 0.919601 0.323320
vt 0.926632 0.872068
vt 0.943105 0.894511
vt 0.942901 0.873151
vt 0.834752 0.640309
vt 0.853163 0.617552
vt 0.838853 0.617552
vt 0.890992 0.280620
vt 0.907537 0.264228
vt 0.891260 0.264553
vt 0.857876 0.432972
vt 0.839543 0.455807
vt 0.853856 0.455807
vt 0.694730 0.082154
vt 0.668864 0.052433
vt 0.668864 0.082800
vt 0.407692 0.034331
vt 0.388944 0.012280
vt 0.388944 0.034733
vt 0.857857 0.492985
vt 0.831370 0.516648
vt 0.861760 0.516648
vt 0.883079 0.210472
vt 0.910488 0.231523
vt 0.913418 0.209866
vt 0.834569 0.580406
vt 0.861035 0.556606
vt 0.830653 0.556606
vt 0.923654 0.842706
vt 0.951014 0.826692
vt 0.920691 0.824674
vt 0.835394 0.492985
vt 0.881822 0.232096
vt 0.857027 0.580406
vt 0.952305 0.844613
vt 0.752608 0.428901
vt 0.773186 0.516648
vt 0.773186 0.421211
vt 0.141752 0.030957
vt 0.159890 0.016978
vt 0.141752 0.008506
vt 0.265748 0.502708
vt 0.242374 0.395722
vt 0.242374 0.505259
vt 0.512095 0.302175
vt 0.492705 0.218873
vt 0.492705 0.311352
vt 0.671344 0.209206
vt 0.691306 0.269698
vt 0.700031 0.210443
vt 0.145240 0.206925
vt 0.167591 0.147090
vt 0.145128 0.147090
vt 0.397738 0.309136
vt 0.417599 0.249307
vt 0.388944 0.250267
vt 0.323156 0.186530
vt 0.300694 0.126522
vt 0.300691 0.186530
vt 0.991526 0.640189
vt 0.962397 0.611053
vt 0.962397 0.640309
vt 0.319545 0.034060
vt 0.297276 0.011703
vt 0.297276 0.034157
vt 0.297276 0.210192
vt 0.326556 0.210192
vt 0.390937 0.226193
vt 0.420155 0.225214
vt 0.171029 0.123259
vt 0.141752 0.123259
vt 0.698115 0.187175
vt 0.668864 0.185914
vt 0.440409 0.285215
vt 0.457043 0.309136
vt 0.456693 0.286029
vt 0.397083 0.187996
vt 0.415458 0.210762
vt 0.411395 0.187996
vt 0.352080 0.309136
vt 0.368541 0.286763
vt 0.352274 0.287421
vt 0.461047 0.127134
vt 0.442664 0.149983
vt 0.456979 0.149983
vt 0.195825 0.073221
vt 0.226061 0.042729
vt 0.195825 0.042854
vt 0.434607 0.034278
vt 0.456876 0.011729
vt 0.434607 0.011825
vt 0.464999 0.210788
vt 0.438579 0.187142
vt 0.434607 0.210788
vt 0.344172 0.226168
vt 0.371523 0.249170
vt 0.374492 0.224940
vt 0.388944 0.127111
vt 0.415347 0.150927
vt 0.419333 0.127111
vt 0.437494 0.248509
vt 0.464959 0.226757
vt 0.434607 0.225240
vt 0.461044 0.187142
vt 0.342875 0.250330
vt 0.392884 0.150927
vt 0.466172 0.249942
vt 0.263435 0.381270
vt 0.263435 0.272836
vt 0.242374 0.380454
vt 0.965320 0.280620
vt 0.985638 0.268787
vt 0.965320 0.257191
vt 0.227921 0.502691
vt 0.204542 0.395727
vt 0.204542 0.505220
vt 0.700031 0.389279
vt 0.679864 0.284150
vt 0.679864 0.393233
vt 0.325968 0.248763
vt 0.305977 0.309136
vt 0.328423 0.308244
vt 0.812744 0.616635
vt 0.790346 0.556455
vt 0.790281 0.616635
vt 0.055903 0.146682
vt 0.075709 0.206907
vt 0.084533 0.148229
vt 0.791051 0.456639
vt 0.813513 0.516648
vt 0.813516 0.456639
vt 0.864841 0.013922
vt 0.835840 0.043318
vt 0.864841 0.043187
vt 0.075647 0.008891
vt 0.053312 0.031435
vt 0.075647 0.031337
vt 0.816918 0.432794
vt 0.082504 0.125312
vt 0.816201 0.640309
vt 0.786923 0.640309
vt 0.299168 0.225807
vt 0.328423 0.224644
vt 0.621032 0.288533
vt 0.604333 0.311352
vt 0.626772 0.310310
vt 0.029631 0.244042
vt 0.011213 0.221359
vt 0.015318 0.244042
vt 0.013262 0.182767
vt 0.029614 0.206907
vt 0.029512 0.183763
vt 0.060119 0.282630
vt 0.078498 0.305229
vt 0.074433 0.282630
vt 0.272477 0.043101
vt 0.242374 0.073613
vt 0.272477 0.073477
vt 0.127300 0.009533
vt 0.104964 0.032077
vt 0.127300 0.031980
vt 0.052067 0.221360
vt 0.078502 0.245221
vt 0.082459 0.221360
vt 0.037514 0.125494
vt 0.010242 0.146541
vt 0.038860 0.148294
vt 0.007226 0.305229
vt 0.033610 0.281539
vt 0.011147 0.281539
vt 0.596415 0.228024
vt 0.623920 0.250847
vt 0.626772 0.226614
vt 0.604745 0.289290
vt 0.714483 0.393233
vt 0.735079 0.388730
vt 0.714483 0.285178
vt 0.965320 0.242739
vt 0.985576 0.230833
vt 0.965320 0.219335
vt 0.227922 0.519672
vt 0.204542 0.522187
vt 0.227922 0.629526
vt 0.204542 0.381275
vt 0.225098 0.381275
vt 0.219355 0.272384
vt 0.771237 0.044702
vt 0.756148 0.088969
vt 0.773129 0.088170
vt 0.316851 0.094163
vt 0.299856 0.048609
vt 0.299850 0.094163
vt 0.881273 0.050339
vt 0.896309 0.094920
vt 0.902961 0.050990
vt 0.107701 0.064571
vt 0.124712 0.109986
vt 0.124702 0.064571
vt 0.649637 0.009049
vt 0.628358 0.030995
vt 0.649637 0.031196
vt 0.692327 0.672205
vt 0.676154 0.655006
vt 0.676154 0.671993
vt 0.105142 0.046529
vt 0.127300 0.046529
vt 0.901456 0.032860
vt 0.319435 0.112070
vt 0.297276 0.112070
vt 0.750996 0.029156
vt 0.773129 0.028114
vt 0.811577 0.075111
vt 0.799027 0.093181
vt 0.816002 0.092260
vt 0.405865 0.066345
vt 0.391945 0.049185
vt 0.395032 0.066345
vt 0.929464 0.087410
vt 0.941933 0.103850
vt 0.941776 0.087867
vt 0.933904 0.263511
vt 0.947856 0.280620
vt 0.944736 0.263511
vt 0.731268 0.014440
vt 0.709182 0.037219
vt 0.731268 0.037427
vt 0.661702 0.655218
vt 0.645529 0.671993
vt 0.661702 0.672205
vt 0.927869 0.217152
vt 0.947846 0.235205
vt 0.950868 0.217152
vt 0.947918 0.041741
vt 0.927211 0.059163
vt 0.948894 0.059967
vt 0.411944 0.112659
vt 0.391939 0.094739
vt 0.388944 0.112659
vt 0.793037 0.033549
vt 0.813799 0.048806
vt 0.816002 0.032303
vt 0.930845 0.235205
vt 0.799256 0.075779
vt 0.873557 0.992774
vt 0.889569 0.992774
vt 0.874159 0.911823
vt 0.939974 0.026437
vt 0.939974 0.008893
vt 0.924970 0.017076
vt 0.732175 0.187593
vt 0.714483 0.189503
vt 0.732175 0.270726
vt 0.638960 0.207677
vt 0.654027 0.212162
vt 0.654027 0.132473
vt 0.904902 0.465403
vt 0.884867 0.516648
vt 0.907312 0.515745
vt 0.268157 0.234679
vt 0.245826 0.174542
vt 0.245699 0.234679
vt 0.924436 0.465856
vt 0.944093 0.516648
vt 0.952978 0.468576
vt 0.797813 0.220606
vt 0.820257 0.280620
vt 0.820276 0.220606
vt 0.985310 0.722218
vt 0.960874 0.752007
vt 0.985310 0.751482
vt 0.986549 0.456348
vt 0.967430 0.479272
vt 0.986549 0.478794
vt 0.794368 0.196770
vt 0.823645 0.196770
vt 0.950867 0.451013
vt 0.271645 0.258384
vt 0.242374 0.258384
vt 0.878058 0.444665
vt 0.907312 0.443488
vt 0.899522 0.375539
vt 0.882712 0.393233
vt 0.905150 0.392161
vt 0.164205 0.244077
vt 0.145773 0.221377
vt 0.149895 0.244077
vt 0.601459 0.091375
vt 0.617545 0.113996
vt 0.617652 0.093069
vt 0.105045 0.282612
vt 0.123363 0.305229
vt 0.119358 0.282612
vt 0.734546 0.051879
vt 0.709182 0.082800
vt 0.734546 0.082255
vt 0.986549 0.493724
vt 0.967430 0.516648
vt 0.986549 0.516170
vt 0.096911 0.221367
vt 0.123382 0.245215
vt 0.127300 0.221367
vt 0.625417 0.048805
vt 0.598357 0.063025
vt 0.626873 0.066009
vt 0.172135 0.305229
vt 0.145647 0.281514
vt 0.141752 0.305229
vt 0.874794 0.321028
vt 0.902359 0.341838
vt 0.905150 0.319577
vt 0.100919 0.245215
vt 0.883235 0.376318
vt 0.560824 0.311352
vt 0.580785 0.302178
vt 0.560824 0.222301
vt 0.972701 0.138717
vt 0.982953 0.118368
vt 0.963323 0.118368
vt 0.703377 0.531100
vt 0.679864 0.531100
vt 0.691677 0.640309
vt 0.769566 0.295072
vt 0.749531 0.302741
vt 0.769566 0.393233
vt 0.271006 0.106978
vt 0.251196 0.160090
vt 0.273594 0.158531
vt 0.833154 0.969030
vt 0.855787 0.908963
vt 0.833333 0.908963
vt 0.881833 0.131313
vt 0.901782 0.182438
vt 0.910518 0.131985
vt 0.199300 0.197908
vt 0.221739 0.257932
vt 0.221759 0.197908
vt 0.975462 0.919032
vt 0.949696 0.947491
vt 0.975462 0.948266
vt 0.026434 0.008844
vt 0.007226 0.031170
vt 0.026434 0.031307
vt 0.195825 0.174097
vt 0.225098 0.174097
vt 0.908590 0.110058
vt 0.829839 0.992774
vt 0.855608 0.969030
vt 0.244400 0.090097
vt 0.273594 0.088065
vt 0.221415 0.136679
vt 0.205076 0.159645
vt 0.227461 0.157898
vt 0.806516 0.332141
vt 0.788084 0.309418
vt 0.792208 0.332141
vt 0.880475 0.876993
vt 0.897111 0.894511
vt 0.896759 0.877501
vt 0.772050 0.257961
vt 0.753554 0.280620
vt 0.776013 0.280620
vt 0.864841 0.058575
vt 0.838097 0.088115
vt 0.864841 0.088920
vt 0.990001 0.675653
vt 0.970793 0.697979
vt 0.990001 0.698116
vt 0.749531 0.196776
vt 0.776033 0.220596
vt 0.779916 0.196776
vt 0.905027 0.821904
vt 0.877560 0.843232
vt 0.906239 0.844127
vt 0.784018 0.393233
vt 0.810360 0.369486
vt 0.787906 0.369486
vt 0.197177 0.090036
vt 0.224439 0.106368
vt 0.227461 0.087673
vt 0.753574 0.220596
vt 0.205167 0.137947
vt 0.738245 0.549174
vt 0.717829 0.541855
vt 0.717829 0.640309
vt 0.613906 0.031196
vt 0.613906 0.008659
vt 0.595237 0.017606
vt 0.265745 0.522252
vt 0.242374 0.519711
vt 0.242374 0.629526
vt 0.752697 0.631777
vt 0.772471 0.640309
vt 0.772471 0.545798
vt 0.963346 0.057177
vt 0.915996 0.698116
vt 0.724474 0.129449
vt 0.971561 0.153170
vt 0.749531 0.182324
vt 0.873557 0.793942
vt 0.886275 0.698116
vt 0.963346 0.100918
vt 0.837255 0.658843
vt 0.281343 0.629526
vt 0.512095 0.204421
vt 0.840109 0.141902
vt 0.877484 0.604200
vt 0.975672 0.962718
vt 0.668864 0.170822
vt 0.855819 0.796337
vt 0.935244 0.991025
vt 0.864068 0.196890
vt 0.987342 0.567203
vt 0.986462 0.834597
vt 0.792101 0.181508
vt 0.832946 0.393233
vt 0.946422 0.794394
vt 0.833918 0.810789
vt 0.956341 0.698116
vt 0.986462 0.894511
vt 0.434607 0.112034
vt 0.009738 0.045759
vt 0.550166 0.107077
vt 0.161402 0.045409
vt 0.507570 0.008722
vt 0.723725 0.655231
vt 0.924970 0.181675
vt 0.362788 0.048916
vt 0.509527 0.107659
vt 0.056399 0.045887
vt 0.691669 0.014337
vt 0.755124 0.655231
vt 0.919601 0.391931
vt 0.621224 0.212162
vt 0.947945 0.640045
vt 0.368817 0.126799
vt 0.985794 0.766459
vt 0.361624 0.011609
vt 0.920691 0.893019
vt 0.857210 0.640309
vt 0.913418 0.280172
vt 0.835413 0.432972
vt 0.694730 0.051787
vt 0.407692 0.011878
vt 0.668864 0.268730
vt 0.167702 0.206925
vt 0.420155 0.308385
vt 0.323159 0.126522
vt 0.991526 0.610933
vt 0.319545 0.011607
vt 0.434607 0.308015
vt 0.392995 0.210762
vt 0.374492 0.308229
vt 0.438582 0.127134
vt 0.226061 0.073096
vt 0.456876 0.034182
vt 0.297276 0.249904
vt 0.812809 0.556455
vt 0.053312 0.205697
vt 0.791048 0.516648
vt 0.835840 0.014053
vt 0.053312 0.008988
vt 0.787638 0.432794
vt 0.053312 0.123735
vt 0.033675 0.221359
vt 0.007226 0.205536
vt 0.056034 0.305229
vt 0.242374 0.043237
vt 0.104964 0.009631
vt 0.056037 0.245221
vt 0.007226 0.123639
vt 0.037615 0.305229
vt 0.595237 0.252179
vt 0.749531 0.045723
vt 0.316857 0.048609
vt 0.879342 0.094411
vt 0.107712 0.109986
vt 0.628358 0.008848
vt 0.692327 0.655218
vt 0.879342 0.032195
vt 0.408946 0.049185
vt 0.924970 0.103220
vt 0.930856 0.280620
vt 0.709182 0.014231
vt 0.645529 0.655006
vt 0.924970 0.040889
vt 0.408940 0.094739
vt 0.792100 0.049983
vt 0.876211 0.466557
vt 0.268284 0.174542
vt 0.921764 0.514519
vt 0.797794 0.280620
vt 0.960874 0.722742
vt 0.967430 0.456825
vt 0.921764 0.448239
vt 0.168231 0.221377
vt 0.595237 0.111662
vt 0.100900 0.305229
vt 0.709182 0.052424
vt 0.967430 0.494201
vt 0.595237 0.045648
vt 0.168105 0.281514
vt 0.873678 0.343210
vt 0.242374 0.108971
vt 0.879342 0.181912
vt 0.199280 0.257932
vt 0.949696 0.918256
vt 0.007226 0.008706
vt 0.879342 0.109372
vt 0.859105 0.992774
vt 0.810539 0.309418
vt 0.874675 0.893810
vt 0.757739 0.257961
vt 0.838097 0.057770
vt 0.970793 0.675515
vt 0.874675 0.820956
vt 0.814396 0.393233
vt 0.195825 0.108601
vn 0.006124 -0.995000 -0.099690
vn 0.000766 -0.781865 -0.623448
vn 0.413129 -0.868059 -0.275315
vn -0.560854 -0.441947 0.700090
vn -0.222998 -0.927959 0.298602
vn 0.001583 -0.540133 0.841578
vn -0.412069 -0.864165 -0.288821
vn 0.241351 -0.920673 0.306775
vn -0.560854 -0.441947 0.700090
vn 0.001583 -0.540133 0.841578
vn -0.433398 0.219521 0.874057
vn -0.830687 -0.423870 -0.360963
vn -0.774510 -0.551784 0.309304
vn -0.986249 0.144734 0.079780
vn 0.000213 -0.261396 -0.965232
vn -0.499903 -0.405038 -0.765533
vn -0.324379 0.252492 -0.911606
vn 0.830168 -0.428890 -0.356194
vn 0.499984 -0.407002 -0.764438
vn 0.841995 0.186569 -0.506198
vn 0.557862 -0.448000 0.698632
vn 0.774425 -0.545045 0.321234
vn 0.788092 0.138710 0.599725
vn -0.791382 0.131771 0.596952
vn -0.842092 0.188164 -0.505445
vn 0.000213 -0.261396 -0.965232
vn -0.324379 0.252492 -0.911606
vn 0.324402 0.253255 -0.911387
vn 0.986378 0.144980 0.077709
vn 0.433155 0.218722 0.874378
vn -0.757913 0.554390 0.343831
vn -0.491584 0.643123 0.587145
vn -0.360000 0.888225 0.285407
vn -0.559566 0.718905 -0.412385
vn -0.709057 0.705141 0.003766
vn -0.247119 0.968948 -0.008467
vn 0.559762 0.719233 -0.411546
vn -0.000241 0.841132 -0.540831
vn 0.246937 0.968997 -0.008237
vn 0.757539 0.556732 0.340857
vn 0.708833 0.705373 0.002314
vn 0.359153 0.889051 0.283896
vn -0.000740 0.704155 0.710046
vn 0.490280 0.645423 0.585709
vn -0.000826 0.827200 0.561907
vn -0.000053 0.957071 0.289855
vn 0.433155 0.218722 0.874378
vn 0.490280 0.645423 0.585709
vn 0.757539 0.556732 0.340857
vn 0.986378 0.144980 0.077709
vn 0.708833 0.705373 0.002314
vn 0.708833 0.705373 0.002314
vn 0.559762 0.719233 -0.411546
vn -0.000241 0.841132 -0.540831
vn -0.559566 0.718905 -0.412385
vn -0.000241 0.841132 -0.540831
vn -0.709057 0.705141 0.003766
vn -0.757913 0.554390 0.343831
vn -0.491584 0.643123 0.587145
vn -0.757913 0.554390 0.343831
vn -0.000740 0.704155 0.710046
vn 0.830168 -0.428890 -0.356194
vn -0.986249 0.144734 0.079780
vn -0.774510 -0.551784 0.309304
vn 0.433155 0.218722 0.874378
vn 0.001583 -0.540133 0.841578
vn 0.774425 -0.545045 0.321234
vn 0.557862 -0.448000 0.698632
vn 0.830168 -0.428890 -0.356194
vn -0.499903 -0.405038 -0.765533
vn 0.000213 -0.261396 -0.965232
vn -0.830687 -0.423870 -0.360963
vn -0.774510 -0.551784 0.309304
vn 0.499984 -0.407002 -0.764438
vn -0.607019 -0.468896 -0.641611
vn 0.625598 0.710858 -0.321415
vn 0.625583 -0.468962 -0.623474
vn 0.636574 -0.764788 -0.099361
vn 0.689780 0.373241 0.620399
vn 0.689790 -0.625454 0.364687
vn 0.689780 0.373241 0.620399
vn -0.365824 -0.720505 0.589105
vn 0.689790 -0.625454 0.364687
vn -0.691879 -0.699975 0.177030
vn -0.607005 0.719558 -0.337315
vn -0.607019 -0.468896 -0.641611
vn 0.636574 -0.764788 -0.099361
vn -0.365824 -0.720505 0.589105
vn -0.691879 -0.699975 0.177030
vn 0.636584 0.718431 0.280388
vn -0.607005 0.719558 -0.337315
vn -0.691871 0.528785 0.491631
vn -0.365827 0.348758 0.862866
vn 0.689780 0.373241 0.620399
vn -0.607019 -0.468896 -0.641611
vn 0.625583 -0.468962 -0.623474
vn -0.691871 0.528785 0.491631
vn -0.691879 -0.699975 0.177030
vn 0.625583 -0.468962 -0.623474
vn 0.636584 0.718431 0.280388
vn 0.636574 -0.764788 -0.099361
vn -0.625571 -0.468943 -0.623501
vn 0.607019 0.719537 -0.337334
vn 0.607005 -0.468923 -0.641605
vn -0.689786 -0.625457 0.364690
vn -0.636579 0.718434 0.280393
vn -0.636580 -0.764783 -0.099364
vn 0.365824 -0.720504 0.589107
vn -0.689784 0.373241 0.620394
vn -0.689786 -0.625457 0.364690
vn 0.607005 -0.468923 -0.641605
vn 0.691879 0.528776 0.491630
vn 0.691871 -0.699983 0.177026
vn -0.636580 -0.764783 -0.099364
vn 0.365824 -0.720504 0.589107
vn -0.689786 -0.625457 0.364690
vn -0.636579 0.718434 0.280393
vn 0.607019 0.719537 -0.337334
vn -0.625610 0.710862 -0.321382
vn 0.365825 0.348757 0.862868
vn -0.689784 0.373241 0.620394
vn 0.607005 -0.468923 -0.641605
vn -0.625571 -0.468943 -0.623501
vn 0.365825 0.348757 0.862868
vn 0.365824 -0.720504 0.589107
vn -0.625571 -0.468943 -0.623501
vn -0.636579 0.718434 0.280393
vn -0.625610 0.710862 -0.321382
vn 0.921926 0.078028 -0.379426
vn 0.000000 -0.201433 0.979502
vn -0.460963 -0.704018 -0.540252
vn 0.921926 0.078028 -0.379426
vn -0.460963 -0.704018 -0.540252
vn -0.460963 0.860074 -0.218599
vn -0.460963 -0.704018 -0.540252
vn 0.000000 -0.201433 0.979502
vn -0.460963 0.860074 -0.218599
vn -0.460963 0.860074 -0.218599
vn 0.000000 -0.201433 0.979502
vn 0.921926 0.078028 -0.379426
vn 0.921926 0.078029 -0.379425
vn 0.000000 -0.201433 0.979502
vn -0.460963 -0.704018 -0.540252
vn 0.921926 0.078029 -0.379425
vn -0.460963 -0.704018 -0.540252
vn -0.460963 0.860074 -0.218600
vn -0.460963 -0.704018 -0.540252
vn 0.000000 -0.201433 0.979502
vn -0.460963 0.860074 -0.218600
vn -0.460963 0.860074 -0.218600
vn 0.000000 -0.201433 0.979502
vn 0.921926 0.078029 -0.379425
vn 0.921926 0.078028 -0.379426
vn 0.000001 -0.201433 0.979502
vn -0.460963 -0.704018 -0.540252
vn 0.921926 0.078028 -0.379426
vn -0.460963 -0.704018 -0.540252
vn -0.460963 0.860074 -0.218600
vn -0.460963 -0.704018 -0.540252
vn 0.000001 -0.201433 0.979502
vn -0.460963 0.860074 -0.218600
vn -0.460963 0.860074 -0.218600
vn 0.000001 -0.201433 0.979502
vn 0.921926 0.078028 -0.379426
vn -0.397384 -0.703223 -0.589546
vn -0.795819 0.543916 -0.266135
vn -0.320433 0.746273 -0.583438
vn -0.795819 0.543916 -0.266135
vn 0.252117 0.746256 0.616068
vn -0.320433 0.746273 -0.583438
vn -0.293530 0.543945 0.786107
vn 0.208464 -0.703223 0.679721
vn 0.252117 0.746256 0.616068
vn 0.208464 -0.703223 0.679721
vn -0.769754 -0.577330 -0.272339
vn -0.397384 -0.703223 -0.589546
vn 0.780717 0.534093 0.324385
vn 0.190695 -0.611150 -0.768200
vn 0.238742 0.534090 -0.811018
vn -0.795819 0.543916 -0.266135
vn -0.272359 -0.577339 0.769740
vn -0.293530 0.543945 0.786107
vn 0.190695 -0.611150 -0.768200
vn 0.717192 -0.611146 0.334866
vn 0.780717 0.534093 0.324385
vn 0.717192 -0.611146 0.334866
vn 0.780717 0.534093 0.324385
vn 0.238742 0.534090 -0.811018
vn 0.238742 0.534090 -0.811018
vn 0.190695 -0.611150 -0.768200
vn -0.255761 -0.700792 -0.665941
vn -0.732113 0.587725 -0.344368
vn -0.328460 0.707990 -0.625192
vn -0.328460 0.707990 -0.625192
vn -0.192697 0.587717 0.785784
vn 0.279521 0.707984 0.648558
vn -0.192697 0.587717 0.785784
vn 0.356923 -0.700786 0.617661
vn 0.279521 0.707984 0.648558
vn -0.166557 -0.624793 0.762819
vn -0.255761 -0.700792 -0.665941
vn 0.356923 -0.700786 0.617661
vn 0.225603 0.540490 -0.810540
vn 0.708676 -0.615887 0.344182
vn 0.178032 -0.615916 -0.767432
vn -0.192697 0.587717 0.785784
vn -0.697861 -0.624780 -0.350200
vn -0.166557 -0.624793 0.762819
vn 0.117862 -0.694273 0.709996
vn 0.178032 -0.615916 -0.767432
vn 0.708676 -0.615887 0.344182
vn 0.772066 0.540484 0.334352
vn 0.117862 -0.694273 0.709996
vn 0.708676 -0.615887 0.344182
vn 0.225603 0.540490 -0.810540
vn 0.173505 0.741181 0.648495
vn 0.772066 0.540484 0.334352
vn -0.477908 -0.694255 -0.538159
vn 0.225603 0.540490 -0.810540
vn 0.178032 -0.615916 -0.767432
vn -0.477908 -0.694255 -0.538159
vn 0.173505 0.741181 0.648495
vn -0.395097 0.741165 -0.542746
vn -0.395097 0.741165 -0.542746
vn 0.459949 0.860376 -0.219545
vn -0.902466 0.000016 0.430761
vn 0.780917 -0.430187 0.452888
vn 0.459949 0.860376 -0.219545
vn 0.780917 -0.430187 0.452888
vn 0.138983 -0.430187 -0.891977
vn 0.780917 -0.430187 0.452888
vn -0.902466 0.000016 0.430761
vn 0.138983 -0.430187 -0.891977
vn 0.138983 -0.430187 -0.891977
vn -0.902466 0.000016 0.430761
vn 0.459949 0.860376 -0.219545
vn -0.603546 -0.703223 -0.375779
vn -0.835106 0.543916 0.082179
vn -0.530814 0.746273 -0.401638
vn -0.835106 0.543916 0.082179
vn 0.481787 0.746256 0.459329
vn -0.530814 0.746273 -0.401638
vn 0.053206 0.543945 0.837432
vn 0.467946 -0.703223 0.535262
vn 0.481787 0.746256 0.459329
vn 0.467946 -0.703223 0.535262
vn -0.813850 -0.577330 0.065869
vn -0.603546 -0.703223 -0.375779
vn 0.845117 0.534093 -0.022841
vn -0.139755 -0.611150 -0.779079
vn -0.113391 0.534090 -0.837789
vn -0.835106 0.543916 0.082179
vn 0.065845 -0.577339 0.813845
vn 0.053206 0.543945 0.837432
vn -0.139755 -0.611150 -0.779079
vn 0.791416 -0.611147 0.012675
vn 0.845117 0.534093 -0.022841
vn 0.791416 -0.611147 0.012675
vn 0.845117 0.534093 -0.022841
vn -0.113391 0.534090 -0.837789
vn -0.113391 0.534090 -0.837789
vn -0.139755 -0.611150 -0.779079
vn -0.505489 -0.700792 -0.503361
vn -0.808926 0.587714 -0.015224
vn -0.555199 0.707990 -0.436468
vn -0.555199 0.707990 -0.436468
vn 0.145139 0.587728 0.795934
vn 0.520074 0.707983 0.477789
vn 0.145139 0.587728 0.795934
vn 0.578101 -0.700786 0.417969
vn 0.520074 0.707983 0.477789
vn 0.159559 -0.624781 0.764323
vn -0.505489 -0.700792 -0.503361
vn 0.578101 -0.700786 0.417969
vn 0.841298 0.540474 -0.010235
vn -0.150971 -0.615904 -0.773221
vn -0.125213 0.540500 -0.831974
vn -0.808926 0.587714 -0.015224
vn 0.159559 -0.624781 0.764323
vn 0.145139 0.587728 0.795934
vn 0.397615 -0.694273 0.599906
vn -0.150971 -0.615904 -0.773221
vn 0.787439 -0.615898 0.024689
vn 0.841298 0.540474 -0.010235
vn 0.397615 -0.694273 0.599906
vn 0.787439 -0.615898 0.024689
vn -0.125213 0.540500 -0.831974
vn 0.423280 0.741182 0.521040
vn 0.841298 0.540474 -0.010235
vn -0.656055 -0.694254 -0.295979
vn -0.125213 0.540500 -0.831974
vn -0.150971 -0.615904 -0.773221
vn -0.656055 -0.694254 -0.295979
vn 0.423280 0.741182 0.521040
vn -0.582344 0.741164 -0.333994
vn -0.582344 0.741164 -0.333994
vn 0.330137 0.860376 -0.388282
vn -0.647761 0.000015 0.761844
vn 0.897794 -0.430187 0.094368
vn 0.330137 0.860376 -0.388282
vn 0.897794 -0.430187 0.094368
vn -0.237519 -0.430186 -0.870933
vn 0.897794 -0.430187 0.094368
vn -0.647761 0.000015 0.761844
vn -0.237519 -0.430186 -0.870933
vn -0.237519 -0.430186 -0.870933
vn -0.647761 0.000015 0.761844
vn 0.330137 0.860376 -0.388282
vn -0.104669 -0.703232 -0.703214
vn -0.603556 0.543915 -0.582989
vn -0.037854 0.746273 -0.664563
vn -0.603556 0.543915 -0.582989
vn -0.037855 0.746256 0.664582
vn -0.037854 0.746273 -0.664563
vn -0.603529 0.543945 0.582990
vn -0.104669 -0.703214 0.703232
vn -0.037855 0.746256 0.664582
vn -0.104669 -0.703214 0.703232
vn -0.577360 -0.577330 -0.577360
vn -0.104669 -0.703232 -0.703214
vn 0.564834 0.534093 0.629053
vn 0.503020 -0.611135 -0.611135
vn 0.564816 0.534090 -0.629072
vn -0.603556 0.543915 -0.582989
vn -0.577372 -0.577339 0.577339
vn -0.603529 0.543945 0.582990
vn 0.502981 -0.611162 0.611139
vn 0.503020 -0.611135 -0.611135
vn 0.564834 0.534093 0.629053
vn 0.502981 -0.611162 0.611139
vn 0.564834 0.534093 0.629053
vn 0.564816 0.534090 -0.629072
vn 0.564816 0.534090 -0.629072
vn 0.503020 -0.611135 -0.611135
vn 0.056047 -0.700792 -0.711161
vn -0.512390 0.587716 -0.626136
vn -0.027117 0.707982 -0.705710
vn -0.512390 0.587716 -0.626136
vn -0.027117 0.707992 0.705700
vn -0.027117 0.707982 -0.705710
vn -0.512364 0.587725 0.626149
vn 0.056044 -0.700785 0.711168
vn -0.027117 0.707992 0.705700
vn -0.478939 -0.624781 0.616657
vn 0.056047 -0.700792 -0.711161
vn 0.056044 -0.700785 0.711168
vn 0.552751 0.540490 0.634300
vn 0.491281 -0.615904 -0.615878
vn 0.552733 0.540484 -0.634321
vn -0.512390 0.587716 -0.626136
vn -0.478939 -0.624781 0.616657
vn -0.512364 0.587725 0.626149
vn -0.199476 -0.694273 0.691516
vn 0.491281 -0.615904 -0.615878
vn 0.491262 -0.615898 0.615899
vn 0.552751 0.540490 0.634300
vn -0.199476 -0.694273 0.691516
vn 0.491262 -0.615898 0.615899
vn -0.122765 0.741170 -0.659996
vn 0.552751 0.540490 0.634300
vn 0.552733 0.540484 -0.634321
vn -0.199476 -0.694254 -0.691535
vn 0.552733 0.540484 -0.634321
vn 0.491281 -0.615904 -0.615878
vn -0.199476 -0.694254 -0.691535
vn -0.122771 0.741176 0.659989
vn -0.122771 0.741176 0.659989
vn -0.122765 0.741170 -0.659996
vn 0.509661 0.860375 -0.000000
vn -1.000000 0.000007 -0.000001
vn 0.509660 -0.430188 0.745107
vn 0.509661 0.860375 -0.000000
vn 0.509660 -0.430188 0.745107
vn 0.509660 -0.430189 -0.745107
vn 0.509660 -0.430188 0.745107
vn -1.000000 0.000007 -0.000001
vn 0.509660 -0.430189 -0.745107
vn 0.509660 -0.430189 -0.745107
vn -1.000000 0.000007 -0.000001
vn 0.509661 0.860375 -0.000000
vn 0.212479 -0.703223 -0.678476
vn -0.288904 0.543915 -0.787839
vn 0.255746 0.746273 -0.614550
vn -0.288904 0.543915 -0.787839
vn -0.323885 0.746256 0.581550
vn 0.255746 0.746273 -0.614550
vn -0.797354 0.543945 0.261439
vn -0.400863 -0.703223 0.587186
vn -0.323885 0.746256 0.581550
vn -0.400863 -0.703223 0.587186
vn -0.267785 -0.577330 -0.771350
vn 0.212479 -0.703223 -0.678476
vn 0.233970 0.534093 0.812405
vn 0.719168 -0.611150 -0.330596
vn 0.782612 0.534090 -0.319792
vn -0.288904 0.543915 -0.787839
vn -0.771352 -0.577339 0.267761
vn -0.797354 0.543945 0.261439
vn 0.719168 -0.611150 -0.330596
vn 0.186126 -0.611147 0.769322
vn 0.233970 0.534093 0.812405
vn 0.186126 -0.611147 0.769322
vn 0.233970 0.534093 0.812405
vn 0.782612 0.534090 -0.319792
vn 0.782612 0.534090 -0.319792
vn 0.719168 -0.611150 -0.330596
vn 0.360567 -0.700794 -0.615532
vn -0.188019 0.587725 -0.786911
vn 0.283347 0.707992 -0.646886
vn 0.283347 0.707992 -0.646886
vn -0.734154 0.587716 0.340012
vn -0.332156 0.707982 0.623245
vn -0.734154 0.587716 0.340012
vn -0.259700 -0.700783 0.664424
vn -0.332156 0.707982 0.623245
vn -0.699894 -0.624794 0.346094
vn 0.360567 -0.700794 -0.615532
vn -0.259700 -0.700783 0.664424
vn 0.774036 0.540490 -0.329757
vn 0.173525 -0.615904 0.768474
vn 0.710676 -0.615899 -0.340012
vn -0.734154 0.587716 0.340012
vn -0.162080 -0.624780 -0.763793
vn -0.699894 -0.624794 0.346094
vn 0.173525 -0.615904 0.768474
vn 0.122055 -0.694273 -0.709287
vn 0.710676 -0.615899 -0.340012
vn 0.220783 0.540485 0.811869
vn -0.481081 -0.694254 0.535324
vn 0.173525 -0.615904 0.768474
vn 0.774036 0.540490 -0.329757
vn -0.398294 0.741171 0.540395
vn 0.220783 0.540485 0.811869
vn 0.122055 -0.694273 -0.709287
vn 0.774036 0.540490 -0.329757
vn 0.710676 -0.615899 -0.340012
vn -0.481081 -0.694254 0.535324
vn -0.398294 0.741171 0.540395
vn 0.177335 0.741175 -0.647465
vn 0.177335 0.741175 -0.647465
vn 0.458645 0.860376 0.222259
vn -0.899905 -0.000002 -0.436086
vn 0.133709 -0.430187 0.892783
vn 0.458645 0.860376 0.222259
vn 0.133709 -0.430187 0.892783
vn 0.783579 -0.430188 -0.448265
vn 0.133709 -0.430187 0.892783
vn -0.899905 -0.000002 -0.436086
vn 0.783579 -0.430188 -0.448265
vn 0.783579 -0.430188 -0.448265
vn -0.899905 -0.000002 -0.436086
vn 0.458645 0.860376 0.222259
vn 0.397386 -0.703223 -0.589544
vn 0.795819 0.543916 -0.266135
vn 0.769741 -0.577350 -0.272334
vn -0.252116 0.746256 0.616068
vn 0.795819 0.543916 -0.266135
vn 0.320433 0.746273 -0.583438
vn -0.208466 -0.703223 0.679720
vn 0.293531 0.543945 0.786107
vn -0.252116 0.746256 0.616068
vn 0.397386 -0.703223 -0.589544
vn 0.272364 -0.577319 0.769754
vn -0.208466 -0.703223 0.679720
vn -0.190701 -0.611135 -0.768211
vn -0.780717 0.534093 0.324386
vn -0.238742 0.534090 -0.811018
vn 0.272364 -0.577319 0.769754
vn 0.795819 0.543916 -0.266135
vn 0.293531 0.543945 0.786107
vn -0.717180 -0.611162 0.334864
vn -0.780717 0.534093 0.324386
vn -0.780717 0.534093 0.324386
vn -0.238742 0.534090 -0.811018
vn -0.238742 0.534090 -0.811018
vn -0.190701 -0.611135 -0.768211
vn 0.255763 -0.700794 -0.665938
vn 0.732131 0.587716 -0.344344
vn 0.697838 -0.624792 -0.350224
vn -0.279521 0.707990 0.648551
vn 0.732131 0.587716 -0.344344
vn 0.328468 0.707983 -0.625195
vn -0.356925 -0.700783 0.617663
vn 0.192666 0.587725 0.785786
vn -0.279521 0.707990 0.648551
vn 0.255763 -0.700794 -0.665938
vn 0.166590 -0.624781 0.762821
vn -0.356925 -0.700783 0.617663
vn -0.178063 -0.615904 -0.767435
vn -0.772082 0.540474 0.334331
vn -0.225576 0.540500 -0.810540
vn 0.166590 -0.624781 0.762821
vn 0.732131 0.587716 -0.344344
vn 0.192666 0.587725 0.785786
vn -0.178063 -0.615904 -0.767435
vn -0.117867 -0.694261 0.710007
vn -0.708654 -0.615898 0.344207
vn -0.772082 0.540474 0.334331
vn -0.117867 -0.694261 0.710007
vn -0.173514 0.741171 0.648505
vn -0.225576 0.540500 -0.810540
vn -0.173514 0.741171 0.648505
vn 0.395097 0.741176 -0.542731
vn -0.225576 0.540500 -0.810540
vn 0.477904 -0.694266 -0.538147
vn -0.178063 -0.615904 -0.767435
vn 0.328468 0.707983 -0.625195
vn -0.459950 0.860376 -0.219545
vn -0.780917 -0.430187 0.452888
vn 0.902468 0.000006 0.430757
vn -0.459950 0.860376 -0.219545
vn -0.138983 -0.430188 -0.891976
vn -0.780917 -0.430187 0.452888
vn -0.780917 -0.430187 0.452888
vn -0.138983 -0.430188 -0.891976
vn 0.902468 0.000006 0.430757
vn -0.138983 -0.430188 -0.891976
vn -0.459950 0.860376 -0.219545
vn 0.902468 0.000006 0.430757
vn 0.603554 -0.703214 -0.375783
vn 0.835102 0.543926 0.082157
vn 0.813841 -0.577339 0.065891
vn -0.481788 0.746256 0.459329
vn 0.835102 0.543926 0.082157
vn 0.530814 0.746273 -0.401638
vn -0.467940 -0.703231 0.535255
vn -0.053185 0.543935 0.837440
vn -0.481788 0.746256 0.459329
vn 0.603554 -0.703214 -0.375783
vn -0.065868 -0.577330 0.813850
vn -0.467940 -0.703231 0.535255
vn 0.139755 -0.611150 -0.779079
vn -0.845117 0.534093 -0.022841
vn 0.113391 0.534090 -0.837789
vn -0.053185 0.543935 0.837440
vn 0.813841 -0.577339 0.065891
vn 0.835102 0.543926 0.082157
vn 0.139755 -0.611150 -0.779079
vn -0.791416 -0.611147 0.012675
vn -0.845117 0.534093 -0.022841
vn -0.845117 0.534093 -0.022841
vn 0.113391 0.534090 -0.837789
vn 0.113391 0.534090 -0.837789
vn 0.139755 -0.611150 -0.779079
vn 0.505489 -0.700792 -0.503361
vn 0.808923 0.587717 -0.015224
vn 0.780024 -0.624792 -0.034601
vn -0.520069 0.707992 0.477782
vn 0.808923 0.587717 -0.015224
vn 0.555207 0.707982 -0.436472
vn -0.578102 -0.700785 0.417970
vn -0.145140 0.587725 0.795936
vn -0.520069 0.707992 0.477782
vn 0.505489 -0.700792 -0.503361
vn -0.159558 -0.624781 0.764324
vn -0.578102 -0.700785 0.417970
vn 0.150972 -0.615904 -0.773221
vn -0.841288 0.540490 -0.010237
vn 0.125216 0.540484 -0.831984
vn -0.159558 -0.624781 0.764324
vn 0.808923 0.587717 -0.015224
vn -0.145140 0.587725 0.795936
vn 0.150972 -0.615904 -0.773221
vn -0.397615 -0.694273 0.599906
vn -0.787439 -0.615898 0.024689
vn -0.841288 0.540490 -0.010237
vn -0.397615 -0.694273 0.599906
vn -0.423284 0.741176 0.521047
vn -0.841288 0.540490 -0.010237
vn 0.582337 0.741171 -0.333992
vn 0.125216 0.540484 -0.831984
vn 0.125216 0.540484 -0.831984
vn 0.656055 -0.694254 -0.295979
vn 0.150972 -0.615904 -0.773221
vn 0.656055 -0.694254 -0.295979
vn 0.555207 0.707982 -0.436472
vn -0.330139 0.860375 -0.388281
vn -0.897793 -0.430189 0.094369
vn 0.647759 0.000011 0.761845
vn -0.330139 0.860375 -0.388281
vn 0.237519 -0.430188 -0.870932
vn -0.897793 -0.430189 0.094369
vn -0.897793 -0.430189 0.094369
vn 0.237519 -0.430188 -0.870932
vn 0.647759 0.000011 0.761845
vn 0.237519 -0.430188 -0.870932
vn -0.330139 0.860375 -0.388281
vn 0.647759 0.000011 0.761845
vn 0.104669 -0.703214 -0.703232
vn 0.603556 0.543915 -0.582989
vn 0.577350 -0.577350 -0.577350
vn 0.037855 0.746256 0.664582
vn 0.603556 0.543915 -0.582989
vn 0.037854 0.746273 -0.664563
vn 0.104669 -0.703231 0.703214
vn 0.603529 0.543945 0.582990
vn 0.037855 0.746256 0.664582
vn 0.104669 -0.703214 -0.703232
vn 0.577382 -0.577319 0.577350
vn 0.104669 -0.703231 0.703214
vn -0.503010 -0.611150 -0.611127
vn -0.564834 0.534093 0.629053
vn -0.564815 0.534090 -0.629072
vn 0.577382 -0.577319 0.577350
vn 0.603556 0.543915 -0.582989
vn 0.603529 0.543945 0.582990
vn -0.503010 -0.611150 -0.611127
vn -0.502991 -0.611147 0.611147
vn -0.564834 0.534093 0.629053
vn -0.564834 0.534093 0.629053
vn -0.564815 0.534090 -0.629072
vn -0.564815 0.534090 -0.629072
vn -0.503010 -0.611150 -0.611127
vn -0.056047 -0.700792 -0.711161
vn 0.512390 0.587716 -0.626136
vn 0.478908 -0.624792 -0.616670
vn 0.027116 0.707992 0.705700
vn 0.512390 0.587716 -0.626136
vn 0.027117 0.707982 -0.705710
vn -0.056044 -0.700785 0.711168
vn 0.512364 0.587725 0.626149
vn 0.027116 0.707992 0.705700
vn -0.056047 -0.700792 -0.711161
vn 0.478939 -0.624781 0.616657
vn -0.056044 -0.700785 0.711168
vn -0.491281 -0.615904 -0.615878
vn -0.552751 0.540490 0.634300
vn -0.552733 0.540484 -0.634321
vn 0.478939 -0.624781 0.616657
vn 0.512390 0.587716 -0.626136
vn 0.512364 0.587725 0.626149
vn -0.491281 -0.615904 -0.615878
vn 0.199476 -0.694273 0.691516
vn -0.491262 -0.615898 0.615898
vn -0.552751 0.540490 0.634300
vn 0.199476 -0.694273 0.691516
vn 0.122771 0.741176 0.659989
vn -0.552751 0.540490 0.634300
vn 0.122765 0.741170 -0.659996
vn -0.552733 0.540484 -0.634321
vn -0.552733 0.540484 -0.634321
vn 0.199476 -0.694254 -0.691535
vn -0.491281 -0.615904 -0.615878
vn 0.199476 -0.694254 -0.691535
vn 0.027117 0.707982 -0.705710
vn -0.509660 0.860376 -0.000000
vn -0.509660 -0.430187 0.745107
vn 1.000000 0.000006 0.000000
vn -0.509660 0.860376 -0.000000
vn -0.509660 -0.430188 -0.745107
vn -0.509660 -0.430187 0.745107
vn -0.509660 -0.430187 0.745107
vn -0.509660 -0.430188 -0.745107
vn 1.000000 0.000006 0.000000
vn -0.509660 -0.430188 -0.745107
vn -0.509660 0.860376 -0.000000
vn 1.000000 0.000006 0.000000
vn -0.212482 -0.703214 -0.678485
vn 0.288902 0.543935 -0.787826
vn 0.267781 -0.577350 -0.771337
vn -0.255753 0.746256 -0.614567
vn 0.797365 0.543926 0.261445
vn 0.288902 0.543935 -0.787826
vn 0.400858 -0.703231 0.587179
vn 0.797365 0.543926 0.261445
vn 0.323875 0.746273 0.581534
vn -0.212482 -0.703214 -0.678485
vn 0.771365 -0.577319 0.267766
vn 0.400858 -0.703231 0.587179
vn -0.719168 -0.611150 -0.330596
vn -0.233971 0.534080 0.812414
vn -0.782605 0.534103 -0.319787
vn 0.771365 -0.577319 0.267766
vn 0.288902 0.543935 -0.787826
vn 0.797365 0.543926 0.261445
vn -0.719168 -0.611150 -0.330596
vn -0.186126 -0.611147 0.769322
vn -0.233971 0.534080 0.812414
vn -0.782605 0.534103 -0.319787
vn 0.323875 0.746273 0.581534
vn -0.782605 0.534103 -0.319787
vn -0.719168 -0.611150 -0.330596
vn -0.360571 -0.700783 -0.615542
vn 0.188048 0.587716 -0.786910
vn 0.162046 -0.624794 -0.763789
vn 0.332154 0.707992 0.623235
vn 0.188048 0.587716 -0.786910
vn -0.283353 0.707981 -0.646896
vn 0.259696 -0.700794 0.664414
vn 0.734136 0.587725 0.340035
vn 0.332154 0.707992 0.623235
vn 0.259696 -0.700794 0.664414
vn 0.162046 -0.624794 -0.763789
vn 0.699918 -0.624780 0.346070
vn -0.710684 -0.615904 -0.339986
vn -0.220810 0.540474 0.811869
vn -0.774020 0.540499 -0.329779
vn 0.699918 -0.624780 0.346070
vn 0.188048 0.587716 -0.786910
vn 0.734136 0.587725 0.340035
vn -0.710684 -0.615904 -0.339986
vn 0.481075 -0.694273 0.535306
vn -0.173499 -0.615898 0.768484
vn -0.220810 0.540474 0.811869
vn 0.481075 -0.694273 0.535306
vn 0.398293 0.741182 0.540381
vn -0.774020 0.540499 -0.329779
vn 0.398293 0.741182 0.540381
vn -0.177344 0.741164 -0.647476
vn -0.774020 0.540499 -0.329779
vn -0.122065 -0.694254 -0.709303
vn -0.710684 -0.615904 -0.339986
vn -0.122065 -0.694254 -0.709303
vn -0.283353 0.707981 -0.646896
vn -0.458645 0.860376 0.222259
vn -0.133709 -0.430187 0.892783
vn 0.899908 0.000002 -0.436080
vn -0.458645 0.860376 0.222259
vn -0.783579 -0.430188 -0.448265
vn -0.133709 -0.430187 0.892783
vn -0.133709 -0.430187 0.892783
vn -0.783579 -0.430188 -0.448265
vn 0.899908 0.000002 -0.436080
vn -0.783579 -0.430188 -0.448265
vn -0.458645 0.860376 0.222259
vn 0.899908 0.000002 -0.436080
vn -0.607005 0.719558 -0.337315
vn 0.636584 0.718431 0.280388
vn -0.365827 0.348758 0.862866
vn -0.691871 0.528785 0.491631
vn 0.689790 -0.625454 0.364687
vn 0.625598 0.710858 -0.321415
vn 0.625598 0.710858 -0.321415
vn -0.625610 0.710862 -0.321382
vn -0.689784 0.373241 0.620394
vn 0.365825 0.348757 0.862868
vn 0.607019 0.719537 -0.337334
vn 0.691871 -0.699983 0.177026
vn 0.691879 0.528776 0.491630
vn -0.636580 -0.764783 -0.099364
vn -0.769754 -0.577330 -0.272339
vn -0.293530 0.543945 0.786107
vn -0.272359 -0.577339 0.769740
vn -0.272359 -0.577339 0.769740
vn 0.717192 -0.611146 0.334866
vn -0.769754 -0.577330 -0.272339
vn -0.697861 -0.624780 -0.350200
vn -0.732113 0.587725 -0.344368
vn -0.166557 -0.624793 0.762819
vn -0.697861 -0.624780 -0.350200
vn 0.772066 0.540484 0.334352
vn -0.732113 0.587725 -0.344368
vn -0.813850 -0.577330 0.065869
vn 0.053206 0.543945 0.837432
vn 0.065845 -0.577339 0.813845
vn 0.065845 -0.577339 0.813845
vn 0.791416 -0.611147 0.012675
vn -0.813850 -0.577330 0.065869
vn -0.780024 -0.624793 -0.034599
vn -0.808926 0.587714 -0.015224
vn 0.159559 -0.624781 0.764323
vn -0.780024 -0.624793 -0.034599
vn 0.787439 -0.615898 0.024689
vn -0.780024 -0.624793 -0.034599
vn -0.577360 -0.577330 -0.577360
vn -0.603529 0.543945 0.582990
vn -0.577372 -0.577339 0.577339
vn -0.577372 -0.577339 0.577339
vn 0.502981 -0.611162 0.611139
vn -0.577360 -0.577330 -0.577360
vn -0.478908 -0.624792 -0.616670
vn -0.512364 0.587725 0.626149
vn -0.478939 -0.624781 0.616657
vn -0.478908 -0.624792 -0.616670
vn 0.491262 -0.615898 0.615899
vn -0.478908 -0.624792 -0.616670
vn -0.267785 -0.577330 -0.771350
vn -0.797354 0.543945 0.261439
vn -0.771352 -0.577339 0.267761
vn -0.771352 -0.577339 0.267761
vn 0.186126 -0.611147 0.769322
vn -0.267785 -0.577330 -0.771350
vn -0.162080 -0.624780 -0.763793
vn -0.188019 0.587725 -0.786911
vn -0.699894 -0.624794 0.346094
vn -0.162080 -0.624780 -0.763793
vn 0.220783 0.540485 0.811869
vn -0.188019 0.587725 -0.786911
vn 0.320433 0.746273 -0.583438
vn 0.293531 0.543945 0.786107
vn 0.272364 -0.577319 0.769754
vn 0.769741 -0.577350 -0.272334
vn -0.717180 -0.611162 0.334864
vn 0.769741 -0.577350 -0.272334
vn -0.190701 -0.611135 -0.768211
vn -0.717180 -0.611162 0.334864
vn 0.192666 0.587725 0.785786
vn 0.166590 -0.624781 0.762821
vn 0.697838 -0.624792 -0.350224
vn -0.708654 -0.615898 0.344207
vn 0.697838 -0.624792 -0.350224
vn 0.477904 -0.694266 -0.538147
vn -0.708654 -0.615898 0.344207
vn -0.772082 0.540474 0.334331
vn 0.395097 0.741176 -0.542731
vn 0.530814 0.746273 -0.401638
vn -0.053185 0.543935 0.837440
vn -0.065868 -0.577330 0.813850
vn 0.813841 -0.577339 0.065891
vn -0.791416 -0.611147 0.012675
vn -0.065868 -0.577330 0.813850
vn -0.791416 -0.611147 0.012675
vn -0.145140 0.587725 0.795936
vn -0.159558 -0.624781 0.764324
vn 0.780024 -0.624792 -0.034601
vn -0.787439 -0.615898 0.024689
vn 0.780024 -0.624792 -0.034601
vn -0.787439 -0.615898 0.024689
vn -0.423284 0.741176 0.521047
vn 0.582337 0.741171 -0.333992
vn 0.037854 0.746273 -0.664563
vn 0.603529 0.543945 0.582990
vn 0.577382 -0.577319 0.577350
vn 0.577350 -0.577350 -0.577350
vn -0.502991 -0.611147 0.611147
vn 0.577350 -0.577350 -0.577350
vn -0.502991 -0.611147 0.611147
vn 0.512364 0.587725 0.626149
vn 0.478939 -0.624781 0.616657
vn 0.478908 -0.624792 -0.616670
vn -0.491262 -0.615898 0.615898
vn 0.478908 -0.624792 -0.616670
vn -0.491262 -0.615898 0.615898
vn 0.122771 0.741176 0.659989
vn 0.122765 0.741170 -0.659996
vn -0.255753 0.746256 -0.614567
vn 0.771365 -0.577319 0.267766
vn 0.267781 -0.577350 -0.771337
vn -0.186126 -0.611147 0.769322
vn 0.267781 -0.577350 -0.771337
vn -0.186126 -0.611147 0.769322
vn -0.233971 0.534080 0.812414
vn 0.734136 0.587725 0.340035
vn 0.699918 -0.624780 0.346070
vn -0.360571 -0.700783 -0.615542
vn -0.173499 -0.615898 0.768484
vn 0.162046 -0.624794 -0.763789
vn -0.173499 -0.615898 0.768484
vn -0.220810 0.540474 0.811869
vn -0.177344 0.741164 -0.647476
f 1/1/1 2/2/2 3/3/3
f 4/4/4 5/5/5 6/6/6
f 1/1/1 5/5/5 7/7/7
f 1/1/1 7/7/7 2/2/2
f 1/1/1 3/3/3 8/8/8
f 9/9/9 10/10/10 11/11/11
f 12/12/12 13/13/13 14/14/14
f 15/15/15 16/16/16 17/17/17
f 18/18/18 19/19/19 20/20/20
f 21/21/21 22/22/22 23/23/23
f 9/9/9 11/11/11 24/24/24
f 12/12/12 14/14/14 25/25/25
f 26/26/26 27/27/27 28/28/28
f 18/18/18 20/20/20 29/29/29
f 21/21/21 23/23/23 30/30/30
f 31/31/31 32/32/32 33/33/33
f 34/34/34 35/35/35 36/36/36
f 37/37/37 38/38/38 39/39/39
f 40/40/40 41/41/41 42/42/42
f 43/43/43 44/44/44 45/45/45
f 45/45/45 42/42/42 46/46/46
f 45/45/45 44/44/44 42/42/42
f 44/44/44 40/40/40 42/42/42
f 42/42/42 39/39/39 46/46/46
f 42/42/42 41/41/41 39/39/39
f 41/41/41 37/37/37 39/39/39
f 39/39/39 36/36/36 46/46/46
f 39/39/39 38/38/38 36/36/36
f 38/38/38 34/34/34 36/36/36
f 36/36/36 33/33/33 46/46/46
f 36/36/36 35/35/35 33/33/33
f 35/35/35 31/31/31 33/33/33
f 33/33/33 45/45/45 46/46/46
f 33/33/33 32/32/32 45/45/45
f 32/32/32 43/43/43 45/45/45
f 47/47/47 44/44/44 43/43/43
f 30/30/30 23/23/23 48/48/48
f 23/23/23 49/49/49 48/48/48
f 50/50/50 51/51/51 49/49/49
f 29/29/29 20/20/20 52/52/52
f 20/20/20 53/53/53 52/52/52
f 28/28/28 54/54/54 53/53/53
f 28/28/28 27/27/27 54/54/54
f 17/17/17 55/55/55 56/56/56
f 25/25/25 57/57/57 55/55/55
f 25/25/25 14/14/14 57/57/57
f 14/14/14 58/58/58 57/57/57
f 24/24/24 59/59/59 60/60/60
f 24/24/24 11/11/11 59/59/59
f 11/11/11 61/61/61 59/59/59
f 23/23/23 50/50/50 49/49/49
f 23/23/23 22/22/22 50/50/50
f 22/22/22 62/62/62 50/50/50
f 20/20/20 28/28/28 53/53/53
f 20/20/20 19/19/19 28/28/28
f 19/19/19 26/26/26 28/28/28
f 17/17/17 25/25/25 55/55/55
f 17/17/17 16/16/16 25/25/25
f 16/16/16 12/12/12 25/25/25
f 63/63/63 24/24/24 60/60/60
f 63/63/63 64/64/64 24/24/24
f 64/64/64 9/9/9 24/24/24
f 11/11/11 65/65/65 61/61/61
f 11/11/11 10/10/10 65/65/65
f 66/66/66 21/21/21 30/30/30
f 8/8/8 67/67/67 68/68/68
f 8/8/8 3/3/3 67/67/67
f 3/3/3 69/69/69 67/67/67
f 2/2/2 70/70/70 71/71/71
f 2/2/2 7/7/7 70/70/70
f 7/7/7 72/72/72 70/70/70
f 7/7/7 73/73/73 72/72/72
f 7/7/7 5/5/5 73/73/73
f 5/5/5 4/4/4 73/73/73
f 6/6/6 8/8/8 68/68/68
f 6/6/6 5/5/5 8/8/8
f 5/5/5 1/1/1 8/8/8
f 3/3/3 74/74/74 69/69/69
f 3/3/3 2/2/2 74/74/74
f 2/2/2 71/71/71 74/74/74
f 75/75/75 76/76/76 77/77/77
f 78/78/78 79/79/79 80/80/80
f 81/81/81 82/82/82 83/83/83
f 84/84/84 85/85/85 86/86/86
f 87/87/87 88/88/88 89/89/89
f 90/90/90 91/91/91 92/92/92
f 90/90/90 93/93/93 94/94/94
f 87/87/87 95/95/95 96/96/96
f 82/82/82 97/97/97 98/98/98
f 99/99/99 100/100/100 101/101/101
f 102/102/102 103/103/103 104/104/104
f 105/105/105 106/106/106 107/107/107
f 108/108/108 109/109/109 110/110/110
f 111/111/111 112/112/112 113/113/113
f 114/114/114 115/115/115 116/116/116
f 117/117/117 118/118/118 119/119/119
f 120/120/120 117/117/117 121/121/121
f 122/122/122 114/114/114 123/123/123
f 113/113/113 124/124/124 125/125/125
f 126/126/126 127/127/127 128/128/128
f 129/129/129 130/130/130 131/131/131
f 132/132/132 133/133/133 134/134/134
f 135/135/135 136/136/136 137/137/137
f 138/138/138 139/139/139 140/140/140
f 141/141/141 142/142/142 143/143/143
f 144/144/144 145/145/145 146/146/146
f 147/147/147 148/148/148 149/149/149
f 150/150/150 151/151/151 152/152/152
f 153/153/153 154/154/154 155/155/155
f 156/156/156 157/157/157 158/158/158
f 159/159/159 160/160/160 161/161/161
f 162/162/162 163/163/163 164/164/164
f 165/165/165 166/166/166 167/167/167
f 168/168/168 169/169/169 170/170/170
f 171/171/171 172/172/172 173/173/173
f 174/174/174 175/175/175 176/176/176
f 177/177/177 178/178/178 179/179/179
f 180/180/180 181/181/181 182/182/182
f 174/174/174 183/183/183 184/184/184
f 185/185/185 172/172/172 186/186/186
f 170/170/170 187/187/187 188/188/188
f 165/165/165 189/189/189 190/190/190
f 191/191/191 192/192/192 193/193/193
f 194/194/194 195/195/195 196/196/196
f 197/197/197 198/198/198 199/199/199
f 200/200/200 201/201/201 202/202/202
f 203/203/203 204/204/204 205/205/205
f 206/206/206 207/207/207 208/208/208
f 209/209/209 210/210/210 211/211/211
f 212/212/212 213/213/213 214/214/214
f 215/215/215 216/216/216 217/217/217
f 218/218/218 219/219/219 220/220/220
f 202/202/202 221/221/221 209/209/209
f 199/199/199 213/213/213 222/222/222
f 223/223/223 196/196/196 216/216/216
f 218/218/218 193/193/193 224/224/224
f 225/225/225 226/226/226 227/227/227
f 228/228/228 229/229/229 230/230/230
f 231/231/231 232/232/232 233/233/233
f 234/234/234 235/235/235 236/236/236
f 237/237/237 238/238/238 239/239/239
f 240/240/240 241/241/241 242/242/242
f 243/243/243 244/244/244 245/245/245
f 246/246/246 247/247/247 248/248/248
f 249/249/249 250/250/250 251/251/251
f 252/252/252 253/253/253 254/254/254
f 246/246/246 255/255/255 256/256/256
f 257/257/257 244/244/244 258/258/258
f 242/242/242 259/259/259 260/260/260
f 237/237/237 261/261/261 262/262/262
f 263/263/263 264/264/264 265/265/265
f 266/266/266 267/267/267 268/268/268
f 269/269/269 270/270/270 271/271/271
f 272/272/272 273/273/273 274/274/274
f 275/275/275 276/276/276 277/277/277
f 278/278/278 279/279/279 280/280/280
f 281/281/281 282/282/282 283/283/283
f 284/284/284 285/285/285 286/286/286
f 287/287/287 288/288/288 289/289/289
f 290/290/290 291/291/291 292/292/292
f 274/274/274 293/293/293 281/281/281
f 271/271/271 285/285/285 294/294/294
f 295/295/295 268/268/268 288/288/288
f 290/290/290 265/265/265 296/296/296
f 297/297/297 298/298/298 299/299/299
f 300/300/300 301/301/301 302/302/302
f 303/303/303 304/304/304 305/305/305
f 306/306/306 307/307/307 308/308/308
f 309/309/309 310/310/310 311/311/311
f 312/312/312 313/313/313 314/314/314
f 315/315/315 316/316/316 317/317/317
f 318/318/318 319/319/319 320/320/320
f 321/321/321 322/322/322 323/323/323
f 324/324/324 325/325/325 326/326/326
f 327/327/327 320/320/320 328/328/328
f 329/329/329 316/316/316 330/330/330
f 314/314/314 331/331/331 332/332/332
f 309/309/309 333/333/333 334/334/334
f 335/335/335 336/336/336 337/337/337
f 338/338/338 339/339/339 340/340/340
f 341/341/341 342/342/342 343/343/343
f 344/344/344 345/345/345 346/346/346
f 347/347/347 348/348/348 349/349/349
f 350/350/350 351/351/351 352/352/352
f 353/353/353 354/354/354 355/355/355
f 356/356/356 357/357/357 358/358/358
f 359/359/359 360/360/360 361/361/361
f 362/362/362 363/363/363 364/364/364
f 346/346/346 365/365/365 353/353/353
f 343/343/343 357/357/357 366/366/366
f 359/359/359 339/339/339 367/367/367
f 362/362/362 337/337/337 368/368/368
f 369/369/369 370/370/370 371/371/371
f 372/372/372 373/373/373 374/374/374
f 375/375/375 376/376/376 377/377/377
f 378/378/378 379/379/379 380/380/380
f 381/381/381 382/382/382 383/383/383
f 384/384/384 385/385/385 386/386/386
f 387/387/387 388/388/388 389/389/389
f 390/390/390 391/391/391 392/392/392
f 393/393/393 394/394/394 395/395/395
f 396/396/396 397/397/397 398/398/398
f 390/390/390 399/399/399 400/400/400
f 401/401/401 388/388/388 402/402/402
f 386/386/386 403/403/403 404/404/404
f 381/381/381 405/405/405 406/406/406
f 407/407/407 408/408/408 409/409/409
f 410/410/410 411/411/411 412/412/412
f 413/413/413 414/414/414 415/415/415
f 416/416/416 417/417/417 418/418/418
f 419/419/419 420/420/420 421/421/421
f 422/422/422 423/423/423 424/424/424
f 425/425/425 426/426/426 427/427/427
f 428/428/428 429/429/429 430/430/430
f 431/431/431 432/432/432 433/433/433
f 434/434/434 435/435/435 436/436/436
f 437/437/437 417/417/417 426/426/426
f 415/415/415 429/429/429 438/438/438
f 410/410/410 432/432/432 439/439/439
f 434/434/434 409/409/409 440/440/440
f 441/441/441 442/442/442 443/443/443
f 444/444/444 445/445/445 446/446/446
f 447/447/447 448/448/448 449/449/449
f 450/450/450 451/451/451 452/452/452
f 453/453/453 454/454/454 455/455/455
f 456/456/456 457/457/457 458/458/458
f 459/459/459 460/460/460 461/461/461
f 462/462/462 463/463/463 464/464/464
f 465/465/465 466/466/466 467/467/467
f 468/468/468 469/469/469 470/470/470
f 471/471/471 462/462/462 464/464/464
f 472/472/472 459/459/459 461/461/461
f 473/473/473 458/458/458 474/474/474
f 475/475/475 453/453/453 476/476/476
f 477/477/477 478/478/478 479/479/479
f 480/480/480 481/481/481 482/482/482
f 483/483/483 484/484/484 485/485/485
f 486/486/486 487/487/487 488/488/488
f 489/489/489 490/490/490 491/491/491
f 492/492/492 493/493/493 494/494/494
f 495/495/495 496/496/496 497/497/497
f 498/498/498 499/499/499 500/500/500
f 501/501/501 502/502/502 503/503/503
f 504/504/504 505/505/505 506/506/506
f 496/496/496 486/486/486 488/488/488
f 499/499/499 485/485/485 500/500/500
f 502/502/502 482/482/482 503/503/503
f 505/505/505 507/507/507 477/477/477
f 508/508/508 509/509/509 510/510/510
f 511/511/511 512/512/512 513/513/513
f 514/514/514 515/515/515 516/516/516
f 517/517/517 518/518/518 519/519/519
f 520/520/520 521/521/521 522/522/522
f 523/523/523 524/524/524 525/525/525
f 526/526/526 527/527/527 528/528/528
f 529/529/529 530/530/530 531/531/531
f 532/532/532 533/533/533 534/534/534
f 535/535/535 536/536/536 537/537/537
f 538/538/538 531/531/531 539/539/539
f 540/540/540 526/526/526 528/528/528
f 541/541/541 525/525/525 542/542/542
f 543/543/543 520/520/520 544/544/544
f 545/545/545 546/546/546 547/547/547
f 548/548/548 549/549/549 550/550/550
f 551/551/551 552/552/552 553/553/553
f 554/554/554 555/555/555 556/556/556
f 557/557/557 558/558/558 559/559/559
f 560/560/560 561/561/561 562/562/562
f 563/563/563 564/564/564 565/565/565
f 566/566/566 567/567/567 568/568/568
f 569/569/569 570/570/570 571/571/571
f 572/572/572 573/573/573 574/574/574
f 575/575/575 556/556/556 564/564/564
f 567/567/567 553/553/553 568/568/568
f 570/570/570 548/548/548 550/550/550
f 573/573/573 576/576/576 545/545/545
f 577/577/577 578/578/578 579/579/579
f 580/580/580 581/581/581 582/582/582
f 583/583/583 584/584/584 585/585/585
f 586/586/586 587/587/587 588/588/588
f 589/589/589 590/590/590 591/591/591
f 592/592/592 593/593/593 594/594/594
f 595/595/595 596/596/596 597/597/597
f 598/598/598 599/599/599 600/600/600
f 601/601/601 602/602/602 603/603/603
f 604/604/604 605/605/605 606/606/606
f 607/607/607 600/600/600 608/608/608
f 609/609/609 595/595/595 597/597/597
f 610/610/610 594/594/594 611/611/611
f 612/612/612 589/589/589 613/613/613
f 614/614/614 615/615/615 616/616/616
f 617/617/617 618/618/618 619/619/619
f 620/620/620 621/621/621 622/622/622
f 623/623/623 624/624/624 625/625/625
f 626/626/626 627/627/627 628/628/628
f 629/629/629 630/630/630 631/631/631
f 632/632/632 633/633/633 634/634/634
f 635/635/635 636/636/636 637/637/637
f 638/638/638 639/639/639 640/640/640
f 641/641/641 642/642/642 643/643/643
f 644/644/644 625/625/625 633/633/633
f 636/636/636 622/622/622 637/637/637
f 639/639/639 617/617/617 619/619/619
f 642/642/642 645/645/645 614/614/614
f 646/646/646 647/647/647 648/648/648
f 649/649/649 650/650/650 651/651/651
f 652/652/652 653/653/653 654/654/654
f 655/655/655 656/656/656 657/657/657
f 658/658/658 659/659/659 660/660/660
f 661/661/661 662/662/662 663/663/663
f 664/664/664 665/665/665 666/666/666
f 667/667/667 668/668/668 669/669/669
f 670/670/670 671/671/671 672/672/672
f 673/673/673 674/674/674 675/675/675
f 676/676/676 669/669/669 677/677/677
f 678/678/678 664/664/664 666/666/666
f 679/679/679 680/680/680 661/661/661
f 681/681/681 658/658/658 682/682/682
f 683/683/683 684/684/684 685/685/685
f 686/686/686 687/687/687 688/688/688
f 689/689/689 690/690/690 691/691/691
f 692/692/692 693/693/693 694/694/694
f 695/695/695 696/696/696 697/697/697
f 698/698/698 699/699/699 700/700/700
f 701/701/701 702/702/702 703/703/703
f 704/704/704 705/705/705 706/706/706
f 707/707/707 708/708/708 709/709/709
f 710/710/710 711/711/711 712/712/712
f 713/713/713 692/692/692 702/702/702
f 705/705/705 691/691/691 706/706/706
f 709/709/709 686/686/686 688/688/688
f 711/711/711 714/714/714 683/683/683
f 715/715/715 716/716/716 717/717/717
f 718/718/718 719/719/719 720/720/720
f 721/721/721 722/722/722 723/723/723
f 724/724/724 725/725/725 726/726/726
f 75/75/75 727/727/727 76/76/76
f 78/78/78 728/728/728 79/79/79
f 81/81/81 729/729/729 82/82/82
f 84/84/84 730/730/730 85/85/85
f 87/87/87 731/731/731 88/88/88
f 90/90/90 732/732/732 91/91/91
f 90/90/90 92/92/92 93/93/93
f 87/87/87 89/89/89 95/95/95
f 82/82/82 729/729/729 97/97/97
f 99/99/99 733/733/733 100/100/100
f 102/102/102 734/734/734 103/103/103
f 105/105/105 735/735/735 106/106/106
f 108/108/108 736/736/736 109/109/109
f 111/111/111 737/737/737 112/112/112
f 114/114/114 738/738/738 115/115/115
f 117/117/117 739/739/739 118/118/118
f 120/120/120 739/739/739 117/117/117
f 122/122/122 738/738/738 114/114/114
f 113/113/113 112/112/112 124/124/124
f 126/126/126 740/740/740 127/127/127
f 165/165/165 741/741/741 166/166/166
f 168/168/168 742/742/742 169/169/169
f 171/171/171 743/743/743 172/172/172
f 174/174/174 744/744/744 175/175/175
f 177/177/177 745/745/745 178/178/178
f 180/180/180 746/746/746 181/181/181
f 174/174/174 176/176/176 183/183/183
f 185/185/185 173/173/173 172/172/172
f 170/170/170 169/169/169 187/187/187
f 165/165/165 167/167/167 189/189/189
f 191/191/191 747/747/747 192/192/192
f 194/194/194 748/748/748 195/195/195
f 197/197/197 749/749/749 198/198/198
f 200/200/200 750/750/750 201/201/201
f 203/203/203 751/751/751 204/204/204
f 206/206/206 752/752/752 207/207/207
f 209/209/209 221/221/221 210/210/210
f 212/212/212 222/222/222 213/213/213
f 215/215/215 223/223/223 216/216/216
f 218/218/218 224/224/224 219/219/219
f 202/202/202 201/201/201 221/221/221
f 199/199/199 198/198/198 213/213/213
f 223/223/223 194/194/194 196/196/196
f 218/218/218 191/191/191 193/193/193
f 237/237/237 753/753/753 238/238/238
f 240/240/240 754/754/754 241/241/241
f 243/243/243 755/755/755 244/244/244
f 246/246/246 756/756/756 247/247/247
f 249/249/249 757/757/757 250/250/250
f 252/252/252 758/758/758 253/253/253
f 246/246/246 248/248/248 255/255/255
f 257/257/257 245/245/245 244/244/244
f 242/242/242 241/241/241 259/259/259
f 237/237/237 239/239/239 261/261/261
f 263/263/263 759/759/759 264/264/264
f 266/266/266 760/760/760 267/267/267
f 269/269/269 761/761/761 270/270/270
f 272/272/272 762/762/762 273/273/273
f 275/275/275 763/763/763 276/276/276
f 278/278/278 764/764/764 279/279/279
f 281/281/281 293/293/293 282/282/282
f 284/284/284 294/294/294 285/285/285
f 287/287/287 295/295/295 288/288/288
f 290/290/290 296/296/296 291/291/291
f 274/274/274 273/273/273 293/293/293
f 271/271/271 270/270/270 285/285/285
f 295/295/295 266/266/266 268/268/268
f 290/290/290 263/263/263 265/265/265
f 309/309/309 765/765/765 310/310/310
f 312/312/312 766/766/766 313/313/313
f 315/315/315 767/767/767 316/316/316
f 318/318/318 768/768/768 319/319/319
f 321/321/321 769/769/769 322/322/322
f 324/324/324 770/770/770 325/325/325
f 327/327/327 318/318/318 320/320/320
f 329/329/329 317/317/317 316/316/316
f 314/314/314 313/313/313 331/331/331
f 309/309/309 311/311/311 333/333/333
f 335/335/335 771/771/771 336/336/336
f 338/338/338 772/772/772 339/339/339
f 341/341/341 773/773/773 342/342/342
f 344/344/344 774/774/774 345/345/345
f 347/347/347 775/775/775 348/348/348
f 350/350/350 776/776/776 351/351/351
f 353/353/353 365/365/365 354/354/354
f 356/356/356 366/366/366 357/357/357
f 359/359/359 367/367/367 360/360/360
f 362/362/362 368/368/368 363/363/363
f 346/346/346 345/345/345 365/365/365
f 343/343/343 342/342/342 357/357/357
f 359/359/359 340/340/340 339/339/339
f 362/362/362 335/335/335 337/337/337
f 381/381/381 777/777/777 382/382/382
f 384/384/384 778/778/778 385/385/385
f 387/387/387 779/779/779 388/388/388
f 390/390/390 780/780/780 391/391/391
f 393/393/393 781/781/781 394/394/394
f 396/396/396 782/782/782 397/397/397
f 390/390/390 392/392/392 399/399/399
f 401/401/401 389/389/389 388/388/388
f 386/386/386 385/385/385 403/403/403
f 381/381/381 383/383/383 405/405/405
f 407/407/407 783/783/783 408/408/408
f 410/410/410 784/784/784 411/411/411
f 413/413/413 785/785/785 414/414/414
f 416/416/416 786/786/786 417/417/417
f 419/419/419 787/787/787 420/420/420
f 422/422/422 788/788/788 423/423/423
f 425/425/425 437/437/437 426/426/426
f 428/428/428 438/438/438 429/429/429
f 431/431/431 439/439/439 432/432/432
f 434/434/434 440/440/440 435/435/435
f 437/437/437 418/418/418 417/417/417
f 415/415/415 414/414/414 429/429/429
f 410/410/410 412/412/412 432/432/432
f 434/434/434 407/407/407 409/409/409
f 453/453/453 789/789/789 454/454/454
f 456/456/456 790/790/790 457/457/457
f 459/459/459 791/791/791 460/460/460
f 462/462/462 792/792/792 463/463/463
f 465/465/465 793/793/793 466/466/466
f 468/468/468 794/794/794 469/469/469
f 471/471/471 795/795/795 462/462/462
f 472/472/472 796/796/796 459/459/459
f 473/473/473 456/456/456 458/458/458
f 475/475/475 789/789/789 453/453/453
f 477/477/477 507/507/507 478/478/478
f 480/480/480 797/797/797 481/481/481
f 483/483/483 798/798/798 484/484/484
f 486/486/486 799/799/799 487/487/487
f 489/489/489 800/800/800 490/490/490
f 492/492/492 801/801/801 493/493/493
f 495/495/495 802/802/802 496/496/496
f 498/498/498 803/803/803 499/499/499
f 501/501/501 804/804/804 502/502/502
f 504/504/504 805/805/805 505/505/505
f 496/496/496 802/802/802 486/486/486
f 499/499/499 483/483/483 485/485/485
f 502/502/502 480/480/480 482/482/482
f 505/505/505 805/805/805 507/507/507
f 520/520/520 806/806/806 521/521/521
f 523/523/523 807/807/807 524/524/524
f 526/526/526 808/808/808 527/527/527
f 529/529/529 809/809/809 530/530/530
f 532/532/532 810/810/810 533/533/533
f 535/535/535 811/811/811 536/536/536
f 538/538/538 529/529/529 531/531/531
f 540/540/540 812/812/812 526/526/526
f 541/541/541 523/523/523 525/525/525
f 543/543/543 806/806/806 520/520/520
f 545/545/545 576/576/576 546/546/546
f 548/548/548 813/813/813 549/549/549
f 551/551/551 814/814/814 552/552/552
f 554/554/554 815/815/815 555/555/555
f 557/557/557 816/816/816 558/558/558
f 560/560/560 817/817/817 561/561/561
f 563/563/563 575/575/575 564/564/564
f 566/566/566 818/818/818 567/567/567
f 569/569/569 819/819/819 570/570/570
f 572/572/572 820/820/820 573/573/573
f 575/575/575 554/554/554 556/556/556
f 567/567/567 551/551/551 553/553/553
f 570/570/570 819/819/819 548/548/548
f 573/573/573 820/820/820 576/576/576
f 589/589/589 821/821/821 590/590/590
f 592/592/592 822/822/822 593/593/593
f 595/595/595 823/823/823 596/596/596
f 598/598/598 824/824/824 599/599/599
f 601/601/601 825/825/825 602/602/602
f 604/604/604 826/826/826 605/605/605
f 607/607/607 598/598/598 600/600/600
f 609/609/609 827/827/827 595/595/595
f 610/610/610 592/592/592 594/594/594
f 612/612/612 821/821/821 589/589/589
f 614/614/614 645/645/645 615/615/615
f 617/617/617 828/828/828 618/618/618
f 620/620/620 829/829/829 621/621/621
f 623/623/623 830/830/830 624/624/624
f 626/626/626 831/831/831 627/627/627
f 629/629/629 832/832/832 630/630/630
f 632/632/632 644/644/644 633/633/633
f 635/635/635 833/833/833 636/636/636
f 638/638/638 834/834/834 639/639/639
f 641/641/641 835/835/835 642/642/642
f 644/644/644 623/623/623 625/625/625
f 636/636/636 620/620/620 622/622/622
f 639/639/639 834/834/834 617/617/617
f 642/642/642 835/835/835 645/645/645
f 658/658/658 836/836/836 659/659/659
f 661/661/661 680/680/680 662/662/662
f 664/664/664 837/837/837 665/665/665
f 667/667/667 838/838/838 668/668/668
f 670/670/670 839/839/839 671/671/671
f 673/673/673 840/840/840 674/674/674
f 676/676/676 667/667/667 669/669/669
f 678/678/678 841/841/841 664/664/664
f 679/679/679 842/842/842 680/680/680
f 681/681/681 836/836/836 658/658/658
f 683/683/683 714/714/714 684/684/684
f 686/686/686 843/843/843 687/687/687
f 689/689/689 844/844/844 690/690/690
f 692/692/692 845/845/845 693/693/693
f 695/695/695 846/846/846 696/696/696
f 698/698/698 847/847/847 699/699/699
f 701/701/701 713/713/713 702/702/702
f 704/704/704 848/848/848 705/705/705
f 707/707/707 849/849/849 708/708/708
f 710/710/710 850/850/850 711/711/711
f 713/713/713 845/845/845 692/692/692
f 705/705/705 689/689/689 691/691/691
f 709/709/709 708/708/708 686/686/686
f 711/711/711 850/850/850 714/714/714
