# Cube -- imported by tools/import_asset_pack.py from wolf.fbx
o __pending__
v 0.000000 0.183819 0.139876
v 0.123307 0.181222 0.064122
v -0.000000 0.201798 -0.038426
v 0.123307 -0.029825 0.041038
v 0.123308 0.169253 0.182831
v 0.123308 -0.051199 0.205916
v 0.000000 0.234363 0.288972
v 0.123308 0.221100 0.326894
v 0.123308 0.202904 0.282096
v 0.000000 -0.147299 0.174548
v 0.123307 -0.029825 0.041038
v 0.123308 -0.051199 0.205916
v 0.123307 0.174789 -0.065148
v 0.123307 0.181222 0.064122
v 0.123308 -0.011563 0.331685
v 0.000000 0.015331 0.474403
v 0.000000 -0.087766 0.363454
v 0.000000 0.015331 0.474403
v 0.095123 0.126164 0.473336
v 0.000000 0.122361 0.554104
v 0.123308 0.169253 0.182831
v 0.123308 -0.011563 0.331685
v 0.123308 0.202904 0.282096
v 0.123308 0.057077 0.405552
v 0.095123 0.126164 0.473336
v 0.114320 0.240891 0.487200
v 0.158373 0.149324 0.499863
v 0.123308 0.221100 0.326894
v 0.000000 0.261694 0.356259
v 0.095123 0.272514 0.423812
v 0.000000 0.165245 0.595043
v 0.042293 0.167200 0.577855
v 0.000000 0.177197 0.625278
v 0.000000 0.320835 0.478266
v 0.055176 0.318080 0.518226
v 0.055176 0.339231 0.466526
v 0.095123 0.126164 0.473336
v 0.000000 0.122361 0.554104
v 0.023744 0.187202 0.678427
v 0.000000 0.188407 0.685306
v 0.114320 0.240891 0.487200
v 0.042293 0.167200 0.577855
v 0.158373 0.149324 0.499863
v 0.000000 0.302779 0.576024
v 0.042293 0.226826 0.568617
v 0.114320 0.240891 0.487200
v 0.015570 0.218697 0.684482
v 0.000000 0.188407 0.685306
v 0.023744 0.187202 0.678427
v 0.023744 0.187202 0.678427
v 0.042293 0.167200 0.577855
v 0.000000 0.266756 0.611403
v 0.015570 0.218697 0.684482
v -0.000000 -0.133846 -0.268547
v 0.123307 0.062867 -0.139498
v 0.123307 -0.042242 -0.089088
v -0.000000 -0.115195 -0.073099
v 0.123307 -0.042242 -0.089088
v 0.123307 0.174789 -0.065148
v -0.000000 0.192135 -0.232590
v -0.000000 0.024029 -0.344263
v 0.123307 0.120874 -0.150613
v 0.123307 0.120874 -0.150613
v -0.000000 0.111154 -0.360958
v 0.111081 -0.074009 0.313907
v 0.045094 -0.074660 0.341634
v 0.066336 -0.124252 0.313907
v 0.066336 -0.124252 0.313907
v 0.045094 -0.098766 0.222098
v 0.066553 -0.139290 0.213256
v 0.103612 -0.134608 0.213256
v 0.111070 -0.093490 0.222098
v 0.128845 -0.134608 0.213256
v 0.111070 -0.093490 0.222098
v 0.136314 -0.074009 0.313907
v 0.128845 -0.134608 0.213256
v 0.109230 -0.216195 0.201220
v 0.110425 -0.332266 0.230452
v 0.110425 -0.346253 0.186811
v 0.096755 -0.004154 0.341634
v 0.111070 -0.093490 0.222098
v 0.086054 -0.093490 0.222098
v 0.110425 -0.346253 0.186811
v 0.085093 -0.495954 0.228777
v 0.085093 -0.346253 0.186811
v 0.055451 -0.219507 0.201220
v 0.067042 -0.334504 0.230452
v 0.054732 -0.225421 0.258230
v 0.054732 -0.225421 0.258230
v 0.085093 -0.332266 0.230452
v 0.083497 -0.222001 0.258230
v 0.109230 -0.216195 0.201220
v 0.083497 -0.216195 0.201220
v 0.110425 -0.495954 0.228777
v 0.121749 -0.513941 0.264365
v 0.110425 -0.514718 0.229393
v 0.067042 -0.334504 0.230452
v 0.085093 -0.481967 0.262883
v 0.059761 -0.495954 0.228777
v 0.059761 -0.491292 0.263749
v 0.085093 -0.513941 0.264365
v 0.110425 -0.514718 0.229393
v 0.121749 -0.513941 0.264365
v 0.059761 -0.513941 0.264365
v 0.110425 -0.495954 0.228777
v 0.085093 -0.514718 0.229393
v 0.059761 -0.495487 0.287728
v 0.059761 -0.495487 0.287728
v 0.085093 -0.515339 0.293545
v 0.085093 -0.486162 0.286861
v 0.059761 -0.491292 0.263749
v 0.085093 -0.486162 0.286861
v 0.085093 -0.481967 0.262883
v 0.110425 -0.495487 0.287728
v 0.110425 -0.515339 0.293545
v 0.110425 -0.515339 0.293545
v 0.085093 -0.515339 0.293545
v 0.059761 -0.515339 0.293545
v 0.059761 -0.513941 0.264365
v 0.110425 -0.495487 0.287728
v 0.121749 -0.491292 0.263749
v 0.110425 -0.495487 0.287728
v 0.110425 -0.515339 0.293545
v 0.059761 -0.514718 0.229393
v 0.059761 -0.495954 0.228777
v 0.059761 -0.514718 0.229393
v 0.110425 -0.332266 0.230452
v 0.121749 -0.491292 0.263749
v 0.055451 -0.219507 0.201220
v 0.067043 -0.348491 0.186811
v 0.109230 -0.222001 0.258230
v 0.045094 -0.074660 0.341634
v 0.045094 -0.098766 0.222098
v 0.066553 -0.139290 0.213256
v 0.086054 -0.093490 0.222098
v 0.121771 -0.004154 0.341634
v 0.136314 -0.074009 0.313907
v 0.096831 -0.242288 -0.117113
v -0.000000 0.016122 -0.043387
v 0.040607 -0.248650 -0.118440
v 0.040607 -0.248650 -0.118440
v -0.000000 0.012059 -0.265250
v 0.042014 -0.267964 -0.271858
v 0.096831 -0.261659 -0.271858
v 0.106102 0.022392 -0.265250
v 0.147131 -0.261659 -0.271858
v 0.106102 0.022392 -0.265250
v 0.147131 -0.242288 -0.117113
v 0.147131 -0.261659 -0.271858
v 0.122910 -0.418333 -0.158481
v 0.122910 -0.431959 -0.202121
v -0.000000 0.016122 -0.043387
v -0.000000 0.053939 -0.211143
v -0.000000 0.012059 -0.265250
v 0.122910 -0.431959 -0.202121
v 0.097578 -0.491862 -0.177170
v 0.097578 -0.431959 -0.202121
v 0.079528 -0.420513 -0.158481
v 0.097578 -0.418333 -0.158481
v 0.134234 -0.489591 -0.126305
v 0.122910 -0.510141 -0.176555
v 0.122910 -0.491862 -0.177170
v 0.079528 -0.420513 -0.158481
v 0.097578 -0.480508 -0.127172
v 0.072246 -0.491862 -0.177170
v 0.072246 -0.489591 -0.126305
v 0.097578 -0.511655 -0.125690
v 0.122910 -0.510141 -0.176555
v 0.134234 -0.511655 -0.125690
v 0.072246 -0.510141 -0.176555
v 0.072246 -0.511655 -0.125690
v 0.122910 -0.491862 -0.177170
v 0.097578 -0.510141 -0.176555
v 0.072246 -0.493678 -0.102327
v 0.072246 -0.493678 -0.102327
v 0.097578 -0.513017 -0.096510
v 0.097578 -0.484594 -0.103193
v 0.072246 -0.489591 -0.126305
v 0.097578 -0.484594 -0.103193
v 0.097578 -0.480508 -0.127172
v 0.134234 -0.511655 -0.125690
v 0.122910 -0.493678 -0.102327
v 0.122910 -0.513017 -0.096510
v 0.122910 -0.513017 -0.096510
v 0.097578 -0.513017 -0.096510
v 0.072246 -0.513017 -0.096510
v 0.072246 -0.511655 -0.125690
v 0.122910 -0.493678 -0.102327
v 0.134234 -0.489591 -0.126305
v 0.122910 -0.493678 -0.102327
v 0.122910 -0.513017 -0.096510
v 0.072246 -0.510141 -0.176555
v 0.072246 -0.491862 -0.177170
v 0.072246 -0.510141 -0.176555
v 0.122910 -0.418333 -0.158481
v 0.134234 -0.489591 -0.126305
v 0.042014 -0.267964 -0.271858
v 0.079528 -0.434139 -0.202121
v 0.147131 -0.242288 -0.117113
v 0.077962 0.061159 -0.096920
v 0.106102 0.026216 -0.041281
v -0.000000 0.012059 -0.265250
v 0.106102 0.026216 -0.041281
v 0.109230 -0.222001 0.258230
v 0.052309 0.061159 -0.096920
v 0.077962 0.059209 -0.211143
v 0.052309 0.059209 -0.211143
v -0.000000 0.056011 -0.097994
v -0.000000 0.053939 -0.211143
v 0.055802 0.022392 -0.265250
v 0.055802 0.026216 -0.041281
v 0.077962 0.061159 -0.096920
v 0.106102 0.022392 -0.265250
v -0.000000 0.016122 -0.043387
v 0.080071 0.074105 -0.355523
v -0.000000 0.129369 -0.276793
v 0.080365 0.056678 -0.357921
v -0.000000 0.011145 -0.341053
v -0.000000 0.030699 -0.457031
v -0.000000 -0.062095 -0.428370
v -0.000000 -0.133112 -0.398835
v 0.049239 -0.102781 -0.466906
v 0.051641 -0.077849 -0.411910
v 0.080862 0.055355 -0.395906
v 0.080365 0.056678 -0.357921
v 0.081721 -0.009721 -0.385976
v -0.000000 -0.059449 -0.320359
v 0.051641 -0.077849 -0.411910
v 0.082000 -0.044727 -0.366040
v -0.000000 0.135921 -0.336887
v 0.080071 0.074105 -0.355523
v 0.080862 0.055355 -0.395906
v 0.081203 0.009521 -0.367891
v 0.082000 -0.044727 -0.366040
v 0.051439 -0.043318 -0.437380
v 0.049064 -0.072854 -0.488980
v -0.000000 -0.059449 -0.320359
v -0.000000 -0.133112 -0.398835
v -0.000000 0.043035 -0.306787
v 0.081203 0.009521 -0.367891
v -0.000000 0.043035 -0.306787
v -0.000000 0.030699 -0.457031
v 0.051086 0.002581 -0.464492
v -0.000000 -0.059449 -0.320359
v 0.051086 0.002581 -0.464492
v -0.000000 0.129369 -0.276793
v -0.000000 0.135921 -0.336887
v -0.000000 -0.105284 -0.518348
v -0.000000 -0.103035 -0.656938
v -0.000000 -0.160804 -0.655028
v -0.000000 -0.166832 -0.492751
v 0.082668 -0.152153 -0.565930
v 0.049239 -0.102781 -0.466906
v -0.000000 -0.047514 -0.520259
v 0.051086 0.002581 -0.464492
v -0.000000 -0.047514 -0.520259
v -0.000000 0.030699 -0.457031
v -0.000000 -0.166832 -0.492751
v 0.052170 -0.042974 -0.495918
v 0.082211 -0.123677 -0.563792
v 0.086483 -0.132783 -0.616620
v 0.085316 -0.093797 -0.570730
v -0.000000 -0.209244 -0.703853
v -0.000000 -0.213862 -0.667040
v -0.000000 -0.047514 -0.520259
v 0.085316 -0.093797 -0.570730
v -0.000000 -0.103035 -0.656938
v -0.000000 -0.165448 -0.740898
v 0.083325 -0.148005 -0.623084
v -0.000000 -0.192455 -0.755598
v -0.000000 -0.209244 -0.703853
v 0.082969 -0.152650 -0.589259
v -0.000000 -0.213862 -0.667040
v 0.082969 -0.152650 -0.589259
v -0.000000 -0.165448 -0.740898
v -0.000000 -0.192455 -0.755598
v 0.086483 -0.132783 -0.616620
v -0.000000 -0.165448 -0.740898
v 0.116546 0.284856 0.470542
v 0.123942 0.387387 0.497139
v 0.055176 0.318080 0.518226
v 0.095123 0.272514 0.423812
v 0.116546 0.284856 0.470542
v 0.095123 0.272514 0.423812
v 0.055176 0.339231 0.466526
v 0.106241 0.301833 0.436513
v 0.114320 0.240891 0.487200
v 0.000000 0.302779 0.576024
v 0.123942 0.391321 0.487525
v 0.135354 0.381209 0.488272
v 0.133438 0.384366 0.481944
v 0.133438 0.384366 0.481944
v 0.106241 0.301833 0.436513
v 0.135354 0.381209 0.488272
v 0.123942 0.387387 0.497139
v -0.123307 0.181222 0.064122
v -0.123307 -0.029825 0.041038
v -0.123307 0.169253 0.182831
v -0.123307 0.181222 0.064122
v -0.123307 0.221100 0.326894
v -0.123307 0.202904 0.282096
v -0.123307 -0.029825 0.041038
v -0.123307 0.174789 -0.065148
v -0.123307 -0.011563 0.331685
v -0.095123 0.126164 0.473336
v -0.123307 0.057077 0.405552
v -0.123307 0.169253 0.182831
v -0.123307 -0.011563 0.331685
v -0.123307 -0.051199 0.205916
v -0.123307 -0.051199 0.205916
v -0.123307 0.057077 0.405552
v -0.123307 0.202904 0.282096
v -0.095123 0.126164 0.473336
v -0.114320 0.240891 0.487200
v -0.095123 0.272514 0.423812
v -0.123307 0.221100 0.326894
v -0.095123 0.272514 0.423812
v -0.042293 0.167200 0.577855
v -0.158373 0.149324 0.499863
v -0.055176 0.318080 0.518226
v 0.000000 0.302779 0.576024
v -0.095123 0.126164 0.473336
v -0.023744 0.187202 0.678427
v -0.042293 0.167200 0.577855
v -0.114320 0.240891 0.487200
v -0.158373 0.149324 0.499863
v -0.042293 0.226826 0.568617
v 0.000000 0.302779 0.576024
v -0.114320 0.240891 0.487200
v -0.015570 0.218697 0.684482
v -0.023744 0.187202 0.678427
v -0.023744 0.187202 0.678427
v -0.042293 0.167200 0.577855
v -0.015570 0.218697 0.684482
v 0.000000 0.266756 0.611403
v -0.123308 0.062867 -0.139498
v -0.000000 -0.133846 -0.268547
v -0.123307 -0.042242 -0.089088
v -0.123307 -0.042242 -0.089088
v -0.123307 0.174789 -0.065148
v -0.000000 0.024029 -0.344263
v -0.123308 0.120874 -0.150613
v -0.000000 0.111154 -0.360958
v -0.123308 0.120874 -0.150613
v -0.111081 -0.074009 0.313907
v -0.045094 -0.074660 0.341634
v -0.096755 -0.004154 0.341634
v -0.066336 -0.124252 0.313907
v -0.045094 -0.098766 0.222098
v -0.045094 -0.074660 0.341634
v -0.103612 -0.134608 0.213256
v -0.111070 -0.093490 0.222098
v -0.086054 -0.093490 0.222098
v -0.136314 -0.074009 0.313907
v -0.111070 -0.093490 0.222098
v -0.128845 -0.134608 0.213256
v -0.109230 -0.216195 0.201220
v -0.110425 -0.332266 0.230452
v -0.109230 -0.222001 0.258230
v -0.111070 -0.093490 0.222098
v -0.096755 -0.004154 0.341634
v -0.086054 -0.093490 0.222098
v -0.085093 -0.495954 0.228777
v -0.110425 -0.346253 0.186811
v -0.085093 -0.346253 0.186811
v -0.067042 -0.334504 0.230452
v -0.055451 -0.219507 0.201220
v -0.054732 -0.225421 0.258230
v -0.085093 -0.332266 0.230452
v -0.054732 -0.225421 0.258230
v -0.083497 -0.222001 0.258230
v -0.109230 -0.216195 0.201220
v -0.083497 -0.216195 0.201220
v -0.110425 -0.495954 0.228777
v -0.121749 -0.513941 0.264365
v -0.121749 -0.491292 0.263749
v -0.085093 -0.481967 0.262883
v -0.067042 -0.334504 0.230452
v -0.110425 -0.346253 0.186811
v -0.059761 -0.495954 0.228777
v -0.067042 -0.348491 0.186811
v -0.085093 -0.513941 0.264365
v -0.110425 -0.514718 0.229393
v -0.085093 -0.514718 0.229393
v -0.059761 -0.513941 0.264365
v -0.059761 -0.491292 0.263749
v -0.085093 -0.514718 0.229393
v -0.110425 -0.495954 0.228777
v -0.059761 -0.495487 0.287728
v -0.085093 -0.515339 0.293545
v -0.059761 -0.495487 0.287728
v -0.085093 -0.486162 0.286861
v -0.085093 -0.486162 0.286861
v -0.059761 -0.491292 0.263749
v -0.085093 -0.481967 0.262883
v -0.110425 -0.495487 0.287728
v -0.110425 -0.515339 0.293545
v -0.121749 -0.513941 0.264365
v -0.059761 -0.515339 0.293545
v -0.059761 -0.513941 0.264365
v -0.110425 -0.495487 0.287728
v -0.121749 -0.491292 0.263749
v -0.110425 -0.495487 0.287728
v -0.059761 -0.514718 0.229393
v -0.059761 -0.495954 0.228777
v -0.059761 -0.514718 0.229393
v -0.110425 -0.332266 0.230452
v -0.055451 -0.219507 0.201220
v -0.109230 -0.222001 0.258230
v -0.067042 -0.348491 0.186811
v -0.045094 -0.074660 0.341634
v -0.045094 -0.098766 0.222098
v -0.066553 -0.139290 0.213256
v -0.045094 -0.098766 0.222098
v -0.121771 -0.004154 0.341634
v -0.136314 -0.074009 0.313907
v -0.096831 -0.242288 -0.117113
v -0.000000 0.016122 -0.043387
v -0.055802 0.026216 -0.041281
v -0.040607 -0.248650 -0.118440
v -0.000000 0.012059 -0.265250
v -0.000000 0.016122 -0.043387
v -0.096831 -0.261659 -0.271858
v -0.106102 0.022392 -0.265249
v -0.055802 0.022392 -0.265249
v -0.147131 -0.242288 -0.117113
v -0.106102 0.022392 -0.265249
v -0.147131 -0.261659 -0.271858
v -0.122910 -0.418333 -0.158481
v -0.097578 -0.491862 -0.177170
v -0.122910 -0.431959 -0.202121
v -0.097578 -0.431959 -0.202121
v -0.079528 -0.420513 -0.158481
v -0.042014 -0.267964 -0.271858
v -0.097578 -0.418333 -0.158481
v -0.040607 -0.248650 -0.118440
v -0.147131 -0.261659 -0.271858
v -0.122910 -0.510141 -0.176555
v -0.134234 -0.489591 -0.126305
v -0.122910 -0.491862 -0.177170
v -0.097578 -0.480508 -0.127172
v -0.079528 -0.420513 -0.158481
v -0.122910 -0.431959 -0.202121
v -0.072246 -0.491862 -0.177170
v -0.079528 -0.434139 -0.202121
v -0.097578 -0.511655 -0.125690
v -0.122910 -0.510141 -0.176555
v -0.097578 -0.510141 -0.176555
v -0.072246 -0.489591 -0.126305
v -0.072246 -0.510141 -0.176555
v -0.097578 -0.510141 -0.176555
v -0.122910 -0.491862 -0.177170
v -0.072246 -0.493678 -0.102327
v -0.072246 -0.511655 -0.125690
v -0.097578 -0.513017 -0.096510
v -0.072246 -0.493678 -0.102327
v -0.097578 -0.484594 -0.103193
v -0.097578 -0.484594 -0.103193
v -0.072246 -0.489591 -0.126305
v -0.097578 -0.480508 -0.127172
v -0.134234 -0.511655 -0.125690
v -0.122910 -0.493678 -0.102327
v -0.122910 -0.513017 -0.096510
v -0.134234 -0.511655 -0.125690
v -0.072246 -0.513017 -0.096510
v -0.072246 -0.511655 -0.125690
v -0.122910 -0.493678 -0.102327
v -0.134234 -0.489591 -0.126305
v -0.122910 -0.493678 -0.102327
v -0.072246 -0.510141 -0.176555
v -0.072246 -0.491862 -0.177170
v -0.072246 -0.510141 -0.176555
v -0.122910 -0.418333 -0.158481
v -0.042014 -0.267964 -0.271858
v -0.147131 -0.242288 -0.117113
v -0.079528 -0.434139 -0.202121
v -0.077962 0.061159 -0.096920
v -0.106102 0.026216 -0.041281
v -0.000000 0.012059 -0.265250
v -0.106102 0.026216 -0.041281
v -0.066553 -0.139290 0.213256
v -0.066336 -0.124252 0.313907
v -0.077962 0.059209 -0.211143
v -0.052309 0.061159 -0.096920
v -0.052309 0.059209 -0.211143
v -0.000000 0.056011 -0.097994
v -0.000000 0.053939 -0.211143
v -0.055802 0.022392 -0.265249
v -0.000000 0.012059 -0.265250
v -0.055802 0.026216 -0.041281
v -0.077962 0.061159 -0.096920
v -0.106102 0.026216 -0.041281
v -0.106102 0.022392 -0.265249
v -0.000000 0.016122 -0.043387
v -0.000000 0.129369 -0.276793
v -0.080071 0.074105 -0.355523
v -0.080365 0.056678 -0.357921
v -0.049239 -0.102781 -0.466906
v -0.000000 -0.133112 -0.398835
v -0.051641 -0.077849 -0.411910
v -0.080365 0.056678 -0.357921
v -0.080862 0.055355 -0.395906
v -0.081721 -0.009721 -0.385976
v -0.000000 -0.059449 -0.320359
v -0.051641 -0.077849 -0.411910
v -0.000000 -0.133112 -0.398835
v -0.000000 0.135921 -0.336887
v -0.080071 0.074105 -0.355523
v -0.000000 0.161580 -0.267729
v -0.081203 0.009521 -0.367891
v -0.082000 -0.044727 -0.366040
v -0.051439 -0.043318 -0.437380
v -0.000000 0.043035 -0.306787
v -0.081203 0.009521 -0.367891
v -0.000000 0.030699 -0.457031
v -0.080862 0.055355 -0.395906
v -0.000000 -0.059449 -0.320359
v -0.051086 0.002581 -0.464492
v -0.082668 -0.152153 -0.565930
v -0.000000 -0.166832 -0.492751
v -0.049239 -0.102781 -0.466906
v -0.000000 -0.047514 -0.520259
v -0.051086 0.002581 -0.464492
v -0.000000 0.030699 -0.457031
v -0.052170 -0.042974 -0.495918
v -0.086483 -0.132783 -0.616620
v -0.082211 -0.123677 -0.563792
v -0.085316 -0.093797 -0.570730
v -0.000000 -0.047514 -0.520259
v -0.085316 -0.093797 -0.570730
v -0.052170 -0.042974 -0.495918
v -0.049064 -0.072854 -0.488980
v -0.083325 -0.148005 -0.623084
v -0.000000 -0.165448 -0.740898
v -0.000000 -0.192455 -0.755598
v -0.000000 -0.209244 -0.703853
v -0.083325 -0.148005 -0.623084
v -0.000000 -0.192455 -0.755598
v -0.082969 -0.152650 -0.589259
v -0.082668 -0.152153 -0.565930
v -0.082969 -0.152650 -0.589259
v -0.000000 -0.213862 -0.667040
v -0.000000 -0.103035 -0.656938
v -0.086483 -0.132783 -0.616620
v -0.123942 0.387387 0.497139
v -0.116546 0.284856 0.470542
v -0.055176 0.318080 0.518226
v -0.116546 0.284856 0.470542
v -0.095123 0.272514 0.423812
v -0.055176 0.339231 0.466526
v 0.000000 0.320835 0.478266
v -0.114320 0.240891 0.487200
v 0.000000 0.302779 0.576024
v -0.135354 0.381209 0.488272
v -0.123942 0.391321 0.487525
v -0.133438 0.384366 0.481944
v -0.133438 0.384366 0.481944
v -0.106241 0.301833 0.436513
v -0.135354 0.381209 0.488272
v -0.106241 0.301833 0.436513
v -0.055176 0.339231 0.466526
v -0.123942 0.387387 0.497139
v 0.123308 0.057077 0.405552
v 0.123308 0.057077 0.405552
v 0.000000 0.320835 0.478266
v 0.158373 0.149324 0.499863
v 0.042293 0.226826 0.568617
v 0.000000 0.235713 0.694402
v 0.000000 0.235713 0.694402
v -0.000000 -0.133846 -0.268547
v -0.000000 0.111154 -0.360958
v 0.096755 -0.004154 0.341634
v 0.045094 -0.074660 0.341634
v 0.121771 -0.004154 0.341634
v 0.121771 -0.004154 0.341634
v 0.067043 -0.348491 0.186811
v 0.121749 -0.491292 0.263749
v 0.059761 -0.491292 0.263749
v 0.085093 -0.514718 0.229393
v 0.059761 -0.514718 0.229393
v 0.110425 -0.514718 0.229393
v 0.059761 -0.515339 0.293545
v 0.059761 -0.515339 0.293545
v 0.059761 -0.495487 0.287728
v 0.045094 -0.098766 0.222098
v 0.055802 0.026216 -0.041281
v -0.000000 0.016122 -0.043387
v 0.055802 0.022392 -0.265250
v -0.000000 0.056011 -0.097994
v 0.079528 -0.434139 -0.202121
v 0.072246 -0.489591 -0.126305
v 0.097578 -0.510141 -0.176555
v 0.122910 -0.510141 -0.176555
v 0.072246 -0.513017 -0.096510
v 0.072246 -0.513017 -0.096510
v 0.072246 -0.493678 -0.102327
v 0.077962 0.059209 -0.211143
v -0.000000 0.012059 -0.265250
v 0.106102 0.026216 -0.041281
v -0.000000 0.161580 -0.267729
v -0.000000 -0.166832 -0.492751
v 0.080071 0.074105 -0.355523
v -0.000000 -0.133112 -0.398835
v -0.000000 0.161580 -0.267729
v 0.082000 -0.044727 -0.366040
v -0.000000 0.161580 -0.267729
v 0.052170 -0.042974 -0.495918
v 0.052170 -0.042974 -0.495918
v 0.082668 -0.152153 -0.565930
v -0.000000 -0.209244 -0.703853
v 0.135354 0.381209 0.488272
v 0.000000 0.320835 0.478266
v 0.123942 0.391321 0.487525
v 0.133438 0.384366 0.481944
v -0.123307 0.057077 0.405552
v -0.158373 0.149324 0.499863
v -0.042293 0.226826 0.568617
v 0.000000 0.235713 0.694402
v -0.128845 -0.134608 0.213256
v -0.121771 -0.004154 0.341634
v -0.121771 -0.004154 0.341634
v -0.110425 -0.514718 0.229393
v -0.059761 -0.491292 0.263749
v -0.059761 -0.514718 0.229393
v -0.110425 -0.514718 0.229393
v -0.059761 -0.515339 0.293545
v -0.059761 -0.515339 0.293545
v -0.059761 -0.495487 0.287728
v -0.110425 -0.515339 0.293545
v -0.085093 -0.515339 0.293545
v -0.110425 -0.515339 0.293545
v -0.121749 -0.491292 0.263749
v -0.072246 -0.489591 -0.126305
v -0.122910 -0.510141 -0.176555
v -0.072246 -0.513017 -0.096510
v -0.072246 -0.513017 -0.096510
v -0.072246 -0.493678 -0.102327
v -0.122910 -0.513017 -0.096510
v -0.097578 -0.513017 -0.096510
v -0.122910 -0.513017 -0.096510
v -0.134234 -0.489591 -0.126305
v -0.077962 0.059209 -0.211143
v -0.000000 0.161580 -0.267729
v -0.000000 -0.166832 -0.492751
v -0.080071 0.074105 -0.355523
v -0.082000 -0.044727 -0.366040
v -0.051086 0.002581 -0.464492
v -0.082000 -0.044727 -0.366040
v -0.052170 -0.042974 -0.495918
v -0.000000 -0.165448 -0.740898
v -0.135354 0.381209 0.488272
v -0.123942 0.391321 0.487525
v -0.133438 0.384366 0.481944
vt 0.421355 0.821638
vt 0.483531 0.783419
vt 0.421355 0.732144
vt 0.134744 0.716107
vt 0.061546 0.815123
vt 0.170808 0.791747
vt 0.421355 0.897736
vt 0.483531 0.916589
vt 0.483531 0.893666
vt 0.556145 0.839548
vt 0.493969 0.775379
vt 0.493969 0.857848
vt 0.020058 0.697203
vt 0.037219 0.760130
vt 0.493969 0.922213
vt 0.556145 0.994781
vt 0.556145 0.936225
vt 0.928252 0.135829
vt 0.872367 0.087865
vt 0.875100 0.135829
vt 0.483531 0.843002
vt 0.171510 0.858182
vt 0.060965 0.867928
vt 0.150184 0.904287
vt 0.127917 0.946979
vt 0.074953 0.971927
vt 0.120464 0.964577
vt 0.059261 0.892229
vt 0.421355 0.932166
vt 0.469320 0.966413
vt 0.223213 0.210354
vt 0.217347 0.188119
vt 0.210765 0.219650
vt 0.010780 0.179973
vt 0.030862 0.152151
vt 0.005219 0.152151
vt 0.244436 0.134643
vt 0.240626 0.197350
vt 0.181948 0.226227
vt 0.186311 0.237911
vt 0.070128 0.120226
vt 0.112876 0.150895
vt 0.112876 0.091788
vt 0.808379 0.699496
vt 0.774103 0.683525
vt 0.761511 0.722177
vt 0.328918 0.212740
vt 0.336769 0.197461
vt 0.324797 0.196923
vt 0.783628 0.625655
vt 0.750260 0.664639
vt 0.801374 0.675020
vt 0.798772 0.630897
vt 0.137103 0.549082
vt 0.062050 0.644108
vt 0.120317 0.651837
vt 0.556145 0.715679
vt 0.493969 0.709529
vt 0.483531 0.718160
vt 0.421355 0.634125
vt 0.049587 0.537473
vt 0.032511 0.647844
vt 0.483531 0.674059
vt 0.421355 0.567886
vt 0.867276 0.571399
vt 0.900549 0.570791
vt 0.889838 0.546069
vt 0.505313 0.265729
vt 0.552551 0.273314
vt 0.554931 0.252651
vt 0.156229 0.506367
vt 0.160706 0.526590
vt 0.168944 0.505918
vt 0.788221 0.555714
vt 0.833745 0.570201
vt 0.786010 0.534939
vt 0.783550 0.493131
vt 0.803754 0.436281
vt 0.782522 0.427208
vt 0.693722 0.304978
vt 0.700940 0.243028
vt 0.688326 0.243028
vt 0.155939 0.400793
vt 0.140465 0.324507
vt 0.143174 0.401244
vt 0.556463 0.211716
vt 0.535588 0.155764
vt 0.527561 0.211886
vt 0.895689 0.495629
vt 0.880380 0.442045
vt 0.881185 0.497353
vt 0.157627 0.465681
vt 0.144660 0.466139
vt 0.810696 0.354064
vt 0.829580 0.346888
vt 0.811897 0.344677
vt 0.889482 0.440917
vt 0.880380 0.366249
vt 0.527494 0.074710
vt 0.510224 0.078973
vt 0.330986 0.412937
vt 0.318212 0.395306
vt 0.312502 0.412937
vt 0.508670 0.067655
vt 0.153230 0.324056
vt 0.140131 0.315053
vt 0.497976 0.078191
vt 0.577195 0.266431
vt 0.567128 0.279204
vt 0.581905 0.279204
vt 0.716322 0.665537
vt 0.704578 0.678310
vt 0.716579 0.678310
vt 0.840252 0.357074
vt 0.844115 0.347386
vt 0.318212 0.427594
vt 0.330986 0.427594
vt 0.343759 0.427594
vt 0.343759 0.412937
vt 0.704321 0.691083
vt 0.716322 0.696793
vt 0.577195 0.291978
vt 0.567128 0.291978
vt 0.127366 0.315503
vt 0.127700 0.324957
vt 0.343759 0.395306
vt 0.867607 0.442045
vt 0.861897 0.361539
vt 0.130468 0.464973
vt 0.134038 0.400440
vt 0.868209 0.497353
vt 0.667673 0.303620
vt 0.667673 0.242926
vt 0.137471 0.504672
vt 0.148100 0.527035
vt 0.861886 0.606335
vt 0.854553 0.571399
vt 0.742133 0.470165
vt 0.772084 0.605311
vt 0.770650 0.471027
vt 0.653105 0.841180
vt 0.739822 0.964113
vt 0.729067 0.823590
vt 0.211659 0.384807
vt 0.235658 0.525491
vt 0.236787 0.381363
vt 0.359180 0.529956
vt 0.447550 0.405333
vt 0.370942 0.387817
vt 0.435398 0.314591
vt 0.414208 0.305557
vt 0.628759 0.977590
vt 0.714841 0.987907
vt 0.739822 0.964113
vt 0.212720 0.295708
vt 0.195854 0.266715
vt 0.200066 0.297443
vt 0.664659 0.753162
vt 0.754296 0.382673
vt 0.455329 0.280655
vt 0.431006 0.267641
vt 0.429768 0.276776
vt 0.763461 0.382877
vt 0.758789 0.351333
vt 0.670302 0.716367
vt 0.644908 0.720129
vt 0.330986 0.514277
vt 0.318212 0.488703
vt 0.312502 0.514277
vt 0.669052 0.707231
vt 0.643464 0.709094
vt 0.208509 0.264981
vt 0.194603 0.257585
vt 0.632672 0.719316
vt 0.344153 0.231656
vt 0.334345 0.244429
vt 0.348742 0.244429
vt 0.324506 0.310885
vt 0.312764 0.323659
vt 0.324768 0.323659
vt 0.456760 0.269621
vt 0.467389 0.279639
vt 0.471290 0.270234
vt 0.318212 0.528935
vt 0.330986 0.528935
vt 0.343759 0.528935
vt 0.343759 0.514277
vt 0.312502 0.336432
vt 0.324506 0.342142
vt 0.344153 0.257203
vt 0.334345 0.257203
vt 0.181948 0.259319
vt 0.183199 0.268450
vt 0.343759 0.488703
vt 0.741652 0.380860
vt 0.741144 0.344169
vt 0.183843 0.385418
vt 0.190899 0.297592
vt 0.717027 0.466566
vt 0.441186 0.557448
vt 0.471290 0.543166
vt 0.181948 0.527607
vt 0.718406 0.602736
vt 0.812431 0.492901
vt 0.967657 0.967420
vt 0.980592 0.909829
vt 0.967657 0.909829
vt 0.941281 0.966779
vt 0.941281 0.909727
vt 0.969418 0.881857
vt 0.969418 0.994781
vt 0.980592 0.967420
vt 0.994781 0.881857
vt 0.941281 0.993525
vt 0.889631 0.828605
vt 0.930399 0.855075
vt 0.889354 0.819847
vt 0.534845 0.531343
vt 0.577706 0.490366
vt 0.531570 0.473970
vt 0.861929 0.257802
vt 0.830390 0.238241
vt 0.834776 0.268395
vt 0.782522 0.312032
vt 0.792304 0.328490
vt 0.812842 0.298566
vt 0.116708 0.206876
vt 0.070128 0.232914
vt 0.094089 0.248223
vt 0.951882 0.695636
vt 0.975217 0.661030
vt 0.961843 0.645215
vt 0.809601 0.311457
vt 0.833125 0.297508
vt 0.813187 0.266979
vt 0.811680 0.237014
vt 0.500081 0.518421
vt 0.493969 0.464494
vt 0.929764 0.811859
vt 0.888584 0.796183
vt 0.537403 0.554807
vt 0.910571 0.648650
vt 0.927077 0.628411
vt 0.929008 0.760336
vt 0.786327 0.267955
vt 0.563249 0.592960
vt 0.584011 0.570649
vt 0.541239 0.424584
vt 0.583923 0.369250
vt 0.560003 0.352604
vt 0.414008 0.235486
vt 0.363004 0.213897
vt 0.395023 0.257203
vt 0.565159 0.441230
vt 0.682193 0.159997
vt 0.704762 0.133664
vt 0.667673 0.134594
vt 0.508653 0.416371
vt 0.797101 0.242263
vt 0.812791 0.192181
vt 0.802261 0.167393
vt 0.798213 0.197430
vt 0.555147 0.318266
vt 0.542184 0.331752
vt 0.915975 0.321887
vt 0.958994 0.295565
vt 0.915975 0.251950
vt 0.782522 0.103945
vt 0.806970 0.160444
vt 0.789981 0.090367
vt 0.811195 0.107746
vt 0.818152 0.173518
vt 0.386156 0.150966
vt 0.359180 0.202774
vt 0.584011 0.316499
vt 0.577528 0.302416
vt 0.959583 0.271692
vt 0.915975 0.208443
vt 0.638157 0.649543
vt 0.658783 0.696793
vt 0.673117 0.649543
vt 0.050026 0.946116
vt 0.051257 0.970859
vt 0.310436 0.048752
vt 0.278634 0.069276
vt 0.309472 0.064078
vt 0.628759 0.629253
vt 0.693882 0.629253
vt 0.016803 0.117477
vt 0.016985 0.111723
vt 0.013857 0.112689
vt 0.305030 0.106038
vt 0.037875 0.957003
vt 0.007708 0.994781
vt 0.021572 0.117477
vt 0.359180 0.783419
vt 0.217987 0.716629
vt 0.291687 0.815404
vt 0.315733 0.760266
vt 0.359180 0.916589
vt 0.359180 0.893666
vt 0.618321 0.775379
vt 0.332573 0.697219
vt 0.618321 0.922213
vt 0.872367 0.183793
vt 0.906512 0.198005
vt 0.359180 0.843002
vt 0.181948 0.858967
vt 0.182311 0.792479
vt 0.618321 0.857848
vt 0.203508 0.905014
vt 0.292538 0.868246
vt 0.226476 0.948071
vt 0.279235 0.972518
vt 0.304359 0.946873
vt 0.294366 0.892557
vt 0.373391 0.966413
vt 0.242867 0.222292
vt 0.309730 0.245412
vt 0.030862 0.207794
vt 0.059690 0.179973
vt 0.301834 0.211505
vt 0.196275 0.245412
vt 0.910987 0.602139
vt 0.953735 0.571471
vt 0.910987 0.543033
vt 0.854085 0.683686
vt 0.818817 0.699729
vt 0.868332 0.722176
vt 0.344620 0.212740
vt 0.348742 0.196923
vt 0.844130 0.625857
vt 0.877948 0.664819
vt 0.828787 0.631107
vt 0.825827 0.675260
vt 0.290311 0.644264
vt 0.216894 0.551366
vt 0.232086 0.652249
vt 0.618321 0.709529
vt 0.359180 0.718160
vt 0.304347 0.539373
vt 0.319868 0.647877
vt 0.348742 0.544799
vt 0.359180 0.674059
vt 0.750300 0.298794
vt 0.717027 0.298186
vt 0.743076 0.333730
vt 0.645760 0.278283
vt 0.598679 0.286362
vt 0.657235 0.304978
vt 0.140081 0.283496
vt 0.135604 0.303719
vt 0.148210 0.304164
vt 0.826243 0.958307
vt 0.871606 0.944328
vt 0.873952 0.923156
vt 0.876284 0.881757
vt 0.856100 0.824876
vt 0.847394 0.881550
vt 0.673069 0.170537
vt 0.680287 0.232488
vt 0.685683 0.170537
vt 0.155845 0.101636
vt 0.140371 0.177922
vt 0.153136 0.178373
vt 0.615540 0.168368
vt 0.594725 0.224565
vt 0.623624 0.224732
vt 0.737196 0.169441
vt 0.721887 0.223024
vt 0.736391 0.224748
vt 0.138683 0.242810
vt 0.151651 0.243268
vt 0.849182 0.742632
vt 0.830376 0.735222
vt 0.831758 0.746562
vt 0.737196 0.093644
vt 0.728094 0.168313
vt 0.877342 0.815782
vt 0.623718 0.087501
vt 0.594449 0.158973
vt 0.325276 0.370211
vt 0.338049 0.352580
vt 0.325276 0.352580
vt 0.642539 0.080436
vt 0.640981 0.091750
vt 0.156179 0.092182
vt 0.143080 0.101185
vt 0.653225 0.090960
vt 0.312502 0.287674
vt 0.322569 0.300447
vt 0.327279 0.287674
vt 0.704578 0.642325
vt 0.716322 0.655099
vt 0.716579 0.642325
vt 0.819615 0.745667
vt 0.338049 0.384868
vt 0.343759 0.370211
vt 0.312502 0.384868
vt 0.312502 0.370211
vt 0.704321 0.629552
vt 0.716322 0.623842
vt 0.322569 0.274901
vt 0.168944 0.092633
vt 0.168611 0.102087
vt 0.312502 0.352580
vt 0.749969 0.169441
vt 0.165842 0.242102
vt 0.749367 0.224748
vt 0.162272 0.177569
vt 0.706336 0.231130
vt 0.706336 0.170435
vt 0.158839 0.281801
vt 0.168944 0.302241
vt 0.755690 0.333730
vt 0.763023 0.298794
vt 0.780210 0.858611
vt 0.750260 0.993757
vt 0.778831 0.994781
vt 0.082252 0.392009
vt 0.005219 0.521911
vt 0.116928 0.527035
vt 0.272353 0.384807
vt 0.248354 0.525491
vt 0.273482 0.528935
vt 0.618425 0.452660
vt 0.706589 0.578091
vt 0.695050 0.435018
vt 0.630371 0.362392
vt 0.288158 0.266715
vt 0.271292 0.295708
vt 0.283947 0.297443
vt 0.063911 0.304304
vt 0.005219 0.380130
vt 0.768048 0.771119
vt 0.751694 0.859473
vt 0.247225 0.381363
vt 0.634744 0.315416
vt 0.610499 0.328226
vt 0.635987 0.324553
vt 0.763555 0.739779
vt 0.758882 0.771323
vt 0.651564 0.353322
vt 0.055636 0.268201
vt 0.042121 0.296833
vt 0.325276 0.463606
vt 0.338049 0.438032
vt 0.325276 0.438032
vt 0.081228 0.270050
vt 0.056208 0.259000
vt 0.289409 0.257585
vt 0.275503 0.264981
vt 0.093366 0.268324
vt 0.081854 0.258942
vt 0.452623 0.244429
vt 0.462431 0.257203
vt 0.467019 0.244429
vt 0.335468 0.329369
vt 0.347209 0.342142
vt 0.347471 0.329369
vt 0.609062 0.317191
vt 0.598355 0.327476
vt 0.338049 0.478265
vt 0.343759 0.463606
vt 0.312502 0.478265
vt 0.312502 0.463606
vt 0.335206 0.316595
vt 0.347209 0.310885
vt 0.462431 0.231656
vt 0.302064 0.259319
vt 0.300813 0.268450
vt 0.312502 0.438032
vt 0.780692 0.769306
vt 0.300169 0.385418
vt 0.805316 0.855012
vt 0.293113 0.297592
vt 0.624370 0.606335
vt 0.594449 0.591481
vt 0.302064 0.527607
vt 0.803938 0.991182
vt 0.596163 0.265239
vt 0.727738 0.273465
vt 0.901970 0.909829
vt 0.914905 0.967420
vt 0.914905 0.909829
vt 0.941281 0.966779
vt 0.941281 0.909727
vt 0.913143 0.881857
vt 0.941281 0.881658
vt 0.913143 0.994781
vt 0.901970 0.967420
vt 0.887781 0.994781
vt 0.887781 0.881857
vt 0.941281 0.993525
vt 0.930399 0.855075
vt 0.970371 0.827420
vt 0.970391 0.818657
vt 0.526246 0.446213
vt 0.493969 0.464494
vt 0.519718 0.475961
vt 0.557515 0.538392
vt 0.568425 0.522643
vt 0.539127 0.507036
vt 0.116708 0.206876
vt 0.070128 0.180837
vt 0.075271 0.206876
vt 0.951882 0.695636
vt 0.914573 0.714348
vt 0.975217 0.722177
vt 0.541456 0.520146
vt 0.518969 0.504539
vt 0.541352 0.476079
vt 0.929764 0.811859
vt 0.970466 0.794980
vt 0.910571 0.648650
vt 0.900600 0.699060
vt 0.929008 0.760336
vt 0.568075 0.478960
vt 0.442185 0.187804
vt 0.414008 0.235486
vt 0.442185 0.241661
vt 0.704762 0.133664
vt 0.680901 0.108495
vt 0.667673 0.134594
vt 0.559128 0.452526
vt 0.558873 0.376725
vt 0.546672 0.400813
vt 0.560806 0.407024
vt 0.915975 0.321887
vt 0.872956 0.295565
vt 0.889669 0.334239
vt 0.544994 0.446315
vt 0.554702 0.369517
vt 0.584011 0.316499
vt 0.577528 0.302416
vt 0.380392 0.133474
vt 0.433525 0.160469
vt 0.372373 0.109142
vt 0.542633 0.381786
vt 0.535804 0.391364
vt 0.438648 0.176587
vt 0.386156 0.150966
vt 0.915975 0.251950
vt 0.872367 0.271692
vt 0.217048 0.107005
vt 0.237674 0.059755
vt 0.202713 0.059755
vt 0.302887 0.971314
vt 0.005219 0.043031
vt 0.037021 0.063556
vt 0.058146 0.043031
vt 0.247071 0.039465
vt 0.181948 0.039465
vt 0.016985 0.248223
vt 0.016803 0.242468
vt 0.013857 0.247257
vt 0.010625 0.100318
vt 0.006183 0.058358
vt 0.346233 0.994781
vt 0.316374 0.957547
vt 0.005219 0.207794
vt 0.021572 0.242468
vt 0.493969 0.961199
vt 0.906512 0.073653
vt 0.421355 0.994781
vt 0.214167 0.117443
vt 0.083016 0.155090
vt 0.336769 0.221218
vt 0.808379 0.630900
vt 0.556145 0.616773
vt 0.005219 0.543085
vt 0.874499 0.606335
vt 0.493969 0.291978
vt 0.844115 0.606335
vt 0.706336 0.304978
vt 0.556690 0.146351
vt 0.828194 0.358224
vt 0.893153 0.361539
vt 0.330986 0.395306
vt 0.526154 0.065340
vt 0.152896 0.314602
vt 0.493969 0.068561
vt 0.567128 0.266431
vt 0.704321 0.665537
vt 0.127366 0.525112
vt 0.743512 0.606335
vt 0.628759 0.977590
vt 0.210530 0.528935
vt 0.658199 0.994781
vt 0.685845 0.744078
vt 0.772084 0.348604
vt 0.330986 0.488703
vt 0.207258 0.255851
vt 0.628759 0.709916
vt 0.334345 0.231656
vt 0.312502 0.310885
vt 0.384010 0.550711
vt 0.941281 0.881658
vt 0.994781 0.994781
vt 0.930636 0.871220
vt 0.850670 0.208804
vt 0.785561 0.334239
vt 0.075271 0.206876
vt 0.975217 0.722177
vt 0.887781 0.768825
vt 0.573533 0.606335
vt 0.704000 0.159997
vt 0.942281 0.334239
vt 0.824293 0.183540
vt 0.380392 0.133474
vt 0.652282 0.696793
vt 0.257509 0.048752
vt 0.299295 0.107005
vt 0.005219 0.992204
vt 0.618321 0.961199
vt 0.232933 0.964688
vt 0.940846 0.606335
vt 0.818817 0.631139
vt 0.127366 0.283047
vt 0.815754 0.994781
vt 0.667673 0.232488
vt 0.847984 0.733243
vt 0.724422 0.088934
vt 0.625062 0.078133
vt 0.143414 0.091731
vt 0.657235 0.081332
vt 0.312502 0.300447
vt 0.704321 0.655099
vt 0.815754 0.735979
vt 0.325276 0.384868
vt 0.312502 0.274901
vt 0.755679 0.088934
vt 0.750260 0.737050
vt 0.276754 0.255851
vt 0.096573 0.258661
vt 0.452623 0.257203
vt 0.335206 0.342142
vt 0.594449 0.318074
vt 0.325276 0.478265
vt 0.452623 0.231656
vt 0.781200 0.732615
vt 0.681562 0.599506
vt 0.930636 0.871220
vt 0.508653 0.416371
vt 0.563837 0.544616
vt 0.094089 0.165528
vt 0.888386 0.662429
vt 0.970466 0.767611
vt 0.702681 0.107403
vt 0.915975 0.208443
vt 0.223549 0.107005
vt 0.016360 0.101285
vt 0.348742 0.992221
vn -0.000000 0.997619 -0.068962
vn 0.731754 0.680396 0.039967
vn 0.000000 0.999974 -0.007280
vn 0.906587 -0.421259 -0.025297
vn 0.808882 0.580945 -0.090625
vn 0.867896 -0.492720 0.063117
vn -0.000000 0.936275 -0.351267
vn 0.799654 0.581650 -0.149121
vn 0.785155 0.580947 -0.214553
vn -0.000000 -0.998355 0.057340
vn 0.906587 -0.421259 -0.025297
vn 0.867896 -0.492720 0.063117
vn 0.772347 0.627216 -0.100399
vn 0.731754 0.680396 0.039967
vn 0.853160 -0.447798 0.267574
vn 0.000000 -0.654369 0.756175
vn 0.000000 -0.868916 0.494960
vn 0.000000 -0.654369 0.756175
vn 0.815513 -0.472694 0.333914
vn 0.000000 -0.657409 0.753534
vn 0.808882 0.580945 -0.090625
vn 0.853160 -0.447798 0.267574
vn 0.785155 0.580947 -0.214553
vn 0.870584 -0.276015 0.407307
vn 0.815513 -0.472694 0.333914
vn 0.970568 0.131133 0.201994
vn 0.947505 -0.319558 -0.010812
vn 0.799654 0.581650 -0.149121
vn -0.000000 0.912572 -0.408917
vn 0.713976 0.472526 -0.516680
vn 0.000000 -0.882093 0.471076
vn 0.618696 -0.499629 0.606289
vn 0.000000 -0.972737 0.231910
vn -0.000000 0.979304 -0.202394
vn 0.248223 0.649365 0.718826
vn -0.427363 0.783550 -0.451010
vn 0.815513 -0.472694 0.333914
vn 0.000000 -0.657409 0.753534
vn 0.638701 -0.520911 0.566315
vn -0.000000 -0.633817 0.773483
vn 0.970568 0.131133 0.201994
vn 0.618696 -0.499629 0.606289
vn 0.947505 -0.319558 -0.010812
vn 0.000000 0.719292 0.694708
vn 0.822113 0.259660 0.506663
vn 0.970568 0.131133 0.201994
vn 0.753179 0.210140 0.623348
vn -0.000000 -0.633817 0.773483
vn 0.638701 -0.520911 0.566315
vn 0.638701 -0.520911 0.566315
vn 0.618696 -0.499629 0.606289
vn -0.000000 0.855365 0.518026
vn 0.753179 0.210140 0.623348
vn -0.000000 -0.802232 -0.597013
vn 0.958192 -0.092317 -0.270823
vn 0.873662 -0.475124 -0.104749
vn 0.000000 -0.999506 0.031424
vn 0.873662 -0.475124 -0.104749
vn 0.772347 0.627216 -0.100399
vn -0.000000 0.910223 -0.414118
vn 0.000000 -0.304968 -0.952362
vn 0.906703 0.256124 -0.335098
vn 0.906703 0.256124 -0.335098
vn -0.000000 0.306779 -0.951781
vn 0.175296 -0.348485 0.920776
vn -0.691474 0.077041 0.718281
vn -0.359936 -0.532268 0.766248
vn -0.359936 -0.532268 0.766248
vn -0.771237 0.336766 -0.540168
vn -0.638577 0.064113 -0.766883
vn -0.008878 0.178178 -0.983958
vn 0.398326 0.541670 -0.740223
vn 0.737422 0.093199 -0.668971
vn 0.398326 0.541670 -0.740223
vn 0.833175 -0.095645 0.544675
vn 0.737422 0.093199 -0.668971
vn 0.670397 0.022256 -0.741669
vn 0.763924 -0.002862 0.645300
vn 0.667354 -0.058339 -0.742453
vn -0.307943 0.794652 0.523162
vn 0.398326 0.541670 -0.740223
vn -0.122327 0.613608 -0.780078
vn 0.667354 -0.058339 -0.742453
vn 0.000629 -0.153356 -0.988171
vn 0.004184 -0.074024 -0.997248
vn -0.728986 0.097997 -0.677477
vn -0.743036 -0.031113 0.668528
vn -0.753294 -0.219113 0.620111
vn -0.753294 -0.219113 0.620111
vn 0.002001 -0.025480 0.999673
vn 0.046029 -0.338371 0.939886
vn 0.670397 0.022256 -0.741669
vn -0.008579 0.130146 -0.991458
vn 0.622357 -0.093695 -0.777106
vn 0.780753 -0.623594 0.039451
vn 0.472609 -0.613041 -0.633104
vn -0.743036 -0.031113 0.668528
vn -0.017806 0.644470 0.764422
vn -0.740327 -0.085550 -0.666781
vn -0.904471 0.339827 0.257778
vn -0.000000 -0.999918 -0.012824
vn 0.472609 -0.613041 -0.633104
vn 0.780753 -0.623594 0.039451
vn -0.715080 -0.698985 -0.008965
vn 0.622357 -0.093695 -0.777106
vn -0.000000 -0.726279 -0.687400
vn -0.677355 0.487012 0.551370
vn -0.677355 0.487012 0.551370
vn 0.000000 -0.631734 0.775185
vn -0.000008 0.779572 0.626313
vn -0.904471 0.339827 0.257778
vn -0.000008 0.779572 0.626313
vn -0.017806 0.644470 0.764422
vn 0.522646 0.522872 0.673384
vn 0.449841 -0.525136 0.722409
vn 0.449841 -0.525136 0.722409
vn 0.000000 -0.631734 0.775185
vn -0.561813 -0.511675 0.650043
vn -0.715080 -0.698985 -0.008965
vn 0.522646 0.522872 0.673384
vn 0.919405 0.294157 0.261087
vn 0.522646 0.522872 0.673384
vn 0.449841 -0.525136 0.722409
vn -0.577894 -0.592728 -0.560992
vn -0.740327 -0.085550 -0.666781
vn -0.577894 -0.592728 -0.560992
vn 0.763924 -0.002862 0.645300
vn 0.919405 0.294157 0.261087
vn -0.728986 0.097997 -0.677477
vn -0.646386 -0.079667 -0.758840
vn 0.679623 -0.291707 0.673067
vn -0.691474 0.077041 0.718281
vn -0.771237 0.336766 -0.540168
vn -0.638577 0.064113 -0.766883
vn -0.122327 0.613608 -0.780078
vn 0.509454 0.690698 0.513218
vn 0.833175 -0.095645 0.544675
vn 0.002778 -0.251016 0.967979
vn -0.142550 0.232987 0.961975
vn -0.687446 -0.295642 0.663336
vn -0.687446 -0.295642 0.663336
vn -0.123707 0.357249 -0.925781
vn -0.646938 -0.251310 -0.719940
vn 0.009667 -0.174423 -0.984623
vn 0.591631 0.462213 -0.660554
vn 0.694903 -0.125419 -0.708082
vn 0.591631 0.462213 -0.660554
vn 0.743675 -0.141306 0.653437
vn 0.694903 -0.125419 -0.708082
vn 0.774283 0.026576 0.632281
vn 0.687223 -0.320605 -0.651872
vn -0.130593 0.239866 0.961982
vn -0.381144 0.874421 -0.300195
vn -0.120654 0.362984 -0.923951
vn 0.687223 -0.320605 -0.651872
vn 0.002101 -0.215198 -0.976568
vn 0.022869 -0.381353 -0.924146
vn -0.758757 0.033932 0.650489
vn -0.007073 0.106293 0.994310
vn 0.888602 0.354358 0.291233
vn 0.506871 -0.589443 -0.628998
vn 0.681395 -0.118263 -0.722298
vn -0.758757 0.033932 0.650489
vn -0.027303 0.749262 0.661711
vn -0.763194 -0.093011 -0.639440
vn -0.885354 0.399398 0.237970
vn 0.000000 -0.999271 -0.038182
vn 0.506871 -0.589443 -0.628998
vn 0.767367 -0.638296 0.061047
vn -0.580743 -0.576753 -0.574538
vn -0.709022 -0.704672 -0.026925
vn 0.681395 -0.118263 -0.722298
vn -0.000000 -0.708481 -0.705730
vn -0.676177 0.492541 0.547895
vn -0.676177 0.492541 0.547895
vn 0.000000 -0.628966 0.777433
vn -0.000008 0.781512 0.623891
vn -0.885354 0.399398 0.237970
vn -0.000008 0.781512 0.623891
vn -0.027303 0.749262 0.661711
vn 0.767367 -0.638296 0.061047
vn 0.521255 0.529129 0.669564
vn 0.449776 -0.522255 0.724536
vn 0.449776 -0.522255 0.724536
vn 0.000000 -0.628966 0.777433
vn -0.561572 -0.509046 0.652310
vn -0.709022 -0.704672 -0.026925
vn 0.521255 0.529129 0.669564
vn 0.888602 0.354358 0.291233
vn 0.521255 0.529129 0.669564
vn 0.449776 -0.522255 0.724536
vn -0.580743 -0.576753 -0.574538
vn -0.763194 -0.093011 -0.639440
vn -0.580743 -0.576753 -0.574538
vn 0.774283 0.026576 0.632281
vn 0.888602 0.354358 0.291233
vn -0.646938 -0.251310 -0.719940
vn -0.646037 -0.326404 -0.689998
vn 0.743675 -0.141306 0.653437
vn 0.368799 0.909686 0.190942
vn 0.581549 0.366757 0.726148
vn -0.123707 0.357249 -0.925781
vn 0.581549 0.366757 0.726148
vn 0.679623 -0.291707 0.673067
vn -0.050335 0.961873 0.268825
vn 0.368582 0.902463 -0.222953
vn -0.048010 0.952466 -0.300839
vn -0.378793 0.886795 0.264785
vn -0.379308 0.875674 -0.298864
vn -0.036017 0.488824 -0.871639
vn -0.039352 0.375220 0.926100
vn 0.368799 0.909686 0.190942
vn 0.591631 0.462213 -0.660554
vn -0.142550 0.232987 0.961975
vn 0.892035 0.402560 0.205472
vn -0.543221 -0.210909 0.812667
vn 0.883669 -0.088331 0.459704
vn -1.000000 0.000000 0.000000
vn -0.446753 0.625496 -0.639661
vn -1.000000 -0.000000 0.000000
vn -0.450588 -0.790852 0.414155
vn 0.910578 -0.330966 0.247607
vn 0.858802 -0.497739 0.121303
vn 0.797260 0.436865 -0.416563
vn 0.883669 -0.088331 0.459704
vn 0.974105 -0.080186 -0.211399
vn -0.516956 -0.410873 0.750959
vn 0.858802 -0.497739 0.121303
vn 0.845999 -0.392415 0.360965
vn -0.462139 0.792944 -0.397073
vn 0.892035 0.402560 0.205472
vn 0.797260 0.436865 -0.416563
vn 0.889429 -0.035714 0.455677
vn 0.845999 -0.392415 0.360965
vn 0.971676 -0.129540 -0.197648
vn 0.980879 0.028909 0.192462
vn -0.505001 -0.412294 0.758279
vn -0.544013 -0.750512 0.375209
vn -0.471833 -0.195416 0.859759
vn 0.889429 -0.035714 0.455677
vn -0.477150 -0.182154 0.859737
vn -0.453550 0.624302 -0.636034
vn 0.692451 0.388293 -0.608062
vn -0.516956 -0.410873 0.750959
vn 0.692451 0.388293 -0.608062
vn -0.530468 -0.201162 0.823491
vn -0.474113 0.784244 -0.400221
vn -1.000000 -0.000000 0.000000
vn -0.467939 0.732609 -0.494284
vn -1.000000 0.000000 0.000000
vn -0.453497 -0.817218 0.355663
vn 0.831531 -0.505161 0.231015
vn 0.910578 -0.330966 0.247607
vn -0.512348 0.701494 -0.495384
vn 0.692451 0.388293 -0.608062
vn -0.527052 0.684769 -0.503296
vn -0.453550 0.624302 -0.636034
vn -0.515637 -0.793376 0.323531
vn 0.842577 0.427161 -0.328020
vn 0.974423 -0.016828 0.224090
vn 0.919474 0.232632 -0.316938
vn 0.851861 0.513673 -0.102334
vn -0.552912 -0.817886 -0.159220
vn -0.510453 -0.858843 0.042747
vn -0.527052 0.684769 -0.503296
vn 0.851861 0.513673 -0.102334
vn -0.454311 0.744166 -0.489713
vn -0.587364 0.420620 -0.691435
vn 0.896717 -0.338798 -0.284805
vn -0.668146 -0.387301 -0.635278
vn -0.524949 -0.833321 -0.173216
vn 0.889340 -0.457245 -0.001007
vn -0.504062 -0.863372 0.022565
vn 0.889340 -0.457245 -0.001007
vn -0.577116 0.421369 -0.699561
vn -0.677027 -0.353411 -0.645550
vn 0.919474 0.232632 -0.316938
vn -0.587364 0.420620 -0.691435
vn 0.981176 -0.096268 0.167409
vn 0.131957 0.582549 0.802012
vn 0.248223 0.649365 0.718826
vn 0.713976 0.472526 -0.516680
vn 0.981176 -0.096268 0.167409
vn 0.713976 0.472526 -0.516680
vn -0.427363 0.783550 -0.451010
vn 0.513767 0.215737 -0.830362
vn 0.970568 0.131133 0.201994
vn 0.000000 0.719292 0.694708
vn -0.028628 0.986363 -0.162074
vn 0.930339 0.139623 0.339080
vn 0.634614 0.549160 -0.543773
vn 0.634614 0.549160 -0.543773
vn 0.513767 0.215737 -0.830362
vn 0.930339 0.139623 0.339080
vn 0.131957 0.582549 0.802012
vn -0.731754 0.680396 0.039968
vn -0.906587 -0.421259 -0.025297
vn -0.808882 0.580945 -0.090625
vn -0.731754 0.680396 0.039968
vn -0.799654 0.581650 -0.149121
vn -0.785155 0.580947 -0.214553
vn -0.906587 -0.421259 -0.025297
vn -0.772347 0.627216 -0.100399
vn -0.853160 -0.447798 0.267574
vn -0.815513 -0.472694 0.333914
vn -0.870584 -0.276015 0.407307
vn -0.808882 0.580945 -0.090625
vn -0.853160 -0.447798 0.267574
vn -0.867896 -0.492720 0.063118
vn -0.867896 -0.492720 0.063118
vn -0.870584 -0.276015 0.407307
vn -0.785155 0.580947 -0.214553
vn -0.815513 -0.472694 0.333914
vn -0.970568 0.131133 0.201994
vn -0.713976 0.472526 -0.516679
vn -0.799654 0.581650 -0.149121
vn -0.713976 0.472526 -0.516679
vn -0.618696 -0.499631 0.606287
vn -0.947505 -0.319558 -0.010812
vn -0.248223 0.649365 0.718826
vn 0.000000 0.719292 0.694708
vn -0.815513 -0.472694 0.333914
vn -0.638702 -0.520911 0.566314
vn -0.618696 -0.499631 0.606287
vn -0.970568 0.131133 0.201994
vn -0.947505 -0.319558 -0.010812
vn -0.822113 0.259660 0.506663
vn 0.000000 0.719292 0.694708
vn -0.970568 0.131133 0.201994
vn -0.753179 0.210140 0.623348
vn -0.638702 -0.520911 0.566314
vn -0.638702 -0.520911 0.566314
vn -0.618696 -0.499631 0.606287
vn -0.753179 0.210140 0.623348
vn -0.000000 0.855365 0.518026
vn -0.958192 -0.092317 -0.270823
vn -0.000000 -0.802232 -0.597013
vn -0.873662 -0.475124 -0.104749
vn -0.873662 -0.475124 -0.104749
vn -0.772347 0.627216 -0.100399
vn 0.000000 -0.304968 -0.952362
vn -0.906703 0.256124 -0.335098
vn -0.000000 0.306779 -0.951781
vn -0.906703 0.256124 -0.335098
vn -0.175296 -0.348485 0.920776
vn 0.691474 0.077041 0.718281
vn 0.307943 0.794652 0.523162
vn 0.359937 -0.532268 0.766249
vn 0.771237 0.336766 -0.540168
vn 0.691474 0.077041 0.718281
vn 0.008877 0.178178 -0.983958
vn -0.398326 0.541670 -0.740223
vn 0.122326 0.613608 -0.780078
vn -0.833175 -0.095645 0.544675
vn -0.398326 0.541670 -0.740223
vn -0.737422 0.093199 -0.668971
vn -0.670397 0.022256 -0.741669
vn -0.763924 -0.002862 0.645300
vn -0.679623 -0.291707 0.673067
vn -0.398326 0.541670 -0.740223
vn 0.307943 0.794652 0.523162
vn 0.122326 0.613608 -0.780078
vn -0.000629 -0.153357 -0.988171
vn -0.667355 -0.058339 -0.742452
vn -0.004185 -0.074024 -0.997248
vn 0.743036 -0.031113 0.668528
vn 0.728986 0.097998 -0.677477
vn 0.753294 -0.219113 0.620111
vn -0.002001 -0.025480 0.999673
vn 0.753294 -0.219113 0.620111
vn -0.046029 -0.338371 0.939886
vn -0.670397 0.022256 -0.741669
vn 0.008578 0.130146 -0.991458
vn -0.622357 -0.093695 -0.777106
vn -0.780752 -0.623594 0.039452
vn -0.919405 0.294158 0.261087
vn 0.017806 0.644470 0.764422
vn 0.743036 -0.031113 0.668528
vn -0.667355 -0.058339 -0.742452
vn 0.740327 -0.085550 -0.666781
vn 0.646386 -0.079667 -0.758840
vn -0.000000 -0.999918 -0.012825
vn -0.472610 -0.613041 -0.633104
vn -0.000000 -0.726278 -0.687401
vn 0.715080 -0.698985 -0.008964
vn 0.904471 0.339827 0.257779
vn -0.000000 -0.726278 -0.687401
vn -0.622357 -0.093695 -0.777106
vn 0.677355 0.487011 0.551371
vn -0.000000 -0.631736 0.775183
vn 0.677355 0.487011 0.551371
vn 0.000008 0.779572 0.626313
vn 0.000008 0.779572 0.626313
vn 0.904471 0.339827 0.257779
vn 0.017806 0.644470 0.764422
vn -0.522646 0.522871 0.673384
vn -0.449842 -0.525137 0.722408
vn -0.780752 -0.623594 0.039452
vn 0.561813 -0.511676 0.650041
vn 0.715080 -0.698985 -0.008964
vn -0.522646 0.522871 0.673384
vn -0.919405 0.294158 0.261087
vn -0.522646 0.522871 0.673384
vn 0.577894 -0.592728 -0.560992
vn 0.740327 -0.085550 -0.666781
vn 0.577894 -0.592728 -0.560992
vn -0.763924 -0.002862 0.645300
vn 0.728986 0.097998 -0.677477
vn -0.679623 -0.291707 0.673067
vn 0.646386 -0.079667 -0.758840
vn 0.691474 0.077041 0.718281
vn 0.771237 0.336766 -0.540168
vn 0.638576 0.064113 -0.766883
vn 0.771237 0.336766 -0.540168
vn -0.509454 0.690698 0.513218
vn -0.833175 -0.095645 0.544675
vn -0.002778 -0.251016 0.967979
vn -0.117829 0.239007 0.963842
vn 0.039352 0.375220 0.926100
vn 0.687446 -0.295642 0.663336
vn -0.120433 0.360713 -0.924869
vn -0.117829 0.239007 0.963842
vn -0.009667 -0.174423 -0.984623
vn -0.591631 0.462213 -0.660554
vn 0.036017 0.488824 -0.871639
vn -0.743675 -0.141306 0.653437
vn -0.591631 0.462213 -0.660554
vn -0.694903 -0.125419 -0.708082
vn -0.774283 0.026576 0.632281
vn -0.002101 -0.215197 -0.976568
vn -0.687223 -0.320605 -0.651872
vn -0.022870 -0.381353 -0.924146
vn 0.758757 0.033932 0.650489
vn 0.646938 -0.251310 -0.719940
vn 0.007073 0.106293 0.994310
vn 0.687446 -0.295642 0.663336
vn -0.694903 -0.125419 -0.708082
vn -0.506871 -0.589443 -0.628998
vn -0.888602 0.354358 0.291234
vn -0.681396 -0.118262 -0.722298
vn 0.027303 0.749262 0.661711
vn 0.758757 0.033932 0.650489
vn -0.687223 -0.320605 -0.651872
vn 0.763194 -0.093011 -0.639440
vn 0.646036 -0.326404 -0.689998
vn -0.000000 -0.999271 -0.038182
vn -0.506871 -0.589443 -0.628998
vn -0.000000 -0.708481 -0.705730
vn 0.885354 0.399398 0.237970
vn 0.580743 -0.576753 -0.574538
vn -0.000000 -0.708481 -0.705730
vn -0.681396 -0.118262 -0.722298
vn 0.676177 0.492541 0.547894
vn 0.709022 -0.704673 -0.026925
vn -0.000000 -0.628966 0.777433
vn 0.676177 0.492541 0.547894
vn 0.000009 0.781512 0.623891
vn 0.000009 0.781512 0.623891
vn 0.885354 0.399398 0.237970
vn 0.027303 0.749262 0.661711
vn -0.767367 -0.638296 0.061047
vn -0.521255 0.529129 0.669564
vn -0.449776 -0.522255 0.724535
vn -0.767367 -0.638296 0.061047
vn 0.561572 -0.509046 0.652310
vn 0.709022 -0.704673 -0.026925
vn -0.521255 0.529129 0.669564
vn -0.888602 0.354358 0.291234
vn -0.521255 0.529129 0.669564
vn 0.580743 -0.576753 -0.574538
vn 0.763194 -0.093011 -0.639440
vn 0.580743 -0.576753 -0.574538
vn -0.774283 0.026576 0.632281
vn 0.646938 -0.251310 -0.719940
vn -0.743675 -0.141306 0.653437
vn 0.646036 -0.326404 -0.689998
vn -0.368799 0.909686 0.190942
vn -0.581549 0.366757 0.726148
vn -0.120433 0.360713 -0.924869
vn -0.581549 0.366757 0.726148
vn 0.638576 0.064113 -0.766883
vn 0.359937 -0.532268 0.766249
vn -0.368582 0.902463 -0.222953
vn 0.050335 0.961873 0.268825
vn 0.048010 0.952466 -0.300839
vn -0.386390 0.883733 0.264042
vn -0.383071 0.874151 -0.298523
vn 0.036017 0.488824 -0.871639
vn -0.120433 0.360713 -0.924869
vn 0.039352 0.375220 0.926100
vn -0.368799 0.909686 0.190942
vn -0.581549 0.366757 0.726148
vn -0.591631 0.462213 -0.660554
vn -0.117829 0.239007 0.963842
vn -0.514362 -0.238684 0.823688
vn -0.892035 0.402560 0.205472
vn -0.883669 -0.088331 0.459704
vn -0.910578 -0.330966 0.247607
vn -0.609187 -0.687295 0.395622
vn -0.858802 -0.497739 0.121303
vn -0.883669 -0.088331 0.459704
vn -0.797260 0.436865 -0.416563
vn -0.974105 -0.080186 -0.211399
vn -0.501149 -0.419062 0.757124
vn -0.858802 -0.497739 0.121303
vn -0.609187 -0.687295 0.395622
vn -0.476459 0.788760 -0.388386
vn -0.892035 0.402560 0.205472
vn -0.653285 0.564307 0.504753
vn -0.889429 -0.035714 0.455677
vn -0.845999 -0.392415 0.360965
vn -0.971676 -0.129540 -0.197648
vn -0.486277 -0.207973 0.848694
vn -0.889429 -0.035714 0.455677
vn -0.439362 0.629574 -0.640779
vn -0.797260 0.436865 -0.416563
vn -0.501149 -0.419062 0.757124
vn -0.692451 0.388293 -0.608062
vn -0.831531 -0.505161 0.231015
vn -0.543145 -0.757750 0.361674
vn -0.910578 -0.330966 0.247607
vn -0.503317 0.692337 -0.517050
vn -0.692451 0.388293 -0.608062
vn -0.439362 0.629574 -0.640779
vn -0.842577 0.427161 -0.328020
vn -0.919474 0.232632 -0.316938
vn -0.974423 -0.016828 0.224090
vn -0.851861 0.513673 -0.102334
vn -0.503317 0.692337 -0.517050
vn -0.851861 0.513673 -0.102334
vn -0.842577 0.427161 -0.328020
vn -0.980879 0.028909 0.192462
vn -0.896717 -0.338799 -0.284805
vn -0.554109 0.472322 -0.685474
vn -0.682407 -0.296458 -0.668157
vn -0.573423 -0.795381 -0.196357
vn -0.896717 -0.338799 -0.284805
vn -0.682407 -0.296458 -0.668157
vn -0.889340 -0.457245 -0.001007
vn -0.831531 -0.505161 0.231015
vn -0.889340 -0.457245 -0.001007
vn -0.509665 -0.860309 -0.010502
vn -0.475274 0.738236 -0.478668
vn -0.919474 0.232632 -0.316938
vn -0.131957 0.582550 0.802012
vn -0.981176 -0.096268 0.167409
vn -0.248223 0.649365 0.718826
vn -0.981176 -0.096268 0.167409
vn -0.713976 0.472526 -0.516679
vn 0.427363 0.783550 -0.451010
vn -0.000000 0.979304 -0.202394
vn -0.970568 0.131133 0.201994
vn 0.000000 0.719292 0.694708
vn -0.930339 0.139623 0.339079
vn 0.028629 0.986363 -0.162074
vn -0.634612 0.549160 -0.543774
vn -0.634612 0.549160 -0.543774
vn -0.513767 0.215737 -0.830362
vn -0.930339 0.139623 0.339079
vn -0.513767 0.215737 -0.830362
vn 0.427363 0.783550 -0.451010
vn -0.131957 0.582550 0.802012
vn 0.870584 -0.276015 0.407307
vn 0.870584 -0.276015 0.407307
vn -0.000000 0.979304 -0.202394
vn 0.947505 -0.319558 -0.010812
vn 0.822113 0.259660 0.506663
vn 0.000000 0.587731 0.809057
vn 0.000000 0.587731 0.809057
vn -0.000000 -0.802232 -0.597013
vn -0.000000 0.306779 -0.951781
vn -0.307943 0.794652 0.523162
vn -0.691474 0.077041 0.718281
vn 0.509454 0.690698 0.513218
vn 0.509454 0.690698 0.513218
vn -0.646386 -0.079667 -0.758840
vn 0.919405 0.294157 0.261087
vn -0.904471 0.339827 0.257778
vn -0.000000 -0.726279 -0.687400
vn -0.577894 -0.592728 -0.560992
vn 0.472609 -0.613041 -0.633104
vn -0.561813 -0.511675 0.650043
vn -0.561813 -0.511675 0.650043
vn -0.677355 0.487012 0.551370
vn -0.771237 0.336766 -0.540168
vn -0.039352 0.375220 0.926100
vn -0.142550 0.232987 0.961975
vn -0.036017 0.488824 -0.871639
vn -0.380124 0.885686 0.266584
vn -0.646037 -0.326404 -0.689998
vn -0.885354 0.399398 0.237970
vn -0.000000 -0.708481 -0.705730
vn 0.506871 -0.589443 -0.628998
vn -0.561572 -0.509046 0.652310
vn -0.561572 -0.509046 0.652310
vn -0.676177 0.492541 0.547895
vn 0.368582 0.902463 -0.222953
vn -0.123707 0.357249 -0.925781
vn 0.581549 0.366757 0.726148
vn -0.649574 0.599838 0.467171
vn -0.453497 -0.817218 0.355663
vn 0.892035 0.402560 0.205472
vn -0.450588 -0.790852 0.414155
vn -0.649574 0.599838 0.467171
vn 0.845999 -0.392415 0.360965
vn -0.651881 0.584678 0.482910
vn 0.842577 0.427161 -0.328020
vn 0.842577 0.427161 -0.328020
vn 0.831531 -0.505161 0.231015
vn -0.524949 -0.833321 -0.173216
vn 0.930339 0.139623 0.339080
vn -0.000000 0.979304 -0.202394
vn -0.028628 0.986363 -0.162074
vn 0.634614 0.549160 -0.543773
vn -0.870584 -0.276015 0.407307
vn -0.947505 -0.319558 -0.010812
vn -0.822113 0.259660 0.506663
vn 0.000000 0.587731 0.809057
vn -0.737422 0.093199 -0.668971
vn -0.509454 0.690698 0.513218
vn -0.509454 0.690698 0.513218
vn -0.472610 -0.613041 -0.633104
vn 0.904471 0.339827 0.257779
vn 0.577894 -0.592728 -0.560992
vn -0.472610 -0.613041 -0.633104
vn 0.561813 -0.511676 0.650041
vn 0.561813 -0.511676 0.650041
vn 0.677355 0.487011 0.551371
vn -0.449842 -0.525137 0.722408
vn -0.000000 -0.631736 0.775183
vn -0.449842 -0.525137 0.722408
vn -0.919405 0.294158 0.261087
vn 0.885354 0.399398 0.237970
vn -0.506871 -0.589443 -0.628998
vn 0.561572 -0.509046 0.652310
vn 0.561572 -0.509046 0.652310
vn 0.676177 0.492541 0.547894
vn -0.449776 -0.522255 0.724535
vn -0.000000 -0.628966 0.777433
vn -0.449776 -0.522255 0.724535
vn -0.888602 0.354358 0.291234
vn -0.368582 0.902463 -0.222953
vn -0.653285 0.564307 0.504753
vn -0.543145 -0.757750 0.361674
vn -0.892035 0.402560 0.205472
vn -0.845999 -0.392415 0.360965
vn -0.692451 0.388293 -0.608062
vn -0.845999 -0.392415 0.360965
vn -0.842577 0.427161 -0.328020
vn -0.554109 0.472322 -0.685474
vn -0.930339 0.139623 0.339079
vn 0.028629 0.986363 -0.162074
vn -0.634612 0.549160 -0.543774
f 1/1/1 2/2/2 3/3/3
f 4/4/4 5/5/5 6/6/6
f 7/7/7 8/8/8 9/9/9
f 10/10/10 11/11/11 12/12/12
f 4/4/4 13/13/13 14/14/14
f 15/15/15 16/16/16 17/17/17
f 18/18/18 19/19/19 20/20/20
f 21/21/21 7/7/7 9/9/9
f 5/5/5 22/22/22 6/6/6
f 12/12/12 17/17/17 10/10/10
f 23/23/23 24/24/24 22/22/22
f 25/25/25 26/26/26 27/27/27
f 28/28/28 25/25/25 24/24/24
f 29/29/29 30/30/30 8/8/8
f 31/31/31 32/32/32 33/33/33
f 34/34/34 35/35/35 36/36/36
f 37/37/37 31/31/31 38/38/38
f 33/33/33 39/39/39 40/40/40
f 41/41/41 42/42/42 43/43/43
f 44/44/44 45/45/45 46/46/46
f 47/47/47 48/48/48 49/49/49
f 45/45/45 50/50/50 51/51/51
f 52/52/52 53/53/53 45/45/45
f 54/54/54 55/55/55 56/56/56
f 57/57/57 58/58/58 11/11/11
f 3/3/3 59/59/59 60/60/60
f 61/61/61 62/62/62 55/55/55
f 13/13/13 55/55/55 62/62/62
f 60/60/60 63/63/63 64/64/64
f 65/65/65 66/66/66 67/67/67
f 68/68/68 69/69/69 70/70/70
f 71/71/71 72/72/72 73/73/73
f 74/74/74 75/75/75 76/76/76
f 77/77/77 78/78/78 79/79/79
f 80/80/80 81/81/81 82/82/82
f 83/83/83 84/84/84 85/85/85
f 86/86/86 87/87/87 88/88/88
f 89/89/89 90/90/90 91/91/91
f 92/92/92 85/85/85 93/93/93
f 94/94/94 95/95/95 96/96/96
f 97/97/97 98/98/98 90/90/90
f 78/78/78 94/94/94 79/79/79
f 87/87/87 99/99/99 100/100/100
f 101/101/101 102/102/102 103/103/103
f 99/99/99 104/104/104 100/100/100
f 105/105/105 106/106/106 84/84/84
f 104/104/104 107/107/107 100/100/100
f 108/108/108 109/109/109 110/110/110
f 111/111/111 112/112/112 113/113/113
f 95/95/95 114/114/114 115/115/115
f 101/101/101 116/116/116 117/117/117
f 101/101/101 118/118/118 119/119/119
f 113/113/113 120/120/120 121/121/121
f 122/122/122 109/109/109 123/123/123
f 84/84/84 124/124/124 125/125/125
f 126/126/126 101/101/101 119/119/119
f 127/127/127 98/98/98 128/128/128
f 129/129/129 85/85/85 130/130/130
f 131/131/131 90/90/90 127/127/127
f 130/130/130 84/84/84 125/125/125
f 132/132/132 82/82/82 133/133/133
f 134/134/134 135/135/135 71/71/71
f 136/136/136 65/65/65 137/137/137
f 138/138/138 139/139/139 140/140/140
f 141/141/141 142/142/142 143/143/143
f 144/144/144 145/145/145 146/146/146
f 147/147/147 148/148/148 149/149/149
f 149/149/149 150/150/150 151/151/151
f 152/152/152 153/153/153 154/154/154
f 155/155/155 156/156/156 157/157/157
f 143/143/143 158/158/158 141/141/141
f 140/140/140 159/159/159 138/138/138
f 144/144/144 155/155/155 157/157/157
f 160/160/160 161/161/161 162/162/162
f 163/163/163 164/164/164 159/159/159
f 150/150/150 162/162/162 151/151/151
f 158/158/158 165/165/165 166/166/166
f 167/167/167 168/168/168 169/169/169
f 166/166/166 170/170/170 171/171/171
f 172/172/172 173/173/173 156/156/156
f 171/171/171 174/174/174 166/166/166
f 175/175/175 176/176/176 177/177/177
f 178/178/178 179/179/179 180/180/180
f 181/181/181 182/182/182 183/183/183
f 167/167/167 184/184/184 185/185/185
f 167/167/167 186/186/186 187/187/187
f 180/180/180 188/188/188 189/189/189
f 190/190/190 176/176/176 191/191/191
f 156/156/156 192/192/192 193/193/193
f 194/194/194 167/167/167 187/187/187
f 195/195/195 164/164/164 196/196/196
f 197/197/197 157/157/157 198/198/198
f 138/138/138 195/195/195 199/199/199
f 198/198/198 156/156/156 193/193/193
f 147/147/147 200/200/200 201/201/201
f 202/202/202 144/144/144 197/197/197
f 203/203/203 138/138/138 199/199/199
f 131/131/131 65/65/65 91/91/91
f 134/134/134 93/93/93 129/129/129
f 76/76/76 204/204/204 77/77/77
f 71/71/71 92/92/92 93/93/93
f 88/88/88 70/70/70 86/86/86
f 91/91/91 67/67/67 89/89/89
f 205/205/205 206/206/206 207/207/207
f 208/208/208 207/207/207 209/209/209
f 210/210/210 209/209/209 207/207/207
f 211/211/211 212/212/212 205/205/205
f 210/210/210 206/206/206 213/213/213
f 211/211/211 208/208/208 214/214/214
f 215/215/215 216/216/216 217/217/217
f 218/218/218 219/219/219 220/220/220
f 221/221/221 222/222/222 223/223/223
f 224/224/224 225/225/225 226/226/226
f 227/227/227 228/228/228 229/229/229
f 230/230/230 231/231/231 232/232/232
f 226/226/226 233/233/233 234/234/234
f 235/235/235 222/222/222 236/236/236
f 237/237/237 220/220/220 238/238/238
f 217/217/217 239/239/239 240/240/240
f 241/241/241 218/218/218 237/237/237
f 235/235/235 234/234/234 223/223/223
f 242/242/242 232/232/232 243/243/243
f 244/244/244 240/240/240 239/239/239
f 245/245/245 226/226/226 235/235/235
f 246/246/246 247/247/247 218/218/218
f 248/248/248 249/249/249 250/250/250
f 251/251/251 252/252/252 253/253/253
f 220/220/220 254/254/254 248/248/248
f 255/255/255 256/256/256 257/257/257
f 238/238/238 248/248/248 258/258/258
f 235/235/235 259/259/259 245/245/245
f 260/260/260 261/261/261 262/262/262
f 250/250/250 263/263/263 264/264/264
f 265/265/265 266/266/266 267/267/267
f 258/258/258 250/250/250 264/264/264
f 236/236/236 262/262/262 259/259/259
f 222/222/222 260/260/260 236/236/236
f 268/268/268 269/269/269 270/270/270
f 271/271/271 269/269/269 272/272/272
f 260/260/260 272/272/272 269/269/269
f 273/273/273 274/274/274 252/252/252
f 250/250/250 275/275/275 276/276/276
f 267/267/267 277/277/277 278/278/278
f 279/279/279 280/280/280 281/281/281
f 282/282/282 283/283/283 26/26/26
f 284/284/284 285/285/285 286/286/286
f 287/287/287 281/281/281 288/288/288
f 289/289/289 290/290/290 291/291/291
f 285/285/285 292/292/292 286/286/286
f 293/293/293 294/294/294 283/283/283
f 36/36/36 295/295/295 289/289/289
f 296/296/296 1/1/1 3/3/3
f 297/297/297 298/298/298 299/299/299
f 300/300/300 7/7/7 301/301/301
f 10/10/10 302/302/302 57/57/57
f 303/303/303 297/297/297 299/299/299
f 16/16/16 304/304/304 17/17/17
f 18/18/18 305/305/305 306/306/306
f 307/307/307 7/7/7 1/1/1
f 308/308/308 298/298/298 309/309/309
f 17/17/17 310/310/310 10/10/10
f 311/311/311 312/312/312 308/308/308
f 313/313/313 314/314/314 315/315/315
f 313/313/313 316/316/316 311/311/311
f 317/317/317 29/29/29 300/300/300
f 31/31/31 318/318/318 319/319/319
f 34/34/34 320/320/320 321/321/321
f 31/31/31 322/322/322 38/38/38
f 33/33/33 323/323/323 318/318/318
f 324/324/324 325/325/325 326/326/326
f 327/327/327 328/328/328 329/329/329
f 48/48/48 330/330/330 331/331/331
f 332/332/332 327/327/327 333/333/333
f 334/334/334 335/335/335 327/327/327
f 336/336/336 337/337/337 338/338/338
f 339/339/339 57/57/57 302/302/302
f 3/3/3 340/340/340 296/296/296
f 341/341/341 342/342/342 343/343/343
f 303/303/303 336/336/336 338/338/338
f 60/60/60 344/344/344 340/340/340
f 345/345/345 346/346/346 347/347/347
f 348/348/348 349/349/349 350/350/350
f 351/351/351 352/352/352 353/353/353
f 354/354/354 355/355/355 356/356/356
f 357/357/357 358/358/358 359/359/359
f 360/360/360 361/361/361 362/362/362
f 363/363/363 364/364/364 365/365/365
f 366/366/366 367/367/367 368/368/368
f 369/369/369 370/370/370 371/371/371
f 365/365/365 372/372/372 373/373/373
f 374/374/374 375/375/375 376/376/376
f 377/377/377 378/378/378 369/369/369
f 374/374/374 358/358/358 379/379/379
f 366/366/366 380/380/380 381/381/381
f 382/382/382 383/383/383 384/384/384
f 385/385/385 380/380/380 386/386/386
f 387/387/387 388/388/388 363/363/363
f 389/389/389 385/385/385 386/386/386
f 390/390/390 391/391/391 392/392/392
f 393/393/393 394/394/394 395/395/395
f 375/375/375 396/396/396 376/376/376
f 382/382/382 397/397/397 398/398/398
f 399/399/399 382/382/382 400/400/400
f 401/401/401 395/395/395 402/402/402
f 403/403/403 390/390/390 392/392/392
f 404/404/404 363/363/363 405/405/405
f 382/382/382 406/406/406 400/400/400
f 407/407/407 377/377/377 369/369/369
f 408/408/408 365/365/365 373/373/373
f 409/409/409 369/369/369 371/371/371
f 410/410/410 363/363/363 365/365/365
f 362/362/362 411/411/411 412/412/412
f 413/413/413 353/353/353 414/414/414
f 345/345/345 415/415/415 416/416/416
f 417/417/417 418/418/418 419/419/419
f 420/420/420 421/421/421 422/422/422
f 423/423/423 424/424/424 425/425/425
f 426/426/426 427/427/427 428/428/428
f 428/428/428 429/429/429 426/426/426
f 430/430/430 431/431/431 432/432/432
f 433/433/433 434/434/434 420/420/420
f 435/435/435 436/436/436 417/417/417
f 423/423/423 431/431/431 437/437/437
f 438/438/438 439/439/439 440/440/440
f 441/441/441 442/442/442 435/435/435
f 440/440/440 429/429/429 443/443/443
f 433/433/433 444/444/444 445/445/445
f 446/446/446 447/447/447 448/448/448
f 449/449/449 450/450/450 444/444/444
f 451/451/451 452/452/452 430/430/430
f 453/453/453 454/454/454 449/449/449
f 455/455/455 456/456/456 457/457/457
f 458/458/458 459/459/459 460/460/460
f 461/461/461 462/462/462 439/439/439
f 446/446/446 463/463/463 464/464/464
f 465/465/465 446/446/446 466/466/466
f 467/467/467 460/460/460 468/468/468
f 469/469/469 455/455/455 457/457/457
f 470/470/470 430/430/430 471/471/471
f 446/446/446 472/472/472 466/466/466
f 473/473/473 441/441/441 435/435/435
f 474/474/474 432/432/432 423/423/423
f 473/473/473 417/417/417 475/475/475
f 476/476/476 430/430/430 432/432/432
f 477/477/477 427/427/427 478/478/478
f 423/423/423 479/479/479 474/474/474
f 417/417/417 480/480/480 475/475/475
f 409/409/409 345/345/345 416/416/416
f 373/373/373 413/413/413 408/408/408
f 359/359/359 356/356/356 357/357/357
f 372/372/372 351/351/351 373/373/373
f 368/368/368 481/481/481 348/348/348
f 371/371/371 482/482/482 345/345/345
f 483/483/483 484/484/484 485/485/485
f 485/485/485 486/486/486 487/487/487
f 488/488/488 487/487/487 489/489/489
f 490/490/490 491/491/491 492/492/492
f 483/483/483 488/488/488 493/493/493
f 486/486/486 490/490/490 494/494/494
f 495/495/495 496/496/496 497/497/497
f 498/498/498 499/499/499 500/500/500
f 501/501/501 502/502/502 503/503/503
f 504/504/504 505/505/505 506/506/506
f 507/507/507 508/508/508 509/509/509
f 510/510/510 503/503/503 511/511/511
f 512/512/512 498/498/498 500/500/500
f 513/513/513 497/497/497 514/514/514
f 511/511/511 512/512/512 500/500/500
f 515/515/515 516/516/516 507/507/507
f 514/514/514 517/517/517 513/513/513
f 503/503/503 518/518/518 512/512/512
f 519/519/519 520/520/520 521/521/521
f 522/522/522 523/523/523 524/524/524
f 525/525/525 512/512/512 518/518/518
f 526/526/526 527/527/527 528/528/528
f 529/529/529 530/530/530 531/531/531
f 528/528/528 532/532/532 525/525/525
f 527/527/527 498/498/498 532/532/532
f 533/533/533 534/534/534 535/535/535
f 536/536/536 537/537/537 538/538/538
f 527/527/527 539/539/539 540/540/540
f 541/541/541 542/542/542 519/519/519
f 543/543/543 544/544/544 530/530/530
f 545/545/545 546/546/546 547/547/547
f 548/548/548 315/315/315 314/314/314
f 549/549/549 550/550/550 551/551/551
f 547/547/547 552/552/552 553/553/553
f 554/554/554 555/555/555 556/556/556
f 557/557/557 550/550/550 558/558/558
f 559/559/559 560/560/560 548/548/548
f 561/561/561 562/562/562 320/320/320
f 1/1/1 21/21/21 2/2/2
f 4/4/4 14/14/14 5/5/5
f 7/7/7 29/29/29 8/8/8
f 10/10/10 57/57/57 11/11/11
f 4/4/4 56/56/56 13/13/13
f 15/15/15 563/563/563 16/16/16
f 18/18/18 564/564/564 19/19/19
f 21/21/21 1/1/1 7/7/7
f 5/5/5 23/23/23 22/22/22
f 12/12/12 15/15/15 17/17/17
f 23/23/23 28/28/28 24/24/24
f 25/25/25 282/282/282 26/26/26
f 28/28/28 282/282/282 25/25/25
f 29/29/29 565/565/565 30/30/30
f 31/31/31 566/566/566 32/32/32
f 34/34/34 321/321/321 35/35/35
f 37/37/37 566/566/566 31/31/31
f 33/33/33 32/32/32 39/39/39
f 41/41/41 567/567/567 42/42/42
f 44/44/44 52/52/52 45/45/45
f 47/47/47 568/568/568 48/48/48
f 45/45/45 53/53/53 50/50/50
f 52/52/52 569/569/569 53/53/53
f 54/54/54 61/61/61 55/55/55
f 57/57/57 570/570/570 58/58/58
f 3/3/3 2/2/2 59/59/59
f 61/61/61 571/571/571 62/62/62
f 13/13/13 56/56/56 55/55/55
f 60/60/60 59/59/59 63/63/63
f 65/65/65 572/572/572 66/66/66
f 68/68/68 573/573/573 69/69/69
f 71/71/71 135/135/135 72/72/72
f 74/74/74 574/574/574 75/75/75
f 77/77/77 204/204/204 78/78/78
f 80/80/80 575/575/575 81/81/81
f 83/83/83 105/105/105 84/84/84
f 86/86/86 576/576/576 87/87/87
f 89/89/89 97/97/97 90/90/90
f 92/92/92 83/83/83 85/85/85
f 94/94/94 577/577/577 95/95/95
f 97/97/97 578/578/578 98/98/98
f 78/78/78 577/577/577 94/94/94
f 87/87/87 576/576/576 99/99/99
f 101/101/101 579/579/579 102/102/102
f 99/99/99 580/580/580 104/104/104
f 105/105/105 581/581/581 106/106/106
f 104/104/104 582/582/582 107/107/107
f 108/108/108 583/583/583 109/109/109
f 111/111/111 584/584/584 112/112/112
f 95/95/95 577/577/577 114/114/114
f 101/101/101 103/103/103 116/116/116
f 101/101/101 117/117/117 118/118/118
f 113/113/113 112/112/112 120/120/120
f 122/122/122 110/110/110 109/109/109
f 84/84/84 106/106/106 124/124/124
f 126/126/126 579/579/579 101/101/101
f 127/127/127 90/90/90 98/98/98
f 129/129/129 93/93/93 85/85/85
f 131/131/131 91/91/91 90/90/90
f 130/130/130 85/85/85 84/84/84
f 132/132/132 80/80/80 82/82/82
f 134/134/134 585/585/585 135/135/135
f 136/136/136 572/572/572 65/65/65
f 138/138/138 586/586/586 139/139/139
f 141/141/141 587/587/587 142/142/142
f 144/144/144 588/588/588 145/145/145
f 147/147/147 201/201/201 148/148/148
f 149/149/149 148/148/148 150/150/150
f 152/152/152 589/589/589 153/153/153
f 155/155/155 172/172/172 156/156/156
f 143/143/143 590/590/590 158/158/158
f 140/140/140 163/163/163 159/159/159
f 144/144/144 146/146/146 155/155/155
f 160/160/160 181/181/181 161/161/161
f 163/163/163 591/591/591 164/164/164
f 150/150/150 160/160/160 162/162/162
f 158/158/158 590/590/590 165/165/165
f 167/167/167 592/592/592 168/168/168
f 166/166/166 165/165/165 170/170/170
f 172/172/172 593/593/593 173/173/173
f 171/171/171 594/594/594 174/174/174
f 175/175/175 595/595/595 176/176/176
f 178/178/178 596/596/596 179/179/179
f 181/181/181 160/160/160 182/182/182
f 167/167/167 169/169/169 184/184/184
f 167/167/167 185/185/185 186/186/186
f 180/180/180 179/179/179 188/188/188
f 190/190/190 177/177/177 176/176/176
f 156/156/156 173/173/173 192/192/192
f 194/194/194 592/592/592 167/167/167
f 195/195/195 159/159/159 164/164/164
f 197/197/197 144/144/144 157/157/157
f 138/138/138 159/159/159 195/195/195
f 198/198/198 157/157/157 156/156/156
f 147/147/147 597/597/597 200/200/200
f 202/202/202 588/588/588 144/144/144
f 203/203/203 586/586/586 138/138/138
f 131/131/131 137/137/137 65/65/65
f 134/134/134 71/71/71 93/93/93
f 76/76/76 75/75/75 204/204/204
f 71/71/71 73/73/73 92/92/92
f 88/88/88 68/68/68 70/70/70
f 91/91/91 65/65/65 67/67/67
f 205/205/205 212/212/212 206/206/206
f 208/208/208 205/205/205 207/207/207
f 210/210/210 598/598/598 209/209/209
f 211/211/211 599/599/599 212/212/212
f 210/210/210 207/207/207 206/206/206
f 211/211/211 205/205/205 208/208/208
f 215/215/215 600/600/600 216/216/216
f 218/218/218 247/247/247 219/219/219
f 221/221/221 601/601/601 222/222/222
f 224/224/224 602/602/602 225/225/225
f 227/227/227 603/603/603 228/228/228
f 230/230/230 604/604/604 231/231/231
f 226/226/226 225/225/225 233/233/233
f 235/235/235 223/223/223 222/222/222
f 237/237/237 218/218/218 220/220/220
f 217/217/217 216/216/216 239/239/239
f 241/241/241 246/246/246 218/218/218
f 235/235/235 226/226/226 234/234/234
f 242/242/242 230/230/230 232/232/232
f 244/244/244 605/605/605 240/240/240
f 245/245/245 224/224/224 226/226/226
f 246/246/246 606/606/606 247/247/247
f 248/248/248 254/254/254 249/249/249
f 251/251/251 273/273/273 252/252/252
f 220/220/220 219/219/219 254/254/254
f 255/255/255 607/607/607 256/256/256
f 238/238/238 220/220/220 248/248/248
f 235/235/235 236/236/236 259/259/259
f 260/260/260 269/269/269 261/261/261
f 250/250/250 276/276/276 263/263/263
f 265/265/265 608/608/608 266/266/266
f 258/258/258 248/248/248 250/250/250
f 236/236/236 260/260/260 262/262/262
f 222/222/222 609/609/609 260/260/260
f 268/268/268 261/261/261 269/269/269
f 271/271/271 270/270/270 269/269/269
f 260/260/260 609/609/609 272/272/272
f 273/273/273 610/610/610 274/274/274
f 250/250/250 249/249/249 275/275/275
f 267/267/267 266/266/266 277/277/277
f 279/279/279 611/611/611 280/280/280
f 282/282/282 293/293/293 283/283/283
f 284/284/284 612/612/612 285/285/285
f 287/287/287 279/279/279 281/281/281
f 289/289/289 295/295/295 290/290/290
f 285/285/285 613/613/613 292/292/292
f 293/293/293 614/614/614 294/294/294
f 36/36/36 35/35/35 295/295/295
f 296/296/296 307/307/307 1/1/1
f 297/297/297 309/309/309 298/298/298
f 300/300/300 29/29/29 7/7/7
f 10/10/10 310/310/310 302/302/302
f 303/303/303 338/338/338 297/297/297
f 16/16/16 615/615/615 304/304/304
f 18/18/18 20/20/20 305/305/305
f 307/307/307 301/301/301 7/7/7
f 308/308/308 312/312/312 298/298/298
f 17/17/17 304/304/304 310/310/310
f 311/311/311 316/316/316 312/312/312
f 313/313/313 616/616/616 314/314/314
f 313/313/313 315/315/315 316/316/316
f 317/317/317 565/565/565 29/29/29
f 31/31/31 33/33/33 318/318/318
f 34/34/34 561/561/561 320/320/320
f 31/31/31 319/319/319 322/322/322
f 33/33/33 40/40/40 323/323/323
f 324/324/324 617/617/617 325/325/325
f 327/327/327 335/335/335 328/328/328
f 48/48/48 568/568/568 330/330/330
f 332/332/332 334/334/334 327/327/327
f 334/334/334 618/618/618 335/335/335
f 336/336/336 341/341/341 337/337/337
f 339/339/339 570/570/570 57/57/57
f 3/3/3 60/60/60 340/340/340
f 341/341/341 336/336/336 342/342/342
f 303/303/303 342/342/342 336/336/336
f 60/60/60 64/64/64 344/344/344
f 345/345/345 482/482/482 346/346/346
f 348/348/348 481/481/481 349/349/349
f 351/351/351 619/619/619 352/352/352
f 354/354/354 620/620/620 355/355/355
f 357/357/357 379/379/379 358/358/358
f 360/360/360 621/621/621 361/361/361
f 363/363/363 388/388/388 364/364/364
f 366/366/366 381/381/381 367/367/367
f 369/369/369 378/378/378 370/370/370
f 365/365/365 364/364/364 372/372/372
f 374/374/374 622/622/622 375/375/375
f 377/377/377 623/623/623 378/378/378
f 374/374/374 376/376/376 358/358/358
f 366/366/366 386/386/386 380/380/380
f 382/382/382 398/398/398 383/383/383
f 385/385/385 624/624/624 380/380/380
f 387/387/387 625/625/625 388/388/388
f 389/389/389 626/626/626 385/385/385
f 390/390/390 627/627/627 391/391/391
f 393/393/393 628/628/628 394/394/394
f 375/375/375 629/629/629 396/396/396
f 382/382/382 630/630/630 397/397/397
f 399/399/399 630/630/630 382/382/382
f 401/401/401 393/393/393 395/395/395
f 403/403/403 631/631/631 390/390/390
f 404/404/404 387/387/387 363/363/363
f 382/382/382 384/384/384 406/406/406
f 407/407/407 632/632/632 377/377/377
f 408/408/408 410/410/410 365/365/365
f 409/409/409 407/407/407 369/369/369
f 410/410/410 405/405/405 363/363/363
f 362/362/362 361/361/361 411/411/411
f 413/413/413 351/351/351 353/353/353
f 345/345/345 347/347/347 415/415/415
f 417/417/417 436/436/436 418/418/418
f 420/420/420 434/434/434 421/421/421
f 423/423/423 437/437/437 424/424/424
f 426/426/426 478/478/478 427/427/427
f 428/428/428 443/443/443 429/429/429
f 430/430/430 452/452/452 431/431/431
f 433/433/433 445/445/445 434/434/434
f 435/435/435 442/442/442 436/436/436
f 423/423/423 432/432/432 431/431/431
f 438/438/438 461/461/461 439/439/439
f 441/441/441 633/633/633 442/442/442
f 440/440/440 439/439/439 429/429/429
f 433/433/433 449/449/449 444/444/444
f 446/446/446 464/464/464 447/447/447
f 449/449/449 454/454/454 450/450/450
f 451/451/451 634/634/634 452/452/452
f 453/453/453 635/635/635 454/454/454
f 455/455/455 636/636/636 456/456/456
f 458/458/458 637/637/637 459/459/459
f 461/461/461 638/638/638 462/462/462
f 446/446/446 639/639/639 463/463/463
f 465/465/465 639/639/639 446/446/446
f 467/467/467 458/458/458 460/460/460
f 469/469/469 640/640/640 455/455/455
f 470/470/470 451/451/451 430/430/430
f 446/446/446 448/448/448 472/472/472
f 473/473/473 641/641/641 441/441/441
f 474/474/474 476/476/476 432/432/432
f 473/473/473 435/435/435 417/417/417
f 476/476/476 471/471/471 430/430/430
f 477/477/477 642/642/642 427/427/427
f 423/423/423 425/425/425 479/479/479
f 417/417/417 419/419/419 480/480/480
f 409/409/409 371/371/371 345/345/345
f 373/373/373 351/351/351 413/413/413
f 359/359/359 354/354/354 356/356/356
f 372/372/372 619/619/619 351/351/351
f 368/368/368 367/367/367 481/481/481
f 371/371/371 370/370/370 482/482/482
f 483/483/483 491/491/491 484/484/484
f 485/485/485 484/484/484 486/486/486
f 488/488/488 485/485/485 487/487/487
f 490/490/490 484/484/484 491/491/491
f 483/483/483 485/485/485 488/488/488
f 486/486/486 484/484/484 490/490/490
f 495/495/495 643/643/643 496/496/496
f 498/498/498 644/644/644 499/499/499
f 501/501/501 645/645/645 502/502/502
f 504/504/504 646/646/646 505/505/505
f 507/507/507 516/516/516 508/508/508
f 510/510/510 501/501/501 503/503/503
f 512/512/512 532/532/532 498/498/498
f 513/513/513 495/495/495 497/497/497
f 511/511/511 503/503/503 512/512/512
f 515/515/515 647/647/647 516/516/516
f 514/514/514 648/648/648 517/517/517
f 503/503/503 502/502/502 518/518/518
f 519/519/519 542/542/542 520/520/520
f 522/522/522 649/649/649 523/523/523
f 525/525/525 532/532/532 512/512/512
f 526/526/526 533/533/533 527/527/527
f 529/529/529 543/543/543 530/530/530
f 528/528/528 527/527/527 532/532/532
f 527/527/527 540/540/540 498/498/498
f 533/533/533 526/526/526 534/534/534
f 536/536/536 541/541/541 537/537/537
f 527/527/527 533/533/533 539/539/539
f 541/541/541 536/536/536 542/542/542
f 543/543/543 650/650/650 544/544/544
f 545/545/545 651/651/651 546/546/546
f 548/548/548 560/560/560 315/315/315
f 549/549/549 558/558/558 550/550/550
f 547/547/547 546/546/546 552/552/552
f 554/554/554 562/562/562 555/555/555
f 557/557/557 652/652/652 550/550/550
f 559/559/559 653/653/653 560/560/560
f 561/561/561 555/555/555 562/562/562
