# Cube -- imported by tools/import_asset_pack.py from Brick.fbx
o __pending__
v -0.271238 0.328321 0.010653
v -0.712256 0.333333 0.328154
v -0.185824 0.307557 0.291186
v -0.239037 -0.333333 0.331601
v -0.712256 0.333333 0.328154
v -0.712256 -0.333333 0.328154
v -0.709828 0.333333 -0.005170
v -0.707400 -0.333333 -0.338494
v -0.709828 -0.333333 -0.005170
v 0.709828 -0.333333 0.005170
v 0.234181 -0.333333 0.335048
v 0.236609 -0.333333 0.001723
v 0.605943 0.318298 0.042301
v 0.707400 -0.333333 0.338494
v 0.709828 -0.333333 0.005170
v 0.239037 0.333333 -0.331601
v 0.712256 -0.333333 -0.328154
v 0.239037 -0.333333 -0.331601
v 0.712256 0.333333 -0.328154
v 0.712256 -0.333333 -0.328154
v 0.712256 -0.333333 -0.328154
v 0.239037 -0.333333 -0.331601
v -0.712256 0.333333 0.328154
v -0.712256 -0.333333 0.328154
v -0.707400 0.333333 -0.338494
v -0.234181 0.333333 -0.335048
v 0.239037 0.333333 -0.331601
v 0.605943 0.318298 0.042301
v 0.712256 0.333333 -0.328154
v 0.167353 0.323309 0.026477
v -0.234181 -0.333333 -0.335048
v -0.709828 -0.333333 -0.005170
v -0.707400 -0.333333 -0.338494
v -0.236609 -0.333333 -0.001723
v -0.707400 0.333333 -0.338494
v -0.234181 -0.333333 -0.335048
v -0.707400 -0.333333 -0.338494
v -0.234181 0.333333 -0.335048
v -0.712256 -0.333333 0.328154
v -0.239037 -0.333333 0.331601
v 0.707400 0.333333 0.338494
v 0.234181 -0.333333 0.335048
v 0.707400 -0.333333 0.338494
v -0.185824 0.307557 0.291186
v 0.234181 0.333333 0.335048
v 0.707400 0.333333 0.338494
v -0.709828 0.333333 -0.005170
v -0.707400 0.333333 -0.338494
v 0.707400 -0.333333 0.338494
v 0.707400 0.333333 0.338494
v 0.712256 0.333333 -0.328154
v 0.234181 0.333333 0.335048
vt 0.129683 0.836076
vt 0.248065 0.998071
vt 0.233122 0.803755
vt 0.751956 0.648605
vt 0.998053 0.473872
vt 0.751950 0.473872
vt 0.375001 0.470013
vt 0.498079 0.223857
vt 0.375001 0.223857
vt 0.375001 0.473871
vt 0.251923 0.648604
vt 0.375001 0.648604
vt 0.504539 0.360592
vt 0.747331 0.470013
vt 0.747416 0.346940
vt 0.501937 0.823338
vt 0.748093 0.998071
vt 0.748093 0.823338
vt 0.502107 0.223867
vt 0.747501 0.223867
vt 0.498079 0.473871
vt 0.498079 0.648604
vt 0.251923 0.470013
vt 0.251923 0.223857
vt 0.001929 0.998056
vt 0.001929 0.823325
vt 0.001929 0.648594
vt 0.139055 0.512101
vt 0.001929 0.473862
vt 0.134369 0.674088
vt 0.498079 0.823338
vt 0.375001 0.998071
vt 0.498079 0.998071
vt 0.375001 0.823338
vt 0.501937 0.473871
vt 0.748093 0.648604
vt 0.748093 0.473871
vt 0.501937 0.648604
vt 0.251923 0.998071
vt 0.251923 0.823338
vt 0.998071 0.998071
vt 0.751962 0.823338
vt 0.751969 0.998071
vt 0.988858 0.668119
vt 0.248065 0.648608
vt 0.248065 0.473877
vt 0.124997 0.998064
vt 0.498079 0.470013
vt 0.251923 0.473871
vt 0.501937 0.470013
vt 0.501937 0.998071
vt 0.998065 0.823338
vn 0.017150 0.999356 0.031528
vn -0.558578 0.587136 0.585886
vn 0.007309 0.712421 0.701714
vn 0.007657 -0.691859 0.721992
vn -0.558578 0.587136 0.585886
vn -0.581536 -0.577359 0.573125
vn -0.703032 0.711140 -0.005121
vn -0.573117 -0.577356 -0.581546
vn -0.707078 -0.707116 -0.005150
vn 0.739831 -0.671582 0.040355
vn -0.018000 -0.700039 0.713877
vn 0.000000 -1.000000 -0.000000
vn 0.601853 0.798594 0.004562
vn 0.612547 -0.550219 0.567490
vn 0.739831 -0.671582 0.040355
vn 0.007418 0.718229 -0.695767
vn 0.581531 -0.577354 -0.573135
vn 0.005150 -0.707106 -0.707088
vn 0.624435 0.598426 -0.501963
vn 0.581531 -0.577354 -0.573135
vn 0.581531 -0.577354 -0.573135
vn 0.005150 -0.707106 -0.707088
vn -0.558578 0.587136 0.585886
vn -0.581536 -0.577359 0.573125
vn -0.571780 0.579807 -0.580424
vn 0.007458 0.713417 -0.700700
vn 0.007418 0.718229 -0.695767
vn 0.601853 0.798594 0.004562
vn 0.624435 0.598426 -0.501963
vn -0.003651 0.999945 0.009821
vn 0.005150 -0.707106 -0.707088
vn -0.707078 -0.707116 -0.005150
vn -0.573117 -0.577356 -0.581546
vn 0.000000 -1.000000 -0.000000
vn -0.571780 0.579807 -0.580424
vn 0.005150 -0.707106 -0.707088
vn -0.573117 -0.577356 -0.581546
vn 0.007458 0.713417 -0.700700
vn -0.581536 -0.577359 0.573125
vn 0.007657 -0.691859 0.721992
vn 0.667183 0.575054 0.473476
vn -0.018000 -0.700039 0.713877
vn 0.612547 -0.550219 0.567490
vn 0.007309 0.712421 0.701714
vn -0.053534 0.713697 0.698406
vn 0.667183 0.575054 0.473476
vn -0.703032 0.711140 -0.005121
vn -0.571780 0.579807 -0.580424
vn 0.612547 -0.550219 0.567490
vn 0.667183 0.575054 0.473476
vn 0.624435 0.598426 -0.501963
vn -0.053534 0.713697 0.698406
f 1/1/1 2/2/2 3/3/3
f 4/4/4 5/5/5 6/6/6
f 7/7/7 8/8/8 9/9/9
f 10/10/10 11/11/11 12/12/12
f 13/13/13 14/14/14 15/15/15
f 16/16/16 17/17/17 18/18/18
f 19/19/19 15/15/15 20/20/20
f 21/21/21 12/12/12 22/22/22
f 23/23/23 9/9/9 24/24/24
f 25/25/25 1/1/1 26/26/26
f 27/27/27 28/28/28 29/29/29
f 26/26/26 30/30/30 27/27/27
f 31/31/31 32/32/32 33/33/33
f 22/22/22 34/34/34 31/31/31
f 35/35/35 36/36/36 37/37/37
f 38/38/38 18/18/18 36/36/36
f 34/34/34 39/39/39 32/32/32
f 12/12/12 40/40/40 34/34/34
f 41/41/41 42/42/42 43/43/43
f 42/42/42 44/44/44 4/4/4
f 28/28/28 45/45/45 46/46/46
f 30/30/30 3/3/3 45/45/45
f 1/1/1 47/47/47 2/2/2
f 4/4/4 44/44/44 5/5/5
f 7/7/7 48/48/48 8/8/8
f 10/10/10 49/49/49 11/11/11
f 13/13/13 50/50/50 14/14/14
f 16/16/16 51/51/51 17/17/17
f 19/19/19 13/13/13 15/15/15
f 21/21/21 10/10/10 12/12/12
f 23/23/23 7/7/7 9/9/9
f 25/25/25 47/47/47 1/1/1
f 27/27/27 30/30/30 28/28/28
f 26/26/26 1/1/1 30/30/30
f 31/31/31 34/34/34 32/32/32
f 22/22/22 12/12/12 34/34/34
f 35/35/35 38/38/38 36/36/36
f 38/38/38 16/16/16 18/18/18
f 34/34/34 40/40/40 39/39/39
f 12/12/12 11/11/11 40/40/40
f 41/41/41 52/52/52 42/42/42
f 42/42/42 52/52/52 44/44/44
f 28/28/28 30/30/30 45/45/45
f 30/30/30 1/1/1 3/3/3
