# Cube -- imported by tools/import_asset_pack.py from chain.fbx
o __pending__
v 1.039229 0.600000 -0.000000
v 1.167847 0.000000 0.120001
v 1.199999 0.000000 0.000000
v 1.011385 0.583923 0.120001
v 1.080001 0.000000 0.207847
v 0.935307 0.540001 0.207847
v 0.960000 0.000000 0.239999
v 1.080001 0.000000 0.207847
v 0.831385 0.480001 0.239999
v 0.839999 0.000000 0.207847
v 0.727460 0.419999 0.207847
v 0.752153 0.000000 0.120001
v 0.651385 0.376077 0.120001
v 0.720001 0.000000 0.000000
v 0.752153 0.000000 0.120001
v 0.623538 0.360000 -0.000000
v 0.752153 0.000000 -0.120001
v 0.651385 0.376077 -0.120001
v 0.839999 -0.000000 -0.207847
v 0.839999 -0.000000 -0.207847
v 0.831385 0.480001 -0.239999
v 0.960000 -0.000000 -0.239999
v 1.080001 -0.000000 -0.207847
v 0.935307 0.540001 -0.207847
v 1.167847 0.000000 -0.120001
v 1.011385 0.583923 -0.120001
v 1.167847 0.000000 -0.120001
v 0.600000 1.039232 -0.000000
v 0.583923 1.011385 0.120001
v 0.935307 0.540001 0.207847
v 0.540001 0.935307 0.207847
v 0.479999 0.831385 0.239999
v 0.419999 0.727460 0.207847
v 0.651385 0.376077 0.120001
v 0.376077 0.651385 0.120001
v 0.360000 0.623538 -0.000000
v 0.376077 0.651385 -0.120001
v 0.727460 0.419999 -0.207847
v 0.419999 0.727460 -0.207847
v 0.727460 0.419999 -0.207847
v 0.479999 0.831385 -0.239999
v 0.540001 0.935307 -0.207847
v 1.011385 0.583923 -0.120001
v 0.583923 1.011385 -0.120001
v 0.000000 1.199999 -0.000000
v 0.000000 1.167847 0.120001
v 0.540001 0.935307 0.207847
v 0.000000 0.960000 0.239999
v 0.000000 0.839999 0.207847
v 0.376077 0.651385 0.120001
v 0.000000 0.752153 0.120001
v 0.000000 0.720001 -0.000000
v 0.000000 0.752153 -0.120001
v 0.419999 0.727460 -0.207847
v 0.000000 0.960000 -0.239999
v 0.000000 1.080001 -0.207847
v 0.583923 1.011385 -0.120001
v 0.000000 1.199999 -0.000000
v -0.583923 1.011385 0.120001
v 0.000000 1.167847 0.120001
v 0.000000 1.080001 0.207847
v -0.540001 0.935307 0.207847
v 0.000000 1.080001 0.207847
v -0.419999 0.727463 0.207847
v -0.376077 0.651385 0.120001
v 0.000000 0.752153 0.120001
v 0.000000 0.752153 0.120001
v -0.360000 0.623538 -0.000000
v 0.000000 0.720001 -0.000000
v 0.000000 0.752153 -0.120001
v -0.376077 0.651385 -0.120001
v 0.000000 0.839999 -0.207847
v -0.419999 0.727463 -0.207847
v 0.000000 0.839999 -0.207847
v -0.540001 0.935307 -0.207847
v -0.583923 1.011385 -0.120001
v 0.000000 1.167847 -0.120001
v -0.583923 1.011385 -0.120001
v 0.000000 1.167847 -0.120001
v -1.039229 0.600000 -0.000000
v -0.600000 1.039232 -0.000000
v -1.011385 0.583923 0.120001
v -0.540001 0.935307 0.207847
v -0.935307 0.540001 0.207847
v -0.479999 0.831385 0.239999
v -0.831385 0.480001 0.239999
v -0.727460 0.419999 0.207847
v -0.376077 0.651385 0.120001
v -0.623538 0.360000 -0.000000
v -0.727460 0.419999 -0.207847
v -0.419999 0.727463 -0.207847
v -0.727460 0.419999 -0.207847
v -0.479999 0.831385 -0.239999
v -0.831385 0.480001 -0.239999
v -1.011385 0.583923 -0.120001
v -1.199999 0.000000 0.000000
v -1.167847 0.000000 0.120001
v -0.935307 0.540001 0.207847
v -1.080001 0.000000 0.207847
v -0.839999 0.000000 0.207847
v -0.651385 0.376077 0.120001
v -0.752153 0.000000 0.120001
v -0.651385 0.376077 0.120001
v -0.720001 0.000000 0.000000
v -0.651385 0.376077 -0.120001
v -0.839999 0.000000 -0.207847
v -0.839999 0.000000 -0.207847
v -0.960000 0.000000 -0.239999
v -0.935307 0.540001 -0.207847
v -1.080001 0.000000 -0.207847
v -1.011385 0.583923 -0.120001
v -1.039232 -0.600000 0.000000
v -1.167847 0.000000 0.120001
v -1.199999 0.000000 0.000000
v -1.167847 0.000000 0.120001
v -0.935307 -0.540001 0.207847
v -0.831385 -0.479999 0.239999
v -0.960000 0.000000 0.239999
v -0.727460 -0.419999 0.207847
v -0.839999 0.000000 0.207847
v -0.651385 -0.376077 0.120001
v -0.752153 0.000000 0.120001
v -0.720001 0.000000 0.000000
v -0.623538 -0.360000 0.000000
v -0.752153 0.000000 -0.120001
v -0.752153 0.000000 -0.120001
v -0.727460 -0.419999 -0.207847
v -0.831385 -0.479999 -0.239999
v -0.935307 -0.540001 -0.207847
v -1.167847 0.000000 -0.120001
v -1.080001 0.000000 -0.207847
v -1.011385 -0.583923 -0.120001
v -0.600000 -1.039232 0.000000
v -1.011385 -0.583923 0.120001
v -1.011385 -0.583923 0.120001
v -0.540001 -0.935307 0.207847
v -0.419999 -0.727463 0.207847
v -0.419999 -0.727463 0.207847
v -0.727460 -0.419999 0.207847
v -0.376077 -0.651385 0.120001
v -0.360000 -0.623538 0.000000
v -0.651385 -0.376077 -0.120001
v -0.376077 -0.651385 -0.120001
v -0.651385 -0.376077 -0.120001
v -0.419999 -0.727463 -0.207847
v -0.479999 -0.831385 -0.239999
v -0.935307 -0.540001 -0.207847
v -0.583923 -1.011385 -0.120001
v 0.000000 -1.199999 0.000000
v -0.583923 -1.011385 0.120001
v 0.000000 -1.167847 0.120001
v -0.583923 -1.011385 0.120001
v 0.000000 -0.960000 0.239999
v -0.479999 -0.831385 0.239999
v 0.000000 -0.752153 0.120001
v 0.000000 -0.752153 -0.120001
v -0.376077 -0.651385 -0.120001
v 0.000000 -0.752153 -0.120001
v 0.000000 -0.839999 -0.207847
v 0.000000 -1.080001 -0.207847
v -0.540001 -0.935307 -0.207847
v -0.540001 -0.935307 -0.207847
v 0.000000 -1.167847 -0.120001
v 0.600000 -1.039232 0.000000
v 0.000000 -1.167847 0.120001
v 0.000000 -1.199999 0.000000
v 0.583923 -1.011385 0.120001
v 0.000000 -1.080001 0.207847
v 0.479999 -0.831385 0.239999
v 0.419999 -0.727460 0.207847
v 0.000000 -0.839999 0.207847
v 0.419999 -0.727460 0.207847
v 0.000000 -0.752153 0.120001
v 0.000000 -0.839999 0.207847
v 0.376077 -0.651385 0.120001
v 0.000000 -0.720001 0.000000
v 0.360000 -0.623538 0.000000
v 0.000000 -0.752153 -0.120001
v 0.376077 -0.651385 -0.120001
v 0.419999 -0.727460 -0.207847
v 0.000000 -0.960000 -0.239999
v 0.479999 -0.831385 -0.239999
v 0.540001 -0.935307 -0.207847
v 0.000000 -1.167847 -0.120001
v 0.000000 -1.080001 -0.207847
v 0.583923 -1.011385 -0.120001
v 1.039229 -0.600000 0.000000
v 0.583923 -1.011385 0.120001
v 1.011385 -0.583923 0.120001
v 0.540001 -0.935307 0.207847
v 0.935307 -0.540001 0.207847
v 0.831385 -0.480001 0.239999
v 0.651385 -0.376077 0.120001
v 0.623538 -0.360000 0.000000
v 0.376077 -0.651385 -0.120001
v 0.727460 -0.419999 -0.207847
v 0.831385 -0.480001 -0.239999
v 0.540001 -0.935307 -0.207847
v 1.011385 -0.583923 -0.120001
v 1.199999 0.000000 0.000000
v 1.011385 -0.583923 0.120001
v 0.727460 -0.419999 0.207847
v 0.839999 0.000000 0.207847
v 0.727460 -0.419999 0.207847
v 0.752153 0.000000 0.120001
v 0.720001 0.000000 0.000000
v 0.651385 -0.376077 -0.120001
v 0.752153 0.000000 -0.120001
v 0.651385 -0.376077 -0.120001
v 0.935307 -0.540001 -0.207847
v 1.080001 -0.000000 -0.207847
v 0.935307 -0.540001 -0.207847
v 1.167847 0.000000 -0.120001
v 0.000000 1.080001 0.207847
v 0.000000 0.839999 -0.207847
v 0.000000 1.167847 -0.120001
v -1.080001 0.000000 0.207847
v -0.752153 0.000000 0.120001
v -0.752153 0.000000 -0.120001
v -1.167847 0.000000 -0.120001
v -1.167847 0.000000 -0.120001
v 0.000000 -1.167847 0.120001
v 0.000000 -0.839999 0.207847
v 0.000000 -0.720001 0.000000
v 0.000000 -1.080001 -0.207847
v 1.167847 0.000000 0.120001
v 1.167847 0.000000 0.120001
v 0.752153 0.000000 -0.120001
vt 0.224777 0.232915
vt 0.271391 0.115400
vt 0.243627 0.110214
vt 0.253046 0.234814
vt 0.294476 0.129568
vt 0.195920 0.997624
vt 0.104842 0.915084
vt 0.085488 0.933976
vt 0.203004 0.971660
vt 0.124197 0.895334
vt 0.210088 0.944838
vt 0.138365 0.880016
vt 0.409994 0.317417
vt 0.423183 0.245694
vt 0.398179 0.240508
vt 0.434493 0.319315
vt 0.450947 0.240508
vt 0.462763 0.317417
vt 0.474032 0.226340
vt 0.895158 0.874839
vt 0.816351 0.950306
vt 0.914512 0.893730
vt 0.933866 0.913481
vt 0.823435 0.977129
vt 0.948035 0.928799
vt 0.200277 0.234814
vt 0.218622 0.115400
vt 0.224777 0.374599
vt 0.253046 0.372701
vt 0.277511 0.240000
vt 0.323435 0.997624
vt 0.316351 0.971660
vt 0.309267 0.944838
vt 0.215274 0.924343
vt 0.409994 0.406224
vt 0.434493 0.404325
vt 0.462763 0.406224
vt 0.487227 0.312231
vt 0.710088 0.924343
vt 0.809266 0.924343
vt 0.703004 0.950306
vt 0.695919 0.977129
vt 0.828621 0.997624
vt 0.200277 0.372701
vt 0.243627 0.497301
vt 0.271391 0.492115
vt 0.277511 0.367515
vt 0.414512 0.915084
vt 0.395158 0.895334
vt 0.304081 0.924343
vt 0.398179 0.483132
vt 0.423183 0.477946
vt 0.450947 0.483132
vt 0.487227 0.411410
vt 0.604842 0.893730
vt 0.585488 0.913481
vt 0.690733 0.997624
vt 0.350077 0.497301
vt 0.340658 0.372701
vt 0.322313 0.492115
vt 0.299228 0.477946
vt 0.497624 0.823734
vt 0.433866 0.933976
vt 0.444747 0.809590
vt 0.425393 0.803239
vt 0.380989 0.880016
vt 0.581028 0.483132
vt 0.544713 0.404325
vt 0.556023 0.477946
vt 0.528259 0.483132
vt 0.516444 0.406224
vt 0.505174 0.497301
vt 0.574607 0.789095
vt 0.624197 0.874839
vt 0.521730 0.803239
vt 0.502376 0.809590
vt 0.571320 0.928799
vt 0.393427 0.372701
vt 0.375082 0.492115
vt 0.368927 0.232915
vt 0.368927 0.374599
vt 0.340658 0.234814
vt 0.316193 0.367515
vt 0.497624 0.696438
vt 0.471186 0.817091
vt 0.471186 0.703939
vt 0.444747 0.710582
vt 0.569213 0.406224
vt 0.544713 0.319315
vt 0.491979 0.312231
vt 0.491979 0.411409
vt 0.574607 0.690087
vt 0.548169 0.795737
vt 0.548169 0.682585
vt 0.502376 0.671939
vt 0.350077 0.110214
vt 0.322313 0.115400
vt 0.316193 0.240000
vt 0.433866 0.586196
vt 0.395158 0.624838
vt 0.425393 0.714585
vt 0.581028 0.240508
vt 0.569213 0.317417
vt 0.556023 0.245694
vt 0.516444 0.317417
vt 0.505174 0.226340
vt 0.624197 0.604343
vt 0.604842 0.584592
vt 0.521730 0.675943
vt 0.585488 0.565701
vt 0.393427 0.234814
vt 0.026875 0.374599
vt 0.020721 0.492115
vt 0.045726 0.497301
vt 0.448035 0.570878
vt 0.323435 0.522547
vt 0.316351 0.549370
vt 0.414512 0.605946
vt 0.309267 0.575334
vt 0.661634 0.497301
vt 0.650364 0.406224
vt 0.638549 0.483132
vt 0.610784 0.477946
vt 0.622094 0.404325
vt 0.585780 0.483132
vt 0.638365 0.619661
vt 0.710088 0.554839
vt 0.703004 0.528016
vt 0.079610 0.367515
vt 0.073490 0.492115
vt 0.096575 0.477946
vt 0.055145 0.372701
vt 0.026875 0.232915
vt 0.002376 0.372701
vt 0.328621 0.502053
vt 0.195919 0.522547
vt 0.210088 0.575334
vt 0.674829 0.312231
vt 0.674829 0.411409
vt 0.650364 0.317417
vt 0.622094 0.319315
vt 0.597595 0.406224
vt 0.804081 0.575334
vt 0.715274 0.575334
vt 0.809267 0.554839
vt 0.816351 0.528016
vt 0.695920 0.502053
vt 0.055145 0.234813
vt 0.045726 0.110213
vt 0.002376 0.234813
vt 0.071320 0.570878
vt 0.190733 0.502053
vt 0.104842 0.605946
vt 0.203004 0.549370
vt 0.638549 0.240508
vt 0.585780 0.240508
vt 0.597595 0.317417
vt 0.880989 0.619661
vt 0.895158 0.604343
vt 0.933866 0.565701
vt 0.823435 0.502053
vt 0.079610 0.239999
vt 0.073490 0.115399
vt 0.171026 0.232915
vt 0.177180 0.115400
vt 0.152176 0.110214
vt 0.002376 0.690087
vt 0.085488 0.586196
vt 0.048169 0.703939
vt 0.074607 0.710582
vt 0.124197 0.624838
vt 0.679581 0.312231
vt 0.715860 0.240508
vt 0.692776 0.226340
vt 0.704045 0.317417
vt 0.743625 0.245694
vt 0.732315 0.319315
vt 0.768629 0.240508
vt 0.925393 0.696437
vt 0.944747 0.690087
vt 0.914512 0.584592
vt 0.971186 0.682585
vt 0.118292 0.239999
vt 0.124411 0.115400
vt 0.101327 0.129568
vt 0.142756 0.234813
vt 0.171026 0.374599
vt 0.195525 0.234813
vt 0.002376 0.827737
vt 0.021730 0.696438
vt 0.021730 0.823734
vt 0.048169 0.817091
vt 0.704045 0.406223
vt 0.732315 0.404325
vt 0.756814 0.317417
vt 0.944747 0.789095
vt 0.971186 0.795737
vt 0.997624 0.675943
vt 0.142756 0.372701
vt 0.152176 0.497301
vt 0.195525 0.372701
vt 0.074607 0.809590
vt 0.692776 0.497301
vt 0.679581 0.411409
vt 0.715860 0.483132
vt 0.743625 0.477946
vt 0.756814 0.406223
vt 0.880989 0.861868
vt 0.925393 0.785092
vt 0.997624 0.803239
vt 0.101327 0.477946
vt 0.118292 0.367515
vt 0.124411 0.492115
vt 0.294476 0.477946
vt 0.474032 0.497301
vt 0.218622 0.492115
vt 0.299228 0.129568
vt 0.380989 0.637808
vt 0.528259 0.240508
vt 0.571320 0.552730
vt 0.375082 0.115400
vt 0.020721 0.115399
vt 0.661633 0.226340
vt 0.610784 0.245694
vt 0.096575 0.129568
vt 0.177180 0.492115
vt 0.071320 0.946946
vt 0.768629 0.483132
vn 0.866025 0.500000 -0.000000
vn 0.875982 0.000002 0.482344
vn 1.000000 -0.000000 -0.000000
vn 0.758622 0.437996 0.482340
vn 0.530903 0.000001 0.847433
vn 0.459776 0.265452 0.847432
vn 0.043065 -0.000002 0.999072
vn 0.530903 0.000001 0.847433
vn 0.037296 0.021531 0.999072
vn -0.466352 -0.000002 0.884600
vn -0.403871 -0.233177 0.884600
vn -0.854499 -0.000005 0.519453
vn -0.740015 -0.427254 0.519453
vn -1.000000 0.000000 -0.000000
vn -0.854499 -0.000005 0.519453
vn -0.866025 -0.500000 -0.000000
vn -0.854499 0.000006 -0.519453
vn -0.740021 -0.427245 -0.519453
vn -0.466353 0.000003 -0.884599
vn -0.466353 0.000003 -0.884599
vn 0.037297 0.021534 -0.999072
vn 0.043066 -0.000000 -0.999072
vn 0.530906 0.000000 -0.847431
vn 0.459776 0.265451 -0.847433
vn 0.875984 -0.000005 -0.482340
vn 0.758627 0.437988 -0.482340
vn 0.875984 -0.000005 -0.482340
vn 0.499996 0.866028 -0.000005
vn 0.437988 0.758627 0.482340
vn 0.459776 0.265452 0.847432
vn 0.265453 0.459777 0.847431
vn 0.021535 0.037298 0.999072
vn -0.233174 -0.403873 0.884600
vn -0.740015 -0.427254 0.519453
vn -0.427244 -0.740021 0.519453
vn -0.500000 -0.866025 0.000000
vn -0.427254 -0.740015 -0.519453
vn -0.403871 -0.233172 -0.884601
vn -0.233179 -0.403873 -0.884599
vn -0.403871 -0.233172 -0.884601
vn 0.021530 0.037294 -0.999072
vn 0.265452 0.459775 -0.847433
vn 0.758627 0.437988 -0.482340
vn 0.437995 0.758623 -0.482339
vn -0.000000 1.000000 -0.000000
vn -0.000003 0.875983 0.482341
vn 0.265453 0.459777 0.847431
vn 0.000000 0.043064 0.999072
vn -0.000000 -0.466345 0.884603
vn -0.427244 -0.740021 0.519453
vn -0.000000 -0.854496 0.519458
vn 0.000001 -1.000000 0.000001
vn -0.000006 -0.854499 -0.519453
vn -0.233179 -0.403873 -0.884599
vn -0.000000 0.043064 -0.999072
vn -0.000000 0.530900 -0.847434
vn 0.437995 0.758623 -0.482339
vn -0.000000 1.000000 -0.000000
vn -0.437995 0.758624 0.482339
vn -0.000003 0.875983 0.482341
vn 0.000000 0.530900 0.847434
vn -0.265452 0.459775 0.847433
vn 0.000000 0.530900 0.847434
vn 0.233178 -0.403877 0.884597
vn 0.427245 -0.740020 0.519453
vn -0.000000 -0.854496 0.519458
vn -0.000000 -0.854496 0.519458
vn 0.500001 -0.866025 0.000000
vn 0.000001 -1.000000 0.000001
vn -0.000006 -0.854499 -0.519453
vn 0.427245 -0.740020 -0.519453
vn -0.000003 -0.466349 -0.884601
vn 0.233178 -0.403875 -0.884598
vn -0.000003 -0.466349 -0.884601
vn -0.265452 0.459777 -0.847431
vn -0.437995 0.758623 -0.482339
vn -0.000000 0.875981 -0.482346
vn -0.437995 0.758623 -0.482339
vn -0.000000 0.875981 -0.482346
vn -0.866030 0.499991 0.000000
vn -0.500000 0.866026 -0.000000
vn -0.758627 0.437988 0.482340
vn -0.265452 0.459775 0.847433
vn -0.459776 0.265451 0.847432
vn -0.021530 0.037294 0.999072
vn -0.037297 0.021535 0.999072
vn 0.403872 -0.233172 0.884601
vn 0.427245 -0.740020 0.519453
vn 0.866026 -0.500000 -0.000001
vn 0.403874 -0.233173 -0.884600
vn 0.233178 -0.403875 -0.884598
vn 0.403874 -0.233173 -0.884600
vn -0.021535 0.037298 -0.999072
vn -0.037296 0.021531 -0.999072
vn -0.758627 0.437992 -0.482336
vn -1.000000 -0.000005 0.000005
vn -0.875986 -0.000001 0.482336
vn -0.459776 0.265451 0.847432
vn -0.530905 0.000000 0.847431
vn 0.466347 0.000001 0.884602
vn 0.740021 -0.427251 0.519448
vn 0.854499 0.000005 0.519453
vn 0.740021 -0.427251 0.519448
vn 1.000000 -0.000000 0.000000
vn 0.740015 -0.427254 -0.519453
vn 0.466353 0.000002 -0.884599
vn 0.466353 0.000002 -0.884599
vn -0.043063 -0.000001 -0.999072
vn -0.459775 0.265452 -0.847433
vn -0.530903 0.000001 -0.847433
vn -0.758627 0.437992 -0.482336
vn -0.866026 -0.500000 0.000000
vn -0.875986 -0.000001 0.482336
vn -1.000000 -0.000005 0.000005
vn -0.875986 -0.000001 0.482336
vn -0.459773 -0.265450 0.847434
vn -0.037292 -0.021531 0.999072
vn -0.043069 -0.000000 0.999072
vn 0.403875 0.233178 0.884598
vn 0.466347 0.000001 0.884602
vn 0.740015 0.427254 0.519453
vn 0.854499 0.000005 0.519453
vn 1.000000 -0.000000 0.000000
vn 0.866025 0.500000 -0.000000
vn 0.854499 -0.000005 -0.519453
vn 0.854499 -0.000005 -0.519453
vn 0.403867 0.233173 -0.884603
vn -0.037297 -0.021535 -0.999072
vn -0.459775 -0.265451 -0.847433
vn -0.875983 0.000003 -0.482342
vn -0.530903 0.000001 -0.847433
vn -0.758623 -0.437989 -0.482344
vn -0.499996 -0.866028 -0.000005
vn -0.758625 -0.437990 0.482340
vn -0.758625 -0.437990 0.482340
vn -0.265452 -0.459777 0.847432
vn 0.233175 0.403871 0.884600
vn 0.233175 0.403871 0.884600
vn 0.403875 0.233178 0.884598
vn 0.427245 0.740021 0.519453
vn 0.500000 0.866025 0.000000
vn 0.740021 0.427245 -0.519453
vn 0.427251 0.740020 -0.519448
vn 0.740021 0.427245 -0.519453
vn 0.233177 0.403871 -0.884600
vn -0.021530 -0.037293 -0.999072
vn -0.459775 -0.265451 -0.847433
vn -0.437989 -0.758627 -0.482339
vn 0.000005 -1.000000 0.000005
vn -0.437989 -0.758623 0.482345
vn 0.000005 -0.875984 0.482340
vn -0.437989 -0.758623 0.482345
vn 0.000001 -0.043067 0.999072
vn -0.021533 -0.037296 0.999072
vn -0.000005 0.854499 0.519453
vn 0.000000 0.854496 -0.519458
vn 0.427251 0.740020 -0.519448
vn 0.000000 0.854496 -0.519458
vn 0.000002 0.466351 -0.884600
vn 0.000000 -0.530906 -0.847431
vn -0.265450 -0.459773 -0.847434
vn -0.265450 -0.459773 -0.847434
vn 0.000000 -0.875986 -0.482337
vn 0.500004 -0.866023 -0.000005
vn 0.000005 -0.875984 0.482340
vn 0.000005 -1.000000 0.000005
vn 0.437996 -0.758622 0.482341
vn -0.000001 -0.530903 0.847433
vn 0.021530 -0.037291 0.999072
vn -0.233175 0.403871 0.884600
vn -0.000000 0.466353 0.884599
vn -0.233175 0.403871 0.884600
vn -0.000005 0.854499 0.519453
vn -0.000000 0.466353 0.884599
vn -0.427254 0.740015 0.519453
vn 0.000001 1.000000 -0.000001
vn -0.500000 0.866025 -0.000000
vn 0.000000 0.854496 -0.519458
vn -0.427245 0.740020 -0.519453
vn -0.233178 0.403877 -0.884597
vn 0.000001 -0.043069 -0.999072
vn 0.021532 -0.037293 -0.999072
vn 0.265451 -0.459776 -0.847433
vn 0.000000 -0.875986 -0.482337
vn 0.000000 -0.530906 -0.847431
vn 0.437991 -0.758623 -0.482343
vn 0.866028 -0.499996 0.000006
vn 0.437996 -0.758622 0.482341
vn 0.758627 -0.437992 0.482336
vn 0.265450 -0.459773 0.847434
vn 0.459776 -0.265451 0.847432
vn 0.037295 -0.021534 0.999072
vn -0.740020 0.427245 0.519453
vn -0.866025 0.500000 0.000000
vn -0.427245 0.740020 -0.519453
vn -0.403867 0.233173 -0.884603
vn 0.037295 -0.021532 -0.999072
vn 0.265451 -0.459776 -0.847433
vn 0.758626 -0.437993 -0.482337
vn 1.000000 -0.000000 -0.000000
vn 0.758627 -0.437992 0.482336
vn -0.403875 0.233178 0.884598
vn -0.466352 -0.000002 0.884600
vn -0.403875 0.233178 0.884598
vn -0.854499 -0.000005 0.519453
vn -1.000000 0.000000 -0.000000
vn -0.740015 0.427254 -0.519453
vn -0.854499 0.000006 -0.519453
vn -0.740015 0.427254 -0.519453
vn 0.459774 -0.265451 -0.847434
vn 0.530906 0.000000 -0.847431
vn 0.459774 -0.265451 -0.847434
vn 0.875984 -0.000005 -0.482340
vn 0.000000 0.530900 0.847434
vn -0.000003 -0.466349 -0.884601
vn -0.000000 0.875981 -0.482346
vn -0.530905 0.000000 0.847431
vn 0.854499 0.000005 0.519453
vn 0.854499 -0.000005 -0.519453
vn -0.875983 0.000003 -0.482342
vn -0.875983 0.000003 -0.482342
vn 0.000005 -0.875984 0.482340
vn -0.000000 0.466353 0.884599
vn 0.000001 1.000000 -0.000001
vn 0.000000 -0.530906 -0.847431
vn 0.875982 0.000002 0.482344
vn 0.875982 0.000002 0.482344
vn -0.854499 0.000006 -0.519453
f 1/1/1 2/2/2 3/3/3
f 4/4/4 5/5/5 2/2/2
f 6/6/6 7/7/7 8/8/8
f 9/9/9 10/10/10 7/7/7
f 11/11/11 12/12/12 10/10/10
f 13/13/13 14/14/14 15/15/15
f 16/16/16 17/17/17 14/14/14
f 18/18/18 19/19/19 17/17/17
f 20/20/20 21/21/21 22/22/22
f 21/21/21 23/23/23 22/22/22
f 24/24/24 25/25/25 23/23/23
f 26/26/26 3/3/3 27/27/27
f 28/28/28 4/4/4 1/1/1
f 29/29/29 30/30/30 4/4/4
f 31/31/31 9/9/9 6/6/6
f 32/32/32 11/11/11 9/9/9
f 33/33/33 34/34/34 11/11/11
f 35/35/35 16/16/16 13/13/13
f 36/36/36 18/18/18 16/16/16
f 37/37/37 38/38/38 18/18/18
f 39/39/39 21/21/21 40/40/40
f 41/41/41 24/24/24 21/21/21
f 42/42/42 43/43/43 24/24/24
f 44/44/44 1/1/1 26/26/26
f 45/45/45 29/29/29 28/28/28
f 46/46/46 47/47/47 29/29/29
f 31/31/31 48/48/48 32/32/32
f 48/48/48 33/33/33 32/32/32
f 49/49/49 50/50/50 33/33/33
f 51/51/51 36/36/36 35/35/35
f 52/52/52 37/37/37 36/36/36
f 53/53/53 54/54/54 37/37/37
f 39/39/39 55/55/55 41/41/41
f 55/55/55 42/42/42 41/41/41
f 56/56/56 57/57/57 42/42/42
f 44/44/44 45/45/45 28/28/28
f 58/58/58 59/59/59 60/60/60
f 59/59/59 61/61/61 60/60/60
f 62/62/62 48/48/48 63/63/63
f 48/48/48 64/64/64 49/49/49
f 49/49/49 65/65/65 66/66/66
f 67/67/67 68/68/68 69/69/69
f 68/68/68 70/70/70 69/69/69
f 71/71/71 72/72/72 70/70/70
f 73/73/73 55/55/55 74/74/74
f 55/55/55 75/75/75 56/56/56
f 56/56/56 76/76/76 77/77/77
f 78/78/78 58/58/58 79/79/79
f 80/80/80 59/59/59 81/81/81
f 82/82/82 83/83/83 59/59/59
f 84/84/84 85/85/85 62/62/62
f 86/86/86 64/64/64 85/85/85
f 87/87/87 65/65/65 64/64/64
f 88/88/88 89/89/89 68/68/68
f 89/89/89 71/71/71 68/68/68
f 71/71/71 90/90/90 91/91/91
f 92/92/92 93/93/93 73/73/73
f 94/94/94 75/75/75 93/93/93
f 75/75/75 95/95/95 76/76/76
f 78/78/78 80/80/80 81/81/81
f 96/96/96 82/82/82 80/80/80
f 97/97/97 98/98/98 82/82/82
f 99/99/99 86/86/86 84/84/84
f 86/86/86 100/100/100 87/87/87
f 100/100/100 101/101/101 87/87/87
f 102/102/102 89/89/89 103/103/103
f 104/104/104 105/105/105 89/89/89
f 105/105/105 106/106/106 90/90/90
f 107/107/107 94/94/94 92/92/92
f 108/108/108 109/109/109 94/94/94
f 110/110/110 95/95/95 109/109/109
f 111/111/111 96/96/96 80/80/80
f 112/112/112 113/113/113 114/114/114
f 115/115/115 116/116/116 99/99/99
f 99/99/99 117/117/117 118/118/118
f 118/118/118 119/119/119 100/100/100
f 120/120/120 121/121/121 122/122/122
f 121/121/121 123/123/123 122/122/122
f 124/124/124 125/125/125 123/123/123
f 126/126/126 127/127/127 107/107/107
f 107/107/107 128/128/128 108/108/108
f 128/128/128 110/110/110 108/108/108
f 129/129/129 130/130/130 131/131/131
f 132/132/132 114/114/114 130/130/130
f 133/133/133 134/134/134 112/112/112
f 135/135/135 136/136/136 116/116/116
f 136/136/136 117/117/117 116/116/116
f 117/117/117 137/137/137 119/119/119
f 138/138/138 121/121/121 139/139/139
f 140/140/140 124/124/124 121/121/121
f 141/141/141 142/142/142 124/124/124
f 143/143/143 127/127/127 144/144/144
f 145/145/145 128/128/128 127/127/127
f 146/146/146 147/147/147 128/128/128
f 129/129/129 148/148/148 132/132/132
f 148/148/148 112/112/112 132/132/132
f 149/149/149 150/150/150 133/133/133
f 151/151/151 136/136/136 152/152/152
f 136/136/136 153/153/153 154/154/154
f 153/153/153 137/137/137 154/154/154
f 138/138/138 155/155/155 140/140/140
f 155/155/155 141/141/141 140/140/140
f 141/141/141 156/156/156 157/157/157
f 158/158/158 145/145/145 143/143/143
f 159/159/159 146/146/146 145/145/145
f 146/146/146 160/160/160 161/161/161
f 162/162/162 163/163/163 148/148/148
f 148/148/148 149/149/149 133/133/133
f 164/164/164 165/165/165 166/166/166
f 167/167/167 168/168/168 151/151/151
f 168/168/168 169/169/169 153/153/153
f 153/153/153 170/170/170 171/171/171
f 172/172/172 173/173/173 174/174/174
f 175/175/175 176/176/176 173/173/173
f 177/177/177 178/178/178 176/176/176
f 179/179/179 159/159/159 158/158/158
f 180/180/180 181/181/181 159/159/159
f 182/182/182 160/160/160 181/181/181
f 183/183/183 184/184/184 185/185/185
f 186/186/186 166/166/166 184/184/184
f 187/187/187 188/188/188 164/164/164
f 189/189/189 190/190/190 167/167/167
f 191/191/191 169/169/169 190/190/190
f 192/192/192 170/170/170 169/169/169
f 172/172/172 193/193/193 175/175/175
f 193/193/193 177/177/177 175/175/175
f 194/194/194 195/195/195 177/177/177
f 179/179/179 196/196/196 180/180/180
f 180/180/180 197/197/197 182/182/182
f 197/197/197 198/198/198 182/182/182
f 183/183/183 199/199/199 186/186/186
f 186/186/186 187/187/187 164/164/164
f 200/200/200 201/201/201 187/187/187
f 189/189/189 8/8/8 191/191/191
f 8/8/8 192/192/192 191/191/191
f 7/7/7 202/202/202 192/192/192
f 203/203/203 193/193/193 204/204/204
f 205/205/205 194/194/194 193/193/193
f 206/206/206 207/207/207 194/194/194
f 208/208/208 196/196/196 209/209/209
f 20/20/20 197/197/197 196/196/196
f 197/197/197 23/23/23 210/210/210
f 211/211/211 199/199/199 212/212/212
f 213/213/213 187/187/187 199/199/199
f 1/1/1 4/4/4 2/2/2
f 4/4/4 30/30/30 5/5/5
f 6/6/6 9/9/9 7/7/7
f 9/9/9 11/11/11 10/10/10
f 11/11/11 34/34/34 12/12/12
f 13/13/13 16/16/16 14/14/14
f 16/16/16 18/18/18 17/17/17
f 18/18/18 38/38/38 19/19/19
f 20/20/20 40/40/40 21/21/21
f 21/21/21 24/24/24 23/23/23
f 24/24/24 43/43/43 25/25/25
f 26/26/26 1/1/1 3/3/3
f 28/28/28 29/29/29 4/4/4
f 29/29/29 47/47/47 30/30/30
f 31/31/31 32/32/32 9/9/9
f 32/32/32 33/33/33 11/11/11
f 33/33/33 50/50/50 34/34/34
f 35/35/35 36/36/36 16/16/16
f 36/36/36 37/37/37 18/18/18
f 37/37/37 54/54/54 38/38/38
f 39/39/39 41/41/41 21/21/21
f 41/41/41 42/42/42 24/24/24
f 42/42/42 57/57/57 43/43/43
f 44/44/44 28/28/28 1/1/1
f 45/45/45 46/46/46 29/29/29
f 46/46/46 214/214/214 47/47/47
f 31/31/31 63/63/63 48/48/48
f 48/48/48 49/49/49 33/33/33
f 49/49/49 66/66/66 50/50/50
f 51/51/51 52/52/52 36/36/36
f 52/52/52 53/53/53 37/37/37
f 53/53/53 215/215/215 54/54/54
f 39/39/39 74/74/74 55/55/55
f 55/55/55 56/56/56 42/42/42
f 56/56/56 77/77/77 57/57/57
f 44/44/44 216/216/216 45/45/45
f 58/58/58 81/81/81 59/59/59
f 59/59/59 83/83/83 61/61/61
f 62/62/62 85/85/85 48/48/48
f 48/48/48 85/85/85 64/64/64
f 49/49/49 64/64/64 65/65/65
f 67/67/67 88/88/88 68/68/68
f 68/68/68 71/71/71 70/70/70
f 71/71/71 91/91/91 72/72/72
f 73/73/73 93/93/93 55/55/55
f 55/55/55 93/93/93 75/75/75
f 56/56/56 75/75/75 76/76/76
f 78/78/78 81/81/81 58/58/58
f 80/80/80 82/82/82 59/59/59
f 82/82/82 98/98/98 83/83/83
f 84/84/84 86/86/86 85/85/85
f 86/86/86 87/87/87 64/64/64
f 87/87/87 101/101/101 65/65/65
f 88/88/88 103/103/103 89/89/89
f 89/89/89 105/105/105 71/71/71
f 71/71/71 105/105/105 90/90/90
f 92/92/92 94/94/94 93/93/93
f 94/94/94 109/109/109 75/75/75
f 75/75/75 109/109/109 95/95/95
f 78/78/78 111/111/111 80/80/80
f 96/96/96 97/97/97 82/82/82
f 97/97/97 217/217/217 98/98/98
f 99/99/99 118/118/118 86/86/86
f 86/86/86 118/118/118 100/100/100
f 100/100/100 218/218/218 101/101/101
f 102/102/102 104/104/104 89/89/89
f 104/104/104 219/219/219 105/105/105
f 105/105/105 219/219/219 106/106/106
f 107/107/107 108/108/108 94/94/94
f 108/108/108 110/110/110 109/109/109
f 110/110/110 220/220/220 95/95/95
f 111/111/111 221/221/221 96/96/96
f 112/112/112 134/134/134 113/113/113
f 115/115/115 135/135/135 116/116/116
f 99/99/99 116/116/116 117/117/117
f 118/118/118 117/117/117 119/119/119
f 120/120/120 139/139/139 121/121/121
f 121/121/121 124/124/124 123/123/123
f 124/124/124 142/142/142 125/125/125
f 126/126/126 144/144/144 127/127/127
f 107/107/107 127/127/127 128/128/128
f 128/128/128 147/147/147 110/110/110
f 129/129/129 132/132/132 130/130/130
f 132/132/132 112/112/112 114/114/114
f 133/133/133 150/150/150 134/134/134
f 135/135/135 152/152/152 136/136/136
f 136/136/136 154/154/154 117/117/117
f 117/117/117 154/154/154 137/137/137
f 138/138/138 140/140/140 121/121/121
f 140/140/140 141/141/141 124/124/124
f 141/141/141 157/157/157 142/142/142
f 143/143/143 145/145/145 127/127/127
f 145/145/145 146/146/146 128/128/128
f 146/146/146 161/161/161 147/147/147
f 129/129/129 162/162/162 148/148/148
f 148/148/148 133/133/133 112/112/112
f 149/149/149 222/222/222 150/150/150
f 151/151/151 168/168/168 136/136/136
f 136/136/136 168/168/168 153/153/153
f 153/153/153 171/171/171 137/137/137
f 138/138/138 223/223/223 155/155/155
f 155/155/155 224/224/224 141/141/141
f 141/141/141 224/224/224 156/156/156
f 158/158/158 159/159/159 145/145/145
f 159/159/159 181/181/181 146/146/146
f 146/146/146 181/181/181 160/160/160
f 162/162/162 225/225/225 163/163/163
f 148/148/148 163/163/163 149/149/149
f 164/164/164 188/188/188 165/165/165
f 167/167/167 190/190/190 168/168/168
f 168/168/168 190/190/190 169/169/169
f 153/153/153 169/169/169 170/170/170
f 172/172/172 175/175/175 173/173/173
f 175/175/175 177/177/177 176/176/176
f 177/177/177 195/195/195 178/178/178
f 179/179/179 180/180/180 159/159/159
f 180/180/180 182/182/182 181/181/181
f 182/182/182 198/198/198 160/160/160
f 183/183/183 186/186/186 184/184/184
f 186/186/186 164/164/164 166/166/166
f 187/187/187 201/201/201 188/188/188
f 189/189/189 191/191/191 190/190/190
f 191/191/191 192/192/192 169/169/169
f 192/192/192 202/202/202 170/170/170
f 172/172/172 204/204/204 193/193/193
f 193/193/193 194/194/194 177/177/177
f 194/194/194 207/207/207 195/195/195
f 179/179/179 209/209/209 196/196/196
f 180/180/180 196/196/196 197/197/197
f 197/197/197 210/210/210 198/198/198
f 183/183/183 212/212/212 199/199/199
f 186/186/186 199/199/199 187/187/187
f 200/200/200 226/226/226 201/201/201
f 189/189/189 227/227/227 8/8/8
f 8/8/8 7/7/7 192/192/192
f 7/7/7 10/10/10 202/202/202
f 203/203/203 205/205/205 193/193/193
f 205/205/205 206/206/206 194/194/194
f 206/206/206 228/228/228 207/207/207
f 208/208/208 20/20/20 196/196/196
f 20/20/20 22/22/22 197/197/197
f 197/197/197 22/22/22 23/23/23
f 211/211/211 213/213/213 199/199/199
f 213/213/213 200/200/200 187/187/187
