# Cube -- imported by tools/import_asset_pack.py from Column.fbx
o __pending__
v -0.235702 -1.740542 0.235702
v -0.434000 -1.658821 0.000000
v -0.306885 -1.658821 0.306885
v 0.235702 1.740542 -0.235702
v 0.000000 1.658296 -0.410401
v 0.290197 1.658296 -0.290198
v 0.235702 1.740542 0.235702
v 0.000000 1.658821 0.434000
v 0.000000 1.740542 0.333333
v -0.333333 1.740542 -0.000000
v -0.290197 1.658296 -0.290198
v -0.235702 1.740542 -0.235702
v 0.333333 -1.740542 0.000000
v 0.290197 -1.671160 -0.290197
v 0.235702 -1.740542 -0.235702
v 0.000000 -1.658821 0.434001
v 0.000000 -1.740542 0.333333
v -0.235702 -1.740542 -0.235702
v -0.000000 -1.671160 -0.410401
v -0.290197 -1.671160 -0.290197
v 0.333333 1.740542 -0.000000
v 0.306885 1.658821 0.306884
v -0.235702 1.740542 0.235702
v -0.434000 1.658821 -0.000000
v 0.235702 0.000000 0.235702
v 0.250560 -0.870271 0.271573
v 0.235702 -0.870271 0.235702
v -0.333333 0.870271 -0.000000
v -0.369203 1.740542 0.014858
v -0.333333 1.740542 -0.000000
v 0.000000 0.870271 -0.333333
v -0.014858 1.740542 -0.369204
v 0.000000 1.740542 -0.333333
v 0.000000 1.740542 -0.333333
v -0.250560 1.740542 -0.271573
v -0.235702 1.740542 -0.235702
v 0.000000 -1.740542 -0.333333
v -0.333333 -0.870271 0.000000
v -0.235702 -1.740542 -0.235702
v -0.333333 -1.740542 0.000000
v -0.333333 0.000000 -0.000000
v -0.235702 -0.870271 -0.235702
v -0.235702 -0.000000 -0.235702
v -0.235702 0.870271 -0.235702
v 0.306885 -1.658821 0.306885
v 0.235702 -1.740542 0.235702
v 0.235702 0.870271 0.235702
v 0.250560 0.000000 0.271572
v 0.000000 -0.000000 -0.333333
v -0.014858 0.870271 -0.369203
v 0.235702 -1.740542 -0.235702
v 0.369203 -1.740542 -0.014858
v 0.333333 -1.740542 0.000000
v 0.235702 1.740542 0.235702
v 0.250560 0.870271 0.271572
v -0.333333 -1.740542 0.000000
v 0.000000 -0.870271 0.333333
v -0.235702 -1.740542 0.235702
v 0.000000 -1.740542 0.333333
v 0.000000 0.000000 0.333333
v -0.235702 -0.870271 0.235702
v 0.000000 0.870271 0.333333
v -0.235702 0.000000 0.235702
v 0.000000 1.740542 0.333333
v -0.235702 0.870271 0.235702
v 0.333333 1.740542 -0.000000
v 0.290197 1.658296 -0.290198
v 0.434000 1.658821 -0.000000
v -0.271572 -1.740542 0.250560
v 0.000000 -0.870271 -0.333333
v -0.014858 -0.000000 -0.369203
v -0.271572 -0.870271 0.250560
v 0.000000 -1.740542 -0.333333
v -0.014858 -0.870271 -0.369203
v -0.306885 1.658821 0.306884
v 0.333333 -0.870271 0.000000
v 0.235702 -1.740542 0.235702
v 0.333333 -1.740542 0.000000
v 0.333333 0.000000 -0.000000
v 0.235702 -0.870271 0.235702
v 0.333333 0.870271 -0.000000
v 0.235702 0.000000 0.235702
v 0.333333 1.740542 -0.000000
v 0.235702 0.870271 0.235702
v -0.235702 1.740542 -0.235702
v 0.000000 1.658296 -0.410401
v 0.000000 1.740542 -0.333333
v 0.369203 -0.870271 -0.014858
v -0.333333 1.740542 -0.000000
v -0.271572 1.740542 0.250560
v -0.235702 1.740542 0.235702
v -0.271572 0.000000 0.250560
v -0.235702 -1.740542 -0.235702
v -0.014858 -1.740542 -0.369203
v 0.000000 -1.740542 -0.333333
v 0.434000 -1.658821 0.000000
v 0.235702 -0.870271 -0.235702
v 0.235702 -1.740542 -0.235702
v 0.235702 -0.000000 -0.235702
v 0.235702 0.870271 -0.235702
v 0.235702 1.740542 -0.235702
v 0.000000 1.658296 -0.410401
v 0.306885 2.083129 -0.306885
v 0.290197 1.658296 -0.290198
v 0.434000 2.083129 -0.000000
v 0.434000 1.658821 -0.000000
v 0.434000 2.083129 -0.000000
v 0.306885 1.658821 0.306884
v 0.434000 1.658821 -0.000000
v 0.306885 2.083129 0.306884
v 0.000000 1.658821 0.434000
v 0.000000 2.083129 0.434000
v -0.306885 1.658821 0.306884
v 0.000000 1.658821 0.434000
v -0.306885 2.083129 0.306884
v -0.434000 1.658821 -0.000000
v 0.434000 2.083129 -0.000000
v 0.000000 2.083129 -0.434001
v -0.434000 2.083129 -0.000000
v -0.434000 2.083129 -0.000000
v -0.290197 1.658296 -0.290198
v -0.434000 1.658821 -0.000000
v -0.306885 2.083129 -0.306885
v 0.000000 1.658296 -0.410401
v -0.434000 -2.083129 0.000000
v -0.306885 -2.083129 -0.306884
v 0.306885 -2.083129 0.306885
v -0.290197 -1.671160 -0.290197
v 0.000000 -2.083129 -0.434000
v -0.306885 -2.083129 -0.306884
v -0.434000 -2.083129 0.000000
v -0.306885 -1.658821 0.306885
v -0.434000 -2.083129 0.000000
v -0.306885 -2.083129 0.306885
v 0.000000 -1.658821 0.434001
v -0.306885 -2.083129 0.306885
v 0.000000 -2.083129 0.434001
v 0.306885 -1.658821 0.306885
v 0.306885 -2.083129 0.306885
v 0.434000 -1.658821 0.000000
v 0.434000 -2.083129 0.000000
v 0.290197 -1.671160 -0.290197
v 0.434000 -2.083129 0.000000
v 0.306885 -2.083129 -0.306884
v -0.000000 -1.671160 -0.410401
v 0.000000 -2.083129 -0.434000
v -0.250560 -0.870271 -0.271572
v -0.014858 -1.740542 -0.369203
v -0.250560 -1.740542 -0.271572
v -0.250560 -0.000000 -0.271572
v -0.014858 -0.870271 -0.369203
v -0.250560 0.870271 -0.271573
v -0.014858 -0.000000 -0.369203
v -0.250560 1.740542 -0.271573
v -0.014858 0.870271 -0.369203
v -0.271572 -0.870271 0.250560
v -0.369203 -1.740542 0.014858
v -0.271572 -1.740542 0.250560
v -0.271572 0.000000 0.250560
v -0.369203 -0.870271 0.014858
v -0.271572 0.870271 0.250560
v -0.369203 0.000000 0.014858
v -0.271572 1.740542 0.250560
v -0.369203 0.870271 0.014858
v 0.250560 -0.870271 0.271573
v 0.014858 -1.740542 0.369204
v 0.250560 -1.740542 0.271573
v 0.250560 0.000000 0.271572
v 0.014858 -0.870271 0.369203
v 0.250560 0.870271 0.271572
v 0.014858 0.000000 0.369203
v 0.250560 1.740542 0.271572
v 0.014858 0.870271 0.369203
v 0.271572 -0.870271 -0.250560
v 0.369203 -1.740542 -0.014858
v 0.271572 -1.740542 -0.250560
v 0.271572 -0.000000 -0.250560
v 0.369203 -0.870271 -0.014858
v 0.271572 0.870271 -0.250560
v 0.369203 0.000000 -0.014858
v 0.271572 1.740542 -0.250560
v 0.369203 0.870271 -0.014858
v -0.369203 0.870271 0.014858
v 0.250560 -1.740542 0.271573
v 0.235702 -1.740542 0.235702
v 0.235702 1.740542 -0.235702
v 0.271572 0.870271 -0.250560
v 0.235702 0.870271 -0.235702
v -0.369203 0.000000 0.014858
v 0.235702 -1.740542 0.235702
v 0.014858 -1.740542 0.369204
v 0.000000 -1.740542 0.333333
v 0.333333 1.740542 -0.000000
v 0.271572 1.740542 -0.250560
v 0.235702 1.740542 -0.235702
v 0.271572 -0.000000 -0.250560
v 0.235702 -0.000000 -0.235702
v -0.369203 -0.870271 0.014858
v 0.000000 0.870271 0.333333
v 0.014858 1.740542 0.369203
v 0.000000 1.740542 0.333333
v 0.271572 -0.870271 -0.250560
v 0.235702 -0.870271 -0.235702
v 0.000000 0.000000 0.333333
v 0.014858 0.870271 0.369203
v 0.271572 -1.740542 -0.250560
v 0.235702 -1.740542 -0.235702
v -0.235702 1.740542 -0.235702
v -0.250560 0.870271 -0.271573
v -0.235702 0.870271 -0.235702
v 0.000000 -0.870271 0.333333
v 0.014858 0.000000 0.369203
v -0.235702 -1.740542 0.235702
v -0.369203 -1.740542 0.014858
v -0.333333 -1.740542 0.000000
v -0.250560 -0.000000 -0.271572
v -0.235702 -0.000000 -0.235702
v 0.000000 1.740542 0.333333
v 0.250560 1.740542 0.271572
v 0.235702 1.740542 0.235702
v 0.000000 -1.740542 0.333333
v 0.014858 -0.870271 0.369203
v 0.369203 1.740542 -0.014858
v -0.250560 -0.870271 -0.271572
v -0.235702 -0.870271 -0.235702
v 0.369203 0.870271 -0.014858
v -0.250560 -1.740542 -0.271572
v -0.235702 -1.740542 -0.235702
v -0.235702 1.740542 0.235702
v -0.271572 0.870271 0.250560
v 0.369203 0.000000 -0.014858
v 0.000000 1.740542 -0.333333
v 0.434000 1.658821 -0.000000
v -0.014858 1.740542 -0.369204
v -0.235702 1.740542 -0.235702
v 0.271572 -1.740542 -0.250560
v 0.250560 1.740542 0.271572
v 0.235702 1.740542 -0.235702
v -0.014858 -1.740542 -0.369203
v 0.235702 1.740542 0.235702
v -0.290197 1.658296 -0.290198
v 0.369203 -1.740542 -0.014858
v -0.369203 1.740542 0.014858
v -0.250560 -1.740542 -0.271572
v 0.000000 2.083129 -0.434001
v 0.000000 2.083129 0.434000
v -0.434000 2.083129 -0.000000
v 0.306885 2.083129 -0.306885
v -0.306885 2.083129 -0.306885
v -0.306885 2.083129 0.306884
v 0.000000 2.083129 0.434000
v 0.306885 2.083129 0.306884
v 0.000000 2.083129 -0.434001
v 0.000000 -2.083129 -0.434000
v 0.306885 -2.083129 -0.306884
v 0.434000 -2.083129 0.000000
v 0.000000 -2.083129 0.434001
v -0.306885 -2.083129 0.306885
v -0.000000 -1.671160 -0.410401
v -0.434000 -1.658821 0.000000
v -0.434000 -1.658821 0.000000
v -0.306885 -1.658821 0.306885
v 0.434000 -1.658821 0.000000
v -0.014858 1.740542 -0.369204
v -0.369203 1.740542 0.014858
v 0.014858 1.740542 0.369203
v 0.369203 1.740542 -0.014858
v 0.271572 1.740542 -0.250560
v 0.250560 -1.740542 0.271573
v 0.369203 1.740542 -0.014858
v -0.369203 -1.740542 0.014858
v -0.250560 1.740542 -0.271573
v -0.271572 -1.740542 0.250560
v 0.014858 1.740542 0.369203
v 0.014858 -1.740542 0.369204
v -0.271572 1.740542 0.250560
vt 0.646663 0.442308
vt 0.682348 0.373541
vt 0.623271 0.432618
vt 0.936150 0.147339
vt 0.918241 0.075752
vt 0.918241 0.154757
vt 0.696853 0.340754
vt 0.765202 0.304276
vt 0.741699 0.294858
vt 0.695060 0.185848
vt 0.623271 0.168769
vt 0.630896 0.186590
vt 0.756206 0.551851
vt 0.819489 0.513895
vt 0.801580 0.506477
vt 0.623271 0.516166
vt 0.646663 0.506477
vt 0.756206 0.396934
vt 0.819489 0.434890
vt 0.763624 0.379025
vt 0.632689 0.341497
vt 0.706813 0.364033
vt 0.740956 0.230693
vt 0.704478 0.162344
vt 0.604965 0.557945
vt 0.614730 0.339053
vt 0.604965 0.339053
vt 0.368770 0.776838
vt 0.359004 0.995730
vt 0.368770 0.995730
vt 0.304873 0.776838
vt 0.295108 0.995730
vt 0.304873 0.995730
vt 0.935368 0.628948
vt 0.925603 0.693117
vt 0.935368 0.693117
vt 0.801580 0.442308
vt 0.368770 0.339053
vt 0.414144 0.120156
vt 0.368770 0.120161
vt 0.368770 0.557945
vt 0.414144 0.339048
vt 0.414144 0.557940
vt 0.414144 0.776832
vt 0.682348 0.575243
vt 0.692038 0.551851
vt 0.604965 0.776838
vt 0.614730 0.557945
vt 0.304873 0.557945
vt 0.295108 0.776838
vt 0.014036 0.047452
vt 0.004270 0.111620
vt 0.014036 0.111620
vt 0.604965 0.995730
vt 0.614730 0.776838
vt 0.692038 0.396934
vt 0.486365 0.339053
vt 0.531739 0.120161
vt 0.486365 0.120161
vt 0.486365 0.557945
vt 0.531739 0.339053
vt 0.486365 0.776838
vt 0.531739 0.557945
vt 0.486365 0.995730
vt 0.531739 0.776838
vt 0.909700 0.145068
vt 0.889013 0.073481
vt 0.889145 0.154757
vt 0.541505 0.120161
vt 0.304873 0.339053
vt 0.295108 0.557945
vt 0.541505 0.339053
vt 0.304873 0.120161
vt 0.295108 0.339053
vt 0.764235 0.220734
vt 0.432450 0.339053
vt 0.477825 0.120161
vt 0.432450 0.120161
vt 0.432450 0.557945
vt 0.477825 0.339053
vt 0.432450 0.776838
vt 0.477825 0.557945
vt 0.432450 0.995730
vt 0.477825 0.776838
vt 0.759221 0.082217
vt 0.738534 0.153804
vt 0.759221 0.146385
vt 0.422685 0.339053
vt 0.050649 0.047452
vt 0.040883 0.111620
vt 0.050649 0.111620
vt 0.541505 0.557945
vt 0.077496 0.111620
vt 0.087261 0.047452
vt 0.077496 0.047452
vt 0.765896 0.575243
vt 0.350464 0.339052
vt 0.350464 0.120160
vt 0.350464 0.557944
vt 0.350464 0.776836
vt 0.350464 0.995728
vt 0.828032 0.569770
vt 0.934885 0.515884
vt 0.828030 0.513639
vt 0.934885 0.432337
vt 0.828162 0.432337
vt 0.623271 0.011178
vt 0.729994 0.070256
vt 0.729994 0.011178
vt 0.623271 0.070256
vt 0.729994 0.153804
vt 0.889007 0.222375
vt 0.995730 0.281452
vt 0.995730 0.222375
vt 0.889007 0.281452
vt 0.995730 0.365000
vt 0.765896 0.995730
vt 0.824973 0.853105
vt 0.682348 0.794027
vt 0.940375 0.844283
vt 0.833514 0.782934
vt 0.833652 0.844283
vt 0.940368 0.785206
vt 0.833514 0.703929
vt 0.765896 0.785486
vt 0.824973 0.726409
vt 0.623271 0.642861
vt 0.776853 0.073481
vt 0.880473 0.154757
vt 0.880473 0.071209
vt 0.880466 0.012132
vt 0.833514 0.693117
vt 0.917062 0.586394
vt 0.833514 0.586394
vt 0.773743 0.305923
vt 0.880466 0.365000
vt 0.880466 0.305923
vt 0.773743 0.222375
vt 0.880466 0.222375
vt 0.773743 0.163298
vt 0.880466 0.163298
vt 0.937133 0.934125
vt 0.833514 0.852824
vt 0.833514 0.936370
vt 0.937135 0.990257
vt 0.833516 0.995730
vt 0.004270 0.339053
vt 0.068439 0.120161
vt 0.004270 0.120161
vt 0.004270 0.557945
vt 0.068439 0.339053
vt 0.004270 0.776838
vt 0.068439 0.557945
vt 0.004270 0.995730
vt 0.068439 0.776838
vt 0.076980 0.339053
vt 0.141149 0.120161
vt 0.076980 0.120161
vt 0.076980 0.557945
vt 0.141149 0.339053
vt 0.076980 0.776838
vt 0.141149 0.557945
vt 0.076980 0.995730
vt 0.141149 0.776838
vt 0.149689 0.339053
vt 0.213858 0.120161
vt 0.149689 0.120161
vt 0.149689 0.557945
vt 0.213858 0.339053
vt 0.149689 0.776838
vt 0.213858 0.557945
vt 0.149689 0.995730
vt 0.213858 0.776838
vt 0.222399 0.339053
vt 0.286567 0.120161
vt 0.222399 0.120161
vt 0.222399 0.557945
vt 0.286567 0.339053
vt 0.222399 0.776838
vt 0.286567 0.557945
vt 0.222399 0.995730
vt 0.286567 0.776838
vt 0.359004 0.776838
vt 0.614730 0.120161
vt 0.604965 0.120161
vt 0.568352 0.995730
vt 0.578117 0.776838
vt 0.568352 0.776838
vt 0.359004 0.557945
vt 0.105567 0.047452
vt 0.095802 0.111620
vt 0.105567 0.111620
vt 0.059189 0.111620
vt 0.068955 0.047452
vt 0.059189 0.047452
vt 0.578117 0.557946
vt 0.568352 0.557946
vt 0.359004 0.339053
vt 0.559811 0.776838
vt 0.550046 0.995730
vt 0.559811 0.995730
vt 0.578117 0.339053
vt 0.568352 0.339053
vt 0.559811 0.557945
vt 0.550046 0.776838
vt 0.578117 0.120161
vt 0.568352 0.120161
vt 0.586658 0.995730
vt 0.596424 0.776838
vt 0.586658 0.776838
vt 0.559811 0.339053
vt 0.550046 0.557945
vt 0.114108 0.111620
vt 0.123874 0.047452
vt 0.114108 0.047452
vt 0.596424 0.557945
vt 0.586658 0.557945
vt 0.022577 0.111620
vt 0.032342 0.047452
vt 0.022577 0.047452
vt 0.559811 0.120161
vt 0.550046 0.339053
vt 0.422685 0.995730
vt 0.596424 0.339053
vt 0.586658 0.339053
vt 0.422685 0.776838
vt 0.596424 0.120161
vt 0.586658 0.120161
vt 0.531739 0.995730
vt 0.541505 0.776838
vt 0.422685 0.557945
vt 0.936150 0.083170
vt 0.623271 0.365000
vt 0.925603 0.628948
vt 0.414144 0.995724
vt 0.004270 0.047452
vt 0.614730 0.995730
vt 0.909700 0.080899
vt 0.295108 0.120161
vt 0.477825 0.995730
vt 0.738534 0.074799
vt 0.422685 0.120161
vt 0.040883 0.047452
vt 0.087261 0.111620
vt 0.934886 0.575243
vt 0.623271 0.153804
vt 0.889007 0.365000
vt 0.824973 0.936652
vt 0.765896 0.794027
vt 0.623271 0.853105
vt 0.623271 0.936652
vt 0.682348 0.995730
vt 0.940368 0.701658
vt 0.824973 0.642861
vt 0.765896 0.583784
vt 0.682348 0.583784
vt 0.623271 0.726409
vt 0.682348 0.785486
vt 0.776853 0.152486
vt 0.773743 0.012132
vt 0.917062 0.693117
vt 0.773743 0.365000
vt 0.940237 0.852824
vt 0.068439 0.995730
vt 0.141149 0.995730
vt 0.213858 0.995730
vt 0.286567 0.995730
vt 0.578117 0.995730
vt 0.095802 0.047452
vt 0.068955 0.111620
vt 0.359004 0.120161
vt 0.596424 0.995730
vt 0.123874 0.111620
vt 0.032342 0.111620
vt 0.550046 0.120161
vt 0.541505 0.995730
vn 0.670014 0.515483 0.534190
vn -0.583165 0.811611 -0.034731
vn -0.409547 0.815202 0.409532
vn -0.797733 -0.366050 -0.479197
vn -0.000000 -0.859570 -0.511018
vn 0.348621 -0.859038 -0.374858
vn 0.534215 -0.515478 -0.669997
vn 0.000006 -0.815211 0.579164
vn -0.851498 -0.515487 -0.096047
vn 0.109278 -0.515627 -0.849816
vn -0.348620 -0.859038 -0.374858
vn -0.479224 -0.366051 0.797716
vn -0.098468 0.504757 0.857627
vn 0.367105 0.840455 -0.398584
vn -0.721280 0.464736 -0.513591
vn -0.000006 0.815211 0.579164
vn -0.851507 0.515478 -0.096013
vn -0.513563 0.464742 0.721296
vn 0.000014 0.841930 -0.539586
vn -0.367111 0.840440 -0.398609
vn -0.102800 -0.485082 0.868405
vn 0.409535 -0.815211 0.409527
vn 0.669999 -0.515477 0.534214
vn -0.588604 -0.808099 -0.022823
vn 1.000000 -0.000000 -0.000007
vn 0.923886 0.000000 0.382669
vn 1.000000 -0.000000 -0.000007
vn -0.707102 -0.000000 -0.707111
vn -0.754345 0.577346 -0.312466
vn 0.109278 -0.515627 -0.849816
vn 0.707111 -0.000000 -0.707102
vn 0.312467 0.577347 -0.754344
vn 0.902927 -0.366060 0.225217
vn 0.902927 -0.366060 0.225217
vn -0.754348 0.577357 -0.312439
vn -0.479224 -0.366051 0.797716
vn 0.873177 0.464741 0.146893
vn -0.707102 -0.000000 -0.707111
vn -0.513563 0.464742 0.721296
vn 0.100604 0.515708 -0.850837
vn -0.707102 -0.000000 -0.707111
vn -1.000000 0.000000 0.000007
vn -1.000000 0.000000 0.000007
vn -1.000000 0.000000 0.000007
vn 0.409527 0.815211 0.409534
vn 0.534185 0.515486 -0.670015
vn 1.000000 -0.000000 -0.000007
vn 0.923886 0.000000 0.382669
vn 0.707111 -0.000000 -0.707102
vn 0.382698 -0.000000 -0.923873
vn -0.721280 0.464736 -0.513591
vn 0.754333 -0.577357 0.312476
vn -0.098468 0.504757 0.857627
vn 0.534215 -0.515478 -0.669997
vn 0.923886 0.000000 0.382669
vn 0.100604 0.515708 -0.850837
vn -0.707111 0.000000 0.707102
vn 0.670014 0.515483 0.534190
vn -0.851507 0.515478 -0.096013
vn -0.707111 0.000000 0.707102
vn 0.000007 0.000000 1.000000
vn -0.707111 0.000000 0.707102
vn 0.000007 0.000000 1.000000
vn -0.851498 -0.515487 -0.096047
vn 0.000007 0.000000 1.000000
vn -0.102800 -0.485082 0.868405
vn 0.348621 -0.859038 -0.374858
vn 0.588601 -0.808102 -0.022829
vn -0.312454 -0.577347 0.754349
vn 0.707111 -0.000000 -0.707102
vn 0.382698 -0.000000 -0.923873
vn -0.382669 0.000000 0.923886
vn 0.873177 0.464741 0.146893
vn 0.382698 -0.000000 -0.923873
vn -0.409526 -0.815211 0.409535
vn 0.707102 0.000000 0.707111
vn 0.534185 0.515486 -0.670015
vn -0.098468 0.504757 0.857627
vn 0.707102 0.000000 0.707111
vn 1.000000 -0.000000 -0.000007
vn 0.707102 0.000000 0.707111
vn 1.000000 -0.000000 -0.000007
vn -0.102800 -0.485082 0.868405
vn 1.000000 -0.000000 -0.000007
vn -0.479224 -0.366051 0.797716
vn -0.000000 -0.859570 -0.511018
vn 0.902927 -0.366060 0.225217
vn 0.923873 0.000000 0.382698
vn 0.109278 -0.515627 -0.849816
vn -0.312439 0.577358 0.754348
vn 0.669999 -0.515477 0.534214
vn -0.382669 0.000000 0.923886
vn -0.513563 0.464742 0.721296
vn 0.312476 -0.577357 -0.754332
vn 0.873177 0.464741 0.146893
vn 0.583182 0.811599 -0.034721
vn -0.000007 -0.000000 -1.000000
vn -0.721280 0.464736 -0.513591
vn -0.000007 -0.000000 -1.000000
vn -0.000007 -0.000000 -1.000000
vn -0.797733 -0.366050 -0.479197
vn -0.000000 -0.859570 -0.511018
vn 0.560690 0.609303 -0.560693
vn 0.348621 -0.859038 -0.374858
vn 0.780693 0.624821 -0.010863
vn 0.588601 -0.808102 -0.022829
vn 0.780693 0.624821 -0.010863
vn 0.409535 -0.815211 0.409527
vn 0.588601 -0.808102 -0.022829
vn 0.548988 0.630248 0.548998
vn 0.000006 -0.815211 0.579164
vn -0.000006 0.630257 0.776386
vn -0.409526 -0.815211 0.409535
vn 0.000006 -0.815211 0.579164
vn -0.548989 0.630262 0.548981
vn -0.588604 -0.808099 -0.022823
vn 0.780693 0.624821 -0.010863
vn 0.000000 0.609304 -0.792937
vn -0.780680 0.624836 -0.010870
vn -0.780680 0.624836 -0.010870
vn -0.348620 -0.859038 -0.374858
vn -0.588604 -0.808099 -0.022823
vn -0.560690 0.609303 -0.560693
vn -0.000000 -0.859570 -0.511018
vn -0.780721 -0.624781 -0.011113
vn -0.561055 -0.608634 -0.561054
vn 0.549007 -0.630232 0.548998
vn -0.367111 0.840440 -0.398609
vn -0.000004 -0.608647 -0.793441
vn -0.561055 -0.608634 -0.561054
vn -0.780721 -0.624781 -0.011113
vn -0.409547 0.815202 0.409532
vn -0.780721 -0.624781 -0.011113
vn -0.548984 -0.630257 0.548993
vn -0.000006 0.815211 0.579164
vn -0.548984 -0.630257 0.548993
vn 0.000006 -0.630248 0.776394
vn 0.409527 0.815211 0.409534
vn 0.549007 -0.630232 0.548998
vn 0.583182 0.811599 -0.034721
vn 0.780715 -0.624788 -0.011119
vn 0.367105 0.840455 -0.398584
vn 0.780715 -0.624788 -0.011119
vn 0.561040 -0.608657 -0.561045
vn 0.000014 0.841930 -0.539586
vn -0.000004 -0.608647 -0.793441
vn -0.923886 -0.000000 -0.382669
vn 0.312476 -0.577357 -0.754332
vn -0.754349 -0.577347 -0.312454
vn -0.923886 -0.000000 -0.382669
vn 0.382698 -0.000000 -0.923873
vn -0.923886 -0.000000 -0.382669
vn 0.382698 -0.000000 -0.923873
vn -0.754348 0.577357 -0.312439
vn 0.382698 -0.000000 -0.923873
vn -0.382669 0.000000 0.923886
vn -0.754333 -0.577357 -0.312475
vn -0.312454 -0.577347 0.754349
vn -0.382669 0.000000 0.923886
vn -0.923873 -0.000000 -0.382698
vn -0.382669 0.000000 0.923886
vn -0.923873 -0.000000 -0.382698
vn -0.312439 0.577358 0.754348
vn -0.923873 -0.000000 -0.382698
vn 0.923886 0.000000 0.382669
vn -0.312476 -0.577357 0.754332
vn 0.754349 -0.577347 0.312455
vn 0.923886 0.000000 0.382669
vn -0.382698 0.000000 0.923873
vn 0.923886 0.000000 0.382669
vn -0.382698 0.000000 0.923873
vn 0.754348 0.577357 0.312439
vn -0.382698 0.000000 0.923873
vn 0.382669 -0.000000 -0.923886
vn 0.754333 -0.577357 0.312476
vn 0.312454 -0.577347 -0.754349
vn 0.382669 -0.000000 -0.923886
vn 0.923873 0.000000 0.382698
vn 0.382669 -0.000000 -0.923886
vn 0.923873 0.000000 0.382698
vn 0.312439 0.577357 -0.754348
vn 0.923873 0.000000 0.382698
vn -0.923873 -0.000000 -0.382698
vn 0.754349 -0.577347 0.312455
vn 0.534185 0.515486 -0.670015
vn -0.797733 -0.366050 -0.479197
vn 0.382669 -0.000000 -0.923886
vn -0.000007 -0.000000 -1.000000
vn -0.923873 -0.000000 -0.382698
vn 0.534185 0.515486 -0.670015
vn -0.312476 -0.577357 0.754332
vn -0.851507 0.515478 -0.096013
vn -0.102800 -0.485082 0.868405
vn 0.312439 0.577357 -0.754348
vn -0.797733 -0.366050 -0.479197
vn 0.382669 -0.000000 -0.923886
vn -0.000007 -0.000000 -1.000000
vn -0.923873 -0.000000 -0.382698
vn -0.707111 0.000000 0.707102
vn -0.312467 0.577347 0.754344
vn -0.851498 -0.515487 -0.096047
vn 0.382669 -0.000000 -0.923886
vn -0.000007 -0.000000 -1.000000
vn -0.707111 0.000000 0.707102
vn -0.382698 0.000000 0.923873
vn 0.312454 -0.577347 -0.754349
vn -0.721280 0.464736 -0.513591
vn -0.479224 -0.366051 0.797716
vn -0.923886 -0.000000 -0.382669
vn -1.000000 0.000000 0.000007
vn -0.707111 0.000000 0.707102
vn -0.382698 0.000000 0.923873
vn 0.670014 0.515483 0.534190
vn -0.754333 -0.577357 -0.312475
vn 0.100604 0.515708 -0.850837
vn -0.923886 -0.000000 -0.382669
vn -1.000000 0.000000 0.000007
vn -0.851498 -0.515487 -0.096047
vn 0.754348 0.577357 0.312439
vn 0.534215 -0.515478 -0.669997
vn -0.851507 0.515478 -0.096013
vn -0.382698 0.000000 0.923873
vn 0.754345 0.577346 0.312466
vn -0.923886 -0.000000 -0.382669
vn -1.000000 0.000000 0.000007
vn 0.923873 0.000000 0.382698
vn -0.754349 -0.577347 -0.312454
vn -0.513563 0.464742 0.721296
vn 0.669999 -0.515477 0.534214
vn -0.382669 0.000000 0.923886
vn 0.923873 0.000000 0.382698
vn 0.902927 -0.366060 0.225217
vn 0.588601 -0.808102 -0.022829
vn 0.312467 0.577347 -0.754344
vn -0.479224 -0.366051 0.797716
vn 0.312454 -0.577347 -0.754349
vn 0.754348 0.577357 0.312439
vn -0.797733 -0.366050 -0.479197
vn 0.312476 -0.577357 -0.754332
vn 0.534215 -0.515478 -0.669997
vn -0.348620 -0.859038 -0.374858
vn 0.754333 -0.577357 0.312476
vn -0.754345 0.577346 -0.312466
vn -0.754349 -0.577347 -0.312454
vn 0.000000 0.609304 -0.792937
vn -0.000006 0.630257 0.776386
vn -0.780680 0.624836 -0.010870
vn 0.560690 0.609303 -0.560693
vn -0.560690 0.609303 -0.560693
vn -0.548989 0.630262 0.548981
vn -0.000006 0.630257 0.776386
vn 0.548988 0.630248 0.548998
vn 0.000000 0.609304 -0.792937
vn -0.000004 -0.608647 -0.793441
vn 0.561040 -0.608657 -0.561045
vn 0.780715 -0.624788 -0.011119
vn 0.000006 -0.630248 0.776394
vn -0.548984 -0.630257 0.548993
vn 0.000014 0.841930 -0.539586
vn -0.583165 0.811611 -0.034731
vn -0.583165 0.811611 -0.034731
vn -0.409547 0.815202 0.409532
vn 0.583182 0.811599 -0.034721
vn 0.312467 0.577347 -0.754344
vn -0.754345 0.577346 -0.312466
vn -0.312467 0.577347 0.754344
vn 0.754345 0.577346 0.312466
vn 0.312439 0.577357 -0.754348
vn 0.754349 -0.577347 0.312455
vn 0.754345 0.577346 0.312466
vn -0.754333 -0.577357 -0.312475
vn -0.754348 0.577357 -0.312439
vn -0.312454 -0.577347 0.754349
vn -0.312467 0.577347 0.754344
vn -0.312476 -0.577357 0.754332
vn -0.312439 0.577358 0.754348
f 1/1/1 2/2/2 3/3/3
f 4/4/4 5/5/5 6/6/6
f 7/7/7 8/8/8 9/9/9
f 10/10/10 11/11/11 12/12/12
f 13/13/13 14/14/14 15/15/15
f 1/1/1 16/16/16 17/17/17
f 18/18/18 19/19/19 20/20/20
f 21/21/21 22/22/22 7/7/7
f 23/23/23 24/24/24 10/10/10
f 25/25/25 26/26/26 27/27/27
f 28/28/28 29/29/29 30/30/30
f 31/31/31 32/32/32 33/33/33
f 34/34/34 35/35/35 36/36/36
f 15/15/15 19/19/19 37/37/37
f 38/38/38 39/39/39 40/40/40
f 41/41/41 42/42/42 38/38/38
f 28/28/28 43/43/43 41/41/41
f 30/30/30 44/44/44 28/28/28
f 17/17/17 45/45/45 46/46/46
f 47/47/47 48/48/48 25/25/25
f 49/49/49 50/50/50 31/31/31
f 51/51/51 52/52/52 53/53/53
f 54/54/54 55/55/55 47/47/47
f 56/56/56 20/20/20 2/2/2
f 57/57/57 58/58/58 59/59/59
f 60/60/60 61/61/61 57/57/57
f 62/62/62 63/63/63 60/60/60
f 64/64/64 65/65/65 62/62/62
f 66/66/66 67/67/67 68/68/68
f 61/61/61 69/69/69 58/58/58
f 70/70/70 71/71/71 49/49/49
f 63/63/63 72/72/72 61/61/61
f 73/73/73 74/74/74 70/70/70
f 9/9/9 75/75/75 23/23/23
f 76/76/76 77/77/77 78/78/78
f 79/79/79 80/80/80 76/76/76
f 81/81/81 82/82/82 79/79/79
f 83/83/83 84/84/84 81/81/81
f 85/85/85 86/86/86 87/87/87
f 78/78/78 88/88/88 76/76/76
f 89/89/89 90/90/90 91/91/91
f 65/65/65 92/92/92 63/63/63
f 93/93/93 94/94/94 95/95/95
f 46/46/46 96/96/96 13/13/13
f 73/73/73 97/97/97 98/98/98
f 70/70/70 99/99/99 97/97/97
f 49/49/49 100/100/100 99/99/99
f 31/31/31 101/101/101 100/100/100
f 102/102/102 103/103/103 104/104/104
f 104/104/104 105/105/105 106/106/106
f 107/107/107 108/108/108 109/109/109
f 110/110/110 111/111/111 108/108/108
f 112/112/112 113/113/113 114/114/114
f 115/115/115 116/116/116 113/113/113
f 117/117/117 118/118/118 119/119/119
f 120/120/120 121/121/121 122/122/122
f 123/123/123 124/124/124 121/121/121
f 125/125/125 126/126/126 127/127/127
f 128/128/128 129/129/129 130/130/130
f 131/131/131 128/128/128 130/130/130
f 132/132/132 133/133/133 134/134/134
f 135/135/135 136/136/136 137/137/137
f 138/138/138 137/137/137 139/139/139
f 140/140/140 139/139/139 141/141/141
f 142/142/142 143/143/143 144/144/144
f 145/145/145 144/144/144 146/146/146
f 147/147/147 148/148/148 149/149/149
f 150/150/150 151/151/151 147/147/147
f 152/152/152 153/153/153 150/150/150
f 154/154/154 155/155/155 152/152/152
f 156/156/156 157/157/157 158/158/158
f 159/159/159 160/160/160 156/156/156
f 161/161/161 162/162/162 159/159/159
f 163/163/163 164/164/164 161/161/161
f 165/165/165 166/166/166 167/167/167
f 168/168/168 169/169/169 165/165/165
f 170/170/170 171/171/171 168/168/168
f 172/172/172 173/173/173 170/170/170
f 174/174/174 175/175/175 176/176/176
f 177/177/177 178/178/178 174/174/174
f 179/179/179 180/180/180 177/177/177
f 181/181/181 182/182/182 179/179/179
f 41/41/41 183/183/183 28/28/28
f 27/27/27 184/184/184 185/185/185
f 186/186/186 187/187/187 188/188/188
f 38/38/38 189/189/189 41/41/41
f 190/190/190 191/191/191 192/192/192
f 193/193/193 194/194/194 195/195/195
f 188/188/188 196/196/196 197/197/197
f 40/40/40 198/198/198 38/38/38
f 199/199/199 200/200/200 201/201/201
f 197/197/197 202/202/202 203/203/203
f 204/204/204 205/205/205 199/199/199
f 203/203/203 206/206/206 207/207/207
f 208/208/208 209/209/209 210/210/210
f 211/211/211 212/212/212 204/204/204
f 213/213/213 214/214/214 215/215/215
f 210/210/210 216/216/216 217/217/217
f 218/218/218 219/219/219 220/220/220
f 221/221/221 222/222/222 211/211/211
f 81/81/81 223/223/223 83/83/83
f 217/217/217 224/224/224 225/225/225
f 79/79/79 226/226/226 81/81/81
f 225/225/225 227/227/227 228/228/228
f 229/229/229 230/230/230 65/65/65
f 76/76/76 231/231/231 79/79/79
f 1/1/1 56/56/56 2/2/2
f 4/4/4 232/232/232 5/5/5
f 7/7/7 22/22/22 8/8/8
f 10/10/10 24/24/24 11/11/11
f 13/13/13 96/96/96 14/14/14
f 1/1/1 3/3/3 16/16/16
f 18/18/18 37/37/37 19/19/19
f 21/21/21 233/233/233 22/22/22
f 23/23/23 75/75/75 24/24/24
f 25/25/25 48/48/48 26/26/26
f 28/28/28 183/183/183 29/29/29
f 31/31/31 50/50/50 32/32/32
f 34/34/34 234/234/234 35/35/35
f 15/15/15 14/14/14 19/19/19
f 38/38/38 42/42/42 39/39/39
f 41/41/41 43/43/43 42/42/42
f 28/28/28 44/44/44 43/43/43
f 30/30/30 235/235/235 44/44/44
f 17/17/17 16/16/16 45/45/45
f 47/47/47 55/55/55 48/48/48
f 49/49/49 71/71/71 50/50/50
f 51/51/51 236/236/236 52/52/52
f 54/54/54 237/237/237 55/55/55
f 56/56/56 18/18/18 20/20/20
f 57/57/57 61/61/61 58/58/58
f 60/60/60 63/63/63 61/61/61
f 62/62/62 65/65/65 63/63/63
f 64/64/64 229/229/229 65/65/65
f 66/66/66 238/238/238 67/67/67
f 61/61/61 72/72/72 69/69/69
f 70/70/70 74/74/74 71/71/71
f 63/63/63 92/92/92 72/72/72
f 73/73/73 239/239/239 74/74/74
f 9/9/9 8/8/8 75/75/75
f 76/76/76 80/80/80 77/77/77
f 79/79/79 82/82/82 80/80/80
f 81/81/81 84/84/84 82/82/82
f 83/83/83 240/240/240 84/84/84
f 85/85/85 241/241/241 86/86/86
f 78/78/78 242/242/242 88/88/88
f 89/89/89 243/243/243 90/90/90
f 65/65/65 230/230/230 92/92/92
f 93/93/93 244/244/244 94/94/94
f 46/46/46 45/45/45 96/96/96
f 73/73/73 70/70/70 97/97/97
f 70/70/70 49/49/49 99/99/99
f 49/49/49 31/31/31 100/100/100
f 31/31/31 33/33/33 101/101/101
f 102/102/102 245/245/245 103/103/103
f 104/104/104 103/103/103 105/105/105
f 107/107/107 110/110/110 108/108/108
f 110/110/110 246/246/246 111/111/111
f 112/112/112 115/115/115 113/113/113
f 115/115/115 247/247/247 116/116/116
f 117/117/117 248/248/248 118/118/118
f 118/118/118 249/249/249 119/119/119
f 119/119/119 250/250/250 117/117/117
f 250/250/250 251/251/251 117/117/117
f 251/251/251 252/252/252 117/117/117
f 120/120/120 123/123/123 121/121/121
f 123/123/123 253/253/253 124/124/124
f 126/126/126 254/254/254 255/255/255
f 255/255/255 256/256/256 126/126/126
f 256/256/256 127/127/127 126/126/126
f 127/127/127 257/257/257 258/258/258
f 258/258/258 125/125/125 127/127/127
f 128/128/128 259/259/259 129/129/129
f 131/131/131 260/260/260 128/128/128
f 132/132/132 261/261/261 133/133/133
f 135/135/135 262/262/262 136/136/136
f 138/138/138 135/135/135 137/137/137
f 140/140/140 138/138/138 139/139/139
f 142/142/142 263/263/263 143/143/143
f 145/145/145 142/142/142 144/144/144
f 147/147/147 151/151/151 148/148/148
f 150/150/150 153/153/153 151/151/151
f 152/152/152 155/155/155 153/153/153
f 154/154/154 264/264/264 155/155/155
f 156/156/156 160/160/160 157/157/157
f 159/159/159 162/162/162 160/160/160
f 161/161/161 164/164/164 162/162/162
f 163/163/163 265/265/265 164/164/164
f 165/165/165 169/169/169 166/166/166
f 168/168/168 171/171/171 169/169/169
f 170/170/170 173/173/173 171/171/171
f 172/172/172 266/266/266 173/173/173
f 174/174/174 178/178/178 175/175/175
f 177/177/177 180/180/180 178/178/178
f 179/179/179 182/182/182 180/180/180
f 181/181/181 267/267/267 182/182/182
f 41/41/41 189/189/189 183/183/183
f 27/27/27 26/26/26 184/184/184
f 186/186/186 268/268/268 187/187/187
f 38/38/38 198/198/198 189/189/189
f 190/190/190 269/269/269 191/191/191
f 193/193/193 270/270/270 194/194/194
f 188/188/188 187/187/187 196/196/196
f 40/40/40 271/271/271 198/198/198
f 199/199/199 205/205/205 200/200/200
f 197/197/197 196/196/196 202/202/202
f 204/204/204 212/212/212 205/205/205
f 203/203/203 202/202/202 206/206/206
f 208/208/208 272/272/272 209/209/209
f 211/211/211 222/222/222 212/212/212
f 213/213/213 273/273/273 214/214/214
f 210/210/210 209/209/209 216/216/216
f 218/218/218 274/274/274 219/219/219
f 221/221/221 275/275/275 222/222/222
f 81/81/81 226/226/226 223/223/223
f 217/217/217 216/216/216 224/224/224
f 79/79/79 231/231/231 226/226/226
f 225/225/225 224/224/224 227/227/227
f 229/229/229 276/276/276 230/230/230
f 76/76/76 88/88/88 231/231/231
