# Cube -- imported by tools/import_asset_pack.py from IronGate.fbx
o __pending__
v -0.134636 1.552442 0.056975
v -0.183979 -1.047557 0.028487
v -0.134636 -1.047557 0.056978
v -0.789840 1.552442 0.028487
v -0.740497 1.552442 0.056975
v -0.691154 1.552442 0.028487
v -0.444300 1.552442 -0.056978
v -0.394954 -1.047557 -0.028487
v -0.444300 -1.047557 -0.056975
v -0.183979 -1.047557 0.028487
v -0.183979 -1.047557 -0.028487
v -0.085293 -1.047557 -0.028487
v -0.740497 1.552442 0.056975
v -0.789840 -1.047557 0.028487
v -0.740497 -1.047557 0.056978
v -0.394954 1.552442 -0.028487
v -0.394954 -1.047557 0.028487
v -0.394954 -1.047557 -0.028487
v -0.789840 -1.047557 0.028487
v -0.789840 -1.047557 -0.028487
v -0.691154 -1.047557 -0.028487
v -0.691154 1.552442 0.028487
v -0.691154 -1.047557 0.028487
v -0.394954 1.552442 0.028487
v -0.444300 -1.047557 0.056978
v -0.394954 -1.047557 0.028487
v -0.789840 1.552442 -0.028487
v -0.740497 -1.047557 -0.056975
v -0.789840 -1.047557 -0.028487
v -0.691154 1.552442 -0.028487
v -0.691154 -1.047557 0.028487
v -0.691154 -1.047557 -0.028487
v -0.444300 1.552442 0.056975
v -0.493643 -1.047557 0.028487
v -0.493643 1.552442 0.028487
v -0.444300 1.552442 0.056975
v -0.394954 1.552442 0.028487
v -0.740497 1.552442 -0.056978
v -0.691154 -1.047557 -0.028487
v -0.493643 1.552442 0.028487
v -0.493643 -1.047557 -0.028487
v -0.493643 -1.047557 0.028487
v -0.183979 1.552442 0.028487
v -0.134636 1.552442 0.056975
v -0.085293 1.552442 0.028487
v -0.789840 1.552442 0.028487
v -0.789840 -1.047557 -0.028487
v -0.789840 -1.047557 0.028487
v -0.493643 1.552442 -0.028487
v -0.493643 -1.047557 -0.028487
v -0.493643 -1.047557 0.028487
v -0.493643 -1.047557 -0.028487
v -0.394954 -1.047557 -0.028487
v -0.085293 1.552442 0.028487
v -0.085293 -1.047557 0.028487
v -0.183979 1.552442 -0.028487
v -0.134636 -1.047557 -0.056975
v -0.183979 -1.047557 -0.028487
v -0.085293 1.552442 -0.028487
v -0.085293 -1.047557 0.028487
v -0.085293 -1.047557 -0.028487
v -0.134636 1.552442 -0.056978
v -0.085293 -1.047557 -0.028487
v -0.183979 1.552442 0.028487
v -0.183979 -1.047557 -0.028487
v -0.183979 -1.047557 0.028487
v 0.774157 1.552442 0.056975
v 0.724814 -1.047557 0.028487
v 0.774157 -1.047557 0.056978
v 0.118953 1.552442 0.028487
v 0.168296 1.552442 0.056975
v 0.217639 1.552442 0.028487
v 0.464493 1.552442 -0.056978
v 0.513835 -1.047557 -0.028487
v 0.464493 -1.047557 -0.056975
v 0.724814 -1.047557 0.028487
v 0.724814 -1.047557 -0.028487
v 0.823499 -1.047557 -0.028487
v 0.168296 1.552442 0.056975
v 0.118953 -1.047557 0.028487
v 0.168296 -1.047557 0.056978
v 0.513835 1.552442 -0.028487
v 0.513835 -1.047557 0.028487
v 0.513835 -1.047557 -0.028487
v 0.118953 -1.047557 0.028487
v 0.118953 -1.047557 -0.028487
v 0.217639 -1.047557 -0.028487
v 0.217639 1.552442 0.028487
v 0.217639 -1.047557 0.028487
v 0.513835 1.552442 0.028487
v 0.464493 -1.047557 0.056978
v 0.513835 -1.047557 0.028487
v 0.118953 1.552442 -0.028487
v 0.168296 -1.047557 -0.056975
v 0.118953 -1.047557 -0.028487
v 0.217639 1.552442 -0.028487
v 0.217639 -1.047557 0.028487
v 0.217639 -1.047557 -0.028487
v 0.464493 1.552442 0.056975
v 0.415150 -1.047557 0.028487
v 0.415150 1.552442 0.028487
v 0.464493 1.552442 0.056975
v 0.513835 1.552442 0.028487
v 0.168296 1.552442 -0.056978
v 0.217639 -1.047557 -0.028487
v 0.415150 1.552442 0.028487
v 0.415150 -1.047557 -0.028487
v 0.415150 -1.047557 0.028487
v 0.724814 1.552442 0.028487
v 0.774157 1.552442 0.056975
v 0.823499 1.552442 0.028487
v 0.118953 1.552442 0.028487
v 0.118953 -1.047557 -0.028487
v 0.118953 -1.047557 0.028487
v 0.415150 1.552442 -0.028487
v 0.415150 -1.047557 -0.028487
v 0.415150 -1.047557 0.028487
v 0.415150 -1.047557 -0.028487
v 0.513835 -1.047557 -0.028487
v 0.823499 1.552442 0.028487
v 0.823499 -1.047557 0.028487
v 0.724814 1.552442 -0.028487
v 0.774157 -1.047557 -0.056975
v 0.724814 -1.047557 -0.028487
v 0.823499 1.552442 -0.028487
v 0.823499 -1.047557 0.028487
v 0.823499 -1.047557 -0.028487
v 0.774157 1.552442 -0.056978
v 0.823499 -1.047557 -0.028487
v 0.724814 1.552442 0.028487
v 0.724814 -1.047557 -0.028487
v 0.724814 -1.047557 0.028487
v -1.041776 0.399467 0.086625
v -1.041776 -0.035951 -0.086625
v -1.041776 -0.035951 0.086625
v -1.041776 0.399467 -0.086625
v 1.041776 -0.035951 -0.086625
v -1.041776 -0.035951 -0.086625
v 1.041776 0.399467 -0.086625
v 1.041776 -0.035951 0.086625
v 1.041776 -0.035951 -0.086625
v 1.041776 0.399467 0.086625
v -1.041776 -0.035951 0.086625
v 1.041776 -0.035951 0.086625
v 1.041776 -0.035951 -0.086625
v -1.041776 -0.035951 0.086625
v -1.041776 -0.035951 -0.086625
v -1.041776 0.399467 -0.086625
v 1.041776 0.399467 0.086625
v 1.041776 0.399467 -0.086625
v -0.183979 1.552442 0.028487
v -0.691154 1.552442 -0.028487
v -0.740497 1.552442 -0.056978
v -0.789840 1.552442 -0.028487
v -0.394954 1.552442 -0.028487
v -0.134636 -1.047557 -0.056975
v -0.085293 -1.047557 0.028487
v -0.134636 -1.047557 0.056978
v -0.789840 1.552442 0.028487
v -0.394954 1.552442 0.028487
v -0.740497 -1.047557 -0.056975
v -0.691154 -1.047557 0.028487
v -0.740497 -1.047557 0.056978
v -0.691154 1.552442 0.028487
v -0.493643 1.552442 0.028487
v -0.394954 1.552442 -0.028487
v -0.444300 1.552442 -0.056978
v -0.493643 1.552442 -0.028487
v -0.691154 1.552442 -0.028487
v -0.493643 1.552442 -0.028487
v -0.085293 1.552442 -0.028487
v -0.134636 1.552442 -0.056978
v -0.183979 1.552442 -0.028487
v -0.789840 1.552442 -0.028487
v -0.444300 -1.047557 -0.056975
v -0.394954 -1.047557 0.028487
v -0.444300 -1.047557 0.056978
v -0.085293 1.552442 0.028487
v -0.085293 1.552442 -0.028487
v -0.183979 1.552442 -0.028487
v 0.724814 1.552442 0.028487
v 0.217639 1.552442 -0.028487
v 0.168296 1.552442 -0.056978
v 0.118953 1.552442 -0.028487
v 0.513835 1.552442 -0.028487
v 0.774157 -1.047557 -0.056975
v 0.823499 -1.047557 0.028487
v 0.774157 -1.047557 0.056978
v 0.118953 1.552442 0.028487
v 0.513835 1.552442 0.028487
v 0.168296 -1.047557 -0.056975
v 0.217639 -1.047557 0.028487
v 0.168296 -1.047557 0.056978
v 0.217639 1.552442 0.028487
v 0.415150 1.552442 0.028487
v 0.513835 1.552442 -0.028487
v 0.464493 1.552442 -0.056978
v 0.415150 1.552442 -0.028487
v 0.217639 1.552442 -0.028487
v 0.415150 1.552442 -0.028487
v 0.823499 1.552442 -0.028487
v 0.774157 1.552442 -0.056978
v 0.724814 1.552442 -0.028487
v 0.118953 1.552442 -0.028487
v 0.464493 -1.047557 -0.056975
v 0.513835 -1.047557 0.028487
v 0.464493 -1.047557 0.056978
v 0.823499 1.552442 0.028487
v 0.823499 1.552442 -0.028487
v 0.724814 1.552442 -0.028487
v -1.041776 0.399467 -0.086625
v 1.041776 0.399467 -0.086625
v 1.041776 0.399467 0.086625
v -1.041776 0.399467 0.086625
v 1.041776 -0.035951 0.086625
v -1.041776 0.399467 0.086625
vt 0.278883 0.996054
vt 0.291343 0.339540
vt 0.278883 0.339540
vt 0.036755 0.324455
vt 0.049215 0.331649
vt 0.061674 0.324455
vt 0.016405 0.996054
vt 0.028864 0.339540
vt 0.016405 0.339540
vt 0.258533 0.324455
vt 0.258533 0.310068
vt 0.233614 0.310068
vt 0.049215 0.996054
vt 0.061674 0.339540
vt 0.049215 0.339540
vt 0.397663 0.996054
vt 0.412050 0.339540
vt 0.397663 0.339540
vt 0.094484 0.324455
vt 0.094484 0.310068
vt 0.069565 0.310068
vt 0.036755 0.996054
vt 0.036755 0.339540
vt 0.069565 0.996054
vt 0.082025 0.339540
vt 0.069565 0.339540
vt 0.102375 0.996054
vt 0.114834 0.339540
vt 0.102375 0.339540
vt 0.419941 0.996054
vt 0.434328 0.339540
vt 0.419941 0.339540
vt 0.082025 0.996054
vt 0.094484 0.339540
vt 0.102375 0.324455
vt 0.114834 0.331649
vt 0.127294 0.324455
vt 0.114834 0.996054
vt 0.127294 0.339540
vt 0.442219 0.996054
vt 0.456606 0.339540
vt 0.442219 0.339540
vt 0.266424 0.324455
vt 0.278883 0.331649
vt 0.291343 0.324455
vt 0.464497 0.996054
vt 0.478884 0.339540
vt 0.464497 0.339540
vt 0.003946 0.996054
vt 0.003946 0.339540
vt 0.160103 0.324455
vt 0.160103 0.310068
vt 0.135185 0.310068
vt 0.266424 0.996054
vt 0.266424 0.339540
vt 0.299234 0.996054
vt 0.311693 0.339540
vt 0.299234 0.339540
vt 0.486775 0.996054
vt 0.501162 0.339540
vt 0.486775 0.339540
vt 0.311693 0.996054
vt 0.324152 0.339540
vt 0.509053 0.996054
vt 0.523440 0.339540
vt 0.509053 0.339540
vt 0.147644 0.996054
vt 0.160103 0.339540
vt 0.147644 0.339540
vt 0.299234 0.324455
vt 0.311693 0.331649
vt 0.324152 0.324455
vt 0.180454 0.996054
vt 0.192913 0.339540
vt 0.180454 0.339540
vt 0.677457 0.344219
vt 0.689917 0.337026
vt 0.677457 0.315445
vt 0.344503 0.996054
vt 0.356962 0.339540
vt 0.344503 0.339540
vt 0.531331 0.996054
vt 0.545718 0.339540
vt 0.531331 0.339540
vt 0.356962 0.324455
vt 0.356962 0.310068
vt 0.332044 0.310068
vt 0.332044 0.996054
vt 0.332044 0.339540
vt 0.200804 0.996054
vt 0.213264 0.339540
vt 0.200804 0.339540
vt 0.364853 0.996054
vt 0.377313 0.339540
vt 0.364853 0.339540
vt 0.553609 0.996054
vt 0.567995 0.339540
vt 0.553609 0.339540
vt 0.213264 0.996054
vt 0.225723 0.339540
vt 0.167995 0.324455
vt 0.180454 0.331649
vt 0.192913 0.324455
vt 0.377313 0.996054
vt 0.389772 0.339540
vt 0.575887 0.996054
vt 0.590273 0.339540
vt 0.575887 0.339540
vt 0.003946 0.310068
vt 0.003946 0.324455
vt 0.016405 0.331649
vt 0.598164 0.996054
vt 0.612551 0.339540
vt 0.598164 0.339540
vt 0.167995 0.996054
vt 0.167995 0.339540
vt 0.225723 0.324455
vt 0.225723 0.310068
vt 0.200804 0.310068
vt 0.135185 0.996054
vt 0.135185 0.339540
vt 0.233614 0.996054
vt 0.246074 0.339540
vt 0.233614 0.339540
vt 0.620442 0.996054
vt 0.634829 0.339540
vt 0.620442 0.339540
vt 0.246074 0.996054
vt 0.258533 0.339540
vt 0.642720 0.996054
vt 0.657107 0.339540
vt 0.642720 0.339540
vt 0.664998 0.462055
vt 0.708745 0.352110
vt 0.664998 0.352110
vt 0.664998 0.469946
vt 0.774943 0.996054
vt 0.774943 0.469946
vt 0.716636 0.462055
vt 0.760382 0.352110
vt 0.716636 0.352110
vt 0.782834 0.469946
vt 0.892779 0.996054
vt 0.892779 0.469946
vt 0.944417 0.469946
vt 0.900670 0.996054
vt 0.944417 0.996054
vt 0.996054 0.469946
vt 0.952308 0.996054
vt 0.996054 0.996054
vt 0.291343 0.996054
vt 0.061674 0.310068
vt 0.049215 0.302875
vt 0.036755 0.310068
vt 0.028864 0.996054
vt 0.246074 0.302875
vt 0.233614 0.324455
vt 0.246074 0.331649
vt 0.061674 0.996054
vt 0.412050 0.996054
vt 0.082025 0.302875
vt 0.069565 0.324455
vt 0.082025 0.331649
vt 0.434328 0.996054
vt 0.094484 0.996054
vt 0.127294 0.310068
vt 0.114834 0.302875
vt 0.102375 0.310068
vt 0.127294 0.996054
vt 0.456606 0.996054
vt 0.291343 0.310068
vt 0.278883 0.302875
vt 0.266424 0.310068
vt 0.478884 0.996054
vt 0.147644 0.302875
vt 0.135185 0.324455
vt 0.147644 0.331649
vt 0.501162 0.996054
vt 0.324152 0.996054
vt 0.523440 0.996054
vt 0.160103 0.996054
vt 0.324152 0.310068
vt 0.311693 0.302875
vt 0.299234 0.310068
vt 0.192913 0.996054
vt 0.689917 0.322639
vt 0.664998 0.322639
vt 0.664998 0.337026
vt 0.356962 0.996054
vt 0.545718 0.996054
vt 0.344503 0.302875
vt 0.332044 0.324455
vt 0.344503 0.331649
vt 0.567995 0.996054
vt 0.225723 0.996054
vt 0.192913 0.310068
vt 0.180454 0.302875
vt 0.167995 0.310068
vt 0.389772 0.996054
vt 0.590273 0.996054
vt 0.028864 0.324455
vt 0.028864 0.310068
vt 0.016405 0.302875
vt 0.612551 0.996054
vt 0.213264 0.302875
vt 0.200804 0.324455
vt 0.213264 0.331649
vt 0.634829 0.996054
vt 0.258533 0.996054
vt 0.657107 0.996054
vt 0.708745 0.462055
vt 0.664998 0.996054
vt 0.760382 0.462055
vt 0.782834 0.996054
vt 0.900670 0.469946
vt 0.952308 0.469946
vn -0.000002 0.609995 0.792405
vn -0.686248 -0.609986 0.396208
vn 0.000003 -0.609992 0.792407
vn -0.686246 0.609993 0.396201
vn -0.000003 0.609995 0.792405
vn 0.686243 0.609992 0.396206
vn 0.000003 0.609992 -0.792407
vn 0.686243 -0.609993 -0.396206
vn -0.000003 -0.609995 -0.792405
vn -0.686248 -0.609986 0.396208
vn -0.686246 -0.609992 -0.396201
vn 0.686243 -0.609993 -0.396205
vn -0.000003 0.609995 0.792405
vn -0.686248 -0.609986 0.396208
vn 0.000003 -0.609992 0.792407
vn 0.686251 0.609985 -0.396204
vn 0.686244 -0.609995 0.396200
vn 0.686243 -0.609993 -0.396206
vn -0.686248 -0.609986 0.396208
vn -0.686246 -0.609992 -0.396201
vn 0.686243 -0.609993 -0.396206
vn 0.686243 0.609992 0.396206
vn 0.686244 -0.609995 0.396200
vn 0.686243 0.609992 0.396206
vn 0.000002 -0.609992 0.792407
vn 0.686244 -0.609995 0.396200
vn -0.686244 0.609994 -0.396204
vn -0.000003 -0.609995 -0.792405
vn -0.686246 -0.609992 -0.396201
vn 0.686251 0.609985 -0.396204
vn 0.686244 -0.609995 0.396200
vn 0.686243 -0.609993 -0.396206
vn -0.000003 0.609995 0.792405
vn -0.686248 -0.609986 0.396208
vn -0.686246 0.609993 0.396201
vn -0.000003 0.609995 0.792405
vn 0.686243 0.609992 0.396206
vn 0.000003 0.609992 -0.792407
vn 0.686243 -0.609993 -0.396206
vn -0.686246 0.609993 0.396201
vn -0.686246 -0.609992 -0.396201
vn -0.686248 -0.609986 0.396208
vn -0.686246 0.609993 0.396201
vn -0.000002 0.609995 0.792405
vn 0.686244 0.609992 0.396206
vn -0.686246 0.609993 0.396201
vn -0.686246 -0.609992 -0.396201
vn -0.686248 -0.609986 0.396208
vn -0.686244 0.609994 -0.396204
vn -0.686246 -0.609992 -0.396201
vn -0.686248 -0.609986 0.396208
vn -0.686246 -0.609992 -0.396201
vn 0.686243 -0.609993 -0.396206
vn 0.686244 0.609992 0.396206
vn 0.686244 -0.609995 0.396200
vn -0.686243 0.609994 -0.396204
vn -0.000002 -0.609995 -0.792405
vn -0.686246 -0.609992 -0.396201
vn 0.686251 0.609985 -0.396204
vn 0.686244 -0.609995 0.396200
vn 0.686243 -0.609993 -0.396205
vn 0.000003 0.609992 -0.792407
vn 0.686243 -0.609993 -0.396205
vn -0.686246 0.609993 0.396201
vn -0.686246 -0.609992 -0.396201
vn -0.686248 -0.609986 0.396208
vn -0.000003 0.609996 0.792405
vn -0.686248 -0.609986 0.396209
vn 0.000003 -0.609992 0.792407
vn -0.686246 0.609993 0.396201
vn -0.000003 0.609995 0.792405
vn 0.686244 0.609992 0.396206
vn 0.000003 0.609992 -0.792407
vn 0.686243 -0.609993 -0.396205
vn -0.000003 -0.609996 -0.792405
vn -0.686248 -0.609986 0.396209
vn -0.686246 -0.609992 -0.396201
vn 0.686243 -0.609993 -0.396205
vn -0.000003 0.609995 0.792405
vn -0.686248 -0.609986 0.396208
vn 0.000002 -0.609992 0.792407
vn 0.686251 0.609985 -0.396204
vn 0.686244 -0.609995 0.396200
vn 0.686243 -0.609993 -0.396205
vn -0.686248 -0.609986 0.396208
vn -0.686246 -0.609992 -0.396201
vn 0.686243 -0.609993 -0.396205
vn 0.686244 0.609992 0.396206
vn 0.686244 -0.609995 0.396200
vn 0.686244 0.609992 0.396206
vn 0.000003 -0.609992 0.792407
vn 0.686244 -0.609995 0.396200
vn -0.686243 0.609994 -0.396204
vn -0.000003 -0.609995 -0.792405
vn -0.686246 -0.609992 -0.396201
vn 0.686251 0.609985 -0.396204
vn 0.686244 -0.609995 0.396200
vn 0.686243 -0.609993 -0.396205
vn -0.000003 0.609996 0.792405
vn -0.686248 -0.609986 0.396209
vn -0.686246 0.609993 0.396201
vn -0.000003 0.609996 0.792405
vn 0.686244 0.609992 0.396206
vn 0.000003 0.609992 -0.792407
vn 0.686243 -0.609993 -0.396205
vn -0.686246 0.609993 0.396201
vn -0.686246 -0.609992 -0.396201
vn -0.686248 -0.609986 0.396209
vn -0.686246 0.609993 0.396201
vn -0.000003 0.609996 0.792405
vn 0.686244 0.609992 0.396206
vn -0.686246 0.609993 0.396201
vn -0.686246 -0.609992 -0.396201
vn -0.686248 -0.609986 0.396208
vn -0.686243 0.609994 -0.396204
vn -0.686246 -0.609992 -0.396201
vn -0.686248 -0.609986 0.396209
vn -0.686246 -0.609992 -0.396201
vn 0.686243 -0.609993 -0.396205
vn 0.686244 0.609992 0.396206
vn 0.686244 -0.609995 0.396200
vn -0.686243 0.609994 -0.396204
vn -0.000003 -0.609996 -0.792405
vn -0.686246 -0.609992 -0.396201
vn 0.686251 0.609985 -0.396204
vn 0.686244 -0.609995 0.396200
vn 0.686243 -0.609993 -0.396205
vn 0.000003 0.609992 -0.792407
vn 0.686243 -0.609993 -0.396205
vn -0.686246 0.609993 0.396201
vn -0.686246 -0.609992 -0.396201
vn -0.686248 -0.609986 0.396209
vn -0.577331 0.577360 0.577360
vn -0.577331 -0.577360 -0.577360
vn -0.577352 -0.577361 0.577337
vn -0.577352 0.577361 -0.577337
vn 0.577352 -0.577361 -0.577337
vn -0.577331 -0.577360 -0.577360
vn 0.577331 0.577360 -0.577360
vn 0.577331 -0.577360 0.577360
vn 0.577352 -0.577361 -0.577337
vn 0.577352 0.577361 0.577337
vn -0.577352 -0.577361 0.577337
vn 0.577331 -0.577360 0.577360
vn 0.577352 -0.577361 -0.577337
vn -0.577352 -0.577361 0.577337
vn -0.577331 -0.577360 -0.577360
vn -0.577352 0.577361 -0.577337
vn 0.577352 0.577361 0.577337
vn 0.577331 0.577360 -0.577360
vn -0.686246 0.609993 0.396201
vn 0.686251 0.609985 -0.396204
vn 0.000003 0.609992 -0.792407
vn -0.686244 0.609994 -0.396204
vn 0.686251 0.609985 -0.396204
vn -0.000002 -0.609995 -0.792405
vn 0.686244 -0.609995 0.396200
vn 0.000003 -0.609992 0.792407
vn -0.686246 0.609993 0.396201
vn 0.686243 0.609992 0.396206
vn -0.000003 -0.609995 -0.792405
vn 0.686244 -0.609995 0.396200
vn 0.000003 -0.609992 0.792407
vn 0.686243 0.609992 0.396206
vn -0.686246 0.609993 0.396201
vn 0.686251 0.609985 -0.396204
vn 0.000003 0.609992 -0.792407
vn -0.686244 0.609994 -0.396204
vn 0.686251 0.609985 -0.396204
vn -0.686244 0.609994 -0.396204
vn 0.686251 0.609985 -0.396204
vn 0.000003 0.609992 -0.792407
vn -0.686243 0.609994 -0.396204
vn -0.686244 0.609994 -0.396204
vn -0.000003 -0.609995 -0.792405
vn 0.686244 -0.609995 0.396200
vn 0.000002 -0.609992 0.792407
vn 0.686244 0.609992 0.396206
vn 0.686251 0.609985 -0.396204
vn -0.686243 0.609994 -0.396204
vn -0.686246 0.609993 0.396201
vn 0.686251 0.609985 -0.396204
vn 0.000003 0.609992 -0.792407
vn -0.686243 0.609994 -0.396204
vn 0.686251 0.609985 -0.396204
vn -0.000003 -0.609996 -0.792405
vn 0.686244 -0.609995 0.396200
vn 0.000003 -0.609992 0.792407
vn -0.686246 0.609993 0.396201
vn 0.686244 0.609992 0.396206
vn -0.000003 -0.609995 -0.792405
vn 0.686244 -0.609995 0.396200
vn 0.000002 -0.609992 0.792407
vn 0.686244 0.609992 0.396206
vn -0.686246 0.609993 0.396201
vn 0.686251 0.609985 -0.396204
vn 0.000003 0.609992 -0.792407
vn -0.686243 0.609994 -0.396204
vn 0.686251 0.609985 -0.396204
vn -0.686243 0.609994 -0.396204
vn 0.686251 0.609985 -0.396204
vn 0.000003 0.609992 -0.792407
vn -0.686243 0.609994 -0.396204
vn -0.686243 0.609994 -0.396204
vn -0.000003 -0.609996 -0.792405
vn 0.686244 -0.609995 0.396200
vn 0.000003 -0.609992 0.792407
vn 0.686244 0.609992 0.396206
vn 0.686251 0.609985 -0.396204
vn -0.686243 0.609994 -0.396204
vn -0.577352 0.577361 -0.577337
vn 0.577331 0.577360 -0.577360
vn 0.577352 0.577361 0.577337
vn -0.577331 0.577360 0.577360
vn 0.577331 -0.577360 0.577360
vn -0.577331 0.577360 0.577360
f 1/1/1 2/2/2 3/3/3
f 4/4/4 5/5/5 6/6/6
f 7/7/7 8/8/8 9/9/9
f 10/10/10 11/11/11 12/12/12
f 13/13/13 14/14/14 15/15/15
f 16/16/16 17/17/17 18/18/18
f 19/19/19 20/20/20 21/21/21
f 22/22/22 15/15/15 23/23/23
f 24/24/24 25/25/25 26/26/26
f 27/27/27 28/28/28 29/29/29
f 30/30/30 31/31/31 32/32/32
f 33/33/33 34/34/34 25/25/25
f 35/35/35 36/36/36 37/37/37
f 38/38/38 39/39/39 28/28/28
f 40/40/40 41/41/41 42/42/42
f 43/43/43 44/44/44 45/45/45
f 46/46/46 47/47/47 48/48/48
f 49/49/49 9/9/9 50/50/50
f 51/51/51 52/52/52 53/53/53
f 54/54/54 3/3/3 55/55/55
f 56/56/56 57/57/57 58/58/58
f 59/59/59 60/60/60 61/61/61
f 62/62/62 63/63/63 57/57/57
f 64/64/64 65/65/65 66/66/66
f 67/67/67 68/68/68 69/69/69
f 70/70/70 71/71/71 72/72/72
f 73/73/73 74/74/74 75/75/75
f 76/76/76 77/77/77 78/78/78
f 79/79/79 80/80/80 81/81/81
f 82/82/82 83/83/83 84/84/84
f 85/85/85 86/86/86 87/87/87
f 88/88/88 81/81/81 89/89/89
f 90/90/90 91/91/91 92/92/92
f 93/93/93 94/94/94 95/95/95
f 96/96/96 97/97/97 98/98/98
f 99/99/99 100/100/100 91/91/91
f 101/101/101 102/102/102 103/103/103
f 104/104/104 105/105/105 94/94/94
f 106/106/106 107/107/107 108/108/108
f 109/109/109 110/110/110 111/111/111
f 112/112/112 113/113/113 114/114/114
f 115/115/115 75/75/75 116/116/116
f 117/117/117 118/118/118 119/119/119
f 120/120/120 69/69/69 121/121/121
f 122/122/122 123/123/123 124/124/124
f 125/125/125 126/126/126 127/127/127
f 128/128/128 129/129/129 123/123/123
f 130/130/130 131/131/131 132/132/132
f 133/133/133 134/134/134 135/135/135
f 136/136/136 137/137/137 138/138/138
f 139/139/139 140/140/140 141/141/141
f 142/142/142 143/143/143 144/144/144
f 145/145/145 146/146/146 147/147/147
f 148/148/148 149/149/149 150/150/150
f 1/1/1 151/151/151 2/2/2
f 6/6/6 152/152/152 4/4/4
f 152/152/152 153/153/153 4/4/4
f 153/153/153 154/154/154 4/4/4
f 7/7/7 155/155/155 8/8/8
f 11/11/11 156/156/156 12/12/12
f 12/12/12 157/157/157 158/158/158
f 158/158/158 10/10/10 12/12/12
f 13/13/13 159/159/159 14/14/14
f 16/16/16 160/160/160 17/17/17
f 20/20/20 161/161/161 21/21/21
f 21/21/21 162/162/162 163/163/163
f 163/163/163 19/19/19 21/21/21
f 22/22/22 13/13/13 15/15/15
f 24/24/24 33/33/33 25/25/25
f 27/27/27 38/38/38 28/28/28
f 30/30/30 164/164/164 31/31/31
f 33/33/33 165/165/165 34/34/34
f 37/37/37 166/166/166 35/35/35
f 166/166/166 167/167/167 35/35/35
f 167/167/167 168/168/168 35/35/35
f 38/38/38 169/169/169 39/39/39
f 40/40/40 170/170/170 41/41/41
f 45/45/45 171/171/171 43/43/43
f 171/171/171 172/172/172 43/43/43
f 172/172/172 173/173/173 43/43/43
f 46/46/46 174/174/174 47/47/47
f 49/49/49 7/7/7 9/9/9
f 52/52/52 175/175/175 53/53/53
f 53/53/53 176/176/176 177/177/177
f 177/177/177 51/51/51 53/53/53
f 54/54/54 1/1/1 3/3/3
f 56/56/56 62/62/62 57/57/57
f 59/59/59 178/178/178 60/60/60
f 62/62/62 179/179/179 63/63/63
f 64/64/64 180/180/180 65/65/65
f 67/67/67 181/181/181 68/68/68
f 72/72/72 182/182/182 70/70/70
f 182/182/182 183/183/183 70/70/70
f 183/183/183 184/184/184 70/70/70
f 73/73/73 185/185/185 74/74/74
f 77/77/77 186/186/186 78/78/78
f 78/78/78 187/187/187 188/188/188
f 188/188/188 76/76/76 78/78/78
f 79/79/79 189/189/189 80/80/80
f 82/82/82 190/190/190 83/83/83
f 86/86/86 191/191/191 87/87/87
f 87/87/87 192/192/192 193/193/193
f 193/193/193 85/85/85 87/87/87
f 88/88/88 79/79/79 81/81/81
f 90/90/90 99/99/99 91/91/91
f 93/93/93 104/104/104 94/94/94
f 96/96/96 194/194/194 97/97/97
f 99/99/99 195/195/195 100/100/100
f 103/103/103 196/196/196 101/101/101
f 196/196/196 197/197/197 101/101/101
f 197/197/197 198/198/198 101/101/101
f 104/104/104 199/199/199 105/105/105
f 106/106/106 200/200/200 107/107/107
f 111/111/111 201/201/201 109/109/109
f 201/201/201 202/202/202 109/109/109
f 202/202/202 203/203/203 109/109/109
f 112/112/112 204/204/204 113/113/113
f 115/115/115 73/73/73 75/75/75
f 118/118/118 205/205/205 119/119/119
f 119/119/119 206/206/206 207/207/207
f 207/207/207 117/117/117 119/119/119
f 120/120/120 67/67/67 69/69/69
f 122/122/122 128/128/128 123/123/123
f 125/125/125 208/208/208 126/126/126
f 128/128/128 209/209/209 129/129/129
f 130/130/130 210/210/210 131/131/131
f 133/133/133 211/211/211 134/134/134
f 136/136/136 212/212/212 137/137/137
f 139/139/139 213/213/213 140/140/140
f 142/142/142 214/214/214 143/143/143
f 145/145/145 215/215/215 146/146/146
f 148/148/148 216/216/216 149/149/149
