# Cube.002 -- imported by tools/import_asset_pack.py from lever.fbx
o __pending__
v 0.071751 0.430231 0.003903
v 0.083841 0.476388 -0.000904
v 0.085291 0.476341 0.004325
v 0.070532 0.431062 -0.001318
v 0.079937 0.476422 -0.004620
v 0.067247 0.433207 -0.005015
v 0.074758 0.476433 -0.005811
v 0.079937 0.476422 -0.004620
v 0.062891 0.436018 -0.006180
v 0.069783 0.476419 -0.004269
v 0.058705 0.438693 -0.004614
v 0.066286 0.476385 -0.000554
v 0.069783 0.476419 -0.004269
v 0.054714 0.441179 0.004003
v 0.065039 0.476341 0.004325
v 0.066286 0.476296 0.009203
v 0.058705 0.438536 0.012573
v 0.069783 0.476262 0.012918
v 0.058705 0.438536 0.012573
v 0.074758 0.476248 0.014460
v 0.069783 0.476262 0.012918
v 0.067247 0.433043 0.012874
v 0.079937 0.476259 0.013269
v 0.070532 0.430967 0.009139
v 0.083841 0.476293 0.009553
v 0.083841 0.476293 0.009553
v 0.035431 0.398761 0.003615
v 0.070532 0.431062 -0.001318
v 0.071751 0.430231 0.003903
v 0.033207 0.403712 -0.005285
v 0.067247 0.433207 -0.005015
v 0.033207 0.403712 -0.005285
v 0.031056 0.408434 -0.006432
v 0.058705 0.438693 -0.004614
v 0.028989 0.412945 -0.004849
v 0.055764 0.440550 -0.000881
v 0.055764 0.440550 -0.000881
v 0.027018 0.417182 0.003784
v 0.027018 0.417182 0.003784
v 0.055764 0.440460 0.008875
v 0.054714 0.441179 0.004003
v 0.028989 0.412788 0.012338
v 0.058705 0.438536 0.012573
v 0.062891 0.435833 0.014090
v 0.062891 0.435833 0.014090
v 0.033207 0.403548 0.012604
v 0.070532 0.430967 0.009139
v 0.035431 0.398761 0.003615
v -0.012138 0.391921 0.003553
v 0.034829 0.400127 -0.001601
v -0.011376 0.397302 -0.005343
v 0.031056 0.408434 -0.006432
v -0.009931 0.407349 -0.004900
v 0.027536 0.416092 -0.001105
v -0.009433 0.410777 -0.001154
v 0.027018 0.417182 0.003784
v -0.009433 0.410688 0.008603
v 0.027536 0.416003 0.008652
v -0.009931 0.407192 0.012287
v 0.031056 0.408249 0.013838
v 0.031056 0.408249 0.013838
v -0.011376 0.397139 0.012546
v 0.034829 0.400032 0.008856
v -0.011932 0.393309 0.008795
v 0.035431 0.398761 0.003615
v -0.054904 0.413028 -0.001483
v -0.011932 0.393404 -0.001663
v -0.052348 0.416012 -0.005172
v -0.052348 0.416012 -0.005172
v -0.010639 0.402439 -0.006487
v -0.011376 0.397302 -0.005343
v -0.048956 0.419937 -0.006327
v -0.045698 0.423683 -0.004751
v -0.042592 0.427190 0.003875
v -0.009256 0.411967 0.003736
v -0.042592 0.427190 0.003875
v -0.009256 0.411967 0.003736
v -0.043408 0.426203 0.008745
v -0.048956 0.419752 0.013943
v -0.010639 0.402254 0.013783
v -0.048956 0.419752 0.013943
v -0.010639 0.402254 0.013783
v -0.052348 0.415849 0.012717
v -0.054904 0.412933 0.008974
v -0.012138 0.391921 0.003553
v -0.055854 0.411885 0.003735
v -0.080445 0.452769 -0.001120
v -0.054904 0.413028 -0.001483
v -0.076699 0.453903 -0.004826
v -0.076699 0.453903 -0.004826
v -0.071730 0.455373 -0.006003
v -0.063601 0.457711 -0.000725
v -0.043408 0.426292 -0.001012
v -0.043408 0.426292 -0.001012
v -0.062404 0.458018 0.004157
v -0.042592 0.427190 0.003875
v -0.063601 0.457622 0.009032
v -0.043408 0.426203 0.008745
v -0.063601 0.457622 0.009032
v -0.045698 0.423526 0.012436
v -0.045698 0.423526 0.012436
v -0.071730 0.455187 0.014267
v -0.080445 0.452673 0.009337
v -0.080445 0.452673 0.009337
v -0.054904 0.412933 0.008974
v -0.081836 0.452312 0.004105
v -0.080445 0.500008 -0.000688
v -0.076699 0.453903 -0.004826
v -0.076699 0.498943 -0.004414
v -0.071730 0.497494 -0.005618
v -0.066956 0.456760 -0.004449
v -0.066956 0.496079 -0.004089
v -0.063601 0.457711 -0.000725
v -0.066956 0.456760 -0.004449
v -0.062404 0.494664 0.004492
v -0.066956 0.495922 0.013098
v -0.066956 0.456603 0.012739
v -0.066956 0.456603 0.012739
v -0.071730 0.497309 0.014652
v -0.076699 0.453739 0.013063
v -0.076699 0.453739 0.013063
v -0.080445 0.499913 0.009769
v -0.081836 0.500369 0.004544
v -0.054904 0.539749 -0.000325
v -0.054904 0.539749 -0.000325
v -0.080445 0.500008 -0.000688
v -0.052348 0.536833 -0.004068
v -0.048956 0.532930 -0.005294
v -0.066956 0.496079 -0.004089
v -0.045698 0.529155 -0.003787
v -0.063601 0.495060 -0.000383
v -0.066956 0.496079 -0.004089
v -0.063601 0.495060 -0.000383
v -0.042592 0.525492 0.004774
v -0.043408 0.526390 0.009661
v -0.063601 0.494970 0.009374
v -0.043408 0.526390 0.009661
v -0.066956 0.495922 0.013098
v -0.063601 0.494970 0.009374
v -0.048956 0.532744 0.014976
v -0.076699 0.498779 0.013475
v -0.076699 0.498779 0.013475
v -0.054904 0.539653 0.010133
v -0.080445 0.499913 0.009769
v -0.055854 0.540797 0.004914
v -0.012138 0.560760 0.005097
v -0.055854 0.540797 0.004914
v -0.011376 0.555543 -0.003897
v -0.010639 0.550427 -0.005134
v -0.048956 0.532930 -0.005294
v -0.009931 0.545489 -0.003637
v -0.043408 0.526479 -0.000096
v -0.009434 0.541994 0.000046
v -0.042592 0.525492 0.004774
v -0.042592 0.525492 0.004774
v -0.009434 0.541905 0.009803
v -0.045698 0.528998 0.013400
v -0.010639 0.550242 0.015136
v -0.052348 0.536669 0.013822
v -0.052348 0.536669 0.013822
v -0.011932 0.559277 0.010312
v -0.012138 0.560760 0.005097
v -0.055854 0.540797 0.004914
v 0.035431 0.553921 0.005034
v -0.011932 0.559373 -0.000145
v 0.034829 0.552650 -0.000207
v 0.031056 0.544433 -0.005189
v -0.010639 0.550427 -0.005134
v 0.031056 0.544433 -0.005189
v 0.027536 0.536679 -0.000003
v -0.009256 0.540715 0.004913
v 0.027018 0.535500 0.004865
v -0.009256 0.540715 0.004913
v 0.028989 0.539736 0.013499
v -0.009931 0.545332 0.013550
v 0.031056 0.544248 0.015082
v -0.010639 0.550242 0.015136
v 0.033207 0.548970 0.013934
v -0.011376 0.555379 0.013993
v 0.034829 0.552554 0.010251
v 0.071751 0.522451 0.004746
v 0.034829 0.552650 -0.000207
v 0.035431 0.553921 0.005034
v 0.067247 0.519638 -0.004225
v 0.033207 0.549133 -0.003955
v 0.062891 0.516849 -0.005441
v 0.028989 0.539893 -0.003689
v 0.058705 0.514145 -0.003924
v 0.054714 0.511502 0.004646
v 0.027018 0.535500 0.004865
v 0.054714 0.511502 0.004646
v 0.027536 0.536590 0.009754
v 0.027018 0.535500 0.004865
v 0.027536 0.536590 0.009754
v 0.058705 0.513988 0.013263
v 0.067247 0.519474 0.013664
v 0.033207 0.548970 0.013934
v 0.070532 0.521619 0.009968
v 0.071751 0.522451 0.004746
v 0.035431 0.553921 0.005034
v 0.070532 0.521715 -0.000490
v 0.070532 0.521715 -0.000490
v 0.062891 0.516849 -0.005441
v 0.058705 0.514145 -0.003924
v 0.055764 0.512221 -0.000226
v 0.058705 0.514145 -0.003924
v 0.055764 0.512132 0.009531
v 0.058705 0.513988 0.013263
v 0.062891 0.516664 0.014829
v 0.079937 0.476259 0.013269
v 0.070532 0.521619 0.009968
v 0.067247 0.519474 0.013664
v -0.021236 0.039240 0.162156
v -0.088889 0.039240 0.226562
v -0.048252 0.039240 0.241923
v -0.048252 -0.039240 0.241923
v -0.088889 0.039240 0.226562
v -0.088889 -0.039240 0.226562
v -0.088889 -0.039240 -0.162156
v -0.088889 0.039240 -0.226562
v -0.088889 -0.039240 -0.226562
v 0.048252 -0.039240 0.162156
v 0.088889 -0.039240 0.226562
v 0.048252 -0.039240 0.241923
v 0.088889 0.039240 0.162156
v 0.088889 -0.039240 0.226562
v 0.088889 -0.039240 0.162156
v 0.048252 -0.039240 -0.241923
v 0.088889 0.039240 -0.226562
v 0.088889 -0.039240 -0.226562
v -0.088889 0.039240 -0.226562
v -0.048252 -0.039240 -0.241923
v -0.088889 -0.039240 -0.226562
v -0.048252 0.039240 -0.241923
v -0.048252 -0.039240 0.162156
v -0.088889 -0.039240 0.226562
v -0.088889 -0.039240 0.162156
v -0.048252 -0.039240 0.241923
v 0.088889 0.039240 0.226562
v 0.048252 -0.039240 0.241923
v 0.088889 -0.039240 0.226562
v 0.048252 0.039240 0.241923
v 0.021236 0.039240 0.162156
v 0.088889 0.039240 0.226562
v 0.088889 0.039240 0.162156
v 0.048252 0.039240 0.241923
v -0.048252 0.039240 -0.241923
v 0.021236 0.039240 -0.162156
v 0.048252 0.039240 -0.241923
v -0.021236 0.039240 -0.162156
v 0.021236 0.012851 -0.162156
v 0.021236 0.039240 -0.162156
v 0.088889 0.039240 -0.226562
v 0.088889 0.039240 -0.162156
v 0.048252 -0.039240 -0.241923
v -0.048252 -0.039240 -0.162156
v -0.048252 -0.039240 -0.241923
v 0.048252 -0.039240 -0.162156
v -0.088889 -0.039240 -0.226562
v -0.088889 -0.039240 -0.162156
v 0.088889 0.039240 -0.226562
v 0.088889 -0.039240 -0.162156
v 0.088889 -0.039240 -0.226562
v 0.088889 0.039240 -0.162156
v 0.088889 -0.039240 -0.226562
v 0.088889 -0.039240 0.162156
v -0.088889 0.039240 0.226562
v -0.088889 -0.039240 0.162156
v -0.088889 -0.039240 0.226562
v -0.088889 0.039240 0.162156
v -0.088889 0.039240 -0.226562
v -0.021236 0.039240 -0.162156
v -0.088889 0.039240 0.162156
v -0.021236 0.012851 -0.162156
v 0.021236 0.012851 0.162156
v 0.021236 0.012851 -0.162156
v 0.021236 0.039240 0.162156
v -0.021236 0.012851 0.162156
v -0.021236 0.039240 0.162156
v -0.021236 0.039240 0.162156
v -0.021236 0.012851 -0.162156
v -0.021236 0.039240 -0.162156
v 0.021236 0.039240 -0.162156
v 0.021236 0.012851 0.162156
v 0.021236 0.039240 0.162156
v 0.000000 0.309193 0.027710
v -0.024671 0.401948 0.013234
v -0.024671 0.309157 0.013467
v -0.017582 0.297364 0.009404
v -0.024671 0.309085 -0.015020
v -0.017582 0.297313 -0.010898
v -0.000000 0.297287 -0.021049
v 0.017582 -0.004260 -0.010140
v -0.000000 -0.004285 -0.020292
v -0.024671 0.401948 0.013234
v -0.024671 0.401877 -0.015253
v -0.000000 0.297389 0.019555
v -0.017582 0.297364 0.009404
v 0.017582 -0.004260 -0.010140
v 0.017582 0.297364 0.009404
v 0.017582 -0.004209 0.010162
v 0.000000 0.309050 -0.029264
v 0.024670 0.401877 -0.015253
v 0.024671 0.309085 -0.015020
v 0.017582 0.297364 0.009404
v -0.000000 -0.004183 0.020313
v 0.017582 -0.004209 0.010162
v -0.018511 0.413723 0.009648
v -0.018511 0.413669 -0.011727
v 0.017582 0.297313 -0.010898
v -0.017582 -0.004209 0.010162
v -0.017582 0.297313 -0.010898
v 0.024671 0.309085 -0.015020
v 0.024670 0.401948 0.013234
v 0.024671 0.309157 0.013467
v -0.017582 -0.004260 -0.010140
v -0.017582 -0.004209 0.010162
v -0.024671 0.309085 -0.015020
v -0.000000 0.401841 -0.029497
v -0.017582 -0.004260 -0.010140
v -0.000000 -0.004183 0.020313
v -0.017582 -0.004209 0.010162
v -0.017582 -0.004260 -0.010140
v 0.024670 0.401948 0.013234
v -0.000000 0.401984 0.027477
v -0.000000 0.413750 0.020335
v 0.018511 0.413723 0.009648
v -0.000000 0.413642 -0.022414
v 0.024670 0.401877 -0.015253
v 0.018511 0.413723 0.009648
v -0.000000 0.413750 0.020335
v -0.018511 0.413723 0.009648
v -0.018511 0.413669 -0.011727
v -0.000000 0.413642 -0.022414
v 0.018511 0.413669 -0.011727
v 0.067247 0.433207 -0.005015
v 0.055764 0.440460 0.008875
v 0.027536 0.416092 -0.001105
v 0.034829 0.400032 0.008856
v -0.010639 0.402439 -0.006487
v -0.055854 0.411885 0.003735
v -0.055854 0.411885 0.003735
v -0.080445 0.452769 -0.001120
v -0.066956 0.456603 0.012739
v -0.076699 0.498943 -0.004414
v -0.076699 0.498779 0.013475
v -0.045698 0.529155 -0.003787
v -0.043408 0.526479 -0.000096
v -0.054904 0.539653 0.010133
v -0.011376 0.555379 0.013993
v 0.031056 0.544248 0.015082
v 0.055764 0.512221 -0.000226
v 0.055764 0.512132 0.009531
v 0.067247 0.519474 0.013664
v 0.083841 0.476388 -0.000904
v -0.048252 0.039240 0.241923
v -0.088889 0.039240 -0.162156
v 0.088889 0.039240 0.226562
v 0.048252 0.039240 -0.241923
v -0.021236 0.012851 -0.162156
v 0.088889 -0.039240 -0.162156
v -0.088889 0.039240 -0.162156
v -0.021236 0.012851 0.162156
v 0.021236 0.012851 0.162156
v -0.021236 0.012851 0.162156
v 0.021236 0.012851 -0.162156
v -0.024671 0.309157 0.013467
v 0.017582 0.297313 -0.010898
v 0.024671 0.309157 0.013467
v -0.024671 0.401877 -0.015253
v -0.000000 -0.004285 -0.020292
v 0.017582 -0.004260 -0.010140
v 0.017582 -0.004209 0.010162
v 0.018511 0.413669 -0.011727
v -0.018511 0.413669 -0.011727
v -0.018511 0.413723 0.009648
v 0.018511 0.413669 -0.011727
v 0.018511 0.413723 0.009648
vt 0.619684 0.221488
vt 0.609819 0.282454
vt 0.616759 0.282784
vt 0.612695 0.222201
vt 0.604899 0.282212
vt 0.388566 0.306475
vt 0.346716 0.333729
vt 0.348510 0.340427
vt 0.384177 0.301977
vt 0.343329 0.327955
vt 0.852121 0.122624
vt 0.847148 0.172774
vt 0.852075 0.172763
vt 0.840708 0.126047
vt 0.840665 0.172778
vt 0.834172 0.172774
vt 0.829263 0.122624
vt 0.829216 0.172763
vt 0.109864 0.155851
vt 0.060678 0.152313
vt 0.064065 0.158088
vt 0.111347 0.143052
vt 0.058884 0.145615
vt 0.114303 0.137185
vt 0.059278 0.139873
vt 0.623711 0.283105
vt 0.646924 0.228187
vt 0.681133 0.184212
vt 0.675010 0.182078
vt 0.660085 0.232246
vt 0.686408 0.189032
vt 0.403499 0.251913
vt 0.398142 0.250950
vt 0.378297 0.298316
vt 0.391332 0.250685
vt 0.372533 0.296390
vt 0.847192 0.125147
vt 0.840824 0.094216
vt 0.736782 0.062317
vt 0.722387 0.024698
vt 0.716645 0.026366
vt 0.749290 0.059106
vt 0.727684 0.020533
vt 0.731159 0.014799
vt 0.109742 0.149917
vt 0.159560 0.172693
vt 0.626587 0.222851
vt 0.621798 0.179575
vt 0.636454 0.290792
vt 0.653525 0.229537
vt 0.650273 0.290922
vt 0.664743 0.235508
vt 0.378297 0.200184
vt 0.384915 0.251146
vt 0.372533 0.203176
vt 0.380425 0.252184
vt 0.749290 0.110265
vt 0.742911 0.061339
vt 0.756006 0.110613
vt 0.754306 0.056123
vt 0.154831 0.177637
vt 0.188215 0.225126
vt 0.164870 0.168273
vt 0.194925 0.223266
vt 0.169228 0.165685
vt 0.653525 0.349295
vt 0.643233 0.291077
vt 0.660085 0.346428
vt 0.348510 0.151296
vt 0.384177 0.196849
vt 0.388566 0.194065
vt 0.346716 0.156851
vt 0.343328 0.162848
vt 0.335685 0.170319
vt 0.368276 0.205117
vt 0.733433 0.155141
vt 0.743041 0.110323
vt 0.739498 0.155942
vt 0.750457 0.162817
vt 0.761500 0.111302
vt 0.181629 0.281455
vt 0.181629 0.226673
vt 0.188215 0.283704
vt 0.194925 0.284705
vt 0.199802 0.221629
vt 0.841025 0.260870
vt 0.848082 0.315256
vt 0.847975 0.262325
vt 0.686408 0.381143
vt 0.296047 0.137185
vt 0.297652 0.143655
vt 0.295813 0.156010
vt 0.339317 0.167711
vt 0.641297 0.041044
vt 0.647864 0.083239
vt 0.647782 0.042300
vt 0.654357 0.082768
vt 0.654273 0.041044
vt 0.716645 0.183869
vt 0.745697 0.158700
vt 0.176967 0.278635
vt 0.154831 0.324592
vt 0.164870 0.333083
vt 0.834174 0.315256
vt 0.834068 0.262325
vt 0.841134 0.314717
vt 0.848082 0.378083
vt 0.853008 0.316707
vt 0.247834 0.156213
vt 0.252563 0.161450
vt 0.297530 0.150530
vt 0.636454 0.133740
vt 0.641381 0.082768
vt 0.636454 0.081448
vt 0.647865 0.131976
vt 0.659313 0.133740
vt 0.659313 0.081448
vt 0.151952 0.318901
vt 0.109742 0.342387
vt 0.159560 0.329829
vt 0.829216 0.316708
vt 0.834174 0.378083
vt 0.841134 0.378630
vt 0.847975 0.430857
vt 0.212469 0.201337
vt 0.242523 0.152959
vt 0.219179 0.202338
vt 0.225764 0.204587
vt 0.255442 0.167141
vt 0.785092 0.044199
vt 0.814145 0.019031
vt 0.809151 0.014799
vt 0.641381 0.132440
vt 0.647782 0.173038
vt 0.654273 0.174288
vt 0.654357 0.132440
vt 0.068077 0.318331
vt 0.109864 0.335512
vt 0.111580 0.330032
vt 0.060678 0.329191
vt 0.111347 0.348857
vt 0.411288 0.149792
vt 0.444171 0.181640
vt 0.416563 0.145230
vt 0.841025 0.432317
vt 0.207592 0.264413
vt 0.207592 0.201912
vt 0.219179 0.260916
vt 0.769290 0.091598
vt 0.780333 0.040082
vt 0.774784 0.092287
vt 0.791292 0.046958
vt 0.781500 0.092635
vt 0.797356 0.047759
vt 0.071709 0.315723
vt 0.034861 0.282866
vt 0.064065 0.323194
vt 0.023217 0.289193
vt 0.058884 0.334747
vt 0.437611 0.184507
vt 0.454463 0.239857
vt 0.461242 0.240143
vt 0.450772 0.180919
vt 0.238166 0.320357
vt 0.212469 0.262776
vt 0.242523 0.317769
vt 0.252563 0.308405
vt 0.225764 0.259369
vt 0.776483 0.146777
vt 0.787879 0.141561
vt 0.787749 0.092577
vt 0.026969 0.233858
vt 0.039118 0.280925
vt 0.016061 0.235357
vt 0.029097 0.285858
vt 0.009252 0.235092
vt 0.442130 0.240554
vt 0.437611 0.298688
vt 0.447424 0.240013
vt 0.444171 0.301398
vt 0.613950 0.344002
vt 0.605288 0.383626
vt 0.612149 0.385705
vt 0.296047 0.342990
vt 0.247834 0.313349
vt 0.799630 0.188101
vt 0.781499 0.143793
vt 0.803105 0.182367
vt 0.814145 0.176534
vt 0.794007 0.140582
vt 0.840708 0.219572
vt 0.834333 0.253081
vt 0.840824 0.251574
vt 0.022478 0.234897
vt 0.029097 0.187727
vt 0.018827 0.179567
vt 0.003895 0.234129
vt 0.416563 0.346723
vt 0.422687 0.348857
vt 0.450772 0.302748
vt 0.607058 0.342631
vt 0.293091 0.348857
vt 0.297652 0.336125
vt 0.297530 0.330192
vt 0.847192 0.220466
vt 0.852121 0.222971
vt 0.834216 0.220466
vt 0.829263 0.222971
vt 0.023217 0.184066
vt 0.628665 0.283325
vt 0.620950 0.343282
vt 0.626032 0.340700
vt 0.093866 0.890677
vt 0.003895 0.975787
vt 0.057938 0.996093
vt 0.492328 0.203338
vt 0.597106 0.149278
vt 0.492759 0.149278
vt 0.596697 0.910451
vt 0.492328 0.996105
vt 0.596697 0.996105
vt 0.302155 0.890674
vt 0.248111 0.975787
vt 0.302155 0.996093
vt 0.604486 0.910451
vt 0.708855 0.996105
vt 0.708855 0.910451
vt 0.717078 0.249917
vt 0.820991 0.195890
vt 0.716645 0.195890
vt 0.820995 0.432317
vt 0.717080 0.378257
vt 0.716649 0.432317
vt 0.821427 0.378257
vt 0.430494 0.890686
vt 0.484538 0.975810
vt 0.484538 0.890691
vt 0.430494 0.996105
vt 0.597110 0.385705
vt 0.492330 0.331678
vt 0.492763 0.385705
vt 0.596676 0.331678
vt 0.150350 0.890683
vt 0.240322 0.975810
vt 0.240322 0.890691
vt 0.186278 0.996105
vt 0.057938 0.356647
vt 0.150350 0.462075
vt 0.186278 0.356659
vt 0.584439 0.085004
vt 0.549354 0.141489
vt 0.584440 0.141489
vt 0.240322 0.376964
vt 0.240322 0.462083
vt 0.302155 0.356647
vt 0.430494 0.462078
vt 0.430494 0.356659
vt 0.302155 0.462066
vt 0.484538 0.376964
vt 0.484538 0.462083
vt 0.604486 0.393495
vt 0.708855 0.479149
vt 0.708855 0.393495
vt 0.604486 0.479149
vt 0.248111 0.376942
vt 0.248111 0.890669
vt 0.492328 0.393495
vt 0.596697 0.479149
vt 0.596697 0.393495
vt 0.492328 0.479149
vt 0.003895 0.376942
vt 0.093866 0.462069
vt 0.003895 0.890669
vt 0.863461 0.003895
vt 0.919946 0.432508
vt 0.919946 0.003900
vt 0.702189 0.117804
vt 0.667103 0.174288
vt 0.702190 0.174288
vt 0.954810 0.557013
vt 0.989904 0.125710
vt 0.954810 0.125710
vt 0.954810 0.996105
vt 0.989904 0.564803
vt 0.954810 0.564803
vt 0.822847 0.856561
vt 0.855672 0.980337
vt 0.855672 0.856961
vt 0.868904 0.841357
vt 0.901346 0.857064
vt 0.895904 0.841357
vt 0.749461 0.841365
vt 0.772833 0.440106
vt 0.749461 0.440393
vt 0.863461 0.980467
vt 0.901346 0.980467
vt 0.822856 0.841124
vt 0.846249 0.841409
vt 0.914578 0.440298
vt 0.941578 0.841357
vt 0.941578 0.440298
vt 0.749469 0.857262
vt 0.782264 0.980237
vt 0.782264 0.856861
vt 0.799484 0.841410
vt 0.822856 0.440152
vt 0.799484 0.440438
vt 0.868190 0.996105
vt 0.896617 0.996105
vt 0.772833 0.841079
vt 0.846249 0.440437
vt 0.726067 0.841080
vt 0.909136 0.857064
vt 0.947020 0.980467
vt 0.947020 0.857064
vt 0.895904 0.440298
vt 0.868904 0.440298
vt 0.716645 0.856862
vt 0.749469 0.980638
vt 0.726067 0.440107
vt 0.457836 0.123834
vt 0.457836 0.096878
vt 0.434562 0.083527
vt 0.790053 0.980338
vt 0.822847 0.979937
vt 0.516945 0.141489
vt 0.541563 0.127367
vt 0.516945 0.084992
vt 0.909136 0.980467
vt 0.942291 0.996105
vt 0.822855 0.995804
vt 0.847484 0.996104
vt 0.724833 0.995805
vt 0.749462 0.996105
vt 0.774068 0.995804
vt 0.607641 0.224764
vt 0.834216 0.125147
vt 0.847309 0.092706
vt 0.628665 0.181650
vt 0.655566 0.290381
vt 0.646924 0.350016
vt 0.199802 0.284131
vt 0.681133 0.385705
vt 0.721639 0.188101
vt 0.853008 0.376608
vt 0.829216 0.376609
vt 0.230426 0.207407
vt 0.641297 0.174288
vt 0.834068 0.430857
vt 0.018827 0.291978
vt 0.432954 0.295427
vt 0.808402 0.178202
vt 0.034861 0.189652
vt 0.411288 0.341903
vt 0.348116 0.346169
vt 0.596674 0.203338
vt 0.492328 0.910451
vt 0.604486 0.996105
vt 0.821425 0.249917
vt 0.549353 0.085004
vt 0.248111 0.462061
vt 0.003895 0.462060
vt 0.863461 0.432503
vt 0.667102 0.117804
vt 0.989904 0.557013
vt 0.989904 0.996105
vt 0.863461 0.857064
vt 0.914578 0.841357
vt 0.790053 0.856962
vt 0.716645 0.980238
vt 0.411288 0.097132
vt 0.411288 0.124089
vt 0.434562 0.137440
vt 0.541563 0.099118
vt 0.492328 0.099113
vt 0.492328 0.127362
vt 0.913865 0.996105
vt 0.798248 0.996105
vn 0.841250 -0.540623 -0.004943
vn 0.869298 0.004516 -0.494268
vn 1.000000 -0.000005 -0.000001
vn 0.731302 -0.465443 -0.498558
vn 0.509083 0.007869 -0.860681
vn 0.428271 -0.267353 -0.863195
vn 0.010062 0.009144 -0.999908
vn 0.509083 0.007869 -0.860681
vn 0.008468 0.003702 -0.999957
vn -0.494729 0.007947 -0.869011
vn -0.416189 0.275405 -0.866567
vn -0.864995 0.004582 -0.501760
vn -0.494729 0.007947 -0.869011
vn -0.841258 0.540612 0.004941
vn -1.000000 -0.000003 -0.000004
vn -0.864994 -0.004590 0.501761
vn -0.416186 0.259514 0.871459
vn -0.494725 -0.007941 0.869013
vn -0.416186 0.259514 0.871459
vn 0.010065 -0.009141 0.999908
vn -0.494725 -0.007941 0.869013
vn 0.428272 -0.283093 0.858162
vn 0.509080 -0.007869 0.860683
vn 0.731303 -0.474483 0.489961
vn 0.869297 -0.004522 0.494269
vn 0.869297 -0.004522 0.494269
vn 0.415413 -0.909595 -0.008321
vn 0.731302 -0.465443 -0.498558
vn 0.841250 -0.540623 -0.004943
vn 0.211479 -0.455192 -0.864915
vn 0.428271 -0.267353 -0.863195
vn 0.211479 -0.455192 -0.864915
vn 0.004182 -0.000014 -0.999991
vn -0.416189 0.275405 -0.866567
vn -0.205512 0.457942 -0.864901
vn -0.727682 0.472216 -0.497484
vn -0.727682 0.472216 -0.497484
vn -0.415414 0.909595 0.008315
vn -0.415414 0.909595 0.008315
vn -0.727683 0.463040 0.506035
vn -0.841258 0.540612 0.004941
vn -0.205512 0.442053 0.873129
vn -0.416186 0.259514 0.871459
vn 0.008464 -0.014582 0.999858
vn 0.008464 -0.014582 0.999858
vn 0.211477 -0.470926 0.856450
vn 0.731303 -0.474483 0.489961
vn 0.415413 -0.909595 -0.008321
vn -0.142311 -0.989781 -0.009045
vn 0.361120 -0.786192 -0.501492
vn -0.072453 -0.496011 -0.865288
vn 0.004182 -0.000014 -0.999991
vn 0.070409 0.497610 -0.864538
vn -0.359335 0.791385 -0.494558
vn 0.123100 0.860743 -0.493931
vn -0.415414 0.909595 0.008315
vn 0.123102 0.851565 0.509591
vn -0.359336 0.782210 0.508944
vn 0.070406 0.481719 0.873493
vn 0.004180 -0.018294 0.999824
vn 0.004180 -0.018294 0.999824
vn -0.072453 -0.511752 0.856073
vn 0.361122 -0.795228 0.487035
vn -0.123709 -0.864935 0.486399
vn 0.415413 -0.909595 -0.008321
vn -0.569266 -0.652430 -0.500271
vn -0.123712 -0.855895 -0.502135
vn -0.333380 -0.376852 -0.864199
vn -0.333380 -0.376852 -0.864199
vn -0.001431 -0.000818 -0.999999
vn -0.072453 -0.496011 -0.865288
vn -0.006590 0.001535 -0.999977
vn 0.323972 0.381815 -0.865597
vn 0.654858 0.755720 0.006914
vn 0.142315 0.989780 0.009050
vn 0.654858 0.755720 0.006914
vn 0.142315 0.989780 0.009050
vn 0.566454 0.649106 0.507732
vn -0.006592 -0.016749 0.999838
vn -0.001431 -0.019102 0.999816
vn -0.006592 -0.016749 0.999838
vn -0.001431 -0.019102 0.999816
vn -0.333378 -0.392592 0.857164
vn -0.569267 -0.661466 0.488260
vn -0.142311 -0.989781 -0.009045
vn -0.654857 -0.755721 -0.006909
vn -0.834084 -0.240382 -0.496508
vn -0.569266 -0.652430 -0.500271
vn -0.488462 -0.135549 -0.861993
vn -0.488462 -0.135549 -0.861993
vn -0.009658 0.006305 -0.999933
vn 0.829957 0.248277 -0.499529
vn 0.566448 0.658282 -0.495783
vn 0.566448 0.658282 -0.495783
vn 0.959492 0.281723 0.002575
vn 0.654858 0.755720 0.006914
vn 0.829958 0.239100 0.503986
vn 0.566454 0.649106 0.507732
vn 0.829958 0.239100 0.503986
vn 0.323974 0.365929 0.872432
vn 0.323974 0.365929 0.872432
vn -0.009659 -0.011978 0.999882
vn -0.834087 -0.249419 0.492026
vn -0.834087 -0.249419 0.492026
vn -0.569267 -0.661466 0.488260
vn -0.959491 -0.281727 -0.002575
vn -0.834088 0.249417 -0.492025
vn -0.488462 -0.135549 -0.861993
vn -0.488467 0.151288 -0.859367
vn -0.009659 0.011976 -0.999882
vn 0.474686 0.147321 -0.867738
vn 0.474681 -0.131430 -0.870289
vn 0.829957 0.248277 -0.499529
vn 0.474686 0.147321 -0.867738
vn 0.959494 -0.281718 -0.002573
vn 0.474684 -0.147318 0.867740
vn 0.474685 0.131430 0.870287
vn 0.474685 0.131430 0.870287
vn -0.009657 -0.006307 0.999933
vn -0.488463 -0.151292 0.859369
vn -0.488463 -0.151292 0.859369
vn -0.834087 0.240383 0.496503
vn -0.959494 0.281718 0.002577
vn -0.569272 0.661467 -0.488253
vn -0.569272 0.661467 -0.488253
vn -0.834088 0.249417 -0.492025
vn -0.333380 0.392597 -0.857161
vn -0.006591 0.016748 -0.999838
vn 0.474681 -0.131430 -0.870289
vn 0.323972 -0.365924 -0.872434
vn 0.829959 -0.239094 -0.503986
vn 0.474681 -0.131430 -0.870289
vn 0.829959 -0.239094 -0.503986
vn 0.654859 -0.755719 -0.006915
vn 0.566448 -0.658282 0.495784
vn 0.829957 -0.248276 0.499530
vn 0.566448 -0.658282 0.495784
vn 0.474684 -0.147318 0.867740
vn 0.829957 -0.248276 0.499530
vn -0.006591 -0.001536 0.999977
vn -0.488465 0.135548 0.861991
vn -0.488465 0.135548 0.861991
vn -0.569267 0.652431 0.500269
vn -0.834087 0.240383 0.496503
vn -0.654859 0.755719 0.006902
vn -0.142313 0.989780 0.009049
vn -0.654859 0.755719 0.006902
vn -0.072450 0.511745 -0.856077
vn -0.001434 0.019108 -0.999816
vn -0.006591 0.016748 -0.999838
vn 0.070408 -0.481722 -0.873491
vn 0.566454 -0.649105 -0.507733
vn 0.123098 -0.851567 -0.509588
vn 0.654859 -0.755719 -0.006915
vn 0.654859 -0.755719 -0.006915
vn 0.123102 -0.860743 0.493931
vn 0.323978 -0.381816 0.865595
vn -0.001432 0.000815 0.999999
vn -0.333383 0.376856 0.864196
vn -0.333383 0.376856 0.864196
vn -0.123715 0.855896 0.502132
vn -0.142313 0.989780 0.009049
vn -0.654859 0.755719 0.006902
vn 0.415418 0.909592 0.008315
vn -0.123712 0.864931 -0.486405
vn 0.361123 0.795229 -0.487032
vn 0.004179 0.018293 -0.999824
vn -0.001434 0.019108 -0.999816
vn 0.004179 0.018293 -0.999824
vn -0.359333 -0.782207 -0.508951
vn 0.142312 -0.989780 -0.009053
vn -0.415413 -0.909595 -0.008313
vn 0.142312 -0.989780 -0.009053
vn -0.205516 -0.457937 0.864903
vn 0.070408 -0.497615 0.864536
vn 0.004181 0.000015 0.999991
vn -0.001432 0.000815 0.999999
vn 0.211480 0.455187 0.864916
vn -0.072450 0.496010 0.865289
vn 0.361120 0.786191 0.501493
vn 0.841257 0.540613 0.004943
vn 0.361123 0.795229 -0.487032
vn 0.415418 0.909592 0.008315
vn 0.428271 0.283087 -0.858164
vn 0.211482 0.470933 -0.856444
vn 0.008461 0.014580 -0.999858
vn -0.205517 -0.442058 -0.873125
vn -0.416188 -0.259509 -0.871460
vn -0.841253 -0.540620 -0.004938
vn -0.415413 -0.909595 -0.008313
vn -0.841253 -0.540620 -0.004938
vn -0.359329 -0.791386 0.494561
vn -0.415413 -0.909595 -0.008313
vn -0.359329 -0.791386 0.494561
vn -0.416192 -0.275400 0.866568
vn 0.428271 0.267353 0.863196
vn 0.211480 0.455187 0.864916
vn 0.731305 0.465439 0.498558
vn 0.841257 0.540613 0.004943
vn 0.415418 0.909592 0.008315
vn 0.731303 0.474479 -0.489964
vn 0.731303 0.474479 -0.489964
vn 0.008461 0.014580 -0.999858
vn -0.416188 -0.259509 -0.871460
vn -0.727676 -0.463050 -0.506036
vn -0.416188 -0.259509 -0.871460
vn -0.727680 -0.472223 0.497481
vn -0.416192 -0.275400 0.866568
vn 0.008465 -0.003702 0.999957
vn 0.509080 -0.007869 0.860683
vn 0.731305 0.465439 0.498558
vn 0.428271 0.267353 0.863196
vn 0.301513 0.904535 -0.301508
vn -0.658905 0.598768 0.455325
vn -0.133605 0.668805 0.731334
vn -0.133600 -0.668804 0.731336
vn -0.658905 0.598768 0.455325
vn -0.658890 -0.598776 0.455337
vn -0.707108 -0.707105 0.000000
vn -0.658905 0.598768 -0.455325
vn -0.658891 -0.598775 -0.455336
vn -0.000000 -1.000000 0.000000
vn 0.658902 -0.598767 0.455330
vn 0.133603 -0.668803 0.731336
vn 0.707119 0.707094 -0.000000
vn 0.658902 -0.598767 0.455330
vn 0.707100 -0.707114 0.000000
vn 0.133601 -0.668804 -0.731335
vn 0.658905 0.598768 -0.455325
vn 0.658890 -0.598776 -0.455336
vn -0.658905 0.598768 -0.455325
vn -0.133604 -0.668803 -0.731336
vn -0.658891 -0.598775 -0.455336
vn -0.133602 0.668803 -0.731337
vn 0.000000 -1.000000 0.000000
vn -0.658890 -0.598776 0.455337
vn -0.707114 -0.707100 0.000000
vn -0.133600 -0.668804 0.731336
vn 0.658893 0.598777 0.455332
vn 0.133603 -0.668803 0.731336
vn 0.658902 -0.598767 0.455330
vn 0.133603 0.668803 0.731337
vn -0.301507 0.904536 -0.301508
vn 0.658893 0.598777 0.455332
vn 0.707119 0.707094 -0.000000
vn 0.133603 0.668803 0.731337
vn -0.133602 0.668803 -0.731337
vn -0.301515 0.904533 0.301510
vn 0.133605 0.668805 -0.731334
vn 0.301510 0.904535 0.301510
vn -0.577350 0.577350 0.577351
vn -0.301515 0.904533 0.301510
vn 0.658905 0.598768 -0.455325
vn 0.707100 0.707113 -0.000000
vn 0.133601 -0.668804 -0.731335
vn 0.000000 -1.000000 0.000000
vn -0.133604 -0.668803 -0.731336
vn -0.000000 -1.000000 0.000000
vn -0.658891 -0.598775 -0.455336
vn -0.707108 -0.707105 0.000000
vn 0.658905 0.598768 -0.455325
vn 0.707114 -0.707099 0.000000
vn 0.658890 -0.598776 -0.455336
vn 0.707100 0.707113 -0.000000
vn 0.658890 -0.598776 -0.455336
vn 0.707100 -0.707114 0.000000
vn -0.658905 0.598768 0.455325
vn -0.707114 -0.707100 0.000000
vn -0.658890 -0.598776 0.455337
vn -0.707105 0.707108 -0.000000
vn -0.658905 0.598768 -0.455325
vn 0.301510 0.904535 0.301510
vn -0.707105 0.707108 -0.000000
vn 0.577356 0.577348 0.577347
vn -0.577356 0.577348 -0.577347
vn -0.577350 0.577350 0.577351
vn -0.301507 0.904536 -0.301508
vn 0.577350 0.577350 -0.577351
vn 0.301513 0.904535 -0.301508
vn 0.301513 0.904535 -0.301508
vn 0.577356 0.577348 0.577347
vn 0.301510 0.904535 0.301510
vn -0.301515 0.904533 0.301510
vn -0.577356 0.577348 -0.577347
vn -0.301507 0.904536 -0.301508
vn 0.000007 -0.272391 0.962187
vn -0.838874 0.249643 0.483704
vn -0.832681 -0.273592 0.481445
vn -0.817445 -0.329029 0.472784
vn -0.832686 -0.276014 -0.480052
vn -0.817446 -0.331401 -0.471121
vn 0.000002 -0.332589 -0.943072
vn 0.686247 -0.610982 -0.394672
vn -0.000004 -0.611974 -0.790878
vn -0.838874 0.249643 0.483704
vn -0.838880 0.247202 -0.484944
vn 0.000003 -0.327846 0.944731
vn -0.817445 -0.329029 0.472784
vn 0.686247 -0.610982 -0.394672
vn 0.817446 -0.329028 0.472781
vn 0.686242 -0.609000 0.397732
vn -0.000008 -0.277223 -0.960806
vn 0.838883 0.247206 -0.484937
vn 0.832683 -0.276011 -0.480059
vn 0.817446 -0.329028 0.472781
vn 0.000000 -0.607996 0.793940
vn 0.686242 -0.609000 0.397732
vn -0.515894 0.803949 0.295837
vn -0.515897 0.802453 -0.299866
vn 0.817447 -0.331402 -0.471119
vn -0.686242 -0.609000 0.397732
vn -0.817446 -0.331401 -0.471121
vn 0.832683 -0.276011 -0.480059
vn 0.838873 0.249643 0.483704
vn 0.832686 -0.273587 0.481440
vn -0.686247 -0.610985 -0.394667
vn -0.686242 -0.609000 0.397732
vn -0.832686 -0.276014 -0.480052
vn 0.000008 0.245991 -0.969272
vn -0.686247 -0.610985 -0.394667
vn 0.000000 -0.607996 0.793940
vn -0.686242 -0.609000 0.397732
vn -0.686247 -0.610985 -0.394667
vn 0.838873 0.249643 0.483704
vn -0.000000 0.250851 0.968026
vn -0.000000 0.804697 0.593686
vn 0.515894 0.803949 0.295837
vn -0.000000 0.801702 -0.597724
vn 0.838883 0.247206 -0.484937
vn 0.515894 0.803949 0.295837
vn -0.000000 0.804697 0.593686
vn -0.515894 0.803949 0.295837
vn -0.515897 0.802453 -0.299866
vn -0.000000 0.801702 -0.597724
vn 0.515896 0.802453 -0.299866
vn 0.428271 -0.267353 -0.863195
vn -0.727683 0.463040 0.506035
vn -0.359335 0.791385 -0.494558
vn 0.361122 -0.795228 0.487035
vn -0.001431 -0.000818 -0.999999
vn -0.654857 -0.755721 -0.006909
vn -0.654857 -0.755721 -0.006909
vn -0.834084 -0.240382 -0.496508
vn 0.474685 0.131430 0.870287
vn -0.488467 0.151288 -0.859367
vn -0.488465 0.135548 0.861991
vn 0.323972 -0.365924 -0.872434
vn 0.566454 -0.649105 -0.507733
vn -0.569267 0.652431 0.500269
vn -0.072450 0.496010 0.865289
vn 0.004181 0.000015 0.999991
vn -0.727676 -0.463050 -0.506036
vn -0.727680 -0.472223 0.497481
vn 0.428271 0.267353 0.863196
vn 0.869298 0.004516 -0.494268
vn -0.133605 0.668805 0.731334
vn -0.707107 0.707107 -0.000000
vn 0.658893 0.598777 0.455332
vn 0.133605 0.668805 -0.731334
vn 0.577356 0.577348 0.577347
vn 0.707114 -0.707099 0.000000
vn -0.707107 0.707107 -0.000000
vn 0.577350 0.577350 -0.577351
vn -0.577356 0.577348 -0.577347
vn 0.577350 0.577350 -0.577351
vn -0.577350 0.577350 0.577351
vn -0.832681 -0.273592 0.481445
vn 0.817447 -0.331402 -0.471119
vn 0.832686 -0.273587 0.481440
vn -0.838880 0.247202 -0.484944
vn -0.000004 -0.611974 -0.790878
vn 0.686247 -0.610982 -0.394672
vn 0.686242 -0.609000 0.397732
vn 0.515896 0.802453 -0.299866
vn -0.515897 0.802453 -0.299866
vn -0.515894 0.803949 0.295837
vn 0.515896 0.802453 -0.299866
vn 0.515894 0.803949 0.295837
f 1/1/1 2/2/2 3/3/3
f 4/4/4 5/5/5 2/2/2
f 6/6/6 7/7/7 8/8/8
f 9/9/9 10/10/10 7/7/7
f 11/11/11 12/12/12 13/13/13
f 12/12/12 14/14/14 15/15/15
f 14/14/14 16/16/16 15/15/15
f 16/16/16 17/17/17 18/18/18
f 19/19/19 20/20/20 21/21/21
f 20/20/20 22/22/22 23/23/23
f 23/23/23 24/24/24 25/25/25
f 26/26/26 1/1/1 3/3/3
f 27/27/27 28/28/28 29/29/29
f 28/28/28 30/30/30 31/31/31
f 32/32/32 9/9/9 6/6/6
f 33/33/33 34/34/34 9/9/9
f 35/35/35 36/36/36 34/34/34
f 37/37/37 38/38/38 14/14/14
f 39/39/39 40/40/40 41/41/41
f 40/40/40 42/42/42 43/43/43
f 42/42/42 44/44/44 43/43/43
f 45/45/45 46/46/46 22/22/22
f 46/46/46 24/24/24 22/22/22
f 47/47/47 48/48/48 1/1/1
f 49/49/49 50/50/50 27/27/27
f 50/50/50 51/51/51 30/30/30
f 51/51/51 52/52/52 30/30/30
f 33/33/33 53/53/53 35/35/35
f 53/53/53 54/54/54 35/35/35
f 55/55/55 56/56/56 54/54/54
f 39/39/39 57/57/57 58/58/58
f 58/58/58 59/59/59 42/42/42
f 59/59/59 60/60/60 42/42/42
f 61/61/61 62/62/62 46/46/46
f 62/62/62 63/63/63 46/46/46
f 64/64/64 65/65/65 63/63/63
f 49/49/49 66/66/66 67/67/67
f 67/67/67 68/68/68 51/51/51
f 69/69/69 70/70/70 71/71/71
f 72/72/72 53/53/53 70/70/70
f 73/73/73 55/55/55 53/53/53
f 55/55/55 74/74/74 75/75/75
f 76/76/76 57/57/57 77/77/77
f 78/78/78 59/59/59 57/57/57
f 59/59/59 79/79/79 80/80/80
f 81/81/81 62/62/62 82/82/82
f 83/83/83 64/64/64 62/62/62
f 84/84/84 85/85/85 64/64/64
f 86/86/86 87/87/87 88/88/88
f 66/66/66 89/89/89 68/68/68
f 90/90/90 72/72/72 69/69/69
f 91/91/91 73/73/73 72/72/72
f 73/73/73 92/92/92 93/93/93
f 94/94/94 95/95/95 96/96/96
f 96/96/96 97/97/97 98/98/98
f 99/99/99 100/100/100 78/78/78
f 101/101/101 102/102/102 81/81/81
f 102/102/102 83/83/83 81/81/81
f 83/83/83 103/103/103 84/84/84
f 104/104/104 86/86/86 105/105/105
f 106/106/106 107/107/107 87/87/87
f 107/107/107 108/108/108 87/87/87
f 109/109/109 91/91/91 90/90/90
f 110/110/110 111/111/111 91/91/91
f 112/112/112 113/113/113 114/114/114
f 113/113/113 115/115/115 95/95/95
f 115/115/115 97/97/97 95/95/95
f 97/97/97 116/116/116 117/117/117
f 118/118/118 119/119/119 102/102/102
f 119/119/119 120/120/120 102/102/102
f 121/121/121 122/122/122 104/104/104
f 122/122/122 106/106/106 104/104/104
f 123/123/123 124/124/124 107/107/107
f 125/125/125 109/109/109 126/126/126
f 127/127/127 110/110/110 109/109/109
f 128/128/128 129/129/129 110/110/110
f 130/130/130 131/131/131 132/132/132
f 133/133/133 134/134/134 115/115/115
f 115/115/115 135/135/135 136/136/136
f 137/137/137 138/138/138 139/139/139
f 138/138/138 140/140/140 119/119/119
f 140/140/140 141/141/141 119/119/119
f 142/142/142 143/143/143 144/144/144
f 122/122/122 145/145/145 123/123/123
f 146/146/146 125/125/125 147/147/147
f 125/125/125 148/148/148 127/127/127
f 148/148/148 128/128/128 127/127/127
f 149/149/149 130/130/130 150/150/150
f 151/151/151 152/152/152 130/130/130
f 153/153/153 154/154/154 152/152/152
f 155/155/155 156/156/156 137/137/137
f 156/156/156 157/157/157 137/137/137
f 157/157/157 158/158/158 140/140/140
f 158/158/158 159/159/159 140/140/140
f 160/160/160 161/161/161 143/143/143
f 143/143/143 162/162/162 163/163/163
f 164/164/164 165/165/165 146/146/146
f 166/166/166 148/148/148 165/165/165
f 148/148/148 167/167/167 168/168/168
f 169/169/169 151/151/151 149/149/149
f 151/151/151 170/170/170 153/153/153
f 170/170/170 171/171/171 153/153/153
f 172/172/172 156/156/156 173/173/173
f 156/156/156 174/174/174 175/175/175
f 175/175/175 176/176/176 158/158/158
f 177/177/177 178/178/178 179/179/179
f 178/178/178 161/161/161 179/179/179
f 180/180/180 162/162/162 161/161/161
f 181/181/181 182/182/182 183/183/183
f 166/166/166 184/184/184 185/185/185
f 184/184/184 167/167/167 185/185/185
f 186/186/186 187/187/187 169/169/169
f 188/188/188 170/170/170 187/187/187
f 170/170/170 189/189/189 190/190/190
f 191/191/191 192/192/192 193/193/193
f 194/194/194 195/195/195 174/174/174
f 195/195/195 176/176/176 174/174/174
f 176/176/176 196/196/196 197/197/197
f 178/178/178 198/198/198 180/180/180
f 180/180/180 199/199/199 200/200/200
f 3/3/3 201/201/201 181/181/181
f 202/202/202 8/8/8 184/184/184
f 8/8/8 203/203/203 184/184/184
f 7/7/7 204/204/204 203/203/203
f 13/13/13 205/205/205 206/206/206
f 205/205/205 15/15/15 191/191/191
f 191/191/191 16/16/16 207/207/207
f 207/207/207 18/18/18 208/208/208
f 21/21/21 209/209/209 195/195/195
f 209/209/209 23/23/23 196/196/196
f 210/210/210 211/211/211 212/212/212
f 211/211/211 3/3/3 181/181/181
f 213/213/213 214/214/214 215/215/215
f 216/216/216 217/217/217 218/218/218
f 219/219/219 220/220/220 221/221/221
f 222/222/222 223/223/223 224/224/224
f 225/225/225 226/226/226 227/227/227
f 228/228/228 229/229/229 230/230/230
f 231/231/231 232/232/232 233/233/233
f 234/234/234 228/228/228 232/232/232
f 235/235/235 236/236/236 237/237/237
f 222/222/222 238/238/238 235/235/235
f 239/239/239 240/240/240 241/241/241
f 242/242/242 216/216/216 240/240/240
f 243/243/243 244/244/244 245/245/245
f 213/213/213 246/246/246 243/243/243
f 247/247/247 248/248/248 249/249/249
f 250/250/250 251/251/251 252/252/252
f 253/253/253 248/248/248 254/254/254
f 248/248/248 245/245/245 254/254/254
f 255/255/255 256/256/256 257/257/257
f 258/258/258 235/235/235 256/256/256
f 259/259/259 256/256/256 260/260/260
f 256/256/256 237/237/237 260/260/260
f 261/261/261 262/262/262 263/263/263
f 264/264/264 227/227/227 262/262/262
f 265/265/265 258/258/258 255/255/255
f 258/258/258 266/266/266 222/222/222
f 267/267/267 268/268/268 269/269/269
f 270/270/270 219/219/219 268/268/268
f 271/271/271 272/272/272 247/247/247
f 272/272/272 273/273/273 213/213/213
f 274/274/274 275/275/275 276/276/276
f 277/277/277 278/278/278 279/279/279
f 280/280/280 281/281/281 282/282/282
f 283/283/283 284/284/284 285/285/285
f 286/286/286 287/287/287 288/288/288
f 289/289/289 290/290/290 291/291/291
f 292/292/292 293/293/293 294/294/294
f 290/290/290 295/295/295 296/296/296
f 297/297/297 288/288/288 298/298/298
f 299/299/299 300/300/300 301/301/301
f 302/302/302 303/303/303 304/304/304
f 305/305/305 286/286/286 297/297/297
f 305/305/305 306/306/306 307/307/307
f 296/296/296 308/308/308 309/309/309
f 310/310/310 302/302/302 304/304/304
f 306/306/306 298/298/298 311/311/311
f 312/312/312 302/302/302 292/292/292
f 313/313/313 314/314/314 315/315/315
f 289/289/289 316/316/316 317/317/317
f 318/318/318 319/319/319 302/302/302
f 300/300/300 313/313/313 315/315/315
f 312/312/312 294/294/294 320/320/320
f 321/321/321 322/322/322 323/323/323
f 286/286/286 324/324/324 325/325/325
f 326/326/326 327/327/327 328/328/328
f 329/329/329 330/330/330 314/314/314
f 287/287/287 331/331/331 332/332/332
f 319/319/319 333/333/333 334/334/334
f 319/319/319 335/335/335 303/303/303
f 324/324/324 331/331/331 325/325/325
f 1/1/1 4/4/4 2/2/2
f 4/4/4 336/336/336 5/5/5
f 6/6/6 9/9/9 7/7/7
f 9/9/9 34/34/34 10/10/10
f 11/11/11 37/37/37 12/12/12
f 12/12/12 37/37/37 14/14/14
f 14/14/14 337/337/337 16/16/16
f 16/16/16 337/337/337 17/17/17
f 19/19/19 45/45/45 20/20/20
f 20/20/20 45/45/45 22/22/22
f 23/23/23 22/22/22 24/24/24
f 26/26/26 47/47/47 1/1/1
f 27/27/27 50/50/50 28/28/28
f 28/28/28 50/50/50 30/30/30
f 32/32/32 33/33/33 9/9/9
f 33/33/33 35/35/35 34/34/34
f 35/35/35 54/54/54 36/36/36
f 37/37/37 338/338/338 38/38/38
f 39/39/39 58/58/58 40/40/40
f 40/40/40 58/58/58 42/42/42
f 42/42/42 60/60/60 44/44/44
f 45/45/45 61/61/61 46/46/46
f 46/46/46 63/63/63 24/24/24
f 47/47/47 339/339/339 48/48/48
f 49/49/49 67/67/67 50/50/50
f 50/50/50 67/67/67 51/51/51
f 51/51/51 340/340/340 52/52/52
f 33/33/33 70/70/70 53/53/53
f 53/53/53 55/55/55 54/54/54
f 55/55/55 75/75/75 56/56/56
f 39/39/39 77/77/77 57/57/57
f 58/58/58 57/57/57 59/59/59
f 59/59/59 80/80/80 60/60/60
f 61/61/61 82/82/82 62/62/62
f 62/62/62 64/64/64 63/63/63
f 64/64/64 85/85/85 65/65/65
f 49/49/49 341/341/341 66/66/66
f 67/67/67 66/66/66 68/68/68
f 69/69/69 72/72/72 70/70/70
f 72/72/72 73/73/73 53/53/53
f 73/73/73 93/93/93 55/55/55
f 55/55/55 93/93/93 74/74/74
f 76/76/76 78/78/78 57/57/57
f 78/78/78 100/100/100 59/59/59
f 59/59/59 100/100/100 79/79/79
f 81/81/81 83/83/83 62/62/62
f 83/83/83 84/84/84 64/64/64
f 84/84/84 342/342/342 85/85/85
f 86/86/86 106/106/106 87/87/87
f 66/66/66 343/343/343 89/89/89
f 90/90/90 91/91/91 72/72/72
f 91/91/91 111/111/111 73/73/73
f 73/73/73 111/111/111 92/92/92
f 94/94/94 113/113/113 95/95/95
f 96/96/96 95/95/95 97/97/97
f 99/99/99 344/344/344 100/100/100
f 101/101/101 118/118/118 102/102/102
f 102/102/102 120/120/120 83/83/83
f 83/83/83 120/120/120 103/103/103
f 104/104/104 106/106/106 86/86/86
f 106/106/106 123/123/123 107/107/107
f 107/107/107 345/345/345 108/108/108
f 109/109/109 110/110/110 91/91/91
f 110/110/110 129/129/129 111/111/111
f 112/112/112 133/133/133 113/113/113
f 113/113/113 133/133/133 115/115/115
f 115/115/115 136/136/136 97/97/97
f 97/97/97 136/136/136 116/116/116
f 118/118/118 138/138/138 119/119/119
f 119/119/119 141/141/141 120/120/120
f 121/121/121 346/346/346 122/122/122
f 122/122/122 123/123/123 106/106/106
f 123/123/123 145/145/145 124/124/124
f 125/125/125 127/127/127 109/109/109
f 127/127/127 128/128/128 110/110/110
f 128/128/128 347/347/347 129/129/129
f 130/130/130 152/152/152 131/131/131
f 133/133/133 348/348/348 134/134/134
f 115/115/115 134/134/134 135/135/135
f 137/137/137 157/157/157 138/138/138
f 138/138/138 157/157/157 140/140/140
f 140/140/140 159/159/159 141/141/141
f 142/142/142 160/160/160 143/143/143
f 122/122/122 349/349/349 145/145/145
f 146/146/146 165/165/165 125/125/125
f 125/125/125 165/165/165 148/148/148
f 148/148/148 168/168/168 128/128/128
f 149/149/149 151/151/151 130/130/130
f 151/151/151 153/153/153 152/152/152
f 153/153/153 171/171/171 154/154/154
f 155/155/155 173/173/173 156/156/156
f 156/156/156 175/175/175 157/157/157
f 157/157/157 175/175/175 158/158/158
f 158/158/158 350/350/350 159/159/159
f 160/160/160 179/179/179 161/161/161
f 143/143/143 161/161/161 162/162/162
f 164/164/164 166/166/166 165/165/165
f 166/166/166 185/185/185 148/148/148
f 148/148/148 185/185/185 167/167/167
f 169/169/169 187/187/187 151/151/151
f 151/151/151 187/187/187 170/170/170
f 170/170/170 190/190/190 171/171/171
f 172/172/172 194/194/194 156/156/156
f 156/156/156 194/194/194 174/174/174
f 175/175/175 174/174/174 176/176/176
f 177/177/177 351/351/351 178/178/178
f 178/178/178 180/180/180 161/161/161
f 180/180/180 200/200/200 162/162/162
f 181/181/181 201/201/201 182/182/182
f 166/166/166 202/202/202 184/184/184
f 184/184/184 203/203/203 167/167/167
f 186/186/186 188/188/188 187/187/187
f 188/188/188 352/352/352 170/170/170
f 170/170/170 352/352/352 189/189/189
f 191/191/191 207/207/207 192/192/192
f 194/194/194 353/353/353 195/195/195
f 195/195/195 209/209/209 176/176/176
f 176/176/176 209/209/209 196/196/196
f 178/178/178 354/354/354 198/198/198
f 180/180/180 198/198/198 199/199/199
f 3/3/3 2/2/2 201/201/201
f 202/202/202 355/355/355 8/8/8
f 8/8/8 7/7/7 203/203/203
f 7/7/7 10/10/10 204/204/204
f 13/13/13 12/12/12 205/205/205
f 205/205/205 12/12/12 15/15/15
f 191/191/191 15/15/15 16/16/16
f 207/207/207 16/16/16 18/18/18
f 21/21/21 20/20/20 209/209/209
f 209/209/209 20/20/20 23/23/23
f 210/210/210 26/26/26 211/211/211
f 211/211/211 26/26/26 3/3/3
f 213/213/213 273/273/273 214/214/214
f 216/216/216 356/356/356 217/217/217
f 219/219/219 357/357/357 220/220/220
f 222/222/222 266/266/266 223/223/223
f 225/225/225 358/358/358 226/226/226
f 228/228/228 359/359/359 229/229/229
f 231/231/231 234/234/234 232/232/232
f 234/234/234 359/359/359 228/228/228
f 235/235/235 238/238/238 236/236/236
f 222/222/222 224/224/224 238/238/238
f 239/239/239 242/242/242 240/240/240
f 242/242/242 356/356/356 216/216/216
f 243/243/243 246/246/246 244/244/244
f 213/213/213 215/215/215 246/246/246
f 247/247/247 272/272/272 248/248/248
f 250/250/250 360/360/360 251/251/251
f 253/253/253 249/249/249 248/248/248
f 248/248/248 243/243/243 245/245/245
f 255/255/255 258/258/258 256/256/256
f 258/258/258 222/222/222 235/235/235
f 259/259/259 257/257/257 256/256/256
f 256/256/256 235/235/235 237/237/237
f 261/261/261 264/264/264 262/262/262
f 264/264/264 225/225/225 227/227/227
f 265/265/265 361/361/361 258/258/258
f 258/258/258 361/361/361 266/266/266
f 267/267/267 270/270/270 268/268/268
f 270/270/270 357/357/357 219/219/219
f 271/271/271 362/362/362 272/272/272
f 272/272/272 362/362/362 273/273/273
f 274/274/274 363/363/363 275/275/275
f 277/277/277 364/364/364 278/278/278
f 280/280/280 365/365/365 281/281/281
f 283/283/283 366/366/366 284/284/284
f 286/286/286 325/325/325 287/287/287
f 289/289/289 367/367/367 290/290/290
f 292/292/292 310/310/310 293/293/293
f 290/290/290 367/367/367 295/295/295
f 297/297/297 286/286/286 288/288/288
f 299/299/299 368/368/368 300/300/300
f 302/302/302 319/319/319 303/303/303
f 305/305/305 369/369/369 286/286/286
f 305/305/305 297/297/297 306/306/306
f 296/296/296 295/295/295 308/308/308
f 310/310/310 292/292/292 302/302/302
f 306/306/306 297/297/297 298/298/298
f 312/312/312 318/318/318 302/302/302
f 313/313/313 329/329/329 314/314/314
f 289/289/289 291/291/291 316/316/316
f 318/318/318 370/370/370 319/319/319
f 300/300/300 368/368/368 313/313/313
f 312/312/312 292/292/292 294/294/294
f 323/323/323 371/371/371 321/321/321
f 371/371/371 372/372/372 321/321/321
f 372/372/372 373/373/373 321/321/321
f 286/286/286 369/369/369 324/324/324
f 327/327/327 374/374/374 328/328/328
f 328/328/328 375/375/375 376/376/376
f 376/376/376 326/326/326 328/328/328
f 329/329/329 377/377/377 330/330/330
f 287/287/287 325/325/325 331/331/331
f 319/319/319 370/370/370 333/333/333
f 319/319/319 334/334/334 335/335/335
f 324/324/324 378/378/378 331/331/331
