# Cube -- imported by tools/import_asset_pack.py from Roots.fbx
o __pending__
v -0.132696 -1.259751 0.302303
v -0.129250 -1.666057 0.227680
v -0.000000 -1.666057 0.302303
v -0.052521 0.223052 -0.025770
v -0.125995 1.326281 -0.218971
v -0.125995 1.326281 -0.259116
v 0.102282 0.223052 0.063605
v -0.091229 1.326281 -0.198899
v 0.024881 0.223052 0.108293
v -0.132696 -1.259751 0.003812
v -0.052521 0.223052 -0.025770
v 0.024881 0.223052 -0.070459
v -0.125995 1.326281 -0.259116
v -0.091229 1.326281 -0.279189
v -0.003446 -1.259751 0.078435
v 0.102282 0.223052 -0.025770
v -0.052521 0.223052 0.063605
v -0.261947 -1.259751 0.227680
v -0.129250 -1.666057 0.227680
v -0.261947 -1.259751 0.078435
v -0.129250 -1.666057 0.078435
v -0.000000 -1.666057 0.003812
v 0.129250 -1.666057 0.078435
v -0.003446 -1.259751 0.227680
v 0.129250 -1.666057 0.227680
v -0.056462 1.326281 -0.259116
v -0.087458 2.333943 -0.236866
v -0.056462 1.326281 -0.218971
v -0.003446 -1.259751 0.078435
v 0.129250 -1.666057 0.227680
v 0.129250 -1.666057 0.078435
v -0.056462 1.326281 -0.259116
v -0.052521 0.223052 0.063605
v -0.125995 1.326281 -0.218971
v 0.102282 0.223052 0.063605
v -0.003446 -1.259751 0.227680
v -0.129250 -1.666057 0.078435
v 0.129250 -1.666057 0.078435
v -0.000000 -1.666057 0.302303
v -0.129250 -1.666057 0.078435
v 0.102282 0.223052 -0.025770
v -0.091231 2.333943 -0.243401
v -0.095004 2.333943 -0.236866
v -0.087458 2.333943 -0.236866
v -0.091231 2.333943 -0.234687
v -0.095004 2.333943 -0.236866
v -0.091231 2.333943 -0.243401
v -0.087458 2.333943 -0.241223
v -0.056462 1.326281 -0.218971
v -0.095004 2.333943 -0.241223
v 0.299661 1.240069 -0.251867
v 0.453427 1.729428 -0.233285
v 0.453427 1.729428 -0.244804
v -0.038290 0.666286 -0.002495
v 0.299661 1.240069 -0.226221
v 0.005531 0.454555 -0.023907
v 0.069564 0.624632 -0.002495
v 0.059458 0.433728 -0.002495
v 0.331956 1.227597 -0.213398
v 0.482438 1.718223 -0.233285
v 0.467933 1.723825 -0.227525
v -0.038290 0.666286 0.040329
v 0.299661 1.240069 -0.226221
v 0.069564 0.624632 -0.002495
v 0.059458 0.433728 0.040329
v 0.059458 0.433728 -0.002495
v 0.299661 1.240069 -0.251867
v 0.467933 1.723825 -0.250563
v 0.331956 1.227597 -0.264689
v 0.069564 0.624632 0.040329
v 0.015637 0.645459 0.061742
v 0.005531 0.454555 0.061742
v 0.059458 0.433728 0.040329
v 0.482438 1.718223 -0.233285
v 0.631877 2.143643 -0.239669
v 0.631877 2.143643 -0.238419
v 0.015637 0.645459 -0.023907
v 0.364249 1.215125 -0.251867
v -0.048396 0.475382 0.040329
v 0.482438 1.718223 -0.244804
v -0.038290 0.666286 0.040329
v -0.048396 0.475382 -0.002495
v -0.048396 0.475382 0.040329
v 0.453427 1.729428 -0.233285
v 0.364249 1.215125 -0.226221
v 0.069564 0.624632 0.040329
v -0.048396 0.475382 -0.002495
v 0.005531 0.454555 0.061742
v -0.048396 0.475382 0.040329
v -0.048396 0.475382 -0.002495
v 0.364249 1.215125 -0.251867
v 0.630303 2.144251 -0.237794
v 0.631877 2.143643 -0.238419
v 0.630303 2.144251 -0.240294
v 0.628729 2.144859 -0.238419
v 0.628729 2.144859 -0.239669
v 0.630303 2.144251 -0.240294
v 0.631877 2.143643 -0.239669
v 0.631877 2.143643 -0.238419
v 0.630303 2.144251 -0.237794
v 0.628729 2.144859 -0.238419
v 0.628729 2.144859 -0.239669
v -0.601919 0.093668 0.006095
v -0.574899 0.874316 -0.233285
v -0.574899 0.874316 -0.244804
v -0.263269 -0.855388 0.131645
v -0.601919 0.093668 0.031740
v -0.208234 -0.827471 0.110233
v -0.041081 -1.043892 0.131645
v -0.096116 -1.071809 0.110233
v -0.536003 0.127105 0.031740
v -0.560095 0.881826 -0.227525
v -0.568961 0.110386 0.044563
v -0.208234 -0.827471 0.195882
v -0.601919 0.093668 0.031740
v -0.263269 -0.855388 0.174470
v -0.153199 -0.799553 0.131645
v -0.041081 -1.043892 0.174470
v -0.041081 -1.043892 0.131645
v -0.568961 0.110386 -0.006728
v -0.574899 0.874316 -0.244804
v -0.560095 0.881826 -0.250563
v -0.153199 -0.799553 0.174470
v -0.041081 -1.043892 0.174470
v -0.096116 -1.071809 0.195882
v -0.545292 0.889335 -0.244804
v -0.696421 1.559698 -0.238419
v -0.545292 0.889335 -0.233285
v -0.153199 -0.799553 0.131645
v -0.536003 0.127105 0.006095
v -0.151151 -1.099727 0.174470
v -0.601919 0.093668 0.006095
v -0.545292 0.889335 -0.244804
v -0.263269 -0.855388 0.174470
v -0.151151 -1.099727 0.131645
v -0.151151 -1.099727 0.174470
v -0.574899 0.874316 -0.233285
v -0.536003 0.127105 0.031740
v -0.153199 -0.799553 0.174470
v -0.263269 -0.855388 0.131645
v -0.151151 -1.099727 0.131645
v -0.096116 -1.071809 0.195882
v -0.151151 -1.099727 0.174470
v -0.151151 -1.099727 0.131645
v -0.536003 0.127105 0.006095
v -0.698027 1.558882 -0.237794
v -0.696421 1.559698 -0.238419
v -0.698027 1.558882 -0.240294
v -0.699634 1.558068 -0.238419
v -0.699634 1.558068 -0.239669
v -0.698027 1.558882 -0.240294
v -0.696421 1.559698 -0.239669
v -0.545292 0.889335 -0.233285
v -0.698027 1.558882 -0.237794
v -0.699634 1.558068 -0.239669
v -0.261947 -1.259751 0.078435
v -0.261947 -1.259751 0.227680
v -0.087458 2.333943 -0.241223
v -0.000000 -1.666057 0.003812
v 0.129250 -1.666057 0.227680
v -0.129250 -1.666057 0.227680
v -0.087458 2.333943 -0.241223
v -0.095004 2.333943 -0.241223
v -0.091231 2.333943 -0.234687
v -0.095004 2.333943 -0.241223
v -0.087458 2.333943 -0.236866
v -0.095004 2.333943 -0.236866
v 0.364249 1.215125 -0.226221
v 0.453427 1.729428 -0.244804
v 0.482438 1.718223 -0.244804
v -0.038290 0.666286 -0.002495
v 0.005531 0.454555 -0.023907
v 0.059458 0.433728 -0.002495
v 0.059458 0.433728 0.040329
v 0.631877 2.143643 -0.239669
v 0.628729 2.144859 -0.239669
v 0.628729 2.144859 -0.238419
v -0.696421 1.559698 -0.239669
v -0.096116 -1.071809 0.110233
v -0.041081 -1.043892 0.131645
v -0.041081 -1.043892 0.174470
v -0.696421 1.559698 -0.239669
v -0.699634 1.558068 -0.239669
v -0.699634 1.558068 -0.238419
v -0.696421 1.559698 -0.238419
v -0.699634 1.558068 -0.238419
vt 0.049856 0.102213
vt 0.060970 0.004471
vt 0.024471 0.002338
vt 0.202787 0.475028
vt 0.219479 0.751380
vt 0.229319 0.752493
vt 0.002338 0.471765
vt 0.058702 0.749490
vt 0.015592 0.470729
vt 0.113088 0.109226
vt 0.141120 0.474455
vt 0.154329 0.475041
vt 0.111308 0.750026
vt 0.117241 0.750289
vt 0.149619 0.107697
vt 0.176205 0.474125
vt 0.037450 0.472006
vt 0.086356 0.104346
vt 0.192738 0.007790
vt 0.217800 0.113728
vt 0.229319 0.011929
vt 0.139674 0.008956
vt 0.176205 0.007427
vt 0.027723 0.103944
vt 0.002338 0.004069
vt 0.233994 0.755536
vt 0.267442 0.997539
vt 0.243832 0.754401
vt 0.244746 0.122284
vt 0.270566 0.024878
vt 0.233994 0.029098
vt 0.127067 0.749878
vt 0.180881 0.472549
vt 0.068520 0.750064
vt 0.282983 0.485594
vt 0.281318 0.118064
vt 0.117618 0.007977
vt 0.547881 0.494817
vt 0.484391 0.493878
vt 0.516136 0.548869
vt 0.261082 0.488121
vt 0.536911 0.469348
vt 0.535996 0.470960
vt 0.537826 0.470960
vt 0.050461 0.997600
vt 0.051526 0.997662
vt 0.129362 0.997662
vt 0.130429 0.997618
vt 0.052749 0.749956
vt 0.197136 0.997662
vt 0.657176 0.786009
vt 0.630101 0.900366
vt 0.632889 0.900912
vt 0.622707 0.642005
vt 0.650968 0.784793
vt 0.592549 0.558438
vt 0.598503 0.603169
vt 0.607665 0.556946
vt 0.544138 0.760352
vt 0.541154 0.886766
vt 0.544066 0.887225
vt 0.567785 0.603984
vt 0.553177 0.761326
vt 0.518140 0.601559
vt 0.520440 0.553545
vt 0.510036 0.555371
vt 0.587712 0.761477
vt 0.595788 0.887238
vt 0.594255 0.760312
vt 0.541866 0.600652
vt 0.552692 0.602357
vt 0.544045 0.556128
vt 0.533220 0.554424
vt 0.510879 0.889596
vt 0.528241 0.997662
vt 0.528544 0.997609
vt 0.583387 0.604661
vt 0.603307 0.759418
vt 0.559139 0.557755
vt 0.599854 0.886836
vt 0.612341 0.639974
vt 0.631697 0.596119
vt 0.621331 0.594088
vt 0.548126 0.887663
vt 0.490622 0.764062
vt 0.528544 0.599734
vt 0.581623 0.560383
vt 0.484391 0.457479
vt 0.489673 0.471498
vt 0.500237 0.471498
vt 0.484391 0.765156
vt 0.536573 0.464127
vt 0.536285 0.463798
vt 0.535996 0.464344
vt 0.533976 0.997662
vt 0.606905 0.997662
vt 0.607224 0.997605
vt 0.607665 0.997562
vt 0.533220 0.997565
vt 0.533536 0.997615
vt 0.612341 0.997603
vt 0.612643 0.997662
vt 0.417248 0.630660
vt 0.440655 0.829663
vt 0.443449 0.830178
vt 0.430213 0.389170
vt 0.411027 0.629515
vt 0.382486 0.390940
vt 0.406351 0.329332
vt 0.390452 0.326719
vt 0.327945 0.638339
vt 0.303650 0.829911
vt 0.335234 0.635602
vt 0.307579 0.387499
vt 0.344764 0.634094
vt 0.323493 0.384980
vt 0.463666 0.436829
vt 0.463508 0.380674
vt 0.453139 0.382690
vt 0.356652 0.638129
vt 0.385906 0.828736
vt 0.389146 0.829898
vt 0.295408 0.392069
vt 0.287658 0.328320
vt 0.299829 0.323750
vt 0.448125 0.843392
vt 0.479716 0.997603
vt 0.450914 0.842850
vt 0.398385 0.393553
vt 0.366173 0.639694
vt 0.315743 0.321231
vt 0.349439 0.635543
vt 0.393422 0.830601
vt 0.419824 0.387257
vt 0.441478 0.327974
vt 0.431089 0.326062
vt 0.307930 0.829233
vt 0.479716 0.648475
vt 0.474035 0.434813
vt 0.370441 0.386621
vt 0.378408 0.322400
vt 0.510194 0.459414
vt 0.515475 0.471498
vt 0.526039 0.471498
vt 0.473506 0.649682
vt 0.536613 0.458770
vt 0.536459 0.458417
vt 0.535996 0.458770
vt 0.288478 0.997455
vt 0.405535 0.997460
vt 0.405887 0.997586
vt 0.406351 0.997662
vt 0.300376 0.831140
vt 0.288014 0.997529
vt 0.411330 0.997662
vt 0.091031 0.108248
vt 0.181219 0.109589
vt 0.266374 0.997662
vt 0.547881 0.531165
vt 0.516136 0.476173
vt 0.484391 0.530226
vt 0.537826 0.469886
vt 0.535996 0.469886
vt 0.536911 0.471498
vt 0.128718 0.997634
vt 0.049815 0.997650
vt 0.196068 0.997541
vt 0.537655 0.759331
vt 0.592849 0.887761
vt 0.508080 0.890087
vt 0.572461 0.606606
vt 0.505518 0.457479
vt 0.500237 0.443461
vt 0.489673 0.443461
vt 0.535996 0.463907
vt 0.536285 0.464673
vt 0.536573 0.464564
vt 0.479413 0.997662
vt 0.531321 0.459414
vt 0.526039 0.447330
vt 0.515475 0.447330
vt 0.536150 0.458417
vt 0.536150 0.459123
vt 0.536459 0.459123
vt 0.287658 0.997662
vt 0.411027 0.997606
vn -0.066188 0.049042 0.996601
vn -0.590705 -0.707863 0.387295
vn 0.079894 -0.596710 0.798470
vn -0.867405 -0.038084 -0.496143
vn -0.885158 0.042537 0.463342
vn -0.853495 -0.064286 -0.517120
vn 0.861330 0.115679 0.494701
vn -0.018740 0.156942 0.987430
vn 0.031700 0.194494 0.980391
vn -0.066604 -0.039527 -0.996996
vn -0.867405 -0.038084 -0.496143
vn 0.034159 -0.120584 -0.992115
vn -0.853495 -0.064286 -0.517120
vn -0.014563 -0.074559 -0.997110
vn 0.849943 0.090463 -0.519050
vn 0.883060 -0.028365 -0.468402
vn -0.841711 0.134049 0.523023
vn -0.873640 -0.049596 0.484038
vn -0.590705 -0.707863 0.387295
vn -0.882588 -0.089681 -0.461514
vn -0.590719 -0.707854 -0.387291
vn 0.079893 -0.596717 -0.798465
vn 0.767113 -0.502348 -0.398978
vn 0.832192 0.138428 0.536930
vn 0.767093 -0.502375 0.398983
vn 0.845130 0.016879 -0.534294
vn 0.677217 0.623302 0.390989
vn 0.870166 0.141976 0.471862
vn 0.849943 0.090463 -0.519050
vn 0.767093 -0.502375 0.398983
vn 0.767113 -0.502348 -0.398978
vn 0.845130 0.016879 -0.534294
vn -0.841711 0.134049 0.523023
vn -0.885158 0.042537 0.463342
vn 0.861330 0.115679 0.494701
vn 0.832192 0.138428 0.536930
vn -0.590719 -0.707854 -0.387291
vn 0.767113 -0.502348 -0.398978
vn 0.079894 -0.596710 0.798470
vn -0.590719 -0.707854 -0.387291
vn 0.883060 -0.028365 -0.468402
vn -0.000011 0.623297 -0.781985
vn -0.677217 0.623301 0.390991
vn 0.677217 0.623302 0.390989
vn -0.000000 0.623300 0.781983
vn -0.677217 0.623301 0.390991
vn -0.000011 0.623297 -0.781985
vn 0.677198 0.623314 -0.391001
vn 0.870166 0.141976 0.471862
vn -0.677217 0.623303 -0.390987
vn -0.753335 0.197333 -0.627332
vn -0.773359 0.291369 0.563045
vn -0.773359 0.291369 -0.563045
vn -0.858940 0.181684 -0.478762
vn -0.722518 0.443656 0.530224
vn -0.175642 -0.604954 -0.776647
vn 0.770542 -0.305125 -0.559610
vn 0.511894 -0.728729 -0.454882
vn 0.102572 0.194715 0.975482
vn 0.784627 -0.220786 0.579322
vn -0.001899 0.026510 0.999647
vn -0.747745 0.334402 0.573631
vn -0.722518 0.443656 0.530224
vn 0.770542 -0.305125 -0.559610
vn 0.511870 -0.728746 0.454883
vn 0.511894 -0.728729 -0.454882
vn -0.753335 0.197333 -0.627332
vn -0.001899 0.026510 -0.999647
vn -0.034586 -0.152821 -0.987648
vn 0.773142 -0.059589 0.631427
vn 0.020166 0.184122 0.982696
vn -0.175652 -0.604977 0.776627
vn 0.511870 -0.728746 0.454883
vn 0.784627 -0.220786 0.579322
vn 0.825163 0.335428 -0.454526
vn 0.825119 0.335482 0.454565
vn -0.114225 -0.160535 -0.980399
vn 0.719416 -0.368252 -0.588923
vn -0.772477 -0.440894 0.457046
vn 0.784625 -0.220786 -0.579324
vn -0.747745 0.334402 0.573631
vn -0.772474 -0.440891 -0.457054
vn -0.772477 -0.440894 0.457046
vn -0.773359 0.291369 0.563045
vn 0.842808 -0.208170 0.496326
vn 0.773142 -0.059589 0.631427
vn -0.772474 -0.440891 -0.457054
vn -0.175652 -0.604977 0.776627
vn -0.772477 -0.440894 0.457046
vn -0.772474 -0.440891 -0.457054
vn 0.719416 -0.368252 -0.588923
vn 0.232411 0.601837 0.764053
vn 0.825119 0.335482 0.454565
vn 0.232450 0.601845 -0.764035
vn -0.385425 0.803004 0.454569
vn -0.385418 0.803011 -0.454562
vn 0.232450 0.601845 -0.764035
vn 0.825163 0.335428 -0.454526
vn 0.825119 0.335482 0.454565
vn 0.232411 0.601837 0.764053
vn -0.385425 0.803004 0.454569
vn -0.385418 0.803011 -0.454562
vn -0.813578 -0.227067 -0.535287
vn -0.861552 0.050689 0.505133
vn -0.741367 -0.186955 -0.644533
vn -0.756410 -0.342395 -0.557323
vn -0.844988 -0.031046 0.533884
vn 0.019960 -0.054848 -0.998295
vn 0.848362 -0.252370 -0.465393
vn 0.283970 -0.573689 -0.768272
vn 0.693638 0.330075 0.640247
vn -0.061162 0.176488 0.982401
vn -0.145099 0.230280 0.962246
vn -0.038865 0.064066 0.997189
vn -0.844988 -0.031046 0.533884
vn -0.764462 -0.269749 0.585519
vn 0.770282 0.295818 -0.564939
vn 0.848361 -0.252381 0.465391
vn 0.848362 -0.252370 -0.465393
vn 0.055541 -0.204666 -0.977255
vn -0.741367 -0.186955 -0.644533
vn 0.084931 -0.144920 -0.985792
vn 0.714236 0.360408 0.599977
vn 0.848361 -0.252381 0.465391
vn 0.283980 -0.573709 0.768254
vn 0.818458 0.032897 -0.573624
vn 0.407357 0.788703 0.460442
vn 0.833244 0.168021 0.526757
vn 0.770282 0.295818 -0.564939
vn 0.838543 0.017644 -0.544549
vn -0.328219 -0.822355 0.464762
vn -0.813578 -0.227067 -0.535287
vn 0.818458 0.032897 -0.573624
vn -0.764462 -0.269749 0.585519
vn -0.328223 -0.822351 -0.464767
vn -0.328219 -0.822355 0.464762
vn -0.861552 0.050689 0.505133
vn 0.693638 0.330075 0.640247
vn 0.714236 0.360408 0.599977
vn -0.756410 -0.342395 -0.557323
vn -0.328223 -0.822351 -0.464767
vn 0.283980 -0.573709 0.768254
vn -0.328219 -0.822355 0.464762
vn -0.328223 -0.822351 -0.464767
vn 0.838543 0.017644 -0.544549
vn -0.251017 0.590132 0.767291
vn 0.407357 0.788703 0.460442
vn -0.251014 0.590158 -0.767271
vn -0.813189 0.352286 0.463268
vn -0.813207 0.352265 -0.463253
vn -0.251014 0.590158 -0.767271
vn 0.407411 0.788698 -0.460404
vn 0.833244 0.168021 0.526757
vn -0.251017 0.590132 0.767291
vn -0.813207 0.352265 -0.463253
vn -0.882588 -0.089681 -0.461514
vn -0.873640 -0.049596 0.484038
vn 0.677198 0.623314 -0.391001
vn 0.079893 -0.596717 -0.798465
vn 0.767093 -0.502375 0.398983
vn -0.590705 -0.707863 0.387295
vn 0.677198 0.623314 -0.391001
vn -0.677217 0.623303 -0.390987
vn -0.000000 0.623300 0.781983
vn -0.677217 0.623303 -0.390987
vn 0.677217 0.623302 0.390989
vn -0.677217 0.623301 0.390991
vn 0.842808 -0.208170 0.496326
vn -0.773359 0.291369 -0.563045
vn 0.784625 -0.220786 -0.579324
vn -0.858940 0.181684 -0.478762
vn -0.175642 -0.604954 -0.776647
vn 0.511894 -0.728729 -0.454882
vn 0.511870 -0.728746 0.454883
vn 0.825163 0.335428 -0.454526
vn -0.385418 0.803011 -0.454562
vn -0.385425 0.803004 0.454569
vn 0.407411 0.788698 -0.460404
vn 0.283970 -0.573689 -0.768272
vn 0.848362 -0.252370 -0.465393
vn 0.848361 -0.252381 0.465391
vn 0.407411 0.788698 -0.460404
vn -0.813207 0.352265 -0.463253
vn -0.813189 0.352286 0.463268
vn 0.407357 0.788703 0.460442
vn -0.813189 0.352286 0.463268
f 1/1/1 2/2/2 3/3/3
f 4/4/4 5/5/5 6/6/6
f 7/7/7 8/8/8 9/9/9
f 10/10/10 11/11/11 12/12/12
f 12/12/12 13/13/13 14/14/14
f 15/15/15 12/12/12 16/16/16
f 1/1/1 17/17/17 18/18/18
f 19/19/19 20/20/20 21/21/21
f 22/22/22 15/15/15 23/23/23
f 24/24/24 3/3/3 25/25/25
f 26/26/26 27/27/27 28/28/28
f 29/29/29 30/30/30 31/31/31
f 12/12/12 32/32/32 16/16/16
f 24/24/24 9/9/9 1/1/1
f 20/20/20 33/33/33 4/4/4
f 17/17/17 8/8/8 34/34/34
f 29/29/29 35/35/35 36/36/36
f 37/37/37 10/10/10 22/22/22
f 38/38/38 39/39/39 40/40/40
f 41/41/41 28/28/28 35/35/35
f 42/42/42 43/43/43 44/44/44
f 34/34/34 45/45/45 46/46/46
f 13/13/13 47/47/47 14/14/14
f 14/14/14 48/48/48 32/32/32
f 49/49/49 45/45/45 8/8/8
f 5/5/5 50/50/50 6/6/6
f 51/51/51 52/52/52 53/53/53
f 54/54/54 55/55/55 51/51/51
f 56/56/56 57/57/57 58/58/58
f 59/59/59 60/60/60 61/61/61
f 62/62/62 59/59/59 63/63/63
f 64/64/64 65/65/65 66/66/66
f 67/67/67 68/68/68 69/69/69
f 70/70/70 59/59/59 71/71/71
f 70/70/70 72/72/72 73/73/73
f 74/74/74 75/75/75 76/76/76
f 77/77/77 78/78/78 57/57/57
f 71/71/71 79/79/79 72/72/72
f 77/77/77 67/67/67 69/69/69
f 69/69/69 80/80/80 78/78/78
f 81/81/81 82/82/82 83/83/83
f 63/63/63 61/61/61 84/84/84
f 64/64/64 85/85/85 86/86/86
f 87/87/87 77/77/77 56/56/56
f 88/88/88 89/89/89 90/90/90
f 91/91/91 74/74/74 85/85/85
f 92/92/92 93/93/93 94/94/94
f 61/61/61 95/95/95 84/84/84
f 68/68/68 96/96/96 97/97/97
f 68/68/68 98/98/98 80/80/80
f 61/61/61 99/99/99 100/100/100
f 53/53/53 101/101/101 102/102/102
f 103/103/103 104/104/104 105/105/105
f 106/106/106 107/107/107 103/103/103
f 108/108/108 109/109/109 110/110/110
f 111/111/111 112/112/112 113/113/113
f 114/114/114 115/115/115 116/116/116
f 117/117/117 118/118/118 119/119/119
f 120/120/120 121/121/121 122/122/122
f 123/123/123 113/113/113 114/114/114
f 124/124/124 114/114/114 125/125/125
f 126/126/126 127/127/127 128/128/128
f 129/129/129 120/120/120 130/130/130
f 125/125/125 116/116/116 131/131/131
f 108/108/108 132/132/132 120/120/120
f 130/130/130 122/122/122 133/133/133
f 134/134/134 135/135/135 136/136/136
f 113/113/113 137/137/137 115/115/115
f 117/117/117 138/138/138 139/139/139
f 140/140/140 110/110/110 141/141/141
f 142/142/142 143/143/143 144/144/144
f 145/145/145 128/128/128 138/138/138
f 146/146/146 147/147/147 148/148/148
f 112/112/112 149/149/149 137/137/137
f 122/122/122 150/150/150 151/151/151
f 133/133/133 151/151/151 152/152/152
f 153/153/153 154/154/154 112/112/112
f 104/104/104 155/155/155 105/105/105
f 1/1/1 18/18/18 2/2/2
f 4/4/4 33/33/33 5/5/5
f 7/7/7 49/49/49 8/8/8
f 10/10/10 156/156/156 11/11/11
f 12/12/12 11/11/11 13/13/13
f 15/15/15 10/10/10 12/12/12
f 1/1/1 9/9/9 17/17/17
f 19/19/19 157/157/157 20/20/20
f 22/22/22 10/10/10 15/15/15
f 24/24/24 1/1/1 3/3/3
f 26/26/26 158/158/158 27/27/27
f 29/29/29 36/36/36 30/30/30
f 12/12/12 14/14/14 32/32/32
f 24/24/24 7/7/7 9/9/9
f 20/20/20 157/157/157 33/33/33
f 17/17/17 9/9/9 8/8/8
f 29/29/29 41/41/41 35/35/35
f 37/37/37 156/156/156 10/10/10
f 40/40/40 159/159/159 38/38/38
f 38/38/38 160/160/160 39/39/39
f 39/39/39 161/161/161 40/40/40
f 41/41/41 26/26/26 28/28/28
f 44/44/44 162/162/162 42/42/42
f 42/42/42 163/163/163 43/43/43
f 43/43/43 164/164/164 44/44/44
f 34/34/34 8/8/8 45/45/45
f 13/13/13 165/165/165 47/47/47
f 14/14/14 47/47/47 48/48/48
f 49/49/49 166/166/166 45/45/45
f 5/5/5 167/167/167 50/50/50
f 51/51/51 55/55/55 52/52/52
f 54/54/54 81/81/81 55/55/55
f 56/56/56 77/77/77 57/57/57
f 59/59/59 168/168/168 60/60/60
f 62/62/62 71/71/71 59/59/59
f 64/64/64 86/86/86 65/65/65
f 67/67/67 169/169/169 68/68/68
f 70/70/70 168/168/168 59/59/59
f 70/70/70 71/71/71 72/72/72
f 74/74/74 170/170/170 75/75/75
f 77/77/77 69/69/69 78/78/78
f 71/71/71 62/62/62 79/79/79
f 77/77/77 171/171/171 67/67/67
f 69/69/69 68/68/68 80/80/80
f 81/81/81 54/54/54 82/82/82
f 63/63/63 59/59/59 61/61/61
f 64/64/64 91/91/91 85/85/85
f 87/87/87 171/171/171 77/77/77
f 90/90/90 172/172/172 88/88/88
f 172/172/172 173/173/173 88/88/88
f 173/173/173 174/174/174 88/88/88
f 91/91/91 170/170/170 74/74/74
f 93/93/93 175/175/175 94/94/94
f 94/94/94 176/176/176 177/177/177
f 177/177/177 92/92/92 94/94/94
f 61/61/61 100/100/100 95/95/95
f 68/68/68 169/169/169 96/96/96
f 68/68/68 97/97/97 98/98/98
f 61/61/61 60/60/60 99/99/99
f 53/53/53 52/52/52 101/101/101
f 103/103/103 107/107/107 104/104/104
f 106/106/106 134/134/134 107/107/107
f 108/108/108 129/129/129 109/109/109
f 111/111/111 153/153/153 112/112/112
f 114/114/114 113/113/113 115/115/115
f 117/117/117 139/139/139 118/118/118
f 120/120/120 132/132/132 121/121/121
f 123/123/123 111/111/111 113/113/113
f 124/124/124 123/123/123 114/114/114
f 126/126/126 178/178/178 127/127/127
f 129/129/129 108/108/108 120/120/120
f 125/125/125 114/114/114 116/116/116
f 108/108/108 140/140/140 132/132/132
f 130/130/130 120/120/120 122/122/122
f 134/134/134 106/106/106 135/135/135
f 113/113/113 112/112/112 137/137/137
f 117/117/117 145/145/145 138/138/138
f 140/140/140 108/108/108 110/110/110
f 144/144/144 179/179/179 142/142/142
f 179/179/179 180/180/180 142/142/142
f 180/180/180 181/181/181 142/142/142
f 145/145/145 126/126/126 128/128/128
f 147/147/147 182/182/182 148/148/148
f 148/148/148 183/183/183 184/184/184
f 184/184/184 146/146/146 148/148/148
f 112/112/112 154/154/154 149/149/149
f 122/122/122 121/121/121 150/150/150
f 133/133/133 122/122/122 151/151/151
f 153/153/153 185/185/185 154/154/154
f 104/104/104 186/186/186 155/155/155
