# Cube -- imported by tools/import_asset_pack.py from spike.fbx
o __pending__
v 0.000000 0.151363 -0.066254
v 0.000000 0.751846 -0.000000
v 0.057378 0.151363 -0.033128
v 0.057378 0.151363 -0.033128
v 0.000000 0.751846 -0.000000
v 0.057378 0.151363 0.033128
v 0.000000 0.151363 0.066254
v -0.057378 0.151363 0.033128
v -0.057378 0.151363 -0.033128
v -0.117026 -0.448154 0.067565
v -0.057378 0.151363 0.033128
v 0.117026 -0.448154 -0.067565
v 0.000000 -0.448154 0.135130
v -0.117026 -0.448154 -0.067565
v 0.000000 -0.448154 0.135130
v 0.117026 -0.448154 0.067565
v 0.117026 -0.448154 -0.067565
v 0.000000 -0.448154 -0.135130
v -0.117026 -0.448154 -0.067565
v 0.000000 -0.448154 -0.135130
v 0.117026 -0.448154 0.067565
v -0.117026 -0.448154 0.067565
v -0.117026 -0.448154 0.067565
v 0.117026 -0.448154 -0.067565
vt 0.084510 0.505920
vt 0.001150 0.998850
vt 0.111231 0.513581
vt 0.337824 0.513581
vt 0.447905 0.998850
vt 0.364545 0.505920
vt 0.419025 0.499756
vt 0.446783 0.501253
vt 0.030030 0.499756
vt 0.001150 0.004204
vt 0.002272 0.501253
vt 0.547046 0.775204
vt 0.450205 0.942939
vt 0.643888 0.942939
vt 0.391291 0.001150
vt 0.280178 0.013722
vt 0.225677 0.029348
vt 0.168877 0.013722
vt 0.057764 0.001150
vt 0.643888 0.831116
vt 0.450205 0.831116
vt 0.547046 0.998850
vt 0.447905 0.004204
vt 0.223378 0.029347
vn 0.000000 0.111981 -0.993710
vn 0.000000 1.000000 -0.000000
vn 0.860578 0.111981 -0.496857
vn 0.860578 0.111981 -0.496857
vn 0.000000 1.000000 -0.000000
vn 0.860579 0.111981 0.496854
vn 0.000002 0.111982 0.993710
vn -0.860577 0.111981 0.496857
vn -0.860578 0.111981 -0.496855
vn -0.713506 -0.566750 0.411952
vn -0.860577 0.111981 0.496857
vn 0.713510 -0.566743 -0.411954
vn 0.000008 -0.566743 0.823895
vn -0.713518 -0.566736 -0.411950
vn 0.000008 -0.566743 0.823895
vn 0.713513 -0.566750 0.411938
vn 0.713510 -0.566743 -0.411954
vn 0.000000 -0.566757 -0.823885
vn -0.713518 -0.566736 -0.411950
vn 0.000000 -0.566757 -0.823885
vn 0.713513 -0.566750 0.411938
vn -0.713506 -0.566750 0.411952
vn -0.713506 -0.566750 0.411952
vn 0.713510 -0.566743 -0.411954
f 1/1/1 2/2/2 3/3/3
f 4/4/4 5/5/5 6/6/6
f 6/6/6 5/5/5 7/7/7
f 7/7/7 5/5/5 8/8/8
f 9/9/9 10/10/10 11/11/11
f 11/11/11 2/2/2 9/9/9
f 9/9/9 2/2/2 1/1/1
f 12/12/12 13/13/13 14/14/14
f 8/8/8 15/15/15 7/7/7
f 7/7/7 16/16/16 6/6/6
f 6/6/6 17/17/17 4/4/4
f 9/9/9 18/18/18 19/19/19
f 3/3/3 18/18/18 1/1/1
f 9/9/9 19/19/19 10/10/10
f 14/14/14 20/20/20 12/12/12
f 12/12/12 21/21/21 13/13/13
f 13/13/13 22/22/22 14/14/14
f 8/8/8 23/23/23 15/15/15
f 7/7/7 15/15/15 16/16/16
f 6/6/6 16/16/16 17/17/17
f 9/9/9 1/1/1 18/18/18
f 3/3/3 24/24/24 18/18/18
