# Cube -- imported by tools/import_asset_pack.py from torch.fbx
o __pending__
v 0.000000 -0.068579 -0.054017
v 0.059391 0.068579 -0.034290
v 0.046780 -0.068579 -0.027009
v 0.059391 0.068579 -0.034290
v 0.046780 -0.068579 0.027009
v 0.046780 -0.068579 -0.027009
v 0.000000 0.068579 0.068579
v 0.000000 -0.068579 0.054017
v 0.000000 -0.068579 0.054017
v -0.059391 0.068579 0.034289
v -0.046780 -0.068579 0.027009
v -0.000000 0.207200 0.083822
v -0.059391 0.253407 0.034289
v -0.072592 0.207200 0.041911
v -0.059391 0.068579 0.034289
v -0.046780 -0.068579 -0.027009
v -0.046780 -0.068579 0.027009
v 0.000000 0.068579 -0.068579
v 0.000000 -0.068579 -0.054017
v 0.030821 -0.584627 -0.017794
v -0.030821 -0.584627 0.017794
v -0.000000 -0.606578 0.012401
v -0.000000 -0.584627 0.035589
v -0.030821 -0.584627 0.017794
v -0.000000 -0.584627 -0.035588
v 0.030821 -0.584627 0.017794
v -0.030821 -0.584627 -0.017794
v -0.059391 0.253407 -0.034290
v -0.000000 0.293422 -0.057691
v 0.000000 0.253407 -0.068579
v 0.072592 0.207200 -0.041911
v 0.059391 0.253407 0.034289
v 0.072592 0.207200 0.041911
v -0.072592 0.207200 0.041911
v -0.072592 0.207200 -0.041911
v 0.000000 0.207200 -0.083823
v 0.059391 0.253407 -0.034290
v 0.072592 0.207200 -0.041911
v 0.000000 0.253407 0.068579
v -0.000000 0.207200 0.083822
v 0.000000 0.207200 -0.083823
v -0.000000 0.293422 -0.057691
v -0.049962 0.293422 0.028845
v 0.049962 0.293422 0.028845
v -0.000000 0.293422 0.057691
v -0.049962 0.293422 0.028845
v 0.059391 0.253407 -0.034290
v 0.049962 0.293422 0.028845
v -0.059391 0.253407 0.034289
v -0.049962 0.293422 -0.028846
v -0.000000 0.293422 0.057691
v 0.000000 0.253407 -0.068579
v 0.049962 0.293422 -0.028846
v 0.010739 -0.606578 -0.006200
v -0.000000 -0.606578 0.012401
v -0.010739 -0.606578 -0.006200
v 0.010739 -0.606578 -0.006200
v -0.010739 -0.606578 0.006200
v -0.000000 -0.584627 0.035589
v 0.010739 -0.606578 0.006200
v 0.030821 -0.584627 0.017794
v 0.030821 -0.584627 -0.017794
v -0.000000 -0.606578 -0.012401
v -0.000000 -0.584627 -0.035588
v -0.030821 -0.584627 -0.017794
v -0.059391 0.068579 -0.034290
v 0.000000 0.114786 -0.083823
v -0.072592 0.114786 -0.041911
v 0.000000 0.160993 -0.083823
v -0.072592 0.160993 -0.041911
v 0.059391 0.068579 0.034289
v 0.000000 0.114786 0.083823
v 0.072592 0.114786 0.041911
v 0.000000 0.160993 0.083823
v 0.072592 0.160993 0.041911
v 0.000000 0.068579 -0.068579
v 0.072592 0.114786 -0.041911
v 0.000000 0.114786 -0.083823
v 0.072592 0.160993 -0.041911
v 0.000000 0.160993 -0.083823
v -0.072592 0.114786 0.041911
v -0.072592 0.160993 0.041911
v 0.072592 0.114786 -0.041911
v 0.072592 0.160993 -0.041911
v 0.000000 0.068579 0.068579
v -0.072592 0.114786 0.041911
v 0.000000 0.114786 0.083823
v -0.072592 0.160993 0.041911
v 0.000000 0.160993 0.083823
v 0.104229 0.171763 -0.000000
v 0.069745 0.204165 -0.067939
v 0.097877 0.205918 -0.000000
v 0.097877 0.205918 -0.000000
v 0.059387 0.217831 -0.057733
v 0.083293 0.219321 -0.000000
v 0.069020 0.204120 -0.000000
v 0.049341 0.202893 -0.047527
v 0.063420 0.169219 -0.000000
v 0.069020 0.204120 -0.000000
v 0.045490 0.168102 -0.043300
v 0.069772 0.135064 -0.000000
v 0.050092 0.133837 -0.047527
v 0.084356 0.121661 -0.000000
v 0.069772 0.135064 -0.000000
v 0.070497 0.135109 -0.067939
v 0.098629 0.136862 -0.000000
v 0.098629 0.136862 -0.000000
v 0.074347 0.169900 -0.072166
v 0.074347 0.169900 -0.072166
v 0.001830 0.199932 -0.096080
v 0.069745 0.204165 -0.067939
v 0.001674 0.214234 -0.081647
v 0.059387 0.217831 -0.057733
v 0.001674 0.214234 -0.081647
v 0.049341 0.202893 -0.047527
v 0.059387 0.217831 -0.057733
v 0.001830 0.199932 -0.067214
v 0.045490 0.168102 -0.043300
v 0.002205 0.165404 -0.061235
v 0.050092 0.133837 -0.047527
v 0.002581 0.130875 -0.067214
v 0.060450 0.120171 -0.057733
v 0.060450 0.120171 -0.057733
v 0.002581 0.130875 -0.096080
v 0.070497 0.135109 -0.067939
v 0.002205 0.165404 -0.102058
v -0.066086 0.195699 -0.067939
v 0.001830 0.199932 -0.096080
v -0.056040 0.210636 -0.057733
v 0.001674 0.214234 -0.081647
v 0.001830 0.199932 -0.067214
v -0.045681 0.196970 -0.047527
v -0.041080 0.162706 -0.043300
v -0.044930 0.127914 -0.047527
v 0.002737 0.116573 -0.081647
v 0.002581 0.130875 -0.067214
v -0.065335 0.126642 -0.067939
v 0.002581 0.130875 -0.096080
v -0.069936 0.160907 -0.072166
v -0.069936 0.160907 -0.072166
v -0.094218 0.193945 -0.000000
v -0.066086 0.195699 -0.067939
v -0.079945 0.209146 -0.000000
v -0.056040 0.210636 -0.057733
v -0.079945 0.209146 -0.000000
v -0.045681 0.196970 -0.047527
v -0.065361 0.195744 -0.000000
v -0.041080 0.162706 -0.043300
v -0.045681 0.196970 -0.047527
v -0.059009 0.161588 -0.000000
v -0.044930 0.127914 -0.047527
v -0.064610 0.126687 -0.000000
v -0.054977 0.112976 -0.057733
v -0.054977 0.112976 -0.057733
v -0.093466 0.124889 -0.000000
v -0.065335 0.126642 -0.067939
v -0.099819 0.159044 -0.000000
v -0.069936 0.160907 0.072166
v -0.066086 0.195699 0.067939
v -0.094218 0.193945 -0.000000
v -0.045681 0.196970 0.047527
v -0.065361 0.195744 -0.000000
v -0.041080 0.162706 0.043300
v -0.044930 0.127914 0.047527
v -0.064610 0.126687 -0.000000
v -0.054977 0.112976 0.057733
v -0.078882 0.111486 -0.000000
v -0.065335 0.126642 0.067939
v -0.093466 0.124889 -0.000000
v 0.002205 0.165404 0.102058
v -0.066086 0.195699 0.067939
v -0.069936 0.160907 0.072166
v 0.001830 0.199932 0.096080
v -0.056040 0.210636 0.057733
v -0.056040 0.210636 0.057733
v 0.001830 0.199932 0.067213
v -0.045681 0.196970 0.047527
v 0.002205 0.165404 0.061235
v -0.041080 0.162706 0.043300
v 0.002581 0.130875 0.067213
v -0.044930 0.127914 0.047527
v 0.002737 0.116573 0.081647
v -0.054977 0.112976 0.057733
v 0.002737 0.116573 0.081647
v -0.065335 0.126642 0.067939
v -0.054977 0.112976 0.057733
v 0.002581 0.130875 0.096080
v 0.074347 0.169900 0.072166
v 0.069745 0.204165 0.067939
v 0.001674 0.214234 0.081647
v 0.001830 0.199932 0.096080
v 0.049341 0.202893 0.047527
v 0.001830 0.199932 0.067213
v 0.045490 0.168102 0.043300
v 0.050092 0.133837 0.047527
v 0.002581 0.130875 0.067213
v 0.060450 0.120171 0.057733
v 0.002737 0.116573 0.081647
v 0.002581 0.130875 0.096080
v 0.070497 0.135109 0.067939
v 0.069745 0.204165 0.067939
v 0.074347 0.169900 0.072166
v 0.059387 0.217831 0.057733
v 0.059387 0.217831 0.057733
v 0.049341 0.202893 0.047527
v 0.045490 0.168102 0.043300
v 0.050092 0.133837 0.047527
v 0.050092 0.133837 0.047527
v 0.084356 0.121661 -0.000000
v 0.070497 0.135109 0.067939
v 0.060450 0.120171 0.057733
v 0.104300 0.095191 -0.000000
v 0.073662 0.131252 -0.067939
v 0.101813 0.129844 -0.000000
v 0.101813 0.129844 -0.000000
v 0.064900 0.145993 -0.057733
v 0.088822 0.144796 -0.000000
v 0.072937 0.131289 -0.000000
v 0.053243 0.132274 -0.047527
v 0.063462 0.097235 -0.000000
v 0.072937 0.131289 -0.000000
v 0.045520 0.098133 -0.043300
v 0.065948 0.062583 -0.000000
v 0.046255 0.063568 -0.047527
v 0.078939 0.047631 -0.000000
v 0.065948 0.062583 -0.000000
v 0.066674 0.062546 -0.067939
v 0.094825 0.061138 -0.000000
v 0.094825 0.061138 -0.000000
v 0.074397 0.096688 -0.072166
v 0.074397 0.096688 -0.072166
v 0.005700 0.134654 -0.096080
v 0.073662 0.131252 -0.067939
v 0.007147 0.148883 -0.081647
v 0.064900 0.145993 -0.057733
v 0.007147 0.148883 -0.081647
v 0.053243 0.132274 -0.047527
v 0.064900 0.145993 -0.057733
v 0.005700 0.134654 -0.067214
v 0.045520 0.098133 -0.043300
v 0.002205 0.100301 -0.061235
v 0.046255 0.063568 -0.047527
v -0.001289 0.065948 -0.067214
v 0.055017 0.048828 -0.057733
v 0.055017 0.048828 -0.057733
v -0.001289 0.065948 -0.096080
v 0.066674 0.062546 -0.067939
v 0.002205 0.100301 -0.102058
v -0.062263 0.138055 -0.067939
v 0.005700 0.134654 -0.096080
v -0.050606 0.151774 -0.057733
v 0.007147 0.148883 -0.081647
v 0.005700 0.134654 -0.067214
v -0.041844 0.137033 -0.047527
v -0.041110 0.102468 -0.043300
v -0.048833 0.068327 -0.047527
v -0.002737 0.051718 -0.081647
v -0.001289 0.065948 -0.067214
v -0.069252 0.069349 -0.067939
v -0.001289 0.065948 -0.096080
v -0.069986 0.103914 -0.072166
v -0.069986 0.103914 -0.072166
v -0.090414 0.139464 -0.000000
v -0.062263 0.138055 -0.067939
v -0.062263 0.138055 -0.067939
v -0.074528 0.152971 -0.000000
v -0.074528 0.152971 -0.000000
v -0.041844 0.137033 -0.047527
v -0.050606 0.151774 -0.057733
v -0.061537 0.138019 -0.000000
v -0.041110 0.102468 -0.043300
v -0.059051 0.103366 -0.000000
v -0.048833 0.068327 -0.047527
v -0.068526 0.069313 -0.000000
v -0.060490 0.054609 -0.057733
v -0.060490 0.054609 -0.057733
v -0.097403 0.070758 -0.000000
v -0.069252 0.069349 -0.067939
v -0.099889 0.105410 -0.000000
v -0.069986 0.103914 0.072166
v -0.062263 0.138055 0.067939
v -0.090414 0.139464 -0.000000
v -0.041844 0.137033 0.047527
v -0.061537 0.138019 -0.000000
v -0.041110 0.102468 0.043300
v -0.048833 0.068327 0.047527
v -0.068526 0.069313 -0.000000
v -0.060490 0.054609 0.057733
v -0.084412 0.055806 -0.000000
v -0.097403 0.070758 -0.000000
v -0.069252 0.069349 0.067939
v 0.002205 0.100301 0.102058
v -0.062263 0.138055 0.067939
v -0.069986 0.103914 0.072166
v 0.005700 0.134654 0.096080
v -0.050606 0.151774 0.057733
v -0.050606 0.151774 0.057733
v 0.005700 0.134654 0.067213
v -0.041844 0.137033 0.047527
v 0.002205 0.100301 0.061235
v -0.041110 0.102468 0.043300
v -0.001289 0.065948 0.067213
v -0.048833 0.068327 0.047527
v -0.002737 0.051718 0.081647
v -0.060490 0.054609 0.057733
v -0.002737 0.051718 0.081647
v -0.069252 0.069349 0.067939
v -0.060490 0.054609 0.057733
v -0.001289 0.065948 0.096080
v 0.074397 0.096688 0.072166
v 0.073662 0.131252 0.067939
v 0.007147 0.148883 0.081647
v 0.005700 0.134654 0.096080
v 0.053243 0.132274 0.047527
v 0.005700 0.134654 0.067213
v 0.045520 0.098133 0.043300
v 0.046255 0.063568 0.047527
v -0.001289 0.065948 0.067213
v 0.055017 0.048828 0.057733
v -0.002737 0.051718 0.081647
v -0.001289 0.065948 0.096080
v 0.066674 0.062546 0.067939
v 0.073662 0.131252 0.067939
v 0.074397 0.096688 0.072166
v 0.064900 0.145993 0.057733
v 0.064900 0.145993 0.057733
v 0.053243 0.132274 0.047527
v 0.045520 0.098133 0.043300
v 0.046255 0.063568 0.047527
v 0.078939 0.047631 -0.000000
v 0.055017 0.048828 0.057733
v 0.066674 0.062546 0.067939
v 0.066674 0.062546 0.067939
v 0.100923 0.221224 -0.000000
v 0.065865 0.253004 -0.067939
v 0.093961 0.255260 -0.000000
v 0.093961 0.255260 -0.000000
v 0.055264 0.266482 -0.057733
v 0.079139 0.268400 -0.000000
v 0.065141 0.252946 -0.000000
v 0.045486 0.251367 -0.047527
v 0.060166 0.217950 -0.000000
v 0.065141 0.252946 -0.000000
v 0.042259 0.216512 -0.043300
v 0.067128 0.183914 -0.000000
v 0.047474 0.182335 -0.047527
v 0.081950 0.170774 -0.000000
v 0.067128 0.183914 -0.000000
v 0.067852 0.183972 -0.067939
v 0.095948 0.186228 -0.000000
v 0.095948 0.186228 -0.000000
v 0.071079 0.218827 -0.072166
v 0.071079 0.218827 -0.072166
v -0.001964 0.247556 -0.096080
v 0.065865 0.253004 -0.067939
v -0.002376 0.261853 -0.081647
v 0.055264 0.266482 -0.057733
v -0.002376 0.261853 -0.081647
v 0.045486 0.251367 -0.047527
v 0.055264 0.266482 -0.057733
v -0.001964 0.247556 -0.067214
v 0.042259 0.216512 -0.043300
v -0.000970 0.213040 -0.061235
v 0.047474 0.182335 -0.047527
v 0.000023 0.178524 -0.067214
v 0.058075 0.168856 -0.057733
v 0.058075 0.168856 -0.057733
v 0.000023 0.178524 -0.096080
v 0.067852 0.183972 -0.067939
v -0.000970 0.213040 -0.102058
v -0.069793 0.242108 -0.067939
v -0.001964 0.247556 -0.096080
v -0.060015 0.257223 -0.057733
v -0.002376 0.261853 -0.081647
v -0.001964 0.247556 -0.067214
v -0.049414 0.243745 -0.047527
v -0.044200 0.209568 -0.043300
v -0.047427 0.174713 -0.047527
v 0.000435 0.164227 -0.081647
v 0.000023 0.178524 -0.067214
v -0.067806 0.173076 -0.067939
v 0.000023 0.178524 -0.096080
v -0.073020 0.207253 -0.072166
v -0.073020 0.207253 -0.072166
v -0.097889 0.239851 -0.000000
v -0.069793 0.242108 -0.067939
v -0.083891 0.255306 -0.000000
v -0.060015 0.257223 -0.057733
v -0.083891 0.255306 -0.000000
v -0.049414 0.243745 -0.047527
v -0.069069 0.242166 -0.000000
v -0.044200 0.209568 -0.043300
v -0.049414 0.243745 -0.047527
v -0.062107 0.208129 -0.000000
v -0.047427 0.174713 -0.047527
v -0.067082 0.173134 -0.000000
v -0.057205 0.159597 -0.057733
v -0.057205 0.159597 -0.057733
v -0.095902 0.170819 -0.000000
v -0.067806 0.173076 -0.067939
v -0.102864 0.204856 -0.000000
v -0.073020 0.207253 0.072166
v -0.069793 0.242108 0.067939
v -0.097889 0.239851 -0.000000
v -0.049414 0.243745 0.047527
v -0.069069 0.242166 -0.000000
v -0.044200 0.209568 0.043300
v -0.047427 0.174713 0.047527
v -0.067082 0.173134 -0.000000
v -0.057205 0.159597 0.057733
v -0.081080 0.157680 -0.000000
v -0.067806 0.173076 0.067939
v -0.095902 0.170819 -0.000000
v -0.000970 0.213040 0.102058
v -0.069793 0.242108 0.067939
v -0.073020 0.207253 0.072166
v -0.001964 0.247556 0.096080
v -0.060015 0.257223 0.057733
v -0.060015 0.257223 0.057733
v -0.001964 0.247556 0.067213
v -0.049414 0.243745 0.047527
v -0.000970 0.213040 0.061235
v -0.044200 0.209568 0.043300
v 0.000023 0.178524 0.067213
v -0.047427 0.174713 0.047527
v 0.000435 0.164227 0.081647
v -0.057205 0.159597 0.057733
v 0.000435 0.164227 0.081647
v -0.067806 0.173076 0.067939
v -0.057205 0.159597 0.057733
v 0.000023 0.178524 0.096080
v 0.071079 0.218827 0.072166
v 0.065865 0.253004 0.067939
v -0.002376 0.261853 0.081647
v -0.001964 0.247556 0.096080
v 0.045486 0.251367 0.047527
v -0.001964 0.247556 0.067213
v 0.042259 0.216512 0.043300
v 0.047474 0.182335 0.047527
v 0.000023 0.178524 0.067213
v 0.058075 0.168856 0.057733
v 0.000435 0.164227 0.081647
v 0.000023 0.178524 0.096080
v 0.067852 0.183972 0.067939
v 0.065865 0.253004 0.067939
v 0.071079 0.218827 0.072166
v 0.055264 0.266482 0.057733
v 0.055264 0.266482 0.057733
v 0.045486 0.251367 0.047527
v 0.042259 0.216512 0.043300
v 0.047474 0.182335 0.047527
v 0.047474 0.182335 0.047527
v 0.081950 0.170774 -0.000000
v 0.067852 0.183972 0.067939
v 0.058075 0.168856 0.057733
v 0.000000 0.253407 0.068579
v -0.010739 -0.606578 0.006200
v -0.000000 -0.584627 0.035589
v -0.000000 -0.584627 -0.035588
v 0.049962 0.293422 -0.028846
v -0.049962 0.293422 -0.028846
v -0.000000 0.293422 0.057691
v 0.049962 0.293422 -0.028846
v -0.049962 0.293422 0.028845
v -0.000000 0.293422 -0.057691
v -0.000000 -0.606578 -0.012401
v -0.010739 -0.606578 0.006200
v 0.010739 -0.606578 0.006200
v -0.010739 -0.606578 -0.006200
v 0.010739 -0.606578 -0.006200
v 0.069745 0.204165 -0.067939
v 0.049341 0.202893 -0.047527
v 0.050092 0.133837 -0.047527
v 0.060450 0.120171 -0.057733
v 0.070497 0.135109 -0.067939
v 0.002737 0.116573 -0.081647
v 0.002737 0.116573 -0.081647
v -0.066086 0.195699 -0.067939
v -0.044930 0.127914 -0.047527
v -0.065335 0.126642 -0.067939
v -0.078882 0.111486 -0.000000
v -0.066086 0.195699 0.067939
v -0.056040 0.210636 0.057733
v -0.045681 0.196970 0.047527
v -0.044930 0.127914 0.047527
v -0.065335 0.126642 0.067939
v 0.001674 0.214234 0.081647
v 0.001674 0.214234 0.081647
v 0.069745 0.204165 0.067939
v 0.049341 0.202893 0.047527
v 0.070497 0.135109 0.067939
v 0.083293 0.219321 -0.000000
v 0.073662 0.131252 -0.067939
v 0.053243 0.132274 -0.047527
v 0.046255 0.063568 -0.047527
v 0.055017 0.048828 -0.057733
v 0.066674 0.062546 -0.067939
v -0.002737 0.051718 -0.081647
v -0.002737 0.051718 -0.081647
v -0.041844 0.137033 -0.047527
v -0.048833 0.068327 -0.047527
v -0.069252 0.069349 -0.067939
v -0.084412 0.055806 -0.000000
v -0.062263 0.138055 0.067939
v -0.050606 0.151774 0.057733
v -0.041844 0.137033 0.047527
v -0.048833 0.068327 0.047527
v -0.069252 0.069349 0.067939
v 0.007147 0.148883 0.081647
v 0.007147 0.148883 0.081647
v 0.073662 0.131252 0.067939
v 0.053243 0.132274 0.047527
v 0.046255 0.063568 0.047527
v 0.088822 0.144796 -0.000000
v 0.065865 0.253004 -0.067939
v 0.045486 0.251367 -0.047527
v 0.047474 0.182335 -0.047527
v 0.058075 0.168856 -0.057733
v 0.067852 0.183972 -0.067939
v 0.000435 0.164227 -0.081647
v 0.000435 0.164227 -0.081647
v -0.069793 0.242108 -0.067939
v -0.047427 0.174713 -0.047527
v -0.067806 0.173076 -0.067939
v -0.081080 0.157680 -0.000000
v -0.069793 0.242108 0.067939
v -0.060015 0.257223 0.057733
v -0.049414 0.243745 0.047527
v -0.047427 0.174713 0.047527
v -0.067806 0.173076 0.067939
v -0.002376 0.261853 0.081647
v -0.002376 0.261853 0.081647
v 0.065865 0.253004 0.067939
v 0.045486 0.251367 0.047527
v 0.067852 0.183972 0.067939
v 0.079139 0.268400 -0.000000
vt 0.311586 0.640161
vt 0.372485 0.774583
vt 0.364346 0.640165
vt 0.015468 0.774560
vt 0.076739 0.640148
vt 0.025432 0.640074
vt 0.127534 0.774382
vt 0.113703 0.639934
vt 0.403530 0.640166
vt 0.464429 0.774513
vt 0.456290 0.640212
vt 0.391078 0.910172
vt 0.464429 0.955656
vt 0.472949 0.910243
vt 0.162517 0.774035
vt 0.223788 0.639576
vt 0.172481 0.639801
vt 0.274583 0.774579
vt 0.260753 0.640230
vt 0.038043 0.134224
vt 0.445989 0.134607
vt 0.420916 0.113277
vt 0.411229 0.134577
vt 0.185092 0.134314
vt 0.319285 0.134392
vt 0.071846 0.134272
vt 0.218895 0.134166
vt 0.227655 0.954875
vt 0.264242 0.994964
vt 0.274583 0.955705
vt 0.005036 0.910483
vt 0.080605 0.955803
vt 0.084653 0.910597
vt 0.152086 0.909695
vt 0.231702 0.909345
vt 0.299135 0.910427
vt 0.372485 0.955736
vt 0.381006 0.910435
vt 0.127534 0.955532
vt 0.142013 0.910266
vt 0.289062 0.910360
vt 0.781196 0.063691
vt 0.683260 0.063691
vt 0.732228 0.148507
vt 0.401995 0.994915
vt 0.458343 0.994964
vt 0.015468 0.955710
vt 0.077714 0.994964
vt 0.162517 0.955161
vt 0.224764 0.994265
vt 0.117193 0.994735
vt 0.305503 0.955730
vt 0.366399 0.994964
vt 0.703883 0.486431
vt 0.722114 0.496957
vt 0.722114 0.475905
vt 0.053911 0.112618
vt 0.200960 0.113084
vt 0.733477 0.516639
vt 0.709960 0.496957
vt 0.698596 0.516639
vt 0.354045 0.134395
vt 0.328972 0.112900
vt 0.698596 0.456223
vt 0.733477 0.456223
vt 0.227655 0.773749
vt 0.289062 0.819797
vt 0.231702 0.818782
vt 0.289062 0.865079
vt 0.231702 0.864063
vt 0.080605 0.774653
vt 0.142013 0.819690
vt 0.084653 0.820022
vt 0.142013 0.864978
vt 0.084653 0.865309
vt 0.305503 0.774577
vt 0.381006 0.819858
vt 0.299135 0.819851
vt 0.381006 0.865146
vt 0.299135 0.865139
vt 0.152086 0.819132
vt 0.152086 0.864413
vt 0.005036 0.819908
vt 0.005036 0.865195
vt 0.397447 0.774455
vt 0.472949 0.819671
vt 0.391078 0.819600
vt 0.472949 0.864957
vt 0.391078 0.864886
vt 0.747642 0.933715
vt 0.777713 0.990673
vt 0.781111 0.933012
vt 0.688524 0.503794
vt 0.632021 0.465946
vt 0.675317 0.509262
vt 0.662392 0.514614
vt 0.313345 0.102827
vt 0.345803 0.061001
vt 0.311513 0.062448
vt 0.347472 0.097789
vt 0.379174 0.062448
vt 0.616678 0.663021
vt 0.567829 0.693212
vt 0.581036 0.698680
vt 0.605854 0.636886
vt 0.554904 0.687860
vt 0.713450 0.931508
vt 0.744032 0.994964
vt 0.838605 0.295594
vt 0.804938 0.223124
vt 0.804938 0.295215
vt 0.791269 0.229813
vt 0.791269 0.291074
vt 0.616096 0.117389
vt 0.559694 0.105611
vt 0.554904 0.120342
vt 0.610068 0.103180
vt 0.561677 0.071476
vt 0.607572 0.069261
vt 0.559694 0.037932
vt 0.610068 0.035500
vt 0.554904 0.024629
vt 0.886884 0.286511
vt 0.872548 0.219897
vt 0.872548 0.291988
vt 0.838605 0.219017
vt 0.806238 0.174510
vt 0.605854 0.452820
vt 0.567829 0.509244
vt 0.611125 0.465948
vt 0.616678 0.478960
vt 0.643999 0.100224
vt 0.638484 0.066568
vt 0.662392 0.698668
vt 0.632021 0.649898
vt 0.626750 0.663026
vt 0.688524 0.687836
vt 0.637574 0.636886
vt 0.839985 0.167378
vt 0.747875 0.663737
vt 0.713630 0.590205
vt 0.713630 0.661562
vt 0.698596 0.594057
vt 0.698596 0.654694
vt 0.567829 0.570488
vt 0.581036 0.514602
vt 0.087680 0.045416
vt 0.055245 0.092328
vt 0.088789 0.095320
vt 0.054235 0.046863
vt 0.021111 0.095320
vt 0.020002 0.045416
vt 0.006383 0.102545
vt 0.675317 0.693194
vt 0.688524 0.759906
vt 0.781272 0.659946
vt 0.747875 0.587940
vt 0.743631 0.526711
vt 0.605854 0.626814
vt 0.554904 0.575840
vt 0.616678 0.600679
vt 0.581036 0.565020
vt 0.055584 0.010074
vt 0.021483 0.005036
vt 0.662392 0.749086
vt 0.632021 0.797754
vt 0.675317 0.754438
vt 0.777276 0.530947
vt 0.781272 0.588589
vt 0.837707 0.759202
vt 0.871708 0.686250
vt 0.837707 0.682623
vt 0.871708 0.758343
vt 0.886191 0.691744
vt 0.896864 0.992043
vt 0.952027 0.980991
vt 0.901652 0.978587
vt 0.949529 0.947167
vt 0.903635 0.944976
vt 0.952027 0.913304
vt 0.901652 0.910900
vt 0.958056 0.899240
vt 0.896864 0.896320
vt 0.790589 0.748393
vt 0.804107 0.682987
vt 0.790589 0.687130
vt 0.804107 0.755081
vt 0.839706 0.810880
vt 0.688523 0.575864
vt 0.632021 0.613802
vt 0.637574 0.626814
vt 0.662392 0.565032
vt 0.626750 0.600674
vt 0.980438 0.949471
vt 0.985953 0.915834
vt 0.616678 0.784740
vt 0.567829 0.754456
vt 0.611125 0.797751
vt 0.605854 0.810880
vt 0.805989 0.803731
vt 0.781111 0.861658
vt 0.747642 0.857921
vt 0.675317 0.570506
vt 0.297840 0.005319
vt 0.312706 0.012544
vt 0.346889 0.015536
vt 0.380366 0.012544
vt 0.581036 0.749098
vt 0.698565 0.927686
vt 0.713450 0.860155
vt 0.698565 0.867051
vt 0.747053 0.735092
vt 0.710913 0.678630
vt 0.713121 0.736322
vt 0.544832 0.687823
vt 0.489748 0.649397
vt 0.533069 0.692697
vt 0.518685 0.698657
vt 0.979922 0.457085
vt 0.945236 0.499178
vt 0.978796 0.497453
vt 0.946261 0.462401
vt 0.911333 0.498005
vt 0.544832 0.478928
vt 0.497406 0.509699
vt 0.509169 0.514573
vt 0.534001 0.452785
vt 0.483022 0.503739
vt 0.780516 0.736762
vt 0.744708 0.673810
vt 0.838697 0.535531
vt 0.872593 0.608076
vt 0.872593 0.535985
vt 0.886876 0.601417
vt 0.886876 0.540156
vt 0.958108 0.154490
vt 0.901715 0.143216
vt 0.896913 0.157305
vt 0.952092 0.140899
vt 0.903703 0.109359
vt 0.949600 0.107248
vt 0.901715 0.075566
vt 0.952092 0.073249
vt 0.896913 0.061632
vt 0.791345 0.544501
vt 0.805042 0.611149
vt 0.805042 0.539058
vt 0.838697 0.612107
vt 0.873734 0.656682
vt 0.605884 0.820953
vt 0.569288 0.876799
vt 0.612609 0.833478
vt 0.616714 0.847090
vt 0.986056 0.139728
vt 0.980543 0.106181
vt 0.518685 0.882753
vt 0.489748 0.834564
vt 0.483022 0.847090
vt 0.544832 0.871932
vt 0.493852 0.820953
vt 0.839909 0.663737
vt 0.746749 0.305667
vt 0.780309 0.379727
vt 0.780309 0.308381
vt 0.554904 0.871932
vt 0.569288 0.938050
vt 0.896957 0.258205
vt 0.911481 0.204882
vt 0.896957 0.197575
vt 0.911481 0.254794
vt 0.945413 0.208091
vt 0.945413 0.253564
vt 0.978876 0.205322
vt 0.518685 0.933176
vt 0.533069 0.877885
vt 0.698462 0.316267
vt 0.712846 0.380280
vt 0.712846 0.308933
vt 0.746749 0.381453
vt 0.745040 0.442747
vt 0.605884 0.994964
vt 0.554904 0.944010
vt 0.616714 0.968821
vt 0.581051 0.933176
vt 0.946820 0.290333
vt 0.980421 0.295594
vt 0.978876 0.255235
vt 0.489748 0.982435
vt 0.533069 0.939136
vt 0.544832 0.944010
vt 0.711238 0.437984
vt 0.838852 0.080730
vt 0.805122 0.153763
vt 0.838852 0.157305
vt 0.805122 0.081674
vt 0.791269 0.148319
vt 0.896949 0.660953
vt 0.952144 0.649166
vt 0.901764 0.646875
vt 0.949657 0.615121
vt 0.903759 0.613034
vt 0.952144 0.581545
vt 0.901764 0.579254
vt 0.958147 0.568106
vt 0.896949 0.565323
vt 0.886840 0.091455
vt 0.872701 0.156871
vt 0.886840 0.152715
vt 0.872701 0.084782
vt 0.839445 0.029131
vt 0.544832 0.759901
vt 0.489748 0.797268
vt 0.493852 0.810880
vt 0.518685 0.749079
vt 0.483022 0.784742
vt 0.980636 0.615802
vt 0.986147 0.582293
vt 0.544832 0.600659
vt 0.497406 0.570949
vt 0.540727 0.614270
vt 0.534001 0.626796
vt 0.873259 0.036205
vt 0.713121 0.807671
vt 0.747053 0.810880
vt 0.698596 0.800363
vt 0.533069 0.753947
vt 0.978796 0.547364
vt 0.945236 0.544650
vt 0.911333 0.547916
vt 0.896949 0.494621
vt 0.896949 0.555250
vt 0.483022 0.575817
vt 0.780516 0.808111
vt 0.747838 0.234379
vt 0.776907 0.291385
vt 0.781196 0.233756
vt 0.688389 0.319796
vt 0.631716 0.282001
vt 0.674965 0.325348
vt 0.662286 0.330591
vt 0.408783 0.103204
vt 0.440795 0.061383
vt 0.406428 0.062830
vt 0.442940 0.098166
vt 0.474046 0.062830
vt 0.544728 0.294872
vt 0.495701 0.325005
vt 0.509125 0.330556
vt 0.533916 0.268751
vt 0.483022 0.319761
vt 0.713568 0.232085
vt 0.743281 0.295594
vt 0.838376 0.994964
vt 0.804753 0.922501
vt 0.804753 0.994594
vt 0.791184 0.929189
vt 0.791184 0.990452
vt 0.944495 0.439773
vt 0.888095 0.427917
vt 0.883302 0.442747
vt 0.938470 0.425468
vt 0.890080 0.393744
vt 0.935975 0.391513
vt 0.888095 0.360247
vt 0.938471 0.357798
vt 0.883302 0.347048
vt 0.886792 0.985854
vt 0.872357 0.919251
vt 0.872357 0.991343
vt 0.838376 0.918385
vt 0.806441 0.873861
vt 0.605798 0.268786
vt 0.567583 0.325261
vt 0.610831 0.282013
vt 0.616610 0.294931
vt 0.972413 0.422229
vt 0.966898 0.388562
vt 0.662390 0.882751
vt 0.631820 0.833921
vt 0.626787 0.847148
vt 0.688493 0.871897
vt 0.637599 0.821003
vt 0.840169 0.866718
vt 0.839951 0.442747
vt 0.805634 0.369297
vt 0.805634 0.440660
vt 0.790382 0.373194
vt 0.790382 0.433837
vt 0.567583 0.386494
vt 0.581007 0.330534
vt 0.234932 0.045831
vt 0.202722 0.092743
vt 0.236165 0.095736
vt 0.201599 0.047278
vt 0.168516 0.095736
vt 0.167283 0.045831
vt 0.153584 0.102959
vt 0.675068 0.877169
vt 0.688493 0.943953
vt 0.873229 0.438877
vt 0.839951 0.366944
vt 0.834760 0.305754
vt 0.605798 0.442747
vt 0.554904 0.391737
vt 0.616610 0.416627
vt 0.581007 0.380943
vt 0.203425 0.010492
vt 0.169287 0.005454
vt 0.662390 0.933159
vt 0.631820 0.981749
vt 0.675068 0.938402
vt 0.868343 0.309909
vt 0.873229 0.367514
vt 0.601875 0.206997
vt 0.635911 0.134058
vt 0.601875 0.130415
vt 0.635911 0.206153
vt 0.650491 0.139566
vt 0.896264 0.807937
vt 0.951428 0.797006
vt 0.901053 0.794583
vt 0.948931 0.763224
vt 0.903037 0.761017
vt 0.951428 0.729323
vt 0.901053 0.726901
vt 0.957456 0.715162
vt 0.896264 0.712219
vt 0.554904 0.196184
vt 0.568321 0.130772
vt 0.554904 0.134919
vt 0.568321 0.202868
vt 0.604285 0.258714
vt 0.688389 0.391854
vt 0.631716 0.429829
vt 0.637495 0.442747
vt 0.662286 0.380999
vt 0.626683 0.416602
vt 0.979844 0.765787
vt 0.985359 0.732137
vt 0.544728 0.416567
vt 0.495701 0.386237
vt 0.538949 0.429486
vt 0.533916 0.442712
vt 0.570590 0.251555
vt 0.781196 0.162397
vt 0.747838 0.158579
vt 0.674965 0.386580
vt 0.392677 0.005702
vt 0.407745 0.012925
vt 0.441994 0.015917
vt 0.475363 0.012925
vt 0.509125 0.380964
vt 0.698462 0.228218
vt 0.713568 0.160726
vt 0.698462 0.167578
vt 0.397447 0.955598
vt 0.433028 0.113288
vt 0.096199 0.134131
vt 0.243248 0.134597
vt 0.781196 0.120235
vt 0.732228 0.035419
vt 0.683260 0.120235
vt 0.022918 0.994885
vt 0.169968 0.994506
vt 0.310052 0.994959
vt 0.709960 0.475905
vt 0.728191 0.486431
vt 0.065689 0.112635
vt 0.212738 0.113032
vt 0.341084 0.112901
vt 0.637574 0.452820
vt 0.626750 0.478955
vt 0.381006 0.102827
vt 0.611125 0.649895
vt 0.710051 0.989170
vt 0.616096 0.021676
vt 0.886884 0.225250
vt 0.554904 0.503769
vt 0.643999 0.032545
vt 0.873847 0.171283
vt 0.005036 0.041925
vt 0.709634 0.532563
vt 0.611125 0.613804
vt 0.089161 0.005036
vt 0.626750 0.784745
vt 0.637574 0.810880
vt 0.886191 0.753007
vt 0.958056 0.994964
vt 0.873589 0.806994
vt 0.985953 0.983520
vt 0.554904 0.759931
vt 0.296392 0.065939
vt 0.493852 0.636869
vt 0.483022 0.663012
vt 0.912459 0.457638
vt 0.540727 0.466399
vt 0.778309 0.679070
vt 0.958108 0.058818
vt 0.791345 0.605762
vt 0.581051 0.882753
vt 0.986056 0.072078
vt 0.806183 0.659754
vt 0.698462 0.376896
vt 0.778701 0.437431
vt 0.612609 0.981349
vt 0.913025 0.295153
vt 0.483022 0.968821
vt 0.493852 0.994964
vt 0.791269 0.087059
vt 0.958147 0.663737
vt 0.805680 0.033097
vt 0.986147 0.649914
vt 0.509169 0.564996
vt 0.698596 0.739733
vt 0.637495 0.268786
vt 0.626683 0.294907
vt 0.476401 0.103204
vt 0.538949 0.281657
vt 0.709278 0.289714
vt 0.944495 0.344073
vt 0.886792 0.924592
vt 0.554904 0.319680
vt 0.972413 0.354559
vt 0.874045 0.870610
vt 0.152086 0.042338
vt 0.800748 0.311691
vt 0.610831 0.429841
vt 0.236936 0.005454
vt 0.626787 0.968843
vt 0.637599 0.994964
vt 0.650491 0.200831
vt 0.957456 0.810880
vt 0.638180 0.254840
vt 0.985359 0.799819
vt 0.483022 0.391819
vt 0.391078 0.066324
vn -0.000002 -0.071472 -0.997443
vn 0.845205 -0.217952 -0.487980
vn 0.863810 -0.071473 -0.498722
vn 0.845205 -0.217952 -0.487980
vn 0.863811 -0.071472 0.498721
vn 0.863810 -0.071473 -0.498722
vn -0.000010 -0.217950 0.975960
vn 0.000002 -0.071472 0.997443
vn 0.000002 -0.071472 0.997443
vn -0.845205 -0.217952 0.487980
vn -0.863810 -0.071472 0.498722
vn -0.000005 0.151274 0.988492
vn -0.828709 0.290384 0.478455
vn -0.856062 0.151274 0.494242
vn -0.845205 -0.217952 0.487980
vn -0.863811 -0.071472 -0.498721
vn -0.863810 -0.071472 0.498722
vn 0.000010 -0.217950 -0.975960
vn -0.000002 -0.071472 -0.997443
vn 0.803829 -0.372128 -0.464089
vn -0.803829 -0.372128 0.464089
vn 0.000004 -0.884924 0.465735
vn -0.000002 -0.372128 0.928181
vn -0.803829 -0.372128 0.464089
vn 0.000002 -0.372128 -0.928181
vn 0.803828 -0.372128 0.464092
vn -0.803828 -0.372128 -0.464092
vn -0.828708 0.290384 -0.478457
vn -0.000001 0.707753 -0.706460
vn 0.000002 0.290384 -0.956910
vn 0.856062 0.151273 -0.494242
vn 0.828708 0.290384 0.478457
vn 0.856057 0.151274 0.494250
vn -0.856062 0.151274 0.494242
vn -0.856057 0.151273 -0.494250
vn 0.000005 0.151273 -0.988492
vn 0.828710 0.290384 -0.478453
vn 0.856062 0.151273 -0.494242
vn -0.000001 0.290384 0.956910
vn -0.000005 0.151274 0.988492
vn 0.000005 0.151273 -0.988492
vn -0.000001 0.707753 -0.706460
vn -0.611812 0.707754 0.353229
vn 0.611813 0.707753 0.353229
vn -0.000000 0.707756 0.706457
vn -0.611812 0.707754 0.353229
vn 0.828710 0.290384 -0.478453
vn 0.611813 0.707753 0.353229
vn -0.828709 0.290384 0.478455
vn -0.611810 0.707757 -0.353227
vn -0.000000 0.707756 0.706457
vn 0.000002 0.290384 -0.956910
vn 0.611808 0.707757 -0.353229
vn 0.403336 -0.884925 -0.232870
vn 0.000004 -0.884924 0.465735
vn -0.403340 -0.884924 -0.232865
vn 0.403336 -0.884925 -0.232870
vn -0.403334 -0.884926 0.232869
vn -0.000002 -0.372128 0.928181
vn 0.403338 -0.884925 0.232864
vn 0.803828 -0.372128 0.464092
vn 0.803829 -0.372128 -0.464089
vn -0.000004 -0.884926 -0.465732
vn 0.000002 -0.372128 -0.928181
vn -0.803828 -0.372128 -0.464092
vn -0.845207 -0.217948 -0.487980
vn -0.000005 -0.151274 -0.988492
vn -0.856062 -0.151274 -0.494241
vn 0.000000 -0.000000 -1.000000
vn -0.866025 -0.000000 -0.500000
vn 0.845207 -0.217948 0.487980
vn 0.000005 -0.151273 0.988492
vn 0.856062 -0.151273 0.494242
vn -0.000000 0.000000 1.000000
vn 0.866025 0.000000 0.500000
vn 0.000010 -0.217950 -0.975960
vn 0.856057 -0.151273 -0.494250
vn -0.000005 -0.151274 -0.988492
vn 0.866025 -0.000000 -0.500000
vn 0.000000 -0.000000 -1.000000
vn -0.856057 -0.151273 0.494250
vn -0.866025 0.000000 0.500000
vn 0.856057 -0.151273 -0.494250
vn 0.866025 -0.000000 -0.500000
vn -0.000010 -0.217950 0.975960
vn -0.856057 -0.151273 0.494250
vn 0.000005 -0.151273 0.988492
vn -0.866025 0.000000 0.500000
vn -0.000000 0.000000 1.000000
vn 0.999897 0.014331 0.000000
vn 0.619831 0.450723 -0.642385
vn 0.889024 0.457861 0.000000
vn 0.889024 0.457861 0.000000
vn 0.073440 0.988651 -0.131056
vn 0.133673 0.991025 -0.000000
vn -0.879605 0.475704 -0.000000
vn -0.634972 0.481312 0.604276
vn -0.999948 -0.010167 -0.000000
vn -0.879605 0.475704 -0.000000
vn -0.707040 -0.007194 0.707137
vn -0.856263 -0.516540 0.000000
vn -0.592009 -0.510172 0.623899
vn 0.208425 -0.978038 0.000000
vn -0.856263 -0.516540 0.000000
vn 0.653004 -0.417820 -0.631674
vn 0.911500 -0.411301 0.000000
vn 0.911500 -0.411301 0.000000
vn 0.706894 0.010133 -0.707247
vn 0.706894 0.010133 -0.707247
vn -0.021934 0.433962 -0.900664
vn 0.619831 0.450723 -0.642385
vn -0.057355 0.983599 -0.171004
vn 0.073440 0.988651 -0.131056
vn -0.057355 0.983599 -0.171004
vn -0.634972 0.481312 0.604276
vn 0.073440 0.988651 -0.131056
vn -0.031275 0.495363 0.868123
vn -0.707040 -0.007194 0.707137
vn 0.000000 0.000000 1.000000
vn -0.592009 -0.510172 0.623899
vn 0.031275 -0.495363 0.868123
vn 0.168182 -0.979480 -0.111054
vn 0.168182 -0.979480 -0.111054
vn 0.021933 -0.433962 -0.900664
vn 0.653004 -0.417820 -0.631674
vn -0.000000 -0.000000 -1.000000
vn -0.653004 0.417820 -0.631674
vn -0.021934 0.433962 -0.900664
vn -0.168183 0.979480 -0.111054
vn -0.057355 0.983599 -0.171004
vn -0.031275 0.495363 0.868123
vn 0.592009 0.510172 0.623898
vn 0.707040 0.007194 0.707137
vn 0.634972 -0.481312 0.604276
vn 0.057355 -0.983600 -0.171004
vn 0.031275 -0.495363 0.868123
vn -0.619831 -0.450723 -0.642384
vn 0.021933 -0.433962 -0.900664
vn -0.706894 -0.010133 -0.707247
vn -0.706894 -0.010133 -0.707247
vn -0.911500 0.411301 -0.000000
vn -0.653004 0.417820 -0.631674
vn -0.208425 0.978038 -0.000000
vn -0.168183 0.979480 -0.111054
vn -0.208425 0.978038 -0.000000
vn 0.592009 0.510172 0.623898
vn 0.856263 0.516539 0.000000
vn 0.707040 0.007194 0.707137
vn 0.592009 0.510172 0.623898
vn 0.999948 0.010167 0.000000
vn 0.634972 -0.481312 0.604276
vn 0.879605 -0.475704 0.000000
vn -0.073440 -0.988651 -0.131056
vn -0.073440 -0.988651 -0.131056
vn -0.889024 -0.457861 0.000000
vn -0.619831 -0.450723 -0.642384
vn -0.999897 -0.014331 -0.000000
vn -0.706894 -0.010133 0.707247
vn -0.653004 0.417820 0.631674
vn -0.911500 0.411301 -0.000000
vn 0.592009 0.510172 -0.623899
vn 0.856263 0.516539 0.000000
vn 0.707040 0.007194 -0.707137
vn 0.634972 -0.481312 -0.604276
vn 0.879605 -0.475704 0.000000
vn -0.073440 -0.988651 0.131056
vn -0.133673 -0.991026 0.000000
vn -0.619831 -0.450723 0.642384
vn -0.889024 -0.457861 0.000000
vn -0.000000 0.000000 1.000000
vn -0.653004 0.417820 0.631674
vn -0.706894 -0.010133 0.707247
vn -0.021933 0.433962 0.900664
vn -0.168183 0.979480 0.111054
vn -0.168183 0.979480 0.111054
vn -0.031275 0.495362 -0.868123
vn 0.592009 0.510172 -0.623899
vn 0.000000 -0.000000 -1.000000
vn 0.707040 0.007194 -0.707137
vn 0.031275 -0.495363 -0.868123
vn 0.634972 -0.481312 -0.604276
vn 0.057354 -0.983599 0.171004
vn -0.073440 -0.988651 0.131056
vn 0.057354 -0.983599 0.171004
vn -0.619831 -0.450723 0.642384
vn -0.073440 -0.988651 0.131056
vn 0.021933 -0.433962 0.900664
vn 0.706893 0.010133 0.707248
vn 0.619831 0.450723 0.642385
vn -0.057354 0.983600 0.171004
vn -0.021933 0.433962 0.900664
vn -0.634971 0.481313 -0.604276
vn -0.031275 0.495362 -0.868123
vn -0.707040 -0.007194 -0.707137
vn -0.592009 -0.510172 -0.623899
vn 0.031275 -0.495363 -0.868123
vn 0.168183 -0.979480 0.111054
vn 0.057354 -0.983599 0.171004
vn 0.021933 -0.433962 0.900664
vn 0.653004 -0.417820 0.631674
vn 0.619831 0.450723 0.642385
vn 0.706893 0.010133 0.707248
vn 0.073441 0.988651 0.131056
vn 0.073441 0.988651 0.131056
vn -0.634971 0.481313 -0.604276
vn -0.707040 -0.007194 -0.707137
vn -0.592009 -0.510172 -0.623899
vn -0.592009 -0.510172 -0.623899
vn 0.208425 -0.978038 0.000000
vn 0.653004 -0.417820 0.631674
vn 0.168183 -0.979480 0.111054
vn 0.995209 -0.097767 0.000000
vn 0.666420 0.378454 -0.642384
vn 0.934718 0.355391 -0.000000
vn 0.934718 0.355391 -0.000000
vn 0.183726 0.974202 -0.131056
vn 0.243846 0.969814 -0.000001
vn -0.820781 0.571243 -0.000000
vn -0.577059 0.549412 0.604276
vn -0.994794 0.101910 -0.000000
vn -0.820781 0.571243 -0.000000
vn -0.703396 0.072054 0.707137
vn -0.908736 -0.417371 0.000000
vn -0.645432 -0.440645 0.623899
vn 0.097554 -0.995230 0.000000
vn -0.908736 -0.417371 0.000000
vn 0.602090 -0.488339 -0.631674
vn 0.859689 -0.510818 0.000000
vn 0.859689 -0.510818 0.000000
vn 0.703579 -0.069117 -0.707247
vn 0.703579 -0.069117 -0.707247
vn 0.026817 0.433687 -0.900664
vn 0.666420 0.378454 -0.642384
vn 0.053188 0.983834 -0.171004
vn 0.183726 0.974202 -0.131056
vn 0.053188 0.983834 -0.171004
vn -0.577059 0.549412 0.604276
vn 0.183726 0.974202 -0.131056
vn 0.024413 0.495748 0.868123
vn -0.703396 0.072054 0.707137
vn 0.000000 0.000000 1.000000
vn -0.645432 -0.440645 0.623899
vn -0.024412 -0.495748 0.868123
vn 0.057403 -0.992155 -0.111054
vn 0.057403 -0.992155 -0.111054
vn -0.026817 -0.433688 -0.900664
vn 0.602090 -0.488339 -0.631674
vn -0.000000 -0.000000 -1.000000
vn -0.602090 0.488339 -0.631674
vn 0.026817 0.433687 -0.900664
vn -0.057403 0.992155 -0.111054
vn 0.053188 0.983834 -0.171004
vn 0.024413 0.495748 0.868123
vn 0.645432 0.440645 0.623898
vn 0.703396 -0.072053 0.707137
vn 0.577059 -0.549412 0.604276
vn -0.053189 -0.983834 -0.171004
vn -0.024412 -0.495748 0.868123
vn -0.666420 -0.378453 -0.642384
vn -0.026817 -0.433688 -0.900664
vn -0.703580 0.069116 -0.707247
vn -0.703580 0.069116 -0.707247
vn -0.859689 0.510818 -0.000000
vn -0.602090 0.488339 -0.631674
vn -0.602090 0.488339 -0.631674
vn -0.097554 0.995230 -0.000000
vn -0.097554 0.995230 -0.000000
vn 0.645432 0.440645 0.623898
vn -0.057403 0.992155 -0.111054
vn 0.908736 0.417370 0.000000
vn 0.703396 -0.072053 0.707137
vn 0.994794 -0.101911 0.000000
vn 0.577059 -0.549412 0.604276
vn 0.820781 -0.571243 0.000000
vn -0.183726 -0.974202 -0.131056
vn -0.183726 -0.974202 -0.131056
vn -0.934717 -0.355392 0.000000
vn -0.666420 -0.378453 -0.642384
vn -0.995209 0.097767 -0.000000
vn -0.703580 0.069117 0.707247
vn -0.602090 0.488339 0.631674
vn -0.859689 0.510818 -0.000000
vn 0.645432 0.440645 -0.623899
vn 0.908736 0.417370 0.000000
vn 0.703396 -0.072054 -0.707137
vn 0.577059 -0.549412 -0.604276
vn 0.820781 -0.571243 0.000000
vn -0.183726 -0.974202 0.131056
vn -0.243845 -0.969814 0.000000
vn -0.934717 -0.355392 0.000000
vn -0.666420 -0.378453 0.642385
vn -0.000000 0.000000 1.000000
vn -0.602090 0.488339 0.631674
vn -0.703580 0.069117 0.707247
vn 0.026817 0.433688 0.900664
vn -0.057403 0.992155 0.111054
vn -0.057403 0.992155 0.111054
vn 0.024412 0.495748 -0.868123
vn 0.645432 0.440645 -0.623899
vn 0.000000 -0.000000 -1.000000
vn 0.703396 -0.072054 -0.707137
vn -0.024412 -0.495748 -0.868123
vn 0.577059 -0.549412 -0.604276
vn -0.053189 -0.983834 0.171004
vn -0.183726 -0.974202 0.131056
vn -0.053189 -0.983834 0.171004
vn -0.666420 -0.378453 0.642385
vn -0.183726 -0.974202 0.131056
vn -0.026817 -0.433688 0.900664
vn 0.703579 -0.069116 0.707248
vn 0.666420 0.378453 0.642385
vn 0.053188 0.983834 0.171004
vn 0.026817 0.433688 0.900664
vn -0.577059 0.549412 -0.604276
vn 0.024412 0.495748 -0.868123
vn -0.703396 0.072053 -0.707137
vn -0.645432 -0.440644 -0.623899
vn -0.024412 -0.495748 -0.868123
vn 0.057403 -0.992155 0.111054
vn -0.053189 -0.983834 0.171004
vn -0.026817 -0.433688 0.900664
vn 0.602090 -0.488339 0.631674
vn 0.666420 0.378453 0.642385
vn 0.703579 -0.069116 0.707248
vn 0.183727 0.974202 0.131056
vn 0.183727 0.974202 0.131056
vn -0.577059 0.549412 -0.604276
vn -0.703396 0.072053 -0.707137
vn -0.645432 -0.440644 -0.623899
vn 0.097554 -0.995230 0.000000
vn 0.057403 -0.992155 0.111054
vn 0.602090 -0.488339 0.631674
vn 0.602090 -0.488339 0.631674
vn 0.999481 0.032222 0.000000
vn 0.611666 0.461743 -0.642384
vn 0.880688 0.473696 0.000000
vn 0.880688 0.473696 0.000000
vn 0.055737 0.989807 -0.131055
vn 0.115918 0.993259 -0.000000
vn -0.887977 0.459887 0.000000
vn -0.643483 0.469873 0.604276
vn -0.999606 -0.028060 -0.000000
vn -0.887977 0.459887 0.000000
vn -0.706798 -0.019845 0.707137
vn -0.846883 -0.531779 -0.000000
vn -0.582785 -0.520684 0.623899
vn 0.225893 -0.974152 0.000000
vn -0.846883 -0.531779 -0.000000
vn 0.660376 -0.406068 -0.631674
vn 0.918714 -0.394924 0.000000
vn 0.918714 -0.394924 0.000000
vn 0.706599 0.022781 -0.707247
vn 0.706599 0.022781 -0.707247
vn -0.029696 0.433500 -0.900664
vn 0.611666 0.461743 -0.642384
vn -0.074947 0.982415 -0.171005
vn 0.055737 0.989807 -0.131055
vn -0.074947 0.982415 -0.171005
vn -0.643483 0.469873 0.604276
vn 0.055737 0.989807 -0.131055
vn -0.040134 0.494724 0.868123
vn -0.706798 -0.019845 0.707137
vn -0.000000 0.000000 1.000000
vn -0.582785 -0.520684 0.623899
vn 0.040134 -0.494724 0.868123
vn 0.185683 -0.976314 -0.111054
vn 0.185683 -0.976314 -0.111054
vn 0.029695 -0.433500 -0.900664
vn 0.660376 -0.406068 -0.631674
vn -0.000000 -0.000000 -1.000000
vn -0.660376 0.406068 -0.631674
vn -0.029696 0.433500 -0.900664
vn -0.185683 0.976314 -0.111054
vn -0.074947 0.982415 -0.171005
vn -0.040134 0.494724 0.868123
vn 0.582785 0.520684 0.623899
vn 0.706798 0.019845 0.707137
vn 0.643484 -0.469872 0.604276
vn 0.074947 -0.982416 -0.171004
vn 0.040134 -0.494724 0.868123
vn -0.611667 -0.461743 -0.642384
vn 0.029695 -0.433500 -0.900664
vn -0.706599 -0.022781 -0.707247
vn -0.706599 -0.022781 -0.707247
vn -0.918714 0.394924 -0.000000
vn -0.660376 0.406068 -0.631674
vn -0.225893 0.974152 -0.000000
vn -0.185683 0.976314 -0.111054
vn -0.225893 0.974152 -0.000000
vn 0.582785 0.520684 0.623899
vn 0.846883 0.531779 0.000000
vn 0.706798 0.019845 0.707137
vn 0.582785 0.520684 0.623899
vn 0.999606 0.028059 0.000000
vn 0.643484 -0.469872 0.604276
vn 0.887977 -0.459888 0.000000
vn -0.055736 -0.989807 -0.131055
vn -0.055736 -0.989807 -0.131055
vn -0.880688 -0.473697 0.000000
vn -0.611667 -0.461743 -0.642384
vn -0.999481 -0.032222 -0.000000
vn -0.706599 -0.022781 0.707247
vn -0.660377 0.406068 0.631674
vn -0.918714 0.394924 -0.000000
vn 0.582785 0.520684 -0.623899
vn 0.846883 0.531779 0.000000
vn 0.706798 0.019845 -0.707137
vn 0.643484 -0.469872 -0.604276
vn 0.887977 -0.459888 0.000000
vn -0.055737 -0.989807 0.131056
vn -0.115917 -0.993259 0.000000
vn -0.611667 -0.461743 0.642384
vn -0.880688 -0.473697 0.000000
vn -0.000000 0.000000 1.000000
vn -0.660377 0.406068 0.631674
vn -0.706599 -0.022781 0.707247
vn -0.029695 0.433500 0.900664
vn -0.185684 0.976314 0.111054
vn -0.185684 0.976314 0.111054
vn -0.040134 0.494724 -0.868123
vn 0.582785 0.520684 -0.623899
vn 0.000000 -0.000000 -1.000000
vn 0.706798 0.019845 -0.707137
vn 0.040134 -0.494724 -0.868123
vn 0.643484 -0.469872 -0.604276
vn 0.074946 -0.982416 0.171004
vn -0.055737 -0.989807 0.131056
vn 0.074946 -0.982416 0.171004
vn -0.611667 -0.461743 0.642384
vn -0.055737 -0.989807 0.131056
vn 0.029695 -0.433500 0.900664
vn 0.706599 0.022781 0.707247
vn 0.611666 0.461743 0.642385
vn -0.074946 0.982416 0.171004
vn -0.029695 0.433500 0.900664
vn -0.643483 0.469872 -0.604276
vn -0.040134 0.494724 -0.868123
vn -0.706798 -0.019846 -0.707137
vn -0.582785 -0.520684 -0.623899
vn 0.040134 -0.494724 -0.868123
vn 0.185683 -0.976314 0.111054
vn 0.074946 -0.982416 0.171004
vn 0.029695 -0.433500 0.900664
vn 0.660376 -0.406067 0.631674
vn 0.611666 0.461743 0.642385
vn 0.706599 0.022781 0.707247
vn 0.055737 0.989807 0.131056
vn 0.055737 0.989807 0.131056
vn -0.643483 0.469872 -0.604276
vn -0.706798 -0.019846 -0.707137
vn -0.582785 -0.520684 -0.623899
vn -0.582785 -0.520684 -0.623899
vn 0.225893 -0.974152 0.000000
vn 0.660376 -0.406067 0.631674
vn 0.185683 -0.976314 0.111054
vn -0.000001 0.290384 0.956910
vn -0.403334 -0.884926 0.232869
vn -0.000002 -0.372128 0.928181
vn 0.000002 -0.372128 -0.928181
vn 0.611808 0.707757 -0.353229
vn -0.611810 0.707757 -0.353227
vn -0.000000 0.707756 0.706457
vn 0.611808 0.707757 -0.353229
vn -0.611812 0.707754 0.353229
vn -0.000001 0.707753 -0.706460
vn -0.000004 -0.884926 -0.465732
vn -0.403334 -0.884926 0.232869
vn 0.403338 -0.884925 0.232864
vn -0.403340 -0.884924 -0.232865
vn 0.403336 -0.884925 -0.232870
vn 0.619831 0.450723 -0.642385
vn -0.634972 0.481312 0.604276
vn -0.592009 -0.510172 0.623899
vn 0.168182 -0.979480 -0.111054
vn 0.653004 -0.417820 -0.631674
vn 0.057355 -0.983600 -0.171004
vn 0.057355 -0.983600 -0.171004
vn -0.653004 0.417820 -0.631674
vn 0.634972 -0.481312 0.604276
vn -0.619831 -0.450723 -0.642384
vn -0.133673 -0.991026 0.000000
vn -0.653004 0.417820 0.631674
vn -0.168183 0.979480 0.111054
vn 0.592009 0.510172 -0.623899
vn 0.634972 -0.481312 -0.604276
vn -0.619831 -0.450723 0.642384
vn -0.057354 0.983600 0.171004
vn -0.057354 0.983600 0.171004
vn 0.619831 0.450723 0.642385
vn -0.634971 0.481313 -0.604276
vn 0.653004 -0.417820 0.631674
vn 0.133673 0.991025 -0.000000
vn 0.666420 0.378454 -0.642384
vn -0.577059 0.549412 0.604276
vn -0.645432 -0.440645 0.623899
vn 0.057403 -0.992155 -0.111054
vn 0.602090 -0.488339 -0.631674
vn -0.053189 -0.983834 -0.171004
vn -0.053189 -0.983834 -0.171004
vn 0.645432 0.440645 0.623898
vn 0.577059 -0.549412 0.604276
vn -0.666420 -0.378453 -0.642384
vn -0.243845 -0.969814 0.000000
vn -0.602090 0.488339 0.631674
vn -0.057403 0.992155 0.111054
vn 0.645432 0.440645 -0.623899
vn 0.577059 -0.549412 -0.604276
vn -0.666420 -0.378453 0.642385
vn 0.053188 0.983834 0.171004
vn 0.053188 0.983834 0.171004
vn 0.666420 0.378453 0.642385
vn -0.577059 0.549412 -0.604276
vn -0.645432 -0.440644 -0.623899
vn 0.243846 0.969814 -0.000001
vn 0.611666 0.461743 -0.642384
vn -0.643483 0.469873 0.604276
vn -0.582785 -0.520684 0.623899
vn 0.185683 -0.976314 -0.111054
vn 0.660376 -0.406068 -0.631674
vn 0.074947 -0.982416 -0.171004
vn 0.074947 -0.982416 -0.171004
vn -0.660376 0.406068 -0.631674
vn 0.643484 -0.469872 0.604276
vn -0.611667 -0.461743 -0.642384
vn -0.115917 -0.993259 0.000000
vn -0.660377 0.406068 0.631674
vn -0.185684 0.976314 0.111054
vn 0.582785 0.520684 -0.623899
vn 0.643484 -0.469872 -0.604276
vn -0.611667 -0.461743 0.642384
vn -0.074946 0.982416 0.171004
vn -0.074946 0.982416 0.171004
vn 0.611666 0.461743 0.642385
vn -0.643483 0.469872 -0.604276
vn 0.660376 -0.406067 0.631674
vn 0.115918 0.993259 -0.000000
f 1/1/1 2/2/2 3/3/3
f 4/4/4 5/5/5 6/6/6
f 5/5/5 7/7/7 8/8/8
f 9/9/9 10/10/10 11/11/11
f 12/12/12 13/13/13 14/14/14
f 15/15/15 16/16/16 17/17/17
f 16/16/16 18/18/18 19/19/19
f 5/5/5 20/20/20 6/6/6
f 21/21/21 22/22/22 23/23/23
f 16/16/16 24/24/24 17/17/17
f 3/3/3 25/25/25 1/1/1
f 8/8/8 26/26/26 5/5/5
f 19/19/19 27/27/27 16/16/16
f 11/11/11 23/23/23 9/9/9
f 28/28/28 29/29/29 30/30/30
f 31/31/31 32/32/32 33/33/33
f 34/34/34 28/28/28 35/35/35
f 36/36/36 37/37/37 38/38/38
f 33/33/33 39/39/39 40/40/40
f 35/35/35 30/30/30 41/41/41
f 42/42/42 43/43/43 44/44/44
f 13/13/13 45/45/45 46/46/46
f 47/47/47 48/48/48 32/32/32
f 49/49/49 50/50/50 28/28/28
f 32/32/32 51/51/51 39/39/39
f 52/52/52 53/53/53 37/37/37
f 54/54/54 55/55/55 56/56/56
f 26/26/26 57/57/57 20/20/20
f 27/27/27 58/58/58 24/24/24
f 59/59/59 60/60/60 61/61/61
f 62/62/62 63/63/63 25/25/25
f 64/64/64 56/56/56 65/65/65
f 66/66/66 67/67/67 18/18/18
f 68/68/68 69/69/69 67/67/67
f 70/70/70 41/41/41 69/69/69
f 71/71/71 72/72/72 7/7/7
f 73/73/73 74/74/74 72/72/72
f 75/75/75 40/40/40 74/74/74
f 76/76/76 77/77/77 2/2/2
f 78/78/78 79/79/79 77/77/77
f 80/80/80 38/38/38 79/79/79
f 15/15/15 68/68/68 66/66/66
f 81/81/81 70/70/70 68/68/68
f 82/82/82 35/35/35 70/70/70
f 4/4/4 73/73/73 71/71/71
f 83/83/83 75/75/75 73/73/73
f 84/84/84 33/33/33 75/75/75
f 85/85/85 86/86/86 10/10/10
f 87/87/87 88/88/88 86/86/86
f 89/89/89 14/14/14 88/88/88
f 90/90/90 91/91/91 92/92/92
f 93/93/93 94/94/94 95/95/95
f 94/94/94 96/96/96 95/95/95
f 97/97/97 98/98/98 99/99/99
f 100/100/100 101/101/101 98/98/98
f 102/102/102 103/103/103 104/104/104
f 103/103/103 105/105/105 106/106/106
f 107/107/107 108/108/108 90/90/90
f 109/109/109 110/110/110 111/111/111
f 111/111/111 112/112/112 113/113/113
f 114/114/114 115/115/115 116/116/116
f 117/117/117 118/118/118 115/115/115
f 119/119/119 120/120/120 118/118/118
f 121/121/121 122/122/122 120/120/120
f 123/123/123 124/124/124 125/125/125
f 125/125/125 126/126/126 109/109/109
f 126/126/126 127/127/127 110/110/110
f 128/128/128 129/129/129 130/130/130
f 129/129/129 131/131/131 130/130/130
f 132/132/132 119/119/119 117/117/117
f 133/133/133 121/121/121 119/119/119
f 134/134/134 135/135/135 136/136/136
f 135/135/135 137/137/137 138/138/138
f 124/124/124 139/139/139 126/126/126
f 140/140/140 141/141/141 142/142/142
f 142/142/142 143/143/143 144/144/144
f 145/145/145 146/146/146 129/129/129
f 147/147/147 148/148/148 149/149/149
f 150/150/150 151/151/151 148/148/148
f 152/152/152 153/153/153 151/151/151
f 154/154/154 155/155/155 137/137/137
f 156/156/156 157/157/157 140/140/140
f 158/158/158 141/141/141 157/157/157
f 159/159/159 145/145/145 160/160/160
f 145/145/145 161/161/161 162/162/162
f 147/147/147 163/163/163 150/150/150
f 150/150/150 164/164/164 152/152/152
f 165/165/165 166/166/166 167/167/167
f 166/166/166 155/155/155 167/167/167
f 168/168/168 157/157/157 169/169/169
f 170/170/170 171/171/171 172/172/172
f 173/173/173 174/174/174 171/171/171
f 175/175/175 176/176/176 177/177/177
f 177/177/177 178/178/178 179/179/179
f 179/179/179 180/180/180 181/181/181
f 181/181/181 182/182/182 183/183/183
f 184/184/184 185/185/185 186/186/186
f 187/187/187 172/172/172 185/185/185
f 188/188/188 173/173/173 170/170/170
f 189/189/189 190/190/190 191/191/191
f 190/190/190 192/192/192 193/193/193
f 176/176/176 194/194/194 178/178/178
f 178/178/178 195/195/195 180/180/180
f 196/196/196 197/197/197 198/198/198
f 197/197/197 199/199/199 198/198/198
f 200/200/200 170/170/170 187/187/187
f 90/90/90 201/201/201 202/202/202
f 93/93/93 203/203/203 189/189/189
f 204/204/204 99/99/99 205/205/205
f 205/205/205 98/98/98 206/206/206
f 206/206/206 101/101/101 207/207/207
f 208/208/208 103/103/103 197/197/197
f 209/209/209 210/210/210 211/211/211
f 107/107/107 202/202/202 210/210/210
f 212/212/212 213/213/213 214/214/214
f 215/215/215 216/216/216 217/217/217
f 216/216/216 218/218/218 217/217/217
f 219/219/219 220/220/220 221/221/221
f 222/222/222 223/223/223 220/220/220
f 224/224/224 225/225/225 226/226/226
f 225/225/225 227/227/227 228/228/228
f 229/229/229 230/230/230 212/212/212
f 231/231/231 232/232/232 233/233/233
f 233/233/233 234/234/234 235/235/235
f 236/236/236 237/237/237 238/238/238
f 239/239/239 240/240/240 237/237/237
f 241/241/241 242/242/242 240/240/240
f 243/243/243 244/244/244 242/242/242
f 245/245/245 246/246/246 247/247/247
f 247/247/247 248/248/248 231/231/231
f 248/248/248 249/249/249 232/232/232
f 250/250/250 251/251/251 252/252/252
f 251/251/251 253/253/253 252/252/252
f 254/254/254 241/241/241 239/239/239
f 255/255/255 243/243/243 241/241/241
f 256/256/256 257/257/257 258/258/258
f 257/257/257 259/259/259 260/260/260
f 246/246/246 261/261/261 248/248/248
f 262/262/262 263/263/263 264/264/264
f 265/265/265 266/266/266 251/251/251
f 267/267/267 268/268/268 269/269/269
f 270/270/270 271/271/271 268/268/268
f 272/272/272 273/273/273 271/271/271
f 274/274/274 275/275/275 256/256/256
f 276/276/276 277/277/277 278/278/278
f 278/278/278 279/279/279 262/262/262
f 280/280/280 263/263/263 279/279/279
f 281/281/281 266/266/266 282/282/282
f 266/266/266 283/283/283 284/284/284
f 270/270/270 285/285/285 272/272/272
f 272/272/272 286/286/286 287/287/287
f 274/274/274 288/288/288 289/289/289
f 288/288/288 290/290/290 289/289/289
f 291/291/291 279/279/279 277/277/277
f 292/292/292 293/293/293 294/294/294
f 295/295/295 296/296/296 293/293/293
f 297/297/297 298/298/298 299/299/299
f 299/299/299 300/300/300 301/301/301
f 301/301/301 302/302/302 303/303/303
f 303/303/303 304/304/304 305/305/305
f 306/306/306 307/307/307 308/308/308
f 309/309/309 294/294/294 307/307/307
f 310/310/310 295/295/295 292/292/292
f 311/311/311 312/312/312 313/313/313
f 312/312/312 314/314/314 315/315/315
f 298/298/298 316/316/316 300/300/300
f 300/300/300 317/317/317 302/302/302
f 318/318/318 319/319/319 320/320/320
f 319/319/319 321/321/321 320/320/320
f 322/322/322 292/292/292 309/309/309
f 212/212/212 323/323/323 324/324/324
f 214/214/214 325/325/325 323/323/323
f 326/326/326 218/218/218 314/314/314
f 327/327/327 220/220/220 328/328/328
f 328/328/328 223/223/223 329/329/329
f 329/329/329 330/330/330 331/331/331
f 225/225/225 332/332/332 319/319/319
f 229/229/229 324/324/324 333/333/333
f 334/334/334 335/335/335 336/336/336
f 337/337/337 338/338/338 339/339/339
f 338/338/338 340/340/340 339/339/339
f 341/341/341 342/342/342 343/343/343
f 344/344/344 345/345/345 342/342/342
f 346/346/346 347/347/347 348/348/348
f 347/347/347 349/349/349 350/350/350
f 351/351/351 352/352/352 334/334/334
f 353/353/353 354/354/354 355/355/355
f 355/355/355 356/356/356 357/357/357
f 358/358/358 359/359/359 360/360/360
f 361/361/361 362/362/362 359/359/359
f 363/363/363 364/364/364 362/362/362
f 365/365/365 366/366/366 364/364/364
f 367/367/367 368/368/368 369/369/369
f 369/369/369 370/370/370 353/353/353
f 370/370/370 371/371/371 354/354/354
f 372/372/372 373/373/373 374/374/374
f 373/373/373 375/375/375 374/374/374
f 376/376/376 363/363/363 361/361/361
f 377/377/377 365/365/365 363/363/363
f 378/378/378 379/379/379 380/380/380
f 379/379/379 381/381/381 382/382/382
f 368/368/368 383/383/383 370/370/370
f 384/384/384 385/385/385 386/386/386
f 386/386/386 387/387/387 388/388/388
f 389/389/389 390/390/390 373/373/373
f 391/391/391 392/392/392 393/393/393
f 394/394/394 395/395/395 392/392/392
f 396/396/396 397/397/397 395/395/395
f 398/398/398 399/399/399 381/381/381
f 400/400/400 401/401/401 384/384/384
f 402/402/402 385/385/385 401/401/401
f 403/403/403 389/389/389 404/404/404
f 389/389/389 405/405/405 406/406/406
f 391/391/391 407/407/407 394/394/394
f 394/394/394 408/408/408 396/396/396
f 409/409/409 410/410/410 411/411/411
f 410/410/410 399/399/399 411/411/411
f 412/412/412 401/401/401 413/413/413
f 414/414/414 415/415/415 416/416/416
f 417/417/417 418/418/418 415/415/415
f 419/419/419 420/420/420 421/421/421
f 421/421/421 422/422/422 423/423/423
f 423/423/423 424/424/424 425/425/425
f 425/425/425 426/426/426 427/427/427
f 428/428/428 429/429/429 430/430/430
f 431/431/431 416/416/416 429/429/429
f 432/432/432 417/417/417 414/414/414
f 433/433/433 434/434/434 435/435/435
f 434/434/434 436/436/436 437/437/437
f 420/420/420 438/438/438 422/422/422
f 422/422/422 439/439/439 424/424/424
f 440/440/440 441/441/441 442/442/442
f 441/441/441 443/443/443 442/442/442
f 444/444/444 414/414/414 431/431/431
f 334/334/334 445/445/445 446/446/446
f 337/337/337 447/447/447 433/433/433
f 448/448/448 343/343/343 449/449/449
f 449/449/449 342/342/342 450/450/450
f 450/450/450 345/345/345 451/451/451
f 452/452/452 347/347/347 441/441/441
f 453/453/453 454/454/454 455/455/455
f 351/351/351 446/446/446 454/454/454
f 1/1/1 76/76/76 2/2/2
f 4/4/4 71/71/71 5/5/5
f 5/5/5 71/71/71 7/7/7
f 9/9/9 85/85/85 10/10/10
f 12/12/12 456/456/456 13/13/13
f 15/15/15 66/66/66 16/16/16
f 16/16/16 66/66/66 18/18/18
f 5/5/5 26/26/26 20/20/20
f 21/21/21 457/457/457 22/22/22
f 16/16/16 27/27/27 24/24/24
f 3/3/3 62/62/62 25/25/25
f 8/8/8 458/458/458 26/26/26
f 19/19/19 459/459/459 27/27/27
f 11/11/11 21/21/21 23/23/23
f 28/28/28 50/50/50 29/29/29
f 31/31/31 47/47/47 32/32/32
f 34/34/34 49/49/49 28/28/28
f 36/36/36 52/52/52 37/37/37
f 33/33/33 32/32/32 39/39/39
f 35/35/35 28/28/28 30/30/30
f 44/44/44 460/460/460 42/42/42
f 42/42/42 461/461/461 43/43/43
f 43/43/43 462/462/462 44/44/44
f 13/13/13 456/456/456 45/45/45
f 47/47/47 463/463/463 48/48/48
f 49/49/49 464/464/464 50/50/50
f 32/32/32 48/48/48 51/51/51
f 52/52/52 465/465/465 53/53/53
f 56/56/56 466/466/466 54/54/54
f 54/54/54 60/60/60 55/55/55
f 55/55/55 467/467/467 56/56/56
f 26/26/26 468/468/468 57/57/57
f 27/27/27 469/469/469 58/58/58
f 59/59/59 55/55/55 60/60/60
f 62/62/62 470/470/470 63/63/63
f 64/64/64 466/466/466 56/56/56
f 66/66/66 68/68/68 67/67/67
f 68/68/68 70/70/70 69/69/69
f 70/70/70 35/35/35 41/41/41
f 71/71/71 73/73/73 72/72/72
f 73/73/73 75/75/75 74/74/74
f 75/75/75 33/33/33 40/40/40
f 76/76/76 78/78/78 77/77/77
f 78/78/78 80/80/80 79/79/79
f 80/80/80 36/36/36 38/38/38
f 15/15/15 81/81/81 68/68/68
f 81/81/81 82/82/82 70/70/70
f 82/82/82 34/34/34 35/35/35
f 4/4/4 83/83/83 73/73/73
f 83/83/83 84/84/84 75/75/75
f 84/84/84 31/31/31 33/33/33
f 85/85/85 87/87/87 86/86/86
f 87/87/87 89/89/89 88/88/88
f 89/89/89 12/12/12 14/14/14
f 90/90/90 108/108/108 91/91/91
f 93/93/93 471/471/471 94/94/94
f 94/94/94 472/472/472 96/96/96
f 97/97/97 100/100/100 98/98/98
f 100/100/100 473/473/473 101/101/101
f 102/102/102 474/474/474 103/103/103
f 103/103/103 474/474/474 105/105/105
f 107/107/107 475/475/475 108/108/108
f 109/109/109 126/126/126 110/110/110
f 111/111/111 110/110/110 112/112/112
f 114/114/114 117/117/117 115/115/115
f 117/117/117 119/119/119 118/118/118
f 119/119/119 121/121/121 120/120/120
f 121/121/121 476/476/476 122/122/122
f 123/123/123 477/477/477 124/124/124
f 125/125/125 124/124/124 126/126/126
f 126/126/126 139/139/139 127/127/127
f 128/128/128 478/478/478 129/129/129
f 129/129/129 146/146/146 131/131/131
f 132/132/132 133/133/133 119/119/119
f 133/133/133 479/479/479 121/121/121
f 134/134/134 154/154/154 135/135/135
f 135/135/135 154/154/154 137/137/137
f 124/124/124 480/480/480 139/139/139
f 140/140/140 157/157/157 141/141/141
f 142/142/142 141/141/141 143/143/143
f 145/145/145 162/162/162 146/146/146
f 147/147/147 150/150/150 148/148/148
f 150/150/150 152/152/152 151/151/151
f 152/152/152 481/481/481 153/153/153
f 154/154/154 167/167/167 155/155/155
f 156/156/156 169/169/169 157/157/157
f 158/158/158 482/482/482 141/141/141
f 159/159/159 483/483/483 145/145/145
f 145/145/145 483/483/483 161/161/161
f 147/147/147 484/484/484 163/163/163
f 150/150/150 163/163/163 164/164/164
f 165/165/165 485/485/485 166/166/166
f 166/166/166 486/486/486 155/155/155
f 168/168/168 158/158/158 157/157/157
f 170/170/170 173/173/173 171/171/171
f 173/173/173 487/487/487 174/174/174
f 175/175/175 488/488/488 176/176/176
f 177/177/177 176/176/176 178/178/178
f 179/179/179 178/178/178 180/180/180
f 181/181/181 180/180/180 182/182/182
f 184/184/184 187/187/187 185/185/185
f 187/187/187 170/170/170 172/172/172
f 188/188/188 489/489/489 173/173/173
f 189/189/189 203/203/203 190/190/190
f 190/190/190 203/203/203 192/192/192
f 176/176/176 490/490/490 194/194/194
f 178/178/178 194/194/194 195/195/195
f 196/196/196 208/208/208 197/197/197
f 197/197/197 491/491/491 199/199/199
f 200/200/200 188/188/188 170/170/170
f 90/90/90 92/92/92 201/201/201
f 93/93/93 95/95/95 203/203/203
f 204/204/204 492/492/492 99/99/99
f 205/205/205 99/99/99 98/98/98
f 206/206/206 98/98/98 101/101/101
f 208/208/208 104/104/104 103/103/103
f 209/209/209 107/107/107 210/210/210
f 107/107/107 90/90/90 202/202/202
f 212/212/212 230/230/230 213/213/213
f 215/215/215 493/493/493 216/216/216
f 216/216/216 494/494/494 218/218/218
f 219/219/219 222/222/222 220/220/220
f 222/222/222 495/495/495 223/223/223
f 224/224/224 496/496/496 225/225/225
f 225/225/225 496/496/496 227/227/227
f 229/229/229 497/497/497 230/230/230
f 231/231/231 248/248/248 232/232/232
f 233/233/233 232/232/232 234/234/234
f 236/236/236 239/239/239 237/237/237
f 239/239/239 241/241/241 240/240/240
f 241/241/241 243/243/243 242/242/242
f 243/243/243 498/498/498 244/244/244
f 245/245/245 499/499/499 246/246/246
f 247/247/247 246/246/246 248/248/248
f 248/248/248 261/261/261 249/249/249
f 250/250/250 265/265/265 251/251/251
f 251/251/251 500/500/500 253/253/253
f 254/254/254 255/255/255 241/241/241
f 255/255/255 501/501/501 243/243/243
f 256/256/256 275/275/275 257/257/257
f 257/257/257 275/275/275 259/259/259
f 246/246/246 502/502/502 261/261/261
f 262/262/262 279/279/279 263/263/263
f 265/265/265 282/282/282 266/266/266
f 267/267/267 270/270/270 268/268/268
f 270/270/270 272/272/272 271/271/271
f 272/272/272 287/287/287 273/273/273
f 274/274/274 289/289/289 275/275/275
f 276/276/276 503/503/503 277/277/277
f 278/278/278 277/277/277 279/279/279
f 280/280/280 504/504/504 263/263/263
f 281/281/281 505/505/505 266/266/266
f 266/266/266 505/505/505 283/283/283
f 270/270/270 506/506/506 285/285/285
f 272/272/272 285/285/285 286/286/286
f 274/274/274 507/507/507 288/288/288
f 288/288/288 508/508/508 290/290/290
f 291/291/291 280/280/280 279/279/279
f 292/292/292 295/295/295 293/293/293
f 295/295/295 509/509/509 296/296/296
f 297/297/297 510/510/510 298/298/298
f 299/299/299 298/298/298 300/300/300
f 301/301/301 300/300/300 302/302/302
f 303/303/303 302/302/302 304/304/304
f 306/306/306 309/309/309 307/307/307
f 309/309/309 292/292/292 294/294/294
f 310/310/310 511/511/511 295/295/295
f 311/311/311 326/326/326 312/312/312
f 312/312/312 326/326/326 314/314/314
f 298/298/298 512/512/512 316/316/316
f 300/300/300 316/316/316 317/317/317
f 318/318/318 513/513/513 319/319/319
f 319/319/319 332/332/332 321/321/321
f 322/322/322 310/310/310 292/292/292
f 212/212/212 214/214/214 323/323/323
f 214/214/214 514/514/514 325/325/325
f 326/326/326 217/217/217 218/218/218
f 327/327/327 221/221/221 220/220/220
f 328/328/328 220/220/220 223/223/223
f 329/329/329 223/223/223 330/330/330
f 225/225/225 228/228/228 332/332/332
f 229/229/229 212/212/212 324/324/324
f 334/334/334 352/352/352 335/335/335
f 337/337/337 515/515/515 338/338/338
f 338/338/338 516/516/516 340/340/340
f 341/341/341 344/344/344 342/342/342
f 344/344/344 517/517/517 345/345/345
f 346/346/346 518/518/518 347/347/347
f 347/347/347 518/518/518 349/349/349
f 351/351/351 519/519/519 352/352/352
f 353/353/353 370/370/370 354/354/354
f 355/355/355 354/354/354 356/356/356
f 358/358/358 361/361/361 359/359/359
f 361/361/361 363/363/363 362/362/362
f 363/363/363 365/365/365 364/364/364
f 365/365/365 520/520/520 366/366/366
f 367/367/367 521/521/521 368/368/368
f 369/369/369 368/368/368 370/370/370
f 370/370/370 383/383/383 371/371/371
f 372/372/372 522/522/522 373/373/373
f 373/373/373 390/390/390 375/375/375
f 376/376/376 377/377/377 363/363/363
f 377/377/377 523/523/523 365/365/365
f 378/378/378 398/398/398 379/379/379
f 379/379/379 398/398/398 381/381/381
f 368/368/368 524/524/524 383/383/383
f 384/384/384 401/401/401 385/385/385
f 386/386/386 385/385/385 387/387/387
f 389/389/389 406/406/406 390/390/390
f 391/391/391 394/394/394 392/392/392
f 394/394/394 396/396/396 395/395/395
f 396/396/396 525/525/525 397/397/397
f 398/398/398 411/411/411 399/399/399
f 400/400/400 413/413/413 401/401/401
f 402/402/402 526/526/526 385/385/385
f 403/403/403 527/527/527 389/389/389
f 389/389/389 527/527/527 405/405/405
f 391/391/391 528/528/528 407/407/407
f 394/394/394 407/407/407 408/408/408
f 409/409/409 529/529/529 410/410/410
f 410/410/410 530/530/530 399/399/399
f 412/412/412 402/402/402 401/401/401
f 414/414/414 417/417/417 415/415/415
f 417/417/417 531/531/531 418/418/418
f 419/419/419 532/532/532 420/420/420
f 421/421/421 420/420/420 422/422/422
f 423/423/423 422/422/422 424/424/424
f 425/425/425 424/424/424 426/426/426
f 428/428/428 431/431/431 429/429/429
f 431/431/431 414/414/414 416/416/416
f 432/432/432 533/533/533 417/417/417
f 433/433/433 447/447/447 434/434/434
f 434/434/434 447/447/447 436/436/436
f 420/420/420 534/534/534 438/438/438
f 422/422/422 438/438/438 439/439/439
f 440/440/440 452/452/452 441/441/441
f 441/441/441 535/535/535 443/443/443
f 444/444/444 432/432/432 414/414/414
f 334/334/334 336/336/336 445/445/445
f 337/337/337 339/339/339 447/447/447
f 448/448/448 536/536/536 343/343/343
f 449/449/449 343/343/343 342/342/342
f 450/450/450 342/342/342 345/345/345
f 452/452/452 348/348/348 347/347/347
f 453/453/453 351/351/351 454/454/454
f 351/351/351 334/334/334 446/446/446
