# f_billhook_01 -- imported by tools/import_asset_pack.py from billhook_01.fbx
o __pending__
v -0.017258 0.593447 -0.011139
v 0.002305 0.621113 -0.003971
v 0.002305 0.593447 -0.011139
v 0.002305 0.593447 0.011139
v -0.017258 0.491770 0.007311
v 0.002305 0.491770 0.019729
v -0.017258 0.593447 0.011139
v -0.017258 0.491770 -0.007311
v -0.017258 0.491770 0.007311
v -0.017258 0.491770 -0.007311
v -0.013198 0.491770 0.005794
v -0.017258 0.491770 0.007311
v 0.021867 0.593447 -0.011139
v 0.021867 0.491770 0.007311
v 0.021867 0.491770 -0.007311
v 0.021867 0.491770 -0.007311
v 0.002305 0.491770 -0.019730
v -0.028396 0.709827 -0.003971
v -0.003264 0.728623 -0.003971
v 0.021867 0.593447 0.011139
v 0.002305 0.621113 0.003971
v -0.017258 0.621113 0.003971
v -0.049837 0.605823 0.000418
v -0.017258 0.593447 0.011139
v 0.021867 0.621113 -0.003971
v 0.059458 0.605874 -0.000404
v 0.021867 0.593447 -0.011139
v 0.021867 0.782302 0.003971
v 0.103732 0.774409 0.000298
v 0.103732 0.777030 0.000298
v 0.021867 0.621113 -0.003971
v 0.021867 0.747418 0.003971
v 0.021867 0.621113 0.003971
v -0.017258 0.621113 -0.003971
v -0.028396 0.709827 0.003971
v -0.028396 0.709827 -0.003971
v 0.021867 0.621113 0.003971
v -0.003264 0.728623 0.003971
v -0.020642 0.782302 0.003971
v -0.036914 0.880427 -0.003971
v -0.020642 0.782302 -0.003971
v 0.021867 0.747418 0.003971
v 0.000613 0.782302 0.003971
v -0.020642 0.782302 -0.003971
v 0.000613 0.782302 -0.003971
v 0.004393 0.907563 -0.003971
v -0.000107 1.156405 -0.000490
v 0.002305 1.156405 -0.000490
v 0.004393 0.907563 0.003971
v -0.013081 0.906519 -0.003971
v 0.021867 0.782302 -0.003971
v 0.021867 0.908607 0.003971
v 0.021867 0.782302 0.003971
v -0.000107 1.156405 -0.000490
v 0.002305 1.156405 0.000489
v 0.002305 1.156405 -0.000490
v 0.021867 0.908607 -0.003971
v 0.004716 1.156405 0.000489
v -0.013081 0.906519 0.003971
v -0.000107 1.156405 -0.000490
v -0.013081 0.906519 -0.003971
v 0.004716 1.156405 0.000489
v 0.002305 1.156405 0.000489
v 0.103732 0.774409 -0.000299
v 0.103732 0.777030 0.000298
v 0.103732 0.774409 0.000298
v 0.021867 0.782302 0.003971
v 0.103732 0.777030 -0.000299
v 0.021867 0.782302 -0.003971
v 0.021867 0.747418 -0.003971
v 0.103732 0.774409 0.000298
v 0.021867 0.747418 0.003971
v 0.021867 0.782302 -0.003971
v 0.103732 0.774409 -0.000299
v 0.021867 0.747418 -0.003971
v 0.059458 0.605874 -0.000404
v 0.059458 0.608685 0.000403
v 0.059458 0.605874 0.000403
v 0.021867 0.621113 0.003971
v 0.059458 0.608685 -0.000404
v 0.021867 0.621113 -0.003971
v 0.021867 0.593447 -0.011139
v 0.059458 0.605874 0.000403
v 0.021867 0.593447 0.011139
v 0.059458 0.605874 0.000403
v 0.059458 0.608685 0.000403
v -0.049837 0.605823 0.000418
v -0.049837 0.608737 -0.000418
v -0.049837 0.605823 -0.000418
v -0.017258 0.593447 0.011139
v -0.049837 0.605823 -0.000418
v -0.017258 0.593447 -0.011139
v -0.017258 0.621113 -0.003971
v -0.049837 0.605823 -0.000418
v -0.049837 0.608737 -0.000418
v -0.017258 0.621113 -0.003971
v -0.049837 0.608737 0.000418
v -0.017258 0.621113 0.003971
v -0.041787 0.928069 0.003971
v -0.070896 0.903688 0.003971
v -0.036914 0.880427 0.003971
v -0.036914 0.880427 -0.003971
v -0.041787 0.928069 -0.003971
v -0.013081 0.906519 0.003971
v -0.020642 0.782302 0.003971
v -0.013081 0.906519 -0.003971
v -0.041787 0.928069 0.003971
v -0.013081 0.906519 0.003971
v -0.081338 0.936713 -0.003971
v -0.103843 0.897369 -0.003971
v -0.114981 0.914382 -0.003971
v -0.036914 0.880427 0.003971
v -0.070896 0.903688 -0.003971
v -0.036914 0.880427 -0.003971
v -0.070896 0.903688 -0.003971
v -0.041787 0.928069 -0.003971
v -0.081338 0.936713 0.003971
v -0.114981 0.914382 0.003971
v -0.121906 0.883024 0.003971
v -0.103843 0.897369 0.003971
v -0.081338 0.936713 -0.003971
v -0.114981 0.914382 0.003971
v -0.081338 0.936713 0.003971
v -0.070896 0.903688 0.003971
v -0.103843 0.897369 -0.003971
v -0.121906 0.883024 -0.003971
v -0.139309 0.868016 0.003971
v -0.139309 0.868016 -0.003971
v -0.103843 0.897369 0.003971
v -0.121906 0.883024 -0.003971
v -0.139309 0.868016 -0.003971
v -0.114981 0.914382 -0.003971
v -0.139309 0.868016 0.003971
v -0.114981 0.914382 0.003971
v -0.000107 1.156405 0.000489
v 0.004716 1.156405 0.000489
v 0.004716 1.156405 -0.000490
v 0.021867 0.908607 -0.003971
v 0.004716 1.156405 -0.000490
v -0.028396 0.709827 0.003971
v -0.017258 0.491770 -0.007311
v 0.002305 0.491770 0.019729
v 0.002305 0.491770 0.015634
v 0.021867 0.491770 0.007311
v -0.013198 0.491770 -0.005794
v -0.013198 -1.043595 0.005794
v -0.013198 0.491770 0.005794
v 0.002305 0.491770 0.015634
v 0.017807 -1.043595 0.005794
v 0.017807 0.491770 0.005794
v 0.021867 0.491770 0.007311
v 0.017807 0.491770 -0.005794
v 0.021867 0.491770 -0.007311
v 0.002305 0.491770 -0.019730
v 0.002305 0.491770 -0.015634
v -0.013198 0.491770 -0.005794
v 0.017807 0.491770 0.005794
v 0.002305 -1.043595 -0.015634
v 0.017807 -1.043595 0.005794
v 0.002305 -1.043595 0.015635
v -0.013198 -1.043595 0.005794
v -0.013198 -1.043595 -0.005794
v -0.013198 0.491770 0.005794
v 0.002305 -1.043595 0.015635
v 0.017807 0.491770 0.005794
v 0.017807 -1.043595 -0.005794
v 0.017807 0.491770 -0.005794
v 0.002305 0.491770 -0.015634
v -0.013198 -1.043595 -0.005794
v -0.013198 0.491770 -0.005794
v 0.017807 0.491770 -0.005794
v 0.002305 -1.043595 -0.015634
v -0.017258 0.593447 -0.011139
v 0.021867 0.593447 0.011139
v -0.049837 0.608737 0.000418
v 0.059458 0.608685 -0.000404
v 0.021867 0.747418 -0.003971
v -0.017258 0.621113 0.003971
v -0.036914 0.880427 0.003971
v 0.021867 0.908607 0.003971
v -0.000107 1.156405 0.000489
v 0.004716 1.156405 -0.000490
v -0.000107 1.156405 0.000489
v 0.103732 0.777030 -0.000299
v 0.103732 0.777030 0.000298
v 0.103732 0.774409 -0.000299
v 0.103732 0.777030 -0.000299
v 0.059458 0.608685 -0.000404
v 0.059458 0.608685 0.000403
v 0.059458 0.605874 -0.000404
v -0.049837 0.608737 0.000418
v -0.049837 0.605823 0.000418
v -0.049837 0.608737 -0.000418
v -0.139309 0.868016 0.003971
v -0.114981 0.914382 -0.003971
v -0.121906 0.883024 0.003971
v -0.139309 0.868016 -0.003971
v -0.013198 -1.043595 -0.005794
v 0.017807 -1.043595 -0.005794
v -0.013198 -1.043595 0.005794
v 0.017807 -1.043595 0.005794
v 0.017807 -1.043595 -0.005794
vt 0.238462 0.647858
vt 0.255472 0.662198
vt 0.250748 0.644630
vt 0.160218 0.644205
vt 0.189294 0.583563
vt 0.176506 0.580096
vt 0.362958 0.860509
vt 0.374944 0.794467
vt 0.365445 0.794467
vt 0.355196 0.641598
vt 0.363763 0.639177
vt 0.363184 0.636456
vt 0.362958 0.929161
vt 0.374944 0.863111
vt 0.365445 0.863111
vt 0.246467 0.577686
vt 0.233854 0.580566
vt 0.250734 0.722950
vt 0.269599 0.730601
vt 0.147947 0.641026
vt 0.155987 0.661762
vt 0.168259 0.664941
vt 0.191346 0.660706
vt 0.172490 0.647384
vt 0.267759 0.658970
vt 0.288964 0.643301
vt 0.263035 0.641402
vt 0.117328 0.759900
vt 0.067419 0.741722
vt 0.066990 0.743369
vt 0.347434 0.670917
vt 0.352594 0.752966
vt 0.352594 0.670917
vt 0.360356 0.830030
vt 0.355196 0.887787
vt 0.360356 0.887787
vt 0.143715 0.658583
vt 0.141881 0.730243
vt 0.355196 0.934767
vt 0.360356 0.998699
vt 0.360356 0.934767
vt 0.123039 0.737974
vt 0.130661 0.763354
vt 0.267485 0.767164
vt 0.280834 0.763656
vt 0.303743 0.841659
vt 0.341803 0.998699
vt 0.343318 0.998301
vt 0.107784 0.841474
vt 0.292597 0.843887
vt 0.347434 0.755568
vt 0.352594 0.837617
vt 0.352594 0.755568
vt 0.348070 0.632806
vt 0.347434 0.634349
vt 0.348070 0.634349
vt 0.347434 0.837617
vt 0.350332 0.998699
vt 0.355196 0.665276
vt 0.358094 0.827427
vt 0.360356 0.665276
vt 0.066990 0.997915
vt 0.068503 0.998307
vt 0.362958 0.665310
vt 0.363346 0.667012
vt 0.363346 0.665310
vt 0.370720 0.946928
vt 0.373494 0.998699
vt 0.375880 0.946928
vt 0.362958 0.669615
vt 0.365732 0.724969
vt 0.368118 0.669615
vt 0.294184 0.760149
vt 0.344402 0.741788
vt 0.288465 0.738252
vt 0.352070 0.629571
vt 0.352594 0.631397
vt 0.352594 0.629571
vt 0.370720 0.741203
vt 0.373562 0.763841
vt 0.375880 0.741203
vt 0.370720 0.766443
vt 0.378219 0.791865
vt 0.385193 0.766443
vt 0.122777 0.642979
vt 0.122317 0.644746
vt 0.352051 0.633999
vt 0.352594 0.635891
vt 0.352594 0.633999
vt 0.385193 0.713756
vt 0.377685 0.694219
vt 0.370720 0.713756
vt 0.243186 0.665426
vt 0.220311 0.661304
vt 0.220788 0.663133
vt 0.375880 0.738600
vt 0.373028 0.716358
vt 0.370720 0.738600
vt 0.133396 0.861868
vt 0.155647 0.851273
vt 0.138139 0.831129
vt 0.273351 0.831442
vt 0.278101 0.862152
vt 0.118917 0.843657
vt 0.143994 0.766808
vt 0.368118 0.791865
vt 0.362958 0.775943
vt 0.362958 0.791865
vt 0.254678 0.874104
vt 0.234093 0.853121
vt 0.229886 0.865638
vt 0.368118 0.998699
vt 0.362958 0.979437
vt 0.362958 0.998699
vt 0.255822 0.851651
vt 0.368118 0.775943
vt 0.362958 0.751622
vt 0.181552 0.865158
vt 0.191029 0.846573
vt 0.177350 0.852654
vt 0.368118 0.751622
vt 0.362958 0.727572
vt 0.156792 0.873727
vt 0.368118 0.979437
vt 0.362958 0.957649
vt 0.362958 0.944530
vt 0.368118 0.931763
vt 0.362958 0.931763
vt 0.368118 0.957649
vt 0.220396 0.847098
vt 0.207005 0.840549
vt 0.352594 0.668315
vt 0.347434 0.638493
vt 0.347434 0.668315
vt 0.070016 0.998699
vt 0.347434 0.635891
vt 0.348070 0.635891
vt 0.314890 0.839431
vt 0.344832 0.997903
vt 0.160723 0.722513
vt 0.221894 0.584143
vt 0.376751 0.642628
vt 0.374514 0.644068
vt 0.164750 0.577205
vt 0.041652 0.998699
vt 0.034124 0.001435
vt 0.034124 0.998699
vt 0.010893 0.998568
vt 0.001301 0.001432
vt 0.001301 0.998699
vt 0.376751 0.657532
vt 0.368184 0.659953
vt 0.368763 0.662674
vt 0.355196 0.656503
vt 0.357433 0.655063
vt 0.357433 0.643252
vt 0.374514 0.655879
vt 0.355196 0.628964
vt 0.372277 0.629780
vt 0.372277 0.617969
vt 0.361526 0.613078
vt 0.355196 0.617153
vt 0.021392 0.998673
vt 0.010893 0.001301
vt 0.031522 0.998699
vt 0.023994 0.001310
vt 0.023994 0.998699
vt 0.054141 0.998351
vt 0.044254 0.002616
vt 0.044254 0.998699
vt 0.064388 0.998669
vt 0.054141 0.002268
vt 0.377431 0.860509
vt 0.377431 0.929161
vt 0.190869 0.662537
vt 0.289425 0.645066
vt 0.347434 0.752966
vt 0.355196 0.830030
vt 0.355196 0.998699
vt 0.096652 0.839291
vt 0.347434 0.632806
vt 0.349696 0.998699
vt 0.357458 0.827427
vt 0.362958 0.667012
vt 0.373106 0.998699
vt 0.365344 0.724969
vt 0.344832 0.743434
vt 0.352070 0.631397
vt 0.373038 0.763841
vt 0.377695 0.791865
vt 0.352051 0.635891
vt 0.378228 0.694219
vt 0.373572 0.716358
vt 0.204403 0.839967
vt 0.368118 0.727572
vt 0.368118 0.944530
vt 0.352594 0.638493
vt 0.041652 0.001435
vt 0.365947 0.633854
vt 0.021392 0.001406
vt 0.031522 0.001310
vt 0.064388 0.002586
vn -0.468209 -0.119584 -0.875489
vn 0.000000 0.126420 -0.991977
vn -0.000000 0.115094 -0.993355
vn 0.000000 0.115095 0.993355
vn -0.691610 -0.601265 0.400196
vn 0.000000 -0.572288 0.820052
vn -0.468201 -0.119583 0.875493
vn -0.691603 -0.601273 -0.400196
vn -0.691610 -0.601265 0.400196
vn -0.691603 -0.601273 -0.400196
vn -0.484721 -0.833100 0.266439
vn -0.691610 -0.601265 0.400196
vn 0.452697 -0.126881 -0.882591
vn 0.691603 -0.601272 0.400196
vn 0.691610 -0.601265 -0.400196
vn 0.691610 -0.601265 -0.400196
vn -0.000000 -0.572289 -0.820052
vn -0.731304 -0.006696 -0.682019
vn 0.000000 -0.000000 -1.000000
vn 0.452705 -0.126880 0.882587
vn -0.000000 0.126420 0.991977
vn -0.440489 0.349343 0.827000
vn -0.719560 -0.440010 0.537238
vn -0.468201 -0.119583 0.875493
vn 0.427941 0.395382 -0.812736
vn 0.701535 -0.459024 -0.545111
vn 0.452697 -0.126881 -0.882591
vn 0.334629 0.293494 0.895480
vn 0.664351 -0.471131 0.580235
vn 0.605886 0.558855 0.566201
vn 0.427941 0.395382 -0.812736
vn 0.414220 -0.285538 0.864228
vn 0.427939 0.395382 0.812737
vn -0.440494 0.349340 -0.826998
vn -0.731307 -0.006696 0.682015
vn -0.731304 -0.006696 -0.682019
vn 0.427939 0.395382 0.812737
vn -0.000000 0.000000 1.000000
vn -0.673649 -0.019459 0.738796
vn -0.498103 -0.317461 -0.806915
vn -0.673647 -0.019458 -0.738797
vn 0.414220 -0.285538 0.864228
vn -0.000000 0.000000 1.000000
vn -0.673647 -0.019458 -0.738797
vn 0.000000 -0.000000 -1.000000
vn -0.000415 0.006991 -0.999976
vn -0.561487 0.594460 -0.575629
vn 0.000000 0.712027 -0.702152
vn -0.000415 0.006992 0.999976
vn -0.111257 0.246348 -0.962775
vn 0.334633 0.293492 -0.895479
vn 0.712504 0.029513 0.701047
vn 0.334629 0.293494 0.895480
vn -0.561487 0.594460 -0.575629
vn 0.000000 0.712027 0.702152
vn 0.000000 0.712027 -0.702152
vn 0.712499 0.029512 -0.701052
vn 0.555888 0.598824 0.576540
vn -0.111254 0.246355 0.962773
vn -0.561487 0.594460 -0.575629
vn -0.111257 0.246348 -0.962775
vn 0.555888 0.598824 0.576540
vn 0.000000 0.712027 0.702152
vn 0.664345 -0.471125 -0.580247
vn 0.605886 0.558855 0.566201
vn 0.664351 -0.471131 0.580235
vn 0.334629 0.293494 0.895480
vn 0.605891 0.558862 -0.566189
vn 0.334633 0.293492 -0.895479
vn 0.414216 -0.285538 -0.864230
vn 0.664351 -0.471131 0.580235
vn 0.414220 -0.285538 0.864228
vn 0.334633 0.293492 -0.895479
vn 0.664345 -0.471125 -0.580247
vn 0.414216 -0.285538 -0.864230
vn 0.701535 -0.459024 -0.545111
vn 0.679136 0.471618 0.562450
vn 0.701551 -0.459005 0.545106
vn 0.427939 0.395382 0.812737
vn 0.679147 0.471619 -0.562437
vn 0.427941 0.395382 -0.812736
vn 0.452697 -0.126881 -0.882591
vn 0.701551 -0.459005 0.545106
vn 0.452705 -0.126880 0.882587
vn 0.701551 -0.459005 0.545106
vn 0.679136 0.471618 0.562450
vn -0.719560 -0.440010 0.537238
vn -0.692041 0.455705 -0.559833
vn -0.719573 -0.439993 -0.537234
vn -0.468201 -0.119583 0.875493
vn -0.719573 -0.439993 -0.537234
vn -0.468209 -0.119584 -0.875489
vn -0.440494 0.349340 -0.826998
vn -0.719573 -0.439993 -0.537234
vn -0.692041 0.455705 -0.559833
vn -0.440494 0.349340 -0.826998
vn -0.692051 0.455705 0.559821
vn -0.440489 0.349343 0.827000
vn 0.312067 0.681233 0.662220
vn -0.121062 -0.581115 0.804767
vn -0.498097 -0.317457 0.806921
vn -0.498103 -0.317461 -0.806915
vn 0.312071 0.681232 -0.662219
vn -0.111254 0.246355 0.962773
vn -0.673649 -0.019459 0.738796
vn -0.111257 0.246348 -0.962775
vn 0.312067 0.681233 0.662220
vn -0.111254 0.246355 0.962773
vn -0.143317 0.764102 -0.628974
vn 0.268708 -0.585383 -0.764933
vn -0.560867 0.506001 -0.655279
vn -0.498097 -0.317457 0.806921
vn -0.121056 -0.581120 -0.804764
vn -0.498103 -0.317461 -0.806915
vn -0.121056 -0.581120 -0.804764
vn 0.312071 0.681232 -0.662219
vn -0.143324 0.764101 0.628973
vn -0.560867 0.505997 0.655282
vn 0.447916 -0.541166 0.711695
vn 0.268700 -0.585383 0.764936
vn -0.143317 0.764102 -0.628974
vn -0.560867 0.505997 0.655282
vn -0.143324 0.764101 0.628973
vn -0.121062 -0.581115 0.804767
vn 0.268708 -0.585383 -0.764933
vn 0.447906 -0.541153 -0.711712
vn -0.523819 -0.659405 0.539258
vn -0.523741 -0.659476 -0.539246
vn 0.268700 -0.585383 0.764936
vn 0.447906 -0.541153 -0.711712
vn -0.523741 -0.659476 -0.539246
vn -0.560867 0.506001 -0.655279
vn -0.523819 -0.659405 0.539258
vn -0.560867 0.505997 0.655282
vn -0.561472 0.594482 0.575623
vn 0.555888 0.598824 0.576540
vn 0.555873 0.598844 -0.576534
vn 0.712499 0.029512 -0.701052
vn 0.555873 0.598844 -0.576534
vn -0.731307 -0.006696 0.682015
vn -0.691603 -0.601273 -0.400196
vn 0.000000 -0.572288 0.820052
vn 0.000001 -0.849618 0.527398
vn 0.691603 -0.601272 0.400196
vn -0.484704 -0.833112 -0.266432
vn -0.692327 -0.613077 0.380553
vn -0.484721 -0.833100 0.266439
vn 0.000001 -0.849618 0.527398
vn 0.692326 -0.613077 0.380555
vn 0.484703 -0.833113 0.266432
vn 0.691603 -0.601272 0.400196
vn 0.484722 -0.833100 -0.266438
vn 0.691610 -0.601265 -0.400196
vn -0.000000 -0.572289 -0.820052
vn -0.000001 -0.849618 -0.527398
vn -0.484704 -0.833112 -0.266432
vn 0.484703 -0.833113 0.266432
vn 0.000002 -0.604052 -0.796945
vn 0.692326 -0.613077 0.380555
vn -0.000002 -0.604052 0.796945
vn -0.692327 -0.613077 0.380553
vn -0.692333 -0.613066 -0.380560
vn -0.484721 -0.833100 0.266439
vn -0.000002 -0.604052 0.796945
vn 0.484703 -0.833113 0.266432
vn 0.692334 -0.613066 -0.380557
vn 0.484722 -0.833100 -0.266438
vn -0.000001 -0.849618 -0.527398
vn -0.692333 -0.613066 -0.380560
vn -0.484704 -0.833112 -0.266432
vn 0.484722 -0.833100 -0.266438
vn 0.000002 -0.604052 -0.796945
vn -0.468209 -0.119584 -0.875489
vn 0.452705 -0.126880 0.882587
vn -0.692051 0.455705 0.559821
vn 0.679147 0.471619 -0.562437
vn 0.414216 -0.285538 -0.864230
vn -0.440489 0.349343 0.827000
vn -0.498097 -0.317457 0.806921
vn 0.712504 0.029513 0.701047
vn -0.561472 0.594482 0.575623
vn 0.555873 0.598844 -0.576534
vn -0.561472 0.594482 0.575623
vn 0.605891 0.558862 -0.566189
vn 0.605886 0.558855 0.566201
vn 0.664345 -0.471125 -0.580247
vn 0.605891 0.558862 -0.566189
vn 0.679147 0.471619 -0.562437
vn 0.679136 0.471618 0.562450
vn 0.701535 -0.459024 -0.545111
vn -0.692051 0.455705 0.559821
vn -0.719560 -0.440010 0.537238
vn -0.692041 0.455705 -0.559833
vn -0.523819 -0.659405 0.539258
vn -0.560867 0.506001 -0.655279
vn 0.447916 -0.541166 0.711695
vn -0.523741 -0.659476 -0.539246
vn -0.692333 -0.613066 -0.380560
vn 0.692334 -0.613066 -0.380557
vn -0.692327 -0.613077 0.380553
vn 0.692326 -0.613077 0.380555
vn 0.692334 -0.613066 -0.380557
f 1/1/1 2/2/2 3/3/3
f 4/4/4 5/5/5 6/6/6
f 7/7/7 8/8/8 9/9/9
f 10/10/10 11/11/11 12/12/12
f 13/13/13 14/14/14 15/15/15
f 3/3/3 16/16/16 17/17/17
f 2/2/2 18/18/18 19/19/19
f 20/20/20 21/21/21 4/4/4
f 22/22/22 23/23/23 24/24/24
f 25/25/25 26/26/26 27/27/27
f 28/28/28 29/29/29 30/30/30
f 31/31/31 32/32/32 33/33/33
f 34/34/34 35/35/35 36/36/36
f 37/37/37 38/38/38 21/21/21
f 39/39/39 40/40/40 41/41/41
f 35/35/35 41/41/41 36/36/36
f 42/42/42 43/43/43 38/38/38
f 19/19/19 44/44/44 45/45/45
f 46/46/46 47/47/47 48/48/48
f 28/28/28 49/49/49 43/43/43
f 45/45/45 50/50/50 46/46/46
f 51/51/51 52/52/52 53/53/53
f 54/54/54 55/55/55 56/56/56
f 57/57/57 58/58/58 52/52/52
f 59/59/59 60/60/60 61/61/61
f 49/49/49 62/62/62 63/63/63
f 64/64/64 65/65/65 66/66/66
f 67/67/67 68/68/68 69/69/69
f 70/70/70 71/71/71 72/72/72
f 73/73/73 74/74/74 75/75/75
f 76/76/76 77/77/77 78/78/78
f 79/79/79 80/80/80 81/81/81
f 82/82/82 83/83/83 84/84/84
f 37/37/37 85/85/85 86/86/86
f 87/87/87 88/88/88 89/89/89
f 90/90/90 91/91/91 92/92/92
f 93/93/93 94/94/94 95/95/95
f 96/96/96 97/97/97 98/98/98
f 99/99/99 100/100/100 101/101/101
f 50/50/50 102/102/102 103/103/103
f 104/104/104 101/101/101 105/105/105
f 106/106/106 107/107/107 108/108/108
f 109/109/109 110/110/110 111/111/111
f 112/112/112 113/113/113 114/114/114
f 103/103/103 115/115/115 109/109/109
f 116/116/116 117/117/117 107/107/107
f 118/118/118 119/119/119 120/120/120
f 121/121/121 122/122/122 117/117/117
f 123/123/123 120/120/120 100/100/100
f 124/124/124 125/125/125 113/113/113
f 126/126/126 127/127/127 128/128/128
f 129/129/129 126/126/126 125/125/125
f 111/111/111 130/130/130 131/131/131
f 132/132/132 133/133/133 134/134/134
f 49/49/49 135/135/135 104/104/104
f 56/56/56 136/136/136 137/137/137
f 73/73/73 46/46/46 138/138/138
f 43/43/43 104/104/104 105/105/105
f 46/46/46 139/139/139 138/138/138
f 75/75/75 45/45/45 73/73/73
f 38/38/38 105/105/105 140/140/140
f 21/21/21 140/140/140 22/22/22
f 4/4/4 22/22/22 24/24/24
f 25/25/25 19/19/19 75/75/75
f 141/141/141 3/3/3 17/17/17
f 142/142/142 11/11/11 143/143/143
f 144/144/144 4/4/4 6/6/6
f 3/3/3 25/25/25 27/27/27
f 145/145/145 146/146/146 147/147/147
f 148/148/148 149/149/149 150/150/150
f 151/151/151 152/152/152 153/153/153
f 154/154/154 152/152/152 155/155/155
f 154/154/154 156/156/156 10/10/10
f 142/142/142 157/157/157 151/151/151
f 158/158/158 159/159/159 160/160/160
f 158/158/158 161/161/161 162/162/162
f 163/163/163 164/164/164 148/148/148
f 165/165/165 166/166/166 167/167/167
f 168/168/168 169/169/169 170/170/170
f 171/171/171 172/172/172 168/168/168
f 1/1/1 93/93/93 2/2/2
f 4/4/4 24/24/24 5/5/5
f 7/7/7 173/173/173 8/8/8
f 10/10/10 156/156/156 11/11/11
f 13/13/13 174/174/174 14/14/14
f 3/3/3 27/27/27 16/16/16
f 2/2/2 93/93/93 18/18/18
f 20/20/20 37/37/37 21/21/21
f 22/22/22 175/175/175 23/23/23
f 25/25/25 176/176/176 26/26/26
f 28/28/28 42/42/42 29/29/29
f 31/31/31 177/177/177 32/32/32
f 34/34/34 178/178/178 35/35/35
f 37/37/37 42/42/42 38/38/38
f 39/39/39 179/179/179 40/40/40
f 35/35/35 39/39/39 41/41/41
f 42/42/42 28/28/28 43/43/43
f 19/19/19 18/18/18 44/44/44
f 46/46/46 50/50/50 47/47/47
f 28/28/28 180/180/180 49/49/49
f 45/45/45 44/44/44 50/50/50
f 51/51/51 57/57/57 52/52/52
f 54/54/54 181/181/181 55/55/55
f 57/57/57 182/182/182 58/58/58
f 59/59/59 183/183/183 60/60/60
f 49/49/49 180/180/180 62/62/62
f 64/64/64 184/184/184 65/65/65
f 67/67/67 185/185/185 68/68/68
f 70/70/70 186/186/186 71/71/71
f 73/73/73 187/187/187 74/74/74
f 76/76/76 188/188/188 77/77/77
f 79/79/79 189/189/189 80/80/80
f 82/82/82 190/190/190 83/83/83
f 37/37/37 20/20/20 85/85/85
f 87/87/87 191/191/191 88/88/88
f 90/90/90 192/192/192 91/91/91
f 93/93/93 1/1/1 94/94/94
f 96/96/96 193/193/193 97/97/97
f 99/99/99 123/123/123 100/100/100
f 50/50/50 44/44/44 102/102/102
f 104/104/104 99/99/99 101/101/101
f 106/106/106 116/116/116 107/107/107
f 109/109/109 115/115/115 110/110/110
f 112/112/112 124/124/124 113/113/113
f 103/103/103 102/102/102 115/115/115
f 116/116/116 121/121/121 117/117/117
f 118/118/118 194/194/194 119/119/119
f 121/121/121 195/195/195 122/122/122
f 123/123/123 118/118/118 120/120/120
f 124/124/124 129/129/129 125/125/125
f 126/126/126 196/196/196 127/127/127
f 129/129/129 196/196/196 126/126/126
f 111/111/111 110/110/110 130/130/130
f 132/132/132 197/197/197 133/133/133
f 49/49/49 63/63/63 135/135/135
f 56/56/56 55/55/55 136/136/136
f 73/73/73 45/45/45 46/46/46
f 43/43/43 49/49/49 104/104/104
f 46/46/46 48/48/48 139/139/139
f 75/75/75 19/19/19 45/45/45
f 38/38/38 43/43/43 105/105/105
f 21/21/21 38/38/38 140/140/140
f 4/4/4 21/21/21 22/22/22
f 25/25/25 2/2/2 19/19/19
f 141/141/141 1/1/1 3/3/3
f 142/142/142 12/12/12 11/11/11
f 144/144/144 20/20/20 4/4/4
f 3/3/3 2/2/2 25/25/25
f 145/145/145 198/198/198 146/146/146
f 148/148/148 164/164/164 149/149/149
f 151/151/151 157/157/157 152/152/152
f 154/154/154 153/153/153 152/152/152
f 154/154/154 155/155/155 156/156/156
f 142/142/142 143/143/143 157/157/157
f 158/158/158 199/199/199 159/159/159
f 158/158/158 160/160/160 161/161/161
f 163/163/163 200/200/200 164/164/164
f 165/165/165 201/201/201 166/166/166
f 168/168/168 172/172/172 169/169/169
f 171/171/171 202/202/202 172/172/172
