# Cube -- imported by tools/import_asset_pack.py from bolt_01.fbx
o __pending__
v 0.161673 -0.011232 0.006483
v 0.142043 -0.000003 0.009448
v 0.142043 -0.008186 0.004724
v 0.179560 -0.011276 0.006508
v 0.215410 -0.000003 0.000470
v 0.169459 -0.000149 0.023329
v 0.161673 -0.000003 -0.012966
v 0.179560 -0.011276 -0.006508
v 0.161673 -0.011232 -0.006483
v 0.161673 -0.011232 -0.000000
v 0.142043 -0.008186 -0.000000
v 0.215410 -0.000003 -0.000470
v 0.215410 -0.000410 -0.000235
v 0.163542 -0.018194 -0.000000
v 0.161673 0.011225 -0.000000
v 0.142043 0.008179 -0.004724
v 0.142043 0.008179 -0.000000
v 0.179560 0.011268 -0.006508
v 0.215410 -0.000003 -0.000470
v 0.169459 -0.000149 -0.023329
v 0.161673 -0.000003 0.012966
v 0.161673 0.011225 -0.006483
v 0.142043 -0.000003 -0.009448
v 0.215410 -0.000410 -0.000000
v 0.163542 -0.018194 -0.000000
v 0.161673 -0.000003 0.012966
v 0.179560 0.011268 0.006508
v 0.161673 0.011225 0.006483
v 0.215410 0.000403 -0.000000
v 0.163542 0.018187 -0.000000
v 0.215410 0.000403 -0.000000
v 0.215410 -0.000003 0.000470
v 0.215410 -0.000410 -0.000000
v 0.163542 0.018187 -0.000000
v 0.142043 0.008179 0.004724
v 0.142043 -0.000003 0.009448
v 0.215410 -0.000003 0.000470
v 0.215410 0.000403 0.000235
v 0.161673 -0.000003 -0.012966
v -0.184590 -0.009984 0.000000
v 0.142043 -0.000003 -0.009448
v 0.142043 -0.008186 -0.004724
v 0.161673 0.011225 -0.000000
v 0.215410 0.000403 -0.000000
v 0.215410 0.000403 -0.000235
v 0.142043 0.008179 0.004724
v 0.215410 -0.000410 -0.000000
v 0.215410 -0.000410 0.000235
v 0.161673 -0.011232 -0.000000
v 0.142043 -0.008186 -0.004724
v -0.184590 -0.009984 0.000000
v -0.184590 -0.000000 0.011529
v -0.184590 0.009984 -0.000000
v -0.184590 -0.009984 -0.005765
v -0.184590 -0.009984 0.005765
v -0.184590 0.009984 -0.000000
v -0.184590 0.009984 0.005765
v -0.184590 -0.000000 0.011529
v -0.184590 -0.000000 -0.011529
v -0.184590 0.009984 -0.005765
v -0.184590 -0.009984 -0.005765
v -0.184590 -0.000000 -0.011529
v -0.169156 0.023613 0.002794
v -0.169156 0.007196 -0.002794
v -0.169156 0.007196 0.002794
v -0.169156 0.007196 -0.002794
v -0.138928 0.032643 -0.002794
v 0.006084 0.007196 -0.002794
v -0.138928 0.032643 -0.002794
v 0.006084 0.007196 0.002794
v 0.006084 0.007196 -0.002794
v -0.138928 0.032643 0.002794
v -0.169156 0.007196 0.002794
v 0.006084 0.007196 0.002794
v 0.006084 0.007196 -0.002794
v -0.169156 0.007196 0.002794
v -0.169156 0.007196 -0.002794
v -0.169156 0.023613 -0.002794
v -0.138928 0.032643 0.002794
v -0.170614 -0.005440 0.003121
v -0.170614 -0.013097 0.018681
v -0.170614 -0.001488 0.007072
v -0.170614 -0.005440 0.003121
v -0.140386 -0.023434 0.021115
v -0.170614 -0.017048 0.014730
v 0.004626 -0.005440 0.003121
v -0.140386 -0.019482 0.025066
v -0.140386 -0.023434 0.021115
v -0.170614 -0.001488 0.007072
v -0.140386 -0.019482 0.025066
v 0.004626 -0.001488 0.007072
v -0.170614 -0.001488 0.007072
v 0.004626 -0.005440 0.003121
v -0.170614 -0.005440 0.003121
v -0.170614 -0.017048 0.014730
v -0.170614 -0.013097 -0.019714
v -0.170614 -0.005440 -0.004154
v -0.170614 -0.001488 -0.008105
v -0.170614 -0.005440 -0.004154
v -0.140386 -0.023434 -0.022148
v 0.004626 -0.005440 -0.004154
v -0.140386 -0.023434 -0.022148
v 0.004626 -0.001488 -0.008105
v 0.004626 -0.005440 -0.004154
v -0.140386 -0.019482 -0.026099
v -0.170614 -0.001488 -0.008105
v 0.004626 -0.001488 -0.008105
v 0.004626 -0.005440 -0.004154
v -0.170614 -0.001488 -0.008105
v -0.170614 -0.005440 -0.004154
v -0.170614 -0.017048 -0.015763
v -0.140386 -0.019482 -0.026099
v 0.169459 -0.000149 -0.023329
v 0.169459 -0.000149 0.023329
v 0.215410 -0.000410 -0.000235
v 0.215410 -0.000003 -0.000470
v 0.215410 0.000403 -0.000235
v 0.215410 0.000403 0.000235
v 0.215410 -0.000410 0.000235
v 0.161673 0.011225 0.006483
v 0.161673 -0.011232 -0.006483
v -0.184590 0.009984 -0.005765
v -0.184590 -0.000000 -0.011529
v -0.184590 -0.009984 -0.005765
v -0.184590 -0.009984 0.005765
v -0.184590 0.009984 0.005765
v -0.184590 -0.000000 0.011529
v -0.184590 0.009984 0.005765
v -0.169156 0.023613 -0.002794
v -0.169156 0.023613 -0.002794
v -0.169156 0.023613 0.002794
v 0.006084 0.007196 0.002794
v -0.169156 0.023613 0.002794
v -0.170614 -0.017048 0.014730
v 0.004626 -0.005440 0.003121
v 0.004626 -0.001488 0.007072
v -0.170614 -0.013097 0.018681
v 0.004626 -0.001488 0.007072
v -0.170614 -0.013097 0.018681
v -0.170614 -0.017048 -0.015763
v -0.170614 -0.017048 -0.015763
v -0.170614 -0.013097 -0.019714
v 0.004626 -0.001488 -0.008105
v -0.170614 -0.013097 -0.019714
vt 0.280665 0.137035
vt 0.253755 0.186513
vt 0.276817 0.186491
vt 0.281674 0.092743
vt 0.272544 0.007080
vt 0.232610 0.115249
vt 0.134677 0.135381
vt 0.101724 0.091298
vt 0.102663 0.135802
vt 0.291360 0.138611
vt 0.284611 0.187639
vt 0.113007 0.003340
vt 0.111847 0.003355
vt 0.304453 0.132986
vt 0.168285 0.865700
vt 0.182804 0.817819
vt 0.175106 0.816681
vt 0.177822 0.911564
vt 0.187244 0.997343
vt 0.227297 0.889053
vt 0.249015 0.137065
vt 0.178849 0.867261
vt 0.205916 0.817845
vt 0.111490 0.003386
vt 0.078978 0.131735
vt 0.017936 0.865025
vt 0.050970 0.909055
vt 0.050021 0.864533
vt 0.040696 0.997299
vt 0.073664 0.868601
vt 0.428155 0.554560
vt 0.427141 0.553389
vt 0.426128 0.554560
vt 0.155067 0.871276
vt 0.045549 0.815412
vt 0.022170 0.815771
vt 0.039186 0.997343
vt 0.040348 0.997325
vt 0.210566 0.867297
vt 0.270264 0.995941
vt 0.130308 0.184676
vt 0.106981 0.184983
vt 0.059642 0.863795
vt 0.185712 0.997285
vt 0.186095 0.997342
vt 0.167409 0.815543
vt 0.274078 0.007136
vt 0.273691 0.007079
vt 0.092810 0.136654
vt 0.292405 0.188788
vt 0.470782 0.505542
vt 0.433469 0.512723
vt 0.445907 0.548628
vt 0.279774 0.997343
vt 0.260753 0.994540
vt 0.189701 0.008164
vt 0.180308 0.006775
vt 0.002657 0.003095
vt 0.227297 0.009584
vt 0.199094 0.009552
vt 0.121287 0.997343
vt 0.149753 0.996969
vt 0.365273 0.555730
vt 0.379196 0.514827
vt 0.365273 0.514827
vt 0.309767 0.996065
vt 0.359959 0.922833
vt 0.309767 0.560033
vt 0.722988 0.640209
vt 0.736359 0.995550
vt 0.745388 0.997343
vt 0.552393 0.637953
vt 0.501507 0.561123
vt 0.501507 0.997343
vt 0.759949 0.563444
vt 0.750701 0.996186
vt 0.759949 0.997343
vt 0.745388 0.565146
vt 0.713960 0.638416
vt 0.398433 0.555730
vt 0.384510 0.514827
vt 0.384510 0.555730
vt 0.428155 0.997076
vt 0.365273 0.922277
vt 0.387587 0.997343
vt 0.821277 0.567974
vt 0.809141 0.919841
vt 0.823039 0.920011
vt 0.496193 0.561123
vt 0.433469 0.636756
vt 0.496193 0.997343
vt 0.788177 0.563225
vt 0.802066 0.997343
vt 0.802066 0.563331
vt 0.821277 0.997343
vt 0.417669 0.514827
vt 0.403747 0.555730
vt 0.417669 0.555730
vt 0.557707 0.997075
vt 0.620998 0.922645
vt 0.557707 0.563176
vt 0.765262 0.921029
vt 0.782863 0.563097
vt 0.769056 0.563354
vt 0.689558 0.638678
vt 0.626312 0.563331
vt 0.626312 0.997343
vt 0.694872 0.997343
vt 0.708646 0.561038
vt 0.694872 0.561123
vt 0.769056 0.997343
vt 0.779069 0.920771
vt 0.149753 0.114644
vt 0.002657 0.885580
vt 0.426128 0.555145
vt 0.427141 0.555730
vt 0.428155 0.555145
vt 0.428155 0.553974
vt 0.426128 0.553974
vt 0.157722 0.864138
vt 0.302056 0.140187
vt 0.458344 0.555809
vt 0.483220 0.541447
vt 0.483220 0.512723
vt 0.458344 0.498361
vt 0.433469 0.541447
vt 0.232610 0.994567
vt 0.031187 0.002657
vt 0.379196 0.555730
vt 0.342149 0.997343
vt 0.534336 0.562145
vt 0.750701 0.562287
vt 0.736359 0.563354
vt 0.398433 0.514827
vt 0.428155 0.561044
vt 0.807379 0.567805
vt 0.455726 0.561373
vt 0.788177 0.997237
vt 0.807379 0.997174
vt 0.403747 0.514827
vt 0.598539 0.997343
vt 0.667115 0.563642
vt 0.708646 0.997258
vt 0.782863 0.997086
vn -0.224930 -0.731989 0.643117
vn -0.087968 -0.000008 0.996123
vn -0.087973 -0.862668 0.498060
vn 0.207264 -0.841610 0.498733
vn 0.743516 0.000042 0.668718
vn -0.299891 -0.007732 0.953942
vn -0.299002 0.001256 -0.954252
vn 0.207264 -0.841609 -0.498734
vn -0.224930 -0.731989 -0.643117
vn -0.667768 -0.744369 0.000000
vn -0.074165 -0.997246 -0.000000
vn 0.743516 0.000040 -0.668719
vn 0.732978 -0.589116 -0.340126
vn -0.399140 -0.916890 0.000000
vn -0.667768 0.744370 -0.000001
vn -0.087963 0.862667 -0.498064
vn -0.074154 0.997247 -0.000000
vn 0.207835 0.839155 -0.502616
vn 0.743516 0.000040 -0.668719
vn -0.299892 -0.007732 -0.953942
vn -0.299003 0.001248 0.954251
vn -0.224930 0.731988 -0.643117
vn -0.087969 -0.000004 -0.996123
vn 0.804330 -0.594183 0.000000
vn -0.399140 -0.916890 0.000000
vn -0.299003 0.001248 0.954251
vn 0.207835 0.839156 0.502615
vn -0.224929 0.731986 0.643121
vn 0.804330 0.594183 -0.000001
vn -0.399139 0.916890 -0.000001
vn 0.804330 0.594183 -0.000001
vn 0.743516 0.000042 0.668718
vn 0.804330 -0.594183 0.000000
vn -0.399139 0.916890 -0.000001
vn -0.087963 0.862665 0.498067
vn -0.087968 -0.000008 0.996123
vn 0.743516 0.000042 0.668718
vn 0.732977 0.589116 0.340128
vn -0.299002 0.001256 -0.954252
vn -0.705172 -0.709036 0.000001
vn -0.087969 -0.000004 -0.996123
vn -0.087973 -0.862669 -0.498060
vn -0.667768 0.744370 -0.000001
vn 0.804330 0.594183 -0.000001
vn 0.732974 0.589114 -0.340138
vn -0.087963 0.862665 0.498067
vn 0.804330 -0.594183 0.000000
vn 0.732978 -0.589115 0.340129
vn -0.667768 -0.744369 0.000000
vn -0.087973 -0.862669 -0.498060
vn -0.705172 -0.709036 0.000001
vn -0.607587 0.000006 0.794253
vn -0.705164 0.709045 -0.000000
vn -0.607604 -0.687831 -0.397122
vn -0.607602 -0.687830 0.397127
vn -0.705164 0.709045 -0.000000
vn -0.607599 0.687836 0.397121
vn -0.607587 0.000006 0.794253
vn -0.607587 0.000006 -0.794253
vn -0.607599 0.687836 -0.397121
vn -0.607604 -0.687831 -0.397122
vn -0.607587 0.000006 -0.794253
vn -0.645016 0.480515 0.594188
vn -0.577321 -0.577351 -0.577379
vn -0.577339 -0.577346 0.577366
vn -0.577321 -0.577351 -0.577379
vn -0.043824 0.751024 -0.658819
vn 0.840129 -0.073219 -0.537422
vn -0.043824 0.751024 -0.658819
vn 0.840141 -0.073083 0.537422
vn 0.840129 -0.073219 -0.537422
vn -0.043824 0.751019 0.658825
vn -0.577339 -0.577346 0.577366
vn 0.840141 -0.073083 0.537422
vn 0.840129 -0.073219 -0.537422
vn -0.577339 -0.577346 0.577366
vn -0.577321 -0.577351 -0.577379
vn -0.645033 0.480502 -0.594181
vn -0.043824 0.751019 0.658825
vn -0.577321 -0.000020 -0.816517
vn -0.645016 0.080379 0.759930
vn -0.577339 0.816505 0.000014
vn -0.577321 -0.000020 -0.816517
vn -0.043825 -0.996910 0.065195
vn -0.645033 -0.759916 -0.080382
vn 0.840137 -0.328295 -0.431731
vn -0.043823 -0.065195 0.996910
vn -0.043825 -0.996910 0.065195
vn -0.577339 0.816505 0.000014
vn -0.043823 -0.065195 0.996910
vn 0.840133 0.431745 0.328287
vn -0.577339 0.816505 0.000014
vn 0.840137 -0.328295 -0.431731
vn -0.577321 -0.000020 -0.816517
vn -0.645033 -0.759916 -0.080382
vn -0.645016 0.080379 -0.759930
vn -0.577321 -0.000019 0.816517
vn -0.577339 0.816505 -0.000014
vn -0.577321 -0.000019 0.816517
vn -0.043824 -0.996910 -0.065199
vn 0.840128 -0.328242 0.431789
vn -0.043824 -0.996910 -0.065199
vn 0.840142 0.431687 -0.328340
vn 0.840128 -0.328242 0.431789
vn -0.043824 -0.065191 -0.996910
vn -0.577339 0.816505 -0.000014
vn 0.840142 0.431687 -0.328340
vn 0.840128 -0.328242 0.431789
vn -0.577339 0.816505 -0.000014
vn -0.577321 -0.000019 0.816517
vn -0.645033 -0.759916 0.080383
vn -0.043824 -0.065191 -0.996910
vn -0.299892 -0.007732 -0.953942
vn -0.299891 -0.007732 0.953942
vn 0.732978 -0.589116 -0.340126
vn 0.743516 0.000040 -0.668719
vn 0.732974 0.589114 -0.340138
vn 0.732977 0.589116 0.340128
vn 0.732978 -0.589115 0.340129
vn -0.224929 0.731986 0.643121
vn -0.224930 -0.731989 -0.643117
vn -0.607599 0.687836 -0.397121
vn -0.607587 0.000006 -0.794253
vn -0.607604 -0.687831 -0.397122
vn -0.607602 -0.687830 0.397127
vn -0.607599 0.687836 0.397121
vn -0.607587 0.000006 0.794253
vn -0.607599 0.687836 0.397121
vn -0.645033 0.480502 -0.594181
vn -0.645033 0.480502 -0.594181
vn -0.645016 0.480515 0.594188
vn 0.840141 -0.073083 0.537422
vn -0.645016 0.480515 0.594188
vn -0.645033 -0.759916 -0.080382
vn 0.840137 -0.328295 -0.431731
vn 0.840133 0.431745 0.328287
vn -0.645016 0.080379 0.759930
vn 0.840133 0.431745 0.328287
vn -0.645016 0.080379 0.759930
vn -0.645033 -0.759916 0.080383
vn -0.645033 -0.759916 0.080383
vn -0.645016 0.080379 -0.759930
vn 0.840142 0.431687 -0.328340
vn -0.645016 0.080379 -0.759930
f 1/1/1 2/2/2 3/3/3
f 4/4/4 5/5/5 6/6/6
f 7/7/7 8/8/8 9/9/9
f 10/10/10 3/3/3 11/11/11
f 8/8/8 12/12/12 13/13/13
f 14/14/14 1/1/1 10/10/10
f 15/15/15 16/16/16 17/17/17
f 18/18/18 19/19/19 20/20/20
f 4/4/4 21/21/21 1/1/1
f 22/22/22 23/23/23 16/16/16
f 8/8/8 24/24/24 25/25/25
f 26/26/26 27/27/27 28/28/28
f 27/27/27 29/29/29 30/30/30
f 31/31/31 32/32/32 33/33/33
f 34/34/34 22/22/22 15/15/15
f 26/26/26 35/35/35 36/36/36
f 27/27/27 37/37/37 38/38/38
f 18/18/18 39/39/39 22/22/22
f 3/3/3 40/40/40 11/11/11
f 41/41/41 9/9/9 42/42/42
f 28/28/28 30/30/30 43/43/43
f 18/18/18 44/44/44 45/45/45
f 46/46/46 15/15/15 17/17/17
f 4/4/4 47/47/47 48/48/48
f 9/9/9 25/25/25 49/49/49
f 50/50/50 10/10/10 11/11/11
f 51/51/51 52/52/52 53/53/53
f 50/50/50 40/40/40 54/54/54
f 2/2/2 55/55/55 3/3/3
f 46/46/46 56/56/56 57/57/57
f 35/35/35 58/58/58 36/36/36
f 16/16/16 59/59/59 60/60/60
f 16/16/16 56/56/56 17/17/17
f 41/41/41 61/61/61 62/62/62
f 63/63/63 64/64/64 65/65/65
f 66/66/66 67/67/67 68/68/68
f 69/69/69 70/70/70 71/71/71
f 72/72/72 73/73/73 74/74/74
f 75/75/75 76/76/76 77/77/77
f 78/78/78 79/79/79 69/69/69
f 80/80/80 81/81/81 82/82/82
f 83/83/83 84/84/84 85/85/85
f 86/86/86 87/87/87 88/88/88
f 89/89/89 90/90/90 91/91/91
f 92/92/92 93/93/93 94/94/94
f 87/87/87 95/95/95 88/88/88
f 96/96/96 97/97/97 98/98/98
f 99/99/99 100/100/100 101/101/101
f 102/102/102 103/103/103 104/104/104
f 105/105/105 106/106/106 107/107/107
f 108/108/108 109/109/109 110/110/110
f 111/111/111 112/112/112 102/102/102
f 1/1/1 21/21/21 2/2/2
f 4/4/4 48/48/48 5/5/5
f 7/7/7 113/113/113 8/8/8
f 10/10/10 1/1/1 3/3/3
f 8/8/8 113/113/113 12/12/12
f 14/14/14 4/4/4 1/1/1
f 15/15/15 22/22/22 16/16/16
f 18/18/18 45/45/45 19/19/19
f 4/4/4 6/6/6 21/21/21
f 22/22/22 39/39/39 23/23/23
f 8/8/8 13/13/13 24/24/24
f 26/26/26 114/114/114 27/27/27
f 27/27/27 38/38/38 29/29/29
f 33/33/33 115/115/115 116/116/116
f 116/116/116 117/117/117 31/31/31
f 31/31/31 118/118/118 32/32/32
f 32/32/32 119/119/119 33/33/33
f 33/33/33 116/116/116 31/31/31
f 34/34/34 18/18/18 22/22/22
f 26/26/26 28/28/28 35/35/35
f 27/27/27 114/114/114 37/37/37
f 18/18/18 20/20/20 39/39/39
f 3/3/3 55/55/55 40/40/40
f 41/41/41 7/7/7 9/9/9
f 28/28/28 27/27/27 30/30/30
f 18/18/18 34/34/34 44/44/44
f 46/46/46 120/120/120 15/15/15
f 4/4/4 14/14/14 47/47/47
f 9/9/9 8/8/8 25/25/25
f 50/50/50 121/121/121 10/10/10
f 122/122/122 123/123/123 53/53/53
f 123/123/123 124/124/124 51/51/51
f 51/51/51 125/125/125 52/52/52
f 123/123/123 51/51/51 53/53/53
f 52/52/52 126/126/126 53/53/53
f 50/50/50 11/11/11 40/40/40
f 2/2/2 127/127/127 55/55/55
f 46/46/46 17/17/17 56/56/56
f 35/35/35 128/128/128 58/58/58
f 16/16/16 23/23/23 59/59/59
f 16/16/16 60/60/60 56/56/56
f 41/41/41 42/42/42 61/61/61
f 63/63/63 129/129/129 64/64/64
f 66/66/66 130/130/130 67/67/67
f 69/69/69 79/79/79 70/70/70
f 72/72/72 131/131/131 73/73/73
f 75/75/75 132/132/132 76/76/76
f 78/78/78 133/133/133 79/79/79
f 80/80/80 134/134/134 81/81/81
f 83/83/83 135/135/135 84/84/84
f 86/86/86 136/136/136 87/87/87
f 89/89/89 137/137/137 90/90/90
f 92/92/92 138/138/138 93/93/93
f 87/87/87 139/139/139 95/95/95
f 96/96/96 140/140/140 97/97/97
f 99/99/99 141/141/141 100/100/100
f 102/102/102 112/112/112 103/103/103
f 105/105/105 142/142/142 106/106/106
f 108/108/108 143/143/143 109/109/109
f 111/111/111 144/144/144 112/112/112
