# f_brokensword_01 -- imported by tools/import_asset_pack.py from brokensword_01.fbx
o __pending__
v 0.000000 0.032067 -0.005287
v -0.021003 0.051984 -0.001133
v 0.005533 0.052869 -0.005287
v 0.000000 0.032067 0.005287
v -0.024986 -0.031625 0.001133
v 0.003541 -0.031846 0.005287
v -0.032067 0.032067 0.001133
v -0.024986 -0.031625 -0.001133
v -0.024986 -0.031625 0.001133
v -0.032067 -0.055011 -0.001133
v -0.032067 -0.110076 0.002537
v -0.032067 -0.055011 0.001133
v 0.032067 0.032067 -0.001387
v 0.032067 -0.032067 0.001387
v 0.032067 -0.032067 -0.001387
v 0.003541 -0.031846 -0.005287
v 0.032067 0.032067 -0.001387
v 0.032067 -0.032067 -0.001387
v 0.000000 -0.110076 0.011837
v -0.032067 -0.134294 0.011837
v 0.000000 -0.134294 0.011837
v 0.032067 -0.055011 0.001387
v 0.032067 -0.110076 -0.003106
v 0.032067 -0.055011 -0.001387
v 0.000000 -0.055011 -0.005287
v 0.032067 -0.110076 -0.003106
v 0.000000 -0.110076 -0.011837
v 0.000000 -0.055011 0.005287
v -0.032067 -0.110076 0.002537
v -0.006417 -0.044506 0.005287
v 0.019232 -0.043178 -0.001387
v -0.006417 -0.044506 -0.005287
v 0.032067 -0.032067 0.001387
v 0.019232 -0.043178 -0.001387
v 0.032067 -0.032067 -0.001387
v -0.032067 -0.045833 0.001133
v -0.032067 -0.055011 0.001133
v 0.019232 -0.043178 0.001387
v 0.032067 -0.055011 -0.001387
v 0.019232 -0.043178 -0.001387
v -0.032067 -0.045833 -0.001133
v 0.005533 0.052869 0.005287
v 0.031552 0.069228 0.001387
v 0.001033 0.069228 0.005287
v 0.032067 0.032067 0.001387
v -0.021003 0.051984 -0.001133
v -0.032067 0.032067 -0.001133
v 0.032067 0.053754 0.001387
v 0.032067 0.032067 0.001387
v -0.029486 0.069228 -0.001133
v 0.001033 0.152876 -0.004170
v 0.001033 0.069228 -0.005287
v 0.032067 0.053754 -0.001387
v 0.031552 0.069228 0.001387
v -0.021003 0.051984 0.001133
v -0.029486 0.069228 -0.001133
v -0.029486 0.152876 0.000894
v -0.029486 0.170137 -0.000894
v -0.029486 0.152876 -0.000894
v 0.031552 0.069228 -0.001387
v 0.031552 0.152876 0.001095
v -0.029486 0.069228 0.001133
v 0.001033 0.152876 0.004170
v -0.004721 0.169916 -0.004170
v -0.029391 0.180723 -0.000894
v 0.002455 0.180501 -0.004170
v 0.020044 0.169694 0.001095
v -0.004721 0.169916 0.004170
v -0.029486 0.152876 -0.000894
v 0.031552 0.152876 -0.001095
v 0.020044 0.169694 0.001095
v 0.034301 0.180280 -0.001095
v 0.034581 0.220479 0.000838
v 0.034301 0.180280 0.001095
v 0.020044 0.169694 -0.001095
v 0.034301 0.180280 0.001095
v 0.020044 0.169694 0.001095
v -0.029486 0.170137 0.000894
v -0.029391 0.180723 -0.000894
v 0.002455 0.180501 0.004170
v -0.029111 0.220922 0.000684
v -0.022439 0.226221 -0.000685
v -0.029111 0.220922 -0.000685
v -0.029391 0.180723 0.000894
v -0.029111 0.220922 -0.000685
v 0.034301 0.180280 0.001095
v 0.002735 0.220701 0.003193
v 0.002735 0.220701 -0.003194
v -0.022439 0.226221 -0.000685
v 0.002811 0.231743 -0.003194
v 0.006088 0.225778 -0.003194
v 0.034581 0.220479 0.000838
v 0.006088 0.225778 0.003193
v 0.034581 0.220479 -0.000838
v 0.034614 0.225335 0.000838
v -0.029035 0.231965 0.000684
v -0.028792 0.266946 -0.000685
v -0.029035 0.231965 -0.000685
v 0.034614 0.225335 -0.000838
v 0.034658 0.231522 0.000838
v -0.022439 0.226221 0.000684
v -0.029035 0.231965 -0.000685
v -0.022439 0.226221 -0.000685
v 0.034658 0.231522 0.000838
v 0.002811 0.231743 0.003193
v -0.028792 0.266946 0.000684
v -0.028688 0.281946 -0.000685
v 0.003054 0.266724 0.003193
v -0.028792 0.266946 -0.000685
v 0.003054 0.266724 -0.003194
v 0.034658 0.231522 -0.000838
v 0.034901 0.266503 0.000838
v -0.028688 0.281946 -0.000685
v -0.013839 0.295322 -0.003194
v -0.009455 0.281282 -0.003194
v 0.009777 0.280619 0.000838
v -0.009455 0.281282 0.003193
v 0.034901 0.266503 -0.000838
v 0.009777 0.280619 0.000838
v 0.034901 0.266503 0.000838
v -0.028203 0.295986 0.000684
v -0.028454 0.330447 -0.000685
v -0.028203 0.295986 -0.000685
v 0.009777 0.280619 -0.000838
v 0.000525 0.294658 0.000838
v 0.009777 0.280619 0.000838
v -0.028688 0.281946 0.000684
v 0.000525 0.294658 0.000838
v -0.013839 0.295322 0.003193
v -0.014090 0.329783 0.003193
v -0.019903 0.355433 0.000838
v -0.023202 0.364064 0.000838
v 0.000274 0.329119 0.000838
v -0.028203 0.295986 -0.000685
v -0.014090 0.329783 -0.003194
v 0.000525 0.294658 -0.000838
v 0.000274 0.329119 0.000838
v -0.023202 0.364064 -0.000838
v -0.026502 0.372694 0.000180
v -0.023202 0.364064 0.000838
v -0.028454 0.330447 -0.000685
v -0.023202 0.364064 -0.000838
v 0.000274 0.329119 -0.000838
v -0.019903 0.355433 0.000838
v -0.028454 0.330447 0.000684
v -0.026502 0.372694 -0.000180
v 0.032067 -0.134294 -0.011837
v 0.000000 -0.134294 0.011837
v 0.000000 -0.134294 -0.011837
v -0.032067 -0.110076 -0.002537
v -0.063297 -0.134294 -0.006262
v -0.063297 -0.110076 -0.006262
v 0.062022 -0.134294 0.006262
v 0.032067 -0.134294 0.011837
v 0.032067 -0.134294 -0.011837
v 0.000000 -0.134294 -0.011837
v 0.062022 -0.110076 0.006262
v 0.062022 -0.134294 -0.006262
v 0.062022 -0.110076 -0.006262
v 0.032067 -0.110076 0.003106
v 0.062022 -0.110076 -0.006262
v 0.032067 -0.110076 -0.003106
v 0.062022 -0.134294 -0.006262
v 0.032067 -0.110076 0.003106
v 0.062022 -0.134294 0.006262
v 0.062022 -0.110076 0.006262
v -0.063297 -0.110076 -0.006262
v -0.063297 -0.134294 0.006262
v -0.063297 -0.110076 0.006262
v -0.032067 -0.110076 -0.002537
v -0.063297 -0.110076 0.006262
v -0.032067 -0.110076 0.002537
v -0.063297 -0.134294 0.006262
v -0.032067 -0.134294 0.011837
v -0.063297 -0.134294 -0.006262
v -0.032067 -0.134294 -0.011837
v -0.004496 -0.281681 -0.009621
v 0.008487 -0.281681 0.009621
v 0.008487 -0.281681 -0.009621
v 0.003059 -0.156685 -0.008543
v 0.011008 -0.288229 -0.004704
v 0.003059 -0.288229 -0.006652
v 0.003059 -0.127816 -0.008543
v 0.013266 -0.156685 -0.006041
v 0.025579 -0.293377 0.009621
v 0.026129 -0.304718 -0.009621
v 0.025579 -0.293377 -0.009621
v 0.003059 -0.156685 0.008543
v -0.004890 -0.288229 0.004704
v 0.003059 -0.288229 0.006653
v 0.013266 -0.127816 -0.006041
v 0.017494 -0.156685 0.000000
v 0.008487 -0.281681 0.009621
v -0.004496 -0.294665 0.009621
v 0.008487 -0.294665 0.009621
v 0.011008 -0.288229 0.004704
v 0.013266 -0.156685 0.006041
v 0.017494 -0.127816 0.000000
v 0.017494 -0.156685 0.000000
v 0.019693 -0.286661 0.009621
v -0.007147 -0.156685 -0.006041
v -0.008182 -0.288229 0.000000
v -0.011376 -0.156685 0.000000
v 0.013266 -0.127816 0.006041
v -0.004496 -0.281681 -0.009621
v 0.008487 -0.294665 -0.009621
v -0.004496 -0.294665 -0.009621
v 0.014300 -0.288229 0.000000
v 0.003059 -0.127816 0.008543
v -0.007147 -0.156685 0.006041
v -0.014748 -0.285880 0.009621
v -0.021418 -0.294665 0.009621
v -0.004890 -0.288229 -0.004704
v -0.007147 -0.127816 0.006041
v -0.011376 -0.156685 0.000000
v 0.003059 -0.127816 0.008543
v 0.013266 -0.127816 0.006041
v 0.013266 -0.127816 -0.006041
v -0.004890 -0.288229 0.004704
v -0.008182 -0.288229 0.000000
v -0.004890 -0.288229 -0.004704
v -0.011376 -0.127816 0.000000
v 0.008487 -0.294665 -0.009621
v -0.004496 -0.294665 0.009621
v -0.004496 -0.294665 -0.009621
v 0.014300 -0.288229 0.000000
v -0.007147 -0.127816 -0.006041
v -0.008182 -0.288229 0.000000
v 0.008487 -0.294665 -0.009621
v 0.011334 -0.298933 0.009621
v 0.008487 -0.294665 0.009621
v 0.019693 -0.286661 -0.009621
v 0.019693 -0.286661 -0.009621
v 0.011334 -0.298933 -0.009621
v 0.026129 -0.304718 0.009621
v 0.026129 -0.312010 -0.009621
v 0.011439 -0.301825 -0.009621
v 0.026129 -0.304718 -0.009621
v 0.011544 -0.304717 -0.009621
v 0.011439 -0.301825 0.009621
v 0.026129 -0.304718 0.009621
v 0.025579 -0.293377 0.009621
v 0.011439 -0.301825 0.009621
v 0.011544 -0.304717 -0.009621
v 0.011544 -0.304717 0.009621
v 0.011334 -0.298933 -0.009621
v 0.011334 -0.298933 0.009621
v 0.025579 -0.293377 -0.009621
v 0.019693 -0.286661 -0.009621
v 0.026129 -0.312010 0.009621
v 0.020970 -0.321081 -0.009621
v 0.011544 -0.312009 -0.009621
v 0.011544 -0.312009 0.009621
v 0.026129 -0.312010 0.009621
v 0.011544 -0.312009 0.009621
v 0.011544 -0.327306 -0.009621
v 0.020970 -0.321081 0.009621
v 0.011544 -0.327306 0.009621
v 0.020970 -0.321081 -0.009621
v 0.011544 -0.327306 -0.009621
v 0.020970 -0.321081 0.009621
v 0.011544 -0.327306 0.009621
v 0.002058 -0.312009 0.009621
v 0.002057 -0.327306 0.009621
v 0.002058 -0.312009 -0.009621
v 0.002057 -0.327306 0.009621
v 0.002058 -0.312009 0.009621
v 0.002057 -0.327306 -0.009621
v 0.002058 -0.312009 -0.009621
v 0.011544 -0.312009 -0.009621
v 0.002058 -0.312009 0.009621
v 0.011544 -0.312009 0.009621
v -0.014748 -0.285880 0.009621
v -0.021418 -0.294665 -0.009621
v -0.021418 -0.294665 0.009621
v -0.014748 -0.285880 0.009621
v -0.004496 -0.281681 0.009621
v -0.021418 -0.294665 -0.009621
v -0.010425 -0.305534 -0.009621
v -0.021418 -0.305658 -0.009621
v -0.014748 -0.285880 -0.009621
v -0.010425 -0.305534 0.009621
v -0.021418 -0.305658 -0.009621
v -0.010425 -0.305534 -0.009621
v -0.010425 -0.305534 0.009621
v -0.004496 -0.294665 0.009621
v -0.010425 -0.305534 -0.009621
v -0.004496 -0.294665 -0.009621
v -0.021418 -0.305658 0.009621
v -0.032067 -0.134294 -0.011837
v -0.019903 0.355433 -0.000838
v 0.000274 0.329119 -0.000838
v -0.019903 0.355433 -0.000838
v 0.000525 0.294658 -0.000838
v -0.028203 0.295986 0.000684
v -0.028454 0.330447 0.000684
v -0.026502 0.372694 0.000180
v -0.028688 0.281946 0.000684
v 0.009777 0.280619 -0.000838
v 0.034901 0.266503 -0.000838
v -0.028792 0.266946 0.000684
v 0.034658 0.231522 -0.000838
v -0.029035 0.231965 0.000684
v -0.022439 0.226221 0.000684
v 0.034581 0.220479 -0.000838
v 0.034614 0.225335 -0.000838
v -0.029111 0.220922 0.000684
v 0.034301 0.180280 -0.001095
v -0.029391 0.180723 0.000894
v -0.029486 0.170137 0.000894
v 0.020044 0.169694 -0.001095
v 0.031552 0.152876 -0.001095
v -0.029486 0.152876 0.000894
v -0.029486 0.069228 0.001133
v 0.031552 0.069228 -0.001387
v 0.032067 0.053754 -0.001387
v -0.021003 0.051984 0.001133
v -0.032067 0.032067 0.001133
v -0.032067 -0.055011 -0.001133
v -0.032067 -0.045833 -0.001133
v 0.019232 -0.043178 0.001387
v 0.032067 -0.055011 0.001387
v -0.024986 -0.031625 -0.001133
v 0.032067 -0.032067 0.001387
v 0.032067 -0.134294 0.011837
v -0.032067 0.032067 -0.001133
v -0.032067 -0.110076 -0.002537
v 0.032067 -0.110076 0.003106
v 0.032067 -0.055011 -0.001387
v -0.032067 -0.045833 0.001133
v 0.019232 -0.043178 0.001387
v 0.032067 -0.055011 0.001387
v 0.032067 0.053754 0.001387
v 0.031552 0.152876 0.001095
v -0.029486 0.170137 -0.000894
v 0.020044 0.169694 -0.001095
v 0.034301 0.180280 -0.001095
v -0.022439 0.226221 0.000684
v -0.029111 0.220922 0.000684
v -0.029111 0.220922 -0.000685
v -0.029035 0.231965 -0.000685
v 0.034614 0.225335 0.000838
v -0.029035 0.231965 0.000684
v 0.034901 0.266503 0.000838
v 0.034901 0.266503 -0.000838
v 0.009777 0.280619 -0.000838
v -0.026502 0.372694 -0.000180
v -0.026502 0.372694 -0.000180
v -0.026502 0.372694 0.000180
v 0.062022 -0.134294 -0.006262
v 0.062022 -0.134294 0.006262
v 0.062022 -0.110076 0.006262
v 0.062022 -0.110076 -0.006262
v -0.063297 -0.134294 -0.006262
v -0.063297 -0.110076 -0.006262
v -0.063297 -0.110076 0.006262
v -0.063297 -0.134294 0.006262
v 0.017494 -0.127816 0.000000
v -0.004496 -0.281681 0.009621
v 0.008487 -0.281681 -0.009621
v -0.011376 -0.127816 0.000000
v 0.017494 -0.127816 0.000000
v 0.003059 -0.127816 -0.008543
v -0.007147 -0.127816 -0.006041
v -0.007147 -0.127816 0.006041
v -0.011376 -0.127816 0.000000
v 0.003059 -0.288229 -0.006652
v 0.003059 -0.288229 0.006653
v 0.011008 -0.288229 -0.004704
v 0.011008 -0.288229 0.004704
v 0.014300 -0.288229 0.000000
v 0.008487 -0.294665 0.009621
v 0.019693 -0.286661 0.009621
v 0.011544 -0.304717 0.009621
v 0.011439 -0.301825 -0.009621
v 0.019693 -0.286661 0.009621
v 0.020970 -0.321081 0.009621
v 0.026129 -0.312010 -0.009621
v 0.011544 -0.312009 -0.009621
v 0.020970 -0.321081 -0.009621
v 0.002057 -0.327306 -0.009621
v 0.002057 -0.327306 0.009621
v 0.002057 -0.327306 -0.009621
v 0.002058 -0.312009 -0.009621
v -0.014748 -0.285880 -0.009621
v -0.014748 -0.285880 -0.009621
v -0.021418 -0.305658 0.009621
v -0.021418 -0.305658 0.009621
v -0.010425 -0.305534 0.009621
v -0.021418 -0.305658 -0.009621
vt 0.128621 0.329880
vt 0.087612 0.368767
vt 0.139423 0.370495
vt 0.380884 0.329880
vt 0.429670 0.205519
vt 0.373971 0.205087
vt 0.523167 0.626182
vt 0.537099 0.502120
vt 0.523167 0.502120
vt 0.537099 0.456192
vt 0.514537 0.348698
vt 0.523167 0.456192
vt 0.555794 0.726254
vt 0.569725 0.601028
vt 0.555794 0.601028
vt 0.135534 0.205087
vt 0.191233 0.329880
vt 0.191233 0.204655
vt 0.380885 0.052319
vt 0.443498 0.005033
vt 0.380885 0.005033
vt 0.668785 0.455328
vt 0.646224 0.347813
vt 0.654854 0.455328
vt 0.128621 0.159857
vt 0.191232 0.052319
vt 0.128619 0.052319
vt 0.380884 0.159857
vt 0.443498 0.052319
vt 0.393414 0.180369
vt 0.166173 0.182961
vt 0.116090 0.180368
vt 0.736828 0.526965
vt 0.722897 0.501869
vt 0.722897 0.526965
vt 0.523167 0.474108
vt 0.443497 0.159857
vt 0.727977 0.584307
vt 0.714046 0.557757
vt 0.714046 0.584307
vt 0.537099 0.474108
vt 0.370082 0.370495
vt 0.319279 0.402435
vt 0.378867 0.402435
vt 0.318271 0.329880
vt 0.537099 0.665490
vt 0.537099 0.626182
vt 0.569725 0.768598
vt 0.569725 0.726254
vt 0.071049 0.402435
vt 0.130638 0.565765
vt 0.130637 0.402435
vt 0.555794 0.768598
vt 0.569725 0.798809
vt 0.523167 0.665490
vt 0.537099 0.698824
vt 0.524638 0.862118
vt 0.535628 0.895813
vt 0.535628 0.862118
vt 0.555794 0.798809
vt 0.568254 0.962135
vt 0.523167 0.698824
vt 0.378867 0.565765
vt 0.119404 0.599035
vt 0.071234 0.620136
vt 0.133415 0.619704
vt 0.341747 0.598603
vt 0.390101 0.599035
vt 0.071049 0.565765
vt 0.557265 0.962135
vt 0.568254 0.994967
vt 0.664705 0.826614
vt 0.674407 0.905105
vt 0.675694 0.826614
vt 0.714046 0.613788
vt 0.725035 0.641659
vt 0.725035 0.613788
vt 0.524638 0.895813
vt 0.535628 0.916481
vt 0.376090 0.619703
vt 0.694175 0.838921
vt 0.685759 0.826614
vt 0.685759 0.838921
vt 0.524638 0.916481
vt 0.534341 0.994967
vt 0.313909 0.619271
vt 0.375544 0.698197
vt 0.133960 0.698197
vt 0.084808 0.708975
vt 0.134110 0.719758
vt 0.140508 0.708111
vt 0.313363 0.697765
vt 0.368997 0.708111
vt 0.665992 0.905105
vt 0.674407 0.914586
vt 0.646224 0.720145
vt 0.654640 0.788442
vt 0.654640 0.720145
vt 0.665992 0.914586
vt 0.674407 0.926666
vt 0.673120 0.739278
vt 0.664705 0.726418
vt 0.664705 0.739278
vt 0.313213 0.719326
vt 0.375394 0.719758
vt 0.646224 0.788442
vt 0.654640 0.817731
vt 0.374920 0.788059
vt 0.072404 0.788491
vt 0.134585 0.788059
vt 0.665992 0.926666
vt 0.674407 0.994967
vt 0.072608 0.817781
vt 0.101600 0.843896
vt 0.110160 0.816485
vt 0.361792 0.815189
vt 0.399345 0.816485
vt 0.561310 0.350351
vt 0.569725 0.401138
vt 0.569725 0.350351
vt 0.646224 0.845156
vt 0.654640 0.912419
vt 0.654640 0.845156
vt 0.561310 0.411203
vt 0.569725 0.438610
vt 0.569725 0.411203
vt 0.646224 0.817731
vt 0.379858 0.842600
vt 0.407904 0.843896
vt 0.408395 0.911182
vt 0.419744 0.961265
vt 0.426187 0.978116
vt 0.380349 0.909886
vt 0.073554 0.845193
vt 0.101109 0.911182
vt 0.561310 0.438610
vt 0.569725 0.505896
vt 0.561309 0.574114
vt 0.569725 0.590963
vt 0.569725 0.574114
vt 0.073063 0.912479
vt 0.083318 0.978116
vt 0.561310 0.505896
vt 0.569725 0.557264
vt 0.646224 0.912419
vt 0.654640 0.994967
vt 0.646224 0.651594
vt 0.677416 0.588981
vt 0.646224 0.588981
vt 0.066007 0.052319
vt 0.005033 0.005052
vt 0.005033 0.052339
vt 0.670070 0.710080
vt 0.677416 0.651594
vt 0.191232 0.005033
vt 0.128619 0.005033
vt 0.703981 0.641659
vt 0.687481 0.594373
vt 0.687481 0.641659
vt 0.718673 0.710080
vt 0.694827 0.651725
vt 0.687481 0.710080
vt 0.249720 0.005052
vt 0.318272 0.052319
vt 0.259785 0.005052
vt 0.259785 0.052338
vt 0.703981 0.584307
vt 0.687481 0.537030
vt 0.687481 0.584307
vt 0.685759 0.856865
vt 0.709605 0.917703
vt 0.716951 0.856865
vt 0.504472 0.005052
vt 0.677416 0.526368
vt 0.653570 0.465393
vt 0.646224 0.526368
vt 0.685759 0.975543
vt 0.711111 0.950249
vt 0.685759 0.950249
vt 0.607973 0.938570
vt 0.623493 0.681742
vt 0.607973 0.681735
vt 0.607973 0.994938
vt 0.627902 0.938579
vt 0.690056 0.803439
vt 0.664705 0.781297
vt 0.664705 0.803439
vt 0.607976 0.615273
vt 0.623495 0.358445
vt 0.607976 0.358438
vt 0.627902 0.994947
vt 0.636159 0.938600
vt 0.522221 0.310839
vt 0.558043 0.312290
vt 0.540857 0.293653
vt 0.592456 0.358445
vt 0.588047 0.615281
vt 0.579790 0.671670
vt 0.579790 0.615302
vt 0.514537 0.288163
vt 0.588044 0.938579
vt 0.586026 0.681758
vt 0.579790 0.938600
vt 0.588047 0.671649
vt 0.703038 0.328591
vt 0.701588 0.292768
vt 0.684401 0.311405
vt 0.586026 0.358461
vt 0.607976 0.671641
vt 0.627905 0.615281
vt 0.559005 0.338633
vt 0.580442 0.336579
vt 0.592454 0.681742
vt 0.627905 0.671649
vt 0.636159 0.615302
vt 0.636159 0.318790
vt 0.629654 0.299712
vt 0.613951 0.302315
vt 0.704776 0.419374
vt 0.699710 0.412020
vt 0.692546 0.417351
vt 0.579790 0.994967
vt 0.714841 0.429977
vt 0.740192 0.455328
vt 0.740192 0.429977
vt 0.629923 0.681758
vt 0.588044 0.994947
vt 0.629923 0.358461
vt 0.725473 0.816549
vt 0.700121 0.808326
vt 0.700121 0.816549
vt 0.685759 0.927768
vt 0.727908 0.287278
vt 0.699227 0.283033
vt 0.690056 0.781297
vt 0.664705 0.767058
vt 0.695216 0.279054
vt 0.710509 0.254140
vt 0.691204 0.275075
vt 0.547229 0.279939
vt 0.531936 0.255025
vt 0.516386 0.270825
vt 0.700121 0.802685
vt 0.725473 0.797043
vt 0.700121 0.797043
vt 0.725473 0.808326
vt 0.543218 0.283918
vt 0.726059 0.269940
vt 0.664705 0.816549
vt 0.690056 0.767058
vt 0.664705 0.749343
vt 0.680736 0.265423
vt 0.561709 0.266308
vt 0.542404 0.245372
vt 0.700121 0.782807
vt 0.687481 0.383529
vt 0.712832 0.401954
vt 0.712832 0.383529
vt 0.680193 0.239884
vt 0.658780 0.245176
vt 0.562252 0.240770
vt 0.583665 0.246061
vt 0.574265 0.279924
vt 0.596221 0.259678
vt 0.725473 0.772742
vt 0.700121 0.742881
vt 0.700121 0.772742
vt 0.687481 0.365007
vt 0.668180 0.279039
vt 0.739656 0.969616
vt 0.721176 0.994967
vt 0.739656 0.994967
vt 0.687481 0.526965
vt 0.712832 0.509558
vt 0.687481 0.509558
vt 0.711111 0.994967
vt 0.711111 0.975543
vt 0.662003 0.335694
vt 0.660952 0.305528
vt 0.646224 0.321143
vt 0.683440 0.337747
vt 0.614694 0.282823
vt 0.636159 0.257472
vt 0.614694 0.257472
vt 0.581493 0.306413
vt 0.721176 0.953120
vt 0.742402 0.927768
vt 0.721176 0.927768
vt 0.687481 0.488098
vt 0.066007 0.005033
vt 0.089760 0.961265
vt 0.129156 0.909886
vt 0.561310 0.557264
vt 0.129647 0.842600
vt 0.435951 0.845193
vt 0.436441 0.912479
vt 0.432629 0.994967
vt 0.436897 0.817781
vt 0.147712 0.815189
vt 0.196766 0.787627
vt 0.437100 0.788491
vt 0.196291 0.719326
vt 0.437575 0.720190
vt 0.424696 0.708975
vt 0.196141 0.697765
vt 0.196207 0.707246
vt 0.437725 0.698629
vt 0.195596 0.619271
vt 0.438270 0.620136
vt 0.438455 0.599467
vt 0.167758 0.598603
vt 0.190226 0.565765
vt 0.438455 0.565765
vt 0.438455 0.402435
vt 0.190226 0.402435
vt 0.191233 0.372223
vt 0.421893 0.368767
vt 0.443497 0.329880
vt 0.066008 0.159857
vt 0.066008 0.177776
vt 0.343332 0.182961
vt 0.318271 0.159857
vt 0.079834 0.205519
vt 0.318271 0.204655
vt 0.318272 0.005033
vt 0.066008 0.329880
vt 0.545729 0.348698
vt 0.677416 0.347813
vt 0.191233 0.159857
vt 0.443497 0.177776
vt 0.736828 0.501869
vt 0.727977 0.557757
vt 0.318271 0.372223
vt 0.319279 0.565765
vt 0.071049 0.599467
vt 0.557265 0.994967
vt 0.714046 0.641659
vt 0.694175 0.826614
vt 0.525925 0.994967
vt 0.071780 0.698629
vt 0.071930 0.720190
vt 0.313297 0.707246
vt 0.673120 0.726418
vt 0.312739 0.787627
vt 0.665992 0.994967
vt 0.561310 0.401138
vt 0.561310 0.590963
vt 0.076875 0.994967
vt 0.646224 0.994967
vt 0.653570 0.710080
vt 0.703981 0.594373
vt 0.711327 0.651725
vt 0.249720 0.052338
vt 0.703981 0.537030
vt 0.693105 0.917703
vt 0.504472 0.052339
vt 0.670070 0.465393
vt 0.636159 0.994967
vt 0.539407 0.329476
vt 0.720224 0.309954
vt 0.636159 0.671670
vt 0.620456 0.292888
vt 0.613951 0.322471
vt 0.620456 0.341549
vt 0.636159 0.338946
vt 0.629654 0.348373
vt 0.687481 0.432243
vt 0.704776 0.435104
vt 0.687481 0.447974
vt 0.699710 0.449997
vt 0.692546 0.455328
vt 0.714841 0.455328
vt 0.711111 0.927768
vt 0.551241 0.275960
vt 0.725473 0.802685
vt 0.690056 0.816549
vt 0.690056 0.749343
vt 0.700041 0.244487
vt 0.725473 0.782807
vt 0.687481 0.401954
vt 0.725473 0.742881
vt 0.712832 0.365007
vt 0.646224 0.258792
vt 0.721176 0.969616
vt 0.712832 0.526965
vt 0.685759 0.994967
vt 0.636159 0.282823
vt 0.596221 0.322028
vt 0.742402 0.953120
vt 0.712832 0.488098
vn -0.022243 0.007339 -0.999726
vn -0.638021 0.015094 -0.769871
vn 0.012093 0.001023 -0.999926
vn -0.022243 0.007339 0.999726
vn -0.687031 0.135277 0.713925
vn 0.031806 -0.031685 0.998992
vn -0.783215 0.154885 0.602151
vn -0.687033 0.135275 -0.713923
vn -0.687031 0.135277 0.713925
vn -0.757773 0.001987 -0.652516
vn -0.420105 0.472437 0.774800
vn -0.757763 0.001987 0.652527
vn 0.751632 -0.002861 -0.659577
vn 0.743962 -0.332559 0.579590
vn 0.743959 -0.332563 -0.579592
vn 0.031806 -0.031685 -0.998992
vn 0.751632 -0.002861 -0.659577
vn 0.743959 -0.332563 -0.579592
vn -0.005626 0.134123 0.990949
vn -0.138652 -0.578307 0.803951
vn 0.000000 -0.707112 0.707101
vn 0.744864 0.328990 0.580468
vn 0.414997 0.463057 -0.783170
vn 0.744858 0.328991 -0.580475
vn 0.023166 0.050326 -0.998464
vn 0.414997 0.463057 -0.783170
vn -0.005626 0.134123 -0.990949
vn 0.023166 0.050326 0.998464
vn -0.420105 0.472437 0.774800
vn -0.051923 0.014604 0.998544
vn 0.500647 -0.019664 -0.865428
vn -0.051923 0.014604 -0.998544
vn 0.743962 -0.332559 0.579590
vn 0.500647 -0.019664 -0.865428
vn 0.743959 -0.332563 -0.579592
vn -0.777104 0.179432 0.603252
vn -0.757763 0.001987 0.652527
vn 0.500647 -0.019668 0.865428
vn 0.744858 0.328991 -0.580475
vn 0.500647 -0.019664 -0.865428
vn -0.777099 0.179433 -0.603258
vn 0.012093 0.001024 0.999926
vn 0.748047 0.019854 0.663349
vn -0.018748 -0.001003 0.999824
vn 0.751629 -0.002860 0.659580
vn -0.638021 0.015094 -0.769871
vn -0.783211 0.154884 -0.602155
vn 0.759576 0.012682 0.650295
vn 0.751629 -0.002860 0.659580
vn -0.769113 -0.173290 -0.615172
vn 0.011750 0.011278 -0.999867
vn -0.018748 -0.001003 -0.999824
vn 0.759573 0.012682 -0.650298
vn 0.748047 0.019854 0.663349
vn -0.638021 0.015091 0.769872
vn -0.769113 -0.173290 -0.615172
vn -0.746740 -0.003648 0.665106
vn -0.752860 0.003365 -0.658172
vn -0.746740 -0.003648 -0.665106
vn 0.748051 0.019853 -0.663345
vn 0.756125 0.232030 0.611912
vn -0.769114 -0.173289 0.615171
vn 0.011750 0.011278 0.999867
vn -0.028029 0.007110 -0.999582
vn -0.743485 0.017187 -0.668532
vn 0.022317 -0.009454 -0.999706
vn 0.505007 -0.099822 0.857323
vn -0.028029 0.007111 0.999582
vn -0.746740 -0.003648 -0.665106
vn 0.756124 0.232032 -0.611913
vn 0.505007 -0.099822 0.857323
vn 0.723031 -0.356319 -0.591830
vn 0.734694 -0.004775 0.678382
vn 0.723029 -0.356321 0.591831
vn 0.505006 -0.099826 -0.857323
vn 0.723029 -0.356321 0.591831
vn 0.505007 -0.099822 0.857323
vn -0.752857 0.003365 0.658176
vn -0.743485 0.017187 -0.668532
vn 0.022317 -0.009454 0.999706
vn -0.723985 0.349305 0.594838
vn -0.442587 0.012151 -0.896643
vn -0.723989 0.349305 -0.594833
vn -0.743488 0.017187 0.668528
vn -0.723989 0.349305 -0.594833
vn 0.723029 -0.356321 0.591831
vn -0.019019 0.020110 0.999617
vn -0.019019 0.020109 -0.999617
vn -0.442587 0.012151 -0.896643
vn -0.017608 -0.010680 -0.999788
vn 0.021447 -0.002100 -0.999768
vn 0.734694 -0.004775 0.678382
vn 0.021447 -0.002099 0.999768
vn 0.734682 -0.004775 -0.678395
vn 0.735601 -0.005111 0.677396
vn -0.732070 -0.325606 0.598377
vn -0.739528 -0.004308 -0.673112
vn -0.732066 -0.325607 -0.598381
vn 0.735602 -0.005112 -0.677394
vn 0.733973 -0.003272 0.679171
vn -0.442587 0.012155 0.896643
vn -0.732066 -0.325607 -0.598381
vn -0.442587 0.012151 -0.896643
vn 0.733973 -0.003272 0.679171
vn -0.017609 -0.010679 0.999788
vn -0.739527 -0.004308 0.673113
vn -0.757616 0.008518 -0.652645
vn 0.024502 0.034326 0.999110
vn -0.739528 -0.004308 -0.673112
vn 0.024501 0.034326 -0.999110
vn 0.733991 -0.003273 -0.679151
vn 0.704334 0.402433 0.584774
vn -0.757616 0.008518 -0.652645
vn -0.012820 0.003341 -0.999912
vn 0.000094 0.008800 -0.999961
vn 0.484154 0.519558 0.704028
vn 0.000094 0.008800 0.999961
vn 0.704321 0.402434 -0.584789
vn 0.484154 0.519558 0.704028
vn 0.704334 0.402433 0.584774
vn -0.761857 0.010316 0.647663
vn -0.768217 0.019577 -0.639890
vn -0.761856 0.010316 -0.647664
vn 0.484155 0.519555 -0.704029
vn 0.670661 0.200372 0.714189
vn 0.484154 0.519558 0.704028
vn -0.757616 0.008518 0.652645
vn 0.670661 0.200372 0.714189
vn -0.012820 0.003342 0.999912
vn 0.012233 0.043516 0.998978
vn 0.761020 0.381372 0.524789
vn 0.596588 0.284663 0.750366
vn 0.767982 0.257417 0.586464
vn -0.761856 0.010316 -0.647664
vn 0.012233 0.043516 -0.998978
vn 0.670662 0.200369 -0.714188
vn 0.767982 0.257417 0.586464
vn 0.596583 0.284661 -0.750371
vn -0.137804 0.843585 0.519012
vn 0.596588 0.284663 0.750366
vn -0.768217 0.019577 -0.639890
vn 0.596583 0.284661 -0.750371
vn 0.767981 0.257420 -0.586464
vn 0.761020 0.381372 0.524789
vn -0.768216 0.019578 0.639892
vn -0.137895 0.843569 -0.519014
vn 0.136817 -0.583839 -0.800258
vn 0.000000 -0.707112 0.707101
vn 0.000000 -0.707112 -0.707101
vn -0.420105 0.472434 -0.774802
vn -0.589623 -0.558602 -0.583360
vn -0.544852 0.571378 -0.613729
vn 0.593319 -0.559729 0.578512
vn 0.136817 -0.583841 0.800256
vn 0.136817 -0.583839 -0.800258
vn 0.000000 -0.707112 -0.707101
vn 0.548752 0.572047 0.609617
vn 0.593314 -0.559723 -0.578523
vn 0.548778 0.572010 -0.609628
vn 0.414998 0.463054 0.783172
vn 0.548778 0.572010 -0.609628
vn 0.414997 0.463057 -0.783170
vn 0.593314 -0.559723 -0.578523
vn 0.414998 0.463054 0.783172
vn 0.593319 -0.559729 0.578512
vn 0.548752 0.572047 0.609617
vn -0.544852 0.571378 -0.613729
vn -0.589618 -0.558597 0.583370
vn -0.544877 0.571346 0.613737
vn -0.420105 0.472434 -0.774802
vn -0.544877 0.571346 0.613737
vn -0.420105 0.472437 0.774800
vn -0.589618 -0.558597 0.583370
vn -0.138652 -0.578307 0.803951
vn -0.589623 -0.558602 -0.583360
vn -0.138651 -0.578312 -0.803947
vn -0.144076 0.731808 -0.666108
vn 0.155363 0.732110 0.663233
vn 0.155365 0.732116 -0.663225
vn 0.000003 -0.007176 -0.999974
vn 0.431634 -0.642530 -0.633125
vn 0.000002 -0.662572 -0.748998
vn -0.000004 0.657254 -0.753669
vn 0.565625 -0.009029 -0.824613
vn 0.712453 0.287898 0.639942
vn 0.712282 0.017252 -0.701682
vn 0.712458 0.287904 -0.639933
vn -0.000003 -0.007176 0.999974
vn -0.431636 -0.642529 0.633125
vn -0.000000 -0.662572 0.748999
vn 0.436004 0.635775 -0.636938
vn 0.999927 -0.012083 0.000007
vn 0.155363 0.732110 0.663233
vn 0.275532 -0.464147 0.841813
vn -0.263071 -0.491555 0.830161
vn 0.431637 -0.642524 0.633129
vn 0.565618 -0.009029 0.824618
vn 0.801493 0.598005 -0.000011
vn 0.999927 -0.012083 0.000007
vn 0.444514 0.603683 0.661796
vn -0.565617 -0.009029 -0.824618
vn -0.794643 -0.607077 0.000000
vn -0.999927 -0.012083 -0.000007
vn 0.436011 0.635784 0.636925
vn -0.144076 0.731808 -0.666108
vn -0.263058 -0.491547 -0.830170
vn 0.275534 -0.464150 -0.841811
vn 0.794643 -0.607077 0.000000
vn 0.000005 0.657254 0.753669
vn -0.565625 -0.009029 0.824613
vn -0.461712 0.600996 0.652400
vn -0.726742 0.244643 0.641868
vn -0.431636 -0.642525 -0.633129
vn -0.436004 0.635776 0.636938
vn -0.999927 -0.012083 -0.000007
vn 0.000005 0.657254 0.753669
vn 0.436011 0.635784 0.636925
vn 0.436004 0.635775 -0.636938
vn -0.431636 -0.642529 0.633125
vn -0.794643 -0.607077 0.000000
vn -0.431636 -0.642525 -0.633129
vn -0.801492 0.598005 0.000011
vn -0.263058 -0.491547 -0.830170
vn 0.275532 -0.464147 0.841813
vn 0.275534 -0.464150 -0.841811
vn 0.794643 -0.607077 0.000000
vn -0.436011 0.635783 -0.636925
vn -0.794643 -0.607077 0.000000
vn -0.263058 -0.491547 -0.830170
vn -0.602755 -0.194534 0.773849
vn -0.263071 -0.491555 0.830161
vn 0.444508 0.603680 -0.661803
vn 0.444508 0.603680 -0.661803
vn -0.602761 -0.194539 -0.773843
vn 0.712274 0.017253 0.701689
vn 0.731481 -0.193451 -0.653844
vn -0.706638 -0.025720 -0.707108
vn 0.712282 0.017252 -0.701682
vn -0.702841 -0.012779 -0.711232
vn -0.706636 -0.025719 0.707110
vn 0.712274 0.017253 0.701689
vn 0.712453 0.287898 0.639942
vn -0.706636 -0.025719 0.707110
vn -0.702841 -0.012779 -0.711232
vn -0.702851 -0.012779 0.711223
vn -0.602761 -0.194539 -0.773843
vn -0.602755 -0.194534 0.773849
vn 0.712458 0.287904 -0.639933
vn 0.444508 0.603680 -0.661803
vn 0.731488 -0.193446 0.653838
vn 0.549725 -0.514305 -0.658250
vn -0.301504 0.301506 -0.904538
vn -0.301490 0.301517 0.904539
vn 0.731488 -0.193446 0.653838
vn -0.301490 0.301517 0.904539
vn 0.219170 -0.729670 -0.647724
vn 0.549728 -0.514305 0.658247
vn 0.219175 -0.729664 0.647729
vn 0.549725 -0.514305 -0.658250
vn 0.219170 -0.729670 -0.647724
vn 0.549728 -0.514305 0.658247
vn 0.219175 -0.729664 0.647729
vn -0.577346 0.577349 0.577357
vn -0.577376 -0.577331 0.577343
vn -0.577354 0.577354 -0.577343
vn -0.577376 -0.577331 0.577343
vn -0.577346 0.577349 0.577357
vn -0.577368 -0.577326 -0.577357
vn -0.577354 0.577354 -0.577343
vn -0.301504 0.301506 -0.904538
vn -0.577346 0.577349 0.577357
vn -0.301490 0.301517 0.904539
vn -0.461712 0.600996 0.652400
vn -0.726738 0.244643 -0.641873
vn -0.726742 0.244643 0.641868
vn -0.461712 0.600996 0.652400
vn -0.144080 0.731817 0.666096
vn -0.726738 0.244643 -0.641873
vn 0.408689 -0.679722 -0.609057
vn -0.574391 -0.580874 -0.576767
vn -0.461714 0.600999 -0.652396
vn 0.408689 -0.679719 0.609061
vn -0.574391 -0.580874 -0.576767
vn 0.408689 -0.679722 -0.609057
vn 0.408689 -0.679719 0.609061
vn 0.275532 -0.464147 0.841813
vn 0.408689 -0.679722 -0.609057
vn 0.275534 -0.464150 -0.841811
vn -0.574384 -0.580881 0.576768
vn -0.138651 -0.578312 -0.803947
vn 0.761020 0.381371 -0.524789
vn 0.767981 0.257420 -0.586464
vn 0.761020 0.381371 -0.524789
vn 0.670662 0.200369 -0.714188
vn -0.761857 0.010316 0.647663
vn -0.768216 0.019578 0.639892
vn -0.137804 0.843585 0.519012
vn -0.757616 0.008518 0.652645
vn 0.484155 0.519555 -0.704029
vn 0.704321 0.402434 -0.584789
vn -0.739527 -0.004308 0.673113
vn 0.733991 -0.003273 -0.679151
vn -0.732070 -0.325606 0.598377
vn -0.442587 0.012155 0.896643
vn 0.734682 -0.004775 -0.678395
vn 0.735602 -0.005112 -0.677394
vn -0.723985 0.349305 0.594838
vn 0.723031 -0.356319 -0.591830
vn -0.743488 0.017187 0.668528
vn -0.752857 0.003365 0.658176
vn 0.505006 -0.099826 -0.857323
vn 0.756124 0.232032 -0.611913
vn -0.746740 -0.003648 0.665106
vn -0.769114 -0.173289 0.615171
vn 0.748051 0.019853 -0.663345
vn 0.759573 0.012682 -0.650298
vn -0.638021 0.015091 0.769872
vn -0.783215 0.154885 0.602151
vn -0.757773 0.001987 -0.652516
vn -0.777099 0.179433 -0.603258
vn 0.500647 -0.019668 0.865428
vn 0.744864 0.328990 0.580468
vn -0.687033 0.135275 -0.713923
vn 0.743962 -0.332559 0.579590
vn 0.136817 -0.583841 0.800256
vn -0.783211 0.154884 -0.602155
vn -0.420105 0.472434 -0.774802
vn 0.414998 0.463054 0.783172
vn 0.744858 0.328991 -0.580475
vn -0.777104 0.179432 0.603252
vn 0.500647 -0.019668 0.865428
vn 0.744864 0.328990 0.580468
vn 0.759576 0.012682 0.650295
vn 0.756125 0.232030 0.611912
vn -0.752860 0.003365 -0.658172
vn 0.505006 -0.099826 -0.857323
vn 0.723031 -0.356319 -0.591830
vn -0.442587 0.012155 0.896643
vn -0.723985 0.349305 0.594838
vn -0.723989 0.349305 -0.594833
vn -0.732066 -0.325607 -0.598381
vn 0.735601 -0.005111 0.677396
vn -0.732070 -0.325606 0.598377
vn 0.704334 0.402433 0.584774
vn 0.704321 0.402434 -0.584789
vn 0.484155 0.519555 -0.704029
vn -0.137895 0.843569 -0.519014
vn -0.137895 0.843569 -0.519014
vn -0.137804 0.843585 0.519012
vn 0.593314 -0.559723 -0.578523
vn 0.593319 -0.559729 0.578512
vn 0.548752 0.572047 0.609617
vn 0.548778 0.572010 -0.609628
vn -0.589623 -0.558602 -0.583360
vn -0.544852 0.571378 -0.613729
vn -0.544877 0.571346 0.613737
vn -0.589618 -0.558597 0.583370
vn 0.801493 0.598005 -0.000011
vn -0.144080 0.731817 0.666096
vn 0.155365 0.732116 -0.663225
vn -0.801492 0.598005 0.000011
vn 0.801493 0.598005 -0.000011
vn -0.000004 0.657254 -0.753669
vn -0.436011 0.635783 -0.636925
vn -0.436004 0.635776 0.636938
vn -0.801492 0.598005 0.000011
vn 0.000002 -0.662572 -0.748998
vn -0.000000 -0.662572 0.748999
vn 0.431634 -0.642530 -0.633125
vn 0.431637 -0.642524 0.633129
vn 0.794643 -0.607077 0.000000
vn -0.263071 -0.491555 0.830161
vn 0.444514 0.603683 0.661796
vn -0.702851 -0.012779 0.711223
vn -0.706638 -0.025720 -0.707108
vn 0.444514 0.603683 0.661796
vn 0.549728 -0.514305 0.658247
vn 0.731481 -0.193451 -0.653844
vn -0.301504 0.301506 -0.904538
vn 0.549725 -0.514305 -0.658250
vn -0.577368 -0.577326 -0.577357
vn -0.577376 -0.577331 0.577343
vn -0.577368 -0.577326 -0.577357
vn -0.577354 0.577354 -0.577343
vn -0.461714 0.600999 -0.652396
vn -0.461714 0.600999 -0.652396
vn -0.574384 -0.580881 0.576768
vn -0.574384 -0.580881 0.576768
vn 0.408689 -0.679719 0.609061
vn -0.574391 -0.580874 -0.576767
f 1/1/1 2/2/2 3/3/3
f 4/4/4 5/5/5 6/6/6
f 7/7/7 8/8/8 9/9/9
f 10/10/10 11/11/11 12/12/12
f 13/13/13 14/14/14 15/15/15
f 16/16/16 17/17/17 18/18/18
f 19/19/19 20/20/20 21/21/21
f 22/22/22 23/23/23 24/24/24
f 25/25/25 26/26/26 27/27/27
f 28/28/28 29/29/29 19/19/19
f 5/5/5 30/30/30 6/6/6
f 16/16/16 31/31/31 32/32/32
f 33/33/33 34/34/34 35/35/35
f 8/8/8 36/36/36 9/9/9
f 30/30/30 37/37/37 28/28/28
f 31/31/31 25/25/25 32/32/32
f 38/38/38 39/39/39 40/40/40
f 41/41/41 12/12/12 36/36/36
f 42/42/42 43/43/43 44/44/44
f 45/45/45 42/42/42 4/4/4
f 7/7/7 46/46/46 47/47/47
f 13/13/13 48/48/48 49/49/49
f 50/50/50 51/51/51 52/52/52
f 2/2/2 52/52/52 3/3/3
f 53/53/53 54/54/54 48/48/48
f 55/55/55 56/56/56 46/46/46
f 57/57/57 58/58/58 59/59/59
f 60/60/60 61/61/61 54/54/54
f 62/62/62 59/59/59 56/56/56
f 43/43/43 63/63/63 44/44/44
f 64/64/64 65/65/65 66/66/66
f 63/63/63 67/67/67 68/68/68
f 69/69/69 64/64/64 51/51/51
f 70/70/70 71/71/71 61/61/61
f 72/72/72 73/73/73 74/74/74
f 75/75/75 76/76/76 77/77/77
f 78/78/78 79/79/79 58/58/58
f 67/67/67 80/80/80 68/68/68
f 81/81/81 82/82/82 83/83/83
f 84/84/84 85/85/85 79/79/79
f 86/86/86 87/87/87 80/80/80
f 65/65/65 88/88/88 66/66/66
f 89/89/89 90/90/90 91/91/91
f 92/92/92 93/93/93 87/87/87
f 88/88/88 89/89/89 91/91/91
f 94/94/94 95/95/95 73/73/73
f 96/96/96 97/97/97 98/98/98
f 99/99/99 100/100/100 95/95/95
f 101/101/101 102/102/102 103/103/103
f 93/93/93 104/104/104 105/105/105
f 106/106/106 107/107/107 97/97/97
f 104/104/104 108/108/108 105/105/105
f 90/90/90 109/109/109 110/110/110
f 111/111/111 112/112/112 100/100/100
f 113/113/113 114/114/114 115/115/115
f 108/108/108 116/116/116 117/117/117
f 109/109/109 115/115/115 110/110/110
f 118/118/118 119/119/119 120/120/120
f 121/121/121 122/122/122 123/123/123
f 124/124/124 125/125/125 126/126/126
f 127/127/127 123/123/123 107/107/107
f 117/117/117 128/128/128 129/129/129
f 130/130/130 131/131/131 132/132/132
f 129/129/129 133/133/133 130/130/130
f 134/134/134 135/135/135 114/114/114
f 136/136/136 137/137/137 125/125/125
f 138/138/138 139/139/139 140/140/140
f 141/141/141 142/142/142 135/135/135
f 143/143/143 144/144/144 137/137/137
f 145/145/145 146/146/146 122/122/122
f 147/147/147 148/148/148 149/149/149
f 150/150/150 151/151/151 152/152/152
f 147/147/147 153/153/153 154/154/154
f 27/27/27 155/155/155 156/156/156
f 157/157/157 158/158/158 159/159/159
f 160/160/160 161/161/161 162/162/162
f 26/26/26 163/163/163 155/155/155
f 164/164/164 165/165/165 166/166/166
f 167/167/167 168/168/168 169/169/169
f 170/170/170 171/171/171 172/172/172
f 29/29/29 173/173/173 20/20/20
f 174/174/174 175/175/175 176/176/176
f 177/177/177 178/178/178 179/179/179
f 180/180/180 181/181/181 182/182/182
f 183/183/183 184/184/184 180/180/180
f 185/185/185 186/186/186 187/187/187
f 188/188/188 189/189/189 190/190/190
f 191/191/191 192/192/192 184/184/184
f 193/193/193 194/194/194 195/195/195
f 188/188/188 196/196/196 197/197/197
f 198/198/198 197/197/197 199/199/199
f 195/195/195 200/200/200 193/193/193
f 201/201/201 202/202/202 203/203/203
f 204/204/204 188/188/188 197/197/197
f 205/205/205 206/206/206 207/207/207
f 197/197/197 208/208/208 199/199/199
f 209/209/209 210/210/210 188/188/188
f 194/194/194 211/211/211 212/212/212
f 180/180/180 213/213/213 201/201/201
f 214/214/214 215/215/215 210/210/210
f 216/216/216 217/217/217 218/218/218
f 219/219/219 220/220/220 221/221/221
f 222/222/222 201/201/201 203/203/203
f 223/223/223 224/224/224 225/225/225
f 184/184/184 226/226/226 181/181/181
f 227/227/227 180/180/180 201/201/201
f 210/210/210 228/228/228 189/189/189
f 229/229/229 230/230/230 231/231/231
f 178/178/178 232/232/232 179/179/179
f 206/206/206 233/233/233 234/234/234
f 235/235/235 236/236/236 186/186/186
f 237/237/237 238/238/238 239/239/239
f 240/240/240 241/241/241 242/242/242
f 243/243/243 244/244/244 245/245/245
f 246/246/246 243/243/243 230/230/230
f 247/247/247 242/242/242 200/200/200
f 234/234/234 248/248/248 237/237/237
f 249/249/249 185/185/185 187/187/187
f 250/250/250 251/251/251 236/236/236
f 238/238/238 252/252/252 239/239/239
f 241/241/241 253/253/253 254/254/254
f 244/244/244 255/255/255 245/245/245
f 256/256/256 257/257/257 258/258/258
f 252/252/252 259/259/259 260/260/260
f 253/253/253 261/261/261 254/254/254
f 262/262/262 263/263/263 264/264/264
f 265/265/265 266/266/266 267/267/267
f 258/258/258 268/268/268 256/256/256
f 260/260/260 269/269/269 252/252/252
f 270/270/270 271/271/271 272/272/272
f 273/273/273 274/274/274 275/275/275
f 177/177/177 276/276/276 277/277/277
f 278/278/278 279/279/279 280/280/280
f 207/207/207 281/281/281 205/205/205
f 282/282/282 283/283/283 284/284/284
f 212/212/212 285/285/285 194/194/194
f 286/286/286 287/287/287 288/288/288
f 274/274/274 289/289/289 275/275/275
f 27/27/27 290/290/290 150/150/150
f 149/149/149 174/174/174 176/176/176
f 135/135/135 291/291/291 292/292/292
f 138/138/138 144/144/144 293/293/293
f 114/114/114 292/292/292 294/294/294
f 295/295/295 130/130/130 296/296/296
f 296/296/296 132/132/132 297/297/297
f 298/298/298 129/129/129 295/295/295
f 110/110/110 299/299/299 300/300/300
f 301/301/301 117/117/117 298/298/298
f 115/115/115 294/294/294 299/299/299
f 90/90/90 300/300/300 302/302/302
f 105/105/105 301/301/301 303/303/303
f 304/304/304 105/105/105 303/303/303
f 305/305/305 91/91/91 306/306/306
f 87/87/87 304/304/304 307/307/307
f 91/91/91 302/302/302 306/306/306
f 308/308/308 88/88/88 305/305/305
f 309/309/309 87/87/87 307/307/307
f 68/68/68 309/309/309 310/310/310
f 51/51/51 311/311/311 312/312/312
f 313/313/313 68/68/68 310/310/310
f 311/311/311 66/66/66 308/308/308
f 314/314/314 63/63/63 313/313/313
f 3/3/3 315/315/315 316/316/316
f 315/315/315 51/51/51 312/312/312
f 4/4/4 317/317/317 318/318/318
f 317/317/317 44/44/44 314/314/314
f 32/32/32 319/319/319 320/320/320
f 321/321/321 28/28/28 322/322/322
f 323/323/323 32/32/32 320/320/320
f 6/6/6 321/321/321 324/324/324
f 28/28/28 164/164/164 322/322/322
f 25/25/25 150/150/150 319/319/319
f 19/19/19 325/325/325 164/164/164
f 323/323/323 1/1/1 16/16/16
f 45/45/45 6/6/6 324/324/324
f 17/17/17 3/3/3 316/316/316
f 1/1/1 326/326/326 2/2/2
f 4/4/4 318/318/318 5/5/5
f 7/7/7 47/47/47 8/8/8
f 10/10/10 327/327/327 11/11/11
f 13/13/13 49/49/49 14/14/14
f 16/16/16 1/1/1 17/17/17
f 19/19/19 29/29/29 20/20/20
f 22/22/22 328/328/328 23/23/23
f 25/25/25 329/329/329 26/26/26
f 28/28/28 37/37/37 29/29/29
f 5/5/5 330/330/330 30/30/30
f 16/16/16 18/18/18 31/31/31
f 33/33/33 331/331/331 34/34/34
f 8/8/8 41/41/41 36/36/36
f 30/30/30 330/330/330 37/37/37
f 31/31/31 329/329/329 25/25/25
f 38/38/38 332/332/332 39/39/39
f 41/41/41 10/10/10 12/12/12
f 42/42/42 333/333/333 43/43/43
f 45/45/45 333/333/333 42/42/42
f 7/7/7 55/55/55 46/46/46
f 13/13/13 53/53/53 48/48/48
f 50/50/50 69/69/69 51/51/51
f 2/2/2 50/50/50 52/52/52
f 53/53/53 60/60/60 54/54/54
f 55/55/55 62/62/62 56/56/56
f 57/57/57 78/78/78 58/58/58
f 60/60/60 70/70/70 61/61/61
f 62/62/62 57/57/57 59/59/59
f 43/43/43 334/334/334 63/63/63
f 64/64/64 335/335/335 65/65/65
f 63/63/63 334/334/334 67/67/67
f 69/69/69 335/335/335 64/64/64
f 70/70/70 336/336/336 71/71/71
f 72/72/72 94/94/94 73/73/73
f 75/75/75 337/337/337 76/76/76
f 78/78/78 84/84/84 79/79/79
f 67/67/67 86/86/86 80/80/80
f 81/81/81 338/338/338 82/82/82
f 84/84/84 339/339/339 85/85/85
f 86/86/86 92/92/92 87/87/87
f 65/65/65 340/340/340 88/88/88
f 89/89/89 341/341/341 90/90/90
f 92/92/92 342/342/342 93/93/93
f 88/88/88 340/340/340 89/89/89
f 94/94/94 99/99/99 95/95/95
f 96/96/96 106/106/106 97/97/97
f 99/99/99 111/111/111 100/100/100
f 101/101/101 343/343/343 102/102/102
f 93/93/93 342/342/342 104/104/104
f 106/106/106 127/127/127 107/107/107
f 104/104/104 344/344/344 108/108/108
f 90/90/90 341/341/341 109/109/109
f 111/111/111 345/345/345 112/112/112
f 113/113/113 134/134/134 114/114/114
f 108/108/108 344/344/344 116/116/116
f 109/109/109 113/113/113 115/115/115
f 118/118/118 346/346/346 119/119/119
f 121/121/121 145/145/145 122/122/122
f 124/124/124 136/136/136 125/125/125
f 127/127/127 121/121/121 123/123/123
f 117/117/117 116/116/116 128/128/128
f 130/130/130 133/133/133 131/131/131
f 129/129/129 128/128/128 133/133/133
f 134/134/134 141/141/141 135/135/135
f 136/136/136 143/143/143 137/137/137
f 138/138/138 347/347/347 139/139/139
f 141/141/141 348/348/348 142/142/142
f 143/143/143 293/293/293 144/144/144
f 145/145/145 349/349/349 146/146/146
f 147/147/147 154/154/154 148/148/148
f 150/150/150 290/290/290 151/151/151
f 147/147/147 350/350/350 153/153/153
f 27/27/27 26/26/26 155/155/155
f 157/157/157 351/351/351 158/158/158
f 160/160/160 352/352/352 161/161/161
f 26/26/26 353/353/353 163/163/163
f 164/164/164 325/325/325 165/165/165
f 167/167/167 354/354/354 168/168/168
f 170/170/170 355/355/355 171/171/171
f 29/29/29 356/356/356 173/173/173
f 174/174/174 357/357/357 175/175/175
f 177/177/177 277/277/277 178/178/178
f 180/180/180 184/184/184 181/181/181
f 183/183/183 191/191/191 184/184/184
f 185/185/185 235/235/235 186/186/186
f 188/188/188 210/210/210 189/189/189
f 191/191/191 358/358/358 192/192/192
f 193/193/193 359/359/359 194/194/194
f 188/188/188 190/190/190 196/196/196
f 198/198/198 204/204/204 197/197/197
f 195/195/195 247/247/247 200/200/200
f 201/201/201 213/213/213 202/202/202
f 204/204/204 209/209/209 188/188/188
f 205/205/205 360/360/360 206/206/206
f 197/197/197 196/196/196 208/208/208
f 209/209/209 214/214/214 210/210/210
f 194/194/194 359/359/359 211/211/211
f 180/180/180 182/182/182 213/213/213
f 214/214/214 361/361/361 215/215/215
f 362/362/362 218/218/218 217/217/217
f 218/218/218 363/363/363 216/216/216
f 363/363/363 364/364/364 365/365/365
f 364/364/364 366/366/366 365/365/365
f 365/365/365 216/216/216 363/363/363
f 221/221/221 367/367/367 368/368/368
f 367/367/367 369/369/369 370/370/370
f 369/369/369 371/371/371 370/370/370
f 370/370/370 368/368/368 367/367/367
f 368/368/368 219/219/219 221/221/221
f 222/222/222 227/227/227 201/201/201
f 223/223/223 372/372/372 224/224/224
f 184/184/184 192/192/192 226/226/226
f 227/227/227 183/183/183 180/180/180
f 210/210/210 215/215/215 228/228/228
f 229/229/229 246/246/246 230/230/230
f 178/178/178 373/373/373 232/232/232
f 206/206/206 360/360/360 233/233/233
f 235/235/235 250/250/250 236/236/236
f 237/237/237 248/248/248 238/238/238
f 240/240/240 374/374/374 241/241/241
f 243/243/243 375/375/375 244/244/244
f 246/246/246 375/375/375 243/243/243
f 247/247/247 240/240/240 242/242/242
f 234/234/234 233/233/233 248/248/248
f 249/249/249 376/376/376 185/185/185
f 250/250/250 377/377/377 251/251/251
f 238/238/238 378/378/378 252/252/252
f 241/241/241 374/374/374 253/253/253
f 244/244/244 379/379/379 255/255/255
f 256/256/256 380/380/380 257/257/257
f 252/252/252 378/378/378 259/259/259
f 253/253/253 262/262/262 261/261/261
f 262/262/262 253/253/253 263/263/263
f 265/265/265 381/381/381 266/266/266
f 258/258/258 382/382/382 268/268/268
f 260/260/260 383/383/383 269/269/269
f 270/270/270 384/384/384 271/271/271
f 273/273/273 385/385/385 274/274/274
f 177/177/177 386/386/386 276/276/276
f 278/278/278 207/207/207 279/279/279
f 207/207/207 278/278/278 281/281/281
f 282/282/282 387/387/387 283/283/283
f 212/212/212 388/388/388 285/285/285
f 286/286/286 389/389/389 287/287/287
f 274/274/274 390/390/390 289/289/289
f 27/27/27 156/156/156 290/290/290
f 149/149/149 148/148/148 174/174/174
f 135/135/135 142/142/142 291/291/291
f 138/138/138 140/140/140 144/144/144
f 114/114/114 135/135/135 292/292/292
f 295/295/295 129/129/129 130/130/130
f 296/296/296 130/130/130 132/132/132
f 298/298/298 117/117/117 129/129/129
f 110/110/110 115/115/115 299/299/299
f 301/301/301 108/108/108 117/117/117
f 115/115/115 114/114/114 294/294/294
f 90/90/90 110/110/110 300/300/300
f 105/105/105 108/108/108 301/301/301
f 304/304/304 93/93/93 105/105/105
f 305/305/305 88/88/88 91/91/91
f 87/87/87 93/93/93 304/304/304
f 91/91/91 90/90/90 302/302/302
f 308/308/308 66/66/66 88/88/88
f 309/309/309 80/80/80 87/87/87
f 68/68/68 80/80/80 309/309/309
f 51/51/51 64/64/64 311/311/311
f 313/313/313 63/63/63 68/68/68
f 311/311/311 64/64/64 66/66/66
f 314/314/314 44/44/44 63/63/63
f 3/3/3 52/52/52 315/315/315
f 315/315/315 52/52/52 51/51/51
f 4/4/4 42/42/42 317/317/317
f 317/317/317 42/42/42 44/44/44
f 32/32/32 25/25/25 319/319/319
f 321/321/321 30/30/30 28/28/28
f 323/323/323 16/16/16 32/32/32
f 6/6/6 30/30/30 321/321/321
f 28/28/28 19/19/19 164/164/164
f 25/25/25 27/27/27 150/150/150
f 19/19/19 21/21/21 325/325/325
f 323/323/323 326/326/326 1/1/1
f 45/45/45 4/4/4 6/6/6
f 17/17/17 1/1/1 3/3/3
