# Cube.001 -- imported by tools/import_asset_pack.py from compositebow_01.fbx
o __pending__
v 0.081073 0.456668 -0.010323
v -0.043096 0.518891 0.010885
v 0.081073 0.456668 0.010322
v 0.112103 0.060228 -0.013979
v 0.121745 0.064893 0.018200
v 0.112103 0.060228 0.013979
v 0.082811 -0.000000 -0.027959
v 0.112103 0.060228 -0.013979
v 0.104982 -0.000000 -0.013979
v 0.067652 0.445409 -0.020645
v -0.043096 0.518891 -0.010885
v 0.081073 0.456668 -0.010323
v 0.066966 0.077769 0.013979
v 0.092009 0.075504 0.036930
v 0.061500 0.086352 0.018657
v 0.104982 -0.000000 -0.013979
v 0.112103 0.060228 0.013979
v 0.104982 -0.000000 0.013979
v 0.054230 0.434150 0.010322
v -0.072074 0.494385 -0.011780
v 0.054230 0.434150 -0.010323
v 0.166193 0.283303 -0.010273
v 0.157876 0.278451 0.015386
v 0.166193 0.283303 0.010273
v 0.112103 0.060228 0.013979
v 0.082811 -0.000000 0.027959
v 0.104982 -0.000000 0.013979
v -0.043096 0.518891 -0.010885
v -0.145964 0.700909 0.010322
v 0.166193 0.283303 0.010273
v 0.184532 0.278252 0.029722
v 0.183937 0.284627 0.020545
v 0.066966 0.077769 0.013979
v 0.045991 -0.000000 0.013979
v 0.184532 0.278252 -0.029722
v 0.157876 0.278451 -0.015386
v 0.054230 0.434150 0.010322
v -0.057732 0.507819 0.023155
v -0.072074 0.494385 0.011780
v 0.066966 0.077769 0.013979
v 0.045991 -0.000000 -0.013979
v 0.045991 -0.000000 0.013979
v 0.067652 0.445409 0.020645
v -0.043096 0.518891 0.010885
v 0.201680 0.285950 0.010273
v 0.209254 0.278214 -0.014275
v 0.201680 0.285950 -0.010273
v 0.066966 0.077769 -0.013979
v 0.045991 -0.000000 -0.013979
v 0.082811 -0.000000 0.027959
v 0.045991 -0.000000 0.013979
v 0.045991 -0.000000 -0.013979
v 0.054230 0.434150 -0.010323
v -0.057732 0.507819 -0.023155
v 0.136935 0.345601 -0.010323
v 0.151504 0.355492 -0.020645
v 0.151504 0.355492 0.020645
v 0.081073 0.456668 0.010322
v 0.136935 0.345601 0.010322
v 0.136935 0.345601 0.010322
v 0.136935 0.345601 -0.010323
v 0.166072 0.365384 -0.010323
v 0.166072 0.365384 -0.010323
v 0.166072 0.365384 0.010322
v -0.160938 0.691140 0.020645
v -0.194570 0.817044 0.012706
v -0.175913 0.681371 0.010322
v -0.175913 0.681371 -0.010323
v -0.160938 0.691140 -0.020645
v -0.145964 0.700909 -0.010323
v -0.072074 0.494385 0.011780
v -0.175913 0.681371 -0.010323
v -0.162072 0.843904 0.025413
v -0.144386 0.850000 0.012706
v -0.162072 0.843904 -0.025413
v -0.194570 0.817044 -0.012706
v -0.162072 0.843904 -0.025413
v -0.144386 0.850000 -0.012706
v -0.145964 0.700909 0.010322
v -0.162072 0.843904 0.025413
v -0.175913 0.681371 0.010322
v -0.194570 0.817044 -0.012706
v -0.145964 0.700909 -0.010323
v -0.144386 0.850000 0.012706
v 0.199533 0.193127 -0.014502
v 0.184532 0.278252 -0.029722
v 0.209254 0.278214 -0.014275
v 0.174547 0.192614 -0.029766
v 0.199533 0.193127 -0.014502
v 0.209254 0.278214 0.014274
v 0.199533 0.193127 0.014502
v 0.148332 0.192060 0.015204
v 0.157876 0.278451 -0.015386
v 0.148332 0.192060 -0.015204
v 0.174547 0.192614 0.029766
v 0.157876 0.278451 0.015386
v 0.148332 0.192060 0.015204
v 0.199533 0.193127 0.014502
v 0.183937 0.284627 -0.020545
v 0.209254 0.278214 0.014274
v 0.201680 0.285950 0.010273
v 0.089535 0.068999 -0.027959
v 0.121745 0.064893 -0.018200
v 0.066966 0.077769 -0.013979
v 0.092009 0.075504 -0.036930
v 0.089535 0.068999 -0.027959
v 0.061500 0.086352 -0.018657
v 0.089535 0.068999 0.027959
v -0.172654 0.754648 0.000108
v -0.182798 0.839007 0.000108
v -0.182798 0.754648 0.000108
v -0.182798 -0.000000 0.000108
v -0.172654 0.079774 0.000108
v -0.182798 0.079774 0.000108
v -0.172654 0.164133 0.000108
v -0.182798 0.164133 0.000108
v -0.172654 0.248492 0.000108
v -0.182798 0.248492 0.000108
v -0.172654 0.332851 0.000108
v -0.182798 0.332851 0.000108
v -0.172654 0.417210 0.000108
v -0.182798 0.417211 0.000108
v -0.172654 0.501570 0.000108
v -0.182798 0.501570 0.000108
v -0.172654 0.585929 0.000108
v -0.182798 0.585929 0.000108
v -0.172654 0.670288 0.000108
v -0.182798 0.670288 0.000108
v 0.201680 0.285950 -0.010273
v 0.201680 0.285950 0.010273
v 0.183937 0.284627 -0.020545
v 0.201680 0.285950 -0.010273
v 0.166193 0.283303 -0.010273
v 0.166072 0.365384 0.010322
v 0.166193 0.283303 -0.010273
v 0.121745 0.064893 0.018200
v 0.092009 0.075504 0.036930
v 0.061500 0.086352 0.018657
v 0.061500 0.086352 -0.018657
v 0.121745 0.064893 0.018200
v 0.092009 0.075504 -0.036930
v 0.148332 0.192060 -0.015204
v 0.174547 0.192614 -0.029766
v -0.043096 -0.518891 0.010885
v 0.081073 -0.456668 -0.010323
v 0.081073 -0.456668 0.010322
v 0.121745 -0.064893 0.018200
v 0.112103 -0.060228 -0.013979
v 0.112103 -0.060228 0.013979
v 0.082811 -0.000000 -0.027959
v 0.112103 -0.060228 -0.013979
v 0.089535 -0.068999 -0.027959
v -0.043096 -0.518891 -0.010885
v 0.067652 -0.445409 -0.020645
v 0.081073 -0.456668 -0.010323
v 0.066966 -0.077769 0.013979
v 0.092009 -0.075504 0.036930
v 0.089535 -0.068999 0.027959
v 0.104982 -0.000000 -0.013979
v 0.112103 -0.060228 0.013979
v 0.112103 -0.060228 -0.013979
v 0.054230 -0.434150 -0.010323
v -0.072074 -0.494385 0.011780
v 0.054230 -0.434150 0.010322
v 0.157876 -0.278451 0.015386
v 0.166193 -0.283303 -0.010273
v 0.166193 -0.283303 0.010273
v 0.082811 -0.000000 0.027959
v 0.112103 -0.060228 0.013979
v 0.104982 -0.000000 0.013979
v -0.145964 -0.700909 0.010322
v -0.043096 -0.518891 -0.010885
v 0.184532 -0.278252 0.029722
v 0.166193 -0.283303 0.010273
v 0.183937 -0.284627 0.020545
v 0.066966 -0.077769 0.013979
v 0.089535 -0.068999 0.027959
v 0.184532 -0.278252 -0.029722
v 0.183937 -0.284627 -0.020545
v 0.054230 -0.434150 0.010322
v -0.057732 -0.507819 0.023155
v 0.067652 -0.445409 0.020645
v 0.045991 -0.000000 -0.013979
v 0.066966 -0.077769 0.013979
v 0.045991 -0.000000 0.013979
v -0.043096 -0.518891 0.010885
v 0.081073 -0.456668 0.010322
v 0.209254 -0.278214 -0.014275
v 0.201680 -0.285950 0.010273
v 0.201680 -0.285950 -0.010273
v 0.066966 -0.077769 -0.013979
v 0.045991 -0.000000 -0.013979
v -0.057732 -0.507819 -0.023155
v 0.054230 -0.434150 -0.010323
v 0.136935 -0.345601 -0.010323
v 0.151504 -0.355492 -0.020645
v 0.151504 -0.355492 0.020645
v 0.166072 -0.365384 0.010322
v 0.136935 -0.345601 0.010322
v 0.136935 -0.345601 0.010322
v 0.136935 -0.345601 -0.010323
v 0.166072 -0.365384 -0.010323
v 0.166072 -0.365384 -0.010323
v 0.166072 -0.365384 0.010322
v -0.194570 -0.817044 0.012706
v -0.160938 -0.691140 0.020645
v -0.175913 -0.681371 0.010322
v -0.072074 -0.494385 0.011780
v -0.175913 -0.681371 -0.010323
v -0.072074 -0.494385 -0.011780
v -0.160938 -0.691140 -0.020645
v -0.175913 -0.681371 -0.010323
v -0.072074 -0.494385 -0.011780
v -0.194570 -0.817044 0.012706
v -0.194570 -0.817044 -0.012706
v -0.162072 -0.843904 -0.025413
v -0.194570 -0.817044 -0.012706
v -0.145964 -0.700909 -0.010323
v -0.162072 -0.843904 -0.025413
v -0.162072 -0.843904 0.025413
v -0.145964 -0.700909 0.010322
v -0.194570 -0.817044 0.012706
v -0.175913 -0.681371 0.010322
v -0.144386 -0.850000 0.012706
v -0.145964 -0.700909 -0.010323
v 0.199533 -0.193127 -0.014502
v 0.184532 -0.278252 -0.029722
v 0.174547 -0.192614 -0.029766
v 0.174547 -0.192614 -0.029766
v 0.157876 -0.278451 -0.015386
v 0.148332 -0.192060 -0.015204
v 0.209254 -0.278214 0.014274
v 0.199533 -0.193127 -0.014502
v 0.199533 -0.193127 0.014502
v 0.157876 -0.278451 -0.015386
v 0.148332 -0.192060 0.015204
v 0.148332 -0.192060 -0.015204
v 0.157876 -0.278451 0.015386
v 0.174547 -0.192614 0.029766
v 0.148332 -0.192060 0.015204
v 0.199533 -0.193127 0.014502
v 0.209254 -0.278214 0.014274
v 0.201680 -0.285950 0.010273
v 0.121745 -0.064893 -0.018200
v 0.092009 -0.075504 -0.036930
v 0.066966 -0.077769 -0.013979
v 0.089535 -0.068999 -0.027959
v 0.061500 -0.086352 -0.018657
v -0.182798 -0.839007 0.000108
v -0.172654 -0.754648 0.000108
v -0.182798 -0.754648 0.000108
v -0.172654 -0.079774 0.000108
v -0.172654 -0.000000 0.000108
v -0.182798 -0.079774 0.000108
v -0.172654 -0.164133 0.000108
v -0.182798 -0.164133 0.000108
v -0.172654 -0.248492 0.000108
v -0.182798 -0.248492 0.000108
v -0.172654 -0.332851 0.000108
v -0.182798 -0.332851 0.000108
v -0.172654 -0.417210 0.000108
v -0.182798 -0.417211 0.000108
v -0.172654 -0.501570 0.000108
v -0.182798 -0.501570 0.000108
v -0.172654 -0.585929 0.000108
v -0.182798 -0.585929 0.000108
v -0.172654 -0.670288 0.000108
v -0.182798 -0.670288 0.000108
v 0.201680 -0.285950 -0.010273
v 0.201680 -0.285950 0.010273
v 0.183937 -0.284627 -0.020545
v 0.201680 -0.285950 -0.010273
v 0.166193 -0.283303 0.010273
v 0.166193 -0.283303 -0.010273
v 0.166193 -0.283303 -0.010273
v 0.121745 -0.064893 0.018200
v 0.092009 -0.075504 0.036930
v 0.061500 -0.086352 0.018657
v 0.061500 -0.086352 0.018657
v 0.061500 -0.086352 -0.018657
v 0.121745 -0.064893 -0.018200
v 0.121745 -0.064893 0.018200
v 0.092009 -0.075504 -0.036930
v 0.061500 -0.086352 -0.018657
v 0.092009 -0.075504 -0.036930
v 0.121745 0.064893 -0.018200
v 0.112103 0.060228 -0.013979
v 0.089535 0.068999 0.027959
v 0.066966 0.077769 -0.013979
v 0.209254 0.278214 0.014274
v 0.082811 -0.000000 -0.027959
v 0.104982 -0.000000 -0.013979
v 0.104982 -0.000000 0.013979
v -0.072074 0.494385 -0.011780
v -0.144386 0.850000 -0.012706
v -0.194570 0.817044 -0.012706
v -0.194570 0.817044 0.012706
v -0.144386 0.850000 0.012706
v -0.194570 0.817044 0.012706
v -0.144386 0.850000 -0.012706
v 0.209254 0.278214 -0.014275
v 0.157876 0.278451 0.015386
v 0.092009 0.075504 -0.036930
v -0.172654 0.839007 0.000108
v 0.166193 0.283303 0.010273
v 0.061500 0.086352 0.018657
v 0.121745 0.064893 -0.018200
v 0.061500 0.086352 -0.018657
v 0.121745 -0.064893 -0.018200
v 0.104982 -0.000000 -0.013979
v 0.061500 -0.086352 0.018657
v 0.104982 -0.000000 0.013979
v 0.045991 -0.000000 0.013979
v 0.066966 -0.077769 -0.013979
v 0.209254 -0.278214 0.014274
v -0.144386 -0.850000 -0.012706
v -0.144386 -0.850000 0.012706
v -0.162072 -0.843904 0.025413
v -0.144386 -0.850000 -0.012706
v -0.144386 -0.850000 0.012706
v -0.194570 -0.817044 -0.012706
v -0.144386 -0.850000 -0.012706
v 0.209254 -0.278214 -0.014275
v 0.209254 -0.278214 -0.014275
v 0.157876 -0.278451 0.015386
v -0.172654 -0.839007 0.000108
vt 0.388416 0.531982
vt 0.407913 0.683805
vt 0.407913 0.531982
vt 0.215649 0.311694
vt 0.208669 0.342084
vt 0.215649 0.338098
vt 0.747442 0.628277
vt 0.764121 0.728151
vt 0.773628 0.624904
vt 0.477015 0.542683
vt 0.470244 0.691825
vt 0.495637 0.546121
vt 0.261379 0.338098
vt 0.238482 0.359772
vt 0.269057 0.342515
vt 0.844738 0.849858
vt 0.869094 0.956975
vt 0.871137 0.850364
vt 0.509285 0.540378
vt 0.528782 0.683060
vt 0.528782 0.540378
vt 0.425864 0.360508
vt 0.416493 0.376620
vt 0.423979 0.376497
vt 0.662647 0.956975
vt 0.643408 0.855313
vt 0.620998 0.858730
vt 0.388416 0.683805
vt 0.407913 0.822405
vt 0.147414 0.366338
vt 0.129890 0.361004
vt 0.130422 0.367121
vt 0.705966 0.942327
vt 0.681138 0.849560
vt 0.445511 0.345706
vt 0.419316 0.352673
vt 0.149748 0.518184
vt 0.159280 0.676967
vt 0.174597 0.669653
vt 0.786060 0.518115
vt 0.812464 0.422794
vt 0.786060 0.422794
vt 0.133593 0.522233
vt 0.144223 0.684406
vt 0.456659 0.383585
vt 0.467146 0.361690
vt 0.458544 0.367596
vt 0.724278 0.722699
vt 0.721177 0.628119
vt 0.261477 0.261222
vt 0.248275 0.223908
vt 0.221871 0.223908
vt 0.466778 0.533651
vt 0.452408 0.685418
vt 0.468526 0.461943
vt 0.479156 0.469491
vt 0.132008 0.444677
vt 0.117698 0.526406
vt 0.148581 0.442261
vt 0.509285 0.466451
vt 0.528782 0.466451
vt 0.498171 0.471444
vt 0.388416 0.454105
vt 0.407913 0.454105
vt 0.185472 0.826444
vt 0.162821 0.947441
vt 0.202341 0.824298
vt 0.416493 0.815766
vt 0.427392 0.823101
vt 0.446676 0.824842
vt 0.509285 0.683060
vt 0.528782 0.828229
vt 0.334949 0.283360
vt 0.344814 0.301027
vt 0.374585 0.283360
vt 0.450050 0.938783
vt 0.479683 0.956975
vt 0.500706 0.954180
vt 0.168864 0.828714
vt 0.124024 0.956975
vt 0.509285 0.828229
vt 0.531033 0.956975
vt 0.388416 0.822405
vt 0.410164 0.956975
vt 0.753580 0.846926
vt 0.712294 0.951068
vt 0.739167 0.956975
vt 0.447029 0.279303
vt 0.622819 0.395155
vt 0.651732 0.510496
vt 0.653553 0.395155
vt 0.564696 0.362489
vt 0.595406 0.472197
vt 0.596915 0.362489
vt 0.149462 0.250177
vt 0.155352 0.361897
vt 0.177147 0.254359
vt 0.123489 0.246371
vt 0.443146 0.356058
vt 0.106636 0.360490
vt 0.113690 0.368029
vt 0.737727 0.727590
vt 0.767994 0.736878
vt 0.261379 0.311694
vt 0.238482 0.290019
vt 0.238514 0.298492
vt 0.269057 0.307276
vt 0.238514 0.351300
vt 0.001978 0.948220
vt 0.007966 0.998022
vt 0.007966 0.948220
vt 0.007966 0.500000
vt 0.001978 0.549802
vt 0.007966 0.549802
vt 0.001978 0.599604
vt 0.007966 0.599604
vt 0.001978 0.649407
vt 0.007966 0.649407
vt 0.001978 0.699209
vt 0.007966 0.699209
vt 0.001978 0.749011
vt 0.007966 0.749011
vt 0.001978 0.798813
vt 0.007966 0.798813
vt 0.001978 0.848615
vt 0.007966 0.848615
vt 0.001978 0.898418
vt 0.007966 0.898418
vt 0.388416 0.376227
vt 0.407913 0.376227
vt 0.481297 0.396299
vt 0.500706 0.396767
vt 0.528782 0.392524
vt 0.115694 0.447217
vt 0.470274 0.390236
vt 0.140342 0.132252
vt 0.169035 0.139349
vt 0.198942 0.146820
vt 0.598425 0.252781
vt 0.655375 0.279813
vt 0.448547 0.212899
vt 0.417904 0.289142
vt 0.722834 0.843239
vt 0.407913 0.683805
vt 0.388416 0.531982
vt 0.407913 0.531982
vt 0.208669 0.342084
vt 0.215649 0.311694
vt 0.215649 0.338098
vt 0.747442 0.628277
vt 0.764121 0.728151
vt 0.737727 0.727590
vt 0.470244 0.691825
vt 0.477015 0.542683
vt 0.495637 0.546121
vt 0.261379 0.338098
vt 0.238482 0.359772
vt 0.238514 0.351300
vt 0.844738 0.849858
vt 0.869094 0.956975
vt 0.842694 0.956469
vt 0.528782 0.540378
vt 0.509285 0.683060
vt 0.509285 0.540378
vt 0.416493 0.376620
vt 0.425864 0.360508
vt 0.423979 0.376497
vt 0.643408 0.855313
vt 0.662647 0.956975
vt 0.620998 0.858730
vt 0.407913 0.822405
vt 0.388416 0.683805
vt 0.129890 0.361004
vt 0.147414 0.366338
vt 0.130422 0.367121
vt 0.705966 0.942327
vt 0.684114 0.949681
vt 0.445511 0.345706
vt 0.443146 0.356058
vt 0.149748 0.518184
vt 0.159280 0.676967
vt 0.133593 0.522233
vt 0.812464 0.422794
vt 0.786060 0.518115
vt 0.786060 0.422794
vt 0.144223 0.684406
vt 0.117698 0.526406
vt 0.467146 0.361690
vt 0.456659 0.383585
vt 0.458544 0.367596
vt 0.724278 0.722699
vt 0.721177 0.628119
vt 0.452408 0.685418
vt 0.466778 0.533651
vt 0.468526 0.461943
vt 0.479156 0.469491
vt 0.132008 0.444677
vt 0.115694 0.447217
vt 0.148581 0.442261
vt 0.509285 0.466451
vt 0.528782 0.466451
vt 0.498171 0.471444
vt 0.388416 0.454105
vt 0.407913 0.454105
vt 0.162821 0.947441
vt 0.185472 0.826444
vt 0.202341 0.824298
vt 0.174597 0.669653
vt 0.416493 0.815766
vt 0.442956 0.673416
vt 0.427392 0.823101
vt 0.528782 0.828229
vt 0.528782 0.683060
vt 0.352837 0.246141
vt 0.372655 0.246141
vt 0.374585 0.283360
vt 0.450050 0.938783
vt 0.446676 0.824842
vt 0.479683 0.956975
vt 0.124024 0.956975
vt 0.168864 0.828714
vt 0.507034 0.956975
vt 0.509285 0.828229
vt 0.410164 0.956975
vt 0.388416 0.822405
vt 0.753580 0.846926
vt 0.712294 0.951068
vt 0.722834 0.843239
vt 0.447029 0.279303
vt 0.419316 0.352673
vt 0.417904 0.289142
vt 0.651732 0.510496
vt 0.622819 0.395155
vt 0.653553 0.395155
vt 0.595406 0.472197
vt 0.564696 0.362489
vt 0.596915 0.362489
vt 0.155352 0.361897
vt 0.149462 0.250177
vt 0.177147 0.254359
vt 0.123489 0.246371
vt 0.106636 0.360490
vt 0.113690 0.368029
vt 0.767994 0.736878
vt 0.238482 0.290019
vt 0.261379 0.311694
vt 0.238514 0.298492
vt 0.269057 0.307276
vt 0.007966 0.998022
vt 0.001978 0.948220
vt 0.007966 0.948220
vt 0.001978 0.549802
vt 0.001978 0.500000
vt 0.007966 0.549802
vt 0.001978 0.599604
vt 0.007966 0.599604
vt 0.001978 0.649407
vt 0.007966 0.649407
vt 0.001978 0.699209
vt 0.007966 0.699209
vt 0.001978 0.749011
vt 0.007966 0.749011
vt 0.001978 0.798813
vt 0.007966 0.798813
vt 0.001978 0.848615
vt 0.007966 0.848615
vt 0.001978 0.898418
vt 0.007966 0.898418
vt 0.388416 0.376227
vt 0.407913 0.376227
vt 0.481297 0.396299
vt 0.500706 0.396767
vt 0.509285 0.392524
vt 0.528782 0.392524
vt 0.470274 0.390236
vt 0.140342 0.132252
vt 0.169035 0.139349
vt 0.198942 0.146820
vt 0.563186 0.252781
vt 0.598425 0.252781
vt 0.620998 0.279813
vt 0.655375 0.279813
vt 0.448547 0.212899
vt 0.416493 0.225612
vt 0.733374 0.735411
vt 0.208669 0.307707
vt 0.842694 0.956469
vt 0.684114 0.949681
vt 0.812464 0.518115
vt 0.464526 0.383907
vt 0.208669 0.261222
vt 0.221871 0.283691
vt 0.248275 0.283691
vt 0.442956 0.673416
vt 0.364632 0.301027
vt 0.372655 0.246141
vt 0.352837 0.246141
vt 0.106636 0.955026
vt 0.507034 0.956975
vt 0.386165 0.956975
vt 0.624641 0.510496
vt 0.566205 0.472197
vt 0.733374 0.735411
vt 0.001978 0.998022
vt 0.509285 0.392524
vt 0.563186 0.252781
vt 0.620998 0.279813
vt 0.416493 0.225612
vt 0.208669 0.307707
vt 0.773628 0.624904
vt 0.269057 0.342515
vt 0.871137 0.850364
vt 0.681138 0.849560
vt 0.812464 0.518115
vt 0.464526 0.383907
vt 0.364632 0.301027
vt 0.344814 0.301027
vt 0.334949 0.283360
vt 0.500706 0.954180
vt 0.106636 0.955026
vt 0.531033 0.956975
vt 0.386165 0.956975
vt 0.739167 0.956975
vt 0.624641 0.510496
vt 0.566205 0.472197
vt 0.001978 0.998022
vn 0.534308 0.703161 -0.469126
vn 0.585746 0.629106 0.511006
vn 0.534307 0.703161 0.469127
vn 0.617426 -0.619142 -0.485230
vn 0.569328 -0.679068 0.463392
vn 0.617419 -0.619154 0.485225
vn 0.046928 -0.357360 -0.932787
vn 0.617426 -0.619142 -0.485230
vn 0.810650 -0.353835 -0.466527
vn 0.030196 0.054972 -0.998031
vn 0.585747 0.629107 -0.511004
vn 0.534308 0.703161 -0.469126
vn -0.855742 -0.314766 0.410644
vn -0.165599 -0.320422 0.932688
vn -0.886867 0.022565 0.461474
vn 0.810650 -0.353835 -0.466527
vn 0.617419 -0.619154 0.485225
vn 0.809319 -0.357876 0.465754
vn -0.497549 -0.698405 0.514466
vn -0.608193 -0.644532 -0.463337
vn -0.497548 -0.698405 -0.514467
vn -0.740444 0.462978 -0.487232
vn -0.734925 0.502967 0.454873
vn -0.740452 0.462976 0.487221
vn 0.617419 -0.619154 0.485225
vn 0.046929 -0.357360 0.932787
vn 0.809319 -0.357876 0.465754
vn 0.585747 0.629107 -0.511004
vn 0.833446 0.189013 0.519270
vn -0.740452 0.462976 0.487221
vn 0.046900 0.416425 0.907960
vn 0.034701 0.541598 0.839921
vn -0.855742 -0.314766 0.410644
vn -0.794869 -0.360076 0.488393
vn 0.046901 0.416425 -0.907960
vn -0.734917 0.502970 -0.454883
vn -0.497549 -0.698405 0.514466
vn -0.035157 -0.057827 0.997707
vn -0.608193 -0.644533 0.463334
vn -0.855742 -0.314766 0.410644
vn -0.799829 -0.344392 -0.491598
vn -0.794869 -0.360076 0.488393
vn 0.030195 0.054972 0.998031
vn 0.585746 0.629106 0.511006
vn 0.689402 0.603185 0.401114
vn 0.827692 0.328288 -0.455140
vn 0.689400 0.603187 -0.401116
vn -0.855748 -0.314764 -0.410632
vn -0.799829 -0.344392 -0.491598
vn 0.028816 -0.370883 0.928233
vn -0.801537 -0.375019 0.465724
vn -0.801517 -0.375019 -0.465759
vn -0.497548 -0.698405 -0.514467
vn -0.035156 -0.057827 -0.997707
vn -0.707378 -0.479014 -0.519770
vn 0.043354 0.026629 -0.998705
vn 0.043354 0.026629 0.998705
vn 0.534307 0.703161 0.469127
vn -0.707374 -0.479013 0.519778
vn -0.707374 -0.479013 0.519778
vn -0.707378 -0.479014 -0.519770
vn 0.732615 0.486836 -0.475674
vn 0.732615 0.486836 -0.475674
vn 0.732613 0.486837 0.475677
vn -0.067594 -0.025972 0.997375
vn -0.836105 0.276799 0.473614
vn -0.835683 -0.286391 0.468630
vn -0.835684 -0.286392 -0.468628
vn -0.067594 -0.025972 -0.997375
vn 0.833446 0.189012 -0.519271
vn -0.608193 -0.644533 0.463334
vn -0.835684 -0.286392 -0.468628
vn -0.125102 0.615577 0.778084
vn 0.579600 0.722059 0.377749
vn -0.125111 0.615580 -0.778080
vn -0.836103 0.276803 -0.473617
vn -0.125111 0.615580 -0.778080
vn 0.579594 0.722066 -0.377746
vn 0.833446 0.189013 0.519270
vn -0.125102 0.615577 0.778084
vn -0.835683 -0.286391 0.468630
vn -0.836103 0.276803 -0.473617
vn 0.833446 0.189012 -0.519271
vn 0.579600 0.722059 0.377749
vn 0.848457 -0.275429 -0.451951
vn 0.046901 0.416425 -0.907960
vn 0.827692 0.328288 -0.455140
vn 0.097151 -0.038117 -0.994539
vn 0.848457 -0.275429 -0.451951
vn 0.827686 0.328289 0.455151
vn 0.848462 -0.275428 0.451942
vn -0.773684 0.355922 0.524150
vn -0.734917 0.502970 -0.454883
vn -0.773690 0.355921 -0.524142
vn 0.097151 -0.038117 0.994539
vn -0.734925 0.502967 0.454873
vn -0.773684 0.355922 0.524150
vn 0.848462 -0.275428 0.451942
vn 0.034701 0.541597 -0.839922
vn 0.827686 0.328289 0.455151
vn 0.689402 0.603185 0.401114
vn -0.213605 -0.466821 -0.858167
vn 0.569333 -0.679065 -0.463390
vn -0.855748 -0.314764 -0.410632
vn -0.165599 -0.320423 -0.932688
vn -0.213605 -0.466821 -0.858167
vn -0.886865 0.022546 -0.461478
vn -0.213605 -0.466821 0.858167
vn -0.000000 0.000000 1.000000
vn -0.000000 0.000000 1.000000
vn -0.000000 0.000000 1.000000
vn -0.000000 0.000000 1.000000
vn -0.000000 0.000000 1.000000
vn -0.000000 0.000000 1.000000
vn -0.000000 0.000000 1.000000
vn -0.000000 0.000000 1.000000
vn -0.000000 0.000000 1.000000
vn -0.000000 0.000000 1.000000
vn -0.000000 0.000000 1.000000
vn -0.000000 0.000000 1.000000
vn -0.000000 0.000000 1.000000
vn -0.000000 0.000000 1.000000
vn -0.000000 0.000000 1.000000
vn -0.000000 0.000000 1.000000
vn -0.000000 0.000000 1.000000
vn -0.000000 0.000000 1.000000
vn -0.000000 0.000000 1.000000
vn -0.000000 0.000000 1.000000
vn 0.689400 0.603187 -0.401116
vn 0.689402 0.603185 0.401114
vn 0.034701 0.541597 -0.839922
vn 0.689400 0.603187 -0.401116
vn -0.740444 0.462978 -0.487232
vn 0.732613 0.486837 0.475677
vn -0.740444 0.462978 -0.487232
vn 0.569328 -0.679068 0.463392
vn -0.165599 -0.320422 0.932688
vn -0.886867 0.022565 0.461474
vn -0.886865 0.022546 -0.461478
vn 0.569328 -0.679068 0.463392
vn -0.165599 -0.320423 -0.932688
vn -0.773690 0.355921 -0.524142
vn 0.097151 -0.038117 -0.994539
vn 0.585746 -0.629106 0.511006
vn 0.534308 -0.703161 -0.469126
vn 0.534307 -0.703161 0.469127
vn 0.569333 0.679067 0.463387
vn 0.617426 0.619141 -0.485230
vn 0.617419 0.619154 0.485225
vn 0.046975 -0.363287 -0.930492
vn 0.617426 0.619141 -0.485230
vn -0.213605 0.466821 -0.858167
vn 0.585747 -0.629107 -0.511004
vn 0.030196 -0.054972 -0.998031
vn 0.534308 -0.703161 -0.469126
vn -0.855742 0.314766 0.410644
vn -0.165599 0.320422 0.932688
vn -0.213605 0.466821 0.858167
vn 0.813613 -0.343805 -0.468862
vn 0.617419 0.619154 0.485225
vn 0.617426 0.619141 -0.485230
vn -0.497547 0.698405 -0.514468
vn -0.608194 0.644531 0.463336
vn -0.497549 0.698405 0.514466
vn -0.734925 -0.502967 0.454873
vn -0.740452 -0.462968 -0.487228
vn -0.740444 -0.462986 0.487224
vn 0.046976 -0.363287 0.930492
vn 0.617419 0.619154 0.485225
vn 0.811316 -0.350881 0.467599
vn 0.833446 -0.189013 0.519270
vn 0.585747 -0.629107 -0.511004
vn 0.046900 -0.416425 0.907960
vn -0.740444 -0.462986 0.487224
vn 0.034701 -0.541598 0.839921
vn -0.855742 0.314766 0.410644
vn -0.213605 0.466821 0.858167
vn 0.046901 -0.416425 -0.907960
vn 0.034701 -0.541597 -0.839922
vn -0.497549 0.698405 0.514466
vn -0.035157 0.057827 0.997707
vn 0.030195 -0.054972 0.998031
vn -0.784063 -0.382694 -0.488662
vn -0.855742 0.314766 0.410644
vn -0.782448 -0.387188 0.487710
vn 0.585746 -0.629106 0.511006
vn 0.534307 -0.703161 0.469127
vn 0.827692 -0.328288 -0.455140
vn 0.689402 -0.603185 0.401114
vn 0.689400 -0.603187 -0.401116
vn -0.855748 0.314764 -0.410632
vn -0.784063 -0.382694 -0.488662
vn -0.035156 0.057827 -0.997707
vn -0.497547 0.698405 -0.514468
vn -0.707374 0.479014 -0.519776
vn 0.043354 -0.026629 -0.998705
vn 0.043354 -0.026629 0.998705
vn 0.732613 -0.486837 0.475677
vn -0.707378 0.479013 0.519772
vn -0.707378 0.479013 0.519772
vn -0.707374 0.479014 -0.519776
vn 0.732615 -0.486836 -0.475674
vn 0.732615 -0.486836 -0.475674
vn 0.732613 -0.486837 0.475677
vn -0.836103 -0.276801 0.473617
vn -0.067594 0.025972 0.997375
vn -0.835683 0.286391 0.468630
vn -0.608194 0.644531 0.463336
vn -0.835684 0.286392 -0.468628
vn -0.608192 0.644533 -0.463335
vn -0.067594 0.025972 -0.997375
vn -0.835684 0.286392 -0.468628
vn -0.608192 0.644533 -0.463335
vn -0.836103 -0.276801 0.473617
vn -0.836105 -0.276800 -0.473614
vn -0.125111 -0.615580 -0.778080
vn -0.836105 -0.276800 -0.473614
vn 0.833446 -0.189012 -0.519271
vn -0.125111 -0.615580 -0.778080
vn -0.125102 -0.615577 0.778084
vn 0.833446 -0.189013 0.519270
vn -0.836103 -0.276801 0.473617
vn -0.835683 0.286391 0.468630
vn 0.579600 -0.722059 0.377749
vn 0.833446 -0.189012 -0.519271
vn 0.848458 0.275430 -0.451949
vn 0.046901 -0.416425 -0.907960
vn 0.097151 0.038117 -0.994539
vn 0.097151 0.038117 -0.994539
vn -0.734917 -0.502970 -0.454883
vn -0.773689 -0.355919 -0.524144
vn 0.827686 -0.328289 0.455151
vn 0.848458 0.275430 -0.451949
vn 0.848461 0.275427 0.451944
vn -0.734917 -0.502970 -0.454883
vn -0.773684 -0.355924 0.524148
vn -0.773689 -0.355919 -0.524144
vn -0.734925 -0.502967 0.454873
vn 0.097151 0.038117 0.994539
vn -0.773684 -0.355924 0.524148
vn 0.848461 0.275427 0.451944
vn 0.827686 -0.328289 0.455151
vn 0.689402 -0.603185 0.401114
vn 0.569328 0.679066 -0.463396
vn -0.165599 0.320423 -0.932688
vn -0.855748 0.314764 -0.410632
vn -0.213605 0.466821 -0.858167
vn -0.886869 -0.022560 -0.461470
vn -0.000000 0.000000 1.000000
vn -0.000000 0.000000 1.000000
vn -0.000000 0.000000 1.000000
vn -0.000000 0.000000 1.000000
vn -0.000000 0.000000 1.000000
vn -0.000000 0.000000 1.000000
vn -0.000000 0.000000 1.000000
vn -0.000000 0.000000 1.000000
vn -0.000000 0.000000 1.000000
vn -0.000000 0.000000 1.000000
vn -0.000000 0.000000 1.000000
vn -0.000000 0.000000 1.000000
vn -0.000000 0.000000 1.000000
vn -0.000000 0.000000 1.000000
vn -0.000000 0.000000 1.000000
vn -0.000000 0.000000 1.000000
vn -0.000000 0.000000 1.000000
vn -0.000000 0.000000 1.000000
vn -0.000000 0.000000 1.000000
vn -0.000000 0.000000 1.000000
vn 0.689400 -0.603187 -0.401116
vn 0.689402 -0.603185 0.401114
vn 0.034701 -0.541597 -0.839922
vn 0.689400 -0.603187 -0.401116
vn -0.740444 -0.462986 0.487224
vn -0.740452 -0.462968 -0.487228
vn -0.740452 -0.462968 -0.487228
vn 0.569333 0.679067 0.463387
vn -0.165599 0.320422 0.932688
vn -0.886863 -0.022551 0.461481
vn -0.886863 -0.022551 0.461481
vn -0.886869 -0.022560 -0.461470
vn 0.569328 0.679066 -0.463396
vn 0.569333 0.679067 0.463387
vn -0.165599 0.320423 -0.932688
vn -0.886869 -0.022560 -0.461470
vn -0.165599 0.320423 -0.932688
vn 0.569333 -0.679065 -0.463390
vn 0.617426 -0.619142 -0.485230
vn -0.213605 -0.466821 0.858167
vn -0.855748 -0.314764 -0.410632
vn 0.827686 0.328289 0.455151
vn 0.028797 -0.370883 -0.928233
vn 0.807082 -0.354263 -0.472352
vn 0.807139 -0.354263 0.472254
vn -0.608193 -0.644532 -0.463337
vn 0.579594 0.722066 -0.377746
vn -0.836103 0.276803 -0.473617
vn -0.836105 0.276799 0.473614
vn 0.579600 0.722059 0.377749
vn -0.836105 0.276799 0.473614
vn 0.579594 0.722066 -0.377746
vn 0.827692 0.328288 -0.455140
vn -0.734925 0.502967 0.454873
vn -0.165599 -0.320423 -0.932688
vn -0.000000 0.000000 1.000000
vn -0.740452 0.462976 0.487221
vn -0.886867 0.022565 0.461474
vn 0.569333 -0.679065 -0.463390
vn -0.886865 0.022546 -0.461478
vn 0.569328 0.679066 -0.463396
vn 0.813613 -0.343805 -0.468862
vn -0.886863 -0.022551 0.461481
vn 0.811316 -0.350881 0.467599
vn -0.782448 -0.387188 0.487710
vn -0.855748 0.314764 -0.410632
vn 0.827686 -0.328289 0.455151
vn 0.579594 -0.722066 -0.377746
vn 0.579600 -0.722059 0.377749
vn -0.125102 -0.615577 0.778084
vn 0.579594 -0.722066 -0.377746
vn 0.579600 -0.722059 0.377749
vn -0.836105 -0.276800 -0.473614
vn 0.579594 -0.722066 -0.377746
vn 0.827692 -0.328288 -0.455140
vn 0.827692 -0.328288 -0.455140
vn -0.734925 -0.502967 0.454873
vn -0.000000 0.000000 1.000000
f 1/1/1 2/2/2 3/3/3
f 4/4/4 5/5/5 6/6/6
f 7/7/7 8/8/8 9/9/9
f 10/10/10 11/11/11 12/12/12
f 13/13/13 14/14/14 15/15/15
f 16/16/16 17/17/17 18/18/18
f 19/19/19 20/20/20 21/21/21
f 22/22/22 23/23/23 24/24/24
f 25/25/25 26/26/26 27/27/27
f 28/28/28 29/29/29 2/2/2
f 30/30/30 31/31/31 32/32/32
f 26/26/26 33/33/33 34/34/34
f 22/22/22 35/35/35 36/36/36
f 37/37/37 38/38/38 39/39/39
f 40/40/40 41/41/41 42/42/42
f 43/43/43 44/44/44 38/38/38
f 45/45/45 46/46/46 47/47/47
f 48/48/48 7/7/7 49/49/49
f 50/50/50 51/51/51 52/52/52
f 53/53/53 54/54/54 10/10/10
f 55/55/55 10/10/10 56/56/56
f 57/57/57 58/58/58 43/43/43
f 59/59/59 43/43/43 37/37/37
f 60/60/60 21/21/21 61/61/61
f 56/56/56 12/12/12 62/62/62
f 63/63/63 3/3/3 64/64/64
f 65/65/65 66/66/66 67/67/67
f 38/38/38 67/67/67 39/39/39
f 54/54/54 68/68/68 69/69/69
f 11/11/11 69/69/69 70/70/70
f 44/44/44 65/65/65 38/38/38
f 71/71/71 72/72/72 20/20/20
f 73/73/73 74/74/74 75/75/75
f 69/69/69 76/76/76 77/77/77
f 70/70/70 77/77/77 78/78/78
f 79/79/79 80/80/80 65/65/65
f 81/81/81 82/82/82 72/72/72
f 83/83/83 84/84/84 29/29/29
f 85/85/85 86/86/86 87/87/87
f 88/88/88 36/36/36 35/35/35
f 89/89/89 90/90/90 91/91/91
f 92/92/92 93/93/93 94/94/94
f 95/95/95 96/96/96 97/97/97
f 98/98/98 31/31/31 95/95/95
f 99/99/99 46/46/46 35/35/35
f 32/32/32 100/100/100 101/101/101
f 102/102/102 103/103/103 8/8/8
f 104/104/104 105/105/105 106/106/106
f 13/13/13 107/107/107 104/104/104
f 108/108/108 5/5/5 14/14/14
f 109/109/109 110/110/110 111/111/111
f 112/112/112 113/113/113 114/114/114
f 114/114/114 115/115/115 116/116/116
f 116/116/116 117/117/117 118/118/118
f 118/118/118 119/119/119 120/120/120
f 120/120/120 121/121/121 122/122/122
f 122/122/122 123/123/123 124/124/124
f 124/124/124 125/125/125 126/126/126
f 126/126/126 127/127/127 128/128/128
f 128/128/128 109/109/109 111/111/111
f 129/129/129 64/64/64 130/130/130
f 131/131/131 62/62/62 132/132/132
f 133/133/133 60/60/60 61/61/61
f 30/30/30 57/57/57 59/59/59
f 32/32/32 134/134/134 57/57/57
f 135/135/135 56/56/56 131/131/131
f 136/136/136 95/95/95 137/137/137
f 137/137/137 97/97/97 138/138/138
f 139/139/139 92/92/92 94/94/94
f 140/140/140 89/89/89 91/91/91
f 141/141/141 142/142/142 88/88/88
f 103/103/103 143/143/143 85/85/85
f 144/144/144 145/145/145 146/146/146
f 147/147/147 148/148/148 149/149/149
f 150/150/150 151/151/151 152/152/152
f 153/153/153 154/154/154 155/155/155
f 156/156/156 157/157/157 158/158/158
f 159/159/159 160/160/160 161/161/161
f 162/162/162 163/163/163 164/164/164
f 165/165/165 166/166/166 167/167/167
f 168/168/168 169/169/169 170/170/170
f 171/171/171 172/172/172 144/144/144
f 173/173/173 174/174/174 175/175/175
f 168/168/168 176/176/176 177/177/177
f 166/166/166 178/178/178 179/179/179
f 180/180/180 181/181/181 182/182/182
f 183/183/183 184/184/184 185/185/185
f 182/182/182 186/186/186 187/187/187
f 188/188/188 189/189/189 190/190/190
f 150/150/150 191/191/191 192/192/192
f 193/193/193 194/194/194 154/154/154
f 154/154/154 195/195/195 196/196/196
f 197/197/197 187/187/187 198/198/198
f 199/199/199 182/182/182 197/197/197
f 162/162/162 200/200/200 201/201/201
f 155/155/155 196/196/196 202/202/202
f 146/146/146 203/203/203 204/204/204
f 205/205/205 206/206/206 207/207/207
f 207/207/207 181/181/181 208/208/208
f 193/193/193 209/209/209 210/210/210
f 153/153/153 211/211/211 193/193/193
f 206/206/206 186/186/186 181/181/181
f 212/212/212 163/163/163 213/213/213
f 214/214/214 215/215/215 216/216/216
f 211/211/211 217/217/217 209/209/209
f 218/218/218 219/219/219 211/211/211
f 220/220/220 221/221/221 206/206/206
f 212/212/212 222/222/222 223/223/223
f 224/224/224 225/225/225 171/171/171
f 226/226/226 227/227/227 228/228/228
f 229/229/229 230/230/230 231/231/231
f 232/232/232 233/233/233 234/234/234
f 235/235/235 236/236/236 237/237/237
f 238/238/238 239/239/239 240/240/240
f 173/173/173 241/241/241 239/239/239
f 179/179/179 188/188/188 190/190/190
f 242/242/242 175/175/175 243/243/243
f 244/244/244 152/152/152 151/151/151
f 245/245/245 246/246/246 247/247/247
f 248/248/248 156/156/156 246/246/246
f 158/158/158 147/147/147 149/149/149
f 249/249/249 250/250/250 251/251/251
f 112/112/112 252/252/252 253/253/253
f 254/254/254 255/255/255 252/252/252
f 256/256/256 257/257/257 255/255/255
f 258/258/258 259/259/259 257/257/257
f 260/260/260 261/261/261 259/259/259
f 262/262/262 263/263/263 261/261/261
f 264/264/264 265/265/265 263/263/263
f 266/266/266 267/267/267 265/265/265
f 268/268/268 250/250/250 267/267/267
f 204/204/204 269/269/269 270/270/270
f 202/202/202 271/271/271 272/272/272
f 201/201/201 273/273/273 274/274/274
f 174/174/174 197/197/197 175/175/175
f 175/175/175 198/198/198 243/243/243
f 196/196/196 275/275/275 271/271/271
f 239/239/239 276/276/276 277/277/277
f 240/240/240 277/277/277 278/278/278
f 237/237/237 279/279/279 280/280/280
f 234/234/234 281/281/281 282/282/282
f 283/283/283 231/231/231 284/284/284
f 244/244/244 228/228/228 285/285/285
f 1/1/1 28/28/28 2/2/2
f 4/4/4 286/286/286 5/5/5
f 7/7/7 102/102/102 8/8/8
f 10/10/10 54/54/54 11/11/11
f 13/13/13 108/108/108 14/14/14
f 16/16/16 287/287/287 17/17/17
f 19/19/19 71/71/71 20/20/20
f 22/22/22 36/36/36 23/23/23
f 25/25/25 288/288/288 26/26/26
f 28/28/28 83/83/83 29/29/29
f 30/30/30 96/96/96 31/31/31
f 26/26/26 288/288/288 33/33/33
f 22/22/22 99/99/99 35/35/35
f 37/37/37 43/43/43 38/38/38
f 40/40/40 289/289/289 41/41/41
f 43/43/43 58/58/58 44/44/44
f 45/45/45 290/290/290 46/46/46
f 48/48/48 102/102/102 7/7/7
f 52/52/52 291/291/291 50/50/50
f 291/291/291 292/292/292 50/50/50
f 292/292/292 293/293/293 50/50/50
f 53/53/53 294/294/294 54/54/54
f 55/55/55 53/53/53 10/10/10
f 57/57/57 134/134/134 58/58/58
f 59/59/59 57/57/57 43/43/43
f 60/60/60 19/19/19 21/21/21
f 56/56/56 10/10/10 12/12/12
f 63/63/63 1/1/1 3/3/3
f 65/65/65 80/80/80 66/66/66
f 38/38/38 65/65/65 67/67/67
f 54/54/54 294/294/294 68/68/68
f 11/11/11 54/54/54 69/69/69
f 44/44/44 79/79/79 65/65/65
f 71/71/71 81/81/81 72/72/72
f 74/74/74 295/295/295 75/75/75
f 75/75/75 296/296/296 297/297/297
f 297/297/297 73/73/73 75/75/75
f 69/69/69 68/68/68 76/76/76
f 70/70/70 69/69/69 77/77/77
f 79/79/79 298/298/298 80/80/80
f 81/81/81 299/299/299 82/82/82
f 83/83/83 300/300/300 84/84/84
f 85/85/85 143/143/143 86/86/86
f 88/88/88 142/142/142 36/36/36
f 89/89/89 301/301/301 90/90/90
f 92/92/92 302/302/302 93/93/93
f 95/95/95 31/31/31 96/96/96
f 98/98/98 100/100/100 31/31/31
f 99/99/99 47/47/47 46/46/46
f 32/32/32 31/31/31 100/100/100
f 102/102/102 303/303/303 103/103/103
f 104/104/104 107/107/107 105/105/105
f 13/13/13 15/15/15 107/107/107
f 108/108/108 6/6/6 5/5/5
f 109/109/109 304/304/304 110/110/110
f 112/112/112 253/253/253 113/113/113
f 114/114/114 113/113/113 115/115/115
f 116/116/116 115/115/115 117/117/117
f 118/118/118 117/117/117 119/119/119
f 120/120/120 119/119/119 121/121/121
f 122/122/122 121/121/121 123/123/123
f 124/124/124 123/123/123 125/125/125
f 126/126/126 125/125/125 127/127/127
f 128/128/128 127/127/127 109/109/109
f 129/129/129 63/63/63 64/64/64
f 131/131/131 56/56/56 62/62/62
f 133/133/133 305/305/305 60/60/60
f 30/30/30 32/32/32 57/57/57
f 32/32/32 101/101/101 134/134/134
f 135/135/135 55/55/55 56/56/56
f 136/136/136 98/98/98 95/95/95
f 137/137/137 95/95/95 97/97/97
f 139/139/139 306/306/306 92/92/92
f 140/140/140 307/307/307 89/89/89
f 141/141/141 308/308/308 142/142/142
f 103/103/103 303/303/303 143/143/143
f 144/144/144 172/172/172 145/145/145
f 147/147/147 309/309/309 148/148/148
f 150/150/150 310/310/310 151/151/151
f 153/153/153 193/193/193 154/154/154
f 156/156/156 311/311/311 157/157/157
f 159/159/159 312/312/312 160/160/160
f 162/162/162 213/213/213 163/163/163
f 165/165/165 230/230/230 166/166/166
f 168/168/168 177/177/177 169/169/169
f 171/171/171 225/225/225 172/172/172
f 173/173/173 238/238/238 174/174/174
f 168/168/168 313/313/313 176/176/176
f 166/166/166 230/230/230 178/178/178
f 180/180/180 208/208/208 181/181/181
f 183/183/183 314/314/314 184/184/184
f 182/182/182 181/181/181 186/186/186
f 188/188/188 315/315/315 189/189/189
f 150/150/150 152/152/152 191/191/191
f 193/193/193 210/210/210 194/194/194
f 154/154/154 194/194/194 195/195/195
f 197/197/197 182/182/182 187/187/187
f 199/199/199 180/180/180 182/182/182
f 162/162/162 164/164/164 200/200/200
f 155/155/155 154/154/154 196/196/196
f 146/146/146 145/145/145 203/203/203
f 205/205/205 220/220/220 206/206/206
f 207/207/207 206/206/206 181/181/181
f 193/193/193 211/211/211 209/209/209
f 153/153/153 218/218/218 211/211/211
f 206/206/206 221/221/221 186/186/186
f 212/212/212 223/223/223 163/163/163
f 216/216/216 316/316/316 317/317/317
f 317/317/317 318/318/318 216/216/216
f 318/318/318 214/214/214 216/216/216
f 211/211/211 219/219/219 217/217/217
f 218/218/218 319/319/319 219/219/219
f 220/220/220 320/320/320 221/221/221
f 212/212/212 321/321/321 222/222/222
f 224/224/224 322/322/322 225/225/225
f 226/226/226 323/323/323 227/227/227
f 229/229/229 178/178/178 230/230/230
f 232/232/232 324/324/324 233/233/233
f 235/235/235 325/325/325 236/236/236
f 238/238/238 173/173/173 239/239/239
f 173/173/173 242/242/242 241/241/241
f 179/179/179 178/178/178 188/188/188
f 242/242/242 173/173/173 175/175/175
f 244/244/244 285/285/285 152/152/152
f 245/245/245 248/248/248 246/246/246
f 248/248/248 311/311/311 156/156/156
f 158/158/158 157/157/157 147/147/147
f 249/249/249 326/326/326 250/250/250
f 112/112/112 254/254/254 252/252/252
f 254/254/254 256/256/256 255/255/255
f 256/256/256 258/258/258 257/257/257
f 258/258/258 260/260/260 259/259/259
f 260/260/260 262/262/262 261/261/261
f 262/262/262 264/264/264 263/263/263
f 264/264/264 266/266/266 265/265/265
f 266/266/266 268/268/268 267/267/267
f 268/268/268 251/251/251 250/250/250
f 204/204/204 203/203/203 269/269/269
f 202/202/202 196/196/196 271/271/271
f 201/201/201 200/200/200 273/273/273
f 174/174/174 199/199/199 197/197/197
f 175/175/175 197/197/197 198/198/198
f 196/196/196 195/195/195 275/275/275
f 239/239/239 241/241/241 276/276/276
f 240/240/240 239/239/239 277/277/277
f 237/237/237 236/236/236 279/279/279
f 234/234/234 233/233/233 281/281/281
f 283/283/283 229/229/229 231/231/231
f 244/244/244 226/226/226 228/228/228
