# f_crossbow_02 -- imported by tools/import_asset_pack.py from crossbow_02.fbx
o __pending__
v 0.033695 -0.017507 -0.092958
v 0.016848 -0.052533 -0.063075
v 0.016848 -0.017507 -0.092958
v 0.033695 -0.017507 -0.092958
v 0.033695 0.034830 -0.032498
v 0.033695 -0.052533 -0.063075
v 0.033695 0.034830 -0.155654
v 0.016848 0.033786 -0.224571
v 0.016848 0.034830 -0.155654
v 0.033695 0.034830 0.336283
v 0.016848 0.043652 0.333616
v 0.016848 0.034830 0.336283
v 0.033695 0.034830 0.193828
v 0.033695 0.043826 0.333616
v 0.033695 0.034830 0.336283
v 0.000000 0.036478 -0.130288
v 0.016848 0.054762 -0.130288
v 0.033695 -0.014341 -0.154909
v 0.033695 0.034830 -0.094076
v 0.033695 -0.014341 -0.154909
v 0.016848 -0.017507 -0.092958
v 0.016848 -0.014341 -0.154909
v 0.033695 0.054937 0.193828
v 0.033695 -0.052533 -0.063075
v 0.016848 -0.023243 0.204643
v 0.016848 -0.052533 -0.063075
v 0.033695 -0.023243 0.204643
v 0.024275 0.026883 -0.368394
v 0.012137 0.026883 -0.368394
v 0.033695 0.034830 -0.155654
v 0.033695 -0.015385 -0.223826
v 0.033695 0.033786 -0.224571
v 0.000000 -0.014341 -0.154909
v 0.016848 -0.015385 -0.223826
v 0.012137 0.026883 -0.368394
v 0.024275 -0.012843 -0.367792
v 0.012137 -0.012843 -0.367792
v 0.024275 -0.012843 -0.367792
v 0.024275 0.026883 -0.368394
v 0.000000 -0.015385 -0.223826
v 0.012137 -0.012843 -0.367792
v 0.000000 -0.034830 0.336283
v 0.016848 -0.034830 0.336283
v 0.033695 -0.034830 0.336283
v 0.033695 -0.023243 0.204643
v 0.016848 -0.034830 0.336283
v 0.000000 0.030544 0.307666
v 0.000000 -0.014534 0.282742
v 0.000000 -0.014534 0.307666
v 0.000000 0.030544 0.282742
v 0.070293 -0.014534 0.276134
v 0.000000 -0.014534 0.282742
v 0.148347 -0.007470 0.261201
v 0.152630 -0.010452 0.290120
v 0.148005 -0.010355 0.258049
v 0.073739 -0.014534 0.302089
v 0.000000 0.030544 0.307666
v 0.000000 -0.014534 0.307666
v 0.000000 -0.014534 0.282742
v 0.073739 -0.014534 0.302089
v 0.000000 -0.014534 0.307666
v 0.000000 0.030544 0.282742
v 0.073739 0.045450 0.302089
v 0.070293 0.045450 0.276134
v 0.148347 0.038386 0.261201
v 0.228181 0.030639 0.265141
v 0.224734 0.030639 0.239186
v 0.151793 0.038386 0.287157
v 0.151793 -0.007470 0.287157
v 0.070293 0.045450 0.276134
v 0.070029 -0.017699 0.273254
v 0.070293 -0.014534 0.276134
v 0.073739 0.045450 0.302089
v 0.070029 0.048615 0.273254
v 0.224734 0.030639 0.239186
v 0.224245 -0.001898 0.237421
v 0.224734 0.000277 0.239186
v 0.148347 0.038386 0.261201
v 0.224734 0.000277 0.239186
v 0.148347 -0.007470 0.261201
v 0.151793 -0.007470 0.287157
v 0.228181 0.030639 0.265141
v 0.151793 0.038386 0.287157
v 0.148347 -0.007470 0.261201
v 0.228181 0.000277 0.265141
v 0.151793 -0.007470 0.287157
v 0.304297 0.025730 0.211092
v 0.345124 0.025730 0.232005
v 0.357395 0.025730 0.207438
v 0.307743 0.005186 0.237048
v 0.308502 0.027810 0.238831
v 0.308502 0.003106 0.238831
v 0.228181 0.030639 0.265141
v 0.224245 0.032814 0.237421
v 0.304297 0.005186 0.211092
v 0.303675 0.027563 0.209010
v 0.304297 0.025730 0.211092
v 0.357395 0.025730 0.207438
v 0.345124 0.005186 0.232005
v 0.357395 0.005186 0.207438
v 0.304297 0.025730 0.211092
v 0.357395 0.005186 0.207438
v 0.304297 0.005186 0.211092
v 0.307743 0.005186 0.237048
v 0.345124 0.025730 0.232005
v 0.307743 0.025730 0.237048
v 0.304297 0.005186 0.211092
v 0.345124 0.005186 0.232005
v 0.307743 0.005186 0.237048
v 0.048647 0.000857 0.293119
v 0.000000 0.003599 0.296886
v 0.000000 0.000857 0.269359
v 0.000000 0.017019 0.269359
v 0.048647 0.000857 0.293119
v 0.000000 0.000857 0.269359
v 0.077376 0.000857 0.350482
v 0.037121 0.003599 0.388380
v 0.056101 0.003599 0.350482
v 0.048647 0.017019 0.293119
v 0.077376 0.000857 0.350482
v 0.048647 0.000857 0.293119
v 0.048647 0.017019 0.293119
v 0.000000 0.014277 0.296886
v 0.037121 0.014277 0.312584
v 0.077376 0.017019 0.350482
v 0.048647 0.000857 0.407845
v 0.037121 0.003599 0.312584
v 0.048647 0.017020 0.407845
v 0.000000 0.000857 0.431606
v 0.048647 0.000857 0.407845
v 0.048647 0.000857 0.407845
v 0.000000 0.003599 0.404078
v 0.077376 0.017019 0.350482
v 0.037121 0.014277 0.388380
v 0.048647 0.017020 0.407845
v 0.000000 0.014277 0.404078
v 0.000000 0.017020 0.431606
v 0.056101 0.014277 0.350482
v 0.000000 0.014277 0.296886
v 0.037121 0.003599 0.312584
v 0.037121 0.014277 0.312584
v 0.037121 0.014277 0.312584
v 0.056101 0.003599 0.350482
v 0.056101 0.014277 0.350482
v 0.037121 0.003599 0.388380
v 0.037121 0.014277 0.388380
v 0.037121 0.014277 0.388380
v 0.000000 0.003599 0.404078
v 0.000000 0.014277 0.404078
v 0.000000 0.036478 -0.032498
v 0.016848 0.054762 0.193828
v 0.016848 0.054762 -0.032498
v 0.000000 0.036478 -0.068710
v 0.016848 0.054762 -0.068710
v 0.000000 0.036478 -0.130288
v 0.016848 0.054762 -0.130288
v 0.000000 0.036478 0.193828
v 0.016848 0.043652 0.333616
v 0.016848 0.054762 0.193828
v 0.033695 0.054937 -0.130288
v 0.033695 0.054937 -0.068710
v 0.033695 0.054937 -0.032498
v -0.003683 -0.042915 -0.191418
v -0.003683 -0.031346 -0.262945
v -0.003683 -0.048189 -0.262945
v 0.003683 -0.026072 -0.191418
v -0.003683 -0.031346 -0.262945
v -0.003683 -0.026072 -0.191418
v -0.003683 -0.042915 -0.191418
v 0.003683 -0.048189 -0.262945
v 0.003683 -0.042915 -0.191418
v -0.003683 -0.031346 -0.262945
v 0.003683 -0.048189 -0.262945
v -0.003683 -0.048189 -0.262945
v -0.003683 -0.039289 -0.084575
v 0.003683 -0.048189 -0.116315
v 0.003683 -0.039289 -0.084575
v 0.003683 -0.022446 -0.084575
v -0.003683 -0.031346 -0.116315
v -0.003683 -0.022446 -0.084575
v -0.003683 -0.039289 -0.084575
v -0.003683 -0.031346 -0.116315
v -0.003683 -0.048189 -0.116315
v 0.003683 -0.042915 -0.191418
v 0.003683 -0.031346 -0.262945
v 0.003683 -0.026072 -0.191418
v 0.003683 -0.012556 -0.063970
v -0.003683 -0.029399 -0.063970
v 0.003683 -0.012556 -0.063970
v -0.003683 -0.029399 -0.063970
v 0.003683 -0.029399 -0.063970
v 0.003683 -0.022446 -0.084575
v 0.003683 -0.029399 -0.063970
v 0.003683 -0.039289 -0.084575
v 0.003683 -0.031346 -0.116315
v -0.003683 -0.029399 -0.063970
v -0.003683 -0.022446 -0.084575
v -0.003683 -0.048189 -0.116315
v 0.003683 -0.031346 -0.116315
v 0.000000 0.064684 -0.086504
v 0.000000 0.003181 -0.109572
v 0.000000 0.003181 -0.086504
v 0.000000 0.064684 -0.109572
v 0.009572 0.003181 -0.109572
v 0.000000 0.003181 -0.109572
v 0.009572 0.064684 -0.109572
v 0.009572 0.003181 -0.086504
v 0.009572 0.003181 -0.109572
v 0.009572 0.064684 -0.086504
v 0.000000 0.003181 -0.086504
v 0.009572 0.003181 -0.086504
v 0.009572 0.003181 -0.109572
v 0.000000 0.003181 -0.086504
v 0.000000 0.003181 -0.109572
v 0.000000 0.064684 -0.109572
v 0.009572 0.064684 -0.086504
v 0.009572 0.064684 -0.109572
v 0.033695 0.043826 0.333616
v 0.033695 0.054937 0.193828
v 0.033695 0.054937 -0.068710
v 0.033695 0.054937 -0.130288
v 0.016848 0.054762 -0.068710
v 0.033695 0.054937 -0.032498
v 0.016848 0.054762 -0.032498
v 0.000000 -0.034830 0.336283
v 0.000000 -0.023243 0.204643
v 0.033695 -0.034830 0.336283
v 0.024275 -0.012843 -0.367792
v 0.033695 -0.015385 -0.223826
v 0.000000 0.026883 -0.368394
v 0.000000 -0.012843 -0.367792
v 0.000000 0.033786 -0.224571
v 0.000000 0.026883 -0.368394
v 0.000000 -0.052533 -0.063075
v 0.000000 -0.017507 -0.092958
v 0.000000 0.036478 0.336283
v 0.000000 0.034830 0.336283
v 0.000000 0.034830 -0.155654
v 0.000000 -0.052533 -0.063075
v 0.000000 -0.017507 -0.092958
v 0.344223 0.035489 0.196676
v 0.359327 -0.002879 0.202932
v 0.344223 -0.002879 0.196676
v 0.359327 0.035489 0.202932
v 0.365583 -0.002879 0.218036
v 0.359327 -0.002879 0.202932
v 0.365583 0.035489 0.218036
v 0.359327 -0.002879 0.233140
v 0.359327 0.035489 0.233140
v 0.344223 -0.002879 0.239396
v 0.359327 -0.002879 0.233140
v 0.344223 0.035489 0.239396
v 0.329119 -0.002879 0.233140
v 0.329119 0.035489 0.233140
v 0.322863 -0.002879 0.218036
v 0.329119 -0.002879 0.233140
v 0.329119 0.035489 0.202932
v 0.344223 0.034938 0.203657
v 0.344223 0.035489 0.196676
v 0.322863 0.035489 0.218036
v 0.329119 -0.002879 0.202932
v 0.329119 0.035489 0.202932
v 0.329119 -0.002879 0.202932
v 0.365583 0.035489 0.218036
v 0.354391 0.034938 0.228204
v 0.359327 0.035489 0.233140
v 0.344223 -0.002327 0.203657
v 0.334055 -0.016560 0.207868
v 0.334055 -0.002327 0.207868
v 0.344223 -0.002327 0.232416
v 0.354391 -0.016560 0.228204
v 0.354391 -0.002327 0.228204
v 0.354391 0.034938 0.207868
v 0.359327 0.035489 0.202932
v 0.322863 -0.002879 0.218036
v 0.334055 -0.002327 0.228204
v 0.329119 -0.002879 0.233140
v 0.322863 0.035489 0.218036
v 0.334055 0.034938 0.228204
v 0.329843 0.034938 0.218036
v 0.344223 -0.002879 0.239396
v 0.354391 -0.002327 0.228204
v 0.359327 -0.002879 0.233140
v 0.344223 0.035489 0.239396
v 0.344223 0.034938 0.232416
v 0.365583 -0.002879 0.218036
v 0.354391 -0.002327 0.207868
v 0.359327 -0.002879 0.202932
v 0.334055 -0.002327 0.207868
v 0.329843 -0.002327 0.218036
v 0.358602 0.034938 0.218036
v 0.334055 0.034938 0.207868
v 0.344223 -0.002327 0.232416
v 0.329119 0.035489 0.233140
v 0.358602 -0.002327 0.218036
v 0.344223 -0.002879 0.196676
v 0.329119 -0.002879 0.202932
v 0.344223 -0.002327 0.203657
v 0.329843 0.049171 0.218036
v 0.344223 0.049171 0.232416
v 0.358602 0.049171 0.218036
v 0.334055 -0.016560 0.228204
v 0.329843 -0.016560 0.218036
v 0.334055 -0.016560 0.207868
v 0.354391 0.034938 0.228204
v 0.344223 0.049171 0.232416
v 0.344223 0.034938 0.232416
v 0.354391 -0.002327 0.207868
v 0.344223 -0.016560 0.203657
v 0.334055 0.034938 0.207868
v 0.344223 0.049171 0.203657
v 0.344223 0.034938 0.203657
v 0.334055 -0.002327 0.228204
v 0.344223 -0.016560 0.232416
v 0.354391 0.049171 0.207868
v 0.354391 0.034938 0.207868
v 0.334055 0.049171 0.228204
v 0.334055 0.034938 0.228204
v 0.358602 -0.002327 0.218036
v 0.354391 -0.016560 0.207868
v 0.354391 -0.002327 0.207868
v 0.329843 -0.002327 0.218036
v 0.334055 -0.016560 0.228204
v 0.334055 -0.002327 0.228204
v 0.354391 0.034938 0.207868
v 0.358602 0.049171 0.218036
v 0.358602 0.034938 0.218036
v 0.334055 0.034938 0.228204
v 0.329843 0.049171 0.218036
v 0.329843 0.034938 0.218036
v 0.354391 -0.002327 0.228204
v 0.358602 -0.016560 0.218036
v 0.334055 -0.002327 0.207868
v 0.329843 -0.016560 0.218036
v 0.354391 0.049171 0.228204
v 0.354391 0.034938 0.228204
v 0.334055 0.049171 0.207868
v 0.334055 0.034938 0.207868
v 0.070029 0.048615 0.273254
v 0.152630 0.041368 0.290120
v 0.148005 0.041271 0.258049
v 0.070029 0.048615 0.273254
v 0.148005 -0.010355 0.258049
v 0.070029 -0.017699 0.273254
v 0.074570 -0.017578 0.304991
v 0.152630 0.041368 0.290120
v 0.074570 0.048494 0.304991
v 0.070029 -0.017699 0.273254
v 0.152630 -0.010452 0.290120
v 0.074570 -0.017578 0.304991
v 0.073739 -0.014534 0.302089
v 0.074570 0.048494 0.304991
v 0.074570 -0.017578 0.304991
v 0.148347 0.038386 0.261201
v 0.152630 0.041368 0.290120
v 0.148005 0.041271 0.258049
v 0.228991 0.032528 0.267105
v 0.308502 0.003106 0.238831
v 0.308502 0.027810 0.238831
v 0.224245 -0.001898 0.237421
v 0.308502 0.003106 0.238831
v 0.228991 -0.001612 0.267105
v 0.224245 0.032814 0.237421
v 0.308502 0.027810 0.238831
v 0.303675 0.027563 0.209010
v 0.224245 0.032814 0.237421
v 0.303675 0.003353 0.209010
v 0.224245 -0.001898 0.237421
v 0.303675 0.003353 0.209010
v 0.228181 0.000277 0.265141
v 0.228991 0.032528 0.267105
v 0.228991 -0.001612 0.267105
v 0.307743 0.025730 0.237048
v -0.016848 -0.017507 -0.092958
v -0.033695 -0.052533 -0.063075
v -0.033695 -0.017507 -0.092958
v -0.033695 -0.017507 -0.092958
v -0.033695 0.034830 -0.032498
v -0.033695 0.034830 -0.094076
v -0.016848 0.033786 -0.224571
v -0.033695 0.034830 -0.155654
v -0.016848 0.034830 -0.155654
v -0.016848 0.043652 0.333616
v -0.033695 0.034830 0.336283
v -0.016848 0.034830 0.336283
v -0.033695 0.043826 0.333616
v -0.033695 0.034830 0.193828
v -0.033695 0.034830 0.336283
v -0.033695 -0.014341 -0.154909
v -0.033695 0.034830 -0.155654
v -0.016848 -0.017507 -0.092958
v -0.033695 -0.014341 -0.154909
v -0.016848 -0.014341 -0.154909
v -0.033695 0.054937 0.193828
v -0.016848 -0.023243 0.204643
v -0.033695 -0.052533 -0.063075
v -0.016848 -0.052533 -0.063075
v -0.033695 -0.023243 0.204643
v -0.033695 -0.052533 -0.063075
v -0.024275 0.026883 -0.368394
v -0.033695 0.033786 -0.224571
v -0.033695 -0.015385 -0.223826
v -0.016848 -0.015385 -0.223826
v -0.024275 -0.012843 -0.367792
v -0.012137 0.026883 -0.368394
v -0.012137 -0.012843 -0.367792
v -0.033695 0.033786 -0.224571
v -0.024275 -0.012843 -0.367792
v -0.012137 -0.012843 -0.367792
v -0.016848 -0.034830 0.336283
v -0.016848 -0.034830 0.336283
v -0.033695 -0.023243 0.204643
v -0.070293 -0.014534 0.276134
v 0.000000 0.030544 0.282742
v 0.000000 -0.014534 0.282742
v -0.148347 -0.007470 0.261201
v -0.152630 -0.010452 0.290120
v -0.151793 -0.007470 0.287157
v -0.073739 -0.014534 0.302089
v 0.000000 0.030544 0.307666
v -0.073739 0.045450 0.302089
v 0.000000 -0.014534 0.282742
v -0.073739 -0.014534 0.302089
v -0.070293 -0.014534 0.276134
v -0.073739 0.045450 0.302089
v 0.000000 0.030544 0.282742
v -0.070293 0.045450 0.276134
v -0.148347 0.038386 0.261201
v -0.228181 0.030639 0.265141
v -0.151793 0.038386 0.287157
v -0.151793 0.038386 0.287157
v -0.070029 -0.017699 0.273254
v -0.070293 0.045450 0.276134
v -0.070293 -0.014534 0.276134
v -0.070029 0.048615 0.273254
v -0.073739 0.045450 0.302089
v -0.224245 -0.001898 0.237421
v -0.224734 0.030639 0.239186
v -0.224734 0.000277 0.239186
v -0.224734 0.000277 0.239186
v -0.148347 0.038386 0.261201
v -0.148347 -0.007470 0.261201
v -0.228181 0.030639 0.265141
v -0.151793 -0.007470 0.287157
v -0.151793 0.038386 0.287157
v -0.228181 0.000277 0.265141
v -0.148347 -0.007470 0.261201
v -0.151793 -0.007470 0.287157
v -0.304297 0.025730 0.211092
v -0.345124 0.025730 0.232005
v -0.307743 0.025730 0.237048
v -0.307743 0.005186 0.237048
v -0.308502 0.027810 0.238831
v -0.307743 0.025730 0.237048
v -0.224245 0.032814 0.237421
v -0.228181 0.030639 0.265141
v -0.303675 0.027563 0.209010
v -0.304297 0.005186 0.211092
v -0.304297 0.025730 0.211092
v -0.345124 0.005186 0.232005
v -0.357395 0.025730 0.207438
v -0.357395 0.005186 0.207438
v -0.357395 0.005186 0.207438
v -0.304297 0.025730 0.211092
v -0.304297 0.005186 0.211092
v -0.345124 0.025730 0.232005
v -0.307743 0.005186 0.237048
v -0.307743 0.025730 0.237048
v -0.345124 0.005186 0.232005
v -0.304297 0.005186 0.211092
v -0.307743 0.005186 0.237048
v -0.048647 0.000857 0.293119
v -0.048647 0.000857 0.293119
v -0.077376 0.000857 0.350482
v -0.037121 0.003599 0.388380
v -0.048647 0.000857 0.407845
v -0.077376 0.000857 0.350482
v -0.048647 0.017019 0.293119
v -0.048647 0.000857 0.293119
v -0.048647 0.017019 0.293119
v 0.000000 0.017019 0.269359
v -0.048647 0.000857 0.407845
v -0.077376 0.017019 0.350482
v -0.037121 0.003599 0.312584
v -0.048647 0.017020 0.407845
v -0.048647 0.000857 0.407845
v 0.000000 0.000857 0.431606
v -0.037121 0.014277 0.388380
v -0.077376 0.017019 0.350482
v -0.048647 0.017020 0.407845
v -0.037121 0.014277 0.312584
v -0.037121 0.003599 0.312584
v -0.037121 0.014277 0.312584
v -0.056101 0.003599 0.350482
v -0.037121 0.014277 0.312584
v -0.056101 0.014277 0.350482
v -0.037121 0.003599 0.388380
v -0.037121 0.014277 0.388380
v -0.037121 0.014277 0.388380
v -0.016848 0.054762 0.193828
v 0.000000 0.036478 -0.032498
v -0.016848 0.054762 -0.032498
v 0.000000 0.036478 -0.068710
v -0.016848 0.054762 -0.068710
v 0.000000 0.036478 -0.130288
v -0.016848 0.054762 -0.130288
v -0.016848 0.043652 0.333616
v -0.016848 0.054762 0.193828
v -0.033695 0.054937 -0.130288
v -0.033695 0.054937 -0.068710
v 0.003683 -0.042915 -0.191418
v 0.003683 -0.031346 -0.262945
v 0.003683 -0.026072 -0.191418
v 0.003683 -0.031346 -0.262945
v -0.003683 -0.026072 -0.191418
v 0.003683 -0.026072 -0.191418
v -0.003683 -0.048189 -0.262945
v 0.003683 -0.042915 -0.191418
v -0.003683 -0.042915 -0.191418
v -0.003683 -0.048189 -0.262945
v 0.003683 -0.031346 -0.262945
v 0.003683 -0.048189 -0.262945
v -0.003683 -0.048189 -0.116315
v 0.003683 -0.039289 -0.084575
v -0.003683 -0.039289 -0.084575
v 0.003683 -0.031346 -0.116315
v -0.003683 -0.022446 -0.084575
v 0.003683 -0.022446 -0.084575
v 0.003683 -0.039289 -0.084575
v 0.003683 -0.031346 -0.116315
v 0.003683 -0.022446 -0.084575
v -0.003683 -0.031346 -0.262945
v -0.003683 -0.042915 -0.191418
v -0.003683 -0.026072 -0.191418
v -0.003683 -0.012556 -0.063970
v 0.003683 -0.029399 -0.063970
v 0.003683 -0.029399 -0.063970
v -0.003683 -0.012556 -0.063970
v -0.003683 -0.029399 -0.063970
v -0.003683 -0.029399 -0.063970
v -0.003683 -0.022446 -0.084575
v -0.003683 -0.039289 -0.084575
v -0.003683 -0.031346 -0.116315
v 0.003683 -0.029399 -0.063970
v 0.003683 -0.012556 -0.063970
v -0.003683 -0.048189 -0.116315
v 0.003683 -0.048189 -0.116315
v -0.003683 -0.031346 -0.116315
v 0.003683 -0.048189 -0.116315
v -0.009572 0.003181 -0.109572
v -0.009572 0.003181 -0.086504
v -0.009572 0.064684 -0.109572
v -0.009572 0.003181 -0.109572
v -0.009572 0.064684 -0.086504
v -0.009572 0.003181 -0.086504
v -0.009572 0.003181 -0.109572
v -0.009572 0.064684 -0.086504
v -0.009572 0.064684 -0.109572
v -0.033695 0.043826 0.333616
v -0.033695 0.054937 0.193828
v -0.033695 0.054937 -0.068710
v -0.016848 0.054762 -0.130288
v -0.033695 0.054937 -0.130288
v -0.033695 0.054937 -0.032498
v -0.016848 0.054762 -0.068710
v -0.016848 0.054762 -0.032498
v -0.033695 -0.034830 0.336283
v -0.024275 -0.012843 -0.367792
v -0.033695 -0.015385 -0.223826
v -0.012137 0.026883 -0.368394
v -0.359327 -0.002879 0.202932
v -0.344223 0.035489 0.196676
v -0.344223 -0.002879 0.196676
v -0.365583 -0.002879 0.218036
v -0.359327 0.035489 0.202932
v -0.359327 -0.002879 0.202932
v -0.359327 -0.002879 0.233140
v -0.365583 0.035489 0.218036
v -0.344223 -0.002879 0.239396
v -0.359327 0.035489 0.233140
v -0.359327 -0.002879 0.233140
v -0.329119 -0.002879 0.233140
v -0.344223 0.035489 0.239396
v -0.322863 -0.002879 0.218036
v -0.329119 0.035489 0.233140
v -0.329119 -0.002879 0.233140
v -0.344223 0.034938 0.203657
v -0.329119 0.035489 0.202932
v -0.344223 0.035489 0.196676
v -0.329119 -0.002879 0.202932
v -0.322863 0.035489 0.218036
v -0.329119 0.035489 0.202932
v -0.329119 -0.002879 0.202932
v -0.354391 0.034938 0.228204
v -0.365583 0.035489 0.218036
v -0.359327 0.035489 0.233140
v -0.334055 -0.016560 0.207868
v -0.344223 -0.002327 0.203657
v -0.334055 -0.002327 0.207868
v -0.354391 -0.016560 0.228204
v -0.344223 -0.002327 0.232416
v -0.354391 -0.002327 0.228204
v -0.354391 0.034938 0.207868
v -0.359327 0.035489 0.202932
v -0.334055 -0.002327 0.228204
v -0.322863 -0.002879 0.218036
v -0.329119 -0.002879 0.233140
v -0.322863 0.035489 0.218036
v -0.334055 0.034938 0.228204
v -0.329119 0.035489 0.233140
v -0.354391 -0.002327 0.228204
v -0.344223 -0.002879 0.239396
v -0.359327 -0.002879 0.233140
v -0.344223 0.035489 0.239396
v -0.354391 -0.002327 0.207868
v -0.365583 -0.002879 0.218036
v -0.359327 -0.002879 0.202932
v -0.334055 -0.002327 0.207868
v -0.329119 -0.002879 0.202932
v -0.334055 0.034938 0.207868
v -0.344223 -0.002327 0.232416
v -0.344223 -0.002879 0.196676
v -0.344223 0.049171 0.232416
v -0.329843 0.049171 0.218036
v -0.344223 0.049171 0.203657
v -0.358602 -0.016560 0.218036
v -0.354391 -0.016560 0.207868
v -0.334055 -0.016560 0.228204
v -0.344223 0.049171 0.232416
v -0.354391 0.034938 0.228204
v -0.344223 0.034938 0.232416
v -0.344223 -0.016560 0.203657
v -0.354391 -0.002327 0.207868
v -0.344223 0.049171 0.203657
v -0.334055 0.034938 0.207868
v -0.344223 0.034938 0.203657
v -0.344223 -0.016560 0.232416
v -0.334055 -0.002327 0.228204
v -0.354391 0.049171 0.207868
v -0.354391 0.034938 0.207868
v -0.334055 0.049171 0.228204
v -0.334055 0.034938 0.228204
v -0.354391 -0.016560 0.207868
v -0.358602 -0.002327 0.218036
v -0.354391 -0.002327 0.207868
v -0.334055 -0.016560 0.228204
v -0.329843 -0.002327 0.218036
v -0.334055 -0.002327 0.228204
v -0.358602 0.049171 0.218036
v -0.354391 0.034938 0.207868
v -0.358602 0.034938 0.218036
v -0.329843 0.049171 0.218036
v -0.334055 0.034938 0.228204
v -0.329843 0.034938 0.218036
v -0.358602 -0.016560 0.218036
v -0.354391 -0.002327 0.228204
v -0.329843 -0.016560 0.218036
v -0.334055 -0.002327 0.207868
v -0.354391 0.049171 0.228204
v -0.354391 0.034938 0.228204
v -0.334055 0.049171 0.207868
v -0.334055 0.034938 0.207868
v -0.070029 0.048615 0.273254
v -0.152630 0.041368 0.290120
v -0.074570 0.048494 0.304991
v -0.148005 -0.010355 0.258049
v -0.070029 0.048615 0.273254
v -0.070029 -0.017699 0.273254
v -0.152630 0.041368 0.290120
v -0.074570 -0.017578 0.304991
v -0.074570 0.048494 0.304991
v -0.152630 -0.010452 0.290120
v -0.070029 -0.017699 0.273254
v -0.074570 -0.017578 0.304991
v -0.074570 0.048494 0.304991
v -0.073739 -0.014534 0.302089
v -0.152630 0.041368 0.290120
v -0.148347 0.038386 0.261201
v -0.148005 0.041271 0.258049
v -0.308502 0.027810 0.238831
v -0.228991 -0.001612 0.267105
v -0.228991 0.032528 0.267105
v -0.308502 0.003106 0.238831
v -0.224245 -0.001898 0.237421
v -0.228991 -0.001612 0.267105
v -0.224245 0.032814 0.237421
v -0.308502 0.027810 0.238831
v -0.228991 0.032528 0.267105
v -0.224245 -0.001898 0.237421
v -0.303675 0.027563 0.209010
v -0.224245 0.032814 0.237421
v -0.308502 0.003106 0.238831
v -0.228991 0.032528 0.267105
v -0.228181 0.000277 0.265141
v 0.033695 -0.052533 -0.063075
v 0.033695 0.033786 -0.224571
v 0.033695 0.043826 0.333616
v 0.033695 -0.017507 -0.092958
v 0.024275 0.026883 -0.368394
v 0.000000 -0.012843 -0.367792
v 0.033695 -0.034830 0.336283
v 0.000000 0.030544 0.282742
v 0.070293 0.045450 0.276134
v 0.073739 0.045450 0.302089
v 0.070293 -0.014534 0.276134
v 0.000000 0.030544 0.307666
v 0.151793 0.038386 0.287157
v 0.224734 0.030639 0.239186
v 0.228181 0.000277 0.265141
v 0.224734 0.000277 0.239186
v 0.307743 0.025730 0.237048
v 0.345124 0.025730 0.232005
v 0.357395 0.025730 0.207438
v 0.345124 0.005186 0.232005
v 0.357395 0.005186 0.207438
v 0.048647 0.017019 0.293119
v 0.048647 0.017020 0.407845
v 0.000000 0.017020 0.431606
v 0.000000 0.003599 0.296886
v 0.037121 0.003599 0.312584
v 0.037121 0.003599 0.388380
v 0.000000 0.036478 0.193828
v 0.000000 0.036478 0.336283
v -0.003683 -0.026072 -0.191418
v 0.003683 -0.031346 -0.262945
v -0.003683 -0.048189 -0.262945
v 0.003683 -0.031346 -0.262945
v 0.003683 -0.048189 -0.262945
v -0.003683 -0.012556 -0.063970
v 0.003683 -0.029399 -0.063970
v -0.003683 -0.012556 -0.063970
v 0.003683 -0.012556 -0.063970
v 0.003683 -0.048189 -0.116315
v -0.003683 -0.012556 -0.063970
v 0.000000 0.064684 -0.109572
v 0.009572 0.064684 -0.109572
v 0.009572 0.064684 -0.086504
v 0.000000 0.064684 -0.086504
v 0.009572 0.003181 -0.086504
v 0.000000 0.064684 -0.086504
v 0.359327 0.035489 0.202932
v 0.359327 0.035489 0.233140
v 0.329119 0.035489 0.233140
v 0.329119 0.035489 0.202932
v 0.354391 0.049171 0.207868
v 0.344223 0.049171 0.203657
v 0.334055 0.049171 0.207868
v 0.334055 0.049171 0.228204
v 0.354391 0.049171 0.228204
v 0.344223 -0.016560 0.203657
v 0.354391 -0.016560 0.207868
v 0.358602 -0.016560 0.218036
v 0.354391 -0.016560 0.228204
v 0.344223 -0.016560 0.232416
v 0.354391 0.049171 0.228204
v 0.354391 -0.016560 0.207868
v 0.334055 0.049171 0.207868
v 0.334055 -0.016560 0.228204
v 0.354391 0.049171 0.207868
v 0.334055 0.049171 0.228204
v 0.354391 -0.016560 0.228204
v 0.334055 -0.016560 0.207868
v 0.074570 0.048494 0.304991
v 0.148005 0.041271 0.258049
v 0.152630 -0.010452 0.290120
v 0.148005 -0.010355 0.258049
v 0.228991 -0.001612 0.267105
v 0.303675 0.003353 0.209010
v 0.228991 0.032528 0.267105
v 0.303675 0.027563 0.209010
v -0.016848 -0.052533 -0.063075
v -0.033695 0.043826 0.333616
v -0.033695 -0.017507 -0.092958
v -0.033695 0.054937 -0.032498
v -0.024275 0.026883 -0.368394
v -0.024275 0.026883 -0.368394
v -0.033695 -0.034830 0.336283
v -0.033695 -0.034830 0.336283
v -0.070293 0.045450 0.276134
v -0.148005 -0.010355 0.258049
v 0.000000 0.030544 0.307666
v -0.224734 0.030639 0.239186
v -0.224734 0.030639 0.239186
v -0.228181 0.000277 0.265141
v -0.224734 0.000277 0.239186
v -0.357395 0.025730 0.207438
v -0.303675 0.003353 0.209010
v -0.345124 0.025730 0.232005
v -0.357395 0.025730 0.207438
v -0.345124 0.005186 0.232005
v -0.357395 0.005186 0.207438
v -0.048647 0.017019 0.293119
v -0.056101 0.003599 0.350482
v -0.048647 0.017020 0.407845
v -0.056101 0.014277 0.350482
v -0.037121 0.003599 0.312584
v -0.037121 0.003599 0.388380
v 0.000000 0.036478 0.193828
v 0.003683 -0.048189 -0.262945
v -0.003683 -0.031346 -0.262945
v 0.003683 -0.048189 -0.262945
v -0.003683 -0.031346 -0.262945
v -0.003683 -0.048189 -0.262945
v 0.003683 -0.012556 -0.063970
v -0.003683 -0.029399 -0.063970
v 0.003683 -0.012556 -0.063970
v -0.003683 -0.012556 -0.063970
v -0.009572 0.064684 -0.109572
v -0.009572 0.064684 -0.086504
v -0.009572 0.003181 -0.086504
v -0.359327 0.035489 0.202932
v -0.359327 0.035489 0.233140
v -0.329119 0.035489 0.233140
v -0.329119 0.035489 0.202932
v -0.358602 0.034938 0.218036
v -0.329843 -0.002327 0.218036
v -0.329843 0.034938 0.218036
v -0.344223 0.034938 0.232416
v -0.358602 -0.002327 0.218036
v -0.344223 -0.002327 0.203657
v -0.354391 0.049171 0.207868
v -0.358602 0.049171 0.218036
v -0.354391 0.049171 0.228204
v -0.334055 0.049171 0.228204
v -0.334055 0.049171 0.207868
v -0.344223 -0.016560 0.203657
v -0.334055 -0.016560 0.207868
v -0.329843 -0.016560 0.218036
v -0.344223 -0.016560 0.232416
v -0.354391 -0.016560 0.228204
v -0.354391 0.049171 0.228204
v -0.354391 -0.016560 0.207868
v -0.334055 0.049171 0.207868
v -0.334055 -0.016560 0.228204
v -0.354391 0.049171 0.207868
v -0.334055 0.049171 0.228204
v -0.354391 -0.016560 0.228204
v -0.334055 -0.016560 0.207868
v -0.148005 0.041271 0.258049
v -0.148005 0.041271 0.258049
v -0.152630 -0.010452 0.290120
v -0.148005 -0.010355 0.258049
v -0.074570 -0.017578 0.304991
v -0.308502 0.003106 0.238831
v -0.303675 0.003353 0.209010
v -0.303675 0.027563 0.209010
v -0.303675 0.003353 0.209010
v -0.228991 -0.001612 0.267105
vt 0.190275 0.160865
vt 0.225174 0.144105
vt 0.190275 0.144105
vt 0.213539 0.561482
vt 0.161474 0.621626
vt 0.248383 0.591209
vt 0.338464 0.499216
vt 0.321703 0.430653
vt 0.321703 0.499216
vt 0.653498 0.242051
vt 0.670259 0.250901
vt 0.670259 0.242051
vt 0.161474 0.846770
vt 0.152525 0.985827
vt 0.161474 0.988480
vt 0.304943 0.524484
vt 0.321703 0.524941
vt 0.210389 0.499855
vt 0.161474 0.560370
vt 0.534044 0.926920
vt 0.550804 0.988480
vt 0.550804 0.926920
vt 0.141472 0.846770
vt 0.361504 0.590942
vt 0.378264 0.857761
vt 0.378264 0.590942
vt 0.219245 0.857528
vt 0.329092 0.287452
vt 0.317017 0.287452
vt 0.161474 0.499114
vt 0.211428 0.431298
vt 0.162513 0.430557
vt 0.567564 0.926920
vt 0.550804 0.858354
vt 0.911362 0.630834
vt 0.950882 0.642908
vt 0.950882 0.630834
vt 0.208899 0.288148
vt 0.169381 0.287549
vt 0.567564 0.858354
vt 0.555490 0.715209
vt 0.687019 0.172783
vt 0.670259 0.172783
vt 0.230772 0.988480
vt 0.361504 0.857761
vt 0.378264 0.988480
vt 0.886044 0.890039
vt 0.910838 0.845195
vt 0.886044 0.845195
vt 0.723738 0.748801
vt 0.768570 0.818728
vt 0.768582 0.748801
vt 0.906322 0.295029
vt 0.935061 0.292063
vt 0.903189 0.292159
vt 0.714140 0.841769
vt 0.669479 0.915124
vt 0.714303 0.915124
vt 0.661066 0.745372
vt 0.680309 0.818728
vt 0.685856 0.745372
vt 0.689688 0.569552
vt 0.709302 0.496197
vt 0.683490 0.499625
vt 0.737516 0.526518
vt 0.763259 0.451296
vt 0.737516 0.447383
vt 0.932119 0.340646
vt 0.932119 0.295029
vt 0.164368 0.155467
vt 0.167234 0.092646
vt 0.164368 0.095794
vt 0.138526 0.155467
vt 0.167234 0.158616
vt 0.218076 0.068621
vt 0.219835 0.036253
vt 0.218076 0.038416
vt 0.842705 0.566918
vt 0.880575 0.642908
vt 0.888322 0.566918
vt 0.066751 0.085052
vt 0.105289 0.161042
vt 0.112349 0.085052
vt 0.812062 0.526621
vt 0.786300 0.451388
vt 0.786300 0.530431
vt 0.581555 0.148924
vt 0.607519 0.111402
vt 0.584906 0.096084
vt 0.778533 0.848139
vt 0.801038 0.846369
vt 0.776463 0.846369
vt 0.192234 0.068621
vt 0.219835 0.070784
vt 0.778533 0.873935
vt 0.800792 0.876003
vt 0.798969 0.873935
vt 0.554480 0.692168
vt 0.534044 0.667647
vt 0.534044 0.692168
vt 0.699494 0.096921
vt 0.719924 0.149743
vt 0.719930 0.096921
vt 0.942330 0.682430
vt 0.962757 0.719698
vt 0.962757 0.682511
vt 0.870210 0.719698
vt 0.846670 0.680607
vt 0.844220 0.718050
vt 0.492814 0.317450
vt 0.537784 0.299171
vt 0.525499 0.274646
vt 0.417434 0.296075
vt 0.401311 0.247682
vt 0.401355 0.296075
vt 0.492814 0.381262
vt 0.545524 0.397076
vt 0.511760 0.371829
vt 0.753422 0.988480
vt 0.737344 0.931609
vt 0.737343 0.988480
vt 0.740034 0.274115
vt 0.698413 0.299079
vt 0.738422 0.296497
vt 0.753423 0.931609
vt 0.737343 0.874353
vt 0.511759 0.329670
vt 0.361504 0.247682
vt 0.378270 0.296075
vt 0.377576 0.247682
vt 0.543920 0.419476
vt 0.585534 0.394497
vt 0.791138 0.312318
vt 0.772185 0.363890
vt 0.791138 0.376123
vt 0.746162 0.394389
vt 0.758454 0.418926
vt 0.772185 0.321736
vt 0.900968 0.214147
vt 0.889892 0.251075
vt 0.900510 0.251075
vt 0.896667 0.913079
vt 0.886044 0.950902
vt 0.896667 0.950902
vt 0.886044 0.988480
vt 0.896667 0.988480
vt 0.892675 0.530431
vt 0.903327 0.493503
vt 0.892704 0.493503
vt 0.492814 0.763228
vt 0.511003 0.988480
vt 0.511003 0.763336
vt 0.492814 0.727205
vt 0.511003 0.727313
vt 0.492814 0.665949
vt 0.511003 0.666057
vt 0.304943 0.846811
vt 0.321703 0.986007
vt 0.321703 0.847269
vt 0.141472 0.524347
vt 0.141472 0.585604
vt 0.141472 0.621626
vt 0.505062 0.513847
vt 0.523209 0.444091
vt 0.506528 0.442516
vt 0.458913 0.515821
vt 0.451585 0.444557
vt 0.451585 0.515821
vt 0.631452 0.861467
vt 0.624125 0.790228
vt 0.624125 0.861467
vt 0.620998 0.692168
vt 0.628326 0.675413
vt 0.620998 0.675413
vt 0.631452 0.967803
vt 0.624125 0.936069
vt 0.624125 0.967803
vt 0.458913 0.622165
vt 0.451585 0.590377
vt 0.451585 0.622165
vt 0.498661 0.620001
vt 0.509495 0.589309
vt 0.492814 0.587734
vt 0.617833 0.513848
vt 0.599686 0.444092
vt 0.601152 0.515423
vt 0.458913 0.642904
vt 0.631452 0.988480
vt 0.406378 0.124030
vt 0.413706 0.107282
vt 0.406378 0.107282
vt 0.607553 0.621576
vt 0.616367 0.641333
vt 0.624234 0.620001
vt 0.613400 0.589309
vt 0.506528 0.641333
vt 0.515342 0.621576
vt 0.631452 0.936069
vt 0.458913 0.590377
vt 0.492814 0.150367
vt 0.515763 0.089184
vt 0.492814 0.089184
vt 0.899414 0.154178
vt 0.908936 0.092996
vt 0.899414 0.092996
vt 0.743579 0.150380
vt 0.766528 0.089197
vt 0.743579 0.089197
vt 0.789568 0.150380
vt 0.799091 0.089224
vt 0.789568 0.089224
vt 0.538803 0.127423
vt 0.548326 0.150367
vt 0.548326 0.127423
vt 0.709010 0.050939
vt 0.718532 0.073880
vt 0.718532 0.050939
vt 0.338464 0.986012
vt 0.338464 0.847273
vt 0.338464 0.586184
vt 0.338464 0.524946
vt 0.321703 0.586180
vt 0.338464 0.622196
vt 0.321703 0.622192
vt 0.395024 0.988480
vt 0.395024 0.857761
vt 0.653498 0.172783
vt 0.543416 0.715209
vt 0.534044 0.858354
vt 0.911362 0.618760
vt 0.950882 0.618760
vt 0.304943 0.430653
vt 0.304943 0.287452
vt 0.395024 0.590942
vt 0.567564 0.988480
vt 0.687019 0.243690
vt 0.687019 0.242051
vt 0.304943 0.499216
vt 0.225174 0.127345
vt 0.190275 0.127345
vt 0.941392 0.530431
vt 0.956417 0.492251
vt 0.941392 0.492263
vt 0.931977 0.092958
vt 0.946960 0.054790
vt 0.931977 0.054790
vt 0.946960 0.092958
vt 0.962026 0.054790
vt 0.829055 0.886342
vt 0.844080 0.848008
vt 0.829055 0.848191
vt 0.844080 0.886159
vt 0.859105 0.848191
vt 0.581555 0.073043
vt 0.596620 0.034875
vt 0.581555 0.034875
vt 0.947460 0.949219
vt 0.952559 0.963370
vt 0.958959 0.960718
vt 0.596620 0.073043
vt 0.611604 0.034875
vt 0.926367 0.530419
vt 0.926367 0.492251
vt 0.947469 0.988480
vt 0.933878 0.982059
vt 0.931210 0.988480
vt 0.080918 0.051897
vt 0.066751 0.062012
vt 0.080910 0.062012
vt 0.794460 0.056068
vt 0.808490 0.045953
vt 0.794337 0.045953
vt 0.952562 0.974318
vt 0.958963 0.976981
vt 0.841937 0.279601
vt 0.847030 0.293761
vt 0.853435 0.291099
vt 0.931202 0.949219
vt 0.926135 0.963370
vt 0.933872 0.955629
vt 0.853435 0.307362
vt 0.839290 0.312451
vt 0.841937 0.318862
vt 0.919711 0.976980
vt 0.926137 0.974318
vt 0.825677 0.318864
vt 0.820602 0.304712
vt 0.814178 0.307366
vt 0.828343 0.286022
vt 0.839290 0.286020
vt 0.944824 0.982059
vt 0.944818 0.955629
vt 0.847030 0.304709
vt 0.919708 0.960718
vt 0.828343 0.312453
vt 0.814178 0.291104
vt 0.825676 0.279603
vt 0.820602 0.293764
vt 0.934106 0.442778
vt 0.926367 0.461465
vt 0.945052 0.469211
vt 0.500557 0.066144
vt 0.511504 0.066144
vt 0.519243 0.058403
vt 0.557725 0.084152
vt 0.543695 0.094267
vt 0.557848 0.094267
vt 0.080910 0.041782
vt 0.066759 0.051897
vt 0.271423 0.061918
vt 0.285590 0.051803
vt 0.271431 0.051803
vt 0.794337 0.066183
vt 0.808613 0.056068
vt 0.285582 0.041688
vt 0.271423 0.041688
vt 0.543572 0.104382
vt 0.557725 0.104382
vt 0.931977 0.021607
vt 0.946136 0.011520
vt 0.931977 0.011520
vt 0.365623 0.039297
vt 0.351464 0.049439
vt 0.365623 0.049439
vt 0.988082 0.622678
vt 0.973923 0.632765
vt 0.988082 0.632765
vt 0.958102 0.343613
vt 0.972261 0.333471
vt 0.958102 0.333471
vt 0.931977 0.031750
vt 0.946136 0.021607
vt 0.365623 0.029209
vt 0.351464 0.039297
vt 0.973923 0.642908
vt 0.988082 0.642908
vt 0.972261 0.323384
vt 0.958102 0.323384
vt 0.190622 0.262971
vt 0.222465 0.185425
vt 0.190275 0.183906
vt 0.351464 0.147070
vt 0.410099 0.224641
vt 0.417434 0.147070
vt 0.743579 0.173421
vt 0.802628 0.251074
vt 0.809279 0.173421
vt 0.303282 0.262994
vt 0.271423 0.185385
vt 0.271423 0.264411
vt 0.138526 0.095794
vt 0.135634 0.158495
vt 0.135634 0.092767
vt 0.906322 0.340646
vt 0.935061 0.343613
vt 0.903189 0.343516
vt 0.615503 0.171965
vt 0.587073 0.251062
vt 0.611637 0.251062
vt 0.819518 0.637492
vt 0.790107 0.558990
vt 0.790107 0.642908
vt 0.737684 0.637431
vt 0.767067 0.558922
vt 0.737516 0.553471
vt 0.832320 0.172058
vt 0.861574 0.251075
vt 0.866851 0.172058
vt 0.776709 0.876003
vt 0.192234 0.038416
vt 0.190275 0.070500
vt 0.190275 0.036537
vt 0.798969 0.848139
vt 0.190275 0.110585
vt 0.225174 0.093825
vt 0.190275 0.093825
vt 0.046364 0.561481
vt 0.098429 0.621626
vt 0.098429 0.560369
vt 0.288183 0.430653
vt 0.271423 0.499216
vt 0.288183 0.499216
vt 0.703779 0.250901
vt 0.720539 0.242051
vt 0.703779 0.242051
vt 0.107378 0.985827
vt 0.098429 0.846769
vt 0.098429 0.988480
vt 0.049514 0.499854
vt 0.098429 0.499113
vt 0.584324 0.988480
vt 0.601084 0.926920
vt 0.584324 0.926920
vt 0.118431 0.846769
vt 0.411784 0.857761
vt 0.428544 0.590942
vt 0.411784 0.590942
vt 0.040658 0.857528
vt 0.011520 0.591208
vt 0.280795 0.287452
vt 0.271423 0.430653
vt 0.048475 0.431297
vt 0.584324 0.858354
vt 0.950882 0.594611
vt 0.911362 0.606686
vt 0.950882 0.606686
vt 0.097390 0.430556
vt 0.051004 0.288144
vt 0.579638 0.715209
vt 0.703779 0.172783
vt 0.411784 0.988480
vt 0.428544 0.857761
vt 0.768570 0.678873
vt 0.723738 0.748801
vt 0.768582 0.748801
vt 0.380204 0.075446
vt 0.351464 0.072480
vt 0.354406 0.075446
vt 0.714140 0.988480
vt 0.669479 0.915124
vt 0.654493 0.988480
vt 0.661066 0.745372
vt 0.680309 0.672017
vt 0.654493 0.675445
vt 0.709302 0.642908
vt 0.689688 0.569552
vt 0.683490 0.639480
vt 0.467664 0.280436
vt 0.441921 0.205214
vt 0.441921 0.284349
vt 0.354406 0.121063
vt 0.011520 0.094892
vt 0.014386 0.157713
vt 0.014386 0.098040
vt 0.011520 0.160862
vt 0.040229 0.157713
vt 0.011520 0.037320
vt 0.013279 0.069688
vt 0.013279 0.039483
vt 0.851967 0.818728
vt 0.889837 0.742738
vt 0.844220 0.742738
vt 0.278483 0.160949
vt 0.317020 0.084959
vt 0.271423 0.084959
vt 0.167234 0.185466
vt 0.141472 0.260699
vt 0.167234 0.264508
vt 0.919290 0.719698
vt 0.893326 0.682175
vt 0.893251 0.719698
vt 0.705995 0.445291
vt 0.683490 0.443521
vt 0.685559 0.445291
vt 0.011520 0.071851
vt 0.039122 0.069688
vt 0.683735 0.473156
vt 0.705995 0.471089
vt 0.685559 0.471089
vt 0.597958 0.667650
vt 0.577521 0.692168
vt 0.597957 0.692168
vt 0.903196 0.419476
vt 0.923625 0.366654
vt 0.903189 0.366654
vt 0.791622 0.706387
vt 0.812050 0.669120
vt 0.791622 0.669201
vt 0.855860 0.109927
vt 0.832320 0.149018
vt 0.858310 0.147370
vt 0.579352 0.274102
vt 0.401311 0.344469
vt 0.630458 0.312315
vt 0.611558 0.363998
vt 0.630458 0.376128
vt 0.451586 0.364268
vt 0.467664 0.307389
vt 0.451585 0.307389
vt 0.653498 0.317468
vt 0.686182 0.274665
vt 0.451585 0.421516
vt 0.467664 0.364268
vt 0.577794 0.296593
vt 0.361504 0.344469
vt 0.377576 0.344469
vt 0.597773 0.418932
vt 0.706153 0.396972
vt 0.653498 0.381273
vt 0.704603 0.419476
vt 0.672390 0.329578
vt 0.889892 0.177219
vt 0.900510 0.177219
vt 0.452545 0.140688
vt 0.441921 0.102860
vt 0.441922 0.140688
vt 0.452544 0.178261
vt 0.441921 0.178261
vt 0.892675 0.456575
vt 0.451585 0.988480
vt 0.469774 0.763224
vt 0.451585 0.763337
vt 0.469774 0.727201
vt 0.451585 0.727314
vt 0.469774 0.665945
vt 0.451585 0.666057
vt 0.288183 0.986007
vt 0.288183 0.847269
vt 0.118431 0.524347
vt 0.118431 0.585603
vt 0.379651 0.438841
vt 0.361504 0.369085
vt 0.362970 0.440416
vt 0.422267 0.369554
vt 0.414940 0.440818
vt 0.422267 0.440818
vt 0.660449 0.444656
vt 0.653121 0.515895
vt 0.660449 0.515895
vt 0.624125 0.750432
vt 0.631452 0.767187
vt 0.631452 0.750432
vt 0.660449 0.590498
vt 0.653121 0.622231
vt 0.660449 0.622231
vt 0.422267 0.515374
vt 0.414940 0.547162
vt 0.422267 0.547162
vt 0.386053 0.544994
vt 0.375218 0.514302
vt 0.369372 0.546569
vt 0.576645 0.444091
vt 0.558498 0.513847
vt 0.575179 0.515423
vt 0.414940 0.567901
vt 0.653121 0.642908
vt 0.911362 0.554823
vt 0.918690 0.571571
vt 0.918690 0.554823
vt 0.559964 0.641333
vt 0.568778 0.621576
vt 0.552097 0.620001
vt 0.562931 0.589309
vt 0.378185 0.566326
vt 0.361504 0.567901
vt 0.546250 0.587734
vt 0.653121 0.590498
vt 0.414940 0.515374
vt 0.391899 0.512727
vt 0.889892 0.092996
vt 0.653498 0.088560
vt 0.676447 0.149743
vt 0.676447 0.088560
vt 0.808613 0.150380
vt 0.808613 0.089224
vt 0.557848 0.127423
vt 0.699487 0.073880
vt 0.699487 0.050939
vt 0.271423 0.986012
vt 0.271423 0.847273
vt 0.271423 0.586184
vt 0.288183 0.524941
vt 0.271423 0.524946
vt 0.271423 0.622196
vt 0.288183 0.586180
vt 0.288183 0.622192
vt 0.720539 0.172783
vt 0.591712 0.715209
vt 0.601084 0.858354
vt 0.292869 0.287452
vt 0.931977 0.115999
vt 0.947002 0.154179
vt 0.947002 0.116011
vt 0.847385 0.034863
vt 0.862369 0.073030
vt 0.862369 0.034862
vt 0.832320 0.034862
vt 0.847385 0.073031
vt 0.939034 0.212740
vt 0.954059 0.251075
vt 0.954059 0.212923
vt 0.924009 0.212923
vt 0.939034 0.250892
vt 0.948862 0.851871
vt 0.963928 0.890039
vt 0.963928 0.851871
vt 0.419693 0.054710
vt 0.424792 0.040559
vt 0.413293 0.052058
vt 0.933879 0.851871
vt 0.948862 0.890039
vt 0.962027 0.154167
vt 0.962027 0.115999
vt 0.438374 0.073399
vt 0.424783 0.079820
vt 0.441042 0.079820
vt 0.308630 0.041688
vt 0.322797 0.051803
vt 0.322789 0.041688
vt 0.667651 0.065519
vt 0.653621 0.055404
vt 0.653498 0.065519
vt 0.419691 0.065658
vt 0.413289 0.068321
vt 0.919282 0.793624
vt 0.924376 0.779465
vt 0.912878 0.790963
vt 0.441050 0.040559
vt 0.446118 0.054710
vt 0.452545 0.052058
vt 0.927023 0.812315
vt 0.912877 0.807225
vt 0.924375 0.818726
vt 0.452541 0.068321
vt 0.945710 0.804576
vt 0.940636 0.818728
vt 0.952134 0.807230
vt 0.937970 0.785885
vt 0.940636 0.779467
vt 0.427434 0.046969
vt 0.919282 0.804573
vt 0.952134 0.790967
vt 0.162058 0.061860
vt 0.154319 0.043172
vt 0.135634 0.050918
vt 0.762269 0.039726
vt 0.751322 0.039726
vt 0.762266 0.066157
vt 0.890015 0.059840
vt 0.904044 0.069955
vt 0.904167 0.059840
vt 0.308638 0.051803
vt 0.322789 0.061918
vt 0.557739 0.050996
vt 0.543572 0.040881
vt 0.543580 0.050996
vt 0.667774 0.055404
vt 0.653498 0.045289
vt 0.557731 0.061111
vt 0.543572 0.061111
vt 0.889892 0.049725
vt 0.904044 0.049725
vt 0.958102 0.280114
vt 0.972261 0.290201
vt 0.972261 0.280114
vt 0.983335 0.031750
vt 0.969176 0.021607
vt 0.969176 0.031750
vt 0.960831 0.409334
vt 0.946672 0.399246
vt 0.946672 0.409334
vt 0.973922 0.589495
vt 0.988082 0.599638
vt 0.988081 0.589495
vt 0.958102 0.290201
vt 0.972261 0.300343
vt 0.983335 0.021607
vt 0.969176 0.011520
vt 0.960831 0.419476
vt 0.946672 0.419476
vt 0.973923 0.579408
vt 0.988082 0.579408
vt 0.043364 0.262968
vt 0.011520 0.185421
vt 0.011520 0.264504
vt 0.821513 0.419476
vt 0.880148 0.341905
vt 0.814178 0.341905
vt 0.499466 0.251062
vt 0.558514 0.173408
vt 0.492814 0.173408
vt 0.098948 0.185479
vt 0.067089 0.263087
vt 0.098948 0.264505
vt 0.043122 0.160741
vt 0.040229 0.098040
vt 0.351464 0.124030
vt 0.380204 0.121063
vt 0.383337 0.123933
vt 0.832921 0.988480
vt 0.863003 0.909383
vt 0.829055 0.909383
vt 0.821179 0.734810
vt 0.791769 0.813312
vt 0.821179 0.818728
vt 0.805846 0.983003
vt 0.776463 0.904494
vt 0.776463 0.988480
vt 0.835102 0.451415
vt 0.864462 0.530431
vt 0.869634 0.451415
vt 0.708064 0.443521
vt 0.041082 0.071567
vt 0.039122 0.039483
vt 0.225174 0.160865
vt 0.338464 0.430653
vt 0.653498 0.251075
vt 0.534044 0.988480
vt 0.911362 0.642908
vt 0.567564 0.715209
vt 0.361504 0.988480
vt 0.910838 0.890039
vt 0.708897 0.818728
vt 0.654493 0.841769
vt 0.654493 0.815300
vt 0.714475 0.569552
vt 0.763259 0.530431
vt 0.850370 0.642908
vt 0.075097 0.161042
vt 0.812062 0.447579
vt 0.607593 0.148924
vt 0.554480 0.667647
vt 0.699487 0.149743
vt 0.942330 0.719617
vt 0.870210 0.666751
vt 0.417389 0.247682
vt 0.753422 0.874353
vt 0.362198 0.296075
vt 0.890350 0.214147
vt 0.886044 0.913079
vt 0.903297 0.530431
vt 0.492814 0.988371
vt 0.304943 0.988480
vt 0.521743 0.515423
vt 0.458913 0.444557
vt 0.631452 0.790228
vt 0.628326 0.692168
vt 0.616367 0.442517
vt 0.451585 0.642904
vt 0.624125 0.988480
vt 0.413706 0.124030
vt 0.599686 0.642908
vt 0.630081 0.587734
vt 0.523209 0.642908
vt 0.515763 0.150367
vt 0.908936 0.154178
vt 0.766528 0.150380
vt 0.799091 0.150380
vt 0.538803 0.150367
vt 0.709010 0.073880
vt 0.956417 0.530419
vt 0.962026 0.092958
vt 0.859105 0.886342
vt 0.611604 0.073043
vt 0.952791 0.461471
vt 0.952791 0.450524
vt 0.945052 0.442781
vt 0.926367 0.450518
vt 0.934106 0.469209
vt 0.519242 0.047454
vt 0.511501 0.039713
vt 0.500554 0.039713
vt 0.492814 0.047454
vt 0.492816 0.058402
vt 0.543572 0.084152
vt 0.066751 0.041782
vt 0.285582 0.061918
vt 0.808490 0.066183
vt 0.973923 0.622678
vt 0.972261 0.343613
vt 0.946136 0.031750
vt 0.351464 0.029209
vt 0.222465 0.264508
vt 0.358742 0.224641
vt 0.751099 0.251074
vt 0.303620 0.183989
vt 0.581555 0.171965
vt 0.819664 0.553608
vt 0.767067 0.642908
vt 0.837491 0.251075
vt 0.225174 0.110585
vt 0.720539 0.251075
vt 0.601084 0.988480
vt 0.118431 0.621626
vt 0.911362 0.594611
vt 0.090522 0.287545
vt 0.029131 0.988480
vt 0.428544 0.988480
vt 0.708897 0.678873
vt 0.383337 0.072576
vt 0.714475 0.569552
vt 0.467664 0.201301
vt 0.882172 0.818728
vt 0.308675 0.160949
vt 0.141472 0.181656
vt 0.915938 0.666857
vt 0.707819 0.473156
vt 0.577521 0.667650
vt 0.923632 0.419476
vt 0.812050 0.706306
vt 0.832320 0.096071
vt 0.417389 0.344469
vt 0.611558 0.321839
vt 0.467664 0.421516
vt 0.672390 0.371732
vt 0.452544 0.102860
vt 0.903297 0.456575
vt 0.469774 0.988367
vt 0.378185 0.367510
vt 0.414940 0.369554
vt 0.653121 0.444656
vt 0.624125 0.767187
vt 0.559964 0.442516
vt 0.422267 0.567901
vt 0.660449 0.642908
vt 0.911362 0.571571
vt 0.576645 0.642908
vt 0.889892 0.154178
vt 0.653498 0.149743
vt 0.557848 0.150367
vt 0.931977 0.154167
vt 0.832320 0.073030
vt 0.924009 0.251075
vt 0.933879 0.890039
vt 0.427429 0.073399
vt 0.927023 0.785884
vt 0.438380 0.046969
vt 0.446115 0.065658
vt 0.937970 0.812316
vt 0.945710 0.793628
vt 0.135634 0.061866
vt 0.143374 0.069605
vt 0.154319 0.069603
vt 0.162058 0.050912
vt 0.143373 0.043175
vt 0.743581 0.047467
vt 0.743579 0.058415
vt 0.751319 0.066157
vt 0.770007 0.058415
vt 0.770008 0.047467
vt 0.889892 0.069955
vt 0.308630 0.061918
vt 0.557731 0.040881
vt 0.667651 0.045289
vt 0.960831 0.399246
vt 0.973923 0.599638
vt 0.958102 0.300343
vt 0.983335 0.011520
vt 0.043711 0.183902
vt 0.872870 0.419476
vt 0.550994 0.251062
vt 0.066751 0.184083
vt 0.043122 0.095013
vt 0.857485 0.988480
vt 0.791622 0.729428
vt 0.806014 0.899043
vt 0.840379 0.530431
vt 0.041082 0.037604
vn 0.807874 -0.528679 -0.260457
vn -0.000000 -0.929502 -0.368817
vn -0.000000 -0.897040 -0.441950
vn 0.807874 -0.528679 -0.260457
vn 1.000000 0.000000 0.000000
vn 0.615420 -0.732631 -0.290705
vn 0.786738 0.581696 -0.206575
vn 0.000000 0.999502 -0.031551
vn -0.087227 0.966344 -0.242015
vn 0.675809 0.106460 0.729348
vn -0.151852 0.810388 0.565874
vn 0.006721 0.141794 0.989873
vn 1.000000 0.000000 0.000000
vn 0.596139 0.624990 0.503991
vn 0.675809 0.106460 0.729348
vn -0.000000 0.968215 -0.250120
vn -0.369016 0.882614 -0.291239
vn 0.714650 -0.699370 -0.012561
vn 1.000000 0.000000 0.000000
vn 0.714650 -0.699370 -0.012561
vn -0.000000 -0.897040 -0.441950
vn 0.000000 -0.999839 -0.017958
vn 0.694578 0.718852 0.028516
vn 0.615420 -0.732631 -0.290705
vn 0.000000 -0.999944 0.010589
vn -0.000000 -0.929502 -0.368817
vn 0.729888 -0.683528 0.007238
vn 0.557938 0.561006 -0.611537
vn 0.000000 0.684459 -0.729051
vn 0.786738 0.581696 -0.206575
vn 0.710137 -0.703668 -0.023608
vn 0.710113 0.702654 -0.044917
vn 0.000000 -0.999839 -0.017958
vn 0.000000 -0.999999 -0.001253
vn 0.000000 0.684459 -0.729051
vn 0.557937 -0.579291 -0.594245
vn 0.000000 -0.706234 -0.707978
vn 0.557937 -0.579291 -0.594245
vn 0.557938 0.561006 -0.611537
vn 0.000000 -0.999999 -0.001253
vn 0.000000 -0.706234 -0.707978
vn 0.000000 -0.737471 0.675379
vn 0.000000 -0.737464 0.675387
vn 0.572885 -0.604446 0.553578
vn 0.729888 -0.683528 0.007238
vn 0.000000 -0.737464 0.675387
vn -0.321963 0.600839 0.731664
vn -0.325229 -0.689157 -0.647525
vn -0.341004 -0.649107 0.679983
vn -0.307371 0.645944 -0.698770
vn -0.924626 -0.324559 -0.199318
vn -0.316546 -0.691321 -0.649518
vn 0.863515 -0.313145 -0.395326
vn 0.708501 -0.536472 0.458503
vn 0.502734 -0.541018 -0.674209
vn -0.818200 -0.333995 0.467971
vn -0.318248 0.606303 0.728777
vn -0.340919 -0.649164 0.679971
vn -0.316546 -0.691321 -0.649518
vn -0.818200 -0.333995 0.467971
vn -0.340919 -0.649164 0.679971
vn -0.307371 0.645944 -0.698770
vn -0.848692 0.317470 0.423007
vn -0.941599 0.304048 -0.144731
vn 0.863524 0.313146 -0.395304
vn -0.721243 0.434464 0.539489
vn -0.964791 0.227240 -0.132438
vn 0.975067 0.204319 0.086594
vn 0.975069 -0.204320 0.086572
vn -0.941599 0.304048 -0.144731
vn -0.628215 -0.613436 -0.478583
vn -0.924626 -0.324559 -0.199318
vn -0.848692 0.317470 0.423007
vn -0.628221 0.613436 -0.478576
vn -0.964791 0.227240 -0.132438
vn -0.691812 -0.599740 -0.402129
vn -0.964790 -0.227238 -0.132452
vn 0.863524 0.313146 -0.395304
vn -0.964790 -0.227238 -0.132452
vn 0.863515 -0.313145 -0.395326
vn 0.975069 -0.204320 0.086572
vn -0.721243 0.434464 0.539489
vn 0.975067 0.204319 0.086594
vn 0.863515 -0.313145 -0.395326
vn -0.721240 -0.434464 0.539494
vn 0.975069 -0.204320 0.086572
vn 0.812284 0.337187 -0.475921
vn 0.458489 0.615441 0.641109
vn 0.692424 0.554404 -0.461720
vn 0.974174 -0.214842 0.069486
vn 0.746203 0.544666 0.382779
vn 0.746211 -0.544671 0.382755
vn -0.721243 0.434464 0.539489
vn -0.691822 0.599757 -0.402087
vn 0.812272 -0.337184 -0.475943
vn 0.401335 0.561177 -0.723886
vn 0.812284 0.337187 -0.475921
vn 0.692424 0.554404 -0.461720
vn 0.458496 -0.615431 0.641114
vn 0.692422 -0.554420 -0.461703
vn 0.812284 0.337187 -0.475921
vn 0.692422 -0.554420 -0.461703
vn 0.812272 -0.337184 -0.475943
vn 0.974174 -0.214842 0.069486
vn 0.458489 0.615441 0.641109
vn 0.974172 0.214838 0.069519
vn 0.812272 -0.337184 -0.475943
vn 0.458496 -0.615431 0.641114
vn 0.974174 -0.214842 0.069486
vn 0.519808 -0.678774 -0.518715
vn -0.000000 -0.764818 0.644247
vn 0.000000 -0.649832 -0.760078
vn 0.000000 0.649852 -0.760061
vn 0.519808 -0.678774 -0.518715
vn 0.000000 -0.649832 -0.760078
vn 0.754260 -0.656576 0.000008
vn -0.462489 -0.743182 -0.483513
vn -0.637553 -0.770406 -0.000005
vn 0.519801 0.678772 -0.518726
vn 0.754260 -0.656576 0.000008
vn 0.519808 -0.678774 -0.518715
vn 0.519801 0.678772 -0.518726
vn 0.000000 0.764830 0.644233
vn -0.462489 0.743182 0.483513
vn 0.754260 0.656576 -0.000008
vn 0.519801 -0.678772 0.518725
vn -0.462495 -0.743182 0.483507
vn 0.519809 0.678774 0.518715
vn 0.000000 -0.649851 0.760061
vn 0.519801 -0.678772 0.518725
vn 0.519801 -0.678772 0.518725
vn -0.000000 -0.764830 -0.644232
vn 0.754260 0.656576 -0.000008
vn -0.462495 0.743182 -0.483507
vn 0.519809 0.678774 0.518715
vn -0.000000 0.764818 -0.644247
vn 0.000000 0.649832 0.760078
vn -0.637553 0.770406 0.000005
vn 0.000000 0.764830 0.644233
vn -0.462495 -0.743182 0.483507
vn -0.462489 0.743182 0.483513
vn -0.462489 0.743182 0.483513
vn -0.637553 -0.770406 -0.000005
vn -0.637553 0.770406 0.000005
vn -0.462489 -0.743182 -0.483513
vn -0.462495 0.743182 -0.483507
vn -0.462495 0.743182 -0.483507
vn -0.000000 -0.764830 -0.644232
vn -0.000000 0.764818 -0.644247
vn -0.000000 1.000000 -0.000000
vn -0.402385 0.914761 0.036041
vn -0.406226 0.913772 -0.000000
vn 0.000000 1.000000 -0.000000
vn -0.406225 0.913773 -0.000000
vn -0.000000 0.968215 -0.250120
vn -0.369016 0.882614 -0.291239
vn 0.000000 0.999351 0.036020
vn -0.151852 0.810388 0.565874
vn -0.402385 0.914761 0.036041
vn 0.636360 0.728658 -0.253186
vn 0.703446 0.710749 -0.000000
vn 0.703436 0.710758 -0.000000
vn -0.723624 -0.690193 0.001206
vn -0.581321 0.553809 -0.596121
vn -0.573590 -0.600142 -0.557516
vn 0.691307 0.722560 -0.001262
vn -0.581321 0.553809 -0.596121
vn -0.691306 0.722561 -0.001262
vn -0.723624 -0.690193 0.001206
vn 0.573596 -0.600155 -0.557495
vn 0.723624 -0.690193 0.001205
vn -0.581321 0.553809 -0.596121
vn 0.573596 -0.600155 -0.557495
vn -0.573590 -0.600142 -0.557516
vn -0.688053 -0.679030 0.255932
vn 0.670593 -0.737997 0.075270
vn 0.688057 -0.679027 0.255928
vn 0.727210 0.642307 -0.242091
vn -0.747678 0.660634 -0.067380
vn -0.727213 0.642305 -0.242087
vn -0.688053 -0.679030 0.255932
vn -0.747678 0.660634 -0.067380
vn -0.670585 -0.738004 0.075272
vn 0.723624 -0.690193 0.001205
vn 0.581315 0.553797 -0.596139
vn 0.691307 0.722560 -0.001262
vn 0.557404 0.702692 0.442182
vn -0.604621 -0.424214 0.674148
vn 0.557404 0.702692 0.442182
vn -0.604621 -0.424214 0.674148
vn 0.604603 -0.424223 0.674159
vn 0.727210 0.642307 -0.242091
vn 0.604603 -0.424223 0.674159
vn 0.688057 -0.679027 0.255928
vn 0.747671 0.660642 -0.067382
vn -0.604621 -0.424214 0.674148
vn -0.727213 0.642305 -0.242087
vn -0.670585 -0.738004 0.075272
vn 0.747671 0.660642 -0.067382
vn -0.333377 0.666704 0.666608
vn -0.333377 -0.666704 -0.666608
vn -0.333377 -0.666608 0.666704
vn -0.346648 0.663195 -0.663331
vn 0.577361 -0.577333 -0.577357
vn -0.333282 -0.666691 -0.666668
vn 0.577330 0.577360 -0.577360
vn 0.577330 -0.577360 0.577360
vn 0.577361 -0.577333 -0.577357
vn 0.577361 0.577333 0.577357
vn -0.346648 -0.663195 0.663331
vn 0.577330 -0.577360 0.577360
vn 0.577361 -0.577333 -0.577357
vn -0.346648 -0.663195 0.663331
vn -0.333282 -0.666691 -0.666668
vn -0.346648 0.663195 -0.663331
vn 0.577361 0.577333 0.577357
vn 0.577330 0.577360 -0.577360
vn 0.596139 0.624990 0.503991
vn 0.694578 0.718852 0.028516
vn 0.703446 0.710749 -0.000000
vn 0.636360 0.728658 -0.253186
vn -0.406225 0.913773 -0.000000
vn 0.703436 0.710758 -0.000000
vn -0.406226 0.913772 -0.000000
vn 0.000000 -0.737471 0.675379
vn 0.000000 -0.999944 0.010589
vn 0.572885 -0.604446 0.553578
vn 0.557937 -0.579291 -0.594245
vn 0.710137 -0.703668 -0.023608
vn 0.000000 0.684462 -0.729048
vn 0.000000 -0.706220 -0.707992
vn 0.000000 0.999502 -0.031551
vn 0.000000 0.684462 -0.729048
vn -0.000000 -0.929504 -0.368813
vn -0.000000 -0.897041 -0.441947
vn 0.000000 0.596070 0.802932
vn 0.000000 0.000000 1.000000
vn 0.000000 0.999200 -0.040004
vn -0.000000 -0.929504 -0.368813
vn -0.000000 -0.897041 -0.441947
vn -0.000008 0.654247 -0.756281
vn 0.534785 -0.654234 -0.534773
vn 0.000008 -0.654258 -0.756271
vn 0.534774 0.654234 -0.534785
vn 0.756271 -0.654258 0.000008
vn 0.534785 -0.654234 -0.534773
vn 0.756271 0.654258 -0.000008
vn 0.534774 -0.654234 0.534785
vn 0.534785 0.654234 0.534773
vn -0.000009 -0.654247 0.756281
vn 0.534774 -0.654234 0.534785
vn 0.000008 0.654258 0.756271
vn -0.534778 -0.654245 0.534767
vn -0.534774 0.654234 0.534785
vn -0.756271 -0.654258 -0.000007
vn -0.534778 -0.654245 0.534767
vn -0.534778 0.654245 -0.534767
vn 0.000005 0.833350 -0.552746
vn -0.000008 0.654247 -0.756281
vn -0.756271 0.654258 0.000007
vn -0.534774 -0.654234 -0.534784
vn -0.534778 0.654245 -0.534767
vn -0.534774 -0.654234 -0.534784
vn 0.756271 0.654258 -0.000008
vn 0.390846 0.833350 0.390854
vn 0.534785 0.654234 0.534773
vn -0.000005 -0.833352 -0.552743
vn -0.549003 -0.630224 -0.549011
vn -0.390853 -0.833350 -0.390847
vn 0.000003 -0.833350 0.552745
vn 0.548993 -0.630240 0.549003
vn 0.390854 -0.833350 0.390847
vn 0.390854 0.833350 -0.390847
vn 0.534774 0.654234 -0.534785
vn -0.756271 -0.654258 -0.000007
vn -0.390845 -0.833352 0.390852
vn -0.534778 -0.654245 0.534767
vn -0.756271 0.654258 0.000007
vn -0.390854 0.833350 0.390847
vn -0.552743 0.833352 -0.000006
vn -0.000009 -0.654247 0.756281
vn 0.390854 -0.833350 0.390847
vn 0.534774 -0.654234 0.534785
vn 0.000008 0.654258 0.756271
vn -0.000006 0.833352 0.552743
vn 0.756271 -0.654258 0.000008
vn 0.390847 -0.833350 -0.390854
vn 0.534785 -0.654234 -0.534773
vn -0.390853 -0.833350 -0.390847
vn -0.552742 -0.833352 0.000005
vn 0.552743 0.833352 0.000005
vn -0.390845 0.833351 -0.390853
vn 0.000003 -0.833350 0.552745
vn -0.534774 0.654234 0.534785
vn 0.552743 -0.833352 -0.000005
vn 0.000008 -0.654258 -0.756271
vn -0.534774 -0.654234 -0.534784
vn -0.000005 -0.833352 -0.552743
vn -0.776384 0.630260 0.000007
vn 0.000006 0.630246 0.776396
vn 0.776384 0.630261 -0.000006
vn -0.548992 -0.630257 0.548985
vn -0.776393 -0.630249 -0.000006
vn -0.549003 -0.630224 -0.549011
vn 0.390846 0.833350 0.390854
vn 0.000006 0.630246 0.776396
vn -0.000006 0.833352 0.552743
vn 0.390847 -0.833350 -0.390854
vn 0.000004 -0.630249 -0.776393
vn -0.390845 0.833351 -0.390853
vn -0.000007 0.630245 -0.776396
vn 0.000005 0.833350 -0.552746
vn -0.390845 -0.833352 0.390852
vn -0.000007 -0.630263 0.776382
vn 0.548989 0.630247 -0.548998
vn 0.390854 0.833350 -0.390847
vn -0.548989 0.630248 0.548999
vn -0.390854 0.833350 0.390847
vn 0.552743 -0.833352 -0.000005
vn 0.548993 -0.630257 -0.548984
vn 0.390847 -0.833350 -0.390854
vn -0.552742 -0.833352 0.000005
vn -0.548992 -0.630257 0.548985
vn -0.390845 -0.833352 0.390852
vn 0.390854 0.833350 -0.390847
vn 0.776384 0.630261 -0.000006
vn 0.552743 0.833352 0.000005
vn -0.390854 0.833350 0.390847
vn -0.776384 0.630260 0.000007
vn -0.552743 0.833352 -0.000006
vn 0.390854 -0.833350 0.390847
vn 0.776381 -0.630264 0.000006
vn -0.390853 -0.833350 -0.390847
vn -0.776393 -0.630249 -0.000006
vn 0.548998 0.630247 0.548989
vn 0.390846 0.833350 0.390854
vn -0.548998 0.630248 -0.548989
vn -0.390845 0.833351 -0.390853
vn -0.628221 0.613436 -0.478576
vn 0.708495 0.536458 0.458527
vn 0.502749 0.541032 -0.674187
vn -0.628221 0.613436 -0.478576
vn 0.502734 -0.541018 -0.674209
vn -0.628215 -0.613436 -0.478583
vn -0.423992 -0.612797 0.666867
vn 0.708495 0.536458 0.458527
vn -0.423987 0.612797 0.666870
vn -0.628215 -0.613436 -0.478583
vn 0.708501 -0.536472 0.458503
vn -0.423992 -0.612797 0.666867
vn -0.818200 -0.333995 0.467971
vn -0.423987 0.612797 0.666870
vn -0.423992 -0.612797 0.666867
vn 0.863524 0.313146 -0.395304
vn 0.708495 0.536458 0.458527
vn 0.502749 0.541032 -0.674187
vn -0.353120 0.603365 0.715022
vn 0.746211 -0.544671 0.382755
vn 0.746203 0.544666 0.382779
vn -0.691812 -0.599740 -0.402129
vn 0.746211 -0.544671 0.382755
vn -0.353093 -0.603345 0.715053
vn -0.691822 0.599757 -0.402087
vn 0.746203 0.544666 0.382779
vn 0.401335 0.561177 -0.723886
vn -0.691822 0.599757 -0.402087
vn 0.401340 -0.561176 -0.723884
vn -0.691812 -0.599740 -0.402129
vn 0.401340 -0.561176 -0.723884
vn -0.721240 -0.434464 0.539494
vn -0.353120 0.603365 0.715022
vn -0.353093 -0.603345 0.715053
vn 0.974172 0.214838 0.069519
vn 0.000000 -0.897042 -0.441945
vn -0.615430 -0.732628 -0.290692
vn -0.807867 -0.528685 -0.260467
vn -0.807867 -0.528685 -0.260467
vn -1.000000 0.000000 0.000000
vn -1.000000 0.000000 0.000000
vn 0.000000 0.999502 -0.031551
vn -0.786738 0.581696 -0.206575
vn 0.087227 0.966344 -0.242015
vn 0.151852 0.810388 0.565874
vn -0.675809 0.106460 0.729348
vn -0.006721 0.141794 0.989873
vn -0.596139 0.624990 0.503991
vn -1.000000 0.000000 0.000000
vn -0.675809 0.106460 0.729348
vn -0.714650 -0.699370 -0.012561
vn -0.786738 0.581696 -0.206575
vn 0.000000 -0.897042 -0.441945
vn -0.714650 -0.699370 -0.012561
vn 0.000000 -0.999839 -0.017958
vn -0.694578 0.718852 0.028516
vn 0.000000 -0.999944 0.010589
vn -0.615430 -0.732628 -0.290692
vn 0.000000 -0.929499 -0.368824
vn -0.729888 -0.683528 0.007238
vn -0.615430 -0.732628 -0.290692
vn -0.557938 0.561006 -0.611537
vn -0.710113 0.702654 -0.044917
vn -0.710137 -0.703668 -0.023608
vn 0.000000 -0.999999 -0.001253
vn -0.557937 -0.579291 -0.594245
vn 0.000000 0.684459 -0.729051
vn 0.000000 -0.706234 -0.707978
vn -0.710113 0.702654 -0.044917
vn -0.557937 -0.579291 -0.594245
vn 0.000000 -0.706234 -0.707978
vn 0.000000 -0.737464 0.675387
vn 0.000000 -0.737464 0.675387
vn -0.729888 -0.683528 0.007238
vn 0.924626 -0.324559 -0.199318
vn -0.300979 0.647882 -0.699757
vn -0.312415 -0.692319 -0.650455
vn -0.863515 -0.313145 -0.395325
vn -0.708501 -0.536471 0.458503
vn -0.975069 -0.204320 0.086572
vn 0.818200 -0.333995 0.467971
vn -0.320455 0.605240 0.728693
vn 0.848692 0.317470 0.423007
vn -0.312415 -0.692319 -0.650455
vn 0.818200 -0.333995 0.467971
vn 0.924626 -0.324559 -0.199318
vn 0.848692 0.317470 0.423007
vn -0.300979 0.647882 -0.699757
vn 0.941599 0.304048 -0.144731
vn -0.863524 0.313146 -0.395305
vn 0.721243 0.434464 0.539489
vn -0.975067 0.204318 0.086595
vn -0.975067 0.204318 0.086595
vn 0.628215 -0.613436 -0.478583
vn 0.941599 0.304048 -0.144731
vn 0.924626 -0.324559 -0.199318
vn 0.628220 0.613436 -0.478577
vn 0.848692 0.317470 0.423007
vn 0.691816 -0.599758 -0.402096
vn 0.964791 0.227240 -0.132439
vn 0.964790 -0.227238 -0.132452
vn 0.964790 -0.227238 -0.132452
vn -0.863524 0.313146 -0.395305
vn -0.863515 -0.313145 -0.395325
vn 0.721243 0.434464 0.539489
vn -0.975069 -0.204320 0.086572
vn -0.975067 0.204318 0.086595
vn 0.721239 -0.434464 0.539495
vn -0.863515 -0.313145 -0.395325
vn -0.975069 -0.204320 0.086572
vn -0.812283 0.337187 -0.475921
vn -0.458489 0.615441 0.641109
vn -0.974172 0.214838 0.069519
vn -0.974174 -0.214842 0.069486
vn -0.746204 0.544670 0.382772
vn -0.974172 0.214838 0.069519
vn 0.691818 0.599740 -0.402119
vn 0.721243 0.434464 0.539489
vn -0.401340 0.561180 -0.723880
vn -0.812272 -0.337184 -0.475943
vn -0.812283 0.337187 -0.475921
vn -0.458496 -0.615431 0.641114
vn -0.692424 0.554404 -0.461720
vn -0.692422 -0.554420 -0.461703
vn -0.692422 -0.554420 -0.461703
vn -0.812283 0.337187 -0.475921
vn -0.812272 -0.337184 -0.475943
vn -0.458489 0.615441 0.641109
vn -0.974174 -0.214842 0.069486
vn -0.974172 0.214838 0.069519
vn -0.458496 -0.615431 0.641114
vn -0.812272 -0.337184 -0.475943
vn -0.974174 -0.214842 0.069486
vn -0.519808 -0.678774 -0.518715
vn -0.519808 -0.678774 -0.518715
vn -0.754260 -0.656576 0.000008
vn 0.462489 -0.743182 -0.483513
vn -0.519801 -0.678772 0.518725
vn -0.754260 -0.656576 0.000008
vn -0.519801 0.678772 -0.518725
vn -0.519808 -0.678774 -0.518715
vn -0.519801 0.678772 -0.518725
vn 0.000000 0.649852 -0.760061
vn -0.519801 -0.678772 0.518725
vn -0.754260 0.656576 -0.000008
vn 0.462495 -0.743182 0.483507
vn -0.519809 0.678774 0.518715
vn -0.519801 -0.678772 0.518725
vn 0.000000 -0.649851 0.760061
vn 0.462495 0.743182 -0.483507
vn -0.754260 0.656576 -0.000008
vn -0.519809 0.678774 0.518715
vn 0.462489 0.743182 0.483513
vn 0.462495 -0.743182 0.483507
vn 0.462489 0.743182 0.483513
vn 0.637553 -0.770406 -0.000005
vn 0.462489 0.743182 0.483513
vn 0.637553 0.770406 0.000005
vn 0.462489 -0.743182 -0.483513
vn 0.462495 0.743182 -0.483507
vn 0.462495 0.743182 -0.483507
vn 0.402385 0.914761 0.036041
vn -0.000000 1.000000 -0.000000
vn 0.406226 0.913772 -0.000000
vn 0.000000 1.000000 -0.000000
vn 0.406225 0.913773 -0.000000
vn -0.000000 0.968215 -0.250120
vn 0.369016 0.882614 -0.291239
vn 0.151852 0.810388 0.565874
vn 0.402385 0.914761 0.036041
vn -0.636360 0.728658 -0.253186
vn -0.703446 0.710749 -0.000000
vn 0.723624 -0.690193 0.001206
vn 0.581321 0.553809 -0.596121
vn 0.691306 0.722561 -0.001262
vn 0.581321 0.553809 -0.596121
vn -0.691307 0.722560 -0.001262
vn 0.691306 0.722561 -0.001262
vn -0.573596 -0.600155 -0.557495
vn 0.723624 -0.690193 0.001206
vn -0.723624 -0.690193 0.001205
vn -0.573596 -0.600155 -0.557495
vn 0.581321 0.553809 -0.596121
vn 0.573590 -0.600142 -0.557516
vn -0.670593 -0.737997 0.075270
vn 0.688053 -0.679030 0.255932
vn -0.688057 -0.679027 0.255928
vn 0.747678 0.660634 -0.067380
vn -0.727209 0.642307 -0.242091
vn 0.727213 0.642305 -0.242087
vn 0.688053 -0.679030 0.255932
vn 0.747678 0.660634 -0.067380
vn 0.727213 0.642305 -0.242087
vn -0.581315 0.553797 -0.596139
vn -0.723624 -0.690193 0.001205
vn -0.691307 0.722560 -0.001262
vn -0.557404 0.702692 0.442182
vn 0.604621 -0.424214 0.674148
vn 0.604621 -0.424214 0.674148
vn -0.557404 0.702692 0.442182
vn -0.604603 -0.424223 0.674159
vn -0.604603 -0.424223 0.674159
vn -0.727209 0.642307 -0.242091
vn -0.688057 -0.679027 0.255928
vn -0.747671 0.660642 -0.067382
vn 0.604621 -0.424214 0.674148
vn 0.557385 0.702705 0.442185
vn -0.670593 -0.737997 0.075270
vn 0.670585 -0.738004 0.075272
vn -0.747671 0.660642 -0.067382
vn 0.670585 -0.738004 0.075272
vn -0.577361 -0.577333 -0.577357
vn -0.577330 -0.577360 0.577360
vn -0.577330 0.577360 -0.577360
vn -0.577361 -0.577333 -0.577357
vn -0.577361 0.577333 0.577357
vn -0.577330 -0.577360 0.577360
vn -0.577361 -0.577333 -0.577357
vn -0.577361 0.577333 0.577357
vn -0.577330 0.577360 -0.577360
vn -0.596139 0.624990 0.503991
vn -0.694578 0.718852 0.028516
vn -0.703446 0.710749 -0.000000
vn 0.369016 0.882614 -0.291239
vn -0.636360 0.728658 -0.253186
vn -0.703436 0.710758 -0.000000
vn 0.406225 0.913773 -0.000000
vn 0.406226 0.913772 -0.000000
vn -0.572885 -0.604446 0.553578
vn -0.557937 -0.579291 -0.594245
vn -0.710137 -0.703668 -0.023608
vn 0.000000 0.684459 -0.729051
vn -0.534785 -0.654234 -0.534773
vn 0.000008 0.654247 -0.756281
vn -0.000008 -0.654258 -0.756271
vn -0.756271 -0.654258 0.000008
vn -0.534774 0.654234 -0.534785
vn -0.534785 -0.654234 -0.534773
vn -0.534774 -0.654234 0.534785
vn -0.756271 0.654258 -0.000008
vn 0.000009 -0.654247 0.756281
vn -0.534785 0.654234 0.534773
vn -0.534774 -0.654234 0.534785
vn 0.534778 -0.654245 0.534767
vn -0.000008 0.654258 0.756271
vn 0.756271 -0.654258 -0.000007
vn 0.534774 0.654234 0.534785
vn 0.534778 -0.654245 0.534767
vn -0.000005 0.833350 -0.552746
vn 0.534778 0.654245 -0.534767
vn 0.000008 0.654247 -0.756281
vn 0.534774 -0.654234 -0.534784
vn 0.756271 0.654258 0.000007
vn 0.534778 0.654245 -0.534767
vn 0.534774 -0.654234 -0.534784
vn -0.390847 0.833350 0.390854
vn -0.756271 0.654258 -0.000008
vn -0.534785 0.654234 0.534773
vn 0.548984 -0.630257 -0.548992
vn 0.000005 -0.833352 -0.552743
vn 0.390853 -0.833350 -0.390847
vn -0.548984 -0.630257 0.548993
vn -0.000003 -0.833350 0.552745
vn -0.390854 -0.833350 0.390847
vn -0.390854 0.833350 -0.390847
vn -0.534774 0.654234 -0.534785
vn 0.390845 -0.833352 0.390852
vn 0.756271 -0.654258 -0.000007
vn 0.534778 -0.654245 0.534767
vn 0.756271 0.654258 0.000007
vn 0.390854 0.833350 0.390847
vn 0.534774 0.654234 0.534785
vn -0.390854 -0.833350 0.390847
vn 0.000009 -0.654247 0.756281
vn -0.534774 -0.654234 0.534785
vn -0.000008 0.654258 0.756271
vn -0.390847 -0.833350 -0.390854
vn -0.756271 -0.654258 0.000008
vn -0.534785 -0.654234 -0.534773
vn 0.390853 -0.833350 -0.390847
vn 0.534774 -0.654234 -0.534784
vn 0.390845 0.833351 -0.390853
vn -0.000003 -0.833350 0.552745
vn -0.000008 -0.654258 -0.756271
vn -0.000006 0.630260 0.776384
vn 0.776396 0.630245 0.000007
vn 0.000007 0.630260 -0.776384
vn -0.776381 -0.630264 0.000006
vn -0.549002 -0.630240 -0.548993
vn 0.549011 -0.630224 0.549003
vn -0.000006 0.630260 0.776384
vn -0.390847 0.833350 0.390854
vn 0.000006 0.833352 0.552742
vn -0.000004 -0.630263 -0.776381
vn -0.390847 -0.833350 -0.390854
vn 0.000007 0.630260 -0.776384
vn 0.390845 0.833351 -0.390853
vn -0.000005 0.833350 -0.552746
vn 0.000007 -0.630248 0.776394
vn 0.390845 -0.833352 0.390852
vn -0.548989 0.630247 -0.548998
vn -0.390854 0.833350 -0.390847
vn 0.548989 0.630248 0.548999
vn 0.390854 0.833350 0.390847
vn -0.549002 -0.630240 -0.548993
vn -0.552743 -0.833352 -0.000005
vn -0.390847 -0.833350 -0.390854
vn 0.549011 -0.630224 0.549003
vn 0.552742 -0.833352 0.000005
vn 0.390845 -0.833352 0.390852
vn -0.776395 0.630246 -0.000006
vn -0.390854 0.833350 -0.390847
vn -0.552743 0.833352 0.000005
vn 0.776396 0.630245 0.000007
vn 0.390854 0.833350 0.390847
vn 0.552743 0.833352 -0.000006
vn -0.776381 -0.630264 0.000006
vn -0.390854 -0.833350 0.390847
vn 0.776393 -0.630249 -0.000006
vn 0.390853 -0.833350 -0.390847
vn -0.548998 0.630247 0.548989
vn -0.390847 0.833350 0.390854
vn 0.548998 0.630248 -0.548989
vn 0.390845 0.833351 -0.390853
vn 0.628220 0.613436 -0.478577
vn -0.708495 0.536458 0.458527
vn 0.423987 0.612797 0.666870
vn -0.502734 -0.541019 -0.674209
vn 0.628220 0.613436 -0.478577
vn 0.628215 -0.613436 -0.478583
vn -0.708495 0.536458 0.458527
vn 0.423992 -0.612796 0.666867
vn 0.423987 0.612797 0.666870
vn -0.708501 -0.536471 0.458503
vn 0.628215 -0.613436 -0.478583
vn 0.423992 -0.612796 0.666867
vn 0.423987 0.612797 0.666870
vn 0.818200 -0.333995 0.467971
vn -0.708495 0.536458 0.458527
vn -0.863524 0.313146 -0.395305
vn -0.502749 0.541032 -0.674187
vn -0.746204 0.544670 0.382772
vn 0.353119 -0.603361 0.715026
vn 0.353094 0.603348 0.715049
vn -0.746210 -0.544668 0.382763
vn 0.691816 -0.599758 -0.402096
vn 0.353119 -0.603361 0.715026
vn 0.691818 0.599740 -0.402119
vn -0.746204 0.544670 0.382772
vn 0.353094 0.603348 0.715049
vn 0.691816 -0.599758 -0.402096
vn -0.401340 0.561180 -0.723880
vn 0.691818 0.599740 -0.402119
vn -0.746210 -0.544668 0.382763
vn 0.353094 0.603348 0.715049
vn 0.721239 -0.434464 0.539495
vn 0.615420 -0.732631 -0.290705
vn 0.710113 0.702654 -0.044917
vn 0.596139 0.624990 0.503991
vn 0.807874 -0.528679 -0.260457
vn 0.557938 0.561006 -0.611537
vn 0.000000 -0.706220 -0.707992
vn 0.572885 -0.604446 0.553578
vn -0.312325 0.647404 -0.695213
vn -0.941599 0.304048 -0.144731
vn -0.848692 0.317470 0.423007
vn -0.924626 -0.324559 -0.199318
vn -0.318248 0.606303 0.728777
vn 0.975067 0.204319 0.086594
vn -0.964791 0.227240 -0.132438
vn -0.721240 -0.434464 0.539494
vn -0.964790 -0.227238 -0.132452
vn 0.974172 0.214838 0.069519
vn 0.458489 0.615441 0.641109
vn 0.692424 0.554404 -0.461720
vn 0.458496 -0.615431 0.641114
vn 0.692422 -0.554420 -0.461703
vn 0.519801 0.678772 -0.518726
vn 0.519809 0.678774 0.518715
vn 0.000000 0.649832 0.760078
vn -0.000000 -0.764818 0.644247
vn -0.462495 -0.743182 0.483507
vn -0.462489 -0.743182 -0.483513
vn 0.000000 0.999351 0.036020
vn 0.000000 0.596070 0.802932
vn -0.691306 0.722561 -0.001262
vn 0.581315 0.553797 -0.596139
vn -0.573590 -0.600142 -0.557516
vn 0.581315 0.553797 -0.596139
vn 0.573596 -0.600155 -0.557495
vn -0.557385 0.702705 0.442185
vn 0.604603 -0.424223 0.674159
vn -0.557385 0.702705 0.442185
vn 0.557404 0.702692 0.442182
vn 0.670593 -0.737997 0.075270
vn -0.557385 0.702705 0.442185
vn -0.333377 0.666608 -0.666704
vn 0.577330 0.577360 -0.577360
vn 0.577361 0.577333 0.577357
vn -0.333282 0.666691 0.666668
vn 0.577330 -0.577360 0.577360
vn -0.333282 0.666691 0.666668
vn 0.534774 0.654234 -0.534785
vn 0.534785 0.654234 0.534773
vn -0.534774 0.654234 0.534785
vn -0.534778 0.654245 -0.534767
vn 0.548989 0.630247 -0.548998
vn -0.000007 0.630245 -0.776396
vn -0.548998 0.630248 -0.548989
vn -0.548989 0.630248 0.548999
vn 0.548998 0.630247 0.548989
vn 0.000004 -0.630249 -0.776393
vn 0.548993 -0.630257 -0.548984
vn 0.776381 -0.630264 0.000006
vn 0.548993 -0.630240 0.549003
vn -0.000007 -0.630263 0.776382
vn 0.548998 0.630247 0.548989
vn 0.548993 -0.630257 -0.548984
vn -0.548998 0.630248 -0.548989
vn -0.548992 -0.630257 0.548985
vn 0.548989 0.630247 -0.548998
vn -0.548989 0.630248 0.548999
vn 0.548993 -0.630240 0.549003
vn -0.549003 -0.630224 -0.549011
vn -0.423987 0.612797 0.666870
vn 0.502749 0.541032 -0.674187
vn 0.708501 -0.536472 0.458503
vn 0.502734 -0.541018 -0.674209
vn -0.353093 -0.603345 0.715053
vn 0.401340 -0.561176 -0.723884
vn -0.353120 0.603365 0.715022
vn 0.401335 0.561177 -0.723886
vn 0.000000 -0.929499 -0.368824
vn -0.596139 0.624990 0.503991
vn -0.807867 -0.528685 -0.260467
vn -0.703436 0.710758 -0.000000
vn -0.557938 0.561006 -0.611537
vn -0.557938 0.561006 -0.611537
vn -0.572885 -0.604446 0.553578
vn -0.572885 -0.604446 0.553578
vn 0.941599 0.304048 -0.144731
vn -0.502734 -0.541019 -0.674209
vn -0.320455 0.605240 0.728693
vn 0.964791 0.227240 -0.132439
vn 0.964791 0.227240 -0.132439
vn 0.721239 -0.434464 0.539495
vn 0.964790 -0.227238 -0.132452
vn -0.692424 0.554404 -0.461720
vn -0.401333 -0.561172 -0.723890
vn -0.458489 0.615441 0.641109
vn -0.692424 0.554404 -0.461720
vn -0.458496 -0.615431 0.641114
vn -0.692422 -0.554420 -0.461703
vn -0.519801 0.678772 -0.518725
vn 0.637553 -0.770406 -0.000005
vn -0.519809 0.678774 0.518715
vn 0.637553 0.770406 0.000005
vn 0.462495 -0.743182 0.483507
vn 0.462489 -0.743182 -0.483513
vn 0.000000 0.999351 0.036020
vn 0.573590 -0.600142 -0.557516
vn -0.581315 0.553797 -0.596139
vn 0.573590 -0.600142 -0.557516
vn -0.581315 0.553797 -0.596139
vn -0.573596 -0.600155 -0.557495
vn 0.557385 0.702705 0.442185
vn -0.604603 -0.424223 0.674159
vn 0.557385 0.702705 0.442185
vn -0.557404 0.702692 0.442182
vn -0.577330 0.577360 -0.577360
vn -0.577361 0.577333 0.577357
vn -0.577330 -0.577360 0.577360
vn -0.534774 0.654234 -0.534785
vn -0.534785 0.654234 0.534773
vn 0.534774 0.654234 0.534785
vn 0.534778 0.654245 -0.534767
vn -0.552743 0.833352 0.000005
vn 0.552742 -0.833352 0.000005
vn 0.552743 0.833352 -0.000006
vn 0.000006 0.833352 0.552742
vn -0.552743 -0.833352 -0.000005
vn 0.000005 -0.833352 -0.552743
vn -0.548989 0.630247 -0.548998
vn -0.776395 0.630246 -0.000006
vn -0.548998 0.630247 0.548989
vn 0.548989 0.630248 0.548999
vn 0.548998 0.630248 -0.548989
vn -0.000004 -0.630263 -0.776381
vn 0.548984 -0.630257 -0.548992
vn 0.776393 -0.630249 -0.000006
vn 0.000007 -0.630248 0.776394
vn -0.548984 -0.630257 0.548993
vn -0.548998 0.630247 0.548989
vn -0.549002 -0.630240 -0.548993
vn 0.548998 0.630248 -0.548989
vn 0.549011 -0.630224 0.549003
vn -0.548989 0.630247 -0.548998
vn 0.548989 0.630248 0.548999
vn -0.548984 -0.630257 0.548993
vn 0.548984 -0.630257 -0.548992
vn -0.502749 0.541032 -0.674187
vn -0.502749 0.541032 -0.674187
vn -0.708501 -0.536471 0.458503
vn -0.502734 -0.541019 -0.674209
vn 0.423992 -0.612796 0.666867
vn -0.746210 -0.544668 0.382763
vn -0.401333 -0.561172 -0.723890
vn -0.401340 0.561180 -0.723880
vn -0.401333 -0.561172 -0.723890
vn 0.353119 -0.603361 0.715026
f 1/1/1 2/2/2 3/3/3
f 4/4/4 5/5/5 6/6/6
f 7/7/7 8/8/8 9/9/9
f 10/10/10 11/11/11 12/12/12
f 13/13/13 14/14/14 15/15/15
f 9/9/9 16/16/16 17/17/17
f 18/18/18 19/19/19 4/4/4
f 20/20/20 21/21/21 22/22/22
f 5/5/5 23/23/23 13/13/13
f 24/24/24 25/25/25 26/26/26
f 5/5/5 27/27/27 6/6/6
f 8/8/8 28/28/28 29/29/29
f 30/30/30 31/31/31 32/32/32
f 33/33/33 34/34/34 22/22/22
f 35/35/35 36/36/36 37/37/37
f 32/32/32 38/38/38 39/39/39
f 40/40/40 41/41/41 34/34/34
f 12/12/12 42/42/42 43/43/43
f 27/27/27 15/15/15 44/44/44
f 45/45/45 46/46/46 25/25/25
f 47/47/47 48/48/48 49/49/49
f 50/50/50 51/51/51 52/52/52
f 53/53/53 54/54/54 55/55/55
f 56/56/56 57/57/57 58/58/58
f 59/59/59 60/60/60 61/61/61
f 62/62/62 63/63/63 64/64/64
f 65/65/65 66/66/66 67/67/67
f 68/68/68 54/54/54 69/69/69
f 70/70/70 71/71/71 72/72/72
f 73/73/73 74/74/74 70/70/70
f 75/75/75 76/76/76 77/77/77
f 78/78/78 79/79/79 80/80/80
f 81/81/81 82/82/82 83/83/83
f 84/84/84 85/85/85 86/86/86
f 87/87/87 88/88/88 89/89/89
f 90/90/90 91/91/91 92/92/92
f 93/93/93 94/94/94 75/75/75
f 95/95/95 96/96/96 97/97/97
f 98/98/98 99/99/99 100/100/100
f 101/101/101 102/102/102 103/103/103
f 104/104/104 105/105/105 106/106/106
f 107/107/107 108/108/108 109/109/109
f 110/110/110 111/111/111 112/112/112
f 113/113/113 114/114/114 115/115/115
f 116/116/116 117/117/117 118/118/118
f 119/119/119 120/120/120 121/121/121
f 122/122/122 123/123/123 124/124/124
f 125/125/125 126/126/126 120/120/120
f 116/116/116 127/127/127 110/110/110
f 128/128/128 129/129/129 130/130/130
f 131/131/131 132/132/132 117/117/117
f 133/133/133 134/134/134 135/135/135
f 135/135/135 136/136/136 137/137/137
f 133/133/133 124/124/124 138/138/138
f 139/139/139 140/140/140 141/141/141
f 142/142/142 143/143/143 144/144/144
f 144/144/144 145/145/145 146/146/146
f 147/147/147 148/148/148 149/149/149
f 150/150/150 151/151/151 152/152/152
f 153/153/153 152/152/152 154/154/154
f 155/155/155 154/154/154 156/156/156
f 157/157/157 158/158/158 159/159/159
f 19/19/19 160/160/160 161/161/161
f 5/5/5 161/161/161 162/162/162
f 163/163/163 164/164/164 165/165/165
f 166/166/166 167/167/167 168/168/168
f 169/169/169 170/170/170 171/171/171
f 172/172/172 173/173/173 174/174/174
f 175/175/175 176/176/176 177/177/177
f 178/178/178 179/179/179 180/180/180
f 181/181/181 182/182/182 183/183/183
f 184/184/184 185/185/185 186/186/186
f 180/180/180 187/187/187 178/178/178
f 177/177/177 188/188/188 175/175/175
f 189/189/189 190/190/190 191/191/191
f 192/192/192 193/193/193 194/194/194
f 194/194/194 195/195/195 192/192/192
f 196/196/196 197/197/197 181/181/181
f 195/195/195 184/184/184 186/186/186
f 198/198/198 171/171/171 176/176/176
f 199/199/199 168/168/168 179/179/179
f 182/182/182 163/163/163 183/183/183
f 200/200/200 201/201/201 202/202/202
f 203/203/203 204/204/204 205/205/205
f 206/206/206 207/207/207 208/208/208
f 209/209/209 210/210/210 211/211/211
f 212/212/212 213/213/213 214/214/214
f 215/215/215 216/216/216 217/217/217
f 159/159/159 218/218/218 219/219/219
f 17/17/17 220/220/220 221/221/221
f 222/222/222 223/223/223 220/220/220
f 224/224/224 219/219/219 223/223/223
f 25/25/25 225/225/225 226/226/226
f 10/10/10 43/43/43 227/227/227
f 34/34/34 228/228/228 229/229/229
f 230/230/230 37/37/37 231/231/231
f 22/22/22 229/229/229 20/20/20
f 232/232/232 29/29/29 233/233/233
f 26/26/26 226/226/226 234/234/234
f 33/33/33 21/21/21 235/235/235
f 7/7/7 17/17/17 221/221/221
f 12/12/12 236/236/236 237/237/237
f 9/9/9 232/232/232 238/238/238
f 3/3/3 239/239/239 240/240/240
f 241/241/241 242/242/242 243/243/243
f 244/244/244 245/245/245 246/246/246
f 247/247/247 248/248/248 245/245/245
f 249/249/249 250/250/250 251/251/251
f 252/252/252 253/253/253 250/250/250
f 254/254/254 255/255/255 256/256/256
f 257/257/257 258/258/258 259/259/259
f 260/260/260 261/261/261 255/255/255
f 262/262/262 243/243/243 263/263/263
f 264/264/264 265/265/265 266/266/266
f 267/267/267 268/268/268 269/269/269
f 270/270/270 271/271/271 272/272/272
f 259/259/259 273/273/273 274/274/274
f 275/275/275 276/276/276 277/277/277
f 278/278/278 279/279/279 280/280/280
f 281/281/281 282/282/282 283/283/283
f 284/284/284 265/265/265 285/285/285
f 286/286/286 287/287/287 288/288/288
f 275/275/275 289/289/289 290/290/290
f 264/264/264 273/273/273 291/291/291
f 278/278/278 292/292/292 257/257/257
f 277/277/277 293/293/293 281/281/281
f 284/284/284 279/279/279 294/294/294
f 286/286/286 282/282/282 295/295/295
f 296/296/296 289/289/289 297/297/297
f 296/296/296 287/287/287 298/298/298
f 299/299/299 300/300/300 301/301/301
f 302/302/302 303/303/303 304/304/304
f 305/305/305 306/306/306 307/307/307
f 308/308/308 309/309/309 267/267/267
f 310/310/310 311/311/311 312/312/312
f 313/313/313 314/314/314 270/270/270
f 312/312/312 315/315/315 316/316/316
f 307/307/307 317/317/317 318/318/318
f 319/319/319 320/320/320 321/321/321
f 322/322/322 323/323/323 324/324/324
f 325/325/325 326/326/326 327/327/327
f 328/328/328 329/329/329 330/330/330
f 331/331/331 332/332/332 319/319/319
f 333/333/333 334/334/334 322/322/322
f 327/327/327 335/335/335 336/336/336
f 330/330/330 337/337/337 338/338/338
f 339/339/339 340/340/340 341/341/341
f 342/342/342 343/343/343 344/344/344
f 345/345/345 346/346/346 347/347/347
f 348/348/348 349/349/349 350/350/350
f 351/351/351 352/352/352 73/73/73
f 351/351/351 71/71/71 353/353/353
f 354/354/354 355/355/355 68/68/68
f 53/53/53 356/356/356 354/354/354
f 357/357/357 358/358/358 359/359/359
f 360/360/360 361/361/361 362/362/362
f 363/363/363 364/364/364 365/365/365
f 366/366/366 367/367/367 368/368/368
f 95/95/95 92/92/92 369/369/369
f 370/370/370 371/371/371 93/93/93
f 370/370/370 76/76/76 372/372/372
f 97/97/97 91/91/91 373/373/373
f 374/374/374 375/375/375 376/376/376
f 377/377/377 378/378/378 379/379/379
f 380/380/380 381/381/381 382/382/382
f 383/383/383 384/384/384 385/385/385
f 386/386/386 387/387/387 388/388/388
f 382/382/382 16/16/16 238/238/238
f 389/389/389 379/379/379 390/390/390
f 391/391/391 392/392/392 393/393/393
f 394/394/394 378/378/378 387/387/387
f 395/395/395 396/396/396 397/397/397
f 398/398/398 378/378/378 399/399/399
f 380/380/380 400/400/400 401/401/401
f 390/390/390 402/402/402 389/389/389
f 403/403/403 33/33/33 393/393/393
f 404/404/404 405/405/405 406/406/406
f 407/407/407 408/408/408 402/402/402
f 409/409/409 40/40/40 403/403/403
f 42/42/42 385/385/385 410/410/410
f 398/398/398 388/388/388 387/387/387
f 411/411/411 412/412/412 395/395/395
f 413/413/413 414/414/414 415/415/415
f 416/416/416 417/417/417 418/418/418
f 419/419/419 420/420/420 421/421/421
f 422/422/422 423/423/423 424/424/424
f 425/425/425 426/426/426 427/427/427
f 428/428/428 429/429/429 430/430/430
f 417/417/417 431/431/431 418/418/418
f 432/432/432 433/433/433 434/434/434
f 435/435/435 436/436/436 433/433/433
f 437/437/437 438/438/438 439/439/439
f 440/440/440 441/441/441 442/442/442
f 443/443/443 444/444/444 445/445/445
f 446/446/446 447/447/447 448/448/448
f 449/449/449 450/450/450 451/451/451
f 452/452/452 453/453/453 454/454/454
f 455/455/455 456/456/456 438/438/438
f 457/457/457 458/458/458 459/459/459
f 460/460/460 461/461/461 462/462/462
f 463/463/463 464/464/464 465/465/465
f 466/466/466 467/467/467 468/468/468
f 469/469/469 470/470/470 471/471/471
f 111/111/111 472/472/472 112/112/112
f 473/473/473 113/113/113 115/115/115
f 474/474/474 475/475/475 476/476/476
f 477/477/477 478/478/478 479/479/479
f 480/480/480 123/123/123 481/481/481
f 482/482/482 483/483/483 477/477/477
f 484/484/484 474/474/474 472/472/472
f 129/129/129 485/485/485 486/486/486
f 476/476/476 132/132/132 487/487/487
f 488/488/488 489/489/489 490/490/490
f 136/136/136 490/490/490 137/137/137
f 489/489/489 491/491/491 480/480/480
f 492/492/492 139/139/139 493/493/493
f 494/494/494 495/495/495 496/496/496
f 497/497/497 496/496/496 498/498/498
f 148/148/148 499/499/499 149/149/149
f 500/500/500 501/501/501 502/502/502
f 502/502/502 503/503/503 504/504/504
f 504/504/504 505/505/505 506/506/506
f 507/507/507 157/157/157 508/508/508
f 379/379/379 509/509/509 390/390/390
f 378/378/378 510/510/510 379/379/379
f 511/511/511 512/512/512 513/513/513
f 514/514/514 515/515/515 516/516/516
f 517/517/517 518/518/518 519/519/519
f 520/520/520 521/521/521 522/522/522
f 523/523/523 524/524/524 525/525/525
f 526/526/526 527/527/527 528/528/528
f 529/529/529 530/530/530 531/531/531
f 532/532/532 533/533/533 534/534/534
f 535/535/535 528/528/528 527/527/527
f 536/536/536 525/525/525 524/524/524
f 537/537/537 538/538/538 539/539/539
f 540/540/540 541/541/541 542/542/542
f 543/543/543 542/542/542 541/541/541
f 544/544/544 531/531/531 545/545/545
f 543/543/543 533/533/533 546/546/546
f 519/519/519 547/547/547 523/523/523
f 516/516/516 548/548/548 526/526/526
f 511/511/511 530/530/530 549/549/549
f 550/550/550 203/203/203 205/205/205
f 551/551/551 552/552/552 553/553/553
f 210/210/210 554/554/554 555/555/555
f 213/213/213 556/556/556 214/214/214
f 557/557/557 215/215/215 558/558/558
f 559/559/559 508/508/508 560/560/560
f 561/561/561 562/562/562 563/563/563
f 564/564/564 565/565/565 561/561/561
f 560/560/560 566/566/566 564/564/564
f 225/225/225 395/395/395 226/226/226
f 410/410/410 384/384/384 567/567/567
f 568/568/568 403/403/403 569/569/569
f 406/406/406 230/230/230 231/231/231
f 569/569/569 393/393/393 392/392/392
f 232/232/232 570/570/570 380/380/380
f 226/226/226 397/397/397 234/234/234
f 33/33/33 391/391/391 393/393/393
f 381/381/381 562/562/562 382/382/382
f 236/236/236 385/385/385 237/237/237
f 232/232/232 382/382/382 238/238/238
f 239/239/239 374/374/374 240/240/240
f 571/571/571 572/572/572 573/573/573
f 574/574/574 575/575/575 576/576/576
f 577/577/577 578/578/578 574/574/574
f 579/579/579 580/580/580 581/581/581
f 582/582/582 583/583/583 579/579/579
f 584/584/584 585/585/585 586/586/586
f 587/587/587 588/588/588 589/589/589
f 590/590/590 591/591/591 584/584/584
f 573/573/573 592/592/592 593/593/593
f 594/594/594 595/595/595 596/596/596
f 597/597/597 598/598/598 599/599/599
f 600/600/600 601/601/601 602/602/602
f 603/603/603 589/589/589 604/604/604
f 605/605/605 606/606/606 607/607/607
f 608/608/608 609/609/609 610/610/610
f 611/611/611 612/612/612 613/613/613
f 614/614/614 594/594/594 596/596/596
f 615/615/615 616/616/616 617/617/617
f 606/606/606 618/618/618 619/619/619
f 595/595/595 603/603/603 604/604/604
f 620/620/620 608/608/608 588/588/588
f 621/621/621 607/607/607 612/612/612
f 609/609/609 614/614/614 610/610/610
f 616/616/616 611/611/611 613/613/613
f 618/618/618 622/622/622 619/619/619
f 622/622/622 615/615/615 617/617/617
f 623/623/623 624/624/624 625/625/625
f 626/626/626 627/627/627 628/628/628
f 629/629/629 630/630/630 631/631/631
f 632/632/632 633/633/633 598/598/598
f 634/634/634 635/635/635 636/636/636
f 637/637/637 638/638/638 601/601/601
f 639/639/639 636/636/636 640/640/640
f 641/641/641 631/631/631 642/642/642
f 643/643/643 644/644/644 645/645/645
f 646/646/646 647/647/647 648/648/648
f 649/649/649 650/650/650 651/651/651
f 652/652/652 653/653/653 654/654/654
f 655/655/655 656/656/656 644/644/644
f 657/657/657 658/658/658 647/647/647
f 659/659/659 651/651/651 660/660/660
f 661/661/661 654/654/654 662/662/662
f 663/663/663 664/664/664 665/665/665
f 666/666/666 667/667/667 668/668/668
f 669/669/669 670/670/670 671/671/671
f 672/672/672 673/673/673 674/674/674
f 675/675/675 676/676/676 436/436/436
f 676/676/676 432/432/432 434/434/434
f 677/677/677 678/678/678 431/431/431
f 679/679/679 416/416/416 678/678/678
f 680/680/680 681/681/681 682/682/682
f 683/683/683 684/684/684 685/685/685
f 686/686/686 687/687/687 688/688/688
f 689/689/689 690/690/690 691/691/691
f 458/458/458 692/692/692 452/452/452
f 693/693/693 694/694/694 456/456/456
f 694/694/694 437/437/437 439/439/439
f 453/453/453 459/459/459 454/454/454
f 1/1/1 695/695/695 2/2/2
f 4/4/4 19/19/19 5/5/5
f 7/7/7 696/696/696 8/8/8
f 10/10/10 697/697/697 11/11/11
f 13/13/13 23/23/23 14/14/14
f 9/9/9 238/238/238 16/16/16
f 18/18/18 30/30/30 19/19/19
f 20/20/20 698/698/698 21/21/21
f 5/5/5 162/162/162 23/23/23
f 24/24/24 45/45/45 25/25/25
f 5/5/5 13/13/13 27/27/27
f 8/8/8 696/696/696 28/28/28
f 30/30/30 18/18/18 31/31/31
f 33/33/33 40/40/40 34/34/34
f 35/35/35 699/699/699 36/36/36
f 32/32/32 31/31/31 38/38/38
f 40/40/40 700/700/700 41/41/41
f 12/12/12 237/237/237 42/42/42
f 27/27/27 13/13/13 15/15/15
f 45/45/45 701/701/701 46/46/46
f 47/47/47 702/702/702 48/48/48
f 50/50/50 703/703/703 51/51/51
f 53/53/53 69/69/69 54/54/54
f 56/56/56 704/704/704 57/57/57
f 59/59/59 705/705/705 60/60/60
f 62/62/62 706/706/706 63/63/63
f 65/65/65 707/707/707 66/66/66
f 68/68/68 355/355/355 54/54/54
f 70/70/70 74/74/74 71/71/71
f 73/73/73 352/352/352 74/74/74
f 75/75/75 94/94/94 76/76/76
f 78/78/78 708/708/708 79/79/79
f 81/81/81 709/709/709 82/82/82
f 84/84/84 710/710/710 85/85/85
f 87/87/87 711/711/711 88/88/88
f 90/90/90 373/373/373 91/91/91
f 93/93/93 371/371/371 94/94/94
f 95/95/95 369/369/369 96/96/96
f 98/98/98 712/712/712 99/99/99
f 101/101/101 713/713/713 102/102/102
f 104/104/104 714/714/714 105/105/105
f 107/107/107 715/715/715 108/108/108
f 110/110/110 127/127/127 111/111/111
f 113/113/113 716/716/716 114/114/114
f 116/116/116 131/131/131 117/117/117
f 119/119/119 125/125/125 120/120/120
f 122/122/122 481/481/481 123/123/123
f 125/125/125 717/717/717 126/126/126
f 116/116/116 118/118/118 127/127/127
f 128/128/128 718/718/718 129/129/129
f 131/131/131 487/487/487 132/132/132
f 133/133/133 138/138/138 134/134/134
f 135/135/135 134/134/134 136/136/136
f 133/133/133 122/122/122 124/124/124
f 139/139/139 719/719/719 140/140/140
f 142/142/142 720/720/720 143/143/143
f 144/144/144 143/143/143 145/145/145
f 147/147/147 721/721/721 148/148/148
f 150/150/150 722/722/722 151/151/151
f 153/153/153 150/150/150 152/152/152
f 155/155/155 153/153/153 154/154/154
f 157/157/157 723/723/723 158/158/158
f 19/19/19 30/30/30 160/160/160
f 5/5/5 19/19/19 161/161/161
f 163/163/163 724/724/724 164/164/164
f 166/166/166 725/725/725 167/167/167
f 169/169/169 726/726/726 170/170/170
f 172/172/172 727/727/727 173/173/173
f 175/175/175 198/198/198 176/176/176
f 178/178/178 199/199/199 179/179/179
f 181/181/181 197/197/197 182/182/182
f 184/184/184 728/728/728 185/185/185
f 180/180/180 729/729/729 187/187/187
f 177/177/177 730/730/730 188/188/188
f 189/189/189 731/731/731 190/190/190
f 192/192/192 732/732/732 193/193/193
f 194/194/194 733/733/733 195/195/195
f 196/196/196 734/734/734 197/197/197
f 195/195/195 733/733/733 184/184/184
f 198/198/198 169/169/169 171/171/171
f 199/199/199 166/166/166 168/168/168
f 182/182/182 724/724/724 163/163/163
f 200/200/200 735/735/735 201/201/201
f 203/203/203 736/736/736 204/204/204
f 206/206/206 737/737/737 207/207/207
f 209/209/209 738/738/738 210/210/210
f 212/212/212 739/739/739 213/213/213
f 215/215/215 740/740/740 216/216/216
f 159/159/159 158/158/158 218/218/218
f 17/17/17 222/222/222 220/220/220
f 222/222/222 224/224/224 223/223/223
f 224/224/224 159/159/159 219/219/219
f 25/25/25 46/46/46 225/225/225
f 10/10/10 12/12/12 43/43/43
f 34/34/34 41/41/41 228/228/228
f 230/230/230 35/35/35 37/37/37
f 22/22/22 34/34/34 229/229/229
f 232/232/232 8/8/8 29/29/29
f 26/26/26 25/25/25 226/226/226
f 33/33/33 22/22/22 21/21/21
f 7/7/7 9/9/9 17/17/17
f 12/12/12 11/11/11 236/236/236
f 9/9/9 8/8/8 232/232/232
f 3/3/3 2/2/2 239/239/239
f 241/241/241 741/741/741 242/242/242
f 244/244/244 247/247/247 245/245/245
f 247/247/247 742/742/742 248/248/248
f 249/249/249 252/252/252 250/250/250
f 252/252/252 743/743/743 253/253/253
f 254/254/254 260/260/260 255/255/255
f 257/257/257 292/292/292 258/258/258
f 260/260/260 744/744/744 261/261/261
f 262/262/262 241/241/241 243/243/243
f 264/264/264 291/291/291 265/265/265
f 267/267/267 309/309/309 268/268/268
f 270/270/270 314/314/314 271/271/271
f 259/259/259 258/258/258 273/273/273
f 275/275/275 290/290/290 276/276/276
f 278/278/278 294/294/294 279/279/279
f 281/281/281 293/293/293 282/282/282
f 284/284/284 266/266/266 265/265/265
f 286/286/286 295/295/295 287/287/287
f 275/275/275 297/297/297 289/289/289
f 264/264/264 274/274/274 273/273/273
f 278/278/278 280/280/280 292/292/292
f 277/277/277 276/276/276 293/293/293
f 284/284/284 285/285/285 279/279/279
f 286/286/286 283/283/283 282/282/282
f 296/296/296 298/298/298 289/289/289
f 296/296/296 288/288/288 287/287/287
f 301/301/301 745/745/745 746/746/746
f 746/746/746 747/747/747 299/299/299
f 299/299/299 748/748/748 300/300/300
f 300/300/300 749/749/749 301/301/301
f 301/301/301 746/746/746 299/299/299
f 304/304/304 750/750/750 751/751/751
f 751/751/751 752/752/752 304/304/304
f 752/752/752 753/753/753 304/304/304
f 753/753/753 754/754/754 304/304/304
f 754/754/754 302/302/302 304/304/304
f 305/305/305 755/755/755 306/306/306
f 308/308/308 756/756/756 309/309/309
f 310/310/310 757/757/757 311/311/311
f 313/313/313 758/758/758 314/314/314
f 312/312/312 311/311/311 315/315/315
f 307/307/307 306/306/306 317/317/317
f 319/319/319 332/332/332 320/320/320
f 322/322/322 334/334/334 323/323/323
f 325/325/325 759/759/759 326/326/326
f 328/328/328 760/760/760 329/329/329
f 331/331/331 761/761/761 332/332/332
f 333/333/333 762/762/762 334/334/334
f 327/327/327 326/326/326 335/335/335
f 330/330/330 329/329/329 337/337/337
f 339/339/339 763/763/763 340/340/340
f 342/342/342 764/764/764 343/343/343
f 345/345/345 765/765/765 346/346/346
f 348/348/348 766/766/766 349/349/349
f 351/351/351 353/353/353 352/352/352
f 351/351/351 72/72/72 71/71/71
f 354/354/354 356/356/356 355/355/355
f 53/53/53 55/55/55 356/356/356
f 357/357/357 767/767/767 358/358/358
f 360/360/360 768/768/768 361/361/361
f 363/363/363 769/769/769 364/364/364
f 366/366/366 770/770/770 367/367/367
f 95/95/95 90/90/90 92/92/92
f 370/370/370 372/372/372 371/371/371
f 370/370/370 77/77/77 76/76/76
f 97/97/97 96/96/96 91/91/91
f 374/374/374 771/771/771 375/375/375
f 377/377/377 399/399/399 378/378/378
f 380/380/380 401/401/401 381/381/381
f 383/383/383 772/772/772 384/384/384
f 386/386/386 394/394/394 387/387/387
f 382/382/382 562/562/562 16/16/16
f 389/389/389 377/377/377 379/379/379
f 391/391/391 773/773/773 392/392/392
f 394/394/394 774/774/774 378/378/378
f 395/395/395 412/412/412 396/396/396
f 398/398/398 387/387/387 378/378/378
f 380/380/380 570/570/570 400/400/400
f 390/390/390 407/407/407 402/402/402
f 403/403/403 40/40/40 33/33/33
f 404/404/404 775/775/775 405/405/405
f 407/407/407 776/776/776 408/408/408
f 409/409/409 700/700/700 40/40/40
f 42/42/42 237/237/237 385/385/385
f 398/398/398 777/777/777 388/388/388
f 411/411/411 778/778/778 412/412/412
f 413/413/413 779/779/779 414/414/414
f 416/416/416 780/780/780 417/417/417
f 419/419/419 58/58/58 420/420/420
f 422/422/422 61/61/61 423/423/423
f 425/425/425 781/781/781 426/426/426
f 428/428/428 782/782/782 429/429/429
f 417/417/417 677/677/677 431/431/431
f 432/432/432 435/435/435 433/433/433
f 435/435/435 675/675/675 436/436/436
f 437/437/437 455/455/455 438/438/438
f 440/440/440 783/783/783 441/441/441
f 443/443/443 784/784/784 444/444/444
f 446/446/446 785/785/785 447/447/447
f 449/449/449 786/786/786 450/450/450
f 452/452/452 692/692/692 453/453/453
f 455/455/455 693/693/693 456/456/456
f 457/457/457 787/787/787 458/458/458
f 460/460/460 788/788/788 461/461/461
f 463/463/463 789/789/789 464/464/464
f 466/466/466 790/790/790 467/467/467
f 469/469/469 791/791/791 470/470/470
f 111/111/111 484/484/484 472/472/472
f 473/473/473 792/792/792 113/113/113
f 474/474/474 793/793/793 475/475/475
f 477/477/477 483/483/483 478/478/478
f 480/480/480 491/491/491 123/123/123
f 482/482/482 794/794/794 483/483/483
f 484/484/484 793/793/793 474/474/474
f 129/129/129 718/718/718 485/485/485
f 476/476/476 475/475/475 132/132/132
f 488/488/488 795/795/795 489/489/489
f 136/136/136 488/488/488 490/490/490
f 489/489/489 795/795/795 491/491/491
f 492/492/492 719/719/719 139/139/139
f 494/494/494 796/796/796 495/495/495
f 497/497/497 494/494/494 496/496/496
f 148/148/148 797/797/797 499/499/499
f 500/500/500 798/798/798 501/501/501
f 502/502/502 501/501/501 503/503/503
f 504/504/504 503/503/503 505/505/505
f 507/507/507 723/723/723 157/157/157
f 379/379/379 510/510/510 509/509/509
f 378/378/378 774/774/774 510/510/510
f 511/511/511 799/799/799 512/512/512
f 514/514/514 800/800/800 515/515/515
f 517/517/517 801/801/801 518/518/518
f 520/520/520 802/802/802 521/521/521
f 523/523/523 547/547/547 524/524/524
f 526/526/526 548/548/548 527/527/527
f 529/529/529 549/549/549 530/530/530
f 532/532/532 803/803/803 533/533/533
f 535/535/535 804/804/804 528/528/528
f 536/536/536 805/805/805 525/525/525
f 537/537/537 806/806/806 538/538/538
f 540/540/540 807/807/807 541/541/541
f 543/543/543 546/546/546 542/542/542
f 544/544/544 529/529/529 531/531/531
f 543/543/543 534/534/534 533/533/533
f 519/519/519 518/518/518 547/547/547
f 516/516/516 515/515/515 548/548/548
f 511/511/511 513/513/513 530/530/530
f 550/550/550 808/808/808 203/203/203
f 551/551/551 809/809/809 552/552/552
f 210/210/210 738/738/738 554/554/554
f 213/213/213 810/810/810 556/556/556
f 557/557/557 740/740/740 215/215/215
f 559/559/559 507/507/507 508/508/508
f 561/561/561 565/565/565 562/562/562
f 564/564/564 566/566/566 565/565/565
f 560/560/560 508/508/508 566/566/566
f 225/225/225 411/411/411 395/395/395
f 410/410/410 385/385/385 384/384/384
f 568/568/568 409/409/409 403/403/403
f 406/406/406 405/405/405 230/230/230
f 569/569/569 403/403/403 393/393/393
f 232/232/232 233/233/233 570/570/570
f 226/226/226 395/395/395 397/397/397
f 33/33/33 235/235/235 391/391/391
f 381/381/381 563/563/563 562/562/562
f 236/236/236 383/383/383 385/385/385
f 232/232/232 380/380/380 382/382/382
f 239/239/239 771/771/771 374/374/374
f 571/571/571 811/811/811 572/572/572
f 574/574/574 578/578/578 575/575/575
f 577/577/577 812/812/812 578/578/578
f 579/579/579 583/583/583 580/580/580
f 582/582/582 813/813/813 583/583/583
f 584/584/584 591/591/591 585/585/585
f 587/587/587 620/620/620 588/588/588
f 590/590/590 814/814/814 591/591/591
f 573/573/573 572/572/572 592/592/592
f 594/594/594 815/815/815 595/595/595
f 597/597/597 632/632/632 598/598/598
f 600/600/600 637/637/637 601/601/601
f 603/603/603 587/587/587 589/589/589
f 605/605/605 816/816/816 606/606/606
f 608/608/608 817/817/817 609/609/609
f 611/611/611 621/621/621 612/612/612
f 614/614/614 818/818/818 594/594/594
f 615/615/615 819/819/819 616/616/616
f 606/606/606 816/816/816 618/618/618
f 595/595/595 815/815/815 603/603/603
f 620/620/620 817/817/817 608/608/608
f 621/621/621 605/605/605 607/607/607
f 609/609/609 818/818/818 614/614/614
f 616/616/616 819/819/819 611/611/611
f 618/618/618 820/820/820 622/622/622
f 622/622/622 820/820/820 615/615/615
f 625/625/625 821/821/821 822/822/822
f 822/822/822 823/823/823 623/623/623
f 623/623/623 824/824/824 624/624/624
f 624/624/624 825/825/825 625/625/625
f 625/625/625 822/822/822 623/623/623
f 627/627/627 826/826/826 628/628/628
f 826/826/826 827/827/827 628/628/628
f 827/827/827 828/828/828 628/628/628
f 628/628/628 829/829/829 830/830/830
f 830/830/830 626/626/626 628/628/628
f 629/629/629 831/831/831 630/630/630
f 632/632/632 832/832/832 633/633/633
f 634/634/634 833/833/833 635/635/635
f 637/637/637 834/834/834 638/638/638
f 639/639/639 634/634/634 636/636/636
f 641/641/641 629/629/629 631/631/631
f 643/643/643 655/655/655 644/644/644
f 646/646/646 657/657/657 647/647/647
f 649/649/649 835/835/835 650/650/650
f 652/652/652 836/836/836 653/653/653
f 655/655/655 837/837/837 656/656/656
f 657/657/657 838/838/838 658/658/658
f 659/659/659 649/649/649 651/651/651
f 661/661/661 652/652/652 654/654/654
f 663/663/663 839/839/839 664/664/664
f 666/666/666 840/840/840 667/667/667
f 669/669/669 841/841/841 670/670/670
f 672/672/672 842/842/842 673/673/673
f 675/675/675 843/843/843 676/676/676
f 676/676/676 843/843/843 432/432/432
f 677/677/677 679/679/679 678/678/678
f 679/679/679 780/780/780 416/416/416
f 680/680/680 844/844/844 681/681/681
f 683/683/683 845/845/845 684/684/684
f 686/686/686 846/846/846 687/687/687
f 689/689/689 847/847/847 690/690/690
f 458/458/458 787/787/787 692/692/692
f 693/693/693 848/848/848 694/694/694
f 694/694/694 848/848/848 437/437/437
f 453/453/453 457/457/457 459/459/459
