# Cube.001 -- imported by tools/import_asset_pack.py from defaultbow_01.fbx
o __pending__
v 0.036025 0.466998 -0.009541
v -0.054237 0.595236 0.009541
v 0.036025 0.466998 0.009541
v 0.177309 0.101208 -0.012922
v 0.182691 0.109518 0.016824
v 0.177309 0.101208 0.012922
v 0.180735 -0.000000 -0.025844
v 0.177309 0.101208 -0.012922
v 0.203117 -0.000000 -0.012922
v 0.036025 0.466998 -0.009541
v -0.064522 0.582300 -0.019083
v -0.054237 0.595236 -0.009542
v 0.133227 0.093425 0.012922
v 0.154104 0.103644 0.034137
v 0.124792 0.097587 0.017246
v 0.177309 0.101208 -0.012922
v 0.203117 0.000000 0.012922
v 0.203117 -0.000000 -0.012922
v 0.011213 0.446183 -0.009542
v -0.074808 0.569364 0.009541
v -0.074808 0.569364 -0.009542
v 0.077516 0.313143 -0.009541
v 0.072318 0.305865 0.014291
v 0.077516 0.313143 0.009541
v 0.177309 0.101208 0.012922
v 0.180735 0.000000 0.025844
v 0.203117 0.000000 0.012922
v -0.054237 0.595236 -0.009542
v -0.137044 0.712185 0.009541
v 0.077516 0.313143 0.009541
v 0.094976 0.315848 0.027607
v 0.092044 0.321022 0.019083
v 0.155268 0.097317 0.025844
v 0.143566 -0.000000 0.012922
v 0.094976 0.315848 -0.027607
v 0.072318 0.305865 -0.014291
v 0.023619 0.456590 0.019083
v -0.074808 0.569364 0.009541
v 0.011213 0.446183 0.009541
v 0.133227 0.093425 0.012922
v 0.143566 -0.000000 -0.012922
v 0.143566 -0.000000 0.012922
v 0.036025 0.466998 0.009541
v -0.064522 0.582300 0.019083
v 0.106571 0.328901 0.009541
v 0.115933 0.325232 -0.013259
v 0.106571 0.328901 -0.009541
v 0.143566 -0.000000 -0.012922
v 0.155268 0.097317 -0.025844
v 0.180735 0.000000 0.025844
v 0.143566 -0.000000 0.012922
v 0.143566 -0.000000 -0.012922
v 0.023619 0.456590 -0.019083
v -0.074808 0.569364 -0.009542
v 0.092044 0.321022 -0.019083
v 0.011213 0.446183 -0.009542
v 0.106571 0.328901 0.009541
v 0.077516 0.313143 0.009541
v 0.077516 0.313143 -0.009541
v 0.106571 0.328901 -0.009541
v 0.106571 0.328901 0.009541
v -0.150885 0.703156 0.019083
v -0.181973 0.819536 0.011745
v -0.164727 0.694126 0.009541
v -0.164727 0.694126 -0.009542
v -0.150885 0.703156 -0.019083
v -0.137044 0.712185 -0.009542
v -0.054237 0.595236 0.009541
v -0.164727 0.694126 -0.009542
v -0.151933 0.844365 0.023491
v -0.135585 0.850000 0.011745
v -0.151933 0.844365 -0.023491
v -0.181973 0.819536 -0.011745
v -0.151933 0.844365 -0.023491
v -0.135585 0.850000 -0.011745
v -0.137044 0.712185 0.009541
v -0.151933 0.844365 0.023491
v -0.164727 0.694126 0.009541
v -0.181973 0.819536 -0.011745
v -0.137044 0.712185 -0.009542
v -0.135585 0.850000 0.011745
v 0.182691 0.109518 -0.016824
v 0.094976 0.315848 -0.027607
v 0.115933 0.325232 -0.013259
v 0.154104 0.103644 -0.034137
v 0.182691 0.109518 -0.016824
v 0.115933 0.325232 0.013259
v 0.182691 0.109518 0.016824
v 0.124792 0.097587 0.017246
v 0.072318 0.305865 -0.014291
v 0.124792 0.097587 -0.017246
v 0.154104 0.103644 0.034137
v 0.072318 0.305865 0.014291
v 0.124792 0.097587 0.017246
v 0.182691 0.109518 0.016824
v 0.092044 0.321022 -0.019083
v 0.115933 0.325232 0.013259
v 0.133227 0.093425 -0.012922
v 0.154104 0.103644 -0.034137
v 0.155268 0.097317 -0.025844
v 0.124792 0.097587 -0.017246
v 0.155268 0.097317 0.025844
v -0.161715 0.701808 0.000100
v -0.171091 0.779787 0.000100
v -0.171091 0.701808 0.000100
v -0.161715 -0.000000 0.000100
v -0.171091 0.077979 0.000100
v -0.171091 -0.000000 0.000100
v -0.161715 0.155957 0.000100
v -0.171091 0.155957 0.000100
v -0.161715 0.233936 0.000100
v -0.171091 0.233936 0.000100
v -0.161715 0.311915 0.000100
v -0.171091 0.311915 0.000100
v -0.161715 0.389893 0.000100
v -0.171091 0.389893 0.000100
v -0.161715 0.467872 0.000100
v -0.171091 0.467872 0.000100
v -0.161715 0.545851 0.000100
v -0.171091 0.545851 0.000100
v -0.161715 0.623829 0.000100
v -0.171091 0.623830 0.000100
v -0.054237 -0.595236 0.009541
v 0.036025 -0.466998 -0.009541
v 0.036025 -0.466998 0.009541
v 0.182691 -0.109518 0.016824
v 0.177309 -0.101208 -0.012922
v 0.177309 -0.101208 0.012922
v 0.180735 -0.000000 -0.025844
v 0.177309 -0.101208 -0.012922
v 0.155268 -0.097317 -0.025844
v 0.036025 -0.466998 -0.009541
v -0.064522 -0.582300 -0.019083
v 0.023619 -0.456590 -0.019083
v 0.133227 -0.093425 0.012922
v 0.154104 -0.103644 0.034137
v 0.155268 -0.097317 0.025844
v 0.203117 0.000000 0.012922
v 0.203117 -0.000000 -0.012922
v 0.011213 -0.446183 -0.009542
v -0.074808 -0.569364 0.009541
v 0.011213 -0.446183 0.009541
v 0.072318 -0.305865 0.014291
v 0.077516 -0.313143 -0.009541
v 0.077516 -0.313143 0.009541
v 0.180735 0.000000 0.025844
v 0.177309 -0.101208 0.012922
v 0.203117 0.000000 0.012922
v -0.137044 -0.712185 0.009541
v -0.054237 -0.595236 -0.009542
v 0.094976 -0.315848 0.027607
v 0.092044 -0.321022 0.019083
v 0.143566 -0.000000 0.012922
v 0.094976 -0.315848 -0.027607
v 0.092044 -0.321022 -0.019083
v -0.074808 -0.569364 0.009541
v 0.023619 -0.456590 0.019083
v 0.011213 -0.446183 0.009541
v 0.143566 -0.000000 -0.012922
v 0.133227 -0.093425 0.012922
v 0.143566 -0.000000 0.012922
v -0.064522 -0.582300 0.019083
v 0.036025 -0.466998 0.009541
v 0.115933 -0.325232 -0.013259
v 0.106571 -0.328901 0.009541
v 0.106571 -0.328901 -0.009541
v 0.143566 -0.000000 -0.012922
v 0.155268 -0.097317 -0.025844
v 0.133227 -0.093425 -0.012922
v 0.023619 -0.456590 -0.019083
v -0.074808 -0.569364 -0.009542
v 0.011213 -0.446183 -0.009542
v 0.092044 -0.321022 -0.019083
v 0.077516 -0.313143 -0.009541
v 0.106571 -0.328901 0.009541
v 0.092044 -0.321022 0.019083
v 0.077516 -0.313143 0.009541
v 0.106571 -0.328901 -0.009541
v 0.092044 -0.321022 -0.019083
v 0.106571 -0.328901 0.009541
v 0.036025 -0.466998 -0.009541
v 0.106571 -0.328901 -0.009541
v -0.181973 -0.819536 0.011745
v -0.150885 -0.703156 0.019083
v -0.164727 -0.694126 0.009541
v -0.064522 -0.582300 -0.019083
v -0.164727 -0.694126 -0.009542
v -0.054237 -0.595236 -0.009542
v -0.150885 -0.703156 -0.019083
v -0.054237 -0.595236 0.009541
v -0.074808 -0.569364 0.009541
v -0.181973 -0.819536 0.011745
v -0.181973 -0.819536 -0.011745
v -0.151933 -0.844365 -0.023491
v -0.150885 -0.703156 -0.019083
v -0.181973 -0.819536 -0.011745
v -0.137044 -0.712185 -0.009542
v -0.151933 -0.844365 -0.023491
v -0.151933 -0.844365 0.023491
v -0.137044 -0.712185 0.009541
v -0.164727 -0.694126 -0.009542
v -0.164727 -0.694126 0.009541
v -0.137044 -0.712185 0.009541
v -0.135585 -0.850000 -0.011745
v -0.137044 -0.712185 -0.009542
v 0.182691 -0.109518 -0.016824
v 0.094976 -0.315848 -0.027607
v 0.154104 -0.103644 -0.034137
v 0.154104 -0.103644 -0.034137
v 0.072318 -0.305865 -0.014291
v 0.124792 -0.097587 -0.017246
v 0.115933 -0.325232 0.013259
v 0.182691 -0.109518 -0.016824
v 0.072318 -0.305865 -0.014291
v 0.124792 -0.097587 0.017246
v 0.124792 -0.097587 -0.017246
v 0.072318 -0.305865 0.014291
v 0.124792 -0.097587 0.017246
v 0.094976 -0.315848 0.027607
v 0.182691 -0.109518 0.016824
v 0.092044 -0.321022 -0.019083
v 0.115933 -0.325232 0.013259
v 0.092044 -0.321022 0.019083
v 0.182691 -0.109518 -0.016824
v 0.177309 -0.101208 -0.012922
v 0.133227 -0.093425 0.012922
v 0.155268 -0.097317 0.025844
v -0.171091 -0.779787 0.000100
v -0.161715 -0.701808 0.000100
v -0.171091 -0.701808 0.000100
v -0.171091 -0.077979 0.000100
v -0.161715 -0.155957 0.000100
v -0.161715 -0.077979 0.000100
v -0.171091 -0.155957 0.000100
v -0.161715 -0.233936 0.000100
v -0.171091 -0.233936 0.000100
v -0.161715 -0.311915 0.000100
v -0.171091 -0.311915 0.000100
v -0.161715 -0.389893 0.000100
v -0.171091 -0.389893 0.000100
v -0.161715 -0.467872 0.000100
v -0.171091 -0.467872 0.000100
v -0.161715 -0.545851 0.000100
v -0.171091 -0.545851 0.000100
v -0.161715 -0.623829 0.000100
v -0.171091 -0.623830 0.000100
v 0.182691 0.109518 -0.016824
v 0.177309 0.101208 0.012922
v 0.011213 0.446183 0.009541
v 0.133227 0.093425 0.012922
v 0.133227 0.093425 -0.012922
v 0.115933 0.325232 0.013259
v 0.133227 0.093425 -0.012922
v 0.180735 -0.000000 -0.025844
v 0.203117 -0.000000 -0.012922
v 0.203117 0.000000 0.012922
v 0.077516 0.313143 -0.009541
v 0.106571 0.328901 -0.009541
v -0.135585 0.850000 -0.011745
v -0.181973 0.819536 -0.011745
v -0.181973 0.819536 0.011745
v -0.135585 0.850000 0.011745
v -0.181973 0.819536 0.011745
v -0.135585 0.850000 -0.011745
v 0.154104 0.103644 -0.034137
v 0.124792 0.097587 -0.017246
v 0.115933 0.325232 -0.013259
v 0.072318 0.305865 0.014291
v -0.161715 0.779787 0.000100
v -0.161715 0.077979 0.000100
v 0.203117 -0.000000 -0.012922
v -0.074808 -0.569364 -0.009542
v -0.137044 -0.712185 -0.009542
v 0.133227 -0.093425 -0.012922
v 0.180735 -0.000000 -0.025844
v 0.036025 -0.466998 0.009541
v -0.164727 -0.694126 0.009541
v -0.135585 -0.850000 -0.011745
v -0.135585 -0.850000 0.011745
v -0.151933 -0.844365 0.023491
v -0.151933 -0.844365 -0.023491
v -0.135585 -0.850000 -0.011745
v -0.135585 -0.850000 0.011745
v -0.135585 -0.850000 0.011745
v 0.115933 -0.325232 -0.013259
v 0.094976 -0.315848 -0.027607
v 0.115933 -0.325232 -0.013259
v 0.115933 -0.325232 0.013259
v 0.094976 -0.315848 -0.027607
v 0.094976 -0.315848 0.027607
v 0.124792 -0.097587 0.017246
v 0.154104 -0.103644 0.034137
v -0.161715 -0.779787 0.000100
vt 0.388416 0.531982
vt 0.407913 0.683805
vt 0.407913 0.531982
vt 0.215649 0.311694
vt 0.208669 0.342084
vt 0.215649 0.338098
vt 0.747442 0.628277
vt 0.764121 0.728151
vt 0.773628 0.624904
vt 0.495637 0.546121
vt 0.452408 0.685418
vt 0.470244 0.691825
vt 0.261379 0.338098
vt 0.238482 0.359772
vt 0.269057 0.342515
vt 0.842694 0.956469
vt 0.871137 0.850364
vt 0.844738 0.849858
vt 0.528782 0.540378
vt 0.509285 0.683060
vt 0.528782 0.683060
vt 0.425864 0.360508
vt 0.416493 0.376620
vt 0.423979 0.376497
vt 0.662647 0.956975
vt 0.643408 0.855313
vt 0.620998 0.858730
vt 0.388416 0.683805
vt 0.407913 0.822405
vt 0.147414 0.366338
vt 0.129890 0.361004
vt 0.130422 0.367121
vt 0.684114 0.949681
vt 0.681138 0.849560
vt 0.445511 0.345706
vt 0.419316 0.352673
vt 0.133593 0.522233
vt 0.174597 0.669653
vt 0.149748 0.518184
vt 0.786060 0.518115
vt 0.812464 0.422794
vt 0.786060 0.422794
vt 0.117698 0.526406
vt 0.159280 0.676967
vt 0.456659 0.383585
vt 0.467146 0.361690
vt 0.458544 0.367596
vt 0.721177 0.628119
vt 0.737727 0.727590
vt 0.261477 0.261222
vt 0.248275 0.223908
vt 0.221871 0.223908
vt 0.477015 0.542683
vt 0.442956 0.673416
vt 0.481297 0.396299
vt 0.466778 0.533651
vt 0.113690 0.368029
vt 0.509285 0.392524
vt 0.528782 0.392524
vt 0.500706 0.396767
vt 0.407913 0.376227
vt 0.185472 0.826444
vt 0.162821 0.947441
vt 0.202341 0.824298
vt 0.416493 0.815766
vt 0.427392 0.823101
vt 0.446676 0.824842
vt 0.144223 0.684406
vt 0.528782 0.828229
vt 0.334949 0.283360
vt 0.344814 0.301027
vt 0.374585 0.283360
vt 0.450050 0.938783
vt 0.479683 0.956975
vt 0.500706 0.954180
vt 0.168864 0.828714
vt 0.124024 0.956975
vt 0.509285 0.828229
vt 0.531033 0.956975
vt 0.388416 0.822405
vt 0.410164 0.956975
vt 0.767994 0.736878
vt 0.712294 0.951068
vt 0.739167 0.956975
vt 0.448547 0.212899
vt 0.620998 0.279813
vt 0.651732 0.510496
vt 0.655375 0.279813
vt 0.563186 0.252781
vt 0.595406 0.472197
vt 0.598425 0.252781
vt 0.169035 0.139349
vt 0.155352 0.361897
vt 0.198942 0.146820
vt 0.140342 0.132252
vt 0.443146 0.356058
vt 0.106636 0.360490
vt 0.261379 0.311694
vt 0.238482 0.290019
vt 0.238514 0.298492
vt 0.269057 0.307276
vt 0.238514 0.351300
vt 0.001978 0.948220
vt 0.007966 0.998022
vt 0.007966 0.948220
vt 0.001978 0.500000
vt 0.007966 0.549802
vt 0.007966 0.500000
vt 0.001978 0.599604
vt 0.007966 0.599604
vt 0.001978 0.649407
vt 0.007966 0.649407
vt 0.001978 0.699209
vt 0.007966 0.699209
vt 0.001978 0.749011
vt 0.007966 0.749011
vt 0.001978 0.798813
vt 0.007966 0.798813
vt 0.001978 0.848615
vt 0.007966 0.848615
vt 0.001978 0.898418
vt 0.007966 0.898418
vt 0.556858 0.357254
vt 0.537362 0.472197
vt 0.556858 0.472197
vt 0.877064 0.749114
vt 0.846494 0.758232
vt 0.872893 0.758738
vt 0.747442 0.628277
vt 0.737672 0.524443
vt 0.712294 0.531715
vt 0.375062 0.798867
vt 0.332928 0.651015
vt 0.356341 0.803078
vt 0.677191 0.753610
vt 0.654218 0.746552
vt 0.654140 0.753102
vt 0.871137 0.850364
vt 0.844738 0.849858
vt 0.817910 0.637038
vt 0.798413 0.534760
vt 0.798413 0.637038
vt 0.793561 0.762207
vt 0.817910 0.753749
vt 0.798413 0.753749
vt 0.643408 0.855313
vt 0.631476 0.752537
vt 0.620998 0.858730
vt 0.556858 0.251938
vt 0.537362 0.357254
vt 0.779956 0.746959
vt 0.788665 0.742503
vt 0.681138 0.849560
vt 0.836366 0.746959
vt 0.827658 0.742503
vt 0.273196 0.654010
vt 0.230423 0.800926
vt 0.246528 0.805169
vt 0.812464 0.422794
vt 0.786060 0.332329
vt 0.786060 0.422794
vt 0.257968 0.646512
vt 0.214580 0.796562
vt 0.334949 0.322014
vt 0.345044 0.345308
vt 0.345044 0.325812
vt 0.720829 0.498637
vt 0.763537 0.444038
vt 0.738069 0.437268
vt 0.610418 0.830478
vt 0.572760 0.698872
vt 0.592258 0.831341
vt 0.614670 0.956975
vt 0.595877 0.954858
vt 0.208669 0.954880
vt 0.225389 0.955989
vt 0.242370 0.956975
vt 0.379837 0.955955
vt 0.360367 0.956975
vt 0.328621 0.363765
vt 0.309124 0.248979
vt 0.309124 0.363765
vt 0.264759 0.376100
vt 0.285955 0.497361
vt 0.302796 0.499709
vt 0.590287 0.695028
vt 0.551178 0.562649
vt 0.350901 0.643614
vt 0.309124 0.504210
vt 0.243001 0.638892
vt 0.558943 0.707136
vt 0.485473 0.263261
vt 0.509473 0.263261
vt 0.521473 0.231519
vt 0.569866 0.563615
vt 0.579033 0.478525
vt 0.328476 0.501844
vt 0.358607 0.370093
vt 0.226079 0.366100
vt 0.269375 0.494891
vt 0.507221 0.383907
vt 0.487725 0.383907
vt 0.407913 0.369899
vt 0.386165 0.234482
vt 0.388416 0.369899
vt 0.696272 0.510496
vt 0.668783 0.283112
vt 0.661703 0.507885
vt 0.770136 0.435586
vt 0.751959 0.271233
vt 0.736239 0.426954
vt 0.877100 0.557165
vt 0.842694 0.748455
vt 0.822762 0.762207
vt 0.790542 0.956975
vt 0.825781 0.956975
vt 0.705966 0.529672
vt 0.685004 0.748117
vt 0.681348 0.523107
vt 0.624702 0.744981
vt 0.358133 0.316063
vt 0.334949 0.349106
vt 0.358133 0.355057
vt 0.779731 0.460221
vt 0.771064 0.463198
vt 0.720127 0.449657
vt 0.885897 0.769201
vt 0.007966 0.001978
vt 0.001978 0.051780
vt 0.007966 0.051780
vt 0.007966 0.450198
vt 0.001978 0.400396
vt 0.001978 0.450198
vt 0.007966 0.400396
vt 0.001978 0.350593
vt 0.007966 0.350593
vt 0.001978 0.300791
vt 0.007966 0.300791
vt 0.001978 0.250989
vt 0.007966 0.250989
vt 0.001978 0.201187
vt 0.007966 0.201187
vt 0.001978 0.151385
vt 0.007966 0.151385
vt 0.001978 0.101582
vt 0.007966 0.101582
vt 0.208669 0.307707
vt 0.869094 0.956975
vt 0.509285 0.540378
vt 0.705966 0.942327
vt 0.812464 0.518115
vt 0.464526 0.383907
vt 0.724278 0.722699
vt 0.208669 0.261222
vt 0.221871 0.283691
vt 0.248275 0.283691
vt 0.470274 0.390236
vt 0.388416 0.376227
vt 0.364632 0.301027
vt 0.372655 0.246141
vt 0.352837 0.246141
vt 0.106636 0.955026
vt 0.507034 0.956975
vt 0.386165 0.956975
vt 0.733374 0.735411
vt 0.416493 0.225612
vt 0.624641 0.510496
vt 0.566205 0.472197
vt 0.001978 0.998022
vt 0.001978 0.549802
vt 0.773628 0.624904
vt 0.817910 0.534760
vt 0.537362 0.251938
vt 0.812464 0.332329
vt 0.755900 0.518115
vt 0.328621 0.248979
vt 0.537362 0.570913
vt 0.509473 0.222077
vt 0.485473 0.222077
vt 0.473474 0.231519
vt 0.614670 0.481563
vt 0.379837 0.372092
vt 0.208669 0.367841
vt 0.410164 0.234482
vt 0.696272 0.280083
vt 0.779731 0.274704
vt 0.850014 0.556646
vt 0.658953 0.516825
vt 0.354208 0.307355
vt 0.354208 0.363765
vt 0.712294 0.443488
vt 0.894480 0.763505
vt 0.001978 0.001978
vn 0.748296 0.453022 -0.484586
vn 0.710565 0.502551 0.492483
vn 0.748295 0.453022 0.484588
vn 0.842998 -0.283897 -0.456899
vn 0.871736 -0.157830 0.463859
vn 0.843004 -0.283899 0.456887
vn 0.147239 -0.375433 -0.915080
vn 0.842998 -0.283897 -0.456899
vn 0.813306 -0.389662 -0.432084
vn 0.748296 0.453022 -0.484586
vn 0.001934 0.000424 -0.999998
vn 0.710564 0.502551 -0.492484
vn -0.620942 -0.650762 0.436966
vn 0.097146 -0.369305 0.924217
vn -0.673329 -0.577870 0.461188
vn 0.842998 -0.283897 -0.456899
vn 0.819611 -0.372384 0.435395
vn 0.813306 -0.389662 -0.432084
vn -0.743202 -0.439956 -0.504072
vn -0.709388 -0.503238 0.493477
vn -0.709388 -0.503238 -0.493478
vn -0.875556 0.266934 -0.402677
vn -0.872280 0.188583 0.451182
vn -0.875557 0.266939 0.402670
vn 0.843004 -0.283899 0.456887
vn 0.147244 -0.375432 0.915079
vn 0.819611 -0.372384 0.435395
vn 0.710564 0.502551 -0.492484
vn 0.815980 0.226895 0.531692
vn -0.875557 0.266939 0.402670
vn -0.125937 0.412420 0.902247
vn -0.233231 0.469468 0.851588
vn 0.093409 -0.479072 0.872791
vn -0.763970 -0.330693 0.554069
vn -0.125936 0.412421 -0.902247
vn -0.872279 0.188579 -0.451184
vn 0.021325 0.009635 0.999726
vn -0.709388 -0.503238 0.493477
vn -0.743202 -0.439956 0.504073
vn -0.620942 -0.650762 0.436966
vn -0.764987 -0.327069 -0.554816
vn -0.763970 -0.330693 0.554069
vn 0.748295 0.453022 0.484588
vn 0.001934 0.000424 0.999998
vn 0.493404 0.740425 0.456425
vn 0.622090 0.638717 -0.452818
vn 0.493402 0.740427 -0.456424
vn -0.764987 -0.327069 -0.554816
vn 0.093409 -0.479073 -0.872791
vn 0.117690 -0.379370 0.917729
vn -0.776175 -0.332744 0.535569
vn -0.776153 -0.332744 -0.535601
vn 0.021325 0.009635 -0.999726
vn -0.709388 -0.503238 -0.493478
vn -0.233230 0.469468 -0.851589
vn -0.743202 -0.439956 -0.504072
vn 0.493404 0.740425 0.456425
vn -0.875557 0.266939 0.402670
vn -0.875556 0.266934 -0.402677
vn 0.493402 0.740427 -0.456424
vn 0.493404 0.740425 0.456425
vn -0.080476 -0.039223 0.995985
vn -0.836105 0.276799 0.473614
vn -0.818799 -0.336863 0.464857
vn -0.818799 -0.336863 -0.464856
vn -0.080476 -0.039223 -0.995985
vn 0.815980 0.226894 -0.531692
vn 0.710565 0.502551 0.492483
vn -0.818799 -0.336863 -0.464856
vn -0.125104 0.615577 0.778084
vn 0.579599 0.722060 0.377749
vn -0.125110 0.615581 -0.778080
vn -0.836102 0.276803 -0.473617
vn -0.125110 0.615581 -0.778080
vn 0.579598 0.722064 -0.377743
vn 0.815980 0.226895 0.531692
vn -0.125104 0.615577 0.778084
vn -0.818799 -0.336863 0.464857
vn -0.836102 0.276803 -0.473617
vn 0.815980 0.226894 -0.531692
vn 0.579599 0.722060 0.377749
vn 0.871734 -0.157828 -0.463863
vn -0.125936 0.412421 -0.902247
vn 0.622090 0.638717 -0.452818
vn 0.097147 -0.369305 -0.924216
vn 0.871734 -0.157828 -0.463863
vn 0.622094 0.638711 0.452822
vn 0.871736 -0.157830 0.463859
vn -0.673329 -0.577870 0.461188
vn -0.872279 0.188579 -0.451184
vn -0.673330 -0.577872 -0.461183
vn 0.097146 -0.369305 0.924217
vn -0.872280 0.188583 0.451182
vn -0.673329 -0.577870 0.461188
vn 0.871736 -0.157830 0.463859
vn -0.233230 0.469468 -0.851589
vn 0.622094 0.638711 0.452822
vn -0.620948 -0.650765 -0.436954
vn 0.097147 -0.369305 -0.924216
vn 0.093409 -0.479073 -0.872791
vn -0.673330 -0.577872 -0.461183
vn 0.093409 -0.479072 0.872791
vn -0.000000 0.000000 1.000000
vn -0.000000 0.000000 1.000000
vn -0.000000 0.000000 1.000000
vn -0.000000 0.000000 1.000000
vn -0.000000 0.000000 1.000000
vn -0.000000 0.000000 1.000000
vn -0.000000 0.000000 1.000000
vn -0.000000 0.000000 1.000000
vn -0.000000 0.000000 1.000000
vn -0.000000 0.000000 1.000000
vn -0.000000 0.000000 1.000000
vn -0.000000 0.000000 1.000000
vn -0.000000 0.000000 1.000000
vn -0.000000 0.000000 1.000000
vn -0.000000 0.000000 1.000000
vn -0.000000 0.000000 1.000000
vn -0.000000 0.000000 1.000000
vn -0.000000 0.000000 1.000000
vn -0.000000 0.000000 1.000000
vn -0.000000 0.000000 1.000000
vn 0.710565 -0.502551 0.492483
vn 0.748296 -0.453022 -0.484586
vn 0.748295 -0.453022 0.484588
vn 0.871736 0.157830 0.463859
vn 0.842998 0.283897 -0.456899
vn 0.843004 0.283899 0.456887
vn 0.148833 -0.365963 -0.918651
vn 0.842998 0.283897 -0.456899
vn 0.093409 0.479073 -0.872791
vn 0.748296 -0.453022 -0.484586
vn 0.001934 -0.000424 -0.999998
vn 0.021325 -0.009635 -0.999726
vn -0.620942 0.650762 0.436966
vn 0.097146 0.369305 0.924217
vn 0.093409 0.479072 0.872791
vn 0.815832 -0.383667 0.432688
vn 0.814007 -0.388590 -0.431729
vn -0.743202 0.439956 -0.504072
vn -0.709388 0.503238 0.493477
vn -0.743202 0.439956 0.504073
vn -0.872279 -0.188583 0.451182
vn -0.875556 -0.266934 -0.402677
vn -0.875557 -0.266939 0.402670
vn 0.148837 -0.365963 0.918650
vn 0.843004 0.283899 0.456887
vn 0.815832 -0.383667 0.432688
vn 0.815980 -0.226894 0.531692
vn 0.710565 -0.502551 -0.492484
vn -0.125936 -0.412420 0.902247
vn -0.233230 -0.469468 0.851589
vn -0.770435 -0.312302 0.555786
vn -0.125936 -0.412421 -0.902247
vn -0.233230 -0.469468 -0.851589
vn -0.709388 0.503238 0.493477
vn 0.021325 -0.009635 0.999726
vn -0.743202 0.439956 0.504073
vn -0.772278 -0.305171 -0.557187
vn -0.620942 0.650762 0.436966
vn -0.770435 -0.312302 0.555786
vn 0.001934 -0.000424 0.999998
vn 0.748295 -0.453022 0.484588
vn 0.622090 -0.638717 -0.452818
vn 0.493404 -0.740425 0.456425
vn 0.493402 -0.740427 -0.456424
vn -0.772278 -0.305171 -0.557187
vn 0.093409 0.479073 -0.872791
vn -0.620948 0.650765 -0.436954
vn 0.021325 -0.009635 -0.999726
vn -0.709388 0.503238 -0.493478
vn -0.743202 0.439956 -0.504072
vn -0.233230 -0.469468 -0.851589
vn -0.875556 -0.266934 -0.402677
vn 0.493404 -0.740425 0.456425
vn -0.233230 -0.469468 0.851589
vn -0.875557 -0.266939 0.402670
vn 0.493402 -0.740427 -0.456424
vn -0.233230 -0.469468 -0.851589
vn 0.493404 -0.740425 0.456425
vn 0.748296 -0.453022 -0.484586
vn 0.493402 -0.740427 -0.456424
vn -0.836102 -0.276802 0.473617
vn -0.080476 0.039223 0.995985
vn -0.818799 0.336863 0.464857
vn 0.001934 -0.000424 -0.999998
vn -0.818799 0.336863 -0.464856
vn 0.710565 -0.502551 -0.492484
vn -0.080476 0.039223 -0.995985
vn 0.710565 -0.502551 0.492483
vn -0.709388 0.503238 0.493477
vn -0.836102 -0.276802 0.473617
vn -0.836105 -0.276801 -0.473614
vn -0.125110 -0.615581 -0.778080
vn -0.080476 0.039223 -0.995985
vn -0.836105 -0.276801 -0.473614
vn 0.815979 -0.226894 -0.531692
vn -0.125110 -0.615581 -0.778080
vn -0.125104 -0.615577 0.778084
vn 0.815980 -0.226894 0.531692
vn -0.818799 0.336863 -0.464856
vn -0.818799 0.336863 0.464857
vn 0.815980 -0.226894 0.531692
vn 0.579591 -0.722068 -0.377746
vn 0.815979 -0.226894 -0.531692
vn 0.871734 0.157828 -0.463863
vn -0.125936 -0.412421 -0.902247
vn 0.097147 0.369306 -0.924216
vn 0.097147 0.369306 -0.924216
vn -0.872279 -0.188579 -0.451184
vn -0.673330 0.577872 -0.461183
vn 0.622094 -0.638710 0.452822
vn 0.871734 0.157828 -0.463863
vn -0.872279 -0.188579 -0.451184
vn -0.673329 0.577870 0.461188
vn -0.673330 0.577872 -0.461183
vn -0.872279 -0.188583 0.451182
vn -0.673329 0.577870 0.461188
vn -0.125936 -0.412420 0.902247
vn 0.871736 0.157830 0.463859
vn -0.233230 -0.469468 -0.851589
vn 0.622094 -0.638710 0.452822
vn -0.233230 -0.469468 0.851589
vn 0.871734 0.157828 -0.463863
vn 0.842998 0.283897 -0.456899
vn -0.620942 0.650762 0.436966
vn 0.093409 0.479072 0.872791
vn -0.000000 0.000000 1.000000
vn -0.000000 0.000000 1.000000
vn -0.000000 0.000000 1.000000
vn -0.000000 0.000000 1.000000
vn -0.000000 0.000000 1.000000
vn -0.000000 0.000000 1.000000
vn -0.000000 0.000000 1.000000
vn -0.000000 0.000000 1.000000
vn -0.000000 0.000000 1.000000
vn -0.000000 0.000000 1.000000
vn -0.000000 0.000000 1.000000
vn -0.000000 0.000000 1.000000
vn -0.000000 0.000000 1.000000
vn -0.000000 0.000000 1.000000
vn -0.000000 0.000000 1.000000
vn -0.000000 0.000000 1.000000
vn -0.000000 0.000000 1.000000
vn -0.000000 0.000000 1.000000
vn -0.000000 0.000000 1.000000
vn 0.871734 -0.157828 -0.463863
vn 0.843004 -0.283899 0.456887
vn -0.743202 -0.439956 0.504073
vn -0.620942 -0.650762 0.436966
vn -0.620948 -0.650765 -0.436954
vn 0.622094 0.638711 0.452822
vn -0.620948 -0.650765 -0.436954
vn 0.117545 -0.379370 -0.917748
vn 0.812507 -0.389107 -0.434084
vn 0.812499 -0.389107 0.434098
vn -0.875556 0.266934 -0.402677
vn 0.493402 0.740427 -0.456424
vn 0.579598 0.722064 -0.377743
vn -0.836102 0.276803 -0.473617
vn -0.836105 0.276799 0.473614
vn 0.579599 0.722060 0.377749
vn -0.836105 0.276799 0.473614
vn 0.579598 0.722064 -0.377743
vn 0.097147 -0.369305 -0.924216
vn -0.673330 -0.577872 -0.461183
vn 0.622090 0.638717 -0.452818
vn -0.872280 0.188583 0.451182
vn -0.000000 0.000000 1.000000
vn -0.000000 0.000000 1.000000
vn 0.814007 -0.388590 -0.431729
vn -0.709388 0.503238 -0.493478
vn 0.815979 -0.226894 -0.531692
vn -0.620948 0.650765 -0.436954
vn 0.148833 -0.365963 -0.918651
vn 0.748295 -0.453022 0.484588
vn -0.818799 0.336863 0.464857
vn 0.579591 -0.722068 -0.377746
vn 0.579605 -0.722056 0.377747
vn -0.125104 -0.615577 0.778084
vn -0.125110 -0.615581 -0.778080
vn 0.579591 -0.722068 -0.377746
vn 0.579605 -0.722056 0.377747
vn 0.579605 -0.722056 0.377747
vn 0.622090 -0.638717 -0.452818
vn -0.125936 -0.412421 -0.902247
vn 0.622090 -0.638717 -0.452818
vn 0.622094 -0.638710 0.452822
vn -0.125936 -0.412421 -0.902247
vn -0.125936 -0.412420 0.902247
vn -0.673329 0.577870 0.461188
vn 0.097146 0.369305 0.924217
vn -0.000000 0.000000 1.000000
f 1/1/1 2/2/2 3/3/3
f 4/4/4 5/5/5 6/6/6
f 7/7/7 8/8/8 9/9/9
f 10/10/10 11/11/11 12/12/12
f 13/13/13 14/14/14 15/15/15
f 16/16/16 17/17/17 18/18/18
f 19/19/19 20/20/20 21/21/21
f 22/22/22 23/23/23 24/24/24
f 25/25/25 26/26/26 27/27/27
f 28/28/28 29/29/29 2/2/2
f 30/30/30 31/31/31 32/32/32
f 33/33/33 34/34/34 26/26/26
f 22/22/22 35/35/35 36/36/36
f 37/37/37 38/38/38 39/39/39
f 40/40/40 41/41/41 42/42/42
f 43/43/43 44/44/44 37/37/37
f 45/45/45 46/46/46 47/47/47
f 48/48/48 49/49/49 7/7/7
f 50/50/50 51/51/51 52/52/52
f 53/53/53 54/54/54 11/11/11
f 55/55/55 56/56/56 53/53/53
f 57/57/57 37/37/37 32/32/32
f 32/32/32 39/39/39 30/30/30
f 58/58/58 19/19/19 59/59/59
f 60/60/60 53/53/53 10/10/10
f 61/61/61 1/1/1 3/3/3
f 62/62/62 63/63/63 64/64/64
f 44/44/44 64/64/64 38/38/38
f 11/11/11 65/65/65 66/66/66
f 12/12/12 66/66/66 67/67/67
f 68/68/68 62/62/62 44/44/44
f 20/20/20 69/69/69 21/21/21
f 70/70/70 71/71/71 72/72/72
f 66/66/66 73/73/73 74/74/74
f 67/67/67 74/74/74 75/75/75
f 76/76/76 77/77/77 62/62/62
f 78/78/78 79/79/79 69/69/69
f 80/80/80 81/81/81 29/29/29
f 82/82/82 83/83/83 84/84/84
f 85/85/85 36/36/36 35/35/35
f 86/86/86 87/87/87 88/88/88
f 89/89/89 90/90/90 91/91/91
f 92/92/92 93/93/93 94/94/94
f 95/95/95 31/31/31 92/92/92
f 96/96/96 46/46/46 35/35/35
f 32/32/32 97/97/97 57/57/57
f 49/49/49 82/82/82 8/8/8
f 98/98/98 99/99/99 100/100/100
f 13/13/13 101/101/101 98/98/98
f 102/102/102 5/5/5 14/14/14
f 103/103/103 104/104/104 105/105/105
f 106/106/106 107/107/107 108/108/108
f 107/107/107 109/109/109 110/110/110
f 110/110/110 111/111/111 112/112/112
f 112/112/112 113/113/113 114/114/114
f 114/114/114 115/115/115 116/116/116
f 116/116/116 117/117/117 118/118/118
f 118/118/118 119/119/119 120/120/120
f 120/120/120 121/121/121 122/122/122
f 122/122/122 103/103/103 105/105/105
f 123/123/123 124/124/124 125/125/125
f 126/126/126 127/127/127 128/128/128
f 129/129/129 130/130/130 131/131/131
f 132/132/132 133/133/133 134/134/134
f 135/135/135 136/136/136 137/137/137
f 138/138/138 127/127/127 139/139/139
f 140/140/140 141/141/141 142/142/142
f 143/143/143 144/144/144 145/145/145
f 146/146/146 147/147/147 148/148/148
f 149/149/149 150/150/150 123/123/123
f 151/151/151 145/145/145 152/152/152
f 153/153/153 137/137/137 146/146/146
f 144/144/144 154/154/154 155/155/155
f 156/156/156 157/157/157 158/158/158
f 159/159/159 160/160/160 161/161/161
f 162/162/162 163/163/163 157/157/157
f 164/164/164 165/165/165 166/166/166
f 167/167/167 168/168/168 169/169/169
f 170/170/170 171/171/171 172/172/172
f 173/173/173 172/172/172 174/174/174
f 157/157/157 175/175/175 176/176/176
f 158/158/158 176/176/176 177/177/177
f 140/140/140 145/145/145 144/144/144
f 178/178/178 134/134/134 179/179/179
f 180/180/180 181/181/181 182/182/182
f 183/183/183 184/184/184 185/185/185
f 185/185/185 162/162/162 156/156/156
f 186/186/186 187/187/187 171/171/171
f 188/188/188 189/189/189 133/133/133
f 184/184/184 190/190/190 162/162/162
f 187/187/187 191/191/191 171/171/171
f 192/192/192 193/193/193 194/194/194
f 195/195/195 196/196/196 187/187/187
f 197/197/197 198/198/198 189/189/189
f 199/199/199 200/200/200 184/184/184
f 201/201/201 192/192/192 202/202/202
f 203/203/203 204/204/204 205/205/205
f 206/206/206 207/207/207 208/208/208
f 209/209/209 210/210/210 211/211/211
f 212/212/212 213/213/213 126/126/126
f 214/214/214 215/215/215 216/216/216
f 217/217/217 136/136/136 218/218/218
f 219/219/219 220/220/220 136/136/136
f 221/221/221 164/164/164 166/166/166
f 222/222/222 223/223/223 165/165/165
f 224/224/224 168/168/168 225/225/225
f 209/209/209 169/169/169 168/168/168
f 211/211/211 226/226/226 169/169/169
f 227/227/227 126/126/126 128/128/128
f 228/228/228 229/229/229 230/230/230
f 231/231/231 106/106/106 108/108/108
f 231/231/231 232/232/232 233/233/233
f 234/234/234 235/235/235 232/232/232
f 236/236/236 237/237/237 235/235/235
f 238/238/238 239/239/239 237/237/237
f 240/240/240 241/241/241 239/239/239
f 242/242/242 243/243/243 241/241/241
f 244/244/244 245/245/245 243/243/243
f 246/246/246 229/229/229 245/245/245
f 1/1/1 28/28/28 2/2/2
f 4/4/4 247/247/247 5/5/5
f 7/7/7 49/49/49 8/8/8
f 10/10/10 53/53/53 11/11/11
f 13/13/13 102/102/102 14/14/14
f 16/16/16 248/248/248 17/17/17
f 19/19/19 249/249/249 20/20/20
f 22/22/22 36/36/36 23/23/23
f 25/25/25 33/33/33 26/26/26
f 28/28/28 80/80/80 29/29/29
f 30/30/30 93/93/93 31/31/31
f 33/33/33 250/250/250 34/34/34
f 22/22/22 96/96/96 35/35/35
f 37/37/37 44/44/44 38/38/38
f 40/40/40 251/251/251 41/41/41
f 43/43/43 68/68/68 44/44/44
f 45/45/45 252/252/252 46/46/46
f 48/48/48 253/253/253 49/49/49
f 52/52/52 254/254/254 50/50/50
f 254/254/254 255/255/255 50/50/50
f 255/255/255 256/256/256 50/50/50
f 53/53/53 56/56/56 54/54/54
f 55/55/55 257/257/257 56/56/56
f 57/57/57 43/43/43 37/37/37
f 32/32/32 37/37/37 39/39/39
f 58/58/58 249/249/249 19/19/19
f 60/60/60 55/55/55 53/53/53
f 61/61/61 258/258/258 1/1/1
f 62/62/62 77/77/77 63/63/63
f 44/44/44 62/62/62 64/64/64
f 11/11/11 54/54/54 65/65/65
f 12/12/12 11/11/11 66/66/66
f 68/68/68 76/76/76 62/62/62
f 20/20/20 78/78/78 69/69/69
f 71/71/71 259/259/259 72/72/72
f 72/72/72 260/260/260 261/261/261
f 261/261/261 70/70/70 72/72/72
f 66/66/66 65/65/65 73/73/73
f 67/67/67 66/66/66 74/74/74
f 76/76/76 262/262/262 77/77/77
f 78/78/78 263/263/263 79/79/79
f 80/80/80 264/264/264 81/81/81
f 82/82/82 265/265/265 83/83/83
f 85/85/85 266/266/266 36/36/36
f 86/86/86 267/267/267 87/87/87
f 89/89/89 268/268/268 90/90/90
f 92/92/92 31/31/31 93/93/93
f 95/95/95 97/97/97 31/31/31
f 96/96/96 47/47/47 46/46/46
f 32/32/32 31/31/31 97/97/97
f 49/49/49 265/265/265 82/82/82
f 98/98/98 101/101/101 99/99/99
f 13/13/13 15/15/15 101/101/101
f 102/102/102 6/6/6 5/5/5
f 103/103/103 269/269/269 104/104/104
f 106/106/106 270/270/270 107/107/107
f 107/107/107 270/270/270 109/109/109
f 110/110/110 109/109/109 111/111/111
f 112/112/112 111/111/111 113/113/113
f 114/114/114 113/113/113 115/115/115
f 116/116/116 115/115/115 117/117/117
f 118/118/118 117/117/117 119/119/119
f 120/120/120 119/119/119 121/121/121
f 122/122/122 121/121/121 103/103/103
f 123/123/123 150/150/150 124/124/124
f 126/126/126 213/213/213 127/127/127
f 129/129/129 271/271/271 130/130/130
f 132/132/132 188/188/188 133/133/133
f 135/135/135 218/218/218 136/136/136
f 138/138/138 128/128/128 127/127/127
f 140/140/140 272/272/272 141/141/141
f 143/143/143 214/214/214 144/144/144
f 146/146/146 137/137/137 147/147/147
f 149/149/149 273/273/273 150/150/150
f 151/151/151 143/143/143 145/145/145
f 153/153/153 135/135/135 137/137/137
f 144/144/144 214/214/214 154/154/154
f 156/156/156 162/162/162 157/157/157
f 159/159/159 274/274/274 160/160/160
f 162/162/162 190/190/190 163/163/163
f 164/164/164 222/222/222 165/165/165
f 167/167/167 275/275/275 168/168/168
f 170/170/170 186/186/186 171/171/171
f 173/173/173 170/170/170 172/172/172
f 157/157/157 163/163/163 175/175/175
f 158/158/158 157/157/157 176/176/176
f 140/140/140 142/142/142 145/145/145
f 178/178/178 132/132/132 134/134/134
f 180/180/180 276/276/276 181/181/181
f 183/183/183 199/199/199 184/184/184
f 185/185/185 184/184/184 162/162/162
f 186/186/186 195/195/195 187/187/187
f 188/188/188 197/197/197 189/189/189
f 184/184/184 200/200/200 190/190/190
f 187/187/187 277/277/277 191/191/191
f 194/194/194 278/278/278 279/279/279
f 279/279/279 280/280/280 194/194/194
f 280/280/280 192/192/192 194/194/194
f 195/195/195 281/281/281 196/196/196
f 197/197/197 282/282/282 198/198/198
f 199/199/199 283/283/283 200/200/200
f 201/201/201 193/193/193 192/192/192
f 203/203/203 284/284/284 204/204/204
f 206/206/206 285/285/285 207/207/207
f 209/209/209 286/286/286 210/210/210
f 212/212/212 287/287/287 213/213/213
f 214/214/214 143/143/143 215/215/215
f 217/217/217 219/219/219 136/136/136
f 219/219/219 288/288/288 220/220/220
f 221/221/221 289/289/289 164/164/164
f 222/222/222 290/290/290 223/223/223
f 224/224/224 209/209/209 168/168/168
f 209/209/209 211/211/211 169/169/169
f 211/211/211 291/291/291 226/226/226
f 227/227/227 292/292/292 126/126/126
f 228/228/228 293/293/293 229/229/229
f 231/231/231 233/233/233 106/106/106
f 231/231/231 234/234/234 232/232/232
f 234/234/234 236/236/236 235/235/235
f 236/236/236 238/238/238 237/237/237
f 238/238/238 240/240/240 239/239/239
f 240/240/240 242/242/242 241/241/241
f 242/242/242 244/244/244 243/243/243
f 244/244/244 246/246/246 245/245/245
f 246/246/246 230/230/230 229/229/229
