# f_heavycrossbow_01 -- imported by tools/import_asset_pack.py from heavycrossbow_01.fbx
o __pending__
v 0.030931 -0.016071 -0.196279
v 0.015465 -0.048223 -0.168848
v 0.015465 -0.016071 -0.196279
v 0.030931 0.021821 -0.171926
v 0.030931 -0.013201 -0.142124
v 0.030931 0.002875 -0.184102
v 0.030931 0.038402 -0.253830
v 0.015465 0.037443 -0.317093
v 0.015465 0.038402 -0.253830
v 0.015465 0.040070 0.195296
v 0.030931 0.039887 0.350969
v 0.030931 0.040230 0.195296
v 0.030931 0.031972 0.066977
v 0.030931 0.040230 0.195296
v 0.030931 0.031972 0.197744
v 0.000000 0.038402 -0.253830
v 0.015465 0.040118 -0.205166
v 0.030931 0.038402 -0.253830
v 0.030931 0.012619 -0.253488
v 0.030931 -0.013164 -0.253146
v 0.015465 -0.016071 -0.196279
v 0.015465 -0.013164 -0.253146
v 0.030931 0.040278 -0.115400
v 0.030931 0.039263 0.066977
v 0.030931 -0.048223 -0.168848
v 0.015465 -0.091551 0.087902
v 0.015465 -0.048223 -0.168848
v 0.030931 0.021821 -0.115400
v 0.048618 -0.030885 0.076797
v 0.022283 0.037874 -0.449115
v 0.011141 0.037874 -0.449115
v 0.030931 -0.013164 -0.253146
v 0.030931 -0.005670 -0.316751
v 0.011141 0.037874 -0.449115
v 0.022283 -0.004288 -0.448839
v 0.011141 -0.004288 -0.448839
v 0.022283 -0.046450 -0.448563
v 0.022283 -0.004288 -0.448839
v 0.000000 -0.048784 -0.316409
v 0.011141 -0.046450 -0.448563
v 0.015465 -0.048784 -0.316409
v 0.030931 0.039887 0.350969
v 0.030931 0.031629 0.350879
v 0.030931 -0.065986 0.197744
v 0.030931 -0.091551 0.087902
v 0.015465 -0.163943 0.197744
v 0.015465 0.040118 -0.115400
v 0.000000 0.033485 0.066977
v 0.015465 0.039102 0.066977
v 0.000000 0.023333 -0.148641
v 0.015465 0.040118 -0.148641
v 0.000000 0.023333 -0.205166
v 0.030931 0.040278 -0.205166
v 0.030931 0.040278 -0.148641
v 0.000000 0.002920 -0.190353
v 0.000000 0.049225 -0.186151
v 0.000000 0.002920 -0.211530
v 0.000000 0.049225 -0.186151
v 0.008787 0.002920 -0.211530
v 0.000000 0.002920 -0.211530
v 0.008787 0.049225 -0.186151
v 0.008787 0.002920 -0.190353
v 0.008787 0.002920 -0.211530
v 0.008787 0.049225 -0.164974
v 0.000000 0.002920 -0.190353
v 0.008787 0.002920 -0.190353
v 0.008787 0.002920 -0.211530
v 0.000000 0.002920 -0.190353
v 0.000000 0.002920 -0.211530
v 0.000000 0.049225 -0.186151
v 0.008787 0.049225 -0.164974
v 0.008787 0.049225 -0.186151
v 0.030931 0.039263 0.066977
v 0.030931 0.040278 -0.148641
v 0.030931 0.040278 -0.205166
v 0.030931 0.040278 -0.115400
v 0.000000 -0.163943 0.197744
v 0.000000 -0.091551 0.087902
v 0.030931 -0.163943 0.197744
v 0.015465 -0.164287 0.350879
v 0.022283 -0.046450 -0.448563
v 0.030931 -0.048784 -0.316409
v 0.000000 0.037874 -0.449115
v 0.000000 -0.004288 -0.448839
v 0.000000 0.037443 -0.317093
v 0.000000 0.037874 -0.449115
v 0.000000 -0.048223 -0.168848
v 0.000000 -0.016071 -0.196279
v 0.000000 -0.013164 -0.253146
v 0.000000 -0.048223 -0.168848
v 0.000000 -0.016071 -0.196279
v 0.030931 -0.066329 0.350879
v 0.000000 -0.013164 -0.253146
v 0.005628 -0.037342 -0.251148
v 0.015465 -0.013164 -0.253146
v 0.000000 0.033485 0.197744
v 0.015465 0.039726 0.350969
v 0.000000 -0.017069 -0.258738
v 0.004281 -0.003192 -0.242742
v 0.004281 -0.017069 -0.258738
v 0.004281 -0.033148 -0.232817
v 0.004281 -0.056332 -0.227020
v 0.004281 -0.047025 -0.248813
v 0.004281 -0.003192 -0.242742
v 0.000000 -0.033148 -0.232817
v 0.004281 -0.033148 -0.232817
v 0.004281 -0.017069 -0.258738
v 0.000000 -0.017069 -0.258738
v 0.004281 -0.047025 -0.248813
v 0.000000 -0.047025 -0.248813
v 0.000000 -0.033148 -0.232817
v 0.000000 -0.017069 -0.258738
v 0.000000 -0.047025 -0.248813
v 0.015465 -0.048784 -0.316409
v 0.011256 -0.072962 -0.314411
v 0.005628 -0.072962 -0.314411
v 0.030931 -0.048784 -0.316409
v 0.011256 -0.037342 -0.251148
v 0.011256 -0.072962 -0.314411
v 0.011256 -0.037342 -0.251148
v 0.030931 -0.013164 -0.253146
v 0.000000 -0.048784 -0.316409
v 0.000000 -0.072962 -0.314411
v 0.005628 -0.188733 -0.312132
v 0.000000 -0.188733 -0.312132
v 0.030931 0.031629 0.350879
v 0.015465 0.039726 0.350969
v 0.015465 0.031629 0.350879
v 0.000000 -0.066329 0.350879
v 0.015465 -0.066329 0.350879
v 0.030931 -0.066329 0.350879
v 0.000000 0.033141 0.350879
v 0.000000 0.031629 0.350879
v 0.000000 -0.164287 0.350879
v 0.004281 -0.056332 -0.227020
v 0.000000 -0.057683 -0.206794
v 0.000000 -0.056332 -0.227020
v 0.004281 -0.047025 -0.248813
v 0.000000 -0.047025 -0.248813
v 0.004281 -0.057683 -0.206794
v 0.005628 -0.187774 -0.248869
v 0.011256 -0.188733 -0.312132
v 0.011256 -0.187774 -0.248869
v 0.000000 -0.187774 -0.248869
v 0.005628 -0.188733 -0.312132
v 0.011256 -0.187774 -0.248869
v 0.000000 -0.037342 -0.251148
v 0.005628 -0.187774 -0.248869
v 0.011256 -0.187774 -0.248869
v 0.011256 -0.188733 -0.312132
v 0.000000 0.033059 0.390204
v 0.000000 -0.117797 0.344655
v 0.000000 -0.117797 0.390204
v 0.000000 0.033059 0.344655
v 0.125861 -0.117797 0.344655
v 0.000000 -0.117797 0.344655
v 0.125861 -0.117797 0.390204
v 0.220162 0.042267 0.410070
v 0.125861 0.042267 0.390204
v 0.000000 0.033059 0.390204
v 0.000000 -0.117797 0.390204
v 0.125861 -0.117797 0.344655
v 0.000000 -0.117797 0.390204
v 0.000000 -0.117797 0.344655
v 0.000000 0.033059 0.344655
v 0.125861 0.042267 0.390204
v 0.125861 0.042267 0.344655
v 0.220162 -0.117797 0.410070
v 0.332244 -0.117797 0.397528
v 0.332244 -0.117797 0.443077
v 0.125861 -0.117797 0.390204
v 0.220162 -0.117797 0.364521
v 0.220162 0.042267 0.364521
v 0.125861 0.042267 0.344655
v 0.220162 -0.117797 0.364521
v 0.332244 0.042267 0.443077
v 0.444731 0.045458 0.455336
v 0.332244 0.042267 0.397528
v 0.220162 0.042267 0.410070
v 0.220162 0.042267 0.364521
v 0.332244 -0.117797 0.397528
v 0.220162 -0.117797 0.410070
v 0.332244 0.042267 0.443077
v 0.444731 0.045458 0.455336
v 0.444731 -0.114607 0.500885
v 0.444731 -0.114607 0.455336
v 0.332244 0.042267 0.397528
v 0.444731 -0.114607 0.455336
v 0.444731 -0.114607 0.500885
v 0.444731 0.045458 0.500885
v 0.444731 -0.114607 0.455336
v 0.444731 -0.114607 0.500885
v 0.037500 -0.039985 0.397061
v 0.044972 0.040863 0.340329
v 0.037500 -0.039985 0.339076
v 0.044972 0.040863 0.340329
v 0.062872 -0.041227 0.339076
v 0.037500 -0.039985 0.339076
v 0.075714 0.039358 0.340329
v 0.062872 -0.041227 0.397061
v 0.062872 -0.041227 0.339076
v 0.060017 0.042160 0.394492
v 0.037500 -0.039985 0.397061
v 0.062872 -0.041227 0.397061
v 0.063469 -0.122037 0.340314
v 0.038939 -0.120141 0.391911
v 0.032727 -0.120532 0.340314
v 0.044972 0.040863 0.340329
v 0.060017 0.042160 0.394492
v 0.075714 0.039358 0.340329
v 0.038939 -0.120141 0.391911
v 0.069681 -0.121646 0.391911
v 0.069681 -0.121646 0.391911
v 0.063469 -0.122037 0.340314
v 0.032727 -0.120532 0.340314
v 0.063469 -0.122037 0.340314
v 0.038939 -0.120141 0.391911
v 0.032727 -0.120532 0.340314
v 0.373702 -0.034474 0.479541
v 0.393060 0.046374 0.425693
v 0.386025 -0.034474 0.422880
v 0.393060 0.046374 0.425693
v 0.410817 -0.035717 0.428272
v 0.386025 -0.034474 0.422880
v 0.423100 0.044868 0.432226
v 0.398495 -0.035717 0.484933
v 0.410817 -0.035717 0.428272
v 0.396251 0.047671 0.481816
v 0.373702 -0.034474 0.479541
v 0.398495 -0.035717 0.484933
v 0.411137 -0.116527 0.429609
v 0.376203 -0.114630 0.474815
v 0.381097 -0.115021 0.423076
v 0.393060 0.046374 0.425693
v 0.396251 0.047671 0.481816
v 0.423100 0.044868 0.432226
v 0.376203 -0.114630 0.474815
v 0.406243 -0.116136 0.481348
v 0.406243 -0.116136 0.481348
v 0.411137 -0.116527 0.429609
v 0.381097 -0.115021 0.423076
v 0.411137 -0.116527 0.429609
v 0.376203 -0.114630 0.474815
v 0.381097 -0.115021 0.423076
v 0.000000 -0.035123 0.239729
v 0.000000 -0.079426 0.195426
v 0.000000 -0.079426 0.239729
v 0.000000 -0.035123 0.195426
v 0.044934 -0.079426 0.195426
v 0.000000 -0.079426 0.195426
v 0.044934 -0.035123 0.195426
v 0.044934 -0.079426 0.239729
v 0.044934 -0.079426 0.195426
v 0.044934 -0.035123 0.239729
v 0.000000 -0.079426 0.239729
v 0.044934 -0.079426 0.239729
v 0.044934 -0.079426 0.195426
v 0.000000 -0.079426 0.239729
v 0.000000 -0.079426 0.195426
v 0.000000 -0.035123 0.195426
v 0.044934 -0.035123 0.239729
v 0.044934 -0.035123 0.195426
v 0.044245 0.007161 0.307186
v 0.014429 -0.003381 0.311552
v 0.014429 0.007161 0.307186
v 0.014429 -0.003381 0.311552
v 0.044245 -0.007747 0.322094
v 0.014429 -0.007747 0.322094
v 0.014429 -0.003381 0.332635
v 0.044245 -0.003381 0.332635
v 0.014429 0.007161 0.337001
v 0.014429 -0.003381 0.332635
v 0.044245 0.007161 0.337001
v 0.014429 0.017702 0.332635
v 0.044245 0.017702 0.332635
v 0.014429 0.022068 0.322094
v 0.014429 0.017702 0.332635
v 0.044245 0.022068 0.322094
v 0.044245 0.007161 0.337001
v 0.044245 -0.007747 0.322094
v 0.044245 0.017702 0.311552
v 0.014429 0.017702 0.311552
v 0.044245 0.017702 0.311552
v 0.014429 0.017702 0.311552
v 0.014429 0.017702 0.311552
v 0.014429 -0.003381 0.311552
v 0.014429 -0.003381 0.332635
v 0.044245 -0.142376 0.307186
v 0.014429 -0.152918 0.311552
v 0.014429 -0.142376 0.307186
v 0.044245 -0.152918 0.311552
v 0.014429 -0.157284 0.322094
v 0.014429 -0.152918 0.311552
v 0.044245 -0.152918 0.332635
v 0.014429 -0.152918 0.332635
v 0.044245 -0.152918 0.332635
v 0.014429 -0.142376 0.337002
v 0.014429 -0.152918 0.332635
v 0.044245 -0.142376 0.337002
v 0.014429 -0.131835 0.332635
v 0.044245 -0.131835 0.332635
v 0.014429 -0.127468 0.322094
v 0.014429 -0.131835 0.332635
v 0.044245 -0.127468 0.322094
v 0.044245 -0.142376 0.337002
v 0.044245 -0.157284 0.322094
v 0.044245 -0.127468 0.322094
v 0.014429 -0.131835 0.311552
v 0.044245 -0.131835 0.311552
v 0.014429 -0.131835 0.311552
v 0.014429 -0.131835 0.311552
v 0.014429 -0.152918 0.311552
v 0.014429 -0.152918 0.332635
v 0.069881 -0.041815 0.364751
v 0.074247 -0.052356 0.394567
v 0.069881 -0.041815 0.394567
v 0.074247 -0.052356 0.364751
v 0.084789 -0.056723 0.394567
v 0.074247 -0.052356 0.394567
v 0.095330 -0.052356 0.364751
v 0.095330 -0.052356 0.394567
v 0.095330 -0.052356 0.394567
v 0.099697 -0.041815 0.364751
v 0.099697 -0.041815 0.394567
v 0.095330 -0.031273 0.394567
v 0.095330 -0.031273 0.364751
v 0.084789 -0.026907 0.394567
v 0.095330 -0.031273 0.394567
v 0.084789 -0.026907 0.364751
v 0.099697 -0.041815 0.364751
v 0.084789 -0.056723 0.364751
v 0.084789 -0.026907 0.364751
v 0.074247 -0.031273 0.394567
v 0.074247 -0.031273 0.364751
v 0.074247 -0.031273 0.394567
v 0.074247 -0.031273 0.394567
v 0.074247 -0.052356 0.394567
v 0.095330 -0.052356 0.394567
v 0.015465 -0.164287 0.350879
v 0.030931 -0.164287 0.350879
v 0.000000 -0.164287 0.350879
v 0.030931 -0.163943 0.197744
v 0.030931 -0.164287 0.350879
v 0.011141 -0.046450 -0.448563
v 0.000000 -0.046450 -0.448563
v 0.030931 -0.091551 0.087902
v 0.030931 0.037443 -0.317093
v 0.022283 0.037874 -0.449115
v 0.022283 -0.046450 -0.448563
v 0.030931 -0.048223 -0.168848
v 0.030931 -0.016071 -0.196279
v -0.015465 -0.048223 -0.168848
v -0.030931 -0.016071 -0.196279
v -0.015465 -0.016071 -0.196279
v -0.030931 -0.013201 -0.142124
v -0.030931 0.021821 -0.171926
v -0.030931 0.002875 -0.184102
v -0.015465 0.037443 -0.317093
v -0.030931 0.038402 -0.253830
v -0.015465 0.038402 -0.253830
v -0.030931 0.039887 0.350969
v -0.015465 0.040070 0.195296
v -0.030931 0.040230 0.195296
v -0.030931 0.040230 0.195296
v -0.030931 0.031972 0.066977
v -0.030931 0.031972 0.197744
v -0.015465 0.040118 -0.205166
v 0.000000 0.038402 -0.253830
v -0.015465 0.038402 -0.253830
v -0.030931 0.038402 -0.253830
v -0.030931 0.012619 -0.253488
v -0.015465 -0.016071 -0.196279
v -0.030931 -0.013164 -0.253146
v -0.015465 -0.013164 -0.253146
v -0.030931 0.040278 -0.115400
v -0.030931 0.021821 -0.115400
v -0.015465 -0.091551 0.087902
v -0.030931 -0.048223 -0.168848
v -0.015465 -0.048223 -0.168848
v -0.048618 -0.030885 0.076797
v -0.022283 0.037874 -0.449115
v -0.030931 0.037443 -0.317093
v -0.030931 -0.005670 -0.316751
v -0.030931 -0.013164 -0.253146
v -0.022283 -0.004288 -0.448839
v -0.011141 0.037874 -0.449115
v -0.011141 -0.004288 -0.448839
v -0.022283 -0.046450 -0.448563
v -0.030931 -0.048784 -0.316409
v -0.011141 -0.046450 -0.448563
v -0.015465 -0.048784 -0.316409
v -0.030931 0.039887 0.350969
v -0.015465 -0.163943 0.197744
v -0.030931 -0.091551 0.087902
v -0.015465 0.040118 -0.115400
v 0.000000 0.033485 0.066977
v 0.000000 0.023333 -0.115400
v 0.000000 0.023333 -0.148641
v -0.015465 0.040118 -0.148641
v 0.000000 0.023333 -0.205166
v -0.015465 0.039102 0.066977
v -0.030931 0.040278 -0.205166
v -0.030931 0.040278 -0.148641
v -0.008787 0.002920 -0.211530
v -0.008787 0.002920 -0.190353
v -0.008787 0.049225 -0.186151
v -0.008787 0.002920 -0.211530
v -0.008787 0.049225 -0.164974
v -0.008787 0.002920 -0.190353
v -0.008787 0.002920 -0.211530
v -0.008787 0.049225 -0.164974
v -0.008787 0.049225 -0.186151
v -0.030931 0.039263 0.066977
v -0.030931 0.040278 -0.148641
v -0.015465 0.040118 -0.205166
v -0.030931 0.040278 -0.205166
v -0.030931 0.040278 -0.115400
v -0.015465 0.040118 -0.148641
v -0.015465 0.040118 -0.115400
v -0.015465 -0.164287 0.350879
v -0.030931 -0.163943 0.197744
v -0.022283 -0.046450 -0.448563
v -0.030931 -0.048784 -0.316409
v -0.011141 0.037874 -0.449115
v -0.030931 -0.065986 0.197744
v -0.030931 0.031629 0.350879
v -0.005628 -0.037342 -0.251148
v -0.015465 -0.013164 -0.253146
v -0.015465 0.039726 0.350969
v -0.004281 -0.003192 -0.242742
v -0.004281 -0.017069 -0.258738
v -0.004281 -0.056332 -0.227020
v -0.004281 -0.033148 -0.232817
v -0.004281 -0.047025 -0.248813
v -0.004281 -0.003192 -0.242742
v -0.004281 -0.033148 -0.232817
v -0.004281 -0.017069 -0.258738
v -0.004281 -0.047025 -0.248813
v -0.015465 -0.048784 -0.316409
v -0.011256 -0.072962 -0.314411
v -0.030931 -0.048784 -0.316409
v -0.011256 -0.037342 -0.251148
v -0.011256 -0.037342 -0.251148
v -0.030931 -0.013164 -0.253146
v -0.005628 -0.072962 -0.314411
v -0.005628 -0.188733 -0.312132
v -0.015465 0.039726 0.350969
v -0.030931 0.031629 0.350879
v -0.015465 0.031629 0.350879
v -0.015465 -0.066329 0.350879
v -0.030931 -0.066329 0.350879
v -0.004281 -0.056332 -0.227020
v -0.004281 -0.047025 -0.248813
v -0.004281 -0.057683 -0.206794
v -0.011256 -0.188733 -0.312132
v -0.005628 -0.187774 -0.248869
v -0.011256 -0.187774 -0.248869
v -0.005628 -0.188733 -0.312132
v -0.011256 -0.187774 -0.248869
v -0.005628 -0.187774 -0.248869
v -0.011256 -0.072962 -0.314411
v -0.011256 -0.187774 -0.248869
v -0.125861 -0.117797 0.344655
v 0.000000 0.033059 0.344655
v -0.220162 0.042267 0.410070
v -0.125861 -0.117797 0.390204
v -0.125861 0.042267 0.390204
v 0.000000 0.033059 0.390204
v -0.125861 -0.117797 0.344655
v -0.125861 0.042267 0.390204
v 0.000000 0.033059 0.344655
v -0.125861 0.042267 0.344655
v -0.220162 -0.117797 0.410070
v -0.332244 -0.117797 0.397528
v -0.220162 -0.117797 0.364521
v -0.125861 -0.117797 0.390204
v -0.220162 0.042267 0.364521
v -0.220162 -0.117797 0.364521
v -0.125861 0.042267 0.344655
v -0.444731 0.045458 0.455336
v -0.332244 0.042267 0.443077
v -0.332244 0.042267 0.397528
v -0.220162 0.042267 0.410070
v -0.332244 -0.117797 0.397528
v -0.220162 0.042267 0.364521
v -0.332244 0.042267 0.443077
v -0.220162 -0.117797 0.410070
v -0.444731 -0.114607 0.500885
v -0.444731 0.045458 0.455336
v -0.444731 -0.114607 0.455336
v -0.444731 -0.114607 0.455336
v -0.332244 0.042267 0.397528
v -0.444731 -0.114607 0.500885
v -0.332244 -0.117797 0.443077
v -0.332244 -0.117797 0.443077
v -0.444731 -0.114607 0.455336
v -0.037500 -0.039985 0.397061
v -0.044972 0.040863 0.340329
v -0.029275 0.043665 0.394492
v -0.062872 -0.041227 0.339076
v -0.044972 0.040863 0.340329
v -0.037500 -0.039985 0.339076
v -0.062872 -0.041227 0.397061
v -0.075714 0.039358 0.340329
v -0.062872 -0.041227 0.339076
v -0.037500 -0.039985 0.397061
v -0.060017 0.042160 0.394492
v -0.062872 -0.041227 0.397061
v -0.038939 -0.120141 0.391911
v -0.063469 -0.122037 0.340314
v -0.032727 -0.120532 0.340314
v -0.060017 0.042160 0.394492
v -0.044972 0.040863 0.340329
v -0.075714 0.039358 0.340329
v -0.038939 -0.120141 0.391911
v -0.069681 -0.121646 0.391911
v -0.069681 -0.121646 0.391911
v -0.063469 -0.122037 0.340314
v -0.032727 -0.120532 0.340314
v -0.038939 -0.120141 0.391911
v -0.037500 -0.039985 0.339076
v -0.373702 -0.034474 0.479541
v -0.393060 0.046374 0.425693
v -0.366212 0.049176 0.475283
v -0.410817 -0.035717 0.428272
v -0.393060 0.046374 0.425693
v -0.386025 -0.034474 0.422880
v -0.398495 -0.035717 0.484933
v -0.423100 0.044868 0.432226
v -0.410817 -0.035717 0.428272
v -0.373702 -0.034474 0.479541
v -0.396251 0.047671 0.481816
v -0.398495 -0.035717 0.484933
v -0.376203 -0.114630 0.474815
v -0.411137 -0.116527 0.429609
v -0.381097 -0.115021 0.423076
v -0.396251 0.047671 0.481816
v -0.393060 0.046374 0.425693
v -0.423100 0.044868 0.432226
v -0.376203 -0.114630 0.474815
v -0.406243 -0.116136 0.481348
v -0.406243 -0.116136 0.481348
v -0.411137 -0.116527 0.429609
v -0.381097 -0.115021 0.423076
v -0.376203 -0.114630 0.474815
v -0.386025 -0.034474 0.422880
v -0.044934 -0.079426 0.195426
v -0.044934 -0.079426 0.239729
v -0.044934 -0.035123 0.195426
v -0.044934 -0.079426 0.195426
v -0.044934 -0.035123 0.239729
v -0.044934 -0.079426 0.239729
v -0.044934 -0.079426 0.195426
v -0.044934 -0.035123 0.239729
v -0.044934 -0.035123 0.195426
v -0.014429 -0.003381 0.311552
v -0.044245 0.007161 0.307186
v -0.014429 0.007161 0.307186
v -0.014429 -0.007747 0.322094
v -0.044245 -0.003381 0.311552
v -0.014429 -0.003381 0.311552
v -0.014429 -0.003381 0.332635
v -0.044245 -0.007747 0.322094
v -0.014429 0.007161 0.337001
v -0.044245 -0.003381 0.332635
v -0.014429 -0.003381 0.332635
v -0.014429 0.017702 0.332635
v -0.044245 0.007161 0.337001
v -0.014429 0.022068 0.322094
v -0.044245 0.017702 0.332635
v -0.014429 0.017702 0.332635
v -0.044245 0.017702 0.311552
v -0.044245 0.007161 0.307186
v -0.044245 0.007161 0.337001
v -0.044245 0.017702 0.311552
v -0.044245 0.022068 0.322094
v -0.044245 0.017702 0.311552
v -0.014429 0.017702 0.311552
v -0.014429 -0.003381 0.311552
v -0.014429 0.017702 0.311552
v -0.014429 0.017702 0.332635
v -0.014429 -0.152918 0.311552
v -0.044245 -0.142376 0.307186
v -0.014429 -0.142376 0.307186
v -0.014429 -0.157284 0.322094
v -0.044245 -0.152918 0.311552
v -0.014429 -0.152918 0.311552
v -0.044245 -0.152918 0.332635
v -0.044245 -0.157284 0.322094
v -0.014429 -0.142376 0.337002
v -0.044245 -0.152918 0.332635
v -0.014429 -0.152918 0.332635
v -0.014429 -0.131835 0.332635
v -0.044245 -0.142376 0.337002
v -0.014429 -0.127468 0.322094
v -0.044245 -0.131835 0.332635
v -0.014429 -0.131835 0.332635
v -0.044245 -0.131835 0.311552
v -0.044245 -0.142376 0.307186
v -0.044245 -0.142376 0.337002
v -0.014429 -0.131835 0.311552
v -0.044245 -0.127468 0.322094
v -0.044245 -0.131835 0.311552
v -0.014429 -0.131835 0.311552
v -0.014429 -0.152918 0.311552
v -0.014429 -0.131835 0.311552
v -0.014429 -0.131835 0.332635
v -0.074247 -0.052356 0.394567
v -0.069881 -0.041815 0.364751
v -0.069881 -0.041815 0.394567
v -0.084789 -0.056723 0.394567
v -0.074247 -0.052356 0.364751
v -0.074247 -0.052356 0.394567
v -0.095330 -0.052356 0.364751
v -0.084789 -0.056723 0.364751
v -0.095330 -0.052356 0.394567
v -0.099697 -0.041815 0.364751
v -0.095330 -0.052356 0.364751
v -0.095330 -0.031273 0.394567
v -0.099697 -0.041815 0.394567
v -0.084789 -0.026907 0.394567
v -0.095330 -0.031273 0.364751
v -0.095330 -0.031273 0.394567
v -0.074247 -0.031273 0.364751
v -0.069881 -0.041815 0.364751
v -0.099697 -0.041815 0.364751
v -0.074247 -0.031273 0.394567
v -0.084789 -0.026907 0.364751
v -0.074247 -0.031273 0.364751
v -0.074247 -0.031273 0.394567
v -0.074247 -0.052356 0.394567
v -0.074247 -0.031273 0.394567
v -0.095330 -0.031273 0.394567
v -0.015465 -0.164287 0.350879
v -0.030931 -0.164287 0.350879
v -0.030931 -0.163943 0.197744
v -0.030931 -0.066329 0.350879
v -0.011141 -0.046450 -0.448563
v -0.030931 -0.091551 0.087902
v -0.030931 0.037443 -0.317093
v -0.022283 -0.004288 -0.448839
v -0.022283 -0.046450 -0.448563
v -0.030931 -0.048223 -0.168848
v -0.030931 -0.016071 -0.196279
v 0.030931 -0.048223 -0.168848
v 0.030931 0.037443 -0.317093
v 0.030931 -0.016071 -0.196279
v 0.022283 0.037874 -0.449115
v 0.000000 -0.046450 -0.448563
v 0.000000 0.023333 -0.115400
v 0.000000 0.049225 -0.164974
v 0.008787 0.049225 -0.186151
v 0.008787 0.049225 -0.164974
v 0.000000 0.049225 -0.164974
v 0.008787 0.002920 -0.190353
v 0.000000 0.049225 -0.164974
v 0.030931 -0.164287 0.350879
v 0.000000 0.033141 0.350879
v 0.000000 -0.003192 -0.242742
v 0.004281 -0.057683 -0.206794
v 0.000000 -0.003192 -0.242742
v 0.004281 -0.003192 -0.242742
v 0.004281 -0.017069 -0.258738
v 0.000000 -0.003192 -0.242742
v 0.030931 -0.048784 -0.316409
v 0.011256 -0.188733 -0.312132
v 0.030931 0.039887 0.350969
v 0.004281 -0.057683 -0.206794
v 0.000000 -0.057683 -0.206794
v 0.000000 -0.188733 -0.312132
v 0.000000 -0.187774 -0.248869
v 0.000000 0.033059 0.344655
v 0.000000 0.033059 0.390204
v 0.444731 0.045458 0.500885
v 0.332244 -0.117797 0.443077
v 0.444731 0.045458 0.500885
v 0.444731 0.045458 0.455336
v 0.029275 0.043665 0.394492
v 0.075714 0.039358 0.340329
v 0.060017 0.042160 0.394492
v 0.029275 0.043665 0.394492
v 0.069681 -0.121646 0.391911
v 0.029275 0.043665 0.394492
v 0.366212 0.049176 0.475283
v 0.423100 0.044868 0.432226
v 0.396251 0.047671 0.481816
v 0.366212 0.049176 0.475283
v 0.406243 -0.116136 0.481348
v 0.366212 0.049176 0.475283
v 0.000000 -0.035123 0.195426
v 0.044934 -0.035123 0.195426
v 0.044934 -0.035123 0.239729
v 0.000000 -0.035123 0.239729
v 0.044934 -0.079426 0.239729
v 0.000000 -0.035123 0.239729
v 0.044245 -0.003381 0.311552
v 0.044245 -0.003381 0.311552
v 0.044245 -0.003381 0.332635
v 0.044245 0.017702 0.332635
v 0.044245 0.022068 0.322094
v 0.044245 -0.003381 0.311552
v 0.044245 0.007161 0.307186
v 0.044245 0.017702 0.311552
v 0.044245 0.017702 0.332635
v 0.044245 -0.003381 0.332635
v 0.014429 0.007161 0.307186
v 0.014429 -0.007747 0.322094
v 0.014429 0.007161 0.337001
v 0.014429 0.017702 0.332635
v 0.014429 0.022068 0.322094
v 0.044245 -0.152918 0.311552
v 0.044245 -0.157284 0.322094
v 0.044245 -0.131835 0.332635
v 0.044245 -0.152918 0.311552
v 0.044245 -0.142376 0.307186
v 0.044245 -0.131835 0.311552
v 0.044245 -0.131835 0.332635
v 0.044245 -0.152918 0.332635
v 0.044245 -0.131835 0.311552
v 0.014429 -0.142376 0.307186
v 0.014429 -0.157284 0.322094
v 0.014429 -0.142376 0.337002
v 0.014429 -0.131835 0.332635
v 0.014429 -0.127468 0.322094
v 0.074247 -0.052356 0.364751
v 0.084789 -0.056723 0.364751
v 0.095330 -0.052356 0.364751
v 0.095330 -0.031273 0.364751
v 0.074247 -0.052356 0.364751
v 0.069881 -0.041815 0.364751
v 0.074247 -0.031273 0.364751
v 0.095330 -0.031273 0.364751
v 0.095330 -0.052356 0.364751
v 0.074247 -0.031273 0.364751
v 0.069881 -0.041815 0.394567
v 0.084789 -0.056723 0.394567
v 0.099697 -0.041815 0.394567
v 0.095330 -0.031273 0.394567
v 0.084789 -0.026907 0.394567
v -0.030931 -0.048223 -0.168848
v -0.030931 0.039263 0.066977
v -0.030931 -0.016071 -0.196279
v -0.022283 0.037874 -0.449115
v -0.015465 0.039102 0.066977
v -0.008787 0.049225 -0.186151
v -0.008787 0.049225 -0.164974
v -0.008787 0.002920 -0.190353
v -0.030931 -0.164287 0.350879
v -0.004281 -0.057683 -0.206794
v -0.004281 -0.003192 -0.242742
v -0.004281 -0.017069 -0.258738
v -0.011256 -0.188733 -0.312132
v -0.030931 0.039887 0.350969
v -0.004281 -0.057683 -0.206794
v -0.011256 -0.188733 -0.312132
v 0.000000 0.033059 0.390204
v -0.444731 0.045458 0.500885
v -0.444731 0.045458 0.500885
v -0.444731 0.045458 0.455336
v -0.444731 0.045458 0.500885
v -0.444731 -0.114607 0.500885
v -0.075714 0.039358 0.340329
v -0.060017 0.042160 0.394492
v -0.029275 0.043665 0.394492
v -0.069681 -0.121646 0.391911
v -0.029275 0.043665 0.394492
v -0.063469 -0.122037 0.340314
v -0.032727 -0.120532 0.340314
v -0.423100 0.044868 0.432226
v -0.396251 0.047671 0.481816
v -0.366212 0.049176 0.475283
v -0.406243 -0.116136 0.481348
v -0.366212 0.049176 0.475283
v -0.411137 -0.116527 0.429609
v -0.381097 -0.115021 0.423076
v -0.044934 -0.035123 0.195426
v -0.044934 -0.035123 0.239729
v -0.044934 -0.079426 0.239729
v -0.044245 -0.003381 0.311552
v -0.044245 -0.003381 0.332635
v -0.044245 0.017702 0.332635
v -0.044245 -0.003381 0.311552
v -0.044245 -0.007747 0.322094
v -0.044245 -0.003381 0.332635
v -0.044245 0.017702 0.332635
v -0.044245 0.022068 0.322094
v -0.014429 0.017702 0.311552
v -0.014429 0.007161 0.307186
v -0.014429 0.022068 0.322094
v -0.014429 0.007161 0.337001
v -0.014429 -0.003381 0.332635
v -0.014429 -0.007747 0.322094
v -0.044245 -0.152918 0.311552
v -0.014429 -0.152918 0.332635
v -0.044245 -0.131835 0.332635
v -0.044245 -0.152918 0.311552
v -0.044245 -0.157284 0.322094
v -0.044245 -0.152918 0.332635
v -0.044245 -0.131835 0.332635
v -0.044245 -0.127468 0.322094
v -0.044245 -0.131835 0.311552
v -0.014429 -0.142376 0.307186
v -0.014429 -0.127468 0.322094
v -0.014429 -0.142376 0.337002
v -0.014429 -0.152918 0.332635
v -0.014429 -0.157284 0.322094
v -0.074247 -0.052356 0.364751
v -0.095330 -0.052356 0.394567
v -0.095330 -0.031273 0.364751
v -0.074247 -0.052356 0.364751
v -0.084789 -0.056723 0.364751
v -0.095330 -0.052356 0.364751
v -0.095330 -0.031273 0.364751
v -0.084789 -0.026907 0.364751
v -0.074247 -0.031273 0.364751
v -0.069881 -0.041815 0.394567
v -0.084789 -0.026907 0.394567
v -0.099697 -0.041815 0.394567
v -0.095330 -0.052356 0.394567
v -0.084789 -0.056723 0.394567
v -0.030931 -0.164287 0.350879
v -0.022283 0.037874 -0.449115
vt 0.788070 0.121432
vt 0.811701 0.111212
vt 0.788086 0.110390
vt 0.610823 0.616249
vt 0.635938 0.637357
vt 0.624263 0.607446
vt 0.779808 0.850254
vt 0.789415 0.895513
vt 0.789136 0.850310
vt 0.789127 0.529378
vt 0.780086 0.418081
vt 0.779736 0.529322
vt 0.604828 0.787017
vt 0.599608 0.878754
vt 0.605507 0.880459
vt 0.798465 0.850366
vt 0.788547 0.815541
vt 0.598581 0.557810
vt 0.616958 0.557917
vt 0.561210 0.077897
vt 0.520524 0.088938
vt 0.561210 0.088948
vt 0.597962 0.656739
vt 0.599632 0.787056
vt 0.881925 0.433137
vt 0.870569 0.248704
vt 0.870875 0.433178
vt 0.611116 0.656640
vt 0.650592 0.793733
vt 0.784953 0.989830
vt 0.791673 0.989870
vt 0.635335 0.558023
vt 0.629664 0.512613
vt 0.925963 0.349110
vt 0.933926 0.319003
vt 0.925972 0.318992
vt 0.657597 0.418188
vt 0.627546 0.418217
vt 0.229450 0.102861
vt 0.237438 0.197296
vt 0.240500 0.102861
vt 0.600661 0.989992
vt 0.606546 0.989883
vt 0.675322 0.879935
vt 0.881619 0.248663
vt 0.871033 0.168389
vt 0.788673 0.751395
vt 0.800799 0.621108
vt 0.789317 0.621069
vt 0.804386 0.775153
vt 0.788626 0.775148
vt 0.804307 0.815545
vt 0.597496 0.592594
vt 0.597789 0.632986
vt 0.561902 0.360277
vt 0.575172 0.390732
vt 0.575172 0.353004
vt 0.246195 0.082689
vt 0.252467 0.050368
vt 0.246195 0.050212
vt 0.902099 0.194958
vt 0.915360 0.164586
vt 0.902099 0.157296
vt 0.207349 0.082845
vt 0.213628 0.049713
vt 0.207349 0.049713
vt 0.966507 0.307791
vt 0.960229 0.292665
vt 0.960229 0.307787
vt 0.974356 0.470488
vt 0.969055 0.455334
vt 0.969055 0.470466
vt 0.779927 0.621013
vt 0.779236 0.775093
vt 0.779157 0.815485
vt 0.779283 0.751340
vt 0.859983 0.168430
vt 0.859519 0.248745
vt 0.882083 0.168348
vt 0.870569 0.059023
vt 0.245398 0.197296
vt 0.251550 0.102861
vt 0.918009 0.349099
vt 0.918017 0.318981
vt 0.798744 0.895569
vt 0.798394 0.989911
vt 0.859824 0.433219
vt 0.520524 0.099988
vt 0.561210 0.099998
vt 0.811716 0.100170
vt 0.788101 0.099348
vt 0.676361 0.989359
vt 0.436521 0.398005
vt 0.432499 0.380731
vt 0.425469 0.398005
vt 0.800982 0.527664
vt 0.789477 0.418136
vt 0.497248 0.103586
vt 0.499583 0.117246
vt 0.499583 0.104689
vt 0.917091 0.247105
vt 0.911430 0.231039
vt 0.902099 0.245160
vt 0.935377 0.202248
vt 0.938436 0.180857
vt 0.935377 0.180857
vt 0.907964 0.266879
vt 0.558683 0.057834
vt 0.561739 0.036163
vt 0.558683 0.036201
vt 0.589405 0.059662
vt 0.603374 0.076394
vt 0.603374 0.053846
vt 0.104581 0.197445
vt 0.101636 0.180126
vt 0.097618 0.180120
vt 0.660393 0.512627
vt 0.651560 0.559282
vt 0.676618 0.513886
vt 0.428477 0.380731
vt 0.414418 0.398005
vt 0.093540 0.197430
vt 0.093599 0.180115
vt 0.097686 0.097382
vt 0.093668 0.097376
vt 0.630290 0.392271
vt 0.641342 0.398057
vt 0.641342 0.392271
vt 0.652393 0.322270
vt 0.641342 0.322270
vt 0.630290 0.322270
vt 0.652393 0.393352
vt 0.652393 0.392271
vt 0.859519 0.059064
vt 0.947101 0.121455
vt 0.944000 0.106986
vt 0.944042 0.121465
vt 0.947059 0.137259
vt 0.944000 0.137269
vt 0.935377 0.163368
vt 0.809907 0.148111
vt 0.813929 0.193267
vt 0.813929 0.148114
vt 0.805886 0.148107
vt 0.809907 0.193263
vt 0.428477 0.273237
vt 0.436521 0.380731
vt 0.432499 0.273237
vt 0.758785 0.560106
vt 0.759140 0.514895
vt 0.278369 0.197506
vt 0.310918 0.089723
vt 0.278369 0.089721
vt 0.285071 0.669152
vt 0.392687 0.759013
vt 0.392813 0.669152
vt 0.010008 0.762128
vt 0.124422 0.829515
vt 0.124389 0.762128
vt 0.117809 0.672188
vt 0.010008 0.672188
vt 0.258353 0.582200
vt 0.225825 0.672147
vt 0.258353 0.672129
vt 0.948989 0.716518
vt 0.916491 0.796100
vt 0.949039 0.795968
vt 0.211638 0.514847
vt 0.220595 0.434758
vt 0.188067 0.434777
vt 0.225825 0.582218
vt 0.244166 0.514829
vt 0.934843 0.852910
vt 0.278369 0.759013
vt 0.393065 0.826935
vt 0.878709 0.920747
vt 0.869967 0.989860
vt 0.911257 0.920616
vt 0.902295 0.853042
vt 0.278748 0.826935
vt 0.393738 0.907948
vt 0.010041 0.829515
vt 0.124476 0.909609
vt 0.338900 0.197696
vt 0.371449 0.083623
vt 0.338900 0.083615
vt 0.279420 0.907948
vt 0.392722 0.989992
vt 0.012470 0.989992
vt 0.126851 0.989992
vt 0.179395 0.354444
vt 0.146868 0.354463
vt 0.207349 0.274537
vt 0.247002 0.332834
vt 0.248780 0.275183
vt 0.780149 0.397445
vt 0.797285 0.339996
vt 0.779157 0.339485
vt 0.340699 0.332704
vt 0.380331 0.275327
vt 0.338900 0.275954
vt 0.694513 0.395804
vt 0.714032 0.338158
vt 0.695985 0.336204
vt 0.694115 0.095218
vt 0.672294 0.060772
vt 0.672294 0.097872
vt 0.474897 0.113512
vt 0.457322 0.077691
vt 0.457322 0.117246
vt 0.716379 0.280909
vt 0.694513 0.278542
vt 0.375781 0.217721
vt 0.338900 0.218321
vt 0.780149 0.281834
vt 0.802114 0.282453
vt 0.211923 0.217313
vt 0.248780 0.217686
vt 0.278369 0.275059
vt 0.316737 0.332683
vt 0.318883 0.275012
vt 0.458111 0.252803
vt 0.475208 0.195245
vt 0.457322 0.194901
vt 0.150665 0.331621
vt 0.187333 0.274851
vt 0.146868 0.274876
vt 0.520524 0.395636
vt 0.540181 0.338021
vt 0.522551 0.336065
vt 0.652117 0.093789
vt 0.630290 0.059327
vt 0.630290 0.096433
vt 0.432415 0.114526
vt 0.414418 0.078602
vt 0.414418 0.117060
vt 0.541885 0.280732
vt 0.520524 0.278362
vt 0.183832 0.217184
vt 0.146868 0.217256
vt 0.458111 0.137263
vt 0.479784 0.137680
vt 0.281901 0.217766
vt 0.318883 0.217524
vt 0.071458 0.045690
vt 0.103110 0.077349
vt 0.103111 0.045690
vt 0.902144 0.401220
vt 0.933741 0.433301
vt 0.933785 0.401220
vt 0.278377 0.038046
vt 0.309945 0.069705
vt 0.309953 0.038046
vt 0.146867 0.132948
vt 0.178526 0.165057
vt 0.178526 0.132948
vt 0.041646 0.133248
vt 0.010008 0.165371
vt 0.041646 0.165354
vt 0.768054 0.095020
vt 0.736396 0.122253
vt 0.768054 0.122125
vt 0.527948 0.057741
vt 0.535611 0.036584
vt 0.527978 0.036453
vt 0.025064 0.053421
vt 0.017423 0.032073
vt 0.017423 0.053377
vt 0.010008 0.053429
vt 0.976577 0.180942
vt 0.969037 0.202248
vt 0.976577 0.202248
vt 0.969037 0.180942
vt 0.961511 0.202248
vt 0.969055 0.508572
vt 0.976612 0.492229
vt 0.969055 0.490587
vt 0.630290 0.030879
vt 0.644177 0.036667
vt 0.649929 0.022762
vt 0.984121 0.508511
vt 0.984121 0.490526
vt 0.520524 0.057872
vt 0.520553 0.036584
vt 0.974820 0.788126
vt 0.988737 0.782361
vt 0.982972 0.768442
vt 0.381428 0.063467
vt 0.389091 0.042311
vt 0.381458 0.042180
vt 0.161923 0.031826
vt 0.154283 0.053085
vt 0.161923 0.053129
vt 0.146868 0.031834
vt 0.146868 0.053138
vt 0.982183 0.115974
vt 0.974643 0.137280
vt 0.982183 0.137280
vt 0.974643 0.115974
vt 0.967117 0.137280
vt 0.239924 0.028398
vt 0.247480 0.012055
vt 0.239924 0.010412
vt 0.589405 0.028042
vt 0.603292 0.033829
vt 0.609043 0.019924
vt 0.247480 0.030040
vt 0.254989 0.010351
vt 0.374003 0.063598
vt 0.374033 0.042311
vt 0.974820 0.669022
vt 0.988737 0.663258
vt 0.982972 0.649339
vt 0.961428 0.349113
vt 0.969015 0.327816
vt 0.961429 0.327807
vt 0.414418 0.056044
vt 0.421998 0.034643
vt 0.414418 0.034752
vt 0.429482 0.056053
vt 0.429482 0.034760
vt 0.968873 0.433290
vt 0.961591 0.411995
vt 0.961586 0.433301
vt 0.953847 0.433290
vt 0.969055 0.989940
vt 0.973741 0.968677
vt 0.969055 0.968635
vt 0.974813 0.827825
vt 0.988714 0.822071
vt 0.982956 0.808149
vt 0.973741 0.989983
vt 0.981773 0.968686
vt 0.953951 0.349122
vt 0.953952 0.327816
vt 0.988740 0.615403
vt 0.974821 0.609637
vt 0.969055 0.623556
vt 0.641342 0.252270
vt 0.630290 0.252270
vt 0.652393 0.252270
vt 0.745136 0.879411
vt 0.746176 0.988835
vt 0.925980 0.288873
vt 0.918025 0.288862
vt 0.692972 0.801308
vt 0.598936 0.512599
vt 0.597496 0.418245
vt 0.933935 0.288884
vt 0.660759 0.618073
vt 0.637702 0.598644
vt 0.811732 0.089128
vt 0.788132 0.077264
vt 0.788116 0.088306
vt 0.538800 0.637255
vt 0.564044 0.616221
vt 0.550599 0.607379
vt 0.808073 0.895625
vt 0.817123 0.850478
vt 0.807794 0.850422
vt 0.817402 0.418305
vt 0.807784 0.529490
vt 0.817052 0.529547
vt 0.574449 0.878758
vt 0.569509 0.787006
vt 0.568530 0.880445
vt 0.597512 0.203663
vt 0.599542 0.168925
vt 0.598743 0.168888
vt 0.576503 0.557819
vt 0.558080 0.557871
vt 0.520524 0.111039
vt 0.561210 0.122098
vt 0.561210 0.111048
vt 0.576808 0.656749
vt 0.563621 0.656612
vt 0.848468 0.248786
vt 0.837724 0.433301
vt 0.848774 0.433260
vt 0.524748 0.793591
vt 0.811835 0.989992
vt 0.817402 0.895681
vt 0.545487 0.512530
vt 0.539657 0.557923
vt 0.902108 0.318958
vt 0.910054 0.349088
vt 0.910062 0.318969
vt 0.517230 0.418022
vt 0.514682 0.512453
vt 0.221516 0.197296
vt 0.218399 0.102861
vt 0.573038 0.989992
vt 0.848933 0.168471
vt 0.837418 0.248827
vt 0.597496 0.267809
vt 0.602991 0.398172
vt 0.610258 0.267847
vt 0.610264 0.244093
vt 0.597502 0.244056
vt 0.610273 0.203700
vt 0.807975 0.621181
vt 0.577479 0.592606
vt 0.577056 0.632997
vt 0.239924 0.050057
vt 0.561902 0.295259
vt 0.575172 0.325714
vt 0.575172 0.287985
vt 0.219907 0.082845
vt 0.219907 0.049713
vt 0.953951 0.307783
vt 0.979656 0.455377
vt 0.979656 0.470509
vt 0.817243 0.621238
vt 0.816552 0.775317
vt 0.807205 0.815653
vt 0.816472 0.815709
vt 0.816598 0.751564
vt 0.807284 0.775261
vt 0.807331 0.751507
vt 0.848468 0.059105
vt 0.837883 0.168512
vt 0.213556 0.197296
vt 0.207349 0.102861
vt 0.805114 0.989951
vt 0.498545 0.879716
vt 0.567139 0.989866
vt 0.440543 0.380731
vt 0.447572 0.398005
vt 0.808134 0.418248
vt 0.494913 0.115041
vt 0.494913 0.102483
vt 0.600937 0.110992
vt 0.595273 0.127100
vt 0.610273 0.125120
vt 0.941495 0.202248
vt 0.941495 0.180857
vt 0.604406 0.146891
vt 0.555627 0.036239
vt 0.082498 0.197414
vt 0.085563 0.180103
vt 0.071456 0.197399
vt 0.522123 0.559130
vt 0.444564 0.380731
vt 0.458624 0.398005
vt 0.089581 0.180109
vt 0.089650 0.097371
vt 0.663445 0.398057
vt 0.674496 0.392271
vt 0.663445 0.392271
vt 0.663445 0.322270
vt 0.674496 0.322270
vt 0.940983 0.121475
vt 0.940942 0.137280
vt 0.941495 0.163368
vt 0.797844 0.193254
vt 0.801865 0.148104
vt 0.797844 0.148101
vt 0.801865 0.193257
vt 0.444564 0.273237
vt 0.440543 0.273237
vt 0.497148 0.513660
vt 0.414629 0.559639
vt 0.392938 0.579291
vt 0.285071 0.669152
vt 0.124422 0.514862
vt 0.010008 0.582249
vt 0.124389 0.582249
vt 0.117809 0.672188
vt 0.258353 0.762057
vt 0.916490 0.644256
vt 0.948989 0.716518
vt 0.949039 0.644124
vt 0.211638 0.829462
vt 0.220595 0.909541
vt 0.244166 0.829444
vt 0.225825 0.762076
vt 0.934843 0.587297
vt 0.393505 0.512559
vt 0.278620 0.579291
vt 0.869967 0.453318
vt 0.878709 0.519914
vt 0.911257 0.519783
vt 0.902295 0.587429
vt 0.394401 0.433524
vt 0.279187 0.512559
vt 0.124476 0.434768
vt 0.010041 0.514862
vt 0.672294 0.117888
vt 0.704843 0.232254
vt 0.704843 0.117890
vt 0.393609 0.354944
vt 0.280083 0.433524
vt 0.012470 0.354385
vt 0.010095 0.434768
vt 0.188067 0.909560
vt 0.179395 0.989973
vt 0.777827 0.199297
vt 0.738175 0.257919
vt 0.776931 0.258512
vt 0.419173 0.195183
vt 0.436387 0.252663
vt 0.437305 0.194723
vt 0.010008 0.274804
vt 0.049633 0.333158
vt 0.051439 0.275442
vt 0.480988 0.337991
vt 0.500507 0.395638
vt 0.499034 0.336037
vt 0.031793 0.076125
vt 0.010008 0.110552
vt 0.031793 0.113231
vt 0.797844 0.253424
vt 0.816275 0.218372
vt 0.797844 0.213283
vt 0.478640 0.280743
vt 0.500507 0.278375
vt 0.014555 0.217494
vt 0.051439 0.217705
vt 0.436387 0.137076
vt 0.773257 0.142306
vt 0.736396 0.199931
vt 0.561041 0.199106
vt 0.522669 0.257821
vt 0.558172 0.258346
vt 0.634709 0.174327
vt 0.651577 0.231954
vt 0.652277 0.174079
vt 0.071456 0.274788
vt 0.108109 0.333290
vt 0.111913 0.275614
vt 0.738100 0.338188
vt 0.757758 0.395802
vt 0.755730 0.336232
vt 0.168663 0.075830
vt 0.146867 0.110255
vt 0.168663 0.112931
vt 0.902099 0.133236
vt 0.920925 0.097811
vt 0.902099 0.093767
vt 0.736396 0.280899
vt 0.757758 0.278529
vt 0.074952 0.217477
vt 0.111913 0.217873
vt 0.651577 0.116449
vt 0.557508 0.142115
vt 0.520524 0.199840
vt 0.933830 0.369138
vt 0.933755 0.042092
vt 0.902099 0.073750
vt 0.933753 0.073750
vt 0.146867 0.197167
vt 0.178526 0.197167
vt 0.041646 0.197459
vt 0.736396 0.068043
vt 0.768054 0.067915
vt 0.353957 0.063598
vt 0.346354 0.042180
vt 0.346325 0.063467
vt 0.961186 0.052394
vt 0.968827 0.073742
vt 0.968827 0.052438
vt 0.953771 0.052447
vt 0.961186 0.073697
vt 0.844944 0.017659
vt 0.852484 0.038965
vt 0.852484 0.017659
vt 0.837418 0.017659
vt 0.844944 0.038965
vt 0.976612 0.549920
vt 0.969055 0.530292
vt 0.969055 0.548278
vt 0.974820 0.708723
vt 0.982972 0.708724
vt 0.974820 0.689039
vt 0.984121 0.530231
vt 0.976612 0.531934
vt 0.338930 0.042311
vt 0.338900 0.063598
vt 0.982942 0.887566
vt 0.969055 0.893306
vt 0.974807 0.907231
vt 0.958029 0.268823
vt 0.950426 0.247405
vt 0.950396 0.268692
vt 0.464737 0.032584
vt 0.472377 0.053932
vt 0.472377 0.032628
vt 0.457322 0.053940
vt 0.464737 0.053887
vt 0.679819 0.016795
vt 0.687359 0.038101
vt 0.687359 0.016795
vt 0.672294 0.016795
vt 0.679819 0.038101
vt 0.212398 0.029697
vt 0.204842 0.010069
vt 0.204842 0.028055
vt 0.974820 0.748424
vt 0.982972 0.748425
vt 0.974820 0.728740
vt 0.219907 0.027994
vt 0.212398 0.011712
vt 0.943001 0.247536
vt 0.942972 0.268823
vt 0.967658 0.012699
vt 0.953771 0.018440
vt 0.959523 0.032364
vt 0.968873 0.391958
vt 0.961591 0.370662
vt 0.961586 0.391968
vt 0.795651 0.035839
vt 0.803134 0.057248
vt 0.803134 0.035956
vt 0.788070 0.057239
vt 0.795651 0.057131
vt 0.751460 0.026592
vt 0.743873 0.047890
vt 0.751459 0.047898
vt 0.736397 0.026592
vt 0.743874 0.026584
vt 0.973741 0.927303
vt 0.981773 0.948618
vt 0.981773 0.927312
vt 0.982956 0.867536
vt 0.988714 0.861775
vt 0.969055 0.853608
vt 0.969055 0.927261
vt 0.973741 0.948609
vt 0.953852 0.370652
vt 0.953847 0.391958
vt 0.982974 0.569936
vt 0.969055 0.575702
vt 0.974821 0.589621
vt 0.663445 0.252270
vt 0.674496 0.252270
vt 0.428559 0.878986
vt 0.497153 0.989136
vt 0.910071 0.288851
vt 0.481101 0.801038
vt 0.576292 0.512607
vt 0.547355 0.418139
vt 0.902116 0.288840
vt 0.513978 0.617898
vt 0.537155 0.598537
vt 0.811685 0.122253
vt 0.780086 0.895457
vt 0.520524 0.077888
vt 0.933918 0.349122
vt 0.229477 0.197296
vt 0.804432 0.751399
vt 0.561902 0.398005
vt 0.252467 0.082845
vt 0.915360 0.202248
vt 0.213628 0.082845
vt 0.966507 0.292668
vt 0.974356 0.455356
vt 0.881619 0.058982
vt 0.801328 0.418236
vt 0.497248 0.116144
vt 0.922955 0.222264
vt 0.938436 0.202248
vt 0.922955 0.268823
vt 0.561739 0.057796
vt 0.589405 0.082210
vt 0.115623 0.197461
vt 0.101704 0.097388
vt 0.630290 0.398172
vt 0.947059 0.106976
vt 0.938436 0.163368
vt 0.805886 0.193260
vt 0.436521 0.273237
vt 0.310918 0.197507
vt 0.916441 0.716650
vt 0.837418 0.989992
vt 0.010095 0.909609
vt 0.371449 0.197704
vt 0.278404 0.989992
vt 0.208238 0.334428
vt 0.802114 0.398064
vt 0.379405 0.334927
vt 0.716379 0.398172
vt 0.694115 0.058118
vt 0.474897 0.073957
vt 0.281242 0.334927
vt 0.479784 0.253220
vt 0.186088 0.334428
vt 0.541885 0.398005
vt 0.652117 0.056683
vt 0.432415 0.076069
vt 0.071456 0.077349
vt 0.902099 0.433301
vt 0.278369 0.069705
vt 0.146867 0.165057
vt 0.010008 0.133266
vt 0.736396 0.095148
vt 0.535581 0.057872
vt 0.025064 0.032117
vt 0.010008 0.032126
vt 0.961511 0.180942
vt 0.976612 0.510215
vt 0.644177 0.016988
vt 0.636042 0.016975
vt 0.630290 0.022729
vt 0.636042 0.036653
vt 0.649929 0.030913
vt 0.982972 0.788126
vt 0.988737 0.774208
vt 0.974820 0.768441
vt 0.969055 0.774206
vt 0.969055 0.782360
vt 0.389061 0.063598
vt 0.154283 0.031781
vt 0.967117 0.115974
vt 0.603291 0.014151
vt 0.595157 0.014137
vt 0.589405 0.019891
vt 0.595157 0.033816
vt 0.609043 0.028075
vt 0.254989 0.028337
vt 0.982972 0.669023
vt 0.988737 0.655104
vt 0.974820 0.649338
vt 0.969055 0.655103
vt 0.969055 0.663256
vt 0.969014 0.349122
vt 0.421998 0.055935
vt 0.968878 0.411984
vt 0.953852 0.411984
vt 0.974813 0.808143
vt 0.969055 0.813903
vt 0.969055 0.822056
vt 0.982956 0.827831
vt 0.988714 0.813918
vt 0.981773 0.989992
vt 0.982974 0.609637
vt 0.969055 0.615403
vt 0.974821 0.629321
vt 0.982974 0.629321
vt 0.988740 0.623556
vt 0.811747 0.078086
vt 0.574718 0.787060
vt 0.520524 0.122089
vt 0.902099 0.349077
vt 0.598188 0.398135
vt 0.239924 0.082533
vt 0.561902 0.332987
vt 0.953951 0.292661
vt 0.837418 0.059146
vt 0.589405 0.102226
vt 0.589405 0.148871
vt 0.555627 0.057872
vt 0.085631 0.097365
vt 0.674496 0.398172
vt 0.940942 0.106997
vt 0.414418 0.514427
vt 0.916441 0.716650
vt 0.837418 0.453449
vt 0.672294 0.232252
vt 0.279291 0.354944
vt 0.126851 0.354385
vt 0.146867 0.989992
vt 0.414418 0.253220
vt 0.010936 0.334369
vt 0.478640 0.398005
vt 0.010008 0.073446
vt 0.816275 0.258512
vt 0.414418 0.137634
vt 0.736396 0.142270
vt 0.630290 0.232254
vt 0.072702 0.334369
vt 0.736396 0.398172
vt 0.146867 0.073154
vt 0.920925 0.137280
vt 0.630290 0.116749
vt 0.520524 0.142178
vt 0.902189 0.369138
vt 0.902101 0.042092
vt 0.010008 0.197477
vt 0.353987 0.042311
vt 0.953771 0.073750
vt 0.837418 0.038965
vt 0.988737 0.702959
vt 0.988737 0.694805
vt 0.982972 0.689040
vt 0.969055 0.694804
vt 0.969055 0.702957
vt 0.984121 0.548217
vt 0.974807 0.887552
vt 0.969055 0.901457
vt 0.982942 0.907244
vt 0.988694 0.901490
vt 0.988694 0.893339
vt 0.958059 0.247536
vt 0.457322 0.032637
vt 0.672294 0.038101
vt 0.988737 0.742660
vt 0.988737 0.734507
vt 0.982972 0.728741
vt 0.969055 0.734505
vt 0.969055 0.742659
vt 0.219907 0.010008
vt 0.959523 0.012686
vt 0.953771 0.026591
vt 0.967658 0.032377
vt 0.973410 0.026623
vt 0.973410 0.018472
vt 0.968878 0.370652
vt 0.788070 0.035947
vt 0.736396 0.047898
vt 0.988714 0.853623
vt 0.982956 0.847854
vt 0.974813 0.847848
vt 0.969055 0.861761
vt 0.974813 0.867530
vt 0.969055 0.948567
vt 0.974821 0.569936
vt 0.969055 0.583855
vt 0.982974 0.589621
vt 0.988740 0.583855
vt 0.988740 0.575702
vt 0.427167 0.988407
vt 0.577479 0.418255
vn 0.807867 -0.528687 -0.260462
vn 0.000000 -0.869890 -0.493246
vn 0.000000 -0.897042 -0.441946
vn 1.000000 -0.000000 -0.000000
vn 0.999864 -0.003014 -0.016247
vn 1.000000 -0.000000 -0.000000
vn 0.709391 0.704586 -0.017986
vn 0.000000 0.999982 -0.005943
vn 0.000000 0.999683 -0.025196
vn -0.203727 0.979027 -0.001036
vn 0.574184 0.577051 0.580797
vn 0.702323 0.711855 -0.001898
vn 0.991008 0.133743 -0.004002
vn 0.702323 0.711855 -0.001898
vn 0.999453 0.021363 0.025262
vn 0.000000 0.999970 0.007767
vn -0.369402 0.928603 0.035180
vn 0.709391 0.704586 -0.017986
vn 1.000000 -0.000000 -0.000000
vn 0.877992 -0.419973 0.229681
vn 0.000000 -0.897042 -0.441946
vn 0.000000 -0.695928 0.718111
vn 0.702810 0.711375 0.001980
vn 0.704909 0.709297 -0.000700
vn 0.637682 -0.670075 -0.379949
vn 0.000000 -0.930526 -0.366226
vn 0.000000 -0.869890 -0.493246
vn 0.999181 0.032315 -0.024372
vn 0.999554 -0.029306 -0.005843
vn 0.556021 0.580143 -0.595210
vn 0.000000 0.705956 -0.708255
vn 0.877992 -0.419973 0.229681
vn 0.999466 -0.000255 -0.032680
vn 0.000000 0.705956 -0.708255
vn 0.683613 -0.004789 -0.729829
vn 0.000000 -0.006554 -0.999979
vn 0.557540 -0.576956 -0.596884
vn 0.683613 -0.004789 -0.729829
vn 0.000000 -0.729656 -0.683814
vn 0.000000 -0.703183 -0.711009
vn 0.000000 -0.729657 -0.683814
vn 0.574184 0.577051 0.580797
vn 0.708356 -0.003873 0.705845
vn 0.999130 -0.022627 0.035042
vn 0.677249 -0.701288 -0.222551
vn 0.000000 -0.957531 -0.288329
vn -0.399879 0.916532 -0.008103
vn 0.000000 0.999997 -0.002434
vn -0.178551 0.983930 -0.000972
vn 0.000000 1.000000 -0.000000
vn -0.406225 0.913773 -0.000000
vn 0.000000 0.990130 0.140152
vn 0.699096 0.714895 -0.013776
vn 0.703446 0.710749 -0.000000
vn -0.357937 -0.803433 0.475790
vn -0.357937 0.803433 -0.475790
vn -0.316830 -0.483397 -0.816055
vn -0.368601 0.799817 -0.473737
vn 0.555470 -0.423724 -0.715480
vn -0.316763 -0.483366 -0.816100
vn 0.608383 0.682862 -0.404437
vn 0.608383 -0.682862 0.404437
vn 0.555470 -0.423724 -0.715480
vn 0.555470 0.423724 0.715479
vn -0.368600 -0.799817 0.473737
vn 0.608383 -0.682862 0.404437
vn 0.555470 -0.423724 -0.715480
vn -0.368600 -0.799817 0.473737
vn -0.316763 -0.483366 -0.816100
vn -0.368601 0.799817 -0.473737
vn 0.555470 0.423724 0.715479
vn 0.608383 0.682862 -0.404437
vn 0.704909 0.709297 -0.000700
vn 0.703446 0.710749 -0.000000
vn 0.699096 0.714895 -0.013776
vn 0.702810 0.711375 0.001980
vn 0.000000 -0.957531 -0.288331
vn 0.000000 -0.930526 -0.366225
vn 0.648008 -0.729289 -0.219600
vn 0.000000 -0.707903 0.706309
vn 0.557540 -0.576956 -0.596884
vn 0.829506 -0.552598 -0.080966
vn 0.000000 0.705958 -0.708253
vn 0.000000 -0.006554 -0.999979
vn 0.000000 0.999982 -0.005943
vn 0.000000 0.705958 -0.708253
vn 0.000000 -0.869892 -0.493243
vn 0.000000 -0.897037 -0.441955
vn 0.000000 -0.695937 0.718103
vn 0.000000 -0.869892 -0.493243
vn 0.000000 -0.897037 -0.441955
vn 0.707110 0.000000 0.707104
vn 0.000000 -0.695937 0.718103
vn 0.000000 0.048785 0.998809
vn 0.000000 -0.695928 0.718111
vn -0.000000 0.999999 0.001207
vn -0.153600 0.725617 0.670736
vn -0.364653 0.246678 -0.897874
vn 0.559378 0.799286 0.219631
vn 0.600991 0.211760 -0.770693
vn 0.766614 0.345087 0.541497
vn 0.671257 -0.720825 -0.172698
vn 0.625220 -0.528292 -0.574462
vn 0.559378 0.799286 0.219631
vn -0.294496 0.513583 0.805918
vn 0.766614 0.345087 0.541497
vn 0.600991 0.211760 -0.770693
vn -0.364653 0.246678 -0.897874
vn 0.625220 -0.528292 -0.574462
vn -0.201108 -0.663089 -0.721020
vn -0.307083 0.511442 0.802575
vn -0.351976 0.248031 -0.902548
vn -0.201158 -0.663016 -0.721072
vn 0.000000 -0.729657 -0.683814
vn 0.645656 -0.202199 -0.736372
vn 0.000000 -0.051049 -0.998696
vn 0.829506 -0.552598 -0.080966
vn 0.482292 -0.172967 0.858765
vn 0.645656 -0.202199 -0.736372
vn 0.482292 -0.172967 0.858765
vn 0.877992 -0.419973 0.229681
vn 0.000000 -0.729656 -0.683814
vn 0.000000 -0.051049 -0.998696
vn 0.000000 -0.719316 -0.694683
vn 0.000000 -0.719311 -0.694688
vn 0.708356 -0.003873 0.705845
vn -0.153600 0.725617 0.670736
vn -0.000255 -0.005387 0.999985
vn 0.000000 0.000000 1.000000
vn 0.000000 0.000000 1.000000
vn 0.707110 0.000000 0.707104
vn -0.000000 0.589842 0.807518
vn 0.000000 0.000000 1.000000
vn 0.000000 -0.707906 0.706306
vn 0.671257 -0.720825 -0.172698
vn 0.000000 -0.399787 0.916608
vn 0.000000 -0.972480 -0.232986
vn 0.625220 -0.528292 -0.574462
vn -0.201108 -0.663089 -0.721020
vn 0.544655 -0.335308 0.768713
vn 0.000000 -0.696312 0.717739
vn 0.577585 -0.587204 -0.567087
vn 0.577340 -0.568537 0.586041
vn 0.000000 -0.696317 0.717734
vn 0.000000 -0.719316 -0.694683
vn 0.577340 -0.568537 0.586041
vn 0.000000 0.048785 0.998809
vn 0.000000 -0.696312 0.717739
vn 0.577340 -0.568537 0.586041
vn 0.577585 -0.587204 -0.567087
vn -0.326906 0.652065 0.684065
vn -0.333377 -0.666704 -0.666608
vn -0.333377 -0.666608 0.666704
vn -0.321694 0.653184 -0.685466
vn 0.075544 -0.684491 -0.725097
vn -0.333282 -0.666691 -0.666668
vn -0.070690 -0.731181 0.678511
vn -0.170670 0.716080 0.676832
vn -0.096614 0.737132 0.668807
vn -0.329175 0.651431 0.683580
vn -0.322533 -0.669289 0.669347
vn 0.075544 -0.684491 -0.725097
vn -0.322533 -0.669289 0.669347
vn -0.333282 -0.666691 -0.666668
vn -0.321694 0.653184 -0.685466
vn -0.096614 0.737132 0.668807
vn 0.049528 0.693689 -0.718570
vn -0.170672 -0.716074 0.676838
vn 0.275250 -0.688064 -0.671421
vn -0.240779 -0.733833 0.635227
vn -0.070690 -0.731181 0.678511
vn 0.175009 -0.698344 -0.694038
vn 0.175010 0.698337 -0.694043
vn 0.049528 0.693689 -0.718570
vn 0.175009 -0.698344 -0.694038
vn -0.267662 0.723635 0.636168
vn 0.669285 0.616580 -0.414593
vn 0.264922 0.684916 -0.678753
vn -0.170670 0.716080 0.676832
vn 0.175010 0.698337 -0.694043
vn 0.275250 -0.688064 -0.671421
vn -0.170672 -0.716074 0.676838
vn -0.267662 0.723635 0.636168
vn 0.669285 0.616580 -0.414593
vn 0.437403 -0.549483 0.711862
vn 0.687797 -0.596256 -0.414021
vn 0.264922 0.684916 -0.678753
vn 0.687797 -0.596256 -0.414021
vn 0.437403 -0.549483 0.711862
vn 0.428306 0.563248 0.706616
vn 0.687797 -0.596256 -0.414021
vn 0.437403 -0.549483 0.711862
vn -0.706147 -0.010249 0.707991
vn -0.488198 0.595809 -0.637710
vn -0.713875 0.036661 -0.699313
vn -0.488198 0.595809 -0.637710
vn 0.674771 -0.034312 -0.737230
vn -0.713875 0.036661 -0.699313
vn 0.681437 0.520742 -0.514268
vn 0.670254 -0.013916 0.742001
vn 0.674771 -0.034312 -0.737230
vn 0.488353 0.610313 0.623722
vn -0.706147 -0.010249 0.707991
vn 0.670254 -0.013916 0.742001
vn 0.527223 -0.604736 -0.596934
vn -0.569385 -0.576094 0.586443
vn -0.644711 -0.545350 -0.535669
vn -0.488198 0.595809 -0.637710
vn 0.488353 0.610313 0.623722
vn 0.681437 0.520742 -0.514268
vn -0.569385 -0.576094 0.586443
vn 0.613939 -0.586420 0.528385
vn 0.613939 -0.586420 0.528385
vn 0.527223 -0.604736 -0.596934
vn -0.644711 -0.545350 -0.535669
vn 0.527223 -0.604736 -0.596934
vn -0.569385 -0.576094 0.586443
vn -0.644711 -0.545350 -0.535669
vn -0.840471 -0.010249 0.541760
vn -0.341530 0.595809 -0.726889
vn -0.548962 0.036661 -0.835043
vn -0.341530 0.595809 -0.726889
vn 0.816024 -0.034313 -0.576999
vn -0.548962 0.036661 -0.835043
vn 0.775158 0.520742 -0.357712
vn 0.497267 -0.013916 0.867486
vn 0.816024 -0.034313 -0.576999
vn 0.344653 0.610313 0.713255
vn -0.840471 -0.010249 0.541760
vn 0.497267 -0.013916 0.867486
vn 0.642033 -0.604735 -0.471263
vn -0.681002 -0.576095 0.452052
vn -0.516153 -0.545350 -0.660439
vn -0.341530 0.595809 -0.726889
vn 0.344653 0.610313 0.713255
vn 0.775158 0.520742 -0.357712
vn -0.681002 -0.576095 0.452052
vn 0.487633 -0.586420 0.646781
vn 0.487633 -0.586420 0.646781
vn 0.642033 -0.604735 -0.471263
vn -0.516153 -0.545350 -0.660439
vn 0.642033 -0.604735 -0.471263
vn -0.681002 -0.576095 0.452052
vn -0.516153 -0.545350 -0.660439
vn -0.333377 0.666704 0.666608
vn -0.333377 -0.666704 -0.666608
vn -0.333377 -0.666608 0.666704
vn -0.333034 0.666775 -0.666708
vn 0.577329 -0.577361 -0.577361
vn -0.333282 -0.666686 -0.666673
vn 0.577372 0.577339 -0.577339
vn 0.577372 -0.577339 0.577340
vn 0.577329 -0.577361 -0.577361
vn 0.577329 0.577361 0.577361
vn -0.333034 -0.666775 0.666708
vn 0.577372 -0.577339 0.577340
vn 0.577329 -0.577361 -0.577361
vn -0.333034 -0.666775 0.666708
vn -0.333282 -0.666686 -0.666673
vn -0.333034 0.666775 -0.666708
vn 0.577329 0.577361 0.577361
vn 0.577372 0.577339 -0.577339
vn 0.630274 0.000008 -0.776372
vn -0.630272 -0.548980 -0.548979
vn -0.630265 -0.000008 -0.776380
vn -0.630272 -0.548980 -0.548979
vn 0.630269 -0.776377 -0.000001
vn -0.630255 -0.776388 0.000000
vn -0.630267 -0.548976 0.548989
vn 0.630265 -0.548989 0.548978
vn -0.630280 0.000009 0.776368
vn -0.630267 -0.548976 0.548989
vn 0.630262 -0.000008 0.776382
vn -0.630274 0.548984 0.548972
vn 0.630265 0.548977 0.548990
vn -0.630275 0.776372 -0.000001
vn -0.630274 0.548984 0.548972
vn 0.630257 0.776386 -0.000000
vn 0.630262 -0.000008 0.776382
vn 0.630269 -0.776377 -0.000001
vn 0.630290 0.548970 -0.548969
vn -0.630249 0.548993 -0.548993
vn 0.630290 0.548970 -0.548969
vn -0.630249 0.548993 -0.548993
vn -0.630249 0.548993 -0.548993
vn -0.630272 -0.548980 -0.548979
vn -0.630267 -0.548976 0.548989
vn 0.630274 0.000008 -0.776373
vn -0.630262 -0.548991 -0.548979
vn -0.630265 -0.000008 -0.776380
vn 0.630265 -0.548978 -0.548989
vn -0.630275 -0.776372 -0.000001
vn -0.630262 -0.548991 -0.548979
vn 0.630275 -0.548977 0.548979
vn -0.630258 -0.548988 0.548988
vn 0.630275 -0.548977 0.548979
vn -0.630280 0.000008 0.776368
vn -0.630258 -0.548988 0.548988
vn 0.630262 -0.000008 0.776382
vn -0.630274 0.548984 0.548972
vn 0.630265 0.548977 0.548990
vn -0.630265 0.776380 -0.000009
vn -0.630274 0.548984 0.548972
vn 0.630267 0.776378 0.000008
vn 0.630262 -0.000008 0.776382
vn 0.630249 -0.776393 0.000000
vn 0.630267 0.776378 0.000008
vn -0.630259 0.548982 -0.548992
vn 0.630280 0.548981 -0.548969
vn -0.630259 0.548982 -0.548992
vn -0.630259 0.548982 -0.548992
vn -0.630262 -0.548991 -0.548979
vn -0.630258 -0.548988 0.548988
vn -0.776373 0.000009 -0.630274
vn -0.548979 -0.548990 0.630263
vn -0.776380 -0.000008 0.630265
vn -0.548988 -0.548981 -0.630264
vn -0.000000 -0.776369 0.630278
vn -0.548979 -0.548990 0.630263
vn 0.548989 -0.548980 -0.630264
vn 0.548977 -0.548988 0.630267
vn 0.548977 -0.548988 0.630267
vn 0.776374 0.000000 -0.630272
vn 0.776376 -0.000001 0.630270
vn 0.548972 0.548986 0.630273
vn 0.548988 0.548981 -0.630263
vn -0.000009 0.776378 0.630268
vn 0.548972 0.548986 0.630273
vn 0.000008 0.776379 -0.630267
vn 0.776374 0.000000 -0.630272
vn -0.000001 -0.776393 -0.630249
vn 0.000008 0.776379 -0.630267
vn -0.548993 0.548981 0.630260
vn -0.548969 0.548981 -0.630280
vn -0.548993 0.548981 0.630260
vn -0.548993 0.548981 0.630260
vn -0.548979 -0.548990 0.630263
vn 0.548977 -0.548988 0.630267
vn 0.000000 -0.707903 0.706309
vn 0.577233 -0.578056 0.576761
vn 0.000000 -0.707906 0.706306
vn 0.648008 -0.729289 -0.219600
vn 0.577233 -0.578056 0.576761
vn 0.000000 -0.703183 -0.711009
vn 0.000000 -0.703170 -0.711022
vn 0.677249 -0.701288 -0.222551
vn 0.715985 0.697565 -0.027730
vn 0.556021 0.580143 -0.595210
vn 0.557540 -0.576956 -0.596884
vn 0.637682 -0.670075 -0.379949
vn 0.807867 -0.528687 -0.260462
vn 0.000000 -0.869890 -0.493246
vn -0.807867 -0.528687 -0.260462
vn 0.000000 -0.897042 -0.441946
vn -0.999863 -0.003014 -0.016247
vn -1.000000 -0.000000 -0.000000
vn -1.000000 -0.000000 -0.000000
vn 0.000000 0.999982 -0.005943
vn -0.709391 0.704586 -0.017986
vn 0.000000 0.999683 -0.025196
vn -0.574184 0.577051 0.580797
vn 0.203727 0.979027 -0.001036
vn -0.702323 0.711855 -0.001898
vn -0.702323 0.711855 -0.001898
vn -0.991008 0.133743 -0.004002
vn -0.999453 0.021363 0.025262
vn 0.369402 0.928603 0.035180
vn 0.000000 0.999970 0.007767
vn 0.000000 0.999683 -0.025196
vn -0.709391 0.704586 -0.017986
vn -1.000000 0.000000 0.000000
vn 0.000000 -0.897042 -0.441946
vn -0.877992 -0.419972 0.229681
vn 0.000000 -0.695928 0.718112
vn -0.702810 0.711375 0.001980
vn -0.999181 0.032315 -0.024372
vn 0.000000 -0.930526 -0.366226
vn -0.637682 -0.670075 -0.379949
vn 0.000000 -0.869890 -0.493246
vn -0.999554 -0.029306 -0.005843
vn -0.556021 0.580143 -0.595210
vn -0.715985 0.697565 -0.027730
vn -0.999466 -0.000255 -0.032680
vn -0.877992 -0.419972 0.229681
vn -0.683613 -0.004789 -0.729829
vn 0.000000 0.705956 -0.708255
vn 0.000000 -0.006554 -0.999979
vn -0.557540 -0.576956 -0.596884
vn -0.829506 -0.552598 -0.080966
vn 0.000000 -0.703182 -0.711009
vn 0.000000 -0.729657 -0.683814
vn -0.574184 0.577051 0.580797
vn 0.000000 -0.957531 -0.288329
vn -0.677249 -0.701288 -0.222551
vn 0.399879 0.916532 -0.008103
vn 0.000000 0.999997 -0.002434
vn 0.000000 0.999623 -0.027445
vn 0.000000 1.000000 -0.000000
vn 0.406225 0.913773 -0.000000
vn 0.000000 0.990130 0.140152
vn 0.178551 0.983930 -0.000972
vn -0.699096 0.714895 -0.013776
vn -0.703446 0.710749 -0.000000
vn -0.555470 -0.423724 -0.715480
vn -0.608383 -0.682862 0.404437
vn -0.608383 0.682862 -0.404437
vn -0.555470 -0.423724 -0.715480
vn -0.555470 0.423724 0.715479
vn -0.608383 -0.682862 0.404437
vn -0.555470 -0.423724 -0.715480
vn -0.555470 0.423724 0.715479
vn -0.608383 0.682862 -0.404437
vn -0.704909 0.709297 -0.000700
vn -0.703446 0.710749 -0.000000
vn 0.369402 0.928603 0.035180
vn -0.699096 0.714895 -0.013776
vn -0.702810 0.711375 0.001980
vn 0.406225 0.913773 -0.000000
vn 0.399879 0.916532 -0.008103
vn 0.000000 -0.707903 0.706310
vn -0.648008 -0.729289 -0.219600
vn -0.557540 -0.576956 -0.596884
vn -0.829506 -0.552598 -0.080966
vn 0.000000 0.705956 -0.708255
vn -0.999130 -0.022627 0.035042
vn -0.708356 -0.003873 0.705845
vn 0.000000 0.048785 0.998809
vn 0.000000 -0.695928 0.718112
vn 0.153600 0.725617 0.670736
vn -0.559378 0.799286 0.219631
vn -0.600991 0.211760 -0.770693
vn -0.671257 -0.720825 -0.172698
vn -0.766614 0.345087 0.541497
vn -0.625220 -0.528292 -0.574462
vn -0.559378 0.799286 0.219631
vn -0.766614 0.345087 0.541497
vn -0.600991 0.211760 -0.770693
vn -0.625220 -0.528292 -0.574462
vn 0.000000 -0.729657 -0.683814
vn -0.645656 -0.202199 -0.736372
vn -0.829506 -0.552598 -0.080966
vn -0.482292 -0.172966 0.858765
vn -0.482292 -0.172966 0.858765
vn -0.877992 -0.419972 0.229681
vn 0.000000 -0.051049 -0.998696
vn 0.000000 -0.719316 -0.694683
vn 0.153600 0.725617 0.670736
vn -0.708356 -0.003873 0.705845
vn 0.000255 -0.005387 0.999985
vn 0.000000 0.000000 1.000000
vn -0.707110 0.000000 0.707104
vn -0.671257 -0.720825 -0.172698
vn -0.625220 -0.528292 -0.574462
vn -0.544655 -0.335308 0.768713
vn -0.577585 -0.587204 -0.567087
vn 0.000000 -0.696312 0.717739
vn -0.577340 -0.568537 0.586041
vn 0.000000 -0.719316 -0.694683
vn -0.577340 -0.568537 0.586041
vn 0.000000 -0.696312 0.717739
vn -0.645656 -0.202199 -0.736372
vn -0.577340 -0.568537 0.586041
vn -0.075544 -0.684491 -0.725097
vn -0.319880 0.653592 -0.685926
vn 0.170670 0.716080 0.676832
vn 0.070690 -0.731181 0.678511
vn 0.096614 0.737132 0.668807
vn -0.330030 0.651237 0.683353
vn -0.075544 -0.684491 -0.725097
vn 0.096614 0.737132 0.668807
vn -0.319880 0.653592 -0.685926
vn -0.049528 0.693689 -0.718570
vn 0.170672 -0.716074 0.676838
vn -0.275250 -0.688064 -0.671421
vn -0.175009 -0.698344 -0.694038
vn 0.070690 -0.731181 0.678511
vn -0.175010 0.698337 -0.694043
vn -0.175009 -0.698344 -0.694038
vn -0.049528 0.693689 -0.718570
vn -0.669285 0.616580 -0.414593
vn 0.267662 0.723635 0.636168
vn -0.264922 0.684916 -0.678753
vn 0.170670 0.716080 0.676832
vn -0.275250 -0.688064 -0.671421
vn -0.175010 0.698337 -0.694043
vn 0.267662 0.723635 0.636168
vn 0.170672 -0.716074 0.676838
vn -0.437403 -0.549483 0.711862
vn -0.669285 0.616580 -0.414593
vn -0.687797 -0.596256 -0.414021
vn -0.687797 -0.596256 -0.414021
vn -0.264922 0.684916 -0.678753
vn -0.437403 -0.549483 0.711862
vn 0.240779 -0.733833 0.635227
vn 0.240779 -0.733833 0.635227
vn -0.687797 -0.596256 -0.414021
vn 0.706147 -0.010249 0.707991
vn 0.488198 0.595809 -0.637710
vn 0.676630 0.569525 0.466705
vn -0.674771 -0.034312 -0.737229
vn 0.488198 0.595809 -0.637710
vn 0.713875 0.036661 -0.699313
vn -0.670254 -0.013916 0.742001
vn -0.681437 0.520742 -0.514268
vn -0.674771 -0.034312 -0.737229
vn 0.706147 -0.010249 0.707991
vn -0.488353 0.610313 0.623722
vn -0.670254 -0.013916 0.742001
vn 0.569385 -0.576094 0.586443
vn -0.527223 -0.604736 -0.596934
vn 0.644711 -0.545350 -0.535669
vn -0.488353 0.610313 0.623722
vn 0.488198 0.595809 -0.637710
vn -0.681437 0.520742 -0.514268
vn 0.569385 -0.576094 0.586443
vn -0.613939 -0.586420 0.528385
vn -0.613939 -0.586420 0.528385
vn -0.527223 -0.604736 -0.596934
vn 0.644711 -0.545350 -0.535669
vn 0.569385 -0.576094 0.586443
vn 0.713875 0.036661 -0.699313
vn 0.840471 -0.010249 0.541760
vn 0.341531 0.595809 -0.726889
vn 0.760354 0.569524 0.312257
vn -0.816024 -0.034313 -0.576999
vn 0.341531 0.595809 -0.726889
vn 0.548962 0.036661 -0.835043
vn -0.497267 -0.013916 0.867486
vn -0.775158 0.520742 -0.357712
vn -0.816024 -0.034313 -0.576999
vn 0.840471 -0.010249 0.541760
vn -0.344653 0.610313 0.713254
vn -0.497267 -0.013916 0.867486
vn 0.681002 -0.576095 0.452052
vn -0.642033 -0.604735 -0.471263
vn 0.516153 -0.545350 -0.660439
vn -0.344653 0.610313 0.713254
vn 0.341531 0.595809 -0.726889
vn -0.775158 0.520742 -0.357712
vn 0.681002 -0.576095 0.452052
vn -0.487633 -0.586420 0.646781
vn -0.487633 -0.586420 0.646781
vn -0.642033 -0.604735 -0.471263
vn 0.516153 -0.545350 -0.660439
vn 0.681002 -0.576095 0.452052
vn 0.548962 0.036661 -0.835043
vn -0.577329 -0.577361 -0.577361
vn -0.577372 -0.577339 0.577340
vn -0.577372 0.577339 -0.577339
vn -0.577329 -0.577361 -0.577361
vn -0.577329 0.577361 0.577361
vn -0.577372 -0.577339 0.577340
vn -0.577329 -0.577361 -0.577361
vn -0.577329 0.577361 0.577361
vn -0.577372 0.577339 -0.577339
vn 0.630259 -0.548993 -0.548981
vn -0.630258 0.000008 -0.776386
vn 0.630265 -0.000008 -0.776380
vn 0.630265 -0.776380 0.000008
vn -0.630280 -0.548970 -0.548980
vn 0.630259 -0.548993 -0.548981
vn 0.630274 -0.548972 0.548985
vn -0.630274 -0.776373 -0.000009
vn 0.630280 0.000009 0.776368
vn -0.630265 -0.548989 0.548978
vn 0.630274 -0.548972 0.548985
vn 0.630267 0.548988 0.548976
vn -0.630242 -0.000008 0.776399
vn 0.630275 0.776372 -0.000001
vn -0.630265 0.548977 0.548990
vn 0.630267 0.548988 0.548976
vn -0.630289 0.548970 -0.548969
vn -0.630258 0.000008 -0.776386
vn -0.630242 -0.000008 0.776399
vn -0.630289 0.548970 -0.548969
vn -0.630265 0.776381 -0.000000
vn -0.630289 0.548970 -0.548969
vn 0.630252 0.548991 -0.548991
vn 0.630259 -0.548993 -0.548981
vn 0.630252 0.548991 -0.548991
vn 0.630267 0.548988 0.548976
vn 0.630259 -0.548993 -0.548981
vn -0.630258 0.000008 -0.776386
vn 0.630265 -0.000008 -0.776380
vn 0.630275 -0.776372 -0.000001
vn -0.630279 -0.548970 -0.548980
vn 0.630259 -0.548993 -0.548981
vn -0.630275 -0.548977 0.548979
vn -0.630265 -0.776380 0.000000
vn 0.630280 0.000008 0.776368
vn -0.630275 -0.548977 0.548979
vn 0.630265 -0.548983 0.548984
vn 0.630267 0.548988 0.548976
vn -0.630242 -0.000008 0.776399
vn 0.630265 0.776380 -0.000009
vn -0.630265 0.548977 0.548990
vn 0.630267 0.548988 0.548976
vn -0.630280 0.548981 -0.548969
vn -0.630258 0.000008 -0.776386
vn -0.630242 -0.000008 0.776399
vn 0.630262 0.548980 -0.548991
vn -0.630274 0.776372 0.000008
vn -0.630280 0.548981 -0.548969
vn 0.630262 0.548980 -0.548991
vn 0.630259 -0.548993 -0.548981
vn 0.630262 0.548980 -0.548991
vn 0.630267 0.548988 0.548976
vn 0.548981 -0.548992 0.630260
vn 0.776386 0.000008 -0.630258
vn 0.776380 -0.000008 0.630265
vn 0.000000 -0.776369 0.630278
vn 0.548981 -0.548970 -0.630279
vn 0.548981 -0.548992 0.630260
vn -0.548988 -0.548981 -0.630263
vn 0.000001 -0.776381 -0.630264
vn -0.548972 -0.548986 0.630273
vn -0.776391 -0.000000 -0.630252
vn -0.548988 -0.548981 -0.630263
vn -0.548977 0.548989 0.630267
vn -0.776376 0.000001 0.630270
vn 0.000009 0.776378 0.630268
vn -0.548989 0.548980 -0.630264
vn -0.548977 0.548989 0.630267
vn 0.548969 0.548981 -0.630280
vn 0.776386 0.000008 -0.630258
vn -0.776391 -0.000000 -0.630252
vn 0.548991 0.548979 0.630263
vn -0.000008 0.776373 -0.630274
vn 0.548969 0.548981 -0.630280
vn 0.548991 0.548979 0.630263
vn 0.548981 -0.548992 0.630260
vn 0.548991 0.548979 0.630263
vn -0.548977 0.548989 0.630267
vn 0.000000 -0.707903 0.706310
vn -0.577233 -0.578056 0.576761
vn -0.648008 -0.729289 -0.219600
vn -0.707110 0.000000 0.707104
vn 0.000000 -0.703182 -0.711009
vn -0.677249 -0.701288 -0.222551
vn -0.715985 0.697565 -0.027730
vn -0.683613 -0.004789 -0.729829
vn -0.557540 -0.576956 -0.596884
vn -0.637682 -0.670075 -0.379949
vn -0.807867 -0.528687 -0.260462
vn 0.637682 -0.670075 -0.379949
vn 0.715985 0.697565 -0.027730
vn 0.807867 -0.528687 -0.260462
vn 0.556021 0.580143 -0.595210
vn 0.000000 -0.703170 -0.711022
vn 0.000000 0.999623 -0.027445
vn -0.316830 0.483397 0.816055
vn 0.608383 0.682862 -0.404437
vn 0.555470 0.423724 0.715479
vn -0.316763 0.483288 0.816146
vn 0.608383 -0.682862 0.404437
vn -0.316763 0.483288 0.816146
vn 0.577233 -0.578056 0.576761
vn -0.000000 0.589842 0.807518
vn -0.319683 0.913682 0.250974
vn 0.544655 -0.335308 0.768713
vn -0.319683 0.913682 0.250974
vn 0.559378 0.799286 0.219631
vn 0.600991 0.211760 -0.770693
vn -0.319738 0.913659 0.250987
vn 0.829506 -0.552598 -0.080966
vn 0.577585 -0.587204 -0.567087
vn 0.574184 0.577051 0.580797
vn 0.544655 -0.335308 0.768713
vn 0.000000 -0.399787 0.916608
vn 0.000000 -0.719311 -0.694688
vn 0.000000 -0.696317 0.717734
vn -0.326906 0.651966 -0.684159
vn -0.329175 0.651431 0.683580
vn 0.428306 0.563248 0.706616
vn -0.240779 -0.733833 0.635227
vn 0.428306 0.563248 0.706616
vn 0.669285 0.616580 -0.414593
vn -0.676630 0.569525 0.466704
vn 0.681437 0.520742 -0.514268
vn 0.488353 0.610313 0.623722
vn -0.676630 0.569525 0.466704
vn 0.613939 -0.586420 0.528385
vn -0.676630 0.569525 0.466704
vn -0.760354 0.569524 0.312257
vn 0.775158 0.520742 -0.357712
vn 0.344653 0.610313 0.713255
vn -0.760354 0.569524 0.312257
vn 0.487633 -0.586420 0.646781
vn -0.760354 0.569524 0.312257
vn -0.333377 0.666608 -0.666704
vn 0.577372 0.577339 -0.577339
vn 0.577329 0.577361 0.577361
vn -0.333282 0.666646 0.666713
vn 0.577372 -0.577339 0.577340
vn -0.333282 0.666646 0.666713
vn 0.630255 -0.548989 -0.548989
vn 0.630255 -0.548989 -0.548989
vn 0.630265 -0.548989 0.548978
vn 0.630265 0.548977 0.548990
vn 0.630257 0.776386 -0.000000
vn 0.630255 -0.548989 -0.548989
vn 0.630274 0.000008 -0.776372
vn 0.630290 0.548970 -0.548969
vn 0.630265 0.548977 0.548990
vn 0.630265 -0.548989 0.548978
vn -0.630265 -0.000008 -0.776380
vn -0.630255 -0.776388 0.000000
vn -0.630280 0.000009 0.776368
vn -0.630274 0.548984 0.548972
vn -0.630275 0.776372 -0.000001
vn 0.630265 -0.548978 -0.548989
vn 0.630249 -0.776393 0.000000
vn 0.630265 0.548977 0.548990
vn 0.630265 -0.548978 -0.548989
vn 0.630274 0.000008 -0.776373
vn 0.630280 0.548981 -0.548969
vn 0.630265 0.548977 0.548990
vn 0.630275 -0.548977 0.548979
vn 0.630280 0.548981 -0.548969
vn -0.630265 -0.000008 -0.776380
vn -0.630275 -0.776372 -0.000001
vn -0.630280 0.000008 0.776368
vn -0.630274 0.548984 0.548972
vn -0.630265 0.776380 -0.000009
vn -0.548988 -0.548981 -0.630264
vn -0.000001 -0.776393 -0.630249
vn 0.548989 -0.548980 -0.630264
vn 0.548988 0.548981 -0.630263
vn -0.548988 -0.548981 -0.630264
vn -0.776373 0.000009 -0.630274
vn -0.548969 0.548981 -0.630280
vn 0.548988 0.548981 -0.630263
vn 0.548989 -0.548980 -0.630264
vn -0.548969 0.548981 -0.630280
vn -0.776380 -0.000008 0.630265
vn -0.000000 -0.776369 0.630278
vn 0.776376 -0.000001 0.630270
vn 0.548972 0.548986 0.630273
vn -0.000009 0.776378 0.630268
vn -0.637682 -0.670075 -0.379949
vn -0.704909 0.709297 -0.000700
vn -0.807867 -0.528687 -0.260462
vn -0.556021 0.580143 -0.595210
vn 0.178551 0.983930 -0.000972
vn -0.608383 0.682862 -0.404437
vn -0.555470 0.423724 0.715479
vn -0.608383 -0.682862 0.404437
vn -0.577233 -0.578056 0.576761
vn -0.544655 -0.335308 0.768713
vn -0.559378 0.799286 0.219631
vn -0.600991 0.211760 -0.770693
vn -0.577585 -0.587204 -0.567087
vn -0.574184 0.577051 0.580797
vn -0.544655 -0.335308 0.768713
vn -0.577585 -0.587204 -0.567087
vn -0.330030 0.651237 0.683353
vn -0.428306 0.563248 0.706616
vn -0.428306 0.563248 0.706616
vn -0.669285 0.616580 -0.414593
vn -0.428306 0.563248 0.706616
vn -0.437403 -0.549483 0.711862
vn -0.681437 0.520742 -0.514268
vn -0.488353 0.610313 0.623722
vn 0.676630 0.569525 0.466705
vn -0.613939 -0.586420 0.528385
vn 0.676630 0.569525 0.466705
vn -0.527223 -0.604736 -0.596934
vn 0.644711 -0.545350 -0.535669
vn -0.775158 0.520742 -0.357712
vn -0.344653 0.610313 0.713254
vn 0.760354 0.569524 0.312257
vn -0.487633 -0.586420 0.646781
vn 0.760354 0.569524 0.312257
vn -0.642033 -0.604735 -0.471263
vn 0.516153 -0.545350 -0.660439
vn -0.577372 0.577339 -0.577339
vn -0.577329 0.577361 0.577361
vn -0.577372 -0.577339 0.577340
vn -0.630280 -0.548970 -0.548980
vn -0.630265 -0.548989 0.548978
vn -0.630265 0.548977 0.548990
vn -0.630280 -0.548970 -0.548980
vn -0.630274 -0.776373 -0.000009
vn -0.630265 -0.548989 0.548978
vn -0.630265 0.548977 0.548990
vn -0.630265 0.776381 -0.000000
vn 0.630252 0.548991 -0.548991
vn 0.630265 -0.000008 -0.776380
vn 0.630275 0.776372 -0.000001
vn 0.630280 0.000009 0.776368
vn 0.630274 -0.548972 0.548985
vn 0.630265 -0.776380 0.000008
vn -0.630279 -0.548970 -0.548980
vn 0.630265 -0.548983 0.548984
vn -0.630265 0.548977 0.548990
vn -0.630279 -0.548970 -0.548980
vn -0.630265 -0.776380 0.000000
vn -0.630275 -0.548977 0.548979
vn -0.630265 0.548977 0.548990
vn -0.630274 0.776372 0.000008
vn -0.630280 0.548981 -0.548969
vn 0.630265 -0.000008 -0.776380
vn 0.630265 0.776380 -0.000009
vn 0.630280 0.000008 0.776368
vn 0.630265 -0.548983 0.548984
vn 0.630275 -0.776372 -0.000001
vn 0.548981 -0.548970 -0.630279
vn -0.548972 -0.548986 0.630273
vn -0.548989 0.548980 -0.630264
vn 0.548981 -0.548970 -0.630279
vn 0.000001 -0.776381 -0.630264
vn -0.548988 -0.548981 -0.630263
vn -0.548989 0.548980 -0.630264
vn -0.000008 0.776373 -0.630274
vn 0.548969 0.548981 -0.630280
vn 0.776380 -0.000008 0.630265
vn 0.000009 0.776378 0.630268
vn -0.776376 0.000001 0.630270
vn -0.548972 -0.548986 0.630273
vn 0.000000 -0.776369 0.630278
vn -0.577233 -0.578056 0.576761
vn -0.556021 0.580143 -0.595210
f 1/1/1 2/2/2 3/3/3
f 4/4/4 5/5/5 6/6/6
f 7/7/7 8/8/8 9/9/9
f 10/10/10 11/11/11 12/12/12
f 13/13/13 14/14/14 15/15/15
f 16/16/16 17/17/17 9/9/9
f 18/18/18 6/6/6 19/19/19
f 20/20/20 21/21/21 22/22/22
f 13/13/13 23/23/23 24/24/24
f 25/25/25 26/26/26 27/27/27
f 28/28/28 29/29/29 5/5/5
f 8/8/8 30/30/30 31/31/31
f 32/32/32 33/33/33 19/19/19
f 34/34/34 35/35/35 36/36/36
f 33/33/33 37/37/37 38/38/38
f 39/39/39 40/40/40 41/41/41
f 15/15/15 42/42/42 43/43/43
f 29/29/29 15/15/15 44/44/44
f 45/45/45 46/46/46 26/26/26
f 47/47/47 48/48/48 49/49/49
f 50/50/50 47/47/47 51/51/51
f 52/52/52 51/51/51 17/17/17
f 48/48/48 10/10/10 49/49/49
f 4/4/4 53/53/53 54/54/54
f 28/28/28 54/54/54 23/23/23
f 55/55/55 56/56/56 57/57/57
f 58/58/58 59/59/59 60/60/60
f 61/61/61 62/62/62 63/63/63
f 64/64/64 65/65/65 66/66/66
f 67/67/67 68/68/68 69/69/69
f 70/70/70 71/71/71 72/72/72
f 73/73/73 10/10/10 12/12/12
f 17/17/17 74/74/74 75/75/75
f 51/51/51 76/76/76 74/74/74
f 47/47/47 73/73/73 76/76/76
f 26/26/26 77/77/77 78/78/78
f 79/79/79 80/80/80 46/46/46
f 41/41/41 81/81/81 82/82/82
f 83/83/83 36/36/36 84/84/84
f 85/85/85 31/31/31 86/86/86
f 27/27/27 78/78/78 87/87/87
f 22/22/22 88/88/88 89/89/89
f 7/7/7 17/17/17 75/75/75
f 9/9/9 85/85/85 16/16/16
f 3/3/3 90/90/90 91/91/91
f 44/44/44 43/43/43 92/92/92
f 93/93/93 94/94/94 95/95/95
f 96/96/96 97/97/97 10/10/10
f 98/98/98 99/99/99 100/100/100
f 101/101/101 102/102/102 103/103/103
f 104/104/104 105/105/105 106/106/106
f 107/107/107 101/101/101 103/103/103
f 108/108/108 109/109/109 110/110/110
f 111/111/111 112/112/112 113/113/113
f 114/114/114 115/115/115 116/116/116
f 117/117/117 118/118/118 119/119/119
f 95/95/95 120/120/120 121/121/121
f 122/122/122 116/116/116 123/123/123
f 115/115/115 124/124/124 116/116/116
f 116/116/116 125/125/125 123/123/123
f 126/126/126 127/127/127 128/128/128
f 128/128/128 129/129/129 130/130/130
f 126/126/126 130/130/130 131/131/131
f 128/128/128 132/132/132 133/133/133
f 46/46/46 134/134/134 77/77/77
f 135/135/135 136/136/136 137/137/137
f 138/138/138 137/137/137 139/139/139
f 105/105/105 140/140/140 106/106/106
f 141/141/141 142/142/142 143/143/143
f 144/144/144 145/145/145 141/141/141
f 94/94/94 146/146/146 120/120/120
f 147/147/147 148/148/148 94/94/94
f 119/119/119 149/149/149 150/150/150
f 151/151/151 152/152/152 153/153/153
f 154/154/154 155/155/155 156/156/156
f 157/157/157 158/158/158 159/159/159
f 157/157/157 160/160/160 161/161/161
f 162/162/162 163/163/163 164/164/164
f 165/165/165 166/166/166 167/167/167
f 168/168/168 169/169/169 170/170/170
f 171/171/171 172/172/172 168/168/168
f 166/166/166 173/173/173 167/167/167
f 174/174/174 175/175/175 155/155/155
f 176/176/176 177/177/177 178/178/178
f 179/179/179 178/178/178 173/173/173
f 180/180/180 181/181/181 175/175/175
f 182/182/182 183/183/183 158/158/158
f 184/184/184 185/185/185 186/186/186
f 187/187/187 188/188/188 181/181/181
f 183/183/183 189/189/189 190/190/190
f 170/170/170 191/191/191 192/192/192
f 193/193/193 194/194/194 195/195/195
f 196/196/196 197/197/197 198/198/198
f 199/199/199 200/200/200 201/201/201
f 202/202/202 203/203/203 204/204/204
f 205/205/205 206/206/206 207/207/207
f 208/208/208 209/209/209 210/210/210
f 204/204/204 211/211/211 212/212/212
f 201/201/201 213/213/213 214/214/214
f 215/215/215 197/197/197 216/216/216
f 217/217/217 195/195/195 218/218/218
f 219/219/219 220/220/220 221/221/221
f 222/222/222 223/223/223 224/224/224
f 225/225/225 226/226/226 227/227/227
f 228/228/228 229/229/229 230/230/230
f 231/231/231 232/232/232 233/233/233
f 234/234/234 235/235/235 236/236/236
f 230/230/230 237/237/237 238/238/238
f 227/227/227 239/239/239 240/240/240
f 241/241/241 223/223/223 242/242/242
f 243/243/243 221/221/221 244/244/244
f 245/245/245 246/246/246 247/247/247
f 248/248/248 249/249/249 250/250/250
f 251/251/251 252/252/252 253/253/253
f 254/254/254 255/255/255 256/256/256
f 257/257/257 258/258/258 259/259/259
f 260/260/260 261/261/261 262/262/262
f 263/263/263 264/264/264 265/265/265
f 266/266/266 267/267/267 268/268/268
f 267/267/267 269/269/269 268/268/268
f 270/270/270 271/271/271 272/272/272
f 273/273/273 274/274/274 271/271/271
f 275/275/275 276/276/276 277/277/277
f 278/278/278 279/279/279 280/280/280
f 276/276/276 281/281/281 282/282/282
f 283/283/283 265/265/265 284/284/284
f 285/285/285 286/286/286 287/287/287
f 288/288/288 289/289/289 290/290/290
f 291/291/291 292/292/292 293/293/293
f 292/292/292 294/294/294 295/295/295
f 296/296/296 297/297/297 298/298/298
f 299/299/299 300/300/300 297/297/297
f 301/301/301 302/302/302 303/303/303
f 304/304/304 305/305/305 306/306/306
f 307/307/307 308/308/308 302/302/302
f 309/309/309 290/290/290 310/310/310
f 311/311/311 312/312/312 313/313/313
f 314/314/314 315/315/315 316/316/316
f 317/317/317 318/318/318 319/319/319
f 318/318/318 320/320/320 321/321/321
f 322/322/322 323/323/323 324/324/324
f 323/323/323 325/325/325 324/324/324
f 326/326/326 327/327/327 328/328/328
f 329/329/329 330/330/330 331/331/331
f 332/332/332 333/333/333 327/327/327
f 334/334/334 316/316/316 335/335/335
f 336/336/336 337/337/337 338/338/338
f 131/131/131 339/339/339 340/340/340
f 130/130/130 341/341/341 339/339/339
f 342/342/342 92/92/92 343/343/343
f 84/84/84 344/344/344 345/345/345
f 346/346/346 44/44/44 342/342/342
f 347/347/347 38/38/38 348/348/348
f 36/36/36 349/349/349 344/344/344
f 19/19/19 347/347/347 18/18/18
f 5/5/5 346/346/346 350/350/350
f 19/19/19 351/351/351 32/32/32
f 351/351/351 5/5/5 350/350/350
f 352/352/352 353/353/353 354/354/354
f 355/355/355 356/356/356 357/357/357
f 358/358/358 359/359/359 360/360/360
f 361/361/361 362/362/362 363/363/363
f 364/364/364 365/365/365 366/366/366
f 367/367/367 368/368/368 369/369/369
f 357/357/357 370/370/370 371/371/371
f 372/372/372 373/373/373 374/374/374
f 365/365/365 375/375/375 376/376/376
f 377/377/377 378/378/378 379/379/379
f 380/380/380 376/376/376 355/355/355
f 358/358/358 381/381/381 382/382/382
f 383/383/383 384/384/384 371/371/371
f 385/385/385 386/386/386 387/387/387
f 383/383/383 388/388/388 389/389/389
f 390/390/390 39/39/39 391/391/391
f 366/366/366 392/392/392 364/364/364
f 380/380/380 366/366/366 365/365/365
f 393/393/393 394/394/394 377/377/377
f 395/395/395 396/396/396 397/397/397
f 395/395/395 398/398/398 399/399/399
f 399/399/399 400/400/400 367/367/367
f 362/362/362 48/48/48 401/401/401
f 356/356/356 402/402/402 370/370/370
f 376/376/376 403/403/403 356/356/356
f 404/404/404 58/58/58 60/60/60
f 405/405/405 406/406/406 407/407/407
f 65/65/65 408/408/408 409/409/409
f 68/68/68 410/410/410 69/69/69
f 411/411/411 70/70/70 412/412/412
f 413/413/413 362/362/362 401/401/401
f 414/414/414 415/415/415 416/416/416
f 417/417/417 418/418/418 414/414/414
f 413/413/413 419/419/419 417/417/417
f 77/77/77 377/377/377 78/78/78
f 420/420/420 421/421/421 393/393/393
f 422/422/422 391/391/391 423/423/423
f 387/387/387 83/83/83 84/84/84
f 85/85/85 424/424/424 358/358/358
f 78/78/78 379/379/379 87/87/87
f 88/88/88 374/374/374 89/89/89
f 359/359/359 415/415/415 360/360/360
f 85/85/85 360/360/360 16/16/16
f 90/90/90 354/354/354 91/91/91
f 425/425/425 426/426/426 366/366/366
f 427/427/427 93/93/93 428/428/428
f 429/429/429 96/96/96 362/362/362
f 430/430/430 98/98/98 431/431/431
f 432/432/432 433/433/433 434/434/434
f 105/105/105 435/435/435 436/436/436
f 433/433/433 437/437/437 434/434/434
f 438/438/438 108/108/108 110/110/110
f 439/439/439 440/440/440 441/441/441
f 389/389/389 442/442/442 384/384/384
f 443/443/443 428/428/428 444/444/444
f 122/122/122 445/445/445 439/439/439
f 446/446/446 440/440/440 445/445/445
f 125/125/125 445/445/445 123/123/123
f 447/447/447 448/448/448 449/449/449
f 129/129/129 449/449/449 450/450/450
f 450/450/450 448/448/448 451/451/451
f 132/132/132 449/449/449 133/133/133
f 134/134/134 393/393/393 77/77/77
f 136/136/136 452/452/452 137/137/137
f 137/137/137 453/453/453 139/139/139
f 454/454/454 105/105/105 436/436/436
f 455/455/455 456/456/456 457/457/457
f 458/458/458 144/144/144 456/456/456
f 459/459/459 427/427/427 443/443/443
f 460/460/460 147/147/147 427/427/427
f 461/461/461 462/462/462 442/442/442
f 463/463/463 464/464/464 156/156/156
f 465/465/465 466/466/466 467/467/467
f 466/466/466 468/468/468 467/467/467
f 163/163/163 469/469/469 164/164/164
f 470/470/470 471/471/471 472/472/472
f 473/473/473 474/474/474 475/475/475
f 476/476/476 475/475/475 469/469/469
f 477/477/477 470/470/470 472/472/472
f 478/478/478 479/479/479 463/463/463
f 480/480/480 481/481/481 482/482/482
f 482/482/482 483/483/483 477/477/477
f 484/484/484 485/485/485 478/478/478
f 486/486/486 487/487/487 465/465/465
f 488/488/488 489/489/489 490/490/490
f 491/491/491 492/492/492 484/484/484
f 486/486/486 493/493/493 494/494/494
f 495/495/495 496/496/496 474/474/474
f 497/497/497 498/498/498 499/499/499
f 500/500/500 501/501/501 502/502/502
f 503/503/503 504/504/504 505/505/505
f 506/506/506 507/507/507 508/508/508
f 509/509/509 510/510/510 511/511/511
f 512/512/512 513/513/513 514/514/514
f 515/515/515 508/508/508 516/516/516
f 517/517/517 505/505/505 518/518/518
f 519/519/519 500/500/500 502/502/502
f 520/520/520 521/521/521 497/497/497
f 522/522/522 523/523/523 524/524/524
f 525/525/525 526/526/526 527/527/527
f 528/528/528 529/529/529 530/530/530
f 531/531/531 532/532/532 533/533/533
f 534/534/534 535/535/535 536/536/536
f 537/537/537 538/538/538 539/539/539
f 540/540/540 533/533/533 541/541/541
f 542/542/542 530/530/530 543/543/543
f 544/544/544 525/525/525 527/527/527
f 545/545/545 546/546/546 522/522/522
f 547/547/547 248/248/248 250/250/250
f 548/548/548 549/549/549 550/550/550
f 255/255/255 551/551/551 552/552/552
f 258/258/258 553/553/553 259/259/259
f 554/554/554 260/260/260 555/555/555
f 556/556/556 557/557/557 558/558/558
f 559/559/559 560/560/560 561/561/561
f 562/562/562 563/563/563 559/559/559
f 564/564/564 565/565/565 566/566/566
f 567/567/567 568/568/568 564/564/564
f 569/569/569 570/570/570 571/571/571
f 572/572/572 573/573/573 574/574/574
f 569/569/569 575/575/575 576/576/576
f 558/558/558 577/577/577 578/578/578
f 579/579/579 580/580/580 581/581/581
f 582/582/582 583/583/583 584/584/584
f 585/585/585 586/586/586 587/587/587
f 585/585/585 588/588/588 589/589/589
f 590/590/590 591/591/591 592/592/592
f 593/593/593 594/594/594 590/590/590
f 595/595/595 596/596/596 597/597/597
f 598/598/598 599/599/599 600/600/600
f 601/601/601 602/602/602 595/595/595
f 584/584/584 603/603/603 604/604/604
f 605/605/605 606/606/606 607/607/607
f 608/608/608 609/609/609 610/610/610
f 611/611/611 612/612/612 613/613/613
f 611/611/611 614/614/614 615/615/615
f 616/616/616 617/617/617 618/618/618
f 619/619/619 617/617/617 620/620/620
f 621/621/621 622/622/622 623/623/623
f 624/624/624 625/625/625 626/626/626
f 627/627/627 628/628/628 621/621/621
f 610/610/610 629/629/629 630/630/630
f 631/631/631 632/632/632 633/633/633
f 634/634/634 451/451/451 635/635/635
f 341/341/341 450/450/450 634/634/634
f 636/636/636 637/637/637 425/425/425
f 638/638/638 84/84/84 345/345/345
f 639/639/639 425/425/425 380/380/380
f 640/640/640 641/641/641 383/383/383
f 642/642/642 387/387/387 638/638/638
f 640/640/640 371/371/371 370/370/370
f 639/639/639 355/355/355 643/643/643
f 644/644/644 371/371/371 384/384/384
f 644/644/644 355/355/355 357/357/357
f 1/1/1 645/645/645 2/2/2
f 4/4/4 28/28/28 5/5/5
f 7/7/7 646/646/646 8/8/8
f 10/10/10 97/97/97 11/11/11
f 13/13/13 24/24/24 14/14/14
f 16/16/16 52/52/52 17/17/17
f 18/18/18 4/4/4 6/6/6
f 20/20/20 647/647/647 21/21/21
f 13/13/13 28/28/28 23/23/23
f 25/25/25 45/45/45 26/26/26
f 28/28/28 13/13/13 29/29/29
f 8/8/8 646/646/646 30/30/30
f 32/32/32 117/117/117 33/33/33
f 34/34/34 648/648/648 35/35/35
f 33/33/33 117/117/117 37/37/37
f 39/39/39 649/649/649 40/40/40
f 15/15/15 14/14/14 42/42/42
f 29/29/29 13/13/13 15/15/15
f 45/45/45 79/79/79 46/46/46
f 47/47/47 650/650/650 48/48/48
f 50/50/50 650/650/650 47/47/47
f 52/52/52 50/50/50 51/51/51
f 48/48/48 96/96/96 10/10/10
f 4/4/4 18/18/18 53/53/53
f 28/28/28 4/4/4 54/54/54
f 55/55/55 651/651/651 56/56/56
f 58/58/58 652/652/652 59/59/59
f 61/61/61 653/653/653 62/62/62
f 64/64/64 654/654/654 65/65/65
f 67/67/67 655/655/655 68/68/68
f 70/70/70 656/656/656 71/71/71
f 73/73/73 49/49/49 10/10/10
f 17/17/17 51/51/51 74/74/74
f 51/51/51 47/47/47 76/76/76
f 47/47/47 49/49/49 73/73/73
f 26/26/26 46/46/46 77/77/77
f 79/79/79 657/657/657 80/80/80
f 41/41/41 40/40/40 81/81/81
f 83/83/83 34/34/34 36/36/36
f 85/85/85 8/8/8 31/31/31
f 27/27/27 26/26/26 78/78/78
f 22/22/22 21/21/21 88/88/88
f 7/7/7 9/9/9 17/17/17
f 9/9/9 8/8/8 85/85/85
f 3/3/3 2/2/2 90/90/90
f 44/44/44 15/15/15 43/43/43
f 93/93/93 147/147/147 94/94/94
f 96/96/96 658/658/658 97/97/97
f 98/98/98 659/659/659 99/99/99
f 101/101/101 660/660/660 102/102/102
f 104/104/104 661/661/661 105/105/105
f 107/107/107 662/662/662 101/101/101
f 108/108/108 663/663/663 109/109/109
f 111/111/111 664/664/664 112/112/112
f 114/114/114 665/665/665 115/115/115
f 117/117/117 32/32/32 118/118/118
f 95/95/95 94/94/94 120/120/120
f 122/122/122 114/114/114 116/116/116
f 115/115/115 666/666/666 124/124/124
f 116/116/116 124/124/124 125/125/125
f 126/126/126 667/667/667 127/127/127
f 128/128/128 133/133/133 129/129/129
f 126/126/126 128/128/128 130/130/130
f 128/128/128 127/127/127 132/132/132
f 46/46/46 80/80/80 134/134/134
f 135/135/135 668/668/668 136/136/136
f 138/138/138 135/135/135 137/137/137
f 105/105/105 669/669/669 140/140/140
f 141/141/141 145/145/145 142/142/142
f 144/144/144 670/670/670 145/145/145
f 94/94/94 148/148/148 146/146/146
f 147/147/147 671/671/671 148/148/148
f 119/119/119 118/118/118 149/149/149
f 151/151/151 672/672/672 152/152/152
f 154/154/154 174/174/174 155/155/155
f 157/157/157 182/182/182 158/158/158
f 157/157/157 159/159/159 160/160/160
f 162/162/162 171/171/171 163/163/163
f 165/165/165 673/673/673 166/166/166
f 168/168/168 172/172/172 169/169/169
f 171/171/171 162/162/162 172/172/172
f 166/166/166 179/179/179 173/173/173
f 174/174/174 180/180/180 175/175/175
f 176/176/176 674/674/674 177/177/177
f 179/179/179 176/176/176 178/178/178
f 180/180/180 187/187/187 181/181/181
f 182/182/182 675/675/675 183/183/183
f 184/184/184 676/676/676 185/185/185
f 187/187/187 677/677/677 188/188/188
f 183/183/183 675/675/675 189/189/189
f 170/170/170 169/169/169 191/191/191
f 193/193/193 678/678/678 194/194/194
f 196/196/196 679/679/679 197/197/197
f 199/199/199 680/680/680 200/200/200
f 202/202/202 681/681/681 203/203/203
f 205/205/205 682/682/682 206/206/206
f 208/208/208 683/683/683 209/209/209
f 204/204/204 203/203/203 211/211/211
f 201/201/201 200/200/200 213/213/213
f 215/215/215 198/198/198 197/197/197
f 217/217/217 193/193/193 195/195/195
f 219/219/219 684/684/684 220/220/220
f 222/222/222 685/685/685 223/223/223
f 225/225/225 686/686/686 226/226/226
f 228/228/228 687/687/687 229/229/229
f 231/231/231 688/688/688 232/232/232
f 234/234/234 689/689/689 235/235/235
f 230/230/230 229/229/229 237/237/237
f 227/227/227 226/226/226 239/239/239
f 241/241/241 224/224/224 223/223/223
f 243/243/243 219/219/219 221/221/221
f 245/245/245 690/690/690 246/246/246
f 248/248/248 691/691/691 249/249/249
f 251/251/251 692/692/692 252/252/252
f 254/254/254 693/693/693 255/255/255
f 257/257/257 694/694/694 258/258/258
f 260/260/260 695/695/695 261/261/261
f 263/263/263 696/696/696 264/264/264
f 266/266/266 697/697/697 267/267/267
f 267/267/267 698/698/698 269/269/269
f 270/270/270 273/273/273 271/271/271
f 273/273/273 699/699/699 274/274/274
f 275/275/275 700/700/700 276/276/276
f 280/280/280 701/701/701 702/702/702
f 702/702/702 703/703/703 280/280/280
f 703/703/703 278/278/278 280/280/280
f 278/278/278 704/704/704 279/279/279
f 279/279/279 705/705/705 280/280/280
f 276/276/276 700/700/700 281/281/281
f 283/283/283 263/263/263 265/265/265
f 285/285/285 706/706/706 286/286/286
f 286/286/286 707/707/707 287/287/287
f 287/287/287 708/708/708 285/285/285
f 708/708/708 709/709/709 285/285/285
f 709/709/709 710/710/710 285/285/285
f 288/288/288 711/711/711 289/289/289
f 291/291/291 712/712/712 292/292/292
f 292/292/292 712/712/712 294/294/294
f 296/296/296 299/299/299 297/297/297
f 299/299/299 713/713/713 300/300/300
f 301/301/301 307/307/307 302/302/302
f 306/306/306 714/714/714 715/715/715
f 715/715/715 716/716/716 306/306/306
f 716/716/716 304/304/304 306/306/306
f 304/304/304 717/717/717 305/305/305
f 305/305/305 718/718/718 306/306/306
f 307/307/307 719/719/719 308/308/308
f 309/309/309 288/288/288 290/290/290
f 311/311/311 720/720/720 312/312/312
f 312/312/312 721/721/721 313/313/313
f 313/313/313 722/722/722 311/311/311
f 722/722/722 723/723/723 311/311/311
f 723/723/723 724/724/724 311/311/311
f 314/314/314 725/725/725 315/315/315
f 317/317/317 726/726/726 318/318/318
f 318/318/318 726/726/726 320/320/320
f 322/322/322 727/727/727 323/323/323
f 323/323/323 728/728/728 325/325/325
f 326/326/326 332/332/332 327/327/327
f 331/331/331 729/729/729 730/730/730
f 730/730/730 731/731/731 331/331/331
f 731/731/731 329/329/329 331/331/331
f 329/329/329 732/732/732 330/330/330
f 330/330/330 733/733/733 331/331/331
f 332/332/332 734/734/734 333/333/333
f 334/334/334 314/314/314 316/316/316
f 336/336/336 735/735/735 337/337/337
f 337/337/337 736/736/736 338/338/338
f 338/338/338 737/737/737 336/336/336
f 737/737/737 738/738/738 336/336/336
f 738/738/738 739/739/739 336/336/336
f 131/131/131 130/130/130 339/339/339
f 130/130/130 129/129/129 341/341/341
f 342/342/342 44/44/44 92/92/92
f 84/84/84 36/36/36 344/344/344
f 346/346/346 29/29/29 44/44/44
f 347/347/347 33/33/33 38/38/38
f 36/36/36 35/35/35 349/349/349
f 19/19/19 33/33/33 347/347/347
f 5/5/5 29/29/29 346/346/346
f 19/19/19 6/6/6 351/351/351
f 351/351/351 6/6/6 5/5/5
f 352/352/352 740/740/740 353/353/353
f 355/355/355 376/376/376 356/356/356
f 358/358/358 382/382/382 359/359/359
f 361/361/361 429/429/429 362/362/362
f 364/364/364 741/741/741 365/365/365
f 367/367/367 400/400/400 368/368/368
f 357/357/357 356/356/356 370/370/370
f 372/372/372 742/742/742 373/373/373
f 365/365/365 741/741/741 375/375/375
f 377/377/377 394/394/394 378/378/378
f 380/380/380 365/365/365 376/376/376
f 358/358/358 424/424/424 381/381/381
f 383/383/383 389/389/389 384/384/384
f 385/385/385 743/743/743 386/386/386
f 383/383/383 641/641/641 388/388/388
f 390/390/390 649/649/649 39/39/39
f 366/366/366 426/426/426 392/392/392
f 380/380/380 425/425/425 366/366/366
f 393/393/393 421/421/421 394/394/394
f 395/395/395 744/744/744 396/396/396
f 395/395/395 397/397/397 398/398/398
f 399/399/399 398/398/398 400/400/400
f 362/362/362 96/96/96 48/48/48
f 356/356/356 403/403/403 402/402/402
f 376/376/376 375/375/375 403/403/403
f 404/404/404 745/745/745 58/58/58
f 405/405/405 746/746/746 406/406/406
f 65/65/65 654/654/654 408/408/408
f 68/68/68 747/747/747 410/410/410
f 411/411/411 656/656/656 70/70/70
f 413/413/413 363/363/363 362/362/362
f 414/414/414 418/418/418 415/415/415
f 417/417/417 419/419/419 418/418/418
f 413/413/413 401/401/401 419/419/419
f 77/77/77 393/393/393 377/377/377
f 420/420/420 748/748/748 421/421/421
f 422/422/422 390/390/390 391/391/391
f 387/387/387 386/386/386 83/83/83
f 85/85/85 86/86/86 424/424/424
f 78/78/78 377/377/377 379/379/379
f 88/88/88 372/372/372 374/374/374
f 359/359/359 416/416/416 415/415/415
f 85/85/85 358/358/358 360/360/360
f 90/90/90 352/352/352 354/354/354
f 425/425/425 637/637/637 426/426/426
f 427/427/427 147/147/147 93/93/93
f 429/429/429 658/658/658 96/96/96
f 430/430/430 659/659/659 98/98/98
f 432/432/432 749/749/749 433/433/433
f 105/105/105 661/661/661 435/435/435
f 433/433/433 750/750/750 437/437/437
f 438/438/438 751/751/751 108/108/108
f 439/439/439 445/445/445 440/440/440
f 389/389/389 461/461/461 442/442/442
f 443/443/443 427/427/427 428/428/428
f 122/122/122 123/123/123 445/445/445
f 446/446/446 752/752/752 440/440/440
f 125/125/125 446/446/446 445/445/445
f 447/447/447 753/753/753 448/448/448
f 129/129/129 133/133/133 449/449/449
f 450/450/450 449/449/449 448/448/448
f 132/132/132 447/447/447 449/449/449
f 134/134/134 420/420/420 393/393/393
f 136/136/136 754/754/754 452/452/452
f 137/137/137 452/452/452 453/453/453
f 454/454/454 669/669/669 105/105/105
f 455/455/455 458/458/458 456/456/456
f 458/458/458 670/670/670 144/144/144
f 459/459/459 460/460/460 427/427/427
f 460/460/460 671/671/671 147/147/147
f 461/461/461 755/755/755 462/462/462
f 463/463/463 479/479/479 464/464/464
f 465/465/465 487/487/487 466/466/466
f 466/466/466 161/161/161 468/468/468
f 163/163/163 476/476/476 469/469/469
f 470/470/470 756/756/756 471/471/471
f 473/473/473 495/495/495 474/474/474
f 476/476/476 473/473/473 475/475/475
f 477/477/477 483/483/483 470/470/470
f 478/478/478 485/485/485 479/479/479
f 480/480/480 757/757/757 481/481/481
f 482/482/482 481/481/481 483/483/483
f 484/484/484 492/492/492 485/485/485
f 486/486/486 494/494/494 487/487/487
f 488/488/488 758/758/758 489/489/489
f 491/491/491 759/759/759 492/492/492
f 486/486/486 760/760/760 493/493/493
f 495/495/495 761/761/761 496/496/496
f 497/497/497 521/521/521 498/498/498
f 500/500/500 762/762/762 501/501/501
f 503/503/503 763/763/763 504/504/504
f 506/506/506 764/764/764 507/507/507
f 509/509/509 765/765/765 510/510/510
f 512/512/512 766/766/766 513/513/513
f 515/515/515 506/506/506 508/508/508
f 517/517/517 503/503/503 505/505/505
f 519/519/519 767/767/767 500/500/500
f 520/520/520 768/768/768 521/521/521
f 522/522/522 546/546/546 523/523/523
f 525/525/525 769/769/769 526/526/526
f 528/528/528 770/770/770 529/529/529
f 531/531/531 771/771/771 532/532/532
f 534/534/534 772/772/772 535/535/535
f 537/537/537 773/773/773 538/538/538
f 540/540/540 531/531/531 533/533/533
f 542/542/542 528/528/528 530/530/530
f 544/544/544 774/774/774 525/525/525
f 545/545/545 775/775/775 546/546/546
f 547/547/547 776/776/776 248/248/248
f 548/548/548 777/777/777 549/549/549
f 255/255/255 693/693/693 551/551/551
f 258/258/258 778/778/778 553/553/553
f 554/554/554 695/695/695 260/260/260
f 556/556/556 779/779/779 557/557/557
f 559/559/559 563/563/563 560/560/560
f 562/562/562 780/780/780 563/563/563
f 564/564/564 568/568/568 565/565/565
f 567/567/567 781/781/781 568/568/568
f 569/569/569 576/576/576 570/570/570
f 573/573/573 782/782/782 574/574/574
f 782/782/782 783/783/783 574/574/574
f 783/783/783 784/784/784 574/574/574
f 574/574/574 785/785/785 786/786/786
f 786/786/786 572/572/572 574/574/574
f 569/569/569 787/787/787 575/575/575
f 558/558/558 557/557/557 577/577/577
f 579/579/579 788/788/788 580/580/580
f 580/580/580 789/789/789 581/581/581
f 581/581/581 790/790/790 579/579/579
f 790/790/790 791/791/791 579/579/579
f 791/791/791 792/792/792 579/579/579
f 582/582/582 793/793/793 583/583/583
f 585/585/585 589/589/589 586/586/586
f 585/585/585 794/794/794 588/588/588
f 590/590/590 594/594/594 591/591/591
f 593/593/593 795/795/795 594/594/594
f 595/595/595 602/602/602 596/596/596
f 599/599/599 796/796/796 600/600/600
f 796/796/796 797/797/797 600/600/600
f 797/797/797 798/798/798 600/600/600
f 600/600/600 799/799/799 800/800/800
f 800/800/800 598/598/598 600/600/600
f 601/601/601 801/801/801 602/602/602
f 584/584/584 583/583/583 603/603/603
f 605/605/605 802/802/802 606/606/606
f 606/606/606 803/803/803 607/607/607
f 607/607/607 804/804/804 605/605/605
f 804/804/804 805/805/805 605/605/605
f 805/805/805 806/806/806 605/605/605
f 608/608/608 807/807/807 609/609/609
f 611/611/611 615/615/615 612/612/612
f 611/611/611 808/808/808 614/614/614
f 616/616/616 620/620/620 617/617/617
f 619/619/619 809/809/809 617/617/617
f 621/621/621 628/628/628 622/622/622
f 625/625/625 810/810/810 626/626/626
f 810/810/810 811/811/811 626/626/626
f 811/811/811 812/812/812 626/626/626
f 626/626/626 813/813/813 814/814/814
f 814/814/814 624/624/624 626/626/626
f 627/627/627 815/815/815 628/628/628
f 610/610/610 609/609/609 629/629/629
f 631/631/631 816/816/816 632/632/632
f 632/632/632 817/817/817 633/633/633
f 633/633/633 818/818/818 631/631/631
f 818/818/818 819/819/819 631/631/631
f 819/819/819 820/820/820 631/631/631
f 634/634/634 450/450/450 451/451/451
f 341/341/341 129/129/129 450/450/450
f 636/636/636 821/821/821 637/637/637
f 638/638/638 387/387/387 84/84/84
f 639/639/639 636/636/636 425/425/425
f 640/640/640 822/822/822 641/641/641
f 642/642/642 385/385/385 387/387/387
f 640/640/640 383/383/383 371/371/371
f 639/639/639 380/380/380 355/355/355
f 644/644/644 357/357/357 371/371/371
f 644/644/644 643/643/643 355/355/355
