# f_katana_02 -- imported by tools/import_asset_pack.py from katana_02.fbx
o __pending__
v -0.020968 0.218150 -0.000646
v 0.027056 0.482516 -0.002083
v 0.012817 0.218150 -0.003388
v 0.011067 -0.016892 0.003388
v -0.020968 0.218150 0.000646
v -0.022718 -0.016892 0.000646
v -0.020968 0.218150 0.000646
v -0.022718 -0.016892 -0.000646
v -0.022718 -0.016892 0.000646
v 0.020719 -0.262400 -0.005274
v 0.022814 -0.262311 0.007379
v 0.020719 -0.262400 0.005274
v 0.012817 0.218150 -0.003388
v 0.011067 -0.016892 0.003388
v 0.011067 -0.016892 -0.003388
v 0.011067 -0.016892 -0.003388
v -0.022718 -0.016892 -0.000646
v -0.013025 -0.264048 0.005274
v -0.013025 -0.264048 -0.005274
v -0.015550 -0.204109 -0.001006
v -0.017647 -0.204198 0.007378
v -0.015550 -0.204109 0.001006
v 0.018187 -0.202566 -0.005274
v -0.017647 -0.204198 -0.007378
v -0.015129 -0.264137 0.007370
v -0.015129 -0.264137 -0.007370
v 0.014830 -0.123235 -0.005274
v -0.018897 -0.124641 -0.001006
v -0.018897 -0.124641 0.001006
v -0.018897 -0.124641 0.001006
v 0.014830 -0.123235 0.005274
v -0.018897 -0.124641 -0.001006
v -0.006039 0.489305 0.000397
v 0.007738 0.519939 -0.000398
v -0.006039 0.489305 -0.000398
v 0.027056 0.482516 0.002083
v -0.006039 0.489305 0.000397
v -0.020968 0.218150 -0.000646
v 0.027056 0.482516 0.002083
v 0.012817 0.218150 0.003388
v 0.028583 0.544652 0.000397
v 0.028583 0.544652 -0.000398
v 0.007738 0.519939 0.000397
v 0.007738 0.519939 -0.000398
v 0.028583 0.544652 -0.000398
v 0.027056 0.482516 -0.002083
v 0.028583 0.544652 0.000397
v 0.002423 -0.259342 -0.046863
v 0.035615 -0.265204 -0.033137
v 0.002467 -0.266235 -0.046863
v 0.035571 -0.258310 -0.033137
v 0.049346 -0.264776 0.000000
v 0.035615 -0.265204 -0.033137
v 0.035571 -0.258310 0.033138
v 0.035615 -0.265204 0.033138
v 0.035615 -0.265204 0.033138
v 0.002423 -0.259342 0.046863
v 0.002467 -0.266235 0.046863
v -0.030726 -0.260374 0.033138
v -0.030681 -0.267267 0.033138
v -0.030681 -0.267267 0.033138
v -0.044456 -0.260801 0.000000
v -0.044412 -0.267694 0.000000
v -0.030726 -0.260374 0.033138
v 0.002431 -0.260601 0.029751
v -0.018614 -0.261255 0.021037
v -0.030681 -0.267267 -0.033137
v -0.030726 -0.260374 -0.033137
v -0.030681 -0.267267 -0.033137
v 0.002467 -0.266235 0.046863
v -0.018585 -0.265631 0.021037
v 0.002459 -0.264977 0.029751
v 0.006212 -0.294361 -0.012233
v 0.017042 -0.262134 -0.008650
v 0.019190 -0.293875 -0.008650
v 0.019190 -0.293875 -0.008650
v 0.022423 -0.262009 0.000000
v 0.024565 -0.293674 0.000000
v 0.019190 -0.293875 0.008650
v 0.017042 -0.262134 0.008650
v 0.006212 -0.294361 0.012233
v 0.019190 -0.293875 0.008650
v 0.004051 -0.262435 0.012233
v -0.006765 -0.294846 0.008650
v -0.008940 -0.262735 0.008650
v -0.012141 -0.295047 0.000000
v -0.006765 -0.294846 0.008650
v 0.004051 -0.262435 0.012233
v 0.017042 -0.262134 0.008650
v 0.004051 -0.262435 -0.012233
v -0.008940 -0.262735 -0.008650
v -0.006765 -0.294846 -0.008650
v -0.006765 -0.294846 -0.008650
v 0.004051 -0.262435 -0.012233
v 0.006282 -0.487513 0.008650
v 0.006883 -0.499686 0.000000
v 0.011046 -0.499171 0.006742
v 0.021097 -0.497927 0.009534
v 0.024626 -0.504577 0.001731
v 0.031148 -0.496684 0.006742
v 0.019178 -0.485917 0.012233
v 0.032074 -0.484322 0.008650
v 0.006282 -0.487513 -0.008650
v 0.000940 -0.488174 0.000000
v 0.032074 -0.484322 -0.008650
v 0.035311 -0.496168 0.000000
v 0.031148 -0.496684 -0.006742
v 0.011046 -0.499171 0.006742
v 0.019178 -0.485917 -0.012233
v 0.011046 -0.499171 -0.006742
v 0.006282 -0.487513 -0.008650
v 0.031148 -0.496684 -0.006742
v 0.021097 -0.497927 -0.009534
v 0.032074 -0.484322 0.008650
v 0.037416 -0.483661 0.000000
v 0.019466 -0.505216 0.001731
v 0.018397 -0.505348 0.000000
v 0.019466 -0.505216 -0.001731
v 0.031148 -0.496684 -0.006742
v 0.025695 -0.504445 0.000000
v 0.024626 -0.504577 -0.001731
v 0.011046 -0.499171 -0.006742
v 0.006883 -0.499686 0.000000
v 0.021097 -0.497927 0.009534
v 0.022046 -0.504897 0.002448
v 0.031148 -0.496684 0.006742
v 0.035311 -0.496168 0.000000
v 0.024626 -0.504577 -0.001731
v 0.022046 -0.504897 -0.002448
v 0.021097 -0.497927 -0.009534
v 0.011046 -0.499171 0.006742
v 0.005909 -0.455280 -0.006235
v 0.001933 -0.423291 -0.008650
v 0.017017 -0.453991 -0.009218
v 0.001560 -0.391058 -0.006235
v 0.014856 -0.422065 -0.012233
v -0.002416 -0.359068 -0.008650
v 0.012695 -0.390139 -0.009218
v 0.008373 -0.326287 -0.009218
v 0.010534 -0.358213 -0.012233
v -0.002789 -0.326835 -0.006235
v 0.001769 -0.455783 0.000000
v -0.003420 -0.423799 0.000000
v 0.005909 -0.455280 -0.006235
v -0.002592 -0.391407 0.000000
v 0.001933 -0.423291 -0.008650
v -0.002416 -0.359068 -0.008650
v 0.001560 -0.391058 -0.006235
v -0.006952 -0.327031 0.000000
v -0.007780 -0.359423 0.000000
v -0.002789 -0.326835 -0.006235
v 0.005909 -0.455280 0.006235
v 0.001933 -0.423291 0.008650
v -0.002416 -0.359068 0.008650
v 0.001560 -0.391058 0.006235
v -0.002789 -0.326835 0.006235
v 0.005909 -0.455280 0.006235
v 0.006282 -0.487513 0.008650
v 0.017017 -0.453991 0.009218
v 0.001933 -0.423291 0.008650
v 0.014856 -0.422065 0.012233
v 0.001560 -0.391058 0.006235
v 0.012695 -0.390139 0.009218
v -0.002416 -0.359068 0.008650
v 0.008373 -0.326287 0.009218
v 0.010534 -0.358213 0.012233
v -0.002789 -0.326835 0.006235
v 0.028125 -0.452703 0.006235
v 0.027779 -0.420840 0.008650
v 0.023830 -0.389221 0.006235
v 0.019535 -0.325738 0.006235
v 0.023484 -0.357357 0.008650
v 0.028125 -0.452703 0.006235
v 0.032265 -0.452200 0.000000
v 0.027779 -0.420840 0.008650
v 0.033132 -0.420332 0.000000
v 0.023830 -0.389221 0.006235
v 0.027982 -0.388871 0.000000
v 0.023484 -0.357357 0.008650
v 0.023698 -0.325542 0.000000
v 0.028849 -0.357003 0.000000
v 0.019535 -0.325738 0.006235
v 0.028125 -0.452703 -0.006235
v 0.027779 -0.420840 -0.008650
v 0.023830 -0.389221 -0.006235
v 0.023484 -0.357357 -0.008650
v 0.019535 -0.325738 -0.006235
v 0.032074 -0.484322 -0.008650
v 0.028125 -0.452703 -0.006235
v 0.027779 -0.420840 -0.008650
v 0.023830 -0.389221 -0.006235
v 0.019535 -0.325738 -0.006235
v 0.023484 -0.357357 -0.008650
v 0.023475 -0.259946 0.021037
v 0.023475 -0.259946 -0.021037
v -0.027302 -0.265903 0.000000
v -0.018585 -0.265631 -0.021037
v 0.049346 -0.264776 0.000000
v 0.023503 -0.264322 0.021037
v 0.032220 -0.264050 0.000000
v 0.002467 -0.266235 -0.046863
v -0.030681 -0.267267 -0.033137
v 0.035615 -0.265204 -0.033137
v 0.002459 -0.264977 -0.029751
v 0.035571 -0.258310 0.033138
v 0.032192 -0.259674 0.000000
v -0.030726 -0.260374 -0.033137
v 0.002431 -0.260601 -0.029751
v 0.002423 -0.259342 -0.046863
v 0.035571 -0.258310 -0.033137
v -0.030681 -0.267267 0.033138
v -0.044456 -0.260801 0.000000
v -0.027330 -0.261527 0.000000
v 0.035615 -0.265204 0.033138
v 0.002423 -0.259342 0.046863
v 0.023503 -0.264322 -0.021037
v -0.044412 -0.267694 0.000000
v 0.049301 -0.257883 0.000000
v -0.018614 -0.261255 -0.021037
v 0.014830 -0.123235 0.005274
v 0.018187 -0.202566 -0.005274
v -0.015550 -0.204109 0.001006
v 0.018187 -0.202566 0.005274
v 0.018187 -0.202566 -0.005274
v -0.015550 -0.204109 -0.001006
v -0.017647 -0.204198 -0.007378
v 0.022814 -0.262311 -0.007379
v -0.015129 -0.264137 -0.007370
v -0.017647 -0.204198 0.007378
v 0.022814 -0.262311 0.007379
v 0.020289 -0.202477 0.007373
v -0.017647 -0.204198 -0.007378
v -0.015129 -0.264137 0.007370
v -0.017647 -0.204198 0.007378
v 0.020289 -0.202477 0.007373
v 0.022814 -0.262311 -0.007379
v 0.020289 -0.202477 -0.007373
v 0.022814 -0.262311 -0.007379
v 0.018187 -0.202566 0.005274
v 0.020289 -0.202477 0.007373
v 0.020289 -0.202477 -0.007373
v -0.006039 0.489305 -0.000398
v 0.012817 0.218150 0.003388
v 0.014830 -0.123235 -0.005274
v 0.007738 0.519939 0.000397
v 0.028583 0.544652 0.000397
v 0.028583 0.544652 -0.000398
v 0.035571 -0.258310 -0.033137
v 0.049301 -0.257883 0.000000
v 0.035571 -0.258310 0.033138
v -0.030726 -0.260374 0.033138
v -0.030726 -0.260374 -0.033137
v 0.017042 -0.262134 -0.008650
v 0.017042 -0.262134 0.008650
v -0.008940 -0.262735 0.008650
v -0.014321 -0.262860 0.000000
v 0.022423 -0.262009 0.000000
v 0.017042 -0.262134 -0.008650
v -0.008940 -0.262735 -0.008650
v -0.008940 -0.262735 0.008650
v -0.014321 -0.262860 0.000000
v -0.008940 -0.262735 -0.008650
v 0.022046 -0.504897 0.002448
v 0.011046 -0.499171 -0.006742
v 0.031148 -0.496684 0.006742
v 0.022046 -0.504897 -0.002448
v 0.024626 -0.504577 0.001731
v 0.018187 -0.202566 0.005274
v -0.015550 -0.204109 -0.001006
v -0.015550 -0.204109 0.001006
v 0.020289 -0.202477 -0.007373
v -0.015129 -0.264137 0.007370
v -0.015129 -0.264137 -0.007370
v 0.022814 -0.262311 0.007379
vt 0.069961 0.563243
vt 0.128762 0.914278
vt 0.114765 0.563910
vt 0.016302 0.252575
vt 0.063088 0.563243
vt 0.061106 0.251908
vt 0.136962 0.562447
vt 0.138674 0.251118
vt 0.136962 0.251118
vt 0.325742 0.610869
vt 0.308979 0.608096
vt 0.311768 0.610869
vt 0.148523 0.563725
vt 0.157498 0.252357
vt 0.148523 0.252357
vt 0.116746 0.252575
vt 0.071942 0.251908
vt 0.311768 0.655543
vt 0.325742 0.655543
vt 0.352669 0.611087
vt 0.341563 0.608307
vt 0.350003 0.611087
vt 0.358323 0.655824
vt 0.361109 0.608307
vt 0.308991 0.658328
vt 0.328519 0.658328
vt 0.146024 0.111588
vt 0.139151 0.108560
vt 0.136485 0.108560
vt 0.054067 0.109276
vt 0.009334 0.111838
vt 0.078981 0.109276
vt 0.137291 0.922058
vt 0.138344 0.963109
vt 0.138344 0.922058
vt 0.004287 0.914277
vt 0.048281 0.922637
vt 0.138674 0.562447
vt 0.155770 0.914226
vt 0.157498 0.563725
vt 0.137291 0.996564
vt 0.138344 0.996564
vt 0.030593 0.963459
vt 0.102455 0.963459
vt 0.129612 0.996564
vt 0.150251 0.914226
vt 0.153537 0.996564
vt 0.325271 0.709652
vt 0.334690 0.753059
vt 0.334399 0.709429
vt 0.367737 0.753282
vt 0.359495 0.709382
vt 0.358608 0.753282
vt 0.367737 0.665483
vt 0.358608 0.665483
vt 0.308979 0.753059
vt 0.318398 0.709652
vt 0.309270 0.709429
vt 0.318107 0.665424
vt 0.308979 0.665201
vt 0.350690 0.665483
vt 0.342608 0.709382
vt 0.351735 0.709382
vt 0.308979 0.915346
vt 0.329908 0.954183
vt 0.329908 0.923997
vt 0.350690 0.753282
vt 0.325562 0.665424
vt 0.334690 0.665201
vt 0.342574 0.760154
vt 0.329892 0.802439
vt 0.351220 0.781111
vt 0.225410 0.953481
vt 0.242523 0.995026
vt 0.242523 0.952885
vt 0.279188 0.954280
vt 0.290647 0.996564
vt 0.290647 0.954672
vt 0.302106 0.954280
vt 0.166870 0.995026
vt 0.183983 0.953481
vt 0.166870 0.952885
vt 0.183984 0.995868
vt 0.201258 0.953932
vt 0.249396 0.996564
vt 0.260855 0.953660
vt 0.249396 0.954115
vt 0.401917 0.734122
vt 0.411069 0.749454
vt 0.433163 0.725506
vt 0.272315 0.996564
vt 0.272315 0.954115
vt 0.208136 0.953931
vt 0.225409 0.995868
vt 0.249396 0.699421
vt 0.260855 0.683321
vt 0.251924 0.684149
vt 0.182573 0.683065
vt 0.178680 0.673800
vt 0.169242 0.683749
vt 0.183975 0.699164
vt 0.166870 0.700042
vt 0.272315 0.699421
vt 0.260855 0.698359
vt 0.279187 0.702324
vt 0.290647 0.686709
vt 0.281716 0.685929
vt 0.196030 0.682267
vt 0.225419 0.699163
vt 0.213363 0.682266
vt 0.208152 0.698139
vt 0.240151 0.683749
vt 0.226820 0.683065
vt 0.302106 0.702324
vt 0.290647 0.703325
vt 0.412429 0.651590
vt 0.415017 0.652337
vt 0.416847 0.650360
vt 0.419131 0.633805
vt 0.412429 0.643037
vt 0.415017 0.643784
vt 0.426259 0.659420
vt 0.419131 0.667119
vt 0.401922 0.652393
vt 0.410599 0.648556
vt 0.401922 0.638594
vt 0.409050 0.630895
vt 0.230714 0.673800
vt 0.227291 0.673625
vt 0.426259 0.645621
vt 0.409050 0.664209
vt 0.210487 0.740721
vt 0.208147 0.783403
vt 0.225349 0.741488
vt 0.210482 0.825986
vt 0.225416 0.783936
vt 0.208141 0.868667
vt 0.225346 0.826261
vt 0.225344 0.911034
vt 0.225413 0.868709
vt 0.210476 0.911250
vt 0.260855 0.741284
vt 0.260855 0.783459
vt 0.269116 0.742094
vt 0.260855 0.826384
vt 0.272315 0.784319
vt 0.272315 0.869217
vt 0.269115 0.826992
vt 0.260855 0.911485
vt 0.260855 0.868560
vt 0.269115 0.911890
vt 0.252595 0.742094
vt 0.249396 0.784319
vt 0.249396 0.869217
vt 0.252595 0.826992
vt 0.252595 0.911890
vt 0.198906 0.740721
vt 0.201241 0.698139
vt 0.184044 0.741488
vt 0.201247 0.783403
vt 0.183977 0.783936
vt 0.198912 0.825986
vt 0.184047 0.826261
vt 0.201252 0.868667
vt 0.184050 0.911034
vt 0.183980 0.868709
vt 0.198917 0.911250
vt 0.169317 0.742133
vt 0.166870 0.784323
vt 0.169317 0.826415
vt 0.169316 0.910696
vt 0.166870 0.868604
vt 0.298907 0.744113
vt 0.290647 0.744876
vt 0.302106 0.786309
vt 0.290647 0.787107
vt 0.298907 0.828098
vt 0.290647 0.828659
vt 0.302106 0.870295
vt 0.290647 0.912441
vt 0.290647 0.870890
vt 0.298907 0.912084
vt 0.282387 0.744113
vt 0.279187 0.786309
vt 0.282387 0.828098
vt 0.279188 0.870295
vt 0.282387 0.912084
vt 0.242523 0.700042
vt 0.240077 0.742133
vt 0.242523 0.784323
vt 0.240077 0.826415
vt 0.240077 0.910696
vt 0.242523 0.868604
vt 0.351241 0.975540
vt 0.402743 0.954225
vt 0.329892 0.832604
vt 0.351220 0.853936
vt 0.423680 0.793760
vt 0.381382 0.781113
vt 0.402710 0.802445
vt 0.390085 0.874871
vt 0.342574 0.874866
vt 0.423680 0.841275
vt 0.381382 0.853938
vt 0.342582 0.996537
vt 0.381410 0.975558
vt 0.390104 0.881771
vt 0.402743 0.924038
vt 0.423707 0.915412
vt 0.423707 0.962961
vt 0.308979 0.793750
vt 0.342582 0.881743
vt 0.351240 0.902664
vt 0.390085 0.760159
vt 0.308979 0.962895
vt 0.402710 0.832610
vt 0.308979 0.841265
vt 0.390104 0.996564
vt 0.381410 0.902681
vt 0.159997 0.111588
vt 0.146024 0.006589
vt 0.136485 0.003436
vt 0.003436 0.006828
vt 0.129612 0.006829
vt 0.084868 0.004084
vt 0.166887 0.666607
vt 0.217186 0.587425
vt 0.166870 0.587142
vt 0.299695 0.676303
vt 0.249396 0.597121
vt 0.249396 0.676449
vt 0.395044 0.753282
vt 0.375507 0.673992
vt 0.375497 0.753282
vt 0.395041 0.667119
vt 0.375497 0.587924
vt 0.375506 0.667119
vt 0.328531 0.608096
vt 0.344349 0.655824
vt 0.341569 0.658610
vt 0.361103 0.658610
vt 0.084768 0.922637
vt 0.018284 0.563910
vt 0.123714 0.111838
vt 0.137291 0.963109
vt 0.003436 0.996564
vt 0.152484 0.996564
vt 0.325562 0.753282
vt 0.368625 0.709382
vt 0.318107 0.753282
vt 0.341563 0.665483
vt 0.341563 0.753282
vt 0.279188 0.996273
vt 0.302106 0.996273
vt 0.201260 0.996564
vt 0.260855 0.996211
vt 0.424011 0.753282
vt 0.433163 0.743362
vt 0.424011 0.710173
vt 0.401917 0.716266
vt 0.411069 0.706346
vt 0.208133 0.996564
vt 0.182102 0.673625
vt 0.269787 0.684149
vt 0.299578 0.685929
vt 0.416847 0.646818
vt 0.410599 0.645014
vt 0.159997 0.006589
vt 0.139151 0.003436
vt 0.048180 0.004084
vt 0.217186 0.666752
vt 0.299712 0.596838
vt 0.395035 0.673992
vt 0.395049 0.587924
vn -0.738913 0.024518 -0.673354
vn 0.690644 -0.019308 -0.722937
vn 0.671094 -0.018644 -0.741138
vn 0.672782 0.011672 0.739749
vn -0.738911 0.024517 0.673357
vn -0.739632 -0.009248 0.672948
vn -0.738911 0.024517 0.673357
vn -0.739632 -0.009248 -0.672948
vn -0.739632 -0.009248 0.672948
vn 0.046344 -0.998923 0.002430
vn 0.602198 -0.551609 0.577136
vn 0.046331 -0.998923 -0.002430
vn 0.671094 -0.018644 -0.741138
vn 0.672782 0.011672 0.739749
vn 0.672774 0.011672 -0.739756
vn 0.672774 0.011672 -0.739756
vn -0.739632 -0.009248 -0.672948
vn 0.046008 -0.998939 0.002139
vn 0.046007 -0.998939 -0.002138
vn -0.381012 0.874163 -0.301114
vn -0.601875 0.551720 0.577365
vn -0.381033 0.874156 0.301105
vn 0.220286 0.928848 -0.297850
vn -0.601858 0.551734 -0.577371
vn -0.551603 -0.601850 0.577504
vn -0.551611 -0.601857 -0.577490
vn 0.657488 0.032243 -0.752774
vn -0.748606 -0.024124 -0.662577
vn -0.748604 -0.024124 0.662579
vn -0.748604 -0.024124 0.662579
vn 0.657487 0.032243 0.752776
vn -0.748606 -0.024124 -0.662577
vn -0.737220 0.179640 0.651335
vn -0.633862 0.400356 -0.661766
vn -0.737217 0.179639 -0.651338
vn 0.690647 -0.019308 0.722934
vn -0.737220 0.179640 0.651335
vn -0.738913 0.024518 -0.673354
vn 0.690647 -0.019308 0.722934
vn 0.671090 -0.018643 0.741141
vn 0.297620 0.789030 0.537451
vn 0.297601 0.789032 -0.537458
vn -0.633858 0.400354 0.661771
vn -0.633862 0.400356 -0.661766
vn 0.297601 0.789032 -0.537458
vn 0.690644 -0.019308 -0.722937
vn 0.297620 0.789030 0.537451
vn -0.015480 0.652426 -0.757694
vn 0.549538 -0.642178 -0.534429
vn 0.015477 -0.652426 -0.757694
vn 0.521567 0.662686 -0.537414
vn 0.770079 -0.637949 0.000000
vn 0.549538 -0.642178 -0.534429
vn 0.521567 0.662687 0.537415
vn 0.549538 -0.642178 0.534430
vn 0.549538 -0.642178 0.534430
vn -0.015479 0.652427 0.757694
vn 0.015479 -0.652426 0.757694
vn -0.549537 0.642178 0.534431
vn -0.521566 -0.662686 0.537416
vn -0.521566 -0.662686 0.537416
vn -0.770079 0.637948 -0.000000
vn -0.745122 -0.666928 0.000000
vn -0.549537 0.642178 0.534431
vn -0.031040 0.998467 -0.045834
vn 0.001354 0.999473 -0.032445
vn -0.521565 -0.662687 -0.537416
vn -0.549537 0.642178 -0.534431
vn -0.521565 -0.662687 -0.537416
vn 0.015479 -0.652426 0.757694
vn 0.063383 -0.997463 -0.032393
vn 0.031041 -0.998467 -0.045834
vn 0.002341 -0.045855 -0.998945
vn 0.438012 0.653770 -0.617033
vn 0.598854 -0.007075 -0.800827
vn 0.598854 -0.007075 -0.800827
vn 0.768448 0.639913 -0.000000
vn 0.999860 0.016704 0.000000
vn 0.598853 -0.007074 0.800827
vn 0.438016 0.653763 0.617038
vn 0.002341 -0.045855 0.998945
vn 0.598853 -0.007074 0.800827
vn -0.020770 0.651443 0.758414
vn -0.593649 -0.084565 0.800268
vn -0.487314 0.612380 0.622507
vn -0.993617 -0.112809 0.000000
vn -0.593649 -0.084565 0.800268
vn -0.020770 0.651443 0.758414
vn 0.438016 0.653763 0.617038
vn -0.020771 0.651466 -0.758394
vn -0.487310 0.612388 -0.622503
vn -0.593650 -0.084565 -0.800268
vn -0.593650 -0.084565 -0.800268
vn -0.020771 0.651466 -0.758394
vn -0.595423 -0.150587 0.789174
vn -0.741214 -0.671269 -0.000000
vn -0.440819 -0.580270 0.684810
vn 0.059849 -0.459689 0.886061
vn 0.330409 -0.875722 0.352053
vn 0.579256 -0.434931 0.689418
vn 0.000708 -0.061511 0.998106
vn 0.603188 -0.012361 0.797504
vn -0.595423 -0.150587 -0.789174
vn -0.976360 -0.216152 0.000000
vn 0.603188 -0.012361 -0.797504
vn 0.899181 -0.437576 -0.000000
vn 0.579256 -0.434931 -0.689418
vn -0.440819 -0.580270 0.684810
vn 0.000708 -0.061512 -0.998106
vn -0.440818 -0.580271 -0.684810
vn -0.595423 -0.150587 -0.789174
vn 0.579256 -0.434931 -0.689418
vn 0.059850 -0.459689 -0.886061
vn 0.603188 -0.012361 0.797504
vn 0.999968 0.007952 0.000000
vn -0.104467 -0.930664 0.350644
vn -0.255969 -0.966685 0.000001
vn -0.104457 -0.930664 -0.350648
vn 0.579256 -0.434931 -0.689418
vn 0.487922 -0.872887 0.000000
vn 0.330411 -0.875722 -0.352050
vn -0.440818 -0.580271 -0.684810
vn -0.741214 -0.671269 -0.000000
vn 0.059849 -0.459689 0.886061
vn 0.111389 -0.894077 0.433842
vn 0.579256 -0.434931 0.689418
vn 0.899181 -0.437576 -0.000000
vn 0.330411 -0.875722 -0.352050
vn 0.111400 -0.894075 -0.433843
vn 0.059850 -0.459689 -0.886061
vn -0.440819 -0.580270 0.684810
vn -0.582730 -0.035721 -0.811880
vn -0.595891 -0.043200 -0.801902
vn -0.000178 0.000192 -1.000000
vn -0.581015 -0.038362 -0.812989
vn 0.000175 -0.000197 -1.000000
vn -0.594725 -0.040250 -0.802921
vn -0.000171 0.000189 -1.000000
vn -0.000149 -0.000217 -1.000000
vn -0.000768 -0.000053 -1.000000
vn -0.580828 -0.040352 -0.813025
vn -0.998173 -0.060426 -0.000000
vn -0.997388 -0.072233 -0.000000
vn -0.582730 -0.035721 -0.811880
vn -0.997753 -0.066999 0.000000
vn -0.595891 -0.043200 -0.801902
vn -0.594725 -0.040250 -0.802921
vn -0.581015 -0.038362 -0.812989
vn -0.997666 -0.068279 0.000000
vn -0.997717 -0.067528 0.000000
vn -0.580828 -0.040352 -0.813025
vn -0.582730 -0.035721 0.811881
vn -0.595891 -0.043200 0.801902
vn -0.594725 -0.040250 0.802921
vn -0.581015 -0.038361 0.812989
vn -0.580828 -0.040352 0.813026
vn -0.582730 -0.035721 0.811881
vn -0.595423 -0.150587 0.789174
vn -0.000178 0.000192 1.000000
vn -0.595891 -0.043200 0.801902
vn 0.000175 -0.000197 1.000000
vn -0.581015 -0.038361 0.812989
vn -0.000171 0.000189 1.000000
vn -0.594725 -0.040250 0.802921
vn -0.000149 -0.000217 1.000000
vn -0.000768 -0.000053 1.000000
vn -0.580828 -0.040352 0.813026
vn 0.582540 0.035943 0.812007
vn 0.596077 0.042895 0.801781
vn 0.582375 0.036325 0.812108
vn 0.581914 0.042489 0.812140
vn 0.595632 0.040272 0.802248
vn 0.582540 0.035943 0.812007
vn 0.998171 0.060455 0.000000
vn 0.596077 0.042895 0.801781
vn 0.997404 0.072016 -0.000000
vn 0.582375 0.036325 0.812108
vn 0.998092 0.061744 0.000001
vn 0.595632 0.040272 0.802248
vn 0.997304 0.073380 0.000000
vn 0.997723 0.067439 -0.000000
vn 0.581914 0.042489 0.812140
vn 0.582540 0.035943 -0.812007
vn 0.596077 0.042895 -0.801781
vn 0.582376 0.036324 -0.812108
vn 0.595632 0.040272 -0.802248
vn 0.581914 0.042489 -0.812139
vn 0.603188 -0.012361 -0.797504
vn 0.582540 0.035943 -0.812007
vn 0.596077 0.042895 -0.801781
vn 0.582376 0.036324 -0.812108
vn 0.581914 0.042489 -0.812139
vn 0.595632 0.040272 -0.802248
vn -0.063382 0.997464 -0.032393
vn -0.063382 0.997463 0.032393
vn 0.076777 -0.997048 0.000000
vn 0.063382 -0.997463 0.032394
vn 0.770079 -0.637949 0.000000
vn -0.001353 -0.999473 -0.032445
vn -0.014800 -0.999891 0.000000
vn 0.015477 -0.652426 -0.757694
vn -0.521565 -0.662687 -0.537416
vn 0.549538 -0.642178 -0.534429
vn 0.031039 -0.998467 0.045834
vn 0.521567 0.662687 0.537415
vn -0.076778 0.997048 -0.000000
vn -0.549537 0.642178 -0.534431
vn -0.031040 0.998467 0.045834
vn -0.015480 0.652426 -0.757694
vn 0.521567 0.662686 -0.537414
vn -0.521566 -0.662686 0.537416
vn -0.770079 0.637948 -0.000000
vn 0.014799 0.999891 -0.000000
vn 0.549538 -0.642178 0.534430
vn -0.015479 0.652427 0.757694
vn -0.001353 -0.999473 0.032445
vn -0.745122 -0.666928 0.000000
vn 0.745122 0.666929 -0.000000
vn 0.001353 0.999473 0.032445
vn 0.657487 0.032243 0.752776
vn 0.220286 0.928848 -0.297850
vn -0.381033 0.874156 0.301105
vn 0.220285 0.928849 0.297850
vn 0.220286 0.928848 -0.297850
vn -0.381012 0.874163 -0.301114
vn -0.601858 0.551734 -0.577371
vn 0.602182 -0.551629 -0.577133
vn -0.551611 -0.601857 -0.577490
vn -0.601875 0.551720 0.577365
vn 0.602198 -0.551609 0.577136
vn 0.551947 0.601633 0.577401
vn -0.601858 0.551734 -0.577371
vn -0.551603 -0.601850 0.577504
vn -0.601875 0.551720 0.577365
vn 0.551947 0.601633 0.577401
vn 0.602182 -0.551629 -0.577133
vn 0.551970 0.601613 -0.577400
vn 0.602182 -0.551629 -0.577133
vn 0.220285 0.928849 0.297850
vn 0.551947 0.601633 0.577401
vn 0.551970 0.601613 -0.577400
vn -0.737217 0.179639 -0.651338
vn 0.671090 -0.018643 0.741141
vn 0.657488 0.032243 -0.752774
vn -0.633858 0.400354 0.661771
vn 0.297620 0.789030 0.537451
vn 0.297601 0.789032 -0.537458
vn 0.521567 0.662686 -0.537414
vn 0.745122 0.666929 -0.000000
vn 0.521567 0.662687 0.537415
vn -0.549537 0.642178 0.534431
vn -0.549537 0.642178 -0.534431
vn 0.438012 0.653770 -0.617033
vn 0.438016 0.653763 0.617038
vn -0.487314 0.612380 0.622507
vn -0.821856 0.569696 -0.000001
vn 0.768448 0.639913 -0.000000
vn 0.438012 0.653770 -0.617033
vn -0.487310 0.612388 -0.622503
vn -0.487314 0.612380 0.622507
vn -0.821856 0.569696 -0.000001
vn -0.487310 0.612388 -0.622503
vn 0.111389 -0.894077 0.433842
vn -0.440818 -0.580271 -0.684810
vn 0.579256 -0.434931 0.689418
vn 0.111400 -0.894075 -0.433843
vn 0.330409 -0.875722 0.352053
vn 0.220285 0.928849 0.297850
vn -0.381012 0.874163 -0.301114
vn -0.381033 0.874156 0.301105
vn 0.551970 0.601613 -0.577400
vn -0.551603 -0.601850 0.577504
vn -0.551611 -0.601857 -0.577490
vn 0.602198 -0.551609 0.577136
f 1/1/1 2/2/2 3/3/3
f 4/4/4 5/5/5 6/6/6
f 7/7/7 8/8/8 9/9/9
f 10/10/10 11/11/11 12/12/12
f 13/13/13 14/14/14 15/15/15
f 1/1/1 16/16/16 17/17/17
f 10/10/10 18/18/18 19/19/19
f 20/20/20 21/21/21 22/22/22
f 23/23/23 24/24/24 20/20/20
f 19/19/19 25/25/25 26/26/26
f 14/14/14 27/27/27 15/15/15
f 9/9/9 28/28/28 29/29/29
f 4/4/4 30/30/30 31/31/31
f 16/16/16 32/32/32 17/17/17
f 33/33/33 34/34/34 35/35/35
f 5/5/5 36/36/36 37/37/37
f 7/7/7 35/35/35 38/38/38
f 13/13/13 39/39/39 40/40/40
f 34/34/34 41/41/41 42/42/42
f 36/36/36 43/43/43 37/37/37
f 2/2/2 44/44/44 45/45/45
f 46/46/46 47/47/47 39/39/39
f 48/48/48 49/49/49 50/50/50
f 51/51/51 52/52/52 53/53/53
f 52/52/52 54/54/54 55/55/55
f 56/56/56 57/57/57 58/58/58
f 58/58/58 59/59/59 60/60/60
f 61/61/61 62/62/62 63/63/63
f 64/64/64 65/65/65 66/66/66
f 62/62/62 67/67/67 63/63/63
f 68/68/68 50/50/50 69/69/69
f 70/70/70 71/71/71 72/72/72
f 73/73/73 74/74/74 75/75/75
f 76/76/76 77/77/77 78/78/78
f 77/77/77 79/79/79 78/78/78
f 80/80/80 81/81/81 82/82/82
f 83/83/83 84/84/84 81/81/81
f 85/85/85 86/86/86 87/87/87
f 88/88/88 89/89/89 90/90/90
f 86/86/86 91/91/91 92/92/92
f 93/93/93 94/94/94 73/73/73
f 95/95/95 96/96/96 97/97/97
f 98/98/98 99/99/99 100/100/100
f 101/101/101 100/100/100 102/102/102
f 103/103/103 96/96/96 104/104/104
f 105/105/105 106/106/106 107/107/107
f 101/101/101 108/108/108 98/98/98
f 109/109/109 110/110/110 111/111/111
f 109/109/109 112/112/112 113/113/113
f 114/114/114 106/106/106 115/115/115
f 116/116/116 117/117/117 118/118/118
f 119/119/119 120/120/120 121/121/121
f 122/122/122 117/117/117 123/123/123
f 124/124/124 116/116/116 125/125/125
f 126/126/126 120/120/120 127/127/127
f 113/113/113 128/128/128 129/129/129
f 130/130/130 118/118/118 122/122/122
f 131/131/131 117/117/117 116/116/116
f 132/132/132 109/109/109 111/111/111
f 133/133/133 134/134/134 132/132/132
f 135/135/135 136/136/136 133/133/133
f 137/137/137 138/138/138 135/135/135
f 137/137/137 139/139/139 140/140/140
f 141/141/141 73/73/73 139/139/139
f 142/142/142 103/103/103 104/104/104
f 143/143/143 144/144/144 142/142/142
f 145/145/145 146/146/146 143/143/143
f 145/145/145 147/147/147 148/148/148
f 149/149/149 147/147/147 150/150/150
f 149/149/149 92/92/92 151/151/151
f 95/95/95 142/142/142 104/104/104
f 152/152/152 143/143/143 142/142/142
f 153/153/153 145/145/145 143/143/143
f 154/154/154 145/145/145 155/155/155
f 154/154/154 149/149/149 150/150/150
f 87/87/87 149/149/149 156/156/156
f 101/101/101 157/157/157 158/158/158
f 159/159/159 160/160/160 157/157/157
f 161/161/161 162/162/162 160/160/160
f 163/163/163 164/164/164 162/162/162
f 165/165/165 164/164/164 166/166/166
f 81/81/81 167/167/167 165/165/165
f 102/102/102 159/159/159 101/101/101
f 168/168/168 161/161/161 159/159/159
f 169/169/169 163/163/163 161/161/161
f 170/170/170 166/166/166 163/163/163
f 171/171/171 166/166/166 172/172/172
f 82/82/82 165/165/165 171/171/171
f 115/115/115 173/173/173 114/114/114
f 174/174/174 175/175/175 173/173/173
f 176/176/176 177/177/177 175/175/175
f 178/178/178 179/179/179 177/177/177
f 180/180/180 179/179/179 181/181/181
f 78/78/78 182/182/182 180/180/180
f 183/183/183 115/115/115 105/105/105
f 184/184/184 174/174/174 183/183/183
f 185/185/185 176/176/176 184/184/184
f 186/186/186 178/178/178 185/185/185
f 186/186/186 180/180/180 181/181/181
f 187/187/187 78/78/78 180/180/180
f 134/134/134 188/188/188 109/109/109
f 136/136/136 189/189/189 134/134/134
f 138/138/138 190/190/190 136/136/136
f 140/140/140 191/191/191 138/138/138
f 140/140/140 192/192/192 193/193/193
f 139/139/139 75/75/75 192/192/192
f 65/65/65 194/194/194 195/195/195
f 71/71/71 196/196/196 197/197/197
f 198/198/198 199/199/199 200/200/200
f 201/201/201 197/197/197 202/202/202
f 203/203/203 204/204/204 201/201/201
f 205/205/205 206/206/206 194/194/194
f 207/207/207 208/208/208 209/209/209
f 209/209/209 195/195/195 210/210/210
f 211/211/211 196/196/196 71/71/71
f 212/212/212 66/66/66 213/213/213
f 214/214/214 72/72/72 199/199/199
f 215/215/215 194/194/194 65/65/65
f 198/198/198 216/216/216 203/203/203
f 202/202/202 196/196/196 217/217/217
f 210/210/210 206/206/206 218/218/218
f 212/212/212 219/219/219 207/207/207
f 220/220/220 221/221/221 27/27/27
f 28/28/28 222/222/222 29/29/29
f 30/30/30 223/223/223 31/31/31
f 32/32/32 224/224/224 225/225/225
f 226/226/226 227/227/227 228/228/228
f 229/229/229 230/230/230 231/231/231
f 232/232/232 233/233/233 234/234/234
f 235/235/235 236/236/236 237/237/237
f 19/19/19 238/238/238 10/10/10
f 239/239/239 21/21/21 240/240/240
f 239/239/239 241/241/241 23/23/23
f 18/18/18 11/11/11 25/25/25
f 1/1/1 242/242/242 2/2/2
f 4/4/4 243/243/243 5/5/5
f 7/7/7 38/38/38 8/8/8
f 10/10/10 238/238/238 11/11/11
f 13/13/13 40/40/40 14/14/14
f 1/1/1 3/3/3 16/16/16
f 10/10/10 12/12/12 18/18/18
f 20/20/20 24/24/24 21/21/21
f 23/23/23 241/241/241 24/24/24
f 19/19/19 18/18/18 25/25/25
f 14/14/14 220/220/220 27/27/27
f 9/9/9 8/8/8 28/28/28
f 4/4/4 6/6/6 30/30/30
f 16/16/16 244/244/244 32/32/32
f 33/33/33 245/245/245 34/34/34
f 5/5/5 243/243/243 36/36/36
f 7/7/7 33/33/33 35/35/35
f 13/13/13 46/46/46 39/39/39
f 34/34/34 245/245/245 41/41/41
f 36/36/36 246/246/246 43/43/43
f 2/2/2 242/242/242 44/44/44
f 46/46/46 247/247/247 47/47/47
f 48/48/48 248/248/248 49/49/49
f 51/51/51 249/249/249 52/52/52
f 52/52/52 249/249/249 54/54/54
f 56/56/56 250/250/250 57/57/57
f 58/58/58 57/57/57 59/59/59
f 61/61/61 251/251/251 62/62/62
f 64/64/64 215/215/215 65/65/65
f 62/62/62 252/252/252 67/67/67
f 68/68/68 48/48/48 50/50/50
f 70/70/70 211/211/211 71/71/71
f 73/73/73 94/94/94 74/74/74
f 76/76/76 253/253/253 77/77/77
f 77/77/77 254/254/254 79/79/79
f 80/80/80 83/83/83 81/81/81
f 83/83/83 255/255/255 84/84/84
f 85/85/85 256/256/256 86/86/86
f 257/257/257 258/258/258 89/89/89
f 258/258/258 90/90/90 89/89/89
f 90/90/90 259/259/259 260/260/260
f 259/259/259 261/261/261 260/260/260
f 260/260/260 88/88/88 90/90/90
f 86/86/86 256/256/256 91/91/91
f 93/93/93 262/262/262 94/94/94
f 95/95/95 104/104/104 96/96/96
f 98/98/98 263/263/263 99/99/99
f 101/101/101 98/98/98 100/100/100
f 103/103/103 264/264/264 96/96/96
f 105/105/105 115/115/115 106/106/106
f 101/101/101 158/158/158 108/108/108
f 109/109/109 113/113/113 110/110/110
f 109/109/109 188/188/188 112/112/112
f 114/114/114 265/265/265 106/106/106
f 118/118/118 266/266/266 125/125/125
f 266/266/266 121/121/121 267/267/267
f 121/121/121 120/120/120 267/267/267
f 267/267/267 125/125/125 266/266/266
f 125/125/125 116/116/116 118/118/118
f 119/119/119 127/127/127 120/120/120
f 122/122/122 118/118/118 117/117/117
f 124/124/124 131/131/131 116/116/116
f 126/126/126 267/267/267 120/120/120
f 113/113/113 112/112/112 128/128/128
f 130/130/130 266/266/266 118/118/118
f 131/131/131 123/123/123 117/117/117
f 132/132/132 134/134/134 109/109/109
f 133/133/133 136/136/136 134/134/134
f 135/135/135 138/138/138 136/136/136
f 137/137/137 140/140/140 138/138/138
f 137/137/137 141/141/141 139/139/139
f 141/141/141 93/93/93 73/73/73
f 142/142/142 144/144/144 103/103/103
f 143/143/143 146/146/146 144/144/144
f 145/145/145 148/148/148 146/146/146
f 145/145/145 150/150/150 147/147/147
f 149/149/149 151/151/151 147/147/147
f 149/149/149 86/86/86 92/92/92
f 95/95/95 152/152/152 142/142/142
f 152/152/152 153/153/153 143/143/143
f 153/153/153 155/155/155 145/145/145
f 154/154/154 150/150/150 145/145/145
f 154/154/154 156/156/156 149/149/149
f 87/87/87 86/86/86 149/149/149
f 101/101/101 159/159/159 157/157/157
f 159/159/159 161/161/161 160/160/160
f 161/161/161 163/163/163 162/162/162
f 163/163/163 166/166/166 164/164/164
f 165/165/165 167/167/167 164/164/164
f 81/81/81 84/84/84 167/167/167
f 102/102/102 168/168/168 159/159/159
f 168/168/168 169/169/169 161/161/161
f 169/169/169 170/170/170 163/163/163
f 170/170/170 172/172/172 166/166/166
f 171/171/171 165/165/165 166/166/166
f 82/82/82 81/81/81 165/165/165
f 115/115/115 174/174/174 173/173/173
f 174/174/174 176/176/176 175/175/175
f 176/176/176 178/178/178 177/177/177
f 178/178/178 181/181/181 179/179/179
f 180/180/180 182/182/182 179/179/179
f 78/78/78 79/79/79 182/182/182
f 183/183/183 174/174/174 115/115/115
f 184/184/184 176/176/176 174/174/174
f 185/185/185 178/178/178 176/176/176
f 186/186/186 181/181/181 178/178/178
f 186/186/186 187/187/187 180/180/180
f 187/187/187 76/76/76 78/78/78
f 134/134/134 189/189/189 188/188/188
f 136/136/136 190/190/190 189/189/189
f 138/138/138 191/191/191 190/190/190
f 140/140/140 193/193/193 191/191/191
f 140/140/140 139/139/139 192/192/192
f 139/139/139 73/73/73 75/75/75
f 206/206/206 195/195/195 194/194/194
f 195/195/195 208/208/208 65/65/65
f 208/208/208 219/219/219 65/65/65
f 219/219/219 213/213/213 66/66/66
f 65/65/65 219/219/219 66/66/66
f 197/197/197 204/204/204 72/72/72
f 204/204/204 216/216/216 199/199/199
f 216/216/216 200/200/200 199/199/199
f 199/199/199 72/72/72 204/204/204
f 72/72/72 71/71/71 197/197/197
f 198/198/198 214/214/214 199/199/199
f 201/201/201 204/204/204 197/197/197
f 203/203/203 216/216/216 204/204/204
f 205/205/205 218/218/218 206/206/206
f 207/207/207 219/219/219 208/208/208
f 209/209/209 208/208/208 195/195/195
f 211/211/211 217/217/217 196/196/196
f 212/212/212 64/64/64 66/66/66
f 214/214/214 70/70/70 72/72/72
f 215/215/215 205/205/205 194/194/194
f 198/198/198 200/200/200 216/216/216
f 202/202/202 197/197/197 196/196/196
f 210/210/210 195/195/195 206/206/206
f 212/212/212 213/213/213 219/219/219
f 220/220/220 268/268/268 221/221/221
f 28/28/28 269/269/269 222/222/222
f 30/30/30 270/270/270 223/223/223
f 32/32/32 244/244/244 224/224/224
f 226/226/226 271/271/271 227/227/227
f 229/229/229 272/272/272 230/230/230
f 232/232/232 273/273/273 233/233/233
f 235/235/235 274/274/274 236/236/236
f 19/19/19 26/26/26 238/238/238
f 239/239/239 22/22/22 21/21/21
f 239/239/239 240/240/240 241/241/241
f 18/18/18 12/12/12 11/11/11
