# f_mace_03 -- imported by tools/import_asset_pack.py from mace_03.fbx
o __pending__
v 0.040925 0.307264 -0.029733
v 0.014867 0.302823 -0.045755
v 0.033243 0.332557 -0.045755
v 0.000000 0.276000 -0.000000
v -0.009188 0.284447 -0.028278
v 0.024055 0.284447 -0.017477
v 0.040925 0.307264 0.029733
v 0.053788 0.332557 0.017477
v 0.033243 0.332557 0.045755
v -0.029733 0.284447 -0.000000
v -0.009777 0.253242 0.005645
v -0.014470 0.256581 -0.008355
v -0.009777 0.253242 -0.005645
v -0.050586 0.307264 -0.000000
v -0.038922 0.302823 0.028278
v -0.053788 0.332557 0.017477
v -0.009188 0.284447 0.028278
v -0.000000 0.253242 0.011289
v 0.014470 0.256581 0.008354
v -0.000000 0.256581 0.016709
v -0.015631 0.307264 0.048110
v 0.014867 0.302823 0.045755
v 0.000000 0.332557 0.056556
v 0.040925 0.307264 0.029733
v 0.024055 0.284447 0.017477
v 0.048110 0.302823 -0.000000
v -0.000000 0.253242 -0.011289
v 0.014470 0.256581 -0.008355
v 0.009777 0.253242 -0.005645
v -0.000000 0.256581 -0.016709
v -0.014470 0.256581 0.008354
v -0.015631 0.307264 -0.048110
v -0.038922 0.302823 -0.028278
v -0.033243 0.332557 -0.045755
v 0.048110 0.302823 -0.000000
v 0.009777 0.253242 0.005645
v 0.009777 -0.304299 -0.005645
v -0.000000 -0.304299 0.011289
v -0.009777 -0.304299 -0.005645
v -0.033243 0.332557 0.045755
v -0.053788 0.332557 -0.017477
v 0.000000 0.332557 -0.056557
v 0.040925 0.307264 -0.029733
v 0.033243 0.332557 -0.045755
v 0.053788 0.332557 -0.017477
v 0.015631 0.357850 0.048110
v 0.038922 0.362291 0.028278
v 0.009188 0.380667 0.028278
v -0.040925 0.357850 0.029733
v -0.014867 0.362291 0.045755
v -0.024055 0.380667 0.017477
v -0.040925 0.357850 -0.029733
v -0.048110 0.362291 -0.000000
v -0.024055 0.380667 -0.017477
v 0.015631 0.357850 -0.048110
v -0.014867 0.362291 -0.045755
v 0.009188 0.380667 -0.028278
v 0.050586 0.357850 -0.000000
v 0.038922 0.362291 -0.028278
v 0.029733 0.380667 -0.000000
v 0.029733 0.380667 -0.000000
v 0.009188 0.380667 -0.028278
v 0.000000 0.389113 -0.000000
v 0.038922 0.362291 -0.028278
v 0.015631 0.357850 -0.048110
v -0.024055 0.380667 -0.017477
v -0.014867 0.362291 -0.045755
v -0.040925 0.357850 -0.029733
v -0.048110 0.362291 -0.000000
v -0.040925 0.357850 0.029733
v -0.024055 0.380667 0.017477
v -0.014867 0.362291 0.045755
v 0.015631 0.357850 0.048110
v 0.009188 0.380667 0.028278
v 0.038922 0.362291 0.028278
v 0.038922 0.362291 -0.028278
v -0.040925 0.357850 -0.029733
v -0.040925 0.357850 0.029733
v -0.033243 0.332557 -0.045755
v -0.038922 0.302823 -0.028278
v -0.009188 0.284447 0.028278
v 0.014867 0.302823 0.045755
v 0.024055 0.284447 -0.017477
v 0.033243 0.332557 0.045755
v 0.040925 0.307264 0.029733
v -0.029733 0.284447 -0.000000
v -0.038922 0.302823 0.028278
v -0.015631 0.307264 0.048110
v -0.033243 0.332557 0.045755
v -0.038922 0.302823 0.028278
v -0.038922 0.302823 -0.028278
v -0.015631 0.307264 -0.048110
v 0.038922 0.362291 0.028278
v 0.014867 0.302823 -0.045755
v 0.040925 0.307264 -0.029733
v -0.009188 0.284447 -0.028278
v 0.000000 0.376481 -0.006857
v 0.000000 0.425819 -0.000000
v 0.005938 0.376481 0.003428
v 0.000000 0.376481 -0.006857
v 0.005938 0.376481 0.003428
v -0.005938 0.376481 0.003428
v 0.005938 0.376481 0.003428
v 0.000000 0.425819 -0.000000
v -0.005938 0.376481 0.003428
v -0.005938 0.376481 0.003428
v 0.000000 0.425819 -0.000000
v 0.000000 0.376481 -0.006857
v -0.007461 0.330173 -0.049331
v -0.000605 0.330173 -0.098669
v 0.002824 0.324235 -0.049331
v -0.007461 0.330173 -0.049331
v 0.002824 0.324235 -0.049331
v 0.002824 0.336111 -0.049331
v 0.002824 0.324235 -0.049331
v -0.000605 0.330173 -0.098669
v 0.002824 0.336111 -0.049331
v 0.002824 0.336111 -0.049331
v -0.000605 0.330173 -0.098669
v -0.007461 0.330173 -0.049331
v -0.007461 0.330173 0.049331
v -0.000605 0.330173 0.098669
v 0.002824 0.336111 0.049331
v -0.007461 0.330173 0.049331
v 0.002824 0.336111 0.049331
v 0.002824 0.324235 0.049331
v 0.002824 0.336111 0.049331
v -0.000605 0.330173 0.098669
v 0.002824 0.324235 0.049331
v 0.002824 0.324235 0.049331
v -0.000605 0.330173 0.098669
v -0.007461 0.330173 0.049331
v -0.049935 0.330173 0.006857
v -0.099273 0.330173 -0.000000
v -0.049935 0.324235 -0.003428
v -0.049935 0.330173 0.006857
v -0.049935 0.324235 -0.003428
v -0.049935 0.336111 -0.003428
v -0.049935 0.324235 -0.003428
v -0.099273 0.330173 -0.000000
v -0.049935 0.336111 -0.003428
v -0.049935 0.336111 -0.003428
v -0.099273 0.330173 -0.000000
v -0.049935 0.330173 0.006857
v 0.048726 0.330173 0.006857
v 0.098064 0.330173 -0.000000
v 0.048726 0.336111 -0.003428
v 0.048726 0.330173 0.006857
v 0.048726 0.336111 -0.003428
v 0.048726 0.324235 -0.003428
v 0.048726 0.336111 -0.003428
v 0.098064 0.330173 -0.000000
v 0.048726 0.324235 -0.003428
v 0.048726 0.324235 -0.003428
v 0.098064 0.330173 -0.000000
v 0.048726 0.330173 0.006857
v -0.030638 0.330173 0.039730
v -0.070374 0.330173 0.069769
v -0.037911 0.324235 0.032458
v -0.030638 0.330173 0.039730
v -0.037911 0.324235 0.032458
v -0.037911 0.336111 0.032458
v -0.037911 0.324235 0.032458
v -0.070374 0.330173 0.069769
v -0.037911 0.336111 0.032458
v -0.037911 0.336111 0.032458
v -0.070374 0.330173 0.069769
v -0.030638 0.330173 0.039730
v 0.039126 0.330173 -0.030034
v 0.069165 0.330173 -0.069770
v 0.031853 0.336111 -0.037306
v 0.039126 0.330173 -0.030034
v 0.031853 0.336111 -0.037306
v 0.031853 0.324235 -0.037306
v 0.031853 0.336111 -0.037306
v 0.069165 0.330173 -0.069770
v 0.031853 0.324235 -0.037306
v 0.031853 0.324235 -0.037306
v 0.069165 0.330173 -0.069770
v 0.039126 0.330173 -0.030034
v 0.039126 0.330173 0.030034
v 0.069165 0.330173 0.069769
v 0.031853 0.324235 0.037306
v 0.039126 0.330173 0.030034
v 0.031853 0.324235 0.037306
v 0.031853 0.336111 0.037306
v 0.031853 0.324235 0.037306
v 0.069165 0.330173 0.069769
v 0.031853 0.336111 0.037306
v 0.031853 0.336111 0.037306
v 0.069165 0.330173 0.069769
v 0.039126 0.330173 0.030034
v -0.030638 0.330173 -0.039730
v -0.070374 0.330173 -0.069770
v -0.037911 0.336111 -0.032458
v -0.030638 0.330173 -0.039730
v -0.037911 0.336111 -0.032458
v -0.037911 0.324235 -0.032458
v -0.037911 0.336111 -0.032458
v -0.070374 0.330173 -0.069770
v -0.037911 0.324235 -0.032458
v -0.037911 0.324235 -0.032458
v -0.070374 0.330173 -0.069770
v -0.030638 0.330173 -0.039730
v -0.028698 0.302079 0.030034
v -0.049939 0.280838 0.069769
v -0.027755 0.311421 0.037306
v -0.028698 0.302079 0.030034
v -0.027755 0.311421 0.037306
v -0.019357 0.303023 0.037306
v -0.027755 0.311421 0.037306
v -0.049939 0.280838 0.069769
v -0.019357 0.303023 0.037306
v -0.019357 0.303023 0.037306
v -0.049939 0.280838 0.069769
v -0.028698 0.302079 0.030034
v 0.020632 0.351410 -0.039730
v 0.048730 0.379507 -0.069770
v 0.029974 0.352354 -0.032458
v 0.020632 0.351410 -0.039730
v 0.029974 0.352354 -0.032458
v 0.021576 0.360751 -0.032458
v 0.048730 0.379507 -0.069770
v 0.021576 0.360751 -0.032458
v 0.048730 0.379507 -0.069770
v 0.020632 0.351410 -0.039730
v -0.022785 0.360751 -0.032458
v -0.049939 0.379507 -0.069770
v -0.031183 0.352354 -0.032458
v -0.031183 0.352354 -0.032458
v -0.049939 0.379507 -0.069770
v -0.021842 0.351410 -0.039730
v -0.021842 0.351410 -0.039730
v -0.049939 0.379507 -0.069770
v -0.022785 0.360751 -0.032458
v -0.021842 0.351410 -0.039730
v 0.018148 0.303023 0.037306
v 0.048730 0.280838 0.069769
v 0.026545 0.311420 0.037306
v 0.026545 0.311420 0.037306
v 0.048730 0.280838 0.069769
v 0.027489 0.302079 0.030034
v 0.027489 0.302079 0.030034
v 0.048730 0.280838 0.069769
v 0.018148 0.303023 0.037306
v 0.027489 0.302079 0.030034
v 0.018148 0.303023 0.037306
v 0.026545 0.311420 0.037306
v 0.026545 0.311421 -0.037306
v 0.048730 0.280838 -0.069770
v 0.018148 0.303023 -0.037306
v 0.018148 0.303023 -0.037306
v 0.048730 0.280838 -0.069770
v 0.027489 0.302079 -0.030034
v 0.027489 0.302079 -0.030034
v 0.048730 0.280838 -0.069770
v 0.026545 0.311421 -0.037306
v 0.027489 0.302079 -0.030034
v 0.026545 0.311421 -0.037306
v 0.018148 0.303023 -0.037306
v -0.031183 0.352354 0.032458
v -0.049939 0.379507 0.069769
v -0.022785 0.360751 0.032458
v -0.022785 0.360751 0.032458
v -0.049939 0.379507 0.069769
v -0.021842 0.351410 0.039730
v -0.021842 0.351410 0.039730
v -0.049939 0.379507 0.069769
v -0.031183 0.352354 0.032458
v -0.021842 0.351410 0.039730
v 0.038476 0.299490 -0.003428
v 0.069165 0.260403 -0.000000
v 0.030079 0.291092 -0.003428
v 0.030079 0.291092 -0.003428
v 0.069165 0.260403 -0.000000
v 0.034277 0.295291 0.006857
v 0.034277 0.295291 0.006857
v 0.069165 0.260403 -0.000000
v 0.038476 0.299490 -0.003428
v 0.034277 0.295291 0.006857
v 0.038476 0.299490 -0.003428
v 0.030079 0.291092 -0.003428
v -0.039685 0.360856 -0.003428
v -0.070374 0.399942 -0.000000
v -0.031288 0.369254 -0.003428
v -0.031288 0.369254 -0.003428
v -0.070374 0.399942 -0.000000
v -0.035487 0.365055 0.006857
v -0.035487 0.365055 0.006857
v -0.070374 0.399942 -0.000000
v -0.039685 0.360856 -0.003428
v -0.035487 0.365055 0.006857
v -0.039685 0.360856 -0.003428
v -0.031288 0.369254 -0.003428
v -0.019357 0.303023 -0.037306
v -0.049939 0.280838 -0.069770
v -0.027755 0.311421 -0.037306
v -0.027755 0.311421 -0.037306
v -0.049939 0.280838 -0.069770
v -0.028698 0.302079 -0.030034
v -0.028698 0.302079 -0.030034
v -0.049939 0.280838 -0.069770
v -0.019357 0.303023 -0.037306
v -0.028698 0.302079 -0.030034
v -0.019357 0.303023 -0.037306
v -0.027755 0.311421 -0.037306
v 0.021576 0.360751 0.032458
v 0.048730 0.379507 0.069769
v 0.029974 0.352354 0.032458
v 0.029974 0.352354 0.032458
v 0.048730 0.379507 0.069769
v 0.020632 0.351410 0.039730
v 0.020632 0.351410 0.039730
v 0.048730 0.379507 0.069769
v 0.021576 0.360751 0.032458
v 0.020632 0.351410 0.039730
v -0.031288 0.291092 -0.003428
v -0.070374 0.260403 -0.000000
v -0.039685 0.299490 -0.003428
v -0.039685 0.299490 -0.003428
v -0.070374 0.260403 -0.000000
v -0.035487 0.295291 0.006857
v -0.035487 0.295291 0.006857
v -0.070374 0.260403 -0.000000
v -0.031288 0.291092 -0.003428
v -0.035487 0.295291 0.006857
v -0.031288 0.291092 -0.003428
v -0.039685 0.299490 -0.003428
v 0.030079 0.369254 -0.003428
v 0.069165 0.399942 -0.000000
v 0.038476 0.360856 -0.003428
v 0.038476 0.360856 -0.003428
v 0.069165 0.399942 -0.000000
v 0.034277 0.365055 0.006857
v 0.034277 0.365055 0.006857
v 0.069165 0.399942 -0.000000
v 0.030079 0.369254 -0.003428
v 0.034277 0.365055 0.006857
v 0.030079 0.369254 -0.003428
v 0.038476 0.360856 -0.003428
v -0.009777 0.253242 -0.005645
v -0.000000 0.177016 -0.011289
v -0.009777 0.177016 -0.005645
v -0.009777 0.253242 0.005645
v -0.009777 0.177016 -0.005645
v -0.009777 0.177016 0.005645
v -0.000000 0.253242 0.011289
v -0.009777 0.177016 0.005645
v -0.000000 0.177016 0.011289
v 0.009777 0.253242 0.005645
v 0.009777 0.177016 0.005645
v 0.009777 0.253242 -0.005645
v 0.009777 0.177016 0.005645
v 0.009777 0.177016 -0.005645
v 0.009777 0.253242 -0.005645
v 0.009777 0.177016 -0.005645
v -0.000000 0.256581 -0.016709
v 0.012789 0.306855 -0.007384
v 0.014470 0.256581 -0.008355
v 0.012789 0.306855 -0.007384
v 0.014470 0.256581 0.008354
v 0.014470 0.256581 -0.008355
v 0.014470 0.256581 0.008354
v -0.000000 0.306855 0.014768
v -0.000000 0.256581 0.016709
v -0.014470 0.256581 0.008354
v -0.012789 0.306855 0.007384
v -0.000000 0.306855 0.014768
v 0.012789 0.306855 0.007384
v -0.012789 0.306855 0.007384
v -0.014470 0.256581 -0.008355
v -0.014470 0.256581 0.008354
v -0.014470 0.256581 -0.008355
v -0.000000 0.306855 -0.014768
v -0.000000 -0.211375 -0.011289
v 0.009777 -0.304299 -0.005645
v -0.000000 -0.304299 -0.011289
v 0.009777 -0.118452 -0.005645
v 0.009777 -0.211375 -0.005645
v -0.000000 -0.118452 -0.011289
v 0.009777 -0.025528 -0.005645
v -0.000000 -0.025528 -0.011289
v 0.009777 0.067395 -0.005645
v -0.000000 0.067395 -0.011289
v 0.009777 0.160318 -0.005645
v 0.009777 -0.211375 -0.005645
v 0.009777 -0.304299 0.005645
v 0.009777 -0.304299 -0.005645
v 0.009777 -0.118452 -0.005645
v 0.009777 -0.211375 0.005645
v 0.009777 -0.025528 -0.005645
v 0.009777 -0.118452 0.005645
v 0.009777 0.067395 -0.005645
v 0.009777 -0.025528 0.005645
v 0.009777 0.160318 -0.005645
v 0.009777 0.067395 0.005645
v 0.009777 -0.211375 0.005645
v -0.000000 -0.304299 0.011289
v 0.009777 -0.304299 0.005645
v 0.009777 -0.118452 0.005645
v -0.000000 -0.211375 0.011289
v 0.009777 -0.025528 0.005645
v -0.000000 -0.118452 0.011289
v 0.009777 0.067395 0.005645
v -0.000000 -0.025528 0.011289
v 0.009777 0.160318 0.005645
v -0.000000 0.067395 0.011289
v -0.009777 -0.304299 0.005645
v -0.009777 -0.211375 0.005645
v -0.009777 -0.118452 0.005645
v -0.009777 -0.025528 0.005645
v -0.000000 0.160318 0.011289
v -0.009777 0.067395 0.005645
v -0.009777 -0.211375 0.005645
v -0.009777 -0.304299 -0.005645
v -0.009777 -0.304299 0.005645
v -0.009777 -0.118452 0.005645
v -0.009777 -0.211375 -0.005645
v -0.009777 -0.025528 0.005645
v -0.009777 -0.118452 -0.005645
v -0.009777 0.067395 0.005645
v -0.009777 -0.025528 -0.005645
v -0.009777 0.160318 0.005645
v -0.009777 0.067395 -0.005645
v -0.009777 -0.211375 -0.005645
v -0.009777 -0.304299 -0.005645
v -0.009777 -0.118452 -0.005645
v -0.009777 -0.025528 -0.005645
v -0.009777 0.067395 -0.005645
v -0.009777 0.160318 -0.005645
v -0.009777 0.177016 0.005645
v -0.000000 0.174713 0.015385
v -0.000000 0.177016 0.011289
v -0.000000 0.160318 -0.011289
v 0.013324 0.162621 -0.007692
v 0.009777 0.160318 -0.005645
v 0.009777 0.177016 0.005645
v 0.013324 0.174713 0.007692
v 0.009777 0.160318 0.005645
v -0.000000 0.162621 0.015385
v -0.000000 0.160318 0.011289
v -0.009777 0.160318 0.005645
v -0.013324 0.162621 -0.007692
v -0.009777 0.160318 -0.005645
v -0.009777 0.177016 -0.005645
v -0.000000 0.174713 -0.015385
v -0.013324 0.174713 -0.007692
v -0.000000 0.162621 -0.015385
v 0.013324 0.174713 -0.007692
v 0.013324 0.162621 -0.007692
v 0.013324 0.174713 -0.007692
v 0.013324 0.162621 0.007692
v 0.013324 0.162621 -0.007692
v 0.013324 0.174713 0.007692
v -0.000000 0.162621 0.015385
v 0.013324 0.162621 0.007692
v -0.000000 0.174713 0.015385
v -0.013324 0.162621 0.007692
v -0.013324 0.174713 0.007692
v -0.013324 0.162621 -0.007692
v -0.013324 0.162621 0.007692
v -0.013324 0.174713 -0.007692
v -0.013324 0.162621 -0.007692
v -0.000000 0.162621 -0.015385
v 0.009777 0.177016 -0.005645
v -0.000000 0.177016 -0.011289
v -0.013324 0.162621 0.007692
v 0.013324 0.162621 0.007692
v -0.013324 0.174713 0.007692
v 0.013324 0.174713 -0.007692
v 0.012585 -0.314567 -0.009144
v 0.004572 -0.315932 -0.014071
v 0.010223 -0.306788 -0.014071
v 0.000000 -0.324181 0.000000
v -0.002826 -0.321583 -0.008696
v 0.007397 -0.321583 -0.005374
v 0.012585 -0.314567 0.009144
v 0.016541 -0.306788 0.005375
v 0.010223 -0.306788 0.014071
v -0.009144 -0.321583 0.000000
v -0.015556 -0.314567 0.000000
v -0.011969 -0.315932 0.008696
v -0.016541 -0.306788 0.005375
v -0.002826 -0.321583 0.008696
v -0.004807 -0.314567 0.014795
v 0.004572 -0.315932 0.014071
v 0.000000 -0.306788 0.017393
v 0.012585 -0.314567 0.009144
v 0.007397 -0.321583 0.005375
v 0.014795 -0.315932 0.000000
v -0.004807 -0.314567 -0.014795
v -0.011969 -0.315932 -0.008696
v -0.010223 -0.306788 -0.014071
v 0.014795 -0.315932 0.000000
v -0.010223 -0.306788 0.014071
v -0.016541 -0.306788 -0.005375
v 0.000000 -0.306788 -0.017393
v 0.012585 -0.314567 -0.009144
v 0.010223 -0.306788 -0.014071
v 0.016541 -0.306788 -0.005375
v 0.004807 -0.299010 0.014795
v 0.011969 -0.297644 0.008696
v 0.002826 -0.291993 0.008696
v -0.012585 -0.299010 0.009144
v -0.004572 -0.297644 0.014071
v -0.007397 -0.291993 0.005375
v -0.012585 -0.299010 -0.009144
v -0.014795 -0.297644 0.000000
v -0.007397 -0.291993 -0.005374
v 0.004807 -0.299010 -0.014795
v -0.004572 -0.297644 -0.014071
v 0.002826 -0.291993 -0.008696
v 0.015556 -0.299010 0.000000
v 0.011969 -0.297644 -0.008696
v 0.009144 -0.291993 0.000000
v 0.009144 -0.291993 0.000000
v 0.002826 -0.291993 -0.008696
v 0.000000 -0.289396 0.000000
v 0.011969 -0.297644 -0.008696
v 0.004807 -0.299010 -0.014795
v -0.007397 -0.291993 -0.005374
v -0.004572 -0.297644 -0.014071
v -0.012585 -0.299010 -0.009144
v -0.014795 -0.297644 0.000000
v -0.012585 -0.299010 0.009144
v -0.007397 -0.291993 0.005375
v -0.004572 -0.297644 0.014071
v 0.004807 -0.299010 0.014795
v 0.002826 -0.291993 0.008696
v 0.011969 -0.297644 0.008696
v 0.011969 -0.297644 -0.008696
v -0.012585 -0.299010 -0.009144
v -0.012585 -0.299010 0.009144
v -0.010223 -0.306788 -0.014071
v -0.011969 -0.315932 -0.008696
v -0.002826 -0.321583 0.008696
v 0.004572 -0.315932 0.014071
v 0.007397 -0.321583 -0.005374
v 0.010223 -0.306788 0.014071
v 0.012585 -0.314567 0.009144
v -0.009144 -0.321583 0.000000
v -0.011969 -0.315932 0.008696
v -0.004807 -0.314567 0.014795
v -0.010223 -0.306788 0.014071
v -0.011969 -0.315932 0.008696
v -0.011969 -0.315932 -0.008696
v -0.004807 -0.314567 -0.014795
v 0.011969 -0.297644 0.008696
v 0.004572 -0.315932 -0.014071
v 0.012585 -0.314567 -0.009144
v -0.002826 -0.321583 -0.008696
v -0.000000 -0.304299 -0.011289
v 0.009777 -0.304299 0.005645
v -0.009777 -0.304299 0.005645
v -0.000000 0.253242 -0.011289
v -0.009777 0.253242 -0.005645
v -0.009777 0.253242 0.005645
v 0.009777 0.253242 0.005645
v 0.012789 0.306855 0.007384
v 0.012789 0.306855 0.007384
v -0.012789 0.306855 0.007384
v 0.012789 0.306855 -0.007384
v -0.000000 0.306855 -0.014768
v -0.012789 0.306855 -0.007384
v -0.012789 0.306855 -0.007384
v -0.012789 0.306855 -0.007384
v -0.000000 0.160318 -0.011289
v 0.009777 0.160318 0.005645
v -0.009777 0.160318 0.005645
v -0.009777 0.160318 -0.005645
v -0.000000 0.174713 -0.015385
v 0.013324 0.174713 0.007692
v -0.013324 0.174713 0.007692
v -0.013324 0.174713 -0.007692
vt 0.557049 0.618004
vt 0.501385 0.610520
vt 0.542694 0.672221
vt 0.292445 0.888913
vt 0.311685 0.829557
vt 0.241076 0.852447
vt 0.356518 0.502651
vt 0.297910 0.507510
vt 0.326885 0.559125
vt 0.355325 0.889612
vt 0.691467 0.191368
vt 0.721901 0.185177
vt 0.712219 0.179382
vt 0.498248 0.404884
vt 0.451219 0.367453
vt 0.439023 0.432068
vt 0.311685 0.949617
vt 0.670714 0.179373
vt 0.660471 0.149670
vt 0.660471 0.185165
vt 0.507281 0.839398
vt 0.442879 0.827639
vt 0.472146 0.891794
vt 0.204501 0.954437
vt 0.241076 0.926647
vt 0.189385 0.890961
vt 0.712219 0.155400
vt 0.691186 0.131930
vt 0.691467 0.143405
vt 0.721901 0.149683
vt 0.691186 0.202918
vt 0.436983 0.622293
vt 0.387201 0.614754
vt 0.401551 0.677359
vt 0.333200 0.443470
vt 0.670714 0.155392
vt 0.897488 0.512515
vt 0.876736 0.548483
vt 0.918241 0.548491
vt 0.542713 0.894478
vt 0.503039 0.469651
vt 0.472120 0.674743
vt 0.292634 0.393701
vt 0.228576 0.391467
vt 0.260360 0.443471
vt 0.238677 0.572094
vt 0.189385 0.614641
vt 0.253257 0.616327
vt 0.358798 0.610993
vt 0.303628 0.577458
vt 0.323863 0.639191
vt 0.498246 0.530320
vt 0.439022 0.505797
vt 0.451217 0.560478
vt 0.507261 0.727266
vt 0.442859 0.739061
vt 0.495348 0.776289
vt 0.232596 0.502652
vt 0.193287 0.455508
vt 0.189384 0.526986
vt 0.209620 0.676374
vt 0.253257 0.736349
vt 0.273103 0.677121
vt 0.189385 0.734663
vt 0.238677 0.776289
vt 0.323863 0.713369
vt 0.303628 0.771658
vt 0.358798 0.737192
vt 0.374233 0.674500
vt 0.389335 0.466379
vt 0.387201 0.522895
vt 0.501404 0.956179
vt 0.437004 0.944370
vt 0.448912 0.993516
vt 0.254045 0.559126
vt 0.557049 0.734981
vt 0.387201 0.731718
vt 0.557059 0.948937
vt 0.554800 0.501994
vt 0.554801 0.428264
vt 0.495358 0.790674
vt 0.259994 0.988131
vt 0.346433 0.391467
vt 0.401570 0.889340
vt 0.387212 0.835223
vt 0.522773 0.365103
vt 0.374243 0.951096
vt 0.324629 0.993516
vt 0.387201 0.403598
vt 0.557059 0.831983
vt 0.374243 0.831036
vt 0.324629 0.789257
vt 0.387211 0.952208
vt 0.259994 0.793871
vt 0.204501 0.828200
vt 0.448902 0.573446
vt 0.567769 0.279734
vt 0.567769 0.385524
vt 0.589699 0.282469
vt 0.622274 0.177820
vt 0.622274 0.203028
vt 0.644122 0.190420
vt 0.745282 0.671445
vt 0.757896 0.776289
vt 0.770510 0.671445
vt 0.530226 0.247106
vt 0.540009 0.352134
vt 0.552350 0.247106
vt 0.787863 0.560477
vt 0.770987 0.456079
vt 0.766205 0.560477
vt 0.591875 0.806047
vt 0.570027 0.793433
vt 0.570027 0.818661
vt 0.698020 0.773311
vt 0.672977 0.670615
vt 0.672977 0.776289
vt 0.766460 0.336237
vt 0.766460 0.440613
vt 0.788062 0.337118
vt 0.749030 0.993516
vt 0.749030 0.887815
vt 0.727545 0.991112
vt 0.570017 0.588756
vt 0.591865 0.601370
vt 0.591865 0.576142
vt 0.412246 0.352134
vt 0.412246 0.246764
vt 0.387201 0.349174
vt 0.731835 0.335588
vt 0.741247 0.440613
vt 0.753492 0.335588
vt 0.784298 0.993516
vt 0.768894 0.888849
vt 0.761998 0.993516
vt 0.626680 0.818661
vt 0.626680 0.793433
vt 0.604843 0.806050
vt 0.622274 0.215997
vt 0.634904 0.320806
vt 0.647502 0.215997
vt 0.696721 0.338120
vt 0.718867 0.440613
vt 0.718867 0.334828
vt 0.482064 0.350254
vt 0.459754 0.246825
vt 0.459754 0.352134
vt 0.735236 0.204842
vt 0.757063 0.192228
vt 0.735236 0.179614
vt 0.731835 0.217810
vt 0.744434 0.322619
vt 0.757063 0.217810
vt 0.495032 0.246863
vt 0.495032 0.352134
vt 0.517258 0.248684
vt 0.660471 0.215886
vt 0.674176 0.320806
vt 0.682771 0.215886
vt 0.897332 0.407652
vt 0.897332 0.387709
vt 0.877406 0.403168
vt 0.649297 0.651773
vt 0.624523 0.574267
vt 0.624523 0.656436
vt 0.714577 0.990650
vt 0.692372 0.887707
vt 0.692372 0.993516
vt 0.695739 0.217407
vt 0.718080 0.320806
vt 0.718080 0.215948
vt 0.770031 0.121309
vt 0.789620 0.117310
vt 0.770031 0.101413
vt 0.838847 0.484163
vt 0.863768 0.560477
vt 0.863768 0.480241
vt 0.718784 0.557230
vt 0.696721 0.454683
vt 0.696721 0.560477
vt 0.425214 0.248621
vt 0.446785 0.352134
vt 0.446785 0.246688
vt 0.879592 0.700581
vt 0.875027 0.680526
vt 0.859752 0.700581
vt 0.871278 0.221298
vt 0.859010 0.142037
vt 0.846050 0.221298
vt 0.753237 0.558074
vt 0.731752 0.454776
vt 0.731752 0.560478
vt 0.710988 0.670564
vt 0.710988 0.776289
vt 0.732314 0.674115
vt 0.877406 0.440613
vt 0.896899 0.436633
vt 0.877406 0.420620
vt 0.794764 0.213507
vt 0.794764 0.134277
vt 0.770031 0.208628
vt 0.286795 0.375043
vt 0.265415 0.272745
vt 0.265415 0.378499
vt 0.795210 0.322619
vt 0.779977 0.226475
vt 0.770031 0.322619
vt 0.466592 0.221220
vt 0.482064 0.233856
vt 0.482064 0.208629
vt 0.864438 0.440613
vt 0.851580 0.361108
vt 0.839210 0.440613
vt 0.567769 0.176151
vt 0.592663 0.266766
vt 0.592663 0.172218
vt 0.846426 0.662850
vt 0.821615 0.580084
vt 0.821615 0.667275
vt 0.402474 0.150549
vt 0.387201 0.163363
vt 0.412003 0.167982
vt 0.387201 0.233796
vt 0.299763 0.170613
vt 0.315801 0.259975
vt 0.324942 0.170613
vt 0.495032 0.168081
vt 0.519833 0.233895
vt 0.519833 0.163462
vt 0.770450 0.658477
vt 0.753587 0.573800
vt 0.745282 0.658477
vt 0.189385 0.171117
vt 0.197946 0.259954
vt 0.214548 0.171117
vt 0.504560 0.150648
vt 0.833082 0.217270
vt 0.808178 0.140760
vt 0.808178 0.221298
vt 0.822430 0.993516
vt 0.812949 0.897775
vt 0.797267 0.993516
vt 0.783478 0.574811
vt 0.799494 0.667275
vt 0.808646 0.574811
vt 0.877406 0.354793
vt 0.877406 0.374741
vt 0.896973 0.358817
vt 0.871190 0.322619
vt 0.858474 0.243257
vt 0.845962 0.322619
vt 0.822253 0.884807
vt 0.822253 0.789289
vt 0.797267 0.882848
vt 0.825878 0.557709
vt 0.800831 0.465589
vt 0.800831 0.560478
vt 0.808178 0.107771
vt 0.808178 0.127792
vt 0.827713 0.111829
vt 0.425214 0.163478
vt 0.425214 0.233720
vt 0.450025 0.168051
vt 0.808178 0.234266
vt 0.808178 0.322619
vt 0.832994 0.238650
vt 0.261790 0.171400
vt 0.261790 0.259777
vt 0.286795 0.173106
vt 0.440438 0.150598
vt 0.362826 0.378499
vt 0.362826 0.272945
vt 0.337778 0.375487
vt 0.707562 0.573484
vt 0.707562 0.655647
vt 0.729151 0.583823
vt 0.713049 0.863918
vt 0.692372 0.789641
vt 0.692372 0.874739
vt 0.465140 0.171764
vt 0.465140 0.195660
vt 0.482064 0.188142
vt 0.189385 0.272922
vt 0.189385 0.378499
vt 0.214431 0.275938
vt 0.643916 0.789339
vt 0.643916 0.873676
vt 0.665655 0.799251
vt 0.532801 0.164518
vt 0.553325 0.233895
vt 0.553325 0.152967
vt 0.881278 0.811756
vt 0.891121 0.789937
vt 0.873000 0.789937
vt 0.860308 0.989525
vt 0.835398 0.913141
vt 0.835398 0.993516
vt 0.826242 0.440613
vt 0.815262 0.345992
vt 0.801030 0.440613
vt 0.808604 0.776289
vt 0.792209 0.680243
vt 0.783478 0.776289
vt 0.754772 0.110137
vt 0.735236 0.114196
vt 0.754772 0.130159
vt 0.835221 0.819138
vt 0.860032 0.884807
vt 0.860032 0.814566
vt 0.338173 0.169034
vt 0.338173 0.259977
vt 0.362826 0.173883
vt 0.821572 0.688892
vt 0.832101 0.776289
vt 0.846784 0.688892
vt 0.844808 0.801685
vt 0.324810 0.378499
vt 0.324810 0.272943
vt 0.299763 0.375481
vt 0.782668 0.875881
vt 0.782668 0.789959
vt 0.761998 0.865181
vt 0.694594 0.647586
vt 0.672977 0.573484
vt 0.672977 0.657647
vt 0.752222 0.166646
vt 0.752222 0.143127
vt 0.735236 0.149915
vt 0.227400 0.272924
vt 0.227400 0.378499
vt 0.252447 0.275936
vt 0.227516 0.178157
vt 0.227516 0.259954
vt 0.248098 0.189537
vt 0.747725 0.864502
vt 0.726017 0.792813
vt 0.726017 0.874739
vt 0.889789 0.923941
vt 0.889789 0.900718
vt 0.873276 0.906740
vt 0.570017 0.776289
vt 0.590786 0.614338
vt 0.570017 0.614363
vt 0.606972 0.993516
vt 0.630948 0.831689
vt 0.606972 0.831710
vt 0.588538 0.560417
vt 0.609306 0.398552
vt 0.588538 0.398492
vt 0.567769 0.560477
vt 0.567769 0.398552
vt 0.570027 0.993504
vt 0.594004 0.831642
vt 0.570027 0.831629
vt 0.611555 0.776289
vt 0.611555 0.614363
vt 0.653014 0.333774
vt 0.680182 0.440613
vt 0.683753 0.333811
vt 0.645906 0.993500
vt 0.679404 0.886662
vt 0.643916 0.886644
vt 0.622275 0.453670
vt 0.653014 0.560399
vt 0.653014 0.453581
vt 0.683753 0.453670
vt 0.886889 0.713549
vt 0.859752 0.729242
vt 0.859752 0.760612
vt 0.626662 0.776289
vt 0.660009 0.669405
vt 0.624523 0.669435
vt 0.622275 0.333811
vt 0.653014 0.440580
vt 0.081759 0.203906
vt 0.102527 0.006534
vt 0.081759 0.006509
vt 0.102527 0.401327
vt 0.102527 0.203930
vt 0.081759 0.401302
vt 0.102527 0.598723
vt 0.081759 0.598698
vt 0.102527 0.796120
vt 0.081759 0.796095
vt 0.102527 0.993516
vt 0.115495 0.204173
vt 0.139472 0.006853
vt 0.115495 0.006841
vt 0.115495 0.401506
vt 0.139472 0.204186
vt 0.115495 0.598838
vt 0.139472 0.401518
vt 0.115495 0.796171
vt 0.139472 0.598851
vt 0.115495 0.993504
vt 0.139472 0.796183
vt 0.006484 0.203939
vt 0.027253 0.006484
vt 0.006484 0.006544
vt 0.006484 0.401333
vt 0.027253 0.203878
vt 0.006484 0.598727
vt 0.027253 0.401273
vt 0.006484 0.796122
vt 0.027253 0.598667
vt 0.006484 0.993516
vt 0.027253 0.796061
vt 0.048022 0.006544
vt 0.048022 0.203939
vt 0.048022 0.401333
vt 0.048022 0.598727
vt 0.027253 0.993456
vt 0.048022 0.796122
vt 0.152440 0.204517
vt 0.176416 0.007247
vt 0.152440 0.007268
vt 0.152440 0.401767
vt 0.176416 0.204497
vt 0.152440 0.599017
vt 0.176416 0.401747
vt 0.152440 0.796266
vt 0.176416 0.598996
vt 0.152440 0.993516
vt 0.176416 0.796246
vt 0.060990 0.203930
vt 0.060990 0.006534
vt 0.060990 0.401327
vt 0.060990 0.598723
vt 0.060990 0.796120
vt 0.060990 0.993516
vt 0.279352 0.114004
vt 0.258497 0.093133
vt 0.258587 0.102042
vt 0.616996 0.114556
vt 0.596050 0.093887
vt 0.596244 0.102561
vt 0.237822 0.114038
vt 0.230198 0.109481
vt 0.575492 0.114548
vt 0.567769 0.142903
vt 0.575492 0.138529
vt 0.596244 0.150524
vt 0.624331 0.142915
vt 0.616996 0.138538
vt 0.279352 0.137962
vt 0.258497 0.158432
vt 0.286795 0.142084
vt 0.873276 0.965212
vt 0.898998 0.936909
vt 0.873310 0.936909
vt 0.386322 0.104906
vt 0.411986 0.137581
vt 0.412002 0.104906
vt 0.189385 0.101542
vt 0.215155 0.129845
vt 0.215073 0.101542
vt 0.189467 0.129845
vt 0.215073 0.158148
vt 0.902433 0.499547
vt 0.876736 0.466872
vt 0.876764 0.499547
vt 0.898998 0.993516
vt 0.873310 0.993516
vt 0.624331 0.110234
vt 0.237822 0.137996
vt 0.258587 0.149958
vt 0.596050 0.159250
vt 0.567769 0.110222
vt 0.286795 0.109434
vt 0.230198 0.142130
vt 0.547265 0.089003
vt 0.530147 0.086701
vt 0.542850 0.105676
vt 0.337671 0.123897
vt 0.343588 0.105644
vt 0.321874 0.112683
vt 0.897448 0.111701
vt 0.879425 0.113195
vt 0.888335 0.129069
vt 0.357008 0.124112
vt 0.907149 0.836958
vt 0.892687 0.825447
vt 0.888936 0.845318
vt 0.343588 0.142565
vt 0.462139 0.090235
vt 0.442334 0.086618
vt 0.451334 0.106348
vt 0.310626 0.144048
vt 0.321874 0.135501
vt 0.305977 0.124527
vt 0.510341 0.090322
vt 0.495032 0.088003
vt 0.499445 0.107256
vt 0.890278 0.093502
vt 0.473036 0.107173
vt 0.908623 0.856876
vt 0.521147 0.106452
vt 0.877802 0.078196
vt 0.858103 0.077509
vt 0.867877 0.093502
vt 0.874553 0.604480
vt 0.859394 0.617564
vt 0.879036 0.618083
vt 0.911493 0.616442
vt 0.894527 0.606129
vt 0.900749 0.625114
vt 0.907149 0.875533
vt 0.888936 0.867992
vt 0.892686 0.884807
vt 0.531953 0.122604
vt 0.512148 0.126231
vt 0.528290 0.137680
vt 0.859339 0.111702
vt 0.847250 0.097203
vt 0.846050 0.119185
vt 0.865617 0.636549
vt 0.879036 0.654993
vt 0.885140 0.636778
vt 0.859394 0.654474
vt 0.874553 0.667275
vt 0.900749 0.647925
vt 0.894527 0.665851
vt 0.911493 0.655252
vt 0.916240 0.635972
vt 0.873656 0.855870
vt 0.873000 0.873250
vt 0.460332 0.126148
vt 0.440527 0.122516
vt 0.444189 0.137630
vt 0.865935 0.129069
vt 0.547265 0.124977
vt 0.495032 0.123973
vt 0.477447 0.123921
vt 0.924541 0.866822
vt 0.924541 0.844148
vt 0.458473 0.075251
vt 0.327691 0.154409
vt 0.894347 0.077509
vt 0.429630 0.105593
vt 0.425215 0.088951
vt 0.914692 0.824724
vt 0.362826 0.143020
vt 0.347568 0.156065
vt 0.873000 0.836563
vt 0.477447 0.087954
vt 0.362826 0.106098
vt 0.347568 0.093250
vt 0.425214 0.124926
vt 0.327691 0.094669
vt 0.310626 0.105226
vt 0.514007 0.075300
vt 0.918241 0.524510
vt 0.876736 0.524501
vt 0.897488 0.560478
vt 0.590786 0.776264
vt 0.630948 0.993496
vt 0.609306 0.560477
vt 0.594004 0.993516
vt 0.677270 0.993516
vt 0.625846 0.560477
vt 0.680182 0.560477
vt 0.886889 0.776289
vt 0.914026 0.760596
vt 0.914026 0.729226
vt 0.658026 0.776263
vt 0.625846 0.440613
vt 0.081759 0.993491
vt 0.139472 0.993516
vt 0.048022 0.993516
vt 0.176416 0.993496
vt 0.898965 0.965212
vt 0.386306 0.137581
vt 0.189385 0.158148
vt 0.902405 0.466872
vn 0.723608 -0.447217 -0.525727
vn 0.262869 -0.525735 -0.809013
vn 0.587786 0.000000 -0.809016
vn -0.000001 -1.000000 0.000000
vn -0.162457 -0.850654 -0.499996
vn 0.425324 -0.850653 -0.309013
vn 0.723608 -0.447217 0.525727
vn 0.951057 -0.000000 0.309015
vn 0.587786 0.000000 0.809016
vn -0.525730 -0.850651 0.000000
vn -0.712345 -0.568694 0.411280
vn -0.788194 -0.414333 -0.455059
vn -0.712353 -0.568693 -0.411269
vn -0.894426 -0.447215 0.000000
vn -0.688189 -0.525734 0.499999
vn -0.951057 0.000001 0.309015
vn -0.162457 -0.850653 0.499997
vn -0.000000 -0.568688 0.822553
vn 0.788189 -0.414340 0.455061
vn -0.000001 -0.414311 0.910135
vn -0.276389 -0.447218 0.850650
vn 0.262869 -0.525735 0.809013
vn -0.000000 0.000000 1.000000
vn 0.723608 -0.447217 0.525727
vn 0.425324 -0.850653 0.309013
vn 0.850649 -0.525734 0.000000
vn -0.000005 -0.568694 -0.822549
vn 0.788196 -0.414318 -0.455069
vn 0.712345 -0.568695 -0.411279
vn -0.000016 -0.414326 -0.910128
vn -0.788199 -0.414326 0.455057
vn -0.276389 -0.447218 -0.850650
vn -0.688189 -0.525734 -0.499999
vn -0.587786 -0.000000 -0.809017
vn 0.850649 -0.525734 0.000000
vn 0.712345 -0.568700 0.411272
vn 0.686246 -0.609990 -0.396205
vn 0.000001 -0.609990 0.792409
vn -0.686247 -0.609990 -0.396203
vn -0.587786 0.000000 0.809017
vn -0.951057 0.000000 -0.309015
vn -0.000000 -0.000000 -1.000000
vn 0.723608 -0.447217 -0.525727
vn 0.587786 0.000000 -0.809016
vn 0.951057 -0.000000 -0.309015
vn 0.276389 0.447219 0.850649
vn 0.688189 0.525735 0.499999
vn 0.162457 0.850654 0.499996
vn -0.723608 0.447217 0.525727
vn -0.262869 0.525736 0.809013
vn -0.425324 0.850653 0.309013
vn -0.723608 0.447217 -0.525727
vn -0.850649 0.525734 -0.000000
vn -0.425324 0.850653 -0.309013
vn 0.276389 0.447218 -0.850650
vn -0.262869 0.525735 -0.809013
vn 0.162457 0.850653 -0.499997
vn 0.894427 0.447215 -0.000000
vn 0.688189 0.525735 -0.499999
vn 0.525730 0.850652 -0.000000
vn 0.525730 0.850652 -0.000000
vn 0.162457 0.850653 -0.499997
vn 0.000002 1.000000 -0.000000
vn 0.688189 0.525735 -0.499999
vn 0.276389 0.447218 -0.850650
vn -0.425324 0.850653 -0.309013
vn -0.262869 0.525735 -0.809013
vn -0.723608 0.447217 -0.525727
vn -0.850649 0.525734 -0.000000
vn -0.723608 0.447217 0.525727
vn -0.425324 0.850653 0.309013
vn -0.262869 0.525736 0.809013
vn 0.276389 0.447219 0.850649
vn 0.162457 0.850654 0.499996
vn 0.688189 0.525735 0.499999
vn 0.688189 0.525735 -0.499999
vn -0.723608 0.447217 -0.525727
vn -0.723608 0.447217 0.525727
vn -0.587786 -0.000000 -0.809017
vn -0.688189 -0.525734 -0.499999
vn -0.162457 -0.850653 0.499997
vn 0.262869 -0.525735 0.809013
vn 0.425324 -0.850653 -0.309013
vn 0.587786 0.000000 0.809016
vn 0.723608 -0.447217 0.525727
vn -0.525730 -0.850651 0.000000
vn -0.688189 -0.525734 0.499999
vn -0.276389 -0.447218 0.850650
vn -0.587786 0.000000 0.809017
vn -0.688189 -0.525734 0.499999
vn -0.688189 -0.525734 -0.499999
vn -0.276389 -0.447218 -0.850650
vn 0.688189 0.525735 0.499999
vn 0.262869 -0.525735 -0.809013
vn 0.723608 -0.447217 -0.525727
vn -0.162457 -0.850654 -0.499996
vn 0.000000 -0.504489 -0.863418
vn 0.000000 1.000000 -0.000002
vn 0.747742 -0.504489 0.431709
vn 0.000000 -0.504489 -0.863418
vn 0.747742 -0.504489 0.431709
vn -0.747742 -0.504489 0.431709
vn 0.747742 -0.504489 0.431709
vn 0.000000 1.000000 -0.000002
vn -0.747742 -0.504489 0.431709
vn -0.747742 -0.504489 0.431709
vn 0.000000 1.000000 -0.000002
vn 0.000000 -0.504489 -0.863418
vn -0.863418 0.000000 0.504489
vn -0.000004 0.000008 -1.000000
vn 0.431709 -0.747742 0.504490
vn -0.863418 0.000000 0.504489
vn 0.431709 -0.747742 0.504490
vn 0.431709 0.747742 0.504489
vn 0.431709 -0.747742 0.504490
vn -0.000004 0.000008 -1.000000
vn 0.431709 0.747742 0.504489
vn 0.431709 0.747742 0.504489
vn -0.000004 0.000008 -1.000000
vn -0.863418 0.000000 0.504489
vn -0.863418 -0.000000 -0.504489
vn -0.000009 -0.000001 1.000000
vn 0.431709 0.747742 -0.504490
vn -0.863418 -0.000000 -0.504489
vn 0.431709 0.747742 -0.504490
vn 0.431708 -0.747742 -0.504489
vn 0.431709 0.747742 -0.504490
vn -0.000009 -0.000001 1.000000
vn 0.431708 -0.747742 -0.504489
vn 0.431708 -0.747742 -0.504489
vn -0.000009 -0.000001 1.000000
vn -0.863418 -0.000000 -0.504489
vn 0.504489 0.000000 0.863418
vn -1.000000 -0.000002 -0.000010
vn 0.504489 -0.747742 -0.431709
vn 0.504489 0.000000 0.863418
vn 0.504489 -0.747742 -0.431709
vn 0.504489 0.747742 -0.431709
vn 0.504489 -0.747742 -0.431709
vn -1.000000 -0.000002 -0.000010
vn 0.504489 0.747742 -0.431709
vn 0.504489 0.747742 -0.431709
vn -1.000000 -0.000002 -0.000010
vn 0.504489 0.000000 0.863418
vn -0.504489 0.000000 0.863418
vn 1.000000 -0.000002 0.000005
vn -0.504489 0.747742 -0.431709
vn -0.504489 0.000000 0.863418
vn -0.504489 0.747742 -0.431709
vn -0.504489 -0.747742 -0.431709
vn -0.504489 0.747742 -0.431709
vn 1.000000 -0.000002 0.000005
vn -0.504489 -0.747742 -0.431709
vn -0.504489 -0.747742 -0.431709
vn 1.000000 -0.000002 0.000005
vn -0.504489 0.000000 0.863418
vn 0.967257 0.000001 0.253800
vn -0.707104 0.000009 0.707109
vn 0.051465 -0.747742 -0.661992
vn 0.967257 0.000001 0.253800
vn 0.051465 -0.747742 -0.661992
vn 0.051462 0.747742 -0.661992
vn 0.051465 -0.747742 -0.661992
vn -0.707104 0.000009 0.707109
vn 0.051462 0.747742 -0.661992
vn 0.051462 0.747742 -0.661992
vn -0.707104 0.000009 0.707109
vn 0.967257 0.000001 0.253800
vn 0.253799 0.000000 0.967257
vn 0.707103 0.000009 -0.707111
vn -0.661992 0.747742 0.051463
vn 0.253799 0.000000 0.967257
vn -0.661992 0.747742 0.051463
vn -0.661992 -0.747742 0.051463
vn -0.661992 0.747742 0.051463
vn 0.707103 0.000009 -0.707111
vn -0.661992 -0.747742 0.051463
vn -0.661992 -0.747742 0.051463
vn 0.707103 0.000009 -0.707111
vn 0.253799 0.000000 0.967257
vn 0.253799 -0.000000 -0.967257
vn 0.707109 -0.000004 0.707105
vn -0.661992 -0.747742 -0.051463
vn 0.253799 -0.000000 -0.967257
vn -0.661992 -0.747742 -0.051463
vn -0.661992 0.747742 -0.051463
vn -0.661992 -0.747742 -0.051463
vn 0.707109 -0.000004 0.707105
vn -0.661992 0.747742 -0.051463
vn -0.661992 0.747742 -0.051463
vn 0.707109 -0.000004 0.707105
vn 0.253799 -0.000000 -0.967257
vn 0.967256 0.000000 -0.253803
vn -0.707110 0.000003 -0.707104
vn 0.051464 0.747743 0.661991
vn 0.967256 0.000000 -0.253803
vn 0.051464 0.747743 0.661991
vn 0.051464 -0.747743 0.661991
vn 0.051464 0.747743 0.661991
vn -0.707110 0.000003 -0.707104
vn 0.051464 -0.747743 0.661991
vn 0.051464 -0.747743 0.661991
vn -0.707110 0.000003 -0.707104
vn 0.967256 0.000000 -0.253803
vn -0.179469 -0.179464 -0.967256
vn -0.500011 -0.500016 0.707088
vn -0.060633 0.996832 -0.051466
vn -0.179469 -0.179464 -0.967256
vn -0.060633 0.996832 -0.051466
vn 0.996832 -0.060636 -0.051465
vn -0.060633 0.996832 -0.051466
vn -0.500011 -0.500016 0.707088
vn 0.996832 -0.060636 -0.051465
vn 0.996832 -0.060636 -0.051465
vn -0.500011 -0.500016 0.707088
vn -0.179469 -0.179464 -0.967256
vn -0.683954 -0.683954 -0.253801
vn 0.499989 0.499998 -0.707116
vn 0.492343 -0.565126 0.661990
vn -0.683954 -0.683954 -0.253801
vn 0.492343 -0.565126 0.661990
vn -0.565122 0.492343 0.661993
vn 0.499989 0.499998 -0.707116
vn -0.565122 0.492343 0.661993
vn 0.499989 0.499998 -0.707116
vn -0.683954 -0.683954 -0.253801
vn 0.565123 0.492344 0.661992
vn -0.499997 0.500000 -0.707109
vn -0.492342 -0.565123 0.661993
vn -0.492342 -0.565123 0.661993
vn -0.499997 0.500000 -0.707109
vn 0.683954 -0.683954 -0.253801
vn 0.683954 -0.683954 -0.253801
vn -0.499997 0.500000 -0.707109
vn 0.565123 0.492344 0.661992
vn 0.683954 -0.683954 -0.253801
vn -0.996833 -0.060633 -0.051462
vn 0.500002 -0.499984 0.707116
vn 0.060637 0.996832 -0.051462
vn 0.060637 0.996832 -0.051462
vn 0.500002 -0.499984 0.707116
vn 0.179461 -0.179463 -0.967257
vn 0.179461 -0.179463 -0.967257
vn 0.500002 -0.499984 0.707116
vn -0.996833 -0.060633 -0.051462
vn 0.179461 -0.179463 -0.967257
vn -0.996833 -0.060633 -0.051462
vn 0.060637 0.996832 -0.051462
vn 0.060634 0.996832 0.051463
vn 0.500008 -0.499996 -0.707104
vn -0.996832 -0.060636 0.051465
vn -0.996832 -0.060636 0.051465
vn 0.500008 -0.499996 -0.707104
vn 0.179466 -0.179465 0.967256
vn 0.179466 -0.179465 0.967256
vn 0.500008 -0.499996 -0.707104
vn 0.060634 0.996832 0.051463
vn 0.179466 -0.179465 0.967256
vn 0.060634 0.996832 0.051463
vn -0.996832 -0.060636 0.051465
vn -0.492342 -0.565124 -0.661992
vn -0.499995 0.500001 0.707110
vn 0.565125 0.492343 -0.661991
vn 0.565125 0.492343 -0.661991
vn -0.499995 0.500001 0.707110
vn 0.683955 -0.683952 0.253802
vn 0.683955 -0.683952 0.253802
vn -0.499995 0.500001 0.707110
vn -0.492342 -0.565124 -0.661992
vn 0.683955 -0.683952 0.253802
vn 0.172006 0.885462 -0.431707
vn 0.707103 -0.707111 0.000013
vn -0.885461 -0.172005 -0.431709
vn -0.885461 -0.172005 -0.431709
vn 0.707103 -0.707111 0.000013
vn -0.356727 0.356728 0.863418
vn -0.356727 0.356728 0.863418
vn 0.707103 -0.707111 0.000013
vn 0.172006 0.885462 -0.431707
vn -0.356727 0.356728 0.863418
vn 0.172006 0.885462 -0.431707
vn -0.885461 -0.172005 -0.431709
vn -0.172008 -0.885462 -0.431706
vn -0.707111 0.707103 0.000000
vn 0.885461 0.172002 -0.431711
vn 0.885461 0.172002 -0.431711
vn -0.707111 0.707103 0.000000
vn 0.356726 -0.356730 0.863418
vn 0.356726 -0.356730 0.863418
vn -0.707111 0.707103 0.000000
vn -0.172008 -0.885462 -0.431706
vn 0.356726 -0.356730 0.863418
vn -0.172008 -0.885462 -0.431706
vn 0.885461 0.172002 -0.431711
vn 0.996833 -0.060632 0.051463
vn -0.499993 -0.499998 -0.707113
vn -0.060636 0.996832 0.051463
vn -0.060636 0.996832 0.051463
vn -0.499993 -0.499998 -0.707113
vn -0.179461 -0.179466 0.967257
vn -0.179461 -0.179466 0.967257
vn -0.499993 -0.499998 -0.707113
vn 0.996833 -0.060632 0.051463
vn -0.179461 -0.179466 0.967257
vn 0.996833 -0.060632 0.051463
vn -0.060636 0.996832 0.051463
vn -0.565123 0.492343 -0.661992
vn 0.500000 0.500000 0.707107
vn 0.492343 -0.565124 -0.661991
vn 0.492343 -0.565124 -0.661991
vn 0.500000 0.500000 0.707107
vn -0.683953 -0.683954 0.253799
vn -0.683953 -0.683954 0.253799
vn 0.500000 0.500000 0.707107
vn -0.565123 0.492343 -0.661992
vn -0.683953 -0.683954 0.253799
vn 0.885462 -0.172006 -0.431708
vn -0.707108 -0.707106 -0.000006
vn -0.172004 0.885461 -0.431709
vn -0.172004 0.885461 -0.431709
vn -0.707108 -0.707106 -0.000006
vn 0.356728 0.356726 0.863419
vn 0.356728 0.356726 0.863419
vn -0.707108 -0.707106 -0.000006
vn 0.885462 -0.172006 -0.431708
vn 0.356728 0.356726 0.863419
vn 0.885462 -0.172006 -0.431708
vn -0.172004 0.885461 -0.431709
vn -0.885462 0.172009 -0.431707
vn 0.707105 0.707109 -0.000000
vn 0.172002 -0.885461 -0.431710
vn 0.172002 -0.885461 -0.431710
vn 0.707105 0.707109 -0.000000
vn -0.356729 -0.356723 0.863419
vn -0.356729 -0.356723 0.863419
vn 0.707105 0.707109 -0.000000
vn -0.885462 0.172009 -0.431707
vn -0.356729 -0.356723 0.863419
vn -0.885462 0.172009 -0.431707
vn 0.172002 -0.885461 -0.431710
vn -0.712353 -0.568693 -0.411269
vn -0.000000 0.591185 -0.806536
vn -0.698490 0.591171 -0.403272
vn -0.712345 -0.568694 0.411280
vn -0.698490 0.591171 -0.403272
vn -0.698487 0.591179 0.403266
vn -0.000000 -0.568688 0.822553
vn -0.698487 0.591179 0.403266
vn -0.000001 0.591184 0.806536
vn 0.712345 -0.568700 0.411272
vn 0.698486 0.591179 0.403267
vn 0.712345 -0.568695 -0.411279
vn 0.698486 0.591179 0.403267
vn 0.698490 0.591171 -0.403272
vn 0.712345 -0.568695 -0.411279
vn 0.698490 0.591171 -0.403272
vn -0.000016 -0.414326 -0.910128
vn 0.676410 0.624467 -0.390526
vn 0.788196 -0.414318 -0.455069
vn 0.676410 0.624467 -0.390526
vn 0.788189 -0.414340 0.455061
vn 0.788196 -0.414318 -0.455069
vn 0.788189 -0.414340 0.455061
vn -0.000000 0.624477 0.781044
vn -0.000001 -0.414311 0.910135
vn -0.788199 -0.414326 0.455057
vn -0.676406 0.624468 0.390532
vn -0.000000 0.624477 0.781044
vn 0.676415 0.624461 0.390528
vn -0.676406 0.624468 0.390532
vn -0.788194 -0.414333 -0.455059
vn -0.788199 -0.414326 0.455057
vn -0.788194 -0.414333 -0.455059
vn 0.000007 0.624467 -0.781051
vn 0.000001 -0.000000 -1.000000
vn 0.686246 -0.609990 -0.396205
vn -0.000001 -0.609997 -0.792404
vn 0.866025 -0.000000 -0.500000
vn 0.866026 -0.000000 -0.499999
vn -0.000000 -0.000000 -1.000000
vn 0.866025 -0.000000 -0.500000
vn -0.000000 -0.000000 -1.000000
vn 0.866025 -0.000000 -0.500000
vn -0.000000 -0.000000 -1.000000
vn 0.698481 -0.591183 -0.403270
vn 0.866026 -0.000000 -0.499999
vn 0.686243 -0.609996 0.396201
vn 0.686246 -0.609990 -0.396205
vn 0.866025 -0.000000 -0.500000
vn 0.866025 0.000000 0.500000
vn 0.866025 -0.000000 -0.500000
vn 0.866025 0.000000 0.500000
vn 0.866025 -0.000000 -0.500000
vn 0.866025 0.000000 0.500000
vn 0.698481 -0.591183 -0.403270
vn 0.866025 0.000000 0.500000
vn 0.866025 0.000000 0.500000
vn 0.000001 -0.609990 0.792409
vn 0.686243 -0.609996 0.396201
vn 0.866025 0.000000 0.500000
vn -0.000000 0.000000 1.000000
vn 0.866025 0.000000 0.500000
vn -0.000000 0.000000 1.000000
vn 0.866025 0.000000 0.500000
vn -0.000000 0.000000 1.000000
vn 0.698490 -0.591170 0.403274
vn -0.000000 0.000000 1.000000
vn -0.686242 -0.609996 0.396203
vn -0.866025 0.000000 0.500000
vn -0.866025 0.000000 0.500000
vn -0.866025 0.000000 0.500000
vn -0.000001 -0.591183 0.806537
vn -0.866025 0.000000 0.500000
vn -0.866025 0.000000 0.500000
vn -0.686247 -0.609990 -0.396203
vn -0.686242 -0.609996 0.396203
vn -0.866025 0.000000 0.500000
vn -0.866025 -0.000000 -0.500000
vn -0.866025 0.000000 0.500000
vn -0.866025 -0.000000 -0.500000
vn -0.866025 0.000000 0.500000
vn -0.866025 -0.000000 -0.500000
vn -0.698491 -0.591170 0.403272
vn -0.866025 -0.000000 -0.500000
vn -0.866025 -0.000000 -0.500000
vn -0.686247 -0.609990 -0.396203
vn -0.866025 -0.000000 -0.500000
vn -0.866025 -0.000000 -0.500000
vn -0.866025 -0.000000 -0.500000
vn -0.698481 -0.591184 -0.403270
vn -0.698487 0.591179 0.403266
vn -0.000007 0.445353 0.895355
vn -0.000001 0.591184 0.806536
vn 0.000000 -0.591172 -0.806545
vn 0.775398 -0.445358 -0.447676
vn 0.698481 -0.591183 -0.403270
vn 0.698486 0.591179 0.403267
vn 0.775399 0.445349 0.447683
vn 0.698490 -0.591170 0.403274
vn 0.000007 -0.445353 0.895355
vn -0.000001 -0.591183 0.806537
vn -0.698491 -0.591170 0.403272
vn -0.775404 -0.445353 -0.447672
vn -0.698481 -0.591184 -0.403270
vn -0.698490 0.591171 -0.403272
vn -0.000000 0.445358 -0.895353
vn -0.775402 0.445343 -0.447685
vn 0.000000 -0.445339 -0.895362
vn 0.775407 0.445338 -0.447681
vn 0.775398 -0.445358 -0.447676
vn 0.775407 0.445338 -0.447681
vn 0.775408 -0.445344 0.447673
vn 0.775398 -0.445358 -0.447676
vn 0.775399 0.445349 0.447683
vn 0.000007 -0.445353 0.895355
vn 0.775408 -0.445344 0.447673
vn -0.000007 0.445353 0.895355
vn -0.775401 -0.445344 0.447686
vn -0.775407 0.445349 0.447670
vn -0.775404 -0.445353 -0.447672
vn -0.775401 -0.445344 0.447686
vn -0.775402 0.445343 -0.447685
vn -0.775404 -0.445353 -0.447672
vn 0.000000 -0.445339 -0.895362
vn 0.698490 0.591171 -0.403272
vn -0.000000 0.591185 -0.806536
vn -0.775401 -0.445344 0.447686
vn 0.775408 -0.445344 0.447673
vn -0.775407 0.445349 0.447670
vn 0.775407 0.445338 -0.447681
vn 0.723608 -0.447217 -0.525726
vn 0.262869 -0.525736 -0.809013
vn 0.587787 0.000000 -0.809016
vn -0.000002 -1.000000 0.000000
vn -0.162457 -0.850654 -0.499996
vn 0.425324 -0.850653 -0.309012
vn 0.723608 -0.447217 0.525726
vn 0.951057 -0.000000 0.309015
vn 0.587786 0.000001 0.809016
vn -0.525729 -0.850652 0.000000
vn -0.894426 -0.447215 -0.000000
vn -0.688189 -0.525734 0.499999
vn -0.951057 0.000001 0.309015
vn -0.162457 -0.850654 0.499996
vn -0.276389 -0.447218 0.850650
vn 0.262869 -0.525736 0.809013
vn -0.000000 0.000000 1.000000
vn 0.723608 -0.447217 0.525726
vn 0.425324 -0.850653 0.309013
vn 0.850649 -0.525734 0.000000
vn -0.276389 -0.447218 -0.850650
vn -0.688189 -0.525734 -0.499999
vn -0.587786 -0.000001 -0.809016
vn 0.850649 -0.525734 0.000000
vn -0.587786 -0.000000 0.809016
vn -0.951057 0.000001 -0.309015
vn 0.000000 -0.000000 -1.000000
vn 0.723608 -0.447217 -0.525726
vn 0.587787 0.000000 -0.809016
vn 0.951057 -0.000001 -0.309015
vn 0.276390 0.447219 0.850649
vn 0.688189 0.525735 0.499999
vn 0.162456 0.850654 0.499996
vn -0.723607 0.447218 0.525727
vn -0.262868 0.525737 0.809013
vn -0.425324 0.850653 0.309013
vn -0.723608 0.447217 -0.525727
vn -0.850649 0.525735 -0.000000
vn -0.425325 0.850653 -0.309013
vn 0.276390 0.447219 -0.850649
vn -0.262869 0.525736 -0.809013
vn 0.162456 0.850653 -0.499997
vn 0.894427 0.447215 -0.000000
vn 0.688189 0.525735 -0.499999
vn 0.525729 0.850652 -0.000000
vn 0.525729 0.850652 -0.000000
vn 0.162456 0.850653 -0.499997
vn 0.000001 1.000000 -0.000000
vn 0.688189 0.525735 -0.499999
vn 0.276390 0.447219 -0.850649
vn -0.425325 0.850653 -0.309013
vn -0.262869 0.525736 -0.809013
vn -0.723608 0.447217 -0.525727
vn -0.850649 0.525735 -0.000000
vn -0.723607 0.447218 0.525727
vn -0.425324 0.850653 0.309013
vn -0.262868 0.525737 0.809013
vn 0.276390 0.447219 0.850649
vn 0.162456 0.850654 0.499996
vn 0.688189 0.525735 0.499999
vn 0.688189 0.525735 -0.499999
vn -0.723608 0.447217 -0.525727
vn -0.723607 0.447218 0.525727
vn -0.587786 -0.000001 -0.809016
vn -0.688189 -0.525734 -0.499999
vn -0.162457 -0.850654 0.499996
vn 0.262869 -0.525736 0.809013
vn 0.425324 -0.850653 -0.309012
vn 0.587786 0.000001 0.809016
vn 0.723608 -0.447217 0.525726
vn -0.525729 -0.850652 0.000000
vn -0.688189 -0.525734 0.499999
vn -0.276389 -0.447218 0.850650
vn -0.587786 -0.000000 0.809016
vn -0.688189 -0.525734 0.499999
vn -0.688189 -0.525734 -0.499999
vn -0.276389 -0.447218 -0.850650
vn 0.688189 0.525735 0.499999
vn 0.262869 -0.525736 -0.809013
vn 0.723608 -0.447217 -0.525726
vn -0.162457 -0.850654 -0.499996
vn -0.000001 -0.609997 -0.792404
vn 0.686243 -0.609996 0.396201
vn -0.686242 -0.609996 0.396203
vn -0.000005 -0.568694 -0.822549
vn -0.712353 -0.568693 -0.411269
vn -0.712345 -0.568694 0.411280
vn 0.712345 -0.568700 0.411272
vn 0.676415 0.624461 0.390528
vn 0.676415 0.624461 0.390528
vn -0.676406 0.624468 0.390532
vn 0.676410 0.624467 -0.390526
vn 0.000007 0.624467 -0.781051
vn -0.676414 0.624463 -0.390527
vn -0.676414 0.624463 -0.390527
vn -0.676414 0.624463 -0.390527
vn 0.000000 -0.591172 -0.806545
vn 0.698490 -0.591170 0.403274
vn -0.698491 -0.591170 0.403272
vn -0.698481 -0.591184 -0.403270
vn -0.000000 0.445358 -0.895353
vn 0.775399 0.445349 0.447683
vn -0.775407 0.445349 0.447670
vn -0.775402 0.445343 -0.447685
f 1/1/1 2/2/2 3/3/3
f 4/4/4 5/5/5 6/6/6
f 7/7/7 8/8/8 9/9/9
f 4/4/4 10/10/10 5/5/5
f 11/11/11 12/12/12 13/13/13
f 14/14/14 15/15/15 16/16/16
f 4/4/4 17/17/17 10/10/10
f 18/18/18 19/19/19 20/20/20
f 21/21/21 22/22/22 23/23/23
f 24/24/24 25/25/25 26/26/26
f 27/27/27 28/28/28 29/29/29
f 13/13/13 30/30/30 27/27/27
f 4/4/4 25/25/25 17/17/17
f 18/18/18 31/31/31 11/11/11
f 32/32/32 33/33/33 34/34/34
f 7/7/7 35/35/35 8/8/8
f 29/29/29 19/19/19 36/36/36
f 37/37/37 38/38/38 39/39/39
f 21/21/21 23/23/23 40/40/40
f 14/14/14 16/16/16 41/41/41
f 32/32/32 34/34/34 42/42/42
f 43/43/43 44/44/44 45/45/45
f 46/46/46 47/47/47 48/48/48
f 49/49/49 50/50/50 51/51/51
f 52/52/52 53/53/53 54/54/54
f 55/55/55 56/56/56 57/57/57
f 58/58/58 59/59/59 60/60/60
f 61/61/61 62/62/62 63/63/63
f 61/61/61 64/64/64 62/62/62
f 64/64/64 65/65/65 62/62/62
f 62/62/62 66/66/66 63/63/63
f 62/62/62 67/67/67 66/66/66
f 67/67/67 68/68/68 66/66/66
f 66/66/66 51/51/51 63/63/63
f 66/66/66 69/69/69 51/51/51
f 53/53/53 70/70/70 71/71/71
f 51/51/51 48/48/48 63/63/63
f 51/51/51 50/50/50 48/48/48
f 72/72/72 73/73/73 74/74/74
f 48/48/48 61/61/61 63/63/63
f 48/48/48 47/47/47 61/61/61
f 75/75/75 58/58/58 60/60/60
f 45/45/45 59/59/59 58/58/58
f 45/45/45 44/44/44 59/59/59
f 3/3/3 55/55/55 76/76/76
f 42/42/42 56/56/56 55/55/55
f 42/42/42 34/34/34 56/56/56
f 34/34/34 77/77/77 56/56/56
f 41/41/41 53/53/53 52/52/52
f 41/41/41 16/16/16 53/53/53
f 16/16/16 70/70/70 53/53/53
f 40/40/40 72/72/72 78/78/78
f 40/40/40 23/23/23 72/72/72
f 23/23/23 73/73/73 72/72/72
f 8/8/8 45/45/45 58/58/58
f 8/8/8 35/35/35 45/45/45
f 35/35/35 43/43/43 45/45/45
f 79/79/79 41/41/41 52/52/52
f 79/79/79 80/80/80 41/41/41
f 80/80/80 14/14/14 41/41/41
f 81/81/81 22/22/22 21/21/21
f 17/17/17 25/25/25 82/82/82
f 25/25/25 24/24/24 82/82/82
f 35/35/35 83/83/83 43/43/43
f 26/26/26 25/25/25 6/6/6
f 25/25/25 4/4/4 6/6/6
f 23/23/23 84/84/84 73/73/73
f 23/23/23 22/22/22 84/84/84
f 22/22/22 85/85/85 84/84/84
f 86/86/86 15/15/15 14/14/14
f 10/10/10 17/17/17 87/87/87
f 17/17/17 88/88/88 87/87/87
f 16/16/16 89/89/89 70/70/70
f 16/16/16 15/15/15 89/89/89
f 90/90/90 21/21/21 40/40/40
f 5/5/5 91/91/91 92/92/92
f 5/5/5 10/10/10 91/91/91
f 86/86/86 14/14/14 80/80/80
f 84/84/84 93/93/93 73/73/73
f 9/9/9 8/8/8 75/75/75
f 8/8/8 58/58/58 75/75/75
f 6/6/6 94/94/94 95/95/95
f 6/6/6 5/5/5 94/94/94
f 96/96/96 32/32/32 2/2/2
f 3/3/3 42/42/42 55/55/55
f 3/3/3 2/2/2 42/42/42
f 2/2/2 32/32/32 42/42/42
f 97/97/97 98/98/98 99/99/99
f 100/100/100 101/101/101 102/102/102
f 103/103/103 104/104/104 105/105/105
f 106/106/106 107/107/107 108/108/108
f 109/109/109 110/110/110 111/111/111
f 112/112/112 113/113/113 114/114/114
f 115/115/115 116/116/116 117/117/117
f 118/118/118 119/119/119 120/120/120
f 121/121/121 122/122/122 123/123/123
f 124/124/124 125/125/125 126/126/126
f 127/127/127 128/128/128 129/129/129
f 130/130/130 131/131/131 132/132/132
f 133/133/133 134/134/134 135/135/135
f 136/136/136 137/137/137 138/138/138
f 139/139/139 140/140/140 141/141/141
f 142/142/142 143/143/143 144/144/144
f 145/145/145 146/146/146 147/147/147
f 148/148/148 149/149/149 150/150/150
f 151/151/151 152/152/152 153/153/153
f 154/154/154 155/155/155 156/156/156
f 157/157/157 158/158/158 159/159/159
f 160/160/160 161/161/161 162/162/162
f 163/163/163 164/164/164 165/165/165
f 166/166/166 167/167/167 168/168/168
f 169/169/169 170/170/170 171/171/171
f 172/172/172 173/173/173 174/174/174
f 175/175/175 176/176/176 177/177/177
f 178/178/178 179/179/179 180/180/180
f 181/181/181 182/182/182 183/183/183
f 184/184/184 185/185/185 186/186/186
f 187/187/187 188/188/188 189/189/189
f 190/190/190 191/191/191 192/192/192
f 193/193/193 194/194/194 195/195/195
f 196/196/196 197/197/197 198/198/198
f 199/199/199 200/200/200 201/201/201
f 202/202/202 203/203/203 204/204/204
f 205/205/205 206/206/206 207/207/207
f 208/208/208 209/209/209 210/210/210
f 211/211/211 212/212/212 213/213/213
f 214/214/214 215/215/215 216/216/216
f 217/217/217 218/218/218 219/219/219
f 220/220/220 221/221/221 222/222/222
f 221/221/221 223/223/223 222/222/222
f 224/224/224 225/225/225 226/226/226
f 227/227/227 228/228/228 229/229/229
f 230/230/230 231/231/231 232/232/232
f 233/233/233 234/234/234 235/235/235
f 236/236/236 227/227/227 229/229/229
f 237/237/237 238/238/238 239/239/239
f 240/240/240 241/241/241 242/242/242
f 243/243/243 244/244/244 245/245/245
f 246/246/246 247/247/247 248/248/248
f 249/249/249 250/250/250 251/251/251
f 252/252/252 253/253/253 254/254/254
f 255/255/255 256/256/256 257/257/257
f 258/258/258 259/259/259 260/260/260
f 261/261/261 262/262/262 263/263/263
f 264/264/264 265/265/265 266/266/266
f 267/267/267 268/268/268 269/269/269
f 270/270/270 261/261/261 263/263/263
f 271/271/271 272/272/272 273/273/273
f 274/274/274 275/275/275 276/276/276
f 277/277/277 278/278/278 279/279/279
f 280/280/280 281/281/281 282/282/282
f 283/283/283 284/284/284 285/285/285
f 286/286/286 287/287/287 288/288/288
f 289/289/289 290/290/290 291/291/291
f 292/292/292 293/293/293 294/294/294
f 295/295/295 296/296/296 297/297/297
f 298/298/298 299/299/299 300/300/300
f 301/301/301 302/302/302 303/303/303
f 304/304/304 305/305/305 306/306/306
f 307/307/307 308/308/308 309/309/309
f 310/310/310 311/311/311 312/312/312
f 313/313/313 314/314/314 315/315/315
f 316/316/316 307/307/307 309/309/309
f 317/317/317 318/318/318 319/319/319
f 320/320/320 321/321/321 322/322/322
f 323/323/323 324/324/324 325/325/325
f 326/326/326 327/327/327 328/328/328
f 329/329/329 330/330/330 331/331/331
f 332/332/332 333/333/333 334/334/334
f 335/335/335 336/336/336 337/337/337
f 338/338/338 339/339/339 340/340/340
f 341/341/341 342/342/342 343/343/343
f 344/344/344 345/345/345 346/346/346
f 347/347/347 348/348/348 349/349/349
f 350/350/350 349/349/349 351/351/351
f 352/352/352 353/353/353 354/354/354
f 342/342/342 355/355/355 356/356/356
f 357/357/357 358/358/358 359/359/359
f 360/360/360 361/361/361 362/362/362
f 363/363/363 364/364/364 365/365/365
f 364/364/364 366/366/366 365/365/365
f 367/367/367 368/368/368 369/369/369
f 370/370/370 371/371/371 372/372/372
f 373/373/373 374/374/374 357/357/357
f 375/375/375 376/376/376 377/377/377
f 375/375/375 378/378/378 379/379/379
f 380/380/380 381/381/381 378/378/378
f 382/382/382 383/383/383 381/381/381
f 384/384/384 385/385/385 383/383/383
f 386/386/386 387/387/387 388/388/388
f 389/389/389 390/390/390 386/386/386
f 391/391/391 392/392/392 389/389/389
f 393/393/393 394/394/394 391/391/391
f 395/395/395 396/396/396 393/393/393
f 397/397/397 398/398/398 399/399/399
f 400/400/400 401/401/401 397/397/397
f 402/402/402 403/403/403 400/400/400
f 404/404/404 405/405/405 402/402/402
f 406/406/406 407/407/407 404/404/404
f 401/401/401 408/408/408 398/398/398
f 403/403/403 409/409/409 401/401/401
f 405/405/405 410/410/410 403/403/403
f 407/407/407 411/411/411 405/405/405
f 412/412/412 413/413/413 407/407/407
f 414/414/414 415/415/415 416/416/416
f 417/417/417 418/418/418 414/414/414
f 419/419/419 420/420/420 417/417/417
f 421/421/421 422/422/422 419/419/419
f 423/423/423 424/424/424 421/421/421
f 425/425/425 377/377/377 426/426/426
f 427/427/427 375/375/375 425/425/425
f 428/428/428 380/380/380 427/427/427
f 429/429/429 382/382/382 428/428/428
f 430/430/430 384/384/384 429/429/429
f 431/431/431 432/432/432 433/433/433
f 434/434/434 435/435/435 436/436/436
f 437/437/437 432/432/432 438/438/438
f 439/439/439 440/440/440 441/441/441
f 442/442/442 443/443/443 444/444/444
f 445/445/445 446/446/446 447/447/447
f 448/448/448 449/449/449 450/450/450
f 451/451/451 452/452/452 453/453/453
f 454/454/454 455/455/455 456/456/456
f 457/457/457 458/458/458 455/455/455
f 459/459/459 460/460/460 461/461/461
f 462/462/462 448/448/448 463/463/463
f 434/434/434 443/443/443 464/464/464
f 465/465/465 446/446/446 466/466/466
f 442/442/442 440/440/440 467/467/467
f 439/439/439 435/435/435 468/468/468
f 445/445/445 469/469/469 431/431/431
f 465/465/465 438/438/438 470/470/470
f 471/471/471 472/472/472 473/473/473
f 474/474/474 475/475/475 476/476/476
f 477/477/477 478/478/478 479/479/479
f 474/474/474 480/480/480 475/475/475
f 481/481/481 482/482/482 483/483/483
f 474/474/474 484/484/484 480/480/480
f 485/485/485 486/486/486 487/487/487
f 488/488/488 489/489/489 490/490/490
f 474/474/474 489/489/489 484/484/484
f 491/491/491 492/492/492 493/493/493
f 477/477/477 494/494/494 478/478/478
f 485/485/485 487/487/487 495/495/495
f 481/481/481 483/483/483 496/496/496
f 491/491/491 493/493/493 497/497/497
f 498/498/498 499/499/499 500/500/500
f 501/501/501 502/502/502 503/503/503
f 504/504/504 505/505/505 506/506/506
f 507/507/507 508/508/508 509/509/509
f 510/510/510 511/511/511 512/512/512
f 513/513/513 514/514/514 515/515/515
f 516/516/516 517/517/517 518/518/518
f 516/516/516 519/519/519 517/517/517
f 519/519/519 520/520/520 517/517/517
f 517/517/517 521/521/521 518/518/518
f 517/517/517 522/522/522 521/521/521
f 522/522/522 523/523/523 521/521/521
f 521/521/521 506/506/506 518/518/518
f 521/521/521 524/524/524 506/506/506
f 508/508/508 525/525/525 526/526/526
f 506/506/506 503/503/503 518/518/518
f 506/506/506 505/505/505 503/503/503
f 527/527/527 528/528/528 529/529/529
f 503/503/503 516/516/516 518/518/518
f 503/503/503 502/502/502 516/516/516
f 530/530/530 513/513/513 515/515/515
f 500/500/500 514/514/514 513/513/513
f 500/500/500 499/499/499 514/514/514
f 473/473/473 510/510/510 531/531/531
f 497/497/497 511/511/511 510/510/510
f 497/497/497 493/493/493 511/511/511
f 493/493/493 532/532/532 511/511/511
f 496/496/496 508/508/508 507/507/507
f 496/496/496 483/483/483 508/508/508
f 483/483/483 525/525/525 508/508/508
f 495/495/495 527/527/527 533/533/533
f 495/495/495 487/487/487 527/527/527
f 487/487/487 528/528/528 527/527/527
f 478/478/478 500/500/500 513/513/513
f 478/478/478 494/494/494 500/500/500
f 494/494/494 498/498/498 500/500/500
f 534/534/534 496/496/496 507/507/507
f 534/534/534 535/535/535 496/496/496
f 535/535/535 481/481/481 496/496/496
f 536/536/536 486/486/486 485/485/485
f 484/484/484 489/489/489 537/537/537
f 489/489/489 488/488/488 537/537/537
f 494/494/494 538/538/538 498/498/498
f 490/490/490 489/489/489 476/476/476
f 489/489/489 474/474/474 476/476/476
f 487/487/487 539/539/539 528/528/528
f 487/487/487 486/486/486 539/539/539
f 486/486/486 540/540/540 539/539/539
f 541/541/541 482/482/482 481/481/481
f 480/480/480 484/484/484 542/542/542
f 484/484/484 543/543/543 542/542/542
f 483/483/483 544/544/544 525/525/525
f 483/483/483 482/482/482 544/544/544
f 545/545/545 485/485/485 495/495/495
f 475/475/475 546/546/546 547/547/547
f 475/475/475 480/480/480 546/546/546
f 541/541/541 481/481/481 535/535/535
f 539/539/539 548/548/548 528/528/528
f 479/479/479 478/478/478 530/530/530
f 478/478/478 513/513/513 530/530/530
f 476/476/476 549/549/549 550/550/550
f 476/476/476 475/475/475 549/549/549
f 551/551/551 491/491/491 472/472/472
f 473/473/473 497/497/497 510/510/510
f 473/473/473 472/472/472 497/497/497
f 472/472/472 491/491/491 497/497/497
f 11/11/11 31/31/31 12/12/12
f 18/18/18 36/36/36 19/19/19
f 27/27/27 30/30/30 28/28/28
f 13/13/13 12/12/12 30/30/30
f 18/18/18 20/20/20 31/31/31
f 29/29/29 28/28/28 19/19/19
f 39/39/39 552/552/552 37/37/37
f 37/37/37 553/553/553 38/38/38
f 38/38/38 554/554/554 39/39/39
f 341/341/341 555/555/555 342/342/342
f 344/344/344 556/556/556 345/345/345
f 347/347/347 557/557/557 348/348/348
f 350/350/350 347/347/347 349/349/349
f 352/352/352 558/558/558 353/353/353
f 342/342/342 555/555/555 355/355/355
f 357/357/357 374/374/374 358/358/358
f 360/360/360 559/559/559 361/361/361
f 363/363/363 560/560/560 364/364/364
f 364/364/364 561/561/561 366/366/366
f 369/369/369 562/562/562 367/367/367
f 562/562/562 563/563/563 367/367/367
f 563/563/563 564/564/564 367/367/367
f 370/370/370 565/565/565 371/371/371
f 373/373/373 566/566/566 374/374/374
f 375/375/375 379/379/379 376/376/376
f 375/375/375 380/380/380 378/378/378
f 380/380/380 382/382/382 381/381/381
f 382/382/382 384/384/384 383/383/383
f 384/384/384 567/567/567 385/385/385
f 386/386/386 390/390/390 387/387/387
f 389/389/389 392/392/392 390/390/390
f 391/391/391 394/394/394 392/392/392
f 393/393/393 396/396/396 394/394/394
f 395/395/395 568/568/568 396/396/396
f 397/397/397 401/401/401 398/398/398
f 400/400/400 403/403/403 401/401/401
f 402/402/402 405/405/405 403/403/403
f 404/404/404 407/407/407 405/405/405
f 406/406/406 412/412/412 407/407/407
f 401/401/401 409/409/409 408/408/408
f 403/403/403 410/410/410 409/409/409
f 405/405/405 411/411/411 410/410/410
f 407/407/407 413/413/413 411/411/411
f 412/412/412 569/569/569 413/413/413
f 414/414/414 418/418/418 415/415/415
f 417/417/417 420/420/420 418/418/418
f 419/419/419 422/422/422 420/420/420
f 421/421/421 424/424/424 422/422/422
f 423/423/423 570/570/570 424/424/424
f 425/425/425 375/375/375 377/377/377
f 427/427/427 380/380/380 375/375/375
f 428/428/428 382/382/382 380/380/380
f 429/429/429 384/384/384 382/382/382
f 430/430/430 567/567/567 384/384/384
f 431/431/431 469/469/469 432/432/432
f 434/434/434 464/464/464 435/435/435
f 437/437/437 433/433/433 432/432/432
f 439/439/439 468/468/468 440/440/440
f 442/442/442 467/467/467 443/443/443
f 445/445/445 466/466/466 446/446/446
f 448/448/448 571/571/571 449/449/449
f 451/451/451 572/572/572 452/452/452
f 454/454/454 457/457/457 455/455/455
f 457/457/457 573/573/573 458/458/458
f 459/459/459 574/574/574 460/460/460
f 462/462/462 571/571/571 448/448/448
f 434/434/434 444/444/444 443/443/443
f 465/465/465 470/470/470 446/446/446
f 442/442/442 441/441/441 440/440/440
f 439/439/439 436/436/436 435/435/435
f 445/445/445 447/447/447 469/469/469
f 465/465/465 437/437/437 438/438/438
