# f_mace_02 -- imported by tools/import_asset_pack.py from mace_02.fbx
o __pending__
v -0.000000 0.207801 -0.011706
v 0.008277 -0.261933 -0.008277
v -0.000000 -0.261933 -0.011706
v 0.008277 0.207801 -0.008277
v 0.011706 -0.261933 0.000000
v 0.008277 -0.261933 -0.008277
v 0.011706 0.207801 -0.000000
v 0.008277 -0.261933 0.008277
v 0.008277 0.207801 0.008277
v -0.000000 -0.261933 0.011706
v 0.008277 -0.261933 0.008277
v -0.000000 0.207801 0.011706
v -0.008277 -0.261933 0.008277
v -0.008277 0.207801 0.008277
v -0.011706 -0.261933 0.000000
v -0.008277 -0.261933 0.008277
v -0.011706 0.207801 -0.000000
v -0.008277 -0.261933 -0.008277
v -0.008277 0.207801 -0.008277
v -0.008277 -0.261933 -0.008277
v -0.008277 -0.341880 0.008277
v 0.000000 -0.341880 0.011706
v -0.011705 -0.341880 0.000000
v -0.008277 -0.341880 -0.008277
v 0.008277 -0.341880 0.008277
v -0.008277 -0.341880 -0.008277
v 0.000000 -0.341880 -0.011705
v 0.008277 -0.341880 0.008277
v 0.011706 -0.341880 0.000000
v -0.011705 -0.341880 0.000000
v -0.008277 -0.341880 0.008277
v 0.008277 -0.341880 0.008277
v 0.008277 -0.341880 -0.008277
v -0.008277 0.207801 0.008277
v -0.017520 0.207801 -0.000000
v -0.011706 0.207801 -0.000000
v 0.011706 0.207801 -0.000000
v 0.012388 0.207801 0.012388
v 0.008277 0.207801 0.008277
v 0.008277 0.207801 -0.008277
v -0.000000 0.207801 -0.017520
v 0.012388 0.207801 -0.012388
v -0.008277 0.207801 -0.008277
v -0.000000 0.207801 -0.011706
v -0.000000 0.207801 0.017520
v -0.012388 0.207801 0.012388
v 0.017520 0.207801 -0.000000
v -0.012388 0.207801 -0.012388
v -0.000000 0.207801 0.011706
v -0.016220 0.234723 -0.000000
v -0.026588 0.241129 0.008899
v -0.008476 0.242718 -0.000000
v -0.000000 0.234723 -0.016220
v 0.005993 0.242718 -0.005993
v 0.011469 0.234723 -0.011469
v -0.012388 0.207801 -0.012388
v -0.011469 0.234723 -0.011469
v -0.007490 0.305948 -0.007490
v -0.012508 0.241129 -0.025093
v -0.005993 0.242718 -0.005993
v -0.000000 0.207801 0.017520
v -0.011469 0.234723 0.011469
v -0.012388 0.207801 0.012388
v -0.028620 0.235666 0.015900
v -0.050766 0.209655 0.028284
v -0.000000 0.207801 -0.017520
v 0.012388 0.207801 -0.012388
v 0.017520 0.207801 -0.000000
v 0.011469 0.234723 0.011469
v 0.012388 0.207801 0.012388
v -0.025093 0.241129 0.012508
v -0.010593 0.305948 -0.000000
v -0.048990 0.304663 0.015905
v 0.031480 0.235666 -0.008994
v 0.016220 0.234723 -0.000000
v -0.015900 0.235666 -0.028620
v -0.015896 0.209655 -0.055897
v -0.000000 0.234723 0.016220
v -0.005993 0.242718 0.005993
v 0.005993 0.242718 0.005993
v 0.007490 0.305948 -0.007490
v 0.001584 0.382261 -0.000000
v 0.010593 0.305948 -0.000000
v -0.000000 0.242718 0.008476
v -0.007490 0.305948 0.007490
v 0.008476 0.242718 -0.000000
v 0.007490 0.305948 0.007490
v -0.000000 0.242718 -0.008476
v 0.007490 0.305948 -0.007490
v 0.000000 0.305948 -0.010593
v -0.023395 0.304663 -0.045887
v -0.007490 0.305948 -0.007490
v 0.028620 0.235666 -0.015900
v 0.050765 0.209655 -0.028285
v 0.025093 0.241129 -0.012508
v -0.028284 0.209655 -0.050766
v 0.000000 0.382261 -0.001584
v -0.001584 0.382261 -0.000000
v 0.000000 0.382261 0.001584
v -0.007490 0.305948 -0.007490
v -0.001584 0.382261 -0.000000
v -0.001120 0.382261 -0.001120
v 0.000000 0.305948 0.010593
v -0.001120 0.382261 0.001120
v -0.007490 0.305948 0.007490
v 0.001120 0.382261 0.001120
v 0.007490 0.305948 0.007490
v 0.001120 0.382261 -0.001120
v 0.007490 0.305948 -0.007490
v -0.001120 0.382261 -0.001120
v 0.000000 0.382261 -0.001584
v -0.010593 0.305948 -0.000000
v -0.001120 0.382261 0.001120
v 0.007490 0.305948 0.007490
v 0.000000 0.382261 0.001584
v -0.000000 -0.280424 0.000000
v 0.011324 -0.276447 0.008227
v -0.004325 -0.276447 0.013312
v 0.019265 -0.265706 0.013997
v 0.011324 -0.276447 0.008227
v 0.022648 -0.267797 0.000000
v -0.013997 -0.276447 0.000000
v -0.004325 -0.276447 -0.013312
v 0.011324 -0.276447 -0.008227
v 0.025321 -0.253800 0.008227
v -0.007359 -0.265706 0.022648
v 0.006999 -0.267797 0.021539
v -0.000000 -0.253800 0.026624
v -0.023813 -0.265706 0.000000
v -0.018322 -0.267797 0.013312
v -0.025321 -0.253800 0.008227
v -0.007359 -0.265706 -0.022648
v -0.018322 -0.267797 -0.013312
v -0.015649 -0.253800 -0.021539
v 0.019265 -0.265706 -0.013997
v 0.006999 -0.267797 -0.021539
v 0.015649 -0.253800 -0.021539
v 0.015649 -0.253800 0.021539
v -0.015649 -0.253800 0.021539
v -0.025321 -0.253800 -0.008227
v -0.000000 -0.253800 -0.026624
v 0.025321 -0.253800 -0.008227
v 0.007359 -0.241893 0.022648
v 0.018322 -0.239802 0.013312
v 0.004325 -0.231152 0.013312
v -0.019265 -0.241893 0.013997
v -0.006999 -0.239802 0.021539
v -0.011324 -0.231152 0.008227
v -0.019265 -0.241893 -0.013997
v -0.022648 -0.239802 0.000000
v -0.011324 -0.231152 -0.008227
v 0.007359 -0.241893 -0.022648
v -0.006999 -0.239802 -0.021539
v 0.004325 -0.231152 -0.013312
v 0.023813 -0.241893 0.000000
v 0.018322 -0.239802 -0.013312
v 0.013997 -0.231152 0.000000
v 0.013997 -0.231152 0.000000
v 0.004325 -0.231152 -0.013312
v -0.000000 -0.227176 0.000000
v 0.018322 -0.239802 -0.013312
v 0.007359 -0.241893 -0.022648
v -0.006999 -0.239802 -0.021539
v -0.011324 -0.231152 0.008227
v -0.019265 -0.241893 0.013997
v 0.004325 -0.231152 0.013312
v -0.006999 -0.239802 0.021539
v 0.007359 -0.241893 0.022648
v 0.004325 -0.231152 0.013312
v 0.018322 -0.239802 0.013312
v 0.025321 -0.253800 -0.008227
v 0.018322 -0.239802 -0.013312
v -0.019265 -0.241893 -0.013997
v -0.022648 -0.239802 0.000000
v -0.019265 -0.241893 -0.013997
v -0.019265 -0.241893 0.013997
v -0.015649 -0.253800 -0.021539
v -0.018322 -0.267797 -0.013312
v -0.025321 -0.253800 0.008227
v -0.018322 -0.267797 0.013312
v 0.015649 -0.253800 0.021539
v 0.006999 -0.267797 0.021539
v 0.019265 -0.265706 -0.013997
v 0.006999 -0.267797 -0.021539
v 0.019265 -0.265706 -0.013997
v -0.004325 -0.276447 -0.013312
v -0.018322 -0.267797 -0.013312
v -0.007359 -0.265706 -0.022648
v -0.023813 -0.265706 0.000000
v -0.013997 -0.276447 0.000000
v -0.018322 -0.267797 0.013312
v -0.004325 -0.276447 0.013312
v 0.022648 -0.267797 0.000000
v 0.006999 -0.267797 0.021539
v -0.000000 -0.367739 0.000000
v 0.011324 -0.363763 0.008227
v -0.004325 -0.363763 0.013312
v 0.019265 -0.353022 0.013997
v 0.011324 -0.363763 0.008227
v 0.022648 -0.355113 0.000000
v -0.013997 -0.363763 0.000000
v -0.004325 -0.363763 -0.013312
v 0.011324 -0.363763 -0.008227
v 0.025321 -0.341115 0.008227
v -0.007359 -0.353022 0.022648
v 0.006999 -0.355113 0.021539
v -0.000000 -0.341115 0.026624
v -0.023813 -0.353022 0.000000
v -0.018322 -0.355113 0.013312
v -0.025321 -0.341115 0.008227
v -0.007359 -0.353022 -0.022648
v -0.018322 -0.355113 -0.013312
v -0.015649 -0.341115 -0.021539
v 0.019265 -0.353022 -0.013997
v 0.006999 -0.355113 -0.021539
v 0.015649 -0.341115 -0.021539
v 0.015649 -0.341115 0.021539
v -0.015649 -0.341115 0.021539
v -0.025321 -0.341115 -0.008227
v -0.000000 -0.341115 -0.026624
v 0.025321 -0.341115 -0.008227
v 0.007359 -0.329209 0.022648
v 0.018322 -0.327118 0.013312
v 0.004325 -0.318467 0.013312
v -0.019265 -0.329209 0.013997
v -0.006999 -0.327118 0.021539
v -0.011324 -0.318467 0.008227
v -0.019265 -0.329209 -0.013997
v -0.022648 -0.327118 0.000000
v -0.011324 -0.318467 -0.008227
v 0.007359 -0.329209 -0.022648
v -0.006999 -0.327118 -0.021539
v 0.004325 -0.318467 -0.013312
v 0.023813 -0.329209 0.000000
v 0.018322 -0.327118 -0.013312
v 0.013997 -0.318467 0.000000
v 0.013997 -0.318467 0.000000
v 0.004325 -0.318467 -0.013312
v -0.000000 -0.314491 0.000000
v 0.018322 -0.327118 -0.013312
v 0.007359 -0.329209 -0.022648
v -0.006999 -0.327118 -0.021539
v -0.011324 -0.318467 0.008227
v -0.019265 -0.329209 0.013997
v 0.004325 -0.318467 0.013312
v -0.006999 -0.327118 0.021539
v 0.007359 -0.329209 0.022648
v 0.004325 -0.318467 0.013312
v 0.018322 -0.327118 0.013312
v 0.025321 -0.341115 -0.008227
v 0.018322 -0.327118 -0.013312
v -0.019265 -0.329209 -0.013997
v -0.022648 -0.327118 0.000000
v -0.019265 -0.329209 -0.013997
v -0.019265 -0.329209 0.013997
v -0.015649 -0.341115 -0.021539
v -0.018322 -0.355113 -0.013312
v -0.025321 -0.341115 0.008227
v -0.018322 -0.355113 0.013312
v 0.015649 -0.341115 0.021539
v 0.006999 -0.355113 0.021539
v 0.019265 -0.353022 -0.013997
v 0.006999 -0.355113 -0.021539
v 0.019265 -0.353022 -0.013997
v -0.004325 -0.363763 -0.013312
v -0.018322 -0.355113 -0.013312
v -0.007359 -0.353022 -0.022648
v -0.023813 -0.353022 0.000000
v -0.013997 -0.363763 0.000000
v -0.018322 -0.355113 0.013312
v -0.004325 -0.363763 0.013312
v 0.022648 -0.355113 0.000000
v 0.006999 -0.355113 0.021539
v 0.028284 0.209655 0.050765
v 0.008994 0.235666 0.031480
v 0.015896 0.209655 0.055897
v 0.055897 0.209655 -0.015897
v -0.008994 0.235666 -0.031480
v -0.015896 0.209655 -0.055897
v -0.055897 0.209655 0.015896
v -0.031480 0.235666 0.008994
v -0.008899 0.241129 -0.026588
v 0.012508 0.241129 0.025093
v 0.008899 0.241129 0.026588
v 0.026588 0.241129 -0.008899
v -0.015905 0.304663 -0.048990
v 0.023395 0.304663 0.045887
v 0.015905 0.304663 0.048989
v 0.048990 0.304663 -0.015905
v 0.000000 0.305948 0.010593
v 0.015900 0.235666 0.028620
v 0.010593 0.305948 -0.000000
v 0.000000 0.305948 -0.010593
v 0.045887 0.304663 -0.023395
v 0.055897 0.209655 -0.015897
v 0.023395 0.304663 0.045887
v 0.015896 0.209655 0.055897
v -0.017520 0.207801 -0.000000
v -0.045887 0.304663 0.023395
v -0.007490 0.305948 0.007490
v -0.055897 0.209655 0.015896
v 0.008277 0.207801 -0.008277
v 0.008277 0.207801 0.008277
v -0.008277 0.207801 0.008277
v -0.008277 0.207801 -0.008277
v 0.000000 -0.341880 -0.011705
v 0.008277 -0.341880 -0.008277
v 0.011706 -0.341880 0.000000
v 0.000000 -0.341880 0.011706
v -0.008277 -0.341880 0.008277
v 0.008277 -0.341880 -0.008277
v -0.008277 -0.341880 -0.008277
v -0.023395 0.304663 -0.045887
v -0.028284 0.209655 -0.050766
v 0.001120 0.382261 -0.001120
v -0.015905 0.304663 -0.048990
v 0.001584 0.382261 -0.000000
v 0.001120 0.382261 -0.001120
v -0.001120 0.382261 -0.001120
v -0.001120 0.382261 0.001120
v 0.001120 0.382261 0.001120
v 0.001120 0.382261 0.001120
v -0.045887 0.304663 0.023395
v 0.045887 0.304663 -0.023395
v 0.048990 0.304663 -0.015905
v 0.050765 0.209655 -0.028285
v 0.015905 0.304663 0.048989
v 0.028284 0.209655 0.050765
v -0.048990 0.304663 0.015905
v -0.050766 0.209655 0.028284
vt 0.019570 0.995295
vt 0.034487 0.148803
vt 0.019570 0.148751
vt 0.082933 0.995347
vt 0.094876 0.148734
vt 0.082933 0.148781
vt 0.094876 0.995300
vt 0.111004 0.148738
vt 0.120310 0.995347
vt 0.131932 0.148746
vt 0.120310 0.149012
vt 0.131932 0.995081
vt 0.148075 0.148753
vt 0.043793 0.995347
vt 0.058710 0.148776
vt 0.043793 0.148868
vt 0.058710 0.995255
vt 0.073627 0.148868
vt 0.004653 0.995347
vt 0.004653 0.148803
vt 0.148075 0.004710
vt 0.131932 0.004703
vt 0.273906 0.254610
vt 0.273906 0.238464
vt 0.235062 0.254611
vt 0.004653 0.004726
vt 0.019570 0.004674
vt 0.111004 0.004656
vt 0.094876 0.004653
vt 0.058710 0.004709
vt 0.043793 0.004801
vt 0.120310 0.004969
vt 0.082933 0.004700
vt 0.611058 0.261062
vt 0.632083 0.253655
vt 0.622435 0.249645
vt 0.583591 0.233500
vt 0.573944 0.253656
vt 0.583591 0.249646
vt 0.594969 0.222082
vt 0.615054 0.212401
vt 0.590973 0.212401
vt 0.622435 0.233499
vt 0.611058 0.222082
vt 0.590973 0.270744
vt 0.615054 0.270743
vt 0.573944 0.229490
vt 0.632083 0.229489
vt 0.594969 0.261063
vt 0.639786 0.512531
vt 0.629674 0.506284
vt 0.647338 0.504734
vt 0.655604 0.512531
vt 0.661449 0.504734
vt 0.666789 0.512531
vt 0.643522 0.538787
vt 0.644419 0.512531
vt 0.648299 0.443068
vt 0.643405 0.506284
vt 0.649759 0.504734
vt 0.655604 0.538787
vt 0.644419 0.512531
vt 0.643522 0.538787
vt 0.627692 0.511611
vt 0.606095 0.536979
vt 0.655604 0.538787
vt 0.667686 0.538787
vt 0.672690 0.538787
vt 0.666789 0.512531
vt 0.667686 0.538787
vt 0.631131 0.506284
vt 0.645273 0.443068
vt 0.607827 0.444322
vt 0.686305 0.511611
vt 0.671422 0.512531
vt 0.640097 0.511611
vt 0.615054 0.212401
vt 0.655604 0.512531
vt 0.649759 0.504734
vt 0.661449 0.504734
vt 0.273499 0.857785
vt 0.289806 0.995341
vt 0.284306 0.857743
vt 0.655604 0.504734
vt 0.648299 0.443068
vt 0.663870 0.504734
vt 0.662909 0.443068
vt 0.655604 0.504734
vt 0.662909 0.443068
vt 0.230571 0.857675
vt 0.217072 0.857722
vt 0.217072 0.857722
vt 0.683516 0.511611
vt 0.705113 0.536979
vt 0.680076 0.506284
vt 0.628019 0.536979
vt 0.302682 0.671504
vt 0.304217 0.667775
vt 0.300512 0.666230
vt 0.340521 0.857657
vt 0.327022 0.995335
vt 0.329040 0.995347
vt 0.179344 0.857458
vt 0.187469 0.995312
vt 0.193953 0.857464
vt 0.291988 0.995341
vt 0.298901 0.857746
vt 0.232589 0.995347
vt 0.244070 0.857722
vt 0.228553 0.995347
vt 0.230571 0.995340
vt 0.327022 0.857574
vt 0.325004 0.995347
vt 0.168827 0.857698
vt 0.185285 0.995311
vt 0.727397 0.696312
vt 0.702916 0.698301
vt 0.722007 0.720915
vt 0.664986 0.671752
vt 0.660739 0.652304
vt 0.639336 0.667082
vt 0.749363 0.709663
vt 0.747179 0.680094
vt 0.718474 0.673072
vt 0.650752 0.692689
vt 0.357234 0.286680
vt 0.338970 0.271718
vt 0.333417 0.297406
vt 0.743773 0.600969
vt 0.719695 0.597985
vt 0.729518 0.622769
vt 0.691460 0.773981
vt 0.686568 0.754496
vt 0.665723 0.769286
vt 0.711232 0.817701
vt 0.705599 0.795973
vt 0.689107 0.820618
vt 0.679211 0.693737
vt 0.358863 0.312528
vt 0.759162 0.621984
vt 0.677485 0.794920
vt 0.696149 0.836564
vt 0.685382 0.715486
vt 0.662741 0.718395
vt 0.670722 0.734381
vt 0.357234 0.336817
vt 0.333417 0.326875
vt 0.338969 0.348870
vt 0.713697 0.254558
vt 0.705782 0.279341
vt 0.728883 0.267112
vt 0.663400 0.815909
vt 0.649230 0.793931
vt 0.643390 0.819018
vt 0.636966 0.713703
vt 0.617621 0.716860
vt 0.642264 0.733333
vt 0.772785 0.285716
vt 0.757650 0.260372
vt 0.748500 0.283958
vt 0.781096 0.261695
vt 0.762639 0.243091
vt 0.737193 0.243091
vt 0.726239 0.296621
vt 0.709198 0.304763
vt 0.753372 0.308119
vt 0.730270 0.320348
vt 0.313942 0.311089
vt 0.313523 0.333748
vt 0.776817 0.309442
vt 0.622867 0.691740
vt 0.668034 0.835511
vt 0.643390 0.772298
vt 0.745009 0.647663
vt 0.770129 0.643321
vt 0.719695 0.644656
vt 0.783152 0.621610
vt 0.767660 0.596716
vt 0.380143 0.325656
vt 0.380143 0.296187
vt 0.313523 0.286065
vt 0.685382 0.668777
vt 0.617544 0.670138
vt 0.738950 0.656969
vt 0.713398 0.656969
vt 0.711213 0.770990
vt 0.769840 0.693560
vt 0.762234 0.668915
vt 0.765949 0.719221
vt 0.743268 0.581884
vt 0.744667 0.734381
vt 0.367848 0.270965
vt 0.694688 0.675176
vt 0.698221 0.723019
vt 0.738491 0.368997
vt 0.714011 0.370986
vt 0.733101 0.393600
vt 0.613687 0.773935
vt 0.609440 0.754487
vt 0.588038 0.769265
vt 0.760457 0.382348
vt 0.758273 0.352779
vt 0.729568 0.345757
vt 0.599454 0.794872
vt 0.201092 0.281324
vt 0.182828 0.266362
vt 0.177275 0.292050
vt 0.641623 0.596303
vt 0.617544 0.593320
vt 0.627367 0.618103
vt 0.501898 0.295970
vt 0.497006 0.276485
vt 0.476161 0.291275
vt 0.521670 0.339689
vt 0.516037 0.317962
vt 0.499545 0.342607
vt 0.627912 0.795920
vt 0.202722 0.307173
vt 0.657011 0.617319
vt 0.487923 0.316909
vt 0.506587 0.358553
vt 0.634084 0.817669
vt 0.611442 0.820578
vt 0.619424 0.836564
vt 0.201092 0.331461
vt 0.177275 0.321520
vt 0.182828 0.343514
vt 0.728452 0.770774
vt 0.720537 0.795557
vt 0.743639 0.783328
vt 0.473838 0.337898
vt 0.459668 0.315920
vt 0.453828 0.341006
vt 0.585668 0.815887
vt 0.566322 0.819043
vt 0.590966 0.835516
vt 0.787541 0.801932
vt 0.772406 0.776588
vt 0.763256 0.800174
vt 0.795851 0.777911
vt 0.777394 0.759307
vt 0.751949 0.759307
vt 0.740995 0.812837
vt 0.723954 0.820979
vt 0.768127 0.824335
vt 0.745026 0.836564
vt 0.157800 0.305733
vt 0.157381 0.328392
vt 0.791573 0.825659
vt 0.571568 0.793923
vt 0.478472 0.357500
vt 0.453828 0.294287
vt 0.642858 0.642998
vt 0.667978 0.638656
vt 0.617544 0.639991
vt 0.681001 0.616945
vt 0.665510 0.592050
vt 0.224001 0.320301
vt 0.224001 0.290831
vt 0.157381 0.280710
vt 0.634084 0.770960
vt 0.566245 0.772321
vt 0.750045 0.329654
vt 0.724492 0.329654
vt 0.521651 0.292979
vt 0.780934 0.366245
vt 0.773328 0.341600
vt 0.777043 0.391906
vt 0.641118 0.577218
vt 0.755761 0.407066
vt 0.211706 0.265609
vt 0.705782 0.347861
vt 0.709315 0.395704
vt 0.683189 0.536979
vt 0.664376 0.511611
vt 0.671107 0.536979
vt 0.710118 0.536979
vt 0.646832 0.511611
vt 0.640101 0.536979
vt 0.601090 0.536979
vt 0.624903 0.511611
vt 0.646925 0.506284
vt 0.667802 0.506284
vt 0.664283 0.506284
vt 0.681534 0.506284
vt 0.640093 0.444322
vt 0.678420 0.444322
vt 0.671115 0.444322
vt 0.703381 0.444322
vt 0.655604 0.443068
vt 0.671110 0.511611
vt 0.665934 0.443068
vt 0.655604 0.443068
vt 0.273499 0.857785
vt 0.573944 0.229490
vt 0.168827 0.857698
vt 0.590973 0.270744
vt 0.638518 0.538787
vt 0.313523 0.857657
vt 0.313523 0.857657
vt 0.632083 0.253655
vt 0.034487 0.995347
vt 0.111004 0.995304
vt 0.148075 0.995088
vt 0.073627 0.995347
vt 0.262529 0.227047
vt 0.246440 0.227047
vt 0.235062 0.238464
vt 0.246440 0.266028
vt 0.262529 0.266027
vt 0.034487 0.004726
vt 0.073627 0.004801
vt 0.632788 0.444322
vt 0.632083 0.229489
vt 0.288190 0.995347
vt 0.230571 0.857675
vt 0.298977 0.669959
vt 0.300512 0.671504
vt 0.304217 0.669959
vt 0.302682 0.666230
vt 0.298977 0.667775
vt 0.183712 0.995347
vt 0.610852 0.444322
vt 0.700356 0.444322
vt 0.284306 0.857743
vt 0.590973 0.212401
vt 0.179344 0.857458
vt 0.573944 0.253656
vt 0.327022 0.857574
vt 0.615054 0.270743
vn 0.000002 -0.804191 -0.594371
vn 0.707105 0.000000 -0.707109
vn -0.000002 -0.000000 -1.000000
vn 0.420286 -0.804190 -0.420284
vn 1.000000 0.000001 -0.000001
vn 0.707105 0.000000 -0.707109
vn 0.594375 -0.804188 0.000001
vn 0.707107 0.000001 0.707106
vn 0.420284 -0.804190 0.420286
vn 0.000001 0.000000 1.000000
vn 0.707107 0.000001 0.707106
vn -0.000001 -0.804191 0.594371
vn -0.707107 -0.000000 0.707107
vn -0.420287 -0.804188 0.420285
vn -1.000000 -0.000001 0.000001
vn -0.707107 -0.000000 0.707107
vn -0.594371 -0.804191 -0.000001
vn -0.707108 -0.000000 -0.707105
vn -0.420285 -0.804189 -0.420287
vn -0.707108 -0.000000 -0.707105
vn -0.548984 -0.630263 0.548986
vn 0.000000 -0.630255 0.776388
vn -0.776379 -0.630267 0.000000
vn -0.548993 -0.630247 -0.548995
vn 0.549004 -0.630228 0.549005
vn -0.548993 -0.630247 -0.548995
vn 0.000002 -0.630268 -0.776377
vn 0.549004 -0.630228 0.549005
vn 0.776388 -0.630255 0.000000
vn -0.776379 -0.630267 0.000000
vn -0.548984 -0.630263 0.548986
vn 0.549004 -0.630228 0.549005
vn 0.548986 -0.630263 -0.548984
vn -0.420287 -0.804188 0.420285
vn -0.455917 -0.785922 -0.417692
vn -0.594371 -0.804191 -0.000001
vn 0.594375 -0.804188 0.000001
vn 0.617751 -0.785909 0.027030
vn 0.420284 -0.804190 0.420286
vn 0.420286 -0.804190 -0.420284
vn 0.417690 -0.785930 -0.455906
vn 0.027030 -0.785909 -0.617750
vn -0.420285 -0.804189 -0.420287
vn 0.000002 -0.804191 -0.594371
vn -0.417689 -0.785930 0.455906
vn -0.027030 -0.785904 0.617758
vn 0.455917 -0.785918 0.417699
vn -0.617748 -0.785912 -0.027023
vn -0.000001 -0.804191 0.594371
vn -0.674995 0.307224 -0.670817
vn -0.845618 0.279793 -0.454583
vn -0.728100 0.287291 -0.622362
vn 0.670816 0.307224 -0.674996
vn 0.074768 0.287292 -0.954921
vn 0.002952 0.307222 -0.951633
vn -0.617748 -0.785912 -0.027023
vn -0.951634 0.307220 -0.002955
vn -0.873880 0.322469 -0.363795
vn -0.919378 0.279793 -0.276515
vn -0.954921 0.287290 -0.074770
vn -0.417689 -0.785930 0.455906
vn -0.002953 0.307222 0.951633
vn -0.027030 -0.785904 0.617758
vn -0.219459 0.537576 0.814156
vn -0.490023 -0.297524 0.819364
vn 0.417690 -0.785930 -0.455906
vn 0.027030 -0.785909 -0.617750
vn 0.455917 -0.785918 0.417699
vn 0.951633 0.307222 0.002953
vn 0.617751 -0.785909 0.027030
vn -0.276515 0.279793 0.919378
vn -0.875171 0.322464 -0.360684
vn -0.849079 0.456194 -0.266369
vn 0.730877 0.537578 0.420511
vn 0.674997 0.307224 0.670815
vn -0.814154 0.537578 -0.219463
vn 0.232885 -0.297476 -0.925890
vn -0.670815 0.307224 0.674997
vn -0.074769 0.287292 0.954920
vn 0.954920 0.287292 0.074769
vn 0.363794 0.322469 -0.873881
vn 0.738885 0.673831 -0.000005
vn 0.875170 0.322463 0.360685
vn -0.622360 0.287290 0.728102
vn -0.363796 0.322469 0.873880
vn 0.728102 0.287290 0.622361
vn 0.873880 0.322468 0.363796
vn 0.622361 0.287289 -0.728101
vn 0.363794 0.322469 -0.873881
vn 0.360685 0.322463 -0.875171
vn -0.788745 0.456181 -0.412043
vn -0.873880 0.322469 -0.363795
vn 0.219461 0.537577 -0.814155
vn 0.489983 -0.297588 -0.819365
vn 0.276513 0.279794 -0.919378
vn -0.819365 -0.297587 -0.489983
vn 0.000003 0.673850 -0.738868
vn -0.738883 0.673834 -0.000005
vn 0.000008 0.673845 0.738873
vn -0.873880 0.322469 -0.363795
vn -0.738883 0.673834 -0.000005
vn -0.522486 0.673825 -0.522464
vn -0.360684 0.322464 0.875171
vn -0.522439 0.673846 0.522484
vn -0.363796 0.322469 0.873880
vn 0.522450 0.673846 0.522473
vn 0.873880 0.322468 0.363796
vn 0.522497 0.673819 -0.522460
vn 0.363794 0.322469 -0.873881
vn -0.522486 0.673825 -0.522464
vn 0.000003 0.673850 -0.738868
vn -0.875171 0.322464 -0.360684
vn -0.522439 0.673846 0.522484
vn 0.873880 0.322468 0.363796
vn 0.000008 0.673845 0.738873
vn -0.000002 -1.000000 0.000000
vn 0.425323 -0.850653 0.309014
vn -0.162457 -0.850653 0.499997
vn 0.723607 -0.447217 0.525728
vn 0.425323 -0.850653 0.309014
vn 0.850648 -0.525735 0.000000
vn -0.525729 -0.850652 0.000000
vn -0.162457 -0.850653 -0.499997
vn 0.425323 -0.850653 -0.309014
vn 0.951057 -0.000001 0.309016
vn -0.276389 -0.447218 0.850650
vn 0.262869 -0.525735 0.809013
vn -0.000000 -0.000000 1.000000
vn -0.894426 -0.447216 0.000000
vn -0.688189 -0.525735 0.499999
vn -0.951057 0.000001 0.309015
vn -0.276389 -0.447218 -0.850650
vn -0.688189 -0.525735 -0.499999
vn -0.587786 -0.000001 -0.809017
vn 0.723607 -0.447217 -0.525728
vn 0.262869 -0.525735 -0.809013
vn 0.587786 -0.000000 -0.809017
vn 0.587786 -0.000000 0.809017
vn -0.587786 -0.000000 0.809017
vn -0.951057 0.000001 -0.309015
vn -0.000000 -0.000001 -1.000000
vn 0.951057 -0.000001 -0.309015
vn 0.276388 0.447218 0.850650
vn 0.688189 0.525735 0.499999
vn 0.162457 0.850653 0.499997
vn -0.723608 0.447217 0.525726
vn -0.262869 0.525735 0.809013
vn -0.425325 0.850653 0.309013
vn -0.723608 0.447217 -0.525726
vn -0.850649 0.525734 -0.000000
vn -0.425324 0.850653 -0.309013
vn 0.276389 0.447218 -0.850650
vn -0.262869 0.525735 -0.809013
vn 0.162457 0.850653 -0.499997
vn 0.894427 0.447214 -0.000000
vn 0.688189 0.525735 -0.499999
vn 0.525730 0.850652 -0.000000
vn 0.525730 0.850652 -0.000000
vn 0.162457 0.850653 -0.499997
vn 0.000001 1.000000 -0.000000
vn 0.688189 0.525735 -0.499999
vn 0.276389 0.447218 -0.850650
vn -0.262869 0.525735 -0.809013
vn -0.425325 0.850653 0.309013
vn -0.723608 0.447217 0.525726
vn 0.162457 0.850653 0.499997
vn -0.262869 0.525735 0.809013
vn 0.276388 0.447218 0.850650
vn 0.162457 0.850653 0.499997
vn 0.688189 0.525735 0.499999
vn 0.951057 -0.000001 -0.309015
vn 0.688189 0.525735 -0.499999
vn -0.723608 0.447217 -0.525726
vn -0.850649 0.525734 -0.000000
vn -0.723608 0.447217 -0.525726
vn -0.723608 0.447217 0.525726
vn -0.587786 -0.000001 -0.809017
vn -0.688189 -0.525735 -0.499999
vn -0.951057 0.000001 0.309015
vn -0.688189 -0.525735 0.499999
vn 0.587786 -0.000000 0.809017
vn 0.262869 -0.525735 0.809013
vn 0.723607 -0.447217 -0.525728
vn 0.262869 -0.525735 -0.809013
vn 0.723607 -0.447217 -0.525728
vn -0.162457 -0.850653 -0.499997
vn -0.688189 -0.525735 -0.499999
vn -0.276389 -0.447218 -0.850650
vn -0.894426 -0.447216 0.000000
vn -0.525729 -0.850652 0.000000
vn -0.688189 -0.525735 0.499999
vn -0.162457 -0.850653 0.499997
vn 0.850648 -0.525735 0.000000
vn 0.262869 -0.525735 0.809013
vn -0.000001 -1.000000 0.000000
vn 0.425323 -0.850653 0.309014
vn -0.162456 -0.850654 0.499996
vn 0.723607 -0.447218 0.525727
vn 0.425323 -0.850653 0.309014
vn 0.850648 -0.525735 0.000000
vn -0.525729 -0.850652 0.000000
vn -0.162456 -0.850654 -0.499996
vn 0.425323 -0.850653 -0.309013
vn 0.951057 -0.000000 0.309015
vn -0.276389 -0.447219 0.850650
vn 0.262869 -0.525735 0.809013
vn 0.000000 -0.000000 1.000000
vn -0.894426 -0.447216 0.000000
vn -0.688189 -0.525734 0.499999
vn -0.951057 0.000001 0.309015
vn -0.276389 -0.447219 -0.850649
vn -0.688189 -0.525735 -0.499999
vn -0.587786 -0.000000 -0.809016
vn 0.723607 -0.447218 -0.525727
vn 0.262869 -0.525735 -0.809013
vn 0.587786 -0.000000 -0.809016
vn 0.587785 0.000000 0.809017
vn -0.587786 0.000000 0.809016
vn -0.951057 0.000001 -0.309015
vn 0.000000 -0.000000 -1.000000
vn 0.951057 -0.000001 -0.309016
vn 0.276390 0.447217 0.850650
vn 0.688190 0.525734 0.499999
vn 0.162458 0.850653 0.499996
vn -0.723609 0.447216 0.525727
vn -0.262869 0.525735 0.809013
vn -0.425324 0.850653 0.309013
vn -0.723609 0.447216 -0.525727
vn -0.850649 0.525733 -0.000000
vn -0.425324 0.850653 -0.309013
vn 0.276390 0.447217 -0.850650
vn -0.262869 0.525735 -0.809013
vn 0.162458 0.850653 -0.499997
vn 0.894427 0.447215 -0.000000
vn 0.688189 0.525734 -0.500000
vn 0.525730 0.850652 -0.000000
vn 0.525730 0.850652 -0.000000
vn 0.162458 0.850653 -0.499997
vn 0.000002 1.000000 -0.000000
vn 0.688189 0.525734 -0.500000
vn 0.276390 0.447217 -0.850650
vn -0.262869 0.525735 -0.809013
vn -0.425324 0.850653 0.309013
vn -0.723609 0.447216 0.525727
vn 0.162458 0.850653 0.499996
vn -0.262869 0.525735 0.809013
vn 0.276390 0.447217 0.850650
vn 0.162458 0.850653 0.499996
vn 0.688190 0.525734 0.499999
vn 0.951057 -0.000001 -0.309016
vn 0.688189 0.525734 -0.500000
vn -0.723609 0.447216 -0.525727
vn -0.850649 0.525733 -0.000000
vn -0.723609 0.447216 -0.525727
vn -0.723609 0.447216 0.525727
vn -0.587786 -0.000000 -0.809016
vn -0.688189 -0.525735 -0.499999
vn -0.951057 0.000001 0.309015
vn -0.688189 -0.525734 0.499999
vn 0.587785 0.000000 0.809017
vn 0.262869 -0.525735 0.809013
vn 0.723607 -0.447218 -0.525727
vn 0.262869 -0.525735 -0.809013
vn 0.723607 -0.447218 -0.525727
vn -0.162456 -0.850654 -0.499996
vn -0.688189 -0.525735 -0.499999
vn -0.276389 -0.447219 -0.850649
vn -0.894426 -0.447216 0.000000
vn -0.525729 -0.850652 0.000000
vn -0.688189 -0.525734 0.499999
vn -0.162456 -0.850654 0.499996
vn 0.850648 -0.525735 0.000000
vn 0.262869 -0.525735 0.809013
vn 0.819364 -0.297588 0.489985
vn -0.420512 0.537577 0.730877
vn -0.232887 -0.297476 0.925890
vn 0.925890 -0.297476 0.232885
vn 0.420512 0.537577 -0.730876
vn 0.232885 -0.297476 -0.925890
vn -0.925863 -0.297538 -0.232914
vn -0.730877 0.537578 -0.420509
vn 0.454583 0.279794 -0.845618
vn 0.919378 0.279798 0.276507
vn -0.454577 0.279789 0.845623
vn 0.845618 0.279796 0.454582
vn 0.266369 0.456194 -0.849079
vn 0.788746 0.456182 0.412041
vn -0.266368 0.456193 0.849079
vn 0.849080 0.456193 0.266367
vn -0.360684 0.322464 0.875171
vn 0.814154 0.537578 0.219461
vn 0.875170 0.322463 0.360685
vn 0.360685 0.322463 -0.875171
vn 0.412042 0.456180 -0.788746
vn 0.925890 -0.297476 0.232885
vn 0.788746 0.456182 0.412041
vn -0.232887 -0.297476 0.925890
vn -0.455917 -0.785922 -0.417692
vn -0.412042 0.456181 0.788746
vn -0.363796 0.322469 0.873880
vn -0.925863 -0.297538 -0.232914
vn 0.420286 -0.804190 -0.420284
vn 0.420284 -0.804190 0.420286
vn -0.420287 -0.804188 0.420285
vn -0.420285 -0.804189 -0.420287
vn 0.000002 -0.630268 -0.776377
vn 0.548986 -0.630263 -0.548984
vn 0.776388 -0.630255 0.000000
vn 0.000000 -0.630255 0.776388
vn -0.548984 -0.630263 0.548986
vn 0.548986 -0.630263 -0.548984
vn -0.548993 -0.630247 -0.548995
vn -0.788745 0.456181 -0.412043
vn -0.819365 -0.297587 -0.489983
vn 0.522497 0.673819 -0.522460
vn 0.266369 0.456194 -0.849079
vn 0.738885 0.673831 -0.000005
vn 0.522497 0.673819 -0.522460
vn -0.522486 0.673825 -0.522464
vn -0.522439 0.673846 0.522484
vn 0.522450 0.673846 0.522473
vn 0.522450 0.673846 0.522473
vn -0.412042 0.456181 0.788746
vn 0.412042 0.456180 -0.788746
vn 0.849080 0.456193 0.266367
vn 0.489983 -0.297588 -0.819365
vn -0.266368 0.456193 0.849079
vn 0.819364 -0.297588 0.489985
vn -0.849079 0.456194 -0.266369
vn -0.490023 -0.297524 0.819364
f 1/1/1 2/2/2 3/3/3
f 4/4/4 5/5/5 6/6/6
f 7/7/7 8/8/8 5/5/5
f 9/9/9 10/10/10 11/11/11
f 12/12/12 13/13/13 10/10/10
f 14/14/14 15/15/15 16/16/16
f 17/17/17 18/18/18 15/15/15
f 19/19/19 3/3/3 20/20/20
f 10/10/10 21/21/21 22/22/22
f 23/23/23 24/24/24 25/25/25
f 3/3/3 26/26/26 20/20/20
f 2/2/2 27/27/27 3/3/3
f 5/5/5 28/28/28 29/29/29
f 16/16/16 30/30/30 31/31/31
f 10/10/10 32/32/32 11/11/11
f 18/18/18 30/30/30 15/15/15
f 5/5/5 33/33/33 6/6/6
f 34/34/34 35/35/35 36/36/36
f 37/37/37 38/38/38 39/39/39
f 40/40/40 41/41/41 42/42/42
f 43/43/43 41/41/41 44/44/44
f 34/34/34 45/45/45 46/46/46
f 37/37/37 42/42/42 47/47/47
f 43/43/43 35/35/35 48/48/48
f 39/39/39 45/45/45 49/49/49
f 50/50/50 51/51/51 52/52/52
f 53/53/53 54/54/54 55/55/55
f 56/56/56 50/50/50 57/57/57
f 58/58/58 59/59/59 60/60/60
f 61/61/61 62/62/62 63/63/63
f 63/63/63 64/64/64 65/65/65
f 66/66/66 55/55/55 67/67/67
f 68/68/68 69/69/69 70/70/70
f 62/62/62 71/71/71 64/64/64
f 60/60/60 72/72/72 58/58/58
f 72/72/72 51/51/51 73/73/73
f 68/68/68 74/74/74 75/75/75
f 57/57/57 59/59/59 76/76/76
f 48/48/48 77/77/77 41/41/41
f 50/50/50 60/60/60 57/57/57
f 78/78/78 79/79/79 62/62/62
f 75/75/75 80/80/80 69/69/69
f 81/81/81 82/82/82 83/83/83
f 84/84/84 85/85/85 79/79/79
f 86/86/86 87/87/87 80/80/80
f 88/88/88 89/89/89 54/54/54
f 90/90/90 91/91/91 92/92/92
f 67/67/67 93/93/93 94/94/94
f 55/55/55 95/95/95 93/93/93
f 56/56/56 76/76/76 96/96/96
f 97/97/97 98/98/98 99/99/99
f 100/100/100 101/101/101 102/102/102
f 103/103/103 104/104/104 105/105/105
f 83/83/83 106/106/106 107/107/107
f 90/90/90 108/108/108 109/109/109
f 90/90/90 110/110/110 111/111/111
f 112/112/112 113/113/113 101/101/101
f 114/114/114 115/115/115 103/103/103
f 116/116/116 117/117/117 118/118/118
f 119/119/119 120/120/120 121/121/121
f 116/116/116 118/118/118 122/122/122
f 116/116/116 122/122/122 123/123/123
f 116/116/116 123/123/123 124/124/124
f 119/119/119 121/121/121 125/125/125
f 126/126/126 127/127/127 128/128/128
f 129/129/129 130/130/130 131/131/131
f 132/132/132 133/133/133 134/134/134
f 135/135/135 136/136/136 137/137/137
f 119/119/119 125/125/125 138/138/138
f 126/126/126 128/128/128 139/139/139
f 129/129/129 131/131/131 140/140/140
f 132/132/132 134/134/134 141/141/141
f 135/135/135 137/137/137 142/142/142
f 143/143/143 144/144/144 145/145/145
f 146/146/146 147/147/147 148/148/148
f 149/149/149 150/150/150 151/151/151
f 152/152/152 153/153/153 154/154/154
f 155/155/155 156/156/156 157/157/157
f 158/158/158 159/159/159 160/160/160
f 158/158/158 161/161/161 159/159/159
f 161/161/161 162/162/162 159/159/159
f 159/159/159 151/151/151 160/160/160
f 159/159/159 163/163/163 151/151/151
f 163/163/163 149/149/149 151/151/151
f 151/151/151 164/164/164 160/160/160
f 151/151/151 150/150/150 164/164/164
f 150/150/150 165/165/165 164/164/164
f 164/164/164 166/166/166 160/160/160
f 164/164/164 167/167/167 166/166/166
f 147/147/147 168/168/168 169/169/169
f 166/166/166 158/158/158 160/160/160
f 166/166/166 170/170/170 158/158/158
f 144/144/144 155/155/155 157/157/157
f 171/171/171 156/156/156 155/155/155
f 142/142/142 137/137/137 172/172/172
f 137/137/137 152/152/152 172/172/172
f 141/141/141 153/153/153 152/152/152
f 141/141/141 134/134/134 153/153/153
f 134/134/134 173/173/173 153/153/153
f 140/140/140 174/174/174 175/175/175
f 140/140/140 131/131/131 174/174/174
f 131/131/131 176/176/176 174/174/174
f 139/139/139 147/147/147 146/146/146
f 139/139/139 128/128/128 147/147/147
f 128/128/128 168/168/168 147/147/147
f 138/138/138 144/144/144 143/143/143
f 138/138/138 125/125/125 144/144/144
f 125/125/125 155/155/155 144/144/144
f 137/137/137 141/141/141 152/152/152
f 137/137/137 136/136/136 141/141/141
f 136/136/136 132/132/132 141/141/141
f 177/177/177 140/140/140 175/175/175
f 177/177/177 178/178/178 140/140/140
f 178/178/178 129/129/129 140/140/140
f 179/179/179 139/139/139 146/146/146
f 179/179/179 180/180/180 139/139/139
f 180/180/180 126/126/126 139/139/139
f 128/128/128 181/181/181 168/168/168
f 128/128/128 127/127/127 181/181/181
f 182/182/182 119/119/119 138/138/138
f 125/125/125 171/171/171 155/155/155
f 125/125/125 121/121/121 171/171/171
f 121/121/121 183/183/183 171/171/171
f 124/124/124 184/184/184 185/185/185
f 124/124/124 123/123/123 184/184/184
f 186/186/186 132/132/132 136/136/136
f 123/123/123 187/187/187 188/188/188
f 123/123/123 122/122/122 187/187/187
f 122/122/122 189/189/189 187/187/187
f 190/190/190 130/130/130 129/129/129
f 122/122/122 118/118/118 191/191/191
f 192/192/192 126/126/126 180/180/180
f 193/193/193 124/124/124 185/185/185
f 193/193/193 117/117/117 124/124/124
f 117/117/117 116/116/116 124/124/124
f 192/192/192 127/127/127 126/126/126
f 118/118/118 117/117/117 194/194/194
f 120/120/120 119/119/119 182/182/182
f 195/195/195 196/196/196 197/197/197
f 198/198/198 199/199/199 200/200/200
f 195/195/195 197/197/197 201/201/201
f 195/195/195 201/201/201 202/202/202
f 195/195/195 202/202/202 203/203/203
f 198/198/198 200/200/200 204/204/204
f 205/205/205 206/206/206 207/207/207
f 208/208/208 209/209/209 210/210/210
f 211/211/211 212/212/212 213/213/213
f 214/214/214 215/215/215 216/216/216
f 198/198/198 204/204/204 217/217/217
f 205/205/205 207/207/207 218/218/218
f 208/208/208 210/210/210 219/219/219
f 211/211/211 213/213/213 220/220/220
f 214/214/214 216/216/216 221/221/221
f 222/222/222 223/223/223 224/224/224
f 225/225/225 226/226/226 227/227/227
f 228/228/228 229/229/229 230/230/230
f 231/231/231 232/232/232 233/233/233
f 234/234/234 235/235/235 236/236/236
f 237/237/237 238/238/238 239/239/239
f 237/237/237 240/240/240 238/238/238
f 240/240/240 241/241/241 238/238/238
f 238/238/238 230/230/230 239/239/239
f 238/238/238 242/242/242 230/230/230
f 242/242/242 228/228/228 230/230/230
f 230/230/230 243/243/243 239/239/239
f 230/230/230 229/229/229 243/243/243
f 229/229/229 244/244/244 243/243/243
f 243/243/243 245/245/245 239/239/239
f 243/243/243 246/246/246 245/245/245
f 226/226/226 247/247/247 248/248/248
f 245/245/245 237/237/237 239/239/239
f 245/245/245 249/249/249 237/237/237
f 223/223/223 234/234/234 236/236/236
f 250/250/250 235/235/235 234/234/234
f 221/221/221 216/216/216 251/251/251
f 216/216/216 231/231/231 251/251/251
f 220/220/220 232/232/232 231/231/231
f 220/220/220 213/213/213 232/232/232
f 213/213/213 252/252/252 232/232/232
f 219/219/219 253/253/253 254/254/254
f 219/219/219 210/210/210 253/253/253
f 210/210/210 255/255/255 253/253/253
f 218/218/218 226/226/226 225/225/225
f 218/218/218 207/207/207 226/226/226
f 207/207/207 247/247/247 226/226/226
f 217/217/217 223/223/223 222/222/222
f 217/217/217 204/204/204 223/223/223
f 204/204/204 234/234/234 223/223/223
f 216/216/216 220/220/220 231/231/231
f 216/216/216 215/215/215 220/220/220
f 215/215/215 211/211/211 220/220/220
f 256/256/256 219/219/219 254/254/254
f 256/256/256 257/257/257 219/219/219
f 257/257/257 208/208/208 219/219/219
f 258/258/258 218/218/218 225/225/225
f 258/258/258 259/259/259 218/218/218
f 259/259/259 205/205/205 218/218/218
f 207/207/207 260/260/260 247/247/247
f 207/207/207 206/206/206 260/260/260
f 261/261/261 198/198/198 217/217/217
f 204/204/204 250/250/250 234/234/234
f 204/204/204 200/200/200 250/250/250
f 200/200/200 262/262/262 250/250/250
f 203/203/203 263/263/263 264/264/264
f 203/203/203 202/202/202 263/263/263
f 265/265/265 211/211/211 215/215/215
f 202/202/202 266/266/266 267/267/267
f 202/202/202 201/201/201 266/266/266
f 201/201/201 268/268/268 266/266/266
f 269/269/269 209/209/209 208/208/208
f 201/201/201 197/197/197 270/270/270
f 271/271/271 205/205/205 259/259/259
f 272/272/272 203/203/203 264/264/264
f 272/272/272 196/196/196 203/203/203
f 196/196/196 195/195/195 203/203/203
f 271/271/271 206/206/206 205/205/205
f 197/197/197 196/196/196 273/273/273
f 199/199/199 198/198/198 261/261/261
f 274/274/274 275/275/275 276/276/276
f 94/94/94 74/74/74 277/277/277
f 96/96/96 278/278/278 279/279/279
f 280/280/280 64/64/64 281/281/281
f 278/278/278 59/59/59 282/282/282
f 281/281/281 71/71/71 51/51/51
f 275/275/275 283/283/283 284/284/284
f 74/74/74 95/95/95 285/285/285
f 59/59/59 286/286/286 282/282/282
f 71/71/71 73/73/73 51/51/51
f 284/284/284 287/287/287 288/288/288
f 95/95/95 289/289/289 285/285/285
f 66/66/66 278/278/278 53/53/53
f 290/290/290 284/284/284 288/288/288
f 69/69/69 283/283/283 291/291/291
f 85/85/85 71/71/71 79/79/79
f 78/78/78 284/284/284 84/84/84
f 292/292/292 285/285/285 289/289/289
f 75/75/75 285/285/285 86/86/86
f 87/87/87 283/283/283 80/80/80
f 293/293/293 282/282/282 286/286/286
f 83/83/83 294/294/294 81/81/81
f 42/42/42 295/295/295 47/47/47
f 89/89/89 95/95/95 54/54/54
f 70/70/70 291/291/291 274/274/274
f 103/103/103 296/296/296 114/114/114
f 38/38/38 297/297/297 45/45/45
f 61/61/61 275/275/275 78/78/78
f 298/298/298 281/281/281 50/50/50
f 112/112/112 299/299/299 300/300/300
f 46/46/46 301/301/301 35/35/35
f 53/53/53 282/282/282 88/88/88
f 1/1/1 302/302/302 2/2/2
f 4/4/4 7/7/7 5/5/5
f 7/7/7 303/303/303 8/8/8
f 9/9/9 12/12/12 10/10/10
f 12/12/12 304/304/304 13/13/13
f 14/14/14 17/17/17 15/15/15
f 17/17/17 305/305/305 18/18/18
f 19/19/19 1/1/1 3/3/3
f 10/10/10 13/13/13 21/21/21
f 24/24/24 306/306/306 25/25/25
f 306/306/306 307/307/307 25/25/25
f 307/307/307 308/308/308 25/25/25
f 25/25/25 309/309/309 310/310/310
f 310/310/310 23/23/23 25/25/25
f 3/3/3 27/27/27 26/26/26
f 2/2/2 311/311/311 27/27/27
f 5/5/5 8/8/8 28/28/28
f 16/16/16 15/15/15 30/30/30
f 10/10/10 22/22/22 32/32/32
f 18/18/18 312/312/312 30/30/30
f 5/5/5 29/29/29 33/33/33
f 34/34/34 46/46/46 35/35/35
f 37/37/37 47/47/47 38/38/38
f 40/40/40 44/44/44 41/41/41
f 43/43/43 48/48/48 41/41/41
f 34/34/34 49/49/49 45/45/45
f 37/37/37 40/40/40 42/42/42
f 43/43/43 36/36/36 35/35/35
f 39/39/39 38/38/38 45/45/45
f 50/50/50 281/281/281 51/51/51
f 53/53/53 88/88/88 54/54/54
f 56/56/56 298/298/298 50/50/50
f 58/58/58 313/313/313 59/59/59
f 61/61/61 78/78/78 62/62/62
f 63/63/63 62/62/62 64/64/64
f 66/66/66 53/53/53 55/55/55
f 68/68/68 75/75/75 69/69/69
f 62/62/62 79/79/79 71/71/71
f 60/60/60 52/52/52 72/72/72
f 72/72/72 52/52/52 51/51/51
f 68/68/68 277/277/277 74/74/74
f 57/57/57 60/60/60 59/59/59
f 48/48/48 314/314/314 77/77/77
f 50/50/50 52/52/52 60/60/60
f 78/78/78 84/84/84 79/79/79
f 75/75/75 86/86/86 80/80/80
f 81/81/81 315/315/315 82/82/82
f 84/84/84 290/290/290 85/85/85
f 86/86/86 292/292/292 87/87/87
f 88/88/88 293/293/293 89/89/89
f 90/90/90 316/316/316 91/91/91
f 67/67/67 55/55/55 93/93/93
f 55/55/55 54/54/54 95/95/95
f 56/56/56 57/57/57 76/76/76
f 317/317/317 318/318/318 97/97/97
f 97/97/97 319/319/319 98/98/98
f 98/98/98 320/320/320 99/99/99
f 99/99/99 321/321/321 317/317/317
f 317/317/317 97/97/97 99/99/99
f 100/100/100 112/112/112 101/101/101
f 103/103/103 115/115/115 104/104/104
f 83/83/83 82/82/82 106/106/106
f 90/90/90 111/111/111 108/108/108
f 90/90/90 92/92/92 110/110/110
f 112/112/112 300/300/300 113/113/113
f 114/114/114 322/322/322 115/115/115
f 274/274/274 291/291/291 275/275/275
f 94/94/94 93/93/93 74/74/74
f 96/96/96 76/76/76 278/278/278
f 280/280/280 65/65/65 64/64/64
f 278/278/278 76/76/76 59/59/59
f 281/281/281 64/64/64 71/71/71
f 275/275/275 291/291/291 283/283/283
f 74/74/74 93/93/93 95/95/95
f 59/59/59 313/313/313 286/286/286
f 71/71/71 323/323/323 73/73/73
f 284/284/284 283/283/283 287/287/287
f 95/95/95 324/324/324 289/289/289
f 66/66/66 279/279/279 278/278/278
f 290/290/290 84/84/84 284/284/284
f 69/69/69 80/80/80 283/283/283
f 85/85/85 323/323/323 71/71/71
f 78/78/78 275/275/275 284/284/284
f 292/292/292 86/86/86 285/285/285
f 75/75/75 74/74/74 285/285/285
f 87/87/87 287/287/287 283/283/283
f 293/293/293 88/88/88 282/282/282
f 83/83/83 325/325/325 294/294/294
f 42/42/42 326/326/326 295/295/295
f 89/89/89 324/324/324 95/95/95
f 70/70/70 69/69/69 291/291/291
f 103/103/103 327/327/327 296/296/296
f 38/38/38 328/328/328 297/297/297
f 61/61/61 276/276/276 275/275/275
f 298/298/298 280/280/280 281/281/281
f 112/112/112 329/329/329 299/299/299
f 46/46/46 330/330/330 301/301/301
f 53/53/53 278/278/278 282/282/282
