# Cube -- imported by tools/import_asset_pack.py from bandaz.fbx
o __pending__
v 0.011327 -0.047259 -0.011327
v -0.000000 -0.046673 -0.006650
v -0.000000 -0.047259 -0.016019
v -0.016019 -0.047259 0.000000
v -0.004702 -0.046673 0.004702
v -0.011327 -0.047259 0.011327
v 0.000000 0.049735 -0.039461
v 0.026228 0.033096 -0.026228
v 0.000000 0.033096 -0.037091
v 0.011327 0.046344 -0.011327
v 0.008205 0.047370 -0.000000
v 0.016019 0.046344 -0.000000
v 0.011327 -0.047259 0.011327
v 0.006650 -0.046673 0.000000
v 0.016019 -0.047259 0.000000
v 0.027903 0.049735 -0.027903
v 0.037091 0.033096 -0.000000
v 0.026228 0.033096 -0.026228
v -0.011327 -0.047259 0.011327
v -0.000000 -0.046673 0.006650
v -0.000000 -0.047259 0.016019
v -0.011327 0.046344 -0.011327
v -0.008205 0.047370 -0.000000
v -0.005802 0.047370 -0.005802
v 0.039461 0.049735 -0.000000
v 0.026228 0.033096 0.026228
v 0.037091 0.033096 -0.000000
v 0.016019 -0.047259 0.000000
v 0.004702 -0.046673 -0.004702
v 0.011327 -0.047259 -0.011327
v 0.000000 0.046344 0.016019
v 0.005802 0.047370 0.005802
v 0.000000 0.047370 0.008205
v 0.027903 0.049735 0.027903
v 0.000000 0.033096 0.037091
v 0.026228 0.033096 0.026228
v -0.011327 0.046344 0.011327
v -0.008205 0.047370 -0.000000
v -0.016019 0.046344 -0.000000
v 0.011327 0.046344 -0.011327
v 0.000000 0.047370 -0.008205
v 0.005802 0.047370 -0.005802
v 0.000000 0.049735 0.039461
v -0.026228 0.033096 0.026228
v 0.000000 0.033096 0.037091
v 0.011327 0.046344 0.011327
v 0.008205 0.047370 -0.000000
v 0.005802 0.047370 0.005802
v -0.005802 0.047370 -0.005802
v -0.000000 -0.046673 -0.006650
v 0.000000 0.047370 -0.008205
v -0.027903 0.049735 0.027903
v -0.037091 0.033096 -0.000000
v -0.026228 0.033096 0.026228
v -0.016019 -0.047259 0.000000
v -0.004702 -0.046673 -0.004702
v -0.006650 -0.046673 0.000000
v -0.008205 0.047370 -0.000000
v -0.004702 -0.046673 -0.004702
v -0.005802 0.047370 -0.005802
v -0.039461 0.049735 -0.000000
v -0.026228 0.033096 -0.026228
v -0.037091 0.033096 -0.000000
v -0.011327 0.046344 -0.011327
v 0.000000 0.047370 -0.008205
v 0.000000 0.046344 -0.016019
v -0.011327 -0.047259 -0.011327
v -0.000000 -0.046673 -0.006650
v -0.004702 -0.046673 -0.004702
v -0.027903 0.049735 -0.027903
v 0.000000 0.033096 -0.037091
v -0.026228 0.033096 -0.026228
v 0.011327 -0.047259 0.011327
v -0.000000 -0.046673 0.006650
v 0.004702 -0.046673 0.004702
v 0.000000 0.046344 0.016019
v -0.005802 0.047370 0.005802
v -0.011327 0.046344 0.011327
v 0.000000 0.047370 -0.008205
v 0.004702 -0.046673 -0.004702
v 0.005802 0.047370 -0.005802
v 0.005802 0.047370 -0.005802
v 0.006650 -0.046673 0.000000
v 0.008205 0.047370 -0.000000
v 0.008205 0.047370 -0.000000
v 0.004702 -0.046673 0.004702
v 0.005802 0.047370 0.005802
v 0.005802 0.047370 0.005802
v -0.000000 -0.046673 0.006650
v 0.000000 0.047370 0.008205
v -0.005802 0.047370 0.005802
v -0.000000 -0.046673 0.006650
v -0.004702 -0.046673 0.004702
v -0.005802 0.047370 0.005802
v -0.006650 -0.046673 0.000000
v -0.008205 0.047370 -0.000000
v 0.028746 -0.050100 0.028746
v 0.000000 -0.050265 0.031647
v 0.022378 -0.050265 0.022378
v 0.000000 -0.050265 0.031647
v 0.016852 -0.046775 0.016852
v 0.022378 -0.050265 0.022378
v -0.000000 -0.046775 0.023833
v 0.011327 -0.047259 0.011327
v 0.016852 -0.046775 0.016852
v -0.028746 -0.050100 -0.028746
v 0.000000 -0.050265 -0.031647
v -0.022378 -0.050265 -0.022378
v 0.000000 -0.050265 -0.031647
v -0.016852 -0.046775 -0.016852
v -0.022378 -0.050265 -0.022378
v -0.000000 -0.046775 -0.023833
v -0.011327 -0.047259 -0.011327
v -0.016852 -0.046775 -0.016852
v -0.028746 -0.050100 -0.028746
v -0.031647 -0.050265 0.000000
v -0.040653 -0.050100 0.000000
v -0.022378 -0.050265 -0.022378
v -0.023833 -0.046775 0.000000
v -0.031647 -0.050265 0.000000
v -0.016852 -0.046775 -0.016852
v -0.016019 -0.047259 0.000000
v -0.023833 -0.046775 0.000000
v 0.028746 -0.050100 -0.028746
v 0.031647 -0.050265 0.000000
v 0.022378 -0.050265 -0.022378
v 0.031647 -0.050265 0.000000
v 0.016852 -0.046775 -0.016852
v 0.022378 -0.050265 -0.022378
v 0.023833 -0.046775 0.000000
v 0.011327 -0.047259 -0.011327
v 0.016852 -0.046775 -0.016852
v -0.028746 -0.050100 0.028746
v 0.000000 -0.050265 0.031647
v 0.000000 -0.050100 0.040653
v -0.022378 -0.050265 0.022378
v -0.000000 -0.046775 0.023833
v 0.000000 -0.050265 0.031647
v -0.016852 -0.046775 0.016852
v -0.000000 -0.047259 0.016019
v -0.000000 -0.046775 0.023833
v 0.028746 -0.050100 0.028746
v 0.031647 -0.050265 0.000000
v 0.040653 -0.050100 0.000000
v 0.022378 -0.050265 0.022378
v 0.023833 -0.046775 0.000000
v 0.031647 -0.050265 0.000000
v 0.016852 -0.046775 0.016852
v 0.016019 -0.047259 0.000000
v 0.023833 -0.046775 0.000000
v -0.028746 -0.050100 0.028746
v -0.031647 -0.050265 0.000000
v -0.022378 -0.050265 0.022378
v -0.031647 -0.050265 0.000000
v -0.016852 -0.046775 0.016852
v -0.022378 -0.050265 0.022378
v -0.023833 -0.046775 0.000000
v -0.011327 -0.047259 0.011327
v -0.016852 -0.046775 0.016852
v 0.028746 -0.050100 -0.028746
v 0.000000 -0.050265 -0.031647
v 0.000000 -0.050100 -0.040653
v 0.022378 -0.050265 -0.022378
v -0.000000 -0.046775 -0.023833
v 0.000000 -0.050265 -0.031647
v 0.016852 -0.046775 -0.016852
v -0.000000 -0.047259 -0.016019
v -0.000000 -0.046775 -0.023833
v 0.000000 0.049735 0.039461
v -0.022378 0.047758 0.022378
v -0.027903 0.049735 0.027903
v -0.022378 0.047758 0.022378
v 0.000000 0.048732 0.023833
v -0.016852 0.048732 0.016852
v -0.016852 0.048732 0.016852
v 0.000000 0.046344 0.016019
v -0.011327 0.046344 0.011327
v -0.027903 0.049735 -0.027903
v 0.000000 0.047758 -0.031647
v 0.000000 0.049735 -0.039461
v -0.022378 0.047758 -0.022378
v 0.000000 0.048732 -0.023833
v 0.000000 0.047758 -0.031647
v -0.016852 0.048732 -0.016852
v 0.000000 0.046344 -0.016019
v 0.000000 0.048732 -0.023833
v 0.039461 0.049735 -0.000000
v 0.022378 0.047758 0.022378
v 0.027903 0.049735 0.027903
v 0.031647 0.047758 -0.000000
v 0.016852 0.048732 0.016852
v 0.022378 0.047758 0.022378
v 0.023833 0.048732 -0.000000
v 0.011327 0.046344 0.011327
v 0.016852 0.048732 0.016852
v 0.000000 0.049735 -0.039461
v 0.022378 0.047758 -0.022378
v 0.027903 0.049735 -0.027903
v 0.000000 0.047758 -0.031647
v 0.016852 0.048732 -0.016852
v 0.022378 0.047758 -0.022378
v 0.000000 0.048732 -0.023833
v 0.011327 0.046344 -0.011327
v 0.016852 0.048732 -0.016852
v -0.027903 0.049735 0.027903
v -0.031647 0.047758 -0.000000
v -0.039461 0.049735 -0.000000
v -0.022378 0.047758 0.022378
v -0.023833 0.048732 -0.000000
v -0.031647 0.047758 -0.000000
v -0.016852 0.048732 0.016852
v -0.016019 0.046344 -0.000000
v -0.023833 0.048732 -0.000000
v 0.027903 0.049735 0.027903
v 0.000000 0.047758 0.031647
v 0.000000 0.049735 0.039461
v 0.022378 0.047758 0.022378
v 0.000000 0.048732 0.023833
v 0.000000 0.047758 0.031647
v 0.016852 0.048732 0.016852
v 0.000000 0.046344 0.016019
v 0.000000 0.048732 0.023833
v -0.039461 0.049735 -0.000000
v -0.022378 0.047758 -0.022378
v -0.027903 0.049735 -0.027903
v -0.031647 0.047758 -0.000000
v -0.016852 0.048732 -0.016852
v -0.022378 0.047758 -0.022378
v -0.023833 0.048732 -0.000000
v -0.011327 0.046344 -0.011327
v -0.016852 0.048732 -0.016852
v 0.027903 0.049735 -0.027903
v 0.031647 0.047758 -0.000000
v 0.039461 0.049735 -0.000000
v 0.022378 0.047758 -0.022378
v 0.023833 0.048732 -0.000000
v 0.031647 0.047758 -0.000000
v 0.016852 0.048732 -0.016852
v 0.016019 0.046344 -0.000000
v 0.023833 0.048732 -0.000000
v -0.028746 -0.050100 -0.028746
v 0.000000 -0.033461 -0.038081
v 0.000000 -0.050100 -0.040653
v -0.026790 -0.016822 -0.026790
v 0.000000 -0.033461 -0.038081
v -0.026928 -0.033461 -0.026928
v -0.024987 -0.000183 -0.024987
v 0.000000 -0.016822 -0.037886
v -0.026790 -0.016822 -0.026790
v -0.027903 0.016457 -0.027903
v 0.000000 -0.000183 -0.035336
v -0.024987 -0.000183 -0.024987
v -0.026228 0.033096 -0.026228
v 0.000000 0.016457 -0.039461
v -0.027903 0.016457 -0.027903
v -0.038081 -0.033461 0.000000
v -0.028746 -0.050100 -0.028746
v -0.040653 -0.050100 0.000000
v -0.038081 -0.033461 0.000000
v -0.026790 -0.016822 -0.026790
v -0.026928 -0.033461 -0.026928
v -0.035336 -0.000183 0.000000
v -0.026790 -0.016822 -0.026790
v -0.037886 -0.016822 0.000000
v -0.039461 0.016457 -0.000000
v -0.024987 -0.000183 -0.024987
v -0.035336 -0.000183 0.000000
v -0.037091 0.033096 -0.000000
v -0.027903 0.016457 -0.027903
v -0.039461 0.016457 -0.000000
v -0.028746 -0.050100 0.028746
v -0.038081 -0.033461 0.000000
v -0.040653 -0.050100 0.000000
v -0.026928 -0.033461 0.026928
v -0.037886 -0.016822 0.000000
v -0.038081 -0.033461 0.000000
v -0.024987 -0.000183 0.024987
v -0.037886 -0.016822 0.000000
v -0.026790 -0.016822 0.026790
v -0.027903 0.016457 0.027903
v -0.035336 -0.000183 0.000000
v -0.024987 -0.000183 0.024987
v -0.026228 0.033096 0.026228
v -0.039461 0.016457 -0.000000
v -0.027903 0.016457 0.027903
v 0.000000 -0.033461 0.038081
v -0.028746 -0.050100 0.028746
v 0.000000 -0.050100 0.040653
v 0.000000 -0.033461 0.038081
v -0.026790 -0.016822 0.026790
v -0.026928 -0.033461 0.026928
v 0.000000 -0.000183 0.035336
v -0.026790 -0.016822 0.026790
v 0.000000 -0.016822 0.037886
v 0.000000 0.016457 0.039461
v -0.024987 -0.000183 0.024987
v 0.000000 -0.000183 0.035336
v 0.000000 0.033096 0.037091
v -0.027903 0.016457 0.027903
v 0.000000 0.016457 0.039461
v 0.028746 -0.050100 0.028746
v 0.000000 -0.033461 0.038081
v 0.000000 -0.050100 0.040653
v 0.026928 -0.033461 0.026928
v 0.000000 -0.016822 0.037886
v 0.000000 -0.033461 0.038081
v 0.024987 -0.000183 0.024987
v 0.000000 -0.016822 0.037886
v 0.026790 -0.016822 0.026790
v 0.027903 0.016457 0.027903
v 0.000000 -0.000183 0.035336
v 0.024987 -0.000183 0.024987
v 0.026228 0.033096 0.026228
v 0.000000 0.016457 0.039461
v 0.027903 0.016457 0.027903
v 0.038081 -0.033461 0.000000
v 0.028746 -0.050100 0.028746
v 0.040653 -0.050100 0.000000
v 0.038081 -0.033461 0.000000
v 0.026790 -0.016822 0.026790
v 0.026928 -0.033461 0.026928
v 0.035336 -0.000183 0.000000
v 0.026790 -0.016822 0.026790
v 0.037886 -0.016822 0.000000
v 0.039461 0.016457 -0.000000
v 0.024987 -0.000183 0.024987
v 0.035336 -0.000183 0.000000
v 0.037091 0.033096 -0.000000
v 0.027903 0.016457 0.027903
v 0.039461 0.016457 -0.000000
v 0.028746 -0.050100 -0.028746
v 0.038081 -0.033461 0.000000
v 0.040653 -0.050100 0.000000
v 0.026928 -0.033461 -0.026928
v 0.037886 -0.016822 0.000000
v 0.038081 -0.033461 0.000000
v 0.024987 -0.000183 -0.024987
v 0.037886 -0.016822 0.000000
v 0.026790 -0.016822 -0.026790
v 0.027903 0.016457 -0.027903
v 0.035336 -0.000183 0.000000
v 0.024987 -0.000183 -0.024987
v 0.026228 0.033096 -0.026228
v 0.039461 0.016457 -0.000000
v 0.027903 0.016457 -0.027903
v 0.000000 -0.033461 -0.038081
v 0.028746 -0.050100 -0.028746
v 0.000000 -0.050100 -0.040653
v 0.000000 -0.033461 -0.038081
v 0.026790 -0.016822 -0.026790
v 0.026928 -0.033461 -0.026928
v 0.000000 -0.000183 -0.035336
v 0.026790 -0.016822 -0.026790
v 0.000000 -0.016822 -0.037886
v 0.000000 0.016457 -0.039461
v 0.024987 -0.000183 -0.024987
v 0.000000 -0.000183 -0.035336
v 0.000000 0.033096 -0.037091
v 0.027903 0.016457 -0.027903
v 0.000000 0.016457 -0.039461
v 0.004702 -0.046673 -0.004702
v -0.006650 -0.046673 0.000000
v 0.027903 0.049735 -0.027903
v 0.005802 0.047370 -0.005802
v 0.004702 -0.046673 0.004702
v 0.039461 0.049735 -0.000000
v -0.004702 -0.046673 0.004702
v -0.016019 0.046344 -0.000000
v 0.027903 0.049735 0.027903
v 0.006650 -0.046673 0.000000
v 0.011327 0.046344 0.011327
v 0.000000 0.049735 0.039461
v -0.005802 0.047370 0.005802
v 0.000000 0.046344 -0.016019
v -0.027903 0.049735 0.027903
v 0.016019 0.046344 -0.000000
v -0.004702 -0.046673 -0.004702
v -0.039461 0.049735 -0.000000
v -0.011327 -0.047259 -0.011327
v -0.006650 -0.046673 0.000000
v -0.027903 0.049735 -0.027903
v -0.005802 0.047370 -0.005802
v -0.000000 -0.047259 -0.016019
v 0.000000 0.049735 -0.039461
v -0.000000 -0.047259 0.016019
v 0.000000 0.047370 0.008205
v -0.000000 -0.046673 -0.006650
v 0.004702 -0.046673 -0.004702
v 0.006650 -0.046673 0.000000
v 0.004702 -0.046673 0.004702
v 0.000000 0.047370 0.008205
v -0.004702 -0.046673 0.004702
v 0.000000 -0.050100 0.040653
v -0.000000 -0.046775 0.023833
v -0.000000 -0.047259 0.016019
v 0.000000 -0.050100 -0.040653
v -0.000000 -0.046775 -0.023833
v -0.000000 -0.047259 -0.016019
v -0.022378 -0.050265 -0.022378
v -0.016852 -0.046775 -0.016852
v -0.011327 -0.047259 -0.011327
v 0.040653 -0.050100 0.000000
v 0.023833 -0.046775 0.000000
v 0.016019 -0.047259 0.000000
v -0.022378 -0.050265 0.022378
v -0.016852 -0.046775 0.016852
v -0.011327 -0.047259 0.011327
v 0.022378 -0.050265 0.022378
v 0.016852 -0.046775 0.016852
v 0.011327 -0.047259 0.011327
v -0.040653 -0.050100 0.000000
v -0.023833 -0.046775 0.000000
v -0.016019 -0.047259 0.000000
v 0.022378 -0.050265 -0.022378
v 0.016852 -0.046775 -0.016852
v 0.011327 -0.047259 -0.011327
v 0.000000 0.047758 0.031647
v 0.000000 0.047758 0.031647
v 0.000000 0.048732 0.023833
v -0.022378 0.047758 -0.022378
v -0.016852 0.048732 -0.016852
v -0.011327 0.046344 -0.011327
v 0.031647 0.047758 -0.000000
v 0.023833 0.048732 -0.000000
v 0.016019 0.046344 -0.000000
v 0.000000 0.047758 -0.031647
v 0.000000 0.048732 -0.023833
v 0.000000 0.046344 -0.016019
v -0.022378 0.047758 0.022378
v -0.016852 0.048732 0.016852
v -0.011327 0.046344 0.011327
v 0.022378 0.047758 0.022378
v 0.016852 0.048732 0.016852
v 0.011327 0.046344 0.011327
v -0.031647 0.047758 -0.000000
v -0.023833 0.048732 -0.000000
v -0.016019 0.046344 -0.000000
v 0.022378 0.047758 -0.022378
v 0.016852 0.048732 -0.016852
v 0.011327 0.046344 -0.011327
v -0.026928 -0.033461 -0.026928
v 0.000000 -0.016822 -0.037886
v 0.000000 -0.000183 -0.035336
v 0.000000 0.016457 -0.039461
v 0.000000 0.033096 -0.037091
v -0.026928 -0.033461 -0.026928
v -0.037886 -0.016822 0.000000
v -0.024987 -0.000183 -0.024987
v -0.027903 0.016457 -0.027903
v -0.026228 0.033096 -0.026228
v -0.026928 -0.033461 0.026928
v -0.026790 -0.016822 0.026790
v -0.035336 -0.000183 0.000000
v -0.039461 0.016457 -0.000000
v -0.037091 0.033096 -0.000000
v -0.026928 -0.033461 0.026928
v 0.000000 -0.016822 0.037886
v -0.024987 -0.000183 0.024987
v -0.027903 0.016457 0.027903
v -0.026228 0.033096 0.026228
v 0.026928 -0.033461 0.026928
v 0.026790 -0.016822 0.026790
v 0.000000 -0.000183 0.035336
v 0.000000 0.016457 0.039461
v 0.000000 0.033096 0.037091
v 0.026928 -0.033461 0.026928
v 0.037886 -0.016822 0.000000
v 0.024987 -0.000183 0.024987
v 0.027903 0.016457 0.027903
v 0.026228 0.033096 0.026228
v 0.026928 -0.033461 -0.026928
v 0.026790 -0.016822 -0.026790
v 0.035336 -0.000183 0.000000
v 0.039461 0.016457 -0.000000
v 0.037091 0.033096 -0.000000
v 0.026928 -0.033461 -0.026928
v 0.000000 -0.016822 -0.037886
v 0.024987 -0.000183 -0.024987
v 0.027903 0.016457 -0.027903
v 0.026228 0.033096 -0.026228
vt 0.839837 0.398212
vt 0.839892 0.447354
vt 0.874602 0.432977
vt 0.839837 0.516906
vt 0.805050 0.482197
vt 0.790673 0.516906
vt 0.091947 0.995148
vt 0.208681 0.927243
vt 0.094847 0.928499
vt 0.870185 0.175630
vt 0.823429 0.181445
vt 0.835420 0.210394
vt 0.755908 0.432977
vt 0.805050 0.432922
vt 0.790673 0.398212
vt 0.213052 0.993812
vt 0.289185 0.927334
vt 0.208681 0.927243
vt 0.790673 0.516906
vt 0.790618 0.467764
vt 0.755908 0.482141
vt 0.835420 0.091701
vt 0.798247 0.120650
vt 0.823429 0.120650
vt 0.395496 0.995148
vt 0.512230 0.927243
vt 0.398397 0.928499
vt 0.790673 0.398212
vt 0.825460 0.432922
vt 0.839837 0.398212
vt 0.751492 0.175630
vt 0.798247 0.181445
vt 0.780441 0.163638
vt 0.516601 0.993812
vt 0.592734 0.927334
vt 0.512230 0.927243
vt 0.751492 0.126465
vt 0.798247 0.120650
vt 0.786256 0.091701
vt 0.870185 0.175630
vt 0.841235 0.138457
vt 0.841235 0.163638
vt 0.312248 0.583739
vt 0.429388 0.516534
vt 0.315548 0.517108
vt 0.786256 0.210394
vt 0.823429 0.181445
vt 0.798247 0.181445
vt 0.629757 0.995148
vt 0.615810 0.617875
vt 0.611950 0.995021
vt 0.433359 0.583128
vt 0.509889 0.517108
vt 0.429388 0.516534
vt 0.839837 0.516906
vt 0.839892 0.467764
vt 0.825460 0.482197
vt 0.654939 0.995021
vt 0.630243 0.617978
vt 0.629757 0.995148
vt 0.091947 0.583739
vt 0.208681 0.515833
vt 0.094847 0.517089
vt 0.835420 0.091701
vt 0.841235 0.138457
vt 0.870185 0.126465
vt 0.874602 0.482141
vt 0.839892 0.447354
vt 0.839892 0.467764
vt 0.213052 0.582402
vt 0.289185 0.515925
vt 0.208681 0.515833
vt 0.755908 0.432977
vt 0.790618 0.467764
vt 0.790618 0.447354
vt 0.751492 0.175630
vt 0.780441 0.138457
vt 0.751492 0.126465
vt 0.707631 0.995021
vt 0.682935 0.617978
vt 0.682450 0.995148
vt 0.682450 0.995148
vt 0.668502 0.617875
vt 0.664643 0.995021
vt 0.760324 0.995021
vt 0.735627 0.617978
vt 0.735142 0.995148
vt 0.735142 0.995148
vt 0.721194 0.617875
vt 0.717335 0.995021
vt 0.629758 0.608171
vt 0.650653 0.230898
vt 0.630243 0.231001
vt 0.629758 0.608171
vt 0.615810 0.230898
vt 0.611950 0.608044
vt 0.664643 0.395174
vt 0.698009 0.506124
vt 0.698009 0.408994
vt 0.698009 0.506124
vt 0.726959 0.420986
vt 0.698009 0.408994
vt 0.726959 0.494133
vt 0.755908 0.432977
vt 0.726959 0.420986
vt 0.965867 0.519945
vt 0.932501 0.408994
vt 0.932501 0.506124
vt 0.932501 0.408994
vt 0.903551 0.494133
vt 0.932501 0.506124
vt 0.903551 0.420986
vt 0.874602 0.482141
vt 0.903551 0.494133
vt 0.965867 0.519945
vt 0.863820 0.574805
vt 0.877641 0.608171
vt 0.932501 0.506124
vt 0.851829 0.545855
vt 0.863820 0.574805
vt 0.903551 0.494133
vt 0.839837 0.516906
vt 0.851829 0.545855
vt 0.877641 0.306947
vt 0.766690 0.340313
vt 0.863820 0.340313
vt 0.766690 0.340313
vt 0.851828 0.369263
vt 0.863820 0.340313
vt 0.778681 0.369263
vt 0.839837 0.398212
vt 0.851828 0.369263
vt 0.752869 0.608171
vt 0.698009 0.506124
vt 0.664643 0.519945
vt 0.766690 0.574805
vt 0.726959 0.494133
vt 0.698009 0.506124
vt 0.778681 0.545855
vt 0.755908 0.482141
vt 0.726959 0.494133
vt 0.664643 0.395174
vt 0.766690 0.340313
vt 0.752869 0.306947
vt 0.698009 0.408994
vt 0.778681 0.369263
vt 0.766690 0.340313
vt 0.726959 0.420986
vt 0.790673 0.398212
vt 0.778681 0.369263
vt 0.752869 0.608171
vt 0.863820 0.574805
vt 0.766690 0.574805
vt 0.863820 0.574805
vt 0.778681 0.545855
vt 0.766690 0.574805
vt 0.851829 0.545855
vt 0.790673 0.516906
vt 0.778681 0.545855
vt 0.877641 0.306947
vt 0.932501 0.408994
vt 0.965867 0.395173
vt 0.863820 0.340313
vt 0.903551 0.420986
vt 0.932501 0.408994
vt 0.851828 0.369263
vt 0.874602 0.432977
vt 0.903551 0.420986
vt 0.664643 0.211604
vt 0.693592 0.102483
vt 0.664643 0.090491
vt 0.693592 0.102483
vt 0.722542 0.187621
vt 0.722542 0.114474
vt 0.722542 0.114474
vt 0.751492 0.175630
vt 0.751492 0.126465
vt 0.871394 0.004852
vt 0.928084 0.102483
vt 0.957034 0.090491
vt 0.859403 0.033802
vt 0.899135 0.114474
vt 0.928084 0.102483
vt 0.847412 0.062751
vt 0.870185 0.126465
vt 0.899135 0.114474
vt 0.871394 0.297243
vt 0.762273 0.268293
vt 0.750282 0.297243
vt 0.859403 0.268293
vt 0.774265 0.239344
vt 0.762273 0.268293
vt 0.847412 0.239344
vt 0.786256 0.210394
vt 0.774265 0.239344
vt 0.957034 0.090491
vt 0.928084 0.199612
vt 0.957034 0.211604
vt 0.928084 0.102483
vt 0.899135 0.187621
vt 0.928084 0.199612
vt 0.899135 0.114474
vt 0.870185 0.175630
vt 0.899135 0.187621
vt 0.664643 0.090491
vt 0.762273 0.033802
vt 0.750282 0.004852
vt 0.693592 0.102483
vt 0.774265 0.062751
vt 0.762273 0.033802
vt 0.722542 0.114474
vt 0.786256 0.091701
vt 0.774265 0.062751
vt 0.750282 0.297243
vt 0.693592 0.199612
vt 0.664643 0.211604
vt 0.762273 0.268293
vt 0.722542 0.187621
vt 0.693592 0.199612
vt 0.774265 0.239344
vt 0.751492 0.175630
vt 0.722542 0.187621
vt 0.750282 0.004852
vt 0.859403 0.033802
vt 0.871394 0.004852
vt 0.762273 0.033802
vt 0.847412 0.062751
vt 0.859403 0.033802
vt 0.774265 0.062751
vt 0.835420 0.091701
vt 0.847412 0.062751
vt 0.957034 0.211604
vt 0.859403 0.268293
vt 0.871394 0.297243
vt 0.928084 0.199612
vt 0.847412 0.239344
vt 0.859403 0.268293
vt 0.899135 0.187621
vt 0.835420 0.210394
vt 0.847412 0.239344
vt 0.210464 0.182033
vt 0.289908 0.249002
vt 0.298697 0.182133
vt 0.207692 0.315636
vt 0.289908 0.249002
vt 0.207256 0.248908
vt 0.204517 0.382510
vt 0.289921 0.315730
vt 0.207692 0.315636
vt 0.211580 0.448971
vt 0.281211 0.382597
vt 0.204517 0.382510
vt 0.014366 0.930366
vt 0.090475 0.861716
vt 0.004852 0.863703
vt 0.090384 0.250198
vt 0.210464 0.182033
vt 0.085701 0.183409
vt 0.090384 0.250198
vt 0.207692 0.315636
vt 0.207256 0.248908
vt 0.096069 0.383707
vt 0.207692 0.315636
vt 0.091419 0.316919
vt 0.090475 0.450307
vt 0.204517 0.382510
vt 0.096069 0.383707
vt 0.094847 0.517089
vt 0.211580 0.448971
vt 0.090475 0.450307
vt 0.433171 0.182750
vt 0.512212 0.250194
vt 0.521402 0.183379
vt 0.429562 0.249605
vt 0.511825 0.316921
vt 0.512212 0.250194
vt 0.426022 0.383189
vt 0.511825 0.316921
vt 0.429598 0.316335
vt 0.004852 0.452293
vt 0.096069 0.383707
vt 0.019396 0.385486
vt 0.014366 0.518957
vt 0.090475 0.450307
vt 0.004852 0.452293
vt 0.312684 0.250194
vt 0.433171 0.182750
vt 0.308401 0.183379
vt 0.312684 0.250194
vt 0.429598 0.316335
vt 0.429562 0.249605
vt 0.317569 0.383735
vt 0.429598 0.316335
vt 0.313320 0.316921
vt 0.311576 0.450300
vt 0.426022 0.383189
vt 0.317569 0.383735
vt 0.315548 0.517108
vt 0.432687 0.449690
vt 0.311576 0.450300
vt 0.514013 0.593442
vt 0.593457 0.660411
vt 0.602247 0.593542
vt 0.510805 0.660318
vt 0.593470 0.727139
vt 0.593457 0.660411
vt 0.508066 0.793920
vt 0.593470 0.727139
vt 0.511242 0.727046
vt 0.515129 0.860380
vt 0.584761 0.794007
vt 0.508066 0.793920
vt 0.512230 0.927243
vt 0.600774 0.860477
vt 0.515129 0.860380
vt 0.393933 0.661607
vt 0.514013 0.593442
vt 0.389250 0.594819
vt 0.393933 0.661607
vt 0.511242 0.727046
vt 0.510805 0.660318
vt 0.399619 0.795116
vt 0.511242 0.727046
vt 0.394969 0.728329
vt 0.394024 0.861716
vt 0.508066 0.793920
vt 0.399619 0.795116
vt 0.398397 0.928499
vt 0.515129 0.860380
vt 0.394024 0.861716
vt 0.210464 0.593442
vt 0.289908 0.660411
vt 0.298697 0.593542
vt 0.207256 0.660318
vt 0.289921 0.727139
vt 0.289908 0.660411
vt 0.204517 0.793920
vt 0.289921 0.727139
vt 0.207692 0.727046
vt 0.308401 0.863703
vt 0.399619 0.795116
vt 0.322945 0.796895
vt 0.317915 0.930366
vt 0.394024 0.861716
vt 0.308401 0.863703
vt 0.090384 0.661607
vt 0.210464 0.593442
vt 0.085701 0.594819
vt 0.090384 0.661607
vt 0.207692 0.727046
vt 0.207256 0.660318
vt 0.096069 0.795116
vt 0.207692 0.727046
vt 0.091419 0.728329
vt 0.090475 0.861716
vt 0.204517 0.793920
vt 0.096069 0.795116
vt 0.094847 0.928499
vt 0.211580 0.860380
vt 0.090475 0.861716
vt 0.825460 0.432922
vt 0.825460 0.482197
vt 0.213052 0.993812
vt 0.841235 0.163638
vt 0.790618 0.447354
vt 0.298697 0.993909
vt 0.805050 0.482197
vt 0.786256 0.091701
vt 0.516601 0.993812
vt 0.805050 0.432922
vt 0.786256 0.210394
vt 0.602247 0.993909
vt 0.780441 0.138457
vt 0.870185 0.126465
vt 0.433359 0.583128
vt 0.835420 0.210394
vt 0.630243 0.617978
vt 0.519002 0.583739
vt 0.874602 0.482141
vt 0.650653 0.617875
vt 0.213052 0.582402
vt 0.823429 0.120650
vt 0.874602 0.432977
vt 0.298697 0.582500
vt 0.755908 0.482141
vt 0.780441 0.163638
vt 0.703345 0.617875
vt 0.682935 0.617978
vt 0.756037 0.617875
vt 0.735627 0.617978
vt 0.654939 0.608044
vt 0.630243 0.231001
vt 0.664643 0.519945
vt 0.726959 0.494133
vt 0.755908 0.482141
vt 0.965867 0.395173
vt 0.903551 0.420986
vt 0.874602 0.432977
vt 0.932501 0.506124
vt 0.903551 0.494133
vt 0.874602 0.482141
vt 0.752869 0.306947
vt 0.778681 0.369263
vt 0.790673 0.398212
vt 0.766690 0.574805
vt 0.778681 0.545855
vt 0.790673 0.516906
vt 0.698009 0.408994
vt 0.726959 0.420986
vt 0.755908 0.432977
vt 0.877641 0.608171
vt 0.851829 0.545855
vt 0.839837 0.516906
vt 0.863820 0.340313
vt 0.851828 0.369263
vt 0.839837 0.398212
vt 0.693592 0.199612
vt 0.693592 0.199612
vt 0.722542 0.187621
vt 0.859403 0.033802
vt 0.847412 0.062751
vt 0.835420 0.091701
vt 0.859403 0.268293
vt 0.847412 0.239344
vt 0.835420 0.210394
vt 0.928084 0.102483
vt 0.899135 0.114474
vt 0.870185 0.126465
vt 0.693592 0.102483
vt 0.722542 0.114474
vt 0.751492 0.126465
vt 0.762273 0.268293
vt 0.774265 0.239344
vt 0.786256 0.210394
vt 0.762273 0.033802
vt 0.774265 0.062751
vt 0.786256 0.091701
vt 0.928084 0.199612
vt 0.899135 0.187621
vt 0.870185 0.175630
vt 0.207256 0.248908
vt 0.289921 0.315730
vt 0.281211 0.382597
vt 0.297225 0.449068
vt 0.094847 0.928499
vt 0.207256 0.248908
vt 0.091419 0.316919
vt 0.204517 0.382510
vt 0.211580 0.448971
vt 0.208681 0.515833
vt 0.429562 0.249605
vt 0.429598 0.316335
vt 0.502715 0.383735
vt 0.090475 0.450307
vt 0.094847 0.517089
vt 0.429562 0.249605
vt 0.313320 0.316921
vt 0.426022 0.383189
vt 0.432687 0.449690
vt 0.429388 0.516534
vt 0.510805 0.660318
vt 0.511242 0.727046
vt 0.584761 0.794007
vt 0.600774 0.860477
vt 0.592734 0.927334
vt 0.510805 0.660318
vt 0.394969 0.728329
vt 0.508066 0.793920
vt 0.515129 0.860380
vt 0.512230 0.927243
vt 0.207256 0.660318
vt 0.207692 0.727046
vt 0.281211 0.794007
vt 0.394024 0.861716
vt 0.398397 0.928499
vt 0.207256 0.660318
vt 0.091419 0.728329
vt 0.204517 0.793920
vt 0.211580 0.860380
vt 0.208681 0.927243
vn -0.025888 -0.997709 0.062500
vn -0.025888 -0.997709 0.062500
vn -0.025887 -0.997709 0.062500
vn 0.062500 -0.997709 -0.025888
vn 0.062500 -0.997709 -0.025888
vn 0.062500 -0.997709 -0.025888
vn 0.379415 -0.130427 -0.915988
vn 0.379415 -0.130427 -0.915988
vn 0.379415 -0.130427 -0.915988
vn 0.130071 0.990040 -0.053877
vn 0.130071 0.990040 -0.053877
vn 0.130070 0.990040 -0.053877
vn -0.062500 -0.997709 -0.025888
vn -0.062500 -0.997709 -0.025888
vn -0.062499 -0.997709 -0.025888
vn 0.915988 -0.130427 -0.379415
vn 0.915988 -0.130427 -0.379415
vn 0.915988 -0.130426 -0.379414
vn 0.025888 -0.997709 -0.062499
vn 0.025888 -0.997709 -0.062499
vn 0.025887 -0.997709 -0.062499
vn -0.130071 0.990040 -0.053877
vn -0.130071 0.990040 -0.053877
vn -0.130071 0.990040 -0.053877
vn 0.915988 -0.130426 0.379415
vn 0.915988 -0.130426 0.379415
vn 0.915988 -0.130426 0.379415
vn -0.062500 -0.997709 0.025888
vn -0.062499 -0.997709 0.025888
vn -0.062500 -0.997709 0.025888
vn 0.053877 0.990040 0.130070
vn 0.053877 0.990040 0.130070
vn 0.053877 0.990040 0.130070
vn 0.379415 -0.130426 0.915988
vn 0.379415 -0.130426 0.915988
vn 0.379415 -0.130426 0.915988
vn -0.130070 0.990040 0.053877
vn -0.130070 0.990040 0.053877
vn -0.130070 0.990040 0.053877
vn 0.053877 0.990040 -0.130071
vn 0.053877 0.990040 -0.130071
vn 0.053876 0.990040 -0.130071
vn -0.379415 -0.130426 0.915988
vn -0.379415 -0.130426 0.915988
vn -0.379415 -0.130427 0.915988
vn 0.130070 0.990040 0.053877
vn 0.130070 0.990040 0.053877
vn 0.130070 0.990040 0.053877
vn 0.382639 0.015271 0.923772
vn 0.382639 0.015271 0.923772
vn 0.382639 0.015271 0.923772
vn -0.915988 -0.130426 0.379415
vn -0.915988 -0.130426 0.379415
vn -0.915988 -0.130426 0.379414
vn 0.062499 -0.997709 0.025888
vn 0.062499 -0.997709 0.025888
vn 0.062499 -0.997709 0.025888
vn 0.923772 0.015271 0.382639
vn 0.923772 0.015271 0.382639
vn 0.923772 0.015271 0.382639
vn -0.915988 -0.130427 -0.379415
vn -0.915988 -0.130426 -0.379415
vn -0.915988 -0.130427 -0.379415
vn -0.053877 0.990040 -0.130071
vn -0.053877 0.990040 -0.130071
vn -0.053877 0.990040 -0.130071
vn 0.025888 -0.997709 0.062500
vn 0.025888 -0.997709 0.062500
vn 0.025888 -0.997709 0.062500
vn -0.379415 -0.130427 -0.915988
vn -0.379415 -0.130427 -0.915988
vn -0.379414 -0.130427 -0.915988
vn -0.025888 -0.997709 -0.062499
vn -0.025888 -0.997709 -0.062499
vn -0.025888 -0.997709 -0.062499
vn -0.053877 0.990040 0.130070
vn -0.053877 0.990040 0.130070
vn -0.053877 0.990040 0.130070
vn -0.382639 0.015271 0.923772
vn -0.382639 0.015271 0.923772
vn -0.382639 0.015271 0.923772
vn -0.923772 0.015271 0.382639
vn -0.923772 0.015271 0.382639
vn -0.923772 0.015271 0.382639
vn -0.923772 0.015271 -0.382639
vn -0.923772 0.015271 -0.382639
vn -0.923772 0.015271 -0.382639
vn -0.382639 0.015271 -0.923772
vn -0.382639 0.015271 -0.923772
vn -0.382639 0.015271 -0.923772
vn 0.382639 0.015271 -0.923772
vn 0.382639 0.015271 -0.923772
vn 0.382639 0.015271 -0.923772
vn 0.923772 0.015271 -0.382639
vn 0.923772 0.015271 -0.382639
vn 0.923772 0.015271 -0.382639
vn 0.007564 -0.999805 0.018260
vn 0.007564 -0.999805 0.018260
vn 0.007564 -0.999805 0.018260
vn -0.166558 -0.900316 -0.402107
vn -0.166558 -0.900316 -0.402107
vn -0.166558 -0.900316 -0.402107
vn 0.025629 -0.997755 0.061873
vn 0.025629 -0.997755 0.061873
vn 0.025629 -0.997755 0.061873
vn -0.007564 -0.999805 -0.018260
vn -0.007564 -0.999805 -0.018260
vn -0.007564 -0.999805 -0.018260
vn 0.166558 -0.900316 0.402107
vn 0.166558 -0.900316 0.402107
vn 0.166558 -0.900316 0.402107
vn -0.025628 -0.997755 -0.061873
vn -0.025629 -0.997755 -0.061873
vn -0.025630 -0.997755 -0.061873
vn -0.018260 -0.999805 -0.007563
vn -0.018260 -0.999805 -0.007563
vn -0.018260 -0.999805 -0.007563
vn 0.402107 -0.900316 0.166558
vn 0.402107 -0.900316 0.166558
vn 0.402107 -0.900316 0.166558
vn -0.061872 -0.997755 -0.025628
vn -0.061873 -0.997755 -0.025628
vn -0.061874 -0.997755 -0.025628
vn 0.018260 -0.999805 -0.007563
vn 0.018260 -0.999805 -0.007563
vn 0.018260 -0.999805 -0.007563
vn -0.402107 -0.900316 0.166558
vn -0.402107 -0.900316 0.166558
vn -0.402107 -0.900316 0.166558
vn 0.061873 -0.997755 -0.025628
vn 0.061873 -0.997755 -0.025628
vn 0.061873 -0.997755 -0.025628
vn -0.007564 -0.999805 0.018260
vn -0.007564 -0.999805 0.018260
vn -0.007564 -0.999805 0.018260
vn 0.166559 -0.900316 -0.402107
vn 0.166558 -0.900316 -0.402107
vn 0.166558 -0.900316 -0.402107
vn -0.025629 -0.997755 0.061873
vn -0.025629 -0.997755 0.061873
vn -0.025629 -0.997755 0.061873
vn 0.018260 -0.999805 0.007564
vn 0.018260 -0.999805 0.007564
vn 0.018260 -0.999805 0.007564
vn -0.402107 -0.900316 -0.166558
vn -0.402107 -0.900316 -0.166558
vn -0.402107 -0.900316 -0.166558
vn 0.061873 -0.997755 0.025629
vn 0.061874 -0.997755 0.025629
vn 0.061874 -0.997755 0.025629
vn -0.018260 -0.999805 0.007564
vn -0.018260 -0.999805 0.007564
vn -0.018260 -0.999805 0.007564
vn 0.402107 -0.900316 -0.166558
vn 0.402107 -0.900316 -0.166558
vn 0.402107 -0.900316 -0.166558
vn -0.061873 -0.997755 0.025629
vn -0.061873 -0.997755 0.025629
vn -0.061873 -0.997755 0.025629
vn 0.007564 -0.999805 -0.018260
vn 0.007564 -0.999805 -0.018260
vn 0.007564 -0.999805 -0.018260
vn -0.166559 -0.900316 0.402107
vn -0.166558 -0.900316 0.402107
vn -0.166558 -0.900316 0.402107
vn 0.025629 -0.997755 -0.061873
vn 0.025629 -0.997755 -0.061873
vn 0.025629 -0.997755 -0.061873
vn 0.101098 0.964473 -0.244072
vn 0.101098 0.964473 -0.244071
vn 0.101098 0.964473 -0.244071
vn -0.051182 0.991016 0.123563
vn -0.051182 0.991016 0.123563
vn -0.051182 0.991016 0.123563
vn 0.120196 0.949394 -0.290178
vn 0.120196 0.949394 -0.290178
vn 0.120195 0.949394 -0.290178
vn 0.101098 0.964473 0.244071
vn 0.101098 0.964473 0.244071
vn 0.101098 0.964473 0.244071
vn -0.051182 0.991016 -0.123563
vn -0.051181 0.991016 -0.123563
vn -0.051181 0.991016 -0.123563
vn 0.120196 0.949394 0.290178
vn 0.120196 0.949394 0.290178
vn 0.120196 0.949394 0.290178
vn -0.244072 0.964473 -0.101098
vn -0.244071 0.964473 -0.101098
vn -0.244071 0.964473 -0.101098
vn 0.123563 0.991016 0.051181
vn 0.123563 0.991016 0.051181
vn 0.123563 0.991016 0.051181
vn -0.290178 0.949394 -0.120196
vn -0.290178 0.949394 -0.120196
vn -0.290179 0.949394 -0.120196
vn -0.101098 0.964473 0.244071
vn -0.101098 0.964473 0.244071
vn -0.101098 0.964473 0.244071
vn 0.051182 0.991016 -0.123563
vn 0.051181 0.991016 -0.123563
vn 0.051181 0.991016 -0.123563
vn -0.120196 0.949394 0.290178
vn -0.120196 0.949394 0.290178
vn -0.120196 0.949394 0.290178
vn 0.244072 0.964473 -0.101098
vn 0.244071 0.964473 -0.101098
vn 0.244071 0.964473 -0.101098
vn -0.123563 0.991016 0.051181
vn -0.123563 0.991016 0.051181
vn -0.123563 0.991016 0.051181
vn 0.290178 0.949395 -0.120196
vn 0.290179 0.949394 -0.120196
vn 0.290179 0.949394 -0.120196
vn -0.101098 0.964473 -0.244072
vn -0.101098 0.964473 -0.244071
vn -0.101098 0.964473 -0.244071
vn 0.051182 0.991016 0.123563
vn 0.051182 0.991016 0.123563
vn 0.051181 0.991016 0.123563
vn -0.120196 0.949394 -0.290178
vn -0.120196 0.949394 -0.290178
vn -0.120196 0.949394 -0.290178
vn 0.244072 0.964473 0.101097
vn 0.244071 0.964473 0.101098
vn 0.244071 0.964473 0.101098
vn -0.123563 0.991016 -0.051182
vn -0.123563 0.991016 -0.051182
vn -0.123563 0.991016 -0.051182
vn 0.290178 0.949395 0.120196
vn 0.290178 0.949394 0.120196
vn 0.290179 0.949394 0.120196
vn -0.244072 0.964473 0.101097
vn -0.244071 0.964473 0.101098
vn -0.244071 0.964473 0.101098
vn 0.123563 0.991016 -0.051182
vn 0.123563 0.991016 -0.051182
vn 0.123563 0.991016 -0.051182
vn -0.290178 0.949395 0.120196
vn -0.290179 0.949394 0.120196
vn -0.290179 0.949394 0.120196
vn -0.378842 0.141335 -0.914605
vn -0.378842 0.141335 -0.914605
vn -0.378842 0.141336 -0.914605
vn -0.382661 0.010843 -0.923825
vn -0.382661 0.010843 -0.923825
vn -0.382661 0.010843 -0.923825
vn -0.378905 0.140177 -0.914758
vn -0.378905 0.140177 -0.914758
vn -0.378905 0.140177 -0.914758
vn -0.373028 -0.223217 -0.900569
vn -0.373028 -0.223217 -0.900569
vn -0.373028 -0.223217 -0.900569
vn -0.379415 0.130426 -0.915988
vn -0.379415 0.130426 -0.915988
vn -0.379415 0.130426 -0.915988
vn -0.914605 0.141335 -0.378842
vn -0.914605 0.141335 -0.378842
vn -0.914605 0.141335 -0.378842
vn -0.923825 0.010843 -0.382661
vn -0.923825 0.010843 -0.382661
vn -0.923825 0.010843 -0.382661
vn -0.914757 0.140177 -0.378905
vn -0.914757 0.140177 -0.378905
vn -0.914757 0.140177 -0.378905
vn -0.900569 -0.223217 -0.373028
vn -0.900569 -0.223217 -0.373028
vn -0.900569 -0.223217 -0.373028
vn -0.915988 0.130426 -0.379415
vn -0.915988 0.130426 -0.379415
vn -0.915988 0.130426 -0.379415
vn -0.914605 0.141335 0.378842
vn -0.914605 0.141335 0.378842
vn -0.914605 0.141335 0.378842
vn -0.923825 0.010843 0.382661
vn -0.923825 0.010843 0.382661
vn -0.923825 0.010843 0.382661
vn -0.914758 0.140177 0.378905
vn -0.914757 0.140177 0.378905
vn -0.914758 0.140177 0.378905
vn -0.900569 -0.223217 0.373028
vn -0.900569 -0.223217 0.373028
vn -0.900569 -0.223217 0.373028
vn -0.915988 0.130426 0.379415
vn -0.915988 0.130427 0.379415
vn -0.915988 0.130426 0.379415
vn -0.378842 0.141336 0.914605
vn -0.378842 0.141336 0.914605
vn -0.378842 0.141336 0.914605
vn -0.382661 0.010843 0.923825
vn -0.382661 0.010843 0.923825
vn -0.382661 0.010843 0.923825
vn -0.378905 0.140177 0.914758
vn -0.378905 0.140177 0.914757
vn -0.378905 0.140177 0.914757
vn -0.373028 -0.223217 0.900569
vn -0.373028 -0.223217 0.900569
vn -0.373028 -0.223217 0.900569
vn -0.379414 0.130427 0.915988
vn -0.379414 0.130427 0.915988
vn -0.379415 0.130427 0.915988
vn 0.378842 0.141336 0.914605
vn 0.378842 0.141336 0.914605
vn 0.378842 0.141336 0.914605
vn 0.382661 0.010843 0.923825
vn 0.382661 0.010843 0.923825
vn 0.382661 0.010843 0.923825
vn 0.378905 0.140177 0.914757
vn 0.378905 0.140177 0.914757
vn 0.378905 0.140177 0.914757
vn 0.373028 -0.223217 0.900569
vn 0.373028 -0.223217 0.900569
vn 0.373028 -0.223217 0.900569
vn 0.379414 0.130427 0.915988
vn 0.379414 0.130427 0.915988
vn 0.379415 0.130426 0.915988
vn 0.914605 0.141335 0.378842
vn 0.914605 0.141335 0.378842
vn 0.914605 0.141335 0.378842
vn 0.923825 0.010843 0.382661
vn 0.923825 0.010843 0.382661
vn 0.923825 0.010843 0.382661
vn 0.914757 0.140177 0.378905
vn 0.914757 0.140177 0.378905
vn 0.914757 0.140177 0.378905
vn 0.900569 -0.223217 0.373028
vn 0.900569 -0.223217 0.373028
vn 0.900569 -0.223217 0.373028
vn 0.915988 0.130427 0.379415
vn 0.915988 0.130427 0.379415
vn 0.915988 0.130427 0.379415
vn 0.914605 0.141335 -0.378842
vn 0.914605 0.141335 -0.378842
vn 0.914605 0.141335 -0.378842
vn 0.923825 0.010843 -0.382661
vn 0.923825 0.010843 -0.382661
vn 0.923825 0.010843 -0.382661
vn 0.914758 0.140177 -0.378905
vn 0.914757 0.140177 -0.378905
vn 0.914758 0.140177 -0.378905
vn 0.900569 -0.223217 -0.373028
vn 0.900569 -0.223217 -0.373028
vn 0.900569 -0.223217 -0.373028
vn 0.915988 0.130426 -0.379415
vn 0.915988 0.130426 -0.379415
vn 0.915988 0.130426 -0.379415
vn 0.378842 0.141335 -0.914605
vn 0.378842 0.141335 -0.914605
vn 0.378842 0.141336 -0.914605
vn 0.382661 0.010843 -0.923825
vn 0.382661 0.010843 -0.923825
vn 0.382661 0.010843 -0.923825
vn 0.378905 0.140177 -0.914758
vn 0.378905 0.140177 -0.914757
vn 0.378905 0.140177 -0.914758
vn 0.373028 -0.223217 -0.900569
vn 0.373028 -0.223217 -0.900569
vn 0.373028 -0.223218 -0.900569
vn 0.379415 0.130426 -0.915988
vn 0.379415 0.130426 -0.915988
vn 0.379415 0.130426 -0.915988
vn -0.025888 -0.997709 0.062500
vn 0.062500 -0.997709 -0.025888
vn 0.379415 -0.130426 -0.915988
vn 0.130071 0.990040 -0.053877
vn -0.062501 -0.997709 -0.025888
vn 0.915988 -0.130427 -0.379415
vn 0.025888 -0.997709 -0.062499
vn -0.130070 0.990040 -0.053877
vn 0.915988 -0.130426 0.379415
vn -0.062499 -0.997709 0.025888
vn 0.053877 0.990040 0.130070
vn 0.379415 -0.130426 0.915988
vn -0.130070 0.990040 0.053877
vn 0.053877 0.990040 -0.130071
vn -0.379415 -0.130426 0.915988
vn 0.130070 0.990040 0.053877
vn 0.382639 0.015271 0.923772
vn -0.915988 -0.130426 0.379415
vn 0.062499 -0.997709 0.025888
vn 0.923772 0.015271 0.382639
vn -0.915988 -0.130426 -0.379415
vn -0.053876 0.990040 -0.130071
vn 0.025887 -0.997709 0.062500
vn -0.379415 -0.130427 -0.915988
vn -0.025887 -0.997709 -0.062499
vn -0.053877 0.990040 0.130070
vn -0.382639 0.015271 0.923772
vn -0.923772 0.015271 0.382639
vn -0.923772 0.015271 -0.382639
vn -0.382639 0.015271 -0.923772
vn 0.382639 0.015271 -0.923772
vn 0.923772 0.015271 -0.382639
vn 0.007564 -0.999805 0.018260
vn -0.166558 -0.900316 -0.402107
vn 0.025628 -0.997755 0.061873
vn -0.007564 -0.999805 -0.018260
vn 0.166558 -0.900316 0.402107
vn -0.025627 -0.997755 -0.061873
vn -0.018260 -0.999805 -0.007563
vn 0.402107 -0.900316 0.166558
vn -0.061872 -0.997755 -0.025628
vn 0.018260 -0.999805 -0.007563
vn -0.402107 -0.900316 0.166558
vn 0.061873 -0.997755 -0.025628
vn -0.007564 -0.999805 0.018260
vn 0.166559 -0.900316 -0.402107
vn -0.025629 -0.997755 0.061873
vn 0.018260 -0.999805 0.007564
vn -0.402107 -0.900316 -0.166558
vn 0.061872 -0.997755 0.025629
vn -0.018260 -0.999805 0.007564
vn 0.402107 -0.900316 -0.166558
vn -0.061873 -0.997755 0.025629
vn 0.007564 -0.999805 -0.018260
vn -0.166559 -0.900316 0.402107
vn 0.025629 -0.997755 -0.061873
vn 0.101098 0.964473 -0.244072
vn -0.051181 0.991016 0.123563
vn 0.120196 0.949394 -0.290178
vn 0.101098 0.964473 0.244071
vn -0.051182 0.991016 -0.123563
vn 0.120195 0.949394 0.290178
vn -0.244072 0.964473 -0.101098
vn 0.123563 0.991016 0.051181
vn -0.290177 0.949394 -0.120196
vn -0.101098 0.964473 0.244071
vn 0.051182 0.991016 -0.123563
vn -0.120195 0.949394 0.290178
vn 0.244072 0.964473 -0.101098
vn -0.123563 0.991016 0.051181
vn 0.290177 0.949395 -0.120196
vn -0.101098 0.964473 -0.244072
vn 0.051182 0.991016 0.123563
vn -0.120195 0.949394 -0.290178
vn 0.244072 0.964473 0.101097
vn -0.123563 0.991016 -0.051182
vn 0.290177 0.949395 0.120196
vn -0.244072 0.964473 0.101097
vn 0.123563 0.991016 -0.051182
vn -0.290177 0.949395 0.120196
vn -0.378842 0.141335 -0.914605
vn -0.382661 0.010843 -0.923825
vn -0.378905 0.140177 -0.914758
vn -0.373028 -0.223218 -0.900569
vn -0.379414 0.130427 -0.915988
vn -0.914605 0.141335 -0.378842
vn -0.923825 0.010843 -0.382661
vn -0.914758 0.140177 -0.378905
vn -0.900569 -0.223217 -0.373028
vn -0.915988 0.130426 -0.379415
vn -0.914605 0.141335 0.378842
vn -0.923825 0.010843 0.382661
vn -0.914758 0.140177 0.378905
vn -0.900569 -0.223217 0.373028
vn -0.915988 0.130427 0.379414
vn -0.378842 0.141336 0.914605
vn -0.382661 0.010843 0.923825
vn -0.378905 0.140177 0.914758
vn -0.373028 -0.223217 0.900569
vn -0.379414 0.130427 0.915988
vn 0.378842 0.141336 0.914605
vn 0.382661 0.010843 0.923825
vn 0.378905 0.140177 0.914757
vn 0.373028 -0.223217 0.900569
vn 0.379414 0.130427 0.915988
vn 0.914605 0.141335 0.378842
vn 0.923825 0.010843 0.382661
vn 0.914758 0.140177 0.378905
vn 0.900569 -0.223217 0.373028
vn 0.915988 0.130426 0.379414
vn 0.914605 0.141335 -0.378842
vn 0.923825 0.010843 -0.382661
vn 0.914757 0.140177 -0.378905
vn 0.900569 -0.223217 -0.373028
vn 0.915988 0.130426 -0.379415
vn 0.378842 0.141335 -0.914605
vn 0.382661 0.010843 -0.923825
vn 0.378905 0.140177 -0.914758
vn 0.373028 -0.223217 -0.900569
vn 0.379414 0.130426 -0.915988
f 1/1/1 2/2/2 3/3/3
f 4/4/4 5/5/5 6/6/6
f 7/7/7 8/8/8 9/9/9
f 10/10/10 11/11/11 12/12/12
f 13/13/13 14/14/14 15/15/15
f 16/16/16 17/17/17 18/18/18
f 19/19/19 20/20/20 21/21/21
f 22/22/22 23/23/23 24/24/24
f 25/25/25 26/26/26 27/27/27
f 28/28/28 29/29/29 30/30/30
f 31/31/31 32/32/32 33/33/33
f 34/34/34 35/35/35 36/36/36
f 37/37/37 38/38/38 39/39/39
f 40/40/40 41/41/41 42/42/42
f 43/43/43 44/44/44 45/45/45
f 46/46/46 47/47/47 48/48/48
f 49/49/49 50/50/50 51/51/51
f 52/52/52 53/53/53 54/54/54
f 55/55/55 56/56/56 57/57/57
f 58/58/58 59/59/59 60/60/60
f 61/61/61 62/62/62 63/63/63
f 64/64/64 65/65/65 66/66/66
f 67/67/67 68/68/68 69/69/69
f 70/70/70 71/71/71 72/72/72
f 73/73/73 74/74/74 75/75/75
f 76/76/76 77/77/77 78/78/78
f 79/79/79 80/80/80 81/81/81
f 82/82/82 83/83/83 84/84/84
f 85/85/85 86/86/86 87/87/87
f 88/88/88 89/89/89 90/90/90
f 91/91/91 92/92/92 93/93/93
f 94/94/94 95/95/95 96/96/96
f 97/97/97 98/98/98 99/99/99
f 100/100/100 101/101/101 102/102/102
f 103/103/103 104/104/104 105/105/105
f 106/106/106 107/107/107 108/108/108
f 109/109/109 110/110/110 111/111/111
f 112/112/112 113/113/113 114/114/114
f 115/115/115 116/116/116 117/117/117
f 118/118/118 119/119/119 120/120/120
f 121/121/121 122/122/122 123/123/123
f 124/124/124 125/125/125 126/126/126
f 127/127/127 128/128/128 129/129/129
f 130/130/130 131/131/131 132/132/132
f 133/133/133 134/134/134 135/135/135
f 136/136/136 137/137/137 138/138/138
f 139/139/139 140/140/140 141/141/141
f 142/142/142 143/143/143 144/144/144
f 145/145/145 146/146/146 147/147/147
f 148/148/148 149/149/149 150/150/150
f 151/151/151 152/152/152 153/153/153
f 154/154/154 155/155/155 156/156/156
f 157/157/157 158/158/158 159/159/159
f 160/160/160 161/161/161 162/162/162
f 163/163/163 164/164/164 165/165/165
f 166/166/166 167/167/167 168/168/168
f 169/169/169 170/170/170 171/171/171
f 172/172/172 173/173/173 174/174/174
f 175/175/175 176/176/176 177/177/177
f 178/178/178 179/179/179 180/180/180
f 181/181/181 182/182/182 183/183/183
f 184/184/184 185/185/185 186/186/186
f 187/187/187 188/188/188 189/189/189
f 190/190/190 191/191/191 192/192/192
f 193/193/193 194/194/194 195/195/195
f 196/196/196 197/197/197 198/198/198
f 199/199/199 200/200/200 201/201/201
f 202/202/202 203/203/203 204/204/204
f 205/205/205 206/206/206 207/207/207
f 208/208/208 209/209/209 210/210/210
f 211/211/211 212/212/212 213/213/213
f 214/214/214 215/215/215 216/216/216
f 217/217/217 218/218/218 219/219/219
f 220/220/220 221/221/221 222/222/222
f 223/223/223 224/224/224 225/225/225
f 226/226/226 227/227/227 228/228/228
f 229/229/229 230/230/230 231/231/231
f 232/232/232 233/233/233 234/234/234
f 235/235/235 236/236/236 237/237/237
f 238/238/238 239/239/239 240/240/240
f 241/241/241 242/242/242 243/243/243
f 244/244/244 245/245/245 246/246/246
f 247/247/247 248/248/248 249/249/249
f 250/250/250 251/251/251 252/252/252
f 253/253/253 254/254/254 255/255/255
f 256/256/256 257/257/257 258/258/258
f 259/259/259 260/260/260 261/261/261
f 262/262/262 263/263/263 264/264/264
f 265/265/265 266/266/266 267/267/267
f 268/268/268 269/269/269 270/270/270
f 271/271/271 272/272/272 273/273/273
f 274/274/274 275/275/275 276/276/276
f 277/277/277 278/278/278 279/279/279
f 280/280/280 281/281/281 282/282/282
f 283/283/283 284/284/284 285/285/285
f 286/286/286 287/287/287 288/288/288
f 289/289/289 290/290/290 291/291/291
f 292/292/292 293/293/293 294/294/294
f 295/295/295 296/296/296 297/297/297
f 298/298/298 299/299/299 300/300/300
f 301/301/301 302/302/302 303/303/303
f 304/304/304 305/305/305 306/306/306
f 307/307/307 308/308/308 309/309/309
f 310/310/310 311/311/311 312/312/312
f 313/313/313 314/314/314 315/315/315
f 316/316/316 317/317/317 318/318/318
f 319/319/319 320/320/320 321/321/321
f 322/322/322 323/323/323 324/324/324
f 325/325/325 326/326/326 327/327/327
f 328/328/328 329/329/329 330/330/330
f 331/331/331 332/332/332 333/333/333
f 334/334/334 335/335/335 336/336/336
f 337/337/337 338/338/338 339/339/339
f 340/340/340 341/341/341 342/342/342
f 343/343/343 344/344/344 345/345/345
f 346/346/346 347/347/347 348/348/348
f 349/349/349 350/350/350 351/351/351
f 352/352/352 353/353/353 354/354/354
f 355/355/355 356/356/356 357/357/357
f 358/358/358 359/359/359 360/360/360
f 1/1/1 361/361/361 2/2/2
f 4/4/4 362/362/362 5/5/5
f 7/7/7 363/363/363 8/8/8
f 10/10/10 364/364/364 11/11/11
f 13/13/13 365/365/365 14/14/14
f 16/16/16 366/366/366 17/17/17
f 19/19/19 367/367/367 20/20/20
f 22/22/22 368/368/368 23/23/23
f 25/25/25 369/369/369 26/26/26
f 28/28/28 370/370/370 29/29/29
f 31/31/31 371/371/371 32/32/32
f 34/34/34 372/372/372 35/35/35
f 37/37/37 373/373/373 38/38/38
f 40/40/40 374/374/374 41/41/41
f 43/43/43 375/375/375 44/44/44
f 46/46/46 376/376/376 47/47/47
f 49/49/49 377/377/377 50/50/50
f 52/52/52 378/378/378 53/53/53
f 55/55/55 379/379/379 56/56/56
f 58/58/58 380/380/380 59/59/59
f 61/61/61 381/381/381 62/62/62
f 64/64/64 382/382/382 65/65/65
f 67/67/67 383/383/383 68/68/68
f 70/70/70 384/384/384 71/71/71
f 73/73/73 385/385/385 74/74/74
f 76/76/76 386/386/386 77/77/77
f 79/79/79 387/387/387 80/80/80
f 82/82/82 388/388/388 83/83/83
f 85/85/85 389/389/389 86/86/86
f 88/88/88 390/390/390 89/89/89
f 91/91/91 391/391/391 92/92/92
f 94/94/94 392/392/392 95/95/95
f 97/97/97 393/393/393 98/98/98
f 100/100/100 394/394/394 101/101/101
f 103/103/103 395/395/395 104/104/104
f 106/106/106 396/396/396 107/107/107
f 109/109/109 397/397/397 110/110/110
f 112/112/112 398/398/398 113/113/113
f 115/115/115 399/399/399 116/116/116
f 118/118/118 400/400/400 119/119/119
f 121/121/121 401/401/401 122/122/122
f 124/124/124 402/402/402 125/125/125
f 127/127/127 403/403/403 128/128/128
f 130/130/130 404/404/404 131/131/131
f 133/133/133 405/405/405 134/134/134
f 136/136/136 406/406/406 137/137/137
f 139/139/139 407/407/407 140/140/140
f 142/142/142 408/408/408 143/143/143
f 145/145/145 409/409/409 146/146/146
f 148/148/148 410/410/410 149/149/149
f 151/151/151 411/411/411 152/152/152
f 154/154/154 412/412/412 155/155/155
f 157/157/157 413/413/413 158/158/158
f 160/160/160 414/414/414 161/161/161
f 163/163/163 415/415/415 164/164/164
f 166/166/166 416/416/416 167/167/167
f 169/169/169 417/417/417 170/170/170
f 172/172/172 418/418/418 173/173/173
f 175/175/175 419/419/419 176/176/176
f 178/178/178 420/420/420 179/179/179
f 181/181/181 421/421/421 182/182/182
f 184/184/184 422/422/422 185/185/185
f 187/187/187 423/423/423 188/188/188
f 190/190/190 424/424/424 191/191/191
f 193/193/193 425/425/425 194/194/194
f 196/196/196 426/426/426 197/197/197
f 199/199/199 427/427/427 200/200/200
f 202/202/202 428/428/428 203/203/203
f 205/205/205 429/429/429 206/206/206
f 208/208/208 430/430/430 209/209/209
f 211/211/211 431/431/431 212/212/212
f 214/214/214 432/432/432 215/215/215
f 217/217/217 433/433/433 218/218/218
f 220/220/220 434/434/434 221/221/221
f 223/223/223 435/435/435 224/224/224
f 226/226/226 436/436/436 227/227/227
f 229/229/229 437/437/437 230/230/230
f 232/232/232 438/438/438 233/233/233
f 235/235/235 439/439/439 236/236/236
f 238/238/238 440/440/440 239/239/239
f 241/241/241 441/441/441 242/242/242
f 244/244/244 442/442/442 245/245/245
f 247/247/247 443/443/443 248/248/248
f 250/250/250 444/444/444 251/251/251
f 253/253/253 445/445/445 254/254/254
f 256/256/256 446/446/446 257/257/257
f 259/259/259 447/447/447 260/260/260
f 262/262/262 448/448/448 263/263/263
f 265/265/265 449/449/449 266/266/266
f 268/268/268 450/450/450 269/269/269
f 271/271/271 451/451/451 272/272/272
f 274/274/274 452/452/452 275/275/275
f 277/277/277 453/453/453 278/278/278
f 280/280/280 454/454/454 281/281/281
f 283/283/283 455/455/455 284/284/284
f 286/286/286 456/456/456 287/287/287
f 289/289/289 457/457/457 290/290/290
f 292/292/292 458/458/458 293/293/293
f 295/295/295 459/459/459 296/296/296
f 298/298/298 460/460/460 299/299/299
f 301/301/301 461/461/461 302/302/302
f 304/304/304 462/462/462 305/305/305
f 307/307/307 463/463/463 308/308/308
f 310/310/310 464/464/464 311/311/311
f 313/313/313 465/465/465 314/314/314
f 316/316/316 466/466/466 317/317/317
f 319/319/319 467/467/467 320/320/320
f 322/322/322 468/468/468 323/323/323
f 325/325/325 469/469/469 326/326/326
f 328/328/328 470/470/470 329/329/329
f 331/331/331 471/471/471 332/332/332
f 334/334/334 472/472/472 335/335/335
f 337/337/337 473/473/473 338/338/338
f 340/340/340 474/474/474 341/341/341
f 343/343/343 475/475/475 344/344/344
f 346/346/346 476/476/476 347/347/347
f 349/349/349 477/477/477 350/350/350
f 352/352/352 478/478/478 353/353/353
f 355/355/355 479/479/479 356/356/356
f 358/358/358 480/480/480 359/359/359
