# Cube -- imported by tools/import_asset_pack.py from Baton1.fbx
o __pending__
v 0.000000 -0.080577 -0.010929
v 0.007728 -0.262102 -0.007728
v 0.000000 -0.262102 -0.010929
v 0.007728 -0.080577 -0.007728
v 0.010929 -0.262102 0.000000
v 0.010929 -0.080577 0.000000
v 0.007728 -0.262102 0.007728
v 0.010929 -0.262102 0.000000
v 0.007728 -0.080577 0.007728
v 0.000000 -0.262102 0.010930
v 0.000000 -0.080577 0.010930
v -0.007728 -0.262102 0.007728
v 0.000000 -0.262102 0.010930
v -0.007728 -0.080577 0.007728
v -0.010929 -0.262102 0.000000
v 0.010929 -0.078843 0.000000
v 0.010929 -0.080577 0.000000
v -0.010929 -0.080577 0.000000
v -0.007728 -0.262102 -0.007728
v -0.010929 -0.262102 0.000000
v -0.007728 -0.080577 -0.007728
v 0.000000 -0.262102 -0.010929
v -0.006838 -0.265211 -0.006838
v 0.007728 -0.078843 0.007728
v 0.000000 -0.078843 0.009201
v 0.000000 -0.078843 0.010930
v -0.007728 -0.078843 0.007728
v 0.000000 -0.078843 -0.010929
v 0.000000 -0.080577 -0.010929
v 0.007728 -0.078843 -0.007728
v 0.007728 -0.078843 0.007728
v -0.010929 -0.078843 0.000000
v -0.010929 -0.080577 0.000000
v 0.000000 -0.078843 0.010930
v 0.000000 -0.080577 0.010930
v -0.007728 -0.078843 -0.007728
v 0.000000 -0.078843 -0.009201
v -0.006506 -0.054783 -0.006506
v 0.000000 -0.054783 -0.009201
v 0.007728 -0.078843 -0.007728
v 0.009201 -0.078843 0.000000
v 0.010929 -0.078843 0.000000
v -0.010929 -0.078843 0.000000
v -0.006506 -0.078843 -0.006506
v -0.007728 -0.078843 -0.007728
v -0.006506 -0.078843 0.006506
v -0.007728 -0.078843 0.007728
v 0.006506 -0.078843 0.006506
v 0.000000 -0.078843 -0.010929
v 0.006506 -0.078843 -0.006506
v 0.000000 -0.078843 -0.009201
v -0.009201 -0.078843 0.000000
v 0.000000 -0.054783 0.009201
v -0.004939 -0.051290 0.004939
v -0.006506 -0.054783 0.006506
v -0.006506 -0.078843 0.006506
v -0.009201 -0.054783 0.000000
v -0.009201 -0.078843 0.000000
v 0.006506 -0.078843 0.006506
v 0.000000 -0.054783 0.009201
v 0.000000 -0.078843 0.009201
v 0.006506 -0.078843 -0.006506
v 0.009201 -0.054783 0.000000
v 0.009201 -0.078843 0.000000
v -0.009201 -0.078843 0.000000
v -0.006506 -0.078843 -0.006506
v 0.000000 -0.078843 0.009201
v 0.009201 -0.078843 0.000000
v 0.006506 -0.054783 0.006506
v 0.000000 -0.078843 -0.009201
v 0.006506 -0.054783 -0.006506
v 0.006985 -0.051290 0.000000
v 0.004939 -0.051290 0.004939
v 0.000000 -0.054783 -0.009201
v 0.004939 -0.051290 -0.004939
v 0.000000 -0.051290 -0.006985
v -0.006985 -0.051290 0.000000
v 0.000000 -0.051290 0.006985
v 0.006985 -0.051290 0.000000
v -0.006985 -0.051290 0.000000
v -0.004939 -0.051290 -0.004939
v -0.009670 -0.275350 0.000000
v -0.009670 -0.265211 0.000000
v 0.000000 -0.265211 -0.009670
v 0.009670 -0.265211 0.000000
v -0.006838 -0.265211 0.006838
v 0.006838 -0.265211 0.006838
v 0.006838 -0.265211 -0.006838
v 0.000000 -0.265211 0.009670
v 0.006838 -0.275350 0.006838
v -0.006838 -0.275350 0.006838
v -0.006838 -0.275350 -0.006838
v 0.000000 -0.275350 0.009670
v 0.009670 -0.275350 0.000000
v 0.000000 -0.275350 -0.009670
v 0.000000 -0.265211 -0.009670
v -0.006838 -0.275350 -0.006838
v -0.009670 -0.265211 0.000000
v -0.006838 -0.275350 0.006838
v 0.000000 -0.265211 0.009670
v 0.006838 -0.275350 0.006838
v 0.009670 -0.265211 0.000000
v 0.006838 -0.275350 -0.006838
v -0.006985 -0.069805 0.000026
v -0.004939 0.134870 -0.004913
v -0.004939 -0.069805 -0.004913
v -0.006985 0.134870 0.000026
v -0.003949 0.136633 0.003975
v -0.005585 0.136633 0.000026
v 0.000000 -0.069805 0.007012
v -0.004939 0.134870 0.004966
v -0.004939 -0.069805 0.004966
v 0.006985 -0.069805 0.000026
v 0.004939 0.134870 0.004966
v 0.004939 -0.069805 0.004966
v 0.000000 -0.069805 -0.006959
v 0.004939 0.134870 -0.004913
v 0.004939 -0.069805 -0.004913
v 0.000000 0.134870 -0.006959
v 0.000000 -0.069805 -0.006959
v -0.004939 -0.069805 0.004966
v -0.006985 0.134870 0.000026
v 0.000000 0.134870 0.007012
v 0.000000 -0.069805 0.007012
v 0.006985 0.134870 0.000026
v 0.006985 -0.069805 0.000026
v 0.004939 0.134870 0.004966
v 0.000000 0.136633 0.005611
v 0.000000 0.134870 0.007012
v 0.004939 0.134870 -0.004913
v 0.005585 0.136633 0.000026
v 0.006985 0.134870 0.000026
v -0.003949 0.136633 -0.003923
v 0.000000 0.136633 0.005611
v -0.003949 0.136633 0.003975
v 0.006985 0.134870 0.000026
v 0.003949 0.136633 0.003975
v 0.000000 0.136633 -0.005559
v 0.003949 0.136633 -0.003923
v -0.004939 0.134870 -0.004913
v 0.000000 0.136633 -0.005559
v 0.000000 0.134870 -0.006959
v 0.000000 0.126649 -0.005553
v 0.003949 0.265577 -0.003917
v 0.003949 0.126649 -0.003917
v -0.005585 0.265577 0.000032
v -0.003949 0.266173 -0.003917
v -0.003949 0.265577 -0.003917
v -0.003949 0.126649 -0.003917
v 0.000000 0.265577 -0.005553
v -0.003949 0.126649 0.003981
v -0.005585 0.265577 0.000032
v -0.005585 0.126649 0.000032
v 0.003949 0.126649 0.003981
v 0.000000 0.265577 0.005617
v 0.000000 0.126649 0.005617
v 0.005585 0.265577 0.000032
v 0.005585 0.126649 0.000032
v -0.005585 0.126649 0.000032
v -0.003949 0.126649 -0.003917
v -0.003949 0.265577 0.003981
v 0.005585 0.126649 0.000032
v 0.003949 0.265577 0.003981
v 0.003949 0.126649 0.003981
v 0.005585 0.266173 0.000032
v 0.005787 0.266173 -0.005755
v 0.008184 0.266173 0.000032
v -0.003949 0.266173 0.003981
v 0.005585 0.265577 0.000032
v 0.003949 0.266173 0.003981
v 0.003949 0.266173 -0.003917
v -0.003949 0.265577 -0.003917
v 0.000000 0.266173 -0.005553
v -0.005585 0.266173 0.000032
v 0.003949 0.265577 0.003981
v 0.000000 0.266173 0.005617
v 0.005585 0.266173 0.000032
v 0.008184 0.266173 0.000032
v 0.005787 0.274103 0.005819
v 0.005787 0.266173 0.005819
v -0.005585 0.266173 0.000032
v -0.005787 0.266173 -0.005755
v -0.003949 0.266173 -0.003917
v 0.000000 0.266173 0.005617
v -0.005787 0.266173 0.005819
v -0.003949 0.266173 0.003981
v 0.005787 0.266173 0.005819
v 0.003949 0.266173 0.003981
v 0.000000 0.266173 -0.005553
v 0.003949 0.266173 -0.003917
v 0.000000 0.266173 -0.008152
v -0.008184 0.266173 0.000032
v 0.000000 0.266173 0.008216
v -0.005787 0.274103 -0.005755
v -0.004461 0.274650 0.000032
v -0.003155 0.274650 -0.003123
v 0.000000 0.266173 -0.008152
v 0.005787 0.274103 -0.005755
v 0.005787 0.266173 -0.005755
v -0.005787 0.266173 -0.005755
v 0.000000 0.274103 -0.008152
v -0.005787 0.266173 0.005819
v -0.008184 0.274103 0.000032
v -0.008184 0.266173 0.000032
v 0.000000 0.274103 0.008216
v 0.000000 0.266173 0.008216
v 0.008184 0.274103 0.000032
v 0.008184 0.266173 0.000032
v -0.005787 0.274103 -0.005755
v -0.005787 0.266173 -0.005755
v 0.000000 0.266173 0.008216
v -0.005787 0.274103 0.005819
v -0.005787 0.266173 0.005819
v 0.003155 0.274650 0.003187
v 0.004461 0.274650 0.000032
v 0.000000 0.274103 0.008216
v -0.003155 0.274650 0.003187
v -0.005787 0.274103 0.005819
v 0.005787 0.274103 0.005819
v 0.000000 0.274103 -0.008152
v 0.003155 0.274650 -0.003123
v 0.005787 0.274103 -0.005755
v 0.000000 0.274650 -0.004429
v -0.008184 0.274103 0.000032
v 0.000000 0.274650 0.004493
v 0.008184 0.274103 0.000032
v 0.000000 -0.078843 0.010930
v 0.000000 -0.078843 -0.010929
v 0.010929 -0.078843 0.000000
v -0.010929 -0.078843 0.000000
v 0.000000 -0.051290 0.006985
v -0.009201 -0.054783 0.000000
v 0.009201 -0.054783 0.000000
v 0.000000 -0.051290 -0.006985
v 0.000000 -0.275350 -0.009670
v 0.006838 -0.275350 -0.006838
v 0.009670 -0.275350 0.000000
v 0.000000 -0.275350 0.009670
v -0.009670 -0.275350 0.000000
v 0.000000 -0.275350 -0.009670
v -0.009670 -0.275350 0.000000
v 0.000000 -0.275350 0.009670
v 0.009670 -0.275350 0.000000
v -0.004939 0.134870 0.004966
v 0.000000 0.134870 0.007012
v 0.000000 0.134870 -0.006959
v -0.004939 0.134870 0.004966
v 0.003949 0.136633 0.003975
v 0.003949 0.136633 -0.003923
v -0.005585 0.136633 0.000026
v 0.005585 0.136633 0.000026
v -0.003949 0.136633 -0.003923
v -0.005585 0.266173 0.000032
v 0.005585 0.266173 0.000032
v -0.003949 0.266173 -0.003917
v 0.003949 0.266173 0.003981
v 0.008184 0.274103 0.000032
v -0.005787 0.274103 -0.005755
v -0.005787 0.274103 0.005819
v 0.000000 0.274103 0.008216
vt 0.397565 0.984607
vt 0.437548 0.117085
vt 0.397565 0.117085
vt 0.437548 0.984607
vt 0.465819 0.117532
vt 0.234421 0.984607
vt 0.274404 0.117085
vt 0.234421 0.117085
vt 0.274404 0.984607
vt 0.302675 0.117532
vt 0.315993 0.984607
vt 0.355976 0.117085
vt 0.315993 0.117085
vt 0.355976 0.984607
vt 0.384247 0.117532
vt 0.465819 0.993341
vt 0.465819 0.985054
vt 0.479137 0.984607
vt 0.519120 0.117085
vt 0.479137 0.117085
vt 0.519120 0.984607
vt 0.547391 0.117532
vt 0.516816 0.102315
vt 0.714266 0.313228
vt 0.693627 0.281795
vt 0.685994 0.284957
vt 0.355976 0.992894
vt 0.547391 0.993341
vt 0.547391 0.985054
vt 0.437548 0.992894
vt 0.274404 0.992894
vt 0.384247 0.993341
vt 0.384247 0.985054
vt 0.302675 0.993341
vt 0.302675 0.985054
vt 0.519120 0.992894
vt 0.810952 0.570727
vt 0.787151 0.685334
vt 0.810952 0.685711
vt 0.782520 0.284957
vt 0.751087 0.305596
vt 0.754248 0.313228
vt 0.714266 0.216703
vt 0.751087 0.224335
vt 0.754248 0.216703
vt 0.693627 0.248136
vt 0.685994 0.244974
vt 0.717428 0.305596
vt 0.782520 0.244974
vt 0.774887 0.281795
vt 0.774887 0.248136
vt 0.717428 0.224335
vt 0.753492 0.976207
vt 0.783098 0.993055
vt 0.787151 0.976207
vt 0.787151 0.861223
vt 0.810952 0.976584
vt 0.810952 0.861599
vt 0.787151 0.424914
vt 0.810952 0.540275
vt 0.810952 0.425290
vt 0.787151 0.715786
vt 0.810952 0.831147
vt 0.810952 0.716163
vt 0.753492 0.570350
vt 0.787151 0.570350
vt 0.753492 0.861223
vt 0.753492 0.424914
vt 0.787151 0.539898
vt 0.753492 0.715786
vt 0.787151 0.830771
vt 0.757545 0.556746
vt 0.783098 0.556746
vt 0.753492 0.830771
vt 0.783098 0.847619
vt 0.801167 0.702468
vt 0.801167 0.993341
vt 0.801167 0.557032
vt 0.801167 0.847905
vt 0.757545 0.702182
vt 0.783098 0.702182
vt 0.481441 0.053860
vt 0.481441 0.102315
vt 0.399869 0.102315
vt 0.236725 0.102315
vt 0.353672 0.102315
vt 0.272100 0.102315
vt 0.435244 0.102315
vt 0.318297 0.102315
vt 0.560709 0.252611
vt 0.585723 0.313000
vt 0.646112 0.287986
vt 0.318297 0.053860
vt 0.236725 0.053860
vt 0.399869 0.053860
vt 0.541830 0.102711
vt 0.516816 0.053860
vt 0.378686 0.102711
vt 0.353672 0.053860
vt 0.297114 0.102711
vt 0.272100 0.053860
vt 0.460258 0.102711
vt 0.435244 0.053860
vt 0.024728 0.006659
vt 0.050282 0.984815
vt 0.050282 0.006659
vt 0.659430 0.170832
vt 0.665614 0.193824
vt 0.665614 0.173393
vt 0.195550 0.006659
vt 0.221103 0.984815
vt 0.221103 0.006659
vt 0.081669 0.006659
vt 0.107222 0.984815
vt 0.107222 0.006659
vt 0.138609 0.006659
vt 0.164163 0.984815
vt 0.164163 0.006659
vt 0.068351 0.985101
vt 0.068351 0.006945
vt 0.006659 0.006945
vt 0.024728 0.984815
vt 0.125291 0.985101
vt 0.125291 0.006945
vt 0.182232 0.985101
vt 0.182232 0.006945
vt 0.665614 0.209703
vt 0.659430 0.232696
vt 0.665614 0.235257
vt 0.665614 0.287446
vt 0.659430 0.310439
vt 0.665614 0.313000
vt 0.047720 0.993341
vt 0.198111 0.993341
vt 0.218542 0.993341
vt 0.081669 0.984815
vt 0.104661 0.993341
vt 0.141171 0.993341
vt 0.161601 0.993341
vt 0.659431 0.274128
vt 0.665614 0.251136
vt 0.659431 0.248575
vt 0.575156 0.326318
vt 0.595587 0.990266
vt 0.595587 0.326318
vt 0.685994 0.990495
vt 0.706425 0.993341
vt 0.706425 0.990495
vt 0.560709 0.326546
vt 0.575156 0.990266
vt 0.658229 0.326318
vt 0.672676 0.990495
vt 0.672676 0.326546
vt 0.623352 0.326546
vt 0.637799 0.990267
vt 0.637799 0.326318
vt 0.610034 0.990495
vt 0.610034 0.326546
vt 0.685994 0.326546
vt 0.706425 0.326546
vt 0.658229 0.990267
vt 0.719743 0.326546
vt 0.740174 0.990495
vt 0.740174 0.326546
vt 0.779415 0.350795
vt 0.804600 0.339318
vt 0.774661 0.339318
vt 0.658229 0.993112
vt 0.719743 0.990495
vt 0.740174 0.993341
vt 0.595587 0.993112
vt 0.560709 0.990495
vt 0.575156 0.993112
vt 0.672676 0.993341
vt 0.623352 0.990495
vt 0.637799 0.993112
vt 0.610034 0.993341
vt 0.795838 0.227633
vt 0.833739 0.197695
vt 0.795838 0.197695
vt 0.799846 0.400119
vt 0.825769 0.390426
vt 0.814293 0.385672
vt 0.764968 0.385672
vt 0.774661 0.411596
vt 0.779415 0.400119
vt 0.753492 0.360488
vt 0.764968 0.365242
vt 0.814293 0.365242
vt 0.799846 0.350795
vt 0.825769 0.360488
vt 0.804600 0.411596
vt 0.753492 0.390426
vt 0.611817 0.142002
vt 0.588688 0.158440
vt 0.605008 0.158440
vt 0.834074 0.262121
vt 0.796173 0.292059
vt 0.834074 0.292059
vt 0.833739 0.240951
vt 0.796173 0.262121
vt 0.723895 0.152277
vt 0.686329 0.173446
vt 0.724230 0.173446
vt 0.834074 0.176525
vt 0.796173 0.176525
vt 0.795838 0.313228
vt 0.833739 0.313228
vt 0.686329 0.203385
vt 0.724230 0.203385
vt 0.737548 0.165484
vt 0.767486 0.203385
vt 0.767486 0.165484
vt 0.588688 0.197840
vt 0.605008 0.197840
vt 0.560709 0.193109
vt 0.577148 0.169980
vt 0.560709 0.163171
vt 0.581879 0.214279
vt 0.632987 0.163171
vt 0.616548 0.186300
vt 0.632987 0.193109
vt 0.616548 0.169980
vt 0.581879 0.142002
vt 0.577148 0.186300
vt 0.611817 0.214279
vt 0.315993 0.992894
vt 0.397565 0.992894
vt 0.234421 0.992894
vt 0.479137 0.992894
vt 0.757545 0.993055
vt 0.753492 0.685334
vt 0.753492 0.539898
vt 0.757545 0.847619
vt 0.646112 0.252611
vt 0.621098 0.227597
vt 0.585723 0.227597
vt 0.560709 0.287986
vt 0.621098 0.313000
vt 0.541830 0.054256
vt 0.378686 0.054256
vt 0.297114 0.054256
vt 0.460258 0.054256
vt 0.659430 0.196385
vt 0.195550 0.984815
vt 0.138609 0.984815
vt 0.006659 0.985101
vt 0.659430 0.212265
vt 0.659430 0.290008
vt 0.027289 0.993341
vt 0.084230 0.993341
vt 0.665614 0.271567
vt 0.685994 0.993341
vt 0.719743 0.993341
vt 0.560709 0.993341
vt 0.623352 0.993341
vt 0.833739 0.227633
vt 0.795838 0.240951
vt 0.685994 0.152277
vt 0.737548 0.203385
vn -0.000002 -0.000000 -1.000000
vn 0.695162 -0.183049 -0.695157
vn 0.000003 -0.183049 -0.983104
vn 0.707107 -0.000000 -0.707107
vn 0.983104 -0.183049 0.000002
vn 1.000000 -0.000000 -0.000001
vn 0.695157 -0.183049 0.695162
vn 0.983104 -0.183049 0.000002
vn 0.707107 0.000000 0.707106
vn -0.000003 -0.183049 0.983104
vn 0.000002 0.000000 1.000000
vn -0.695162 -0.183048 0.695157
vn -0.000003 -0.183049 0.983104
vn -0.707107 0.000000 0.707107
vn -0.983104 -0.183049 -0.000002
vn 0.776389 0.630254 0.000004
vn 1.000000 -0.000000 -0.000001
vn -1.000000 0.000000 0.000001
vn -0.695157 -0.183049 -0.695162
vn -0.983104 -0.183049 -0.000002
vn -0.707107 -0.000000 -0.707106
vn 0.000003 -0.183049 -0.983104
vn -0.692730 -0.200637 -0.692726
vn 0.548988 0.630254 0.548992
vn 0.000004 0.804193 0.594368
vn -0.000005 0.630255 0.776389
vn -0.548993 0.630254 0.548986
vn 0.000005 0.630254 -0.776389
vn -0.000002 -0.000000 -1.000000
vn 0.548993 0.630254 -0.548986
vn 0.548988 0.630254 0.548992
vn -0.776389 0.630254 -0.000004
vn -1.000000 0.000000 0.000001
vn -0.000005 0.630255 0.776389
vn 0.000002 0.000000 1.000000
vn -0.548988 0.630254 -0.548993
vn 0.000002 0.804199 -0.594360
vn -0.682361 0.262233 -0.682361
vn 0.000004 0.262223 -0.965007
vn 0.548993 0.630254 -0.548986
vn 0.594369 0.804193 -0.000006
vn 0.776389 0.630254 0.000004
vn -0.776389 0.630254 -0.000004
vn -0.420290 0.804185 -0.420288
vn -0.548988 0.630254 -0.548993
vn -0.420278 0.804193 0.420286
vn -0.548993 0.630254 0.548986
vn 0.420288 0.804192 0.420277
vn 0.000005 0.630254 -0.776389
vn 0.420278 0.804193 -0.420287
vn 0.000002 0.804199 -0.594360
vn -0.594369 0.804193 0.000006
vn -0.000009 0.262227 0.965006
vn -0.597107 0.535660 0.597103
vn -0.682369 0.262227 0.682356
vn -0.420278 0.804193 0.420286
vn -0.965007 0.262224 -0.000006
vn -0.594369 0.804193 0.000006
vn 0.420288 0.804192 0.420277
vn -0.000009 0.262227 0.965006
vn 0.000004 0.804193 0.594368
vn 0.420278 0.804193 -0.420287
vn 0.965007 0.262224 0.000005
vn 0.594369 0.804193 -0.000006
vn -0.594369 0.804193 0.000006
vn -0.420290 0.804185 -0.420288
vn 0.000004 0.804193 0.594368
vn 0.594369 0.804193 -0.000006
vn 0.682358 0.262230 0.682366
vn 0.000002 0.804199 -0.594360
vn 0.682369 0.262227 -0.682356
vn 0.844433 0.535661 -0.000000
vn 0.597105 0.535660 0.597105
vn 0.000004 0.262223 -0.965007
vn 0.597106 0.535660 -0.597103
vn 0.000002 0.535660 -0.844434
vn -0.844433 0.535661 -0.000000
vn -0.000002 0.535660 0.844434
vn 0.844433 0.535661 -0.000000
vn -0.844433 0.535661 -0.000000
vn -0.597105 0.535660 -0.597105
vn -0.776393 -0.630250 -0.000005
vn -0.979665 -0.200638 0.000005
vn -0.000004 -0.200637 -0.979666
vn 0.979666 -0.200638 -0.000005
vn -0.692726 -0.200636 0.692731
vn 0.692730 -0.200637 0.692726
vn 0.692726 -0.200636 -0.692731
vn 0.000004 -0.200636 0.979666
vn 0.548983 -0.630261 0.548989
vn -0.548998 -0.630247 0.548990
vn -0.548983 -0.630261 -0.548989
vn -0.000004 -0.630250 0.776392
vn 0.776393 -0.630250 0.000005
vn 0.000004 -0.630250 -0.776392
vn -0.000004 -0.200637 -0.979666
vn -0.548983 -0.630261 -0.548989
vn -0.979665 -0.200638 0.000005
vn -0.548998 -0.630247 0.548990
vn 0.000004 -0.200636 0.979666
vn 0.548983 -0.630261 0.548989
vn 0.979666 -0.200638 -0.000005
vn 0.548998 -0.630247 -0.548990
vn -1.000000 0.000000 -0.000003
vn -0.673028 0.306706 -0.673027
vn -0.707105 -0.000000 -0.707108
vn -0.951804 0.306708 0.000001
vn -0.553756 0.621857 0.553758
vn -0.783129 0.621860 -0.000000
vn -0.000002 0.000000 1.000000
vn -0.673026 0.306706 0.673029
vn -0.707109 0.000000 0.707105
vn 1.000000 -0.000000 0.000002
vn 0.673028 0.306706 0.673027
vn 0.707105 0.000000 0.707108
vn 0.000002 -0.000000 -1.000000
vn 0.673027 0.306706 -0.673028
vn 0.707108 -0.000000 -0.707105
vn -0.000001 0.306705 -0.951805
vn 0.000002 -0.000000 -1.000000
vn -0.707109 0.000000 0.707105
vn -0.951804 0.306708 0.000001
vn 0.000001 0.306705 0.951805
vn -0.000002 0.000000 1.000000
vn 0.951804 0.306707 -0.000000
vn 1.000000 -0.000000 0.000002
vn 0.673028 0.306706 0.673027
vn 0.000000 0.621858 0.783130
vn 0.000001 0.306705 0.951805
vn 0.673027 0.306706 -0.673028
vn 0.783129 0.621859 0.000003
vn 0.951804 0.306707 -0.000000
vn -0.553756 0.621857 -0.553759
vn 0.000000 0.621858 0.783130
vn -0.553756 0.621857 0.553758
vn 0.951804 0.306707 -0.000000
vn 0.553756 0.621857 0.553758
vn -0.000000 0.621857 -0.783131
vn 0.553760 0.621855 -0.553756
vn -0.673028 0.306706 -0.673027
vn -0.000000 0.621857 -0.783131
vn -0.000001 0.306705 -0.951805
vn 0.000003 -0.000000 -1.000000
vn 0.707109 -0.000000 -0.707105
vn 0.707109 -0.000000 -0.707105
vn -1.000000 0.000000 0.000002
vn -0.420284 -0.804192 -0.420282
vn -0.707111 -0.000000 -0.707103
vn -0.707105 -0.000000 -0.707109
vn -0.000002 -0.000000 -1.000000
vn -0.707109 0.000000 0.707105
vn -1.000000 0.000000 0.000002
vn -1.000000 -0.000000 -0.000003
vn 0.707105 0.000000 0.707109
vn 0.000002 0.000000 1.000000
vn -0.000003 0.000000 1.000000
vn 1.000000 -0.000000 -0.000002
vn 1.000000 0.000000 0.000003
vn -1.000000 -0.000000 -0.000003
vn -0.707105 -0.000000 -0.707109
vn -0.707109 0.000000 0.707105
vn 1.000000 0.000000 0.000003
vn 0.707111 0.000000 0.707103
vn 0.707105 0.000000 0.707109
vn 0.594375 -0.804188 0.000000
vn 0.548989 -0.630262 -0.548981
vn 0.776400 -0.630240 0.000006
vn -0.420283 -0.804194 0.420279
vn 1.000000 -0.000000 -0.000002
vn 0.420285 -0.804191 0.420282
vn 0.420283 -0.804194 -0.420279
vn -0.707111 -0.000000 -0.707103
vn -0.000004 -0.804192 -0.594370
vn -0.594375 -0.804188 0.000000
vn 0.707111 0.000000 0.707103
vn -0.000000 -0.804192 0.594370
vn 0.594375 -0.804188 0.000000
vn 0.776400 -0.630240 0.000006
vn 0.573928 0.584142 0.573921
vn 0.548986 -0.630252 0.548997
vn -0.594375 -0.804188 0.000000
vn -0.548984 -0.630252 -0.548998
vn -0.420284 -0.804192 -0.420282
vn -0.000000 -0.804192 0.594370
vn -0.548989 -0.630262 0.548982
vn -0.420283 -0.804194 0.420279
vn 0.548986 -0.630252 0.548997
vn 0.420285 -0.804191 0.420282
vn -0.000004 -0.804192 -0.594370
vn 0.420283 -0.804194 -0.420279
vn 0.000005 -0.630251 -0.776391
vn -0.776400 -0.630240 -0.000006
vn -0.000007 -0.630251 0.776392
vn -0.573930 0.584140 -0.573920
vn -0.090884 0.995861 -0.000000
vn -0.064272 0.995861 -0.064264
vn 0.000005 -0.630251 -0.776391
vn 0.573930 0.584128 -0.573933
vn 0.548989 -0.630262 -0.548981
vn -0.548984 -0.630252 -0.548998
vn -0.000004 0.584129 -0.811661
vn -0.548989 -0.630262 0.548982
vn -0.811668 0.584119 0.000006
vn -0.776400 -0.630240 -0.000006
vn 0.000004 0.584129 0.811661
vn -0.000007 -0.630251 0.776392
vn 0.811668 0.584119 -0.000006
vn 0.776400 -0.630240 0.000006
vn -0.573930 0.584140 -0.573920
vn -0.548984 -0.630252 -0.548998
vn -0.000007 -0.630251 0.776392
vn -0.573924 0.584131 0.573935
vn -0.548989 -0.630262 0.548982
vn 0.064261 0.995862 0.064263
vn 0.090882 0.995862 -0.000000
vn 0.000004 0.584129 0.811661
vn -0.064270 0.995861 0.064264
vn -0.573924 0.584131 0.573935
vn 0.573928 0.584142 0.573921
vn -0.000004 0.584129 -0.811661
vn 0.064271 0.995861 -0.064263
vn 0.573930 0.584128 -0.573933
vn -0.000001 0.995862 -0.090883
vn -0.811668 0.584119 0.000006
vn -0.000005 0.995862 0.090882
vn 0.811668 0.584119 -0.000006
vn -0.000005 0.630255 0.776389
vn 0.000005 0.630254 -0.776389
vn 0.776389 0.630254 0.000004
vn -0.776389 0.630254 -0.000004
vn -0.000002 0.535660 0.844434
vn -0.965007 0.262224 -0.000006
vn 0.965007 0.262224 0.000005
vn 0.000002 0.535660 -0.844434
vn 0.000004 -0.630250 -0.776392
vn 0.548998 -0.630247 -0.548990
vn 0.776393 -0.630250 0.000005
vn -0.000004 -0.630250 0.776392
vn -0.776393 -0.630250 -0.000005
vn 0.000004 -0.630250 -0.776392
vn -0.776393 -0.630250 -0.000005
vn -0.000004 -0.630250 0.776392
vn 0.776393 -0.630250 0.000005
vn -0.673026 0.306706 0.673029
vn 0.000001 0.306705 0.951805
vn -0.000001 0.306705 -0.951805
vn -0.673026 0.306706 0.673029
vn 0.553756 0.621857 0.553758
vn 0.553760 0.621855 -0.553756
vn -0.783129 0.621860 -0.000000
vn 0.783129 0.621859 0.000003
vn -0.553756 0.621857 -0.553759
vn -0.594375 -0.804188 0.000000
vn 0.594375 -0.804188 0.000000
vn -0.420284 -0.804192 -0.420282
vn 0.420285 -0.804191 0.420282
vn 0.811668 0.584119 -0.000006
vn -0.573930 0.584140 -0.573920
vn -0.573924 0.584131 0.573935
vn 0.000004 0.584129 0.811661
f 1/1/1 2/2/2 3/3/3
f 4/4/4 5/5/5 2/2/2
f 6/6/6 7/7/7 8/8/8
f 9/9/9 10/10/10 7/7/7
f 11/11/11 12/12/12 13/13/13
f 14/14/14 15/15/15 12/12/12
f 4/4/4 16/16/16 17/17/17
f 18/18/18 19/19/19 20/20/20
f 21/21/21 22/22/22 19/19/19
f 22/22/22 23/23/23 19/19/19
f 24/24/24 25/25/25 26/26/26
f 11/11/11 27/27/27 14/14/14
f 21/21/21 28/28/28 29/29/29
f 1/1/1 30/30/30 4/4/4
f 6/6/6 31/31/31 9/9/9
f 14/14/14 32/32/32 33/33/33
f 9/9/9 34/34/34 35/35/35
f 18/18/18 36/36/36 21/21/21
f 37/37/37 38/38/38 39/39/39
f 40/40/40 41/41/41 42/42/42
f 43/43/43 44/44/44 45/45/45
f 26/26/26 46/46/46 47/47/47
f 42/42/42 48/48/48 24/24/24
f 49/49/49 50/50/50 40/40/40
f 45/45/45 51/51/51 49/49/49
f 47/47/47 52/52/52 43/43/43
f 53/53/53 54/54/54 55/55/55
f 56/56/56 57/57/57 58/58/58
f 59/59/59 60/60/60 61/61/61
f 62/62/62 63/63/63 64/64/64
f 65/65/65 38/38/38 66/66/66
f 67/67/67 55/55/55 56/56/56
f 68/68/68 69/69/69 59/59/59
f 70/70/70 71/71/71 62/62/62
f 69/69/69 72/72/72 73/73/73
f 74/74/74 75/75/75 71/71/71
f 38/38/38 76/76/76 39/39/39
f 55/55/55 77/77/77 57/57/57
f 69/69/69 78/78/78 60/60/60
f 71/71/71 79/79/79 63/63/63
f 38/38/38 80/80/80 81/81/81
f 23/23/23 82/82/82 83/83/83
f 2/2/2 84/84/84 3/3/3
f 7/7/7 85/85/85 8/8/8
f 15/15/15 86/86/86 12/12/12
f 10/10/10 87/87/87 7/7/7
f 19/19/19 83/83/83 20/20/20
f 5/5/5 88/88/88 2/2/2
f 12/12/12 89/89/89 13/13/13
f 90/90/90 91/91/91 92/92/92
f 86/86/86 93/93/93 89/89/89
f 87/87/87 94/94/94 85/85/85
f 88/88/88 95/95/95 84/84/84
f 96/96/96 97/97/97 23/23/23
f 98/98/98 99/99/99 86/86/86
f 100/100/100 101/101/101 87/87/87
f 102/102/102 103/103/103 88/88/88
f 104/104/104 105/105/105 106/106/106
f 107/107/107 108/108/108 109/109/109
f 110/110/110 111/111/111 112/112/112
f 113/113/113 114/114/114 115/115/115
f 116/116/116 117/117/117 118/118/118
f 106/106/106 119/119/119 120/120/120
f 121/121/121 122/122/122 104/104/104
f 115/115/115 123/123/123 124/124/124
f 118/118/118 125/125/125 126/126/126
f 127/127/127 128/128/128 129/129/129
f 130/130/130 131/131/131 132/132/132
f 122/122/122 133/133/133 105/105/105
f 111/111/111 134/134/134 135/135/135
f 136/136/136 137/137/137 114/114/114
f 117/117/117 138/138/138 139/139/139
f 140/140/140 141/141/141 142/142/142
f 143/143/143 144/144/144 145/145/145
f 146/146/146 147/147/147 148/148/148
f 149/149/149 150/150/150 143/143/143
f 151/151/151 152/152/152 153/153/153
f 154/154/154 155/155/155 156/156/156
f 145/145/145 157/157/157 158/158/158
f 159/159/159 148/148/148 160/160/160
f 156/156/156 161/161/161 151/151/151
f 162/162/162 163/163/163 164/164/164
f 165/165/165 166/166/166 167/167/167
f 155/155/155 168/168/168 161/161/161
f 169/169/169 170/170/170 163/163/163
f 150/150/150 171/171/171 144/144/144
f 172/172/172 173/173/173 150/150/150
f 161/161/161 174/174/174 152/152/152
f 175/175/175 176/176/176 155/155/155
f 144/144/144 177/177/177 157/157/157
f 178/178/178 179/179/179 180/180/180
f 181/181/181 182/182/182 183/183/183
f 184/184/184 185/185/185 186/186/186
f 165/165/165 187/187/187 188/188/188
f 189/189/189 166/166/166 190/190/190
f 183/183/183 191/191/191 189/189/189
f 181/181/181 185/185/185 192/192/192
f 188/188/188 193/193/193 184/184/184
f 194/194/194 195/195/195 196/196/196
f 197/197/197 198/198/198 199/199/199
f 200/200/200 201/201/201 197/197/197
f 202/202/202 203/203/203 204/204/204
f 180/180/180 205/205/205 206/206/206
f 199/199/199 207/207/207 208/208/208
f 204/204/204 209/209/209 210/210/210
f 211/211/211 212/212/212 213/213/213
f 214/214/214 215/215/215 195/195/195
f 216/216/216 217/217/217 218/218/218
f 219/219/219 215/215/215 214/214/214
f 220/220/220 221/221/221 222/222/222
f 194/194/194 223/223/223 220/220/220
f 218/218/218 195/195/195 224/224/224
f 219/219/219 225/225/225 216/216/216
f 222/222/222 215/215/215 226/226/226
f 1/1/1 4/4/4 2/2/2
f 4/4/4 17/17/17 5/5/5
f 6/6/6 9/9/9 7/7/7
f 9/9/9 35/35/35 10/10/10
f 11/11/11 14/14/14 12/12/12
f 14/14/14 33/33/33 15/15/15
f 4/4/4 30/30/30 16/16/16
f 18/18/18 21/21/21 19/19/19
f 21/21/21 29/29/29 22/22/22
f 22/22/22 96/96/96 23/23/23
f 24/24/24 48/48/48 25/25/25
f 11/11/11 227/227/227 27/27/27
f 21/21/21 36/36/36 28/28/28
f 1/1/1 228/228/228 30/30/30
f 6/6/6 229/229/229 31/31/31
f 14/14/14 27/27/27 32/32/32
f 9/9/9 31/31/31 34/34/34
f 18/18/18 230/230/230 36/36/36
f 37/37/37 66/66/66 38/38/38
f 40/40/40 50/50/50 41/41/41
f 43/43/43 52/52/52 44/44/44
f 26/26/26 25/25/25 46/46/46
f 42/42/42 41/41/41 48/48/48
f 49/49/49 51/51/51 50/50/50
f 45/45/45 44/44/44 51/51/51
f 47/47/47 46/46/46 52/52/52
f 53/53/53 231/231/231 54/54/54
f 56/56/56 55/55/55 57/57/57
f 59/59/59 69/69/69 60/60/60
f 62/62/62 71/71/71 63/63/63
f 65/65/65 232/232/232 38/38/38
f 67/67/67 53/53/53 55/55/55
f 68/68/68 233/233/233 69/69/69
f 70/70/70 74/74/74 71/71/71
f 69/69/69 233/233/233 72/72/72
f 74/74/74 234/234/234 75/75/75
f 38/38/38 81/81/81 76/76/76
f 55/55/55 54/54/54 77/77/77
f 69/69/69 73/73/73 78/78/78
f 71/71/71 75/75/75 79/79/79
f 38/38/38 232/232/232 80/80/80
f 23/23/23 97/97/97 82/82/82
f 2/2/2 88/88/88 84/84/84
f 7/7/7 87/87/87 85/85/85
f 15/15/15 98/98/98 86/86/86
f 10/10/10 100/100/100 87/87/87
f 19/19/19 23/23/23 83/83/83
f 5/5/5 102/102/102 88/88/88
f 12/12/12 86/86/86 89/89/89
f 92/92/92 235/235/235 236/236/236
f 236/236/236 237/237/237 90/90/90
f 90/90/90 238/238/238 91/91/91
f 91/91/91 239/239/239 92/92/92
f 92/92/92 236/236/236 90/90/90
f 86/86/86 99/99/99 93/93/93
f 87/87/87 101/101/101 94/94/94
f 88/88/88 103/103/103 95/95/95
f 96/96/96 240/240/240 97/97/97
f 98/98/98 241/241/241 99/99/99
f 100/100/100 242/242/242 101/101/101
f 102/102/102 243/243/243 103/103/103
f 104/104/104 122/122/122 105/105/105
f 107/107/107 244/244/244 108/108/108
f 110/110/110 245/245/245 111/111/111
f 113/113/113 136/136/136 114/114/114
f 116/116/116 246/246/246 117/117/117
f 106/106/106 105/105/105 119/119/119
f 121/121/121 247/247/247 122/122/122
f 115/115/115 114/114/114 123/123/123
f 118/118/118 117/117/117 125/125/125
f 127/127/127 248/248/248 128/128/128
f 130/130/130 249/249/249 131/131/131
f 122/122/122 250/250/250 133/133/133
f 111/111/111 245/245/245 134/134/134
f 136/136/136 251/251/251 137/137/137
f 117/117/117 246/246/246 138/138/138
f 140/140/140 252/252/252 141/141/141
f 143/143/143 150/150/150 144/144/144
f 146/146/146 253/253/253 147/147/147
f 149/149/149 172/172/172 150/150/150
f 151/151/151 161/161/161 152/152/152
f 154/154/154 175/175/175 155/155/155
f 145/145/145 144/144/144 157/157/157
f 159/159/159 146/146/146 148/148/148
f 156/156/156 155/155/155 161/161/161
f 162/162/162 169/169/169 163/163/163
f 165/165/165 190/190/190 166/166/166
f 155/155/155 176/176/176 168/168/168
f 169/169/169 254/254/254 170/170/170
f 150/150/150 173/173/173 171/171/171
f 172/172/172 255/255/255 173/173/173
f 161/161/161 168/168/168 174/174/174
f 175/175/175 256/256/256 176/176/176
f 144/144/144 171/171/171 177/177/177
f 178/178/178 257/257/257 179/179/179
f 181/181/181 192/192/192 182/182/182
f 184/184/184 193/193/193 185/185/185
f 165/165/165 167/167/167 187/187/187
f 189/189/189 191/191/191 166/166/166
f 183/183/183 182/182/182 191/191/191
f 181/181/181 186/186/186 185/185/185
f 188/188/188 187/187/187 193/193/193
f 194/194/194 224/224/224 195/195/195
f 197/197/197 201/201/201 198/198/198
f 200/200/200 258/258/258 201/201/201
f 202/202/202 259/259/259 203/203/203
f 180/180/180 179/179/179 205/205/205
f 199/199/199 198/198/198 207/207/207
f 204/204/204 203/203/203 209/209/209
f 211/211/211 260/260/260 212/212/212
f 215/215/215 221/221/221 195/195/195
f 221/221/221 223/223/223 195/195/195
f 223/223/223 196/196/196 195/195/195
f 195/195/195 217/217/217 225/225/225
f 225/225/225 214/214/214 195/195/195
f 216/216/216 225/225/225 217/217/217
f 219/219/219 226/226/226 215/215/215
f 220/220/220 223/223/223 221/221/221
f 194/194/194 196/196/196 223/223/223
f 218/218/218 217/217/217 195/195/195
f 219/219/219 214/214/214 225/225/225
f 222/222/222 221/221/221 215/215/215
