# Cube -- imported by tools/import_asset_pack.py from Battery.fbx
o __pending__
v -0.010953 0.057208 0.011386
v 0.000000 0.057208 0.013919
v -0.009469 0.057208 0.009842
v -0.015490 0.057208 -0.000000
v -0.009469 0.057208 -0.009842
v -0.010953 0.057208 -0.011386
v 0.015490 0.057208 -0.000000
v 0.009469 0.057208 -0.009842
v 0.013391 0.057208 -0.000000
v 0.010953 0.057208 0.011386
v 0.000000 0.057208 0.016102
v -0.013391 0.057208 -0.000000
v 0.000000 0.057208 -0.013919
v 0.000000 0.057208 -0.016102
v 0.010953 0.057208 -0.011386
v 0.009469 0.057208 -0.009842
v 0.013391 0.054524 -0.000000
v 0.013391 0.057208 -0.000000
v 0.011564 0.055807 0.012020
v 0.000000 0.057208 0.016102
v 0.000000 0.055807 0.016999
v -0.016353 0.055807 -0.000000
v -0.010953 0.057208 -0.011386
v -0.011564 0.055807 -0.012020
v -0.011564 0.055807 -0.012020
v 0.000000 -0.037846 -0.016999
v -0.011564 -0.037846 -0.012020
v 0.000000 0.057208 -0.016102
v 0.000000 0.055807 -0.016999
v 0.011564 -0.037846 -0.012020
v 0.000000 -0.039295 -0.015642
v 0.000000 -0.037846 -0.016999
v -0.011564 -0.037846 -0.012020
v -0.016353 -0.037846 0.000000
v -0.016353 -0.037846 0.000000
v -0.010640 -0.039295 -0.011061
v -0.015048 -0.039295 0.000000
v -0.010640 -0.039295 0.011061
v 0.015048 -0.039295 0.000000
v -0.011564 0.055807 0.012020
v -0.011564 -0.037846 0.012020
v 0.009469 0.057208 0.009842
v 0.016353 -0.037846 0.000000
v 0.010640 -0.039295 0.011061
v 0.000000 0.055807 0.016999
v 0.000000 -0.037846 0.016999
v 0.011564 0.055807 -0.012020
v 0.000000 0.057208 -0.016102
v 0.010953 0.057208 -0.011386
v -0.011564 -0.037846 -0.012020
v 0.000000 -0.037846 0.016999
v 0.011564 -0.037846 0.012020
v 0.016353 0.055807 -0.000000
v 0.010953 0.057208 0.011386
v 0.011564 0.055807 0.012020
v -0.010640 -0.039295 0.011061
v 0.011564 -0.037846 0.012020
v 0.016353 -0.037846 0.000000
v -0.010953 0.057208 0.011386
v -0.015490 0.057208 -0.000000
v 0.010640 -0.039295 -0.011061
v 0.011564 -0.037846 -0.012020
v 0.015490 0.057208 -0.000000
v 0.011564 -0.037846 0.012020
v 0.000000 -0.039295 0.015642
v 0.000000 0.055807 -0.016999
v 0.000000 -0.037846 -0.016999
v 0.000000 0.057208 0.016102
v -0.011564 -0.037846 0.012020
v 0.000000 -0.037846 0.016999
v 0.013391 0.054524 -0.000000
v 0.004463 0.057213 -0.004639
v 0.006311 0.057213 -0.000000
v 0.009469 0.057208 0.009842
v 0.000000 0.054524 0.013919
v 0.000000 0.057208 0.013919
v -0.009469 0.057208 0.009842
v -0.013391 0.054524 -0.000000
v -0.013391 0.057208 -0.000000
v -0.009469 0.057208 -0.009842
v 0.000000 0.054524 -0.013919
v 0.000000 0.057208 -0.013919
v 0.000000 0.057208 -0.013919
v 0.009469 0.054524 -0.009842
v 0.009469 0.054524 0.009842
v 0.009469 0.057208 0.009842
v 0.000000 0.057208 0.013919
v -0.009469 0.054524 0.009842
v -0.009469 0.054524 -0.009842
v -0.009469 0.057208 -0.009842
v -0.004463 0.057213 0.004639
v 0.000000 0.060447 0.005898
v -0.004171 0.060447 0.004171
v 0.009469 0.054524 0.009842
v 0.000000 0.057213 0.006560
v 0.000000 0.054524 0.013919
v -0.013391 0.054524 -0.000000
v -0.004463 0.057213 0.004639
v -0.006311 0.057213 -0.000000
v -0.009469 0.054524 -0.009842
v 0.000000 0.057213 -0.006560
v 0.000000 0.054524 -0.013919
v 0.009469 0.054524 -0.009842
v 0.004463 0.057213 0.004639
v -0.009469 0.054524 0.009842
v -0.004463 0.057213 -0.004639
v 0.000000 0.060447 -0.005898
v 0.003011 0.060705 -0.003011
v 0.004171 0.060447 -0.004171
v -0.006311 0.057213 -0.000000
v -0.004171 0.060447 -0.004171
v -0.004463 0.057213 -0.004639
v 0.006311 0.057213 -0.000000
v 0.004171 0.060447 -0.004171
v 0.005898 0.060447 -0.000000
v 0.004463 0.057213 0.004639
v 0.000000 0.057213 0.006560
v -0.005898 0.060447 -0.000000
v 0.000000 0.060447 -0.005898
v 0.000000 0.057213 -0.006560
v 0.004463 0.057213 -0.004639
v 0.004171 0.060447 0.004171
v -0.003011 0.060705 -0.003011
v -0.003011 0.060705 0.003011
v 0.004171 0.060447 0.004171
v 0.004258 0.060705 -0.000000
v 0.003011 0.060705 0.003011
v 0.000000 0.060447 0.005898
v -0.004171 0.060447 0.004171
v -0.005898 0.060447 -0.000000
v -0.004171 0.060447 -0.004171
v 0.005898 0.060447 -0.000000
v 0.000000 0.060705 0.004258
v -0.004258 0.060705 -0.000000
v 0.000000 0.060705 -0.004258
v 0.010953 0.057208 0.011386
v -0.010953 0.057208 -0.011386
v 0.010640 -0.039295 -0.011061
v -0.015048 -0.039295 0.000000
v 0.015048 -0.039295 0.000000
v 0.009469 0.054524 0.009842
v -0.009469 0.054524 -0.009842
v 0.000000 0.054524 -0.013919
v 0.000000 0.054524 0.013919
vt 0.818639 0.728077
vt 0.907719 0.714441
vt 0.825115 0.712179
vt 0.751070 0.656757
vt 0.766705 0.565599
vt 0.751070 0.558512
vt 0.981764 0.564829
vt 0.907719 0.509407
vt 0.966129 0.571059
vt 0.981764 0.663074
vt 0.914196 0.730693
vt 0.766705 0.650526
vt 0.825115 0.507145
vt 0.818639 0.490892
vt 0.914196 0.493509
vt 0.751070 0.203618
vt 0.772270 0.118690
vt 0.751070 0.118690
vt 0.527707 0.982409
vt 0.625782 0.994619
vt 0.628626 0.982409
vt 0.180488 0.970925
vt 0.249247 0.994619
vt 0.255782 0.983100
vt 0.639388 0.982409
vt 0.740308 0.243206
vt 0.639388 0.243206
vt 0.737463 0.994619
vt 0.740308 0.982409
vt 0.751070 0.812843
vt 0.826430 0.751560
vt 0.822404 0.741456
vt 0.255782 0.243400
vt 0.180488 0.231226
vt 0.994619 0.819512
vt 0.919259 0.754102
vt 0.984898 0.823386
vt 0.984898 0.918826
vt 0.760791 0.912689
vt 0.076768 0.970925
vt 0.076768 0.231226
vt 0.966129 0.655987
vt 0.751070 0.916562
vt 0.826430 0.981972
vt 0.005381 0.983100
vt 0.005381 0.243400
vt 0.337931 0.970925
vt 0.273225 0.994619
vt 0.340845 0.983087
vt 0.923285 0.744218
vt 0.628626 0.243206
vt 0.527707 0.243206
vt 0.441651 0.970925
vt 0.510410 0.994619
vt 0.516945 0.983100
vt 0.081174 0.221443
vt 0.516945 0.243400
vt 0.441651 0.231226
vt 0.079682 0.983087
vt 0.177927 0.983087
vt 0.342337 0.221443
vt 0.337931 0.231226
vt 0.439090 0.983087
vt 0.822404 0.991856
vt 0.919259 0.984514
vt 0.266544 0.983100
vt 0.266544 0.243400
vt 0.012062 0.994619
vt 0.994619 0.923231
vt 0.923285 0.994619
vt 0.950494 0.336748
vt 0.870247 0.328699
vt 0.897776 0.357755
vt 0.703181 0.232444
vt 0.724366 0.149809
vt 0.703181 0.149809
vt 0.793001 0.203618
vt 0.814200 0.118690
vt 0.793001 0.118690
vt 0.834931 0.262072
vt 0.856117 0.179437
vt 0.834931 0.179437
vt 0.761038 0.262072
vt 0.772270 0.203618
vt 0.782238 0.057037
vt 0.761038 0.057037
vt 0.802969 0.262072
vt 0.814200 0.203618
vt 0.824169 0.057038
vt 0.802969 0.057038
vt 0.589399 0.197366
vt 0.527707 0.184201
vt 0.575950 0.232444
vt 0.950494 0.421676
vt 0.870247 0.425331
vt 0.892084 0.480130
vt 0.751070 0.416216
vt 0.831316 0.424265
vt 0.803787 0.395208
vt 0.751070 0.331288
vt 0.831316 0.327632
vt 0.809480 0.272834
vt 0.892084 0.275096
vt 0.897776 0.397782
vt 0.809480 0.477868
vt 0.803787 0.355182
vt 0.170092 0.094212
vt 0.147198 0.152954
vt 0.170092 0.162438
vt 0.629422 0.196826
vt 0.692418 0.184201
vt 0.658104 0.168907
vt 0.590703 0.103351
vt 0.644175 0.067733
vt 0.575950 0.067733
vt 0.562021 0.131269
vt 0.561480 0.170212
vt 0.644175 0.232444
vt 0.692418 0.115975
vt 0.658645 0.129965
vt 0.630726 0.102811
vt 0.527707 0.115975
vt 0.112366 0.068864
vt 0.028276 0.103695
vt 0.053624 0.210680
vt 0.112366 0.187786
vt 0.063107 0.187786
vt 0.005381 0.162438
vt 0.005381 0.094212
vt 0.053624 0.045969
vt 0.121850 0.045969
vt 0.121850 0.210680
vt 0.028276 0.152954
vt 0.063107 0.068864
vt 0.147198 0.103695
vt 0.530189 0.994619
vt 0.641871 0.994619
vt 0.760791 0.817249
vt 0.176614 0.221443
vt 0.437777 0.221443
vt 0.724366 0.232444
vt 0.856117 0.262072
vt 0.782238 0.262072
vt 0.824169 0.262072
vn -0.407424 0.824710 0.392249
vn -0.000005 0.807831 -0.589414
vn 0.426038 0.804145 -0.414539
vn -0.566971 0.823738 -0.000000
vn 0.426045 0.804146 0.414531
vn -0.407424 0.824709 -0.392250
vn 0.566971 0.823738 -0.000000
vn -0.426038 0.804145 0.414539
vn -0.599119 0.800660 0.000005
vn 0.407424 0.824710 0.392249
vn 0.000000 0.825741 0.564049
vn 0.599119 0.800660 -0.000005
vn 0.000005 0.807831 0.589414
vn -0.000000 0.825741 -0.564050
vn 0.407424 0.824709 -0.392250
vn -0.426038 0.804145 0.414539
vn -0.675059 0.737763 -0.000008
vn -0.599119 0.800660 0.000005
vn 0.690969 0.260319 0.674385
vn 0.000000 0.825741 0.564049
vn -0.000000 0.263551 0.964646
vn -0.966389 0.257084 -0.000000
vn -0.407424 0.824709 -0.392250
vn -0.690969 0.260319 -0.674385
vn -0.690969 0.260319 -0.674385
vn -0.000000 -0.339209 -0.940711
vn -0.673896 -0.336136 -0.657934
vn -0.000000 0.825741 -0.564050
vn 0.000000 0.263550 -0.964646
vn 0.673896 -0.336136 -0.657934
vn 0.000000 -0.878969 -0.476878
vn -0.000000 -0.339209 -0.940711
vn -0.673896 -0.336136 -0.657934
vn -0.942927 -0.333001 0.000000
vn -0.942927 -0.333001 0.000000
vn -0.345938 -0.877636 -0.331785
vn -0.481634 -0.876372 0.000000
vn -0.345941 -0.877634 0.331788
vn 0.481634 -0.876372 0.000000
vn -0.690969 0.260320 0.674385
vn -0.673896 -0.336135 0.657934
vn -0.426045 0.804145 -0.414532
vn 0.942926 -0.333001 0.000000
vn 0.345938 -0.877636 0.331786
vn -0.000000 0.263551 0.964646
vn 0.000000 -0.339209 0.940711
vn 0.690969 0.260319 -0.674385
vn -0.000000 0.825741 -0.564050
vn 0.407424 0.824709 -0.392250
vn -0.673896 -0.336136 -0.657934
vn 0.000000 -0.339209 0.940711
vn 0.673896 -0.336135 0.657934
vn 0.966389 0.257084 -0.000000
vn 0.407424 0.824710 0.392249
vn 0.690969 0.260319 0.674385
vn -0.345941 -0.877634 0.331788
vn 0.673896 -0.336135 0.657934
vn 0.942926 -0.333001 0.000000
vn -0.407424 0.824710 0.392249
vn -0.566971 0.823738 -0.000000
vn 0.345941 -0.877634 -0.331788
vn 0.673896 -0.336136 -0.657934
vn 0.566971 0.823738 -0.000000
vn 0.673896 -0.336135 0.657934
vn 0.000000 -0.878969 0.476879
vn 0.000000 0.263550 -0.964646
vn -0.000000 -0.339209 -0.940711
vn 0.000000 0.825741 0.564049
vn -0.673896 -0.336135 0.657934
vn 0.000000 -0.339209 0.940711
vn -0.675059 0.737763 -0.000008
vn 0.505822 0.704880 -0.497281
vn 0.725267 0.688468 -0.000000
vn -0.426045 0.804145 -0.414532
vn 0.000009 0.728934 -0.684584
vn -0.000005 0.807831 -0.589414
vn 0.426038 0.804145 -0.414539
vn 0.675059 0.737763 0.000007
vn 0.599119 0.800660 -0.000005
vn 0.426045 0.804146 0.414531
vn -0.000009 0.728934 0.684584
vn 0.000005 0.807831 0.589414
vn 0.000005 0.807831 0.589414
vn -0.488319 0.733389 0.472955
vn -0.488308 0.733388 -0.472967
vn -0.426045 0.804145 -0.414532
vn -0.000005 0.807831 -0.589414
vn 0.488319 0.733388 -0.472955
vn 0.488308 0.733388 0.472966
vn 0.426045 0.804146 0.414531
vn -0.505822 0.704880 0.497281
vn 0.000000 0.656490 0.754335
vn -0.548266 0.643360 0.534315
vn -0.488308 0.733388 -0.472967
vn 0.000000 0.720763 0.693181
vn 0.000009 0.728934 -0.684584
vn 0.675059 0.737763 0.000007
vn -0.505822 0.704880 0.497281
vn -0.725267 0.688468 -0.000000
vn 0.488308 0.733388 0.472966
vn -0.000000 0.720763 -0.693182
vn -0.000009 0.728934 0.684584
vn -0.488319 0.733389 0.472955
vn 0.505822 0.704880 0.497281
vn 0.488319 0.733388 -0.472955
vn -0.505822 0.704880 -0.497281
vn 0.000001 0.656484 -0.754340
vn 0.068967 0.995232 -0.068965
vn 0.548266 0.643360 -0.534315
vn -0.725267 0.688468 -0.000000
vn -0.548265 0.643360 -0.534316
vn -0.505822 0.704880 -0.497281
vn 0.725267 0.688468 -0.000000
vn 0.548266 0.643360 -0.534315
vn 0.776275 0.630395 -0.000000
vn 0.505822 0.704880 0.497281
vn 0.000000 0.720763 0.693181
vn -0.776269 0.630402 -0.000001
vn 0.000001 0.656484 -0.754340
vn -0.000000 0.720763 -0.693182
vn 0.505822 0.704880 -0.497281
vn 0.548266 0.643360 0.534315
vn -0.068965 0.995232 -0.068966
vn -0.068967 0.995232 0.068964
vn 0.548266 0.643360 0.534315
vn 0.097530 0.995233 -0.000000
vn 0.068967 0.995232 0.068963
vn 0.000000 0.656490 0.754335
vn -0.548266 0.643360 0.534315
vn -0.776269 0.630402 -0.000001
vn -0.548265 0.643360 -0.534316
vn 0.776275 0.630395 -0.000000
vn -0.000000 0.995233 0.097530
vn -0.097530 0.995233 -0.000001
vn 0.000001 0.995232 -0.097531
vn 0.407424 0.824710 0.392249
vn -0.407424 0.824709 -0.392250
vn 0.345941 -0.877634 -0.331788
vn -0.481634 -0.876372 0.000000
vn 0.481634 -0.876372 0.000000
vn -0.488308 0.733388 -0.472967
vn 0.488308 0.733388 0.472966
vn -0.000009 0.728934 0.684584
vn 0.000009 0.728934 -0.684584
f 1/1/1 2/2/2 3/3/3
f 4/4/4 5/5/5 6/6/6
f 7/7/7 8/8/8 9/9/9
f 10/10/10 2/2/2 11/11/11
f 4/4/4 3/3/3 12/12/12
f 6/6/6 13/13/13 14/14/14
f 15/15/15 13/13/13 8/8/8
f 16/16/16 17/17/17 18/18/18
f 19/19/19 20/20/20 21/21/21
f 22/22/22 23/23/23 24/24/24
f 25/25/25 26/26/26 27/27/27
f 25/25/25 28/28/28 29/29/29
f 30/30/30 31/31/31 32/32/32
f 22/22/22 33/33/33 34/34/34
f 35/35/35 36/36/36 37/37/37
f 38/38/38 37/37/37 39/39/39
f 40/40/40 34/34/34 41/41/41
f 7/7/7 42/42/42 10/10/10
f 43/43/43 44/44/44 39/39/39
f 45/45/45 41/41/41 46/46/46
f 47/47/47 48/48/48 49/49/49
f 50/50/50 31/31/31 36/36/36
f 19/19/19 51/51/51 52/52/52
f 53/53/53 54/54/54 55/55/55
f 34/34/34 56/56/56 41/41/41
f 53/53/53 57/57/57 58/58/58
f 22/22/22 59/59/59 60/60/60
f 58/58/58 61/61/61 62/62/62
f 47/47/47 58/58/58 62/62/62
f 53/53/53 49/49/49 63/63/63
f 64/64/64 65/65/65 44/44/44
f 66/66/66 62/62/62 67/67/67
f 40/40/40 68/68/68 59/59/59
f 69/69/69 65/65/65 70/70/70
f 71/71/71 72/72/72 73/73/73
f 74/74/74 75/75/75 76/76/76
f 77/77/77 78/78/78 79/79/79
f 80/80/80 81/81/81 82/82/82
f 83/83/83 84/84/84 16/16/16
f 18/18/18 85/85/85 86/86/86
f 87/87/87 88/88/88 77/77/77
f 79/79/79 89/89/89 90/90/90
f 91/91/91 92/92/92 93/93/93
f 94/94/94 95/95/95 96/96/96
f 97/97/97 98/98/98 99/99/99
f 100/100/100 101/101/101 102/102/102
f 103/103/103 101/101/101 72/72/72
f 71/71/71 104/104/104 94/94/94
f 105/105/105 95/95/95 98/98/98
f 97/97/97 106/106/106 100/100/100
f 107/107/107 108/108/108 109/109/109
f 110/110/110 111/111/111 112/112/112
f 113/113/113 114/114/114 115/115/115
f 116/116/116 92/92/92 117/117/117
f 110/110/110 93/93/93 118/118/118
f 112/112/112 119/119/119 120/120/120
f 121/121/121 119/119/119 114/114/114
f 113/113/113 122/122/122 116/116/116
f 108/108/108 123/123/123 124/124/124
f 125/125/125 126/126/126 127/127/127
f 128/128/128 124/124/124 129/129/129
f 130/130/130 123/123/123 131/131/131
f 109/109/109 126/126/126 132/132/132
f 128/128/128 127/127/127 133/133/133
f 129/129/129 134/134/134 130/130/130
f 131/131/131 135/135/135 107/107/107
f 1/1/1 11/11/11 2/2/2
f 4/4/4 12/12/12 5/5/5
f 7/7/7 15/15/15 8/8/8
f 10/10/10 42/42/42 2/2/2
f 4/4/4 1/1/1 3/3/3
f 6/6/6 5/5/5 13/13/13
f 15/15/15 14/14/14 13/13/13
f 16/16/16 84/84/84 17/17/17
f 19/19/19 136/136/136 20/20/20
f 22/22/22 60/60/60 23/23/23
f 25/25/25 29/29/29 26/26/26
f 25/25/25 137/137/137 28/28/28
f 30/30/30 138/138/138 31/31/31
f 22/22/22 24/24/24 33/33/33
f 35/35/35 50/50/50 36/36/36
f 37/37/37 36/36/36 138/138/138
f 36/36/36 31/31/31 138/138/138
f 138/138/138 39/39/39 37/37/37
f 39/39/39 44/44/44 38/38/38
f 44/44/44 65/65/65 38/38/38
f 40/40/40 22/22/22 34/34/34
f 7/7/7 9/9/9 42/42/42
f 43/43/43 64/64/64 44/44/44
f 45/45/45 40/40/40 41/41/41
f 47/47/47 66/66/66 48/48/48
f 50/50/50 32/32/32 31/31/31
f 19/19/19 21/21/21 51/51/51
f 53/53/53 63/63/63 54/54/54
f 34/34/34 139/139/139 56/56/56
f 53/53/53 55/55/55 57/57/57
f 22/22/22 40/40/40 59/59/59
f 58/58/58 140/140/140 61/61/61
f 47/47/47 53/53/53 58/58/58
f 53/53/53 47/47/47 49/49/49
f 64/64/64 70/70/70 65/65/65
f 66/66/66 47/47/47 62/62/62
f 40/40/40 45/45/45 68/68/68
f 69/69/69 38/38/38 65/65/65
f 71/71/71 103/103/103 72/72/72
f 74/74/74 141/141/141 75/75/75
f 77/77/77 88/88/88 78/78/78
f 80/80/80 142/142/142 81/81/81
f 83/83/83 143/143/143 84/84/84
f 18/18/18 17/17/17 85/85/85
f 87/87/87 144/144/144 88/88/88
f 79/79/79 78/78/78 89/89/89
f 91/91/91 117/117/117 92/92/92
f 94/94/94 104/104/104 95/95/95
f 97/97/97 105/105/105 98/98/98
f 100/100/100 106/106/106 101/101/101
f 103/103/103 102/102/102 101/101/101
f 71/71/71 73/73/73 104/104/104
f 105/105/105 96/96/96 95/95/95
f 97/97/97 99/99/99 106/106/106
f 107/107/107 135/135/135 108/108/108
f 110/110/110 118/118/118 111/111/111
f 113/113/113 121/121/121 114/114/114
f 116/116/116 122/122/122 92/92/92
f 110/110/110 91/91/91 93/93/93
f 112/112/112 111/111/111 119/119/119
f 121/121/121 120/120/120 119/119/119
f 113/113/113 115/115/115 122/122/122
f 108/108/108 135/135/135 123/123/123
f 123/123/123 134/134/134 124/124/124
f 124/124/124 133/133/133 108/108/108
f 133/133/133 127/127/127 108/108/108
f 127/127/127 126/126/126 108/108/108
f 125/125/125 132/132/132 126/126/126
f 128/128/128 133/133/133 124/124/124
f 130/130/130 134/134/134 123/123/123
f 109/109/109 108/108/108 126/126/126
f 128/128/128 125/125/125 127/127/127
f 129/129/129 124/124/124 134/134/134
f 131/131/131 123/123/123 135/135/135
