# Cube -- imported by tools/import_asset_pack.py from Bottle4.fbx
o __pending__
v -0.027730 0.108783 -0.027334
v 0.000000 0.125889 -0.033809
v 0.000000 0.108783 -0.038820
v 0.029680 0.092228 0.030076
v 0.000000 0.108783 0.039611
v 0.000000 0.092228 0.042369
v 0.000000 0.092228 -0.041578
v 0.029680 -0.024673 -0.029284
v 0.000000 -0.024673 -0.041578
v -0.027730 0.108783 0.028125
v -0.034205 0.125889 0.000396
v -0.039216 0.108783 0.000396
v -0.041974 0.092228 0.000396
v -0.027730 0.108783 -0.027334
v -0.029680 0.092228 -0.029284
v 0.029680 0.092228 -0.029284
v 0.041974 -0.024673 0.000396
v 0.029680 -0.024673 -0.029284
v 0.027730 0.108783 0.028125
v 0.000000 0.125889 0.034600
v 0.000000 0.108783 0.039611
v 0.041974 0.092228 0.000396
v 0.027730 0.108783 0.028125
v 0.029680 0.092228 0.030076
v 0.041974 0.092228 0.000396
v 0.029680 -0.024673 0.030076
v 0.041974 -0.024673 0.000396
v 0.027730 0.108783 -0.027334
v 0.000000 0.125889 -0.033809
v 0.024186 0.125889 -0.023791
v 0.000000 0.092228 -0.041578
v 0.027730 0.108783 -0.027334
v 0.029680 0.092228 -0.029284
v 0.029680 0.092228 0.030076
v 0.000000 -0.024673 0.042369
v 0.029680 -0.024673 0.030076
v -0.027730 0.108783 0.028125
v 0.000000 0.125889 0.034600
v -0.024186 0.125889 0.024582
v -0.029680 0.092228 0.030076
v -0.039216 0.108783 0.000396
v -0.041974 0.092228 0.000396
v 0.000000 0.092228 0.042369
v -0.029680 -0.024673 0.030076
v 0.000000 -0.024673 0.042369
v 0.024186 0.125889 -0.023791
v 0.023675 0.147961 0.000396
v 0.034205 0.125889 0.000396
v 0.041974 0.092228 0.000396
v 0.027730 0.108783 -0.027334
v 0.039216 0.108783 0.000396
v -0.029680 0.092228 0.030076
v -0.041974 -0.024673 0.000396
v -0.029680 -0.024673 0.030076
v 0.000000 0.092228 0.042369
v -0.027730 0.108783 0.028125
v -0.029680 0.092228 0.030076
v -0.039216 0.108783 0.000396
v -0.024186 0.125889 -0.023791
v -0.027730 0.108783 -0.027334
v -0.041974 0.092228 0.000396
v -0.029680 -0.024673 -0.029284
v -0.041974 -0.024673 0.000396
v 0.039216 0.108783 0.000396
v 0.024186 0.125889 0.024582
v 0.027730 0.108783 0.028125
v -0.029680 0.092228 -0.029284
v 0.000000 0.108783 -0.038820
v 0.000000 0.092228 -0.041578
v -0.029680 0.092228 -0.029284
v 0.000000 -0.024673 -0.041578
v -0.029680 -0.024673 -0.029284
v 0.000000 -0.031698 0.042369
v 0.027730 0.108783 -0.027334
v 0.034205 0.125889 0.000396
v 0.039216 0.108783 0.000396
v -0.016741 0.147961 0.017136
v -0.000000 0.171137 0.018700
v -0.012943 0.171137 0.013339
v 0.000000 0.125889 0.034600
v 0.016741 0.147961 0.017136
v 0.000000 0.147961 0.024071
v -0.024186 0.125889 0.024582
v -0.023675 0.147961 0.000396
v -0.034205 0.125889 0.000396
v -0.024186 0.125889 -0.023791
v 0.000000 0.147961 -0.023279
v 0.000000 0.125889 -0.033809
v 0.024186 0.125889 -0.023791
v 0.000000 0.147961 -0.023279
v 0.016741 0.147961 -0.016345
v 0.034205 0.125889 0.000396
v 0.016741 0.147961 0.017136
v 0.024186 0.125889 0.024582
v 0.000000 0.125889 0.034600
v -0.016741 0.147961 0.017136
v -0.024186 0.125889 0.024582
v -0.024186 0.125889 -0.023791
v -0.023675 0.147961 0.000396
v -0.016741 0.147961 -0.016345
v 0.012943 0.171137 -0.012547
v -0.000000 0.208660 -0.014821
v 0.010759 0.208660 -0.010364
v -0.023675 0.147961 0.000396
v -0.012943 0.171137 -0.012547
v -0.016741 0.147961 -0.016345
v 0.016741 0.147961 -0.016345
v 0.018304 0.171137 0.000396
v 0.023675 0.147961 0.000396
v 0.000000 0.147961 0.024071
v 0.012943 0.171137 0.013339
v -0.000000 0.171137 0.018700
v -0.016741 0.147961 0.017136
v -0.018304 0.171137 0.000396
v -0.023675 0.147961 0.000396
v -0.016741 0.147961 -0.016345
v -0.000000 0.171137 -0.017909
v 0.000000 0.147961 -0.023279
v 0.016741 0.147961 -0.016345
v -0.000000 0.171137 -0.017909
v 0.012943 0.171137 -0.012547
v 0.023675 0.147961 0.000396
v 0.012943 0.171137 0.013339
v 0.016741 0.147961 0.017136
v 0.010759 0.208660 0.011155
v -0.000000 0.237906 0.015612
v -0.000000 0.208660 0.015612
v 0.018304 0.171137 0.000396
v 0.010759 0.208660 0.011155
v 0.012943 0.171137 0.013339
v -0.000000 0.171137 0.018700
v -0.010759 0.208660 0.011155
v -0.012943 0.171137 0.013339
v -0.018304 0.171137 0.000396
v -0.010759 0.208660 -0.010364
v -0.012943 0.171137 -0.012547
v 0.012943 0.171137 -0.012547
v 0.015216 0.208660 0.000396
v 0.018304 0.171137 0.000396
v 0.012943 0.171137 0.013339
v -0.000000 0.208660 0.015612
v -0.000000 0.171137 0.018700
v -0.012943 0.171137 0.013339
v -0.015216 0.208660 0.000396
v -0.018304 0.171137 0.000396
v -0.012943 0.171137 -0.012547
v -0.000000 0.208660 -0.014821
v -0.000000 0.171137 -0.017909
v 0.015216 0.237906 0.000396
v 0.010273 0.239285 -0.009877
v 0.014528 0.239285 0.000396
v -0.010759 0.208660 0.011155
v -0.015216 0.237906 0.000396
v -0.015216 0.208660 0.000396
v -0.010759 0.208660 -0.010364
v -0.000000 0.237906 -0.014821
v -0.000000 0.208660 -0.014821
v -0.000000 0.208660 -0.014821
v 0.010759 0.237906 -0.010364
v 0.010759 0.208660 -0.010364
v 0.015216 0.208660 0.000396
v 0.010759 0.237906 0.011155
v 0.010759 0.208660 0.011155
v -0.000000 0.208660 0.015612
v -0.010759 0.237906 0.011155
v -0.010759 0.208660 0.011155
v -0.015216 0.208660 0.000396
v -0.010759 0.237906 -0.010364
v -0.010759 0.208660 -0.010364
v 0.010759 0.208660 -0.010364
v 0.015216 0.237906 0.000396
v 0.015216 0.208660 0.000396
v 0.014528 0.239285 0.000396
v 0.010854 0.242044 0.011250
v 0.010273 0.239285 0.010669
v 0.010759 0.237906 0.011155
v -0.000000 0.239285 0.014924
v -0.000000 0.237906 0.015612
v -0.015216 0.237906 0.000396
v -0.010273 0.239285 0.010669
v -0.014528 0.239285 0.000396
v -0.010759 0.237906 -0.010364
v -0.000000 0.239285 -0.014133
v -0.000000 0.237906 -0.014821
v -0.000000 0.237906 -0.014821
v 0.010273 0.239285 -0.009877
v 0.010759 0.237906 -0.010364
v 0.015216 0.237906 0.000396
v 0.010273 0.239285 0.010669
v 0.010759 0.237906 0.011155
v -0.010759 0.237906 0.011155
v -0.000000 0.239285 0.014924
v -0.010273 0.239285 0.010669
v -0.015216 0.237906 0.000396
v -0.010273 0.239285 -0.009877
v -0.010759 0.237906 -0.010364
v -0.010854 0.242044 -0.010459
v -0.000000 0.241966 -0.016441
v -0.000000 0.242044 -0.014955
v -0.000000 0.239285 0.014924
v -0.010854 0.242044 0.011250
v -0.010273 0.239285 0.010669
v -0.014528 0.239285 0.000396
v -0.010854 0.242044 -0.010459
v -0.010273 0.239285 -0.009877
v 0.010273 0.239285 -0.009877
v 0.015350 0.242044 0.000396
v 0.014528 0.239285 0.000396
v 0.010273 0.239285 0.010669
v -0.000000 0.242044 0.015746
v -0.000000 0.239285 0.014924
v -0.014528 0.239285 0.000396
v -0.010854 0.242044 0.011250
v -0.015350 0.242044 0.000396
v -0.010273 0.239285 -0.009877
v -0.000000 0.242044 -0.014955
v -0.000000 0.239285 -0.014133
v -0.000000 0.239285 -0.014133
v 0.010854 0.242044 -0.010459
v 0.010273 0.239285 -0.009877
v 0.011905 0.241966 -0.011510
v 0.016837 0.263920 0.000396
v 0.016837 0.241966 0.000396
v 0.010854 0.242044 -0.010459
v -0.000000 0.241966 -0.016441
v 0.011905 0.241966 -0.011510
v 0.015350 0.242044 0.000396
v 0.011905 0.241966 0.012301
v 0.010854 0.242044 0.011250
v -0.010854 0.242044 0.011250
v -0.000000 0.241966 0.017232
v -0.011905 0.241966 0.012301
v -0.015350 0.242044 0.000396
v -0.011905 0.241966 -0.011510
v -0.010854 0.242044 -0.010459
v 0.015350 0.242044 0.000396
v 0.011905 0.241966 -0.011510
v 0.016837 0.241966 0.000396
v 0.010854 0.242044 0.011250
v -0.000000 0.241966 0.017232
v -0.000000 0.242044 0.015746
v -0.015350 0.242044 0.000396
v -0.011905 0.241966 0.012301
v -0.016837 0.241966 0.000396
v -0.011905 0.263920 -0.011510
v -0.012502 0.264945 0.000396
v -0.008840 0.264945 -0.008444
v 0.011905 0.241966 0.012301
v -0.000000 0.263920 0.017232
v -0.000000 0.241966 0.017232
v -0.011905 0.241966 0.012301
v -0.016837 0.263920 0.000396
v -0.016837 0.241966 0.000396
v -0.011905 0.241966 -0.011510
v -0.000000 0.263920 -0.016441
v -0.000000 0.241966 -0.016441
v -0.000000 0.241966 -0.016441
v 0.011905 0.263920 -0.011510
v 0.011905 0.241966 -0.011510
v 0.016837 0.241966 0.000396
v 0.011905 0.263920 0.012301
v 0.011905 0.241966 0.012301
v -0.000000 0.241966 0.017232
v -0.011905 0.263920 0.012301
v -0.011905 0.241966 0.012301
v -0.016837 0.241966 0.000396
v -0.011905 0.263920 -0.011510
v -0.011905 0.241966 -0.011510
v -0.000000 0.264945 -0.012106
v 0.008840 0.154859 -0.008444
v 0.008840 0.264945 -0.008444
v 0.011905 0.263920 -0.011510
v 0.012502 0.264945 0.000396
v 0.016837 0.263920 0.000396
v 0.011905 0.263920 0.012301
v -0.000000 0.264945 0.012897
v -0.000000 0.263920 0.017232
v -0.011905 0.263920 0.012301
v -0.012502 0.264945 0.000396
v -0.016837 0.263920 0.000396
v -0.011905 0.263920 -0.011510
v -0.000000 0.264945 -0.012106
v -0.000000 0.263920 -0.016441
v 0.011905 0.263920 -0.011510
v -0.000000 0.264945 -0.012106
v 0.008840 0.264945 -0.008444
v 0.016837 0.263920 0.000396
v 0.008840 0.264945 0.009236
v 0.011905 0.263920 0.012301
v -0.011905 0.263920 0.012301
v -0.000000 0.264945 0.012897
v -0.008840 0.264945 0.009236
v 0.029680 -0.031698 0.030076
v 0.031520 -0.035055 0.000396
v 0.041974 -0.031698 0.000396
v 0.000000 -0.031698 -0.041578
v 0.029680 -0.031698 -0.029284
v -0.029680 -0.031698 0.030076
v -0.029680 -0.031698 -0.029284
v 0.041974 -0.031698 0.000396
v -0.041974 -0.031698 0.000396
v 0.029680 -0.031698 0.030076
v -0.022288 -0.035055 0.022684
v -0.031520 -0.035055 0.000396
v -0.022288 -0.035055 -0.021892
v 0.000000 -0.031698 -0.041578
v 0.022288 -0.035055 -0.021892
v -0.000000 -0.035055 -0.031124
v 0.000000 -0.031698 -0.041578
v -0.022288 -0.035055 -0.021892
v -0.029680 -0.031698 -0.029284
v -0.041974 -0.031698 0.000396
v -0.022288 -0.035055 0.022684
v -0.029680 -0.031698 0.030076
v 0.000000 -0.031698 0.042369
v 0.022288 -0.035055 0.022684
v 0.029680 -0.031698 0.030076
v 0.041974 -0.031698 0.000396
v 0.022288 -0.035055 -0.021892
v 0.029680 -0.031698 -0.029284
v -0.029680 -0.031698 -0.029284
v -0.031520 -0.035055 0.000396
v -0.041974 -0.031698 0.000396
v 0.000000 -0.031698 0.042369
v -0.022288 -0.035055 0.022684
v -0.000000 -0.035055 0.031915
v -0.000000 0.154859 0.012897
v -0.023968 0.107127 0.024363
v -0.008840 0.154859 0.009236
v 0.012502 0.264945 0.000396
v 0.008840 0.154859 0.009236
v 0.008840 0.264945 0.009236
v -0.000000 0.264945 0.012897
v -0.008840 0.154859 0.009236
v -0.008840 0.264945 0.009236
v -0.012502 0.264945 0.000396
v -0.008840 0.154859 -0.008444
v -0.008840 0.264945 -0.008444
v 0.008840 0.264945 -0.008444
v 0.012502 0.154859 0.000396
v 0.012502 0.264945 0.000396
v 0.008840 0.264945 0.009236
v -0.000000 0.154859 0.012897
v -0.000000 0.264945 0.012897
v -0.008840 0.264945 0.009236
v -0.012502 0.154859 0.000396
v -0.012502 0.264945 0.000396
v -0.008840 0.264945 -0.008444
v -0.000000 0.154859 -0.012106
v -0.000000 0.264945 -0.012106
v -0.000000 0.107127 -0.033499
v 0.023967 -0.026532 -0.023572
v 0.023967 0.107127 -0.023572
v -0.012502 0.154859 0.000396
v -0.023968 0.107127 -0.023572
v -0.008840 0.154859 -0.008444
v 0.012502 0.154859 0.000396
v 0.023967 0.107127 -0.023572
v 0.033895 0.107127 0.000396
v 0.008840 0.154859 0.009236
v -0.000000 0.107127 0.034291
v -0.000000 0.154859 0.012897
v -0.012502 0.154859 0.000396
v -0.023968 0.107127 0.024363
v -0.033895 0.107127 0.000396
v -0.000000 0.154859 -0.012106
v -0.023968 0.107127 -0.023572
v -0.000000 0.107127 -0.033499
v -0.000000 0.154859 -0.012106
v 0.023967 0.107127 -0.023572
v 0.008840 0.154859 -0.008444
v 0.012502 0.154859 0.000396
v 0.023967 0.107127 0.024363
v 0.008840 0.154859 0.009236
v -0.000000 -0.026532 0.034291
v 0.023967 -0.026532 0.024363
v 0.033895 -0.026532 0.000396
v 0.033895 0.107127 0.000396
v 0.023967 -0.026532 0.024363
v 0.023967 0.107127 0.024363
v -0.000000 0.107127 0.034291
v -0.023967 -0.026532 0.024363
v -0.023968 0.107127 0.024363
v -0.033895 0.107127 0.000396
v -0.023967 -0.026532 -0.023572
v -0.023968 0.107127 -0.023572
v 0.023967 0.107127 -0.023572
v 0.033895 -0.026532 0.000396
v 0.033895 0.107127 0.000396
v 0.023967 0.107127 0.024363
v -0.000000 -0.026532 0.034291
v -0.000000 0.107127 0.034291
v -0.023968 0.107127 0.024363
v -0.033895 -0.026532 0.000396
v -0.033895 0.107127 0.000396
v -0.023968 0.107127 -0.023572
v -0.000000 -0.026532 -0.033499
v -0.000000 0.107127 -0.033499
v -0.024186 0.125889 -0.023791
v 0.027730 0.108783 0.028125
v 0.029680 0.092228 -0.029284
v -0.024186 0.125889 0.024582
v -0.039216 0.108783 0.000396
v 0.041974 0.092228 0.000396
v 0.024186 0.125889 0.024582
v 0.039216 0.108783 0.000396
v 0.029680 0.092228 0.030076
v 0.000000 0.108783 -0.038820
v 0.000000 0.108783 -0.038820
v 0.000000 0.092228 0.042369
v 0.000000 0.108783 0.039611
v -0.027730 0.108783 0.028125
v -0.029680 0.092228 0.030076
v 0.016741 0.147961 -0.016345
v 0.029680 0.092228 -0.029284
v -0.041974 0.092228 0.000396
v 0.000000 0.108783 0.039611
v -0.034205 0.125889 0.000396
v -0.029680 0.092228 -0.029284
v 0.034205 0.125889 0.000396
v -0.027730 0.108783 -0.027334
v 0.000000 0.092228 -0.041578
v -0.029680 -0.031698 0.030076
v 0.024186 0.125889 -0.023791
v 0.000000 0.147961 0.024071
v 0.024186 0.125889 0.024582
v -0.016741 0.147961 0.017136
v -0.016741 0.147961 -0.016345
v 0.000000 0.125889 -0.033809
v 0.023675 0.147961 0.000396
v 0.000000 0.147961 0.024071
v -0.034205 0.125889 0.000396
v -0.000000 0.171137 -0.017909
v -0.018304 0.171137 0.000396
v 0.012943 0.171137 -0.012547
v 0.016741 0.147961 0.017136
v -0.012943 0.171137 0.013339
v -0.012943 0.171137 -0.012547
v 0.000000 0.147961 -0.023279
v 0.018304 0.171137 0.000396
v 0.010759 0.237906 0.011155
v 0.015216 0.208660 0.000396
v -0.000000 0.208660 0.015612
v -0.015216 0.208660 0.000396
v 0.010759 0.208660 -0.010364
v 0.010759 0.208660 0.011155
v -0.010759 0.208660 0.011155
v -0.010759 0.208660 -0.010364
v 0.010759 0.237906 -0.010364
v -0.010759 0.237906 0.011155
v -0.010759 0.237906 -0.010364
v -0.000000 0.237906 -0.014821
v 0.015216 0.237906 0.000396
v -0.000000 0.237906 0.015612
v -0.015216 0.237906 0.000396
v 0.010759 0.237906 -0.010364
v 0.015350 0.242044 0.000396
v 0.010273 0.239285 0.010669
v -0.010759 0.237906 0.011155
v -0.010273 0.239285 -0.009877
v -0.000000 0.239285 -0.014133
v 0.014528 0.239285 0.000396
v -0.000000 0.237906 0.015612
v -0.014528 0.239285 0.000396
v -0.011905 0.241966 -0.011510
v -0.000000 0.242044 0.015746
v -0.015350 0.242044 0.000396
v 0.010854 0.242044 -0.010459
v 0.010854 0.242044 0.011250
v -0.010273 0.239285 0.010669
v -0.010854 0.242044 -0.010459
v -0.000000 0.242044 -0.014955
v 0.011905 0.263920 -0.011510
v -0.000000 0.242044 -0.014955
v 0.016837 0.241966 0.000396
v -0.000000 0.242044 0.015746
v -0.016837 0.241966 0.000396
v 0.010854 0.242044 -0.010459
v 0.011905 0.241966 0.012301
v -0.010854 0.242044 0.011250
v -0.016837 0.263920 0.000396
v 0.011905 0.263920 0.012301
v -0.011905 0.263920 0.012301
v -0.011905 0.263920 -0.011510
v -0.000000 0.263920 -0.016441
v 0.016837 0.263920 0.000396
v -0.000000 0.263920 0.017232
v -0.016837 0.263920 0.000396
v -0.000000 0.154859 -0.012106
v 0.008840 0.264945 -0.008444
v 0.008840 0.264945 0.009236
v -0.008840 0.264945 0.009236
v -0.008840 0.264945 -0.008444
v -0.000000 0.263920 -0.016441
v 0.012502 0.264945 0.000396
v -0.000000 0.263920 0.017232
v 0.022288 -0.035055 0.022684
v 0.029680 -0.031698 -0.029284
v 0.041974 -0.031698 0.000396
v -0.041974 -0.031698 0.000396
v 0.000000 -0.031698 -0.041578
v 0.029680 -0.031698 0.030076
v -0.029680 -0.031698 -0.029284
v 0.000000 -0.031698 0.042369
v -0.000000 -0.035055 -0.031124
v 0.022288 -0.035055 0.022684
v 0.022288 -0.035055 -0.021892
v 0.031520 -0.035055 0.000396
v -0.000000 -0.035055 0.031915
v 0.029680 -0.031698 -0.029284
v -0.000000 -0.035055 -0.031124
v -0.031520 -0.035055 0.000396
v -0.000000 -0.035055 0.031915
v 0.031520 -0.035055 0.000396
v -0.022288 -0.035055 -0.021892
v -0.029680 -0.031698 0.030076
v -0.000000 0.107127 0.034291
v 0.012502 0.154859 0.000396
v -0.000000 0.154859 0.012897
v -0.012502 0.154859 0.000396
v 0.008840 0.154859 -0.008444
v 0.008840 0.154859 0.009236
v -0.008840 0.154859 0.009236
v -0.008840 0.154859 -0.008444
v -0.000000 -0.026532 -0.033499
v -0.033895 0.107127 0.000396
v 0.008840 0.154859 -0.008444
v 0.023967 0.107127 0.024363
v -0.008840 0.154859 0.009236
v -0.008840 0.154859 -0.008444
v -0.000000 0.107127 -0.033499
v 0.033895 0.107127 0.000396
v 0.023967 -0.026532 -0.023572
v -0.000000 -0.026532 -0.033499
v -0.023967 -0.026532 -0.023572
v -0.033895 -0.026532 0.000396
v -0.023967 -0.026532 0.024363
v 0.033895 -0.026532 0.000396
v -0.000000 -0.026532 0.034291
v -0.033895 -0.026532 0.000396
v 0.023967 -0.026532 -0.023572
v 0.023967 -0.026532 0.024363
v -0.023967 -0.026532 0.024363
v -0.023967 -0.026532 -0.023572
vt 0.802715 0.684922
vt 0.840767 0.727455
vt 0.851383 0.688028
vt 0.942237 0.646666
vt 0.988485 0.688028
vt 0.994328 0.649990
vt 0.457264 0.646666
vt 0.530931 0.379144
vt 0.457264 0.379144
vt 0.665613 0.684922
vt 0.703665 0.727455
vt 0.714281 0.688028
vt 0.731468 0.646666
vt 0.802715 0.684922
vt 0.805135 0.646666
vt 0.530931 0.646666
vt 0.583022 0.382468
vt 0.530931 0.379144
vt 0.939817 0.684922
vt 0.977869 0.727455
vt 0.988485 0.688028
vt 0.868570 0.646666
vt 0.939817 0.684922
vt 0.942237 0.646666
vt 0.868570 0.646666
vt 0.942237 0.379144
vt 0.868570 0.379144
vt 0.528511 0.684922
vt 0.464082 0.724746
vt 0.524113 0.724746
vt 0.457264 0.646666
vt 0.528511 0.684922
vt 0.530931 0.646666
vt 0.942237 0.646666
vt 0.994328 0.382468
vt 0.942237 0.379144
vt 0.665613 0.684922
vt 0.601184 0.724746
vt 0.661216 0.724746
vt 0.668033 0.646666
vt 0.714281 0.688028
vt 0.720124 0.649990
vt 0.594366 0.646666
vt 0.668033 0.379144
vt 0.594366 0.379144
vt 0.524113 0.724746
vt 0.544255 0.778557
vt 0.566562 0.727455
vt 0.583022 0.649990
vt 0.528511 0.684922
vt 0.577179 0.688028
vt 0.668033 0.646666
vt 0.720124 0.382468
vt 0.668033 0.379144
vt 0.594366 0.646666
vt 0.665613 0.684922
vt 0.668033 0.646666
vt 0.733888 0.684922
vt 0.798317 0.724746
vt 0.802715 0.684922
vt 0.731468 0.646666
vt 0.805135 0.379144
vt 0.731468 0.379144
vt 0.870990 0.684922
vt 0.935420 0.724746
vt 0.939817 0.684922
vt 0.805135 0.646666
vt 0.851383 0.688028
vt 0.857226 0.649990
vt 0.805135 0.646666
vt 0.857226 0.382468
vt 0.805135 0.379144
vt 0.594366 0.363066
vt 0.528511 0.684922
vt 0.566562 0.727455
vt 0.577179 0.688028
vt 0.651975 0.776681
vt 0.615137 0.830445
vt 0.647262 0.830445
vt 0.977869 0.727455
vt 0.926179 0.776681
vt 0.955561 0.778556
vt 0.661216 0.724746
vt 0.681357 0.778557
vt 0.703665 0.727455
vt 0.798317 0.724746
vt 0.818459 0.778557
vt 0.840767 0.727455
vt 0.524113 0.724746
vt 0.473322 0.776681
vt 0.514873 0.776681
vt 0.875388 0.724746
vt 0.926179 0.776681
vt 0.935420 0.724746
vt 0.601184 0.724746
vt 0.651975 0.776681
vt 0.661216 0.724746
vt 0.798317 0.724746
vt 0.747526 0.776681
vt 0.789077 0.776681
vt 0.510160 0.830445
vt 0.480745 0.916732
vt 0.507450 0.916732
vt 0.747526 0.776681
vt 0.784364 0.830445
vt 0.789077 0.776681
vt 0.514873 0.776681
vt 0.532876 0.831894
vt 0.544255 0.778557
vt 0.955561 0.778556
vt 0.921466 0.830445
vt 0.944183 0.831894
vt 0.651975 0.776681
vt 0.669978 0.831894
vt 0.681357 0.778557
vt 0.789077 0.776681
vt 0.807080 0.831894
vt 0.818459 0.778557
vt 0.514873 0.776681
vt 0.478035 0.830445
vt 0.510160 0.830445
vt 0.884628 0.776681
vt 0.921466 0.830445
vt 0.926179 0.776681
vt 0.918756 0.916732
vt 0.937640 0.984864
vt 0.937640 0.917937
vt 0.889341 0.830445
vt 0.918756 0.916732
vt 0.921466 0.830445
vt 0.615137 0.830445
vt 0.644552 0.916732
vt 0.647262 0.830445
vt 0.752239 0.830445
vt 0.781654 0.916732
vt 0.784364 0.830445
vt 0.510160 0.830445
vt 0.526334 0.917937
vt 0.532876 0.831894
vt 0.921466 0.830445
vt 0.937640 0.917937
vt 0.944183 0.831894
vt 0.647262 0.830445
vt 0.663436 0.917937
vt 0.669978 0.831894
vt 0.784364 0.830445
vt 0.800538 0.917937
vt 0.807080 0.831894
vt 0.526334 0.984864
vt 0.506847 0.986909
vt 0.524877 0.988060
vt 0.644552 0.916732
vt 0.663436 0.984864
vt 0.663436 0.917937
vt 0.781654 0.916732
vt 0.800538 0.984864
vt 0.800538 0.917937
vt 0.480745 0.916732
vt 0.507450 0.983659
vt 0.507450 0.916732
vt 0.892051 0.916732
vt 0.918756 0.983659
vt 0.918756 0.916732
vt 0.617847 0.916732
vt 0.644552 0.983659
vt 0.644552 0.916732
vt 0.754949 0.916732
vt 0.781654 0.983659
vt 0.781654 0.916732
vt 0.507450 0.916732
vt 0.526334 0.984864
vt 0.526334 0.917937
vt 0.892654 0.986909
vt 0.918874 0.993112
vt 0.918153 0.986909
vt 0.918756 0.983659
vt 0.936183 0.988060
vt 0.937640 0.984864
vt 0.663436 0.984864
vt 0.643949 0.986909
vt 0.661979 0.988060
vt 0.781654 0.983659
vt 0.799081 0.988060
vt 0.800538 0.984864
vt 0.480745 0.983659
vt 0.506847 0.986909
vt 0.507450 0.983659
vt 0.892051 0.983659
vt 0.918153 0.986909
vt 0.918756 0.983659
vt 0.644552 0.983659
vt 0.618450 0.986909
vt 0.643949 0.986909
vt 0.754949 0.983659
vt 0.781051 0.986909
vt 0.781654 0.983659
vt 0.027871 0.247973
vt 0.005672 0.265718
vt 0.008821 0.267023
vt 0.618450 0.986909
vt 0.644670 0.993112
vt 0.643949 0.986909
vt 0.755552 0.986909
vt 0.781772 0.993112
vt 0.781051 0.986909
vt 0.506847 0.986909
vt 0.526618 0.994328
vt 0.524877 0.988060
vt 0.918153 0.986909
vt 0.937924 0.994328
vt 0.936183 0.988060
vt 0.661979 0.988060
vt 0.644670 0.993112
vt 0.663720 0.994328
vt 0.781051 0.986909
vt 0.800822 0.994328
vt 0.799081 0.988060
vt 0.481348 0.986909
vt 0.507568 0.993112
vt 0.506847 0.986909
vt 0.324167 0.264588
vt 0.345061 0.316163
vt 0.345061 0.265922
vt 0.008821 0.293964
vt 0.005672 0.265718
vt 0.005672 0.295268
vt 0.027871 0.313014
vt 0.056117 0.316163
vt 0.054812 0.313014
vt 0.073862 0.267023
vt 0.077011 0.295268
vt 0.077011 0.265718
vt 0.054812 0.247973
vt 0.026567 0.244824
vt 0.027871 0.247973
vt 0.027871 0.313014
vt 0.005672 0.295268
vt 0.026567 0.316163
vt 0.054812 0.313014
vt 0.077011 0.295268
vt 0.073862 0.293964
vt 0.054812 0.247973
vt 0.077011 0.265718
vt 0.056117 0.244824
vt 0.138800 0.244824
vt 0.113055 0.254008
vt 0.134996 0.254008
vt 0.200589 0.264588
vt 0.221484 0.316163
vt 0.221484 0.265922
vt 0.262378 0.264588
vt 0.283273 0.316163
vt 0.283273 0.265922
vt 0.385955 0.264588
vt 0.406850 0.316163
vt 0.406850 0.265922
vt 0.294617 0.264588
vt 0.324167 0.314829
vt 0.324167 0.264588
vt 0.171039 0.264588
vt 0.200589 0.314829
vt 0.200589 0.264588
vt 0.232828 0.264588
vt 0.262378 0.314829
vt 0.262378 0.264588
vt 0.356406 0.264588
vt 0.385955 0.314829
vt 0.385955 0.264588
vt 0.201350 0.994328
vt 0.179409 0.742402
vt 0.179409 0.994328
vt 0.159695 0.295268
vt 0.134996 0.306979
vt 0.138800 0.316163
vt 0.109251 0.316163
vt 0.097540 0.291464
vt 0.088356 0.295268
vt 0.088356 0.265718
vt 0.113055 0.254008
vt 0.109250 0.244824
vt 0.138800 0.244824
vt 0.150511 0.269523
vt 0.159695 0.265718
vt 0.159695 0.295268
vt 0.150511 0.269523
vt 0.150511 0.291464
vt 0.138800 0.316163
vt 0.113055 0.306979
vt 0.109251 0.316163
vt 0.088356 0.265718
vt 0.097540 0.291464
vt 0.097540 0.269523
vt 0.457264 0.225964
vt 0.518528 0.196021
vt 0.509355 0.173874
vt 0.457264 0.363066
vt 0.530931 0.363066
vt 0.668033 0.363066
vt 0.805135 0.363066
vt 0.868570 0.363066
vt 0.731468 0.363066
vt 0.942237 0.363066
vt 0.518528 0.329575
vt 0.573848 0.329575
vt 0.612965 0.290458
vt 0.635112 0.225964
vt 0.573848 0.196021
vt 0.612965 0.235138
vt 0.635112 0.225964
vt 0.612965 0.290458
vt 0.635112 0.299632
vt 0.583022 0.351722
vt 0.518528 0.329575
vt 0.509355 0.351722
vt 0.457264 0.299632
vt 0.479411 0.235138
vt 0.457264 0.225964
vt 0.509355 0.173874
vt 0.573848 0.196021
vt 0.583022 0.173874
vt 0.635112 0.299632
vt 0.573848 0.329575
vt 0.583022 0.351722
vt 0.457264 0.299632
vt 0.518528 0.329575
vt 0.479411 0.290458
vt 0.088452 0.742402
vt 0.047737 0.636064
vt 0.066511 0.742402
vt 0.314248 0.994328
vt 0.292307 0.742402
vt 0.292307 0.994328
vt 0.088452 0.994328
vt 0.066511 0.742402
vt 0.066511 0.994328
vt 0.427146 0.994328
vt 0.405205 0.742402
vt 0.405205 0.994328
vt 0.179409 0.994328
vt 0.163894 0.741412
vt 0.163894 0.993338
vt 0.292307 0.994328
vt 0.276792 0.741412
vt 0.276792 0.993338
vt 0.066511 0.994328
vt 0.050996 0.741412
vt 0.050996 0.993338
vt 0.405205 0.994328
vt 0.389690 0.741412
vt 0.389690 0.993338
vt 0.220124 0.636064
vt 0.160635 0.330192
vt 0.160635 0.636064
vt 0.427146 0.742402
vt 0.386431 0.636064
vt 0.405205 0.742402
vt 0.163894 0.741412
vt 0.160635 0.636064
vt 0.118570 0.633379
vt 0.292307 0.742402
vt 0.231468 0.633379
vt 0.276792 0.741412
vt 0.050996 0.741412
vt 0.047737 0.636064
vt 0.005672 0.633379
vt 0.389690 0.741412
vt 0.386431 0.636064
vt 0.344366 0.633379
vt 0.201350 0.742402
vt 0.160635 0.636064
vt 0.179409 0.742402
vt 0.314248 0.742402
vt 0.273533 0.636064
vt 0.292307 0.742402
vt 0.790075 0.309657
vt 0.790075 0.250169
vt 0.748010 0.208104
vt 0.333022 0.636064
vt 0.273533 0.330192
vt 0.273533 0.636064
vt 0.107226 0.636064
vt 0.047737 0.330192
vt 0.047737 0.636064
vt 0.445920 0.636064
vt 0.386431 0.330192
vt 0.386431 0.636064
vt 0.160635 0.636064
vt 0.118570 0.327507
vt 0.118570 0.633379
vt 0.273533 0.636064
vt 0.231468 0.327507
vt 0.231468 0.633379
vt 0.047737 0.636064
vt 0.005672 0.327507
vt 0.005672 0.633379
vt 0.386431 0.636064
vt 0.344366 0.327507
vt 0.344366 0.633379
vt 0.798317 0.724746
vt 0.939817 0.684922
vt 0.530931 0.646666
vt 0.661216 0.724746
vt 0.733888 0.684922
vt 0.583022 0.649990
vt 0.935420 0.724746
vt 0.870990 0.684922
vt 0.942237 0.646666
vt 0.459684 0.684922
vt 0.459684 0.684922
vt 0.994328 0.649990
vt 0.596786 0.684922
vt 0.665613 0.684922
vt 0.668033 0.646666
vt 0.514873 0.776681
vt 0.530931 0.646666
vt 0.720124 0.649990
vt 0.596786 0.684922
vt 0.738286 0.724746
vt 0.805135 0.646666
vt 0.875388 0.724746
vt 0.802715 0.684922
vt 0.857226 0.649990
vt 0.668033 0.363066
vt 0.524113 0.724746
vt 0.610424 0.776681
vt 0.935420 0.724746
vt 0.651975 0.776681
vt 0.789077 0.776681
vt 0.464082 0.724746
vt 0.884628 0.776681
vt 0.610424 0.776681
vt 0.738286 0.724746
vt 0.478035 0.830445
vt 0.752239 0.830445
vt 0.510160 0.830445
vt 0.926179 0.776681
vt 0.647262 0.830445
vt 0.784364 0.830445
vt 0.473322 0.776681
vt 0.889341 0.830445
vt 0.918756 0.983659
vt 0.892051 0.916732
vt 0.617847 0.916732
vt 0.754949 0.916732
vt 0.507450 0.916732
vt 0.918756 0.916732
vt 0.644552 0.916732
vt 0.781654 0.916732
vt 0.507450 0.983659
vt 0.644552 0.983659
vt 0.781654 0.983659
vt 0.480745 0.983659
vt 0.892051 0.983659
vt 0.617847 0.983659
vt 0.754949 0.983659
vt 0.507450 0.983659
vt 0.891933 0.993112
vt 0.918153 0.986909
vt 0.644552 0.983659
vt 0.781051 0.986909
vt 0.481348 0.986909
vt 0.892654 0.986909
vt 0.617847 0.983659
vt 0.755552 0.986909
vt 0.026567 0.244824
vt 0.617729 0.993112
vt 0.754831 0.993112
vt 0.507568 0.993112
vt 0.918874 0.993112
vt 0.643949 0.986909
vt 0.781772 0.993112
vt 0.480627 0.993112
vt 0.324167 0.314829
vt 0.008821 0.267023
vt 0.026567 0.316163
vt 0.073862 0.293964
vt 0.056117 0.244824
vt 0.008821 0.293964
vt 0.056117 0.316163
vt 0.073862 0.267023
vt 0.109250 0.244824
vt 0.200589 0.314829
vt 0.262378 0.314829
vt 0.385955 0.314829
vt 0.294617 0.314829
vt 0.171039 0.314829
vt 0.232828 0.314829
vt 0.356406 0.314829
vt 0.201350 0.742402
vt 0.150511 0.291464
vt 0.113055 0.306979
vt 0.097540 0.269523
vt 0.134996 0.254008
vt 0.159695 0.265718
vt 0.134996 0.306979
vt 0.088356 0.295268
vt 0.479411 0.235138
vt 0.530931 0.363066
vt 0.583022 0.366391
vt 0.720124 0.366391
vt 0.857226 0.366391
vt 0.942237 0.363066
vt 0.805135 0.363066
vt 0.994328 0.366391
vt 0.612965 0.235138
vt 0.479411 0.235138
vt 0.573848 0.196021
vt 0.518528 0.196021
vt 0.479411 0.290458
vt 0.583022 0.173874
vt 0.612965 0.235138
vt 0.573848 0.329575
vt 0.479411 0.290458
vt 0.518528 0.196021
vt 0.612965 0.290458
vt 0.509355 0.351722
vt 0.107226 0.636064
vt 0.314248 0.742402
vt 0.088452 0.742402
vt 0.427146 0.742402
vt 0.179409 0.742402
vt 0.292307 0.742402
vt 0.066511 0.742402
vt 0.405205 0.742402
vt 0.220124 0.330192
vt 0.445920 0.636064
vt 0.179409 0.742402
vt 0.273533 0.636064
vt 0.066511 0.742402
vt 0.405205 0.742402
vt 0.220124 0.636064
vt 0.333022 0.636064
vt 0.688522 0.208104
vt 0.646456 0.250168
vt 0.646456 0.309657
vt 0.688521 0.351722
vt 0.748010 0.351722
vt 0.333022 0.330192
vt 0.107226 0.330192
vt 0.445920 0.330192
vt 0.160635 0.330192
vt 0.273533 0.330192
vt 0.047737 0.330192
vt 0.386431 0.330192
vn -0.369395 0.261239 -0.891797
vn -0.369395 0.261239 -0.891797
vn -0.369394 0.261239 -0.891797
vn 0.378229 0.152130 0.913126
vn 0.378229 0.152130 0.913126
vn 0.378229 0.152130 0.913126
vn 0.382684 -0.000000 -0.923879
vn 0.382684 -0.000000 -0.923879
vn 0.382684 -0.000000 -0.923880
vn -0.891797 0.261239 0.369394
vn -0.891797 0.261239 0.369394
vn -0.891797 0.261239 0.369395
vn -0.913126 0.152130 -0.378230
vn -0.913126 0.152130 -0.378229
vn -0.913126 0.152129 -0.378229
vn 0.923879 -0.000000 -0.382684
vn 0.923880 -0.000000 -0.382684
vn 0.923880 -0.000000 -0.382683
vn 0.369395 0.261239 0.891797
vn 0.369395 0.261240 0.891797
vn 0.369394 0.261240 0.891797
vn 0.913126 0.152130 0.378229
vn 0.913126 0.152130 0.378229
vn 0.913126 0.152130 0.378229
vn 0.923880 0.000000 0.382683
vn 0.923880 0.000000 0.382684
vn 0.923879 0.000000 0.382684
vn 0.369395 0.261239 -0.891797
vn 0.369395 0.261239 -0.891797
vn 0.369395 0.261239 -0.891797
vn 0.378229 0.152130 -0.913126
vn 0.378230 0.152130 -0.913126
vn 0.378230 0.152130 -0.913126
vn 0.382684 0.000000 0.923879
vn 0.382684 0.000000 0.923879
vn 0.382684 0.000000 0.923880
vn -0.369395 0.261239 0.891797
vn -0.369395 0.261239 0.891797
vn -0.369395 0.261239 0.891797
vn -0.913126 0.152130 0.378230
vn -0.913126 0.152130 0.378229
vn -0.913126 0.152130 0.378229
vn -0.382684 0.000000 0.923879
vn -0.382684 0.000000 0.923879
vn -0.382684 0.000000 0.923880
vn 0.845410 0.403305 -0.350181
vn 0.845410 0.403305 -0.350181
vn 0.845410 0.403305 -0.350181
vn 0.913126 0.152130 -0.378230
vn 0.913126 0.152130 -0.378229
vn 0.913126 0.152130 -0.378230
vn -0.923879 0.000000 0.382684
vn -0.923880 0.000000 0.382684
vn -0.923880 0.000000 0.382683
vn -0.378229 0.152130 0.913126
vn -0.378229 0.152130 0.913126
vn -0.378230 0.152130 0.913126
vn -0.891797 0.261239 -0.369395
vn -0.891797 0.261239 -0.369395
vn -0.891797 0.261239 -0.369395
vn -0.923880 -0.000000 -0.382683
vn -0.923880 -0.000000 -0.382684
vn -0.923879 -0.000000 -0.382684
vn 0.891797 0.261239 0.369394
vn 0.891797 0.261239 0.369395
vn 0.891797 0.261239 0.369395
vn -0.378229 0.152130 -0.913126
vn -0.378229 0.152130 -0.913126
vn -0.378229 0.152130 -0.913126
vn -0.382684 -0.000000 -0.923879
vn -0.382684 -0.000000 -0.923879
vn -0.382684 -0.000000 -0.923880
vn -0.382684 0.000000 0.923879
vn 0.891797 0.261239 -0.369394
vn 0.891797 0.261239 -0.369395
vn 0.891797 0.261239 -0.369395
vn -0.374203 0.209353 0.903406
vn -0.374203 0.209354 0.903406
vn -0.374203 0.209354 0.903406
vn 0.350180 0.403305 0.845410
vn 0.350180 0.403305 0.845411
vn 0.350180 0.403305 0.845411
vn -0.845410 0.403305 0.350181
vn -0.845410 0.403305 0.350181
vn -0.845410 0.403305 0.350181
vn -0.350180 0.403304 -0.845411
vn -0.350180 0.403304 -0.845411
vn -0.350181 0.403305 -0.845410
vn 0.350180 0.403304 -0.845411
vn 0.350180 0.403304 -0.845411
vn 0.350180 0.403304 -0.845411
vn 0.845411 0.403305 0.350181
vn 0.845410 0.403305 0.350181
vn 0.845411 0.403305 0.350180
vn -0.350180 0.403305 0.845411
vn -0.350180 0.403305 0.845411
vn -0.350181 0.403305 0.845410
vn -0.845410 0.403305 -0.350181
vn -0.845410 0.403305 -0.350181
vn -0.845410 0.403305 -0.350181
vn 0.381582 0.075815 -0.921220
vn 0.381582 0.075815 -0.921220
vn 0.381582 0.075815 -0.921221
vn -0.903407 0.209353 -0.374203
vn -0.903406 0.209353 -0.374204
vn -0.903407 0.209353 -0.374203
vn 0.903407 0.209353 -0.374203
vn 0.903406 0.209354 -0.374203
vn 0.903407 0.209353 -0.374203
vn 0.374203 0.209354 0.903406
vn 0.374203 0.209354 0.903406
vn 0.374203 0.209353 0.903406
vn -0.903406 0.209353 0.374203
vn -0.903406 0.209353 0.374203
vn -0.903407 0.209353 0.374203
vn -0.374203 0.209353 -0.903407
vn -0.374203 0.209353 -0.903407
vn -0.374203 0.209353 -0.903407
vn 0.374203 0.209353 -0.903406
vn 0.374203 0.209353 -0.903406
vn 0.374203 0.209354 -0.903406
vn 0.903406 0.209354 0.374203
vn 0.903406 0.209354 0.374203
vn 0.903407 0.209353 0.374203
vn 0.382684 0.000000 0.923880
vn 0.382684 0.000000 0.923879
vn 0.382683 0.000000 0.923880
vn 0.921220 0.075816 0.381582
vn 0.921220 0.075816 0.381582
vn 0.921220 0.075816 0.381582
vn -0.381583 0.075816 0.921220
vn -0.381582 0.075816 0.921220
vn -0.381583 0.075816 0.921220
vn -0.921220 0.075816 -0.381582
vn -0.921220 0.075815 -0.381582
vn -0.921220 0.075816 -0.381582
vn 0.921220 0.075815 -0.381582
vn 0.921220 0.075815 -0.381582
vn 0.921220 0.075815 -0.381582
vn 0.381582 0.075816 0.921220
vn 0.381582 0.075816 0.921220
vn 0.381582 0.075816 0.921220
vn -0.921220 0.075816 0.381582
vn -0.921220 0.075816 0.381582
vn -0.921220 0.075816 0.381582
vn -0.381582 0.075816 -0.921220
vn -0.381582 0.075815 -0.921220
vn -0.381583 0.075816 -0.921220
vn 0.839138 0.418372 -0.347579
vn 0.839131 0.418382 -0.347587
vn 0.839139 0.418371 -0.347578
vn -0.923879 0.000000 0.382684
vn -0.923879 0.000000 0.382684
vn -0.923879 0.000000 0.382684
vn -0.382684 -0.000000 -0.923880
vn -0.382684 -0.000000 -0.923879
vn -0.382684 -0.000000 -0.923880
vn 0.382684 -0.000000 -0.923880
vn 0.382684 -0.000000 -0.923879
vn 0.382683 -0.000000 -0.923880
vn 0.923879 0.000000 0.382684
vn 0.923879 0.000000 0.382684
vn 0.923879 0.000000 0.382684
vn -0.382684 0.000000 0.923880
vn -0.382684 0.000000 0.923879
vn -0.382684 0.000000 0.923880
vn -0.923879 -0.000000 -0.382684
vn -0.923879 -0.000000 -0.382684
vn -0.923879 -0.000000 -0.382684
vn 0.923879 -0.000000 -0.382684
vn 0.923879 -0.000000 -0.382684
vn 0.923879 -0.000000 -0.382684
vn 0.890767 -0.265325 0.368968
vn 0.890767 -0.265325 0.368968
vn 0.890767 -0.265325 0.368968
vn 0.347585 0.418375 0.839134
vn 0.347577 0.418376 0.839138
vn 0.347576 0.418376 0.839138
vn -0.839139 0.418372 0.347580
vn -0.839131 0.418382 0.347587
vn -0.839140 0.418371 0.347579
vn -0.347585 0.418375 -0.839135
vn -0.347577 0.418375 -0.839138
vn -0.347576 0.418375 -0.839138
vn 0.347594 0.418372 -0.839132
vn 0.347570 0.418378 -0.839139
vn 0.347568 0.418379 -0.839140
vn 0.839138 0.418373 0.347579
vn 0.839131 0.418382 0.347586
vn 0.839130 0.418382 0.347587
vn -0.347585 0.418375 0.839134
vn -0.347577 0.418375 0.839138
vn -0.347586 0.418375 0.839134
vn -0.839139 0.418371 -0.347580
vn -0.839131 0.418381 -0.347587
vn -0.839130 0.418382 -0.347588
vn 0.021942 -0.998354 0.052994
vn 0.021955 -0.998353 0.052994
vn 0.021957 -0.998353 0.052994
vn -0.368970 -0.265325 0.890766
vn -0.368967 -0.265325 0.890767
vn -0.368966 -0.265325 0.890768
vn -0.890766 -0.265326 -0.368969
vn -0.890767 -0.265325 -0.368968
vn -0.890767 -0.265325 -0.368967
vn 0.890765 -0.265328 -0.368971
vn 0.890768 -0.265323 -0.368965
vn 0.890769 -0.265322 -0.368964
vn 0.368970 -0.265325 0.890766
vn 0.368968 -0.265325 0.890767
vn 0.368967 -0.265325 0.890767
vn -0.890766 -0.265326 0.368969
vn -0.890767 -0.265325 0.368968
vn -0.890766 -0.265326 0.368969
vn -0.368971 -0.265325 -0.890766
vn -0.368968 -0.265325 -0.890767
vn -0.368967 -0.265326 -0.890767
vn 0.368970 -0.265325 -0.890766
vn 0.368967 -0.265325 -0.890767
vn 0.368966 -0.265326 -0.890768
vn 0.923880 -0.000000 -0.382684
vn 0.923879 -0.000000 -0.382684
vn 0.923879 -0.000000 -0.382684
vn -0.021942 -0.998354 0.052994
vn -0.021955 -0.998353 0.052994
vn -0.021941 -0.998354 0.052994
vn -0.052984 -0.998354 -0.021950
vn -0.052982 -0.998354 -0.021950
vn -0.052982 -0.998354 -0.021950
vn 0.021942 -0.998354 -0.052993
vn 0.021955 -0.998353 -0.052994
vn 0.021941 -0.998354 -0.052993
vn 0.052984 -0.998354 0.021951
vn 0.052982 -0.998354 0.021951
vn 0.052982 -0.998354 0.021951
vn -0.052984 -0.998354 0.021951
vn -0.052982 -0.998354 0.021951
vn -0.052984 -0.998354 0.021951
vn -0.021942 -0.998354 -0.052993
vn -0.021955 -0.998353 -0.052994
vn -0.021957 -0.998353 -0.052994
vn 0.052984 -0.998354 -0.021950
vn 0.052982 -0.998354 -0.021951
vn 0.052984 -0.998354 -0.021950
vn -0.228996 0.968795 -0.094855
vn -0.229005 0.968793 -0.094855
vn -0.228991 0.968796 -0.094856
vn 0.382683 0.000000 0.923880
vn 0.382683 0.000000 0.923880
vn 0.382683 0.000000 0.923880
vn -0.923879 0.000000 0.382684
vn -0.923879 0.000000 0.382684
vn -0.923879 0.000000 0.382684
vn -0.382683 -0.000000 -0.923880
vn -0.382683 -0.000000 -0.923880
vn -0.382683 -0.000000 -0.923880
vn 0.382683 -0.000000 -0.923880
vn 0.382683 -0.000000 -0.923880
vn 0.382683 -0.000000 -0.923880
vn 0.923879 0.000000 0.382684
vn 0.923880 0.000000 0.382683
vn 0.923879 0.000000 0.382684
vn -0.382683 0.000000 0.923880
vn -0.382683 0.000000 0.923880
vn -0.382683 0.000000 0.923880
vn -0.923879 -0.000000 -0.382684
vn -0.923879 -0.000000 -0.382684
vn -0.923879 -0.000000 -0.382684
vn -0.382685 0.000000 0.923879
vn -0.382685 0.000000 0.923879
vn -0.382685 0.000000 0.923879
vn 0.228996 0.968795 -0.094855
vn 0.229005 0.968793 -0.094855
vn 0.229008 0.968792 -0.094855
vn 0.094856 0.968794 0.229000
vn 0.094856 0.968794 0.229000
vn 0.094856 0.968794 0.229001
vn -0.228996 0.968795 0.094855
vn -0.229005 0.968793 0.094855
vn -0.229008 0.968792 0.094855
vn -0.094856 0.968794 -0.229000
vn -0.094856 0.968794 -0.229001
vn -0.094856 0.968794 -0.229001
vn 0.094856 0.968794 -0.229000
vn 0.094856 0.968794 -0.229001
vn 0.094856 0.968794 -0.229000
vn 0.228997 0.968795 0.094855
vn 0.229008 0.968792 0.094855
vn 0.229011 0.968791 0.094855
vn -0.094856 0.968794 0.229000
vn -0.094856 0.968794 0.229000
vn -0.094856 0.968794 0.229000
vn 0.303344 -0.944560 0.125650
vn 0.303344 -0.944560 0.125649
vn 0.303345 -0.944560 0.125649
vn 0.382684 -0.000000 -0.923879
vn 0.923880 -0.000000 -0.382683
vn -0.923880 0.000000 0.382683
vn -0.382684 -0.000000 -0.923879
vn 0.923879 0.000000 0.382684
vn -0.923879 -0.000000 -0.382684
vn 0.382684 0.000000 0.923879
vn 0.000000 -1.000000 0.000000
vn 0.000000 -1.000000 0.000000
vn 0.000000 -1.000000 0.000000
vn 0.125649 -0.944561 -0.303344
vn 0.125649 -0.944561 -0.303344
vn 0.125649 -0.944561 -0.303344
vn -0.125649 -0.944561 -0.303344
vn -0.125649 -0.944561 -0.303344
vn -0.125649 -0.944561 -0.303344
vn -0.303344 -0.944560 0.125650
vn -0.303344 -0.944560 0.125649
vn -0.303344 -0.944560 0.125649
vn 0.125649 -0.944560 0.303344
vn 0.125649 -0.944560 0.303344
vn 0.125649 -0.944560 0.303344
vn 0.303344 -0.944560 -0.125649
vn 0.303344 -0.944560 -0.125649
vn 0.303344 -0.944560 -0.125649
vn -0.303344 -0.944560 -0.125649
vn -0.303344 -0.944561 -0.125649
vn -0.303344 -0.944560 -0.125649
vn -0.125649 -0.944560 0.303344
vn -0.125649 -0.944560 0.303344
vn -0.125649 -0.944561 0.303344
vn 0.353570 -0.382585 -0.853591
vn 0.353570 -0.382585 -0.853590
vn 0.353570 -0.382585 -0.853591
vn -0.923879 -0.000000 -0.382684
vn -0.923879 -0.000000 -0.382684
vn -0.923879 -0.000000 -0.382684
vn 0.382685 -0.000000 -0.923879
vn 0.382685 -0.000000 -0.923879
vn 0.382685 -0.000000 -0.923879
vn 0.923879 0.000000 0.382684
vn 0.923879 0.000000 0.382684
vn 0.923879 0.000000 0.382684
vn -0.923879 0.000000 0.382684
vn -0.923879 0.000000 0.382684
vn -0.923879 0.000000 0.382684
vn -0.382685 -0.000000 -0.923879
vn -0.382685 -0.000000 -0.923879
vn -0.382685 -0.000000 -0.923879
vn 0.923879 -0.000000 -0.382684
vn 0.923879 -0.000000 -0.382684
vn 0.923879 -0.000000 -0.382684
vn 0.382685 0.000000 0.923879
vn 0.382685 0.000000 0.923879
vn 0.382685 0.000000 0.923879
vn -0.382685 0.000000 0.923879
vn -0.382685 0.000000 0.923879
vn -0.382685 0.000000 0.923879
vn 0.853591 -0.382585 0.353570
vn 0.853591 -0.382585 0.353570
vn 0.853591 -0.382585 0.353570
vn -0.853591 -0.382585 0.353569
vn -0.853591 -0.382585 0.353569
vn -0.853591 -0.382585 0.353569
vn -0.353570 -0.382585 -0.853591
vn -0.353570 -0.382585 -0.853591
vn -0.353570 -0.382585 -0.853591
vn 0.853591 -0.382585 -0.353569
vn 0.853591 -0.382585 -0.353570
vn 0.853591 -0.382585 -0.353570
vn 0.353570 -0.382585 0.853591
vn 0.353570 -0.382585 0.853591
vn 0.353570 -0.382585 0.853591
vn -0.353570 -0.382585 0.853591
vn -0.353570 -0.382585 0.853591
vn -0.353570 -0.382585 0.853591
vn -0.853591 -0.382585 -0.353569
vn -0.853591 -0.382585 -0.353569
vn -0.853591 -0.382585 -0.353569
vn -0.000000 1.000000 -0.000000
vn -0.000000 1.000000 -0.000000
vn -0.000000 1.000000 -0.000000
vn -0.923879 -0.000000 -0.382684
vn -0.923879 -0.000000 -0.382684
vn -0.923879 -0.000000 -0.382684
vn 0.382685 -0.000000 -0.923879
vn 0.382685 -0.000000 -0.923879
vn 0.382685 -0.000000 -0.923879
vn 0.923879 0.000000 0.382684
vn 0.923879 0.000000 0.382684
vn 0.923879 0.000000 0.382684
vn -0.923879 0.000000 0.382684
vn -0.923879 0.000000 0.382684
vn -0.923879 0.000000 0.382684
vn -0.382685 -0.000000 -0.923879
vn -0.382685 -0.000000 -0.923879
vn -0.382685 -0.000000 -0.923879
vn 0.923879 -0.000000 -0.382684
vn 0.923879 -0.000000 -0.382684
vn 0.923879 -0.000000 -0.382684
vn 0.382685 0.000000 0.923879
vn 0.382685 0.000000 0.923879
vn 0.382685 0.000000 0.923879
vn -0.369395 0.261239 -0.891797
vn 0.378229 0.152130 0.913126
vn 0.382684 -0.000000 -0.923879
vn -0.891797 0.261239 0.369394
vn -0.913126 0.152130 -0.378230
vn 0.923879 -0.000000 -0.382684
vn 0.369395 0.261239 0.891797
vn 0.913126 0.152130 0.378230
vn 0.923880 0.000000 0.382683
vn 0.369394 0.261239 -0.891797
vn 0.378229 0.152130 -0.913126
vn 0.382684 0.000000 0.923879
vn -0.369394 0.261240 0.891797
vn -0.913126 0.152130 0.378230
vn -0.382684 0.000000 0.923879
vn 0.845410 0.403305 -0.350181
vn 0.913126 0.152129 -0.378229
vn -0.923879 0.000000 0.382684
vn -0.378229 0.152130 0.913126
vn -0.891797 0.261239 -0.369394
vn -0.923880 -0.000000 -0.382683
vn 0.891797 0.261239 0.369394
vn -0.378229 0.152130 -0.913126
vn -0.382684 -0.000000 -0.923879
vn -0.382684 0.000000 0.923880
vn 0.891797 0.261239 -0.369394
vn -0.374203 0.209353 0.903407
vn 0.350181 0.403305 0.845410
vn -0.845410 0.403305 0.350181
vn -0.350180 0.403304 -0.845411
vn 0.350181 0.403305 -0.845410
vn 0.845410 0.403305 0.350181
vn -0.350180 0.403305 0.845411
vn -0.845410 0.403305 -0.350181
vn 0.381583 0.075816 -0.921220
vn -0.903406 0.209353 -0.374204
vn 0.903406 0.209354 -0.374204
vn 0.374203 0.209354 0.903406
vn -0.903406 0.209354 0.374204
vn -0.374203 0.209353 -0.903406
vn 0.374203 0.209353 -0.903406
vn 0.903406 0.209354 0.374204
vn 0.382684 0.000000 0.923879
vn 0.921220 0.075816 0.381582
vn -0.381582 0.075816 0.921220
vn -0.921220 0.075815 -0.381582
vn 0.921221 0.075815 -0.381582
vn 0.381582 0.075816 0.921220
vn -0.921220 0.075816 0.381582
vn -0.381582 0.075815 -0.921221
vn 0.839130 0.418382 -0.347587
vn -0.923879 0.000000 0.382684
vn -0.382684 -0.000000 -0.923879
vn 0.382684 -0.000000 -0.923879
vn 0.923879 0.000000 0.382684
vn -0.382684 0.000000 0.923879
vn -0.923879 -0.000000 -0.382684
vn 0.923879 -0.000000 -0.382684
vn 0.890767 -0.265325 0.368968
vn 0.347586 0.418375 0.839134
vn -0.839130 0.418383 0.347587
vn -0.347586 0.418375 -0.839134
vn 0.347597 0.418371 -0.839132
vn 0.839139 0.418372 0.347578
vn -0.347576 0.418375 0.839138
vn -0.839140 0.418370 -0.347579
vn 0.021941 -0.998354 0.052994
vn -0.368971 -0.265325 0.890765
vn -0.890766 -0.265326 -0.368969
vn 0.890764 -0.265329 -0.368972
vn 0.368971 -0.265325 0.890765
vn -0.890767 -0.265325 0.368968
vn -0.368971 -0.265325 -0.890765
vn 0.368971 -0.265325 -0.890765
vn 0.923880 -0.000000 -0.382684
vn -0.021957 -0.998353 0.052994
vn -0.052984 -0.998354 -0.021950
vn 0.021957 -0.998353 -0.052994
vn 0.052984 -0.998354 0.021951
vn -0.052982 -0.998354 0.021951
vn -0.021941 -0.998354 -0.052993
vn 0.052982 -0.998354 -0.021951
vn -0.229008 0.968792 -0.094855
vn 0.382683 0.000000 0.923880
vn -0.923879 0.000000 0.382684
vn -0.382683 -0.000000 -0.923880
vn 0.382683 -0.000000 -0.923880
vn 0.923880 0.000000 0.382683
vn -0.382683 0.000000 0.923880
vn -0.923880 -0.000000 -0.382684
vn -0.382685 0.000000 0.923879
vn 0.228991 0.968796 -0.094856
vn 0.094856 0.968794 0.229000
vn -0.228991 0.968796 0.094855
vn -0.094856 0.968794 -0.229000
vn 0.094856 0.968794 -0.229001
vn 0.228991 0.968796 0.094855
vn -0.094856 0.968794 0.229001
vn 0.303344 -0.944560 0.125650
vn 0.382684 -0.000000 -0.923880
vn 0.923879 -0.000000 -0.382684
vn -0.923879 0.000000 0.382684
vn -0.382684 -0.000000 -0.923880
vn 0.923880 0.000000 0.382683
vn -0.923880 -0.000000 -0.382683
vn 0.382684 0.000000 0.923880
vn 0.000000 -1.000000 0.000000
vn -0.000000 -1.000000 0.000000
vn -0.000000 -1.000000 0.000000
vn 0.000000 -1.000000 0.000000
vn -0.000000 -1.000000 0.000000
vn 0.125649 -0.944561 -0.303344
vn -0.125649 -0.944561 -0.303344
vn -0.303344 -0.944560 0.125650
vn 0.125649 -0.944561 0.303344
vn 0.303344 -0.944561 -0.125649
vn -0.303344 -0.944561 -0.125649
vn -0.125649 -0.944560 0.303344
vn 0.353570 -0.382585 -0.853591
vn -0.923879 -0.000000 -0.382684
vn 0.382685 -0.000000 -0.923879
vn 0.923879 0.000000 0.382684
vn -0.923879 0.000000 0.382684
vn -0.382685 -0.000000 -0.923879
vn 0.923879 -0.000000 -0.382684
vn 0.382685 0.000000 0.923879
vn -0.382685 0.000000 0.923879
vn 0.853591 -0.382585 0.353570
vn -0.853591 -0.382585 0.353569
vn -0.353570 -0.382585 -0.853591
vn 0.853591 -0.382585 -0.353569
vn 0.353570 -0.382585 0.853591
vn -0.353570 -0.382585 0.853591
vn -0.853591 -0.382585 -0.353569
vn -0.000000 1.000000 -0.000000
vn 0.000000 1.000000 -0.000000
vn 0.000000 1.000000 -0.000000
vn 0.000000 1.000000 -0.000000
vn 0.000000 1.000000 -0.000000
vn -0.923879 -0.000000 -0.382684
vn 0.382685 -0.000000 -0.923879
vn 0.923879 0.000000 0.382684
vn -0.923879 0.000000 0.382684
vn -0.382685 -0.000000 -0.923879
vn 0.923879 -0.000000 -0.382684
vn 0.382685 0.000000 0.923879
f 1/1/1 2/2/2 3/3/3
f 4/4/4 5/5/5 6/6/6
f 7/7/7 8/8/8 9/9/9
f 10/10/10 11/11/11 12/12/12
f 13/13/13 14/14/14 15/15/15
f 16/16/16 17/17/17 18/18/18
f 19/19/19 20/20/20 21/21/21
f 22/22/22 23/23/23 24/24/24
f 25/25/25 26/26/26 27/27/27
f 28/28/28 29/29/29 30/30/30
f 31/31/31 32/32/32 33/33/33
f 34/34/34 35/35/35 36/36/36
f 37/37/37 38/38/38 39/39/39
f 40/40/40 41/41/41 42/42/42
f 43/43/43 44/44/44 45/45/45
f 46/46/46 47/47/47 48/48/48
f 49/49/49 50/50/50 51/51/51
f 52/52/52 53/53/53 54/54/54
f 55/55/55 56/56/56 57/57/57
f 58/58/58 59/59/59 60/60/60
f 61/61/61 62/62/62 63/63/63
f 64/64/64 65/65/65 66/66/66
f 67/67/67 68/68/68 69/69/69
f 70/70/70 71/71/71 72/72/72
f 44/44/44 73/73/73 45/45/45
f 74/74/74 75/75/75 76/76/76
f 77/77/77 78/78/78 79/79/79
f 80/80/80 81/81/81 82/82/82
f 83/83/83 84/84/84 85/85/85
f 86/86/86 87/87/87 88/88/88
f 89/89/89 90/90/90 91/91/91
f 92/92/92 93/93/93 94/94/94
f 95/95/95 96/96/96 97/97/97
f 98/98/98 99/99/99 100/100/100
f 101/101/101 102/102/102 103/103/103
f 104/104/104 105/105/105 106/106/106
f 107/107/107 108/108/108 109/109/109
f 110/110/110 111/111/111 112/112/112
f 113/113/113 114/114/114 115/115/115
f 116/116/116 117/117/117 118/118/118
f 119/119/119 120/120/120 121/121/121
f 122/122/122 123/123/123 124/124/124
f 125/125/125 126/126/126 127/127/127
f 128/128/128 129/129/129 130/130/130
f 131/131/131 132/132/132 133/133/133
f 134/134/134 135/135/135 136/136/136
f 137/137/137 138/138/138 139/139/139
f 140/140/140 141/141/141 142/142/142
f 143/143/143 144/144/144 145/145/145
f 146/146/146 147/147/147 148/148/148
f 149/149/149 150/150/150 151/151/151
f 152/152/152 153/153/153 154/154/154
f 155/155/155 156/156/156 157/157/157
f 158/158/158 159/159/159 160/160/160
f 161/161/161 162/162/162 163/163/163
f 164/164/164 165/165/165 166/166/166
f 167/167/167 168/168/168 169/169/169
f 170/170/170 171/171/171 172/172/172
f 173/173/173 174/174/174 175/175/175
f 176/176/176 177/177/177 178/178/178
f 179/179/179 180/180/180 181/181/181
f 182/182/182 183/183/183 184/184/184
f 185/185/185 186/186/186 187/187/187
f 188/188/188 189/189/189 190/190/190
f 191/191/191 192/192/192 193/193/193
f 194/194/194 195/195/195 196/196/196
f 197/197/197 198/198/198 199/199/199
f 200/200/200 201/201/201 202/202/202
f 203/203/203 204/204/204 205/205/205
f 206/206/206 207/207/207 208/208/208
f 209/209/209 210/210/210 211/211/211
f 212/212/212 213/213/213 214/214/214
f 215/215/215 216/216/216 217/217/217
f 218/218/218 219/219/219 220/220/220
f 221/221/221 222/222/222 223/223/223
f 224/224/224 225/225/225 226/226/226
f 227/227/227 228/228/228 229/229/229
f 230/230/230 231/231/231 232/232/232
f 233/233/233 234/234/234 235/235/235
f 236/236/236 237/237/237 238/238/238
f 239/239/239 240/240/240 241/241/241
f 242/242/242 243/243/243 244/244/244
f 245/245/245 246/246/246 247/247/247
f 248/248/248 249/249/249 250/250/250
f 251/251/251 252/252/252 253/253/253
f 254/254/254 255/255/255 256/256/256
f 257/257/257 258/258/258 259/259/259
f 260/260/260 261/261/261 262/262/262
f 263/263/263 264/264/264 265/265/265
f 266/266/266 267/267/267 268/268/268
f 269/269/269 270/270/270 271/271/271
f 272/272/272 273/273/273 274/274/274
f 275/275/275 276/276/276 277/277/277
f 278/278/278 279/279/279 280/280/280
f 281/281/281 282/282/282 283/283/283
f 284/284/284 285/285/285 286/286/286
f 287/287/287 288/288/288 289/289/289
f 290/290/290 291/291/291 292/292/292
f 293/293/293 294/294/294 295/295/295
f 8/8/8 296/296/296 9/9/9
f 17/17/17 297/297/297 18/18/18
f 53/53/53 298/298/298 54/54/54
f 71/71/71 299/299/299 72/72/72
f 26/26/26 300/300/300 27/27/27
f 62/62/62 301/301/301 63/63/63
f 35/35/35 302/302/302 36/36/36
f 303/303/303 304/304/304 305/305/305
f 306/306/306 307/307/307 308/308/308
f 309/309/309 310/310/310 311/311/311
f 312/312/312 313/313/313 314/314/314
f 315/315/315 316/316/316 317/317/317
f 318/318/318 319/319/319 320/320/320
f 321/321/321 322/322/322 323/323/323
f 324/324/324 325/325/325 326/326/326
f 327/327/327 328/328/328 329/329/329
f 330/330/330 331/331/331 332/332/332
f 333/333/333 334/334/334 335/335/335
f 336/336/336 337/337/337 338/338/338
f 339/339/339 340/340/340 341/341/341
f 342/342/342 343/343/343 344/344/344
f 345/345/345 346/346/346 347/347/347
f 348/348/348 349/349/349 350/350/350
f 351/351/351 352/352/352 353/353/353
f 354/354/354 355/355/355 356/356/356
f 357/357/357 358/358/358 359/359/359
f 360/360/360 361/361/361 362/362/362
f 363/363/363 364/364/364 365/365/365
f 366/366/366 367/367/367 368/368/368
f 369/369/369 370/370/370 371/371/371
f 372/372/372 373/373/373 374/374/374
f 375/375/375 376/376/376 377/377/377
f 378/378/378 379/379/379 380/380/380
f 381/381/381 382/382/382 383/383/383
f 384/384/384 385/385/385 386/386/386
f 387/387/387 388/388/388 389/389/389
f 390/390/390 391/391/391 392/392/392
f 393/393/393 394/394/394 395/395/395
f 396/396/396 397/397/397 398/398/398
f 1/1/1 399/399/399 2/2/2
f 4/4/4 400/400/400 5/5/5
f 7/7/7 401/401/401 8/8/8
f 10/10/10 402/402/402 11/11/11
f 13/13/13 403/403/403 14/14/14
f 16/16/16 404/404/404 17/17/17
f 19/19/19 405/405/405 20/20/20
f 22/22/22 406/406/406 23/23/23
f 25/25/25 407/407/407 26/26/26
f 28/28/28 408/408/408 29/29/29
f 31/31/31 409/409/409 32/32/32
f 34/34/34 410/410/410 35/35/35
f 37/37/37 411/411/411 38/38/38
f 40/40/40 412/412/412 41/41/41
f 43/43/43 413/413/413 44/44/44
f 46/46/46 414/414/414 47/47/47
f 49/49/49 415/415/415 50/50/50
f 52/52/52 416/416/416 53/53/53
f 55/55/55 417/417/417 56/56/56
f 58/58/58 418/418/418 59/59/59
f 61/61/61 419/419/419 62/62/62
f 64/64/64 420/420/420 65/65/65
f 67/67/67 421/421/421 68/68/68
f 70/70/70 422/422/422 71/71/71
f 44/44/44 423/423/423 73/73/73
f 74/74/74 424/424/424 75/75/75
f 77/77/77 425/425/425 78/78/78
f 80/80/80 426/426/426 81/81/81
f 83/83/83 427/427/427 84/84/84
f 86/86/86 428/428/428 87/87/87
f 89/89/89 429/429/429 90/90/90
f 92/92/92 430/430/430 93/93/93
f 95/95/95 431/431/431 96/96/96
f 98/98/98 432/432/432 99/99/99
f 101/101/101 433/433/433 102/102/102
f 104/104/104 434/434/434 105/105/105
f 107/107/107 435/435/435 108/108/108
f 110/110/110 436/436/436 111/111/111
f 113/113/113 437/437/437 114/114/114
f 116/116/116 438/438/438 117/117/117
f 119/119/119 439/439/439 120/120/120
f 122/122/122 440/440/440 123/123/123
f 125/125/125 441/441/441 126/126/126
f 128/128/128 442/442/442 129/129/129
f 131/131/131 443/443/443 132/132/132
f 134/134/134 444/444/444 135/135/135
f 137/137/137 445/445/445 138/138/138
f 140/140/140 446/446/446 141/141/141
f 143/143/143 447/447/447 144/144/144
f 146/146/146 448/448/448 147/147/147
f 149/149/149 449/449/449 150/150/150
f 152/152/152 450/450/450 153/153/153
f 155/155/155 451/451/451 156/156/156
f 158/158/158 452/452/452 159/159/159
f 161/161/161 453/453/453 162/162/162
f 164/164/164 454/454/454 165/165/165
f 167/167/167 455/455/455 168/168/168
f 170/170/170 456/456/456 171/171/171
f 173/173/173 457/457/457 174/174/174
f 176/176/176 458/458/458 177/177/177
f 179/179/179 459/459/459 180/180/180
f 182/182/182 460/460/460 183/183/183
f 185/185/185 461/461/461 186/186/186
f 188/188/188 462/462/462 189/189/189
f 191/191/191 463/463/463 192/192/192
f 194/194/194 464/464/464 195/195/195
f 197/197/197 465/465/465 198/198/198
f 200/200/200 466/466/466 201/201/201
f 203/203/203 467/467/467 204/204/204
f 206/206/206 468/468/468 207/207/207
f 209/209/209 469/469/469 210/210/210
f 212/212/212 470/470/470 213/213/213
f 215/215/215 471/471/471 216/216/216
f 218/218/218 472/472/472 219/219/219
f 221/221/221 473/473/473 222/222/222
f 224/224/224 474/474/474 225/225/225
f 227/227/227 475/475/475 228/228/228
f 230/230/230 476/476/476 231/231/231
f 233/233/233 477/477/477 234/234/234
f 236/236/236 478/478/478 237/237/237
f 239/239/239 479/479/479 240/240/240
f 242/242/242 480/480/480 243/243/243
f 245/245/245 481/481/481 246/246/246
f 248/248/248 482/482/482 249/249/249
f 251/251/251 483/483/483 252/252/252
f 254/254/254 484/484/484 255/255/255
f 257/257/257 485/485/485 258/258/258
f 260/260/260 486/486/486 261/261/261
f 263/263/263 487/487/487 264/264/264
f 266/266/266 488/488/488 267/267/267
f 269/269/269 489/489/489 270/270/270
f 272/272/272 490/490/490 273/273/273
f 275/275/275 491/491/491 276/276/276
f 278/278/278 492/492/492 279/279/279
f 281/281/281 493/493/493 282/282/282
f 284/284/284 494/494/494 285/285/285
f 287/287/287 495/495/495 288/288/288
f 290/290/290 496/496/496 291/291/291
f 293/293/293 497/497/497 294/294/294
f 8/8/8 498/498/498 296/296/296
f 17/17/17 499/499/499 297/297/297
f 53/53/53 500/500/500 298/298/298
f 71/71/71 501/501/501 299/299/299
f 26/26/26 502/502/502 300/300/300
f 62/62/62 503/503/503 301/301/301
f 35/35/35 504/504/504 302/302/302
f 305/305/305 505/505/505 506/506/506
f 505/505/505 507/507/507 506/506/506
f 507/507/507 508/508/508 506/506/506
f 506/506/506 509/509/509 305/305/305
f 509/509/509 303/303/303 305/305/305
f 306/306/306 510/510/510 307/307/307
f 309/309/309 511/511/511 310/310/310
f 312/312/312 512/512/512 313/313/313
f 315/315/315 513/513/513 316/316/316
f 318/318/318 514/514/514 319/319/319
f 321/321/321 515/515/515 322/322/322
f 324/324/324 516/516/516 325/325/325
f 327/327/327 517/517/517 328/328/328
f 330/330/330 518/518/518 331/331/331
f 333/333/333 519/519/519 334/334/334
f 336/336/336 520/520/520 337/337/337
f 339/339/339 521/521/521 340/340/340
f 342/342/342 522/522/522 343/343/343
f 345/345/345 523/523/523 346/346/346
f 348/348/348 524/524/524 349/349/349
f 351/351/351 525/525/525 352/352/352
f 354/354/354 526/526/526 355/355/355
f 357/357/357 527/527/527 358/358/358
f 360/360/360 528/528/528 361/361/361
f 363/363/363 529/529/529 364/364/364
f 366/366/366 530/530/530 367/367/367
f 369/369/369 531/531/531 370/370/370
f 372/372/372 532/532/532 373/373/373
f 377/377/377 533/533/533 534/534/534
f 534/534/534 535/535/535 377/377/377
f 535/535/535 536/536/536 377/377/377
f 536/536/536 537/537/537 377/377/377
f 537/537/537 375/375/375 377/377/377
f 378/378/378 538/538/538 379/379/379
f 381/381/381 539/539/539 382/382/382
f 384/384/384 540/540/540 385/385/385
f 387/387/387 541/541/541 388/388/388
f 390/390/390 542/542/542 391/391/391
f 393/393/393 543/543/543 394/394/394
f 396/396/396 544/544/544 397/397/397
