# Cube -- imported by tools/import_asset_pack.py from Butelka.fbx
o __pending__
v -0.000000 0.108900 -0.051197
v 0.034306 -0.012774 -0.033874
v -0.000000 -0.012774 -0.048084
v 0.036507 0.108900 -0.036076
v 0.048516 -0.012774 0.000432
v 0.034306 -0.012774 -0.033874
v 0.051629 0.108900 0.000432
v 0.034306 -0.012774 0.034738
v 0.048516 -0.012774 0.000432
v 0.034306 -0.012774 0.034738
v -0.000000 0.108900 0.052061
v -0.000000 -0.012774 0.048947
v -0.000000 -0.012774 0.048947
v -0.036507 0.108900 0.036939
v -0.034306 -0.012774 0.034738
v -0.036507 0.108900 0.036939
v -0.048516 -0.012774 0.000432
v -0.034306 -0.012774 0.034738
v 0.036507 0.108900 0.036939
v 0.000000 0.139119 0.052061
v -0.000000 0.108900 0.052061
v -0.051629 0.108900 0.000432
v -0.034306 -0.012774 -0.033874
v -0.048516 -0.012774 0.000432
v -0.036507 0.108900 -0.036076
v -0.000000 -0.012774 -0.048084
v -0.034306 -0.012774 -0.033874
v 0.036507 -0.029333 0.036939
v 0.052982 -0.035578 0.000432
v 0.051629 -0.029333 0.000432
v 0.036507 0.139118 0.036939
v 0.041657 0.161566 0.000432
v 0.029456 0.161566 0.029888
v -0.051629 0.108900 0.000432
v -0.036507 0.139118 -0.036076
v -0.036507 0.108900 -0.036076
v 0.036507 0.108900 -0.036076
v 0.051629 0.139118 0.000432
v 0.051629 0.108900 0.000432
v -0.000000 0.108900 0.052061
v -0.036507 0.139118 0.036939
v -0.036507 0.108900 0.036939
v -0.036507 0.108900 -0.036076
v 0.000000 0.139118 -0.051197
v -0.000000 0.108900 -0.051197
v -0.000000 0.108900 -0.051197
v 0.036507 0.139118 -0.036076
v 0.036507 0.108900 -0.036076
v 0.051629 0.108900 0.000432
v 0.036507 0.139118 0.036939
v 0.036507 0.108900 0.036939
v -0.036507 0.108900 0.036939
v -0.051629 0.139118 0.000432
v -0.051629 0.108900 0.000432
v -0.041657 0.161566 0.000432
v -0.019528 0.178834 -0.019096
v -0.029456 0.161566 -0.029024
v 0.000000 0.139118 -0.051197
v 0.029456 0.161566 -0.029024
v 0.036507 0.139118 -0.036076
v -0.036507 0.139118 -0.036076
v -0.000000 0.161566 -0.041225
v 0.000000 0.139118 -0.051197
v -0.036507 0.139118 0.036939
v -0.041657 0.161566 0.000432
v -0.051629 0.139118 0.000432
v 0.036507 0.139118 0.036939
v -0.000000 0.161566 0.042089
v 0.000000 0.139119 0.052061
v 0.036507 0.139118 -0.036076
v 0.041657 0.161566 0.000432
v 0.051629 0.139118 0.000432
v -0.051629 0.139118 0.000432
v -0.029456 0.161566 -0.029024
v -0.036507 0.139118 -0.036076
v 0.000000 0.139119 0.052061
v -0.029456 0.161566 0.029888
v -0.036507 0.139118 0.036939
v 0.019528 0.178834 0.019959
v -0.000000 0.204815 0.024902
v -0.000000 0.178834 0.028048
v -0.000000 0.161566 0.042089
v -0.019528 0.178834 0.019959
v -0.029456 0.161566 0.029888
v 0.041657 0.161566 0.000432
v 0.019528 0.178834 0.019959
v 0.029456 0.161566 0.029888
v -0.000000 0.161566 -0.041225
v 0.019528 0.178834 -0.019096
v 0.029456 0.161566 -0.029024
v -0.000000 0.161566 -0.041225
v -0.019528 0.178834 -0.019096
v -0.000000 0.178834 -0.027185
v -0.029456 0.161566 0.029888
v -0.027616 0.178834 0.000432
v -0.041657 0.161566 0.000432
v 0.029456 0.161566 0.029888
v -0.000000 0.178834 0.028048
v -0.000000 0.161566 0.042089
v 0.041657 0.161566 0.000432
v 0.019528 0.178834 -0.019096
v 0.027616 0.178834 0.000432
v -0.017303 0.204815 -0.016872
v -0.000000 0.204815 -0.026085
v -0.000000 0.204815 -0.024039
v 0.019528 0.178834 -0.019096
v 0.024470 0.204815 0.000432
v 0.027616 0.178834 0.000432
v -0.027616 0.178834 0.000432
v -0.017303 0.204815 -0.016872
v -0.019528 0.178834 -0.019096
v -0.000000 0.178834 0.028048
v -0.017303 0.204815 0.017735
v -0.019528 0.178834 0.019959
v 0.027616 0.178834 0.000432
v 0.017303 0.204815 0.017735
v 0.019528 0.178834 0.019959
v -0.000000 0.178834 -0.027185
v 0.017303 0.204815 -0.016872
v 0.019528 0.178834 -0.019096
v -0.019528 0.178834 -0.019096
v -0.000000 0.204815 -0.024039
v -0.000000 0.178834 -0.027185
v -0.019528 0.178834 0.019959
v -0.024470 0.204815 0.000432
v -0.027616 0.178834 0.000432
v -0.000000 0.204815 0.026948
v -0.018750 0.210935 0.019182
v -0.018750 0.204815 0.019182
v -0.017303 0.204815 0.017735
v -0.026516 0.204815 0.000432
v -0.024470 0.204815 0.000432
v 0.017303 0.204815 0.017735
v -0.000000 0.204815 0.026948
v -0.000000 0.204815 0.024902
v 0.024470 0.204815 0.000432
v 0.018750 0.204815 -0.018318
v 0.026516 0.204815 0.000432
v -0.018750 0.204815 -0.018318
v -0.018750 0.204815 0.019182
v 0.018750 0.204815 0.019182
v 0.017303 0.204815 -0.016872
v -0.026516 0.210935 0.000432
v -0.017479 0.210935 -0.017047
v -0.018750 0.210935 -0.018318
v 0.026516 0.204815 0.000432
v 0.018750 0.210935 0.019182
v 0.018750 0.204815 0.019182
v 0.018750 0.204815 -0.018318
v -0.000000 0.210935 -0.026085
v 0.018750 0.210935 -0.018318
v -0.000000 0.204815 -0.026085
v -0.018750 0.210935 -0.018318
v -0.000000 0.210935 -0.026085
v -0.018750 0.204815 0.019182
v -0.026516 0.210935 0.000432
v -0.026516 0.204815 0.000432
v 0.018750 0.204815 0.019182
v -0.000000 0.210935 0.026948
v -0.000000 0.204815 0.026948
v 0.026516 0.204815 0.000432
v 0.018750 0.210935 -0.018318
v 0.026516 0.210935 0.000432
v -0.026516 0.204815 0.000432
v -0.018750 0.210935 -0.018318
v -0.018750 0.204815 -0.018318
v 0.017479 0.210935 -0.017047
v 0.024719 0.216290 0.000432
v 0.024719 0.210935 0.000432
v -0.018750 0.210935 0.019182
v -0.000000 0.210935 0.025151
v -0.017479 0.210935 0.017911
v 0.018750 0.210935 0.019182
v 0.024719 0.210935 0.000432
v 0.017479 0.210935 0.017911
v 0.018750 0.210935 -0.018318
v -0.000000 0.210935 -0.024287
v 0.017479 0.210935 -0.017047
v -0.000000 0.210935 -0.026085
v -0.024719 0.210935 0.000432
v -0.000000 0.210935 0.026948
v 0.026516 0.210935 0.000432
v -0.017479 0.230826 -0.017047
v -0.027704 0.231680 0.000432
v -0.024719 0.230826 0.000432
v -0.024719 0.210935 0.000432
v -0.017479 0.216290 -0.017047
v -0.017479 0.210935 -0.017047
v -0.000000 0.210935 0.025151
v -0.017479 0.216290 0.017911
v -0.017479 0.210935 0.017911
v 0.024719 0.210935 0.000432
v 0.017479 0.216290 0.017911
v 0.017479 0.210935 0.017911
v 0.017479 0.210935 -0.017047
v -0.000000 0.216290 -0.024287
v 0.017479 0.216290 -0.017047
v -0.017479 0.210935 -0.017047
v -0.000000 0.216290 -0.024287
v -0.000000 0.210935 -0.024287
v -0.017479 0.210935 0.017911
v -0.024719 0.216290 0.000432
v -0.024719 0.210935 0.000432
v 0.017479 0.210935 0.017911
v -0.000000 0.216290 0.025151
v -0.000000 0.210935 0.025151
v 0.024719 0.220880 0.000432
v 0.017479 0.227000 0.017911
v 0.017479 0.220880 0.017911
v -0.000000 0.216290 -0.024287
v 0.019590 0.215389 -0.019158
v 0.017479 0.216290 -0.017047
v -0.024719 0.230826 0.000432
v -0.019590 0.231680 0.020021
v -0.017479 0.230826 0.017911
v -0.017479 0.227000 -0.017047
v 0.000000 0.227393 -0.027273
v 0.000000 0.227000 -0.024287
v -0.017479 0.230826 0.017911
v -0.000000 0.231680 0.028136
v -0.000000 0.230826 0.025151
v -0.024719 0.227000 0.000432
v -0.019590 0.227393 -0.019158
v -0.017479 0.227000 -0.017047
v 0.017479 0.230826 0.017911
v -0.000000 0.231680 0.028136
v 0.019590 0.231680 0.020021
v -0.024719 0.227000 0.000432
v -0.019590 0.227393 0.020021
v -0.027704 0.227393 0.000432
v 0.024719 0.230826 0.000432
v 0.019590 0.231680 0.020021
v 0.027704 0.231680 0.000432
v 0.000000 0.220880 -0.024287
v 0.017479 0.227000 -0.017047
v 0.017479 0.220880 -0.017047
v -0.017479 0.220880 -0.017047
v 0.000000 0.227000 -0.024287
v 0.000000 0.220880 -0.024287
v -0.017479 0.220880 0.017911
v -0.024719 0.227000 0.000432
v -0.024719 0.220880 0.000432
v 0.017479 0.220880 0.017911
v 0.000000 0.227000 0.025151
v 0.000000 0.220880 0.025151
v 0.017479 0.220880 -0.017047
v 0.024719 0.227000 0.000432
v 0.024719 0.220880 0.000432
v -0.024719 0.220880 0.000432
v -0.017479 0.227000 -0.017047
v -0.017479 0.220880 -0.017047
v 0.000000 0.220880 0.025151
v -0.017479 0.227000 0.017911
v -0.017479 0.220880 0.017911
v 0.017479 0.230826 0.017911
v 0.000000 0.236181 0.025151
v -0.000000 0.230826 0.025151
v 0.000000 0.220880 -0.024287
v -0.019590 0.220534 -0.019158
v -0.017479 0.220880 -0.017047
v 0.000000 0.227000 0.025151
v -0.019590 0.227393 0.020021
v -0.017479 0.227000 0.017911
v 0.024719 0.230826 0.000432
v 0.019590 0.231680 -0.019158
v 0.017479 0.230826 -0.017047
v -0.017479 0.220880 -0.017047
v -0.027704 0.220534 0.000432
v -0.024719 0.220880 0.000432
v 0.017479 0.227000 0.017911
v 0.000000 0.227393 0.028136
v 0.000000 0.227000 0.025151
v 0.017479 0.230826 -0.017047
v -0.000000 0.231680 -0.027273
v -0.000000 0.230826 -0.024287
v -0.024719 0.220880 0.000432
v -0.019590 0.220534 0.020021
v -0.017479 0.220880 0.017911
v -0.017479 0.236181 -0.017047
v 0.000000 0.237711 -0.025046
v 0.000000 0.236181 -0.024287
v 0.017479 0.230826 -0.017047
v 0.024719 0.236181 0.000432
v 0.024719 0.230826 0.000432
v -0.024719 0.230826 0.000432
v -0.017479 0.236181 -0.017047
v -0.017479 0.230826 -0.017047
v -0.000000 0.230826 0.025151
v -0.017479 0.236181 0.017911
v -0.017479 0.230826 0.017911
v 0.017479 0.230826 0.017911
v 0.024719 0.236181 0.000432
v 0.017479 0.236181 0.017911
v -0.000000 0.230826 -0.024287
v 0.017479 0.236181 -0.017047
v 0.017479 0.230826 -0.017047
v -0.017479 0.230826 -0.017047
v 0.000000 0.236181 -0.024287
v -0.000000 0.230826 -0.024287
v -0.017479 0.230826 0.017911
v -0.024719 0.236181 0.000432
v -0.024719 0.230826 0.000432
v 0.000000 0.237711 0.025909
v -0.013485 0.237711 0.013916
v -0.018015 0.237711 0.018447
v -0.017479 0.236181 0.017911
v -0.025478 0.237711 0.000432
v -0.024719 0.236181 0.000432
v 0.000000 0.236181 0.025151
v 0.018015 0.237711 0.018447
v 0.000000 0.237711 0.025909
v 0.017479 0.236181 -0.017047
v 0.025478 0.237711 0.000432
v 0.024719 0.236181 0.000432
v -0.024719 0.236181 0.000432
v -0.018015 0.237711 -0.017584
v -0.017479 0.236181 -0.017047
v 0.000000 0.236181 0.025151
v -0.018015 0.237711 0.018447
v -0.017479 0.236181 0.017911
v 0.024719 0.236181 0.000432
v 0.018015 0.237711 0.018447
v 0.017479 0.236181 0.017911
v 0.000000 0.236181 -0.024287
v 0.018015 0.237711 -0.017584
v 0.017479 0.236181 -0.017047
v -0.000000 0.215389 -0.027273
v -0.019590 0.220534 -0.019158
v 0.000000 0.220534 -0.027273
v -0.019590 0.215389 0.020021
v -0.027704 0.220534 0.000432
v -0.027704 0.215389 0.000432
v 0.019590 0.215389 0.020021
v 0.000000 0.220534 0.028136
v -0.000000 0.215389 0.028136
v 0.019590 0.215389 -0.019158
v 0.027704 0.220534 0.000432
v 0.027704 0.215389 0.000432
v -0.027704 0.215389 0.000432
v -0.019590 0.220534 -0.019158
v -0.019590 0.215389 -0.019158
v -0.000000 0.215389 0.028136
v -0.019590 0.220534 0.020021
v -0.019590 0.215389 0.020021
v 0.027704 0.215389 0.000432
v 0.019590 0.220534 0.020021
v 0.019590 0.215389 0.020021
v -0.000000 0.215389 -0.027273
v 0.019590 0.220534 -0.019158
v 0.019590 0.215389 -0.019158
v -0.027704 0.227393 0.000432
v -0.019590 0.231680 -0.019158
v -0.019590 0.227393 -0.019158
v 0.000000 0.227393 0.028136
v -0.019590 0.231680 0.020021
v -0.019590 0.227393 0.020021
v 0.027704 0.227393 0.000432
v 0.019590 0.231680 0.020021
v 0.019590 0.227393 0.020021
v 0.000000 0.227393 -0.027273
v 0.019590 0.231680 -0.019158
v 0.019590 0.227393 -0.019158
v -0.019590 0.227393 -0.019158
v -0.000000 0.231680 -0.027273
v 0.000000 0.227393 -0.027273
v -0.019590 0.227393 0.020021
v -0.027704 0.231680 0.000432
v -0.027704 0.227393 0.000432
v 0.019590 0.227393 0.020021
v -0.000000 0.231680 0.028136
v 0.000000 0.227393 0.028136
v 0.019590 0.227393 -0.019158
v 0.027704 0.231680 0.000432
v 0.027704 0.227393 0.000432
v 0.017479 0.216290 -0.017047
v 0.027704 0.215389 0.000432
v 0.024719 0.216290 0.000432
v -0.000000 0.230826 -0.024287
v -0.019590 0.231680 -0.019158
v -0.017479 0.230826 -0.017047
v 0.024719 0.216290 0.000432
v 0.019590 0.215389 0.020021
v 0.017479 0.216290 0.017911
v 0.017479 0.220880 -0.017047
v 0.000000 0.220534 -0.027273
v 0.000000 0.220880 -0.024287
v 0.017479 0.216290 0.017911
v -0.000000 0.215389 0.028136
v -0.000000 0.216290 0.025151
v 0.017479 0.220880 -0.017047
v 0.027704 0.220534 0.000432
v 0.019590 0.220534 -0.019158
v -0.017479 0.216290 0.017911
v -0.000000 0.215389 0.028136
v -0.019590 0.215389 0.020021
v 0.017479 0.220880 0.017911
v 0.027704 0.220534 0.000432
v 0.024719 0.220880 0.000432
v -0.017479 0.216290 0.017911
v -0.027704 0.215389 0.000432
v -0.024719 0.216290 0.000432
v 0.000000 0.227000 -0.024287
v 0.019590 0.227393 -0.019158
v 0.017479 0.227000 -0.017047
v 0.017479 0.220880 0.017911
v 0.000000 0.220534 0.028136
v 0.019590 0.220534 0.020021
v -0.024719 0.216290 0.000432
v -0.019590 0.215389 -0.019158
v -0.017479 0.216290 -0.017047
v 0.017479 0.227000 -0.017047
v 0.027704 0.227393 0.000432
v 0.024719 0.227000 0.000432
v -0.017479 0.220880 0.017911
v 0.000000 0.220534 0.028136
v 0.000000 0.220880 0.025151
v -0.017479 0.216290 -0.017047
v -0.000000 0.215389 -0.027273
v -0.000000 0.216290 -0.024287
v 0.024719 0.227000 0.000432
v 0.019590 0.227393 0.020021
v 0.017479 0.227000 0.017911
v 0.013485 0.237711 -0.013053
v 0.025573 0.163364 0.000432
v 0.019070 0.237711 0.000432
v 0.025478 0.237711 0.000432
v 0.013485 0.237711 0.013916
v 0.018015 0.237711 0.018447
v 0.000000 0.237711 -0.025046
v 0.013485 0.237711 -0.013053
v 0.018015 0.237711 -0.017584
v -0.013485 0.237711 -0.013053
v 0.000000 0.237711 -0.018638
v -0.019070 0.237711 0.000432
v -0.025478 0.237711 0.000432
v 0.000000 0.237711 0.019502
v 0.019070 0.237711 0.000432
v -0.018015 0.237711 -0.017584
v 0.018083 0.163364 0.018514
v 0.000000 0.133985 0.047838
v 0.000000 0.163364 0.026004
v -0.019070 0.237711 0.000432
v -0.018083 0.163364 -0.017651
v -0.013485 0.237711 -0.013053
v 0.000000 0.237711 0.019502
v -0.018083 0.163364 0.018514
v -0.013485 0.237711 0.013916
v 0.019070 0.237711 0.000432
v 0.018083 0.163364 0.018514
v 0.013485 0.237711 0.013916
v 0.000000 0.237711 -0.018638
v 0.018083 0.163364 -0.017651
v 0.013485 0.237711 -0.013053
v -0.013485 0.237711 -0.013053
v 0.000000 0.163364 -0.025141
v 0.000000 0.237711 -0.018638
v -0.013485 0.237711 0.013916
v -0.025573 0.163364 0.000432
v -0.019070 0.237711 0.000432
v 0.013485 0.237711 0.013916
v 0.000000 0.163364 0.026004
v 0.000000 0.237711 0.019502
v -0.033521 0.133985 -0.033090
v 0.000000 -0.026101 -0.046975
v 0.000000 0.133985 -0.046975
v 0.018083 0.163364 -0.017651
v 0.047406 0.133985 0.000432
v 0.025573 0.163364 0.000432
v -0.025573 0.163364 0.000432
v -0.033521 0.133985 -0.033090
v -0.018083 0.163364 -0.017651
v 0.000000 0.163364 0.026004
v -0.033521 0.133985 0.033953
v -0.018083 0.163364 0.018514
v 0.025573 0.163364 0.000432
v 0.033521 0.133985 0.033953
v 0.018083 0.163364 0.018514
v 0.000000 0.163364 -0.025141
v 0.033521 0.133985 -0.033090
v 0.018083 0.163364 -0.017651
v -0.018083 0.163364 -0.017651
v 0.000000 0.133985 -0.046975
v 0.000000 0.163364 -0.025141
v -0.025573 0.163364 0.000432
v -0.033521 0.133985 0.033953
v -0.047406 0.133985 0.000432
v -0.047406 -0.026101 0.000432
v 0.000000 -0.026101 0.047838
v 0.047406 -0.026101 0.000432
v -0.033521 0.133985 0.033953
v -0.047406 -0.026101 0.000432
v -0.047406 0.133985 0.000432
v 0.033521 0.133985 0.033953
v 0.000000 -0.026101 0.047838
v 0.000000 0.133985 0.047838
v 0.033521 0.133985 -0.033090
v 0.047406 -0.026101 0.000432
v 0.047406 0.133985 0.000432
v -0.047406 0.133985 0.000432
v -0.033521 -0.026101 -0.033090
v -0.033521 0.133985 -0.033090
v 0.000000 0.133985 0.047838
v -0.033521 -0.026101 0.033953
v -0.033521 0.133985 0.033953
v 0.047406 0.133985 0.000432
v 0.033521 -0.026101 0.033953
v 0.033521 0.133985 0.033953
v 0.000000 0.133985 -0.046975
v 0.033521 -0.026101 -0.033090
v 0.033521 0.133985 -0.033090
v -0.037464 -0.035578 -0.037032
v -0.043820 -0.035578 0.000432
v -0.052982 -0.035578 0.000432
v -0.051629 -0.029333 0.000432
v -0.037464 -0.035578 0.037896
v -0.036507 -0.029333 0.036939
v -0.000000 -0.029333 0.052061
v 0.037464 -0.035578 0.037896
v 0.036507 -0.029333 0.036939
v -0.051629 -0.029333 0.000432
v -0.037464 -0.035578 -0.037032
v -0.052982 -0.035578 0.000432
v 0.051629 -0.029333 0.000432
v 0.037464 -0.035578 -0.037032
v 0.036507 -0.029333 -0.036075
v -0.036507 -0.029333 0.036939
v -0.000000 -0.035578 0.053414
v -0.000000 -0.029333 0.052061
v -0.000000 -0.029333 -0.051197
v -0.037464 -0.035578 -0.037032
v -0.036507 -0.029333 -0.036075
v 0.036507 -0.029333 -0.036075
v -0.000000 -0.035578 -0.052550
v -0.000000 -0.029333 -0.051197
v -0.043820 -0.035578 0.000432
v -0.022253 -0.028084 0.022684
v -0.030986 -0.035578 0.031417
v -0.037464 -0.035578 0.037896
v -0.000000 -0.035578 0.044252
v -0.000000 -0.035578 0.053414
v 0.052982 -0.035578 0.000432
v 0.030986 -0.035578 0.031417
v 0.043820 -0.035578 0.000432
v 0.037464 -0.035578 -0.037032
v -0.000000 -0.035578 -0.043388
v -0.000000 -0.035578 -0.052550
v -0.030986 -0.035578 -0.030554
v -0.030986 -0.035578 0.031417
v 0.037464 -0.035578 0.037896
v 0.030986 -0.035578 -0.030554
v 0.022253 -0.028084 0.022684
v -0.022253 -0.028084 0.022684
v -0.022253 -0.028084 -0.021821
v -0.000000 -0.035578 0.044252
v 0.022253 -0.028084 0.022684
v 0.030986 -0.035578 0.031417
v 0.030986 -0.035578 -0.030554
v 0.031470 -0.028084 0.000432
v 0.022253 -0.028084 -0.021821
v -0.043820 -0.035578 0.000432
v -0.022253 -0.028084 -0.021821
v -0.031470 -0.028084 0.000432
v -0.000000 -0.035578 0.044252
v -0.022253 -0.028084 0.022684
v -0.000000 -0.028084 0.031902
v 0.030986 -0.035578 0.031417
v 0.031470 -0.028084 0.000432
v 0.043820 -0.035578 0.000432
v -0.000000 -0.035578 -0.043388
v 0.022253 -0.028084 -0.021821
v -0.000000 -0.028084 -0.031038
v -0.000000 -0.035578 -0.043388
v -0.022253 -0.028084 -0.021821
v -0.030986 -0.035578 -0.030554
v -0.000000 0.204304 0.031370
v -0.021877 0.211445 0.022309
v -0.021877 0.204304 0.022309
v 0.030939 0.204304 0.000432
v 0.021877 0.211445 0.022309
v 0.021877 0.204304 0.022309
v 0.021877 0.204304 -0.021445
v -0.000000 0.211445 -0.030507
v 0.021877 0.211445 -0.021445
v -0.000000 0.204304 -0.030507
v -0.021877 0.211445 -0.021445
v -0.000000 0.211445 -0.030507
v -0.021877 0.204304 0.022309
v -0.030939 0.211445 0.000432
v -0.030939 0.204304 0.000432
v 0.021877 0.204304 0.022309
v -0.000000 0.211445 0.031370
v -0.000000 0.204304 0.031370
v 0.030939 0.204304 0.000432
v 0.021877 0.211445 -0.021445
v 0.030939 0.211445 0.000432
v -0.021877 0.204304 -0.021445
v -0.030939 0.211445 0.000432
v -0.021877 0.211445 -0.021445
v 0.030939 0.211445 0.000432
v 0.021877 0.240824 0.022309
v 0.021877 0.240824 -0.021445
v -0.000000 0.240824 -0.030507
v -0.021877 0.211445 0.022309
v -0.030939 0.240824 0.000432
v 0.021877 0.211445 0.022309
v -0.000000 0.240824 0.031370
v 0.030939 0.240824 0.000432
v -0.021877 0.240824 -0.021445
v -0.000000 0.211445 0.031370
v -0.021877 0.240824 0.022309
v -0.030939 0.240824 0.000432
v -0.017277 0.244422 -0.016846
v -0.021877 0.240824 -0.021445
v -0.000000 0.240824 0.031370
v -0.017277 0.244422 0.017709
v -0.021877 0.240824 0.022309
v 0.030939 0.240824 0.000432
v 0.017277 0.244422 0.017709
v 0.021877 0.240824 0.022309
v -0.000000 0.240824 -0.030507
v 0.017277 0.244422 -0.016846
v 0.021877 0.240824 -0.021445
v -0.000000 0.240824 -0.030507
v -0.017277 0.244422 -0.016846
v -0.000000 0.244422 -0.024002
v -0.021877 0.240824 0.022309
v -0.024434 0.244422 0.000432
v -0.030939 0.240824 0.000432
v -0.000000 0.240824 0.031370
v 0.017277 0.244422 0.017709
v -0.000000 0.244422 0.024865
v 0.030939 0.240824 0.000432
v 0.017277 0.244422 -0.016846
v 0.024434 0.244422 0.000432
v -0.000000 0.244422 -0.024002
v -0.024434 0.244422 0.000432
v -0.000000 0.244422 0.024865
v -0.030939 0.204304 0.000432
v -0.019974 0.204304 -0.019542
v -0.028247 0.204304 0.000432
v -0.021877 0.204304 0.022309
v -0.000000 0.204304 0.028679
v -0.000000 0.204304 0.031370
v 0.021877 0.204304 0.022309
v 0.028247 0.204304 0.000432
v 0.030939 0.204304 0.000432
v 0.021877 0.204304 -0.021445
v -0.000000 0.204304 -0.027815
v -0.000000 0.204304 -0.030507
v -0.021877 0.204304 -0.021445
v -0.019974 0.204304 0.020405
v 0.019974 0.204304 0.020405
v 0.019974 0.204304 -0.019542
v -0.000000 0.204304 -0.027815
v -0.019974 0.229922 -0.019542
v -0.019974 0.204304 -0.019542
v -0.028247 0.204304 0.000432
v -0.019974 0.229922 0.020405
v -0.019974 0.204304 0.020405
v -0.000000 0.204304 0.028679
v 0.019974 0.229922 0.020405
v 0.019974 0.204304 0.020405
v 0.028247 0.204304 0.000432
v 0.019974 0.229922 -0.019542
v 0.019974 0.204304 -0.019542
v -0.019974 0.204304 -0.019542
v -0.028247 0.229922 0.000432
v -0.028247 0.204304 0.000432
v -0.019974 0.204304 0.020405
v -0.000000 0.229922 0.028679
v -0.000000 0.204304 0.028679
v 0.019974 0.204304 0.020405
v 0.028247 0.229922 0.000432
v 0.028247 0.204304 0.000432
v 0.019974 0.204304 -0.019542
v -0.000000 0.229922 -0.027815
v -0.000000 0.204304 -0.027815
v -0.000000 0.229922 0.028679
v -0.028247 0.229922 0.000432
v -0.000000 0.229922 -0.027815
v -0.034306 -0.012774 -0.033874
v -0.000000 -0.029333 -0.051197
v -0.036507 -0.029333 -0.036075
v -0.048516 -0.012774 0.000432
v -0.036507 -0.029333 -0.036075
v -0.051629 -0.029333 0.000432
v -0.034306 -0.012774 0.034738
v -0.051629 -0.029333 0.000432
v -0.036507 -0.029333 0.036939
v -0.000000 -0.029333 0.052061
v -0.034306 -0.012774 0.034738
v -0.036507 -0.029333 0.036939
v 0.034306 -0.012774 0.034738
v -0.000000 -0.029333 0.052061
v 0.036507 -0.029333 0.036939
v 0.048516 -0.012774 0.000432
v 0.036507 -0.029333 0.036939
v 0.051629 -0.029333 0.000432
v 0.034306 -0.012774 -0.033874
v 0.051629 -0.029333 0.000432
v 0.036507 -0.029333 -0.036075
v -0.000000 -0.029333 -0.051197
v 0.034306 -0.012774 -0.033874
v 0.036507 -0.029333 -0.036075
v 0.036507 0.108900 -0.036076
v 0.051629 0.108900 0.000432
v 0.036507 0.108900 0.036939
v 0.036507 0.108900 0.036939
v -0.000000 0.108900 0.052061
v -0.051629 0.108900 0.000432
v 0.036507 0.139118 0.036939
v -0.036507 0.108900 -0.036076
v -0.000000 0.108900 -0.051197
v 0.037464 -0.035578 0.037896
v 0.051629 0.139118 0.000432
v -0.051629 0.139118 0.000432
v 0.036507 0.139118 -0.036076
v 0.000000 0.139119 0.052061
v -0.036507 0.139118 -0.036076
v 0.000000 0.139118 -0.051197
v 0.051629 0.139118 0.000432
v -0.036507 0.139118 0.036939
v -0.027616 0.178834 0.000432
v -0.000000 0.161566 -0.041225
v -0.029456 0.161566 -0.029024
v -0.029456 0.161566 0.029888
v 0.029456 0.161566 0.029888
v 0.029456 0.161566 -0.029024
v -0.041657 0.161566 0.000432
v -0.000000 0.161566 0.042089
v 0.017303 0.204815 0.017735
v -0.000000 0.178834 0.028048
v 0.027616 0.178834 0.000432
v -0.000000 0.178834 -0.027185
v -0.029456 0.161566 -0.029024
v -0.019528 0.178834 0.019959
v 0.019528 0.178834 0.019959
v 0.029456 0.161566 -0.029024
v 0.017303 0.204815 -0.016872
v -0.024470 0.204815 0.000432
v -0.000000 0.204815 0.024902
v 0.024470 0.204815 0.000432
v -0.000000 0.204815 -0.024039
v -0.017303 0.204815 -0.016872
v -0.017303 0.204815 0.017735
v -0.000000 0.210935 0.026948
v 0.026516 0.210935 0.000432
v -0.000000 0.204815 -0.026085
v -0.018750 0.204815 -0.018318
v -0.018750 0.210935 0.019182
v 0.018750 0.210935 0.019182
v 0.018750 0.204815 -0.018318
v -0.026516 0.210935 0.000432
v 0.017479 0.216290 -0.017047
v -0.019590 0.231680 -0.019158
v -0.024719 0.216290 0.000432
v -0.000000 0.216290 0.025151
v 0.024719 0.216290 0.000432
v -0.000000 0.210935 -0.024287
v -0.017479 0.216290 -0.017047
v -0.017479 0.216290 0.017911
v 0.017479 0.216290 0.017911
v 0.024719 0.227000 0.000432
v -0.000000 0.215389 -0.027273
v -0.027704 0.231680 0.000432
v -0.019590 0.227393 -0.019158
v -0.019590 0.231680 0.020021
v -0.027704 0.227393 0.000432
v -0.000000 0.230826 0.025151
v -0.017479 0.227000 0.017911
v 0.017479 0.230826 0.017911
v 0.000000 0.227000 -0.024287
v -0.017479 0.227000 -0.017047
v -0.017479 0.227000 0.017911
v 0.017479 0.227000 0.017911
v 0.017479 0.227000 -0.017047
v -0.024719 0.227000 0.000432
v 0.000000 0.227000 0.025151
v 0.017479 0.236181 0.017911
v 0.000000 0.220534 -0.027273
v 0.000000 0.227393 0.028136
v 0.027704 0.231680 0.000432
v -0.019590 0.220534 -0.019158
v 0.019590 0.227393 0.020021
v 0.019590 0.231680 -0.019158
v -0.027704 0.220534 0.000432
v -0.018015 0.237711 -0.017584
v 0.017479 0.236181 -0.017047
v -0.024719 0.236181 0.000432
v 0.000000 0.236181 0.025151
v 0.024719 0.230826 0.000432
v 0.000000 0.236181 -0.024287
v -0.017479 0.236181 -0.017047
v -0.017479 0.236181 0.017911
v -0.018015 0.237711 0.018447
v 0.017479 0.236181 0.017911
v 0.018015 0.237711 -0.017584
v -0.025478 0.237711 0.000432
v 0.000000 0.237711 0.025909
v 0.025478 0.237711 0.000432
v 0.000000 0.237711 -0.025046
v -0.019590 0.215389 -0.019158
v -0.019590 0.220534 0.020021
v 0.019590 0.220534 0.020021
v 0.019590 0.220534 -0.019158
v -0.027704 0.220534 0.000432
v 0.000000 0.220534 0.028136
v 0.027704 0.220534 0.000432
v 0.000000 0.220534 -0.027273
v -0.027704 0.231680 0.000432
v -0.000000 0.231680 0.028136
v 0.027704 0.231680 0.000432
v -0.000000 0.231680 -0.027273
v -0.019590 0.231680 -0.019158
v -0.019590 0.231680 0.020021
v 0.019590 0.231680 0.020021
v 0.019590 0.231680 -0.019158
v 0.019590 0.215389 -0.019158
v -0.000000 0.231680 -0.027273
v 0.027704 0.215389 0.000432
v 0.019590 0.220534 -0.019158
v 0.019590 0.215389 0.020021
v 0.024719 0.220880 0.000432
v -0.000000 0.216290 0.025151
v 0.019590 0.220534 0.020021
v -0.019590 0.215389 0.020021
v 0.000000 0.227393 -0.027273
v 0.000000 0.220880 0.025151
v -0.027704 0.215389 0.000432
v 0.019590 0.227393 -0.019158
v -0.019590 0.220534 0.020021
v -0.019590 0.215389 -0.019158
v 0.027704 0.227393 0.000432
v 0.018083 0.163364 -0.017651
v 0.033521 0.133985 0.033953
v -0.025573 0.163364 0.000432
v 0.000000 0.163364 0.026004
v 0.025573 0.163364 0.000432
v 0.000000 0.163364 -0.025141
v -0.018083 0.163364 -0.017651
v -0.018083 0.163364 0.018514
v 0.018083 0.163364 0.018514
v -0.033521 -0.026101 -0.033090
v 0.033521 0.133985 -0.033090
v -0.047406 0.133985 0.000432
v 0.000000 0.133985 0.047838
v 0.047406 0.133985 0.000432
v 0.000000 0.133985 -0.046975
v -0.033521 0.133985 -0.033090
v -0.018083 0.163364 0.018514
v 0.033521 -0.026101 -0.033090
v 0.000000 -0.026101 -0.046975
v -0.033521 -0.026101 -0.033090
v -0.033521 -0.026101 0.033953
v 0.033521 -0.026101 0.033953
v -0.033521 -0.026101 0.033953
v 0.033521 -0.026101 0.033953
v 0.033521 -0.026101 -0.033090
v -0.047406 -0.026101 0.000432
v 0.000000 -0.026101 0.047838
v 0.047406 -0.026101 0.000432
v 0.000000 -0.026101 -0.046975
v -0.052982 -0.035578 0.000432
v -0.000000 -0.035578 0.053414
v -0.036507 -0.029333 -0.036075
v 0.052982 -0.035578 0.000432
v -0.037464 -0.035578 0.037896
v -0.000000 -0.035578 -0.052550
v 0.037464 -0.035578 -0.037032
v -0.031470 -0.028084 0.000432
v -0.000000 -0.028084 -0.031038
v 0.022253 -0.028084 -0.021821
v 0.031470 -0.028084 0.000432
v -0.000000 -0.028084 0.031902
v -0.031470 -0.028084 0.000432
v -0.000000 -0.028084 0.031902
v 0.043820 -0.035578 0.000432
v -0.030986 -0.035578 -0.030554
v -0.030986 -0.035578 0.031417
v 0.022253 -0.028084 0.022684
v 0.030986 -0.035578 -0.030554
v -0.000000 -0.028084 -0.031038
v -0.000000 0.204304 -0.030507
v -0.021877 0.204304 -0.021445
v 0.021877 0.204304 -0.021445
v -0.030939 0.204304 0.000432
v 0.030939 0.240824 0.000432
v -0.000000 0.240824 -0.030507
v -0.021877 0.240824 -0.021445
v -0.021877 0.240824 0.022309
v 0.021877 0.240824 0.022309
v 0.021877 0.240824 -0.021445
v -0.030939 0.240824 0.000432
v -0.000000 0.240824 0.031370
v -0.024434 0.244422 0.000432
v -0.000000 0.244422 0.024865
v 0.024434 0.244422 0.000432
v -0.000000 0.244422 -0.024002
v -0.021877 0.240824 -0.021445
v -0.017277 0.244422 0.017709
v 0.021877 0.240824 0.022309
v 0.021877 0.240824 -0.021445
v 0.024434 0.244422 0.000432
v 0.017277 0.244422 -0.016846
v -0.017277 0.244422 -0.016846
v -0.017277 0.244422 0.017709
v 0.017277 0.244422 0.017709
v -0.000000 0.229922 -0.027815
v -0.028247 0.229922 0.000432
v -0.000000 0.229922 0.028679
v 0.028247 0.229922 0.000432
v -0.019974 0.229922 -0.019542
v -0.019974 0.229922 0.020405
v 0.019974 0.229922 0.020405
v 0.019974 0.229922 -0.019542
v 0.019974 0.229922 -0.019542
v 0.028247 0.229922 0.000432
v 0.019974 0.229922 0.020405
v -0.019974 0.229922 0.020405
v -0.019974 0.229922 -0.019542
v -0.000000 -0.012774 -0.048084
v -0.034306 -0.012774 -0.033874
v -0.048516 -0.012774 0.000432
v -0.000000 -0.012774 0.048947
v -0.000000 -0.012774 0.048947
v 0.034306 -0.012774 0.034738
v 0.048516 -0.012774 0.000432
v -0.000000 -0.012774 -0.048084
vt 0.677504 0.808053
vt 0.723266 0.578702
vt 0.673605 0.578115
vt 0.602776 0.334157
vt 0.673605 0.103684
vt 0.603383 0.104186
vt 0.677504 0.333622
vt 0.723266 0.104270
vt 0.673605 0.103684
vt 0.752817 0.104186
vt 0.826937 0.333622
vt 0.823038 0.103684
vt 0.823038 0.103684
vt 0.879784 0.334246
vt 0.872699 0.104270
vt 0.752209 0.808588
vt 0.823038 0.578115
vt 0.752817 0.578618
vt 0.752209 0.334157
vt 0.827346 0.390758
vt 0.826937 0.333622
vt 0.826937 0.808053
vt 0.872699 0.578702
vt 0.823038 0.578115
vt 0.602776 0.808588
vt 0.673605 0.578115
vt 0.603383 0.578618
vt 0.728481 0.072879
vt 0.676528 0.060394
vt 0.675633 0.072255
vt 0.730760 0.391382
vt 0.671002 0.433584
vt 0.713642 0.434088
vt 0.826937 0.808053
vt 0.880193 0.865814
vt 0.879784 0.808678
vt 0.602776 0.334157
vt 0.677913 0.390758
vt 0.677504 0.333622
vt 0.826937 0.333622
vt 0.880193 0.391382
vt 0.879784 0.334246
vt 0.602776 0.808588
vt 0.677912 0.865190
vt 0.677504 0.808053
vt 0.677504 0.808053
vt 0.730760 0.865814
vt 0.730351 0.808678
vt 0.677504 0.333622
vt 0.730760 0.391382
vt 0.730351 0.334246
vt 0.752209 0.808588
vt 0.827346 0.865190
vt 0.826937 0.808053
vt 0.124582 0.083722
vt 0.149114 0.033588
vt 0.124582 0.023426
vt 0.677912 0.865190
vt 0.713642 0.908520
vt 0.730760 0.865814
vt 0.603185 0.865724
vt 0.671002 0.908016
vt 0.677912 0.865190
vt 0.752618 0.865724
vt 0.820435 0.908016
vt 0.827346 0.865190
vt 0.752618 0.391293
vt 0.820435 0.433584
vt 0.827346 0.390758
vt 0.603185 0.391293
vt 0.671002 0.433584
vt 0.677913 0.390758
vt 0.827346 0.865190
vt 0.863075 0.908520
vt 0.880193 0.865814
vt 0.827346 0.390758
vt 0.863075 0.434088
vt 0.880193 0.391382
vt 0.770539 0.467057
vt 0.808587 0.516015
vt 0.810511 0.466771
vt 0.966210 0.453276
vt 0.990743 0.403142
vt 0.966210 0.392980
vt 0.990743 0.471791
vt 0.966210 0.521925
vt 0.990743 0.532086
vt 0.990743 0.550601
vt 0.966210 0.600735
vt 0.990743 0.610897
vt 0.671002 0.908016
vt 0.621106 0.941489
vt 0.661078 0.941203
vt 0.760141 0.908447
vt 0.810511 0.941203
vt 0.820435 0.908016
vt 0.760141 0.434016
vt 0.810511 0.466771
vt 0.820435 0.433584
vt 0.671002 0.433584
vt 0.621106 0.467057
vt 0.661078 0.466771
vt 0.357157 0.065361
vt 0.328537 0.088926
vt 0.332112 0.090407
vt 0.621106 0.467057
vt 0.659153 0.516015
vt 0.661078 0.466771
vt 0.810511 0.941203
vt 0.833635 0.990743
vt 0.838779 0.941537
vt 0.810511 0.466771
vt 0.833635 0.516311
vt 0.838779 0.467105
vt 0.661078 0.466771
vt 0.684201 0.516311
vt 0.689346 0.467105
vt 0.661078 0.941203
vt 0.684201 0.990743
vt 0.689346 0.941537
vt 0.621106 0.941489
vt 0.659153 0.990447
vt 0.661078 0.941203
vt 0.770539 0.941489
vt 0.808587 0.990447
vt 0.810511 0.941203
vt 0.940970 0.318731
vt 0.929097 0.345964
vt 0.940669 0.345873
vt 0.417621 0.090407
vt 0.394057 0.061787
vt 0.392576 0.065361
vt 0.392576 0.150871
vt 0.421196 0.127307
vt 0.417621 0.125826
vt 0.357157 0.150871
vt 0.328537 0.127307
vt 0.355676 0.154446
vt 0.355676 0.061787
vt 0.421196 0.088926
vt 0.394057 0.154446
vt 0.332112 0.125826
vt 0.471001 0.154446
vt 0.447002 0.126006
vt 0.443861 0.127307
vt 0.910582 0.234603
vt 0.898708 0.261837
vt 0.910280 0.261746
vt 0.910280 0.345874
vt 0.899010 0.318822
vt 0.898708 0.345964
vt 0.910582 0.318731
vt 0.898708 0.280443
vt 0.899010 0.318822
vt 0.910280 0.112096
vt 0.899010 0.150567
vt 0.910582 0.150476
vt 0.940669 0.280352
vt 0.929398 0.318822
vt 0.940970 0.318731
vt 0.910582 0.234603
vt 0.898708 0.196315
vt 0.899010 0.234694
vt 0.910582 0.150476
vt 0.898708 0.177709
vt 0.910280 0.177618
vt 0.971016 0.200677
vt 0.961171 0.236534
vt 0.971297 0.236455
vt 0.509381 0.154446
vt 0.533380 0.126006
vt 0.508081 0.151305
vt 0.536521 0.088926
vt 0.508080 0.064927
vt 0.533380 0.090227
vt 0.471001 0.061787
vt 0.447002 0.090227
vt 0.472301 0.064927
vt 0.443861 0.088926
vt 0.472301 0.151305
vt 0.536521 0.127307
vt 0.509381 0.061787
vt 0.394831 0.178176
vt 0.356892 0.172961
vt 0.359052 0.178176
vt 0.969892 0.320582
vt 0.959485 0.345964
vt 0.969611 0.345885
vt 0.971297 0.152327
vt 0.960890 0.177709
vt 0.971016 0.177629
vt 0.971297 0.236455
vt 0.960890 0.261837
vt 0.971016 0.261757
vt 0.969590 0.096159
vt 0.959746 0.070936
vt 0.959465 0.096239
vt 0.969590 0.035079
vt 0.959746 0.070936
vt 0.969871 0.070857
vt 0.969611 0.284804
vt 0.959766 0.320662
vt 0.969892 0.320582
vt 0.971016 0.116549
vt 0.961172 0.152406
vt 0.971297 0.152327
vt 0.940950 0.070845
vt 0.929097 0.096239
vt 0.940669 0.096148
vt 0.449077 0.203476
vt 0.443861 0.241416
vt 0.449077 0.239255
vt 0.359052 0.178176
vt 0.328537 0.201316
vt 0.333753 0.203476
vt 0.223945 0.127198
vt 0.193430 0.150337
vt 0.198645 0.152498
vt 0.333753 0.203476
vt 0.328537 0.241415
vt 0.333753 0.239255
vt 0.259724 0.127198
vt 0.221785 0.121982
vt 0.223945 0.127198
vt 0.359052 0.264555
vt 0.328537 0.241415
vt 0.356892 0.269770
vt 0.259724 0.127198
vt 0.290239 0.150337
vt 0.261884 0.121982
vt 0.394831 0.264555
vt 0.356892 0.269770
vt 0.396992 0.269770
vt 0.138531 0.263955
vt 0.126479 0.289254
vt 0.138051 0.289254
vt 0.138531 0.228175
vt 0.126959 0.263955
vt 0.138531 0.263955
vt 0.052338 0.020929
vt 0.040766 0.056708
vt 0.052338 0.056708
vt 0.910280 0.032410
vt 0.898989 0.068279
vt 0.910561 0.068188
vt 0.940669 0.035067
vt 0.929378 0.070936
vt 0.940950 0.070845
vt 0.138051 0.202876
vt 0.126959 0.228175
vt 0.138531 0.228175
vt 0.910561 0.068188
vt 0.898708 0.093581
vt 0.910280 0.093490
vt 0.942094 0.115201
vt 0.932250 0.151058
vt 0.942376 0.150979
vt 0.100851 0.105739
vt 0.077712 0.075223
vt 0.075552 0.080439
vt 0.285024 0.188277
vt 0.290239 0.150337
vt 0.285024 0.152498
vt 0.394831 0.264555
vt 0.425347 0.241416
vt 0.420131 0.239255
vt 0.075552 0.080439
vt 0.037612 0.075223
vt 0.039773 0.080439
vt 0.259724 0.213576
vt 0.290239 0.190437
vt 0.285024 0.188277
vt 0.420131 0.239255
vt 0.425347 0.201316
vt 0.420131 0.203476
vt 0.039773 0.080439
vt 0.009257 0.103578
vt 0.014473 0.105739
vt 0.564336 0.295698
vt 0.561468 0.332026
vt 0.564336 0.331477
vt 0.942094 0.199328
vt 0.932250 0.235186
vt 0.942376 0.235106
vt 0.573981 0.270398
vt 0.564336 0.295698
vt 0.574462 0.295698
vt 0.942376 0.150979
vt 0.931969 0.176361
vt 0.942094 0.176281
vt 0.942094 0.260409
vt 0.932250 0.235186
vt 0.931969 0.260489
vt 0.574462 0.331477
vt 0.563856 0.356776
vt 0.573981 0.356776
vt 0.574462 0.295698
vt 0.564336 0.331477
vt 0.574462 0.331477
vt 0.022251 0.020380
vt 0.012125 0.056159
vt 0.022251 0.056159
vt 0.282459 0.077391
vt 0.251746 0.092272
vt 0.256383 0.103468
vt 0.012125 0.020380
vt 0.009257 0.056708
vt 0.012125 0.056159
vt 0.932250 0.151058
vt 0.929097 0.114754
vt 0.929387 0.151630
vt 0.931969 0.199408
vt 0.929387 0.235758
vt 0.932250 0.235186
vt 0.563856 0.270398
vt 0.561468 0.295148
vt 0.564336 0.295698
vt 0.932250 0.151058
vt 0.929097 0.177709
vt 0.931969 0.176361
vt 0.932250 0.235186
vt 0.929097 0.261837
vt 0.931969 0.260489
vt 0.564336 0.331477
vt 0.560973 0.358102
vt 0.563856 0.356776
vt 0.542458 0.445071
vt 0.532731 0.404971
vt 0.532731 0.445071
vt 0.570700 0.036387
vt 0.560973 0.076487
vt 0.570700 0.076487
vt 0.166773 0.220721
vt 0.157361 0.260896
vt 0.167088 0.260819
vt 0.541920 0.289568
vt 0.532508 0.329744
vt 0.542235 0.329667
vt 0.541920 0.376617
vt 0.532731 0.404971
vt 0.542458 0.404971
vt 0.167088 0.260819
vt 0.157046 0.289254
vt 0.166773 0.289178
vt 0.542235 0.329667
vt 0.532193 0.358102
vt 0.541920 0.358025
vt 0.542458 0.445071
vt 0.532193 0.473426
vt 0.541920 0.473426
vt 0.569079 0.376617
vt 0.561511 0.404971
vt 0.569617 0.404971
vt 0.569394 0.135100
vt 0.560973 0.163522
vt 0.569079 0.163458
vt 0.569394 0.222136
vt 0.560973 0.250558
vt 0.569079 0.250494
vt 0.569617 0.445071
vt 0.560973 0.473426
vt 0.569079 0.473426
vt 0.569617 0.404971
vt 0.561511 0.445071
vt 0.569617 0.445071
vt 0.309080 0.063368
vt 0.300974 0.103468
vt 0.309080 0.103468
vt 0.569079 0.095001
vt 0.561288 0.135164
vt 0.569394 0.135100
vt 0.569079 0.182037
vt 0.561288 0.222199
vt 0.569394 0.222136
vt 0.449077 0.239255
vt 0.472216 0.269770
vt 0.474377 0.264555
vt 0.420131 0.203476
vt 0.396992 0.172961
vt 0.394831 0.178176
vt 0.474377 0.264555
vt 0.512316 0.269770
vt 0.510156 0.264555
vt 0.100851 0.141518
vt 0.106067 0.103578
vt 0.100851 0.105739
vt 0.510156 0.264555
vt 0.540671 0.241415
vt 0.535455 0.239255
vt 0.100851 0.141518
vt 0.077712 0.172033
vt 0.106067 0.143678
vt 0.535455 0.203476
vt 0.540671 0.241415
vt 0.540671 0.201316
vt 0.039773 0.166817
vt 0.077712 0.172033
vt 0.075552 0.166817
vt 0.535455 0.203476
vt 0.512316 0.172961
vt 0.510156 0.178176
vt 0.198645 0.152498
vt 0.193430 0.190437
vt 0.198645 0.188277
vt 0.039773 0.166817
vt 0.009257 0.143678
vt 0.037612 0.172033
vt 0.510156 0.178176
vt 0.472216 0.172961
vt 0.474377 0.178176
vt 0.198645 0.188277
vt 0.221785 0.218792
vt 0.223945 0.213576
vt 0.014473 0.105739
vt 0.009257 0.143678
vt 0.014473 0.141518
vt 0.474377 0.178176
vt 0.443861 0.201316
vt 0.449077 0.203476
vt 0.223945 0.213576
vt 0.261884 0.218792
vt 0.259724 0.213576
vt 0.560819 0.990743
vt 0.528510 0.850382
vt 0.533217 0.990743
vt 0.256383 0.014438
vt 0.271263 0.045152
vt 0.282459 0.040514
vt 0.193430 0.040514
vt 0.224143 0.025634
vt 0.219506 0.014438
vt 0.204625 0.072754
vt 0.204625 0.045152
vt 0.224143 0.092272
vt 0.219506 0.103468
vt 0.271263 0.072754
vt 0.251746 0.025634
vt 0.193430 0.077391
vt 0.429873 0.850382
vt 0.377057 0.795555
vt 0.392858 0.850382
vt 0.125405 0.990372
vt 0.110594 0.850381
vt 0.105887 0.990743
vt 0.397564 0.990743
vt 0.366685 0.849885
vt 0.378046 0.990372
vt 0.533217 0.990743
vt 0.502337 0.849885
vt 0.513699 0.990372
vt 0.078285 0.990743
vt 0.047405 0.849885
vt 0.058767 0.990372
vt 0.105887 0.990743
vt 0.073579 0.850381
vt 0.078285 0.990743
vt 0.310022 0.987858
vt 0.263224 0.851642
vt 0.282571 0.990743
vt 0.425167 0.990743
vt 0.392858 0.850382
vt 0.397564 0.990743
vt 0.126395 0.795555
vt 0.057777 0.492862
vt 0.057777 0.795555
vt 0.565525 0.850382
vt 0.512709 0.795555
vt 0.528510 0.850382
vt 0.263224 0.851642
vt 0.193430 0.802921
vt 0.237142 0.853883
vt 0.392858 0.850382
vt 0.328537 0.794634
vt 0.366685 0.849885
vt 0.528510 0.850382
vt 0.464189 0.794634
vt 0.502337 0.849885
vt 0.073579 0.850381
vt 0.009257 0.794634
vt 0.047405 0.849885
vt 0.110594 0.850381
vt 0.057777 0.795555
vt 0.073579 0.850381
vt 0.263224 0.851642
vt 0.310022 0.791596
vt 0.241780 0.798766
vt 0.057777 0.473426
vt 0.174915 0.424906
vt 0.126395 0.307769
vt 0.310022 0.791596
vt 0.210152 0.497730
vt 0.241780 0.798766
vt 0.445674 0.795555
vt 0.377057 0.492862
vt 0.377057 0.795555
vt 0.581327 0.795555
vt 0.512709 0.492862
vt 0.512709 0.795555
vt 0.174915 0.794634
vt 0.126395 0.492862
vt 0.126395 0.795555
vt 0.377057 0.795555
vt 0.328537 0.491941
vt 0.328537 0.794634
vt 0.512709 0.795555
vt 0.464189 0.491941
vt 0.464189 0.794634
vt 0.057777 0.795555
vt 0.009257 0.491941
vt 0.009257 0.794634
vt 0.513678 0.419200
vt 0.452821 0.457419
vt 0.459451 0.473426
vt 0.825066 0.546686
vt 0.749275 0.535375
vt 0.750339 0.547221
vt 0.825066 0.072255
vt 0.749275 0.060943
vt 0.750339 0.072790
vt 0.825066 0.546686
vt 0.880193 0.535466
vt 0.825961 0.534826
vt 0.675633 0.072255
vt 0.599841 0.060943
vt 0.600906 0.072790
vt 0.877914 0.072879
vt 0.825961 0.060394
vt 0.825066 0.072255
vt 0.675633 0.546686
vt 0.599841 0.535374
vt 0.600906 0.547221
vt 0.728481 0.547311
vt 0.676527 0.534826
vt 0.675633 0.546686
vt 0.452821 0.457419
vt 0.398332 0.435841
vt 0.389394 0.457419
vt 0.382764 0.473426
vt 0.344545 0.412569
vt 0.328537 0.419200
vt 0.382764 0.288285
vt 0.344545 0.349142
vt 0.389394 0.304293
vt 0.459451 0.288285
vt 0.497670 0.349142
vt 0.513678 0.342512
vt 0.497670 0.412569
vt 0.389394 0.457419
vt 0.328537 0.342512
vt 0.452821 0.304293
vt 0.366123 0.358080
vt 0.398332 0.435841
vt 0.476092 0.403631
vt 0.344545 0.412569
vt 0.366123 0.358080
vt 0.344545 0.349142
vt 0.452821 0.304293
vt 0.398332 0.325871
vt 0.443883 0.325871
vt 0.452821 0.457419
vt 0.476092 0.403631
vt 0.443883 0.435841
vt 0.344545 0.412569
vt 0.398332 0.435841
vt 0.366123 0.403631
vt 0.344545 0.349142
vt 0.398332 0.325871
vt 0.389394 0.304293
vt 0.497670 0.349142
vt 0.443883 0.325871
vt 0.476092 0.358080
vt 0.497670 0.349142
vt 0.476092 0.403631
vt 0.497670 0.412569
vt 0.898708 0.756038
vt 0.912811 0.724373
vt 0.899309 0.724373
vt 0.898708 0.851000
vt 0.912811 0.819335
vt 0.899309 0.819335
vt 0.899309 0.914296
vt 0.912211 0.945961
vt 0.912811 0.914296
vt 0.898708 0.945961
vt 0.912211 0.990743
vt 0.912211 0.945961
vt 0.898708 0.705858
vt 0.912210 0.661077
vt 0.898708 0.661077
vt 0.898708 0.800820
vt 0.912210 0.756038
vt 0.898708 0.756038
vt 0.898708 0.851000
vt 0.912211 0.895781
vt 0.912211 0.851000
vt 0.899309 0.629412
vt 0.912210 0.661077
vt 0.912811 0.629412
vt 0.912211 0.851000
vt 0.968362 0.819335
vt 0.968362 0.914296
vt 0.967761 0.945961
vt 0.912210 0.705858
vt 0.967761 0.661077
vt 0.912210 0.800820
vt 0.967761 0.756038
vt 0.967761 0.851000
vt 0.968362 0.629412
vt 0.912210 0.756038
vt 0.968362 0.724373
vt 0.225095 0.363934
vt 0.265169 0.375299
vt 0.269876 0.363934
vt 0.193430 0.440380
vt 0.204795 0.400306
vt 0.193430 0.395599
vt 0.269876 0.472045
vt 0.229803 0.460680
vt 0.225095 0.472045
vt 0.301541 0.395599
vt 0.290176 0.435672
vt 0.301541 0.440380
vt 0.301541 0.395599
vt 0.265169 0.375299
vt 0.290176 0.400307
vt 0.193430 0.395599
vt 0.229803 0.375299
vt 0.225095 0.363934
vt 0.193430 0.440380
vt 0.229803 0.460680
vt 0.204795 0.435672
vt 0.269876 0.472045
vt 0.290176 0.435672
vt 0.265169 0.460680
vt 0.290176 0.400307
vt 0.229803 0.375299
vt 0.204795 0.435672
vt 0.269876 0.237307
vt 0.227043 0.242010
vt 0.267928 0.242010
vt 0.301541 0.268972
vt 0.296839 0.311806
vt 0.301541 0.313754
vt 0.269876 0.345419
vt 0.227043 0.340716
vt 0.225095 0.345419
vt 0.193430 0.313754
vt 0.198132 0.270920
vt 0.193430 0.268972
vt 0.225095 0.237307
vt 0.296839 0.270920
vt 0.267928 0.340716
vt 0.198132 0.311806
vt 0.947147 0.393390
vt 0.898708 0.434275
vt 0.947147 0.434275
vt 0.947147 0.570011
vt 0.898708 0.610897
vt 0.947147 0.610897
vt 0.173021 0.131147
vt 0.124582 0.172033
vt 0.173021 0.172033
vt 0.947147 0.481701
vt 0.898708 0.522586
vt 0.947147 0.522586
vt 0.947696 0.541101
vt 0.898708 0.570011
vt 0.947147 0.570011
vt 0.173569 0.102237
vt 0.124582 0.131147
vt 0.173021 0.131147
vt 0.947696 0.452790
vt 0.898708 0.481701
vt 0.947147 0.481701
vt 0.947696 0.364479
vt 0.898708 0.393390
vt 0.947147 0.393390
vt 0.009257 0.260344
vt 0.079053 0.289254
vt 0.107964 0.219458
vt 0.603383 0.578618
vt 0.675633 0.546686
vt 0.600906 0.547221
vt 0.823038 0.578115
vt 0.877914 0.547311
vt 0.825066 0.546686
vt 0.752817 0.578618
vt 0.825066 0.546686
vt 0.750339 0.547221
vt 0.825066 0.072255
vt 0.872699 0.104270
vt 0.877914 0.072879
vt 0.752817 0.104186
vt 0.825066 0.072255
vt 0.750339 0.072790
vt 0.673605 0.103684
vt 0.728481 0.072879
vt 0.675633 0.072255
vt 0.603383 0.104186
vt 0.675633 0.072255
vt 0.600906 0.072790
vt 0.675633 0.546686
vt 0.723266 0.578702
vt 0.728481 0.547311
vt 0.730351 0.808678
vt 0.677504 0.333622
vt 0.730351 0.334246
vt 0.752209 0.334157
vt 0.826937 0.333622
vt 0.826937 0.808053
vt 0.752618 0.391293
vt 0.879784 0.808678
vt 0.677504 0.808053
vt 0.730760 0.061035
vt 0.677913 0.390758
vt 0.827346 0.865190
vt 0.603185 0.391293
vt 0.827346 0.390758
vt 0.603185 0.865724
vt 0.677912 0.865190
vt 0.677913 0.390758
vt 0.752618 0.865724
vt 0.149114 0.073561
vt 0.671002 0.908016
vt 0.610708 0.908447
vt 0.760141 0.908447
vt 0.760141 0.434016
vt 0.610708 0.434016
vt 0.820435 0.908016
vt 0.820435 0.433584
vt 0.773168 0.516268
vt 0.990743 0.443114
vt 0.966210 0.481952
vt 0.966210 0.560763
vt 0.610708 0.908447
vt 0.770539 0.941489
vt 0.770539 0.467057
vt 0.610708 0.434016
vt 0.623735 0.516268
vt 0.808587 0.990447
vt 0.808587 0.516015
vt 0.659153 0.516015
vt 0.659153 0.990447
vt 0.623735 0.990700
vt 0.773168 0.990700
vt 0.929398 0.318822
vt 0.899010 0.234694
vt 0.910582 0.318731
vt 0.910280 0.280352
vt 0.898708 0.112187
vt 0.929097 0.280442
vt 0.910280 0.196224
vt 0.899010 0.150567
vt 0.960890 0.200756
vt 0.396992 0.172961
vt 0.959766 0.320662
vt 0.961172 0.152406
vt 0.961171 0.236534
vt 0.969871 0.070857
vt 0.959465 0.035158
vt 0.959485 0.284884
vt 0.960890 0.116628
vt 0.929378 0.070936
vt 0.443861 0.201316
vt 0.356892 0.172961
vt 0.221785 0.121982
vt 0.328537 0.201316
vt 0.261884 0.121982
vt 0.333753 0.239255
vt 0.285024 0.152498
vt 0.359052 0.264555
vt 0.126959 0.263955
vt 0.126959 0.228175
vt 0.040766 0.020929
vt 0.898708 0.032501
vt 0.929097 0.035158
vt 0.126479 0.202876
vt 0.898989 0.068279
vt 0.931969 0.115280
vt 0.106067 0.103578
vt 0.290239 0.190437
vt 0.396992 0.269770
vt 0.077712 0.075223
vt 0.261884 0.218792
vt 0.425347 0.241416
vt 0.037612 0.075223
vt 0.561468 0.295148
vt 0.931969 0.199408
vt 0.563856 0.270398
vt 0.932250 0.151058
vt 0.942376 0.235106
vt 0.564336 0.331477
vt 0.564336 0.295698
vt 0.012125 0.020380
vt 0.009257 0.019831
vt 0.931969 0.115280
vt 0.929097 0.198882
vt 0.560973 0.269072
vt 0.929387 0.151630
vt 0.929387 0.235758
vt 0.561468 0.332026
vt 0.542458 0.404971
vt 0.560973 0.036387
vt 0.157046 0.220797
vt 0.532193 0.289645
vt 0.532193 0.376617
vt 0.157361 0.260896
vt 0.532508 0.329744
vt 0.532731 0.445071
vt 0.560973 0.376617
vt 0.561288 0.135164
vt 0.561288 0.222199
vt 0.561511 0.445071
vt 0.561511 0.404971
vt 0.300974 0.063368
vt 0.560973 0.095065
vt 0.560973 0.182101
vt 0.443861 0.241416
vt 0.425347 0.201316
vt 0.472216 0.269770
vt 0.106067 0.143678
vt 0.512316 0.269770
vt 0.075552 0.166817
vt 0.535455 0.239255
vt 0.037612 0.172033
vt 0.540671 0.201316
vt 0.193430 0.150337
vt 0.014473 0.141518
vt 0.512316 0.172961
vt 0.193430 0.190437
vt 0.009257 0.103578
vt 0.472216 0.172961
vt 0.221785 0.218792
vt 0.565525 0.850382
vt 0.445674 0.795555
vt 0.136767 0.849885
vt 0.392858 0.850382
vt 0.528510 0.850382
vt 0.073579 0.850381
vt 0.110594 0.850381
vt 0.300036 0.847774
vt 0.429873 0.850382
vt 0.126395 0.492862
vt 0.581327 0.795555
vt 0.241780 0.798766
vt 0.377057 0.795555
vt 0.512709 0.795555
vt 0.057777 0.795555
vt 0.126395 0.795555
vt 0.300036 0.847774
vt 0.057777 0.307769
vt 0.009257 0.356289
vt 0.009257 0.424906
vt 0.126395 0.473426
vt 0.174915 0.356289
vt 0.278393 0.490560
vt 0.445674 0.492862
vt 0.581327 0.492862
vt 0.174915 0.491941
vt 0.377057 0.492862
vt 0.512709 0.492862
vt 0.057777 0.492862
vt 0.825961 0.534826
vt 0.825961 0.060394
vt 0.877914 0.547311
vt 0.676528 0.060394
vt 0.880193 0.061035
vt 0.676527 0.534826
vt 0.730760 0.535466
vt 0.443883 0.435841
vt 0.476092 0.358080
vt 0.443883 0.325871
vt 0.398332 0.325871
vt 0.366123 0.403631
vt 0.443883 0.435841
vt 0.366123 0.403631
vt 0.389394 0.304293
vt 0.497670 0.412569
vt 0.389394 0.457419
vt 0.366123 0.358080
vt 0.452821 0.304293
vt 0.476092 0.358080
vt 0.898708 0.945961
vt 0.898708 0.990743
vt 0.898708 0.895781
vt 0.898708 0.661077
vt 0.967761 0.851000
vt 0.967761 0.945961
vt 0.967761 0.990743
vt 0.967761 0.705858
vt 0.967761 0.800820
vt 0.967761 0.895781
vt 0.967761 0.661077
vt 0.967761 0.756038
vt 0.229803 0.375299
vt 0.204795 0.435672
vt 0.265169 0.460680
vt 0.290176 0.400307
vt 0.269876 0.363934
vt 0.204795 0.400306
vt 0.225095 0.472045
vt 0.301541 0.440380
vt 0.265169 0.460680
vt 0.290176 0.435672
vt 0.265169 0.375299
vt 0.204795 0.400306
vt 0.229803 0.460680
vt 0.898708 0.393390
vt 0.898708 0.570011
vt 0.124582 0.131147
vt 0.898708 0.481701
vt 0.899257 0.541101
vt 0.125130 0.102237
vt 0.899257 0.452790
vt 0.899257 0.364479
vt 0.079053 0.190548
vt 0.038168 0.190548
vt 0.009257 0.219458
vt 0.038168 0.289254
vt 0.107964 0.260344
vt 0.673605 0.578115
vt 0.872699 0.578702
vt 0.823038 0.578115
vt 0.823038 0.103684
vt 0.823038 0.103684
vt 0.723266 0.104270
vt 0.673605 0.103684
vt 0.673605 0.578115
vn 0.382576 -0.023632 -0.923622
vn 0.382577 -0.023632 -0.923622
vn 0.382577 -0.023632 -0.923622
vn 0.923622 -0.023632 -0.382577
vn 0.923622 -0.023632 -0.382576
vn 0.923622 -0.023632 -0.382576
vn 0.923622 -0.023632 0.382576
vn 0.923622 -0.023632 0.382577
vn 0.923622 -0.023632 0.382577
vn 0.382577 -0.023632 0.923622
vn 0.382577 -0.023632 0.923622
vn 0.382577 -0.023632 0.923622
vn -0.382577 -0.023632 0.923622
vn -0.382577 -0.023632 0.923622
vn -0.382577 -0.023632 0.923622
vn -0.923621 -0.023632 0.382577
vn -0.923622 -0.023632 0.382576
vn -0.923622 -0.023632 0.382576
vn 0.382683 0.000000 0.923880
vn 0.382683 0.000000 0.923880
vn 0.382683 0.000000 0.923880
vn -0.923622 -0.023632 -0.382576
vn -0.923622 -0.023632 -0.382576
vn -0.923622 -0.023632 -0.382576
vn -0.382576 -0.023632 -0.923622
vn -0.382576 -0.023632 -0.923622
vn -0.382576 -0.023632 -0.923622
vn 0.905911 0.196267 0.375240
vn 0.905910 0.196267 0.375241
vn 0.905910 0.196267 0.375241
vn 0.854698 0.379678 0.354027
vn 0.854698 0.379678 0.354028
vn 0.854698 0.379678 0.354027
vn -0.923880 -0.000000 -0.382683
vn -0.923880 -0.000000 -0.382683
vn -0.923880 -0.000000 -0.382683
vn 0.923880 -0.000000 -0.382683
vn 0.923880 -0.000000 -0.382683
vn 0.923880 -0.000000 -0.382683
vn -0.382683 0.000000 0.923880
vn -0.382683 0.000000 0.923880
vn -0.382683 0.000000 0.923880
vn -0.382683 -0.000000 -0.923880
vn -0.382683 -0.000000 -0.923880
vn -0.382683 -0.000000 -0.923880
vn 0.382683 -0.000000 -0.923880
vn 0.382683 -0.000000 -0.923880
vn 0.382683 -0.000000 -0.923880
vn 0.923880 0.000000 0.382683
vn 0.923880 0.000000 0.382683
vn 0.923880 0.000000 0.382683
vn -0.923880 0.000000 0.382683
vn -0.923880 0.000000 0.382683
vn -0.923880 0.000000 0.382683
vn -0.738667 0.600630 -0.305966
vn -0.738667 0.600629 -0.305966
vn -0.738667 0.600629 -0.305966
vn 0.354027 0.379678 -0.854698
vn 0.354027 0.379678 -0.854698
vn 0.354028 0.379677 -0.854698
vn -0.354028 0.379678 -0.854698
vn -0.354027 0.379678 -0.854698
vn -0.354027 0.379678 -0.854698
vn -0.854698 0.379678 0.354028
vn -0.854698 0.379678 0.354028
vn -0.854698 0.379678 0.354028
vn 0.354027 0.379678 0.854698
vn 0.354028 0.379678 0.854698
vn 0.354028 0.379678 0.854698
vn 0.854698 0.379678 -0.354028
vn 0.854698 0.379678 -0.354028
vn 0.854698 0.379678 -0.354028
vn -0.854698 0.379678 -0.354028
vn -0.854698 0.379678 -0.354027
vn -0.854699 0.379678 -0.354027
vn -0.354027 0.379678 0.854698
vn -0.354028 0.379678 0.854698
vn -0.354028 0.379678 0.854698
vn 0.380311 0.111175 0.918152
vn 0.380311 0.111175 0.918152
vn 0.380311 0.111174 0.918152
vn -0.305966 0.600629 0.738667
vn -0.305966 0.600629 0.738667
vn -0.305966 0.600629 0.738667
vn 0.738667 0.600629 0.305966
vn 0.738668 0.600629 0.305966
vn 0.738668 0.600629 0.305966
vn 0.305966 0.600629 -0.738668
vn 0.305966 0.600629 -0.738668
vn 0.305966 0.600629 -0.738668
vn -0.305966 0.600629 -0.738668
vn -0.305966 0.600629 -0.738668
vn -0.305965 0.600629 -0.738668
vn -0.738668 0.600629 0.305966
vn -0.738668 0.600629 0.305966
vn -0.738667 0.600629 0.305966
vn 0.305966 0.600629 0.738667
vn 0.305966 0.600629 0.738667
vn 0.305966 0.600629 0.738667
vn 0.738667 0.600629 -0.305966
vn 0.738667 0.600629 -0.305966
vn 0.738667 0.600630 -0.305966
vn -0.000001 -1.000000 0.000000
vn -0.000002 -1.000000 0.000000
vn -0.000002 -1.000000 0.000000
vn 0.918152 0.111174 -0.380311
vn 0.918152 0.111174 -0.380311
vn 0.918152 0.111174 -0.380311
vn -0.918152 0.111174 -0.380311
vn -0.918152 0.111174 -0.380311
vn -0.918152 0.111174 -0.380312
vn -0.380311 0.111175 0.918152
vn -0.380311 0.111175 0.918152
vn -0.380311 0.111175 0.918152
vn 0.918152 0.111174 0.380311
vn 0.918152 0.111174 0.380311
vn 0.918152 0.111175 0.380311
vn 0.380311 0.111174 -0.918152
vn 0.380311 0.111174 -0.918153
vn 0.380311 0.111174 -0.918152
vn -0.380311 0.111174 -0.918152
vn -0.380311 0.111174 -0.918152
vn -0.380311 0.111174 -0.918152
vn -0.918152 0.111175 0.380311
vn -0.918152 0.111174 0.380311
vn -0.918152 0.111175 0.380311
vn -0.382684 0.000001 0.923879
vn -0.382683 0.000000 0.923880
vn -0.382682 0.000000 0.923880
vn -0.000002 -1.000000 0.000000
vn 0.000000 -1.000000 0.000000
vn -0.000000 -1.000000 0.000000
vn 0.000000 -1.000000 0.000000
vn 0.000002 -1.000000 0.000000
vn 0.000002 -1.000000 0.000000
vn 0.000000 -1.000000 0.000000
vn 0.000002 -1.000000 0.000000
vn 0.000000 -1.000000 0.000000
vn -0.000001 -1.000000 0.000000
vn -0.000002 -1.000000 0.000000
vn 0.000000 -1.000000 0.000000
vn 0.000002 -1.000000 0.000000
vn 0.000000 1.000000 -0.000000
vn -0.000002 1.000000 -0.000000
vn -0.000002 1.000000 -0.000000
vn 0.923880 0.000000 0.382683
vn 0.923880 -0.000000 0.382683
vn 0.923880 -0.000000 0.382683
vn 0.382683 -0.000000 -0.923880
vn 0.382684 -0.000000 -0.923879
vn 0.382682 -0.000000 -0.923880
vn -0.382683 0.000000 -0.923880
vn -0.382684 0.000000 -0.923879
vn -0.382682 0.000001 -0.923880
vn -0.923880 0.000000 0.382683
vn -0.923880 0.000000 0.382683
vn -0.923880 0.000000 0.382683
vn 0.382684 0.000000 0.923879
vn 0.382683 -0.000000 0.923880
vn 0.382682 -0.000000 0.923880
vn 0.923880 -0.000000 -0.382683
vn 0.923880 -0.000000 -0.382683
vn 0.923880 -0.000000 -0.382683
vn -0.923880 -0.000000 -0.382683
vn -0.923880 0.000000 -0.382683
vn -0.923880 0.000000 -0.382683
vn 0.923880 -0.000000 -0.382683
vn 0.923880 -0.000000 -0.382683
vn 0.923880 -0.000000 -0.382683
vn -0.000005 1.000000 -0.000000
vn -0.000000 1.000000 -0.000000
vn -0.000005 1.000000 -0.000000
vn 0.000005 1.000000 -0.000000
vn 0.000000 1.000000 -0.000000
vn 0.000005 1.000000 -0.000000
vn 0.000005 1.000000 -0.000000
vn 0.000000 1.000000 -0.000000
vn 0.000005 1.000000 -0.000000
vn 0.000000 1.000000 -0.000000
vn 0.000000 1.000000 -0.000000
vn 0.000000 1.000000 -0.000000
vn 0.000000 1.000000 -0.000000
vn 0.273460 0.955191 0.113266
vn 0.273442 0.955196 0.113267
vn 0.273439 0.955197 0.113267
vn -0.923879 -0.000000 -0.382683
vn -0.923880 0.000000 -0.382684
vn -0.923880 0.000000 -0.382684
vn -0.382683 -0.000000 0.923880
vn -0.382683 0.000000 0.923880
vn -0.382683 0.000000 0.923880
vn 0.923880 0.000000 0.382683
vn 0.923880 -0.000000 0.382683
vn 0.923880 -0.000000 0.382683
vn 0.382683 -0.000000 -0.923880
vn 0.382682 0.000000 -0.923880
vn 0.382683 -0.000000 -0.923880
vn -0.382683 -0.000000 -0.923880
vn -0.382683 -0.000001 -0.923880
vn -0.382683 -0.000001 -0.923880
vn -0.923880 0.000000 0.382684
vn -0.923880 0.000000 0.382684
vn -0.923880 0.000000 0.382683
vn 0.382683 0.000000 0.923880
vn 0.382682 0.000000 0.923880
vn 0.382682 0.000001 0.923880
vn 0.923880 0.000000 0.382682
vn 0.923880 0.000000 0.382683
vn 0.923879 0.000000 0.382684
vn -0.118815 -0.950581 0.286844
vn -0.118812 -0.950581 0.286844
vn -0.118812 -0.950581 0.286844
vn 0.273460 0.955191 -0.113266
vn 0.273443 0.955196 -0.113267
vn 0.273441 0.955197 -0.113267
vn -0.053938 -0.990016 -0.130226
vn -0.053941 -0.990016 -0.130226
vn -0.053942 -0.990016 -0.130226
vn 0.113269 0.955194 -0.273450
vn 0.113264 0.955194 -0.273450
vn 0.113263 0.955195 -0.273450
vn -0.130225 -0.990016 -0.053941
vn -0.130222 -0.990017 -0.053941
vn -0.130221 -0.990017 -0.053941
vn -0.113268 0.955194 -0.273450
vn -0.113264 0.955194 -0.273451
vn -0.113269 0.955194 -0.273450
vn -0.130225 -0.990016 0.053941
vn -0.130222 -0.990017 0.053941
vn -0.130225 -0.990016 0.053941
vn -0.273460 0.955191 -0.113266
vn -0.273443 0.955196 -0.113267
vn -0.273462 0.955191 -0.113266
vn 0.382684 -0.000000 -0.923880
vn 0.382682 -0.000000 -0.923880
vn 0.382682 -0.000000 -0.923880
vn -0.382684 -0.000000 -0.923880
vn -0.382682 -0.000000 -0.923880
vn -0.382682 -0.000000 -0.923880
vn -0.923880 0.000000 0.382682
vn -0.923879 0.000000 0.382684
vn -0.923879 0.000000 0.382684
vn 0.382684 0.000000 0.923880
vn 0.382682 0.000000 0.923880
vn 0.382682 0.000000 0.923880
vn 0.923880 -0.000000 -0.382682
vn 0.923880 -0.000000 -0.382683
vn 0.923880 -0.000000 -0.382684
vn -0.923880 -0.000000 -0.382682
vn -0.923879 -0.000000 -0.382684
vn -0.923879 -0.000000 -0.382684
vn -0.382684 0.000000 0.923879
vn -0.382682 0.000000 0.923880
vn -0.382682 0.000000 0.923880
vn 0.382682 0.000000 0.923880
vn 0.382682 0.000000 0.923880
vn 0.382682 0.000001 0.923880
vn -0.047692 0.992203 -0.115146
vn -0.047696 0.992203 -0.115146
vn -0.047696 0.992203 -0.115146
vn -0.053944 -0.990016 0.130226
vn -0.053945 -0.990016 0.130226
vn -0.053945 -0.990016 0.130226
vn -0.273460 0.955191 0.113266
vn -0.273444 0.955196 0.113267
vn -0.273441 0.955197 0.113267
vn -0.115147 0.992203 -0.047695
vn -0.115140 0.992204 -0.047695
vn -0.115139 0.992204 -0.047695
vn 0.053939 -0.990016 0.130226
vn 0.053946 -0.990016 0.130226
vn 0.053947 -0.990016 0.130226
vn -0.113268 0.955194 0.273450
vn -0.113265 0.955194 0.273450
vn -0.113264 0.955195 0.273450
vn -0.115147 0.992203 0.047695
vn -0.115139 0.992204 0.047695
vn -0.115137 0.992204 0.047695
vn -0.347918 -0.416475 -0.839941
vn -0.347916 -0.416474 -0.839943
vn -0.347916 -0.416473 -0.839943
vn 0.923880 -0.000000 -0.382683
vn 0.923880 -0.000000 -0.382683
vn 0.923880 -0.000000 -0.382683
vn -0.923880 -0.000000 -0.382684
vn -0.923880 0.000000 -0.382684
vn -0.923880 0.000000 -0.382683
vn -0.382683 -0.000000 0.923880
vn -0.382683 0.000000 0.923880
vn -0.382683 0.000000 0.923880
vn 0.923880 -0.000000 0.382683
vn 0.923880 0.000000 0.382683
vn 0.923880 -0.000000 0.382683
vn 0.382685 0.000000 -0.923879
vn 0.382683 -0.000000 -0.923880
vn 0.382682 -0.000000 -0.923880
vn -0.382685 -0.000000 -0.923879
vn -0.382683 -0.000001 -0.923880
vn -0.382683 -0.000001 -0.923880
vn -0.923880 0.000000 0.382684
vn -0.923879 0.000000 0.382683
vn -0.923880 0.000000 0.382683
vn 0.000000 1.000000 -0.000000
vn -0.000001 1.000000 -0.000000
vn -0.000002 1.000000 -0.000000
vn -0.839940 -0.416477 0.347918
vn -0.839950 -0.416466 0.347909
vn -0.839950 -0.416465 0.347909
vn 0.347911 -0.416474 0.839945
vn 0.347919 -0.416472 0.839942
vn 0.347910 -0.416475 0.839945
vn 0.839941 -0.416476 -0.347918
vn 0.839950 -0.416466 -0.347909
vn 0.839950 -0.416465 -0.347908
vn -0.839940 -0.416477 -0.347918
vn -0.839947 -0.416469 -0.347911
vn -0.839948 -0.416468 -0.347911
vn -0.347911 -0.416475 0.839945
vn -0.347919 -0.416473 0.839942
vn -0.347919 -0.416473 0.839942
vn 0.839941 -0.416476 0.347918
vn 0.839948 -0.416468 0.347911
vn 0.839949 -0.416467 0.347910
vn 0.347911 -0.416475 -0.839945
vn 0.347919 -0.416473 -0.839942
vn 0.347920 -0.416473 -0.839942
vn -0.382683 0.000000 -0.923880
vn -0.382685 -0.000000 -0.923879
vn -0.382683 0.000001 -0.923880
vn -0.923879 0.000000 0.382684
vn -0.923880 0.000000 0.382683
vn -0.923880 0.000000 0.382683
vn 0.382683 0.000000 0.923880
vn 0.382685 -0.000000 0.923879
vn 0.382686 -0.000000 0.923879
vn 0.923879 -0.000000 -0.382684
vn 0.923880 -0.000000 -0.382683
vn 0.923880 -0.000000 -0.382682
vn -0.923879 -0.000000 -0.382685
vn -0.923880 -0.000000 -0.382683
vn -0.923880 -0.000000 -0.382683
vn -0.382683 0.000001 0.923880
vn -0.382685 0.000000 0.923879
vn -0.382686 0.000000 0.923879
vn 0.923879 0.000000 0.382684
vn 0.923880 0.000000 0.382683
vn 0.923880 0.000000 0.382682
vn 0.382683 -0.000001 -0.923880
vn 0.382685 -0.000000 -0.923879
vn 0.382686 -0.000000 -0.923879
vn -0.923879 -0.000000 -0.382684
vn -0.923880 -0.000000 -0.382682
vn -0.923880 -0.000000 -0.382682
vn -0.382682 0.000000 0.923880
vn -0.382684 0.000000 0.923879
vn -0.382685 0.000000 0.923879
vn 0.923880 0.000000 0.382684
vn 0.923880 0.000000 0.382682
vn 0.923880 0.000000 0.382681
vn 0.382682 -0.000000 -0.923880
vn 0.382684 -0.000000 -0.923879
vn 0.382685 -0.000000 -0.923879
vn -0.382682 -0.000000 -0.923880
vn -0.382684 -0.000000 -0.923879
vn -0.382685 -0.000001 -0.923879
vn -0.923879 0.000000 0.382684
vn -0.923880 0.000000 0.382682
vn -0.923880 0.000000 0.382682
vn 0.382682 0.000000 0.923880
vn 0.382684 0.000001 0.923879
vn 0.382685 0.000001 0.923879
vn 0.923879 -0.000000 -0.382684
vn 0.923880 -0.000000 -0.382682
vn 0.923880 -0.000000 -0.382681
vn -0.286842 -0.950581 0.118815
vn -0.286844 -0.950581 0.118815
vn -0.286845 -0.950580 0.118815
vn 0.113268 0.955194 0.273449
vn 0.113265 0.955194 0.273450
vn 0.113264 0.955194 0.273450
vn -0.286842 -0.950581 -0.118814
vn -0.286843 -0.950581 -0.118814
vn -0.286843 -0.950581 -0.118814
vn 0.047692 0.992203 -0.115146
vn 0.047696 0.992203 -0.115146
vn 0.047696 0.992203 -0.115146
vn -0.118815 -0.950581 -0.286844
vn -0.118813 -0.950581 -0.286844
vn -0.118812 -0.950581 -0.286844
vn 0.115147 0.992203 -0.047695
vn 0.115140 0.992204 -0.047695
vn 0.115147 0.992203 -0.047695
vn 0.118815 -0.950581 -0.286844
vn 0.118812 -0.950581 -0.286844
vn 0.118815 -0.950581 -0.286844
vn 0.115147 0.992203 0.047695
vn 0.115140 0.992204 0.047695
vn 0.115139 0.992204 0.047695
vn 0.286842 -0.950581 -0.118814
vn 0.286844 -0.950581 -0.118814
vn 0.286844 -0.950581 -0.118814
vn 0.053938 -0.990016 -0.130226
vn 0.053941 -0.990016 -0.130226
vn 0.053942 -0.990016 -0.130226
vn 0.047692 0.992203 0.115146
vn 0.047693 0.992203 0.115146
vn 0.047692 0.992203 0.115146
vn 0.286842 -0.950581 0.118815
vn 0.286843 -0.950581 0.118815
vn 0.286843 -0.950581 0.118815
vn 0.130225 -0.990016 -0.053941
vn 0.130223 -0.990016 -0.053941
vn 0.130223 -0.990016 -0.053941
vn -0.047692 0.992203 0.115146
vn -0.047693 0.992203 0.115146
vn -0.047693 0.992203 0.115146
vn 0.118815 -0.950581 0.286844
vn 0.118814 -0.950581 0.286844
vn 0.118813 -0.950581 0.286844
vn 0.130225 -0.990016 0.053941
vn 0.130222 -0.990017 0.053941
vn 0.130221 -0.990017 0.053941
vn -0.920878 -0.080546 0.381440
vn -0.920878 -0.080546 0.381440
vn -0.920878 -0.080546 0.381440
vn 0.000000 1.000000 -0.000000
vn 0.000000 1.000000 -0.000000
vn 0.000000 1.000000 -0.000000
vn -0.000000 1.000000 -0.000000
vn 0.000001 1.000000 -0.000000
vn 0.000001 1.000000 -0.000000
vn 0.000000 1.000000 -0.000000
vn -0.000000 1.000000 -0.000000
vn -0.000000 1.000000 -0.000000
vn 0.000000 1.000000 -0.000000
vn 0.000001 1.000000 -0.000000
vn 0.000000 1.000000 -0.000000
vn 0.000000 1.000000 -0.000000
vn -0.315479 -0.566025 -0.761636
vn -0.315480 -0.566024 -0.761636
vn -0.315479 -0.566025 -0.761636
vn 0.920878 -0.080546 0.381440
vn 0.920878 -0.080546 0.381440
vn 0.920878 -0.080546 0.381440
vn 0.381440 -0.080546 -0.920878
vn 0.381440 -0.080546 -0.920878
vn 0.381440 -0.080546 -0.920878
vn -0.920878 -0.080546 -0.381440
vn -0.920878 -0.080546 -0.381440
vn -0.920878 -0.080546 -0.381440
vn -0.381440 -0.080546 0.920878
vn -0.381440 -0.080546 0.920878
vn -0.381440 -0.080546 0.920878
vn 0.381440 -0.080546 0.920878
vn 0.381440 -0.080546 0.920878
vn 0.381440 -0.080546 0.920878
vn 0.920878 -0.080546 -0.381440
vn 0.920878 -0.080546 -0.381440
vn 0.920878 -0.080546 -0.381440
vn -0.381440 -0.080546 -0.920878
vn -0.381440 -0.080546 -0.920878
vn -0.381440 -0.080546 -0.920878
vn 0.382683 0.000000 0.923880
vn 0.382683 0.000000 0.923880
vn 0.382683 0.000000 0.923880
vn -0.761636 -0.566024 0.315480
vn -0.761636 -0.566024 0.315480
vn -0.761636 -0.566025 0.315480
vn 0.761636 -0.566024 0.315480
vn 0.761636 -0.566024 0.315480
vn 0.761635 -0.566025 0.315480
vn 0.315480 -0.566025 -0.761636
vn 0.315480 -0.566025 -0.761636
vn 0.315480 -0.566025 -0.761636
vn -0.761636 -0.566024 -0.315480
vn -0.761636 -0.566024 -0.315480
vn -0.761636 -0.566024 -0.315479
vn -0.315479 -0.566024 0.761636
vn -0.315479 -0.566024 0.761636
vn -0.315479 -0.566024 0.761636
vn 0.315479 -0.566024 0.761636
vn 0.315479 -0.566024 0.761636
vn 0.315479 -0.566024 0.761636
vn 0.761636 -0.566024 -0.315480
vn 0.761636 -0.566024 -0.315480
vn 0.761636 -0.566025 -0.315480
vn 0.000000 1.000000 -0.000000
vn 0.000000 1.000000 -0.000000
vn -0.000000 1.000000 -0.000000
vn 0.923880 -0.000000 -0.382684
vn 0.923880 -0.000000 -0.382684
vn 0.923880 -0.000000 -0.382684
vn -0.382683 -0.000000 -0.923880
vn -0.382683 -0.000000 -0.923880
vn -0.382683 -0.000000 -0.923880
vn -0.923880 0.000000 0.382683
vn -0.923880 0.000000 0.382683
vn -0.923880 0.000000 0.382683
vn 0.923879 0.000000 0.382684
vn 0.923879 0.000000 0.382684
vn 0.923879 0.000000 0.382684
vn 0.382683 -0.000000 -0.923880
vn 0.382683 -0.000000 -0.923880
vn 0.382683 -0.000000 -0.923880
vn -0.923880 -0.000000 -0.382683
vn -0.923880 -0.000000 -0.382683
vn -0.923880 -0.000000 -0.382683
vn -0.382683 0.000000 0.923880
vn -0.382683 0.000000 0.923880
vn -0.382683 0.000000 0.923880
vn -0.000000 -1.000000 0.000000
vn -0.000000 -1.000000 0.000000
vn -0.000000 -1.000000 0.000000
vn -0.905911 0.196267 0.375240
vn -0.905911 0.196267 0.375240
vn -0.905911 0.196267 0.375240
vn 0.375241 0.196266 0.905911
vn 0.375240 0.196267 0.905910
vn 0.375240 0.196268 0.905911
vn -0.905911 0.196267 -0.375240
vn -0.905911 0.196267 -0.375240
vn -0.905911 0.196267 -0.375240
vn 0.905911 0.196267 -0.375240
vn 0.905911 0.196267 -0.375240
vn 0.905911 0.196267 -0.375240
vn -0.375241 0.196266 0.905911
vn -0.375240 0.196268 0.905911
vn -0.375240 0.196268 0.905910
vn -0.375241 0.196267 -0.905911
vn -0.375240 0.196267 -0.905911
vn -0.375240 0.196266 -0.905911
vn 0.375241 0.196267 -0.905911
vn 0.375240 0.196266 -0.905911
vn 0.375240 0.196266 -0.905911
vn 0.507218 -0.835816 -0.210096
vn 0.507218 -0.835817 -0.210097
vn 0.507218 -0.835817 -0.210097
vn 0.000000 -1.000000 0.000000
vn 0.000000 -1.000000 0.000000
vn 0.000000 -1.000000 0.000000
vn -0.000000 -1.000000 0.000000
vn -0.000000 -1.000000 0.000000
vn 0.000000 -1.000000 0.000000
vn 0.000000 -1.000000 0.000000
vn 0.000000 -1.000000 0.000000
vn 0.000000 -1.000000 0.000000
vn -0.000000 -1.000000 0.000000
vn 0.000000 -1.000000 0.000000
vn -0.000000 -1.000000 0.000000
vn 0.000000 -1.000000 0.000000
vn 0.000000 -1.000000 0.000000
vn -0.000000 -1.000000 0.000000
vn -0.000000 -1.000000 0.000000
vn -0.210097 -0.835817 -0.507218
vn -0.210096 -0.835817 -0.507218
vn -0.210096 -0.835817 -0.507218
vn -0.507218 -0.835816 0.210097
vn -0.507218 -0.835816 0.210097
vn -0.507218 -0.835816 0.210097
vn 0.507218 -0.835816 0.210097
vn 0.507218 -0.835816 0.210097
vn 0.507218 -0.835817 0.210097
vn 0.210097 -0.835817 -0.507218
vn 0.210096 -0.835817 -0.507218
vn 0.210097 -0.835817 -0.507218
vn -0.507218 -0.835816 -0.210096
vn -0.507218 -0.835817 -0.210096
vn -0.507218 -0.835817 -0.210097
vn -0.210097 -0.835816 0.507218
vn -0.210096 -0.835816 0.507218
vn -0.210097 -0.835816 0.507218
vn 0.210097 -0.835816 0.507218
vn 0.210096 -0.835816 0.507218
vn 0.210096 -0.835816 0.507218
vn -0.382684 0.000000 0.923879
vn -0.382683 0.000000 0.923880
vn -0.382683 0.000000 0.923880
vn 0.923880 0.000000 0.382683
vn 0.923880 -0.000000 0.382683
vn 0.923880 -0.000000 0.382683
vn 0.382684 -0.000000 -0.923879
vn 0.382683 -0.000000 -0.923880
vn 0.382683 -0.000000 -0.923880
vn -0.382684 -0.000000 -0.923879
vn -0.382683 -0.000000 -0.923880
vn -0.382683 -0.000000 -0.923880
vn -0.923880 0.000000 0.382683
vn -0.923880 0.000000 0.382684
vn -0.923880 0.000000 0.382683
vn 0.382684 0.000000 0.923879
vn 0.382683 0.000000 0.923880
vn 0.382682 0.000000 0.923880
vn 0.923880 -0.000000 -0.382683
vn 0.923880 -0.000000 -0.382683
vn 0.923880 -0.000000 -0.382683
vn -0.923880 0.000000 -0.382683
vn -0.923880 -0.000000 -0.382683
vn -0.923879 -0.000000 -0.382684
vn 0.923880 0.000000 0.382683
vn 0.923880 0.000000 0.382683
vn 0.382683 -0.000000 -0.923880
vn -0.382683 -0.000000 -0.923880
vn -0.923880 0.000000 0.382683
vn -0.923880 0.000000 0.382683
vn 0.382684 0.000000 0.923879
vn 0.382683 0.000000 0.923880
vn 0.923880 -0.000000 -0.382683
vn -0.923880 -0.000000 -0.382683
vn -0.382684 0.000000 0.923879
vn -0.382683 0.000000 0.923880
vn -0.474513 0.858024 -0.196551
vn -0.474517 0.858022 -0.196551
vn -0.474518 0.858021 -0.196551
vn -0.196548 0.858023 0.474515
vn -0.196551 0.858023 0.474515
vn -0.196552 0.858022 0.474515
vn 0.474513 0.858024 0.196551
vn 0.474517 0.858022 0.196550
vn 0.474518 0.858022 0.196550
vn 0.196551 0.858022 -0.474516
vn 0.196551 0.858023 -0.474516
vn 0.196550 0.858023 -0.474516
vn -0.196551 0.858023 -0.474515
vn -0.196550 0.858023 -0.474516
vn -0.196551 0.858023 -0.474515
vn -0.474515 0.858023 0.196551
vn -0.474516 0.858022 0.196551
vn -0.474516 0.858022 0.196551
vn 0.196548 0.858023 0.474516
vn 0.196551 0.858023 0.474515
vn 0.196546 0.858024 0.474516
vn 0.474513 0.858024 -0.196551
vn 0.474517 0.858022 -0.196551
vn 0.474511 0.858025 -0.196551
vn -0.000000 1.000000 -0.000000
vn -0.000002 1.000000 -0.000000
vn 0.000000 1.000000 -0.000000
vn -0.000000 -1.000000 0.000000
vn -0.000003 -1.000000 0.000000
vn 0.000000 -1.000000 0.000000
vn -0.000002 -1.000000 0.000000
vn -0.000002 -1.000000 0.000000
vn -0.000002 -1.000000 0.000000
vn 0.000001 -1.000000 0.000000
vn 0.000000 -1.000000 0.000000
vn 0.000000 -1.000000 0.000000
vn 0.000002 -1.000000 0.000000
vn 0.000001 -1.000000 0.000000
vn 0.000001 -1.000000 0.000000
vn -0.000003 -1.000000 0.000000
vn -0.000002 -1.000000 0.000000
vn 0.000001 -1.000000 0.000000
vn 0.000002 -1.000000 0.000000
vn 0.382683 0.000000 0.923880
vn 0.382683 0.000000 0.923880
vn 0.382683 0.000000 0.923880
vn 0.923880 -0.000000 -0.382683
vn 0.923880 -0.000000 -0.382683
vn 0.923880 -0.000000 -0.382683
vn -0.382683 -0.000000 -0.923880
vn -0.382683 -0.000000 -0.923880
vn -0.382683 -0.000000 -0.923880
vn -0.923880 0.000000 0.382683
vn -0.923880 0.000000 0.382683
vn -0.923880 0.000000 0.382683
vn 0.923880 0.000000 0.382683
vn 0.923880 0.000000 0.382683
vn 0.923880 0.000000 0.382683
vn 0.382683 -0.000000 -0.923880
vn 0.382683 -0.000000 -0.923880
vn 0.382683 -0.000000 -0.923880
vn -0.923880 -0.000000 -0.382683
vn -0.923880 -0.000000 -0.382683
vn -0.923880 -0.000000 -0.382683
vn -0.382683 0.000000 0.923880
vn -0.382683 0.000000 0.923880
vn -0.382683 0.000000 0.923880
vn -0.000000 -1.000000 0.000000
vn -0.000000 -1.000000 0.000000
vn -0.000000 -1.000000 0.000000
vn -0.377038 0.171131 -0.910251
vn -0.377038 0.171131 -0.910251
vn -0.377038 0.171131 -0.910251
vn -0.910251 0.171131 -0.377038
vn -0.910251 0.171131 -0.377038
vn -0.910251 0.171131 -0.377038
vn -0.910251 0.171131 0.377038
vn -0.910251 0.171131 0.377038
vn -0.910251 0.171131 0.377038
vn -0.377038 0.171131 0.910251
vn -0.377038 0.171131 0.910251
vn -0.377038 0.171131 0.910251
vn 0.377038 0.171131 0.910251
vn 0.377038 0.171131 0.910251
vn 0.377038 0.171131 0.910251
vn 0.910251 0.171131 0.377038
vn 0.910251 0.171131 0.377038
vn 0.910251 0.171131 0.377038
vn 0.910251 0.171131 -0.377038
vn 0.910251 0.171131 -0.377038
vn 0.910251 0.171131 -0.377038
vn 0.377038 0.171131 -0.910251
vn 0.377038 0.171131 -0.910251
vn 0.377038 0.171131 -0.910251
vn 0.382576 -0.023632 -0.923622
vn 0.923622 -0.023632 -0.382577
vn 0.923622 -0.023632 0.382577
vn 0.382577 -0.023632 0.923622
vn -0.382577 -0.023632 0.923622
vn -0.923621 -0.023632 0.382577
vn 0.382683 0.000000 0.923880
vn -0.923622 -0.023632 -0.382576
vn -0.382576 -0.023632 -0.923622
vn 0.905911 0.196267 0.375240
vn 0.854698 0.379678 0.354028
vn -0.923880 -0.000000 -0.382683
vn 0.923880 -0.000000 -0.382683
vn -0.382683 0.000000 0.923880
vn -0.382683 -0.000000 -0.923880
vn 0.382683 -0.000000 -0.923880
vn 0.923880 0.000000 0.382683
vn -0.923880 0.000000 0.382683
vn -0.738667 0.600630 -0.305966
vn 0.354027 0.379678 -0.854698
vn -0.354028 0.379678 -0.854698
vn -0.854698 0.379678 0.354028
vn 0.354027 0.379678 0.854698
vn 0.854698 0.379678 -0.354027
vn -0.854698 0.379678 -0.354028
vn -0.354027 0.379678 0.854698
vn 0.380311 0.111175 0.918152
vn -0.305965 0.600629 0.738668
vn 0.738667 0.600630 0.305966
vn 0.305965 0.600629 -0.738668
vn -0.305966 0.600629 -0.738667
vn -0.738668 0.600628 0.305965
vn 0.305965 0.600629 0.738667
vn 0.738667 0.600629 -0.305966
vn 0.918152 0.111174 -0.380311
vn -0.918153 0.111174 -0.380311
vn -0.380311 0.111175 0.918152
vn 0.918153 0.111174 0.380311
vn 0.380310 0.111174 -0.918153
vn -0.380311 0.111174 -0.918152
vn -0.918152 0.111174 0.380311
vn -0.382685 0.000001 0.923879
vn 0.923880 0.000000 0.382683
vn 0.382684 -0.000000 -0.923879
vn -0.382685 0.000000 -0.923879
vn -0.923880 0.000000 0.382683
vn 0.382684 0.000000 0.923879
vn 0.923880 -0.000000 -0.382683
vn -0.923880 -0.000000 -0.382683
vn 0.923880 -0.000000 -0.382683
vn 0.273462 0.955191 0.113266
vn -0.923880 -0.000000 -0.382683
vn -0.382683 -0.000001 0.923880
vn 0.923880 0.000000 0.382683
vn 0.382682 0.000000 -0.923880
vn -0.382683 -0.000000 -0.923880
vn -0.923880 0.000000 0.382684
vn 0.382683 0.000000 0.923880
vn 0.923880 0.000000 0.382682
vn -0.118815 -0.950581 0.286844
vn 0.273462 0.955191 -0.113266
vn -0.053938 -0.990016 -0.130226
vn 0.113269 0.955194 -0.273450
vn -0.130225 -0.990016 -0.053941
vn -0.113263 0.955194 -0.273451
vn -0.130221 -0.990017 0.053941
vn -0.273441 0.955197 -0.113267
vn 0.382684 -0.000000 -0.923879
vn -0.382684 -0.000000 -0.923879
vn -0.923880 0.000000 0.382682
vn 0.382684 0.000000 0.923879
vn 0.923880 -0.000000 -0.382682
vn -0.923880 -0.000000 -0.382682
vn -0.382684 0.000000 0.923879
vn 0.382682 0.000000 0.923880
vn -0.047692 0.992203 -0.115146
vn -0.053944 -0.990016 0.130226
vn -0.273462 0.955191 0.113266
vn -0.115147 0.992203 -0.047695
vn 0.053938 -0.990016 0.130226
vn -0.113269 0.955194 0.273450
vn -0.115147 0.992203 0.047695
vn -0.347919 -0.416475 -0.839941
vn 0.923880 -0.000000 -0.382683
vn -0.923880 -0.000000 -0.382684
vn -0.382683 -0.000001 0.923880
vn 0.923880 0.000000 0.382683
vn 0.382685 0.000001 -0.923879
vn -0.382685 -0.000000 -0.923879
vn -0.923880 0.000000 0.382684
vn -0.839940 -0.416478 0.347919
vn 0.347920 -0.416472 0.839942
vn 0.839940 -0.416477 -0.347919
vn -0.839940 -0.416477 -0.347919
vn -0.347910 -0.416475 0.839945
vn 0.839940 -0.416477 0.347919
vn 0.347910 -0.416475 -0.839945
vn -0.382686 -0.000000 -0.923879
vn -0.923879 0.000000 0.382685
vn 0.382683 0.000000 0.923880
vn 0.923879 -0.000000 -0.382684
vn -0.923879 -0.000000 -0.382685
vn -0.382683 0.000001 0.923880
vn 0.923879 0.000000 0.382684
vn 0.382683 -0.000001 -0.923880
vn -0.923879 -0.000000 -0.382684
vn -0.382682 0.000000 0.923880
vn 0.923879 0.000000 0.382684
vn 0.382682 -0.000000 -0.923880
vn -0.382682 -0.000000 -0.923880
vn -0.923879 0.000000 0.382684
vn 0.382682 0.000000 0.923880
vn 0.923879 -0.000000 -0.382684
vn -0.286842 -0.950581 0.118815
vn 0.113269 0.955194 0.273449
vn -0.286842 -0.950581 -0.118814
vn 0.047692 0.992203 -0.115146
vn -0.118815 -0.950581 -0.286844
vn 0.115139 0.992204 -0.047695
vn 0.118812 -0.950581 -0.286844
vn 0.115147 0.992203 0.047695
vn 0.286842 -0.950581 -0.118814
vn 0.053938 -0.990016 -0.130226
vn 0.047693 0.992203 0.115146
vn 0.286842 -0.950581 0.118815
vn 0.130225 -0.990016 -0.053941
vn -0.047692 0.992203 0.115146
vn 0.118815 -0.950581 0.286844
vn 0.130226 -0.990016 0.053941
vn -0.920878 -0.080546 0.381440
vn -0.315480 -0.566024 -0.761636
vn 0.920878 -0.080546 0.381440
vn 0.381440 -0.080546 -0.920878
vn -0.920878 -0.080546 -0.381440
vn -0.381440 -0.080546 0.920878
vn 0.381440 -0.080546 0.920878
vn 0.920878 -0.080546 -0.381440
vn -0.381440 -0.080546 -0.920878
vn 0.382683 0.000000 0.923880
vn -0.761636 -0.566024 0.315480
vn 0.761636 -0.566024 0.315480
vn 0.315480 -0.566025 -0.761636
vn -0.761636 -0.566025 -0.315480
vn -0.315479 -0.566024 0.761636
vn 0.315480 -0.566024 0.761636
vn 0.761636 -0.566024 -0.315480
vn -0.000000 1.000000 -0.000000
vn -0.000000 1.000000 -0.000000
vn 0.000000 1.000000 -0.000000
vn 0.000000 1.000000 -0.000000
vn 0.000000 1.000000 -0.000000
vn 0.923880 -0.000000 -0.382684
vn -0.382683 -0.000000 -0.923880
vn -0.923880 0.000000 0.382683
vn 0.923879 0.000000 0.382684
vn 0.382683 -0.000000 -0.923880
vn -0.923880 -0.000000 -0.382683
vn -0.382683 0.000000 0.923880
vn -0.905911 0.196267 0.375240
vn 0.375241 0.196266 0.905911
vn -0.905911 0.196267 -0.375240
vn 0.905911 0.196267 -0.375240
vn -0.375241 0.196266 0.905911
vn -0.375241 0.196267 -0.905911
vn 0.375241 0.196267 -0.905911
vn 0.507218 -0.835816 -0.210096
vn 0.000000 -1.000000 0.000000
vn 0.000000 -1.000000 0.000000
vn 0.000000 -1.000000 0.000000
vn 0.000000 -1.000000 0.000000
vn -0.000000 -1.000000 0.000000
vn -0.210097 -0.835817 -0.507218
vn -0.507218 -0.835816 0.210097
vn 0.507219 -0.835816 0.210097
vn 0.210096 -0.835817 -0.507218
vn -0.507219 -0.835816 -0.210096
vn -0.210096 -0.835816 0.507218
vn 0.210097 -0.835816 0.507218
vn 0.382682 0.000000 -0.923880
vn -0.382683 -0.000000 -0.923880
vn 0.923880 -0.000000 -0.382683
vn -0.923880 -0.000000 -0.382683
vn 0.923880 0.000000 0.382683
vn 0.382683 -0.000000 -0.923880
vn -0.382683 -0.000000 -0.923880
vn -0.923880 0.000000 0.382683
vn 0.382683 0.000000 0.923880
vn 0.923880 -0.000000 -0.382683
vn -0.923880 -0.000000 -0.382683
vn -0.382683 0.000000 0.923880
vn -0.474511 0.858025 -0.196551
vn -0.196546 0.858024 0.474515
vn 0.474511 0.858025 0.196551
vn 0.196551 0.858022 -0.474516
vn -0.196550 0.858023 -0.474516
vn -0.474515 0.858023 0.196551
vn 0.196552 0.858022 0.474515
vn 0.474518 0.858021 -0.196551
vn 0.000002 1.000000 -0.000000
vn 0.000004 1.000000 -0.000000
vn -0.000005 1.000000 -0.000000
vn -0.000004 1.000000 -0.000000
vn 0.000005 1.000000 -0.000000
vn 0.382683 0.000000 0.923880
vn 0.923880 -0.000000 -0.382683
vn -0.382683 -0.000000 -0.923880
vn -0.923880 0.000000 0.382683
vn 0.923880 0.000000 0.382683
vn 0.382683 -0.000000 -0.923880
vn -0.923880 -0.000000 -0.382683
vn -0.382683 0.000000 0.923880
vn -0.000002 -1.000000 0.000000
vn 0.000000 -1.000000 0.000000
vn 0.000003 -1.000000 0.000000
vn -0.000004 -1.000000 0.000000
vn 0.000002 -1.000000 0.000000
vn -0.377038 0.171131 -0.910251
vn -0.910251 0.171131 -0.377038
vn -0.910251 0.171131 0.377038
vn -0.377038 0.171131 0.910251
vn 0.377038 0.171131 0.910251
vn 0.910251 0.171131 0.377038
vn 0.910251 0.171131 -0.377038
vn 0.377038 0.171131 -0.910251
f 1/1/1 2/2/2 3/3/3
f 4/4/4 5/5/5 6/6/6
f 7/7/7 8/8/8 9/9/9
f 10/10/10 11/11/11 12/12/12
f 13/13/13 14/14/14 15/15/15
f 16/16/16 17/17/17 18/18/18
f 19/19/19 20/20/20 21/21/21
f 22/22/22 23/23/23 24/24/24
f 25/25/25 26/26/26 27/27/27
f 28/28/28 29/29/29 30/30/30
f 31/31/31 32/32/32 33/33/33
f 34/34/34 35/35/35 36/36/36
f 37/37/37 38/38/38 39/39/39
f 40/40/40 41/41/41 42/42/42
f 43/43/43 44/44/44 45/45/45
f 46/46/46 47/47/47 48/48/48
f 49/49/49 50/50/50 51/51/51
f 52/52/52 53/53/53 54/54/54
f 55/55/55 56/56/56 57/57/57
f 58/58/58 59/59/59 60/60/60
f 61/61/61 62/62/62 63/63/63
f 64/64/64 65/65/65 66/66/66
f 67/67/67 68/68/68 69/69/69
f 70/70/70 71/71/71 72/72/72
f 73/73/73 74/74/74 75/75/75
f 76/76/76 77/77/77 78/78/78
f 79/79/79 80/80/80 81/81/81
f 82/82/82 83/83/83 84/84/84
f 85/85/85 86/86/86 87/87/87
f 88/88/88 89/89/89 90/90/90
f 91/91/91 92/92/92 93/93/93
f 94/94/94 95/95/95 96/96/96
f 97/97/97 98/98/98 99/99/99
f 100/100/100 101/101/101 102/102/102
f 103/103/103 104/104/104 105/105/105
f 106/106/106 107/107/107 108/108/108
f 109/109/109 110/110/110 111/111/111
f 112/112/112 113/113/113 114/114/114
f 115/115/115 116/116/116 117/117/117
f 118/118/118 119/119/119 120/120/120
f 121/121/121 122/122/122 123/123/123
f 124/124/124 125/125/125 126/126/126
f 127/127/127 128/128/128 129/129/129
f 130/130/130 131/131/131 132/132/132
f 133/133/133 134/134/134 135/135/135
f 136/136/136 137/137/137 138/138/138
f 132/132/132 139/139/139 103/103/103
f 135/135/135 140/140/140 130/130/130
f 133/133/133 138/138/138 141/141/141
f 105/105/105 137/137/137 142/142/142
f 143/143/143 144/144/144 145/145/145
f 146/146/146 147/147/147 148/148/148
f 149/149/149 150/150/150 151/151/151
f 152/152/152 153/153/153 154/154/154
f 155/155/155 156/156/156 157/157/157
f 158/158/158 159/159/159 160/160/160
f 161/161/161 162/162/162 163/163/163
f 164/164/164 165/165/165 166/166/166
f 167/167/167 168/168/168 169/169/169
f 170/170/170 171/171/171 172/172/172
f 173/173/173 174/174/174 175/175/175
f 176/176/176 177/177/177 178/178/178
f 145/145/145 177/177/177 179/179/179
f 170/170/170 180/180/180 143/143/143
f 173/173/173 171/171/171 181/181/181
f 176/176/176 174/174/174 182/182/182
f 183/183/183 184/184/184 185/185/185
f 186/186/186 187/187/187 188/188/188
f 189/189/189 190/190/190 191/191/191
f 192/192/192 193/193/193 194/194/194
f 195/195/195 196/196/196 197/197/197
f 198/198/198 199/199/199 200/200/200
f 201/201/201 202/202/202 203/203/203
f 204/204/204 205/205/205 206/206/206
f 207/207/207 208/208/208 209/209/209
f 210/210/210 211/211/211 212/212/212
f 213/213/213 214/214/214 215/215/215
f 216/216/216 217/217/217 218/218/218
f 219/219/219 220/220/220 221/221/221
f 222/222/222 223/223/223 224/224/224
f 225/225/225 226/226/226 227/227/227
f 228/228/228 229/229/229 230/230/230
f 231/231/231 232/232/232 233/233/233
f 234/234/234 235/235/235 236/236/236
f 237/237/237 238/238/238 239/239/239
f 240/240/240 241/241/241 242/242/242
f 243/243/243 244/244/244 245/245/245
f 246/246/246 247/247/247 248/248/248
f 249/249/249 250/250/250 251/251/251
f 252/252/252 253/253/253 254/254/254
f 255/255/255 256/256/256 257/257/257
f 258/258/258 259/259/259 260/260/260
f 261/261/261 262/262/262 263/263/263
f 264/264/264 265/265/265 266/266/266
f 267/267/267 268/268/268 269/269/269
f 270/270/270 271/271/271 272/272/272
f 273/273/273 274/274/274 275/275/275
f 276/276/276 277/277/277 278/278/278
f 279/279/279 280/280/280 281/281/281
f 282/282/282 283/283/283 284/284/284
f 285/285/285 286/286/286 287/287/287
f 288/288/288 289/289/289 290/290/290
f 291/291/291 292/292/292 293/293/293
f 294/294/294 295/295/295 296/296/296
f 297/297/297 298/298/298 299/299/299
f 300/300/300 301/301/301 302/302/302
f 303/303/303 304/304/304 305/305/305
f 306/306/306 307/307/307 308/308/308
f 309/309/309 310/310/310 311/311/311
f 312/312/312 313/313/313 314/314/314
f 315/315/315 316/316/316 317/317/317
f 318/318/318 319/319/319 320/320/320
f 321/321/321 322/322/322 323/323/323
f 324/324/324 325/325/325 326/326/326
f 327/327/327 328/328/328 329/329/329
f 330/330/330 331/331/331 332/332/332
f 333/333/333 334/334/334 335/335/335
f 336/336/336 337/337/337 338/338/338
f 339/339/339 340/340/340 341/341/341
f 342/342/342 343/343/343 344/344/344
f 345/345/345 346/346/346 347/347/347
f 348/348/348 349/349/349 350/350/350
f 351/351/351 352/352/352 353/353/353
f 354/354/354 355/355/355 356/356/356
f 357/357/357 358/358/358 359/359/359
f 360/360/360 361/361/361 362/362/362
f 363/363/363 364/364/364 365/365/365
f 366/366/366 367/367/367 368/368/368
f 369/369/369 370/370/370 371/371/371
f 372/372/372 373/373/373 374/374/374
f 375/375/375 376/376/376 377/377/377
f 378/378/378 379/379/379 380/380/380
f 381/381/381 382/382/382 383/383/383
f 384/384/384 385/385/385 386/386/386
f 387/387/387 388/388/388 389/389/389
f 390/390/390 391/391/391 392/392/392
f 393/393/393 394/394/394 395/395/395
f 396/396/396 397/397/397 398/398/398
f 399/399/399 400/400/400 401/401/401
f 402/402/402 403/403/403 404/404/404
f 405/405/405 406/406/406 407/407/407
f 408/408/408 409/409/409 410/410/410
f 411/411/411 412/412/412 413/413/413
f 414/414/414 415/415/415 416/416/416
f 417/417/417 418/418/418 419/419/419
f 420/420/420 421/421/421 422/422/422
f 423/423/423 424/424/424 425/425/425
f 426/426/426 427/427/427 428/428/428
f 429/429/429 430/430/430 431/431/431
f 429/429/429 432/432/432 433/433/433
f 305/305/305 434/434/434 435/435/435
f 428/428/428 436/436/436 303/303/303
f 426/426/426 430/430/430 437/437/437
f 438/438/438 434/434/434 432/432/432
f 439/439/439 440/440/440 441/441/441
f 442/442/442 443/443/443 444/444/444
f 445/445/445 446/446/446 447/447/447
f 448/448/448 449/449/449 450/450/450
f 451/451/451 452/452/452 453/453/453
f 454/454/454 455/455/455 456/456/456
f 457/457/457 458/458/458 459/459/459
f 460/460/460 461/461/461 462/462/462
f 463/463/463 464/464/464 465/465/465
f 466/466/466 467/467/467 468/468/468
f 469/469/469 470/470/470 471/471/471
f 472/472/472 473/473/473 474/474/474
f 475/475/475 476/476/476 477/477/477
f 478/478/478 479/479/479 480/480/480
f 481/481/481 482/482/482 483/483/483
f 484/484/484 485/485/485 486/486/486
f 487/487/487 488/488/488 489/489/489
f 490/490/490 491/491/491 492/492/492
f 493/493/493 494/494/494 495/495/495
f 496/496/496 497/497/497 498/498/498
f 499/499/499 500/500/500 501/501/501
f 502/502/502 503/503/503 504/504/504
f 505/505/505 506/506/506 507/507/507
f 508/508/508 509/509/509 510/510/510
f 511/511/511 512/512/512 513/513/513
f 514/514/514 515/515/515 516/516/516
f 517/517/517 518/518/518 519/519/519
f 520/520/520 521/521/521 522/522/522
f 523/523/523 524/524/524 525/525/525
f 526/526/526 527/527/527 528/528/528
f 529/529/529 530/530/530 531/531/531
f 532/532/532 533/533/533 534/534/534
f 535/535/535 536/536/536 537/537/537
f 538/538/538 539/539/539 540/540/540
f 541/541/541 542/542/542 543/543/543
f 544/544/544 545/545/545 546/546/546
f 511/511/511 545/545/545 547/547/547
f 513/513/513 548/548/548 538/538/538
f 549/549/549 539/539/539 542/542/542
f 541/541/541 550/550/550 544/544/544
f 551/551/551 552/552/552 553/553/553
f 554/554/554 555/555/555 556/556/556
f 557/557/557 558/558/558 559/559/559
f 560/560/560 561/561/561 562/562/562
f 563/563/563 564/564/564 565/565/565
f 566/566/566 567/567/567 568/568/568
f 569/569/569 570/570/570 571/571/571
f 572/572/572 573/573/573 574/574/574
f 575/575/575 576/576/576 577/577/577
f 578/578/578 579/579/579 580/580/580
f 581/581/581 582/582/582 583/583/583
f 584/584/584 585/585/585 586/586/586
f 587/587/587 588/588/588 589/589/589
f 590/590/590 591/591/591 592/592/592
f 593/593/593 594/594/594 595/595/595
f 596/596/596 597/597/597 598/598/598
f 599/599/599 600/600/600 579/579/579
f 582/582/582 601/601/601 583/583/583
f 585/585/585 602/602/602 586/586/586
f 603/603/603 604/604/604 588/588/588
f 605/605/605 606/606/606 591/591/591
f 594/594/594 607/607/607 595/595/595
f 597/597/597 608/608/608 598/598/598
f 609/609/609 610/610/610 576/576/576
f 611/611/611 612/612/612 613/613/613
f 614/614/614 615/615/615 616/616/616
f 617/617/617 618/618/618 619/619/619
f 620/620/620 621/621/621 622/622/622
f 623/623/623 624/624/624 625/625/625
f 626/626/626 627/627/627 628/628/628
f 629/629/629 630/630/630 631/631/631
f 632/632/632 633/633/633 634/634/634
f 635/635/635 636/636/636 637/637/637
f 638/638/638 639/639/639 640/640/640
f 641/641/641 642/642/642 643/643/643
f 644/644/644 645/645/645 646/646/646
f 647/647/647 648/648/648 649/649/649
f 649/649/649 639/639/639 650/650/650
f 638/638/638 651/651/651 641/641/641
f 643/643/643 652/652/652 644/644/644
f 646/646/646 653/653/653 647/647/647
f 654/654/654 655/655/655 656/656/656
f 657/657/657 658/658/658 659/659/659
f 660/660/660 661/661/661 662/662/662
f 663/663/663 664/664/664 665/665/665
f 666/666/666 667/667/667 668/668/668
f 669/669/669 670/670/670 671/671/671
f 672/672/672 673/673/673 674/674/674
f 675/675/675 676/676/676 677/677/677
f 678/678/678 679/679/679 680/680/680
f 681/681/681 682/682/682 683/683/683
f 684/684/684 685/685/685 686/686/686
f 687/687/687 688/688/688 689/689/689
f 690/690/690 691/691/691 692/692/692
f 693/693/693 694/694/694 695/695/695
f 696/696/696 697/697/697 698/698/698
f 699/699/699 700/700/700 701/701/701
f 702/702/702 703/703/703 704/704/704
f 1/1/1 705/705/705 2/2/2
f 4/4/4 706/706/706 5/5/5
f 7/7/7 707/707/707 8/8/8
f 10/10/10 708/708/708 11/11/11
f 13/13/13 709/709/709 14/14/14
f 16/16/16 710/710/710 17/17/17
f 19/19/19 711/711/711 20/20/20
f 22/22/22 712/712/712 23/23/23
f 25/25/25 713/713/713 26/26/26
f 28/28/28 714/714/714 29/29/29
f 31/31/31 715/715/715 32/32/32
f 34/34/34 716/716/716 35/35/35
f 37/37/37 717/717/717 38/38/38
f 40/40/40 718/718/718 41/41/41
f 43/43/43 719/719/719 44/44/44
f 46/46/46 720/720/720 47/47/47
f 49/49/49 721/721/721 50/50/50
f 52/52/52 722/722/722 53/53/53
f 55/55/55 723/723/723 56/56/56
f 58/58/58 724/724/724 59/59/59
f 61/61/61 725/725/725 62/62/62
f 64/64/64 726/726/726 65/65/65
f 67/67/67 727/727/727 68/68/68
f 70/70/70 728/728/728 71/71/71
f 73/73/73 729/729/729 74/74/74
f 76/76/76 730/730/730 77/77/77
f 79/79/79 731/731/731 80/80/80
f 82/82/82 732/732/732 83/83/83
f 85/85/85 733/733/733 86/86/86
f 88/88/88 734/734/734 89/89/89
f 91/91/91 735/735/735 92/92/92
f 94/94/94 736/736/736 95/95/95
f 97/97/97 737/737/737 98/98/98
f 100/100/100 738/738/738 101/101/101
f 103/103/103 139/139/139 104/104/104
f 106/106/106 739/739/739 107/107/107
f 109/109/109 740/740/740 110/110/110
f 112/112/112 741/741/741 113/113/113
f 115/115/115 742/742/742 116/116/116
f 118/118/118 743/743/743 119/119/119
f 121/121/121 744/744/744 122/122/122
f 124/124/124 745/745/745 125/125/125
f 127/127/127 746/746/746 128/128/128
f 130/130/130 140/140/140 131/131/131
f 133/133/133 141/141/141 134/134/134
f 136/136/136 142/142/142 137/137/137
f 132/132/132 131/131/131 139/139/139
f 135/135/135 134/134/134 140/140/140
f 133/133/133 136/136/136 138/138/138
f 105/105/105 104/104/104 137/137/137
f 143/143/143 180/180/180 144/144/144
f 146/146/146 747/747/747 147/147/147
f 149/149/149 748/748/748 150/150/150
f 152/152/152 749/749/749 153/153/153
f 155/155/155 750/750/750 156/156/156
f 158/158/158 751/751/751 159/159/159
f 161/161/161 752/752/752 162/162/162
f 164/164/164 753/753/753 165/165/165
f 167/167/167 754/754/754 168/168/168
f 170/170/170 181/181/181 171/171/171
f 173/173/173 182/182/182 174/174/174
f 176/176/176 179/179/179 177/177/177
f 145/145/145 144/144/144 177/177/177
f 170/170/170 172/172/172 180/180/180
f 173/173/173 175/175/175 171/171/171
f 176/176/176 178/178/178 174/174/174
f 183/183/183 755/755/755 184/184/184
f 186/186/186 756/756/756 187/187/187
f 189/189/189 757/757/757 190/190/190
f 192/192/192 758/758/758 193/193/193
f 195/195/195 759/759/759 196/196/196
f 198/198/198 760/760/760 199/199/199
f 201/201/201 761/761/761 202/202/202
f 204/204/204 762/762/762 205/205/205
f 207/207/207 763/763/763 208/208/208
f 210/210/210 764/764/764 211/211/211
f 213/213/213 765/765/765 214/214/214
f 216/216/216 766/766/766 217/217/217
f 219/219/219 767/767/767 220/220/220
f 222/222/222 768/768/768 223/223/223
f 225/225/225 769/769/769 226/226/226
f 228/228/228 770/770/770 229/229/229
f 231/231/231 771/771/771 232/232/232
f 234/234/234 772/772/772 235/235/235
f 237/237/237 773/773/773 238/238/238
f 240/240/240 774/774/774 241/241/241
f 243/243/243 775/775/775 244/244/244
f 246/246/246 776/776/776 247/247/247
f 249/249/249 777/777/777 250/250/250
f 252/252/252 778/778/778 253/253/253
f 255/255/255 779/779/779 256/256/256
f 258/258/258 780/780/780 259/259/259
f 261/261/261 781/781/781 262/262/262
f 264/264/264 782/782/782 265/265/265
f 267/267/267 783/783/783 268/268/268
f 270/270/270 784/784/784 271/271/271
f 273/273/273 785/785/785 274/274/274
f 276/276/276 786/786/786 277/277/277
f 279/279/279 787/787/787 280/280/280
f 282/282/282 788/788/788 283/283/283
f 285/285/285 789/789/789 286/286/286
f 288/288/288 790/790/790 289/289/289
f 291/291/291 791/791/791 292/292/292
f 294/294/294 792/792/792 295/295/295
f 297/297/297 793/793/793 298/298/298
f 300/300/300 794/794/794 301/301/301
f 303/303/303 436/436/436 304/304/304
f 306/306/306 795/795/795 307/307/307
f 309/309/309 796/796/796 310/310/310
f 312/312/312 797/797/797 313/313/313
f 315/315/315 798/798/798 316/316/316
f 318/318/318 799/799/799 319/319/319
f 321/321/321 800/800/800 322/322/322
f 324/324/324 801/801/801 325/325/325
f 327/327/327 802/802/802 328/328/328
f 330/330/330 803/803/803 331/331/331
f 333/333/333 804/804/804 334/334/334
f 336/336/336 805/805/805 337/337/337
f 339/339/339 806/806/806 340/340/340
f 342/342/342 807/807/807 343/343/343
f 345/345/345 808/808/808 346/346/346
f 348/348/348 809/809/809 349/349/349
f 351/351/351 810/810/810 352/352/352
f 354/354/354 811/811/811 355/355/355
f 357/357/357 812/812/812 358/358/358
f 360/360/360 813/813/813 361/361/361
f 363/363/363 814/814/814 364/364/364
f 366/366/366 815/815/815 367/367/367
f 369/369/369 816/816/816 370/370/370
f 372/372/372 817/817/817 373/373/373
f 375/375/375 818/818/818 376/376/376
f 378/378/378 819/819/819 379/379/379
f 381/381/381 820/820/820 382/382/382
f 384/384/384 821/821/821 385/385/385
f 387/387/387 822/822/822 388/388/388
f 390/390/390 823/823/823 391/391/391
f 393/393/393 824/824/824 394/394/394
f 396/396/396 825/825/825 397/397/397
f 399/399/399 826/826/826 400/400/400
f 402/402/402 827/827/827 403/403/403
f 405/405/405 828/828/828 406/406/406
f 408/408/408 829/829/829 409/409/409
f 411/411/411 830/830/830 412/412/412
f 414/414/414 831/831/831 415/415/415
f 417/417/417 832/832/832 418/418/418
f 420/420/420 833/833/833 421/421/421
f 423/423/423 834/834/834 424/424/424
f 426/426/426 437/437/437 427/427/427
f 429/429/429 433/433/433 430/430/430
f 429/429/429 438/438/438 432/432/432
f 305/305/305 304/304/304 434/434/434
f 428/428/428 427/427/427 436/436/436
f 426/426/426 431/431/431 430/430/430
f 438/438/438 435/435/435 434/434/434
f 439/439/439 835/835/835 440/440/440
f 442/442/442 836/836/836 443/443/443
f 445/445/445 837/837/837 446/446/446
f 448/448/448 838/838/838 449/449/449
f 451/451/451 839/839/839 452/452/452
f 454/454/454 840/840/840 455/455/455
f 457/457/457 841/841/841 458/458/458
f 460/460/460 842/842/842 461/461/461
f 463/463/463 843/843/843 464/464/464
f 466/466/466 844/844/844 467/467/467
f 469/469/469 845/845/845 470/470/470
f 472/472/472 846/846/846 473/473/473
f 475/475/475 847/847/847 476/476/476
f 478/478/478 848/848/848 479/479/479
f 481/481/481 849/849/849 482/482/482
f 484/484/484 850/850/850 485/485/485
f 489/489/489 851/851/851 852/852/852
f 852/852/852 853/853/853 487/487/487
f 487/487/487 854/854/854 488/488/488
f 488/488/488 855/855/855 489/489/489
f 489/489/489 852/852/852 487/487/487
f 490/490/490 856/856/856 491/491/491
f 493/493/493 857/857/857 494/494/494
f 496/496/496 858/858/858 497/497/497
f 499/499/499 859/859/859 500/500/500
f 502/502/502 860/860/860 503/503/503
f 505/505/505 861/861/861 506/506/506
f 508/508/508 862/862/862 509/509/509
f 511/511/511 547/547/547 512/512/512
f 514/514/514 863/863/863 515/515/515
f 517/517/517 864/864/864 518/518/518
f 520/520/520 865/865/865 521/521/521
f 523/523/523 866/866/866 524/524/524
f 526/526/526 867/867/867 527/527/527
f 529/529/529 868/868/868 530/530/530
f 532/532/532 869/869/869 533/533/533
f 535/535/535 870/870/870 536/536/536
f 538/538/538 548/548/548 539/539/539
f 541/541/541 549/549/549 542/542/542
f 544/544/544 550/550/550 545/545/545
f 511/511/511 546/546/546 545/545/545
f 513/513/513 512/512/512 548/548/548
f 549/549/549 540/540/540 539/539/539
f 541/541/541 543/543/543 550/550/550
f 553/553/553 871/871/871 872/872/872
f 872/872/872 873/873/873 551/551/551
f 551/551/551 874/874/874 552/552/552
f 552/552/552 875/875/875 553/553/553
f 553/553/553 872/872/872 551/551/551
f 554/554/554 876/876/876 555/555/555
f 557/557/557 877/877/877 558/558/558
f 560/560/560 878/878/878 561/561/561
f 563/563/563 879/879/879 564/564/564
f 566/566/566 880/880/880 567/567/567
f 569/569/569 881/881/881 570/570/570
f 572/572/572 882/882/882 573/573/573
f 575/575/575 609/609/609 576/576/576
f 578/578/578 599/599/599 579/579/579
f 581/581/581 883/883/883 582/582/582
f 584/584/584 884/884/884 585/585/585
f 587/587/587 603/603/603 588/588/588
f 590/590/590 605/605/605 591/591/591
f 593/593/593 885/885/885 594/594/594
f 596/596/596 886/886/886 597/597/597
f 599/599/599 887/887/887 600/600/600
f 582/582/582 888/888/888 601/601/601
f 585/585/585 889/889/889 602/602/602
f 603/603/603 890/890/890 604/604/604
f 605/605/605 891/891/891 606/606/606
f 594/594/594 892/892/892 607/607/607
f 597/597/597 893/893/893 608/608/608
f 609/609/609 894/894/894 610/610/610
f 611/611/611 895/895/895 612/612/612
f 614/614/614 896/896/896 615/615/615
f 617/617/617 897/897/897 618/618/618
f 620/620/620 898/898/898 621/621/621
f 623/623/623 899/899/899 624/624/624
f 626/626/626 900/900/900 627/627/627
f 629/629/629 901/901/901 630/630/630
f 632/632/632 902/902/902 633/633/633
f 903/903/903 904/904/904 635/635/635
f 635/635/635 905/905/905 636/636/636
f 636/636/636 906/906/906 637/637/637
f 637/637/637 907/907/907 903/903/903
f 903/903/903 635/635/635 637/637/637
f 638/638/638 650/650/650 639/639/639
f 641/641/641 651/651/651 642/642/642
f 644/644/644 652/652/652 645/645/645
f 647/647/647 653/653/653 648/648/648
f 649/649/649 648/648/648 639/639/639
f 638/638/638 640/640/640 651/651/651
f 643/643/643 642/642/642 652/652/652
f 646/646/646 645/645/645 653/653/653
f 654/654/654 908/908/908 655/655/655
f 657/657/657 909/909/909 658/658/658
f 660/660/660 910/910/910 661/661/661
f 663/663/663 911/911/911 664/664/664
f 666/666/666 912/912/912 667/667/667
f 669/669/669 913/913/913 670/670/670
f 672/672/672 914/914/914 673/673/673
f 675/675/675 915/915/915 676/676/676
f 680/680/680 916/916/916 917/917/917
f 917/917/917 918/918/918 678/678/678
f 678/678/678 919/919/919 679/679/679
f 679/679/679 920/920/920 680/680/680
f 680/680/680 917/917/917 678/678/678
f 681/681/681 921/921/921 682/682/682
f 684/684/684 922/922/922 685/685/685
f 687/687/687 923/923/923 688/688/688
f 690/690/690 924/924/924 691/691/691
f 693/693/693 925/925/925 694/694/694
f 696/696/696 926/926/926 697/697/697
f 699/699/699 927/927/927 700/700/700
f 702/702/702 928/928/928 703/703/703
