# Cube -- imported by tools/import_asset_pack.py from flashlight.fbx
o __pending__
v -0.067246 0.010308 -0.015626
v -0.083766 0.033557 -0.002163
v -0.067246 0.012387 -0.002329
v -0.083766 -0.003401 0.034114
v -0.088431 0.026240 0.027346
v -0.088431 -0.003449 0.039322
v -0.088432 -0.032910 0.026796
v -0.105047 -0.003449 0.039322
v -0.105047 -0.032910 0.026796
v -0.083766 -0.002720 -0.039121
v -0.067246 -0.002886 -0.021235
v -0.083766 -0.028712 -0.028636
v -0.088431 -0.002672 -0.044328
v -0.088432 -0.032360 -0.032353
v -0.105047 -0.044885 -0.002892
v -0.105047 -0.032360 -0.032353
v -0.067246 -0.021792 -0.002678
v -0.013813 -0.014781 0.009001
v -0.067246 -0.016429 0.010619
v -0.067246 0.012387 -0.002329
v -0.013813 0.008660 -0.014008
v -0.067246 0.010308 -0.015626
v -0.051857 0.011898 0.003343
v -0.054184 0.013009 -0.009486
v -0.054241 0.013056 0.004718
v -0.029907 0.008924 0.004829
v -0.054243 0.009262 -0.009474
v -0.029850 0.008878 -0.009375
v -0.013813 -0.014565 -0.014224
v -0.010176 -0.020979 -0.002670
v -0.013813 -0.019483 -0.002656
v -0.029791 0.012625 -0.009387
v -0.054243 0.009262 -0.009474
v -0.054184 0.013009 -0.009486
v -0.029848 0.012671 0.004817
v -0.029850 0.008878 -0.009375
v -0.029791 0.012625 -0.009387
v -0.029791 0.012625 -0.009387
v -0.032221 0.011589 0.003422
v -0.029848 0.012671 0.004817
v -0.067246 -0.016183 -0.015872
v 0.064393 -0.014669 0.008891
v -0.010176 -0.015837 0.010079
v -0.067246 0.010308 -0.015626
v -0.013813 -0.002908 -0.018926
v -0.067246 -0.002886 -0.021235
v -0.010176 0.011317 -0.002337
v 0.064394 0.008334 0.009105
v 0.064394 0.013205 -0.002352
v -0.067246 -0.003235 0.016228
v -0.013813 -0.014781 0.009001
v -0.013813 -0.003213 0.013919
v -0.010176 0.009801 -0.015086
v -0.013813 0.008444 0.009217
v -0.013813 0.010078 -0.002351
v -0.054184 0.013009 -0.009486
v -0.054300 0.009308 0.004730
v -0.054241 0.013056 0.004718
v 0.064393 -0.014455 -0.014112
v 0.064393 -0.019326 -0.002655
v -0.010176 -0.002851 -0.020465
v 0.064394 0.008548 -0.013898
v 0.064394 -0.002909 -0.018769
v -0.010176 -0.015601 -0.015322
v 0.064393 -0.014455 -0.014112
v -0.013813 -0.014565 -0.014224
v -0.010176 -0.003185 0.015458
v 0.064394 0.008334 0.009105
v -0.010176 0.009565 0.010315
v -0.013813 0.008660 -0.014008
v -0.013813 0.008444 0.009217
v 0.064394 0.008548 -0.013898
v -0.029848 0.012671 0.004817
v -0.054300 0.009308 0.004730
v -0.029907 0.008924 0.004829
v -0.051811 0.011861 -0.008091
v -0.032175 0.011552 -0.008012
v -0.029848 0.012671 0.004817
v -0.051857 0.011898 0.003343
v -0.054241 0.013056 0.004718
v -0.010176 -0.015837 0.010079
v 0.064394 -0.003212 0.013762
v 0.079186 0.008693 0.009470
v 0.087649 0.017691 -0.002311
v 0.079186 0.013717 -0.002348
v 0.069102 0.007275 0.008026
v 0.069102 0.011693 -0.002366
v -0.067246 -0.016183 -0.015872
v -0.067246 0.010062 0.010865
v 0.079186 -0.015034 0.009250
v 0.087649 -0.003254 0.018248
v 0.079186 -0.003217 0.014274
v 0.079186 -0.019838 -0.002659
v 0.087649 -0.017598 -0.017313
v 0.087649 -0.023812 -0.002696
v 0.087649 -0.017871 0.012034
v 0.079186 -0.015034 0.009250
v 0.069102 -0.017814 -0.002641
v 0.069102 -0.013590 0.007832
v 0.069102 -0.013590 0.007832
v 0.069102 -0.003198 0.012250
v 0.079186 -0.014814 -0.014477
v 0.079186 -0.014814 -0.014477
v 0.087649 -0.002868 -0.023255
v 0.087649 -0.017598 -0.017313
v 0.069102 -0.013396 -0.013032
v 0.079186 -0.002905 -0.019281
v -0.088432 -0.032910 0.026796
v -0.088432 -0.044885 -0.002892
v -0.083766 -0.039678 -0.002844
v -0.088432 -0.032360 -0.032353
v -0.067246 0.010062 0.010865
v -0.088432 -0.032360 -0.032353
v -0.105047 -0.002672 -0.044328
v -0.088431 -0.002672 -0.044328
v -0.083766 0.022591 0.023630
v -0.067246 -0.003235 0.016228
v -0.088431 0.038765 -0.002115
v -0.105047 0.026240 0.027346
v -0.088431 0.026240 0.027346
v -0.088431 0.026789 -0.031803
v -0.083766 0.023073 -0.028155
v -0.083766 -0.029193 0.023148
v -0.067246 -0.016429 0.010619
v -0.105047 -0.040074 -0.002847
v -0.110767 -0.028990 -0.028919
v -0.110767 -0.040074 -0.002847
v -0.088432 -0.032910 0.026796
v -0.088432 -0.044885 -0.002892
v -0.067246 -0.021792 -0.002678
v -0.088431 0.038765 -0.002115
v -0.088431 -0.003449 0.039322
v -0.105047 0.026240 0.027346
v -0.067246 -0.016183 -0.015872
v -0.088431 0.026789 -0.031803
v -0.105047 0.038765 -0.002115
v 0.087649 0.011476 0.012306
v 0.105402 0.017691 -0.002311
v -0.105047 0.026789 -0.031803
v -0.088431 0.026789 -0.031803
v -0.105047 0.033953 -0.002159
v -0.083207 0.003076 -0.008527
v -0.083207 0.005538 -0.002424
v -0.105047 -0.032910 0.026796
v -0.110767 -0.044885 -0.002892
v -0.105047 -0.028990 -0.028919
v -0.110767 -0.002716 -0.039517
v -0.110767 -0.028990 -0.028919
v -0.110767 -0.032360 -0.032353
v -0.105047 -0.002716 -0.039517
v -0.110767 0.023356 -0.028433
v -0.105047 -0.032360 -0.032353
v -0.110767 -0.002672 -0.044328
v -0.105047 0.033953 -0.002159
v -0.110767 0.023356 -0.028433
v -0.105047 0.023356 -0.028433
v -0.110767 0.026789 -0.031803
v -0.083207 -0.003140 0.006095
v -0.083207 0.002963 0.003633
v -0.105047 0.022869 0.023912
v -0.105047 -0.003404 0.034510
v -0.105047 -0.029476 0.023426
v -0.083207 -0.011658 -0.002583
v -0.105047 -0.040074 -0.002847
v -0.105047 -0.002716 -0.039517
v -0.083207 -0.009084 -0.008640
v -0.083207 -0.002980 -0.011102
v -0.105047 0.023356 -0.028433
v -0.083207 -0.009197 0.003520
v -0.105047 -0.028990 -0.028919
v 0.069102 -0.002923 -0.017257
v 0.079186 0.008913 -0.014257
v 0.105402 0.011749 -0.017041
v 0.109233 -0.002941 -0.015436
v 0.105401 -0.002868 -0.023255
v 0.087649 0.011749 -0.017041
v 0.105401 -0.017598 -0.017313
v 0.109233 -0.015993 -0.002624
v 0.105401 -0.023812 -0.002696
v 0.079186 0.008913 -0.014257
v 0.087649 0.011749 -0.017041
v 0.079186 0.008693 0.009470
v 0.069102 0.007275 0.008026
v 0.105401 -0.003254 0.018248
v 0.109233 -0.012291 0.006556
v 0.109233 -0.003181 0.010429
v 0.109233 0.009871 -0.002383
v 0.109233 0.006169 -0.011563
v 0.069102 0.007468 -0.012839
v 0.087649 0.011476 0.012306
v 0.105402 0.011476 0.012306
v 0.105402 0.017691 -0.002311
v 0.105401 -0.002868 -0.023255
v 0.105401 -0.017598 -0.017313
v 0.105401 -0.017871 0.012034
v 0.109233 -0.012121 -0.011733
v 0.109233 0.005999 0.006726
v 0.087649 -0.017871 0.012034
v 0.105401 -0.003254 0.018248
v 0.105401 -0.017598 -0.017313
v 0.105401 -0.023812 -0.002696
v 0.105401 -0.017871 0.012034
v 0.105402 0.011476 0.012306
v 0.105402 0.011749 -0.017041
v 0.105402 0.011749 -0.017041
v -0.110767 -0.003449 0.039322
v -0.110767 0.022869 0.023912
v -0.110767 -0.003404 0.034510
v -0.110767 -0.032910 0.026796
v -0.110767 -0.040074 -0.002847
v -0.110767 -0.044885 -0.002892
v -0.110767 -0.032360 -0.032353
v -0.110767 -0.002716 -0.039517
v -0.110767 -0.002672 -0.044328
v -0.110767 0.023356 -0.028433
v -0.110767 0.026789 -0.031803
v -0.110767 0.026240 0.027346
v -0.110767 0.033953 -0.002159
v -0.110767 -0.029476 0.023426
v -0.110767 -0.028990 -0.028919
v -0.110767 0.038765 -0.002115
v -0.110767 -0.003449 0.039322
v -0.110767 -0.032910 0.026796
v -0.110767 -0.029476 0.023426
v -0.105047 -0.029476 0.023426
v -0.110767 0.026240 0.027346
v -0.105047 -0.029476 0.023426
v -0.110767 -0.003404 0.034510
v -0.105047 -0.003404 0.034510
v -0.110767 0.026240 0.027346
v -0.110767 0.022869 0.023912
v -0.105047 0.022869 0.023912
v -0.105047 0.026789 -0.031803
v -0.110767 0.038765 -0.002115
v -0.105047 0.022869 0.023912
v -0.110767 0.033953 -0.002159
v 0.069102 0.007468 -0.012839
v -0.105396 0.022965 0.024010
v -0.105396 -0.029574 0.023522
v -0.105396 -0.029085 -0.029017
v -0.054300 0.009308 0.004730
v -0.010176 -0.015601 -0.015322
v -0.029850 0.008878 -0.009375
v -0.029907 0.008924 0.004829
v -0.010176 0.009565 0.010315
v -0.067246 -0.016429 0.010619
v -0.067246 0.010062 0.010865
v -0.054243 0.009262 -0.009474
v -0.010176 0.009801 -0.015086
v -0.054241 0.013056 0.004718
v -0.032221 0.011589 0.003422
v 0.064393 -0.014669 0.008891
v 0.069102 -0.013396 -0.013032
v -0.105047 -0.028990 -0.028919
v -0.088431 0.026240 0.027346
v 0.105402 0.011476 0.012306
v -0.110767 -0.032910 0.026796
v -0.105047 0.023356 -0.028433
v -0.110767 -0.032360 -0.032353
v 0.105401 -0.017871 0.012034
v -0.110767 -0.029476 0.023426
v -0.110767 0.026789 -0.031803
v -0.110767 0.022869 0.023912
v -0.105396 -0.002715 -0.039654
v -0.105396 0.023453 -0.028529
v -0.105396 0.034090 -0.002158
v -0.105396 -0.003406 0.034647
v -0.105396 -0.040211 -0.002849
vt 0.589283 0.467271
vt 0.519302 0.557117
vt 0.602205 0.522883
vt 0.722279 0.641193
vt 0.594958 0.661600
vt 0.730769 0.661600
vt 0.836994 0.759202
vt 0.904180 0.896387
vt 0.907357 0.760705
vt 0.603378 0.354140
vt 0.632292 0.424262
vt 0.722279 0.354140
vt 0.594958 0.333724
vt 0.928401 0.752187
vt 0.861172 0.615026
vt 0.858040 0.750709
vt 0.055858 0.994154
vt 0.020203 0.770403
vt 0.011297 0.996492
vt 0.433114 0.263794
vt 0.475734 0.489048
vt 0.484361 0.262752
vt 0.007707 0.161882
vt 0.060986 0.151079
vt 0.003508 0.152077
vt 0.250946 0.151971
vt 0.307172 0.254435
vt 0.307172 0.151033
vt 0.112563 0.768463
vt 0.057062 0.752610
vt 0.059272 0.768353
vt 0.477218 0.255737
vt 0.491795 0.152044
vt 0.477218 0.152426
vt 0.314188 0.255372
vt 0.330088 0.195111
vt 0.314188 0.195112
vt 0.060986 0.254420
vt 0.007707 0.245069
vt 0.003508 0.255418
vt 0.116641 0.994280
vt 0.020811 0.439166
vt 0.014332 0.754852
vt 0.254178 0.264584
vt 0.311192 0.490506
vt 0.315001 0.264565
vt 0.431797 0.505520
vt 0.381689 0.821696
vt 0.434239 0.821916
vt 0.179584 0.994180
vt 0.236286 0.768474
vt 0.182995 0.768365
vt 0.481539 0.504601
vt 0.381373 0.490222
vt 0.430294 0.489893
vt 0.105748 0.195158
vt 0.089848 0.255418
vt 0.105748 0.255418
vt 0.112286 0.437245
vt 0.059505 0.437135
vt 0.313563 0.506223
vt 0.258114 0.821854
vt 0.310930 0.821837
vt 0.354534 0.504136
vt 0.348033 0.819947
vt 0.348653 0.488597
vt 0.180551 0.752619
vt 0.144529 0.439143
vt 0.137820 0.754837
vt 0.257866 0.490523
vt 0.143926 0.770392
vt 0.475148 0.820534
vt 0.068002 0.152031
vt 0.082832 0.255152
vt 0.082832 0.151765
vt 0.053976 0.161078
vt 0.053976 0.244265
vt 0.229110 0.255423
vt 0.235801 0.162473
vt 0.229110 0.152113
vt 0.238835 0.752739
vt 0.183225 0.437135
vt 0.380661 0.884478
vt 0.439719 0.921242
vt 0.434864 0.884705
vt 0.384728 0.841419
vt 0.432391 0.841618
vt 0.357729 0.262388
vt 0.135022 0.996492
vt 0.236909 0.374474
vt 0.176593 0.337636
vt 0.182468 0.374363
vt 0.058749 0.374364
vt 0.120211 0.337768
vt 0.052874 0.337628
vt 0.003508 0.340219
vt 0.018837 0.376458
vt 0.061742 0.417533
vt 0.026645 0.419375
vt 0.233333 0.417626
vt 0.185460 0.417528
vt 0.113191 0.374477
vt 0.350044 0.882665
vt 0.318327 0.921251
vt 0.365662 0.918840
vt 0.342088 0.839774
vt 0.311773 0.884615
vt 0.928401 0.516917
vt 0.931533 0.616503
vt 0.806354 0.438216
vt 0.730769 0.333724
vt 0.632292 0.571104
vt 0.467419 0.024471
vt 0.399820 0.118428
vt 0.470203 0.119960
vt 0.603378 0.641193
vt 0.693116 0.571104
vt 0.796099 0.220303
vt 0.868768 0.086072
vt 0.798344 0.085196
vt 0.498925 0.429756
vt 0.519302 0.438216
vt 0.806354 0.557117
vt 0.736125 0.528095
vt 0.902015 0.206842
vt 0.924273 0.326708
vt 0.926259 0.207143
vt 0.826801 0.565567
vt 0.826801 0.429757
vt 0.736125 0.467271
vt 0.498925 0.565567
vt 0.833817 0.894884
vt 0.907217 0.995975
vt 0.693116 0.424262
vt 0.798344 0.325530
vt 0.866523 0.221179
vt 0.372677 0.920962
vt 0.439719 0.996492
vt 0.396908 0.254205
vt 0.467292 0.255737
vt 0.789084 0.241722
vt 0.677856 0.167689
vt 0.677856 0.195608
vt 0.858040 0.515439
vt 0.836949 0.614517
vt 0.127351 0.046700
vt 0.154262 0.135349
vt 0.151575 0.047218
vt 0.833817 0.750200
vt 0.130038 0.134832
vt 0.151450 0.255423
vt 0.397035 0.022939
vt 0.375589 0.117900
vt 0.185501 0.167293
vt 0.164049 0.254915
vt 0.188272 0.255423
vt 0.372678 0.253677
vt 0.630194 0.215350
vt 0.658114 0.215350
vt 0.704098 0.326708
vt 0.583911 0.326708
vt 0.498925 0.241722
vt 0.610452 0.167689
vt 0.498925 0.121535
vt 0.704099 0.036549
vt 0.630194 0.147947
vt 0.658114 0.147947
vt 0.789084 0.121535
vt 0.610452 0.195608
vt 0.583911 0.036549
vt 0.308435 0.841488
vt 0.257296 0.884632
vt 0.833817 0.392886
vt 0.894129 0.375891
vt 0.881463 0.345239
vt 0.250946 0.921273
vt 0.948846 0.345239
vt 0.965816 0.405584
vt 0.996492 0.392886
vt 0.477060 0.883279
vt 0.491910 0.919479
vt 0.142555 0.376434
vt 0.150363 0.419350
vt 0.948846 0.507915
vt 0.965816 0.447578
vt 0.936122 0.477271
vt 0.864436 0.447578
vt 0.864436 0.405584
vt 0.469496 0.840365
vt 0.127226 0.340198
vt 0.881464 0.507915
vt 0.833817 0.460268
vt 0.318327 0.996470
vt 0.365662 0.994059
vt 0.003508 0.265024
vt 0.936122 0.375891
vt 0.894129 0.477271
vt 0.243930 0.337774
vt 0.176593 0.262439
vt 0.120211 0.262574
vt 0.052874 0.262434
vt 0.996492 0.460268
vt 0.127226 0.265000
vt 0.491910 0.994729
vt 0.250946 0.996492
vt 0.594958 0.996492
vt 0.722957 0.977633
vt 0.602770 0.977633
vt 0.498925 0.900459
vt 0.517784 0.772460
vt 0.498925 0.764649
vt 0.594958 0.668616
vt 0.722957 0.687475
vt 0.730769 0.668616
vt 0.807943 0.772460
vt 0.826801 0.764649
vt 0.730769 0.996492
vt 0.807943 0.892648
vt 0.517784 0.892648
vt 0.602770 0.687475
vt 0.826801 0.900459
vt 0.928404 0.896904
vt 0.931581 0.761222
vt 0.924273 0.114021
vt 0.900028 0.113719
vt 0.931441 0.996492
vt 0.222095 0.050762
vt 0.195288 0.170392
vt 0.219519 0.170919
vt 0.893012 0.086374
vt 0.197752 0.254896
vt 0.221982 0.255423
vt 0.868768 0.326406
vt 0.890768 0.221481
vt 0.188272 0.047218
vt 0.161277 0.166784
vt 0.260531 0.841504
vt 0.257268 0.401850
vt 0.395857 0.344444
vt 0.338451 0.205855
vt 0.250946 0.255372
vt 0.115346 0.752731
vt 0.491795 0.255354
vt 0.330088 0.255371
vt 0.378335 0.505885
vt 0.240367 0.994304
vt 0.376734 0.264091
vt 0.089848 0.195158
vt 0.255240 0.506242
vt 0.068002 0.255418
vt 0.235801 0.245635
vt 0.236006 0.437243
vt 0.109614 0.417633
vt 0.900028 0.326407
vt 0.836854 0.994472
vt 0.372677 0.996213
vt 0.833817 0.514931
vt 0.127226 0.254906
vt 0.372804 0.022412
vt 0.243930 0.262577
vt 0.197864 0.050234
vt 0.893012 0.326708
vt 0.164049 0.046709
vt 0.257268 0.205855
vt 0.199862 0.263260
vt 0.199862 0.344444
vt 0.338451 0.401850
vt 0.395857 0.263260
vn 0.499629 0.668445 -0.550956
vn 0.748608 0.662984 0.006154
vn 0.473884 0.880545 0.008575
vn 0.740673 -0.006249 0.671837
vn 0.374874 0.649421 0.661606
vn 0.374878 -0.008618 0.927034
vn 0.374878 -0.661603 0.649421
vn 0.000000 -0.009292 0.999957
vn -0.000001 -0.713647 0.700505
vn 0.740673 0.006239 -0.671837
vn 0.460825 0.008250 -0.887452
vn 0.740670 -0.470651 -0.479475
vn 0.374878 0.008613 -0.927034
vn 0.374878 -0.649419 -0.661605
vn -0.000001 -0.999957 -0.009292
vn -0.000001 -0.700506 -0.713647
vn 0.460822 -0.887454 -0.008253
vn -0.183856 -0.702227 0.687804
vn 0.460818 -0.633359 0.621694
vn 0.473884 0.880545 0.008575
vn -0.191105 0.789745 -0.582908
vn 0.499629 0.668445 -0.550956
vn 0.168772 0.945496 -0.278485
vn -0.494036 0.682954 -0.538054
vn -0.498571 0.686277 0.529577
vn 0.565864 -0.584490 0.581524
vn -0.584063 -0.570055 -0.577847
vn 0.570471 -0.588249 -0.573172
vn -0.183926 -0.689330 -0.700711
vn -0.174610 -0.984595 -0.009161
vn -0.182301 -0.983201 -0.009121
vn 0.519309 0.667852 -0.533191
vn -0.584063 -0.570055 -0.577847
vn -0.494036 0.682954 -0.538054
vn 0.515249 0.671181 0.532949
vn 0.570471 -0.588249 -0.573172
vn 0.519309 0.667852 -0.533191
vn 0.519309 0.667852 -0.533191
vn -0.139025 0.950118 -0.279192
vn 0.515249 0.671181 0.532949
vn 0.460822 -0.621690 -0.633359
vn 0.160367 -0.704442 0.691407
vn -0.175835 -0.701981 0.690148
vn 0.499629 0.668445 -0.550956
vn -0.187777 0.007608 -0.982182
vn 0.460825 0.008250 -0.887452
vn -0.155040 0.987862 0.009539
vn 0.150040 0.697800 0.700403
vn 0.136869 0.990547 0.009149
vn 0.460825 -0.008245 0.887453
vn -0.183856 -0.702227 0.687804
vn -0.187677 -0.010647 0.982173
vn -0.178550 0.783579 -0.595083
vn -0.191049 0.778542 0.597806
vn -0.144322 0.989485 0.009507
vn -0.494036 0.682954 -0.538054
vn -0.588671 -0.566320 0.576844
vn -0.498571 0.686277 0.529577
vn 0.160371 -0.691471 -0.704378
vn 0.160288 -0.987028 -0.009172
vn -0.178895 0.010254 -0.983815
vn 0.149966 0.710744 -0.687279
vn 0.160571 0.009099 -0.986982
vn -0.175890 -0.689016 -0.703079
vn 0.160371 -0.691471 -0.704378
vn -0.183926 -0.689330 -0.700711
vn -0.178817 -0.008032 0.983850
vn 0.150040 0.697800 0.700403
vn -0.178513 0.772209 0.609776
vn -0.191105 0.789745 -0.582908
vn -0.191049 0.778542 0.597806
vn 0.149966 0.710744 -0.687279
vn 0.515249 0.671181 0.532949
vn -0.588671 -0.566320 0.576844
vn 0.565864 -0.584490 0.581524
vn 0.166473 0.946958 0.274876
vn -0.141164 0.951576 0.273088
vn 0.515249 0.671181 0.532949
vn 0.168772 0.945496 -0.278485
vn -0.498571 0.686277 0.529577
vn -0.175835 -0.701981 0.690148
vn 0.160566 -0.009246 0.986982
vn -0.322301 0.663123 0.675567
vn -0.207259 0.978244 0.009091
vn -0.322297 0.946598 0.008797
vn 0.060134 0.699243 0.712351
vn 0.060138 0.998147 0.009276
vn 0.460822 -0.621690 -0.633359
vn 0.499497 0.657987 0.563521
vn -0.322315 -0.675563 0.663120
vn -0.207267 -0.009088 0.978242
vn -0.322308 -0.008798 0.946594
vn -0.322318 -0.946590 -0.008797
vn -0.207274 -0.685289 -0.698152
vn -0.207274 -0.978241 -0.009091
vn -0.207275 -0.698147 0.685295
vn -0.322315 -0.675563 0.663120
vn 0.060124 -0.998148 -0.009276
vn 0.060130 -0.712352 0.699241
vn 0.060130 -0.712352 0.699241
vn 0.060132 -0.009270 0.998147
vn -0.322315 -0.663122 -0.675561
vn -0.322315 -0.663122 -0.675561
vn -0.207267 0.009095 -0.978242
vn -0.207274 -0.685289 -0.698152
vn 0.060129 -0.699234 -0.712360
vn -0.322308 0.008796 -0.946594
vn 0.374878 -0.661603 0.649421
vn 0.374877 -0.927035 -0.008615
vn 0.740670 -0.671840 -0.006244
vn 0.374878 -0.649419 -0.661605
vn 0.499497 0.657987 0.563521
vn 0.374878 -0.649419 -0.661605
vn -0.000000 0.009294 -0.999957
vn 0.374878 0.008613 -0.927034
vn 0.740674 0.470644 0.479475
vn 0.460825 -0.008245 0.887453
vn 0.374880 0.927033 0.008615
vn 0.000001 0.700505 0.713648
vn 0.374874 0.649421 0.661606
vn 0.374879 0.661602 -0.649422
vn 0.740674 0.479470 -0.470650
vn 0.740669 -0.479481 0.470645
vn 0.460818 -0.633359 0.621694
vn -0.404066 0.914690 0.008499
vn -0.804197 0.416355 0.424165
vn -0.804184 0.594355 0.005524
vn 0.374878 -0.661603 0.649421
vn 0.374877 -0.927035 -0.008615
vn 0.460822 -0.887454 -0.008253
vn 0.374880 0.927033 0.008615
vn 0.374878 -0.008618 0.927034
vn 0.000001 0.700505 0.713648
vn 0.460822 -0.621690 -0.633359
vn 0.374879 0.661602 -0.649422
vn 0.000001 0.999957 0.009294
vn -0.207258 0.685297 0.698149
vn 0.478212 0.878207 0.008162
vn 0.000001 0.713648 -0.700504
vn 0.374879 0.661602 -0.649422
vn -0.404063 -0.914692 -0.008504
vn -0.920883 -0.278206 0.273085
vn -0.920879 -0.389831 -0.003623
vn -0.000001 -0.713647 0.700505
vn -0.630251 -0.776358 -0.007217
vn -0.404066 0.640775 0.652792
vn -0.804190 -0.005523 0.594346
vn -0.804197 0.416355 0.424165
vn -0.630251 -0.543862 -0.554074
vn -0.404065 -0.008498 0.914691
vn -0.804191 -0.424171 0.416360
vn -0.000001 -0.700506 -0.713647
vn -0.630252 0.007219 -0.776358
vn -0.404063 -0.914692 -0.008504
vn -0.804191 -0.424171 0.416360
vn -0.404063 -0.652797 0.640773
vn -0.630250 0.554072 -0.543865
vn -0.920885 0.003626 -0.389818
vn -0.920883 -0.273082 -0.278209
vn -0.404066 -0.640772 -0.652796
vn -0.404065 0.008504 -0.914691
vn -0.404064 0.652797 -0.640772
vn -0.920881 0.389827 0.003624
vn -0.404066 0.914690 0.008499
vn -0.404065 -0.008498 0.914691
vn -0.920885 0.273082 0.278203
vn -0.920885 -0.003620 0.389819
vn -0.404063 -0.652797 0.640773
vn -0.920885 0.278207 -0.273080
vn -0.404066 0.640775 0.652792
vn 0.060132 0.009283 -0.998147
vn -0.322301 0.675564 -0.663125
vn 0.478238 0.626741 -0.615211
vn 0.960622 0.002578 -0.277846
vn 0.478224 0.008148 -0.878200
vn -0.207258 0.698154 -0.685292
vn 0.478220 -0.615220 -0.626745
vn 0.960623 -0.277844 -0.002582
vn 0.478226 -0.878199 -0.008158
vn -0.322301 0.675564 -0.663125
vn -0.207258 0.698154 -0.685292
vn -0.322301 0.663123 0.675567
vn 0.060134 0.699243 0.712351
vn 0.478224 -0.008175 0.878200
vn 0.960624 -0.198289 0.194636
vn 0.960625 -0.002586 0.277838
vn 0.960624 0.277840 0.002582
vn 0.960623 0.198288 -0.194640
vn 0.060134 0.712362 -0.699232
vn -0.207258 0.685297 0.698149
vn 0.478239 0.615198 0.626753
vn 0.478212 0.878207 0.008162
vn 0.478224 0.008148 -0.878200
vn 0.478220 -0.615220 -0.626745
vn 0.478210 -0.626764 0.615209
vn 0.960622 -0.194643 -0.198291
vn 0.960624 0.194635 0.198290
vn -0.207275 -0.698147 0.685295
vn 0.478224 -0.008175 0.878200
vn 0.478220 -0.615220 -0.626745
vn 0.478226 -0.878199 -0.008158
vn 0.478210 -0.626764 0.615209
vn 0.478239 0.615198 0.626753
vn 0.478238 0.626741 -0.615211
vn 0.478238 0.626741 -0.615211
vn -0.630250 -0.007211 0.776359
vn -0.804191 -0.416360 -0.424170
vn -0.804197 0.005524 -0.594338
vn -0.630248 -0.554070 0.543869
vn -0.804184 0.594355 0.005524
vn -0.630251 -0.776358 -0.007217
vn -0.630251 -0.543862 -0.554074
vn -0.804190 -0.005523 0.594346
vn -0.630252 0.007219 -0.776358
vn -0.804191 -0.424171 0.416360
vn -0.630250 0.554072 -0.543865
vn -0.630253 0.543865 0.554068
vn -0.804193 -0.594343 -0.005520
vn -0.804192 0.424171 -0.416359
vn -0.804197 0.416355 0.424165
vn -0.630250 0.776359 0.007218
vn -0.630250 -0.007211 0.776359
vn -0.630248 -0.554070 0.543869
vn -0.804192 0.424171 -0.416359
vn -0.404064 0.652797 -0.640772
vn -0.630253 0.543865 0.554068
vn -0.404064 0.652797 -0.640772
vn -0.804197 0.005524 -0.594338
vn -0.404065 0.008504 -0.914691
vn -0.630253 0.543865 0.554068
vn -0.804191 -0.416360 -0.424170
vn -0.404066 -0.640772 -0.652796
vn 0.000001 0.713648 -0.700504
vn -0.630250 0.776359 0.007218
vn -0.404066 -0.640772 -0.652796
vn -0.804193 -0.594343 -0.005520
vn 0.060134 0.712362 -0.699232
vn 1.000000 -0.000003 -0.000000
vn 1.000000 -0.000003 -0.000000
vn 1.000000 -0.000003 0.000000
vn -0.588671 -0.566320 0.576844
vn -0.175890 -0.689016 -0.703079
vn 0.570471 -0.588249 -0.573172
vn 0.565864 -0.584490 0.581524
vn -0.178513 0.772209 0.609776
vn 0.460818 -0.633359 0.621694
vn 0.499497 0.657987 0.563521
vn -0.584063 -0.570055 -0.577847
vn -0.178550 0.783579 -0.595083
vn -0.498571 0.686277 0.529577
vn -0.139025 0.950118 -0.279192
vn 0.160367 -0.704442 0.691407
vn 0.060129 -0.699234 -0.712360
vn -0.404066 0.640775 0.652792
vn 0.374874 0.649421 0.661606
vn 0.478239 0.615198 0.626753
vn -0.630248 -0.554070 0.543869
vn -0.404063 -0.652797 0.640773
vn -0.630251 -0.543862 -0.554074
vn 0.478210 -0.626764 0.615209
vn -0.804192 0.424171 -0.416359
vn -0.630250 0.554072 -0.543865
vn -0.804191 -0.416360 -0.424170
vn 1.000000 -0.000003 0.000001
vn 1.000000 -0.000003 0.000000
vn 1.000000 -0.000001 0.000000
vn 1.000000 -0.000003 -0.000001
vn 1.000000 -0.000003 0.000000
f 1/1/1 2/2/2 3/3/3
f 4/4/4 5/5/5 6/6/6
f 7/7/7 8/8/8 9/9/9
f 10/10/10 1/1/1 11/11/11
f 12/12/12 13/13/13 10/10/10
f 14/14/14 15/15/15 16/16/16
f 17/17/17 18/18/18 19/19/19
f 20/20/20 21/21/21 22/22/22
f 23/23/23 24/24/24 25/25/25
f 26/26/26 27/27/27 28/28/28
f 29/29/29 30/30/30 31/31/31
f 32/32/32 33/33/33 34/34/34
f 35/35/35 36/36/36 37/37/37
f 38/38/38 39/39/39 40/40/40
f 41/41/41 31/31/31 17/17/17
f 30/30/30 42/42/42 43/43/43
f 44/44/44 45/45/45 46/46/46
f 47/47/47 48/48/48 49/49/49
f 50/50/50 51/51/51 52/52/52
f 21/21/21 47/47/47 53/53/53
f 20/20/20 54/54/54 55/55/55
f 56/56/56 57/57/57 58/58/58
f 30/30/30 59/59/59 60/60/60
f 61/61/61 62/62/62 63/63/63
f 64/64/64 63/63/63 65/65/65
f 45/45/45 64/64/64 66/66/66
f 67/67/67 68/68/68 69/69/69
f 70/70/70 61/61/61 45/45/45
f 71/71/71 67/67/67 69/69/69
f 47/47/47 72/72/72 53/53/53
f 73/73/73 74/74/74 75/75/75
f 76/76/76 38/38/38 24/24/24
f 23/23/23 77/77/77 76/76/76
f 78/78/78 79/79/79 80/80/80
f 81/81/81 82/82/82 67/67/67
f 18/18/18 30/30/30 43/43/43
f 54/54/54 47/47/47 55/55/55
f 52/52/52 81/81/81 67/67/67
f 83/83/83 84/84/84 85/85/85
f 86/86/86 85/85/85 87/87/87
f 46/46/46 66/66/66 88/88/88
f 89/89/89 52/52/52 71/71/71
f 90/90/90 91/91/91 92/92/92
f 93/93/93 94/94/94 95/95/95
f 93/93/93 96/96/96 97/97/97
f 98/98/98 97/97/97 99/99/99
f 100/100/100 92/92/92 101/101/101
f 98/98/98 102/102/102 93/93/93
f 103/103/103 104/104/104 105/105/105
f 106/106/106 107/107/107 103/103/103
f 108/108/108 15/15/15 109/109/109
f 110/110/110 111/111/111 12/12/12
f 2/2/2 112/112/112 3/3/3
f 113/113/113 114/114/114 115/115/115
f 2/2/2 5/5/5 116/116/116
f 112/112/112 4/4/4 117/117/117
f 118/118/118 119/119/119 120/120/120
f 10/10/10 121/121/121 122/122/122
f 117/117/117 123/123/123 124/124/124
f 125/125/125 126/126/126 127/127/127
f 110/110/110 128/128/128 129/129/129
f 124/124/124 110/110/110 130/130/130
f 122/122/122 131/131/131 2/2/2
f 132/132/132 133/133/133 8/8/8
f 110/110/110 134/134/134 130/130/130
f 135/135/135 136/136/136 118/118/118
f 123/123/123 6/6/6 128/128/128
f 12/12/12 11/11/11 134/134/134
f 137/137/137 138/138/138 84/84/84
f 115/115/115 139/139/139 140/140/140
f 141/141/141 142/142/142 143/143/143
f 144/144/144 145/145/145 15/15/15
f 146/146/146 147/147/147 148/148/148
f 15/15/15 149/149/149 16/16/16
f 150/150/150 151/151/151 147/147/147
f 152/152/152 153/153/153 114/114/114
f 154/154/154 155/155/155 156/156/156
f 114/114/114 157/157/157 139/139/139
f 158/158/158 159/159/159 143/143/143
f 160/160/160 158/158/158 161/161/161
f 162/162/162 163/163/163 164/164/164
f 165/165/165 166/166/166 167/167/167
f 168/168/168 167/167/167 142/142/142
f 141/141/141 159/159/159 160/160/160
f 161/161/161 169/169/169 162/162/162
f 164/164/164 166/166/166 170/170/170
f 171/171/171 172/172/172 107/107/107
f 173/173/173 174/174/174 175/175/175
f 107/107/107 176/176/176 104/104/104
f 177/177/177 178/178/178 179/179/179
f 180/180/180 84/84/84 181/181/181
f 101/101/101 182/182/182 183/183/183
f 184/184/184 185/185/185 186/186/186
f 173/173/173 187/187/187 188/188/188
f 189/189/189 85/85/85 180/180/180
f 92/92/92 190/190/190 182/182/182
f 191/191/191 187/187/187 192/192/192
f 105/105/105 193/193/193 194/194/194
f 95/95/95 195/195/195 96/96/96
f 175/175/175 196/196/196 177/177/177
f 191/191/191 186/186/186 197/197/197
f 196/196/196 188/188/188 197/197/197
f 198/198/198 199/199/199 91/91/91
f 95/95/95 200/200/200 201/201/201
f 179/179/179 185/185/185 202/202/202
f 91/91/91 203/203/203 190/190/190
f 181/181/181 138/138/138 204/204/204
f 104/104/104 205/205/205 193/193/193
f 206/206/206 207/207/207 208/208/208
f 209/209/209 210/210/210 211/211/211
f 212/212/212 213/213/213 214/214/214
f 214/214/214 215/215/215 216/216/216
f 217/217/217 218/218/218 207/207/207
f 206/206/206 219/219/219 209/209/209
f 212/212/212 210/210/210 220/220/220
f 221/221/221 215/215/215 218/218/218
f 9/9/9 222/222/222 223/223/223
f 125/125/125 224/224/224 225/225/225
f 8/8/8 226/226/226 222/222/222
f 227/227/227 228/228/228 229/229/229
f 136/136/136 230/230/230 119/119/119
f 229/229/229 231/231/231 232/232/232
f 233/233/233 234/234/234 136/136/136
f 235/235/235 236/236/236 154/154/154
f 72/72/72 87/87/87 189/189/189
f 82/82/82 183/183/183 68/68/68
f 63/63/63 237/237/237 171/171/171
f 63/63/63 106/106/106 65/65/65
f 59/59/59 98/98/98 60/60/60
f 82/82/82 100/100/100 101/101/101
f 42/42/42 98/98/98 99/99/99
f 48/48/48 87/87/87 49/49/49
f 238/238/238 239/239/239 240/240/240
f 1/1/1 122/122/122 2/2/2
f 4/4/4 116/116/116 5/5/5
f 7/7/7 132/132/132 8/8/8
f 10/10/10 122/122/122 1/1/1
f 12/12/12 111/111/111 13/13/13
f 14/14/14 109/109/109 15/15/15
f 17/17/17 31/31/31 18/18/18
f 20/20/20 55/55/55 21/21/21
f 23/23/23 76/76/76 24/24/24
f 26/26/26 241/241/241 27/27/27
f 29/29/29 242/242/242 30/30/30
f 32/32/32 243/243/243 33/33/33
f 35/35/35 244/244/244 36/36/36
f 38/38/38 77/77/77 39/39/39
f 41/41/41 29/29/29 31/31/31
f 30/30/30 60/60/60 42/42/42
f 44/44/44 70/70/70 45/45/45
f 47/47/47 245/245/245 48/48/48
f 50/50/50 246/246/246 51/51/51
f 21/21/21 55/55/55 47/47/47
f 20/20/20 247/247/247 54/54/54
f 56/56/56 248/248/248 57/57/57
f 30/30/30 242/242/242 59/59/59
f 61/61/61 249/249/249 62/62/62
f 64/64/64 61/61/61 63/63/63
f 45/45/45 61/61/61 64/64/64
f 67/67/67 82/82/82 68/68/68
f 70/70/70 249/249/249 61/61/61
f 71/71/71 52/52/52 67/67/67
f 47/47/47 49/49/49 72/72/72
f 73/73/73 250/250/250 74/74/74
f 76/76/76 77/77/77 38/38/38
f 23/23/23 39/39/39 77/77/77
f 78/78/78 251/251/251 79/79/79
f 81/81/81 252/252/252 82/82/82
f 18/18/18 31/31/31 30/30/30
f 54/54/54 245/245/245 47/47/47
f 52/52/52 51/51/51 81/81/81
f 83/83/83 137/137/137 84/84/84
f 86/86/86 83/83/83 85/85/85
f 46/46/46 45/45/45 66/66/66
f 89/89/89 50/50/50 52/52/52
f 90/90/90 198/198/198 91/91/91
f 93/93/93 102/102/102 94/94/94
f 93/93/93 95/95/95 96/96/96
f 98/98/98 93/93/93 97/97/97
f 100/100/100 90/90/90 92/92/92
f 98/98/98 253/253/253 102/102/102
f 103/103/103 107/107/107 104/104/104
f 106/106/106 171/171/171 107/107/107
f 108/108/108 144/144/144 15/15/15
f 110/110/110 129/129/129 111/111/111
f 2/2/2 116/116/116 112/112/112
f 113/113/113 152/152/152 114/114/114
f 2/2/2 131/131/131 5/5/5
f 112/112/112 116/116/116 4/4/4
f 118/118/118 136/136/136 119/119/119
f 10/10/10 13/13/13 121/121/121
f 117/117/117 4/4/4 123/123/123
f 125/125/125 254/254/254 126/126/126
f 110/110/110 123/123/123 128/128/128
f 124/124/124 123/123/123 110/110/110
f 122/122/122 121/121/121 131/131/131
f 132/132/132 255/255/255 133/133/133
f 110/110/110 12/12/12 134/134/134
f 135/135/135 233/233/233 136/136/136
f 123/123/123 4/4/4 6/6/6
f 12/12/12 10/10/10 11/11/11
f 137/137/137 256/256/256 138/138/138
f 115/115/115 114/114/114 139/139/139
f 141/141/141 168/168/168 142/142/142
f 144/144/144 257/257/257 145/145/145
f 146/146/146 150/150/150 147/147/147
f 15/15/15 145/145/145 149/149/149
f 150/150/150 258/258/258 151/151/151
f 152/152/152 259/259/259 153/153/153
f 154/154/154 236/236/236 155/155/155
f 114/114/114 153/153/153 157/157/157
f 143/143/143 142/142/142 167/167/167
f 167/167/167 166/166/166 143/143/143
f 166/166/166 163/163/163 143/143/143
f 163/163/163 169/169/169 143/143/143
f 169/169/169 158/158/158 143/143/143
f 160/160/160 159/159/159 158/158/158
f 162/162/162 169/169/169 163/163/163
f 165/165/165 170/170/170 166/166/166
f 168/168/168 165/165/165 167/167/167
f 141/141/141 143/143/143 159/159/159
f 161/161/161 158/158/158 169/169/169
f 164/164/164 163/163/163 166/166/166
f 171/171/171 237/237/237 172/172/172
f 173/173/173 188/188/188 174/174/174
f 107/107/107 172/172/172 176/176/176
f 177/177/177 196/196/196 178/178/178
f 180/180/180 85/85/85 84/84/84
f 101/101/101 92/92/92 182/182/182
f 184/184/184 202/202/202 185/185/185
f 173/173/173 192/192/192 187/187/187
f 189/189/189 87/87/87 85/85/85
f 92/92/92 91/91/91 190/190/190
f 191/191/191 197/197/197 187/187/187
f 105/105/105 104/104/104 193/193/193
f 95/95/95 201/201/201 195/195/195
f 175/175/175 174/174/174 196/196/196
f 191/191/191 184/184/184 186/186/186
f 196/196/196 174/174/174 188/188/188
f 188/188/188 187/187/187 197/197/197
f 197/197/197 186/186/186 196/196/196
f 186/186/186 185/185/185 196/196/196
f 185/185/185 178/178/178 196/196/196
f 198/198/198 260/260/260 199/199/199
f 95/95/95 94/94/94 200/200/200
f 179/179/179 178/178/178 185/185/185
f 91/91/91 199/199/199 203/203/203
f 181/181/181 84/84/84 138/138/138
f 104/104/104 176/176/176 205/205/205
f 206/206/206 217/217/217 207/207/207
f 209/209/209 219/219/219 210/210/210
f 212/212/212 220/220/220 213/213/213
f 214/214/214 213/213/213 215/215/215
f 217/217/217 221/221/221 218/218/218
f 206/206/206 208/208/208 219/219/219
f 212/212/212 211/211/211 210/210/210
f 221/221/221 216/216/216 215/215/215
f 9/9/9 8/8/8 222/222/222
f 125/125/125 127/127/127 224/224/224
f 8/8/8 133/133/133 226/226/226
f 227/227/227 261/261/261 228/228/228
f 136/136/136 234/234/234 230/230/230
f 229/229/229 228/228/228 231/231/231
f 233/233/233 262/262/262 234/234/234
f 235/235/235 263/263/263 236/236/236
f 72/72/72 49/49/49 87/87/87
f 82/82/82 101/101/101 183/183/183
f 63/63/63 62/62/62 237/237/237
f 63/63/63 171/171/171 106/106/106
f 59/59/59 253/253/253 98/98/98
f 82/82/82 252/252/252 100/100/100
f 42/42/42 60/60/60 98/98/98
f 48/48/48 86/86/86 87/87/87
f 240/240/240 264/264/264 265/265/265
f 265/265/265 266/266/266 238/238/238
f 238/238/238 267/267/267 239/239/239
f 239/239/239 268/268/268 240/240/240
f 240/240/240 265/265/265 238/238/238
