# Cube -- imported by tools/import_asset_pack.py from handflashlight.fbx
o __pending__
v -0.090640 0.025069 -0.035776
v -0.077216 0.037616 -0.004669
v -0.077216 0.025069 -0.035776
v -0.090640 -0.006613 0.038746
v -0.097981 0.039898 0.041892
v -0.097981 -0.006817 0.060735
v -0.097981 -0.053174 0.041027
v -0.124125 -0.006817 0.060735
v -0.124126 -0.053174 0.041027
v -0.090640 -0.005798 -0.048899
v -0.077216 0.025069 -0.035776
v -0.077217 -0.005799 -0.048899
v -0.090640 -0.036905 -0.036352
v -0.097981 -0.005594 -0.070888
v -0.090640 -0.005798 -0.048899
v -0.097981 -0.072017 -0.005688
v -0.124126 -0.052309 -0.052045
v -0.097981 -0.052309 -0.052045
v -0.058989 0.028827 0.047474
v -0.058989 -0.042309 0.047474
v -0.058989 -0.054215 0.035568
v 0.068397 0.040733 0.035568
v 0.068397 0.040733 -0.035568
v 0.068397 0.028827 -0.047474
v -0.077173 0.028827 -0.047474
v -0.077173 -0.042309 -0.047474
v -0.077173 -0.054215 -0.035568
v -0.077173 -0.042309 0.047474
v -0.058989 -0.054215 0.035568
v -0.058989 -0.042309 0.047474
v -0.077173 0.028827 0.047474
v -0.058989 -0.042309 0.047474
v -0.058989 0.028827 0.047474
v -0.077173 0.040733 0.035568
v -0.058989 0.028827 0.047474
v -0.058989 0.040733 0.035568
v -0.077173 0.040733 -0.035568
v -0.058989 0.040733 0.035568
v -0.058989 0.040733 -0.035568
v -0.077173 0.028827 -0.047474
v -0.058989 0.040733 -0.035568
v -0.058989 0.028827 -0.047474
v -0.077173 -0.042309 -0.047474
v -0.058989 0.028827 -0.047474
v -0.058989 -0.042309 -0.047474
v -0.077173 -0.054215 -0.035568
v -0.058989 -0.042309 -0.047474
v -0.058989 -0.054215 -0.035568
v -0.077173 -0.054215 0.035568
v -0.058989 -0.054215 -0.035568
v -0.058989 -0.054215 0.035568
v 0.086582 0.028827 0.047474
v 0.086582 -0.042309 0.047474
v 0.086582 -0.054215 0.035568
v 0.086582 -0.042309 -0.047474
v 0.068397 -0.054215 -0.035568
v 0.068397 -0.042309 -0.047474
v 0.086582 0.028827 -0.047474
v 0.068397 -0.042309 -0.047474
v 0.068397 0.028827 -0.047474
v 0.086582 0.040733 -0.035568
v 0.068397 0.028827 -0.047474
v 0.068397 0.040733 -0.035568
v 0.086582 0.040733 0.035568
v 0.068397 0.040733 -0.035568
v 0.068397 0.040733 0.035568
v 0.086582 0.028827 0.047474
v 0.068397 0.040733 0.035568
v 0.068397 0.028827 0.047474
v 0.086582 -0.042309 0.047474
v 0.068397 0.028827 0.047474
v 0.068397 -0.042309 0.047474
v 0.086582 -0.054215 0.035568
v 0.068397 -0.042309 0.047474
v 0.068397 -0.054215 0.035568
v 0.086582 -0.054215 -0.035568
v 0.068397 -0.054215 0.035568
v 0.068397 -0.054215 -0.035568
v -0.082783 0.102282 -0.010571
v -0.084969 0.099154 0.005725
v -0.082783 0.102282 0.010571
v 0.085738 0.102282 -0.010571
v 0.090861 0.088635 -0.010571
v 0.085738 0.088635 -0.010571
v 0.090861 0.088635 0.010571
v 0.092881 0.099274 0.005911
v 0.090861 0.102282 0.010571
v -0.076321 0.102282 0.010571
v -0.082783 0.088635 0.010571
v -0.076321 0.088635 0.010571
v 0.090861 0.088635 -0.010571
v 0.085738 0.088635 0.010571
v 0.085738 0.088635 -0.010571
v -0.082783 0.102282 -0.010571
v -0.076321 0.102282 0.010571
v -0.076321 0.102282 -0.010571
v -0.059897 0.102282 -0.010571
v 0.068916 0.102282 0.010571
v 0.068916 0.102282 -0.010571
v -0.059897 0.102282 0.010571
v -0.076321 0.088635 -0.010571
v -0.082783 0.088635 0.010571
v -0.082783 0.088635 -0.010571
v -0.061132 0.086128 -0.008981
v -0.073157 0.039565 -0.006498
v -0.075086 0.086128 -0.008981
v 0.068916 0.102282 0.010571
v -0.059897 0.088635 0.010571
v 0.068916 0.088635 0.010571
v -0.059897 0.102282 0.010571
v -0.082783 0.102282 -0.010571
v -0.076321 0.088635 -0.010571
v -0.082783 0.088635 -0.010571
v -0.076321 0.102282 -0.010571
v -0.059897 0.088635 -0.010571
v 0.090861 0.102282 0.010571
v 0.085738 0.088635 0.010571
v 0.090861 0.088635 0.010571
v 0.085738 0.102282 0.010571
v 0.085738 0.102282 -0.010571
v 0.090861 0.102282 0.010571
v 0.090861 0.102282 -0.010571
v 0.085738 0.102282 0.010571
v 0.068916 0.088635 -0.010571
v -0.059897 0.088635 0.010571
v -0.059897 0.088635 -0.010571
v 0.084417 0.085183 -0.008911
v 0.072157 0.039829 -0.006498
v 0.070237 0.085183 -0.008911
v -0.059897 0.102282 -0.010571
v 0.068916 0.088635 -0.010571
v 0.068916 0.102282 -0.010571
v -0.063061 0.039565 -0.006498
v -0.073157 0.039565 0.006498
v -0.073157 0.039565 -0.006498
v -0.075086 0.086128 -0.008981
v -0.073157 0.039565 0.006498
v -0.075086 0.086128 0.008981
v -0.061132 0.086128 0.008981
v -0.063061 0.039565 -0.006498
v -0.061132 0.086128 -0.008981
v -0.061132 0.086128 0.008981
v -0.073157 0.039565 0.006498
v -0.063061 0.039565 0.006498
v 0.082497 0.039829 -0.006498
v 0.072157 0.039829 0.006498
v 0.072157 0.039829 -0.006498
v 0.070237 0.085183 0.008911
v 0.082497 0.039829 0.006498
v 0.084417 0.085183 0.008911
v 0.070237 0.085183 -0.008911
v 0.072157 0.039829 0.006498
v 0.070237 0.085183 0.008911
v 0.084417 0.085183 0.008911
v 0.082497 0.039829 -0.006498
v 0.084417 0.085183 -0.008911
v -0.076321 0.088635 0.010571
v -0.061132 0.086128 0.008981
v -0.059897 0.088635 0.010571
v -0.059897 0.088635 -0.010571
v -0.061132 0.086128 0.008981
v -0.061132 0.086128 -0.008981
v -0.076321 0.088635 -0.010571
v -0.075086 0.086128 0.008981
v -0.076321 0.088635 0.010571
v -0.059897 0.088635 -0.010571
v -0.075086 0.086128 -0.008981
v -0.076321 0.088635 -0.010571
v 0.085738 0.088635 0.010571
v 0.084417 0.085183 -0.008911
v 0.085738 0.088635 -0.010571
v 0.068916 0.088635 -0.010571
v 0.070237 0.085183 0.008911
v 0.068916 0.088635 0.010571
v 0.068916 0.088635 0.010571
v 0.084417 0.085183 0.008911
v 0.085738 0.088635 0.010571
v 0.085738 0.088635 -0.010571
v 0.070237 0.085183 -0.008911
v 0.068916 0.088635 -0.010571
v -0.084969 0.099154 0.005725
v -0.084969 0.091763 -0.005725
v -0.084969 0.091763 0.005725
v -0.082783 0.088635 0.010571
v -0.084969 0.091763 -0.005725
v -0.082783 0.088635 -0.010571
v -0.082783 0.088635 -0.010571
v -0.084969 0.099154 -0.005725
v -0.082783 0.102282 -0.010571
v -0.082783 0.088635 0.010571
v -0.084969 0.099154 0.005725
v -0.084969 0.091763 0.005725
v 0.092881 0.099274 -0.005911
v 0.092881 0.091643 0.005911
v 0.092881 0.091643 -0.005911
v 0.090861 0.088635 -0.010571
v 0.092881 0.091643 0.005911
v 0.090861 0.088635 0.010571
v 0.090861 0.102282 0.010571
v 0.092881 0.099274 -0.005911
v 0.090861 0.102282 -0.010571
v 0.090861 0.102282 -0.010571
v 0.092881 0.091643 -0.005911
v 0.090861 0.088635 -0.010571
v 0.068985 -0.049135 -0.031762
v -0.059343 -0.049135 0.031762
v -0.059343 -0.049135 -0.031762
v 0.068985 0.025021 0.042395
v -0.059343 -0.038503 0.042395
v 0.068985 -0.038503 0.042395
v -0.059343 0.035654 -0.031762
v 0.068985 0.035654 0.031762
v 0.068985 0.035654 -0.031762
v -0.059343 -0.049135 -0.031762
v 0.068985 -0.038503 -0.042395
v 0.068985 -0.049135 -0.031762
v -0.059343 0.035654 0.031762
v 0.068985 0.025021 0.042395
v 0.068985 0.035654 0.031762
v 0.068985 -0.049135 0.031762
v -0.059343 -0.038503 0.042395
v -0.059343 -0.049135 0.031762
v 0.068985 0.035654 -0.031762
v -0.059343 0.025021 -0.042395
v -0.059343 0.035654 -0.031762
v -0.059343 0.025021 -0.042395
v 0.068985 -0.038503 -0.042395
v -0.059343 -0.038503 -0.042395
v -0.097981 -0.053174 0.041027
v -0.124126 -0.072017 -0.005688
v -0.097981 -0.072017 -0.005688
v -0.090640 -0.050028 -0.005484
v -0.097981 -0.052309 -0.052045
v -0.090640 -0.036905 -0.036352
v -0.077216 0.037616 -0.004669
v -0.090640 0.024493 0.026199
v -0.077216 0.024493 0.026199
v -0.097981 -0.052309 -0.052045
v -0.124125 -0.005594 -0.070888
v -0.097981 -0.005594 -0.070888
v -0.090640 0.037617 -0.004669
v -0.097981 0.039898 0.041892
v -0.090640 0.024493 0.026199
v -0.077216 0.024493 0.026199
v -0.090640 -0.006613 0.038746
v -0.077217 -0.006613 0.038746
v -0.097981 0.039898 0.041892
v -0.124125 0.059606 -0.004465
v -0.124125 0.039898 0.041892
v -0.090640 -0.005798 -0.048899
v -0.097981 0.040763 -0.051180
v -0.090640 0.025069 -0.035776
v -0.077217 -0.006613 0.038746
v -0.090640 -0.037481 0.025623
v -0.077217 -0.037481 0.025623
v -0.124126 -0.047005 -0.046642
v -0.127119 -0.064446 -0.005618
v -0.124126 -0.064446 -0.005618
v -0.090640 -0.050028 -0.005484
v -0.097981 -0.053174 0.041027
v -0.097981 -0.072017 -0.005688
v -0.077217 -0.037481 0.025623
v -0.090640 -0.050028 -0.005484
v -0.077217 -0.050028 -0.005484
v -0.090640 0.037617 -0.004669
v -0.097981 0.040763 -0.051180
v -0.097981 0.059606 -0.004465
v -0.097981 -0.006817 0.060735
v -0.124125 0.039898 0.041892
v -0.124125 -0.006817 0.060735
v -0.090640 -0.050028 -0.005484
v -0.077217 -0.036905 -0.036352
v -0.077217 -0.050028 -0.005484
v -0.097981 0.040763 -0.051180
v -0.124125 0.059606 -0.004465
v -0.097981 0.059606 -0.004465
v -0.090640 -0.037481 0.025623
v -0.097981 -0.006817 0.060735
v -0.097981 -0.053174 0.041027
v -0.090640 -0.036905 -0.036352
v -0.077217 -0.005799 -0.048899
v -0.077217 -0.036905 -0.036352
v -0.077217 -0.036905 -0.036352
v -0.077216 0.025069 -0.035776
v -0.077216 0.024493 0.026199
v -0.097981 -0.005594 -0.070888
v -0.124125 0.040763 -0.051180
v -0.097981 0.040763 -0.051180
v -0.124125 0.052035 -0.004535
v -0.089760 0.003450 -0.014554
v -0.089760 0.007324 -0.004951
v -0.127119 -0.053174 0.041027
v -0.127119 -0.072017 -0.005688
v -0.124125 -0.005664 -0.063317
v -0.127119 -0.047005 -0.046642
v -0.124126 -0.047005 -0.046642
v -0.124126 -0.072017 -0.005688
v -0.127119 -0.052309 -0.052045
v -0.124125 0.035360 -0.045876
v -0.127119 -0.005664 -0.063317
v -0.124125 -0.005664 -0.063317
v -0.124126 -0.052309 -0.052045
v -0.127119 -0.005594 -0.070888
v -0.124125 0.052035 -0.004535
v -0.127119 0.035360 -0.045876
v -0.124125 0.035360 -0.045876
v -0.124125 -0.005594 -0.070888
v -0.127119 0.040763 -0.051180
v -0.089760 -0.006331 0.008453
v -0.089760 0.003272 0.004579
v -0.089760 0.007324 -0.004951
v -0.124125 0.034594 0.036489
v -0.089760 -0.006331 0.008453
v -0.124125 -0.006747 0.053164
v -0.124126 -0.047771 0.035723
v -0.089760 -0.019735 -0.005202
v -0.124126 -0.064446 -0.005618
v -0.124125 -0.005664 -0.063317
v -0.089760 -0.015683 -0.014732
v -0.089760 -0.006080 -0.018606
v -0.124125 0.035360 -0.045876
v -0.089760 -0.006080 -0.018606
v -0.089760 0.003450 -0.014554
v -0.124125 0.052035 -0.004535
v -0.089760 0.003272 0.004579
v -0.124125 0.034594 0.036489
v -0.124125 -0.006747 0.053164
v -0.089760 -0.015861 0.004401
v -0.124126 -0.047771 0.035723
v -0.124126 -0.047005 -0.046642
v -0.089760 -0.019735 -0.005202
v -0.089760 -0.015683 -0.014732
v 0.089140 -0.042828 -0.010296
v 0.087168 -0.041111 0.008053
v 0.089140 -0.042828 0.010296
v 0.089140 -0.027066 0.010296
v 0.086289 -0.042828 0.010296
v 0.089140 -0.042828 0.010296
v 0.089140 -0.042828 -0.010296
v 0.086289 -0.042828 0.010296
v 0.086289 -0.042828 -0.010296
v 0.086289 -0.027066 0.010296
v 0.086289 -0.042828 -0.010296
v 0.086289 -0.042828 0.010296
v 0.086289 -0.027066 -0.010296
v 0.089140 -0.042828 -0.010296
v 0.086289 -0.042828 -0.010296
v 0.086289 -0.027066 -0.010296
v 0.089140 -0.027066 0.010296
v 0.089140 -0.027066 -0.010296
v 0.087168 -0.028783 -0.008053
v 0.087168 -0.041111 0.008053
v 0.087168 -0.041111 -0.008053
v 0.089140 -0.042828 0.010296
v 0.087168 -0.028783 0.008053
v 0.089140 -0.027066 0.010296
v 0.089140 -0.027066 -0.010296
v 0.087168 -0.041111 -0.008053
v 0.089140 -0.042828 -0.010296
v 0.089140 -0.027066 0.010296
v 0.087168 -0.028783 -0.008053
v 0.089140 -0.027066 -0.010296
v 0.089354 -0.036763 0.002465
v 0.089354 -0.033054 0.004484
v 0.089354 -0.033054 0.002465
v 0.089354 -0.036763 0.004484
v 0.087978 -0.033054 0.004484
v 0.089354 -0.033054 0.004484
v 0.087978 -0.036763 0.004484
v 0.087978 -0.033054 0.002465
v 0.087978 -0.033054 0.004484
v 0.087978 -0.036763 0.002465
v 0.089354 -0.033054 0.002465
v 0.087978 -0.033054 0.002465
v 0.087978 -0.033054 0.004484
v 0.089354 -0.033054 0.002465
v 0.089354 -0.033054 0.004484
v 0.089354 -0.036763 0.004484
v 0.087978 -0.036763 0.002465
v 0.087978 -0.036763 0.004484
v 0.089354 -0.036763 -0.004074
v 0.089354 -0.033054 -0.002056
v 0.089354 -0.033054 -0.004074
v 0.089354 -0.036763 -0.002056
v 0.087978 -0.033054 -0.002056
v 0.089354 -0.033054 -0.002056
v 0.087978 -0.036763 -0.002056
v 0.087978 -0.033054 -0.004074
v 0.087978 -0.033054 -0.002056
v 0.087978 -0.036763 -0.004074
v 0.089354 -0.033054 -0.004074
v 0.087978 -0.033054 -0.004074
v 0.087978 -0.033054 -0.002056
v 0.089354 -0.033054 -0.004074
v 0.089354 -0.033054 -0.002056
v 0.089354 -0.036763 -0.002056
v 0.087978 -0.036763 -0.004074
v 0.087978 -0.036763 -0.002056
v -0.127119 0.039898 0.041892
v -0.127119 -0.006747 0.053164
v -0.127119 -0.006817 0.060735
v -0.127119 -0.072017 -0.005688
v -0.127119 -0.047771 0.035723
v -0.127119 -0.064446 -0.005618
v -0.127119 -0.052309 -0.052045
v -0.127119 -0.005664 -0.063317
v -0.127119 -0.005594 -0.070888
v -0.127119 0.040763 -0.051180
v -0.127119 0.035360 -0.045876
v -0.127119 0.059606 -0.004465
v -0.127119 0.034594 0.036489
v -0.127119 -0.053174 0.041027
v -0.127119 -0.047005 -0.046642
v -0.127119 0.052035 -0.004535
v -0.127119 -0.006817 0.060735
v -0.127119 -0.053174 0.041027
v -0.124126 -0.064446 -0.005618
v -0.127119 -0.047771 0.035723
v -0.124126 -0.047771 0.035723
v -0.127119 -0.006817 0.060735
v -0.124126 -0.047771 0.035723
v -0.127119 -0.006747 0.053164
v -0.124125 -0.006747 0.053164
v -0.127119 0.039898 0.041892
v -0.124125 -0.006747 0.053164
v -0.127119 0.034594 0.036489
v -0.124125 0.034594 0.036489
v -0.124125 0.040763 -0.051180
v -0.127119 0.059606 -0.004465
v -0.124125 0.034594 0.036489
v -0.127119 0.052035 -0.004535
v -0.124125 0.052035 -0.004535
v -0.123902 0.034594 0.036489
v -0.123902 -0.047771 0.035723
v -0.123902 -0.047005 -0.046642
v -0.090640 0.037617 -0.004669
v -0.090640 0.024493 0.026199
v -0.097981 -0.006817 0.060735
v -0.090640 0.025069 -0.035776
v -0.097981 -0.052309 -0.052045
v -0.058989 -0.054215 -0.035568
v -0.058989 0.040733 -0.035568
v -0.058989 -0.042309 -0.047474
v -0.058989 0.028827 -0.047474
v -0.058989 0.040733 0.035568
v 0.068397 -0.042309 -0.047474
v 0.068397 -0.054215 -0.035568
v 0.068397 -0.054215 0.035568
v 0.068397 -0.042309 0.047474
v 0.068397 0.028827 0.047474
v -0.077173 -0.054215 0.035568
v -0.077173 0.040733 0.035568
v -0.077173 -0.042309 0.047474
v -0.077173 0.028827 0.047474
v -0.077173 0.040733 -0.035568
v -0.077173 -0.054215 0.035568
v -0.077173 -0.042309 0.047474
v -0.077173 0.028827 0.047474
v -0.077173 0.040733 0.035568
v -0.077173 0.040733 -0.035568
v -0.077173 0.028827 -0.047474
v -0.077173 -0.042309 -0.047474
v -0.077173 -0.054215 -0.035568
v 0.086582 -0.054215 -0.035568
v 0.086582 0.040733 -0.035568
v 0.086582 -0.042309 -0.047474
v 0.086582 0.028827 -0.047474
v 0.086582 0.040733 0.035568
v 0.086582 -0.054215 -0.035568
v 0.086582 -0.042309 -0.047474
v 0.086582 0.028827 -0.047474
v 0.086582 0.040733 -0.035568
v 0.086582 0.040733 0.035568
v 0.086582 0.028827 0.047474
v 0.086582 -0.042309 0.047474
v 0.086582 -0.054215 0.035568
v -0.084969 0.099154 -0.005725
v 0.090861 0.102282 -0.010571
v 0.092881 0.091643 0.005911
v -0.082783 0.102282 0.010571
v 0.090861 0.088635 0.010571
v -0.082783 0.102282 0.010571
v -0.076321 0.088635 0.010571
v -0.063061 0.039565 -0.006498
v 0.068916 0.088635 0.010571
v 0.082497 0.039829 -0.006498
v -0.063061 0.039565 0.006498
v -0.073157 0.039565 -0.006498
v -0.063061 0.039565 0.006498
v -0.075086 0.086128 0.008981
v 0.082497 0.039829 0.006498
v 0.072157 0.039829 0.006498
v 0.072157 0.039829 -0.006498
v 0.082497 0.039829 0.006498
v -0.075086 0.086128 0.008981
v -0.059897 0.088635 0.010571
v -0.075086 0.086128 -0.008981
v -0.061132 0.086128 -0.008981
v 0.084417 0.085183 0.008911
v 0.070237 0.085183 -0.008911
v 0.070237 0.085183 0.008911
v 0.084417 0.085183 -0.008911
v -0.084969 0.099154 -0.005725
v -0.084969 0.091763 0.005725
v -0.084969 0.091763 -0.005725
v -0.082783 0.102282 0.010571
v 0.092881 0.099274 0.005911
v 0.092881 0.091643 -0.005911
v 0.092881 0.099274 0.005911
v 0.092881 0.099274 -0.005911
v 0.068985 -0.049135 0.031762
v -0.059343 0.025021 0.042395
v -0.059343 0.035654 0.031762
v -0.059343 -0.038503 -0.042395
v -0.059343 0.025021 0.042395
v 0.068985 -0.038503 0.042395
v 0.068985 0.025021 -0.042395
v 0.068985 0.025021 -0.042395
v -0.124126 -0.053174 0.041027
v -0.097981 -0.072017 -0.005688
v -0.090640 0.037617 -0.004669
v -0.097981 0.059606 -0.004465
v -0.090640 0.024493 0.026199
v -0.097981 0.059606 -0.004465
v -0.097981 -0.005594 -0.070888
v -0.090640 -0.006613 0.038746
v -0.127119 -0.047005 -0.046642
v -0.090640 -0.037481 0.025623
v -0.090640 -0.037481 0.025623
v -0.090640 0.025069 -0.035776
v -0.097981 0.039898 0.041892
v -0.090640 -0.036905 -0.036352
v -0.090640 -0.006613 0.038746
v -0.090640 -0.005798 -0.048899
v -0.077217 -0.005799 -0.048899
v -0.077216 0.037616 -0.004669
v -0.077217 -0.006613 0.038746
v -0.077217 -0.037481 0.025623
v -0.077217 -0.050028 -0.005484
v -0.124125 0.035360 -0.045876
v -0.127119 -0.005664 -0.063317
v -0.127119 -0.072017 -0.005688
v -0.127119 0.035360 -0.045876
v -0.127119 -0.052309 -0.052045
v -0.127119 0.052035 -0.004535
v -0.127119 -0.005594 -0.070888
v -0.089760 0.003450 -0.014554
v -0.089760 -0.006080 -0.018606
v -0.089760 -0.015683 -0.014732
v -0.089760 -0.019735 -0.005202
v -0.089760 -0.015861 0.004401
v -0.089760 0.003272 0.004579
v -0.089760 -0.015861 0.004401
v -0.124126 -0.047005 -0.046642
v -0.124125 -0.005664 -0.063317
v -0.089760 0.007324 -0.004951
v -0.089760 -0.006331 0.008453
v -0.124126 -0.064446 -0.005618
v 0.087168 -0.041111 -0.008053
v 0.086289 -0.027066 0.010296
v 0.089140 -0.042828 0.010296
v 0.086289 -0.027066 -0.010296
v 0.089140 -0.027066 -0.010296
v 0.086289 -0.027066 0.010296
v 0.087168 -0.028783 0.008053
v 0.087168 -0.041111 0.008053
v 0.087168 -0.028783 -0.008053
v 0.087168 -0.028783 0.008053
v 0.089354 -0.036763 0.004484
v 0.087978 -0.036763 0.004484
v 0.087978 -0.036763 0.002465
v 0.089354 -0.036763 0.002465
v 0.087978 -0.033054 0.002465
v 0.089354 -0.036763 0.002465
v 0.089354 -0.036763 -0.002056
v 0.087978 -0.036763 -0.002056
v 0.087978 -0.036763 -0.004074
v 0.089354 -0.036763 -0.004074
v 0.087978 -0.033054 -0.004074
v 0.089354 -0.036763 -0.004074
v -0.127119 -0.064446 -0.005618
v -0.127119 0.039898 0.041892
v -0.127119 -0.047771 0.035723
v -0.127119 0.059606 -0.004465
v -0.127119 -0.006747 0.053164
v -0.127119 0.040763 -0.051180
v -0.127119 0.034594 0.036489
v -0.123902 -0.005664 -0.063317
v -0.123902 0.035360 -0.045876
v -0.123902 0.052035 -0.004535
v -0.123902 -0.006747 0.053164
v -0.123902 -0.064446 -0.005618
vt 0.353886 0.186613
vt 0.329476 0.130032
vt 0.329439 0.186597
vt 0.649368 0.953593
vt 0.573562 0.990318
vt 0.665223 0.990379
vt 0.417747 0.122841
vt 0.465360 0.209005
vt 0.465361 0.122841
vt 0.960113 0.682256
vt 0.984560 0.737328
vt 0.984560 0.682256
vt 0.649368 0.806139
vt 0.573562 0.768875
vt 0.588333 0.806099
vt 0.816150 0.652737
vt 0.768590 0.737325
vt 0.816204 0.737294
vt 0.770943 0.990379
vt 0.900370 0.990379
vt 0.922033 0.968695
vt 0.730595 0.332236
vt 0.730595 0.461786
vt 0.752259 0.483470
vt 0.752259 0.291310
vt 0.881691 0.291310
vt 0.903355 0.269627
vt 0.167625 0.272570
vt 0.134508 0.249796
vt 0.134508 0.272570
vt 0.167625 0.401948
vt 0.134508 0.272570
vt 0.134508 0.401948
vt 0.470799 0.333224
vt 0.437695 0.311438
vt 0.437681 0.333203
vt 0.470716 0.462773
vt 0.437681 0.333203
vt 0.437598 0.462752
vt 0.470702 0.484376
vt 0.437598 0.462752
vt 0.437584 0.484355
vt 0.922597 0.354053
vt 0.955715 0.483470
vt 0.955715 0.354053
vt 0.922597 0.331407
vt 0.955715 0.354053
vt 0.955715 0.331407
vt 0.224556 0.057063
vt 0.257756 0.186592
vt 0.257674 0.057042
vt 0.641144 0.069808
vt 0.511717 0.069808
vt 0.490055 0.091492
vt 0.955715 0.182748
vt 0.922597 0.160102
vt 0.922597 0.182748
vt 0.955715 0.312165
vt 0.922597 0.182748
vt 0.922597 0.312165
vt 0.009635 0.380324
vt 0.042739 0.401948
vt 0.042752 0.380345
vt 0.009718 0.250775
vt 0.042752 0.380345
vt 0.042835 0.250796
vt 0.009732 0.229010
vt 0.042835 0.250796
vt 0.042849 0.229031
vt 0.907754 0.607950
vt 0.940871 0.737328
vt 0.940871 0.607950
vt 0.907754 0.585176
vt 0.940871 0.607950
vt 0.940871 0.585176
vt 0.310197 0.186592
vt 0.276998 0.057063
vt 0.277080 0.186613
vt 0.334940 0.484376
vt 0.340462 0.454698
vt 0.334940 0.445873
vt 0.143313 0.981049
vt 0.168141 0.990379
vt 0.168141 0.981049
vt 0.403844 0.484376
vt 0.384326 0.475890
vt 0.379014 0.484376
vt 0.009621 0.978611
vt 0.034442 0.990379
vt 0.034442 0.978611
vt 0.758634 0.798213
vt 0.749280 0.759717
vt 0.749304 0.798219
vt 0.276993 0.990354
vt 0.315503 0.978611
vt 0.277001 0.978587
vt 0.277020 0.948674
vt 0.315673 0.714107
vt 0.277170 0.714082
vt 0.315522 0.948699
vt 0.176448 0.485641
vt 0.164656 0.447146
vt 0.164681 0.485648
vt 0.172834 0.713572
vt 0.257751 0.691672
vt 0.172834 0.688159
vt 0.009621 0.714107
vt 0.034442 0.948699
vt 0.034442 0.714107
vt 0.009621 0.948699
vt 0.143313 0.674142
vt 0.168141 0.685909
vt 0.168141 0.674142
vt 0.143313 0.685909
vt 0.168141 0.715822
vt 0.009621 0.674142
vt 0.034442 0.683472
vt 0.034442 0.674142
vt 0.009621 0.683472
vt 0.277190 0.683447
vt 0.315698 0.674142
vt 0.277196 0.674117
vt 0.315692 0.683472
vt 0.528557 0.502712
vt 0.490203 0.737328
vt 0.528706 0.737304
vt 0.174559 0.978644
vt 0.257271 0.956315
vt 0.174559 0.952818
vt 0.143313 0.715822
vt 0.168141 0.950414
vt 0.143313 0.950414
vt 0.893091 0.798208
vt 0.874688 0.774551
vt 0.874703 0.798219
vt 0.766202 0.094493
vt 0.738012 0.009621
vt 0.733491 0.094493
vt 0.453353 0.098939
vt 0.425164 0.014067
vt 0.420642 0.098939
vt 0.039151 0.950949
vt 0.124071 0.972849
vt 0.124071 0.954461
vt 0.878692 0.548536
vt 0.859844 0.524879
vt 0.859859 0.548547
vt 0.040876 0.711702
vt 0.123590 0.689373
vt 0.040876 0.685876
vt 0.881565 0.092767
vt 0.853502 0.010096
vt 0.849107 0.092767
vt 0.823820 0.092765
vt 0.795757 0.010094
vt 0.791362 0.092765
vt 0.034442 0.978611
vt 0.039151 0.950949
vt 0.034442 0.948699
vt 0.417747 0.103599
vt 0.453353 0.098939
vt 0.420642 0.098939
vt 0.769098 0.099151
vt 0.733491 0.094493
vt 0.730595 0.099151
vt 0.168141 0.715822
vt 0.172834 0.688159
vt 0.168141 0.685909
vt 0.826843 0.099151
vt 0.791362 0.092765
vt 0.788340 0.099151
vt 0.884587 0.099151
vt 0.849107 0.092767
vt 0.846085 0.099151
vt 0.034442 0.714107
vt 0.040876 0.685876
vt 0.034442 0.683472
vt 0.168141 0.981049
vt 0.174559 0.952818
vt 0.168141 0.950414
vt 0.340462 0.454698
vt 0.353910 0.475551
vt 0.353910 0.454698
vt 0.359772 0.445873
vt 0.353910 0.475551
vt 0.359772 0.484376
vt 0.359772 0.484376
vt 0.340462 0.475551
vt 0.334940 0.484376
vt 0.359772 0.445873
vt 0.340462 0.454698
vt 0.353910 0.454698
vt 0.384326 0.454360
vt 0.398211 0.475890
vt 0.398211 0.454360
vt 0.403844 0.445873
vt 0.398211 0.475890
vt 0.403844 0.484376
vt 0.379014 0.484376
vt 0.384326 0.454360
vt 0.379014 0.445873
vt 0.379014 0.445873
vt 0.398211 0.454360
vt 0.403844 0.445873
vt 0.315550 0.421092
vt 0.200010 0.654875
vt 0.315698 0.654802
vt 0.334940 0.503618
vt 0.450475 0.737328
vt 0.450475 0.503618
vt 0.354232 0.990292
vt 0.470070 0.756657
vt 0.354381 0.756582
vt 0.145414 0.421190
vt 0.125191 0.654900
vt 0.145414 0.654900
vt 0.469920 0.990367
vt 0.489505 0.756669
vt 0.470070 0.756657
vt 0.470813 0.503618
vt 0.450475 0.737328
vt 0.470813 0.737328
vt 0.354381 0.756582
vt 0.334940 0.990280
vt 0.354232 0.990292
vt 0.009621 0.421190
vt 0.125191 0.654900
vt 0.125191 0.421190
vt 0.816096 0.567789
vt 0.768536 0.652767
vt 0.816150 0.652737
vt 0.692527 0.849356
vt 0.665223 0.768936
vt 0.649368 0.806139
vt 0.329476 0.130032
vt 0.353958 0.073743
vt 0.329512 0.073728
vt 0.888511 0.568074
vt 0.840898 0.654622
vt 0.888511 0.654622
vt 0.545175 0.910335
vt 0.573562 0.990318
vt 0.588333 0.953552
vt 0.922597 0.140860
vt 0.947044 0.085465
vt 0.922597 0.085464
vt 0.062200 0.232409
vt 0.109760 0.316996
vt 0.109814 0.232439
vt 0.588333 0.806099
vt 0.508747 0.833692
vt 0.545175 0.849258
vt 0.922597 0.085464
vt 0.947044 0.028090
vt 0.922597 0.028090
vt 0.164656 0.654896
vt 0.170156 0.580069
vt 0.164704 0.580066
vt 0.692527 0.849356
vt 0.730038 0.925563
vt 0.730038 0.833838
vt 0.397646 0.073728
vt 0.373236 0.130308
vt 0.397682 0.130293
vt 0.545175 0.910335
vt 0.508747 0.833692
vt 0.508747 0.925416
vt 0.417747 0.209005
vt 0.465360 0.292196
vt 0.465360 0.209005
vt 0.373236 0.130308
vt 0.397718 0.186597
vt 0.397682 0.130293
vt 0.062091 0.401914
vt 0.109760 0.316996
vt 0.062146 0.316966
vt 0.692527 0.910433
vt 0.665223 0.990379
vt 0.730038 0.925563
vt 0.960113 0.624626
vt 0.984560 0.682256
vt 0.984560 0.624626
vt 0.113815 0.062314
vt 0.009621 0.105433
vt 0.052779 0.209727
vt 0.888511 0.654622
vt 0.840898 0.737328
vt 0.888512 0.737328
vt 0.743789 0.679842
vt 0.666135 0.628875
vt 0.666135 0.647732
vt 0.763031 0.567823
vt 0.763085 0.652771
vt 0.941275 0.914127
vt 0.946727 0.840505
vt 0.941275 0.840505
vt 0.768536 0.652767
vt 0.763138 0.737328
vt 0.941275 0.990379
vt 0.946727 0.914127
vt 0.941275 0.914127
vt 0.840897 0.568074
vt 0.835446 0.654622
vt 0.687548 0.167547
vt 0.682144 0.242726
vt 0.687596 0.242722
vt 0.840898 0.654622
vt 0.835446 0.737328
vt 0.633967 0.661086
vt 0.652811 0.661074
vt 0.666135 0.647732
vt 0.686428 0.737277
vt 0.633967 0.661086
vt 0.605308 0.737328
vt 0.547948 0.679966
vt 0.620642 0.628904
vt 0.547948 0.598793
vt 0.686428 0.541307
vt 0.633967 0.615562
vt 0.652811 0.615550
vt 0.743789 0.598669
vt 0.652811 0.615550
vt 0.666135 0.628875
vt 0.743789 0.679842
vt 0.652811 0.661074
vt 0.686428 0.737277
vt 0.605308 0.737328
vt 0.620642 0.647761
vt 0.547948 0.679966
vt 0.605308 0.541358
vt 0.620642 0.628904
vt 0.633967 0.615562
vt 0.706838 0.242726
vt 0.710452 0.209321
vt 0.706862 0.205222
vt 0.850254 0.798219
vt 0.855446 0.769553
vt 0.850254 0.769553
vt 0.831012 0.798216
vt 0.825796 0.760716
vt 0.825819 0.798219
vt 0.763031 0.511044
vt 0.791709 0.548547
vt 0.791709 0.511044
vt 0.835410 0.548547
vt 0.840602 0.519873
vt 0.835410 0.519873
vt 0.816144 0.548547
vt 0.810975 0.511041
vt 0.810951 0.548544
vt 0.781157 0.764801
vt 0.803587 0.794134
vt 0.803587 0.764801
vt 0.806553 0.798219
vt 0.781157 0.794134
vt 0.777876 0.798219
vt 0.777876 0.760716
vt 0.803587 0.764801
vt 0.806553 0.760716
vt 0.179805 0.172265
vt 0.176234 0.205673
vt 0.179829 0.209768
vt 0.551624 0.515316
vt 0.547948 0.522065
vt 0.551624 0.522065
vt 0.417604 0.395102
vt 0.415099 0.401850
vt 0.417604 0.401850
vt 0.597461 0.515317
vt 0.593785 0.522065
vt 0.597461 0.522065
vt 0.642127 0.515319
vt 0.639622 0.522065
vt 0.642127 0.522065
vt 0.356690 0.422955
vt 0.359197 0.426630
vt 0.359195 0.422953
vt 0.164658 0.424218
vt 0.167161 0.427896
vt 0.167163 0.424220
vt 0.574543 0.515316
vt 0.570866 0.522065
vt 0.574543 0.522065
vt 0.417604 0.369113
vt 0.415099 0.375860
vt 0.417604 0.375860
vt 0.620380 0.515317
vt 0.616704 0.522065
vt 0.620380 0.522065
vt 0.417604 0.343125
vt 0.415099 0.349871
vt 0.417604 0.349871
vt 0.378439 0.422955
vt 0.380946 0.426630
vt 0.380944 0.422953
vt 0.334943 0.422953
vt 0.337445 0.426631
vt 0.337448 0.422955
vt 0.646536 0.483412
vt 0.560144 0.470730
vt 0.554871 0.483470
vt 0.490055 0.326926
vt 0.502783 0.413368
vt 0.502783 0.332194
vt 0.554871 0.262026
vt 0.641264 0.274708
vt 0.646536 0.261968
vt 0.711353 0.326786
vt 0.698624 0.332070
vt 0.711353 0.418511
vt 0.641264 0.470678
vt 0.490055 0.418652
vt 0.560144 0.274760
vt 0.698624 0.413244
vt 0.470812 0.209005
vt 0.470813 0.122841
vt 0.164704 0.580066
vt 0.170204 0.504894
vt 0.164752 0.504890
vt 0.470812 0.209005
vt 0.205314 0.036829
vt 0.199862 0.110021
vt 0.205314 0.110021
vt 0.115265 0.232443
vt 0.205314 0.110021
vt 0.199862 0.186613
vt 0.205314 0.186613
vt 0.109705 0.401944
vt 0.115211 0.317000
vt 0.687501 0.092717
vt 0.682096 0.167550
vt 0.687548 0.167547
vt 0.257268 0.401850
vt 0.395857 0.344444
vt 0.338451 0.205855
vt 0.353922 0.130048
vt 0.588333 0.953552
vt 0.417747 0.209005
vt 0.960114 0.737328
vt 0.665223 0.768936
vt 0.922033 0.839145
vt 0.749280 0.839145
vt 0.900370 0.817461
vt 0.770943 0.817461
vt 0.749280 0.968695
vt 0.881691 0.483470
vt 0.903355 0.461786
vt 0.903355 0.332236
vt 0.881691 0.310552
vt 0.752259 0.310552
vt 0.903355 0.140076
vt 0.730595 0.140076
vt 0.881691 0.118393
vt 0.752259 0.118393
vt 0.730595 0.269627
vt 0.167625 0.249796
vt 0.167625 0.272570
vt 0.470813 0.311460
vt 0.470799 0.333224
vt 0.470716 0.462773
vt 0.922597 0.483470
vt 0.922597 0.354053
vt 0.224638 0.186613
vt 0.490055 0.221042
vt 0.662807 0.221042
vt 0.511718 0.242726
vt 0.641144 0.242726
vt 0.662807 0.091492
vt 0.955715 0.160102
vt 0.955715 0.182748
vt 0.009621 0.401926
vt 0.009635 0.380324
vt 0.009718 0.250775
vt 0.907754 0.737328
vt 0.907754 0.607950
vt 0.310115 0.057042
vt 0.340462 0.475551
vt 0.143313 0.990379
vt 0.398211 0.475890
vt 0.009621 0.990379
vt 0.758610 0.759711
vt 0.315496 0.990379
vt 0.176424 0.447138
vt 0.257751 0.710060
vt 0.490055 0.502736
vt 0.257271 0.975147
vt 0.893076 0.774539
vt 0.761681 0.009621
vt 0.448832 0.014067
vt 0.039151 0.976361
vt 0.878677 0.524867
vt 0.123590 0.708206
vt 0.877170 0.010096
vt 0.819426 0.010094
vt 0.039151 0.976361
vt 0.456249 0.103599
vt 0.766202 0.094493
vt 0.172834 0.713572
vt 0.823820 0.092765
vt 0.881565 0.092767
vt 0.040876 0.711702
vt 0.174559 0.978644
vt 0.340462 0.475551
vt 0.353910 0.454698
vt 0.353910 0.475551
vt 0.334940 0.445873
vt 0.384326 0.475890
vt 0.398211 0.454360
vt 0.384326 0.475890
vt 0.384326 0.454360
vt 0.199862 0.421165
vt 0.334940 0.737328
vt 0.469920 0.990367
vt 0.125191 0.421190
vt 0.489356 0.990379
vt 0.450475 0.503618
vt 0.335090 0.756570
vt 0.009621 0.654900
vt 0.768483 0.567820
vt 0.730038 0.833838
vt 0.353922 0.130048
vt 0.508747 0.925416
vt 0.947043 0.140860
vt 0.062146 0.316966
vt 0.573562 0.768875
vt 0.947044 0.085465
vt 0.170108 0.654900
vt 0.692527 0.910433
vt 0.373200 0.073743
vt 0.545175 0.849258
vt 0.417747 0.292196
vt 0.373272 0.186613
vt 0.649368 0.953593
vt 0.960113 0.682256
vt 0.052779 0.062274
vt 0.009621 0.166511
vt 0.113815 0.209768
vt 0.156973 0.166608
vt 0.156973 0.105531
vt 0.743789 0.598669
vt 0.946727 0.914127
vt 0.763085 0.652771
vt 0.946726 0.990379
vt 0.835446 0.568074
vt 0.682096 0.167550
vt 0.835446 0.654622
vt 0.666135 0.628875
vt 0.652811 0.615550
vt 0.633967 0.615562
vt 0.620642 0.628904
vt 0.620642 0.647761
vt 0.652811 0.661074
vt 0.620642 0.647761
vt 0.605308 0.541358
vt 0.686428 0.541307
vt 0.666135 0.647732
vt 0.633967 0.661086
vt 0.547948 0.598793
vt 0.710433 0.238655
vt 0.855446 0.798219
vt 0.830988 0.760713
vt 0.763031 0.548547
vt 0.840602 0.548547
vt 0.816168 0.511044
vt 0.781157 0.794134
vt 0.803587 0.794134
vt 0.781157 0.764801
vt 0.176215 0.176340
vt 0.547948 0.515316
vt 0.415099 0.395102
vt 0.593785 0.515317
vt 0.639622 0.515319
vt 0.356692 0.426631
vt 0.164656 0.427895
vt 0.570866 0.515316
vt 0.415099 0.369113
vt 0.616704 0.515317
vt 0.415099 0.343125
vt 0.378441 0.426631
vt 0.334940 0.426630
vt 0.170156 0.580069
vt 0.470812 0.292196
vt 0.199862 0.036829
vt 0.115211 0.317000
vt 0.199862 0.110021
vt 0.115157 0.401948
vt 0.682049 0.092720
vt 0.257268 0.205855
vt 0.199862 0.263260
vt 0.199862 0.344444
vt 0.338451 0.401850
vt 0.395857 0.263260
vn 0.000018 0.927396 -0.374081
vn 0.000017 0.927396 -0.374081
vn 0.000018 0.927396 -0.374081
vn 0.940484 0.127125 0.315166
vn 0.940484 0.127125 0.315166
vn 0.940484 0.127125 0.315166
vn -0.000001 -0.391253 0.920283
vn -0.000001 -0.391252 0.920284
vn -0.000001 -0.391252 0.920283
vn 0.000007 0.391253 -0.920283
vn 0.000007 0.391253 -0.920283
vn 0.000007 0.391253 -0.920283
vn 0.940483 -0.127131 -0.315166
vn 0.940483 -0.127131 -0.315166
vn 0.940483 -0.127131 -0.315166
vn -0.000001 -0.920283 -0.391253
vn -0.000001 -0.920283 -0.391253
vn -0.000002 -0.920283 -0.391253
vn 1.000000 -0.000000 -0.000000
vn 1.000000 -0.000000 -0.000001
vn 1.000000 -0.000000 -0.000000
vn -1.000000 0.000000 0.000000
vn -1.000000 0.000000 0.000000
vn -1.000000 -0.000000 -0.000000
vn -1.000000 -0.000000 -0.000001
vn -1.000000 -0.000000 -0.000000
vn -1.000000 -0.000000 -0.000000
vn 0.000000 -0.707107 0.707107
vn 0.000000 -0.707107 0.707107
vn 0.000000 -0.707107 0.707107
vn 0.000000 0.000000 1.000000
vn 0.000000 0.000000 1.000000
vn 0.000000 0.000000 1.000000
vn 0.000000 0.707107 0.707107
vn 0.000000 0.707107 0.707107
vn 0.000000 0.707107 0.707107
vn 0.000000 1.000000 -0.000000
vn 0.000000 1.000000 -0.000000
vn 0.000000 1.000000 -0.000000
vn 0.000000 0.707107 -0.707107
vn 0.000000 0.707107 -0.707107
vn 0.000000 0.707107 -0.707107
vn 0.000000 -0.000000 -1.000000
vn 0.000000 -0.000000 -1.000000
vn 0.000000 -0.000000 -1.000000
vn 0.000000 -0.707107 -0.707106
vn 0.000000 -0.707107 -0.707106
vn 0.000000 -0.707107 -0.707107
vn 0.000000 -1.000000 0.000000
vn 0.000000 -1.000000 0.000000
vn 0.000000 -1.000000 0.000000
vn 1.000000 0.000000 0.000000
vn 1.000000 0.000000 0.000000
vn 1.000000 0.000000 0.000000
vn 0.000000 -0.707107 -0.707106
vn 0.000000 -0.707107 -0.707106
vn 0.000000 -0.707107 -0.707106
vn 0.000000 -0.000000 -1.000000
vn 0.000000 -0.000000 -1.000000
vn 0.000000 -0.000000 -1.000000
vn 0.000000 0.707107 -0.707107
vn 0.000000 0.707107 -0.707107
vn 0.000000 0.707107 -0.707107
vn 0.000000 1.000000 -0.000000
vn 0.000000 1.000000 -0.000000
vn 0.000000 1.000000 -0.000000
vn 0.000000 0.707107 0.707107
vn 0.000000 0.707107 0.707107
vn 0.000000 0.707107 0.707107
vn 0.000000 0.000000 1.000000
vn 0.000000 0.000000 1.000000
vn 0.000000 0.000000 1.000000
vn 0.000000 -0.707107 0.707107
vn 0.000000 -0.707107 0.707107
vn 0.000000 -0.707107 0.707107
vn 0.000000 -1.000000 0.000000
vn 0.000000 -1.000000 0.000000
vn 0.000000 -1.000000 0.000000
vn -0.819625 0.572901 -0.000000
vn -0.819627 0.572898 -0.000000
vn -0.819627 0.572898 -0.000000
vn 0.000000 -0.000000 -1.000000
vn 0.000000 -0.000000 -1.000000
vn 0.000000 -0.000000 -1.000000
vn 0.917505 0.000000 0.397723
vn 0.917506 0.000000 0.397722
vn 0.917506 0.000000 0.397721
vn 0.000000 0.000000 1.000000
vn 0.000000 0.000000 1.000000
vn 0.000000 0.000000 1.000000
vn 0.000000 -1.000000 0.000000
vn 0.000000 -1.000000 0.000000
vn 0.000000 -1.000000 0.000000
vn 0.000000 1.000000 -0.000000
vn 0.000000 1.000000 -0.000000
vn 0.000000 1.000000 -0.000000
vn 0.000000 1.000000 -0.000000
vn 0.000000 1.000000 -0.000000
vn 0.000000 1.000000 -0.000000
vn 0.000000 1.000000 -0.000000
vn 0.000000 -1.000000 0.000000
vn 0.000000 -1.000000 0.000000
vn 0.000000 -1.000000 0.000000
vn 0.000000 -0.053240 -0.998582
vn 0.000000 -0.053240 -0.998582
vn 0.000000 -0.053240 -0.998582
vn 0.000000 0.000000 1.000000
vn 0.000000 0.000000 1.000000
vn 0.000000 0.000000 1.000000
vn 0.000000 0.000000 1.000000
vn 0.000000 -0.000000 -1.000000
vn 0.000000 -0.000000 -1.000000
vn 0.000000 -0.000000 -1.000000
vn 0.000000 -0.000000 -1.000000
vn 0.000000 -0.000000 -1.000000
vn 0.000000 0.000000 1.000000
vn 0.000000 0.000000 1.000000
vn 0.000000 0.000000 1.000000
vn 0.000000 0.000000 1.000000
vn 0.000000 1.000000 -0.000000
vn 0.000000 1.000000 -0.000000
vn 0.000000 1.000000 -0.000000
vn 0.000000 1.000000 -0.000000
vn 0.000000 -1.000000 0.000000
vn 0.000000 -1.000000 0.000000
vn 0.000000 -1.000000 0.000000
vn 0.000000 -0.053133 -0.998587
vn 0.000000 -0.053133 -0.998587
vn 0.000000 -0.053133 -0.998587
vn 0.000000 -0.000000 -1.000000
vn 0.000000 -0.000000 -1.000000
vn 0.000000 -0.000000 -1.000000
vn 0.000000 -1.000000 0.000000
vn 0.000000 -1.000000 0.000000
vn 0.000000 -1.000000 0.000000
vn -0.999143 -0.041385 0.000000
vn -0.999143 -0.041385 0.000000
vn -0.999143 -0.041385 0.000000
vn 0.999143 -0.041385 0.000000
vn 0.999143 -0.041385 0.000000
vn 0.999143 -0.041385 0.000000
vn 0.000000 -0.053239 0.998582
vn 0.000000 -0.053239 0.998582
vn 0.000000 -0.053239 0.998582
vn 0.000000 -1.000000 0.000000
vn 0.000000 -1.000000 0.000000
vn 0.000000 -1.000000 0.000000
vn 0.000000 -0.053133 0.998587
vn 0.000000 -0.053133 0.998587
vn 0.000000 -0.053133 0.998587
vn -0.999105 -0.042298 0.000000
vn -0.999105 -0.042298 0.000000
vn -0.999105 -0.042298 0.000000
vn 0.999105 -0.042298 0.000000
vn 0.999105 -0.042298 0.000000
vn 0.999105 -0.042298 0.000000
vn 0.000000 -0.535611 0.844465
vn 0.000000 -0.535612 0.844465
vn 0.000000 -0.535612 0.844464
vn 0.897011 -0.442008 0.000000
vn 0.897012 -0.442006 0.000000
vn 0.897011 -0.442008 0.000000
vn -0.897011 -0.442008 0.000000
vn -0.897012 -0.442006 0.000000
vn -0.897012 -0.442005 0.000000
vn 0.000000 -0.535611 -0.844465
vn 0.000000 -0.535612 -0.844464
vn 0.000000 -0.535612 -0.844464
vn 0.934001 -0.357270 -0.000000
vn 0.934002 -0.357268 -0.000001
vn 0.934002 -0.357267 -0.000001
vn -0.934002 -0.357268 0.000000
vn -0.934002 -0.357267 0.000000
vn -0.934002 -0.357267 0.000000
vn 0.000000 -0.433278 0.901260
vn 0.000000 -0.433278 0.901260
vn 0.000000 -0.433278 0.901260
vn 0.000000 -0.433279 -0.901260
vn 0.000000 -0.433278 -0.901260
vn 0.000000 -0.433278 -0.901260
vn -1.000000 0.000000 0.000000
vn -1.000000 0.000000 0.000000
vn -1.000000 0.000000 0.000000
vn -0.819625 -0.572901 0.000000
vn -0.819624 -0.572901 0.000000
vn -0.819624 -0.572902 0.000000
vn -0.911510 -0.000000 -0.411278
vn -0.911510 -0.000000 -0.411277
vn -0.911511 -0.000000 -0.411277
vn -0.911510 0.000000 0.411278
vn -0.911510 0.000000 0.411277
vn -0.911509 0.000000 0.411279
vn 1.000000 0.000000 0.000000
vn 1.000000 0.000000 0.000000
vn 1.000000 0.000000 0.000000
vn 0.830183 -0.557490 0.000000
vn 0.830182 -0.557493 0.000000
vn 0.830181 -0.557493 0.000000
vn 0.830183 0.557491 -0.000000
vn 0.830183 0.557491 -0.000000
vn 0.830183 0.557491 -0.000000
vn 0.917505 -0.000000 -0.397723
vn 0.917506 -0.000000 -0.397722
vn 0.917506 -0.000000 -0.397721
vn 0.000000 -1.000000 0.000000
vn 0.000000 -1.000000 0.000000
vn 0.000000 -1.000000 0.000000
vn 0.000000 0.000000 1.000000
vn 0.000000 0.000000 1.000000
vn 0.000000 0.000000 1.000000
vn 0.000000 1.000000 -0.000000
vn 0.000000 1.000000 -0.000000
vn 0.000000 1.000000 -0.000000
vn 0.000000 -0.707107 -0.707107
vn 0.000000 -0.707107 -0.707107
vn 0.000000 -0.707107 -0.707107
vn 0.000000 0.707107 0.707107
vn 0.000000 0.707107 0.707107
vn 0.000000 0.707107 0.707106
vn 0.000000 -0.707107 0.707107
vn 0.000000 -0.707107 0.707107
vn 0.000000 -0.707107 0.707107
vn 0.000000 0.707107 -0.707107
vn 0.000000 0.707107 -0.707107
vn 0.000000 0.707107 -0.707107
vn 0.000000 -0.000000 -1.000000
vn 0.000000 -0.000000 -1.000000
vn 0.000000 -0.000000 -1.000000
vn -0.000002 -0.927396 0.374081
vn -0.000002 -0.927396 0.374081
vn -0.000002 -0.927396 0.374081
vn 0.940483 -0.312751 -0.132964
vn 0.940482 -0.312752 -0.132964
vn 0.940482 -0.312753 -0.132964
vn 0.000017 0.920283 0.391253
vn 0.000017 0.920283 0.391253
vn 0.000017 0.920283 0.391253
vn -0.000001 -0.374082 -0.927396
vn -0.000001 -0.374081 -0.927396
vn -0.000001 -0.374081 -0.927396
vn 0.940484 0.312746 0.132963
vn 0.940484 0.312746 0.132963
vn 0.940484 0.312747 0.132963
vn 0.000007 0.374081 0.927396
vn 0.000007 0.374081 0.927396
vn 0.000007 0.374081 0.927396
vn 0.000001 0.920283 0.391253
vn 0.000003 0.920283 0.391253
vn 0.000002 0.920284 0.391252
vn 0.940484 0.132961 -0.312749
vn 0.940484 0.132961 -0.312748
vn 0.940484 0.132961 -0.312748
vn -0.000007 -0.391253 0.920283
vn -0.000007 -0.391253 0.920283
vn -0.000007 -0.391253 0.920283
vn 0.000000 0.920284 0.391251
vn 0.000003 0.920283 0.391254
vn 0.000003 0.920283 0.391254
vn 0.940483 -0.315168 0.127128
vn 0.940482 -0.315169 0.127128
vn 0.940483 -0.315168 0.127128
vn -0.000017 -0.927396 0.374081
vn -0.000017 -0.927396 0.374081
vn -0.000017 -0.927396 0.374081
vn 0.940484 0.315163 -0.127127
vn 0.940484 0.315163 -0.127127
vn 0.940485 0.315163 -0.127127
vn 0.000001 0.374081 0.927396
vn 0.000001 0.374082 0.927396
vn 0.000000 0.374081 0.927396
vn -0.000017 -0.920283 -0.391253
vn -0.000017 -0.920283 -0.391253
vn -0.000016 -0.920283 -0.391253
vn 0.000001 0.927396 -0.374081
vn 0.000002 0.927396 -0.374081
vn 0.000001 0.927396 -0.374081
vn 0.940483 -0.132967 0.312749
vn 0.940483 -0.132967 0.312749
vn 0.940483 -0.132967 0.312749
vn -0.000007 -0.374081 -0.927396
vn -0.000007 -0.374081 -0.927396
vn -0.000007 -0.374081 -0.927396
vn 1.000000 -0.000003 -0.000000
vn 1.000000 -0.000003 -0.000000
vn 1.000000 -0.000003 0.000000
vn 0.000001 0.391253 -0.920283
vn 0.000001 0.391252 -0.920284
vn 0.000001 0.391253 -0.920283
vn -0.768769 -0.593094 0.239235
vn -0.768769 -0.593094 0.239235
vn -0.768769 -0.593094 0.239236
vn -0.000000 -0.927396 0.374082
vn -0.000003 -0.927396 0.374080
vn 0.000000 0.374082 0.927396
vn 0.000001 0.374081 0.927396
vn 0.000001 0.374081 0.927396
vn -0.000002 -0.920283 -0.391254
vn -0.000000 -0.920283 -0.391254
vn -0.000001 -0.391250 0.920284
vn -0.000001 -0.391255 0.920282
vn -0.000001 -0.391256 0.920282
vn -0.000001 -0.374080 -0.927396
vn -0.000001 -0.374081 -0.927396
vn -0.000003 -0.927396 0.374082
vn -0.000000 -0.927396 0.374081
vn 0.000000 -0.927396 0.374081
vn 0.000001 0.391254 -0.920283
vn 0.000001 0.391252 -0.920284
vn -1.000000 0.000003 -0.000000
vn -1.000000 0.000001 -0.000001
vn -1.000000 0.000003 0.000000
vn -0.768769 -0.239233 -0.593095
vn -0.768769 -0.239233 -0.593095
vn -0.768769 -0.239233 -0.593095
vn -0.768767 0.593096 -0.239235
vn -0.768768 0.593096 -0.239235
vn -0.768767 0.593097 -0.239235
vn -0.768768 0.239238 0.593095
vn -0.768768 0.239238 0.593094
vn -0.768768 0.239238 0.593094
vn -0.768769 -0.250215 0.588547
vn -0.768769 -0.250215 0.588546
vn -0.768770 -0.250215 0.588545
vn -0.768769 -0.588545 -0.250217
vn -0.768769 -0.588545 -0.250217
vn -0.768770 -0.588545 -0.250216
vn -0.768768 0.250219 -0.588546
vn -0.768768 0.250220 -0.588546
vn -0.768768 0.250219 -0.588546
vn -0.768767 0.588548 0.250217
vn -0.768767 0.588548 0.250217
vn -0.768768 0.588547 0.250217
vn 0.656500 0.754326 -0.000000
vn 0.656503 0.754323 -0.000000
vn 0.656503 0.754323 -0.000000
vn 0.000000 0.000000 1.000000
vn 0.000000 0.000000 1.000000
vn 0.000000 0.000000 1.000000
vn 0.000000 -1.000000 0.000000
vn 0.000000 -1.000000 0.000000
vn 0.000000 -1.000000 0.000000
vn -1.000000 0.000000 0.000000
vn -1.000000 0.000000 0.000000
vn -1.000000 0.000000 0.000000
vn 0.000000 -0.000000 -1.000000
vn 0.000000 -0.000000 -1.000000
vn 0.000000 -0.000000 -1.000000
vn 0.000000 1.000000 -0.000000
vn 0.000000 1.000000 -0.000000
vn 0.000000 1.000000 -0.000000
vn 1.000000 0.000000 0.000000
vn 1.000000 0.000000 0.000000
vn 1.000000 0.000000 0.000000
vn 0.750925 -0.000000 -0.660387
vn 0.750930 -0.000000 -0.660382
vn 0.750930 -0.000000 -0.660381
vn 0.750925 0.000000 0.660387
vn 0.750930 0.000000 0.660382
vn 0.750930 0.000000 0.660381
vn 0.656503 -0.754324 0.000000
vn 0.656502 -0.754324 0.000000
vn 0.656502 -0.754324 0.000000
vn -1.000000 0.000000 0.000000
vn -1.000000 0.000000 0.000000
vn -1.000000 0.000000 0.000000
vn 0.000000 -0.000000 -1.000000
vn 0.000000 -0.000000 -1.000000
vn 0.000000 -0.000000 -1.000000
vn 1.000000 0.000000 0.000000
vn 1.000000 0.000000 0.000000
vn 1.000000 0.000000 0.000000
vn 0.000000 0.000000 1.000000
vn 0.000000 0.000000 1.000000
vn 0.000000 0.000000 1.000000
vn 0.000000 -1.000000 0.000000
vn 0.000000 -1.000000 0.000000
vn 0.000000 -1.000000 0.000000
vn 0.000000 1.000000 -0.000000
vn 0.000000 1.000000 -0.000000
vn 0.000000 1.000000 -0.000000
vn -1.000000 0.000000 0.000000
vn -1.000000 0.000000 0.000000
vn -1.000000 0.000000 0.000000
vn 0.000000 -0.000000 -1.000000
vn 0.000000 -0.000000 -1.000000
vn 0.000000 -0.000000 -1.000000
vn 1.000000 0.000000 0.000000
vn 1.000000 0.000000 0.000000
vn 1.000000 0.000000 0.000000
vn 0.000000 0.000000 1.000000
vn 0.000000 0.000000 1.000000
vn 0.000000 0.000000 1.000000
vn 0.000000 -1.000000 0.000000
vn 0.000000 -1.000000 0.000000
vn 0.000000 -1.000000 0.000000
vn 0.000000 1.000000 -0.000000
vn 0.000000 1.000000 -0.000000
vn 0.000000 1.000000 -0.000000
vn -1.000000 0.000001 -0.000000
vn -1.000000 0.000003 -0.000000
vn -1.000000 0.000003 -0.000000
vn -1.000000 0.000000 0.000000
vn -1.000000 0.000003 -0.000000
vn -1.000000 0.000000 0.000001
vn -1.000000 0.000003 0.000001
vn -1.000000 0.000003 0.000000
vn -1.000000 0.000003 0.000000
vn -1.000000 0.000001 -0.000000
vn -1.000000 0.000001 -0.000000
vn -1.000000 0.000002 -0.000000
vn -1.000000 0.000001 -0.000000
vn -1.000000 0.000003 -0.000000
vn -1.000000 0.000003 0.000001
vn -1.000000 0.000002 -0.000000
vn -0.000001 -0.391251 0.920284
vn -0.000001 -0.391252 0.920284
vn 0.000000 0.927396 -0.374081
vn 0.000000 0.927396 -0.374081
vn 0.000000 0.927396 -0.374081
vn 0.000000 0.374080 0.927396
vn 0.000001 0.391252 -0.920284
vn 0.000001 0.391254 -0.920283
vn 0.000001 0.391254 -0.920283
vn 0.000003 0.920284 0.391251
vn -0.000001 -0.374080 -0.927396
vn -0.000001 -0.374082 -0.927396
vn -0.000001 -0.374082 -0.927395
vn 0.000002 0.927396 -0.374081
vn 0.000003 0.927396 -0.374082
vn -0.000003 -0.920283 -0.391254
vn -0.000000 -0.920283 -0.391253
vn 0.000000 -0.920283 -0.391253
vn 1.000000 -0.000003 -0.000000
vn 1.000000 -0.000003 -0.000000
vn 1.000000 -0.000003 0.000000
vn 0.000017 0.927396 -0.374081
vn 0.940484 0.127125 0.315165
vn -0.000001 -0.391253 0.920283
vn 0.000007 0.391253 -0.920283
vn 0.940483 -0.127132 -0.315166
vn 1.000000 0.000000 0.000000
vn 1.000000 -0.000000 -0.000000
vn 1.000000 0.000000 0.000001
vn 1.000000 -0.000000 -0.000000
vn 1.000000 0.000000 0.000000
vn -1.000000 -0.000000 -0.000000
vn -1.000000 -0.000000 -0.000000
vn -1.000000 0.000000 0.000000
vn -1.000000 0.000000 0.000000
vn -1.000000 0.000000 0.000000
vn -1.000000 0.000000 0.000000
vn -1.000000 -0.000000 -0.000000
vn -1.000000 0.000000 0.000001
vn -1.000000 -0.000000 -0.000001
vn -1.000000 -0.000000 -0.000000
vn 0.000000 -0.707107 0.707107
vn 0.000000 0.000000 1.000000
vn 0.000000 0.707107 0.707107
vn 0.000000 1.000000 -0.000000
vn 0.000000 0.707107 -0.707107
vn 0.000000 -0.000000 -1.000000
vn 0.000000 -0.707107 -0.707106
vn 0.000000 -1.000000 0.000000
vn 1.000000 -0.000000 -0.000000
vn 1.000000 0.000000 0.000000
vn 1.000000 -0.000000 -0.000001
vn 1.000000 0.000000 0.000001
vn 1.000000 0.000000 0.000000
vn 0.000000 -0.707107 -0.707107
vn 0.000000 -0.000000 -1.000000
vn 0.000000 0.707107 -0.707107
vn 0.000000 1.000000 -0.000000
vn 0.000000 0.707107 0.707107
vn 0.000000 0.000000 1.000000
vn 0.000000 -0.707107 0.707107
vn 0.000000 -1.000000 0.000000
vn -0.819623 0.572903 -0.000000
vn 0.000000 -0.000000 -1.000000
vn 0.917505 0.000000 0.397725
vn 0.000000 0.000000 1.000000
vn 0.000000 -1.000000 0.000000
vn 0.000000 1.000000 -0.000000
vn 0.000000 -1.000000 0.000000
vn 0.000000 -0.053240 -0.998582
vn 0.000000 -1.000000 0.000000
vn 0.000000 -0.053133 -0.998587
vn 0.000000 -1.000000 0.000000
vn -0.999143 -0.041385 0.000000
vn 0.999143 -0.041385 0.000000
vn 0.000000 -0.053239 0.998582
vn 0.000000 -1.000000 0.000000
vn 0.000000 -0.053133 0.998587
vn -0.999105 -0.042298 0.000000
vn 0.999105 -0.042298 0.000000
vn 0.000000 -0.535611 0.844465
vn 0.897012 -0.442005 0.000000
vn -0.897011 -0.442008 0.000000
vn 0.000000 -0.535611 -0.844465
vn 0.934001 -0.357271 0.000000
vn -0.934002 -0.357268 0.000000
vn 0.000000 -0.433278 0.901260
vn 0.000000 -0.433279 -0.901260
vn -1.000000 0.000000 0.000000
vn -0.819625 -0.572901 0.000000
vn -0.911509 -0.000000 -0.411279
vn -0.911511 0.000000 0.411277
vn 1.000000 0.000000 0.000000
vn 0.830184 -0.557489 0.000000
vn 0.830183 0.557491 -0.000000
vn 0.917505 -0.000000 -0.397725
vn 0.000000 -1.000000 0.000000
vn 0.000000 0.000000 1.000000
vn 0.000000 1.000000 -0.000000
vn 0.000000 -0.707107 -0.707107
vn 0.000000 0.707107 0.707107
vn 0.000000 -0.707107 0.707107
vn 0.000000 0.707107 -0.707107
vn 0.000000 -0.000000 -1.000000
vn -0.000001 -0.927396 0.374082
vn 0.940483 -0.312751 -0.132964
vn 0.000017 0.920283 0.391252
vn 0.940485 0.312746 0.132963
vn 0.000007 0.374081 0.927396
vn 0.000002 0.920283 0.391252
vn 0.940484 0.132961 -0.312749
vn -0.000007 -0.391253 0.920283
vn 0.000000 0.920284 0.391251
vn 0.940482 -0.315170 0.127128
vn -0.000017 -0.927396 0.374081
vn 0.940484 0.315164 -0.127127
vn 0.000001 0.374081 0.927396
vn -0.000017 -0.920283 -0.391253
vn 0.940483 -0.132966 0.312749
vn -0.000007 -0.374081 -0.927396
vn 1.000000 -0.000003 -0.000001
vn 1.000000 0.000000 0.000000
vn 1.000000 -0.000003 0.000000
vn 1.000000 -0.000003 0.000000
vn 1.000000 -0.000003 0.000000
vn -0.768770 -0.593094 0.239235
vn 0.000000 0.374082 0.927396
vn -0.000003 -0.920283 -0.391254
vn -0.000001 -0.391250 0.920285
vn -0.000001 -0.374079 -0.927397
vn -0.000003 -0.927396 0.374082
vn 0.000001 0.391256 -0.920282
vn -1.000000 0.000001 0.000003
vn -1.000000 0.000003 0.000002
vn -1.000000 0.000003 0.000001
vn -1.000000 0.000003 -0.000001
vn -1.000000 0.000003 -0.000001
vn -0.768769 -0.239233 -0.593095
vn -0.768768 0.593096 -0.239235
vn -0.768768 0.239238 0.593095
vn -0.768769 -0.250215 0.588547
vn -0.768769 -0.588545 -0.250218
vn -0.768768 0.250220 -0.588546
vn -0.768767 0.588548 0.250217
vn 0.656499 0.754327 -0.000000
vn 0.000000 0.000000 1.000000
vn 0.000000 -1.000000 0.000000
vn -1.000000 0.000000 0.000000
vn 0.000000 -0.000000 -1.000000
vn 0.000000 1.000000 -0.000000
vn 1.000000 0.000000 0.000000
vn 0.750924 -0.000000 -0.660389
vn 0.750924 0.000000 0.660388
vn 0.656503 -0.754323 0.000000
vn -1.000000 0.000000 0.000000
vn 0.000000 -0.000000 -1.000000
vn 1.000000 0.000000 0.000000
vn 0.000000 0.000000 1.000000
vn 0.000000 -1.000000 0.000000
vn 0.000000 1.000000 -0.000000
vn -1.000000 0.000000 0.000000
vn 0.000000 -0.000000 -1.000000
vn 1.000000 0.000000 0.000000
vn 0.000000 0.000000 1.000000
vn 0.000000 -1.000000 0.000000
vn 0.000000 1.000000 -0.000000
vn 0.000000 0.927396 -0.374081
vn 0.000001 0.374082 0.927396
vn 0.000001 0.391251 -0.920284
vn 0.000005 0.920283 0.391254
vn -0.000001 -0.374080 -0.927397
vn 0.000003 0.927396 -0.374080
vn -0.000003 -0.920283 -0.391254
vn 1.000000 -0.000003 0.000001
vn 1.000000 -0.000003 0.000000
vn 1.000000 -0.000001 -0.000000
vn 1.000000 -0.000003 -0.000001
vn 1.000000 -0.000002 0.000000
f 1/1/1 2/2/2 3/3/3
f 4/4/4 5/5/5 6/6/6
f 7/7/7 8/8/8 9/9/9
f 10/10/10 11/11/11 12/12/12
f 13/13/13 14/14/14 15/15/15
f 16/16/16 17/17/17 18/18/18
f 19/19/19 20/20/20 21/21/21
f 22/22/22 23/23/23 24/24/24
f 25/25/25 26/26/26 27/27/27
f 28/28/28 29/29/29 30/30/30
f 31/31/31 32/32/32 33/33/33
f 34/34/34 35/35/35 36/36/36
f 37/37/37 38/38/38 39/39/39
f 40/40/40 41/41/41 42/42/42
f 43/43/43 44/44/44 45/45/45
f 46/46/46 47/47/47 48/48/48
f 49/49/49 50/50/50 51/51/51
f 52/52/52 53/53/53 54/54/54
f 55/55/55 56/56/56 57/57/57
f 58/58/58 59/59/59 60/60/60
f 61/61/61 62/62/62 63/63/63
f 64/64/64 65/65/65 66/66/66
f 67/67/67 68/68/68 69/69/69
f 70/70/70 71/71/71 72/72/72
f 73/73/73 74/74/74 75/75/75
f 76/76/76 77/77/77 78/78/78
f 79/79/79 80/80/80 81/81/81
f 82/82/82 83/83/83 84/84/84
f 85/85/85 86/86/86 87/87/87
f 88/88/88 89/89/89 90/90/90
f 91/91/91 92/92/92 93/93/93
f 94/94/94 95/95/95 96/96/96
f 97/97/97 98/98/98 99/99/99
f 96/96/96 100/100/100 97/97/97
f 101/101/101 102/102/102 103/103/103
f 104/104/104 105/105/105 106/106/106
f 107/107/107 108/108/108 109/109/109
f 110/110/110 90/90/90 108/108/108
f 111/111/111 112/112/112 113/113/113
f 114/114/114 115/115/115 112/112/112
f 116/116/116 117/117/117 118/118/118
f 119/119/119 109/109/109 117/117/117
f 120/120/120 121/121/121 122/122/122
f 99/99/99 123/123/123 120/120/120
f 124/124/124 125/125/125 126/126/126
f 127/127/127 128/128/128 129/129/129
f 130/130/130 131/131/131 115/115/115
f 132/132/132 84/84/84 131/131/131
f 133/133/133 134/134/134 135/135/135
f 136/136/136 137/137/137 138/138/138
f 139/139/139 140/140/140 141/141/141
f 142/142/142 143/143/143 144/144/144
f 145/145/145 146/146/146 147/147/147
f 148/148/148 149/149/149 150/150/150
f 151/151/151 152/152/152 153/153/153
f 154/154/154 155/155/155 156/156/156
f 157/157/157 158/158/158 159/159/159
f 160/160/160 161/161/161 162/162/162
f 163/163/163 164/164/164 165/165/165
f 166/166/166 167/167/167 168/168/168
f 169/169/169 170/170/170 171/171/171
f 172/172/172 173/173/173 174/174/174
f 175/175/175 176/176/176 177/177/177
f 178/178/178 179/179/179 180/180/180
f 181/181/181 182/182/182 183/183/183
f 184/184/184 185/185/185 186/186/186
f 187/187/187 188/188/188 189/189/189
f 190/190/190 191/191/191 192/192/192
f 193/193/193 194/194/194 195/195/195
f 196/196/196 197/197/197 198/198/198
f 199/199/199 200/200/200 201/201/201
f 202/202/202 203/203/203 204/204/204
f 205/205/205 206/206/206 207/207/207
f 208/208/208 209/209/209 210/210/210
f 211/211/211 212/212/212 213/213/213
f 214/214/214 215/215/215 216/216/216
f 217/217/217 218/218/218 219/219/219
f 220/220/220 221/221/221 222/222/222
f 223/223/223 224/224/224 225/225/225
f 226/226/226 227/227/227 228/228/228
f 229/229/229 230/230/230 231/231/231
f 232/232/232 233/233/233 234/234/234
f 235/235/235 236/236/236 237/237/237
f 238/238/238 239/239/239 240/240/240
f 241/241/241 242/242/242 243/243/243
f 244/244/244 245/245/245 246/246/246
f 247/247/247 248/248/248 249/249/249
f 250/250/250 251/251/251 252/252/252
f 253/253/253 254/254/254 255/255/255
f 256/256/256 257/257/257 258/258/258
f 259/259/259 260/260/260 261/261/261
f 262/262/262 263/263/263 264/264/264
f 265/265/265 266/266/266 267/267/267
f 268/268/268 269/269/269 270/270/270
f 271/271/271 272/272/272 273/273/273
f 274/274/274 275/275/275 276/276/276
f 277/277/277 278/278/278 279/279/279
f 280/280/280 281/281/281 282/282/282
f 283/283/283 284/284/284 285/285/285
f 286/286/286 287/287/287 288/288/288
f 289/289/289 290/290/290 291/291/291
f 230/230/230 292/292/292 293/293/293
f 294/294/294 295/295/295 296/296/296
f 297/297/297 298/298/298 17/17/17
f 299/299/299 300/300/300 301/301/301
f 302/302/302 303/303/303 239/239/239
f 304/304/304 305/305/305 306/306/306
f 307/307/307 308/308/308 287/287/287
f 309/309/309 310/310/310 311/311/311
f 312/312/312 313/313/313 314/314/314
f 315/315/315 316/316/316 317/317/317
f 318/318/318 319/319/319 320/320/320
f 321/321/321 322/322/322 323/323/323
f 324/324/324 325/325/325 326/326/326
f 327/327/327 328/328/328 329/329/329
f 330/330/330 331/331/331 332/332/332
f 333/333/333 334/334/334 335/335/335
f 336/336/336 337/337/337 338/338/338
f 339/339/339 340/340/340 341/341/341
f 342/342/342 343/343/343 344/344/344
f 345/345/345 346/346/346 347/347/347
f 348/348/348 349/349/349 350/350/350
f 351/351/351 352/352/352 353/353/353
f 354/354/354 355/355/355 356/356/356
f 357/357/357 358/358/358 359/359/359
f 360/360/360 361/361/361 362/362/362
f 363/363/363 364/364/364 365/365/365
f 366/366/366 367/367/367 368/368/368
f 369/369/369 370/370/370 371/371/371
f 372/372/372 373/373/373 374/374/374
f 375/375/375 376/376/376 377/377/377
f 378/378/378 379/379/379 380/380/380
f 381/381/381 382/382/382 383/383/383
f 384/384/384 385/385/385 386/386/386
f 387/387/387 388/388/388 389/389/389
f 390/390/390 391/391/391 392/392/392
f 393/393/393 394/394/394 395/395/395
f 396/396/396 397/397/397 398/398/398
f 399/399/399 400/400/400 401/401/401
f 402/402/402 403/403/403 404/404/404
f 405/405/405 406/406/406 407/407/407
f 408/408/408 406/406/406 409/409/409
f 410/410/410 411/411/411 399/399/399
f 401/401/401 403/403/403 412/412/412
f 405/405/405 404/404/404 413/413/413
f 408/408/408 414/414/414 410/410/410
f 9/9/9 415/415/415 416/416/416
f 417/417/417 418/418/418 419/419/419
f 269/269/269 420/420/420 270/270/270
f 421/421/421 422/422/422 423/423/423
f 248/248/248 424/424/424 249/249/249
f 425/425/425 426/426/426 427/427/427
f 428/428/428 429/429/429 275/275/275
f 430/430/430 431/431/431 432/432/432
f 433/433/433 434/434/434 435/435/435
f 1/1/1 436/436/436 2/2/2
f 4/4/4 437/437/437 5/5/5
f 7/7/7 438/438/438 8/8/8
f 10/10/10 439/439/439 11/11/11
f 13/13/13 440/440/440 14/14/14
f 16/16/16 297/297/297 17/17/17
f 21/21/21 441/441/441 442/442/442
f 441/441/441 443/443/443 442/442/442
f 443/443/443 444/444/444 442/442/442
f 442/442/442 445/445/445 21/21/21
f 445/445/445 19/19/19 21/21/21
f 24/24/24 446/446/446 447/447/447
f 447/447/447 448/448/448 24/24/24
f 448/448/448 449/449/449 24/24/24
f 449/449/449 450/450/450 24/24/24
f 450/450/450 22/22/22 24/24/24
f 27/27/27 451/451/451 452/452/452
f 451/451/451 453/453/453 452/452/452
f 453/453/453 454/454/454 452/452/452
f 452/452/452 455/455/455 27/27/27
f 455/455/455 25/25/25 27/27/27
f 28/28/28 456/456/456 29/29/29
f 31/31/31 457/457/457 32/32/32
f 34/34/34 458/458/458 35/35/35
f 37/37/37 459/459/459 38/38/38
f 40/40/40 460/460/460 41/41/41
f 43/43/43 461/461/461 44/44/44
f 46/46/46 462/462/462 47/47/47
f 49/49/49 463/463/463 50/50/50
f 54/54/54 464/464/464 465/465/465
f 464/464/464 466/466/466 465/465/465
f 466/466/466 467/467/467 465/465/465
f 465/465/465 468/468/468 54/54/54
f 468/468/468 52/52/52 54/54/54
f 55/55/55 469/469/469 56/56/56
f 58/58/58 470/470/470 59/59/59
f 61/61/61 471/471/471 62/62/62
f 64/64/64 472/472/472 65/65/65
f 67/67/67 473/473/473 68/68/68
f 70/70/70 474/474/474 71/71/71
f 73/73/73 475/475/475 74/74/74
f 76/76/76 476/476/476 77/77/77
f 79/79/79 477/477/477 80/80/80
f 82/82/82 478/478/478 83/83/83
f 85/85/85 479/479/479 86/86/86
f 88/88/88 480/480/480 89/89/89
f 91/91/91 481/481/481 92/92/92
f 94/94/94 482/482/482 95/95/95
f 97/97/97 100/100/100 98/98/98
f 96/96/96 95/95/95 100/100/100
f 101/101/101 483/483/483 102/102/102
f 104/104/104 484/484/484 105/105/105
f 107/107/107 110/110/110 108/108/108
f 110/110/110 88/88/88 90/90/90
f 111/111/111 114/114/114 112/112/112
f 114/114/114 130/130/130 115/115/115
f 116/116/116 119/119/119 117/117/117
f 119/119/119 107/107/107 109/109/109
f 120/120/120 123/123/123 121/121/121
f 99/99/99 98/98/98 123/123/123
f 124/124/124 485/485/485 125/125/125
f 127/127/127 486/486/486 128/128/128
f 130/130/130 132/132/132 131/131/131
f 132/132/132 82/82/82 84/84/84
f 133/133/133 487/487/487 134/134/134
f 136/136/136 488/488/488 137/137/137
f 139/139/139 489/489/489 140/140/140
f 142/142/142 490/490/490 143/143/143
f 145/145/145 491/491/491 146/146/146
f 148/148/148 492/492/492 149/149/149
f 151/151/151 493/493/493 152/152/152
f 154/154/154 494/494/494 155/155/155
f 157/157/157 495/495/495 158/158/158
f 160/160/160 496/496/496 161/161/161
f 163/163/163 497/497/497 164/164/164
f 166/166/166 498/498/498 167/167/167
f 169/169/169 499/499/499 170/170/170
f 172/172/172 500/500/500 173/173/173
f 175/175/175 501/501/501 176/176/176
f 178/178/178 502/502/502 179/179/179
f 181/181/181 503/503/503 182/182/182
f 184/184/184 504/504/504 185/185/185
f 187/187/187 505/505/505 188/188/188
f 190/190/190 506/506/506 191/191/191
f 193/193/193 507/507/507 194/194/194
f 196/196/196 508/508/508 197/197/197
f 199/199/199 509/509/509 200/200/200
f 202/202/202 510/510/510 203/203/203
f 205/205/205 511/511/511 206/206/206
f 208/208/208 512/512/512 209/209/209
f 211/211/211 513/513/513 212/212/212
f 214/214/214 514/514/514 215/215/215
f 217/217/217 515/515/515 218/218/218
f 220/220/220 516/516/516 221/221/221
f 223/223/223 517/517/517 224/224/224
f 226/226/226 518/518/518 227/227/227
f 229/229/229 519/519/519 230/230/230
f 232/232/232 520/520/520 233/233/233
f 235/235/235 521/521/521 236/236/236
f 238/238/238 302/302/302 239/239/239
f 241/241/241 522/522/522 242/242/242
f 244/244/244 523/523/523 245/245/245
f 247/247/247 524/524/524 248/248/248
f 250/250/250 525/525/525 251/251/251
f 253/253/253 526/526/526 254/254/254
f 256/256/256 527/527/527 257/257/257
f 259/259/259 528/528/528 260/260/260
f 262/262/262 529/529/529 263/263/263
f 265/265/265 530/530/530 266/266/266
f 268/268/268 531/531/531 269/269/269
f 271/271/271 532/532/532 272/272/272
f 274/274/274 428/428/428 275/275/275
f 277/277/277 533/533/533 278/278/278
f 280/280/280 534/534/534 281/281/281
f 283/283/283 535/535/535 284/284/284
f 284/284/284 536/536/536 285/285/285
f 285/285/285 537/537/537 283/283/283
f 537/537/537 538/538/538 283/283/283
f 538/538/538 539/539/539 283/283/283
f 286/286/286 307/307/307 287/287/287
f 289/289/289 540/540/540 290/290/290
f 230/230/230 519/519/519 292/292/292
f 294/294/294 541/541/541 295/295/295
f 297/297/297 542/542/542 298/298/298
f 299/299/299 543/543/543 300/300/300
f 302/302/302 544/544/544 303/303/303
f 304/304/304 545/545/545 305/305/305
f 307/307/307 546/546/546 308/308/308
f 311/311/311 547/547/547 548/548/548
f 548/548/548 549/549/549 311/311/311
f 549/549/549 550/550/550 311/311/311
f 550/550/550 551/551/551 311/311/311
f 551/551/551 309/309/309 311/311/311
f 312/312/312 552/552/552 313/313/313
f 315/315/315 553/553/553 316/316/316
f 318/318/318 554/554/554 319/319/319
f 321/321/321 555/555/555 322/322/322
f 324/324/324 556/556/556 325/325/325
f 327/327/327 557/557/557 328/328/328
f 330/330/330 558/558/558 331/331/331
f 333/333/333 559/559/559 334/334/334
f 336/336/336 560/560/560 337/337/337
f 339/339/339 561/561/561 340/340/340
f 342/342/342 562/562/562 343/343/343
f 345/345/345 563/563/563 346/346/346
f 348/348/348 564/564/564 349/349/349
f 351/351/351 565/565/565 352/352/352
f 354/354/354 566/566/566 355/355/355
f 357/357/357 567/567/567 358/358/358
f 360/360/360 568/568/568 361/361/361
f 363/363/363 569/569/569 364/364/364
f 366/366/366 570/570/570 367/367/367
f 369/369/369 571/571/571 370/370/370
f 372/372/372 572/572/572 373/373/373
f 375/375/375 573/573/573 376/376/376
f 378/378/378 574/574/574 379/379/379
f 381/381/381 575/575/575 382/382/382
f 384/384/384 576/576/576 385/385/385
f 387/387/387 577/577/577 388/388/388
f 390/390/390 578/578/578 391/391/391
f 393/393/393 579/579/579 394/394/394
f 396/396/396 580/580/580 397/397/397
f 399/399/399 411/411/411 400/400/400
f 402/402/402 412/412/412 403/403/403
f 405/405/405 413/413/413 406/406/406
f 408/408/408 407/407/407 406/406/406
f 410/410/410 414/414/414 411/411/411
f 401/401/401 400/400/400 403/403/403
f 405/405/405 402/402/402 404/404/404
f 408/408/408 409/409/409 414/414/414
f 9/9/9 8/8/8 415/415/415
f 417/417/417 581/581/581 418/418/418
f 269/269/269 582/582/582 420/420/420
f 421/421/421 583/583/583 422/422/422
f 248/248/248 584/584/584 424/424/424
f 425/425/425 585/585/585 426/426/426
f 428/428/428 586/586/586 429/429/429
f 430/430/430 587/587/587 431/431/431
f 435/435/435 588/588/588 589/589/589
f 589/589/589 590/590/590 433/433/433
f 433/433/433 591/591/591 434/434/434
f 434/434/434 592/592/592 435/435/435
f 435/435/435 589/589/589 433/433/433
