# Cube -- imported by tools/import_asset_pack.py from HealthPack2.fbx
o __pending__
v 0.125000 -0.046819 0.049473
v 0.125000 -0.102439 -0.049473
v 0.125000 -0.046819 -0.049473
v 0.041667 0.026663 0.055723
v 0.041667 0.051984 -0.055723
v 0.041667 0.026663 -0.055723
v -0.039096 -0.108689 0.041939
v 0.033978 -0.101666 0.031511
v 0.039096 -0.108689 0.041939
v -0.118750 -0.046819 -0.055723
v -0.041667 -0.102439 -0.055723
v -0.118750 -0.102439 -0.055723
v 0.125000 0.019835 -0.049473
v 0.125000 -0.019835 0.049473
v 0.125000 -0.019835 -0.049473
v -0.125000 0.019835 0.049473
v -0.125000 0.051984 -0.049473
v -0.125000 0.019835 -0.049473
v -0.041667 0.026663 -0.055723
v -0.041667 0.051984 0.055723
v -0.041667 0.026663 0.055723
v -0.048495 0.019835 -0.055723
v -0.041667 0.013007 -0.055723
v -0.041667 -0.019835 -0.058477
v -0.041667 -0.046819 0.059030
v 0.041667 -0.102439 0.055723
v 0.041667 -0.046819 0.059030
v 0.048495 0.019835 0.055723
v 0.118750 0.051984 0.055723
v 0.041667 0.051984 0.055723
v -0.048495 0.019835 0.055723
v -0.118750 0.019835 0.055723
v -0.118750 -0.019835 0.055723
v 0.048495 0.019835 0.055723
v 0.041667 0.013007 0.055723
v 0.041667 -0.019835 0.059030
v -0.125000 -0.046819 -0.049473
v -0.125000 -0.102439 0.049473
v -0.125000 -0.046819 0.049473
v -0.048495 0.019835 -0.055723
v -0.118750 0.051984 -0.055723
v -0.041667 0.051984 -0.055723
v 0.047916 0.058233 0.049473
v 0.118750 0.058233 -0.049473
v 0.047916 0.058233 -0.049473
v 0.118750 -0.046819 -0.055723
v 0.041667 -0.102439 -0.055723
v 0.041667 -0.046819 -0.058477
v 0.041667 -0.046819 -0.058477
v -0.041667 -0.102439 -0.055723
v -0.041667 -0.046819 -0.058477
v -0.041667 -0.108689 0.049473
v 0.039096 -0.108689 0.041939
v 0.041667 -0.108689 0.049473
v 0.048495 0.019835 -0.055723
v 0.041667 0.051984 -0.055723
v 0.118750 0.051984 -0.055723
v -0.048495 0.019835 0.055723
v -0.041667 0.051984 0.055723
v -0.118750 0.051984 0.055723
v -0.034839 0.019835 0.055723
v -0.041667 0.013007 0.055723
v -0.041667 -0.019835 0.059030
v 0.034839 0.019835 -0.055723
v 0.041667 0.013007 -0.055723
v 0.041667 -0.019835 -0.058477
v -0.118750 -0.046819 0.055723
v -0.041667 -0.102439 0.055723
v -0.041667 -0.046819 0.059030
v 0.125000 0.051984 0.049473
v 0.125000 0.019835 0.049473
v -0.118750 0.058233 0.049473
v -0.047916 0.058233 -0.049473
v -0.118750 0.058233 -0.049473
v 0.118750 -0.046819 0.055723
v 0.041667 -0.102439 0.055723
v 0.118750 -0.102439 0.055723
v -0.125000 -0.019835 -0.049473
v -0.125000 -0.019835 0.049473
v 0.118750 -0.102439 0.055723
v 0.118750 -0.108689 0.049473
v 0.125000 -0.102439 0.049473
v -0.125000 -0.102439 -0.049473
v -0.118750 -0.102439 -0.055723
v -0.118750 -0.108689 -0.049473
v -0.125000 -0.102439 0.049473
v -0.118750 -0.108689 0.049473
v -0.118750 -0.102439 0.055723
v 0.125000 -0.102439 -0.049473
v 0.118750 -0.108689 -0.049473
v 0.118750 -0.102439 -0.055723
v 0.125000 0.051984 -0.049473
v 0.118750 0.051984 -0.055723
v 0.118750 0.058233 -0.049473
v 0.125000 0.051984 0.049473
v 0.118750 0.058233 0.049473
v 0.118750 0.051984 0.055723
v -0.118750 0.051984 0.055723
v -0.118750 0.058233 0.049473
v -0.125000 0.051984 0.049473
v -0.125000 0.051984 -0.049473
v -0.118750 0.058233 -0.049473
v -0.118750 0.051984 -0.055723
v -0.118750 -0.019835 -0.055723
v -0.125000 0.019835 -0.049473
v -0.118750 0.019835 -0.055723
v 0.125000 0.019835 0.049473
v 0.118750 -0.019835 0.055723
v 0.125000 -0.019835 0.049473
v 0.125000 -0.019835 -0.049473
v 0.118750 0.019835 -0.055723
v 0.125000 0.019835 -0.049473
v -0.125000 -0.019835 0.049473
v -0.118750 0.019835 0.055723
v -0.125000 0.019835 0.049473
v -0.118750 -0.108689 0.049473
v -0.125000 -0.102439 -0.049473
v -0.118750 -0.108689 -0.049473
v 0.118750 -0.108689 0.049473
v 0.041667 -0.102439 0.055723
v 0.041667 -0.108689 0.049473
v 0.118750 -0.108689 -0.049473
v 0.125000 -0.102439 0.049473
v 0.118750 -0.108689 0.049473
v -0.118750 -0.108689 -0.049473
v -0.041667 -0.102439 -0.055723
v -0.041667 -0.108689 -0.049473
v -0.041667 -0.108689 0.049473
v -0.118750 -0.102439 0.055723
v -0.118750 -0.108689 0.049473
v -0.041667 -0.102439 0.055723
v 0.041667 -0.108689 -0.049473
v 0.118750 -0.102439 -0.055723
v 0.118750 -0.108689 -0.049473
v 0.041667 -0.102439 -0.055723
v -0.125000 -0.102439 0.049473
v -0.118750 -0.046819 0.055723
v -0.125000 -0.046819 0.049473
v -0.118750 -0.102439 -0.055723
v -0.125000 -0.046819 -0.049473
v -0.118750 -0.046819 -0.055723
v 0.118750 -0.102439 0.055723
v 0.125000 -0.046819 0.049473
v 0.118750 -0.046819 0.055723
v 0.118750 -0.019835 -0.055723
v 0.125000 -0.046819 -0.049473
v 0.118750 -0.046819 -0.055723
v 0.118750 0.058233 0.049473
v 0.125000 0.051984 -0.049473
v 0.118750 0.058233 -0.049473
v 0.047916 0.058233 -0.049473
v 0.118750 0.051984 -0.055723
v 0.041667 0.051984 -0.055723
v -0.047916 0.058233 0.049473
v -0.118750 0.051984 0.055723
v -0.041667 0.051984 0.055723
v -0.118750 0.058233 -0.049473
v -0.125000 0.051984 0.049473
v -0.118750 0.058233 0.049473
v -0.047916 0.058233 -0.049473
v -0.118750 0.051984 -0.055723
v -0.118750 0.058233 -0.049473
v 0.047916 0.058233 0.049473
v 0.118750 0.051984 0.055723
v 0.118750 0.058233 0.049473
v -0.041667 0.051984 -0.055723
v -0.047916 0.058233 0.049473
v -0.041667 0.051984 0.055723
v 0.047916 0.058233 -0.049473
v 0.041667 0.051984 0.055723
v 0.047916 0.058233 0.049473
v -0.118750 0.051984 0.055723
v -0.125000 0.051984 -0.049473
v -0.118750 0.051984 -0.055723
v 0.118750 0.051984 -0.055723
v 0.118750 0.019835 0.055723
v 0.125000 0.051984 0.049473
v 0.118750 0.051984 0.055723
v 0.048495 0.019835 -0.055723
v 0.118750 0.019835 -0.055723
v 0.118750 -0.019835 -0.055723
v -0.034839 0.019835 -0.055723
v -0.041667 0.026663 -0.055723
v 0.041667 0.026663 -0.055723
v 0.041667 0.013007 -0.055723
v 0.034839 0.019835 -0.055723
v 0.034839 0.019835 0.055723
v 0.041667 0.026663 0.055723
v -0.041667 0.026663 0.055723
v -0.041667 0.013007 0.055723
v -0.034839 0.019835 0.055723
v -0.034839 0.019835 -0.055723
v -0.041667 0.026663 0.055723
v -0.034839 0.019835 0.055723
v 0.041667 0.026663 -0.055723
v 0.034839 0.019835 0.055723
v 0.041667 0.026663 0.055723
v -0.034839 0.019835 0.055723
v 0.034839 0.019835 -0.055723
v -0.034839 0.019835 -0.055723
v -0.118750 -0.108689 -0.049473
v -0.111424 -0.108689 0.041939
v -0.118750 -0.108689 0.049473
v -0.041667 -0.108689 -0.049473
v 0.039096 -0.108689 -0.041939
v -0.039096 -0.108689 -0.041939
v 0.118750 -0.108689 0.049473
v 0.111424 -0.108689 -0.041939
v 0.118750 -0.108689 -0.049473
v 0.111424 -0.108689 0.041939
v -0.039096 -0.108689 0.041939
v -0.111424 -0.108689 -0.041939
v 0.041667 -0.108689 -0.049473
v 0.033978 -0.101666 0.031511
v -0.033978 -0.101666 -0.031511
v 0.033978 -0.101666 -0.031511
v 0.039096 -0.108689 -0.041939
v -0.033978 -0.101666 -0.031511
v -0.039096 -0.108689 -0.041939
v -0.096838 -0.101666 0.031511
v -0.033978 -0.101666 0.031511
v 0.096838 -0.101666 -0.031511
v 0.033978 -0.101666 -0.031511
v 0.096838 -0.101666 0.031511
v 0.111424 -0.108689 0.041939
v 0.111424 -0.108689 0.041939
v 0.096838 -0.101666 -0.031511
v 0.111424 -0.108689 -0.041939
v -0.096838 -0.101666 -0.031511
v -0.111424 -0.108689 -0.041939
v -0.111424 -0.108689 -0.041939
v -0.096838 -0.101666 0.031511
v -0.111424 -0.108689 0.041939
v 0.125000 -0.102439 -0.049473
v 0.118750 -0.102439 -0.055723
v -0.125000 -0.019835 -0.049473
v -0.118750 -0.019835 0.055723
v 0.041667 -0.019835 0.059030
v 0.118750 -0.046819 0.055723
v 0.118750 -0.019835 0.055723
v -0.118750 -0.019835 0.055723
v -0.041667 -0.046819 0.059030
v -0.041667 -0.019835 0.059030
v 0.041667 -0.019835 -0.058477
v -0.041667 -0.046819 -0.058477
v -0.041667 -0.019835 -0.058477
v 0.118750 -0.019835 -0.055723
v 0.041667 -0.046819 -0.058477
v 0.041667 -0.019835 -0.058477
v -0.041667 -0.019835 0.059030
v 0.041667 -0.046819 0.059030
v 0.041667 -0.019835 0.059030
v -0.041667 -0.019835 -0.058477
v -0.118750 -0.046819 -0.055723
v -0.118750 -0.019835 -0.055723
v -0.118589 0.057960 0.014093
v -0.118589 0.048559 -0.011757
v -0.118589 0.048559 0.014093
v 0.113490 0.062896 -0.011688
v 0.118464 0.057960 -0.011757
v 0.118464 0.048559 -0.011757
v -0.113615 0.062895 -0.011687
v -0.023788 0.062177 -0.010395
v -0.023788 0.049317 -0.010395
v 0.022818 0.062177 -0.010395
v 0.113490 0.062896 0.014024
v 0.113490 0.062896 -0.011688
v 0.022818 0.049317 0.012730
v 0.118464 0.048559 -0.011757
v 0.118464 0.048559 0.014093
v -0.113615 0.062895 0.014023
v -0.023788 0.062177 -0.010395
v -0.113615 0.062895 -0.011687
v -0.023788 0.062177 -0.010395
v -0.000062 0.062934 0.014093
v -0.000062 0.062934 -0.011757
v -0.023788 0.049317 0.012730
v -0.000062 0.048559 -0.011757
v -0.000062 0.048559 0.014093
v -0.023788 0.062177 -0.010395
v -0.000062 0.048559 -0.011757
v -0.023788 0.049317 -0.010395
v 0.022818 0.062177 0.012730
v -0.000062 0.048559 0.014093
v 0.022818 0.049317 0.012730
v 0.118464 0.057960 -0.011757
v 0.118464 0.048559 0.014093
v 0.118464 0.048559 -0.011757
v -0.000062 0.062934 -0.011757
v 0.022818 0.062177 0.012730
v 0.022818 0.062177 -0.010395
v -0.000062 0.048559 0.014093
v 0.022818 0.049317 -0.010395
v 0.022818 0.049317 0.012730
v -0.000062 0.062934 -0.011757
v 0.022818 0.049317 -0.010395
v -0.000062 0.048559 -0.011757
v 0.093385 0.063609 0.037657
v 0.093385 0.061160 0.042036
v 0.093385 0.056367 0.042036
v -0.118589 0.048559 -0.011757
v -0.023788 0.049317 0.012730
v -0.118589 0.048559 0.014093
v -0.113615 0.062895 0.014023
v -0.118589 0.057960 0.014093
v -0.118589 0.048559 0.014093
v -0.000062 0.062934 0.014093
v -0.023788 0.049317 0.012730
v -0.000062 0.048559 0.014093
v -0.113615 0.062895 -0.011687
v -0.118589 0.057960 0.014093
v -0.113615 0.062895 0.014023
v 0.113490 0.062896 0.014024
v 0.118464 0.057960 -0.011757
v 0.113490 0.062896 -0.011688
v 0.113490 0.062896 0.014024
v 0.022818 0.062177 0.012730
v 0.022818 0.049317 0.012730
v 0.093385 0.061160 0.042036
v 0.071363 0.056367 0.042036
v 0.093385 0.056367 0.042036
v -0.073942 0.063609 0.037657
v -0.073942 0.061160 0.042036
v -0.073942 0.056367 0.042036
v 0.071363 0.061160 0.015319
v 0.093385 0.056367 0.015319
v 0.071363 0.056367 0.015319
v 0.071363 0.056367 0.015319
v 0.093385 0.056367 0.042036
v 0.071363 0.056367 0.042036
v 0.071363 0.063609 0.019698
v 0.071363 0.061160 0.015319
v 0.071363 0.056367 0.015319
v 0.071363 0.063609 0.037657
v 0.093385 0.061160 0.042036
v 0.093385 0.063609 0.037657
v 0.093385 0.063609 0.019698
v 0.071363 0.061160 0.015319
v 0.071363 0.063609 0.019698
v 0.071363 0.063609 0.037657
v 0.093385 0.063609 0.019698
v 0.071363 0.063609 0.019698
v -0.073942 0.061160 0.042036
v -0.095964 0.056367 0.042036
v -0.073942 0.056367 0.042036
v -0.095964 0.061160 0.015319
v -0.073942 0.056367 0.015319
v -0.095964 0.056367 0.015319
v -0.095964 0.056367 0.015319
v -0.073942 0.056367 0.042036
v -0.095964 0.056367 0.042036
v -0.095964 0.063609 0.019698
v -0.095964 0.061160 0.015319
v -0.095964 0.056367 0.015319
v -0.095964 0.063609 0.037657
v -0.073942 0.061160 0.042036
v -0.073942 0.063609 0.037657
v -0.073942 0.063609 0.019698
v -0.095964 0.061160 0.015319
v -0.095964 0.063609 0.019698
v -0.095964 0.063609 0.037657
v -0.073942 0.063609 0.019698
v -0.095964 0.063609 0.019698
v 0.125000 -0.102439 0.049473
v 0.041667 0.051984 0.055723
v -0.041667 -0.046819 -0.058477
v -0.125000 0.051984 0.049473
v -0.041667 0.051984 -0.055723
v -0.118750 -0.019835 -0.055723
v -0.118750 0.019835 -0.055723
v -0.041667 -0.102439 0.055723
v 0.118750 0.019835 0.055723
v -0.041667 -0.019835 0.059030
v -0.041667 0.013007 0.055723
v 0.118750 -0.019835 0.055723
v -0.125000 -0.102439 -0.049473
v 0.118750 0.058233 0.049473
v 0.118750 -0.102439 -0.055723
v 0.041667 -0.102439 -0.055723
v 0.041667 -0.019835 0.059030
v 0.034839 0.019835 0.055723
v 0.041667 0.013007 0.055723
v -0.041667 -0.019835 -0.058477
v -0.034839 0.019835 -0.055723
v -0.041667 0.013007 -0.055723
v -0.118750 -0.102439 0.055723
v 0.125000 0.051984 -0.049473
v -0.047916 0.058233 0.049473
v 0.041667 -0.046819 0.059030
v -0.125000 -0.102439 0.049473
v 0.118750 -0.102439 0.055723
v 0.125000 -0.102439 -0.049473
v -0.118750 -0.102439 -0.055723
v -0.118750 -0.102439 0.055723
v -0.125000 -0.102439 -0.049473
v 0.125000 -0.102439 0.049473
v 0.125000 0.051984 0.049473
v 0.118750 0.058233 -0.049473
v -0.118750 0.058233 0.049473
v -0.125000 0.051984 -0.049473
v -0.041667 0.051984 -0.055723
v 0.041667 0.051984 0.055723
v -0.047916 0.058233 -0.049473
v 0.041667 0.051984 -0.055723
v -0.125000 0.051984 0.049473
v 0.125000 0.051984 -0.049473
v 0.041667 -0.019835 -0.058477
v 0.041667 0.013007 -0.055723
v -0.041667 0.013007 -0.055723
v 0.041667 0.013007 0.055723
v -0.041667 0.026663 -0.055723
v 0.034839 0.019835 -0.055723
v 0.034839 0.019835 0.055723
v -0.033978 -0.101666 0.031511
v -0.096838 -0.101666 0.031511
v -0.096838 -0.101666 -0.031511
v 0.096838 -0.101666 -0.031511
v 0.096838 -0.101666 0.031511
v -0.111424 -0.108689 0.041939
v 0.111424 -0.108689 -0.041939
v 0.096838 -0.101666 0.031511
v -0.096838 -0.101666 -0.031511
v 0.041667 -0.046819 0.059030
v -0.118750 -0.046819 0.055723
v 0.041667 -0.046819 -0.058477
v 0.118750 -0.046819 -0.055723
v -0.041667 -0.046819 0.059030
v -0.041667 -0.046819 -0.058477
v -0.118589 0.057960 -0.011757
v 0.022818 0.049317 -0.010395
v 0.022818 0.062177 -0.010395
v -0.118589 0.048559 -0.011757
v -0.118589 0.057960 -0.011757
v 0.022818 0.062177 0.012730
v 0.022818 0.049317 -0.010395
v -0.023788 0.062177 0.012730
v -0.023788 0.062177 0.012730
v -0.023788 0.049317 -0.010395
v -0.000062 0.062934 -0.011757
v -0.000062 0.062934 0.014093
v 0.118464 0.057960 0.014093
v -0.000062 0.062934 0.014093
v -0.000062 0.048559 -0.011757
v 0.022818 0.062177 -0.010395
v 0.093385 0.056367 0.015319
v 0.093385 0.061160 0.015319
v 0.093385 0.063609 0.019698
v -0.023788 0.049317 -0.010395
v -0.023788 0.049317 0.012730
v -0.023788 0.062177 0.012730
v -0.023788 0.062177 0.012730
v -0.118589 0.057960 -0.011757
v 0.118464 0.057960 0.014093
v 0.118464 0.048559 0.014093
v 0.118464 0.057960 0.014093
v 0.071363 0.061160 0.042036
v -0.073942 0.056367 0.015319
v -0.073942 0.061160 0.015319
v -0.073942 0.063609 0.019698
v 0.093385 0.061160 0.015319
v 0.093385 0.056367 0.015319
v 0.071363 0.056367 0.042036
v 0.071363 0.061160 0.042036
v 0.071363 0.063609 0.037657
v 0.071363 0.061160 0.042036
v 0.093385 0.061160 0.015319
v 0.093385 0.063609 0.037657
v -0.095964 0.061160 0.042036
v -0.073942 0.061160 0.015319
v -0.073942 0.056367 0.015319
v -0.095964 0.056367 0.042036
v -0.095964 0.061160 0.042036
v -0.095964 0.063609 0.037657
v -0.095964 0.061160 0.042036
v -0.073942 0.061160 0.015319
v -0.073942 0.063609 0.037657
vt 0.421188 0.314641
vt 0.232341 0.208485
vt 0.232341 0.314641
vt 0.787411 0.302440
vt 0.739084 0.515143
vt 0.787411 0.515143
vt 0.832498 0.680262
vt 0.812594 0.819731
vt 0.832498 0.829499
vt 0.432482 0.981528
vt 0.326326 0.834406
vt 0.326326 0.981528
vt 0.232341 0.441856
vt 0.421188 0.366143
vt 0.232341 0.366143
vt 0.018474 0.429928
vt 0.207321 0.491287
vt 0.207321 0.429928
vt 0.775483 0.076645
vt 0.727156 0.289348
vt 0.775483 0.289348
vt 0.559697 0.847438
vt 0.546665 0.834406
vt 0.483973 0.834407
vt 0.207095 0.834407
vt 0.313234 0.675357
vt 0.207095 0.675358
vt 0.079864 0.662326
vt 0.018505 0.528236
vt 0.018505 0.675357
vt 0.079864 0.847438
vt 0.079864 0.981528
vt 0.155576 0.981528
vt 0.079864 0.662326
vt 0.092895 0.675357
vt 0.155593 0.675358
vt 0.207321 0.302713
vt 0.018474 0.196557
vt 0.018474 0.302713
vt 0.559697 0.847438
vt 0.621056 0.981528
vt 0.621056 0.834406
vt 0.379462 0.006546
vt 0.244269 0.195393
vt 0.379462 0.195393
vt 0.432482 0.528236
vt 0.326326 0.675357
vt 0.432471 0.675358
vt 0.432471 0.675358
vt 0.326326 0.834406
vt 0.432471 0.834407
vt 0.846876 0.675356
vt 0.832498 0.829499
vt 0.846876 0.834405
vt 0.559696 0.662326
vt 0.621056 0.675357
vt 0.621055 0.528236
vt 0.079864 0.847438
vt 0.018505 0.834406
vt 0.018505 0.981528
vt 0.079864 0.821375
vt 0.092895 0.834406
vt 0.155593 0.834407
vt 0.559697 0.688389
vt 0.546665 0.675357
vt 0.483973 0.675358
vt 0.207078 0.981528
vt 0.313234 0.834406
vt 0.207095 0.834407
vt 0.421188 0.503215
vt 0.421188 0.441856
vt 0.581401 0.302440
vt 0.446208 0.491287
vt 0.581401 0.491287
vt 0.207078 0.528236
vt 0.313234 0.675357
vt 0.313234 0.528236
vt 0.207321 0.354215
vt 0.018474 0.354215
vt 0.858804 0.981526
vt 0.846876 0.981526
vt 0.846876 0.993454
vt 0.207321 0.196557
vt 0.219249 0.196557
vt 0.207321 0.184629
vt 0.018474 0.196557
vt 0.018474 0.184629
vt 0.006546 0.196557
vt 0.658029 0.993454
vt 0.658029 0.981526
vt 0.646101 0.981526
vt 0.621081 0.516307
vt 0.621055 0.528236
vt 0.633009 0.528235
vt 0.018474 0.516307
vt 0.006546 0.528235
vt 0.018505 0.528236
vt 0.018505 0.981528
vt 0.006546 0.981526
vt 0.018474 0.993454
vt 0.621081 0.993454
vt 0.633009 0.981526
vt 0.621056 0.981528
vt 0.219249 0.354215
vt 0.207321 0.429928
vt 0.219249 0.429928
vt 0.079833 0.516307
vt 0.155576 0.528236
vt 0.155545 0.516307
vt 0.484010 0.516307
vt 0.559696 0.528236
vt 0.559722 0.516307
vt 0.018474 0.354215
vt 0.006546 0.429928
vt 0.018474 0.429928
vt 0.018474 0.184629
vt 0.207321 0.196557
vt 0.207321 0.184629
vt 0.846876 0.981526
vt 0.858804 0.834405
vt 0.846876 0.834405
vt 0.658029 0.981526
vt 0.846876 0.993454
vt 0.846876 0.981526
vt 0.658029 0.528235
vt 0.646101 0.675356
vt 0.658029 0.675356
vt 0.846876 0.675356
vt 0.858804 0.528235
vt 0.846876 0.528235
vt 0.858804 0.675356
vt 0.658029 0.834405
vt 0.646101 0.981526
vt 0.658029 0.981526
vt 0.646101 0.834405
vt 0.018474 0.196557
vt 0.006546 0.302713
vt 0.018474 0.302713
vt 0.219249 0.196557
vt 0.207321 0.302713
vt 0.219249 0.302713
vt 0.313234 0.528236
vt 0.207047 0.516307
vt 0.207078 0.528236
vt 0.483984 0.528236
vt 0.432508 0.516307
vt 0.432482 0.528236
vt 0.244269 0.006546
vt 0.232341 0.195393
vt 0.244269 0.195393
vt 0.633009 0.663428
vt 0.621055 0.528236
vt 0.621056 0.675357
vt 0.006546 0.846333
vt 0.018505 0.981528
vt 0.018505 0.834406
vt 0.207321 0.503215
vt 0.018474 0.491287
vt 0.018474 0.503215
vt 0.633009 0.846333
vt 0.621056 0.981528
vt 0.633009 0.981526
vt 0.006546 0.663428
vt 0.018505 0.528236
vt 0.006546 0.528235
vt 0.434280 0.503215
vt 0.446208 0.302440
vt 0.434280 0.290512
vt 0.727156 0.503215
vt 0.739084 0.302440
vt 0.727156 0.314368
vt 0.006546 0.491287
vt 0.207321 0.491287
vt 0.219249 0.491287
vt 0.621055 0.528236
vt 0.079864 0.528236
vt 0.018474 0.516307
vt 0.018505 0.528236
vt 0.559696 0.662326
vt 0.559696 0.528236
vt 0.483984 0.528236
vt 0.559697 0.821375
vt 0.572728 0.834406
vt 0.572728 0.675357
vt 0.546665 0.675357
vt 0.559697 0.688389
vt 0.079864 0.688389
vt 0.066832 0.675357
vt 0.066832 0.834406
vt 0.092895 0.834406
vt 0.079864 0.821375
vt 0.567265 0.277420
vt 0.580297 0.064717
vt 0.567265 0.064717
vt 0.787411 0.515143
vt 0.800443 0.302440
vt 0.787411 0.302440
vt 0.567265 0.064717
vt 0.434280 0.277420
vt 0.567265 0.277420
vt 0.658029 0.528235
vt 0.832498 0.542217
vt 0.846876 0.528235
vt 0.658029 0.675356
vt 0.672407 0.829499
vt 0.672407 0.680262
vt 0.846876 0.981526
vt 0.672407 0.967544
vt 0.658029 0.981526
vt 0.832498 0.967544
vt 0.832498 0.680262
vt 0.672407 0.542217
vt 0.658029 0.834405
vt 0.812594 0.819731
vt 0.692312 0.690030
vt 0.692312 0.819731
vt 0.672407 0.829499
vt 0.692312 0.690030
vt 0.672407 0.680262
vt 0.812594 0.570056
vt 0.812594 0.690030
vt 0.692312 0.939704
vt 0.692312 0.819731
vt 0.812594 0.939704
vt 0.832498 0.967544
vt 0.832498 0.967544
vt 0.692312 0.939704
vt 0.672407 0.967544
vt 0.692312 0.570056
vt 0.672407 0.542217
vt 0.672407 0.542217
vt 0.812594 0.570056
vt 0.832498 0.542217
vt 0.326352 0.516307
vt 0.326326 0.528236
vt 0.207321 0.354215
vt 0.006546 0.354215
vt 0.155593 0.675358
vt 0.207078 0.528236
vt 0.155576 0.528236
vt 0.155576 0.981528
vt 0.207095 0.834407
vt 0.155593 0.834407
vt 0.483973 0.675358
vt 0.432471 0.834407
vt 0.483973 0.834407
vt 0.483984 0.528236
vt 0.432471 0.675358
vt 0.483973 0.675358
vt 0.155593 0.834407
vt 0.207095 0.675358
vt 0.155593 0.675358
vt 0.483973 0.834407
vt 0.432482 0.981528
vt 0.483984 0.981528
vt 0.594492 0.197547
vt 0.612434 0.246883
vt 0.612434 0.197547
vt 0.673464 0.072200
vt 0.664043 0.062706
vt 0.646101 0.062706
vt 0.673463 0.505649
vt 0.672097 0.334207
vt 0.647553 0.334207
vt 0.918632 0.810905
vt 0.872027 0.983961
vt 0.921101 0.983961
vt 0.918632 0.345376
vt 0.871896 0.527926
vt 0.921232 0.527926
vt 0.872029 0.550511
vt 0.918632 0.721953
vt 0.921099 0.550511
vt 0.918632 0.721953
vt 0.871896 0.767236
vt 0.921232 0.767236
vt 0.918632 0.256424
vt 0.871896 0.301707
vt 0.921232 0.301707
vt 0.672097 0.334207
vt 0.646101 0.288925
vt 0.647553 0.334207
vt 0.688068 0.245255
vt 0.714064 0.288924
vt 0.712612 0.245255
vt 0.813534 0.337641
vt 0.831476 0.386977
vt 0.831476 0.337641
vt 0.921232 0.767236
vt 0.874496 0.810905
vt 0.918632 0.810905
vt 0.921232 0.301707
vt 0.874496 0.345376
vt 0.918632 0.345376
vt 0.673537 0.288924
vt 0.647553 0.245255
vt 0.646101 0.288925
vt 0.594492 0.366692
vt 0.599166 0.375049
vt 0.608314 0.375049
vt 0.871896 0.075488
vt 0.918632 0.256424
vt 0.921232 0.075488
vt 0.686702 0.505649
vt 0.696122 0.515143
vt 0.714064 0.515143
vt 0.686628 0.288925
vt 0.712612 0.334207
vt 0.714064 0.288924
vt 0.921099 0.550511
vt 0.871896 0.541017
vt 0.872029 0.550511
vt 0.872027 0.983961
vt 0.921232 0.993454
vt 0.921101 0.983961
vt 0.686701 0.072200
vt 0.688068 0.245255
vt 0.712612 0.245255
vt 0.621405 0.295816
vt 0.630553 0.337847
vt 0.630553 0.295816
vt 0.594492 0.302609
vt 0.599166 0.310966
vt 0.608314 0.310966
vt 0.630553 0.392970
vt 0.621405 0.350939
vt 0.621405 0.392970
vt 0.855565 0.400069
vt 0.813534 0.451060
vt 0.855565 0.451060
vt 0.594492 0.494858
vt 0.599166 0.503215
vt 0.608314 0.503215
vt 0.830606 0.182631
vt 0.788575 0.174274
vt 0.788575 0.182631
vt 0.788575 0.216908
vt 0.830606 0.225265
vt 0.830606 0.216908
vt 0.830606 0.182631
vt 0.788575 0.216908
vt 0.830606 0.216908
vt 0.621405 0.461184
vt 0.630553 0.503215
vt 0.630553 0.461184
vt 0.630553 0.448092
vt 0.621405 0.406061
vt 0.621405 0.448092
vt 0.830606 0.238357
vt 0.788575 0.289348
vt 0.830606 0.289348
vt 0.594492 0.430775
vt 0.599166 0.439132
vt 0.608314 0.439132
vt 0.855565 0.472509
vt 0.813534 0.464152
vt 0.813534 0.472509
vt 0.813534 0.506786
vt 0.855565 0.515143
vt 0.855565 0.506786
vt 0.855565 0.472509
vt 0.813534 0.506786
vt 0.855565 0.506786
vt 0.421188 0.208485
vt 0.739084 0.302440
vt 0.432471 0.834407
vt 0.018474 0.491287
vt 0.727156 0.076645
vt 0.483984 0.981528
vt 0.559697 0.981528
vt 0.313234 0.834406
vt 0.079864 0.528236
vt 0.155593 0.834407
vt 0.092895 0.834406
vt 0.155576 0.528236
vt 0.207321 0.196557
vt 0.244269 0.006546
vt 0.326326 0.528236
vt 0.326326 0.675357
vt 0.155593 0.675358
vt 0.079864 0.688389
vt 0.092895 0.675357
vt 0.483973 0.834407
vt 0.559697 0.821375
vt 0.546665 0.834406
vt 0.313234 0.981528
vt 0.232341 0.503215
vt 0.446208 0.302440
vt 0.207095 0.675358
vt 0.018474 0.196557
vt 0.858804 0.981526
vt 0.658029 0.993454
vt 0.646101 0.528235
vt 0.006546 0.196557
vt 0.207321 0.196557
vt 0.313203 0.516307
vt 0.232341 0.006546
vt 0.633009 0.528235
vt 0.006546 0.981526
vt 0.207321 0.491287
vt 0.621056 0.834406
vt 0.018505 0.675357
vt 0.446208 0.491287
vt 0.739084 0.515143
vt 0.018474 0.491287
vt 0.621081 0.516307
vt 0.483973 0.675358
vt 0.546665 0.675357
vt 0.546665 0.834406
vt 0.092895 0.675357
vt 0.580297 0.277420
vt 0.800443 0.515143
vt 0.434280 0.064717
vt 0.812594 0.690030
vt 0.812594 0.570056
vt 0.692312 0.570056
vt 0.692312 0.939704
vt 0.812594 0.939704
vt 0.832498 0.542217
vt 0.672407 0.967544
vt 0.812594 0.939704
vt 0.692312 0.570056
vt 0.207095 0.675358
vt 0.207078 0.981528
vt 0.432471 0.675358
vt 0.432482 0.528236
vt 0.207095 0.834407
vt 0.432471 0.834407
vt 0.594492 0.246883
vt 0.647553 0.245255
vt 0.672097 0.245255
vt 0.646101 0.515143
vt 0.664043 0.515143
vt 0.874496 0.810905
vt 0.874496 0.345376
vt 0.874496 0.721953
vt 0.874496 0.721953
vt 0.874496 0.256424
vt 0.673537 0.288924
vt 0.686628 0.288925
vt 0.813534 0.386977
vt 0.871896 0.767236
vt 0.871896 0.301707
vt 0.672097 0.245255
vt 0.608314 0.324058
vt 0.599166 0.324058
vt 0.594492 0.332415
vt 0.874496 0.256424
vt 0.712612 0.334207
vt 0.688068 0.334207
vt 0.688068 0.334207
vt 0.921232 0.541017
vt 0.871896 0.993454
vt 0.714064 0.062706
vt 0.696122 0.062706
vt 0.621405 0.337847
vt 0.608314 0.259975
vt 0.599166 0.259975
vt 0.594492 0.268332
vt 0.630553 0.350939
vt 0.813534 0.400069
vt 0.608314 0.452224
vt 0.599166 0.452224
vt 0.594492 0.460581
vt 0.830606 0.174274
vt 0.788575 0.225265
vt 0.788575 0.182631
vt 0.621405 0.503215
vt 0.630553 0.406061
vt 0.788575 0.238357
vt 0.608314 0.388141
vt 0.599166 0.388141
vt 0.594492 0.396498
vt 0.855565 0.464152
vt 0.813534 0.515143
vt 0.813534 0.472509
vn 1.000000 0.000000 0.000000
vn 1.000000 0.000000 0.000000
vn 1.000000 0.000000 0.000000
vn -1.000000 -0.000000 -0.000000
vn -1.000000 -0.000000 -0.000000
vn -1.000000 -0.000000 -0.000000
vn 0.000000 -0.829445 -0.558589
vn 0.000000 -0.829445 -0.558588
vn 0.000000 -0.829445 -0.558588
vn -0.014212 -0.019697 -0.999705
vn -0.021493 -0.029788 -0.999325
vn 0.000000 0.000000 -1.000000
vn 1.000000 0.000000 0.000000
vn 1.000000 0.000000 0.000000
vn 1.000000 0.000000 0.000000
vn -1.000000 -0.000000 -0.000000
vn -1.000000 -0.000000 -0.000000
vn -1.000000 -0.000000 -0.000000
vn 1.000000 0.000000 0.000000
vn 1.000000 0.000000 0.000000
vn 1.000000 0.000000 0.000000
vn 0.003280 0.054753 -0.998495
vn 0.083296 0.083294 -0.993038
vn -0.022725 0.065363 -0.997603
vn -0.000000 -0.059352 0.998237
vn -0.000000 -0.059352 0.998237
vn -0.000000 -0.059352 0.998237
vn -0.000000 -0.000000 1.000000
vn -0.000000 0.000000 1.000000
vn -0.000000 -0.000000 1.000000
vn 0.003938 0.065677 0.997833
vn -0.000000 0.000000 1.000000
vn -0.014027 0.024843 0.999593
vn -0.003938 0.065677 0.997833
vn -0.099692 0.099691 0.990012
vn 0.027264 0.078384 0.996550
vn -1.000000 -0.000000 -0.000000
vn -1.000000 -0.000000 -0.000000
vn -1.000000 -0.000000 -0.000000
vn 0.000000 0.000000 -1.000000
vn 0.000000 0.000000 -1.000000
vn 0.000000 0.000000 -1.000000
vn -0.000000 1.000000 -0.000000
vn -0.000000 1.000000 -0.000000
vn -0.000000 1.000000 -0.000000
vn 0.014212 -0.019697 -0.999705
vn 0.021494 -0.029788 -0.999325
vn 0.035670 -0.049435 -0.998140
vn 0.000000 -0.049466 -0.998776
vn 0.000000 -0.049466 -0.998776
vn 0.000000 -0.049466 -0.998776
vn 0.000000 -1.000000 -0.000001
vn 0.000000 -1.000000 -0.000000
vn 0.000000 -1.000000 -0.000001
vn -0.000000 -0.000000 -1.000000
vn -0.000000 -0.000000 -1.000000
vn 0.000000 0.000000 -1.000000
vn 0.000000 0.000000 1.000000
vn 0.000000 0.000000 1.000000
vn -0.000000 0.000000 1.000000
vn -0.026200 0.087525 0.995818
vn -0.099692 0.099691 0.990012
vn -0.010833 0.084923 0.996329
vn 0.021845 0.072999 -0.997093
vn 0.083296 0.083294 -0.993038
vn 0.009047 0.070821 -0.997448
vn -0.017058 -0.023640 0.999575
vn -0.025791 -0.035744 0.999028
vn -0.042787 -0.059298 0.997323
vn 1.000000 0.000000 0.000000
vn 1.000000 0.000000 0.000000
vn -0.000000 1.000000 -0.000000
vn -0.000000 1.000000 -0.000000
vn -0.000000 1.000000 -0.000000
vn 0.017058 -0.023640 0.999575
vn 0.025791 -0.035744 0.999028
vn -0.000000 0.000000 1.000000
vn -1.000000 -0.000000 -0.000000
vn -1.000000 -0.000000 -0.000000
vn 0.577349 -0.577351 0.577350
vn 0.577349 -0.577351 0.577350
vn 0.577349 -0.577351 0.577350
vn -0.577349 -0.577351 -0.577350
vn -0.577349 -0.577351 -0.577350
vn -0.577349 -0.577351 -0.577350
vn -0.577349 -0.577351 0.577350
vn -0.577349 -0.577351 0.577350
vn -0.577349 -0.577351 0.577350
vn 0.577349 -0.577351 -0.577350
vn 0.577349 -0.577351 -0.577350
vn 0.577349 -0.577351 -0.577350
vn 0.577349 0.577351 -0.577351
vn 0.577349 0.577351 -0.577351
vn 0.577349 0.577351 -0.577351
vn 0.577349 0.577351 0.577351
vn 0.577349 0.577351 0.577351
vn 0.577349 0.577351 0.577351
vn -0.577349 0.577351 0.577351
vn -0.577349 0.577351 0.577351
vn -0.577349 0.577351 0.577351
vn -0.577349 0.577351 -0.577351
vn -0.577349 0.577351 -0.577351
vn -0.577349 0.577351 -0.577351
vn -0.707106 -0.000000 -0.707107
vn -0.707107 -0.000000 -0.707107
vn -0.707107 -0.000000 -0.707107
vn 0.707107 0.000000 0.707107
vn 0.707106 0.000000 0.707107
vn 0.707106 0.000000 0.707107
vn 0.707107 0.000000 -0.707107
vn 0.707107 0.000000 -0.707107
vn 0.707107 0.000000 -0.707107
vn -0.707107 -0.000000 0.707107
vn -0.707107 -0.000000 0.707107
vn -0.707107 -0.000000 0.707107
vn -0.707107 -0.707106 -0.000000
vn -0.707106 -0.707108 -0.000000
vn -0.707106 -0.707108 -0.000000
vn -0.000000 -0.707108 0.707106
vn -0.000000 -0.707107 0.707107
vn -0.000000 -0.707107 0.707107
vn 0.707107 -0.707106 0.000000
vn 0.707106 -0.707108 0.000000
vn 0.707106 -0.707108 0.000000
vn 0.000000 -0.707108 -0.707106
vn 0.000000 -0.707107 -0.707107
vn 0.000000 -0.707107 -0.707107
vn -0.000000 -0.707108 0.707106
vn -0.000000 -0.707107 0.707107
vn -0.000000 -0.707107 0.707107
vn -0.000000 -0.707108 0.707106
vn 0.000000 -0.707108 -0.707106
vn 0.000000 -0.707107 -0.707107
vn 0.000000 -0.707107 -0.707107
vn 0.000000 -0.707108 -0.707106
vn -0.707107 -0.000000 0.707107
vn -0.707107 -0.000000 0.707107
vn -0.707107 -0.000000 0.707107
vn -0.707106 -0.000000 -0.707107
vn -0.707106 -0.000000 -0.707107
vn -0.707106 -0.000000 -0.707107
vn 0.707106 0.000000 0.707107
vn 0.707106 0.000000 0.707107
vn 0.707106 0.000000 0.707107
vn 0.707107 0.000000 -0.707107
vn 0.707107 0.000000 -0.707107
vn 0.707107 0.000000 -0.707107
vn 0.707107 0.707106 0.000000
vn 0.707106 0.707108 0.000000
vn 0.707106 0.707108 0.000000
vn 0.000000 0.707107 -0.707107
vn 0.000000 0.707107 -0.707106
vn 0.000000 0.707107 -0.707107
vn -0.000000 0.707107 0.707107
vn -0.000000 0.707107 0.707106
vn -0.000000 0.707107 0.707107
vn -0.707108 0.707106 -0.000000
vn -0.707106 0.707108 -0.000000
vn -0.707106 0.707108 -0.000000
vn 0.000000 0.707107 -0.707107
vn 0.000000 0.707107 -0.707106
vn 0.000000 0.707107 -0.707106
vn -0.000000 0.707107 0.707107
vn -0.000000 0.707107 0.707106
vn -0.000000 0.707107 0.707106
vn 0.707106 0.707107 0.000000
vn 0.707107 0.707106 0.000000
vn 0.707107 0.707106 0.000000
vn -0.707107 0.707106 -0.000000
vn -0.707106 0.707107 -0.000000
vn -0.707106 0.707107 -0.000000
vn -0.707107 -0.000000 0.707107
vn -0.707107 -0.000000 -0.707107
vn -0.707107 -0.000000 -0.707107
vn 0.707107 0.000000 -0.707107
vn 0.707107 0.000000 0.707107
vn 0.707107 0.000000 0.707107
vn 0.707107 0.000000 0.707107
vn -0.003280 0.054753 -0.998495
vn 0.000000 0.000000 -1.000000
vn 0.011688 0.020699 -0.999717
vn 0.000000 0.000000 -1.000000
vn 0.000001 0.000000 -1.000000
vn -0.000001 -0.000000 -1.000000
vn 0.000000 0.000000 -1.000000
vn 0.000000 0.000000 -1.000000
vn -0.000000 0.000000 1.000000
vn -0.000001 -0.000000 1.000000
vn 0.000001 0.000000 1.000000
vn -0.000000 0.000000 1.000000
vn -0.000000 0.000000 1.000000
vn 0.707107 0.707107 0.000000
vn 0.707107 0.707107 0.000000
vn 0.707107 0.707107 0.000000
vn -0.707107 0.707107 -0.000000
vn -0.707107 0.707106 -0.000000
vn -0.707107 0.707106 -0.000000
vn -0.000000 1.000000 -0.000000
vn -0.000000 1.000000 -0.000000
vn -0.000000 1.000000 -0.000000
vn 0.000000 -1.000000 -0.000000
vn 0.000000 -1.000000 0.000000
vn 0.000000 -1.000000 0.000000
vn 0.000000 -1.000000 0.000001
vn 0.000000 -1.000000 0.000000
vn 0.000000 -1.000000 0.000002
vn 0.000000 -1.000000 0.000000
vn 0.000000 -1.000000 -0.000000
vn 0.000000 -1.000000 -0.000000
vn 0.000000 -1.000000 0.000000
vn 0.000000 -1.000000 -0.000002
vn 0.000000 -1.000000 -0.000000
vn 0.000000 -1.000000 0.000001
vn 0.000000 -1.000000 0.000000
vn 0.000000 -1.000000 0.000000
vn 0.000000 -1.000000 0.000000
vn -0.000000 -0.829445 0.558588
vn -0.000000 -0.829445 0.558588
vn -0.000000 -0.829445 0.558589
vn 0.000000 -0.829445 -0.558588
vn 0.000000 -0.829445 -0.558589
vn -0.000000 -0.829445 0.558588
vn -0.000000 -0.829445 0.558588
vn 0.000000 -0.829445 -0.558588
vn 0.000000 -0.829445 -0.558588
vn -0.433819 -0.901000 -0.000000
vn -0.433819 -0.901000 -0.000000
vn -0.433819 -0.901000 -0.000000
vn -0.000000 -0.829445 0.558588
vn -0.000000 -0.829445 0.558588
vn 0.433819 -0.901000 0.000000
vn 0.433819 -0.901000 0.000000
vn 0.433819 -0.901000 0.000000
vn 0.707107 0.000000 -0.707107
vn 0.707107 0.000000 -0.707107
vn -0.707106 -0.000000 -0.707107
vn -0.707107 -0.000000 0.707107
vn 0.042862 0.000000 0.999081
vn 0.042862 0.000000 0.999081
vn 0.042862 0.000000 0.999081
vn -0.042863 -0.000000 0.999081
vn -0.042862 -0.000000 0.999081
vn -0.042862 -0.000000 0.999081
vn 0.000000 0.000000 -1.000000
vn 0.000000 0.000000 -1.000000
vn 0.000000 0.000000 -1.000000
vn 0.035714 0.000000 -0.999362
vn 0.035714 0.000000 -0.999362
vn 0.035714 0.000000 -0.999362
vn -0.000000 0.000000 1.000000
vn -0.000000 0.000000 1.000000
vn -0.000000 0.000000 1.000000
vn -0.035713 -0.000000 -0.999362
vn -0.035713 -0.000000 -0.999362
vn -0.035714 -0.000000 -0.999362
vn -1.000000 -0.000000 -0.000000
vn -1.000000 -0.000000 -0.000000
vn -1.000000 -0.000000 -0.000000
vn -0.014168 -0.000102 -0.999900
vn -0.013851 -0.000000 -0.999904
vn -0.014159 -0.000107 -0.999900
vn 0.014312 -0.000078 -0.999898
vn 0.014385 0.000000 -0.999897
vn 0.014384 -0.000010 -0.999897
vn -0.007932 0.999969 0.000000
vn -0.007932 0.999969 0.000000
vn -0.007932 0.999969 -0.000000
vn -0.007920 -0.999969 -0.000000
vn -0.007920 -0.999969 -0.000000
vn -0.007920 -0.999969 -0.000000
vn 0.008000 0.999968 -0.000000
vn 0.008000 0.999968 -0.000000
vn 0.008000 0.999968 0.000000
vn -0.031914 0.999491 -0.000000
vn -0.031914 0.999491 -0.000000
vn -0.031914 0.999491 0.000000
vn -0.031914 -0.999491 -0.000000
vn -0.031914 -0.999491 -0.000000
vn -0.031914 -0.999491 0.000000
vn -0.057324 0.000000 -0.998356
vn -0.057324 0.000000 -0.998356
vn -0.057324 0.000000 -0.998356
vn 0.059435 0.000000 0.998232
vn 0.059435 0.000000 0.998232
vn 0.059435 0.000000 0.998232
vn 1.000000 0.000000 0.000000
vn 1.000000 0.000000 0.000000
vn 1.000000 0.000000 0.000000
vn 0.033092 0.999452 -0.000000
vn 0.033092 0.999452 -0.000000
vn 0.033092 0.999452 -0.000000
vn 0.033092 -0.999452 0.000000
vn 0.033092 -0.999452 0.000000
vn 0.033092 -0.999452 0.000000
vn 0.059435 -0.000000 -0.998232
vn 0.059435 -0.000000 -0.998232
vn 0.059435 -0.000000 -0.998232
vn 1.000000 0.000000 0.000000
vn 1.000000 0.000000 0.000000
vn 1.000000 0.000000 0.000000
vn 0.007991 -0.999968 -0.000000
vn 0.007991 -0.999968 -0.000000
vn 0.007991 -0.999968 0.000000
vn 0.014312 -0.000078 0.999898
vn 0.014068 0.000000 0.999901
vn 0.014305 -0.000082 0.999898
vn -0.057325 -0.000000 0.998356
vn -0.057325 -0.000000 0.998356
vn -0.057325 -0.000000 0.998356
vn -0.704335 0.709868 -0.000000
vn -0.704336 0.709867 -0.000000
vn -0.704336 0.709867 -0.000000
vn 0.704378 0.709825 0.000000
vn 0.704377 0.709826 0.000000
vn 0.704377 0.709826 0.000000
vn -0.014168 -0.000102 0.999900
vn -0.014263 -0.000000 0.999898
vn -0.014261 -0.000013 0.999898
vn -0.000000 0.000000 1.000000
vn -0.000000 0.000000 1.000000
vn -0.000000 0.000000 1.000000
vn 1.000000 -0.000001 0.000000
vn 1.000000 0.000000 0.000000
vn 1.000000 -0.000001 0.000000
vn 0.000000 0.000000 -1.000000
vn 0.000000 0.000000 -1.000000
vn 0.000000 0.000000 -1.000000
vn 0.000000 -1.000000 0.000000
vn 0.000000 -1.000000 0.000000
vn 0.000000 -1.000000 0.000000
vn -1.000000 0.000000 -0.000000
vn -1.000000 -0.000000 -0.000000
vn -1.000000 -0.000000 -0.000000
vn -0.000000 0.872788 0.488100
vn -0.000000 0.872788 0.488100
vn -0.000000 0.872788 0.488100
vn -0.000000 0.872788 -0.488100
vn -0.000000 0.872788 -0.488100
vn -0.000000 0.872788 -0.488100
vn -0.000000 1.000000 -0.000000
vn -0.000000 1.000000 -0.000000
vn -0.000000 1.000000 -0.000000
vn -0.000000 0.000000 1.000000
vn -0.000000 0.000000 1.000000
vn -0.000000 0.000000 1.000000
vn 0.000000 0.000000 -1.000000
vn 0.000000 0.000000 -1.000000
vn 0.000000 0.000000 -1.000000
vn 0.000000 -1.000000 0.000000
vn 0.000000 -1.000000 0.000000
vn 0.000000 -1.000000 0.000000
vn -1.000000 0.000001 -0.000000
vn -1.000000 -0.000000 -0.000000
vn -1.000000 0.000001 -0.000000
vn -0.000000 0.872788 0.488100
vn -0.000000 0.872787 0.488101
vn -0.000000 0.872787 0.488101
vn -0.000000 0.872788 -0.488100
vn -0.000000 0.872787 -0.488101
vn -0.000000 0.872787 -0.488101
vn -0.000000 1.000000 -0.000000
vn -0.000000 1.000000 -0.000000
vn -0.000000 1.000000 -0.000000
vn 1.000000 0.000000 0.000000
vn -1.000000 -0.000000 -0.000000
vn -0.035670 -0.049435 -0.998140
vn -1.000000 -0.000000 -0.000000
vn 1.000000 0.000000 0.000000
vn -0.011687 0.020699 -0.999717
vn 0.000000 0.000000 -1.000000
vn -0.000000 -0.059352 0.998237
vn -0.000000 0.000000 1.000000
vn -0.027264 0.078384 0.996550
vn 0.099692 0.099691 0.990012
vn 0.014027 0.024843 0.999593
vn -1.000000 -0.000000 -0.000000
vn -0.000000 1.000000 -0.000000
vn 0.000000 0.000000 -1.000000
vn 0.000000 -0.049466 -0.998776
vn 0.010833 0.084923 0.996329
vn 0.026200 0.087526 0.995818
vn 0.099692 0.099691 0.990012
vn -0.009047 0.070821 -0.997448
vn -0.021845 0.072999 -0.997093
vn -0.083295 0.083294 -0.993038
vn -0.000000 0.000000 1.000000
vn 1.000000 0.000000 0.000000
vn -0.000000 1.000000 -0.000000
vn 0.042787 -0.059298 0.997323
vn -0.707107 -0.707106 -0.000000
vn -0.000000 -0.707108 0.707106
vn 0.707107 -0.707106 0.000000
vn 0.000000 -0.707108 -0.707106
vn -0.707107 -0.000000 0.707107
vn -0.707106 -0.000000 -0.707107
vn 0.707106 0.000000 0.707107
vn 0.707108 0.707106 0.000000
vn 0.000000 0.707107 -0.707106
vn -0.000000 0.707107 0.707106
vn -0.707108 0.707106 -0.000000
vn 0.000000 0.707107 -0.707107
vn -0.000000 0.707107 0.707107
vn 0.707106 0.707107 0.000000
vn -0.707107 0.707106 -0.000000
vn -0.707107 -0.000000 0.707107
vn 0.707107 0.000000 -0.707107
vn 0.022726 0.065363 -0.997603
vn -0.083295 0.083294 -0.993038
vn 0.000000 0.000000 -1.000000
vn -0.000000 0.000000 1.000000
vn 0.707107 0.707107 0.000000
vn -0.707107 0.707107 -0.000000
vn -0.000000 1.000000 -0.000000
vn 0.000000 -1.000000 0.000000
vn 0.000000 -1.000000 0.000000
vn 0.000000 -1.000000 0.000000
vn 0.000000 -1.000000 0.000000
vn 0.000000 -1.000000 0.000000
vn 0.000000 -0.829445 -0.558588
vn -0.000000 -0.829445 0.558588
vn -0.433819 -0.901000 -0.000000
vn 0.433820 -0.901000 0.000000
vn 0.042862 0.000000 0.999081
vn -0.042863 -0.000000 0.999081
vn 0.000000 0.000000 -1.000000
vn 0.035714 0.000000 -0.999362
vn -0.000000 0.000000 1.000000
vn -0.035713 -0.000000 -0.999362
vn -1.000000 -0.000000 -0.000000
vn -0.014261 -0.000013 -0.999898
vn -0.014263 0.000000 -0.999898
vn 0.014305 -0.000082 -0.999898
vn 0.014069 0.000000 -0.999901
vn -0.007932 0.999969 0.000000
vn -0.007920 -0.999969 -0.000000
vn 0.008000 0.999968 -0.000000
vn -0.031914 0.999491 -0.000000
vn -0.031914 -0.999491 -0.000000
vn -0.057324 0.000000 -0.998356
vn 0.059435 0.000000 0.998232
vn 1.000000 0.000000 0.000000
vn 0.033092 0.999452 0.000000
vn 0.033092 -0.999452 0.000000
vn 0.059435 -0.000000 -0.998232
vn 1.000000 0.000000 0.000000
vn 1.000000 0.000000 0.000000
vn 1.000000 0.000001 0.000000
vn 0.007991 -0.999968 -0.000000
vn 0.014384 -0.000010 0.999897
vn 0.014385 0.000000 0.999897
vn -0.057325 -0.000000 0.998356
vn -0.704335 0.709868 -0.000000
vn 0.704378 0.709825 0.000000
vn -0.014159 -0.000107 0.999900
vn -0.013851 -0.000000 0.999904
vn -0.000000 0.000000 1.000000
vn 1.000000 -0.000001 0.000000
vn 1.000000 0.000000 0.000000
vn 1.000000 -0.000000 0.000000
vn 0.000000 0.000000 -1.000000
vn 0.000000 -1.000000 0.000000
vn -1.000000 0.000000 -0.000000
vn -1.000000 -0.000000 -0.000000
vn -1.000000 0.000001 -0.000000
vn -0.000000 0.872788 0.488100
vn -0.000000 0.872788 -0.488100
vn -0.000000 1.000000 -0.000000
vn -0.000000 0.000000 1.000000
vn 0.000000 0.000000 -1.000000
vn 0.000000 -1.000000 0.000000
vn -1.000000 0.000000 -0.000000
vn -1.000000 -0.000000 -0.000000
vn -1.000000 -0.000000 -0.000000
vn -0.000000 0.872788 0.488100
vn -0.000000 0.872788 -0.488099
vn -0.000000 1.000000 -0.000000
f 1/1/1 2/2/2 3/3/3
f 4/4/4 5/5/5 6/6/6
f 7/7/7 8/8/8 9/9/9
f 10/10/10 11/11/11 12/12/12
f 13/13/13 14/14/14 15/15/15
f 16/16/16 17/17/17 18/18/18
f 19/19/19 20/20/20 21/21/21
f 22/22/22 23/23/23 24/24/24
f 25/25/25 26/26/26 27/27/27
f 28/28/28 29/29/29 30/30/30
f 31/31/31 32/32/32 33/33/33
f 34/34/34 35/35/35 36/36/36
f 37/37/37 38/38/38 39/39/39
f 40/40/40 41/41/41 42/42/42
f 43/43/43 44/44/44 45/45/45
f 46/46/46 47/47/47 48/48/48
f 49/49/49 50/50/50 51/51/51
f 52/52/52 53/53/53 54/54/54
f 55/55/55 56/56/56 57/57/57
f 58/58/58 59/59/59 60/60/60
f 61/61/61 62/62/62 63/63/63
f 64/64/64 65/65/65 66/66/66
f 67/67/67 68/68/68 69/69/69
f 13/13/13 70/70/70 71/71/71
f 72/72/72 73/73/73 74/74/74
f 75/75/75 76/76/76 77/77/77
f 16/16/16 78/78/78 79/79/79
f 80/80/80 81/81/81 82/82/82
f 83/83/83 84/84/84 85/85/85
f 86/86/86 87/87/87 88/88/88
f 89/89/89 90/90/90 91/91/91
f 92/92/92 93/93/93 94/94/94
f 95/95/95 96/96/96 97/97/97
f 98/98/98 99/99/99 100/100/100
f 101/101/101 102/102/102 103/103/103
f 104/104/104 105/105/105 106/106/106
f 107/107/107 108/108/108 109/109/109
f 110/110/110 111/111/111 112/112/112
f 113/113/113 114/114/114 115/115/115
f 116/116/116 117/117/117 118/118/118
f 119/119/119 120/120/120 121/121/121
f 122/122/122 123/123/123 124/124/124
f 125/125/125 126/126/126 127/127/127
f 128/128/128 129/129/129 130/130/130
f 121/121/121 131/131/131 128/128/128
f 132/132/132 133/133/133 134/134/134
f 127/127/127 135/135/135 132/132/132
f 136/136/136 137/137/137 138/138/138
f 139/139/139 140/140/140 141/141/141
f 142/142/142 143/143/143 144/144/144
f 145/145/145 146/146/146 147/147/147
f 148/148/148 149/149/149 150/150/150
f 151/151/151 152/152/152 153/153/153
f 154/154/154 155/155/155 156/156/156
f 157/157/157 158/158/158 159/159/159
f 160/160/160 161/161/161 162/162/162
f 163/163/163 164/164/164 165/165/165
f 166/166/166 167/167/167 168/168/168
f 169/169/169 170/170/170 171/171/171
f 172/172/172 115/115/115 114/114/114
f 106/106/106 173/173/173 174/174/174
f 175/175/175 112/112/112 111/111/111
f 176/176/176 177/177/177 178/178/178
f 179/179/179 180/180/180 181/181/181
f 182/182/182 40/40/40 183/183/183
f 184/184/184 185/185/185 186/186/186
f 187/187/187 28/28/28 188/188/188
f 189/189/189 190/190/190 191/191/191
f 192/192/192 193/193/193 194/194/194
f 195/195/195 196/196/196 197/197/197
f 198/198/198 199/199/199 200/200/200
f 201/201/201 202/202/202 203/203/203
f 204/204/204 205/205/205 206/206/206
f 207/207/207 208/208/208 209/209/209
f 54/54/54 210/210/210 207/207/207
f 52/52/52 202/202/202 211/211/211
f 204/204/204 212/212/212 201/201/201
f 213/213/213 208/208/208 205/205/205
f 214/214/214 215/215/215 216/216/216
f 217/217/217 218/218/218 219/219/219
f 7/7/7 220/220/220 221/221/221
f 217/217/217 222/222/222 223/223/223
f 9/9/9 224/224/224 225/225/225
f 226/226/226 227/227/227 228/228/228
f 219/219/219 229/229/229 230/230/230
f 231/231/231 232/232/232 233/233/233
f 147/147/147 234/234/234 235/235/235
f 144/144/144 109/109/109 108/108/108
f 141/141/141 236/236/236 104/104/104
f 138/138/138 237/237/237 113/113/113
f 238/238/238 239/239/239 240/240/240
f 241/241/241 242/242/242 243/243/243
f 244/244/244 245/245/245 246/246/246
f 247/247/247 248/248/248 249/249/249
f 78/78/78 39/39/39 79/79/79
f 250/250/250 251/251/251 252/252/252
f 253/253/253 254/254/254 255/255/255
f 14/14/14 3/3/3 15/15/15
f 256/256/256 257/257/257 258/258/258
f 259/259/259 260/260/260 261/261/261
f 262/262/262 263/263/263 264/264/264
f 265/265/265 266/266/266 267/267/267
f 268/268/268 269/269/269 270/270/270
f 271/271/271 272/272/272 273/273/273
f 274/274/274 275/275/275 276/276/276
f 277/277/277 278/278/278 279/279/279
f 280/280/280 281/281/281 282/282/282
f 283/283/283 284/284/284 285/285/285
f 286/286/286 287/287/287 288/288/288
f 289/289/289 290/290/290 291/291/291
f 292/292/292 293/293/293 294/294/294
f 295/295/295 296/296/296 297/297/297
f 298/298/298 299/299/299 300/300/300
f 301/301/301 302/302/302 303/303/303
f 304/304/304 305/305/305 306/306/306
f 307/307/307 308/308/308 309/309/309
f 310/310/310 311/311/311 312/312/312
f 313/313/313 314/314/314 315/315/315
f 316/316/316 317/317/317 318/318/318
f 319/319/319 320/320/320 321/321/321
f 322/322/322 323/323/323 324/324/324
f 325/325/325 326/326/326 327/327/327
f 328/328/328 329/329/329 330/330/330
f 331/331/331 332/332/332 333/333/333
f 334/334/334 335/335/335 336/336/336
f 337/337/337 338/338/338 339/339/339
f 340/340/340 341/341/341 342/342/342
f 343/343/343 344/344/344 345/345/345
f 346/346/346 347/347/347 348/348/348
f 349/349/349 350/350/350 351/351/351
f 352/352/352 353/353/353 354/354/354
f 355/355/355 356/356/356 357/357/357
f 358/358/358 359/359/359 360/360/360
f 361/361/361 362/362/362 363/363/363
f 1/1/1 364/364/364 2/2/2
f 4/4/4 365/365/365 5/5/5
f 7/7/7 221/221/221 8/8/8
f 10/10/10 366/366/366 11/11/11
f 13/13/13 71/71/71 14/14/14
f 16/16/16 367/367/367 17/17/17
f 19/19/19 368/368/368 20/20/20
f 24/24/24 369/369/369 22/22/22
f 369/369/369 370/370/370 22/22/22
f 25/25/25 371/371/371 26/26/26
f 30/30/30 188/188/188 28/28/28
f 28/28/28 372/372/372 29/29/29
f 33/33/33 373/373/373 31/31/31
f 373/373/373 374/374/374 31/31/31
f 36/36/36 375/375/375 34/34/34
f 375/375/375 372/372/372 34/34/34
f 37/37/37 376/376/376 38/38/38
f 42/42/42 183/183/183 40/40/40
f 40/40/40 370/370/370 41/41/41
f 43/43/43 377/377/377 44/44/44
f 46/46/46 378/378/378 47/47/47
f 49/49/49 379/379/379 50/50/50
f 52/52/52 211/211/211 53/53/53
f 57/57/57 180/180/180 55/55/55
f 55/55/55 184/184/184 56/56/56
f 60/60/60 32/32/32 58/58/58
f 58/58/58 189/189/189 59/59/59
f 63/63/63 380/380/380 381/381/381
f 380/380/380 382/382/382 381/381/381
f 381/381/381 61/61/61 63/63/63
f 66/66/66 383/383/383 384/384/384
f 383/383/383 385/385/385 384/384/384
f 384/384/384 64/64/64 66/66/66
f 67/67/67 386/386/386 68/68/68
f 13/13/13 387/387/387 70/70/70
f 72/72/72 388/388/388 73/73/73
f 75/75/75 389/389/389 76/76/76
f 16/16/16 18/18/18 78/78/78
f 104/104/104 236/236/236 105/105/105
f 107/107/107 176/176/176 108/108/108
f 110/110/110 145/145/145 111/111/111
f 113/113/113 237/237/237 114/114/114
f 116/116/116 390/390/390 117/117/117
f 119/119/119 391/391/391 120/120/120
f 122/122/122 392/392/392 123/123/123
f 125/125/125 393/393/393 126/126/126
f 128/128/128 131/131/131 129/129/129
f 121/121/121 120/120/120 131/131/131
f 132/132/132 135/135/135 133/133/133
f 127/127/127 126/126/126 135/135/135
f 136/136/136 394/394/394 137/137/137
f 139/139/139 395/395/395 140/140/140
f 142/142/142 396/396/396 143/143/143
f 145/145/145 110/110/110 146/146/146
f 148/148/148 397/397/397 149/149/149
f 151/151/151 398/398/398 152/152/152
f 154/154/154 399/399/399 155/155/155
f 157/157/157 400/400/400 158/158/158
f 160/160/160 401/401/401 161/161/161
f 163/163/163 402/402/402 164/164/164
f 166/166/166 403/403/403 167/167/167
f 169/169/169 404/404/404 170/170/170
f 172/172/172 405/405/405 115/115/115
f 106/106/106 105/105/105 173/173/173
f 175/175/175 406/406/406 112/112/112
f 176/176/176 107/107/107 177/177/177
f 181/181/181 407/407/407 179/179/179
f 407/407/407 408/408/408 179/179/179
f 182/182/182 409/409/409 40/40/40
f 184/184/184 55/55/55 185/185/185
f 187/187/187 410/410/410 28/28/28
f 189/189/189 58/58/58 190/190/190
f 192/192/192 411/411/411 193/193/193
f 195/195/195 412/412/412 196/196/196
f 198/198/198 413/413/413 199/199/199
f 201/201/201 212/212/212 202/202/202
f 204/204/204 213/213/213 205/205/205
f 207/207/207 210/210/210 208/208/208
f 54/54/54 53/53/53 210/210/210
f 52/52/52 203/203/203 202/202/202
f 204/204/204 206/206/206 212/212/212
f 213/213/213 209/209/209 208/208/208
f 414/414/414 415/415/415 416/416/416
f 414/414/414 416/416/416 215/215/215
f 417/417/417 418/418/418 214/214/214
f 214/214/214 414/414/414 215/215/215
f 216/216/216 417/417/417 214/214/214
f 217/217/217 223/223/223 218/218/218
f 7/7/7 419/419/419 220/220/220
f 217/217/217 420/420/420 222/222/222
f 9/9/9 8/8/8 224/224/224
f 226/226/226 421/421/421 227/227/227
f 219/219/219 218/218/218 229/229/229
f 231/231/231 422/422/422 232/232/232
f 147/147/147 146/146/146 234/234/234
f 144/144/144 143/143/143 109/109/109
f 141/141/141 140/140/140 236/236/236
f 138/138/138 137/137/137 237/237/237
f 238/238/238 423/423/423 239/239/239
f 241/241/241 424/424/424 242/242/242
f 244/244/244 425/425/425 245/245/245
f 247/247/247 426/426/426 248/248/248
f 78/78/78 37/37/37 39/39/39
f 250/250/250 427/427/427 251/251/251
f 253/253/253 428/428/428 254/254/254
f 14/14/14 1/1/1 3/3/3
f 256/256/256 429/429/429 257/257/257
f 261/261/261 430/430/430 259/259/259
f 430/430/430 431/431/431 259/259/259
f 264/264/264 432/432/432 262/262/262
f 432/432/432 433/433/433 262/262/262
f 265/265/265 434/434/434 266/266/266
f 268/268/268 435/435/435 269/269/269
f 271/271/271 436/436/436 272/272/272
f 274/274/274 437/437/437 275/275/275
f 277/277/277 438/438/438 278/278/278
f 280/280/280 439/439/439 281/281/281
f 283/283/283 440/440/440 284/284/284
f 286/286/286 441/441/441 287/287/287
f 289/289/289 442/442/442 290/290/290
f 292/292/292 443/443/443 293/293/293
f 295/295/295 444/444/444 296/296/296
f 300/300/300 445/445/445 298/298/298
f 445/445/445 446/446/446 447/447/447
f 298/298/298 445/445/445 447/447/447
f 301/301/301 448/448/448 302/302/302
f 306/306/306 449/449/449 304/304/304
f 449/449/449 450/450/450 304/304/304
f 307/307/307 451/451/451 308/308/308
f 310/310/310 452/452/452 311/311/311
f 313/313/313 453/453/453 314/314/314
f 318/318/318 454/454/454 316/316/316
f 454/454/454 455/455/455 316/316/316
f 319/319/319 456/456/456 320/320/320
f 324/324/324 457/457/457 322/322/322
f 457/457/457 458/458/458 459/459/459
f 322/322/322 457/457/457 459/459/459
f 325/325/325 460/460/460 326/326/326
f 328/328/328 461/461/461 329/329/329
f 333/333/333 462/462/462 331/331/331
f 462/462/462 463/463/463 464/464/464
f 331/331/331 462/462/462 464/464/464
f 334/334/334 465/465/465 335/335/335
f 337/337/337 466/466/466 338/338/338
f 340/340/340 467/467/467 341/341/341
f 343/343/343 468/468/468 344/344/344
f 346/346/346 469/469/469 347/347/347
f 349/349/349 470/470/470 350/350/350
f 354/354/354 471/471/471 352/352/352
f 471/471/471 472/472/472 473/473/473
f 352/352/352 471/471/471 473/473/473
f 355/355/355 474/474/474 356/356/356
f 358/358/358 475/475/475 359/359/359
f 361/361/361 476/476/476 362/362/362
