# Cube -- imported by tools/import_asset_pack.py from HeavyCrowbar.fbx
o __pending__
v 0.017208 0.017208 0.017208
v -0.020672 0.189381 0.020672
v -0.017208 0.017208 0.017208
v 0.017208 0.017208 0.017208
v -0.017208 -0.017208 0.017208
v 0.017208 -0.017208 0.017208
v -0.017208 0.017208 0.017208
v -0.017208 -0.017208 -0.017208
v -0.017208 -0.017208 0.017208
v -0.017208 -0.017208 0.017208
v 0.018725 -0.119369 0.018725
v 0.017208 -0.017208 0.017208
v 0.017208 0.017208 -0.017208
v 0.017208 -0.017208 0.017208
v 0.017208 -0.017208 -0.017208
v -0.017208 0.017208 -0.017208
v 0.017208 -0.017208 -0.017208
v -0.017208 -0.017208 -0.017208
v -0.020672 0.377580 -0.017088
v 0.020672 0.379067 0.001957
v 0.020672 0.377580 -0.017088
v -0.017208 0.017208 0.017208
v -0.020672 0.189381 -0.020672
v -0.017208 0.017208 -0.017208
v 0.017208 0.017208 -0.017208
v 0.020672 0.189381 0.020672
v 0.017208 0.017208 0.017208
v -0.017208 0.017208 -0.017208
v 0.020672 0.189381 -0.020672
v 0.017208 0.017208 -0.017208
v -0.020672 0.379067 0.001957
v 0.020672 0.380288 0.026851
v 0.020672 0.379067 0.001957
v 0.020672 0.357015 0.027083
v 0.020672 0.379067 0.001957
v 0.020672 0.380288 0.026851
v -0.020672 0.357015 0.027083
v -0.020672 0.379067 0.001957
v -0.020672 0.377580 -0.017088
v 0.020672 0.357015 0.027083
v -0.020672 0.380288 0.026851
v -0.020672 0.357015 0.027083
v 0.020672 0.189381 0.020672
v -0.020672 0.196466 0.020672
v -0.020672 0.189381 0.020672
v 0.020672 0.196466 0.020672
v -0.020672 0.226866 0.041188
v -0.020672 0.196466 0.020672
v 0.020672 0.226866 0.041188
v -0.020672 0.236750 0.028732
v -0.020672 0.226866 0.041188
v -0.020672 0.189381 0.020672
v -0.020672 0.199031 -0.016642
v -0.020672 0.189381 -0.020672
v -0.020672 0.196466 0.020672
v -0.020672 0.214044 -0.016642
v -0.020672 0.236750 0.028732
v -0.020672 0.236750 -0.016642
v 0.020672 0.189381 0.020672
v 0.020672 0.199031 -0.016642
v 0.020672 0.196466 0.020672
v 0.020672 0.214044 -0.016642
v 0.020672 0.226866 0.041188
v 0.020672 0.236750 0.028732
v -0.020672 0.189381 -0.020672
v 0.020672 0.199031 -0.016642
v 0.020672 0.189381 -0.020672
v -0.020672 0.199031 -0.016642
v 0.020672 0.214044 -0.016642
v 0.020672 0.199031 -0.016642
v -0.020672 0.214044 -0.016642
v 0.020672 0.236750 -0.016642
v 0.020672 0.236750 0.028732
v -0.020672 0.244441 0.028661
v -0.020672 0.236750 0.028732
v -0.020672 0.244441 0.028661
v 0.020672 0.268161 0.036985
v -0.020672 0.268161 0.036985
v -0.020672 0.268161 0.036985
v 0.020672 0.297376 0.026534
v -0.020672 0.297376 0.026534
v -0.020672 0.297376 0.026534
v 0.020672 0.304965 0.017558
v -0.020672 0.304965 0.017558
v -0.020672 0.304965 0.017558
v 0.020672 0.346748 0.015909
v -0.020672 0.346748 0.015909
v -0.020672 0.244441 0.028661
v -0.020672 0.258105 -0.018896
v -0.020672 0.268161 0.036985
v -0.020672 0.278932 -0.029064
v -0.020672 0.297376 0.026534
v -0.020672 0.298704 -0.045563
v -0.020672 0.304965 0.017558
v -0.020672 0.371760 -0.048345
v -0.020672 0.346748 0.015909
v -0.020672 0.375705 -0.034772
v 0.020672 0.236750 -0.016642
v 0.020672 0.244441 0.028661
v 0.020672 0.258105 -0.018896
v 0.020672 0.268161 0.036985
v 0.020672 0.278932 -0.029064
v 0.020672 0.297376 0.026534
v 0.020672 0.298704 -0.045563
v 0.020672 0.304965 0.017558
v 0.020672 0.371760 -0.048345
v 0.020672 0.346748 0.015909
v -0.020672 0.236750 -0.016642
v 0.020672 0.258105 -0.018896
v 0.020672 0.236750 -0.016642
v -0.020672 0.258105 -0.018896
v 0.020672 0.278932 -0.029064
v 0.020672 0.258105 -0.018896
v -0.020672 0.278932 -0.029064
v 0.020672 0.298704 -0.045563
v 0.020672 0.278932 -0.029064
v -0.017628 0.361865 -0.074841
v -0.016613 0.304501 -0.082065
v -0.017628 0.294529 -0.078473
v -0.020672 0.371760 -0.048345
v 0.020672 0.375705 -0.034772
v 0.020672 0.371760 -0.048345
v 0.020672 0.346748 0.015909
v -0.020672 0.357015 0.027083
v -0.020672 0.346748 0.015909
v 0.020672 0.377580 -0.017088
v -0.020672 0.375705 -0.034772
v 0.020672 0.377580 -0.017088
v 0.020672 0.375705 -0.034772
v -0.019856 0.296734 0.067758
v -0.019856 0.268928 0.024992
v -0.019856 0.268928 0.067758
v -0.019856 0.296734 0.024992
v 0.019856 0.268928 0.024992
v -0.019856 0.268928 0.024992
v 0.019856 0.296734 0.024992
v 0.019856 0.268928 0.067758
v 0.019856 0.268928 0.024992
v 0.019856 0.268928 0.067758
v -0.019856 0.260105 0.073559
v -0.019856 0.268928 0.067758
v 0.019856 0.268928 0.024992
v -0.019856 0.268928 0.067758
v -0.019856 0.268928 0.024992
v -0.019856 0.296734 0.024992
v 0.019856 0.296734 0.067758
v 0.019856 0.296734 0.024992
v -0.019856 0.296757 0.073559
v 0.019856 0.296958 0.096675
v 0.019856 0.296757 0.073559
v -0.019856 0.296734 0.067758
v 0.019856 0.296757 0.073559
v 0.019856 0.260105 0.073559
v -0.019856 0.296757 0.073559
v 0.019856 0.296958 0.096675
v -0.019856 0.292001 0.096675
v 0.019856 0.292001 0.096675
v 0.019856 0.292001 0.096675
v 0.019856 0.260105 0.073559
v -0.019856 0.292001 0.096675
v -0.019856 0.260105 0.073559
v -0.019856 0.292001 0.096675
v -0.019856 0.296958 0.096675
v -0.016613 0.304501 -0.082065
v 0.016613 0.357362 -0.080739
v 0.016613 0.304501 -0.082065
v 0.017628 0.361865 -0.074841
v 0.016613 0.304501 -0.082065
v 0.016613 0.357362 -0.080739
v -0.017628 0.294529 -0.078473
v 0.016613 0.304501 -0.082065
v 0.017628 0.294529 -0.078473
v 0.017628 0.361865 -0.074841
v -0.016613 0.357362 -0.080739
v -0.017628 0.361865 -0.074841
v -0.020672 0.371760 -0.048345
v 0.019657 0.368122 -0.049765
v -0.019657 0.368122 -0.049765
v 0.019657 0.368122 -0.049765
v -0.018643 0.364129 -0.066450
v -0.019657 0.368122 -0.049765
v -0.018643 0.364129 -0.066450
v 0.017628 0.361865 -0.074841
v -0.017628 0.361865 -0.074841
v -0.020672 0.298704 -0.045563
v 0.019657 0.300790 -0.067981
v 0.020672 0.298704 -0.045563
v 0.019657 0.300790 -0.067981
v -0.018643 0.294988 -0.070047
v 0.018643 0.294988 -0.070047
v -0.018643 0.294988 -0.070047
v 0.017628 0.294529 -0.078473
v 0.018643 0.294988 -0.070047
v 0.020672 0.298704 -0.045563
v 0.019657 0.368122 -0.049765
v 0.020672 0.371760 -0.048345
v 0.019657 0.300790 -0.067981
v 0.018643 0.364129 -0.066450
v 0.019657 0.368122 -0.049765
v 0.018643 0.294988 -0.070047
v 0.017628 0.361865 -0.074841
v -0.020672 0.298704 -0.045563
v -0.019657 0.368122 -0.049765
v -0.019657 0.300790 -0.067982
v -0.019657 0.300790 -0.067982
v -0.018643 0.364129 -0.066450
v -0.018643 0.294988 -0.070047
v -0.017628 0.361865 -0.074841
v -0.017628 0.294529 -0.078473
v -0.020499 0.379912 0.045792
v -0.020609 0.357857 0.025662
v -0.020499 0.358184 0.057124
v -0.020609 0.380069 0.025662
v 0.020609 0.357857 0.025662
v -0.020609 0.357857 0.025662
v 0.020373 0.379732 0.068751
v 0.020358 0.364606 0.070899
v 0.020373 0.358193 0.066366
v 0.017849 0.376859 0.097313
v -0.017431 0.376384 0.101602
v 0.017431 0.376384 0.101602
v 0.020373 0.358193 0.066366
v -0.020358 0.364606 0.070899
v -0.020373 0.358193 0.066366
v -0.020373 0.379732 0.068751
v 0.020358 0.379710 0.071581
v 0.020373 0.379732 0.068751
v -0.017431 0.376384 0.101602
v 0.017431 0.371863 0.127807
v 0.017431 0.376384 0.101602
v 0.017849 0.363903 0.097313
v 0.017431 0.376384 0.101602
v 0.017431 0.357980 0.101602
v -0.017849 0.363903 0.097313
v -0.017431 0.376384 0.101602
v -0.017849 0.376859 0.097313
v 0.017849 0.363903 0.097313
v -0.017431 0.357980 0.101602
v -0.017849 0.363903 0.097313
v 0.017431 0.371863 0.127807
v -0.017431 0.369218 0.127807
v 0.017431 0.369218 0.127807
v 0.017431 0.376384 0.101602
v 0.017431 0.369218 0.127807
v 0.017431 0.357980 0.101602
v 0.017431 0.357980 0.101602
v -0.017431 0.369218 0.127807
v -0.017431 0.357980 0.101602
v -0.017431 0.376384 0.101602
v -0.017431 0.369218 0.127807
v -0.017431 0.371863 0.127807
v 0.019934 0.299415 0.086563
v -0.019934 0.296926 0.086563
v -0.019934 0.299415 0.086563
v -0.019934 0.296926 0.086563
v -0.019934 0.296926 0.096660
v -0.019934 0.299415 0.094786
v -0.019934 0.299415 0.094786
v 0.019934 0.296926 0.096660
v 0.019934 0.299415 0.094786
v 0.019934 0.299415 0.086563
v 0.019934 0.299415 0.094786
v 0.019934 0.296926 0.086563
v 0.019934 0.296926 0.096660
v -0.019934 0.296926 0.086563
v -0.019934 0.296926 0.096660
v 0.019934 0.304301 0.091016
v -0.019934 0.304301 0.091016
v 0.019934 0.299415 0.086563
v -0.019934 0.304301 0.090333
v 0.019934 0.304301 0.090333
v 0.019934 0.304301 0.090333
v -0.019934 0.304301 0.091016
v 0.019934 0.304301 0.091016
v -0.019663 0.296108 0.078366
v 0.019663 0.299415 0.078366
v -0.019663 0.299415 0.078366
v -0.019663 0.296108 0.078366
v -0.019663 0.296108 0.086589
v -0.019663 0.299415 0.086589
v 0.019663 0.296108 0.086589
v -0.019663 0.299415 0.086589
v 0.019663 0.299415 0.086589
v 0.019663 0.296108 0.086589
v 0.019663 0.296108 0.078366
v 0.019663 0.299415 0.078366
v 0.019663 0.296108 0.086589
v -0.019663 0.296108 0.078366
v -0.019663 0.296108 0.086589
v -0.019663 0.299415 0.086589
v 0.019663 0.304301 0.082819
v -0.019663 0.304301 0.082819
v 0.019663 0.299415 0.078366
v -0.019663 0.304301 0.082137
v 0.019663 0.304301 0.082137
v 0.019663 0.304301 0.082137
v -0.019663 0.304301 0.082819
v 0.019663 0.304301 0.082819
v -0.019663 0.296108 0.070187
v 0.019663 0.299415 0.070187
v -0.019663 0.299415 0.070187
v -0.019663 0.296108 0.070187
v -0.019663 0.296108 0.078410
v -0.019663 0.299415 0.078410
v 0.019663 0.296108 0.078410
v -0.019663 0.299415 0.078410
v 0.019663 0.299415 0.078410
v 0.019663 0.296108 0.078410
v 0.019663 0.296108 0.070187
v 0.019663 0.299415 0.070187
v 0.019663 0.296108 0.078410
v -0.019663 0.296108 0.070187
v -0.019663 0.296108 0.078410
v -0.019663 0.299415 0.078410
v 0.019663 0.304301 0.074639
v -0.019663 0.304301 0.074639
v 0.019663 0.299415 0.070187
v -0.019663 0.304301 0.073957
v 0.019663 0.304301 0.073957
v 0.019663 0.304301 0.073957
v -0.019663 0.304301 0.074639
v 0.019663 0.304301 0.074639
v -0.019663 0.296108 0.062036
v 0.019663 0.299415 0.062036
v -0.019663 0.299415 0.062036
v -0.019663 0.296108 0.062036
v -0.019663 0.296108 0.070258
v -0.019663 0.299415 0.070258
v 0.019663 0.296108 0.070258
v -0.019663 0.299415 0.070258
v 0.019663 0.299415 0.070258
v 0.019663 0.296108 0.070258
v 0.019663 0.296108 0.062036
v 0.019663 0.299415 0.062036
v 0.019663 0.296108 0.070258
v -0.019663 0.296108 0.062036
v -0.019663 0.296108 0.070258
v -0.019663 0.299415 0.070258
v 0.019663 0.304301 0.066488
v -0.019663 0.304301 0.066488
v 0.019663 0.299415 0.062036
v -0.019663 0.304301 0.065806
v 0.019663 0.304301 0.065806
v 0.019663 0.304301 0.065806
v -0.019663 0.304301 0.066488
v 0.019663 0.304301 0.066488
v -0.019663 0.296108 0.053856
v 0.019663 0.299415 0.053856
v -0.019663 0.299415 0.053856
v -0.019663 0.296108 0.053856
v -0.019663 0.296108 0.062079
v -0.019663 0.299415 0.062079
v 0.019663 0.296108 0.062079
v -0.019663 0.299415 0.062079
v 0.019663 0.299415 0.062079
v 0.019663 0.296108 0.062079
v 0.019663 0.296108 0.053856
v 0.019663 0.299415 0.053856
v 0.019663 0.296108 0.062079
v -0.019663 0.296108 0.053856
v -0.019663 0.296108 0.062079
v -0.019663 0.299415 0.062079
v 0.019663 0.304301 0.058309
v -0.019663 0.304301 0.058309
v 0.019663 0.299415 0.053856
v -0.019663 0.304301 0.057626
v 0.019663 0.304301 0.057626
v 0.019663 0.304301 0.057626
v -0.019663 0.304301 0.058309
v 0.019663 0.304301 0.058309
v -0.019663 0.296108 0.045847
v 0.019663 0.299415 0.045847
v -0.019663 0.299415 0.045847
v -0.019663 0.296108 0.045847
v -0.019663 0.296108 0.054070
v -0.019663 0.299415 0.054070
v 0.019663 0.296108 0.054070
v -0.019663 0.299415 0.054070
v 0.019663 0.299415 0.054070
v 0.019663 0.296108 0.054070
v 0.019663 0.296108 0.045847
v 0.019663 0.299415 0.045847
v 0.019663 0.296108 0.054070
v -0.019663 0.296108 0.045847
v -0.019663 0.296108 0.054070
v -0.019663 0.299415 0.054070
v 0.019663 0.304301 0.050299
v -0.019663 0.304301 0.050299
v 0.019663 0.299415 0.045847
v -0.019663 0.304301 0.049617
v 0.019663 0.304301 0.049617
v 0.019663 0.304301 0.049617
v -0.019663 0.304301 0.050299
v 0.019663 0.304301 0.050299
v -0.019663 0.296108 0.037667
v 0.019663 0.299415 0.037667
v -0.019663 0.299415 0.037667
v -0.019663 0.296108 0.037667
v -0.019663 0.296108 0.045890
v -0.019663 0.299415 0.045890
v 0.019663 0.296108 0.045890
v -0.019663 0.299415 0.045890
v 0.019663 0.299415 0.045890
v 0.019663 0.296108 0.045890
v 0.019663 0.296108 0.037667
v 0.019663 0.299415 0.037667
v 0.019663 0.296108 0.045890
v -0.019663 0.296108 0.037667
v -0.019663 0.296108 0.045890
v -0.019663 0.299415 0.045890
v 0.019663 0.304301 0.042120
v -0.019663 0.304301 0.042120
v 0.019663 0.299415 0.037667
v -0.019663 0.304301 0.041437
v 0.019663 0.304301 0.041437
v 0.019663 0.304301 0.041437
v -0.019663 0.304301 0.042120
v 0.019663 0.304301 0.042120
v 0.020358 0.364606 0.070899
v -0.019940 0.358182 0.075870
v -0.020358 0.364606 0.070899
v 0.019940 0.358182 0.075870
v -0.019522 0.364037 0.080158
v -0.019940 0.358182 0.075870
v 0.019522 0.364037 0.080158
v -0.019103 0.358114 0.084447
v -0.019522 0.364037 0.080158
v -0.019103 0.358114 0.084447
v 0.018685 0.363970 0.088736
v -0.018685 0.363970 0.088736
v -0.018685 0.363970 0.088736
v 0.018267 0.358047 0.093025
v -0.018267 0.358047 0.093025
v 0.018267 0.358047 0.093025
v -0.017849 0.363903 0.097313
v -0.018267 0.358047 0.093025
v -0.020358 0.364606 0.070899
v -0.019940 0.379235 0.075870
v -0.020358 0.379710 0.071581
v -0.019522 0.364037 0.080158
v -0.019522 0.378760 0.080158
v -0.019103 0.378285 0.084447
v -0.018685 0.363970 0.088736
v -0.018685 0.377810 0.088736
v -0.018267 0.377335 0.093025
v 0.020358 0.364606 0.070899
v 0.019940 0.379235 0.075870
v 0.019940 0.358182 0.075870
v 0.019522 0.364037 0.080158
v 0.019103 0.378285 0.084447
v 0.019103 0.358114 0.084447
v 0.018685 0.363970 0.088736
v 0.018267 0.377335 0.093025
v 0.018267 0.358047 0.093025
v -0.020358 0.379710 0.071581
v 0.019940 0.379235 0.075870
v 0.020358 0.379710 0.071581
v -0.019940 0.379235 0.075870
v 0.019522 0.378760 0.080158
v -0.019522 0.378760 0.080158
v 0.019103 0.378285 0.084447
v -0.019103 0.378285 0.084447
v 0.018685 0.377810 0.088736
v -0.018685 0.377810 0.088736
v 0.018267 0.377335 0.093025
v -0.018267 0.377335 0.093025
v -0.020609 0.380069 0.025662
v 0.020499 0.379912 0.045792
v 0.020609 0.380069 0.025662
v -0.020499 0.379912 0.045792
v 0.020436 0.379822 0.057272
v -0.020436 0.379822 0.057272
v -0.020609 0.357857 0.025662
v 0.020499 0.358184 0.057124
v -0.020499 0.358184 0.057124
v 0.020499 0.358184 0.057124
v -0.020436 0.364517 0.061702
v -0.020499 0.358184 0.057124
v 0.020436 0.364517 0.061702
v -0.020373 0.358193 0.066366
v -0.020436 0.364517 0.061702
v 0.020609 0.357857 0.025662
v 0.020499 0.379912 0.045792
v 0.020499 0.358184 0.057124
v 0.020436 0.364517 0.061702
v -0.020358 0.364606 0.070899
v -0.020373 0.379732 0.068751
v -0.020373 0.358193 0.066366
v -0.020436 0.364517 0.061702
v 0.018725 -0.119369 0.018725
v 0.020126 -0.252831 -0.020126
v 0.018725 -0.119369 -0.018725
v -0.017208 -0.017208 -0.017208
v -0.018725 -0.119369 0.018725
v -0.017208 -0.017208 0.017208
v 0.017208 -0.017208 0.017208
v 0.017208 -0.017208 -0.017208
v 0.017208 -0.017208 -0.017208
v -0.018725 -0.119369 -0.018725
v -0.017208 -0.017208 -0.017208
v -0.020126 -0.252831 0.020126
v 0.017571 -0.385199 0.017571
v 0.020126 -0.252831 0.020126
v 0.018725 -0.119369 -0.018725
v -0.020126 -0.252831 -0.020126
v -0.018725 -0.119369 0.018725
v 0.020126 -0.252831 0.020126
v -0.018725 -0.119369 -0.018725
v -0.020126 -0.252831 0.020126
v -0.017571 -0.385199 0.017571
v 0.017571 -0.422393 0.017571
v 0.017571 -0.385199 0.017571
v -0.020126 -0.252831 -0.020126
v -0.017571 -0.385199 0.017571
v -0.020126 -0.252831 0.020126
v 0.020126 -0.252831 0.020126
v 0.017571 -0.385199 -0.017571
v 0.020126 -0.252831 -0.020126
v 0.020126 -0.252831 -0.020126
v -0.017571 -0.385199 -0.017571
v -0.020126 -0.252831 -0.020126
v -0.017571 -0.422393 0.017571
v 0.017571 -0.438802 0.019338
v 0.017571 -0.422393 0.017571
v -0.017571 -0.385199 -0.017571
v -0.017571 -0.422393 0.017571
v -0.017571 -0.385199 0.017571
v 0.017571 -0.385199 0.017571
v 0.017571 -0.422393 -0.017571
v 0.017571 -0.385199 -0.017571
v 0.017571 -0.385199 -0.017571
v -0.017571 -0.422393 -0.017571
v -0.017571 -0.385199 -0.017571
v 0.017571 -0.438802 -0.019338
v -0.017571 -0.438802 0.019338
v -0.017571 -0.438802 -0.019338
v -0.017571 -0.422393 -0.017571
v -0.017571 -0.438802 0.019338
v 0.017571 -0.422393 0.017571
v 0.017571 -0.438802 -0.019338
v 0.017571 -0.422393 -0.017571
v -0.017571 -0.438802 -0.019338
v -0.017571 -0.422393 -0.017571
v -0.017090 -0.437561 0.019167
v -0.017090 -0.451701 0.005027
v -0.017090 -0.451701 0.019167
v -0.017090 -0.437561 0.005027
v 0.017090 -0.451701 0.005027
v -0.017090 -0.451701 0.005027
v 0.017090 -0.437561 0.005027
v 0.017090 -0.451701 0.019167
v 0.017090 -0.451701 0.005027
v 0.017090 -0.437561 0.019167
v -0.017090 -0.451701 0.019167
v 0.017090 -0.451701 0.019167
v 0.017090 -0.451701 0.019167
v 0.028210 -0.519712 0.028952
v 0.036995 -0.519712 0.028952
v -0.017090 -0.437561 0.005027
v 0.017090 -0.437561 0.019167
v 0.017090 -0.437561 0.005027
v 0.036995 -0.519712 0.004737
v 0.028210 -0.519712 0.028952
v 0.028210 -0.519712 0.004737
v 0.028210 -0.519712 0.004737
v -0.017090 -0.451701 0.019167
v 0.028210 -0.519712 0.004737
v 0.028210 -0.519712 0.028952
v 0.017090 -0.451701 0.019167
v 0.036995 -0.519712 0.004737
v 0.017090 -0.451701 0.005027
v -0.017090 -0.437561 -0.005091
v -0.017090 -0.451701 -0.019231
v -0.017090 -0.451701 -0.005091
v -0.017090 -0.437561 -0.019231
v 0.017090 -0.451701 -0.019231
v -0.017090 -0.451701 -0.019231
v 0.017090 -0.437561 -0.019231
v 0.017090 -0.451701 -0.005091
v 0.017090 -0.451701 -0.019231
v 0.017090 -0.437561 -0.005091
v -0.017090 -0.451701 -0.005091
v 0.017090 -0.451701 -0.005091
v 0.017090 -0.451701 -0.005091
v 0.028210 -0.519712 -0.003786
v 0.036995 -0.519712 -0.003786
v -0.017090 -0.437561 -0.019231
v 0.017090 -0.437561 -0.005091
v 0.017090 -0.437561 -0.019231
v 0.036995 -0.519712 -0.028001
v 0.028210 -0.519712 -0.003786
v 0.028210 -0.519712 -0.028001
v 0.017090 -0.451701 -0.019231
v 0.028210 -0.519712 -0.028001
v -0.017090 -0.451701 -0.019231
v -0.017090 -0.451701 -0.019231
v 0.028210 -0.519712 -0.003786
v -0.017090 -0.451701 -0.005091
v 0.017090 -0.451701 -0.019231
v 0.036995 -0.519712 -0.003786
v 0.036995 -0.519712 -0.028001
v 0.020672 0.189381 0.020672
v -0.017208 0.017208 0.017208
v -0.017208 0.017208 -0.017208
v 0.017208 0.017208 0.017208
v 0.017208 0.017208 -0.017208
v -0.020672 0.379067 0.001957
v -0.020672 0.189381 0.020672
v 0.020672 0.189381 -0.020672
v -0.020672 0.189381 -0.020672
v -0.020672 0.380288 0.026851
v -0.020672 0.380288 0.026851
v 0.020672 0.380288 0.026851
v 0.020672 0.196466 0.020672
v 0.020672 0.226866 0.041188
v 0.020672 0.236750 0.028732
v -0.020672 0.226866 0.041188
v 0.020672 0.189381 -0.020672
v -0.020672 0.199031 -0.016642
v -0.020672 0.236750 -0.016642
v 0.020672 0.244441 0.028661
v 0.020672 0.244441 0.028661
v 0.020672 0.268161 0.036985
v 0.020672 0.297376 0.026534
v 0.020672 0.304965 0.017558
v 0.020672 0.375705 -0.034772
v -0.020672 0.258105 -0.018896
v -0.020672 0.278932 -0.029064
v -0.020672 0.298704 -0.045563
v -0.016613 0.357362 -0.080739
v -0.020672 0.375705 -0.034772
v 0.020672 0.357015 0.027083
v -0.020672 0.377580 -0.017088
v -0.019856 0.296734 0.024992
v 0.019856 0.296734 0.024992
v 0.019856 0.296734 0.067758
v 0.019856 0.260105 0.073559
v 0.019856 0.268928 0.067758
v -0.019856 0.296958 0.096675
v -0.019856 0.260105 0.073559
v -0.019856 0.296958 0.096675
v 0.019856 0.296958 0.096675
v 0.019856 0.292001 0.096675
v -0.016613 0.357362 -0.080739
v 0.017628 0.294529 -0.078473
v -0.016613 0.304501 -0.082065
v 0.016613 0.357362 -0.080739
v 0.020672 0.371760 -0.048345
v 0.018643 0.364129 -0.066450
v 0.018643 0.364129 -0.066450
v -0.019657 0.300790 -0.067982
v -0.019657 0.300790 -0.067982
v -0.017628 0.294529 -0.078473
v 0.019657 0.300790 -0.067981
v 0.017628 0.294529 -0.078473
v -0.020672 0.371760 -0.048345
v -0.019657 0.368122 -0.049765
v -0.020609 0.380069 0.025662
v 0.020609 0.380069 0.025662
v 0.020358 0.379710 0.071581
v -0.017849 0.376859 0.097313
v 0.020358 0.364606 0.070899
v -0.020358 0.379710 0.071581
v -0.017431 0.371863 0.127807
v 0.017849 0.376859 0.097313
v -0.017431 0.357980 0.101602
v 0.017431 0.357980 0.101602
v -0.017431 0.371863 0.127807
v 0.017431 0.371863 0.127807
v 0.017431 0.369218 0.127807
v -0.017431 0.357980 0.101602
v 0.019934 0.296926 0.086563
v -0.019934 0.304301 0.091016
v -0.019934 0.304301 0.090333
v -0.019934 0.299415 0.086563
v -0.019934 0.296926 0.096660
v 0.019934 0.304301 0.090333
v 0.019934 0.304301 0.091016
v 0.019934 0.296926 0.096660
v 0.019934 0.296926 0.086563
v -0.019934 0.299415 0.086563
v -0.019934 0.304301 0.090333
v 0.019663 0.296108 0.078366
v -0.019663 0.304301 0.082819
v -0.019663 0.304301 0.082137
v -0.019663 0.299415 0.078366
v -0.019663 0.296108 0.086589
v 0.019663 0.304301 0.082137
v 0.019663 0.304301 0.082819
v 0.019663 0.299415 0.086589
v 0.019663 0.296108 0.078366
v 0.019663 0.299415 0.086589
v -0.019663 0.299415 0.078366
v -0.019663 0.304301 0.082137
v 0.019663 0.296108 0.070187
v -0.019663 0.304301 0.074639
v -0.019663 0.304301 0.073957
v -0.019663 0.299415 0.070187
v -0.019663 0.296108 0.078410
v 0.019663 0.304301 0.073957
v 0.019663 0.304301 0.074639
v 0.019663 0.299415 0.078410
v 0.019663 0.296108 0.070187
v 0.019663 0.299415 0.078410
v -0.019663 0.299415 0.070187
v -0.019663 0.304301 0.073957
v 0.019663 0.296108 0.062036
v -0.019663 0.304301 0.066488
v -0.019663 0.304301 0.065806
v -0.019663 0.299415 0.062036
v -0.019663 0.296108 0.070258
v 0.019663 0.304301 0.065806
v 0.019663 0.304301 0.066488
v 0.019663 0.299415 0.070258
v 0.019663 0.296108 0.062036
v 0.019663 0.299415 0.070258
v -0.019663 0.299415 0.062036
v -0.019663 0.304301 0.065806
v 0.019663 0.296108 0.053856
v -0.019663 0.304301 0.058309
v -0.019663 0.304301 0.057626
v -0.019663 0.299415 0.053856
v -0.019663 0.296108 0.062079
v 0.019663 0.304301 0.057626
v 0.019663 0.304301 0.058309
v 0.019663 0.299415 0.062079
v 0.019663 0.296108 0.053856
v 0.019663 0.299415 0.062079
v -0.019663 0.299415 0.053856
v -0.019663 0.304301 0.057626
v 0.019663 0.296108 0.045847
v -0.019663 0.304301 0.050299
v -0.019663 0.304301 0.049617
v -0.019663 0.299415 0.045847
v -0.019663 0.296108 0.054070
v 0.019663 0.304301 0.049617
v 0.019663 0.304301 0.050299
v 0.019663 0.299415 0.054070
v 0.019663 0.296108 0.045847
v 0.019663 0.299415 0.054070
v -0.019663 0.299415 0.045847
v -0.019663 0.304301 0.049617
v 0.019663 0.296108 0.037667
v -0.019663 0.304301 0.042120
v -0.019663 0.304301 0.041437
v -0.019663 0.299415 0.037667
v -0.019663 0.296108 0.045890
v 0.019663 0.304301 0.041437
v 0.019663 0.304301 0.042120
v 0.019663 0.299415 0.045890
v 0.019663 0.296108 0.037667
v 0.019663 0.299415 0.045890
v -0.019663 0.299415 0.037667
v -0.019663 0.304301 0.041437
v 0.019940 0.358182 0.075870
v 0.019522 0.364037 0.080158
v 0.019103 0.358114 0.084447
v 0.019103 0.358114 0.084447
v 0.018685 0.363970 0.088736
v 0.017849 0.363903 0.097313
v -0.019940 0.358182 0.075870
v -0.019103 0.358114 0.084447
v -0.018267 0.358047 0.093025
v 0.020358 0.379710 0.071581
v 0.019522 0.378760 0.080158
v 0.018685 0.377810 0.088736
v 0.020609 0.357857 0.025662
v 0.020436 0.364517 0.061702
v 0.020373 0.358193 0.066366
v 0.020609 0.380069 0.025662
v 0.020436 0.379822 0.057272
v -0.020358 0.379710 0.071581
v -0.020436 0.379822 0.057272
v 0.020126 -0.252831 0.020126
v -0.017571 -0.385199 0.017571
v 0.020126 -0.252831 -0.020126
v -0.020126 -0.252831 0.020126
v -0.020126 -0.252831 -0.020126
v -0.017571 -0.422393 0.017571
v -0.017571 -0.385199 -0.017571
v 0.017571 -0.385199 0.017571
v 0.017571 -0.385199 -0.017571
v -0.017571 -0.438802 0.019338
v 0.017571 -0.422393 -0.017571
v 0.017571 -0.438802 0.019338
v -0.017571 -0.438802 -0.019338
v 0.017571 -0.438802 0.019338
v 0.017571 -0.438802 -0.019338
v -0.017090 -0.437561 0.005027
v 0.017090 -0.437561 0.005027
v 0.017090 -0.437561 0.019167
v -0.017090 -0.437561 0.019167
v -0.017090 -0.451701 0.019167
v -0.017090 -0.437561 0.019167
v 0.036995 -0.519712 0.028952
v 0.036995 -0.519712 0.004737
v -0.017090 -0.451701 0.005027
v 0.036995 -0.519712 0.028952
v -0.017090 -0.437561 -0.019231
v 0.017090 -0.437561 -0.019231
v 0.017090 -0.437561 -0.005091
v -0.017090 -0.437561 -0.005091
v -0.017090 -0.451701 -0.005091
v -0.017090 -0.437561 -0.005091
v 0.036995 -0.519712 -0.003786
v 0.036995 -0.519712 -0.028001
v 0.028210 -0.519712 -0.028001
v 0.017090 -0.451701 -0.005091
vt 0.387224 0.739534
vt 0.432923 0.947246
vt 0.428744 0.739534
vt 0.387224 0.739534
vt 0.428744 0.698014
vt 0.387224 0.698014
vt 0.212906 0.555813
vt 0.257771 0.517940
vt 0.216398 0.514451
vt 0.428744 0.698014
vt 0.385394 0.574769
vt 0.387224 0.698014
vt 0.056336 0.559369
vt 0.094218 0.514506
vt 0.052845 0.518000
vt 0.322312 0.653040
vt 0.363833 0.611520
vt 0.322312 0.611520
vt 0.548913 0.420804
vt 0.598794 0.443774
vt 0.598790 0.420796
vt 0.212906 0.555813
vt 0.240984 0.766668
vt 0.254279 0.559302
vt 0.056336 0.559369
vt 0.119318 0.762430
vt 0.097709 0.555876
vt 0.322312 0.653040
vt 0.368011 0.860728
vt 0.363833 0.653040
vt 0.548917 0.443782
vt 0.598799 0.473809
vt 0.598794 0.443774
vt 0.144030 0.963280
vt 0.116062 0.992337
vt 0.146112 0.991278
vt 0.166571 0.963290
vt 0.194539 0.992339
vt 0.217584 0.992483
vt 0.678802 0.804352
vt 0.650726 0.854229
vt 0.678802 0.854229
vt 0.383045 0.947246
vt 0.432923 0.955793
vt 0.432923 0.947246
vt 0.383045 0.955793
vt 0.432923 0.992483
vt 0.432923 0.955793
vt 0.462966 0.527800
vt 0.447964 0.577679
vt 0.462974 0.577677
vt 0.191283 0.762477
vt 0.235161 0.777857
vt 0.240984 0.766668
vt 0.190565 0.770992
vt 0.233638 0.795899
vt 0.176789 0.818589
vt 0.231334 0.823188
vt 0.119318 0.762430
vt 0.075442 0.777816
vt 0.120037 0.770946
vt 0.076964 0.795862
vt 0.147784 0.805406
vt 0.133812 0.818551
vt 0.318134 0.860728
vt 0.368011 0.872391
vt 0.368011 0.860728
vt 0.318134 0.872391
vt 0.368011 0.890502
vt 0.368011 0.872391
vt 0.318134 0.890502
vt 0.368011 0.917895
vt 0.613833 0.400680
vt 0.663710 0.409958
vt 0.663710 0.400680
vt 0.663710 0.409958
vt 0.613833 0.438579
vt 0.663710 0.438579
vt 0.663710 0.438579
vt 0.613833 0.473816
vt 0.663710 0.473816
vt 0.458779 0.447852
vt 0.447957 0.397977
vt 0.447965 0.447854
vt 0.663710 0.335240
vt 0.613833 0.385645
vt 0.663710 0.385645
vt 0.176094 0.827839
vt 0.231878 0.849081
vt 0.163681 0.855501
vt 0.241988 0.875142
vt 0.173281 0.891671
vt 0.259815 0.900576
vt 0.183302 0.901702
vt 0.255749 0.988657
vt 0.181045 0.952084
vt 0.239033 0.992022
vt 0.079268 0.823156
vt 0.134507 0.827803
vt 0.078724 0.849054
vt 0.146920 0.855469
vt 0.068614 0.875121
vt 0.137320 0.891647
vt 0.050786 0.900562
vt 0.127299 0.901681
vt 0.054853 0.988659
vt 0.129556 0.952073
vt 0.318134 0.917895
vt 0.368011 0.943645
vt 0.368011 0.917895
vt 0.318134 0.943645
vt 0.368011 0.968717
vt 0.368011 0.943645
vt 0.318134 0.968717
vt 0.368011 0.992483
vt 0.368011 0.968717
vt 0.288598 0.979365
vt 0.303100 0.911129
vt 0.299795 0.898809
vt 0.548907 0.383085
vt 0.598787 0.399458
vt 0.598784 0.383077
vt 0.461737 0.462888
vt 0.447957 0.512765
vt 0.461737 0.512765
vt 0.093017 0.992483
vt 0.548910 0.399466
vt 0.598790 0.420796
vt 0.598787 0.399458
vt 0.637352 0.681069
vt 0.603976 0.629369
vt 0.603815 0.680962
vt 0.485951 0.313048
vt 0.519496 0.360956
vt 0.519496 0.313048
vt 0.593154 0.502718
vt 0.626858 0.554208
vt 0.626697 0.502615
vt 0.693836 0.854229
vt 0.704449 0.806320
vt 0.693836 0.806320
vt 0.616090 0.940905
vt 0.663998 0.992483
vt 0.663998 0.940905
vt 0.485951 0.375998
vt 0.533867 0.427584
vt 0.533859 0.375991
vt 0.485960 0.434589
vt 0.533873 0.462469
vt 0.533869 0.434582
vt 0.485959 0.427591
vt 0.593309 0.561309
vt 0.637522 0.561173
vt 0.637358 0.688067
vt 0.548907 0.320134
vt 0.554886 0.368043
vt 0.554886 0.320134
vt 0.599133 0.589177
vt 0.593383 0.320134
vt 0.554886 0.368043
vt 0.593383 0.368043
vt 0.631535 0.715935
vt 0.637513 0.715954
vt 0.594383 0.790451
vt 0.634468 0.854229
vt 0.634468 0.790451
vt 0.022014 0.979500
vt 0.007517 0.911295
vt 0.014473 0.974701
vt 0.593159 0.778440
vt 0.634468 0.790451
vt 0.635692 0.778440
vt 0.685867 0.364687
vt 0.678750 0.405997
vt 0.685874 0.407220
vt 0.656952 0.589195
vt 0.652556 0.540542
vt 0.652556 0.587971
vt 0.716130 0.362234
vt 0.696001 0.408442
vt 0.716138 0.409663
vt 0.696001 0.408442
vt 0.685867 0.364687
vt 0.685874 0.407220
vt 0.650726 0.789318
vt 0.677703 0.740665
vt 0.650727 0.739440
vt 0.734937 0.604565
vt 0.741938 0.650770
vt 0.741938 0.605789
vt 0.744618 0.589195
vt 0.754794 0.545439
vt 0.744619 0.544214
vt 0.050786 0.900562
vt 0.052782 0.984446
vt 0.054853 0.988659
vt 0.024054 0.905359
vt 0.032326 0.981354
vt 0.052782 0.984446
vt 0.020988 0.898610
vt 0.022014 0.979500
vt 0.259815 0.900576
vt 0.257823 0.984400
vt 0.286552 0.905326
vt 0.286552 0.905326
vt 0.278284 0.981263
vt 0.289622 0.898535
vt 0.288598 0.979365
vt 0.299795 0.898809
vt 0.474555 0.616999
vt 0.447957 0.592713
vt 0.448352 0.630670
vt 0.652547 0.666230
vt 0.679343 0.715954
vt 0.679343 0.666230
vt 0.448361 0.782972
vt 0.466609 0.785563
vt 0.474344 0.780094
vt 0.494366 0.955698
vt 0.451805 0.960878
vt 0.493862 0.960871
vt 0.679725 0.540039
vt 0.671986 0.589177
vt 0.679725 0.589195
vt 0.448249 0.921253
vt 0.497387 0.924659
vt 0.497405 0.921246
vt 0.451805 0.960878
vt 0.493867 0.992476
vt 0.493862 0.960871
vt 0.467420 0.817440
vt 0.452357 0.822615
vt 0.474559 0.822615
vt 0.455178 0.679165
vt 0.470221 0.684341
vt 0.470805 0.679165
vt 0.756739 0.241655
vt 0.749617 0.284217
vt 0.756739 0.284721
vt 0.530209 0.255956
vt 0.533400 0.298014
vt 0.533400 0.255956
vt 0.452357 0.822615
vt 0.461003 0.854229
vt 0.474559 0.822615
vt 0.734582 0.242664
vt 0.702645 0.284721
vt 0.734582 0.284721
vt 0.470221 0.684341
vt 0.461580 0.715954
vt 0.464770 0.715954
vt 0.697613 0.877773
vt 0.700616 0.925871
vt 0.697613 0.925871
vt 0.652557 0.524284
vt 0.652556 0.512103
vt 0.655559 0.514364
vt 0.684618 0.299102
vt 0.687611 0.347200
vt 0.684618 0.347200
vt 0.679489 0.512103
vt 0.679490 0.522023
vt 0.676486 0.512103
vt 0.691214 0.944384
vt 0.679040 0.992483
vt 0.691221 0.992481
vt 0.678744 0.347200
vt 0.678744 0.299102
vt 0.697613 0.877773
vt 0.691717 0.925871
vt 0.691717 0.877773
vt 0.695201 0.667857
vt 0.694377 0.715954
vt 0.694378 0.667857
vt 0.724724 0.789318
vt 0.720734 0.741875
vt 0.720734 0.789318
vt 0.593154 0.614335
vt 0.593153 0.604415
vt 0.597143 0.604415
vt 0.729584 0.589195
vt 0.725594 0.541753
vt 0.725594 0.589195
vt 0.613834 0.257729
vt 0.613833 0.247809
vt 0.617822 0.247809
vt 0.704679 0.541751
vt 0.694767 0.589195
vt 0.704687 0.589194
vt 0.725594 0.541753
vt 0.719721 0.589195
vt 0.719721 0.541753
vt 0.720734 0.741875
vt 0.714838 0.789318
vt 0.714838 0.741875
vt 0.740582 0.741875
vt 0.739759 0.789318
vt 0.739759 0.741875
vt 0.725536 0.925871
vt 0.721546 0.878428
vt 0.721546 0.925871
vt 0.618071 0.614335
vt 0.618070 0.604415
vt 0.622060 0.604415
vt 0.737470 0.347200
vt 0.733480 0.299757
vt 0.733480 0.347200
vt 0.750250 0.524284
vt 0.750249 0.514364
vt 0.754238 0.514364
vt 0.716175 0.945038
vt 0.706263 0.992483
vt 0.716183 0.992481
vt 0.733480 0.299757
vt 0.727607 0.347200
vt 0.727607 0.299757
vt 0.721546 0.878428
vt 0.715650 0.925871
vt 0.715650 0.878428
vt 0.741394 0.878428
vt 0.740571 0.925871
vt 0.740571 0.878428
vt 0.623719 0.320206
vt 0.619729 0.272763
vt 0.619729 0.320206
vt 0.725333 0.499330
vt 0.725332 0.489410
vt 0.729322 0.489410
vt 0.741035 0.409677
vt 0.737045 0.362234
vt 0.737045 0.409677
vt 0.750250 0.499330
vt 0.750249 0.489410
vt 0.754238 0.489410
vt 0.711422 0.426372
vt 0.701509 0.473816
vt 0.711429 0.473815
vt 0.737045 0.362234
vt 0.731172 0.409677
vt 0.731172 0.362234
vt 0.619729 0.272763
vt 0.613833 0.320206
vt 0.613833 0.272763
vt 0.574628 0.257657
vt 0.573805 0.305100
vt 0.573805 0.257657
vt 0.638753 0.272763
vt 0.642743 0.320206
vt 0.642743 0.272763
vt 0.700416 0.524284
vt 0.700415 0.514364
vt 0.704405 0.514364
vt 0.741080 0.992483
vt 0.737090 0.945040
vt 0.737090 0.992483
vt 0.638754 0.257729
vt 0.638753 0.247809
vt 0.642742 0.247809
vt 0.719896 0.604550
vt 0.709983 0.651994
vt 0.719903 0.651993
vt 0.737090 0.945040
vt 0.731217 0.992483
vt 0.731217 0.945040
vt 0.642743 0.320206
vt 0.648639 0.272763
vt 0.648639 0.320206
vt 0.590486 0.257657
vt 0.589662 0.305100
vt 0.589663 0.257657
vt 0.729369 0.854229
vt 0.725379 0.806786
vt 0.725379 0.854229
vt 0.725333 0.524284
vt 0.725332 0.514364
vt 0.729322 0.514364
vt 0.558770 0.305100
vt 0.554780 0.257657
vt 0.554780 0.305100
vt 0.755617 0.789318
vt 0.755616 0.779398
vt 0.759605 0.779398
vt 0.720155 0.668510
vt 0.710242 0.715954
vt 0.720162 0.715953
vt 0.554780 0.257657
vt 0.548907 0.305100
vt 0.548907 0.257657
vt 0.725379 0.806786
vt 0.719483 0.854229
vt 0.719483 0.806786
vt 0.736020 0.668511
vt 0.735196 0.715954
vt 0.735197 0.668511
vt 0.457843 0.318448
vt 0.453853 0.271005
vt 0.453853 0.318448
vt 0.700416 0.499330
vt 0.700415 0.489410
vt 0.704405 0.489410
vt 0.736327 0.473816
vt 0.732337 0.426373
vt 0.732337 0.473816
vt 0.447958 0.255971
vt 0.447957 0.246051
vt 0.451946 0.246051
vt 0.712565 0.299755
vt 0.702652 0.347200
vt 0.712572 0.347198
vt 0.732337 0.426373
vt 0.726463 0.473816
vt 0.726463 0.426373
vt 0.453853 0.271005
vt 0.447957 0.318448
vt 0.447957 0.271005
vt 0.745227 0.806786
vt 0.744404 0.854229
vt 0.744404 0.806786
vt 0.678744 0.473816
vt 0.686468 0.425202
vt 0.678744 0.424697
vt 0.699804 0.741207
vt 0.692737 0.788813
vt 0.699804 0.789318
vt 0.485951 0.298014
vt 0.493074 0.251417
vt 0.485951 0.250912
vt 0.515175 0.298014
vt 0.508108 0.252425
vt 0.508108 0.297509
vt 0.751054 0.670870
vt 0.758177 0.715450
vt 0.758177 0.671375
vt 0.758428 0.429741
vt 0.751361 0.473312
vt 0.758428 0.473816
vt 0.456094 0.647288
vt 0.473727 0.653286
vt 0.474311 0.648111
vt 0.455386 0.658462
vt 0.473143 0.658462
vt 0.472558 0.663638
vt 0.455282 0.668814
vt 0.471974 0.668814
vt 0.471390 0.673989
vt 0.466609 0.785563
vt 0.448955 0.791561
vt 0.474352 0.791561
vt 0.467282 0.796737
vt 0.450089 0.801913
vt 0.474421 0.801913
vt 0.467351 0.807088
vt 0.451223 0.812264
vt 0.474490 0.812264
vt 0.448268 0.924667
vt 0.496883 0.929832
vt 0.497387 0.924659
vt 0.448773 0.929840
vt 0.496380 0.935005
vt 0.449278 0.935013
vt 0.495876 0.940178
vt 0.449784 0.940186
vt 0.495373 0.945352
vt 0.450289 0.945359
vt 0.494869 0.950525
vt 0.450794 0.950532
vt 0.447957 0.869271
vt 0.497552 0.893548
vt 0.497681 0.869263
vt 0.448093 0.893555
vt 0.497479 0.907397
vt 0.448171 0.907404
vt 0.654043 0.925871
vt 0.616090 0.876279
vt 0.616089 0.925738
vt 0.455600 0.333482
vt 0.447957 0.382865
vt 0.455600 0.382941
vt 0.669078 0.925871
vt 0.676682 0.876639
vt 0.669078 0.876563
vt 0.474751 0.730988
vt 0.448146 0.755273
vt 0.474356 0.768944
vt 0.466716 0.774468
vt 0.456094 0.647288
vt 0.474338 0.644697
vt 0.448360 0.641819
vt 0.455988 0.636193
vt 0.085670 0.391530
vt 0.025421 0.235028
vt 0.040650 0.395331
vt 0.257771 0.517940
vt 0.224941 0.391564
vt 0.216398 0.514451
vt 0.094218 0.514506
vt 0.052845 0.518000
vt 0.363833 0.611520
vt 0.320483 0.488267
vt 0.322312 0.611520
vt 0.432263 0.413762
vt 0.386787 0.254072
vt 0.383704 0.413762
vt 0.365662 0.488267
vt 0.318793 0.327253
vt 0.430574 0.574769
vt 0.383704 0.413762
vt 0.269960 0.395360
vt 0.236799 0.231067
vt 0.429181 0.254072
vt 0.386787 0.209201
vt 0.386787 0.254072
vt 0.285186 0.235147
vt 0.253293 0.072174
vt 0.236799 0.231067
vt 0.073808 0.230942
vt 0.015079 0.075696
vt 0.025421 0.235028
vt 0.367352 0.327253
vt 0.321875 0.167580
vt 0.318793 0.327253
vt 0.429181 0.209201
vt 0.386787 0.189406
vt 0.386787 0.209201
vt 0.295537 0.075736
vt 0.257066 0.027474
vt 0.253293 0.072174
vt 0.057323 0.072129
vt 0.011307 0.030988
vt 0.015079 0.075696
vt 0.364270 0.167580
vt 0.321875 0.122709
vt 0.321875 0.167580
vt 0.652547 0.604550
vt 0.694941 0.651196
vt 0.694942 0.604550
vt 0.299310 0.031036
vt 0.256606 0.007574
vt 0.053550 0.027421
vt 0.007517 0.011443
vt 0.364270 0.122709
vt 0.321875 0.102904
vt 0.321875 0.122709
vt 0.560907 0.589196
vt 0.577966 0.572140
vt 0.560907 0.572142
vt 0.493797 0.589196
vt 0.529856 0.562907
vt 0.489780 0.572617
vt 0.549347 0.854229
vt 0.566405 0.837171
vt 0.549347 0.837172
vt 0.512715 0.982772
vt 0.556808 0.975904
vt 0.516732 0.966193
vt 0.516732 0.966193
vt 0.523016 0.883301
vt 0.512715 0.880805
vt 0.752510 0.347200
vt 0.769562 0.305962
vt 0.752504 0.305964
vt 0.593159 0.734201
vt 0.603758 0.763405
vt 0.603759 0.734201
vt 0.523572 0.480006
vt 0.560907 0.572142
vt 0.578120 0.488851
vt 0.548907 0.488853
vt 0.566405 0.837171
vt 0.548912 0.754826
vt 0.549347 0.837172
vt 0.550676 0.715954
vt 0.567734 0.698899
vt 0.550676 0.698900
vt 0.493795 0.715954
vt 0.529857 0.689669
vt 0.489780 0.699375
vt 0.582508 0.992483
vt 0.599566 0.975425
vt 0.582508 0.975426
vt 0.489785 0.844518
vt 0.533878 0.837650
vt 0.493802 0.827940
vt 0.493802 0.827940
vt 0.500086 0.745041
vt 0.489785 0.742545
vt 0.670553 0.284068
vt 0.687604 0.242830
vt 0.670546 0.242833
vt 0.618793 0.734201
vt 0.629392 0.763405
vt 0.629392 0.734201
vt 0.529857 0.689669
vt 0.523571 0.606725
vt 0.489780 0.699375
vt 0.567734 0.698899
vt 0.548906 0.615611
vt 0.550676 0.698900
vt 0.582508 0.975426
vt 0.601055 0.893080
vt 0.571842 0.893081
vt 0.383045 0.947246
vt 0.428744 0.739534
vt 0.254279 0.559302
vt 0.097709 0.555876
vt 0.363833 0.653040
vt 0.548917 0.443782
vt 0.191283 0.762477
vt 0.069618 0.766626
vt 0.318134 0.860728
vt 0.548921 0.473816
vt 0.164489 0.991283
vt 0.650726 0.804352
vt 0.383045 0.955793
vt 0.383045 0.992483
vt 0.447957 0.527802
vt 0.162818 0.805447
vt 0.069618 0.766626
vt 0.318134 0.872391
vt 0.318134 0.917895
vt 0.613833 0.409958
vt 0.613833 0.409958
vt 0.613833 0.438579
vt 0.458771 0.397975
vt 0.613833 0.335240
vt 0.071569 0.992024
vt 0.318134 0.943645
vt 0.318134 0.968717
vt 0.318134 0.992483
vt 0.296143 0.974523
vt 0.548910 0.399466
vt 0.447957 0.462888
vt 0.548913 0.420804
vt 0.637513 0.629476
vt 0.485951 0.360956
vt 0.593315 0.554311
vt 0.704449 0.854229
vt 0.616089 0.992483
vt 0.485964 0.462476
vt 0.593153 0.687926
vt 0.548907 0.368043
vt 0.593154 0.589195
vt 0.554886 0.320134
vt 0.594383 0.854229
vt 0.010818 0.898929
vt 0.594383 0.790451
vt 0.678744 0.365912
vt 0.656952 0.539318
vt 0.695994 0.363461
vt 0.695994 0.363461
vt 0.677702 0.788094
vt 0.734937 0.651994
vt 0.754794 0.587972
vt 0.024054 0.905359
vt 0.010818 0.898929
vt 0.255749 0.988657
vt 0.257823 0.984400
vt 0.474746 0.592713
vt 0.652547 0.715954
vt 0.448388 0.786386
vt 0.451299 0.955705
vt 0.671986 0.540058
vt 0.448268 0.924667
vt 0.451809 0.992483
vt 0.451790 0.817440
vt 0.448024 0.684341
vt 0.749617 0.242159
vt 0.530209 0.298014
vt 0.457813 0.854229
vt 0.702645 0.242664
vt 0.448024 0.684341
vt 0.700616 0.877773
vt 0.661452 0.518913
vt 0.661452 0.519736
vt 0.655559 0.524284
vt 0.687611 0.299102
vt 0.685381 0.516651
vt 0.685381 0.517474
vt 0.676487 0.524284
vt 0.679032 0.944385
vt 0.697613 0.925871
vt 0.695200 0.715954
vt 0.724724 0.741875
vt 0.603036 0.608964
vt 0.603036 0.609787
vt 0.597143 0.614335
vt 0.729584 0.541753
vt 0.623714 0.252357
vt 0.623714 0.253180
vt 0.617823 0.257729
vt 0.694759 0.541753
vt 0.725594 0.589195
vt 0.720734 0.789318
vt 0.740582 0.789318
vt 0.725536 0.878428
vt 0.627953 0.608964
vt 0.627953 0.609787
vt 0.622060 0.614335
vt 0.737470 0.299757
vt 0.760131 0.518913
vt 0.760131 0.519736
vt 0.754239 0.524284
vt 0.706255 0.945040
vt 0.733480 0.347200
vt 0.721546 0.925871
vt 0.741394 0.925871
vt 0.623719 0.272763
vt 0.735215 0.493959
vt 0.735215 0.494782
vt 0.729322 0.499330
vt 0.741035 0.362234
vt 0.760131 0.493959
vt 0.760131 0.494782
vt 0.754239 0.499330
vt 0.701502 0.426373
vt 0.737045 0.409677
vt 0.619729 0.320206
vt 0.574628 0.305100
vt 0.638753 0.320206
vt 0.710298 0.518913
vt 0.710298 0.519736
vt 0.704405 0.524284
vt 0.741080 0.945040
vt 0.648634 0.252357
vt 0.648634 0.253180
vt 0.642743 0.257729
vt 0.709976 0.604552
vt 0.737090 0.992483
vt 0.642743 0.272763
vt 0.590485 0.305100
vt 0.729369 0.806786
vt 0.735215 0.518913
vt 0.735215 0.519736
vt 0.729323 0.524284
vt 0.558770 0.257657
vt 0.765498 0.783946
vt 0.765498 0.784769
vt 0.759606 0.789318
vt 0.710235 0.668511
vt 0.554780 0.305100
vt 0.725379 0.854229
vt 0.736019 0.715954
vt 0.457843 0.271005
vt 0.710298 0.493959
vt 0.710298 0.494782
vt 0.704405 0.499330
vt 0.736327 0.426373
vt 0.457838 0.250599
vt 0.457838 0.251422
vt 0.451946 0.255971
vt 0.702645 0.299757
vt 0.732337 0.473816
vt 0.453853 0.318448
vt 0.745227 0.854229
vt 0.686468 0.473312
vt 0.692737 0.741712
vt 0.493074 0.297509
vt 0.515175 0.251921
vt 0.751054 0.715954
vt 0.751361 0.430246
vt 0.448335 0.653286
vt 0.448231 0.663638
vt 0.448127 0.673989
vt 0.448388 0.786386
vt 0.449522 0.796737
vt 0.450656 0.807088
vt 0.654044 0.876146
vt 0.447957 0.333557
vt 0.676682 0.925795
vt 0.447957 0.730988
vt 0.448253 0.769123
vt 0.474311 0.648111
vt 0.474447 0.630848
vt 0.073808 0.230942
vt 0.429181 0.254072
vt 0.367352 0.327253
vt 0.432263 0.413762
vt 0.285186 0.235147
vt 0.429181 0.209201
vt 0.295537 0.075736
vt 0.057323 0.072129
vt 0.364270 0.167580
vt 0.429181 0.189406
vt 0.364270 0.122709
vt 0.652547 0.651195
vt 0.303100 0.011494
vt 0.054011 0.007517
vt 0.364270 0.102904
vt 0.577966 0.589194
vt 0.533873 0.579485
vt 0.566405 0.854228
vt 0.552791 0.992483
vt 0.556808 0.975904
vt 0.769569 0.347197
vt 0.593159 0.763405
vt 0.533873 0.477510
vt 0.577966 0.572140
vt 0.578125 0.754825
vt 0.567734 0.715953
vt 0.533872 0.706248
vt 0.599566 0.992482
vt 0.529861 0.854229
vt 0.533878 0.837650
vt 0.687611 0.284066
vt 0.618793 0.763405
vt 0.533872 0.604230
vt 0.578119 0.615608
vt 0.599566 0.975425
vn 0.000000 -0.020113 0.999798
vn 0.000000 -0.020113 0.999798
vn 0.000000 -0.020113 0.999798
vn 0.000000 0.000000 1.000000
vn 0.000000 0.000000 1.000000
vn 0.000000 0.000000 1.000000
vn -1.000000 0.000000 0.000000
vn -1.000000 0.000000 0.000000
vn -1.000000 0.000000 0.000000
vn 0.000000 0.014846 0.999890
vn 0.000000 0.012652 0.999920
vn 0.000000 0.014846 0.999890
vn 1.000000 0.000000 0.000000
vn 1.000000 0.000000 0.000000
vn 1.000000 0.000000 0.000000
vn 0.000000 -0.000000 -1.000000
vn 0.000000 -0.000000 -1.000000
vn 0.000000 -0.000000 -1.000000
vn 0.000000 0.996967 -0.077823
vn 0.000000 0.996967 -0.077823
vn 0.000000 0.996967 -0.077823
vn -0.999798 -0.020113 0.000000
vn -0.999798 -0.020113 0.000000
vn -0.999798 -0.020113 0.000000
vn 0.999798 -0.020113 0.000000
vn 0.999798 -0.020113 0.000000
vn 0.999798 -0.020113 0.000000
vn 0.000000 -0.020114 -0.999798
vn 0.000000 -0.020114 -0.999798
vn 0.000000 -0.020114 -0.999798
vn 0.000000 0.998799 -0.048997
vn 0.000000 0.998799 -0.048997
vn 0.000000 0.998799 -0.048997
vn 1.000000 -0.000000 -0.000000
vn 1.000000 0.000000 0.000000
vn 1.000000 -0.000000 -0.000000
vn -1.000000 -0.000000 -0.000000
vn -1.000000 0.000000 0.000000
vn -1.000000 0.000000 0.000000
vn 0.000000 0.009970 0.999950
vn 0.000000 0.009970 0.999950
vn 0.000000 0.009970 0.999950
vn 0.000000 0.000000 1.000000
vn 0.000000 0.000001 1.000000
vn 0.000000 0.000001 1.000000
vn 0.000000 -0.559401 0.828897
vn 0.000000 -0.559401 0.828897
vn 0.000000 -0.559401 0.828897
vn 0.000000 0.783352 0.621578
vn 0.000000 0.783352 0.621578
vn 0.000000 0.783352 0.621578
vn -1.000000 -0.000000 -0.000000
vn -1.000000 -0.000000 -0.000000
vn -1.000000 0.000000 0.000000
vn -1.000000 -0.000000 -0.000000
vn -1.000000 -0.000000 -0.000000
vn -1.000000 0.000000 0.000000
vn -1.000000 0.000000 0.000000
vn 1.000000 -0.000000 -0.000000
vn 1.000000 -0.000000 -0.000000
vn 1.000000 -0.000000 -0.000000
vn 1.000000 -0.000000 -0.000000
vn 1.000000 0.000000 0.000000
vn 1.000000 0.000000 0.000000
vn 0.000000 0.385369 -0.922763
vn 0.000000 0.385369 -0.922762
vn 0.000000 0.385369 -0.922762
vn 0.000000 -0.000000 -1.000000
vn 0.000000 -0.000000 -1.000000
vn 0.000000 -0.000000 -1.000000
vn 0.000000 -0.000000 -1.000000
vn 0.000000 -0.000000 -1.000000
vn 0.000000 0.009262 0.999957
vn 0.000000 0.009262 0.999957
vn 0.000000 0.009262 0.999957
vn 0.000000 -0.331156 0.943576
vn 0.000000 -0.331156 0.943576
vn 0.000000 -0.331156 0.943576
vn 0.000001 0.336839 0.941562
vn 0.000000 0.336839 0.941562
vn 0.000001 0.336839 0.941562
vn 0.000000 0.763622 0.645664
vn 0.000001 0.763621 0.645665
vn 0.000000 0.763622 0.645664
vn 0.000000 0.039426 0.999222
vn 0.000000 0.039426 0.999222
vn 0.000000 0.039426 0.999223
vn -1.000000 0.000000 0.000000
vn -1.000000 0.000000 0.000000
vn -1.000000 -0.000000 -0.000000
vn -1.000000 0.000000 0.000000
vn -1.000000 -0.000000 -0.000000
vn -1.000000 0.000000 0.000000
vn -1.000000 0.000000 0.000000
vn -1.000000 0.000000 0.000000
vn -1.000000 0.000000 0.000000
vn -1.000000 0.000000 0.000000
vn 1.000000 0.000000 0.000000
vn 1.000000 0.000000 0.000000
vn 1.000000 -0.000000 -0.000000
vn 1.000000 -0.000000 -0.000000
vn 1.000000 0.000000 0.000000
vn 1.000000 -0.000000 -0.000000
vn 1.000000 0.000000 0.000000
vn 1.000000 -0.000000 -0.000000
vn 1.000000 0.000000 0.000000
vn 1.000000 -0.000000 -0.000000
vn 0.000000 -0.104983 -0.994474
vn 0.000000 -0.104983 -0.994474
vn 0.000000 -0.104983 -0.994474
vn -0.000000 -0.438707 -0.898630
vn -0.000000 -0.438707 -0.898630
vn 0.000000 -0.438707 -0.898630
vn -0.000001 -0.640682 -0.767806
vn -0.000001 -0.640682 -0.767806
vn -0.000001 -0.640682 -0.767806
vn -0.983959 0.005053 -0.178325
vn -0.971633 0.012554 -0.236160
vn -0.971041 0.012868 -0.238565
vn 0.000000 0.960254 -0.279128
vn 0.000001 0.960254 -0.279129
vn 0.000001 0.960253 -0.279129
vn 0.000000 -0.736359 0.676591
vn 0.000000 -0.736359 0.676591
vn 0.000000 -0.736359 0.676591
vn 1.000000 0.000000 0.000000
vn 0.000000 0.994426 -0.105433
vn 0.000000 0.994426 -0.105433
vn 0.000000 0.994426 -0.105433
vn -1.000000 -0.000000 -0.000000
vn -1.000000 0.000000 0.000000
vn -1.000000 -0.000000 -0.000000
vn 0.000000 -0.000000 -1.000000
vn 0.000000 -0.000000 -1.000000
vn 0.000000 -0.000000 -1.000000
vn 1.000000 0.000000 0.000000
vn 1.000000 -0.000000 -0.000000
vn 1.000000 0.000000 0.000000
vn 0.000000 -0.549388 -0.835567
vn 0.000000 -0.549389 -0.835567
vn 0.000000 -0.549389 -0.835567
vn 0.000000 -1.000000 0.000000
vn 0.000000 -1.000000 0.000000
vn 0.000000 -1.000000 0.000000
vn 0.000000 1.000000 -0.000000
vn 0.000000 0.999998 -0.001963
vn 0.000000 1.000000 -0.000000
vn 0.000000 0.999980 -0.006301
vn 0.000000 0.999962 -0.008675
vn 0.000000 0.999980 -0.006301
vn 0.000000 0.999998 -0.001963
vn 1.000000 -0.000000 -0.000000
vn 1.000000 0.000000 0.000000
vn -1.000000 -0.000000 -0.000000
vn 0.000000 0.000000 1.000000
vn 0.000000 0.000000 1.000000
vn 0.000000 0.000000 1.000000
vn 1.000000 0.000000 0.000000
vn 0.000000 -0.586814 0.809722
vn 0.000000 -0.586814 0.809722
vn 0.000000 -0.586814 0.809722
vn -1.000000 0.000000 0.000000
vn -1.000000 0.000000 0.000000
vn 0.000000 0.025078 -0.999686
vn 0.000000 0.025078 -0.999686
vn 0.000000 0.025078 -0.999686
vn 0.983959 0.005053 -0.178325
vn 0.971633 0.012554 -0.236159
vn 0.984956 0.004334 -0.172752
vn -0.000000 -0.338888 -0.940827
vn -0.000000 -0.338887 -0.940827
vn 0.000000 -0.338887 -0.940827
vn 0.000000 0.794846 -0.606811
vn 0.000000 0.794845 -0.606812
vn 0.000000 0.794845 -0.606813
vn 0.000001 0.363664 -0.931530
vn 0.000001 0.363665 -0.931530
vn 0.000001 0.363664 -0.931530
vn 0.000001 0.972528 -0.232787
vn 0.000000 0.972528 -0.232787
vn 0.000000 0.972528 -0.232787
vn 0.000001 0.965482 -0.260469
vn 0.000000 0.965482 -0.260469
vn 0.000001 0.965482 -0.260469
vn -0.000001 -0.995702 -0.092612
vn -0.000001 -0.995702 -0.092612
vn -0.000001 -0.995702 -0.092612
vn -0.000000 -0.335392 0.942079
vn -0.000001 -0.335390 0.942079
vn -0.000000 -0.335392 0.942079
vn -0.000003 -0.998520 0.054390
vn -0.000000 -0.998520 0.054390
vn 0.000000 -0.998520 0.054390
vn 0.998502 0.011355 -0.053515
vn 0.867444 -0.017420 -0.497230
vn 0.837891 -0.020770 -0.545442
vn 0.883638 0.025460 -0.467478
vn 0.995530 0.006902 -0.094191
vn 0.997739 0.017552 -0.064874
vn 0.983073 0.017191 -0.182406
vn 0.992559 0.006342 -0.121601
vn -0.998502 0.011355 -0.053515
vn -0.867444 -0.017420 -0.497230
vn -0.998956 0.011931 -0.044101
vn -0.883638 0.025460 -0.467478
vn -0.995530 0.006902 -0.094191
vn -0.983073 0.017191 -0.182406
vn -0.992559 0.006342 -0.121601
vn -0.992765 0.006467 -0.119898
vn -0.999978 0.002436 0.006235
vn -0.999990 0.000954 0.004419
vn -0.999979 0.002985 0.005724
vn 0.000000 -0.000000 -1.000000
vn 0.000000 -0.000000 -1.000000
vn 0.000000 -0.000000 -1.000000
vn 0.999970 0.000699 0.007673
vn 0.999991 -0.000433 0.004146
vn 0.999975 -0.001366 0.006880
vn 0.000000 0.993919 0.110113
vn 0.000000 0.993919 0.110113
vn 0.000000 0.993919 0.110113
vn 0.000000 -0.577291 0.816538
vn 0.000000 -0.577292 0.816538
vn 0.000000 -0.577292 0.816537
vn 0.000000 0.999970 0.007805
vn 0.000000 0.999970 0.007803
vn 0.000000 0.999970 0.007804
vn 0.000000 0.985438 0.170037
vn 0.000000 0.985438 0.170037
vn 0.000000 0.985438 0.170037
vn 0.995282 0.000000 0.097029
vn 0.995282 0.000000 0.097029
vn 0.995282 0.000000 0.097029
vn -0.995282 0.000000 0.097029
vn -0.995282 0.000000 0.097029
vn -0.995282 0.000000 0.097029
vn 0.000000 -0.586483 -0.809962
vn 0.000000 -0.586482 -0.809962
vn 0.000000 -0.586482 -0.809962
vn 0.000000 0.000000 1.000000
vn 0.000000 0.000000 1.000000
vn 0.000000 0.000000 1.000000
vn 1.000000 -0.000000 -0.000000
vn 1.000000 -0.000000 -0.000000
vn 1.000000 -0.000000 -0.000000
vn 0.000000 -0.919049 0.394144
vn 0.000000 -0.919049 0.394144
vn 0.000000 -0.919049 0.394144
vn -1.000000 -0.000000 -0.000000
vn -1.000000 -0.000000 -0.000000
vn -1.000000 0.000000 0.000000
vn 0.000000 -0.000000 -1.000000
vn 0.000000 -0.000000 -1.000000
vn 0.000000 -0.000000 -1.000000
vn -1.000000 0.000000 0.000000
vn -1.000000 0.000000 0.000000
vn -1.000000 0.000000 0.000000
vn 0.000000 0.606256 0.795270
vn 0.000000 0.601522 0.798856
vn 0.000000 0.606254 0.795271
vn 1.000000 0.000000 0.000000
vn 1.000000 0.000000 0.000000
vn 1.000000 0.000000 0.000000
vn 0.000000 1.000000 -0.000000
vn 0.000000 1.000000 -0.000000
vn 0.000000 1.000000 -0.000000
vn 0.000000 0.610964 0.791658
vn 0.000000 0.610964 0.791658
vn 0.000000 0.610964 -0.791658
vn 0.000000 0.610966 -0.791657
vn 0.000000 0.610964 -0.791658
vn 0.000000 1.000000 -0.000000
vn 0.000000 1.000000 -0.000000
vn 0.000000 1.000000 -0.000000
vn 0.000000 0.000000 1.000000
vn 0.000000 0.000000 1.000000
vn 0.000000 0.000000 1.000000
vn -1.000000 0.000000 0.000000
vn -1.000000 0.000000 0.000000
vn -1.000000 0.000000 0.000000
vn 0.000000 -0.000000 -1.000000
vn 0.000000 -0.000000 -1.000000
vn 0.000000 -0.000000 -1.000000
vn 1.000000 0.000000 0.000000
vn 1.000000 0.000000 0.000000
vn 1.000000 0.000000 0.000000
vn 0.000000 1.000000 -0.000000
vn 0.000000 1.000000 -0.000000
vn 0.000000 1.000000 -0.000000
vn 0.000000 0.610964 0.791659
vn 0.000000 0.610967 0.791656
vn 0.000000 0.610963 0.791659
vn 0.000000 0.610965 -0.791658
vn 0.000000 0.610965 -0.791658
vn 0.000000 0.610965 -0.791658
vn 0.000000 1.000000 -0.000000
vn 0.000000 1.000000 -0.000000
vn 0.000000 1.000000 -0.000000
vn 0.000000 0.000000 1.000000
vn 0.000000 0.000000 1.000000
vn 0.000000 0.000000 1.000000
vn -1.000000 0.000000 0.000000
vn -1.000000 0.000000 0.000000
vn -1.000000 0.000000 0.000000
vn 0.000000 -0.000000 -1.000000
vn 0.000000 -0.000000 -1.000000
vn 0.000000 -0.000000 -1.000000
vn 1.000000 0.000000 0.000000
vn 1.000000 0.000000 0.000000
vn 1.000000 0.000000 0.000000
vn 0.000000 1.000000 -0.000000
vn 0.000000 1.000000 -0.000000
vn 0.000000 1.000000 -0.000000
vn 0.000000 0.610967 0.791656
vn 0.000000 0.610964 0.791659
vn 0.000000 0.610967 0.791656
vn 0.000000 0.610965 -0.791658
vn 0.000000 0.610964 -0.791658
vn 0.000000 0.610965 -0.791658
vn 0.000000 1.000000 -0.000000
vn 0.000000 1.000000 -0.000000
vn 0.000000 1.000000 -0.000000
vn 0.000000 0.000000 1.000000
vn 0.000000 0.000000 1.000000
vn 0.000000 0.000000 1.000000
vn -1.000000 0.000000 0.000000
vn -1.000000 0.000000 0.000000
vn -1.000000 0.000000 0.000000
vn 0.000000 -0.000000 -1.000000
vn 0.000000 -0.000000 -1.000000
vn 0.000000 -0.000000 -1.000000
vn 1.000000 0.000000 0.000000
vn 1.000000 0.000000 0.000000
vn 1.000000 0.000000 0.000000
vn 0.000000 1.000000 -0.000000
vn 0.000000 1.000000 -0.000000
vn 0.000000 1.000000 -0.000000
vn 0.000000 0.610964 0.791658
vn 0.000000 0.610966 0.791657
vn 0.000000 0.610964 0.791658
vn 0.000000 0.610964 -0.791658
vn 0.000000 0.610965 -0.791657
vn 0.000000 0.610964 -0.791658
vn 0.000000 1.000000 -0.000000
vn 0.000000 1.000000 -0.000000
vn 0.000000 1.000000 -0.000000
vn 0.000000 0.000000 1.000000
vn 0.000000 0.000000 1.000000
vn 0.000000 0.000000 1.000000
vn -1.000000 0.000000 0.000000
vn -1.000000 0.000000 0.000000
vn -1.000000 0.000000 0.000000
vn 0.000000 -0.000000 -1.000000
vn 0.000000 -0.000000 -1.000000
vn 0.000000 -0.000000 -1.000000
vn 1.000000 0.000000 0.000000
vn 1.000000 0.000000 0.000000
vn 1.000000 0.000000 0.000000
vn 0.000000 1.000000 -0.000000
vn 0.000000 1.000000 -0.000000
vn 0.000000 1.000000 -0.000000
vn 0.000000 0.610965 0.791658
vn 0.000000 0.610964 0.791658
vn 0.000000 0.610965 0.791658
vn 0.000000 0.610965 -0.791657
vn 0.000000 0.610964 -0.791658
vn 0.000000 0.610966 -0.791657
vn 0.000000 1.000000 -0.000000
vn 0.000000 1.000000 -0.000000
vn 0.000000 1.000000 -0.000000
vn 0.000000 0.000000 1.000000
vn 0.000000 0.000000 1.000000
vn 0.000000 0.000000 1.000000
vn -1.000000 0.000000 0.000000
vn -1.000000 0.000000 0.000000
vn -1.000000 0.000000 0.000000
vn 0.000000 -0.000000 -1.000000
vn 0.000000 -0.000000 -1.000000
vn 0.000000 -0.000000 -1.000000
vn 1.000000 0.000000 0.000000
vn 1.000000 0.000000 0.000000
vn 1.000000 0.000000 0.000000
vn 0.000000 1.000000 -0.000000
vn 0.000000 1.000000 -0.000000
vn 0.000000 1.000000 -0.000000
vn 0.000000 0.610964 0.791658
vn 0.000000 0.610964 0.791658
vn 0.000000 0.610964 0.791658
vn 0.000000 0.610965 -0.791658
vn 0.000000 0.610964 -0.791658
vn 0.000000 0.610965 -0.791658
vn 0.000000 1.000000 -0.000000
vn 0.000000 1.000000 -0.000000
vn 0.000000 1.000000 -0.000000
vn 0.000000 0.000000 1.000000
vn 0.000000 0.000000 1.000000
vn 0.000000 0.000000 1.000000
vn -1.000000 0.000000 0.000000
vn -1.000000 0.000000 0.000000
vn -1.000000 0.000000 0.000000
vn 0.000000 -0.000000 -1.000000
vn 0.000000 -0.000000 -1.000000
vn 0.000000 -0.000000 -1.000000
vn 1.000000 0.000000 0.000000
vn 1.000000 0.000000 0.000000
vn 1.000000 0.000000 0.000000
vn 0.000000 1.000000 -0.000000
vn 0.000000 1.000000 -0.000000
vn 0.000000 1.000000 -0.000000
vn 0.000000 0.610964 0.791658
vn 0.000000 0.610965 0.791658
vn 0.000000 0.610964 0.791658
vn 0.000000 0.610965 -0.791658
vn 0.000000 0.610964 -0.791658
vn 0.000000 0.610965 -0.791658
vn 0.000000 1.000000 -0.000000
vn 0.000000 1.000000 -0.000000
vn 0.000000 1.000000 -0.000000
vn 0.000000 -0.611941 -0.790904
vn 0.000000 -0.611941 -0.790903
vn 0.000000 -0.611941 -0.790904
vn -0.000001 -0.590883 0.806757
vn -0.000000 -0.590883 0.806757
vn 0.000000 -0.590883 0.806757
vn -0.000001 -0.586483 -0.809962
vn -0.000001 -0.586481 -0.809963
vn -0.000001 -0.586481 -0.809963
vn 0.000000 -0.590883 0.806757
vn 0.000000 -0.590884 0.806757
vn 0.000000 -0.590883 0.806757
vn 0.000000 -0.586481 -0.809963
vn 0.000000 -0.586482 -0.809962
vn 0.000000 -0.586481 -0.809963
vn 0.000000 -0.590883 0.806757
vn 0.000001 -0.590885 0.806756
vn 0.000001 -0.590885 0.806756
vn -0.996355 -0.000507 0.085306
vn -0.995027 -0.001038 0.099605
vn -0.995319 -0.004357 0.096550
vn -0.995282 0.000000 0.097030
vn -0.995282 0.000000 0.097029
vn -0.995281 0.000000 0.097030
vn -0.995282 0.000000 0.097029
vn -0.995282 0.000000 0.097029
vn -0.995282 0.000000 0.097029
vn 0.996355 -0.000507 0.085306
vn 0.995026 -0.001038 0.099607
vn 0.995915 0.000000 0.090296
vn 0.995282 0.000000 0.097029
vn 0.995282 0.000000 0.097029
vn 0.995282 0.000000 0.097029
vn 0.995282 0.000000 0.097029
vn 0.995282 0.000000 0.097029
vn 0.995282 0.000000 0.097029
vn 0.000000 0.993919 0.110114
vn 0.000001 0.993919 0.110116
vn 0.000000 0.993918 0.110119
vn 0.000001 0.993919 0.110113
vn 0.000001 0.993919 0.110113
vn 0.000001 0.993919 0.110113
vn -0.000000 0.993919 0.110116
vn 0.000001 0.993919 0.110113
vn 0.000001 0.993919 0.110116
vn 0.000001 0.993919 0.110116
vn 0.000001 0.993919 0.110113
vn -0.000000 0.993918 0.110119
vn -0.000000 0.999970 0.007807
vn -0.000000 0.999970 0.007807
vn 0.000000 0.999970 0.007807
vn -0.000000 0.999970 0.007807
vn 0.000000 0.999970 0.007806
vn 0.000000 0.999970 0.007807
vn 0.000000 -0.999946 0.010412
vn 0.000000 -0.999946 0.010411
vn 0.000000 -0.999946 0.010412
vn -0.000000 -0.585879 0.810399
vn -0.000001 -0.585881 0.810397
vn -0.000001 -0.585881 0.810397
vn 0.000000 -0.593510 -0.804827
vn 0.000000 -0.593509 -0.804827
vn 0.000000 -0.593509 -0.804827
vn 0.999990 0.000954 0.004419
vn 0.999978 0.002436 0.006235
vn 0.999979 0.002985 0.005724
vn 0.999963 0.002509 0.008251
vn -0.999991 -0.000433 0.004146
vn -0.999970 0.000699 0.007673
vn -0.999975 -0.001366 0.006881
vn -0.999963 0.002509 0.008251
vn 0.999920 0.012652 -0.000000
vn 0.999945 0.010494 -0.000000
vn 0.999920 0.012652 -0.000000
vn -0.999890 0.014846 -0.000000
vn -0.999920 0.012652 -0.000000
vn -0.999890 0.014846 -0.000000
vn 0.999890 0.014846 -0.000000
vn 0.999890 0.014846 -0.000000
vn 0.000000 0.014846 -0.999890
vn 0.000000 0.012652 -0.999920
vn 0.000000 0.014846 -0.999890
vn 0.000000 -0.019299 0.999814
vn 0.000000 -0.019299 0.999814
vn 0.000000 -0.019299 0.999814
vn 0.000000 0.012652 -0.999920
vn 0.000000 0.010493 -0.999945
vn 0.000000 0.012653 0.999920
vn 0.000000 0.010494 0.999945
vn -0.999920 0.012652 -0.000000
vn -0.999945 0.010494 -0.000000
vn 0.000000 0.000000 1.000000
vn 0.000000 0.000000 1.000000
vn 0.000000 0.000000 1.000000
vn -0.999814 -0.019300 0.000000
vn -0.999814 -0.019300 0.000000
vn -0.999814 -0.019300 0.000000
vn 0.999814 -0.019300 0.000000
vn 0.999814 -0.019300 0.000000
vn 0.999814 -0.019300 0.000000
vn 0.000000 -0.019300 -0.999814
vn 0.000000 -0.019300 -0.999814
vn 0.000000 -0.019300 -0.999814
vn 0.000000 0.107105 0.994248
vn 0.000000 0.107105 0.994248
vn 0.000000 0.107105 0.994248
vn -1.000000 0.000000 0.000000
vn -1.000000 0.000000 0.000000
vn -1.000000 0.000000 0.000000
vn 1.000000 0.000000 0.000000
vn 1.000000 0.000000 0.000000
vn 1.000000 0.000000 0.000000
vn 0.000000 -0.000000 -1.000000
vn 0.000000 -0.000000 -1.000000
vn 0.000000 -0.000000 -1.000000
vn 0.000000 -1.000000 0.000000
vn 0.000000 -1.000000 0.000000
vn 0.000000 -1.000000 0.000000
vn -1.000000 0.000000 0.000000
vn -1.000000 0.000000 0.000000
vn 1.000000 0.000000 0.000000
vn 1.000000 0.000000 0.000000
vn 0.000000 0.107105 -0.994248
vn 0.000000 0.107105 -0.994248
vn 0.000000 0.107105 -0.994248
vn -1.000000 0.000000 0.000000
vn -1.000000 0.000000 0.000000
vn -1.000000 0.000000 0.000000
vn 0.000000 -0.000000 -1.000000
vn 0.000000 0.000198 -1.000000
vn 0.000000 0.003794 -0.999993
vn 1.000000 0.000000 0.000000
vn 1.000000 0.000000 0.000000
vn 1.000000 0.000000 0.000000
vn 0.000000 0.000000 1.000000
vn 0.000000 0.000000 1.000000
vn 0.000000 0.000000 1.000000
vn 0.000000 0.142416 0.989807
vn 0.000000 0.142416 0.989807
vn 0.000000 0.142416 0.989807
vn 0.000000 1.000000 -0.000000
vn 0.000000 1.000000 -0.000000
vn 0.000000 1.000000 -0.000000
vn 0.000000 -1.000000 0.000000
vn 0.000000 -1.000000 0.000000
vn 0.000000 -1.000000 0.000000
vn 0.000000 0.004257 -0.999991
vn -0.832280 -0.554356 0.000000
vn -0.832280 -0.554355 0.000000
vn -0.832280 -0.554355 0.000000
vn 0.959740 0.280891 -0.000000
vn 0.959740 0.280890 -0.000000
vn 0.959740 0.280891 -0.000000
vn -1.000000 0.000000 0.000000
vn -1.000000 0.000000 0.000000
vn -1.000000 0.000000 0.000000
vn 0.000000 -0.000000 -1.000000
vn 0.000000 -0.000000 -1.000000
vn 0.000000 -0.000000 -1.000000
vn 1.000000 0.000000 0.000000
vn 1.000000 0.000000 0.000000
vn 1.000000 0.000000 0.000000
vn 0.000000 0.000000 1.000000
vn 0.000000 0.000000 1.000000
vn 0.000000 0.000000 1.000000
vn 0.000000 0.019185 0.999816
vn 0.000000 0.019185 0.999816
vn 0.000000 0.019185 0.999816
vn 0.000000 1.000000 -0.000000
vn 0.000000 1.000000 -0.000000
vn 0.000000 1.000000 -0.000000
vn 0.000000 -1.000000 0.000000
vn 0.000000 -1.000000 0.000000
vn 0.000000 -1.000000 0.000000
vn 0.000000 0.127892 -0.991788
vn 0.000000 0.127892 -0.991788
vn 0.000000 0.127892 -0.991788
vn -0.832280 -0.554356 0.000000
vn -0.832280 -0.554355 0.000000
vn -0.832280 -0.554356 0.000000
vn 0.959740 0.280891 -0.000000
vn 0.959740 0.280890 -0.000000
vn 0.959740 0.280890 -0.000000
vn 0.000000 -0.020113 0.999798
vn 0.000000 0.000000 1.000000
vn -1.000000 0.000000 0.000000
vn 1.000000 0.000000 0.000000
vn 0.000000 -0.000000 -1.000000
vn 0.000000 0.996967 -0.077823
vn -0.999798 -0.020113 0.000000
vn 0.999798 -0.020113 0.000000
vn 0.000000 -0.020114 -0.999798
vn 0.000000 0.998799 -0.048997
vn -1.000000 -0.000000 -0.000000
vn 0.000000 0.009970 0.999950
vn 0.000000 0.000000 1.000000
vn 0.000000 -0.559401 0.828897
vn 0.000000 0.783352 0.621578
vn -1.000000 0.000000 0.000000
vn 1.000000 0.000000 0.000000
vn 0.000000 0.385369 -0.922762
vn 0.000000 -0.000000 -1.000000
vn 0.000000 0.009262 0.999957
vn 0.000000 -0.331156 0.943576
vn 0.000000 0.336840 0.941562
vn 0.000001 0.763621 0.645665
vn 0.000000 0.039426 0.999222
vn 1.000000 0.000000 0.000000
vn 0.000000 -0.104983 -0.994474
vn -0.000001 -0.438707 -0.898630
vn -0.000001 -0.640682 -0.767806
vn -0.984956 0.004334 -0.172753
vn 0.000000 0.960254 -0.279128
vn 0.000000 -0.736359 0.676591
vn 0.000000 0.994426 -0.105433
vn -1.000000 0.000000 0.000000
vn 0.000000 -0.000000 -1.000000
vn 1.000000 -0.000000 -0.000000
vn 0.000000 -0.549388 -0.835567
vn 0.000000 -1.000000 0.000000
vn 0.000000 0.999962 -0.008675
vn -1.000000 0.000000 0.000000
vn 0.000000 0.000000 1.000000
vn 1.000000 0.000000 0.000000
vn 0.000000 -0.586814 0.809722
vn 0.000000 0.025078 -0.999686
vn 0.971041 0.012868 -0.238565
vn -0.000000 -0.338888 -0.940827
vn 0.000000 0.794846 -0.606811
vn 0.000001 0.363666 -0.931530
vn 0.000001 0.972528 -0.232787
vn 0.000000 0.965482 -0.260469
vn -0.000000 -0.995702 -0.092612
vn -0.000001 -0.335389 0.942080
vn -0.000003 -0.998520 0.054390
vn 0.998956 0.011931 -0.044101
vn 0.992765 0.006467 -0.119898
vn -0.837891 -0.020770 -0.545442
vn -0.997739 0.017552 -0.064874
vn -0.999985 0.000000 0.005463
vn 0.000000 -0.000000 -1.000000
vn 0.999985 -0.000246 0.005461
vn 0.000000 0.993919 0.110116
vn 0.000000 -0.577291 0.816538
vn 0.000000 0.999970 0.007803
vn 0.000000 0.985438 0.170037
vn 0.995281 0.000000 0.097029
vn -0.995282 0.000000 0.097030
vn 0.000000 -0.586483 -0.809962
vn 0.000000 0.000000 1.000000
vn 1.000000 0.000000 0.000000
vn 0.000000 -0.919049 0.394144
vn -1.000000 -0.000000 -0.000000
vn 0.000000 -0.000000 -1.000000
vn -1.000000 0.000000 0.000000
vn -1.000000 0.000000 0.000000
vn -1.000000 0.000000 0.000000
vn 0.000000 0.601526 0.798853
vn 1.000000 0.000000 0.000000
vn 1.000000 0.000000 0.000000
vn 1.000000 0.000000 0.000000
vn 0.000000 1.000000 -0.000000
vn 0.000000 0.610966 -0.791657
vn 0.000000 1.000000 -0.000000
vn 0.000000 0.000000 1.000000
vn -1.000000 0.000000 0.000000
vn -1.000000 0.000000 0.000000
vn -1.000000 0.000000 0.000000
vn 0.000000 -0.000000 -1.000000
vn 1.000000 0.000000 0.000000
vn 1.000000 0.000000 0.000000
vn 1.000000 0.000000 0.000000
vn 0.000000 1.000000 -0.000000
vn 0.000000 0.610967 0.791656
vn 0.000000 0.610965 -0.791658
vn 0.000000 1.000000 -0.000000
vn 0.000000 0.000000 1.000000
vn -1.000000 0.000000 0.000000
vn -1.000000 0.000000 0.000000
vn -1.000000 0.000000 0.000000
vn 0.000000 -0.000000 -1.000000
vn 1.000000 0.000000 0.000000
vn 1.000000 0.000000 0.000000
vn 1.000000 0.000000 0.000000
vn 0.000000 1.000000 -0.000000
vn 0.000000 0.610963 0.791659
vn 0.000000 0.610964 -0.791658
vn 0.000000 1.000000 -0.000000
vn 0.000000 0.000000 1.000000
vn -1.000000 0.000000 0.000000
vn -1.000000 0.000000 0.000000
vn -1.000000 0.000000 0.000000
vn 0.000000 -0.000000 -1.000000
vn 1.000000 0.000000 0.000000
vn 1.000000 0.000000 0.000000
vn 1.000000 0.000000 0.000000
vn 0.000000 1.000000 -0.000000
vn 0.000000 0.610966 0.791657
vn 0.000000 0.610966 -0.791657
vn 0.000000 1.000000 -0.000000
vn 0.000000 0.000000 1.000000
vn -1.000000 0.000000 0.000000
vn -1.000000 0.000000 0.000000
vn -1.000000 0.000000 0.000000
vn 0.000000 -0.000000 -1.000000
vn 1.000000 0.000000 0.000000
vn 1.000000 0.000000 0.000000
vn 1.000000 0.000000 0.000000
vn 0.000000 1.000000 -0.000000
vn 0.000000 0.610964 0.791658
vn 0.000000 0.610964 -0.791658
vn 0.000000 1.000000 -0.000000
vn 0.000000 0.000000 1.000000
vn -1.000000 0.000000 0.000000
vn -1.000000 0.000000 0.000000
vn -1.000000 0.000000 0.000000
vn 0.000000 -0.000000 -1.000000
vn 1.000000 0.000000 0.000000
vn 1.000000 0.000000 0.000000
vn 1.000000 0.000000 0.000000
vn 0.000000 1.000000 -0.000000
vn 0.000000 0.610964 0.791658
vn 0.000000 0.610964 -0.791658
vn 0.000000 1.000000 -0.000000
vn 0.000000 0.000000 1.000000
vn -1.000000 0.000000 0.000000
vn -1.000000 0.000000 0.000000
vn -1.000000 0.000000 0.000000
vn 0.000000 -0.000000 -1.000000
vn 1.000000 0.000000 0.000000
vn 1.000000 0.000000 0.000000
vn 1.000000 0.000000 0.000000
vn 0.000000 1.000000 -0.000000
vn 0.000000 0.610965 0.791658
vn 0.000000 0.610964 -0.791658
vn 0.000000 1.000000 -0.000000
vn 0.000000 -0.611941 -0.790904
vn -0.000001 -0.590883 0.806757
vn -0.000000 -0.586483 -0.809962
vn 0.000000 -0.590884 0.806757
vn 0.000000 -0.586482 -0.809962
vn 0.000000 -0.590883 0.806757
vn -0.995915 0.000000 0.090297
vn -0.995282 0.000000 0.097029
vn -0.995282 0.000000 0.097029
vn 0.995319 -0.004357 0.096551
vn 0.995282 0.000000 0.097030
vn 0.995282 0.000000 0.097029
vn 0.000000 -0.999946 0.010411
vn 0.000000 -0.585878 0.810399
vn 0.000000 -0.593510 -0.804827
vn 0.999985 0.000000 0.005464
vn 0.999981 0.000350 0.006113
vn -0.999985 -0.000246 0.005461
vn -0.999981 0.000349 0.006113
vn 0.999945 0.010494 -0.000000
vn 0.000000 -0.019299 0.999814
vn 0.000000 0.010493 -0.999945
vn 0.000000 0.010494 0.999945
vn -0.999945 0.010494 -0.000000
vn 0.000000 0.000000 1.000000
vn -0.999814 -0.019300 0.000000
vn 0.999814 -0.019300 0.000000
vn 0.000000 -0.019300 -0.999814
vn 0.000000 0.107105 0.994248
vn 0.000000 -0.000000 -1.000000
vn 0.000000 -1.000000 0.000000
vn -1.000000 0.000000 0.000000
vn 1.000000 0.000000 0.000000
vn 0.000000 0.107105 -0.994248
vn -1.000000 0.000000 0.000000
vn 0.000000 -0.000000 -1.000000
vn 1.000000 0.000000 0.000000
vn 0.000000 0.000000 1.000000
vn 0.000000 0.142416 0.989807
vn 0.000000 1.000000 -0.000000
vn 0.000000 -1.000000 0.000000
vn 0.000000 0.004257 -0.999991
vn -0.832280 -0.554356 0.000000
vn 0.959740 0.280890 -0.000000
vn -1.000000 0.000000 0.000000
vn 0.000000 -0.000000 -1.000000
vn 1.000000 0.000000 0.000000
vn 0.000000 0.000000 1.000000
vn 0.000000 0.019185 0.999816
vn 0.000000 1.000000 -0.000000
vn 0.000000 -1.000000 0.000000
vn 0.000000 0.127892 -0.991788
vn -0.832280 -0.554355 0.000000
vn 0.959740 0.280891 -0.000000
f 1/1/1 2/2/2 3/3/3
f 4/4/4 5/5/5 6/6/6
f 7/7/7 8/8/8 9/9/9
f 10/10/10 11/11/11 12/12/12
f 13/13/13 14/14/14 15/15/15
f 16/16/16 17/17/17 18/18/18
f 19/19/19 20/20/20 21/21/21
f 22/22/22 23/23/23 24/24/24
f 25/25/25 26/26/26 27/27/27
f 28/28/28 29/29/29 30/30/30
f 31/31/31 32/32/32 33/33/33
f 34/34/34 35/35/35 36/36/36
f 37/37/37 38/38/38 39/39/39
f 40/40/40 41/41/41 42/42/42
f 43/43/43 44/44/44 45/45/45
f 46/46/46 47/47/47 48/48/48
f 49/49/49 50/50/50 51/51/51
f 52/52/52 53/53/53 54/54/54
f 55/55/55 56/56/56 53/53/53
f 56/56/56 57/57/57 58/58/58
f 59/59/59 60/60/60 61/61/61
f 61/61/61 62/62/62 63/63/63
f 62/62/62 64/64/64 63/63/63
f 65/65/65 66/66/66 67/67/67
f 68/68/68 69/69/69 70/70/70
f 71/71/71 72/72/72 69/69/69
f 73/73/73 74/74/74 75/75/75
f 76/76/76 77/77/77 78/78/78
f 79/79/79 80/80/80 81/81/81
f 82/82/82 83/83/83 84/84/84
f 85/85/85 86/86/86 87/87/87
f 58/58/58 88/88/88 89/89/89
f 89/89/89 90/90/90 91/91/91
f 91/91/91 92/92/92 93/93/93
f 93/93/93 94/94/94 95/95/95
f 95/95/95 96/96/96 97/97/97
f 98/98/98 99/99/99 64/64/64
f 100/100/100 101/101/101 99/99/99
f 102/102/102 103/103/103 101/101/101
f 104/104/104 105/105/105 103/103/103
f 106/106/106 107/107/107 105/105/105
f 108/108/108 109/109/109 110/110/110
f 111/111/111 112/112/112 113/113/113
f 114/114/114 115/115/115 116/116/116
f 117/117/117 118/118/118 119/119/119
f 120/120/120 121/121/121 122/122/122
f 123/123/123 124/124/124 125/125/125
f 96/96/96 39/39/39 97/97/97
f 107/107/107 126/126/126 34/34/34
f 127/127/127 128/128/128 129/129/129
f 130/130/130 131/131/131 132/132/132
f 133/133/133 134/134/134 135/135/135
f 136/136/136 137/137/137 138/138/138
f 139/139/139 140/140/140 141/141/141
f 142/142/142 143/143/143 144/144/144
f 145/145/145 146/146/146 147/147/147
f 148/148/148 149/149/149 150/150/150
f 151/151/151 150/150/150 146/146/146
f 137/137/137 152/152/152 153/153/153
f 132/132/132 154/154/154 130/130/130
f 155/155/155 156/156/156 157/157/157
f 152/152/152 158/158/158 153/153/153
f 159/159/159 160/160/160 161/161/161
f 154/154/154 162/162/162 163/163/163
f 164/164/164 165/165/165 166/166/166
f 167/167/167 168/168/168 169/169/169
f 170/170/170 171/171/171 172/172/172
f 173/173/173 174/174/174 175/175/175
f 176/176/176 177/177/177 178/178/178
f 179/179/179 180/180/180 181/181/181
f 182/182/182 183/183/183 184/184/184
f 185/185/185 186/186/186 187/187/187
f 188/188/188 189/189/189 190/190/190
f 191/191/191 192/192/192 193/193/193
f 194/194/194 195/195/195 196/196/196
f 197/197/197 198/198/198 199/199/199
f 200/200/200 201/201/201 198/198/198
f 202/202/202 203/203/203 204/204/204
f 205/205/205 206/206/206 207/207/207
f 207/207/207 208/208/208 209/209/209
f 210/210/210 211/211/211 212/212/212
f 213/213/213 214/214/214 215/215/215
f 216/216/216 217/217/217 218/218/218
f 219/219/219 220/220/220 221/221/221
f 222/222/222 223/223/223 224/224/224
f 225/225/225 226/226/226 227/227/227
f 228/228/228 229/229/229 230/230/230
f 231/231/231 232/232/232 233/233/233
f 234/234/234 235/235/235 236/236/236
f 237/237/237 238/238/238 239/239/239
f 240/240/240 241/241/241 242/242/242
f 243/243/243 244/244/244 245/245/245
f 246/246/246 247/247/247 248/248/248
f 249/249/249 250/250/250 251/251/251
f 252/252/252 253/253/253 254/254/254
f 255/255/255 256/256/256 257/257/257
f 258/258/258 259/259/259 260/260/260
f 261/261/261 262/262/262 263/263/263
f 264/264/264 265/265/265 266/266/266
f 258/258/258 267/267/267 268/268/268
f 269/269/269 270/270/270 271/271/271
f 272/272/272 273/273/273 274/274/274
f 275/275/275 276/276/276 277/277/277
f 278/278/278 279/279/279 280/280/280
f 281/281/281 282/282/282 283/283/283
f 284/284/284 285/285/285 286/286/286
f 287/287/287 288/288/288 289/289/289
f 290/290/290 291/291/291 292/292/292
f 293/293/293 294/294/294 295/295/295
f 296/296/296 297/297/297 298/298/298
f 299/299/299 300/300/300 301/301/301
f 302/302/302 303/303/303 304/304/304
f 305/305/305 306/306/306 307/307/307
f 308/308/308 309/309/309 310/310/310
f 311/311/311 312/312/312 313/313/313
f 314/314/314 315/315/315 316/316/316
f 317/317/317 318/318/318 319/319/319
f 320/320/320 321/321/321 322/322/322
f 323/323/323 324/324/324 325/325/325
f 326/326/326 327/327/327 328/328/328
f 329/329/329 330/330/330 331/331/331
f 332/332/332 333/333/333 334/334/334
f 335/335/335 336/336/336 337/337/337
f 338/338/338 339/339/339 340/340/340
f 341/341/341 342/342/342 343/343/343
f 344/344/344 345/345/345 346/346/346
f 347/347/347 348/348/348 349/349/349
f 350/350/350 351/351/351 352/352/352
f 353/353/353 354/354/354 355/355/355
f 356/356/356 357/357/357 358/358/358
f 359/359/359 360/360/360 361/361/361
f 362/362/362 363/363/363 364/364/364
f 365/365/365 366/366/366 367/367/367
f 368/368/368 369/369/369 370/370/370
f 371/371/371 372/372/372 373/373/373
f 374/374/374 375/375/375 376/376/376
f 377/377/377 378/378/378 379/379/379
f 380/380/380 381/381/381 382/382/382
f 383/383/383 384/384/384 385/385/385
f 386/386/386 387/387/387 388/388/388
f 389/389/389 390/390/390 391/391/391
f 392/392/392 393/393/393 394/394/394
f 395/395/395 396/396/396 397/397/397
f 398/398/398 399/399/399 400/400/400
f 401/401/401 402/402/402 403/403/403
f 404/404/404 405/405/405 406/406/406
f 407/407/407 408/408/408 409/409/409
f 410/410/410 411/411/411 412/412/412
f 413/413/413 414/414/414 415/415/415
f 416/416/416 417/417/417 418/418/418
f 419/419/419 420/420/420 421/421/421
f 422/422/422 423/423/423 424/424/424
f 425/425/425 426/426/426 427/427/427
f 428/428/428 429/429/429 430/430/430
f 431/431/431 432/432/432 433/433/433
f 434/434/434 435/435/435 436/436/436
f 437/437/437 438/438/438 439/439/439
f 438/438/438 440/440/440 441/441/441
f 440/440/440 442/442/442 441/441/441
f 442/442/442 443/443/443 444/444/444
f 443/443/443 445/445/445 444/444/444
f 445/445/445 234/234/234 236/236/236
f 446/446/446 447/447/447 448/448/448
f 447/447/447 449/449/449 448/448/448
f 449/449/449 450/450/450 451/451/451
f 450/450/450 452/452/452 451/451/451
f 452/452/452 453/453/453 454/454/454
f 453/453/453 231/231/231 454/454/454
f 455/455/455 456/456/456 457/457/457
f 458/458/458 459/459/459 456/456/456
f 460/460/460 461/461/461 459/459/459
f 462/462/462 463/463/463 461/461/461
f 464/464/464 465/465/465 463/463/463
f 466/466/466 219/219/219 465/465/465
f 467/467/467 468/468/468 469/469/469
f 470/470/470 471/471/471 468/468/468
f 472/472/472 227/227/227 471/471/471
f 473/473/473 474/474/474 475/475/475
f 476/476/476 477/477/477 478/478/478
f 479/479/479 480/480/480 481/481/481
f 482/482/482 483/483/483 484/484/484
f 483/483/483 485/485/485 484/484/484
f 485/485/485 216/216/216 218/218/218
f 486/486/486 487/487/487 488/488/488
f 487/487/487 489/489/489 488/488/488
f 489/489/489 210/210/210 212/212/212
f 490/490/490 491/491/491 492/492/492
f 493/493/493 494/494/494 495/495/495
f 496/496/496 492/492/492 497/497/497
f 498/498/498 499/499/499 500/500/500
f 501/501/501 502/502/502 503/503/503
f 504/504/504 505/505/505 499/499/499
f 506/506/506 507/507/507 11/11/11
f 508/508/508 509/509/509 494/494/494
f 510/510/510 511/511/511 512/512/512
f 513/513/513 514/514/514 515/515/515
f 516/516/516 517/517/517 518/518/518
f 519/519/519 520/520/520 521/521/521
f 522/522/522 523/523/523 524/524/524
f 525/525/525 526/526/526 527/527/527
f 528/528/528 529/529/529 530/530/530
f 531/531/531 532/532/532 533/533/533
f 534/534/534 535/535/535 536/536/536
f 537/537/537 538/538/538 526/526/526
f 539/539/539 540/540/540 529/529/529
f 541/541/541 542/542/542 543/543/543
f 544/544/544 545/545/545 546/546/546
f 547/547/547 548/548/548 549/549/549
f 550/550/550 551/551/551 552/552/552
f 553/553/553 554/554/554 555/555/555
f 556/556/556 557/557/557 558/558/558
f 559/559/559 560/560/560 561/561/561
f 562/562/562 563/563/563 564/564/564
f 548/548/548 565/565/565 549/549/549
f 566/566/566 567/567/567 568/568/568
f 569/569/569 570/570/570 571/571/571
f 572/572/572 573/573/573 574/574/574
f 575/575/575 576/576/576 577/577/577
f 578/578/578 579/579/579 580/580/580
f 581/581/581 582/582/582 583/583/583
f 584/584/584 585/585/585 586/586/586
f 587/587/587 588/588/588 589/589/589
f 590/590/590 591/591/591 592/592/592
f 593/593/593 594/594/594 595/595/595
f 596/596/596 597/597/597 598/598/598
f 599/599/599 600/600/600 601/601/601
f 1/1/1 602/602/602 2/2/2
f 4/4/4 603/603/603 5/5/5
f 7/7/7 604/604/604 8/8/8
f 10/10/10 506/506/506 11/11/11
f 13/13/13 605/605/605 14/14/14
f 16/16/16 606/606/606 17/17/17
f 19/19/19 607/607/607 20/20/20
f 22/22/22 608/608/608 23/23/23
f 25/25/25 609/609/609 26/26/26
f 28/28/28 610/610/610 29/29/29
f 31/31/31 611/611/611 32/32/32
f 34/34/34 126/126/126 35/35/35
f 37/37/37 612/612/612 38/38/38
f 40/40/40 613/613/613 41/41/41
f 43/43/43 614/614/614 44/44/44
f 46/46/46 615/615/615 47/47/47
f 49/49/49 616/616/616 50/50/50
f 52/52/52 55/55/55 53/53/53
f 55/55/55 617/617/617 56/56/56
f 56/56/56 617/617/617 57/57/57
f 59/59/59 618/618/618 60/60/60
f 61/61/61 60/60/60 62/62/62
f 62/62/62 98/98/98 64/64/64
f 65/65/65 619/619/619 66/66/66
f 68/68/68 71/71/71 69/69/69
f 71/71/71 620/620/620 72/72/72
f 73/73/73 621/621/621 74/74/74
f 76/76/76 622/622/622 77/77/77
f 79/79/79 623/623/623 80/80/80
f 82/82/82 624/624/624 83/83/83
f 85/85/85 625/625/625 86/86/86
f 58/58/58 57/57/57 88/88/88
f 89/89/89 88/88/88 90/90/90
f 91/91/91 90/90/90 92/92/92
f 93/93/93 92/92/92 94/94/94
f 95/95/95 94/94/94 96/96/96
f 98/98/98 100/100/100 99/99/99
f 100/100/100 102/102/102 101/101/101
f 102/102/102 104/104/104 103/103/103
f 104/104/104 106/106/106 105/105/105
f 106/106/106 626/626/626 107/107/107
f 108/108/108 627/627/627 109/109/109
f 111/111/111 628/628/628 112/112/112
f 114/114/114 629/629/629 115/115/115
f 117/117/117 630/630/630 118/118/118
f 120/120/120 631/631/631 121/121/121
f 123/123/123 632/632/632 124/124/124
f 96/96/96 37/37/37 39/39/39
f 107/107/107 626/626/626 126/126/126
f 127/127/127 633/633/633 128/128/128
f 130/130/130 634/634/634 131/131/131
f 133/133/133 635/635/635 134/134/134
f 136/136/136 636/636/636 137/137/137
f 139/139/139 637/637/637 140/140/140
f 142/142/142 638/638/638 143/143/143
f 145/145/145 151/151/151 146/146/146
f 148/148/148 639/639/639 149/149/149
f 151/151/151 148/148/148 150/150/150
f 137/137/137 636/636/636 152/152/152
f 132/132/132 640/640/640 154/154/154
f 155/155/155 641/641/641 156/156/156
f 152/152/152 642/642/642 158/158/158
f 159/159/159 643/643/643 160/160/160
f 154/154/154 640/640/640 162/162/162
f 164/164/164 644/644/644 165/165/165
f 167/167/167 645/645/645 168/168/168
f 170/170/170 646/646/646 171/171/171
f 173/173/173 647/647/647 174/174/174
f 176/176/176 648/648/648 177/177/177
f 179/179/179 649/649/649 180/180/180
f 182/182/182 650/650/650 183/183/183
f 185/185/185 651/651/651 186/186/186
f 188/188/188 652/652/652 189/189/189
f 191/191/191 653/653/653 192/192/192
f 194/194/194 654/654/654 195/195/195
f 197/197/197 200/200/200 198/198/198
f 200/200/200 655/655/655 201/201/201
f 202/202/202 656/656/656 203/203/203
f 205/205/205 657/657/657 206/206/206
f 207/207/207 206/206/206 208/208/208
f 210/210/210 658/658/658 211/211/211
f 213/213/213 659/659/659 214/214/214
f 216/216/216 660/660/660 217/217/217
f 219/219/219 661/661/661 220/220/220
f 222/222/222 662/662/662 223/223/223
f 225/225/225 663/663/663 226/226/226
f 228/228/228 664/664/664 229/229/229
f 231/231/231 665/665/665 232/232/232
f 234/234/234 666/666/666 235/235/235
f 237/237/237 667/667/667 238/238/238
f 240/240/240 668/668/668 241/241/241
f 243/243/243 669/669/669 244/244/244
f 246/246/246 670/670/670 247/247/247
f 249/249/249 671/671/671 250/250/250
f 252/252/252 672/672/672 253/253/253
f 257/257/257 673/673/673 674/674/674
f 674/674/674 675/675/675 257/257/257
f 675/675/675 255/255/255 257/257/257
f 258/258/258 676/676/676 259/259/259
f 261/261/261 677/677/677 678/678/678
f 678/678/678 262/262/262 261/261/261
f 262/262/262 679/679/679 263/263/263
f 264/264/264 680/680/680 265/265/265
f 258/258/258 260/260/260 267/267/267
f 269/269/269 681/681/681 270/270/270
f 272/272/272 682/682/682 273/273/273
f 275/275/275 683/683/683 276/276/276
f 280/280/280 684/684/684 685/685/685
f 685/685/685 686/686/686 280/280/280
f 686/686/686 278/278/278 280/280/280
f 281/281/281 687/687/687 282/282/282
f 286/286/286 688/688/688 689/689/689
f 689/689/689 690/690/690 286/286/286
f 690/690/690 284/284/284 286/286/286
f 287/287/287 691/691/691 288/288/288
f 290/290/290 692/692/692 291/291/291
f 293/293/293 693/693/693 294/294/294
f 296/296/296 694/694/694 297/297/297
f 299/299/299 695/695/695 300/300/300
f 304/304/304 696/696/696 697/697/697
f 697/697/697 698/698/698 304/304/304
f 698/698/698 302/302/302 304/304/304
f 305/305/305 699/699/699 306/306/306
f 310/310/310 700/700/700 701/701/701
f 701/701/701 702/702/702 310/310/310
f 702/702/702 308/308/308 310/310/310
f 311/311/311 703/703/703 312/312/312
f 314/314/314 704/704/704 315/315/315
f 317/317/317 705/705/705 318/318/318
f 320/320/320 706/706/706 321/321/321
f 323/323/323 707/707/707 324/324/324
f 328/328/328 708/708/708 709/709/709
f 709/709/709 710/710/710 328/328/328
f 710/710/710 326/326/326 328/328/328
f 329/329/329 711/711/711 330/330/330
f 334/334/334 712/712/712 713/713/713
f 713/713/713 714/714/714 334/334/334
f 714/714/714 332/332/332 334/334/334
f 335/335/335 715/715/715 336/336/336
f 338/338/338 716/716/716 339/339/339
f 341/341/341 717/717/717 342/342/342
f 344/344/344 718/718/718 345/345/345
f 347/347/347 719/719/719 348/348/348
f 352/352/352 720/720/720 721/721/721
f 721/721/721 722/722/722 352/352/352
f 722/722/722 350/350/350 352/352/352
f 353/353/353 723/723/723 354/354/354
f 358/358/358 724/724/724 725/725/725
f 725/725/725 726/726/726 358/358/358
f 726/726/726 356/356/356 358/358/358
f 359/359/359 727/727/727 360/360/360
f 362/362/362 728/728/728 363/363/363
f 365/365/365 729/729/729 366/366/366
f 368/368/368 730/730/730 369/369/369
f 371/371/371 731/731/731 372/372/372
f 376/376/376 732/732/732 733/733/733
f 733/733/733 734/734/734 376/376/376
f 734/734/734 374/374/374 376/376/376
f 377/377/377 735/735/735 378/378/378
f 382/382/382 736/736/736 737/737/737
f 737/737/737 738/738/738 382/382/382
f 738/738/738 380/380/380 382/382/382
f 383/383/383 739/739/739 384/384/384
f 386/386/386 740/740/740 387/387/387
f 389/389/389 741/741/741 390/390/390
f 392/392/392 742/742/742 393/393/393
f 395/395/395 743/743/743 396/396/396
f 400/400/400 744/744/744 745/745/745
f 745/745/745 746/746/746 400/400/400
f 746/746/746 398/398/398 400/400/400
f 401/401/401 747/747/747 402/402/402
f 406/406/406 748/748/748 749/749/749
f 749/749/749 750/750/750 406/406/406
f 750/750/750 404/404/404 406/406/406
f 407/407/407 751/751/751 408/408/408
f 410/410/410 752/752/752 411/411/411
f 413/413/413 753/753/753 414/414/414
f 416/416/416 754/754/754 417/417/417
f 419/419/419 755/755/755 420/420/420
f 422/422/422 756/756/756 423/423/423
f 425/425/425 757/757/757 426/426/426
f 428/428/428 758/758/758 429/429/429
f 431/431/431 759/759/759 432/432/432
f 434/434/434 760/760/760 435/435/435
f 437/437/437 761/761/761 438/438/438
f 438/438/438 761/761/761 440/440/440
f 440/440/440 762/762/762 442/442/442
f 442/442/442 762/762/762 443/443/443
f 443/443/443 763/763/763 445/445/445
f 445/445/445 763/763/763 234/234/234
f 446/446/446 764/764/764 447/447/447
f 447/447/447 765/765/765 449/449/449
f 449/449/449 765/765/765 450/450/450
f 450/450/450 766/766/766 452/452/452
f 452/452/452 766/766/766 453/453/453
f 453/453/453 665/665/665 231/231/231
f 455/455/455 458/458/458 456/456/456
f 458/458/458 460/460/460 459/459/459
f 460/460/460 462/462/462 461/461/461
f 462/462/462 464/464/464 463/463/463
f 464/464/464 466/466/466 465/465/465
f 466/466/466 661/661/661 219/219/219
f 467/467/467 470/470/470 468/468/468
f 470/470/470 472/472/472 471/471/471
f 472/472/472 225/225/225 227/227/227
f 473/473/473 767/767/767 474/474/474
f 476/476/476 768/768/768 477/477/477
f 479/479/479 769/769/769 480/480/480
f 482/482/482 770/770/770 483/483/483
f 483/483/483 771/771/771 485/485/485
f 485/485/485 771/771/771 216/216/216
f 486/486/486 772/772/772 487/487/487
f 487/487/487 773/773/773 489/489/489
f 489/489/489 773/773/773 210/210/210
f 490/490/490 774/774/774 491/491/491
f 493/493/493 508/508/508 494/494/494
f 496/496/496 490/490/490 492/492/492
f 498/498/498 504/504/504 499/499/499
f 501/501/501 775/775/775 502/502/502
f 504/504/504 776/776/776 505/505/505
f 506/506/506 777/777/777 507/507/507
f 508/508/508 778/778/778 509/509/509
f 510/510/510 779/779/779 511/511/511
f 513/513/513 780/780/780 514/514/514
f 516/516/516 781/781/781 517/517/517
f 519/519/519 782/782/782 520/520/520
f 522/522/522 783/783/783 523/523/523
f 525/525/525 537/537/537 526/526/526
f 528/528/528 539/539/539 529/529/529
f 531/531/531 784/784/784 532/532/532
f 534/534/534 785/785/785 535/535/535
f 537/537/537 786/786/786 538/538/538
f 539/539/539 787/787/787 540/540/540
f 541/541/541 788/788/788 542/542/542
f 544/544/544 789/789/789 545/545/545
f 547/547/547 790/790/790 548/548/548
f 550/550/550 791/791/791 551/551/551
f 553/553/553 792/792/792 554/554/554
f 556/556/556 793/793/793 557/557/557
f 559/559/559 794/794/794 560/560/560
f 562/562/562 795/795/795 563/563/563
f 548/548/548 796/796/796 565/565/565
f 566/566/566 797/797/797 567/567/567
f 569/569/569 798/798/798 570/570/570
f 572/572/572 799/799/799 573/573/573
f 575/575/575 800/800/800 576/576/576
f 578/578/578 801/801/801 579/579/579
f 581/581/581 802/802/802 582/582/582
f 584/584/584 803/803/803 585/585/585
f 587/587/587 804/804/804 588/588/588
f 590/590/590 805/805/805 591/591/591
f 593/593/593 806/806/806 594/594/594
f 596/596/596 807/807/807 597/597/597
f 599/599/599 808/808/808 600/600/600
