# Cube -- imported by tools/import_asset_pack.py from kanisternieskon.fbx
o __pending__
v -0.039196 0.170292 0.106553
v -0.041258 0.174901 0.045016
v -0.039196 0.170292 0.042766
v 0.039196 0.170292 0.106553
v -0.039196 0.105255 0.106553
v 0.039196 0.105255 0.106553
v -0.039196 0.170292 -0.028269
v -0.039196 0.105255 -0.106553
v -0.039196 0.105255 -0.028269
v 0.039196 -0.089856 -0.106553
v -0.040247 -0.094634 -0.109409
v -0.039196 -0.089856 -0.106553
v 0.039196 0.170292 0.042766
v 0.039196 0.105255 0.106553
v 0.039196 0.105255 0.042766
v -0.039196 0.170292 -0.106553
v 0.039196 0.105255 -0.106553
v -0.039196 0.105255 -0.106553
v -0.040247 -0.094634 0.109409
v 0.041368 -0.148789 0.112457
v 0.040247 -0.094634 0.109409
v -0.039196 -0.089856 0.106553
v 0.040247 -0.094634 0.109409
v 0.039196 -0.089856 0.106553
v -0.039196 -0.089856 -0.106553
v -0.040247 -0.094634 -0.029027
v -0.039196 -0.089856 -0.028269
v 0.039196 -0.089856 0.106553
v 0.040247 -0.094634 0.043912
v 0.039196 -0.089856 0.042766
v -0.041368 -0.148789 -0.029836
v -0.038458 -0.152201 -0.104546
v -0.038458 -0.152201 -0.027737
v -0.040247 -0.094634 -0.109409
v -0.041368 -0.148789 -0.029836
v -0.040247 -0.094634 -0.029027
v 0.040247 -0.094634 0.109409
v 0.041368 -0.148789 0.045136
v 0.040247 -0.094634 0.043912
v 0.040247 -0.094634 -0.109409
v -0.041368 -0.148789 -0.112457
v -0.040247 -0.094634 -0.109409
v 0.038458 -0.152201 0.041961
v 0.031850 -0.147957 0.095202
v 0.031850 -0.147957 0.038407
v 0.041368 -0.148789 0.045136
v 0.038458 -0.152201 0.104546
v 0.038458 -0.152201 0.041961
v 0.041368 -0.148789 -0.112457
v -0.038458 -0.152201 -0.104546
v -0.041368 -0.148789 -0.112457
v -0.041368 -0.148789 0.112457
v 0.038458 -0.152201 0.104546
v 0.041368 -0.148789 0.112457
v -0.041258 0.174901 0.045016
v -0.039315 0.181353 0.106875
v -0.039315 0.181353 0.042895
v 0.039196 0.170292 -0.106553
v 0.041258 0.174901 -0.029756
v 0.039196 0.170292 -0.028269
v -0.039196 0.170292 -0.106553
v 0.041258 0.174901 -0.112157
v 0.039196 0.170292 -0.106553
v 0.039196 0.170292 0.106553
v -0.041258 0.174901 0.112157
v -0.039196 0.170292 0.106553
v -0.039315 0.181353 -0.106875
v 0.039315 0.189486 -0.106875
v 0.039315 0.181353 -0.106875
v 0.041258 0.174901 0.112157
v -0.039315 0.181353 0.106875
v -0.041258 0.174901 0.112157
v -0.041258 0.174901 -0.112157
v 0.039315 0.181353 -0.106875
v 0.041258 0.174901 -0.112157
v 0.041258 0.174901 -0.029756
v 0.039315 0.181353 -0.106875
v 0.039315 0.181353 -0.028355
v 0.039315 0.189486 -0.106875
v 0.039315 0.228284 -0.053155
v 0.039315 0.189486 -0.028355
v 0.039315 0.181353 -0.106875
v 0.039315 0.181353 -0.028355
v -0.039315 0.181353 0.106875
v -0.039315 0.189486 0.042895
v -0.039315 0.181353 0.042895
v 0.039315 0.181353 0.106875
v -0.039315 0.189486 0.106875
v -0.039315 0.181353 0.106875
v -0.039315 0.260398 0.006276
v -0.039315 0.265892 0.016687
v -0.039315 0.267799 -0.020172
v -0.039315 0.228284 0.039042
v -0.039315 0.228284 -0.004578
v 0.039315 0.189486 0.106875
v -0.039315 0.228284 0.039042
v -0.039315 0.189486 0.106875
v -0.039315 0.189486 -0.106875
v 0.039315 0.228284 -0.106689
v -0.039315 0.267799 -0.020172
v 0.039315 0.265892 0.016687
v 0.039315 0.267799 -0.020172
v 0.039315 0.253356 0.024139
v -0.039315 0.265892 0.016687
v -0.039315 0.253356 0.024139
v 0.039315 0.260398 -0.078067
v 0.039315 0.253356 -0.106534
v 0.039315 0.265892 -0.098917
v -0.039315 0.260398 -0.078067
v -0.039315 0.265892 -0.098917
v -0.039315 0.253356 -0.106534
v 0.039315 0.228284 -0.106689
v 0.039315 0.233778 -0.064942
v 0.039315 0.240820 -0.106612
v -0.039315 0.228284 -0.106689
v 0.039315 0.240820 -0.106612
v -0.039315 0.240820 -0.106612
v 0.039315 0.253356 -0.106534
v 0.039315 0.228284 0.039042
v -0.039315 0.240820 0.031590
v -0.039315 0.228284 0.039042
v 0.039315 0.240820 0.031590
v -0.039315 0.234207 0.019391
v -0.039315 0.253356 0.024139
v -0.039315 0.240820 -0.106612
v -0.039315 0.253356 -0.106534
v -0.039315 0.233778 -0.064942
v 0.039315 0.260398 -0.078067
v -0.039315 0.260398 -0.078067
v -0.039315 0.228284 -0.106689
v -0.039315 0.233778 -0.064942
v -0.039315 0.228284 -0.053155
v 0.039315 0.234207 0.019391
v 0.039315 0.253356 0.024139
v 0.039315 0.240820 0.031590
v -0.039315 0.233778 -0.064942
v 0.039315 0.234207 0.019391
v 0.039315 0.233778 -0.064942
v 0.039315 0.228284 0.039042
v 0.039315 0.228284 -0.004578
v 0.039315 0.260398 0.006276
v 0.039315 0.265892 0.016687
v 0.039315 0.267799 -0.020172
v -0.039315 0.267799 -0.061220
v 0.039315 0.267799 -0.020172
v 0.039315 0.267799 -0.061220
v -0.039315 0.189486 -0.106875
v -0.039315 0.189486 -0.028355
v -0.039315 0.267799 -0.061220
v -0.039315 0.181353 -0.028355
v -0.039315 0.181353 -0.106875
v 0.039315 0.181353 0.042895
v 0.039315 0.189486 0.106875
v 0.039315 0.181353 0.106875
v 0.039315 0.189486 0.042895
v 0.041258 0.174901 0.045016
v 0.039315 0.181353 0.106875
v 0.041258 0.174901 0.112157
v 0.039315 0.181353 0.042895
v 0.039196 0.170292 0.106553
v 0.041258 0.174901 0.045016
v 0.041258 0.174901 0.112157
v 0.039196 0.170292 0.042766
v -0.041258 0.174901 -0.029756
v -0.039315 0.181353 -0.106875
v -0.041258 0.174901 -0.112157
v -0.039315 0.181353 -0.028355
v 0.041368 -0.148789 -0.029836
v 0.038458 -0.152201 -0.104546
v 0.041368 -0.148789 -0.112457
v 0.038458 -0.152201 -0.027737
v -0.038458 -0.152201 0.041961
v -0.031850 -0.147957 0.095202
v -0.038458 -0.152201 0.104546
v -0.038458 -0.152201 0.104546
v 0.031850 -0.147957 0.095202
v 0.038458 -0.152201 0.104546
v 0.040247 -0.094634 -0.109409
v 0.041368 -0.148789 -0.029836
v 0.041368 -0.148789 -0.112457
v 0.040247 -0.094634 -0.029027
v -0.040247 -0.094634 0.109409
v -0.041368 -0.148789 0.045136
v -0.041368 -0.148789 0.112457
v -0.040247 -0.094634 0.043912
v -0.041368 -0.148789 0.045136
v -0.038458 -0.152201 0.104546
v -0.041368 -0.148789 0.112457
v -0.038458 -0.152201 0.041961
v 0.039196 -0.089856 -0.106553
v 0.040247 -0.094634 -0.029027
v 0.040247 -0.094634 -0.109409
v 0.039196 -0.089856 -0.028269
v -0.039196 -0.089856 0.106553
v -0.040247 -0.094634 0.043912
v -0.040247 -0.094634 0.109409
v -0.039196 -0.089856 0.042766
v 0.039196 0.170292 -0.106553
v 0.039196 0.105255 -0.028269
v 0.039196 0.105255 -0.106553
v 0.039196 0.170292 -0.028269
v -0.039196 0.170292 0.106553
v -0.039196 0.105255 0.042766
v -0.039196 0.105255 0.106553
v -0.039196 0.170292 0.042766
v -0.039196 0.170292 -0.106553
v -0.041258 0.174901 -0.029756
v -0.041258 0.174901 -0.112157
v -0.039196 0.170292 -0.028269
v 0.039315 0.260398 -0.078067
v -0.039315 0.260398 0.006276
v -0.039315 0.260398 -0.078067
v 0.039315 0.260398 0.006276
v -0.039315 0.234207 0.019391
v -0.039315 0.260398 0.006276
v 0.000000 0.241971 0.062157
v 0.017763 0.208301 0.050339
v 0.000000 0.212117 0.044048
v 0.017763 0.238155 0.068447
v 0.025121 0.199089 0.065526
v 0.017763 0.208301 0.050339
v 0.025121 0.228942 0.083635
v 0.017763 0.189876 0.080714
v 0.025121 0.199089 0.065526
v 0.017763 0.219730 0.098823
v 0.000000 0.186060 0.087005
v 0.017763 0.189876 0.080714
v 0.000000 0.186060 0.087005
v -0.017763 0.219730 0.098823
v -0.017763 0.189876 0.080714
v -0.017763 0.189876 0.080714
v -0.025121 0.228942 0.083635
v -0.025121 0.199089 0.065526
v 0.000000 0.215914 0.105114
v -0.014164 0.221596 0.095745
v -0.017763 0.219730 0.098823
v -0.025121 0.199089 0.065526
v -0.017763 0.238155 0.068447
v -0.017763 0.208301 0.050339
v -0.017763 0.208301 0.050339
v 0.000000 0.241971 0.062157
v 0.000000 0.212117 0.044048
v -0.017763 0.189876 0.080714
v -0.025121 0.199089 0.065526
v -0.017763 0.208301 0.050339
v 0.014164 0.236288 0.071525
v 0.020031 0.216227 0.075922
v 0.020031 0.228942 0.083635
v 0.000000 0.241971 0.062157
v -0.014164 0.236288 0.071525
v 0.000000 0.239331 0.066509
v 0.014164 0.236288 0.071525
v 0.017763 0.238155 0.068447
v 0.017763 0.219730 0.098823
v 0.020031 0.228942 0.083635
v 0.014164 0.221596 0.095745
v -0.020031 0.228942 0.083635
v -0.025121 0.228942 0.083635
v 0.000000 0.218554 0.100762
v -0.017763 0.238155 0.068447
v 0.025121 0.228942 0.083635
v 0.000000 0.226616 0.058796
v -0.008764 0.220773 0.068429
v 0.000000 0.222656 0.065325
v -0.014164 0.236288 0.071525
v -0.020031 0.216227 0.075922
v -0.014164 0.223573 0.063812
v -0.014164 0.221596 0.095745
v 0.000000 0.205839 0.093049
v -0.014164 0.208882 0.088033
v 0.020031 0.228942 0.083635
v 0.014164 0.208882 0.088033
v 0.014164 0.221596 0.095745
v 0.000000 0.239331 0.066509
v 0.014164 0.223573 0.063812
v 0.014164 0.236288 0.071525
v 0.000000 0.239331 0.066509
v -0.014164 0.223573 0.063812
v 0.000000 0.226616 0.058796
v -0.020031 0.228942 0.083635
v -0.014164 0.208882 0.088033
v -0.020031 0.216227 0.075922
v 0.014164 0.221596 0.095745
v 0.000000 0.205839 0.093049
v 0.000000 0.218554 0.100762
v 0.008764 0.211682 0.083416
v 0.012395 0.224788 0.081115
v 0.008764 0.220242 0.088608
v -0.014164 0.208882 0.088033
v -0.012395 0.216227 0.075922
v -0.020031 0.216227 0.075922
v 0.000000 0.205839 0.093049
v 0.008764 0.211682 0.083416
v 0.000000 0.209799 0.086520
v 0.014164 0.223573 0.063812
v 0.012395 0.216227 0.075922
v 0.020031 0.216227 0.075922
v -0.014164 0.223573 0.063812
v -0.008764 0.211682 0.083416
v 0.014164 0.208882 0.088033
v 0.008764 0.220773 0.068429
v -0.008764 0.229333 0.073621
v -0.008778 0.227115 0.082527
v -0.006207 0.230334 0.077220
v 0.008764 0.220773 0.068429
v 0.000000 0.231216 0.070517
v 0.008764 0.229333 0.073621
v -0.008764 0.220773 0.068429
v 0.000000 0.231216 0.070517
v 0.000000 0.222656 0.065325
v -0.008764 0.211682 0.083416
v -0.012395 0.224788 0.081115
v -0.012395 0.216227 0.075922
v 0.000000 0.209799 0.086520
v 0.008764 0.220242 0.088608
v 0.000000 0.218359 0.091712
v 0.012395 0.216227 0.075922
v 0.008764 0.229333 0.073621
v 0.012395 0.224788 0.081115
v -0.012395 0.216227 0.075922
v -0.008764 0.229333 0.073621
v -0.008764 0.220773 0.068429
v 0.000000 0.209799 0.086520
v -0.008764 0.220242 0.088608
v -0.008764 0.211682 0.083416
v 0.000000 0.222562 0.090032
v 0.006207 0.223896 0.087834
v 0.006207 0.230334 0.077220
v 0.000000 0.218359 0.091712
v -0.006207 0.223896 0.087834
v -0.008764 0.220242 0.088608
v 0.008764 0.220242 0.088608
v 0.008778 0.227115 0.082527
v 0.006207 0.223896 0.087834
v 0.000000 0.231216 0.070517
v 0.006207 0.230334 0.077220
v 0.008764 0.229333 0.073621
v 0.000000 0.231216 0.070517
v -0.006207 0.230334 0.077220
v 0.000000 0.231668 0.075021
v -0.008764 0.220242 0.088608
v -0.008778 0.227115 0.082527
v -0.012395 0.224788 0.081115
v 0.000000 0.218359 0.091712
v 0.006207 0.223896 0.087834
v 0.000000 0.222562 0.090032
v 0.008764 0.229333 0.073621
v 0.008778 0.227115 0.082527
v 0.012395 0.224788 0.081115
v 0.031850 -0.147957 0.038407
v -0.031850 -0.147957 0.095202
v -0.031850 -0.147957 0.038407
v 0.031850 -0.147957 -0.094544
v -0.031850 -0.147957 -0.024841
v -0.031850 -0.147957 -0.094544
v 0.031850 -0.147957 -0.024841
v -0.038458 -0.152201 -0.027737
v -0.031850 -0.147957 -0.094544
v -0.031850 -0.147957 -0.024841
v 0.038458 -0.152201 -0.027737
v 0.031850 -0.147957 -0.094544
v 0.038458 -0.152201 -0.104546
v 0.038458 -0.152201 -0.104546
v -0.031850 -0.147957 -0.094544
v -0.038458 -0.152201 -0.104546
v 0.031850 -0.147957 -0.024841
v -0.031850 -0.147957 0.038407
v -0.039196 -0.024819 0.042766
v -0.039196 -0.089856 -0.028269
v -0.039196 -0.089856 0.042766
v -0.039196 0.040218 0.042766
v -0.039196 -0.024819 -0.028269
v -0.039196 0.040218 -0.028269
v -0.039196 -0.024819 0.106553
v -0.039196 -0.089856 0.106553
v -0.039196 0.040218 0.106553
v 0.039196 -0.024819 -0.028269
v 0.039196 -0.089856 0.042766
v 0.039196 -0.089856 -0.028269
v 0.039196 0.040218 -0.028269
v 0.039196 -0.024819 0.042766
v 0.039196 0.040218 0.042766
v 0.039196 -0.024819 -0.106553
v 0.039196 -0.089856 -0.106553
v 0.039196 0.040218 -0.106553
v -0.039196 -0.024819 -0.106553
v 0.039196 -0.089856 -0.106553
v -0.039196 -0.089856 -0.106553
v -0.039196 0.040218 -0.106553
v 0.039196 -0.024819 -0.106553
v 0.039196 0.040218 -0.106553
v 0.039196 -0.089856 0.106553
v 0.039196 -0.024819 0.106553
v 0.039196 0.040218 0.106553
v -0.039196 -0.089856 -0.106553
v -0.039196 -0.024819 -0.106553
v -0.039196 0.040218 -0.106553
v 0.039196 -0.024819 0.106553
v -0.039196 -0.089856 0.106553
v 0.039196 -0.089856 0.106553
v 0.039196 0.040218 0.106553
v -0.039196 -0.024819 0.106553
v -0.039196 0.040218 0.106553
v 0.039315 0.265892 -0.098917
v -0.039315 0.253356 -0.106534
v -0.039315 0.265892 -0.098917
v -0.039315 0.265892 -0.098917
v 0.039315 0.267799 -0.061220
v 0.039315 0.265892 -0.098917
v -0.041258 0.174901 0.112157
v -0.039196 0.170292 0.106553
v -0.039196 0.170292 -0.106553
v 0.040247 -0.094634 -0.109409
v 0.039196 0.170292 0.106553
v 0.039196 0.170292 -0.106553
v -0.041368 -0.148789 0.112457
v -0.040247 -0.094634 0.109409
v -0.040247 -0.094634 -0.109409
v 0.040247 -0.094634 0.109409
v -0.041368 -0.148789 -0.112457
v -0.041368 -0.148789 -0.112457
v 0.041368 -0.148789 0.112457
v 0.041368 -0.148789 -0.112457
v 0.038458 -0.152201 0.104546
v 0.041368 -0.148789 0.112457
v 0.038458 -0.152201 -0.104546
v -0.038458 -0.152201 0.104546
v -0.041258 0.174901 0.112157
v 0.041258 0.174901 -0.112157
v -0.041258 0.174901 -0.112157
v 0.041258 0.174901 0.112157
v 0.039315 0.181353 0.106875
v -0.039315 0.181353 -0.106875
v 0.041258 0.174901 -0.112157
v -0.039315 0.189486 0.106875
v 0.039315 0.189486 0.106875
v 0.039315 0.228284 0.039042
v -0.039315 0.265892 0.016687
v 0.039315 0.265892 0.016687
v 0.039315 0.267799 -0.061220
v -0.039315 0.253356 -0.106534
v -0.039315 0.240820 0.031590
v 0.039315 0.233778 -0.064942
v -0.039315 0.234207 0.019391
v -0.039315 0.267799 -0.020172
v -0.031850 -0.147957 0.095202
v 0.039315 0.260398 0.006276
v 0.039315 0.234207 0.019391
v 0.017763 0.238155 0.068447
v 0.025121 0.228942 0.083635
v 0.017763 0.219730 0.098823
v 0.000000 0.215914 0.105114
v 0.000000 0.215914 0.105114
v -0.017763 0.219730 0.098823
v -0.025121 0.228942 0.083635
v -0.017763 0.238155 0.068447
v 0.000000 0.212117 0.044048
v 0.000000 0.186060 0.087005
v 0.017763 0.208301 0.050339
v 0.017763 0.189876 0.080714
v 0.025121 0.199089 0.065526
v 0.014164 0.223573 0.063812
v -0.020031 0.228942 0.083635
v 0.000000 0.218554 0.100762
v 0.020031 0.216227 0.075922
v 0.000000 0.226616 0.058796
v -0.014164 0.236288 0.071525
v -0.014164 0.221596 0.095745
v 0.014164 0.208882 0.088033
v 0.012395 0.216227 0.075922
v -0.012395 0.224788 0.081115
v 0.000000 0.222656 0.065325
v -0.008764 0.229333 0.073621
v -0.008764 0.220242 0.088608
v 0.008764 0.211682 0.083416
v 0.008764 0.220773 0.068429
v -0.012395 0.224788 0.081115
v 0.000000 0.218359 0.091712
v 0.008778 0.227115 0.082527
v 0.000000 0.231668 0.075021
v -0.006207 0.230334 0.077220
v -0.008778 0.227115 0.082527
v -0.006207 0.223896 0.087834
v 0.000000 0.222562 0.090032
v 0.012395 0.224788 0.081115
v 0.000000 0.231668 0.075021
v -0.008764 0.229333 0.073621
v -0.006207 0.223896 0.087834
v 0.008764 0.220242 0.088608
v 0.006207 0.230334 0.077220
v 0.031850 -0.147957 0.095202
v -0.038458 -0.152201 -0.104546
v 0.031850 -0.147957 -0.094544
v 0.039315 0.253356 -0.106534
v -0.039315 0.267799 -0.061220
vt 0.307966 0.985548
vt 0.384216 0.992489
vt 0.386960 0.985548
vt 0.585906 0.142144
vt 0.632585 0.406076
vt 0.632585 0.142144
vt 0.585906 0.595387
vt 0.632589 0.692341
vt 0.632589 0.595387
vt 0.194233 0.691599
vt 0.197713 0.424130
vt 0.194233 0.427667
vt 0.301067 0.320506
vt 0.347750 0.399506
vt 0.347750 0.320506
vt 0.007511 0.427667
vt 0.054192 0.691599
vt 0.054192 0.427667
vt 0.830034 0.695878
vt 0.868963 0.421097
vt 0.830034 0.424873
vt 0.251657 0.695374
vt 0.255909 0.427906
vt 0.251657 0.431442
vt 0.772637 0.692341
vt 0.776102 0.596325
vt 0.772637 0.595387
vt 0.487799 0.399506
vt 0.491264 0.321926
vt 0.487799 0.320506
vt 0.183727 0.992489
vt 0.276217 0.982691
vt 0.181097 0.982691
vt 0.776102 0.695878
vt 0.815012 0.597327
vt 0.776102 0.596325
vt 0.491264 0.403043
vt 0.530173 0.323441
vt 0.491264 0.321926
vt 0.197713 0.695136
vt 0.236635 0.420355
vt 0.197713 0.424130
vt 0.094784 0.723731
vt 0.028887 0.745980
vt 0.099222 0.745980
vt 0.090882 0.713933
vt 0.017278 0.723731
vt 0.094784 0.723731
vt 0.286045 0.713933
vt 0.276217 0.982691
vt 0.286045 0.992489
vt 0.007511 0.992489
vt 0.017278 0.723731
vt 0.007511 0.713933
vt 0.490122 0.699654
vt 0.563427 0.693112
vt 0.486469 0.693112
vt 0.571877 0.721616
vt 0.476813 0.714676
vt 0.474930 0.721616
vt 0.571877 0.985548
vt 0.578859 0.714676
vt 0.571877 0.721616
vt 0.307966 0.721616
vt 0.301067 0.992489
vt 0.307966 0.985548
vt 0.921191 0.727760
vt 0.915353 0.992489
vt 0.921191 0.992489
vt 0.570884 0.421840
vt 0.563427 0.693112
vt 0.570884 0.699654
vt 0.301067 0.699654
vt 0.306318 0.428382
vt 0.301067 0.421840
vt 0.400184 0.421840
vt 0.306318 0.428382
vt 0.400766 0.428382
vt 0.920927 0.141346
vt 0.893079 0.207878
vt 0.920927 0.238594
vt 0.926765 0.141346
vt 0.926765 0.238594
vt 0.849694 0.141346
vt 0.843856 0.220585
vt 0.849694 0.220585
vt 0.551033 0.142089
vt 0.545195 0.406818
vt 0.551033 0.406818
vt 0.792956 0.265938
vt 0.789013 0.253044
vt 0.787644 0.298694
vt 0.816007 0.225357
vt 0.816007 0.279381
vt 0.854482 0.727760
vt 0.766256 0.992489
vt 0.854482 0.992489
vt 0.915353 0.727760
vt 0.887502 0.992489
vt 0.688273 0.992489
vt 0.732935 0.727760
vt 0.688273 0.727760
vt 0.744042 0.727760
vt 0.732935 0.992489
vt 0.744042 0.992489
vt 0.870028 0.177025
vt 0.875083 0.141769
vt 0.866085 0.151202
vt 0.792956 0.370397
vt 0.789013 0.396220
vt 0.798011 0.405653
vt 0.893079 0.141576
vt 0.889135 0.193281
vt 0.884081 0.141673
vt 0.887502 0.727760
vt 0.878503 0.992489
vt 0.878503 0.727760
vt 0.869504 0.992489
vt 0.766256 0.727760
vt 0.755149 0.992489
vt 0.766256 0.992489
vt 0.755149 0.727760
vt 0.811756 0.249696
vt 0.798011 0.243815
vt 0.807009 0.405749
vt 0.798011 0.405653
vt 0.108877 0.140604
vt 0.129216 0.405333
vt 0.129216 0.140604
vt 0.816007 0.405845
vt 0.812064 0.354141
vt 0.816007 0.339544
vt 0.888828 0.297726
vt 0.875083 0.303607
vt 0.884081 0.312835
vt 0.108877 0.140604
vt 0.007511 0.405333
vt 0.108877 0.405333
vt 0.893079 0.322064
vt 0.893079 0.268041
vt 0.870028 0.281483
vt 0.866085 0.294378
vt 0.864716 0.248728
vt 0.638899 0.992489
vt 0.688273 0.727760
vt 0.638899 0.727760
vt 0.843856 0.406076
vt 0.843856 0.308828
vt 0.787644 0.349532
vt 0.849694 0.308828
vt 0.849694 0.406076
vt 0.926765 0.326837
vt 0.920927 0.406076
vt 0.926765 0.406076
vt 0.920927 0.326837
vt 0.490122 0.421840
vt 0.563427 0.428382
vt 0.570884 0.421840
vt 0.486469 0.428382
vt 0.307966 0.721616
vt 0.384216 0.714676
vt 0.301067 0.714676
vt 0.386960 0.721616
vt 0.400184 0.699654
vt 0.306318 0.693112
vt 0.301067 0.699654
vt 0.400766 0.693112
vt 0.183727 0.713933
vt 0.276217 0.723731
vt 0.286045 0.713933
vt 0.181097 0.723731
vt 0.094784 0.982691
vt 0.028887 0.960442
vt 0.017278 0.982691
vt 0.017278 0.982691
vt 0.028887 0.745980
vt 0.017278 0.723731
vt 0.491264 0.132038
vt 0.530173 0.230589
vt 0.530173 0.128262
vt 0.491264 0.231591
vt 0.776102 0.424873
vt 0.815012 0.504475
vt 0.815012 0.421097
vt 0.776102 0.505990
vt 0.090882 0.992489
vt 0.017278 0.982691
vt 0.007511 0.992489
vt 0.094784 0.982691
vt 0.487799 0.135574
vt 0.491264 0.231591
vt 0.491264 0.132038
vt 0.487799 0.232529
vt 0.772637 0.428410
vt 0.776102 0.505990
vt 0.776102 0.424873
vt 0.772637 0.507410
vt 0.301067 0.135574
vt 0.347750 0.232529
vt 0.347750 0.135574
vt 0.301067 0.232529
vt 0.585906 0.428410
vt 0.632589 0.507410
vt 0.632589 0.428410
vt 0.585906 0.507410
vt 0.571877 0.985548
vt 0.476813 0.992489
vt 0.578859 0.992489
vt 0.474931 0.985548
vt 0.248688 0.140604
vt 0.144238 0.405333
vt 0.248688 0.405333
vt 0.267475 0.406818
vt 0.286045 0.142089
vt 0.267475 0.142089
vt 0.610278 0.067316
vt 0.585906 0.007511
vt 0.588535 0.067316
vt 0.674232 0.118261
vt 0.692187 0.096103
vt 0.674232 0.087242
vt 0.910701 0.530498
vt 0.913968 0.555270
vt 0.932859 0.530498
vt 0.891810 0.555270
vt 0.906143 0.615076
vt 0.913968 0.555270
vt 0.906143 0.615076
vt 0.891810 0.674881
vt 0.913968 0.674881
vt 0.913968 0.674881
vt 0.910701 0.699654
vt 0.932859 0.699654
vt 0.936212 0.904878
vt 0.954832 0.859301
vt 0.952498 0.846749
vt 0.707209 0.096103
vt 0.725163 0.118261
vt 0.725163 0.087242
vt 0.585906 0.127122
vt 0.610278 0.067316
vt 0.588535 0.067316
vt 0.913968 0.674881
vt 0.932859 0.699654
vt 0.951750 0.674881
vt 0.956851 0.290947
vt 0.951225 0.271194
vt 0.941787 0.271194
vt 0.991816 0.912520
vt 0.986183 0.863610
vt 0.986183 0.911746
vt 0.973197 0.958097
vt 0.975530 0.970649
vt 0.936212 0.965246
vt 0.954832 0.975512
vt 0.941846 0.953788
vt 0.973197 0.841886
vt 0.975530 0.824909
vt 0.941846 0.905652
vt 0.991816 0.852152
vt 0.952498 0.992489
vt 0.941787 0.192406
vt 0.958274 0.219926
vt 0.950239 0.191245
vt 0.956851 0.386323
vt 0.951225 0.406076
vt 0.966288 0.386323
vt 0.625300 0.031746
vt 0.636657 0.079434
vt 0.634560 0.031746
vt 0.740185 0.121275
vt 0.752032 0.111157
vt 0.740185 0.105310
vt 0.963090 0.338635
vt 0.966288 0.290947
vt 0.956851 0.290947
vt 0.963090 0.338635
vt 0.966288 0.386323
vt 0.972527 0.338635
vt 0.279322 0.121221
vt 0.267475 0.111102
vt 0.267475 0.127067
vt 0.625300 0.127122
vt 0.636657 0.079434
vt 0.627396 0.079434
vt 0.934150 0.444237
vt 0.937117 0.432015
vt 0.927796 0.444237
vt 0.986125 0.234449
vt 0.969638 0.230702
vt 0.973139 0.256172
vt 0.986125 0.186313
vt 0.969638 0.158793
vt 0.977673 0.187474
vt 0.941787 0.144270
vt 0.958274 0.148017
vt 0.954773 0.122547
vt 0.954773 0.238757
vt 0.977673 0.217260
vt 0.973139 0.139961
vt 0.950239 0.161459
vt 0.889351 0.503702
vt 0.900433 0.503254
vt 0.893120 0.494915
vt 0.651679 0.068106
vt 0.659210 0.097614
vt 0.657913 0.068106
vt 0.651679 0.127122
vt 0.659210 0.097614
vt 0.652976 0.097614
vt 0.934150 0.503253
vt 0.937117 0.515476
vt 0.943470 0.515476
vt 0.930289 0.473745
vt 0.927796 0.444237
vt 0.923935 0.473745
vt 0.545195 0.117188
vt 0.553171 0.123131
vt 0.553171 0.113252
vt 0.795620 0.116445
vt 0.787644 0.122388
vt 0.795620 0.126324
vt 0.930289 0.473745
vt 0.927796 0.503253
vt 0.934150 0.503253
vt 0.908913 0.473292
vt 0.905113 0.452542
vt 0.891259 0.453160
vt 0.570106 0.377310
vt 0.566055 0.398208
vt 0.568693 0.406818
vt 0.906285 0.443872
vt 0.897800 0.444204
vt 0.905113 0.452542
vt 0.883985 0.474404
vt 0.891259 0.453160
vt 0.886722 0.444744
vt 0.883985 0.474404
vt 0.893120 0.494915
vt 0.889320 0.474166
vt 0.908913 0.502829
vt 0.900433 0.503254
vt 0.899677 0.515476
vt 0.570106 0.377310
vt 0.566055 0.356412
vt 0.567056 0.377310
vt 0.886722 0.444744
vt 0.897800 0.444204
vt 0.895959 0.432097
vt 0.099222 0.745980
vt 0.028887 0.960442
vt 0.099222 0.960442
vt 0.263870 0.745980
vt 0.177549 0.960442
vt 0.263870 0.960442
vt 0.177549 0.745980
vt 0.181097 0.982691
vt 0.263870 0.960442
vt 0.177549 0.960442
vt 0.181097 0.723731
vt 0.263870 0.745980
vt 0.276217 0.723731
vt 0.276217 0.723731
vt 0.263870 0.960442
vt 0.276217 0.982691
vt 0.177549 0.745980
vt 0.099222 0.960442
vt 0.725954 0.507410
vt 0.772637 0.595387
vt 0.772637 0.507410
vt 0.679271 0.507410
vt 0.725954 0.595387
vt 0.679271 0.595387
vt 0.725954 0.428410
vt 0.772637 0.428410
vt 0.679271 0.428410
vt 0.441116 0.232529
vt 0.487799 0.320506
vt 0.487799 0.232529
vt 0.394433 0.232529
vt 0.441116 0.320506
vt 0.394433 0.320506
vt 0.441116 0.135574
vt 0.487799 0.135574
vt 0.394433 0.135574
vt 0.147553 0.427667
vt 0.194233 0.691599
vt 0.194233 0.427667
vt 0.100872 0.427667
vt 0.147553 0.691599
vt 0.100872 0.691599
vt 0.487799 0.399506
vt 0.441116 0.399506
vt 0.394433 0.399506
vt 0.772637 0.692341
vt 0.725954 0.692341
vt 0.679271 0.692341
vt 0.725943 0.142144
vt 0.772622 0.406076
vt 0.772622 0.142144
vt 0.679264 0.142144
vt 0.725943 0.406076
vt 0.679264 0.406076
vt 0.270931 0.698911
vt 0.280061 0.434182
vt 0.270931 0.434182
vt 0.593881 0.992489
vt 0.638899 0.727760
vt 0.593881 0.727760
vt 0.301067 0.992489
vt 0.585906 0.406076
vt 0.585906 0.692341
vt 0.197713 0.695136
vt 0.301067 0.399506
vt 0.007511 0.691599
vt 0.868963 0.699654
vt 0.255909 0.698911
vt 0.776102 0.695878
vt 0.491264 0.403043
vt 0.286045 0.992489
vt 0.815012 0.699654
vt 0.530173 0.406818
vt 0.236635 0.698911
vt 0.017278 0.723731
vt 0.007511 0.713933
vt 0.276217 0.723731
vt 0.017278 0.982691
vt 0.570884 0.699654
vt 0.578859 0.714676
vt 0.578859 0.992489
vt 0.301067 0.714676
vt 0.563427 0.428382
vt 0.306318 0.693112
vt 0.301067 0.421840
vt 0.843856 0.141346
vt 0.545195 0.142089
vt 0.766256 0.727760
vt 0.732935 0.992489
vt 0.732935 0.727760
vt 0.864716 0.197890
vt 0.869504 0.727760
vt 0.807009 0.234586
vt 0.108877 0.405333
vt 0.007511 0.140604
vt 0.688273 0.992489
vt 0.028887 0.960442
vt 0.144238 0.140604
vt 0.286045 0.406818
vt 0.607648 0.007511
vt 0.692187 0.127122
vt 0.891810 0.555270
vt 0.883985 0.615076
vt 0.883985 0.615076
vt 0.891810 0.674881
vt 0.707209 0.127122
vt 0.607648 0.127122
vt 0.959575 0.615076
vt 0.906143 0.615076
vt 0.951750 0.555270
vt 0.913968 0.555270
vt 0.932859 0.530498
vt 0.966288 0.290947
vt 0.941787 0.406076
vt 0.627396 0.079434
vt 0.752032 0.127122
vt 0.972527 0.338635
vt 0.956851 0.386323
vt 0.279322 0.105255
vt 0.634560 0.127122
vt 0.943470 0.432015
vt 0.899677 0.515476
vt 0.652976 0.097614
vt 0.657913 0.127122
vt 0.927796 0.503253
vt 0.934150 0.444237
vt 0.545195 0.127067
vt 0.787644 0.112509
vt 0.923935 0.473745
vt 0.897800 0.444204
vt 0.889320 0.474166
vt 0.893120 0.494915
vt 0.900433 0.503254
vt 0.906975 0.494297
vt 0.567056 0.377310
vt 0.895959 0.432097
vt 0.889320 0.474166
vt 0.889351 0.503702
vt 0.906975 0.494297
vt 0.568693 0.347802
vt 0.891259 0.453160
vt 0.028887 0.745980
vt 0.276217 0.982691
vt 0.263870 0.745980
vt 0.280061 0.698911
vt 0.638899 0.992489
vn -0.912837 -0.408325 0.000000
vn -0.912837 -0.408325 0.000000
vn -0.912837 -0.408325 0.000000
vn 0.000000 0.000000 1.000000
vn 0.000000 0.000000 1.000000
vn 0.000000 0.000000 1.000000
vn -1.000000 0.000000 0.000000
vn -1.000000 0.000000 0.000000
vn -1.000000 0.000000 0.000000
vn 0.000000 0.513002 -0.858387
vn 0.000000 0.512995 -0.858391
vn 0.000000 0.512995 -0.858391
vn 1.000000 0.000000 0.000000
vn 1.000000 0.000000 0.000000
vn 1.000000 0.000000 0.000000
vn 0.000000 -0.000000 -1.000000
vn 0.000000 -0.000000 -1.000000
vn 0.000000 -0.000000 -1.000000
vn 0.000000 0.056201 0.998420
vn 0.000000 0.056202 0.998419
vn 0.000000 0.056202 0.998419
vn 0.000000 0.513003 0.858387
vn 0.000000 0.512996 0.858391
vn 0.000000 0.512996 0.858391
vn -0.976677 0.214715 -0.000000
vn -0.976677 0.214715 -0.000000
vn -0.976677 0.214715 -0.000000
vn 0.976677 0.214716 -0.000000
vn 0.976677 0.214715 -0.000000
vn 0.976677 0.214715 -0.000000
vn -0.760863 -0.648913 0.000000
vn -0.760862 -0.648914 0.000000
vn -0.760863 -0.648912 0.000000
vn -0.999786 0.020702 -0.000000
vn -0.999786 0.020702 -0.000000
vn -0.999786 0.020702 -0.000000
vn 0.999786 0.020702 -0.000000
vn 0.999786 0.020702 -0.000000
vn 0.999786 0.020702 -0.000000
vn 0.000000 0.056201 -0.998420
vn 0.000000 0.056201 -0.998419
vn 0.000000 0.056201 -0.998420
vn -0.540424 -0.841393 0.000000
vn -0.540423 -0.841393 0.000000
vn -0.540424 -0.841393 0.000000
vn 0.760862 -0.648913 0.000000
vn 0.760863 -0.648913 0.000000
vn 0.760862 -0.648913 0.000000
vn 0.000000 -0.918230 -0.396048
vn 0.000000 -0.918229 -0.396050
vn 0.000000 -0.918229 -0.396050
vn 0.000000 -0.918230 0.396048
vn 0.000000 -0.918229 0.396051
vn 0.000000 -0.918229 0.396051
vn -0.957522 0.288359 -0.000000
vn -0.957522 0.288359 -0.000000
vn -0.957522 0.288359 -0.000000
vn 0.912837 -0.408324 0.000000
vn 0.912837 -0.408325 0.000000
vn 0.912837 -0.408324 0.000000
vn 0.000000 -0.772370 -0.635173
vn 0.000000 -0.772371 -0.635172
vn 0.000000 -0.772371 -0.635172
vn 0.000000 -0.772369 0.635174
vn 0.000000 -0.772371 0.635172
vn 0.000000 -0.772371 0.635172
vn 0.000000 -0.000000 -1.000000
vn 0.000000 0.002396 -0.999997
vn 0.000000 -0.000000 -1.000000
vn 0.000000 0.633461 0.773775
vn 0.000000 0.633463 0.773773
vn 0.000000 0.633463 0.773773
vn 0.000000 0.633461 -0.773775
vn 0.000000 0.633462 -0.773773
vn 0.000000 0.633463 -0.773773
vn 0.957522 0.288359 -0.000000
vn 0.957522 0.288359 -0.000000
vn 0.957522 0.288359 -0.000000
vn 1.000000 0.000000 -0.000000
vn 1.000000 0.000001 -0.000000
vn 1.000000 0.000000 -0.000000
vn 1.000000 0.000000 0.000000
vn 1.000000 0.000000 0.000000
vn -1.000000 0.000000 0.000000
vn -1.000000 0.000000 -0.000000
vn -1.000000 0.000000 0.000000
vn 0.000000 0.000000 1.000000
vn 0.000000 0.000000 1.000000
vn 0.000000 0.000000 1.000000
vn -1.000000 -0.000001 -0.000000
vn -1.000000 -0.000000 -0.000001
vn -1.000000 -0.000001 -0.000000
vn -1.000000 0.000000 -0.000000
vn -1.000000 0.000001 -0.000000
vn 0.000000 0.868046 0.496484
vn 0.000000 0.868046 0.496484
vn 0.000000 0.868046 0.496484
vn 0.000000 0.002395 -0.999997
vn 0.000000 0.005493 -0.999985
vn 0.000000 0.998664 0.051672
vn 0.000000 0.998664 0.051672
vn 0.000000 0.998664 0.051672
vn 0.000000 0.510971 0.859598
vn 0.000000 0.510970 0.859598
vn 0.000000 0.510971 0.859598
vn 1.000000 -0.000001 0.000000
vn 0.989941 0.141483 0.000001
vn 1.000000 -0.000000 0.000000
vn -1.000000 -0.000000 0.000000
vn -1.000000 -0.000000 0.000000
vn -0.879663 0.475597 0.000000
vn 1.000000 0.000000 0.000000
vn 1.000000 0.000001 0.000000
vn 1.000000 0.000000 0.000000
vn 0.000000 0.005493 -0.999985
vn 0.000000 0.006192 -0.999981
vn 0.000000 0.006194 -0.999981
vn 0.000000 0.006191 -0.999981
vn 0.000000 0.510970 0.859598
vn 0.000000 0.510971 0.859598
vn 0.000000 0.510970 0.859598
vn 0.000000 0.510971 0.859598
vn -1.000000 0.000001 -0.000000
vn -1.000000 -0.000000 -0.000001
vn -1.000000 0.000000 0.000000
vn -0.981646 0.190710 0.000000
vn 0.000000 0.442231 0.896901
vn 0.000000 0.442232 0.896901
vn 0.000000 0.442231 0.896901
vn -1.000000 0.000000 0.000000
vn -1.000000 0.000001 0.000000
vn -1.000000 0.000001 -0.000000
vn 1.000000 0.000001 -0.000000
vn 1.000000 -0.000000 -0.000001
vn 1.000000 -0.000000 -0.000001
vn 0.000000 0.999987 -0.005084
vn 0.000000 0.999987 -0.005084
vn 0.000000 0.999987 -0.005084
vn 1.000000 0.000000 -0.000000
vn 1.000000 0.000001 0.000000
vn 1.000000 -0.000001 -0.000000
vn 1.000000 -0.000000 -0.000001
vn 1.000000 -0.000001 -0.000000
vn 0.000000 1.000000 -0.000000
vn 0.000000 1.000000 -0.000000
vn 0.000000 1.000000 -0.000000
vn -1.000000 0.000000 -0.000000
vn -1.000000 0.000000 -0.000000
vn -1.000000 -0.000001 0.000000
vn -1.000000 0.000000 0.000000
vn -1.000000 0.000000 0.000000
vn 1.000000 0.000000 0.000000
vn 1.000000 0.000000 -0.000000
vn 1.000000 0.000000 0.000000
vn 1.000000 0.000000 -0.000000
vn 0.957522 0.288359 -0.000000
vn 0.957522 0.288359 -0.000000
vn 0.957522 0.288359 -0.000000
vn 0.957522 0.288359 -0.000000
vn 0.912837 -0.408325 0.000000
vn 0.912837 -0.408325 0.000000
vn 0.912837 -0.408325 0.000000
vn 0.912837 -0.408325 0.000000
vn -0.957522 0.288359 -0.000000
vn -0.957522 0.288359 -0.000000
vn -0.957522 0.288359 -0.000000
vn -0.957522 0.288359 -0.000000
vn 0.760863 -0.648913 0.000000
vn 0.760862 -0.648914 0.000000
vn 0.760862 -0.648914 0.000000
vn 0.760863 -0.648912 0.000000
vn 0.540424 -0.841393 0.000000
vn 0.540423 -0.841393 0.000000
vn 0.540422 -0.841394 0.000000
vn 0.000000 -0.910458 -0.413601
vn 0.000000 -0.910458 -0.413601
vn 0.000000 -0.910458 -0.413601
vn 0.999786 0.020702 -0.000000
vn 0.999786 0.020702 -0.000000
vn 0.999786 0.020702 -0.000000
vn 0.999786 0.020702 -0.000000
vn -0.999786 0.020702 -0.000000
vn -0.999786 0.020702 -0.000000
vn -0.999786 0.020702 -0.000000
vn -0.999786 0.020702 -0.000000
vn -0.760862 -0.648913 0.000000
vn -0.760863 -0.648913 0.000000
vn -0.760863 -0.648912 0.000000
vn -0.760862 -0.648913 0.000000
vn 0.976677 0.214715 -0.000000
vn 0.976677 0.214715 -0.000000
vn 0.976677 0.214715 -0.000000
vn 0.976677 0.214715 -0.000000
vn -0.976677 0.214716 -0.000000
vn -0.976677 0.214715 -0.000000
vn -0.976677 0.214716 -0.000000
vn -0.976677 0.214715 -0.000000
vn 1.000000 0.000000 0.000000
vn 1.000000 0.000000 0.000000
vn 1.000000 0.000000 0.000000
vn 1.000000 0.000000 0.000000
vn -1.000000 0.000000 0.000000
vn -1.000000 0.000000 0.000000
vn -1.000000 0.000000 0.000000
vn -1.000000 0.000000 0.000000
vn -0.912837 -0.408324 0.000000
vn -0.912837 -0.408325 0.000000
vn -0.912837 -0.408324 0.000000
vn -0.912837 -0.408324 0.000000
vn -0.000000 -1.000000 0.000000
vn -0.000000 -1.000000 0.000000
vn 0.000000 -1.000000 0.000000
vn -0.000000 -0.447740 -0.894164
vn -0.000000 -0.447740 -0.894164
vn -0.000000 -0.447740 -0.894164
vn 0.382683 0.479152 -0.789916
vn 0.382683 0.479152 -0.789916
vn 0.382684 0.479152 -0.789915
vn 0.923880 0.198471 -0.327194
vn 0.923880 0.198471 -0.327194
vn 0.923880 0.198471 -0.327194
vn 0.923880 -0.198471 0.327194
vn 0.923880 -0.198471 0.327194
vn 0.923880 -0.198471 0.327193
vn 0.382684 -0.479152 0.789915
vn 0.382683 -0.479152 0.789916
vn 0.382684 -0.479152 0.789915
vn -0.382683 -0.479152 0.789916
vn -0.382684 -0.479152 0.789915
vn -0.382684 -0.479152 0.789915
vn -0.923880 -0.198471 0.327194
vn -0.923880 -0.198471 0.327194
vn -0.923880 -0.198471 0.327193
vn 0.000000 0.854999 0.518630
vn 0.000000 0.854999 0.518630
vn 0.000000 0.854998 0.518630
vn -0.923880 0.198471 -0.327194
vn -0.923880 0.198471 -0.327194
vn -0.923880 0.198471 -0.327194
vn -0.382683 0.479152 -0.789916
vn -0.382683 0.479152 -0.789916
vn -0.382684 0.479152 -0.789915
vn -0.000001 -0.854998 -0.518631
vn -0.000002 -0.854998 -0.518631
vn -0.000001 -0.854998 -0.518631
vn -0.923880 -0.198471 0.327194
vn -0.923879 -0.198472 0.327194
vn -0.923879 -0.198472 0.327194
vn 0.000000 0.854997 0.518633
vn 0.000002 0.854999 0.518630
vn 0.000000 0.854997 0.518633
vn -0.000002 0.854999 0.518630
vn -0.000005 0.854999 0.518630
vn 0.000000 0.854999 0.518630
vn -0.000001 0.854998 0.518631
vn -0.000000 0.854999 0.518630
vn 0.000001 0.854998 0.518631
vn 0.000000 0.854998 0.518631
vn 0.000000 0.854999 0.518630
vn 0.000005 0.854999 0.518630
vn 0.000000 0.854998 0.518631
vn 0.000000 0.854998 0.518632
vn 0.000002 0.854998 0.518631
vn 0.000000 0.854998 0.518632
vn 0.923880 -0.198471 0.327194
vn 0.923879 -0.198472 0.327194
vn 0.923880 -0.198471 0.327194
vn 0.382684 0.479152 -0.789915
vn 0.382683 0.479152 -0.789916
vn 0.382684 0.479152 -0.789915
vn -0.923880 0.198471 -0.327193
vn -0.923880 0.198471 -0.327194
vn -0.923880 0.198471 -0.327194
vn -0.382683 -0.479152 0.789916
vn -0.382683 -0.479152 0.789916
vn -0.382683 -0.479152 0.789916
vn 0.382683 -0.479152 0.789916
vn 0.382683 -0.479152 0.789916
vn 0.382683 -0.479152 0.789916
vn 0.923880 0.198471 -0.327193
vn 0.923880 0.198471 -0.327194
vn 0.923880 0.198471 -0.327193
vn -0.382684 0.479152 -0.789915
vn -0.382683 0.479152 -0.789916
vn -0.382683 0.479153 -0.789916
vn 0.923880 -0.198471 0.327193
vn 0.923880 -0.198470 0.327193
vn 0.923880 -0.198471 0.327193
vn 0.000004 0.854998 0.518631
vn 0.000002 0.854998 0.518631
vn 0.000000 0.854998 0.518631
vn 0.000000 0.854999 0.518630
vn -0.000005 0.854999 0.518630
vn 0.000000 0.854998 0.518631
vn -0.000000 0.854998 0.518631
vn -0.000002 0.854998 0.518631
vn 0.000000 0.854998 0.518631
vn 0.000000 0.854998 0.518631
vn 0.000005 0.854999 0.518630
vn -0.000004 0.854998 0.518631
vn -0.000002 0.854998 0.518631
vn -0.583560 0.788210 0.195406
vn -0.583561 0.788209 0.195405
vn -0.583556 0.788212 0.195406
vn 0.382682 0.479153 -0.789916
vn 0.382683 0.479152 -0.789916
vn 0.382681 0.479153 -0.789916
vn -0.382682 0.479153 -0.789916
vn -0.382683 0.479152 -0.789916
vn -0.382683 0.479152 -0.789916
vn -0.923880 -0.198471 0.327193
vn -0.923880 -0.198470 0.327193
vn -0.923880 -0.198470 0.327192
vn 0.382682 -0.479153 0.789916
vn 0.382683 -0.479151 0.789916
vn 0.382681 -0.479153 0.789916
vn 0.923879 0.198472 -0.327194
vn 0.923879 0.198472 -0.327194
vn 0.923879 0.198471 -0.327194
vn -0.923879 0.198472 -0.327194
vn -0.923879 0.198472 -0.327194
vn -0.923879 0.198471 -0.327194
vn -0.382682 -0.479153 0.789916
vn -0.382683 -0.479151 0.789916
vn -0.382683 -0.479151 0.789917
vn 0.000000 0.854998 0.518631
vn -0.000003 0.854998 0.518632
vn -0.000003 0.854998 0.518631
vn -0.241721 0.360192 0.901018
vn -0.241715 0.360198 0.901017
vn -0.241715 0.360198 0.901017
vn 0.583558 0.537484 0.608745
vn 0.583559 0.537484 0.608744
vn 0.583556 0.537485 0.608746
vn 0.241707 0.965502 -0.096868
vn 0.241715 0.965500 -0.096870
vn 0.241716 0.965500 -0.096870
vn -0.241707 0.965502 -0.096868
vn -0.241715 0.965500 -0.096870
vn -0.241706 0.965503 -0.096867
vn -0.583558 0.537484 0.608745
vn -0.583559 0.537484 0.608744
vn -0.583561 0.537483 0.608743
vn 0.241721 0.360192 0.901018
vn 0.241715 0.360198 0.901017
vn 0.241722 0.360192 0.901018
vn 0.583560 0.788210 0.195406
vn 0.583561 0.788209 0.195405
vn 0.583564 0.788207 0.195405
vn 0.000000 -1.000000 0.000000
vn 0.000000 -1.000000 0.000000
vn 0.000000 -1.000000 0.000000
vn 0.000000 -1.000000 0.000000
vn 0.000000 -1.000000 0.000000
vn 0.000000 -1.000000 0.000000
vn 0.000000 -1.000000 0.000000
vn 0.540425 -0.841392 0.000000
vn 0.540423 -0.841393 0.000000
vn 0.540426 -0.841392 0.000000
vn -0.540425 -0.841392 0.000000
vn -0.540423 -0.841393 0.000000
vn -0.540423 -0.841393 0.000000
vn 0.000000 -0.920532 0.390667
vn 0.000000 -0.920532 0.390666
vn 0.000000 -0.920532 0.390666
vn -0.540426 -0.841392 0.000000
vn 0.540424 -0.841393 0.000000
vn -1.000000 0.000000 0.000000
vn -1.000000 0.000000 0.000000
vn -1.000000 0.000000 0.000000
vn -1.000000 0.000000 0.000000
vn -1.000000 0.000000 0.000000
vn -1.000000 0.000000 0.000000
vn -1.000000 0.000000 0.000000
vn -1.000000 0.000000 0.000000
vn -1.000000 0.000000 0.000000
vn 1.000000 0.000000 0.000000
vn 1.000000 0.000000 0.000000
vn 1.000000 0.000000 0.000000
vn 1.000000 0.000000 0.000000
vn 1.000000 0.000000 0.000000
vn 1.000000 0.000000 0.000000
vn 1.000000 0.000000 0.000000
vn 1.000000 0.000000 0.000000
vn 1.000000 0.000000 0.000000
vn 0.000000 -0.000000 -1.000000
vn 0.000000 -0.000000 -1.000000
vn 0.000000 -0.000000 -1.000000
vn 0.000000 -0.000000 -1.000000
vn 0.000000 -0.000000 -1.000000
vn 0.000000 -0.000000 -1.000000
vn 1.000000 0.000000 0.000000
vn 1.000000 0.000000 0.000000
vn 1.000000 0.000000 0.000000
vn -1.000000 0.000000 0.000000
vn -1.000000 0.000000 0.000000
vn -1.000000 0.000000 0.000000
vn 0.000000 0.000000 1.000000
vn 0.000000 0.000000 1.000000
vn 0.000000 0.000000 1.000000
vn 0.000000 0.000000 1.000000
vn 0.000000 0.000000 1.000000
vn 0.000000 0.000000 1.000000
vn 0.000000 0.519256 -0.854619
vn 0.000000 0.519257 -0.854618
vn 0.000000 0.519257 -0.854618
vn 0.000000 0.998723 -0.050526
vn 0.000000 0.998723 -0.050526
vn 0.000000 0.998723 -0.050526
vn -0.912837 -0.408325 0.000000
vn 0.000000 0.000000 1.000000
vn -1.000000 0.000000 0.000000
vn 0.000000 0.513002 -0.858387
vn 1.000000 0.000000 0.000000
vn 0.000000 -0.000000 -1.000000
vn 0.000000 0.056201 0.998420
vn 0.000000 0.513003 0.858387
vn -0.976677 0.214715 -0.000000
vn 0.976677 0.214716 -0.000000
vn -0.760862 -0.648914 0.000000
vn -0.999786 0.020702 -0.000000
vn 0.999786 0.020702 -0.000000
vn 0.000000 0.056201 -0.998420
vn -0.540422 -0.841394 0.000000
vn 0.760863 -0.648912 0.000000
vn 0.000000 -0.918230 -0.396048
vn 0.000000 -0.918230 0.396048
vn -0.957522 0.288359 -0.000000
vn 0.912837 -0.408324 0.000000
vn 0.000000 -0.772370 -0.635173
vn 0.000000 -0.772369 0.635174
vn 0.000000 0.633461 0.773775
vn 0.000000 0.633461 -0.773775
vn 0.957522 0.288359 -0.000000
vn -1.000000 0.000000 -0.000000
vn 0.000000 0.000000 1.000000
vn 0.000000 0.868046 0.496484
vn 0.000000 0.998664 0.051672
vn 0.000000 0.510970 0.859598
vn 1.000000 -0.000001 0.000000
vn 0.000000 0.006194 -0.999981
vn -1.000000 -0.000000 -0.000000
vn 0.000000 0.442232 0.896901
vn 0.000000 0.999987 -0.005084
vn 0.000000 1.000000 -0.000000
vn 0.000000 -0.910458 -0.413601
vn -0.000000 -1.000000 0.000000
vn -0.000000 -0.447740 -0.894164
vn 0.382682 0.479152 -0.789916
vn 0.923880 0.198471 -0.327194
vn 0.923880 -0.198471 0.327194
vn 0.382682 -0.479153 0.789916
vn -0.382682 -0.479153 0.789916
vn -0.923880 -0.198471 0.327194
vn -0.923880 0.198471 -0.327194
vn -0.382682 0.479152 -0.789916
vn 0.000000 -0.854998 -0.518631
vn 0.000001 -0.854998 -0.518631
vn -0.000002 -0.854998 -0.518631
vn 0.000000 -0.854998 -0.518631
vn 0.000002 -0.854998 -0.518631
vn -0.923880 -0.198471 0.327194
vn 0.923879 -0.198472 0.327194
vn 0.382683 0.479152 -0.789916
vn -0.923880 0.198471 -0.327193
vn -0.382683 -0.479153 0.789916
vn 0.382683 -0.479152 0.789916
vn 0.923880 0.198471 -0.327194
vn -0.382684 0.479152 -0.789915
vn 0.923880 -0.198470 0.327192
vn -0.583564 0.788207 0.195405
vn 0.382683 0.479152 -0.789916
vn -0.382681 0.479153 -0.789916
vn -0.923880 -0.198471 0.327193
vn 0.382683 -0.479151 0.789917
vn 0.923879 0.198471 -0.327194
vn -0.923879 0.198471 -0.327194
vn -0.382681 -0.479153 0.789916
vn -0.000009 0.854998 0.518632
vn 0.000000 0.854999 0.518630
vn 0.000003 0.854998 0.518631
vn 0.000009 0.854998 0.518632
vn 0.000003 0.854998 0.518632
vn -0.241722 0.360192 0.901018
vn 0.583561 0.537483 0.608743
vn 0.241706 0.965503 -0.096867
vn -0.241716 0.965500 -0.096870
vn -0.583556 0.537485 0.608746
vn 0.241715 0.360198 0.901017
vn 0.583556 0.788212 0.195406
vn 0.000000 -1.000000 0.000000
vn 0.540423 -0.841393 0.000000
vn 0.000000 -0.920532 0.390667
vn 0.000000 0.519256 -0.854619
vn 0.000000 0.998723 -0.050526
f 1/1/1 2/2/2 3/3/3
f 4/4/4 5/5/5 6/6/6
f 7/7/7 8/8/8 9/9/9
f 10/10/10 11/11/11 12/12/12
f 13/13/13 14/14/14 15/15/15
f 16/16/16 17/17/17 18/18/18
f 19/19/19 20/20/20 21/21/21
f 22/22/22 23/23/23 24/24/24
f 25/25/25 26/26/26 27/27/27
f 28/28/28 29/29/29 30/30/30
f 31/31/31 32/32/32 33/33/33
f 34/34/34 35/35/35 36/36/36
f 37/37/37 38/38/38 39/39/39
f 40/40/40 41/41/41 42/42/42
f 43/43/43 44/44/44 45/45/45
f 46/46/46 47/47/47 48/48/48
f 49/49/49 50/50/50 51/51/51
f 52/52/52 53/53/53 54/54/54
f 55/55/55 56/56/56 57/57/57
f 58/58/58 59/59/59 60/60/60
f 61/61/61 62/62/62 63/63/63
f 64/64/64 65/65/65 66/66/66
f 67/67/67 68/68/68 69/69/69
f 70/70/70 71/71/71 72/72/72
f 73/73/73 74/74/74 75/75/75
f 76/76/76 77/77/77 78/78/78
f 79/79/79 80/80/80 81/81/81
f 82/82/82 81/81/81 83/83/83
f 84/84/84 85/85/85 86/86/86
f 87/87/87 88/88/88 89/89/89
f 90/90/90 91/91/91 92/92/92
f 85/85/85 93/93/93 94/94/94
f 95/95/95 96/96/96 97/97/97
f 98/98/98 99/99/99 68/68/68
f 100/100/100 101/101/101 102/102/102
f 103/103/103 104/104/104 105/105/105
f 106/106/106 107/107/107 108/108/108
f 109/109/109 110/110/110 111/111/111
f 112/112/112 113/113/113 80/80/80
f 114/114/114 106/106/106 113/113/113
f 115/115/115 116/116/116 99/99/99
f 117/117/117 118/118/118 116/116/116
f 119/119/119 120/120/120 121/121/121
f 122/122/122 105/105/105 120/120/120
f 93/93/93 123/123/123 94/94/94
f 123/123/123 124/124/124 90/90/90
f 125/125/125 109/109/109 126/126/126
f 127/127/127 128/128/128 129/129/129
f 130/130/130 131/131/131 125/125/125
f 94/94/94 131/131/131 132/132/132
f 133/133/133 134/134/134 135/135/135
f 136/136/136 137/137/137 138/138/138
f 139/139/139 133/133/133 135/135/135
f 140/140/140 113/113/113 133/133/133
f 141/141/141 142/142/142 134/134/134
f 106/106/106 143/143/143 141/141/141
f 144/144/144 145/145/145 146/146/146
f 147/147/147 132/132/132 130/130/130
f 148/148/148 94/94/94 132/132/132
f 109/109/109 92/92/92 149/149/149
f 150/150/150 147/147/147 151/151/151
f 86/86/86 148/148/148 150/150/150
f 152/152/152 153/153/153 154/154/154
f 83/83/83 155/155/155 152/152/152
f 155/155/155 139/139/139 153/153/153
f 81/81/81 140/140/140 155/155/155
f 156/156/156 157/157/157 158/158/158
f 76/76/76 159/159/159 156/156/156
f 160/160/160 161/161/161 162/162/162
f 163/163/163 59/59/59 161/161/161
f 164/164/164 165/165/165 166/166/166
f 164/164/164 57/57/57 167/167/167
f 168/168/168 169/169/169 170/170/170
f 168/168/168 48/48/48 171/171/171
f 172/172/172 173/173/173 174/174/174
f 175/175/175 176/176/176 177/177/177
f 178/178/178 179/179/179 180/180/180
f 39/39/39 179/179/179 181/181/181
f 182/182/182 183/183/183 184/184/184
f 185/185/185 35/35/35 183/183/183
f 186/186/186 187/187/187 188/188/188
f 31/31/31 189/189/189 186/186/186
f 190/190/190 191/191/191 192/192/192
f 30/30/30 191/191/191 193/193/193
f 194/194/194 195/195/195 196/196/196
f 197/197/197 26/26/26 195/195/195
f 198/198/198 199/199/199 200/200/200
f 201/201/201 15/15/15 199/199/199
f 202/202/202 203/203/203 204/204/204
f 205/205/205 9/9/9 203/203/203
f 206/206/206 207/207/207 208/208/208
f 3/3/3 207/207/207 209/209/209
f 210/210/210 211/211/211 212/212/212
f 213/213/213 214/214/214 215/215/215
f 216/216/216 217/217/217 218/218/218
f 219/219/219 220/220/220 221/221/221
f 222/222/222 223/223/223 224/224/224
f 225/225/225 226/226/226 227/227/227
f 228/228/228 229/229/229 230/230/230
f 231/231/231 232/232/232 233/233/233
f 234/234/234 235/235/235 236/236/236
f 237/237/237 238/238/238 239/239/239
f 240/240/240 241/241/241 242/242/242
f 243/243/243 244/244/244 245/245/245
f 246/246/246 247/247/247 248/248/248
f 249/249/249 250/250/250 251/251/251
f 249/249/249 252/252/252 253/253/253
f 254/254/254 255/255/255 256/256/256
f 236/236/236 257/257/257 258/258/258
f 234/234/234 256/256/256 259/259/259
f 260/260/260 257/257/257 250/250/250
f 253/253/253 255/255/255 261/261/261
f 262/262/262 263/263/263 264/264/264
f 265/265/265 266/266/266 267/267/267
f 268/268/268 269/269/269 270/270/270
f 271/271/271 272/272/272 273/273/273
f 274/274/274 275/275/275 276/276/276
f 277/277/277 278/278/278 279/279/279
f 280/280/280 281/281/281 282/282/282
f 283/283/283 284/284/284 285/285/285
f 286/286/286 287/287/287 288/288/288
f 289/289/289 290/290/290 291/291/291
f 292/292/292 293/293/293 294/294/294
f 295/295/295 296/296/296 297/297/297
f 298/298/298 290/290/290 263/263/263
f 292/292/292 299/299/299 289/289/289
f 300/300/300 296/296/296 293/293/293
f 262/262/262 301/301/301 295/295/295
f 302/302/302 303/303/303 304/304/304
f 305/305/305 306/306/306 307/307/307
f 308/308/308 309/309/309 310/310/310
f 311/311/311 312/312/312 313/313/313
f 314/314/314 315/315/315 316/316/316
f 317/317/317 318/318/318 319/319/319
f 320/320/320 321/321/321 322/322/322
f 323/323/323 324/324/324 325/325/325
f 326/326/326 327/327/327 328/328/328
f 329/329/329 330/330/330 331/331/331
f 332/332/332 333/333/333 334/334/334
f 335/335/335 336/336/336 337/337/337
f 338/338/338 339/339/339 340/340/340
f 341/341/341 342/342/342 343/343/343
f 344/344/344 345/345/345 346/346/346
f 347/347/347 348/348/348 349/349/349
f 350/350/350 351/351/351 352/352/352
f 353/353/353 354/354/354 355/355/355
f 356/356/356 352/352/352 354/354/354
f 357/357/357 358/358/358 359/359/359
f 360/360/360 361/361/361 362/362/362
f 363/363/363 364/364/364 365/365/365
f 360/360/360 45/45/45 366/366/366
f 357/357/357 367/367/367 172/172/172
f 368/368/368 369/369/369 370/370/370
f 371/371/371 372/372/372 368/368/368
f 203/203/203 373/373/373 371/371/371
f 374/374/374 370/370/370 375/375/375
f 376/376/376 368/368/368 374/374/374
f 204/204/204 371/371/371 376/376/376
f 377/377/377 378/378/378 379/379/379
f 380/380/380 381/381/381 377/377/377
f 199/199/199 382/382/382 380/380/380
f 383/383/383 379/379/379 384/384/384
f 385/385/385 377/377/377 383/383/383
f 200/200/200 380/380/380 385/385/385
f 386/386/386 387/387/387 388/388/388
f 389/389/389 390/390/390 386/386/386
f 18/18/18 391/391/391 389/389/389
f 381/381/381 392/392/392 378/378/378
f 382/382/382 393/393/393 381/381/381
f 15/15/15 394/394/394 382/382/382
f 372/372/372 395/395/395 369/369/369
f 373/373/373 396/396/396 372/372/372
f 9/9/9 397/397/397 373/373/373
f 398/398/398 399/399/399 400/400/400
f 401/401/401 402/402/402 398/398/398
f 6/6/6 403/403/403 401/401/401
f 404/404/404 405/405/405 406/406/406
f 407/407/407 408/408/408 409/409/409
f 1/1/1 410/410/410 2/2/2
f 4/4/4 411/411/411 5/5/5
f 7/7/7 412/412/412 8/8/8
f 10/10/10 413/413/413 11/11/11
f 13/13/13 414/414/414 14/14/14
f 16/16/16 415/415/415 17/17/17
f 19/19/19 416/416/416 20/20/20
f 22/22/22 417/417/417 23/23/23
f 25/25/25 418/418/418 26/26/26
f 28/28/28 419/419/419 29/29/29
f 31/31/31 420/420/420 32/32/32
f 34/34/34 421/421/421 35/35/35
f 37/37/37 422/422/422 38/38/38
f 40/40/40 423/423/423 41/41/41
f 43/43/43 424/424/424 44/44/44
f 46/46/46 425/425/425 47/47/47
f 49/49/49 426/426/426 50/50/50
f 52/52/52 427/427/427 53/53/53
f 55/55/55 428/428/428 56/56/56
f 58/58/58 429/429/429 59/59/59
f 61/61/61 430/430/430 62/62/62
f 64/64/64 431/431/431 65/65/65
f 67/67/67 98/98/98 68/68/68
f 70/70/70 432/432/432 71/71/71
f 73/73/73 433/433/433 74/74/74
f 76/76/76 434/434/434 77/77/77
f 79/79/79 112/112/112 80/80/80
f 82/82/82 79/79/79 81/81/81
f 84/84/84 435/435/435 85/85/85
f 87/87/87 436/436/436 88/88/88
f 90/90/90 124/124/124 91/91/91
f 85/85/85 435/435/435 93/93/93
f 95/95/95 437/437/437 96/96/96
f 98/98/98 115/115/115 99/99/99
f 100/100/100 438/438/438 101/101/101
f 103/103/103 439/439/439 104/104/104
f 108/108/108 440/440/440 106/106/106
f 109/109/109 149/149/149 110/110/110
f 112/112/112 114/114/114 113/113/113
f 114/114/114 107/107/107 106/106/106
f 115/115/115 117/117/117 116/116/116
f 117/117/117 441/441/441 118/118/118
f 119/119/119 122/122/122 120/120/120
f 122/122/122 103/103/103 105/105/105
f 93/93/93 442/442/442 123/123/123
f 123/123/123 442/442/442 124/124/124
f 125/125/125 131/131/131 109/109/109
f 127/127/127 443/443/443 128/128/128
f 130/130/130 132/132/132 131/131/131
f 94/94/94 123/123/123 131/131/131
f 133/133/133 141/141/141 134/134/134
f 136/136/136 444/444/444 137/137/137
f 139/139/139 140/140/140 133/133/133
f 140/140/140 80/80/80 113/113/113
f 141/141/141 143/143/143 142/142/142
f 106/106/106 440/440/440 143/143/143
f 144/144/144 445/445/445 145/145/145
f 147/147/147 148/148/148 132/132/132
f 148/148/148 85/85/85 94/94/94
f 109/109/109 90/90/90 92/92/92
f 150/150/150 148/148/148 147/147/147
f 86/86/86 85/85/85 148/148/148
f 152/152/152 155/155/155 153/153/153
f 83/83/83 81/81/81 155/155/155
f 155/155/155 140/140/140 139/139/139
f 81/81/81 80/80/80 140/140/140
f 156/156/156 159/159/159 157/157/157
f 76/76/76 78/78/78 159/159/159
f 160/160/160 163/163/163 161/161/161
f 163/163/163 60/60/60 59/59/59
f 164/164/164 167/167/167 165/165/165
f 164/164/164 55/55/55 57/57/57
f 168/168/168 171/171/171 169/169/169
f 168/168/168 46/46/46 48/48/48
f 172/172/172 367/367/367 173/173/173
f 175/175/175 446/446/446 176/176/176
f 178/178/178 181/181/181 179/179/179
f 39/39/39 38/38/38 179/179/179
f 182/182/182 185/185/185 183/183/183
f 185/185/185 36/36/36 35/35/35
f 186/186/186 189/189/189 187/187/187
f 31/31/31 33/33/33 189/189/189
f 190/190/190 193/193/193 191/191/191
f 30/30/30 29/29/29 191/191/191
f 194/194/194 197/197/197 195/195/195
f 197/197/197 27/27/27 26/26/26
f 198/198/198 201/201/201 199/199/199
f 201/201/201 13/13/13 15/15/15
f 202/202/202 205/205/205 203/203/203
f 205/205/205 7/7/7 9/9/9
f 206/206/206 209/209/209 207/207/207
f 3/3/3 2/2/2 207/207/207
f 210/210/210 447/447/447 211/211/211
f 213/213/213 448/448/448 214/214/214
f 216/216/216 449/449/449 217/217/217
f 219/219/219 450/450/450 220/220/220
f 222/222/222 451/451/451 223/223/223
f 225/225/225 452/452/452 226/226/226
f 228/228/228 453/453/453 229/229/229
f 231/231/231 454/454/454 232/232/232
f 234/234/234 259/259/259 235/235/235
f 237/237/237 455/455/455 238/238/238
f 240/240/240 456/456/456 241/241/241
f 245/245/245 457/457/457 458/458/458
f 457/457/457 459/459/459 460/460/460
f 459/459/459 461/461/461 460/460/460
f 460/460/460 458/458/458 457/457/457
f 458/458/458 243/243/243 245/245/245
f 246/246/246 462/462/462 247/247/247
f 249/249/249 260/260/260 250/250/250
f 249/249/249 251/251/251 252/252/252
f 254/254/254 261/261/261 255/255/255
f 236/236/236 235/235/235 257/257/257
f 234/234/234 254/254/254 256/256/256
f 260/260/260 258/258/258 257/257/257
f 253/253/253 252/252/252 255/255/255
f 262/262/262 298/298/298 263/263/263
f 265/265/265 463/463/463 266/266/266
f 268/268/268 464/464/464 269/269/269
f 271/271/271 465/465/465 272/272/272
f 274/274/274 466/466/466 275/275/275
f 277/277/277 467/467/467 278/278/278
f 280/280/280 468/468/468 281/281/281
f 283/283/283 469/469/469 284/284/284
f 286/286/286 470/470/470 287/287/287
f 289/289/289 299/299/299 290/290/290
f 292/292/292 300/300/300 293/293/293
f 295/295/295 301/301/301 296/296/296
f 298/298/298 291/291/291 290/290/290
f 292/292/292 294/294/294 299/299/299
f 300/300/300 297/297/297 296/296/296
f 262/262/262 264/264/264 301/301/301
f 302/302/302 471/471/471 303/303/303
f 305/305/305 472/472/472 306/306/306
f 308/308/308 473/473/473 309/309/309
f 311/311/311 474/474/474 312/312/312
f 314/314/314 475/475/475 315/315/315
f 317/317/317 476/476/476 318/318/318
f 320/320/320 477/477/477 321/321/321
f 323/323/323 478/478/478 324/324/324
f 479/479/479 328/328/328 327/327/327
f 328/328/328 480/480/480 326/326/326
f 480/480/480 481/481/481 326/326/326
f 481/481/481 482/482/482 483/483/483
f 326/326/326 481/481/481 483/483/483
f 329/329/329 484/484/484 330/330/330
f 332/332/332 485/485/485 333/333/333
f 335/335/335 486/486/486 336/336/336
f 338/338/338 487/487/487 339/339/339
f 341/341/341 488/488/488 342/342/342
f 344/344/344 489/489/489 345/345/345
f 347/347/347 490/490/490 348/348/348
f 350/350/350 491/491/491 351/351/351
f 353/353/353 356/356/356 354/354/354
f 356/356/356 350/350/350 352/352/352
f 357/357/357 492/492/492 358/358/358
f 360/360/360 366/366/366 361/361/361
f 363/363/363 493/493/493 364/364/364
f 360/360/360 43/43/43 45/45/45
f 357/357/357 359/359/359 367/367/367
f 368/368/368 372/372/372 369/369/369
f 371/371/371 373/373/373 372/372/372
f 203/203/203 9/9/9 373/373/373
f 374/374/374 368/368/368 370/370/370
f 376/376/376 371/371/371 368/368/368
f 204/204/204 203/203/203 371/371/371
f 377/377/377 381/381/381 378/378/378
f 380/380/380 382/382/382 381/381/381
f 199/199/199 15/15/15 382/382/382
f 383/383/383 377/377/377 379/379/379
f 385/385/385 380/380/380 377/377/377
f 200/200/200 199/199/199 380/380/380
f 386/386/386 390/390/390 387/387/387
f 389/389/389 391/391/391 390/390/390
f 18/18/18 17/17/17 391/391/391
f 381/381/381 393/393/393 392/392/392
f 382/382/382 394/394/394 393/393/393
f 15/15/15 14/14/14 394/394/394
f 372/372/372 396/396/396 395/395/395
f 373/373/373 397/397/397 396/396/396
f 9/9/9 8/8/8 397/397/397
f 398/398/398 402/402/402 399/399/399
f 401/401/401 403/403/403 402/402/402
f 6/6/6 5/5/5 403/403/403
f 404/404/404 494/494/494 405/405/405
f 407/407/407 495/495/495 408/408/408
