# Cube -- imported by tools/import_asset_pack.py from Karta.fbx
o __pending__
v 0.028570 -0.001376 0.042791
v 0.027565 0.001376 0.043796
v 0.027565 -0.001376 0.043796
v -0.028570 0.001376 0.042791
v -0.027565 -0.001376 0.043796
v -0.027565 0.001376 0.043796
v 0.024658 0.001376 -0.045000
v -0.026361 -0.001376 -0.045000
v -0.026361 0.001376 -0.045000
v 0.024658 -0.001376 0.045000
v -0.029774 -0.001376 0.039884
v 0.029774 -0.001376 0.039884
v 0.029774 0.001376 0.039884
v 0.029774 -0.001376 -0.039884
v 0.029774 0.001376 -0.039884
v -0.029774 0.001376 -0.041587
v -0.029774 -0.001376 0.039884
v -0.029774 0.001376 0.039884
v -0.024658 0.001376 0.045000
v 0.024658 -0.001376 0.045000
v 0.024658 0.001376 0.045000
v -0.029774 -0.001376 -0.041587
v -0.026361 0.001376 -0.045000
v -0.026361 -0.001376 -0.045000
v -0.029774 0.001376 0.039884
v 0.024658 0.001376 0.045000
v 0.029774 0.001376 0.039884
v 0.028570 -0.001376 -0.042791
v 0.029774 0.001376 -0.039884
v 0.029774 -0.001376 -0.039884
v 0.027565 0.001376 -0.043796
v 0.024658 -0.001376 -0.045000
v 0.024658 0.001376 -0.045000
v -0.027565 0.001376 0.043796
v -0.024658 -0.001376 0.045000
v -0.024658 0.001376 0.045000
v -0.028570 -0.001376 0.042791
v -0.029774 0.001376 0.039884
v -0.029774 -0.001376 0.039884
v 0.027565 -0.001376 0.043796
v 0.024658 0.001376 0.045000
v 0.024658 -0.001376 0.045000
v 0.028570 0.001376 0.042791
v 0.029774 -0.001376 0.039884
v 0.029774 0.001376 0.039884
v 0.027565 -0.001376 -0.043796
v 0.028570 0.001376 -0.042791
v 0.028570 -0.001376 -0.042791
v 0.028570 0.001376 0.042791
v -0.028570 -0.001376 0.042791
v 0.024658 -0.001376 -0.045000
v 0.028570 -0.001376 -0.042791
v 0.029774 -0.001376 -0.039884
v 0.024658 -0.001376 -0.045000
v -0.029774 -0.001376 -0.041587
v 0.028570 -0.001376 0.042791
v 0.027565 -0.001376 0.043796
v -0.024658 -0.001376 0.045000
v -0.027565 -0.001376 0.043796
v -0.028570 -0.001376 0.042791
v -0.026361 -0.001376 -0.045000
v 0.027565 -0.001376 -0.043796
v 0.029774 -0.001376 0.039884
v -0.029774 -0.001376 -0.041587
v -0.024658 -0.001376 0.045000
v -0.029774 0.001376 -0.041587
v -0.026361 0.001376 -0.045000
v -0.029774 0.001376 -0.041587
v 0.024658 0.001376 -0.045000
v 0.029774 0.001376 -0.039884
v -0.028570 0.001376 0.042791
v -0.027565 0.001376 0.043796
v -0.024658 0.001376 0.045000
v 0.027565 0.001376 0.043796
v 0.028570 0.001376 0.042791
v 0.028570 0.001376 -0.042791
v 0.027565 0.001376 -0.043796
v 0.028570 0.001376 -0.042791
v 0.027565 -0.001376 -0.043796
v -0.027565 -0.001376 0.043796
v -0.028570 0.001376 0.042791
v 0.027565 0.001376 0.043796
v 0.028570 -0.001376 0.042791
v 0.027565 0.001376 -0.043796
vt 0.948910 0.986947
vt 0.969858 0.996936
vt 0.948910 0.996936
vt 0.921832 0.987946
vt 0.942781 0.996936
vt 0.921832 0.996936
vt 0.975987 0.190302
vt 0.996936 0.571176
vt 0.975987 0.571176
vt 0.417378 0.996936
vt 0.003064 0.957994
vt 0.456320 0.957994
vt 0.969858 0.962993
vt 0.948909 0.402051
vt 0.969858 0.402051
vt 0.921832 0.356245
vt 0.942781 0.964453
vt 0.921832 0.964453
vt 0.975987 0.599434
vt 0.996936 0.974806
vt 0.975987 0.974806
vt 0.942781 0.356245
vt 0.921832 0.335834
vt 0.942781 0.335834
vt 0.915703 0.957994
vt 0.501390 0.996936
vt 0.462448 0.957994
vt 0.948909 0.385114
vt 0.969858 0.402051
vt 0.948909 0.402051
vt 0.975987 0.166809
vt 0.996936 0.190302
vt 0.975987 0.190302
vt 0.975987 0.577304
vt 0.996936 0.599434
vt 0.975987 0.599434
vt 0.942781 0.987946
vt 0.921832 0.964453
vt 0.942781 0.964453
vt 0.996936 0.996936
vt 0.975987 0.974806
vt 0.996936 0.974806
vt 0.969858 0.986947
vt 0.948910 0.962993
vt 0.969858 0.962993
vt 0.996936 0.166809
vt 0.975987 0.157819
vt 0.996936 0.157819
vt 0.969858 0.986947
vt 0.942781 0.987946
vt 0.996936 0.190302
vt 0.447153 0.328704
vt 0.456320 0.350834
vt 0.417378 0.311893
vt 0.003064 0.337871
vt 0.447153 0.980124
vt 0.439508 0.987769
vt 0.042006 0.996936
vt 0.019876 0.987769
vt 0.012231 0.980124
vt 0.029043 0.311893
vt 0.439508 0.321059
vt 0.948910 0.962993
vt 0.942781 0.356245
vt 0.996936 0.599434
vt 0.921832 0.356245
vt 0.889725 0.311893
vt 0.915703 0.337871
vt 0.501390 0.311893
vt 0.462448 0.350834
vt 0.906537 0.980124
vt 0.898892 0.987769
vt 0.876761 0.996936
vt 0.479260 0.987769
vt 0.471615 0.980124
vt 0.471615 0.328704
vt 0.479260 0.321059
vt 0.969858 0.385114
vt 0.996936 0.166809
vt 0.996936 0.577304
vt 0.921832 0.987946
vt 0.975987 0.996936
vt 0.948910 0.986947
vt 0.975987 0.166809
vn 0.707106 -0.000000 0.707107
vn 0.707106 0.000000 0.707107
vn 0.707106 -0.000000 0.707107
vn -0.707106 0.000000 0.707107
vn -0.707106 0.000000 0.707107
vn -0.707106 0.000000 0.707107
vn 0.000000 -0.000000 -1.000000
vn 0.000000 -0.000000 -1.000000
vn 0.000000 -0.000000 -1.000000
vn -0.000000 -1.000000 0.000000
vn 0.000000 -1.000000 0.000000
vn -0.000000 -1.000000 0.000000
vn 1.000000 0.000000 0.000000
vn 1.000000 0.000000 0.000000
vn 1.000000 0.000000 0.000000
vn -1.000000 0.000000 0.000000
vn -1.000000 0.000000 0.000000
vn -1.000000 0.000000 0.000000
vn 0.000000 0.000000 1.000000
vn 0.000000 0.000000 1.000000
vn 0.000000 0.000000 1.000000
vn -0.707107 -0.000000 -0.707107
vn -0.707107 -0.000000 -0.707107
vn -0.707107 -0.000000 -0.707107
vn 0.000000 1.000000 -0.000000
vn -0.000000 1.000000 -0.000000
vn -0.000000 1.000000 -0.000000
vn 0.923880 -0.000000 -0.382683
vn 0.923880 -0.000000 -0.382683
vn 0.923880 -0.000000 -0.382683
vn 0.382684 -0.000000 -0.923879
vn 0.382684 -0.000000 -0.923879
vn 0.382684 -0.000000 -0.923879
vn -0.382684 0.000000 0.923879
vn -0.382684 0.000000 0.923879
vn -0.382684 0.000000 0.923879
vn -0.923880 0.000000 0.382683
vn -0.923880 0.000000 0.382683
vn -0.923880 0.000000 0.382683
vn 0.382684 0.000000 0.923879
vn 0.382684 0.000000 0.923879
vn 0.382684 0.000000 0.923879
vn 0.923880 0.000000 0.382683
vn 0.923880 0.000000 0.382683
vn 0.923880 0.000000 0.382683
vn 0.707106 -0.000000 -0.707107
vn 0.707106 -0.000000 -0.707107
vn 0.707106 -0.000000 -0.707107
vn 0.707106 0.000000 0.707107
vn -0.707106 0.000000 0.707107
vn 0.000000 -0.000000 -1.000000
vn -0.000000 -1.000000 0.000000
vn -0.000000 -1.000000 0.000000
vn -0.000000 -1.000000 0.000000
vn 0.000000 -1.000000 0.000000
vn 0.000000 -1.000000 0.000000
vn -0.000000 -1.000000 0.000000
vn 0.000000 -1.000000 0.000000
vn 0.000000 -1.000000 0.000000
vn 0.000000 -1.000000 0.000000
vn 0.000000 -1.000000 0.000000
vn 0.000000 -1.000000 0.000000
vn 1.000000 0.000000 0.000000
vn -1.000000 0.000000 0.000000
vn 0.000000 0.000000 1.000000
vn -0.707107 -0.000000 -0.707107
vn 0.000000 1.000000 -0.000000
vn 0.000000 1.000000 -0.000000
vn -0.000000 1.000000 -0.000000
vn -0.000000 1.000000 -0.000000
vn 0.000000 1.000000 -0.000000
vn 0.000000 1.000000 -0.000000
vn 0.000000 1.000000 -0.000000
vn 0.000000 1.000000 -0.000000
vn -0.000000 1.000000 -0.000000
vn 0.000000 1.000000 -0.000000
vn -0.000000 1.000000 -0.000000
vn 0.923879 -0.000000 -0.382684
vn 0.382684 -0.000000 -0.923880
vn -0.382684 0.000000 0.923880
vn -0.923879 0.000000 0.382684
vn 0.382684 0.000000 0.923880
vn 0.923879 0.000000 0.382684
vn 0.707106 -0.000000 -0.707107
f 1/1/1 2/2/2 3/3/3
f 4/4/4 5/5/5 6/6/6
f 7/7/7 8/8/8 9/9/9
f 10/10/10 11/11/11 12/12/12
f 13/13/13 14/14/14 15/15/15
f 16/16/16 17/17/17 18/18/18
f 19/19/19 20/20/20 21/21/21
f 22/22/22 23/23/23 24/24/24
f 25/25/25 26/26/26 27/27/27
f 28/28/28 29/29/29 30/30/30
f 31/31/31 32/32/32 33/33/33
f 34/34/34 35/35/35 36/36/36
f 37/37/37 38/38/38 39/39/39
f 40/40/40 41/41/41 42/42/42
f 43/43/43 44/44/44 45/45/45
f 46/46/46 47/47/47 48/48/48
f 1/1/1 49/49/49 2/2/2
f 4/4/4 50/50/50 5/5/5
f 7/7/7 51/51/51 8/8/8
f 52/52/52 53/53/53 54/54/54
f 53/53/53 12/12/12 11/11/11
f 54/54/54 53/53/53 55/55/55
f 12/12/12 56/56/56 57/57/57
f 57/57/57 10/10/10 12/12/12
f 10/10/10 58/58/58 11/11/11
f 58/58/58 59/59/59 60/60/60
f 60/60/60 11/11/11 58/58/58
f 11/11/11 55/55/55 53/53/53
f 55/55/55 61/61/61 54/54/54
f 54/54/54 62/62/62 52/52/52
f 13/13/13 63/63/63 14/14/14
f 16/16/16 64/64/64 17/17/17
f 19/19/19 65/65/65 20/20/20
f 22/22/22 66/66/66 23/23/23
f 67/67/67 68/68/68 69/69/69
f 68/68/68 25/25/25 70/70/70
f 25/25/25 71/71/71 72/72/72
f 72/72/72 73/73/73 25/25/25
f 73/73/73 26/26/26 25/25/25
f 26/26/26 74/74/74 75/75/75
f 75/75/75 27/27/27 26/26/26
f 27/27/27 70/70/70 25/25/25
f 70/70/70 76/76/76 77/77/77
f 77/77/77 69/69/69 70/70/70
f 70/70/70 69/69/69 68/68/68
f 28/28/28 78/78/78 29/29/29
f 31/31/31 79/79/79 32/32/32
f 34/34/34 80/80/80 35/35/35
f 37/37/37 81/81/81 38/38/38
f 40/40/40 82/82/82 41/41/41
f 43/43/43 83/83/83 44/44/44
f 46/46/46 84/84/84 47/47/47
