# Cube -- imported by tools/import_asset_pack.py from konserwa.fbx
o __pending__
v 0.000000 -0.012663 0.053732
v 0.036591 -0.012663 0.036591
v 0.000000 -0.012663 0.051748
v 0.036591 0.026655 -0.036591
v 0.000000 -0.012664 -0.051748
v 0.000000 0.026655 -0.051748
v -0.036591 -0.012664 -0.036591
v -0.053732 -0.012663 0.000000
v -0.051748 -0.012663 0.000000
v 0.051748 0.026655 -0.000000
v 0.036591 -0.012664 -0.036591
v 0.036591 0.026655 -0.036591
v 0.053732 -0.012663 0.000000
v 0.051748 -0.012663 0.000000
v 0.036591 0.026655 0.036591
v 0.051748 -0.012663 0.000000
v 0.051748 0.026655 -0.000000
v 0.036591 -0.012664 -0.036591
v 0.000000 -0.012664 -0.053732
v 0.000000 -0.012664 -0.051748
v 0.000000 0.026655 0.051748
v 0.036591 -0.012663 0.036591
v 0.036591 0.026655 0.036591
v -0.036591 -0.012663 0.036591
v -0.036591 0.026655 0.036591
v 0.000000 -0.012663 0.051748
v 0.000000 0.026655 0.051748
v -0.051748 0.026655 -0.000000
v -0.036591 -0.012663 0.036591
v -0.036591 0.026655 0.036591
v 0.037994 -0.018660 0.037994
v 0.053732 -0.012663 0.000000
v 0.037994 -0.012663 0.037994
v -0.036591 0.026655 -0.036591
v -0.051748 -0.012663 0.000000
v -0.051748 0.026655 -0.000000
v 0.000000 0.026655 -0.051748
v -0.036591 -0.012664 -0.036591
v -0.036591 0.026655 -0.036591
v 0.038891 0.026655 -0.038891
v 0.051748 0.026655 -0.000000
v 0.036591 0.026655 -0.036591
v 0.000000 -0.018660 -0.048797
v -0.037994 -0.018660 -0.037994
v 0.000000 -0.018660 -0.053732
v 0.000000 -0.018660 -0.053732
v -0.037994 -0.012664 -0.037994
v 0.000000 -0.012664 -0.053732
v -0.053732 -0.018660 0.000000
v -0.037994 -0.012663 0.037994
v -0.053732 -0.012663 0.000000
v 0.053732 -0.018660 0.000000
v 0.037994 -0.012664 -0.037994
v 0.053732 -0.012663 0.000000
v -0.037994 -0.018660 -0.037994
v -0.053732 -0.012663 0.000000
v -0.037994 -0.012664 -0.037994
v -0.037994 -0.018660 0.037994
v 0.000000 -0.012663 0.053732
v -0.037994 -0.012663 0.037994
v 0.037994 -0.018660 -0.037994
v 0.000000 -0.012664 -0.053732
v 0.037994 -0.012664 -0.037994
v 0.000000 -0.018660 0.053732
v 0.037994 -0.012663 0.037994
v 0.000000 -0.012663 0.053732
v 0.048797 -0.016544 0.000000
v 0.034505 -0.018660 -0.034505
v 0.048797 -0.018660 0.000000
v 0.034505 -0.018660 -0.034505
v 0.037994 -0.018660 -0.037994
v 0.034505 -0.018660 0.034505
v 0.053732 -0.018660 0.000000
v 0.037994 -0.018660 0.037994
v -0.034505 -0.018660 0.034505
v 0.000000 -0.018660 0.053732
v -0.037994 -0.018660 0.037994
v -0.034505 -0.018660 -0.034505
v -0.053732 -0.018660 0.000000
v 0.048797 -0.018660 0.000000
v 0.000000 -0.018660 0.048797
v -0.048797 -0.018660 0.000000
v 0.000000 -0.016544 0.048797
v -0.048797 -0.016544 0.000000
v 0.000000 -0.016544 -0.048797
v 0.000000 -0.016544 0.048797
v 0.034505 -0.018660 0.034505
v 0.000000 -0.018660 0.048797
v -0.048797 -0.016544 0.000000
v -0.034505 -0.018660 0.034505
v -0.048797 -0.018660 0.000000
v 0.000000 -0.016544 -0.048797
v -0.034505 -0.018660 -0.034505
v 0.000000 -0.018660 -0.048797
v 0.034505 -0.016544 -0.034505
v 0.000000 -0.018660 -0.048797
v 0.034505 -0.018660 -0.034505
v 0.034505 -0.016544 0.034505
v 0.048797 -0.018660 0.000000
v 0.034505 -0.018660 0.034505
v -0.034505 -0.016544 0.034505
v 0.000000 -0.018660 0.048797
v -0.034505 -0.018660 0.034505
v -0.034505 -0.016544 -0.034505
v -0.048797 -0.018660 0.000000
v -0.034505 -0.018660 -0.034505
v -0.038891 0.031130 -0.038891
v 0.000000 0.026655 -0.055000
v -0.038891 0.026655 -0.038891
v -0.038891 0.026655 0.038891
v -0.051748 0.026655 -0.000000
v -0.036591 0.026655 0.036591
v -0.038891 0.026655 -0.038891
v 0.000000 0.026655 -0.051748
v -0.036591 0.026655 -0.036591
v 0.038891 0.026655 0.038891
v 0.036591 0.026655 0.036591
v 0.000000 0.026655 0.051748
v 0.000000 0.031130 0.055000
v -0.035781 0.031130 0.035781
v -0.038891 0.031130 0.038891
v -0.038891 0.031130 0.038891
v -0.055000 0.026655 -0.000000
v -0.038891 0.026655 0.038891
v 0.038891 0.031130 0.038891
v 0.000000 0.026655 0.055000
v 0.038891 0.026655 0.038891
v 0.038891 0.031130 -0.038891
v 0.055000 0.026655 -0.000000
v 0.038891 0.026655 -0.038891
v -0.055000 0.031130 -0.000000
v -0.038891 0.026655 -0.038891
v -0.055000 0.026655 -0.000000
v 0.000000 0.031130 0.055000
v -0.038891 0.026655 0.038891
v 0.000000 0.026655 0.055000
v 0.055000 0.031130 -0.000000
v 0.038891 0.026655 0.038891
v 0.055000 0.026655 -0.000000
v 0.000000 0.031130 -0.055000
v 0.038891 0.026655 -0.038891
v 0.000000 0.026655 -0.055000
v -0.050601 0.028315 -0.000000
v -0.035781 0.031130 -0.035781
v -0.050601 0.031130 -0.000000
v 0.055000 0.031130 -0.000000
v 0.035781 0.031130 0.035781
v 0.038891 0.031130 0.038891
v 0.000000 0.031130 -0.055000
v 0.035781 0.031130 -0.035781
v 0.038891 0.031130 -0.038891
v -0.038891 0.031130 -0.038891
v 0.000000 0.031130 -0.050601
v -0.050601 0.031130 -0.000000
v -0.055000 0.031130 -0.000000
v 0.000000 0.031130 0.050601
v 0.050601 0.031130 -0.000000
v -0.035781 0.031130 -0.035781
v 0.050601 0.028315 -0.000000
v 0.035781 0.028315 -0.035781
v -0.035781 0.028315 0.035781
v 0.000000 0.028315 0.050601
v -0.035781 0.031130 0.035781
v 0.000000 0.031130 0.050601
v 0.050601 0.028315 -0.000000
v 0.035781 0.031130 0.035781
v 0.050601 0.031130 -0.000000
v 0.000000 0.028315 -0.050601
v 0.035781 0.031130 -0.035781
v 0.000000 0.031130 -0.050601
v -0.035781 0.028315 -0.035781
v 0.000000 0.031130 -0.050601
v -0.035781 0.031130 -0.035781
v -0.035781 0.028315 0.035781
v -0.050601 0.031130 -0.000000
v -0.035781 0.031130 0.035781
v 0.035781 0.028315 0.035781
v 0.000000 0.031130 0.050601
v 0.035781 0.031130 0.035781
v 0.035781 0.028315 -0.035781
v 0.050601 0.031130 -0.000000
v 0.035781 0.031130 -0.035781
v -0.004962 0.026540 -0.017945
v -0.015076 0.026540 -0.017945
v -0.015076 0.026540 -0.037790
v 0.005089 0.026540 -0.039842
v 0.015076 0.026540 -0.037790
v 0.005089 0.026540 -0.017945
v 0.009319 0.026540 0.009770
v 0.005089 0.026540 0.009770
v 0.005089 0.026540 -0.001408
v -0.015076 0.026540 0.004013
v -0.004962 0.026540 -0.001408
v -0.009319 0.026540 0.009770
v 0.015076 0.030259 0.004013
v 0.015076 0.026540 -0.001408
v 0.015076 0.030259 -0.001408
v 0.005089 0.030259 0.009770
v 0.009319 0.026540 0.009770
v 0.009319 0.030259 0.009770
v 0.015076 0.030259 -0.017945
v 0.015076 0.026540 -0.037790
v 0.015076 0.030259 -0.037790
v 0.013024 0.030259 -0.039842
v 0.005089 0.026540 -0.039842
v 0.005089 0.030259 -0.039842
v 0.009641 0.030259 -0.014470
v 0.015076 0.030259 -0.001408
v 0.015076 0.030259 -0.017945
v 0.015076 0.030259 -0.037790
v 0.005089 0.030259 -0.039842
v 0.015076 0.026540 -0.017945
v -0.009319 0.030259 0.009770
v -0.004962 0.026540 0.009770
v -0.004962 0.030259 0.009770
v -0.015076 0.030259 -0.017945
v -0.015076 0.026540 -0.001408
v -0.015076 0.030259 -0.001408
v -0.015076 0.030259 -0.001408
v -0.009514 0.030259 -0.014470
v -0.015076 0.030259 -0.017945
v -0.009514 0.028966 0.004101
v -0.009514 0.030259 -0.014470
v -0.009514 0.030259 0.004101
v -0.015076 0.030259 -0.037790
v -0.015076 0.026540 -0.017945
v -0.004962 0.030259 -0.039842
v 0.015076 0.026540 -0.001408
v 0.015076 0.026540 -0.017945
v -0.004962 0.026540 -0.039842
v -0.015076 0.026540 0.004013
v -0.015076 0.030259 0.004013
v -0.004962 0.030259 0.009770
v 0.009641 0.030259 0.004101
v -0.009514 0.030259 0.004101
v 0.015076 0.030259 0.004013
v 0.009319 0.030259 0.009770
v 0.005089 0.026540 0.009770
v -0.004962 0.026540 -0.039842
v -0.004962 0.030259 -0.039842
v -0.015076 0.030259 0.004013
v -0.009319 0.026540 0.009770
v -0.009319 0.030259 0.009770
v 0.015076 0.026540 0.004013
v 0.009319 0.030259 0.009770
v 0.009319 0.026540 0.009770
v -0.009319 0.030259 0.009770
v -0.015076 0.026540 -0.037790
v -0.013024 0.030259 -0.039842
v -0.013024 0.026540 -0.039842
v 0.013024 0.026540 -0.039842
v 0.015076 0.030259 -0.037790
v 0.015076 0.026540 -0.037790
v -0.013024 0.026540 -0.039842
v -0.013024 0.030259 -0.039842
v -0.009514 0.028966 0.004101
v 0.009641 0.028966 -0.014470
v -0.009514 0.028966 -0.014470
v 0.009641 0.028966 -0.014470
v 0.009641 0.030259 0.004101
v 0.009641 0.030259 -0.014470
v 0.009641 0.028966 0.004101
v -0.009514 0.030259 0.004101
v 0.009641 0.030259 0.004101
v -0.009514 0.028966 -0.014470
v 0.009641 0.030259 -0.014470
v -0.009514 0.030259 -0.014470
v 0.037994 -0.012663 0.037994
v 0.036591 -0.012664 -0.036591
v -0.037994 -0.012664 -0.037994
v 0.051748 -0.012663 0.000000
v 0.036591 -0.012663 0.036591
v 0.037994 -0.012664 -0.037994
v 0.000000 -0.012663 0.051748
v -0.037994 -0.012663 0.037994
v -0.036591 -0.012663 0.036591
v -0.051748 -0.012663 0.000000
v 0.053732 -0.018660 0.000000
v -0.036591 -0.012664 -0.036591
v 0.000000 -0.012664 -0.051748
v 0.055000 0.026655 -0.000000
v -0.037994 -0.018660 -0.037994
v -0.037994 -0.018660 0.037994
v 0.037994 -0.018660 -0.037994
v -0.053732 -0.018660 0.000000
v 0.000000 -0.018660 0.053732
v 0.000000 -0.018660 -0.053732
v 0.037994 -0.018660 0.037994
v 0.034505 -0.016544 -0.034505
v 0.034505 -0.016544 -0.034505
v 0.048797 -0.016544 0.000000
v 0.034505 -0.016544 0.034505
v -0.034505 -0.016544 0.034505
v -0.034505 -0.016544 -0.034505
v 0.034505 -0.016544 0.034505
v -0.034505 -0.016544 0.034505
v -0.034505 -0.016544 -0.034505
v 0.000000 -0.016544 -0.048797
v 0.048797 -0.016544 0.000000
v 0.000000 -0.016544 0.048797
v -0.048797 -0.016544 0.000000
v 0.000000 0.031130 -0.055000
v -0.055000 0.026655 -0.000000
v 0.000000 0.026655 -0.055000
v 0.000000 0.026655 0.055000
v -0.055000 0.031130 -0.000000
v 0.000000 0.031130 0.055000
v 0.055000 0.031130 -0.000000
v -0.038891 0.031130 -0.038891
v -0.038891 0.031130 0.038891
v 0.038891 0.031130 0.038891
v 0.038891 0.031130 -0.038891
v -0.035781 0.028315 -0.035781
v 0.000000 0.028315 -0.050601
v -0.035781 0.028315 -0.035781
v -0.050601 0.028315 -0.000000
v 0.000000 0.028315 0.050601
v 0.035781 0.028315 0.035781
v -0.035781 0.028315 0.035781
v 0.035781 0.028315 0.035781
v 0.035781 0.028315 -0.035781
v 0.000000 0.028315 -0.050601
v -0.050601 0.028315 -0.000000
v 0.000000 0.028315 0.050601
v 0.050601 0.028315 -0.000000
v -0.013024 0.026540 -0.039842
v 0.013024 0.026540 -0.039842
v 0.015076 0.026540 0.004013
v -0.015076 0.026540 -0.001408
v -0.004962 0.026540 0.009770
v 0.015076 0.026540 0.004013
v 0.013024 0.026540 -0.039842
v 0.013024 0.030259 -0.039842
v -0.009319 0.026540 0.009770
v -0.009514 0.028966 -0.014470
v -0.015076 0.026540 -0.037790
v 0.005089 0.030259 0.009770
v -0.013024 0.030259 -0.039842
v -0.015076 0.030259 -0.037790
v -0.015076 0.026540 0.004013
v 0.015076 0.030259 0.004013
v -0.015076 0.030259 0.004013
v -0.015076 0.030259 -0.037790
v 0.013024 0.030259 -0.039842
v 0.009641 0.028966 0.004101
v 0.009641 0.028966 0.004101
v -0.009514 0.028966 0.004101
v 0.009641 0.028966 -0.014470
vt 0.326492 0.905550
vt 0.331990 0.784511
vt 0.331990 0.903273
vt 0.666629 0.919315
vt 0.784531 0.992749
vt 0.666629 0.992749
vt 0.618707 0.903273
vt 0.537007 0.992749
vt 0.534730 0.987251
vt 0.666629 0.801389
vt 0.784531 0.919315
vt 0.666629 0.919315
vt 0.413690 0.695035
vt 0.415967 0.700533
vt 0.666629 0.708052
vt 0.784531 0.801389
vt 0.666629 0.801389
vt 0.534730 0.700533
vt 0.624205 0.782234
vt 0.618707 0.784511
vt 0.007251 0.244546
vt 0.125153 0.354268
vt 0.007251 0.354268
vt 0.415967 0.987251
vt 0.007251 0.134824
vt 0.125153 0.244546
vt 0.007251 0.244546
vt 0.874847 0.394462
vt 0.992748 0.512387
vt 0.874847 0.512387
vt 0.656688 0.380040
vt 0.638708 0.476957
vt 0.638708 0.380040
vt 0.139655 0.244546
vt 0.257557 0.354268
vt 0.139655 0.354268
vt 0.139655 0.134824
vt 0.257557 0.244546
vt 0.139655 0.244546
vt 0.311989 0.903493
vt 0.219001 0.983738
vt 0.302979 0.899761
vt 0.610534 0.475681
vt 0.537007 0.382820
vt 0.624205 0.470018
vt 0.788805 0.447796
vt 0.770824 0.561726
vt 0.770824 0.447796
vt 0.898265 0.707032
vt 0.880285 0.829480
vt 0.880285 0.707032
vt 0.656688 0.476957
vt 0.638708 0.599405
vt 0.638708 0.476957
vt 0.788805 0.561726
vt 0.770824 0.675656
vt 0.770824 0.561726
vt 0.817014 0.764889
vt 0.799034 0.878819
vt 0.799034 0.764889
vt 0.656688 0.599405
vt 0.638708 0.675656
vt 0.638708 0.599405
vt 0.817014 0.878819
vt 0.799034 0.992749
vt 0.799034 0.878819
vt 0.912768 0.829480
vt 0.919112 0.718278
vt 0.919112 0.829480
vt 0.610534 0.587672
vt 0.624205 0.593335
vt 0.419353 0.666862
vt 0.537007 0.680533
vt 0.413690 0.680533
vt 0.340163 0.475681
vt 0.326492 0.593335
vt 0.326492 0.470018
vt 0.531344 0.396491
vt 0.413690 0.382820
vt 0.531344 0.666862
vt 0.340163 0.587672
vt 0.419353 0.396491
vt 0.638708 0.286348
vt 0.717898 0.095167
vt 0.909079 0.174356
vt 0.272060 0.354268
vt 0.278403 0.250801
vt 0.278403 0.354268
vt 0.694135 0.587639
vt 0.700478 0.476437
vt 0.700478 0.587639
vt 0.831517 0.889282
vt 0.837860 0.785816
vt 0.837860 0.889282
vt 0.831517 0.992749
vt 0.837860 0.889282
vt 0.837860 0.992749
vt 0.272060 0.250801
vt 0.278403 0.147335
vt 0.278403 0.250801
vt 0.694135 0.476437
vt 0.700478 0.407190
vt 0.700478 0.476437
vt 0.694135 0.675656
vt 0.700478 0.587639
vt 0.700478 0.675656
vt 0.742903 0.559037
vt 0.756321 0.442419
vt 0.756321 0.559037
vt 0.007251 0.777267
vt 0.100239 0.697021
vt 0.016262 0.780999
vt 0.222733 0.688011
vt 0.302979 0.780999
vt 0.219001 0.697021
vt 0.096507 0.992749
vt 0.100239 0.983738
vt 0.016262 0.899761
vt 0.007251 0.584253
vt 0.101555 0.661322
vt 0.096507 0.673508
vt 0.852363 0.829480
vt 0.865782 0.704143
vt 0.865782 0.829480
vt 0.714981 0.675656
vt 0.728400 0.559037
vt 0.728400 0.675656
vt 0.638708 0.914699
vt 0.652127 0.789362
vt 0.652127 0.914699
vt 0.742903 0.675656
vt 0.756321 0.559037
vt 0.756321 0.675656
vt 0.714981 0.559037
vt 0.728400 0.442419
vt 0.728400 0.559037
vt 0.638708 0.789362
vt 0.652127 0.690158
vt 0.652127 0.789362
vt 0.638708 0.992749
vt 0.652127 0.914699
vt 0.652127 0.992749
vt 0.679632 0.584385
vt 0.671191 0.675656
vt 0.671191 0.584385
vt 0.096507 0.368770
vt 0.019437 0.463074
vt 0.007251 0.458026
vt 0.311989 0.458026
vt 0.217686 0.380956
vt 0.222733 0.368770
vt 0.311989 0.584253
vt 0.299803 0.463074
vt 0.217686 0.661322
vt 0.222733 0.673508
vt 0.019437 0.579205
vt 0.101555 0.380956
vt 0.299803 0.579205
vt 0.408609 0.087951
vt 0.524741 0.087951
vt 0.408609 0.368317
vt 0.679632 0.397265
vt 0.671191 0.469072
vt 0.671191 0.397265
vt 0.834692 0.461073
vt 0.826251 0.568364
vt 0.826251 0.461073
vt 0.811748 0.568364
vt 0.803308 0.675656
vt 0.803308 0.568364
vt 0.811748 0.461073
vt 0.803308 0.568364
vt 0.803308 0.461073
vt 0.679632 0.469072
vt 0.671191 0.584385
vt 0.671191 0.469072
vt 0.834692 0.568364
vt 0.826251 0.675656
vt 0.826251 0.568364
vt 0.301347 0.082485
vt 0.292906 0.197798
vt 0.292906 0.082485
vt 0.879523 0.592548
vt 0.849195 0.592548
vt 0.849195 0.533042
vt 0.909660 0.526890
vt 0.939607 0.533042
vt 0.909660 0.592548
vt 0.922344 0.675656
vt 0.909660 0.675656
vt 0.909660 0.642137
vt 0.849195 0.658392
vt 0.879523 0.642137
vt 0.866458 0.675656
vt 0.849195 0.384122
vt 0.860345 0.399772
vt 0.849195 0.399772
vt 0.923582 0.335591
vt 0.934731 0.348274
vt 0.923582 0.348274
vt 0.849195 0.447512
vt 0.860345 0.504800
vt 0.849195 0.504800
vt 0.803308 0.382639
vt 0.814457 0.399464
vt 0.803308 0.399464
vt 0.868661 0.920061
vt 0.852363 0.959230
vt 0.852363 0.909641
vt 0.852363 0.850135
vt 0.882310 0.843983
vt 0.860345 0.447512
vt 0.923582 0.292388
vt 0.934731 0.305453
vt 0.923582 0.305453
vt 0.292906 0.269589
vt 0.304056 0.317329
vt 0.292906 0.317329
vt 0.942776 0.959230
vt 0.926097 0.920061
vt 0.942776 0.909641
vt 0.821291 0.696775
vt 0.817414 0.750386
vt 0.817414 0.696775
vt 0.292906 0.212301
vt 0.304056 0.269589
vt 0.912448 0.843983
vt 0.939607 0.642137
vt 0.939607 0.592548
vt 0.879523 0.526890
vt 0.304056 0.332978
vt 0.292906 0.332978
vt 0.912448 0.992749
vt 0.868661 0.975748
vt 0.926097 0.975748
vt 0.852363 0.975486
vt 0.869626 0.992749
vt 0.934731 0.335591
vt 0.814457 0.420774
vt 0.803308 0.420774
vt 0.292906 0.332978
vt 0.304056 0.354268
vt 0.292906 0.354268
vt 0.934731 0.365537
vt 0.923582 0.348274
vt 0.934731 0.348274
vt 0.925513 0.992749
vt 0.814457 0.446570
vt 0.803308 0.437870
vt 0.814457 0.437870
vt 0.860345 0.512387
vt 0.849195 0.504800
vt 0.860345 0.504800
vt 0.814457 0.437870
vt 0.803308 0.437870
vt 0.007251 0.120321
vt 0.062938 0.062885
vt 0.062938 0.120321
vt 0.832838 0.392959
vt 0.828960 0.446570
vt 0.828960 0.392959
vt 0.718858 0.387303
vt 0.714981 0.427917
vt 0.714981 0.387303
vt 0.802911 0.692950
vt 0.799034 0.750386
vt 0.799034 0.692950
vt 0.326492 0.782234
vt 0.784531 0.919315
vt 0.624205 0.905550
vt 0.784531 0.801389
vt 0.784531 0.708052
vt 0.537007 0.695035
vt 0.125153 0.244546
vt 0.413690 0.992749
vt 0.125153 0.134824
vt 0.992748 0.394462
vt 0.656688 0.476957
vt 0.257557 0.244546
vt 0.257557 0.134824
vt 0.222733 0.992749
vt 0.788805 0.561726
vt 0.898265 0.829480
vt 0.656688 0.599405
vt 0.788805 0.675656
vt 0.817014 0.878819
vt 0.656688 0.675656
vt 0.817014 0.992749
vt 0.912768 0.718278
vt 0.909079 0.286348
vt 0.829889 0.365538
vt 0.717898 0.365538
vt 0.638708 0.174356
vt 0.829889 0.095167
vt 0.272060 0.250801
vt 0.694135 0.476437
vt 0.831517 0.785816
vt 0.831517 0.889282
vt 0.272060 0.147335
vt 0.694135 0.407190
vt 0.694135 0.587639
vt 0.742903 0.442419
vt 0.096507 0.688011
vt 0.311989 0.777266
vt 0.007251 0.903493
vt 0.852363 0.704143
vt 0.714981 0.559037
vt 0.638708 0.789362
vt 0.742903 0.559037
vt 0.714981 0.442419
vt 0.638708 0.690158
vt 0.638708 0.914699
vt 0.679632 0.675656
vt 0.606858 0.170068
vt 0.606858 0.286200
vt 0.524741 0.368317
vt 0.326492 0.286200
vt 0.326492 0.170068
vt 0.679632 0.469072
vt 0.834692 0.568364
vt 0.811748 0.675656
vt 0.811748 0.568364
vt 0.679632 0.584385
vt 0.834692 0.675656
vt 0.301347 0.197798
vt 0.855347 0.526890
vt 0.933455 0.526890
vt 0.939607 0.658392
vt 0.849195 0.642137
vt 0.879523 0.675656
vt 0.860345 0.384122
vt 0.814457 0.382639
vt 0.858515 0.843983
vt 0.934731 0.292388
vt 0.821291 0.750386
vt 0.304056 0.212301
vt 0.882310 0.992749
vt 0.936624 0.843983
vt 0.942776 0.850135
vt 0.304056 0.332978
vt 0.923582 0.365537
vt 0.942776 0.975486
vt 0.803308 0.446570
vt 0.849195 0.512387
vt 0.007251 0.062885
vt 0.832838 0.446570
vt 0.718858 0.427917
vt 0.802911 0.750386
vn -0.000000 1.000000 -0.000000
vn 0.000000 1.000000 -0.000000
vn -0.000000 1.000000 -0.000000
vn 0.382683 -0.000000 -0.923880
vn 0.382683 -0.000000 -0.923880
vn 0.382683 -0.000000 -0.923880
vn -0.000000 1.000000 -0.000000
vn -0.000000 1.000000 -0.000000
vn 0.000000 1.000000 -0.000000
vn 0.923880 -0.000000 -0.382683
vn 0.923880 -0.000000 -0.382683
vn 0.923880 -0.000000 -0.382683
vn 0.000000 1.000000 -0.000000
vn 0.000000 1.000000 -0.000000
vn 0.923880 0.000000 0.382683
vn 0.923880 0.000000 0.382683
vn 0.923880 0.000000 0.382683
vn 0.000000 1.000000 -0.000000
vn 0.000000 1.000000 -0.000000
vn 0.000000 1.000000 -0.000000
vn 0.382683 0.000000 0.923880
vn 0.382683 0.000000 0.923880
vn 0.382683 0.000000 0.923880
vn -0.000000 1.000000 -0.000000
vn -0.382683 0.000000 0.923880
vn -0.382683 0.000000 0.923880
vn -0.382683 0.000000 0.923880
vn -0.923880 0.000000 0.382683
vn -0.923880 0.000000 0.382683
vn -0.923880 0.000000 0.382683
vn 0.923880 0.000000 0.382683
vn 0.923880 0.000000 0.382683
vn 0.923880 0.000000 0.382683
vn -0.923880 -0.000000 -0.382683
vn -0.923880 -0.000000 -0.382683
vn -0.923880 -0.000000 -0.382683
vn -0.382683 -0.000000 -0.923880
vn -0.382683 -0.000000 -0.923880
vn -0.382683 -0.000000 -0.923880
vn 0.000000 -1.000000 0.000000
vn 0.000000 -1.000000 0.000000
vn 0.000000 -1.000000 0.000000
vn -0.000000 -1.000000 0.000000
vn 0.000000 -1.000000 0.000000
vn -0.000000 -1.000000 0.000000
vn -0.382683 -0.000000 -0.923880
vn -0.382683 -0.000000 -0.923880
vn -0.382683 -0.000000 -0.923880
vn -0.923880 0.000000 0.382684
vn -0.923880 0.000000 0.382683
vn -0.923880 0.000000 0.382684
vn 0.923880 -0.000000 -0.382684
vn 0.923880 -0.000000 -0.382683
vn 0.923880 -0.000000 -0.382684
vn -0.923880 -0.000000 -0.382683
vn -0.923880 -0.000000 -0.382683
vn -0.923880 -0.000000 -0.382683
vn -0.382683 0.000000 0.923880
vn -0.382683 0.000000 0.923880
vn -0.382683 0.000000 0.923880
vn 0.382683 -0.000000 -0.923880
vn 0.382683 -0.000000 -0.923880
vn 0.382683 -0.000000 -0.923880
vn 0.382683 0.000000 0.923880
vn 0.382683 0.000000 0.923880
vn 0.382683 0.000000 0.923880
vn -0.923880 0.000000 0.382683
vn -0.923880 0.000000 0.382683
vn -0.923880 0.000000 0.382683
vn -0.000000 -1.000000 0.000000
vn -0.000000 -1.000000 0.000000
vn -0.000000 -1.000000 0.000000
vn -0.000000 -1.000000 0.000000
vn -0.000000 -1.000000 0.000000
vn 0.000000 -1.000000 0.000000
vn 0.000000 -1.000000 0.000000
vn 0.000000 -1.000000 0.000000
vn 0.000000 -1.000000 0.000000
vn 0.000000 -1.000000 0.000000
vn -0.000000 -1.000000 0.000000
vn 0.000000 -1.000000 0.000000
vn 0.000000 -1.000000 0.000000
vn 0.000000 -1.000000 0.000000
vn 0.000000 -1.000000 0.000000
vn 0.000000 -1.000000 0.000000
vn -0.382683 -0.000000 -0.923880
vn -0.382684 -0.000000 -0.923879
vn -0.382683 -0.000000 -0.923880
vn 0.923880 -0.000000 -0.382683
vn 0.923880 -0.000000 -0.382683
vn 0.923880 -0.000000 -0.382683
vn 0.382683 0.000000 0.923880
vn 0.382684 0.000000 0.923879
vn 0.382683 0.000000 0.923880
vn -0.382683 0.000000 0.923880
vn -0.382684 0.000000 0.923879
vn -0.382683 0.000000 0.923880
vn -0.923880 -0.000000 -0.382683
vn -0.923880 -0.000000 -0.382683
vn -0.923880 -0.000000 -0.382683
vn 0.382683 -0.000000 -0.923880
vn 0.382684 -0.000000 -0.923879
vn 0.382683 -0.000000 -0.923880
vn 0.923880 0.000000 0.382683
vn 0.923880 0.000000 0.382683
vn 0.923880 0.000000 0.382683
vn -0.382683 -0.000000 -0.923880
vn -0.382683 -0.000000 -0.923880
vn -0.382683 -0.000000 -0.923880
vn -0.000000 -1.000000 0.000000
vn -0.000000 -1.000000 0.000000
vn -0.000000 -1.000000 0.000000
vn -0.000000 -1.000000 0.000000
vn 0.000000 -1.000000 0.000000
vn -0.000000 -1.000000 0.000000
vn 0.000000 -1.000000 0.000000
vn 0.000000 -1.000000 0.000000
vn -0.000000 -1.000000 0.000000
vn 0.000000 1.000000 -0.000000
vn -0.000000 1.000000 -0.000000
vn -0.000000 1.000000 -0.000000
vn -0.923879 0.000000 0.382684
vn -0.923880 0.000000 0.382683
vn -0.923879 0.000000 0.382684
vn 0.382683 0.000000 0.923880
vn 0.382683 0.000000 0.923880
vn 0.382683 0.000000 0.923880
vn 0.923879 -0.000000 -0.382684
vn 0.923880 -0.000000 -0.382683
vn 0.923879 -0.000000 -0.382684
vn -0.923879 -0.000000 -0.382684
vn -0.923880 -0.000000 -0.382683
vn -0.923879 -0.000000 -0.382684
vn -0.382683 0.000000 0.923880
vn -0.382683 0.000000 0.923880
vn -0.382683 0.000000 0.923880
vn 0.923879 0.000000 0.382684
vn 0.923880 0.000000 0.382683
vn 0.923879 0.000000 0.382684
vn 0.382683 -0.000000 -0.923880
vn 0.382683 -0.000000 -0.923880
vn 0.382683 -0.000000 -0.923880
vn 0.923880 0.000000 0.382684
vn 0.923880 0.000000 0.382683
vn 0.923879 0.000000 0.382684
vn -0.000000 1.000000 -0.000000
vn -0.000000 1.000000 -0.000000
vn -0.000000 1.000000 -0.000000
vn -0.000000 1.000000 -0.000000
vn 0.000000 1.000000 -0.000000
vn 0.000000 1.000000 -0.000000
vn 0.000000 1.000000 -0.000000
vn -0.000000 1.000000 -0.000000
vn 0.000000 1.000000 -0.000000
vn 0.000000 1.000000 -0.000000
vn 0.000000 1.000000 -0.000000
vn 0.000000 1.000000 -0.000000
vn 0.000000 1.000000 -0.000000
vn 0.000000 1.000000 -0.000000
vn 0.000000 1.000000 -0.000000
vn 0.000000 1.000000 -0.000000
vn 0.382684 -0.000000 -0.923879
vn 0.382683 -0.000000 -0.923880
vn 0.382684 -0.000000 -0.923879
vn -0.923880 -0.000000 -0.382684
vn -0.923880 -0.000000 -0.382683
vn -0.923879 -0.000000 -0.382684
vn -0.382684 0.000000 0.923879
vn -0.382683 0.000000 0.923880
vn -0.382684 0.000000 0.923879
vn 0.382684 0.000000 0.923879
vn 0.382683 0.000000 0.923880
vn 0.382684 0.000000 0.923879
vn 0.923879 -0.000000 -0.382684
vn 0.923880 -0.000000 -0.382683
vn 0.923879 -0.000000 -0.382684
vn -0.382684 -0.000000 -0.923879
vn -0.382683 -0.000000 -0.923880
vn -0.382684 -0.000000 -0.923879
vn -0.923879 0.000000 0.382684
vn -0.923880 0.000000 0.382683
vn -0.923879 0.000000 0.382684
vn 0.000000 -1.000000 0.000000
vn 0.000000 -1.000000 0.000000
vn 0.000000 -1.000000 0.000000
vn 0.000000 -1.000000 0.000000
vn 0.000000 -1.000000 0.000000
vn 0.000000 -1.000000 0.000000
vn 0.000000 -1.000000 0.000000
vn 0.000000 -1.000000 0.000000
vn 0.000000 -1.000000 0.000000
vn 0.000000 -1.000000 0.000000
vn 0.000000 -1.000000 0.000000
vn 0.000000 -1.000000 0.000000
vn 1.000000 0.000000 0.000000
vn 1.000000 0.000000 0.000000
vn 1.000000 0.000000 0.000000
vn 0.000000 0.000000 1.000000
vn 0.000000 0.000000 1.000000
vn 0.000000 0.000000 1.000000
vn 1.000000 0.000000 0.000000
vn 1.000000 0.000000 0.000000
vn 1.000000 0.000000 0.000000
vn 0.000000 0.000000 -1.000000
vn 0.000000 0.000000 -1.000000
vn 0.000000 0.000000 -1.000000
vn -0.000000 1.000000 -0.000000
vn -0.000000 1.000000 -0.000000
vn -0.000000 1.000000 -0.000000
vn -0.000000 1.000000 -0.000000
vn -0.000000 1.000000 -0.000000
vn 1.000000 0.000000 0.000000
vn 0.000000 0.000000 1.000000
vn 0.000000 0.000000 1.000000
vn 0.000000 0.000000 1.000000
vn -1.000000 0.000000 0.000000
vn -1.000000 0.000000 0.000000
vn -1.000000 0.000000 0.000000
vn 0.000000 1.000000 -0.000000
vn 0.000000 1.000000 -0.000000
vn 0.000000 1.000000 -0.000000
vn 1.000000 0.000000 0.000000
vn 1.000000 0.000000 0.000000
vn 1.000000 0.000000 0.000000
vn -1.000000 0.000000 0.000000
vn -1.000000 0.000000 0.000000
vn 0.000000 1.000000 -0.000000
vn 0.000000 -1.000000 0.000000
vn 0.000000 -1.000000 0.000000
vn 0.000000 -1.000000 0.000000
vn -1.000000 0.000000 0.000000
vn -1.000000 0.000000 0.000000
vn 0.000000 1.000000 -0.000000
vn 0.000000 1.000000 -0.000000
vn 0.000000 1.000000 -0.000000
vn 0.000000 1.000000 -0.000000
vn 0.000000 1.000000 -0.000000
vn 0.000000 0.000000 1.000000
vn 0.000000 0.000001 -1.000000
vn 0.000000 0.000001 -1.000000
vn -0.707107 0.000000 0.707107
vn -0.707107 0.000000 0.707107
vn -0.707106 0.000000 0.707107
vn 0.707107 0.000000 0.707107
vn 0.707107 0.000000 0.707107
vn 0.707107 0.000000 0.707107
vn 0.000000 1.000000 -0.000000
vn -0.707107 -0.000000 -0.707107
vn -0.707106 -0.000000 -0.707107
vn -0.707107 -0.000000 -0.707107
vn 0.707107 -0.000000 -0.707107
vn 0.707106 -0.000000 -0.707107
vn 0.707107 -0.000000 -0.707107
vn 0.000000 0.000000 -1.000000
vn 0.000000 -0.000000 -1.000000
vn 0.000000 1.000000 -0.000000
vn 0.000000 1.000000 -0.000000
vn 0.000000 1.000000 -0.000000
vn -1.000000 0.000000 0.000000
vn -1.000000 0.000000 0.000000
vn -1.000000 0.000000 0.000000
vn 0.000000 -0.000000 -1.000000
vn 0.000000 -0.000000 -1.000000
vn 0.000000 -0.000000 -1.000000
vn 0.000000 0.000000 1.000000
vn 0.000000 0.000000 1.000000
vn 0.000000 0.000000 1.000000
vn 0.000000 1.000000 -0.000000
vn 0.382683 -0.000000 -0.923880
vn -0.000000 1.000000 -0.000000
vn 0.923880 -0.000000 -0.382683
vn 0.923880 0.000000 0.382683
vn 0.000000 1.000000 -0.000000
vn 0.382683 0.000000 0.923880
vn -0.000000 1.000000 -0.000000
vn -0.382683 0.000000 0.923880
vn -0.923880 0.000000 0.382683
vn 0.923880 0.000000 0.382683
vn -0.923880 -0.000000 -0.382683
vn -0.382683 -0.000000 -0.923880
vn 0.000000 -1.000000 0.000000
vn -0.382683 -0.000000 -0.923880
vn -0.923880 0.000000 0.382683
vn 0.923880 -0.000000 -0.382683
vn -0.923880 -0.000000 -0.382683
vn -0.382683 0.000000 0.923880
vn 0.382683 -0.000000 -0.923880
vn 0.382683 0.000000 0.923880
vn -0.923880 0.000000 0.382683
vn 0.000000 -1.000000 0.000000
vn 0.000000 -1.000000 0.000000
vn 0.000000 -1.000000 0.000000
vn 0.000000 -1.000000 0.000000
vn 0.000000 -1.000000 0.000000
vn -0.382684 -0.000000 -0.923880
vn 0.923880 -0.000000 -0.382683
vn 0.382684 0.000000 0.923880
vn -0.382684 0.000000 0.923880
vn -0.923880 -0.000000 -0.382683
vn 0.382684 -0.000000 -0.923880
vn 0.923880 0.000000 0.382683
vn -0.382683 -0.000000 -0.923880
vn 0.000000 -1.000000 0.000000
vn 0.000000 -1.000000 0.000000
vn -0.000000 -1.000000 0.000000
vn -0.923880 0.000000 0.382683
vn 0.382683 0.000000 0.923880
vn 0.923880 -0.000000 -0.382683
vn -0.923880 -0.000000 -0.382683
vn -0.382683 0.000000 0.923880
vn 0.923880 0.000000 0.382683
vn 0.382683 -0.000000 -0.923880
vn 0.923880 0.000000 0.382683
vn 0.000000 1.000000 -0.000000
vn 0.000000 1.000000 -0.000000
vn 0.000000 1.000000 -0.000000
vn 0.000000 1.000000 -0.000000
vn 0.000000 1.000000 -0.000000
vn 0.382683 -0.000000 -0.923880
vn -0.923880 -0.000000 -0.382683
vn -0.382683 0.000000 0.923880
vn 0.382683 0.000000 0.923880
vn 0.923880 -0.000000 -0.382683
vn -0.382683 -0.000000 -0.923880
vn -0.923880 0.000000 0.382683
vn 0.000000 -1.000000 0.000000
vn 0.000000 -1.000000 0.000000
vn 0.000000 -1.000000 0.000000
vn 0.000000 -1.000000 0.000000
vn 0.000000 -1.000000 0.000000
vn 1.000000 0.000000 0.000000
vn 0.000000 -0.000000 -1.000000
vn 0.000000 1.000000 -0.000000
vn 0.000000 -0.000000 1.000000
vn 1.000000 0.000000 0.000000
vn -1.000000 0.000000 0.000000
vn 0.000000 1.000000 -0.000000
vn 0.000000 1.000000 -0.000000
vn 0.000000 1.000000 -0.000000
vn -0.707107 0.000000 0.707106
vn 0.707107 0.000000 0.707107
vn 0.000000 1.000000 -0.000000
vn -0.707106 -0.000000 -0.707107
vn 0.707106 -0.000000 -0.707107
vn 0.000000 1.000000 -0.000000
vn -1.000000 0.000000 0.000000
vn 0.000000 -0.000000 -1.000000
vn 0.000000 0.000000 1.000000
f 1/1/1 2/2/2 3/3/3
f 4/4/4 5/5/5 6/6/6
f 7/7/7 8/8/8 9/9/9
f 10/10/10 11/11/11 12/12/12
f 2/2/2 13/13/13 14/14/14
f 15/15/15 16/16/16 17/17/17
f 18/18/18 19/19/19 20/20/20
f 21/21/21 22/22/22 23/23/23
f 8/8/8 24/24/24 9/9/9
f 25/25/25 26/26/26 27/27/27
f 13/13/13 18/18/18 14/14/14
f 28/28/28 29/29/29 30/30/30
f 24/24/24 1/1/1 3/3/3
f 31/31/31 32/32/32 33/33/33
f 34/34/34 35/35/35 36/36/36
f 19/19/19 7/7/7 20/20/20
f 37/37/37 38/38/38 39/39/39
f 40/40/40 41/41/41 42/42/42
f 43/43/43 44/44/44 45/45/45
f 46/46/46 47/47/47 48/48/48
f 49/49/49 50/50/50 51/51/51
f 52/52/52 53/53/53 54/54/54
f 55/55/55 56/56/56 57/57/57
f 58/58/58 59/59/59 60/60/60
f 61/61/61 62/62/62 63/63/63
f 64/64/64 65/65/65 66/66/66
f 67/67/67 68/68/68 69/69/69
f 70/70/70 45/45/45 71/71/71
f 72/72/72 73/73/73 74/74/74
f 75/75/75 76/76/76 77/77/77
f 78/78/78 79/79/79 44/44/44
f 80/80/80 71/71/71 73/73/73
f 81/81/81 74/74/74 76/76/76
f 82/82/82 77/77/77 79/79/79
f 83/83/83 84/84/84 85/85/85
f 86/86/86 87/87/87 88/88/88
f 89/89/89 90/90/90 91/91/91
f 92/92/92 93/93/93 94/94/94
f 95/95/95 96/96/96 97/97/97
f 98/98/98 99/99/99 100/100/100
f 101/101/101 102/102/102 103/103/103
f 104/104/104 105/105/105 106/106/106
f 107/107/107 108/108/108 109/109/109
f 110/110/110 111/111/111 112/112/112
f 113/113/113 114/114/114 115/115/115
f 41/41/41 116/116/116 117/117/117
f 111/111/111 113/113/113 115/115/115
f 116/116/116 118/118/118 117/117/117
f 118/118/118 110/110/110 112/112/112
f 114/114/114 40/40/40 42/42/42
f 119/119/119 120/120/120 121/121/121
f 122/122/122 123/123/123 124/124/124
f 125/125/125 126/126/126 127/127/127
f 128/128/128 129/129/129 130/130/130
f 131/131/131 132/132/132 133/133/133
f 134/134/134 135/135/135 136/136/136
f 137/137/137 138/138/138 139/139/139
f 140/140/140 141/141/141 142/142/142
f 143/143/143 144/144/144 145/145/145
f 146/146/146 147/147/147 148/148/148
f 149/149/149 150/150/150 151/151/151
f 152/152/152 153/153/153 149/149/149
f 121/121/121 154/154/154 155/155/155
f 148/148/148 156/156/156 119/119/119
f 151/151/151 157/157/157 146/146/146
f 155/155/155 158/158/158 152/152/152
f 159/159/159 160/160/160 161/161/161
f 162/162/162 163/163/163 164/164/164
f 165/165/165 166/166/166 167/167/167
f 168/168/168 169/169/169 170/170/170
f 171/171/171 172/172/172 173/173/173
f 174/174/174 175/175/175 176/176/176
f 177/177/177 178/178/178 179/179/179
f 180/180/180 181/181/181 182/182/182
f 183/183/183 184/184/184 185/185/185
f 186/186/186 187/187/187 188/188/188
f 189/189/189 190/190/190 191/191/191
f 192/192/192 193/193/193 194/194/194
f 195/195/195 196/196/196 197/197/197
f 198/198/198 199/199/199 200/200/200
f 201/201/201 202/202/202 203/203/203
f 193/193/193 184/184/184 183/183/183
f 204/204/204 205/205/205 206/206/206
f 207/207/207 208/208/208 209/209/209
f 210/210/210 211/211/211 209/209/209
f 197/197/197 212/212/212 201/201/201
f 213/213/213 214/214/214 215/215/215
f 216/216/216 217/217/217 218/218/218
f 219/219/219 220/220/220 221/221/221
f 222/222/222 223/223/223 224/224/224
f 225/225/225 226/226/226 216/216/216
f 220/220/220 211/211/211 227/227/227
f 228/228/228 188/188/188 229/229/229
f 191/191/191 183/183/183 188/188/188
f 188/188/188 230/230/230 186/186/186
f 190/190/190 193/193/193 191/191/191
f 218/218/218 231/231/231 232/232/232
f 233/233/233 234/234/234 235/235/235
f 236/236/236 234/234/234 237/237/237
f 215/215/215 238/238/238 198/198/198
f 221/221/221 220/220/220 227/227/227
f 206/206/206 239/239/239 240/240/240
f 241/241/241 242/242/242 243/243/243
f 244/244/244 245/245/245 246/246/246
f 247/247/247 233/233/233 235/235/235
f 248/248/248 249/249/249 250/250/250
f 251/251/251 252/252/252 253/253/253
f 240/240/240 254/254/254 255/255/255
f 256/256/256 257/257/257 258/258/258
f 259/259/259 260/260/260 261/261/261
f 262/262/262 263/263/263 264/264/264
f 265/265/265 266/266/266 267/267/267
f 1/1/1 268/268/268 2/2/2
f 4/4/4 269/269/269 5/5/5
f 7/7/7 270/270/270 8/8/8
f 10/10/10 271/271/271 11/11/11
f 2/2/2 268/268/268 13/13/13
f 15/15/15 272/272/272 16/16/16
f 18/18/18 273/273/273 19/19/19
f 21/21/21 274/274/274 22/22/22
f 8/8/8 275/275/275 24/24/24
f 25/25/25 276/276/276 26/26/26
f 13/13/13 273/273/273 18/18/18
f 28/28/28 277/277/277 29/29/29
f 24/24/24 275/275/275 1/1/1
f 31/31/31 278/278/278 32/32/32
f 34/34/34 279/279/279 35/35/35
f 19/19/19 270/270/270 7/7/7
f 37/37/37 280/280/280 38/38/38
f 40/40/40 281/281/281 41/41/41
f 43/43/43 78/78/78 44/44/44
f 46/46/46 282/282/282 47/47/47
f 49/49/49 283/283/283 50/50/50
f 52/52/52 284/284/284 53/53/53
f 55/55/55 285/285/285 56/56/56
f 58/58/58 286/286/286 59/59/59
f 61/61/61 287/287/287 62/62/62
f 64/64/64 288/288/288 65/65/65
f 67/67/67 289/289/289 68/68/68
f 70/70/70 43/43/43 45/45/45
f 72/72/72 80/80/80 73/73/73
f 75/75/75 81/81/81 76/76/76
f 78/78/78 82/82/82 79/79/79
f 80/80/80 70/70/70 71/71/71
f 81/81/81 72/72/72 74/74/74
f 82/82/82 75/75/75 77/77/77
f 85/85/85 290/290/290 291/291/291
f 291/291/291 292/292/292 83/83/83
f 83/83/83 293/293/293 84/84/84
f 84/84/84 294/294/294 85/85/85
f 85/85/85 291/291/291 83/83/83
f 86/86/86 295/295/295 87/87/87
f 89/89/89 296/296/296 90/90/90
f 92/92/92 297/297/297 93/93/93
f 95/95/95 298/298/298 96/96/96
f 98/98/98 299/299/299 99/99/99
f 101/101/101 300/300/300 102/102/102
f 104/104/104 301/301/301 105/105/105
f 107/107/107 302/302/302 108/108/108
f 110/110/110 303/303/303 111/111/111
f 113/113/113 304/304/304 114/114/114
f 41/41/41 281/281/281 116/116/116
f 111/111/111 303/303/303 113/113/113
f 116/116/116 305/305/305 118/118/118
f 118/118/118 305/305/305 110/110/110
f 114/114/114 304/304/304 40/40/40
f 119/119/119 156/156/156 120/120/120
f 122/122/122 306/306/306 123/123/123
f 125/125/125 307/307/307 126/126/126
f 128/128/128 308/308/308 129/129/129
f 131/131/131 309/309/309 132/132/132
f 134/134/134 310/310/310 135/135/135
f 137/137/137 311/311/311 138/138/138
f 140/140/140 312/312/312 141/141/141
f 143/143/143 313/313/313 144/144/144
f 146/146/146 157/157/157 147/147/147
f 149/149/149 153/153/153 150/150/150
f 152/152/152 158/158/158 153/153/153
f 121/121/121 120/120/120 154/154/154
f 148/148/148 147/147/147 156/156/156
f 151/151/151 150/150/150 157/157/157
f 155/155/155 154/154/154 158/158/158
f 160/160/160 314/314/314 315/315/315
f 315/315/315 316/316/316 160/160/160
f 316/316/316 161/161/161 160/160/160
f 161/161/161 317/317/317 318/318/318
f 318/318/318 159/159/159 161/161/161
f 162/162/162 319/319/319 163/163/163
f 165/165/165 320/320/320 166/166/166
f 168/168/168 321/321/321 169/169/169
f 171/171/171 322/322/322 172/172/172
f 174/174/174 323/323/323 175/175/175
f 177/177/177 324/324/324 178/178/178
f 180/180/180 325/325/325 181/181/181
f 326/326/326 230/230/230 185/185/185
f 230/230/230 183/183/183 185/185/185
f 327/327/327 187/187/187 186/186/186
f 187/187/187 229/229/229 188/188/188
f 191/191/191 228/228/228 328/328/328
f 328/328/328 189/189/189 191/191/191
f 329/329/329 193/193/193 192/192/192
f 193/193/193 330/330/330 194/194/194
f 195/195/195 331/331/331 196/196/196
f 198/198/198 238/238/238 199/199/199
f 201/201/201 212/212/212 202/202/202
f 193/193/193 329/329/329 184/184/184
f 204/204/204 332/332/332 205/205/205
f 207/207/207 234/234/234 208/208/208
f 333/333/333 211/211/211 210/210/210
f 211/211/211 207/207/207 209/209/209
f 197/197/197 196/196/196 212/212/212
f 213/213/213 334/334/334 214/214/214
f 216/216/216 226/226/226 217/217/217
f 219/219/219 235/235/235 220/220/220
f 222/222/222 335/335/335 223/223/223
f 225/225/225 336/336/336 226/226/226
f 220/220/220 207/207/207 211/211/211
f 228/228/228 191/191/191 188/188/188
f 191/191/191 193/193/193 183/183/183
f 188/188/188 183/183/183 230/230/230
f 190/190/190 330/330/330 193/193/193
f 218/218/218 217/217/217 231/231/231
f 233/233/233 337/337/337 234/234/234
f 208/208/208 234/234/234 236/236/236
f 234/234/234 337/337/337 237/237/237
f 215/215/215 214/214/214 238/238/238
f 338/338/338 339/339/339 227/227/227
f 339/339/339 221/221/221 227/227/227
f 206/206/206 205/205/205 239/239/239
f 241/241/241 340/340/340 242/242/242
f 244/244/244 341/341/341 245/245/245
f 235/235/235 219/219/219 342/342/342
f 342/342/342 247/247/247 235/235/235
f 248/248/248 343/343/343 249/249/249
f 251/251/251 344/344/344 252/252/252
f 240/240/240 239/239/239 254/254/254
f 256/256/256 345/345/345 257/257/257
f 259/259/259 346/346/346 260/260/260
f 262/262/262 347/347/347 263/263/263
f 265/265/265 348/348/348 266/266/266
