# Cube -- imported by tools/import_asset_pack.py from LongBattery.fbx
o __pending__
v 0.043180 0.044967 0.014046
v 0.047141 0.046478 -0.000000
v 0.041539 0.046478 0.013524
v -0.031139 0.044967 0.019864
v -0.045184 -0.038807 0.014046
v -0.031139 -0.038807 0.019864
v -0.045184 0.044967 -0.014046
v -0.031139 -0.038807 -0.019864
v -0.045184 -0.038807 -0.014046
v 0.029134 -0.038807 0.019864
v -0.031139 0.044967 0.019864
v -0.031139 -0.038807 0.019864
v 0.028015 0.046478 0.019126
v 0.029134 0.044967 0.019864
v -0.031139 -0.038807 -0.019864
v -0.045184 -0.038807 0.014046
v -0.051002 -0.038807 0.000000
v 0.029134 -0.038807 0.019864
v 0.029134 -0.038807 -0.019864
v 0.043180 -0.038807 -0.014046
v -0.051002 0.044967 -0.000000
v -0.045184 -0.038807 -0.014046
v -0.051002 -0.038807 0.000000
v 0.029134 0.044967 -0.019864
v -0.031139 -0.038807 -0.019864
v -0.031139 0.044967 -0.019864
v 0.029134 0.044967 -0.019864
v 0.043180 -0.038807 -0.014046
v 0.029134 -0.038807 -0.019864
v 0.043180 0.044967 0.014046
v 0.029134 -0.038807 0.019864
v 0.043180 -0.038807 0.014046
v 0.029134 -0.038807 -0.019864
v -0.031139 -0.038807 0.019864
v -0.031139 -0.038807 -0.019864
v -0.045184 0.044967 0.014046
v -0.045184 -0.038807 0.014046
v 0.043180 0.044967 -0.014046
v 0.048998 -0.038807 0.000000
v 0.043180 -0.038807 -0.014046
v 0.048998 0.044967 -0.000000
v 0.043180 -0.038807 0.014046
v -0.031139 0.044967 -0.019864
v -0.043544 0.046478 -0.013524
v -0.030019 0.046478 -0.019126
v 0.029134 -0.038807 -0.019864
v 0.041047 -0.041187 -0.013368
v 0.027679 -0.041187 -0.018905
v 0.029134 -0.038807 0.019864
v 0.041047 -0.041187 0.013368
v 0.043180 -0.038807 0.014046
v 0.043180 -0.038807 -0.014046
v 0.046584 -0.041187 0.000000
v 0.041047 -0.041187 -0.013368
v -0.045184 -0.038807 -0.014046
v -0.048588 -0.041187 0.000000
v -0.051002 -0.038807 0.000000
v -0.029684 -0.041187 -0.018905
v -0.031139 -0.038807 -0.019864
v -0.043051 -0.041187 0.013368
v -0.031139 -0.038807 0.019864
v -0.045184 -0.038807 0.014046
v -0.045184 -0.038807 0.014046
v -0.043051 -0.041187 0.013368
v -0.031139 -0.038807 -0.019864
v -0.043051 -0.041187 -0.013368
v -0.045184 -0.038807 -0.014046
v -0.031139 -0.038807 0.019864
v 0.027679 -0.041187 0.018905
v 0.043180 -0.038807 0.014046
v 0.048998 -0.038807 0.000000
v 0.028015 0.046478 0.019126
v -0.027016 0.046478 0.017146
v -0.030019 0.046478 0.019126
v 0.028015 0.046478 -0.019126
v 0.037136 0.046478 -0.012124
v 0.041539 0.046478 -0.013524
v -0.030019 0.046478 -0.019126
v -0.039140 0.046478 -0.012124
v -0.027016 0.046478 -0.017146
v -0.030019 0.046478 -0.019126
v -0.045184 0.044967 0.014046
v -0.049146 0.046478 -0.000000
v -0.051002 0.044967 -0.000000
v -0.045184 0.044967 -0.014046
v -0.043544 0.046478 -0.013524
v 0.043180 0.044967 -0.014046
v 0.048998 0.044967 -0.000000
v 0.029134 0.044967 0.019864
v 0.041539 0.046478 0.013524
v 0.028015 0.046478 0.019126
v 0.041539 0.046478 -0.013524
v 0.043180 0.044967 -0.014046
v -0.043544 0.046478 0.013524
v -0.045184 0.044967 0.014046
v 0.042158 0.046478 -0.000000
v 0.037136 0.044613 0.012124
v 0.037136 0.046478 0.012124
v 0.025012 0.044613 0.017146
v -0.027016 0.046478 0.017146
v 0.025012 0.046478 0.017146
v 0.025012 0.046478 -0.017146
v 0.037136 0.044613 -0.012124
v 0.037136 0.046478 -0.012124
v 0.042158 0.046478 -0.000000
v 0.037136 0.046478 0.012124
v -0.030019 0.046478 -0.019126
v 0.025012 0.046478 -0.017146
v 0.028015 0.046478 -0.019126
v -0.044162 0.046478 -0.000000
v 0.028015 0.046478 0.019126
v 0.025012 0.046478 0.017146
v -0.030019 0.046478 0.019126
v -0.039140 0.046478 0.012124
v -0.043544 0.046478 0.013524
v -0.027016 0.044613 0.017146
v -0.027016 0.044613 -0.017146
v -0.039140 0.044613 -0.012124
v 0.025012 0.044613 -0.017146
v 0.025012 0.044613 0.017146
v 0.037136 0.044613 0.012124
v 0.025012 0.044613 0.017146
v -0.027016 0.044613 -0.017146
v -0.027016 0.044613 0.017146
v -0.027016 0.044613 -0.017146
v 0.025012 0.046478 -0.017146
v -0.027016 0.046478 -0.017146
v -0.044162 0.046478 -0.000000
v -0.039140 0.044613 -0.012124
v -0.039140 0.046478 -0.012124
v 0.037136 0.046478 0.012124
v 0.025012 0.044613 0.017146
v 0.025012 0.046478 0.017146
v 0.037136 0.046478 -0.012124
v 0.042158 0.044613 -0.000000
v -0.027016 0.046478 0.017146
v -0.039140 0.044613 0.012124
v -0.039140 0.046478 0.012124
v -0.039140 0.046478 0.012124
v -0.044162 0.044613 -0.000000
v -0.039140 0.046478 -0.012124
v -0.027016 0.044613 -0.017146
v -0.027016 0.046478 -0.017146
v 0.033958 0.046355 -0.004360
v 0.034653 0.045316 -0.004360
v 0.034488 0.044480 -0.004360
v 0.033958 0.046355 0.004360
v 0.015277 0.050055 0.004360
v 0.014940 0.048351 0.004360
v 0.014940 0.048351 -0.004360
v 0.014006 0.050307 -0.003064
v 0.015277 0.050055 -0.004360
v 0.034653 0.045316 -0.004360
v 0.034488 0.044480 0.004360
v 0.034488 0.044480 -0.004360
v 0.013242 0.050458 0.001184
v 0.012905 0.048754 -0.001184
v 0.012905 0.048754 0.001184
v 0.014940 0.048351 0.004360
v 0.014006 0.050307 0.003064
v 0.013669 0.048603 0.003064
v 0.013669 0.048603 -0.003064
v 0.014940 0.048351 -0.004360
v 0.014940 0.048351 0.004360
v 0.012905 0.048754 0.001184
v -0.001600 0.047742 0.004122
v 0.000420 0.047859 0.000913
v -0.001742 0.047804 -0.004597
v -0.001600 0.047742 0.004122
v -0.000248 0.046076 0.002792
v -0.000327 0.047811 0.002805
v -0.033482 0.046353 -0.004091
v -0.001742 0.047804 -0.004597
v -0.001663 0.046069 -0.004610
v -0.034257 0.045287 0.004636
v -0.034363 0.044574 -0.004089
v -0.034221 0.044513 0.004630
v 0.000382 0.047876 -0.001454
v 0.000500 0.046125 0.000900
v 0.000461 0.046141 -0.001468
v -0.000347 0.046119 -0.003335
v -0.000426 0.047854 -0.003321
v 0.000420 0.047859 0.000913
v -0.001521 0.046008 0.004108
v -0.001663 0.046069 -0.004610
v 0.000461 0.046141 -0.001468
v -0.033482 0.046353 -0.004091
v -0.033340 0.046291 0.004628
v -0.033340 0.046291 0.004628
v -0.034257 0.045287 0.004636
v -0.034221 0.044513 0.004630
v 0.033958 0.046355 0.004360
v 0.033958 0.046355 -0.004360
v 0.015277 0.050055 -0.004360
v 0.013242 0.050458 -0.001184
v 0.015277 0.050055 0.004360
v -0.030019 0.046478 0.019126
v -0.045184 -0.038807 -0.014046
v -0.031139 -0.038807 0.019864
v 0.048998 -0.038807 0.000000
v 0.043180 -0.038807 0.014046
v -0.045184 0.044967 -0.014046
v 0.029134 -0.038807 -0.019864
v 0.029134 -0.038807 0.019864
v 0.043180 0.044967 0.014046
v 0.043180 -0.038807 -0.014046
v -0.043051 -0.041187 -0.013368
v -0.029684 -0.041187 0.018905
v -0.029684 -0.041187 -0.018905
v -0.029684 -0.041187 0.018905
v 0.041047 -0.041187 0.013368
v 0.025012 0.046478 0.017146
v 0.025012 0.046478 -0.017146
v 0.028015 0.046478 -0.019126
v 0.028015 0.046478 -0.019126
v -0.030019 0.046478 0.019126
v -0.027016 0.044613 0.017146
v 0.025012 0.044613 -0.017146
v -0.027016 0.046478 -0.017146
v -0.027016 0.046478 0.017146
v -0.044162 0.044613 -0.000000
v -0.039140 0.044613 0.012124
v 0.042158 0.044613 -0.000000
v 0.037136 0.044613 -0.012124
v 0.025012 0.044613 -0.017146
v 0.025012 0.044613 -0.017146
v 0.037136 0.044613 0.012124
v 0.037136 0.044613 -0.012124
v -0.027016 0.044613 0.017146
v -0.039140 0.044613 0.012124
v -0.039140 0.044613 -0.012124
v 0.014940 0.048351 -0.004360
v 0.015277 0.050055 -0.004360
v 0.034488 0.044480 0.004360
v 0.034653 0.045316 0.004360
v 0.034653 0.045316 0.004360
v 0.013242 0.050458 -0.001184
v 0.015277 0.050055 0.004360
v 0.012905 0.048754 -0.001184
v 0.013669 0.048603 -0.003064
v 0.034488 0.044480 -0.004360
v 0.034488 0.044480 0.004360
v 0.013669 0.048603 0.003064
v -0.033482 0.046353 -0.004091
v -0.033340 0.046291 0.004628
v -0.000327 0.047811 0.002805
v 0.000382 0.047876 -0.001454
v -0.000426 0.047854 -0.003321
v -0.001521 0.046008 0.004108
v -0.034363 0.044574 -0.004089
v -0.034398 0.045349 -0.004083
v -0.034398 0.045349 -0.004083
v -0.000426 0.047854 -0.003321
v -0.000347 0.046119 -0.003335
v 0.000500 0.046125 0.000900
v -0.000248 0.046076 0.002792
v -0.034221 0.044513 0.004630
v -0.034363 0.044574 -0.004089
v -0.000347 0.046119 -0.003335
v -0.001521 0.046008 0.004108
v -0.001600 0.047742 0.004122
v 0.033958 0.046355 0.004360
v 0.033958 0.046355 -0.004360
v 0.014006 0.050307 -0.003064
v 0.013242 0.050458 0.001184
v 0.014006 0.050307 0.003064
vt 0.362943 0.088223
vt 0.346233 0.147740
vt 0.369968 0.090437
vt 0.673606 0.986077
vt 0.733077 0.630304
vt 0.673606 0.632426
vt 0.743945 0.596591
vt 0.803500 0.244966
vt 0.743945 0.242896
vt 0.593674 0.244402
vt 0.338294 0.598134
vt 0.338294 0.244439
vt 0.588938 0.604740
vt 0.593674 0.598097
vt 0.191726 0.228801
vt 0.132226 0.085123
vt 0.107580 0.144635
vt 0.007812 0.060473
vt 0.007812 0.228801
vt 0.067311 0.204152
vt 0.808266 0.990513
vt 0.867727 0.638043
vt 0.808266 0.636367
vt 0.007812 0.598113
vt 0.263192 0.244425
vt 0.263192 0.598076
vt 0.260801 0.986104
vt 0.322670 0.630732
vt 0.263187 0.632417
vt 0.340615 0.984396
vt 0.397861 0.632467
vt 0.338294 0.630753
vt 0.823860 0.349411
vt 0.992188 0.604776
vt 0.823860 0.604775
vt 0.748701 0.992171
vt 0.748701 0.638026
vt 0.609297 0.604568
vt 0.668958 0.249831
vt 0.609297 0.249623
vt 0.668958 0.604776
vt 0.728321 0.249617
vt 0.803500 0.598660
vt 0.750893 0.602783
vt 0.808236 0.604776
vt 0.263187 0.632417
vt 0.313697 0.620382
vt 0.257085 0.621986
vt 0.397861 0.632467
vt 0.347259 0.620399
vt 0.338294 0.630753
vt 0.609297 0.249623
vt 0.668896 0.239660
vt 0.612116 0.239462
vt 0.132226 0.204149
vt 0.118021 0.144624
vt 0.107580 0.144635
vt 0.014040 0.620382
vt 0.007812 0.630732
vt 0.278816 0.097843
vt 0.288300 0.047717
vt 0.288300 0.107224
vt 0.132226 0.085123
vt 0.141477 0.087985
vt 0.798763 0.049313
vt 0.808236 0.099532
vt 0.798763 0.108906
vt 0.653236 0.630753
vt 0.403951 0.622030
vt 0.728321 0.249617
vt 0.668958 0.249831
vt 0.302827 0.358917
vt 0.311215 0.592036
vt 0.302827 0.604759
vt 0.427267 0.228779
vt 0.388623 0.199112
vt 0.369968 0.205043
vt 0.468340 0.228779
vt 0.506984 0.199112
vt 0.455615 0.220391
vt 0.258456 0.604723
vt 0.532518 0.088223
vt 0.549374 0.147739
vt 0.557167 0.147735
vt 0.532518 0.207249
vt 0.525640 0.205043
vt 0.362943 0.207249
vt 0.338294 0.147736
vt 0.400183 0.986110
vt 0.347604 0.990538
vt 0.404959 0.992188
vt 0.313288 0.990565
vt 0.320285 0.984418
vt 0.726122 0.990145
vt 0.733077 0.983955
vt 0.798906 0.175856
vt 0.808236 0.124529
vt 0.800353 0.124529
vt 0.302377 0.343294
vt 0.310217 0.122848
vt 0.310250 0.343294
vt 0.855220 0.046396
vt 0.847352 0.097484
vt 0.855220 0.097765
vt 0.367346 0.147740
vt 0.388623 0.096368
vt 0.287203 0.604759
vt 0.278816 0.371640
vt 0.287204 0.358917
vt 0.528262 0.147739
vt 0.427267 0.066701
vt 0.439992 0.075089
vt 0.468340 0.066701
vt 0.506984 0.096368
vt 0.525640 0.090436
vt 0.697567 0.078531
vt 0.697567 0.223833
vt 0.748936 0.202554
vt 0.681944 0.223833
vt 0.681944 0.078531
vt 0.630575 0.099811
vt 0.823860 0.113391
vt 0.969162 0.333784
vt 0.823860 0.333787
vt 0.278847 0.343294
vt 0.286689 0.122848
vt 0.286721 0.343294
vt 0.914687 0.782113
vt 0.906970 0.833356
vt 0.914871 0.833356
vt 0.823860 0.097764
vt 0.831729 0.046052
vt 0.823860 0.046325
vt 0.800338 0.227273
vt 0.806790 0.175856
vt 0.878713 0.046397
vt 0.870844 0.097488
vt 0.878713 0.097764
vt 0.914866 0.730614
vt 0.906786 0.782113
vt 0.303923 0.107224
vt 0.311791 0.055506
vt 0.303923 0.055784
vt 0.943252 0.911501
vt 0.939517 0.907758
vt 0.935919 0.907763
vt 0.958875 0.911503
vt 0.958875 0.992177
vt 0.966207 0.992188
vt 0.902753 0.097764
vt 0.894756 0.092282
vt 0.895455 0.097761
vt 0.921932 0.097747
vt 0.918382 0.060805
vt 0.918384 0.097751
vt 0.894338 0.074290
vt 0.901634 0.084326
vt 0.901636 0.074293
vt 0.902758 0.060818
vt 0.894759 0.066318
vt 0.902057 0.066321
vt 0.902054 0.092285
vt 0.943731 0.706336
vt 0.906785 0.706328
vt 0.920242 0.714988
vt 0.920296 0.857751
vt 0.906840 0.848979
vt 0.883350 0.857764
vt 0.943266 0.860623
vt 0.936164 0.866108
vt 0.943511 0.866173
vt 0.883821 0.693152
vt 0.883350 0.827789
vt 0.890677 0.827807
vt 0.887856 0.636473
vt 0.891121 0.673421
vt 0.891121 0.636479
vt 0.943519 0.884206
vt 0.936267 0.874108
vt 0.936172 0.884141
vt 0.891162 0.833356
vt 0.943266 0.892135
vt 0.943614 0.874173
vt 0.207349 0.090383
vt 0.244295 0.090396
vt 0.230838 0.081621
vt 0.883350 0.673468
vt 0.883350 0.636525
vt 0.580126 0.094146
vt 0.576067 0.090081
vt 0.572791 0.090085
vt 0.926308 0.060819
vt 0.926310 0.097764
vt 0.930495 0.824716
vt 0.943951 0.833356
vt 0.967441 0.824711
vt 0.343041 0.604776
vt 0.132226 0.204149
vt 0.191726 0.060473
vt 0.091957 0.144639
vt 0.067311 0.085126
vt 0.867727 0.992188
vt 0.007812 0.244462
vt 0.992188 0.349412
vt 0.728321 0.604562
vt 0.322670 0.630732
vt 0.141477 0.201265
vt 0.278816 0.041209
vt 0.808236 0.042817
vt 0.646996 0.620399
vt 0.725394 0.239457
vt 0.311215 0.371640
vt 0.439992 0.220391
vt 0.012559 0.604759
vt 0.256013 0.992188
vt 0.668859 0.992188
vt 0.302345 0.122848
vt 0.847352 0.046116
vt 0.278816 0.592036
vt 0.455615 0.075089
vt 0.770213 0.151182
vt 0.748936 0.099810
vt 0.609298 0.151183
vt 0.630575 0.202554
vt 0.969162 0.113388
vt 0.278816 0.122848
vt 0.831729 0.097491
vt 0.808222 0.227273
vt 0.870844 0.046121
vt 0.906965 0.730614
vt 0.311791 0.106946
vt 0.935919 0.992188
vt 0.943252 0.992179
vt 0.966207 0.907768
vt 0.962609 0.907762
vt 0.921930 0.060801
vt 0.894336 0.084323
vt 0.895460 0.060815
vt 0.930275 0.714990
vt 0.938241 0.711742
vt 0.943731 0.623179
vt 0.906785 0.623172
vt 0.912276 0.711737
vt 0.883350 0.992188
vt 0.920296 0.992175
vt 0.914805 0.852271
vt 0.896806 0.848983
vt 0.888841 0.852280
vt 0.935919 0.860558
vt 0.891162 0.689099
vt 0.887890 0.689091
vt 0.887856 0.673415
vt 0.883835 0.833337
vt 0.935919 0.892070
vt 0.220805 0.081617
vt 0.212840 0.084906
vt 0.207349 0.228788
vt 0.244295 0.228801
vt 0.238804 0.084916
vt 0.572791 0.228779
vt 0.580126 0.228768
vt 0.967441 0.745387
vt 0.930495 0.745391
vt 0.935986 0.830113
vt 0.953985 0.833355
vt 0.961950 0.830110
vn 0.675679 0.362266 0.642045
vn 0.404746 0.914429 -0.000000
vn 0.293869 0.881313 0.370038
vn -0.210440 0.277568 0.937375
vn -0.565150 -0.625283 0.538169
vn -0.175220 -0.590877 0.787504
vn -0.675679 0.362265 -0.642045
vn -0.175974 -0.584094 -0.792381
vn -0.565036 -0.625288 -0.538283
vn 0.175974 -0.584094 0.792381
vn -0.210440 0.277568 0.937375
vn -0.175220 -0.590877 0.787504
vn 0.069994 0.839409 0.538974
vn 0.210443 0.277568 0.937374
vn -0.175227 -0.590814 -0.787549
vn -0.557184 -0.639435 0.529781
vn -0.747819 -0.663903 0.000062
vn 0.175227 -0.590814 0.787550
vn 0.175252 -0.590814 -0.787544
vn 0.557184 -0.639436 -0.529781
vn -0.919387 0.393355 0.000002
vn -0.565036 -0.625288 -0.538283
vn -0.760340 -0.649526 -0.000034
vn 0.210440 0.277567 -0.937375
vn -0.175974 -0.584094 -0.792381
vn -0.210443 0.277568 -0.937374
vn 0.210440 0.277567 -0.937375
vn 0.565040 -0.625288 -0.538279
vn 0.175220 -0.590877 -0.787504
vn 0.675679 0.362266 0.642045
vn 0.175974 -0.584094 0.792381
vn 0.565036 -0.625288 0.538283
vn 0.175252 -0.590814 -0.787544
vn -0.175252 -0.590814 0.787544
vn -0.175227 -0.590814 -0.787549
vn -0.675676 0.362265 0.642048
vn -0.565150 -0.625283 0.538169
vn 0.675676 0.362265 -0.642048
vn 0.760340 -0.649526 0.000034
vn 0.565040 -0.625288 -0.538279
vn 0.919386 0.393356 -0.000002
vn 0.565036 -0.625288 0.538283
vn -0.210443 0.277568 -0.937374
vn -0.293869 0.881313 -0.370039
vn -0.069994 0.839408 -0.538975
vn 0.174681 -0.592327 -0.786534
vn 0.496921 -0.618762 -0.608443
vn 0.123690 -0.435018 -0.891886
vn 0.175115 -0.591142 0.787328
vn 0.496921 -0.618762 0.608443
vn 0.557094 -0.639363 0.529964
vn 0.557094 -0.639363 -0.529963
vn 0.702060 -0.712118 0.000000
vn 0.496921 -0.618762 -0.608443
vn -0.557095 -0.639362 -0.529964
vn -0.702060 -0.712118 0.000000
vn -0.747772 -0.663955 0.000004
vn -0.123690 -0.435019 -0.891885
vn -0.175115 -0.591143 -0.787328
vn -0.496922 -0.618761 0.608443
vn -0.174681 -0.592326 0.786534
vn -0.557095 -0.639362 0.529964
vn -0.557095 -0.639362 0.529964
vn -0.496922 -0.618761 0.608443
vn -0.175115 -0.591143 -0.787328
vn -0.496922 -0.618761 -0.608443
vn -0.557095 -0.639362 -0.529964
vn -0.174681 -0.592326 0.786534
vn 0.123690 -0.435018 0.891886
vn 0.557094 -0.639363 0.529964
vn 0.747772 -0.663956 -0.000004
vn 0.069994 0.839409 0.538974
vn 0.128202 0.753762 -0.644520
vn -0.069994 0.839410 0.538973
vn 0.069994 0.839410 -0.538973
vn -0.420289 0.804186 0.420289
vn 0.293869 0.881313 -0.370038
vn -0.069994 0.839408 -0.538975
vn 0.420289 0.804186 0.420288
vn 0.128202 0.753767 0.644515
vn -0.069994 0.839408 -0.538975
vn -0.675676 0.362265 0.642048
vn -0.404747 0.914429 -0.000000
vn -0.919387 0.393355 0.000002
vn -0.675679 0.362265 -0.642045
vn -0.293869 0.881313 -0.370039
vn 0.675676 0.362265 -0.642048
vn 0.919386 0.393356 -0.000002
vn 0.210443 0.277568 0.937374
vn 0.293869 0.881313 0.370038
vn 0.069994 0.839409 0.538974
vn 0.293869 0.881313 -0.370038
vn 0.675676 0.362265 -0.642048
vn -0.293869 0.881313 0.370038
vn -0.675676 0.362265 0.642048
vn -0.594392 0.804176 -0.000000
vn -0.548991 0.630253 -0.548991
vn -0.420289 0.804186 -0.420288
vn -0.145577 0.665713 -0.731870
vn 0.128202 0.753762 -0.644520
vn -0.128202 0.753766 -0.644516
vn -0.128202 0.753763 0.644520
vn -0.548984 0.630265 0.548983
vn -0.420289 0.804186 0.420289
vn -0.594392 0.804176 -0.000000
vn -0.420289 0.804186 -0.420288
vn -0.069994 0.839408 -0.538975
vn -0.128202 0.753763 0.644520
vn 0.069994 0.839410 -0.538973
vn 0.594392 0.804176 0.000000
vn 0.069994 0.839409 0.538974
vn -0.128202 0.753766 -0.644516
vn -0.069994 0.839410 0.538973
vn 0.420289 0.804186 -0.420289
vn -0.293869 0.881313 0.370038
vn 0.145577 0.665721 -0.731863
vn 0.145577 0.665713 0.731870
vn 0.548991 0.630253 0.548991
vn -0.145577 0.665721 0.731863
vn -0.145577 0.665713 -0.731870
vn -0.548991 0.630253 -0.548991
vn -0.145577 0.665713 -0.731870
vn 0.145577 0.665713 0.731870
vn 0.145577 0.665721 -0.731863
vn 0.145577 0.665713 0.731870
vn -0.128202 0.753763 0.644520
vn 0.128202 0.753767 0.644515
vn 0.594392 0.804176 0.000000
vn 0.548991 0.630253 0.548991
vn 0.420289 0.804186 0.420288
vn -0.420289 0.804186 -0.420288
vn -0.145577 0.665713 -0.731870
vn -0.128202 0.753766 -0.644516
vn -0.420289 0.804186 0.420289
vn -0.776388 0.630255 -0.000001
vn 0.128202 0.753762 -0.644520
vn 0.548984 0.630265 -0.548984
vn 0.420289 0.804186 -0.420289
vn 0.420289 0.804186 -0.420289
vn 0.776388 0.630256 0.000001
vn 0.420289 0.804186 0.420288
vn 0.145577 0.665713 0.731870
vn 0.128202 0.753767 0.644515
vn 0.430798 0.645900 -0.630259
vn 0.761345 0.152100 -0.630253
vn 0.454206 -0.678503 -0.577348
vn 0.430798 0.645892 0.630267
vn -0.169018 0.675956 0.717298
vn -0.413899 -0.560504 0.717302
vn -0.413898 -0.560501 -0.717306
vn -0.479302 0.773558 -0.414580
vn -0.169014 0.675960 -0.717295
vn 0.761345 0.152100 -0.630253
vn 0.454199 -0.678518 0.577336
vn 0.454206 -0.678503 -0.577348
vn -0.588610 0.795202 0.145577
vn -0.847263 -0.510834 -0.145582
vn -0.847264 -0.510831 0.145584
vn -0.413899 -0.560504 0.717302
vn -0.479310 0.773555 0.414577
vn -0.737951 -0.532508 0.414564
vn -0.737945 -0.532514 -0.414567
vn -0.413898 -0.560501 -0.717306
vn -0.413899 -0.560504 0.717302
vn -0.847264 -0.510831 0.145584
vn 0.279735 0.638096 0.717343
vn 0.703077 0.697383 0.139071
vn 0.256413 0.648162 -0.717034
vn 0.279735 0.638096 0.717343
vn 0.656790 -0.639569 0.399473
vn 0.596133 0.690436 0.409785
vn -0.339677 0.707368 -0.619879
vn 0.256413 0.648162 -0.717034
vn 0.313808 -0.610969 -0.726802
vn -0.719737 0.259615 0.643878
vn -0.559773 -0.599047 -0.572535
vn -0.541007 -0.607137 0.581976
vn 0.698332 0.699439 -0.152044
vn 0.763704 -0.632599 0.128742
vn 0.758979 -0.630544 -0.162373
vn 0.643303 -0.633759 -0.429548
vn 0.582663 0.696245 -0.419221
vn 0.703077 0.697383 0.139071
vn 0.337130 -0.621034 0.707574
vn 0.313808 -0.610969 -0.726802
vn 0.758979 -0.630544 -0.162373
vn -0.339677 0.707368 -0.619879
vn -0.319185 0.698530 0.640451
vn -0.319185 0.698530 0.640451
vn -0.719737 0.259615 0.643878
vn -0.541007 -0.607137 0.581976
vn 0.430798 0.645892 0.630267
vn 0.430798 0.645900 -0.630259
vn -0.169014 0.675960 -0.717295
vn -0.588606 0.795205 -0.145579
vn -0.169018 0.675956 0.717298
vn -0.069994 0.839410 0.538973
vn -0.557207 -0.639436 -0.529756
vn -0.175252 -0.590814 0.787544
vn 0.747818 -0.663903 -0.000061
vn 0.557208 -0.639435 0.529756
vn -0.675679 0.362265 -0.642045
vn 0.175220 -0.590877 -0.787504
vn 0.175227 -0.590814 0.787550
vn 0.675679 0.362266 0.642045
vn 0.557094 -0.639363 -0.529963
vn -0.496922 -0.618761 -0.608443
vn -0.123690 -0.435017 0.891886
vn -0.123690 -0.435019 -0.891885
vn -0.123690 -0.435017 0.891886
vn 0.496921 -0.618762 0.608443
vn -0.128202 0.753766 -0.644516
vn -0.128202 0.753763 0.644520
vn 0.069994 0.839410 -0.538973
vn 0.069994 0.839410 -0.538973
vn -0.069994 0.839410 0.538973
vn 0.145577 0.665721 -0.731863
vn -0.145577 0.665721 0.731863
vn 0.128202 0.753767 0.644515
vn 0.128202 0.753762 -0.644520
vn 0.776388 0.630256 0.000001
vn 0.548984 0.630265 -0.548984
vn -0.776388 0.630255 -0.000001
vn -0.548984 0.630265 0.548983
vn -0.145577 0.665721 0.731863
vn -0.145577 0.665721 0.731863
vn -0.548991 0.630253 -0.548991
vn -0.548984 0.630265 0.548983
vn 0.145577 0.665721 -0.731863
vn 0.548984 0.630265 -0.548984
vn 0.548991 0.630253 0.548991
vn -0.413898 -0.560501 -0.717306
vn -0.169014 0.675960 -0.717295
vn 0.454199 -0.678518 0.577336
vn 0.761343 0.152103 0.630256
vn 0.761343 0.152103 0.630256
vn -0.588606 0.795205 -0.145579
vn -0.169018 0.675956 0.717298
vn -0.847263 -0.510834 -0.145582
vn -0.737945 -0.532514 -0.414567
vn 0.454206 -0.678503 -0.577348
vn 0.454199 -0.678518 0.577336
vn -0.737951 -0.532508 0.414564
vn -0.339677 0.707368 -0.619879
vn -0.319185 0.698530 0.640451
vn 0.596133 0.690436 0.409785
vn 0.698332 0.699439 -0.152044
vn 0.582663 0.696245 -0.419221
vn 0.337130 -0.621034 0.707574
vn -0.559773 -0.599047 -0.572535
vn -0.740227 0.268465 -0.616434
vn -0.740227 0.268465 -0.616434
vn 0.582663 0.696245 -0.419221
vn 0.643303 -0.633759 -0.429548
vn 0.763704 -0.632599 0.128742
vn 0.656790 -0.639569 0.399473
vn -0.541007 -0.607137 0.581976
vn -0.559773 -0.599047 -0.572535
vn 0.643303 -0.633759 -0.429548
vn 0.337130 -0.621034 0.707574
vn 0.279735 0.638096 0.717343
vn 0.430798 0.645892 0.630267
vn 0.430798 0.645900 -0.630259
vn -0.479302 0.773558 -0.414580
vn -0.588610 0.795202 0.145577
vn -0.479310 0.773555 0.414577
f 1/1/1 2/2/2 3/3/3
f 4/4/4 5/5/5 6/6/6
f 7/7/7 8/8/8 9/9/9
f 10/10/10 11/11/11 12/12/12
f 13/13/13 11/11/11 14/14/14
f 15/15/15 16/16/16 17/17/17
f 18/18/18 19/19/19 20/20/20
f 21/21/21 22/22/22 23/23/23
f 24/24/24 25/25/25 26/26/26
f 27/27/27 28/28/28 29/29/29
f 30/30/30 31/31/31 32/32/32
f 33/33/33 34/34/34 35/35/35
f 36/36/36 23/23/23 37/37/37
f 38/38/38 39/39/39 40/40/40
f 41/41/41 42/42/42 39/39/39
f 43/43/43 44/44/44 45/45/45
f 46/46/46 47/47/47 48/48/48
f 49/49/49 50/50/50 51/51/51
f 52/52/52 53/53/53 54/54/54
f 55/55/55 56/56/56 57/57/57
f 46/46/46 58/58/58 59/59/59
f 60/60/60 61/61/61 62/62/62
f 63/63/63 56/56/56 64/64/64
f 65/65/65 66/66/66 67/67/67
f 68/68/68 69/69/69 49/49/49
f 70/70/70 53/53/53 71/71/71
f 72/72/72 73/73/73 74/74/74
f 75/75/75 76/76/76 77/77/77
f 78/78/78 79/79/79 80/80/80
f 81/81/81 24/24/24 26/26/26
f 82/82/82 83/83/83 84/84/84
f 85/85/85 83/83/83 86/86/86
f 87/87/87 2/2/2 88/88/88
f 89/89/89 90/90/90 91/91/91
f 27/27/27 92/92/92 93/93/93
f 4/4/4 94/94/94 95/95/95
f 96/96/96 97/97/97 98/98/98
f 99/99/99 100/100/100 101/101/101
f 102/102/102 103/103/103 104/104/104
f 3/3/3 105/105/105 106/106/106
f 107/107/107 108/108/108 109/109/109
f 86/86/86 110/110/110 79/79/79
f 111/111/111 106/106/106 112/112/112
f 77/77/77 105/105/105 2/2/2
f 113/113/113 114/114/114 115/115/115
f 115/115/115 110/110/110 83/83/83
f 116/116/116 117/117/117 118/118/118
f 119/119/119 120/120/120 121/121/121
f 122/122/122 123/123/123 124/124/124
f 125/125/125 126/126/126 127/127/127
f 128/128/128 129/129/129 130/130/130
f 131/131/131 132/132/132 133/133/133
f 134/134/134 135/135/135 96/96/96
f 136/136/136 137/137/137 138/138/138
f 139/139/139 140/140/140 128/128/128
f 141/141/141 142/142/142 143/143/143
f 144/144/144 145/145/145 146/146/146
f 147/147/147 148/148/148 149/149/149
f 150/150/150 151/151/151 152/152/152
f 153/153/153 154/154/154 155/155/155
f 156/156/156 157/157/157 158/158/158
f 159/159/159 160/160/160 161/161/161
f 158/158/158 160/160/160 156/156/156
f 157/157/157 151/151/151 162/162/162
f 163/163/163 164/164/164 165/165/165
f 166/166/166 167/167/167 168/168/168
f 169/169/169 170/170/170 171/171/171
f 172/172/172 173/173/173 174/174/174
f 175/175/175 176/176/176 177/177/177
f 178/178/178 179/179/179 180/180/180
f 173/173/173 181/181/181 174/174/174
f 180/180/180 182/182/182 178/178/178
f 183/183/183 170/170/170 179/179/179
f 184/184/184 185/185/185 186/186/186
f 187/187/187 175/175/175 188/188/188
f 189/189/189 190/190/190 191/191/191
f 192/192/192 153/153/153 193/193/193
f 194/194/194 195/195/195 196/196/196
f 1/1/1 88/88/88 2/2/2
f 4/4/4 95/95/95 5/5/5
f 7/7/7 43/43/43 8/8/8
f 10/10/10 14/14/14 11/11/11
f 13/13/13 197/197/197 11/11/11
f 17/17/17 198/198/198 15/15/15
f 15/15/15 199/199/199 16/16/16
f 200/200/200 201/201/201 20/20/20
f 201/201/201 18/18/18 20/20/20
f 21/21/21 202/202/202 22/22/22
f 24/24/24 203/203/203 25/25/25
f 27/27/27 93/93/93 28/28/28
f 30/30/30 89/89/89 31/31/31
f 33/33/33 204/204/204 34/34/34
f 36/36/36 21/21/21 23/23/23
f 38/38/38 41/41/41 39/39/39
f 41/41/41 205/205/205 42/42/42
f 43/43/43 7/7/7 44/44/44
f 46/46/46 206/206/206 47/47/47
f 49/49/49 69/69/69 50/50/50
f 52/52/52 71/71/71 53/53/53
f 55/55/55 207/207/207 56/56/56
f 46/46/46 48/48/48 58/58/58
f 60/60/60 208/208/208 61/61/61
f 63/63/63 57/57/57 56/56/56
f 65/65/65 209/209/209 66/66/66
f 68/68/68 210/210/210 69/69/69
f 70/70/70 211/211/211 53/53/53
f 72/72/72 212/212/212 73/73/73
f 75/75/75 213/213/213 76/76/76
f 78/78/78 86/86/86 79/79/79
f 81/81/81 214/214/214 24/24/24
f 82/82/82 115/115/115 83/83/83
f 85/85/85 84/84/84 83/83/83
f 87/87/87 77/77/77 2/2/2
f 89/89/89 30/30/30 90/90/90
f 27/27/27 215/215/215 92/92/92
f 4/4/4 216/216/216 94/94/94
f 96/96/96 135/135/135 97/97/97
f 99/99/99 217/217/217 100/100/100
f 102/102/102 218/218/218 103/103/103
f 3/3/3 2/2/2 105/105/105
f 107/107/107 219/219/219 108/108/108
f 86/86/86 83/83/83 110/110/110
f 111/111/111 3/3/3 106/106/106
f 77/77/77 76/76/76 105/105/105
f 113/113/113 220/220/220 114/114/114
f 115/115/115 114/114/114 110/110/110
f 221/221/221 222/222/222 118/118/118
f 222/222/222 116/116/116 118/118/118
f 223/223/223 224/224/224 121/121/121
f 224/224/224 119/119/119 121/121/121
f 122/122/122 225/225/225 123/123/123
f 125/125/125 226/226/226 126/126/126
f 128/128/128 140/140/140 129/129/129
f 131/131/131 227/227/227 132/132/132
f 134/134/134 228/228/228 135/135/135
f 136/136/136 229/229/229 137/137/137
f 139/139/139 230/230/230 140/140/140
f 141/141/141 231/231/231 142/142/142
f 146/146/146 232/232/232 144/144/144
f 232/232/232 233/233/233 144/144/144
f 149/149/149 234/234/234 147/147/147
f 234/234/234 235/235/235 147/147/147
f 150/150/150 162/162/162 151/151/151
f 153/153/153 236/236/236 154/154/154
f 156/156/156 237/237/237 157/157/157
f 159/159/159 238/238/238 160/160/160
f 158/158/158 161/161/161 160/160/160
f 157/157/157 237/237/237 151/151/151
f 165/165/165 239/239/239 163/163/163
f 239/239/239 240/240/240 163/163/163
f 163/163/163 241/241/241 164/164/164
f 241/241/241 242/242/242 164/164/164
f 164/164/164 243/243/243 165/165/165
f 244/244/244 245/245/245 166/166/166
f 166/166/166 246/246/246 167/167/167
f 167/167/167 247/247/247 168/168/168
f 247/247/247 248/248/248 168/168/168
f 168/168/168 244/244/244 166/166/166
f 169/169/169 249/249/249 170/170/170
f 174/174/174 250/250/250 172/172/172
f 250/250/250 251/251/251 172/172/172
f 175/175/175 252/252/252 176/176/176
f 178/178/178 183/183/183 179/179/179
f 173/173/173 253/253/253 181/181/181
f 180/180/180 254/254/254 182/182/182
f 183/183/183 171/171/171 170/170/170
f 186/186/186 255/255/255 184/184/184
f 255/255/255 256/256/256 184/184/184
f 184/184/184 257/257/257 185/185/185
f 257/257/257 258/258/258 185/185/185
f 185/185/185 259/259/259 186/186/186
f 187/187/187 252/252/252 175/175/175
f 191/191/191 260/260/260 189/189/189
f 260/260/260 261/261/261 189/189/189
f 192/192/192 236/236/236 153/153/153
f 262/262/262 263/263/263 194/194/194
f 194/194/194 264/264/264 195/195/195
f 195/195/195 265/265/265 196/196/196
f 265/265/265 266/266/266 196/196/196
f 196/196/196 262/262/262 194/194/194
