# Cube.001 -- imported by tools/import_asset_pack.py from Machete2.fbx
o __pending__
v -0.009007 0.012042 0.238265
v 0.013974 0.007227 0.248233
v 0.013926 0.011810 0.237758
v 0.022209 -0.017492 0.246286
v -0.008959 0.007464 0.248741
v -0.018719 -0.017077 0.247192
v -0.011983 -0.042877 0.234389
v 0.013761 -0.041680 0.244708
v -0.011733 -0.041417 0.245272
v 0.022034 -0.016714 0.235555
v 0.013974 0.007227 0.248233
v 0.022209 -0.017492 0.246286
v 0.010523 0.003786 0.222757
v 0.021946 -0.010812 0.221431
v -0.013341 -0.030581 0.220756
v 0.013512 -0.043135 0.233825
v -0.008959 0.007464 0.248741
v -0.018894 -0.016300 0.236460
v -0.018719 -0.017077 0.247192
v 0.010523 0.003786 0.222757
v 0.010060 0.005535 0.198603
v -0.007277 0.004114 0.223122
v -0.005775 -0.028683 0.196379
v 0.015082 -0.030868 0.220127
v 0.016755 -0.009151 0.197409
v -0.007277 0.004114 0.223122
v -0.018982 -0.010398 0.222337
v 0.003942 -0.002963 0.078800
v 0.008209 0.012942 0.094883
v 0.017911 -0.004902 0.093377
v 0.005830 -0.028387 0.076079
v -0.014302 -0.019171 0.091511
v -0.007544 -0.028703 0.076195
v -0.007536 0.018269 0.081014
v 0.008209 0.012942 0.094883
v 0.003409 0.018585 0.080878
v -0.016689 -0.001993 0.111835
v -0.013539 0.012428 0.095072
v -0.020902 -0.005818 0.093715
v -0.007003 -0.003278 0.078937
v -0.014302 -0.019171 0.091511
v -0.006464 -0.022886 0.076831
v -0.007544 -0.028703 0.076195
v -0.007198 -0.022030 0.110749
v -0.014455 -0.021140 0.092003
v 0.005636 -0.022570 0.076704
v 0.012651 -0.018534 0.091277
v 0.005830 -0.028387 0.076079
v -0.019515 -0.036736 0.234995
v -0.013341 -0.030581 0.220756
v -0.011983 -0.042877 0.234389
v 0.011594 -0.024575 0.196391
v 0.015082 -0.030868 0.220127
v 0.007670 -0.029249 0.196166
v -0.019515 -0.036736 0.234995
v 0.021413 -0.037150 0.234089
v 0.013512 -0.043135 0.233825
v 0.021413 -0.037150 0.234089
v 0.013761 -0.041680 0.244708
v -0.019288 -0.035941 0.245833
v -0.011733 -0.041417 0.245272
v -0.014455 -0.021140 0.092003
v -0.011475 -0.017407 0.110946
v 0.012498 -0.013947 0.091769
v -0.013201 -0.025977 0.221086
v 0.015222 -0.026265 0.220457
v -0.019288 -0.035941 0.245833
v 0.021640 -0.036363 0.244927
v 0.021640 -0.036363 0.244927
v 0.003409 0.018585 0.080878
v -0.007544 -0.028703 0.076195
v -0.007536 0.018269 0.081014
v -0.005348 -0.000816 0.056752
v -0.001370 0.027311 -0.031716
v -0.000272 0.004149 -0.041130
v 0.001328 0.016679 0.058519
v -0.005567 0.013500 0.081049
v 0.001694 0.013710 0.080958
v -0.000467 -0.023414 0.054258
v -0.005329 -0.025591 0.076843
v -0.001996 -0.023458 0.054277
v 0.001691 -0.000613 0.056664
v 0.001694 0.013710 0.080958
v 0.002159 -0.003182 0.079144
v -0.002396 0.076072 -0.259192
v -0.002034 0.082837 -0.300075
v -0.004504 0.082771 -0.300032
v -0.001226 0.006287 -0.270383
v -0.002575 0.015900 -0.287951
v -0.001784 0.015921 -0.287965
v -0.003273 0.074857 -0.239985
v 0.002389 0.076201 -0.259274
v 0.000056 0.020020 -0.268226
v -0.001784 0.015921 -0.287965
v -0.000476 0.028557 -0.286016
v -0.004504 0.082771 -0.300032
v -0.001384 0.076885 -0.299029
v -0.004846 0.076792 -0.298969
v -0.001950 0.046488 -0.296775
v -0.000782 0.055568 -0.295733
v -0.002396 0.076072 -0.259192
v -0.004504 0.082771 -0.300032
v -0.004846 0.076792 -0.298969
v -0.001784 0.015921 -0.287965
v -0.002741 0.046466 -0.296761
v -0.001950 0.046488 -0.296775
v -0.000989 -0.003255 -0.206322
v 0.000159 0.011637 -0.226860
v 0.000316 0.009476 -0.204395
v -0.001599 0.002474 -0.249624
v -0.000308 0.015832 -0.247539
v -0.001226 0.006287 -0.270383
v 0.004977 0.050867 -0.161220
v -0.002383 0.053641 -0.179684
v -0.002285 0.050673 -0.161101
v 0.004879 0.053836 -0.179808
v -0.002657 0.065430 -0.215676
v 0.004604 0.065625 -0.215800
v -0.000989 -0.003255 -0.206322
v -0.001932 -0.001339 -0.228855
v -0.001142 -0.001318 -0.228869
v -0.002390 0.002453 -0.249610
v -0.001599 0.002474 -0.249624
v -0.002017 0.006266 -0.270369
v -0.001863 0.037468 -0.204415
v -0.002657 0.065430 -0.215676
v -0.002362 0.043024 -0.224836
v -0.003273 0.074857 -0.239985
v -0.002671 0.060294 -0.244714
v -0.004288 0.015725 -0.247470
v -0.002017 0.006266 -0.270369
v -0.002390 0.002453 -0.249610
v -0.003821 0.011530 -0.226792
v -0.001932 -0.001339 -0.228855
v -0.001780 -0.003276 -0.206309
v 0.003453 0.049358 -0.246862
v 0.003270 0.043176 -0.224932
v 0.003769 0.037620 -0.204512
v 0.003973 0.033519 -0.182503
v -0.004456 0.028450 -0.285948
v -0.002741 0.046466 -0.296761
v -0.002575 0.015900 -0.287951
v 0.003255 0.053226 -0.259596
v -0.001384 0.076885 -0.299029
v -0.002741 0.046466 -0.296761
v -0.000782 0.055568 -0.295733
v -0.001950 0.046488 -0.296775
v 0.003276 0.052991 -0.258699
v -0.000467 -0.023414 0.054258
v 0.003375 -0.020302 0.077311
v 0.003545 -0.025381 0.076766
v -0.003924 0.019913 -0.268158
v -0.001996 -0.023458 0.054277
v -0.002657 -0.004209 -0.060564
v -0.000815 -0.015032 -0.062239
v -0.005499 -0.020512 0.077389
v -0.005329 -0.025591 0.076843
v 0.001323 -0.004102 -0.060632
v -0.000025 -0.015010 -0.062253
v 0.005892 0.027506 -0.031841
v 0.005360 0.004300 -0.041227
v -0.000815 -0.015032 -0.062239
v -0.001370 0.027311 -0.031716
v 0.005892 0.027506 -0.031841
v -0.005567 0.013500 0.081049
v -0.005103 -0.003391 0.079235
v -0.004875 -0.013563 0.055361
v 0.001940 -0.013366 0.055276
v 0.003989 0.075052 -0.240110
v 0.003121 0.061697 -0.256982
v 0.002389 0.076201 -0.259274
v 0.004604 0.065625 -0.215800
v 0.004879 0.053836 -0.179808
v 0.003652 0.059863 -0.244942
v -0.002179 0.049207 -0.246766
v -0.003664 0.009370 -0.204329
v -0.002377 0.053075 -0.259499
v -0.004504 0.055468 -0.295669
v -0.003663 0.076784 -0.301243
v -0.003024 0.050692 -0.298438
v -0.003663 0.076784 -0.301243
v -0.001997 0.050720 -0.298456
v -0.003024 0.050692 -0.298438
v -0.002708 0.076809 -0.301259
v -0.004846 0.076792 -0.298969
v -0.002708 0.076809 -0.301259
v -0.003663 0.076784 -0.301243
v -0.000782 0.055568 -0.295733
v -0.003024 0.050692 -0.298438
v -0.001997 0.050720 -0.298456
v -0.003767 0.082513 -0.301100
v -0.002708 0.076809 -0.301259
v -0.003663 0.076784 -0.301243
v -0.001384 0.076885 -0.299029
v -0.002812 0.082539 -0.301116
v -0.002034 0.082837 -0.300075
v -0.003767 0.082513 -0.301100
v -0.004846 0.076792 -0.298969
v -0.004504 0.082771 -0.300032
v -0.004504 0.082771 -0.300032
v -0.002812 0.082539 -0.301116
v -0.003767 0.082513 -0.301100
v -0.001997 0.050720 -0.298456
v -0.002741 0.046466 -0.296761
v -0.003024 0.050692 -0.298438
v -0.000782 0.055568 -0.295733
v -0.001950 0.046488 -0.296775
v -0.001997 0.050720 -0.298456
v -0.003024 0.050692 -0.298438
v -0.002741 0.046466 -0.296761
v -0.004504 0.055468 -0.295669
v -0.000474 0.008225 -0.062899
v -0.002811 -0.002094 -0.082580
v -0.000643 0.011817 -0.079972
v -0.002933 -0.000457 -0.099973
v -0.000813 0.015409 -0.097045
v -0.003054 0.001181 -0.117365
v -0.000982 0.019001 -0.114118
v -0.003176 0.002819 -0.134758
v -0.001151 0.022593 -0.131191
v -0.003298 0.004456 -0.152151
v -0.001321 0.026184 -0.148264
v -0.003420 0.006094 -0.169544
v -0.001490 0.029776 -0.165337
v -0.003542 0.007732 -0.186937
v -0.001659 0.033368 -0.182410
v 0.005484 0.032686 -0.056343
v 0.005158 0.008376 -0.062992
v 0.001169 -0.001988 -0.082645
v 0.004988 0.011968 -0.080065
v 0.001047 -0.000350 -0.100038
v 0.004819 0.015560 -0.097138
v 0.000926 0.001288 -0.117431
v 0.004650 0.019151 -0.114211
v 0.000804 0.002925 -0.134823
v 0.004480 0.022743 -0.131284
v 0.000682 0.004563 -0.152216
v 0.004311 0.026335 -0.148357
v 0.000560 0.006201 -0.169609
v 0.004142 0.029927 -0.165430
v 0.000438 0.007839 -0.187002
v -0.000964 -0.013148 -0.084266
v -0.001081 -0.011738 -0.101700
v -0.001197 -0.010328 -0.119135
v -0.001314 -0.008917 -0.136570
v -0.001430 -0.007507 -0.154005
v -0.001547 -0.006097 -0.171439
v -0.001663 -0.004686 -0.188874
v -0.001778 0.032491 -0.056224
v -0.001687 0.026441 -0.072157
v -0.001924 0.044178 -0.174535
v -0.002383 0.053641 -0.179684
v -0.000025 -0.015010 -0.062253
v -0.000964 -0.013148 -0.084266
v -0.000173 -0.013127 -0.084279
v -0.001081 -0.011738 -0.101700
v -0.000290 -0.011717 -0.101713
v -0.001197 -0.010328 -0.119135
v -0.000406 -0.010306 -0.119148
v -0.001314 -0.008917 -0.136570
v -0.000523 -0.008896 -0.136583
v -0.001430 -0.007507 -0.154005
v -0.000640 -0.007486 -0.154018
v -0.001547 -0.006097 -0.171439
v -0.000756 -0.006075 -0.171452
v -0.001663 -0.004686 -0.188874
v -0.000873 -0.004665 -0.188887
v -0.001780 -0.003276 -0.206309
v -0.001778 0.032491 -0.056224
v -0.019928 -0.007083 0.178981
v -0.012510 -0.020336 0.144713
v -0.014513 -0.022760 0.179605
v 0.005411 0.035283 -0.071326
v -0.001923 0.037686 -0.086189
v -0.001850 0.035088 -0.071207
v 0.005266 0.040478 -0.101290
v -0.001814 0.033774 -0.114549
v 0.005301 0.033964 -0.114654
v 0.005266 0.040478 -0.101290
v -0.002068 0.042881 -0.116154
v -0.001995 0.040283 -0.101171
v -0.015011 -0.008567 0.198060
v -0.010466 -0.024169 0.196843
v 0.005122 0.045673 -0.131255
v -0.002213 0.048075 -0.146119
v -0.002140 0.045478 -0.131136
v 0.005049 0.048270 -0.146238
v -0.001866 0.041947 -0.161667
v -0.000173 -0.013127 -0.084279
v -0.000290 -0.011717 -0.101713
v -0.000406 -0.010306 -0.119148
v -0.000523 -0.008896 -0.136583
v -0.000640 -0.007486 -0.154018
v -0.000756 -0.006075 -0.171452
v -0.000873 -0.004665 -0.188887
v 0.005565 0.026633 -0.072259
v -0.001735 0.028538 -0.084252
v -0.001687 0.026441 -0.072157
v 0.005411 0.035283 -0.071326
v -0.001735 0.028538 -0.084252
v 0.005518 0.028730 -0.084354
v 0.005484 0.032686 -0.056343
v 0.005355 0.031752 -0.101898
v -0.001814 0.033774 -0.114549
v -0.001760 0.031562 -0.101793
v 0.005120 0.036917 -0.131704
v -0.001869 0.038999 -0.144673
v -0.001810 0.036732 -0.131598
v 0.004886 0.042127 -0.161772
v -0.001924 0.044178 -0.174535
v 0.012853 -0.023395 0.179585
v 0.004977 0.050867 -0.161220
v -0.001924 0.044178 -0.174535
v 0.004827 0.044358 -0.174639
v 0.005194 0.043075 -0.116273
v 0.014860 -0.020025 0.144077
v 0.019480 -0.007997 0.178952
v 0.019389 -0.004010 0.135809
v 0.013487 -0.019586 0.136114
v 0.005122 0.045673 -0.131255
v -0.001869 0.038999 -0.144673
v 0.005062 0.039184 -0.144779
v 0.010586 -0.016883 0.110730
v 0.005339 0.037880 -0.086308
v 0.005565 0.026633 -0.072259
v 0.005355 0.031752 -0.101898
v 0.005518 0.028730 -0.084354
v 0.005339 0.037880 -0.086308
v 0.005411 0.035283 -0.071326
v 0.005301 0.033964 -0.114654
v 0.005194 0.043075 -0.116273
v 0.005266 0.040478 -0.101290
v 0.005062 0.039184 -0.144779
v 0.005049 0.048270 -0.146238
v 0.005122 0.045673 -0.131255
v -0.001869 0.038999 -0.144673
v -0.002213 0.048075 -0.146119
v -0.001866 0.041947 -0.161667
v -0.002068 0.042881 -0.116154
v -0.001814 0.033774 -0.114549
v -0.001995 0.040283 -0.101171
v -0.001923 0.037686 -0.086189
v -0.001735 0.028538 -0.084252
v -0.001850 0.035088 -0.071207
v -0.018695 -0.004967 0.146769
v -0.013891 -0.019684 0.136179
v -0.020036 -0.004151 0.135903
v 0.006243 -0.021472 0.110424
v 0.010586 -0.016883 0.110730
v 0.007836 -0.024178 0.136127
v 0.006243 -0.021472 0.110424
v 0.013487 -0.019586 0.136114
v 0.009051 -0.024639 0.143567
v 0.012853 -0.023395 0.179585
v 0.007837 -0.028032 0.179819
v 0.007837 -0.028032 0.179819
v -0.005775 -0.028683 0.196379
v -0.010466 -0.024169 0.196843
v -0.008835 -0.027336 0.179733
v -0.012510 -0.020336 0.144713
v -0.007620 -0.024888 0.144097
v -0.008843 -0.024318 0.136329
v -0.007198 -0.022030 0.110749
v -0.008843 -0.024318 0.136329
v -0.010699 0.007297 0.178389
v -0.011485 0.010475 0.135613
v 0.015078 -0.001238 0.111525
v 0.010605 0.010554 0.135560
v 0.011898 0.009868 0.147855
v 0.020718 -0.004519 0.145853
v 0.011382 0.006785 0.178373
v -0.010046 0.012746 0.112561
v 0.007754 0.013169 0.112387
v -0.011485 0.010475 0.135613
v 0.010605 0.010554 0.135560
v -0.010186 0.009617 0.148368
v 0.011898 0.009868 0.147855
v 0.011382 0.006785 0.178373
v -0.007740 0.005862 0.198968
v -0.002159 0.061904 -0.256821
v -0.002179 0.049207 -0.246766
v -0.002671 0.060294 -0.244714
v 0.003453 0.049358 -0.246862
v 0.003121 0.061697 -0.256982
v 0.003652 0.059863 -0.244942
v 0.003652 0.059863 -0.244942
v -0.002159 0.061904 -0.256821
v 0.003121 0.061697 -0.256982
v 0.003121 0.061697 -0.256982
v -0.002377 0.053075 -0.259499
v 0.003255 0.053226 -0.259596
v 0.003652 0.059863 -0.244942
v -0.002179 0.049207 -0.246766
v -0.002671 0.060294 -0.244714
v 0.003453 0.049358 -0.246862
v -0.002377 0.053075 -0.259499
v -0.002179 0.049207 -0.246766
v -0.002159 0.061904 -0.256821
v -0.008959 0.007464 0.248741
v 0.013974 0.007227 0.248233
v 0.013926 0.011810 0.237758
v -0.009007 0.012042 0.238265
v 0.007670 -0.029249 0.196166
v 0.010060 0.005535 0.198603
v 0.003409 0.018585 0.080878
v 0.012651 -0.018534 0.091277
v -0.013539 0.012428 0.095072
v -0.010046 0.012746 0.112561
v -0.007536 0.018269 0.081014
v -0.011475 -0.017407 0.110946
v -0.019288 -0.035941 0.245833
v 0.021640 -0.036363 0.244927
v 0.005830 -0.028387 0.076079
v -0.005934 0.016469 0.058610
v -0.005934 0.016469 0.058610
v 0.003545 -0.025381 0.076766
v 0.001328 0.016679 0.058519
v 0.003989 0.075052 -0.240110
v -0.002034 0.082837 -0.300075
v -0.002575 0.015900 -0.287951
v -0.001142 -0.001318 -0.228869
v -0.004504 0.055468 -0.295669
v -0.002034 0.082837 -0.300075
v -0.002708 0.076809 -0.301259
v -0.001997 0.050720 -0.298456
v -0.001384 0.076885 -0.299029
v -0.004504 0.055468 -0.295669
v -0.002812 0.082539 -0.301116
v -0.002708 0.076809 -0.301259
v -0.003663 0.076784 -0.301243
v -0.002034 0.082837 -0.300075
v -0.001950 0.046488 -0.296775
v -0.002285 0.050673 -0.161101
v -0.001995 0.040283 -0.101171
v 0.005518 0.028730 -0.084354
v -0.001850 0.035088 -0.071207
v 0.005301 0.033964 -0.114654
v 0.005062 0.039184 -0.144779
v 0.004827 0.044358 -0.174639
v -0.002285 0.050673 -0.161101
v -0.002140 0.045478 -0.131136
v 0.004977 0.050867 -0.161220
v 0.004827 0.044358 -0.174639
v 0.005120 0.036917 -0.131704
v 0.004886 0.042127 -0.161772
v -0.002140 0.045478 -0.131136
v -0.001810 0.036732 -0.131598
v -0.001760 0.031562 -0.101793
v 0.014860 -0.020025 0.144077
v -0.014513 -0.022760 0.179605
v -0.013891 -0.019684 0.136179
v -0.007740 0.005862 0.198968
v -0.010186 0.009617 0.148368
v 0.007754 0.013169 0.112387
v -0.010699 0.007297 0.178389
v -0.002377 0.053075 -0.259499
v 0.003255 0.053226 -0.259596
v -0.002671 0.060294 -0.244714
v -0.002159 0.061904 -0.256821
v 0.003453 0.049358 -0.246862
v 0.003255 0.053226 -0.259596
vt 0.639791 0.160927
vt 0.582715 0.132195
vt 0.581819 0.160227
vt 0.450757 0.492414
vt 0.530299 0.554294
vt 0.554270 0.492393
vt 0.749094 0.594263
vt 0.813633 0.566792
vt 0.749174 0.566822
vt 0.648808 0.594320
vt 0.710224 0.569045
vt 0.649308 0.567131
vt 0.695177 0.632715
vt 0.660428 0.631232
vt 0.746900 0.629443
vt 0.813553 0.594233
vt 0.439630 0.568193
vt 0.501936 0.593239
vt 0.501486 0.566052
vt 0.589745 0.194515
vt 0.589044 0.255478
vt 0.634729 0.195193
vt 0.767455 0.690722
vt 0.818761 0.629409
vt 0.658183 0.692657
vt 0.453876 0.632028
vt 0.490245 0.630124
vt 0.644521 0.993913
vt 0.688904 0.956690
vt 0.645634 0.955106
vt 0.803508 0.994104
vt 0.752122 0.956730
vt 0.769685 0.994550
vt 0.624171 0.555285
vt 0.585693 0.517205
vt 0.596489 0.554867
vt 0.493986 0.910358
vt 0.461534 0.955979
vt 0.507566 0.954901
vt 0.504910 0.993407
vt 0.541885 0.957785
vt 0.554775 0.994318
vt 0.569534 0.994550
vt 0.768893 0.907559
vt 0.751630 0.955390
vt 0.595143 0.994371
vt 0.609914 0.957823
vt 0.580433 0.994550
vt 0.553708 0.592291
vt 0.541594 0.629851
vt 0.569534 0.592824
vt 0.618228 0.692219
vt 0.608449 0.630632
vt 0.605685 0.692162
vt 0.730261 0.593483
vt 0.597045 0.593278
vt 0.580433 0.593495
vt 0.833741 0.593434
vt 0.471418 0.431420
vt 0.555160 0.444983
vt 0.535897 0.431420
vt 0.546727 0.956093
vt 0.533159 0.909396
vt 0.621513 0.957682
vt 0.529932 0.630064
vt 0.620109 0.630866
vt 0.549277 0.565193
vt 0.601506 0.566184
vt 0.451648 0.444983
vt 0.481015 0.420520
vt 0.450757 0.302659
vt 0.453329 0.420369
vt 0.058530 0.066697
vt 0.028978 0.299687
vt 0.090901 0.312594
vt 0.656496 0.193876
vt 0.672284 0.135903
vt 0.653934 0.136732
vt 0.409994 0.127376
vt 0.397114 0.070284
vt 0.406127 0.127361
vt 0.331223 0.067129
vt 0.377643 0.013328
vt 0.335032 0.010053
vt 0.701670 0.448036
vt 0.699226 0.552785
vt 0.705475 0.552743
vt 0.416497 0.949582
vt 0.413849 0.994534
vt 0.415850 0.994550
vt 0.704512 0.399678
vt 0.689565 0.448118
vt 0.236325 0.883914
vt 0.216933 0.931267
vt 0.249407 0.932077
vt 0.431770 0.373185
vt 0.439213 0.357957
vt 0.430455 0.357957
vt 0.288751 0.967169
vt 0.311976 0.968616
vt 0.011197 0.887477
vt 0.013051 0.991977
vt 0.027425 0.986593
vt 0.439858 0.384194
vt 0.435580 0.462606
vt 0.437577 0.462716
vt 0.206160 0.719568
vt 0.234111 0.777294
vt 0.238862 0.720474
vt 0.200819 0.829836
vt 0.235144 0.830638
vt 0.201039 0.883117
vt 0.687106 0.192927
vt 0.705032 0.240394
vt 0.705475 0.192817
vt 0.686664 0.240518
vt 0.704114 0.335088
vt 0.685745 0.335212
vt 0.415293 0.787140
vt 0.413488 0.844222
vt 0.415488 0.844239
vt 0.412941 0.896898
vt 0.414942 0.896915
vt 0.414496 0.949565
vt 0.082292 0.733710
vt 0.017851 0.774412
vt 0.077750 0.786993
vt 0.005450 0.839123
vt 0.043838 0.844274
vt 0.155874 0.830739
vt 0.189898 0.883478
vt 0.189920 0.830106
vt 0.156913 0.777433
vt 0.189920 0.776793
vt 0.184482 0.719855
vt 0.319356 0.843918
vt 0.313824 0.786623
vt 0.309306 0.733294
vt 0.309051 0.676714
vt 0.141734 0.932205
vt 0.101909 0.967387
vt 0.173919 0.931559
vt 0.323196 0.877344
vt 0.363240 0.986627
vt 0.435580 0.462606
vt 0.439858 0.485528
vt 0.437577 0.462716
vt 0.323022 0.875006
vt 0.273159 0.062889
vt 0.291999 0.006641
vt 0.279193 0.005652
vt 0.154885 0.884106
vt 0.116080 0.062696
vt 0.120446 0.356990
vt 0.148188 0.356314
vt 0.098113 0.006400
vt 0.110998 0.005450
vt 0.269882 0.356983
vt 0.241827 0.356155
vt 0.362111 0.299452
vt 0.300243 0.312201
vt 0.412049 0.422305
vt 0.669932 0.423030
vt 0.651585 0.423937
vt 0.011861 0.012794
vt 0.054711 0.009631
vt 0.090878 0.064370
vt 0.299024 0.064712
vt 0.386215 0.838850
vt 0.345349 0.874744
vt 0.380143 0.887154
vt 0.373866 0.774075
vt 0.360830 0.679229
vt 0.346310 0.843936
vt 0.072361 0.844348
vt 0.152068 0.720603
vt 0.068530 0.877763
vt 0.078964 0.968686
vt 0.028521 0.992301
vt 0.092153 0.973469
vt 0.431267 0.539742
vt 0.437216 0.473661
vt 0.434623 0.473519
vt 0.361783 0.992272
vt 0.430455 0.338301
vt 0.436056 0.343812
vt 0.436056 0.341397
vt 0.554014 0.341983
vt 0.559889 0.328648
vt 0.557291 0.328648
vt 0.430595 0.554162
vt 0.433680 0.539874
vt 0.431267 0.539742
vt 0.363240 0.986627
vt 0.376035 0.994550
vt 0.377401 0.992019
vt 0.014204 0.994550
vt 0.027425 0.986593
vt 0.013051 0.991977
vt 0.705475 0.552743
vt 0.701178 0.555285
vt 0.703593 0.555269
vt 0.437216 0.473661
vt 0.435580 0.462606
vt 0.434623 0.473519
vt 0.311976 0.968616
vt 0.288751 0.967169
vt 0.298483 0.973288
vt 0.092153 0.973469
vt 0.101909 0.967387
vt 0.078964 0.968686
vt 0.090665 0.368570
vt 0.125203 0.412689
vt 0.089495 0.412651
vt 0.129040 0.456677
vt 0.088326 0.456731
vt 0.132878 0.500664
vt 0.087157 0.500812
vt 0.136716 0.544652
vt 0.085988 0.544893
vt 0.140554 0.588640
vt 0.084819 0.588974
vt 0.144392 0.632627
vt 0.083650 0.633055
vt 0.148230 0.676615
vt 0.082481 0.677135
vt 0.363882 0.362740
vt 0.300546 0.368161
vt 0.265218 0.412657
vt 0.301761 0.412240
vt 0.261453 0.456631
vt 0.302976 0.456319
vt 0.257688 0.500605
vt 0.304191 0.500398
vt 0.253923 0.544579
vt 0.305406 0.544477
vt 0.250158 0.588553
vt 0.306621 0.588556
vt 0.246393 0.632526
vt 0.307836 0.632635
vt 0.242627 0.676500
vt 0.153523 0.411934
vt 0.157946 0.455923
vt 0.162368 0.499912
vt 0.166791 0.543900
vt 0.171214 0.587889
vt 0.175637 0.631878
vt 0.180059 0.675867
vt 0.027235 0.362966
vt 0.049535 0.399831
vt 0.052006 0.662465
vt 0.030799 0.679559
vt 0.414049 0.422322
vt 0.412240 0.478086
vt 0.414240 0.478101
vt 0.412390 0.522234
vt 0.414390 0.522250
vt 0.412540 0.566383
vt 0.414541 0.566398
vt 0.412691 0.610531
vt 0.414691 0.610546
vt 0.412841 0.654679
vt 0.414842 0.654695
vt 0.412992 0.698827
vt 0.414992 0.698843
vt 0.413142 0.742976
vt 0.415143 0.742991
vt 0.413293 0.787124
vt 0.672696 0.486259
vt 0.491615 0.739982
vt 0.532915 0.823663
vt 0.531116 0.735162
vt 0.730261 0.447709
vt 0.748627 0.485863
vt 0.748627 0.447416
vt 0.498391 0.258327
vt 0.480395 0.291575
vt 0.498391 0.291760
vt 0.495482 0.312644
vt 0.513849 0.350798
vt 0.513849 0.312351
vt 0.491210 0.691869
vt 0.530910 0.691653
vt 0.524748 0.312913
vt 0.543114 0.351067
vt 0.543114 0.312620
vt 0.524748 0.351359
vt 0.542418 0.387245
vt 0.236587 0.411754
vt 0.232241 0.455728
vt 0.227894 0.499701
vt 0.223547 0.543675
vt 0.219200 0.587648
vt 0.214854 0.631622
vt 0.210507 0.675595
vt 0.655534 0.524263
vt 0.674846 0.554435
vt 0.673858 0.523413
vt 0.777892 0.522591
vt 0.759550 0.554900
vt 0.777892 0.555175
vt 0.654349 0.487153
vt 0.730399 0.522440
vt 0.748375 0.554916
vt 0.748394 0.522182
vt 0.495850 0.386969
vt 0.513366 0.420259
vt 0.513379 0.386708
vt 0.525340 0.387501
vt 0.542407 0.420264
vt 0.617648 0.734603
vt 0.748629 0.231918
vt 0.731487 0.265512
vt 0.748565 0.265497
vt 0.495482 0.351091
vt 0.618495 0.824436
vt 0.657448 0.739007
vt 0.657718 0.848441
vt 0.617539 0.844731
vt 0.469125 0.257920
vt 0.451595 0.291692
vt 0.469125 0.291760
vt 0.618047 0.909545
vt 0.730261 0.486155
vt 0.341749 0.399504
vt 0.341106 0.475505
vt 0.341515 0.430518
vt 0.363295 0.439580
vt 0.363588 0.401160
vt 0.340858 0.508215
vt 0.362707 0.516419
vt 0.363001 0.477999
vt 0.340242 0.585473
vt 0.362119 0.593258
vt 0.362413 0.554839
vt 0.752258 0.307336
vt 0.730261 0.314847
vt 0.752255 0.350939
vt 0.524748 0.265903
vt 0.546747 0.257979
vt 0.524748 0.227467
vt 0.730261 0.400274
vt 0.752227 0.391522
vt 0.730297 0.361838
vt 0.493565 0.821628
vt 0.533148 0.845225
vt 0.493912 0.849100
vt 0.605615 0.909764
vt 0.814042 0.906871
vt 0.805393 0.842457
vt 0.802906 0.907648
vt 0.819855 0.842415
vt 0.808030 0.823563
vt 0.815680 0.732388
vt 0.802809 0.731836
vt 0.605088 0.733533
vt 0.542521 0.692050
vt 0.755749 0.690052
vt 0.760701 0.733033
vt 0.753640 0.822113
vt 0.765857 0.823154
vt 0.763219 0.842885
vt 0.544975 0.909073
vt 0.544935 0.844067
vt 0.455813 0.745197
vt 0.457400 0.853573
vt 0.658376 0.910678
vt 0.692538 0.853556
vt 0.693835 0.822320
vt 0.658960 0.822903
vt 0.692870 0.744922
vt 0.633131 0.474558
vt 0.588118 0.473719
vt 0.638585 0.416277
vt 0.582758 0.414643
vt 0.636286 0.384024
vt 0.580433 0.383610
vt 0.584146 0.306309
vt 0.634028 0.256156
vt 0.045362 0.875139
vt 0.072361 0.844348
vt 0.043838 0.844274
vt 0.319356 0.843918
vt 0.345349 0.874744
vt 0.346310 0.843936
vt 0.775506 0.480747
vt 0.761937 0.511374
vt 0.775282 0.511307
vt 0.554884 0.375817
vt 0.568246 0.352882
vt 0.554013 0.353515
vt 0.775489 0.264016
vt 0.760102 0.237844
vt 0.759528 0.265512
vt 0.554013 0.387143
vt 0.568259 0.420400
vt 0.568259 0.387023
vt 0.045362 0.875139
vt 0.640686 0.132897
vt 0.472298 0.554294
vt 0.719361 0.596468
vt 0.430455 0.595597
vt 0.801427 0.690468
vt 0.694035 0.693918
vt 0.698992 0.993817
vt 0.820284 0.955831
vt 0.640686 0.518289
vt 0.456907 0.912201
vt 0.450165 0.993003
vt 0.758251 0.907547
vt 0.730262 0.566122
vt 0.833741 0.566074
vt 0.484583 0.302660
vt 0.014677 0.069924
vt 0.674846 0.193046
vt 0.419556 0.070284
vt 0.374865 0.070474
vt 0.686144 0.399802
vt 0.438019 0.373185
vt 0.437860 0.384084
vt 0.200819 0.776488
vt 0.430455 0.485012
vt 0.377401 0.992019
vt 0.433680 0.539874
vt 0.298483 0.973288
vt 0.430455 0.347057
vt 0.563430 0.341983
vt 0.433008 0.554294
vt 0.361783 0.992272
vt 0.028521 0.992301
vt 0.699226 0.552785
vt 0.437577 0.462716
vt 0.029728 0.632004
vt 0.480024 0.258109
vt 0.656521 0.555285
vt 0.759526 0.522274
vt 0.730380 0.555175
vt 0.495838 0.420520
vt 0.525330 0.420520
vt 0.730261 0.231918
vt 0.450757 0.257829
vt 0.361825 0.631678
vt 0.339633 0.662052
vt 0.340497 0.551945
vt 0.339884 0.629056
vt 0.730261 0.276411
vt 0.546745 0.301721
vt 0.752227 0.436517
vt 0.822865 0.822188
vt 0.746535 0.733920
vt 0.750650 0.843793
vt 0.454888 0.693213
vt 0.456734 0.821331
vt 0.693331 0.912786
vt 0.639914 0.308282
vt 0.068530 0.877763
vt 0.323196 0.877344
vt 0.759526 0.480747
vt 0.568246 0.376124
vt 0.774349 0.237844
vt 0.554013 0.420520
vn -0.519530 0.853464 -0.041070
vn 0.498565 0.486696 0.717328
vn 0.553923 0.829507 -0.071321
vn 0.747030 0.059775 0.662097
vn -0.450039 0.504983 0.736517
vn -0.713945 0.100918 0.692891
vn -0.313050 -0.914118 -0.257661
vn 0.234130 -0.716735 0.656867
vn -0.224656 -0.711576 0.665725
vn 0.989473 0.107850 -0.096499
vn 0.498565 0.486696 0.717328
vn 0.747030 0.059775 0.662097
vn 0.534768 0.819594 -0.205640
vn 0.982448 0.177878 -0.056174
vn -0.713007 -0.534022 -0.454357
vn 0.275047 -0.923081 -0.268831
vn -0.450039 0.504983 0.736517
vn -0.985559 0.159190 -0.057726
vn -0.713945 0.100918 0.692891
vn 0.534768 0.819594 -0.205640
vn 0.538759 0.839678 0.068405
vn -0.522622 0.835419 -0.170121
vn -0.342053 -0.935720 -0.086186
vn 0.676606 -0.566797 -0.470048
vn 0.997189 0.074343 -0.009360
vn -0.522622 0.835419 -0.170121
vn -0.978025 0.207834 -0.016473
vn 0.836722 0.135467 -0.530608
vn 0.620028 0.780462 -0.080277
vn 0.957875 0.001678 -0.287182
vn 0.463631 -0.739669 -0.487786
vn 0.703064 -0.687775 0.180740
vn -0.462774 -0.683409 -0.564617
vn -0.463877 0.734684 -0.495033
vn 0.620028 0.780462 -0.080277
vn 0.447087 0.748580 -0.489635
vn -0.994295 0.087500 0.061006
vn -0.692125 0.718493 -0.068784
vn -0.972348 -0.016013 -0.232985
vn -0.825195 0.055585 -0.562107
vn 0.703064 -0.687775 0.180740
vn -0.860632 0.138414 -0.490055
vn -0.462774 -0.683409 -0.564617
vn -0.320301 -0.945005 -0.066125
vn -0.052566 -0.828496 -0.557522
vn 0.884741 0.093626 -0.456583
vn 0.844407 -0.530009 -0.077893
vn 0.463631 -0.739669 -0.487786
vn -0.879627 -0.427536 -0.208493
vn -0.713007 -0.534022 -0.454357
vn -0.313050 -0.914118 -0.257661
vn 0.872090 -0.477695 -0.106150
vn 0.676606 -0.566797 -0.470048
vn 0.362641 -0.924754 -0.115421
vn -0.879627 -0.427536 -0.208493
vn 0.850981 -0.467102 -0.240098
vn 0.275047 -0.923081 -0.268831
vn 0.850981 -0.467102 -0.240098
vn 0.234130 -0.716735 0.656867
vn -0.691105 -0.357580 0.628100
vn -0.224656 -0.711576 0.665725
vn -0.052566 -0.828496 -0.557522
vn -0.852168 -0.519827 0.059919
vn 0.942861 -0.160285 -0.292100
vn -0.969462 -0.100510 -0.223699
vn 0.952736 -0.152729 -0.262617
vn -0.691105 -0.357580 0.628100
vn 0.698642 -0.388979 0.600496
vn 0.698642 -0.388979 0.600496
vn 0.447087 0.748580 -0.489635
vn -0.462774 -0.683409 -0.564617
vn -0.463877 0.734684 -0.495033
vn -0.999225 -0.032238 -0.022598
vn -0.732331 0.674309 0.094860
vn -0.994317 0.106316 -0.005504
vn 0.680373 0.725546 0.103326
vn -0.732206 0.673842 0.099058
vn 0.694393 0.715003 0.081174
vn 0.618165 -0.779402 -0.102003
vn -0.720526 -0.672231 -0.170141
vn -0.582287 -0.806667 -0.101143
vn 0.999758 0.017208 0.013724
vn 0.694393 0.715003 0.081174
vn 0.998721 0.043569 -0.025638
vn -0.719411 0.688709 0.090150
vn 0.574831 0.583813 -0.573351
vn -0.635258 0.528159 -0.563467
vn 0.653333 -0.712465 -0.256027
vn -0.582106 -0.530229 -0.616450
vn 0.585993 -0.503880 -0.634600
vn -0.702721 0.695725 0.148829
vn 0.699045 0.714967 0.012608
vn 0.995093 -0.090183 -0.040704
vn 0.585993 -0.503880 -0.634600
vn 0.986303 -0.066785 -0.150817
vn -0.644503 0.519790 -0.560744
vn 0.853221 0.137035 -0.503225
vn -0.890163 0.125195 -0.438106
vn 0.472969 -0.176572 -0.863205
vn 0.955142 -0.101349 -0.278266
vn -0.719411 0.688709 0.090150
vn -0.635258 0.528159 -0.563467
vn -0.896734 0.119223 -0.426210
vn 0.585993 -0.503880 -0.634600
vn -0.454372 -0.196677 -0.868829
vn 0.472969 -0.176572 -0.863205
vn 0.679532 -0.730687 -0.065821
vn 0.994540 -0.099392 -0.031792
vn 0.993458 -0.112604 -0.018990
vn 0.676338 -0.724159 -0.134758
vn 0.994854 -0.099172 -0.020743
vn 0.653333 -0.712465 -0.256027
vn 0.550990 0.136165 0.823328
vn -0.745596 0.645713 0.164746
vn -0.543100 0.106144 0.832932
vn 0.730689 0.665930 0.150435
vn -0.725678 0.644345 0.241269
vn 0.724267 0.652129 0.223976
vn 0.679532 -0.730687 -0.065821
vn -0.633404 -0.768129 -0.093686
vn 0.672174 -0.732470 -0.108028
vn -0.651417 -0.746479 -0.135737
vn 0.676338 -0.724159 -0.134758
vn -0.611694 -0.746809 -0.260974
vn -0.999763 0.015444 0.015314
vn -0.725678 0.644345 0.241269
vn -0.999754 0.015024 0.016337
vn -0.702721 0.695725 0.148829
vn -0.943653 -0.205627 -0.259299
vn -0.999160 -0.040350 -0.007227
vn -0.611694 -0.746809 -0.260974
vn -0.651417 -0.746479 -0.135737
vn -0.998685 -0.050260 0.010070
vn -0.633404 -0.768129 -0.093686
vn -0.643262 -0.763320 -0.059628
vn 0.955492 0.225414 -0.190325
vn 0.996863 -0.072334 -0.032137
vn 0.996528 -0.077682 -0.029971
vn 0.995754 -0.087695 -0.027992
vn -0.990955 -0.060228 -0.119923
vn -0.454372 -0.196677 -0.868829
vn -0.582106 -0.530229 -0.616450
vn 0.961983 0.137112 0.236197
vn 0.845888 0.139015 -0.514925
vn -0.462900 -0.182090 -0.867506
vn 0.918330 -0.209598 -0.335764
vn 0.478781 -0.166836 -0.861937
vn 0.995461 -0.084651 -0.043488
vn 0.618165 -0.779402 -0.102003
vn 0.993672 0.023532 -0.109829
vn 0.756007 -0.626531 -0.189503
vn -0.998634 -0.050933 -0.011677
vn -0.582287 -0.806667 -0.101143
vn -0.999912 0.011749 0.006211
vn -0.632688 -0.771916 -0.062054
vn -0.995561 -0.034270 -0.087662
vn -0.720526 -0.672231 -0.170141
vn 0.975230 -0.219144 -0.030052
vn 0.672228 -0.737930 -0.059736
vn 0.724247 0.678128 0.124935
vn 0.981493 -0.190738 -0.017036
vn -0.632688 -0.771916 -0.062054
vn -0.732331 0.674309 0.094860
vn 0.724247 0.678128 0.124935
vn -0.732206 0.673842 0.099058
vn -0.999929 -0.011779 -0.001960
vn -0.989815 -0.133758 -0.048742
vn 0.994767 -0.096234 -0.034330
vn 0.675038 0.726315 0.129580
vn 0.946257 -0.291452 0.140193
vn 0.699045 0.714967 0.012608
vn 0.724267 0.652129 0.223976
vn 0.730689 0.665930 0.150435
vn 0.932243 -0.202926 -0.299572
vn -0.945799 0.277374 -0.168899
vn -0.999162 -0.040687 0.004349
vn -0.933327 0.170589 0.315911
vn -0.970066 -0.125404 -0.207956
vn -0.485479 0.288323 -0.825336
vn -0.674833 -0.501152 -0.541707
vn -0.485479 0.288323 -0.825336
vn 0.678455 -0.447719 -0.582449
vn -0.674833 -0.501152 -0.541707
vn 0.425408 0.320259 -0.846441
vn -0.890163 0.125195 -0.438106
vn 0.448383 0.343147 -0.825350
vn -0.496560 0.319272 -0.807151
vn 0.918330 -0.209598 -0.335764
vn -0.670834 -0.502015 -0.545861
vn 0.680942 -0.459570 -0.570187
vn -0.397190 0.509174 -0.763532
vn 0.462799 0.340563 -0.818434
vn -0.510950 0.327795 -0.794658
vn 0.871785 0.137820 -0.470103
vn 0.340688 0.527207 -0.778450
vn 0.547000 0.528548 -0.649175
vn -0.397190 0.509174 -0.763532
vn -0.915083 0.116980 -0.385926
vn -0.616648 0.492861 -0.613867
vn -0.616648 0.492861 -0.613867
vn 0.340688 0.527207 -0.778450
vn -0.397190 0.509174 -0.763532
vn 0.682238 -0.452801 -0.574040
vn -0.458696 -0.186827 -0.868731
vn -0.670876 -0.501947 -0.545871
vn 0.949628 -0.107842 -0.294240
vn 0.478723 -0.166900 -0.861956
vn 0.682238 -0.452801 -0.574040
vn -0.670876 -0.501947 -0.545871
vn -0.458696 -0.186827 -0.868731
vn -0.968797 -0.123058 -0.215148
vn -0.998164 0.057584 0.018771
vn -0.999941 -0.004936 0.009635
vn -0.999163 0.038490 0.013888
vn -0.999859 -0.014607 0.008279
vn -0.992002 0.122317 0.031170
vn -0.999735 -0.021861 0.007188
vn -0.993896 0.106544 0.028603
vn -0.999602 -0.027495 0.006340
vn -0.995237 0.093817 0.026506
vn -0.999474 -0.031947 0.005670
vn -0.996214 0.083334 0.024759
vn -0.999356 -0.035513 0.005132
vn -0.996945 0.074552 0.023278
vn -0.999251 -0.038401 0.004695
vn -0.999767 0.016852 0.013488
vn 0.640187 0.765466 -0.064989
vn 0.987146 -0.156832 -0.030780
vn 0.981004 -0.191763 -0.029303
vn 0.989441 -0.140918 -0.033896
vn 0.984489 -0.173411 -0.026659
vn 0.975409 -0.215146 -0.047850
vn 0.987050 -0.158503 -0.024668
vn 0.980757 -0.190255 -0.043813
vn 0.988990 -0.146177 -0.023050
vn 0.984618 -0.169969 -0.040482
vn 0.990500 -0.135792 -0.021709
vn 0.987486 -0.153138 -0.037685
vn 0.991702 -0.126902 -0.020581
vn 0.989669 -0.138959 -0.035301
vn 0.992678 -0.119191 -0.019619
vn -0.637602 -0.768024 -0.060024
vn -0.638168 -0.767693 -0.058227
vn -0.639200 -0.766840 -0.058141
vn -0.640192 -0.766018 -0.058058
vn -0.641148 -0.765224 -0.057977
vn -0.642062 -0.764464 -0.057900
vn -0.642946 -0.763726 -0.057825
vn -0.678738 0.732464 -0.053023
vn -0.802522 0.593452 -0.061428
vn -0.984324 -0.016363 0.175607
vn -0.745596 0.645713 0.164746
vn 0.672228 -0.737930 -0.059736
vn -0.637602 -0.768024 -0.060024
vn 0.674082 -0.735691 -0.066125
vn -0.638168 -0.767693 -0.058227
vn 0.674667 -0.735309 -0.064388
vn -0.639200 -0.766840 -0.058141
vn 0.675663 -0.734400 -0.064310
vn -0.640192 -0.766018 -0.058058
vn 0.676620 -0.733525 -0.064236
vn -0.641148 -0.765224 -0.057977
vn 0.677539 -0.732683 -0.064164
vn -0.642062 -0.764464 -0.057900
vn 0.678429 -0.731865 -0.064094
vn -0.642946 -0.763726 -0.057825
vn 0.679282 -0.731079 -0.064027
vn -0.643262 -0.763320 -0.059628
vn -0.678738 0.732464 -0.053023
vn -0.987934 0.113678 0.105180
vn -0.818358 -0.574649 0.008342
vn -0.828390 -0.558925 0.037061
vn 0.547055 0.137864 0.825666
vn -0.669837 0.738745 -0.074663
vn -0.539694 0.108075 0.834896
vn 0.548144 0.132369 0.825843
vn -0.933658 0.024983 0.357293
vn 0.988016 0.004172 0.154295
vn 0.548144 0.132369 0.825843
vn -0.672362 0.736118 -0.077844
vn -0.540453 0.102582 0.835098
vn -0.990316 0.119069 0.071387
vn -0.857551 -0.513306 -0.033517
vn 0.549651 0.129336 0.825322
vn -0.676390 0.732436 -0.077684
vn -0.541777 0.099498 0.834612
vn 0.640664 0.763200 -0.084118
vn -0.205603 0.972954 -0.105303
vn 0.674082 -0.735691 -0.066125
vn 0.674667 -0.735309 -0.064388
vn 0.675663 -0.734400 -0.064310
vn 0.676620 -0.733525 -0.064236
vn 0.677539 -0.732683 -0.064164
vn 0.678429 -0.731865 -0.064094
vn 0.679282 -0.731079 -0.064027
vn 0.773723 0.630312 -0.063718
vn -0.930181 0.037170 0.365214
vn -0.802522 0.593452 -0.061428
vn 0.547055 0.137864 0.825666
vn -0.930181 0.037170 0.365214
vn 0.987011 0.013021 0.160123
vn 0.640187 0.765466 -0.064989
vn 0.773211 0.629998 -0.072446
vn -0.933658 0.024983 0.357293
vn -0.204680 0.973471 -0.102275
vn 0.778940 0.621809 -0.081275
vn -0.935435 0.011583 0.353310
vn -0.206713 0.972648 -0.105955
vn 0.782142 0.617754 -0.081451
vn -0.984324 -0.016363 0.175607
vn 0.820561 -0.571400 0.013473
vn 0.550990 0.136165 0.823328
vn -0.984324 -0.016363 0.175607
vn 0.990107 -0.019643 0.138933
vn 0.636361 0.766773 -0.084280
vn 0.812707 -0.575510 -0.091086
vn 0.994131 0.045609 0.098095
vn 0.986397 0.095411 -0.133856
vn 0.795457 -0.584126 -0.161386
vn 0.549651 0.129336 0.825322
vn -0.935435 0.011583 0.353310
vn 0.988198 -0.020037 0.151865
vn 0.858613 -0.512557 -0.008335
vn 0.633657 0.769353 -0.081084
vn 0.773723 0.630312 -0.063718
vn 0.773211 0.629998 -0.072446
vn 0.987011 0.013021 0.160123
vn 0.633657 0.769353 -0.081084
vn 0.547055 0.137864 0.825666
vn 0.988016 0.004172 0.154295
vn 0.636361 0.766773 -0.084280
vn 0.548144 0.132369 0.825843
vn 0.988198 -0.020037 0.151865
vn 0.640664 0.763200 -0.084118
vn 0.549651 0.129336 0.825322
vn -0.935435 0.011583 0.353310
vn -0.676390 0.732436 -0.077684
vn -0.205603 0.972954 -0.105303
vn -0.672362 0.736118 -0.077844
vn -0.933658 0.024983 0.357293
vn -0.540453 0.102582 0.835098
vn -0.669837 0.738745 -0.074663
vn -0.930181 0.037170 0.365214
vn -0.539694 0.108075 0.834896
vn -0.995657 0.076836 0.052564
vn -0.828567 -0.559630 -0.017082
vn -0.997005 0.077148 0.005407
vn 0.369661 -0.925727 -0.079883
vn 0.858613 -0.512557 -0.008335
vn 0.331647 -0.935774 -0.119740
vn 0.369661 -0.925727 -0.079883
vn 0.795457 -0.584126 -0.161386
vn 0.357305 -0.929286 -0.093594
vn 0.820561 -0.571400 0.013473
vn 0.351643 -0.934507 -0.055179
vn 0.351643 -0.934507 -0.055179
vn -0.342053 -0.935720 -0.086186
vn -0.857551 -0.513306 -0.033517
vn -0.377874 -0.925234 -0.033975
vn -0.818358 -0.574649 0.008342
vn -0.345367 -0.937133 -0.050023
vn -0.380514 -0.923189 -0.054133
vn -0.320301 -0.945005 -0.066125
vn -0.380514 -0.923189 -0.054133
vn -0.497578 0.861169 0.103947
vn -0.531737 0.844135 0.068500
vn 0.988784 0.148527 -0.015685
vn 0.501781 0.864971 0.006458
vn 0.498067 0.866010 0.044228
vn 0.993969 0.101139 -0.042390
vn 0.525155 0.844838 0.102281
vn -0.511506 0.856674 0.066870
vn 0.486987 0.873228 0.017774
vn -0.531737 0.844135 0.068500
vn 0.501781 0.864971 0.006458
vn -0.484639 0.870502 0.085740
vn 0.498067 0.866010 0.044228
vn 0.525155 0.844838 0.102281
vn -0.498714 0.860930 0.100419
vn -0.930681 -0.307182 0.198675
vn -0.945675 0.279850 -0.165475
vn -0.932798 -0.222633 -0.283412
vn 0.953981 0.220533 -0.203189
vn 0.947743 -0.284909 0.143564
vn 0.923833 -0.207844 -0.321455
vn 0.900135 -0.236809 -0.365620
vn -0.916053 -0.341260 0.210687
vn 0.941812 -0.301466 0.148691
vn 0.941812 -0.301466 0.148691
vn -0.909436 0.197884 0.365742
vn 0.962963 0.138397 0.231406
vn 0.900135 -0.236809 -0.365620
vn -0.934944 0.307164 -0.177566
vn -0.949517 -0.195191 -0.245598
vn 0.938900 0.261269 -0.224065
vn -0.909436 0.197884 0.365742
vn -0.934944 0.307164 -0.177566
vn -0.929842 -0.314221 0.191464
vn -0.450039 0.504983 0.736517
vn 0.498565 0.486696 0.717328
vn 0.553923 0.829507 -0.071321
vn -0.519530 0.853464 -0.041070
vn 0.362641 -0.924754 -0.115421
vn 0.538759 0.839678 0.068405
vn 0.447087 0.748580 -0.489635
vn 0.844407 -0.530009 -0.077893
vn -0.692125 0.718493 -0.068784
vn -0.511506 0.856674 0.066870
vn -0.463877 0.734684 -0.495033
vn -0.852168 -0.519827 0.059919
vn -0.691105 -0.357580 0.628100
vn 0.698642 -0.388979 0.600496
vn 0.463631 -0.739669 -0.487786
vn -0.733782 0.675505 0.072501
vn -0.733782 0.675505 0.072501
vn 0.756007 -0.626531 -0.189503
vn 0.680373 0.725546 0.103326
vn 0.675038 0.726315 0.129580
vn 0.574504 0.554951 -0.601643
vn -0.582106 -0.530229 -0.616450
vn 0.672174 -0.732470 -0.108028
vn -0.968804 -0.123045 -0.215126
vn 0.574831 0.583813 -0.573351
vn 0.425408 0.320259 -0.846441
vn 0.678455 -0.447719 -0.582449
vn 0.853221 0.137035 -0.503225
vn -0.968804 -0.123045 -0.215126
vn 0.340688 0.527207 -0.778450
vn 0.462799 0.340563 -0.818434
vn -0.510950 0.327795 -0.794658
vn 0.547000 0.528548 -0.649175
vn 0.478723 -0.166900 -0.861956
vn -0.543100 0.106144 0.832932
vn -0.540453 0.102582 0.835098
vn 0.987011 0.013021 0.160123
vn -0.539694 0.108075 0.834896
vn 0.988016 0.004172 0.154295
vn 0.988198 -0.020037 0.151865
vn 0.990107 -0.019643 0.138933
vn -0.543100 0.106144 0.832932
vn -0.541777 0.099498 0.834612
vn 0.550990 0.136165 0.823328
vn 0.990107 -0.019643 0.138933
vn 0.778940 0.621809 -0.081275
vn 0.782142 0.617754 -0.081451
vn -0.541777 0.099498 0.834612
vn -0.206713 0.972648 -0.105955
vn -0.204680 0.973471 -0.102275
vn 0.812707 -0.575510 -0.091086
vn -0.828390 -0.558925 0.037061
vn -0.828567 -0.559630 -0.017082
vn -0.498714 0.860930 0.100419
vn -0.484639 0.870502 0.085740
vn 0.486987 0.873228 0.017774
vn -0.497578 0.861169 0.103947
vn -0.918469 0.194116 0.344579
vn 0.956225 0.153312 0.249259
vn -0.949517 -0.195191 -0.245598
vn -0.916053 -0.341260 0.210687
vn 0.938900 0.261269 -0.224065
vn 0.962963 0.138397 0.231406
f 1/1/1 2/2/2 3/3/3
f 4/4/4 5/5/5 6/6/6
f 7/7/7 8/8/8 9/9/9
f 10/10/10 11/11/11 12/12/12
f 13/13/13 10/10/10 14/14/14
f 15/15/15 16/16/16 7/7/7
f 17/17/17 18/18/18 19/19/19
f 20/20/20 1/1/1 3/3/3
f 21/21/21 22/22/22 20/20/20
f 23/23/23 24/24/24 15/15/15
f 25/25/25 13/13/13 14/14/14
f 18/18/18 26/26/26 27/27/27
f 28/28/28 29/29/29 30/30/30
f 31/31/31 32/32/32 33/33/33
f 34/34/34 35/35/35 36/36/36
f 37/37/37 38/38/38 39/39/39
f 38/38/38 40/40/40 39/39/39
f 41/41/41 42/42/42 43/43/43
f 44/44/44 45/45/45 32/32/32
f 46/46/46 47/47/47 48/48/48
f 49/49/49 50/50/50 51/51/51
f 52/52/52 53/53/53 54/54/54
f 9/9/9 55/55/55 7/7/7
f 53/53/53 56/56/56 57/57/57
f 58/58/58 8/8/8 16/16/16
f 59/59/59 60/60/60 61/61/61
f 62/62/62 40/40/40 42/42/42
f 63/63/63 39/39/39 62/62/62
f 28/28/28 64/64/64 46/46/46
f 18/18/18 65/65/65 49/49/49
f 25/25/25 66/66/66 52/52/52
f 67/67/67 18/18/18 49/49/49
f 66/66/66 10/10/10 56/56/56
f 10/10/10 68/68/68 56/56/56
f 69/69/69 6/6/6 60/60/60
f 70/70/70 71/71/71 72/72/72
f 73/73/73 74/74/74 75/75/75
f 76/76/76 77/77/77 78/78/78
f 79/79/79 80/80/80 81/81/81
f 82/82/82 83/83/83 84/84/84
f 85/85/85 86/86/86 87/87/87
f 88/88/88 89/89/89 90/90/90
f 91/91/91 92/92/92 85/85/85
f 93/93/93 94/94/94 95/95/95
f 96/96/96 97/97/97 98/98/98
f 95/95/95 99/99/99 100/100/100
f 101/101/101 102/102/102 103/103/103
f 104/104/104 105/105/105 106/106/106
f 107/107/107 108/108/108 109/109/109
f 108/108/108 110/110/110 111/111/111
f 111/111/111 112/112/112 93/93/93
f 113/113/113 114/114/114 115/115/115
f 116/116/116 117/117/117 114/114/114
f 118/118/118 91/91/91 117/117/117
f 119/119/119 120/120/120 121/121/121
f 121/121/121 122/122/122 123/123/123
f 123/123/123 124/124/124 88/88/88
f 125/125/125 126/126/126 127/127/127
f 126/126/126 128/128/128 129/129/129
f 130/130/130 131/131/131 132/132/132
f 133/133/133 132/132/132 134/134/134
f 135/135/135 133/133/133 134/134/134
f 111/111/111 136/136/136 137/137/137
f 108/108/108 137/137/137 138/138/138
f 109/109/109 138/138/138 139/139/139
f 140/140/140 141/141/141 142/142/142
f 143/143/143 100/100/100 144/144/144
f 145/145/145 146/146/146 147/147/147
f 93/93/93 143/143/143 148/148/148
f 149/149/149 150/150/150 151/151/151
f 152/152/152 142/142/142 131/131/131
f 153/153/153 154/154/154 155/155/155
f 156/156/156 153/153/153 157/157/157
f 158/158/158 149/149/149 159/159/159
f 160/160/160 82/82/82 161/161/161
f 162/162/162 79/79/79 81/81/81
f 163/163/163 76/76/76 164/164/164
f 165/165/165 73/73/73 166/166/166
f 166/166/166 167/167/167 156/156/156
f 161/161/161 168/168/168 158/158/158
f 169/169/169 170/170/170 171/171/171
f 170/170/170 143/143/143 144/144/144
f 138/138/138 172/172/172 173/173/173
f 137/137/137 136/136/136 174/174/174
f 130/130/130 175/175/175 152/152/152
f 133/133/133 127/127/127 130/130/130
f 176/176/176 125/125/125 133/133/133
f 177/177/177 178/178/178 140/140/140
f 178/178/178 179/179/179 180/180/180
f 168/168/168 84/84/84 150/150/150
f 152/152/152 177/177/177 140/140/140
f 167/167/167 75/75/75 154/154/154
f 181/181/181 182/182/182 183/183/183
f 100/100/100 184/184/184 144/144/144
f 185/185/185 186/186/186 187/187/187
f 188/188/188 189/189/189 190/190/190
f 191/191/191 192/192/192 193/193/193
f 194/194/194 195/195/195 196/196/196
f 197/197/197 198/198/198 199/199/199
f 200/200/200 201/201/201 202/202/202
f 203/203/203 204/204/204 205/205/205
f 206/206/206 207/207/207 208/208/208
f 209/209/209 210/210/210 211/211/211
f 154/154/154 212/212/212 213/213/213
f 213/213/213 214/214/214 215/215/215
f 215/215/215 216/216/216 217/217/217
f 217/217/217 218/218/218 219/219/219
f 219/219/219 220/220/220 221/221/221
f 221/221/221 222/222/222 223/223/223
f 223/223/223 224/224/224 225/225/225
f 225/225/225 226/226/226 176/176/176
f 161/161/161 227/227/227 160/160/160
f 158/158/158 228/228/228 161/161/161
f 229/229/229 230/230/230 228/228/228
f 231/231/231 232/232/232 230/230/230
f 233/233/233 234/234/234 232/232/232
f 235/235/235 236/236/236 234/234/234
f 237/237/237 238/238/238 236/236/236
f 239/239/239 240/240/240 238/238/238
f 241/241/241 139/139/139 240/240/240
f 155/155/155 213/213/213 242/242/242
f 242/242/242 215/215/215 243/243/243
f 243/243/243 217/217/217 244/244/244
f 244/244/244 219/219/219 245/245/245
f 245/245/245 221/221/221 246/246/246
f 246/246/246 223/223/223 247/247/247
f 247/247/247 225/225/225 248/248/248
f 248/248/248 176/176/176 135/135/135
f 75/75/75 249/249/249 212/212/212
f 212/212/212 250/250/250 214/214/214
f 251/251/251 252/252/252 226/226/226
f 253/253/253 254/254/254 255/255/255
f 255/255/255 256/256/256 257/257/257
f 257/257/257 258/258/258 259/259/259
f 259/259/259 260/260/260 261/261/261
f 261/261/261 262/262/262 263/263/263
f 263/263/263 264/264/264 265/265/265
f 265/265/265 266/266/266 267/267/267
f 267/267/267 268/268/268 119/119/119
f 164/164/164 269/269/269 163/163/163
f 270/270/270 271/271/271 272/272/272
f 273/273/273 274/274/274 275/275/275
f 276/276/276 277/277/277 278/278/278
f 279/279/279 280/280/280 281/281/281
f 282/282/282 272/272/272 283/283/283
f 284/284/284 285/285/285 286/286/286
f 287/287/287 288/288/288 285/285/285
f 159/159/159 229/229/229 158/158/158
f 289/289/289 231/231/231 229/229/229
f 290/290/290 233/233/233 231/231/231
f 291/291/291 235/235/235 233/233/233
f 292/292/292 237/237/237 235/235/235
f 293/293/293 239/239/239 237/237/237
f 294/294/294 241/241/241 239/239/239
f 295/295/295 109/109/109 241/241/241
f 296/296/296 297/297/297 298/298/298
f 299/299/299 300/300/300 301/301/301
f 65/65/65 282/282/282 283/283/283
f 302/302/302 298/298/298 269/269/269
f 303/303/303 304/304/304 305/305/305
f 306/306/306 307/307/307 308/308/308
f 309/309/309 310/310/310 288/288/288
f 311/311/311 25/25/25 52/52/52
f 312/312/312 313/313/313 314/314/314
f 315/315/315 308/308/308 280/280/280
f 316/316/316 317/317/317 311/311/311
f 318/318/318 316/316/316 319/319/319
f 320/320/320 321/321/321 322/322/322
f 323/323/323 318/318/318 319/319/319
f 324/324/324 305/305/305 274/274/274
f 30/30/30 323/323/323 64/64/64
f 139/139/139 138/138/138 173/173/173
f 228/228/228 325/325/325 227/227/227
f 326/326/326 327/327/327 230/230/230
f 251/251/251 214/214/214 250/250/250
f 327/327/327 328/328/328 329/329/329
f 330/330/330 331/331/331 332/332/332
f 333/333/333 334/334/334 335/335/335
f 336/336/336 337/337/337 338/338/338
f 339/339/339 340/340/340 341/341/341
f 342/342/342 343/343/343 344/344/344
f 345/345/345 346/346/346 271/271/271
f 347/347/347 63/63/63 346/346/346
f 47/47/47 323/323/323 348/348/348
f 349/349/349 350/350/350 351/351/351
f 352/352/352 353/353/353 350/350/350
f 353/353/353 354/354/354 355/355/355
f 356/356/356 52/52/52 54/54/54
f 50/50/50 283/283/283 357/357/357
f 358/358/358 359/359/359 23/23/23
f 359/359/359 360/360/360 361/361/361
f 360/360/360 362/362/362 361/361/361
f 346/346/346 363/363/363 364/364/364
f 26/26/26 282/282/282 27/27/27
f 282/282/282 365/365/365 270/270/270
f 365/365/365 345/345/345 270/270/270
f 345/345/345 366/366/366 347/347/347
f 366/366/366 37/37/37 347/347/347
f 29/29/29 367/367/367 30/30/30
f 367/367/367 368/368/368 318/318/318
f 318/318/318 369/369/369 370/370/370
f 370/370/370 371/371/371 317/317/317
f 371/371/371 25/25/25 317/317/317
f 32/32/32 351/351/351 44/44/44
f 44/44/44 350/350/350 362/362/362
f 350/350/350 361/361/361 362/362/362
f 361/361/361 355/355/355 359/359/359
f 355/355/355 23/23/23 359/359/359
f 35/35/35 372/372/372 373/373/373
f 373/373/373 374/374/374 375/375/375
f 375/375/375 376/376/376 377/377/377
f 376/376/376 378/378/378 377/377/377
f 378/378/378 379/379/379 21/21/21
f 380/380/380 381/381/381 382/382/382
f 383/383/383 384/384/384 385/385/385
f 386/386/386 387/387/387 388/388/388
f 389/389/389 390/390/390 391/391/391
f 392/392/392 393/393/393 394/394/394
f 395/395/395 396/396/396 397/397/397
f 398/398/398 128/128/128 101/101/101
f 1/1/1 399/399/399 2/2/2
f 4/4/4 400/400/400 5/5/5
f 7/7/7 16/16/16 8/8/8
f 10/10/10 401/401/401 11/11/11
f 13/13/13 401/401/401 10/10/10
f 15/15/15 24/24/24 16/16/16
f 17/17/17 402/402/402 18/18/18
f 20/20/20 22/22/22 1/1/1
f 21/21/21 379/379/379 22/22/22
f 23/23/23 403/403/403 24/24/24
f 25/25/25 404/404/404 13/13/13
f 18/18/18 402/402/402 26/26/26
f 28/28/28 405/405/405 29/29/29
f 31/31/31 406/406/406 32/32/32
f 34/34/34 407/407/407 35/35/35
f 37/37/37 408/408/408 38/38/38
f 38/38/38 409/409/409 40/40/40
f 41/41/41 62/62/62 42/42/42
f 44/44/44 410/410/410 45/45/45
f 46/46/46 64/64/64 47/47/47
f 49/49/49 65/65/65 50/50/50
f 52/52/52 66/66/66 53/53/53
f 9/9/9 411/411/411 55/55/55
f 53/53/53 66/66/66 56/56/56
f 58/58/58 412/412/412 8/8/8
f 59/59/59 69/69/69 60/60/60
f 62/62/62 39/39/39 40/40/40
f 63/63/63 37/37/37 39/39/39
f 28/28/28 30/30/30 64/64/64
f 18/18/18 27/27/27 65/65/65
f 25/25/25 14/14/14 66/66/66
f 67/67/67 19/19/19 18/18/18
f 66/66/66 14/14/14 10/10/10
f 10/10/10 12/12/12 68/68/68
f 69/69/69 4/4/4 6/6/6
f 70/70/70 413/413/413 71/71/71
f 73/73/73 414/414/414 74/74/74
f 76/76/76 415/415/415 77/77/77
f 79/79/79 416/416/416 80/80/80
f 82/82/82 417/417/417 83/83/83
f 85/85/85 92/92/92 86/86/86
f 88/88/88 124/124/124 89/89/89
f 91/91/91 418/418/418 92/92/92
f 93/93/93 112/112/112 94/94/94
f 96/96/96 419/419/419 97/97/97
f 95/95/95 94/94/94 99/99/99
f 103/103/103 177/177/177 398/398/398
f 398/398/398 101/101/101 103/103/103
f 104/104/104 420/420/420 105/105/105
f 107/107/107 421/421/421 108/108/108
f 108/108/108 421/421/421 110/110/110
f 111/111/111 110/110/110 112/112/112
f 113/113/113 116/116/116 114/114/114
f 116/116/116 118/118/118 117/117/117
f 118/118/118 418/418/418 91/91/91
f 119/119/119 268/268/268 120/120/120
f 121/121/121 120/120/120 122/122/122
f 123/123/123 122/122/122 124/124/124
f 125/125/125 252/252/252 126/126/126
f 175/175/175 127/127/127 129/129/129
f 127/127/127 126/126/126 129/129/129
f 130/130/130 152/152/152 131/131/131
f 133/133/133 130/130/130 132/132/132
f 135/135/135 176/176/176 133/133/133
f 111/111/111 93/93/93 136/136/136
f 108/108/108 111/111/111 137/137/137
f 109/109/109 108/108/108 138/138/138
f 140/140/140 178/178/178 141/141/141
f 143/143/143 95/95/95 100/100/100
f 145/145/145 422/422/422 146/146/146
f 148/148/148 136/136/136 93/93/93
f 93/93/93 95/95/95 143/143/143
f 149/149/149 168/168/168 150/150/150
f 152/152/152 140/140/140 142/142/142
f 153/153/153 167/167/167 154/154/154
f 156/156/156 167/167/167 153/153/153
f 158/158/158 168/168/168 149/149/149
f 160/160/160 417/417/417 82/82/82
f 162/162/162 253/253/253 79/79/79
f 163/163/163 415/415/415 76/76/76
f 165/165/165 414/414/414 73/73/73
f 166/166/166 73/73/73 167/167/167
f 161/161/161 82/82/82 168/168/168
f 169/169/169 174/174/174 170/170/170
f 423/423/423 171/171/171 144/144/144
f 171/171/171 170/170/170 144/144/144
f 138/138/138 137/137/137 172/172/172
f 169/169/169 172/172/172 174/174/174
f 172/172/172 137/137/137 174/174/174
f 130/130/130 127/127/127 175/175/175
f 133/133/133 125/125/125 127/127/127
f 176/176/176 226/226/226 125/125/125
f 177/177/177 103/103/103 178/178/178
f 178/178/178 103/103/103 179/179/179
f 168/168/168 82/82/82 84/84/84
f 152/152/152 175/175/175 177/177/177
f 167/167/167 73/73/73 75/75/75
f 181/181/181 424/424/424 182/182/182
f 100/100/100 425/425/425 184/184/184
f 185/185/185 426/426/426 186/186/186
f 188/188/188 427/427/427 189/189/189
f 191/191/191 428/428/428 192/192/192
f 194/194/194 429/429/429 195/195/195
f 197/197/197 430/430/430 198/198/198
f 200/200/200 431/431/431 201/201/201
f 203/203/203 432/432/432 204/204/204
f 154/154/154 75/75/75 212/212/212
f 213/213/213 212/212/212 214/214/214
f 215/215/215 214/214/214 216/216/216
f 217/217/217 216/216/216 218/218/218
f 219/219/219 218/218/218 220/220/220
f 221/221/221 220/220/220 222/222/222
f 223/223/223 222/222/222 224/224/224
f 225/225/225 224/224/224 226/226/226
f 161/161/161 228/228/228 227/227/227
f 158/158/158 229/229/229 228/228/228
f 229/229/229 231/231/231 230/230/230
f 231/231/231 233/233/233 232/232/232
f 233/233/233 235/235/235 234/234/234
f 235/235/235 237/237/237 236/236/236
f 237/237/237 239/239/239 238/238/238
f 239/239/239 241/241/241 240/240/240
f 241/241/241 109/109/109 139/139/139
f 155/155/155 154/154/154 213/213/213
f 242/242/242 213/213/213 215/215/215
f 243/243/243 215/215/215 217/217/217
f 244/244/244 217/217/217 219/219/219
f 245/245/245 219/219/219 221/221/221
f 246/246/246 221/221/221 223/223/223
f 247/247/247 223/223/223 225/225/225
f 248/248/248 225/225/225 176/176/176
f 75/75/75 74/74/74 249/249/249
f 212/212/212 249/249/249 250/250/250
f 251/251/251 433/433/433 252/252/252
f 252/252/252 125/125/125 226/226/226
f 253/253/253 162/162/162 254/254/254
f 255/255/255 254/254/254 256/256/256
f 257/257/257 256/256/256 258/258/258
f 259/259/259 258/258/258 260/260/260
f 261/261/261 260/260/260 262/262/262
f 263/263/263 262/262/262 264/264/264
f 265/265/265 264/264/264 266/266/266
f 267/267/267 266/266/266 268/268/268
f 164/164/164 302/302/302 269/269/269
f 270/270/270 345/345/345 271/271/271
f 273/273/273 324/324/324 274/274/274
f 276/276/276 434/434/434 277/277/277
f 279/279/279 315/315/315 280/280/280
f 282/282/282 270/270/270 272/272/272
f 284/284/284 287/287/287 285/285/285
f 287/287/287 309/309/309 288/288/288
f 159/159/159 289/289/289 229/229/229
f 289/289/289 290/290/290 231/231/231
f 290/290/290 291/291/291 233/233/233
f 291/291/291 292/292/292 235/235/235
f 292/292/292 293/293/293 237/237/237
f 293/293/293 294/294/294 239/239/239
f 294/294/294 295/295/295 241/241/241
f 295/295/295 107/107/107 109/109/109
f 296/296/296 435/435/435 297/297/297
f 299/299/299 436/436/436 300/300/300
f 65/65/65 27/27/27 282/282/282
f 302/302/302 296/296/296 298/298/298
f 303/303/303 437/437/437 304/304/304
f 306/306/306 438/438/438 307/307/307
f 309/309/309 439/439/439 310/310/310
f 311/311/311 317/317/317 25/25/25
f 312/312/312 440/440/440 313/313/313
f 315/315/315 306/306/306 308/308/308
f 316/316/316 370/370/370 317/317/317
f 318/318/318 370/370/370 316/316/316
f 320/320/320 441/441/441 321/321/321
f 323/323/323 367/367/367 318/318/318
f 324/324/324 303/303/303 305/305/305
f 30/30/30 367/367/367 323/323/323
f 173/173/173 442/442/442 443/443/443
f 443/443/443 139/139/139 173/173/173
f 228/228/228 230/230/230 325/325/325
f 325/325/325 230/230/230 327/327/327
f 230/230/230 139/139/139 444/444/444
f 326/326/326 230/230/230 330/330/330
f 139/139/139 443/443/443 445/445/445
f 445/445/445 333/333/333 139/139/139
f 333/333/333 444/444/444 139/139/139
f 444/444/444 330/330/330 230/230/230
f 251/251/251 226/226/226 214/214/214
f 327/327/327 326/326/326 328/328/328
f 330/330/330 444/444/444 331/331/331
f 333/333/333 445/445/445 334/334/334
f 336/336/336 446/446/446 337/337/337
f 339/339/339 447/447/447 340/340/340
f 342/342/342 448/448/448 343/343/343
f 345/345/345 347/347/347 346/346/346
f 347/347/347 37/37/37 63/63/63
f 47/47/47 64/64/64 323/323/323
f 349/349/349 352/352/352 350/350/350
f 352/352/352 449/449/449 353/353/353
f 353/353/353 449/449/449 354/354/354
f 356/356/356 311/311/311 52/52/52
f 50/50/50 65/65/65 283/283/283
f 358/358/358 450/450/450 359/359/359
f 359/359/359 450/450/450 360/360/360
f 360/360/360 451/451/451 362/362/362
f 346/346/346 63/63/63 363/363/363
f 26/26/26 452/452/452 282/282/282
f 282/282/282 452/452/452 365/365/365
f 365/365/365 453/453/453 345/345/345
f 345/345/345 453/453/453 366/366/366
f 366/366/366 408/408/408 37/37/37
f 29/29/29 454/454/454 367/367/367
f 367/367/367 454/454/454 368/368/368
f 318/318/318 368/368/368 369/369/369
f 370/370/370 369/369/369 371/371/371
f 371/371/371 404/404/404 25/25/25
f 32/32/32 406/406/406 351/351/351
f 44/44/44 351/351/351 350/350/350
f 350/350/350 353/353/353 361/361/361
f 361/361/361 353/353/353 355/355/355
f 355/355/355 403/403/403 23/23/23
f 35/35/35 407/407/407 372/372/372
f 373/373/373 372/372/372 374/374/374
f 375/375/375 374/374/374 376/376/376
f 376/376/376 455/455/455 378/378/378
f 378/378/378 455/455/455 379/379/379
f 380/380/380 456/456/456 381/381/381
f 383/383/383 457/457/457 384/384/384
f 386/386/386 458/458/458 387/387/387
f 389/389/389 459/459/459 390/390/390
f 392/392/392 460/460/460 393/393/393
f 395/395/395 461/461/461 396/396/396
f 398/398/398 129/129/129 128/128/128
