# Cube -- imported by tools/import_asset_pack.py from 9V.fbx
o __pending__
v -0.063889 0.125072 -0.047240
v 0.063889 0.071026 -0.047240
v -0.063889 0.071026 -0.047240
v -0.060601 -0.096210 0.043011
v -0.068124 -0.096210 0.038170
v -0.060601 -0.096210 -0.043011
v -0.073424 0.125072 0.041105
v -0.073424 0.071026 -0.041105
v -0.073424 0.071026 0.041105
v 0.073424 0.125072 -0.041105
v 0.073424 0.071026 0.041105
v 0.073424 0.071026 -0.041105
v 0.063889 -0.096719 0.047240
v 0.073424 -0.069748 0.041105
v 0.063889 -0.069748 0.047240
v -0.063889 -0.096719 -0.047240
v -0.073424 -0.069748 -0.041105
v -0.063889 -0.069748 -0.047240
v -0.063889 0.125072 0.047240
v -0.073424 0.071026 0.041105
v -0.063889 0.071026 0.047240
v 0.063889 0.125072 0.047240
v 0.063889 0.071026 0.047240
v -0.029921 0.150887 -0.012095
v -0.038473 0.133231 -0.008552
v -0.038473 0.150887 -0.008552
v -0.038473 0.133231 0.008552
v -0.048993 0.133083 -0.000000
v -0.043407 0.133083 0.013486
v -0.043407 0.133083 0.013486
v -0.029921 0.125228 0.019072
v -0.029921 0.133083 0.019072
v -0.038473 0.150887 -0.008552
v -0.042016 0.133231 -0.000000
v -0.042016 0.150887 -0.000000
v -0.038473 0.133231 -0.008552
v -0.042016 0.133231 -0.000000
v -0.048993 0.133083 -0.000000
v -0.043407 0.125228 0.013486
v -0.043407 0.133083 0.013486
v -0.017826 0.150887 -0.000000
v -0.021369 0.133231 -0.008552
v -0.021369 0.150887 -0.008552
v -0.029921 0.133231 -0.012095
v -0.043407 0.133083 -0.013486
v -0.043407 0.133083 -0.013486
v -0.048993 0.125228 -0.000000
v -0.021369 0.150887 0.008552
v -0.017826 0.133231 -0.000000
v -0.021369 0.133231 -0.008552
v -0.029921 0.133083 -0.019072
v -0.029921 0.133083 -0.019072
v -0.043407 0.125227 -0.013486
v -0.043407 0.133083 -0.013486
v -0.029921 0.150887 0.012095
v -0.021369 0.133231 0.008552
v -0.021369 0.150887 0.008552
v -0.017826 0.133231 -0.000000
v -0.016435 0.133083 -0.013486
v -0.016435 0.133083 -0.013486
v -0.029921 0.125227 -0.019072
v -0.038473 0.150887 0.008552
v -0.029921 0.133231 0.012095
v -0.016435 0.133083 0.013486
v -0.010849 0.133083 -0.000000
v -0.010849 0.133083 -0.000000
v -0.016435 0.125227 -0.013486
v -0.016435 0.133083 -0.013486
v -0.029921 0.125228 0.019072
v -0.048993 0.125228 -0.000000
v -0.029921 0.125227 -0.019072
v -0.021369 0.133231 0.008552
v -0.029921 0.133083 0.019072
v -0.016435 0.133083 0.013486
v -0.010849 0.125228 -0.000000
v -0.021369 0.150887 -0.008552
v -0.029921 0.133231 -0.012095
v -0.029921 0.133231 0.012095
v -0.016435 0.125228 0.013486
v -0.016435 0.133083 0.013486
v -0.042016 0.150887 -0.000000
v -0.036461 0.150887 -0.006540
v -0.038473 0.150887 -0.008552
v -0.038473 0.133231 0.008552
v -0.038473 0.150887 0.008552
v -0.039170 0.132547 -0.000000
v -0.036461 0.150887 -0.006540
v -0.039170 0.150887 -0.000000
v -0.020672 0.150887 -0.000000
v -0.021369 0.150887 0.008552
v -0.017826 0.150887 -0.000000
v -0.029921 0.150887 -0.009249
v -0.029921 0.150887 -0.012095
v -0.021369 0.150887 -0.008552
v -0.029921 0.150887 0.009249
v -0.038473 0.150887 0.008552
v -0.029921 0.150887 0.012095
v -0.036461 0.150887 0.006540
v -0.023381 0.150887 -0.006540
v -0.036461 0.132547 0.006540
v -0.023381 0.132547 0.006540
v -0.023381 0.132547 -0.006540
v -0.029921 0.132547 0.009249
v -0.036461 0.150887 0.006540
v -0.029921 0.150887 0.009249
v -0.023381 0.132547 0.006540
v -0.023381 0.150887 0.006540
v -0.023381 0.132547 -0.006540
v -0.020672 0.150887 -0.000000
v -0.023381 0.150887 -0.006540
v -0.036461 0.132547 -0.006540
v -0.029921 0.150887 -0.009249
v -0.036461 0.150887 -0.006540
v -0.036461 0.132547 0.006540
v -0.036461 0.150887 0.006540
v -0.020672 0.132547 -0.000000
v -0.023381 0.150887 0.006540
v -0.029921 0.132547 -0.009249
v -0.023381 0.150887 -0.006540
v 0.028501 0.120350 -0.010037
v 0.035093 0.133028 -0.007307
v 0.035093 0.120350 -0.007307
v 0.035093 0.133028 0.005878
v 0.047573 0.133176 -0.000714
v 0.041987 0.133176 0.012772
v 0.041987 0.133176 0.012772
v 0.028501 0.140943 0.018358
v 0.028501 0.133176 0.018358
v 0.035093 0.120350 -0.007307
v 0.037824 0.133028 -0.000714
v 0.037824 0.120350 -0.000714
v 0.035093 0.133028 -0.007307
v 0.037824 0.133028 -0.000714
v 0.047573 0.133176 -0.000714
v 0.041987 0.140943 0.012772
v 0.041987 0.133176 0.012772
v 0.019178 0.120350 -0.000714
v 0.021909 0.133028 -0.007307
v 0.021909 0.120350 -0.007307
v 0.028501 0.133028 -0.010037
v 0.041987 0.133176 -0.014200
v 0.035093 0.133028 -0.007307
v 0.041987 0.133176 -0.014200
v 0.047573 0.140943 -0.000714
v 0.021909 0.120350 0.005878
v 0.019178 0.133028 -0.000714
v 0.028501 0.133028 -0.010037
v 0.015015 0.133176 -0.014200
v 0.028501 0.133176 -0.019786
v 0.028501 0.133176 -0.019786
v 0.041987 0.140943 -0.014200
v 0.041987 0.133176 -0.014200
v 0.028501 0.120350 0.008609
v 0.021909 0.133028 0.005878
v 0.021909 0.120350 0.005878
v 0.019178 0.133028 -0.000714
v 0.021909 0.133028 -0.007307
v 0.015015 0.133176 -0.014200
v 0.028501 0.140943 -0.019786
v 0.035093 0.120350 0.005878
v 0.028501 0.133028 0.008609
v 0.019178 0.133028 -0.000714
v 0.015015 0.133176 0.012772
v 0.009429 0.133176 -0.000714
v 0.009429 0.133176 -0.000714
v 0.015015 0.140943 -0.014200
v 0.015015 0.133176 -0.014200
v 0.028501 0.140943 0.018358
v 0.047573 0.140943 -0.000714
v 0.028501 0.140943 -0.019786
v 0.028501 0.133028 0.008609
v 0.021909 0.133028 0.005878
v 0.015015 0.133176 0.012772
v 0.009429 0.140943 -0.000714
v 0.021909 0.120350 -0.007307
v 0.028501 0.133028 -0.010037
v 0.028501 0.133028 0.008609
v 0.028501 0.133176 0.018358
v 0.015015 0.140943 0.012772
v 0.015015 0.133176 0.012772
v 0.035093 0.133028 0.005878
v 0.035093 0.120350 0.005878
v 0.041987 0.140943 0.012772
v 0.028501 0.145391 0.018358
v 0.028501 0.140943 0.018358
v 0.041987 0.140943 -0.014200
v 0.047573 0.145391 -0.000714
v 0.047573 0.140943 -0.000714
v 0.015015 0.145391 0.012772
v 0.009429 0.140943 -0.000714
v 0.015015 0.140943 0.012772
v 0.015015 0.140943 -0.014200
v 0.028501 0.145391 -0.019786
v 0.028501 0.140943 -0.019786
v 0.015015 0.145391 -0.014200
v 0.028501 0.145391 -0.013740
v 0.028501 0.145391 -0.019786
v 0.028501 0.145391 0.018358
v 0.037712 0.145391 0.008497
v 0.028501 0.145391 0.012312
v 0.019290 0.145391 0.008497
v 0.009429 0.145391 -0.000714
v 0.015015 0.145391 0.012772
v 0.041987 0.145391 -0.014200
v 0.041527 0.145391 -0.000714
v 0.047573 0.145391 -0.000714
v 0.028501 0.145391 -0.013740
v 0.021909 0.133028 -0.007307
v 0.028501 0.133028 -0.010037
v 0.019290 0.145391 0.008497
v 0.019178 0.133028 -0.000714
v 0.015475 0.145391 -0.000714
v 0.041527 0.145391 -0.000714
v 0.035093 0.133028 -0.007307
v 0.037824 0.133028 -0.000714
v 0.037712 0.145391 0.008497
v 0.028501 0.133028 0.008609
v 0.028501 0.145391 0.012312
v 0.015015 0.133176 0.012772
v 0.019290 0.145391 0.008497
v 0.015015 0.145391 0.012772
v 0.009429 0.133176 -0.000714
v 0.015475 0.145391 -0.000714
v 0.019178 0.133028 -0.000714
v 0.015015 0.133176 -0.014200
v 0.019290 0.145391 -0.009925
v 0.015015 0.145391 -0.014200
v 0.028501 0.133176 -0.019786
v 0.028501 0.145391 -0.013740
v 0.028501 0.133028 -0.010037
v 0.041987 0.133176 -0.014200
v 0.037712 0.145391 -0.009925
v 0.041987 0.145391 -0.014200
v 0.047573 0.133176 -0.000714
v 0.041527 0.145391 -0.000714
v 0.037824 0.133028 -0.000714
v 0.041987 0.133176 0.012772
v 0.037712 0.145391 0.008497
v 0.041987 0.145391 0.012772
v 0.028501 0.133176 0.018358
v 0.028501 0.145391 0.012312
v 0.028501 0.133028 0.008609
v 0.070266 0.128230 -0.039382
v 0.063889 0.125072 -0.047240
v 0.062961 0.128230 -0.044082
v -0.070266 0.128230 0.039382
v -0.063889 0.125072 0.047240
v -0.062961 0.128230 0.044082
v 0.070266 0.128230 0.039382
v 0.063889 0.125072 0.047240
v 0.073424 0.125072 0.041105
v -0.070266 0.128230 -0.039382
v -0.063889 0.125072 -0.047240
v -0.073424 0.125072 -0.041105
v -0.062961 0.128230 -0.044082
v 0.073424 0.125072 -0.041105
v 0.060601 -0.099113 -0.043011
v -0.060601 -0.096210 -0.043011
v -0.060601 -0.099113 -0.043011
v 0.068124 -0.099113 -0.038170
v 0.063889 -0.096719 -0.047240
v 0.073424 -0.096719 -0.041105
v -0.068124 -0.099113 0.038170
v -0.063889 -0.096719 0.047240
v -0.073424 -0.096719 0.041105
v 0.068124 -0.099113 0.038170
v 0.063889 -0.096719 0.047240
v 0.060601 -0.099113 0.043011
v -0.068124 -0.099113 -0.038170
v -0.063889 -0.096719 -0.047240
v -0.060601 -0.099113 -0.043011
v 0.060601 -0.099113 -0.043011
v 0.073424 -0.096719 0.041105
v -0.073424 -0.096719 -0.041105
v 0.073424 -0.096719 -0.041105
v 0.063889 -0.069748 -0.047240
v 0.073424 -0.069748 -0.041105
v -0.068124 -0.099113 0.038170
v -0.060601 -0.096210 0.043011
v -0.060601 -0.099113 0.043011
v 0.060601 -0.096210 0.043011
v 0.060601 -0.099113 0.043011
v 0.068124 -0.099113 -0.038170
v 0.060601 -0.096210 -0.043011
v -0.068124 -0.099113 -0.038170
v -0.068124 -0.096210 0.038170
v -0.068124 -0.099113 0.038170
v -0.068124 -0.096210 -0.038170
v -0.068124 -0.099113 -0.038170
v 0.068124 -0.096210 0.038170
v 0.068124 -0.099113 0.038170
v 0.068124 -0.099113 0.038170
v 0.068124 -0.096210 -0.038170
v 0.068124 -0.099113 -0.038170
v 0.073424 0.071026 -0.041105
v 0.063889 0.125072 -0.047240
v 0.073424 0.125072 -0.041105
v -0.063889 -0.096719 0.047240
v -0.063889 -0.069748 0.047240
v -0.073424 -0.096719 0.041105
v -0.073424 0.125072 -0.041105
v 0.073424 0.125072 0.041105
v 0.073424 -0.069748 -0.041105
v 0.073424 -0.096719 0.041105
v 0.073424 -0.096719 -0.041105
v -0.073424 -0.069748 0.041105
v -0.073424 -0.096719 -0.041105
v -0.073424 -0.096719 0.041105
v 0.063889 -0.096719 -0.047240
v 0.073424 0.070595 -0.041105
v 0.065685 0.072574 -0.048568
v 0.063889 0.070595 -0.047240
v -0.073424 -0.070179 -0.041105
v -0.065685 -0.072157 -0.048568
v -0.063889 -0.070179 -0.047240
v -0.063889 -0.070179 -0.047240
v 0.065685 -0.072157 -0.048568
v 0.063889 -0.070179 -0.047240
v -0.073424 0.070595 -0.041105
v -0.065685 0.072574 -0.048568
v -0.075488 0.072574 -0.042261
v -0.075488 0.072574 0.042261
v -0.073424 0.070595 0.041105
v -0.065685 0.072574 0.048568
v -0.063889 0.070595 0.047240
v -0.073424 -0.070179 0.041105
v -0.075488 -0.072157 -0.042261
v -0.065685 -0.072157 0.048568
v -0.075488 -0.072157 0.042261
v 0.075488 -0.072157 -0.042261
v 0.065685 0.072574 -0.048568
v 0.075488 0.072574 -0.042261
v 0.065685 0.072574 0.048568
v -0.065685 -0.072157 0.048568
v 0.065685 -0.072157 0.048568
v -0.065685 0.072574 0.048568
v -0.075488 -0.072157 0.042261
v -0.065685 -0.072157 -0.048568
v -0.075488 0.072574 -0.042261
v -0.065685 0.072574 -0.048568
v 0.075488 0.072574 0.042261
v 0.075488 0.072574 -0.042261
v 0.075488 -0.072157 0.042261
v 0.075488 -0.072157 -0.042261
v -0.075488 0.072574 0.042261
v -0.075488 -0.072157 -0.042261
v -0.075488 -0.072157 0.042261
v 0.065685 -0.072157 -0.048568
v -0.063889 0.070595 -0.047240
v 0.065685 0.072574 -0.048568
v -0.065685 0.072574 -0.048568
v 0.073424 0.070595 0.041105
v 0.065685 0.072574 0.048568
v 0.075488 0.072574 0.042261
v 0.073424 -0.070179 -0.041105
v 0.065685 -0.072157 -0.048568
v 0.075488 -0.072157 -0.042261
v 0.073424 -0.070179 0.041105
v 0.065685 -0.072157 0.048568
v 0.063889 -0.070179 0.047240
v 0.063889 -0.070179 0.047240
v -0.065685 -0.072157 0.048568
v -0.063889 -0.070179 0.047240
v 0.075488 -0.072157 0.042261
v 0.063889 0.070595 0.047240
v -0.065685 0.072574 0.048568
v 0.065685 0.072574 0.048568
v 0.075488 0.072574 -0.042261
v 0.073424 -0.069748 0.041105
v -0.073424 -0.069748 -0.041105
v -0.073424 -0.069748 0.041105
v -0.073424 0.071026 -0.041105
v 0.073424 0.071026 0.041105
v -0.070266 0.128036 -0.039382
v -0.062961 0.131383 -0.044082
v -0.062961 0.128036 -0.044082
v -0.062961 0.131383 0.044082
v -0.059362 0.126143 0.033270
v -0.070266 0.131383 0.039382
v 0.070266 0.128036 0.039382
v 0.062961 0.131383 0.044082
v 0.062961 0.128036 0.044082
v 0.070266 0.128036 -0.039382
v 0.070266 0.131383 0.039382
v 0.070266 0.128036 0.039382
v 0.062961 0.131383 -0.044082
v 0.062961 0.128036 -0.044082
v -0.062961 0.128036 0.044082
v -0.070266 0.131383 0.039382
v -0.070266 0.128036 0.039382
v -0.062961 0.131383 0.044082
v 0.070266 0.131383 -0.039382
v 0.070266 0.128036 -0.039382
v -0.070266 0.128036 0.039382
v -0.070266 0.131383 -0.039382
v -0.070266 0.128036 -0.039382
v 0.053190 0.126143 0.037241
v 0.059362 0.126143 0.033270
v 0.053190 0.126143 -0.037241
v 0.062961 0.131383 -0.044082
v 0.059362 0.126143 -0.033270
v 0.070266 0.131383 -0.039382
v -0.059362 0.126143 -0.033270
v -0.070266 0.131383 -0.039382
v 0.062961 0.131383 0.044082
v -0.053190 0.126143 -0.037241
v 0.070266 0.131383 0.039382
v -0.053190 0.126143 0.037241
v -0.062961 0.131383 -0.044082
v -0.068124 -0.096210 -0.038170
v 0.060601 -0.096210 -0.043011
v 0.060601 -0.096210 0.043011
v 0.068124 -0.096210 -0.038170
v 0.068124 -0.096210 0.038170
v -0.073424 0.125072 -0.041105
v 0.073424 0.125072 0.041105
v 0.073424 -0.096719 0.041105
v -0.073424 -0.096719 -0.041105
v -0.073424 0.125072 0.041105
v -0.043407 0.125228 0.013486
v -0.038473 0.133231 -0.008552
v -0.043407 0.125227 -0.013486
v -0.021369 0.133231 0.008552
v -0.016435 0.125227 -0.013486
v -0.038473 0.133231 0.008552
v -0.043407 0.125228 0.013486
v -0.043407 0.125227 -0.013486
v -0.016435 0.125227 -0.013486
v -0.010849 0.125228 -0.000000
v -0.016435 0.125228 0.013486
v -0.016435 0.125228 0.013486
v -0.021369 0.133231 -0.008552
v -0.039170 0.150887 -0.000000
v -0.036461 0.132547 -0.006540
v -0.023381 0.150887 0.006540
v -0.029921 0.132547 0.009249
v -0.020672 0.132547 -0.000000
v -0.029921 0.132547 -0.009249
v -0.036461 0.132547 -0.006540
v -0.039170 0.132547 -0.000000
v -0.036461 0.132547 0.006540
v -0.023381 0.132547 0.006540
v -0.023381 0.132547 -0.006540
v 0.037824 0.133028 -0.000714
v 0.041987 0.140943 0.012772
v 0.035093 0.133028 -0.007307
v 0.041987 0.140943 -0.014200
v 0.021909 0.133028 0.005878
v 0.021909 0.133028 -0.007307
v 0.015015 0.140943 -0.014200
v 0.035093 0.133028 0.005878
v 0.021909 0.133028 0.005878
v 0.041987 0.140943 0.012772
v 0.041987 0.140943 -0.014200
v 0.015015 0.140943 -0.014200
v 0.009429 0.140943 -0.000714
v 0.015015 0.140943 0.012772
v 0.015015 0.140943 0.012772
v 0.021909 0.133028 -0.007307
v 0.035093 0.133028 0.005878
v 0.041987 0.145391 0.012772
v 0.041987 0.145391 -0.014200
v 0.009429 0.145391 -0.000714
v 0.015015 0.145391 -0.014200
v 0.019290 0.145391 -0.009925
v 0.041987 0.145391 0.012772
v 0.015475 0.145391 -0.000714
v 0.037712 0.145391 -0.009925
v 0.019290 0.145391 -0.009925
v 0.021909 0.133028 0.005878
v 0.037712 0.145391 -0.009925
v 0.035093 0.133028 0.005878
v 0.021909 0.133028 0.005878
v 0.009429 0.145391 -0.000714
v 0.021909 0.133028 -0.007307
v 0.028501 0.145391 -0.019786
v 0.035093 0.133028 -0.007307
v 0.047573 0.145391 -0.000714
v 0.035093 0.133028 0.005878
v 0.028501 0.145391 0.018358
v -0.073424 0.125072 0.041105
v 0.062961 0.128230 0.044082
v -0.060601 -0.099113 0.043011
v -0.068124 -0.096210 0.038170
v 0.068124 -0.096210 -0.038170
v -0.068124 -0.096210 -0.038170
v 0.068124 -0.096210 0.038170
v -0.065685 -0.072157 -0.048568
v -0.063889 0.070595 -0.047240
v -0.063889 -0.070179 0.047240
v -0.075488 0.072574 0.042261
v -0.075488 -0.072157 -0.042261
v 0.075488 -0.072157 0.042261
v 0.075488 0.072574 0.042261
v -0.075488 0.072574 -0.042261
v 0.063889 0.070595 -0.047240
v 0.063889 0.070595 0.047240
v 0.063889 -0.070179 -0.047240
v 0.065685 -0.072157 0.048568
v -0.063889 0.070595 0.047240
v -0.070266 0.131383 -0.039382
v 0.070266 0.131383 0.039382
v 0.070266 0.131383 -0.039382
v -0.070266 0.131383 0.039382
vt 0.025205 0.991232
vt 0.243497 0.898892
vt 0.025205 0.898892
vt 0.496805 0.306446
vt 0.505075 0.319300
vt 0.643776 0.306446
vt 0.545583 0.991232
vt 0.686007 0.898892
vt 0.545583 0.898892
vt 0.008768 0.594758
vt 0.149193 0.502418
vt 0.008768 0.502418
vt 0.293612 0.612294
vt 0.277176 0.658374
vt 0.293612 0.658374
vt 0.025205 0.612294
vt 0.008768 0.658374
vt 0.025205 0.658374
vt 0.511904 0.991232
vt 0.528047 0.898892
vt 0.511904 0.898892
vt 0.293612 0.991232
vt 0.293612 0.898892
vt 0.636003 0.068979
vt 0.621308 0.038813
vt 0.621308 0.068979
vt 0.886331 0.048829
vt 0.892952 0.026632
vt 0.875316 0.044267
vt 0.100271 0.198284
vt 0.113692 0.175379
vt 0.100271 0.175379
vt 0.357853 0.061658
vt 0.343380 0.031493
vt 0.343380 0.061658
vt 0.913329 0.037646
vt 0.897514 0.037646
vt 0.859038 0.699977
vt 0.872459 0.676728
vt 0.859038 0.676728
vt 0.390132 0.061658
vt 0.375389 0.031493
vt 0.375389 0.061658
vt 0.924513 0.048829
vt 0.917892 0.026632
vt 0.859038 0.722800
vt 0.872459 0.699977
vt 0.404605 0.061658
vt 0.390132 0.031493
vt 0.924513 0.064645
vt 0.935527 0.044267
vt 0.131229 0.175379
vt 0.144650 0.152206
vt 0.131229 0.152206
vt 0.589247 0.068979
vt 0.574551 0.038813
vt 0.574551 0.068979
vt 0.913329 0.075828
vt 0.935527 0.069207
vt 0.131229 0.198284
vt 0.144650 0.175379
vt 0.603772 0.068979
vt 0.589247 0.038813
vt 0.892952 0.086842
vt 0.917892 0.086842
vt 0.859038 0.636369
vt 0.872459 0.613120
vt 0.859038 0.613120
vt 0.557015 0.051344
vt 0.539380 0.008768
vt 0.496805 0.026403
vt 0.897514 0.075828
vt 0.875316 0.069207
vt 0.859038 0.659192
vt 0.872459 0.636369
vt 0.650528 0.068979
vt 0.636003 0.038813
vt 0.886331 0.064645
vt 0.113692 0.152206
vt 0.100271 0.152206
vt 0.931494 0.153645
vt 0.924803 0.140601
vt 0.920310 0.142462
vt 0.328637 0.031493
vt 0.328637 0.061658
vt 0.794373 0.613719
vt 0.783306 0.645053
vt 0.794373 0.645053
vt 0.945448 0.119955
vt 0.958492 0.126646
vt 0.947309 0.115463
vt 0.924803 0.128507
vt 0.920310 0.126646
vt 0.931494 0.115463
vt 0.954000 0.140601
vt 0.947309 0.153645
vt 0.958492 0.142462
vt 0.945448 0.149153
vt 0.933354 0.119955
vt 0.776472 0.040866
vt 0.785024 0.061512
vt 0.805669 0.052960
vt 0.714651 0.613719
vt 0.703544 0.645053
vt 0.714651 0.645053
vt 0.725888 0.613719
vt 0.725888 0.645053
vt 0.122612 0.039727
vt 0.111338 0.071061
vt 0.122612 0.071061
vt 0.765769 0.613719
vt 0.754532 0.645053
vt 0.765769 0.645053
vt 0.805647 0.613719
vt 0.805647 0.645053
vt 0.111338 0.039727
vt 0.100271 0.071061
vt 0.754532 0.613719
vt 0.743425 0.645053
vt 0.951731 0.381097
vt 0.962927 0.411262
vt 0.962927 0.381097
vt 0.718933 0.686599
vt 0.721179 0.662589
vt 0.703544 0.680224
vt 0.902361 0.676721
vt 0.897594 0.699894
vt 0.902361 0.699894
vt 0.736415 0.031346
vt 0.747779 0.061512
vt 0.747779 0.031346
vt 0.739745 0.677978
vt 0.727553 0.677978
vt 0.142538 0.111846
vt 0.137772 0.134669
vt 0.142538 0.134669
vt 0.707722 0.031346
vt 0.718879 0.061512
vt 0.718879 0.031346
vt 0.748365 0.686599
vt 0.746119 0.662589
vt 0.739745 0.677978
vt 0.142538 0.088597
vt 0.137772 0.111846
vt 0.696358 0.031346
vt 0.707722 0.061512
vt 0.748365 0.686599
vt 0.763754 0.705164
vt 0.763754 0.680224
vt 0.902361 0.636279
vt 0.897594 0.659185
vt 0.902361 0.659185
vt 0.433469 0.031493
vt 0.444665 0.061658
vt 0.444665 0.031493
vt 0.739745 0.707411
vt 0.748365 0.698790
vt 0.902361 0.613106
vt 0.897594 0.636279
vt 0.422141 0.031493
vt 0.433469 0.061658
vt 0.739745 0.707411
vt 0.721179 0.722800
vt 0.746119 0.722800
vt 0.112636 0.111846
vt 0.107870 0.134669
vt 0.112636 0.134669
vt 0.781291 0.705164
vt 0.823866 0.722800
vt 0.841501 0.680224
vt 0.718933 0.698790
vt 0.727553 0.707411
vt 0.112636 0.088597
vt 0.107870 0.111846
vt 0.940403 0.381097
vt 0.951731 0.411262
vt 0.718933 0.698790
vt 0.703544 0.705164
vt 0.897594 0.722800
vt 0.902361 0.722800
vt 0.758936 0.061512
vt 0.758936 0.031346
vt 0.897594 0.676721
vt 0.889995 0.699894
vt 0.897594 0.699894
vt 0.137772 0.088597
vt 0.130173 0.111846
vt 0.137772 0.111846
vt 0.100271 0.088597
vt 0.107870 0.111846
vt 0.107870 0.088597
vt 0.897594 0.613106
vt 0.889995 0.636279
vt 0.897594 0.636279
vt 0.668065 0.068979
vt 0.677609 0.047992
vt 0.668065 0.044039
vt 0.832727 0.645053
vt 0.823183 0.624066
vt 0.823183 0.641100
vt 0.962607 0.082889
vt 0.953063 0.061902
vt 0.953063 0.086842
vt 0.471746 0.036718
vt 0.462202 0.057705
vt 0.471746 0.061659
vt 0.055277 0.034522
vt 0.067895 0.045939
vt 0.067895 0.034611
vt 0.257194 0.054485
vt 0.269813 0.038748
vt 0.257194 0.038607
vt 0.287349 0.038607
vt 0.299968 0.050112
vt 0.299968 0.038748
vt 0.021387 0.030384
vt 0.008768 0.046122
vt 0.021387 0.046210
vt 0.969606 0.294620
vt 0.962200 0.306985
vt 0.969606 0.306985
vt 0.179095 0.037830
vt 0.166729 0.048159
vt 0.179348 0.054485
vt 0.965101 0.032001
vt 0.957636 0.044366
vt 0.965101 0.044366
vt 0.209249 0.037832
vt 0.196884 0.048160
vt 0.209503 0.054485
vt 0.969606 0.264465
vt 0.962200 0.276830
vt 0.969606 0.276830
vt 0.835571 0.044856
vt 0.823206 0.055185
vt 0.835824 0.061512
vt 0.969702 0.324775
vt 0.962236 0.337140
vt 0.969702 0.337140
vt 0.239404 0.037832
vt 0.227039 0.048160
vt 0.239658 0.054485
vt 0.844354 0.589363
vt 0.857780 0.578467
vt 0.852385 0.576881
vt 0.709783 0.349258
vt 0.696358 0.360153
vt 0.701753 0.361739
vt 0.709783 0.589363
vt 0.696358 0.578467
vt 0.706839 0.594758
vt 0.844354 0.349258
vt 0.857780 0.360153
vt 0.847299 0.343862
vt 0.852385 0.361739
vt 0.847299 0.594758
vt 0.880277 0.117115
vt 0.875316 0.324172
vt 0.880277 0.324172
vt 0.849470 0.749392
vt 0.864966 0.756627
vt 0.854485 0.740336
vt 0.719039 0.982176
vt 0.703544 0.974941
vt 0.714025 0.991232
vt 0.719039 0.749392
vt 0.703544 0.756627
vt 0.710769 0.762246
vt 0.849470 0.982176
vt 0.864966 0.974941
vt 0.857741 0.969322
vt 0.857741 0.762246
vt 0.714025 0.740336
vt 0.854485 0.991232
vt 0.259639 0.612294
vt 0.243497 0.658374
vt 0.259639 0.658374
vt 0.902774 0.104379
vt 0.897813 0.117115
vt 0.902774 0.117115
vt 0.897813 0.324172
vt 0.902774 0.324172
vt 0.880277 0.104379
vt 0.875316 0.117115
vt 0.060238 0.067886
vt 0.055277 0.198284
vt 0.060238 0.198284
vt 0.875316 0.337140
vt 0.880277 0.337140
vt 0.897813 0.337140
vt 0.902774 0.337140
vt 0.082735 0.067886
vt 0.077774 0.198284
vt 0.082735 0.198284
vt 0.259639 0.898892
vt 0.243497 0.991232
vt 0.259639 0.991232
vt 0.511904 0.612294
vt 0.511904 0.658374
vt 0.528047 0.612294
vt 0.008768 0.991232
vt 0.277176 0.991232
vt 0.008768 0.261900
vt 0.149193 0.215820
vt 0.008768 0.215820
vt 0.545583 0.658374
vt 0.686007 0.612294
vt 0.545583 0.612294
vt 0.243497 0.612294
vt 0.936601 0.183931
vt 0.923378 0.171181
vt 0.920310 0.173450
vt 0.942964 0.838022
vt 0.929741 0.825273
vt 0.926673 0.827541
vt 0.905757 0.988196
vt 0.909137 0.766804
vt 0.905757 0.769904
vt 0.930199 0.654527
vt 0.943422 0.641777
vt 0.926673 0.652553
vt 0.926673 0.796960
vt 0.930199 0.794986
vt 0.943422 0.807736
vt 0.946490 0.805468
vt 0.942964 0.978482
vt 0.946490 0.836049
vt 0.929741 0.991232
vt 0.946490 0.980456
vt 0.414007 0.594758
vt 0.166729 0.578162
vt 0.166729 0.594758
vt 0.431543 0.353734
vt 0.678821 0.578162
vt 0.678821 0.353734
vt 0.431543 0.578162
vt 0.678821 0.594758
vt 0.414007 0.353734
vt 0.166729 0.336836
vt 0.166729 0.353734
vt 0.431543 0.336836
vt 0.166729 0.319300
vt 0.311100 0.072022
vt 0.166729 0.072022
vt 0.696358 0.326326
vt 0.840729 0.079048
vt 0.696358 0.079048
vt 0.414007 0.578162
vt 0.898571 0.373366
vt 0.901951 0.594758
vt 0.901951 0.370330
vt 0.936601 0.324391
vt 0.923378 0.337140
vt 0.940127 0.326364
vt 0.943929 0.441549
vt 0.957152 0.428799
vt 0.940403 0.439575
vt 0.943929 0.582008
vt 0.957152 0.594758
vt 0.960220 0.592490
vt 0.919487 0.591722
vt 0.922867 0.370330
vt 0.919487 0.373430
vt 0.940403 0.583982
vt 0.661312 0.097908
vt 0.664692 0.319300
vt 0.664692 0.094872
vt 0.940127 0.181957
vt 0.149193 0.261900
vt 0.686007 0.658374
vt 0.528047 0.658374
vt 0.008768 0.898892
vt 0.277176 0.898892
vt 0.881034 0.354677
vt 0.875316 0.367270
vt 0.881034 0.367270
vt 0.328637 0.091676
vt 0.347109 0.097826
vt 0.336667 0.079195
vt 0.888220 0.751151
vt 0.882502 0.763743
vt 0.888220 0.763743
vt 0.014486 0.063747
vt 0.008768 0.198284
vt 0.014486 0.198284
vt 0.875316 0.582391
vt 0.881034 0.582391
vt 0.888220 0.978864
vt 0.882502 0.991232
vt 0.888220 0.991232
vt 0.882502 0.978864
vt 0.875316 0.594758
vt 0.881034 0.594758
vt 0.037741 0.063747
vt 0.032022 0.198284
vt 0.037741 0.198284
vt 0.340325 0.290124
vt 0.347109 0.300669
vt 0.467580 0.290124
vt 0.479268 0.306818
vt 0.460796 0.300669
vt 0.471238 0.319300
vt 0.460796 0.097826
vt 0.471238 0.079195
vt 0.328637 0.306818
vt 0.467580 0.108370
vt 0.336667 0.319300
vt 0.340325 0.108370
vt 0.479268 0.091676
vt 0.635506 0.319300
vt 0.643776 0.099369
vt 0.496805 0.099369
vt 0.635506 0.086515
vt 0.505075 0.086515
vt 0.686007 0.991232
vt 0.149193 0.594758
vt 0.277176 0.612294
vt 0.008768 0.612294
vt 0.528047 0.991232
vt 0.113692 0.198284
vt 0.357853 0.031493
vt 0.872459 0.722800
vt 0.404605 0.031493
vt 0.144650 0.198284
vt 0.603772 0.038813
vt 0.557015 0.026403
vt 0.514440 0.008768
vt 0.496805 0.051343
vt 0.514440 0.068979
vt 0.539380 0.068979
vt 0.872459 0.659192
vt 0.650528 0.038813
vt 0.933354 0.149153
vt 0.783306 0.613719
vt 0.954000 0.128507
vt 0.776472 0.052960
vt 0.797118 0.061512
vt 0.805669 0.040866
vt 0.797118 0.032314
vt 0.785024 0.032314
vt 0.703544 0.613719
vt 0.100271 0.039727
vt 0.743425 0.613719
vt 0.727553 0.677978
vt 0.897594 0.676721
vt 0.736415 0.061512
vt 0.137772 0.088597
vt 0.696358 0.061512
vt 0.748365 0.698790
vt 0.897594 0.613106
vt 0.422141 0.061658
vt 0.727553 0.707411
vt 0.798926 0.722800
vt 0.841501 0.705164
vt 0.823866 0.662589
vt 0.798926 0.662589
vt 0.781291 0.680224
vt 0.107870 0.088597
vt 0.940403 0.411262
vt 0.718933 0.686599
vt 0.889995 0.676721
vt 0.130173 0.088597
vt 0.100271 0.111846
vt 0.889995 0.613106
vt 0.677609 0.065026
vt 0.832727 0.620113
vt 0.962607 0.065856
vt 0.462202 0.040672
vt 0.055277 0.050349
vt 0.269813 0.050112
vt 0.287349 0.054485
vt 0.008768 0.034794
vt 0.957664 0.294367
vt 0.166729 0.037830
vt 0.953063 0.031747
vt 0.196884 0.037832
vt 0.957664 0.264212
vt 0.823206 0.044856
vt 0.957664 0.324522
vt 0.227039 0.037832
vt 0.706839 0.343862
vt 0.701753 0.576881
vt 0.710769 0.969322
vt 0.897813 0.104379
vt 0.875316 0.104379
vt 0.055277 0.067886
vt 0.077774 0.067886
vt 0.909137 0.991232
vt 0.946490 0.644046
vt 0.926673 0.988963
vt 0.431543 0.594758
vt 0.414007 0.336836
vt 0.678821 0.336836
vt 0.311100 0.319300
vt 0.840729 0.326326
vt 0.898571 0.591659
vt 0.920310 0.334872
vt 0.960220 0.431067
vt 0.922867 0.594758
vt 0.661312 0.316200
vt 0.875316 0.354677
vt 0.882502 0.751151
vt 0.008768 0.063747
vt 0.032022 0.063747
vn -0.262097 0.368874 -0.891761
vn 0.281978 -0.000000 -0.959421
vn -0.281977 -0.000000 -0.959421
vn 0.214565 -0.648814 -0.730070
vn 0.693185 -0.613517 -0.378275
vn 0.214570 -0.648808 0.730074
vn -0.814994 0.371462 0.444748
vn -0.877802 -0.000000 -0.479024
vn -0.877802 0.000000 0.479023
vn 0.814994 0.371462 -0.444748
vn 0.877802 0.000000 0.479024
vn 0.877802 -0.000000 -0.479023
vn 0.255949 -0.496078 0.829696
vn 0.877804 0.000000 0.479021
vn 0.281976 0.000000 0.959421
vn -0.255949 -0.496079 -0.829696
vn -0.877804 -0.000000 -0.479021
vn -0.281976 -0.000000 -0.959421
vn -0.262090 0.368875 0.891762
vn -0.877802 0.000000 0.479023
vn -0.281977 0.000000 0.959421
vn 0.262097 0.368874 0.891761
vn 0.281977 0.000000 0.959421
vn 0.000005 0.630253 -0.776390
vn -0.428058 0.795951 -0.428053
vn -0.548984 0.630259 -0.548990
vn -0.428053 0.795951 0.428057
vn -0.781662 0.623702 -0.000004
vn -0.552728 0.623690 0.552723
vn -0.552728 0.623690 0.552723
vn 0.000004 -0.630261 0.776383
vn -0.000003 0.623690 0.781672
vn -0.548984 0.630259 -0.548990
vn -0.605360 0.795952 0.000003
vn -0.776380 0.630265 -0.000004
vn -0.428058 0.795951 -0.428053
vn -0.605360 0.795952 0.000003
vn -0.781662 0.623702 -0.000004
vn -0.548985 -0.630259 0.548989
vn -0.552728 0.623690 0.552723
vn 0.776385 0.630259 0.000004
vn 0.428052 0.795951 -0.428058
vn 0.548990 0.630259 -0.548984
vn -0.000002 0.795951 -0.605361
vn -0.552723 0.623690 -0.552728
vn -0.552723 0.623690 -0.552728
vn -0.776387 -0.630256 0.000003
vn 0.548981 0.630265 0.548987
vn 0.605362 0.795950 -0.000003
vn 0.428052 0.795951 -0.428058
vn 0.000004 0.623690 -0.781672
vn 0.000004 0.623690 -0.781672
vn -0.548990 -0.630260 -0.548984
vn -0.552723 0.623690 -0.552728
vn -0.000005 0.630253 0.776390
vn 0.428057 0.795951 0.428053
vn 0.548981 0.630265 0.548987
vn 0.605362 0.795950 -0.000003
vn 0.552727 0.623690 -0.552724
vn 0.552727 0.623690 -0.552724
vn -0.000003 -0.630253 -0.776389
vn -0.548991 0.630259 0.548984
vn 0.000004 0.795951 0.605361
vn 0.552723 0.623690 0.552728
vn 0.781682 0.623677 0.000004
vn 0.781682 0.623677 0.000004
vn 0.548984 -0.630260 -0.548989
vn 0.552727 0.623690 -0.552724
vn 0.000004 -0.630261 0.776383
vn -0.776387 -0.630256 0.000003
vn -0.000003 -0.630253 -0.776389
vn 0.428057 0.795951 0.428053
vn -0.000003 0.623690 0.781672
vn 0.552723 0.623690 0.552728
vn 0.776377 -0.630269 -0.000003
vn 0.548990 0.630259 -0.548984
vn -0.000002 0.795951 -0.605361
vn 0.000004 0.795951 0.605361
vn 0.548981 -0.630274 0.548976
vn 0.552723 0.623690 0.552728
vn -0.776380 0.630265 -0.000004
vn 0.420280 0.804191 0.420288
vn -0.548984 0.630259 -0.548990
vn -0.428053 0.795951 0.428057
vn -0.548991 0.630259 0.548984
vn 0.776368 0.630279 -0.000009
vn 0.420280 0.804191 0.420288
vn 0.594359 0.804200 0.000007
vn -0.594371 0.804191 -0.000006
vn 0.548981 0.630265 0.548987
vn 0.776385 0.630259 0.000004
vn -0.000005 0.804181 0.594384
vn 0.000005 0.630253 -0.776390
vn 0.548990 0.630259 -0.548984
vn 0.000005 0.804181 -0.594385
vn -0.548991 0.630259 0.548984
vn -0.000005 0.630253 0.776390
vn 0.420288 0.804191 -0.420280
vn -0.420288 0.804191 0.420280
vn 0.548977 0.630267 -0.548988
vn -0.548991 0.630262 -0.548980
vn -0.548981 0.630259 0.548993
vn -0.000008 0.630265 -0.776380
vn 0.420288 0.804191 -0.420280
vn 0.000005 0.804181 -0.594385
vn -0.548991 0.630262 -0.548980
vn -0.420270 0.804200 -0.420280
vn -0.548981 0.630259 0.548993
vn -0.594371 0.804191 -0.000006
vn -0.420288 0.804191 0.420280
vn 0.548985 0.630274 0.548972
vn -0.000005 0.804181 0.594384
vn 0.420280 0.804191 0.420288
vn 0.548977 0.630267 -0.548988
vn 0.420288 0.804191 -0.420280
vn -0.776380 0.630265 0.000008
vn -0.420270 0.804200 -0.420280
vn 0.000008 0.630265 0.776380
vn -0.420288 0.804191 0.420280
vn -0.000003 -0.000000 -1.000000
vn -0.058890 -0.823330 -0.564499
vn 0.707105 -0.000000 -0.707108
vn 0.564416 -0.823363 -0.059228
vn 0.715110 -0.573390 0.399801
vn 0.786429 -0.574500 0.226889
vn 0.786429 -0.574500 0.226889
vn 0.128193 0.461434 0.877864
vn -0.389818 -0.576052 0.718475
vn 0.707105 -0.000000 -0.707108
vn 0.357210 -0.823362 0.440994
vn 1.000000 -0.000000 -0.000003
vn -0.070267 -0.824468 -0.561530
vn 0.347414 -0.824467 0.446720
vn 0.715110 -0.573390 0.399801
vn 0.531476 0.469030 0.705368
vn 0.786429 -0.574500 0.226889
vn -1.000000 0.000000 0.000003
vn -0.564499 -0.823330 0.058889
vn -0.707109 -0.000000 -0.707104
vn 0.441142 -0.823390 -0.356963
vn 0.226889 -0.574501 -0.786428
vn -0.058890 -0.823330 -0.564499
vn 0.226889 -0.574501 -0.786428
vn 0.875975 0.465836 -0.125159
vn -0.707105 0.000000 0.707109
vn -0.356963 -0.823390 -0.441143
vn 0.446720 -0.824466 -0.347415
vn -0.788366 -0.573386 -0.222953
vn 0.389818 -0.576052 -0.718475
vn 0.389818 -0.576052 -0.718475
vn 0.705370 0.469029 -0.531475
vn 0.226889 -0.574501 -0.786428
vn 0.000003 0.000000 1.000000
vn 0.058890 -0.823330 0.564500
vn -0.707105 0.000000 0.707109
vn -0.356963 -0.823390 -0.441143
vn -0.564499 -0.823330 0.058889
vn -0.788366 -0.573386 -0.222953
vn -0.130150 0.458568 -0.879077
vn 0.707109 0.000000 0.707104
vn -0.441143 -0.823389 0.356963
vn -0.347356 -0.824468 -0.446763
vn -0.222953 -0.573385 0.788366
vn -0.718475 -0.576052 -0.389818
vn -0.718475 -0.576052 -0.389818
vn -0.531477 0.469029 -0.705368
vn -0.788366 -0.573386 -0.222953
vn 0.128193 0.461434 0.877864
vn 0.875975 0.465836 -0.125159
vn -0.130150 0.458568 -0.879077
vn -0.441143 -0.823389 0.356963
vn 0.058890 -0.823330 0.564500
vn -0.222953 -0.573385 0.788366
vn -0.875412 0.467127 0.124278
vn -0.707109 -0.000000 -0.707104
vn 0.441142 -0.823390 -0.356963
vn -0.446719 -0.824467 0.347414
vn -0.389818 -0.576052 0.718475
vn -0.709867 0.463379 0.530442
vn -0.222953 -0.573385 0.788366
vn 0.564416 -0.823363 -0.059228
vn 0.707109 0.000000 0.707104
vn 0.532103 0.472492 0.702580
vn -0.460508 0.559478 0.689142
vn 0.120547 0.472492 0.873052
vn 0.702581 0.472491 -0.532101
vn 0.689154 0.559457 0.460515
vn 0.873052 0.472491 -0.120546
vn -0.161671 0.559457 0.812939
vn -0.873052 0.472491 0.120547
vn -0.702581 0.472491 0.532102
vn -0.532103 0.472492 -0.702580
vn 0.460515 0.559457 -0.689154
vn -0.120547 0.472491 -0.873052
vn -0.812926 0.559468 -0.161700
vn 0.666017 0.652840 0.360861
vn 0.460515 0.559457 -0.689154
vn -0.460508 0.559478 0.689142
vn 0.215778 0.652840 -0.726113
vn -0.666013 0.652842 -0.360867
vn 0.726113 0.652840 0.215777
vn -0.689165 0.559469 -0.460485
vn -0.161671 0.559457 0.812939
vn 0.161703 0.559469 -0.812925
vn -0.360861 0.652840 0.666017
vn 0.689154 0.559457 0.460515
vn 0.666017 0.652840 0.360861
vn -0.563217 -0.822009 0.084183
vn 0.446772 -0.824447 -0.347394
vn 0.726113 0.652840 0.215777
vn -0.338761 -0.821985 -0.457801
vn 0.360867 0.652843 -0.666011
vn -0.360861 0.652840 0.666017
vn -0.084240 -0.821999 -0.563224
vn 0.347430 -0.824457 0.446726
vn 0.215778 0.652840 -0.726113
vn -0.457846 -0.821974 0.338725
vn -0.666013 0.652842 -0.360867
vn -0.233929 -0.576580 0.782836
vn 0.726113 0.652840 0.215777
vn -0.161671 0.559457 0.812939
vn -0.719034 -0.576490 -0.388135
vn 0.360867 0.652843 -0.666011
vn -0.338761 -0.821985 -0.457801
vn -0.782835 -0.576581 -0.233930
vn -0.215770 0.652843 0.726112
vn -0.812926 0.559468 -0.161700
vn 0.388135 -0.576490 -0.719034
vn 0.666017 0.652840 0.360861
vn 0.446772 -0.824447 -0.347394
vn 0.233930 -0.576581 -0.782836
vn -0.726112 0.652844 -0.215770
vn 0.161703 0.559469 -0.812925
vn 0.719034 -0.576490 0.388135
vn -0.360861 0.652840 0.666017
vn 0.347430 -0.824457 0.446726
vn 0.782836 -0.576581 0.233929
vn 0.215778 0.652840 -0.726113
vn 0.812940 0.559447 0.161703
vn -0.388136 -0.576490 0.719034
vn -0.666013 0.652842 -0.360867
vn -0.457846 -0.821974 0.338725
vn 0.579082 0.751532 -0.316011
vn 0.262090 0.368874 -0.891763
vn 0.195218 0.721596 -0.664220
vn -0.579082 0.751533 0.316011
vn -0.262090 0.368875 0.891762
vn -0.195218 0.721596 0.664220
vn 0.579083 0.751533 0.316010
vn 0.262097 0.368874 0.891761
vn 0.814994 0.371465 0.444746
vn -0.579083 0.751532 -0.316010
vn -0.262097 0.368874 -0.891761
vn -0.814994 0.371465 -0.444746
vn -0.195217 0.721596 -0.664222
vn 0.814994 0.371462 -0.444748
vn -0.147002 -0.916964 0.370900
vn 0.214570 -0.648808 0.730074
vn 0.146991 -0.916974 0.370880
vn -0.288488 -0.944239 0.158705
vn 0.255957 -0.496076 -0.829696
vn 0.762963 -0.494281 -0.416621
vn 0.288488 -0.944239 -0.158705
vn -0.255957 -0.496076 0.829696
vn -0.762963 -0.494281 0.416621
vn -0.288503 -0.944232 -0.158720
vn 0.255949 -0.496078 0.829696
vn -0.146991 -0.916974 -0.370880
vn 0.288502 -0.944232 0.158721
vn -0.255949 -0.496079 -0.829696
vn 0.146991 -0.916974 0.370880
vn -0.147002 -0.916964 0.370900
vn 0.762954 -0.494282 0.416637
vn -0.762954 -0.494282 -0.416637
vn 0.762963 -0.494281 -0.416621
vn 0.281975 -0.000000 -0.959422
vn 0.877798 -0.000000 -0.479032
vn 0.288488 -0.944239 -0.158705
vn 0.214565 -0.648814 -0.730070
vn 0.147002 -0.916964 -0.370900
vn -0.214570 -0.648808 -0.730074
vn -0.146991 -0.916974 -0.370880
vn -0.288488 -0.944239 0.158705
vn -0.214565 -0.648813 0.730071
vn 0.288502 -0.944232 0.158721
vn 0.693185 -0.613517 -0.378275
vn 0.288488 -0.944239 -0.158705
vn 0.693181 -0.613528 0.378263
vn 0.288502 -0.944232 0.158721
vn -0.693181 -0.613528 -0.378263
vn -0.288503 -0.944232 -0.158720
vn -0.288503 -0.944232 -0.158720
vn -0.693185 -0.613517 0.378275
vn -0.288488 -0.944239 0.158705
vn 0.877802 -0.000000 -0.479023
vn 0.262090 0.368874 -0.891763
vn 0.814994 0.371462 -0.444748
vn -0.255957 -0.496076 0.829696
vn -0.281975 0.000000 0.959422
vn -0.762963 -0.494281 0.416621
vn -0.814994 0.371465 -0.444746
vn 0.814994 0.371465 0.444746
vn 0.877798 -0.000000 -0.479032
vn 0.762954 -0.494282 0.416637
vn 0.762963 -0.494281 -0.416621
vn -0.877798 0.000000 0.479032
vn -0.762954 -0.494282 -0.416637
vn -0.762963 -0.494281 0.416621
vn 0.255957 -0.496076 -0.829696
vn -0.564435 0.766999 0.305166
vn 0.077351 0.865160 -0.495495
vn -0.141564 0.637034 0.757725
vn 0.564433 -0.767000 0.305165
vn -0.077351 -0.865158 -0.495498
vn 0.141563 -0.637037 0.757723
vn 0.141563 -0.637037 0.757723
vn 0.077344 -0.865146 -0.495520
vn -0.141563 -0.637037 0.757723
vn 0.564436 0.766998 0.305167
vn -0.077344 0.865147 -0.495519
vn -0.530864 0.796922 -0.288269
vn -0.530858 0.796929 0.288262
vn 0.564435 0.766999 -0.305166
vn -0.077351 0.865160 0.495495
vn 0.141564 0.637034 -0.757725
vn 0.564431 -0.767002 -0.305165
vn -0.530859 -0.796928 -0.288263
vn -0.077344 -0.865146 0.495520
vn -0.530866 -0.796921 0.288268
vn 0.530866 -0.796921 -0.288268
vn 0.077351 0.865160 -0.495495
vn 0.530858 0.796928 -0.288262
vn 0.077344 0.865147 0.495518
vn -0.077344 -0.865146 0.495520
vn 0.077351 -0.865158 0.495498
vn -0.077351 0.865160 0.495495
vn -0.530866 -0.796921 0.288268
vn -0.077351 -0.865158 -0.495498
vn -0.530864 0.796922 -0.288269
vn -0.077344 0.865147 -0.495519
vn 0.530864 0.796922 0.288268
vn 0.530858 0.796928 -0.288262
vn 0.530859 -0.796927 0.288263
vn 0.530866 -0.796921 -0.288268
vn -0.530858 0.796929 0.288262
vn -0.530859 -0.796928 -0.288263
vn -0.530866 -0.796921 0.288268
vn 0.077344 -0.865146 -0.495520
vn 0.141563 0.637034 0.757725
vn 0.077351 0.865160 -0.495495
vn -0.077344 0.865147 -0.495519
vn -0.564436 0.766998 -0.305167
vn 0.077344 0.865147 0.495518
vn 0.530864 0.796922 0.288268
vn -0.564431 -0.767002 0.305165
vn 0.077344 -0.865146 -0.495520
vn 0.530866 -0.796921 -0.288268
vn -0.564433 -0.767000 -0.305164
vn 0.077351 -0.865158 0.495498
vn -0.141563 -0.637037 -0.757722
vn -0.141563 -0.637037 -0.757722
vn -0.077344 -0.865146 0.495520
vn 0.141563 -0.637037 -0.757723
vn 0.530859 -0.796927 0.288263
vn -0.141563 0.637034 -0.757725
vn -0.077351 0.865160 0.495495
vn 0.077344 0.865147 0.495518
vn 0.530858 0.796928 -0.288262
vn 0.877804 0.000000 0.479021
vn -0.877804 -0.000000 -0.479021
vn -0.877798 0.000000 0.479032
vn -0.877802 -0.000000 -0.479024
vn 0.877802 0.000000 0.479024
vn -0.877808 -0.000000 -0.479013
vn -0.137519 0.788500 -0.599463
vn -0.281976 -0.000000 -0.959421
vn -0.137531 0.788479 0.599488
vn 0.225080 0.966769 -0.121231
vn -0.606064 0.723758 0.329940
vn 0.877808 0.000000 0.479013
vn 0.137519 0.788500 0.599463
vn 0.281976 0.000000 0.959421
vn 0.877803 -0.000000 -0.479021
vn 0.606078 0.723739 0.329958
vn 0.877808 0.000000 0.479013
vn 0.137531 0.788479 -0.599488
vn 0.281971 -0.000000 -0.959423
vn -0.281971 0.000000 0.959423
vn -0.606064 0.723758 0.329940
vn -0.877803 0.000000 0.479021
vn -0.137531 0.788479 0.599488
vn 0.606064 0.723758 -0.329940
vn 0.877803 -0.000000 -0.479021
vn -0.877803 0.000000 0.479021
vn -0.606078 0.723738 -0.329958
vn -0.877808 -0.000000 -0.479013
vn -0.047737 0.945224 -0.322912
vn -0.225079 0.966769 -0.121232
vn -0.047736 0.945225 0.322911
vn 0.137531 0.788479 -0.599488
vn -0.225080 0.966769 0.121231
vn 0.606064 0.723758 -0.329940
vn 0.225079 0.966769 0.121232
vn -0.606078 0.723738 -0.329958
vn 0.137519 0.788500 0.599463
vn 0.047737 0.945224 0.322912
vn 0.606078 0.723739 0.329958
vn 0.047736 0.945225 -0.322911
vn -0.137519 0.788500 -0.599463
vn 0.693181 -0.613528 0.378263
vn -0.214565 -0.648813 0.730071
vn -0.214570 -0.648808 -0.730074
vn -0.693185 -0.613517 0.378275
vn -0.693181 -0.613528 -0.378263
vn -0.814994 0.371465 -0.444746
vn 0.814994 0.371465 0.444746
vn 0.762954 -0.494282 0.416637
vn -0.762954 -0.494282 -0.416637
vn -0.814994 0.371462 0.444748
vn -0.548985 -0.630259 0.548989
vn -0.428058 0.795951 -0.428053
vn -0.548990 -0.630260 -0.548984
vn 0.428057 0.795951 0.428053
vn 0.548984 -0.630260 -0.548989
vn -0.428053 0.795951 0.428057
vn -0.548985 -0.630259 0.548989
vn -0.548990 -0.630260 -0.548984
vn 0.548984 -0.630260 -0.548989
vn 0.776377 -0.630269 -0.000003
vn 0.548981 -0.630274 0.548976
vn 0.548981 -0.630274 0.548976
vn 0.428052 0.795951 -0.428058
vn 0.594359 0.804200 0.000007
vn 0.548985 0.630274 0.548972
vn -0.420270 0.804200 -0.420280
vn -0.000008 0.630265 -0.776380
vn -0.776380 0.630265 0.000008
vn 0.000008 0.630265 0.776380
vn 0.548985 0.630274 0.548972
vn 0.776368 0.630279 -0.000009
vn 0.548977 0.630267 -0.548988
vn -0.548991 0.630262 -0.548980
vn -0.548981 0.630259 0.548993
vn 0.357210 -0.823362 0.440994
vn 0.531476 0.469030 0.705368
vn -0.058890 -0.823330 -0.564499
vn 0.705370 0.469029 -0.531475
vn 0.058890 -0.823330 0.564500
vn -0.561530 -0.824468 0.070268
vn -0.531477 0.469029 -0.705368
vn 0.564416 -0.823363 -0.059228
vn 0.070267 -0.824467 0.561530
vn 0.531476 0.469030 0.705368
vn 0.705370 0.469029 -0.531475
vn -0.531477 0.469029 -0.705368
vn -0.875412 0.467127 0.124278
vn -0.709867 0.463379 0.530442
vn -0.709867 0.463379 0.530442
vn -0.564499 -0.823330 0.058889
vn 0.561530 -0.824468 -0.070268
vn 0.812940 0.559447 0.161703
vn 0.161703 0.559469 -0.812925
vn -0.689165 0.559469 -0.460485
vn -0.812926 0.559468 -0.161700
vn -0.215770 0.652843 0.726112
vn 0.812940 0.559447 0.161703
vn 0.360867 0.652843 -0.666011
vn -0.726112 0.652844 -0.215770
vn -0.215770 0.652843 0.726112
vn 0.070223 -0.824480 0.561517
vn -0.726112 0.652844 -0.215770
vn 0.561524 -0.824471 -0.070280
vn 0.070223 -0.824480 0.561517
vn -0.689165 0.559469 -0.460485
vn -0.563217 -0.822009 0.084183
vn 0.460515 0.559457 -0.689154
vn -0.084240 -0.821999 -0.563224
vn 0.689154 0.559457 0.460515
vn 0.561524 -0.824471 -0.070280
vn -0.460508 0.559478 0.689142
vn -0.814994 0.371462 0.444748
vn 0.195217 0.721596 0.664221
vn 0.147002 -0.916964 -0.370900
vn 0.693185 -0.613517 -0.378275
vn -0.693185 -0.613517 0.378275
vn 0.693181 -0.613528 0.378263
vn -0.693181 -0.613528 -0.378263
vn -0.077351 -0.865158 -0.495498
vn 0.141563 0.637034 0.757725
vn 0.141563 -0.637037 -0.757723
vn -0.530858 0.796929 0.288262
vn -0.530859 -0.796928 -0.288263
vn 0.530859 -0.796927 0.288263
vn 0.530864 0.796922 0.288268
vn -0.530864 0.796922 -0.288269
vn -0.141564 0.637034 0.757725
vn -0.141563 0.637034 -0.757725
vn -0.141563 -0.637037 0.757723
vn 0.077351 -0.865158 0.495498
vn 0.141564 0.637034 -0.757725
vn -0.606078 0.723738 -0.329958
vn 0.606078 0.723739 0.329958
vn 0.606064 0.723758 -0.329940
vn -0.606064 0.723758 0.329940
f 1/1/1 2/2/2 3/3/3
f 4/4/4 5/5/5 6/6/6
f 7/7/7 8/8/8 9/9/9
f 10/10/10 11/11/11 12/12/12
f 13/13/13 14/14/14 15/15/15
f 16/16/16 17/17/17 18/18/18
f 19/19/19 20/20/20 21/21/21
f 22/22/22 21/21/21 23/23/23
f 24/24/24 25/25/25 26/26/26
f 27/27/27 28/28/28 29/29/29
f 30/30/30 31/31/31 32/32/32
f 33/33/33 34/34/34 35/35/35
f 36/36/36 28/28/28 37/37/37
f 38/38/38 39/39/39 40/40/40
f 41/41/41 42/42/42 43/43/43
f 44/44/44 45/45/45 36/36/36
f 46/46/46 47/47/47 38/38/38
f 48/48/48 49/49/49 41/41/41
f 50/50/50 51/51/51 44/44/44
f 52/52/52 53/53/53 54/54/54
f 55/55/55 56/56/56 57/57/57
f 58/58/58 59/59/59 50/50/50
f 60/60/60 61/61/61 52/52/52
f 62/62/62 63/63/63 55/55/55
f 58/58/58 64/64/64 65/65/65
f 66/66/66 67/67/67 68/68/68
f 69/69/69 70/70/70 71/71/71
f 72/72/72 73/73/73 64/64/64
f 74/74/74 75/75/75 66/66/66
f 76/76/76 77/77/77 24/24/24
f 78/78/78 29/29/29 73/73/73
f 32/32/32 79/79/79 80/80/80
f 81/81/81 82/82/82 83/83/83
f 35/35/35 84/84/84 85/85/85
f 86/86/86 87/87/87 88/88/88
f 89/89/89 90/90/90 91/91/91
f 83/83/83 92/92/92 93/93/93
f 92/92/92 94/94/94 93/93/93
f 95/95/95 96/96/96 97/97/97
f 98/98/98 81/81/81 96/96/96
f 99/99/99 91/91/91 94/94/94
f 90/90/90 95/95/95 97/97/97
f 100/100/100 101/101/101 102/102/102
f 103/103/103 104/104/104 105/105/105
f 106/106/106 105/105/105 107/107/107
f 108/108/108 109/109/109 110/110/110
f 111/111/111 112/112/112 113/113/113
f 114/114/114 88/88/88 115/115/115
f 116/116/116 117/117/117 109/109/109
f 118/118/118 119/119/119 112/112/112
f 120/120/120 121/121/121 122/122/122
f 123/123/123 124/124/124 125/125/125
f 126/126/126 127/127/127 128/128/128
f 129/129/129 130/130/130 131/131/131
f 132/132/132 124/124/124 133/133/133
f 134/134/134 135/135/135 136/136/136
f 137/137/137 138/138/138 139/139/139
f 140/140/140 141/141/141 142/142/142
f 143/143/143 144/144/144 134/134/134
f 145/145/145 146/146/146 137/137/137
f 147/147/147 148/148/148 149/149/149
f 150/150/150 151/151/151 152/152/152
f 153/153/153 154/154/154 155/155/155
f 156/156/156 148/148/148 157/157/157
f 158/158/158 159/159/159 150/150/150
f 160/160/160 161/161/161 153/153/153
f 162/162/162 163/163/163 164/164/164
f 165/165/165 166/166/166 167/167/167
f 168/168/168 169/169/169 170/170/170
f 171/171/171 163/163/163 172/172/172
f 173/173/173 174/174/174 165/165/165
f 175/175/175 176/176/176 120/120/120
f 177/177/177 125/125/125 178/178/178
f 128/128/128 179/179/179 180/180/180
f 131/131/131 181/181/181 182/182/182
f 183/183/183 184/184/184 185/185/185
f 186/186/186 187/187/187 188/188/188
f 189/189/189 190/190/190 191/191/191
f 192/192/192 193/193/193 194/194/194
f 195/195/195 196/196/196 197/197/197
f 198/198/198 199/199/199 200/200/200
f 201/201/201 202/202/202 203/203/203
f 204/204/204 205/205/205 206/206/206
f 207/207/207 208/208/208 209/209/209
f 210/210/210 211/211/211 212/212/212
f 213/213/213 214/214/214 215/215/215
f 216/216/216 217/217/217 218/218/218
f 219/219/219 220/220/220 221/221/221
f 222/222/222 223/223/223 224/224/224
f 225/225/225 226/226/226 227/227/227
f 228/228/228 229/229/229 230/230/230
f 231/231/231 232/232/232 233/233/233
f 234/234/234 235/235/235 236/236/236
f 237/237/237 238/238/238 239/239/239
f 240/240/240 241/241/241 242/242/242
f 243/243/243 244/244/244 245/245/245
f 246/246/246 247/247/247 248/248/248
f 249/249/249 250/250/250 251/251/251
f 252/252/252 253/253/253 254/254/254
f 245/245/245 253/253/253 255/255/255
f 243/243/243 251/251/251 256/256/256
f 254/254/254 246/246/246 252/252/252
f 250/250/250 248/248/248 247/247/247
f 257/257/257 258/258/258 259/259/259
f 260/260/260 261/261/261 262/262/262
f 263/263/263 264/264/264 265/265/265
f 266/266/266 267/267/267 268/268/268
f 269/269/269 270/270/270 271/271/271
f 271/271/271 261/261/261 272/272/272
f 260/260/260 273/273/273 266/266/266
f 274/274/274 263/263/263 265/265/265
f 264/264/264 268/268/268 267/267/267
f 275/275/275 276/276/276 277/277/277
f 278/278/278 279/279/279 280/280/280
f 280/280/280 281/281/281 282/282/282
f 283/283/283 284/284/284 257/257/257
f 285/285/285 286/286/286 287/287/287
f 259/259/259 288/288/288 289/289/289
f 282/282/282 290/290/290 291/291/291
f 292/292/292 293/293/293 294/294/294
f 295/295/295 296/296/296 297/297/297
f 15/15/15 298/298/298 13/13/13
f 299/299/299 300/300/300 298/298/298
f 3/3/3 301/301/301 1/1/1
f 23/23/23 302/302/302 22/22/22
f 303/303/303 304/304/304 305/305/305
f 306/306/306 307/307/307 308/308/308
f 18/18/18 309/309/309 16/16/16
f 310/310/310 311/311/311 312/312/312
f 313/313/313 314/314/314 315/315/315
f 316/316/316 317/317/317 318/318/318
f 319/319/319 320/320/320 321/321/321
f 319/319/319 322/322/322 323/323/323
f 323/323/323 324/324/324 325/325/325
f 326/326/326 327/327/327 313/313/313
f 326/326/326 328/328/328 329/329/329
f 330/330/330 331/331/331 332/332/332
f 333/333/333 334/334/334 335/335/335
f 336/336/336 337/337/337 334/334/334
f 338/338/338 339/339/339 340/340/340
f 335/335/335 341/341/341 333/333/333
f 342/342/342 343/343/343 344/344/344
f 345/345/345 346/346/346 347/347/347
f 340/340/340 348/348/348 338/338/338
f 349/349/349 350/350/350 351/351/351
f 352/352/352 353/353/353 354/354/354
f 355/355/355 356/356/356 357/357/357
f 358/358/358 359/359/359 360/360/360
f 361/361/361 362/362/362 363/363/363
f 355/355/355 364/364/364 358/358/358
f 365/365/365 366/366/366 367/367/367
f 352/352/352 368/368/368 310/310/310
f 15/15/15 21/21/21 299/299/299
f 18/18/18 2/2/2 276/276/276
f 303/303/303 11/11/11 369/369/369
f 306/306/306 8/8/8 370/370/370
f 299/299/299 20/20/20 371/371/371
f 3/3/3 17/17/17 372/372/372
f 295/295/295 276/276/276 2/2/2
f 23/23/23 14/14/14 373/373/373
f 374/374/374 375/375/375 376/376/376
f 377/377/377 378/378/378 379/379/379
f 380/380/380 381/381/381 382/382/382
f 383/383/383 384/384/384 385/385/385
f 376/376/376 386/386/386 387/387/387
f 388/388/388 389/389/389 390/390/390
f 382/382/382 391/391/391 388/388/388
f 387/387/387 392/392/392 393/393/393
f 394/394/394 395/395/395 396/396/396
f 397/397/397 398/398/398 399/399/399
f 400/400/400 401/401/401 402/402/402
f 379/379/379 403/403/403 404/404/404
f 405/405/405 398/398/398 397/397/397
f 400/400/400 406/406/406 399/399/399
f 402/402/402 398/398/398 407/407/407
f 377/377/377 397/397/397 408/408/408
f 409/409/409 403/403/403 406/406/406
f 1/1/1 296/296/296 2/2/2
f 5/5/5 410/410/410 6/6/6
f 6/6/6 411/411/411 412/412/412
f 411/411/411 413/413/413 412/412/412
f 413/413/413 414/414/414 412/412/412
f 412/412/412 4/4/4 6/6/6
f 7/7/7 415/415/415 8/8/8
f 10/10/10 416/416/416 11/11/11
f 13/13/13 417/417/417 14/14/14
f 16/16/16 418/418/418 17/17/17
f 19/19/19 419/419/419 20/20/20
f 22/22/22 19/19/19 21/21/21
f 24/24/24 77/77/77 25/25/25
f 27/27/27 37/37/37 28/28/28
f 30/30/30 420/420/420 31/31/31
f 33/33/33 421/421/421 34/34/34
f 36/36/36 45/45/45 28/28/28
f 38/38/38 47/47/47 39/39/39
f 41/41/41 49/49/49 42/42/42
f 44/44/44 51/51/51 45/45/45
f 46/46/46 422/422/422 47/47/47
f 48/48/48 423/423/423 49/49/49
f 50/50/50 59/59/59 51/51/51
f 52/52/52 61/61/61 53/53/53
f 55/55/55 63/63/63 56/56/56
f 58/58/58 65/65/65 59/59/59
f 60/60/60 424/424/424 61/61/61
f 62/62/62 425/425/425 63/63/63
f 58/58/58 72/72/72 64/64/64
f 66/66/66 75/75/75 67/67/67
f 69/69/69 426/426/426 70/70/70
f 70/70/70 427/427/427 71/71/71
f 71/71/71 428/428/428 429/429/429
f 429/429/429 430/430/430 71/71/71
f 430/430/430 69/69/69 71/71/71
f 72/72/72 78/78/78 73/73/73
f 74/74/74 431/431/431 75/75/75
f 76/76/76 432/432/432 77/77/77
f 78/78/78 27/27/27 29/29/29
f 32/32/32 31/31/31 79/79/79
f 81/81/81 433/433/433 82/82/82
f 35/35/35 34/34/34 84/84/84
f 86/86/86 434/434/434 87/87/87
f 89/89/89 435/435/435 90/90/90
f 83/83/83 82/82/82 92/92/92
f 92/92/92 99/99/99 94/94/94
f 95/95/95 98/98/98 96/96/96
f 98/98/98 433/433/433 81/81/81
f 99/99/99 89/89/89 91/91/91
f 90/90/90 435/435/435 95/95/95
f 100/100/100 436/436/436 101/101/101
f 101/101/101 437/437/437 102/102/102
f 102/102/102 438/438/438 439/439/439
f 439/439/439 440/440/440 102/102/102
f 440/440/440 100/100/100 102/102/102
f 103/103/103 441/441/441 104/104/104
f 106/106/106 103/103/103 105/105/105
f 108/108/108 116/116/116 109/109/109
f 111/111/111 118/118/118 112/112/112
f 114/114/114 86/86/86 88/88/88
f 116/116/116 442/442/442 117/117/117
f 118/118/118 443/443/443 119/119/119
f 120/120/120 176/176/176 121/121/121
f 123/123/123 444/444/444 124/124/124
f 126/126/126 445/445/445 127/127/127
f 129/129/129 446/446/446 130/130/130
f 132/132/132 141/141/141 124/124/124
f 134/134/134 144/144/144 135/135/135
f 137/137/137 146/146/146 138/138/138
f 140/140/140 149/149/149 141/141/141
f 143/143/143 447/447/447 144/144/144
f 145/145/145 448/448/448 146/146/146
f 147/147/147 449/449/449 148/148/148
f 150/150/150 159/159/159 151/151/151
f 153/153/153 161/161/161 154/154/154
f 156/156/156 164/164/164 148/148/148
f 158/158/158 450/450/450 159/159/159
f 160/160/160 451/451/451 161/161/161
f 162/162/162 452/452/452 163/163/163
f 165/165/165 174/174/174 166/166/166
f 168/168/168 453/453/453 169/169/169
f 169/169/169 454/454/454 170/170/170
f 170/170/170 455/455/455 456/456/456
f 456/456/456 457/457/457 170/170/170
f 457/457/457 168/168/168 170/170/170
f 171/171/171 178/178/178 163/163/163
f 173/173/173 458/458/458 174/174/174
f 175/175/175 459/459/459 176/176/176
f 177/177/177 460/460/460 125/125/125
f 128/128/128 127/127/127 179/179/179
f 131/131/131 130/130/130 181/181/181
f 183/183/183 461/461/461 184/184/184
f 186/186/186 462/462/462 187/187/187
f 189/189/189 463/463/463 190/190/190
f 192/192/192 464/464/464 193/193/193
f 195/195/195 465/465/465 196/196/196
f 198/198/198 466/466/466 199/199/199
f 201/201/201 467/467/467 202/202/202
f 204/204/204 468/468/468 205/205/205
f 207/207/207 469/469/469 208/208/208
f 210/210/210 470/470/470 211/211/211
f 213/213/213 471/471/471 214/214/214
f 216/216/216 472/472/472 217/217/217
f 219/219/219 473/473/473 220/220/220
f 222/222/222 474/474/474 223/223/223
f 225/225/225 475/475/475 226/226/226
f 228/228/228 476/476/476 229/229/229
f 231/231/231 477/477/477 232/232/232
f 234/234/234 478/478/478 235/235/235
f 237/237/237 479/479/479 238/238/238
f 240/240/240 480/480/480 241/241/241
f 243/243/243 256/256/256 244/244/244
f 246/246/246 481/481/481 247/247/247
f 249/249/249 482/482/482 250/250/250
f 252/252/252 255/255/255 253/253/253
f 245/245/245 244/244/244 253/253/253
f 243/243/243 249/249/249 251/251/251
f 254/254/254 481/481/481 246/246/246
f 250/250/250 482/482/482 248/248/248
f 257/257/257 284/284/284 258/258/258
f 260/260/260 272/272/272 261/261/261
f 263/263/263 483/483/483 264/264/264
f 266/266/266 273/273/273 267/267/267
f 269/269/269 274/274/274 270/270/270
f 271/271/271 270/270/270 261/261/261
f 260/260/260 262/262/262 273/273/273
f 274/274/274 269/269/269 263/263/263
f 264/264/264 483/483/483 268/268/268
f 275/275/275 309/309/309 276/276/276
f 278/278/278 484/484/484 279/279/279
f 280/280/280 279/279/279 281/281/281
f 283/283/283 485/485/485 284/284/284
f 285/285/285 486/486/486 286/286/286
f 259/259/259 258/258/258 288/288/288
f 282/282/282 281/281/281 290/290/290
f 292/292/292 487/487/487 293/293/293
f 295/295/295 2/2/2 296/296/296
f 15/15/15 299/299/299 298/298/298
f 299/299/299 371/371/371 300/300/300
f 3/3/3 372/372/372 301/301/301
f 23/23/23 373/373/373 302/302/302
f 303/303/303 369/369/369 304/304/304
f 306/306/306 370/370/370 307/307/307
f 18/18/18 276/276/276 309/309/309
f 310/310/310 368/368/368 311/311/311
f 313/313/313 327/327/327 314/314/314
f 316/316/316 488/488/488 317/317/317
f 319/319/319 489/489/489 320/320/320
f 319/319/319 321/321/321 322/322/322
f 323/323/323 322/322/322 324/324/324
f 326/326/326 329/329/329 327/327/327
f 326/326/326 490/490/490 328/328/328
f 330/330/330 348/348/348 331/331/331
f 333/333/333 336/336/336 334/334/334
f 336/336/336 491/491/491 337/337/337
f 338/338/338 492/492/492 339/339/339
f 335/335/335 493/493/493 341/341/341
f 342/342/342 494/494/494 343/343/343
f 345/345/345 495/495/495 346/346/346
f 340/340/340 331/331/331 348/348/348
f 349/349/349 496/496/496 350/350/350
f 352/352/352 497/497/497 353/353/353
f 355/355/355 498/498/498 356/356/356
f 358/358/358 364/364/364 359/359/359
f 361/361/361 499/499/499 362/362/362
f 355/355/355 357/357/357 364/364/364
f 365/365/365 500/500/500 366/366/366
f 352/352/352 354/354/354 368/368/368
f 15/15/15 23/23/23 21/21/21
f 18/18/18 3/3/3 2/2/2
f 303/303/303 12/12/12 11/11/11
f 306/306/306 9/9/9 8/8/8
f 299/299/299 21/21/21 20/20/20
f 3/3/3 18/18/18 17/17/17
f 295/295/295 277/277/277 276/276/276
f 23/23/23 15/15/15 14/14/14
f 374/374/374 501/501/501 375/375/375
f 377/377/377 408/408/408 378/378/378
f 380/380/380 502/502/502 381/381/381
f 383/383/383 503/503/503 384/384/384
f 376/376/376 375/375/375 386/386/386
f 388/388/388 391/391/391 389/389/389
f 382/382/382 381/381/381 391/391/391
f 387/387/387 386/386/386 392/392/392
f 394/394/394 504/504/504 395/395/395
f 398/398/398 401/401/401 399/399/399
f 399/399/399 406/406/406 408/408/408
f 406/406/406 403/403/403 408/408/408
f 403/403/403 378/378/378 408/408/408
f 408/408/408 397/397/397 399/399/399
f 400/400/400 399/399/399 401/401/401
f 379/379/379 378/378/378 403/403/403
f 405/405/405 407/407/407 398/398/398
f 400/400/400 409/409/409 406/406/406
f 402/402/402 401/401/401 398/398/398
f 377/377/377 405/405/405 397/397/397
f 409/409/409 404/404/404 403/403/403
