# Cube -- imported by tools/import_asset_pack.py from Pill.fbx
o __pending__
v 0.012046 -0.020571 0.000000
v -0.012981 -0.022167 0.035624
v -0.012046 -0.020571 0.000000
v -0.020571 0.012046 -0.000000
v -0.022167 -0.012981 -0.035624
v -0.020571 -0.012046 0.000000
v 0.022167 -0.012981 0.035624
v 0.012981 -0.022167 0.035624
v 0.012981 0.012981 0.045000
v -0.012981 -0.012981 0.045000
v 0.012981 -0.012981 0.045000
v -0.012046 0.020571 -0.000000
v 0.012981 0.022167 0.035624
v 0.012046 0.020571 -0.000000
v 0.020571 0.012046 -0.000000
v 0.022167 -0.012981 0.035624
v 0.020571 -0.012046 0.000000
v 0.012981 0.012981 -0.045000
v 0.012981 0.022167 -0.035624
v 0.022167 0.012981 -0.035624
v 0.012981 -0.022167 -0.035624
v 0.012981 -0.012981 -0.045000
v 0.022167 -0.012981 -0.035624
v 0.022167 0.012981 0.035624
v 0.012981 0.022167 0.035624
v 0.012981 0.012981 0.045000
v 0.022167 -0.012981 0.035624
v 0.012981 -0.012981 0.045000
v 0.012981 -0.022167 0.035624
v -0.012981 0.012981 -0.045000
v -0.022167 0.012981 -0.035624
v -0.012981 0.022167 -0.035624
v -0.022167 -0.012981 -0.035624
v -0.012981 -0.012981 -0.045000
v -0.012981 -0.022167 -0.035624
v -0.022167 0.012981 0.035624
v -0.012981 0.012981 0.045000
v -0.012981 0.022167 0.035624
v -0.012981 -0.022167 0.035624
v -0.022167 -0.012981 0.035624
v -0.020571 -0.012046 0.000000
v -0.012981 -0.022167 -0.035624
v 0.012981 -0.012981 -0.045000
v 0.012981 -0.022167 -0.035624
v -0.012981 0.022167 0.035624
v 0.012981 0.012981 0.045000
v 0.020571 0.012046 -0.000000
v -0.012981 -0.012981 0.045000
v -0.012981 0.022167 -0.035624
v -0.020571 0.012046 -0.000000
v 0.012981 0.022167 -0.035624
v -0.012981 0.012981 -0.045000
v 0.020571 -0.012046 0.000000
v -0.012981 0.012981 -0.045000
v -0.012981 -0.012981 -0.045000
v -0.022167 0.012981 0.035624
v 0.022167 0.012981 -0.035624
v -0.022167 -0.012981 -0.035624
v 0.022167 0.012981 -0.035624
v 0.020571 -0.012046 0.000000
v 0.022167 -0.012981 -0.035624
v -0.022167 0.012981 0.035624
v -0.020571 -0.012046 0.000000
v -0.022167 -0.012981 0.035624
v -0.022167 0.012981 -0.035624
v 0.022167 0.012981 0.035624
v -0.022167 -0.012981 0.035624
v -0.012981 -0.012981 -0.045000
v -0.012981 0.012981 0.045000
v 0.022167 0.012981 0.035624
v 0.012981 -0.012981 0.045000
v -0.022167 0.012981 -0.035624
v 0.012981 0.012981 -0.045000
v 0.022167 -0.012981 -0.035624
v 0.020571 0.012046 -0.000000
v -0.020571 0.012046 -0.000000
vt 0.074048 0.687482
vt 0.245158 0.931054
vt 0.238765 0.687482
vt 0.374818 0.370121
vt 0.203708 0.188505
vt 0.210101 0.370121
vt 0.004842 0.931054
vt 0.067655 0.931054
vt 0.630467 0.932345
vt 0.754697 0.754842
vt 0.630467 0.754842
vt 0.386860 0.687482
vt 0.557970 0.931054
vt 0.551577 0.687482
vt 0.562006 0.370121
vt 0.390896 0.188505
vt 0.397289 0.370121
vt 0.754697 0.619533
vt 0.800484 0.682345
vt 0.844445 0.619533
vt 0.800484 0.379218
vt 0.754697 0.442030
vt 0.844445 0.442030
vt 0.004842 0.307309
vt 0.048803 0.370121
vt 0.094590 0.307309
vt 0.004842 0.129806
vt 0.094590 0.129806
vt 0.048803 0.066993
vt 0.194023 0.307309
vt 0.104275 0.307309
vt 0.148236 0.370121
vt 0.104275 0.129806
vt 0.194023 0.129806
vt 0.148236 0.066993
vt 0.844445 0.932345
vt 0.754697 0.932345
vt 0.800484 0.995158
vt 0.800484 0.692030
vt 0.844445 0.754842
vt 0.297052 0.687482
vt 0.245158 0.443910
vt 0.067655 0.379806
vt 0.067655 0.443910
vt 0.380467 0.931054
vt 0.557970 0.995158
vt 0.609865 0.687482
vt 0.245158 0.995158
vt 0.380467 0.443910
vt 0.328572 0.687482
vt 0.557970 0.443910
vt 0.380467 0.379806
vt 0.015760 0.687482
vt 0.630467 0.619533
vt 0.630467 0.442030
vt 0.317655 0.931054
vt 0.620782 0.443910
vt 0.307970 0.443910
vt 0.630467 0.187917
vt 0.801577 0.369533
vt 0.807970 0.187917
vt 0.817655 0.187917
vt 0.988765 0.369533
vt 0.995158 0.187917
vt 0.381211 0.188505
vt 0.568399 0.188505
vt 0.307970 0.931054
vt 0.245158 0.379806
vt 0.380467 0.995158
vt 0.620782 0.931054
vt 0.067655 0.995158
vt 0.317655 0.443910
vt 0.557970 0.379806
vt 0.004842 0.443910
vt 0.636860 0.369533
vt 0.824048 0.369533
vn 0.381051 -0.924554 0.000000
vn -0.345904 -0.884341 0.313516
vn -0.381051 -0.924554 0.000000
vn -0.924554 0.381051 -0.000000
vn -0.884341 -0.345904 -0.313515
vn -0.924554 -0.381051 0.000000
vn 0.884341 -0.345904 0.313516
vn 0.345915 -0.884340 0.313505
vn 0.345128 0.345122 0.872799
vn -0.345128 -0.345121 0.872799
vn 0.345127 -0.345133 0.872795
vn -0.381051 0.924554 -0.000000
vn 0.345904 0.884341 0.313515
vn 0.381051 0.924554 -0.000000
vn 0.924554 0.381051 -0.000000
vn 0.884341 -0.345904 0.313516
vn 0.924554 -0.381051 0.000000
vn 0.345127 0.345133 -0.872795
vn 0.345915 0.884340 -0.313505
vn 0.884341 0.345904 -0.313516
vn 0.345904 -0.884341 -0.313515
vn 0.345128 -0.345122 -0.872799
vn 0.884340 -0.345915 -0.313505
vn 0.884340 0.345915 0.313505
vn 0.345904 0.884341 0.313515
vn 0.345128 0.345122 0.872799
vn 0.884341 -0.345904 0.313516
vn 0.345127 -0.345133 0.872795
vn 0.345915 -0.884340 0.313505
vn -0.345128 0.345121 -0.872799
vn -0.884340 0.345915 -0.313505
vn -0.345904 0.884341 -0.313516
vn -0.884341 -0.345904 -0.313515
vn -0.345127 -0.345134 -0.872794
vn -0.345915 -0.884340 -0.313505
vn -0.884341 0.345904 0.313515
vn -0.345127 0.345134 0.872794
vn -0.345915 0.884340 0.313505
vn -0.345904 -0.884341 0.313516
vn -0.884340 -0.345915 0.313505
vn -0.924554 -0.381051 0.000000
vn -0.345915 -0.884340 -0.313505
vn 0.345128 -0.345122 -0.872799
vn 0.345904 -0.884341 -0.313515
vn -0.345915 0.884340 0.313505
vn 0.345128 0.345122 0.872799
vn 0.924554 0.381051 -0.000000
vn -0.345128 -0.345121 0.872799
vn -0.345904 0.884341 -0.313516
vn -0.924554 0.381051 -0.000000
vn 0.345915 0.884340 -0.313505
vn -0.345128 0.345121 -0.872799
vn 0.924554 -0.381051 0.000000
vn -0.345128 0.345121 -0.872799
vn -0.345127 -0.345134 -0.872794
vn -0.884341 0.345904 0.313515
vn 0.884341 0.345904 -0.313516
vn -0.884341 -0.345904 -0.313515
vn 0.884341 0.345904 -0.313516
vn 0.924554 -0.381051 0.000000
vn 0.884340 -0.345915 -0.313505
vn -0.884341 0.345904 0.313515
vn -0.924554 -0.381051 0.000000
vn -0.884340 -0.345915 0.313505
vn -0.884340 0.345915 -0.313505
vn 0.884340 0.345915 0.313505
vn -0.884340 -0.345915 0.313505
vn -0.345127 -0.345134 -0.872794
vn -0.345127 0.345134 0.872794
vn 0.884340 0.345915 0.313505
vn 0.345127 -0.345133 0.872795
vn -0.884340 0.345915 -0.313505
vn 0.345127 0.345133 -0.872795
vn 0.884340 -0.345915 -0.313505
vn 0.924554 0.381051 -0.000000
vn -0.924554 0.381051 -0.000000
f 1/1/1 2/2/2 3/3/3
f 4/4/4 5/5/5 6/6/6
f 1/1/1 7/7/7 8/8/8
f 9/9/9 10/10/10 11/11/11
f 12/12/12 13/13/13 14/14/14
f 15/15/15 16/16/16 17/17/17
f 18/18/18 19/19/19 20/20/20
f 21/21/21 22/22/22 23/23/23
f 24/24/24 25/25/25 26/26/26
f 27/27/27 28/28/28 29/29/29
f 30/30/30 31/31/31 32/32/32
f 33/33/33 34/34/34 35/35/35
f 36/36/36 37/37/37 38/38/38
f 39/39/39 10/10/10 40/40/40
f 2/2/2 41/41/41 3/3/3
f 42/42/42 43/43/43 44/44/44
f 23/23/23 18/18/18 20/20/20
f 37/37/37 40/40/40 10/10/10
f 28/28/28 24/24/24 26/26/26
f 34/34/34 31/31/31 30/30/30
f 45/45/45 46/46/46 13/13/13
f 13/13/13 47/47/47 14/14/14
f 8/8/8 48/48/48 2/2/2
f 49/49/49 50/50/50 12/12/12
f 51/51/51 52/52/52 49/49/49
f 44/44/44 53/53/53 1/1/1
f 54/54/54 22/22/22 55/55/55
f 12/12/12 56/56/56 45/45/45
f 14/14/14 57/57/57 51/51/51
f 3/3/3 58/58/58 42/42/42
f 59/59/59 60/60/60 61/61/61
f 49/49/49 14/14/14 51/51/51
f 62/62/62 63/63/63 64/64/64
f 44/44/44 3/3/3 42/42/42
f 1/1/1 8/8/8 2/2/2
f 4/4/4 65/65/65 5/5/5
f 1/1/1 53/53/53 7/7/7
f 9/9/9 37/37/37 10/10/10
f 12/12/12 45/45/45 13/13/13
f 15/15/15 66/66/66 16/16/16
f 2/2/2 67/67/67 41/41/41
f 42/42/42 68/68/68 43/43/43
f 23/23/23 22/22/22 18/18/18
f 37/37/37 36/36/36 40/40/40
f 28/28/28 27/27/27 24/24/24
f 34/34/34 33/33/33 31/31/31
f 45/45/45 69/69/69 46/46/46
f 13/13/13 70/70/70 47/47/47
f 8/8/8 71/71/71 48/48/48
f 49/49/49 72/72/72 50/50/50
f 51/51/51 73/73/73 52/52/52
f 44/44/44 74/74/74 53/53/53
f 54/54/54 18/18/18 22/22/22
f 12/12/12 50/50/50 56/56/56
f 14/14/14 47/47/47 57/57/57
f 3/3/3 41/41/41 58/58/58
f 59/59/59 75/75/75 60/60/60
f 49/49/49 12/12/12 14/14/14
f 62/62/62 76/76/76 63/63/63
f 44/44/44 1/1/1 3/3/3
