# Cube -- imported by tools/import_asset_pack.py from zwyklasiekiera.fbx
o __pending__
v -0.015955 0.379967 0.020086
v -0.012205 0.453378 -0.014591
v -0.015955 0.379967 -0.019580
v 0.015955 0.379967 0.020086
v -0.015955 0.277928 0.020086
v 0.015955 0.277928 0.020086
v -0.015955 0.379967 0.020086
v -0.015955 0.277928 -0.019580
v -0.015955 0.277928 0.020086
v 0.015955 0.277928 -0.019580
v -0.011360 0.235347 -0.019768
v -0.015955 0.277928 -0.019580
v 0.015955 0.379967 -0.019580
v 0.015955 0.277928 0.020086
v 0.015955 0.277928 -0.019580
v -0.015955 0.379967 -0.019580
v -0.012205 0.453378 -0.014591
v -0.015008 0.515040 0.018398
v -0.015008 0.515040 -0.017124
v 0.015955 0.379967 0.020086
v 0.012205 0.453378 -0.014591
v 0.012205 0.453378 0.022268
v -0.015955 0.379967 -0.019580
v 0.012205 0.453378 -0.014591
v 0.015955 0.379967 -0.019580
v 0.015955 0.379967 0.020086
v -0.012205 0.453378 0.022268
v -0.015955 0.379967 0.020086
v 0.015008 0.515040 0.018398
v -0.017121 0.543650 0.022098
v -0.015008 0.515040 0.018398
v -0.012205 0.453378 0.022268
v 0.015008 0.515040 0.018398
v -0.015008 0.515040 0.018398
v -0.012205 0.453378 -0.014591
v 0.015008 0.515040 -0.017124
v 0.012205 0.453378 -0.014591
v 0.012205 0.453378 -0.014591
v 0.015008 0.515040 0.018398
v 0.012205 0.453378 0.022268
v -0.017121 0.543650 -0.026251
v 0.017121 0.567370 -0.036100
v 0.017121 0.543650 -0.026251
v -0.015008 0.515040 -0.017124
v 0.017121 0.543650 -0.026251
v 0.015008 0.515040 -0.017124
v 0.015008 0.515040 -0.017124
v 0.017121 0.543650 0.022098
v 0.015008 0.515040 0.018398
v -0.015008 0.515040 -0.017124
v -0.017121 0.543650 0.022098
v -0.017121 0.543650 -0.026251
v -0.017121 0.567370 -0.036100
v -0.017121 0.573913 0.022480
v -0.017121 0.573913 -0.038615
v 0.017121 0.543650 -0.026251
v 0.017121 0.567370 0.022132
v 0.017121 0.543650 0.022098
v -0.017121 0.543650 -0.026251
v -0.017121 0.567370 0.022132
v 0.017121 0.543650 0.022098
v -0.017121 0.567370 0.022132
v -0.017121 0.543650 0.022098
v -0.017121 0.573913 -0.038615
v 0.015008 0.644816 -0.038481
v 0.017121 0.573913 -0.038615
v 0.017121 0.567370 0.022132
v -0.017121 0.573913 0.022480
v -0.017121 0.567370 0.022132
v -0.017121 0.567370 -0.036100
v 0.017121 0.573913 -0.038615
v 0.017121 0.567370 -0.036100
v 0.017121 0.567370 -0.036100
v 0.017121 0.573913 0.022480
v -0.019948 0.662024 -0.047927
v 0.015008 0.712822 -0.038481
v 0.019948 0.662024 -0.047927
v 0.017121 0.573913 -0.038615
v 0.015008 0.644816 0.018912
v 0.017121 0.573913 0.022480
v -0.017121 0.573913 -0.038615
v -0.015008 0.644816 0.018912
v -0.015008 0.644816 -0.038481
v 0.017121 0.573913 0.022480
v -0.015008 0.644816 0.018912
v -0.017121 0.573913 0.022480
v -0.011360 0.235347 0.014539
v 0.013698 0.139950 0.020016
v 0.011360 0.235347 0.014539
v -0.015955 0.277928 0.020086
v 0.011360 0.235347 0.014539
v 0.015955 0.277928 0.020086
v -0.015955 0.277928 -0.019580
v -0.011360 0.235347 0.014539
v -0.015955 0.277928 0.020086
v 0.015955 0.277928 -0.019580
v 0.011360 0.235347 0.014539
v 0.011360 0.235347 -0.019768
v 0.013698 0.139950 0.020016
v 0.014211 0.105514 -0.009819
v 0.013698 0.139950 -0.014291
v -0.011360 0.235347 0.014539
v -0.013698 0.139950 -0.014291
v -0.013698 0.139950 0.020016
v 0.011360 0.235347 0.014539
v 0.011360 0.235347 -0.019768
v 0.011360 0.235347 -0.019768
v -0.013698 0.139950 -0.014291
v -0.011360 0.235347 -0.019768
v 0.014211 0.105514 0.034361
v 0.017144 0.074741 -0.012310
v 0.014211 0.105514 -0.009819
v 0.013698 0.139950 -0.014291
v -0.014211 0.105514 -0.009819
v -0.013698 0.139950 -0.014291
v -0.013698 0.139950 0.020016
v 0.014211 0.105514 0.034361
v 0.013698 0.139950 0.020016
v -0.014211 0.105514 -0.009819
v -0.014211 0.105514 0.034361
v -0.017144 0.074741 0.059454
v 0.017144 0.059785 0.059454
v 0.017144 0.074741 0.059454
v 0.014211 0.105514 -0.009819
v -0.017144 0.074741 -0.012310
v -0.014211 0.105514 -0.009819
v -0.014211 0.105514 0.034361
v 0.017144 0.074741 0.059454
v 0.014211 0.105514 0.034361
v -0.014211 0.105514 0.034361
v -0.017144 0.074741 -0.012310
v -0.017144 0.074741 0.059454
v 0.017144 0.059785 -0.012310
v 0.015385 0.048250 0.032381
v 0.015385 0.048250 -0.006487
v -0.017144 0.074741 -0.012310
v -0.017144 0.059785 0.059454
v -0.017144 0.074741 0.059454
v 0.017144 0.074741 0.059454
v 0.017144 0.059785 -0.012310
v 0.017144 0.074741 -0.012310
v 0.017144 0.074741 -0.012310
v -0.017144 0.059785 -0.012310
v -0.017144 0.074741 -0.012310
v -0.015385 0.048250 0.032381
v 0.015385 0.044895 0.020950
v 0.015385 0.048250 0.032381
v 0.017144 0.059785 -0.012310
v -0.015385 0.048250 -0.006487
v -0.017144 0.059785 -0.012310
v -0.017144 0.059785 0.059454
v 0.015385 0.048250 0.032381
v 0.017144 0.059785 0.059454
v -0.017144 0.059785 -0.012310
v -0.015385 0.048250 0.032381
v -0.017144 0.059785 0.059454
v 0.015385 0.044895 0.004944
v -0.015385 0.044895 0.020950
v -0.015385 0.044895 0.004944
v -0.015385 0.048250 -0.006487
v -0.015385 0.044895 0.020950
v -0.015385 0.048250 0.032381
v 0.015385 0.048250 -0.006487
v 0.015385 0.044895 0.020950
v 0.015385 0.044895 0.004944
v 0.015385 0.048250 -0.006487
v -0.015385 0.044895 0.004944
v -0.015385 0.048250 -0.006487
v -0.030456 0.716194 0.035356
v -0.029915 0.644302 -0.056928
v -0.029915 0.644302 0.034549
v -0.030456 0.716194 -0.057734
v -0.013047 0.667080 -0.060764
v -0.029915 0.644302 -0.056928
v 0.029915 0.644302 -0.056928
v 0.030456 0.716194 0.035356
v 0.029915 0.644302 0.034549
v -0.030456 0.716194 0.035356
v -0.028479 0.653682 0.043311
v -0.028994 0.716288 0.044117
v -0.029915 0.644302 0.034549
v -0.020347 0.644302 -0.045371
v -0.020347 0.644302 0.025272
v -0.030456 0.716194 0.035356
v -0.022116 0.716194 -0.046267
v -0.030456 0.716194 -0.057734
v -0.022116 0.716194 -0.046267
v 0.017021 0.718859 -0.037924
v 0.022116 0.716194 -0.046267
v 0.030456 0.716194 0.035356
v -0.022116 0.716194 0.026169
v 0.022116 0.716194 -0.046267
v 0.030456 0.716194 -0.057734
v 0.022116 0.716194 0.026169
v -0.017021 0.718859 -0.037924
v 0.017021 0.718859 0.017825
v 0.017021 0.718859 -0.037924
v 0.022116 0.716194 -0.046267
v 0.017021 0.718859 0.017825
v 0.022116 0.716194 0.026169
v -0.022116 0.716194 0.026169
v -0.017021 0.718859 -0.037924
v -0.022116 0.716194 -0.046267
v 0.022116 0.716194 0.026169
v -0.017021 0.718859 0.017825
v -0.022116 0.716194 0.026169
v 0.020347 0.644302 -0.045371
v 0.016200 0.652944 0.018074
v 0.016200 0.652944 -0.038172
v 0.029915 0.644302 0.034549
v 0.020347 0.644302 -0.045371
v 0.029915 0.644302 -0.056928
v 0.020347 0.644302 0.025272
v -0.029915 0.644302 -0.056928
v 0.016200 0.652944 -0.038172
v -0.016200 0.652944 0.018074
v -0.016200 0.652944 -0.038172
v -0.020347 0.644302 -0.045371
v -0.016200 0.652944 0.018074
v -0.020347 0.644302 0.025272
v -0.020347 0.644302 0.025272
v 0.016200 0.652944 0.018074
v 0.020347 0.644302 0.025272
v 0.020347 0.644302 -0.045371
v -0.016200 0.652944 -0.038172
v -0.020347 0.644302 -0.045371
v -0.015008 0.712822 -0.038481
v 0.015008 0.712822 0.018912
v 0.015008 0.712822 -0.038481
v 0.019948 0.662024 -0.047927
v 0.015008 0.712822 0.018912
v 0.019948 0.662024 0.028358
v -0.019948 0.662024 0.028358
v -0.015008 0.712822 -0.038481
v -0.019948 0.662024 -0.047927
v 0.019948 0.662024 0.028358
v -0.015008 0.712822 0.018912
v -0.019948 0.662024 0.028358
v 0.029915 0.644302 0.034549
v -0.028479 0.653682 0.043311
v -0.029915 0.644302 0.034549
v 0.028994 0.716288 0.044117
v 0.030456 0.716194 0.035356
v 0.028479 0.653682 0.043311
v 0.029915 0.644302 0.034549
v 0.028994 0.716288 0.044117
v 0.025061 0.651599 0.056971
v 0.028479 0.653682 0.043311
v 0.025515 0.718379 0.056948
v 0.020931 0.649043 0.070769
v 0.025061 0.651599 0.056971
v 0.020931 0.649043 0.070769
v 0.016876 0.725413 0.085520
v 0.016577 0.644634 0.083573
v 0.016577 0.644634 0.083573
v 0.010695 0.730634 0.099173
v 0.010505 0.636915 0.097980
v 0.008053 0.734827 0.105822
v 0.007910 0.632696 0.103356
v -0.028994 0.716288 0.044117
v 0.025515 0.718379 0.056948
v 0.028994 0.716288 0.044117
v -0.025515 0.718379 0.056948
v 0.021309 0.721930 0.071862
v 0.025515 0.718379 0.056948
v -0.021309 0.721930 0.071862
v 0.016876 0.725413 0.085520
v 0.021309 0.721930 0.071862
v -0.016876 0.725413 0.085520
v 0.010695 0.730634 0.099173
v 0.016876 0.725413 0.085520
v -0.010695 0.730634 0.099173
v 0.008053 0.734827 0.105822
v 0.010695 0.730634 0.099173
v -0.028994 0.716288 0.044117
v -0.025061 0.651599 0.056971
v -0.025515 0.718379 0.056948
v -0.025515 0.718379 0.056948
v -0.020931 0.649043 0.070769
v -0.021309 0.721930 0.071862
v -0.020931 0.649043 0.070769
v -0.016876 0.725413 0.085520
v -0.021309 0.721930 0.071862
v -0.016577 0.644634 0.083573
v -0.010695 0.730634 0.099173
v -0.016876 0.725413 0.085520
v -0.010505 0.636915 0.097980
v -0.008053 0.734827 0.105822
v 0.028479 0.653682 0.043311
v -0.025061 0.651599 0.056971
v -0.028479 0.653682 0.043311
v 0.025061 0.651599 0.056971
v -0.020931 0.649043 0.070769
v -0.025061 0.651599 0.056971
v -0.020931 0.649043 0.070769
v 0.016577 0.644634 0.083573
v -0.016577 0.644634 0.083573
v 0.016577 0.644634 0.083573
v -0.010505 0.636915 0.097980
v -0.016577 0.644634 0.083573
v 0.010505 0.636915 0.097980
v -0.007910 0.632696 0.103356
v -0.010505 0.636915 0.097980
v 0.013283 0.715158 -0.061303
v -0.013283 0.714802 -0.093019
v -0.013283 0.715158 -0.061303
v 0.030456 0.716194 -0.057734
v 0.013047 0.667080 -0.060764
v 0.013283 0.715158 -0.061303
v -0.029915 0.644302 -0.056928
v 0.013047 0.667080 -0.060764
v 0.029915 0.644302 -0.056928
v 0.030456 0.716194 -0.057734
v -0.013283 0.715158 -0.061303
v -0.030456 0.716194 -0.057734
v -0.008053 0.734827 0.105822
v 0.007910 0.632696 0.103356
v 0.008053 0.734827 0.105822
v 0.008117 0.734696 0.105690
v 0.000487 0.733654 0.122228
v 0.008101 0.723353 0.105544
v 0.000487 0.733654 0.122228
v -0.000505 0.744895 0.115713
v -0.000504 0.733654 0.122228
v -0.007989 0.632707 0.103359
v -0.000839 0.622069 0.115270
v -0.001815 0.622069 0.115270
v -0.007989 0.632707 0.103359
v -0.003478 0.632518 0.121203
v -0.008005 0.643966 0.103467
v -0.008134 0.734696 0.105690
v 0.000488 0.744895 0.115713
v 0.008117 0.734696 0.105690
v -0.008134 0.734696 0.105690
v -0.000504 0.733654 0.122228
v -0.000505 0.744895 0.115713
v -0.008118 0.723353 0.105544
v -0.000503 0.718436 0.127004
v -0.000504 0.733654 0.122228
v -0.008102 0.712012 0.105194
v -0.000502 0.705879 0.129855
v -0.000503 0.718436 0.127004
v -0.008086 0.700671 0.104947
v -0.000501 0.690294 0.131212
v -0.000502 0.705879 0.129855
v -0.008054 0.677989 0.104451
v -0.000501 0.690294 0.131212
v -0.008070 0.689330 0.104597
v -0.008038 0.666648 0.104102
v -0.000500 0.672387 0.130003
v -0.008054 0.677989 0.104451
v -0.008021 0.655307 0.103789
v -0.000344 0.656631 0.127527
v -0.008038 0.666648 0.104102
v -0.008005 0.643966 0.103467
v -0.002345 0.645125 0.125504
v -0.008021 0.655307 0.103789
v -0.002501 0.632518 0.121203
v -0.001815 0.622069 0.115270
v -0.000839 0.622069 0.115270
v -0.002501 0.632518 0.121203
v -0.002345 0.645125 0.125504
v -0.003478 0.632518 0.121203
v -0.001365 0.645125 0.125504
v -0.000344 0.656631 0.127527
v -0.002345 0.645125 0.125504
v 0.000483 0.672387 0.130003
v -0.000344 0.656631 0.127527
v 0.000637 0.656631 0.127527
v 0.000483 0.672387 0.130003
v -0.000501 0.690294 0.131212
v -0.000500 0.672387 0.130003
v 0.000484 0.690294 0.131212
v -0.000502 0.705879 0.129855
v -0.000501 0.690294 0.131212
v 0.000485 0.705879 0.129855
v -0.000503 0.718436 0.127004
v -0.000502 0.705879 0.129855
v 0.000486 0.718436 0.127004
v -0.000504 0.733654 0.122228
v -0.000503 0.718436 0.127004
v 0.007972 0.632707 0.103359
v -0.002501 0.632518 0.121203
v -0.000839 0.622069 0.115270
v 0.007988 0.643966 0.103467
v -0.001365 0.645125 0.125504
v -0.002501 0.632518 0.121203
v 0.008004 0.655307 0.103789
v 0.000637 0.656631 0.127527
v -0.001365 0.645125 0.125504
v 0.008020 0.666648 0.104102
v 0.000483 0.672387 0.130003
v 0.000637 0.656631 0.127527
v 0.008036 0.677989 0.104451
v 0.000484 0.690294 0.131212
v 0.008069 0.700671 0.104947
v 0.000484 0.690294 0.131212
v 0.008052 0.689330 0.104597
v 0.008085 0.712012 0.105194
v 0.000485 0.705879 0.129855
v 0.008069 0.700671 0.104947
v 0.008101 0.723353 0.105544
v 0.000486 0.718436 0.127004
v 0.008085 0.712012 0.105194
v 0.008036 0.677989 0.104451
v 0.008020 0.666648 0.104102
v -0.008054 0.677989 0.104451
v 0.015008 0.644816 0.018912
v -0.019948 0.662024 0.028358
v -0.015008 0.644816 0.018912
v -0.015008 0.644816 -0.038481
v -0.019948 0.662024 0.028358
v -0.019948 0.662024 -0.047927
v 0.015008 0.644816 -0.038481
v 0.019948 0.662024 0.028358
v 0.015008 0.644816 0.018912
v -0.015008 0.644816 -0.038481
v 0.019948 0.662024 -0.047927
v 0.015008 0.644816 -0.038481
v -0.013047 0.666724 -0.092479
v 0.010856 0.666833 -0.114675
v 0.013047 0.666724 -0.092479
v -0.013047 0.667080 -0.060764
v -0.013283 0.714802 -0.093019
v -0.013047 0.666724 -0.092479
v 0.013047 0.667080 -0.060764
v 0.013283 0.714802 -0.093019
v 0.013283 0.715158 -0.061303
v -0.013047 0.667080 -0.060764
v 0.013047 0.666724 -0.092479
v 0.013047 0.667080 -0.060764
v 0.011052 0.706835 -0.115124
v -0.001480 0.671728 -0.147976
v -0.011052 0.706835 -0.115124
v -0.013283 0.714802 -0.093019
v 0.011052 0.706835 -0.115124
v -0.011052 0.706835 -0.115124
v -0.013047 0.666724 -0.092479
v -0.011052 0.706835 -0.115124
v -0.010856 0.666833 -0.114675
v 0.013047 0.666724 -0.092479
v 0.011052 0.706835 -0.115124
v 0.013283 0.714802 -0.093019
v -0.001480 0.671728 -0.147976
v 0.001454 0.666371 -0.147916
v -0.001454 0.666371 -0.147916
v -0.010856 0.666833 -0.114675
v -0.001480 0.671728 -0.147976
v -0.001454 0.666371 -0.147916
v 0.010856 0.666833 -0.114675
v 0.001480 0.671728 -0.147976
v 0.011052 0.706835 -0.115124
v -0.010856 0.666833 -0.114675
v 0.001454 0.666371 -0.147916
v 0.010856 0.666833 -0.114675
v -0.012205 0.453378 0.022268
v -0.015955 0.379967 0.020086
v -0.015955 0.379967 -0.019580
v 0.011360 0.235347 -0.019768
v 0.015955 0.379967 0.020086
v 0.015955 0.379967 -0.019580
v -0.012205 0.453378 0.022268
v 0.015955 0.379967 -0.019580
v -0.012205 0.453378 -0.014591
v 0.012205 0.453378 0.022268
v 0.017121 0.543650 0.022098
v 0.012205 0.453378 0.022268
v -0.015008 0.515040 -0.017124
v 0.015008 0.515040 -0.017124
v -0.017121 0.567370 -0.036100
v -0.017121 0.543650 -0.026251
v 0.017121 0.543650 -0.026251
v -0.015008 0.515040 0.018398
v -0.017121 0.543650 0.022098
v 0.017121 0.567370 0.022132
v -0.015008 0.644816 -0.038481
v 0.017121 0.573913 0.022480
v -0.017121 0.573913 -0.038615
v 0.017121 0.573913 -0.038615
v -0.015008 0.712822 -0.038481
v 0.015008 0.644816 -0.038481
v -0.017121 0.573913 0.022480
v 0.015008 0.644816 0.018912
v -0.013698 0.139950 0.020016
v -0.011360 0.235347 0.014539
v -0.011360 0.235347 -0.019768
v 0.015955 0.277928 0.020086
v 0.014211 0.105514 0.034361
v -0.011360 0.235347 -0.019768
v 0.013698 0.139950 -0.014291
v 0.017144 0.074741 0.059454
v 0.014211 0.105514 -0.009819
v -0.014211 0.105514 0.034361
v -0.017144 0.059785 0.059454
v 0.017144 0.074741 -0.012310
v -0.017144 0.074741 0.059454
v -0.014211 0.105514 -0.009819
v 0.017144 0.059785 0.059454
v -0.017144 0.059785 -0.012310
v 0.017144 0.059785 0.059454
v 0.017144 0.059785 -0.012310
v -0.015385 0.044895 0.020950
v 0.015385 0.048250 -0.006487
v -0.015385 0.048250 0.032381
v -0.015385 0.048250 -0.006487
v 0.015385 0.044895 0.020950
v -0.015385 0.044895 0.004944
v 0.015385 0.048250 0.032381
v 0.015385 0.044895 0.004944
v -0.030456 0.716194 -0.057734
v -0.013283 0.715158 -0.061303
v 0.030456 0.716194 -0.057734
v -0.029915 0.644302 0.034549
v -0.017021 0.718859 -0.037924
v -0.017021 0.718859 0.017825
v 0.017021 0.718859 -0.037924
v -0.017021 0.718859 0.017825
v 0.017021 0.718859 0.017825
v 0.020347 0.644302 0.025272
v 0.016200 0.652944 0.018074
v -0.016200 0.652944 -0.038172
v -0.016200 0.652944 0.018074
v 0.016200 0.652944 -0.038172
v -0.015008 0.712822 0.018912
v 0.015008 0.712822 -0.038481
v -0.015008 0.712822 0.018912
v 0.015008 0.712822 0.018912
v 0.028479 0.653682 0.043311
v -0.028994 0.716288 0.044117
v 0.028994 0.716288 0.044117
v 0.025515 0.718379 0.056948
v 0.021309 0.721930 0.071862
v 0.021309 0.721930 0.071862
v 0.016876 0.725413 0.085520
v -0.025515 0.718379 0.056948
v -0.021309 0.721930 0.071862
v -0.016876 0.725413 0.085520
v -0.010695 0.730634 0.099173
v -0.008053 0.734827 0.105822
v -0.028479 0.653682 0.043311
v -0.025061 0.651599 0.056971
v -0.016577 0.644634 0.083573
v -0.007910 0.632696 0.103356
v 0.025061 0.651599 0.056971
v 0.020931 0.649043 0.070769
v 0.020931 0.649043 0.070769
v 0.010505 0.636915 0.097980
v 0.007910 0.632696 0.103356
v 0.013283 0.714802 -0.093019
v 0.029915 0.644302 -0.056928
v -0.013047 0.667080 -0.060764
v 0.013283 0.715158 -0.061303
v -0.007910 0.632696 0.103356
v 0.000488 0.744895 0.115713
v 0.000488 0.744895 0.115713
v 0.007972 0.632707 0.103359
v -0.001815 0.622069 0.115270
v -0.000505 0.744895 0.115713
v -0.008118 0.723353 0.105544
v -0.008102 0.712012 0.105194
v -0.008086 0.700671 0.104947
v -0.008070 0.689330 0.104597
v -0.000500 0.672387 0.130003
v -0.000344 0.656631 0.127527
v -0.002345 0.645125 0.125504
v -0.003478 0.632518 0.121203
v -0.003478 0.632518 0.121203
v -0.001365 0.645125 0.125504
v 0.000637 0.656631 0.127527
v -0.000500 0.672387 0.130003
v 0.000484 0.690294 0.131212
v 0.000485 0.705879 0.129855
v 0.000486 0.718436 0.127004
v 0.000487 0.733654 0.122228
v 0.007988 0.643966 0.103467
v 0.008004 0.655307 0.103789
v 0.008020 0.666648 0.104102
v 0.008052 0.689330 0.104597
v 0.000485 0.705879 0.129855
v 0.000486 0.718436 0.127004
v 0.000487 0.733654 0.122228
v -0.008118 0.723353 0.105544
v -0.008134 0.734696 0.105690
v 0.008117 0.734696 0.105690
v 0.008101 0.723353 0.105544
v 0.008085 0.712012 0.105194
v -0.008102 0.712012 0.105194
v 0.008069 0.700671 0.104947
v -0.008086 0.700671 0.104947
v -0.008070 0.689330 0.104597
v 0.008052 0.689330 0.104597
v -0.008021 0.655307 0.103789
v -0.008038 0.666648 0.104102
v -0.007989 0.632707 0.103359
v -0.008005 0.643966 0.103467
v 0.007988 0.643966 0.103467
v 0.007972 0.632707 0.103359
v 0.008004 0.655307 0.103789
v 0.019948 0.662024 0.028358
v -0.015008 0.644816 0.018912
v 0.019948 0.662024 -0.047927
v -0.019948 0.662024 -0.047927
v -0.010856 0.666833 -0.114675
v -0.013283 0.715158 -0.061303
v 0.013047 0.666724 -0.092479
v -0.013047 0.666724 -0.092479
v 0.001480 0.671728 -0.147976
v 0.013283 0.714802 -0.093019
v -0.013283 0.714802 -0.093019
v 0.010856 0.666833 -0.114675
v 0.001480 0.671728 -0.147976
v -0.011052 0.706835 -0.115124
v 0.001454 0.666371 -0.147916
v -0.001454 0.666371 -0.147916
vt 0.039249 0.499269
vt 0.083171 0.610705
vt 0.097601 0.502575
vt 0.310586 0.504058
vt 0.357933 0.352980
vt 0.310586 0.352980
vt 0.039249 0.499269
vt 0.106560 0.351478
vt 0.048209 0.348172
vt 0.292730 0.351650
vt 0.252201 0.288472
vt 0.245382 0.351650
vt 0.138857 0.502650
vt 0.188248 0.348295
vt 0.129898 0.351570
vt 0.245382 0.503049
vt 0.083171 0.610705
vt 0.029710 0.699383
vt 0.081966 0.702344
vt 0.197207 0.499375
vt 0.153288 0.610747
vt 0.207510 0.607704
vt 0.245382 0.503049
vt 0.287165 0.611952
vt 0.292730 0.503049
vt 0.310586 0.504058
vt 0.352369 0.612540
vt 0.357933 0.504058
vt 0.311992 0.704210
vt 0.359662 0.746213
vt 0.356528 0.704210
vt 0.352369 0.612540
vt 0.311992 0.704210
vt 0.356528 0.704210
vt 0.250947 0.611952
vt 0.291324 0.703452
vt 0.287165 0.611952
vt 0.153288 0.610747
vt 0.206747 0.699459
vt 0.207510 0.607704
vt 0.243653 0.745940
vt 0.294459 0.781173
vt 0.294459 0.745940
vt 0.246788 0.703452
vt 0.294459 0.745940
vt 0.291324 0.703452
vt 0.154492 0.702392
vt 0.214337 0.741620
vt 0.206747 0.699459
vt 0.081966 0.702344
vt 0.022119 0.741530
vt 0.093244 0.745561
vt 0.105650 0.781506
vt 0.018899 0.786312
vt 0.108775 0.791404
vt 0.143214 0.745612
vt 0.216470 0.776737
vt 0.214337 0.741620
vt 0.093244 0.745561
vt 0.019985 0.776651
vt 0.308857 0.746213
vt 0.359662 0.781329
vt 0.359662 0.746213
vt 0.243653 0.790892
vt 0.291324 0.896093
vt 0.294459 0.790892
vt 0.308857 0.781329
vt 0.359662 0.790984
vt 0.359662 0.781329
vt 0.243653 0.781173
vt 0.294459 0.790892
vt 0.294459 0.781173
vt 0.130808 0.781545
vt 0.217556 0.786396
vt 0.239458 0.921665
vt 0.291324 0.996996
vt 0.298654 0.921665
vt 0.127683 0.791441
vt 0.218897 0.891566
vt 0.217556 0.786396
vt 0.108775 0.791404
vt 0.017559 0.891510
vt 0.101988 0.896294
vt 0.308857 0.790984
vt 0.356528 0.896307
vt 0.359662 0.790984
vt 0.351115 0.290471
vt 0.313935 0.148696
vt 0.317404 0.290471
vt 0.357933 0.352980
vt 0.317404 0.290471
vt 0.310586 0.352980
vt 0.106560 0.351478
vt 0.059316 0.285385
vt 0.048209 0.348172
vt 0.129898 0.351570
vt 0.177143 0.285480
vt 0.126675 0.288312
vt 0.176419 0.143895
vt 0.129418 0.095398
vt 0.125952 0.146728
vt 0.059316 0.285385
vt 0.110507 0.146625
vt 0.060038 0.143765
vt 0.177143 0.285480
vt 0.126675 0.288312
vt 0.285911 0.288472
vt 0.248731 0.146904
vt 0.252201 0.288472
vt 0.194408 0.091750
vt 0.122546 0.050186
vt 0.129418 0.095398
vt 0.289381 0.146904
vt 0.247971 0.095793
vt 0.248731 0.146904
vt 0.354584 0.148696
vt 0.313175 0.096325
vt 0.313935 0.148696
vt 0.107040 0.095282
vt 0.042048 0.091599
vt 0.359698 0.048339
vt 0.308822 0.026195
vt 0.308822 0.048339
vt 0.290141 0.095793
vt 0.243618 0.050144
vt 0.247971 0.095793
vt 0.355345 0.096325
vt 0.308822 0.048339
vt 0.313175 0.096325
vt 0.042048 0.091599
vt 0.113912 0.050048
vt 0.008341 0.044065
vt 0.121232 0.028041
vt 0.186266 0.007185
vt 0.129089 0.010394
vt 0.113912 0.050048
vt 0.009654 0.021919
vt 0.008341 0.044065
vt 0.228113 0.044260
vt 0.121232 0.028041
vt 0.122546 0.050186
vt 0.294494 0.050144
vt 0.243618 0.027953
vt 0.243618 0.050144
vt 0.372476 0.360203
vt 0.418129 0.376917
vt 0.418130 0.360203
vt 0.294494 0.027953
vt 0.246229 0.010814
vt 0.243618 0.027953
vt 0.369865 0.320862
vt 0.418130 0.360203
vt 0.420741 0.320862
vt 0.115225 0.027901
vt 0.050190 0.007019
vt 0.009654 0.021919
vt 0.418129 0.400642
vt 0.372476 0.376917
vt 0.372475 0.400642
vt 0.107369 0.010259
vt 0.067301 0.003004
vt 0.050190 0.007019
vt 0.129089 0.010394
vt 0.169156 0.003161
vt 0.145610 0.004483
vt 0.418129 0.417813
vt 0.372475 0.400642
vt 0.372475 0.417813
vt 0.495990 0.609695
vt 0.606212 0.742989
vt 0.602650 0.608250
vt 0.634986 0.864427
vt 0.660816 0.791568
vt 0.635788 0.757755
vt 0.477862 0.993175
vt 0.588149 0.859891
vt 0.481497 0.858445
vt 0.495990 0.609695
vt 0.588440 0.595424
vt 0.495551 0.596537
vt 0.466252 0.361041
vt 0.480448 0.479498
vt 0.480449 0.374791
vt 0.369865 0.889914
vt 0.382241 0.769649
vt 0.369865 0.752754
vt 0.382241 0.769649
vt 0.440309 0.782409
vt 0.447868 0.769649
vt 0.460244 0.889914
vt 0.382241 0.876377
vt 0.447868 0.769649
vt 0.460244 0.752754
vt 0.447868 0.876377
vt 0.389800 0.782409
vt 0.440309 0.864549
vt 0.440309 0.782409
vt 0.447868 0.769649
vt 0.440309 0.864549
vt 0.447868 0.876377
vt 0.382241 0.876377
vt 0.389800 0.782409
vt 0.382241 0.769649
vt 0.447868 0.876377
vt 0.389800 0.864549
vt 0.382241 0.876377
vt 0.653721 0.485398
vt 0.666677 0.578190
vt 0.666677 0.495315
vt 0.555026 0.361041
vt 0.540828 0.479498
vt 0.555025 0.496627
vt 0.540829 0.374791
vt 0.466251 0.496626
vt 0.720998 0.746810
vt 0.672924 0.663443
vt 0.672923 0.746810
vt 0.666916 0.642727
vt 0.653934 0.735518
vt 0.666916 0.746810
vt 0.685535 0.438537
vt 0.672684 0.492764
vt 0.685535 0.498917
vt 0.685022 0.597056
vt 0.672923 0.651283
vt 0.685022 0.657436
vt 0.672684 0.504925
vt 0.717220 0.589488
vt 0.717220 0.504925
vt 0.121232 0.922809
vt 0.224868 0.992258
vt 0.233451 0.916510
vt 0.003004 0.916417
vt 0.096017 0.996996
vt 0.115225 0.922776
vt 0.304662 0.920873
vt 0.356528 0.996996
vt 0.363858 0.920873
vt 0.456920 0.329104
vt 0.443879 0.415746
vt 0.456920 0.417877
vt 0.458074 0.902839
vt 0.588149 0.859891
vt 0.495703 0.845619
vt 0.481497 0.858445
vt 0.588585 0.846733
vt 0.493037 0.824825
vt 0.495703 0.845619
vt 0.592074 0.827296
vt 0.489651 0.803685
vt 0.493037 0.824825
vt 0.489651 0.803685
vt 0.603338 0.783941
vt 0.483470 0.783903
vt 0.483470 0.783903
vt 0.611406 0.762928
vt 0.472385 0.761341
vt 0.617794 0.752818
vt 0.466251 0.752818
vt 0.372036 0.902839
vt 0.452912 0.922110
vt 0.458074 0.902839
vt 0.377197 0.922110
vt 0.446672 0.944705
vt 0.452912 0.922110
vt 0.383437 0.944705
vt 0.440095 0.965438
vt 0.446672 0.944705
vt 0.390014 0.965438
vt 0.430924 0.986467
vt 0.440095 0.965438
vt 0.399185 0.986467
vt 0.427004 0.996996
vt 0.430924 0.986467
vt 0.495551 0.596537
vt 0.591094 0.574631
vt 0.492049 0.577103
vt 0.492049 0.577103
vt 0.594465 0.553494
vt 0.486322 0.554523
vt 0.594465 0.553494
vt 0.480750 0.533752
vt 0.486322 0.554523
vt 0.600628 0.533714
vt 0.472652 0.512743
vt 0.480750 0.533752
vt 0.611687 0.511156
vt 0.466251 0.502634
vt 0.550761 0.355033
vt 0.471322 0.334644
vt 0.466251 0.355033
vt 0.545691 0.334645
vt 0.477451 0.314020
vt 0.471322 0.334644
vt 0.477451 0.314020
vt 0.533102 0.294741
vt 0.483911 0.294741
vt 0.533102 0.294741
vt 0.492919 0.272861
vt 0.483911 0.294741
vt 0.524094 0.272861
vt 0.496770 0.264606
vt 0.492919 0.272861
vt 0.434764 0.747314
vt 0.395346 0.700522
vt 0.395346 0.747314
vt 0.725364 0.864427
vt 0.699534 0.791568
vt 0.699884 0.862905
vt 0.635788 0.757755
vt 0.699534 0.791568
vt 0.724562 0.757755
vt 0.460244 0.752754
vt 0.395346 0.747314
vt 0.369865 0.752754
vt 0.647714 0.589488
vt 0.624028 0.438511
vt 0.623815 0.589487
vt 0.369865 0.590749
vt 0.395605 0.589603
vt 0.370059 0.573923
vt 0.627051 0.979729
vt 0.628978 0.996957
vt 0.628520 0.979690
vt 0.583592 0.337810
vt 0.601971 0.348419
vt 0.601971 0.346971
vt 0.456673 0.439365
vt 0.429592 0.439661
vt 0.456920 0.456066
vt 0.577585 0.337381
vt 0.561033 0.350174
vt 0.577585 0.361493
vt 0.456920 0.590706
vt 0.431185 0.589596
vt 0.441184 0.606009
vt 0.456726 0.573878
vt 0.423605 0.567218
vt 0.431185 0.589596
vt 0.456831 0.557046
vt 0.418955 0.548708
vt 0.423605 0.567218
vt 0.456787 0.540217
vt 0.416398 0.525651
vt 0.418955 0.548708
vt 0.456698 0.506561
vt 0.416398 0.525651
vt 0.456892 0.523385
vt 0.456804 0.489728
vt 0.417538 0.499048
vt 0.456698 0.506561
vt 0.456855 0.472897
vt 0.420593 0.475580
vt 0.456804 0.489728
vt 0.456920 0.456066
vt 0.423510 0.458494
vt 0.456855 0.472897
vt 0.627529 0.830022
vt 0.626117 0.815157
vt 0.624671 0.815195
vt 0.627529 0.830022
vt 0.627779 0.848272
vt 0.628978 0.829984
vt 0.626327 0.848310
vt 0.625257 0.865185
vt 0.627779 0.848272
vt 0.624640 0.888299
vt 0.625257 0.865185
vt 0.623802 0.865224
vt 0.624640 0.888299
vt 0.626797 0.914647
vt 0.626098 0.888260
vt 0.625336 0.914686
vt 0.627412 0.937845
vt 0.626797 0.914647
vt 0.625948 0.937883
vt 0.627912 0.956706
vt 0.627412 0.937845
vt 0.626445 0.956745
vt 0.628520 0.979690
vt 0.627912 0.956706
vt 0.370112 0.439422
vt 0.398246 0.439495
vt 0.389588 0.423821
vt 0.369865 0.456122
vt 0.403928 0.458401
vt 0.398246 0.439495
vt 0.369930 0.472952
vt 0.406142 0.475613
vt 0.403928 0.458401
vt 0.369981 0.489781
vt 0.409251 0.499071
vt 0.406142 0.475613
vt 0.370087 0.506612
vt 0.410391 0.525672
vt 0.369998 0.540266
vt 0.410391 0.525672
vt 0.369893 0.523435
vt 0.369954 0.557093
vt 0.407834 0.548726
vt 0.369998 0.540266
vt 0.370059 0.573923
vt 0.403185 0.567231
vt 0.369954 0.557093
vt 0.647808 0.662677
vt 0.647784 0.645851
vt 0.623934 0.662677
vt 0.311992 0.896306
vt 0.363858 0.920873
vt 0.356528 0.896307
vt 0.101988 0.896294
vt 0.003004 0.916417
vt 0.115225 0.922776
vt 0.134470 0.896305
vt 0.233451 0.916510
vt 0.218897 0.891566
vt 0.246788 0.896093
vt 0.298654 0.921665
vt 0.291324 0.896093
vt 0.561033 0.414484
vt 0.596499 0.447389
vt 0.599751 0.414484
vt 0.634986 0.996835
vt 0.706317 0.950261
vt 0.634989 0.950100
vt 0.695168 0.432260
vt 0.623815 0.385770
vt 0.623847 0.432503
vt 0.561033 0.367500
vt 0.599751 0.414484
vt 0.599751 0.367500
vt 0.431453 0.666559
vt 0.412858 0.612017
vt 0.398656 0.666559
vt 0.395346 0.700522
vt 0.431453 0.666559
vt 0.398656 0.666559
vt 0.634989 0.950100
vt 0.694792 0.917916
vt 0.635444 0.917782
vt 0.695137 0.385527
vt 0.635334 0.353416
vt 0.623815 0.385770
vt 0.433479 0.417877
vt 0.437833 0.409928
vt 0.433518 0.409928
vt 0.635444 0.917782
vt 0.642934 0.870453
vt 0.634986 0.870435
vt 0.694676 0.353213
vt 0.687221 0.305901
vt 0.635334 0.353416
vt 0.564285 0.447389
vt 0.582549 0.496627
vt 0.596499 0.447389
vt 0.028948 0.607632
vt 0.357933 0.504058
vt 0.097601 0.502575
vt 0.285911 0.288472
vt 0.197207 0.499375
vt 0.292730 0.503049
vt 0.028948 0.607632
vt 0.138857 0.502650
vt 0.250947 0.611952
vt 0.316150 0.612540
vt 0.308857 0.746213
vt 0.316150 0.612540
vt 0.246788 0.703452
vt 0.154492 0.702392
vt 0.243653 0.781173
vt 0.243653 0.745940
vt 0.143214 0.745612
vt 0.029710 0.699383
vt 0.022119 0.741530
vt 0.308857 0.781329
vt 0.246788 0.896093
vt 0.308857 0.790984
vt 0.243653 0.790892
vt 0.127683 0.791441
vt 0.246788 0.996996
vt 0.134470 0.896305
vt 0.018899 0.786312
vt 0.311992 0.896306
vt 0.354584 0.148696
vt 0.351115 0.290471
vt 0.109785 0.288244
vt 0.188248 0.348295
vt 0.194408 0.091750
vt 0.109785 0.288244
vt 0.289381 0.146904
vt 0.228113 0.044260
vt 0.290141 0.095793
vt 0.355345 0.096325
vt 0.359698 0.026195
vt 0.294494 0.050144
vt 0.359698 0.048339
vt 0.107040 0.095282
vt 0.226800 0.022116
vt 0.115225 0.027901
vt 0.226800 0.022116
vt 0.294494 0.027953
vt 0.372476 0.376917
vt 0.291883 0.010814
vt 0.372476 0.360203
vt 0.107369 0.010259
vt 0.418129 0.376917
vt 0.090847 0.004338
vt 0.186266 0.007185
vt 0.418129 0.400642
vt 0.499615 0.746810
vt 0.660466 0.862905
vt 0.584450 0.996996
vt 0.602650 0.608250
vt 0.389800 0.782409
vt 0.389800 0.864549
vt 0.440309 0.782409
vt 0.389800 0.864549
vt 0.440309 0.864549
vt 0.653721 0.589488
vt 0.720998 0.663443
vt 0.653934 0.652647
vt 0.672684 0.444690
vt 0.672923 0.603209
vt 0.672684 0.589488
vt 0.140442 0.996996
vt 0.011588 0.992212
vt 0.311992 0.996996
vt 0.443879 0.331236
vt 0.372036 0.902839
vt 0.588585 0.846733
vt 0.592074 0.827296
vt 0.597785 0.804715
vt 0.597785 0.804715
vt 0.603338 0.783941
vt 0.377197 0.922110
vt 0.383437 0.944705
vt 0.390014 0.965438
vt 0.399185 0.986467
vt 0.403105 0.996996
vt 0.588440 0.595424
vt 0.591094 0.574631
vt 0.600628 0.533714
vt 0.617808 0.502634
vt 0.545691 0.334645
vt 0.539562 0.314020
vt 0.539562 0.314020
vt 0.524094 0.272861
vt 0.520244 0.264606
vt 0.434764 0.700522
vt 0.724562 0.757755
vt 0.660816 0.791568
vt 0.434764 0.747314
vt 0.647501 0.438511
vt 0.385607 0.606009
vt 0.627505 0.996996
vt 0.583592 0.361493
vt 0.437666 0.423885
vt 0.561033 0.348700
vt 0.456726 0.573878
vt 0.456831 0.557046
vt 0.456787 0.540217
vt 0.456892 0.523385
vt 0.417538 0.499048
vt 0.420593 0.475580
vt 0.423510 0.458494
vt 0.429592 0.439661
vt 0.628978 0.829984
vt 0.626327 0.848310
vt 0.623802 0.865224
vt 0.626098 0.888260
vt 0.625336 0.914686
vt 0.625948 0.937883
vt 0.626445 0.956745
vt 0.627051 0.979729
vt 0.369865 0.456122
vt 0.369930 0.472952
vt 0.369981 0.489781
vt 0.369893 0.523435
vt 0.407834 0.548726
vt 0.403185 0.567231
vt 0.395605 0.589603
vt 0.623839 0.729981
vt 0.623815 0.746810
vt 0.647927 0.746810
vt 0.647903 0.729981
vt 0.647879 0.713155
vt 0.623863 0.713155
vt 0.647855 0.696329
vt 0.623887 0.696329
vt 0.623911 0.679503
vt 0.647832 0.679503
vt 0.623982 0.629025
vt 0.623958 0.645851
vt 0.624030 0.595495
vt 0.624006 0.612200
vt 0.647736 0.612200
vt 0.647713 0.595495
vt 0.647760 0.629025
vt 0.304662 0.920873
vt 0.017559 0.891510
vt 0.121232 0.922809
vt 0.239458 0.921665
vt 0.564285 0.447389
vt 0.706314 0.996996
vt 0.695137 0.385527
vt 0.561033 0.414484
vt 0.417251 0.612017
vt 0.434764 0.700522
vt 0.706317 0.950261
vt 0.694676 0.353213
vt 0.437872 0.417877
vt 0.694792 0.917916
vt 0.695168 0.305874
vt 0.578234 0.496627
vn -0.998698 0.051019 -0.000000
vn -0.998698 0.051019 -0.000000
vn -0.998698 0.051019 -0.000000
vn 0.000000 0.000000 1.000000
vn 0.000000 0.000000 1.000000
vn 0.000000 0.000000 1.000000
vn -1.000000 0.000000 0.000000
vn -1.000000 0.000000 0.000000
vn -1.000000 0.000000 0.000000
vn 0.000000 0.002138 -0.999998
vn 0.000000 0.004434 -0.999990
vn 0.000000 0.002138 -0.999998
vn 1.000000 0.000000 0.000000
vn 1.000000 0.000000 0.000000
vn 1.000000 0.000000 0.000000
vn 0.000000 -0.000000 -1.000000
vn -0.998968 -0.045409 0.000000
vn -0.998968 -0.045409 0.000000
vn -0.998969 -0.045409 0.000000
vn 0.998698 0.051019 -0.000000
vn 0.998698 0.051019 -0.000000
vn 0.998698 0.051019 -0.000000
vn 0.000000 0.067792 -0.997699
vn 0.000000 0.067792 -0.997700
vn 0.000000 0.067792 -0.997700
vn 0.000000 -0.029706 0.999559
vn 0.000000 -0.029706 0.999559
vn 0.000000 -0.029706 0.999559
vn 0.000000 -0.128254 0.991741
vn 0.000000 -0.128254 0.991741
vn 0.000000 -0.128254 0.991741
vn 0.000000 0.062638 0.998036
vn 0.000000 0.062638 0.998036
vn 0.000000 0.062638 0.998036
vn 0.000000 -0.041041 -0.999157
vn 0.000000 -0.041041 -0.999158
vn 0.000000 -0.041041 -0.999158
vn 0.998968 -0.045409 0.000000
vn 0.998968 -0.045409 0.000000
vn 0.998969 -0.045409 0.000000
vn 0.000000 -0.383496 -0.923542
vn 0.000000 -0.383496 -0.923543
vn 0.000000 -0.383496 -0.923543
vn 0.000000 -0.303909 -0.952701
vn 0.000000 -0.303909 -0.952701
vn 0.000000 -0.303909 -0.952701
vn 0.997285 -0.073640 0.000000
vn 0.997285 -0.073640 0.000000
vn 0.997285 -0.073640 0.000000
vn -0.997285 -0.073640 0.000000
vn -0.997285 -0.073640 0.000000
vn -0.997285 -0.073640 0.000000
vn -1.000000 0.000000 0.000000
vn -1.000000 0.000000 0.000000
vn -1.000000 0.000000 0.000000
vn 1.000000 0.000000 0.000000
vn 1.000000 0.000000 0.000000
vn 1.000000 0.000000 0.000000
vn -1.000000 0.000000 0.000000
vn -1.000000 0.000000 0.000000
vn 0.000000 -0.001452 0.999999
vn 0.000000 -0.001452 0.999999
vn 0.000000 -0.001452 0.999999
vn 0.000000 0.001889 -0.999998
vn 0.000000 0.001889 -0.999998
vn 0.000000 0.001889 -0.999998
vn 0.000000 -0.053065 0.998591
vn 0.000000 -0.053065 0.998591
vn 0.000000 -0.053065 0.998591
vn 0.000000 -0.358717 -0.933446
vn 0.000000 -0.358717 -0.933446
vn 0.000000 -0.358718 -0.933446
vn 1.000000 0.000000 0.000000
vn 1.000000 0.000000 0.000000
vn 0.000000 0.182824 -0.983146
vn 0.000000 0.182824 -0.983146
vn 0.000000 0.182824 -0.983146
vn 0.999556 0.029783 -0.000000
vn 0.999556 0.029783 -0.000000
vn 0.999556 0.029783 -0.000000
vn -0.999556 0.029783 -0.000000
vn -0.999556 0.029783 -0.000000
vn -0.999556 0.029783 -0.000000
vn 0.000000 0.050265 0.998736
vn 0.000000 0.050266 0.998736
vn 0.000000 0.050265 0.998736
vn 0.000000 0.057318 0.998356
vn 0.000000 0.057318 0.998356
vn 0.000000 0.057318 0.998356
vn 0.000000 -0.129182 0.991621
vn 0.000000 -0.129182 0.991621
vn 0.000000 -0.129182 0.991621
vn -0.994227 -0.107296 0.000000
vn -0.994227 -0.107296 0.000000
vn -0.994227 -0.107296 0.000000
vn 0.994227 -0.107296 0.000000
vn 0.994227 -0.107296 0.000000
vn 0.994227 -0.107296 0.000000
vn 0.999714 0.023915 -0.000000
vn 0.999889 0.014876 -0.000000
vn 0.999885 0.015178 0.000000
vn -0.999700 0.024503 -0.000000
vn -0.999885 0.015178 0.000000
vn -0.999714 0.023915 0.000000
vn 0.999700 0.024503 -0.000000
vn 0.999700 0.024503 -0.000000
vn 0.000000 -0.057318 -0.998356
vn 0.000000 -0.057318 -0.998356
vn 0.000000 -0.057318 -0.998356
vn 0.995486 0.094904 -0.000000
vn 0.995486 0.094904 -0.000000
vn 0.995486 0.094904 -0.000000
vn 0.000000 -0.128786 -0.991672
vn 0.000000 -0.128786 -0.991672
vn 0.000000 -0.128786 -0.991672
vn 0.000000 0.384529 0.923113
vn 0.000000 0.384528 0.923113
vn 0.000000 0.384529 0.923113
vn -0.999889 0.014876 -0.000000
vn -0.999889 0.014876 -0.000000
vn 0.000000 0.000000 1.000000
vn 0.000000 0.000000 1.000000
vn 0.000000 0.000000 1.000000
vn 0.000000 0.080675 -0.996740
vn 0.000000 0.080675 -0.996740
vn 0.000000 0.080675 -0.996741
vn 0.000000 0.631968 0.774995
vn 0.000000 0.631968 0.774995
vn 0.000000 0.631968 0.774995
vn -0.995486 0.094904 -0.000000
vn -0.995486 0.094904 -0.000000
vn -0.995486 0.094904 -0.000000
vn 0.988564 -0.150803 0.000000
vn 0.988564 -0.150803 0.000000
vn 0.988564 -0.150803 0.000000
vn -1.000000 0.000000 0.000000
vn -1.000000 0.000000 0.000000
vn -1.000000 0.000000 0.000000
vn 1.000000 0.000000 0.000000
vn 1.000000 0.000000 0.000000
vn 1.000000 0.000000 0.000000
vn 0.000000 -0.000000 -1.000000
vn 0.000000 -0.000000 -1.000000
vn 0.000000 -0.000000 -1.000000
vn 0.000000 -0.959521 0.281637
vn 0.000000 -0.959521 0.281637
vn 0.000000 -0.959521 0.281637
vn 0.000000 -0.450632 -0.892710
vn 0.000000 -0.450632 -0.892710
vn 0.000000 -0.450632 -0.892710
vn 0.000000 -0.919973 0.391981
vn 0.000000 -0.919973 0.391981
vn 0.000000 -0.919973 0.391981
vn -0.988564 -0.150803 0.000000
vn -0.988564 -0.150803 0.000000
vn -0.988564 -0.150803 0.000000
vn 0.000000 -1.000000 0.000000
vn 0.000000 -1.000000 0.000000
vn 0.000000 -1.000000 0.000000
vn -1.000000 0.000000 0.000000
vn -1.000000 0.000000 0.000000
vn -1.000000 0.000000 0.000000
vn 1.000000 0.000000 0.000000
vn 1.000000 0.000000 0.000000
vn 1.000000 0.000000 0.000000
vn 0.000000 -0.959521 -0.281637
vn 0.000000 -0.959521 -0.281637
vn 0.000000 -0.959521 -0.281637
vn -0.999972 -0.007525 0.000000
vn -0.999972 -0.007525 0.000000
vn -0.999972 -0.007525 0.000000
vn -0.204493 -0.012106 -0.978793
vn -0.205431 -0.012451 -0.978592
vn -0.205634 -0.012526 -0.978549
vn 0.999972 -0.007525 0.000000
vn 0.999972 -0.007525 0.000000
vn 0.999972 -0.007525 0.000000
vn -0.986179 -0.010157 0.165369
vn -0.985201 -0.009391 0.171147
vn -0.986278 -0.010236 0.164774
vn 0.000001 -1.000000 0.000000
vn -0.000002 -1.000000 0.000000
vn 0.000002 -1.000000 0.000000
vn -0.000002 1.000000 0.000196
vn 0.000002 1.000000 -0.000000
vn 0.000002 1.000000 -0.000000
vn 0.000000 0.952597 -0.304235
vn 0.000000 0.952597 -0.304235
vn 0.000000 0.952597 -0.304235
vn -0.000000 1.000000 0.000196
vn -0.000004 1.000000 -0.000000
vn -0.000002 1.000000 -0.000000
vn -0.000002 1.000000 -0.000000
vn 0.000004 1.000000 -0.000000
vn 0.000000 1.000000 -0.000000
vn 0.000000 1.000000 -0.000000
vn 0.000000 1.000000 -0.000000
vn 0.463465 0.886115 -0.000000
vn 0.463461 0.886117 -0.000000
vn 0.463461 0.886117 -0.000000
vn -0.463465 0.886115 -0.000000
vn -0.463461 0.886117 -0.000000
vn -0.463461 0.886117 -0.000000
vn 0.000000 0.952597 0.304234
vn 0.000000 0.952597 0.304234
vn 0.000000 0.952597 0.304234
vn -0.901565 -0.432644 0.000000
vn -0.901565 -0.432643 0.000000
vn -0.901565 -0.432644 0.000000
vn -0.000001 -1.000000 0.000000
vn 0.000002 -1.000000 0.000000
vn 0.000002 -1.000000 0.000000
vn -0.000002 -1.000000 0.000000
vn -0.000002 -1.000000 0.000000
vn 0.000000 -1.000000 0.000000
vn 0.000000 -1.000000 0.000000
vn 0.000000 -1.000000 0.000000
vn 0.901565 -0.432644 0.000000
vn 0.901565 -0.432643 0.000000
vn 0.901565 -0.432643 0.000000
vn 0.000000 -0.640057 -0.768327
vn 0.000000 -0.640057 -0.768327
vn 0.000000 -0.640057 -0.768327
vn 0.000000 -0.640057 0.768328
vn 0.000000 -0.640057 0.768328
vn 0.000000 -0.640056 0.768328
vn 0.000000 1.000000 -0.000000
vn 0.000000 1.000000 -0.000000
vn 0.000000 1.000000 -0.000000
vn 0.995304 0.096798 -0.000000
vn 0.995304 0.096798 -0.000000
vn 0.995304 0.096798 -0.000000
vn -0.995304 0.096798 -0.000000
vn -0.995304 0.096798 -0.000000
vn -0.995304 0.096798 -0.000000
vn 0.000000 0.182824 0.983146
vn 0.000000 0.182824 0.983146
vn 0.000000 0.182824 0.983146
vn 0.000000 -0.682626 0.730768
vn 0.000000 -0.682626 0.730767
vn 0.000000 -0.682627 0.730767
vn 0.000000 0.999942 -0.010728
vn 0.986179 -0.010157 0.165369
vn 0.985201 -0.009391 0.171147
vn 0.985132 -0.009338 0.171547
vn 0.965582 -0.007031 0.260002
vn 0.969680 -0.010429 0.244155
vn 0.970445 -0.011089 0.241069
vn 0.961464 -0.008790 0.274790
vn 0.958864 -0.006825 0.283783
vn 0.958297 -0.006405 0.285702
vn 0.948122 -0.011035 0.317716
vn 0.950057 -0.009813 0.311923
vn 0.947870 -0.011192 0.318460
vn 0.921661 -0.007338 0.387927
vn 0.921894 -0.008761 0.387344
vn 0.911171 -0.009839 0.411910
vn 0.926505 -0.006927 0.376219
vn 0.904023 -0.011583 0.427327
vn 0.000000 0.986977 -0.160859
vn 0.000000 0.986977 -0.160859
vn 0.000000 0.986977 -0.160859
vn 0.000000 0.972807 -0.231616
vn 0.000000 0.972807 -0.231617
vn 0.000000 0.972807 -0.231617
vn 0.000000 0.968978 -0.247149
vn 0.000000 0.968978 -0.247149
vn 0.000000 0.968978 -0.247149
vn 0.000000 0.934047 -0.357151
vn 0.000000 0.934047 -0.357151
vn 0.000000 0.934047 -0.357151
vn 0.000000 0.845865 -0.533397
vn 0.000000 0.845865 -0.533397
vn 0.000000 0.845865 -0.533397
vn -0.965582 -0.007031 0.260003
vn -0.969680 -0.010429 0.244155
vn -0.964864 -0.006458 0.262669
vn -0.961464 -0.008790 0.274790
vn -0.958864 -0.006825 0.283783
vn -0.961863 -0.009097 0.273382
vn -0.948122 -0.011035 0.317716
vn -0.950057 -0.009813 0.311923
vn -0.950391 -0.009600 0.310909
vn -0.921661 -0.007338 0.387927
vn -0.921894 -0.008761 0.387344
vn -0.908972 -0.013414 0.416641
vn -0.911172 -0.009839 0.411909
vn -0.926505 -0.006927 0.376219
vn 0.000001 -0.988574 -0.150734
vn 0.000000 -0.988574 -0.150738
vn 0.000000 -0.988574 -0.150738
vn 0.000001 -0.983272 -0.182145
vn 0.000002 -0.983272 -0.182145
vn 0.000002 -0.983272 -0.182146
vn 0.000002 -0.945518 -0.325570
vn 0.000001 -0.945518 -0.325570
vn 0.000003 -0.945518 -0.325570
vn 0.000001 -0.881460 -0.472260
vn 0.000001 -0.881460 -0.472259
vn 0.000001 -0.881460 -0.472259
vn 0.000000 -0.786642 -0.617409
vn 0.000000 -0.786642 -0.617409
vn 0.000000 -0.786643 -0.617409
vn 0.000000 0.999937 -0.011218
vn 0.000000 0.999937 -0.011218
vn 0.000000 0.999937 -0.011218
vn 0.204493 -0.012106 -0.978793
vn 0.205431 -0.012451 -0.978592
vn 0.204160 -0.011984 -0.978864
vn 0.000000 -0.166079 -0.986112
vn 0.000000 -0.166079 -0.986112
vn 0.000000 -0.166079 -0.986112
vn 0.000000 0.960386 -0.278675
vn 0.000000 0.960386 -0.278675
vn 0.000000 0.960386 -0.278675
vn 0.000000 -0.024135 0.999709
vn 0.000000 -0.024135 0.999709
vn 0.000000 -0.024135 0.999709
vn 0.903464 0.077186 0.421657
vn 0.893171 0.155810 0.421863
vn 0.908171 -0.006668 0.418545
vn 0.000000 0.501443 0.865190
vn 0.000000 0.501444 0.865190
vn 0.000000 0.501443 0.865190
vn 0.000000 -0.745843 -0.666122
vn 0.000000 -0.745842 -0.666123
vn 0.000000 -0.745842 -0.666123
vn -0.965863 -0.089119 0.243240
vn -0.952081 -0.191250 0.238675
vn -0.969500 -0.003740 0.245064
vn 0.000000 0.700935 -0.713225
vn 0.000000 0.700936 -0.713224
vn 0.000000 0.700935 -0.713225
vn -0.903464 0.077186 0.421657
vn -0.893171 0.155809 0.421863
vn -0.874968 0.242732 0.418942
vn -0.939736 0.030843 0.340506
vn -0.934494 0.073251 0.348361
vn -0.928264 0.111317 0.354872
vn -0.954622 0.013431 0.297518
vn -0.951049 0.048674 0.305182
vn -0.948243 0.070237 0.309680
vn -0.960640 0.001011 0.277796
vn -0.958943 0.015821 0.283157
vn -0.957787 0.024875 0.286401
vn -0.961168 -0.009849 0.275789
vn -0.960435 -0.015293 0.278085
vn -0.961807 -0.004881 0.273685
vn -0.958457 -0.023962 0.284231
vn -0.956627 -0.043560 0.288041
vn -0.959523 -0.010029 0.281453
vn -0.951612 0.019919 0.306657
vn -0.949642 0.081340 0.302594
vn -0.951269 -0.009846 0.308206
vn -0.968472 -0.005341 0.249065
vn -0.968543 -0.000828 0.248845
vn -0.968412 -0.008441 0.249212
vn 0.000000 -0.493798 0.869576
vn 0.000000 -0.493798 0.869577
vn 0.000000 -0.493798 0.869577
vn 0.000014 -0.322889 0.946437
vn 0.000041 -0.322891 0.946436
vn 0.000012 -0.322889 0.946437
vn 0.000035 -0.173109 0.984903
vn 0.000041 -0.173114 0.984902
vn 0.000035 -0.173109 0.984903
vn 0.000041 -0.155240 0.987877
vn 0.000041 -0.155239 0.987877
vn 0.000041 -0.155239 0.987877
vn 0.000027 -0.067397 0.997726
vn 0.000026 -0.067397 0.997726
vn 0.000027 -0.067397 0.997726
vn 0.000005 0.086736 0.996231
vn 0.000008 0.086735 0.996231
vn 0.000005 0.086736 0.996231
vn -0.000024 0.221408 0.975181
vn -0.000007 0.221409 0.975181
vn -0.000025 0.221408 0.975181
vn -0.000019 0.299448 0.954113
vn -0.000001 0.299449 0.954112
vn -0.000020 0.299448 0.954113
vn 0.861721 -0.046361 0.505261
vn 0.858325 -0.102970 0.502668
vn 0.853635 -0.147876 0.499440
vn 0.917067 -0.068291 0.392842
vn 0.905406 -0.161144 0.392776
vn 0.895073 -0.214073 0.391173
vn 0.952458 -0.058984 0.298907
vn 0.939101 -0.166257 0.300747
vn 0.929371 -0.214516 0.300420
vn 0.958939 -0.017971 0.283044
vn 0.960086 -0.018685 0.279080
vn 0.957409 -0.035676 0.286522
vn 0.959322 -0.015664 0.281881
vn 0.960435 -0.015292 0.278085
vn 0.960639 0.001011 0.277797
vn 0.958943 0.015821 0.283158
vn 0.961725 -0.009798 0.273840
vn 0.954622 0.013431 0.297518
vn 0.951049 0.048673 0.305182
vn 0.956165 -0.007746 0.292726
vn 0.939737 0.030843 0.340505
vn 0.934494 0.073251 0.348361
vn 0.943202 -0.011565 0.332020
vn -0.000001 0.021824 -0.999762
vn -0.000001 0.029188 -0.999574
vn -0.000001 0.021825 -0.999762
vn 0.000000 -0.481188 0.876618
vn 0.000000 -0.481188 0.876618
vn 0.000000 -0.481188 0.876618
vn -0.961177 -0.275932 0.000000
vn -0.961177 -0.275933 0.000000
vn -0.961177 -0.275932 0.000000
vn 0.961177 -0.275932 0.000000
vn 0.961177 -0.275933 0.000000
vn 0.961177 -0.275933 0.000000
vn 0.000000 -0.481188 -0.876617
vn 0.000000 -0.481188 -0.876617
vn 0.000000 -0.481188 -0.876617
vn 0.000000 -0.999988 -0.004893
vn 0.000000 -0.999988 -0.004893
vn 0.000000 -0.999988 -0.004893
vn -0.999988 -0.004907 0.000055
vn -0.999988 -0.004907 0.000055
vn -0.999988 -0.004907 0.000055
vn 0.999988 -0.004907 0.000055
vn 0.999988 -0.004907 0.000055
vn 0.999988 -0.004907 0.000055
vn 0.000000 -0.999937 0.011218
vn 0.000000 -0.999937 0.011218
vn 0.000000 -0.999937 0.011218
vn 0.000000 0.683269 -0.730167
vn 0.000000 0.683270 -0.730166
vn 0.000000 0.683269 -0.730167
vn 0.000000 0.940763 -0.339066
vn 0.000000 0.940763 -0.339066
vn 0.000000 0.940763 -0.339066
vn -0.995140 -0.005987 -0.098287
vn -0.995140 -0.005987 -0.098287
vn -0.995140 -0.005987 -0.098287
vn 0.995140 -0.005987 -0.098287
vn 0.995140 -0.005987 -0.098287
vn 0.995140 -0.005987 -0.098287
vn 0.000000 -0.011222 -0.999937
vn 0.000000 -0.011222 -0.999937
vn 0.000000 -0.011221 -0.999937
vn -0.962250 -0.007775 -0.272056
vn -0.962250 -0.007775 -0.272055
vn -0.962250 -0.007776 -0.272055
vn 0.962250 -0.007775 -0.272056
vn 0.962250 -0.007775 -0.272055
vn 0.962250 -0.007775 -0.272056
vn 0.000000 -0.999903 0.013902
vn 0.000000 -0.999903 0.013902
vn 0.000000 -0.999903 0.013902
vn -0.998698 0.051019 -0.000000
vn 0.000000 0.000000 1.000000
vn -1.000000 0.000000 0.000000
vn 0.000000 0.004434 -0.999990
vn 1.000000 0.000000 0.000000
vn 0.000000 -0.000000 -1.000000
vn -0.998969 -0.045409 0.000000
vn 0.998698 0.051019 -0.000000
vn 0.000000 0.067792 -0.997699
vn 0.000000 -0.029706 0.999559
vn 0.000000 -0.128254 0.991741
vn 0.000000 0.062638 0.998036
vn 0.000000 -0.041041 -0.999157
vn 0.998969 -0.045409 0.000000
vn 0.000000 -0.383496 -0.923542
vn 0.000000 -0.303909 -0.952701
vn 0.997285 -0.073640 0.000000
vn -0.997285 -0.073640 0.000000
vn -1.000000 0.000000 0.000000
vn 0.000000 -0.001452 0.999999
vn 0.000000 0.001889 -0.999998
vn 0.000000 -0.053065 0.998591
vn 0.000000 -0.358717 -0.933446
vn 1.000000 0.000000 0.000000
vn 0.000000 0.182824 -0.983146
vn 0.999556 0.029783 -0.000000
vn -0.999556 0.029783 -0.000000
vn 0.000000 0.050266 0.998736
vn 0.000000 0.057318 0.998356
vn 0.000000 -0.129182 0.991621
vn -0.994227 -0.107296 0.000000
vn 0.994227 -0.107296 0.000000
vn 0.999889 0.014876 -0.000000
vn -0.999700 0.024503 -0.000000
vn 0.000000 -0.057318 -0.998356
vn 0.995486 0.094904 -0.000000
vn 0.000000 -0.128786 -0.991673
vn 0.000000 0.384528 0.923113
vn 0.000000 0.000000 1.000000
vn 0.000000 0.080675 -0.996740
vn 0.000000 0.631968 0.774995
vn -0.995486 0.094904 -0.000000
vn 0.988564 -0.150803 0.000000
vn -1.000000 0.000000 0.000000
vn 1.000000 0.000000 0.000000
vn 0.000000 -0.000000 -1.000000
vn 0.000000 -0.959521 0.281637
vn 0.000000 -0.450632 -0.892710
vn 0.000000 -0.919973 0.391981
vn -0.988564 -0.150803 0.000000
vn 0.000000 -1.000000 0.000000
vn -1.000000 0.000000 0.000000
vn 1.000000 0.000000 0.000000
vn 0.000000 -0.959521 -0.281637
vn -0.999972 -0.007525 0.000000
vn -0.204160 -0.011984 -0.978864
vn 0.999972 -0.007525 0.000000
vn -0.985132 -0.009338 0.171547
vn 0.000000 0.952597 -0.304235
vn 0.000000 1.000000 -0.000000
vn 0.463465 0.886115 -0.000000
vn -0.463465 0.886115 -0.000000
vn 0.000000 0.952597 0.304234
vn -0.901565 -0.432643 0.000000
vn 0.000000 -1.000000 0.000000
vn 0.901565 -0.432644 0.000000
vn 0.000000 -0.640058 -0.768327
vn 0.000000 -0.640057 0.768328
vn 0.000000 1.000000 -0.000000
vn 0.995304 0.096798 -0.000000
vn -0.995304 0.096798 -0.000000
vn 0.000000 0.182824 0.983146
vn 0.000000 -0.682626 0.730768
vn 0.000000 0.999942 -0.010728
vn 0.986278 -0.010236 0.164774
vn 0.964864 -0.006458 0.262669
vn 0.961863 -0.009097 0.273382
vn 0.950391 -0.009600 0.310910
vn 0.908972 -0.013414 0.416641
vn 0.000000 0.986977 -0.160859
vn 0.000000 0.972807 -0.231616
vn 0.000000 0.968978 -0.247149
vn 0.000000 0.934047 -0.357150
vn 0.000000 0.845865 -0.533396
vn -0.970445 -0.011089 0.241069
vn -0.958297 -0.006405 0.285702
vn -0.947870 -0.011192 0.318460
vn -0.904024 -0.011583 0.427326
vn 0.000001 -0.988575 -0.150733
vn 0.000001 -0.983272 -0.182145
vn 0.000001 -0.945518 -0.325570
vn 0.000001 -0.881459 -0.472260
vn 0.000000 -0.786642 -0.617409
vn 0.000000 0.999937 -0.011218
vn 0.205634 -0.012526 -0.978549
vn 0.000000 -0.166079 -0.986113
vn 0.000000 0.960385 -0.278675
vn 0.000000 -0.024135 0.999709
vn 0.874968 0.242733 0.418942
vn 0.000000 0.501444 0.865190
vn 0.000000 -0.745843 -0.666122
vn -0.931337 -0.280288 0.232488
vn 0.000000 0.700937 -0.713223
vn -0.908171 -0.006668 0.418545
vn -0.943201 -0.011564 0.332020
vn -0.956165 -0.007746 0.292727
vn -0.961726 -0.009798 0.273839
vn -0.959924 -0.018941 0.279619
vn -0.955374 -0.055056 0.290224
vn -0.947308 0.111924 0.300133
vn -0.968580 0.002247 0.248693
vn 0.000000 -0.493798 0.869576
vn 0.000042 -0.322891 0.946436
vn 0.000041 -0.173114 0.984902
vn 0.000041 -0.155240 0.987877
vn 0.000026 -0.067397 0.997726
vn 0.000008 0.086735 0.996231
vn -0.000006 0.221409 0.975181
vn 0.000000 0.299449 0.954112
vn 0.862446 -0.006102 0.506113
vn 0.920207 -0.012402 0.391236
vn 0.954863 -0.009540 0.296895
vn 0.961807 -0.004881 0.273685
vn 0.957787 0.024875 0.286400
vn 0.948243 0.070237 0.309680
vn 0.928265 0.111317 0.354871
vn 0.000000 0.021823 -0.999762
vn 0.000000 0.012863 -0.999917
vn 0.000000 0.012864 -0.999917
vn -0.000000 0.021824 -0.999762
vn -0.000001 0.026322 -0.999653
vn -0.000001 0.026321 -0.999654
vn -0.000001 0.026313 -0.999654
vn -0.000001 0.026313 -0.999654
vn -0.000001 0.021841 -0.999761
vn -0.000001 0.021840 -0.999761
vn -0.000001 0.027968 -0.999609
vn -0.000001 0.029188 -0.999574
vn 0.000000 0.009629 -0.999954
vn 0.000000 0.019006 -0.999819
vn -0.000000 0.019005 -0.999819
vn 0.000000 0.009630 -0.999954
vn -0.000001 0.027967 -0.999609
vn 0.000000 -0.481188 0.876618
vn -0.961177 -0.275933 0.000000
vn 0.961177 -0.275932 0.000000
vn 0.000000 -0.481188 -0.876617
vn 0.000000 -0.999988 -0.004893
vn -0.999988 -0.004907 0.000055
vn 0.999988 -0.004907 0.000055
vn 0.000000 -0.999937 0.011218
vn 0.000000 0.683270 -0.730166
vn 0.000000 0.940763 -0.339066
vn -0.995140 -0.005987 -0.098287
vn 0.995140 -0.005987 -0.098287
vn 0.000000 -0.011223 -0.999937
vn -0.962250 -0.007775 -0.272056
vn 0.962250 -0.007775 -0.272055
vn 0.000000 -0.999903 0.013902
f 1/1/1 2/2/2 3/3/3
f 4/4/4 5/5/5 6/6/6
f 7/7/7 8/8/8 9/9/9
f 10/10/10 11/11/11 12/12/12
f 13/13/13 14/14/14 15/15/15
f 16/16/16 10/10/10 12/12/12
f 17/17/17 18/18/18 19/19/19
f 20/20/20 21/21/21 22/22/22
f 23/23/23 24/24/24 25/25/25
f 26/26/26 27/27/27 28/28/28
f 29/29/29 30/30/30 31/31/31
f 32/32/32 33/33/33 34/34/34
f 35/35/35 36/36/36 37/37/37
f 38/38/38 39/39/39 40/40/40
f 41/41/41 42/42/42 43/43/43
f 44/44/44 45/45/45 46/46/46
f 47/47/47 48/48/48 49/49/49
f 50/50/50 51/51/51 52/52/52
f 53/53/53 54/54/54 55/55/55
f 56/56/56 57/57/57 58/58/58
f 59/59/59 60/60/60 53/53/53
f 61/61/61 62/62/62 63/63/63
f 64/64/64 65/65/65 66/66/66
f 67/67/67 68/68/68 69/69/69
f 70/70/70 71/71/71 72/72/72
f 73/73/73 74/74/74 57/57/57
f 75/75/75 76/76/76 77/77/77
f 78/78/78 79/79/79 80/80/80
f 81/81/81 82/82/82 83/83/83
f 84/84/84 85/85/85 86/86/86
f 87/87/87 88/88/88 89/89/89
f 90/90/90 91/91/91 92/92/92
f 93/93/93 94/94/94 95/95/95
f 96/96/96 97/97/97 98/98/98
f 99/99/99 100/100/100 101/101/101
f 102/102/102 103/103/103 104/104/104
f 105/105/105 101/101/101 106/106/106
f 107/107/107 108/108/108 109/109/109
f 110/110/110 111/111/111 112/112/112
f 113/113/113 114/114/114 115/115/115
f 116/116/116 117/117/117 118/118/118
f 104/104/104 119/119/119 120/120/120
f 121/121/121 122/122/122 123/123/123
f 124/124/124 125/125/125 126/126/126
f 127/127/127 128/128/128 129/129/129
f 130/130/130 131/131/131 132/132/132
f 133/133/133 134/134/134 135/135/135
f 136/136/136 137/137/137 138/138/138
f 139/139/139 140/140/140 141/141/141
f 142/142/142 143/143/143 144/144/144
f 145/145/145 146/146/146 147/147/147
f 148/148/148 149/149/149 150/150/150
f 151/151/151 152/152/152 153/153/153
f 154/154/154 155/155/155 156/156/156
f 157/157/157 158/158/158 159/159/159
f 160/160/160 161/161/161 162/162/162
f 163/163/163 164/164/164 165/165/165
f 166/166/166 167/167/167 168/168/168
f 169/169/169 170/170/170 171/171/171
f 172/172/172 173/173/173 174/174/174
f 175/175/175 176/176/176 177/177/177
f 178/178/178 179/179/179 180/180/180
f 181/181/181 182/182/182 183/183/183
f 184/184/184 185/185/185 186/186/186
f 187/187/187 188/188/188 189/189/189
f 190/190/190 191/191/191 184/184/184
f 186/186/186 192/192/192 193/193/193
f 190/190/190 192/192/192 194/194/194
f 195/195/195 196/196/196 197/197/197
f 198/198/198 199/199/199 200/200/200
f 201/201/201 202/202/202 203/203/203
f 204/204/204 205/205/205 206/206/206
f 207/207/207 208/208/208 209/209/209
f 210/210/210 211/211/211 212/212/212
f 181/181/181 213/213/213 210/210/210
f 212/212/212 182/182/182 214/214/214
f 215/215/215 216/216/216 217/217/217
f 218/218/218 219/219/219 220/220/220
f 221/221/221 222/222/222 223/223/223
f 224/224/224 225/225/225 226/226/226
f 227/227/227 228/228/228 229/229/229
f 230/230/230 231/231/231 232/232/232
f 233/233/233 234/234/234 235/235/235
f 236/236/236 237/237/237 238/238/238
f 239/239/239 240/240/240 241/241/241
f 184/184/184 242/242/242 190/190/190
f 243/243/243 244/244/244 245/245/245
f 246/246/246 247/247/247 248/248/248
f 249/249/249 250/250/250 251/251/251
f 252/252/252 253/253/253 254/254/254
f 255/255/255 256/256/256 257/257/257
f 257/257/257 258/258/258 259/259/259
f 260/260/260 261/261/261 262/262/262
f 263/263/263 264/264/264 265/265/265
f 266/266/266 267/267/267 268/268/268
f 269/269/269 270/270/270 271/271/271
f 272/272/272 273/273/273 274/274/274
f 275/275/275 276/276/276 277/277/277
f 278/278/278 279/279/279 280/280/280
f 281/281/281 282/282/282 283/283/283
f 284/284/284 285/285/285 286/286/286
f 287/287/287 288/288/288 285/285/285
f 289/289/289 290/290/290 291/291/291
f 292/292/292 293/293/293 294/294/294
f 295/295/295 296/296/296 297/297/297
f 298/298/298 299/299/299 300/300/300
f 301/301/301 302/302/302 303/303/303
f 304/304/304 305/305/305 306/306/306
f 307/307/307 308/308/308 309/309/309
f 310/310/310 311/311/311 312/312/312
f 313/313/313 314/314/314 315/315/315
f 316/316/316 317/317/317 318/318/318
f 319/319/319 320/320/320 321/321/321
f 322/322/322 323/323/323 324/324/324
f 325/325/325 326/326/326 327/327/327
f 328/328/328 329/329/329 330/330/330
f 331/331/331 332/332/332 333/333/333
f 334/334/334 335/335/335 336/336/336
f 337/337/337 338/338/338 339/339/339
f 340/340/340 341/341/341 342/342/342
f 343/343/343 344/344/344 345/345/345
f 346/346/346 347/347/347 348/348/348
f 349/349/349 350/350/350 351/351/351
f 352/352/352 353/353/353 354/354/354
f 355/355/355 356/356/356 357/357/357
f 358/358/358 359/359/359 360/360/360
f 361/361/361 362/362/362 363/363/363
f 364/364/364 365/365/365 366/366/366
f 367/367/367 368/368/368 369/369/369
f 370/370/370 371/371/371 372/372/372
f 373/373/373 374/374/374 375/375/375
f 376/376/376 377/377/377 378/378/378
f 379/379/379 380/380/380 381/381/381
f 382/382/382 383/383/383 384/384/384
f 385/385/385 386/386/386 387/387/387
f 388/388/388 389/389/389 390/390/390
f 391/391/391 392/392/392 393/393/393
f 394/394/394 395/395/395 392/392/392
f 396/396/396 397/397/397 398/398/398
f 399/399/399 400/400/400 401/401/401
f 402/402/402 403/403/403 404/404/404
f 405/405/405 406/406/406 407/407/407
f 408/408/408 409/409/409 410/410/410
f 411/411/411 412/412/412 413/413/413
f 414/414/414 415/415/415 416/416/416
f 417/417/417 418/418/418 419/419/419
f 420/420/420 421/421/421 422/422/422
f 423/423/423 424/424/424 425/425/425
f 426/426/426 427/427/427 428/428/428
f 429/429/429 430/430/430 431/431/431
f 432/432/432 433/433/433 434/434/434
f 435/435/435 436/436/436 437/437/437
f 438/438/438 439/439/439 440/440/440
f 441/441/441 442/442/442 443/443/443
f 444/444/444 445/445/445 446/446/446
f 447/447/447 448/448/448 449/449/449
f 450/450/450 451/451/451 452/452/452
f 453/453/453 454/454/454 455/455/455
f 1/1/1 456/456/456 2/2/2
f 4/4/4 457/457/457 5/5/5
f 7/7/7 458/458/458 8/8/8
f 10/10/10 459/459/459 11/11/11
f 13/13/13 460/460/460 14/14/14
f 16/16/16 461/461/461 10/10/10
f 17/17/17 462/462/462 18/18/18
f 20/20/20 463/463/463 21/21/21
f 23/23/23 464/464/464 24/24/24
f 26/26/26 465/465/465 27/27/27
f 29/29/29 466/466/466 30/30/30
f 32/32/32 467/467/467 33/33/33
f 35/35/35 468/468/468 36/36/36
f 38/38/38 469/469/469 39/39/39
f 41/41/41 470/470/470 42/42/42
f 44/44/44 471/471/471 45/45/45
f 47/47/47 472/472/472 48/48/48
f 50/50/50 473/473/473 51/51/51
f 53/53/53 60/60/60 54/54/54
f 56/56/56 73/73/73 57/57/57
f 59/59/59 474/474/474 60/60/60
f 61/61/61 475/475/475 62/62/62
f 64/64/64 476/476/476 65/65/65
f 67/67/67 477/477/477 68/68/68
f 70/70/70 478/478/478 71/71/71
f 73/73/73 479/479/479 74/74/74
f 75/75/75 480/480/480 76/76/76
f 78/78/78 481/481/481 79/79/79
f 81/81/81 482/482/482 82/82/82
f 84/84/84 483/483/483 85/85/85
f 87/87/87 484/484/484 88/88/88
f 90/90/90 485/485/485 91/91/91
f 93/93/93 486/486/486 94/94/94
f 96/96/96 487/487/487 97/97/97
f 99/99/99 488/488/488 100/100/100
f 102/102/102 489/489/489 103/103/103
f 105/105/105 99/99/99 101/101/101
f 107/107/107 490/490/490 108/108/108
f 110/110/110 491/491/491 111/111/111
f 113/113/113 492/492/492 114/114/114
f 116/116/116 493/493/493 117/117/117
f 104/104/104 103/103/103 119/119/119
f 121/121/121 494/494/494 122/122/122
f 124/124/124 495/495/495 125/125/125
f 127/127/127 496/496/496 128/128/128
f 130/130/130 497/497/497 131/131/131
f 133/133/133 498/498/498 134/134/134
f 136/136/136 499/499/499 137/137/137
f 139/139/139 500/500/500 140/140/140
f 142/142/142 501/501/501 143/143/143
f 145/145/145 502/502/502 146/146/146
f 148/148/148 503/503/503 149/149/149
f 151/151/151 504/504/504 152/152/152
f 154/154/154 505/505/505 155/155/155
f 157/157/157 506/506/506 158/158/158
f 160/160/160 507/507/507 161/161/161
f 163/163/163 508/508/508 164/164/164
f 166/166/166 509/509/509 167/167/167
f 169/169/169 510/510/510 170/170/170
f 172/172/172 511/511/511 173/173/173
f 175/175/175 512/512/512 176/176/176
f 178/178/178 513/513/513 179/179/179
f 181/181/181 214/214/214 182/182/182
f 184/184/184 191/191/191 185/185/185
f 187/187/187 514/514/514 188/188/188
f 190/190/190 194/194/194 191/191/191
f 186/186/186 185/185/185 192/192/192
f 190/190/190 193/193/193 192/192/192
f 195/195/195 515/515/515 196/196/196
f 198/198/198 516/516/516 199/199/199
f 201/201/201 517/517/517 202/202/202
f 204/204/204 518/518/518 205/205/205
f 207/207/207 519/519/519 208/208/208
f 210/210/210 213/213/213 211/211/211
f 181/181/181 183/183/183 213/213/213
f 212/212/212 211/211/211 182/182/182
f 215/215/215 520/520/520 216/216/216
f 218/218/218 521/521/521 219/219/219
f 221/221/221 522/522/522 222/222/222
f 224/224/224 523/523/523 225/225/225
f 227/227/227 524/524/524 228/228/228
f 230/230/230 525/525/525 231/231/231
f 233/233/233 526/526/526 234/234/234
f 236/236/236 527/527/527 237/237/237
f 239/239/239 528/528/528 240/240/240
f 184/184/184 529/529/529 242/242/242
f 243/243/243 530/530/530 244/244/244
f 246/246/246 531/531/531 247/247/247
f 249/249/249 532/532/532 250/250/250
f 252/252/252 533/533/533 253/253/253
f 255/255/255 534/534/534 256/256/256
f 257/257/257 256/256/256 258/258/258
f 260/260/260 535/535/535 261/261/261
f 263/263/263 536/536/536 264/264/264
f 266/266/266 537/537/537 267/267/267
f 269/269/269 538/538/538 270/270/270
f 272/272/272 539/539/539 273/273/273
f 275/275/275 540/540/540 276/276/276
f 278/278/278 541/541/541 279/279/279
f 281/281/281 542/542/542 282/282/282
f 284/284/284 287/287/287 285/285/285
f 287/287/287 543/543/543 288/288/288
f 289/289/289 544/544/544 290/290/290
f 292/292/292 545/545/545 293/293/293
f 295/295/295 546/546/546 296/296/296
f 298/298/298 547/547/547 299/299/299
f 301/301/301 548/548/548 302/302/302
f 304/304/304 549/549/549 305/305/305
f 307/307/307 550/550/550 308/308/308
f 310/310/310 551/551/551 311/311/311
f 313/313/313 552/552/552 314/314/314
f 316/316/316 553/553/553 317/317/317
f 319/319/319 554/554/554 320/320/320
f 322/322/322 555/555/555 323/323/323
f 325/325/325 556/556/556 326/326/326
f 328/328/328 557/557/557 329/329/329
f 331/331/331 558/558/558 332/332/332
f 334/334/334 559/559/559 335/335/335
f 337/337/337 560/560/560 338/338/338
f 340/340/340 561/561/561 341/341/341
f 343/343/343 562/562/562 344/344/344
f 346/346/346 563/563/563 347/347/347
f 349/349/349 564/564/564 350/350/350
f 352/352/352 565/565/565 353/353/353
f 355/355/355 566/566/566 356/356/356
f 358/358/358 567/567/567 359/359/359
f 361/361/361 568/568/568 362/362/362
f 364/364/364 569/569/569 365/365/365
f 367/367/367 570/570/570 368/368/368
f 370/370/370 571/571/571 371/371/371
f 373/373/373 572/572/572 374/374/374
f 376/376/376 573/573/573 377/377/377
f 379/379/379 574/574/574 380/380/380
f 382/382/382 575/575/575 383/383/383
f 385/385/385 576/576/576 386/386/386
f 388/388/388 577/577/577 389/389/389
f 391/391/391 394/394/394 392/392/392
f 394/394/394 578/578/578 395/395/395
f 396/396/396 579/579/579 397/397/397
f 399/399/399 580/580/580 400/400/400
f 402/402/402 581/581/581 403/403/403
f 582/582/582 583/583/583 584/584/584
f 585/585/585 586/586/586 587/587/587
f 586/586/586 588/588/588 589/589/589
f 582/582/582 584/584/584 585/585/585
f 589/589/589 587/587/587 586/586/586
f 587/587/587 582/582/582 585/585/585
f 407/407/407 590/590/590 591/591/591
f 590/590/590 589/589/589 588/588/588
f 592/592/592 593/593/593 406/406/406
f 593/593/593 407/407/407 406/406/406
f 594/594/594 595/595/595 596/596/596
f 595/595/595 592/592/592 596/596/596
f 596/596/596 597/597/597 594/594/594
f 406/406/406 598/598/598 592/592/592
f 598/598/598 596/596/596 592/592/592
f 588/588/588 591/591/591 590/590/590
f 591/591/591 405/405/405 407/407/407
f 408/408/408 599/599/599 409/409/409
f 411/411/411 600/600/600 412/412/412
f 414/414/414 601/601/601 415/415/415
f 417/417/417 602/602/602 418/418/418
f 420/420/420 603/603/603 421/421/421
f 423/423/423 604/604/604 424/424/424
f 426/426/426 605/605/605 427/427/427
f 429/429/429 606/606/606 430/430/430
f 432/432/432 607/607/607 433/433/433
f 435/435/435 608/608/608 436/436/436
f 438/438/438 609/609/609 439/439/439
f 441/441/441 610/610/610 442/442/442
f 444/444/444 611/611/611 445/445/445
f 447/447/447 612/612/612 448/448/448
f 450/450/450 613/613/613 451/451/451
f 453/453/453 614/614/614 454/454/454
