# Blender 5.1.1
# www.blender.org
mtllib Corsair.mtl
o Corsair
v -0.048154 1.138590 -0.301079
v -0.048225 1.028176 -0.314681
v 0.062171 1.138586 -0.301084
v 0.062100 1.028168 -0.314679
v 0.307679 0.996421 -0.370178
v 0.345492 0.984927 -0.284404
v 0.157236 0.996425 -0.370167
v 0.119827 0.984937 -0.284398
v -0.105837 0.984955 -0.284406
v -0.331501 0.984969 -0.284407
v -0.143649 0.996443 -0.370165
v -0.294092 0.996457 -0.370175
v -0.032818 1.122750 -0.177398
v 0.047418 1.122744 -0.177396
v -0.032621 1.294758 -0.120222
v 0.047616 1.294753 -0.120221
v -0.032885 1.014512 -0.189765
v 0.047351 1.014507 -0.189764
v 0.325385 0.884157 -0.289648
v 0.159894 0.881985 -0.290875
v -0.311490 0.884193 -0.289642
v -0.146006 0.882005 -0.290878
v 0.345276 0.911824 -0.363365
v 0.370380 0.746984 -0.327069
v -0.331716 0.911860 -0.363353
v -0.356760 0.747027 -0.327066
v 0.062960 1.097592 0.033283
v 0.062892 0.989355 0.020916
v -0.047432 0.989360 0.020921
v -0.047365 1.097597 0.033288
v 0.047972 1.240043 0.036211
v 0.047808 1.103493 -0.012399
v -0.032264 1.240048 0.036210
v -0.032428 1.103499 -0.012400
v 0.094568 0.747002 -0.327071
v 0.119612 0.911834 -0.363358
v 0.074918 0.751080 -0.157493
v -0.080948 0.747009 -0.327064
v -0.060481 0.751085 -0.157485
v -0.106052 0.911845 -0.363352
v 0.120478 1.033196 -0.020542
v 0.346142 1.033182 -0.020542
v -0.330851 1.033224 -0.020544
v -0.105186 1.033207 -0.020536
v -0.356076 0.883929 -0.061967
v 0.047417 0.846567 -0.137939
v -0.032819 0.846570 -0.137933
v 0.047737 0.993081 -0.025999
v -0.032499 0.993083 -0.025994
v 0.095253 0.883894 -0.061951
v -0.080264 0.883908 -0.061958
v 0.173020 0.801476 -0.033715
v -0.157954 0.801499 -0.033721
v 0.371064 0.883883 -0.061964
v 0.047724 0.851875 -0.010908
v -0.032512 0.851881 -0.010909
v 0.007790 1.080798 0.032415
v 0.007743 1.004904 0.023981
v 0.045377 1.042852 0.028194
v -0.029845 1.042859 0.028189
v 0.007089 0.699751 -0.203897
v -0.017964 0.663054 -0.190101
v 0.032183 0.663050 -0.190100
v 0.007265 0.729626 -0.135048
v 0.027375 0.706919 -0.110423
v -0.012743 0.706925 -0.110430
v -0.112935 0.673974 -0.062791
v 0.127773 0.673961 -0.062793
v 0.160256 0.612052 -0.100779
v 0.142536 0.602401 -0.169709
v -0.145644 0.612071 -0.100781
v -0.128261 0.602414 -0.169701
v 0.060467 0.798396 0.082772
v 0.060420 0.892318 0.049528
v -0.044843 0.798402 0.082773
v -0.044890 0.892327 0.049523
v -0.090030 0.815507 0.057867
v 0.105546 0.815498 0.057861
v 0.095735 0.821733 0.147929
v 0.371547 0.821722 0.147917
v -0.355593 0.821761 0.147928
v -0.079782 0.821747 0.147922
v -0.101924 0.560568 -0.116654
v -0.110465 0.568525 0.000516
v -0.153565 0.386365 -0.109655
v -0.153653 0.446186 0.015353
v -0.055217 0.369051 -0.100940
v -0.023246 0.546718 -0.109689
v -0.031787 0.554680 0.007475
v -0.055305 0.428879 0.024054
v 0.129777 0.561186 -0.117682
v 0.181069 0.386928 -0.110537
v 0.138853 0.569157 -0.000544
v 0.181840 0.446783 0.014405
v 0.051107 0.547354 -0.110909
v 0.082732 0.369641 -0.102078
v 0.060183 0.555325 0.006228
v 0.083502 0.429492 0.022869
v -0.165548 0.682209 0.013787
v -0.165430 0.777490 0.025481
v -0.283395 0.682214 0.013790
v -0.278262 0.777490 0.025494
v -0.277983 0.778121 0.150562
v -0.283049 0.682987 0.168892
v -0.165151 0.778117 0.150556
v -0.165202 0.682984 0.168882
v -0.178001 0.682392 0.051319
v -0.258238 0.682397 0.051317
v 0.185615 0.789999 0.025373
v 0.185485 0.682184 0.013794
v 0.298447 0.789988 0.025380
v 0.303332 0.682178 0.013791
v 0.298726 0.790622 0.150441
v 0.303678 0.682957 0.168878
v 0.185894 0.790626 0.150447
v 0.185831 0.682963 0.168881
v 0.198106 0.682374 0.051309
v 0.278342 0.682368 0.051310
v -0.145306 0.534031 0.051077
v -0.020297 0.598999 -0.108188
v -0.019960 0.520957 0.043669
v -0.112666 0.604322 0.059219
v 0.007462 0.452212 -0.012632
v 0.035203 0.520958 0.043660
v 0.007132 0.591208 -0.170282
v 0.034865 0.598997 -0.108190
v 0.160594 0.534017 0.051065
v 0.128042 0.604312 0.059209
v 0.173438 0.734023 0.150088
v -0.157536 0.734043 0.150089
v 0.028215 0.910391 0.209739
v -0.011903 0.910394 0.209739
v 0.060744 0.871191 0.187519
v -0.044566 0.871204 0.187507
v -0.044732 0.766376 0.133826
v 0.060578 0.766374 0.133818
v 0.008903 0.946215 0.515576
v -0.028684 0.984165 0.519790
v 0.008953 1.024286 0.525244
v 0.046537 0.984158 0.519795
v -0.214173 0.018664 -0.187144
v -0.108449 0.000059 -0.177795
v -0.203558 0.082877 -0.179230
v -0.097834 0.064272 -0.169880
v -0.088840 0.185605 0.005605
v -0.078278 0.288092 0.003153
v -0.089085 0.103364 -0.161910
v -0.176626 0.305399 -0.005548
v -0.224314 0.212795 -0.086737
v -0.197268 0.122403 -0.171481
v -0.165259 0.392003 0.039895
v -0.066911 0.374693 0.048602
v 0.124385 0.064772 -0.170851
v 0.134826 0.000538 -0.178723
v 0.230098 0.083351 -0.179937
v 0.240538 0.019125 -0.187822
v 0.116430 0.186154 0.004532
v 0.115756 0.103880 -0.162911
v 0.106078 0.288666 0.002047
v 0.204416 0.305953 -0.006412
v 0.251540 0.213305 -0.087440
v 0.223927 0.122893 -0.172213
v 0.193438 0.392585 0.038975
v 0.095100 0.375295 0.047441
v -0.177823 0.682793 0.131366
v -0.258059 0.682799 0.131365
v -0.260893 0.532044 0.050095
v -0.260697 0.532484 0.137646
v -0.170627 0.532034 0.050104
v -0.170432 0.532477 0.137648
v -0.190705 0.594507 0.014542
v -0.233331 0.594509 0.014543
v -0.168283 0.371643 0.046468
v -0.268578 0.371650 0.046466
v 0.198284 0.682775 0.131356
v 0.278520 0.682770 0.131357
v 0.280814 0.509761 0.110320
v 0.190548 0.509764 0.110325
v 0.007987 0.649434 0.177099
v 0.060819 0.744925 0.237031
v 0.060864 0.795941 0.248648
v -0.044491 0.744937 0.237019
v -0.044445 0.795943 0.248656
v -0.197023 0.204646 -0.003965
v -0.106178 0.079399 -0.010074
v -0.214361 0.098437 -0.019646
v -0.206146 0.068200 0.061649
v 0.224601 0.205169 -0.004769
v 0.133468 0.079917 -0.011091
v 0.241640 0.098935 -0.020400
v 0.233721 0.068697 0.060855
v -0.168076 0.372110 0.139019
v -0.268371 0.372117 0.139017
v -0.243494 0.364171 0.054032
v -0.243355 0.364488 0.116562
v -0.185825 0.364166 0.054035
v -0.185685 0.364483 0.116565
v -0.243682 0.166217 0.055723
v -0.188519 0.166215 0.055720
v 0.281015 0.575221 0.172308
v 0.190750 0.575231 0.172299
v 0.188183 0.395069 0.223875
v 0.288479 0.395062 0.223877
v 0.210476 0.529474 0.042609
v 0.253101 0.529468 0.042615
v -0.216901 0.016463 0.081222
v -0.137302 0.056087 0.067737
v -0.148057 0.004347 0.087318
v -0.165502 0.089214 0.047434
v -0.158347 0.133677 0.055217
v 0.244451 0.016950 0.080447
v 0.164885 0.056595 0.066777
v 0.175614 0.004846 0.086377
v 0.193063 0.089722 0.046548
v 0.186039 0.134197 0.054308
v -0.187870 0.605242 0.157044
v -0.243032 0.605247 0.157040
v -0.188102 0.359684 0.159133
v -0.243265 0.359683 0.159143
v -0.187714 0.605595 0.227086
v -0.188133 0.162082 0.230873
v -0.242876 0.605601 0.227081
v -0.243295 0.162084 0.230876
v 0.188392 0.463051 0.288330
v 0.288687 0.463044 0.288332
v 0.195789 0.347750 0.281812
v 0.281040 0.347746 0.281810
v 0.281185 0.395577 0.326440
v 0.195934 0.395588 0.326428
vn -0.5783 0.6444 -0.5003
vn 0.5773 0.6445 -0.5015
vn 0.5775 -0.5063 -0.6404
vn -0.5795 -0.5058 -0.6390
vn -0.0000 0.9911 0.1328
vn 0.0001 0.9912 0.1323
vn -0.0004 0.9912 0.1326
vn 0.0001 0.9911 0.1332
vn -0.0004 0.9911 0.1329
vn -0.2425 0.9555 -0.1680
vn -0.5769 0.7333 -0.3598
vn 0.5762 0.7333 -0.3609
vn 0.2427 0.9551 -0.1697
vn 0.2109 -0.9080 -0.3621
vn -0.2110 -0.9084 -0.3609
vn 0.0028 0.0577 -0.9983
vn 0.1142 -0.5977 -0.7935
vn 0.0102 -0.4901 -0.8716
vn -0.0028 0.0576 -0.9983
vn -0.0103 -0.4910 -0.8711
vn -0.1143 -0.5974 -0.7938
vn 0.9853 0.1241 -0.1176
vn 0.7944 0.5904 -0.1427
vn 0.9884 0.1341 -0.0709
vn -0.9857 0.1249 -0.1130
vn -0.9887 0.1348 -0.0662
vn -0.7953 0.5901 -0.1387
vn 0.5805 0.5097 0.6349
vn 0.5787 -0.6384 0.5076
vn -0.5776 -0.6383 0.5088
vn -0.5787 0.5101 0.6363
vn 0.5781 0.3522 0.7360
vn 0.3529 0.8383 0.4155
vn -0.5760 0.3526 0.7375
vn -0.3529 0.8378 0.4166
vn -0.9852 0.1250 -0.1175
vn -0.9857 0.1239 -0.1146
vn -0.9854 0.1262 -0.1145
vn -0.9851 0.1267 -0.1160
vn 0.9846 0.1262 -0.1207
vn 0.9849 0.1253 -0.1196
vn 0.9845 0.1259 -0.1218
vn 0.9846 0.1242 -0.1227
vn -0.5694 0.8089 -0.1469
vn -0.5485 0.7888 0.2775
vn 0.5560 0.7850 0.2734
vn -0.5550 0.7851 0.2749
vn 0.5494 0.7886 0.2760
vn 0.5681 0.8092 -0.1498
vn -0.8934 -0.4476 -0.0399
vn 0.5914 -0.6584 -0.4656
vn -0.5929 -0.6581 -0.4641
vn 0.3713 -0.9035 0.2139
vn -0.3716 -0.9029 0.2160
vn -0.8384 0.5409 0.0680
vn 0.2287 -0.2521 -0.9403
vn 0.8394 0.5399 0.0630
vn -0.2301 -0.2525 -0.9398
vn 0.9728 -0.0319 0.2296
vn 0.7901 -0.4026 -0.4623
vn -0.9720 -0.0317 0.2330
vn -0.7916 -0.4028 -0.4594
vn 0.8929 -0.4481 -0.0443
vn 0.5747 -0.5345 0.6197
vn -0.5733 -0.5346 0.6209
vn -0.0003 0.3425 0.9395
vn -0.0006 -0.5600 0.8285
vn 0.4648 -0.1021 0.8795
vn -0.4630 -0.1018 0.8805
vn -0.0013 0.5620 -0.8271
vn 0.6764 0.2002 -0.7088
vn -0.6774 0.2006 -0.7077
vn 0.0001 -0.4069 -0.9135
vn 0.2428 -0.6822 -0.6897
vn -0.2437 -0.6822 -0.6893
vn -0.8794 0.1260 -0.4591
vn 0.8780 0.1253 -0.4620
vn 0.9483 0.1060 -0.2992
vn 0.2366 0.8222 -0.5177
vn -0.9494 0.1079 -0.2951
vn -0.2373 0.8227 -0.5166
vn 0.6086 0.7446 0.2742
vn -0.6076 0.7444 0.2769
vn -0.5748 0.4448 -0.6868
vn 0.5732 0.4449 -0.6881
vn -0.2850 0.8381 0.4652
vn 0.2856 0.8385 0.4641
vn -0.5650 -0.4566 0.6872
vn 0.5668 -0.4561 0.6861
vn -0.5651 -0.4566 0.6872
vn -0.5857 0.1540 -0.7958
vn -0.6380 0.2555 -0.7265
vn -0.7510 0.3689 0.5476
vn -0.7047 0.3082 0.6391
vn 0.7909 -0.0672 -0.6083
vn 0.7482 -0.1662 -0.6423
vn 0.6679 -0.0269 0.7437
vn 0.7046 0.0610 0.7070
vn 0.5856 0.1520 -0.7962
vn 0.7062 0.3078 0.6376
vn 0.7519 0.3684 0.5467
vn 0.6380 0.2531 -0.7273
vn -0.7485 -0.1651 -0.6423
vn -0.7917 -0.0655 -0.6074
vn -0.7039 0.0622 0.7076
vn -0.6672 -0.0252 0.7444
vn 0.5699 -0.5459 -0.6142
vn -0.5875 -0.5323 -0.6094
vn -0.5671 0.6213 -0.5407
vn 0.5840 0.6062 -0.5399
vn -0.5828 -0.5102 0.6325
vn -0.5689 0.6406 0.5157
vn 0.5887 0.6248 0.5129
vn 0.5689 -0.5225 0.6350
vn 0.3080 -0.8990 -0.3114
vn -0.3060 -0.9030 -0.3017
vn -0.5838 0.6030 -0.5437
vn 0.5678 0.6155 -0.5467
vn 0.5845 -0.5388 -0.6067
vn -0.5728 -0.5494 -0.6084
vn 0.5718 0.6334 0.5214
vn 0.5832 -0.5177 0.6260
vn -0.5855 0.6208 0.5213
vn -0.5687 -0.5284 0.6304
vn 0.2243 -0.9370 -0.2677
vn -0.2248 -0.9347 -0.2754
vn -0.6971 -0.6206 -0.3590
vn -0.3125 -0.6941 0.6485
vn -0.6853 -0.5915 0.4249
vn -0.7252 -0.2910 0.6240
vn -0.0006 -0.9871 -0.1600
vn -0.0017 -0.8188 -0.5741
vn 0.6964 -0.6198 -0.3617
vn 0.3126 -0.6953 0.6471
vn 0.6861 -0.5912 0.4239
vn 0.7268 -0.2922 0.6216
vn 0.7373 0.1410 0.6607
vn -0.7356 0.1413 0.6625
vn -0.3230 0.5394 0.7776
vn 0.3246 0.5393 0.7770
vn 0.8152 0.3470 0.4637
vn -0.8139 0.3470 0.4660
vn -0.6486 0.2629 0.7143
vn 0.6501 0.2628 0.7130
vn 0.0006 -0.8795 0.4759
vn -0.8143 -0.0755 0.5755
vn 0.0012 0.7472 0.6646
vn 0.8155 -0.0759 0.5738
vn -0.6288 -0.4293 -0.6483
vn -0.6386 0.1431 -0.7561
vn 0.7652 -0.0537 -0.6416
vn 0.5415 -0.6367 -0.5489
vn 0.7405 0.0095 0.6720
vn 0.7797 -0.0031 -0.6262
vn 0.6719 -0.2475 0.6981
vn -0.7622 0.0682 0.6438
vn -0.9798 0.1654 -0.1120
vn -0.5901 0.1018 -0.8009
vn -0.6793 0.0944 0.7278
vn 0.5396 -0.1200 0.8333
vn -0.7660 -0.0523 -0.6407
vn 0.6381 0.1412 -0.7569
vn 0.6275 -0.4304 -0.6488
vn -0.5432 -0.6359 -0.5483
vn -0.7397 0.0109 0.6728
vn -0.6717 -0.2448 0.6992
vn -0.7804 -0.0014 -0.6252
vn 0.7631 0.0665 0.6428
vn 0.9799 0.1632 -0.1152
vn 0.5894 0.1003 -0.8016
vn 0.6802 0.0937 0.7270
vn -0.5388 -0.1188 0.8340
vn -0.3123 -0.8967 0.3136
vn 0.3142 -0.8936 0.3205
vn -0.8717 0.0413 -0.4882
vn -0.6985 0.0407 0.7144
vn 0.8945 0.0284 -0.4462
vn 0.7074 0.0399 0.7056
vn 0.1911 -0.1203 -0.9742
vn 0.6498 -0.4982 -0.5740
vn -0.6510 -0.5135 -0.5590
vn -0.1755 -0.1124 -0.9781
vn -0.4078 -0.8548 0.3209
vn 0.4029 -0.8604 0.3120
vn 0.8436 -0.2520 -0.4743
vn -0.8764 -0.2273 -0.4247
vn 0.0003 -0.4464 0.8948
vn 0.5787 -0.6864 0.4403
vn 0.6216 0.1780 0.7629
vn -0.5780 -0.6864 0.4414
vn -0.6195 0.1782 0.7645
vn -0.6764 0.2177 0.7036
vn 0.9104 -0.2121 0.3552
vn -0.5297 0.6650 0.5265
vn -0.9596 0.1736 0.2214
vn 0.6771 0.2170 0.7032
vn -0.9097 -0.2108 0.3579
vn 0.9605 0.1727 0.2184
vn 0.5311 0.6646 0.5256
vn -0.6198 -0.4977 0.6067
vn 0.6122 -0.4957 0.6160
vn -0.3801 -0.6764 -0.6309
vn -0.7715 -0.6035 0.2016
vn 0.4236 -0.6664 -0.6136
vn 0.7993 -0.5738 0.1786
vn -0.5801 -0.5718 -0.5802
vn 0.5748 -0.5733 -0.5840
vn -0.7621 0.3811 0.5234
vn 0.7585 0.3799 0.5294
vn -0.7238 -0.5604 -0.4026
vn -0.1809 -0.7792 -0.6000
vn 0.1652 -0.7765 -0.6080
vn 0.7263 -0.5497 -0.4126
vn -0.6675 -0.3753 0.6431
vn 0.6295 0.4497 0.6337
vn 0.3873 -0.5592 0.7331
vn -0.0675 0.1043 0.9923
vn -0.1090 -0.1356 0.9847
vn 0.6678 -0.3753 0.6428
vn -0.3869 -0.5594 0.7331
vn -0.6282 0.4504 0.6344
vn 0.1090 -0.1354 0.9848
vn 0.0690 0.1046 0.9921
vn 0.7057 -0.0067 -0.7085
vn 0.9156 0.3036 -0.2635
vn -0.9185 0.2953 -0.2628
vn -0.7069 -0.0054 -0.7073
vn 0.7089 0.0054 0.7053
vn 0.5768 -0.5788 0.5765
vn -0.5753 -0.5824 0.5744
vn -0.7069 0.0067 0.7073
vn -0.6858 0.4274 0.5891
vn 0.6920 0.4328 0.5777
vn -0.5479 -0.8335 0.0717
vn 0.5472 -0.8340 0.0707
vn 0.5603 -0.1145 0.8203
vn -0.5586 -0.1139 0.8216
vt 0.310500 0.810500
vt 0.189500 0.810500
vt 0.189500 0.752000
vt 0.310500 0.752000
vt 0.271500 0.880900
vt 0.349600 0.880900
vt 0.369100 0.927700
vt 0.252000 0.927700
vt 0.248000 0.005900
vt 0.248000 0.060500
vt 0.189500 0.060500
vt 0.189500 0.005900
vt 0.127000 0.005900
vt 0.185500 0.005900
vt 0.181600 0.048800
vt 0.130900 0.048800
vt 0.115200 0.888700
vt 0.111300 0.994100
vt 0.017600 0.994100
vt 0.009800 0.888700
vt 0.013700 0.994100
vt 0.103500 0.755900
vt 0.119100 0.759800
vt 0.002000 0.755900
vt 0.185500 0.123000
vt 0.127000 0.123000
vt 0.127000 0.002000
vt 0.185500 0.002000
vt 0.002000 0.123000
vt 0.002000 0.072300
vt 0.056600 0.064500
vt 0.060500 0.123000
vt 0.002000 0.076200
vt 0.177700 0.107400
vt 0.244100 0.880900
vt 0.244100 0.935500
vt 0.127000 0.935500
vt 0.127000 0.880900
vt 0.130900 0.107400
vt 0.478500 0.752000
vt 0.400400 0.752000
vt 0.377000 0.783200
vt 0.494100 0.810500
vt 0.388700 0.752000
vt 0.377000 0.810500
vt 0.494100 0.783200
vt 0.466800 0.752000
vt 0.369100 0.998000
vt 0.252000 0.998000
vt 0.002000 0.865200
vt 0.119100 0.873000
vt 0.377000 0.759800
vt 0.392600 0.810500
vt 0.494100 0.752000
vt 0.377000 0.767600
vt 0.490200 0.752000
vt 0.377000 0.755900
vt 0.490200 0.810500
vt 0.377000 0.752000
vt 0.373000 0.752000
vt 0.373000 0.810500
vt 0.462900 0.810500
vt 0.115200 0.873000
vt 0.002000 0.845700
vt 0.056600 0.123000
vt 0.142600 0.888700
vt 0.228500 0.888700
vt 0.138700 0.888700
vt 0.185500 0.927700
vt 0.185500 0.888700
vt 0.228500 0.908200
vt 0.142600 0.908200
vt 0.248000 0.810500
vt 0.189500 0.767600
vt 0.306600 0.767600
vt 0.236300 0.935500
vt 0.134800 0.927700
vt 0.123000 0.880900
vt 0.494100 0.373000
vt 0.377000 0.373000
vt 0.388700 0.314500
vt 0.478500 0.314500
vt 0.431600 0.755900
vt 0.377000 0.787100
vt 0.392600 0.752000
vt 0.427700 0.763700
vt 0.459000 0.755900
vt 0.408200 0.752000
vt 0.427700 0.810500
vt 0.431600 0.810500
vt 0.459000 0.752000
vt 0.435500 0.810500
vt 0.494100 0.755900
vt 0.123000 0.443400
vt 0.244100 0.443400
vt 0.244100 0.498000
vt 0.123000 0.498000
vt 0.119100 0.283200
vt 0.037100 0.322300
vt 0.025400 0.255900
vt 0.021500 0.255900
vt 0.459000 0.810500
vt 0.447300 0.755900
vt 0.423800 0.755900
vt 0.002000 0.880900
vt 0.115200 0.880900
vt 0.115200 0.998000
vt 0.013700 0.998000
vt 0.181600 0.755900
vt 0.181600 0.873000
vt 0.123000 0.873000
vt 0.123000 0.755900
vt 0.373000 0.748000
vt 0.494100 0.748000
vt 0.373000 0.755900
vt 0.384800 0.623000
vt 0.377000 0.505900
vt 0.494100 0.533200
vt 0.490200 0.623000
vt 0.435500 0.127000
vt 0.498000 0.127000
vt 0.490200 0.248000
vt 0.435500 0.248000
vt 0.486300 0.623000
vt 0.373000 0.502000
vt 0.373000 0.623000
vt 0.482400 0.623000
vt 0.494100 0.541000
vt 0.373000 0.509800
vt 0.494100 0.248000
vt 0.443400 0.248000
vt 0.494100 0.127000
vt 0.252000 0.502000
vt 0.310500 0.502000
vt 0.310500 0.623000
vt 0.252000 0.623000
vt 0.314500 0.623000
vt 0.314500 0.494100
vt 0.373000 0.494100
vt 0.123000 0.935500
vt 0.138700 0.935500
vt 0.134800 0.880900
vt 0.220700 0.880900
vt 0.248000 0.935500
vt 0.302700 0.623000
vt 0.306600 0.505900
vt 0.252000 0.505900
vt 0.314500 0.502000
vt 0.244100 0.877000
vt 0.123000 0.877000
vt 0.228500 0.935500
vt 0.130900 0.935500
vt 0.146500 0.880900
vt 0.232400 0.880900
vt 0.470700 0.752000
vt 0.396500 0.787100
vt 0.400400 0.791000
vt 0.494100 0.806600
vt 0.127000 0.939500
vt 0.216800 0.939500
vt 0.248000 0.998000
vt 0.119100 0.998000
vt 0.130900 0.939500
vt 0.127000 0.998000
vt 0.240200 0.998000
vt 0.119100 0.377000
vt 0.111300 0.377000
vt 0.248000 0.404300
vt 0.248000 0.435500
vt 0.154300 0.435500
vt 0.154300 0.404300
vt 0.154300 0.380900
vt 0.244100 0.404300
vt 0.193400 0.568400
vt 0.177700 0.712900
vt 0.248000 0.654300
vt 0.224600 0.576200
vt 0.185500 0.568400
vt 0.236300 0.576200
vt 0.177700 0.716800
vt 0.005900 0.365200
vt 0.002000 0.337900
vt 0.400400 0.755900
vt 0.466800 0.755900
vt 0.119100 0.123000
vt 0.091800 0.123000
vt 0.084000 0.002000
vt 0.115200 0.002000
vt 0.091800 0.002000
vt 0.064500 0.123000
vt 0.064500 0.002000
vt 0.111300 0.002000
vt 0.087900 0.123000
vt 0.115200 0.123000
vt 0.111300 0.123000
vt 0.384800 0.248000
vt 0.377000 0.127000
vt 0.306600 0.818400
vt 0.306600 0.873000
vt 0.263700 0.873000
vt 0.263700 0.818400
vt 0.494100 0.548800
vt 0.377000 0.517600
vt 0.419900 0.623000
vt 0.494100 0.591800
vt 0.380900 0.099600
vt 0.302700 0.127000
vt 0.341800 0.002000
vt 0.244100 0.087900
vt 0.185500 0.068400
vt 0.209000 0.935500
vt 0.498000 0.130900
vt 0.435500 0.130900
vt 0.439500 0.002000
vt 0.498000 0.002000
vt 0.240200 0.884800
vt 0.127000 0.884800
vt 0.224600 0.935500
vt 0.244100 0.884800
vt 0.377000 0.248000
vt 0.377000 0.130900
vt 0.259800 0.873000
vt 0.310500 0.873000
vt 0.259800 0.810500
vt 0.490200 0.564500
vt 0.470700 0.603500
vt 0.377000 0.525400
vt 0.306600 0.095700
vt 0.388700 0.123000
vt 0.189500 0.068400
vt 0.189500 0.123000
vt 0.236300 0.880900
vt 0.248000 0.255900
vt 0.310500 0.255900
vt 0.306600 0.373000
vt 0.252000 0.373000
vt 0.369100 0.373000
vt 0.310500 0.373000
vt 0.306600 0.255900
vt 0.369100 0.255900
vt 0.310500 0.498000
vt 0.252000 0.498000
vt 0.216800 0.884800
vt 0.150400 0.884800
vt 0.216800 0.888700
vt 0.150400 0.888700
vt 0.142600 0.248000
vt 0.127000 0.127000
vt 0.185500 0.127000
vt 0.173800 0.248000
vt 0.177700 0.212900
vt 0.123000 0.212900
vt 0.216800 0.880900
vt 0.150400 0.880900
vt 0.486300 0.810500
vt 0.423800 0.752000
vt 0.373000 0.435500
vt 0.283200 0.380900
vt 0.459000 0.380900
vt 0.490200 0.470700
vt 0.252000 0.470700
vt 0.146500 0.439500
vt 0.134800 0.439500
vt 0.123000 0.380900
vt 0.130900 0.603500
vt 0.130900 0.677700
vt 0.130900 0.599600
vt 0.130900 0.673800
vt 0.002000 0.509800
vt 0.123000 0.509800
vt 0.123000 0.619100
vt 0.002000 0.619100
vt 0.252000 0.748000
vt 0.252000 0.627000
vt 0.369100 0.627000
vt 0.369100 0.748000
vt 0.455100 0.755900
vt 0.416000 0.755900
vt 0.369100 0.689500
vt 0.252000 0.689500
vt 0.294900 0.630900
vt 0.326200 0.630900
vt 0.252000 0.123000
vt 0.252000 0.068400
vt 0.314500 0.068400
vt 0.310500 0.123000
vt 0.482400 0.505900
vt 0.185500 0.095700
vt 0.244100 0.095700
vt 0.494100 0.951200
vt 0.377000 0.951200
vt 0.377000 0.880900
vt 0.494100 0.880900
vt 0.205100 0.919900
vt 0.123000 0.884800
vt 0.244100 0.888700
vt 0.205100 0.916000
vt 0.494100 0.998000
vt 0.377000 0.998000
vt 0.377000 0.947300
vt 0.494100 0.947300
vt 0.404300 0.134800
vt 0.447300 0.076200
vt 0.373000 0.076200
vt 0.248000 0.068400
vt 0.310500 0.068400
vt 0.494100 0.525400
vt 0.189500 0.095700
vt 0.494100 0.877000
vt 0.377000 0.877000
vt 0.127000 0.877000
vt 0.205100 0.912100
vt 0.201200 0.916000
vt 0.193400 0.068400
vt 0.404300 0.138700
vt 0.369100 0.076200
vt 0.443400 0.076200
vt 0.365200 0.373000
vt 0.119100 0.248000
vt 0.064500 0.248000
vt 0.060500 0.142600
vt 0.119100 0.142600
vt 0.002000 0.252000
vt 0.002000 0.142600
vt 0.056600 0.142600
vt 0.056600 0.252000
vt 0.384800 0.513700
vt 0.466800 0.513700
vt 0.494100 0.627000
vt 0.377000 0.627000
vt 0.396500 0.533200
vt 0.462900 0.517600
vt 0.494100 0.595700
vt 0.400400 0.513700
vt 0.482400 0.513700
vt 0.240200 0.935500
vt 0.240200 0.880900
vt 0.248000 0.373000
vt 0.369100 0.369100
vt 0.369100 0.283200
vt 0.181600 0.130900
vt 0.169900 0.248000
vt 0.123000 0.130900
vt 0.127000 0.556600
vt 0.244100 0.556600
vt 0.244100 0.509800
vt 0.127000 0.509800
vt 0.279300 0.873000
vt 0.283200 0.818400
vt 0.189500 0.818400
vt 0.193400 0.865200
vt 0.259800 0.502000
vt 0.306600 0.623000
vt 0.298800 0.502000
vt 0.435500 0.099600
vt 0.377000 0.044900
vt 0.380900 0.002000
vt 0.408200 0.048800
vt 0.435500 0.123000
vt 0.377000 0.123000
vt 0.377000 0.002000
vt 0.431600 0.095700
vt 0.259800 0.009800
vt 0.298800 0.009800
vt 0.310500 0.060500
vt 0.252000 0.060500
vt 0.279300 0.877000
vt 0.283200 0.810500
vt 0.283200 0.877000
vt 0.306600 0.619100
vt 0.252000 0.619100
vt 0.259800 0.505900
vt 0.298800 0.505900
vt 0.439500 0.005900
vt 0.377000 0.005900
vt 0.435500 0.095700
vt 0.404300 0.041000
vt 0.431600 0.119100
vt 0.373000 0.119100
vt 0.435500 0.002000
vt 0.435500 0.091800
vt 0.377000 0.041000
vt 0.306600 0.060500
vt 0.255900 0.013700
vt 0.298800 0.013700
vt 0.494100 0.873000
vt 0.377000 0.873000
vt 0.427700 0.818400
vt 0.494100 0.818400
vt 0.404300 0.513700
vt 0.474600 0.513700
vt 0.044900 0.017600
vt 0.052700 0.037100
vt 0.005900 0.002000
vt 0.060500 0.013700
vt 0.002000 0.002000
vt 0.002000 0.060500
vt 0.060500 0.041000
vt 0.068400 0.142600
vt 0.115200 0.248000
vt 0.068400 0.248000
vt 0.005900 0.252000
vt 0.005900 0.138700
vt 0.060500 0.138700
vt 0.306600 0.806600
vt 0.193400 0.806600
vt 0.197300 0.755900
vt 0.302700 0.755900
vt 0.248000 0.873000
vt 0.189500 0.873000
vt 0.248000 0.818400
vt 0.189500 0.814500
vt 0.060500 0.060500
vt 0.009800 0.002000
vt 0.009800 0.060500
vt 0.048800 0.056600
vt 0.248000 0.177700
vt 0.248000 0.248000
vt 0.314500 0.248000
vt 0.314500 0.177700
vt 0.248000 0.130900
vt 0.189500 0.248000
vt 0.189500 0.130900
vt 0.314500 0.134800
vt 0.373000 0.248000
vt 0.373000 0.134800
vt 0.244100 0.181600
vt 0.314500 0.181600
vt 0.314500 0.130900
vt 0.244100 0.130900
s 1
usemtl EA135384232CFAE4C699F191B3F7D937
f 1/1/1 3/2/2 4/3/3 2/4/4
f 5/5/5 7/6/5 8/7/5 6/8/5
f 9/8/6 10/7/7 12/6/8 11/5/9
f 13/9/10 15/10/11 16/11/12 14/12/13
f 3/13/2 1/14/1 13/15/10 14/16/13
f 2/13/4 4/14/3 18/15/14 17/16/15
f 6/17/16 19/18/17 20/19/18 8/20/16
f 10/17/19 9/20/19 22/21/20 21/18/21
f 23/22/22 6/23/23 24/24/24
f 25/22/25 26/24/26 10/23/27
f 27/25/28 28/26/29 4/27/3 3/28/2
f 2/28/4 29/25/30 30/26/31 1/27/1
f 31/29/32 32/30/33 14/31/13 16/32/12
f 33/29/34 15/32/11 13/31/10 34/33/35
f 34/34/35 13/15/10 1/14/1 30/25/31
f 15/35/11 33/36/34 31/37/32 16/38/12
f 32/39/33 27/26/28 3/13/2 14/16/13
f 35/40/36 36/41/37 8/42/38 37/43/39
f 38/44/40 39/45/41 9/46/42 40/47/43
f 8/7/44 41/48/45 42/49/46 6/8/23
f 43/48/47 44/49/48 9/8/49 10/7/27
f 10/23/27 26/24/26 45/50/50 43/51/47
f 18/9/14 46/10/51 47/11/52 17/12/15
f 32/9/33 31/10/32 33/11/34 34/12/35
f 48/34/53 18/15/14 4/14/3 28/25/29
f 49/39/54 29/26/30 2/13/4 17/16/15
f 50/52/55 41/53/45 8/54/44
f 50/55/55 8/43/44 37/56/56
f 51/57/57 9/54/49 44/53/48
f 51/55/57 39/56/58 9/43/49
f 20/54/18 19/58/17 52/59/59
f 37/60/56 8/54/60 52/61/59
f 22/62/20 53/57/61 21/54/21
f 39/54/58 53/60/61 9/58/62
f 6/23/23 42/63/46 54/64/63 24/24/24
f 55/29/64 46/32/51 18/31/14 48/30/53
f 56/29/65 49/30/54 17/31/15 47/65/52
f 56/11/65 55/10/64 48/9/53 49/12/54
f 48/66/53 28/38/29 29/35/30 49/67/54
f 55/36/64 56/37/65 47/38/52 46/35/51
f 32/67/33 34/68/35 30/38/31 27/35/28
f 57/69/66 27/36/28 30/37/31
f 58/70/67 28/35/29 59/71/68
f 58/70/67 60/72/69 29/38/30
f 59/71/68 28/35/29 27/36/28
f 60/72/69 30/37/31 29/38/30
f 59/71/68 27/36/28 57/69/66
f 60/72/69 57/69/66 30/37/31
f 61/73/70 63/74/71 62/75/72
f 61/76/70 64/77/73 65/78/74 63/35/71
f 61/76/70 62/35/72 66/78/75 64/77/73
f 51/79/57 50/80/55 37/81/56 39/82/58
f 64/83/73 39/58/58 37/45/56
f 39/84/58 64/85/73 66/86/75 67/58/76
f 37/58/56 68/45/77 65/87/74 64/56/73
f 52/88/59 54/43/63 50/45/55
f 53/88/61 51/45/57 45/43/50
f 54/89/63 52/59/59 19/54/17
f 45/90/50 21/54/21 53/59/61
f 58/70/67 29/38/30 28/35/29
f 69/91/78 70/43/79 68/60/77
f 71/92/80 67/60/76 72/93/81
f 73/94/82 75/95/83 76/96/84 74/97/85
f 51/45/57 77/60/86 78/54/87 50/58/55
f 53/98/61 77/99/86 51/100/57
f 52/98/59 50/101/55 78/99/87
f 67/54/76 53/60/61 39/102/58
f 68/54/77 37/60/56 52/62/59
f 65/103/74 68/43/77 67/45/76 66/104/75
f 79/105/88 80/106/89 42/107/46 41/108/45
f 54/109/63 80/110/89 79/111/88 50/112/55
f 54/54/63 42/43/46 80/60/89
f 43/107/47 81/106/90 82/105/89 44/108/48
f 82/110/89 81/111/90 45/112/50 51/109/57
f 45/54/50 81/60/90 43/43/47
f 50/113/55 79/114/88 41/61/45
f 51/59/57 44/45/48 82/54/89
f 70/115/79 72/93/81 67/58/76 68/45/77
f 83/116/91 85/117/92 86/118/93 84/119/94
f 87/120/95 85/121/92 83/122/91 88/123/96
f 88/116/96 89/124/97 90/118/98 87/125/95
f 91/126/99 93/127/100 94/128/101 92/129/102
f 95/130/103 91/131/99 92/120/102 96/132/104
f 95/126/103 96/129/104 98/128/105 97/124/106
f 99/133/107 101/134/108 102/135/109 100/136/110
f 102/137/109 101/138/108 104/139/111 103/126/112
f 103/36/112 105/35/113 100/78/110 102/140/109
f 100/76/110 105/141/113 106/78/114 99/35/107
f 107/142/115 108/143/116 101/144/108 99/140/107
f 109/136/117 111/145/118 112/146/119 110/147/120
f 111/126/118 113/137/121 114/148/122 112/125/119
f 113/36/121 111/149/118 109/150/117 115/140/123
f 110/150/120 116/149/124 115/151/123 109/152/117
f 110/36/120 112/140/119 118/153/125 117/154/126
f 71/45/80 120/59/127 121/93/128 119/58/129
f 67/59/76 71/45/80 119/43/129 122/155/130
f 123/93/131 125/59/132 126/156/133 124/43/134
f 123/56/131 121/43/128 120/157/127 125/59/132
f 124/54/134 126/59/133 69/45/78 127/43/135
f 68/59/77 128/155/136 127/158/135 69/45/78
f 128/159/136 68/160/77 52/161/59 129/162/137
f 122/163/130 130/164/138 53/165/61 67/160/76
f 78/99/87 129/166/137 52/98/59
f 77/99/86 53/98/61 130/167/138
f 74/168/85 76/169/84 132/170/139 131/171/140
f 133/172/141 74/173/85 131/171/140
f 134/172/142 132/171/139 76/173/84
f 135/174/143 134/175/142 76/176/84 75/177/83
f 136/178/144 73/179/82 74/176/85 133/180/141
f 77/99/86 130/167/138 135/181/143 75/182/83
f 78/99/87 73/182/82 136/181/144 129/166/137
f 78/43/87 77/61/86 75/183/83 73/184/82
f 137/185/145 138/186/146 60/187/69 58/188/67
f 57/189/66 139/186/147 140/190/148 59/191/68
f 57/192/66 60/187/69 138/193/146 139/194/147
f 137/195/145 58/192/67 59/187/68 140/193/148
f 89/123/97 84/196/94 86/197/93 90/120/98
f 141/198/149 143/199/150 144/200/151 142/201/152
f 145/202/153 147/203/154 87/204/95 146/205/155
f 148/206/156 85/207/92 149/208/157
f 149/209/157 85/25/92 150/210/158
f 148/211/156 151/149/159 85/78/92
f 85/212/92 87/213/95 147/214/154 150/215/158
f 150/37/158 147/36/154 144/216/151 143/217/150
f 86/218/93 85/150/92 151/219/159
f 90/218/98 152/219/160 87/150/95
f 97/220/106 98/221/105 94/213/101 93/123/100
f 153/222/161 155/223/162 156/1/163 154/224/164
f 157/225/165 159/226/166 96/126/104 158/227/167
f 160/228/168 161/208/169 92/229/102
f 161/209/169 162/230/170 92/231/102
f 160/211/168 92/217/102 163/35/171
f 92/120/102 162/214/170 158/215/167 96/121/104
f 155/35/162 153/78/161 158/140/167 162/36/170
f 94/218/101 163/219/171 92/38/102
f 98/218/105 96/38/104 164/219/172
f 106/144/114 104/140/111 166/153/173 165/232/174
f 167/233/175 168/234/176 166/235/173 108/236/116
f 108/237/116 107/238/115 169/239/177 167/240/175
f 105/136/113 103/135/112 104/241/111 106/242/114
f 166/243/173 104/144/111 101/140/108 108/244/116
f 107/245/115 99/144/107 106/140/114 165/246/174
f 107/235/115 165/236/174 170/233/178 169/234/177
f 171/247/179 173/248/180 174/249/181 172/250/182
f 167/251/175 172/250/182 174/249/181
f 169/252/177 173/248/180 171/247/179
f 175/142/183 176/253/184 114/36/122 116/140/124
f 118/235/125 177/234/185 178/233/186 117/236/126
f 116/147/124 114/146/122 113/145/121 115/136/123
f 112/36/119 114/140/122 176/254/184 118/253/125
f 116/36/124 110/140/120 117/246/126 175/245/183
f 122/115/130 119/53/129 121/93/128
f 121/255/128 123/256/131 124/61/134
f 179/257/187 122/258/130 128/259/136
f 128/259/136 129/260/137 179/257/187
f 122/258/130 179/257/187 130/261/138
f 131/262/140 132/263/139 134/264/142 133/172/141
f 180/265/188 136/178/144 133/180/141 181/266/189
f 182/267/190 183/268/191 134/175/142 135/174/143
f 135/269/143 136/270/144 180/271/188 182/272/190
f 134/273/142 183/274/191 181/275/189 133/276/141
f 135/277/143 130/43/138 129/45/137 136/278/144
f 179/257/187 129/260/137 130/261/138
f 128/115/136 124/93/134 127/53/135
f 128/279/136 122/280/130 121/281/128 124/282/134
f 148/283/156 184/284/192 145/285/153 146/286/155
f 185/287/193 147/203/154 145/202/153
f 184/288/192 148/25/156 149/289/157
f 152/290/160 151/291/159 148/292/156 146/293/155
f 146/211/155 87/78/95 152/149/160
f 147/37/154 185/294/193 144/295/151
f 150/37/158 143/295/150 187/296/194 186/297/195
f 90/298/98 86/299/93 151/300/159 152/301/160
f 184/288/192 149/289/157 186/230/195
f 149/302/157 150/303/158 186/304/195
f 160/286/168 159/283/166 157/305/165 188/306/196
f 189/307/197 157/225/165 158/227/167
f 188/308/196 161/289/169 160/231/168
f 160/309/168 163/290/171 164/291/172 159/310/166
f 159/211/166 164/35/172 96/217/104
f 158/37/167 153/311/161 189/312/197
f 162/37/170 190/313/198 191/35/199 155/311/162
f 163/290/171 94/298/101 98/299/105 164/291/172
f 188/308/196 190/314/198 161/289/169
f 161/315/169 190/316/198 162/317/170
f 168/239/176 170/240/178 165/318/174 166/235/173
f 170/319/178 168/320/176 193/321/200 192/322/201
f 170/323/178 192/324/201 173/325/180 169/326/177
f 168/326/176 167/323/175 174/324/181 193/325/200
f 194/327/202 195/328/203 193/329/200 174/330/181
f 196/331/204 194/332/202 174/333/181 173/330/180
f 173/329/180 192/330/201 197/334/205 196/335/204
f 198/336/206 194/140/202 196/150/204 199/337/207
f 176/235/184 175/338/183 201/233/208 200/234/209
f 118/238/125 176/339/184 200/340/209 177/234/185
f 117/238/126 178/234/186 201/340/208 175/339/183
f 202/341/210 204/342/211 205/247/212 203/343/213
f 177/252/185 203/343/213 205/247/212
f 178/251/186 204/342/211 202/341/210
f 181/344/189 183/345/191 182/346/190 180/347/188
f 143/348/150 141/349/149 206/350/214 187/351/194
f 144/348/151 207/351/215 208/350/216 142/349/152
f 206/352/214 141/136/149 142/353/152 208/354/216
f 185/214/193 145/355/153 210/356/217 209/357/218
f 210/358/217 145/359/153 184/360/192
f 186/214/195 209/361/218 210/356/217 184/362/192
f 187/363/194 207/364/215 185/365/193 186/366/195
f 185/294/193 207/219/215 144/295/151
f 155/367/162 191/351/199 211/2/219 156/368/163
f 153/369/161 154/368/164 213/2/220 212/351/221
f 154/370/164 156/371/163 211/372/219 213/373/220
f 189/374/197 214/375/222 215/356/223 157/376/165
f 215/377/223 188/378/196 157/379/165
f 190/380/198 188/381/196 215/382/223 214/375/222
f 190/383/198 189/10/197 212/384/221 191/385/199
f 189/312/197 153/311/161 212/35/221
f 216/38/224 218/35/225 219/36/226 217/37/227
f 220/386/228 221/387/229 218/388/225 216/389/224
f 217/389/227 219/388/226 223/387/230 222/386/231
f 195/140/203 219/78/226 218/337/225 197/336/205
f 192/329/201 193/330/200 195/390/203 197/391/205
f 196/392/204 197/393/205 199/394/207
f 194/395/202 198/396/206 223/397/230 195/398/203
f 224/399/232 225/322/233 200/400/209 201/401/208
f 224/325/232 201/326/208 178/402/186 202/324/210
f 225/403/233 203/404/213 177/326/185 200/402/209
f 140/405/148 139/406/147 138/407/146 137/408/145
f 207/409/215 187/410/194 206/350/214 208/411/216
f 211/73/219 191/409/199 212/410/221 213/412/220
f 223/35/230 221/36/229 220/37/228 222/38/231
f 219/413/226 195/398/203 223/397/230
f 223/397/230 198/396/206 199/414/207 221/415/229
f 197/393/205 218/416/225 221/397/229 199/394/207
f 226/417/234 202/418/210 203/419/213 227/420/235
f 227/421/235 203/418/213 225/422/233 228/423/236
f 228/424/236 225/419/233 224/425/232 229/426/237
f 226/421/234 229/423/237 224/422/232 202/418/210
f 226/427/234 227/428/235 228/429/236 229/430/237
