# Blender 5.0.0
# www.blender.org
mtllib Tawna.mtl
o Tawna
v -1.590875 1.339683 -0.167460
v -1.674602 0.921031 -0.251192
v -1.507142 1.339683 -0.083730
v -1.758334 0.921031 -0.251192
v -1.758334 1.423415 -0.418651
v -1.674602 0.921031 -0.418651
v -1.925794 0.167458 -0.586111
v -2.009526 0.502379 -0.167460
v -2.679365 0.167458 0.083729
v -2.679365 0.000000 0.083729
v -1.925794 -0.000000 -0.586111
v -1.674602 0.167458 -0.586111
v -1.674602 -0.000000 -0.586111
v -1.507142 -0.000000 -0.502379
v -1.507142 0.167458 -0.502379
v -1.423415 0.167458 -0.251192
v -1.507142 0.921031 -0.334921
v -1.507142 1.339683 -0.502379
v -1.339683 1.339683 -0.334921
v -1.507142 0.921031 -0.251192
v -1.674602 0.502379 0.000000
v -1.842067 0.586111 0.083729
v -2.260714 0.586111 0.083729
v -2.595638 0.502379 0.334921
v -2.763098 0.167458 0.334921
v -2.763098 -0.000000 0.334921
v -2.260714 -0.000000 1.172223
v -2.679365 -0.000000 0.921031
v -2.679365 0.167458 0.921031
v -2.511906 0.502379 0.921031
v -2.260714 0.167458 1.172223
v -1.842067 -0.000000 0.753571
v -1.590875 0.000000 0.167460
v -1.590875 0.167458 0.167460
v -1.842067 0.167458 0.753571
v -1.922062 0.502379 0.587980
v -2.093254 0.669844 0.502384
v -2.428173 0.669844 0.418650
v -1.423415 0.167458 0.000000
v -1.423415 0.000000 -0.000000
v 1.507142 1.339683 -0.083730
v 1.674602 0.921031 -0.251192
v 1.590875 1.339683 -0.167460
v 1.507142 0.921031 -0.251192
v 1.674602 0.502379 0.000000
v 1.423415 0.167458 0.000000
v 1.590875 0.167458 0.167460
v 1.423415 -0.000000 -0.000000
v 1.590875 0.000000 0.167460
v 1.925794 -0.000000 -0.586111
v 2.679365 0.000000 0.083729
v 1.925794 0.167458 -0.586111
v 1.674602 0.167458 -0.586111
v 1.674602 -0.000000 -0.586111
v 1.507142 -0.000000 -0.502379
v 1.507142 0.167458 -0.502379
v 1.423415 0.167458 -0.251192
v 1.507142 0.921031 -0.334921
v 1.339683 1.339683 -0.334921
v 1.507142 1.339683 -0.502379
v 1.674602 0.921031 -0.418651
v 1.758334 0.921031 -0.251192
v 1.758334 1.423415 -0.418651
v 2.009526 0.502379 -0.167460
v 1.842067 0.586111 0.083729
v 2.260714 0.586111 0.083729
v 2.679365 0.167458 0.083729
v 2.763098 0.167458 0.334921
v 2.595638 0.502379 0.334921
v 2.679365 0.167458 0.921031
v 2.511906 0.502379 0.921031
v 2.260714 0.167458 1.172223
v 2.260714 -0.000000 1.172223
v 1.842067 -0.000000 0.753571
v 2.763098 -0.000000 0.334921
v 2.679365 -0.000000 0.921031
v 1.842067 0.167458 0.753571
v 1.922062 0.502379 0.587980
v 2.093254 0.669844 0.502384
v 2.428173 0.669844 0.418650
v 0.063992 9.168913 -0.570180
v -0.119491 9.139923 -0.416590
v -0.167461 8.959146 -0.334921
v 0.000000 8.875409 -0.586112
v -0.586111 8.959146 -0.418650
v -0.753571 8.540461 -0.669844
v 0.000000 7.703186 -0.334921
v 0.753571 8.540461 -0.669844
v 0.586111 8.959146 -0.418650
v 1.004763 8.875409 -0.753572
v 1.004763 9.042884 -0.586112
v 1.423415 8.959146 -0.586112
v 1.423415 8.959146 -0.418650
v 1.004763 9.042884 -0.334921
v 1.004763 8.791673 -0.083730
v 0.000000 8.875409 -0.167460
v 0.167461 8.959146 -0.334921
v -1.004763 8.791673 -0.083730
v -1.004763 9.042884 -0.334921
v -1.423415 8.959146 -0.418650
v -1.004763 9.042884 -0.586112
v -1.423415 8.959146 -0.586112
v -1.004763 8.875409 -0.753572
v -1.172223 8.456773 -0.921032
v -0.669844 7.703186 -0.167460
v -0.334921 6.865863 0.000001
v 0.000000 6.865863 -0.251191
v 0.334921 6.865863 0.000001
v 0.669844 7.703186 -0.167460
v 0.502384 6.865863 0.251191
v 0.921031 7.786923 0.183073
v 1.088495 8.540461 -0.167460
v 1.172223 8.456773 -0.921032
v 2.679365 8.038086 -0.837304
v 2.846830 7.954349 -0.837304
v 2.846830 8.121823 -0.586112
v 0.669844 8.456773 0.413217
v 0.502384 8.707935 0.167461
v 0.000000 8.456773 0.489930
v -0.502384 8.707935 0.167461
v -0.669844 8.456773 0.413217
v -1.088495 8.540461 -0.167460
v -0.837303 8.121823 0.336501
v -0.921031 7.786923 0.183073
v -0.502384 6.865863 0.251191
v -0.418652 6.614700 0.000001
v -0.334921 6.530963 0.167460
v -0.837303 6.112326 -0.167460
v -0.334921 5.555317 0.221639
v -0.921031 5.107529 0.083729
v -1.172223 5.191266 -0.334921
v -1.423415 3.349209 -0.251191
v -1.255955 3.516669 -0.502379
v -1.674602 2.763093 -0.251191
v -1.507142 2.511906 -0.837304
v -1.674602 1.255955 -0.334921
v -1.507142 1.255955 -0.418651
v -1.172223 2.176981 -0.837304
v -0.837303 3.349209 -0.502379
v -1.004763 2.260714 -0.251191
v -0.837303 3.181750 -0.251191
v 0.000000 5.023792 -0.502380
v -0.502384 5.023792 -1.088491
v -0.921031 5.107529 -1.004764
v 0.000000 5.023792 0.000000
v 0.837303 3.181750 -0.251191
v 0.837303 3.349209 -0.502379
v 1.004763 2.260714 -0.251191
v 1.172223 2.176981 -0.837304
v 1.423415 1.255955 -0.334921
v 1.507142 1.255955 -0.418651
v 1.507142 2.511906 -0.837304
v 1.674602 1.255955 -0.334921
v 1.674602 2.763093 -0.251191
v 1.255955 3.516669 -0.502379
v 0.921031 5.107529 -1.004764
v 1.172223 5.191266 -0.334921
v 1.423415 3.349209 -0.251191
v 0.921031 5.107529 0.083729
v 0.837303 6.112326 -0.167460
v 1.004763 5.191266 -1.088491
v 0.669844 6.279752 -0.502380
v 0.586111 5.442478 -1.088491
v 0.586111 4.940104 -1.172223
v 0.000000 5.358740 -1.088491
v 0.000000 4.940104 -0.586112
v -0.586111 4.940104 -1.172223
v -0.586111 5.442478 -1.088491
v 0.000000 5.944852 -1.004764
v 0.083731 6.196014 -0.837304
v 0.083731 6.279752 -0.753572
v 0.502384 6.363489 -1.507143
v 0.418652 6.698438 -1.423415
v 0.000000 6.447226 -1.590875
v 0.334921 5.944852 -1.339683
v 0.000000 5.777378 -1.255956
v -0.334921 5.944852 -1.339683
v -0.083731 6.196014 -0.837304
v -0.669844 6.279752 -0.502380
v -0.083731 6.279752 -0.753572
v -0.167461 6.698438 -0.251191
v -0.125597 6.489095 -0.502380
v 0.000000 6.279752 -0.753572
v -0.418652 6.698438 -1.423415
v 0.000000 6.782126 -1.004764
v 0.000000 7.033338 -1.339683
v -0.502384 6.363489 -1.507143
v 0.125597 6.489095 -0.502380
v 0.167461 6.698438 -0.251191
v 0.418652 6.614700 0.000001
v 0.334921 6.530963 0.167460
v 0.334921 6.949600 0.586111
v 0.669844 7.535712 0.643357
v 0.753571 7.535712 0.720071
v 0.837303 7.703186 0.796789
v 0.921031 7.870660 0.720071
v 0.837303 8.121823 0.336501
v 0.753571 8.205561 0.796789
v 0.502384 8.289297 0.873503
v 0.167461 8.289297 0.873503
v -0.167461 8.289297 0.873503
v -0.502384 8.289297 0.873503
v -0.753571 8.205561 0.796789
v -0.921031 7.870660 0.720071
v -0.837303 7.703186 0.796789
v -0.753571 7.535712 0.720071
v -0.669844 7.535712 0.643357
v -0.418652 7.451975 0.720071
v -0.502384 7.535712 0.873503
v -0.251192 7.451975 0.796789
v -0.251192 7.535712 0.950216
v -0.502384 7.619449 1.026929
v 0.000000 7.763006 1.092687
v -0.167461 7.870660 1.103648
v -0.502384 7.954349 1.103648
v -0.753571 7.619449 0.950216
v -0.837303 7.954349 1.026929
v 0.167461 7.870660 1.103648
v 0.502384 7.619449 1.026929
v 0.251192 7.535712 0.950216
v 0.251192 7.451975 0.796789
v 0.000000 7.451975 0.768019
v 0.418652 7.451975 0.720071
v 0.502384 7.535712 0.873503
v 0.753571 7.619449 0.950216
v 0.502384 7.954349 1.103648
v 0.837303 7.954349 1.026929
v 0.000000 7.033338 0.669843
v -0.334921 6.949600 0.586111
v 0.000000 6.530963 0.418650
v 0.083731 6.447226 0.334921
v -0.083731 6.447226 0.334921
v 0.000000 6.279752 0.334921
v 0.334921 5.555317 0.221639
v -0.502384 4.940104 0.251191
v -1.255955 3.181750 0.083730
v -1.339683 3.014285 -0.083730
v -1.590875 1.255955 -0.167460
v -1.088495 2.930557 -0.083730
v -1.507142 1.255955 -0.167460
v -1.423415 1.255955 -0.334921
v -1.004763 3.181750 0.083730
v 0.502384 4.940104 0.251191
v 1.004763 3.181750 0.083730
v 1.088495 2.930557 -0.083730
v 1.507142 1.255955 -0.167460
v 1.590875 1.255955 -0.167460
v 1.339683 3.014285 -0.083730
v 1.255955 3.181750 0.083730
v -1.004763 5.191266 -1.088491
v 0.502384 5.023792 -1.088491
v -2.679365 8.038086 -0.837304
v -2.846830 7.954349 -0.837304
v -2.846830 8.121823 -0.586112
v -2.930557 8.289297 -0.586112
v -2.846830 8.456773 -0.837304
v -2.763098 8.289297 -1.004764
v -2.763098 8.121823 -1.004764
v -2.930557 8.121823 -1.004764
v -3.098017 7.870660 -0.753572
v -4.353968 7.703186 -0.753572
v -4.353968 7.786923 -0.753572
v -3.098017 8.373035 -0.837304
v -2.930557 8.456773 -0.837304
v -3.181745 8.289297 -1.004764
v -2.930557 8.289297 -1.004764
v -3.098017 8.121823 -1.004764
v -4.437700 7.703186 -0.837304
v -4.353968 7.535712 -0.586112
v -4.605159 7.786923 -0.837304
v -4.521432 7.535712 -0.586112
v -4.521432 7.284500 -0.334921
v -4.437700 7.619449 -0.418650
v -4.521432 7.870660 -0.669844
v -4.353968 7.870660 -0.837304
v -4.605159 7.954349 -0.837304
v -4.437700 7.786923 -0.837304
v -4.856351 7.870660 -0.753572
v -4.856351 7.786923 -0.586112
v -4.605159 7.619449 -0.418650
v -4.772619 7.619449 -0.334921
v -4.772619 7.870660 -0.502380
v -4.940104 7.954349 -0.418650
v -5.107529 7.619449 -0.251191
v -5.442478 7.786923 -0.083730
v -5.358740 7.870660 -0.334921
v -5.526166 7.954349 -0.251191
v -5.107529 7.870660 -0.586112
v -5.358740 8.038086 -0.418650
v -5.442478 8.205561 -0.502380
v -5.191266 8.121823 -0.669844
v -4.772619 8.121823 -0.837304
v -4.772619 8.038086 -0.586112
v -4.772619 7.451975 -0.251191
v -4.688887 7.284500 -0.334921
v -4.688887 7.284500 -0.167460
v -4.605159 7.368237 -0.251191
v -4.772619 7.284500 -0.083730
v 2.930557 8.289297 -0.586112
v 4.353968 7.786923 -0.753572
v 4.353968 7.703186 -0.753572
v 3.098017 7.870660 -0.753572
v 2.930557 8.121823 -1.004764
v 2.763098 8.121823 -1.004764
v 2.763098 8.289297 -1.004764
v 2.846830 8.456773 -0.837304
v 2.930557 8.456773 -0.837304
v 2.930557 8.289297 -1.004764
v 3.181745 8.289297 -1.004764
v 3.098017 8.373035 -0.837304
v 4.353968 7.870660 -0.837304
v 4.437700 7.786923 -0.837304
v 4.605159 7.954349 -0.837304
v 4.605159 7.786923 -0.837304
v 4.856351 7.870660 -0.753572
v 4.772619 8.121823 -0.837304
v 5.191266 8.121823 -0.669844
v 5.107529 7.870660 -0.586112
v 5.442478 8.205561 -0.502380
v 5.358740 8.038086 -0.418650
v 4.940104 7.954349 -0.418650
v 4.772619 8.038086 -0.586112
v 4.521432 7.870660 -0.669844
v 4.437700 7.619449 -0.418650
v 4.353968 7.535712 -0.586112
v 4.437700 7.703186 -0.837304
v 4.521432 7.535712 -0.586112
v 4.605159 7.619449 -0.418650
v 4.856351 7.786923 -0.586112
v 4.772619 7.619449 -0.334921
v 5.107529 7.619449 -0.251191
v 4.772619 7.870660 -0.502380
v 4.772619 7.451975 -0.251191
v 4.605159 7.368237 -0.251191
v 4.521432 7.284500 -0.334921
v 4.688887 7.284500 -0.334921
v 4.772619 7.284500 -0.083730
v 4.688887 7.284500 -0.167460
v 5.442478 7.786923 -0.083730
v 5.358740 7.870660 -0.334921
v 5.526166 7.954349 -0.251191
v 3.098017 8.121823 -1.004764
v -0.018063 9.142826 -0.158455
v 0.125595 9.126574 -0.334921
v 0.891622 8.124689 -1.524372
v 0.875182 9.415459 -0.543859
v 0.035006 10.017422 0.864707
v 0.085751 10.046412 0.727123
v 0.158198 9.966657 0.769520
v -1.181464 8.153679 -1.405866
v -0.698196 9.502429 -0.748539
v 1.793939 9.640229 -0.742307
v 1.421301 9.031113 -1.040574
v -0.442208 10.437909 0.257589
v -0.438737 10.568429 0.286371
v -0.167181 10.488674 0.304760
v -0.173251 9.952098 0.254423
v -0.438730 9.952098 0.286435
v -0.168045 10.147878 0.297596
v 0.299142 10.553933 0.263131
v -0.038784 10.633689 0.252745
v 0.564621 10.553933 0.231120
v -0.112951 9.415523 0.196084
v -0.643509 9.400964 -0.295004
v -0.305119 9.676562 0.277656
v 0.016318 9.285002 0.151297
v 0.068391 10.010142 0.583150
v -0.124641 9.930387 0.657559
v 0.044953 10.053628 0.388778
v -0.097885 11.126587 -1.354247
v 0.608809 11.539986 -0.519266
v -0.246577 10.923719 0.204736
v 0.057979 9.618583 0.496805
v 0.080545 9.850633 0.683950
v -0.006655 9.683842 0.519199
v 0.040619 9.582313 0.352833
v -1.465582 9.023834 -0.970007
v -1.011892 10.125912 -1.674837
v 0.037005 9.944626 -1.910845
v -0.820539 11.126651 -0.646315
v -1.633449 9.582185 -0.686899
v -1.215271 10.024509 -0.569390
v -0.733723 10.075338 0.073674
v -0.422720 11.141210 -0.139221
v 0.247126 10.815038 0.948598
v 0.043226 9.372037 0.374451
v -0.103403 9.466288 0.275266
v -0.590580 11.083230 0.143950
v -0.456977 11.424025 0.135108
v -0.247448 11.199254 0.197508
v 0.706915 9.988368 0.294359
v 0.577646 10.118887 0.339147
v 0.568962 10.408918 0.267129
v -0.106889 10.568428 0.246357
v -0.099933 9.596808 0.304048
v -0.029229 10.068124 0.331990
v -0.984913 9.966529 -0.334235
v 0.363776 10.488674 0.240737
v 0.682199 10.938278 0.647807
v 1.104647 11.482006 -0.316122
v 0.719926 10.785983 0.402259
v -0.048724 9.981153 0.728738
v 0.432760 9.662067 0.254416
v 0.231916 9.596808 0.264034
v 0.165546 9.596808 0.272036
v 1.204352 9.872151 -1.722939
v 1.391843 10.140598 -0.168025
v 1.546205 10.894602 -1.121561
v 1.549747 10.778704 0.024669
v -1.357615 8.987501 -1.749886
v -0.102547 10.423413 0.282366
v 0.027601 9.401028 0.244869
v 0.572441 9.923107 0.295974
v 0.232780 9.937603 0.271197
v -0.455234 10.872954 0.149562
v 0.237114 10.408918 0.307143
v -0.744135 9.683779 -0.012671
v -0.579282 9.966593 0.237650
v 0.169880 10.068123 0.307982
v -0.433524 10.147878 0.329607
v 0.031535 9.886902 0.835925
v 0.236258 9.451792 0.300043
v -2.224292 8.871540 -1.119521
v -0.642181 10.097113 0.274434
v -0.166302 9.596808 0.312051
v 0.816217 10.031854 0.083981
v 1.037428 9.908549 -0.315156
v 0.160340 9.401028 0.228864
v 0.207207 9.930387 0.617545
v 1.267259 9.125299 -1.759661
v -0.771450 10.227633 0.319222
v 0.304355 10.133383 0.306367
v 0.460988 11.061584 1.046944
v 0.656578 9.328488 -0.123103
v 0.126084 9.683842 0.503193
v 2.140956 8.639553 -1.214950
v 0.697368 9.937603 0.215178
v 0.911230 10.184148 0.313523
v 0.194174 10.981764 0.509454
v 0.805806 9.640292 -0.002364
vn -0.5485 0.0001 0.8362
vn -0.2039 0.1142 0.9723
vn 0.0466 -0.2604 0.9644
vn -0.9137 0.2225 0.3400
vn -0.9293 -0.0031 -0.3694
vn -0.1382 0.0801 -0.9872
vn -0.5567 0.2526 -0.7914
vn -0.4441 0.8814 -0.1612
vn -0.7285 0.3788 -0.5708
vn -0.5801 -0.7192 -0.3825
vn -0.1616 -0.7275 -0.6668
vn 0.2294 0.0709 -0.9708
vn 0.1603 -0.7166 -0.6788
vn 0.7351 -0.3259 -0.5944
vn 0.6970 0.0996 -0.7102
vn 0.9869 -0.0120 -0.1611
vn 0.8905 -0.0815 -0.4476
vn 0.2886 -0.2493 -0.9244
vn 0.9409 -0.3343 -0.0540
vn 0.7079 -0.0015 0.7063
vn 0.3034 0.6520 0.6948
vn 0.4388 0.8980 0.0315
vn -0.2801 0.8536 -0.4391
vn -0.7915 0.5876 -0.1683
vn -0.9735 0.1833 -0.1366
vn -0.8255 -0.5643 -0.0096
vn -0.0828 -0.7751 0.6264
vn -0.7286 -0.4849 0.4838
vn -0.8492 0.1827 0.4955
vn -0.3115 0.7784 0.5451
vn 0.2874 0.2986 0.9101
vn 0.7377 -0.4542 0.4994
vn 0.4539 -0.8364 0.3073
vn 0.8066 0.2456 0.5377
vn 0.8088 0.2197 0.5455
vn 0.6326 0.6173 0.4677
vn 0.2123 0.9631 0.1656
vn -0.3537 0.9327 -0.0698
vn 0.8931 0.1910 0.4073
vn 0.6965 -0.6691 0.2592
vn -0.0466 -0.2604 0.9644
vn 0.2039 0.1142 0.9723
vn 0.5485 0.0002 0.8362
vn -0.7079 -0.0015 0.7063
vn -0.3034 0.6520 0.6948
vn -0.8931 0.1910 0.4073
vn -0.8066 0.2456 0.5377
vn -0.6965 -0.6691 0.2591
vn -0.4539 -0.8364 0.3074
vn 0.1616 -0.7275 -0.6668
vn 0.5801 -0.7192 -0.3825
vn 0.5567 0.2526 -0.7914
vn -0.2294 0.0709 -0.9708
vn -0.1603 -0.7166 -0.6788
vn -0.7351 -0.3259 -0.5944
vn -0.6969 0.0996 -0.7102
vn -0.9869 -0.0120 -0.1611
vn -0.8905 -0.0816 -0.4477
vn -0.9409 -0.3343 -0.0540
vn -0.2886 -0.2493 -0.9244
vn 0.1382 0.0802 -0.9871
vn 0.9137 0.2225 0.3400
vn 0.9293 -0.0031 -0.3693
vn 0.4441 0.8814 -0.1612
vn -0.4388 0.8980 0.0315
vn 0.2801 0.8536 -0.4391
vn 0.7285 0.3788 -0.5708
vn 0.9735 0.1833 -0.1366
vn 0.7915 0.5875 -0.1683
vn 0.8492 0.1827 0.4955
vn 0.3115 0.7784 0.5451
vn -0.2874 0.2986 0.9101
vn 0.0828 -0.7751 0.6264
vn -0.7377 -0.4542 0.4994
vn 0.8255 -0.5643 -0.0096
vn 0.7286 -0.4849 0.4838
vn -0.8088 0.2197 0.5455
vn -0.6326 0.6173 0.4677
vn -0.2123 0.9631 0.1656
vn 0.3537 0.9327 -0.0698
vn -0.2284 -0.9657 -0.1233
vn -0.7823 0.5671 0.2576
vn -0.4683 -0.8396 -0.2753
vn -0.0281 0.4343 -0.9003
vn 0.1980 0.9681 -0.1533
vn 0.2747 -0.0347 -0.9609
vn -0.0000 -0.2943 -0.9557
vn -0.2747 -0.0347 -0.9609
vn -0.1980 0.9681 -0.1533
vn -0.1660 0.5398 -0.8253
vn -0.0124 0.9537 -0.3006
vn 0.2161 0.9017 -0.3744
vn 0.3128 0.8926 0.3246
vn -0.0000 0.9254 0.3791
vn 0.2392 0.5579 0.7947
vn 0.0068 0.8020 0.5972
vn 0.8230 0.5517 0.1353
vn 0.8008 -0.5886 -0.1110
vn 0.1259 -0.6007 0.7895
vn -0.2392 0.5579 0.7947
vn -0.3128 0.8926 0.3246
vn 0.0124 0.9537 -0.3006
vn -0.2161 0.9017 -0.3744
vn 0.1660 0.5398 -0.8253
vn 0.1507 -0.4773 -0.8657
vn -0.5508 -0.4975 -0.6701
vn -0.6624 0.0472 -0.7477
vn -0.0000 0.2141 -0.9768
vn 0.6624 0.0472 -0.7477
vn 0.5508 -0.4975 -0.6701
vn 0.9213 -0.3885 -0.0128
vn 0.9205 -0.3851 -0.0660
vn 0.6429 -0.6137 0.4584
vn -0.1507 -0.4773 -0.8657
vn -0.2513 -0.8707 -0.4227
vn -0.3012 -0.9343 -0.1908
vn 0.0049 -0.4140 0.9103
vn 0.4596 0.7047 0.5405
vn 0.0603 0.8193 0.5703
vn -0.0000 0.8526 0.5226
vn -0.0603 0.8193 0.5703
vn -0.4596 0.7047 0.5405
vn -0.6429 -0.6137 0.4584
vn -0.9251 0.2893 0.2459
vn -0.9205 -0.3851 -0.0660
vn -0.9213 -0.3885 -0.0128
vn -0.9074 0.3910 -0.1541
vn -0.6792 -0.2160 0.7015
vn -0.8404 0.3861 0.3802
vn -0.1953 -0.0216 0.9805
vn -0.6301 0.1644 0.7589
vn -0.9800 0.1988 -0.0013
vn -0.9424 0.1928 0.2734
vn -0.6963 0.1792 -0.6951
vn -0.9540 0.2407 0.1786
vn -0.4542 0.0558 -0.8892
vn -0.9937 -0.0792 0.0786
vn -0.0451 -0.4162 -0.9081
vn 0.6037 -0.2927 -0.7416
vn 0.5557 -0.1952 -0.8081
vn 0.9191 -0.2695 0.2873
vn 0.8756 -0.3614 0.3205
vn -0.0000 -0.8013 -0.5983
vn 0.2711 -0.3658 -0.8903
vn -0.4886 -0.1798 -0.8538
vn -0.0000 -0.4225 0.9063
vn -0.8756 -0.3614 0.3205
vn -0.5557 -0.1952 -0.8082
vn -0.9191 -0.2695 0.2873
vn -0.6036 -0.2927 -0.7416
vn -0.8739 -0.4620 -0.1512
vn 0.0451 -0.4162 -0.9081
vn 0.4542 0.0558 -0.8891
vn 0.9938 -0.0792 0.0786
vn 0.9540 0.2407 0.1786
vn 0.6963 0.1791 -0.6951
vn 0.4886 -0.1797 -0.8538
vn 0.9800 0.1988 -0.0013
vn 0.9424 0.1928 0.2734
vn 0.6301 0.1644 0.7589
vn 0.8405 0.3861 0.3802
vn 0.6388 0.4220 -0.6433
vn 0.5296 0.6602 -0.5326
vn 0.1757 0.3386 -0.9244
vn -0.1808 -0.1242 -0.9757
vn -0.0000 -0.1345 -0.9909
vn -0.0000 -0.7682 -0.6402
vn 0.1808 -0.1242 -0.9757
vn -0.1757 0.3386 -0.9244
vn -0.0000 -0.6726 -0.7400
vn 0.9574 0.1566 -0.2428
vn 0.6332 0.7594 -0.1493
vn 0.9683 -0.1956 -0.1551
vn 0.6955 0.7141 0.0801
vn -0.0000 -0.0467 -0.9989
vn 0.6557 -0.7506 -0.0810
vn -0.0000 -0.9445 -0.3285
vn -0.6557 -0.7506 -0.0810
vn -0.9574 0.1566 -0.2428
vn -0.5296 0.6602 -0.5326
vn -0.6332 0.7594 -0.1494
vn -0.3276 0.6089 -0.7224
vn -0.0921 0.7573 -0.6465
vn -0.0000 0.9904 -0.1386
vn -0.6955 0.7141 0.0801
vn -0.0000 0.6507 0.7593
vn -0.0000 0.9216 -0.3882
vn -0.9683 -0.1956 -0.1551
vn 0.0926 0.7573 -0.6465
vn 0.3276 0.6089 -0.7224
vn 0.9074 0.3910 -0.1541
vn 0.6792 -0.2160 0.7015
vn 0.4559 -0.4595 0.7622
vn 0.6233 -0.7370 0.2615
vn 0.5011 -0.8628 0.0675
vn 0.8944 -0.4030 0.1940
vn 0.9888 0.0841 0.1230
vn 0.9251 0.2893 0.2459
vn 0.7520 0.5934 0.2870
vn 0.2097 0.7456 0.6325
vn -0.0133 0.7586 0.6514
vn 0.0133 0.7587 0.6514
vn -0.2097 0.7456 0.6325
vn -0.7520 0.5934 0.2870
vn -0.9888 0.0841 0.1230
vn -0.8944 -0.4030 0.1940
vn -0.5011 -0.8628 0.0675
vn -0.6233 -0.7370 0.2615
vn -0.1813 -0.8386 0.5136
vn -0.1746 -0.8902 0.4208
vn -0.0670 -0.9583 0.2777
vn -0.0479 -0.7684 0.6382
vn -0.1158 -0.5330 0.8381
vn -0.0000 -0.3750 0.9270
vn -0.0010 0.0912 0.9958
vn -0.1139 0.1640 0.9799
vn -0.5044 -0.5992 0.6218
vn -0.7352 0.1669 0.6570
vn 0.0010 0.0912 0.9958
vn 0.1158 -0.5330 0.8381
vn 0.0479 -0.7684 0.6382
vn 0.0670 -0.9583 0.2777
vn -0.0000 -1.0000 -0.0000
vn 0.1814 -0.8386 0.5136
vn 0.1746 -0.8902 0.4208
vn 0.5044 -0.5992 0.6218
vn 0.1139 0.1640 0.9799
vn 0.7352 0.1669 0.6570
vn -0.0000 -0.3188 0.9478
vn -0.4559 -0.4595 0.7622
vn -0.0000 -0.5211 0.8535
vn 0.3250 -0.3290 0.8867
vn -0.3250 -0.3290 0.8867
vn -0.0000 -0.1218 0.9925
vn 0.1953 -0.0216 0.9805
vn 0.2142 -0.1147 0.9700
vn -0.4997 -0.1418 0.8545
vn -0.4931 -0.1596 0.8552
vn -0.3478 0.0041 0.9376
vn 0.3143 -0.2604 0.9129
vn 0.4805 -0.2190 0.8492
vn 0.8739 -0.4620 -0.1512
vn 0.3449 -0.4984 0.7954
vn -0.2142 -0.1147 0.9700
vn -0.3450 -0.4984 0.7954
vn -0.3143 -0.2604 0.9129
vn -0.4805 -0.2190 0.8492
vn 0.3478 0.0041 0.9376
vn 0.4931 -0.1596 0.8552
vn 0.4997 -0.1418 0.8545
vn -0.6388 0.4220 -0.6433
vn -0.2711 -0.3658 -0.8903
vn 0.2513 -0.8707 -0.4227
vn 0.3013 -0.9343 -0.1908
vn -0.0049 -0.4140 0.9103
vn -0.2911 0.5895 0.7535
vn -0.1713 0.9311 -0.3222
vn -0.0120 0.3713 -0.9284
vn 0.0589 -0.3991 -0.9150
vn 0.0472 -0.4595 -0.8869
vn 0.1639 -0.9600 -0.2269
vn 0.5577 -0.8270 0.0714
vn 0.3827 0.4964 0.7792
vn -0.4132 0.9093 0.0496
vn -0.2045 0.9687 -0.1409
vn -0.1838 0.4170 -0.8901
vn -0.0000 0.3827 -0.9239
vn 0.0558 -0.5462 -0.8358
vn 0.0384 -0.4902 -0.8707
vn 0.6892 -0.6246 -0.3672
vn -0.3518 -0.5544 -0.7543
vn -0.5013 -0.4961 -0.7089
vn 0.6662 -0.7323 0.1410
vn 0.5448 0.4402 0.7138
vn 0.4563 0.6970 0.5532
vn 0.2651 0.9448 -0.1926
vn 0.2518 0.5372 -0.8050
vn -0.0973 0.1657 -0.9814
vn -0.3854 -0.4578 -0.8012
vn -0.2804 -0.8401 -0.4643
vn -0.6981 0.2734 0.6617
vn 0.4976 -0.2315 0.8359
vn 0.5004 0.4557 0.7361
vn 0.2860 0.6348 0.7178
vn -0.1267 -0.9876 0.0930
vn -0.8288 -0.4754 0.2952
vn -0.7179 -0.6808 0.1450
vn -0.8999 -0.4083 0.1529
vn -0.5227 -0.6135 -0.5919
vn -0.8835 0.4245 0.1982
vn -0.8912 0.4418 -0.1025
vn -0.4192 0.3601 -0.8334
vn 0.0444 0.9193 -0.3910
vn 0.4915 0.7203 0.4896
vn -0.7208 0.6265 0.2965
vn -0.4356 -0.7975 -0.4174
vn 0.5000 -0.7071 0.5000
vn 0.5729 0.2365 0.7847
vn 0.1084 -0.5064 0.8554
vn 0.2911 0.5895 0.7535
vn -0.3827 0.4964 0.7792
vn -0.5577 -0.8270 0.0714
vn -0.1640 -0.9600 -0.2269
vn -0.0472 -0.4595 -0.8869
vn -0.0589 -0.3991 -0.9150
vn 0.0120 0.3713 -0.9284
vn 0.1713 0.9311 -0.3222
vn 0.2045 0.9687 -0.1409
vn 0.1838 0.4170 -0.8901
vn 0.4131 0.9093 0.0497
vn -0.2650 0.9448 -0.1926
vn 0.0973 0.1657 -0.9814
vn -0.2518 0.5372 -0.8050
vn 0.3518 -0.5544 -0.7543
vn 0.3854 -0.4577 -0.8012
vn -0.0444 0.9193 -0.3910
vn 0.4192 0.3601 -0.8334
vn 0.5227 -0.6135 -0.5919
vn 0.8912 0.4418 -0.1025
vn 0.8835 0.4245 0.1982
vn -0.2860 0.6348 0.7178
vn -0.4915 0.7203 0.4896
vn -0.4563 0.6970 0.5532
vn -0.5448 0.4401 0.7138
vn -0.6892 -0.6247 -0.3672
vn -0.0385 -0.4902 -0.8707
vn 0.5013 -0.4961 -0.7089
vn 0.6981 0.2734 0.6617
vn 0.2804 -0.8401 -0.4643
vn -0.4977 -0.2315 0.8359
vn 0.1267 -0.9876 0.0930
vn -0.5004 0.4557 0.7361
vn 0.7205 0.6268 0.2966
vn -0.5729 0.2365 0.7847
vn -0.6662 -0.7323 0.1410
vn 0.4356 -0.7975 -0.4174
vn -0.1084 -0.5064 0.8554
vn -0.5000 -0.7071 0.5000
vn 0.8288 -0.4754 0.2952
vn 0.7179 -0.6808 0.1450
vn 0.9000 -0.4083 0.1529
vn -0.0558 -0.5462 -0.8358
vn 0.2211 -0.9501 -0.2202
vn 0.4247 -0.6716 0.6071
vn -0.1483 0.5037 0.8511
vn 0.8732 0.0646 0.4830
vn 0.1806 0.9833 0.0205
vn -0.3038 -0.9508 -0.0614
vn -0.4001 -0.6760 0.6188
vn 0.6605 -0.3739 0.6511
vn 0.9658 -0.0233 0.2582
vn 0.1146 -0.0894 0.9894
vn 0.1580 0.2334 0.9595
vn -0.4105 0.1595 0.8978
vn 0.1584 0.3111 0.9371
vn 0.2307 -0.4304 0.8727
vn -0.2819 -0.2609 0.9233
vn -0.5187 -0.6654 0.5368
vn -0.3235 -0.2952 0.8990
vn -0.6376 -0.7470 0.1886
vn -0.0984 -0.7974 0.5954
vn 0.0851 0.9962 0.0196
vn 0.0279 0.9489 0.3144
vn -0.8128 0.1677 0.5579
vn -0.1438 0.7807 -0.6082
vn -0.2303 0.5283 0.8172
vn -0.0939 0.9927 -0.0756
vn 0.0622 -0.8830 0.4652
vn 0.1798 -0.7725 0.6090
vn -0.4719 -0.6475 0.5984
vn 0.1034 -0.5045 0.8572
vn -0.5109 -0.2441 0.8242
vn 0.0148 0.1674 -0.9858
vn -0.6309 0.3779 -0.6776
vn -0.6424 0.7660 0.0261
vn -0.9091 0.0936 0.4058
vn -0.7813 0.4698 0.4109
vn -0.8640 0.4722 0.1748
vn -0.0266 0.9992 -0.0294
vn -0.3975 0.0515 0.9161
vn -0.3851 -0.3467 0.8553
vn -0.0165 -0.7058 0.7082
vn -0.7165 -0.5141 0.4714
vn -0.9301 -0.1174 0.3482
vn 0.7838 0.3310 0.5255
vn -0.1702 0.9677 0.1859
vn 0.6084 -0.2743 0.7447
vn 0.2373 0.2311 0.9436
vn 0.1582 0.0611 0.9855
vn 0.0081 0.1130 0.9936
vn -0.4202 0.4715 0.7754
vn -0.2955 0.1771 0.9388
vn -0.1217 -0.0669 0.9903
vn -0.1081 -0.9432 0.3140
vn 0.1608 0.0167 0.9868
vn 0.7502 0.1999 0.6302
vn 0.6190 -0.4279 0.6586
vn 0.4236 0.8892 0.1729
vn -0.8779 0.3685 0.3058
vn 0.2847 -0.3161 0.9050
vn 0.5080 0.4195 0.7523
vn 0.2436 -0.1010 0.9646
vn 0.5615 0.2410 -0.7916
vn 0.7911 0.3829 -0.4770
vn 0.7290 -0.3876 0.5641
vn 0.8195 0.1230 0.5597
vn -0.5135 0.0187 -0.8579
vn 0.2389 0.1983 0.9506
vn -0.0701 -0.9615 0.2658
vn 0.1975 -0.3312 0.9227
vn 0.4753 0.0210 0.8796
vn -0.6891 0.1437 0.7103
vn 0.2350 0.0671 0.9697
vn -0.7141 -0.4422 0.5428
vn -0.5438 -0.3648 0.7558
vn 0.2535 0.0373 0.9666
vn -0.0687 0.0271 0.9973
vn -0.2066 -0.7006 0.6829
vn 0.9075 -0.2746 0.3178
vn -0.1279 -0.1873 0.9739
vn -0.9688 0.0953 0.2288
vn -0.6660 -0.0370 0.7451
vn -0.3072 0.0271 0.9513
vn 0.3786 -0.5596 0.7372
vn 0.7494 -0.0405 0.6609
vn 0.3949 -0.8136 0.4266
vn 0.9485 0.1601 0.2734
vn 0.4811 -0.0410 -0.8757
vn -0.1299 -0.4345 0.8912
vn 0.2373 0.4834 0.8426
vn 0.5368 -0.7548 0.3769
vn 0.6373 -0.5726 0.5158
vn 0.9637 -0.1913 0.1860
vn 0.5790 -0.5785 0.5745
vn -0.0628 0.0416 0.9972
vn -0.1169 0.2168 -0.9692
vn -0.2763 0.9066 0.3188
vn 0.7450 -0.3907 0.5406
vt 42.430698 14.585400
vt 42.430401 14.582100
vt 42.431000 14.585400
vt 42.430099 14.582100
vt 42.430099 14.586000
vt 42.933998 14.589700
vt 42.934601 14.595500
vt 42.934898 14.595500
vt 42.933701 14.592300
vt -1.703090 -1.316770
vt -1.753780 -1.688800
vt -1.570050 -1.453310
vt 43.933498 14.336800
vt 43.930801 14.335500
vt 43.930801 14.336800
vt 43.933498 14.335500
vt 43.302502 14.331400
vt 43.301601 14.330000
vt 43.301601 14.331400
vt 43.302502 14.330000
vt 43.934399 14.336800
vt 43.935001 14.335500
vt 43.934399 14.335500
vt 43.935001 14.336800
vt 43.303101 14.331400
vt 43.303398 14.331400
vt 43.303101 14.330000
vt 42.935600 14.589700
vt 42.935600 14.595500
vt 42.935902 14.589700
vt 42.934898 14.589700
vt 42.431000 14.582100
vt 42.431599 14.585400
vt -1.495300 -1.077230
vt -1.444790 -1.224070
vt -1.447700 -1.076860
vt -1.566420 -1.199050
vt -1.541210 -1.076520
vt -1.446090 -1.446000
vt -1.441300 -1.527150
vt -1.579510 -1.618980
vt -1.652440 -1.752440
vt 42.931301 14.589700
vt 42.931000 14.589700
vt 42.931599 14.592300
vt 43.298801 14.330000
vt 43.298500 14.331400
vt 43.298801 14.331400
vt 43.298500 14.330000
vt 42.682098 14.579700
vt 42.680302 14.579700
vt 42.680599 14.579700
vt 43.300400 14.330000
vt 43.930500 14.335500
vt 43.930500 14.336800
vt 42.931900 14.592300
vt 42.932800 14.589700
vt 43.300400 14.331400
vt 43.932301 14.336800
vt 43.932301 14.335500
vt 43.933800 14.335500
vt 42.683701 14.579700
vt 42.684601 14.579700
vt 43.302799 14.331400
vt 43.301899 14.330000
vt 43.302799 14.330000
vt 43.301899 14.331400
vt 42.935200 14.589700
vt 42.933998 14.592300
vt 42.934299 14.589700
vt -1.310310 -1.684300
vt -1.290450 -1.450470
vt -1.425320 -1.731110
vt -1.553340 -1.779440
vt -1.516600 -1.768900
vt 42.932201 14.593600
vt 42.933399 14.593600
vt 43.933800 14.336800
vt -1.446040 -1.446000
vt -1.316770 -1.381080
vt 43.935299 14.336800
vt 43.934700 14.336800
vt 43.935299 14.335500
vt 43.934700 14.335500
vt 42.685200 14.579700
vt 42.683399 14.579700
vt 42.684299 14.579700
vt 42.684898 14.579700
vt 43.303398 14.330000
vt -1.364660 -1.310040
vt 42.441898 14.585400
vt 42.442501 14.582100
vt 42.442200 14.585400
vt 42.441898 14.582100
vt 43.945702 14.335500
vt 43.946301 14.336800
vt 43.945702 14.336800
vt 43.946301 14.335500
vt 42.697399 14.579700
vt 42.696201 14.579700
vt 42.695499 14.579700
vt 42.700100 14.579700
vt 43.950298 14.335500
vt 43.947498 14.335500
vt 43.947498 14.336800
vt 43.315601 14.331400
vt 43.315601 14.330000
vt 43.314701 14.331400
vt 43.314701 14.330000
vt 42.696499 14.579700
vt 42.695900 14.579700
vt 43.946602 14.335500
vt 43.945999 14.335500
vt 43.946602 14.336800
vt 43.945999 14.336800
vt 43.314098 14.330000
vt 43.313801 14.331400
vt 43.314098 14.331400
vt 43.313801 14.330000
vt 42.946201 14.589700
vt 42.946499 14.595500
vt 42.441299 14.585400
vt 42.947102 14.595500
vt 42.946499 14.589700
vt 42.947102 14.589700
vt 42.948002 14.589700
vt 42.947399 14.595500
vt 42.442902 14.586000
vt 42.442902 14.582100
vt 43.950298 14.336800
vt 43.318298 14.331400
vt 43.318600 14.331400
vt 43.318298 14.330000
vt 42.950500 14.592300
vt 42.951099 14.589700
vt 42.950802 14.589700
vt 42.950199 14.592300
vt 42.949299 14.589700
vt 43.316799 14.331400
vt 43.316799 14.330000
vt 43.947201 14.335500
vt 43.948700 14.335500
vt 43.948700 14.336800
vt 42.698601 14.579700
vt 42.697102 14.579700
vt 42.700401 14.579700
vt 43.318600 14.330000
vt 43.950600 14.336800
vt 43.950600 14.335500
vt 43.314400 14.330000
vt 43.315300 14.330000
vt 43.314400 14.331400
vt 43.315300 14.331400
vt 43.947201 14.336800
vt 42.947701 14.589700
vt 42.948002 14.592300
vt 42.948700 14.593600
vt 42.949902 14.593600
vt 42.946800 14.589700
vt 42.948299 14.592300
vt 42.176498 14.647400
vt 42.175900 14.646100
vt 42.176102 14.647400
vt 42.176498 14.645400
vt 42.436501 14.644200
vt 42.434299 14.644800
vt 42.435799 14.644800
vt 42.433701 14.641600
vt 42.436501 14.635000
vt 42.439201 14.641600
vt 42.438599 14.644800
vt 42.440102 14.644200
vt 42.440102 14.645500
vt 42.180199 14.646700
vt 42.181702 14.646100
vt 42.180199 14.645400
vt 42.440102 14.643500
vt 42.437099 14.644800
vt 42.177101 14.646100
vt 42.176998 14.647400
vt 42.432800 14.643500
vt 42.432800 14.645500
vt 42.172901 14.646700
vt 42.171299 14.646100
vt 42.172901 14.644800
vt 42.172901 14.645400
vt 42.432800 14.644200
vt 42.432201 14.640900
vt 42.433998 14.635000
vt 42.435200 14.628500
vt 42.436501 14.628500
vt 42.437698 14.628500
vt 42.438900 14.635000
vt 43.563400 14.387100
vt 43.562801 14.380500
vt 43.562199 14.380500
vt 43.564400 14.387700
vt 43.564999 14.393600
vt 43.565300 14.393000
vt 42.186298 14.638900
vt 42.180500 14.642800
vt 42.180801 14.642200
vt 42.186901 14.638300
vt 42.186901 14.639600
vt 42.180199 14.644800
vt 42.440399 14.641600
vt 42.438900 14.640900
vt 42.438301 14.642900
vt 42.436501 14.640900
vt 42.434601 14.642900
vt 42.433998 14.640900
vt 42.432499 14.641600
vt 42.433399 14.638300
vt 42.433102 14.635700
vt 43.558601 14.387100
vt 43.557701 14.387700
vt 43.557098 14.393600
vt 43.559200 14.380500
vt 43.559799 14.380500
vt 43.559502 14.378600
vt 43.559799 14.377900
vt 43.442101 14.382800
vt 43.444000 14.386100
vt 43.443699 14.386800
vt 42.305698 14.638000
vt 42.303902 14.634700
vt 42.305698 14.630400
vt 43.057598 14.402500
vt 43.057301 14.394700
vt 43.059399 14.398200
vt 43.056400 14.395300
vt 42.172199 14.616700
vt 42.171299 14.602300
vt 42.173199 14.616000
vt 42.171902 14.603600
vt 42.170399 14.597800
vt 42.171001 14.595800
vt 42.170399 14.586000
vt 42.171001 14.586000
vt 42.172199 14.593200
vt 42.173500 14.602300
vt 42.172901 14.593800
vt 42.173500 14.601000
vt 42.176498 14.615400
vt 42.174702 14.615400
vt 42.179600 14.601000
vt 42.179600 14.602300
vt 42.180199 14.593800
vt 42.180801 14.593200
vt 42.181702 14.586000
vt 42.181999 14.586000
vt 42.181999 14.595800
vt 42.182598 14.586000
vt 42.182598 14.597800
vt 42.181099 14.603600
vt 42.179901 14.616000
vt 42.180801 14.616700
vt 42.181702 14.602300
vt 43.064899 14.395300
vt 43.063702 14.402500
vt 43.063999 14.394700
vt 43.064301 14.395300
vt 43.063099 14.403800
vt 43.062801 14.397300
vt 43.062801 14.393400
vt 43.060699 14.396700
vt 43.060699 14.393400
vt 43.058498 14.393400
vt 43.058498 14.397300
vt 43.445202 14.381500
vt 43.445202 14.377000
vt 43.443100 14.377600
vt 43.447300 14.377600
vt 43.445499 14.383500
vt 43.447601 14.384100
vt 43.445499 14.384100
vt 43.197498 14.380600
vt 43.195999 14.380000
vt 43.195999 14.379300
vt 42.558899 14.623900
vt 42.558601 14.626500
vt 42.557400 14.623300
vt 43.197201 14.383200
vt 43.195702 14.381300
vt 43.196899 14.377400
vt 43.195702 14.377400
vt 43.195702 14.376000
vt 43.194401 14.377400
vt 43.195301 14.379300
vt 43.444901 14.383500
vt 43.442799 14.384100
vt 43.444901 14.384100
vt 42.306301 14.639300
vt 42.306599 14.636000
vt 42.304501 14.636000
vt 42.306499 14.637700
vt 42.306900 14.636000
vt 42.557098 14.623300
vt 42.555599 14.626500
vt 42.556801 14.623300
vt 42.557098 14.627200
vt 42.557098 14.629100
vt 43.195702 14.385800
vt 43.194099 14.383200
vt 43.193802 14.380600
vt 43.195301 14.380000
vt 42.555199 14.623900
vt 42.307400 14.637700
vt 42.307201 14.636000
vt 42.309399 14.636000
vt 42.307499 14.639300
vt 42.437099 14.627200
vt 42.435799 14.627200
vt 42.438000 14.626500
vt 43.562500 14.378600
vt 43.562199 14.377900
vt 42.437698 14.625900
vt 42.438301 14.628500
vt 42.437698 14.629100
vt 42.438900 14.633700
vt 42.439800 14.635700
vt 43.563801 14.385800
vt 43.563400 14.385800
vt 43.564098 14.387100
vt 42.439800 14.636300
vt 42.439499 14.635000
vt 42.439499 14.638300
vt 42.439201 14.638900
vt 42.438301 14.639600
vt 42.437099 14.639600
vt 42.435799 14.639600
vt 42.434601 14.639600
vt 42.433701 14.638900
vt 42.433102 14.636300
vt 42.433399 14.635000
vt 43.558300 14.385800
vt 43.557999 14.387100
vt 43.558601 14.385800
vt 43.559502 14.385100
vt 43.559200 14.385800
vt 43.560101 14.385100
vt 43.560101 14.385800
vt 43.559200 14.386400
vt 43.561001 14.387500
vt 42.435799 14.636300
vt 42.434601 14.634400
vt 42.436501 14.635500
vt 42.434601 14.637000
vt 42.433701 14.634400
vt 42.433399 14.637000
vt 43.558300 14.386400
vt 42.437099 14.636300
vt 42.438301 14.634400
vt 43.561901 14.385800
vt 43.562801 14.386400
vt 43.561901 14.385100
vt 43.561001 14.385100
vt 43.562500 14.385100
vt 43.562801 14.385800
vt 43.563801 14.386400
vt 42.438301 14.637000
vt 42.439201 14.634400
vt 42.439499 14.637000
vt 42.438000 14.633100
vt 42.436501 14.629800
vt 42.434898 14.633100
vt 42.435200 14.629100
vt 42.433998 14.633700
vt 42.434601 14.628500
vt 42.435200 14.625900
vt 42.436501 14.625900
vt 42.308102 14.638000
vt 42.306900 14.638000
vt 42.307201 14.637300
vt 42.690399 14.630700
vt 42.690102 14.630000
vt 42.690701 14.630000
vt 42.306599 14.637300
vt 42.308102 14.630400
vt 42.306900 14.626200
vt 43.058800 14.393400
vt 43.060699 14.394000
vt 42.171902 14.601000
vt 42.174702 14.614700
vt 42.171600 14.599700
vt 42.170700 14.586000
vt 42.172501 14.599100
vt 42.171299 14.586000
vt 42.172901 14.601000
vt 43.061901 14.398200
vt 43.062500 14.393400
vt 42.178299 14.614700
vt 42.180199 14.601000
vt 42.180500 14.599100
vt 42.182301 14.586000
vt 42.181400 14.599700
vt 42.181099 14.601000
vt 42.310001 14.634700
vt 42.690399 14.628700
vt 43.448200 14.382800
vt 43.446701 14.386800
vt 43.446400 14.386100
vt 42.308399 14.638600
vt 42.434898 14.626500
vt 42.305401 14.638600
vt 43.056999 14.395300
vt 43.058201 14.403800
vt 42.178299 14.615400
vt 43.556702 14.393000
vt 42.172501 14.642800
vt 42.166801 14.638900
vt 42.172199 14.642200
vt 42.166100 14.638300
vt 42.166100 14.639600
vt 42.165798 14.640900
vt 42.166100 14.642200
vt 42.166500 14.640900
vt 42.166500 14.639600
vt 42.165798 14.639600
vt 42.165199 14.637600
vt 42.160702 14.636300
vt 42.160702 14.636900
vt 42.165199 14.641500
vt 42.165798 14.642200
vt 42.164902 14.640900
vt 42.165199 14.639600
vt 42.160400 14.636300
vt 42.160702 14.635000
vt 42.159801 14.636900
vt 42.160099 14.635000
vt 42.160099 14.633000
vt 42.160400 14.635600
vt 42.160099 14.637600
vt 42.160702 14.637600
vt 42.159801 14.638300
vt 42.160400 14.636900
vt 42.158798 14.637600
vt 42.158798 14.636900
vt 42.159801 14.635600
vt 42.159100 14.635600
vt 42.159100 14.637600
vt 42.158501 14.638300
vt 42.157902 14.635600
vt 42.156700 14.636900
vt 42.157001 14.637600
vt 42.156399 14.638300
vt 42.157902 14.637600
vt 42.157001 14.638900
vt 42.156700 14.640200
vt 42.157600 14.639600
vt 42.159100 14.639600
vt 42.159100 14.638900
vt 42.159100 14.634300
vt 42.159401 14.633000
vt 42.159801 14.633700
vt 42.159100 14.633000
vt 42.187199 14.640900
vt 42.192299 14.636900
vt 42.192299 14.636300
vt 42.187801 14.637600
vt 42.187199 14.639600
vt 42.186600 14.639600
vt 42.186600 14.640900
vt 42.186901 14.642200
vt 42.187199 14.642200
vt 42.188099 14.640900
vt 42.187801 14.641500
vt 42.192299 14.637600
vt 42.192699 14.636900
vt 42.193298 14.638300
vt 42.193298 14.636900
vt 42.194199 14.637600
vt 42.193901 14.639600
vt 42.195400 14.639600
vt 42.195099 14.637600
vt 42.196301 14.640200
vt 42.195999 14.638900
vt 42.194500 14.638300
vt 42.193901 14.638900
vt 42.193001 14.637600
vt 42.192699 14.635600
vt 42.192299 14.635000
vt 42.192699 14.636300
vt 42.193001 14.635000
vt 42.193298 14.635600
vt 42.194199 14.636900
vt 42.193901 14.635600
vt 42.195099 14.635600
vt 42.193901 14.637600
vt 42.193901 14.634300
vt 42.193298 14.633700
vt 42.193001 14.633000
vt 42.193600 14.633000
vt 42.193901 14.633000
vt 42.196301 14.636900
vt 42.195999 14.637600
vt 42.196602 14.638300
vt 42.187801 14.639600
vt 42.440701 14.640900
vt 0.193850 0.376620
vt 0.690519 0.551622
vt 0.565527 0.609706
vt 0.190488 0.583370
vt 0.182551 0.146834
vt 0.817511 0.527811
vt 0.051591 0.579401
vt 0.905706 0.653803
vt 0.219049 0.672702
vt 0.952511 0.602811
vt 0.702511 0.377811
vt 0.650834 0.575433
vt 0.672620 0.546710
vt 0.031106 0.151519
vt 0.059699 0.648905
vt 0.662511 0.582811
vt 0.432567 0.599244
vt 0.999884 0.000157
vt 0.999695 0.991517
vt 0.000262 0.000442
vt 0.000000 0.992063
s 1
usemtl Color_Palette
f 1/1/1 2/2/2 3/3/3
f 1/1/1 4/4/4 2/2/2
f 5/5/5 4/4/4 1/1/1
f 6/2/6 4/4/4 5/5/5
f 7/6/7 4/7/4 6/8/6
f 7/6/7 8/9/8 4/7/4
f 7/13/7 10/14/10 9/15/9
f 7/13/7 11/16/11 10/14/10
f 12/17/12 11/18/11 7/19/7
f 12/17/12 13/20/13 11/18/11
f 12/21/12 14/22/14 13/23/13
f 15/24/15 14/22/14 12/21/12
f 15/25/15 16/26/16 14/27/14
f 15/28/15 17/29/17 16/30/16
f 17/29/17 15/28/15 6/8/6
f 6/8/6 15/28/15 12/31/12
f 6/8/6 12/31/12 7/6/7
f 18/3/18 17/32/17 6/2/6
f 19/33/19 17/32/17 18/3/18
f 19/33/19 20/32/20 17/32/17
f 19/33/19 3/3/3 20/32/20
f 3/3/3 2/2/2 20/32/20
f 9/43/9 25/44/25 24/45/24
f 10/46/10 25/47/25 9/48/9
f 10/46/10 26/49/26 25/47/25
f 27/50/27 26/51/26 10/52/10
f 27/50/27 28/52/28 26/51/26
f 29/48/29 28/46/28 27/53/27
f 26/54/26 28/14/28 29/15/29
f 26/54/26 29/15/29 25/55/25
f 25/44/25 29/43/29 24/45/24
f 24/45/24 29/43/29 30/56/30
f 30/56/30 29/43/29 31/57/31
f 29/48/29 27/53/27 31/58/31
f 31/59/31 27/60/27 32/61/32
f 32/62/32 27/50/27 10/52/10
f 33/63/33 32/62/32 10/52/10
f 34/64/34 32/65/32 33/66/33
f 34/64/34 35/67/35 32/65/32
f 34/68/34 36/69/36 35/70/35
f 24/45/24 30/56/30 38/76/38
f 37/77/37 38/76/38 30/56/30
f 36/69/36 37/77/37 30/56/30
f 36/69/36 30/56/30 31/57/31
f 36/69/36 31/57/31 35/70/35
f 31/59/31 32/61/32 35/78/35
f 39/81/39 34/82/34 40/83/40
f 34/82/34 33/84/33 40/83/40
f 40/85/40 33/63/33 11/86/11
f 33/63/33 10/52/10 11/86/11
f 40/85/40 11/86/11 13/87/13
f 40/85/40 13/87/13 14/88/14
f 14/27/14 16/26/16 40/89/40
f 16/26/16 39/26/39 40/89/40
f 17/29/17 39/30/39 16/30/16
f 17/29/17 20/29/20 39/30/39
f 5/5/5 18/3/18 6/2/6
f 41/91/41 42/92/42 43/93/43
f 44/94/44 42/92/42 41/91/41
f 48/95/48 47/96/47 46/97/46
f 48/95/48 49/98/49 47/96/47
f 50/99/50 49/100/49 48/101/48
f 50/99/50 51/102/51 49/100/49
f 51/103/51 50/104/50 52/105/52
f 52/106/52 50/107/50 53/108/53
f 50/107/50 54/109/54 53/108/53
f 54/110/54 50/99/50 48/101/48
f 55/111/55 54/110/54 48/101/48
f 54/112/54 55/113/55 53/114/53
f 53/114/53 55/113/55 56/115/56
f 55/116/55 57/117/57 56/118/56
f 48/119/48 57/117/57 55/116/55
f 48/119/48 46/117/46 57/117/57
f 57/120/57 46/120/46 58/121/58
f 46/120/46 44/121/44 58/121/58
f 58/94/58 44/94/44 59/122/59
f 44/94/44 41/91/41 59/122/59
f 60/91/60 58/94/58 59/122/59
f 61/92/61 58/94/58 60/91/60
f 61/123/61 56/124/56 58/121/58
f 53/125/53 56/124/56 61/123/61
f 52/126/52 53/125/53 61/123/61
f 61/123/61 62/127/62 52/126/52
f 63/128/63 62/129/62 61/92/61
f 43/93/43 62/129/62 63/128/63
f 42/92/42 62/129/62 43/93/43
f 67/130/67 51/103/51 52/105/52
f 67/131/67 68/132/68 51/133/51
f 69/134/69 68/135/68 67/136/67
f 69/134/69 70/136/70 68/135/68
f 71/137/71 70/136/70 69/134/69
f 72/138/72 70/136/70 71/137/71
f 72/139/72 73/140/73 70/131/70
f 74/141/74 73/142/73 72/143/72
f 51/102/51 73/144/73 74/145/74
f 51/102/51 75/146/75 73/144/73
f 68/132/68 75/147/75 51/133/51
f 68/148/68 70/130/70 75/149/75
f 70/130/70 76/103/76 75/149/75
f 73/140/73 76/133/76 70/131/70
f 75/146/75 76/102/76 73/144/73
f 51/102/51 74/145/74 49/100/49
f 49/150/49 74/151/74 47/152/47
f 74/151/74 77/153/77 47/152/47
f 77/154/77 74/141/74 72/143/72
f 77/155/77 72/138/72 78/156/78
f 72/138/72 71/137/71 78/156/78
f 71/137/71 79/157/79 78/156/78
f 71/137/71 80/158/80 79/157/79
f 80/158/80 71/137/71 69/134/69
f 77/155/77 78/156/78 47/159/47
f 62/127/62 64/160/64 52/126/52
f 61/92/61 60/91/60 63/128/63
f 57/120/57 58/121/58 56/124/56
f 81/161/81 83/162/82 82/163/83
f 84/164/84 83/162/82 81/161/81
f 84/165/84 85/166/85 83/167/82
f 85/166/85 84/165/84 86/168/86
f 84/165/84 87/169/87 86/168/86
f 84/165/84 88/170/88 87/169/87
f 89/171/89 88/170/88 84/165/84
f 89/171/89 90/172/90 88/170/88
f 91/173/91 90/172/90 89/171/89
f 91/174/91 92/175/92 90/176/90
f 92/175/92 91/174/91 93/175/93
f 93/175/93 91/174/91 94/174/94
f 91/173/91 89/171/89 94/173/94
f 94/173/94 89/171/89 95/177/95
f 95/177/95 89/171/89 96/165/96
f 89/171/89 97/178/97 96/165/96
f 89/171/89 84/165/84 97/178/97
f 84/164/84 81/161/81 97/179/97
f 81/161/81 344/180/98 97/179/97
f 344/180/98 343/161/99 97/179/97
f 97/179/97 343/161/99 96/164/96
f 83/162/82 96/164/96 343/161/99
f 96/165/96 83/167/82 85/166/85
f 96/165/96 85/166/85 98/181/100
f 99/182/94 98/181/100 85/166/85
f 99/183/94 100/184/101 98/185/100
f 101/183/102 100/184/101 99/183/94
f 101/183/102 102/184/103 100/184/101
f 101/183/102 103/186/104 102/184/103
f 101/182/102 85/166/85 103/187/104
f 85/166/85 101/182/102 99/182/94
f 85/166/85 86/168/86 103/187/104
f 103/187/104 86/168/86 104/188/105
f 86/168/86 105/189/106 104/188/105
f 86/168/86 87/169/87 105/189/106
f 87/169/87 106/190/107 105/189/106
f 87/169/87 107/191/108 106/190/107
f 87/169/87 108/192/109 107/191/108
f 109/193/110 108/192/109 87/169/87
f 109/194/110 110/195/111 108/196/109
f 109/194/110 111/197/112 110/195/111
f 109/194/110 112/198/113 111/197/112
f 113/199/114 112/198/113 109/194/110
f 114/200/115 112/201/113 113/202/114
f 115/203/116 112/201/113 114/200/115
f 116/204/117 112/201/113 115/203/116
f 95/205/95 112/201/113 116/204/117
f 112/206/113 95/177/95 117/207/118
f 95/177/95 118/208/119 117/207/118
f 95/177/95 96/165/96 118/208/119
f 118/208/119 96/165/96 119/209/120
f 96/165/96 120/210/121 119/209/120
f 96/165/96 98/181/100 120/210/121
f 120/210/121 98/181/100 121/211/122
f 122/212/123 121/211/122 98/181/100
f 122/212/123 123/213/124 121/211/122
f 122/212/123 124/214/125 123/213/124
f 105/215/106 124/216/125 122/217/123
f 105/215/106 125/218/126 124/216/125
f 105/215/106 106/219/107 125/218/126
f 126/220/127 125/218/126 106/219/107
f 126/220/127 127/221/128 125/218/126
f 128/222/129 127/223/128 126/224/127
f 127/225/128 128/226/129 129/227/130
f 128/228/129 130/229/131 129/230/130
f 131/231/132 130/229/131 128/228/129
f 131/232/132 132/233/133 130/234/131
f 133/235/134 132/233/133 131/232/132
f 133/235/134 134/236/135 132/233/133
f 135/237/136 134/236/135 133/235/134
f 135/237/136 136/238/137 134/236/135
f 135/237/136 137/239/138 136/238/137
f 135/237/136 138/240/139 137/239/138
f 139/241/140 138/240/139 135/237/136
f 138/240/139 139/241/140 140/242/141
f 139/241/140 141/243/142 140/242/141
f 139/241/140 142/244/143 141/243/142
f 143/245/144 142/244/143 139/241/140
f 144/234/145 143/245/144 139/241/140
f 144/234/145 139/241/140 133/235/134
f 133/235/134 139/241/140 135/237/136
f 144/234/145 133/235/134 131/232/132
f 142/244/143 145/244/146 141/243/142
f 142/244/143 146/246/147 145/244/146
f 147/247/148 146/246/147 142/244/143
f 147/247/148 148/248/149 146/246/147
f 149/249/150 148/248/149 147/247/148
f 149/249/150 150/250/151 148/248/149
f 149/249/150 151/251/152 150/250/151
f 152/252/153 151/251/152 149/249/150
f 152/252/153 153/253/154 151/251/152
f 152/252/153 154/254/155 153/253/154
f 152/252/153 155/255/156 154/254/155
f 155/255/156 152/252/153 147/247/148
f 147/247/148 152/252/153 149/249/150
f 156/256/157 155/255/156 147/247/148
f 156/256/157 157/257/158 155/255/156
f 155/255/156 157/257/158 158/258/159
f 157/257/158 159/256/160 158/258/159
f 157/259/158 160/260/161 159/261/160
f 161/262/162 160/260/161 157/259/158
f 161/262/162 162/263/163 160/260/161
f 162/263/163 161/262/162 163/264/164
f 163/264/164 161/262/162 164/265/165
f 163/264/164 164/265/165 165/266/166
f 164/265/165 166/267/167 165/266/166
f 166/267/167 167/268/168 165/266/166
f 168/269/169 165/266/166 167/268/168
f 169/270/170 165/271/166 168/272/169
f 169/270/170 163/273/164 165/271/166
f 170/274/171 163/273/164 169/270/170
f 162/275/163 163/273/164 170/274/171
f 162/275/163 170/274/171 171/276/172
f 172/277/173 171/278/172 170/279/171
f 172/280/173 173/281/174 171/282/172
f 173/283/174 172/277/173 174/284/175
f 174/284/175 172/277/173 175/285/176
f 172/277/173 170/279/171 175/285/176
f 175/285/176 170/279/171 169/286/170
f 175/285/176 169/286/170 176/287/177
f 169/286/170 177/288/178 176/287/177
f 169/286/170 178/289/179 177/288/178
f 178/290/179 169/270/170 168/272/169
f 179/291/180 178/290/179 168/272/169
f 178/290/179 179/291/180 180/292/181
f 181/293/182 180/294/181 179/295/180
f 180/294/181 181/293/182 182/296/183
f 183/297/184 182/296/183 181/293/182
f 183/297/184 180/294/181 182/296/183
f 183/298/184 184/299/185 180/300/181
f 184/299/185 183/298/184 185/301/186
f 173/281/174 185/301/186 183/298/184
f 173/281/174 186/302/187 185/301/186
f 186/303/187 173/283/174 174/284/175
f 186/303/187 174/284/175 184/304/185
f 184/304/185 174/284/175 187/305/188
f 174/284/175 177/288/178 187/305/188
f 174/284/175 176/287/177 177/288/178
f 174/284/175 175/285/176 176/287/177
f 187/305/188 177/288/178 178/289/179
f 187/305/188 178/289/179 180/306/181
f 187/307/188 180/300/181 184/299/185
f 186/302/187 184/299/185 185/301/186
f 173/281/174 183/298/184 171/282/172
f 188/308/189 171/309/172 183/297/184
f 188/308/189 162/310/163 171/309/172
f 162/310/163 188/308/189 189/311/190
f 189/311/190 188/308/189 183/297/184
f 189/311/190 183/297/184 181/293/182
f 107/191/108 189/312/190 181/313/182
f 108/192/109 189/312/190 107/191/108
f 189/312/190 108/192/109 190/314/191
f 190/315/191 108/196/109 110/195/111
f 190/315/191 110/195/111 191/316/192
f 191/317/192 110/318/111 192/319/193
f 110/318/111 193/320/194 192/319/193
f 111/321/112 193/320/194 110/318/111
f 111/197/112 194/322/195 193/323/194
f 111/197/112 195/324/196 194/322/195
f 111/321/112 196/325/197 195/326/196
f 111/321/112 197/327/198 196/325/197
f 112/206/113 197/327/198 111/321/112
f 112/206/113 117/207/118 197/327/198
f 197/327/198 117/207/118 198/328/199
f 198/328/199 117/207/118 199/329/200
f 117/207/118 200/330/201 199/329/200
f 117/207/118 119/209/120 200/330/201
f 117/207/118 118/208/119 119/209/120
f 200/330/201 119/209/120 201/331/202
f 119/209/120 121/211/122 201/331/202
f 119/209/120 120/210/121 121/211/122
f 201/331/202 121/211/122 202/332/203
f 202/332/203 121/211/122 203/333/204
f 123/213/124 203/333/204 121/211/122
f 123/213/124 204/334/205 203/333/204
f 124/214/125 204/334/205 123/213/124
f 124/214/125 205/335/206 204/334/205
f 124/216/125 206/336/207 205/337/206
f 207/338/208 206/336/207 124/216/125
f 208/339/209 206/336/207 207/338/208
f 208/339/209 209/340/210 206/336/207
f 210/341/211 209/340/210 208/339/209
f 211/342/212 209/340/210 210/341/211
f 211/342/212 212/343/213 209/340/210
f 213/344/214 212/343/213 211/342/212
f 214/345/215 212/346/213 213/347/214
f 215/348/216 212/346/213 214/345/215
f 215/348/216 216/349/217 212/346/213
f 217/350/218 216/349/217 215/348/216
f 205/335/206 216/349/217 217/350/218
f 206/336/207 216/351/217 205/337/206
f 209/340/210 216/351/217 206/336/207
f 212/343/213 216/351/217 209/340/210
f 204/334/205 205/335/206 217/350/218
f 204/334/205 217/350/218 203/333/204
f 202/332/203 203/333/204 217/350/218
f 202/332/203 217/350/218 215/348/216
f 202/332/203 215/348/216 201/331/202
f 201/331/202 215/348/216 214/345/215
f 214/345/215 200/330/201 201/331/202
f 200/330/201 214/345/215 218/352/219
f 214/345/215 213/347/214 218/352/219
f 218/352/219 213/347/214 219/353/220
f 213/344/214 220/354/221 219/355/220
f 213/344/214 211/342/212 220/354/221
f 211/342/212 221/356/222 220/354/221
f 221/356/222 211/342/212 210/341/211
f 221/356/222 210/341/211 222/357/223
f 222/357/223 210/341/211 208/339/209
f 223/358/224 222/357/223 208/339/209
f 223/358/224 221/356/222 222/357/223
f 224/359/225 221/356/222 223/358/224
f 224/359/225 220/354/221 221/356/222
f 219/355/220 220/354/221 224/359/225
f 225/360/226 219/355/220 224/359/225
f 226/361/227 219/353/220 225/362/226
f 226/361/227 218/352/219 219/353/220
f 200/330/201 218/352/219 226/361/227
f 200/330/201 226/361/227 199/329/200
f 199/329/200 226/361/227 227/363/228
f 226/361/227 225/362/226 227/363/228
f 195/326/196 227/363/228 225/362/226
f 196/325/197 227/363/228 195/326/196
f 196/325/197 198/328/199 227/363/228
f 197/327/198 198/328/199 196/325/197
f 227/363/228 198/328/199 199/329/200
f 194/322/195 195/324/196 225/360/226
f 225/360/226 224/359/225 194/322/195
f 194/322/195 224/359/225 223/358/224
f 194/322/195 223/358/224 193/323/194
f 193/320/194 223/364/224 192/319/193
f 223/364/224 228/365/229 192/319/193
f 208/366/209 228/365/229 223/364/224
f 208/366/209 229/367/230 228/365/229
f 207/368/208 229/367/230 208/366/209
f 125/369/126 229/367/230 207/368/208
f 127/370/128 229/367/230 125/369/126
f 230/371/231 229/367/230 127/370/128
f 228/365/229 229/367/230 230/371/231
f 228/365/229 230/371/231 192/319/193
f 192/319/193 230/371/231 191/317/192
f 191/372/192 230/373/231 231/374/232
f 230/375/231 232/376/233 231/377/232
f 127/225/128 232/378/233 230/373/231
f 127/225/128 233/297/234 232/378/233
f 127/225/128 129/227/130 233/297/234
f 233/297/234 129/227/130 234/379/235
f 129/227/130 145/380/146 234/379/235
f 129/230/130 235/381/236 145/382/146
f 129/230/130 130/229/131 235/381/236
f 130/234/131 236/383/237 235/384/236
f 132/233/133 236/383/237 130/234/131
f 132/233/133 237/385/238 236/383/237
f 132/233/133 134/236/135 237/385/238
f 237/385/238 134/236/135 136/238/137
f 136/238/137 238/386/239 237/385/238
f 237/385/238 238/386/239 239/387/240
f 239/387/240 238/386/239 240/239/241
f 239/387/240 240/239/241 140/242/141
f 241/388/242 140/242/141 240/239/241
f 138/240/139 140/242/141 241/388/242
f 138/240/139 241/388/242 137/239/138
f 141/243/142 239/387/240 140/242/141
f 141/243/142 242/389/243 239/387/240
f 141/243/142 235/384/236 242/389/243
f 145/244/146 235/384/236 141/243/142
f 235/384/236 236/383/237 242/389/243
f 236/383/237 237/385/238 242/389/243
f 242/389/243 237/385/238 239/387/240
f 234/390/235 145/382/146 243/391/244
f 145/244/146 146/246/147 243/392/244
f 146/246/147 244/393/245 243/392/244
f 146/246/147 245/394/246 244/393/245
f 146/246/147 148/248/149 245/394/246
f 245/394/246 148/248/149 246/251/247
f 150/250/151 246/251/247 148/248/149
f 245/394/246 246/251/247 247/395/248
f 248/396/249 245/394/246 247/395/248
f 244/393/245 245/394/246 248/396/249
f 244/393/245 248/396/249 249/397/250
f 158/258/159 249/397/250 248/396/249
f 158/258/159 159/256/160 249/397/250
f 159/256/160 243/392/244 249/397/250
f 234/390/235 243/391/244 159/261/160
f 160/260/161 234/390/235 159/261/160
f 191/372/192 234/379/235 160/398/161
f 191/372/192 233/297/234 234/379/235
f 191/372/192 231/374/232 233/297/234
f 232/376/233 233/399/234 231/377/232
f 160/400/161 190/401/191 191/402/192
f 162/310/163 190/403/191 160/398/161
f 162/310/163 189/311/190 190/403/191
f 243/392/244 244/393/245 249/397/250
f 158/258/159 248/396/249 154/254/155
f 248/396/249 153/253/154 154/254/155
f 153/253/154 248/396/249 247/395/248
f 155/255/156 158/258/159 154/254/155
f 124/214/125 125/369/126 207/368/208
f 107/191/108 181/313/182 106/190/107
f 181/313/182 126/404/127 106/190/107
f 181/293/182 179/295/180 126/405/127
f 179/295/180 128/226/129 126/405/127
f 250/406/251 128/228/129 179/407/180
f 250/406/251 131/231/132 128/228/129
f 179/407/180 168/269/169 250/406/251
f 168/269/169 167/268/168 250/406/251
f 156/256/157 147/247/148 251/408/252
f 251/408/252 147/247/148 142/244/143
f 104/409/105 105/215/106 122/217/123
f 122/410/123 252/411/253 104/412/105
f 122/410/123 253/413/254 252/411/253
f 122/410/123 254/414/255 253/413/254
f 98/185/100 254/414/255 122/410/123
f 98/185/100 255/415/256 254/414/255
f 100/184/101 255/415/256 98/185/100
f 100/184/101 256/416/257 255/415/256
f 102/184/103 256/416/257 100/184/101
f 103/186/104 256/416/257 102/184/103
f 103/186/104 257/417/258 256/416/257
f 103/186/104 104/412/105 257/417/258
f 104/412/105 258/418/259 257/417/258
f 104/412/105 252/411/253 258/418/259
f 252/411/253 259/419/260 258/418/259
f 259/419/260 252/411/253 253/413/254
f 253/413/254 260/420/261 259/419/260
f 254/414/255 260/420/261 253/413/254
f 254/414/255 261/421/262 260/420/261
f 254/414/255 262/422/263 261/421/262
f 255/415/256 262/422/263 254/414/255
f 255/415/256 263/423/264 262/422/263
f 264/424/265 263/423/264 255/415/256
f 264/424/265 265/425/266 263/423/264
f 264/424/265 266/415/267 265/425/266
f 256/416/257 266/415/267 264/424/265
f 256/416/257 257/417/258 266/415/267
f 257/417/258 258/418/259 266/415/267
f 266/415/267 258/418/259 259/419/260
f 266/415/267 259/419/260 265/425/266
f 265/425/266 259/419/260 267/426/268
f 259/419/260 260/420/261 267/426/268
f 260/420/261 261/421/262 267/426/268
f 267/426/268 261/421/262 268/427/269
f 269/428/270 268/427/269 261/421/262
f 269/428/270 270/429/271 268/427/269
f 269/428/270 271/430/272 270/429/271
f 269/428/270 272/431/273 271/430/272
f 269/428/270 273/432/274 272/431/273
f 262/422/263 273/432/274 269/428/270
f 262/422/263 274/433/275 273/432/274
f 275/434/276 274/433/275 262/422/263
f 275/434/276 276/435/277 274/433/275
f 276/435/277 275/434/276 277/436/278
f 263/423/264 277/436/278 275/434/276
f 263/423/264 265/425/266 277/436/278
f 265/425/266 268/427/269 277/436/278
f 265/425/266 267/426/268 268/427/269
f 277/436/278 268/427/269 270/429/271
f 276/435/277 277/436/278 270/429/271
f 276/435/277 270/429/271 278/437/279
f 270/429/271 279/438/280 278/437/279
f 280/439/281 279/438/280 270/429/271
f 280/439/281 281/440/282 279/438/280
f 282/441/283 281/440/282 280/439/281
f 283/442/284 281/440/282 282/441/283
f 283/442/284 284/443/285 281/440/282
f 283/442/284 285/444/286 284/443/285
f 283/442/284 286/445/287 285/444/286
f 287/446/288 286/445/287 283/442/284
f 287/446/288 288/447/289 286/445/287
f 289/448/290 288/447/289 287/446/288
f 288/447/289 289/448/290 290/449/291
f 290/449/291 289/448/290 283/442/284
f 283/442/284 289/448/290 287/446/288
f 283/442/284 291/450/292 290/449/291
f 292/451/293 291/450/292 283/442/284
f 292/451/293 278/437/279 291/450/292
f 292/451/293 276/435/277 278/437/279
f 292/451/293 293/452/294 276/435/277
f 292/451/293 283/442/284 293/452/294
f 293/452/294 283/442/284 282/441/283
f 293/452/294 282/441/283 274/433/275
f 282/441/283 280/439/281 274/433/275
f 273/432/274 274/433/275 280/439/281
f 280/439/281 294/453/295 273/432/274
f 271/430/272 294/453/295 280/439/281
f 271/430/272 295/454/296 294/453/295
f 271/430/272 272/431/273 295/454/296
f 272/431/273 296/454/297 295/454/296
f 272/431/273 297/455/298 296/454/297
f 273/432/274 297/455/298 272/431/273
f 273/432/274 294/453/295 297/455/298
f 294/453/295 298/456/299 297/455/298
f 295/454/296 298/456/299 294/453/295
f 296/454/297 298/456/299 295/454/296
f 297/455/298 298/456/299 296/454/297
f 270/429/271 271/430/272 280/439/281
f 274/433/275 276/435/277 293/452/294
f 291/450/292 278/437/279 288/447/289
f 279/438/280 288/447/289 278/437/279
f 279/438/280 284/443/285 288/447/289
f 281/440/282 284/443/285 279/438/280
f 284/443/285 285/444/286 288/447/289
f 288/447/289 285/444/286 286/445/287
f 290/449/291 291/450/292 288/447/289
f 263/423/264 275/434/276 262/422/263
f 262/422/263 269/428/270 261/421/262
f 256/416/257 264/424/265 255/415/256
f 95/205/95 116/204/117 299/457/300
f 299/457/300 116/204/117 300/458/301
f 116/204/117 301/459/302 300/458/301
f 116/204/117 302/460/303 301/459/302
f 302/460/303 116/204/117 115/203/116
f 302/460/303 115/203/116 303/461/304
f 303/461/304 115/203/116 114/200/115
f 303/461/304 114/200/115 304/462/305
f 304/462/305 114/200/115 113/202/114
f 113/202/114 305/463/306 304/462/305
f 90/176/90 305/463/306 113/202/114
f 90/176/90 306/464/307 305/463/306
f 306/464/307 90/176/90 92/175/92
f 306/464/307 92/175/92 93/175/93
f 299/457/300 306/464/307 93/175/93
f 307/465/308 306/464/307 299/457/300
f 307/465/308 308/457/267 306/464/307
f 307/465/308 309/466/309 308/457/267
f 309/466/309 307/465/308 310/467/310
f 310/467/310 307/465/308 299/457/300
f 300/458/301 310/467/310 299/457/300
f 311/468/311 310/467/310 300/458/301
f 310/467/310 311/468/311 312/469/312
f 313/470/313 312/469/312 311/468/311
f 313/470/313 314/471/314 312/469/312
f 313/470/313 315/472/315 314/471/314
f 316/473/316 315/472/315 313/470/313
f 317/474/317 315/472/315 316/473/316
f 317/474/317 318/475/318 315/472/315
f 319/476/319 318/475/318 317/474/317
f 318/475/318 319/476/319 320/477/320
f 319/476/319 321/478/321 320/477/320
f 319/476/319 317/474/317 321/478/321
f 317/474/317 316/473/316 321/478/321
f 321/478/321 316/473/316 322/479/322
f 313/470/313 322/479/322 316/473/316
f 322/479/322 313/470/313 323/480/323
f 313/470/313 311/468/311 323/480/323
f 323/480/323 311/468/311 300/458/301
f 323/480/323 300/458/301 324/481/324
f 300/458/301 325/482/325 324/481/324
f 301/459/302 325/482/325 300/458/301
f 326/483/326 325/482/325 301/459/302
f 314/471/314 325/482/325 326/483/326
f 314/471/314 327/484/327 325/482/325
f 314/471/314 328/485/328 327/484/327
f 329/486/329 328/485/328 314/471/314
f 329/486/329 330/487/330 328/485/328
f 331/488/331 330/487/330 329/486/329
f 321/478/321 330/487/330 331/488/331
f 321/478/321 332/489/332 330/487/330
f 322/479/322 332/489/332 321/478/321
f 322/479/322 323/480/323 332/489/332
f 323/480/323 328/485/328 332/489/332
f 328/485/328 323/480/323 324/481/324
f 324/481/324 333/490/333 328/485/328
f 324/481/324 334/491/334 333/490/333
f 324/481/324 335/492/335 334/491/334
f 325/482/325 335/492/335 324/481/324
f 327/484/327 335/492/335 325/482/325
f 327/484/327 336/493/336 335/492/335
f 327/484/327 333/490/333 336/493/336
f 327/484/327 328/485/328 333/490/333
f 336/493/336 333/490/333 337/494/337
f 333/490/333 334/491/334 337/494/337
f 334/491/334 338/493/338 337/494/337
f 335/492/335 338/493/338 334/491/334
f 338/493/338 335/492/335 336/493/336
f 337/494/337 338/493/338 336/493/336
f 332/489/332 328/485/328 330/487/330
f 321/478/321 331/488/331 339/495/339
f 339/495/339 331/488/331 318/475/318
f 331/488/331 329/486/329 318/475/318
f 318/475/318 329/486/329 315/472/315
f 329/486/329 314/471/314 315/472/315
f 339/495/339 318/475/318 340/496/340
f 341/497/341 340/496/340 318/475/318
f 321/478/321 340/496/340 341/497/341
f 339/495/339 340/496/340 321/478/321
f 341/497/341 320/477/320 321/478/321
f 320/477/320 341/497/341 318/475/318
f 314/471/314 326/483/326 312/469/312
f 309/466/309 312/469/312 326/483/326
f 312/469/312 309/466/309 310/467/310
f 309/466/309 326/483/326 342/498/342
f 326/483/326 301/459/302 342/498/342
f 301/459/302 302/460/303 342/498/342
f 302/460/303 303/461/304 342/498/342
f 309/466/309 342/498/342 303/461/304
f 309/466/309 303/461/304 308/457/267
f 308/457/267 303/461/304 304/462/305
f 308/457/267 304/462/305 305/463/306
f 306/464/307 308/457/267 305/463/306
f 93/175/93 95/205/95 299/457/300
f 94/174/94 95/205/95 93/175/93
f 90/172/90 113/499/114 88/170/88
f 88/170/88 113/499/114 109/193/110
f 88/170/88 109/193/110 87/169/87
f 83/162/82 343/161/99 82/163/83
f 345/500/343 346/500/344 81/500/81
f 347/501/345 349/501/346 348/501/347
f 350/500/348 81/500/81 351/500/349
f 346/502/344 353/502/350 352/502/351
f 354/503/352 356/503/353 355/503/354
f 360/503/355 362/503/356 361/503/357
f 351/504/349 81/504/81 82/504/83
f 363/505/358 365/505/359 364/505/360
f 343/505/99 366/505/361 364/505/360
f 367/503/362 369/503/363 368/503/364
f 370/502/365 372/502/366 371/502/367
f 373/505/368 374/505/369 368/505/364
f 375/506/370 376/506/371 373/506/368
f 350/500/348 351/500/349 377/500/372
f 370/502/365 379/502/373 378/502/374
f 380/502/375 370/502/365 378/502/374
f 381/502/376 383/502/377 382/502/378
f 370/502/365 380/502/375 384/502/379
f 368/503/364 369/503/363 357/503/380
f 372/502/366 361/502/357 385/502/381
f 361/503/357 372/503/366 355/503/354
f 81/504/81 346/504/344 344/504/98
f 386/506/382 387/506/383 363/506/358
f 388/507/384 390/507/385 389/507/386
f 384/508/379 388/508/384 389/508/386
f 391/509/387 393/509/388 392/509/389
f 355/503/354 394/503/390 361/503/357
f 375/506/370 395/506/391 376/506/371
f 368/505/364 395/505/391 375/505/370
f 365/505/359 395/505/391 357/505/380
f 357/510/380 396/510/392 359/510/393
f 351/500/349 397/500/394 381/500/376
f 398/503/395 393/503/388 362/503/356
f 384/508/379 390/508/385 372/508/366
f 399/502/396 401/502/397 400/502/398
f 362/503/356 393/503/388 391/503/387
f 402/501/399 348/501/347 368/501/364
f 403/511/400 405/511/401 404/511/402
f 355/512/354 356/512/353 394/512/390
f 406/502/403 408/502/404 407/502/405
f 409/502/406 401/502/397 407/502/405
f 382/502/378 410/502/407 381/502/376
f 369/503/363 396/503/392 357/503/380
f 361/503/357 394/503/390 411/503/408
f 363/505/358 366/505/361 412/505/409
f 413/505/410 414/505/411 403/505/400
f 355/502/354 415/502/412 380/502/375
f 411/503/408 396/503/392 416/503/413
f 417/505/414 365/505/359 418/505/415
f 416/503/413 396/503/392 419/503/416
f 354/513/352 420/513/417 359/513/393
f 378/502/374 382/502/378 380/502/375
f 368/505/364 375/505/370 373/505/368
f 421/501/418 347/501/345 402/501/399
f 404/506/402 386/506/382 422/506/419
f 378/502/374 379/502/373 410/502/407
f 346/502/344 352/502/351 407/502/405
f 358/505/420 418/505/415 365/505/359
f 366/505/361 363/505/358 364/505/360
f 356/513/353 359/513/393 396/513/392
f 350/502/348 423/502/421 410/502/407
f 396/513/392 411/513/408 356/513/353
f 413/510/410 391/510/387 392/510/389
f 417/503/414 397/503/394 364/503/360
f 364/505/360 82/505/83 343/505/99
f 415/507/412 390/507/385 388/507/384
f 395/505/391 368/505/364 357/505/380
f 359/513/393 356/513/353 354/513/352
f 364/504/360 351/504/349 82/504/83
f 354/509/352 424/509/422 420/509/417
f 386/506/382 425/506/423 387/506/383
f 402/501/399 347/501/345 348/501/347
f 402/501/399 374/501/369 421/501/418
f 355/502/354 382/502/378 383/502/377
f 365/511/359 425/511/423 395/511/391
f 391/503/387 427/503/424 426/503/425
f 362/500/356 426/500/425 407/500/405
f 374/501/369 349/501/346 421/501/418
f 357/505/380 358/505/420 365/505/359
f 404/514/402 422/514/419 428/514/426
f 382/502/378 378/502/374 410/502/407
f 429/501/427 349/501/346 374/501/369
f 351/504/349 364/504/360 397/504/394
f 367/501/362 368/501/364 348/501/347
f 424/515/422 418/515/415 358/515/420
f 406/502/403 352/502/351 430/502/428
f 416/503/413 360/503/355 361/503/357
f 420/515/429 431/515/429 424/515/429
f 386/506/382 363/506/358 412/506/409
f 387/506/383 425/506/423 363/506/358
f 365/516/359 363/516/358 425/516/423
f 354/503/352 355/503/354 424/503/422
f 376/511/371 395/511/391 425/511/423
f 424/510/422 358/510/420 420/510/417
f 386/506/382 376/506/371 425/506/423
f 402/501/399 368/501/364 374/501/369
f 411/512/408 394/512/390 356/512/353
f 384/502/379 372/502/366 370/502/365
f 398/512/395 362/512/356 360/512/355
f 430/502/428 345/502/343 379/502/373
f 401/500/397 385/500/381 362/500/356
f 399/500/396 433/500/430 385/500/381
f 403/505/400 428/505/426 434/505/431
f 424/503/422 355/503/354 383/503/377
f 366/505/361 343/505/99 434/505/431
f 369/503/363 367/503/362 429/503/427
f 416/503/413 361/503/357 411/503/408
f 374/505/369 373/505/368 429/505/427
f 376/506/371 435/506/432 373/506/368
f 408/502/404 379/502/373 370/502/365
f 427/504/424 434/504/431 346/504/344
f 407/502/405 352/502/351 406/502/403
f 407/500/405 426/500/425 427/500/424
f 350/502/348 410/502/407 345/502/343
f 429/501/427 367/501/362 348/501/347
f 353/502/350 430/502/428 352/502/351
f 345/502/343 430/502/428 436/502/433
f 369/503/363 429/503/427 414/503/411
f 384/502/379 380/502/375 415/502/412
f 408/502/404 406/502/403 379/502/373
f 418/503/415 424/503/422 397/503/394
f 398/512/395 360/512/355 416/512/413
f 361/500/357 362/500/356 385/500/381
f 381/500/376 397/500/394 383/500/377
f 422/506/419 386/506/382 428/506/426
f 372/507/366 390/507/385 415/507/412
f 355/502/354 372/502/366 415/502/412
f 428/516/426 403/516/400 404/516/402
f 437/515/434 391/515/387 413/515/410
f 401/500/397 362/500/356 407/500/405
f 405/506/401 435/506/432 376/506/371
f 405/505/401 429/505/427 435/505/432
f 405/505/401 403/505/400 414/505/411
f 419/510/416 414/510/411 432/510/435
f 407/500/405 427/500/424 346/500/344
f 371/502/367 400/502/398 408/502/404
f 384/508/379 389/508/386 390/508/385
f 81/500/81 350/500/348 345/500/343
f 348/501/347 349/501/346 429/501/427
f 383/503/377 397/503/394 424/503/422
f 409/502/406 400/502/398 401/502/397
f 392/515/436 438/515/436 391/515/436
f 346/500/344 345/500/343 353/500/350
f 381/502/376 377/502/372 351/502/349
f 391/503/387 437/503/434 427/503/424
f 353/502/350 436/502/433 430/502/428
f 419/503/416 369/503/363 414/503/411
f 428/506/426 386/506/382 412/506/409
f 366/505/361 428/505/426 412/505/409
f 408/502/404 370/502/365 371/502/367
f 436/500/433 353/500/350 345/500/343
f 380/502/375 382/502/378 355/502/354
f 372/502/366 439/502/437 371/502/367
f 345/502/343 410/502/407 379/502/373
f 403/505/400 440/505/438 437/505/434
f 369/503/363 419/503/416 396/503/392
f 392/513/389 393/513/388 432/513/435
f 407/502/405 408/502/404 409/502/406
f 435/505/432 429/505/427 373/505/368
f 347/501/345 421/501/418 349/501/346
f 404/506/402 376/506/371 386/506/382
f 379/502/373 406/502/403 430/502/428
f 377/500/372 423/500/421 350/500/348
f 377/502/372 381/502/376 410/502/407
f 377/502/372 410/502/407 423/502/421
f 437/505/434 413/505/410 403/505/400
f 428/505/426 366/505/361 434/505/431
f 398/513/395 416/513/413 419/513/416
f 391/503/387 426/503/425 362/503/356
f 419/513/416 432/513/435 398/513/395
f 427/503/424 440/503/438 434/503/431
f 344/505/98 434/505/431 343/505/99
f 400/502/398 409/502/406 408/502/404
f 384/508/379 415/508/412 388/508/384
f 429/505/427 405/505/401 414/505/411
f 376/511/371 404/511/402 405/511/401
f 398/513/395 432/513/435 393/513/388
f 346/504/344 434/504/431 344/504/98
f 399/502/396 371/502/367 439/502/437
f 385/500/381 401/500/397 399/500/396
f 400/502/398 371/502/367 399/502/396
f 433/502/430 439/502/437 385/502/381
f 372/502/366 385/502/381 439/502/437
f 399/502/396 439/502/437 433/502/430
f 418/503/415 397/503/394 417/503/414
f 364/505/360 365/505/359 417/505/414
f 403/505/400 434/505/431 440/505/438
f 427/503/424 437/503/434 440/503/438
usemtl Shoes
f 7/10/7 9/11/9 8/12/8
f 2/34/2 21/35/21 20/36/20
f 2/34/2 8/37/8 21/35/21
f 4/38/4 8/37/8 2/34/2
f 21/39/21 8/12/8 22/40/22
f 22/40/22 8/12/8 23/41/23
f 23/41/23 8/12/8 9/11/9
f 9/11/9 24/42/24 23/41/23
f 22/40/22 36/71/36 34/72/34
f 22/40/22 37/73/37 36/71/36
f 22/40/22 23/41/23 37/73/37
f 37/73/37 23/41/23 38/74/38
f 23/41/23 24/42/24 38/75/38
f 22/40/22 34/72/34 21/79/21
f 21/79/21 34/72/34 39/80/39
f 20/36/20 21/35/21 39/90/39
f 44/36/44 45/35/45 42/34/42
f 46/90/46 45/35/45 44/36/44
f 46/80/46 47/72/47 45/79/45
f 42/34/42 64/37/64 62/38/62
f 45/35/45 64/37/64 42/34/42
f 65/40/65 64/12/64 45/39/45
f 66/41/66 64/12/64 65/40/65
f 67/11/67 64/12/64 66/41/66
f 64/12/64 67/11/67 52/10/52
f 80/75/80 69/42/69 66/41/66
f 66/41/66 69/42/69 67/11/67
f 80/74/80 66/41/66 79/73/79
f 79/73/79 66/41/66 65/40/65
f 78/71/78 79/73/79 65/40/65
f 47/72/47 78/71/78 65/40/65
f 45/79/45 47/72/47 65/40/65
usemtl Pupil
f 357/517/380 359/518/393 358/519/420
f 420/520/417 358/519/420 359/518/393
f 392/518/389 432/520/435 413/517/410
f 414/519/411 413/517/410 432/520/435
