# Cube.013 -- imported by tools/import_asset_pack.py from psx.fbx
o __pending__
v -1.243267 0.157584 2.597833
v -1.243267 0.219610 2.783623
v -1.243267 0.219610 2.597833
v -1.243267 0.219610 2.597833
v -1.147459 0.082701 2.597833
v -1.243267 0.157584 2.597833
v -1.243267 0.219610 2.597833
v -0.243266 0.219610 2.783623
v -0.243266 0.219610 2.597833
v -0.339074 0.082701 2.783623
v -0.271328 0.104634 2.783623
v -0.243266 0.157584 2.783623
v -1.215205 0.104634 2.597833
v -1.243267 0.157584 2.783623
v -1.147459 0.082701 2.597833
v -1.215205 0.104634 2.783623
v -1.215205 0.104634 2.597833
v -0.339074 0.082701 2.597833
v -1.147459 0.082701 2.783623
v -0.271328 0.104634 2.597833
v -0.339074 0.082701 2.783623
v -0.243266 0.157584 2.597833
v -0.271328 0.104634 2.783623
v -0.271328 0.104634 2.597833
v -0.243266 0.219610 2.597833
v -0.243266 0.157584 2.783623
v -0.243266 0.219610 2.597833
v -0.339074 0.082701 2.597833
v -0.243266 0.157584 2.597833
v -0.271328 0.104634 2.597833
v -1.215205 0.104634 2.597833
v -1.243267 0.219610 2.783623
v -0.243266 0.219610 2.783623
v -1.243267 0.219610 2.783623
v -1.243267 0.157584 2.783623
v -1.147459 0.082701 2.783623
v -1.215205 0.104634 2.783623
v -1.215205 0.104634 2.783623
v -0.271328 0.104634 2.783623
v -0.243266 0.219610 2.783623
vt 0.329320 0.034645
vt 0.325389 0.022870
vt 0.325389 0.034645
vt 0.653535 0.080073
vt 0.644868 0.074099
vt 0.649609 0.080097
vt 0.035512 0.091674
vt 0.047287 0.028294
vt 0.035512 0.028294
vt 0.524696 0.024391
vt 0.523306 0.020097
vt 0.519951 0.018319
vt 0.332681 0.034639
vt 0.329320 0.022870
vt 0.502279 0.026169
vt 0.514054 0.021876
vt 0.502279 0.021876
vt 0.502279 0.077405
vt 0.514054 0.026169
vt 0.502279 0.081699
vt 0.514054 0.077405
vt 0.234289 0.035211
vt 0.230928 0.023305
vt 0.230928 0.034915
vt 0.238220 0.035209
vt 0.234289 0.023601
vt 0.653535 0.017166
vt 0.644868 0.023246
vt 0.649609 0.017190
vt 0.646257 0.018976
vt 0.646257 0.078353
vt 0.047287 0.091674
vt 0.516021 0.018319
vt 0.516021 0.081699
vt 0.519951 0.081699
vt 0.524696 0.075626
vt 0.523306 0.079920
vt 0.332681 0.022864
vt 0.514054 0.081699
vt 0.238220 0.023599
vn -0.731938 -0.181965 -0.656625
vn -0.577326 0.577357 0.577368
vn -0.577349 0.577340 -0.577362
vn -0.577349 0.577340 -0.577362
vn -0.115227 -0.730024 -0.673637
vn -0.731938 -0.181965 -0.656625
vn -0.577349 0.577340 -0.577362
vn 0.577349 0.577340 0.577362
vn 0.577325 0.577356 -0.577369
vn 0.115226 -0.730023 0.673639
vn 0.498484 -0.593893 0.631510
vn 0.731936 -0.181965 0.656626
vn -0.498487 -0.593892 -0.631509
vn -0.731940 -0.181956 0.656625
vn -0.115227 -0.730024 -0.673637
vn -0.498498 -0.593882 0.631510
vn -0.498487 -0.593892 -0.631509
vn 0.115232 -0.730026 -0.673635
vn -0.115232 -0.730026 0.673634
vn 0.498498 -0.593882 -0.631509
vn 0.115226 -0.730023 0.673639
vn 0.731940 -0.181956 -0.656625
vn 0.498484 -0.593893 0.631510
vn 0.498498 -0.593882 -0.631509
vn 0.577325 0.577356 -0.577369
vn 0.731936 -0.181965 0.656626
vn 0.577325 0.577356 -0.577369
vn 0.115232 -0.730026 -0.673635
vn 0.731940 -0.181956 -0.656625
vn 0.498498 -0.593882 -0.631509
vn -0.498487 -0.593892 -0.631509
vn -0.577326 0.577357 0.577368
vn 0.577349 0.577340 0.577362
vn -0.577326 0.577357 0.577368
vn -0.731940 -0.181956 0.656625
vn -0.115232 -0.730026 0.673634
vn -0.498498 -0.593882 0.631510
vn -0.498498 -0.593882 0.631510
vn 0.498484 -0.593893 0.631510
vn 0.577349 0.577340 0.577362
f 1/1/1 2/2/2 3/3/3
f 4/4/4 5/5/5 6/6/6
f 7/7/7 8/8/8 9/9/9
f 10/10/10 11/11/11 12/12/12
f 13/13/13 14/14/14 1/1/1
f 15/15/15 16/16/16 17/17/17
f 18/18/18 19/19/19 15/15/15
f 20/20/20 21/21/21 18/18/18
f 22/22/22 23/23/23 24/24/24
f 25/25/25 26/26/26 22/22/22
f 1/1/1 14/14/14 2/2/2
f 4/4/4 27/27/27 28/28/28
f 27/27/27 29/29/29 28/28/28
f 29/29/29 30/30/30 28/28/28
f 28/28/28 5/5/5 4/4/4
f 5/5/5 31/31/31 6/6/6
f 7/7/7 32/32/32 8/8/8
f 12/12/12 33/33/33 10/10/10
f 33/33/33 34/34/34 10/10/10
f 34/34/34 35/35/35 36/36/36
f 35/35/35 37/37/37 36/36/36
f 36/36/36 10/10/10 34/34/34
f 13/13/13 38/38/38 14/14/14
f 15/15/15 19/19/19 16/16/16
f 18/18/18 21/21/21 19/19/19
f 20/20/20 39/39/39 21/21/21
f 22/22/22 26/26/26 23/23/23
f 25/25/25 40/40/40 26/26/26
