# Cube.011 -- imported by tools/import_asset_pack.py from psx.fbx
o __pending__
v 0.746994 0.190519 0.696810
v 0.767788 0.190519 0.681885
v 0.746994 0.190519 0.681885
v 0.746994 0.190519 0.696810
v 0.779046 0.005890 0.696810
v 0.779046 0.190519 0.696810
v 0.746994 0.190519 0.681885
v 0.746994 0.005890 0.696810
v 0.746994 0.190519 0.696810
v 0.746994 0.190519 0.666960
v 0.779046 0.190519 0.666960
v 0.746994 0.190519 0.666960
v 0.746994 0.005890 0.681885
v 0.746994 0.005890 0.696810
v 0.767788 0.005890 0.681885
v 0.779046 0.005890 0.696810
v 0.746994 0.005890 0.666960
v 0.779046 0.005890 0.666960
v 0.767788 0.005890 0.652034
v 0.746994 0.190519 0.652034
v 0.746994 0.005890 0.666960
v 0.746994 0.005890 0.637109
v 0.746994 0.005890 0.652034
v 0.746994 0.190519 0.637109
v 0.746994 0.005890 0.652034
v 0.767788 0.190519 0.652034
v 0.746994 0.190519 0.652034
v 0.746994 0.190519 0.637109
v 0.779046 0.190519 0.637109
v 0.767788 0.190519 0.622183
v 0.746994 0.190519 0.622183
v 0.746994 0.190519 0.622183
v 0.746994 0.005890 0.637109
v 0.746994 0.190519 0.607258
v 0.779046 0.190519 0.607258
v 0.746994 0.190519 0.607258
v 0.746994 0.005890 0.622183
v 0.767788 0.005890 0.622183
v 0.779046 0.005890 0.637109
v 0.746994 0.005890 0.607258
v 0.779046 0.005890 0.607258
v 0.767788 0.005890 0.592333
v 0.746994 0.190519 0.592333
v 0.746994 0.005890 0.607258
v 0.746994 0.005890 0.577407
v 0.746994 0.005890 0.592333
v 0.746994 0.190519 0.577407
v 0.746994 0.005890 0.592333
v 0.767788 0.190519 0.592333
v 0.746994 0.190519 0.592333
v 0.746994 0.190519 0.577407
v 0.779046 0.190519 0.577407
v 0.767788 0.190519 0.562482
v 0.746994 0.190519 0.562482
v 0.746994 0.190519 0.562482
v 0.746994 0.005890 0.577407
v 0.746994 0.190519 0.547557
v 0.779046 0.190519 0.547557
v 0.746994 0.190519 0.547557
v 0.746994 0.005890 0.562482
v 0.767788 0.005890 0.562482
v 0.779046 0.005890 0.577407
v 0.746994 0.005890 0.547557
v 0.779046 0.005890 0.547557
v 0.767788 0.005890 0.532632
v 0.746994 0.190519 0.532631
v 0.746994 0.005890 0.547557
v 0.746994 0.005890 0.517706
v 0.746994 0.005890 0.532632
v 0.746994 0.190519 0.517706
v 0.746994 0.005890 0.532632
v 0.767788 0.190519 0.532631
v 0.746994 0.190519 0.532631
v 0.746994 0.190519 0.517706
v 0.779046 0.190519 0.517706
v 0.767788 0.190519 0.502780
v 0.746994 0.190519 0.502780
v 0.746994 0.190519 0.502780
v 0.746994 0.005890 0.517706
v 0.746994 0.190519 0.487855
v 0.779046 0.190519 0.487855
v 0.746994 0.190519 0.487855
v 0.746994 0.005890 0.502780
v 0.767788 0.005890 0.502780
v 0.746994 0.005890 0.502780
v 0.746994 0.005890 0.487855
v 0.779046 0.005890 0.487855
v 0.767788 0.005890 0.472930
v 0.746994 0.005890 0.472930
v 0.746994 0.190519 0.472930
v 0.746994 0.005890 0.487855
v 0.746994 0.005890 0.458005
v 0.746994 0.190519 0.458004
v 0.746994 0.005890 0.472930
v 0.767788 0.190519 0.472930
v 0.746994 0.190519 0.472930
v 0.746994 0.190519 0.458004
v 0.779046 0.190519 0.458005
v 0.767788 0.190519 0.443079
v 0.746994 0.190519 0.443079
v 0.746994 0.190519 0.443079
v 0.746994 0.005890 0.458005
v 0.746994 0.190519 0.428154
v 0.779046 0.190519 0.428154
v 0.746994 0.190519 0.428154
v 0.746994 0.005890 0.443079
v 0.767788 0.005890 0.443079
v 0.779046 0.005890 0.458005
v 0.746994 0.005890 0.428154
v 0.779046 0.005890 0.428154
v 0.767788 0.005890 0.413229
v 0.746994 0.190519 0.413229
v 0.746994 0.005890 0.428154
v 0.746994 0.005890 0.398303
v 0.746994 0.005890 0.413229
v 0.746994 0.190519 0.398303
v 0.746994 0.005890 0.413229
v 0.767788 0.190519 0.413229
v 0.746994 0.190519 0.413229
v 0.746994 0.190519 0.398303
v 0.779046 0.190519 0.398303
v 0.767788 0.190519 0.383377
v 0.746994 0.190519 0.383377
v 0.746994 0.190519 0.383377
v 0.746994 0.005890 0.398303
v 0.746994 0.190519 0.368452
v 0.779046 0.190519 0.368452
v 0.746994 0.190519 0.368452
v 0.746994 0.005890 0.383378
v 0.767788 0.005890 0.383378
v 0.779046 0.005890 0.398303
v 0.746994 0.005890 0.368452
v 0.779046 0.005890 0.368452
v 0.767788 0.005890 0.353527
v 0.746994 0.190519 0.353527
v 0.746994 0.005890 0.368452
v 0.746994 0.005890 0.338602
v 0.746994 0.005890 0.353527
v 0.746994 0.005890 0.338602
v 0.746994 0.005890 0.353527
v 0.767788 0.190519 0.353527
v 0.746994 0.190519 0.353527
v 0.746994 0.190519 0.338602
v 0.779046 0.190519 0.338602
v 0.767788 0.190519 0.323676
v 0.746994 0.190519 0.323676
v 0.746994 0.190519 0.323676
v 0.746994 0.190519 0.338602
v 0.746994 0.190519 0.308750
v 0.779046 0.190519 0.308750
v 0.746994 0.190519 0.308750
v 0.746994 0.005890 0.323676
v 0.767788 0.005890 0.323676
v 0.779046 0.005890 0.338602
v 0.746994 0.005890 0.308751
v 0.779046 0.005890 0.308751
v 0.767788 0.005890 0.293825
v 0.746994 0.190519 0.293825
v 0.746994 0.005890 0.308751
v 0.746994 0.005890 0.278900
v 0.746994 0.005890 0.293825
v 0.746994 0.190519 0.278900
v 0.746994 0.005890 0.293825
v 0.767788 0.190519 0.293825
v 0.746994 0.190519 0.293825
v 0.746994 0.190519 0.278900
v 0.779046 0.190519 0.278900
v 0.767788 0.190519 0.263975
v 0.746994 0.190519 0.263975
v 0.746994 0.190519 0.263975
v 0.746994 0.005890 0.278900
v 0.746994 0.190519 0.249049
v 0.779046 0.190519 0.249049
v 0.746994 0.190519 0.249049
v 0.746994 0.005890 0.263975
v 0.767788 0.005890 0.263975
v 0.746994 0.005890 0.263975
v 0.746994 0.005890 0.249049
v 0.779046 0.005890 0.249049
v 0.767788 0.005890 0.234124
v 0.746994 0.190519 0.234124
v 0.746994 0.005890 0.249049
v 0.746994 0.005890 0.219199
v 0.746994 0.005890 0.234124
v 0.746994 0.190519 0.219199
v 0.746994 0.005890 0.234124
v 0.767788 0.190519 0.234124
v 0.746994 0.190519 0.234124
v 0.746994 0.190519 0.219199
v 0.779046 0.190519 0.219199
v 0.767788 0.190519 0.204273
v 0.746994 0.190519 0.204273
v 0.746994 0.190519 0.204273
v 0.746994 0.005890 0.219199
v 0.746994 0.190519 0.189348
v 0.779046 0.190519 0.189348
v 0.746994 0.190519 0.189348
v 0.746994 0.005890 0.204273
v 0.767788 0.005890 0.204273
v 0.779046 0.005890 0.219199
v 0.746994 0.005890 0.189348
v 0.779046 0.005890 0.189348
v 0.767788 0.005890 0.174422
v 0.746994 0.190519 0.174422
v 0.746994 0.005890 0.189348
v 0.746994 0.005890 0.159497
v 0.746994 0.005890 0.174422
v 0.746994 0.190519 0.159497
v 0.746994 0.005890 0.174422
v 0.767788 0.190519 0.174422
v 0.746994 0.190519 0.174422
v 0.746994 0.190519 0.159497
v 0.779046 0.190519 0.159497
v 0.767788 0.190519 0.144572
v 0.746994 0.190519 0.144572
v 0.746994 0.190519 0.144572
v 0.746994 0.005890 0.159497
v 0.746994 0.190519 0.129646
v 0.779046 0.190519 0.129646
v 0.746994 0.190519 0.129646
v 0.746994 0.005890 0.144572
v 0.767788 0.005890 0.144572
v 0.779046 0.005890 0.159497
v 0.746994 0.005890 0.129646
v 0.779046 0.005890 0.129646
v 0.767788 0.005890 0.114721
v 0.746994 0.190519 0.114721
v 0.746994 0.005890 0.129646
v 0.746994 0.005890 0.099796
v 0.746994 0.005890 0.114721
v 0.746994 0.190519 0.099796
v 0.746994 0.005890 0.114721
v 0.767788 0.190519 0.114721
v 0.746994 0.190519 0.114721
v 0.746994 0.190519 0.099796
v 0.779046 0.190519 0.099796
v 0.767788 0.190519 0.084870
v 0.746994 0.190519 0.084870
v 0.746994 0.190519 0.084870
v 0.746994 0.005890 0.099796
v 0.746994 0.190519 0.069945
v 0.779046 0.190519 0.069945
v 0.746994 0.190519 0.069945
v 0.746994 0.005890 0.084870
v 0.767788 0.005890 0.084870
v 0.779046 0.005890 0.099796
v 0.746994 0.005890 0.069945
v 0.779046 0.005890 0.069945
v 0.767788 0.005890 0.055019
v 0.746994 0.190519 0.055019
v 0.746994 0.005890 0.069945
v 0.746994 0.005890 0.040094
v 0.746994 0.005890 0.055019
v 0.746994 0.190519 0.040094
v 0.746994 0.005890 0.055019
v 0.767788 0.190519 0.055019
v 0.746994 0.190519 0.055019
v 0.746994 0.190519 0.040094
v 0.779046 0.190519 0.040094
v 0.767788 0.190519 0.025169
v 0.746994 0.190519 0.025169
v 0.746994 0.190519 0.025169
v 0.746994 0.005890 0.040094
v 0.746994 0.190519 0.010243
v 0.779046 0.190519 0.010243
v 0.746994 0.190519 0.010243
v 0.746994 0.005890 0.025169
v 0.767788 0.005890 0.025169
v 0.746994 0.005890 0.025169
v 0.746994 0.005890 0.010243
v 0.779046 0.005890 0.010243
v 0.767788 0.005890 -0.004682
v 0.746994 0.190519 -0.004682
v 0.746994 0.005890 0.010243
v 0.746994 0.005890 -0.019608
v 0.746994 0.005890 -0.004682
v 0.746994 0.190519 -0.019608
v 0.746994 0.005890 -0.004682
v 0.767788 0.190519 -0.004682
v 0.746994 0.190519 -0.004682
v 0.746994 0.190519 -0.019608
v 0.779046 0.190519 -0.019608
v 0.767788 0.190519 -0.034533
v 0.746994 0.190519 -0.034533
v 0.746994 0.190519 -0.034533
v 0.746994 0.005890 -0.019608
v 0.746994 0.190519 -0.049458
v 0.779046 0.190519 -0.049458
v 0.746994 0.190519 -0.049458
v 0.746994 0.005890 -0.034533
v 0.767788 0.005890 -0.034533
v 0.779046 0.005890 -0.019608
v 0.746994 0.005890 -0.049458
v 0.779046 0.005890 -0.049458
v 0.767788 0.005890 -0.064384
v 0.746994 0.190519 -0.064384
v 0.746994 0.005890 -0.049458
v 0.746994 0.005890 -0.079309
v 0.746994 0.005890 -0.064384
v 0.746994 0.190519 -0.079309
v 0.746994 0.005890 -0.064384
v 0.767788 0.190519 -0.064384
v 0.746994 0.190519 -0.064384
v 0.746994 0.190519 -0.079309
v 0.779046 0.190519 -0.079309
v 0.767788 0.190519 -0.094234
v 0.746994 0.190519 -0.094234
v 0.746994 0.190519 -0.094234
v 0.746994 0.005890 -0.079309
v 0.746994 0.190519 -0.109160
v 0.779046 0.190519 -0.109160
v 0.746994 0.190519 -0.109160
v 0.746994 0.005890 -0.094234
v 0.767788 0.005890 -0.094234
v 0.779046 0.005890 -0.079309
v 0.746994 0.005890 -0.109159
v 0.779046 0.005890 -0.109159
v 0.767788 0.005890 -0.124085
v 0.746994 0.190519 -0.124085
v 0.746994 0.005890 -0.109159
v 0.746994 0.005890 -0.139011
v 0.746994 0.005890 -0.124085
v 0.746994 0.190519 -0.139011
v 0.746994 0.005890 -0.124085
v 0.767788 0.190519 -0.124085
v 0.746994 0.190519 -0.124085
v 0.746994 0.190519 -0.139011
v 0.779046 0.190519 -0.139011
v 0.767788 0.190519 -0.153936
v 0.746994 0.190519 -0.153936
v 0.746994 0.190519 -0.153936
v 0.746994 0.005890 -0.139011
v 0.746994 0.190519 -0.168861
v 0.779046 0.190519 -0.168861
v 0.746994 0.190519 -0.168861
v 0.746994 0.005890 -0.153936
v 0.767788 0.005890 -0.153936
v 0.779046 0.005890 -0.139011
v 0.746994 0.005890 -0.168861
v 0.779046 0.005890 -0.168861
v 0.767788 0.005890 -0.183786
v 0.746994 0.190519 -0.183787
v 0.746994 0.005890 -0.168861
v 0.746994 0.005890 -0.198712
v 0.746994 0.005890 -0.183786
v 0.746994 0.190519 -0.198712
v 0.746994 0.005890 -0.183786
v 0.767788 0.190519 -0.183787
v 0.746994 0.190519 -0.183787
v 0.746994 0.190519 -0.198712
v 0.779046 0.190519 -0.198712
v 0.767788 0.190519 -0.213637
v 0.746994 0.190519 -0.213637
v 0.746994 0.190519 -0.213637
v 0.746994 0.005890 -0.198712
v 0.746994 0.190519 -0.228562
v 0.779046 0.190519 -0.228562
v 0.746994 0.190519 -0.228562
v 0.746994 0.005890 -0.213637
v 0.767788 0.005890 -0.213637
v 0.746994 0.005890 -0.213637
v 0.746994 0.005890 -0.228562
v 0.779046 0.005890 -0.228562
v 0.767788 0.005890 -0.243488
v 0.746994 0.190519 -0.243488
v 0.746994 0.005890 -0.228562
v 0.746994 0.005890 -0.258413
v 0.746994 0.005890 -0.243488
v 0.746994 0.190519 -0.258414
v 0.746994 0.005890 -0.243488
v 0.767788 0.190519 -0.243488
v 0.746994 0.190519 -0.243488
v 0.746994 0.190519 -0.258414
v 0.779046 0.190519 -0.258414
v 0.767788 0.190519 -0.273339
v 0.746994 0.190519 -0.273339
v 0.746994 0.190519 -0.273339
v 0.746994 0.005890 -0.258413
v 0.746994 0.190519 -0.288264
v 0.779046 0.190519 -0.288264
v 0.746994 0.190519 -0.288264
v 0.746994 0.005890 -0.273339
v 0.767788 0.005890 -0.273339
v 0.779046 0.005890 -0.258413
v 0.746994 0.005890 -0.288264
v 0.779046 0.005890 -0.288264
v 0.767788 0.005890 -0.303189
v 0.746994 0.005890 -0.303189
v 0.746994 0.005890 -0.288264
v 0.779046 0.190519 -0.288264
v 0.767788 0.005890 -0.303189
v 0.767788 0.190519 -0.303189
v 0.767788 0.190519 -0.273339
v 0.779046 0.005890 -0.288264
v 0.779046 0.190519 -0.288264
v 0.767788 0.190519 -0.303189
v 0.746994 0.190519 -0.303189
v 0.746994 0.005890 -0.303189
v 0.746994 0.190519 -0.303189
v 0.779046 0.190519 -0.258414
v 0.767788 0.005890 -0.273339
v 0.767788 0.190519 -0.273339
v 0.767788 0.190519 -0.243488
v 0.779046 0.005890 -0.258413
v 0.779046 0.190519 -0.258414
v 0.779046 0.190519 -0.228562
v 0.767788 0.005890 -0.243488
v 0.767788 0.190519 -0.243488
v 0.767788 0.190519 -0.213637
v 0.779046 0.005890 -0.228562
v 0.779046 0.190519 -0.228562
v 0.779046 0.190519 -0.198712
v 0.767788 0.005890 -0.213637
v 0.767788 0.190519 -0.213637
v 0.767788 0.190519 -0.183787
v 0.779046 0.005890 -0.198712
v 0.779046 0.190519 -0.198712
v 0.779046 0.190519 -0.168861
v 0.767788 0.005890 -0.183786
v 0.767788 0.190519 -0.183787
v 0.767788 0.190519 -0.153936
v 0.779046 0.005890 -0.168861
v 0.779046 0.190519 -0.168861
v 0.779046 0.190519 -0.139011
v 0.767788 0.005890 -0.153936
v 0.767788 0.190519 -0.153936
v 0.767788 0.190519 -0.124085
v 0.779046 0.005890 -0.139011
v 0.779046 0.190519 -0.139011
v 0.779046 0.190519 -0.109160
v 0.767788 0.005890 -0.124085
v 0.767788 0.190519 -0.124085
v 0.767788 0.190519 -0.094234
v 0.779046 0.005890 -0.109159
v 0.779046 0.190519 -0.109160
v 0.779046 0.190519 -0.079309
v 0.767788 0.005890 -0.094234
v 0.767788 0.190519 -0.094234
v 0.767788 0.190519 -0.064384
v 0.779046 0.005890 -0.079309
v 0.779046 0.190519 -0.079309
v 0.779046 0.190519 -0.049458
v 0.767788 0.005890 -0.064384
v 0.767788 0.190519 -0.064384
v 0.767788 0.190519 -0.034533
v 0.779046 0.005890 -0.049458
v 0.779046 0.190519 -0.049458
v 0.779046 0.190519 -0.019608
v 0.767788 0.005890 -0.034533
v 0.767788 0.190519 -0.034533
v 0.767788 0.190519 -0.004682
v 0.779046 0.005890 -0.019608
v 0.779046 0.190519 -0.019608
v 0.779046 0.190519 0.010243
v 0.767788 0.005890 -0.004682
v 0.767788 0.190519 -0.004682
v 0.767788 0.190519 0.025169
v 0.779046 0.005890 0.010243
v 0.779046 0.190519 0.010243
v 0.779046 0.190519 0.040094
v 0.767788 0.005890 0.025169
v 0.767788 0.190519 0.025169
v 0.767788 0.190519 0.055019
v 0.779046 0.005890 0.040094
v 0.779046 0.190519 0.040094
v 0.779046 0.190519 0.069945
v 0.767788 0.005890 0.055019
v 0.767788 0.190519 0.055019
v 0.767788 0.190519 0.084870
v 0.779046 0.005890 0.069945
v 0.779046 0.190519 0.069945
v 0.779046 0.190519 0.099796
v 0.767788 0.005890 0.084870
v 0.767788 0.190519 0.084870
v 0.767788 0.190519 0.114721
v 0.779046 0.005890 0.099796
v 0.779046 0.190519 0.099796
v 0.779046 0.190519 0.129646
v 0.767788 0.005890 0.114721
v 0.767788 0.190519 0.114721
v 0.767788 0.190519 0.144572
v 0.779046 0.005890 0.129646
v 0.779046 0.190519 0.129646
v 0.779046 0.190519 0.159497
v 0.767788 0.005890 0.144572
v 0.767788 0.190519 0.144572
v 0.767788 0.190519 0.174422
v 0.779046 0.005890 0.159497
v 0.779046 0.190519 0.159497
v 0.779046 0.190519 0.189348
v 0.767788 0.005890 0.174422
v 0.767788 0.190519 0.174422
v 0.767788 0.190519 0.204273
v 0.779046 0.005890 0.189348
v 0.779046 0.190519 0.189348
v 0.779046 0.190519 0.219199
v 0.767788 0.005890 0.204273
v 0.767788 0.190519 0.204273
v 0.767788 0.190519 0.234124
v 0.779046 0.005890 0.219199
v 0.779046 0.190519 0.219199
v 0.779046 0.190519 0.249049
v 0.767788 0.005890 0.234124
v 0.767788 0.190519 0.234124
v 0.767788 0.190519 0.263975
v 0.779046 0.005890 0.249049
v 0.779046 0.190519 0.249049
v 0.779046 0.190519 0.278900
v 0.767788 0.005890 0.263975
v 0.767788 0.190519 0.263975
v 0.767788 0.190519 0.293825
v 0.779046 0.005890 0.278900
v 0.779046 0.190519 0.278900
v 0.779046 0.190519 0.308750
v 0.767788 0.005890 0.293825
v 0.767788 0.190519 0.293825
v 0.767788 0.190519 0.323676
v 0.779046 0.005890 0.308751
v 0.779046 0.190519 0.308750
v 0.779046 0.190519 0.338602
v 0.767788 0.005890 0.323676
v 0.767788 0.190519 0.323676
v 0.767788 0.190519 0.353527
v 0.779046 0.005890 0.338602
v 0.779046 0.190519 0.338602
v 0.779046 0.190519 0.368452
v 0.767788 0.005890 0.353527
v 0.767788 0.190519 0.353527
v 0.767788 0.190519 0.383377
v 0.779046 0.005890 0.368452
v 0.779046 0.190519 0.368452
v 0.779046 0.190519 0.398303
v 0.767788 0.005890 0.383378
v 0.767788 0.190519 0.383377
v 0.767788 0.190519 0.413229
v 0.779046 0.005890 0.398303
v 0.779046 0.190519 0.398303
v 0.779046 0.190519 0.428154
v 0.767788 0.005890 0.413229
v 0.767788 0.190519 0.413229
v 0.767788 0.190519 0.443079
v 0.779046 0.005890 0.428154
v 0.779046 0.190519 0.428154
v 0.779046 0.190519 0.458005
v 0.767788 0.005890 0.443079
v 0.767788 0.190519 0.443079
v 0.767788 0.190519 0.472930
v 0.779046 0.005890 0.458005
v 0.779046 0.190519 0.458005
v 0.779046 0.190519 0.487855
v 0.767788 0.005890 0.472930
v 0.767788 0.190519 0.472930
v 0.767788 0.190519 0.502780
v 0.779046 0.005890 0.487855
v 0.779046 0.190519 0.487855
v 0.779046 0.190519 0.517706
v 0.767788 0.005890 0.502780
v 0.767788 0.190519 0.502780
v 0.767788 0.190519 0.532631
v 0.779046 0.005890 0.517706
v 0.779046 0.190519 0.517706
v 0.779046 0.190519 0.547557
v 0.767788 0.005890 0.532632
v 0.767788 0.190519 0.532631
v 0.767788 0.190519 0.562482
v 0.779046 0.005890 0.547557
v 0.779046 0.190519 0.547557
v 0.779046 0.190519 0.577407
v 0.767788 0.005890 0.562482
v 0.767788 0.190519 0.562482
v 0.767788 0.190519 0.592333
v 0.779046 0.005890 0.577407
v 0.779046 0.190519 0.577407
v 0.779046 0.190519 0.607258
v 0.767788 0.005890 0.592333
v 0.767788 0.190519 0.592333
v 0.767788 0.190519 0.622183
v 0.779046 0.005890 0.607258
v 0.779046 0.190519 0.607258
v 0.779046 0.190519 0.637109
v 0.767788 0.005890 0.622183
v 0.767788 0.190519 0.622183
v 0.767788 0.190519 0.652034
v 0.779046 0.005890 0.637109
v 0.779046 0.190519 0.637109
v 0.779046 0.190519 0.666960
v 0.767788 0.005890 0.652034
v 0.767788 0.190519 0.652034
v 0.767788 0.190519 0.681885
v 0.779046 0.005890 0.666960
v 0.779046 0.190519 0.666960
v 0.779046 0.190519 0.696810
v 0.767788 0.005890 0.681885
v 0.767788 0.190519 0.681885
v 0.779046 0.190519 0.696810
v 0.746994 0.005890 0.696810
v 0.746994 0.005890 0.681885
v 0.746994 0.005890 0.622183
v 0.746994 0.005890 0.562482
v 0.779046 0.005890 0.517706
v 0.746994 0.005890 0.443079
v 0.746994 0.005890 0.383378
v 0.746994 0.005890 0.323676
v 0.779046 0.005890 0.278900
v 0.746994 0.005890 0.204273
v 0.746994 0.005890 0.144572
v 0.746994 0.005890 0.084870
v 0.779046 0.005890 0.040094
v 0.746994 0.005890 -0.034533
v 0.746994 0.005890 -0.094234
v 0.746994 0.005890 -0.153936
v 0.779046 0.005890 -0.198712
v 0.746994 0.005890 -0.273339
v 0.746994 0.005890 -0.303189
v 0.746994 0.190519 -0.303189
v 0.779046 0.005890 -0.288264
v 0.767788 0.005890 -0.273339
v 0.779046 0.005890 -0.258413
v 0.767788 0.005890 -0.243488
v 0.779046 0.005890 -0.228562
v 0.767788 0.005890 -0.213637
v 0.779046 0.005890 -0.198712
v 0.767788 0.005890 -0.183786
v 0.779046 0.005890 -0.168861
v 0.767788 0.005890 -0.153936
v 0.779046 0.005890 -0.139011
v 0.767788 0.005890 -0.124085
v 0.779046 0.005890 -0.109159
v 0.767788 0.005890 -0.094234
v 0.779046 0.005890 -0.079309
v 0.767788 0.005890 -0.064384
v 0.779046 0.005890 -0.049458
v 0.767788 0.005890 -0.034533
v 0.779046 0.005890 -0.019608
v 0.767788 0.005890 -0.004682
v 0.779046 0.005890 0.010243
v 0.767788 0.005890 0.025169
v 0.779046 0.005890 0.040094
v 0.767788 0.005890 0.055019
v 0.779046 0.005890 0.069945
v 0.767788 0.005890 0.084870
v 0.779046 0.005890 0.099796
v 0.767788 0.005890 0.114721
v 0.779046 0.005890 0.129646
v 0.767788 0.005890 0.144572
v 0.779046 0.005890 0.159497
v 0.767788 0.005890 0.174422
v 0.779046 0.005890 0.189348
v 0.767788 0.005890 0.204273
v 0.779046 0.005890 0.219199
v 0.767788 0.005890 0.234124
v 0.779046 0.005890 0.249049
v 0.767788 0.005890 0.263975
v 0.779046 0.005890 0.278900
v 0.767788 0.005890 0.293825
v 0.779046 0.005890 0.308751
v 0.767788 0.005890 0.323676
v 0.779046 0.005890 0.338602
v 0.767788 0.005890 0.353527
v 0.779046 0.005890 0.368452
v 0.767788 0.005890 0.383378
v 0.779046 0.005890 0.398303
v 0.767788 0.005890 0.413229
v 0.779046 0.005890 0.428154
v 0.767788 0.005890 0.443079
v 0.779046 0.005890 0.458005
v 0.767788 0.005890 0.472930
v 0.779046 0.005890 0.487855
v 0.767788 0.005890 0.502780
v 0.779046 0.005890 0.517706
v 0.767788 0.005890 0.532632
v 0.779046 0.005890 0.547557
v 0.767788 0.005890 0.562482
v 0.779046 0.005890 0.577407
v 0.767788 0.005890 0.592333
v 0.779046 0.005890 0.607258
v 0.767788 0.005890 0.622183
v 0.779046 0.005890 0.637109
v 0.767788 0.005890 0.652034
v 0.779046 0.005890 0.666960
v 0.767788 0.005890 0.681885
v 0.779046 0.005890 0.696810
vt 0.943437 0.743452
vt 0.938123 0.747266
vt 0.943437 0.747266
vt 0.713534 0.033616
vt 0.721725 0.080790
vt 0.721725 0.033616
vt 0.418599 0.140641
vt 0.465783 0.136827
vt 0.418599 0.136827
vt 0.943437 0.751081
vt 0.935246 0.751081
vt 0.418599 0.144455
vt 0.465783 0.140642
vt 0.925678 0.260032
vt 0.930992 0.263846
vt 0.933869 0.260032
vt 0.925678 0.267661
vt 0.933869 0.267661
vt 0.930992 0.271475
vt 0.418599 0.148270
vt 0.465783 0.144456
vt 0.925678 0.275289
vt 0.925678 0.271475
vt 0.418599 0.152084
vt 0.465783 0.148270
vt 0.938123 0.754895
vt 0.943437 0.754895
vt 0.943437 0.758710
vt 0.935246 0.758710
vt 0.938123 0.762524
vt 0.943437 0.762524
vt 0.418599 0.155899
vt 0.465783 0.152085
vt 0.943437 0.766338
vt 0.935246 0.766338
vt 0.418599 0.159713
vt 0.465783 0.155899
vt 0.930992 0.279104
vt 0.933869 0.275289
vt 0.925678 0.282918
vt 0.933869 0.282918
vt 0.930992 0.286733
vt 0.418599 0.163527
vt 0.465783 0.159713
vt 0.925678 0.290547
vt 0.925678 0.286733
vt 0.418599 0.167342
vt 0.465783 0.163528
vt 0.938123 0.770153
vt 0.943437 0.770153
vt 0.943437 0.773967
vt 0.935246 0.773967
vt 0.938123 0.777782
vt 0.943437 0.777782
vt 0.418599 0.171156
vt 0.465783 0.167342
vt 0.943437 0.781596
vt 0.935246 0.781596
vt 0.418599 0.174970
vt 0.465783 0.171157
vt 0.930992 0.294361
vt 0.933869 0.290547
vt 0.925678 0.298176
vt 0.933869 0.298176
vt 0.930992 0.301990
vt 0.418599 0.178785
vt 0.465783 0.174971
vt 0.925678 0.305805
vt 0.925678 0.301990
vt 0.418599 0.182599
vt 0.465783 0.178785
vt 0.938123 0.785410
vt 0.943437 0.785410
vt 0.943437 0.789225
vt 0.935246 0.789225
vt 0.938123 0.793039
vt 0.943437 0.793039
vt 0.418599 0.186414
vt 0.465783 0.182600
vt 0.943437 0.796854
vt 0.935246 0.796854
vt 0.418599 0.190228
vt 0.465783 0.186414
vt 0.930992 0.309619
vt 0.925678 0.309619
vt 0.925678 0.313433
vt 0.933869 0.313433
vt 0.930992 0.317248
vt 0.925678 0.317248
vt 0.418599 0.194042
vt 0.465783 0.190228
vt 0.925678 0.321062
vt 0.418599 0.197857
vt 0.465783 0.194043
vt 0.938123 0.800668
vt 0.943437 0.800668
vt 0.943437 0.804482
vt 0.935246 0.804482
vt 0.938123 0.808297
vt 0.943437 0.808297
vt 0.418599 0.201671
vt 0.465783 0.197857
vt 0.943437 0.812111
vt 0.935246 0.812111
vt 0.418599 0.205485
vt 0.465783 0.201672
vt 0.930992 0.324877
vt 0.933869 0.321062
vt 0.925678 0.328691
vt 0.933869 0.328691
vt 0.930992 0.332505
vt 0.418599 0.209300
vt 0.465783 0.205486
vt 0.925678 0.336320
vt 0.925678 0.332505
vt 0.418599 0.213114
vt 0.465783 0.209300
vt 0.938123 0.815926
vt 0.943437 0.815926
vt 0.943437 0.819740
vt 0.935246 0.819740
vt 0.938123 0.823554
vt 0.943437 0.823554
vt 0.418599 0.216929
vt 0.465783 0.213115
vt 0.943437 0.827369
vt 0.935246 0.827369
vt 0.418599 0.220743
vt 0.465783 0.216929
vt 0.930992 0.340134
vt 0.933869 0.336320
vt 0.925678 0.343949
vt 0.933869 0.343949
vt 0.930992 0.347763
vt 0.418599 0.224557
vt 0.465783 0.220743
vt 0.925678 0.351577
vt 0.925678 0.347763
vt 0.465783 0.228372
vt 0.465783 0.224558
vt 0.938123 0.831183
vt 0.943437 0.831183
vt 0.943437 0.834998
vt 0.935246 0.834998
vt 0.938123 0.838812
vt 0.943437 0.838812
vt 0.418599 0.232186
vt 0.418599 0.228372
vt 0.943437 0.842626
vt 0.935246 0.842626
vt 0.418599 0.236000
vt 0.465783 0.232187
vt 0.930992 0.355392
vt 0.933869 0.351577
vt 0.925678 0.359206
vt 0.933869 0.359206
vt 0.930992 0.363021
vt 0.418599 0.239815
vt 0.465783 0.236001
vt 0.925678 0.366835
vt 0.925678 0.363021
vt 0.418599 0.243629
vt 0.465783 0.239815
vt 0.938123 0.846441
vt 0.943437 0.846441
vt 0.943437 0.850255
vt 0.935246 0.850255
vt 0.938123 0.854070
vt 0.943437 0.854070
vt 0.418599 0.247444
vt 0.465783 0.243630
vt 0.943437 0.857884
vt 0.935246 0.857884
vt 0.418599 0.251258
vt 0.465783 0.247444
vt 0.930992 0.370649
vt 0.925678 0.370649
vt 0.925678 0.374464
vt 0.933869 0.374464
vt 0.930992 0.378278
vt 0.418599 0.255072
vt 0.465783 0.251258
vt 0.925678 0.382093
vt 0.925678 0.378278
vt 0.418599 0.258887
vt 0.465783 0.255073
vt 0.938123 0.861698
vt 0.943437 0.861698
vt 0.943437 0.865513
vt 0.935246 0.865513
vt 0.938123 0.869327
vt 0.943437 0.869327
vt 0.418599 0.262701
vt 0.465783 0.258887
vt 0.943437 0.873142
vt 0.935246 0.873142
vt 0.418599 0.266515
vt 0.465783 0.262702
vt 0.930992 0.385907
vt 0.933869 0.382093
vt 0.925678 0.389721
vt 0.933869 0.389721
vt 0.930992 0.393536
vt 0.418599 0.270330
vt 0.465783 0.266516
vt 0.925678 0.397350
vt 0.925678 0.393536
vt 0.418599 0.274144
vt 0.465783 0.270330
vt 0.938123 0.876956
vt 0.943437 0.876956
vt 0.943437 0.880770
vt 0.935246 0.880770
vt 0.938123 0.884585
vt 0.943437 0.884585
vt 0.418599 0.277959
vt 0.465783 0.274145
vt 0.943437 0.888399
vt 0.935246 0.888399
vt 0.418599 0.281773
vt 0.465783 0.277959
vt 0.930992 0.401165
vt 0.933869 0.397350
vt 0.925678 0.404979
vt 0.933869 0.404979
vt 0.930992 0.408793
vt 0.418599 0.285587
vt 0.465783 0.281773
vt 0.925678 0.412608
vt 0.925678 0.408793
vt 0.418599 0.289402
vt 0.465783 0.285588
vt 0.938123 0.892214
vt 0.943437 0.892214
vt 0.943437 0.896028
vt 0.935246 0.896028
vt 0.938123 0.899842
vt 0.943437 0.899842
vt 0.418599 0.293216
vt 0.465783 0.289402
vt 0.943437 0.903657
vt 0.935246 0.903657
vt 0.418599 0.297031
vt 0.465783 0.293217
vt 0.930992 0.416422
vt 0.933869 0.412608
vt 0.925678 0.420237
vt 0.933869 0.420237
vt 0.930992 0.424051
vt 0.418599 0.300845
vt 0.465783 0.297031
vt 0.925678 0.427865
vt 0.925678 0.424051
vt 0.418599 0.304659
vt 0.465783 0.300845
vt 0.938123 0.907471
vt 0.943437 0.907471
vt 0.943437 0.911286
vt 0.935246 0.911285
vt 0.938123 0.915100
vt 0.943437 0.915100
vt 0.418599 0.308474
vt 0.465783 0.304660
vt 0.943437 0.918914
vt 0.935246 0.918914
vt 0.418599 0.312288
vt 0.465783 0.308474
vt 0.930992 0.431680
vt 0.925678 0.431680
vt 0.925678 0.435494
vt 0.933869 0.435494
vt 0.930992 0.439308
vt 0.418599 0.316102
vt 0.465783 0.312288
vt 0.925678 0.443123
vt 0.925678 0.439308
vt 0.418599 0.319917
vt 0.465783 0.316103
vt 0.938123 0.922729
vt 0.943437 0.922729
vt 0.943437 0.926543
vt 0.935246 0.926543
vt 0.938123 0.930357
vt 0.943437 0.930358
vt 0.418599 0.323731
vt 0.465783 0.319917
vt 0.943437 0.934172
vt 0.935246 0.934172
vt 0.418599 0.327545
vt 0.465783 0.323732
vt 0.930992 0.446937
vt 0.933869 0.443123
vt 0.925678 0.450752
vt 0.933869 0.450752
vt 0.930992 0.454566
vt 0.418599 0.331360
vt 0.465783 0.327546
vt 0.925678 0.458380
vt 0.925678 0.454566
vt 0.418599 0.335174
vt 0.465783 0.331360
vt 0.938123 0.937986
vt 0.943437 0.937986
vt 0.943437 0.941801
vt 0.935246 0.941801
vt 0.938123 0.945615
vt 0.943437 0.945615
vt 0.418599 0.338989
vt 0.465783 0.335175
vt 0.943437 0.949429
vt 0.935246 0.949429
vt 0.418599 0.342803
vt 0.465783 0.338989
vt 0.930992 0.462195
vt 0.933869 0.458380
vt 0.925678 0.466009
vt 0.933869 0.466009
vt 0.930992 0.469824
vt 0.418599 0.346617
vt 0.465783 0.342803
vt 0.925678 0.473638
vt 0.925678 0.469824
vt 0.418599 0.350432
vt 0.465783 0.346618
vt 0.938123 0.953244
vt 0.943437 0.953244
vt 0.943437 0.957058
vt 0.935246 0.957058
vt 0.938123 0.960873
vt 0.943437 0.960873
vt 0.418599 0.354246
vt 0.465783 0.350432
vt 0.943437 0.964687
vt 0.935246 0.964687
vt 0.418599 0.358060
vt 0.465783 0.354247
vt 0.930992 0.477452
vt 0.933869 0.473638
vt 0.925678 0.481267
vt 0.933869 0.481267
vt 0.930992 0.485081
vt 0.418599 0.361875
vt 0.465783 0.358061
vt 0.925678 0.488896
vt 0.925678 0.485081
vt 0.418599 0.365689
vt 0.465783 0.361875
vt 0.938123 0.968501
vt 0.943437 0.968501
vt 0.943437 0.972316
vt 0.935246 0.972316
vt 0.938123 0.976130
vt 0.943437 0.976130
vt 0.418599 0.369504
vt 0.465783 0.365690
vt 0.943437 0.979945
vt 0.935246 0.979945
vt 0.418599 0.373318
vt 0.465783 0.369504
vt 0.930992 0.492710
vt 0.925678 0.492710
vt 0.925678 0.496524
vt 0.933869 0.496524
vt 0.930992 0.500339
vt 0.418599 0.377132
vt 0.465783 0.373318
vt 0.925678 0.504153
vt 0.925678 0.500339
vt 0.418599 0.380947
vt 0.465783 0.377133
vt 0.938123 0.983759
vt 0.943437 0.983759
vt 0.943437 0.987573
vt 0.935246 0.987573
vt 0.938123 0.991388
vt 0.943437 0.991388
vt 0.418599 0.384761
vt 0.465783 0.380947
vt 0.943437 0.995202
vt 0.935246 0.995202
vt 0.418599 0.388576
vt 0.465783 0.384762
vt 0.930992 0.507968
vt 0.933869 0.504153
vt 0.925678 0.511782
vt 0.933869 0.511782
vt 0.930992 0.515596
vt 0.465783 0.392390
vt 0.465783 0.388576
vt 0.954590 0.316377
vt 0.951269 0.269421
vt 0.951269 0.316547
vt 0.817374 0.082980
vt 0.821616 0.130159
vt 0.821616 0.082975
vt 0.938123 0.999017
vt 0.943437 0.999017
vt 0.945994 0.269388
vt 0.945994 0.316515
vt 0.691030 0.048110
vt 0.687709 0.001153
vt 0.687709 0.048280
vt 0.661059 0.191380
vt 0.665301 0.238559
vt 0.665301 0.191375
vt 0.998863 0.060841
vt 0.995542 0.013884
vt 0.995542 0.061011
vt 0.986778 0.694301
vt 0.991019 0.741480
vt 0.991019 0.694296
vt 0.991518 0.899525
vt 0.988196 0.852568
vt 0.988196 0.899695
vt 0.984687 0.613089
vt 0.988928 0.660268
vt 0.988928 0.613084
vt 0.465354 0.134690
vt 0.462033 0.087733
vt 0.462033 0.134860
vt 0.984495 0.271786
vt 0.988737 0.318966
vt 0.988737 0.271781
vt 0.994302 0.850261
vt 0.990980 0.803305
vt 0.990980 0.850431
vt 0.984495 0.320943
vt 0.988737 0.368122
vt 0.988737 0.320937
vt 0.998863 0.110104
vt 0.995542 0.063148
vt 0.995542 0.110275
vt 0.984495 0.370099
vt 0.988737 0.417278
vt 0.988737 0.370094
vt 0.998863 0.159368
vt 0.995542 0.112411
vt 0.995542 0.159538
vt 0.984495 0.419255
vt 0.988737 0.466435
vt 0.988737 0.419250
vt 0.994216 0.660104
vt 0.990895 0.613147
vt 0.990895 0.660274
vt 0.984495 0.468412
vt 0.988737 0.515591
vt 0.988737 0.468407
vt 0.349766 0.178991
vt 0.346444 0.132035
vt 0.346444 0.179161
vt 0.984046 0.014255
vt 0.988287 0.061434
vt 0.988287 0.014250
vt 0.349766 0.129728
vt 0.346445 0.082771
vt 0.346445 0.129898
vt 0.984046 0.063411
vt 0.988287 0.110591
vt 0.988287 0.063406
vt 0.998863 0.208632
vt 0.995542 0.161675
vt 0.995542 0.208802
vt 0.984046 0.112568
vt 0.988287 0.159747
vt 0.988287 0.112562
vt 0.998863 0.257895
vt 0.995542 0.210938
vt 0.995542 0.258065
vt 0.975781 0.852403
vt 0.980022 0.899583
vt 0.980022 0.852398
vt 0.994024 0.318372
vt 0.990703 0.271416
vt 0.990703 0.318542
vt 0.932314 0.030368
vt 0.936555 0.077548
vt 0.936555 0.030363
vt 0.349766 0.228255
vt 0.346444 0.181298
vt 0.346444 0.228425
vt 0.956557 0.269363
vt 0.960798 0.316542
vt 0.960798 0.269358
vt 0.349766 0.277518
vt 0.346444 0.230562
vt 0.346444 0.277688
vt 0.309616 0.059668
vt 0.313858 0.106847
vt 0.313858 0.059662
vt 0.993575 0.060841
vt 0.990254 0.013884
vt 0.990254 0.061011
vt 0.986581 0.902676
vt 0.990822 0.949855
vt 0.990822 0.902671
vt 0.996806 0.899525
vt 0.993484 0.852568
vt 0.993484 0.899695
vt 0.984046 0.161724
vt 0.988287 0.208903
vt 0.988287 0.161719
vt 0.994025 0.367636
vt 0.990703 0.320679
vt 0.990703 0.367806
vt 0.984046 0.210881
vt 0.988287 0.258060
vt 0.988287 0.210875
vt 0.996110 0.998847
vt 0.992789 0.951890
vt 0.992789 0.999017
vt 0.984772 0.803247
vt 0.989014 0.850426
vt 0.989014 0.803242
vt 0.349766 0.326782
vt 0.346444 0.279825
vt 0.346445 0.326952
vt 0.984773 0.754091
vt 0.989014 0.801270
vt 0.989014 0.754085
vt 0.993575 0.159368
vt 0.990254 0.112411
vt 0.990254 0.159538
vt 0.986581 0.951832
vt 0.990822 0.999011
vt 0.990822 0.951827
vt 0.996307 0.741315
vt 0.992986 0.694359
vt 0.992986 0.741485
vt 0.020725 0.009961
vt 0.024966 0.057140
vt 0.024966 0.009956
vt 0.996918 0.608313
vt 0.993596 0.561357
vt 0.993596 0.608484
vt 0.309616 0.010511
vt 0.313858 0.057691
vt 0.313858 0.010506
vt 0.994025 0.416899
vt 0.990703 0.369943
vt 0.990703 0.417069
vt 0.981988 0.852403
vt 0.986230 0.899583
vt 0.986230 0.852398
vt 0.994302 0.800998
vt 0.990980 0.754041
vt 0.990980 0.801168
vt 0.241899 0.015251
vt 0.246140 0.062430
vt 0.246140 0.015245
vt 0.993575 0.208632
vt 0.990254 0.161675
vt 0.990254 0.208802
vt 0.241899 0.064407
vt 0.246140 0.111586
vt 0.246140 0.064402
vt 0.993575 0.110105
vt 0.990254 0.063148
vt 0.990254 0.110275
vt 0.928972 0.580100
vt 0.933213 0.627279
vt 0.933213 0.580095
vt 0.996110 0.949583
vt 0.992789 0.902626
vt 0.992789 0.949753
vt 0.928972 0.629256
vt 0.933213 0.676436
vt 0.933213 0.629251
vt 0.994025 0.466163
vt 0.990703 0.419206
vt 0.990703 0.466333
vt 0.928972 0.678413
vt 0.933213 0.725592
vt 0.933213 0.678408
vt 0.994025 0.515426
vt 0.990703 0.468470
vt 0.990703 0.515596
vt 0.029304 0.009961
vt 0.033545 0.057140
vt 0.033545 0.009956
vt 0.993575 0.257895
vt 0.990254 0.210938
vt 0.990254 0.258065
vt 0.978479 0.613089
vt 0.982720 0.660268
vt 0.982720 0.613084
vt 0.991630 0.608313
vt 0.988308 0.561357
vt 0.988308 0.608484
vt 0.555366 0.019453
vt 0.559607 0.066632
vt 0.559607 0.019448
vt 0.696319 0.048110
vt 0.692997 0.001153
vt 0.692997 0.048280
vt 0.935246 0.743452
vt 0.713534 0.080790
vt 0.925678 0.263846
vt 0.925678 0.279104
vt 0.925678 0.294361
vt 0.933869 0.305805
vt 0.925678 0.324877
vt 0.925678 0.340134
vt 0.925678 0.355392
vt 0.933869 0.366835
vt 0.925678 0.385907
vt 0.925678 0.401165
vt 0.925678 0.416422
vt 0.933869 0.427865
vt 0.925678 0.446937
vt 0.925678 0.462195
vt 0.925678 0.477452
vt 0.933869 0.488896
vt 0.925678 0.507968
vt 0.925678 0.515596
vt 0.418599 0.392390
vt 0.954590 0.269250
vt 0.817374 0.130165
vt 0.691030 0.000983
vt 0.661059 0.238565
vt 0.998863 0.013714
vt 0.986778 0.741485
vt 0.991518 0.852398
vt 0.984687 0.660274
vt 0.465354 0.087563
vt 0.984495 0.318971
vt 0.994302 0.803135
vt 0.984495 0.368127
vt 0.998863 0.062978
vt 0.984495 0.417284
vt 0.998863 0.112241
vt 0.984495 0.466440
vt 0.994216 0.612977
vt 0.984495 0.515596
vt 0.349766 0.131865
vt 0.984046 0.061439
vt 0.349766 0.082601
vt 0.984046 0.110596
vt 0.998863 0.161505
vt 0.984046 0.159752
vt 0.998863 0.210768
vt 0.975781 0.899588
vt 0.994024 0.271245
vt 0.932314 0.077553
vt 0.349766 0.181128
vt 0.956557 0.316547
vt 0.349766 0.230392
vt 0.309616 0.106852
vt 0.993575 0.013714
vt 0.986581 0.949860
vt 0.996806 0.852398
vt 0.984046 0.208909
vt 0.994025 0.320509
vt 0.984046 0.258065
vt 0.996110 0.951720
vt 0.984772 0.850431
vt 0.349766 0.279655
vt 0.984773 0.801275
vt 0.993575 0.112241
vt 0.986581 0.999017
vt 0.996307 0.694188
vt 0.020725 0.057146
vt 0.996918 0.561187
vt 0.309616 0.057696
vt 0.994025 0.369772
vt 0.981988 0.899588
vt 0.994302 0.753871
vt 0.241899 0.062435
vt 0.993575 0.161505
vt 0.241899 0.111591
vt 0.993575 0.062978
vt 0.928971 0.627285
vt 0.996110 0.902456
vt 0.928972 0.676441
vt 0.994025 0.419036
vt 0.928972 0.725597
vt 0.994025 0.468300
vt 0.029304 0.057145
vt 0.993575 0.210768
vt 0.978479 0.660274
vt 0.991630 0.561187
vt 0.555366 0.066637
vt 0.696319 0.000983
vn -0.577348 0.577363 0.577340
vn 0.492322 0.870413 0.000001
vn -0.707110 0.707104 -0.000000
vn -0.577348 0.577363 0.577340
vn 0.747058 -0.550778 0.372220
vn 0.747060 0.550773 0.372223
vn -0.707110 0.707104 -0.000000
vn -0.577351 -0.577357 0.577343
vn -0.577348 0.577363 0.577340
vn -0.707100 0.707113 -0.000000
vn 0.804896 0.593416 -0.000006
vn -0.707100 0.707113 -0.000000
vn -0.707110 -0.707104 0.000000
vn -0.577351 -0.577357 0.577343
vn 0.492321 -0.870414 -0.000001
vn 0.747058 -0.550778 0.372220
vn -0.707100 -0.707113 0.000000
vn 0.804896 -0.593416 0.000005
vn 0.492322 -0.870413 -0.000002
vn -0.707110 0.707104 -0.000000
vn -0.707100 -0.707113 0.000000
vn -0.707100 -0.707113 0.000000
vn -0.707110 -0.707104 0.000000
vn -0.707100 0.707113 -0.000000
vn -0.707110 -0.707104 0.000000
vn 0.492321 0.870414 0.000001
vn -0.707110 0.707104 -0.000000
vn -0.707100 0.707113 -0.000000
vn 0.804896 0.593416 -0.000004
vn 0.492322 0.870413 0.000002
vn -0.707110 0.707104 -0.000000
vn -0.707110 0.707104 -0.000000
vn -0.707100 -0.707113 0.000000
vn -0.707100 0.707113 -0.000000
vn 0.804896 0.593416 -0.000005
vn -0.707100 0.707113 -0.000000
vn -0.707110 -0.707104 0.000000
vn 0.492321 -0.870414 -0.000001
vn 0.804896 -0.593416 0.000004
vn -0.707100 -0.707113 0.000000
vn 0.804896 -0.593416 0.000005
vn 0.492322 -0.870413 -0.000001
vn -0.707110 0.707104 -0.000000
vn -0.707100 -0.707113 0.000000
vn -0.707100 -0.707113 0.000000
vn -0.707110 -0.707104 0.000000
vn -0.707100 0.707113 -0.000000
vn -0.707110 -0.707104 0.000000
vn 0.492321 0.870413 0.000001
vn -0.707110 0.707104 -0.000000
vn -0.707100 0.707113 -0.000000
vn 0.804896 0.593416 -0.000004
vn 0.492321 0.870413 0.000001
vn -0.707110 0.707104 -0.000000
vn -0.707110 0.707104 -0.000000
vn -0.707100 -0.707113 0.000000
vn -0.707100 0.707113 -0.000000
vn 0.804896 0.593416 -0.000004
vn -0.707100 0.707113 -0.000000
vn -0.707110 -0.707104 0.000000
vn 0.492322 -0.870413 -0.000001
vn 0.804896 -0.593416 0.000005
vn -0.707100 -0.707113 0.000000
vn 0.804896 -0.593416 0.000005
vn 0.492322 -0.870413 -0.000001
vn -0.707110 0.707104 -0.000000
vn -0.707100 -0.707113 0.000000
vn -0.707100 -0.707113 0.000000
vn -0.707110 -0.707104 0.000000
vn -0.707100 0.707113 -0.000000
vn -0.707110 -0.707104 0.000000
vn 0.492321 0.870413 0.000001
vn -0.707110 0.707104 -0.000000
vn -0.707100 0.707113 -0.000000
vn 0.804896 0.593416 -0.000004
vn 0.492321 0.870413 0.000001
vn -0.707110 0.707104 -0.000000
vn -0.707110 0.707104 -0.000000
vn -0.707100 -0.707113 0.000000
vn -0.707100 0.707113 -0.000000
vn 0.804896 0.593416 -0.000004
vn -0.707100 0.707113 -0.000000
vn -0.707110 -0.707104 0.000000
vn 0.492322 -0.870413 -0.000001
vn -0.707110 -0.707104 0.000000
vn -0.707100 -0.707113 0.000000
vn 0.804896 -0.593416 0.000005
vn 0.492322 -0.870413 -0.000001
vn -0.707110 -0.707104 0.000000
vn -0.707110 0.707104 -0.000000
vn -0.707100 -0.707113 0.000000
vn -0.707100 -0.707113 0.000000
vn -0.707100 0.707113 -0.000000
vn -0.707110 -0.707104 0.000000
vn 0.492321 0.870414 0.000001
vn -0.707110 0.707104 -0.000000
vn -0.707100 0.707113 -0.000000
vn 0.804896 0.593416 -0.000004
vn 0.492321 0.870414 0.000001
vn -0.707110 0.707104 -0.000000
vn -0.707110 0.707104 -0.000000
vn -0.707100 -0.707113 0.000000
vn -0.707100 0.707113 -0.000000
vn 0.804896 0.593416 -0.000004
vn -0.707100 0.707113 -0.000000
vn -0.707110 -0.707104 0.000000
vn 0.492322 -0.870413 -0.000002
vn 0.804896 -0.593416 0.000004
vn -0.707100 -0.707113 0.000000
vn 0.804896 -0.593416 0.000003
vn 0.492322 -0.870413 -0.000002
vn -0.707110 0.707104 -0.000000
vn -0.707100 -0.707113 0.000000
vn -0.707100 -0.707113 0.000000
vn -0.707110 -0.707104 0.000000
vn -0.707100 0.707113 -0.000000
vn -0.707110 -0.707104 0.000000
vn 0.492321 0.870414 0.000001
vn -0.707110 0.707104 -0.000000
vn -0.707100 0.707113 -0.000000
vn 0.804896 0.593416 -0.000004
vn 0.492322 0.870413 0.000002
vn -0.707110 0.707104 -0.000000
vn -0.707110 0.707104 -0.000000
vn -0.707100 -0.707113 0.000000
vn -0.707100 0.707113 -0.000000
vn 0.804896 0.593416 -0.000004
vn -0.707100 0.707113 -0.000000
vn -0.707110 -0.707104 0.000000
vn 0.492321 -0.870413 -0.000002
vn 0.804896 -0.593416 0.000003
vn -0.707100 -0.707113 0.000000
vn 0.804896 -0.593416 0.000003
vn 0.492321 -0.870413 -0.000002
vn -0.707112 0.707101 -0.000000
vn -0.707100 -0.707113 0.000000
vn -0.707103 -0.707110 0.000000
vn -0.707107 -0.707107 0.000000
vn -0.707103 -0.707110 0.000000
vn -0.707107 -0.707107 0.000000
vn 0.492321 0.870413 0.000002
vn -0.707112 0.707101 -0.000000
vn -0.707098 0.707116 -0.000000
vn 0.804896 0.593416 -0.000004
vn 0.492321 0.870413 0.000002
vn -0.707110 0.707104 -0.000000
vn -0.707110 0.707104 -0.000000
vn -0.707098 0.707116 -0.000000
vn -0.707100 0.707113 -0.000000
vn 0.804896 0.593416 -0.000003
vn -0.707100 0.707113 -0.000000
vn -0.707110 -0.707104 0.000000
vn 0.492322 -0.870413 -0.000002
vn 0.804896 -0.593416 0.000004
vn -0.707101 -0.707113 0.000000
vn 0.804896 -0.593416 0.000003
vn 0.492322 -0.870413 -0.000002
vn -0.707110 0.707104 -0.000000
vn -0.707101 -0.707113 0.000000
vn -0.707100 -0.707113 0.000000
vn -0.707110 -0.707104 0.000000
vn -0.707100 0.707113 -0.000000
vn -0.707110 -0.707104 0.000000
vn 0.492321 0.870413 0.000002
vn -0.707110 0.707104 -0.000000
vn -0.707100 0.707113 -0.000000
vn 0.804896 0.593416 -0.000004
vn 0.492321 0.870413 0.000002
vn -0.707110 0.707104 -0.000000
vn -0.707110 0.707104 -0.000000
vn -0.707100 -0.707113 0.000000
vn -0.707100 0.707113 -0.000000
vn 0.804896 0.593416 -0.000004
vn -0.707100 0.707113 -0.000000
vn -0.707110 -0.707104 0.000000
vn 0.492321 -0.870413 -0.000002
vn -0.707110 -0.707104 0.000000
vn -0.707100 -0.707113 0.000000
vn 0.804896 -0.593416 0.000003
vn 0.492321 -0.870413 -0.000002
vn -0.707110 0.707104 -0.000000
vn -0.707100 -0.707113 0.000000
vn -0.707100 -0.707113 0.000000
vn -0.707110 -0.707104 0.000000
vn -0.707100 0.707113 -0.000000
vn -0.707110 -0.707104 0.000000
vn 0.492321 0.870413 0.000002
vn -0.707110 0.707104 -0.000000
vn -0.707100 0.707113 -0.000000
vn 0.804896 0.593416 -0.000004
vn 0.492321 0.870413 0.000002
vn -0.707110 0.707104 -0.000000
vn -0.707110 0.707104 -0.000000
vn -0.707100 -0.707113 0.000000
vn -0.707100 0.707113 -0.000000
vn 0.804896 0.593416 -0.000004
vn -0.707100 0.707113 -0.000000
vn -0.707110 -0.707104 0.000000
vn 0.492321 -0.870413 -0.000002
vn 0.804896 -0.593416 0.000004
vn -0.707100 -0.707113 0.000000
vn 0.804896 -0.593416 0.000003
vn 0.492321 -0.870413 -0.000002
vn -0.707110 0.707104 -0.000000
vn -0.707100 -0.707113 0.000000
vn -0.707100 -0.707113 0.000000
vn -0.707110 -0.707104 0.000000
vn -0.707100 0.707113 -0.000000
vn -0.707110 -0.707104 0.000000
vn 0.492321 0.870413 0.000002
vn -0.707110 0.707104 -0.000000
vn -0.707100 0.707113 -0.000000
vn 0.804896 0.593416 -0.000004
vn 0.492321 0.870413 0.000002
vn -0.707110 0.707104 -0.000000
vn -0.707110 0.707104 -0.000000
vn -0.707100 -0.707113 0.000000
vn -0.707100 0.707113 -0.000000
vn 0.804896 0.593416 -0.000004
vn -0.707100 0.707113 -0.000000
vn -0.707110 -0.707104 0.000000
vn 0.492321 -0.870413 -0.000002
vn 0.804896 -0.593416 0.000004
vn -0.707100 -0.707113 0.000000
vn 0.804896 -0.593416 0.000003
vn 0.492322 -0.870413 -0.000002
vn -0.707110 0.707104 -0.000000
vn -0.707100 -0.707113 0.000000
vn -0.707100 -0.707113 0.000000
vn -0.707110 -0.707104 0.000000
vn -0.707100 0.707113 -0.000000
vn -0.707110 -0.707104 0.000000
vn 0.492321 0.870413 0.000002
vn -0.707110 0.707104 -0.000000
vn -0.707100 0.707113 -0.000000
vn 0.804896 0.593416 -0.000004
vn 0.492321 0.870413 0.000002
vn -0.707110 0.707104 -0.000000
vn -0.707110 0.707104 -0.000000
vn -0.707100 -0.707113 0.000000
vn -0.707100 0.707113 -0.000000
vn 0.804896 0.593416 -0.000004
vn -0.707100 0.707113 -0.000000
vn -0.707110 -0.707104 0.000000
vn 0.492322 -0.870413 -0.000002
vn 0.804896 -0.593416 0.000004
vn -0.707100 -0.707113 0.000000
vn 0.804896 -0.593416 0.000003
vn 0.492322 -0.870413 -0.000002
vn -0.707110 0.707104 -0.000000
vn -0.707100 -0.707113 0.000000
vn -0.707100 -0.707113 0.000000
vn -0.707110 -0.707104 0.000000
vn -0.707100 0.707113 -0.000000
vn -0.707110 -0.707104 0.000000
vn 0.492321 0.870413 0.000002
vn -0.707110 0.707104 -0.000000
vn -0.707100 0.707113 -0.000000
vn 0.804896 0.593416 -0.000003
vn 0.492322 0.870413 0.000002
vn -0.707110 0.707104 -0.000000
vn -0.707110 0.707104 -0.000000
vn -0.707100 -0.707113 0.000000
vn -0.707100 0.707113 -0.000000
vn 0.804896 0.593416 -0.000004
vn -0.707100 0.707113 -0.000000
vn -0.707110 -0.707104 0.000000
vn 0.492321 -0.870413 -0.000002
vn -0.707110 -0.707104 0.000000
vn -0.707100 -0.707113 0.000000
vn 0.804896 -0.593416 0.000003
vn 0.492321 -0.870413 -0.000002
vn -0.707110 0.707104 -0.000000
vn -0.707100 -0.707113 0.000000
vn -0.707100 -0.707113 0.000000
vn -0.707110 -0.707104 0.000000
vn -0.707100 0.707113 -0.000000
vn -0.707110 -0.707104 0.000000
vn 0.492321 0.870413 0.000002
vn -0.707110 0.707104 -0.000000
vn -0.707100 0.707113 -0.000000
vn 0.804896 0.593416 -0.000004
vn 0.492321 0.870413 0.000001
vn -0.707110 0.707104 -0.000000
vn -0.707110 0.707104 -0.000000
vn -0.707100 -0.707113 0.000000
vn -0.707100 0.707113 -0.000000
vn 0.804896 0.593416 -0.000004
vn -0.707100 0.707113 -0.000000
vn -0.707110 -0.707104 0.000000
vn 0.492322 -0.870413 -0.000002
vn 0.804896 -0.593416 0.000004
vn -0.707100 -0.707113 0.000000
vn 0.804896 -0.593416 0.000003
vn 0.492322 -0.870413 -0.000002
vn -0.707110 0.707104 -0.000000
vn -0.707100 -0.707113 0.000000
vn -0.707100 -0.707113 0.000000
vn -0.707110 -0.707104 0.000000
vn -0.707100 0.707113 -0.000000
vn -0.707110 -0.707104 0.000000
vn 0.492321 0.870414 0.000002
vn -0.707110 0.707104 -0.000000
vn -0.707100 0.707113 -0.000000
vn 0.804896 0.593416 -0.000003
vn 0.492321 0.870413 0.000002
vn -0.707110 0.707104 -0.000000
vn -0.707110 0.707104 -0.000000
vn -0.707100 -0.707113 0.000000
vn -0.707100 0.707113 -0.000000
vn 0.804896 0.593416 -0.000002
vn -0.707100 0.707113 -0.000000
vn -0.707110 -0.707104 0.000000
vn 0.492322 -0.870413 -0.000003
vn 0.804896 -0.593416 0.000002
vn -0.707100 -0.707113 0.000000
vn 0.804896 -0.593416 0.000002
vn 0.492321 -0.870413 -0.000002
vn -0.707110 0.707104 -0.000000
vn -0.707100 -0.707113 0.000000
vn -0.707100 -0.707113 0.000000
vn -0.707110 -0.707104 0.000000
vn -0.707100 0.707113 -0.000000
vn -0.707110 -0.707104 0.000000
vn 0.492322 0.870413 0.000003
vn -0.707110 0.707104 -0.000000
vn -0.707100 0.707113 -0.000000
vn 0.804896 0.593416 -0.000002
vn 0.492322 0.870413 0.000003
vn -0.707110 0.707104 -0.000000
vn -0.707110 0.707104 -0.000000
vn -0.707100 -0.707113 0.000000
vn -0.707100 0.707113 -0.000000
vn 0.804896 0.593416 -0.000002
vn -0.707100 0.707113 -0.000000
vn -0.707110 -0.707104 0.000000
vn 0.492321 -0.870413 -0.000002
vn 0.804896 -0.593416 0.000003
vn -0.707100 -0.707113 0.000000
vn 0.804896 -0.593416 0.000003
vn 0.492321 -0.870413 -0.000002
vn -0.707110 0.707104 -0.000000
vn -0.707100 -0.707113 0.000000
vn -0.707100 -0.707113 0.000000
vn -0.707110 -0.707104 0.000000
vn -0.707100 0.707113 -0.000000
vn -0.707110 -0.707104 0.000000
vn 0.492322 0.870413 0.000003
vn -0.707110 0.707104 -0.000000
vn -0.707100 0.707113 -0.000000
vn 0.804896 0.593416 -0.000003
vn 0.492322 0.870413 0.000002
vn -0.707110 0.707104 -0.000000
vn -0.707110 0.707104 -0.000000
vn -0.707100 -0.707113 0.000000
vn -0.707100 0.707113 -0.000000
vn 0.804896 0.593416 -0.000004
vn -0.707100 0.707113 -0.000000
vn -0.707110 -0.707104 0.000000
vn 0.492322 -0.870413 -0.000002
vn -0.707110 -0.707104 0.000000
vn -0.707100 -0.707113 0.000000
vn 0.804896 -0.593417 0.000002
vn 0.492322 -0.870413 -0.000003
vn -0.707110 0.707104 -0.000000
vn -0.707100 -0.707113 0.000000
vn -0.707100 -0.707113 0.000000
vn -0.707110 -0.707104 0.000000
vn -0.707100 0.707113 -0.000000
vn -0.707110 -0.707104 0.000000
vn 0.492321 0.870414 0.000003
vn -0.707110 0.707104 -0.000000
vn -0.707100 0.707113 -0.000000
vn 0.804896 0.593417 -0.000002
vn 0.492322 0.870413 0.000002
vn -0.707110 0.707104 -0.000000
vn -0.707110 0.707104 -0.000000
vn -0.707100 -0.707113 0.000000
vn -0.707103 0.707111 -0.000000
vn 0.804896 0.593416 -0.000004
vn -0.707103 0.707111 -0.000000
vn -0.707110 -0.707104 0.000000
vn 0.492322 -0.870413 -0.000002
vn 0.804896 -0.593416 0.000003
vn -0.707098 -0.707116 0.000000
vn 0.804896 -0.593417 0.000002
vn 0.350207 -0.619156 -0.702851
vn -0.577355 -0.577346 -0.577350
vn -0.707098 -0.707116 0.000000
vn 0.804896 0.593416 -0.000004
vn 0.350207 -0.619156 -0.702851
vn 0.350204 0.619157 -0.702852
vn 0.492322 0.870413 0.000002
vn 0.804896 -0.593417 0.000002
vn 0.804896 0.593416 -0.000004
vn 0.350204 0.619157 -0.702852
vn -0.577350 0.577350 -0.577350
vn -0.577355 -0.577346 -0.577350
vn -0.577350 0.577350 -0.577350
vn 0.804896 0.593417 -0.000002
vn 0.492322 -0.870413 -0.000002
vn 0.492322 0.870413 0.000002
vn 0.492321 0.870414 0.000003
vn 0.804896 -0.593416 0.000003
vn 0.804896 0.593417 -0.000002
vn 0.804896 0.593416 -0.000004
vn 0.492322 -0.870413 -0.000003
vn 0.492321 0.870414 0.000003
vn 0.492322 0.870413 0.000002
vn 0.804896 -0.593417 0.000002
vn 0.804896 0.593416 -0.000004
vn 0.804896 0.593416 -0.000003
vn 0.492322 -0.870413 -0.000002
vn 0.492322 0.870413 0.000002
vn 0.492322 0.870413 0.000003
vn 0.804896 -0.593416 0.000004
vn 0.804896 0.593416 -0.000003
vn 0.804896 0.593416 -0.000002
vn 0.492321 -0.870413 -0.000002
vn 0.492322 0.870413 0.000003
vn 0.492322 0.870413 0.000003
vn 0.804896 -0.593416 0.000003
vn 0.804896 0.593416 -0.000002
vn 0.804896 0.593416 -0.000002
vn 0.492321 -0.870413 -0.000002
vn 0.492322 0.870413 0.000003
vn 0.492322 0.870413 0.000003
vn 0.804896 -0.593416 0.000003
vn 0.804896 0.593416 -0.000002
vn 0.804896 0.593416 -0.000002
vn 0.492321 -0.870413 -0.000002
vn 0.492322 0.870413 0.000003
vn 0.492321 0.870413 0.000002
vn 0.804896 -0.593416 0.000002
vn 0.804896 0.593416 -0.000002
vn 0.804896 0.593416 -0.000003
vn 0.492322 -0.870413 -0.000003
vn 0.492321 0.870413 0.000002
vn 0.492321 0.870414 0.000002
vn 0.804896 -0.593416 0.000002
vn 0.804896 0.593416 -0.000003
vn 0.804896 0.593416 -0.000004
vn 0.492322 -0.870413 -0.000002
vn 0.492321 0.870414 0.000002
vn 0.492321 0.870413 0.000001
vn 0.804896 -0.593416 0.000003
vn 0.804896 0.593416 -0.000004
vn 0.804896 0.593416 -0.000004
vn 0.492322 -0.870413 -0.000002
vn 0.492321 0.870413 0.000001
vn 0.492321 0.870413 0.000002
vn 0.804896 -0.593416 0.000004
vn 0.804896 0.593416 -0.000004
vn 0.804896 0.593416 -0.000004
vn 0.492321 -0.870413 -0.000002
vn 0.492321 0.870413 0.000002
vn 0.492322 0.870413 0.000002
vn 0.804896 -0.593416 0.000003
vn 0.804896 0.593416 -0.000004
vn 0.804896 0.593416 -0.000003
vn 0.492321 -0.870413 -0.000002
vn 0.492322 0.870413 0.000002
vn 0.492321 0.870413 0.000002
vn 0.804896 -0.593416 0.000004
vn 0.804896 0.593416 -0.000003
vn 0.804896 0.593416 -0.000004
vn 0.492322 -0.870413 -0.000002
vn 0.492321 0.870413 0.000002
vn 0.492321 0.870413 0.000002
vn 0.804896 -0.593416 0.000003
vn 0.804896 0.593416 -0.000004
vn 0.804896 0.593416 -0.000004
vn 0.492322 -0.870413 -0.000002
vn 0.492321 0.870413 0.000002
vn 0.492321 0.870413 0.000002
vn 0.804896 -0.593416 0.000004
vn 0.804896 0.593416 -0.000004
vn 0.804896 0.593416 -0.000004
vn 0.492322 -0.870413 -0.000002
vn 0.492321 0.870413 0.000002
vn 0.492321 0.870413 0.000002
vn 0.804896 -0.593416 0.000003
vn 0.804896 0.593416 -0.000004
vn 0.804896 0.593416 -0.000004
vn 0.492321 -0.870413 -0.000002
vn 0.492321 0.870413 0.000002
vn 0.492321 0.870413 0.000002
vn 0.804896 -0.593416 0.000004
vn 0.804896 0.593416 -0.000004
vn 0.804896 0.593416 -0.000004
vn 0.492321 -0.870413 -0.000002
vn 0.492321 0.870413 0.000002
vn 0.492321 0.870413 0.000002
vn 0.804896 -0.593416 0.000003
vn 0.804896 0.593416 -0.000004
vn 0.804896 0.593416 -0.000004
vn 0.492321 -0.870413 -0.000002
vn 0.492321 0.870413 0.000002
vn 0.492321 0.870413 0.000002
vn 0.804896 -0.593416 0.000004
vn 0.804896 0.593416 -0.000004
vn 0.804896 0.593416 -0.000004
vn 0.492321 -0.870413 -0.000002
vn 0.492321 0.870413 0.000002
vn 0.492321 0.870413 0.000002
vn 0.804896 -0.593416 0.000003
vn 0.804896 0.593416 -0.000004
vn 0.804896 0.593416 -0.000004
vn 0.492321 -0.870413 -0.000002
vn 0.492321 0.870413 0.000002
vn 0.492321 0.870413 0.000002
vn 0.804896 -0.593416 0.000004
vn 0.804896 0.593416 -0.000004
vn 0.804896 0.593416 -0.000003
vn 0.492322 -0.870413 -0.000002
vn 0.492321 0.870413 0.000002
vn 0.492321 0.870413 0.000002
vn 0.804896 -0.593416 0.000003
vn 0.804896 0.593416 -0.000003
vn 0.804896 0.593416 -0.000004
vn 0.492322 -0.870413 -0.000002
vn 0.492321 0.870413 0.000002
vn 0.492321 0.870413 0.000002
vn 0.804896 -0.593416 0.000004
vn 0.804896 0.593416 -0.000004
vn 0.804896 0.593416 -0.000004
vn 0.492321 -0.870413 -0.000002
vn 0.492321 0.870413 0.000002
vn 0.492322 0.870413 0.000002
vn 0.804896 -0.593416 0.000003
vn 0.804896 0.593416 -0.000004
vn 0.804896 0.593416 -0.000004
vn 0.492321 -0.870413 -0.000002
vn 0.492322 0.870413 0.000002
vn 0.492321 0.870414 0.000001
vn 0.804896 -0.593416 0.000003
vn 0.804896 0.593416 -0.000004
vn 0.804896 0.593416 -0.000004
vn 0.492322 -0.870413 -0.000002
vn 0.492321 0.870414 0.000001
vn 0.492321 0.870414 0.000001
vn 0.804896 -0.593416 0.000003
vn 0.804896 0.593416 -0.000004
vn 0.804896 0.593416 -0.000004
vn 0.492322 -0.870413 -0.000002
vn 0.492321 0.870414 0.000001
vn 0.492321 0.870414 0.000001
vn 0.804896 -0.593416 0.000004
vn 0.804896 0.593416 -0.000004
vn 0.804896 0.593416 -0.000004
vn 0.492322 -0.870413 -0.000001
vn 0.492321 0.870414 0.000001
vn 0.492321 0.870413 0.000001
vn 0.804896 -0.593416 0.000005
vn 0.804896 0.593416 -0.000004
vn 0.804896 0.593416 -0.000004
vn 0.492322 -0.870413 -0.000001
vn 0.492321 0.870413 0.000001
vn 0.492321 0.870413 0.000001
vn 0.804896 -0.593416 0.000005
vn 0.804896 0.593416 -0.000004
vn 0.804896 0.593416 -0.000004
vn 0.492322 -0.870413 -0.000001
vn 0.492321 0.870413 0.000001
vn 0.492321 0.870413 0.000001
vn 0.804896 -0.593416 0.000005
vn 0.804896 0.593416 -0.000004
vn 0.804896 0.593416 -0.000004
vn 0.492322 -0.870413 -0.000001
vn 0.492321 0.870413 0.000001
vn 0.492321 0.870413 0.000001
vn 0.804896 -0.593416 0.000005
vn 0.804896 0.593416 -0.000004
vn 0.804896 0.593416 -0.000005
vn 0.492322 -0.870413 -0.000001
vn 0.492321 0.870413 0.000001
vn 0.492322 0.870413 0.000002
vn 0.804896 -0.593416 0.000005
vn 0.804896 0.593416 -0.000005
vn 0.804896 0.593416 -0.000004
vn 0.492321 -0.870414 -0.000001
vn 0.492322 0.870413 0.000002
vn 0.492321 0.870414 0.000001
vn 0.804896 -0.593416 0.000004
vn 0.804896 0.593416 -0.000004
vn 0.804896 0.593416 -0.000006
vn 0.492322 -0.870413 -0.000002
vn 0.492321 0.870414 0.000001
vn 0.492322 0.870413 0.000001
vn 0.804896 -0.593416 0.000005
vn 0.804896 0.593416 -0.000006
vn 0.747060 0.550773 0.372223
vn 0.492321 -0.870414 -0.000001
vn 0.492322 0.870413 0.000001
vn 0.747060 0.550773 0.372223
vn -0.577351 -0.577357 0.577343
vn -0.707110 -0.707104 0.000000
vn -0.707110 -0.707104 0.000000
vn -0.707110 -0.707104 0.000000
vn 0.804896 -0.593416 0.000005
vn -0.707110 -0.707104 0.000000
vn -0.707110 -0.707104 0.000000
vn -0.707110 -0.707104 0.000000
vn 0.804896 -0.593416 0.000004
vn -0.707110 -0.707104 0.000000
vn -0.707110 -0.707104 0.000000
vn -0.707110 -0.707104 0.000000
vn 0.804896 -0.593416 0.000004
vn -0.707110 -0.707104 0.000000
vn -0.707110 -0.707104 0.000000
vn -0.707110 -0.707104 0.000000
vn 0.804896 -0.593416 0.000004
vn -0.707110 -0.707104 0.000000
vn -0.577355 -0.577346 -0.577350
vn -0.577350 0.577350 -0.577350
vn 0.804896 -0.593417 0.000002
vn 0.492322 -0.870413 -0.000002
vn 0.804896 -0.593416 0.000003
vn 0.492322 -0.870413 -0.000003
vn 0.804896 -0.593417 0.000002
vn 0.492322 -0.870413 -0.000002
vn 0.804896 -0.593416 0.000004
vn 0.492321 -0.870413 -0.000002
vn 0.804896 -0.593416 0.000003
vn 0.492321 -0.870413 -0.000002
vn 0.804896 -0.593416 0.000003
vn 0.492321 -0.870413 -0.000002
vn 0.804896 -0.593416 0.000002
vn 0.492322 -0.870413 -0.000003
vn 0.804896 -0.593416 0.000002
vn 0.492322 -0.870413 -0.000002
vn 0.804896 -0.593416 0.000003
vn 0.492322 -0.870413 -0.000002
vn 0.804896 -0.593416 0.000004
vn 0.492321 -0.870413 -0.000002
vn 0.804896 -0.593416 0.000003
vn 0.492321 -0.870413 -0.000002
vn 0.804896 -0.593416 0.000004
vn 0.492322 -0.870413 -0.000002
vn 0.804896 -0.593416 0.000003
vn 0.492322 -0.870413 -0.000002
vn 0.804896 -0.593416 0.000004
vn 0.492322 -0.870413 -0.000002
vn 0.804896 -0.593416 0.000003
vn 0.492321 -0.870413 -0.000002
vn 0.804896 -0.593416 0.000004
vn 0.492321 -0.870413 -0.000002
vn 0.804896 -0.593416 0.000003
vn 0.492321 -0.870413 -0.000002
vn 0.804896 -0.593416 0.000004
vn 0.492321 -0.870413 -0.000002
vn 0.804896 -0.593416 0.000003
vn 0.492321 -0.870413 -0.000002
vn 0.804896 -0.593416 0.000004
vn 0.492322 -0.870413 -0.000002
vn 0.804896 -0.593416 0.000003
vn 0.492322 -0.870413 -0.000002
vn 0.804896 -0.593416 0.000004
vn 0.492321 -0.870413 -0.000002
vn 0.804896 -0.593416 0.000003
vn 0.492321 -0.870413 -0.000002
vn 0.804896 -0.593416 0.000003
vn 0.492322 -0.870413 -0.000002
vn 0.804896 -0.593416 0.000003
vn 0.492322 -0.870413 -0.000002
vn 0.804896 -0.593416 0.000004
vn 0.492322 -0.870413 -0.000001
vn 0.804896 -0.593416 0.000005
vn 0.492322 -0.870413 -0.000001
vn 0.804896 -0.593416 0.000005
vn 0.492322 -0.870413 -0.000001
vn 0.804896 -0.593416 0.000005
vn 0.492322 -0.870413 -0.000001
vn 0.804896 -0.593416 0.000005
vn 0.492322 -0.870413 -0.000001
vn 0.804896 -0.593416 0.000005
vn 0.492321 -0.870414 -0.000001
vn 0.804896 -0.593416 0.000004
vn 0.492322 -0.870413 -0.000002
vn 0.804896 -0.593416 0.000005
vn 0.492321 -0.870414 -0.000001
vn 0.747058 -0.550778 0.372220
f 1/1/1 2/2/2 3/3/3
f 4/4/4 5/5/5 6/6/6
f 7/7/7 8/8/8 9/9/9
f 10/10/10 2/2/2 11/11/11
f 12/12/12 13/13/13 7/7/7
f 14/14/14 15/15/15 16/16/16
f 15/15/15 17/17/17 18/18/18
f 17/17/17 19/19/19 18/18/18
f 20/20/20 21/21/21 12/12/12
f 22/22/22 19/19/19 23/23/23
f 24/24/24 25/25/25 20/20/20
f 10/10/10 26/26/26 27/27/27
f 28/28/28 26/26/26 29/29/29
f 28/28/28 30/30/30 31/31/31
f 32/32/32 33/33/33 24/24/24
f 34/34/34 30/30/30 35/35/35
f 36/36/36 37/37/37 32/32/32
f 22/22/22 38/38/38 39/39/39
f 38/38/38 40/40/40 41/41/41
f 40/40/40 42/42/42 41/41/41
f 43/43/43 44/44/44 36/36/36
f 45/45/45 42/42/42 46/46/46
f 47/47/47 48/48/48 43/43/43
f 34/34/34 49/49/49 50/50/50
f 51/51/51 49/49/49 52/52/52
f 51/51/51 53/53/53 54/54/54
f 55/55/55 56/56/56 47/47/47
f 57/57/57 53/53/53 58/58/58
f 59/59/59 60/60/60 55/55/55
f 45/45/45 61/61/61 62/62/62
f 61/61/61 63/63/63 64/64/64
f 63/63/63 65/65/65 64/64/64
f 66/66/66 67/67/67 59/59/59
f 68/68/68 65/65/65 69/69/69
f 70/70/70 71/71/71 66/66/66
f 57/57/57 72/72/72 73/73/73
f 74/74/74 72/72/72 75/75/75
f 74/74/74 76/76/76 77/77/77
f 78/78/78 79/79/79 70/70/70
f 80/80/80 76/76/76 81/81/81
f 82/82/82 83/83/83 78/78/78
f 84/84/84 68/68/68 85/85/85
f 84/84/84 86/86/86 87/87/87
f 88/88/88 86/86/86 89/89/89
f 90/90/90 91/91/91 82/82/82
f 92/92/92 88/88/88 89/89/89
f 93/93/93 94/94/94 90/90/90
f 80/80/80 95/95/95 96/96/96
f 97/97/97 95/95/95 98/98/98
f 97/97/97 99/99/99 100/100/100
f 101/101/101 102/102/102 93/93/93
f 103/103/103 99/99/99 104/104/104
f 105/105/105 106/106/106 101/101/101
f 92/92/92 107/107/107 108/108/108
f 107/107/107 109/109/109 110/110/110
f 109/109/109 111/111/111 110/110/110
f 112/112/112 113/113/113 105/105/105
f 114/114/114 111/111/111 115/115/115
f 116/116/116 117/117/117 112/112/112
f 103/103/103 118/118/118 119/119/119
f 120/120/120 118/118/118 121/121/121
f 120/120/120 122/122/122 123/123/123
f 124/124/124 125/125/125 116/116/116
f 126/126/126 122/122/122 127/127/127
f 128/128/128 129/129/129 124/124/124
f 114/114/114 130/130/130 131/131/131
f 130/130/130 132/132/132 133/133/133
f 132/132/132 134/134/134 133/133/133
f 135/135/135 136/136/136 128/128/128
f 137/137/137 134/134/134 138/138/138
f 135/135/135 139/139/139 140/140/140
f 126/126/126 141/141/141 142/142/142
f 143/143/143 141/141/141 144/144/144
f 143/143/143 145/145/145 146/146/146
f 147/147/147 139/139/139 148/148/148
f 149/149/149 145/145/145 150/150/150
f 151/151/151 152/152/152 147/147/147
f 137/137/137 153/153/153 154/154/154
f 153/153/153 155/155/155 156/156/156
f 155/155/155 157/157/157 156/156/156
f 158/158/158 159/159/159 151/151/151
f 160/160/160 157/157/157 161/161/161
f 162/162/162 163/163/163 158/158/158
f 149/149/149 164/164/164 165/165/165
f 166/166/166 164/164/164 167/167/167
f 166/166/166 168/168/168 169/169/169
f 170/170/170 171/171/171 162/162/162
f 172/172/172 168/168/168 173/173/173
f 174/174/174 175/175/175 170/170/170
f 176/176/176 160/160/160 177/177/177
f 176/176/176 178/178/178 179/179/179
f 178/178/178 180/180/180 179/179/179
f 181/181/181 182/182/182 174/174/174
f 183/183/183 180/180/180 184/184/184
f 185/185/185 186/186/186 181/181/181
f 172/172/172 187/187/187 188/188/188
f 189/189/189 187/187/187 190/190/190
f 189/189/189 191/191/191 192/192/192
f 193/193/193 194/194/194 185/185/185
f 195/195/195 191/191/191 196/196/196
f 197/197/197 198/198/198 193/193/193
f 183/183/183 199/199/199 200/200/200
f 199/199/199 201/201/201 202/202/202
f 201/201/201 203/203/203 202/202/202
f 204/204/204 205/205/205 197/197/197
f 206/206/206 203/203/203 207/207/207
f 208/208/208 209/209/209 204/204/204
f 195/195/195 210/210/210 211/211/211
f 212/212/212 210/210/210 213/213/213
f 212/212/212 214/214/214 215/215/215
f 216/216/216 217/217/217 208/208/208
f 218/218/218 214/214/214 219/219/219
f 220/220/220 221/221/221 216/216/216
f 206/206/206 222/222/222 223/223/223
f 222/222/222 224/224/224 225/225/225
f 224/224/224 226/226/226 225/225/225
f 227/227/227 228/228/228 220/220/220
f 229/229/229 226/226/226 230/230/230
f 231/231/231 232/232/232 227/227/227
f 218/218/218 233/233/233 234/234/234
f 235/235/235 233/233/233 236/236/236
f 235/235/235 237/237/237 238/238/238
f 239/239/239 240/240/240 231/231/231
f 241/241/241 237/237/237 242/242/242
f 243/243/243 244/244/244 239/239/239
f 229/229/229 245/245/245 246/246/246
f 245/245/245 247/247/247 248/248/248
f 247/247/247 249/249/249 248/248/248
f 250/250/250 251/251/251 243/243/243
f 252/252/252 249/249/249 253/253/253
f 254/254/254 255/255/255 250/250/250
f 241/241/241 256/256/256 257/257/257
f 258/258/258 256/256/256 259/259/259
f 258/258/258 260/260/260 261/261/261
f 262/262/262 263/263/263 254/254/254
f 264/264/264 260/260/260 265/265/265
f 266/266/266 267/267/267 262/262/262
f 268/268/268 252/252/252 269/269/269
f 268/268/268 270/270/270 271/271/271
f 270/270/270 272/272/272 271/271/271
f 273/273/273 274/274/274 266/266/266
f 275/275/275 272/272/272 276/276/276
f 277/277/277 278/278/278 273/273/273
f 264/264/264 279/279/279 280/280/280
f 281/281/281 279/279/279 282/282/282
f 281/281/281 283/283/283 284/284/284
f 285/285/285 286/286/286 277/277/277
f 287/287/287 283/283/283 288/288/288
f 289/289/289 290/290/290 285/285/285
f 275/275/275 291/291/291 292/292/292
f 291/291/291 293/293/293 294/294/294
f 293/293/293 295/295/295 294/294/294
f 296/296/296 297/297/297 289/289/289
f 298/298/298 295/295/295 299/299/299
f 300/300/300 301/301/301 296/296/296
f 287/287/287 302/302/302 303/303/303
f 304/304/304 302/302/302 305/305/305
f 304/304/304 306/306/306 307/307/307
f 308/308/308 309/309/309 300/300/300
f 310/310/310 306/306/306 311/311/311
f 312/312/312 313/313/313 308/308/308
f 298/298/298 314/314/314 315/315/315
f 314/314/314 316/316/316 317/317/317
f 316/316/316 318/318/318 317/317/317
f 319/319/319 320/320/320 312/312/312
f 321/321/321 318/318/318 322/322/322
f 323/323/323 324/324/324 319/319/319
f 310/310/310 325/325/325 326/326/326
f 327/327/327 325/325/325 328/328/328
f 327/327/327 329/329/329 330/330/330
f 331/331/331 332/332/332 323/323/323
f 333/333/333 329/329/329 334/334/334
f 335/335/335 336/336/336 331/331/331
f 321/321/321 337/337/337 338/338/338
f 337/337/337 339/339/339 340/340/340
f 339/339/339 341/341/341 340/340/340
f 342/342/342 343/343/343 335/335/335
f 344/344/344 341/341/341 345/345/345
f 346/346/346 347/347/347 342/342/342
f 333/333/333 348/348/348 349/349/349
f 350/350/350 348/348/348 351/351/351
f 350/350/350 352/352/352 353/353/353
f 354/354/354 355/355/355 346/346/346
f 356/356/356 352/352/352 357/357/357
f 358/358/358 359/359/359 354/354/354
f 360/360/360 344/344/344 361/361/361
f 360/360/360 362/362/362 363/363/363
f 362/362/362 364/364/364 363/363/363
f 365/365/365 366/366/366 358/358/358
f 367/367/367 364/364/364 368/368/368
f 369/369/369 370/370/370 365/365/365
f 356/356/356 371/371/371 372/372/372
f 373/373/373 371/371/371 374/374/374
f 373/373/373 375/375/375 376/376/376
f 377/377/377 378/378/378 369/369/369
f 379/379/379 375/375/375 380/380/380
f 381/381/381 382/382/382 377/377/377
f 367/367/367 383/383/383 384/384/384
f 383/383/383 385/385/385 386/386/386
f 385/385/385 387/387/387 386/386/386
f 381/381/381 388/388/388 389/389/389
f 390/390/390 391/391/391 392/392/392
f 393/393/393 394/394/394 395/395/395
f 379/379/379 396/396/396 397/397/397
f 392/392/392 398/398/398 399/399/399
f 400/400/400 401/401/401 402/402/402
f 403/403/403 404/404/404 405/405/405
f 406/406/406 407/407/407 408/408/408
f 409/409/409 410/410/410 411/411/411
f 412/412/412 413/413/413 414/414/414
f 415/415/415 416/416/416 417/417/417
f 418/418/418 419/419/419 420/420/420
f 421/421/421 422/422/422 423/423/423
f 424/424/424 425/425/425 426/426/426
f 427/427/427 428/428/428 429/429/429
f 430/430/430 431/431/431 432/432/432
f 433/433/433 434/434/434 435/435/435
f 436/436/436 437/437/437 438/438/438
f 439/439/439 440/440/440 441/441/441
f 442/442/442 443/443/443 444/444/444
f 445/445/445 446/446/446 447/447/447
f 448/448/448 449/449/449 450/450/450
f 451/451/451 452/452/452 453/453/453
f 454/454/454 455/455/455 456/456/456
f 457/457/457 458/458/458 459/459/459
f 460/460/460 461/461/461 462/462/462
f 463/463/463 464/464/464 465/465/465
f 466/466/466 467/467/467 468/468/468
f 469/469/469 470/470/470 471/471/471
f 472/472/472 473/473/473 474/474/474
f 475/475/475 476/476/476 477/477/477
f 478/478/478 479/479/479 480/480/480
f 481/481/481 482/482/482 483/483/483
f 484/484/484 485/485/485 486/486/486
f 487/487/487 488/488/488 489/489/489
f 490/490/490 491/491/491 492/492/492
f 493/493/493 494/494/494 495/495/495
f 496/496/496 497/497/497 498/498/498
f 499/499/499 500/500/500 501/501/501
f 502/502/502 503/503/503 504/504/504
f 505/505/505 506/506/506 507/507/507
f 508/508/508 509/509/509 510/510/510
f 511/511/511 512/512/512 513/513/513
f 514/514/514 515/515/515 516/516/516
f 517/517/517 518/518/518 519/519/519
f 520/520/520 521/521/521 522/522/522
f 523/523/523 524/524/524 525/525/525
f 526/526/526 527/527/527 528/528/528
f 529/529/529 530/530/530 531/531/531
f 532/532/532 533/533/533 534/534/534
f 535/535/535 536/536/536 537/537/537
f 538/538/538 539/539/539 540/540/540
f 541/541/541 542/542/542 543/543/543
f 544/544/544 545/545/545 546/546/546
f 547/547/547 548/548/548 549/549/549
f 550/550/550 551/551/551 552/552/552
f 553/553/553 554/554/554 555/555/555
f 556/556/556 557/557/557 558/558/558
f 559/559/559 560/560/560 561/561/561
f 562/562/562 563/563/563 564/564/564
f 565/565/565 566/566/566 567/567/567
f 568/568/568 569/569/569 570/570/570
f 571/571/571 572/572/572 573/573/573
f 574/574/574 575/575/575 576/576/576
f 577/577/577 578/578/578 579/579/579
f 580/580/580 581/581/581 582/582/582
f 583/583/583 584/584/584 585/585/585
f 586/586/586 587/587/587 588/588/588
f 589/589/589 590/590/590 591/591/591
f 592/592/592 593/593/593 594/594/594
f 1/1/1 595/595/595 2/2/2
f 4/4/4 596/596/596 5/5/5
f 7/7/7 13/13/13 8/8/8
f 10/10/10 3/3/3 2/2/2
f 12/12/12 21/21/21 13/13/13
f 14/14/14 597/597/597 15/15/15
f 15/15/15 597/597/597 17/17/17
f 17/17/17 23/23/23 19/19/19
f 20/20/20 25/25/25 21/21/21
f 22/22/22 39/39/39 19/19/19
f 24/24/24 33/33/33 25/25/25
f 10/10/10 11/11/11 26/26/26
f 28/28/28 27/27/27 26/26/26
f 28/28/28 29/29/29 30/30/30
f 32/32/32 37/37/37 33/33/33
f 34/34/34 31/31/31 30/30/30
f 36/36/36 44/44/44 37/37/37
f 22/22/22 598/598/598 38/38/38
f 38/38/38 598/598/598 40/40/40
f 40/40/40 46/46/46 42/42/42
f 43/43/43 48/48/48 44/44/44
f 45/45/45 62/62/62 42/42/42
f 47/47/47 56/56/56 48/48/48
f 34/34/34 35/35/35 49/49/49
f 51/51/51 50/50/50 49/49/49
f 51/51/51 52/52/52 53/53/53
f 55/55/55 60/60/60 56/56/56
f 57/57/57 54/54/54 53/53/53
f 59/59/59 67/67/67 60/60/60
f 45/45/45 599/599/599 61/61/61
f 61/61/61 599/599/599 63/63/63
f 63/63/63 69/69/69 65/65/65
f 66/66/66 71/71/71 67/67/67
f 68/68/68 600/600/600 65/65/65
f 70/70/70 79/79/79 71/71/71
f 57/57/57 58/58/58 72/72/72
f 74/74/74 73/73/73 72/72/72
f 74/74/74 75/75/75 76/76/76
f 78/78/78 83/83/83 79/79/79
f 80/80/80 77/77/77 76/76/76
f 82/82/82 91/91/91 83/83/83
f 84/84/84 600/600/600 68/68/68
f 84/84/84 85/85/85 86/86/86
f 88/88/88 87/87/87 86/86/86
f 90/90/90 94/94/94 91/91/91
f 92/92/92 108/108/108 88/88/88
f 93/93/93 102/102/102 94/94/94
f 80/80/80 81/81/81 95/95/95
f 97/97/97 96/96/96 95/95/95
f 97/97/97 98/98/98 99/99/99
f 101/101/101 106/106/106 102/102/102
f 103/103/103 100/100/100 99/99/99
f 105/105/105 113/113/113 106/106/106
f 92/92/92 601/601/601 107/107/107
f 107/107/107 601/601/601 109/109/109
f 109/109/109 115/115/115 111/111/111
f 112/112/112 117/117/117 113/113/113
f 114/114/114 131/131/131 111/111/111
f 116/116/116 125/125/125 117/117/117
f 103/103/103 104/104/104 118/118/118
f 120/120/120 119/119/119 118/118/118
f 120/120/120 121/121/121 122/122/122
f 124/124/124 129/129/129 125/125/125
f 126/126/126 123/123/123 122/122/122
f 128/128/128 136/136/136 129/129/129
f 114/114/114 602/602/602 130/130/130
f 130/130/130 602/602/602 132/132/132
f 132/132/132 138/138/138 134/134/134
f 135/135/135 140/140/140 136/136/136
f 137/137/137 154/154/154 134/134/134
f 135/135/135 148/148/148 139/139/139
f 126/126/126 127/127/127 141/141/141
f 143/143/143 142/142/142 141/141/141
f 143/143/143 144/144/144 145/145/145
f 147/147/147 152/152/152 139/139/139
f 149/149/149 146/146/146 145/145/145
f 151/151/151 159/159/159 152/152/152
f 137/137/137 603/603/603 153/153/153
f 153/153/153 603/603/603 155/155/155
f 155/155/155 161/161/161 157/157/157
f 158/158/158 163/163/163 159/159/159
f 160/160/160 604/604/604 157/157/157
f 162/162/162 171/171/171 163/163/163
f 149/149/149 150/150/150 164/164/164
f 166/166/166 165/165/165 164/164/164
f 166/166/166 167/167/167 168/168/168
f 170/170/170 175/175/175 171/171/171
f 172/172/172 169/169/169 168/168/168
f 174/174/174 182/182/182 175/175/175
f 176/176/176 604/604/604 160/160/160
f 176/176/176 177/177/177 178/178/178
f 178/178/178 184/184/184 180/180/180
f 181/181/181 186/186/186 182/182/182
f 183/183/183 200/200/200 180/180/180
f 185/185/185 194/194/194 186/186/186
f 172/172/172 173/173/173 187/187/187
f 189/189/189 188/188/188 187/187/187
f 189/189/189 190/190/190 191/191/191
f 193/193/193 198/198/198 194/194/194
f 195/195/195 192/192/192 191/191/191
f 197/197/197 205/205/205 198/198/198
f 183/183/183 605/605/605 199/199/199
f 199/199/199 605/605/605 201/201/201
f 201/201/201 207/207/207 203/203/203
f 204/204/204 209/209/209 205/205/205
f 206/206/206 223/223/223 203/203/203
f 208/208/208 217/217/217 209/209/209
f 195/195/195 196/196/196 210/210/210
f 212/212/212 211/211/211 210/210/210
f 212/212/212 213/213/213 214/214/214
f 216/216/216 221/221/221 217/217/217
f 218/218/218 215/215/215 214/214/214
f 220/220/220 228/228/228 221/221/221
f 206/206/206 606/606/606 222/222/222
f 222/222/222 606/606/606 224/224/224
f 224/224/224 230/230/230 226/226/226
f 227/227/227 232/232/232 228/228/228
f 229/229/229 246/246/246 226/226/226
f 231/231/231 240/240/240 232/232/232
f 218/218/218 219/219/219 233/233/233
f 235/235/235 234/234/234 233/233/233
f 235/235/235 236/236/236 237/237/237
f 239/239/239 244/244/244 240/240/240
f 241/241/241 238/238/238 237/237/237
f 243/243/243 251/251/251 244/244/244
f 229/229/229 607/607/607 245/245/245
f 245/245/245 607/607/607 247/247/247
f 247/247/247 253/253/253 249/249/249
f 250/250/250 255/255/255 251/251/251
f 252/252/252 608/608/608 249/249/249
f 254/254/254 263/263/263 255/255/255
f 241/241/241 242/242/242 256/256/256
f 258/258/258 257/257/257 256/256/256
f 258/258/258 259/259/259 260/260/260
f 262/262/262 267/267/267 263/263/263
f 264/264/264 261/261/261 260/260/260
f 266/266/266 274/274/274 267/267/267
f 268/268/268 608/608/608 252/252/252
f 268/268/268 269/269/269 270/270/270
f 270/270/270 276/276/276 272/272/272
f 273/273/273 278/278/278 274/274/274
f 275/275/275 292/292/292 272/272/272
f 277/277/277 286/286/286 278/278/278
f 264/264/264 265/265/265 279/279/279
f 281/281/281 280/280/280 279/279/279
f 281/281/281 282/282/282 283/283/283
f 285/285/285 290/290/290 286/286/286
f 287/287/287 284/284/284 283/283/283
f 289/289/289 297/297/297 290/290/290
f 275/275/275 609/609/609 291/291/291
f 291/291/291 609/609/609 293/293/293
f 293/293/293 299/299/299 295/295/295
f 296/296/296 301/301/301 297/297/297
f 298/298/298 315/315/315 295/295/295
f 300/300/300 309/309/309 301/301/301
f 287/287/287 288/288/288 302/302/302
f 304/304/304 303/303/303 302/302/302
f 304/304/304 305/305/305 306/306/306
f 308/308/308 313/313/313 309/309/309
f 310/310/310 307/307/307 306/306/306
f 312/312/312 320/320/320 313/313/313
f 298/298/298 610/610/610 314/314/314
f 314/314/314 610/610/610 316/316/316
f 316/316/316 322/322/322 318/318/318
f 319/319/319 324/324/324 320/320/320
f 321/321/321 338/338/338 318/318/318
f 323/323/323 332/332/332 324/324/324
f 310/310/310 311/311/311 325/325/325
f 327/327/327 326/326/326 325/325/325
f 327/327/327 328/328/328 329/329/329
f 331/331/331 336/336/336 332/332/332
f 333/333/333 330/330/330 329/329/329
f 335/335/335 343/343/343 336/336/336
f 321/321/321 611/611/611 337/337/337
f 337/337/337 611/611/611 339/339/339
f 339/339/339 345/345/345 341/341/341
f 342/342/342 347/347/347 343/343/343
f 344/344/344 612/612/612 341/341/341
f 346/346/346 355/355/355 347/347/347
f 333/333/333 334/334/334 348/348/348
f 350/350/350 349/349/349 348/348/348
f 350/350/350 351/351/351 352/352/352
f 354/354/354 359/359/359 355/355/355
f 356/356/356 353/353/353 352/352/352
f 358/358/358 366/366/366 359/359/359
f 360/360/360 612/612/612 344/344/344
f 360/360/360 361/361/361 362/362/362
f 362/362/362 368/368/368 364/364/364
f 365/365/365 370/370/370 366/366/366
f 367/367/367 384/384/384 364/364/364
f 369/369/369 378/378/378 370/370/370
f 356/356/356 357/357/357 371/371/371
f 373/373/373 372/372/372 371/371/371
f 373/373/373 374/374/374 375/375/375
f 377/377/377 382/382/382 378/378/378
f 379/379/379 376/376/376 375/375/375
f 381/381/381 389/389/389 382/382/382
f 367/367/367 613/613/613 383/383/383
f 383/383/383 613/613/613 385/385/385
f 385/385/385 614/614/614 387/387/387
f 381/381/381 615/615/615 388/388/388
f 390/390/390 616/616/616 391/391/391
f 393/393/393 617/617/617 394/394/394
f 379/379/379 380/380/380 396/396/396
f 392/392/392 391/391/391 398/398/398
f 400/400/400 618/618/618 401/401/401
f 403/403/403 619/619/619 404/404/404
f 406/406/406 620/620/620 407/407/407
f 409/409/409 621/621/621 410/410/410
f 412/412/412 622/622/622 413/413/413
f 415/415/415 623/623/623 416/416/416
f 418/418/418 624/624/624 419/419/419
f 421/421/421 625/625/625 422/422/422
f 424/424/424 626/626/626 425/425/425
f 427/427/427 627/627/627 428/428/428
f 430/430/430 628/628/628 431/431/431
f 433/433/433 629/629/629 434/434/434
f 436/436/436 630/630/630 437/437/437
f 439/439/439 631/631/631 440/440/440
f 442/442/442 632/632/632 443/443/443
f 445/445/445 633/633/633 446/446/446
f 448/448/448 634/634/634 449/449/449
f 451/451/451 635/635/635 452/452/452
f 454/454/454 636/636/636 455/455/455
f 457/457/457 637/637/637 458/458/458
f 460/460/460 638/638/638 461/461/461
f 463/463/463 639/639/639 464/464/464
f 466/466/466 640/640/640 467/467/467
f 469/469/469 641/641/641 470/470/470
f 472/472/472 642/642/642 473/473/473
f 475/475/475 643/643/643 476/476/476
f 478/478/478 644/644/644 479/479/479
f 481/481/481 645/645/645 482/482/482
f 484/484/484 646/646/646 485/485/485
f 487/487/487 647/647/647 488/488/488
f 490/490/490 648/648/648 491/491/491
f 493/493/493 649/649/649 494/494/494
f 496/496/496 650/650/650 497/497/497
f 499/499/499 651/651/651 500/500/500
f 502/502/502 652/652/652 503/503/503
f 505/505/505 653/653/653 506/506/506
f 508/508/508 654/654/654 509/509/509
f 511/511/511 655/655/655 512/512/512
f 514/514/514 656/656/656 515/515/515
f 517/517/517 657/657/657 518/518/518
f 520/520/520 658/658/658 521/521/521
f 523/523/523 659/659/659 524/524/524
f 526/526/526 660/660/660 527/527/527
f 529/529/529 661/661/661 530/530/530
f 532/532/532 662/662/662 533/533/533
f 535/535/535 663/663/663 536/536/536
f 538/538/538 664/664/664 539/539/539
f 541/541/541 665/665/665 542/542/542
f 544/544/544 666/666/666 545/545/545
f 547/547/547 667/667/667 548/548/548
f 550/550/550 668/668/668 551/551/551
f 553/553/553 669/669/669 554/554/554
f 556/556/556 670/670/670 557/557/557
f 559/559/559 671/671/671 560/560/560
f 562/562/562 672/672/672 563/563/563
f 565/565/565 673/673/673 566/566/566
f 568/568/568 674/674/674 569/569/569
f 571/571/571 675/675/675 572/572/572
f 574/574/574 676/676/676 575/575/575
f 577/577/577 677/677/677 578/578/578
f 580/580/580 678/678/678 581/581/581
f 583/583/583 679/679/679 584/584/584
f 586/586/586 680/680/680 587/587/587
f 589/589/589 681/681/681 590/590/590
f 592/592/592 682/682/682 593/593/593
