# Cube.025 -- imported by tools/import_asset_pack.py from psx.fbx
o __pending__
v 13.301837 3.199960 1.848473
v 12.801838 3.333934 2.334268
v 12.801838 3.333934 1.848473
v 12.301839 3.199960 1.848473
v 12.801838 3.333934 2.334268
v 12.301839 3.302067 2.334268
v 12.301839 3.199960 2.334268
v 13.301837 3.302067 2.334268
v 13.301837 3.199960 2.334268
v 12.301839 3.302067 1.848473
v 12.801838 3.436042 2.334268
v 12.801838 3.436042 1.848473
v 13.301837 3.302067 1.848473
v 13.301837 3.302067 2.334268
v 13.301837 3.302067 1.848473
v 13.301837 3.199960 2.334268
v 13.301837 3.199960 1.848473
v 12.801838 3.333934 1.848473
v 13.301837 3.302067 1.848473
v 13.301837 3.199960 1.848473
v 12.301839 3.302067 1.848473
v 12.301839 3.199960 1.848473
v 12.301839 3.302067 2.334268
v 12.301839 3.199960 1.848473
v 12.301839 3.199960 2.334268
v 13.301837 3.199960 2.334268
v 12.301839 3.199960 2.334268
v 12.801838 3.436042 2.334268
v 12.301839 3.302067 2.334268
v 13.301837 3.302067 2.334268
v 12.801838 3.436042 1.848473
v 12.301839 3.302067 1.848473
vt 0.952295 0.380798
vt 0.907942 0.426360
vt 0.952209 0.426360
vt 0.952295 0.471923
vt 0.958271 0.892279
vt 0.955367 0.846716
vt 0.946064 0.846716
vt 0.955367 0.937841
vt 0.946064 0.937841
vt 0.104668 0.062602
vt 0.060191 0.108164
vt 0.104452 0.108164
vt 0.104668 0.153726
vt 0.060407 0.153726
vt 0.497432 0.096598
vt 0.506726 0.140866
vt 0.506726 0.096598
vt 0.784799 0.135909
vt 0.781895 0.090347
vt 0.772591 0.090347
vt 0.781895 0.181472
vt 0.772591 0.181472
vt 0.340082 0.159173
vt 0.349380 0.203441
vt 0.349380 0.159173
vt 0.908029 0.380798
vt 0.908029 0.471923
vt 0.967574 0.892279
vt 0.060407 0.062602
vt 0.497432 0.140866
vt 0.794103 0.135909
vt 0.340082 0.203441
vn 0.502343 -0.654715 -0.564801
vn 0.000000 -0.637766 0.770230
vn 0.000000 -0.637746 -0.770247
vn -0.502329 -0.654721 -0.564806
vn 0.000000 -0.637766 0.770230
vn -0.639174 0.490466 0.592368
vn -0.502362 -0.654691 0.564812
vn 0.639182 0.490462 0.592363
vn 0.502349 -0.654697 0.564817
vn -0.639178 0.490480 -0.592352
vn 0.000000 0.757186 0.653199
vn 0.000000 0.757168 -0.653220
vn 0.639170 0.490484 -0.592357
vn 0.639182 0.490462 0.592363
vn 0.639170 0.490484 -0.592357
vn 0.502349 -0.654697 0.564817
vn 0.502343 -0.654715 -0.564801
vn 0.000000 -0.637746 -0.770247
vn 0.639170 0.490484 -0.592357
vn 0.502343 -0.654715 -0.564801
vn -0.639178 0.490480 -0.592352
vn -0.502329 -0.654721 -0.564806
vn -0.639174 0.490466 0.592368
vn -0.502329 -0.654721 -0.564806
vn -0.502362 -0.654691 0.564812
vn 0.502349 -0.654697 0.564817
vn -0.502362 -0.654691 0.564812
vn 0.000000 0.757186 0.653199
vn -0.639174 0.490466 0.592368
vn 0.639182 0.490462 0.592363
vn 0.000000 0.757168 -0.653220
vn -0.639178 0.490480 -0.592352
f 1/1/1 2/2/2 3/3/3
f 2/2/2 4/4/4 3/3/3
f 5/5/5 6/6/6 7/7/7
f 8/8/8 5/5/5 9/9/9
f 10/10/10 11/11/11 12/12/12
f 13/13/13 11/11/11 14/14/14
f 15/15/15 16/16/16 17/17/17
f 18/18/18 19/19/19 20/20/20
f 21/21/21 18/18/18 22/22/22
f 23/23/23 24/24/24 25/25/25
f 1/1/1 26/26/26 2/2/2
f 2/2/2 27/27/27 4/4/4
f 5/5/5 28/28/28 6/6/6
f 8/8/8 28/28/28 5/5/5
f 10/10/10 29/29/29 11/11/11
f 13/13/13 12/12/12 11/11/11
f 15/15/15 30/30/30 16/16/16
f 18/18/18 31/31/31 19/19/19
f 21/21/21 31/31/31 18/18/18
f 23/23/23 32/32/32 24/24/24
