# Cube.007 -- imported by tools/import_asset_pack.py from psx.fbx
o __pending__
v 0.412523 1.616436 1.942614
v 0.412523 1.616436 1.442615
v -0.020489 1.616436 1.192614
v -0.270491 1.616436 2.125629
v -0.453506 0.656597 1.942614
v -0.270491 0.656597 2.125629
v -0.453506 1.616436 1.942614
v -0.520492 0.656597 1.692612
v -0.520492 1.616436 1.692612
v -0.453506 0.656597 1.442615
v -0.453506 1.616436 1.442615
v -0.270491 0.656597 1.259600
v -0.270491 1.616436 1.259600
v -0.020489 0.656597 1.192614
v -0.270491 0.656597 1.259600
v 0.229508 0.656597 1.259600
v 0.479509 0.656597 1.692612
v -0.270491 0.656597 2.125629
v -0.020489 1.616436 1.192614
v 0.229508 0.656597 1.259600
v 0.412523 1.616436 1.442615
v 0.412523 0.656597 1.442615
v 0.412523 1.616436 1.442615
v 0.479509 0.656597 1.692612
v 0.412523 0.656597 1.442615
v 0.479509 1.616436 1.692612
v 0.412523 0.656597 1.942614
v 0.412523 1.616436 1.942614
v 0.229508 0.656597 2.125629
v 0.229508 1.616436 2.125629
v -0.020489 0.656597 2.192615
v 0.229508 0.656597 2.125629
v -0.270491 1.616436 2.125629
v -0.270491 0.656597 2.125629
v -0.270491 1.616436 1.259600
v -0.453506 1.616436 1.442615
v -0.520492 1.616436 1.692612
v -0.453506 1.616436 1.942614
v -0.270491 1.616436 2.125629
v -0.020489 1.616436 2.192615
v 0.229508 1.616436 2.125629
v 0.479509 1.616436 1.692612
v 0.229508 1.616436 1.259600
v -0.270491 1.616436 1.259600
v 0.412523 0.656597 1.942614
v 0.229508 0.656597 2.125629
v -0.020489 0.656597 2.192615
v -0.453506 0.656597 1.942614
v -0.520492 0.656597 1.692612
v -0.453506 0.656597 1.442615
v -0.270491 0.656597 1.259600
v -0.020489 0.656597 1.192614
v 0.412523 0.656597 1.442615
v 0.229508 1.616436 1.259600
v 0.229508 1.616436 2.125629
v -0.020489 1.616436 2.192615
vt 0.667281 0.061426
vt 0.671373 0.076698
vt 0.686645 0.080790
vt 0.930650 0.520158
vt 0.924843 0.550492
vt 0.930650 0.550509
vt 0.924843 0.520141
vt 0.916931 0.550485
vt 0.916931 0.520134
vt 0.909033 0.550492
vt 0.909033 0.520141
vt 0.903266 0.550509
vt 0.834207 0.736170
vt 0.841795 0.706008
vt 0.834207 0.705856
vt 0.575091 0.080790
vt 0.590363 0.076697
vt 0.583275 0.050246
vt 0.841795 0.736322
vt 0.849900 0.705951
vt 0.856350 0.736016
vt 0.856350 0.705702
vt 0.642902 0.049741
vt 0.635461 0.080084
vt 0.642902 0.080092
vt 0.635461 0.049733
vt 0.627313 0.080086
vt 0.627313 0.049735
vt 0.620641 0.080097
vt 0.852221 0.019883
vt 0.844315 0.050183
vt 0.852221 0.050227
vt 0.836410 0.019883
vt 0.836410 0.050227
vt 0.693733 0.076698
vt 0.697825 0.069611
vt 0.697825 0.061426
vt 0.693733 0.054339
vt 0.686645 0.050247
vt 0.678461 0.050247
vt 0.671373 0.054339
vt 0.667281 0.069611
vt 0.678461 0.080790
vt 0.903266 0.520158
vt 0.594455 0.069610
vt 0.594455 0.061426
vt 0.590363 0.054338
vt 0.575091 0.050246
vt 0.568003 0.054338
vt 0.563911 0.061426
vt 0.563911 0.069610
vt 0.568003 0.076698
vt 0.583275 0.080790
vt 0.849900 0.736265
vt 0.620641 0.049746
vt 0.844315 0.019838
vn 0.655718 0.653235 0.378574
vn 0.655717 0.653233 -0.378579
vn -0.000004 0.653222 -0.757166
vn -0.378575 0.653243 0.655710
vn -0.655718 -0.653235 0.378574
vn -0.378587 -0.653214 0.655731
vn -0.655733 0.653209 0.378592
vn -0.757166 -0.653222 -0.000004
vn -0.757156 0.653235 0.000004
vn -0.655711 -0.653238 -0.378580
vn -0.655731 0.653217 -0.378582
vn -0.378574 -0.653235 -0.655718
vn -0.378582 0.653235 -0.655714
vn 0.000005 -0.653235 -0.757155
vn -0.378574 -0.653235 -0.655718
vn 0.378582 -0.653225 -0.655723
vn 0.757178 -0.653209 0.000005
vn -0.378587 -0.653214 0.655731
vn -0.000004 0.653222 -0.757166
vn 0.378582 -0.653225 -0.655723
vn 0.655717 0.653233 -0.378579
vn 0.655722 -0.653227 -0.378581
vn 0.655717 0.653233 -0.378579
vn 0.757178 -0.653209 0.000005
vn 0.655722 -0.653227 -0.378581
vn 0.757156 0.653235 -0.000005
vn 0.655713 -0.653235 0.378582
vn 0.655718 0.653235 0.378574
vn 0.378579 -0.653222 0.655728
vn 0.378581 0.653238 0.655711
vn 0.000000 -0.653246 0.757146
vn 0.378579 -0.653222 0.655728
vn -0.378575 0.653243 0.655710
vn -0.378587 -0.653214 0.655731
vn -0.378582 0.653235 -0.655714
vn -0.655731 0.653217 -0.378582
vn -0.757156 0.653235 0.000004
vn -0.655733 0.653209 0.378592
vn -0.378575 0.653243 0.655710
vn 0.000000 0.653214 0.757173
vn 0.378581 0.653238 0.655711
vn 0.757156 0.653235 -0.000005
vn 0.378581 0.653226 -0.655722
vn -0.378582 0.653235 -0.655714
vn 0.655713 -0.653235 0.378582
vn 0.378579 -0.653222 0.655728
vn 0.000000 -0.653246 0.757146
vn -0.655718 -0.653235 0.378574
vn -0.757166 -0.653222 -0.000004
vn -0.655711 -0.653238 -0.378580
vn -0.378574 -0.653235 -0.655718
vn 0.000005 -0.653235 -0.757155
vn 0.655722 -0.653227 -0.378581
vn 0.378581 0.653226 -0.655722
vn 0.378581 0.653238 0.655711
vn 0.000000 0.653214 0.757173
f 1/1/1 2/2/2 3/3/3
f 4/4/4 5/5/5 6/6/6
f 7/7/7 8/8/8 5/5/5
f 9/9/9 10/10/10 8/8/8
f 11/11/11 12/12/12 10/10/10
f 13/13/13 14/14/14 15/15/15
f 16/16/16 17/17/17 18/18/18
f 19/19/19 20/20/20 14/14/14
f 20/20/20 21/21/21 22/22/22
f 23/23/23 24/24/24 25/25/25
f 26/26/26 27/27/27 24/24/24
f 28/28/28 29/29/29 27/27/27
f 30/30/30 31/31/31 32/32/32
f 31/31/31 33/33/33 34/34/34
f 3/3/3 35/35/35 36/36/36
f 36/36/36 37/37/37 38/38/38
f 38/38/38 39/39/39 40/40/40
f 40/40/40 41/41/41 38/38/38
f 41/41/41 1/1/1 38/38/38
f 1/1/1 42/42/42 2/2/2
f 2/2/2 43/43/43 3/3/3
f 3/3/3 36/36/36 1/1/1
f 36/36/36 38/38/38 1/1/1
f 4/4/4 7/7/7 5/5/5
f 7/7/7 9/9/9 8/8/8
f 9/9/9 11/11/11 10/10/10
f 11/11/11 44/44/44 12/12/12
f 13/13/13 19/19/19 14/14/14
f 17/17/17 45/45/45 46/46/46
f 46/46/46 47/47/47 17/17/17
f 47/47/47 18/18/18 17/17/17
f 18/18/18 48/48/48 49/49/49
f 49/49/49 50/50/50 18/18/18
f 50/50/50 51/51/51 18/18/18
f 51/51/51 52/52/52 16/16/16
f 16/16/16 53/53/53 17/17/17
f 51/51/51 16/16/16 18/18/18
f 19/19/19 54/54/54 20/20/20
f 20/20/20 54/54/54 21/21/21
f 23/23/23 26/26/26 24/24/24
f 26/26/26 28/28/28 27/27/27
f 28/28/28 55/55/55 29/29/29
f 30/30/30 56/56/56 31/31/31
f 31/31/31 56/56/56 33/33/33
