# Cube -- imported by tools/import_asset_pack.py from psx.fbx
o __pending__
v 0.032134 0.041766 0.465321
v 0.221451 0.058545 0.465321
v 0.032134 0.058545 0.465321
v 0.032134 0.081023 0.465321
v 0.221451 0.081023 0.465321
v 0.234349 0.154480 0.465321
v 0.234349 -0.003517 0.465321
v 0.050272 0.008604 0.465321
v -0.000000 -0.003517 0.465321
v 0.234349 -0.031104 0.465321
v -0.000000 -0.031104 -0.198978
v 0.234349 -0.031104 -0.198978
v -0.000000 0.154480 0.465321
v 0.234349 0.154480 0.465321
v 0.153949 0.154480 0.399191
v 0.220219 0.154480 -0.134104
v 0.234349 0.154480 -0.180731
v -0.000000 0.154480 -0.180731
v 0.234349 0.154480 -0.180731
v -0.000000 -0.003517 -0.180731
v -0.000000 0.154480 -0.180731
v 0.234349 -0.032245 0.483068
v 0.234349 -0.031104 -0.198978
v 0.234349 -0.032245 -0.216725
v 0.234349 0.154480 -0.180731
v 0.234349 -0.003676 -0.216725
v 0.234349 -0.003517 -0.180731
v 0.234349 0.154480 0.465321
v 0.234349 0.159947 0.318791
v 0.234349 0.154480 0.318791
v 0.234349 0.159947 -0.053703
v 0.234349 0.154480 -0.053703
v 0.473846 -0.003026 -0.221407
v 0.486416 -0.002987 -0.207663
v 0.492007 -0.002987 -0.213179
v 0.472222 -0.003026 -0.213722
v 0.486416 0.158966 -0.207663
v 0.486416 -0.002987 -0.207663
v 0.486416 -0.002987 -0.207663
v 0.492295 0.158944 -0.193394
v 0.492295 -0.002971 -0.193394
v 0.234349 -0.032245 -0.216725
v 0.228685 -0.031104 -0.204420
v 0.228942 -0.032245 -0.222423
v 0.473840 -0.031320 0.487751
v 0.234349 -0.032245 0.483068
v 0.472222 -0.031320 0.480065
v 0.492295 -0.031242 -0.193394
v 0.492295 -0.031242 0.459737
v 0.492295 0.158944 0.459737
v 0.234349 -0.003676 -0.216725
v 0.472222 0.159022 -0.213722
v 0.307898 0.159661 0.132544
v 0.266647 0.159821 0.286493
v 0.492295 0.158944 0.459737
v 0.472222 0.159022 0.480065
v 0.234349 -0.003676 0.483068
v 0.472222 -0.003026 0.480065
v 0.500000 -0.002971 -0.194919
v 0.486416 -0.002987 0.474006
v 0.473846 -0.003026 0.487750
v 0.492007 -0.002987 0.479522
v 0.486416 -0.002987 0.474006
v 0.492295 -0.002971 0.459737
v 0.486416 0.158967 0.474006
v 0.486416 -0.002987 0.474006
v 0.500000 -0.031242 0.461263
v 0.486416 -0.031265 0.474006
v 0.500000 -0.002971 0.461262
v 0.492295 -0.002971 0.459737
v 0.234349 -0.003676 0.483068
v 0.234349 -0.003517 0.465321
v 0.486416 -0.031265 -0.207663
v 0.500000 -0.031242 -0.194920
v -0.000000 -0.003517 0.465321
v 0.228811 -0.003517 0.470891
v 0.234349 -0.003517 0.465321
v 0.492295 -0.002971 -0.193394
v 0.228819 -0.003676 0.488646
v 0.228685 -0.031104 0.470763
v 0.228942 -0.032245 0.488766
v 0.492001 -0.031265 0.479529
v 0.473846 -0.003026 0.487750
v 0.473840 -0.031320 0.487751
v 0.500000 -0.031242 0.461263
v 0.492007 -0.002987 0.479522
v 0.492001 -0.031265 0.479529
v 0.228819 -0.003676 0.488646
v 0.228819 -0.003676 -0.222303
v 0.473840 -0.031320 -0.221408
v 0.228942 -0.032245 -0.222423
v 0.500000 -0.002971 0.461262
v 0.500000 -0.031242 -0.194920
v 0.500000 -0.002971 -0.194919
v 0.492007 -0.002987 -0.213179
v 0.492001 -0.031265 -0.213186
v 0.473846 -0.003026 -0.221407
v 0.492001 -0.031265 -0.213186
v 0.228685 -0.031104 -0.204420
v 0.228819 -0.003676 -0.222303
v 0.228942 -0.032245 -0.222423
v 0.228685 -0.031104 -0.204420
v -0.000000 -0.003517 -0.206833
v 0.228811 -0.003517 -0.204548
v -0.000000 -0.003517 0.473176
v 0.228685 -0.031104 0.470763
v 0.228811 -0.003517 0.470891
v 0.473840 -0.031320 -0.221408
v 0.492001 -0.031265 -0.213186
v 0.472222 -0.031320 -0.213722
v 0.234349 -0.003676 0.483068
v 0.228685 -0.031104 0.470763
v -0.000000 -0.031104 0.465321
v 0.472222 -0.003026 0.480065
v 0.492001 -0.031265 0.479529
v 0.228811 -0.003517 -0.204548
v 0.234349 -0.003676 -0.216725
v 0.228819 -0.003676 -0.222303
v 0.472222 -0.003026 -0.213722
v -0.000000 -0.003517 -0.180731
v 0.234349 -0.003517 -0.180731
v -0.214506 0.041766 0.465321
v -0.025190 0.058545 0.465321
v -0.214506 0.058545 0.465321
v -0.025190 0.081023 0.465321
v -0.000000 0.154480 0.465321
v -0.234349 0.154480 0.465321
v -0.234349 -0.003517 0.465321
v -0.043327 0.008604 0.465321
v -0.196368 0.008604 0.465321
v -0.234349 -0.031104 0.465321
v -0.153949 0.154480 0.399191
v -0.234349 0.154480 0.465321
v -0.220219 0.154480 -0.134104
v -0.000000 0.154480 -0.175354
v -0.234349 0.154480 -0.180731
v -0.234349 -0.003517 -0.180731
v -0.234349 -0.032245 0.483068
v -0.234349 -0.031104 -0.198978
v -0.234349 -0.031104 0.465321
v -0.234349 0.154480 -0.180731
v -0.234349 -0.003676 -0.216725
v -0.234349 0.159947 -0.216725
v -0.234349 0.154480 0.465321
v -0.234349 0.159947 0.318791
v -0.234349 0.159947 0.483068
v -0.234349 0.159947 -0.053703
v -0.486416 -0.002987 -0.207663
v -0.473846 -0.003026 -0.221407
v -0.492007 -0.002987 -0.213179
v -0.486416 0.158966 -0.207663
v -0.472222 -0.003026 -0.213722
v -0.486416 -0.002987 -0.207663
v -0.492295 0.158944 -0.193394
v -0.486416 -0.002987 -0.207663
v -0.492295 -0.002971 -0.193394
v -0.228685 -0.031104 -0.204420
v -0.234349 -0.032245 -0.216725
v -0.228942 -0.032245 -0.222423
v -0.473840 -0.031320 0.487751
v -0.234349 -0.032245 0.483068
v -0.228942 -0.032245 0.488766
v -0.492295 -0.031242 -0.193394
v -0.472222 -0.031320 -0.213722
v -0.492295 0.158944 0.459737
v -0.492295 -0.002971 0.459737
v -0.472222 0.159022 -0.213722
v -0.234349 -0.003676 -0.216725
v -0.234349 -0.031104 -0.198978
v -0.307898 0.159661 0.132544
v -0.266647 0.159821 -0.021405
v -0.492295 0.158944 -0.193394
v -0.472222 0.159022 0.480065
v -0.234349 -0.003676 0.483068
v -0.234349 0.159947 0.483068
v -0.500000 -0.002971 -0.194919
v -0.486416 -0.002987 0.474006
v -0.473846 -0.003026 0.487750
v -0.472222 -0.003026 0.480065
v -0.486416 -0.002987 0.474006
v -0.486416 0.158967 0.474006
v -0.486416 0.158967 0.474006
v -0.472222 -0.003026 0.480065
v -0.486416 -0.031265 0.474006
v -0.500000 -0.031242 0.461263
v -0.492295 -0.031242 0.459737
v -0.500000 -0.002971 0.461262
v -0.492295 -0.002971 0.459737
v -0.234349 -0.003676 0.483068
v -0.234349 -0.003517 0.465321
v -0.500000 -0.031242 -0.194920
v -0.486416 -0.031265 -0.207663
v -0.228811 -0.003517 0.470891
v -0.234349 -0.003517 0.465321
v -0.228819 -0.003676 0.488646
v -0.228685 -0.031104 0.470763
v -0.228811 -0.003517 0.470891
v -0.473846 -0.003026 0.487750
v -0.492001 -0.031265 0.479529
v -0.473840 -0.031320 0.487751
v -0.492007 -0.002987 0.479522
v -0.500000 -0.031242 0.461263
v -0.492001 -0.031265 0.479529
v -0.228819 -0.003676 0.488646
v -0.228942 -0.032245 0.488766
v -0.473840 -0.031320 -0.221408
v -0.228819 -0.003676 -0.222303
v -0.228942 -0.032245 -0.222423
v -0.500000 -0.002971 0.461262
v -0.500000 -0.031242 -0.194920
v -0.492007 -0.002987 -0.213179
v -0.500000 -0.002971 -0.194919
v -0.473846 -0.003026 -0.221407
v -0.492001 -0.031265 -0.213186
v -0.492007 -0.002987 -0.213179
v -0.228819 -0.003676 -0.222303
v -0.228685 -0.031104 -0.204420
v -0.228942 -0.032245 -0.222423
v -0.228685 -0.031104 -0.204420
v -0.000000 -0.031104 -0.206833
v -0.228685 -0.031104 0.470763
v -0.228811 -0.003517 0.470891
v -0.473840 -0.031320 -0.221408
v -0.234349 -0.003676 0.483068
v -0.228685 -0.031104 0.470763
v -0.000000 -0.031104 0.473176
v -0.492001 -0.031265 0.479529
v -0.228811 -0.003517 -0.204548
v -0.234349 -0.003676 -0.216725
v -0.234349 -0.003517 -0.180731
v -0.228819 -0.003676 -0.222303
v -0.000000 -0.003517 -0.206833
v -0.000000 0.154480 -0.175354
v 0.220219 0.094941 -0.134104
v 0.220219 0.154480 -0.134104
v 0.266647 0.094941 -0.021405
v 0.266647 0.159821 -0.021405
v 0.307898 0.159661 0.132544
v 0.307898 0.094941 0.132544
v 0.266647 0.094941 0.286493
v 0.266647 0.159821 0.286493
v -0.000000 0.094941 0.440442
v -0.000000 0.154480 0.440442
v 0.153949 0.154480 0.399191
v -0.153949 0.154480 0.399191
v -0.153949 0.094941 0.399191
v -0.234349 0.154480 0.318791
v -0.266647 0.094941 0.286493
v -0.307898 0.159661 0.132544
v -0.266647 0.094941 0.286493
v -0.307898 0.094941 0.132544
v -0.266647 0.094941 -0.021405
v -0.266647 0.159821 -0.021405
v -0.220219 0.094941 -0.134104
v -0.220219 0.154480 -0.134104
v -0.234349 0.154480 -0.053703
v -0.000000 0.094941 -0.175354
v -0.220219 0.154480 -0.134104
v -0.220219 0.094941 -0.134104
v 0.153949 0.094941 0.399191
v 0.307898 0.094941 0.132544
v -0.000000 0.094941 -0.175354
v 0.032134 0.081023 0.465321
v 0.032134 0.058545 0.418887
v 0.032134 0.081023 0.418887
v 0.032134 0.058545 0.465321
v 0.221451 0.058545 0.418887
v 0.032134 0.058545 0.418887
v 0.221451 0.058545 0.418887
v 0.221451 0.081023 0.465321
v 0.221451 0.081023 0.418887
v 0.221451 0.081023 0.418887
v 0.032134 0.081023 0.465321
v 0.032134 0.081023 0.418887
v 0.032134 0.058545 0.418887
v 0.221451 0.081023 0.418887
v 0.032134 0.081023 0.418887
v 0.221451 0.041766 0.418887
v 0.032134 0.041766 0.465321
v 0.032134 0.041766 0.418887
v 0.037447 0.013916 0.465321
v 0.050272 0.008604 0.418887
v 0.037447 0.013916 0.418887
v 0.032134 0.026742 0.465321
v 0.037447 0.013916 0.418887
v 0.032134 0.026742 0.418887
v 0.216139 0.013916 0.418887
v 0.221451 0.026742 0.465321
v 0.221451 0.026742 0.418887
v 0.216139 0.013916 0.418887
v 0.203314 0.008604 0.465321
v 0.216139 0.013916 0.465321
v 0.032134 0.041766 0.465321
v 0.032134 0.041766 0.418887
v 0.050272 0.008604 0.465321
v 0.203314 0.008604 0.418887
v 0.203314 0.008604 0.418887
v 0.216139 0.013916 0.418887
v 0.221451 0.026742 0.418887
v 0.221451 0.041766 0.465321
v 0.221451 0.041766 0.418887
v -0.214506 0.081023 0.465321
v -0.214506 0.058545 0.418887
v -0.214506 0.081023 0.418887
v -0.214506 0.058545 0.465321
v -0.025190 0.058545 0.418887
v -0.214506 0.058545 0.418887
v -0.025190 0.058545 0.418887
v -0.025190 0.081023 0.465321
v -0.025190 0.081023 0.418887
v -0.025190 0.081023 0.418887
v -0.214506 0.081023 0.465321
v -0.214506 0.081023 0.418887
v -0.214506 0.058545 0.418887
v -0.025190 0.081023 0.418887
v -0.214506 0.081023 0.418887
v -0.025190 0.041766 0.418887
v -0.214506 0.041766 0.465321
v -0.214506 0.041766 0.418887
v -0.209194 0.013916 0.465321
v -0.196368 0.008604 0.418887
v -0.209194 0.013916 0.418887
v -0.214506 0.026742 0.465321
v -0.209194 0.013916 0.418887
v -0.214506 0.026742 0.418887
v -0.030502 0.013916 0.418887
v -0.025190 0.026742 0.465321
v -0.025190 0.026742 0.418887
v -0.030502 0.013916 0.418887
v -0.043327 0.008604 0.465321
v -0.030502 0.013916 0.465321
v -0.214506 0.041766 0.465321
v -0.214506 0.041766 0.418887
v -0.196368 0.008604 0.465321
v -0.043327 0.008604 0.418887
v -0.043327 0.008604 0.418887
v -0.030502 0.013916 0.418887
v -0.025190 0.026742 0.418887
v -0.025190 0.041766 0.465321
v -0.025190 0.041766 0.418887
v 0.221451 0.041766 0.465321
v 0.216139 0.013916 0.465321
v 0.203314 0.008604 0.465321
v 0.037447 0.013916 0.465321
v 0.032134 0.026742 0.465321
v 0.221451 0.026742 0.465321
v -0.000000 0.154480 0.440442
v 0.234349 0.154480 0.318791
v -0.000000 0.154480 -0.175354
v 0.234349 0.154480 -0.053703
v 0.234349 -0.003517 -0.180731
v 0.234349 -0.031104 0.465321
v 0.234349 0.159947 -0.216725
v 0.234349 0.159947 0.483068
v 0.486416 0.158966 -0.207663
v 0.228942 -0.032245 0.488766
v 0.234349 0.159947 -0.216725
v -0.000000 -0.031104 -0.206833
v 0.472222 0.159022 -0.213722
v 0.234349 0.159947 -0.216725
v 0.266647 0.159821 -0.021405
v 0.234349 0.159947 -0.053703
v 0.492295 0.158944 -0.193394
v 0.486416 0.158966 -0.207663
v 0.486416 0.158967 0.474006
v 0.472222 0.159022 0.480065
v 0.234349 0.159947 0.483068
v 0.234349 0.159947 0.318791
v 0.234349 0.159947 0.483068
v 0.486416 0.158967 0.474006
v -0.000000 -0.003517 0.473176
v 0.228811 -0.003517 0.470891
v 0.492007 -0.002987 0.479522
v 0.228942 -0.032245 0.488766
v 0.492007 -0.002987 -0.213179
v 0.228811 -0.003517 -0.204548
v -0.000000 -0.031104 0.473176
v 0.228819 -0.003676 0.488646
v -0.025190 0.041766 0.465321
v -0.030502 0.013916 0.465321
v -0.209194 0.013916 0.465321
v -0.214506 0.026742 0.465321
v -0.025190 0.026742 0.465321
v -0.214506 0.081023 0.465321
v -0.234349 0.154480 0.318791
v -0.000000 0.154480 0.440442
v -0.234349 0.154480 -0.180731
v -0.234349 0.154480 -0.053703
v -0.234349 -0.032245 -0.216725
v -0.234349 -0.003517 -0.180731
v -0.234349 0.154480 0.318791
v -0.472222 -0.003026 -0.213722
v -0.486416 0.158966 -0.207663
v -0.472222 -0.031320 0.480065
v -0.234349 0.159947 -0.216725
v -0.472222 0.159022 -0.213722
v -0.486416 0.158966 -0.207663
v -0.492295 0.158944 0.459737
v -0.486416 0.158967 0.474006
v -0.472222 0.159022 0.480065
v -0.266647 0.159821 0.286493
v -0.234349 0.159947 0.483068
v -0.234349 0.159947 0.318791
v -0.234349 0.159947 -0.216725
v -0.234349 0.159947 -0.053703
v -0.492295 -0.002971 -0.193394
v -0.492007 -0.002987 0.479522
v -0.486416 -0.002987 0.474006
v -0.492001 -0.031265 -0.213186
v -0.228942 -0.032245 0.488766
v -0.492007 -0.002987 0.479522
v -0.492001 -0.031265 -0.213186
v -0.228811 -0.003517 -0.204548
v -0.228811 -0.003517 -0.204548
v -0.228819 -0.003676 0.488646
v 0.220219 0.154480 -0.134104
v 0.220219 0.094941 -0.134104
v 0.153949 0.094941 0.399191
v 0.153949 0.154480 0.399191
v 0.153949 0.094941 0.399191
v -0.266647 0.159821 0.286493
v -0.234349 0.159947 0.318791
v -0.266647 0.159821 0.286493
v 0.220219 0.094941 -0.134104
v 0.266647 0.094941 -0.021405
v -0.220219 0.094941 -0.134104
v -0.266647 0.094941 -0.021405
v -0.307898 0.094941 0.132544
v -0.266647 0.094941 0.286493
v -0.153949 0.094941 0.399191
v -0.000000 0.094941 0.440442
v 0.266647 0.094941 0.286493
v 0.032134 0.058545 0.465321
v 0.221451 0.058545 0.465321
v 0.221451 0.058545 0.465321
v 0.221451 0.081023 0.465321
v 0.221451 0.058545 0.418887
v 0.221451 0.041766 0.465321
v 0.037447 0.013916 0.465321
v 0.216139 0.013916 0.465321
v 0.221451 0.041766 0.418887
v 0.032134 0.041766 0.418887
v 0.032134 0.026742 0.418887
v 0.050272 0.008604 0.418887
v 0.037447 0.013916 0.418887
v -0.214506 0.058545 0.465321
v -0.025190 0.058545 0.465321
v -0.025190 0.058545 0.465321
v -0.025190 0.081023 0.465321
v -0.025190 0.058545 0.418887
v -0.025190 0.041766 0.465321
v -0.209194 0.013916 0.465321
v -0.030502 0.013916 0.465321
v -0.025190 0.041766 0.418887
v -0.214506 0.041766 0.418887
v -0.214506 0.026742 0.418887
v -0.196368 0.008604 0.418887
v -0.209194 0.013916 0.418887
vt 0.160040 0.258327
vt 0.153446 0.183913
vt 0.153446 0.258327
vt 0.144612 0.258327
vt 0.144613 0.183913
vt 0.115746 0.178843
vt 0.177835 0.178843
vt 0.173072 0.251198
vt 0.177835 0.270958
vt 0.271312 0.894598
vt 0.010199 0.802484
vt 0.010199 0.894598
vt 0.857275 0.609678
vt 0.857275 0.517563
vt 0.831281 0.549166
vt 0.872309 0.820341
vt 0.853982 0.814787
vt 0.853982 0.906902
vt 0.241828 0.179839
vt 0.179802 0.271645
vt 0.241828 0.271267
vt 0.246995 0.328920
vt 0.246546 0.597008
vt 0.246995 0.603984
vt 0.669416 0.501448
vt 0.731582 0.515596
vt 0.731519 0.501448
vt 0.669416 0.247508
vt 0.667267 0.305104
vt 0.669416 0.305104
vt 0.667267 0.451518
vt 0.669416 0.451518
vt 0.282847 0.616230
vt 0.288249 0.611290
vt 0.286081 0.609092
vt 0.249580 0.114745
vt 0.313083 0.108819
vt 0.249503 0.108917
vt 0.799173 0.515596
vt 0.862828 0.510427
vt 0.799185 0.510452
vt 0.003223 0.894598
vt 0.008060 0.892372
vt 0.000983 0.892473
vt 0.280129 0.988734
vt 0.278288 0.894598
vt 0.277108 0.988098
vt 0.012394 0.995988
vt 0.269117 0.995988
vt 0.862828 0.257308
vt 0.248962 0.207691
vt 0.313197 0.114647
vt 0.321442 0.466698
vt 0.337656 0.406186
vt 0.248962 0.338089
vt 0.667670 0.145066
vt 0.731582 0.238566
vt 0.731351 0.145066
vt 0.293258 0.605950
vt 0.556190 0.611290
vt 0.561592 0.616230
vt 0.558358 0.609092
vt 0.799173 0.251417
vt 0.799185 0.257333
vt 0.667742 0.139487
vt 0.731386 0.139487
vt 0.269717 0.999017
vt 0.274726 0.993677
vt 0.551180 0.605950
vt 0.550581 0.608979
vt 0.731582 0.240533
vt 0.731519 0.247509
vt 0.006785 0.993677
vt 0.011794 0.999017
vt 0.552776 0.802484
vt 0.554965 0.712546
vt 0.552776 0.710369
vt 0.293858 0.608979
vt 0.749787 0.021773
vt 0.742808 0.032587
vt 0.749886 0.033002
vt 0.967038 0.154646
vt 0.955855 0.161753
vt 0.966974 0.161784
vt 0.905895 0.738161
vt 0.916994 0.730555
vt 0.905879 0.730557
vt 0.955855 0.258065
vt 0.967194 0.741437
vt 0.956135 0.645891
vt 0.955980 0.741485
vt 0.917008 0.738157
vt 0.905895 0.992463
vt 0.917008 0.992458
vt 0.916994 0.999010
vt 0.905879 0.999017
vt 0.967242 0.645799
vt 0.955980 0.638412
vt 0.751853 0.022159
vt 0.758832 0.032972
vt 0.758931 0.021743
vt 0.925678 0.079629
vt 0.936555 0.168896
vt 0.936510 0.079520
vt 0.823582 0.159487
vt 0.834443 0.069599
vt 0.823601 0.069549
vt 0.001382 0.988734
vt 0.004614 0.995873
vt 0.004403 0.988098
vt 0.559752 0.710369
vt 0.273451 0.892372
vt 0.271312 0.802484
vt 0.558571 0.616869
vt 0.276897 0.995873
vt 0.289473 0.712546
vt 0.284687 0.710369
vt 0.282494 0.712542
vt 0.285867 0.616869
vt 0.298835 0.802484
vt 0.298835 0.710369
vt 0.160040 0.355273
vt 0.153446 0.280859
vt 0.153446 0.355273
vt 0.144612 0.280859
vt 0.115746 0.270958
vt 0.115746 0.363073
vt 0.177835 0.363073
vt 0.173072 0.287989
vt 0.173072 0.348144
vt 0.271312 0.710369
vt 0.831281 0.670190
vt 0.857275 0.701793
vt 0.872309 0.993463
vt 0.856095 0.906902
vt 0.241828 0.362695
vt 0.179802 0.363073
vt 0.244131 0.332781
vt 0.244580 0.597106
vt 0.244580 0.339658
vt 0.414484 0.378416
vt 0.352318 0.392390
vt 0.416632 0.392365
vt 0.186680 0.115710
vt 0.243467 0.113584
vt 0.179802 0.113558
vt 0.416632 0.329186
vt 0.288249 0.993677
vt 0.282847 0.988737
vt 0.286081 0.995875
vt 0.415898 0.192930
vt 0.352427 0.188010
vt 0.352318 0.193257
vt 0.733551 0.509995
vt 0.797207 0.515596
vt 0.797194 0.509996
vt 0.008060 0.712595
vt 0.003223 0.710369
vt 0.000983 0.712494
vt 0.280129 0.616233
vt 0.278288 0.710369
vt 0.280528 0.712494
vt 0.012394 0.608979
vt 0.004403 0.616869
vt 0.733551 0.253273
vt 0.797194 0.253273
vt 0.416043 0.187683
vt 0.352318 0.095352
vt 0.010199 0.710369
vt 0.592821 0.378310
vt 0.576606 0.438823
vt 0.665301 0.506426
vt 0.564300 0.232985
vt 0.628212 0.139486
vt 0.563911 0.139486
vt 0.293258 0.999017
vt 0.556190 0.993677
vt 0.561592 0.988737
vt 0.558571 0.988098
vt 0.797207 0.247657
vt 0.733548 0.247656
vt 0.564371 0.238565
vt 0.627981 0.232985
vt 0.274726 0.611290
vt 0.269717 0.605951
vt 0.269117 0.608979
vt 0.551181 0.999017
vt 0.550581 0.995988
vt 0.179802 0.177873
vt 0.186680 0.177813
vt 0.011794 0.605951
vt 0.006785 0.611290
vt 0.554965 0.892421
vt 0.552776 0.894598
vt 0.761012 0.021773
vt 0.767894 0.032594
vt 0.767894 0.021750
vt 0.967081 0.056336
vt 0.955897 0.049229
vt 0.955962 0.056367
vt 0.912596 0.243318
vt 0.923693 0.250506
vt 0.923711 0.243315
vt 0.967081 0.152648
vt 0.955855 0.152628
vt 0.956133 0.629662
vt 0.967194 0.534069
vt 0.955980 0.534169
vt 0.912580 0.250506
vt 0.923693 0.508428
vt 0.912596 0.515594
vt 0.912580 0.508427
vt 0.967241 0.629619
vt 0.955980 0.636353
vt 0.967082 0.636310
vt 0.775296 0.032963
vt 0.782177 0.022159
vt 0.775215 0.021734
vt 0.925678 0.258065
vt 0.925725 0.168962
vt 0.834443 0.249376
vt 0.823601 0.249425
vt 0.001382 0.616233
vt 0.559752 0.894598
vt 0.273451 0.712595
vt 0.274400 0.802484
vt 0.276897 0.609095
vt 0.289473 0.892421
vt 0.284687 0.894598
vt 0.298835 0.894598
vt 0.282494 0.892425
vt 0.288575 0.802484
vt 0.903607 0.639037
vt 0.926663 0.552476
vt 0.903266 0.552476
vt 0.692856 0.438779
vt 0.667354 0.438779
vt 0.667465 0.378212
vt 0.692905 0.378212
vt 0.692856 0.317756
vt 0.667354 0.317756
vt 0.837177 0.137497
vt 0.860547 0.137949
vt 0.862832 0.079901
vt 0.859780 0.199984
vt 0.836410 0.199533
vt 0.860462 0.235227
vt 0.837366 0.248933
vt 0.416450 0.252179
vt 0.391050 0.195234
vt 0.391011 0.252189
vt 0.391050 0.314559
vt 0.416552 0.314549
vt 0.391094 0.361282
vt 0.414497 0.361273
vt 0.414484 0.329186
vt 0.927005 0.639037
vt 0.903266 0.725597
vt 0.926663 0.725597
vt 0.595235 0.548886
vt 0.563911 0.665787
vt 0.712135 0.751364
vt 0.487388 0.029171
vt 0.478552 0.047170
vt 0.487388 0.047166
vt 0.287432 0.106852
vt 0.269180 0.032438
vt 0.269180 0.106852
vt 0.642384 0.047767
vt 0.633548 0.029515
vt 0.633548 0.047767
vt 0.289398 0.106852
vt 0.307650 0.032438
vt 0.289398 0.032438
vt 0.982529 0.362835
vt 0.973695 0.288421
vt 0.973695 0.362835
vt 0.955562 0.999017
vt 0.973814 0.924603
vt 0.955562 0.924603
vt 0.973814 0.850431
vt 0.955562 0.845390
vt 0.955562 0.850431
vt 0.581856 0.029933
vt 0.576819 0.048279
vt 0.581856 0.047929
vt 0.631581 0.047767
vt 0.626546 0.029508
vt 0.626546 0.047759
vt 0.955562 0.780194
vt 0.973814 0.785235
vt 0.973814 0.780194
vt 0.587761 0.029931
vt 0.587761 0.047926
vt 0.973814 0.845390
vt 0.955562 0.785235
vt 0.982079 0.038019
vt 0.979992 0.032978
vt 0.974952 0.030890
vt 0.620641 0.029508
vt 0.620641 0.047759
vt 0.498190 0.029171
vt 0.489355 0.047170
vt 0.498190 0.047166
vt 0.175876 0.115273
vt 0.157625 0.040859
vt 0.157625 0.115273
vt 0.476586 0.047170
vt 0.467750 0.028918
vt 0.467750 0.047170
vt 0.221681 0.111591
vt 0.239932 0.037177
vt 0.221681 0.037177
vt 0.982529 0.515596
vt 0.973695 0.441182
vt 0.973695 0.515596
vt 0.248962 0.106852
vt 0.267213 0.032438
vt 0.248962 0.032438
vt 0.973814 0.922636
vt 0.955562 0.917595
vt 0.955562 0.922636
vt 0.568947 0.029933
vt 0.563911 0.048279
vt 0.568947 0.047929
vt 0.966795 0.047231
vt 0.961760 0.028972
vt 0.961760 0.047224
vt 0.955562 0.852398
vt 0.973814 0.857439
vt 0.973814 0.852398
vt 0.574853 0.029931
vt 0.574853 0.047926
vt 0.973814 0.917595
vt 0.955562 0.857439
vt 0.982079 0.190780
vt 0.979992 0.185739
vt 0.974952 0.183651
vt 0.955855 0.028972
vt 0.955855 0.047224
vt 0.160040 0.183913
vt 0.170984 0.186001
vt 0.173072 0.191043
vt 0.170984 0.256239
vt 0.165944 0.258327
vt 0.165944 0.183913
vt 0.847496 0.609678
vt 0.799679 0.517563
vt 0.856095 0.906902
vt 0.903912 0.814787
vt 0.179802 0.180217
vt 0.246546 0.335896
vt 0.667267 0.515596
vt 0.667267 0.240532
vt 0.862832 0.515571
vt 0.280528 0.892473
vt 0.313197 0.207592
vt 0.007111 0.802484
vt 0.256852 0.602803
vt 0.350351 0.603984
vt 0.337656 0.527210
vt 0.350351 0.539905
vt 0.248962 0.594813
vt 0.251273 0.600422
vt 0.251273 0.332481
vt 0.256852 0.330099
vt 0.350351 0.328919
vt 0.350351 0.393490
vt 0.667281 0.238566
vt 0.862832 0.251392
vt 0.555864 0.802484
vt 0.742808 0.021743
vt 0.955926 0.154615
vt 0.967081 0.258045
vt 0.967081 0.638320
vt 0.751853 0.033002
vt 0.834423 0.159487
vt 0.561944 0.712542
vt 0.160040 0.280859
vt 0.170984 0.282948
vt 0.170984 0.353185
vt 0.165944 0.355273
vt 0.165944 0.280859
vt 0.144612 0.355273
vt 0.799679 0.701793
vt 0.847496 0.609678
vt 0.853982 0.999017
vt 0.903912 0.999017
vt 0.244131 0.603984
vt 0.352380 0.378441
vt 0.243467 0.115732
vt 0.285867 0.988098
vt 0.733548 0.515596
vt 0.277108 0.616869
vt 0.416553 0.095022
vt 0.657411 0.514416
vt 0.662990 0.512034
vt 0.665301 0.249702
vt 0.662990 0.244093
vt 0.657411 0.241712
vt 0.576606 0.317798
vt 0.563911 0.240531
vt 0.563911 0.305103
vt 0.563911 0.515596
vt 0.563911 0.451518
vt 0.293858 0.995988
vt 0.558358 0.995875
vt 0.628016 0.238565
vt 0.004614 0.609095
vt 0.760897 0.033002
vt 0.967010 0.049198
vt 0.923711 0.515596
vt 0.782177 0.033002
vt 0.936510 0.258054
vt 0.561945 0.892425
vt 0.669400 0.483139
vt 0.692802 0.483139
vt 0.692725 0.273609
vt 0.669322 0.273609
vt 0.839462 0.079449
vt 0.862832 0.249425
vt 0.862607 0.235268
vt 0.416552 0.195224
vt 0.624327 0.758106
vt 0.595235 0.720041
vt 0.791550 0.713299
vt 0.797712 0.665787
vt 0.797712 0.603140
vt 0.766389 0.548886
vt 0.712135 0.517563
vt 0.649488 0.517563
vt 0.563911 0.603140
vt 0.478552 0.029175
vt 0.287432 0.032438
vt 0.642384 0.029515
vt 0.307650 0.106852
vt 0.982529 0.288421
vt 0.973814 0.999017
vt 0.576819 0.030284
vt 0.631581 0.029515
vt 0.969047 0.030890
vt 0.969047 0.105304
vt 0.974952 0.105304
vt 0.982079 0.098174
vt 0.979992 0.103215
vt 0.489355 0.029175
vt 0.175876 0.040859
vt 0.476586 0.028918
vt 0.239932 0.111591
vt 0.982529 0.441182
vt 0.267213 0.106852
vt 0.563911 0.030284
vt 0.966795 0.028980
vt 0.969048 0.183651
vt 0.969047 0.258065
vt 0.974952 0.258065
vt 0.982079 0.250936
vt 0.979992 0.255977
vn 0.301496 -0.301501 0.904543
vn -0.301511 0.301510 0.904535
vn 0.301511 0.301501 0.904537
vn 0.301511 -0.301510 0.904535
vn -0.301501 -0.301513 0.904537
vn -0.904536 0.301522 0.301494
vn -0.576975 0.576304 0.578769
vn 0.128202 0.644499 0.753780
vn -0.000000 0.707171 0.707042
vn -0.705556 -0.708558 -0.011668
vn 0.000000 -1.000000 0.000000
vn -0.705557 -0.708557 0.011668
vn 0.000000 0.707108 0.707106
vn -0.904536 0.301522 0.301494
vn -0.318848 0.770243 -0.552325
vn -0.362789 0.860049 0.358748
vn -0.904538 0.301496 -0.301515
vn 0.000000 0.707097 -0.707117
vn -0.904538 0.301496 -0.301515
vn 0.000000 0.707105 -0.707109
vn 0.000000 0.707097 -0.707117
vn -0.032431 -0.999223 -0.022393
vn -0.705557 -0.708557 0.011668
vn -0.032428 -0.999223 0.022395
vn -0.904538 0.301496 -0.301515
vn -0.293082 0.906672 -0.303395
vn -0.577251 0.577204 -0.577595
vn -0.904536 0.301522 0.301494
vn -0.715959 0.631691 -0.297270
vn -0.819906 0.131347 -0.557227
vn -0.715959 0.631691 0.297269
vn -0.908512 -0.043328 0.415607
vn 0.157945 0.662939 -0.731823
vn 0.423118 0.802921 -0.419869
vn 0.549402 0.634787 -0.543325
vn 0.133605 0.753506 -0.643722
vn 0.553512 0.629878 -0.544866
vn 0.423118 0.802921 -0.419869
vn 0.423118 0.802921 -0.419869
vn 0.733186 0.664458 -0.144688
vn 0.644925 0.753432 -0.128111
vn -0.032428 -0.999223 0.022395
vn -0.336332 -0.900397 -0.275981
vn -0.572637 -0.585717 -0.573605
vn 0.161322 -0.662844 0.731172
vn -0.032431 -0.999223 -0.022393
vn 0.003796 -0.999993 -0.000441
vn 0.001785 -0.999998 0.000417
vn 0.001785 -0.999998 -0.000416
vn 0.733179 0.664465 0.144689
vn -0.293082 0.906672 -0.303395
vn 0.156280 0.665590 -0.729772
vn -0.636162 0.771555 -0.000000
vn -0.550281 0.771363 -0.319674
vn 0.733179 0.664465 0.144689
vn 0.156281 0.665590 0.729771
vn -0.293012 0.906581 0.303736
vn 0.133605 0.753506 0.643722
vn 0.731916 0.663893 -0.153445
vn 0.423118 0.802921 0.419868
vn 0.157944 0.662939 0.731823
vn 0.549402 0.634788 0.543325
vn 0.423118 0.802921 0.419868
vn 0.644933 0.753425 0.128109
vn 0.553513 0.629878 0.544865
vn 0.423118 0.802921 0.419868
vn 0.732297 -0.663601 0.152893
vn 0.002445 -0.999997 -0.000879
vn 0.731918 0.663890 0.153444
vn 0.644933 0.753425 0.128109
vn -0.293012 0.906581 0.303736
vn -0.576975 0.576304 0.578769
vn 0.002445 -0.999997 0.000879
vn 0.732299 -0.663598 -0.152891
vn -0.000000 0.707171 0.707042
vn -0.293535 0.906067 0.304761
vn -0.576975 0.576304 0.578769
vn 0.644925 0.753432 -0.128111
vn -0.575702 0.576918 0.579424
vn -0.336332 -0.900397 0.275981
vn -0.572637 -0.585717 0.573605
vn 0.550600 -0.634453 0.542502
vn 0.157944 0.662939 0.731823
vn 0.161322 -0.662844 0.731172
vn 0.732297 -0.663601 0.152893
vn 0.549402 0.634788 0.543325
vn 0.550600 -0.634453 0.542502
vn -0.575702 0.576918 0.579424
vn -0.575702 0.576918 -0.579424
vn 0.161322 -0.662845 -0.731172
vn -0.572637 -0.585717 -0.573605
vn 0.731918 0.663890 0.153444
vn 0.732299 -0.663598 -0.152891
vn 0.731916 0.663893 -0.153445
vn 0.549402 0.634787 -0.543325
vn 0.550600 -0.634454 -0.542502
vn 0.157945 0.662939 -0.731823
vn 0.550600 -0.634454 -0.542502
vn -0.336332 -0.900397 -0.275981
vn -0.575702 0.576918 -0.579424
vn -0.572637 -0.585717 -0.573605
vn -0.336332 -0.900397 -0.275981
vn -0.000000 0.704741 -0.709465
vn -0.288427 0.907897 -0.304191
vn 0.000000 0.704741 0.709464
vn -0.336332 -0.900397 0.275981
vn -0.293535 0.906067 0.304761
vn 0.161322 -0.662845 -0.731172
vn 0.550600 -0.634454 -0.542502
vn 0.003796 -0.999993 0.000442
vn -0.293012 0.906581 0.303736
vn -0.336332 -0.900397 0.275981
vn 0.000000 -1.000000 0.000000
vn 0.133605 0.753506 0.643722
vn 0.550600 -0.634453 0.542502
vn -0.288427 0.907897 -0.304191
vn -0.293082 0.906672 -0.303395
vn -0.575702 0.576918 -0.579424
vn 0.133605 0.753506 -0.643722
vn 0.000000 0.707105 -0.707109
vn -0.577251 0.577204 -0.577595
vn 0.301500 -0.301501 0.904541
vn -0.301510 0.301510 0.904535
vn 0.301512 0.301501 0.904537
vn -0.301507 -0.301517 0.904533
vn 0.000000 0.707108 0.707106
vn 0.904535 0.301521 0.301497
vn 0.576981 0.576310 0.578758
vn -0.128196 0.644500 0.753781
vn 0.128202 0.644496 0.753783
vn 0.705556 -0.708558 -0.011668
vn 0.318861 0.770273 -0.552274
vn 0.904535 0.301521 0.301497
vn 0.362789 0.860053 0.358737
vn 0.000003 0.712848 0.701319
vn 0.904538 0.301496 -0.301515
vn 0.577251 0.577204 -0.577595
vn 0.032431 -0.999223 -0.022393
vn 0.705557 -0.708557 0.011668
vn 0.705556 -0.708558 -0.011668
vn 0.904538 0.301496 -0.301515
vn 0.293082 0.906672 -0.303395
vn 0.573010 0.577902 -0.581110
vn 0.904535 0.301521 0.301497
vn 0.715959 0.631691 -0.297270
vn 0.572992 0.577910 0.581119
vn 0.715959 0.631691 0.297269
vn -0.423118 0.802920 -0.419869
vn -0.157945 0.662939 -0.731823
vn -0.549402 0.634787 -0.543325
vn -0.553512 0.629877 -0.544866
vn -0.133605 0.753506 -0.643722
vn -0.423118 0.802920 -0.419869
vn -0.733186 0.664458 -0.144688
vn -0.423118 0.802920 -0.419869
vn -0.644925 0.753432 -0.128111
vn 0.336332 -0.900397 -0.275981
vn 0.032428 -0.999223 0.022395
vn 0.572637 -0.585717 -0.573605
vn -0.161322 -0.662844 0.731172
vn 0.032431 -0.999223 -0.022393
vn 0.572637 -0.585717 0.573605
vn -0.001785 -0.999998 0.000417
vn -0.003796 -0.999993 0.000441
vn -0.733179 0.664465 0.144689
vn -0.644933 0.753425 0.128109
vn -0.156280 0.665589 -0.729772
vn 0.293082 0.906672 -0.303395
vn 0.705557 -0.708557 0.011668
vn 0.636162 0.771555 -0.000000
vn 0.550281 0.771363 0.319673
vn -0.733186 0.664458 -0.144688
vn -0.156281 0.665590 0.729771
vn 0.293012 0.906581 0.303736
vn 0.572992 0.577910 0.581119
vn -0.731916 0.663893 -0.153445
vn -0.423118 0.802921 0.419868
vn -0.157944 0.662939 0.731823
vn -0.133605 0.753506 0.643722
vn -0.423118 0.802921 0.419868
vn -0.553513 0.629878 0.544865
vn -0.553513 0.629878 0.544865
vn -0.133605 0.753506 0.643722
vn -0.002445 -0.999997 -0.000879
vn -0.732296 -0.663601 0.152893
vn -0.001785 -0.999998 -0.000416
vn -0.731918 0.663890 0.153444
vn -0.644933 0.753425 0.128109
vn 0.293012 0.906581 0.303736
vn 0.576981 0.576310 0.578758
vn -0.732299 -0.663598 -0.152892
vn -0.002445 -0.999997 0.000880
vn 0.293535 0.906067 0.304761
vn 0.576981 0.576310 0.578758
vn 0.575702 0.576918 0.579424
vn 0.336332 -0.900397 0.275981
vn 0.293535 0.906067 0.304761
vn -0.157944 0.662939 0.731823
vn -0.550600 -0.634453 0.542502
vn -0.161322 -0.662844 0.731172
vn -0.549402 0.634788 0.543325
vn -0.732296 -0.663601 0.152893
vn -0.550600 -0.634453 0.542502
vn 0.575702 0.576918 0.579424
vn 0.572637 -0.585717 0.573605
vn -0.161322 -0.662845 -0.731172
vn 0.575702 0.576918 -0.579424
vn 0.572637 -0.585717 -0.573605
vn -0.731918 0.663890 0.153444
vn -0.732299 -0.663598 -0.152892
vn -0.549402 0.634787 -0.543325
vn -0.731916 0.663893 -0.153445
vn -0.157945 0.662939 -0.731823
vn -0.550600 -0.634454 -0.542502
vn -0.549402 0.634787 -0.543325
vn 0.575702 0.576918 -0.579424
vn 0.336332 -0.900397 -0.275981
vn 0.572637 -0.585717 -0.573605
vn 0.336332 -0.900397 -0.275981
vn 0.000000 -0.704743 -0.709463
vn 0.336332 -0.900397 0.275981
vn 0.293535 0.906067 0.304761
vn -0.161322 -0.662845 -0.731172
vn 0.293012 0.906581 0.303736
vn 0.336332 -0.900397 0.275981
vn 0.000000 -0.704742 0.709463
vn -0.550600 -0.634453 0.542502
vn 0.288427 0.907897 -0.304191
vn 0.293082 0.906672 -0.303395
vn 0.577251 0.577204 -0.577595
vn 0.575702 0.576918 -0.579424
vn -0.000000 0.704741 -0.709465
vn 0.000003 0.712848 0.701319
vn -0.546309 0.593950 0.590567
vn -0.362789 0.860049 0.358748
vn -0.688119 0.662274 0.296454
vn -0.550281 0.771363 0.319673
vn -0.636162 0.771555 -0.000000
vn -0.757165 0.653224 -0.000000
vn -0.655716 0.653229 -0.378588
vn -0.550281 0.771363 -0.319674
vn 0.000000 0.653246 -0.757146
vn 0.000000 0.718320 -0.695713
vn -0.318848 0.770243 -0.552325
vn 0.318861 0.770273 -0.552274
vn 0.378581 0.653221 -0.655727
vn 0.819906 0.131347 -0.557227
vn 0.655716 0.653229 -0.378588
vn 0.636162 0.771555 -0.000000
vn 0.655716 0.653229 -0.378588
vn 0.757170 0.653217 -0.000000
vn 0.688119 0.662274 0.296454
vn 0.550281 0.771363 0.319673
vn 0.546305 0.593942 0.590579
vn 0.362789 0.860053 0.358737
vn 0.908512 -0.043328 0.415607
vn -0.000003 0.667903 0.744249
vn 0.362789 0.860053 0.358737
vn 0.546305 0.593942 0.590579
vn -0.378577 0.653232 -0.655720
vn -0.757165 0.653224 -0.000000
vn -0.000003 0.667903 0.744249
vn 0.301511 -0.301510 0.904535
vn 0.577336 0.577356 0.577359
vn 0.577350 -0.577350 0.577350
vn 0.301511 0.301501 0.904537
vn -0.577344 0.577343 0.577364
vn 0.577336 0.577356 0.577359
vn -0.577344 0.577343 0.577364
vn -0.301501 -0.301513 0.904537
vn -0.577356 -0.577334 0.577360
vn -0.577356 -0.577334 0.577360
vn 0.301511 -0.301510 0.904535
vn 0.577350 -0.577350 0.577350
vn 0.577336 0.577356 0.577359
vn -0.577356 -0.577334 0.577360
vn 0.577350 -0.577350 0.577350
vn -0.577362 -0.577339 0.577350
vn 0.301496 -0.301501 0.904543
vn 0.577352 -0.577352 0.577347
vn 0.420291 0.420283 0.804188
vn 0.145573 0.731864 0.665721
vn 0.548977 0.548990 0.630265
vn 0.644517 0.128199 0.753766
vn 0.548977 0.548990 0.630265
vn 0.731865 0.145581 0.665717
vn -0.548977 0.548980 0.630275
vn -0.644495 0.128196 0.753785
vn -0.731866 0.145581 0.665716
vn -0.548977 0.548980 0.630275
vn -0.128196 0.644498 0.753783
vn -0.420282 0.420283 0.804192
vn 0.301496 -0.301501 0.904543
vn 0.577352 -0.577352 0.577347
vn 0.128202 0.644499 0.753780
vn -0.145581 0.731865 0.665717
vn -0.145581 0.731865 0.665717
vn -0.548977 0.548980 0.630275
vn -0.731866 0.145581 0.665716
vn -0.301506 -0.301512 0.904536
vn -0.577362 -0.577339 0.577350
vn 0.301503 -0.301502 0.904540
vn 0.577335 0.577356 0.577359
vn 0.577350 -0.577350 0.577350
vn 0.301512 0.301501 0.904537
vn -0.577344 0.577343 0.577364
vn 0.577335 0.577356 0.577359
vn -0.577344 0.577343 0.577364
vn -0.301507 -0.301517 0.904533
vn -0.577356 -0.577334 0.577360
vn -0.577356 -0.577334 0.577360
vn 0.301503 -0.301502 0.904540
vn 0.577350 -0.577350 0.577350
vn 0.577335 0.577356 0.577359
vn -0.577356 -0.577334 0.577360
vn 0.577350 -0.577350 0.577350
vn -0.577362 -0.577339 0.577350
vn 0.301500 -0.301501 0.904541
vn 0.577352 -0.577352 0.577347
vn 0.420285 0.420278 0.804193
vn 0.145573 0.731864 0.665721
vn 0.548977 0.548990 0.630265
vn 0.644506 0.128199 0.753776
vn 0.548977 0.548990 0.630265
vn 0.731865 0.145581 0.665717
vn -0.548977 0.548980 0.630275
vn -0.644515 0.128199 0.753768
vn -0.731866 0.145581 0.665716
vn -0.548977 0.548980 0.630275
vn -0.128196 0.644500 0.753781
vn -0.420292 0.420293 0.804182
vn 0.301500 -0.301501 0.904541
vn 0.577352 -0.577352 0.577347
vn 0.128202 0.644496 0.753783
vn -0.145581 0.731865 0.665717
vn -0.145581 0.731865 0.665717
vn -0.548977 0.548980 0.630275
vn -0.731866 0.145581 0.665716
vn -0.301498 -0.301512 0.904538
vn -0.577362 -0.577339 0.577350
vn -0.301506 -0.301512 0.904536
vn -0.420282 0.420283 0.804192
vn -0.128196 0.644498 0.753783
vn 0.420291 0.420283 0.804188
vn 0.644517 0.128199 0.753766
vn -0.644495 0.128196 0.753785
vn 0.000000 0.763383 -0.645946
vn -0.819906 0.131347 -0.557227
vn 0.000000 0.747482 0.664282
vn -0.908512 -0.043328 0.415607
vn -0.577251 0.577204 -0.577595
vn -0.705556 -0.708558 -0.011668
vn -0.573010 0.577902 -0.581110
vn -0.572992 0.577910 0.581119
vn 0.553512 0.629878 -0.544866
vn -0.572637 -0.585717 0.573605
vn -0.573010 0.577902 -0.581110
vn 0.000000 -0.704743 -0.709463
vn 0.156280 0.665590 -0.729772
vn -0.573010 0.577902 -0.581110
vn -0.550281 0.771363 0.319673
vn -0.715959 0.631691 0.297269
vn 0.733186 0.664458 -0.144688
vn 0.553512 0.629878 -0.544866
vn 0.553513 0.629878 0.544865
vn 0.156281 0.665590 0.729771
vn -0.572992 0.577910 0.581119
vn -0.715959 0.631691 -0.297270
vn -0.572992 0.577910 0.581119
vn 0.553513 0.629878 0.544865
vn 0.000000 0.704741 0.709464
vn -0.293535 0.906067 0.304761
vn 0.549402 0.634788 0.543325
vn -0.572637 -0.585717 0.573605
vn 0.549402 0.634787 -0.543325
vn -0.288427 0.907897 -0.304191
vn 0.000000 -0.704742 0.709463
vn -0.575702 0.576918 0.579424
vn -0.301498 -0.301512 0.904538
vn -0.420292 0.420293 0.804182
vn 0.420285 0.420278 0.804193
vn 0.644506 0.128199 0.753776
vn -0.644515 0.128199 0.753768
vn 0.301503 -0.301502 0.904540
vn 0.819906 0.131347 -0.557227
vn 0.000000 0.718320 -0.695713
vn 0.904538 0.301496 -0.301515
vn 0.908512 -0.043328 0.415607
vn 0.032428 -0.999223 0.022395
vn 0.577251 0.577204 -0.577595
vn 0.819906 0.131347 -0.557227
vn -0.133605 0.753506 -0.643722
vn -0.553512 0.629877 -0.544866
vn -0.003796 -0.999993 -0.000441
vn 0.573010 0.577902 -0.581110
vn -0.156280 0.665589 -0.729772
vn -0.553512 0.629877 -0.544866
vn -0.733179 0.664465 0.144689
vn -0.553513 0.629878 0.544865
vn -0.156281 0.665590 0.729771
vn 0.550280 0.771363 -0.319674
vn 0.572992 0.577910 0.581119
vn 0.715959 0.631691 -0.297270
vn 0.573010 0.577902 -0.581110
vn 0.715959 0.631691 0.297269
vn -0.644925 0.753432 -0.128111
vn -0.549402 0.634788 0.543325
vn -0.423118 0.802921 0.419868
vn -0.550600 -0.634454 -0.542502
vn 0.572637 -0.585717 0.573605
vn -0.549402 0.634788 0.543325
vn -0.550600 -0.634454 -0.542502
vn 0.288427 0.907897 -0.304191
vn 0.288427 0.907897 -0.304191
vn 0.575702 0.576918 0.579424
vn -0.362789 0.860049 0.358748
vn -0.546309 0.593950 0.590567
vn -0.378577 0.653232 -0.655720
vn -0.318848 0.770243 -0.552325
vn -0.378577 0.653232 -0.655720
vn 0.550280 0.771363 -0.319674
vn 0.715959 0.631691 -0.297270
vn 0.550280 0.771363 -0.319674
vn -0.546309 0.593950 0.590567
vn -0.688119 0.662274 0.296454
vn 0.546305 0.593942 0.590579
vn 0.688119 0.662274 0.296454
vn 0.757170 0.653217 -0.000000
vn 0.655716 0.653229 -0.378588
vn 0.378581 0.653221 -0.655727
vn 0.000000 0.653246 -0.757146
vn -0.655716 0.653229 -0.378588
vn 0.301511 0.301501 0.904537
vn -0.301511 0.301510 0.904535
vn -0.301511 0.301510 0.904535
vn -0.301501 -0.301513 0.904537
vn -0.577344 0.577343 0.577364
vn -0.301506 -0.301512 0.904536
vn 0.420291 0.420283 0.804188
vn -0.420282 0.420283 0.804192
vn -0.577362 -0.577339 0.577350
vn 0.577352 -0.577352 0.577347
vn 0.731865 0.145581 0.665717
vn 0.145573 0.731864 0.665721
vn 0.548977 0.548990 0.630265
vn 0.301512 0.301501 0.904537
vn -0.301510 0.301510 0.904535
vn -0.301510 0.301510 0.904535
vn -0.301507 -0.301517 0.904533
vn -0.577344 0.577343 0.577364
vn -0.301498 -0.301512 0.904538
vn 0.420285 0.420278 0.804193
vn -0.420292 0.420293 0.804182
vn -0.577362 -0.577339 0.577350
vn 0.577352 -0.577352 0.577347
vn 0.731865 0.145581 0.665717
vn 0.145573 0.731864 0.665721
vn 0.548977 0.548990 0.630265
f 1/1/1 2/2/2 3/3/3
f 4/4/4 5/5/5 6/6/6
f 7/7/7 8/8/8 9/9/9
f 10/10/10 11/11/11 12/12/12
f 13/13/13 14/14/14 15/15/15
f 16/16/16 17/17/17 18/18/18
f 19/19/19 20/20/20 21/21/21
f 22/22/22 23/23/23 24/24/24
f 25/25/25 26/26/26 27/27/27
f 28/28/28 29/29/29 30/30/30
f 31/31/31 25/25/25 32/32/32
f 33/33/33 34/34/34 35/35/35
f 36/36/36 37/37/37 38/38/38
f 39/39/39 40/40/40 41/41/41
f 42/42/42 43/43/43 44/44/44
f 45/45/45 46/46/46 47/47/47
f 48/48/48 49/49/49 42/42/42
f 50/50/50 41/41/41 40/40/40
f 51/51/51 52/52/52 36/36/36
f 11/11/11 43/43/43 12/12/12
f 53/53/53 54/54/54 55/55/55
f 56/56/56 57/57/57 58/58/58
f 34/34/34 59/59/59 35/35/35
f 60/60/60 61/61/61 62/62/62
f 50/50/50 63/63/63 64/64/64
f 65/65/65 58/58/58 66/66/66
f 67/67/67 68/68/68 49/49/49
f 60/60/60 69/69/69 70/70/70
f 71/71/71 28/28/28 72/72/72
f 73/73/73 74/74/74 48/48/48
f 75/75/75 76/76/76 77/77/77
f 70/70/70 59/59/59 78/78/78
f 79/79/79 80/80/80 81/81/81
f 82/82/82 83/83/83 84/84/84
f 85/85/85 86/86/86 87/87/87
f 88/88/88 84/84/84 83/83/83
f 89/89/89 90/90/90 91/91/91
f 92/92/92 93/93/93 94/94/94
f 95/95/95 93/93/93 96/96/96
f 97/97/97 98/98/98 90/90/90
f 99/99/99 100/100/100 101/101/101
f 102/102/102 103/103/103 104/104/104
f 105/105/105 106/106/106 107/107/107
f 73/73/73 108/108/108 109/109/109
f 42/42/42 108/108/108 110/110/110
f 76/76/76 111/111/111 77/77/77
f 112/112/112 113/113/113 10/10/10
f 111/111/111 61/61/61 114/114/114
f 67/67/67 48/48/48 74/74/74
f 45/45/45 68/68/68 115/115/115
f 116/116/116 117/117/117 118/118/118
f 33/33/33 117/117/117 119/119/119
f 46/46/46 112/112/112 10/10/10
f 116/116/116 120/120/120 121/121/121
f 122/122/122 123/123/123 124/124/124
f 125/125/125 126/126/126 127/127/127
f 128/128/128 129/129/129 130/130/130
f 131/131/131 11/11/11 113/113/113
f 132/132/132 133/133/133 13/13/13
f 134/134/134 135/135/135 18/18/18
f 136/136/136 20/20/20 137/137/137
f 138/138/138 139/139/139 140/140/140
f 141/141/141 142/142/142 143/143/143
f 144/144/144 145/145/145 146/146/146
f 147/147/147 141/141/141 143/143/143
f 148/148/148 149/149/149 150/150/150
f 151/151/151 152/152/152 153/153/153
f 154/154/154 155/155/155 156/156/156
f 157/157/157 158/158/158 159/159/159
f 160/160/160 161/161/161 162/162/162
f 158/158/158 163/163/163 164/164/164
f 165/165/165 156/156/156 166/166/166
f 167/167/167 168/168/168 152/152/152
f 157/157/157 11/11/11 169/169/169
f 170/170/170 171/171/171 172/172/172
f 173/173/173 174/174/174 175/175/175
f 176/176/176 148/148/148 150/150/150
f 177/177/177 178/178/178 179/179/179
f 165/165/165 180/180/180 181/181/181
f 182/182/182 183/183/183 173/173/173
f 184/184/184 185/185/185 186/186/186
f 187/187/187 177/177/177 188/188/188
f 144/144/144 189/189/189 190/190/190
f 191/191/191 192/192/192 163/163/163
f 193/193/193 75/75/75 194/194/194
f 188/188/188 176/176/176 187/187/187
f 195/195/195 196/196/196 197/197/197
f 198/198/198 199/199/199 200/200/200
f 201/201/201 202/202/202 203/203/203
f 204/204/204 200/200/200 205/205/205
f 206/206/206 207/207/207 208/208/208
f 209/209/209 210/210/210 202/202/202
f 211/211/211 210/210/210 212/212/212
f 213/213/213 214/214/214 215/215/215
f 216/216/216 217/217/217 218/218/218
f 219/219/219 103/103/103 220/220/220
f 221/221/221 105/105/105 222/222/222
f 192/192/192 223/223/223 164/164/164
f 223/223/223 158/158/158 164/164/164
f 224/224/224 193/193/193 194/194/194
f 225/225/225 113/113/113 226/226/226
f 178/178/178 224/224/224 179/179/179
f 185/185/185 163/163/163 186/186/186
f 184/184/184 160/160/160 227/227/227
f 228/228/228 229/229/229 230/230/230
f 149/149/149 229/229/229 231/231/231
f 161/161/161 225/225/225 162/162/162
f 228/228/228 120/120/120 232/232/232
f 233/233/233 234/234/234 235/235/235
f 236/236/236 237/237/237 32/32/32
f 238/238/238 236/236/236 239/239/239
f 238/238/238 240/240/240 241/241/241
f 30/30/30 241/241/241 240/240/240
f 242/242/242 243/243/243 244/244/244
f 245/245/245 242/242/242 246/246/246
f 247/247/247 246/246/246 248/248/248
f 249/249/249 250/250/250 251/251/251
f 249/249/249 252/252/252 253/253/253
f 254/254/254 255/255/255 256/256/256
f 257/257/257 258/258/258 259/259/259
f 260/260/260 261/261/261 262/262/262
f 263/263/263 264/264/264 265/265/265
f 266/266/266 267/267/267 268/268/268
f 269/269/269 270/270/270 271/271/271
f 272/272/272 273/273/273 274/274/274
f 275/275/275 276/276/276 277/277/277
f 278/278/278 279/279/279 280/280/280
f 281/281/281 282/282/282 283/283/283
f 284/284/284 285/285/285 286/286/286
f 287/287/287 288/288/288 289/289/289
f 290/290/290 291/291/291 292/292/292
f 293/293/293 286/286/286 294/294/294
f 295/295/295 296/296/296 282/282/282
f 297/297/297 298/298/298 299/299/299
f 289/289/289 300/300/300 301/301/301
f 302/302/302 303/303/303 304/304/304
f 305/305/305 306/306/306 307/307/307
f 308/308/308 309/309/309 310/310/310
f 311/311/311 312/312/312 313/313/313
f 314/314/314 315/315/315 316/316/316
f 317/317/317 318/318/318 319/319/319
f 320/320/320 321/321/321 322/322/322
f 323/323/323 324/324/324 325/325/325
f 326/326/326 327/327/327 328/328/328
f 329/329/329 330/330/330 331/331/331
f 332/332/332 325/325/325 333/333/333
f 334/334/334 335/335/335 321/321/321
f 336/336/336 337/337/337 338/338/338
f 328/328/328 339/339/339 340/340/340
f 1/1/1 341/341/341 2/2/2
f 342/342/342 343/343/343 7/7/7
f 9/9/9 8/8/8 344/344/344
f 9/9/9 344/344/344 345/345/345
f 346/346/346 342/342/342 7/7/7
f 341/341/341 346/346/346 7/7/7
f 126/126/126 9/9/9 4/4/4
f 9/9/9 345/345/345 1/1/1
f 9/9/9 1/1/1 3/3/3
f 341/341/341 7/7/7 2/2/2
f 7/7/7 6/6/6 5/5/5
f 2/2/2 7/7/7 5/5/5
f 9/9/9 3/3/3 4/4/4
f 126/126/126 4/4/4 6/6/6
f 7/7/7 343/343/343 8/8/8
f 10/10/10 113/113/113 11/11/11
f 15/15/15 347/347/347 13/13/13
f 14/14/14 348/348/348 15/15/15
f 18/18/18 349/349/349 16/16/16
f 16/16/16 350/350/350 17/17/17
f 19/19/19 351/351/351 20/20/20
f 22/22/22 352/352/352 23/23/23
f 25/25/25 353/353/353 26/26/26
f 28/28/28 354/354/354 29/29/29
f 31/31/31 353/353/353 25/25/25
f 33/33/33 119/119/119 34/34/34
f 36/36/36 52/52/52 37/37/37
f 39/39/39 355/355/355 40/40/40
f 42/42/42 12/12/12 43/43/43
f 45/45/45 356/356/356 46/46/46
f 49/49/49 68/68/68 47/47/47
f 47/47/47 46/46/46 49/49/49
f 46/46/46 42/42/42 49/49/49
f 42/42/42 110/110/110 48/48/48
f 110/110/110 73/73/73 48/48/48
f 50/50/50 64/64/64 41/41/41
f 51/51/51 357/357/357 52/52/52
f 11/11/11 358/358/358 43/43/43
f 359/359/359 360/360/360 361/361/361
f 360/360/360 362/362/362 361/361/361
f 363/363/363 364/364/364 359/359/359
f 365/365/365 55/55/55 366/366/366
f 55/55/55 363/363/363 53/53/53
f 367/367/367 366/366/366 54/54/54
f 54/54/54 366/366/366 55/55/55
f 54/54/54 368/368/368 367/367/367
f 359/359/359 361/361/361 363/363/363
f 361/361/361 53/53/53 363/363/363
f 56/56/56 369/369/369 57/57/57
f 34/34/34 78/78/78 59/59/59
f 60/60/60 114/114/114 61/61/61
f 50/50/50 370/370/370 63/63/63
f 65/65/65 56/56/56 58/58/58
f 67/67/67 115/115/115 68/68/68
f 60/60/60 62/62/62 69/69/69
f 71/71/71 354/354/354 28/28/28
f 73/73/73 109/109/109 74/74/74
f 75/75/75 371/371/371 76/76/76
f 70/70/70 69/69/69 59/59/59
f 79/79/79 372/372/372 80/80/80
f 82/82/82 373/373/373 83/83/83
f 85/85/85 92/92/92 86/86/86
f 88/88/88 374/374/374 84/84/84
f 89/89/89 97/97/97 90/90/90
f 92/92/92 85/85/85 93/93/93
f 95/95/95 94/94/94 93/93/93
f 97/97/97 375/375/375 98/98/98
f 99/99/99 376/376/376 100/100/100
f 102/102/102 220/220/220 103/103/103
f 105/105/105 377/377/377 106/106/106
f 73/73/73 110/110/110 108/108/108
f 42/42/42 44/44/44 108/108/108
f 76/76/76 378/378/378 111/111/111
f 112/112/112 226/226/226 113/113/113
f 111/111/111 378/378/378 61/61/61
f 67/67/67 49/49/49 48/48/48
f 45/45/45 47/47/47 68/68/68
f 116/116/116 121/121/121 117/117/117
f 33/33/33 118/118/118 117/117/117
f 46/46/46 356/356/356 112/112/112
f 116/116/116 232/232/232 120/120/120
f 122/122/122 379/379/379 123/123/123
f 380/380/380 129/129/129 9/9/9
f 128/128/128 130/130/130 381/381/381
f 128/128/128 381/381/381 382/382/382
f 383/383/383 380/380/380 9/9/9
f 379/379/379 383/383/383 9/9/9
f 127/127/127 128/128/128 384/384/384
f 128/128/128 382/382/382 122/122/122
f 128/128/128 122/122/122 124/124/124
f 379/379/379 9/9/9 123/123/123
f 9/9/9 126/126/126 125/125/125
f 123/123/123 9/9/9 125/125/125
f 128/128/128 124/124/124 384/384/384
f 127/127/127 384/384/384 125/125/125
f 128/128/128 9/9/9 129/129/129
f 131/131/131 169/169/169 11/11/11
f 132/132/132 385/385/385 133/133/133
f 386/386/386 132/132/132 13/13/13
f 387/387/387 388/388/388 134/134/134
f 387/387/387 134/134/134 18/18/18
f 136/136/136 21/21/21 20/20/20
f 138/138/138 389/389/389 139/139/139
f 141/141/141 390/390/390 142/142/142
f 144/144/144 391/391/391 145/145/145
f 147/147/147 256/256/256 141/141/141
f 148/148/148 392/392/392 149/149/149
f 151/151/151 167/167/167 152/152/152
f 154/154/154 393/393/393 155/155/155
f 157/157/157 169/169/169 158/158/158
f 160/160/160 394/394/394 161/161/161
f 158/158/158 161/161/161 186/186/186
f 161/161/161 394/394/394 186/186/186
f 394/394/394 184/184/184 186/186/186
f 186/186/186 163/163/163 158/158/158
f 163/163/163 192/192/192 164/164/164
f 165/165/165 154/154/154 156/156/156
f 167/167/167 395/395/395 168/168/168
f 157/157/157 358/358/358 11/11/11
f 396/396/396 397/397/397 172/172/172
f 172/172/172 398/398/398 170/170/170
f 398/398/398 399/399/399 400/400/400
f 170/170/170 398/398/398 401/401/401
f 400/400/400 402/402/402 401/401/401
f 402/402/402 403/403/403 401/401/401
f 400/400/400 401/401/401 398/398/398
f 404/404/404 396/396/396 171/171/171
f 396/396/396 172/172/172 171/171/171
f 171/171/171 405/405/405 404/404/404
f 173/173/173 183/183/183 174/174/174
f 176/176/176 406/406/406 148/148/148
f 177/177/177 407/407/407 178/178/178
f 165/165/165 166/166/166 180/180/180
f 182/182/182 408/408/408 183/183/183
f 184/184/184 227/227/227 185/185/185
f 187/187/187 407/407/407 177/177/177
f 144/144/144 146/146/146 189/189/189
f 191/191/191 409/409/409 192/192/192
f 193/193/193 371/371/371 75/75/75
f 188/188/188 406/406/406 176/176/176
f 195/195/195 410/410/410 196/196/196
f 198/198/198 411/411/411 199/199/199
f 201/201/201 209/209/209 202/202/202
f 204/204/204 198/198/198 200/200/200
f 206/206/206 213/213/213 207/207/207
f 209/209/209 212/212/212 210/210/210
f 211/211/211 412/412/412 210/210/210
f 213/213/213 206/206/206 214/214/214
f 216/216/216 413/413/413 217/217/217
f 219/219/219 414/414/414 103/103/103
f 221/221/221 377/377/377 105/105/105
f 192/192/192 409/409/409 223/223/223
f 223/223/223 159/159/159 158/158/158
f 224/224/224 415/415/415 193/193/193
f 225/225/225 131/131/131 113/113/113
f 178/178/178 415/415/415 224/224/224
f 185/185/185 191/191/191 163/163/163
f 184/184/184 394/394/394 160/160/160
f 228/228/228 231/231/231 229/229/229
f 149/149/149 392/392/392 229/229/229
f 161/161/161 131/131/131 225/225/225
f 228/228/228 230/230/230 120/120/120
f 233/233/233 257/257/257 234/234/234
f 237/237/237 31/31/31 32/32/32
f 32/32/32 416/416/416 417/417/417
f 417/417/417 236/236/236 32/32/32
f 238/238/238 237/237/237 236/236/236
f 238/238/238 239/239/239 240/240/240
f 240/240/240 418/418/418 30/30/30
f 418/418/418 419/419/419 30/30/30
f 30/30/30 29/29/29 241/241/241
f 244/244/244 420/420/420 242/242/242
f 245/245/245 243/243/243 242/242/242
f 248/248/248 421/421/421 247/247/247
f 421/421/421 422/422/422 247/247/247
f 247/247/247 245/245/245 246/246/246
f 249/249/249 423/423/423 250/250/250
f 249/249/249 251/251/251 252/252/252
f 256/256/256 147/147/147 253/253/253
f 253/253/253 252/252/252 256/256/256
f 252/252/252 254/254/254 256/256/256
f 257/257/257 233/233/233 258/258/258
f 424/424/424 262/262/262 425/425/425
f 262/262/262 426/426/426 427/427/427
f 428/428/428 262/262/262 427/427/427
f 428/428/428 429/429/429 430/430/430
f 430/430/430 431/431/431 260/260/260
f 260/260/260 432/432/432 261/261/261
f 261/261/261 425/425/425 262/262/262
f 262/262/262 428/428/428 260/260/260
f 428/428/428 430/430/430 260/260/260
f 263/263/263 433/433/433 264/264/264
f 266/266/266 434/434/434 267/267/267
f 269/269/269 435/435/435 270/270/270
f 272/272/272 436/436/436 273/273/273
f 275/275/275 437/437/437 276/276/276
f 278/278/278 438/438/438 279/279/279
f 281/281/281 295/295/295 282/282/282
f 284/284/284 439/439/439 285/285/285
f 287/287/287 440/440/440 288/288/288
f 290/290/290 296/296/296 291/291/291
f 293/293/293 284/284/284 286/286/286
f 295/295/295 291/291/291 296/296/296
f 299/299/299 441/441/441 297/297/297
f 441/441/441 442/442/442 297/297/297
f 442/442/442 443/443/443 444/444/444
f 443/443/443 445/445/445 444/444/444
f 444/444/444 297/297/297 442/442/442
f 289/289/289 288/288/288 300/300/300
f 302/302/302 446/446/446 303/303/303
f 305/305/305 447/447/447 306/306/306
f 308/308/308 448/448/448 309/309/309
f 311/311/311 449/449/449 312/312/312
f 314/314/314 450/450/450 315/315/315
f 317/317/317 451/451/451 318/318/318
f 320/320/320 334/334/334 321/321/321
f 323/323/323 452/452/452 324/324/324
f 326/326/326 453/453/453 327/327/327
f 329/329/329 335/335/335 330/330/330
f 332/332/332 323/323/323 325/325/325
f 334/334/334 330/330/330 335/335/335
f 338/338/338 454/454/454 336/336/336
f 454/454/454 455/455/455 336/336/336
f 455/455/455 456/456/456 457/457/457
f 456/456/456 458/458/458 457/457/457
f 457/457/457 336/336/336 455/455/455
f 328/328/328 327/327/327 339/339/339
