# Cube.010 -- imported by tools/import_asset_pack.py from psx.fbx
o __pending__
v 2.930193 1.133883 2.803613
v 2.930193 1.133883 2.303612
v 2.497180 1.133883 2.053612
v 2.247181 1.133883 2.986624
v 2.064167 0.133883 2.803613
v 2.247181 0.133883 2.986624
v 2.064167 1.133883 2.803613
v 1.997181 0.133883 2.553611
v 1.997181 1.133883 2.553611
v 2.064167 0.133883 2.303612
v 2.064167 1.133883 2.303612
v 2.247181 0.133883 2.120599
v 2.247181 1.133883 2.120599
v 2.497180 0.133883 2.053612
v 2.247181 0.133883 2.120599
v 2.747179 0.133883 2.986624
v 1.997181 0.133883 2.553611
v 2.747179 0.133883 2.120599
v 2.497180 1.133883 2.053612
v 2.747179 0.133883 2.120599
v 2.747179 1.133883 2.120599
v 2.930193 0.133883 2.303612
v 2.930193 1.133883 2.303612
v 2.997181 0.133883 2.553611
v 2.930193 0.133883 2.303612
v 2.997181 1.133883 2.553611
v 2.930193 0.133883 2.803613
v 2.930193 1.133883 2.803613
v 2.747179 0.133883 2.986624
v 2.747179 1.133883 2.986624
v 2.497180 0.133883 3.053612
v 2.747179 0.133883 2.986624
v 2.497180 1.133883 3.053612
v 2.247181 0.133883 2.986624
v 2.247181 1.133883 2.120599
v 2.064167 1.133883 2.303612
v 1.997181 1.133883 2.553611
v 2.064167 1.133883 2.803613
v 2.247181 1.133883 2.986624
v 2.497180 1.133883 3.053612
v 2.747179 1.133883 2.986624
v 2.997181 1.133883 2.553611
v 2.747179 1.133883 2.120599
v 2.247181 1.133883 2.120599
v 2.930193 0.133883 2.303612
v 2.997181 0.133883 2.553611
v 2.930193 0.133883 2.803613
v 2.497180 0.133883 3.053612
v 2.247181 0.133883 2.986624
v 2.064167 0.133883 2.803613
v 2.064167 0.133883 2.303612
v 2.247181 0.133883 2.120599
v 2.497180 0.133883 2.053612
v 2.930193 1.133883 2.303612
v 2.747179 1.133883 2.986624
v 2.247181 1.133883 2.986624
vt 0.571248 0.090093
vt 0.563911 0.117475
vt 0.583956 0.137519
vt 0.113779 0.097591
vt 0.103368 0.154255
vt 0.113779 0.154285
vt 0.103368 0.097560
vt 0.089181 0.154244
vt 0.089181 0.097549
vt 0.075020 0.154255
vt 0.075020 0.097560
vt 0.064680 0.154286
vt 0.733548 0.126156
vt 0.747153 0.069803
vt 0.733548 0.069531
vt 0.487795 0.083665
vt 0.475087 0.131091
vt 0.522513 0.118384
vt 0.747153 0.126429
vt 0.761684 0.069702
vt 0.761684 0.126328
vt 0.773249 0.069255
vt 0.219714 0.054888
vt 0.206374 0.111568
vt 0.219714 0.111583
vt 0.206374 0.054873
vt 0.191765 0.111571
vt 0.191765 0.054877
vt 0.179802 0.111591
vt 0.344478 0.071220
vt 0.330304 0.127823
vt 0.344478 0.127903
vt 0.330304 0.071140
vt 0.316130 0.127903
vt 0.598630 0.137519
vt 0.611337 0.130183
vt 0.618674 0.117475
vt 0.618674 0.102801
vt 0.611337 0.090093
vt 0.598630 0.082756
vt 0.583956 0.082756
vt 0.563911 0.102801
vt 0.571248 0.130183
vt 0.064680 0.097591
vt 0.522513 0.103710
vt 0.515176 0.091002
vt 0.502469 0.083665
vt 0.475087 0.091002
vt 0.467750 0.103710
vt 0.467750 0.118384
vt 0.487795 0.138428
vt 0.502469 0.138428
vt 0.515176 0.131091
vt 0.773249 0.125880
vt 0.179802 0.054897
vt 0.316130 0.071220
vn 0.655718 0.653235 0.378574
vn 0.655721 0.653224 -0.378586
vn -0.000004 0.653222 -0.757167
vn -0.378574 0.653234 0.655718
vn -0.655716 -0.653237 0.378573
vn -0.378587 -0.653221 0.655724
vn -0.655733 0.653209 0.378593
vn -0.757147 -0.653245 -0.000004
vn -0.757156 0.653234 0.000004
vn -0.655712 -0.653238 -0.378580
vn -0.655731 0.653216 -0.378582
vn -0.378580 -0.653221 -0.655728
vn -0.378582 0.653234 -0.655714
vn 0.000004 -0.653235 -0.757156
vn -0.378580 -0.653221 -0.655728
vn 0.378580 -0.653219 0.655730
vn -0.757147 -0.653245 -0.000004
vn 0.378599 -0.653194 -0.655744
vn -0.000004 0.653222 -0.757167
vn 0.378599 -0.653194 -0.655744
vn 0.378575 0.653234 -0.655718
vn 0.655718 -0.653235 -0.378574
vn 0.655721 0.653224 -0.378586
vn 0.757167 -0.653222 0.000004
vn 0.655718 -0.653235 -0.378574
vn 0.757156 0.653234 -0.000004
vn 0.655712 -0.653237 0.378581
vn 0.655718 0.653235 0.378574
vn 0.378580 -0.653219 0.655730
vn 0.378581 0.653237 0.655712
vn -0.000004 -0.653234 0.757156
vn 0.378580 -0.653219 0.655730
vn 0.000005 0.653222 0.757167
vn -0.378587 -0.653221 0.655724
vn -0.378582 0.653234 -0.655714
vn -0.655731 0.653216 -0.378582
vn -0.757156 0.653234 0.000004
vn -0.655733 0.653209 0.378593
vn -0.378574 0.653234 0.655718
vn 0.000005 0.653222 0.757167
vn 0.378581 0.653237 0.655712
vn 0.757156 0.653234 -0.000004
vn 0.378575 0.653234 -0.655718
vn -0.378582 0.653234 -0.655714
vn 0.655718 -0.653235 -0.378574
vn 0.757167 -0.653222 0.000004
vn 0.655712 -0.653237 0.378581
vn -0.000004 -0.653234 0.757156
vn -0.378587 -0.653221 0.655724
vn -0.655716 -0.653237 0.378573
vn -0.655712 -0.653238 -0.378580
vn -0.378580 -0.653221 -0.655728
vn 0.000004 -0.653235 -0.757156
vn 0.655721 0.653224 -0.378586
vn 0.378581 0.653237 0.655712
vn -0.378574 0.653234 0.655718
f 1/1/1 2/2/2 3/3/3
f 4/4/4 5/5/5 6/6/6
f 7/7/7 8/8/8 5/5/5
f 9/9/9 10/10/10 8/8/8
f 11/11/11 12/12/12 10/10/10
f 13/13/13 14/14/14 15/15/15
f 16/16/16 17/17/17 18/18/18
f 19/19/19 20/20/20 14/14/14
f 21/21/21 22/22/22 20/20/20
f 23/23/23 24/24/24 25/25/25
f 26/26/26 27/27/27 24/24/24
f 28/28/28 29/29/29 27/27/27
f 30/30/30 31/31/31 32/32/32
f 33/33/33 34/34/34 31/31/31
f 3/3/3 35/35/35 36/36/36
f 36/36/36 37/37/37 38/38/38
f 38/38/38 39/39/39 40/40/40
f 40/40/40 41/41/41 38/38/38
f 41/41/41 1/1/1 38/38/38
f 1/1/1 42/42/42 2/2/2
f 2/2/2 43/43/43 3/3/3
f 3/3/3 36/36/36 1/1/1
f 36/36/36 38/38/38 1/1/1
f 4/4/4 7/7/7 5/5/5
f 7/7/7 9/9/9 8/8/8
f 9/9/9 11/11/11 10/10/10
f 11/11/11 44/44/44 12/12/12
f 13/13/13 19/19/19 14/14/14
f 18/18/18 45/45/45 46/46/46
f 46/46/46 47/47/47 18/18/18
f 47/47/47 16/16/16 18/18/18
f 16/16/16 48/48/48 49/49/49
f 49/49/49 50/50/50 16/16/16
f 50/50/50 17/17/17 16/16/16
f 17/17/17 51/51/51 18/18/18
f 51/51/51 52/52/52 18/18/18
f 52/52/52 53/53/53 18/18/18
f 19/19/19 21/21/21 20/20/20
f 21/21/21 54/54/54 22/22/22
f 23/23/23 26/26/26 24/24/24
f 26/26/26 28/28/28 27/27/27
f 28/28/28 55/55/55 29/29/29
f 30/30/30 33/33/33 31/31/31
f 33/33/33 56/56/56 34/34/34
