# Cube.034 -- imported by tools/import_asset_pack.py from psx.fbx
o __pending__
v 27.133068 3.576536 5.501935
v 26.754533 3.897520 4.635998
v 26.754533 3.897520 5.501935
v 26.754533 3.897520 4.635998
v 26.133072 3.897520 5.501935
v 26.754533 3.897520 5.501935
v 26.754533 3.897520 5.501935
v 26.133072 3.031593 5.501935
v 26.754533 3.031593 5.501935
v 27.133068 3.576536 5.501935
v 27.133068 3.576536 5.501935
v 27.133068 3.352578 4.635998
v 27.133068 3.576536 4.635998
v 27.133068 3.352578 4.635998
v 26.754533 3.031593 5.501935
v 26.754533 3.031593 4.635998
v 27.133068 3.576536 4.635998
v 26.754533 3.031593 4.635998
v 26.754533 3.897520 4.635998
v 26.133072 3.897520 4.635998
v 26.754533 3.031593 5.501935
v 26.133072 3.031593 4.635998
v 26.754533 3.031593 4.635998
v 26.133072 3.031593 5.501935
v 26.133072 3.897520 4.635998
v 26.133072 3.031593 4.635998
v 27.133068 3.576536 4.635998
v 26.133072 3.897520 4.635998
v 26.133072 3.897520 5.501935
v 27.133068 3.352578 5.501935
v 27.133068 3.352578 5.501935
v 27.133068 3.352578 5.501935
v 27.133068 3.352578 4.635998
v 26.133072 3.031593 4.635998
v 26.133072 3.031593 5.501935
v 26.133072 3.897520 5.501935
vt 0.503406 0.040671
vt 0.482383 0.003869
vt 0.482383 0.040671
vt 0.672526 0.016243
vt 0.646114 0.053039
vt 0.672526 0.053039
vt 0.096989 0.044913
vt 0.060191 0.018502
vt 0.060191 0.044913
vt 0.083349 0.061001
vt 0.984005 0.196188
vt 0.993513 0.159386
vt 0.984005 0.159386
vt 0.886062 0.032556
vt 0.864970 0.000892
vt 0.864970 0.032648
vt 0.624280 0.609684
vt 0.647439 0.593596
vt 0.610639 0.593596
vt 0.610639 0.567184
vt 0.952257 0.793486
vt 0.978669 0.756685
vt 0.952257 0.756685
vt 0.644514 0.016237
vt 0.607737 0.053039
vt 0.644514 0.053039
vt 0.503406 0.003869
vt 0.646114 0.016243
vt 0.096989 0.018502
vt 0.073831 0.061001
vt 0.993513 0.196188
vt 0.886063 0.000800
vt 0.633798 0.609684
vt 0.647439 0.567184
vt 0.978669 0.793486
vt 0.607737 0.016237
vn 0.709333 0.328541 0.623625
vn 0.265470 0.723556 -0.637175
vn 0.265473 0.723548 0.637184
vn 0.265470 0.723556 -0.637175
vn -0.577345 0.577360 0.577345
vn 0.265473 0.723548 0.637184
vn 0.265473 0.723548 0.637184
vn -0.577367 -0.577334 0.577349
vn 0.265473 -0.723563 0.637166
vn 0.709333 0.328541 0.623625
vn 0.709333 0.328541 0.623625
vn 0.709335 -0.328542 -0.623622
vn 0.709342 0.328539 -0.623615
vn 0.709335 -0.328542 -0.623622
vn 0.265473 -0.723563 0.637166
vn 0.265475 -0.723554 -0.637175
vn 0.709342 0.328539 -0.623615
vn 0.265475 -0.723554 -0.637175
vn 0.265470 0.723556 -0.637175
vn -0.577367 0.577334 -0.577350
vn 0.265473 -0.723563 0.637166
vn -0.577345 -0.577360 -0.577345
vn 0.265475 -0.723554 -0.637175
vn -0.577367 -0.577334 0.577349
vn -0.577367 0.577334 -0.577350
vn -0.577345 -0.577360 -0.577345
vn 0.709342 0.328539 -0.623615
vn -0.577367 0.577334 -0.577350
vn -0.577345 0.577360 0.577345
vn 0.709344 -0.328540 0.623612
vn 0.709344 -0.328540 0.623612
vn 0.709344 -0.328540 0.623612
vn 0.709335 -0.328542 -0.623622
vn -0.577345 -0.577360 -0.577345
vn -0.577367 -0.577334 0.577349
vn -0.577345 0.577360 0.577345
f 1/1/1 2/2/2 3/3/3
f 4/4/4 5/5/5 6/6/6
f 7/7/7 8/8/8 9/9/9
f 9/9/9 10/10/10 7/7/7
f 11/11/11 12/12/12 13/13/13
f 14/14/14 15/15/15 16/16/16
f 17/17/17 18/18/18 19/19/19
f 18/18/18 20/20/20 19/19/19
f 21/21/21 22/22/22 23/23/23
f 24/24/24 25/25/25 26/26/26
f 1/1/1 27/27/27 2/2/2
f 4/4/4 28/28/28 5/5/5
f 7/7/7 29/29/29 8/8/8
f 9/9/9 30/30/30 10/10/10
f 11/11/11 31/31/31 12/12/12
f 14/14/14 32/32/32 15/15/15
f 17/17/17 33/33/33 18/18/18
f 18/18/18 34/34/34 20/20/20
f 21/21/21 35/35/35 22/22/22
f 24/24/24 36/36/36 25/25/25
