# Cube.019 -- imported by tools/import_asset_pack.py from psx.fbx
o __pending__
v -4.006949 -0.206578 -2.131383
v -5.006948 -0.206578 -1.131384
v -4.006949 -0.206578 -1.131384
v -5.006948 -0.206578 -2.131383
v -4.895267 -0.752125 -1.243069
v -5.006948 -0.206578 -1.131384
v -4.118634 -0.752125 -1.243069
v -5.006948 -0.206578 -1.131384
v -4.895267 -0.752125 -1.243069
v -4.118634 -0.752125 -2.019697
v -4.006949 -0.206578 -1.131384
v -4.118634 -0.752125 -1.243069
v -4.895267 -0.752125 -2.019697
v -4.118634 -0.752125 -1.243069
v -4.895267 -0.752125 -1.243069
v -4.895267 -0.752125 -2.019697
v -4.006949 -0.206578 -2.131383
v -4.118634 -0.752125 -2.019697
v -5.006948 -0.206578 -2.131383
v -4.895267 -0.752125 -2.019697
v -4.006949 -0.206578 -1.131384
v -4.006949 -0.206578 -2.131383
v -4.118634 -0.752125 -2.019697
v -5.006948 -0.206578 -2.131383
vt 0.467750 0.049137
vt 0.500312 0.081699
vt 0.500312 0.049137
vt 0.528383 0.066637
vt 0.546158 0.037700
vt 0.528383 0.034075
vt 0.929694 0.046719
vt 0.911857 0.075645
vt 0.929694 0.072008
vt 0.115746 0.052403
vt 0.133518 0.024484
vt 0.115746 0.027469
vt 0.418599 0.052133
vt 0.443888 0.077422
vt 0.443888 0.052133
vt 0.795105 0.063344
vt 0.813029 0.034969
vt 0.795105 0.038244
vt 0.467750 0.081699
vt 0.546158 0.062988
vt 0.911857 0.043083
vt 0.133518 0.056589
vt 0.418599 0.077422
vt 0.813029 0.067288
vn 0.623126 0.472653 -0.623148
vn -0.623126 0.472654 0.623148
vn 0.623160 0.472621 0.623138
vn -0.623160 0.472621 -0.623138
vn -0.517654 -0.681219 0.517662
vn -0.623126 0.472654 0.623148
vn 0.517653 -0.681234 0.517645
vn -0.623126 0.472654 0.623148
vn -0.517654 -0.681219 0.517662
vn 0.517654 -0.681220 -0.517662
vn 0.623160 0.472621 0.623138
vn 0.517653 -0.681234 0.517645
vn -0.517653 -0.681234 -0.517644
vn 0.517653 -0.681234 0.517645
vn -0.517654 -0.681219 0.517662
vn -0.517653 -0.681234 -0.517644
vn 0.623126 0.472653 -0.623148
vn 0.517654 -0.681220 -0.517662
vn -0.623160 0.472621 -0.623138
vn -0.517653 -0.681234 -0.517644
vn 0.623160 0.472621 0.623138
vn 0.623126 0.472653 -0.623148
vn 0.517654 -0.681220 -0.517662
vn -0.623160 0.472621 -0.623138
f 1/1/1 2/2/2 3/3/3
f 4/4/4 5/5/5 6/6/6
f 7/7/7 8/8/8 9/9/9
f 10/10/10 11/11/11 12/12/12
f 13/13/13 14/14/14 15/15/15
f 16/16/16 17/17/17 18/18/18
f 1/1/1 19/19/19 2/2/2
f 4/4/4 20/20/20 5/5/5
f 7/7/7 21/21/21 8/8/8
f 10/10/10 22/22/22 11/11/11
f 13/13/13 23/23/23 14/14/14
f 16/16/16 24/24/24 17/17/17
