# Cube.031 -- imported by tools/import_asset_pack.py from psx.fbx
o __pending__
v 27.855755 4.754250 5.501944
v 26.989827 4.132788 5.501944
v 27.855755 4.132788 5.501944
v 26.989827 4.754250 5.501944
v 26.989827 4.132788 4.636005
v 26.989827 4.132788 5.501944
v 26.989827 4.132788 4.636005
v 27.310812 3.754242 5.501944
v 26.989827 4.132788 5.501944
v 27.534770 3.754242 5.501944
v 27.534770 3.754242 4.636005
v 27.310812 3.754242 5.501944
v 27.310812 3.754242 4.636005
v 27.855755 4.132788 5.501944
v 27.534770 3.754242 4.636005
v 27.855755 4.132788 4.636005
v 27.855755 4.132788 4.636005
v 27.310812 3.754242 4.636005
v 26.989827 4.132788 4.636005
v 27.855755 4.754250 4.636005
v 27.855755 4.132788 5.501944
v 27.855755 4.132788 4.636005
v 26.989827 4.754250 4.636005
v 26.989827 4.754250 4.636005
v 27.855755 4.754250 5.501944
v 27.855755 4.754250 4.636005
v 26.989827 4.754250 5.501944
v 26.989827 4.754250 4.636005
v 27.310812 3.754242 4.636005
v 27.310812 3.754242 5.501944
v 27.534770 3.754242 5.501944
v 27.534770 3.754242 5.501944
v 27.534770 3.754242 4.636005
v 27.855755 4.754250 5.501944
v 27.855755 4.754250 4.636005
v 26.989827 4.754250 5.501944
vt 0.508326 0.059897
vt 0.545128 0.033488
vt 0.508326 0.033488
vt 0.969175 0.862643
vt 0.995568 0.899445
vt 0.995568 0.862643
vt 0.000800 0.037135
vt 0.021638 0.003727
vt 0.000800 0.005379
vt 0.521968 0.017401
vt 0.393378 0.022210
vt 0.402896 0.059011
vt 0.402896 0.022210
vt 0.044077 0.005379
vt 0.023239 0.035484
vt 0.044077 0.037136
vt 0.685841 0.583273
vt 0.662681 0.567186
vt 0.649040 0.583273
vt 0.971718 0.527845
vt 0.998101 0.564647
vt 0.998101 0.527845
vt 0.649040 0.609684
vt 0.445521 0.016453
vt 0.408725 0.053255
vt 0.445521 0.053255
vt 0.545128 0.059897
vt 0.969175 0.899445
vt 0.021638 0.035483
vt 0.531486 0.017401
vt 0.393378 0.059011
vt 0.023239 0.003728
vt 0.672200 0.567186
vt 0.971718 0.564647
vt 0.685841 0.609684
vt 0.408725 0.016453
vn 0.577334 0.577367 0.577349
vn -0.723554 -0.265475 0.637175
vn 0.723556 -0.265470 0.637175
vn -0.577360 0.577345 0.577345
vn -0.723556 -0.265470 -0.637175
vn -0.723554 -0.265475 0.637175
vn -0.723556 -0.265470 -0.637175
vn -0.328541 -0.709334 0.623623
vn -0.723554 -0.265475 0.637175
vn 0.328539 -0.709342 0.623615
vn 0.328541 -0.709335 -0.623622
vn -0.328541 -0.709334 0.623623
vn -0.328539 -0.709343 -0.623615
vn 0.723556 -0.265470 0.637175
vn 0.328541 -0.709335 -0.623622
vn 0.723554 -0.265475 -0.637175
vn 0.723554 -0.265475 -0.637175
vn -0.328539 -0.709343 -0.623615
vn -0.723556 -0.265470 -0.637175
vn 0.577360 0.577345 -0.577345
vn 0.723556 -0.265470 0.637175
vn 0.723554 -0.265475 -0.637175
vn -0.577334 0.577367 -0.577350
vn -0.577334 0.577367 -0.577350
vn 0.577334 0.577367 0.577349
vn 0.577360 0.577345 -0.577345
vn -0.577360 0.577345 0.577345
vn -0.577334 0.577367 -0.577350
vn -0.328539 -0.709343 -0.623615
vn -0.328541 -0.709334 0.623623
vn 0.328539 -0.709342 0.623615
vn 0.328539 -0.709342 0.623615
vn 0.328541 -0.709335 -0.623622
vn 0.577334 0.577367 0.577349
vn 0.577360 0.577345 -0.577345
vn -0.577360 0.577345 0.577345
f 1/1/1 2/2/2 3/3/3
f 4/4/4 5/5/5 6/6/6
f 7/7/7 8/8/8 9/9/9
f 2/2/2 10/10/10 3/3/3
f 11/11/11 12/12/12 13/13/13
f 14/14/14 15/15/15 16/16/16
f 17/17/17 18/18/18 19/19/19
f 20/20/20 21/21/21 22/22/22
f 23/23/23 17/17/17 19/19/19
f 24/24/24 25/25/25 26/26/26
f 1/1/1 27/27/27 2/2/2
f 4/4/4 28/28/28 5/5/5
f 7/7/7 29/29/29 8/8/8
f 2/2/2 30/30/30 10/10/10
f 11/11/11 31/31/31 12/12/12
f 14/14/14 32/32/32 15/15/15
f 17/17/17 33/33/33 18/18/18
f 20/20/20 34/34/34 21/21/21
f 23/23/23 35/35/35 17/17/17
f 24/24/24 36/36/36 25/25/25
