# Cube.020 -- imported by tools/import_asset_pack.py from psx.fbx
o __pending__
v 5.102104 -0.206578 -2.131382
v 4.102106 -0.206578 -1.131383
v 5.102104 -0.206578 -1.131383
v 4.102106 -0.206578 -2.131382
v 4.213791 -0.752124 -1.243068
v 4.102106 -0.206578 -1.131383
v 4.990419 -0.752124 -1.243068
v 4.102106 -0.206578 -1.131383
v 4.213791 -0.752124 -1.243068
v 4.990419 -0.752124 -2.019696
v 5.102104 -0.206578 -1.131383
v 4.990419 -0.752124 -1.243068
v 4.213791 -0.752124 -2.019696
v 4.990419 -0.752124 -1.243068
v 4.213791 -0.752124 -1.243068
v 4.213791 -0.752124 -2.019696
v 5.102104 -0.206578 -2.131382
v 4.990419 -0.752124 -2.019696
v 4.102106 -0.206578 -2.131382
v 4.213791 -0.752124 -2.019696
v 5.102104 -0.206578 -1.131383
v 5.102104 -0.206578 -2.131382
v 4.990419 -0.752124 -2.019696
v 4.102106 -0.206578 -2.131382
vt 0.630178 0.147274
vt 0.662740 0.179836
vt 0.662740 0.147274
vt 0.000983 0.057145
vt 0.018758 0.028208
vt 0.000983 0.024584
vt 0.463691 0.048496
vt 0.445854 0.077422
vt 0.463691 0.073785
vt 0.135485 0.052403
vt 0.153258 0.024484
vt 0.135485 0.027469
vt 0.864799 0.050356
vt 0.890087 0.075645
vt 0.890087 0.050356
vt 0.733549 0.063344
vt 0.751472 0.034969
vt 0.733549 0.038244
vt 0.630178 0.179836
vt 0.018758 0.053497
vt 0.445854 0.044860
vt 0.153258 0.056589
vt 0.864799 0.075645
vt 0.751472 0.067288
vn 0.623126 0.472653 -0.623148
vn -0.623126 0.472653 0.623148
vn 0.623160 0.472621 0.623138
vn -0.623160 0.472621 -0.623138
vn -0.517654 -0.681220 0.517662
vn -0.623126 0.472653 0.623148
vn 0.517653 -0.681234 0.517645
vn -0.623126 0.472653 0.623148
vn -0.517654 -0.681220 0.517662
vn 0.517654 -0.681220 -0.517662
vn 0.623160 0.472621 0.623138
vn 0.517653 -0.681234 0.517645
vn -0.517653 -0.681234 -0.517644
vn 0.517653 -0.681234 0.517645
vn -0.517654 -0.681220 0.517662
vn -0.517653 -0.681234 -0.517644
vn 0.623126 0.472653 -0.623148
vn 0.517654 -0.681220 -0.517662
vn -0.623160 0.472621 -0.623138
vn -0.517653 -0.681234 -0.517644
vn 0.623160 0.472621 0.623138
vn 0.623126 0.472653 -0.623148
vn 0.517654 -0.681220 -0.517662
vn -0.623160 0.472621 -0.623138
f 1/1/1 2/2/2 3/3/3
f 4/4/4 5/5/5 6/6/6
f 7/7/7 8/8/8 9/9/9
f 10/10/10 11/11/11 12/12/12
f 13/13/13 14/14/14 15/15/15
f 16/16/16 17/17/17 18/18/18
f 1/1/1 19/19/19 2/2/2
f 4/4/4 20/20/20 5/5/5
f 7/7/7 21/21/21 8/8/8
f 10/10/10 22/22/22 11/11/11
f 13/13/13 23/23/23 14/14/14
f 16/16/16 24/24/24 17/17/17
