# Cube.008 -- imported by tools/import_asset_pack.py from psx.fbx
o __pending__
v 4.731073 2.998498 7.863381
v 5.151169 2.998498 7.443284
v 4.731073 2.998498 7.443284
v 4.731073 2.998498 7.443284
v 4.731073 1.998500 7.863381
v 4.731073 2.998498 7.863381
v 4.731073 2.998498 7.863381
v 5.151169 1.998500 7.863381
v 5.151169 2.998498 7.863381
v 5.151169 2.998498 7.863381
v 5.151169 1.998500 7.443284
v 5.151169 2.998498 7.443284
v 4.731073 1.998500 7.443284
v 5.151169 1.998500 7.863381
v 4.731073 1.998500 7.863381
v 5.151169 2.998498 7.443284
v 4.731073 1.998500 7.443284
v 4.731073 2.998498 7.443284
v 5.151169 2.998498 7.863381
v 4.731073 1.998500 7.443284
v 4.731073 1.998500 7.863381
v 5.151169 1.998500 7.863381
v 5.151169 1.998500 7.443284
v 5.151169 1.998500 7.443284
vt 0.543560 0.025503
vt 0.536955 0.032109
vt 0.543560 0.032109
vt 0.458763 0.027170
vt 0.465368 0.042893
vt 0.465368 0.027170
vt 0.938522 0.020004
vt 0.945127 0.035723
vt 0.945127 0.020004
vt 0.973695 0.270729
vt 0.980207 0.286454
vt 0.980207 0.270731
vt 0.528383 0.032109
vt 0.534988 0.025503
vt 0.528383 0.025503
vt 0.953649 0.035723
vt 0.947094 0.019980
vt 0.947094 0.035683
vt 0.536955 0.025503
vt 0.458763 0.042893
vt 0.938522 0.035723
vt 0.973695 0.286452
vt 0.534988 0.032109
vt 0.953649 0.020020
vn -0.577349 0.577381 0.577321
vn 0.577349 0.577381 -0.577321
vn -0.577332 0.577359 -0.577360
vn -0.577332 0.577359 -0.577360
vn -0.577332 -0.577359 0.577360
vn -0.577349 0.577381 0.577321
vn -0.577349 0.577381 0.577321
vn 0.577349 -0.577381 0.577321
vn 0.577332 0.577360 0.577359
vn 0.577332 0.577360 0.577359
vn 0.577332 -0.577360 -0.577359
vn 0.577349 0.577381 -0.577321
vn -0.577349 -0.577381 -0.577321
vn 0.577349 -0.577381 0.577321
vn -0.577332 -0.577359 0.577360
vn 0.577349 0.577381 -0.577321
vn -0.577349 -0.577381 -0.577321
vn -0.577332 0.577359 -0.577360
vn 0.577332 0.577360 0.577359
vn -0.577349 -0.577381 -0.577321
vn -0.577332 -0.577359 0.577360
vn 0.577349 -0.577381 0.577321
vn 0.577332 -0.577360 -0.577359
vn 0.577332 -0.577360 -0.577359
f 1/1/1 2/2/2 3/3/3
f 4/4/4 5/5/5 6/6/6
f 7/7/7 8/8/8 9/9/9
f 10/10/10 11/11/11 12/12/12
f 13/13/13 14/14/14 15/15/15
f 16/16/16 17/17/17 18/18/18
f 1/1/1 19/19/19 2/2/2
f 4/4/4 20/20/20 5/5/5
f 7/7/7 21/21/21 8/8/8
f 10/10/10 22/22/22 11/11/11
f 13/13/13 23/23/23 14/14/14
f 16/16/16 24/24/24 17/17/17
