# Cube.027 -- imported by tools/import_asset_pack.py from psx.fbx
o __pending__
v 28.196643 2.221580 4.303330
v 28.446642 2.288561 4.041877
v 28.196643 2.221580 4.041877
v 28.696641 2.221580 4.303330
v 28.696641 2.221580 4.041877
v 28.946639 1.788563 4.041877
v 28.196643 1.355555 4.041877
v 28.196643 2.221580 4.041877
v 28.013625 2.038562 4.303330
v 28.196643 2.221580 4.041877
v 28.013625 2.038562 4.041877
v 27.946644 1.788563 4.303330
v 28.013625 2.038562 4.041877
v 27.946644 1.788563 4.041877
v 28.013625 1.538564 4.303330
v 28.013625 1.538564 4.041877
v 28.196643 1.355555 4.303330
v 28.013625 1.538564 4.041877
v 28.196643 1.355555 4.041877
v 28.446642 1.288565 4.303330
v 28.196643 1.355555 4.041877
v 28.446642 1.288565 4.041877
v 28.696641 1.355555 4.303330
v 28.696641 1.355555 4.041877
v 28.879658 1.538564 4.303330
v 28.696641 1.355555 4.041877
v 28.879658 1.538564 4.041877
v 28.946639 1.788563 4.303330
v 28.879658 1.538564 4.041877
v 28.946639 1.788563 4.041877
v 28.879658 2.038562 4.303330
v 28.879658 2.038562 4.041877
v 28.696641 2.221580 4.303330
v 28.879658 2.038562 4.041877
v 28.696641 2.221580 4.041877
v 28.879658 1.538564 4.303330
v 28.879658 2.038562 4.303330
v 28.013625 2.038562 4.303330
v 28.446642 2.288561 4.303330
v 28.446642 2.288561 4.041877
v 28.696641 2.221580 4.041877
v 28.879658 2.038562 4.041877
v 28.879658 1.538564 4.041877
v 28.696641 1.355555 4.041877
v 28.446642 1.288565 4.041877
v 28.013625 1.538564 4.041877
v 27.946644 1.788563 4.041877
v 28.013625 2.038562 4.041877
v 28.196643 2.221580 4.303330
v 28.013625 2.038562 4.303330
v 28.013625 1.538564 4.303330
v 28.196643 1.355555 4.303330
v 28.696641 1.355555 4.303330
v 28.879658 1.538564 4.303330
v 28.879658 2.038562 4.303330
v 28.696641 2.221580 4.303330
v 28.446642 2.288561 4.303330
v 28.196643 2.221580 4.303330
v 27.946644 1.788563 4.303330
v 28.013625 1.538564 4.303330
v 28.196643 1.355555 4.303330
v 28.446642 1.288565 4.303330
v 28.696641 1.355555 4.303330
v 28.946639 1.788563 4.303330
vt 0.867989 0.567169
vt 0.881991 0.580620
vt 0.882055 0.567169
vt 0.867989 0.594071
vt 0.882055 0.594071
vt 0.931635 0.779916
vt 0.898688 0.812864
vt 0.943694 0.824924
vt 0.824988 0.747596
vt 0.811063 0.761663
vt 0.824988 0.761663
vt 0.790044 0.026300
vt 0.804112 0.039876
vt 0.804112 0.026300
vt 0.790044 0.012993
vt 0.804112 0.012993
vt 0.971718 0.435092
vt 0.983849 0.449441
vt 0.983849 0.435544
vt 0.951195 0.580850
vt 0.965237 0.594301
vt 0.965262 0.580850
vt 0.951170 0.567399
vt 0.965237 0.567399
vt 0.057807 0.036684
vt 0.045677 0.023238
vt 0.045677 0.037135
vt 0.994337 0.761315
vt 0.980269 0.748047
vt 0.980269 0.761315
vt 0.994337 0.774920
vt 0.980269 0.774920
vt 0.775968 0.581253
vt 0.789894 0.567186
vt 0.775968 0.567186
vt 0.736689 0.066169
vt 0.762672 0.073131
vt 0.774733 0.028124
vt 0.867926 0.580620
vt 0.950657 0.812864
vt 0.950657 0.798939
vt 0.943695 0.786879
vt 0.917710 0.779916
vt 0.905651 0.786879
vt 0.898688 0.798939
vt 0.905650 0.824924
vt 0.917709 0.831887
vt 0.931634 0.831887
vt 0.811063 0.747596
vt 0.790044 0.039876
vt 0.971718 0.448990
vt 0.951170 0.594301
vt 0.057807 0.022786
vt 0.994337 0.748047
vt 0.789894 0.581253
vt 0.774731 0.066169
vt 0.781694 0.054109
vt 0.781694 0.040183
vt 0.762674 0.021161
vt 0.748750 0.021161
vt 0.736691 0.028124
vt 0.729728 0.040183
vt 0.729727 0.054109
vt 0.748747 0.073131
vn -0.378581 0.655733 0.653216
vn -0.000000 0.757178 -0.653209
vn -0.378586 0.655719 -0.653226
vn 0.378590 0.655739 0.653205
vn 0.378587 0.655731 -0.653214
vn 0.757185 0.000006 -0.653201
vn -0.378599 -0.655763 -0.653175
vn -0.378586 0.655719 -0.653226
vn -0.655736 0.378596 0.653204
vn -0.378586 0.655719 -0.653226
vn -0.655730 0.378580 -0.653219
vn -0.757172 0.000006 0.653216
vn -0.655730 0.378580 -0.653219
vn -0.757183 -0.000006 -0.653203
vn -0.655740 -0.378585 0.653206
vn -0.655727 -0.378591 -0.653216
vn -0.378591 -0.655726 0.653217
vn -0.655727 -0.378591 -0.653216
vn -0.378599 -0.655763 -0.653175
vn -0.000006 -0.757182 0.653204
vn -0.378599 -0.655763 -0.653175
vn 0.000005 -0.757171 -0.653216
vn 0.378581 -0.655733 0.653216
vn 0.378596 -0.655737 -0.653203
vn 0.655740 -0.378598 0.653198
vn 0.378596 -0.655737 -0.653203
vn 0.655730 -0.378579 -0.653219
vn 0.757172 -0.000006 0.653216
vn 0.655730 -0.378579 -0.653219
vn 0.757185 0.000006 -0.653201
vn 0.655742 0.378586 0.653204
vn 0.655727 0.378591 -0.653216
vn 0.378590 0.655739 0.653205
vn 0.655727 0.378591 -0.653216
vn 0.378587 0.655731 -0.653214
vn 0.655740 -0.378598 0.653198
vn 0.655742 0.378586 0.653204
vn -0.655736 0.378596 0.653204
vn 0.000000 0.757171 0.653217
vn -0.000000 0.757178 -0.653209
vn 0.378587 0.655731 -0.653214
vn 0.655727 0.378591 -0.653216
vn 0.655730 -0.378579 -0.653219
vn 0.378596 -0.655737 -0.653203
vn 0.000005 -0.757171 -0.653216
vn -0.655727 -0.378591 -0.653216
vn -0.757183 -0.000006 -0.653203
vn -0.655730 0.378580 -0.653219
vn -0.378581 0.655733 0.653216
vn -0.655736 0.378596 0.653204
vn -0.655740 -0.378585 0.653206
vn -0.378591 -0.655726 0.653217
vn 0.378581 -0.655733 0.653216
vn 0.655740 -0.378598 0.653198
vn 0.655742 0.378586 0.653204
vn 0.378590 0.655739 0.653205
vn 0.000000 0.757171 0.653217
vn -0.378581 0.655733 0.653216
vn -0.757172 0.000006 0.653216
vn -0.655740 -0.378585 0.653206
vn -0.378591 -0.655726 0.653217
vn -0.000006 -0.757182 0.653204
vn 0.378581 -0.655733 0.653216
vn 0.757172 -0.000006 0.653216
f 1/1/1 2/2/2 3/3/3
f 2/2/2 4/4/4 5/5/5
f 6/6/6 7/7/7 8/8/8
f 9/9/9 10/10/10 11/11/11
f 12/12/12 13/13/13 14/14/14
f 15/15/15 14/14/14 16/16/16
f 17/17/17 18/18/18 19/19/19
f 20/20/20 21/21/21 22/22/22
f 23/23/23 22/22/22 24/24/24
f 25/25/25 26/26/26 27/27/27
f 28/28/28 29/29/29 30/30/30
f 31/31/31 30/30/30 32/32/32
f 33/33/33 34/34/34 35/35/35
f 36/36/36 37/37/37 38/38/38
f 1/1/1 39/39/39 2/2/2
f 2/2/2 39/39/39 4/4/4
f 8/8/8 40/40/40 6/6/6
f 40/40/40 41/41/41 6/6/6
f 41/41/41 42/42/42 6/6/6
f 6/6/6 43/43/43 7/7/7
f 43/43/43 44/44/44 7/7/7
f 44/44/44 45/45/45 7/7/7
f 7/7/7 46/46/46 47/47/47
f 47/47/47 48/48/48 7/7/7
f 48/48/48 8/8/8 7/7/7
f 9/9/9 49/49/49 10/10/10
f 12/12/12 50/50/50 13/13/13
f 15/15/15 12/12/12 14/14/14
f 17/17/17 51/51/51 18/18/18
f 20/20/20 52/52/52 21/21/21
f 23/23/23 20/20/20 22/22/22
f 25/25/25 53/53/53 26/26/26
f 28/28/28 54/54/54 29/29/29
f 31/31/31 28/28/28 30/30/30
f 33/33/33 55/55/55 34/34/34
f 37/37/37 56/56/56 57/57/57
f 57/57/57 58/58/58 38/38/38
f 38/38/38 59/59/59 60/60/60
f 60/60/60 61/61/61 62/62/62
f 62/62/62 63/63/63 36/36/36
f 36/36/36 64/64/64 37/37/37
f 37/37/37 57/57/57 38/38/38
f 38/38/38 60/60/60 62/62/62
f 62/62/62 36/36/36 38/38/38
