# Cube.002 -- imported by tools/import_asset_pack.py from psx.fbx
o __pending__
v -1.849014 0.124133 -0.263802
v -1.599014 0.103435 -0.196815
v -1.849014 0.103435 -0.263802
v -1.599014 0.124133 -0.196815
v -1.416001 0.103435 -0.013802
v -1.599014 0.103435 -0.196815
v -1.416001 0.124133 -0.013802
v -1.349013 0.103435 0.236198
v -1.349013 0.124133 0.236198
v -1.416001 0.103435 0.486198
v -1.416001 0.124133 0.486198
v -1.599014 0.103435 0.669210
v -1.416001 0.103435 0.486198
v -1.599014 0.124133 0.669210
v -1.849014 0.103435 0.736197
v -2.099013 0.124133 0.669210
v -2.099013 0.103435 0.669210
v -2.099013 0.124133 0.669210
v -2.282026 0.103435 0.486198
v -2.099013 0.103435 0.669210
v -2.282026 0.124133 0.486198
v -2.349014 0.103435 0.236198
v -2.349014 0.124133 0.236198
v -2.282026 0.103435 -0.013802
v -2.349014 0.103435 0.236198
v -1.849014 0.124133 0.736197
v -1.416001 0.124133 0.486198
v -1.416001 0.124133 -0.013802
v -2.282026 0.124133 -0.013802
v -2.099013 0.103435 -0.196815
v -2.099013 0.124133 -0.196815
v -2.099013 0.103435 -0.196815
v -1.349013 0.103435 0.236198
v -2.099013 0.103435 0.669210
v -2.099013 0.103435 -0.196815
v -1.599014 0.124133 -0.196815
v -1.416001 0.124133 0.486198
v -1.849014 0.124133 0.736197
v -2.349014 0.124133 0.236198
v -1.599014 0.124133 -0.196815
v -1.849014 0.124133 -0.263802
v -2.099013 0.124133 -0.196815
v -2.282026 0.124133 -0.013802
v -2.349014 0.124133 0.236198
v -2.282026 0.124133 0.486198
v -2.099013 0.124133 0.669210
v -1.599014 0.124133 0.669210
v -1.349013 0.124133 0.236198
v -2.099013 0.124133 -0.196815
v -1.849014 0.103435 -0.263802
v -1.599014 0.103435 -0.196815
v -1.416001 0.103435 -0.013802
v -1.416001 0.103435 0.486198
v -1.599014 0.103435 0.669210
v -1.849014 0.103435 0.736197
v -2.282026 0.103435 0.486198
v -2.349014 0.103435 0.236198
v -2.282026 0.103435 -0.013802
vt 0.038966 0.383224
vt 0.028312 0.250000
vt 0.028312 0.383224
vt 0.025510 0.498599
vt 0.014856 0.383224
vt 0.014856 0.498599
vt 0.025510 0.383224
vt 0.014856 0.250000
vt 0.025510 0.250000
vt 0.014856 0.134625
vt 0.012055 0.498599
vt 0.001401 0.383224
vt 0.001401 0.498599
vt 0.012055 0.383224
vt 0.001401 0.250000
vt 0.012055 0.134624
vt 0.001401 0.134624
vt 0.041767 0.250000
vt 0.052421 0.383224
vt 0.052421 0.250000
vt 0.041767 0.383224
vt 0.052421 0.498599
vt 0.055223 0.250000
vt 0.065877 0.383224
vt 0.065877 0.250000
vt 0.001401 0.683388
vt 0.068013 0.931987
vt 0.316612 0.998599
vt 0.055223 0.383224
vt 0.065877 0.498599
vt 0.038966 0.498599
vt 0.028312 0.498599
vt 0.816612 0.501401
vt 0.501401 0.816612
vt 0.931987 0.931987
vt 0.038966 0.250000
vt 0.025510 0.134625
vt 0.012055 0.250000
vt 0.041767 0.498599
vt 0.431987 0.931987
vt 0.498599 0.816612
vt 0.498599 0.683388
vt 0.431987 0.568013
vt 0.316612 0.501401
vt 0.183388 0.501401
vt 0.068013 0.568013
vt 0.001401 0.816612
vt 0.183388 0.998599
vt 0.055223 0.498599
vt 0.998599 0.816612
vt 0.998599 0.683388
vt 0.931987 0.568013
vt 0.683388 0.501401
vt 0.568013 0.568013
vt 0.501401 0.683388
vt 0.568013 0.931987
vt 0.683388 0.998599
vt 0.816612 0.998599
vn 0.000001 0.653207 -0.757180
vn 0.378587 -0.653211 -0.655734
vn -0.000002 -0.653226 -0.757163
vn 0.378584 0.653224 -0.655723
vn 0.655723 -0.653224 -0.378584
vn 0.378587 -0.653211 -0.655734
vn 0.655734 0.653211 -0.378587
vn 0.757200 -0.653183 -0.000001
vn 0.757165 0.653224 0.000001
vn 0.655725 -0.653224 0.378581
vn 0.655731 0.653214 0.378588
vn 0.378589 -0.653211 0.655733
vn 0.655725 -0.653224 0.378581
vn 0.378581 0.653223 0.655725
vn -0.000000 -0.653224 0.757165
vn -0.378584 0.653220 0.655727
vn -0.378588 -0.653212 0.655733
vn -0.378584 0.653220 0.655727
vn -0.655723 -0.653224 0.378584
vn -0.378588 -0.653212 0.655733
vn -0.655732 0.653214 0.378585
vn -0.757176 -0.653211 0.000002
vn -0.757165 0.653224 -0.000002
vn -0.655723 -0.653227 -0.378580
vn -0.757176 -0.653211 0.000002
vn -0.000000 0.653214 0.757173
vn 0.655731 0.653214 0.378588
vn 0.655734 0.653211 -0.378587
vn -0.655733 0.653211 -0.378590
vn -0.378580 -0.653233 -0.655716
vn -0.378581 0.653224 -0.655724
vn -0.378580 -0.653233 -0.655716
vn 0.757200 -0.653183 -0.000001
vn -0.378588 -0.653212 0.655733
vn -0.378580 -0.653233 -0.655716
vn 0.378584 0.653224 -0.655723
vn 0.655731 0.653214 0.378588
vn -0.000000 0.653214 0.757173
vn -0.757165 0.653224 -0.000002
vn 0.378584 0.653224 -0.655723
vn 0.000001 0.653207 -0.757180
vn -0.378581 0.653224 -0.655724
vn -0.655733 0.653211 -0.378590
vn -0.757165 0.653224 -0.000002
vn -0.655732 0.653214 0.378585
vn -0.378584 0.653220 0.655727
vn 0.378581 0.653223 0.655725
vn 0.757165 0.653224 0.000001
vn -0.378581 0.653224 -0.655724
vn -0.000002 -0.653226 -0.757163
vn 0.378587 -0.653211 -0.655734
vn 0.655723 -0.653224 -0.378584
vn 0.655725 -0.653224 0.378581
vn 0.378589 -0.653211 0.655733
vn -0.000000 -0.653224 0.757165
vn -0.655723 -0.653224 0.378584
vn -0.757176 -0.653211 0.000002
vn -0.655723 -0.653227 -0.378580
f 1/1/1 2/2/2 3/3/3
f 4/4/4 5/5/5 6/6/6
f 7/7/7 8/8/8 5/5/5
f 9/9/9 10/10/10 8/8/8
f 11/11/11 12/12/12 13/13/13
f 14/14/14 15/15/15 12/12/12
f 15/15/15 16/16/16 17/17/17
f 18/18/18 19/19/19 20/20/20
f 21/21/21 22/22/22 19/19/19
f 23/23/23 24/24/24 25/25/25
f 26/26/26 27/27/27 28/28/28
f 29/29/29 30/30/30 24/24/24
f 31/31/31 3/3/3 32/32/32
f 33/33/33 34/34/34 35/35/35
f 1/1/1 36/36/36 2/2/2
f 4/4/4 7/7/7 5/5/5
f 7/7/7 9/9/9 8/8/8
f 9/9/9 37/37/37 10/10/10
f 11/11/11 14/14/14 12/12/12
f 14/14/14 38/38/38 15/15/15
f 15/15/15 38/38/38 16/16/16
f 18/18/18 21/21/21 19/19/19
f 21/21/21 39/39/39 22/22/22
f 23/23/23 29/29/29 24/24/24
f 28/28/28 40/40/40 41/41/41
f 41/41/41 42/42/42 43/43/43
f 43/43/43 44/44/44 45/45/45
f 45/45/45 46/46/46 26/26/26
f 26/26/26 47/47/47 27/27/27
f 27/27/27 48/48/48 28/28/28
f 28/28/28 41/41/41 26/26/26
f 41/41/41 43/43/43 26/26/26
f 43/43/43 45/45/45 26/26/26
f 29/29/29 49/49/49 30/30/30
f 31/31/31 1/1/1 3/3/3
f 35/35/35 50/50/50 33/33/33
f 50/50/50 51/51/51 33/33/33
f 51/51/51 52/52/52 33/33/33
f 33/33/33 53/53/53 54/54/54
f 54/54/54 55/55/55 33/33/33
f 55/55/55 34/34/34 33/33/33
f 34/34/34 56/56/56 57/57/57
f 57/57/57 58/58/58 34/34/34
f 58/58/58 35/35/35 34/34/34
