# File produced by Open Asset Import Library (http://www.assimp.sf.net)
# (assimp v6.0.0)


# 293 vertex positions
v 4 3 4.37113847e-08
v 3 3 8.74227695e-08
v 3 2.79999995 8.74227695e-08
v 4 1.95390284 0
v 1 2.79999995 -4
v 1 3 -4
v 2 3 -4
v 2 2.9000001 -4
v 3 2.79999995 -4
v 3 3 -4
v 0 3 4.37113812e-08
v 0 1.95390284 0
v 1 2.79999995 8.74227695e-08
v 1 3 8.74227695e-08
v 4 3 -4
v 4 1.95390284 -4
v 0 3 -4
v 0 1.95390284 -4
v 1 3 -3
v 1 3 -4
v 0 3 -4
v 0 3 -3
v 0 1.95390284 0
v 0 3 4.37113812e-08
v 0 3 -0.99999994
v 0 2 -1.00105476
v 2 3 -3
v 2 3 -4
v 3 3 -3
v 3 3 -4
v 4 3 -3
v 4 3 -4
v 4 3 4.37113847e-08
v 4 1.95390284 0
v 4 1.95390272 -1
v 4 3 -0.99999994
v 2 2.9000001 8.74227695e-08
v 2 3 8.74227695e-08
v 4 3 4.37113847e-08
v 4 3 -0.99999994
v 3 3 -0.99999994
v 3 3 8.74227695e-08
v 4 3 -0.99999994
v 4 3 -2
v 3 3 -2
v 3 3 -0.99999994
v 2 3 8.74227695e-08
v 2 3 -0.99999994
v 2 3 -0.99999994
v 2 3 -2
v 1 3 8.74227695e-08
v 1 3 -0.99999994
v 1 3 -0.99999994
v 1 3 -2
v 0 3 -0.99999994
v 0 3 4.37113812e-08
v 0 3 -2
v 0 3 -0.99999994
v 4 1.95390284 0
v 3 2.79999995 8.74227695e-08
v 2.84096336 2.57772636 -0.306786656
v 3.67974329 1.95390284 -0.306786656
v 4 1.91068547e-15 -3
v 4 1.91068547e-15 -2
v 3.67826819 0 -2
v 3.67826819 0 -2.84660673
v 1 2.79999995 -4
v 2 2.9000001 -4
v 2 2.66128063 -3.69321346
v 1.15903664 2.57772636 -3.69321346
v 0 1.91068547e-15 -4.37113883e-08
v 0 1.91068547e-15 -1
v 0.321731806 0 -1.15339327
v 0.321731806 0 -0.306786656
v 3 2.79999995 8.74227695e-08
v 2 2.9000001 8.74227695e-08
v 2 2.66128063 -0.306786656
v 2.84096336 2.57772636 -0.306786656
v 4 1.91068547e-15 -1
v 3.67826819 0 -1.15339327
v 0 3 -2
v 0 2 -2.0006485
v 2 2.9000001 -4
v 3 2.79999995 -4
v 2.84096336 2.57772636 -3.69321346
v 2 2.66128063 -3.69321346
v 0 1.95390284 -4
v 1 2.79999995 -4
v 1.15903664 2.57772636 -3.69321346
v 0.32025671 1.95390284 -3.69321346
v 0 3 -3
v 0 2 -3.00237846
v 0 1.91068547e-15 -4
v 0 1.0338366 -4
v 0.321731806 1.0338366 -3.69321346
v 0.321731806 0 -3.69321346
v 0 3 -4
v 0 1.95390284 -4
v 4 1.95390272 -2
v 4 3 -2
v 2 2.9000001 8.74227695e-08
v 1 2.79999995 8.74227695e-08
v 1.15903664 2.57772636 -0.306786656
v 2 2.66128063 -0.306786656
v 4 1.95390272 -3
v 4 3 -3
v 4 1.91068547e-15 -1
v 4 1.91068547e-15 -4.37113883e-08
v 3.67826819 0 -0.306786656
v 3.67826819 0 -1.15339327
v 4 1.95390284 -4
v 4 3 -4
v 4 1.91068547e-15 -4
v 3.67826819 0 -3.69321346
v 0 1.0338366 0
v 0 1.91068547e-15 -4.37113883e-08
v 0.321731806 0 -0.306786656
v 0.321731806 1.0338366 -0.306786656
v 4 1.95390284 -4
v 4 1.0338366 -4
v 3.67826819 1.0338366 -3.69321346
v 3.67974329 1.95390284 -3.69321346
v 1 2.79999995 8.74227695e-08
v 0 1.95390284 0
v 0.32025671 1.95390284 -0.306786656
v 1.15903664 2.57772636 -0.306786656
v 4 1.0338366 -4
v 4 1.91068547e-15 -4
v 3.67826819 0 -3.69321346
v 3.67826819 1.0338366 -3.69321346
v 4 1.0338366 0
v 4 1.95390284 0
v 3.67974329 1.95390284 -0.306786656
v 3.67826819 1.0338366 -0.306786656
v 0 1.0338366 -4
v 0 1.95390284 -4
v 0.32025671 1.95390284 -3.69321346
v 0.321731806 1.0338366 -3.69321346
v 4 1.91068547e-15 -4.37113883e-08
v 4 1.0338366 0
v 3.67826819 1.0338366 -0.306786656
v 3.67826819 0 -0.306786656
v 0 1.91068547e-15 -2
v 0 1.91068547e-15 -3
v 0.321731806 0 -2.84660673
v 0.321731806 0 -2
v 3 2.79999995 -4
v 4 1.95390284 -4
v 3.67974329 1.95390284 -3.69321346
v 2.84096336 2.57772636 -3.69321346
v 0 1.95390284 0
v 0 1.0338366 0
v 0.321731806 1.0338366 -0.306786656
v 0.32025671 1.95390284 -0.306786656
v 0 1.91068547e-15 -1
v 0.321731806 0 -1.15339327
v 0 1.91068547e-15 -4
v 0.321731806 0 -3.69321346
v 0.321731806 1.0338366 -2.84660673
v 0.321731806 0 -2.84660673
v 0.321731806 0 -3.69321346
v 0.321731806 1.0338366 -3.69321346
v 0.32025671 1.95390284 -0.306786656
v 0.321731806 1.0338366 -0.306786656
v 0.321731806 1.0338366 -1.15339327
v 0.32025671 1.95390284 -1.15428638
v 1.15903664 2.57772636 -2.84660673
v 0.32025671 1.95390284 -2.84862041
v 0.32025671 1.95390284 -3.69321346
v 1.15903664 2.57772636 -3.69321346
v 3.67974329 1.95390284 -2.84591866
v 2.84096336 2.57772636 -2.84660673
v 2.84096336 2.57772636 -3.69321346
v 3.67974329 1.95390284 -3.69321346
v 3.67826819 1.0338366 -0.306786656
v 3.67974329 1.95390284 -0.306786656
v 3.67974329 1.95390284 -1.15459311
v 3.67826819 1.0338366 -1.15339327
v 3.67826819 0 -2.84660673
v 3.67826819 1.0338366 -2.84660673
v 3.67826819 1.0338366 -3.69321346
v 3.67826819 0 -3.69321346
v 2 2.66128063 -2.84660673
v 2 2.66128063 -3.69321346
v 2.84096336 2.57772636 -3.69321346
v 2.84096336 2.57772636 -2.84660673
v 2 2.66128063 -2.84660673
v 1.15903664 2.57772636 -2.84660673
v 1.15903664 2.57772636 -3.69321346
v 2 2.66128063 -3.69321346
v 3.67826819 0 -0.306786656
v 3.67826819 1.0338366 -0.306786656
v 3.67826819 1.0338366 -1.15339327
v 3.67826819 0 -1.15339327
v 3.67826819 0 -1.15339327
v 3.67826819 1.0338366 -1.15339327
v 3.67826819 1.0338366 -2
v 3.67826819 0 -2
v 3.67826819 1.0338366 -2.84660673
v 3.67826819 0 -2.84660673
v 0.321731806 1.0338366 -0.306786656
v 0.321731806 0 -0.306786656
v 0.321731806 0 -1.15339327
v 0.321731806 1.0338366 -1.15339327
v 0.321731806 1.0338366 -1.15339327
v 0.321731806 0 -1.15339327
v 0.321731806 0 -2
v 0.321731806 1.0338366 -2
v 0.321731806 0 -2.84660673
v 0.321731806 1.0338366 -2.84660673
v 0.32025671 1.95390284 -1.15428638
v 0.321731806 1.0338366 -1.15339327
v 0.321731806 1.0338366 -2
v 0.32025671 1.95390284 -2.00054908
v 0.321731806 1.0338366 -2.84660673
v 0.32025671 1.95390284 -2.84862041
v 0.32025671 1.95390284 -2.84862041
v 0.321731806 1.0338366 -2.84660673
v 0.321731806 1.0338366 -3.69321346
v 0.32025671 1.95390284 -3.69321346
v 3.67826819 1.0338366 -1.15339327
v 3.67974329 1.95390284 -1.15459311
v 3.67974329 1.95390284 -2.001647
v 3.67826819 1.0338366 -2
v 3.67974329 1.95390284 -2.84591866
v 3.67826819 1.0338366 -2.84660673
v 3.67826819 1.0338366 -2.84660673
v 3.67974329 1.95390284 -2.84591866
v 3.67974329 1.95390284 -3.69321346
v 3.67826819 1.0338366 -3.69321346
v 2 2.66128063 -0.306786656
v 1.15903664 2.57772636 -0.306786656
v 1.15903664 2.57772636 -1.15339327
v 2 2.66128063 -1.15339327
v 1.15903664 2.57772636 -2
v 2 2.66128063 -2
v 2 2.66128063 -0.306786656
v 2 2.66128063 -1.15339327
v 2.84096336 2.57772636 -1.15339327
v 2.84096336 2.57772636 -0.306786656
v 2 2.66128063 -2
v 2.84096336 2.57772636 -2
v 3.67974329 1.95390284 -0.306786656
v 2.84096336 2.57772636 -0.306786656
v 2.84096336 2.57772636 -1.15339327
v 3.67974329 1.95390284 -1.15459311
v 2.84096336 2.57772636 -2
v 3.67974329 1.95390284 -2.001647
v 1.15903664 2.57772636 -2
v 0.32025671 1.95390284 -2.00054908
v 1.15903664 2.57772636 -1.15339327
v 0.32025671 1.95390284 -1.15428638
v 1.15903664 2.57772636 -0.306786656
v 0.32025671 1.95390284 -0.306786656
v 0 2 -3.00237846
v 0 1.95390284 -4
v 0 1.0338366 -4
v 0 1.0338366 -3
v 0 2 -2.0006485
v 0 1.0338366 -2
v 0 2 -1.00105476
v 0 1.0338366 -1
v 0 1.95390284 0
v 0 1.0338366 0
v 0 1.91068547e-15 -4
v 0 1.91068547e-15 -3
v 0 1.91068547e-15 -2
v 0 1.91068547e-15 -1
v 0 1.91068547e-15 -4.37113883e-08
v 4 1.95390272 -3
v 4 1.0338366 -3
v 4 1.0338366 -4
v 4 1.95390284 -4
v 4 1.0338366 -3
v 4 1.91068547e-15 -3
v 4 1.91068547e-15 -4
v 4 1.0338366 -4
v 4 1.0338366 0
v 4 1.91068547e-15 -4.37113883e-08
v 4 1.91068547e-15 -1
v 4 1.0338366 -1
v 4 1.0338366 -1
v 4 1.91068547e-15 -1
v 4 1.91068547e-15 -2
v 4 1.0338366 -2
v 4 1.91068547e-15 -3
v 4 1.0338366 -3
v 4 1.95390284 0
v 4 1.0338366 0
v 4 1.0338366 -1
v 4 1.95390272 -1
v 4 1.0338366 -2
v 4 1.95390272 -2

# 138 UV coordinates
vt 0.818199933 0.90899992 0
vt 0.727299929 0.90899992 0
vt 0.727299929 0.890819907 0
vt 0.818199933 0.818099916 0
vt 0.545499861 0.890819907 0
vt 0.545499861 0.90899992 0
vt 0.636399925 0.90899992 0
vt 0.636399925 0.899909973 0
vt 0.454599917 0.90899992 0
vt 0.454599917 0.818099916 0
vt 0.545499861 0.818100095 0
vt 0.545499861 0.909000039 0
vt 0.454599917 0.909000039 0
vt 0.454599917 0.818100095 0
vt 0.454599917 0.818100035 0
vt 0.545499921 0.909000039 0
vt 0.545595825 0.818100035 0
vt 0.636399806 0.818100095 0
vt 0.636399806 0.909000039 0
vt 0.727299929 0.818100095 0
vt 0.727299929 0.909000039 0
vt 0.818199813 0.818100095 0
vt 0.818199813 0.909000039 0
vt 0.545628667 0.818100035 0
vt 0.818199813 0.72720015 0
vt 0.727299929 0.72720015 0
vt 0.818199813 0.636300087 0
vt 0.727299929 0.636300087 0
vt 0.636399806 0.72720015 0
vt 0.636399806 0.636300087 0
vt 0.545499861 0.72720015 0
vt 0.545499861 0.636300087 0
vt 0.454599917 0.72720015 0
vt 0.454599917 0.636300087 0
vt 0.454599977 0.90899992 0
vt 0.545499921 0.90899992 0
vt 0.559956372 0.881113052 0
vt 0.483711302 0.881113052 0
vt 0.818199933 0.818100035 0
vt 0.818199933 0.727200031 0
vt 0.788954556 0.727200031 0
vt 0.788954556 0.804156601 0
vt 0.636399925 0.909000039 0
vt 0.636399925 0.881113172 0
vt 0.559956312 0.881113172 0
vt 0.788954556 0.881113052 0
vt 0.636400044 0.90899992 0
vt 0.636400044 0.881113052 0
vt 0.818199933 0.636300087 0
vt 0.788954556 0.650243402 0
vt 0.636458874 0.818100035 0
vt 0.712843478 0.881113172 0
vt 0.483711243 0.881113172 0
vt 0.727516174 0.818100035 0
vt 0.818199933 0.859004974 0
vt 0.818199933 0.765029311 0
vt 0.788954556 0.765029311 0
vt 0.788954556 0.859004974 0
vt 0.818199933 0.909000039 0
vt 0.636576772 0.818100035 0
vt 0.712843478 0.881113052 0
vt 0.727226079 0.818100035 0
vt 0.454599977 0.818099916 0
vt 0.483845353 0.881113052 0
vt 0.483845353 0.804156601 0
vt 0.788954556 0.881113172 0
vt 0.454599917 0.866980553 0
vt 0.454599917 0.77300477 0
vt 0.483845353 0.77300477 0
vt 0.483845353 0.866980553 0
vt 0.818199933 0.77300477 0
vt 0.818199933 0.689370751 0
vt 0.788954556 0.689370751 0
vt 0.789088607 0.77300477 0
vt 0.789088607 0.881113052 0
vt 0.454599917 0.815024376 0
vt 0.483845234 0.815024376 0
vt 0.483845234 0.909000039 0
vt 0.454599917 0.689370751 0
vt 0.483711243 0.77300477 0
vt 0.483845294 0.689370751 0
vt 0.454599917 0.815024257 0
vt 0.483845294 0.909000039 0
vt 0.483845294 0.815024257 0
vt 0.454599917 0.727200031 0
vt 0.483845294 0.804156601 0
vt 0.483845294 0.727200031 0
vt 0.789088607 0.881113172 0
vt 0.483845294 0.650243402 0
vt 0.483845294 0.881113172 0
vt 0.636399925 0.727200031 0
vt 0.636399925 0.636300027 0
vt 0.727299929 0.636300027 0
vt 0.727299929 0.727200031 0
vt 0.545499921 0.818100035 0
vt 0.545499921 0.727200031 0
vt 0.636495829 0.818100035 0
vt 0.545283675 0.818100035 0
vt 0.545573711 0.90899992 0
vt 0.545499802 0.818100035 0
vt 0.63652873 0.818100035 0
vt 0.636399925 0.636300087 0
vt 0.727299929 0.818100035 0
vt 0.545499921 0.636300087 0
vt 0.545499861 0.727200031 0
vt 0.545499921 0.636300027 0
vt 0.636616111 0.818100035 0
vt 0.636326015 0.818100035 0
vt 0.636399925 0.818100035 0
vt 0.818199813 0.818100035 0
vt 0.727299809 0.818100035 0
vt 0.727171004 0.90899992 0
vt 0.636399806 0.818100035 0
vt 0.636222959 0.90899992 0
vt 0.636340916 0.818100035 0
vt 0.727204084 0.818100035 0
vt 0.727516174 0.818099916 0
vt 0.636458874 0.818099916 0
vt 0.545595765 0.818099916 0
vt 0.818199933 0.636299968 0
vt 0.727299929 0.636299968 0
vt 0.636399925 0.636299968 0
vt 0.545499921 0.636299968 0
vt 0.454599917 0.636299968 0
vt 0.727299929 0.82536602 0
vt 0.818199933 0.82536602 0
vt 0.727299929 0.815024197 0
vt 0.818199933 0.815024197 0
vt 0.454599977 0.909000039 0
vt 0.454599977 0.815024376 0
vt 0.545499921 0.815024376 0
vt 0.545499921 0.815024197 0
vt 0.636399925 0.815024197 0
vt 0.727299988 0.815024197 0
vt 0.727299988 0.90899992 0
vt 0.454599917 0.82536602 0
vt 0.545499921 0.82536602 0
vt 0.636399925 0.82536602 0

# 28 vertex normals
vn 0 0 1
vn 0 0 -1
vn 0 1 0
vn -1 0 0
vn 1 0 0
vn -0.49456811 -0.618660152 0.610460579
vn 0 -1 0
vn 0.0785052776 -0.787152946 -0.611741126
vn -0.0785052776 -0.787152946 0.611741126
vn -0.0785052776 -0.787152946 -0.611741126
vn 0.49456811 -0.618660152 -0.610460579
vn 0.690106988 0 -0.723707318
vn 0.0785052776 -0.787152946 0.611741126
vn 0.690106988 0 0.723707318
vn -0.690925062 0.000600021798 -0.722926199
vn 0.49456811 -0.618660152 0.610460579
vn -0.690106988 0 -0.723707318
vn -0.690925062 0.000600021798 0.722926199
vn 0.690925062 0.000600021798 -0.722926199
vn -0.690106988 0 0.723707318
vn -0.49456811 -0.618660152 -0.610460579
vn 0.690925062 0.000600021798 0.722926199
vn 0.999998808 0.0015999981 0
vn 0.596795261 -0.802393556 0
vn -0.596795261 -0.802393556 0
vn -0.999998808 0.0015999981 0
vn -0.098899737 -0.995097399 0
vn 0.098899737 -0.995097399 0

# Mesh 'Plane.407' with 208 faces
g Plane.407
f  1/1/1 2/2/1 3/3/1
f  1/1/1 3/3/1 4/4/1
f  5/5/2 6/6/2 7/7/2
f  5/5/2 7/7/2 8/8/2
f  9/3/2 8/8/2 7/7/2
f  9/3/2 7/7/2 10/2/2
f  11/9/1 12/10/1 13/5/1
f  11/9/1 13/5/1 14/6/1
f  15/1/2 16/4/2 9/3/2
f  15/1/2 9/3/2 10/2/2
f  17/9/2 6/6/2 5/5/2
f  17/9/2 5/5/2 18/10/2
f  19/11/3 20/12/3 21/13/3
f  19/11/3 21/13/3 22/14/3
f  23/15/4 24/13/4 25/16/4
f  23/15/4 25/16/4 26/17/4
f  19/11/3 27/18/3 28/19/3
f  19/11/3 28/19/3 20/12/3
f  27/18/3 29/20/3 30/21/3
f  27/18/3 30/21/3 28/19/3
f  31/22/3 32/23/3 30/21/3
f  31/22/3 30/21/3 29/20/3
f  33/13/5 34/15/5 35/24/5
f  33/13/5 35/24/5 36/12/5
f  13/5/1 37/8/1 38/7/1
f  13/5/1 38/7/1 14/6/1
f  3/3/1 2/2/1 38/7/1
f  3/3/1 38/7/1 37/8/1
f  39/25/3 40/22/3 41/20/3
f  39/25/3 41/20/3 42/26/3
f  43/27/3 44/25/3 45/26/3
f  43/27/3 45/26/3 46/28/3
f  44/25/3 31/22/3 29/20/3
f  44/25/3 29/20/3 45/26/3
f  47/29/3 42/26/3 41/20/3
f  47/29/3 41/20/3 48/18/3
f  49/30/3 46/28/3 45/26/3
f  49/30/3 45/26/3 50/29/3
f  50/29/3 45/26/3 29/20/3
f  50/29/3 29/20/3 27/18/3
f  51/31/3 47/29/3 48/18/3
f  51/31/3 48/18/3 52/11/3
f  53/32/3 49/30/3 50/29/3
f  53/32/3 50/29/3 54/31/3
f  54/31/3 50/29/3 27/18/3
f  54/31/3 27/18/3 19/11/3
f  51/31/3 52/11/3 55/14/3
f  51/31/3 55/14/3 56/33/3
f  53/32/3 54/31/3 57/33/3
f  53/32/3 57/33/3 58/34/3
f  54/31/3 19/11/3 22/14/3
f  54/31/3 22/14/3 57/33/3
f  59/35/6 60/36/6 61/37/6
f  59/35/6 61/37/6 62/38/6
f  63/39/7 64/40/7 65/41/7
f  63/39/7 65/41/7 66/42/7
f  67/12/8 68/43/8 69/44/8
f  67/12/8 69/44/8 70/45/8
f  71/1/7 72/4/7 73/42/7
f  71/1/7 73/42/7 74/46/7
f  75/36/9 76/47/9 77/48/9
f  75/36/9 77/48/9 78/37/9
f  64/40/7 79/49/7 80/50/7
f  64/40/7 80/50/7 65/41/7
f  26/17/4 25/16/4 81/43/4
f  26/17/4 81/43/4 82/51/4
f  83/43/10 84/21/10 85/52/10
f  83/43/10 85/52/10 86/44/10
f  87/13/11 88/12/11 89/45/11
f  87/13/11 89/45/11 90/53/11
f  82/51/4 81/43/4 91/21/4
f  82/51/4 91/21/4 92/54/4
f  93/55/12 94/56/12 95/57/12
f  93/55/12 95/57/12 96/58/12
f  92/54/4 91/21/4 97/59/4
f  92/54/4 97/59/4 98/39/4
f  36/12/5 35/24/5 99/60/5
f  36/12/5 99/60/5 100/43/5
f  101/47/13 102/2/13 103/61/13
f  101/47/13 103/61/13 104/48/13
f  100/43/5 99/60/5 105/62/5
f  100/43/5 105/62/5 106/21/5
f  107/63/7 108/35/7 109/64/7
f  107/63/7 109/64/7 110/65/7
f  106/21/5 105/62/5 111/39/5
f  106/21/5 111/39/5 112/59/5
f  113/59/7 63/39/7 66/42/7
f  113/59/7 66/42/7 114/66/7
f  115/67/14 116/68/14 117/69/14
f  115/67/14 117/69/14 118/70/14
f  119/71/15 120/72/15 121/73/15
f  119/71/15 121/73/15 122/74/15
f  123/2/16 124/1/16 125/75/16
f  123/2/16 125/75/16 126/61/16
f  127/13/17 128/76/17 129/77/17
f  127/13/17 129/77/17 130/78/17
f  131/72/18 132/71/18 133/74/18
f  131/72/18 133/74/18 134/73/18
f  135/79/19 136/68/19 137/80/19
f  135/79/19 137/80/19 138/81/19
f  139/82/20 140/13/20 141/83/20
f  139/82/20 141/83/20 142/84/20
f  143/85/7 144/15/7 145/86/7
f  143/85/7 145/86/7 146/87/7
f  147/21/21 148/59/21 149/88/21
f  147/21/21 149/88/21 150/52/21
f  151/68/22 152/79/22 153/81/22
f  151/68/22 153/81/22 154/80/22
f  155/34/7 143/85/7 146/87/7
f  155/34/7 146/87/7 156/89/7
f  144/15/7 157/13/7 158/90/7
f  144/15/7 158/90/7 145/86/7
f  159/91/5 160/92/5 161/93/5
f  159/91/5 161/93/5 162/94/5
f  163/95/23 164/96/23 165/91/23
f  163/95/23 165/91/23 166/97/23
f  167/6/24 168/98/24 169/15/24
f  167/6/24 169/15/24 170/9/24
f  171/99/25 172/100/25 173/15/25
f  171/99/25 173/15/25 174/9/25
f  175/96/26 176/95/26 177/101/26
f  175/96/26 177/101/26 178/91/26
f  179/102/4 180/91/4 181/94/4
f  179/102/4 181/94/4 182/28/4
f  183/103/27 184/39/27 185/40/27
f  183/103/27 185/40/27 186/94/27
f  187/103/28 188/21/28 189/59/28
f  187/103/28 189/59/28 190/39/28
f  191/104/4 192/96/4 193/91/4
f  191/104/4 193/91/4 194/102/4
f  195/32/4 196/105/4 197/91/4
f  195/32/4 197/91/4 198/102/4
f  198/102/4 197/91/4 199/94/4
f  198/102/4 199/94/4 200/28/4
f  201/96/5 202/106/5 203/92/5
f  201/96/5 203/92/5 204/91/5
f  205/96/5 206/106/5 207/92/5
f  205/96/5 207/92/5 208/91/5
f  208/91/5 207/92/5 209/93/5
f  208/91/5 209/93/5 210/94/5
f  211/17/23 212/96/23 213/91/23
f  211/17/23 213/91/23 214/51/23
f  214/51/23 213/91/23 215/94/23
f  214/51/23 215/94/23 216/54/23
f  217/107/23 218/91/23 219/94/23
f  217/107/23 219/94/23 220/103/23
f  221/105/26 222/24/26 223/60/26
f  221/105/26 223/60/26 224/91/26
f  224/91/26 223/60/26 225/62/26
f  224/91/26 225/62/26 226/94/26
f  227/91/26 228/108/26 229/103/26
f  227/91/26 229/103/26 230/94/26
f  231/15/28 232/9/28 233/36/28
f  231/15/28 233/36/28 234/95/28
f  234/95/28 233/36/28 235/7/28
f  234/95/28 235/7/28 236/109/28
f  236/109/28 235/7/28 188/21/28
f  236/109/28 188/21/28 187/103/28
f  237/15/27 238/95/27 239/96/27
f  237/15/27 239/96/27 240/85/27
f  238/95/27 241/109/27 242/91/27
f  238/95/27 242/91/27 239/96/27
f  241/109/27 183/103/27 186/94/27
f  241/109/27 186/94/27 242/91/27
f  243/23/25 244/110/25 245/111/25
f  243/23/25 245/111/25 246/112/25
f  246/112/25 245/111/25 247/113/25
f  246/112/25 247/113/25 248/114/25
f  248/114/25 247/113/25 172/100/25
f  248/114/25 172/100/25 171/99/25
f  249/43/24 250/115/24 168/98/24
f  249/43/24 168/98/24 167/6/24
f  251/21/24 252/116/24 250/115/24
f  251/21/24 250/115/24 249/43/24
f  253/59/24 254/39/24 252/116/24
f  253/59/24 252/116/24 251/21/24
f  255/117/4 256/4/4 257/40/4
f  255/117/4 257/40/4 258/94/4
f  259/118/4 255/117/4 258/94/4
f  259/118/4 258/94/4 260/91/4
f  261/119/4 259/118/4 260/91/4
f  261/119/4 260/91/4 262/96/4
f  263/10/4 261/119/4 262/96/4
f  263/10/4 262/96/4 264/85/4
f  258/94/4 257/40/4 265/120/4
f  258/94/4 265/120/4 266/121/4
f  260/91/4 258/94/4 266/121/4
f  260/91/4 266/121/4 267/122/4
f  262/96/4 260/91/4 267/122/4
f  262/96/4 267/122/4 268/123/4
f  264/85/4 262/96/4 268/123/4
f  264/85/4 268/123/4 269/124/4
f  270/21/5 271/125/5 272/126/5
f  270/21/5 272/126/5 273/59/5
f  274/2/5 275/127/5 276/128/5
f  274/2/5 276/128/5 277/1/5
f  278/129/5 279/130/5 280/131/5
f  278/129/5 280/131/5 281/16/5
f  282/36/5 283/132/5 284/133/5
f  282/36/5 284/133/5 285/7/5
f  285/7/5 284/133/5 286/134/5
f  285/7/5 286/134/5 287/135/5
f  288/13/5 289/136/5 290/137/5
f  288/13/5 290/137/5 291/16/5
f  291/16/5 290/137/5 292/138/5
f  291/16/5 292/138/5 293/43/5
f  293/43/5 292/138/5 271/125/5
f  293/43/5 271/125/5 270/21/5

