# generated by convert.py (per-primitive gltf_to_obj)
v 0.000000 -2.300000 -0.454290
v 0.000000 1.000000 -0.454290
v 0.601323 1.000000 -0.372154
v 0.601323 -2.000000 -0.372154
v 0.601323 -2.000000 -0.372154
v 0.601323 1.000000 -0.372154
v 0.601323 1.000000 0.372154
v 0.601323 -2.000000 0.372154
v 0.000000 -2.300000 -0.454290
v 0.601323 -2.000000 -0.372154
v 0.601323 -2.000000 0.372154
v 0.000000 -2.300000 0.454290
v 0.722500 1.500000 0.560000
v 0.601323 1.000000 0.372154
v 2.722500 1.000000 0.280000
v 2.722500 1.500000 0.280000
v 0.601323 -2.000000 0.372154
v 0.601323 1.000000 0.372154
v 0.000000 1.000000 0.454290
v 0.000000 -2.300000 0.454290
v 0.000000 1.580875 0.459627
v 0.760818 1.580875 0.341836
v 0.760818 15.352898 0.157297
v 0.000000 17.020441 0.157297
v 0.601323 1.000000 -0.372154
v 0.000000 1.000000 -0.454290
v 0.000000 1.500000 -0.683594
v 0.722500 1.500000 -0.560000
v 0.000000 1.000000 0.454290
v 0.601323 1.000000 0.372154
v 0.722500 1.500000 0.560000
v 0.000000 1.500000 0.683594
v 2.722500 1.000000 0.280000
v 2.722500 1.000000 -0.280000
v 2.722500 1.500000 -0.280000
v 2.722500 1.500000 0.280000
v 0.760818 1.580875 0.341836
v 1.360592 1.580875 0.087993
v 0.830844 14.280874 0.157297
v 0.760818 15.352898 0.157297
v 0.601323 1.000000 -0.372154
v 0.722500 1.500000 -0.560000
v 2.722500 1.500000 -0.280000
v 2.722500 1.000000 -0.280000
v 0.601323 1.000000 0.372154
v 0.601323 1.000000 -0.372154
v 2.722500 1.000000 -0.280000
v 2.722500 1.000000 0.280000
v 0.000000 1.580875 -0.459627
v 0.760818 1.580875 -0.341836
v 0.722500 1.500000 -0.560000
v 0.000000 1.500000 -0.683594
v 0.760818 1.580875 0.341836
v 0.000000 1.580875 0.459627
v 0.000000 1.500000 0.683594
v 0.722500 1.500000 0.560000
v 1.360592 1.580875 -0.087993
v 1.360592 1.580875 0.087993
v 2.722500 1.500000 0.280000
v 2.722500 1.500000 -0.280000
v 1.360592 1.580875 0.087993
v 0.760818 1.580875 0.341836
v 0.722500 1.500000 0.560000
v 2.722500 1.500000 0.280000
v 0.760818 1.580875 -0.341836
v 1.360592 1.580875 -0.087993
v 2.722500 1.500000 -0.280000
v 0.722500 1.500000 -0.560000
v 0.760818 15.352898 -0.157297
v 0.000000 17.020441 -0.157297
v 0.000000 17.020441 0.157297
v 0.760818 15.352898 0.157297
v 0.760818 15.352898 -0.157297
v 0.760818 15.352898 0.157297
v 0.830844 14.280874 0.157297
v 0.830844 14.280874 -0.157297
v 1.360592 1.580875 -0.087993
v 0.760818 1.580875 -0.341836
v 0.760818 15.352898 -0.157297
v 0.830844 14.280874 -0.157297
v 1.360592 1.580875 0.087993
v 1.360592 1.580875 -0.087993
v 0.830844 14.280874 -0.157297
v 0.830844 14.280874 0.157297
v 0.760818 1.580875 -0.341836
v 0.000000 1.580875 -0.459627
v 0.000000 17.020441 -0.157297
v 0.760818 15.352898 -0.157297
v 0.000000 -2.300000 -0.454290
v -0.601323 -2.000000 -0.372154
v -0.601323 1.000000 -0.372154
v 0.000000 1.000000 -0.454290
v -0.601323 -2.000000 -0.372154
v -0.601323 -2.000000 0.372154
v -0.601323 1.000000 0.372154
v -0.601323 1.000000 -0.372154
v 0.000000 -2.300000 -0.454290
v 0.000000 -2.300000 0.454290
v -0.601323 -2.000000 0.372154
v -0.601323 -2.000000 -0.372154
v -0.722500 1.500000 0.560000
v -2.722500 1.500000 0.280000
v -2.722500 1.000000 0.280000
v -0.601323 1.000000 0.372154
v -0.601323 -2.000000 0.372154
v 0.000000 -2.300000 0.454290
v 0.000000 1.000000 0.454290
v -0.601323 1.000000 0.372154
v 0.000000 1.580875 0.459627
v 0.000000 17.020441 0.157297
v -0.760818 15.352898 0.157297
v -0.760818 1.580875 0.341836
v -0.601323 1.000000 -0.372154
v -0.722500 1.500000 -0.560000
v 0.000000 1.500000 -0.683594
v 0.000000 1.000000 -0.454290
v 0.000000 1.000000 0.454290
v 0.000000 1.500000 0.683594
v -0.722500 1.500000 0.560000
v -0.601323 1.000000 0.372154
v -2.722500 1.000000 0.280000
v -2.722500 1.500000 0.280000
v -2.722500 1.500000 -0.280000
v -2.722500 1.000000 -0.280000
v -0.760818 1.580875 0.341836
v -0.760818 15.352898 0.157297
v -0.830844 14.280874 0.157297
v -1.360592 1.580875 0.087993
v -0.601323 1.000000 -0.372154
v -2.722500 1.000000 -0.280000
v -2.722500 1.500000 -0.280000
v -0.722500 1.500000 -0.560000
v -0.601323 1.000000 0.372154
v -2.722500 1.000000 0.280000
v -2.722500 1.000000 -0.280000
v -0.601323 1.000000 -0.372154
v 0.000000 1.580875 -0.459627
v 0.000000 1.500000 -0.683594
v -0.722500 1.500000 -0.560000
v -0.760818 1.580875 -0.341836
v -0.760818 1.580875 0.341836
v -0.722500 1.500000 0.560000
v 0.000000 1.500000 0.683594
v 0.000000 1.580875 0.459627
v -1.360592 1.580875 -0.087993
v -2.722500 1.500000 -0.280000
v -2.722500 1.500000 0.280000
v -1.360592 1.580875 0.087993
v -1.360592 1.580875 0.087993
v -2.722500 1.500000 0.280000
v -0.722500 1.500000 0.560000
v -0.760818 1.580875 0.341836
v -0.760818 1.580875 -0.341836
v -0.722500 1.500000 -0.560000
v -2.722500 1.500000 -0.280000
v -1.360592 1.580875 -0.087993
v -0.760818 15.352898 -0.157297
v -0.760818 15.352898 0.157297
v 0.000000 17.020441 0.157297
v 0.000000 17.020441 -0.157297
v -0.760818 15.352898 -0.157297
v -0.830844 14.280874 -0.157297
v -0.830844 14.280874 0.157297
v -0.760818 15.352898 0.157297
v -1.360592 1.580875 -0.087993
v -0.830844 14.280874 -0.157297
v -0.760818 15.352898 -0.157297
v -0.760818 1.580875 -0.341836
v -1.360592 1.580875 0.087993
v -0.830844 14.280874 0.157297
v -0.830844 14.280874 -0.157297
v -1.360592 1.580875 -0.087993
v -0.760818 1.580875 -0.341836
v -0.760818 15.352898 -0.157297
v 0.000000 17.020441 -0.157297
v 0.000000 1.580875 -0.459627
vt 0.972241 0.014543
vt 0.972241 0.297957
vt 0.914865 0.297957
vt 0.914865 0.040308
vt 0.870608 0.300142
vt 0.870608 0.020170
vt 0.940070 0.020170
vt 0.940070 0.300142
vt 0.964505 0.302402
vt 0.720472 0.302402
vt 0.720472 0.002285
vt 0.964505 0.002285
vt 0.063157 0.254179
vt 0.027683 0.258580
vt 0.030180 0.168174
vt 0.063157 0.168174
vt 0.998346 0.000554
vt 0.998943 0.308739
vt 0.700740 0.308711
vt 0.700083 0.000554
vt 0.375383 0.992253
vt 0.323109 0.992073
vt 0.324095 0.369910
vt 0.375383 0.295196
vt 0.027683 0.053920
vt 0.028303 0.028077
vt 0.064552 0.027117
vt 0.063157 0.058321
vt 0.028303 0.284423
vt 0.027683 0.258580
vt 0.063157 0.254179
vt 0.064552 0.285383
vt 0.030180 0.168174
vt 0.030180 0.144326
vt 0.063157 0.144326
vt 0.063157 0.168174
vt 0.323109 0.867408
vt 0.280036 0.867831
vt 0.319166 0.460398
vt 0.324095 0.426042
vt 0.027683 0.053920
vt 0.063157 0.058321
vt 0.063157 0.144326
vt 0.030180 0.144326
vt 1.000000 0.309012
vt 0.898909 0.309012
vt 0.911425 0.175695
vt 0.987484 0.175695
vt 0.195277 0.218664
vt 0.179278 0.169645
vt 0.208909 0.171825
vt 0.225695 0.218375
vt 0.086423 0.169645
vt 0.070424 0.218664
vt 0.040005 0.218375
vt 0.056792 0.171825
vt 0.144802 0.131003
vt 0.120899 0.131003
vt 0.094821 0.042969
vt 0.170880 0.042969
vt 0.120899 0.131003
vt 0.086423 0.169645
vt 0.056792 0.171825
vt 0.094821 0.042969
vt 0.179278 0.169645
vt 0.144802 0.131003
vt 0.170880 0.042969
vt 0.208909 0.171825
vt 0.583599 0.816977
vt 0.583599 0.873039
vt 0.562235 0.873039
vt 0.562235 0.816977
vt 0.583599 0.816977
vt 0.562235 0.816977
vt 0.562235 0.782342
vt 0.583599 0.782342
vt 0.184690 0.373039
vt 0.227763 0.373463
vt 0.228748 0.814829
vt 0.223820 0.780473
vt 0.566941 0.305867
vt 0.578892 0.305867
vt 0.583599 0.997952
vt 0.562235 0.997952
vt 0.227763 0.312384
vt 0.280036 0.312209
vt 0.280036 0.991457
vt 0.228748 0.918652
vt 0.972241 0.014543
vt 0.914865 0.040308
vt 0.914865 0.297957
vt 0.972241 0.297957
vt 0.870608 0.300142
vt 0.940070 0.300142
vt 0.940070 0.020170
vt 0.870608 0.020170
vt 0.964505 0.302402
vt 0.964505 0.002285
vt 0.720472 0.002285
vt 0.720472 0.302402
vt 0.063157 0.254179
vt 0.063157 0.168174
vt 0.030180 0.168174
vt 0.027683 0.258580
vt 0.998346 0.000554
vt 0.700083 0.000554
vt 0.700740 0.308711
vt 0.998943 0.308739
vt 0.375383 0.992253
vt 0.375383 0.295196
vt 0.324095 0.369910
vt 0.323109 0.992073
vt 0.027683 0.053920
vt 0.063157 0.058321
vt 0.064552 0.027117
vt 0.028303 0.028077
vt 0.028303 0.284423
vt 0.064552 0.285383
vt 0.063157 0.254179
vt 0.027683 0.258580
vt 0.030180 0.168174
vt 0.063157 0.168174
vt 0.063157 0.144326
vt 0.030180 0.144326
vt 0.323109 0.867408
vt 0.324095 0.426042
vt 0.319166 0.460398
vt 0.280036 0.867831
vt 0.027683 0.053920
vt 0.030180 0.144326
vt 0.063157 0.144326
vt 0.063157 0.058321
vt 1.000000 0.309012
vt 0.987484 0.175695
vt 0.911425 0.175695
vt 0.898909 0.309012
vt 0.195277 0.218664
vt 0.225695 0.218375
vt 0.208909 0.171825
vt 0.179278 0.169645
vt 0.086423 0.169645
vt 0.056792 0.171825
vt 0.040005 0.218375
vt 0.070424 0.218664
vt 0.144802 0.131003
vt 0.170880 0.042969
vt 0.094821 0.042969
vt 0.120899 0.131003
vt 0.120899 0.131003
vt 0.094821 0.042969
vt 0.056792 0.171825
vt 0.086423 0.169645
vt 0.179278 0.169645
vt 0.208909 0.171825
vt 0.170880 0.042969
vt 0.144802 0.131003
vt 0.583599 0.816977
vt 0.562235 0.816977
vt 0.562235 0.873039
vt 0.583599 0.873039
vt 0.583599 0.816977
vt 0.583599 0.782342
vt 0.562235 0.782342
vt 0.562235 0.816977
vt 0.184690 0.373039
vt 0.223820 0.780473
vt 0.228748 0.814829
vt 0.227763 0.373463
vt 0.566941 0.305867
vt 0.562235 0.997952
vt 0.583599 0.997952
vt 0.578892 0.305867
vt 0.227763 0.312384
vt 0.228748 0.918652
vt 0.280036 0.991457
vt 0.280036 0.312209
vn 0.135335 0.000000 -0.990800
vn 0.135335 0.000000 -0.990800
vn 0.135335 0.000000 -0.990800
vn 0.135335 0.000000 -0.990800
vn 1.000000 0.000000 -0.000000
vn 1.000000 0.000000 -0.000000
vn 1.000000 0.000000 -0.000000
vn 1.000000 0.000000 -0.000000
vn 0.446426 -0.894820 -0.000000
vn 0.446426 -0.894820 -0.000000
vn 0.446426 -0.894820 -0.000000
vn 0.446426 -0.894820 -0.000000
vn 0.088224 -0.194213 0.976984
vn 0.088224 -0.194213 0.976984
vn 0.088224 -0.194213 0.976984
vn 0.088224 -0.194213 0.976984
vn 0.135335 0.000000 0.990800
vn 0.135335 0.000000 0.990800
vn 0.135335 0.000000 0.990800
vn 0.135335 0.000000 0.990800
vn 0.095228 0.016589 0.995317
vn 0.095228 0.016589 0.995317
vn 0.095228 0.016589 0.995317
vn 0.095228 0.016589 0.995317
vn 0.141032 -0.395656 -0.907506
vn 0.141032 -0.395656 -0.907506
vn 0.141032 -0.395656 -0.907506
vn 0.141032 -0.395656 -0.907506
vn 0.141032 -0.395656 0.907506
vn 0.141032 -0.395656 0.907506
vn 0.141032 -0.395656 0.907506
vn 0.141032 -0.395656 0.907506
vn 1.000000 0.000000 -0.000000
vn 1.000000 0.000000 -0.000000
vn 1.000000 0.000000 -0.000000
vn 1.000000 0.000000 -0.000000
vn 0.370342 0.011454 0.928825
vn 0.370342 0.011454 0.928825
vn 0.370342 0.011454 0.928825
vn 0.370342 0.011454 0.928825
vn 0.088224 -0.194213 -0.976984
vn 0.088224 -0.194213 -0.976984
vn 0.088224 -0.194213 -0.976984
vn 0.088224 -0.194213 -0.976984
vn 0.000000 -1.000000 -0.000000
vn 0.000000 -1.000000 -0.000000
vn 0.000000 -1.000000 -0.000000
vn 0.000000 -1.000000 -0.000000
vn 0.056524 0.936034 -0.347339
vn 0.056524 0.936034 -0.347339
vn 0.056524 0.936034 -0.347339
vn 0.056524 0.936034 -0.347339
vn 0.056524 0.936034 0.347339
vn 0.056524 0.936034 0.347339
vn 0.056524 0.936034 0.347339
vn 0.056524 0.936034 0.347339
vn 0.059279 0.998241 -0.000000
vn 0.059279 0.998241 -0.000000
vn 0.059279 0.998241 -0.000000
vn 0.059279 0.998241 -0.000000
vn 0.047336 0.971915 0.230523
vn 0.047336 0.971915 0.230523
vn 0.047336 0.971915 0.230523
vn 0.047336 0.971915 0.230523
vn 0.047336 0.971915 -0.230523
vn 0.047336 0.971915 -0.230523
vn 0.047336 0.971915 -0.230523
vn 0.047336 0.971915 -0.230523
vn 0.909781 0.415089 -0.000000
vn 0.909781 0.415089 -0.000000
vn 0.909781 0.415089 -0.000000
vn 0.909781 0.415089 -0.000000
vn 0.997873 0.065182 -0.000000
vn 0.997873 0.065182 -0.000000
vn 0.997873 0.065182 -0.000000
vn 0.997873 0.065182 -0.000000
vn 0.370342 0.011454 -0.928825
vn 0.370342 0.011454 -0.928825
vn 0.370342 0.011454 -0.928825
vn 0.370342 0.011454 -0.928825
vn 0.999131 0.041676 -0.000000
vn 0.999131 0.041676 -0.000000
vn 0.999131 0.041676 -0.000000
vn 0.999131 0.041676 -0.000000
vn 0.095228 0.016589 -0.995317
vn 0.095228 0.016589 -0.995317
vn 0.095228 0.016589 -0.995317
vn 0.095228 0.016589 -0.995317
vn -0.135335 0.000000 -0.990800
vn -0.135335 0.000000 -0.990800
vn -0.135335 0.000000 -0.990800
vn -0.135335 0.000000 -0.990800
vn -1.000000 0.000000 -0.000000
vn -1.000000 0.000000 -0.000000
vn -1.000000 0.000000 -0.000000
vn -1.000000 0.000000 -0.000000
vn -0.446426 -0.894820 -0.000000
vn -0.446426 -0.894820 -0.000000
vn -0.446426 -0.894820 -0.000000
vn -0.446426 -0.894820 -0.000000
vn -0.088224 -0.194213 0.976984
vn -0.088224 -0.194213 0.976984
vn -0.088224 -0.194213 0.976984
vn -0.088224 -0.194213 0.976984
vn -0.135335 0.000000 0.990800
vn -0.135335 0.000000 0.990800
vn -0.135335 0.000000 0.990800
vn -0.135335 0.000000 0.990800
vn -0.095228 0.016589 0.995317
vn -0.095228 0.016589 0.995317
vn -0.095228 0.016589 0.995317
vn -0.095228 0.016589 0.995317
vn -0.141032 -0.395656 -0.907506
vn -0.141032 -0.395656 -0.907506
vn -0.141032 -0.395656 -0.907506
vn -0.141032 -0.395656 -0.907506
vn -0.141032 -0.395656 0.907505
vn -0.141032 -0.395656 0.907505
vn -0.141032 -0.395656 0.907505
vn -0.141032 -0.395656 0.907505
vn -1.000000 0.000000 -0.000000
vn -1.000000 0.000000 -0.000000
vn -1.000000 0.000000 -0.000000
vn -1.000000 0.000000 -0.000000
vn -0.370342 0.011454 0.928825
vn -0.370342 0.011454 0.928825
vn -0.370342 0.011454 0.928825
vn -0.370342 0.011454 0.928825
vn -0.088224 -0.194213 -0.976984
vn -0.088224 -0.194213 -0.976984
vn -0.088224 -0.194213 -0.976984
vn -0.088224 -0.194213 -0.976984
vn 0.000000 -1.000000 -0.000000
vn 0.000000 -1.000000 -0.000000
vn 0.000000 -1.000000 -0.000000
vn 0.000000 -1.000000 -0.000000
vn -0.056524 0.936034 -0.347339
vn -0.056524 0.936034 -0.347339
vn -0.056524 0.936034 -0.347339
vn -0.056524 0.936034 -0.347339
vn -0.056524 0.936034 0.347339
vn -0.056524 0.936034 0.347339
vn -0.056524 0.936034 0.347339
vn -0.056524 0.936034 0.347339
vn -0.059279 0.998241 -0.000000
vn -0.059279 0.998241 -0.000000
vn -0.059279 0.998241 -0.000000
vn -0.059279 0.998241 -0.000000
vn -0.047336 0.971915 0.230523
vn -0.047336 0.971915 0.230523
vn -0.047336 0.971915 0.230523
vn -0.047336 0.971915 0.230523
vn -0.047336 0.971915 -0.230523
vn -0.047336 0.971915 -0.230523
vn -0.047336 0.971915 -0.230523
vn -0.047336 0.971915 -0.230523
vn -0.909781 0.415089 -0.000000
vn -0.909781 0.415089 -0.000000
vn -0.909781 0.415089 -0.000000
vn -0.909781 0.415089 -0.000000
vn -0.997873 0.065182 -0.000000
vn -0.997873 0.065182 -0.000000
vn -0.997873 0.065182 -0.000000
vn -0.997873 0.065182 -0.000000
vn -0.370342 0.011454 -0.928825
vn -0.370342 0.011454 -0.928825
vn -0.370342 0.011454 -0.928825
vn -0.370342 0.011454 -0.928825
vn -0.999131 0.041676 -0.000000
vn -0.999131 0.041676 -0.000000
vn -0.999131 0.041676 -0.000000
vn -0.999131 0.041676 -0.000000
vn -0.095228 0.016589 -0.995317
vn -0.095228 0.016589 -0.995317
vn -0.095228 0.016589 -0.995317
vn -0.095228 0.016589 -0.995317
f 1/1/1 2/2/2 3/3/3
f 1/1/1 3/3/3 4/4/4
f 5/5/5 6/6/6 7/7/7
f 5/5/5 7/7/7 8/8/8
f 9/9/9 10/10/10 11/11/11
f 9/9/9 11/11/11 12/12/12
f 13/13/13 14/14/14 15/15/15
f 13/13/13 15/15/15 16/16/16
f 17/17/17 18/18/18 19/19/19
f 17/17/17 19/19/19 20/20/20
f 21/21/21 22/22/22 23/23/23
f 21/21/21 23/23/23 24/24/24
f 25/25/25 26/26/26 27/27/27
f 25/25/25 27/27/27 28/28/28
f 29/29/29 30/30/30 31/31/31
f 29/29/29 31/31/31 32/32/32
f 33/33/33 34/34/34 35/35/35
f 33/33/33 35/35/35 36/36/36
f 37/37/37 38/38/38 39/39/39
f 37/37/37 39/39/39 40/40/40
f 41/41/41 42/42/42 43/43/43
f 41/41/41 43/43/43 44/44/44
f 45/45/45 46/46/46 47/47/47
f 45/45/45 47/47/47 48/48/48
f 49/49/49 50/50/50 51/51/51
f 49/49/49 51/51/51 52/52/52
f 53/53/53 54/54/54 55/55/55
f 53/53/53 55/55/55 56/56/56
f 57/57/57 58/58/58 59/59/59
f 57/57/57 59/59/59 60/60/60
f 61/61/61 62/62/62 63/63/63
f 61/61/61 63/63/63 64/64/64
f 65/65/65 66/66/66 67/67/67
f 65/65/65 67/67/67 68/68/68
f 69/69/69 70/70/70 71/71/71
f 69/69/69 71/71/71 72/72/72
f 73/73/73 74/74/74 75/75/75
f 73/73/73 75/75/75 76/76/76
f 77/77/77 78/78/78 79/79/79
f 77/77/77 79/79/79 80/80/80
f 81/81/81 82/82/82 83/83/83
f 81/81/81 83/83/83 84/84/84
f 85/85/85 86/86/86 87/87/87
f 85/85/85 87/87/87 88/88/88
f 89/89/89 90/90/90 91/91/91
f 89/89/89 91/91/91 92/92/92
f 93/93/93 94/94/94 95/95/95
f 93/93/93 95/95/95 96/96/96
f 97/97/97 98/98/98 99/99/99
f 97/97/97 99/99/99 100/100/100
f 101/101/101 102/102/102 103/103/103
f 101/101/101 103/103/103 104/104/104
f 105/105/105 106/106/106 107/107/107
f 105/105/105 107/107/107 108/108/108
f 109/109/109 110/110/110 111/111/111
f 109/109/109 111/111/111 112/112/112
f 113/113/113 114/114/114 115/115/115
f 113/113/113 115/115/115 116/116/116
f 117/117/117 118/118/118 119/119/119
f 117/117/117 119/119/119 120/120/120
f 121/121/121 122/122/122 123/123/123
f 121/121/121 123/123/123 124/124/124
f 125/125/125 126/126/126 127/127/127
f 125/125/125 127/127/127 128/128/128
f 129/129/129 130/130/130 131/131/131
f 129/129/129 131/131/131 132/132/132
f 133/133/133 134/134/134 135/135/135
f 133/133/133 135/135/135 136/136/136
f 137/137/137 138/138/138 139/139/139
f 137/137/137 139/139/139 140/140/140
f 141/141/141 142/142/142 143/143/143
f 141/141/141 143/143/143 144/144/144
f 145/145/145 146/146/146 147/147/147
f 145/145/145 147/147/147 148/148/148
f 149/149/149 150/150/150 151/151/151
f 149/149/149 151/151/151 152/152/152
f 153/153/153 154/154/154 155/155/155
f 153/153/153 155/155/155 156/156/156
f 157/157/157 158/158/158 159/159/159
f 157/157/157 159/159/159 160/160/160
f 161/161/161 162/162/162 163/163/163
f 161/161/161 163/163/163 164/164/164
f 165/165/165 166/166/166 167/167/167
f 165/165/165 167/167/167 168/168/168
f 169/169/169 170/170/170 171/171/171
f 169/169/169 171/171/171 172/172/172
f 173/173/173 174/174/174 175/175/175
f 173/173/173 175/175/175 176/176/176
