# generated by convert.py (per-primitive gltf_to_obj)
v -0.099000 0.000000 0.099000
v -0.099000 0.000000 0.099000
v -0.099000 0.000000 0.099000
v -0.100000 3.097500 0.100000
v -0.100000 3.097500 0.100000
v -0.100000 3.097500 0.100000
v -0.099000 0.000000 -0.099000
v -0.099000 0.000000 -0.099000
v -0.099000 0.000000 -0.099000
v -0.100000 3.097500 -0.100000
v -0.100000 3.097500 -0.100000
v -0.100000 3.097500 -0.100000
v -0.100000 3.097500 -0.100000
v 0.099000 0.000000 0.099000
v 0.099000 0.000000 0.099000
v 0.099000 0.000000 0.099000
v 0.100000 3.097500 0.100000
v 0.100000 3.097500 0.100000
v 0.100000 3.097500 0.100000
v 0.100000 3.097500 0.100000
v 0.099000 0.000000 -0.099000
v 0.099000 0.000000 -0.099000
v 0.099000 0.000000 -0.099000
v 0.100000 3.097500 -0.100000
v 0.100000 3.097500 -0.100000
v 0.100000 3.097500 -0.100000
v 0.100000 3.097500 -0.100000
v 0.100000 3.097500 -0.100000
v -0.100000 2.902500 0.100000
v -0.100000 2.902500 0.100000
v -0.100000 2.902500 0.100000
v -0.100000 2.902500 0.100000
v -0.100000 2.902500 -0.100000
v -0.100000 2.902500 -0.100000
v -0.100000 2.902500 -0.100000
v -0.100000 2.902500 -0.100000
v -0.100000 2.902500 -0.100000
v 0.100000 2.902500 -0.100000
v 0.100000 2.902500 -0.100000
v 0.100000 2.902500 -0.100000
v 0.100000 2.902500 -0.100000
v 0.100000 2.902500 -0.100000
v 0.100000 2.902500 -0.100000
v 0.100000 2.902500 0.100000
v 0.100000 2.902500 0.100000
v 0.100000 2.902500 0.100000
v 0.100000 2.902500 0.100000
v 0.100000 2.902500 0.100000
v 1.000000 2.902500 -0.100000
v 1.000000 2.902500 -0.100000
v 1.000000 2.902500 -0.100000
v 1.000000 3.097500 -0.100000
v 1.000000 3.097500 -0.100000
v 1.000000 3.097500 -0.100000
v 1.000000 3.097500 0.100000
v 1.000000 3.097500 0.100000
v 1.000000 3.097500 0.100000
v 1.000000 2.902500 0.100000
v 1.000000 2.902500 0.100000
v 1.000000 2.902500 0.100000
v -0.100000 3.097500 -1.000000
v -0.100000 3.097500 -1.000000
v -0.100000 3.097500 -1.000000
v 0.100000 3.097500 -1.000000
v 0.100000 3.097500 -1.000000
v 0.100000 3.097500 -1.000000
v -0.100000 2.902500 -1.000000
v -0.100000 2.902500 -1.000000
v -0.100000 2.902500 -1.000000
v 0.100000 2.902500 -1.000000
v 0.100000 2.902500 -1.000000
v 0.100000 2.902500 -1.000000
v -0.068578 1.805885 -0.096242
v -0.068578 1.805885 -0.096242
v -0.068578 1.805885 -0.096242
v -0.068578 1.805885 -0.096242
v -0.100301 0.961319 -0.097574
v -0.100301 0.961319 -0.097574
v -0.100301 0.961319 -0.097574
v -0.100301 0.961319 -0.097574
v 0.130755 1.805885 -0.096242
v 0.130755 1.805885 -0.096242
v 0.130755 1.805885 -0.096242
v 0.130755 1.805885 -0.096242
v 0.098366 0.961319 -0.097574
v 0.098366 0.961319 -0.097574
v 0.098366 0.961319 -0.097574
v 0.098366 0.961319 -0.097574
v 0.130755 1.805885 0.103091
v 0.130755 1.805885 0.103091
v 0.130755 1.805885 0.103091
v 0.130755 1.805885 0.103091
v 0.098366 0.961319 0.101093
v 0.098366 0.961319 0.101093
v 0.098366 0.961319 0.101093
v 0.098366 0.961319 0.101093
v -0.100301 0.961319 0.101093
v -0.100301 0.961319 0.101093
v -0.100301 0.961319 0.101093
v -0.100301 0.961319 0.101093
v -0.068578 1.805885 0.103091
v -0.068578 1.805885 0.103091
v -0.068578 1.805885 0.103091
v -0.068578 1.805885 0.103091
v -0.101560 2.606516 0.110818
v -0.101560 2.606516 0.110818
v -0.101560 2.606516 0.110818
v -0.101560 2.606516 0.110818
v -0.101560 2.606516 -0.108981
v -0.101560 2.606516 -0.108981
v -0.101560 2.606516 -0.108981
v -0.101560 2.606516 -0.108981
v 0.118238 2.606516 -0.108981
v 0.118238 2.606516 -0.108981
v 0.118238 2.606516 -0.108981
v 0.118238 2.606516 -0.108981
v 0.118238 2.606516 0.110818
v 0.118238 2.606516 0.110818
v 0.118238 2.606516 0.110818
v 0.118238 2.606516 0.110818
v -0.097237 2.455970 -0.108464
v -0.097237 2.455970 -0.108464
v -0.097237 2.455970 -0.108464
v -0.097237 2.455970 -0.108464
v 0.122470 2.455970 -0.108464
v 0.122470 2.455970 -0.108464
v 0.122470 2.455970 -0.108464
v 0.122470 2.455970 -0.108464
v 0.122470 2.455970 0.111243
v 0.122470 2.455970 0.111243
v 0.122470 2.455970 0.111243
v 0.122470 2.455970 0.111243
v -0.097237 2.455970 0.111243
v -0.097237 2.455970 0.111243
v -0.097237 2.455970 0.111243
v -0.097237 2.455970 0.111243
v -0.074995 2.456545 0.088545
v -0.074995 2.456545 0.088545
v -0.074995 2.456545 0.088545
v -0.074995 2.456545 0.088545
v -0.078868 2.607105 0.088571
v -0.078868 2.607105 0.088571
v -0.078868 2.607105 0.088571
v -0.078868 2.607105 0.088571
v 0.095953 2.605826 0.088166
v 0.095953 2.605826 0.088166
v 0.095953 2.605826 0.088166
v 0.095953 2.605826 0.088166
v 0.095996 2.605969 -0.086283
v 0.095996 2.605969 -0.086283
v 0.095996 2.605969 -0.086283
v 0.095996 2.605969 -0.086283
v -0.078915 2.607243 -0.086691
v -0.078915 2.607243 -0.086691
v -0.078915 2.607243 -0.086691
v -0.078915 2.607243 -0.086691
v -0.074952 2.456688 -0.085813
v -0.074952 2.456688 -0.085813
v -0.074952 2.456688 -0.085813
v -0.074952 2.456688 -0.085813
v 0.099778 2.455409 -0.086217
v 0.099778 2.455409 -0.086217
v 0.099778 2.455409 -0.086217
v 0.099778 2.455409 -0.086217
v 0.099824 2.455271 0.088953
v 0.099824 2.455271 0.088953
v 0.099824 2.455271 0.088953
v 0.099824 2.455271 0.088953
v -0.099450 1.165949 0.109817
v -0.099450 1.165949 0.109817
v -0.099450 1.165949 0.109817
v -0.099450 1.165949 0.109817
v -0.096499 1.167229 -0.109958
v -0.096499 1.167229 -0.109958
v -0.096499 1.167229 -0.109958
v -0.096499 1.167229 -0.109958
v 0.123049 1.157124 -0.107068
v 0.123049 1.157124 -0.107068
v 0.123049 1.157124 -0.107068
v 0.123049 1.157124 -0.107068
v 0.120097 1.155844 0.112707
v 0.120097 1.155844 0.112707
v 0.120097 1.155844 0.112707
v 0.120097 1.155844 0.112707
v -0.099096 1.016643 -0.110353
v -0.099096 1.016643 -0.110353
v -0.099096 1.016643 -0.110353
v -0.099096 1.016643 -0.110353
v 0.120359 1.006542 -0.107464
v 0.120359 1.006542 -0.107464
v 0.120359 1.006542 -0.107464
v 0.120359 1.006542 -0.107464
v 0.117409 1.005263 0.112219
v 0.117409 1.005263 0.112219
v 0.117409 1.005263 0.112219
v 0.117409 1.005263 0.112219
v -0.102047 1.015364 0.109331
v -0.102047 1.015364 0.109331
v -0.102047 1.015364 0.109331
v -0.102047 1.015364 0.109331
v -0.068338 1.014891 0.075843
v -0.068338 1.014891 0.075843
v -0.068338 1.014891 0.075843
v -0.068338 1.014891 0.075843
v -0.065077 1.165463 0.077013
v -0.065077 1.165463 0.077013
v -0.065077 1.165463 0.077013
v -0.065077 1.165463 0.077013
v 0.087225 1.156542 0.078401
v 0.087225 1.156542 0.078401
v 0.087225 1.156542 0.078401
v 0.087225 1.156542 0.078401
v 0.089341 1.157638 -0.073580
v 0.089341 1.157638 -0.073580
v 0.089341 1.157638 -0.073580
v 0.089341 1.157638 -0.073580
v -0.063079 1.166564 -0.076185
v -0.063079 1.166564 -0.076185
v -0.063079 1.166564 -0.076185
v -0.063079 1.166564 -0.076185
v -0.066224 1.015986 -0.076047
v -0.066224 1.015986 -0.076047
v -0.066224 1.015986 -0.076047
v -0.066224 1.015986 -0.076047
v 0.085987 1.007070 -0.074659
v 0.085987 1.007070 -0.074659
v 0.085987 1.007070 -0.074659
v 0.085987 1.007070 -0.074659
v 0.083990 1.005969 0.078446
v 0.083990 1.005969 0.078446
v 0.083990 1.005969 0.078446
v 0.083990 1.005969 0.078446
vt 0.934738 0.491279
vt 0.750367 0.609826
vt 0.934749 0.491275
vt 0.750358 0.618712
vt 0.750322 0.566110
vt 0.750361 0.618704
vt 0.934764 0.489492
vt 0.750367 0.618780
vt 0.934749 0.479653
vt 0.750322 0.575154
vt 0.961047 0.534918
vt 0.759368 0.618704
vt 0.960748 0.535443
vt 0.934738 0.479655
vt 0.759321 0.609826
vt 0.934851 0.489490
vt 0.759366 0.618712
vt 0.976807 0.617009
vt 0.759366 0.566110
vt 0.976666 0.625788
vt 0.934764 0.477880
vt 0.759321 0.618780
vt 0.934851 0.477882
vt 0.976807 0.617009
vt 0.759366 0.575154
vt 0.973733 0.534918
vt 0.976666 0.616743
vt 0.960731 0.535472
vt 0.750358 0.609894
vt 0.989228 0.491754
vt 0.989218 0.491750
vt 0.750361 0.609887
vt 0.989343 0.491606
vt 0.961047 0.534918
vt 0.989218 0.478207
vt 0.759368 0.609887
vt 0.973115 0.535443
vt 0.976807 0.625713
vt 0.989485 0.480144
vt 0.973733 0.534918
vt 0.976666 0.616743
vt 0.989216 0.477993
vt 0.973089 0.535409
vt 0.759366 0.609894
vt 0.976807 0.625828
vt 0.989228 0.478210
vt 0.976666 0.625788
vt 0.989216 0.491520
vt 0.936637 0.625713
vt 0.935966 0.616743
vt 0.759366 0.609894
vt 0.936637 0.617009
vt 0.935966 0.616743
vt 0.759366 0.618712
vt 0.936107 0.617009
vt 0.935966 0.625788
vt 0.750322 0.618712
vt 0.936107 0.625828
vt 0.935966 0.625788
vt 0.750322 0.609894
vt 0.750322 0.618712
vt 0.961047 0.592007
vt 0.960748 0.592525
vt 0.759366 0.618712
vt 0.973733 0.592007
vt 0.960731 0.592561
vt 0.750322 0.609894
vt 0.961047 0.592007
vt 0.973115 0.592525
vt 0.759366 0.609894
vt 0.973733 0.592007
vt 0.973100 0.592561
vt 0.970387 0.489665
vt 0.914748 0.491606
vt 0.970358 0.479549
vt 0.914631 0.478207
vt 0.990858 0.489492
vt 0.919680 0.489665
vt 0.919657 0.479549
vt 0.990836 0.479653
vt 0.970387 0.477726
vt 0.914748 0.478075
vt 0.970444 0.477728
vt 0.914644 0.477993
vt 0.990858 0.477880
vt 0.919680 0.477726
vt 0.919751 0.477728
vt 0.990927 0.477882
vt 0.914634 0.478210
vt 0.970361 0.479551
vt 0.970444 0.489664
vt 0.914644 0.491520
vt 0.990832 0.479655
vt 0.919653 0.479551
vt 0.919751 0.489664
vt 0.990927 0.489490
vt 0.990832 0.491279
vt 0.919653 0.491503
vt 0.919657 0.491499
vt 0.990836 0.491275
vt 0.914634 0.491754
vt 0.970361 0.491503
vt 0.970358 0.491499
vt 0.914631 0.491750
vt 0.890641 0.508230
vt 0.890641 0.508230
vt 0.890697 0.507951
vt 0.890697 0.507951
vt 0.890845 0.507832
vt 0.890845 0.507832
vt 0.890692 0.496955
vt 0.890692 0.496955
vt 0.890836 0.497430
vt 0.890836 0.497430
vt 0.890836 0.497430
vt 0.890836 0.497430
vt 0.890646 0.497237
vt 0.890646 0.497237
vt 0.890695 0.507762
vt 0.890695 0.507762
vt 0.879203 0.507832
vt 0.879051 0.496955
vt 0.879203 0.507832
vt 0.879051 0.496955
vt 0.879184 0.497324
vt 0.879184 0.497324
vt 0.879184 0.497324
vt 0.879184 0.497324
vt 0.879004 0.497237
vt 0.879056 0.507762
vt 0.879056 0.507762
vt 0.879004 0.497237
vt 0.878999 0.508230
vt 0.879055 0.507951
vt 0.878999 0.508230
vt 0.879055 0.507951
vt 0.878999 0.508230
vt 0.879055 0.507951
vt 0.879055 0.507951
vt 0.878999 0.508230
vt 0.890641 0.508230
vt 0.890641 0.508230
vt 0.890697 0.507951
vt 0.890697 0.507951
vt 0.890646 0.497237
vt 0.890646 0.497237
vt 0.890695 0.507762
vt 0.890695 0.507762
vt 0.890836 0.497430
vt 0.890836 0.497430
vt 0.890836 0.497430
vt 0.890836 0.497430
vt 0.890845 0.507832
vt 0.890845 0.507832
vt 0.890692 0.496955
vt 0.890692 0.496955
vt 0.879203 0.507832
vt 0.879051 0.496955
vt 0.879051 0.496955
vt 0.879203 0.507832
vt 0.879184 0.497324
vt 0.879184 0.497324
vt 0.879184 0.497324
vt 0.879184 0.497324
vt 0.879004 0.497237
vt 0.879056 0.507762
vt 0.879004 0.497237
vt 0.879056 0.507762
vt 0.890697 0.507951
vt 0.890697 0.507951
vt 0.890697 0.507951
vt 0.890697 0.507951
vt 0.890845 0.507832
vt 0.890692 0.496955
vt 0.890845 0.507832
vt 0.890692 0.496955
vt 0.890836 0.497430
vt 0.890836 0.497430
vt 0.890836 0.497430
vt 0.890836 0.497430
vt 0.890695 0.507762
vt 0.890702 0.496957
vt 0.890695 0.507762
vt 0.890702 0.496957
vt 0.879203 0.507832
vt 0.879051 0.496955
vt 0.879203 0.507832
vt 0.879051 0.496955
vt 0.879184 0.497324
vt 0.879184 0.497324
vt 0.879184 0.497324
vt 0.879184 0.497324
vt 0.879056 0.507762
vt 0.879060 0.496957
vt 0.879056 0.507762
vt 0.879060 0.496957
vt 0.879055 0.507951
vt 0.879055 0.507951
vt 0.879055 0.507951
vt 0.879055 0.507951
vt 0.879055 0.507951
vt 0.879055 0.507951
vt 0.879055 0.507951
vt 0.879055 0.507951
vt 0.890697 0.507951
vt 0.890697 0.507951
vt 0.890697 0.507951
vt 0.890697 0.507951
vt 0.890702 0.496957
vt 0.890695 0.507762
vt 0.890702 0.496957
vt 0.890695 0.507762
vt 0.890836 0.497430
vt 0.890836 0.497430
vt 0.890836 0.497430
vt 0.890836 0.497430
vt 0.890692 0.496955
vt 0.890845 0.507832
vt 0.890692 0.496955
vt 0.890845 0.507832
vt 0.879051 0.496955
vt 0.879203 0.507832
vt 0.879051 0.496955
vt 0.879203 0.507832
vt 0.879184 0.497324
vt 0.879184 0.497324
vt 0.879184 0.497324
vt 0.879184 0.497324
vt 0.879060 0.496957
vt 0.879056 0.507762
vt 0.879060 0.496957
vt 0.879056 0.507762
vn 0.000000 -0.002200 0.999998
vn 0.000000 -1.000000 0.000000
vn -0.999999 -0.001400 0.000000
vn 0.000000 0.000000 1.000000
vn 0.000000 1.000000 0.000000
vn -1.000000 0.000000 0.000000
vn 0.000000 0.001500 -0.999999
vn 0.000000 -1.000000 0.000000
vn -0.999999 -0.001400 0.000000
vn 0.000000 1.000000 0.000000
vn 0.000000 1.000000 0.000000
vn -1.000000 0.000000 0.000000
vn -1.000000 0.000000 0.000000
vn 0.000000 -0.002200 0.999998
vn 0.000000 -1.000000 0.000000
vn 1.000000 0.000700 0.000000
vn 0.000000 0.000000 1.000000
vn 0.000000 0.000000 1.000000
vn 0.000000 1.000000 0.000000
vn 0.000000 1.000000 0.000000
vn 0.000000 0.001500 -0.999999
vn 0.000000 -1.000000 0.000000
vn 1.000000 0.000700 0.000000
vn 0.000000 0.000000 -1.000000
vn 0.000000 1.000000 0.000000
vn 0.000000 1.000000 0.000000
vn 0.000000 1.000000 0.000000
vn 1.000000 0.000000 0.000000
vn 0.000000 0.000000 1.000000
vn 0.000000 0.002800 0.999996
vn -0.999591 -0.028600 0.000000
vn -1.000000 0.000000 0.000000
vn 0.000000 -0.003400 -0.999994
vn 0.000000 -1.000000 0.000000
vn -0.999591 -0.028600 0.000000
vn -1.000000 0.000000 0.000000
vn -1.000000 0.000000 0.000000
vn 0.000000 0.000000 -1.000000
vn 0.000000 -0.003400 -0.999994
vn 0.000000 -1.000000 0.000000
vn 0.000000 -1.000000 0.000000
vn 0.999608 0.028000 0.000000
vn 1.000000 0.000000 0.000000
vn 0.000000 0.000000 1.000000
vn 0.000000 0.000000 1.000000
vn 0.000000 0.002800 0.999996
vn 0.000000 -1.000000 0.000000
vn 0.999608 0.028000 0.000000
vn 0.000000 0.000000 -1.000000
vn 0.000000 -1.000000 0.000000
vn 1.000000 0.000000 0.000000
vn 0.000000 0.000000 -1.000000
vn 0.000000 1.000000 0.000000
vn 1.000000 0.000000 0.000000
vn 0.000000 0.000000 1.000000
vn 0.000000 1.000000 0.000000
vn 1.000000 0.000000 0.000000
vn 0.000000 0.000000 1.000000
vn 0.000000 -1.000000 0.000000
vn 1.000000 0.000000 0.000000
vn 0.000000 0.000000 -1.000000
vn 0.000000 1.000000 0.000000
vn -1.000000 0.000000 0.000000
vn 0.000000 0.000000 -1.000000
vn 0.000000 1.000000 0.000000
vn 1.000000 0.000000 0.000000
vn 0.000000 0.000000 -1.000000
vn 0.000000 -1.000000 0.000000
vn -1.000000 0.000000 0.000000
vn 0.000000 0.000000 -1.000000
vn 0.000000 -1.000000 0.000000
vn 1.000000 0.000000 0.000000
vn 0.000000 0.001600 -0.999999
vn 0.000000 -0.003400 -0.999994
vn -0.999297 0.037500 0.000000
vn -0.999591 -0.028600 0.000000
vn 0.000000 0.001500 -0.999999
vn 0.000000 0.001600 -0.999999
vn -0.999297 0.037500 0.000000
vn -0.999999 -0.001400 0.000000
vn 0.000000 0.001600 -0.999999
vn 0.000000 -0.003400 -0.999994
vn 0.999266 -0.038299 0.000000
vn 0.999608 0.028000 0.000000
vn 0.000000 0.001500 -0.999999
vn 0.000000 0.001600 -0.999999
vn 0.999266 -0.038299 0.000000
vn 1.000000 0.000700 0.000000
vn 0.000000 0.002800 0.999996
vn 0.000000 -0.002400 0.999997
vn 0.999266 -0.038299 0.000000
vn 0.999608 0.028000 0.000000
vn 0.000000 -0.002200 0.999998
vn 0.000000 -0.002400 0.999997
vn 0.999266 -0.038299 0.000000
vn 1.000000 0.000700 0.000000
vn 0.000000 -0.002200 0.999998
vn 0.000000 -0.002400 0.999997
vn -0.999297 0.037500 0.000000
vn -0.999999 -0.001400 0.000000
vn 0.000000 0.002800 0.999996
vn 0.000000 -0.002400 0.999997
vn -0.999297 0.037500 0.000000
vn -0.999591 -0.028600 0.000000
vn 0.000000 0.002800 0.999996
vn 0.003200 0.999992 -0.002200
vn -0.028999 0.999579 0.000400
vn -0.999588 -0.028700 0.000000
vn 0.000000 -0.003400 -0.999994
vn 0.003200 0.999987 -0.004000
vn -0.028999 0.999579 0.000400
vn -0.999588 -0.028700 0.000000
vn 0.000000 -0.003400 -0.999994
vn 0.003200 0.999987 -0.004000
vn 0.999605 0.028100 0.000000
vn -0.027800 0.999613 0.000400
vn 0.000000 0.002800 0.999996
vn 0.003200 0.999992 -0.002200
vn 0.999605 0.028100 0.000000
vn -0.027800 0.999613 0.000400
vn 0.000000 -0.003400 -0.999994
vn 0.028999 -0.999579 -0.000400
vn -0.003200 -0.999989 0.003500
vn -0.999588 -0.028700 0.000000
vn 0.000000 -0.003400 -0.999994
vn 0.027800 -0.999613 -0.000400
vn 0.999605 0.028100 0.000000
vn -0.003200 -0.999989 0.003500
vn 0.000000 0.002800 0.999996
vn 0.027800 -0.999613 -0.000400
vn 0.999605 0.028100 0.000000
vn -0.003200 -0.999991 0.002800
vn 0.000000 0.002800 0.999996
vn 0.028999 -0.999579 -0.000400
vn -0.003200 -0.999991 0.002800
vn -0.999588 -0.028700 0.000000
vn 0.000000 -0.002500 -0.999997
vn 0.028999 -0.999579 -0.000400
vn 0.999662 0.025999 0.000000
vn -0.003200 -0.999991 0.002800
vn 0.000000 -0.002500 -0.999997
vn 0.003200 0.999992 -0.002200
vn 0.999662 0.025999 0.000000
vn -0.028999 0.999579 0.000400
vn 0.000000 -0.002500 -0.999997
vn 0.003200 0.999992 -0.002200
vn -0.027800 0.999613 0.000400
vn -0.999677 -0.025399 0.000000
vn 0.000000 0.003100 0.999995
vn 0.003200 0.999987 -0.004000
vn -0.027800 0.999613 0.000400
vn -0.999677 -0.025399 0.000000
vn 0.000000 0.003100 0.999995
vn 0.003200 0.999987 -0.004000
vn 0.999662 0.025999 0.000000
vn -0.028999 0.999579 0.000400
vn 0.000000 0.003100 0.999995
vn 0.028999 -0.999579 -0.000400
vn 0.999662 0.025999 0.000000
vn -0.003200 -0.999989 0.003500
vn 0.000000 0.003100 0.999995
vn 0.027800 -0.999613 -0.000400
vn -0.003200 -0.999989 0.003500
vn -0.999677 -0.025399 0.000000
vn 0.000000 -0.002500 -0.999997
vn 0.027800 -0.999613 -0.000400
vn -0.003200 -0.999991 0.002800
vn -0.999677 -0.025399 0.000000
vn 0.016901 0.999835 0.006600
vn 0.050999 0.998689 0.004300
vn -0.013300 -0.003000 0.999907
vn -0.999762 0.017299 -0.013299
vn 0.013300 0.002400 -0.999909
vn 0.016901 0.999835 0.006600
vn 0.051100 0.998690 0.002500
vn -0.999762 0.017299 -0.013299
vn 0.013300 0.002400 -0.999909
vn 0.018100 0.999814 0.006600
vn 0.051100 0.998690 0.002500
vn 0.999751 -0.017899 0.013299
vn 0.018100 0.999814 0.006600
vn 0.050999 0.998689 0.004300
vn 0.999751 -0.017899 0.013299
vn -0.013300 -0.003000 0.999907
vn 0.013300 0.002400 -0.999909
vn -0.016901 -0.999835 -0.006600
vn -0.051099 -0.998689 -0.003100
vn -0.999762 0.017299 -0.013299
vn 0.013300 0.002400 -0.999909
vn 0.999751 -0.017899 0.013299
vn -0.018100 -0.999814 -0.006600
vn -0.051099 -0.998689 -0.003100
vn 0.999751 -0.017899 0.013299
vn -0.013300 -0.003000 0.999907
vn -0.018100 -0.999814 -0.006600
vn -0.051000 -0.998692 -0.003700
vn -0.013300 -0.003000 0.999907
vn -0.016901 -0.999835 -0.006600
vn -0.051000 -0.998692 -0.003700
vn -0.999762 0.017299 -0.013299
vn 0.013300 0.003400 -0.999906
vn 0.999685 -0.021300 0.013300
vn -0.016901 -0.999835 -0.006600
vn -0.051000 -0.998692 -0.003700
vn 0.013300 0.003400 -0.999906
vn 0.016901 0.999835 0.006600
vn 0.050999 0.998689 0.004300
vn 0.999685 -0.021300 0.013300
vn 0.013300 0.003400 -0.999906
vn 0.018100 0.999814 0.006600
vn 0.050999 0.998689 0.004300
vn -0.999672 0.021899 -0.013300
vn 0.018100 0.999814 0.006600
vn 0.051100 0.998690 0.002500
vn -0.013300 -0.002800 0.999908
vn -0.999672 0.021899 -0.013300
vn 0.016901 0.999835 0.006600
vn 0.051100 0.998690 0.002500
vn 0.999685 -0.021300 0.013300
vn -0.013300 -0.002800 0.999908
vn 0.999685 -0.021300 0.013300
vn -0.013300 -0.002800 0.999908
vn -0.016901 -0.999835 -0.006600
vn -0.051099 -0.998689 -0.003100
vn -0.013300 -0.002800 0.999908
vn -0.018100 -0.999814 -0.006600
vn -0.051099 -0.998689 -0.003100
vn -0.999672 0.021899 -0.013300
vn 0.013300 0.003400 -0.999906
vn -0.018100 -0.999814 -0.006600
vn -0.051000 -0.998692 -0.003700
vn -0.999672 0.021899 -0.013300
f 32/32/32 6/6/6 12/12/12
f 32/32/32 12/12/12 36/36/36
f 40/40/40 34/34/34 68/68/68
f 40/40/40 68/68/68 71/71/71
f 44/44/44 17/17/17 4/4/4
f 44/44/44 4/4/4 29/29/29
f 8/8/8 22/22/22 15/15/15
f 8/8/8 15/15/15 2/2/2
f 25/25/25 10/10/10 5/5/5
f 25/25/25 5/5/5 19/19/19
f 89/89/89 46/46/46 30/30/30
f 89/89/89 30/30/30 101/101/101
f 84/84/84 42/42/42 48/48/48
f 84/84/84 48/48/48 92/92/92
f 74/74/74 33/33/33 39/39/39
f 74/74/74 39/39/39 82/82/82
f 104/104/104 31/31/31 35/35/35
f 104/104/104 35/35/35 76/76/76
f 51/51/51 54/54/54 57/57/57
f 51/51/51 57/57/57 60/60/60
f 24/24/24 52/52/52 49/49/49
f 24/24/24 49/49/49 38/38/38
f 20/20/20 56/56/56 53/53/53
f 20/20/20 53/53/53 27/27/27
f 45/45/45 58/58/58 55/55/55
f 45/45/45 55/55/55 18/18/18
f 41/41/41 50/50/50 59/59/59
f 41/41/41 59/59/59 47/47/47
f 67/67/67 61/61/61 64/64/64
f 67/67/67 64/64/64 70/70/70
f 11/11/11 26/26/26 65/65/65
f 11/11/11 65/65/65 62/62/62
f 28/28/28 43/43/43 72/72/72
f 28/28/28 72/72/72 66/66/66
f 37/37/37 13/13/13 63/63/63
f 37/37/37 63/63/63 69/69/69
f 3/3/3 100/100/100 80/80/80
f 3/3/3 80/80/80 9/9/9
f 99/99/99 103/103/103 75/75/75
f 99/99/99 75/75/75 79/79/79
f 7/7/7 77/77/77 85/85/85
f 7/7/7 85/85/85 21/21/21
f 78/78/78 73/73/73 81/81/81
f 78/78/78 81/81/81 86/86/86
f 23/23/23 88/88/88 96/96/96
f 23/23/23 96/96/96 16/16/16
f 87/87/87 83/83/83 91/91/91
f 87/87/87 91/91/91 95/95/95
f 14/14/14 93/93/93 97/97/97
f 14/14/14 97/97/97 1/1/1
f 94/94/94 90/90/90 102/102/102
f 94/94/94 102/102/102 98/98/98
f 129/129/129 117/117/117 105/105/105
f 129/129/129 105/105/105 133/133/133
f 127/127/127 115/115/115 119/119/119
f 127/127/127 119/119/119 131/131/131
f 121/121/121 109/109/109 113/113/113
f 121/121/121 113/113/113 125/125/125
f 136/136/136 108/108/108 112/112/112
f 136/136/136 112/112/112 124/124/124
f 165/165/165 137/137/137 141/141/141
f 165/165/165 141/141/141 145/145/145
f 164/164/164 168/168/168 148/148/148
f 164/164/164 148/148/148 152/152/152
f 157/157/157 161/161/161 149/149/149
f 157/157/157 149/149/149 153/153/153
f 139/139/139 159/159/159 155/155/155
f 139/139/139 155/155/155 143/143/143
f 110/110/110 154/154/154 150/150/150
f 110/110/110 150/150/150 114/114/114
f 118/118/118 146/146/146 142/142/142
f 118/118/118 142/142/142 106/106/106
f 130/130/130 166/166/166 162/162/162
f 130/130/130 162/162/162 126/126/126
f 122/122/122 158/158/158 138/138/138
f 122/122/122 138/138/138 134/134/134
f 107/107/107 144/144/144 156/156/156
f 107/107/107 156/156/156 111/111/111
f 116/116/116 151/151/151 147/147/147
f 116/116/116 147/147/147 120/120/120
f 135/135/135 140/140/140 167/167/167
f 135/135/135 167/167/167 132/132/132
f 128/128/128 163/163/163 160/160/160
f 128/128/128 160/160/160 123/123/123
f 194/194/194 184/184/184 171/171/171
f 194/194/194 171/171/171 197/197/197
f 190/190/190 180/180/180 183/183/183
f 190/190/190 183/183/183 193/193/193
f 185/185/185 173/173/173 177/177/177
f 185/185/185 177/177/177 189/189/189
f 200/200/200 172/172/172 176/176/176
f 200/200/200 176/176/176 188/188/188
f 229/229/229 201/201/201 205/205/205
f 229/229/229 205/205/205 209/209/209
f 228/228/228 232/232/232 212/212/212
f 228/228/228 212/212/212 216/216/216
f 222/222/222 225/225/225 215/215/215
f 222/222/222 215/215/215 220/220/220
f 202/202/202 221/221/221 219/219/219
f 202/202/202 219/219/219 208/208/208
f 192/192/192 227/227/227 224/224/224
f 192/192/192 224/224/224 187/187/187
f 175/175/175 218/218/218 214/214/214
f 175/175/175 214/214/214 179/179/179
f 182/182/182 211/211/211 207/207/207
f 182/182/182 207/207/207 170/170/170
f 195/195/195 230/230/230 226/226/226
f 195/195/195 226/226/226 191/191/191
f 186/186/186 223/223/223 203/203/203
f 186/186/186 203/203/203 198/198/198
f 169/169/169 206/206/206 217/217/217
f 169/169/169 217/217/217 174/174/174
f 178/178/178 213/213/213 210/210/210
f 178/178/178 210/210/210 181/181/181
f 199/199/199 204/204/204 231/231/231
f 199/199/199 231/231/231 196/196/196
