# Blender 5.0.0
# www.blender.org
mtllib Howl.mtl
o Howl
v -0.084000 -0.254000 0.826000
v 0.086000 -0.380000 0.820000
v 0.086000 -0.254000 0.826000
v -0.084000 -0.380000 0.820000
v 0.168000 0.420000 0.862000
v -0.168000 0.294000 0.862000
v 0.168000 0.294000 0.862000
v -0.168000 0.420000 0.862000
v -0.000000 -0.474000 0.824000
v -0.112000 -0.382000 0.824000
v -0.114000 -0.430000 0.778000
v -0.000000 -0.412000 0.886000
v 0.112000 -0.382000 0.824000
v 0.114000 -0.430000 0.778000
v -0.184000 0.548000 0.780000
v -0.000000 0.464000 0.280000
v -0.266000 0.390000 0.186000
v -0.000000 0.588000 0.862000
v 0.184000 0.548000 0.780000
v 0.266000 0.390000 0.186000
v -0.346000 0.534000 0.068000
v -0.000000 0.570000 0.212000
v 0.346000 0.534000 0.068000
v -0.414000 -0.012000 0.062000
v -0.672000 -0.022000 -0.798000
v -0.672000 -0.338000 -0.484000
v -0.422000 0.124000 -0.110000
v 0.672000 -0.022000 -0.798000
v 0.414000 -0.012000 0.062000
v 0.672000 -0.338000 -0.484000
v 0.422000 0.124000 -0.110000
v -0.192000 0.432000 0.854000
v -0.296000 0.270000 0.196000
v -0.288000 0.020000 0.274000
v -0.000000 0.472000 0.964000
v 0.192000 0.432000 0.854000
v 0.296000 0.270000 0.196000
v 0.288000 0.020000 0.274000
v 0.000000 0.350000 -0.562000
v 0.362000 0.142000 -0.864000
v 0.000000 0.180000 -0.872000
v 0.362000 0.410000 -0.398000
v -0.362000 0.410000 -0.398000
v -0.362000 0.142000 -0.864000
v -0.232000 0.020000 0.274000
v 0.232000 0.020000 0.274000
v 0.084000 -0.380000 0.820000
v -0.000000 -0.350000 0.432000
v -0.446000 -0.594000 0.002000
v -0.242000 -0.226000 0.194000
v -0.000000 -0.562000 0.376000
v 0.446000 -0.594000 0.002000
v 0.242000 -0.226000 0.194000
v -0.440000 0.398000 -0.142000
v 0.440000 0.398000 -0.142000
v 0.310000 0.814000 -0.336000
v 0.158000 0.590000 -0.270000
v -0.310000 0.814000 -0.336000
v -0.158000 0.590000 -0.270000
v -0.000000 0.020000 0.274000
v -0.112000 -0.382000 0.824000
v -0.000000 -0.412000 0.886000
v -0.288000 0.020000 0.274000
v 0.112000 -0.382000 0.824000
v 0.288000 0.020000 0.274000
v -0.000000 0.472000 0.964000
v -0.192000 0.432000 0.854000
v 0.192000 0.432000 0.854000
v -0.672000 -0.338000 -0.484000
v 0.446000 -0.594000 0.002000
v -0.446000 -0.594000 0.002000
v 0.672000 -0.338000 -0.484000
v 0.672000 -0.022000 -0.798000
v -0.362000 0.142000 -0.864000
v 0.362000 0.142000 -0.864000
v -0.672000 -0.022000 -0.798000
v 0.000000 0.180000 -0.872000
v -0.000000 -0.562000 0.376000
vn -0.0000 -0.0501 0.9987
vn -0.0000 -0.0500 0.9987
vn -0.0000 -0.0000 1.0000
vn -0.0000 -0.9749 0.2227
vn -0.8567 -0.0384 0.5144
vn -0.5981 -0.7980 0.0740
vn -0.0000 0.1809 0.9835
vn 0.8567 -0.0384 0.5144
vn 0.5981 -0.7980 0.0740
vn -0.8007 0.5615 0.2090
vn -0.0000 0.9252 0.3794
vn -0.8560 0.3614 0.3697
vn 0.0220 0.9546 0.2971
vn 0.8198 0.5298 0.2173
vn 0.8560 0.3614 0.3697
vn -0.6497 0.6685 0.3619
vn -0.0000 0.9055 0.4243
vn 0.6497 0.6685 0.3619
vn -0.9603 0.0493 0.2745
vn -0.8187 0.1309 -0.5592
vn -0.7941 -0.5710 -0.2079
vn -0.9588 0.1931 0.2083
vn 0.8187 0.1309 -0.5591
vn 0.8779 0.0537 0.4758
vn 0.7941 -0.5710 -0.2080
vn 0.9588 0.1931 0.2083
vn -0.7126 -0.1174 0.6916
vn -0.9505 0.1843 0.2503
vn -0.8320 -0.0960 0.5463
vn 0.0268 -0.2309 0.9726
vn 0.7175 -0.1594 0.6780
vn 0.9505 0.1843 0.2503
vn 0.8320 -0.0959 0.5463
vn -0.0000 0.7967 -0.6043
vn 0.1946 0.3328 -0.9227
vn 0.0002 0.6092 -0.7930
vn 0.6067 0.5706 -0.5535
vn -0.6062 0.5678 -0.5568
vn -0.1936 0.3276 -0.9248
vn -0.0402 -0.7411 -0.6702
vn 0.2080 -0.2916 0.9336
vn -0.1683 0.9290 -0.3297
vn 0.2019 0.7672 -0.6089
vn -0.1371 0.3276 0.9348
vn -0.0275 -0.9106 -0.4123
vn -0.0000 -0.9992 0.0410
vn -0.6940 -0.4736 0.5423
vn -0.6617 -0.4841 0.5725
vn 0.6555 -0.5903 0.4709
vn 0.8310 -0.3110 0.4612
vn -0.1622 -0.6488 0.7434
vn -0.9377 0.2502 0.2409
vn 0.9377 0.2502 0.2409
vn 0.4169 0.8489 -0.3249
vn 0.0605 0.9577 -0.2815
vn -0.4169 0.8489 -0.3249
vn -0.0605 0.9577 -0.2815
vn -0.0000 -0.0217 0.9998
vn -0.8567 -0.0383 0.5144
vn -0.8321 -0.0959 0.5463
vn 0.8567 -0.0383 0.5145
vn 0.8321 -0.0959 0.5463
vn -0.7127 -0.1174 0.6916
vn 0.7176 -0.1594 0.6780
vn -0.7941 -0.5710 -0.2080
vn 0.6555 -0.5904 0.4709
vn -0.6816 -0.4055 0.6091
vn 0.7942 -0.5710 -0.2080
vn 0.8187 0.1308 -0.5592
vn -0.1936 0.3277 -0.9247
vn 0.1946 0.3329 -0.9227
vn 0.0003 0.6092 -0.7930
vn -0.1587 -0.3670 0.9166
vt 0.296870 0.105460
vt 0.281250 0.070320
vt 0.273440 0.089840
vt 0.296880 0.105460
vt 0.304680 0.085930
vt 0.269540 0.171870
vt 0.304680 0.117190
vt 0.257820 0.152340
vt 0.312500 0.140620
vt 0.304690 0.117190
vt 0.394530 0.089850
vt 0.367190 0.113280
vt 0.367190 0.089850
vt 0.394530 0.117180
vt 0.425780 0.113280
vt 0.394540 0.089850
vt 0.425780 0.089850
vt 0.394540 0.117180
vt 0.414070 0.160150
vt 0.367190 0.093750
vt 0.433590 0.082040
vt 0.414060 0.160150
vt 0.367190 0.171870
vt 0.378910 0.097650
vt 0.425790 0.164060
vt 0.445310 0.082040
vt 0.378910 0.097660
vt 0.378910 0.175780
vt 0.425780 0.164060
vt 0.339850 0.183590
vt 0.367180 0.203120
vt 0.351570 0.175790
vt 0.339850 0.183600
vt 0.347660 0.203120
vt 0.367190 0.105460
vt 0.492180 0.105460
vt 0.445320 0.046880
vt 0.367190 0.105470
vt 0.390630 0.132810
vt 0.492180 0.105470
vt 0.257820 0.183590
vt 0.347650 0.156250
vt 0.335940 0.113290
vt 0.269540 0.203120
vt 0.269530 0.203120
vt 0.250000 0.187500
vt 0.261720 0.207030
vt 0.257820 0.183600
vt 0.382820 0.121090
vt 0.425780 0.085940
vt 0.382820 0.085940
vt 0.425780 0.136710
vt 0.406250 0.136710
vt 0.363290 0.085940
vt 0.406250 0.085940
vt 0.363290 0.121090
vt 0.257820 0.179680
vt 0.335930 0.113280
vt 0.265630 0.046880
vt 0.394530 0.160150
vt 0.378910 0.156250
vt 0.394530 0.113290
vt 0.410150 0.156250
vt 0.394540 0.160150
vt 0.394540 0.113290
vt 0.429690 0.179680
vt 0.429690 0.085930
vt 0.429690 0.132810
vt 0.464840 0.082040
vt 0.390630 0.085930
vt 0.425780 0.082040
vt 0.375000 0.003910
vt 0.445310 0.046870
vt 0.347660 0.070310
vt 0.324220 0.019530
vt 0.347650 0.070310
vt 0.316410 0.050780
vt 0.324220 0.019540
vt 0.394540 0.179680
vt 0.429680 0.179680
vt 0.390630 0.132820
vt 0.335940 0.113280
vt 0.367180 0.105460
vt 0.347660 0.070320
vt 0.265630 0.046870
vt 0.269540 0.039070
vt 0.394530 0.113280
vt 0.363290 0.082040
vt 0.410160 0.156250
vt 0.394540 0.113280
vt 0.429680 0.179690
vt 0.421880 0.250000
vt 0.394540 0.179690
vt 0.386720 0.117180
vt 0.410160 0.160150
vt 0.417960 0.078130
vt 0.421870 0.250000
vt 0.410160 0.210930
vt 0.347660 0.156250
vt 0.367180 0.105470
vt 0.351570 0.175780
vt 0.390620 0.132820
vt 0.367190 0.203120
vt 0.394530 0.179680
vt 0.402350 0.074220
vt 0.453120 0.089840
vt 0.425790 0.144530
vt 0.410150 0.210930
vt 0.390620 0.132810
vt 0.351560 0.175780
vt 0.429690 0.125000
vt 0.453120 0.105460
vt 0.410160 0.089850
vt 0.421870 0.082040
vt 0.425780 0.144530
vt 0.378910 0.148430
vt 0.347660 0.097650
vt 0.402340 0.074220
vt 0.429680 0.125000
vt 0.390630 0.125000
vt 0.410150 0.089850
vt 0.319092 0.081543
s 1
usemtl Masks
f 1/1/1 2/2/1 3/3/2
f 1/4/1 4/5/2 2/2/1
f 5/6/3 6/7/3 7/8/3
f 5/6/3 8/9/3 6/10/3
f 9/11/4 10/12/5 11/13/6
f 9/11/4 12/14/7 10/12/5
f 13/15/8 9/16/4 14/17/9
f 13/15/8 12/18/7 9/16/4
f 15/19/10 16/20/11 17/21/12
f 15/22/10 18/23/13 16/20/11
f 16/24/11 19/25/14 20/26/15
f 16/27/11 18/28/13 19/29/14
f 16/30/11 21/31/16 17/32/12
f 16/33/11 22/34/17 21/31/16
f 23/31/18 16/30/11 20/32/15
f 23/31/18 22/34/17 16/33/11
f 24/35/19 25/36/20 26/37/21
f 24/38/19 27/39/22 25/40/20
f 28/36/23 29/35/24 30/37/25
f 28/40/23 31/39/26 29/38/24
f 32/41/27 33/42/28 34/43/29
f 32/41/27 15/44/10 33/42/28
f 15/45/10 35/46/30 18/47/13
f 15/45/10 32/48/27 35/46/30
f 19/45/14 35/46/30 36/48/31
f 19/45/14 18/47/13 35/46/30
f 37/42/32 36/41/31 38/43/33
f 37/42/32 19/44/14 36/41/31
f 39/49/34 40/50/35 41/51/36
f 39/49/34 42/52/37 40/50/35
f 43/53/38 41/54/36 44/55/39
f 43/53/38 39/56/34 41/54/36
f 8/57/40 45/58/41 4/59/42
f 47/59/43 46/58/44 5/57/45
f 9/60/4 11/61/6 48/62/46
f 14/63/9 9/64/4 48/65/46
f 27/39/22 43/66/38 25/40/20
f 40/67/35 42/68/37 28/69/23
f 42/66/37 31/39/26 28/40/23
f 43/39/38 44/70/39 25/71/20
f 49/72/47 24/35/19 26/73/21
f 24/35/19 49/72/47 50/74/48
f 29/35/24 52/72/49 30/73/25
f 52/72/49 29/35/24 53/74/50
f 51/42/51 50/41/48 49/43/47
f 52/72/49 53/74/50 51/75/51
f 53/76/50 48/77/46 51/78/51
f 48/77/46 50/76/48 51/78/51
f 54/79/52 43/80/38 27/81/22
f 55/79/53 31/81/26 42/80/37
f 34/82/29 24/83/19 50/84/48
f 29/83/24 38/82/33 53/84/50
f 10/59/5 34/82/29 50/76/48
f 10/85/5 50/76/48 11/86/6
f 48/87/46 11/61/6 50/88/48
f 38/82/33 13/59/8 53/76/50
f 53/76/50 13/85/8 14/86/9
f 14/89/9 48/90/46 53/71/50
f 42/91/37 56/92/54 55/93/53
f 57/94/55 56/95/54 42/96/37
f 55/93/53 56/97/54 57/98/55
f 37/99/32 38/82/33 29/100/24
f 20/101/15 37/99/32 31/102/26
f 23/103/18 20/32/15 55/104/53
f 22/105/17 23/106/18 57/107/55
f 23/103/18 55/93/53 57/108/55
f 55/104/53 20/101/15 31/81/26
f 31/109/26 37/99/32 29/38/24
f 19/44/14 37/99/32 20/110/15
f 57/111/55 42/112/37 39/113/34
f 58/92/56 43/91/38 54/93/52
f 58/95/56 59/94/57 43/114/38
f 58/97/56 54/93/52 59/98/57
f 34/82/29 33/99/28 24/100/19
f 33/99/28 17/101/12 27/102/22
f 17/32/12 21/103/16 54/104/52
f 22/105/17 57/115/55 59/116/57
f 21/117/16 22/118/17 59/116/57
f 54/93/52 21/103/16 59/108/57
f 57/119/55 39/113/34 59/120/57
f 17/101/12 54/104/52 27/81/22
f 33/99/28 27/109/22 24/38/19
f 33/99/28 15/44/10 17/110/12
f 43/35/38 59/120/57 39/121/34
f 60/122/58 61/122/59 62/122/7
f 60/122/58 63/122/60 61/122/59
f 64/122/61 60/122/58 62/122/7
f 64/122/61 65/122/62 60/122/58
f 66/122/30 63/122/60 60/122/58
f 66/122/30 67/122/63 63/122/60
f 65/122/62 66/122/30 60/122/58
f 65/122/62 68/122/64 66/122/30
f 69/122/65 70/122/66 71/122/67
f 69/122/65 72/122/68 70/122/66
f 73/122/69 74/122/70 75/122/71
f 73/122/69 76/122/20 74/122/70
f 73/122/69 69/122/65 76/122/20
f 73/122/69 72/122/68 69/122/65
f 75/122/71 74/122/70 77/122/72
f 78/122/73 71/122/67 70/122/66
