# Blender 5.0.0
# www.blender.org
mtllib OldBook.mtl
o OldBook
v -0.264000 -0.202000 0.252000
v -0.210000 -0.126000 0.284000
v -0.210000 -0.148000 0.306000
v -0.264000 -0.180000 0.230000
v -0.236000 -0.128000 0.326000
v -0.308000 -0.180000 0.230000
v -0.308000 -0.202000 0.252000
v -0.236000 -0.106000 0.304000
v -0.132000 -0.076000 0.376000
v -0.132000 -0.054000 0.354000
v -0.132000 -0.086000 0.324000
v -0.132000 -0.108000 0.346000
v -0.132000 0.470000 -0.232000
v -0.210000 0.404000 -0.246000
v -0.210000 0.432000 -0.272000
v -0.132000 0.444000 -0.206000
v -0.236000 0.450000 -0.252000
v -0.132000 0.474000 -0.174000
v -0.132000 0.502000 -0.202000
v -0.236000 0.424000 -0.226000
v -0.308000 0.376000 -0.326000
v -0.308000 0.350000 -0.300000
v -0.264000 0.350000 -0.300000
v -0.264000 0.376000 -0.326000
v 0.170000 -0.394000 0.016000
v 0.110000 0.084000 -0.564000
v 0.170000 0.136000 -0.514000
v 0.110000 -0.444000 -0.036000
v 0.242000 -0.352000 0.058000
v 0.114000 -0.502000 -0.048000
v 0.088000 0.070000 -0.580000
v 0.114000 0.076000 -0.626000
v 0.088000 -0.460000 -0.052000
v 0.136000 0.092000 -0.610000
v 0.136000 -0.486000 -0.032000
v 0.292000 0.202000 -0.500000
v 0.264000 -0.336000 0.074000
v 0.292000 -0.376000 0.078000
v 0.264000 0.194000 -0.456000
v 0.270000 -0.392000 0.062000
v 0.242000 0.178000 -0.472000
v 0.270000 0.186000 -0.516000
vn 0.6047 -0.5264 0.5977
vn 0.4971 -0.8542 0.1526
vn 0.4970 -0.8542 0.1526
vn 0.8337 -0.3383 0.4365
vn -0.4961 -0.1528 0.8547
vn -0.9962 -0.0613 -0.0614
vn -0.6057 -0.5986 0.5242
vn -0.7071 0.5000 0.5000
vn 0.0525 -0.1333 0.9897
vn 0.0864 0.7045 0.7044
vn -0.0686 -0.9770 -0.2017
vn -0.0498 -0.9896 0.1349
vn -0.0500 0.1348 -0.9896
vn 0.4967 0.1524 -0.8544
vn 0.4966 0.1524 -0.8545
vn -0.0691 -0.2019 -0.9770
vn -0.4961 0.8547 -0.1528
vn 0.0864 0.7044 0.7045
vn 0.0525 0.9897 -0.1333
vn -0.6057 0.5242 -0.5986
vn -0.9962 -0.0613 -0.0613
vn 0.8335 0.4363 -0.3389
vn 0.6045 0.5975 -0.5269
vn 0.4990 -0.8538 0.1487
vn 0.8651 0.4979 -0.0610
vn 0.4990 0.1487 -0.8538
vn 0.8651 -0.0610 0.4979
vn -0.3086 -0.8914 -0.3320
vn -0.2885 -0.9011 -0.3237
vn -0.7071 -0.5000 -0.5000
vn -0.2885 -0.3237 -0.9011
vn 0.8660 0.4929 -0.0845
vn 0.8660 -0.0845 0.4929
vn 0.7071 0.5000 0.5000
vn -0.2886 -0.9011 -0.3237
vn -0.3086 -0.3320 -0.8914
vn -0.2886 -0.3237 -0.9011
vt 0.187500 0.625000
vt 0.242180 0.597660
vt 0.187500 0.597660
vt 0.242180 0.625000
vt 0.187500 0.597650
vt 0.242180 0.566410
vt 0.187500 0.566410
vt 0.242180 0.597650
vt 0.187500 0.593750
vt 0.246090 0.625000
vt 0.246090 0.593750
vt 0.246090 0.566410
vt 0.246090 0.597650
vt 0.246090 0.597660
vt 0.308590 0.625000
vt 0.250000 0.503910
vt 0.308590 0.503910
vt 0.250000 0.625000
vt 0.312500 0.507820
vt 0.371090 0.625000
vt 0.371090 0.507820
vt 0.312500 0.625000
vt 0.242180 0.570310
vt 0.242180 0.570320
vt 0.246090 0.570310
vt 0.183590 0.628910
vt 0.000000 0.750000
vt 0.000000 0.628910
vt 0.183590 0.750000
vt 0.000000 0.625000
vt 0.183590 0.503910
vt 0.183590 0.625000
vt 0.000000 0.503910
s 1
usemtl OldBook
f 1/1/1 2/2/2 3/3/3
f 1/1/1 4/4/4 2/2/2
f 5/5/5 6/6/6 7/7/7
f 5/5/5 8/8/8 6/6/6
f 9/1/9 8/2/8 5/3/5
f 9/1/9 10/4/10 8/2/8
f 3/5/3 11/6/11 12/7/12
f 3/5/3 2/8/2 11/6/11
f 5/9/5 12/10/12 9/1/9
f 5/9/5 3/11/3 12/10/12
f 5/9/5 1/12/1 3/11/3
f 5/9/5 7/7/7 1/12/1
f 13/7/13 14/13/14 15/5/15
f 13/7/13 16/12/16 14/13/14
f 17/5/17 18/12/18 19/7/19
f 17/5/17 20/13/8 18/12/18
f 21/1/20 20/14/8 17/3/17
f 21/1/20 22/10/21 20/14/8
f 15/3/15 23/10/22 24/1/23
f 15/3/15 14/14/14 23/10/22
f 17/5/17 24/12/23 21/7/20
f 17/5/17 15/13/15 24/12/23
f 17/3/17 13/10/13 15/14/15
f 17/3/17 19/1/19 13/10/13
f 20/15/8 6/16/6 8/17/8
f 20/15/8 22/18/21 6/16/6
f 25/19/24 26/20/25 27/21/26
f 25/19/24 28/22/27 26/20/25
f 27/21/26 23/22/22 14/19/14
f 27/21/26 26/20/25 23/22/22
f 25/19/24 11/20/11 2/21/2
f 25/19/24 29/22/28 11/20/11
f 18/18/18 8/17/8 10/16/10
f 18/18/18 20/15/8 8/17/8
f 30/1/29 31/12/30 32/7/31
f 30/1/29 33/10/30 31/12/30
f 34/1/32 28/6/27 35/7/33
f 34/1/32 26/4/25 28/6/27
f 36/1/32 37/6/34 38/7/33
f 36/1/32 39/4/34 37/6/34
f 40/7/35 41/4/36 42/1/37
f 40/7/35 29/6/28 41/4/36
f 38/7/33 42/4/37 36/1/32
f 38/7/33 40/6/35 42/4/37
f 32/1/31 35/6/33 30/7/29
f 32/1/31 34/4/32 35/6/33
f 6/4/6 30/7/29 7/1/7
f 6/4/6 33/23/30 30/7/29
f 28/23/27 1/1/1 35/7/33
f 28/24/27 4/4/4 1/1/1
f 37/23/34 9/1/9 38/7/33
f 37/24/34 10/4/10 9/1/9
f 11/4/11 40/7/35 12/1/12
f 11/4/11 29/23/28 40/7/35
f 12/10/12 38/7/33 9/1/9
f 12/10/12 40/12/35 38/7/33
f 35/12/33 7/1/7 30/7/29
f 35/12/33 1/10/1 7/1/7
f 32/7/31 22/10/21 21/1/20
f 32/7/31 31/25/30 22/10/21
f 24/1/23 26/23/25 34/7/32
f 24/1/23 23/4/22 26/24/25
f 19/1/19 39/23/34 36/7/32
f 19/1/19 18/4/18 39/24/34
f 42/7/37 16/4/16 13/1/13
f 42/7/37 41/23/36 16/4/16
f 36/7/32 13/10/13 19/1/19
f 36/7/32 42/12/37 13/10/13
f 21/1/20 34/12/32 32/7/31
f 21/1/20 24/10/23 34/12/32
f 33/26/30 22/27/21 31/28/30
f 33/26/30 6/29/6 22/27/21
f 39/30/34 10/31/10 37/32/34
f 39/30/34 18/33/18 10/31/10
f 27/21/26 16/22/16 41/20/36
f 27/21/26 14/19/14 16/22/16
f 25/19/24 4/20/4 28/22/27
f 25/19/24 2/21/2 4/20/4
f 25/19/24 41/20/36 29/22/28
f 25/19/24 27/21/26 41/20/36
