# generated by gltf_to_obj.py from crystal.gltf mesh 4 (Torus)
v 1.570044 -0.000000 0.010437 0.109468 0.056123 0.376257 1.000000
v 0.726585 0.667587 0.027388 0.122133 0.104616 0.552010 1.000000
v 1.026284 -0.000000 -0.850633 0.104616 0.036896 0.304982 1.000000
v 0.524889 0.639595 -0.468049 0.122133 0.102235 0.533272 1.000000
v 0.303779 -0.000000 -1.411829 0.104616 0.036896 0.304982 1.000000
v 0.102540 0.689613 -0.791292 0.107027 0.048173 0.346700 1.000000
v -0.732657 -0.000000 -1.451606 0.104616 0.036896 0.304982 1.000000
v -0.385592 0.708911 -0.633277 0.127443 0.127443 0.630762 1.000000
v -1.358948 -0.000000 -0.557113 0.104616 0.036896 0.304982 1.000000
v -1.358948 -0.000000 -0.557113 0.104616 0.036896 0.304982 1.000000
v -0.708933 0.693703 -0.222675 0.127443 0.127443 0.630762 1.000000
v -0.708933 0.693703 -0.222675 0.127443 0.127443 0.630762 1.000000
v -1.435441 -0.000000 0.587941 0.107027 0.038209 0.309468 1.000000
v -0.727924 0.697763 0.239190 0.111925 0.068482 0.417884 1.000000
v -0.763902 -0.000000 1.285092 0.104616 0.036896 0.304982 1.000000
v -0.406299 0.675746 0.626960 0.127443 0.127443 0.630762 1.000000
v 0.336667 -0.000000 1.528683 0.109468 0.045182 0.337163 1.000000
v 0.107297 0.790524 0.726706 0.111925 0.064805 0.407233 1.000000
v 1.054176 -0.000000 0.859027 0.104616 0.036896 0.304982 1.000000
v 0.532122 0.762532 0.440473 0.127443 0.127443 0.630762 1.000000
v -0.016861 0.953528 0.007466 0.127443 0.127443 0.630762 1.000000
v -0.016861 0.953528 0.007466 0.127443 0.127443 0.630762 1.000000
v -0.016861 0.953528 0.007466 0.127443 0.127443 0.630762 1.000000
v -0.016861 0.953528 0.007466 0.127443 0.127443 0.630762 1.000000
v -0.016861 0.953528 0.007466 0.127443 0.127443 0.630762 1.000000
v -0.016861 0.953528 0.007466 0.127443 0.127443 0.630762 1.000000
v -0.016861 0.953528 0.007466 0.127443 0.127443 0.630762 1.000000
v -0.016861 0.953528 0.007466 0.127443 0.127443 0.630762 1.000000
v -0.016861 0.953528 0.007466 0.127443 0.127443 0.630762 1.000000
vt 0.555556 0.666667
vt 0.555556 1.000000
vt 0.666667 0.666667
vt 0.666667 1.000000
vt 0.777778 0.666667
vt 0.777778 1.000000
vt 0.888889 0.666667
vt 0.888889 1.000000
vt 0.000000 0.666667
vt 1.000000 0.666667
vt 0.000000 1.000000
vt 1.000000 1.000000
vt 0.111111 0.666667
vt 0.111111 1.000000
vt 0.222222 0.666667
vt 0.222222 1.000000
vt 0.333333 0.666667
vt 0.333333 1.000000
vt 0.444444 0.666667
vt 0.444444 1.000000
vt 0.000000 1.000000
vt 0.111111 1.000000
vt 0.222222 1.000000
vt 0.333333 1.000000
vt 0.444444 1.000000
vt 0.555556 1.000000
vt 0.666667 1.000000
vt 0.777778 1.000000
vt 0.888889 1.000000
vn 0.657460 0.753166 -0.021180
vn 0.551775 0.832636 -0.047395
vn 0.541490 0.706442 -0.455733
vn 0.458876 0.807764 -0.369976
vn 0.215064 0.723777 -0.655629
vn 0.174047 0.827998 -0.533006
vn -0.306589 0.756249 -0.577990
vn -0.273049 0.855922 -0.439070
vn -0.644368 0.726493 -0.238655
vn -0.644368 0.726493 -0.238655
vn -0.525163 0.832820 -0.174871
vn -0.525163 0.832820 -0.174871
vn -0.624226 0.744102 0.237922
vn -0.509751 0.842524 0.173986
vn -0.351390 0.727683 0.589038
vn -0.318644 0.823481 0.469344
vn 0.156072 0.732078 0.663076
vn 0.073519 0.863979 0.498093
vn 0.570055 0.694784 0.438459
vn 0.456557 0.841273 0.289438
vn 0.001617 0.999359 -0.035646
vn 0.001617 0.999359 -0.035646
vn 0.001617 0.999359 -0.035646
vn 0.001617 0.999359 -0.035646
vn 0.001617 0.999359 -0.035646
vn 0.001617 0.999359 -0.035646
vn 0.001617 0.999359 -0.035646
vn 0.001617 0.999359 -0.035646
vn 0.001617 0.999359 -0.035646
f 1/1/1 3/3/3 4/4/4
f 1/1/1 4/4/4 2/2/2
f 3/3/3 5/5/5 6/6/6
f 3/3/3 6/6/6 4/4/4
f 5/5/5 7/7/7 8/8/8
f 5/5/5 8/8/8 6/6/6
f 7/7/7 10/10/10 12/12/12
f 7/7/7 12/12/12 8/8/8
f 9/9/9 13/13/13 14/14/14
f 9/9/9 14/14/14 11/11/11
f 13/13/13 15/15/15 16/16/16
f 13/13/13 16/16/16 14/14/14
f 15/15/15 17/17/17 18/18/18
f 15/15/15 18/18/18 16/16/16
f 17/17/17 19/19/19 20/20/20
f 17/17/17 20/20/20 18/18/18
f 19/19/19 1/1/1 2/2/2
f 19/19/19 2/2/2 20/20/20
f 14/14/14 16/16/16 22/22/22
f 11/11/11 14/14/14 21/21/21
f 8/8/8 12/12/12 29/29/29
f 20/20/20 2/2/2 25/25/25
f 6/6/6 8/8/8 28/28/28
f 4/4/4 6/6/6 27/27/27
f 2/2/2 4/4/4 26/26/26
f 18/18/18 20/20/20 24/24/24
f 16/16/16 18/18/18 23/23/23
