# bush_01 -- imported by tools/import_asset_pack.py from bush_01.fbx
o __pending__
v 0.764537 0.431601 -0.655632
v -0.758625 1.262534 -0.922654
v -0.841317 0.431601 -0.655632
v -0.758625 0.026539 0.102569
v 0.764537 0.431601 -0.655632
v -0.841317 0.431601 -0.655632
v -0.002297 0.751841 -0.777973
v -0.554835 1.484795 -0.019679
v -0.580290 0.610235 -0.075219
v 0.008244 -0.019101 -0.017373
v -0.002297 0.751841 -0.777973
v -0.580290 0.610235 -0.075219
v 0.008244 -0.019101 -0.017373
v -0.615011 0.524681 0.688909
v -0.026477 -0.104655 0.746755
v -0.580290 0.610235 -0.075219
v -0.589556 1.399241 0.744449
v -0.615011 0.524681 0.688909
v -0.781589 0.720763 0.038102
v -0.133685 1.511522 0.648391
v -0.137633 0.635869 0.690871
v 0.021799 0.000100 0.128588
v -0.781589 0.720763 0.038102
v -0.137633 0.635869 0.690871
v 0.021799 0.000100 0.128588
v 0.622150 0.600166 0.808646
v 0.781582 -0.035603 0.246364
v -0.137633 0.635869 0.690871
v 0.626098 1.475819 0.766166
v 0.622150 0.600166 0.808646
v -0.410210 0.431601 0.845151
v 1.126055 1.262534 0.668480
v 1.129486 0.431601 0.388968
v 0.834815 0.026539 -0.314506
v -0.410210 0.431601 0.845151
v 1.129486 0.431601 0.388968
v 0.359786 0.751841 0.744614
v 0.674149 1.484795 -0.139403
v 0.714333 0.610235 -0.093382
v 0.133612 -0.019101 0.018343
v 0.359786 0.751841 0.744614
v 0.714333 0.610235 -0.093382
v 0.133612 -0.019101 0.018343
v 0.530554 0.524680 -0.835893
v -0.050166 -0.104655 -0.724168
v 0.714333 0.610235 -0.093382
v 0.490370 1.399240 -0.881914
v 0.530554 0.524680 -0.835893
v 0.875147 0.720763 -0.259218
v 0.080568 1.511522 -0.660312
v 0.072286 0.635869 -0.702163
v 0.079152 0.000100 -0.117754
v 0.875147 0.720763 -0.259218
v 0.072286 0.635869 -0.702163
v 0.079152 0.000100 -0.117754
v -0.689653 0.600166 -0.599251
v -0.682787 -0.035603 -0.014843
v 0.072286 0.635869 -0.702163
v -0.681371 1.475819 -0.557400
v -0.689653 0.600166 -0.599251
v -0.562793 0.790635 -0.278598
v 0.058911 1.748767 -0.252593
v 0.055123 1.093924 0.275473
v 0.208108 0.283096 0.199047
v -0.562793 0.790635 -0.278598
v 0.055123 1.093924 0.275473
v 0.208108 0.283096 0.199047
v 0.784183 1.132841 0.386968
v 0.937168 0.322012 0.310542
v 0.055123 1.093924 0.275473
v 0.787972 1.787683 -0.141097
v 0.784183 1.132841 0.386968
v 0.847229 1.262534 -0.922654
v 0.847229 0.026539 0.102569
v 0.023159 1.626401 -0.722433
v 0.586238 0.122505 -0.720128
v -0.580290 0.610235 -0.075219
v -0.554835 1.484795 -0.019679
v -0.777641 1.596416 -0.004378
v -0.622157 0.084994 -0.524181
v -0.137633 0.635869 0.690871
v -0.133685 1.511522 0.648391
v -0.413641 1.262534 1.124663
v -0.704881 0.026539 0.141676
v 0.319602 1.626401 0.698593
v -0.220934 0.122505 0.856340
v 0.714333 0.610235 -0.093382
v 0.674149 1.484795 -0.139403
v 0.883429 1.596416 -0.217367
v 0.882013 0.084994 0.325191
v 0.072286 0.635869 -0.702163
v 0.080568 1.511522 -0.660312
v -0.559005 1.445478 -0.806664
v -0.409808 -0.020194 -0.355025
v 0.055123 1.093924 0.275473
v 0.058911 1.748767 -0.252593
vt 0.615533 0.191193
vt 0.504340 0.135596
vt 0.504340 0.191193
vt 0.504340 0.246790
vt 0.615533 0.191193
vt 0.504340 0.191193
vt 0.615533 0.191193
vt 0.559937 0.135596
vt 0.559937 0.191193
vt 0.559937 0.246790
vt 0.615533 0.191193
vt 0.559937 0.191193
vt 0.559937 0.246790
vt 0.504340 0.191193
vt 0.504340 0.246790
vt 0.559937 0.191193
vt 0.504340 0.135596
vt 0.504340 0.191193
vt 0.615533 0.191193
vt 0.559937 0.135596
vt 0.559937 0.191193
vt 0.559937 0.246790
vt 0.615533 0.191193
vt 0.559937 0.191193
vt 0.559937 0.246790
vt 0.504340 0.191193
vt 0.504340 0.246790
vt 0.559937 0.191193
vt 0.504340 0.135596
vt 0.504340 0.191193
vt 0.615533 0.191193
vt 0.504340 0.135596
vt 0.504340 0.191193
vt 0.504340 0.246790
vt 0.615533 0.191193
vt 0.504340 0.191193
vt 0.615533 0.191193
vt 0.559937 0.135596
vt 0.559937 0.191193
vt 0.559937 0.246790
vt 0.615533 0.191193
vt 0.559937 0.191193
vt 0.559937 0.246790
vt 0.504340 0.191193
vt 0.504340 0.246790
vt 0.559937 0.191193
vt 0.504340 0.135596
vt 0.504340 0.191193
vt 0.615533 0.191193
vt 0.559937 0.135596
vt 0.559937 0.191193
vt 0.559937 0.246790
vt 0.615533 0.191193
vt 0.559937 0.191193
vt 0.559937 0.246790
vt 0.504340 0.191193
vt 0.504340 0.246790
vt 0.559937 0.191193
vt 0.504340 0.135596
vt 0.504340 0.191193
vt 0.615533 0.191193
vt 0.559937 0.135596
vt 0.559937 0.191193
vt 0.559937 0.246790
vt 0.615533 0.191193
vt 0.559937 0.191193
vt 0.559937 0.246790
vt 0.504340 0.191193
vt 0.504340 0.246790
vt 0.559937 0.191193
vt 0.504340 0.135596
vt 0.504340 0.191193
vt 0.615533 0.135596
vt 0.615533 0.246790
vt 0.615533 0.135596
vt 0.615533 0.246790
vt 0.559937 0.191193
vt 0.559937 0.135596
vt 0.615533 0.135596
vt 0.615533 0.246790
vt 0.559937 0.191193
vt 0.559937 0.135596
vt 0.615533 0.135596
vt 0.615533 0.246790
vt 0.615533 0.135596
vt 0.615533 0.246790
vt 0.559937 0.191193
vt 0.559937 0.135596
vt 0.615533 0.135596
vt 0.615533 0.246790
vt 0.559937 0.191193
vt 0.559937 0.135596
vt 0.615533 0.135596
vt 0.615533 0.246790
vt 0.559937 0.191193
vt 0.559937 0.135596
vn -0.000000 0.305943 0.952050
vn -0.000000 0.305943 0.952050
vn -0.000000 0.305943 0.952050
vn -0.000000 0.882021 0.471211
vn -0.000000 0.882021 0.471211
vn -0.000000 0.882021 0.471211
vn 0.776959 -0.062398 0.626451
vn 0.776959 -0.062398 0.626451
vn 0.776959 -0.062398 0.626451
vn 0.566009 0.582898 0.582979
vn 0.566009 0.582898 0.582979
vn 0.566009 0.582898 0.582979
vn 0.720970 0.684281 0.109374
vn 0.720970 0.684281 0.109374
vn 0.720970 0.684281 0.109374
vn 0.998621 -0.031723 0.041824
vn 0.998621 -0.031723 0.041824
vn 0.998621 -0.031723 0.041824
vn 0.708966 -0.037362 -0.704252
vn 0.708966 -0.037362 -0.704253
vn 0.708966 -0.037362 -0.704252
vn 0.603389 0.607839 -0.516192
vn 0.603389 0.607839 -0.516192
vn 0.603389 0.607839 -0.516192
vn 0.143837 0.675595 -0.723106
vn 0.143837 0.675595 -0.723106
vn 0.143837 0.675595 -0.723106
vn 0.150772 -0.048580 -0.987374
vn 0.150772 -0.048580 -0.987374
vn 0.150772 -0.048580 -0.987374
vn -0.270453 0.305943 -0.912828
vn -0.270453 0.305943 -0.912827
vn -0.270453 0.305943 -0.912827
vn -0.133859 0.882021 -0.451798
vn -0.133859 0.882021 -0.451798
vn -0.133859 0.882020 -0.451798
vn -0.922909 -0.062399 -0.379928
vn -0.922909 -0.062399 -0.379928
vn -0.922909 -0.062399 -0.379928
vn -0.708300 0.582898 -0.398173
vn -0.708300 0.582898 -0.398173
vn -0.708300 0.582898 -0.398172
vn -0.722338 0.684281 0.099941
vn -0.722338 0.684281 0.099941
vn -0.722338 0.684281 0.099941
vn -0.969361 -0.031723 0.243582
vn -0.969361 -0.031723 0.243582
vn -0.969361 -0.031723 0.243582
vn -0.479698 -0.037361 0.876638
vn -0.479698 -0.037361 0.876638
vn -0.479698 -0.037361 0.876638
vn -0.431894 0.607839 0.666333
vn -0.431894 0.607839 0.666333
vn -0.431894 0.607839 0.666333
vn 0.067505 0.675595 0.734176
vn 0.067505 0.675595 0.734176
vn 0.067505 0.675595 0.734176
vn 0.135927 -0.048579 0.989527
vn 0.135927 -0.048579 0.989527
vn 0.135927 -0.048579 0.989527
vn 0.708966 -0.445182 -0.546974
vn 0.708966 -0.445182 -0.546974
vn 0.708966 -0.445182 -0.546974
vn 0.603389 0.186917 -0.775232
vn 0.603389 0.186917 -0.775232
vn 0.603389 0.186917 -0.775231
vn 0.143837 0.119730 -0.982332
vn 0.143837 0.119730 -0.982332
vn 0.143837 0.119730 -0.982332
vn 0.150772 -0.621081 -0.769107
vn 0.150772 -0.621081 -0.769107
vn 0.150772 -0.621081 -0.769107
vn 0.000000 0.305943 0.952050
vn 0.000000 0.882021 0.471211
vn 0.776959 -0.062398 0.626451
vn 0.566009 0.582898 0.582979
vn 0.720970 0.684281 0.109374
vn 0.998621 -0.031723 0.041824
vn 0.708966 -0.037361 -0.704253
vn 0.603389 0.607839 -0.516192
vn 0.143837 0.675595 -0.723106
vn 0.150772 -0.048580 -0.987374
vn -0.270453 0.305943 -0.912828
vn -0.133859 0.882021 -0.451798
vn -0.922909 -0.062399 -0.379928
vn -0.708300 0.582898 -0.398173
vn -0.722338 0.684281 0.099941
vn -0.969361 -0.031723 0.243582
vn -0.479698 -0.037361 0.876638
vn -0.431894 0.607839 0.666333
vn 0.067505 0.675595 0.734176
vn 0.135927 -0.048579 0.989527
vn 0.708966 -0.445182 -0.546974
vn 0.603389 0.186917 -0.775232
vn 0.143837 0.119731 -0.982332
vn 0.150772 -0.621081 -0.769107
f 1/1/1 2/2/2 3/3/3
f 4/4/4 5/5/5 6/6/6
f 7/7/7 8/8/8 9/9/9
f 10/10/10 11/11/11 12/12/12
f 13/13/13 14/14/14 15/15/15
f 16/16/16 17/17/17 18/18/18
f 19/19/19 20/20/20 21/21/21
f 22/22/22 23/23/23 24/24/24
f 25/25/25 26/26/26 27/27/27
f 28/28/28 29/29/29 30/30/30
f 31/31/31 32/32/32 33/33/33
f 34/34/34 35/35/35 36/36/36
f 37/37/37 38/38/38 39/39/39
f 40/40/40 41/41/41 42/42/42
f 43/43/43 44/44/44 45/45/45
f 46/46/46 47/47/47 48/48/48
f 49/49/49 50/50/50 51/51/51
f 52/52/52 53/53/53 54/54/54
f 55/55/55 56/56/56 57/57/57
f 58/58/58 59/59/59 60/60/60
f 61/61/61 62/62/62 63/63/63
f 64/64/64 65/65/65 66/66/66
f 67/67/67 68/68/68 69/69/69
f 70/70/70 71/71/71 72/72/72
f 1/1/1 73/73/73 2/2/2
f 4/4/4 74/74/74 5/5/5
f 7/7/7 75/75/75 8/8/8
f 10/10/10 76/76/76 11/11/11
f 13/13/13 77/77/77 14/14/14
f 16/16/16 78/78/78 17/17/17
f 19/19/19 79/79/79 20/20/20
f 22/22/22 80/80/80 23/23/23
f 25/25/25 81/81/81 26/26/26
f 28/28/28 82/82/82 29/29/29
f 31/31/31 83/83/83 32/32/32
f 34/34/34 84/84/84 35/35/35
f 37/37/37 85/85/85 38/38/38
f 40/40/40 86/86/86 41/41/41
f 43/43/43 87/87/87 44/44/44
f 46/46/46 88/88/88 47/47/47
f 49/49/49 89/89/89 50/50/50
f 52/52/52 90/90/90 53/53/53
f 55/55/55 91/91/91 56/56/56
f 58/58/58 92/92/92 59/59/59
f 61/61/61 93/93/93 62/62/62
f 64/64/64 94/94/94 65/65/65
f 67/67/67 95/95/95 68/68/68
f 70/70/70 96/96/96 71/71/71
