# grass_01 -- imported by tools/import_asset_pack.py from grass_01.fbx
o __pending__
v -0.501948 -0.283465 0.045596
v 0.456282 0.500000 -0.000000
v -0.543718 0.500000 -0.000000
v 0.456282 -0.500000 0.000000
v -0.501948 -0.283465 0.045596
v -0.543718 -0.500000 0.000000
v 0.000601 -0.283464 0.487351
v -0.044994 0.500000 -0.470879
v -0.044994 0.500000 0.529121
v -0.044994 -0.500000 -0.470879
v 0.000601 -0.283464 0.487351
v -0.044994 -0.500000 0.529121
v 0.498052 -0.283465 0.045596
v 0.498052 -0.283465 0.045596
v 0.000601 -0.283465 -0.512649
v 0.000601 -0.283465 -0.512649
vt 0.757566 0.051879
vt 0.804421 0.015170
vt 0.757566 0.015170
vt 0.804421 0.062024
vt 0.757566 0.051879
vt 0.757566 0.062024
vt 0.758729 0.051879
vt 0.805584 0.015170
vt 0.758729 0.015170
vt 0.805584 0.062024
vt 0.758729 0.051879
vt 0.758729 0.062024
vt 0.804421 0.051879
vt 0.804421 0.051879
vt 0.805584 0.051879
vt 0.805584 0.051879
vn 0.000000 0.058099 0.998311
vn 0.000000 0.058099 0.998311
vn 0.000000 0.058099 0.998311
vn 0.000000 -0.206050 0.978541
vn 0.000000 -0.206050 0.978541
vn 0.000000 -0.206050 0.978541
vn 0.998311 0.058099 -0.000000
vn 0.998311 0.058099 -0.000000
vn 0.998311 0.058099 -0.000000
vn 0.978541 -0.206050 0.000000
vn 0.978541 -0.206051 0.000000
vn 0.978541 -0.206051 0.000000
vn 0.000000 0.058099 0.998311
vn 0.000000 -0.206050 0.978541
vn 0.998311 0.058099 -0.000000
vn 0.978541 -0.206050 0.000000
f 1/1/1 2/2/2 3/3/3
f 4/4/4 5/5/5 6/6/6
f 7/7/7 8/8/8 9/9/9
f 10/10/10 11/11/11 12/12/12
f 1/1/1 13/13/13 2/2/2
f 4/4/4 14/14/14 5/5/5
f 7/7/7 15/15/15 8/8/8
f 10/10/10 16/16/16 11/11/11
