# long_grass_01 -- imported by tools/import_asset_pack.py from long_grass_01.fbx
o __pending__
v 0.502600 0.161541 1.544003
v -0.497400 -0.009284 2.071106
v -0.497400 0.161541 1.544003
v 0.502600 -0.009284 -0.037304
v -0.497400 0.161541 0.489798
v -0.497400 -0.009284 -0.037304
v 0.502600 0.161541 0.489798
v -0.497400 0.257234 1.016901
v -0.497400 0.161541 0.489798
v 0.502600 0.257234 1.016901
v -0.497400 0.161541 1.544003
v -0.497400 0.257234 1.016901
v 1.549925 0.161541 -0.486854
v 2.077027 -0.009284 0.513146
v 1.549925 0.161541 0.513146
v -0.031383 -0.009284 -0.486854
v 0.495720 0.161541 0.513146
v -0.031383 -0.009284 0.513146
v 0.495720 0.161541 -0.486854
v 1.022822 0.257234 0.513146
v 0.495720 0.161541 0.513146
v 1.022822 0.257234 -0.486854
v 1.549925 0.161541 0.513146
v 1.022822 0.257234 0.513146
v -0.496007 0.161541 -1.536291
v 0.503993 -0.009284 -2.063393
v 0.503993 0.161541 -1.536291
v -0.496007 -0.009284 0.045017
v 0.503993 0.161541 -0.482085
v 0.503993 -0.009284 0.045017
v -0.496007 0.161541 -0.482085
v 0.503993 0.257234 -1.009188
v 0.503993 0.161541 -0.482085
v -0.496007 0.257234 -1.009188
v 0.503993 0.161541 -1.536291
v 0.503993 0.257234 -1.009188
v -1.494836 0.161541 0.497145
v -2.021938 -0.009284 -0.502855
v -1.494835 0.161541 -0.502855
v 0.086472 -0.009284 0.497145
v -0.440630 0.161541 -0.502855
v 0.086472 -0.009284 -0.502855
v -0.440630 0.161541 0.497145
v -0.967733 0.257234 -0.502855
v -0.440630 0.161541 -0.502855
v -0.967733 0.257234 0.497145
v -1.494835 0.161541 -0.502855
v -0.967733 0.257234 -0.502855
v 0.502600 -0.009284 2.071106
v 0.502600 0.161541 0.489798
v 0.502600 0.257234 1.016901
v 0.502600 0.161541 1.544003
v 2.077027 -0.009284 -0.486854
v 0.495720 0.161541 -0.486854
v 1.022822 0.257234 -0.486854
v 1.549925 0.161541 -0.486854
v -0.496007 -0.009284 -2.063393
v -0.496007 0.161541 -0.482085
v -0.496007 0.257234 -1.009188
v -0.496007 0.161541 -1.536291
v -2.021938 -0.009284 0.497145
v -0.440630 0.161541 0.497145
v -0.967733 0.257234 0.497145
v -1.494836 0.161541 0.497145
vt 0.713578 0.165557
vt 0.660887 0.143643
vt 0.660887 0.165557
vt 0.713578 0.231299
vt 0.660887 0.209385
vt 0.660887 0.231299
vt 0.713578 0.209385
vt 0.660887 0.187471
vt 0.660887 0.209385
vt 0.713578 0.187471
vt 0.660887 0.165557
vt 0.660887 0.187471
vt 0.713578 0.165557
vt 0.660887 0.143643
vt 0.660887 0.165557
vt 0.713578 0.231299
vt 0.660887 0.209385
vt 0.660887 0.231299
vt 0.713578 0.209385
vt 0.660887 0.187471
vt 0.660887 0.209385
vt 0.713578 0.187471
vt 0.660887 0.165557
vt 0.660887 0.187471
vt 0.713578 0.165557
vt 0.660887 0.143643
vt 0.660887 0.165557
vt 0.713578 0.231299
vt 0.660887 0.209385
vt 0.660887 0.231299
vt 0.713578 0.209385
vt 0.660887 0.187471
vt 0.660887 0.209385
vt 0.713578 0.187471
vt 0.660887 0.165557
vt 0.660887 0.187471
vt 0.713578 0.165557
vt 0.660887 0.143643
vt 0.660887 0.165557
vt 0.713578 0.231299
vt 0.660887 0.209385
vt 0.660887 0.231299
vt 0.713578 0.209385
vt 0.660887 0.187471
vt 0.660887 0.209385
vt 0.713578 0.187471
vt 0.660887 0.165557
vt 0.660887 0.187471
vt 0.713578 0.143643
vt 0.713578 0.209385
vt 0.713578 0.187471
vt 0.713578 0.165557
vt 0.713578 0.143643
vt 0.713578 0.209385
vt 0.713578 0.187471
vt 0.713578 0.165557
vt 0.713578 0.143643
vt 0.713578 0.209385
vt 0.713578 0.187471
vt 0.713578 0.165557
vt 0.713578 0.143643
vt 0.713578 0.209385
vt 0.713578 0.187471
vt 0.713578 0.165557
vn 0.000000 -0.951290 -0.308297
vn 0.000000 -0.951290 -0.308297
vn 0.000000 -0.951290 -0.308297
vn 0.000000 -0.951290 0.308297
vn 0.000000 -0.951290 0.308297
vn 0.000000 -0.951290 0.308297
vn -0.000000 -0.983917 0.178627
vn -0.000000 -0.983917 0.178627
vn 0.000000 -0.983917 0.178627
vn 0.000000 -0.983917 -0.178626
vn 0.000000 -0.983917 -0.178626
vn 0.000000 -0.983917 -0.178626
vn -0.308297 -0.951290 0.000000
vn -0.308297 -0.951290 0.000000
vn -0.308297 -0.951290 0.000000
vn 0.308297 -0.951290 0.000000
vn 0.308297 -0.951290 0.000000
vn 0.308297 -0.951290 0.000000
vn 0.178626 -0.983917 0.000000
vn 0.178626 -0.983917 0.000000
vn 0.178626 -0.983917 0.000000
vn -0.178626 -0.983917 0.000000
vn -0.178626 -0.983917 0.000000
vn -0.178626 -0.983917 0.000000
vn -0.000000 -0.951290 0.308297
vn -0.000000 -0.951290 0.308297
vn -0.000000 -0.951290 0.308297
vn 0.000000 -0.951290 -0.308297
vn 0.000000 -0.951290 -0.308297
vn 0.000000 -0.951290 -0.308297
vn 0.000000 -0.983917 -0.178626
vn 0.000000 -0.983917 -0.178626
vn 0.000000 -0.983917 -0.178626
vn -0.000000 -0.983917 0.178627
vn -0.000000 -0.983917 0.178627
vn 0.000000 -0.983917 0.178626
vn 0.308297 -0.951290 0.000000
vn 0.308297 -0.951290 0.000000
vn 0.308297 -0.951290 0.000000
vn -0.308297 -0.951290 0.000000
vn -0.308297 -0.951290 0.000000
vn -0.308297 -0.951290 0.000000
vn -0.178626 -0.983917 0.000000
vn -0.178626 -0.983917 0.000000
vn -0.178626 -0.983917 0.000000
vn 0.178626 -0.983917 0.000000
vn 0.178626 -0.983917 0.000000
vn 0.178626 -0.983917 0.000000
vn 0.000000 -0.951290 -0.308297
vn 0.000000 -0.951290 0.308297
vn -0.000000 -0.983917 0.178627
vn 0.000000 -0.983917 -0.178626
vn -0.308297 -0.951290 0.000000
vn 0.308297 -0.951290 0.000000
vn 0.178626 -0.983917 0.000000
vn -0.178626 -0.983917 0.000000
vn 0.000000 -0.951290 0.308297
vn 0.000000 -0.951290 -0.308297
vn 0.000000 -0.983917 -0.178626
vn -0.000000 -0.983917 0.178627
vn 0.308297 -0.951290 0.000000
vn -0.308297 -0.951290 0.000000
vn -0.178626 -0.983917 0.000000
vn 0.178626 -0.983917 0.000000
f 1/1/1 2/2/2 3/3/3
f 4/4/4 5/5/5 6/6/6
f 7/7/7 8/8/8 9/9/9
f 10/10/10 11/11/11 12/12/12
f 13/13/13 14/14/14 15/15/15
f 16/16/16 17/17/17 18/18/18
f 19/19/19 20/20/20 21/21/21
f 22/22/22 23/23/23 24/24/24
f 25/25/25 26/26/26 27/27/27
f 28/28/28 29/29/29 30/30/30
f 31/31/31 32/32/32 33/33/33
f 34/34/34 35/35/35 36/36/36
f 37/37/37 38/38/38 39/39/39
f 40/40/40 41/41/41 42/42/42
f 43/43/43 44/44/44 45/45/45
f 46/46/46 47/47/47 48/48/48
f 1/1/1 49/49/49 2/2/2
f 4/4/4 50/50/50 5/5/5
f 7/7/7 51/51/51 8/8/8
f 10/10/10 52/52/52 11/11/11
f 13/13/13 53/53/53 14/14/14
f 16/16/16 54/54/54 17/17/17
f 19/19/19 55/55/55 20/20/20
f 22/22/22 56/56/56 23/23/23
f 25/25/25 57/57/57 26/26/26
f 28/28/28 58/58/58 29/29/29
f 31/31/31 59/59/59 32/32/32
f 34/34/34 60/60/60 35/35/35
f 37/37/37 61/61/61 38/38/38
f 40/40/40 62/62/62 41/41/41
f 43/43/43 63/63/63 44/44/44
f 46/46/46 64/64/64 47/47/47
