# small_tree_01 -- imported by tools/import_asset_pack.py from small_tree_01.fbx
o __pending__
v -0.057476 0.326233 0.005933
v -0.007565 1.059737 0.063070
v -0.007565 1.059737 0.019697
v -0.001196 0.046651 -0.029517
v 0.064911 0.320364 0.005933
v 0.059998 0.043716 0.005933
v -0.057476 0.326233 0.076834
v 0.029870 1.057942 0.084756
v -0.007565 1.059737 0.063070
v 0.064911 0.320364 0.005933
v 0.059998 0.043716 0.076834
v 0.059998 0.043716 0.005933
v 0.003718 0.323299 0.112284
v 0.067305 1.056146 0.063070
v 0.029870 1.057942 0.084756
v 0.064911 0.320364 0.076834
v -0.001196 0.046651 0.112284
v 0.059998 0.043716 0.076834
v 0.003718 0.323299 -0.029517
v 0.067305 1.056146 0.019697
v 0.064911 0.320364 0.005933
v 0.003718 0.323299 0.112284
v -0.062390 0.049585 0.076834
v -0.001196 0.046651 0.112284
v -0.057476 0.326233 0.005933
v 0.029870 1.057942 -0.001989
v 0.003718 0.323299 -0.029517
v 0.064740 1.583601 0.027393
v 0.076814 1.583021 0.034388
v -0.057476 0.326233 0.076834
v -0.062390 0.049585 0.005933
v -0.062390 0.049585 0.076834
v 0.064911 0.320364 0.005933
v 0.067305 1.056146 0.063070
v 0.064911 0.320364 0.076834
v -0.062390 0.049585 0.005933
v 0.003718 0.323299 -0.029517
v -0.001196 0.046651 -0.029517
v -0.062390 0.049585 0.076834
v -0.062390 0.049585 0.005933
v 0.059998 0.043716 0.005933
v -0.516826 0.270780 0.568293
v -0.982203 0.496127 -0.417176
v -1.003710 0.379595 0.594968
v 0.004394 0.251790 0.572908
v -0.495318 0.387312 -0.443851
v -0.516826 0.270780 0.568293
v 0.052665 1.584180 0.048378
v 0.064740 1.583601 0.055373
v 0.076814 1.583021 0.048378
v 0.029870 1.057942 -0.001989
v 0.052665 1.584180 0.034388
v 0.064740 1.583601 0.027393
v 0.029870 1.057942 0.084756
v 0.052665 1.584180 0.048378
v -0.007565 1.059737 0.063070
v -0.007565 1.059737 0.063070
v 0.052665 1.584180 0.034388
v -0.007565 1.059737 0.019697
v 0.064740 1.583601 0.055373
v 0.067305 1.056146 0.019697
v 0.076814 1.583021 0.048378
v 0.067305 1.056146 0.063070
v 0.508296 0.270780 -0.422991
v 0.973673 0.496128 0.562478
v 0.995180 0.379595 -0.449665
v -0.012923 0.251790 -0.427606
v 0.486789 0.387312 0.589153
v 0.508296 0.270780 -0.422991
v -0.554282 0.270780 -0.381068
v 0.372756 0.496127 -0.954066
v -0.635411 0.379595 -0.861886
v -0.500393 0.251790 0.137379
v 0.453885 0.387312 -0.473248
v -0.554282 0.270780 -0.381068
v 0.041668 0.268492 0.572461
v -0.381286 0.496128 1.099369
v 0.122798 0.377307 1.053279
v -0.012221 0.249501 0.054014
v -0.462415 0.387312 0.618551
v 0.041668 0.268492 0.572461
v -0.546774 0.516556 0.278936
v -0.587378 0.681495 -0.648042
v -0.940285 0.583183 0.124161
v 0.202838 0.624904 -0.308192
v -0.546774 0.516556 0.278936
v -0.150070 0.526592 0.464011
v 0.576504 0.567462 -0.122897
v 0.556932 0.778620 0.776652
v 0.940958 0.682443 0.018633
v 0.184871 0.525732 -0.305660
v 0.192477 0.663638 0.635122
v 0.576504 0.567462 -0.122897
v -0.244922 0.514696 -0.458661
v 0.628264 0.748779 -0.588885
v -0.153772 0.601471 -0.860364
v -0.381840 0.501525 -0.043132
v 0.537114 0.662004 -0.187181
v -0.244922 0.514696 -0.458661
v 0.274652 0.569322 0.614701
v -0.658711 0.711336 0.717495
v 0.154444 0.664154 1.003159
v 0.416641 0.550799 0.201483
v -0.538503 0.616503 0.329037
v 0.274652 0.569322 0.614701
v -0.360766 0.823454 0.437524
v -0.692977 1.000271 -0.257774
v -0.698337 0.915601 0.466843
v 0.009850 0.794391 0.430231
v -0.355405 0.908124 -0.287093
v -0.360766 0.823454 0.437524
v 0.351426 0.795013 -0.292849
v 0.723273 0.940155 0.404051
v 0.708137 0.858332 -0.321395
v -0.007393 0.878767 0.439755
v 0.351426 0.795013 -0.292849
v -0.022529 0.796945 -0.285690
v -0.406502 0.826502 -0.241370
v 0.263834 0.961102 -0.669508
v -0.464484 0.907626 -0.583563
v -0.359320 0.810279 0.128632
v 0.321815 0.879978 -0.327315
v -0.406502 0.826502 -0.241370
v 0.397163 0.791965 0.386046
v -0.233538 0.979324 0.815785
v 0.474283 0.866307 0.729012
v 0.346641 0.781057 0.015909
v -0.310659 0.904981 0.472818
v 0.397163 0.791965 0.386046
v -0.002012 1.097110 0.462295
v -0.548589 1.230824 0.260200
v -0.169671 1.166794 0.656076
v 0.195176 1.075131 0.263049
v -0.380930 1.161140 0.066418
v -0.002012 1.097110 0.462295
v -0.000558 1.075602 -0.309157
v 0.568361 1.185362 -0.127079
v 0.177890 1.123485 -0.512604
v 0.190842 1.138939 0.277301
v -0.000558 1.075602 -0.309157
v -0.199630 1.077062 -0.108225
v -0.384553 1.099415 0.118145
v -0.246545 1.201203 -0.467312
v -0.596317 1.160763 -0.036918
v -0.163994 1.087146 0.293982
v -0.034781 1.139855 -0.312249
v -0.384553 1.099415 0.118145
v 0.381983 1.073297 0.034993
v 0.266318 1.214983 0.600433
v 0.604535 1.129516 0.180390
v 0.159541 1.065048 -0.139157
v 0.043765 1.158763 0.455036
v 0.381983 1.073297 0.034993
v 0.038386 1.317542 0.453700
v -0.449333 1.497195 0.231366
v -0.110557 1.439949 0.585304
v 0.235575 1.295563 0.254454
v -0.340531 1.381572 0.057823
v 0.038386 1.317542 0.453700
v 0.039840 1.296033 -0.317752
v 0.549291 1.456550 -0.114886
v 0.200184 1.401228 -0.459570
v 0.231241 1.359371 0.268706
v 0.039840 1.296033 -0.317752
v -0.159231 1.297494 -0.116819
v -0.344154 1.319847 0.109550
v -0.179287 1.470713 -0.419076
v -0.492005 1.434556 -0.034276
v -0.123596 1.307578 0.285387
v 0.005617 1.360287 -0.320844
v -0.344154 1.319847 0.109550
v 0.422381 1.293728 0.026399
v 0.279245 1.483033 0.535556
v 0.581633 1.406620 0.160011
v 0.199940 1.285480 -0.147751
v 0.084164 1.379195 0.446442
v 0.422381 1.293728 0.026399
v 0.491863 0.251790 0.007924
v 0.041668 0.268492 0.572461
v 0.545752 0.270780 0.526371
v 0.545752 0.270780 0.526371
v 0.122798 0.377307 1.053279
v 0.626881 0.379595 1.007188
v -0.262846 1.682449 0.057650
v 0.243021 1.896527 0.024533
v -0.302692 1.843182 0.103274
v -0.210743 1.522470 0.098484
v 0.282867 1.735795 -0.021091
v -0.262846 1.682449 0.057650
v 0.205933 1.451893 -0.287457
v -0.350294 1.615764 -0.226782
v -0.287767 1.498711 -0.038067
v 0.301156 1.374950 -0.056268
v -0.287767 1.498711 -0.038067
v -0.192544 1.421767 0.193121
v -0.057476 0.326233 0.076834
v 0.003718 0.323299 -0.029517
v 0.003718 0.323299 0.112284
v 0.064911 0.320364 0.076834
v 0.064911 0.320364 0.076834
v 0.003718 0.323299 0.112284
v 0.029870 1.057942 -0.001989
v -0.057476 0.326233 0.076834
v -0.007565 1.059737 0.019697
v -0.057476 0.326233 0.005933
v 0.067305 1.056146 0.019697
v -0.057476 0.326233 0.005933
v -0.001196 0.046651 -0.029517
v 0.059998 0.043716 0.076834
v -0.001196 0.046651 0.112284
v -0.495318 0.387312 -0.443851
v 0.025901 0.368322 -0.439236
v 0.076814 1.583021 0.034388
v 0.064740 1.583601 0.027393
v 0.052665 1.584180 0.034388
v -0.007565 1.059737 0.019697
v 0.064740 1.583601 0.055373
v 0.052665 1.584180 0.048378
v 0.076814 1.583021 0.048378
v 0.076814 1.583021 0.034388
v 0.486789 0.387312 0.589153
v -0.034430 0.368322 0.584538
v 0.453885 0.387312 -0.473248
v 0.507775 0.368322 0.045198
v -0.462415 0.387312 0.618551
v -0.516305 0.368322 0.100105
v -0.193866 0.614868 -0.493267
v -0.193866 0.614868 -0.493267
v 0.192477 0.663638 0.635122
v -0.199155 0.621908 0.452359
v 0.537114 0.662004 -0.187181
v 0.400196 0.648833 0.228348
v -0.538503 0.616503 0.329037
v -0.396514 0.597980 -0.084182
v -0.355405 0.908124 -0.287093
v 0.015210 0.879061 -0.294387
v 0.366562 0.876835 0.432597
v 0.366562 0.876835 0.432597
v 0.321815 0.879978 -0.327315
v 0.368997 0.863754 0.042687
v -0.310659 0.904981 0.472818
v -0.361180 0.894074 0.102682
v -0.380930 1.161140 0.066418
v -0.183741 1.139161 -0.132828
v 0.389913 1.137478 0.076368
v 0.389913 1.137478 0.076368
v -0.034781 1.139855 -0.312249
v 0.185777 1.127586 -0.136412
v 0.043765 1.158763 0.455036
v -0.178677 1.150514 0.280886
v -0.340531 1.381572 0.057823
v -0.143343 1.359593 -0.141422
v 0.430312 1.357910 0.067774
v 0.430312 1.357910 0.067774
v 0.005617 1.360287 -0.320844
v 0.226176 1.348018 -0.145007
v 0.084164 1.379195 0.446442
v -0.138278 1.370946 0.272292
v -0.012221 0.249501 0.054014
v 0.041668 0.268492 0.572461
v 0.282867 1.735795 -0.021091
v 0.334970 1.575815 0.019743
v 0.143406 1.568946 -0.476171
v 0.205933 1.451893 -0.287457
vt 0.425326 0.492723
vt 0.420773 0.392250
vt 0.424229 0.392250
vt 0.420590 0.531019
vt 0.425858 0.493526
vt 0.425466 0.531421
vt 0.416105 0.492723
vt 0.423065 0.392496
vt 0.420082 0.392250
vt 0.425326 0.493526
vt 0.419676 0.531421
vt 0.425326 0.531421
vt 0.420981 0.493124
vt 0.426048 0.392742
vt 0.423065 0.392496
vt 0.425858 0.493526
vt 0.420590 0.531019
vt 0.425466 0.531421
vt 0.420981 0.493124
vt 0.426048 0.392742
vt 0.425858 0.493526
vt 0.420981 0.493124
vt 0.415714 0.530617
vt 0.420590 0.531019
vt 0.416105 0.492723
vt 0.423065 0.392496
vt 0.420981 0.493124
vt 0.425844 0.320493
vt 0.426806 0.320572
vt 0.419676 0.492723
vt 0.425326 0.530617
vt 0.419676 0.530617
vt 0.425326 0.493526
vt 0.420773 0.392742
vt 0.419676 0.493526
vt 0.415714 0.530617
vt 0.420981 0.493124
vt 0.420590 0.531019
vt 0.415714 0.438813
vt 0.415714 0.433164
vt 0.425466 0.433164
vt 0.500873 0.194197
vt 0.620935 0.134166
vt 0.500873 0.134166
vt 0.500873 0.254228
vt 0.620935 0.194197
vt 0.500873 0.194197
vt 0.424882 0.436546
vt 0.425844 0.437103
vt 0.426806 0.436546
vt 0.423065 0.392496
vt 0.424882 0.320414
vt 0.425844 0.320493
vt 0.423065 0.392496
vt 0.424882 0.320414
vt 0.420082 0.392250
vt 0.420773 0.392250
vt 0.423058 0.320414
vt 0.424229 0.392250
vt 0.425844 0.320493
vt 0.424229 0.392742
vt 0.421943 0.320572
vt 0.420773 0.392742
vt 0.500873 0.194197
vt 0.620935 0.134166
vt 0.500873 0.134166
vt 0.500873 0.254228
vt 0.620935 0.194197
vt 0.500873 0.194197
vt 0.500873 0.194197
vt 0.620935 0.134166
vt 0.500873 0.134166
vt 0.500873 0.254228
vt 0.620935 0.194197
vt 0.500873 0.194197
vt 0.560904 0.194197
vt 0.620935 0.134166
vt 0.560904 0.134166
vt 0.560904 0.254228
vt 0.620935 0.194197
vt 0.560904 0.194197
vt 0.500873 0.194197
vt 0.620935 0.134166
vt 0.500873 0.134166
vt 0.620935 0.254228
vt 0.500873 0.194197
vt 0.500873 0.254228
vt 0.500873 0.194197
vt 0.620935 0.134166
vt 0.500873 0.134166
vt 0.500873 0.254228
vt 0.620935 0.194197
vt 0.500873 0.194197
vt 0.500873 0.194197
vt 0.620935 0.134166
vt 0.500873 0.134166
vt 0.500873 0.254228
vt 0.620935 0.194197
vt 0.500873 0.194197
vt 0.500873 0.194197
vt 0.620935 0.134166
vt 0.500873 0.134166
vt 0.500873 0.254228
vt 0.620935 0.194197
vt 0.500873 0.194197
vt 0.500873 0.194197
vt 0.620935 0.134166
vt 0.500873 0.134166
vt 0.500873 0.254228
vt 0.620935 0.194197
vt 0.500873 0.194197
vt 0.500873 0.194197
vt 0.620935 0.134166
vt 0.500873 0.134166
vt 0.620935 0.254228
vt 0.500873 0.194197
vt 0.500873 0.254228
vt 0.500873 0.194197
vt 0.620935 0.134166
vt 0.500873 0.134166
vt 0.500873 0.254228
vt 0.620935 0.194197
vt 0.500873 0.194197
vt 0.500873 0.194197
vt 0.620935 0.134166
vt 0.500873 0.134166
vt 0.500873 0.254228
vt 0.620935 0.194197
vt 0.500873 0.194197
vt 0.500873 0.194197
vt 0.620935 0.134166
vt 0.500873 0.134166
vt 0.500873 0.254228
vt 0.620935 0.194197
vt 0.500873 0.194197
vt 0.500873 0.194197
vt 0.620935 0.134166
vt 0.500873 0.134166
vt 0.620935 0.254228
vt 0.500873 0.194197
vt 0.500873 0.254228
vt 0.500873 0.194197
vt 0.620935 0.134166
vt 0.500873 0.134166
vt 0.500873 0.254228
vt 0.620935 0.194197
vt 0.500873 0.194197
vt 0.500873 0.194197
vt 0.620935 0.134166
vt 0.500873 0.134166
vt 0.500873 0.254228
vt 0.620935 0.194197
vt 0.500873 0.194197
vt 0.500873 0.194197
vt 0.620935 0.134166
vt 0.500873 0.134166
vt 0.500873 0.254228
vt 0.620935 0.194197
vt 0.500873 0.194197
vt 0.500873 0.194197
vt 0.620935 0.134166
vt 0.500873 0.134166
vt 0.620935 0.254228
vt 0.500873 0.194197
vt 0.500873 0.254228
vt 0.500873 0.194197
vt 0.620935 0.134166
vt 0.500873 0.134166
vt 0.500873 0.254228
vt 0.620935 0.194197
vt 0.500873 0.194197
vt 0.500873 0.194197
vt 0.620935 0.134166
vt 0.500873 0.134166
vt 0.500873 0.254228
vt 0.620935 0.194197
vt 0.500873 0.194197
vt 0.500873 0.254228
vt 0.560904 0.194197
vt 0.500873 0.194197
vt 0.500873 0.194197
vt 0.560904 0.134166
vt 0.500873 0.134166
vt 0.500873 0.194197
vt 0.620935 0.134166
vt 0.500873 0.134166
vt 0.500873 0.254228
vt 0.620935 0.194197
vt 0.500873 0.194197
vt 0.620935 0.194197
vt 0.500873 0.134166
vt 0.500873 0.194197
vt 0.620935 0.254228
vt 0.500873 0.194197
vt 0.500873 0.254228
vt 0.419676 0.492723
vt 0.420981 0.493124
vt 0.420981 0.493124
vt 0.419676 0.493526
vt 0.425858 0.493526
vt 0.420981 0.493124
vt 0.423065 0.392496
vt 0.416105 0.492723
vt 0.420082 0.392250
vt 0.425326 0.492723
vt 0.424229 0.392742
vt 0.416105 0.492723
vt 0.420590 0.430339
vt 0.425466 0.438813
vt 0.420590 0.441638
vt 0.620935 0.194197
vt 0.620935 0.254228
vt 0.426806 0.435431
vt 0.425844 0.434874
vt 0.424882 0.435431
vt 0.420082 0.392250
vt 0.425844 0.320493
vt 0.421943 0.320414
vt 0.426806 0.320572
vt 0.423058 0.320572
vt 0.620935 0.194197
vt 0.620935 0.254228
vt 0.620935 0.194197
vt 0.620935 0.254228
vt 0.620935 0.194197
vt 0.620935 0.254228
vt 0.620935 0.194197
vt 0.620935 0.194197
vt 0.620935 0.194197
vt 0.620935 0.254228
vt 0.620935 0.194197
vt 0.620935 0.254228
vt 0.620935 0.194197
vt 0.620935 0.254228
vt 0.620935 0.194197
vt 0.620935 0.254228
vt 0.620935 0.194197
vt 0.620935 0.194197
vt 0.620935 0.194197
vt 0.620935 0.254228
vt 0.620935 0.194197
vt 0.620935 0.254228
vt 0.620935 0.194197
vt 0.620935 0.254228
vt 0.620935 0.194197
vt 0.620935 0.194197
vt 0.620935 0.194197
vt 0.620935 0.254228
vt 0.620935 0.194197
vt 0.620935 0.254228
vt 0.620935 0.194197
vt 0.620935 0.254228
vt 0.620935 0.194197
vt 0.620935 0.194197
vt 0.620935 0.194197
vt 0.620935 0.254228
vt 0.620935 0.194197
vt 0.620935 0.254228
vt 0.560904 0.254228
vt 0.560904 0.194197
vt 0.620935 0.194197
vt 0.620935 0.254228
vt 0.620935 0.134166
vt 0.620935 0.194197
vn -0.997693 0.067888 0.000000
vn -0.997693 0.067888 0.000000
vn -0.997693 0.067888 0.000000
vn 0.500931 -0.008897 -0.865442
vn 0.500931 -0.008897 -0.865441
vn 0.500931 -0.008897 -0.865441
vn -0.498836 0.050180 0.865243
vn -0.498835 0.050179 0.865243
vn -0.498835 0.050179 0.865243
vn 0.999842 -0.017759 -0.000000
vn 0.999842 -0.017759 -0.000000
vn 0.999842 -0.017759 -0.000000
vn 0.501740 0.014547 0.864896
vn 0.501748 0.014800 0.864887
vn 0.501748 0.014799 0.864887
vn 0.500931 -0.008897 0.865441
vn 0.500932 -0.008897 0.865441
vn 0.500932 -0.008897 0.865441
vn 0.501740 0.014547 -0.864896
vn 0.501747 0.014800 -0.864888
vn 0.501740 0.014547 -0.864896
vn -0.500931 0.008897 0.865442
vn -0.500931 0.008897 0.865442
vn -0.500931 0.008897 0.865442
vn -0.498836 0.050179 -0.865243
vn -0.498835 0.050179 -0.865243
vn -0.498836 0.050179 -0.865243
vn 0.501755 0.015060 -0.864879
vn 0.501755 0.015060 -0.864879
vn -0.999842 0.017758 -0.000000
vn -0.999842 0.017758 -0.000000
vn -0.999842 0.017758 -0.000000
vn 0.999995 -0.003252 0.000000
vn 0.999995 -0.003252 0.000000
vn 0.999995 -0.003252 0.000000
vn -0.500931 0.008897 -0.865442
vn -0.500931 0.008897 -0.865442
vn -0.500931 0.008897 -0.865442
vn -0.047902 -0.998852 0.000001
vn -0.047902 -0.998852 -0.000001
vn -0.047902 -0.998852 -0.000001
vn 0.222693 0.967942 0.116175
vn 0.222693 0.967942 0.116175
vn 0.222693 0.967942 0.116175
vn 0.035151 0.992738 0.115045
vn 0.035151 0.992738 0.115045
vn 0.035151 0.992738 0.115045
vn 0.047916 0.998851 0.000004
vn 0.047911 0.998852 0.000017
vn 0.047911 0.998852 0.000004
vn -0.496692 0.081250 -0.864116
vn -0.496690 0.081250 -0.864116
vn -0.496690 0.081250 -0.864117
vn -0.496691 0.081250 0.864116
vn -0.496690 0.081250 0.864117
vn -0.496691 0.081250 0.864116
vn -0.993470 0.114096 0.000000
vn -0.993470 0.114096 0.000001
vn -0.993470 0.114096 0.000000
vn 0.501755 0.015060 0.864879
vn 0.999837 -0.018046 0.000000
vn 0.999837 -0.018046 0.000000
vn 0.999837 -0.018046 0.000000
vn -0.222693 0.967942 -0.116175
vn -0.222693 0.967942 -0.116175
vn -0.222693 0.967942 -0.116175
vn -0.035151 0.992738 -0.115045
vn -0.035151 0.992738 -0.115045
vn -0.035151 0.992738 -0.115045
vn -0.090458 0.967942 0.234320
vn -0.090458 0.967942 0.234320
vn -0.090458 0.967942 0.234320
vn -0.110375 0.992738 0.047835
vn -0.110375 0.992738 0.047835
vn -0.110375 0.992738 0.047835
vn 0.200674 0.947662 -0.248328
vn 0.200674 0.947662 -0.248328
vn 0.200674 0.947662 -0.248328
vn 0.223925 0.972825 -0.058909
vn 0.223925 0.972825 -0.058909
vn 0.223925 0.972825 -0.058909
vn 0.099092 0.980430 0.170109
vn 0.099093 0.980430 0.170109
vn 0.099092 0.980430 0.170109
vn -0.069327 0.993084 0.094750
vn -0.069327 0.993084 0.094750
vn -0.069327 0.993084 0.094750
vn -0.211440 0.950494 -0.227717
vn -0.211441 0.950493 -0.227717
vn -0.211440 0.950494 -0.227717
vn -0.037860 0.988761 -0.144633
vn -0.037859 0.988761 -0.144633
vn -0.037860 0.988761 -0.144633
vn -0.234324 0.959855 0.154176
vn -0.234324 0.959855 0.154177
vn -0.234324 0.959855 0.154176
vn -0.176044 0.984017 -0.026817
vn -0.176044 0.984017 -0.026817
vn -0.176044 0.984017 -0.026817
vn 0.126056 0.972005 -0.198284
vn 0.126056 0.972005 -0.198284
vn 0.126056 0.972005 -0.198284
vn 0.065666 0.997596 -0.022155
vn 0.065666 0.997596 -0.022155
vn 0.065666 0.997596 -0.022155
vn 0.270805 0.955896 0.113697
vn 0.270804 0.955896 0.113697
vn 0.270805 0.955896 0.113697
vn 0.079923 0.989997 0.116270
vn 0.079923 0.989997 0.116270
vn 0.079923 0.989997 0.116270
vn -0.182036 0.977512 -0.106455
vn -0.182036 0.977512 -0.106455
vn -0.182036 0.977512 -0.106455
vn 0.002987 0.993688 -0.112139
vn 0.002987 0.993688 -0.112139
vn 0.002987 0.993688 -0.112139
vn -0.043241 0.970451 0.237391
vn -0.043241 0.970451 0.237391
vn -0.043241 0.970451 0.237391
vn -0.066995 0.996385 0.052232
vn -0.066995 0.996385 0.052232
vn -0.066995 0.996385 0.052232
vn 0.124794 0.963484 -0.236908
vn 0.124794 0.963484 -0.236908
vn 0.124795 0.963484 -0.236908
vn 0.151522 0.987200 -0.049775
vn 0.151522 0.987200 -0.049774
vn 0.151522 0.987200 -0.049775
vn 0.273464 0.955896 -0.107141
vn 0.273464 0.955896 -0.107141
vn 0.273464 0.955897 -0.107140
vn 0.138342 0.989997 0.027708
vn 0.138342 0.989997 0.027708
vn 0.138342 0.989997 0.027708
vn -0.204746 0.977512 0.050483
vn -0.204747 0.977512 0.050483
vn -0.204746 0.977512 0.050482
vn -0.075995 0.993688 -0.082516
vn -0.075995 0.993688 -0.082516
vn -0.075995 0.993688 -0.082516
vn 0.134395 0.970451 0.200404
vn 0.134395 0.970451 0.200404
vn 0.134395 0.970451 0.200404
vn -0.011659 0.996385 0.084146
vn -0.011659 0.996385 0.084146
vn -0.011658 0.996385 0.084146
vn -0.075562 0.963484 -0.256884
vn -0.075563 0.963484 -0.256884
vn -0.075562 0.963484 -0.256884
vn 0.074001 0.987200 -0.141281
vn 0.074001 0.987200 -0.141281
vn 0.074001 0.987200 -0.141281
vn 0.443687 0.848853 -0.287385
vn 0.443688 0.848853 -0.287385
vn 0.443687 0.848853 -0.287386
vn 0.138342 0.989997 0.027708
vn 0.138343 0.989997 0.027708
vn 0.138342 0.989997 0.027708
vn -0.376819 0.895196 0.237975
vn -0.376819 0.895196 0.237975
vn -0.376819 0.895196 0.237975
vn -0.075995 0.993688 -0.082516
vn -0.075995 0.993688 -0.082516
vn -0.075996 0.993688 -0.082516
vn 0.333998 0.873762 0.353532
vn 0.333998 0.873762 0.353532
vn 0.333997 0.873763 0.353532
vn -0.011658 0.996385 0.084146
vn -0.011659 0.996385 0.084146
vn -0.011658 0.996385 0.084146
vn -0.279912 0.871480 -0.402706
vn -0.279912 0.871480 -0.402706
vn -0.279912 0.871480 -0.402705
vn 0.074002 0.987200 -0.141281
vn 0.074002 0.987200 -0.141281
vn 0.074002 0.987200 -0.141281
vn -0.007809 0.999329 -0.035793
vn -0.007809 0.999329 -0.035793
vn -0.007809 0.999329 -0.035793
vn -0.024251 0.975921 -0.216771
vn -0.024251 0.975921 -0.216771
vn -0.024251 0.975921 -0.216771
vn 0.161114 -0.232327 0.959201
vn 0.161114 -0.232328 0.959201
vn 0.161114 -0.232326 0.959201
vn 0.110316 0.279384 0.953821
vn 0.110316 0.279385 0.953821
vn 0.110316 0.279383 0.953821
vn 0.297987 0.852282 0.429907
vn 0.297987 0.852282 0.429907
vn 0.297987 0.852282 0.429907
vn 0.206923 0.950655 0.231166
vn 0.206923 0.950655 0.231167
vn 0.206923 0.950655 0.231168
vn -0.997693 0.067888 -0.000000
vn 0.500931 -0.008897 -0.865441
vn -0.498836 0.050180 0.865243
vn 0.999842 -0.017758 0.000000
vn 0.501740 0.014547 0.864896
vn 0.500931 -0.008897 0.865441
vn 0.501747 0.014799 -0.864888
vn -0.500931 0.008897 0.865442
vn -0.498835 0.050179 -0.865243
vn -0.999842 0.017758 -0.000000
vn 0.999995 -0.003252 0.000000
vn -0.500931 0.008897 -0.865442
vn -0.047902 -0.998852 -0.000004
vn -0.047902 -0.998852 0.000001
vn -0.047902 -0.998852 0.000004
vn 0.222693 0.967942 0.116175
vn 0.035151 0.992738 0.115045
vn 0.047914 0.998851 -0.000004
vn 0.047911 0.998852 -0.000017
vn 0.047919 0.998851 -0.000004
vn -0.496692 0.081250 -0.864116
vn -0.496690 0.081250 0.864117
vn -0.993470 0.114096 0.000001
vn 0.501755 0.015060 0.864879
vn 0.999837 -0.018046 0.000000
vn -0.222693 0.967942 -0.116175
vn -0.035151 0.992738 -0.115045
vn -0.090458 0.967942 0.234320
vn -0.110375 0.992738 0.047835
vn 0.200674 0.947662 -0.248328
vn 0.223925 0.972825 -0.058909
vn 0.099093 0.980430 0.170109
vn -0.069327 0.993084 0.094750
vn -0.211441 0.950493 -0.227717
vn -0.037859 0.988761 -0.144633
vn -0.234324 0.959855 0.154177
vn -0.176044 0.984017 -0.026817
vn 0.126056 0.972005 -0.198285
vn 0.065666 0.997596 -0.022154
vn 0.270804 0.955896 0.113697
vn 0.079923 0.989997 0.116270
vn -0.182036 0.977512 -0.106455
vn 0.002987 0.993688 -0.112139
vn -0.043241 0.970451 0.237391
vn -0.066995 0.996385 0.052233
vn 0.124794 0.963484 -0.236909
vn 0.151522 0.987200 -0.049774
vn 0.273465 0.955896 -0.107142
vn 0.138342 0.989997 0.027708
vn -0.204747 0.977512 0.050484
vn -0.075995 0.993688 -0.082516
vn 0.134395 0.970451 0.200405
vn -0.011659 0.996385 0.084146
vn -0.075563 0.963484 -0.256884
vn 0.074001 0.987200 -0.141281
vn 0.443688 0.848853 -0.287385
vn 0.138343 0.989997 0.027708
vn -0.376818 0.895196 0.237975
vn -0.075995 0.993688 -0.082516
vn 0.333999 0.873762 0.353532
vn -0.011659 0.996385 0.084146
vn -0.279912 0.871480 -0.402706
vn 0.074002 0.987200 -0.141281
vn -0.007809 0.999329 -0.035793
vn -0.024251 0.975921 -0.216771
vn 0.161114 -0.232328 0.959201
vn 0.110316 0.279385 0.953821
vn 0.297987 0.852282 0.429906
vn 0.206923 0.950655 0.231166
f 1/1/1 2/2/2 3/3/3
f 4/4/4 5/5/5 6/6/6
f 7/7/7 8/8/8 9/9/9
f 10/10/10 11/11/11 12/12/12
f 13/13/13 14/14/14 15/15/15
f 16/16/16 17/17/17 18/18/18
f 19/19/19 20/20/20 21/21/21
f 22/22/22 23/23/23 24/24/24
f 25/25/25 26/26/26 27/27/27
f 20/20/20 28/28/28 29/29/29
f 30/30/30 31/31/31 32/32/32
f 33/33/33 34/34/34 35/35/35
f 36/36/36 37/37/37 38/38/38
f 39/39/39 40/40/40 41/41/41
f 42/42/42 43/43/43 44/44/44
f 45/45/45 46/46/46 47/47/47
f 48/48/48 49/49/49 50/50/50
f 51/51/51 52/52/52 53/53/53
f 54/54/54 55/55/55 56/56/56
f 57/57/57 58/58/58 59/59/59
f 14/14/14 60/60/60 15/15/15
f 61/61/61 62/62/62 63/63/63
f 64/64/64 65/65/65 66/66/66
f 67/67/67 68/68/68 69/69/69
f 70/70/70 71/71/71 72/72/72
f 73/73/73 74/74/74 75/75/75
f 76/76/76 77/77/77 78/78/78
f 79/79/79 80/80/80 81/81/81
f 82/82/82 83/83/83 84/84/84
f 85/85/85 86/86/86 87/87/87
f 88/88/88 89/89/89 90/90/90
f 91/91/91 92/92/92 93/93/93
f 94/94/94 95/95/95 96/96/96
f 97/97/97 98/98/98 99/99/99
f 100/100/100 101/101/101 102/102/102
f 103/103/103 104/104/104 105/105/105
f 106/106/106 107/107/107 108/108/108
f 109/109/109 110/110/110 111/111/111
f 112/112/112 113/113/113 114/114/114
f 115/115/115 116/116/116 117/117/117
f 118/118/118 119/119/119 120/120/120
f 121/121/121 122/122/122 123/123/123
f 124/124/124 125/125/125 126/126/126
f 127/127/127 128/128/128 129/129/129
f 130/130/130 131/131/131 132/132/132
f 133/133/133 134/134/134 135/135/135
f 136/136/136 137/137/137 138/138/138
f 139/139/139 140/140/140 141/141/141
f 142/142/142 143/143/143 144/144/144
f 145/145/145 146/146/146 147/147/147
f 148/148/148 149/149/149 150/150/150
f 151/151/151 152/152/152 153/153/153
f 154/154/154 155/155/155 156/156/156
f 157/157/157 158/158/158 159/159/159
f 160/160/160 161/161/161 162/162/162
f 163/163/163 164/164/164 165/165/165
f 166/166/166 167/167/167 168/168/168
f 169/169/169 170/170/170 171/171/171
f 172/172/172 173/173/173 174/174/174
f 175/175/175 176/176/176 177/177/177
f 178/178/178 179/179/179 180/180/180
f 181/181/181 182/182/182 183/183/183
f 184/184/184 185/185/185 186/186/186
f 187/187/187 188/188/188 189/189/189
f 190/190/190 191/191/191 192/192/192
f 193/193/193 194/194/194 195/195/195
f 1/1/1 196/196/196 2/2/2
f 4/4/4 197/197/197 5/5/5
f 7/7/7 198/198/198 8/8/8
f 10/10/10 199/199/199 11/11/11
f 13/13/13 200/200/200 14/14/14
f 16/16/16 201/201/201 17/17/17
f 19/19/19 202/202/202 20/20/20
f 22/22/22 203/203/203 23/23/23
f 25/25/25 204/204/204 26/26/26
f 20/20/20 202/202/202 28/28/28
f 30/30/30 205/205/205 31/31/31
f 33/33/33 206/206/206 34/34/34
f 36/36/36 207/207/207 37/37/37
f 40/40/40 208/208/208 41/41/41
f 41/41/41 209/209/209 39/39/39
f 209/209/209 210/210/210 39/39/39
f 42/42/42 211/211/211 43/43/43
f 45/45/45 212/212/212 46/46/46
f 50/50/50 213/213/213 48/48/48
f 213/213/213 214/214/214 215/215/215
f 48/48/48 213/213/213 215/215/215
f 51/51/51 216/216/216 52/52/52
f 54/54/54 217/217/217 55/55/55
f 57/57/57 218/218/218 58/58/58
f 14/14/14 219/219/219 60/60/60
f 61/61/61 220/220/220 62/62/62
f 64/64/64 221/221/221 65/65/65
f 67/67/67 222/222/222 68/68/68
f 70/70/70 223/223/223 71/71/71
f 73/73/73 224/224/224 74/74/74
f 76/76/76 225/225/225 77/77/77
f 79/79/79 226/226/226 80/80/80
f 82/82/82 227/227/227 83/83/83
f 85/85/85 228/228/228 86/86/86
f 88/88/88 229/229/229 89/89/89
f 91/91/91 230/230/230 92/92/92
f 94/94/94 231/231/231 95/95/95
f 97/97/97 232/232/232 98/98/98
f 100/100/100 233/233/233 101/101/101
f 103/103/103 234/234/234 104/104/104
f 106/106/106 235/235/235 107/107/107
f 109/109/109 236/236/236 110/110/110
f 112/112/112 237/237/237 113/113/113
f 115/115/115 238/238/238 116/116/116
f 118/118/118 239/239/239 119/119/119
f 121/121/121 240/240/240 122/122/122
f 124/124/124 241/241/241 125/125/125
f 127/127/127 242/242/242 128/128/128
f 130/130/130 243/243/243 131/131/131
f 133/133/133 244/244/244 134/134/134
f 136/136/136 245/245/245 137/137/137
f 139/139/139 246/246/246 140/140/140
f 142/142/142 247/247/247 143/143/143
f 145/145/145 248/248/248 146/146/146
f 148/148/148 249/249/249 149/149/149
f 151/151/151 250/250/250 152/152/152
f 154/154/154 251/251/251 155/155/155
f 157/157/157 252/252/252 158/158/158
f 160/160/160 253/253/253 161/161/161
f 163/163/163 254/254/254 164/164/164
f 166/166/166 255/255/255 167/167/167
f 169/169/169 256/256/256 170/170/170
f 172/172/172 257/257/257 173/173/173
f 175/175/175 258/258/258 176/176/176
f 178/178/178 259/259/259 179/179/179
f 181/181/181 260/260/260 182/182/182
f 184/184/184 261/261/261 185/185/185
f 187/187/187 262/262/262 188/188/188
f 190/190/190 263/263/263 191/191/191
f 193/193/193 264/264/264 194/194/194
