# trunk_03 -- imported by tools/import_asset_pack.py from trunk_03.fbx
o __pending__
v 0.073853 2.270374 -0.355007
v 0.335014 2.159918 -0.153770
v 0.335740 3.131650 -0.154720
v -0.274693 1.477018 0.100740
v -0.007735 1.910265 0.294395
v -0.269622 1.366870 0.094108
v -0.232832 2.045071 -0.225358
v 0.073127 2.159918 -0.354057
v 0.073853 2.270374 -0.355007
v 0.290943 2.045071 0.175216
v 0.335014 2.159918 -0.153770
v 0.296014 1.934924 0.168585
v -0.012806 2.020412 0.301026
v 0.296014 1.934924 0.168585
v -0.007735 1.910265 0.294395
v 0.335014 2.159918 -0.153770
v 0.073127 2.159918 -0.354057
v -0.227760 1.934924 -0.231989
v 0.385295 2.045522 0.247429
v -0.012806 2.020412 0.301026
v -0.027918 2.011976 0.418578
v -0.327236 2.045522 -0.297503
v -0.274693 1.477018 0.100740
v -0.232832 2.045071 -0.225358
v 0.445436 3.129876 -0.200362
v 0.073853 2.270374 -0.355007
v 0.335740 3.131650 -0.154720
v -0.027918 2.011976 0.418578
v -0.274693 1.477018 0.100740
v -0.384184 1.468582 0.146113
v -0.327236 2.045522 -0.297503
v 0.073853 2.270374 -0.355007
v 0.089170 2.268600 -0.472828
v -0.274693 1.477018 0.100740
v -0.227760 1.934924 -0.231989
v -0.232832 2.045071 -0.225358
v 0.445436 3.129876 -0.200362
v 0.290943 2.045071 0.175216
v 0.385295 2.045522 0.247429
v 0.328510 -0.679286 0.375597
v -0.027918 2.011976 0.418578
v -0.115826 -0.679286 0.560482
v -0.436057 -0.679286 -0.209130
v -0.384184 1.468582 0.146113
v -0.327236 2.045522 -0.297503
v 0.390563 -0.679286 -0.101652
v 0.089170 2.268600 -0.472828
v 0.445436 3.129876 -0.200362
v -0.115826 -0.679286 0.560482
v -0.384184 1.468582 0.146113
v -0.498109 -0.679286 0.268119
v 0.008279 -0.679286 -0.394015
v -0.327236 2.045522 -0.297503
v 0.089170 2.268600 -0.472828
v 0.390563 -0.679286 -0.101652
v 0.385295 2.045522 0.247429
v 0.328510 -0.679286 0.375597
v 0.073127 2.159918 -0.354057
v -0.012806 2.020412 0.301026
v -0.227760 1.934924 -0.231989
v 0.335740 3.131650 -0.154720
v 0.290943 2.045071 0.175216
v -0.269622 1.366870 0.094108
v -0.007735 1.910265 0.294395
v 0.296014 1.934924 0.168585
v 0.290943 2.045071 0.175216
v -0.384184 1.468582 0.146113
v 0.089170 2.268600 -0.472828
v -0.012806 2.020412 0.301026
v -0.232832 2.045071 -0.225358
v -0.269622 1.366870 0.094108
v 0.335740 3.131650 -0.154720
v 0.385295 2.045522 0.247429
v -0.498109 -0.679286 0.268119
v 0.008279 -0.679286 -0.394015
v -0.027918 2.011976 0.418578
v -0.436057 -0.679286 -0.209130
v 0.445436 3.129876 -0.200362
vt 0.116495 0.613480
vt 0.135318 0.619786
vt 0.135318 0.564308
vt 0.116495 0.658774
vt 0.135318 0.634039
vt 0.116495 0.665063
vt 0.126146 0.626343
vt 0.109698 0.619786
vt 0.109629 0.613480
vt 0.126146 0.626343
vt 0.109698 0.619786
vt 0.125669 0.632631
vt 0.142386 0.627751
vt 0.125669 0.632631
vt 0.141909 0.634039
vt 0.255738 0.645811
vt 0.255738 0.674502
vt 0.280082 0.688847
vt 0.056492 0.288728
vt 0.065335 0.288728
vt 0.065335 0.288728
vt 0.056492 0.288728
vt 0.065335 0.288728
vt 0.056492 0.288728
vt 0.062859 0.288728
vt 0.052648 0.288728
vt 0.062859 0.288728
vt 0.062859 0.288728
vt 0.052648 0.288728
vt 0.052648 0.288728
vt 0.056492 0.288728
vt 0.047648 0.288728
vt 0.047648 0.288728
vt 0.142386 0.658774
vt 0.125669 0.632631
vt 0.126146 0.626343
vt 0.047648 0.288728
vt 0.056492 0.288728
vt 0.056492 0.288728
vt 0.059682 0.368478
vt 0.065335 0.288728
vt 0.069171 0.368478
vt 0.059682 0.368478
vt 0.065335 0.288728
vt 0.056492 0.288728
vt 0.063232 0.368478
vt 0.052648 0.288728
vt 0.062859 0.288728
vt 0.063232 0.368478
vt 0.052648 0.288728
vt 0.052275 0.368478
vt 0.050192 0.368478
vt 0.056492 0.288728
vt 0.047648 0.288728
vt 0.050192 0.368478
vt 0.056492 0.288728
vt 0.059682 0.368478
vt 0.116495 0.619786
vt 0.135318 0.627751
vt 0.125669 0.632631
vt 0.109629 0.564308
vt 0.126146 0.626343
vt 0.304836 0.674502
vt 0.304836 0.645811
vt 0.280082 0.631465
vt 0.056492 0.288728
vt 0.065335 0.288728
vt 0.052648 0.288728
vt 0.062859 0.288728
vt 0.056492 0.288728
vt 0.141909 0.665063
vt 0.047648 0.288728
vt 0.056492 0.288728
vt 0.069171 0.368478
vt 0.052275 0.368478
vt 0.062859 0.288728
vt 0.059682 0.368478
vt 0.047648 0.288728
vn -0.608884 0.005541 0.793240
vn -0.609511 0.003204 0.792771
vn -0.610038 0.001230 0.792371
vn 0.502919 0.074997 -0.861074
vn 0.502922 0.074996 -0.861072
vn 0.502919 0.074997 -0.861074
vn 0.397575 -0.031524 0.917028
vn 0.387696 0.000127 0.921787
vn 0.386010 0.005393 0.922479
vn -0.989715 -0.024127 -0.141005
vn -0.990950 -0.004076 -0.134171
vn -0.988706 -0.036777 -0.145286
vn -0.385010 0.037791 -0.922138
vn -0.385010 0.037790 -0.922139
vn -0.385010 0.037792 -0.922138
vn -0.380727 0.779242 0.497824
vn -0.380727 0.779242 0.497824
vn -0.577933 0.702410 0.415468
vn -0.054158 0.996444 0.064546
vn -0.054158 0.996444 0.064548
vn -0.054157 0.996444 0.064548
vn -0.458616 0.481024 0.747186
vn 0.213264 0.573689 0.790822
vn -0.541442 0.448225 0.711291
vn -0.422295 0.334174 -0.842612
vn -0.890702 0.417451 -0.179956
vn -0.360407 0.313859 -0.878408
vn -0.854154 0.492753 -0.166179
vn -0.407187 0.598002 -0.690357
vn -0.347008 0.592171 -0.727268
vn -0.408097 0.826903 0.386896
vn -0.490256 0.871499 -0.011777
vn -0.495966 0.864876 -0.077503
vn 0.982074 0.034057 0.185396
vn 0.982073 0.034057 0.185397
vn 0.982073 0.034057 0.185397
vn 0.318136 0.269392 0.908965
vn -0.531397 0.343738 0.774249
vn -0.572621 0.339850 0.746062
vn 0.383509 0.036053 0.922833
vn 0.380374 0.035617 0.924147
vn 0.383914 0.036110 0.922662
vn -0.991446 0.044252 -0.122785
vn -0.995761 0.037910 -0.083809
vn -0.996141 0.037205 -0.079490
vn 0.611367 -0.037025 -0.790481
vn 0.647996 -0.029577 -0.761069
vn 0.650579 -0.029038 -0.758883
vn -0.613513 0.075005 0.786115
vn -0.658373 0.062452 0.750097
vn -0.605680 0.077112 0.791963
vn -0.383861 -0.014564 -0.923276
vn -0.381740 -0.014271 -0.924160
vn -0.381520 -0.014241 -0.924251
vn 0.991842 -0.014310 0.126665
vn 0.994194 -0.011780 0.106956
vn 0.991547 -0.014600 0.128923
vn -0.607453 0.010822 0.794282
vn 0.502923 0.074995 -0.861072
vn 0.399172 -0.036777 0.916138
vn -0.991174 0.000611 -0.132565
vn -0.385010 0.037790 -0.922139
vn -0.879954 0.283622 0.381102
vn -0.484962 0.840363 0.242079
vn -0.233688 0.923051 0.305561
vn -0.054159 0.996444 0.064545
vn 0.277247 0.568309 0.774700
vn -0.902571 0.412433 -0.123550
vn -0.885852 0.456825 -0.081097
vn -0.371410 0.788066 0.490923
vn 0.982074 0.034057 0.185396
vn 0.374951 0.255163 0.891237
vn 0.379959 0.035559 0.924320
vn -0.990638 0.045228 -0.128804
vn 0.607052 -0.037879 -0.793758
vn -0.663390 0.060993 0.745784
vn -0.384124 -0.014600 -0.923166
vn 0.994354 -0.011591 0.105479
f 1/1/1 2/2/2 3/3/3
f 4/4/4 5/5/5 6/6/6
f 7/7/7 8/8/8 9/9/9
f 10/10/10 11/11/11 12/12/12
f 13/13/13 14/14/14 15/15/15
f 16/16/16 17/17/17 18/18/18
f 19/19/19 20/20/20 21/21/21
f 22/22/22 23/23/23 24/24/24
f 25/25/25 26/26/26 27/27/27
f 28/28/28 29/29/29 30/30/30
f 31/31/31 32/32/32 33/33/33
f 34/34/34 35/35/35 36/36/36
f 37/37/37 38/38/38 39/39/39
f 40/40/40 41/41/41 42/42/42
f 43/43/43 44/44/44 45/45/45
f 46/46/46 47/47/47 48/48/48
f 49/49/49 50/50/50 51/51/51
f 52/52/52 53/53/53 54/54/54
f 55/55/55 56/56/56 57/57/57
f 1/1/1 58/58/58 2/2/2
f 4/4/4 59/59/59 5/5/5
f 7/7/7 60/60/60 8/8/8
f 10/10/10 61/61/61 11/11/11
f 13/13/13 62/62/62 14/14/14
f 63/63/63 64/64/64 18/18/18
f 64/64/64 65/65/65 18/18/18
f 65/65/65 16/16/16 18/18/18
f 19/19/19 66/66/66 20/20/20
f 22/22/22 67/67/67 23/23/23
f 25/25/25 68/68/68 26/26/26
f 28/28/28 69/69/69 29/29/29
f 31/31/31 70/70/70 32/32/32
f 34/34/34 71/71/71 35/35/35
f 37/37/37 72/72/72 38/38/38
f 40/40/40 73/73/73 41/41/41
f 43/43/43 74/74/74 44/44/44
f 46/46/46 75/75/75 47/47/47
f 49/49/49 76/76/76 50/50/50
f 52/52/52 77/77/77 53/53/53
f 55/55/55 78/78/78 56/56/56
