# trunk_02 -- imported by tools/import_asset_pack.py from trunk_02.fbx
o __pending__
v 0.000000 0.500000 -0.500000
v 0.433013 -0.500000 -0.250000
v 0.000000 -0.500000 -0.500000
v 0.433013 0.500000 -0.250000
v 0.433013 -0.500000 0.250000
v 0.433013 -0.500000 -0.250000
v 0.433013 0.500000 0.250000
v 0.000000 -0.500000 0.500000
v 0.433013 -0.500000 0.250000
v 0.000000 0.500000 0.500000
v -0.433013 -0.500000 0.250000
v 0.000000 -0.500000 0.500000
v 0.458821 4.913424 0.240632
v 0.433013 0.500000 0.250000
v -0.433013 0.500000 0.250000
v -0.433013 -0.500000 -0.250000
v -0.433013 -0.500000 0.250000
v -0.433013 0.500000 -0.250000
v 0.000000 -0.500000 -0.500000
v -0.433013 -0.500000 -0.250000
v 0.433013 -0.500000 -0.250000
v 0.000000 -0.500000 0.500000
v -0.433013 -0.500000 -0.250000
v -0.374756 4.913424 -0.240634
v -0.094271 7.638232 -0.448513
v 0.042033 4.913424 -0.481267
v -0.374756 4.913424 -0.240634
v -0.433013 0.500000 -0.250000
v 0.433013 0.500000 -0.250000
v 0.042033 4.913424 -0.481267
v 0.458821 4.913424 -0.240634
v 0.042033 4.913424 0.481265
v 0.000000 0.500000 0.500000
v 0.000000 0.500000 -0.500000
v -0.374756 4.913424 -0.240634
v 0.042033 4.913424 -0.481267
v -0.374756 4.913424 0.240632
v -0.433013 0.500000 0.250000
v -0.374756 4.913424 0.240632
v -0.094271 7.638232 0.448511
v -0.486499 7.861310 0.224255
v 0.458821 4.913424 -0.240634
v 0.292700 7.061292 0.224255
v 0.458821 4.913424 0.240632
v -0.374756 4.913424 -0.240634
v -0.486499 7.861310 0.224255
v -0.486499 8.722586 -0.224257
v 0.042033 4.913424 0.481265
v 0.292700 7.061292 0.224255
v -0.094271 7.638232 0.448511
v 0.042033 4.913424 -0.481267
v 0.292700 7.604686 -0.224257
v 0.458821 4.913424 -0.240634
v -0.486499 8.722586 -0.224257
v -0.094314 7.637781 -0.329698
v -0.094271 7.638232 -0.448513
v 0.190145 7.069728 0.164847
v -0.102662 7.527634 0.329695
v -0.094314 7.637781 0.329695
v -0.094271 7.638232 0.448511
v -0.383605 7.863084 0.164847
v -0.486499 7.861310 0.224255
v 0.292700 7.604686 -0.224257
v 0.190145 7.069728 0.164847
v 0.292700 7.061292 0.224255
v -0.486499 8.722586 -0.224257
v -0.383605 7.863084 0.164847
v -0.383605 8.724360 -0.164850
v -0.094271 7.638232 0.448511
v 0.190145 7.069728 0.164847
v -0.094314 7.637781 0.329695
v -0.094271 7.638232 -0.448513
v 0.190145 7.613122 -0.164849
v 0.292700 7.604686 -0.224257
v -0.382410 7.752628 -0.164850
v -0.382410 7.752628 0.164847
v -0.102662 7.527634 0.329695
v 0.190145 7.613122 -0.164849
v -0.102662 7.527634 -0.329698
v 0.181797 7.502975 -0.164849
v -0.094314 7.637781 -0.329698
v -0.382410 7.752628 -0.164850
v -0.102662 7.527634 -0.329698
v -0.094314 7.637781 0.329695
v -0.382410 7.752628 0.164847
v -0.383605 7.863084 0.164847
v 0.190145 7.069728 0.164847
v 0.181797 7.502975 -0.164849
v 0.181797 6.959580 0.164847
v -0.383605 7.863084 0.164847
v -0.382410 7.752628 -0.164850
v -0.383605 8.724360 -0.164850
v 0.458821 4.913424 -0.240634
v 0.000000 -0.500000 -0.500000
v 0.433013 -0.500000 0.250000
v -0.433013 -0.500000 0.250000
v -0.486499 8.722586 -0.224257
v -0.374756 4.913424 0.240632
v 0.458821 4.913424 0.240632
v 0.042033 4.913424 0.481265
v 0.042033 4.913424 0.481265
v 0.292700 7.604686 -0.224257
v -0.374756 4.913424 0.240632
v 0.458821 4.913424 0.240632
v -0.094271 7.638232 -0.448513
v -0.383605 8.724360 -0.164850
v 0.181797 6.959580 0.164847
v -0.094314 7.637781 0.329695
v 0.190145 7.613122 -0.164849
v -0.486499 7.861310 0.224255
v 0.292700 7.061292 0.224255
v -0.094314 7.637781 -0.329698
v 0.181797 6.959580 0.164847
v 0.181797 7.502975 -0.164849
v -0.102662 7.527634 -0.329698
v -0.094314 7.637781 -0.329698
v -0.383605 8.724360 -0.164850
v -0.102662 7.527634 0.329695
v 0.190145 7.613122 -0.164849
v -0.382410 7.752628 0.164847
vt 0.058725 0.468963
vt 0.068584 0.491731
vt 0.058725 0.491731
vt 0.063445 0.468963
vt 0.052061 0.491731
vt 0.063445 0.491731
vt 0.068584 0.468963
vt 0.058725 0.491731
vt 0.068584 0.491731
vt 0.058725 0.468963
vt 0.048866 0.491731
vt 0.058725 0.491731
vt 0.052275 0.368478
vt 0.052061 0.468963
vt 0.052061 0.468963
vt 0.063445 0.491731
vt 0.052061 0.491731
vt 0.048866 0.468963
vt 0.058725 0.491731
vt 0.048866 0.491731
vt 0.068584 0.240373
vt 0.058725 0.257449
vt 0.048866 0.240373
vt 0.050192 0.368478
vt 0.056492 0.288728
vt 0.059682 0.368478
vt 0.063232 0.368478
vt 0.063445 0.468963
vt 0.068584 0.468963
vt 0.059682 0.368478
vt 0.069171 0.368478
vt 0.059682 0.368478
vt 0.058725 0.468963
vt 0.058725 0.468963
vt 0.050192 0.368478
vt 0.059682 0.368478
vt 0.050192 0.368478
vt 0.048866 0.468963
vt 0.050192 0.368478
vt 0.056492 0.288728
vt 0.047648 0.288728
vt 0.063232 0.368478
vt 0.052648 0.288728
vt 0.052275 0.368478
vt 0.063232 0.368478
vt 0.052648 0.288728
vt 0.062859 0.288728
vt 0.059682 0.368478
vt 0.065335 0.288728
vt 0.056492 0.288728
vt 0.059682 0.368478
vt 0.065335 0.288728
vt 0.069171 0.368478
vt 0.047648 0.288728
vt 0.056492 0.288728
vt 0.056492 0.288728
vt 0.142386 0.658774
vt 0.125669 0.632631
vt 0.126146 0.626343
vt 0.056492 0.288728
vt 0.047648 0.288728
vt 0.047648 0.288728
vt 0.062859 0.288728
vt 0.052648 0.288728
vt 0.052648 0.288728
vt 0.062859 0.288728
vt 0.052648 0.288728
vt 0.062859 0.288728
vt 0.056492 0.288728
vt 0.065335 0.288728
vt 0.056492 0.288728
vt 0.056492 0.288728
vt 0.065335 0.288728
vt 0.065335 0.288728
vt 0.255738 0.645811
vt 0.255738 0.674502
vt 0.280082 0.688847
vt 0.142386 0.627751
vt 0.125669 0.632631
vt 0.141909 0.634039
vt 0.126146 0.626343
vt 0.109698 0.619786
vt 0.125669 0.632631
vt 0.126146 0.626343
vt 0.109698 0.619786
vt 0.109629 0.613480
vt 0.116495 0.658774
vt 0.135318 0.634039
vt 0.116495 0.665063
vt 0.116495 0.613480
vt 0.135318 0.619786
vt 0.135318 0.564308
vt 0.063232 0.368478
vt 0.058725 0.234681
vt 0.068584 0.251757
vt 0.048866 0.251757
vt 0.047648 0.288728
vt 0.052275 0.368478
vt 0.069171 0.368478
vt 0.059682 0.368478
vt 0.059682 0.368478
vt 0.062859 0.288728
vt 0.052275 0.368478
vt 0.069171 0.368478
vt 0.056492 0.288728
vt 0.047648 0.288728
vt 0.141909 0.665063
vt 0.056492 0.288728
vt 0.062859 0.288728
vt 0.052648 0.288728
vt 0.065335 0.288728
vt 0.056492 0.288728
vt 0.304836 0.674502
vt 0.304836 0.645811
vt 0.280082 0.631465
vt 0.126146 0.626343
vt 0.109629 0.564308
vt 0.125669 0.632631
vt 0.135318 0.627751
vt 0.116495 0.619786
vn 0.500000 -0.000541 -0.866025
vn 0.500000 -0.000000 -0.866025
vn 0.500000 -0.000000 -0.866025
vn 0.999996 -0.002922 0.000000
vn 1.000000 0.000000 0.000000
vn 1.000000 0.000000 0.000000
vn 0.500000 -0.000544 0.866025
vn 0.500000 0.000000 0.866025
vn 0.500000 0.000000 0.866025
vn -0.499996 0.004227 0.866018
vn -0.500000 0.000000 0.866025
vn -0.500000 0.000000 0.866025
vn 0.999983 -0.005848 0.000000
vn 0.999996 -0.002922 0.000000
vn -0.999978 0.006595 -0.000000
vn -1.000000 0.000000 0.000000
vn -1.000000 0.000000 0.000000
vn -0.499996 0.004205 -0.866018
vn -0.500000 -0.000000 -0.866025
vn -0.500000 -0.000000 -0.866025
vn 0.000000 -1.000000 0.000000
vn 0.000000 -1.000000 0.000000
vn 0.000000 -1.000000 0.000000
vn -0.501920 -0.014310 -0.864796
vn -0.519004 -0.011781 -0.854690
vn -0.499947 -0.014600 -0.865933
vn -0.999913 0.013199 -0.000000
vn -0.999978 0.006595 -0.000000
vn 0.500000 -0.000544 -0.866025
vn 0.500000 -0.001086 -0.866025
vn 0.500000 -0.001086 -0.866025
vn 0.500000 -0.001086 0.866025
vn 0.500000 -0.000541 0.866025
vn -0.499996 0.004227 -0.866018
vn -0.499982 0.008438 -0.865995
vn -0.499982 0.008438 -0.865995
vn -0.499982 0.008438 0.865995
vn -0.499996 0.004205 0.866018
vn -0.500194 -0.014564 0.865791
vn -0.502184 -0.014271 0.864643
vn -0.502391 -0.014241 0.864523
vn 0.997135 0.075005 0.009776
vn 0.995777 0.062451 0.067290
vn 0.997022 0.077112 -0.000000
vn -0.999300 -0.037025 -0.005418
vn -0.998189 -0.029577 -0.052381
vn -0.998022 -0.029038 -0.055761
vn 0.504760 0.044252 0.862125
vn 0.538341 0.037910 0.841874
vn 0.542003 0.037205 0.839553
vn 0.500056 0.036053 -0.865242
vn 0.503003 0.035617 -0.863550
vn 0.499674 0.036109 -0.865461
vn 0.528752 0.269391 -0.804891
vn 0.937826 0.343738 -0.048246
vn 0.940479 0.339850 0.001624
vn -0.449330 0.034056 -0.892716
vn -0.449332 0.034056 -0.892716
vn -0.449332 0.034056 -0.892716
vn 0.555237 0.826902 0.089128
vn 0.288472 0.871499 0.396578
vn 0.239733 0.864876 0.441042
vn 0.386885 0.492754 0.779432
vn -0.301006 0.598002 0.742825
vn -0.366884 0.592172 0.717446
vn -0.412767 0.334175 0.847319
vn 0.398148 0.417451 0.816831
vn -0.478797 0.313860 0.819905
vn 0.872114 0.481026 -0.089615
vn 0.498618 0.573688 -0.649817
vn 0.893917 0.448227 -0.002018
vn 0.084167 0.996444 0.003808
vn 0.084176 0.996444 0.003807
vn 0.084178 0.996444 0.003807
vn 0.626722 0.779243 -0.000000
vn 0.626724 0.779241 -0.000000
vn 0.681106 0.702410 0.206677
vn -0.498595 0.037790 0.866011
vn -0.498592 0.037790 0.866013
vn -0.498596 0.037790 0.866010
vn 0.489238 -0.024127 0.871817
vn 0.495414 -0.004076 0.868647
vn 0.485226 -0.036777 0.873615
vn 0.486903 -0.031524 -0.872887
vn 0.496681 0.000126 -0.867933
vn 0.498253 0.005392 -0.867015
vn -0.989493 0.074997 0.123608
vn -0.989493 0.074997 0.123608
vn -0.989493 0.074997 0.123608
vn 0.999983 0.005540 0.001769
vn 0.999992 0.003204 0.002552
vn 0.999994 0.001230 0.003213
vn 0.999983 -0.005848 0.000000
vn 0.000000 -1.000000 0.000000
vn 0.000000 -1.000000 0.000000
vn 0.000000 -1.000000 0.000000
vn -0.520274 -0.011591 -0.853921
vn -0.999913 0.013199 -0.000000
vn 0.500000 -0.001086 0.866025
vn -0.499982 0.008438 0.865995
vn -0.499947 -0.014600 0.865933
vn 0.995399 0.060992 0.073895
vn -0.999282 -0.037879 0.000000
vn 0.499488 0.045228 0.865139
vn 0.503393 0.035559 -0.863326
vn 0.480156 0.255162 -0.839251
vn -0.449330 0.034056 -0.892716
vn 0.615583 0.788066 -0.003208
vn 0.473724 0.456826 0.752925
vn 0.450162 0.412433 0.791993
vn 0.446943 0.568307 -0.690846
vn 0.084163 0.996445 0.003809
vn 0.837282 0.283623 0.467458
vn 0.486903 0.840361 0.238159
vn 0.384680 0.923050 -0.000000
vn -0.498591 0.037790 0.866013
vn 0.496826 0.000611 0.867850
vn 0.485226 -0.036777 -0.873615
vn -0.989493 0.074997 0.123608
vn 0.999941 0.010821 -0.000000
f 1/1/1 2/2/2 3/3/3
f 4/4/4 5/5/5 6/6/6
f 7/7/7 8/8/8 9/9/9
f 10/10/10 11/11/11 12/12/12
f 4/4/4 13/13/13 14/14/14
f 15/15/15 16/16/16 17/17/17
f 18/18/18 19/19/19 20/20/20
f 21/21/21 22/22/22 23/23/23
f 24/24/24 25/25/25 26/26/26
f 15/15/15 27/27/27 28/28/28
f 29/29/29 30/30/30 31/31/31
f 7/7/7 32/32/32 33/33/33
f 34/34/34 35/35/35 36/36/36
f 10/10/10 37/37/37 38/38/38
f 39/39/39 40/40/40 41/41/41
f 42/42/42 43/43/43 44/44/44
f 45/45/45 46/46/46 47/47/47
f 48/48/48 49/49/49 50/50/50
f 51/51/51 52/52/52 53/53/53
f 54/54/54 55/55/55 56/56/56
f 57/57/57 58/58/58 59/59/59
f 60/60/60 61/61/61 62/62/62
f 63/63/63 64/64/64 65/65/65
f 66/66/66 67/67/67 68/68/68
f 69/69/69 70/70/70 71/71/71
f 72/72/72 73/73/73 74/74/74
f 75/75/75 76/76/76 77/77/77
f 78/78/78 79/79/79 80/80/80
f 81/81/81 82/82/82 83/83/83
f 84/84/84 85/85/85 86/86/86
f 87/87/87 88/88/88 89/89/89
f 90/90/90 91/91/91 92/92/92
f 1/1/1 29/29/29 2/2/2
f 4/4/4 14/14/14 5/5/5
f 7/7/7 33/33/33 8/8/8
f 10/10/10 38/38/38 11/11/11
f 4/4/4 93/93/93 13/13/13
f 15/15/15 28/28/28 16/16/16
f 18/18/18 34/34/34 19/19/19
f 23/23/23 94/94/94 21/21/21
f 21/21/21 95/95/95 22/22/22
f 22/22/22 96/96/96 23/23/23
f 24/24/24 97/97/97 25/25/25
f 15/15/15 98/98/98 27/27/27
f 29/29/29 1/1/1 30/30/30
f 7/7/7 99/99/99 32/32/32
f 34/34/34 18/18/18 35/35/35
f 10/10/10 100/100/100 37/37/37
f 39/39/39 101/101/101 40/40/40
f 42/42/42 102/102/102 43/43/43
f 45/45/45 103/103/103 46/46/46
f 48/48/48 104/104/104 49/49/49
f 51/51/51 105/105/105 52/52/52
f 54/54/54 106/106/106 55/55/55
f 57/57/57 107/107/107 58/58/58
f 60/60/60 108/108/108 61/61/61
f 63/63/63 109/109/109 64/64/64
f 66/66/66 110/110/110 67/67/67
f 69/69/69 111/111/111 70/70/70
f 72/72/72 112/112/112 73/73/73
f 113/113/113 114/114/114 77/77/77
f 114/114/114 115/115/115 77/77/77
f 115/115/115 75/75/75 77/77/77
f 78/78/78 116/116/116 79/79/79
f 81/81/81 117/117/117 82/82/82
f 84/84/84 118/118/118 85/85/85
f 87/87/87 119/119/119 88/88/88
f 90/90/90 120/120/120 91/91/91
