# trunk_04 -- imported by tools/import_asset_pack.py from trunk_04.fbx
o __pending__
v 0.135985 2.158535 -0.699838
v 0.650821 2.062105 -0.303133
v 0.652253 2.910446 -0.305005
v -0.551118 1.465919 0.198592
v -0.024852 1.844153 0.580352
v -0.541120 1.369759 0.185519
v -0.468595 1.961841 -0.444255
v 0.134553 2.062105 -0.697966
v 0.135985 2.158535 -0.699838
v 0.563942 1.961841 0.345410
v 0.650821 2.062105 -0.303133
v 0.573940 1.865681 0.332337
v 0.563942 1.961841 0.345410
v -0.024852 1.844153 0.580352
v -0.034849 1.940314 0.593424
v 0.650821 2.062105 -0.303133
v 0.134553 2.062105 -0.697966
v -0.458597 1.865680 -0.457328
v -0.064640 1.932949 0.825159
v 0.563942 1.961841 0.345410
v -0.034849 1.940314 0.593424
v -0.654697 1.962234 -0.586478
v -0.551118 1.465919 0.198592
v -0.468595 1.961841 -0.444255
v 0.868501 2.908897 -0.394981
v 0.135985 2.158535 -0.699838
v 0.652253 2.910446 -0.305005
v -0.064640 1.932949 0.825159
v -0.551118 1.465919 0.198592
v -0.766960 1.458555 0.288037
v -0.654697 1.962234 -0.586478
v 0.135985 2.158535 -0.699838
v 0.166181 2.156986 -0.932103
v -0.551118 1.465919 0.198592
v -0.458597 1.865680 -0.457328
v -0.468595 1.961841 -0.444255
v 0.749943 1.962235 0.487766
v 0.652253 2.910446 -0.305005
v 0.563942 1.961841 0.345410
v 0.637999 -0.416576 0.740428
v -0.064640 1.932949 0.825159
v -0.237937 -0.416576 1.104899
v -0.869219 -0.416576 -0.412266
v -0.766960 1.458555 0.288037
v -0.654697 1.962234 -0.586478
v 0.760326 -0.416576 -0.200391
v 0.166181 2.156986 -0.932103
v 0.868501 2.908897 -0.394981
v -0.237937 -0.416576 1.104899
v -0.766960 1.458555 0.288037
v -0.991546 -0.416576 0.528552
v 0.006717 -0.416576 -0.776737
v -0.654697 1.962234 -0.586478
v 0.166181 2.156986 -0.932103
v 0.760326 -0.416576 -0.200391
v 0.749943 1.962235 0.487766
v 0.637999 -0.416576 0.740428
v 0.134553 2.062105 -0.697966
v -0.034849 1.940314 0.593424
v -0.458597 1.865680 -0.457328
v 0.652253 2.910446 -0.305005
v 0.573940 1.865681 0.332337
v -0.541120 1.369759 0.185519
v -0.024852 1.844153 0.580352
v 0.573940 1.865681 0.332337
v 0.749943 1.962235 0.487766
v -0.766960 1.458555 0.288037
v 0.166181 2.156986 -0.932103
v -0.034849 1.940314 0.593424
v -0.468595 1.961841 -0.444255
v -0.541120 1.369759 0.185519
v 0.868501 2.908897 -0.394981
v 0.749943 1.962235 0.487766
v -0.991546 -0.416576 0.528552
v 0.006717 -0.416576 -0.776737
v -0.064640 1.932949 0.825159
v -0.869219 -0.416576 -0.412266
v 0.868501 2.908897 -0.394981
vt 0.116495 0.613480
vt 0.135318 0.619786
vt 0.135318 0.564308
vt 0.116495 0.658774
vt 0.135318 0.634039
vt 0.116495 0.665063
vt 0.126146 0.626343
vt 0.109698 0.619786
vt 0.109629 0.613480
vt 0.126146 0.626343
vt 0.109698 0.619786
vt 0.125669 0.632631
vt 0.126146 0.626343
vt 0.141909 0.634039
vt 0.142386 0.627751
vt 0.255738 0.645811
vt 0.255738 0.674502
vt 0.280082 0.688847
vt 0.065335 0.288728
vt 0.056492 0.288728
vt 0.065335 0.288728
vt 0.056492 0.288728
vt 0.065335 0.288728
vt 0.056492 0.288728
vt 0.062859 0.288728
vt 0.052648 0.288728
vt 0.062859 0.288728
vt 0.062859 0.288728
vt 0.052648 0.288728
vt 0.052648 0.288728
vt 0.056492 0.288728
vt 0.047648 0.288728
vt 0.047648 0.288728
vt 0.142386 0.658774
vt 0.125669 0.632631
vt 0.126146 0.626343
vt 0.056492 0.288728
vt 0.047648 0.288728
vt 0.056492 0.288728
vt 0.385040 0.405709
vt 0.376132 0.375925
vt 0.373936 0.405709
vt 0.382470 0.405709
vt 0.373593 0.381938
vt 0.384679 0.375554
vt 0.386590 0.405709
vt 0.379058 0.373085
vt 0.387962 0.363553
vt 0.373936 0.405709
vt 0.367229 0.381938
vt 0.364382 0.405709
vt 0.377037 0.405709
vt 0.368652 0.375554
vt 0.379058 0.373085
vt 0.379784 0.405709
vt 0.371061 0.375554
vt 0.367858 0.405709
vt 0.116495 0.619786
vt 0.135318 0.627751
vt 0.125669 0.632631
vt 0.109629 0.564308
vt 0.125669 0.632631
vt 0.304836 0.674502
vt 0.304836 0.645811
vt 0.280082 0.631465
vt 0.056492 0.288728
vt 0.065335 0.288728
vt 0.052648 0.288728
vt 0.062859 0.288728
vt 0.056492 0.288728
vt 0.141909 0.665063
vt 0.047648 0.288728
vt 0.386459 0.375554
vt 0.370544 0.405709
vt 0.377037 0.405709
vt 0.376132 0.375925
vt 0.365933 0.405709
vt 0.382251 0.363553
vn -0.608473 0.015470 0.793424
vn -0.609792 0.004808 0.792547
vn -0.610036 0.002778 0.792369
vn 0.497222 0.167430 -0.851315
vn 0.497223 0.167427 -0.851315
vn 0.497222 0.167430 -0.851315
vn 0.397227 -0.075136 0.914640
vn 0.387051 0.004832 0.922046
vn 0.385989 0.012177 0.922423
vn -0.988553 -0.054188 -0.140804
vn -0.991027 -0.005198 -0.133562
vn -0.985977 -0.082816 -0.144885
vn -0.383887 0.085083 -0.919452
vn -0.383889 0.085087 -0.919451
vn -0.383889 0.085087 -0.919451
vn -0.203831 0.942029 0.266521
vn -0.203831 0.942029 0.266521
vn -0.378637 0.889834 0.254616
vn -0.024053 0.999300 0.028667
vn -0.024053 0.999300 0.028667
vn -0.024053 0.999300 0.028667
vn -0.295245 0.789501 0.538070
vn 0.117744 0.846318 0.519501
vn -0.400960 0.749517 0.526740
vn -0.382080 0.642757 -0.663987
vn -0.670927 0.722598 -0.166458
vn -0.304191 0.598168 -0.741392
vn -0.583339 0.799534 -0.143040
vn -0.276654 0.860931 -0.426920
vn -0.222271 0.856498 -0.465840
vn -0.210364 0.958485 0.192495
vn -0.241237 0.970464 -0.002112
vn -0.245961 0.968517 -0.038436
vn 0.979747 0.076721 0.184958
vn 0.979747 0.076721 0.184957
vn 0.979747 0.076721 0.184957
vn -0.425015 0.554434 0.715517
vn 0.231126 0.637960 0.734566
vn -0.521682 0.514949 0.680202
vn 0.382029 0.081049 0.920589
vn 0.379878 0.080371 0.921539
vn 0.382892 0.081321 0.920207
vn -0.988550 0.097058 -0.115534
vn -0.992070 0.087719 -0.090014
vn -0.993327 0.083773 -0.079266
vn 0.614841 -0.081094 -0.784470
vn 0.642773 -0.068537 -0.762985
vn 0.649458 -0.065456 -0.757575
vn -0.615631 0.162250 0.771151
vn -0.645300 0.144709 0.750098
vn -0.598431 0.172040 0.782485
vn -0.383391 -0.032777 -0.923005
vn -0.381896 -0.032310 -0.923640
vn -0.381361 -0.032144 -0.923867
vn 0.991785 -0.031534 0.123969
vn 0.993656 -0.027229 0.109117
vn 0.991114 -0.032953 0.128866
vn -0.607308 0.024431 0.794091
vn 0.497223 0.167427 -0.851315
vn 0.398070 -0.082816 0.913609
vn -0.991173 0.001380 -0.132565
vn -0.383887 0.085083 -0.919452
vn -0.763098 0.555389 0.330492
vn -0.304978 0.940946 0.147000
vn -0.115675 0.981704 0.151252
vn -0.024053 0.999300 0.028666
vn 0.181874 0.841819 0.508196
vn -0.692807 0.714860 -0.094837
vn -0.650344 0.757303 -0.059537
vn -0.197248 0.945050 0.260717
vn 0.979747 0.076721 0.184958
vn 0.302309 0.629550 0.715735
vn 0.378978 0.080088 0.921934
vn -0.986511 0.101703 -0.128268
vn 0.605275 -0.085283 -0.791435
vn -0.658390 0.136687 0.740162
vn -0.383956 -0.032953 -0.922763
vn 0.994080 -0.026166 0.105450
f 1/1/1 2/2/2 3/3/3
f 4/4/4 5/5/5 6/6/6
f 7/7/7 8/8/8 9/9/9
f 10/10/10 11/11/11 12/12/12
f 13/13/13 14/14/14 15/15/15
f 16/16/16 17/17/17 18/18/18
f 19/19/19 20/20/20 21/21/21
f 22/22/22 23/23/23 24/24/24
f 25/25/25 26/26/26 27/27/27
f 28/28/28 29/29/29 30/30/30
f 31/31/31 32/32/32 33/33/33
f 34/34/34 35/35/35 36/36/36
f 37/37/37 38/38/38 39/39/39
f 40/40/40 41/41/41 42/42/42
f 43/43/43 44/44/44 45/45/45
f 46/46/46 47/47/47 48/48/48
f 49/49/49 50/50/50 51/51/51
f 52/52/52 53/53/53 54/54/54
f 55/55/55 56/56/56 57/57/57
f 1/1/1 58/58/58 2/2/2
f 4/4/4 59/59/59 5/5/5
f 7/7/7 60/60/60 8/8/8
f 10/10/10 61/61/61 11/11/11
f 13/13/13 62/62/62 14/14/14
f 63/63/63 64/64/64 18/18/18
f 64/64/64 65/65/65 18/18/18
f 65/65/65 16/16/16 18/18/18
f 19/19/19 66/66/66 20/20/20
f 22/22/22 67/67/67 23/23/23
f 25/25/25 68/68/68 26/26/26
f 28/28/28 69/69/69 29/29/29
f 31/31/31 70/70/70 32/32/32
f 34/34/34 71/71/71 35/35/35
f 37/37/37 72/72/72 38/38/38
f 40/40/40 73/73/73 41/41/41
f 43/43/43 74/74/74 44/44/44
f 46/46/46 75/75/75 47/47/47
f 49/49/49 76/76/76 50/50/50
f 52/52/52 77/77/77 53/53/53
f 55/55/55 78/78/78 56/56/56
