# generated by tools/editor_import_glb.py
v 0.000000 0.034926 -0.192882 1.000000 1.000000 1.000000 1.000000
v 0.000000 0.034926 -0.192882 1.000000 1.000000 1.000000 1.000000
v 0.000000 0.296606 0.102376 1.000000 1.000000 1.000000 1.000000
v 0.000000 0.296606 0.102376 1.000000 1.000000 1.000000 1.000000
v 0.000000 0.296606 0.102376 1.000000 1.000000 1.000000 1.000000
v 0.000000 0.296606 0.102376 1.000000 1.000000 1.000000 1.000000
v 0.016463 0.029811 -0.188372 1.000000 1.000000 1.000000 1.000000
v 0.016463 0.029811 -0.188372 1.000000 1.000000 1.000000 1.000000
v 0.017170 0.291271 0.107080 1.000000 1.000000 1.000000 1.000000
v 0.017170 0.291271 0.107080 1.000000 1.000000 1.000000 1.000000
v 0.017170 0.291271 0.107080 1.000000 1.000000 1.000000 1.000000
v 0.017170 0.291271 0.107080 1.000000 1.000000 1.000000 1.000000
v 0.023282 0.017463 -0.177484 1.000000 1.000000 1.000000 1.000000
v 0.023282 0.017463 -0.177484 1.000000 1.000000 1.000000 1.000000
v 0.024282 0.278393 0.118436 1.000000 1.000000 1.000000 1.000000
v 0.024282 0.278393 0.118436 1.000000 1.000000 1.000000 1.000000
v 0.024282 0.278393 0.118436 1.000000 1.000000 1.000000 1.000000
v 0.024282 0.278393 0.118436 1.000000 1.000000 1.000000 1.000000
v 0.016463 0.005115 -0.166596 1.000000 1.000000 1.000000 1.000000
v 0.016463 0.005115 -0.166596 1.000000 1.000000 1.000000 1.000000
v 0.017170 0.265515 0.129791 1.000000 1.000000 1.000000 1.000000
v 0.017170 0.265515 0.129791 1.000000 1.000000 1.000000 1.000000
v 0.017170 0.265515 0.129791 1.000000 1.000000 1.000000 1.000000
v 0.017170 0.265515 0.129791 1.000000 1.000000 1.000000 1.000000
v 0.000000 0.000000 -0.162086 1.000000 1.000000 1.000000 1.000000
v 0.000000 0.000000 -0.162086 1.000000 1.000000 1.000000 1.000000
v 0.000000 0.260180 0.134495 1.000000 1.000000 1.000000 1.000000
v 0.000000 0.260180 0.134495 1.000000 1.000000 1.000000 1.000000
v 0.000000 0.260180 0.134495 1.000000 1.000000 1.000000 1.000000
v 0.000000 0.260180 0.134495 1.000000 1.000000 1.000000 1.000000
v -0.016463 0.005115 -0.166596 1.000000 1.000000 1.000000 1.000000
v -0.016463 0.005115 -0.166596 1.000000 1.000000 1.000000 1.000000
v -0.017170 0.265515 0.129791 1.000000 1.000000 1.000000 1.000000
v -0.017170 0.265515 0.129791 1.000000 1.000000 1.000000 1.000000
v -0.017170 0.265515 0.129791 1.000000 1.000000 1.000000 1.000000
v -0.017170 0.265515 0.129791 1.000000 1.000000 1.000000 1.000000
v -0.023282 0.017463 -0.177484 1.000000 1.000000 1.000000 1.000000
v -0.023282 0.017463 -0.177484 1.000000 1.000000 1.000000 1.000000
v -0.024282 0.278393 0.118436 1.000000 1.000000 1.000000 1.000000
v -0.024282 0.278393 0.118436 1.000000 1.000000 1.000000 1.000000
v -0.024282 0.278393 0.118436 1.000000 1.000000 1.000000 1.000000
v -0.024282 0.278393 0.118436 1.000000 1.000000 1.000000 1.000000
v -0.016463 0.029811 -0.188372 1.000000 1.000000 1.000000 1.000000
v -0.016463 0.029811 -0.188372 1.000000 1.000000 1.000000 1.000000
v -0.017170 0.291271 0.107080 1.000000 1.000000 1.000000 1.000000
v -0.017170 0.291271 0.107080 1.000000 1.000000 1.000000 1.000000
v -0.017170 0.291271 0.107080 1.000000 1.000000 1.000000 1.000000
v -0.017170 0.291271 0.107080 1.000000 1.000000 1.000000 1.000000
v 0.017170 0.342755 0.165467 1.000000 1.000000 1.000000 1.000000
v 0.017170 0.342755 0.165467 1.000000 1.000000 1.000000 1.000000
v 0.017170 0.342755 0.165467 1.000000 1.000000 1.000000 1.000000
v 0.000000 0.348089 0.160764 1.000000 1.000000 1.000000 1.000000
v 0.000000 0.348089 0.160764 1.000000 1.000000 1.000000 1.000000
v 0.000000 0.348089 0.160764 1.000000 1.000000 1.000000 1.000000
v 0.024282 0.329877 0.176823 1.000000 1.000000 1.000000 1.000000
v 0.024282 0.329877 0.176823 1.000000 1.000000 1.000000 1.000000
v 0.024282 0.329877 0.176823 1.000000 1.000000 1.000000 1.000000
v 0.017170 0.316998 0.188179 1.000000 1.000000 1.000000 1.000000
v 0.017170 0.316998 0.188179 1.000000 1.000000 1.000000 1.000000
v 0.017170 0.316998 0.188179 1.000000 1.000000 1.000000 1.000000
v 0.000000 0.311664 0.192882 1.000000 1.000000 1.000000 1.000000
v 0.000000 0.311664 0.192882 1.000000 1.000000 1.000000 1.000000
v 0.000000 0.311664 0.192882 1.000000 1.000000 1.000000 1.000000
v -0.017170 0.316998 0.188179 1.000000 1.000000 1.000000 1.000000
v -0.017170 0.316998 0.188179 1.000000 1.000000 1.000000 1.000000
v -0.017170 0.316998 0.188179 1.000000 1.000000 1.000000 1.000000
v -0.024282 0.329877 0.176823 1.000000 1.000000 1.000000 1.000000
v -0.024282 0.329877 0.176823 1.000000 1.000000 1.000000 1.000000
v -0.024282 0.329877 0.176823 1.000000 1.000000 1.000000 1.000000
v -0.017170 0.342755 0.165467 1.000000 1.000000 1.000000 1.000000
v -0.017170 0.342755 0.165467 1.000000 1.000000 1.000000 1.000000
v -0.017170 0.342755 0.165467 1.000000 1.000000 1.000000 1.000000
v 0.025191 0.266357 0.142874 1.000000 1.000000 1.000000 1.000000
v 0.025191 0.266357 0.142874 1.000000 1.000000 1.000000 1.000000
v 0.025191 0.266357 0.142874 1.000000 1.000000 1.000000 1.000000
v 0.025191 0.266357 0.142874 1.000000 1.000000 1.000000 1.000000
v 0.031025 0.280864 0.168148 1.000000 1.000000 1.000000 1.000000
v 0.031025 0.280864 0.168148 1.000000 1.000000 1.000000 1.000000
v 0.025191 0.304124 0.185705 1.000000 1.000000 1.000000 1.000000
v 0.025191 0.304124 0.185705 1.000000 1.000000 1.000000 1.000000
v 0.025191 0.304124 0.185705 1.000000 1.000000 1.000000 1.000000
v 0.025191 0.304124 0.185705 1.000000 1.000000 1.000000 1.000000
v 0.000000 0.296298 0.192606 1.000000 1.000000 1.000000 1.000000
v 0.000000 0.296298 0.192606 1.000000 1.000000 1.000000 1.000000
v 0.000000 0.296298 0.192606 1.000000 1.000000 1.000000 1.000000
v 0.000000 0.296298 0.192606 1.000000 1.000000 1.000000 1.000000
v 0.000000 0.271225 0.176648 1.000000 1.000000 1.000000 1.000000
v 0.000000 0.271225 0.176648 1.000000 1.000000 1.000000 1.000000
v 0.000000 0.258530 0.149775 1.000000 1.000000 1.000000 1.000000
v 0.000000 0.258530 0.149775 1.000000 1.000000 1.000000 1.000000
v 0.000000 0.258530 0.149775 1.000000 1.000000 1.000000 1.000000
v 0.000000 0.258530 0.149775 1.000000 1.000000 1.000000 1.000000
v -0.035625 0.285251 0.126213 1.000000 1.000000 1.000000 1.000000
v -0.035625 0.285251 0.126213 1.000000 1.000000 1.000000 1.000000
v -0.035625 0.285251 0.126213 1.000000 1.000000 1.000000 1.000000
v -0.035625 0.285251 0.126213 1.000000 1.000000 1.000000 1.000000
v -0.043876 0.304135 0.147629 1.000000 1.000000 1.000000 1.000000
v -0.043876 0.304135 0.147629 1.000000 1.000000 1.000000 1.000000
v -0.035625 0.323018 0.169045 1.000000 1.000000 1.000000 1.000000
v -0.035625 0.323018 0.169045 1.000000 1.000000 1.000000 1.000000
v -0.035625 0.323018 0.169045 1.000000 1.000000 1.000000 1.000000
v -0.035625 0.323018 0.169045 1.000000 1.000000 1.000000 1.000000
v -0.025191 0.341913 0.152385 1.000000 1.000000 1.000000 1.000000
v -0.025191 0.341913 0.152385 1.000000 1.000000 1.000000 1.000000
v -0.025191 0.341913 0.152385 1.000000 1.000000 1.000000 1.000000
v -0.025191 0.341913 0.152385 1.000000 1.000000 1.000000 1.000000
v -0.031025 0.327405 0.127110 1.000000 1.000000 1.000000 1.000000
v -0.031025 0.327405 0.127110 1.000000 1.000000 1.000000 1.000000
v -0.025191 0.304146 0.109553 1.000000 1.000000 1.000000 1.000000
v -0.025191 0.304146 0.109553 1.000000 1.000000 1.000000 1.000000
v -0.025191 0.304146 0.109553 1.000000 1.000000 1.000000 1.000000
v -0.025191 0.304146 0.109553 1.000000 1.000000 1.000000 1.000000
v 0.025191 0.304146 0.109553 1.000000 1.000000 1.000000 1.000000
v 0.025191 0.304146 0.109553 1.000000 1.000000 1.000000 1.000000
v 0.025191 0.304146 0.109553 1.000000 1.000000 1.000000 1.000000
v 0.025191 0.304146 0.109553 1.000000 1.000000 1.000000 1.000000
v 0.031025 0.327405 0.127110 1.000000 1.000000 1.000000 1.000000
v 0.031025 0.327405 0.127110 1.000000 1.000000 1.000000 1.000000
v 0.025191 0.341913 0.152385 1.000000 1.000000 1.000000 1.000000
v 0.025191 0.341913 0.152385 1.000000 1.000000 1.000000 1.000000
v 0.025191 0.341913 0.152385 1.000000 1.000000 1.000000 1.000000
v 0.025191 0.341913 0.152385 1.000000 1.000000 1.000000 1.000000
v 0.035625 0.323018 0.169045 1.000000 1.000000 1.000000 1.000000
v 0.035625 0.323018 0.169045 1.000000 1.000000 1.000000 1.000000
v 0.035625 0.323018 0.169045 1.000000 1.000000 1.000000 1.000000
v 0.035625 0.323018 0.169045 1.000000 1.000000 1.000000 1.000000
v 0.043876 0.304135 0.147629 1.000000 1.000000 1.000000 1.000000
v 0.043876 0.304135 0.147629 1.000000 1.000000 1.000000 1.000000
v 0.035625 0.285251 0.126213 1.000000 1.000000 1.000000 1.000000
v 0.035625 0.285251 0.126213 1.000000 1.000000 1.000000 1.000000
v 0.035625 0.285251 0.126213 1.000000 1.000000 1.000000 1.000000
v 0.035625 0.285251 0.126213 1.000000 1.000000 1.000000 1.000000
v -0.025191 0.304124 0.185705 1.000000 1.000000 1.000000 1.000000
v -0.025191 0.304124 0.185705 1.000000 1.000000 1.000000 1.000000
v -0.025191 0.304124 0.185705 1.000000 1.000000 1.000000 1.000000
v -0.025191 0.304124 0.185705 1.000000 1.000000 1.000000 1.000000
v -0.031025 0.280864 0.168148 1.000000 1.000000 1.000000 1.000000
v -0.031025 0.280864 0.168148 1.000000 1.000000 1.000000 1.000000
v -0.025191 0.266357 0.142874 1.000000 1.000000 1.000000 1.000000
v -0.025191 0.266357 0.142874 1.000000 1.000000 1.000000 1.000000
v -0.025191 0.266357 0.142874 1.000000 1.000000 1.000000 1.000000
v -0.025191 0.266357 0.142874 1.000000 1.000000 1.000000 1.000000
v 0.000000 0.349739 0.145484 1.000000 1.000000 1.000000 1.000000
v 0.000000 0.349739 0.145484 1.000000 1.000000 1.000000 1.000000
v 0.000000 0.349739 0.145484 1.000000 1.000000 1.000000 1.000000
v 0.000000 0.349739 0.145484 1.000000 1.000000 1.000000 1.000000
v 0.000000 0.337044 0.118611 1.000000 1.000000 1.000000 1.000000
v 0.000000 0.337044 0.118611 1.000000 1.000000 1.000000 1.000000
v 0.000000 0.311972 0.102652 1.000000 1.000000 1.000000 1.000000
v 0.000000 0.311972 0.102652 1.000000 1.000000 1.000000 1.000000
v 0.000000 0.311972 0.102652 1.000000 1.000000 1.000000 1.000000
v 0.000000 0.311972 0.102652 1.000000 1.000000 1.000000 1.000000
vt 0.107623 0.999212
vt 0.107623 0.999212
vt 0.108450 0.146602
vt 0.108450 0.146602
vt 0.108450 0.146602
vt 0.108450 0.146602
vt 0.134854 0.999233
vt 0.194535 0.999212
vt 0.136849 0.146624
vt 0.136849 0.146624
vt 0.193709 0.146602
vt 0.193709 0.146602
vt 0.233044 0.999212
vt 0.233044 0.999212
vt 0.233871 0.146602
vt 0.233871 0.146602
vt 0.233871 0.146602
vt 0.233871 0.146602
vt 0.319956 0.999212
vt 0.260275 0.999233
vt 0.319130 0.146602
vt 0.319130 0.146602
vt 0.262270 0.146625
vt 0.262270 0.146625
vt 0.358465 0.999212
vt 0.358465 0.999212
vt 0.359292 0.146602
vt 0.359292 0.146602
vt 0.359292 0.146602
vt 0.359292 0.146602
vt 0.445377 0.999212
vt 0.385696 0.999233
vt 0.444551 0.146602
vt 0.444551 0.146602
vt 0.387691 0.146625
vt 0.387691 0.146625
vt 0.041883 0.999233
vt 0.483887 0.999212
vt 0.039888 0.146624
vt 0.484713 0.146602
vt 0.039888 0.146624
vt 0.484713 0.146602
vt 0.069114 0.999212
vt 0.069114 0.999212
vt 0.068287 0.146602
vt 0.068287 0.146602
vt 0.068287 0.146602
vt 0.068287 0.146602
vt 0.622059 0.051813
vt 0.622059 0.051813
vt 0.622059 0.051813
vt 0.622059 0.091976
vt 0.622059 0.091976
vt 0.622059 0.091976
vt 0.593660 0.023414
vt 0.593660 0.023414
vt 0.593660 0.023414
vt 0.553498 0.023414
vt 0.553498 0.023414
vt 0.553498 0.023414
vt 0.525099 0.051813
vt 0.525099 0.051813
vt 0.525099 0.051813
vt 0.525099 0.091976
vt 0.525099 0.091976
vt 0.525099 0.091976
vt 0.553498 0.120375
vt 0.553498 0.120375
vt 0.553498 0.120375
vt 0.593660 0.120375
vt 0.593660 0.120375
vt 0.593660 0.120375
vt 0.309749 0.124174
vt 0.309749 0.124174
vt 0.284918 0.124207
vt 0.284918 0.124207
vt 0.302925 0.062457
vt 0.301392 0.062498
vt 0.544117 0.000767
vt 0.309749 0.000767
vt 0.544117 0.000767
vt 0.284918 0.000800
vt 0.368673 0.000767
vt 0.502451 0.042432
vt 0.502451 0.042432
vt 0.368673 0.000767
vt 0.375497 0.062457
vt 0.375497 0.062457
vt 0.368673 0.124174
vt 0.368673 0.124174
vt 0.368673 0.124174
vt 0.368673 0.124174
vt 0.017241 0.124207
vt 0.494094 0.124174
vt 0.017241 0.124207
vt 0.494094 0.124174
vt 0.000767 0.062498
vt 0.500918 0.062457
vt 0.017241 0.000800
vt 0.494094 0.000767
vt 0.544117 0.143022
vt 0.544117 0.143022
vt 0.058906 0.000767
vt 0.603041 0.143022
vt 0.058906 0.000767
vt 0.603041 0.143022
vt 0.052083 0.062457
vt 0.052083 0.062457
vt 0.058906 0.124174
vt 0.058906 0.124174
vt 0.058906 0.124174
vt 0.058906 0.124174
vt 0.159496 0.124207
vt 0.159496 0.124207
vt 0.184328 0.124174
vt 0.184328 0.124174
vt 0.175971 0.062498
vt 0.177504 0.062457
vt 0.644707 0.042432
vt 0.159496 0.000800
vt 0.644707 0.042432
vt 0.184328 0.000767
vt 0.603041 0.000767
vt 0.603041 0.000767
vt 0.243252 0.000767
vt 0.243252 0.000767
vt 0.250076 0.062457
vt 0.250076 0.062457
vt 0.243252 0.124174
vt 0.243252 0.124174
vt 0.243252 0.124174
vt 0.243252 0.124174
vt 0.435170 0.000767
vt 0.502451 0.101357
vt 0.410339 0.000800
vt 0.502451 0.101357
vt 0.428346 0.062457
vt 0.426813 0.062498
vt 0.435170 0.124174
vt 0.435170 0.124174
vt 0.410338 0.124207
vt 0.410338 0.124207
vt 0.117831 0.000767
vt 0.644707 0.101357
vt 0.644707 0.101357
vt 0.117831 0.000767
vt 0.124655 0.062457
vt 0.124655 0.062457
vt 0.117831 0.124174
vt 0.117831 0.124174
vt 0.117831 0.124174
vt 0.117831 0.124174
vn -0.382689 0.691439 -0.612749
vn 0.382689 0.691439 -0.612749
vn -0.382689 0.691439 -0.612749
vn -0.269207 0.017286 -0.962927
vn 0.269207 0.017286 -0.962927
vn 0.382689 0.691439 -0.612749
vn 0.382689 0.691439 -0.612749
vn 0.923874 0.285518 -0.254825
vn 0.269207 0.017286 -0.962927
vn 0.382689 0.691439 -0.612749
vn 0.649818 -0.268194 -0.711202
vn 0.923874 0.285518 -0.254825
vn 0.923874 0.285518 -0.254825
vn 0.923874 -0.288561 0.251375
vn 0.649818 -0.268194 -0.711202
vn 0.649818 -0.672037 -0.355110
vn 0.923874 0.285518 -0.254825
vn 0.923874 -0.288561 0.251375
vn 0.382689 -0.694481 0.609299
vn 0.923874 -0.288561 0.251375
vn 0.269207 -0.957517 -0.103385
vn 0.382689 -0.694481 0.609299
vn 0.649818 -0.672037 -0.355110
vn 0.923874 -0.288561 0.251375
vn -0.382689 -0.694481 0.609299
vn 0.382689 -0.694481 0.609299
vn -0.382689 -0.694481 0.609299
vn -0.269207 -0.957517 -0.103385
vn 0.269207 -0.957517 -0.103385
vn 0.382689 -0.694481 0.609299
vn -0.923874 -0.288561 0.251375
vn -0.382689 -0.694481 0.609299
vn -0.923874 -0.288561 0.251375
vn -0.649818 -0.672037 -0.355110
vn -0.382689 -0.694481 0.609299
vn -0.269207 -0.957517 -0.103385
vn -0.923874 0.285518 -0.254825
vn -0.923874 -0.288561 0.251375
vn -0.923874 0.285518 -0.254825
vn -0.923874 -0.288561 0.251375
vn -0.649818 -0.268194 -0.711202
vn -0.649818 -0.672037 -0.355110
vn -0.923874 0.285518 -0.254825
vn -0.382689 0.691439 -0.612749
vn -0.923874 0.285518 -0.254825
vn -0.649818 -0.268194 -0.711202
vn -0.382689 0.691439 -0.612749
vn -0.269207 0.017286 -0.962927
vn 0.000000 0.661371 0.750059
vn 0.269207 0.957517 0.103385
vn 0.649818 0.672037 0.355110
vn -0.269207 0.957517 0.103385
vn 0.000000 0.661371 0.750059
vn 0.269207 0.957517 0.103385
vn 0.000000 0.661371 0.750059
vn 0.649818 0.672037 0.355110
vn 0.649818 0.268194 0.711202
vn 0.000000 0.661371 0.750059
vn 0.269207 -0.017286 0.962927
vn 0.649818 0.268194 0.711202
vn -0.269207 -0.017286 0.962927
vn 0.000000 0.661371 0.750059
vn 0.269207 -0.017286 0.962927
vn -0.649818 0.268194 0.711202
vn -0.269207 -0.017286 0.962927
vn 0.000000 0.661371 0.750059
vn -0.649818 0.672037 0.355110
vn -0.649818 0.268194 0.711202
vn 0.000000 0.661371 0.750059
vn -0.649818 0.672037 0.355110
vn -0.269207 0.957517 0.103385
vn 0.000000 0.661371 0.750059
vn 0.269207 -0.957517 -0.103385
vn 0.369704 -0.840146 0.396830
vn 0.649818 -0.672037 -0.355110
vn 0.892610 -0.447936 0.050994
vn 0.382690 -0.692962 0.611026
vn 0.923877 -0.287040 0.253100
vn 0.269207 -0.017286 0.962927
vn 0.369704 -0.498874 0.783864
vn 0.649818 0.268194 0.711202
vn 0.892610 -0.106664 0.438029
vn -0.369704 -0.498874 0.783864
vn -0.269207 -0.017286 0.962927
vn 0.269207 -0.017286 0.962927
vn 0.369704 -0.498874 0.783864
vn -0.382690 -0.692962 0.611026
vn 0.382690 -0.692962 0.611026
vn -0.369704 -0.840146 0.396830
vn -0.269207 -0.957517 -0.103385
vn 0.269207 -0.957517 -0.103385
vn 0.369704 -0.840146 0.396830
vn -0.892610 0.106664 -0.438029
vn -0.892610 -0.447936 0.050994
vn -0.649818 -0.268194 -0.711202
vn -0.649818 -0.672037 -0.355110
vn -0.923877 0.287040 -0.253100
vn -0.923877 -0.287040 0.253100
vn -0.892610 0.447936 -0.050994
vn -0.892610 -0.106664 0.438029
vn -0.649818 0.672037 0.355110
vn -0.649818 0.268194 0.711202
vn -0.892610 0.447936 -0.050994
vn -0.649818 0.672037 0.355110
vn -0.369704 0.840146 -0.396830
vn -0.269207 0.957517 0.103385
vn -0.923877 0.287040 -0.253100
vn -0.382690 0.692962 -0.611026
vn -0.892610 0.106664 -0.438029
vn -0.649818 -0.268194 -0.711202
vn -0.369704 0.498874 -0.783864
vn -0.269207 0.017286 -0.962927
vn 0.269207 0.017286 -0.962927
vn 0.369704 0.498874 -0.783864
vn 0.649818 -0.268194 -0.711202
vn 0.892610 0.106664 -0.438029
vn 0.382690 0.692962 -0.611026
vn 0.923877 0.287040 -0.253100
vn 0.269207 0.957517 0.103385
vn 0.369704 0.840146 -0.396830
vn 0.649818 0.672037 0.355110
vn 0.892610 0.447936 -0.050994
vn 0.649818 0.672037 0.355110
vn 0.649818 0.268194 0.711202
vn 0.892610 0.447936 -0.050994
vn 0.892610 -0.106664 0.438029
vn 0.923877 0.287040 -0.253100
vn 0.923877 -0.287040 0.253100
vn 0.649818 -0.268194 -0.711202
vn 0.649818 -0.672037 -0.355110
vn 0.892610 0.106664 -0.438029
vn 0.892610 -0.447936 0.050994
vn -0.892610 -0.106664 0.438029
vn -0.649818 0.268194 0.711202
vn -0.369704 -0.498874 0.783864
vn -0.269207 -0.017286 0.962927
vn -0.923877 -0.287040 0.253100
vn -0.382690 -0.692962 0.611026
vn -0.892610 -0.447936 0.050994
vn -0.649818 -0.672037 -0.355110
vn -0.369704 -0.840146 0.396830
vn -0.269207 -0.957517 -0.103385
vn -0.369704 0.840146 -0.396830
vn -0.269207 0.957517 0.103385
vn 0.269207 0.957517 0.103385
vn 0.369704 0.840146 -0.396830
vn -0.382690 0.692962 -0.611026
vn 0.382690 0.692962 -0.611026
vn -0.369704 0.498874 -0.783864
vn -0.269207 0.017286 -0.962927
vn 0.269207 0.017286 -0.962927
vn 0.369704 0.498874 -0.783864
f 2/2/2 6/6/6 10/10/10
f 2/2/2 10/10/10 7/7/7
f 8/8/8 12/12/12 17/17/17
f 8/8/8 17/17/17 13/13/13
f 14/14/14 18/18/18 24/24/24
f 14/14/14 24/24/24 20/20/20
f 19/19/19 22/22/22 30/30/30
f 19/19/19 30/30/30 26/26/26
f 25/25/25 27/27/27 35/35/35
f 25/25/25 35/35/35 32/32/32
f 31/31/31 33/33/33 40/40/40
f 31/31/31 40/40/40 38/38/38
f 85/85/85 79/79/79 59/59/59
f 85/85/85 59/59/59 63/63/63
f 37/37/37 39/39/39 45/45/45
f 37/37/37 45/45/45 43/43/43
f 44/44/44 47/47/47 3/3/3
f 44/44/44 3/3/3 1/1/1
f 55/55/55 49/49/49 53/53/53
f 53/53/53 72/72/72 69/69/69
f 69/69/69 66/66/66 62/62/62
f 62/62/62 58/58/58 55/55/55
f 55/55/55 53/53/53 69/69/69
f 69/69/69 62/62/62 55/55/55
f 104/104/104 101/101/101 67/67/67
f 104/104/104 67/67/67 70/70/70
f 123/123/123 121/121/121 51/51/51
f 123/123/123 51/51/51 56/56/56
f 136/136/136 84/84/84 61/61/61
f 136/136/136 61/61/61 65/65/65
f 144/144/144 106/106/106 71/71/71
f 144/144/144 71/71/71 52/52/52
f 119/119/119 145/145/145 54/54/54
f 119/119/119 54/54/54 50/50/50
f 81/81/81 124/124/124 57/57/57
f 81/81/81 57/57/57 60/60/60
f 102/102/102 134/134/134 64/64/64
f 102/102/102 64/64/64 68/68/68
f 42/42/42 34/34/34 140/140/140
f 42/42/42 140/140/140 96/96/96
f 94/94/94 139/139/139 137/137/137
f 94/94/94 137/137/137 98/98/98
f 98/98/98 137/137/137 133/133/133
f 98/98/98 133/133/133 100/100/100
f 23/23/23 16/16/16 130/130/130
f 23/23/23 130/130/130 75/75/75
f 76/76/76 132/132/132 128/128/128
f 76/76/76 128/128/128 78/78/78
f 78/78/78 128/128/128 126/126/126
f 78/78/78 126/126/126 82/82/82
f 9/9/9 5/5/5 151/151/151
f 9/9/9 151/151/151 113/113/113
f 114/114/114 152/152/152 148/148/148
f 114/114/114 148/148/148 117/117/117
f 117/117/117 148/148/148 146/146/146
f 117/117/117 146/146/146 120/120/120
f 4/4/4 48/48/48 112/112/112
f 4/4/4 112/112/112 150/150/150
f 149/149/149 111/111/111 108/108/108
f 149/149/149 108/108/108 147/147/147
f 147/147/147 108/108/108 105/105/105
f 147/147/147 105/105/105 143/143/143
f 36/36/36 28/28/28 90/90/90
f 36/36/36 90/90/90 142/142/142
f 141/141/141 89/89/89 87/87/87
f 141/141/141 87/87/87 138/138/138
f 138/138/138 87/87/87 83/83/83
f 138/138/138 83/83/83 135/135/135
f 15/15/15 11/11/11 115/115/115
f 15/15/15 115/115/115 129/129/129
f 131/131/131 116/116/116 118/118/118
f 131/131/131 118/118/118 127/127/127
f 127/127/127 118/118/118 122/122/122
f 127/127/127 122/122/122 125/125/125
f 46/46/46 41/41/41 95/95/95
f 46/46/46 95/95/95 110/110/110
f 109/109/109 93/93/93 97/97/97
f 109/109/109 97/97/97 107/107/107
f 107/107/107 97/97/97 99/99/99
f 107/107/107 99/99/99 103/103/103
f 29/29/29 21/21/21 73/73/73
f 29/29/29 73/73/73 91/91/91
f 92/92/92 74/74/74 77/77/77
f 92/92/92 77/77/77 88/88/88
f 88/88/88 77/77/77 80/80/80
f 88/88/88 80/80/80 86/86/86
