# generated by the editor's model importer
v -1.341186 2.003175 0.107288 1.000000 1.000000 1.000000 1.000000
v -1.149376 1.886403 0.103188 1.000000 1.000000 1.000000 1.000000
v -0.927486 2.004066 0.093079 1.000000 1.000000 1.000000 1.000000
v -1.085367 2.139587 0.093746 1.000000 1.000000 1.000000 1.000000
v -0.969040 1.775504 0.099728 1.000000 1.000000 1.000000 1.000000
v -0.780300 1.872207 0.092813 1.000000 1.000000 1.000000 1.000000
v -0.639809 2.080521 0.075030 1.000000 1.000000 1.000000 1.000000
v -0.752303 2.229457 0.070000 1.000000 1.000000 1.000000 1.000000
v -0.534829 1.932790 0.080110 1.000000 1.000000 1.000000 1.000000
v -0.811652 1.676353 0.097549 1.000000 1.000000 1.000000 1.000000
v -0.698310 1.603609 0.096088 1.000000 1.000000 1.000000 1.000000
v -0.566296 1.623788 0.094414 1.000000 1.000000 1.000000 1.000000
v -0.654506 1.747676 0.093349 1.000000 1.000000 1.000000 1.000000
v -0.378826 1.643177 0.090436 1.000000 1.000000 1.000000 1.000000
v -0.444872 1.787470 0.085285 1.000000 1.000000 1.000000 1.000000
v 0.046868 1.661418 0.076932 1.000000 1.000000 1.000000 1.000000
v 0.044965 1.817865 0.063550 1.000000 1.000000 1.000000 1.000000
v -0.206315 1.810123 0.074983 1.000000 1.000000 1.000000 1.000000
v -0.170435 1.656171 0.084698 1.000000 1.000000 1.000000 1.000000
v 0.042083 1.976431 0.048730 1.000000 1.000000 1.000000 1.000000
v -0.254143 1.965723 0.064498 1.000000 1.000000 1.000000 1.000000
v 0.038548 2.136410 0.032949 1.000000 1.000000 1.000000 1.000000
v 0.034686 2.297096 0.016690 1.000000 1.000000 1.000000 1.000000
v -0.369712 2.279666 0.042248 1.000000 1.000000 1.000000 1.000000
v -0.309936 2.122419 0.053501 1.000000 1.000000 1.000000 1.000000
v -1.529318 1.082892 0.044155 1.000000 1.000000 1.000000 1.000000
v -1.474823 0.838977 0.022411 1.000000 1.000000 1.000000 1.000000
v -1.281710 0.865559 0.032616 1.000000 1.000000 1.000000 1.000000
v -1.324944 1.079846 0.052071 1.000000 1.000000 1.000000 1.000000
v -1.390849 0.613551 0.002098 1.000000 1.000000 1.000000 1.000000
v -1.212277 0.667820 0.013685 1.000000 1.000000 1.000000 1.000000
v -1.088823 0.890301 0.042665 1.000000 1.000000 1.000000 1.000000
v -1.121353 1.077017 0.060016 1.000000 1.000000 1.000000 1.000000
v -1.034529 0.718449 0.024970 1.000000 1.000000 1.000000 1.000000
v -1.267080 0.414681 -0.017643 1.000000 1.000000 1.000000 1.000000
v -1.093197 0.250433 -0.037670 1.000000 1.000000 1.000000 1.000000
v -0.956731 0.351359 -0.022793 1.000000 1.000000 1.000000 1.000000
v -1.107125 0.493972 -0.004768 1.000000 1.000000 1.000000 1.000000
v -0.826761 0.447091 -0.008266 1.000000 1.000000 1.000000 1.000000
v -0.950908 0.568251 0.007720 1.000000 1.000000 1.000000 1.000000
v -0.623396 0.594674 0.016071 1.000000 1.000000 1.000000 1.000000
v -0.652080 0.676064 0.028614 1.000000 1.000000 1.000000 1.000000
v -0.802169 0.632505 0.019434 1.000000 1.000000 1.000000 1.000000
v -0.709785 0.532434 0.005559 1.000000 1.000000 1.000000 1.000000
v -0.681658 0.792815 0.045080 1.000000 1.000000 1.000000 1.000000
v -0.858428 0.761799 0.035650 1.000000 1.000000 1.000000 1.000000
v -0.704638 0.926903 0.061679 1.000000 1.000000 1.000000 1.000000
v -0.719651 1.072866 0.076115 1.000000 1.000000 1.000000 1.000000
v -0.919327 1.074618 0.068021 1.000000 1.000000 1.000000 1.000000
v -0.896390 0.911363 0.052404 1.000000 1.000000 1.000000 1.000000
v 1.120607 0.314183 -0.082684 1.000000 1.000000 1.000000 1.000000
v 0.992521 0.402106 -0.060368 1.000000 1.000000 1.000000 1.000000
v 0.802450 0.293458 -0.069618 1.000000 1.000000 1.000000 1.000000
v 0.903041 0.186828 -0.093937 1.000000 1.000000 1.000000 1.000000
v 0.870645 0.485866 -0.039076 1.000000 1.000000 1.000000 1.000000
v 0.708099 0.397505 -0.046024 1.000000 1.000000 1.000000 1.000000
v 0.573178 0.213746 -0.076222 1.000000 1.000000 1.000000 1.000000
v 0.642243 0.091435 -0.102806 1.000000 1.000000 1.000000 1.000000
v 0.508808 0.335141 -0.049967 1.000000 1.000000 1.000000 1.000000
v 0.761190 0.561296 -0.019833 1.000000 1.000000 1.000000 1.000000
v 0.680613 0.616652 -0.005863 1.000000 1.000000 1.000000 1.000000
v 0.571417 0.595700 -0.003108 1.000000 1.000000 1.000000 1.000000
v 0.626226 0.496382 -0.023879 1.000000 1.000000 1.000000 1.000000
v 0.415027 0.573560 0.000442 1.000000 1.000000 1.000000 1.000000
v 0.453831 0.454702 -0.024370 1.000000 1.000000 1.000000 1.000000
v 0.045389 0.548709 0.007242 1.000000 1.000000 1.000000 1.000000
v 0.044632 0.414761 -0.020611 1.000000 1.000000 1.000000 1.000000
v 0.256547 0.427340 -0.023246 1.000000 1.000000 1.000000 1.000000
v 0.236708 0.557134 0.004017 1.000000 1.000000 1.000000 1.000000
v 0.043502 0.278045 -0.048724 1.000000 1.000000 1.000000 1.000000
v 0.283793 0.295599 -0.050992 1.000000 1.000000 1.000000 1.000000
v 0.042123 0.139484 -0.077009 1.000000 1.000000 1.000000 1.000000
v 0.040620 0.000000 -0.105381 1.000000 1.000000 1.000000 1.000000
v 0.350631 0.028871 -0.107288 1.000000 1.000000 1.000000 1.000000
v 0.315978 0.162560 -0.079060 1.000000 1.000000 1.000000 1.000000
v 1.529858 1.102983 -0.040531 1.000000 1.000000 1.000000 1.000000
v 1.564654 1.354234 -0.034046 1.000000 1.000000 1.000000 1.000000
v 1.364794 1.316359 -0.014114 1.000000 1.000000 1.000000 1.000000
v 1.337571 1.095582 -0.019550 1.000000 1.000000 1.000000 1.000000
v 1.561466 1.604852 -0.029182 1.000000 1.000000 1.000000 1.000000
v 1.359690 1.535954 -0.010586 1.000000 1.000000 1.000000 1.000000
v 1.166337 1.281074 0.005639 1.000000 1.000000 1.000000 1.000000
v 1.146285 1.088627 0.001151 1.000000 1.000000 1.000000 1.000000
v 1.160886 1.471691 0.007809 1.000000 1.000000 1.000000 1.000000
v 1.499770 1.835747 -0.025272 1.000000 1.000000 1.000000 1.000000
v 1.359043 2.027826 -0.021648 1.000000 1.000000 1.000000 1.000000
v 1.181850 1.904892 -0.004673 1.000000 1.000000 1.000000 1.000000
v 1.304597 1.737693 -0.007820 1.000000 1.000000 1.000000 1.000000
v 1.014819 1.788461 0.011626 1.000000 1.000000 1.000000 1.000000
v 1.116371 1.645935 0.009195 1.000000 1.000000 1.000000 1.000000
v 0.761747 1.609586 0.037490 1.000000 1.000000 1.000000 1.000000
v 0.774128 1.512763 0.040495 1.000000 1.000000 1.000000 1.000000
v 0.942042 1.566771 0.025336 1.000000 1.000000 1.000000 1.000000
v 0.868111 1.685038 0.026572 1.000000 1.000000 1.000000 1.000000
v 0.780472 1.377164 0.043270 1.000000 1.000000 1.000000 1.000000
v 0.968025 1.416694 0.025801 1.000000 1.000000 1.000000 1.000000
v 0.779245 1.228634 0.043893 1.000000 1.000000 1.000000 1.000000
v 0.770713 1.077840 0.040591 1.000000 1.000000 1.000000 1.000000
v 0.956999 1.082564 0.021291 1.000000 1.000000 1.000000 1.000000
v 0.970687 1.250968 0.025034 1.000000 1.000000 1.000000 1.000000
v -0.505134 0.577342 0.014178 1.000000 1.000000 1.000000 1.000000
v -0.491816 0.688255 0.033501 1.000000 1.000000 1.000000 1.000000
v -0.337499 0.560774 0.011916 1.000000 1.000000 1.000000 1.000000
v -0.321040 0.684497 0.035537 1.000000 1.000000 1.000000 1.000000
v -0.501900 0.806443 0.052614 1.000000 1.000000 1.000000 1.000000
v -0.319926 0.809480 0.057897 1.000000 1.000000 1.000000 1.000000
v -0.150002 0.550576 0.009739 1.000000 1.000000 1.000000 1.000000
v 0.045650 0.678968 0.034750 1.000000 1.000000 1.000000 1.000000
v -0.139415 0.680213 0.036168 1.000000 1.000000 1.000000 1.000000
v 0.045653 0.808001 0.059774 1.000000 1.000000 1.000000 1.000000
v -0.136506 0.808722 0.060576 1.000000 1.000000 1.000000 1.000000
v 0.045845 1.072242 0.093830 1.000000 1.000000 1.000000 1.000000
v -0.140167 1.071890 0.094771 1.000000 1.000000 1.000000 1.000000
v -0.137887 0.938486 0.080824 1.000000 1.000000 1.000000 1.000000
v 0.045638 0.938271 0.080180 1.000000 1.000000 1.000000 1.000000
v -0.329881 1.071727 0.091076 1.000000 1.000000 1.000000 1.000000
v -0.324619 0.938184 0.077128 1.000000 1.000000 1.000000 1.000000
v -0.523105 1.071978 0.084329 1.000000 1.000000 1.000000 1.000000
v -0.513792 0.935083 0.070333 1.000000 1.000000 1.000000 1.000000
v 0.638893 1.628410 0.045371 1.000000 1.000000 1.000000 1.000000
v 0.605152 1.496475 0.054566 1.000000 1.000000 1.000000 1.000000
v 0.461853 1.646084 0.055882 1.000000 1.000000 1.000000 1.000000
v 0.429692 1.499886 0.067506 1.000000 1.000000 1.000000 1.000000
v 0.597592 1.359301 0.060098 1.000000 1.000000 1.000000 1.000000
v 0.416160 1.354965 0.075265 1.000000 1.000000 1.000000 1.000000
v 0.261071 1.657572 0.066864 1.000000 1.000000 1.000000 1.000000
v 0.047466 1.507799 0.088394 1.000000 1.000000 1.000000 1.000000
v 0.242328 1.504975 0.079274 1.000000 1.000000 1.000000 1.000000
v 0.047200 1.357840 0.096193 1.000000 1.000000 1.000000 1.000000
v 0.232952 1.356018 0.087756 1.000000 1.000000 1.000000 1.000000
v 0.227966 1.072556 0.086665 1.000000 1.000000 1.000000 1.000000
v 0.229359 1.211583 0.090742 1.000000 1.000000 1.000000 1.000000
v 0.046513 1.212376 0.098586 1.000000 1.000000 1.000000 1.000000
v 0.408169 1.073292 0.074553 1.000000 1.000000 1.000000 1.000000
v 0.410890 1.211994 0.078106 1.000000 1.000000 1.000000 1.000000
v 0.588427 1.074902 0.058770 1.000000 1.000000 1.000000 1.000000
v 0.593416 1.216660 0.062037 1.000000 1.000000 1.000000 1.000000
v -0.525455 1.214931 0.092268 1.000000 1.000000 1.000000 1.000000
v -0.725327 1.225244 0.086093 1.000000 1.000000 1.000000 1.000000
v -0.330472 1.211228 0.097585 1.000000 1.000000 1.000000 1.000000
v -0.526492 1.357655 0.095590 1.000000 1.000000 1.000000 1.000000
v -0.722757 1.373760 0.092337 1.000000 1.000000 1.000000 1.000000
v -0.333377 1.354295 0.098444 1.000000 1.000000 1.000000 1.000000
v -0.139957 1.211317 0.100279 1.000000 1.000000 1.000000 1.000000
v -0.141861 1.355811 0.099200 1.000000 1.000000 1.000000 1.000000
v -0.150485 1.504415 0.093389 1.000000 1.000000 1.000000 1.000000
v -0.345578 1.498531 0.095441 1.000000 1.000000 1.000000 1.000000
v -0.713028 1.508142 0.095570 1.000000 1.000000 1.000000 1.000000
v -0.531866 1.493860 0.095733 1.000000 1.000000 1.000000 1.000000
v 0.578427 0.940371 0.048685 1.000000 1.000000 1.000000 1.000000
v 0.755140 0.935451 0.031590 1.000000 1.000000 1.000000 1.000000
v 0.402281 0.941174 0.063133 1.000000 1.000000 1.000000 1.000000
v 0.567132 0.815085 0.033858 1.000000 1.000000 1.000000 1.000000
v 0.733418 0.806099 0.019093 1.000000 1.000000 1.000000 1.000000
v 0.397770 0.814678 0.045758 1.000000 1.000000 1.000000 1.000000
v 0.225189 0.939820 0.073957 1.000000 1.000000 1.000000 1.000000
v 0.223844 0.811152 0.054616 1.000000 1.000000 1.000000 1.000000
v 0.226746 0.684330 0.030637 1.000000 1.000000 1.000000 1.000000
v 0.399179 0.692846 0.024339 1.000000 1.000000 1.000000 1.000000
v 0.706437 0.694422 0.005297 1.000000 1.000000 1.000000 1.000000
v 0.558257 0.701064 0.016366 1.000000 1.000000 1.000000 1.000000
v 1.282525 0.472635 -0.071049 1.000000 1.000000 1.000000 1.000000
v 1.132115 0.540106 -0.049591 1.000000 1.000000 1.000000 1.000000
v 1.398341 0.659025 -0.059700 1.000000 1.000000 1.000000 1.000000
v 1.230185 0.703994 -0.038433 1.000000 1.000000 1.000000 1.000000
v 0.985426 0.603403 -0.029037 1.000000 1.000000 1.000000 1.000000
v 1.063091 0.745841 -0.017782 1.000000 1.000000 1.000000 1.000000
v 1.477603 0.870194 -0.049305 1.000000 1.000000 1.000000 1.000000
v 1.295687 0.890306 -0.028038 1.000000 1.000000 1.000000 1.000000
v 1.114290 0.908899 -0.007188 1.000000 1.000000 1.000000 1.000000
v 0.933935 0.924454 0.012827 1.000000 1.000000 1.000000 1.000000
v 0.898120 0.781447 0.001636 1.000000 1.000000 1.000000 1.000000
v 0.846180 0.658356 -0.010289 1.000000 1.000000 1.000000 1.000000
v -0.858883 0.128874 -0.058842 1.000000 1.000000 1.000000 1.000000
v -0.751573 0.247324 -0.040436 1.000000 1.000000 1.000000 1.000000
v -0.580739 0.047970 -0.078773 1.000000 1.000000 1.000000 1.000000
v -0.506688 0.179146 -0.056291 1.000000 1.000000 1.000000 1.000000
v -0.650887 0.362350 -0.022166 1.000000 1.000000 1.000000 1.000000
v -0.437702 0.308909 -0.033751 1.000000 1.000000 1.000000 1.000000
v -0.275371 0.005689 -0.095081 1.000000 1.000000 1.000000 1.000000
v -0.237110 0.144106 -0.068951 1.000000 1.000000 1.000000 1.000000
v -0.201617 0.281645 -0.042790 1.000000 1.000000 1.000000 1.000000
v -0.171659 0.417427 -0.016570 1.000000 1.000000 1.000000 1.000000
v -0.378846 0.435848 -0.011098 1.000000 1.000000 1.000000 1.000000
v -0.563449 0.470532 -0.004169 1.000000 1.000000 1.000000 1.000000
v 1.118760 2.161999 -0.017643 1.000000 1.000000 1.000000 1.000000
v 0.973788 2.020874 0.000000 1.000000 1.000000 1.000000 1.000000
v 0.802333 2.246265 -0.011253 1.000000 1.000000 1.000000 1.000000
v 0.700494 2.093127 0.007176 1.000000 1.000000 1.000000 1.000000
v 0.838258 1.883925 0.016932 1.000000 1.000000 1.000000 1.000000
v 0.605202 1.941498 0.024959 1.000000 1.000000 1.000000 1.000000
v 0.433171 2.288630 -0.000476 1.000000 1.000000 1.000000 1.000000
v 0.382052 2.129143 0.017834 1.000000 1.000000 1.000000 1.000000
v 0.334171 1.970345 0.035554 1.000000 1.000000 1.000000 1.000000
v 0.292764 1.812924 0.052094 1.000000 1.000000 1.000000 1.000000
v 0.523006 1.792885 0.041447 1.000000 1.000000 1.000000 1.000000
v 0.721610 1.755333 0.032441 1.000000 1.000000 1.000000 1.000000
v -1.492039 1.813335 0.104427 1.000000 1.000000 1.000000 1.000000
v -1.281893 1.720884 0.100899 1.000000 1.000000 1.000000 1.000000
v -1.559378 1.586035 0.089836 1.000000 1.000000 1.000000 1.000000
v -1.343210 1.521775 0.089455 1.000000 1.000000 1.000000 1.000000
v -1.079534 1.634216 0.097974 1.000000 1.000000 1.000000 1.000000
v -1.130255 1.461823 0.089496 1.000000 1.000000 1.000000 1.000000
v -1.564654 1.337233 0.068188 1.000000 1.000000 1.000000 1.000000
v -1.351502 1.303341 0.072098 1.000000 1.000000 1.000000 1.000000
v -1.139679 1.271807 0.076234 1.000000 1.000000 1.000000 1.000000
v -0.930511 1.244987 0.080824 1.000000 1.000000 1.000000 1.000000
v -0.923725 1.410483 0.090381 1.000000 1.000000 1.000000 1.000000
v -0.892748 1.559114 0.096258 1.000000 1.000000 1.000000 1.000000
vt 0.065524 0.080565
vt 0.104733 0.104383
vt 0.150073 0.080301
vt 0.117815 0.052636
vt 0.141592 0.127001
vt 0.180139 0.107215
vt 0.208903 0.064579
vt 0.185969 0.034122
vt 0.230300 0.094778
vt 0.173752 0.147217
vt 0.196905 0.162043
vt 0.223841 0.157900
vt 0.205828 0.132628
vt 0.262080 0.153920
vt 0.248628 0.124467
vt 0.348844 0.150209
vt 0.348587 0.118228
vt 0.297320 0.119811
vt 0.304563 0.151263
vt 0.348152 0.085762
vt 0.287652 0.087981
vt 0.347598 0.052967
vt 0.346986 0.020000
vt 0.264271 0.023672
vt 0.276367 0.055893
vt 0.027240 0.269150
vt 0.038420 0.319188
vt 0.077909 0.313542
vt 0.069035 0.269587
vt 0.055633 0.365434
vt 0.092138 0.354118
vt 0.117338 0.308270
vt 0.110656 0.269976
vt 0.128461 0.343548
vt 0.080977 0.406260
vt 0.116555 0.440052
vt 0.144426 0.419171
vt 0.113662 0.389824
vt 0.170960 0.399356
vt 0.145573 0.374416
vt 0.212451 0.368765
vt 0.206578 0.351966
vt 0.175944 0.361063
vt 0.194830 0.381671
vt 0.200522 0.327913
vt 0.164433 0.334467
vt 0.195813 0.300354
vt 0.192720 0.270438
vt 0.151941 0.270274
vt 0.156657 0.303749
vt 0.568757 0.426577
vt 0.542376 0.408344
vt 0.503705 0.430872
vt 0.524475 0.453013
vt 0.517294 0.390979
vt 0.484231 0.409277
vt 0.456989 0.447514
vt 0.471316 0.472964
vt 0.443636 0.422270
vt 0.494785 0.375345
vt 0.478230 0.363880
vt 0.455970 0.368177
vt 0.467331 0.388762
vt 0.424103 0.372740
vt 0.432214 0.397421
vt 0.348813 0.377933
vt 0.348809 0.405813
vt 0.392011 0.403145
vt 0.387780 0.376148
vt 0.348735 0.434285
vt 0.397759 0.430565
vt 0.348613 0.463157
vt 0.348467 0.492241
vt 0.411802 0.486137
vt 0.404525 0.458275
vt 0.651867 0.264820
vt 0.658963 0.213486
vt 0.617932 0.221096
vt 0.612364 0.266176
vt 0.658351 0.162302
vt 0.616951 0.176266
vt 0.577212 0.228167
vt 0.573094 0.267434
vt 0.576176 0.189276
vt 0.645840 0.115135
vt 0.617225 0.075832
vt 0.580844 0.100859
vt 0.605797 0.135062
vt 0.546557 0.124559
vt 0.567190 0.153702
vt 0.494628 0.160960
vt 0.497059 0.180712
vt 0.531447 0.169772
vt 0.516447 0.145608
vt 0.498237 0.208348
vt 0.536644 0.200389
vt 0.497892 0.238598
vt 0.496118 0.269309
vt 0.534274 0.268507
vt 0.537100 0.234175
vt 0.236589 0.372284
vt 0.239272 0.349319
vt 0.270785 0.375625
vt 0.274085 0.349948
vt 0.237191 0.324915
vt 0.274266 0.324096
vt 0.309007 0.377637
vt 0.348722 0.350833
vt 0.311069 0.350686
vt 0.348597 0.324119
vt 0.311582 0.324079
vt 0.348455 0.270040
vt 0.310715 0.270161
vt 0.311234 0.297395
vt 0.348487 0.297355
vt 0.272167 0.270312
vt 0.273276 0.297618
vt 0.232817 0.270426
vt 0.234746 0.298457
vt 0.469550 0.157071
vt 0.462515 0.183966
vt 0.433433 0.153407
vt 0.426708 0.183219
vt 0.460839 0.211901
vt 0.423811 0.212718
vt 0.392497 0.151019
vt 0.348860 0.181552
vt 0.388526 0.182148
vt 0.348739 0.212069
vt 0.386501 0.212461
vt 0.385420 0.270005
vt 0.385703 0.241787
vt 0.348572 0.241598
vt 0.422073 0.269947
vt 0.422645 0.241770
vt 0.458841 0.269753
vt 0.459887 0.240918
vt 0.232284 0.241259
vt 0.191510 0.239291
vt 0.271993 0.241907
vt 0.232019 0.212166
vt 0.191981 0.208963
vt 0.271360 0.212794
vt 0.310723 0.241829
vt 0.310318 0.212465
vt 0.308579 0.182217
vt 0.268854 0.183417
vt 0.193924 0.181530
vt 0.230885 0.184397
vt 0.456886 0.297195
vt 0.493013 0.298370
vt 0.420963 0.296883
vt 0.454734 0.322876
vt 0.488718 0.324861
vt 0.420199 0.322836
vt 0.384940 0.297060
vt 0.384806 0.323479
vt 0.385566 0.349713
vt 0.420674 0.347996
vt 0.483372 0.347826
vt 0.453103 0.346374
vt 0.601663 0.393919
vt 0.570724 0.379909
vt 0.625172 0.355662
vt 0.590603 0.346273
vt 0.540578 0.366763
vt 0.556286 0.337526
vt 0.641254 0.312422
vt 0.603868 0.308131
vt 0.566621 0.304150
vt 0.529631 0.300792
vt 0.522446 0.330066
vt 0.511995 0.355344
vt 0.164489 0.465211
vt 0.186381 0.440675
vt 0.221391 0.482082
vt 0.236454 0.454846
vt 0.206910 0.416846
vt 0.250473 0.427908
vt 0.283855 0.490990
vt 0.291560 0.462178
vt 0.298694 0.433562
vt 0.304697 0.405321
vt 0.262417 0.401557
vt 0.224725 0.394421
vt 0.568280 0.048235
vt 0.538459 0.077028
vt 0.503747 0.030754
vt 0.482728 0.062077
vt 0.510586 0.104965
vt 0.463062 0.093076
vt 0.428395 0.021849
vt 0.417744 0.054539
vt 0.407768 0.087065
vt 0.399131 0.119275
vt 0.446090 0.123440
vt 0.486594 0.131192
vt 0.034753 0.119382
vt 0.077704 0.138228
vt 0.021048 0.165925
vt 0.065229 0.178983
vt 0.119060 0.155887
vt 0.108749 0.191153
vt 0.020000 0.216948
vt 0.063576 0.223748
vt 0.106872 0.230059
vt 0.149610 0.235399
vt 0.150945 0.201554
vt 0.157224 0.171175
vn 0.018018 -0.002141 0.999835
vn 0.020037 0.003669 0.999793
vn 0.039574 0.043368 0.998275
vn 0.039594 0.040102 0.998411
vn 0.016083 0.003170 0.999866
vn 0.032745 0.038080 0.998738
vn 0.050661 0.071157 0.996178
vn 0.052878 0.070898 0.996081
vn 0.042979 0.064348 0.997002
vn 0.011833 0.003225 0.999925
vn 0.008504 0.003513 0.999958
vn 0.014463 0.021697 0.999660
vn 0.025195 0.031654 0.999181
vn 0.020897 0.043886 0.998818
vn 0.033505 0.055021 0.997923
vn 0.040996 0.076752 0.996207
vn 0.045119 0.086244 0.995252
vn 0.039616 0.074720 0.996417
vn 0.029087 0.064389 0.997501
vn 0.048132 0.093182 0.994485
vn 0.047970 0.083151 0.995382
vn 0.050230 0.097503 0.993967
vn 0.051113 0.098980 0.993776
vn 0.057363 0.090319 0.994259
vn 0.054421 0.089019 0.994542
vn -0.037947 -0.097072 0.994554
vn -0.037682 -0.101080 0.994164
vn -0.037385 -0.102759 0.994003
vn -0.038070 -0.095647 0.994687
vn -0.030959 -0.110535 0.993390
vn -0.030082 -0.113753 0.993053
vn -0.037302 -0.106083 0.993657
vn -0.038093 -0.092587 0.994976
vn -0.029729 -0.119942 0.992336
vn -0.019306 -0.124642 0.992014
vn -0.004095 -0.143404 0.989656
vn -0.002711 -0.147160 0.989109
vn -0.017964 -0.128394 0.991561
vn -0.004974 -0.150892 0.988538
vn -0.018224 -0.134540 0.990741
vn -0.010682 -0.160765 0.986935
vn -0.019426 -0.152297 0.988144
vn -0.019149 -0.141940 0.989690
vn -0.007955 -0.155900 0.987741
vn -0.029887 -0.137497 0.990051
vn -0.029781 -0.127487 0.991393
vn -0.038003 -0.115483 0.992582
vn -0.039136 -0.084647 0.995642
vn -0.038396 -0.088852 0.995305
vn -0.037492 -0.110238 0.993198
vn 0.064246 -0.158701 0.985234
vn 0.061798 -0.162268 0.984810
vn 0.044887 -0.182549 0.982172
vn 0.045955 -0.181104 0.982390
vn 0.061498 -0.163826 0.984571
vn 0.046266 -0.182075 0.982196
vn 0.033270 -0.194203 0.980397
vn 0.033270 -0.193918 0.980453
vn 0.035080 -0.193583 0.980457
vn 0.061016 -0.165323 0.984350
vn 0.060900 -0.167150 0.984049
vn 0.053409 -0.178216 0.982541
vn 0.048313 -0.180871 0.982319
vn 0.043509 -0.190745 0.980675
vn 0.038037 -0.192385 0.980582
vn 0.018355 -0.202690 0.979071
vn 0.020176 -0.200367 0.979513
vn 0.028832 -0.199695 0.979434
vn 0.031959 -0.200261 0.979221
vn 0.022431 -0.198941 0.979755
vn 0.027248 -0.199385 0.979542
vn 0.024616 -0.198227 0.979847
vn 0.025668 -0.197978 0.979870
vn 0.026362 -0.199142 0.979616
vn 0.026500 -0.199213 0.979598
vn 0.108909 -0.049375 0.992825
vn 0.103243 -0.025735 0.994323
vn 0.103370 -0.025756 0.994309
vn 0.108448 -0.050453 0.992821
vn 0.092550 -0.002354 0.995705
vn 0.092967 -0.002073 0.995667
vn 0.102007 -0.021611 0.994549
vn 0.106766 -0.049730 0.993040
vn 0.092269 0.002335 0.995731
vn 0.079430 0.021230 0.996614
vn 0.064944 0.046233 0.996817
vn 0.064411 0.048496 0.996744
vn 0.079626 0.022047 0.996581
vn 0.067542 0.047679 0.996577
vn 0.080387 0.024639 0.996459
vn 0.073104 0.046472 0.996241
vn 0.080888 0.033265 0.996168
vn 0.081339 0.027611 0.996304
vn 0.070799 0.047105 0.996378
vn 0.090122 0.014080 0.995831
vn 0.091455 0.007361 0.995782
vn 0.097878 -0.012451 0.995121
vn 0.100356 -0.050968 0.993645
vn 0.104069 -0.049636 0.993331
vn 0.100156 -0.017067 0.994825
vn -0.006905 -0.171381 0.985181
vn -0.017287 -0.166775 0.985843
vn -0.001824 -0.184597 0.982813
vn -0.011317 -0.180860 0.983444
vn -0.027677 -0.149925 0.988310
vn -0.019756 -0.161338 0.986701
vn 0.006025 -0.196554 0.980474
vn 0.017494 -0.196225 0.980403
vn -0.000273 -0.191832 0.981428
vn 0.017907 -0.170766 0.985149
vn -0.004955 -0.168946 0.985613
vn 0.022455 -0.067510 0.997466
vn -0.006231 -0.071756 0.997403
vn -0.007169 -0.128217 0.991720
vn 0.019632 -0.127004 0.991708
vn -0.025620 -0.075901 0.996786
vn -0.025204 -0.125970 0.991714
vn -0.036375 -0.080235 0.996112
vn -0.035273 -0.121285 0.991991
vn 0.068353 0.056993 0.996032
vn 0.076991 0.043868 0.996066
vn 0.061949 0.068887 0.995699
vn 0.068760 0.054906 0.996121
vn 0.085591 0.022795 0.996070
vn 0.074530 0.030719 0.996746
vn 0.053214 0.077354 0.995583
vn 0.036011 0.060494 0.997519
vn 0.055415 0.061909 0.996542
vn 0.030867 0.032322 0.999001
vn 0.056332 0.034692 0.997809
vn 0.052810 -0.062940 0.996619
vn 0.055538 -0.006130 0.998438
vn 0.026237 -0.009603 0.999610
vn 0.076338 -0.058209 0.995381
vn 0.077517 -0.005886 0.996974
vn 0.092262 -0.053977 0.994271
vn 0.091617 -0.008319 0.995760
vn -0.029272 -0.040270 0.998760
vn -0.031400 -0.054228 0.998035
vn -0.019667 -0.027260 0.999435
vn -0.016180 -0.012615 0.999790
vn -0.017974 -0.031740 0.999335
vn -0.008559 0.006558 0.999942
vn -0.001496 -0.016801 0.999858
vn 0.006655 0.022355 0.999728
vn 0.017388 0.048611 0.998666
vn 0.005815 0.029224 0.999556
vn -0.003583 -0.013074 0.999908
vn -0.000637 0.007197 0.999974
vn 0.086035 -0.102550 0.991000
vn 0.095092 -0.092534 0.991158
vn 0.070332 -0.113013 0.991101
vn 0.075057 -0.140105 0.987288
vn 0.083889 -0.126123 0.988461
vn 0.061339 -0.154423 0.986099
vn 0.048077 -0.121678 0.991405
vn 0.042339 -0.165469 0.985306
vn 0.036700 -0.191984 0.980712
vn 0.051781 -0.180789 0.982158
vn 0.071051 -0.151965 0.985829
vn 0.063182 -0.166253 0.984057
vn 0.083058 -0.131070 0.987888
vn 0.080724 -0.135149 0.987531
vn 0.098021 -0.102371 0.989905
vn 0.096270 -0.106067 0.989688
vn 0.078843 -0.138953 0.987155
vn 0.093802 -0.110511 0.989439
vn 0.107148 -0.074593 0.991441
vn 0.106044 -0.077343 0.991349
vn 0.103825 -0.080498 0.991333
vn 0.100188 -0.085176 0.991316
vn 0.089766 -0.116455 0.989131
vn 0.075896 -0.143503 0.986735
vn 0.010848 -0.163665 0.986456
vn 0.010483 -0.165671 0.986125
vn 0.020378 -0.179417 0.983562
vn 0.018710 -0.180320 0.983430
vn 0.005988 -0.166814 0.985970
vn 0.013244 -0.180480 0.983490
vn 0.025417 -0.191114 0.981239
vn 0.023399 -0.191535 0.981207
vn 0.018479 -0.191897 0.981241
vn 0.012604 -0.193412 0.981037
vn 0.006592 -0.181803 0.983313
vn 0.000653 -0.169175 0.985586
vn 0.051412 0.071001 0.996150
vn 0.052066 0.072199 0.996030
vn 0.044034 0.088583 0.995095
vn 0.045824 0.088227 0.995046
vn 0.057020 0.068567 0.996016
vn 0.050593 0.083751 0.995202
vn 0.043405 0.098131 0.994227
vn 0.045013 0.096890 0.994277
vn 0.047644 0.092693 0.994554
vn 0.050453 0.086187 0.995001
vn 0.055801 0.077361 0.995440
vn 0.062046 0.064163 0.996009
vn -0.002394 -0.040008 0.999197
vn -0.001918 -0.037105 0.999310
vn -0.018773 -0.068709 0.997460
vn -0.018950 -0.066334 0.997618
vn -0.002727 -0.031799 0.999491
vn -0.018285 -0.057660 0.998169
vn -0.031172 -0.088421 0.995595
vn -0.031454 -0.085796 0.995816
vn -0.030873 -0.077399 0.996522
vn -0.030719 -0.066930 0.997285
vn -0.017982 -0.046776 0.998744
vn -0.003900 -0.025098 0.999677
f 1/1/1 2/2/2 3/3/3
f 1/1/1 3/3/3 4/4/4
f 2/2/2 5/5/5 6/6/6
f 2/2/2 6/6/6 3/3/3
f 4/4/4 3/3/3 7/7/7
f 4/4/4 7/7/7 8/8/8
f 3/3/3 6/6/6 9/9/9
f 3/3/3 9/9/9 7/7/7
f 10/10/10 11/11/11 12/12/12
f 10/10/10 12/12/12 13/13/13
f 13/13/13 12/12/12 14/14/14
f 13/13/13 14/14/14 15/15/15
f 5/5/5 10/10/10 13/13/13
f 5/5/5 13/13/13 6/6/6
f 6/6/6 13/13/13 15/15/15
f 6/6/6 15/15/15 9/9/9
f 16/16/16 17/17/17 18/18/18
f 16/16/16 18/18/18 19/19/19
f 17/17/17 20/20/20 21/21/21
f 17/17/17 21/21/21 18/18/18
f 19/19/19 18/18/18 15/15/15
f 19/19/19 15/15/15 14/14/14
f 18/18/18 21/21/21 9/9/9
f 18/18/18 9/9/9 15/15/15
f 22/22/22 23/23/23 24/24/24
f 22/22/22 24/24/24 25/25/25
f 25/25/25 24/24/24 8/8/8
f 25/25/25 8/8/8 7/7/7
f 20/20/20 22/22/22 25/25/25
f 20/20/20 25/25/25 21/21/21
f 21/21/21 25/25/25 7/7/7
f 21/21/21 7/7/7 9/9/9
f 26/26/26 27/27/27 28/28/28
f 26/26/26 28/28/28 29/29/29
f 27/27/27 30/30/30 31/31/31
f 27/27/27 31/31/31 28/28/28
f 29/29/29 28/28/28 32/32/32
f 29/29/29 32/32/32 33/33/33
f 28/28/28 31/31/31 34/34/34
f 28/28/28 34/34/34 32/32/32
f 35/35/35 36/36/36 37/37/37
f 35/35/35 37/37/37 38/38/38
f 38/38/38 37/37/37 39/39/39
f 38/38/38 39/39/39 40/40/40
f 30/30/30 35/35/35 38/38/38
f 30/30/30 38/38/38 31/31/31
f 31/31/31 38/38/38 40/40/40
f 31/31/31 40/40/40 34/34/34
f 41/41/41 42/42/42 43/43/43
f 41/41/41 43/43/43 44/44/44
f 42/42/42 45/45/45 46/46/46
f 42/42/42 46/46/46 43/43/43
f 44/44/44 43/43/43 40/40/40
f 44/44/44 40/40/40 39/39/39
f 43/43/43 46/46/46 34/34/34
f 43/43/43 34/34/34 40/40/40
f 47/47/47 48/48/48 49/49/49
f 47/47/47 49/49/49 50/50/50
f 50/50/50 49/49/49 33/33/33
f 50/50/50 33/33/33 32/32/32
f 45/45/45 47/47/47 50/50/50
f 45/45/45 50/50/50 46/46/46
f 46/46/46 50/50/50 32/32/32
f 46/46/46 32/32/32 34/34/34
f 51/51/51 52/52/52 53/53/53
f 51/51/51 53/53/53 54/54/54
f 52/52/52 55/55/55 56/56/56
f 52/52/52 56/56/56 53/53/53
f 54/54/54 53/53/53 57/57/57
f 54/54/54 57/57/57 58/58/58
f 53/53/53 56/56/56 59/59/59
f 53/53/53 59/59/59 57/57/57
f 60/60/60 61/61/61 62/62/62
f 60/60/60 62/62/62 63/63/63
f 63/63/63 62/62/62 64/64/64
f 63/63/63 64/64/64 65/65/65
f 55/55/55 60/60/60 63/63/63
f 55/55/55 63/63/63 56/56/56
f 56/56/56 63/63/63 65/65/65
f 56/56/56 65/65/65 59/59/59
f 66/66/66 67/67/67 68/68/68
f 66/66/66 68/68/68 69/69/69
f 67/67/67 70/70/70 71/71/71
f 67/67/67 71/71/71 68/68/68
f 69/69/69 68/68/68 65/65/65
f 69/69/69 65/65/65 64/64/64
f 68/68/68 71/71/71 59/59/59
f 68/68/68 59/59/59 65/65/65
f 72/72/72 73/73/73 74/74/74
f 72/72/72 74/74/74 75/75/75
f 75/75/75 74/74/74 58/58/58
f 75/75/75 58/58/58 57/57/57
f 70/70/70 72/72/72 75/75/75
f 70/70/70 75/75/75 71/71/71
f 71/71/71 75/75/75 57/57/57
f 71/71/71 57/57/57 59/59/59
f 76/76/76 77/77/77 78/78/78
f 76/76/76 78/78/78 79/79/79
f 77/77/77 80/80/80 81/81/81
f 77/77/77 81/81/81 78/78/78
f 79/79/79 78/78/78 82/82/82
f 79/79/79 82/82/82 83/83/83
f 78/78/78 81/81/81 84/84/84
f 78/78/78 84/84/84 82/82/82
f 85/85/85 86/86/86 87/87/87
f 85/85/85 87/87/87 88/88/88
f 88/88/88 87/87/87 89/89/89
f 88/88/88 89/89/89 90/90/90
f 80/80/80 85/85/85 88/88/88
f 80/80/80 88/88/88 81/81/81
f 81/81/81 88/88/88 90/90/90
f 81/81/81 90/90/90 84/84/84
f 91/91/91 92/92/92 93/93/93
f 91/91/91 93/93/93 94/94/94
f 92/92/92 95/95/95 96/96/96
f 92/92/92 96/96/96 93/93/93
f 94/94/94 93/93/93 90/90/90
f 94/94/94 90/90/90 89/89/89
f 93/93/93 96/96/96 84/84/84
f 93/93/93 84/84/84 90/90/90
f 97/97/97 98/98/98 99/99/99
f 97/97/97 99/99/99 100/100/100
f 100/100/100 99/99/99 83/83/83
f 100/100/100 83/83/83 82/82/82
f 95/95/95 97/97/97 100/100/100
f 95/95/95 100/100/100 96/96/96
f 96/96/96 100/100/100 82/82/82
f 96/96/96 82/82/82 84/84/84
f 41/41/41 101/101/101 102/102/102
f 41/41/41 102/102/102 42/42/42
f 101/101/101 103/103/103 104/104/104
f 101/101/101 104/104/104 102/102/102
f 42/42/42 102/102/102 105/105/105
f 42/42/42 105/105/105 45/45/45
f 102/102/102 104/104/104 106/106/106
f 102/102/102 106/106/106 105/105/105
f 107/107/107 66/66/66 108/108/108
f 107/107/107 108/108/108 109/109/109
f 109/109/109 108/108/108 110/110/110
f 109/109/109 110/110/110 111/111/111
f 103/103/103 107/107/107 109/109/109
f 103/103/103 109/109/109 104/104/104
f 104/104/104 109/109/109 111/111/111
f 104/104/104 111/111/111 106/106/106
f 112/112/112 113/113/113 114/114/114
f 112/112/112 114/114/114 115/115/115
f 113/113/113 116/116/116 117/117/117
f 113/113/113 117/117/117 114/114/114
f 115/115/115 114/114/114 111/111/111
f 115/115/115 111/111/111 110/110/110
f 114/114/114 117/117/117 106/106/106
f 114/114/114 106/106/106 111/111/111
f 118/118/118 48/48/48 47/47/47
f 118/118/118 47/47/47 119/119/119
f 119/119/119 47/47/47 45/45/45
f 119/119/119 45/45/45 105/105/105
f 116/116/116 118/118/118 119/119/119
f 116/116/116 119/119/119 117/117/117
f 117/117/117 119/119/119 105/105/105
f 117/117/117 105/105/105 106/106/106
f 91/91/91 120/120/120 121/121/121
f 91/91/91 121/121/121 92/92/92
f 120/120/120 122/122/122 123/123/123
f 120/120/120 123/123/123 121/121/121
f 92/92/92 121/121/121 124/124/124
f 92/92/92 124/124/124 95/95/95
f 121/121/121 123/123/123 125/125/125
f 121/121/121 125/125/125 124/124/124
f 126/126/126 16/16/16 127/127/127
f 126/126/126 127/127/127 128/128/128
f 128/128/128 127/127/127 129/129/129
f 128/128/128 129/129/129 130/130/130
f 122/122/122 126/126/126 128/128/128
f 122/122/122 128/128/128 123/123/123
f 123/123/123 128/128/128 130/130/130
f 123/123/123 130/130/130 125/125/125
f 112/112/112 131/131/131 132/132/132
f 112/112/112 132/132/132 133/133/133
f 131/131/131 134/134/134 135/135/135
f 131/131/131 135/135/135 132/132/132
f 133/133/133 132/132/132 130/130/130
f 133/133/133 130/130/130 129/129/129
f 132/132/132 135/135/135 125/125/125
f 132/132/132 125/125/125 130/130/130
f 136/136/136 98/98/98 97/97/97
f 136/136/136 97/97/97 137/137/137
f 137/137/137 97/97/97 95/95/95
f 137/137/137 95/95/95 124/124/124
f 134/134/134 136/136/136 137/137/137
f 134/134/134 137/137/137 135/135/135
f 135/135/135 137/137/137 124/124/124
f 135/135/135 124/124/124 125/125/125
f 48/48/48 118/118/118 138/138/138
f 48/48/48 138/138/138 139/139/139
f 118/118/118 116/116/116 140/140/140
f 118/118/118 140/140/140 138/138/138
f 139/139/139 138/138/138 141/141/141
f 139/139/139 141/141/141 142/142/142
f 138/138/138 140/140/140 143/143/143
f 138/138/138 143/143/143 141/141/141
f 113/113/113 112/112/112 133/133/133
f 113/113/113 133/133/133 144/144/144
f 144/144/144 133/133/133 129/129/129
f 144/144/144 129/129/129 145/145/145
f 116/116/116 113/113/113 144/144/144
f 116/116/116 144/144/144 140/140/140
f 140/140/140 144/144/144 145/145/145
f 140/140/140 145/145/145 143/143/143
f 16/16/16 19/19/19 146/146/146
f 16/16/16 146/146/146 127/127/127
f 19/19/19 14/14/14 147/147/147
f 19/19/19 147/147/147 146/146/146
f 127/127/127 146/146/146 145/145/145
f 127/127/127 145/145/145 129/129/129
f 146/146/146 147/147/147 143/143/143
f 146/146/146 143/143/143 145/145/145
f 12/12/12 11/11/11 148/148/148
f 12/12/12 148/148/148 149/149/149
f 149/149/149 148/148/148 142/142/142
f 149/149/149 142/142/142 141/141/141
f 14/14/14 12/12/12 149/149/149
f 14/14/14 149/149/149 147/147/147
f 147/147/147 149/149/149 141/141/141
f 147/147/147 141/141/141 143/143/143
f 98/98/98 136/136/136 150/150/150
f 98/98/98 150/150/150 151/151/151
f 136/136/136 134/134/134 152/152/152
f 136/136/136 152/152/152 150/150/150
f 151/151/151 150/150/150 153/153/153
f 151/151/151 153/153/153 154/154/154
f 150/150/150 152/152/152 155/155/155
f 150/150/150 155/155/155 153/153/153
f 131/131/131 112/112/112 115/115/115
f 131/131/131 115/115/115 156/156/156
f 156/156/156 115/115/115 110/110/110
f 156/156/156 110/110/110 157/157/157
f 134/134/134 131/131/131 156/156/156
f 134/134/134 156/156/156 152/152/152
f 152/152/152 156/156/156 157/157/157
f 152/152/152 157/157/157 155/155/155
f 66/66/66 69/69/69 158/158/158
f 66/66/66 158/158/158 108/108/108
f 69/69/69 64/64/64 159/159/159
f 69/69/69 159/159/159 158/158/158
f 108/108/108 158/158/158 157/157/157
f 108/108/108 157/157/157 110/110/110
f 158/158/158 159/159/159 155/155/155
f 158/158/158 155/155/155 157/157/157
f 62/62/62 61/61/61 160/160/160
f 62/62/62 160/160/160 161/161/161
f 161/161/161 160/160/160 154/154/154
f 161/161/161 154/154/154 153/153/153
f 64/64/64 62/62/62 161/161/161
f 64/64/64 161/161/161 159/159/159
f 159/159/159 161/161/161 153/153/153
f 159/159/159 153/153/153 155/155/155
f 51/51/51 162/162/162 163/163/163
f 51/51/51 163/163/163 52/52/52
f 162/162/162 164/164/164 165/165/165
f 162/162/162 165/165/165 163/163/163
f 52/52/52 163/163/163 166/166/166
f 52/52/52 166/166/166 55/55/55
f 163/163/163 165/165/165 167/167/167
f 163/163/163 167/167/167 166/166/166
f 168/168/168 76/76/76 79/79/79
f 168/168/168 79/79/79 169/169/169
f 169/169/169 79/79/79 83/83/83
f 169/169/169 83/83/83 170/170/170
f 164/164/164 168/168/168 169/169/169
f 164/164/164 169/169/169 165/165/165
f 165/165/165 169/169/169 170/170/170
f 165/165/165 170/170/170 167/167/167
f 98/98/98 151/151/151 171/171/171
f 98/98/98 171/171/171 99/99/99
f 151/151/151 154/154/154 172/172/172
f 151/151/151 172/172/172 171/171/171
f 99/99/99 171/171/171 170/170/170
f 99/99/99 170/170/170 83/83/83
f 171/171/171 172/172/172 167/167/167
f 171/171/171 167/167/167 170/170/170
f 160/160/160 61/61/61 60/60/60
f 160/160/160 60/60/60 173/173/173
f 173/173/173 60/60/60 55/55/55
f 173/173/173 55/55/55 166/166/166
f 154/154/154 160/160/160 173/173/173
f 154/154/154 173/173/173 172/172/172
f 172/172/172 173/173/173 166/166/166
f 172/172/172 166/166/166 167/167/167
f 36/36/36 174/174/174 175/175/175
f 36/36/36 175/175/175 37/37/37
f 174/174/174 176/176/176 177/177/177
f 174/174/174 177/177/177 175/175/175
f 37/37/37 175/175/175 178/178/178
f 37/37/37 178/178/178 39/39/39
f 175/175/175 177/177/177 179/179/179
f 175/175/175 179/179/179 178/178/178
f 180/180/180 73/73/73 72/72/72
f 180/180/180 72/72/72 181/181/181
f 181/181/181 72/72/72 70/70/70
f 181/181/181 70/70/70 182/182/182
f 176/176/176 180/180/180 181/181/181
f 176/176/176 181/181/181 177/177/177
f 177/177/177 181/181/181 182/182/182
f 177/177/177 182/182/182 179/179/179
f 66/66/66 107/107/107 183/183/183
f 66/66/66 183/183/183 67/67/67
f 107/107/107 103/103/103 184/184/184
f 107/107/107 184/184/184 183/183/183
f 67/67/67 183/183/183 182/182/182
f 67/67/67 182/182/182 70/70/70
f 183/183/183 184/184/184 179/179/179
f 183/183/183 179/179/179 182/182/182
f 101/101/101 41/41/41 44/44/44
f 101/101/101 44/44/44 185/185/185
f 185/185/185 44/44/44 39/39/39
f 185/185/185 39/39/39 178/178/178
f 103/103/103 101/101/101 185/185/185
f 103/103/103 185/185/185 184/184/184
f 184/184/184 185/185/185 178/178/178
f 184/184/184 178/178/178 179/179/179
f 86/86/86 186/186/186 187/187/187
f 86/86/86 187/187/187 87/87/87
f 186/186/186 188/188/188 189/189/189
f 186/186/186 189/189/189 187/187/187
f 87/87/87 187/187/187 190/190/190
f 87/87/87 190/190/190 89/89/89
f 187/187/187 189/189/189 191/191/191
f 187/187/187 191/191/191 190/190/190
f 192/192/192 23/23/23 22/22/22
f 192/192/192 22/22/22 193/193/193
f 193/193/193 22/22/22 20/20/20
f 193/193/193 20/20/20 194/194/194
f 188/188/188 192/192/192 193/193/193
f 188/188/188 193/193/193 189/189/189
f 189/189/189 193/193/193 194/194/194
f 189/189/189 194/194/194 191/191/191
f 16/16/16 126/126/126 195/195/195
f 16/16/16 195/195/195 17/17/17
f 126/126/126 122/122/122 196/196/196
f 126/126/126 196/196/196 195/195/195
f 17/17/17 195/195/195 194/194/194
f 17/17/17 194/194/194 20/20/20
f 195/195/195 196/196/196 191/191/191
f 195/195/195 191/191/191 194/194/194
f 120/120/120 91/91/91 94/94/94
f 120/120/120 94/94/94 197/197/197
f 197/197/197 94/94/94 89/89/89
f 197/197/197 89/89/89 190/190/190
f 122/122/122 120/120/120 197/197/197
f 122/122/122 197/197/197 196/196/196
f 196/196/196 197/197/197 190/190/190
f 196/196/196 190/190/190 191/191/191
f 1/1/1 198/198/198 199/199/199
f 1/1/1 199/199/199 2/2/2
f 198/198/198 200/200/200 201/201/201
f 198/198/198 201/201/201 199/199/199
f 2/2/2 199/199/199 202/202/202
f 2/2/2 202/202/202 5/5/5
f 199/199/199 201/201/201 203/203/203
f 199/199/199 203/203/203 202/202/202
f 204/204/204 26/26/26 29/29/29
f 204/204/204 29/29/29 205/205/205
f 205/205/205 29/29/29 33/33/33
f 205/205/205 33/33/33 206/206/206
f 200/200/200 204/204/204 205/205/205
f 200/200/200 205/205/205 201/201/201
f 201/201/201 205/205/205 206/206/206
f 201/201/201 206/206/206 203/203/203
f 48/48/48 139/139/139 207/207/207
f 48/48/48 207/207/207 49/49/49
f 139/139/139 142/142/142 208/208/208
f 139/139/139 208/208/208 207/207/207
f 49/49/49 207/207/207 206/206/206
f 49/49/49 206/206/206 33/33/33
f 207/207/207 208/208/208 203/203/203
f 207/207/207 203/203/203 206/206/206
f 148/148/148 11/11/11 10/10/10
f 148/148/148 10/10/10 209/209/209
f 209/209/209 10/10/10 5/5/5
f 209/209/209 5/5/5 202/202/202
f 142/142/142 148/148/148 209/209/209
f 142/142/142 209/209/209 208/208/208
f 208/208/208 209/209/209 202/202/202
f 208/208/208 202/202/202 203/203/203
