# generated by tools/editor_import_glb.py
v -0.126143 0.000000 0.065126 1.000000 1.000000 1.000000 1.000000
v -0.126143 0.000000 0.065126 1.000000 1.000000 1.000000 1.000000
v -0.126143 0.000000 0.065126 1.000000 1.000000 1.000000 1.000000
v -0.126143 0.550822 0.065126 1.000000 1.000000 1.000000 1.000000
v -0.126143 0.550822 0.065126 1.000000 1.000000 1.000000 1.000000
v -0.126143 0.550822 0.065126 1.000000 1.000000 1.000000 1.000000
v -0.126143 0.000000 -0.065126 1.000000 1.000000 1.000000 1.000000
v -0.126143 0.000000 -0.065126 1.000000 1.000000 1.000000 1.000000
v -0.126143 0.550822 -0.065126 1.000000 1.000000 1.000000 1.000000
v -0.126143 0.550822 -0.065126 1.000000 1.000000 1.000000 1.000000
v 0.126143 0.000000 0.065126 1.000000 1.000000 1.000000 1.000000
v 0.126143 0.000000 0.065126 1.000000 1.000000 1.000000 1.000000
v 0.126143 0.000000 0.065126 1.000000 1.000000 1.000000 1.000000
v 0.126143 0.550822 0.065126 1.000000 1.000000 1.000000 1.000000
v 0.126143 0.550822 0.065126 1.000000 1.000000 1.000000 1.000000
v 0.126143 0.550822 0.065126 1.000000 1.000000 1.000000 1.000000
v 0.126143 0.000000 -0.065126 1.000000 1.000000 1.000000 1.000000
v 0.126143 0.000000 -0.065126 1.000000 1.000000 1.000000 1.000000
v 0.126143 0.550822 -0.065126 1.000000 1.000000 1.000000 1.000000
v 0.126143 0.550822 -0.065126 1.000000 1.000000 1.000000 1.000000
v 0.071192 0.049529 0.065126 1.000000 1.000000 1.000000 1.000000
v 0.071192 0.049529 0.065126 1.000000 1.000000 1.000000 1.000000
v 0.071192 0.049529 0.065126 1.000000 1.000000 1.000000 1.000000
v 0.071192 0.501293 0.065126 1.000000 1.000000 1.000000 1.000000
v 0.071192 0.501293 0.065126 1.000000 1.000000 1.000000 1.000000
v 0.071192 0.501293 0.065126 1.000000 1.000000 1.000000 1.000000
v -0.071192 0.501293 0.065126 1.000000 1.000000 1.000000 1.000000
v -0.071192 0.501293 0.065126 1.000000 1.000000 1.000000 1.000000
v -0.071192 0.501293 0.065126 1.000000 1.000000 1.000000 1.000000
v -0.071192 0.049529 0.065126 1.000000 1.000000 1.000000 1.000000
v -0.071192 0.049529 0.065126 1.000000 1.000000 1.000000 1.000000
v -0.071192 0.049529 0.065126 1.000000 1.000000 1.000000 1.000000
v 0.071192 0.501293 -0.064186 1.000000 1.000000 1.000000 1.000000
v 0.071192 0.501293 -0.064186 1.000000 1.000000 1.000000 1.000000
v 0.071192 0.501293 -0.064186 1.000000 1.000000 1.000000 1.000000
v 0.071192 0.049529 -0.064186 1.000000 1.000000 1.000000 1.000000
v 0.071192 0.049529 -0.064186 1.000000 1.000000 1.000000 1.000000
v 0.071192 0.049529 -0.064186 1.000000 1.000000 1.000000 1.000000
v -0.071192 0.049529 -0.064186 1.000000 1.000000 1.000000 1.000000
v -0.071192 0.049529 -0.064186 1.000000 1.000000 1.000000 1.000000
v -0.071192 0.049529 -0.064186 1.000000 1.000000 1.000000 1.000000
v -0.071192 0.501293 -0.064186 1.000000 1.000000 1.000000 1.000000
v -0.071192 0.501293 -0.064186 1.000000 1.000000 1.000000 1.000000
v -0.071192 0.501293 -0.064186 1.000000 1.000000 1.000000 1.000000
v -0.109932 0.275411 0.065126 1.000000 1.000000 1.000000 1.000000
v -0.109932 0.275411 0.065126 1.000000 1.000000 1.000000 1.000000
v -0.109932 0.275411 0.065126 1.000000 1.000000 1.000000 1.000000
v -0.109932 0.275411 -0.065126 1.000000 1.000000 1.000000 1.000000
v -0.109932 0.275411 -0.065126 1.000000 1.000000 1.000000 1.000000
v 0.109932 0.275411 -0.065126 1.000000 1.000000 1.000000 1.000000
v 0.109932 0.275411 -0.065126 1.000000 1.000000 1.000000 1.000000
v 0.109932 0.275411 0.065126 1.000000 1.000000 1.000000 1.000000
v 0.109932 0.275411 0.065126 1.000000 1.000000 1.000000 1.000000
v 0.109932 0.275411 0.065126 1.000000 1.000000 1.000000 1.000000
v 0.062043 0.275411 0.065126 1.000000 1.000000 1.000000 1.000000
v 0.062043 0.275411 0.065126 1.000000 1.000000 1.000000 1.000000
v 0.062043 0.275411 0.065126 1.000000 1.000000 1.000000 1.000000
v -0.062043 0.275411 0.065126 1.000000 1.000000 1.000000 1.000000
v -0.062043 0.275411 0.065126 1.000000 1.000000 1.000000 1.000000
v -0.062043 0.275411 0.065126 1.000000 1.000000 1.000000 1.000000
v 0.062043 0.275411 -0.064186 1.000000 1.000000 1.000000 1.000000
v 0.062043 0.275411 -0.064186 1.000000 1.000000 1.000000 1.000000
v 0.062043 0.275411 -0.064186 1.000000 1.000000 1.000000 1.000000
v -0.062043 0.275411 -0.064186 1.000000 1.000000 1.000000 1.000000
v -0.062043 0.275411 -0.064186 1.000000 1.000000 1.000000 1.000000
v -0.062043 0.275411 -0.064186 1.000000 1.000000 1.000000 1.000000
vt 0.281586 0.607828
vt 0.718389 0.501255
vt 0.279076 0.607828
vt 0.281586 0.001255
vt 0.279076 0.001255
vt 0.001255 0.888160
vt 0.425022 0.607828
vt 0.861825 0.501255
vt 0.425022 0.001255
vt 0.144691 0.888160
vt 0.718389 0.779076
vt 0.001255 0.607828
vt 0.570969 0.607828
vt 0.001255 0.001255
vt 0.001255 0.610338
vt 0.570969 0.001255
vt 0.861825 0.779076
vt 0.427533 0.607828
vt 0.144691 0.610338
vt 0.427533 0.001255
vt 0.573479 0.998745
vt 0.061768 0.553287
vt 0.147201 0.610338
vt 0.573479 0.501255
vt 0.292112 0.767135
vt 0.061768 0.055797
vt 0.292112 0.610338
vt 0.218564 0.055797
vt 0.875186 0.001255
vt 0.218564 0.553287
vt 0.147201 0.767135
vt 0.875186 0.498745
vt 0.715879 0.501255
vt 0.434512 0.767135
vt 0.573479 0.001255
vt 0.715879 0.998745
vt 0.573479 0.498745
vt 0.289602 0.610338
vt 0.730275 0.498745
vt 0.289602 0.767135
vt 0.732785 0.498745
vt 0.434512 0.610338
vt 0.730275 0.001255
vt 0.732785 0.001255
vt 0.281586 0.304542
vt 0.281586 0.304542
vt 0.261224 0.304542
vt 0.425022 0.304542
vt 0.425022 0.304542
vt 0.427533 0.304542
vt 0.427533 0.304542
vt 0.019107 0.304542
vt 0.570969 0.304542
vt 0.570969 0.304542
vt 0.573479 0.750000
vt 0.573479 0.750000
vt 0.071843 0.304542
vt 0.208489 0.304542
vt 0.875186 0.250000
vt 0.875186 0.250000
vt 0.715879 0.750000
vt 0.715879 0.750000
vt 0.583554 0.250000
vt 0.720200 0.250000
vt 0.732785 0.250000
vt 0.732785 0.250000
vn -0.998270 0.058798 0.000000
vn 0.000000 -1.000000 0.000000
vn 0.000000 0.000000 1.000000
vn -0.998270 -0.058798 -0.000000
vn 0.000000 0.000000 1.000000
vn 0.000000 1.000000 0.000000
vn -0.998270 0.058798 0.000000
vn 0.000000 -1.000000 0.000000
vn -0.998270 -0.058798 -0.000000
vn 0.000000 1.000000 0.000000
vn 0.000000 -1.000000 0.000000
vn 0.000000 0.000000 1.000000
vn 0.998270 0.058798 0.000000
vn 0.000000 0.000000 1.000000
vn 0.000000 1.000000 0.000000
vn 0.998270 -0.058798 0.000000
vn 0.000000 -1.000000 0.000000
vn 0.998270 0.058798 0.000000
vn 0.000000 1.000000 0.000000
vn 0.998270 -0.058798 0.000000
vn -0.999180 -0.040499 -0.000000
vn 0.000000 0.000000 1.000000
vn 0.000000 1.000000 0.000000
vn -0.999180 0.040499 0.000000
vn 0.000000 -1.000000 0.000000
vn 0.000000 0.000000 1.000000
vn 0.000000 -1.000000 0.000000
vn 0.000000 0.000000 1.000000
vn 0.999180 0.040499 0.000000
vn 0.000000 0.000000 1.000000
vn 0.000000 1.000000 0.000000
vn 0.999180 -0.040499 0.000000
vn -0.999180 0.040499 0.000000
vn 0.000000 -1.000000 0.000000
vn 0.000000 0.000000 1.000000
vn -0.999180 -0.040499 -0.000000
vn 0.000000 0.000000 1.000000
vn 0.000000 1.000000 0.000000
vn 0.000000 0.000000 1.000000
vn 0.000000 1.000000 0.000000
vn 0.999180 -0.040499 0.000000
vn 0.000000 -1.000000 0.000000
vn 0.000000 0.000000 1.000000
vn 0.999180 0.040499 0.000000
vn -0.998270 -0.058798 -0.000000
vn -0.998270 0.058798 0.000000
vn 0.000000 0.000000 1.000000
vn -0.998270 -0.058798 -0.000000
vn -0.998270 0.058798 0.000000
vn 0.998270 -0.058798 0.000000
vn 0.998270 0.058798 0.000000
vn 0.000000 0.000000 1.000000
vn 0.998270 -0.058798 0.000000
vn 0.998270 0.058798 0.000000
vn -0.999180 -0.040499 -0.000000
vn -0.999180 0.040499 0.000000
vn 0.000000 0.000000 1.000000
vn 0.000000 0.000000 1.000000
vn 0.999180 -0.040499 0.000000
vn 0.999180 0.040499 0.000000
vn -0.999180 -0.040499 -0.000000
vn -0.999180 0.040499 0.000000
vn 0.000000 0.000000 1.000000
vn 0.000000 0.000000 1.000000
vn 0.999180 -0.040499 0.000000
vn 0.999180 0.040499 0.000000
f 45/45/45 4/4/4 9/9/9
f 45/45/45 9/9/9 48/48/48
f 50/50/50 20/20/20 16/16/16
f 50/50/50 16/16/16 53/53/53
f 59/59/59 32/32/32 41/41/41
f 59/59/59 41/41/41 65/65/65
f 8/8/8 17/17/17 11/11/11
f 8/8/8 11/11/11 2/2/2
f 19/19/19 10/10/10 6/6/6
f 19/19/19 6/6/6 15/15/15
f 52/52/52 14/14/14 26/26/26
f 52/52/52 26/26/26 57/57/57
f 14/14/14 5/5/5 28/28/28
f 14/14/14 28/28/28 26/26/26
f 47/47/47 3/3/3 30/30/30
f 47/47/47 30/30/30 58/58/58
f 3/3/3 12/12/12 22/22/22
f 3/3/3 22/22/22 30/30/30
f 63/63/63 35/35/35 43/43/43
f 63/63/63 43/43/43 64/64/64
f 31/31/31 23/23/23 38/38/38
f 31/31/31 38/38/38 40/40/40
f 25/25/25 27/27/27 42/42/42
f 25/25/25 42/42/42 34/34/34
f 56/56/56 24/24/24 33/33/33
f 56/56/56 33/33/33 62/62/62
f 21/21/21 55/55/55 61/61/61
f 21/21/21 61/61/61 36/36/36
f 37/37/37 63/63/63 64/64/64
f 37/37/37 64/64/64 39/39/39
f 5/5/5 47/47/47 58/58/58
f 5/5/5 58/58/58 28/28/28
f 12/12/12 52/52/52 57/57/57
f 12/12/12 57/57/57 22/22/22
f 29/29/29 60/60/60 66/66/66
f 29/29/29 66/66/66 44/44/44
f 18/18/18 51/51/51 54/54/54
f 18/18/18 54/54/54 13/13/13
f 1/1/1 46/46/46 49/49/49
f 1/1/1 49/49/49 7/7/7
