# generated by the editor's model importer
v 228.484131 1.149445 61.321045 1.000000 1.000000 1.000000 1.000000
v 79.847961 184.845581 -128.986633 1.000000 1.000000 1.000000 1.000000
v 203.762573 180.168594 79.868103 1.000000 1.000000 1.000000 1.000000
v 45.796387 2.153625 -249.730713 1.000000 1.000000 1.000000 1.000000
v 203.762573 180.168594 79.868103 1.000000 1.000000 1.000000 1.000000
v 70.396301 1.249207 189.103027 1.000000 1.000000 1.000000 1.000000
v 228.484131 1.149445 61.321045 1.000000 1.000000 1.000000 1.000000
v 67.874207 171.253311 190.216919 1.000000 1.000000 1.000000 1.000000
v -365.118774 2.142151 222.130127 1.000000 1.000000 1.000000 1.000000
v -330.888367 185.536499 -19.788849 1.000000 1.000000 1.000000 1.000000
v -362.486542 2.836426 -139.125458 1.000000 1.000000 1.000000 1.000000
v -333.858215 181.067673 225.511414 1.000000 1.000000 1.000000 1.000000
v -362.486542 2.836426 -139.125458 1.000000 1.000000 1.000000 1.000000
v -130.260437 3.303284 -643.390076 1.000000 1.000000 1.000000 1.000000
v 45.796387 2.153625 -249.730713 1.000000 1.000000 1.000000 1.000000
v -414.031586 3.777832 -566.515503 1.000000 1.000000 1.000000 1.000000
v -414.031586 3.777832 -566.515503 1.000000 1.000000 1.000000 1.000000
v -144.363770 128.340836 -646.505066 1.000000 1.000000 1.000000 1.000000
v -130.260437 3.303284 -643.390076 1.000000 1.000000 1.000000 1.000000
v -403.039490 128.773438 -576.428955 1.000000 1.000000 1.000000 1.000000
v -165.114441 1.643066 252.903687 1.000000 1.000000 1.000000 1.000000
v 70.396301 1.249207 189.103027 1.000000 1.000000 1.000000 1.000000
v 70.396301 1.249207 189.103027 1.000000 1.000000 1.000000 1.000000
v -160.880066 171.635864 252.187195 1.000000 1.000000 1.000000 1.000000
v -165.114441 1.643066 252.903687 1.000000 1.000000 1.000000 1.000000
v 67.874207 171.253311 190.216919 1.000000 1.000000 1.000000 1.000000
v -333.858215 181.067673 225.511414 1.000000 1.000000 1.000000 1.000000
v -165.114441 1.643066 252.903687 1.000000 1.000000 1.000000 1.000000
v -160.880066 171.635864 252.187195 1.000000 1.000000 1.000000 1.000000
v -365.118774 2.142151 222.130127 1.000000 1.000000 1.000000 1.000000
v -414.031586 3.777832 -566.515503 1.000000 1.000000 1.000000 1.000000
v -403.039490 128.773438 -576.428955 1.000000 1.000000 1.000000 1.000000
v -130.260437 3.303284 -643.390076 1.000000 1.000000 1.000000 1.000000
v -144.363770 128.340836 -646.505066 1.000000 1.000000 1.000000 1.000000
v -228.090271 336.141418 -448.205353 1.000000 1.000000 1.000000 1.000000
v -228.090271 336.141418 -448.205353 1.000000 1.000000 1.000000 1.000000
v 414.031616 0.000000 444.121033 1.000000 1.000000 1.000000 1.000000
v 86.643433 1.238098 176.413269 1.000000 1.000000 1.000000 1.000000
v 216.540039 1.157379 70.773010 1.000000 1.000000 1.000000 1.000000
v 121.620300 170.217636 147.681213 1.000000 1.000000 1.000000 1.000000
v 181.079224 170.180420 99.456299 1.000000 1.000000 1.000000 1.000000
v 86.643433 1.238098 176.413269 1.000000 1.000000 1.000000 1.000000
v 414.031616 0.000000 444.121033 1.000000 1.000000 1.000000 1.000000
v 121.620300 170.217636 147.681213 1.000000 1.000000 1.000000 1.000000
v 228.484131 1.149445 61.321045 1.000000 1.000000 1.000000 1.000000
v 203.762573 180.168594 79.868103 1.000000 1.000000 1.000000 1.000000
v 79.847961 184.845581 -128.986633 1.000000 1.000000 1.000000 1.000000
v 67.874207 171.253311 190.216919 1.000000 1.000000 1.000000 1.000000
v -46.913025 204.445251 221.396729 1.000000 1.000000 1.000000 1.000000
v -228.090271 336.141418 -448.205353 1.000000 1.000000 1.000000 1.000000
v -228.090271 336.141418 -448.205353 1.000000 1.000000 1.000000 1.000000
v -333.039307 1.249359 646.505066 1.000000 1.000000 1.000000 1.000000
v -350.036987 2.104889 224.260681 1.000000 1.000000 1.000000 1.000000
v -184.580017 1.691681 249.888611 1.000000 1.000000 1.000000 1.000000
v -365.118774 2.142151 222.130127 1.000000 1.000000 1.000000 1.000000
v -228.750183 170.803574 242.597778 1.000000 1.000000 1.000000 1.000000
v -304.420410 170.992340 230.979797 1.000000 1.000000 1.000000 1.000000
v -333.039307 1.249359 646.505066 1.000000 1.000000 1.000000 1.000000
v -184.580017 1.691681 249.888611 1.000000 1.000000 1.000000 1.000000
v -228.750183 170.803574 242.597778 1.000000 1.000000 1.000000 1.000000
v 64.028809 0.404633 632.181702 1.000000 1.000000 1.000000 1.000000
v -129.401733 1.583344 243.229004 1.000000 1.000000 1.000000 1.000000
v 35.648804 1.307343 198.516235 1.000000 1.000000 1.000000 1.000000
v -83.661255 172.506729 231.270935 1.000000 1.000000 1.000000 1.000000
v -9.340210 172.382446 211.137085 1.000000 1.000000 1.000000 1.000000
v -129.401733 1.583344 243.229004 1.000000 1.000000 1.000000 1.000000
v 64.028809 0.404633 632.181702 1.000000 1.000000 1.000000 1.000000
v -83.661255 172.506729 231.270935 1.000000 1.000000 1.000000 1.000000
v -46.913025 204.445251 221.396729 1.000000 1.000000 1.000000 1.000000
v -330.888367 185.536499 -19.788849 1.000000 1.000000 1.000000 1.000000
v -333.858215 181.067673 225.511414 1.000000 1.000000 1.000000 1.000000
v -160.880066 171.635864 252.187195 1.000000 1.000000 1.000000 1.000000
v -46.913025 204.445251 221.396729 1.000000 1.000000 1.000000 1.000000
v -228.090271 336.141418 -448.205353 1.000000 1.000000 1.000000 1.000000
vt 0.500100 0.746194
vt 0.617288 0.714944
vt 0.500100 0.714944
vt 0.679788 0.746194
vt 0.421975 0.812600
vt 0.312600 0.871194
vt 0.421975 0.871194
vt 0.312600 0.812600
vt 0.500100 0.746194
vt 0.617288 0.714944
vt 0.679788 0.746194
vt 0.500100 0.714944
vt 0.765725 0.750100
vt 0.859475 0.808694
vt 0.765725 0.808694
vt 0.859475 0.750100
vt 0.250100 0.308694
vt 0.359475 0.289163
vt 0.359475 0.308694
vt 0.250100 0.289163
vt 0.687600 0.765725
vt 0.687600 0.789163
vt 0.187600 0.871194
vt 0.296975 0.820413
vt 0.296975 0.871194
vt 0.187600 0.820413
vt 0.421975 0.812600
vt 0.312600 0.871194
vt 0.312600 0.812600
vt 0.421975 0.871194
vt 0.921975 0.746194
vt 0.921975 0.714944
vt 0.921975 0.746194
vt 0.921975 0.714944
vt 0.921975 0.687600
vt 0.921975 0.687600
vt 0.375100 0.121194
vt 0.671975 0.121194
vt 0.671975 0.121194
vt 0.671975 0.062600
vt 0.671975 0.062600
vt 0.671975 0.121194
vt 0.375100 0.121194
vt 0.671975 0.062600
vt 0.687600 0.808694
vt 0.187600 0.808694
vt 0.312600 0.808694
vt 0.187600 0.773538
vt 0.187600 0.750100
vt 0.484475 0.750100
vt 0.304787 0.250100
vt 0.375100 0.121194
vt 0.671975 0.121194
vt 0.671975 0.121194
vt 0.687600 0.750100
vt 0.671975 0.062600
vt 0.671975 0.062600
vt 0.375100 0.121194
vt 0.671975 0.121194
vt 0.671975 0.062600
vt 0.375100 0.121194
vt 0.671975 0.121194
vt 0.671975 0.121194
vt 0.671975 0.062600
vt 0.671975 0.062600
vt 0.671975 0.121194
vt 0.375100 0.121194
vt 0.671975 0.062600
vt 0.234475 0.812600
vt 0.312600 0.808694
vt 0.187600 0.808694
vt 0.187600 0.777444
vt 0.187600 0.750100
vt 0.484475 0.750100
vn 0.834209 -0.540453 0.109570
vn 0.707861 0.654925 -0.264588
vn 0.748149 0.635391 0.191185
vn 0.660801 -0.676327 -0.325460
vn 0.748149 0.635391 0.191185
vn 0.341257 -0.664034 0.665284
vn 0.834209 -0.540453 0.109570
vn 0.438675 0.572208 0.692922
vn -0.668568 -0.537535 0.513881
vn -0.743623 0.655989 0.129238
vn -0.732621 -0.678221 0.057293
vn -0.549117 0.637664 0.540236
vn -0.732621 -0.678221 0.057293
vn 0.384352 -0.573680 -0.723302
vn 0.660801 -0.676327 -0.325460
vn -0.701044 -0.571251 -0.426861
vn -0.701044 -0.571251 -0.426861
vn 0.367439 0.343467 -0.864303
vn 0.384352 -0.573680 -0.723302
vn -0.754399 0.346345 -0.557609
vn 0.038239 -0.663045 0.747602
vn 0.341257 -0.664034 0.665284
vn 0.341257 -0.664034 0.665284
vn -0.027055 0.573597 0.818690
vn 0.038239 -0.663045 0.747602
vn 0.438675 0.572208 0.692922
vn -0.549117 0.637664 0.540236
vn 0.038239 -0.663045 0.747602
vn -0.027055 0.573597 0.818690
vn -0.668568 -0.537535 0.513881
vn -0.701044 -0.571251 -0.426861
vn -0.754399 0.346345 -0.557609
vn 0.384352 -0.573680 -0.723302
vn 0.367439 0.343467 -0.864303
vn -0.075238 0.955750 -0.284395
vn -0.075238 0.955750 -0.284395
vn 0.624310 -0.170255 0.762398
vn -0.528013 -0.554515 0.643207
vn 0.733866 -0.556248 -0.389909
vn -0.178663 0.766790 0.616533
vn 0.636680 0.769476 -0.050453
vn -0.528013 -0.554515 0.643207
vn 0.624310 -0.170255 0.762398
vn -0.178663 0.766790 0.616533
vn 0.834209 -0.540453 0.109570
vn 0.748149 0.635391 0.191185
vn 0.707861 0.654925 -0.264588
vn 0.438675 0.572208 0.692922
vn 0.185259 0.705477 0.684092
vn -0.075238 0.955750 -0.284395
vn -0.075238 0.955750 -0.284395
vn -0.156676 -0.168842 0.973111
vn -0.831743 -0.554217 0.032356
vn 0.778527 -0.556178 0.290795
vn -0.668568 -0.537535 0.513881
vn 0.468006 0.765208 0.442073
vn -0.572382 0.772122 0.276055
vn -0.156676 -0.168842 0.973111
vn 0.778527 -0.556178 0.290795
vn 0.468006 0.765208 0.442073
vn 0.256466 -0.167408 0.951945
vn -0.746046 -0.554063 0.369363
vn 0.829257 -0.556113 -0.055418
vn -0.414027 0.771192 0.483575
vn 0.604356 0.768887 0.208726
vn -0.746046 -0.554063 0.369363
vn 0.256466 -0.167408 0.951945
vn -0.414027 0.771192 0.483575
vn 0.185259 0.705477 0.684092
vn -0.743623 0.655989 0.129238
vn -0.549117 0.637664 0.540236
vn -0.027055 0.573597 0.818690
vn 0.185259 0.705477 0.684092
vn -0.075238 0.955750 -0.284395
f 1/1/1 2/2/2 3/3/3
f 2/2/2 1/1/1 4/4/4
f 33/33/33 2/2/2 4/4/4
f 2/2/2 33/33/33 34/34/34
f 36/36/36 2/2/2 34/34/34
f 5/5/5 6/6/6 7/7/7
f 6/6/6 5/5/5 8/8/8
f 9/9/9 10/10/10 11/11/11
f 10/10/10 9/9/9 12/12/12
f 31/31/31 10/10/10 32/32/32
f 10/10/10 31/31/31 11/11/11
f 10/10/10 35/35/35 32/32/32
f 13/13/13 14/14/14 15/15/15
f 14/14/14 13/13/13 16/16/16
f 15/15/15 21/21/21 13/13/13
f 21/21/21 55/55/55 13/13/13
f 21/21/21 15/15/15 22/22/22
f 45/45/45 22/22/22 15/15/15
f 17/17/17 18/18/18 19/19/19
f 18/18/18 17/17/17 20/20/20
f 18/18/18 20/20/20 51/51/51
f 23/23/23 24/24/24 25/25/25
f 24/24/24 23/23/23 26/26/26
f 26/26/26 69/69/69 24/24/24
f 27/27/27 28/28/28 29/29/29
f 28/28/28 27/27/27 30/30/30
f 37/37/37 38/38/38 39/39/39
f 40/40/40 37/37/37 41/41/41
f 37/37/37 39/39/39 41/41/41
f 42/42/42 43/43/43 44/44/44
f 46/46/46 47/47/47 48/48/48
f 48/48/48 47/47/47 49/49/49
f 49/49/49 47/47/47 50/50/50
f 52/52/52 53/53/53 54/54/54
f 52/52/52 56/56/56 57/57/57
f 53/53/53 52/52/52 57/57/57
f 58/58/58 59/59/59 60/60/60
f 61/61/61 62/62/62 63/63/63
f 64/64/64 61/61/61 65/65/65
f 61/61/61 63/63/63 65/65/65
f 66/66/66 67/67/67 68/68/68
f 70/70/70 71/71/71 72/72/72
f 70/70/70 72/72/72 73/73/73
f 70/70/70 73/73/73 74/74/74
