# generated by tools/editor_import_glb.py
v -1.000000 3.000244 -2.000000 1.000000 1.000000 1.000000 1.000000
v -1.000000 3.000244 -1.734962 1.000000 1.000000 1.000000 1.000000
v -1.000000 3.000244 -1.734962 1.000000 1.000000 1.000000 1.000000
v -1.000000 2.719878 -1.734962 1.000000 1.000000 1.000000 1.000000
v 1.000000 3.000244 -2.000000 1.000000 1.000000 1.000000 1.000000
v 1.000000 3.000244 -1.734962 1.000000 1.000000 1.000000 1.000000
v 1.000000 3.000244 -1.734962 1.000000 1.000000 1.000000 1.000000
v 1.000000 2.719878 -1.734962 1.000000 1.000000 1.000000 1.000000
v 0.000000 2.998539 -1.734962 1.000000 1.000000 1.000000 1.000000
v 0.000000 2.998539 -1.734962 1.000000 1.000000 1.000000 1.000000
v 0.000000 2.998539 -2.000000 1.000000 1.000000 1.000000 1.000000
v 0.000000 0.000000 2.000000 1.000000 1.000000 1.000000 1.000000
v 0.000000 2.684118 -1.734962 1.000000 1.000000 1.000000 1.000000
v 0.000000 2.684118 -1.734962 1.000000 1.000000 1.000000 1.000000
v 0.000000 2.684118 -1.361466 1.000000 1.000000 1.000000 1.000000
v 0.000000 2.684118 -1.361466 1.000000 1.000000 1.000000 1.000000
v 0.000000 2.403996 -1.361466 1.000000 1.000000 1.000000 1.000000
v 0.000000 2.403996 -1.361466 1.000000 1.000000 1.000000 1.000000
v 0.000000 2.403996 -0.987970 1.000000 1.000000 1.000000 1.000000
v 0.000000 2.403996 -0.987970 1.000000 1.000000 1.000000 1.000000
v 0.000000 2.123874 -0.987970 1.000000 1.000000 1.000000 1.000000
v 0.000000 2.123874 -0.987970 1.000000 1.000000 1.000000 1.000000
v 0.000000 2.145297 -0.614473 1.000000 1.000000 1.000000 1.000000
v 0.000000 2.145297 -0.614473 1.000000 1.000000 1.000000 1.000000
v 0.000000 1.843751 -0.614473 1.000000 1.000000 1.000000 1.000000
v 0.000000 1.843751 -0.614473 1.000000 1.000000 1.000000 1.000000
v 0.000000 1.843751 -0.614473 1.000000 1.000000 1.000000 1.000000
v 0.000000 1.843751 -0.240977 1.000000 1.000000 1.000000 1.000000
v 0.000000 1.843751 -0.240977 1.000000 1.000000 1.000000 1.000000
v 0.000000 1.843751 -0.240977 1.000000 1.000000 1.000000 1.000000
v 0.000000 1.563629 -0.240977 1.000000 1.000000 1.000000 1.000000
v 0.000000 1.563629 -0.240977 1.000000 1.000000 1.000000 1.000000
v 0.000000 1.563629 0.132519 1.000000 1.000000 1.000000 1.000000
v 0.000000 1.563629 0.132519 1.000000 1.000000 1.000000 1.000000
v 0.000000 1.283507 0.132519 1.000000 1.000000 1.000000 1.000000
v 0.000000 1.283507 0.132519 1.000000 1.000000 1.000000 1.000000
v 0.000000 1.283507 0.506015 1.000000 1.000000 1.000000 1.000000
v 0.000000 1.283507 0.506015 1.000000 1.000000 1.000000 1.000000
v 0.000000 1.003385 0.506015 1.000000 1.000000 1.000000 1.000000
v 0.000000 1.003385 0.506015 1.000000 1.000000 1.000000 1.000000
v 0.000000 1.003385 0.879511 1.000000 1.000000 1.000000 1.000000
v 0.000000 1.003385 0.879511 1.000000 1.000000 1.000000 1.000000
v 0.000000 0.691303 0.879511 1.000000 1.000000 1.000000 1.000000
v 0.000000 0.691303 0.879511 1.000000 1.000000 1.000000 1.000000
v 0.000000 0.723263 1.253008 1.000000 1.000000 1.000000 1.000000
v 0.000000 0.723263 1.253008 1.000000 1.000000 1.000000 1.000000
v 0.000000 0.443141 1.253008 1.000000 1.000000 1.000000 1.000000
v 0.000000 0.443141 1.253008 1.000000 1.000000 1.000000 1.000000
v 0.000000 0.443141 1.626504 1.000000 1.000000 1.000000 1.000000
v 0.000000 0.443141 1.626504 1.000000 1.000000 1.000000 1.000000
v 0.000000 0.163018 1.626504 1.000000 1.000000 1.000000 1.000000
v 0.000000 0.163018 1.626504 1.000000 1.000000 1.000000 1.000000
v 0.000000 0.163018 2.000000 1.000000 1.000000 1.000000 1.000000
v 0.000000 0.163018 2.000000 1.000000 1.000000 1.000000 1.000000
v 0.868814 0.000000 2.000000 1.000000 1.000000 1.000000 1.000000
v 0.868814 2.701998 -1.734962 1.000000 1.000000 1.000000 1.000000
v 0.868814 2.701998 -1.734962 1.000000 1.000000 1.000000 1.000000
v 0.868814 2.701998 -1.361466 1.000000 1.000000 1.000000 1.000000
v 0.868814 2.701998 -1.361466 1.000000 1.000000 1.000000 1.000000
v 0.868814 2.421876 -1.361466 1.000000 1.000000 1.000000 1.000000
v 0.868814 2.421876 -1.361466 1.000000 1.000000 1.000000 1.000000
v 0.868814 2.434532 -0.987970 1.000000 1.000000 1.000000 1.000000
v 0.868814 2.434532 -0.987970 1.000000 1.000000 1.000000 1.000000
v 0.868814 2.141753 -0.987970 1.000000 1.000000 1.000000 1.000000
v 0.868814 2.141753 -0.987970 1.000000 1.000000 1.000000 1.000000
v 0.868814 2.152465 -0.614473 1.000000 1.000000 1.000000 1.000000
v 0.868814 2.152465 -0.614473 1.000000 1.000000 1.000000 1.000000
v 0.868814 1.861631 -0.614473 1.000000 1.000000 1.000000 1.000000
v 0.868814 1.861631 -0.614473 1.000000 1.000000 1.000000 1.000000
v 0.868814 1.861631 -0.240977 1.000000 1.000000 1.000000 1.000000
v 0.868814 1.861631 -0.240977 1.000000 1.000000 1.000000 1.000000
v 0.868814 1.581509 -0.240977 1.000000 1.000000 1.000000 1.000000
v 0.868814 1.581509 -0.240977 1.000000 1.000000 1.000000 1.000000
v 0.868814 1.581509 0.132519 1.000000 1.000000 1.000000 1.000000
v 0.868814 1.581509 0.132519 1.000000 1.000000 1.000000 1.000000
v 0.868814 1.301387 0.132519 1.000000 1.000000 1.000000 1.000000
v 0.868814 1.301387 0.132519 1.000000 1.000000 1.000000 1.000000
v 0.868814 1.284944 0.506015 1.000000 1.000000 1.000000 1.000000
v 0.868814 1.284944 0.506015 1.000000 1.000000 1.000000 1.000000
v 0.868814 1.021265 0.506015 1.000000 1.000000 1.000000 1.000000
v 0.868814 1.021265 0.506015 1.000000 1.000000 1.000000 1.000000
v 0.868814 1.021265 0.879511 1.000000 1.000000 1.000000 1.000000
v 0.868814 1.021265 0.879511 1.000000 1.000000 1.000000 1.000000
v 0.868814 0.725163 0.879511 1.000000 1.000000 1.000000 1.000000
v 0.868814 0.725163 0.879511 1.000000 1.000000 1.000000 1.000000
v 0.868814 0.741143 1.253008 1.000000 1.000000 1.000000 1.000000
v 0.868814 0.741143 1.253008 1.000000 1.000000 1.000000 1.000000
v 0.868814 0.461020 1.253008 1.000000 1.000000 1.000000 1.000000
v 0.868814 0.461020 1.253008 1.000000 1.000000 1.000000 1.000000
v 0.868814 0.461020 1.626504 1.000000 1.000000 1.000000 1.000000
v 0.868814 0.461020 1.626504 1.000000 1.000000 1.000000 1.000000
v 0.868814 0.180898 1.626504 1.000000 1.000000 1.000000 1.000000
v 0.868814 0.180898 1.626504 1.000000 1.000000 1.000000 1.000000
v 0.868814 0.180898 2.000000 1.000000 1.000000 1.000000 1.000000
v 0.868814 0.180898 2.000000 1.000000 1.000000 1.000000 1.000000
v -0.868814 0.000000 2.000000 1.000000 1.000000 1.000000 1.000000
v -0.868814 2.701998 -1.734962 1.000000 1.000000 1.000000 1.000000
v -0.868814 2.701998 -1.734962 1.000000 1.000000 1.000000 1.000000
v -0.868814 2.681993 -1.361466 1.000000 1.000000 1.000000 1.000000
v -0.868814 2.681993 -1.361466 1.000000 1.000000 1.000000 1.000000
v -0.868814 2.421876 -1.361466 1.000000 1.000000 1.000000 1.000000
v -0.868814 2.421876 -1.361466 1.000000 1.000000 1.000000 1.000000
v -0.868814 2.421876 -0.987970 1.000000 1.000000 1.000000 1.000000
v -0.868814 2.421876 -0.987970 1.000000 1.000000 1.000000 1.000000
v -0.868814 2.141753 -0.987970 1.000000 1.000000 1.000000 1.000000
v -0.868814 2.141753 -0.987970 1.000000 1.000000 1.000000 1.000000
v -0.868814 2.152465 -0.614473 1.000000 1.000000 1.000000 1.000000
v -0.868814 2.152465 -0.614473 1.000000 1.000000 1.000000 1.000000
v -0.868814 1.861631 -0.614473 1.000000 1.000000 1.000000 1.000000
v -0.868814 1.861631 -0.614473 1.000000 1.000000 1.000000 1.000000
v -0.868814 1.849551 -0.240977 1.000000 1.000000 1.000000 1.000000
v -0.868814 1.849551 -0.240977 1.000000 1.000000 1.000000 1.000000
v -0.868814 1.581509 -0.240977 1.000000 1.000000 1.000000 1.000000
v -0.868814 1.581509 -0.240977 1.000000 1.000000 1.000000 1.000000
v -0.868814 1.581509 0.132519 1.000000 1.000000 1.000000 1.000000
v -0.868814 1.581509 0.132519 1.000000 1.000000 1.000000 1.000000
v -0.868814 1.301387 0.132519 1.000000 1.000000 1.000000 1.000000
v -0.868814 1.301387 0.132519 1.000000 1.000000 1.000000 1.000000
v -0.868814 1.301387 0.506015 1.000000 1.000000 1.000000 1.000000
v -0.868814 1.301387 0.506015 1.000000 1.000000 1.000000 1.000000
v -0.868814 1.021265 0.506015 1.000000 1.000000 1.000000 1.000000
v -0.868814 1.021265 0.506015 1.000000 1.000000 1.000000 1.000000
v -0.868814 1.021265 0.879511 1.000000 1.000000 1.000000 1.000000
v -0.868814 1.021265 0.879511 1.000000 1.000000 1.000000 1.000000
v -0.868814 0.725163 0.879511 1.000000 1.000000 1.000000 1.000000
v -0.868814 0.725163 0.879511 1.000000 1.000000 1.000000 1.000000
v -0.868814 0.741143 1.253008 1.000000 1.000000 1.000000 1.000000
v -0.868814 0.741143 1.253008 1.000000 1.000000 1.000000 1.000000
v -0.868814 0.461020 1.253008 1.000000 1.000000 1.000000 1.000000
v -0.868814 0.461020 1.253008 1.000000 1.000000 1.000000 1.000000
v -0.868814 0.447539 1.626504 1.000000 1.000000 1.000000 1.000000
v -0.868814 0.447539 1.626504 1.000000 1.000000 1.000000 1.000000
v -0.868814 0.180898 1.626504 1.000000 1.000000 1.000000 1.000000
v -0.868814 0.180898 1.626504 1.000000 1.000000 1.000000 1.000000
v -0.868814 0.180898 2.000000 1.000000 1.000000 1.000000 1.000000
v -0.868814 0.180898 2.000000 1.000000 1.000000 1.000000 1.000000
vt 0.941851 0.716575
vt 0.892055 0.720001
vt 0.910515 0.716575
vt 0.938390 0.720001
vt 0.941851 0.480077
vt 0.910515 0.480077
vt 0.892055 0.956462
vt 0.938390 0.956462
vt 0.894144 0.838232
vt 0.910515 0.598326
vt 0.941851 0.598326
vt 0.888736 0.838377
vt 0.403677 0.823721
vt 0.944028 0.838232
vt 0.447836 0.823746
vt 0.356159 0.599293
vt 0.571467 0.823612
vt 0.400302 0.598115
vt 0.615626 0.823622
vt 0.442122 0.598941
vt 0.486274 0.598195
vt 0.285845 0.824348
vt 0.790079 0.598307
vt 0.241558 0.824348
vt 0.954141 0.316574
vt 0.954182 0.313255
vt 0.742543 0.598307
vt 0.998299 0.316574
vt 0.998341 0.313255
vt 0.606047 0.598912
vt 0.650200 0.598201
vt 0.989329 0.582836
vt 0.697677 0.838232
vt 0.945170 0.582836
vt 0.653519 0.838232
vt 0.366970 0.824351
vt 0.285587 0.599123
vt 0.322811 0.824351
vt 0.241439 0.598155
vt 0.947347 0.822760
vt 0.690027 0.598452
vt 0.991505 0.822760
vt 0.739224 0.598452
vt 0.787378 0.822870
vt 0.870688 0.598307
vt 0.742933 0.822870
vt 0.489619 0.823745
vt 0.826529 0.598307
vt 0.533777 0.823756
vt 0.523974 0.598981
vt 0.568125 0.598187
vt 0.998299 0.104418
vt 0.863038 0.838377
vt 0.954141 0.104418
vt 0.888736 0.941097
vt 0.403621 0.926480
vt 0.941209 0.940952
vt 0.447780 0.926505
vt 0.356080 0.702051
vt 0.571445 0.926371
vt 0.400223 0.700874
vt 0.615648 0.926455
vt 0.439042 0.701728
vt 0.285630 0.721589
vt 0.485190 0.700949
vt 0.241439 0.721622
vt 0.791209 0.495587
vt 0.954141 0.419333
vt 0.745362 0.495587
vt 0.998299 0.419333
vt 0.604883 0.701665
vt 0.989329 0.480077
vt 0.649036 0.700954
vt 0.945170 0.480077
vt 0.700496 0.735512
vt 0.367046 0.721592
vt 0.656337 0.735512
vt 0.322811 0.721631
vt 0.288066 0.496433
vt 0.947347 0.925519
vt 0.246509 0.495522
vt 0.991505 0.925519
vt 0.687209 0.701172
vt 0.786773 0.720012
vt 0.733886 0.701172
vt 0.742543 0.720111
vt 0.873506 0.495587
vt 0.489593 0.926504
vt 0.829348 0.495587
vt 0.533752 0.926515
vt 0.523002 0.701735
vt 0.998299 0.001660
vt 0.567154 0.700941
vt 0.954141 0.001660
vt 0.860219 0.941097
vt 0.888736 0.735656
vt 0.941209 0.735511
vt 0.403621 0.720963
vt 0.353755 0.496600
vt 0.447892 0.721025
vt 0.394745 0.495506
vt 0.571490 0.720853
vt 0.437570 0.496283
vt 0.615648 0.720863
vt 0.481723 0.495537
vt 0.285630 0.927107
vt 0.791209 0.701028
vt 0.241439 0.927074
vt 0.745362 0.701028
vt 0.954141 0.210496
vt 0.603478 0.496220
vt 0.998341 0.210531
vt 0.645727 0.495540
vt 0.989329 0.685595
vt 0.700496 0.940952
vt 0.945170 0.685595
vt 0.656337 0.940952
vt 0.366970 0.927110
vt 0.286154 0.701881
vt 0.322811 0.927110
vt 0.242006 0.700913
vt 0.947347 0.720001
vt 0.687209 0.495732
vt 0.991505 0.720001
vt 0.733886 0.495732
vt 0.786773 0.925727
vt 0.873506 0.701028
vt 0.742543 0.925628
vt 0.829348 0.701028
vt 0.489593 0.720986
vt 0.521434 0.496289
vt 0.533803 0.721033
vt 0.563461 0.495534
vt 0.998299 0.207177
vt 0.860219 0.735656
vt 0.954141 0.207177
vn 0.001725 0.999999 0.000000
vn 0.000000 0.000000 1.000000
vn 0.001725 0.999999 0.000000
vn 0.000000 0.000000 1.000000
vn -0.001725 0.999999 0.000000
vn -0.001725 0.999999 0.000000
vn 0.000000 0.000000 1.000000
vn 0.000000 0.000000 1.000000
vn 0.000000 0.000000 1.000000
vn 0.000000 1.000000 0.000000
vn 0.000000 1.000000 0.000000
vn 0.000000 0.000000 1.000000
vn -0.005776 0.999894 0.013351
vn 0.000000 0.000000 1.000000
vn -0.005776 0.999894 0.013351
vn 0.000000 0.000000 1.000000
vn -0.003600 0.999958 -0.008475
vn 0.000000 0.000000 1.000000
vn -0.003600 0.999958 -0.008475
vn 0.000000 0.000000 1.000000
vn 0.000000 0.000000 1.000000
vn 0.000000 0.999075 -0.043004
vn 0.000000 0.000000 1.000000
vn 0.000000 0.999075 -0.043004
vn -0.003450 0.999961 0.008100
vn -0.003450 0.999961 0.008100
vn 0.000000 0.000000 1.000000
vn -0.003450 0.999961 0.008100
vn -0.003450 0.999961 0.008100
vn 0.000000 0.000000 1.000000
vn 0.000000 0.000000 1.000000
vn 0.000000 1.000000 0.000000
vn 0.000000 0.000000 1.000000
vn 0.000000 1.000000 0.000000
vn 0.000000 0.000000 1.000000
vn 0.004725 0.999928 0.011025
vn 0.000000 0.000000 1.000000
vn 0.004725 0.999928 0.011025
vn 0.000000 0.000000 1.000000
vn 0.000000 1.000000 0.000000
vn 0.000000 0.000000 1.000000
vn 0.000000 1.000000 0.000000
vn 0.000000 0.000000 1.000000
vn 0.000000 0.997945 -0.064074
vn 0.000000 0.000000 1.000000
vn 0.000000 0.997945 -0.064074
vn -0.003900 0.999952 0.009000
vn 0.000000 0.000000 1.000000
vn -0.003900 0.999952 0.009000
vn 0.000000 0.000000 1.000000
vn 0.000000 0.000000 1.000000
vn 0.000000 1.000000 0.000000
vn 0.000000 0.000000 1.000000
vn 0.000000 1.000000 0.000000
vn 0.000000 0.000000 1.000000
vn -0.020554 0.999789 0.000000
vn 0.000000 0.000000 1.000000
vn -0.020554 0.999789 0.000000
vn -0.004399 0.031993 0.999478
vn -0.027835 0.999469 -0.016956
vn 0.000000 0.000000 1.000000
vn -0.027835 0.999469 -0.016956
vn -0.006799 0.029329 0.999547
vn -0.014411 0.998971 -0.043008
vn 0.000000 0.000000 1.000000
vn -0.014411 0.998971 -0.043008
vn -0.001899 0.034390 0.999407
vn -0.020554 0.999789 0.000000
vn 0.000000 0.000000 1.000000
vn -0.020554 0.999789 0.000000
vn -0.004399 0.031993 0.999478
vn -0.020554 0.999789 0.000000
vn 0.000000 0.000000 1.000000
vn -0.020554 0.999789 0.000000
vn -0.004399 0.031993 0.999478
vn -0.011102 0.999697 0.021979
vn 0.000000 0.000000 1.000000
vn -0.011102 0.999697 0.021979
vn -0.000400 0.035592 0.999366
vn -0.020554 0.999789 0.000000
vn 0.000000 0.000000 1.000000
vn -0.020554 0.999789 0.000000
vn -0.004399 0.031993 0.999478
vn -0.029682 0.997507 -0.064022
vn 0.000000 0.000000 1.000000
vn -0.029682 0.997507 -0.064022
vn -0.004399 0.031993 0.999478
vn -0.020554 0.999789 0.000000
vn 0.000000 0.000000 1.000000
vn -0.020554 0.999789 0.000000
vn -0.004399 0.031993 0.999478
vn -0.020554 0.999789 0.000000
vn 0.000000 0.000000 1.000000
vn -0.020554 0.999789 0.000000
vn -0.004399 0.031993 0.999478
vn 0.000000 0.000000 1.000000
vn 0.000000 0.000000 1.000000
vn 0.009078 0.999600 0.026783
vn -0.000600 0.036257 0.999342
vn 0.009078 0.999600 0.026783
vn 0.000000 0.000000 1.000000
vn 0.020554 0.999789 0.000000
vn 0.004399 0.031860 0.999483
vn 0.020554 0.999789 0.000000
vn 0.000000 0.000000 1.000000
vn 0.014411 0.998971 -0.043008
vn 0.001899 0.034257 0.999411
vn 0.014411 0.998971 -0.043008
vn 0.000000 0.000000 1.000000
vn 0.013652 0.999776 0.016203
vn 0.001500 0.034523 0.999403
vn 0.013652 0.999776 0.016203
vn 0.000000 0.000000 1.000000
vn 0.020554 0.999789 0.000000
vn 0.004399 0.031860 0.999483
vn 0.020554 0.999789 0.000000
vn 0.000000 0.000000 1.000000
vn 0.020554 0.999789 0.000000
vn 0.004399 0.031860 0.999483
vn 0.020554 0.999789 0.000000
vn 0.000000 0.000000 1.000000
vn 0.020554 0.999789 0.000000
vn 0.004399 0.031860 0.999483
vn 0.020554 0.999789 0.000000
vn 0.000000 0.000000 1.000000
vn 0.029682 0.997507 -0.064022
vn 0.004399 0.031860 0.999483
vn 0.029682 0.997507 -0.064022
vn 0.000000 0.000000 1.000000
vn 0.012827 0.999754 0.018078
vn 0.001200 0.034789 0.999394
vn 0.012827 0.999754 0.018078
vn 0.000000 0.000000 1.000000
vn 0.020554 0.999789 0.000000
vn 0.004399 0.031860 0.999483
vn 0.020554 0.999789 0.000000
f 11/11/11 1/1/1 3/3/3
f 11/11/11 3/3/3 10/10/10
f 14/14/14 9/9/9 2/2/2
f 2/2/2 4/4/4 97/97/97
f 2/2/2 97/97/97 14/14/14
f 55/55/55 95/95/95 53/53/53
f 55/55/55 53/53/53 12/12/12
f 92/92/92 52/52/52 54/54/54
f 92/92/92 54/54/54 94/94/94
f 91/91/91 50/50/50 51/51/51
f 91/91/91 51/51/51 93/93/93
f 88/88/88 47/47/47 49/49/49
f 88/88/88 49/49/49 90/90/90
f 87/87/87 45/45/45 48/48/48
f 87/87/87 48/48/48 89/89/89
f 84/84/84 44/44/44 46/46/46
f 84/84/84 46/46/46 86/86/86
f 83/83/83 41/41/41 43/43/43
f 83/83/83 43/43/43 85/85/85
f 80/80/80 40/40/40 42/42/42
f 80/80/80 42/42/42 82/82/82
f 79/79/79 37/37/37 39/39/39
f 79/79/79 39/39/39 81/81/81
f 76/76/76 36/36/36 38/38/38
f 76/76/76 38/38/38 78/78/78
f 75/75/75 33/33/33 35/35/35
f 75/75/75 35/35/35 77/77/77
f 72/72/72 32/32/32 34/34/34
f 72/72/72 34/34/34 74/74/74
f 71/71/71 30/30/30 31/31/31
f 71/71/71 31/31/31 73/73/73
f 68/68/68 25/25/25 28/28/28
f 68/68/68 28/28/28 70/70/70
f 67/67/67 23/23/23 27/27/27
f 67/67/67 27/27/27 69/69/69
f 64/64/64 22/22/22 24/24/24
f 64/64/64 24/24/24 66/66/66
f 63/63/63 20/20/20 21/21/21
f 63/63/63 21/21/21 65/65/65
f 60/60/60 17/17/17 19/19/19
f 60/60/60 19/19/19 62/62/62
f 59/59/59 16/16/16 18/18/18
f 59/59/59 18/18/18 61/61/61
f 56/56/56 13/13/13 15/15/15
f 56/56/56 15/15/15 58/58/58
f 8/8/8 7/7/7 9/9/9
f 9/9/9 14/14/14 57/57/57
f 9/9/9 57/57/57 8/8/8
f 12/12/12 53/53/53 135/135/135
f 12/12/12 135/135/135 96/96/96
f 52/52/52 134/134/134 136/136/136
f 52/52/52 136/136/136 54/54/54
f 50/50/50 131/131/131 133/133/133
f 50/50/50 133/133/133 51/51/51
f 47/47/47 130/130/130 132/132/132
f 47/47/47 132/132/132 49/49/49
f 45/45/45 127/127/127 129/129/129
f 45/45/45 129/129/129 48/48/48
f 44/44/44 126/126/126 128/128/128
f 44/44/44 128/128/128 46/46/46
f 41/41/41 123/123/123 125/125/125
f 41/41/41 125/125/125 43/43/43
f 40/40/40 122/122/122 124/124/124
f 40/40/40 124/124/124 42/42/42
f 37/37/37 119/119/119 121/121/121
f 37/37/37 121/121/121 39/39/39
f 36/36/36 118/118/118 120/120/120
f 36/36/36 120/120/120 38/38/38
f 33/33/33 115/115/115 117/117/117
f 33/33/33 117/117/117 35/35/35
f 32/32/32 114/114/114 116/116/116
f 32/32/32 116/116/116 34/34/34
f 30/30/30 111/111/111 113/113/113
f 30/30/30 113/113/113 31/31/31
f 26/26/26 110/110/110 112/112/112
f 26/26/26 112/112/112 29/29/29
f 23/23/23 107/107/107 109/109/109
f 23/23/23 109/109/109 27/27/27
f 22/22/22 106/106/106 108/108/108
f 22/22/22 108/108/108 24/24/24
f 20/20/20 103/103/103 105/105/105
f 20/20/20 105/105/105 21/21/21
f 17/17/17 102/102/102 104/104/104
f 17/17/17 104/104/104 19/19/19
f 16/16/16 99/99/99 101/101/101
f 16/16/16 101/101/101 18/18/18
f 13/13/13 98/98/98 100/100/100
f 13/13/13 100/100/100 15/15/15
f 10/10/10 6/6/6 5/5/5
f 10/10/10 5/5/5 11/11/11
