# generated by the editor's model importer
v -136.339127 135.666016 57.438431 1.000000 1.000000 1.000000 1.000000
v 56.406246 212.391846 -109.796021 1.000000 1.000000 1.000000 1.000000
v -71.433014 206.825928 -106.611755 1.000000 1.000000 1.000000 1.000000
v 135.319321 147.493652 50.671890 1.000000 1.000000 1.000000 1.000000
v 7.080150 22.787842 151.131607 1.000000 1.000000 1.000000 1.000000
v -136.339127 135.666016 57.438431 1.000000 1.000000 1.000000 1.000000
v -135.319321 105.598633 45.823654 1.000000 1.000000 1.000000 1.000000
v 4.859583 87.771240 175.569748 1.000000 1.000000 1.000000 1.000000
v -71.433014 206.825928 -106.611755 1.000000 1.000000 1.000000 1.000000
v -108.430328 67.597168 -66.616928 1.000000 1.000000 1.000000 1.000000
v -65.205887 141.013672 -172.634262 1.000000 1.000000 1.000000 1.000000
v 4.672613 0.000000 14.643860 1.000000 1.000000 1.000000 1.000000
v 7.080150 22.787842 151.131607 1.000000 1.000000 1.000000 1.000000
v 135.319321 147.493652 50.671890 1.000000 1.000000 1.000000 1.000000
v 4.859583 87.771240 175.569748 1.000000 1.000000 1.000000 1.000000
v 136.339127 117.426270 39.057083 1.000000 1.000000 1.000000 1.000000
v 56.406246 212.391846 -109.796021 1.000000 1.000000 1.000000 1.000000
v 107.298431 76.989746 -71.990372 1.000000 1.000000 1.000000 1.000000
v 52.645939 146.144775 -175.569763 1.000000 1.000000 1.000000 1.000000
v 4.672613 0.000000 14.643860 1.000000 1.000000 1.000000 1.000000
v 52.645939 146.144775 -175.569763 1.000000 1.000000 1.000000 1.000000
v -0.324154 23.206543 -145.398270 1.000000 1.000000 1.000000 1.000000
v -0.324154 23.206543 -145.398270 1.000000 1.000000 1.000000 1.000000
v 4.859583 87.771240 175.569748 1.000000 1.000000 1.000000 1.000000
vt 0.625100 0.644631
vt 0.703225 0.593850
vt 0.648538 0.593850
vt 0.734475 0.644631
vt 0.750100 0.019631
vt 0.812600 0.000100
vt 0.812600 0.007913
vt 0.750100 0.000100
vt 0.906350 0.000100
vt 0.859475 0.035256
vt 0.921975 0.027444
vt 0.796975 0.046975
vt 0.750100 0.019631
vt 0.812600 0.000100
vt 0.750100 0.000100
vt 0.812600 0.007913
vt 0.906350 0.000100
vt 0.859475 0.035256
vt 0.921975 0.027444
vt 0.796975 0.046975
vt 0.921975 0.027444
vt 0.882913 0.058694
vt 0.882913 0.058694
vt 0.671975 0.683694
vn -0.793040 0.462486 0.396477
vn 0.600324 0.798478 0.045208
vn -0.664419 0.743413 0.076711
vn 0.768591 0.530477 0.357579
vn 0.049076 -0.749497 0.660186
vn -0.793040 0.462486 0.396477
vn -0.921629 -0.352228 0.162898
vn 0.014489 0.224637 0.974335
vn -0.664419 0.743413 0.076711
vn -0.848537 -0.468256 -0.246416
vn -0.678471 -0.185131 -0.710917
vn 0.044876 -0.997281 0.058457
vn 0.049076 -0.749497 0.660186
vn 0.768591 0.530477 0.357579
vn 0.014489 0.224637 0.974335
vn 0.955692 -0.270492 0.116137
vn 0.600324 0.798478 0.045208
vn 0.872705 -0.393316 -0.289289
vn 0.655819 -0.127038 -0.744152
vn 0.044876 -0.997281 0.058457
vn 0.655819 -0.127038 -0.744152
vn 0.018494 -0.781524 -0.623600
vn 0.018494 -0.781524 -0.623600
vn 0.014489 0.224637 0.974335
f 1/1/1 2/2/2 3/3/3
f 2/2/2 1/1/1 4/4/4
f 24/24/24 4/4/4 1/1/1
f 5/5/5 6/6/6 7/7/7
f 6/6/6 5/5/5 8/8/8
f 7/7/7 12/12/12 5/5/5
f 6/6/6 9/9/9 7/7/7
f 9/9/9 10/10/10 7/7/7
f 12/12/12 7/7/7 10/10/10
f 12/12/12 10/10/10 22/22/22
f 10/10/10 9/9/9 11/11/11
f 10/10/10 11/11/11 22/22/22
f 11/11/11 21/21/21 22/22/22
f 13/13/13 14/14/14 15/15/15
f 14/14/14 13/13/13 16/16/16
f 20/20/20 16/16/16 13/13/13
f 17/17/17 14/14/14 16/16/16
f 18/18/18 17/17/17 16/16/16
f 16/16/16 20/20/20 18/18/18
f 18/18/18 20/20/20 23/23/23
f 17/17/17 18/18/18 19/19/19
f 19/19/19 18/18/18 23/23/23
