# generated by tools/editor_import_glb.py
v -2.000000 0.000000 2.000000 1.000000 1.000000 1.000000 1.000000
v 2.000000 0.000000 2.000000 1.000000 1.000000 1.000000 1.000000
v -2.000000 0.000000 -2.000000 1.000000 1.000000 1.000000 1.000000
v 2.000000 0.000000 -2.000000 1.000000 1.000000 1.000000 1.000000
v -0.474088 0.000000 -1.422265 1.000000 1.000000 1.000000 1.000000
v -1.422265 0.000000 -0.474088 1.000000 1.000000 1.000000 1.000000
v -1.422265 0.000000 0.474088 1.000000 1.000000 1.000000 1.000000
v -0.474088 0.000000 1.422265 1.000000 1.000000 1.000000 1.000000
v 0.474088 0.000000 1.422265 1.000000 1.000000 1.000000 1.000000
v 1.422265 0.000000 0.474088 1.000000 1.000000 1.000000 1.000000
v 1.422265 0.000000 -0.474088 1.000000 1.000000 1.000000 1.000000
v 0.474088 0.000000 -1.422265 1.000000 1.000000 1.000000 1.000000
vt 0.000037 -0.000103
vt 1.000102 -0.000103
vt 0.000037 0.999962
vt 1.000102 0.999962
vt 0.381540 0.855518
vt 0.144480 0.618459
vt 0.144480 0.381399
vt 0.381540 0.144340
vt 0.618599 0.144340
vt 0.855659 0.381399
vt 0.855659 0.618459
vt 0.618599 0.855518
vn 0.000000 1.000000 0.000000
vn 0.000000 1.000000 0.000000
vn 0.000000 1.000000 0.000000
vn 0.000000 1.000000 0.000000
vn 0.000000 1.000000 0.000000
vn 0.000000 1.000000 0.000000
vn 0.000000 1.000000 0.000000
vn 0.000000 1.000000 0.000000
vn 0.000000 1.000000 0.000000
vn 0.000000 1.000000 0.000000
vn 0.000000 1.000000 0.000000
vn 0.000000 1.000000 0.000000
f 9/9/9 8/8/8 1/1/1
f 9/9/9 1/1/1 2/2/2
f 4/4/4 12/12/12 11/11/11
f 10/10/10 9/9/9 2/2/2
f 5/5/5 12/12/12 4/4/4
f 5/5/5 4/4/4 3/3/3
f 11/11/11 10/10/10 2/2/2
f 11/11/11 2/2/2 4/4/4
f 7/7/7 6/6/6 3/3/3
f 7/7/7 3/3/3 1/1/1
f 5/5/5 3/3/3 6/6/6
f 1/1/1 8/8/8 7/7/7
