# generated by the editor's model importer
v 4.819767 0.196907 -0.083215 1.000000 1.000000 1.000000 1.000000
v 4.588491 0.695614 -0.076200 1.000000 1.000000 1.000000 1.000000
v 4.169232 0.498703 0.083214 1.000000 1.000000 1.000000 1.000000
v 4.400508 0.000000 0.076200 1.000000 1.000000 1.000000 1.000000
v -4.819767 0.196907 -0.083215 1.000000 1.000000 1.000000 1.000000
v -4.400508 0.000000 0.076200 1.000000 1.000000 1.000000 1.000000
v -4.169232 0.498703 0.083214 1.000000 1.000000 1.000000 1.000000
v -4.588491 0.695614 -0.076200 1.000000 1.000000 1.000000 1.000000
vt 0.482400 0.673800
vt 0.482400 0.693400
vt 0.455100 0.693400
vt 0.455100 0.673800
vt 0.482400 0.673800
vt 0.455100 0.673800
vt 0.455100 0.693400
vt 0.482400 0.693400
vn 0.300296 0.125998 0.945488
vn 0.300296 0.125998 0.945488
vn 0.300296 0.125998 0.945488
vn 0.300296 0.125998 0.945488
vn -0.300296 0.125998 0.945488
vn -0.300296 0.125998 0.945488
vn -0.300296 0.125998 0.945488
vn -0.300296 0.125998 0.945488
f 1/1/1 2/2/2 3/3/3
f 1/1/1 3/3/3 4/4/4
f 5/5/5 6/6/6 7/7/7
f 5/5/5 7/7/7 8/8/8
