# generated by the editor's model importer
v 268.751221 235.976379 174.862152 1.000000 1.000000 1.000000 1.000000
v -37.869385 116.517578 211.841370 1.000000 1.000000 1.000000 1.000000
v 249.294312 201.941162 173.843292 1.000000 1.000000 1.000000 1.000000
v -71.661377 134.712646 219.906250 1.000000 1.000000 1.000000 1.000000
v -37.869385 116.517578 211.841370 1.000000 1.000000 1.000000 1.000000
v -81.565857 0.000000 207.805054 1.000000 1.000000 1.000000 1.000000
v -51.137878 9.051514 203.778778 1.000000 1.000000 1.000000 1.000000
v -71.661377 134.712646 219.906250 1.000000 1.000000 1.000000 1.000000
v 315.899109 118.235352 155.211670 1.000000 1.000000 1.000000 1.000000
v 268.751221 235.976379 174.862152 1.000000 1.000000 1.000000 1.000000
v 249.294312 201.941162 173.843292 1.000000 1.000000 1.000000 1.000000
v 346.327026 127.286865 151.185394 1.000000 1.000000 1.000000 1.000000
v -126.071869 42.544373 -17.002014 1.000000 1.000000 1.000000 1.000000
v -51.137878 9.051514 203.778778 1.000000 1.000000 1.000000 1.000000
v -81.565857 0.000000 207.805054 1.000000 1.000000 1.000000 1.000000
v -80.429932 56.121582 -23.041443 1.000000 1.000000 1.000000 1.000000
v 346.327026 127.286865 151.185394 1.000000 1.000000 1.000000 1.000000
v 259.982605 157.385376 -68.085541 1.000000 1.000000 1.000000 1.000000
v 305.624512 170.962646 -74.124969 1.000000 1.000000 1.000000 1.000000
v 315.899109 118.235352 155.211670 1.000000 1.000000 1.000000 1.000000
v 78.658569 693.920715 -136.848907 1.000000 1.000000 1.000000 1.000000
v -15.514099 854.302734 -289.292603 1.000000 1.000000 1.000000 1.000000
v 108.828430 837.935913 -54.003250 1.000000 1.000000 1.000000 1.000000
v -29.821411 705.062622 -343.483765 1.000000 1.000000 1.000000 1.000000
v -204.782043 653.016479 -320.332611 1.000000 1.000000 1.000000 1.000000
v -15.514099 854.302734 -289.292603 1.000000 1.000000 1.000000 1.000000
v -29.821411 705.062622 -343.483765 1.000000 1.000000 1.000000 1.000000
v -283.660339 774.536316 -253.810959 1.000000 1.000000 1.000000 1.000000
v 305.624512 170.962646 -74.124969 1.000000 1.000000 1.000000 1.000000
v 268.751221 235.976379 174.862152 1.000000 1.000000 1.000000 1.000000
v 346.327026 127.286865 151.185394 1.000000 1.000000 1.000000 1.000000
v 146.741882 385.376526 -141.109894 1.000000 1.000000 1.000000 1.000000
v -126.071869 42.544373 -17.002014 1.000000 1.000000 1.000000 1.000000
v -71.661377 134.712646 219.906250 1.000000 1.000000 1.000000 1.000000
v -129.011292 303.347229 -104.621674 1.000000 1.000000 1.000000 1.000000
v -81.565857 0.000000 207.805054 1.000000 1.000000 1.000000 1.000000
v -62.253418 831.693970 -240.320358 1.000000 1.000000 1.000000 1.000000
v -283.660339 774.536316 -253.810959 1.000000 1.000000 1.000000 1.000000
v -222.000061 784.173523 -219.182358 1.000000 1.000000 1.000000 1.000000
v -15.514099 854.302734 -289.292603 1.000000 1.000000 1.000000 1.000000
v -237.031281 600.011292 -95.076187 1.000000 1.000000 1.000000 1.000000
v -283.660339 774.536316 -253.810959 1.000000 1.000000 1.000000 1.000000
v -204.782043 653.016479 -320.332611 1.000000 1.000000 1.000000 1.000000
v -319.064453 710.649109 2.616425 1.000000 1.000000 1.000000 1.000000
v -168.121399 970.984619 -59.646317 1.000000 1.000000 1.000000 1.000000
v 108.828430 837.935913 -54.003250 1.000000 1.000000 1.000000 1.000000
v -62.253418 831.693970 -240.320358 1.000000 1.000000 1.000000 1.000000
v 15.004761 926.045044 31.102020 1.000000 1.000000 1.000000 1.000000
v 78.658569 693.920715 -136.848907 1.000000 1.000000 1.000000 1.000000
v -22.933350 629.329651 269.510681 1.000000 1.000000 1.000000 1.000000
v -18.290710 537.106140 97.268707 1.000000 1.000000 1.000000 1.000000
v 108.828430 837.935913 -54.003250 1.000000 1.000000 1.000000 1.000000
v 15.004761 926.045044 31.102020 1.000000 1.000000 1.000000 1.000000
v -35.492737 693.170776 318.117004 1.000000 1.000000 1.000000 1.000000
v 91.074585 948.673706 21.036285 1.000000 1.000000 1.000000 1.000000
v -50.243652 723.551147 274.937805 1.000000 1.000000 1.000000 1.000000
v 49.098145 291.680237 70.700684 1.000000 1.000000 1.000000 1.000000
v 146.741882 385.376526 -141.109894 1.000000 1.000000 1.000000 1.000000
v 91.074585 948.673706 21.036285 1.000000 1.000000 1.000000 1.000000
v -35.492737 693.170776 318.117004 1.000000 1.000000 1.000000 1.000000
v -168.121399 970.984619 -59.646317 1.000000 1.000000 1.000000 1.000000
v -319.064453 710.649109 2.616425 1.000000 1.000000 1.000000 1.000000
v -270.257202 841.187134 68.848450 1.000000 1.000000 1.000000 1.000000
v -222.000061 784.173523 -219.182358 1.000000 1.000000 1.000000 1.000000
v -237.031281 600.011292 -95.076187 1.000000 1.000000 1.000000 1.000000
v -22.933350 629.329651 269.510681 1.000000 1.000000 1.000000 1.000000
v -319.064453 710.649109 2.616425 1.000000 1.000000 1.000000 1.000000
v -18.290710 537.106140 97.268707 1.000000 1.000000 1.000000 1.000000
v -270.257202 841.187134 68.848450 1.000000 1.000000 1.000000 1.000000
v -35.492737 693.170776 318.117004 1.000000 1.000000 1.000000 1.000000
v -50.243652 723.551147 274.937805 1.000000 1.000000 1.000000 1.000000
v -346.327026 818.558350 78.914185 1.000000 1.000000 1.000000 1.000000
v 49.098145 291.680237 70.700684 1.000000 1.000000 1.000000 1.000000
v -129.011292 303.347229 -104.621674 1.000000 1.000000 1.000000 1.000000
v -346.327026 818.558350 78.914185 1.000000 1.000000 1.000000 1.000000
v -35.492737 693.170776 318.117004 1.000000 1.000000 1.000000 1.000000
v 249.294312 201.941162 173.843292 1.000000 1.000000 1.000000 1.000000
v -37.869385 116.517578 211.841370 1.000000 1.000000 1.000000 1.000000
v 89.081055 39.412231 -194.260117 1.000000 1.000000 1.000000 1.000000
v -51.137878 9.051514 203.778778 1.000000 1.000000 1.000000 1.000000
v 315.899109 118.235352 155.211670 1.000000 1.000000 1.000000 1.000000
v 268.751221 235.976379 174.862152 1.000000 1.000000 1.000000 1.000000
v 49.098145 291.680237 70.700684 1.000000 1.000000 1.000000 1.000000
v -71.661377 134.712646 219.906250 1.000000 1.000000 1.000000 1.000000
v 146.741882 385.376526 -141.109894 1.000000 1.000000 1.000000 1.000000
v 259.982605 157.385376 -68.085541 1.000000 1.000000 1.000000 1.000000
v 50.949829 122.398315 -295.868835 1.000000 1.000000 1.000000 1.000000
v -16.024780 366.105225 -254.139236 1.000000 1.000000 1.000000 1.000000
v 50.949829 122.398315 -295.868835 1.000000 1.000000 1.000000 1.000000
v -80.429932 56.121582 -23.041443 1.000000 1.000000 1.000000 1.000000
v -129.011292 303.347229 -104.621674 1.000000 1.000000 1.000000 1.000000
v -16.024780 366.105225 -254.139236 1.000000 1.000000 1.000000 1.000000
v -16.024780 366.105225 -254.139236 1.000000 1.000000 1.000000 1.000000
v 146.741882 385.376526 -141.109894 1.000000 1.000000 1.000000 1.000000
v -129.011292 303.347229 -104.621674 1.000000 1.000000 1.000000 1.000000
v -16.024780 366.105225 -254.139236 1.000000 1.000000 1.000000 1.000000
v -16.024780 366.105225 -254.139236 1.000000 1.000000 1.000000 1.000000
v 315.899109 118.235352 155.211670 1.000000 1.000000 1.000000 1.000000
v 89.081055 39.412231 -194.260117 1.000000 1.000000 1.000000 1.000000
v 89.081055 39.412231 -194.260117 1.000000 1.000000 1.000000 1.000000
v -51.137878 9.051514 203.778778 1.000000 1.000000 1.000000 1.000000
v 146.741882 385.376526 -141.109894 1.000000 1.000000 1.000000 1.000000
v 305.624512 170.962646 -74.124969 1.000000 1.000000 1.000000 1.000000
v 259.982605 157.385376 -68.085541 1.000000 1.000000 1.000000 1.000000
v -50.243652 723.551147 274.937805 1.000000 1.000000 1.000000 1.000000
v 15.004761 926.045044 31.102020 1.000000 1.000000 1.000000 1.000000
v -150.008728 1089.416382 343.483765 1.000000 1.000000 1.000000 1.000000
v -270.257202 841.187134 68.848450 1.000000 1.000000 1.000000 1.000000
v -50.243652 723.551147 274.937805 1.000000 1.000000 1.000000 1.000000
v -150.008728 1089.416382 343.483765 1.000000 1.000000 1.000000 1.000000
v -143.281616 977.520630 142.769775 1.000000 1.000000 1.000000 1.000000
v -50.243652 723.551147 274.937805 1.000000 1.000000 1.000000 1.000000
v -143.281616 977.520630 142.769775 1.000000 1.000000 1.000000 1.000000
v -50.243652 723.551147 274.937805 1.000000 1.000000 1.000000 1.000000
v 108.828430 837.935913 -54.003250 1.000000 1.000000 1.000000 1.000000
v -15.514099 854.302734 -289.292603 1.000000 1.000000 1.000000 1.000000
v -62.253418 831.693970 -240.320358 1.000000 1.000000 1.000000 1.000000
v -126.071869 42.544373 -17.002014 1.000000 1.000000 1.000000 1.000000
v -129.011292 303.347229 -104.621674 1.000000 1.000000 1.000000 1.000000
v -80.429932 56.121582 -23.041443 1.000000 1.000000 1.000000 1.000000
v 146.741882 385.376526 -141.109894 1.000000 1.000000 1.000000 1.000000
v -129.011292 303.347229 -104.621674 1.000000 1.000000 1.000000 1.000000
v -222.000061 784.173523 -219.182358 1.000000 1.000000 1.000000 1.000000
v 15.004761 926.045044 31.102020 1.000000 1.000000 1.000000 1.000000
v 91.074585 948.673706 21.036285 1.000000 1.000000 1.000000 1.000000
v 108.828430 837.935913 -54.003250 1.000000 1.000000 1.000000 1.000000
v -346.327026 818.558350 78.914185 1.000000 1.000000 1.000000 1.000000
v -270.257202 841.187134 68.848450 1.000000 1.000000 1.000000 1.000000
v -319.064453 710.649109 2.616425 1.000000 1.000000 1.000000 1.000000
v -283.660339 774.536316 -253.810959 1.000000 1.000000 1.000000 1.000000
v -319.064453 710.649109 2.616425 1.000000 1.000000 1.000000 1.000000
v -222.000061 784.173523 -219.182358 1.000000 1.000000 1.000000 1.000000
vt 0.671975 0.589944
vt 0.625100 0.578225
vt 0.671975 0.578225
vt 0.625100 0.589944
vt 0.664163 0.574319
vt 0.625100 0.589944
vt 0.625100 0.578225
vt 0.671975 0.589944
vt 0.671975 0.578225
vt 0.625100 0.589944
vt 0.625100 0.578225
vt 0.671975 0.589944
vt 0.625100 0.562600
vt 0.625100 0.589944
vt 0.625100 0.589944
vt 0.625100 0.562600
vt 0.671975 0.589944
vt 0.671975 0.562600
vt 0.671975 0.562600
vt 0.671975 0.589944
vt 0.625100 0.839944
vt 0.734475 0.812600
vt 0.625100 0.812600
vt 0.734475 0.839944
vt 0.937600 0.714944
vt 0.984475 0.687600
vt 0.976663 0.714944
vt 0.937600 0.687600
vt 0.859475 0.121194
vt 0.687600 0.062600
vt 0.687600 0.121194
vt 0.859475 0.062600
vt 0.859475 0.121194
vt 0.687600 0.062600
vt 0.859475 0.062600
vt 0.687600 0.121194
vt 0.976663 0.687600
vt 0.937600 0.695413
vt 0.937600 0.687600
vt 0.984475 0.695413
vt 0.625100 0.839944
vt 0.734475 0.812600
vt 0.734475 0.839944
vt 0.625100 0.812600
vt 0.609475 0.812600
vt 0.492287 0.867288
vt 0.609475 0.867288
vt 0.468850 0.828225
vt 0.359475 0.570413
vt 0.187600 0.531350
vt 0.187600 0.570413
vt 0.359475 0.531350
vt 0.625100 0.562600
vt 0.671975 0.589944
vt 0.625100 0.589944
vt 0.671975 0.562600
vt 0.187600 0.652444
vt 0.359475 0.652444
vt 0.359475 0.500100
vt 0.187600 0.500100
vt 0.609475 0.812600
vt 0.492287 0.867288
vt 0.468850 0.828225
vt 0.609475 0.867288
vt 0.359475 0.570413
vt 0.187600 0.531350
vt 0.359475 0.531350
vt 0.187600 0.570413
vt 0.671975 0.562600
vt 0.625100 0.589944
vt 0.625100 0.562600
vt 0.671975 0.589944
vt 0.187600 0.652444
vt 0.359475 0.652444
vt 0.359475 0.500100
vt 0.187600 0.500100
vt 0.671975 0.566506
vt 0.625100 0.566506
vt 0.648538 0.562600
vt 0.625100 0.566506
vt 0.671975 0.566506
vt 0.750100 0.683694
vt 0.828225 0.640725
vt 0.921975 0.683694
vt 0.250100 0.156350
vt 0.250100 0.226663
vt 0.359475 0.218850
vt 0.359475 0.156350
vt 0.359475 0.218850
vt 0.250100 0.226663
vt 0.250100 0.156350
vt 0.359475 0.156350
vt 0.734475 0.902444
vt 0.625100 0.902444
vt 0.625100 0.902444
vt 0.734475 0.902444
vt 0.953225 0.777444
vt 0.250100 0.246194
vt 0.359475 0.246194
vt 0.359475 0.246194
vt 0.250100 0.246194
vt 0.664163 0.570413
vt 0.671975 0.589944
vt 0.671975 0.589944
vt 0.750100 0.902444
vt 0.859475 0.902444
vt 0.859475 0.812600
vt 0.859475 0.902444
vt 0.750100 0.902444
vt 0.859475 0.812600
vt 0.437600 0.812600
vt 0.437600 0.871194
vt 0.437600 0.812600
vt 0.437600 0.871194
vt 0.625100 0.812600
vt 0.734475 0.828225
vt 0.734475 0.812600
vt 0.625100 0.589944
vt 0.625100 0.570413
vt 0.625100 0.589944
vt 0.750100 0.593850
vt 0.921975 0.593850
vt 0.609475 0.867288
vt 0.625100 0.574319
vt 0.671975 0.574319
vt 0.671975 0.589944
vt 0.625100 0.574319
vt 0.671975 0.574319
vt 0.625100 0.589944
vt 0.734475 0.828225
vt 0.625100 0.812600
vt 0.734475 0.812600
vn 0.465009 0.560472 0.685301
vn 0.410606 -0.308170 0.858157
vn 0.036860 -0.417599 0.907883
vn -0.513272 0.268043 0.815294
vn 0.410606 -0.308170 0.858157
vn -0.411970 -0.727950 0.548059
vn 0.547364 -0.645286 0.532916
vn -0.513272 0.268043 0.815294
vn 0.032779 -0.799952 0.599169
vn 0.465009 0.560472 0.685301
vn 0.036860 -0.417599 0.907883
vn 0.856354 -0.351217 0.378555
vn -0.624991 -0.655566 -0.423815
vn 0.547364 -0.645286 0.532916
vn -0.411970 -0.727950 0.548059
vn -0.244287 -0.816017 -0.523871
vn 0.856354 -0.351217 0.378555
vn 0.508421 -0.592953 -0.624432
vn 0.756428 -0.244630 -0.606607
vn 0.032779 -0.799952 0.599169
vn 0.988729 0.033913 -0.145828
vn 0.292282 0.789948 -0.539030
vn 0.936826 0.306246 -0.169027
vn 0.355565 0.109284 -0.928240
vn -0.568336 -0.163886 -0.806310
vn 0.292282 0.789948 -0.539030
vn 0.355565 0.109284 -0.928240
vn -0.790246 0.467828 -0.395788
vn 0.756428 -0.244630 -0.606607
vn 0.465009 0.560472 0.685301
vn 0.856354 -0.351217 0.378555
vn 0.890687 0.339864 -0.301941
vn -0.624991 -0.655566 -0.423815
vn -0.513272 0.268043 0.815294
vn -0.975764 -0.212101 -0.053824
vn -0.411970 -0.727950 0.548059
vn -0.148188 0.984368 -0.095186
vn -0.790246 0.467828 -0.395788
vn -0.432511 0.899789 -0.057564
vn 0.292282 0.789948 -0.539030
vn -0.854035 -0.510798 0.098540
vn -0.790246 0.467828 -0.395788
vn -0.568336 -0.163886 -0.806310
vn -0.962437 -0.258734 0.082287
vn -0.308597 0.898414 -0.312441
vn 0.936826 0.306246 -0.169027
vn -0.148188 0.984368 -0.095186
vn 0.363574 0.925914 0.102455
vn 0.988729 0.033913 -0.145828
vn 0.292274 -0.686236 0.666076
vn 0.268553 -0.536726 0.799878
vn 0.936826 0.306246 -0.169027
vn 0.363574 0.925914 0.102455
vn 0.136998 -0.020003 0.990369
vn 0.512955 0.853210 -0.094395
vn -0.091778 0.645717 0.758041
vn -0.106581 0.674183 0.730833
vn 0.890687 0.339864 -0.301941
vn 0.512955 0.853210 -0.094395
vn 0.136998 -0.020003 0.990369
vn -0.308597 0.898414 -0.312441
vn -0.962437 -0.258734 0.082287
vn -0.767442 0.589467 0.252113
vn -0.432511 0.899789 -0.057564
vn -0.854035 -0.510798 0.098540
vn 0.292274 -0.686236 0.666076
vn -0.962437 -0.258734 0.082287
vn 0.268553 -0.536726 0.799878
vn -0.767442 0.589467 0.252113
vn 0.136998 -0.020003 0.990369
vn -0.091778 0.645717 0.758041
vn -0.896183 0.434029 0.092065
vn -0.106581 0.674183 0.730833
vn -0.975764 -0.212101 -0.053824
vn -0.896183 0.434029 0.092065
vn 0.136998 -0.020003 0.990369
vn 0.036860 -0.417599 0.907883
vn 0.410606 -0.308170 0.858157
vn 0.208997 -0.890666 -0.403775
vn 0.547364 -0.645286 0.532916
vn 0.032779 -0.799952 0.599169
vn 0.465009 0.560472 0.685301
vn -0.106581 0.674183 0.730833
vn -0.513272 0.268043 0.815294
vn 0.890687 0.339864 -0.301941
vn 0.508421 -0.592953 -0.624432
vn -0.027457 -0.335716 -0.941563
vn -0.075585 -0.198276 -0.977227
vn -0.027457 -0.335716 -0.941563
vn -0.244287 -0.816017 -0.523871
vn -0.975764 -0.212101 -0.053824
vn -0.075585 -0.198276 -0.977227
vn -0.075585 -0.198276 -0.977227
vn 0.890687 0.339864 -0.301941
vn -0.975764 -0.212101 -0.053824
vn -0.075585 -0.198276 -0.977227
vn -0.075585 -0.198276 -0.977227
vn 0.032779 -0.799952 0.599169
vn 0.208997 -0.890666 -0.403775
vn 0.208997 -0.890666 -0.403775
vn 0.547364 -0.645286 0.532916
vn 0.890687 0.339864 -0.301941
vn 0.756428 -0.244630 -0.606607
vn 0.508421 -0.592953 -0.624432
vn -0.091778 0.645717 0.758041
vn 0.363574 0.925914 0.102455
vn 0.169760 -0.136539 0.975981
vn -0.767442 0.589467 0.252113
vn -0.091778 0.645717 0.758041
vn 0.169760 -0.136539 0.975981
vn -0.168411 0.813649 0.556429
vn -0.091778 0.645717 0.758041
vn -0.168411 0.813649 0.556429
vn -0.091778 0.645717 0.758041
vn 0.936826 0.306246 -0.169027
vn 0.292282 0.789948 -0.539030
vn -0.148188 0.984368 -0.095186
vn -0.624991 -0.655566 -0.423815
vn -0.975764 -0.212101 -0.053824
vn -0.244287 -0.816017 -0.523871
vn 0.890687 0.339864 -0.301941
vn -0.975764 -0.212101 -0.053824
vn -0.432511 0.899789 -0.057564
vn 0.363574 0.925914 0.102455
vn 0.512955 0.853210 -0.094395
vn 0.936826 0.306246 -0.169027
vn -0.896183 0.434029 0.092065
vn -0.767442 0.589467 0.252113
vn -0.962437 -0.258734 0.082287
vn -0.790246 0.467828 -0.395788
vn -0.962437 -0.258734 0.082287
vn -0.432511 0.899789 -0.057564
f 1/1/1 2/2/2 3/3/3
f 2/2/2 1/1/1 4/4/4
f 5/5/5 6/6/6 7/7/7
f 6/6/6 5/5/5 8/8/8
f 9/9/9 10/10/10 11/11/11
f 10/10/10 9/9/9 12/12/12
f 13/13/13 14/14/14 15/15/15
f 14/14/14 13/13/13 16/16/16
f 17/17/17 18/18/18 19/19/19
f 18/18/18 17/17/17 20/20/20
f 21/21/21 22/22/22 23/23/23
f 22/22/22 21/21/21 24/24/24
f 24/24/24 21/21/21 94/94/94
f 93/93/93 24/24/24 94/94/94
f 25/25/25 26/26/26 27/27/27
f 26/26/26 25/25/25 28/28/28
f 25/25/25 27/27/27 97/97/97
f 29/29/29 30/30/30 31/31/31
f 30/30/30 29/29/29 32/32/32
f 33/33/33 34/34/34 35/35/35
f 34/34/34 33/33/33 36/36/36
f 37/37/37 38/38/38 39/39/39
f 38/38/38 37/37/37 40/40/40
f 41/41/41 42/42/42 43/43/43
f 42/42/42 41/41/41 44/44/44
f 41/41/41 43/43/43 95/95/95
f 43/43/43 96/96/96 95/95/95
f 45/45/45 46/46/46 47/47/47
f 46/46/46 45/45/45 48/48/48
f 48/48/48 45/45/45 113/113/113
f 123/123/123 45/45/45 47/47/47
f 114/114/114 48/48/48 113/113/113
f 49/49/49 50/50/50 51/51/51
f 50/50/50 49/49/49 52/52/52
f 57/57/57 49/49/49 51/51/51
f 49/49/49 57/57/57 58/58/58
f 50/50/50 59/59/59 60/60/60
f 59/59/59 50/50/50 52/52/52
f 53/53/53 54/54/54 55/55/55
f 54/54/54 53/53/53 56/56/56
f 61/61/61 62/62/62 63/63/63
f 62/62/62 61/61/61 64/64/64
f 61/61/61 63/63/63 111/111/111
f 111/111/111 63/63/63 112/112/112
f 65/65/65 66/66/66 67/67/67
f 66/66/66 65/65/65 68/68/68
f 73/73/73 65/65/65 74/74/74
f 65/65/65 73/73/73 68/68/68
f 66/66/66 75/75/75 67/67/67
f 75/75/75 66/66/66 76/76/76
f 69/69/69 70/70/70 71/71/71
f 70/70/70 69/69/69 72/72/72
f 77/77/77 78/78/78 79/79/79
f 81/81/81 77/77/77 79/79/79
f 78/78/78 80/80/80 79/79/79
f 82/82/82 83/83/83 84/84/84
f 121/121/121 83/83/83 82/82/82
f 83/83/83 122/122/122 84/84/84
f 85/85/85 86/86/86 87/87/87
f 87/87/87 88/88/88 85/85/85
f 86/86/86 98/98/98 99/99/99
f 99/99/99 87/87/87 86/86/86
f 89/89/89 90/90/90 91/91/91
f 91/91/91 92/92/92 89/89/89
f 90/90/90 89/89/89 100/100/100
f 90/90/90 100/100/100 101/101/101
f 102/102/102 103/103/103 104/104/104
f 105/105/105 106/106/106 107/107/107
f 108/108/108 109/109/109 110/110/110
f 115/115/115 116/116/116 117/117/117
f 118/118/118 119/119/119 120/120/120
f 124/124/124 125/125/125 126/126/126
f 127/127/127 128/128/128 129/129/129
f 130/130/130 131/131/131 132/132/132
