# generated by the editor's model importer
v -0.084000 0.340000 0.780000 1.000000 1.000000 1.000000 1.000000
v 0.086000 0.214000 0.774000 1.000000 1.000000 1.000000 1.000000
v 0.086000 0.340000 0.780000 1.000000 1.000000 1.000000 1.000000
v -0.084000 0.340000 0.780000 1.000000 1.000000 1.000000 1.000000
v -0.084000 0.214000 0.774000 1.000000 1.000000 1.000000 1.000000
v 0.168000 1.014000 0.816000 1.000000 1.000000 1.000000 1.000000
v -0.168000 0.888000 0.816000 1.000000 1.000000 1.000000 1.000000
v 0.168000 0.888000 0.816000 1.000000 1.000000 1.000000 1.000000
v -0.168000 1.014000 0.816000 1.000000 1.000000 1.000000 1.000000
v -0.168000 0.888000 0.816000 1.000000 1.000000 1.000000 1.000000
v 0.000000 0.120000 0.778000 1.000000 1.000000 1.000000 1.000000
v -0.112000 0.212000 0.778000 1.000000 1.000000 1.000000 1.000000
v -0.114000 0.164000 0.732000 1.000000 1.000000 1.000000 1.000000
v 0.000000 0.182000 0.840000 1.000000 1.000000 1.000000 1.000000
v 0.112000 0.212000 0.778000 1.000000 1.000000 1.000000 1.000000
v 0.000000 0.120000 0.778000 1.000000 1.000000 1.000000 1.000000
v 0.114000 0.164000 0.732000 1.000000 1.000000 1.000000 1.000000
v 0.000000 0.182000 0.840000 1.000000 1.000000 1.000000 1.000000
v -0.184000 1.142000 0.734000 1.000000 1.000000 1.000000 1.000000
v 0.000000 1.058000 0.234000 1.000000 1.000000 1.000000 1.000000
v -0.266000 0.984000 0.140000 1.000000 1.000000 1.000000 1.000000
v -0.184000 1.142000 0.734000 1.000000 1.000000 1.000000 1.000000
v 0.000000 1.182000 0.816000 1.000000 1.000000 1.000000 1.000000
v 0.000000 1.058000 0.234000 1.000000 1.000000 1.000000 1.000000
v 0.184000 1.142000 0.734000 1.000000 1.000000 1.000000 1.000000
v 0.266000 0.984000 0.140000 1.000000 1.000000 1.000000 1.000000
v 0.000000 1.182000 0.816000 1.000000 1.000000 1.000000 1.000000
v 0.184000 1.142000 0.734000 1.000000 1.000000 1.000000 1.000000
v 0.000000 1.058000 0.234000 1.000000 1.000000 1.000000 1.000000
v -0.346000 1.128000 0.022000 1.000000 1.000000 1.000000 1.000000
v -0.266000 0.984000 0.140000 1.000000 1.000000 1.000000 1.000000
v 0.000000 1.164000 0.166000 1.000000 1.000000 1.000000 1.000000
v 0.346000 1.128000 0.022000 1.000000 1.000000 1.000000 1.000000
v 0.000000 1.058000 0.234000 1.000000 1.000000 1.000000 1.000000
v 0.266000 0.984000 0.140000 1.000000 1.000000 1.000000 1.000000
v 0.000000 1.164000 0.166000 1.000000 1.000000 1.000000 1.000000
v -0.414000 0.582000 0.016000 1.000000 1.000000 1.000000 1.000000
v -0.672000 0.572000 -0.844000 1.000000 1.000000 1.000000 1.000000
v -0.672000 0.256000 -0.530000 1.000000 1.000000 1.000000 1.000000
v -0.422000 0.718000 -0.156000 1.000000 1.000000 1.000000 1.000000
v 0.672000 0.572000 -0.844000 1.000000 1.000000 1.000000 1.000000
v 0.414000 0.582000 0.016000 1.000000 1.000000 1.000000 1.000000
v 0.672000 0.256000 -0.530000 1.000000 1.000000 1.000000 1.000000
v 0.422000 0.718000 -0.156000 1.000000 1.000000 1.000000 1.000000
v -0.192000 1.026000 0.808000 1.000000 1.000000 1.000000 1.000000
v -0.296000 0.864000 0.150000 1.000000 1.000000 1.000000 1.000000
v -0.288000 0.614000 0.228000 1.000000 1.000000 1.000000 1.000000
v -0.192000 1.026000 0.808000 1.000000 1.000000 1.000000 1.000000
v -0.184000 1.142000 0.734000 1.000000 1.000000 1.000000 1.000000
v -0.184000 1.142000 0.734000 1.000000 1.000000 1.000000 1.000000
v 0.000000 1.066000 0.918000 1.000000 1.000000 1.000000 1.000000
v 0.000000 1.182000 0.816000 1.000000 1.000000 1.000000 1.000000
v -0.192000 1.026000 0.808000 1.000000 1.000000 1.000000 1.000000
v 0.184000 1.142000 0.734000 1.000000 1.000000 1.000000 1.000000
v 0.000000 1.066000 0.918000 1.000000 1.000000 1.000000 1.000000
v 0.192000 1.026000 0.808000 1.000000 1.000000 1.000000 1.000000
v 0.000000 1.182000 0.816000 1.000000 1.000000 1.000000 1.000000
v 0.296000 0.864000 0.150000 1.000000 1.000000 1.000000 1.000000
v 0.192000 1.026000 0.808000 1.000000 1.000000 1.000000 1.000000
v 0.288000 0.614000 0.228000 1.000000 1.000000 1.000000 1.000000
v 0.184000 1.142000 0.734000 1.000000 1.000000 1.000000 1.000000
v 0.192000 1.026000 0.808000 1.000000 1.000000 1.000000 1.000000
v 0.000000 0.944000 -0.608000 1.000000 1.000000 1.000000 1.000000
v 0.362000 0.736000 -0.910000 1.000000 1.000000 1.000000 1.000000
v 0.000000 0.774000 -0.918000 1.000000 1.000000 1.000000 1.000000
v 0.362000 1.004000 -0.444000 1.000000 1.000000 1.000000 1.000000
v -0.362000 1.004000 -0.444000 1.000000 1.000000 1.000000 1.000000
v 0.000000 0.774000 -0.918000 1.000000 1.000000 1.000000 1.000000
v -0.362000 0.736000 -0.910000 1.000000 1.000000 1.000000 1.000000
v 0.000000 0.944000 -0.608000 1.000000 1.000000 1.000000 1.000000
v -0.168000 1.014000 0.816000 1.000000 1.000000 1.000000 1.000000
v -0.232000 0.614000 0.228000 1.000000 1.000000 1.000000 1.000000
v -0.084000 0.214000 0.774000 1.000000 1.000000 1.000000 1.000000
v 0.084000 0.214000 0.774000 1.000000 1.000000 1.000000 1.000000
v 0.232000 0.614000 0.228000 1.000000 1.000000 1.000000 1.000000
v 0.168000 1.014000 0.816000 1.000000 1.000000 1.000000 1.000000
v 0.000000 0.120000 0.778000 1.000000 1.000000 1.000000 1.000000
v -0.114000 0.164000 0.732000 1.000000 1.000000 1.000000 1.000000
v 0.000000 0.244000 0.386000 1.000000 1.000000 1.000000 1.000000
v 0.114000 0.164000 0.732000 1.000000 1.000000 1.000000 1.000000
v 0.000000 0.120000 0.778000 1.000000 1.000000 1.000000 1.000000
v 0.000000 0.244000 0.386000 1.000000 1.000000 1.000000 1.000000
v -0.362000 1.004000 -0.444000 1.000000 1.000000 1.000000 1.000000
v 0.362000 0.736000 -0.910000 1.000000 1.000000 1.000000 1.000000
v 0.362000 1.004000 -0.444000 1.000000 1.000000 1.000000 1.000000
v 0.672000 0.572000 -0.844000 1.000000 1.000000 1.000000 1.000000
v 0.362000 1.004000 -0.444000 1.000000 1.000000 1.000000 1.000000
v -0.362000 1.004000 -0.444000 1.000000 1.000000 1.000000 1.000000
v -0.362000 0.736000 -0.910000 1.000000 1.000000 1.000000 1.000000
v -0.672000 0.572000 -0.844000 1.000000 1.000000 1.000000 1.000000
v -0.446000 0.000000 -0.044000 1.000000 1.000000 1.000000 1.000000
v -0.672000 0.256000 -0.530000 1.000000 1.000000 1.000000 1.000000
v -0.242000 0.368000 0.148000 1.000000 1.000000 1.000000 1.000000
v 0.446000 0.000000 -0.044000 1.000000 1.000000 1.000000 1.000000
v 0.672000 0.256000 -0.530000 1.000000 1.000000 1.000000 1.000000
v 0.446000 0.000000 -0.044000 1.000000 1.000000 1.000000 1.000000
v 0.242000 0.368000 0.148000 1.000000 1.000000 1.000000 1.000000
v 0.000000 0.032000 0.330000 1.000000 1.000000 1.000000 1.000000
v -0.242000 0.368000 0.148000 1.000000 1.000000 1.000000 1.000000
v -0.446000 0.000000 -0.044000 1.000000 1.000000 1.000000 1.000000
v 0.446000 0.000000 -0.044000 1.000000 1.000000 1.000000 1.000000
v 0.000000 0.032000 0.330000 1.000000 1.000000 1.000000 1.000000
v 0.242000 0.368000 0.148000 1.000000 1.000000 1.000000 1.000000
v 0.000000 0.244000 0.386000 1.000000 1.000000 1.000000 1.000000
v 0.000000 0.032000 0.330000 1.000000 1.000000 1.000000 1.000000
v 0.000000 0.244000 0.386000 1.000000 1.000000 1.000000 1.000000
v -0.242000 0.368000 0.148000 1.000000 1.000000 1.000000 1.000000
v 0.000000 0.032000 0.330000 1.000000 1.000000 1.000000 1.000000
v -0.440000 0.992000 -0.188000 1.000000 1.000000 1.000000 1.000000
v -0.362000 1.004000 -0.444000 1.000000 1.000000 1.000000 1.000000
v 0.440000 0.992000 -0.188000 1.000000 1.000000 1.000000 1.000000
v 0.362000 1.004000 -0.444000 1.000000 1.000000 1.000000 1.000000
v -0.288000 0.614000 0.228000 1.000000 1.000000 1.000000 1.000000
v -0.414000 0.582000 0.016000 1.000000 1.000000 1.000000 1.000000
v -0.242000 0.368000 0.148000 1.000000 1.000000 1.000000 1.000000
v 0.414000 0.582000 0.016000 1.000000 1.000000 1.000000 1.000000
v 0.288000 0.614000 0.228000 1.000000 1.000000 1.000000 1.000000
v 0.242000 0.368000 0.148000 1.000000 1.000000 1.000000 1.000000
v -0.112000 0.212000 0.778000 1.000000 1.000000 1.000000 1.000000
v -0.288000 0.614000 0.228000 1.000000 1.000000 1.000000 1.000000
v -0.114000 0.164000 0.732000 1.000000 1.000000 1.000000 1.000000
v -0.242000 0.368000 0.148000 1.000000 1.000000 1.000000 1.000000
v 0.288000 0.614000 0.228000 1.000000 1.000000 1.000000 1.000000
v 0.112000 0.212000 0.778000 1.000000 1.000000 1.000000 1.000000
v 0.112000 0.212000 0.778000 1.000000 1.000000 1.000000 1.000000
v 0.114000 0.164000 0.732000 1.000000 1.000000 1.000000 1.000000
v 0.114000 0.164000 0.732000 1.000000 1.000000 1.000000 1.000000
v 0.242000 0.368000 0.148000 1.000000 1.000000 1.000000 1.000000
v 0.310000 1.408000 -0.382000 1.000000 1.000000 1.000000 1.000000
v 0.158000 1.184000 -0.316000 1.000000 1.000000 1.000000 1.000000
v 0.310000 1.408000 -0.382000 1.000000 1.000000 1.000000 1.000000
v 0.362000 1.004000 -0.444000 1.000000 1.000000 1.000000 1.000000
v 0.440000 0.992000 -0.188000 1.000000 1.000000 1.000000 1.000000
v 0.310000 1.408000 -0.382000 1.000000 1.000000 1.000000 1.000000
v 0.158000 1.184000 -0.316000 1.000000 1.000000 1.000000 1.000000
v 0.296000 0.864000 0.150000 1.000000 1.000000 1.000000 1.000000
v 0.288000 0.614000 0.228000 1.000000 1.000000 1.000000 1.000000
v 0.422000 0.718000 -0.156000 1.000000 1.000000 1.000000 1.000000
v 0.346000 1.128000 0.022000 1.000000 1.000000 1.000000 1.000000
v 0.440000 0.992000 -0.188000 1.000000 1.000000 1.000000 1.000000
v 0.000000 1.164000 0.166000 1.000000 1.000000 1.000000 1.000000
v 0.346000 1.128000 0.022000 1.000000 1.000000 1.000000 1.000000
v 0.158000 1.184000 -0.316000 1.000000 1.000000 1.000000 1.000000
v 0.346000 1.128000 0.022000 1.000000 1.000000 1.000000 1.000000
v 0.158000 1.184000 -0.316000 1.000000 1.000000 1.000000 1.000000
v 0.266000 0.984000 0.140000 1.000000 1.000000 1.000000 1.000000
v 0.158000 1.184000 -0.316000 1.000000 1.000000 1.000000 1.000000
v 0.362000 1.004000 -0.444000 1.000000 1.000000 1.000000 1.000000
v 0.000000 0.944000 -0.608000 1.000000 1.000000 1.000000 1.000000
v -0.310000 1.408000 -0.382000 1.000000 1.000000 1.000000 1.000000
v -0.310000 1.408000 -0.382000 1.000000 1.000000 1.000000 1.000000
v -0.158000 1.184000 -0.316000 1.000000 1.000000 1.000000 1.000000
v -0.362000 1.004000 -0.444000 1.000000 1.000000 1.000000 1.000000
v -0.310000 1.408000 -0.382000 1.000000 1.000000 1.000000 1.000000
v -0.440000 0.992000 -0.188000 1.000000 1.000000 1.000000 1.000000
v -0.158000 1.184000 -0.316000 1.000000 1.000000 1.000000 1.000000
v -0.288000 0.614000 0.228000 1.000000 1.000000 1.000000 1.000000
v -0.296000 0.864000 0.150000 1.000000 1.000000 1.000000 1.000000
v -0.422000 0.718000 -0.156000 1.000000 1.000000 1.000000 1.000000
v -0.346000 1.128000 0.022000 1.000000 1.000000 1.000000 1.000000
v -0.440000 0.992000 -0.188000 1.000000 1.000000 1.000000 1.000000
v 0.158000 1.184000 -0.316000 1.000000 1.000000 1.000000 1.000000
v -0.158000 1.184000 -0.316000 1.000000 1.000000 1.000000 1.000000
v -0.346000 1.128000 0.022000 1.000000 1.000000 1.000000 1.000000
v 0.000000 1.164000 0.166000 1.000000 1.000000 1.000000 1.000000
v -0.346000 1.128000 0.022000 1.000000 1.000000 1.000000 1.000000
v -0.158000 1.184000 -0.316000 1.000000 1.000000 1.000000 1.000000
v 0.158000 1.184000 -0.316000 1.000000 1.000000 1.000000 1.000000
v -0.158000 1.184000 -0.316000 1.000000 1.000000 1.000000 1.000000
v -0.266000 0.984000 0.140000 1.000000 1.000000 1.000000 1.000000
v -0.362000 1.004000 -0.444000 1.000000 1.000000 1.000000 1.000000
v 0.000000 0.944000 -0.608000 1.000000 1.000000 1.000000 1.000000
v 0.000000 0.614000 0.228000 1.000000 1.000000 1.000000 1.000000
v -0.112000 0.212000 0.778000 1.000000 1.000000 1.000000 1.000000
v 0.000000 0.182000 0.840000 1.000000 1.000000 1.000000 1.000000
v 0.000000 0.614000 0.228000 1.000000 1.000000 1.000000 1.000000
v -0.288000 0.614000 0.228000 1.000000 1.000000 1.000000 1.000000
v -0.112000 0.212000 0.778000 1.000000 1.000000 1.000000 1.000000
v 0.112000 0.212000 0.778000 1.000000 1.000000 1.000000 1.000000
v 0.000000 0.614000 0.228000 1.000000 1.000000 1.000000 1.000000
v 0.000000 0.182000 0.840000 1.000000 1.000000 1.000000 1.000000
v 0.112000 0.212000 0.778000 1.000000 1.000000 1.000000 1.000000
v 0.288000 0.614000 0.228000 1.000000 1.000000 1.000000 1.000000
v 0.000000 0.614000 0.228000 1.000000 1.000000 1.000000 1.000000
v 0.000000 1.066000 0.918000 1.000000 1.000000 1.000000 1.000000
v -0.288000 0.614000 0.228000 1.000000 1.000000 1.000000 1.000000
v 0.000000 1.066000 0.918000 1.000000 1.000000 1.000000 1.000000
v -0.192000 1.026000 0.808000 1.000000 1.000000 1.000000 1.000000
v 0.288000 0.614000 0.228000 1.000000 1.000000 1.000000 1.000000
v 0.000000 1.066000 0.918000 1.000000 1.000000 1.000000 1.000000
v 0.192000 1.026000 0.808000 1.000000 1.000000 1.000000 1.000000
v 0.000000 1.066000 0.918000 1.000000 1.000000 1.000000 1.000000
v -0.672000 0.256000 -0.530000 1.000000 1.000000 1.000000 1.000000
v 0.446000 0.000000 -0.044000 1.000000 1.000000 1.000000 1.000000
v -0.446000 0.000000 -0.044000 1.000000 1.000000 1.000000 1.000000
v -0.672000 0.256000 -0.530000 1.000000 1.000000 1.000000 1.000000
v 0.672000 0.256000 -0.530000 1.000000 1.000000 1.000000 1.000000
v 0.446000 0.000000 -0.044000 1.000000 1.000000 1.000000 1.000000
v 0.672000 0.572000 -0.844000 1.000000 1.000000 1.000000 1.000000
v -0.362000 0.736000 -0.910000 1.000000 1.000000 1.000000 1.000000
v 0.362000 0.736000 -0.910000 1.000000 1.000000 1.000000 1.000000
v -0.672000 0.572000 -0.844000 1.000000 1.000000 1.000000 1.000000
v -0.672000 0.256000 -0.530000 1.000000 1.000000 1.000000 1.000000
v 0.672000 0.572000 -0.844000 1.000000 1.000000 1.000000 1.000000
v 0.672000 0.256000 -0.530000 1.000000 1.000000 1.000000 1.000000
v -0.672000 0.256000 -0.530000 1.000000 1.000000 1.000000 1.000000
v 0.000000 0.774000 -0.918000 1.000000 1.000000 1.000000 1.000000
v 0.000000 0.032000 0.330000 1.000000 1.000000 1.000000 1.000000
v -0.446000 0.000000 -0.044000 1.000000 1.000000 1.000000 1.000000
v 0.446000 0.000000 -0.044000 1.000000 1.000000 1.000000 1.000000
vt 0.296870 0.105460
vt 0.281250 0.070320
vt 0.273440 0.089840
vt 0.296880 0.105460
vt 0.304680 0.085930
vt 0.269540 0.171870
vt 0.304680 0.117190
vt 0.257820 0.152340
vt 0.312500 0.140620
vt 0.304690 0.117190
vt 0.394530 0.089850
vt 0.367190 0.113280
vt 0.367190 0.089850
vt 0.394530 0.117180
vt 0.425780 0.113280
vt 0.394540 0.089850
vt 0.425780 0.089850
vt 0.394540 0.117180
vt 0.414070 0.160150
vt 0.367190 0.093750
vt 0.433590 0.082040
vt 0.414060 0.160150
vt 0.367190 0.171870
vt 0.378910 0.097650
vt 0.425790 0.164060
vt 0.445310 0.082040
vt 0.378910 0.175780
vt 0.425780 0.164060
vt 0.339850 0.183590
vt 0.367180 0.203120
vt 0.351570 0.175790
vt 0.347660 0.203120
vt 0.367180 0.203120
vt 0.339850 0.183590
vt 0.351570 0.175790
vt 0.347660 0.203120
vt 0.367190 0.105460
vt 0.492180 0.105460
vt 0.445320 0.046880
vt 0.390630 0.132810
vt 0.492180 0.105460
vt 0.367190 0.105460
vt 0.445320 0.046880
vt 0.390630 0.132810
vt 0.257820 0.183590
vt 0.347650 0.156250
vt 0.335940 0.113290
vt 0.257820 0.183590
vt 0.269540 0.203120
vt 0.269530 0.203120
vt 0.250000 0.187500
vt 0.261720 0.207030
vt 0.257820 0.183600
vt 0.269530 0.203120
vt 0.250000 0.187500
vt 0.257820 0.183600
vt 0.261720 0.207030
vt 0.347650 0.156250
vt 0.257820 0.183590
vt 0.335940 0.113290
vt 0.269540 0.203120
vt 0.257820 0.183590
vt 0.382820 0.121090
vt 0.425780 0.085940
vt 0.382820 0.085940
vt 0.425780 0.136710
vt 0.406250 0.136710
vt 0.363290 0.085940
vt 0.406250 0.085940
vt 0.363290 0.121090
vt 0.257820 0.179680
vt 0.335930 0.113280
vt 0.265630 0.046880
vt 0.265630 0.046880
vt 0.335930 0.113280
vt 0.257820 0.179680
vt 0.394530 0.160150
vt 0.378910 0.156250
vt 0.394530 0.113290
vt 0.410150 0.156250
vt 0.394540 0.160150
vt 0.394540 0.113290
vt 0.429690 0.179680
vt 0.429690 0.085930
vt 0.429690 0.132810
vt 0.464840 0.082040
vt 0.429690 0.179680
vt 0.390630 0.132810
vt 0.390630 0.085930
vt 0.425780 0.082040
vt 0.375000 0.003910
vt 0.445310 0.046870
vt 0.347660 0.070310
vt 0.375000 0.003910
vt 0.445310 0.046870
vt 0.375000 0.003910
vt 0.347660 0.070310
vt 0.347650 0.156250
vt 0.257820 0.183590
vt 0.335940 0.113290
vt 0.375000 0.003910
vt 0.324220 0.019530
vt 0.347650 0.070310
vt 0.316410 0.050780
vt 0.324220 0.019540
vt 0.316410 0.050780
vt 0.347650 0.070310
vt 0.324220 0.019540
vt 0.394540 0.179680
vt 0.429680 0.179680
vt 0.394540 0.179680
vt 0.429680 0.179680
vt 0.335940 0.113280
vt 0.367180 0.105460
vt 0.347660 0.070320
vt 0.367180 0.105460
vt 0.335940 0.113280
vt 0.347660 0.070320
vt 0.265630 0.046880
vt 0.335940 0.113280
vt 0.269540 0.039070
vt 0.363290 0.082040
vt 0.335940 0.113280
vt 0.265630 0.046880
vt 0.265630 0.046870
vt 0.269540 0.039070
vt 0.410160 0.156250
vt 0.425780 0.082040
vt 0.421880 0.250000
vt 0.386720 0.117180
vt 0.410160 0.160150
vt 0.417960 0.078130
vt 0.394540 0.179690
vt 0.421870 0.250000
vt 0.410160 0.210930
vt 0.347660 0.156250
vt 0.335940 0.113280
vt 0.390620 0.132820
vt 0.367190 0.203120
vt 0.394530 0.179680
vt 0.402350 0.074220
vt 0.453120 0.089840
vt 0.425790 0.144530
vt 0.367190 0.203120
vt 0.410150 0.210930
vt 0.351560 0.175780
vt 0.429690 0.125000
vt 0.453120 0.105460
vt 0.410160 0.089850
vt 0.421880 0.250000
vt 0.410160 0.160150
vt 0.386720 0.117180
vt 0.421870 0.082040
vt 0.421870 0.250000
vt 0.394540 0.179690
vt 0.410160 0.210930
vt 0.335940 0.113280
vt 0.347660 0.156250
vt 0.390620 0.132820
vt 0.367190 0.203120
vt 0.394530 0.179680
vt 0.425780 0.144530
vt 0.378910 0.148430
vt 0.347660 0.097650
vt 0.402340 0.074220
vt 0.367190 0.203120
vt 0.410150 0.210930
vt 0.429680 0.125000
vt 0.390630 0.125000
vt 0.351560 0.175780
vt 0.367190 0.105460
vt 0.410150 0.089850
vt 0.319092 0.081543
vt 0.319092 0.081543
vt 0.319092 0.081543
vt 0.319092 0.081543
vt 0.319092 0.081543
vt 0.319092 0.081543
vt 0.319092 0.081543
vt 0.319092 0.081543
vt 0.319092 0.081543
vt 0.319092 0.081543
vt 0.319092 0.081543
vt 0.319092 0.081543
vt 0.319092 0.081543
vt 0.319092 0.081543
vt 0.319092 0.081543
vt 0.319092 0.081543
vt 0.319092 0.081543
vt 0.319092 0.081543
vt 0.319092 0.081543
vt 0.319092 0.081543
vt 0.319092 0.081543
vt 0.319092 0.081543
vt 0.319092 0.081543
vt 0.319092 0.081543
vt 0.319092 0.081543
vt 0.319092 0.081543
vt 0.319092 0.081543
vt 0.319092 0.081543
vt 0.319092 0.081543
vt 0.319092 0.081543
vt 0.319092 0.081543
vt 0.319092 0.081543
vt 0.319092 0.081543
vt 0.319092 0.081543
vt 0.319092 0.081543
vt 0.319092 0.081543
vt 0.319092 0.081543
vt 0.319092 0.081543
vn 0.000000 -0.050102 0.998744
vn 0.000000 -0.050102 0.998744
vn 0.000000 -0.050002 0.998749
vn 0.000000 -0.050102 0.998744
vn 0.000000 -0.050002 0.998749
vn 0.000000 0.000000 1.000000
vn 0.000000 0.000000 1.000000
vn 0.000000 0.000000 1.000000
vn 0.000000 0.000000 1.000000
vn 0.000000 0.000000 1.000000
vn 0.000000 -0.974888 0.222697
vn -0.856693 -0.038400 0.514396
vn -0.598099 -0.797999 0.074000
vn 0.000000 0.180900 0.983501
vn 0.856693 -0.038400 0.514396
vn 0.000000 -0.974888 0.222697
vn 0.598099 -0.797999 0.074000
vn 0.000000 0.180900 0.983501
vn -0.800667 0.561477 0.208991
vn 0.000000 0.925228 0.379412
vn -0.855990 0.361396 0.369696
vn -0.800667 0.561477 0.208991
vn 0.022000 0.954594 0.297098
vn 0.000000 0.925228 0.379412
vn 0.819808 0.529805 0.217302
vn 0.855990 0.361396 0.369696
vn 0.022000 0.954594 0.297098
vn 0.819808 0.529805 0.217302
vn 0.000000 0.925228 0.379412
vn -0.649708 0.668509 0.361905
vn -0.855990 0.361396 0.369696
vn 0.000000 0.905518 0.424308
vn 0.649708 0.668509 0.361905
vn 0.000000 0.925228 0.379412
vn 0.855990 0.361396 0.369696
vn 0.000000 0.905518 0.424308
vn -0.960321 0.049301 0.274506
vn -0.818655 0.130893 -0.559169
vn -0.794156 -0.571041 -0.207915
vn -0.958813 0.193103 0.208303
vn 0.818701 0.130900 -0.559101
vn 0.877910 0.053701 0.475805
vn 0.794140 -0.571029 -0.208010
vn 0.958813 0.193103 0.208303
vn -0.712638 -0.117406 0.691637
vn -0.950468 0.184294 0.250292
vn -0.832048 -0.096006 0.546332
vn -0.712638 -0.117406 0.691637
vn -0.800667 0.561477 0.208991
vn -0.800667 0.561477 0.208991
vn 0.026800 -0.230902 0.972608
vn 0.022000 0.954594 0.297098
vn -0.712638 -0.117406 0.691637
vn 0.819808 0.529805 0.217302
vn 0.026800 -0.230902 0.972608
vn 0.717536 -0.159408 0.678034
vn 0.022000 0.954594 0.297098
vn 0.950468 0.184294 0.250292
vn 0.717536 -0.159408 0.678034
vn 0.832056 -0.095906 0.546337
vn 0.819808 0.529805 0.217302
vn 0.717536 -0.159408 0.678034
vn -0.000000 0.796736 -0.604327
vn 0.194600 0.332800 -0.922700
vn 0.000200 0.609208 -0.793010
vn 0.606690 0.570591 -0.553491
vn -0.606230 0.567828 -0.556827
vn 0.000200 0.609208 -0.793010
vn -0.193594 0.327591 -0.924773
vn -0.000000 0.796736 -0.604327
vn -0.040200 -0.741095 -0.670196
vn 0.208010 -0.291614 0.933645
vn -0.168294 0.928968 -0.329689
vn 0.201888 0.767154 -0.608864
vn -0.137102 0.327605 0.934814
vn -0.027501 -0.910627 -0.412312
vn 0.000000 -0.974888 0.222697
vn -0.598099 -0.797999 0.074000
vn 0.000000 -0.999159 0.040998
vn 0.598099 -0.797999 0.074000
vn 0.000000 -0.974888 0.222697
vn 0.000000 -0.999159 0.040998
vn -0.606230 0.567828 -0.556827
vn 0.194600 0.332800 -0.922700
vn 0.606690 0.570591 -0.553491
vn 0.818701 0.130900 -0.559101
vn 0.606690 0.570591 -0.553491
vn -0.606230 0.567828 -0.556827
vn -0.193594 0.327591 -0.924773
vn -0.818655 0.130893 -0.559169
vn -0.693992 -0.473595 0.542294
vn -0.794156 -0.571041 -0.207915
vn -0.661715 -0.484111 0.572513
vn 0.655539 -0.590335 0.470928
vn 0.794140 -0.571029 -0.208010
vn 0.655539 -0.590335 0.470928
vn 0.831005 -0.311002 0.461203
vn -0.162209 -0.648834 0.743439
vn -0.661715 -0.484111 0.572513
vn -0.693992 -0.473595 0.542294
vn 0.655539 -0.590335 0.470928
vn -0.162209 -0.648834 0.743439
vn 0.831005 -0.311002 0.461203
vn 0.000000 -0.999159 0.040998
vn -0.162209 -0.648834 0.743439
vn 0.000000 -0.999159 0.040998
vn -0.661715 -0.484111 0.572513
vn -0.162209 -0.648834 0.743439
vn -0.937740 0.250211 0.240910
vn -0.606230 0.567828 -0.556827
vn 0.937740 0.250211 0.240910
vn 0.606690 0.570591 -0.553491
vn -0.832048 -0.096006 0.546332
vn -0.960321 0.049301 0.274506
vn -0.661715 -0.484111 0.572513
vn 0.877910 0.053701 0.475805
vn 0.832056 -0.095906 0.546337
vn 0.831005 -0.311002 0.461203
vn -0.856693 -0.038400 0.514396
vn -0.832048 -0.096006 0.546332
vn -0.598099 -0.797999 0.074000
vn -0.661715 -0.484111 0.572513
vn 0.832056 -0.095906 0.546337
vn 0.856693 -0.038400 0.514396
vn 0.856693 -0.038400 0.514396
vn 0.598099 -0.797999 0.074000
vn 0.598099 -0.797999 0.074000
vn 0.831005 -0.311002 0.461203
vn 0.416901 0.848901 -0.324901
vn 0.060497 0.957656 -0.281487
vn 0.416901 0.848901 -0.324901
vn 0.606690 0.570591 -0.553491
vn 0.937740 0.250211 0.240910
vn 0.416901 0.848901 -0.324901
vn 0.060497 0.957656 -0.281487
vn 0.950468 0.184294 0.250292
vn 0.832056 -0.095906 0.546337
vn 0.958813 0.193103 0.208303
vn 0.649708 0.668509 0.361905
vn 0.937740 0.250211 0.240910
vn 0.000000 0.905518 0.424308
vn 0.649708 0.668509 0.361905
vn 0.060497 0.957656 -0.281487
vn 0.649708 0.668509 0.361905
vn 0.060497 0.957656 -0.281487
vn 0.855990 0.361396 0.369696
vn 0.060497 0.957656 -0.281487
vn 0.606690 0.570591 -0.553491
vn -0.000000 0.796736 -0.604327
vn -0.416901 0.848901 -0.324901
vn -0.416901 0.848901 -0.324901
vn -0.060497 0.957656 -0.281487
vn -0.606230 0.567828 -0.556827
vn -0.416901 0.848901 -0.324901
vn -0.937740 0.250211 0.240910
vn -0.060497 0.957656 -0.281487
vn -0.832048 -0.096006 0.546332
vn -0.950468 0.184294 0.250292
vn -0.958813 0.193103 0.208303
vn -0.649708 0.668509 0.361905
vn -0.937740 0.250211 0.240910
vn 0.060497 0.957656 -0.281487
vn -0.060497 0.957656 -0.281487
vn -0.649708 0.668509 0.361905
vn 0.000000 0.905518 0.424308
vn -0.649708 0.668509 0.361905
vn -0.060497 0.957656 -0.281487
vn 0.060497 0.957656 -0.281487
vn -0.060497 0.957656 -0.281487
vn -0.855990 0.361396 0.369696
vn -0.606230 0.567828 -0.556827
vn -0.000000 0.796736 -0.604327
vn 0.000000 -0.021699 0.999765
vn -0.856696 -0.038300 0.514398
vn 0.000000 0.180900 0.983501
vn 0.000000 -0.021699 0.999765
vn -0.832087 -0.095899 0.546292
vn -0.856696 -0.038300 0.514398
vn 0.856652 -0.038298 0.514471
vn 0.000000 -0.021699 0.999765
vn 0.000000 0.180900 0.983501
vn 0.856652 -0.038298 0.514471
vn 0.832087 -0.095899 0.546292
vn 0.000000 -0.021699 0.999765
vn 0.026800 -0.230902 0.972608
vn -0.832087 -0.095899 0.546292
vn 0.026800 -0.230902 0.972608
vn -0.712688 -0.117398 0.691588
vn 0.832087 -0.095899 0.546292
vn 0.026800 -0.230902 0.972608
vn 0.717585 -0.159397 0.677986
vn 0.026800 -0.230902 0.972608
vn -0.794140 -0.571029 -0.208010
vn 0.655500 -0.590400 0.470900
vn -0.681596 -0.405498 0.609096
vn -0.794140 -0.571029 -0.208010
vn 0.794177 -0.570983 -0.207994
vn 0.655500 -0.590400 0.470900
vn 0.818666 0.130795 -0.559177
vn -0.193606 0.327710 -0.924729
vn 0.194594 0.332889 -0.922669
vn -0.818655 0.130893 -0.559169
vn -0.794140 -0.571029 -0.208010
vn 0.818666 0.130795 -0.559177
vn 0.794177 -0.570983 -0.207994
vn -0.794140 -0.571029 -0.208010
vn 0.000300 0.609208 -0.793010
vn -0.158698 -0.366995 0.916586
vn -0.681596 -0.405498 0.609096
vn 0.655500 -0.590400 0.470900
f 1/1/1 2/2/2 3/3/3
f 4/4/4 5/5/5 2/2/2
f 6/6/6 7/7/7 8/8/8
f 6/6/6 9/9/9 10/10/10
f 11/11/11 12/12/12 13/13/13
f 11/11/11 14/14/14 12/12/12
f 15/15/15 16/16/16 17/17/17
f 15/15/15 18/18/18 16/16/16
f 19/19/19 20/20/20 21/21/21
f 22/22/22 23/23/23 20/20/20
f 24/24/24 25/25/25 26/26/26
f 24/24/24 27/27/27 28/28/28
f 29/29/29 30/30/30 31/31/31
f 29/29/29 32/32/32 30/30/30
f 158/158/158 31/31/31 159/159/159
f 31/31/31 160/160/160 161/161/161
f 31/31/31 161/161/161 40/40/40
f 157/157/157 158/158/158 114/114/114
f 158/158/158 159/159/159 37/37/37
f 158/158/158 49/49/49 170/170/170
f 113/113/113 114/114/114 115/115/115
f 48/48/48 49/49/49 46/46/46
f 45/45/45 46/46/46 47/47/47
f 37/37/37 38/38/38 39/39/39
f 37/37/37 40/40/40 38/38/38
f 91/91/91 37/37/37 92/92/92
f 37/37/37 91/91/91 93/93/93
f 40/40/40 83/83/83 38/38/38
f 109/109/109 110/110/110 40/40/40
f 150/150/150 110/110/110 109/109/109
f 109/109/109 166/166/166 167/167/167
f 33/33/33 34/34/34 35/35/35
f 33/33/33 36/36/36 34/34/34
f 35/35/35 136/136/136 138/138/138
f 139/139/139 35/35/35 140/140/140
f 140/140/140 35/35/35 44/44/44
f 136/136/136 137/137/137 116/116/116
f 138/138/138 136/136/136 42/42/42
f 61/61/61 136/136/136 146/146/146
f 116/116/116 117/117/117 118/118/118
f 58/58/58 61/61/61 62/62/62
f 58/58/58 59/59/59 60/60/60
f 41/41/41 42/42/42 43/43/43
f 41/41/41 44/44/44 42/42/42
f 42/42/42 94/94/94 95/95/95
f 96/96/96 42/42/42 97/97/97
f 87/87/87 44/44/44 41/41/41
f 111/111/111 44/44/44 112/112/112
f 112/112/112 129/129/129 111/111/111
f 144/144/144 111/111/111 145/145/145
f 101/101/101 97/97/97 102/102/102
f 50/50/50 51/51/51 52/52/52
f 50/50/50 53/53/53 51/51/51
f 54/54/54 55/55/55 56/56/56
f 54/54/54 57/57/57 55/55/55
f 63/63/63 64/64/64 65/65/65
f 63/63/63 66/66/66 64/64/64
f 67/67/67 68/68/68 69/69/69
f 67/67/67 70/70/70 68/68/68
f 71/71/71 72/72/72 73/73/73
f 74/74/74 75/75/75 76/76/76
f 77/77/77 78/78/78 79/79/79
f 79/79/79 78/78/78 122/122/122
f 80/80/80 81/81/81 82/82/82
f 127/127/127 82/82/82 128/128/128
f 84/84/84 85/85/85 86/86/86
f 88/88/88 89/89/89 90/90/90
f 98/98/98 99/99/99 100/100/100
f 103/103/103 104/104/104 105/105/105
f 123/123/123 124/124/124 103/103/103
f 103/103/103 125/125/125 126/126/126
f 106/106/106 107/107/107 108/108/108
f 119/119/119 120/120/120 107/107/107
f 119/119/119 107/107/107 121/121/121
f 130/130/130 131/131/131 132/132/132
f 133/133/133 134/134/134 135/135/135
f 141/141/141 142/142/142 143/143/143
f 141/141/141 162/162/162 163/163/163
f 164/164/164 165/165/165 163/163/163
f 147/147/147 148/148/148 149/149/149
f 168/168/168 149/149/149 169/169/169
f 171/171/171 169/169/169 172/172/172
f 151/151/151 152/152/152 153/153/153
f 154/154/154 155/155/155 156/156/156
f 173/173/173 174/174/174 175/175/175
f 185/185/185 186/186/186 173/173/173
f 187/187/187 188/188/188 186/186/186
f 176/176/176 177/177/177 178/178/178
f 179/179/179 180/180/180 181/181/181
f 189/189/189 190/190/190 180/180/180
f 189/189/189 191/191/191 192/192/192
f 182/182/182 183/183/183 184/184/184
f 193/193/193 194/194/194 195/195/195
f 196/196/196 197/197/197 198/198/198
f 199/199/199 200/200/200 201/201/201
f 199/199/199 202/202/202 200/200/200
f 199/199/199 203/203/203 202/202/202
f 201/201/201 200/200/200 207/207/207
f 204/204/204 205/205/205 206/206/206
f 208/208/208 209/209/209 210/210/210
