# generated by the editor's model importer
v 2.100117 0.000000 -0.701502 1.000000 1.000000 1.000000 1.000000
v 2.600155 0.581213 -0.802555 1.000000 1.000000 1.000000 1.000000
v 2.500145 1.589758 0.331403 1.000000 1.000000 1.000000 1.000000
v 2.500145 1.589758 0.331403 1.000000 1.000000 1.000000 1.000000
v 2.200131 3.341831 -0.683670 1.000000 1.000000 1.000000 1.000000
v 1.200068 3.311680 -0.272454 1.000000 1.000000 1.000000 1.000000
v 1.500092 1.214819 0.802555 1.000000 1.000000 1.000000 1.000000
v 2.100117 0.000000 -0.701502 1.000000 1.000000 1.000000 1.000000
v 2.500145 1.589758 0.331403 1.000000 1.000000 1.000000 1.000000
v 1.200068 3.311680 -0.272454 1.000000 1.000000 1.000000 1.000000
v 1.200068 2.223545 0.474961 1.000000 1.000000 1.000000 1.000000
v 2.500145 1.589758 0.331403 1.000000 1.000000 1.000000 1.000000
v 1.200068 2.223545 0.474961 1.000000 1.000000 1.000000 1.000000
v 1.500092 1.214819 0.802555 1.000000 1.000000 1.000000 1.000000
v 2.500145 1.589758 0.331403 1.000000 1.000000 1.000000 1.000000
v -1.200068 3.311680 -0.272454 1.000000 1.000000 1.000000 1.000000
v -2.200131 3.341831 -0.683670 1.000000 1.000000 1.000000 1.000000
v -2.500145 1.589758 0.331403 1.000000 1.000000 1.000000 1.000000
v -2.600155 0.581213 -0.802555 1.000000 1.000000 1.000000 1.000000
v -2.100117 0.000000 -0.701502 1.000000 1.000000 1.000000 1.000000
v -2.500145 1.589758 0.331403 1.000000 1.000000 1.000000 1.000000
v -2.100117 0.000000 -0.701502 1.000000 1.000000 1.000000 1.000000
v -1.500092 1.214819 0.802555 1.000000 1.000000 1.000000 1.000000
v -2.500145 1.589758 0.331403 1.000000 1.000000 1.000000 1.000000
v -2.500145 1.589758 0.331403 1.000000 1.000000 1.000000 1.000000
v -1.200068 2.223545 0.474961 1.000000 1.000000 1.000000 1.000000
v -1.200068 3.311680 -0.272454 1.000000 1.000000 1.000000 1.000000
v -2.500145 1.589758 0.331403 1.000000 1.000000 1.000000 1.000000
v -1.500092 1.214819 0.802555 1.000000 1.000000 1.000000 1.000000
v -1.200068 2.223545 0.474961 1.000000 1.000000 1.000000 1.000000
vt 0.349600 0.400400
vt 0.373000 0.423800
vt 0.369100 0.455100
vt 0.369100 0.455100
vt 0.353500 0.529300
vt 0.314500 0.529300
vt 0.326200 0.439500
vt 0.349600 0.400400
vt 0.369100 0.455100
vt 0.314500 0.529300
vt 0.314500 0.478500
vt 0.369100 0.455100
vt 0.314500 0.478500
vt 0.326200 0.439500
vt 0.369100 0.455100
vt 0.373000 0.529300
vt 0.330100 0.529300
vt 0.318400 0.455100
vt 0.314500 0.423800
vt 0.334000 0.400400
vt 0.318400 0.455100
vt 0.334000 0.400400
vt 0.361300 0.439500
vt 0.318400 0.455100
vt 0.318400 0.455100
vt 0.373000 0.478500
vt 0.373000 0.529300
vt 0.318400 0.455100
vt 0.361300 0.439500
vt 0.373000 0.478500
vn 0.693104 -0.507203 0.512203
vn 0.693104 -0.507203 0.512203
vn 0.693104 -0.507203 0.512203
vn 0.312486 0.515677 0.797765
vn 0.312486 0.515677 0.797765
vn 0.312486 0.515677 0.797765
vn 0.515594 -0.554294 0.653392
vn 0.515594 -0.554294 0.653392
vn 0.515594 -0.554294 0.653392
vn 0.344599 0.531498 0.773797
vn 0.344599 0.531498 0.773797
vn 0.344599 0.531498 0.773797
vn 0.278489 0.370585 0.886065
vn 0.278489 0.370585 0.886065
vn 0.278489 0.370585 0.886065
vn -0.312486 0.515677 0.797765
vn -0.312486 0.515677 0.797765
vn -0.312486 0.515677 0.797765
vn -0.693104 -0.507203 0.512203
vn -0.693104 -0.507203 0.512203
vn -0.693104 -0.507203 0.512203
vn -0.515594 -0.554294 0.653392
vn -0.515594 -0.554294 0.653392
vn -0.515594 -0.554294 0.653392
vn -0.344599 0.531498 0.773797
vn -0.344599 0.531498 0.773797
vn -0.344599 0.531498 0.773797
vn -0.278489 0.370585 0.886065
vn -0.278489 0.370585 0.886065
vn -0.278489 0.370585 0.886065
f 1/1/1 2/2/2 3/3/3
f 4/4/4 5/5/5 6/6/6
f 7/7/7 8/8/8 9/9/9
f 10/10/10 11/11/11 12/12/12
f 13/13/13 14/14/14 15/15/15
f 16/16/16 17/17/17 18/18/18
f 19/19/19 20/20/20 21/21/21
f 22/22/22 23/23/23 24/24/24
f 25/25/25 26/26/26 27/27/27
f 28/28/28 29/29/29 30/30/30
