# generated by tools/editor_import_glb.py
v -1.111293 0.007328 -0.652734 1.000000 1.000000 1.000000 1.000000
v -1.111293 0.007328 -0.652734 1.000000 1.000000 1.000000 1.000000
v -1.111293 0.057509 -0.652734 1.000000 1.000000 1.000000 1.000000
v -1.111293 0.057509 -0.652734 1.000000 1.000000 1.000000 1.000000
v -1.111293 0.057509 -0.652734 1.000000 1.000000 1.000000 1.000000
v -0.622287 0.007328 -0.958792 1.000000 1.000000 1.000000 1.000000
v -0.622287 0.007328 -0.958792 1.000000 1.000000 1.000000 1.000000
v -0.888927 0.007328 -0.552573 1.000000 1.000000 1.000000 1.000000
v -0.888927 0.007328 -0.552573 1.000000 1.000000 1.000000 1.000000
v -0.700384 0.007328 -0.630670 1.000000 1.000000 1.000000 1.000000
v -0.700384 0.007328 -0.630670 1.000000 1.000000 1.000000 1.000000
v -0.888927 0.057509 -0.552573 1.000000 1.000000 1.000000 1.000000
v -0.888927 0.057509 -0.552573 1.000000 1.000000 1.000000 1.000000
v -0.888927 0.057509 -0.552573 1.000000 1.000000 1.000000 1.000000
v -0.622287 0.057509 -0.958792 1.000000 1.000000 1.000000 1.000000
v -0.622287 0.057509 -0.958792 1.000000 1.000000 1.000000 1.000000
v -0.622287 0.057509 -0.958792 1.000000 1.000000 1.000000 1.000000
v -0.700384 0.057509 -0.630670 1.000000 1.000000 1.000000 1.000000
v -0.700384 0.057509 -0.630670 1.000000 1.000000 1.000000 1.000000
v -0.700384 0.057509 -0.630670 1.000000 1.000000 1.000000 1.000000
v -1.208223 0.007328 -0.853136 1.000000 1.000000 1.000000 1.000000
v -1.208223 0.007328 -0.853136 1.000000 1.000000 1.000000 1.000000
v -0.922850 0.007328 -1.278088 1.000000 1.000000 1.000000 1.000000
v -0.922850 0.007328 -1.278088 1.000000 1.000000 1.000000 1.000000
v -0.922850 0.057509 -1.278088 1.000000 1.000000 1.000000 1.000000
v -0.922850 0.057509 -1.278088 1.000000 1.000000 1.000000 1.000000
v -0.922850 0.057509 -1.278088 1.000000 1.000000 1.000000 1.000000
v -1.208223 0.057509 -0.853136 1.000000 1.000000 1.000000 1.000000
v -1.208223 0.057509 -0.853136 1.000000 1.000000 1.000000 1.000000
v -1.208223 0.057509 -0.853136 1.000000 1.000000 1.000000 1.000000
v -0.784536 0.007328 -1.278088 1.000000 1.000000 1.000000 1.000000
v -0.784536 0.007328 -1.278088 1.000000 1.000000 1.000000 1.000000
v -0.622287 0.007328 -1.115839 1.000000 1.000000 1.000000 1.000000
v -0.622287 0.007328 -1.115839 1.000000 1.000000 1.000000 1.000000
v -0.622287 0.057509 -1.115839 1.000000 1.000000 1.000000 1.000000
v -0.622287 0.057509 -1.115839 1.000000 1.000000 1.000000 1.000000
v -0.622287 0.057509 -1.115839 1.000000 1.000000 1.000000 1.000000
v -0.784536 0.057509 -1.278088 1.000000 1.000000 1.000000 1.000000
v -0.784536 0.057509 -1.278088 1.000000 1.000000 1.000000 1.000000
v -0.784536 0.057509 -1.278088 1.000000 1.000000 1.000000 1.000000
v 0.636180 0.007328 -0.210401 1.000000 1.000000 1.000000 1.000000
v 0.636180 0.007328 -0.210401 1.000000 1.000000 1.000000 1.000000
v 0.636180 0.057509 -0.210401 1.000000 1.000000 1.000000 1.000000
v 0.636180 0.057509 -0.210401 1.000000 1.000000 1.000000 1.000000
v 0.636180 0.057509 -0.210401 1.000000 1.000000 1.000000 1.000000
v 1.208223 0.007328 -0.492636 1.000000 1.000000 1.000000 1.000000
v 1.208223 0.007328 -0.492636 1.000000 1.000000 1.000000 1.000000
v 0.858546 0.007328 -0.110240 1.000000 1.000000 1.000000 1.000000
v 0.858546 0.007328 -0.110240 1.000000 1.000000 1.000000 1.000000
v 1.130126 0.007328 -0.304093 1.000000 1.000000 1.000000 1.000000
v 1.130126 0.007328 -0.304093 1.000000 1.000000 1.000000 1.000000
v 0.858546 0.057509 -0.110240 1.000000 1.000000 1.000000 1.000000
v 0.858546 0.057509 -0.110240 1.000000 1.000000 1.000000 1.000000
v 0.858546 0.057509 -0.110240 1.000000 1.000000 1.000000 1.000000
v 1.208223 0.057509 -0.492636 1.000000 1.000000 1.000000 1.000000
v 1.208223 0.057509 -0.492636 1.000000 1.000000 1.000000 1.000000
v 1.208223 0.057509 -0.492636 1.000000 1.000000 1.000000 1.000000
v 1.130126 0.057509 -0.304093 1.000000 1.000000 1.000000 1.000000
v 1.130126 0.057509 -0.304093 1.000000 1.000000 1.000000 1.000000
v 1.130126 0.057509 -0.304093 1.000000 1.000000 1.000000 1.000000
v 0.425820 0.007328 -0.591481 1.000000 1.000000 1.000000 1.000000
v 0.425820 0.007328 -0.591481 1.000000 1.000000 1.000000 1.000000
v 0.768081 0.007328 -0.863111 1.000000 1.000000 1.000000 1.000000
v 0.768081 0.007328 -0.863111 1.000000 1.000000 1.000000 1.000000
v 0.768081 0.057509 -0.863111 1.000000 1.000000 1.000000 1.000000
v 0.768081 0.057509 -0.863111 1.000000 1.000000 1.000000 1.000000
v 0.768081 0.057509 -0.863111 1.000000 1.000000 1.000000 1.000000
v 0.425820 0.057509 -0.591481 1.000000 1.000000 1.000000 1.000000
v 0.425820 0.057509 -0.591481 1.000000 1.000000 1.000000 1.000000
v 0.425820 0.057509 -0.591481 1.000000 1.000000 1.000000 1.000000
v 0.906394 0.007328 -0.863111 1.000000 1.000000 1.000000 1.000000
v 0.906394 0.007328 -0.863111 1.000000 1.000000 1.000000 1.000000
v 1.068644 0.007328 -0.700862 1.000000 1.000000 1.000000 1.000000
v 1.068644 0.007328 -0.700862 1.000000 1.000000 1.000000 1.000000
v 1.068644 0.057509 -0.700862 1.000000 1.000000 1.000000 1.000000
v 1.068644 0.057509 -0.700862 1.000000 1.000000 1.000000 1.000000
v 1.068644 0.057509 -0.700862 1.000000 1.000000 1.000000 1.000000
v 0.906394 0.057509 -0.863111 1.000000 1.000000 1.000000 1.000000
v 0.906394 0.057509 -0.863111 1.000000 1.000000 1.000000 1.000000
v 0.906394 0.057509 -0.863111 1.000000 1.000000 1.000000 1.000000
v -0.522825 0.000000 1.071905 1.000000 1.000000 1.000000 1.000000
v -0.522825 0.000000 1.071905 1.000000 1.000000 1.000000 1.000000
v -0.522825 0.064837 1.071905 1.000000 1.000000 1.000000 1.000000
v -0.522825 0.064837 1.071905 1.000000 1.000000 1.000000 1.000000
v -0.522825 0.064837 1.071905 1.000000 1.000000 1.000000 1.000000
v 0.347671 0.000000 0.981532 1.000000 1.000000 1.000000 1.000000
v 0.347671 0.000000 0.981532 1.000000 1.000000 1.000000 1.000000
v 0.138247 0.000000 1.278088 1.000000 1.000000 1.000000 1.000000
v 0.138247 0.000000 1.278088 1.000000 1.000000 1.000000 1.000000
v 0.246765 0.000000 1.225141 1.000000 1.000000 1.000000 1.000000
v 0.246765 0.000000 1.225141 1.000000 1.000000 1.000000 1.000000
v 0.138247 0.064837 1.278088 1.000000 1.000000 1.000000 1.000000
v 0.138247 0.064837 1.278088 1.000000 1.000000 1.000000 1.000000
v 0.138247 0.064837 1.278088 1.000000 1.000000 1.000000 1.000000
v 0.347671 0.064837 0.981532 1.000000 1.000000 1.000000 1.000000
v 0.347671 0.064837 0.981532 1.000000 1.000000 1.000000 1.000000
v 0.347671 0.064837 0.981532 1.000000 1.000000 1.000000 1.000000
v 0.246765 0.064837 1.225141 1.000000 1.000000 1.000000 1.000000
v 0.246765 0.064837 1.225141 1.000000 1.000000 1.000000 1.000000
v 0.246765 0.064837 1.225141 1.000000 1.000000 1.000000 1.000000
v -0.550072 0.000000 0.951383 1.000000 1.000000 1.000000 1.000000
v -0.550072 0.000000 0.951383 1.000000 1.000000 1.000000 1.000000
v -0.437701 0.000000 0.575961 1.000000 1.000000 1.000000 1.000000
v -0.437701 0.000000 0.575961 1.000000 1.000000 1.000000 1.000000
v -0.437701 0.064837 0.575961 1.000000 1.000000 1.000000 1.000000
v -0.437701 0.064837 0.575961 1.000000 1.000000 1.000000 1.000000
v -0.437701 0.064837 0.575961 1.000000 1.000000 1.000000 1.000000
v -0.550072 0.064837 0.951383 1.000000 1.000000 1.000000 1.000000
v -0.550072 0.064837 0.951383 1.000000 1.000000 1.000000 1.000000
v -0.550072 0.064837 0.951383 1.000000 1.000000 1.000000 1.000000
v -0.063579 0.000000 0.687624 1.000000 1.000000 1.000000 1.000000
v -0.063579 0.000000 0.687624 1.000000 1.000000 1.000000 1.000000
v 0.347671 0.000000 0.778618 1.000000 1.000000 1.000000 1.000000
v 0.347671 0.000000 0.778618 1.000000 1.000000 1.000000 1.000000
v 0.347671 0.064837 0.778618 1.000000 1.000000 1.000000 1.000000
v 0.347671 0.064837 0.778618 1.000000 1.000000 1.000000 1.000000
v 0.347671 0.064837 0.778618 1.000000 1.000000 1.000000 1.000000
v -0.063579 0.064837 0.687624 1.000000 1.000000 1.000000 1.000000
v -0.063579 0.064837 0.687624 1.000000 1.000000 1.000000 1.000000
v -0.063579 0.064837 0.687624 1.000000 1.000000 1.000000 1.000000
vt 0.624596 0.492414
vt 0.371070 0.542856
vt 0.613068 0.492414
vt 0.359542 0.542856
vt 0.531328 0.342746
vt 0.343553 0.620307
vt 0.343553 0.620307
vt 0.371070 0.598837
vt 0.371070 0.598837
vt 0.371070 0.632310
vt 0.343553 0.542856
vt 0.359542 0.598837
vt 0.586565 0.352123
vt 0.359542 0.598837
vt 0.585391 0.463745
vt 0.332025 0.620307
vt 0.332025 0.620307
vt 0.612521 0.391165
vt 0.359542 0.632310
vt 0.332025 0.542856
vt 0.624596 0.452408
vt 0.624596 0.452408
vt 0.624596 0.342746
vt 0.395219 0.616066
vt 0.613068 0.342746
vt 0.383691 0.616066
vt 0.487176 0.486146
vt 0.613068 0.452408
vt 0.613068 0.452408
vt 0.487176 0.368552
vt 0.395219 0.584547
vt 0.395219 0.584547
vt 0.395219 0.542856
vt 0.343553 0.655637
vt 0.565278 0.493696
vt 0.383691 0.542856
vt 0.332025 0.655637
vt 0.383691 0.584547
vt 0.513554 0.503860
vt 0.383691 0.584547
vt 0.483262 0.597975
vt 0.483262 0.597975
vt 0.471734 0.597975
vt 0.471734 0.597975
vt 0.487176 0.552814
vt 0.636671 0.445042
vt 0.636671 0.445042
vt 0.483262 0.653957
vt 0.636671 0.342746
vt 0.636671 0.398992
vt 0.636671 0.398992
vt 0.471734 0.653957
vt 0.515386 0.504407
vt 0.625143 0.342746
vt 0.631806 0.529238
vt 0.625143 0.445042
vt 0.625143 0.445042
vt 0.592039 0.504407
vt 0.625143 0.398992
vt 0.625143 0.398992
vt 0.483262 0.520438
vt 0.383145 0.621037
vt 0.383145 0.542856
vt 0.407294 0.616066
vt 0.371616 0.542856
vt 0.395766 0.616066
vt 0.598954 0.657254
vt 0.471734 0.520438
vt 0.371616 0.621037
vt 0.498704 0.652145
vt 0.407294 0.584547
vt 0.407294 0.584547
vt 0.407294 0.542856
vt 0.636671 0.485392
vt 0.633499 0.586801
vt 0.395766 0.542856
vt 0.625143 0.485392
vt 0.395766 0.584547
vt 0.624816 0.638794
vt 0.395766 0.584547
vt 0.471187 0.643600
vt 0.486629 0.342746
vt 0.456292 0.643600
vt 0.471734 0.342746
vt 0.333854 0.528373
vt 0.358995 0.602355
vt 0.358995 0.602355
vt 0.486629 0.501312
vt 0.486629 0.501312
vt 0.486629 0.519891
vt 0.358995 0.542856
vt 0.471734 0.501312
vt 0.332025 0.369301
vt 0.471734 0.501312
vt 0.411087 0.342746
vt 0.344100 0.602355
vt 0.344100 0.602355
vt 0.350826 0.348906
vt 0.471734 0.519891
vt 0.344100 0.542856
vt 0.471187 0.617970
vt 0.471187 0.617970
vt 0.471187 0.528157
vt 0.471187 0.527610
vt 0.456292 0.528157
vt 0.448610 0.542309
vt 0.456292 0.527610
vt 0.456292 0.617970
vt 0.456292 0.617970
vt 0.358584 0.542309
vt 0.471187 0.439108
vt 0.471187 0.439108
vt 0.471187 0.342746
vt 0.358995 0.648004
vt 0.455745 0.356113
vt 0.456292 0.342746
vt 0.344100 0.648004
vt 0.448680 0.452616
vt 0.456292 0.439108
vt 0.456292 0.439108
vn -0.900230 0.000000 0.435415
vn -0.410689 0.000000 0.911776
vn -0.900230 0.000000 0.435415
vn -0.410689 0.000000 0.911776
vn 0.000000 1.000000 0.000000
vn 0.972833 0.000000 0.231508
vn 1.000000 0.000000 0.000000
vn -0.410689 0.000000 0.911776
vn 0.382690 0.000000 0.923877
vn 0.382690 0.000000 0.923877
vn 0.972833 0.000000 0.231508
vn -0.410689 0.000000 0.911776
vn 0.000000 1.000000 0.000000
vn 0.382690 0.000000 0.923877
vn 0.000000 1.000000 0.000000
vn 0.972833 0.000000 0.231508
vn 1.000000 0.000000 0.000000
vn 0.000000 1.000000 0.000000
vn 0.382690 0.000000 0.923877
vn 0.972833 0.000000 0.231508
vn -0.900230 0.000000 0.435415
vn -0.830184 0.000000 -0.557489
vn -0.830184 0.000000 -0.557489
vn 0.000000 0.000000 -1.000000
vn -0.830184 0.000000 -0.557489
vn 0.000000 0.000000 -1.000000
vn 0.000000 1.000000 0.000000
vn -0.900230 0.000000 0.435415
vn -0.830184 0.000000 -0.557489
vn 0.000000 1.000000 0.000000
vn 0.000000 0.000000 -1.000000
vn 0.707107 0.000000 -0.707107
vn 0.707107 0.000000 -0.707107
vn 1.000000 0.000000 0.000000
vn 0.000000 1.000000 0.000000
vn 0.707107 0.000000 -0.707107
vn 1.000000 0.000000 0.000000
vn 0.000000 0.000000 -1.000000
vn 0.000000 1.000000 0.000000
vn 0.707107 0.000000 -0.707107
vn -0.875465 0.000000 0.483281
vn -0.410689 0.000000 0.911776
vn -0.875465 0.000000 0.483281
vn -0.410689 0.000000 0.911776
vn 0.000000 1.000000 0.000000
vn 0.830632 0.000000 -0.556822
vn 0.923877 0.000000 0.382690
vn -0.410689 0.000000 0.911776
vn 0.581002 0.000000 0.813902
vn 0.581002 0.000000 0.813902
vn 0.923877 0.000000 0.382690
vn -0.410689 0.000000 0.911776
vn 0.000000 1.000000 0.000000
vn 0.581002 0.000000 0.813902
vn 0.000000 1.000000 0.000000
vn 0.830632 0.000000 -0.556822
vn 0.923877 0.000000 0.382690
vn 0.000000 1.000000 0.000000
vn 0.581002 0.000000 0.813902
vn 0.923877 0.000000 0.382690
vn -0.875465 0.000000 0.483281
vn -0.621678 0.000000 -0.783273
vn -0.621678 0.000000 -0.783273
vn 0.000000 0.000000 -1.000000
vn -0.621678 0.000000 -0.783273
vn 0.000000 0.000000 -1.000000
vn 0.000000 1.000000 0.000000
vn -0.875465 0.000000 0.483281
vn -0.621678 0.000000 -0.783273
vn 0.000000 1.000000 0.000000
vn 0.000000 0.000000 -1.000000
vn 0.707107 0.000000 -0.707107
vn 0.707107 0.000000 -0.707107
vn 0.830632 0.000000 -0.556822
vn 0.000000 1.000000 0.000000
vn 0.707107 0.000000 -0.707107
vn 0.830632 0.000000 -0.556822
vn 0.000000 0.000000 -1.000000
vn 0.000000 1.000000 0.000000
vn 0.707107 0.000000 -0.707107
vn -0.975388 0.000000 0.220497
vn -0.297717 0.000000 0.954654
vn -0.975388 0.000000 0.220497
vn -0.297717 0.000000 0.954654
vn 0.000000 1.000000 0.000000
vn 0.923877 0.000000 0.382690
vn 1.000000 0.000000 0.000000
vn -0.297717 0.000000 0.954654
vn 0.438512 0.000000 0.898725
vn 0.438512 0.000000 0.898725
vn 0.923877 0.000000 0.382690
vn -0.297717 0.000000 0.954654
vn 0.000000 1.000000 0.000000
vn 0.438512 0.000000 0.898725
vn 0.000000 1.000000 0.000000
vn 0.923877 0.000000 0.382690
vn 1.000000 0.000000 0.000000
vn 0.000000 1.000000 0.000000
vn 0.438512 0.000000 0.898725
vn 0.923877 0.000000 0.382690
vn -0.975388 0.000000 0.220497
vn -0.958019 0.000000 -0.286706
vn -0.958019 0.000000 -0.286706
vn 0.286008 0.000000 -0.958227
vn -0.958019 0.000000 -0.286706
vn 0.000000 1.000000 0.000000
vn 0.286008 0.000000 -0.958227
vn -0.975388 0.000000 0.220497
vn -0.958019 0.000000 -0.286706
vn 0.000000 1.000000 0.000000
vn 0.215999 0.000000 -0.976394
vn 0.286008 0.000000 -0.958227
vn 0.215999 0.000000 -0.976394
vn 1.000000 0.000000 0.000000
vn 0.000000 1.000000 0.000000
vn 0.215999 0.000000 -0.976394
vn 1.000000 0.000000 0.000000
vn 0.000000 1.000000 0.000000
vn 0.215999 0.000000 -0.976394
vn 0.286008 0.000000 -0.958227
f 15/15/15 35/35/35 39/39/39
f 39/39/39 27/27/27 30/30/30
f 30/30/30 5/5/5 13/13/13
f 13/13/13 18/18/18 15/15/15
f 15/15/15 39/39/39 30/30/30
f 30/30/30 13/13/13 15/15/15
f 8/8/8 12/12/12 4/4/4
f 8/8/8 4/4/4 2/2/2
f 14/14/14 9/9/9 10/10/10
f 14/14/14 10/10/10 19/19/19
f 20/20/20 11/11/11 6/6/6
f 20/20/20 6/6/6 16/16/16
f 1/1/1 3/3/3 28/28/28
f 1/1/1 28/28/28 21/21/21
f 25/25/25 23/23/23 22/22/22
f 25/25/25 22/22/22 29/29/29
f 24/24/24 26/26/26 38/38/38
f 24/24/24 38/38/38 31/31/31
f 36/36/36 33/33/33 32/32/32
f 36/36/36 32/32/32 40/40/40
f 34/34/34 37/37/37 17/17/17
f 34/34/34 17/17/17 7/7/7
f 55/55/55 75/75/75 79/79/79
f 79/79/79 67/67/67 70/70/70
f 70/70/70 45/45/45 53/53/53
f 53/53/53 58/58/58 55/55/55
f 55/55/55 79/79/79 70/70/70
f 70/70/70 53/53/53 55/55/55
f 48/48/48 52/52/52 44/44/44
f 48/48/48 44/44/44 42/42/42
f 54/54/54 49/49/49 50/50/50
f 54/54/54 50/50/50 59/59/59
f 60/60/60 51/51/51 47/47/47
f 60/60/60 47/47/47 57/57/57
f 41/41/41 43/43/43 68/68/68
f 41/41/41 68/68/68 61/61/61
f 65/65/65 63/63/63 62/62/62
f 65/65/65 62/62/62 69/69/69
f 64/64/64 66/66/66 78/78/78
f 64/64/64 78/78/78 71/71/71
f 76/76/76 73/73/73 72/72/72
f 76/76/76 72/72/72 80/80/80
f 74/74/74 77/77/77 56/56/56
f 74/74/74 56/56/56 46/46/46
f 95/95/95 115/115/115 118/118/118
f 118/118/118 106/106/106 110/110/110
f 110/110/110 85/85/85 93/93/93
f 93/93/93 98/98/98 95/95/95
f 95/95/95 118/118/118 110/110/110
f 110/110/110 93/93/93 95/95/95
f 88/88/88 92/92/92 84/84/84
f 88/88/88 84/84/84 82/82/82
f 94/94/94 89/89/89 90/90/90
f 94/94/94 90/90/90 99/99/99
f 100/100/100 91/91/91 86/86/86
f 100/100/100 86/86/86 96/96/96
f 81/81/81 83/83/83 108/108/108
f 81/81/81 108/108/108 101/101/101
f 105/105/105 103/103/103 102/102/102
f 105/105/105 102/102/102 109/109/109
f 104/104/104 107/107/107 120/120/120
f 104/104/104 120/120/120 112/112/112
f 116/116/116 113/113/113 111/111/111
f 116/116/116 111/111/111 119/119/119
f 114/114/114 117/117/117 97/97/97
f 114/114/114 97/97/97 87/87/87
