# generated by the editor's model importer
v 3.873625 0.007805 -1.454285 1.000000 1.000000 1.000000 1.000000
v 3.714070 1.406095 -0.519831 1.000000 1.000000 1.000000 1.000000
v 4.134966 1.308285 0.819315 1.000000 1.000000 1.000000 1.000000
v 3.873625 0.007805 -1.454285 1.000000 1.000000 1.000000 1.000000
v 4.502491 0.010899 1.167082 1.000000 1.000000 1.000000 1.000000
v 2.736158 0.000847 1.454285 1.000000 1.000000 1.000000 1.000000
v 2.502002 0.000000 -1.231268 1.000000 1.000000 1.000000 1.000000
v 2.960688 1.301603 1.010255 1.000000 1.000000 1.000000 1.000000
v 4.134966 1.308285 0.819315 1.000000 1.000000 1.000000 1.000000
v 3.714070 1.406095 -0.519831 1.000000 1.000000 1.000000 1.000000
v 2.835838 1.401097 -0.377009 1.000000 1.000000 1.000000 1.000000
v 4.502491 0.010899 1.167082 1.000000 1.000000 1.000000 1.000000
v 3.873625 0.007805 -1.454285 1.000000 1.000000 1.000000 1.000000
v 4.134966 1.308285 0.819315 1.000000 1.000000 1.000000 1.000000
v 2.835838 1.401097 -0.377009 1.000000 1.000000 1.000000 1.000000
v 2.502002 0.000000 -1.231268 1.000000 1.000000 1.000000 1.000000
v 2.960688 1.301603 1.010255 1.000000 1.000000 1.000000 1.000000
v 2.502002 0.000000 -1.231268 1.000000 1.000000 1.000000 1.000000
v 2.736158 0.000847 1.454285 1.000000 1.000000 1.000000 1.000000
v 2.960688 1.301603 1.010255 1.000000 1.000000 1.000000 1.000000
v 2.960688 1.301603 1.010255 1.000000 1.000000 1.000000 1.000000
v 2.736158 0.000847 1.454285 1.000000 1.000000 1.000000 1.000000
v 4.502491 0.010899 1.167082 1.000000 1.000000 1.000000 1.000000
v 4.134966 1.308285 0.819315 1.000000 1.000000 1.000000 1.000000
v -3.873625 0.007805 -1.454285 1.000000 1.000000 1.000000 1.000000
v -2.502002 0.000000 -1.231268 1.000000 1.000000 1.000000 1.000000
v -2.736158 0.000847 1.454285 1.000000 1.000000 1.000000 1.000000
v -4.502491 0.010899 1.167082 1.000000 1.000000 1.000000 1.000000
v -2.835838 1.401097 -0.377009 1.000000 1.000000 1.000000 1.000000
v -2.960688 1.301603 1.010255 1.000000 1.000000 1.000000 1.000000
v -2.502002 0.000000 -1.231268 1.000000 1.000000 1.000000 1.000000
v -3.873625 0.007805 -1.454285 1.000000 1.000000 1.000000 1.000000
v -4.134966 1.308285 0.819315 1.000000 1.000000 1.000000 1.000000
v -3.714070 1.406095 -0.519831 1.000000 1.000000 1.000000 1.000000
v -2.960688 1.301603 1.010255 1.000000 1.000000 1.000000 1.000000
v -2.835838 1.401097 -0.377009 1.000000 1.000000 1.000000 1.000000
v -3.714070 1.406095 -0.519831 1.000000 1.000000 1.000000 1.000000
v -4.134966 1.308285 0.819315 1.000000 1.000000 1.000000 1.000000
v -2.502002 0.000000 -1.231268 1.000000 1.000000 1.000000 1.000000
v -2.960688 1.301603 1.010255 1.000000 1.000000 1.000000 1.000000
v -2.736158 0.000847 1.454285 1.000000 1.000000 1.000000 1.000000
v -4.502491 0.010899 1.167082 1.000000 1.000000 1.000000 1.000000
v -4.134966 1.308285 0.819315 1.000000 1.000000 1.000000 1.000000
v -3.873625 0.007805 -1.454285 1.000000 1.000000 1.000000 1.000000
v -2.960688 1.301603 1.010255 1.000000 1.000000 1.000000 1.000000
v -4.134966 1.308285 0.819315 1.000000 1.000000 1.000000 1.000000
v -4.502491 0.010899 1.167082 1.000000 1.000000 1.000000 1.000000
v -2.736158 0.000847 1.454285 1.000000 1.000000 1.000000 1.000000
vt 0.638700 0.400400
vt 0.603500 0.455100
vt 0.544900 0.455100
vt 0.638700 0.400400
vt 0.533200 0.400400
vt 0.533200 0.400400
vt 0.638700 0.400400
vt 0.544900 0.455100
vt 0.544900 0.455100
vt 0.603500 0.455100
vt 0.603500 0.455100
vt 0.533200 0.400400
vt 0.638700 0.400400
vt 0.544900 0.455100
vt 0.603500 0.455100
vt 0.638700 0.400400
vt 0.544900 0.455100
vt 0.638700 0.400400
vt 0.533200 0.400400
vt 0.544900 0.455100
vt 0.544900 0.455100
vt 0.533200 0.400400
vt 0.533200 0.400400
vt 0.544900 0.455100
vt 0.638700 0.400400
vt 0.638700 0.400400
vt 0.533200 0.400400
vt 0.533200 0.400400
vt 0.603500 0.455100
vt 0.544900 0.455100
vt 0.638700 0.400400
vt 0.638700 0.400400
vt 0.544900 0.455100
vt 0.603500 0.455100
vt 0.544900 0.455100
vt 0.603500 0.455100
vt 0.603500 0.455100
vt 0.544900 0.455100
vt 0.638700 0.400400
vt 0.544900 0.455100
vt 0.533200 0.400400
vt 0.533200 0.400400
vt 0.544900 0.455100
vt 0.638700 0.400400
vt 0.544900 0.455100
vt 0.544900 0.455100
vt 0.533200 0.400400
vt 0.533200 0.400400
vn 0.920333 0.284410 -0.268510
vn 0.920333 0.284410 -0.268510
vn 0.920333 0.284410 -0.268510
vn 0.005700 -0.999984 -0.000200
vn 0.005700 -0.999984 -0.000200
vn 0.005700 -0.999984 -0.000200
vn 0.005700 -0.999984 -0.000200
vn 0.005900 0.997459 0.070997
vn 0.005900 0.997459 0.070997
vn 0.005900 0.997459 0.070997
vn 0.005900 0.997459 0.070997
vn 0.951041 0.208209 -0.228410
vn 0.951041 0.208209 -0.228410
vn 0.951041 0.208209 -0.228410
vn -0.979921 0.172204 0.100502
vn -0.979921 0.172204 0.100502
vn -0.979921 0.172204 0.100502
vn -0.976583 0.197597 0.085098
vn -0.976583 0.197597 0.085098
vn -0.976583 0.197597 0.085098
vn 0.151704 0.295808 0.943124
vn 0.151704 0.295808 0.943124
vn 0.151704 0.295808 0.943124
vn 0.151704 0.295808 0.943124
vn -0.005700 -0.999984 -0.000200
vn -0.005700 -0.999984 -0.000200
vn -0.005700 -0.999984 -0.000200
vn -0.005700 -0.999984 -0.000200
vn 0.979921 0.172204 0.100502
vn 0.979921 0.172204 0.100502
vn 0.979921 0.172204 0.100502
vn -0.920333 0.284410 -0.268510
vn -0.920333 0.284410 -0.268510
vn -0.920333 0.284410 -0.268510
vn -0.005900 0.997459 0.070997
vn -0.005900 0.997459 0.070997
vn -0.005900 0.997459 0.070997
vn -0.005900 0.997459 0.070997
vn 0.976583 0.197597 0.085098
vn 0.976583 0.197597 0.085098
vn 0.976583 0.197597 0.085098
vn -0.951041 0.208209 -0.228410
vn -0.951041 0.208209 -0.228410
vn -0.951041 0.208209 -0.228410
vn -0.151704 0.295808 0.943124
vn -0.151704 0.295808 0.943124
vn -0.151704 0.295808 0.943124
vn -0.151704 0.295808 0.943124
f 1/1/1 2/2/2 3/3/3
f 4/4/4 5/5/5 6/6/6
f 4/4/4 6/6/6 7/7/7
f 8/8/8 9/9/9 10/10/10
f 8/8/8 10/10/10 11/11/11
f 12/12/12 13/13/13 14/14/14
f 15/15/15 16/16/16 17/17/17
f 18/18/18 19/19/19 20/20/20
f 21/21/21 22/22/22 23/23/23
f 21/21/21 23/23/23 24/24/24
f 25/25/25 26/26/26 27/27/27
f 25/25/25 27/27/27 28/28/28
f 29/29/29 30/30/30 31/31/31
f 32/32/32 33/33/33 34/34/34
f 35/35/35 36/36/36 37/37/37
f 35/35/35 37/37/37 38/38/38
f 39/39/39 40/40/40 41/41/41
f 42/42/42 43/43/43 44/44/44
f 45/45/45 46/46/46 47/47/47
f 45/45/45 47/47/47 48/48/48
