# generated by the editor's model importer
v 4.448239 0.291017 -1.720798 1.000000 1.000000 1.000000 1.000000
v 4.059180 1.430909 -1.490270 1.000000 1.000000 1.000000 1.000000
v 4.183890 0.254201 -0.861524 1.000000 1.000000 1.000000 1.000000
v 4.183890 0.254201 -0.861524 1.000000 1.000000 1.000000 1.000000
v 4.059180 1.430909 -1.490270 1.000000 1.000000 1.000000 1.000000
v 3.455945 1.432711 -0.475311 1.000000 1.000000 1.000000 1.000000
v 4.059180 1.430909 -1.490270 1.000000 1.000000 1.000000 1.000000
v 3.667015 3.680345 -1.202578 1.000000 1.000000 1.000000 1.000000
v 3.455945 1.432711 -0.475311 1.000000 1.000000 1.000000 1.000000
v 3.667015 3.680345 -1.202578 1.000000 1.000000 1.000000 1.000000
v 3.721422 5.888826 -1.355088 1.000000 1.000000 1.000000 1.000000
v 3.101509 4.095317 -0.205279 1.000000 1.000000 1.000000 1.000000
v 1.637600 12.108301 -1.812669 1.000000 1.000000 1.000000 1.000000
v 3.138121 12.627491 -0.294611 1.000000 1.000000 1.000000 1.000000
v 2.762772 9.682571 -1.533520 1.000000 1.000000 1.000000 1.000000
v 2.604467 1.213011 -1.253325 1.000000 1.000000 1.000000 1.000000
v 2.505367 0.000000 -1.404341 1.000000 1.000000 1.000000 1.000000
v 3.022069 0.080175 -0.672287 1.000000 1.000000 1.000000 1.000000
v 3.455945 1.432711 -0.475311 1.000000 1.000000 1.000000 1.000000
v 2.604467 1.213011 -1.253325 1.000000 1.000000 1.000000 1.000000
v 3.022069 0.080175 -0.672287 1.000000 1.000000 1.000000 1.000000
v 3.455945 1.432711 -0.475311 1.000000 1.000000 1.000000 1.000000
v 3.668489 0.493044 -0.032990 1.000000 1.000000 1.000000 1.000000
v 4.183890 0.254201 -0.861524 1.000000 1.000000 1.000000 1.000000
v 3.667015 3.680345 -1.202578 1.000000 1.000000 1.000000 1.000000
v 3.101509 4.095317 -0.205279 1.000000 1.000000 1.000000 1.000000
v 3.455945 1.432711 -0.475311 1.000000 1.000000 1.000000 1.000000
v 2.604467 1.213011 -1.253325 1.000000 1.000000 1.000000 1.000000
v 3.455945 1.432711 -0.475311 1.000000 1.000000 1.000000 1.000000
v 2.407562 3.491696 -0.997447 1.000000 1.000000 1.000000 1.000000
v 3.455945 1.432711 -0.475311 1.000000 1.000000 1.000000 1.000000
v 3.101509 4.095317 -0.205279 1.000000 1.000000 1.000000 1.000000
v 2.407562 3.491696 -0.997447 1.000000 1.000000 1.000000 1.000000
v 3.101509 4.095317 -0.205279 1.000000 1.000000 1.000000 1.000000
v 1.680914 5.583184 -1.022724 1.000000 1.000000 1.000000 1.000000
v 2.407562 3.491696 -0.997447 1.000000 1.000000 1.000000 1.000000
v 3.721422 5.888826 -1.355088 1.000000 1.000000 1.000000 1.000000
v 3.432610 7.580945 -0.629798 1.000000 1.000000 1.000000 1.000000
v 2.846201 6.566133 0.497770 1.000000 1.000000 1.000000 1.000000
v 3.138121 12.627491 -0.294611 1.000000 1.000000 1.000000 1.000000
v 1.637600 12.108301 -1.812669 1.000000 1.000000 1.000000 1.000000
v 1.389126 14.885979 -0.785303 1.000000 1.000000 1.000000 1.000000
v 2.762772 9.682571 -1.533520 1.000000 1.000000 1.000000 1.000000
v 3.138121 12.627491 -0.294611 1.000000 1.000000 1.000000 1.000000
v 3.060044 9.244297 -0.109027 1.000000 1.000000 1.000000 1.000000
v 3.022069 0.080175 -0.672287 1.000000 1.000000 1.000000 1.000000
v 3.668489 0.493044 -0.032990 1.000000 1.000000 1.000000 1.000000
v 3.455945 1.432711 -0.475311 1.000000 1.000000 1.000000 1.000000
v 3.101509 4.095317 -0.205279 1.000000 1.000000 1.000000 1.000000
v 3.721422 5.888826 -1.355088 1.000000 1.000000 1.000000 1.000000
v 2.846201 6.566133 0.497770 1.000000 1.000000 1.000000 1.000000
v 1.680914 5.583184 -1.022724 1.000000 1.000000 1.000000 1.000000
v 3.101509 4.095317 -0.205279 1.000000 1.000000 1.000000 1.000000
v 2.846201 6.566133 0.497770 1.000000 1.000000 1.000000 1.000000
v 1.685003 7.319177 -0.345173 1.000000 1.000000 1.000000 1.000000
v 2.846201 6.566133 0.497770 1.000000 1.000000 1.000000 1.000000
v 3.432610 7.580945 -0.629798 1.000000 1.000000 1.000000 1.000000
v 1.986985 15.355337 0.174092 1.000000 1.000000 1.000000 1.000000
v 3.138121 12.627491 -0.294611 1.000000 1.000000 1.000000 1.000000
v 1.389126 14.885979 -0.785303 1.000000 1.000000 1.000000 1.000000
v 1.685003 7.319177 -0.345173 1.000000 1.000000 1.000000 1.000000
v 1.680914 5.583184 -1.022724 1.000000 1.000000 1.000000 1.000000
v 2.846201 6.566133 0.497770 1.000000 1.000000 1.000000 1.000000
v 1.986985 15.355337 0.174092 1.000000 1.000000 1.000000 1.000000
v 1.734840 14.695044 1.164546 1.000000 1.000000 1.000000 1.000000
v 3.138121 12.627491 -0.294611 1.000000 1.000000 1.000000 1.000000
v 3.060044 9.244297 -0.109027 1.000000 1.000000 1.000000 1.000000
v 2.280404 11.753296 1.812669 1.000000 1.000000 1.000000 1.000000
v 3.040387 8.113049 -0.011252 1.000000 1.000000 1.000000 1.000000
v 3.060044 9.244297 -0.109027 1.000000 1.000000 1.000000 1.000000
v 3.138121 12.627491 -0.294611 1.000000 1.000000 1.000000 1.000000
v 2.280404 11.753296 1.812669 1.000000 1.000000 1.000000 1.000000
v -1.637600 12.108301 -1.812669 1.000000 1.000000 1.000000 1.000000
v -2.762772 9.682571 -1.533520 1.000000 1.000000 1.000000 1.000000
v -3.138121 12.627491 -0.294611 1.000000 1.000000 1.000000 1.000000
v -3.138121 12.627491 -0.294611 1.000000 1.000000 1.000000 1.000000
v -1.389126 14.885979 -0.785303 1.000000 1.000000 1.000000 1.000000
v -1.637600 12.108301 -1.812669 1.000000 1.000000 1.000000 1.000000
v -2.604467 1.213011 -1.253325 1.000000 1.000000 1.000000 1.000000
v -3.022069 0.080175 -0.672287 1.000000 1.000000 1.000000 1.000000
v -2.505367 0.000000 -1.404341 1.000000 1.000000 1.000000 1.000000
v 2.280404 11.753296 1.812669 1.000000 1.000000 1.000000 1.000000
v 2.744179 7.568461 0.814661 1.000000 1.000000 1.000000 1.000000
v 3.040387 8.113049 -0.011252 1.000000 1.000000 1.000000 1.000000
v -4.448239 0.291017 -1.720798 1.000000 1.000000 1.000000 1.000000
v -4.183890 0.254201 -0.861524 1.000000 1.000000 1.000000 1.000000
v -4.059180 1.430909 -1.490270 1.000000 1.000000 1.000000 1.000000
v -2.604467 1.213011 -1.253325 1.000000 1.000000 1.000000 1.000000
v -2.407562 3.491696 -0.997447 1.000000 1.000000 1.000000 1.000000
v -3.455945 1.432711 -0.475311 1.000000 1.000000 1.000000 1.000000
v -3.101509 4.095317 -0.205279 1.000000 1.000000 1.000000 1.000000
v -2.407562 3.491696 -0.997447 1.000000 1.000000 1.000000 1.000000
v -1.680914 5.583184 -1.022724 1.000000 1.000000 1.000000 1.000000
v 1.734840 14.695044 1.164546 1.000000 1.000000 1.000000 1.000000
v 2.280404 11.753296 1.812669 1.000000 1.000000 1.000000 1.000000
v 3.138121 12.627491 -0.294611 1.000000 1.000000 1.000000 1.000000
v -3.455945 1.432711 -0.475311 1.000000 1.000000 1.000000 1.000000
v -3.022069 0.080175 -0.672287 1.000000 1.000000 1.000000 1.000000
v -2.604467 1.213011 -1.253325 1.000000 1.000000 1.000000 1.000000
v -4.059180 1.430909 -1.490270 1.000000 1.000000 1.000000 1.000000
v -3.455945 1.432711 -0.475311 1.000000 1.000000 1.000000 1.000000
v -3.667015 3.680345 -1.202578 1.000000 1.000000 1.000000 1.000000
v -3.667015 3.680345 -1.202578 1.000000 1.000000 1.000000 1.000000
v -3.101509 4.095317 -0.205279 1.000000 1.000000 1.000000 1.000000
v -3.721422 5.888826 -1.355088 1.000000 1.000000 1.000000 1.000000
v -4.183890 0.254201 -0.861524 1.000000 1.000000 1.000000 1.000000
v -3.455945 1.432711 -0.475311 1.000000 1.000000 1.000000 1.000000
v -4.059180 1.430909 -1.490270 1.000000 1.000000 1.000000 1.000000
v -1.685003 7.319177 -0.345173 1.000000 1.000000 1.000000 1.000000
v -2.846201 6.566133 0.497770 1.000000 1.000000 1.000000 1.000000
v -1.680914 5.583184 -1.022724 1.000000 1.000000 1.000000 1.000000
v -2.762772 9.682571 -1.533520 1.000000 1.000000 1.000000 1.000000
v -3.060044 9.244297 -0.109027 1.000000 1.000000 1.000000 1.000000
v -3.138121 12.627491 -0.294611 1.000000 1.000000 1.000000 1.000000
v -3.667015 3.680345 -1.202578 1.000000 1.000000 1.000000 1.000000
v -3.455945 1.432711 -0.475311 1.000000 1.000000 1.000000 1.000000
v -3.101509 4.095317 -0.205279 1.000000 1.000000 1.000000 1.000000
v -3.455945 1.432711 -0.475311 1.000000 1.000000 1.000000 1.000000
v -2.407562 3.491696 -0.997447 1.000000 1.000000 1.000000 1.000000
v -3.101509 4.095317 -0.205279 1.000000 1.000000 1.000000 1.000000
v -1.986985 15.355337 0.174092 1.000000 1.000000 1.000000 1.000000
v -1.389126 14.885979 -0.785303 1.000000 1.000000 1.000000 1.000000
v -3.138121 12.627491 -0.294611 1.000000 1.000000 1.000000 1.000000
v -3.022069 0.080175 -0.672287 1.000000 1.000000 1.000000 1.000000
v -3.455945 1.432711 -0.475311 1.000000 1.000000 1.000000 1.000000
v -3.668489 0.493044 -0.032990 1.000000 1.000000 1.000000 1.000000
v -1.680914 5.583184 -1.022724 1.000000 1.000000 1.000000 1.000000
v -2.846201 6.566133 0.497770 1.000000 1.000000 1.000000 1.000000
v -3.101509 4.095317 -0.205279 1.000000 1.000000 1.000000 1.000000
v -3.101509 4.095317 -0.205279 1.000000 1.000000 1.000000 1.000000
v -2.846201 6.566133 0.497770 1.000000 1.000000 1.000000 1.000000
v -3.721422 5.888826 -1.355088 1.000000 1.000000 1.000000 1.000000
v -3.721422 5.888826 -1.355088 1.000000 1.000000 1.000000 1.000000
v -2.846201 6.566133 0.497770 1.000000 1.000000 1.000000 1.000000
v -3.432610 7.580945 -0.629798 1.000000 1.000000 1.000000 1.000000
v -1.685003 7.319177 -0.345173 1.000000 1.000000 1.000000 1.000000
v -3.432610 7.580945 -0.629798 1.000000 1.000000 1.000000 1.000000
v -2.846201 6.566133 0.497770 1.000000 1.000000 1.000000 1.000000
v -3.455945 1.432711 -0.475311 1.000000 1.000000 1.000000 1.000000
v -4.183890 0.254201 -0.861524 1.000000 1.000000 1.000000 1.000000
v -3.668489 0.493044 -0.032990 1.000000 1.000000 1.000000 1.000000
v -1.986985 15.355337 0.174092 1.000000 1.000000 1.000000 1.000000
v -3.138121 12.627491 -0.294611 1.000000 1.000000 1.000000 1.000000
v -1.734840 14.695044 1.164546 1.000000 1.000000 1.000000 1.000000
v -3.060044 9.244297 -0.109027 1.000000 1.000000 1.000000 1.000000
v -2.280404 11.753296 1.812669 1.000000 1.000000 1.000000 1.000000
v -3.138121 12.627491 -0.294611 1.000000 1.000000 1.000000 1.000000
v -3.060044 9.244297 -0.109027 1.000000 1.000000 1.000000 1.000000
v -3.040387 8.113049 -0.011252 1.000000 1.000000 1.000000 1.000000
v -2.280404 11.753296 1.812669 1.000000 1.000000 1.000000 1.000000
v -1.734840 14.695044 1.164546 1.000000 1.000000 1.000000 1.000000
v -3.138121 12.627491 -0.294611 1.000000 1.000000 1.000000 1.000000
v -2.280404 11.753296 1.812669 1.000000 1.000000 1.000000 1.000000
v -2.280404 11.753296 1.812669 1.000000 1.000000 1.000000 1.000000
v -3.040387 8.113049 -0.011252 1.000000 1.000000 1.000000 1.000000
v -2.744179 7.568461 0.814661 1.000000 1.000000 1.000000 1.000000
vt 0.830100 0.494100
vt 0.826200 0.541000
vt 0.794900 0.498000
vt 0.794900 0.498000
vt 0.826200 0.541000
vt 0.787100 0.548800
vt 0.826200 0.541000
vt 0.826200 0.630900
vt 0.787100 0.548800
vt 0.826200 0.630900
vt 0.841800 0.716800
vt 0.791000 0.654300
vt 0.341800 0.865200
vt 0.279300 0.884800
vt 0.314500 0.767600
vt 0.826200 0.541000
vt 0.830100 0.494100
vt 0.794900 0.498000
vt 0.787100 0.548800
vt 0.826200 0.541000
vt 0.794900 0.498000
vt 0.787100 0.548800
vt 0.767600 0.513700
vt 0.794900 0.498000
vt 0.826200 0.630900
vt 0.791000 0.654300
vt 0.787100 0.548800
vt 0.826200 0.541000
vt 0.787100 0.548800
vt 0.826200 0.630900
vt 0.787100 0.548800
vt 0.791000 0.654300
vt 0.826200 0.630900
vt 0.791000 0.654300
vt 0.841800 0.716800
vt 0.826200 0.630900
vt 0.841800 0.716800
vt 0.818400 0.783200
vt 0.775400 0.752000
vt 0.279300 0.884800
vt 0.341800 0.865200
vt 0.314500 0.978500
vt 0.314500 0.767600
vt 0.279300 0.884800
vt 0.259800 0.755900
vt 0.794900 0.498000
vt 0.767600 0.513700
vt 0.787100 0.548800
vt 0.791000 0.654300
vt 0.841800 0.716800
vt 0.775400 0.752000
vt 0.841800 0.716800
vt 0.791000 0.654300
vt 0.775400 0.752000
vt 0.818400 0.783200
vt 0.775400 0.752000
vt 0.818400 0.783200
vt 0.279300 0.998000
vt 0.279300 0.884800
vt 0.314500 0.978500
vt 0.818400 0.783200
vt 0.841800 0.716800
vt 0.775400 0.752000
vt 0.279300 0.998000
vt 0.240200 0.978500
vt 0.279300 0.884800
vt 0.259800 0.755900
vt 0.205100 0.865200
vt 0.252000 0.712900
vt 0.259800 0.755900
vt 0.279300 0.884800
vt 0.205100 0.865200
vt 0.341800 0.865200
vt 0.314500 0.767600
vt 0.279300 0.884800
vt 0.279300 0.884800
vt 0.314500 0.978500
vt 0.341800 0.865200
vt 0.826200 0.541000
vt 0.794900 0.498000
vt 0.830100 0.494100
vt 0.205100 0.865200
vt 0.220700 0.697300
vt 0.252000 0.712900
vt 0.830100 0.494100
vt 0.794900 0.498000
vt 0.826200 0.541000
vt 0.826200 0.541000
vt 0.826200 0.630900
vt 0.787100 0.548800
vt 0.791000 0.654300
vt 0.826200 0.630900
vt 0.841800 0.716800
vt 0.240200 0.978500
vt 0.205100 0.865200
vt 0.279300 0.884800
vt 0.787100 0.548800
vt 0.794900 0.498000
vt 0.826200 0.541000
vt 0.826200 0.541000
vt 0.787100 0.548800
vt 0.826200 0.630900
vt 0.826200 0.630900
vt 0.791000 0.654300
vt 0.841800 0.716800
vt 0.794900 0.498000
vt 0.787100 0.548800
vt 0.826200 0.541000
vt 0.818400 0.783200
vt 0.775400 0.752000
vt 0.841800 0.716800
vt 0.314500 0.767600
vt 0.259800 0.755900
vt 0.279300 0.884800
vt 0.826200 0.630900
vt 0.787100 0.548800
vt 0.791000 0.654300
vt 0.787100 0.548800
vt 0.826200 0.630900
vt 0.791000 0.654300
vt 0.279300 0.998000
vt 0.314500 0.978500
vt 0.279300 0.884800
vt 0.794900 0.498000
vt 0.787100 0.548800
vt 0.767600 0.513700
vt 0.841800 0.716800
vt 0.775400 0.752000
vt 0.791000 0.654300
vt 0.791000 0.654300
vt 0.775400 0.752000
vt 0.841800 0.716800
vt 0.841800 0.716800
vt 0.775400 0.752000
vt 0.818400 0.783200
vt 0.818400 0.783200
vt 0.818400 0.783200
vt 0.775400 0.752000
vt 0.787100 0.548800
vt 0.794900 0.498000
vt 0.767600 0.513700
vt 0.279300 0.998000
vt 0.279300 0.884800
vt 0.240200 0.978500
vt 0.259800 0.755900
vt 0.205100 0.865200
vt 0.279300 0.884800
vt 0.259800 0.755900
vt 0.252000 0.712900
vt 0.205100 0.865200
vt 0.240200 0.978500
vt 0.279300 0.884800
vt 0.205100 0.865200
vt 0.205100 0.865200
vt 0.252000 0.712900
vt 0.220700 0.697300
vn 0.921095 0.254899 0.294298
vn 0.921095 0.254899 0.294298
vn 0.921095 0.254899 0.294298
vn 0.808087 0.341894 0.479692
vn 0.808087 0.341894 0.479692
vn 0.808087 0.341894 0.479692
vn 0.856628 0.084203 0.509017
vn 0.856628 0.084203 0.509017
vn 0.856628 0.084203 0.509017
vn 0.872022 0.012300 0.489312
vn 0.872022 0.012300 0.489312
vn 0.872022 0.012300 0.489312
vn 0.654901 0.220600 -0.722801
vn 0.654901 0.220600 -0.722801
vn 0.654901 0.220600 -0.722801
vn -0.816719 -0.005100 0.577013
vn -0.816719 -0.005100 0.577013
vn -0.816719 -0.005100 0.577013
vn -0.686090 0.115498 0.718290
vn -0.686090 0.115498 0.718290
vn -0.686090 0.115498 0.718290
vn 0.830678 0.379590 0.407289
vn 0.830678 0.379590 0.407289
vn 0.830678 0.379590 0.407289
vn 0.879920 0.069502 0.470011
vn 0.879920 0.069502 0.470011
vn 0.879920 0.069502 0.470011
vn -0.647973 -0.140094 0.748669
vn -0.647973 -0.140094 0.748669
vn -0.647973 -0.140094 0.748669
vn -0.677274 -0.162894 0.717472
vn -0.677274 -0.162894 0.717472
vn -0.677274 -0.162894 0.717472
vn -0.646993 -0.215898 0.731292
vn -0.646993 -0.215898 0.731292
vn -0.646993 -0.215898 0.731292
vn 0.898818 -0.033901 0.437009
vn 0.898818 -0.033901 0.437009
vn 0.898818 -0.033901 0.437009
vn 0.616333 0.321117 -0.719039
vn 0.616333 0.321117 -0.719039
vn 0.616333 0.321117 -0.719039
vn 0.976167 -0.034299 -0.214293
vn 0.976167 -0.034299 -0.214293
vn 0.976167 -0.034299 -0.214293
vn -0.740419 0.141804 0.657017
vn -0.740419 0.141804 0.657017
vn -0.740419 0.141804 0.657017
vn 0.899307 -0.031200 0.436203
vn 0.899307 -0.031200 0.436203
vn 0.899307 -0.031200 0.436203
vn -0.674604 -0.265701 0.688704
vn -0.674604 -0.265701 0.688704
vn -0.674604 -0.265701 0.688704
vn -0.002600 0.743987 0.668189
vn -0.002600 0.743987 0.668189
vn -0.002600 0.743987 0.668189
vn 0.681387 0.393592 -0.617088
vn 0.681387 0.393592 -0.617088
vn 0.681387 0.393592 -0.617088
vn -0.673567 -0.267387 0.689066
vn -0.673567 -0.267387 0.689066
vn -0.673567 -0.267387 0.689066
vn 0.861807 0.292502 0.414404
vn 0.861807 0.292502 0.414404
vn 0.861807 0.292502 0.414404
vn 0.933138 0.014801 0.359215
vn 0.933138 0.014801 0.359215
vn 0.933138 0.014801 0.359215
vn 0.926330 -0.000700 0.376712
vn 0.926330 -0.000700 0.376712
vn 0.926330 -0.000700 0.376712
vn -0.654901 0.220600 -0.722801
vn -0.654901 0.220600 -0.722801
vn -0.654901 0.220600 -0.722801
vn -0.616333 0.321117 -0.719039
vn -0.616333 0.321117 -0.719039
vn -0.616333 0.321117 -0.719039
vn 0.816719 -0.005100 0.577013
vn 0.816719 -0.005100 0.577013
vn 0.816719 -0.005100 0.577013
vn 0.936711 0.020500 0.349504
vn 0.936711 0.020500 0.349504
vn 0.936711 0.020500 0.349504
vn -0.921095 0.254899 0.294298
vn -0.921095 0.254899 0.294298
vn -0.921095 0.254899 0.294298
vn 0.647973 -0.140094 0.748669
vn 0.647973 -0.140094 0.748669
vn 0.647973 -0.140094 0.748669
vn 0.646993 -0.215898 0.731292
vn 0.646993 -0.215898 0.731292
vn 0.646993 -0.215898 0.731292
vn 0.852674 0.258192 0.454186
vn 0.852674 0.258192 0.454186
vn 0.852674 0.258192 0.454186
vn 0.686090 0.115498 0.718290
vn 0.686090 0.115498 0.718290
vn 0.686090 0.115498 0.718290
vn -0.856628 0.084203 0.509017
vn -0.856628 0.084203 0.509017
vn -0.856628 0.084203 0.509017
vn -0.872022 0.012300 0.489312
vn -0.872022 0.012300 0.489312
vn -0.872022 0.012300 0.489312
vn -0.808087 0.341894 0.479692
vn -0.808087 0.341894 0.479692
vn -0.808087 0.341894 0.479692
vn 0.673567 -0.267387 0.689066
vn 0.673567 -0.267387 0.689066
vn 0.673567 -0.267387 0.689066
vn -0.976167 -0.034299 -0.214293
vn -0.976167 -0.034299 -0.214293
vn -0.976167 -0.034299 -0.214293
vn -0.879920 0.069502 0.470011
vn -0.879920 0.069502 0.470011
vn -0.879920 0.069502 0.470011
vn 0.677274 -0.162894 0.717472
vn 0.677274 -0.162894 0.717472
vn 0.677274 -0.162894 0.717472
vn -0.681387 0.393592 -0.617088
vn -0.681387 0.393592 -0.617088
vn -0.681387 0.393592 -0.617088
vn 0.740419 0.141804 0.657017
vn 0.740419 0.141804 0.657017
vn 0.740419 0.141804 0.657017
vn 0.674604 -0.265701 0.688704
vn 0.674604 -0.265701 0.688704
vn 0.674604 -0.265701 0.688704
vn -0.899307 -0.031200 0.436203
vn -0.899307 -0.031200 0.436203
vn -0.899307 -0.031200 0.436203
vn -0.898818 -0.033901 0.437009
vn -0.898818 -0.033901 0.437009
vn -0.898818 -0.033901 0.437009
vn 0.002600 0.743987 0.668189
vn 0.002600 0.743987 0.668189
vn 0.002600 0.743987 0.668189
vn -0.830678 0.379590 0.407289
vn -0.830678 0.379590 0.407289
vn -0.830678 0.379590 0.407289
vn -0.861807 0.292502 0.414404
vn -0.861807 0.292502 0.414404
vn -0.861807 0.292502 0.414404
vn -0.926330 -0.000700 0.376712
vn -0.926330 -0.000700 0.376712
vn -0.926330 -0.000700 0.376712
vn -0.933138 0.014801 0.359215
vn -0.933138 0.014801 0.359215
vn -0.933138 0.014801 0.359215
vn -0.852674 0.258192 0.454186
vn -0.852674 0.258192 0.454186
vn -0.852674 0.258192 0.454186
vn -0.936711 0.020500 0.349504
vn -0.936711 0.020500 0.349504
vn -0.936711 0.020500 0.349504
f 1/1/1 2/2/2 3/3/3
f 4/4/4 5/5/5 6/6/6
f 7/7/7 8/8/8 9/9/9
f 10/10/10 11/11/11 12/12/12
f 13/13/13 14/14/14 15/15/15
f 16/16/16 17/17/17 18/18/18
f 19/19/19 20/20/20 21/21/21
f 22/22/22 23/23/23 24/24/24
f 25/25/25 26/26/26 27/27/27
f 28/28/28 29/29/29 30/30/30
f 31/31/31 32/32/32 33/33/33
f 34/34/34 35/35/35 36/36/36
f 37/37/37 38/38/38 39/39/39
f 40/40/40 41/41/41 42/42/42
f 43/43/43 44/44/44 45/45/45
f 46/46/46 47/47/47 48/48/48
f 49/49/49 50/50/50 51/51/51
f 52/52/52 53/53/53 54/54/54
f 55/55/55 56/56/56 57/57/57
f 58/58/58 59/59/59 60/60/60
f 61/61/61 62/62/62 63/63/63
f 64/64/64 65/65/65 66/66/66
f 67/67/67 68/68/68 69/69/69
f 70/70/70 71/71/71 72/72/72
f 73/73/73 74/74/74 75/75/75
f 76/76/76 77/77/77 78/78/78
f 79/79/79 80/80/80 81/81/81
f 82/82/82 83/83/83 84/84/84
f 85/85/85 86/86/86 87/87/87
f 88/88/88 89/89/89 90/90/90
f 91/91/91 92/92/92 93/93/93
f 94/94/94 95/95/95 96/96/96
f 97/97/97 98/98/98 99/99/99
f 100/100/100 101/101/101 102/102/102
f 103/103/103 104/104/104 105/105/105
f 106/106/106 107/107/107 108/108/108
f 109/109/109 110/110/110 111/111/111
f 112/112/112 113/113/113 114/114/114
f 115/115/115 116/116/116 117/117/117
f 118/118/118 119/119/119 120/120/120
f 121/121/121 122/122/122 123/123/123
f 124/124/124 125/125/125 126/126/126
f 127/127/127 128/128/128 129/129/129
f 130/130/130 131/131/131 132/132/132
f 133/133/133 134/134/134 135/135/135
f 136/136/136 137/137/137 138/138/138
f 139/139/139 140/140/140 141/141/141
f 142/142/142 143/143/143 144/144/144
f 145/145/145 146/146/146 147/147/147
f 148/148/148 149/149/149 150/150/150
f 151/151/151 152/152/152 153/153/153
f 154/154/154 155/155/155 156/156/156
