# generated by the editor's model importer
v 5.055089 1.875186 -0.885955 1.000000 1.000000 1.000000 1.000000
v 4.550108 3.300913 -1.069057 1.000000 1.000000 1.000000 1.000000
v 5.738070 2.385305 -0.456142 1.000000 1.000000 1.000000 1.000000
v 4.550108 3.300913 -1.069057 1.000000 1.000000 1.000000 1.000000
v 4.890132 3.585039 -0.745210 1.000000 1.000000 1.000000 1.000000
v 5.738070 2.385305 -0.456142 1.000000 1.000000 1.000000 1.000000
v 5.738070 2.385305 -0.456142 1.000000 1.000000 1.000000 1.000000
v 6.475471 0.397837 0.259722 1.000000 1.000000 1.000000 1.000000
v 5.055089 1.875186 -0.885955 1.000000 1.000000 1.000000 1.000000
v 5.978811 0.061785 0.074253 1.000000 1.000000 1.000000 1.000000
v 4.635834 1.678277 -0.726554 1.000000 1.000000 1.000000 1.000000
v 5.055089 1.875186 -0.885955 1.000000 1.000000 1.000000 1.000000
v 5.978811 0.061785 0.074253 1.000000 1.000000 1.000000 1.000000
v 5.055089 1.875186 -0.885955 1.000000 1.000000 1.000000 1.000000
v 6.475471 0.397837 0.259722 1.000000 1.000000 1.000000 1.000000
v 4.756138 3.692526 -0.073690 1.000000 1.000000 1.000000 1.000000
v 4.890132 3.585039 -0.745210 1.000000 1.000000 1.000000 1.000000
v 4.550108 3.300913 -1.069057 1.000000 1.000000 1.000000 1.000000
v 5.738070 2.385305 -0.456142 1.000000 1.000000 1.000000 1.000000
v 4.890132 3.585039 -0.745210 1.000000 1.000000 1.000000 1.000000
v 5.029210 3.310812 0.511766 1.000000 1.000000 1.000000 1.000000
v 6.475471 0.397837 0.259722 1.000000 1.000000 1.000000 1.000000
v 5.738070 2.385305 -0.456142 1.000000 1.000000 1.000000 1.000000
v 5.507434 2.276549 0.493138 1.000000 1.000000 1.000000 1.000000
v 4.890132 3.585039 -0.745210 1.000000 1.000000 1.000000 1.000000
v 4.756138 3.692526 -0.073690 1.000000 1.000000 1.000000 1.000000
v 5.029210 3.310812 0.511766 1.000000 1.000000 1.000000 1.000000
v 4.206501 1.665984 0.126218 1.000000 1.000000 1.000000 1.000000
v 3.788597 2.943262 -0.779509 1.000000 1.000000 1.000000 1.000000
v 4.635834 1.678277 -0.726554 1.000000 1.000000 1.000000 1.000000
v 5.978811 0.061785 0.074253 1.000000 1.000000 1.000000 1.000000
v 5.628403 0.000000 0.581788 1.000000 1.000000 1.000000 1.000000
v 4.635834 1.678277 -0.726554 1.000000 1.000000 1.000000 1.000000
v 5.628403 0.000000 0.581788 1.000000 1.000000 1.000000 1.000000
v 4.206501 1.665984 0.126218 1.000000 1.000000 1.000000 1.000000
v 4.635834 1.678277 -0.726554 1.000000 1.000000 1.000000 1.000000
v 4.206501 1.665984 0.126218 1.000000 1.000000 1.000000 1.000000
v 3.615256 2.986277 -0.260463 1.000000 1.000000 1.000000 1.000000
v 3.788597 2.943262 -0.779509 1.000000 1.000000 1.000000 1.000000
v 5.029210 3.310812 0.511766 1.000000 1.000000 1.000000 1.000000
v 5.507434 2.276549 0.493138 1.000000 1.000000 1.000000 1.000000
v 5.738070 2.385305 -0.456142 1.000000 1.000000 1.000000 1.000000
v 3.788597 2.943262 -0.779509 1.000000 1.000000 1.000000 1.000000
v 3.615256 2.986277 -0.260463 1.000000 1.000000 1.000000 1.000000
v 3.977530 3.326838 0.222359 1.000000 1.000000 1.000000 1.000000
v 6.389187 0.522320 0.893404 1.000000 1.000000 1.000000 1.000000
v 6.475471 0.397837 0.259722 1.000000 1.000000 1.000000 1.000000
v 5.507434 2.276549 0.493138 1.000000 1.000000 1.000000 1.000000
v 3.615256 2.986277 -0.260463 1.000000 1.000000 1.000000 1.000000
v 4.206501 1.665984 0.126218 1.000000 1.000000 1.000000 1.000000
v 4.438825 3.033533 0.736248 1.000000 1.000000 1.000000 1.000000
v 3.977530 3.326838 0.222359 1.000000 1.000000 1.000000 1.000000
v 3.615256 2.986277 -0.260463 1.000000 1.000000 1.000000 1.000000
v 4.438825 3.033533 0.736248 1.000000 1.000000 1.000000 1.000000
v 4.206501 1.665984 0.126218 1.000000 1.000000 1.000000 1.000000
v 5.628403 0.000000 0.581788 1.000000 1.000000 1.000000 1.000000
v 4.917054 1.999269 0.717635 1.000000 1.000000 1.000000 1.000000
v 5.628403 0.000000 0.581788 1.000000 1.000000 1.000000 1.000000
v 5.927156 0.305318 1.069057 1.000000 1.000000 1.000000 1.000000
v 4.917054 1.999269 0.717635 1.000000 1.000000 1.000000 1.000000
v 4.206501 1.665984 0.126218 1.000000 1.000000 1.000000 1.000000
v 4.917054 1.999269 0.717635 1.000000 1.000000 1.000000 1.000000
v 4.438825 3.033533 0.736248 1.000000 1.000000 1.000000 1.000000
v -5.055089 1.875186 -0.885955 1.000000 1.000000 1.000000 1.000000
v -5.738070 2.385305 -0.456142 1.000000 1.000000 1.000000 1.000000
v -4.550108 3.300913 -1.069057 1.000000 1.000000 1.000000 1.000000
v -4.206501 1.665984 0.126218 1.000000 1.000000 1.000000 1.000000
v -4.635834 1.678277 -0.726554 1.000000 1.000000 1.000000 1.000000
v -3.788597 2.943262 -0.779509 1.000000 1.000000 1.000000 1.000000
v -4.550108 3.300913 -1.069057 1.000000 1.000000 1.000000 1.000000
v -5.738070 2.385305 -0.456142 1.000000 1.000000 1.000000 1.000000
v -4.890132 3.585039 -0.745210 1.000000 1.000000 1.000000 1.000000
v -4.756138 3.692526 -0.073690 1.000000 1.000000 1.000000 1.000000
v -4.550108 3.300913 -1.069057 1.000000 1.000000 1.000000 1.000000
v -4.890132 3.585039 -0.745210 1.000000 1.000000 1.000000 1.000000
v -4.206501 1.665984 0.126218 1.000000 1.000000 1.000000 1.000000
v -3.788597 2.943262 -0.779509 1.000000 1.000000 1.000000 1.000000
v -3.615256 2.986277 -0.260463 1.000000 1.000000 1.000000 1.000000
v -3.788597 2.943262 -0.779509 1.000000 1.000000 1.000000 1.000000
v -3.977530 3.326838 0.222359 1.000000 1.000000 1.000000 1.000000
v -3.615256 2.986277 -0.260463 1.000000 1.000000 1.000000 1.000000
v -5.978811 0.061785 0.074253 1.000000 1.000000 1.000000 1.000000
v -5.055089 1.875186 -0.885955 1.000000 1.000000 1.000000 1.000000
v -4.635834 1.678277 -0.726554 1.000000 1.000000 1.000000 1.000000
v -5.738070 2.385305 -0.456142 1.000000 1.000000 1.000000 1.000000
v -5.055089 1.875186 -0.885955 1.000000 1.000000 1.000000 1.000000
v -6.475471 0.397837 0.259722 1.000000 1.000000 1.000000 1.000000
v -5.628403 0.000000 0.581788 1.000000 1.000000 1.000000 1.000000
v -4.635834 1.678277 -0.726554 1.000000 1.000000 1.000000 1.000000
v -4.206501 1.665984 0.126218 1.000000 1.000000 1.000000 1.000000
v -3.615256 2.986277 -0.260463 1.000000 1.000000 1.000000 1.000000
v -4.438825 3.033533 0.736248 1.000000 1.000000 1.000000 1.000000
v -4.206501 1.665984 0.126218 1.000000 1.000000 1.000000 1.000000
v -4.890132 3.585039 -0.745210 1.000000 1.000000 1.000000 1.000000
v -5.029210 3.310812 0.511766 1.000000 1.000000 1.000000 1.000000
v -4.756138 3.692526 -0.073690 1.000000 1.000000 1.000000 1.000000
v -3.977530 3.326838 0.222359 1.000000 1.000000 1.000000 1.000000
v -4.438825 3.033533 0.736248 1.000000 1.000000 1.000000 1.000000
v -3.615256 2.986277 -0.260463 1.000000 1.000000 1.000000 1.000000
v -5.738070 2.385305 -0.456142 1.000000 1.000000 1.000000 1.000000
v -5.029210 3.310812 0.511766 1.000000 1.000000 1.000000 1.000000
v -4.890132 3.585039 -0.745210 1.000000 1.000000 1.000000 1.000000
v -5.978811 0.061785 0.074253 1.000000 1.000000 1.000000 1.000000
v -6.475471 0.397837 0.259722 1.000000 1.000000 1.000000 1.000000
v -5.055089 1.875186 -0.885955 1.000000 1.000000 1.000000 1.000000
v -5.978811 0.061785 0.074253 1.000000 1.000000 1.000000 1.000000
v -4.635834 1.678277 -0.726554 1.000000 1.000000 1.000000 1.000000
v -5.628403 0.000000 0.581788 1.000000 1.000000 1.000000 1.000000
v -6.475471 0.397837 0.259722 1.000000 1.000000 1.000000 1.000000
v -5.507434 2.276549 0.493138 1.000000 1.000000 1.000000 1.000000
v -5.738070 2.385305 -0.456142 1.000000 1.000000 1.000000 1.000000
v -4.206501 1.665984 0.126218 1.000000 1.000000 1.000000 1.000000
v -4.438825 3.033533 0.736248 1.000000 1.000000 1.000000 1.000000
v -4.917054 1.999269 0.717635 1.000000 1.000000 1.000000 1.000000
v -5.029210 3.310812 0.511766 1.000000 1.000000 1.000000 1.000000
v -5.738070 2.385305 -0.456142 1.000000 1.000000 1.000000 1.000000
v -5.507434 2.276549 0.493138 1.000000 1.000000 1.000000 1.000000
v -4.206501 1.665984 0.126218 1.000000 1.000000 1.000000 1.000000
v -4.917054 1.999269 0.717635 1.000000 1.000000 1.000000 1.000000
v -5.628403 0.000000 0.581788 1.000000 1.000000 1.000000 1.000000
v -5.628403 0.000000 0.581788 1.000000 1.000000 1.000000 1.000000
v -4.917054 1.999269 0.717635 1.000000 1.000000 1.000000 1.000000
v -5.927156 0.305318 1.069057 1.000000 1.000000 1.000000 1.000000
v -6.389187 0.522320 0.893404 1.000000 1.000000 1.000000 1.000000
v -5.507434 2.276549 0.493138 1.000000 1.000000 1.000000 1.000000
v -6.475471 0.397837 0.259722 1.000000 1.000000 1.000000 1.000000
vt 0.529300 0.599600
vt 0.517600 0.658200
vt 0.498000 0.599600
vt 0.517600 0.658200
vt 0.498000 0.658200
vt 0.498000 0.599600
vt 0.498000 0.599600
vt 0.494100 0.513700
vt 0.529300 0.599600
vt 0.513700 0.513700
vt 0.529300 0.599600
vt 0.529300 0.599600
vt 0.513700 0.513700
vt 0.529300 0.599600
vt 0.494100 0.513700
vt 0.470700 0.658200
vt 0.498000 0.658200
vt 0.517600 0.658200
vt 0.498000 0.599600
vt 0.498000 0.658200
vt 0.455100 0.638700
vt 0.494100 0.513700
vt 0.498000 0.599600
vt 0.466800 0.595700
vt 0.498000 0.658200
vt 0.470700 0.658200
vt 0.455100 0.638700
vt 0.498000 0.599600
vt 0.517600 0.658200
vt 0.529300 0.599600
vt 0.513700 0.513700
vt 0.494100 0.513700
vt 0.529300 0.599600
vt 0.494100 0.513700
vt 0.498000 0.599600
vt 0.529300 0.599600
vt 0.498000 0.599600
vt 0.498000 0.658200
vt 0.517600 0.658200
vt 0.455100 0.638700
vt 0.466800 0.595700
vt 0.498000 0.599600
vt 0.517600 0.658200
vt 0.498000 0.658200
vt 0.470700 0.658200
vt 0.470700 0.513700
vt 0.494100 0.513700
vt 0.466800 0.595700
vt 0.498000 0.658200
vt 0.498000 0.599600
vt 0.455100 0.638700
vt 0.470700 0.658200
vt 0.498000 0.658200
vt 0.455100 0.638700
vt 0.498000 0.599600
vt 0.494100 0.513700
vt 0.466800 0.595700
vt 0.494100 0.513700
vt 0.470700 0.513700
vt 0.466800 0.595700
vt 0.498000 0.599600
vt 0.466800 0.595700
vt 0.455100 0.638700
vt 0.529300 0.599600
vt 0.498000 0.599600
vt 0.517600 0.658200
vt 0.498000 0.599600
vt 0.529300 0.599600
vt 0.517600 0.658200
vt 0.517600 0.658200
vt 0.498000 0.599600
vt 0.498000 0.658200
vt 0.470700 0.658200
vt 0.517600 0.658200
vt 0.498000 0.658200
vt 0.498000 0.599600
vt 0.517600 0.658200
vt 0.498000 0.658200
vt 0.517600 0.658200
vt 0.470700 0.658200
vt 0.498000 0.658200
vt 0.513700 0.513700
vt 0.529300 0.599600
vt 0.529300 0.599600
vt 0.498000 0.599600
vt 0.529300 0.599600
vt 0.494100 0.513700
vt 0.494100 0.513700
vt 0.529300 0.599600
vt 0.498000 0.599600
vt 0.498000 0.658200
vt 0.455100 0.638700
vt 0.498000 0.599600
vt 0.498000 0.658200
vt 0.455100 0.638700
vt 0.470700 0.658200
vt 0.470700 0.658200
vt 0.455100 0.638700
vt 0.498000 0.658200
vt 0.498000 0.599600
vt 0.455100 0.638700
vt 0.498000 0.658200
vt 0.513700 0.513700
vt 0.494100 0.513700
vt 0.529300 0.599600
vt 0.513700 0.513700
vt 0.529300 0.599600
vt 0.494100 0.513700
vt 0.494100 0.513700
vt 0.466800 0.595700
vt 0.498000 0.599600
vt 0.498000 0.599600
vt 0.455100 0.638700
vt 0.466800 0.595700
vt 0.455100 0.638700
vt 0.498000 0.599600
vt 0.466800 0.595700
vt 0.498000 0.599600
vt 0.466800 0.595700
vt 0.494100 0.513700
vt 0.494100 0.513700
vt 0.466800 0.595700
vt 0.470700 0.513700
vt 0.470700 0.513700
vt 0.466800 0.595700
vt 0.494100 0.513700
vn 0.496510 0.064701 -0.865617
vn 0.496510 0.064701 -0.865617
vn 0.496510 0.064701 -0.865617
vn 0.573474 0.214790 -0.790565
vn 0.573474 0.214790 -0.790565
vn 0.573474 0.214790 -0.790565
vn 0.573501 -0.080900 -0.815201
vn 0.573501 -0.080900 -0.815201
vn 0.573501 -0.080900 -0.815201
vn -0.091299 -0.501897 -0.860095
vn -0.091299 -0.501897 -0.860095
vn -0.091299 -0.501897 -0.860095
vn 0.466595 -0.216398 -0.857590
vn 0.466595 -0.216398 -0.857590
vn 0.466595 -0.216398 -0.857590
vn -0.484285 0.843674 -0.231693
vn -0.484285 0.843674 -0.231693
vn -0.484285 0.843674 -0.231693
vn 0.811820 0.582715 0.037301
vn 0.811820 0.582715 0.037301
vn 0.811820 0.582715 0.037301
vn 0.871236 0.416717 0.259411
vn 0.871236 0.416717 0.259411
vn 0.871236 0.416717 0.259411
vn 0.772195 0.633196 0.052700
vn 0.772195 0.633196 0.052700
vn 0.772195 0.633196 0.052700
vn -0.757790 -0.523793 -0.389095
vn -0.757790 -0.523793 -0.389095
vn -0.757790 -0.523793 -0.389095
vn -0.553207 -0.690508 -0.466005
vn -0.553207 -0.690508 -0.466005
vn -0.553207 -0.690508 -0.466005
vn -0.665395 -0.662195 -0.344597
vn -0.665395 -0.662195 -0.344597
vn -0.665395 -0.662195 -0.344597
vn -0.855065 -0.455482 -0.247790
vn -0.855065 -0.455482 -0.247790
vn -0.855065 -0.455482 -0.247790
vn 0.878366 0.401484 0.259390
vn 0.878366 0.401484 0.259390
vn 0.878366 0.401484 0.259390
vn -0.484285 0.843674 -0.231693
vn -0.484285 0.843674 -0.231693
vn -0.484285 0.843674 -0.231693
vn 0.890079 0.454689 0.031899
vn 0.890079 0.454689 0.031899
vn 0.890079 0.454689 0.031899
vn -0.758109 -0.153902 0.633708
vn -0.758109 -0.153902 0.633708
vn -0.758109 -0.153902 0.633708
vn -0.765787 -0.088399 0.636989
vn -0.765787 -0.088399 0.636989
vn -0.765787 -0.088399 0.636989
vn -0.547814 -0.249207 0.798621
vn -0.547814 -0.249207 0.798621
vn -0.547814 -0.249207 0.798621
vn -0.718903 -0.298401 0.627802
vn -0.718903 -0.298401 0.627802
vn -0.718903 -0.298401 0.627802
vn -0.540693 -0.264397 0.798590
vn -0.540693 -0.264397 0.798590
vn -0.540693 -0.264397 0.798590
vn -0.496510 0.064701 -0.865617
vn -0.496510 0.064701 -0.865617
vn -0.496510 0.064701 -0.865617
vn 0.757790 -0.523793 -0.389095
vn 0.757790 -0.523793 -0.389095
vn 0.757790 -0.523793 -0.389095
vn -0.573474 0.214790 -0.790565
vn -0.573474 0.214790 -0.790565
vn -0.573474 0.214790 -0.790565
vn 0.484285 0.843674 -0.231693
vn 0.484285 0.843674 -0.231693
vn 0.484285 0.843674 -0.231693
vn 0.855065 -0.455482 -0.247790
vn 0.855065 -0.455482 -0.247790
vn 0.855065 -0.455482 -0.247790
vn 0.484285 0.843674 -0.231693
vn 0.484285 0.843674 -0.231693
vn 0.484285 0.843674 -0.231693
vn 0.091299 -0.501897 -0.860095
vn 0.091299 -0.501897 -0.860095
vn 0.091299 -0.501897 -0.860095
vn -0.573501 -0.080900 -0.815201
vn -0.573501 -0.080900 -0.815201
vn -0.573501 -0.080900 -0.815201
vn 0.665395 -0.662195 -0.344597
vn 0.665395 -0.662195 -0.344597
vn 0.665395 -0.662195 -0.344597
vn 0.758109 -0.153902 0.633708
vn 0.758109 -0.153902 0.633708
vn 0.758109 -0.153902 0.633708
vn -0.772195 0.633196 0.052700
vn -0.772195 0.633196 0.052700
vn -0.772195 0.633196 0.052700
vn 0.765787 -0.088399 0.636989
vn 0.765787 -0.088399 0.636989
vn 0.765787 -0.088399 0.636989
vn -0.811820 0.582715 0.037301
vn -0.811820 0.582715 0.037301
vn -0.811820 0.582715 0.037301
vn -0.466595 -0.216398 -0.857590
vn -0.466595 -0.216398 -0.857590
vn -0.466595 -0.216398 -0.857590
vn 0.553207 -0.690508 -0.466005
vn 0.553207 -0.690508 -0.466005
vn 0.553207 -0.690508 -0.466005
vn -0.871236 0.416717 0.259411
vn -0.871236 0.416717 0.259411
vn -0.871236 0.416717 0.259411
vn 0.540693 -0.264397 0.798590
vn 0.540693 -0.264397 0.798590
vn 0.540693 -0.264397 0.798590
vn -0.878366 0.401484 0.259390
vn -0.878366 0.401484 0.259390
vn -0.878366 0.401484 0.259390
vn 0.547814 -0.249207 0.798621
vn 0.547814 -0.249207 0.798621
vn 0.547814 -0.249207 0.798621
vn 0.718903 -0.298401 0.627802
vn 0.718903 -0.298401 0.627802
vn 0.718903 -0.298401 0.627802
vn -0.890079 0.454689 0.031899
vn -0.890079 0.454689 0.031899
vn -0.890079 0.454689 0.031899
f 1/1/1 2/2/2 3/3/3
f 4/4/4 5/5/5 6/6/6
f 7/7/7 8/8/8 9/9/9
f 10/10/10 11/11/11 12/12/12
f 13/13/13 14/14/14 15/15/15
f 16/16/16 17/17/17 18/18/18
f 19/19/19 20/20/20 21/21/21
f 22/22/22 23/23/23 24/24/24
f 25/25/25 26/26/26 27/27/27
f 28/28/28 29/29/29 30/30/30
f 31/31/31 32/32/32 33/33/33
f 34/34/34 35/35/35 36/36/36
f 37/37/37 38/38/38 39/39/39
f 40/40/40 41/41/41 42/42/42
f 43/43/43 44/44/44 45/45/45
f 46/46/46 47/47/47 48/48/48
f 49/49/49 50/50/50 51/51/51
f 52/52/52 53/53/53 54/54/54
f 55/55/55 56/56/56 57/57/57
f 58/58/58 59/59/59 60/60/60
f 61/61/61 62/62/62 63/63/63
f 64/64/64 65/65/65 66/66/66
f 67/67/67 68/68/68 69/69/69
f 70/70/70 71/71/71 72/72/72
f 73/73/73 74/74/74 75/75/75
f 76/76/76 77/77/77 78/78/78
f 79/79/79 80/80/80 81/81/81
f 82/82/82 83/83/83 84/84/84
f 85/85/85 86/86/86 87/87/87
f 88/88/88 89/89/89 90/90/90
f 91/91/91 92/92/92 93/93/93
f 94/94/94 95/95/95 96/96/96
f 97/97/97 98/98/98 99/99/99
f 100/100/100 101/101/101 102/102/102
f 103/103/103 104/104/104 105/105/105
f 106/106/106 107/107/107 108/108/108
f 109/109/109 110/110/110 111/111/111
f 112/112/112 113/113/113 114/114/114
f 115/115/115 116/116/116 117/117/117
f 118/118/118 119/119/119 120/120/120
f 121/121/121 122/122/122 123/123/123
f 124/124/124 125/125/125 126/126/126
