# generated by the editor's model importer
v 2.500146 0.548828 -1.325146 1.000000 1.000000 1.000000 1.000000
v 2.200127 2.540159 -0.960862 1.000000 1.000000 1.000000 1.000000
v 2.600155 0.000000 0.191188 1.000000 1.000000 1.000000 1.000000
v 2.200127 2.540159 -0.960862 1.000000 1.000000 1.000000 1.000000
v 2.200131 2.760618 0.310073 1.000000 1.000000 1.000000 1.000000
v 2.600155 0.000000 0.191188 1.000000 1.000000 1.000000 1.000000
v 2.200131 2.760618 0.310073 1.000000 1.000000 1.000000 1.000000
v 2.500145 1.008545 1.325146 1.000000 1.000000 1.000000 1.000000
v 2.600155 0.000000 0.191188 1.000000 1.000000 1.000000 1.000000
v -2.200127 2.540159 -0.960862 1.000000 1.000000 1.000000 1.000000
v -2.500146 0.548828 -1.325146 1.000000 1.000000 1.000000 1.000000
v -2.600155 0.000000 0.191188 1.000000 1.000000 1.000000 1.000000
v -2.200131 2.760618 0.310073 1.000000 1.000000 1.000000 1.000000
v -2.200127 2.540159 -0.960862 1.000000 1.000000 1.000000 1.000000
v -2.600155 0.000000 0.191188 1.000000 1.000000 1.000000 1.000000
v -2.600155 0.000000 0.191188 1.000000 1.000000 1.000000 1.000000
v -2.500145 1.008545 1.325146 1.000000 1.000000 1.000000 1.000000
v -2.200131 2.760618 0.310073 1.000000 1.000000 1.000000 1.000000
vt 0.638700 0.587900
vt 0.611300 0.658200
vt 0.584000 0.556600
vt 0.611300 0.658200
vt 0.556600 0.658200
vt 0.584000 0.556600
vt 0.556600 0.658200
vt 0.533200 0.587900
vt 0.584000 0.556600
vt 0.611300 0.658200
vt 0.638700 0.587900
vt 0.584000 0.556600
vt 0.556600 0.658200
vt 0.611300 0.658200
vt 0.584000 0.556600
vt 0.584000 0.556600
vt 0.533200 0.587900
vt 0.556600 0.658200
vn 0.988492 0.150899 -0.010600
vn 0.988492 0.150899 -0.010600
vn 0.988492 0.150899 -0.010600
vn 0.989201 0.144400 -0.025100
vn 0.989201 0.144400 -0.025100
vn 0.989201 0.144400 -0.025100
vn 0.988547 0.145007 -0.041802
vn 0.988547 0.145007 -0.041802
vn 0.988547 0.145007 -0.041802
vn -0.988492 0.150899 -0.010600
vn -0.988492 0.150899 -0.010600
vn -0.988492 0.150899 -0.010600
vn -0.989201 0.144400 -0.025100
vn -0.989201 0.144400 -0.025100
vn -0.989201 0.144400 -0.025100
vn -0.988547 0.145007 -0.041802
vn -0.988547 0.145007 -0.041802
vn -0.988547 0.145007 -0.041802
f 1/1/1 2/2/2 3/3/3
f 4/4/4 5/5/5 6/6/6
f 7/7/7 8/8/8 9/9/9
f 10/10/10 11/11/11 12/12/12
f 13/13/13 14/14/14 15/15/15
f 16/16/16 17/17/17 18/18/18
