# generated by the editor's model importer
v 2.835838 1.401097 0.538638 1.000000 1.000000 1.000000 1.000000
v 3.714070 1.406095 0.395816 1.000000 1.000000 1.000000 1.000000
v 3.873625 0.007805 -0.538638 1.000000 1.000000 1.000000 1.000000
v 2.502002 0.000000 -0.315621 1.000000 1.000000 1.000000 1.000000
v -2.835838 1.401097 0.538638 1.000000 1.000000 1.000000 1.000000
v -2.502002 0.000000 -0.315621 1.000000 1.000000 1.000000 1.000000
v -3.873625 0.007805 -0.538638 1.000000 1.000000 1.000000 1.000000
v -3.714070 1.406095 0.395816 1.000000 1.000000 1.000000 1.000000
vt 0.130900 0.439500
vt 0.091800 0.439500
vt 0.080100 0.384800
vt 0.138700 0.384800
vt 0.130900 0.439500
vt 0.138700 0.384800
vt 0.080100 0.384800
vt 0.091800 0.439500
vn -0.138094 0.539377 -0.830664
vn -0.138094 0.539377 -0.830664
vn -0.138094 0.539377 -0.830664
vn -0.138094 0.539377 -0.830664
vn 0.138094 0.539377 -0.830664
vn 0.138094 0.539377 -0.830664
vn 0.138094 0.539377 -0.830664
vn 0.138094 0.539377 -0.830664
f 1/1/1 2/2/2 3/3/3
f 1/1/1 3/3/3 4/4/4
f 5/5/5 6/6/6 7/7/7
f 5/5/5 7/7/7 8/8/8
