# generated by the editor's model importer
v 4.442238 0.719428 -2.290023 1.000000 1.000000 1.000000 1.000000
v 4.341868 1.018719 -2.274274 1.000000 1.000000 1.000000 1.000000
v 4.280454 1.317688 -0.743243 1.000000 1.000000 1.000000 1.000000
v 4.280454 1.317688 -0.743243 1.000000 1.000000 1.000000 1.000000
v 4.418636 0.618923 0.052885 1.000000 1.000000 1.000000 1.000000
v 4.442238 0.719428 -2.290023 1.000000 1.000000 1.000000 1.000000
v 2.913131 1.310181 -0.523783 1.000000 1.000000 1.000000 1.000000
v 2.378171 1.007545 -1.954994 1.000000 1.000000 1.000000 1.000000
v 2.281187 0.707130 -1.938636 1.000000 1.000000 1.000000 1.000000
v 4.418636 0.618923 0.052885 1.000000 1.000000 1.000000 1.000000
v 4.555268 0.010051 -0.373148 1.000000 1.000000 1.000000 1.000000
v 4.442238 0.719428 -2.290023 1.000000 1.000000 1.000000 1.000000
v 2.281187 0.707130 -1.938636 1.000000 1.000000 1.000000 1.000000
v 3.047013 0.611117 0.275931 1.000000 1.000000 1.000000 1.000000
v 2.913131 1.310181 -0.523783 1.000000 1.000000 1.000000 1.000000
v 2.788937 0.000000 -0.085946 1.000000 1.000000 1.000000 1.000000
v 3.047013 0.611117 0.275931 1.000000 1.000000 1.000000 1.000000
v 2.281187 0.707130 -1.938636 1.000000 1.000000 1.000000 1.000000
v 4.461298 0.009067 2.163268 1.000000 1.000000 1.000000 1.000000
v 4.555268 0.010051 -0.373148 1.000000 1.000000 1.000000 1.000000
v 4.418636 0.618923 0.052885 1.000000 1.000000 1.000000 1.000000
v -2.913131 1.310181 -0.523783 1.000000 1.000000 1.000000 1.000000
v -2.281187 0.707130 -1.938636 1.000000 1.000000 1.000000 1.000000
v -2.378171 1.007545 -1.954994 1.000000 1.000000 1.000000 1.000000
v -4.442238 0.719428 -2.290023 1.000000 1.000000 1.000000 1.000000
v -4.280454 1.317688 -0.743243 1.000000 1.000000 1.000000 1.000000
v -4.341868 1.018719 -2.274274 1.000000 1.000000 1.000000 1.000000
v 3.047013 0.611117 0.275931 1.000000 1.000000 1.000000 1.000000
v 2.788937 0.000000 -0.085946 1.000000 1.000000 1.000000 1.000000
v 3.681739 0.004631 2.290023 1.000000 1.000000 1.000000 1.000000
v -2.281187 0.707130 -1.938636 1.000000 1.000000 1.000000 1.000000
v -2.913131 1.310181 -0.523783 1.000000 1.000000 1.000000 1.000000
v -3.047013 0.611117 0.275931 1.000000 1.000000 1.000000 1.000000
v -2.788937 0.000000 -0.085946 1.000000 1.000000 1.000000 1.000000
v -2.281187 0.707130 -1.938636 1.000000 1.000000 1.000000 1.000000
v -3.047013 0.611117 0.275931 1.000000 1.000000 1.000000 1.000000
v -4.280454 1.317688 -0.743243 1.000000 1.000000 1.000000 1.000000
v -4.442238 0.719428 -2.290023 1.000000 1.000000 1.000000 1.000000
v -4.418636 0.618923 0.052885 1.000000 1.000000 1.000000 1.000000
v -4.418636 0.618923 0.052885 1.000000 1.000000 1.000000 1.000000
v -4.442238 0.719428 -2.290023 1.000000 1.000000 1.000000 1.000000
v -4.555268 0.010051 -0.373148 1.000000 1.000000 1.000000 1.000000
v -3.047013 0.611117 0.275931 1.000000 1.000000 1.000000 1.000000
v -3.681739 0.004631 2.290023 1.000000 1.000000 1.000000 1.000000
v -2.788937 0.000000 -0.085946 1.000000 1.000000 1.000000 1.000000
v -4.461298 0.009067 2.163268 1.000000 1.000000 1.000000 1.000000
v -4.418636 0.618923 0.052885 1.000000 1.000000 1.000000 1.000000
v -4.555268 0.010051 -0.373148 1.000000 1.000000 1.000000 1.000000
vt 0.388700 0.560500
vt 0.388700 0.572300
vt 0.326200 0.584000
vt 0.326200 0.584000
vt 0.291000 0.556600
vt 0.388700 0.560500
vt 0.326200 0.584000
vt 0.388700 0.572300
vt 0.388700 0.560500
vt 0.291000 0.556600
vt 0.310500 0.533200
vt 0.388700 0.560500
vt 0.388700 0.560500
vt 0.291000 0.556600
vt 0.326200 0.584000
vt 0.310500 0.533200
vt 0.291000 0.556600
vt 0.388700 0.560500
vt 0.205100 0.533200
vt 0.310500 0.533200
vt 0.291000 0.556600
vt 0.326200 0.584000
vt 0.388700 0.560500
vt 0.388700 0.572300
vt 0.388700 0.560500
vt 0.326200 0.584000
vt 0.388700 0.572300
vt 0.291000 0.556600
vt 0.310500 0.533200
vt 0.205100 0.533200
vt 0.388700 0.560500
vt 0.326200 0.584000
vt 0.291000 0.556600
vt 0.310500 0.533200
vt 0.388700 0.560500
vt 0.291000 0.556600
vt 0.326200 0.584000
vt 0.388700 0.560500
vt 0.291000 0.556600
vt 0.291000 0.556600
vt 0.388700 0.560500
vt 0.310500 0.533200
vt 0.291000 0.556600
vt 0.205100 0.533200
vt 0.310500 0.533200
vt 0.205100 0.533200
vt 0.291000 0.556600
vt 0.310500 0.533200
vn 0.947439 0.319013 -0.024301
vn 0.947439 0.319013 -0.024301
vn 0.947439 0.319013 -0.024301
vn 0.976473 0.214794 0.019099
vn 0.976473 0.214794 0.019099
vn 0.976473 0.214794 0.019099
vn -0.910475 0.308892 0.274993
vn -0.910475 0.308892 0.274993
vn -0.910475 0.308892 0.274993
vn 0.978289 0.206398 0.018700
vn 0.978289 0.206398 0.018700
vn 0.978289 0.206398 0.018700
vn -0.923626 0.198306 0.328009
vn -0.923626 0.198306 0.328009
vn -0.923626 0.198306 0.328009
vn -0.924088 0.195997 0.328096
vn -0.924088 0.195997 0.328096
vn -0.924088 0.195997 0.328096
vn 0.980226 0.194505 0.036401
vn 0.980226 0.194505 0.036401
vn 0.980226 0.194505 0.036401
vn 0.910475 0.308892 0.274993
vn 0.910475 0.308892 0.274993
vn 0.910475 0.308892 0.274993
vn -0.947439 0.319013 -0.024301
vn -0.947439 0.319013 -0.024301
vn -0.947439 0.319013 -0.024301
vn -0.920218 0.184104 0.345407
vn -0.920218 0.184104 0.345407
vn -0.920218 0.184104 0.345407
vn 0.923626 0.198306 0.328009
vn 0.923626 0.198306 0.328009
vn 0.923626 0.198306 0.328009
vn 0.924088 0.195997 0.328096
vn 0.924088 0.195997 0.328096
vn 0.924088 0.195997 0.328096
vn -0.976473 0.214794 0.019099
vn -0.976473 0.214794 0.019099
vn -0.976473 0.214794 0.019099
vn -0.978289 0.206398 0.018700
vn -0.978289 0.206398 0.018700
vn -0.978289 0.206398 0.018700
vn 0.920218 0.184104 0.345407
vn 0.920218 0.184104 0.345407
vn 0.920218 0.184104 0.345407
vn -0.980226 0.194505 0.036401
vn -0.980226 0.194505 0.036401
vn -0.980226 0.194505 0.036401
f 1/1/1 2/2/2 3/3/3
f 4/4/4 5/5/5 6/6/6
f 7/7/7 8/8/8 9/9/9
f 10/10/10 11/11/11 12/12/12
f 13/13/13 14/14/14 15/15/15
f 16/16/16 17/17/17 18/18/18
f 19/19/19 20/20/20 21/21/21
f 22/22/22 23/23/23 24/24/24
f 25/25/25 26/26/26 27/27/27
f 28/28/28 29/29/29 30/30/30
f 31/31/31 32/32/32 33/33/33
f 34/34/34 35/35/35 36/36/36
f 37/37/37 38/38/38 39/39/39
f 40/40/40 41/41/41 42/42/42
f 43/43/43 44/44/44 45/45/45
f 46/46/46 47/47/47 48/48/48
