# generated by tools/editor_import_glb.py
v 0.269976 0.256852 -0.809927 1.000000 1.000000 1.000000 1.000000
v 0.269976 0.256852 -0.809927 1.000000 1.000000 1.000000 1.000000
v 0.269976 0.256852 -0.809927 1.000000 1.000000 1.000000 1.000000
v 0.809927 0.256852 -0.269976 1.000000 1.000000 1.000000 1.000000
v 0.809927 0.256852 -0.269976 1.000000 1.000000 1.000000 1.000000
v 0.809927 0.256852 -0.269976 1.000000 1.000000 1.000000 1.000000
v 0.809927 0.256852 0.269976 1.000000 1.000000 1.000000 1.000000
v 0.809927 0.256852 0.269976 1.000000 1.000000 1.000000 1.000000
v 0.809927 0.256852 0.269976 1.000000 1.000000 1.000000 1.000000
v 0.269976 0.256852 0.809927 1.000000 1.000000 1.000000 1.000000
v 0.269976 0.256852 0.809927 1.000000 1.000000 1.000000 1.000000
v 0.269976 0.256852 0.809927 1.000000 1.000000 1.000000 1.000000
v -0.269976 0.256852 0.809927 1.000000 1.000000 1.000000 1.000000
v -0.269976 0.256852 0.809927 1.000000 1.000000 1.000000 1.000000
v -0.269976 0.256852 0.809927 1.000000 1.000000 1.000000 1.000000
v -0.809927 0.256852 0.269976 1.000000 1.000000 1.000000 1.000000
v -0.809927 0.256852 0.269976 1.000000 1.000000 1.000000 1.000000
v -0.809927 0.256852 0.269976 1.000000 1.000000 1.000000 1.000000
v -0.809927 0.256852 -0.269976 1.000000 1.000000 1.000000 1.000000
v -0.809927 0.256852 -0.269976 1.000000 1.000000 1.000000 1.000000
v -0.809927 0.256852 -0.269976 1.000000 1.000000 1.000000 1.000000
v -0.269976 0.256852 -0.809927 1.000000 1.000000 1.000000 1.000000
v -0.269976 0.256852 -0.809927 1.000000 1.000000 1.000000 1.000000
v -0.269976 0.256852 -0.809927 1.000000 1.000000 1.000000 1.000000
v 0.454520 0.256852 -0.151507 1.000000 1.000000 1.000000 1.000000
v 0.454520 0.256852 0.151507 1.000000 1.000000 1.000000 1.000000
v -0.454520 0.256852 -0.151507 1.000000 1.000000 1.000000 1.000000
v -0.454520 0.256852 0.151507 1.000000 1.000000 1.000000 1.000000
v -0.474088 0.000000 -1.422265 1.000000 1.000000 1.000000 1.000000
v -0.474088 0.000000 -1.422265 1.000000 1.000000 1.000000 1.000000
v -1.422265 0.000000 -0.474088 1.000000 1.000000 1.000000 1.000000
v -1.422265 0.000000 -0.474088 1.000000 1.000000 1.000000 1.000000
v -1.422265 0.000000 0.474088 1.000000 1.000000 1.000000 1.000000
v -1.422265 0.000000 0.474088 1.000000 1.000000 1.000000 1.000000
v -0.474088 0.000000 1.422265 1.000000 1.000000 1.000000 1.000000
v -0.474088 0.000000 1.422265 1.000000 1.000000 1.000000 1.000000
v 0.474088 0.000000 1.422265 1.000000 1.000000 1.000000 1.000000
v 0.474088 0.000000 1.422265 1.000000 1.000000 1.000000 1.000000
v 1.422265 0.000000 0.474088 1.000000 1.000000 1.000000 1.000000
v 1.422265 0.000000 0.474088 1.000000 1.000000 1.000000 1.000000
v 1.422265 0.000000 -0.474088 1.000000 1.000000 1.000000 1.000000
v 1.422265 0.000000 -0.474088 1.000000 1.000000 1.000000 1.000000
v 0.474088 0.000000 -1.422265 1.000000 1.000000 1.000000 1.000000
v 0.474088 0.000000 -1.422265 1.000000 1.000000 1.000000 1.000000
v 0.151507 0.256852 0.454520 1.000000 1.000000 1.000000 1.000000
v 0.151507 0.256852 -0.454520 1.000000 1.000000 1.000000 1.000000
v -0.151507 0.256852 0.454520 1.000000 1.000000 1.000000 1.000000
v -0.151507 0.256852 -0.454520 1.000000 1.000000 1.000000 1.000000
v -0.474088 0.146508 -1.422265 1.000000 1.000000 1.000000 1.000000
v -0.474088 0.146508 -1.422265 1.000000 1.000000 1.000000 1.000000
v -0.474088 0.146508 -1.422265 1.000000 1.000000 1.000000 1.000000
v -1.422265 0.146508 -0.474088 1.000000 1.000000 1.000000 1.000000
v -1.422265 0.146508 -0.474088 1.000000 1.000000 1.000000 1.000000
v -1.422265 0.146508 -0.474088 1.000000 1.000000 1.000000 1.000000
v -1.422265 0.146508 0.474088 1.000000 1.000000 1.000000 1.000000
v -1.422265 0.146508 0.474088 1.000000 1.000000 1.000000 1.000000
v -1.422265 0.146508 0.474088 1.000000 1.000000 1.000000 1.000000
v -0.474088 0.146508 1.422265 1.000000 1.000000 1.000000 1.000000
v -0.474088 0.146508 1.422265 1.000000 1.000000 1.000000 1.000000
v -0.474088 0.146508 1.422265 1.000000 1.000000 1.000000 1.000000
v 0.474088 0.146508 1.422265 1.000000 1.000000 1.000000 1.000000
v 0.474088 0.146508 1.422265 1.000000 1.000000 1.000000 1.000000
v 0.474088 0.146508 1.422265 1.000000 1.000000 1.000000 1.000000
v 1.422265 0.146508 0.474088 1.000000 1.000000 1.000000 1.000000
v 1.422265 0.146508 0.474088 1.000000 1.000000 1.000000 1.000000
v 1.422265 0.146508 0.474088 1.000000 1.000000 1.000000 1.000000
v 1.422265 0.146508 -0.474088 1.000000 1.000000 1.000000 1.000000
v 1.422265 0.146508 -0.474088 1.000000 1.000000 1.000000 1.000000
v 1.422265 0.146508 -0.474088 1.000000 1.000000 1.000000 1.000000
v 0.474088 0.146508 -1.422265 1.000000 1.000000 1.000000 1.000000
v 0.474088 0.146508 -1.422265 1.000000 1.000000 1.000000 1.000000
v 0.474088 0.146508 -1.422265 1.000000 1.000000 1.000000 1.000000
v -0.269976 0.146508 -0.809927 1.000000 1.000000 1.000000 1.000000
v -0.269976 0.146508 -0.809927 1.000000 1.000000 1.000000 1.000000
v -0.269976 0.146508 -0.809927 1.000000 1.000000 1.000000 1.000000
v -0.809927 0.146508 -0.269976 1.000000 1.000000 1.000000 1.000000
v -0.809927 0.146508 -0.269976 1.000000 1.000000 1.000000 1.000000
v -0.809927 0.146508 -0.269976 1.000000 1.000000 1.000000 1.000000
v -0.809927 0.146508 0.269976 1.000000 1.000000 1.000000 1.000000
v -0.809927 0.146508 0.269976 1.000000 1.000000 1.000000 1.000000
v -0.809927 0.146508 0.269976 1.000000 1.000000 1.000000 1.000000
v -0.269976 0.146508 0.809927 1.000000 1.000000 1.000000 1.000000
v -0.269976 0.146508 0.809927 1.000000 1.000000 1.000000 1.000000
v -0.269976 0.146508 0.809927 1.000000 1.000000 1.000000 1.000000
v 0.269976 0.146508 0.809927 1.000000 1.000000 1.000000 1.000000
v 0.269976 0.146508 0.809927 1.000000 1.000000 1.000000 1.000000
v 0.269976 0.146508 0.809927 1.000000 1.000000 1.000000 1.000000
v 0.809927 0.146508 0.269976 1.000000 1.000000 1.000000 1.000000
v 0.809927 0.146508 0.269976 1.000000 1.000000 1.000000 1.000000
v 0.809927 0.146508 0.269976 1.000000 1.000000 1.000000 1.000000
v 0.809927 0.146508 -0.269976 1.000000 1.000000 1.000000 1.000000
v 0.809927 0.146508 -0.269976 1.000000 1.000000 1.000000 1.000000
v 0.809927 0.146508 -0.269976 1.000000 1.000000 1.000000 1.000000
v 0.269976 0.146508 -0.809927 1.000000 1.000000 1.000000 1.000000
v 0.269976 0.146508 -0.809927 1.000000 1.000000 1.000000 1.000000
v 0.269976 0.146508 -0.809927 1.000000 1.000000 1.000000 1.000000
vt 0.599536 0.507965
vt 0.630638 0.769939
vt 0.599536 0.507965
vt 0.630638 0.656337
vt 0.599536 0.427636
vt 0.668453 0.400946
vt 0.573837 0.599536
vt 0.649067 0.406098
vt 0.668453 0.320617
vt 0.649067 0.325770
vt 0.460235 0.599536
vt 0.649067 0.325770
vt 0.649067 0.242471
vt 0.649067 0.245441
vt 0.403434 0.656337
vt 0.649067 0.162142
vt 0.649067 0.162142
vt 0.403434 0.769939
vt 0.649067 0.081814
vt 0.649067 0.081814
vt 0.460235 0.826740
vt 0.649067 0.001485
vt 0.599536 0.588294
vt 0.573837 0.826740
vt 0.580788 0.681262
vt 0.548912 0.649386
vt 0.485160 0.776890
vt 0.453284 0.745014
vt 0.621332 0.001485
vt 0.646098 0.568697
vt 0.621332 0.142545
vt 0.621332 0.142545
vt 0.621332 0.283606
vt 0.621332 0.283606
vt 0.621332 0.424666
vt 0.646097 0.001485
vt 0.646097 0.142545
vt 0.646097 0.142545
vt 0.646097 0.283606
vt 0.812571 0.599536
vt 0.646097 0.286575
vt 0.812571 0.740596
vt 0.646097 0.427636
vt 0.646097 0.427636
vt 0.485160 0.649386
vt 0.580788 0.745014
vt 0.453284 0.681262
vt 0.548912 0.776890
vt 0.599536 0.001485
vt 0.624301 0.568697
vt 0.300719 0.998515
vt 0.599536 0.142545
vt 0.599536 0.142545
vt 0.101230 0.998515
vt 0.599536 0.283606
vt 0.599536 0.283606
vt 0.001485 0.898770
vt 0.599536 0.424666
vt 0.624301 0.001485
vt 0.001485 0.699281
vt 0.624301 0.142545
vt 0.101230 0.599536
vt 0.624301 0.142545
vt 0.300719 0.599536
vt 0.624301 0.283606
vt 0.790775 0.599536
vt 0.400464 0.699281
vt 0.624301 0.286575
vt 0.790775 0.740596
vt 0.624301 0.427636
vt 0.400464 0.898770
vt 0.624301 0.427636
vt 0.665483 0.001485
vt 0.615952 0.588294
vt 0.257776 0.912627
vt 0.665483 0.081814
vt 0.665483 0.081814
vt 0.144174 0.912627
vt 0.665483 0.162142
vt 0.665483 0.162142
vt 0.087372 0.855826
vt 0.665483 0.242471
vt 0.665483 0.245441
vt 0.087372 0.742224
vt 0.665483 0.325770
vt 0.144174 0.685423
vt 0.665483 0.325770
vt 0.257776 0.685423
vt 0.665483 0.406098
vt 0.684869 0.320617
vt 0.314577 0.742224
vt 0.615952 0.427636
vt 0.684869 0.400946
vt 0.615952 0.507965
vt 0.314577 0.855826
vt 0.615952 0.507965
vn 0.000000 0.000000 -1.000000
vn 0.000000 1.000000 0.000000
vn 0.707107 0.000000 -0.707107
vn 0.000000 1.000000 0.000000
vn 0.707107 0.000000 -0.707107
vn 1.000000 0.000000 0.000000
vn 0.000000 1.000000 0.000000
vn 0.707107 0.000000 0.707107
vn 1.000000 0.000000 0.000000
vn 0.000000 0.000000 1.000000
vn 0.000000 1.000000 0.000000
vn 0.707107 0.000000 0.707107
vn -0.707107 0.000000 0.707107
vn 0.000000 0.000000 1.000000
vn 0.000000 1.000000 0.000000
vn -1.000000 0.000000 0.000000
vn -0.707107 0.000000 0.707107
vn 0.000000 1.000000 0.000000
vn -1.000000 0.000000 0.000000
vn -0.707107 0.000000 -0.707107
vn 0.000000 1.000000 0.000000
vn -0.707107 0.000000 -0.707107
vn 0.000000 0.000000 -1.000000
vn 0.000000 1.000000 0.000000
vn 0.000000 1.000000 0.000000
vn 0.000000 1.000000 0.000000
vn 0.000000 1.000000 0.000000
vn 0.000000 1.000000 0.000000
vn -0.707107 0.000000 -0.707107
vn 0.000000 0.000000 -1.000000
vn -1.000000 0.000000 0.000000
vn -0.707107 0.000000 -0.707107
vn -1.000000 0.000000 0.000000
vn -0.707107 0.000000 0.707107
vn -0.707107 0.000000 0.707107
vn 0.000000 0.000000 1.000000
vn 0.000000 0.000000 1.000000
vn 0.707107 0.000000 0.707107
vn 0.707107 0.000000 0.707107
vn 1.000000 0.000000 0.000000
vn 0.707107 0.000000 -0.707107
vn 1.000000 0.000000 0.000000
vn 0.000000 0.000000 -1.000000
vn 0.707107 0.000000 -0.707107
vn 0.000000 1.000000 0.000000
vn 0.000000 1.000000 0.000000
vn 0.000000 1.000000 0.000000
vn 0.000000 1.000000 0.000000
vn -0.707107 0.000000 -0.707107
vn 0.000000 0.000000 -1.000000
vn 0.000000 1.000000 0.000000
vn -1.000000 0.000000 0.000000
vn -0.707107 0.000000 -0.707107
vn 0.000000 1.000000 0.000000
vn -1.000000 0.000000 0.000000
vn -0.707107 0.000000 0.707107
vn 0.000000 1.000000 0.000000
vn -0.707107 0.000000 0.707107
vn 0.000000 0.000000 1.000000
vn 0.000000 1.000000 0.000000
vn 0.000000 0.000000 1.000000
vn 0.000000 1.000000 0.000000
vn 0.707107 0.000000 0.707107
vn 0.000000 1.000000 0.000000
vn 0.707107 0.000000 0.707107
vn 1.000000 0.000000 0.000000
vn 0.000000 1.000000 0.000000
vn 0.707107 0.000000 -0.707107
vn 1.000000 0.000000 0.000000
vn 0.000000 0.000000 -1.000000
vn 0.000000 1.000000 0.000000
vn 0.707107 0.000000 -0.707107
vn -0.707107 0.000000 -0.707107
vn 0.000000 0.000000 -1.000000
vn 0.000000 1.000000 0.000000
vn -1.000000 0.000000 0.000000
vn -0.707107 0.000000 -0.707107
vn 0.000000 1.000000 0.000000
vn -1.000000 0.000000 0.000000
vn -0.707107 0.000000 0.707107
vn 0.000000 1.000000 0.000000
vn -0.707107 0.000000 0.707107
vn 0.000000 0.000000 1.000000
vn 0.000000 1.000000 0.000000
vn 0.000000 0.000000 1.000000
vn 0.000000 1.000000 0.000000
vn 0.707107 0.000000 0.707107
vn 0.000000 1.000000 0.000000
vn 0.707107 0.000000 0.707107
vn 1.000000 0.000000 0.000000
vn 0.000000 1.000000 0.000000
vn 0.707107 0.000000 -0.707107
vn 1.000000 0.000000 0.000000
vn 0.000000 0.000000 -1.000000
vn 0.000000 1.000000 0.000000
vn 0.707107 0.000000 -0.707107
f 48/48/48 46/46/46 2/2/2
f 48/48/48 2/2/2 24/24/24
f 46/46/46 25/25/25 4/4/4
f 46/46/46 4/4/4 2/2/2
f 25/25/25 26/26/26 7/7/7
f 25/25/25 7/7/7 4/4/4
f 26/26/26 45/45/45 11/11/11
f 26/26/26 11/11/11 7/7/7
f 45/45/45 47/47/47 15/15/15
f 45/45/45 15/15/15 11/11/11
f 47/47/47 28/28/28 18/18/18
f 47/47/47 18/18/18 15/15/15
f 28/28/28 27/27/27 21/21/21
f 28/28/28 21/21/21 18/18/18
f 27/27/27 48/48/48 24/24/24
f 27/27/27 24/24/24 21/21/21
f 29/29/29 32/32/32 53/53/53
f 29/29/29 53/53/53 49/49/49
f 34/34/34 35/35/35 58/58/58
f 34/34/34 58/58/58 56/56/56
f 38/38/38 39/39/39 65/65/65
f 38/38/38 65/65/65 63/63/63
f 41/41/41 44/44/44 72/72/72
f 41/41/41 72/72/72 68/68/68
f 31/31/31 33/33/33 55/55/55
f 31/31/31 55/55/55 52/52/52
f 36/36/36 37/37/37 61/61/61
f 36/36/36 61/61/61 59/59/59
f 40/40/40 42/42/42 69/69/69
f 40/40/40 69/69/69 66/66/66
f 43/43/43 30/30/30 50/50/50
f 43/43/43 50/50/50 70/70/70
f 78/78/78 75/75/75 51/51/51
f 78/78/78 51/51/51 54/54/54
f 81/81/81 78/78/78 54/54/54
f 81/81/81 54/54/54 57/57/57
f 84/84/84 81/81/81 57/57/57
f 84/84/84 57/57/57 60/60/60
f 86/86/86 84/84/84 60/60/60
f 86/86/86 60/60/60 62/62/62
f 88/88/88 86/86/86 62/62/62
f 88/88/88 62/62/62 64/64/64
f 91/91/91 88/88/88 64/64/64
f 91/91/91 64/64/64 67/67/67
f 95/95/95 91/91/91 67/67/67
f 95/95/95 67/67/67 71/71/71
f 75/75/75 95/95/95 71/71/71
f 75/75/75 71/71/71 51/51/51
f 73/73/73 77/77/77 20/20/20
f 73/73/73 20/20/20 22/22/22
f 80/80/80 82/82/82 13/13/13
f 80/80/80 13/13/13 17/17/17
f 87/87/87 89/89/89 8/8/8
f 87/87/87 8/8/8 12/12/12
f 92/92/92 96/96/96 3/3/3
f 92/92/92 3/3/3 5/5/5
f 76/76/76 79/79/79 16/16/16
f 76/76/76 16/16/16 19/19/19
f 83/83/83 85/85/85 10/10/10
f 83/83/83 10/10/10 14/14/14
f 90/90/90 93/93/93 6/6/6
f 90/90/90 6/6/6 9/9/9
f 94/94/94 74/74/74 23/23/23
f 94/94/94 23/23/23 1/1/1
