# generated by the editor's model importer
v 2.585210 0.272465 -1.020954 1.000000 1.000000 1.000000 1.000000
v 2.526239 0.103519 -0.250952 1.000000 1.000000 1.000000 1.000000
v 1.941370 1.463097 -0.891207 1.000000 1.000000 1.000000 1.000000
v 2.123250 2.911093 -0.398260 1.000000 1.000000 1.000000 1.000000
v 1.941370 1.463097 -0.891207 1.000000 1.000000 1.000000 1.000000
v 1.943287 1.248436 0.116931 1.000000 1.000000 1.000000 1.000000
v 2.526239 0.103519 -0.250952 1.000000 1.000000 1.000000 1.000000
v 1.943287 1.248436 0.116931 1.000000 1.000000 1.000000 1.000000
v 1.941370 1.463097 -0.891207 1.000000 1.000000 1.000000 1.000000
v 2.123250 2.911093 -0.398260 1.000000 1.000000 1.000000 1.000000
v 2.024076 3.229450 0.475237 1.000000 1.000000 1.000000 1.000000
v 3.977120 3.240194 -0.021574 1.000000 1.000000 1.000000 1.000000
v 2.024076 3.229450 0.475237 1.000000 1.000000 1.000000 1.000000
v 2.123250 2.911093 -0.398260 1.000000 1.000000 1.000000 1.000000
v 1.943287 1.248436 0.116931 1.000000 1.000000 1.000000 1.000000
v 2.425996 1.099201 1.004269 1.000000 1.000000 1.000000 1.000000
v 1.943287 1.248436 0.116931 1.000000 1.000000 1.000000 1.000000
v 2.526239 0.103519 -0.250952 1.000000 1.000000 1.000000 1.000000
v 2.948066 0.000000 0.398261 1.000000 1.000000 1.000000 1.000000
v 2.425996 1.099201 1.004269 1.000000 1.000000 1.000000 1.000000
v 2.526239 0.103519 -0.250952 1.000000 1.000000 1.000000 1.000000
v 3.977120 3.240194 -0.021574 1.000000 1.000000 1.000000 1.000000
v 2.024076 3.229450 0.475237 1.000000 1.000000 1.000000 1.000000
v 2.486106 2.638630 1.020954 1.000000 1.000000 1.000000 1.000000
v 2.486106 2.638630 1.020954 1.000000 1.000000 1.000000 1.000000
v 2.024076 3.229450 0.475237 1.000000 1.000000 1.000000 1.000000
v 1.943287 1.248436 0.116931 1.000000 1.000000 1.000000 1.000000
v 2.425996 1.099201 1.004269 1.000000 1.000000 1.000000 1.000000
v 2.486106 2.638630 1.020954 1.000000 1.000000 1.000000 1.000000
v 1.943287 1.248436 0.116931 1.000000 1.000000 1.000000 1.000000
v -2.585210 0.272465 -1.020954 1.000000 1.000000 1.000000 1.000000
v -1.941370 1.463097 -0.891207 1.000000 1.000000 1.000000 1.000000
v -2.526239 0.103519 -0.250952 1.000000 1.000000 1.000000 1.000000
v -2.123250 2.911093 -0.398260 1.000000 1.000000 1.000000 1.000000
v -1.943287 1.248436 0.116931 1.000000 1.000000 1.000000 1.000000
v -1.941370 1.463097 -0.891207 1.000000 1.000000 1.000000 1.000000
v -2.526239 0.103519 -0.250952 1.000000 1.000000 1.000000 1.000000
v -1.941370 1.463097 -0.891207 1.000000 1.000000 1.000000 1.000000
v -1.943287 1.248436 0.116931 1.000000 1.000000 1.000000 1.000000
v -2.024076 3.229450 0.475237 1.000000 1.000000 1.000000 1.000000
v -1.943287 1.248436 0.116931 1.000000 1.000000 1.000000 1.000000
v -2.123250 2.911093 -0.398260 1.000000 1.000000 1.000000 1.000000
v -2.123250 2.911093 -0.398260 1.000000 1.000000 1.000000 1.000000
v -3.977120 3.240194 -0.021574 1.000000 1.000000 1.000000 1.000000
v -2.024076 3.229450 0.475237 1.000000 1.000000 1.000000 1.000000
v -2.425996 1.099201 1.004269 1.000000 1.000000 1.000000 1.000000
v -2.526239 0.103519 -0.250952 1.000000 1.000000 1.000000 1.000000
v -1.943287 1.248436 0.116931 1.000000 1.000000 1.000000 1.000000
v -2.486106 2.638630 1.020954 1.000000 1.000000 1.000000 1.000000
v -1.943287 1.248436 0.116931 1.000000 1.000000 1.000000 1.000000
v -2.024076 3.229450 0.475237 1.000000 1.000000 1.000000 1.000000
v -2.948066 0.000000 0.398261 1.000000 1.000000 1.000000 1.000000
v -2.526239 0.103519 -0.250952 1.000000 1.000000 1.000000 1.000000
v -2.425996 1.099201 1.004269 1.000000 1.000000 1.000000 1.000000
v -2.425996 1.099201 1.004269 1.000000 1.000000 1.000000 1.000000
v -1.943287 1.248436 0.116931 1.000000 1.000000 1.000000 1.000000
v -2.486106 2.638630 1.020954 1.000000 1.000000 1.000000 1.000000
v -3.977120 3.240194 -0.021574 1.000000 1.000000 1.000000 1.000000
v -2.486106 2.638630 1.020954 1.000000 1.000000 1.000000 1.000000
v -2.024076 3.229450 0.475237 1.000000 1.000000 1.000000 1.000000
vt 0.853500 0.451200
vt 0.880900 0.451200
vt 0.845700 0.502000
vt 0.853500 0.560500
vt 0.845700 0.502000
vt 0.880900 0.502000
vt 0.880900 0.451200
vt 0.880900 0.502000
vt 0.845700 0.502000
vt 0.009800 0.439500
vt 0.002000 0.416000
vt 0.072300 0.416000
vt 0.880900 0.576200
vt 0.853500 0.560500
vt 0.880900 0.502000
vt 0.919900 0.502000
vt 0.880900 0.502000
vt 0.880900 0.451200
vt 0.908200 0.451200
vt 0.919900 0.502000
vt 0.880900 0.451200
vt 0.072300 0.416000
vt 0.002000 0.416000
vt 0.009800 0.388700
vt 0.908200 0.560500
vt 0.880900 0.576200
vt 0.880900 0.502000
vt 0.919900 0.502000
vt 0.908200 0.560500
vt 0.880900 0.502000
vt 0.853500 0.451200
vt 0.845700 0.502000
vt 0.880900 0.451200
vt 0.853500 0.560500
vt 0.880900 0.502000
vt 0.845700 0.502000
vt 0.880900 0.451200
vt 0.845700 0.502000
vt 0.880900 0.502000
vt 0.880900 0.576200
vt 0.880900 0.502000
vt 0.853500 0.560500
vt 0.009800 0.439500
vt 0.072300 0.416000
vt 0.002000 0.416000
vt 0.919900 0.502000
vt 0.880900 0.451200
vt 0.880900 0.502000
vt 0.908200 0.560500
vt 0.880900 0.502000
vt 0.880900 0.576200
vt 0.908200 0.451200
vt 0.880900 0.451200
vt 0.919900 0.502000
vt 0.919900 0.502000
vt 0.880900 0.502000
vt 0.908200 0.560500
vt 0.072300 0.416000
vt 0.009800 0.388700
vt 0.002000 0.416000
vn -0.874786 -0.454893 -0.166797
vn -0.874786 -0.454893 -0.166797
vn -0.874786 -0.454893 -0.166797
vn -0.992930 0.115704 0.026501
vn -0.992930 0.115704 0.026501
vn -0.992930 0.115704 0.026501
vn -0.898898 -0.428899 -0.089600
vn -0.898898 -0.428899 -0.089600
vn -0.898898 -0.428899 -0.089600
vn -0.094199 0.931890 -0.350296
vn -0.094199 0.931890 -0.350296
vn -0.094199 0.931890 -0.350296
vn -0.988595 0.064900 -0.135899
vn -0.988595 0.064900 -0.135899
vn -0.988595 0.064900 -0.135899
vn -0.788070 -0.511381 0.342687
vn -0.788070 -0.511381 0.342687
vn -0.788070 -0.511381 0.342687
vn -0.732276 -0.560782 0.386387
vn -0.732276 -0.560782 0.386387
vn -0.732276 -0.560782 0.386387
vn 0.163297 0.735288 0.657789
vn 0.163297 0.735288 0.657789
vn 0.163297 0.735288 0.657789
vn -0.799693 -0.075099 0.595694
vn -0.799693 -0.075099 0.595694
vn -0.799693 -0.075099 0.595694
vn -0.876016 0.029001 0.481409
vn -0.876016 0.029001 0.481409
vn -0.876016 0.029001 0.481409
vn 0.874786 -0.454893 -0.166797
vn 0.874786 -0.454893 -0.166797
vn 0.874786 -0.454893 -0.166797
vn 0.992930 0.115704 0.026501
vn 0.992930 0.115704 0.026501
vn 0.992930 0.115704 0.026501
vn 0.898898 -0.428899 -0.089600
vn 0.898898 -0.428899 -0.089600
vn 0.898898 -0.428899 -0.089600
vn 0.988595 0.064900 -0.135899
vn 0.988595 0.064900 -0.135899
vn 0.988595 0.064900 -0.135899
vn 0.094199 0.931890 -0.350296
vn 0.094199 0.931890 -0.350296
vn 0.094199 0.931890 -0.350296
vn 0.788070 -0.511381 0.342687
vn 0.788070 -0.511381 0.342687
vn 0.788070 -0.511381 0.342687
vn 0.799693 -0.075099 0.595694
vn 0.799693 -0.075099 0.595694
vn 0.799693 -0.075099 0.595694
vn 0.732276 -0.560782 0.386387
vn 0.732276 -0.560782 0.386387
vn 0.732276 -0.560782 0.386387
vn 0.876016 0.029001 0.481409
vn 0.876016 0.029001 0.481409
vn 0.876016 0.029001 0.481409
vn -0.163297 0.735288 0.657789
vn -0.163297 0.735288 0.657789
vn -0.163297 0.735288 0.657789
f 1/1/1 2/2/2 3/3/3
f 4/4/4 5/5/5 6/6/6
f 7/7/7 8/8/8 9/9/9
f 10/10/10 11/11/11 12/12/12
f 13/13/13 14/14/14 15/15/15
f 16/16/16 17/17/17 18/18/18
f 19/19/19 20/20/20 21/21/21
f 22/22/22 23/23/23 24/24/24
f 25/25/25 26/26/26 27/27/27
f 28/28/28 29/29/29 30/30/30
f 31/31/31 32/32/32 33/33/33
f 34/34/34 35/35/35 36/36/36
f 37/37/37 38/38/38 39/39/39
f 40/40/40 41/41/41 42/42/42
f 43/43/43 44/44/44 45/45/45
f 46/46/46 47/47/47 48/48/48
f 49/49/49 50/50/50 51/51/51
f 52/52/52 53/53/53 54/54/54
f 55/55/55 56/56/56 57/57/57
f 58/58/58 59/59/59 60/60/60
