# generated by the editor's model importer
v 5.162665 15.196047 -2.469355 1.000000 1.000000 1.000000 1.000000
v 4.743410 14.999138 -2.309954 1.000000 1.000000 1.000000 1.000000
v 4.269116 15.971576 -2.049932 1.000000 1.000000 1.000000 1.000000
v 4.859491 16.248857 -2.274414 1.000000 1.000000 1.000000 1.000000
v 4.657684 16.621775 -2.652457 1.000000 1.000000 1.000000 1.000000
v 5.162665 15.196047 -2.469355 1.000000 1.000000 1.000000 1.000000
v 4.859491 16.248857 -2.274414 1.000000 1.000000 1.000000 1.000000
v 4.657684 16.621775 -2.652457 1.000000 1.000000 1.000000 1.000000
v 4.859491 16.248857 -2.274414 1.000000 1.000000 1.000000 1.000000
v 5.136786 16.631674 -1.071634 1.000000 1.000000 1.000000 1.000000
v 4.863714 17.013388 -1.657090 1.000000 1.000000 1.000000 1.000000
v 4.269116 15.971576 -2.049932 1.000000 1.000000 1.000000 1.000000
v 4.743410 14.999138 -2.309954 1.000000 1.000000 1.000000 1.000000
v 3.896173 16.264124 -2.362909 1.000000 1.000000 1.000000 1.000000
v 5.813792 13.701173 -0.569268 1.000000 1.000000 1.000000 1.000000
v 6.624926 14.050254 -0.758759 1.000000 1.000000 1.000000 1.000000
v 6.572910 13.476753 -1.599202 1.000000 1.000000 1.000000 1.000000
v 5.769930 13.217633 -1.277853 1.000000 1.000000 1.000000 1.000000
v 4.859491 16.248857 -2.274414 1.000000 1.000000 1.000000 1.000000
v 4.269116 15.971576 -2.049932 1.000000 1.000000 1.000000 1.000000
v 4.546402 16.354395 -0.847152 1.000000 1.000000 1.000000 1.000000
v 5.136786 16.631674 -1.071634 1.000000 1.000000 1.000000 1.000000
v 4.561498 19.053162 -2.064231 1.000000 1.000000 1.000000 1.000000
v 6.511530 18.253662 -2.190536 1.000000 1.000000 1.000000 1.000000
v 4.802593 18.872129 -1.121248 1.000000 1.000000 1.000000 1.000000
v 4.085106 16.647699 -1.361041 1.000000 1.000000 1.000000 1.000000
v 4.546402 16.354395 -0.847152 1.000000 1.000000 1.000000 1.000000
v 4.269116 15.971576 -2.049932 1.000000 1.000000 1.000000 1.000000
v 3.896173 16.264124 -2.362909 1.000000 1.000000 1.000000 1.000000
v 4.193798 16.905264 -2.328539 1.000000 1.000000 1.000000 1.000000
v 4.713976 16.992001 -1.972499 1.000000 1.000000 1.000000 1.000000
v 4.696435 16.846056 -1.481582 1.000000 1.000000 1.000000 1.000000
v 0.607600 12.395722 -2.071482 1.000000 1.000000 1.000000 1.000000
v 1.907678 10.042500 -3.176277 1.000000 1.000000 1.000000 1.000000
v 2.532719 10.433224 -2.958828 1.000000 1.000000 1.000000 1.000000
v 6.583047 13.718698 -1.323678 1.000000 1.000000 1.000000 1.000000
v 6.496763 13.843181 -0.689996 1.000000 1.000000 1.000000 1.000000
v 6.086388 13.382646 -1.509147 1.000000 1.000000 1.000000 1.000000
v 4.802593 18.872129 -1.121248 1.000000 1.000000 1.000000 1.000000
v 3.859941 19.499117 -0.655494 1.000000 1.000000 1.000000 1.000000
v 3.570141 19.716722 -1.788979 1.000000 1.000000 1.000000 1.000000
v 4.561498 19.053162 -2.064231 1.000000 1.000000 1.000000 1.000000
v 4.158112 16.624447 -1.386419 1.000000 1.000000 1.000000 1.000000
v 3.901919 16.657707 -1.828946 1.000000 1.000000 1.000000 1.000000
v -0.792477 19.712046 -2.527690 1.000000 1.000000 1.000000 1.000000
v 0.107576 19.045101 -3.631748 1.000000 1.000000 1.000000 1.000000
v 1.007629 19.712046 -2.527690 1.000000 1.000000 1.000000 1.000000
v 3.659259 19.289850 -2.054290 1.000000 1.000000 1.000000 1.000000
v 4.820584 20.846155 -1.738330 1.000000 1.000000 1.000000 1.000000
v 3.911286 20.087915 -1.178773 1.000000 1.000000 1.000000 1.000000
v 6.034732 13.626179 -0.514343 1.000000 1.000000 1.000000 1.000000
v 5.735980 13.320861 -1.001612 1.000000 1.000000 1.000000 1.000000
v 3.859941 19.499117 -0.655494 1.000000 1.000000 1.000000 1.000000
v 4.211835 20.553164 -0.858748 1.000000 1.000000 1.000000 1.000000
v 4.068150 20.661051 -1.420728 1.000000 1.000000 1.000000 1.000000
v 3.570141 19.716722 -1.788979 1.000000 1.000000 1.000000 1.000000
v 2.692786 19.162653 -1.831762 1.000000 1.000000 1.000000 1.000000
v 3.659259 19.289850 -2.054290 1.000000 1.000000 1.000000 1.000000
v 3.911286 20.087915 -1.178773 1.000000 1.000000 1.000000 1.000000
v 4.820584 20.846155 -1.738330 1.000000 1.000000 1.000000 1.000000
v 5.037324 20.683409 -0.890619 1.000000 1.000000 1.000000 1.000000
v 3.911286 20.087915 -1.178773 1.000000 1.000000 1.000000 1.000000
v 4.549814 0.719428 -1.871934 1.000000 1.000000 1.000000 1.000000
v 4.662844 0.010051 0.044941 1.000000 1.000000 1.000000 1.000000
v 4.449444 1.018719 -1.856185 1.000000 1.000000 1.000000 1.000000
v 4.166756 2.410149 -1.060213 1.000000 1.000000 1.000000 1.000000
v 4.555815 1.270257 -1.290741 1.000000 1.000000 1.000000 1.000000
v 4.050281 1.206732 -1.309202 1.000000 1.000000 1.000000 1.000000
v -0.392458 17.321140 -2.384977 1.000000 1.000000 1.000000 1.000000
v -0.942487 18.122227 -1.689818 1.000000 1.000000 1.000000 1.000000
v 1.157639 18.122227 -1.689818 1.000000 1.000000 1.000000 1.000000
v 0.607610 17.321140 -2.384977 1.000000 1.000000 1.000000 1.000000
v 3.911286 20.087915 -1.178773 1.000000 1.000000 1.000000 1.000000
v 5.037324 20.683409 -0.890619 1.000000 1.000000 1.000000 1.000000
v 4.022114 19.017385 -0.635075 1.000000 1.000000 1.000000 1.000000
v 1.107639 19.063461 -2.078240 1.000000 1.000000 1.000000 1.000000
v 0.107576 18.211533 -2.894319 1.000000 1.000000 1.000000 1.000000
v -0.892487 19.063461 -2.078240 1.000000 1.000000 1.000000 1.000000
v 4.050281 1.206732 -1.309202 1.000000 1.000000 1.000000 1.000000
v 4.291466 1.233441 -0.431467 1.000000 1.000000 1.000000 1.000000
v 3.129645 1.059415 -0.242230 1.000000 1.000000 1.000000 1.000000
v 3.083735 1.061955 -1.151795 1.000000 1.000000 1.000000 1.000000
v 4.050281 1.206732 -1.309202 1.000000 1.000000 1.000000 1.000000
v 4.555815 1.270257 -1.290741 1.000000 1.000000 1.000000 1.000000
v 4.291466 1.233441 -0.431467 1.000000 1.000000 1.000000 1.000000
v 2.532719 10.433224 -2.958828 1.000000 1.000000 1.000000 1.000000
v 2.007687 15.925551 -0.414260 1.000000 1.000000 1.000000 1.000000
v 0.607600 12.395722 -2.071482 1.000000 1.000000 1.000000 1.000000
v -2.317567 10.433224 -2.958828 1.000000 1.000000 1.000000 1.000000
v -1.692526 10.042500 -3.176277 1.000000 1.000000 1.000000 1.000000
v -0.392448 12.395722 -2.071482 1.000000 1.000000 1.000000 1.000000
v 3.055642 18.890188 -0.412547 1.000000 1.000000 1.000000 1.000000
v 2.692786 19.162653 -1.831762 1.000000 1.000000 1.000000 1.000000
v 3.911286 20.087915 -1.178773 1.000000 1.000000 1.000000 1.000000
v -1.192497 17.979843 -1.889858 1.000000 1.000000 1.000000 1.000000
v 0.107576 17.179184 -2.410391 1.000000 1.000000 1.000000 1.000000
v 1.407649 17.979843 -1.889858 1.000000 1.000000 1.000000 1.000000
v 4.662844 0.010051 0.044941 1.000000 1.000000 1.000000 1.000000
v 4.297966 1.317724 -0.316273 1.000000 1.000000 1.000000 1.000000
v 4.449444 1.018719 -1.856185 1.000000 1.000000 1.000000 1.000000
v 3.055642 18.890188 -0.412547 1.000000 1.000000 1.000000 1.000000
v 2.633815 18.993708 -1.061760 1.000000 1.000000 1.000000 1.000000
v 2.692786 19.162653 -1.831762 1.000000 1.000000 1.000000 1.000000
v 3.911286 20.087915 -1.178773 1.000000 1.000000 1.000000 1.000000
v 4.022114 19.017385 -0.635075 1.000000 1.000000 1.000000 1.000000
v 3.055642 18.890188 -0.412547 1.000000 1.000000 1.000000 1.000000
v 1.407649 17.979843 -1.889858 1.000000 1.000000 1.000000 1.000000
v 1.407654 17.086008 -1.835964 1.000000 1.000000 1.000000 1.000000
v 2.207698 16.605541 0.074466 1.000000 1.000000 1.000000 1.000000
v 3.083735 1.061955 -1.151795 1.000000 1.000000 1.000000 1.000000
v 2.612943 0.979240 -0.974285 1.000000 1.000000 1.000000 1.000000
v 2.712043 2.192251 -0.823268 1.000000 1.000000 1.000000 1.000000
v 2.854512 9.468591 -1.677417 1.000000 1.000000 1.000000 1.000000
v 3.516400 9.445764 -0.777133 1.000000 1.000000 1.000000 1.000000
v 3.553750 9.002539 -0.010763 1.000000 1.000000 1.000000 1.000000
v 1.007629 19.712046 -2.527690 1.000000 1.000000 1.000000 1.000000
v 0.807615 19.517326 0.004797 1.000000 1.000000 1.000000 1.000000
v -0.592463 19.517326 0.004797 1.000000 1.000000 1.000000 1.000000
v -0.792477 19.712046 -2.527690 1.000000 1.000000 1.000000 1.000000
v 4.297966 1.317724 -0.316273 1.000000 1.000000 1.000000 1.000000
v 4.662844 0.010051 0.044941 1.000000 1.000000 1.000000 1.000000
v 2.896513 0.000000 0.332143 1.000000 1.000000 1.000000 1.000000
v 3.119390 1.310743 -0.121733 1.000000 1.000000 1.000000 1.000000
v 2.896513 0.000000 0.332143 1.000000 1.000000 1.000000 1.000000
v 2.388763 0.707130 -1.520547 1.000000 1.000000 1.000000 1.000000
v 2.485747 1.007545 -1.536905 1.000000 1.000000 1.000000 1.000000
v 3.129645 1.059415 -0.242230 1.000000 1.000000 1.000000 1.000000
v 2.612943 0.979240 -0.974285 1.000000 1.000000 1.000000 1.000000
v 3.083735 1.061955 -1.151795 1.000000 1.000000 1.000000 1.000000
v 2.004224 8.357359 -1.379362 1.000000 1.000000 1.000000 1.000000
v 2.873154 8.487513 -1.520889 1.000000 1.000000 1.000000 1.000000
v 2.839436 7.832223 0.502240 1.000000 1.000000 1.000000 1.000000
v -0.392458 17.321140 -2.384977 1.000000 1.000000 1.000000 1.000000
v 0.607610 17.321140 -2.384977 1.000000 1.000000 1.000000 1.000000
v 1.107630 15.651442 0.089178 1.000000 1.000000 1.000000 1.000000
v -0.892478 15.651442 0.089178 1.000000 1.000000 1.000000 1.000000
v 0.607610 17.321140 -2.384977 1.000000 1.000000 1.000000 1.000000
v 1.157639 18.122227 -1.689818 1.000000 1.000000 1.000000 1.000000
v 1.507658 17.636581 -0.051420 1.000000 1.000000 1.000000 1.000000
v 1.007629 19.712046 -2.527690 1.000000 1.000000 1.000000 1.000000
v 1.307644 20.256330 -1.132156 1.000000 1.000000 1.000000 1.000000
v 0.807615 19.517326 0.004797 1.000000 1.000000 1.000000 1.000000
v 1.800775 10.018801 0.543668 1.000000 1.000000 1.000000 1.000000
v 1.503498 10.457074 -0.880842 1.000000 1.000000 1.000000 1.000000
v 2.870348 10.661811 -1.103464 1.000000 1.000000 1.000000 1.000000
v 3.167620 10.223536 0.321030 1.000000 1.000000 1.000000 1.000000
v -4.947513 15.196047 -2.469355 1.000000 1.000000 1.000000 1.000000
v -4.644339 16.248857 -2.274414 1.000000 1.000000 1.000000 1.000000
v -4.053964 15.971576 -2.049932 1.000000 1.000000 1.000000 1.000000
v -4.528257 14.999138 -2.309954 1.000000 1.000000 1.000000 1.000000
v 1.207644 20.365217 -1.594098 1.000000 1.000000 1.000000 1.000000
v 1.107639 19.063461 -2.078240 1.000000 1.000000 1.000000 1.000000
v 1.307644 19.617170 1.113923 1.000000 1.000000 1.000000 1.000000
v 3.119390 1.310743 -0.121733 1.000000 1.000000 1.000000 1.000000
v 2.896513 0.000000 0.332143 1.000000 1.000000 1.000000 1.000000
v 2.485747 1.007545 -1.536905 1.000000 1.000000 1.000000 1.000000
v 4.291466 1.233441 -0.431467 1.000000 1.000000 1.000000 1.000000
v 3.776065 1.472284 0.397067 1.000000 1.000000 1.000000 1.000000
v 3.129645 1.059415 -0.242230 1.000000 1.000000 1.000000 1.000000
v 2.802053 10.105080 0.474285 1.000000 1.000000 1.000000 1.000000
v 2.682669 10.582196 -1.080011 1.000000 1.000000 1.000000 1.000000
v 1.716114 10.437419 -0.922575 1.000000 1.000000 1.000000 1.000000
v 2.226025 10.018798 0.568104 1.000000 1.000000 1.000000 1.000000
v -1.792535 15.925551 -0.414260 1.000000 1.000000 1.000000 1.000000
v -2.317567 10.433224 -2.958828 1.000000 1.000000 1.000000 1.000000
v -0.392448 12.395722 -2.071482 1.000000 1.000000 1.000000 1.000000
v 3.119390 1.310743 -0.121733 1.000000 1.000000 1.000000 1.000000
v 3.797184 1.714308 0.384905 1.000000 1.000000 1.000000 1.000000
v 4.297966 1.317724 -0.316273 1.000000 1.000000 1.000000 1.000000
v 2.007687 15.925551 -0.414260 1.000000 1.000000 1.000000 1.000000
v 1.207634 15.488175 0.417071 1.000000 1.000000 1.000000 1.000000
v 0.607600 12.395722 -2.071482 1.000000 1.000000 1.000000 1.000000
v 0.607610 17.321140 -2.384977 1.000000 1.000000 1.000000 1.000000
v 1.507658 17.636581 -0.051420 1.000000 1.000000 1.000000 1.000000
v 1.107630 15.651442 0.089178 1.000000 1.000000 1.000000 1.000000
v -1.292506 17.636581 -0.051420 1.000000 1.000000 1.000000 1.000000
v -0.942487 18.122227 -1.689818 1.000000 1.000000 1.000000 1.000000
v -0.392458 17.321140 -2.384977 1.000000 1.000000 1.000000 1.000000
v -0.592463 19.517326 0.004797 1.000000 1.000000 1.000000 1.000000
v -1.092492 20.256330 -1.132156 1.000000 1.000000 1.000000 1.000000
v -0.792477 19.712046 -2.527690 1.000000 1.000000 1.000000 1.000000
v -4.442532 16.621775 -2.652457 1.000000 1.000000 1.000000 1.000000
v -4.644339 16.248857 -2.274414 1.000000 1.000000 1.000000 1.000000
v -4.947513 15.196047 -2.469355 1.000000 1.000000 1.000000 1.000000
v -4.053964 15.971576 -2.049932 1.000000 1.000000 1.000000 1.000000
v -3.681021 16.264124 -2.362909 1.000000 1.000000 1.000000 1.000000
v -4.528257 14.999138 -2.309954 1.000000 1.000000 1.000000 1.000000
v 1.307644 19.617170 1.113923 1.000000 1.000000 1.000000 1.000000
v 1.107639 19.063461 -2.078240 1.000000 1.000000 1.000000 1.000000
v -0.892487 19.063461 -2.078240 1.000000 1.000000 1.000000 1.000000
v -1.092492 19.617170 1.113923 1.000000 1.000000 1.000000 1.000000
v 1.708513 8.726145 0.289784 1.000000 1.000000 1.000000 1.000000
v 1.378262 9.125498 -0.428876 1.000000 1.000000 1.000000 1.000000
v 1.692686 9.294565 -1.488195 1.000000 1.000000 1.000000 1.000000
v -4.442532 16.621775 -2.652457 1.000000 1.000000 1.000000 1.000000
v -4.648561 17.013388 -1.657090 1.000000 1.000000 1.000000 1.000000
v -4.921634 16.631674 -1.071634 1.000000 1.000000 1.000000 1.000000
v -4.644339 16.248857 -2.274414 1.000000 1.000000 1.000000 1.000000
v -3.869954 16.647699 -1.361041 1.000000 1.000000 1.000000 1.000000
v -3.681021 16.264124 -2.362909 1.000000 1.000000 1.000000 1.000000
v -4.053964 15.971576 -2.049932 1.000000 1.000000 1.000000 1.000000
v -4.331249 16.354395 -0.847152 1.000000 1.000000 1.000000 1.000000
v -1.992546 16.605541 0.074466 1.000000 1.000000 1.000000 1.000000
v -1.192502 17.086008 -1.835964 1.000000 1.000000 1.000000 1.000000
v -1.192497 17.979843 -1.889858 1.000000 1.000000 1.000000 1.000000
v 3.553750 9.002539 -0.010763 1.000000 1.000000 1.000000 1.000000
v 3.667030 7.912105 0.312179 1.000000 1.000000 1.000000 1.000000
v 2.839436 7.832223 0.502240 1.000000 1.000000 1.000000 1.000000
v -3.686767 16.657707 -1.828946 1.000000 1.000000 1.000000 1.000000
v -3.942959 16.624447 -1.386419 1.000000 1.000000 1.000000 1.000000
v -3.978645 16.905264 -2.328539 1.000000 1.000000 1.000000 1.000000
v -2.477634 19.162653 -1.831762 1.000000 1.000000 1.000000 1.000000
v -3.696134 20.087915 -1.178773 1.000000 1.000000 1.000000 1.000000
v -3.444107 19.289850 -2.054290 1.000000 1.000000 1.000000 1.000000
v 1.607668 18.608444 1.441517 1.000000 1.000000 1.000000 1.000000
v 1.407649 17.979843 -1.889858 1.000000 1.000000 1.000000 1.000000
v 2.207698 16.605541 0.074466 1.000000 1.000000 1.000000 1.000000
v 1.107639 16.617027 1.818033 1.000000 1.000000 1.000000 1.000000
v 1.707668 17.731577 -0.734714 1.000000 1.000000 1.000000 1.000000
v 0.707610 16.974571 -1.718957 1.000000 1.000000 1.000000 1.000000
v -4.644339 16.248857 -2.274414 1.000000 1.000000 1.000000 1.000000
v -4.921634 16.631674 -1.071634 1.000000 1.000000 1.000000 1.000000
v -4.331249 16.354395 -0.847152 1.000000 1.000000 1.000000 1.000000
v -4.053964 15.971576 -2.049932 1.000000 1.000000 1.000000 1.000000
v -4.587440 18.872129 -1.121248 1.000000 1.000000 1.000000 1.000000
v -4.346345 19.053162 -2.064231 1.000000 1.000000 1.000000 1.000000
v -3.354989 19.716722 -1.788979 1.000000 1.000000 1.000000 1.000000
v -3.644789 19.499117 -0.655494 1.000000 1.000000 1.000000 1.000000
v -3.644789 19.499117 -0.655494 1.000000 1.000000 1.000000 1.000000
v -3.354989 19.716722 -1.788979 1.000000 1.000000 1.000000 1.000000
v -3.852997 20.661051 -1.420728 1.000000 1.000000 1.000000 1.000000
v -3.996683 20.553164 -0.858748 1.000000 1.000000 1.000000 1.000000
v -4.481283 16.846056 -1.481582 1.000000 1.000000 1.000000 1.000000
v -4.498824 16.992001 -1.972499 1.000000 1.000000 1.000000 1.000000
v -3.444107 19.289850 -2.054290 1.000000 1.000000 1.000000 1.000000
v -3.696134 20.087915 -1.178773 1.000000 1.000000 1.000000 1.000000
v -4.605432 20.846155 -1.738330 1.000000 1.000000 1.000000 1.000000
v -0.892487 19.063461 -2.078240 1.000000 1.000000 1.000000 1.000000
v -0.992492 20.365217 -1.594098 1.000000 1.000000 1.000000 1.000000
v -1.092492 19.617170 1.113923 1.000000 1.000000 1.000000 1.000000
v 1.307644 20.705305 0.366508 1.000000 1.000000 1.000000 1.000000
v 1.207644 20.365217 -1.594098 1.000000 1.000000 1.000000 1.000000
v 1.307644 19.617170 1.113923 1.000000 1.000000 1.000000 1.000000
v 1.607668 18.608444 1.441517 1.000000 1.000000 1.000000 1.000000
v 1.707669 17.337839 0.200874 1.000000 1.000000 1.000000 1.000000
v 1.407654 17.996933 -1.791338 1.000000 1.000000 1.000000 1.000000
v 2.839436 7.832223 0.502240 1.000000 1.000000 1.000000 1.000000
v 3.667030 7.912105 0.312179 1.000000 1.000000 1.000000 1.000000
v 3.232030 7.421303 0.963916 1.000000 1.000000 1.000000 1.000000
v -0.892478 15.651442 0.089178 1.000000 1.000000 1.000000 1.000000
v -1.292506 17.636581 -0.051420 1.000000 1.000000 1.000000 1.000000
v -0.392458 17.321140 -2.384977 1.000000 1.000000 1.000000 1.000000
v -2.840490 18.890188 -0.412547 1.000000 1.000000 1.000000 1.000000
v -2.477634 19.162653 -1.831762 1.000000 1.000000 1.000000 1.000000
v -2.418663 18.993708 -1.061760 1.000000 1.000000 1.000000 1.000000
v 1.407654 17.996933 -1.791338 1.000000 1.000000 1.000000 1.000000
v 0.107576 17.469555 2.715332 1.000000 1.000000 1.000000 1.000000
v -1.192502 17.996933 -1.791338 1.000000 1.000000 1.000000 1.000000
v 4.662844 0.010051 0.044941 1.000000 1.000000 1.000000 1.000000
v 4.568874 0.009067 2.581357 1.000000 1.000000 1.000000 1.000000
v 3.789315 0.004631 2.708112 1.000000 1.000000 1.000000 1.000000
v 2.896513 0.000000 0.332143 1.000000 1.000000 1.000000 1.000000
v 2.017046 7.664960 0.580940 1.000000 1.000000 1.000000 1.000000
v 1.708513 8.726145 0.289784 1.000000 1.000000 1.000000 1.000000
v 2.839436 7.832223 0.502240 1.000000 1.000000 1.000000 1.000000
v -0.992482 15.488175 0.417071 1.000000 1.000000 1.000000 1.000000
v -1.792535 15.925551 -0.414260 1.000000 1.000000 1.000000 1.000000
v -0.392448 12.395722 -2.071482 1.000000 1.000000 1.000000 1.000000
v -4.346345 19.053162 -2.064231 1.000000 1.000000 1.000000 1.000000
v -4.587440 18.872129 -1.121248 1.000000 1.000000 1.000000 1.000000
v -6.296378 18.253662 -2.190536 1.000000 1.000000 1.000000 1.000000
v -2.840490 18.890188 -0.412547 1.000000 1.000000 1.000000 1.000000
v -3.696134 20.087915 -1.178773 1.000000 1.000000 1.000000 1.000000
v -2.477634 19.162653 -1.831762 1.000000 1.000000 1.000000 1.000000
v 2.831999 8.521570 1.090586 1.000000 1.000000 1.000000 1.000000
v 2.839436 7.832223 0.502240 1.000000 1.000000 1.000000 1.000000
v 3.232030 7.421303 0.963916 1.000000 1.000000 1.000000 1.000000
v 2.753625 7.349645 1.041841 1.000000 1.000000 1.000000 1.000000
v 2.017046 7.664960 0.580940 1.000000 1.000000 1.000000 1.000000
v 2.839436 7.832223 0.502240 1.000000 1.000000 1.000000 1.000000
v -2.681361 0.000000 0.332143 1.000000 1.000000 1.000000 1.000000
v -2.270595 1.007545 -1.536905 1.000000 1.000000 1.000000 1.000000
v -2.173611 0.707130 -1.520547 1.000000 1.000000 1.000000 1.000000
v -3.835128 1.206732 -1.309202 1.000000 1.000000 1.000000 1.000000
v -2.868582 1.061955 -1.151795 1.000000 1.000000 1.000000 1.000000
v -2.914493 1.059415 -0.242230 1.000000 1.000000 1.000000 1.000000
v -4.076313 1.233441 -0.431467 1.000000 1.000000 1.000000 1.000000
v -2.868582 1.061955 -1.151795 1.000000 1.000000 1.000000 1.000000
v -2.496891 2.192251 -0.823268 1.000000 1.000000 1.000000 1.000000
v -2.397791 0.979240 -0.974285 1.000000 1.000000 1.000000 1.000000
v -1.493361 8.726145 0.289784 1.000000 1.000000 1.000000 1.000000
v -1.477534 9.294565 -1.488195 1.000000 1.000000 1.000000 1.000000
v -1.163110 9.125498 -0.428876 1.000000 1.000000 1.000000 1.000000
v 0.607605 15.696794 2.477909 1.000000 1.000000 1.000000 1.000000
v 0.707610 16.974571 -1.718957 1.000000 1.000000 1.000000 1.000000
v -0.492458 16.974571 -1.718957 1.000000 1.000000 1.000000 1.000000
v -0.392453 15.696794 2.477909 1.000000 1.000000 1.000000 1.000000
v 0.307586 12.191328 2.523112 1.000000 1.000000 1.000000 1.000000
v -0.092434 12.191328 2.523112 1.000000 1.000000 1.000000 1.000000
v -0.392448 12.395722 -2.071482 1.000000 1.000000 1.000000 1.000000
v 0.607600 12.395722 -2.071482 1.000000 1.000000 1.000000 1.000000
v 1.207634 15.488175 0.417071 1.000000 1.000000 1.000000 1.000000
v 2.007687 15.925551 -0.414260 1.000000 1.000000 1.000000 1.000000
v 1.707668 15.850460 1.273748 1.000000 1.000000 1.000000 1.000000
v 0.707606 17.217966 2.534613 1.000000 1.000000 1.000000 1.000000
v 1.507658 17.636581 -0.051420 1.000000 1.000000 1.000000 1.000000
v 1.157639 18.122227 -1.689818 1.000000 1.000000 1.000000 1.000000
v 0.107576 17.469555 2.715332 1.000000 1.000000 1.000000 1.000000
v 1.407654 17.996933 -1.791338 1.000000 1.000000 1.000000 1.000000
v 1.707669 17.337839 0.200874 1.000000 1.000000 1.000000 1.000000
v 2.753625 7.349645 1.041841 1.000000 1.000000 1.000000 1.000000
v 2.839436 7.832223 0.502240 1.000000 1.000000 1.000000 1.000000
v 2.831999 8.521570 1.090586 1.000000 1.000000 1.000000 1.000000
v -2.914493 1.059415 -0.242230 1.000000 1.000000 1.000000 1.000000
v -2.868582 1.061955 -1.151795 1.000000 1.000000 1.000000 1.000000
v -2.397791 0.979240 -0.974285 1.000000 1.000000 1.000000 1.000000
v -3.951603 2.410149 -1.060213 1.000000 1.000000 1.000000 1.000000
v -3.835128 1.206732 -1.309202 1.000000 1.000000 1.000000 1.000000
v -4.340662 1.270257 -1.290741 1.000000 1.000000 1.000000 1.000000
v -2.586901 10.105080 0.474285 1.000000 1.000000 1.000000 1.000000
v -2.010873 10.018798 0.568104 1.000000 1.000000 1.000000 1.000000
v -1.500962 10.437419 -0.922575 1.000000 1.000000 1.000000 1.000000
v -2.467517 10.582196 -1.080011 1.000000 1.000000 1.000000 1.000000
v -1.789072 8.357359 -1.379362 1.000000 1.000000 1.000000 1.000000
v -2.624284 7.832223 0.502240 1.000000 1.000000 1.000000 1.000000
v -2.658002 8.487513 -1.520889 1.000000 1.000000 1.000000 1.000000
v -1.585623 10.018801 0.543668 1.000000 1.000000 1.000000 1.000000
v -2.952468 10.223536 0.321030 1.000000 1.000000 1.000000 1.000000
v -2.655196 10.661811 -1.103464 1.000000 1.000000 1.000000 1.000000
v -1.288346 10.457074 -0.880842 1.000000 1.000000 1.000000 1.000000
v 0.607600 12.395722 -2.071482 1.000000 1.000000 1.000000 1.000000
v 1.207634 15.488175 0.417071 1.000000 1.000000 1.000000 1.000000
v 0.707610 13.998455 2.402828 1.000000 1.000000 1.000000 1.000000
v -0.492458 16.974571 -1.718957 1.000000 1.000000 1.000000 1.000000
v -1.492516 17.731577 -0.734714 1.000000 1.000000 1.000000 1.000000
v -0.892487 16.617027 1.818033 1.000000 1.000000 1.000000 1.000000
v -0.492454 17.217966 2.534613 1.000000 1.000000 1.000000 1.000000
v 0.707606 17.217966 2.534613 1.000000 1.000000 1.000000 1.000000
v 1.157639 18.122227 -1.689818 1.000000 1.000000 1.000000 1.000000
v -0.942487 18.122227 -1.689818 1.000000 1.000000 1.000000 1.000000
v -4.605432 20.846155 -1.738330 1.000000 1.000000 1.000000 1.000000
v -3.696134 20.087915 -1.178773 1.000000 1.000000 1.000000 1.000000
v -4.822172 20.683409 -0.890619 1.000000 1.000000 1.000000 1.000000
v -4.334661 0.719428 -1.871934 1.000000 1.000000 1.000000 1.000000
v -4.234292 1.018719 -1.856185 1.000000 1.000000 1.000000 1.000000
v -4.447691 0.010051 0.044941 1.000000 1.000000 1.000000 1.000000
v -2.639360 9.468591 -1.677417 1.000000 1.000000 1.000000 1.000000
v -3.338598 9.002539 -0.010763 1.000000 1.000000 1.000000 1.000000
v -3.301248 9.445764 -0.777133 1.000000 1.000000 1.000000 1.000000
v -3.696134 20.087915 -1.178773 1.000000 1.000000 1.000000 1.000000
v -2.840490 18.890188 -0.412547 1.000000 1.000000 1.000000 1.000000
v -3.806962 19.017385 -0.635075 1.000000 1.000000 1.000000 1.000000
v -3.696134 20.087915 -1.178773 1.000000 1.000000 1.000000 1.000000
v -3.806962 19.017385 -0.635075 1.000000 1.000000 1.000000 1.000000
v -4.822172 20.683409 -0.890619 1.000000 1.000000 1.000000 1.000000
v -1.192497 17.979843 -1.889858 1.000000 1.000000 1.000000 1.000000
v -1.392516 18.608444 1.441517 1.000000 1.000000 1.000000 1.000000
v -1.992546 16.605541 0.074466 1.000000 1.000000 1.000000 1.000000
v -0.992492 20.365217 -1.594098 1.000000 1.000000 1.000000 1.000000
v -1.092492 20.705305 0.366508 1.000000 1.000000 1.000000 1.000000
v -1.092492 19.617170 1.113923 1.000000 1.000000 1.000000 1.000000
v -1.192502 17.996933 -1.791338 1.000000 1.000000 1.000000 1.000000
v -1.492517 17.337839 0.200874 1.000000 1.000000 1.000000 1.000000
v -1.392516 18.608444 1.441517 1.000000 1.000000 1.000000 1.000000
v -2.904238 1.310743 -0.121733 1.000000 1.000000 1.000000 1.000000
v -2.270595 1.007545 -1.536905 1.000000 1.000000 1.000000 1.000000
v -2.681361 0.000000 0.332143 1.000000 1.000000 1.000000 1.000000
v -3.835128 1.206732 -1.309202 1.000000 1.000000 1.000000 1.000000
v -4.076313 1.233441 -0.431467 1.000000 1.000000 1.000000 1.000000
v -4.340662 1.270257 -1.290741 1.000000 1.000000 1.000000 1.000000
v -5.799995 13.474928 -0.478194 1.000000 1.000000 1.000000 1.000000
v -5.511991 13.436715 -1.287328 1.000000 1.000000 1.000000 1.000000
v -6.283345 13.720782 -1.661710 1.000000 1.000000 1.000000 1.000000
v -6.624926 13.766105 -0.702061 1.000000 1.000000 1.000000 1.000000
v 1.607663 17.849009 1.685190 1.000000 1.000000 1.000000 1.000000
v 1.607668 18.608444 1.441517 1.000000 1.000000 1.000000 1.000000
v 2.207698 16.605541 0.074466 1.000000 1.000000 1.000000 1.000000
v -0.492458 13.998455 2.402828 1.000000 1.000000 1.000000 1.000000
v -0.992482 15.488175 0.417071 1.000000 1.000000 1.000000 1.000000
v -0.392448 12.395722 -2.071482 1.000000 1.000000 1.000000 1.000000
v 0.607605 15.696794 2.477909 1.000000 1.000000 1.000000 1.000000
v 1.107639 16.617027 1.818033 1.000000 1.000000 1.000000 1.000000
v 0.707610 16.974571 -1.718957 1.000000 1.000000 1.000000 1.000000
v 0.507600 15.817250 2.433328 1.000000 1.000000 1.000000 1.000000
v 1.107630 15.651442 0.089178 1.000000 1.000000 1.000000 1.000000
v 1.507658 17.636581 -0.051420 1.000000 1.000000 1.000000 1.000000
v -0.942487 18.122227 -1.689818 1.000000 1.000000 1.000000 1.000000
v -1.292506 17.636581 -0.051420 1.000000 1.000000 1.000000 1.000000
v -0.492454 17.217966 2.534613 1.000000 1.000000 1.000000 1.000000
v 2.757727 19.165329 1.141711 1.000000 1.000000 1.000000 1.000000
v 1.607668 18.608444 1.441517 1.000000 1.000000 1.000000 1.000000
v 1.607667 19.997847 1.260873 1.000000 1.000000 1.000000 1.000000
v -1.492517 17.337839 0.200874 1.000000 1.000000 1.000000 1.000000
v -1.192502 17.996933 -1.791338 1.000000 1.000000 1.000000 1.000000
v 0.107576 17.469555 2.715332 1.000000 1.000000 1.000000 1.000000
v -4.082813 1.317724 -0.316273 1.000000 1.000000 1.000000 1.000000
v -2.904238 1.310743 -0.121733 1.000000 1.000000 1.000000 1.000000
v -2.681361 0.000000 0.332143 1.000000 1.000000 1.000000 1.000000
v -4.447691 0.010051 0.044941 1.000000 1.000000 1.000000 1.000000
v -4.447691 0.010051 0.044941 1.000000 1.000000 1.000000 1.000000
v -4.234292 1.018719 -1.856185 1.000000 1.000000 1.000000 1.000000
v -4.082813 1.317724 -0.316273 1.000000 1.000000 1.000000 1.000000
v 0.307586 12.191328 2.523112 1.000000 1.000000 1.000000 1.000000
v 0.607600 12.395722 -2.071482 1.000000 1.000000 1.000000 1.000000
v 0.707610 13.998455 2.402828 1.000000 1.000000 1.000000 1.000000
v -6.367895 13.718698 -1.323678 1.000000 1.000000 1.000000 1.000000
v -5.871235 13.382646 -1.509147 1.000000 1.000000 1.000000 1.000000
v -6.281610 13.843181 -0.689996 1.000000 1.000000 1.000000 1.000000
v -5.520827 13.320861 -1.001612 1.000000 1.000000 1.000000 1.000000
v -5.819580 13.626179 -0.514343 1.000000 1.000000 1.000000 1.000000
v 1.607668 18.608444 1.441517 1.000000 1.000000 1.000000 1.000000
v 1.257644 19.760115 1.352926 1.000000 1.000000 1.000000 1.000000
v 1.607667 19.997847 1.260873 1.000000 1.000000 1.000000 1.000000
v 1.607668 18.608444 1.441517 1.000000 1.000000 1.000000 1.000000
v 1.307644 19.617170 1.113923 1.000000 1.000000 1.000000 1.000000
v 1.257644 19.760115 1.352926 1.000000 1.000000 1.000000 1.000000
v -0.992482 15.488175 0.417071 1.000000 1.000000 1.000000 1.000000
v -1.492516 15.850460 1.273748 1.000000 1.000000 1.000000 1.000000
v -1.792535 15.925551 -0.414260 1.000000 1.000000 1.000000 1.000000
v 1.107630 15.651442 0.089178 1.000000 1.000000 1.000000 1.000000
v 0.507600 15.817250 2.433328 1.000000 1.000000 1.000000 1.000000
v -0.292448 15.817250 2.433328 1.000000 1.000000 1.000000 1.000000
v -0.892478 15.651442 0.089178 1.000000 1.000000 1.000000 1.000000
v 0.107576 20.419538 1.644271 1.000000 1.000000 1.000000 1.000000
v 1.257644 19.760115 1.352926 1.000000 1.000000 1.000000 1.000000
v 1.307644 19.617170 1.113923 1.000000 1.000000 1.000000 1.000000
v -2.904238 1.310743 -0.121733 1.000000 1.000000 1.000000 1.000000
v -4.082813 1.317724 -0.316273 1.000000 1.000000 1.000000 1.000000
v -3.582031 1.714308 0.384905 1.000000 1.000000 1.000000 1.000000
v -4.076313 1.233441 -0.431467 1.000000 1.000000 1.000000 1.000000
v -2.914493 1.059415 -0.242230 1.000000 1.000000 1.000000 1.000000
v -3.560913 1.472284 0.397067 1.000000 1.000000 1.000000 1.000000
v -1.801894 7.664960 0.580940 1.000000 1.000000 1.000000 1.000000
v -2.624284 7.832223 0.502240 1.000000 1.000000 1.000000 1.000000
v -1.493361 8.726145 0.289784 1.000000 1.000000 1.000000 1.000000
v -0.092434 12.191328 2.523112 1.000000 1.000000 1.000000 1.000000
v -0.492458 13.998455 2.402828 1.000000 1.000000 1.000000 1.000000
v -0.392448 12.395722 -2.071482 1.000000 1.000000 1.000000 1.000000
v 1.707668 15.850460 1.273748 1.000000 1.000000 1.000000 1.000000
v 0.707610 13.998455 2.402828 1.000000 1.000000 1.000000 1.000000
v 1.207634 15.488175 0.417071 1.000000 1.000000 1.000000 1.000000
v -0.392453 15.696794 2.477909 1.000000 1.000000 1.000000 1.000000
v -0.492458 16.974571 -1.718957 1.000000 1.000000 1.000000 1.000000
v -0.892487 16.617027 1.818033 1.000000 1.000000 1.000000 1.000000
v -1.292506 17.636581 -0.051420 1.000000 1.000000 1.000000 1.000000
v -0.892478 15.651442 0.089178 1.000000 1.000000 1.000000 1.000000
v -0.292448 15.817250 2.433328 1.000000 1.000000 1.000000 1.000000
v -1.092492 19.617170 1.113923 1.000000 1.000000 1.000000 1.000000
v 0.107576 20.419538 1.644271 1.000000 1.000000 1.000000 1.000000
v 1.307644 19.617170 1.113923 1.000000 1.000000 1.000000 1.000000
v -3.338598 9.002539 -0.010763 1.000000 1.000000 1.000000 1.000000
v -2.624284 7.832223 0.502240 1.000000 1.000000 1.000000 1.000000
v -3.451878 7.912105 0.312179 1.000000 1.000000 1.000000 1.000000
v 0.107576 17.469555 2.715332 1.000000 1.000000 1.000000 1.000000
v 1.707669 17.337839 0.200874 1.000000 1.000000 1.000000 1.000000
v 1.032632 16.947336 2.044935 1.000000 1.000000 1.000000 1.000000
v -2.538473 7.349645 1.041841 1.000000 1.000000 1.000000 1.000000
v -2.624284 7.832223 0.502240 1.000000 1.000000 1.000000 1.000000
v -1.801894 7.664960 0.580940 1.000000 1.000000 1.000000 1.000000
v 1.507658 17.636581 -0.051420 1.000000 1.000000 1.000000 1.000000
v 0.707606 17.217966 2.534613 1.000000 1.000000 1.000000 1.000000
v 0.507600 15.817250 2.433328 1.000000 1.000000 1.000000 1.000000
v -1.392516 18.608444 1.441517 1.000000 1.000000 1.000000 1.000000
v -1.392511 17.849009 1.685190 1.000000 1.000000 1.000000 1.000000
v -1.992546 16.605541 0.074466 1.000000 1.000000 1.000000 1.000000
v -1.092492 19.617170 1.113923 1.000000 1.000000 1.000000 1.000000
v -1.042492 19.760115 1.352926 1.000000 1.000000 1.000000 1.000000
v 0.107576 20.419538 1.644271 1.000000 1.000000 1.000000 1.000000
v -2.624284 7.832223 0.502240 1.000000 1.000000 1.000000 1.000000
v -3.016878 7.421303 0.963916 1.000000 1.000000 1.000000 1.000000
v -3.451878 7.912105 0.312179 1.000000 1.000000 1.000000 1.000000
v -1.042492 19.760115 1.352926 1.000000 1.000000 1.000000 1.000000
v -1.392516 18.608444 1.441517 1.000000 1.000000 1.000000 1.000000
v -1.392515 19.997847 1.260873 1.000000 1.000000 1.000000 1.000000
v -1.042492 19.760115 1.352926 1.000000 1.000000 1.000000 1.000000
v -1.092492 19.617170 1.113923 1.000000 1.000000 1.000000 1.000000
v -1.392516 18.608444 1.441517 1.000000 1.000000 1.000000 1.000000
v 3.789315 0.004631 2.708112 1.000000 1.000000 1.000000 1.000000
v 4.568874 0.009067 2.581357 1.000000 1.000000 1.000000 1.000000
v 4.333386 0.217451 3.631748 1.000000 1.000000 1.000000 1.000000
v -2.538473 7.349645 1.041841 1.000000 1.000000 1.000000 1.000000
v -2.616847 8.521570 1.090586 1.000000 1.000000 1.000000 1.000000
v -2.624284 7.832223 0.502240 1.000000 1.000000 1.000000 1.000000
v -2.616847 8.521570 1.090586 1.000000 1.000000 1.000000 1.000000
v -3.016878 7.421303 0.963916 1.000000 1.000000 1.000000 1.000000
v -2.624284 7.832223 0.502240 1.000000 1.000000 1.000000 1.000000
v -0.992482 15.488175 0.417071 1.000000 1.000000 1.000000 1.000000
v -0.492458 13.998455 2.402828 1.000000 1.000000 1.000000 1.000000
v -1.492516 15.850460 1.273748 1.000000 1.000000 1.000000 1.000000
v -1.392516 18.608444 1.441517 1.000000 1.000000 1.000000 1.000000
v -2.542575 19.165329 1.141711 1.000000 1.000000 1.000000 1.000000
v -1.392515 19.997847 1.260873 1.000000 1.000000 1.000000 1.000000
v -0.817480 16.947336 2.044935 1.000000 1.000000 1.000000 1.000000
v -1.492517 17.337839 0.200874 1.000000 1.000000 1.000000 1.000000
v 0.107576 17.469555 2.715332 1.000000 1.000000 1.000000 1.000000
v -0.292448 15.817250 2.433328 1.000000 1.000000 1.000000 1.000000
v -0.492454 17.217966 2.534613 1.000000 1.000000 1.000000 1.000000
v -1.292506 17.636581 -0.051420 1.000000 1.000000 1.000000 1.000000
v 0.507600 15.817250 2.433328 1.000000 1.000000 1.000000 1.000000
v 0.707606 17.217966 2.534613 1.000000 1.000000 1.000000 1.000000
v -0.492454 17.217966 2.534613 1.000000 1.000000 1.000000 1.000000
v -0.292448 15.817250 2.433328 1.000000 1.000000 1.000000 1.000000
v -4.447691 0.010051 0.044941 1.000000 1.000000 1.000000 1.000000
v -2.681361 0.000000 0.332143 1.000000 1.000000 1.000000 1.000000
v -3.574162 0.004631 2.708112 1.000000 1.000000 1.000000 1.000000
v -4.353722 0.009067 2.581357 1.000000 1.000000 1.000000 1.000000
v 0.107576 17.469555 2.715332 1.000000 1.000000 1.000000 1.000000
v 1.032632 16.947336 2.044935 1.000000 1.000000 1.000000 1.000000
v 0.607610 16.253246 2.723807 1.000000 1.000000 1.000000 1.000000
v -0.392458 16.253246 2.723807 1.000000 1.000000 1.000000 1.000000
v -0.817480 16.947336 2.044935 1.000000 1.000000 1.000000 1.000000
v 0.107576 17.469555 2.715332 1.000000 1.000000 1.000000 1.000000
v -0.392453 15.696794 2.477909 1.000000 1.000000 1.000000 1.000000
v 0.107576 15.774480 2.981719 1.000000 1.000000 1.000000 1.000000
v 0.607605 15.696794 2.477909 1.000000 1.000000 1.000000 1.000000
v 0.607610 16.253246 2.723807 1.000000 1.000000 1.000000 1.000000
v -0.392458 16.253246 2.723807 1.000000 1.000000 1.000000 1.000000
v 0.107576 17.469555 2.715332 1.000000 1.000000 1.000000 1.000000
v -3.574162 0.004631 2.708112 1.000000 1.000000 1.000000 1.000000
v -4.118234 0.217451 3.631748 1.000000 1.000000 1.000000 1.000000
v -4.353722 0.009067 2.581357 1.000000 1.000000 1.000000 1.000000
vt 0.000000 1.000000
vt 0.000000 1.000000
vt 0.000000 1.000000
vt 0.000000 1.000000
vt 0.000000 1.000000
vt 0.000000 1.000000
vt 0.000000 1.000000
vt 0.000000 1.000000
vt 0.000000 1.000000
vt 0.000000 1.000000
vt 0.000000 1.000000
vt 0.000000 1.000000
vt 0.000000 1.000000
vt 0.000000 1.000000
vt 0.000000 1.000000
vt 0.000000 1.000000
vt 0.000000 1.000000
vt 0.000000 1.000000
vt 0.000000 1.000000
vt 0.000000 1.000000
vt 0.000000 1.000000
vt 0.000000 1.000000
vt 0.000000 1.000000
vt 0.000000 1.000000
vt 0.000000 1.000000
vt 0.000000 1.000000
vt 0.000000 1.000000
vt 0.000000 1.000000
vt 0.000000 1.000000
vt 0.000000 1.000000
vt 0.000000 1.000000
vt 0.000000 1.000000
vt 0.000000 1.000000
vt 0.000000 1.000000
vt 0.000000 1.000000
vt 0.000000 1.000000
vt 0.000000 1.000000
vt 0.000000 1.000000
vt 0.000000 1.000000
vt 0.000000 1.000000
vt 0.000000 1.000000
vt 0.000000 1.000000
vt 0.000000 1.000000
vt 0.000000 1.000000
vt 0.000000 1.000000
vt 0.000000 1.000000
vt 0.000000 1.000000
vt 0.000000 1.000000
vt 0.000000 1.000000
vt 0.000000 1.000000
vt 0.000000 1.000000
vt 0.000000 1.000000
vt 0.000000 1.000000
vt 0.000000 1.000000
vt 0.000000 1.000000
vt 0.000000 1.000000
vt 0.000000 1.000000
vt 0.000000 1.000000
vt 0.000000 1.000000
vt 0.000000 1.000000
vt 0.000000 1.000000
vt 0.000000 1.000000
vt 0.000000 1.000000
vt 0.000000 1.000000
vt 0.000000 1.000000
vt 0.000000 1.000000
vt 0.000000 1.000000
vt 0.000000 1.000000
vt 0.000000 1.000000
vt 0.000000 1.000000
vt 0.000000 1.000000
vt 0.000000 1.000000
vt 0.000000 1.000000
vt 0.000000 1.000000
vt 0.000000 1.000000
vt 0.000000 1.000000
vt 0.000000 1.000000
vt 0.000000 1.000000
vt 0.000000 1.000000
vt 0.000000 1.000000
vt 0.000000 1.000000
vt 0.000000 1.000000
vt 0.000000 1.000000
vt 0.000000 1.000000
vt 0.000000 1.000000
vt 0.000000 1.000000
vt 0.000000 1.000000
vt 0.000000 1.000000
vt 0.000000 1.000000
vt 0.000000 1.000000
vt 0.000000 1.000000
vt 0.000000 1.000000
vt 0.000000 1.000000
vt 0.000000 1.000000
vt 0.000000 1.000000
vt 0.000000 1.000000
vt 0.000000 1.000000
vt 0.000000 1.000000
vt 0.000000 1.000000
vt 0.000000 1.000000
vt 0.000000 1.000000
vt 0.000000 1.000000
vt 0.000000 1.000000
vt 0.000000 1.000000
vt 0.000000 1.000000
vt 0.000000 1.000000
vt 0.000000 1.000000
vt 0.000000 1.000000
vt 0.000000 1.000000
vt 0.000000 1.000000
vt 0.000000 1.000000
vt 0.000000 1.000000
vt 0.000000 1.000000
vt 0.000000 1.000000
vt 0.000000 1.000000
vt 0.000000 1.000000
vt 0.000000 1.000000
vt 0.000000 1.000000
vt 0.000000 1.000000
vt 0.000000 1.000000
vt 0.000000 1.000000
vt 0.000000 1.000000
vt 0.000000 1.000000
vt 0.000000 1.000000
vt 0.000000 1.000000
vt 0.000000 1.000000
vt 0.000000 1.000000
vt 0.000000 1.000000
vt 0.000000 1.000000
vt 0.000000 1.000000
vt 0.000000 1.000000
vt 0.000000 1.000000
vt 0.000000 1.000000
vt 0.000000 1.000000
vt 0.000000 1.000000
vt 0.000000 1.000000
vt 0.000000 1.000000
vt 0.000000 1.000000
vt 0.000000 1.000000
vt 0.000000 1.000000
vt 0.000000 1.000000
vt 0.000000 1.000000
vt 0.000000 1.000000
vt 0.000000 1.000000
vt 0.000000 1.000000
vt 0.000000 1.000000
vt 0.000000 1.000000
vt 0.000000 1.000000
vt 0.000000 1.000000
vt 0.000000 1.000000
vt 0.000000 1.000000
vt 0.000000 1.000000
vt 0.000000 1.000000
vt 0.000000 1.000000
vt 0.000000 1.000000
vt 0.000000 1.000000
vt 0.000000 1.000000
vt 0.000000 1.000000
vt 0.000000 1.000000
vt 0.000000 1.000000
vt 0.000000 1.000000
vt 0.000000 1.000000
vt 0.000000 1.000000
vt 0.000000 1.000000
vt 0.000000 1.000000
vt 0.000000 1.000000
vt 0.000000 1.000000
vt 0.000000 1.000000
vt 0.000000 1.000000
vt 0.000000 1.000000
vt 0.000000 1.000000
vt 0.000000 1.000000
vt 0.000000 1.000000
vt 0.000000 1.000000
vt 0.000000 1.000000
vt 0.000000 1.000000
vt 0.000000 1.000000
vt 0.000000 1.000000
vt 0.000000 1.000000
vt 0.000000 1.000000
vt 0.000000 1.000000
vt 0.000000 1.000000
vt 0.000000 1.000000
vt 0.000000 1.000000
vt 0.000000 1.000000
vt 0.000000 1.000000
vt 0.000000 1.000000
vt 0.000000 1.000000
vt 0.000000 1.000000
vt 0.000000 1.000000
vt 0.000000 1.000000
vt 0.000000 1.000000
vt 0.000000 1.000000
vt 0.000000 1.000000
vt 0.000000 1.000000
vt 0.000000 1.000000
vt 0.000000 1.000000
vt 0.000000 1.000000
vt 0.000000 1.000000
vt 0.000000 1.000000
vt 0.000000 1.000000
vt 0.000000 1.000000
vt 0.000000 1.000000
vt 0.000000 1.000000
vt 0.000000 1.000000
vt 0.000000 1.000000
vt 0.000000 1.000000
vt 0.000000 1.000000
vt 0.000000 1.000000
vt 0.000000 1.000000
vt 0.000000 1.000000
vt 0.000000 1.000000
vt 0.000000 1.000000
vt 0.000000 1.000000
vt 0.000000 1.000000
vt 0.000000 1.000000
vt 0.000000 1.000000
vt 0.000000 1.000000
vt 0.000000 1.000000
vt 0.000000 1.000000
vt 0.000000 1.000000
vt 0.000000 1.000000
vt 0.000000 1.000000
vt 0.000000 1.000000
vt 0.000000 1.000000
vt 0.000000 1.000000
vt 0.000000 1.000000
vt 0.000000 1.000000
vt 0.000000 1.000000
vt 0.000000 1.000000
vt 0.000000 1.000000
vt 0.000000 1.000000
vt 0.000000 1.000000
vt 0.000000 1.000000
vt 0.000000 1.000000
vt 0.000000 1.000000
vt 0.000000 1.000000
vt 0.000000 1.000000
vt 0.000000 1.000000
vt 0.000000 1.000000
vt 0.000000 1.000000
vt 0.000000 1.000000
vt 0.000000 1.000000
vt 0.000000 1.000000
vt 0.000000 1.000000
vt 0.000000 1.000000
vt 0.000000 1.000000
vt 0.000000 1.000000
vt 0.000000 1.000000
vt 0.000000 1.000000
vt 0.000000 1.000000
vt 0.000000 1.000000
vt 0.000000 1.000000
vt 0.000000 1.000000
vt 0.000000 1.000000
vt 0.000000 1.000000
vt 0.000000 1.000000
vt 0.000000 1.000000
vt 0.000000 1.000000
vt 0.000000 1.000000
vt 0.000000 1.000000
vt 0.000000 1.000000
vt 0.000000 1.000000
vt 0.000000 1.000000
vt 0.000000 1.000000
vt 0.000000 1.000000
vt 0.000000 1.000000
vt 0.000000 1.000000
vt 0.000000 1.000000
vt 0.000000 1.000000
vt 0.000000 1.000000
vt 0.000000 1.000000
vt 0.000000 1.000000
vt 0.000000 1.000000
vt 0.000000 1.000000
vt 0.000000 1.000000
vt 0.000000 1.000000
vt 0.000000 1.000000
vt 0.000000 1.000000
vt 0.000000 1.000000
vt 0.000000 1.000000
vt 0.000000 1.000000
vt 0.000000 1.000000
vt 0.000000 1.000000
vt 0.000000 1.000000
vt 0.000000 1.000000
vt 0.000000 1.000000
vt 0.000000 1.000000
vt 0.000000 1.000000
vt 0.000000 1.000000
vt 0.000000 1.000000
vt 0.000000 1.000000
vt 0.000000 1.000000
vt 0.000000 1.000000
vt 0.000000 1.000000
vt 0.000000 1.000000
vt 0.000000 1.000000
vt 0.000000 1.000000
vt 0.000000 1.000000
vt 0.000000 1.000000
vt 0.000000 1.000000
vt 0.000000 1.000000
vt 0.000000 1.000000
vt 0.000000 1.000000
vt 0.000000 1.000000
vt 0.000000 1.000000
vt 0.000000 1.000000
vt 0.000000 1.000000
vt 0.000000 1.000000
vt 0.000000 1.000000
vt 0.000000 1.000000
vt 0.000000 1.000000
vt 0.000000 1.000000
vt 0.000000 1.000000
vt 0.000000 1.000000
vt 0.000000 1.000000
vt 0.000000 1.000000
vt 0.000000 1.000000
vt 0.000000 1.000000
vt 0.000000 1.000000
vt 0.000000 1.000000
vt 0.000000 1.000000
vt 0.000000 1.000000
vt 0.000000 1.000000
vt 0.000000 1.000000
vt 0.000000 1.000000
vt 0.000000 1.000000
vt 0.000000 1.000000
vt 0.000000 1.000000
vt 0.000000 1.000000
vt 0.000000 1.000000
vt 0.000000 1.000000
vt 0.000000 1.000000
vt 0.000000 1.000000
vt 0.000000 1.000000
vt 0.000000 1.000000
vt 0.000000 1.000000
vt 0.000000 1.000000
vt 0.000000 1.000000
vt 0.000000 1.000000
vt 0.000000 1.000000
vt 0.000000 1.000000
vt 0.000000 1.000000
vt 0.000000 1.000000
vt 0.000000 1.000000
vt 0.000000 1.000000
vt 0.000000 1.000000
vt 0.000000 1.000000
vt 0.000000 1.000000
vt 0.000000 1.000000
vt 0.000000 1.000000
vt 0.000000 1.000000
vt 0.000000 1.000000
vt 0.000000 1.000000
vt 0.000000 1.000000
vt 0.000000 1.000000
vt 0.000000 1.000000
vt 0.000000 1.000000
vt 0.000000 1.000000
vt 0.000000 1.000000
vt 0.000000 1.000000
vt 0.000000 1.000000
vt 0.000000 1.000000
vt 0.000000 1.000000
vt 0.000000 1.000000
vt 0.000000 1.000000
vt 0.000000 1.000000
vt 0.000000 1.000000
vt 0.000000 1.000000
vt 0.000000 1.000000
vt 0.000000 1.000000
vt 0.000000 1.000000
vt 0.000000 1.000000
vt 0.000000 1.000000
vt 0.000000 1.000000
vt 0.000000 1.000000
vt 0.000000 1.000000
vt 0.000000 1.000000
vt 0.000000 1.000000
vt 0.000000 1.000000
vt 0.000000 1.000000
vt 0.000000 1.000000
vt 0.000000 1.000000
vt 0.000000 1.000000
vt 0.000000 1.000000
vt 0.000000 1.000000
vt 0.000000 1.000000
vt 0.000000 1.000000
vt 0.000000 1.000000
vt 0.000000 1.000000
vt 0.000000 1.000000
vt 0.000000 1.000000
vt 0.000000 1.000000
vt 0.000000 1.000000
vt 0.000000 1.000000
vt 0.000000 1.000000
vt 0.000000 1.000000
vt 0.000000 1.000000
vt 0.000000 1.000000
vt 0.000000 1.000000
vt 0.000000 1.000000
vt 0.000000 1.000000
vt 0.000000 1.000000
vt 0.000000 1.000000
vt 0.000000 1.000000
vt 0.000000 1.000000
vt 0.000000 1.000000
vt 0.000000 1.000000
vt 0.000000 1.000000
vt 0.000000 1.000000
vt 0.000000 1.000000
vt 0.000000 1.000000
vt 0.000000 1.000000
vt 0.000000 1.000000
vt 0.000000 1.000000
vt 0.000000 1.000000
vt 0.000000 1.000000
vt 0.000000 1.000000
vt 0.000000 1.000000
vt 0.000000 1.000000
vt 0.000000 1.000000
vt 0.000000 1.000000
vt 0.000000 1.000000
vt 0.000000 1.000000
vt 0.000000 1.000000
vt 0.000000 1.000000
vt 0.000000 1.000000
vt 0.000000 1.000000
vt 0.000000 1.000000
vt 0.000000 1.000000
vt 0.000000 1.000000
vt 0.000000 1.000000
vt 0.000000 1.000000
vt 0.000000 1.000000
vt 0.000000 1.000000
vt 0.000000 1.000000
vt 0.000000 1.000000
vt 0.000000 1.000000
vt 0.000000 1.000000
vt 0.000000 1.000000
vt 0.000000 1.000000
vt 0.000000 1.000000
vt 0.000000 1.000000
vt 0.000000 1.000000
vt 0.000000 1.000000
vt 0.000000 1.000000
vt 0.000000 1.000000
vt 0.000000 1.000000
vt 0.000000 1.000000
vt 0.000000 1.000000
vt 0.000000 1.000000
vt 0.000000 1.000000
vt 0.000000 1.000000
vt 0.000000 1.000000
vt 0.000000 1.000000
vt 0.000000 1.000000
vt 0.000000 1.000000
vt 0.000000 1.000000
vt 0.000000 1.000000
vt 0.000000 1.000000
vt 0.000000 1.000000
vt 0.000000 1.000000
vt 0.000000 1.000000
vt 0.000000 1.000000
vt 0.000000 1.000000
vt 0.000000 1.000000
vt 0.000000 1.000000
vt 0.000000 1.000000
vt 0.000000 1.000000
vt 0.000000 1.000000
vt 0.000000 1.000000
vt 0.000000 1.000000
vt 0.000000 1.000000
vt 0.000000 1.000000
vt 0.000000 1.000000
vt 0.000000 1.000000
vt 0.000000 1.000000
vt 0.000000 1.000000
vt 0.000000 1.000000
vt 0.000000 1.000000
vt 0.000000 1.000000
vt 0.000000 1.000000
vt 0.000000 1.000000
vt 0.000000 1.000000
vt 0.000000 1.000000
vt 0.000000 1.000000
vt 0.000000 1.000000
vt 0.000000 1.000000
vt 0.000000 1.000000
vt 0.000000 1.000000
vt 0.000000 1.000000
vt 0.000000 1.000000
vt 0.000000 1.000000
vt 0.000000 1.000000
vt 0.000000 1.000000
vt 0.000000 1.000000
vt 0.000000 1.000000
vt 0.000000 1.000000
vt 0.000000 1.000000
vt 0.000000 1.000000
vt 0.000000 1.000000
vt 0.000000 1.000000
vt 0.000000 1.000000
vt 0.000000 1.000000
vt 0.000000 1.000000
vt 0.000000 1.000000
vt 0.000000 1.000000
vt 0.000000 1.000000
vt 0.000000 1.000000
vt 0.000000 1.000000
vt 0.000000 1.000000
vt 0.000000 1.000000
vt 0.000000 1.000000
vt 0.000000 1.000000
vt 0.000000 1.000000
vt 0.000000 1.000000
vt 0.000000 1.000000
vt 0.000000 1.000000
vt 0.000000 1.000000
vt 0.000000 1.000000
vt 0.000000 1.000000
vn -0.379808 0.061501 -0.923019
vn -0.379808 0.061501 -0.923019
vn -0.379808 0.061501 -0.923019
vn -0.379808 0.061501 -0.923019
vn -0.931867 -0.304789 0.196793
vn -0.931867 -0.304789 0.196793
vn -0.931867 -0.304789 0.196793
vn -0.932298 -0.224100 0.283900
vn -0.932298 -0.224100 0.283900
vn -0.932298 -0.224100 0.283900
vn -0.932298 -0.224100 0.283900
vn 0.753229 0.485918 -0.443317
vn 0.753229 0.485918 -0.443317
vn 0.753229 0.485918 -0.443317
vn -0.438705 0.754708 -0.487805
vn -0.438705 0.754708 -0.487805
vn -0.438705 0.754708 -0.487805
vn -0.438705 0.754708 -0.487805
vn -0.470498 0.866396 -0.167299
vn -0.470498 0.866396 -0.167299
vn -0.470498 0.866396 -0.167299
vn -0.470498 0.866396 -0.167299
vn -0.382493 -0.920584 -0.078899
vn -0.382493 -0.920584 -0.078899
vn -0.382493 -0.920584 -0.078899
vn 0.746470 0.563577 -0.353786
vn 0.746470 0.563577 -0.353786
vn 0.746470 0.563577 -0.353786
vn 0.746470 0.563577 -0.353786
vn 0.328313 -0.908535 -0.258410
vn 0.328313 -0.908535 -0.258410
vn 0.328313 -0.908535 -0.258410
vn -0.036299 -0.440989 0.896778
vn -0.036299 -0.440989 0.896778
vn -0.036299 -0.440989 0.896778
vn 0.484285 -0.843674 0.231693
vn 0.484285 -0.843674 0.231693
vn 0.484285 -0.843674 0.231693
vn -0.559304 -0.828806 -0.016100
vn -0.559304 -0.828806 -0.016100
vn -0.559304 -0.828806 -0.016100
vn -0.559304 -0.828806 -0.016100
vn 0.328313 -0.908535 -0.258410
vn 0.328313 -0.908535 -0.258410
vn 0.000000 -0.855918 0.517111
vn 0.000000 -0.855918 0.517111
vn 0.000000 -0.855918 0.517111
vn 0.717201 -0.605301 0.345301
vn 0.717201 -0.605301 0.345301
vn 0.717201 -0.605301 0.345301
vn 0.484285 -0.843674 0.231693
vn 0.484285 -0.843674 0.231693
vn -0.887858 0.353283 0.294786
vn -0.887858 0.353283 0.294786
vn -0.887858 0.353283 0.294786
vn -0.887858 0.353283 0.294786
vn 0.240499 -0.750796 0.615196
vn 0.240499 -0.750796 0.615196
vn 0.240499 -0.750796 0.615196
vn 0.504111 -0.815117 -0.285406
vn 0.504111 -0.815117 -0.285406
vn 0.504111 -0.815117 -0.285406
vn -0.947325 -0.314508 -0.060502
vn -0.947325 -0.314508 -0.060502
vn -0.947325 -0.314508 -0.060502
vn 0.010400 0.201603 -0.979412
vn 0.010400 0.201603 -0.979412
vn 0.010400 0.201603 -0.979412
vn -0.000000 0.655391 -0.755290
vn -0.000000 0.655391 -0.755290
vn -0.000000 0.655391 -0.755290
vn -0.000000 0.655391 -0.755290
vn 0.412180 -0.378282 -0.828861
vn 0.412180 -0.378282 -0.828861
vn 0.412180 -0.378282 -0.828861
vn -0.000000 0.691742 -0.722144
vn -0.000000 0.691742 -0.722144
vn -0.000000 0.691742 -0.722144
vn 0.146494 -0.989159 -0.010200
vn 0.146494 -0.989159 -0.010200
vn 0.146494 -0.989159 -0.010200
vn 0.146494 -0.989159 -0.010200
vn 0.124797 -0.992174 -0.004100
vn 0.124797 -0.992174 -0.004100
vn 0.124797 -0.992174 -0.004100
vn -0.011400 -0.421199 0.906897
vn -0.011400 -0.421199 0.906897
vn -0.011400 -0.421199 0.906897
vn 0.036299 -0.440989 0.896778
vn 0.036299 -0.440989 0.896778
vn 0.036299 -0.440989 0.896778
vn 0.673832 -0.674432 -0.301814
vn 0.673832 -0.674432 -0.301814
vn 0.673832 -0.674432 -0.301814
vn 0.000000 -0.545087 0.838380
vn 0.000000 -0.545087 0.838380
vn 0.000000 -0.545087 0.838380
vn -0.959507 -0.278802 -0.040200
vn -0.959507 -0.278802 -0.040200
vn -0.959507 -0.278802 -0.040200
vn 0.080498 -0.974876 -0.207695
vn 0.080498 -0.974876 -0.207695
vn 0.080498 -0.974876 -0.207695
vn -0.141295 -0.459882 -0.876666
vn -0.141295 -0.459882 -0.876666
vn -0.141295 -0.459882 -0.876666
vn -0.920003 0.023600 0.391201
vn -0.920003 0.023600 0.391201
vn -0.920003 0.023600 0.391201
vn -0.371214 0.144505 -0.917234
vn -0.371214 0.144505 -0.917234
vn -0.371214 0.144505 -0.917234
vn 0.565322 -0.701827 -0.433417
vn 0.565322 -0.701827 -0.433417
vn 0.565322 -0.701827 -0.433417
vn 0.000000 -0.997054 -0.076697
vn 0.000000 -0.997054 -0.076697
vn 0.000000 -0.997054 -0.076697
vn 0.000000 -0.997054 -0.076697
vn -0.152201 -0.301301 -0.941304
vn -0.152201 -0.301301 -0.941304
vn -0.152201 -0.301301 -0.941304
vn -0.152201 -0.301301 -0.941304
vn 0.882649 -0.304482 -0.358079
vn 0.882649 -0.304482 -0.358079
vn 0.882649 -0.304482 -0.358079
vn 0.168895 -0.985569 -0.011300
vn 0.168895 -0.985569 -0.011300
vn 0.168895 -0.985569 -0.011300
vn 0.092204 -0.947745 -0.305414
vn 0.092204 -0.947745 -0.305414
vn 0.092204 -0.947745 -0.305414
vn 0.000000 -0.828899 -0.559399
vn 0.000000 -0.828899 -0.559399
vn 0.000000 -0.828899 -0.559399
vn 0.000000 -0.828899 -0.559399
vn 0.887706 -0.353902 -0.294502
vn 0.887706 -0.353902 -0.294502
vn 0.887706 -0.353902 -0.294502
vn 0.845979 -0.532587 0.025899
vn 0.845979 -0.532587 0.025899
vn 0.845979 -0.532587 0.025899
vn 0.091199 -0.946288 -0.310196
vn 0.091199 -0.946288 -0.310196
vn 0.091199 -0.946288 -0.310196
vn 0.091199 -0.946288 -0.310196
vn 0.379808 0.061501 -0.923019
vn 0.379808 0.061501 -0.923019
vn 0.379808 0.061501 -0.923019
vn 0.379808 0.061501 -0.923019
vn -0.996988 0.056999 0.052599
vn -0.996988 0.056999 0.052599
vn -0.996988 0.056999 0.052599
vn 0.898677 -0.271993 -0.344091
vn 0.898677 -0.271993 -0.344091
vn 0.898677 -0.271993 -0.344091
vn 0.197498 -0.902391 0.382996
vn 0.197498 -0.902391 0.382996
vn 0.197498 -0.902391 0.382996
vn -0.093604 0.949741 0.298713
vn -0.093604 0.949741 0.298713
vn -0.093604 0.949741 0.298713
vn -0.093604 0.949741 0.298713
vn 0.011400 -0.421199 0.906897
vn 0.011400 -0.421199 0.906897
vn 0.011400 -0.421199 0.906897
vn -0.094097 0.836271 -0.540182
vn -0.094097 0.836271 -0.540182
vn -0.094097 0.836271 -0.540182
vn 0.739590 -0.503193 0.446994
vn 0.739590 -0.503193 0.446994
vn 0.739590 -0.503193 0.446994
vn 0.921579 -0.208895 -0.327193
vn 0.921579 -0.208895 -0.327193
vn 0.921579 -0.208895 -0.327193
vn -0.887706 -0.353902 -0.294502
vn -0.887706 -0.353902 -0.294502
vn -0.887706 -0.353902 -0.294502
vn -0.845979 -0.532587 0.025899
vn -0.845979 -0.532587 0.025899
vn -0.845979 -0.532587 0.025899
vn 0.931867 -0.304789 0.196793
vn 0.931867 -0.304789 0.196793
vn 0.931867 -0.304789 0.196793
vn -0.753229 0.485918 -0.443317
vn -0.753229 0.485918 -0.443317
vn -0.753229 0.485918 -0.443317
vn -0.000000 0.985289 -0.170898
vn -0.000000 0.985289 -0.170898
vn -0.000000 0.985289 -0.170898
vn -0.000000 0.985289 -0.170898
vn -0.446799 -0.853298 -0.268799
vn -0.446799 -0.853298 -0.268799
vn -0.446799 -0.853298 -0.268799
vn 0.932298 -0.224100 0.283900
vn 0.932298 -0.224100 0.283900
vn 0.932298 -0.224100 0.283900
vn 0.932298 -0.224100 0.283900
vn -0.746470 0.563577 -0.353786
vn -0.746470 0.563577 -0.353786
vn -0.746470 0.563577 -0.353786
vn -0.746470 0.563577 -0.353786
vn 0.920003 0.023600 0.391201
vn 0.920003 0.023600 0.391201
vn 0.920003 0.023600 0.391201
vn -0.186400 -0.296701 -0.936602
vn -0.186400 -0.296701 -0.936602
vn -0.186400 -0.296701 -0.936602
vn -0.328313 -0.908535 -0.258410
vn -0.328313 -0.908535 -0.258410
vn -0.328313 -0.908535 -0.258410
vn -0.240499 -0.750796 0.615196
vn -0.240499 -0.750796 0.615196
vn -0.240499 -0.750796 0.615196
vn -0.924207 -0.361303 0.123701
vn -0.924207 -0.361303 0.123701
vn -0.924207 -0.361303 0.123701
vn -0.686129 0.711930 0.149606
vn -0.686129 0.711930 0.149606
vn -0.686129 0.711930 0.149606
vn 0.470498 0.866396 -0.167299
vn 0.470498 0.866396 -0.167299
vn 0.470498 0.866396 -0.167299
vn 0.470498 0.866396 -0.167299
vn 0.559304 -0.828806 -0.016100
vn 0.559304 -0.828806 -0.016100
vn 0.559304 -0.828806 -0.016100
vn 0.559304 -0.828806 -0.016100
vn 0.887858 0.353283 0.294786
vn 0.887858 0.353283 0.294786
vn 0.887858 0.353283 0.294786
vn 0.887858 0.353283 0.294786
vn -0.328313 -0.908535 -0.258410
vn -0.328313 -0.908535 -0.258410
vn -0.717201 -0.605301 0.345301
vn -0.717201 -0.605301 0.345301
vn -0.717201 -0.605301 0.345301
vn 0.996988 0.056999 0.052599
vn 0.996988 0.056999 0.052599
vn 0.996988 0.056999 0.052599
vn -0.998474 0.031299 0.045499
vn -0.998474 0.031299 0.045499
vn -0.998474 0.031299 0.045499
vn 0.981531 0.167505 -0.092403
vn 0.981531 0.167505 -0.092403
vn 0.981531 0.167505 -0.092403
vn -0.069902 -0.773919 -0.629415
vn -0.069902 -0.773919 -0.629415
vn -0.069902 -0.773919 -0.629415
vn -0.921579 -0.208895 -0.327193
vn -0.921579 -0.208895 -0.327193
vn -0.921579 -0.208895 -0.327193
vn -0.080498 -0.974876 -0.207695
vn -0.080498 -0.974876 -0.207695
vn -0.080498 -0.974876 -0.207695
vn 0.000000 -0.993226 -0.116203
vn 0.000000 -0.993226 -0.116203
vn 0.000000 -0.993226 -0.116203
vn 0.005700 -0.999984 -0.000200
vn 0.005700 -0.999984 -0.000200
vn 0.005700 -0.999984 -0.000200
vn 0.005700 -0.999984 -0.000200
vn -0.036200 -0.274198 -0.960992
vn -0.036200 -0.274198 -0.960992
vn -0.036200 -0.274198 -0.960992
vn -0.739590 -0.503193 0.446994
vn -0.739590 -0.503193 0.446994
vn -0.739590 -0.503193 0.446994
vn 0.382493 -0.920584 -0.078899
vn 0.382493 -0.920584 -0.078899
vn 0.382493 -0.920584 -0.078899
vn -0.673832 -0.674432 -0.301814
vn -0.673832 -0.674432 -0.301814
vn -0.673832 -0.674432 -0.301814
vn -0.844110 -0.353304 0.403305
vn -0.844110 -0.353304 0.403305
vn -0.844110 -0.353304 0.403305
vn 0.089701 -0.749407 -0.656006
vn 0.089701 -0.749407 -0.656006
vn 0.089701 -0.749407 -0.656006
vn -0.882649 -0.304482 -0.358079
vn -0.882649 -0.304482 -0.358079
vn -0.882649 -0.304482 -0.358079
vn -0.146494 -0.989159 -0.010200
vn -0.146494 -0.989159 -0.010200
vn -0.146494 -0.989159 -0.010200
vn -0.146494 -0.989159 -0.010200
vn 0.371214 0.144505 -0.917234
vn 0.371214 0.144505 -0.917234
vn 0.371214 0.144505 -0.917234
vn 0.446799 -0.853298 -0.268799
vn 0.446799 -0.853298 -0.268799
vn 0.446799 -0.853298 -0.268799
vn 0.000000 0.956629 0.291309
vn 0.000000 0.956629 0.291309
vn 0.000000 0.956629 0.291309
vn 0.000000 0.956629 0.291309
vn 0.000000 -0.999014 -0.044401
vn 0.000000 -0.999014 -0.044401
vn 0.000000 -0.999014 -0.044401
vn 0.000000 -0.999014 -0.044401
vn 0.522294 -0.850990 0.054999
vn 0.522294 -0.850990 0.054999
vn 0.522294 -0.850990 0.054999
vn 0.242606 0.943023 0.227706
vn 0.242606 0.943023 0.227706
vn 0.242606 0.943023 0.227706
vn -0.426510 -0.875920 -0.225505
vn -0.426510 -0.875920 -0.225505
vn -0.426510 -0.875920 -0.225505
vn 0.992985 -0.070399 0.094999
vn 0.992985 -0.070399 0.094999
vn 0.992985 -0.070399 0.094999
vn -0.168895 -0.985569 -0.011300
vn -0.168895 -0.985569 -0.011300
vn -0.168895 -0.985569 -0.011300
vn -0.010400 0.201603 -0.979412
vn -0.010400 0.201603 -0.979412
vn -0.010400 0.201603 -0.979412
vn 0.093604 0.949741 0.298713
vn 0.093604 0.949741 0.298713
vn 0.093604 0.949741 0.298713
vn 0.093604 0.949741 0.298713
vn -0.092204 -0.947745 -0.305414
vn -0.092204 -0.947745 -0.305414
vn -0.092204 -0.947745 -0.305414
vn -0.091199 -0.946288 -0.310196
vn -0.091199 -0.946288 -0.310196
vn -0.091199 -0.946288 -0.310196
vn -0.091199 -0.946288 -0.310196
vn 0.968744 -0.239611 0.064203
vn 0.968744 -0.239611 0.064203
vn 0.968744 -0.239611 0.064203
vn 0.686129 0.711930 0.149606
vn 0.686129 0.711930 0.149606
vn 0.686129 0.711930 0.149606
vn 0.000000 0.977849 0.209311
vn 0.000000 0.977849 0.209311
vn 0.000000 0.977849 0.209311
vn 0.000000 0.977849 0.209311
vn -0.504111 -0.815117 -0.285406
vn -0.504111 -0.815117 -0.285406
vn -0.504111 -0.815117 -0.285406
vn 0.947325 -0.314508 -0.060502
vn 0.947325 -0.314508 -0.060502
vn 0.947325 -0.314508 -0.060502
vn -0.565322 -0.701827 -0.433417
vn -0.565322 -0.701827 -0.433417
vn -0.565322 -0.701827 -0.433417
vn 0.141295 -0.459882 -0.876666
vn 0.141295 -0.459882 -0.876666
vn 0.141295 -0.459882 -0.876666
vn -0.412180 -0.378282 -0.828861
vn -0.412180 -0.378282 -0.828861
vn -0.412180 -0.378282 -0.828861
vn 0.924207 -0.361303 0.123701
vn 0.924207 -0.361303 0.123701
vn 0.924207 -0.361303 0.123701
vn 0.998474 0.031299 0.045499
vn 0.998474 0.031299 0.045499
vn 0.998474 0.031299 0.045499
vn -0.981531 0.167505 -0.092403
vn -0.981531 0.167505 -0.092403
vn -0.981531 0.167505 -0.092403
vn -0.898677 -0.271993 -0.344091
vn -0.898677 -0.271993 -0.344091
vn -0.898677 -0.271993 -0.344091
vn -0.124797 -0.992174 -0.004100
vn -0.124797 -0.992174 -0.004100
vn -0.124797 -0.992174 -0.004100
vn 0.315712 0.946437 0.067703
vn 0.315712 0.946437 0.067703
vn 0.315712 0.946437 0.067703
vn 0.315712 0.946437 0.067703
vn -0.954191 -0.091399 -0.284897
vn -0.954191 -0.091399 -0.284897
vn -0.954191 -0.091399 -0.284897
vn -0.968744 -0.239611 0.064203
vn -0.968744 -0.239611 0.064203
vn -0.968744 -0.239611 0.064203
vn -0.820296 0.552297 0.148599
vn -0.820296 0.552297 0.148599
vn -0.820296 0.552297 0.148599
vn 0.951054 -0.173510 0.255715
vn 0.951054 -0.173510 0.255715
vn 0.951054 -0.173510 0.255715
vn -0.242606 0.943023 0.227706
vn -0.242606 0.943023 0.227706
vn -0.242606 0.943023 0.227706
vn -0.192405 -0.126504 -0.973127
vn -0.192405 -0.126504 -0.973127
vn -0.192405 -0.126504 -0.973127
vn 0.426510 -0.875920 -0.225505
vn 0.426510 -0.875920 -0.225505
vn 0.426510 -0.875920 -0.225505
vn 0.152201 -0.301301 -0.941304
vn 0.152201 -0.301301 -0.941304
vn 0.152201 -0.301301 -0.941304
vn 0.152201 -0.301301 -0.941304
vn 0.959507 -0.278802 -0.040200
vn 0.959507 -0.278802 -0.040200
vn 0.959507 -0.278802 -0.040200
vn 0.975674 -0.212394 0.054299
vn 0.975674 -0.212394 0.054299
vn 0.975674 -0.212394 0.054299
vn -0.484285 -0.843674 0.231693
vn -0.484285 -0.843674 0.231693
vn -0.484285 -0.843674 0.231693
vn -0.484285 -0.843674 0.231693
vn -0.484285 -0.843674 0.231693
vn -0.170701 -0.127001 -0.977104
vn -0.170701 -0.127001 -0.977104
vn -0.170701 -0.127001 -0.977104
vn 0.955933 0.292510 0.025101
vn 0.955933 0.292510 0.025101
vn 0.955933 0.292510 0.025101
vn -0.522294 -0.850990 0.054999
vn -0.522294 -0.850990 0.054999
vn -0.522294 -0.850990 0.054999
vn 0.000000 -0.997505 0.070600
vn 0.000000 -0.997505 0.070600
vn 0.000000 -0.997505 0.070600
vn 0.000000 -0.997505 0.070600
vn 0.369501 0.829503 -0.418801
vn 0.369501 0.829503 -0.418801
vn 0.369501 0.829503 -0.418801
vn 0.094097 0.836271 -0.540182
vn 0.094097 0.836271 -0.540182
vn 0.094097 0.836271 -0.540182
vn -0.197498 -0.902391 0.382996
vn -0.197498 -0.902391 0.382996
vn -0.197498 -0.902391 0.382996
vn 0.036200 -0.274198 -0.960992
vn 0.036200 -0.274198 -0.960992
vn 0.036200 -0.274198 -0.960992
vn -0.975674 -0.212394 0.054299
vn -0.975674 -0.212394 0.054299
vn -0.975674 -0.212394 0.054299
vn 0.793821 -0.565315 -0.224206
vn 0.793821 -0.565315 -0.224206
vn 0.793821 -0.565315 -0.224206
vn 0.820296 0.552297 0.148599
vn 0.820296 0.552297 0.148599
vn 0.820296 0.552297 0.148599
vn -0.951054 -0.173510 0.255715
vn -0.951054 -0.173510 0.255715
vn -0.951054 -0.173510 0.255715
vn -0.000000 0.551419 -0.834229
vn -0.000000 0.551419 -0.834229
vn -0.000000 0.551419 -0.834229
vn 0.186400 -0.296701 -0.936602
vn 0.186400 -0.296701 -0.936602
vn 0.186400 -0.296701 -0.936602
vn -0.647284 -0.662383 -0.377190
vn -0.647284 -0.662383 -0.377190
vn -0.647284 -0.662383 -0.377190
vn -0.089701 -0.749407 -0.656006
vn -0.089701 -0.749407 -0.656006
vn -0.089701 -0.749407 -0.656006
vn 0.950558 -0.155193 0.268988
vn 0.950558 -0.155193 0.268988
vn 0.950558 -0.155193 0.268988
vn 0.954191 -0.091399 -0.284897
vn 0.954191 -0.091399 -0.284897
vn 0.954191 -0.091399 -0.284897
vn -0.369501 0.829503 -0.418801
vn -0.369501 0.829503 -0.418801
vn -0.369501 0.829503 -0.418801
vn 0.069902 -0.773919 -0.629415
vn 0.069902 -0.773919 -0.629415
vn 0.069902 -0.773919 -0.629415
vn 0.170701 -0.127001 -0.977104
vn 0.170701 -0.127001 -0.977104
vn 0.170701 -0.127001 -0.977104
vn -0.955933 0.292510 0.025101
vn -0.955933 0.292510 0.025101
vn -0.955933 0.292510 0.025101
vn 0.038499 -0.978465 0.202793
vn 0.038499 -0.978465 0.202793
vn 0.038499 -0.978465 0.202793
vn -0.992985 -0.070399 0.094999
vn -0.992985 -0.070399 0.094999
vn -0.992985 -0.070399 0.094999
vn 0.844110 -0.353304 0.403305
vn 0.844110 -0.353304 0.403305
vn 0.844110 -0.353304 0.403305
vn -0.793821 -0.565315 -0.224206
vn -0.793821 -0.565315 -0.224206
vn -0.793821 -0.565315 -0.224206
vn 0.192405 -0.126504 -0.973127
vn 0.192405 -0.126504 -0.973127
vn 0.192405 -0.126504 -0.973127
vn 0.647284 -0.662383 -0.377190
vn 0.647284 -0.662383 -0.377190
vn 0.647284 -0.662383 -0.377190
vn -0.950558 -0.155193 0.268988
vn -0.950558 -0.155193 0.268988
vn -0.950558 -0.155193 0.268988
vn 0.000000 -0.072100 0.997397
vn 0.000000 -0.072100 0.997397
vn 0.000000 -0.072100 0.997397
vn 0.000000 -0.072100 0.997397
vn -0.005700 -0.999984 -0.000200
vn -0.005700 -0.999984 -0.000200
vn -0.005700 -0.999984 -0.000200
vn -0.005700 -0.999984 -0.000200
vn -0.661395 -0.276798 -0.697094
vn -0.661395 -0.276798 -0.697094
vn -0.661395 -0.276798 -0.697094
vn 0.661395 -0.276798 -0.697094
vn 0.661395 -0.276798 -0.697094
vn 0.661395 -0.276798 -0.697094
vn -0.000000 0.988319 -0.152403
vn -0.000000 0.988319 -0.152403
vn -0.000000 0.988319 -0.152403
vn 0.000000 -0.007000 -0.999976
vn 0.000000 -0.007000 -0.999976
vn 0.000000 -0.007000 -0.999976
vn -0.038499 -0.978465 0.202793
vn -0.038499 -0.978465 0.202793
vn -0.038499 -0.978465 0.202793
f 1/1/1 2/2/2 3/3/3
f 1/1/1 3/3/3 4/4/4
f 5/5/5 6/6/6 7/7/7
f 8/8/8 9/9/9 10/10/10
f 8/8/8 10/10/10 11/11/11
f 12/12/12 13/13/13 14/14/14
f 15/15/15 16/16/16 17/17/17
f 15/15/15 17/17/17 18/18/18
f 19/19/19 20/20/20 21/21/21
f 19/19/19 21/21/21 22/22/22
f 23/23/23 24/24/24 25/25/25
f 26/26/26 27/27/27 28/28/28
f 26/26/26 28/28/28 29/29/29
f 30/30/30 31/31/31 32/32/32
f 33/33/33 34/34/34 35/35/35
f 36/36/36 37/37/37 38/38/38
f 39/39/39 40/40/40 41/41/41
f 39/39/39 41/41/41 42/42/42
f 30/30/30 32/32/32 43/43/43
f 44/44/44 30/30/30 43/43/43
f 45/45/45 46/46/46 47/47/47
f 48/48/48 49/49/49 50/50/50
f 38/38/38 37/37/37 51/51/51
f 52/52/52 38/38/38 51/51/51
f 53/53/53 54/54/54 55/55/55
f 53/53/53 55/55/55 56/56/56
f 57/57/57 58/58/58 59/59/59
f 60/60/60 61/61/61 62/62/62
f 63/63/63 64/64/64 65/65/65
f 66/66/66 67/67/67 68/68/68
f 69/69/69 70/70/70 71/71/71
f 69/69/69 71/71/71 72/72/72
f 73/73/73 74/74/74 75/75/75
f 76/76/76 77/77/77 78/78/78
f 79/79/79 80/80/80 81/81/81
f 79/79/79 81/81/81 82/82/82
f 83/83/83 84/84/84 85/85/85
f 86/86/86 87/87/87 88/88/88
f 89/89/89 90/90/90 91/91/91
f 92/92/92 93/93/93 94/94/94
f 95/95/95 96/96/96 97/97/97
f 98/98/98 99/99/99 100/100/100
f 101/101/101 102/102/102 103/103/103
f 104/104/104 105/105/105 106/106/106
f 107/107/107 108/108/108 109/109/109
f 110/110/110 111/111/111 112/112/112
f 113/113/113 114/114/114 115/115/115
f 116/116/116 117/117/117 118/118/118
f 116/116/116 118/118/118 119/119/119
f 120/120/120 121/121/121 122/122/122
f 120/120/120 122/122/122 123/123/123
f 124/124/124 125/125/125 126/126/126
f 127/127/127 128/128/128 129/129/129
f 130/130/130 131/131/131 132/132/132
f 133/133/133 134/134/134 135/135/135
f 133/133/133 135/135/135 136/136/136
f 137/137/137 138/138/138 139/139/139
f 140/140/140 141/141/141 142/142/142
f 143/143/143 144/144/144 145/145/145
f 143/143/143 145/145/145 146/146/146
f 147/147/147 148/148/148 149/149/149
f 147/147/147 149/149/149 150/150/150
f 151/151/151 152/152/152 153/153/153
f 154/154/154 155/155/155 156/156/156
f 157/157/157 158/158/158 159/159/159
f 160/160/160 161/161/161 162/162/162
f 160/160/160 162/162/162 163/163/163
f 164/164/164 165/165/165 166/166/166
f 167/167/167 168/168/168 169/169/169
f 170/170/170 171/171/171 172/172/172
f 173/173/173 174/174/174 175/175/175
f 176/176/176 177/177/177 178/178/178
f 179/179/179 180/180/180 181/181/181
f 182/182/182 183/183/183 184/184/184
f 185/185/185 186/186/186 187/187/187
f 188/188/188 189/189/189 190/190/190
f 188/188/188 190/190/190 191/191/191
f 192/192/192 193/193/193 194/194/194
f 195/195/195 196/196/196 197/197/197
f 195/195/195 197/197/197 198/198/198
f 199/199/199 200/200/200 201/201/201
f 199/199/199 201/201/201 202/202/202
f 203/203/203 204/204/204 205/205/205
f 206/206/206 207/207/207 208/208/208
f 209/209/209 210/210/210 211/211/211
f 212/212/212 213/213/213 214/214/214
f 215/215/215 216/216/216 217/217/217
f 218/218/218 219/219/219 220/220/220
f 221/221/221 222/222/222 223/223/223
f 221/221/221 223/223/223 224/224/224
f 225/225/225 226/226/226 227/227/227
f 225/225/225 227/227/227 228/228/228
f 229/229/229 230/230/230 231/231/231
f 229/229/229 231/231/231 232/232/232
f 211/211/211 210/210/210 233/233/233
f 211/211/211 233/233/233 234/234/234
f 235/235/235 236/236/236 237/237/237
f 238/238/238 239/239/239 240/240/240
f 241/241/241 242/242/242 243/243/243
f 244/244/244 245/245/245 246/246/246
f 247/247/247 248/248/248 249/249/249
f 250/250/250 251/251/251 252/252/252
f 253/253/253 254/254/254 255/255/255
f 256/256/256 257/257/257 258/258/258
f 259/259/259 260/260/260 261/261/261
f 259/259/259 261/261/261 262/262/262
f 263/263/263 264/264/264 265/265/265
f 266/266/266 267/267/267 268/268/268
f 269/269/269 270/270/270 271/271/271
f 272/272/272 273/273/273 274/274/274
f 275/275/275 276/276/276 277/277/277
f 278/278/278 279/279/279 280/280/280
f 281/281/281 282/282/282 283/283/283
f 284/284/284 285/285/285 286/286/286
f 284/284/284 286/286/286 287/287/287
f 288/288/288 289/289/289 290/290/290
f 291/291/291 292/292/292 293/293/293
f 294/294/294 295/295/295 296/296/296
f 294/294/294 296/296/296 297/297/297
f 298/298/298 299/299/299 300/300/300
f 298/298/298 300/300/300 301/301/301
f 302/302/302 303/303/303 304/304/304
f 305/305/305 306/306/306 307/307/307
f 308/308/308 309/309/309 310/310/310
f 311/311/311 312/312/312 313/313/313
f 314/314/314 315/315/315 316/316/316
f 317/317/317 318/318/318 319/319/319
f 320/320/320 321/321/321 322/322/322
f 320/320/320 322/322/322 323/323/323
f 324/324/324 325/325/325 326/326/326
f 327/327/327 328/328/328 329/329/329
f 327/327/327 329/329/329 330/330/330
f 331/331/331 332/332/332 333/333/333
f 334/334/334 335/335/335 336/336/336
f 337/337/337 338/338/338 339/339/339
f 337/337/337 339/339/339 340/340/340
f 341/341/341 342/342/342 343/343/343
f 344/344/344 345/345/345 346/346/346
f 347/347/347 348/348/348 349/349/349
f 350/350/350 351/351/351 352/352/352
f 353/353/353 354/354/354 355/355/355
f 356/356/356 357/357/357 358/358/358
f 359/359/359 360/360/360 361/361/361
f 362/362/362 363/363/363 364/364/364
f 365/365/365 366/366/366 367/367/367
f 368/368/368 369/369/369 370/370/370
f 371/371/371 372/372/372 373/373/373
f 371/371/371 373/373/373 374/374/374
f 375/375/375 376/376/376 377/377/377
f 378/378/378 379/379/379 380/380/380
f 381/381/381 382/382/382 383/383/383
f 384/384/384 385/385/385 386/386/386
f 387/387/387 388/388/388 389/389/389
f 390/390/390 391/391/391 392/392/392
f 393/393/393 394/394/394 395/395/395
f 396/396/396 397/397/397 398/398/398
f 396/396/396 398/398/398 399/399/399
f 400/400/400 401/401/401 402/402/402
f 403/403/403 404/404/404 405/405/405
f 406/406/406 407/407/407 408/408/408
f 409/409/409 410/410/410 407/407/407
f 411/411/411 412/412/412 413/413/413
f 414/414/414 415/415/415 416/416/416
f 417/417/417 418/418/418 419/419/419
f 420/420/420 421/421/421 422/422/422
f 420/420/420 422/422/422 423/423/423
f 407/407/407 410/410/410 408/408/408
f 424/424/424 425/425/425 426/426/426
f 427/427/427 428/428/428 429/429/429
f 430/430/430 431/431/431 432/432/432
f 433/433/433 434/434/434 435/435/435
f 436/436/436 437/437/437 438/438/438
f 439/439/439 440/440/440 441/441/441
f 442/442/442 443/443/443 444/444/444
f 445/445/445 446/446/446 447/447/447
f 448/448/448 449/449/449 450/450/450
f 451/451/451 452/452/452 453/453/453
f 454/454/454 455/455/455 456/456/456
f 457/457/457 458/458/458 459/459/459
f 460/460/460 461/461/461 462/462/462
f 463/463/463 464/464/464 465/465/465
f 466/466/466 467/467/467 468/468/468
f 469/469/469 470/470/470 471/471/471
f 472/472/472 473/473/473 474/474/474
f 475/475/475 476/476/476 477/477/477
f 478/478/478 479/479/479 480/480/480
f 481/481/481 482/482/482 483/483/483
f 484/484/484 485/485/485 486/486/486
f 487/487/487 488/488/488 489/489/489
f 490/490/490 491/491/491 492/492/492
f 493/493/493 494/494/494 495/495/495
f 496/496/496 497/497/497 498/498/498
f 499/499/499 500/500/500 501/501/501
f 499/499/499 501/501/501 502/502/502
f 503/503/503 504/504/504 505/505/505
f 503/503/503 505/505/505 506/506/506
f 507/507/507 508/508/508 509/509/509
f 510/510/510 511/511/511 512/512/512
f 513/513/513 514/514/514 515/515/515
f 516/516/516 517/517/517 518/518/518
f 519/519/519 520/520/520 521/521/521
