# generated by the editor's model importer
v 4.280454 1.313057 -1.978451 1.000000 1.000000 1.000000 1.000000
v 3.689607 1.709677 -1.268392 1.000000 1.000000 1.000000 1.000000
v 4.418636 0.614292 -1.182323 1.000000 1.000000 1.000000 1.000000
v 3.689607 1.709677 -1.268392 1.000000 1.000000 1.000000 1.000000
v 2.913131 1.305550 -1.758991 1.000000 1.000000 1.000000 1.000000
v 3.047013 0.606486 -0.959277 1.000000 1.000000 1.000000 1.000000
v 3.689607 1.709677 -1.268392 1.000000 1.000000 1.000000 1.000000
v 3.820276 1.010597 -0.488402 1.000000 1.000000 1.000000 1.000000
v 4.418636 0.614292 -1.182323 1.000000 1.000000 1.000000 1.000000
v 3.820276 1.010597 -0.488402 1.000000 1.000000 1.000000 1.000000
v 3.689607 1.709677 -1.268392 1.000000 1.000000 1.000000 1.000000
v 3.047013 0.606486 -0.959277 1.000000 1.000000 1.000000 1.000000
v 4.461298 0.004436 0.928060 1.000000 1.000000 1.000000 1.000000
v 4.418636 0.614292 -1.182323 1.000000 1.000000 1.000000 1.000000
v 3.820276 1.010597 -0.488402 1.000000 1.000000 1.000000 1.000000
v 3.820276 1.010597 -0.488402 1.000000 1.000000 1.000000 1.000000
v 3.047013 0.606486 -0.959277 1.000000 1.000000 1.000000 1.000000
v 3.681739 0.000000 1.054815 1.000000 1.000000 1.000000 1.000000
v 3.820276 1.010597 -0.488402 1.000000 1.000000 1.000000 1.000000
v 4.225810 0.212820 1.978451 1.000000 1.000000 1.000000 1.000000
v 4.461298 0.004436 0.928060 1.000000 1.000000 1.000000 1.000000
v 3.681739 0.000000 1.054815 1.000000 1.000000 1.000000 1.000000
v 4.225810 0.212820 1.978451 1.000000 1.000000 1.000000 1.000000
v 3.820276 1.010597 -0.488402 1.000000 1.000000 1.000000 1.000000
v -3.689607 1.709677 -1.268392 1.000000 1.000000 1.000000 1.000000
v -3.047013 0.606486 -0.959277 1.000000 1.000000 1.000000 1.000000
v -2.913131 1.305550 -1.758991 1.000000 1.000000 1.000000 1.000000
v -4.280454 1.313057 -1.978451 1.000000 1.000000 1.000000 1.000000
v -4.418636 0.614292 -1.182323 1.000000 1.000000 1.000000 1.000000
v -3.689607 1.709677 -1.268392 1.000000 1.000000 1.000000 1.000000
v -3.689607 1.709677 -1.268392 1.000000 1.000000 1.000000 1.000000
v -4.418636 0.614292 -1.182323 1.000000 1.000000 1.000000 1.000000
v -3.820276 1.010597 -0.488402 1.000000 1.000000 1.000000 1.000000
v -3.820276 1.010597 -0.488402 1.000000 1.000000 1.000000 1.000000
v -3.047013 0.606486 -0.959277 1.000000 1.000000 1.000000 1.000000
v -3.689607 1.709677 -1.268392 1.000000 1.000000 1.000000 1.000000
v -3.820276 1.010597 -0.488402 1.000000 1.000000 1.000000 1.000000
v -3.681739 0.000000 1.054815 1.000000 1.000000 1.000000 1.000000
v -3.047013 0.606486 -0.959277 1.000000 1.000000 1.000000 1.000000
v -4.461298 0.004436 0.928060 1.000000 1.000000 1.000000 1.000000
v -3.820276 1.010597 -0.488402 1.000000 1.000000 1.000000 1.000000
v -4.418636 0.614292 -1.182323 1.000000 1.000000 1.000000 1.000000
v -3.681739 0.000000 1.054815 1.000000 1.000000 1.000000 1.000000
v -3.820276 1.010597 -0.488402 1.000000 1.000000 1.000000 1.000000
v -4.225810 0.212820 1.978451 1.000000 1.000000 1.000000 1.000000
v -3.820276 1.010597 -0.488402 1.000000 1.000000 1.000000 1.000000
v -4.461298 0.004436 0.928060 1.000000 1.000000 1.000000 1.000000
v -4.225810 0.212820 1.978451 1.000000 1.000000 1.000000 1.000000
vt 0.154300 0.443400
vt 0.130900 0.470700
vt 0.123000 0.443400
vt 0.130900 0.470700
vt 0.154300 0.498000
vt 0.123000 0.498000
vt 0.130900 0.470700
vt 0.099600 0.470700
vt 0.123000 0.443400
vt 0.099600 0.470700
vt 0.130900 0.470700
vt 0.123000 0.498000
vt 0.041000 0.455100
vt 0.123000 0.443400
vt 0.099600 0.470700
vt 0.099600 0.470700
vt 0.123000 0.498000
vt 0.041000 0.486300
vt 0.099600 0.470700
vt 0.002000 0.470700
vt 0.041000 0.455100
vt 0.041000 0.486300
vt 0.002000 0.470700
vt 0.099600 0.470700
vt 0.130900 0.470700
vt 0.123000 0.498000
vt 0.154300 0.498000
vt 0.154300 0.443400
vt 0.123000 0.443400
vt 0.130900 0.470700
vt 0.130900 0.470700
vt 0.123000 0.443400
vt 0.099600 0.470700
vt 0.099600 0.470700
vt 0.123000 0.498000
vt 0.130900 0.470700
vt 0.099600 0.470700
vt 0.041000 0.486300
vt 0.123000 0.498000
vt 0.041000 0.455100
vt 0.099600 0.470700
vt 0.123000 0.443400
vt 0.041000 0.486300
vt 0.099600 0.470700
vt 0.002000 0.470700
vt 0.099600 0.470700
vt 0.041000 0.455100
vt 0.002000 0.470700
vn 0.770384 0.539489 0.339793
vn 0.770384 0.539489 0.339793
vn 0.770384 0.539489 0.339793
vn -0.632716 0.527413 0.567014
vn -0.632716 0.527413 0.567014
vn -0.632716 0.527413 0.567014
vn 0.765705 0.537404 0.353402
vn 0.765705 0.537404 0.353402
vn 0.765705 0.537404 0.353402
vn -0.625676 0.525880 0.576178
vn -0.625676 0.525880 0.576178
vn -0.625676 0.525880 0.576178
vn 0.685300 0.703200 0.189400
vn 0.685300 0.703200 0.189400
vn 0.685300 0.703200 0.189400
vn -0.603506 0.690807 0.398204
vn -0.603506 0.690807 0.398204
vn -0.603506 0.690807 0.398204
vn 0.800500 0.596200 0.061200
vn 0.800500 0.596200 0.061200
vn 0.800500 0.596200 0.061200
vn -0.754211 0.578309 0.311005
vn -0.754211 0.578309 0.311005
vn -0.754211 0.578309 0.311005
vn 0.632716 0.527413 0.567014
vn 0.632716 0.527413 0.567014
vn 0.632716 0.527413 0.567014
vn -0.770384 0.539489 0.339793
vn -0.770384 0.539489 0.339793
vn -0.770384 0.539489 0.339793
vn -0.765705 0.537404 0.353402
vn -0.765705 0.537404 0.353402
vn -0.765705 0.537404 0.353402
vn 0.625676 0.525880 0.576178
vn 0.625676 0.525880 0.576178
vn 0.625676 0.525880 0.576178
vn 0.603506 0.690807 0.398204
vn 0.603506 0.690807 0.398204
vn 0.603506 0.690807 0.398204
vn -0.685300 0.703200 0.189400
vn -0.685300 0.703200 0.189400
vn -0.685300 0.703200 0.189400
vn 0.754211 0.578309 0.311005
vn 0.754211 0.578309 0.311005
vn 0.754211 0.578309 0.311005
vn -0.800500 0.596200 0.061200
vn -0.800500 0.596200 0.061200
vn -0.800500 0.596200 0.061200
f 1/1/1 2/2/2 3/3/3
f 4/4/4 5/5/5 6/6/6
f 7/7/7 8/8/8 9/9/9
f 10/10/10 11/11/11 12/12/12
f 13/13/13 14/14/14 15/15/15
f 16/16/16 17/17/17 18/18/18
f 19/19/19 20/20/20 21/21/21
f 22/22/22 23/23/23 24/24/24
f 25/25/25 26/26/26 27/27/27
f 28/28/28 29/29/29 30/30/30
f 31/31/31 32/32/32 33/33/33
f 34/34/34 35/35/35 36/36/36
f 37/37/37 38/38/38 39/39/39
f 40/40/40 41/41/41 42/42/42
f 43/43/43 44/44/44 45/45/45
f 46/46/46 47/47/47 48/48/48
