# generated by the editor's model importer
v 3.559454 0.562459 -0.227733 1.000000 1.000000 1.000000 1.000000
v 3.446174 1.652894 -0.550675 1.000000 1.000000 1.000000 1.000000
v 2.694477 2.755435 -0.065627 1.000000 1.000000 1.000000 1.000000
v 2.694477 2.755435 -0.065627 1.000000 1.000000 1.000000 1.000000
v 2.724423 1.171925 0.550674 1.000000 1.000000 1.000000 1.000000
v 3.559454 0.562459 -0.227733 1.000000 1.000000 1.000000 1.000000
v 3.124454 0.071658 0.424004 1.000000 1.000000 1.000000 1.000000
v 3.559454 0.562459 -0.227733 1.000000 1.000000 1.000000 1.000000
v 2.724423 1.171925 0.550674 1.000000 1.000000 1.000000 1.000000
v 2.118449 2.669153 0.028192 1.000000 1.000000 1.000000 1.000000
v 1.600937 1.376500 -0.250127 1.000000 1.000000 1.000000 1.000000
v 1.909470 0.315315 0.041028 1.000000 1.000000 1.000000 1.000000
v 2.694477 2.755435 -0.065627 1.000000 1.000000 1.000000 1.000000
v 2.118449 2.669153 0.028192 1.000000 1.000000 1.000000 1.000000
v 2.724423 1.171925 0.550674 1.000000 1.000000 1.000000 1.000000
v 1.909470 0.315315 0.041028 1.000000 1.000000 1.000000 1.000000
v 2.724423 1.171925 0.550674 1.000000 1.000000 1.000000 1.000000
v 2.118449 2.669153 0.028192 1.000000 1.000000 1.000000 1.000000
v 1.909470 0.315315 0.041028 1.000000 1.000000 1.000000 1.000000
v 2.646049 0.000000 0.501929 1.000000 1.000000 1.000000 1.000000
v 2.724423 1.171925 0.550674 1.000000 1.000000 1.000000 1.000000
v -2.118449 2.669153 0.028192 1.000000 1.000000 1.000000 1.000000
v -1.909470 0.315315 0.041028 1.000000 1.000000 1.000000 1.000000
v -1.600937 1.376500 -0.250127 1.000000 1.000000 1.000000 1.000000
v -3.559454 0.562459 -0.227733 1.000000 1.000000 1.000000 1.000000
v -2.694477 2.755435 -0.065627 1.000000 1.000000 1.000000 1.000000
v -3.446174 1.652894 -0.550675 1.000000 1.000000 1.000000 1.000000
v -1.909470 0.315315 0.041028 1.000000 1.000000 1.000000 1.000000
v -2.118449 2.669153 0.028192 1.000000 1.000000 1.000000 1.000000
v -2.724423 1.171925 0.550674 1.000000 1.000000 1.000000 1.000000
v -2.694477 2.755435 -0.065627 1.000000 1.000000 1.000000 1.000000
v -3.559454 0.562459 -0.227733 1.000000 1.000000 1.000000 1.000000
v -2.724423 1.171925 0.550674 1.000000 1.000000 1.000000 1.000000
v -2.694477 2.755435 -0.065627 1.000000 1.000000 1.000000 1.000000
v -2.724423 1.171925 0.550674 1.000000 1.000000 1.000000 1.000000
v -2.118449 2.669153 0.028192 1.000000 1.000000 1.000000 1.000000
v -1.909470 0.315315 0.041028 1.000000 1.000000 1.000000 1.000000
v -2.724423 1.171925 0.550674 1.000000 1.000000 1.000000 1.000000
v -2.646049 0.000000 0.501929 1.000000 1.000000 1.000000 1.000000
v -3.124454 0.071658 0.424004 1.000000 1.000000 1.000000 1.000000
v -2.724423 1.171925 0.550674 1.000000 1.000000 1.000000 1.000000
v -3.559454 0.562459 -0.227733 1.000000 1.000000 1.000000 1.000000
vt 0.525400 0.419900
vt 0.529300 0.462900
vt 0.502000 0.509800
vt 0.502000 0.509800
vt 0.490200 0.451200
vt 0.525400 0.419900
vt 0.502000 0.408200
vt 0.525400 0.419900
vt 0.490200 0.451200
vt 0.478500 0.509800
vt 0.455100 0.462900
vt 0.455100 0.419900
vt 0.502000 0.509800
vt 0.478500 0.509800
vt 0.490200 0.451200
vt 0.455100 0.419900
vt 0.490200 0.451200
vt 0.478500 0.509800
vt 0.455100 0.419900
vt 0.482400 0.408200
vt 0.490200 0.451200
vt 0.478500 0.509800
vt 0.455100 0.419900
vt 0.455100 0.462900
vt 0.525400 0.419900
vt 0.502000 0.509800
vt 0.529300 0.462900
vt 0.455100 0.419900
vt 0.478500 0.509800
vt 0.490200 0.451200
vt 0.502000 0.509800
vt 0.525400 0.419900
vt 0.490200 0.451200
vt 0.502000 0.509800
vt 0.490200 0.451200
vt 0.478500 0.509800
vt 0.455100 0.419900
vt 0.490200 0.451200
vt 0.482400 0.408200
vt 0.502000 0.408200
vt 0.490200 0.451200
vt 0.525400 0.419900
vn 0.760381 0.255794 0.596985
vn 0.760381 0.255794 0.596985
vn 0.760381 0.255794 0.596985
vn 0.751775 0.251491 0.609579
vn 0.751775 0.251491 0.609579
vn 0.751775 0.251491 0.609579
vn 0.741271 0.195592 0.642075
vn 0.741271 0.195592 0.642075
vn 0.741271 0.195592 0.642075
vn -0.577200 0.055700 0.814701
vn -0.577200 0.055700 0.814701
vn -0.577200 0.055700 0.814701
vn 0.096701 0.362605 0.926912
vn 0.096701 0.362605 0.926912
vn 0.096701 0.362605 0.926912
vn -0.570408 0.055101 0.819511
vn -0.570408 0.055101 0.819511
vn -0.570408 0.055101 0.819511
vn -0.530376 0.000200 0.847762
vn -0.530376 0.000200 0.847762
vn -0.530376 0.000200 0.847762
vn 0.577200 0.055700 0.814701
vn 0.577200 0.055700 0.814701
vn 0.577200 0.055700 0.814701
vn -0.760381 0.255794 0.596985
vn -0.760381 0.255794 0.596985
vn -0.760381 0.255794 0.596985
vn 0.570408 0.055101 0.819511
vn 0.570408 0.055101 0.819511
vn 0.570408 0.055101 0.819511
vn -0.751775 0.251491 0.609579
vn -0.751775 0.251491 0.609579
vn -0.751775 0.251491 0.609579
vn -0.096701 0.362605 0.926912
vn -0.096701 0.362605 0.926912
vn -0.096701 0.362605 0.926912
vn 0.530376 0.000200 0.847762
vn 0.530376 0.000200 0.847762
vn 0.530376 0.000200 0.847762
vn -0.741271 0.195592 0.642075
vn -0.741271 0.195592 0.642075
vn -0.741271 0.195592 0.642075
f 1/1/1 2/2/2 3/3/3
f 4/4/4 5/5/5 6/6/6
f 7/7/7 8/8/8 9/9/9
f 10/10/10 11/11/11 12/12/12
f 13/13/13 14/14/14 15/15/15
f 16/16/16 17/17/17 18/18/18
f 19/19/19 20/20/20 21/21/21
f 22/22/22 23/23/23 24/24/24
f 25/25/25 26/26/26 27/27/27
f 28/28/28 29/29/29 30/30/30
f 31/31/31 32/32/32 33/33/33
f 34/34/34 35/35/35 36/36/36
f 37/37/37 38/38/38 39/39/39
f 40/40/40 41/41/41 42/42/42
