# generated by the editor's model importer
v 176.868042 16.983276 328.495972 1.000000 1.000000 1.000000 1.000000
v -125.098999 342.778320 137.866913 1.000000 1.000000 1.000000 1.000000
v 77.397522 0.000000 253.889069 1.000000 1.000000 1.000000 1.000000
v 71.777069 350.447266 283.890839 1.000000 1.000000 1.000000 1.000000
v 219.266174 45.393311 227.971039 1.000000 1.000000 1.000000 1.000000
v 71.777069 350.447266 283.890839 1.000000 1.000000 1.000000 1.000000
v 176.868042 16.983276 328.495972 1.000000 1.000000 1.000000 1.000000
v 201.752441 308.264526 66.614494 1.000000 1.000000 1.000000 1.000000
v 77.397522 0.000000 253.889069 1.000000 1.000000 1.000000 1.000000
v 86.917542 293.020142 -167.873322 1.000000 1.000000 1.000000 1.000000
v 219.266174 45.393311 227.971039 1.000000 1.000000 1.000000 1.000000
v -77.214722 245.723022 -147.585968 1.000000 1.000000 1.000000 1.000000
v -144.617874 402.598511 -288.425842 1.000000 1.000000 1.000000 1.000000
v -77.214722 245.723022 -147.585968 1.000000 1.000000 1.000000 1.000000
v -219.266174 563.160522 -62.475739 1.000000 1.000000 1.000000 1.000000
v -42.816315 625.457275 36.086784 1.000000 1.000000 1.000000 1.000000
v -42.816315 625.457275 36.086784 1.000000 1.000000 1.000000 1.000000
v 98.911316 547.718994 -140.511749 1.000000 1.000000 1.000000 1.000000
v 86.917542 293.020142 -167.873322 1.000000 1.000000 1.000000 1.000000
v 6.595795 470.383545 -328.495972 1.000000 1.000000 1.000000 1.000000
v 6.595795 470.383545 -328.495972 1.000000 1.000000 1.000000 1.000000
v -144.617874 402.598511 -288.425842 1.000000 1.000000 1.000000 1.000000
v -93.844193 633.172241 -236.813629 1.000000 1.000000 1.000000 1.000000
v -93.844193 633.172241 -236.813629 1.000000 1.000000 1.000000 1.000000
v 6.595795 470.383545 -328.495972 1.000000 1.000000 1.000000 1.000000
vt 0.546975 0.308694
vt 0.500100 0.211038
vt 0.375100 0.308694
vt 0.546975 0.254006
vt 0.562600 0.308694
vt 0.734475 0.254006
vt 0.734475 0.308694
vt 0.632913 0.234475
vt 0.750100 0.308694
vt 0.859475 0.187600
vt 0.859475 0.308694
vt 0.750100 0.187600
vt 0.375100 0.156350
vt 0.375100 0.187600
vt 0.500100 0.160256
vt 0.546975 0.152444
vt 0.734475 0.152444
vt 0.640725 0.148538
vt 0.562600 0.187600
vt 0.562600 0.125100
vt 0.859475 0.125100
vt 0.750100 0.125100
vt 0.453225 0.125100
vt 0.640725 0.125100
vt 0.375100 0.125100
vn 0.166423 0.183050 0.968915
vn -0.864915 -0.081358 0.495280
vn -0.619106 -0.720917 0.311427
vn 0.136198 0.412956 0.900510
vn 0.968375 -0.246610 -0.037858
vn 0.136198 0.412956 0.900510
vn 0.166423 0.183050 0.968915
vn 0.976078 0.216940 -0.014478
vn -0.619106 -0.720917 0.311427
vn 0.591348 -0.470810 -0.654710
vn 0.968375 -0.246610 -0.037858
vn -0.474824 -0.759802 -0.444121
vn -0.625695 -0.320680 -0.711105
vn -0.474824 -0.759802 -0.444121
vn -0.916683 0.373735 0.141472
vn 0.047558 0.870110 0.490557
vn 0.047558 0.870110 0.490557
vn 0.812746 0.548201 -0.197281
vn 0.591348 -0.470810 -0.654710
vn 0.351658 0.050831 -0.934747
vn 0.351658 0.050831 -0.934747
vn -0.625695 -0.320680 -0.711105
vn -0.198365 0.828428 -0.523793
vn -0.198365 0.828428 -0.523793
vn 0.351658 0.050831 -0.934747
f 1/1/1 2/2/2 3/3/3
f 2/2/2 1/1/1 4/4/4
f 2/2/2 13/13/13 14/14/14
f 13/13/13 2/2/2 15/15/15
f 4/4/4 15/15/15 2/2/2
f 3/3/3 2/2/2 14/14/14
f 15/15/15 4/4/4 16/16/16
f 13/13/13 15/15/15 23/23/23
f 15/15/15 16/16/16 23/23/23
f 25/25/25 13/13/13 23/23/23
f 5/5/5 6/6/6 7/7/7
f 6/6/6 5/5/5 8/8/8
f 5/5/5 19/19/19 8/8/8
f 8/8/8 17/17/17 6/6/6
f 17/17/17 8/8/8 18/18/18
f 19/19/19 18/18/18 8/8/8
f 18/18/18 19/19/19 20/20/20
f 17/17/17 18/18/18 24/24/24
f 18/18/18 20/20/20 24/24/24
f 9/9/9 10/10/10 11/11/11
f 10/10/10 9/9/9 12/12/12
f 12/12/12 21/21/21 10/10/10
f 21/21/21 12/12/12 22/22/22
