# generated by the editor's model importer
v -0.045320 0.951490 -0.498855 1.000000 1.000000 1.000000 1.000000
v 2.723836 2.178168 -6.825279 1.000000 1.000000 1.000000 1.000000
v 2.683975 1.601585 -6.976186 1.000000 1.000000 1.000000 1.000000
v 2.683975 1.601585 -6.976186 1.000000 1.000000 1.000000 1.000000
v 2.901200 2.114253 -6.758807 1.000000 1.000000 1.000000 1.000000
v 0.087713 0.903553 -0.449031 1.000000 1.000000 1.000000 1.000000
v 0.087713 0.903553 -0.449031 1.000000 1.000000 1.000000 1.000000
v 2.901200 2.114253 -6.758807 1.000000 1.000000 1.000000 1.000000
v 2.723836 2.178168 -6.825279 1.000000 1.000000 1.000000 1.000000
v -0.045320 0.951490 -0.498855 1.000000 1.000000 1.000000 1.000000
v -0.111776 0.384494 -0.659761 1.000000 1.000000 1.000000 1.000000
v 2.683975 1.601585 -6.976186 1.000000 1.000000 1.000000 1.000000
v 0.087713 0.903553 -0.449031 1.000000 1.000000 1.000000 1.000000
v -0.111776 0.384494 -0.659761 1.000000 1.000000 1.000000 1.000000
v -0.045320 0.951490 -0.498855 1.000000 1.000000 1.000000 1.000000
v 2.683975 1.601585 -6.976186 1.000000 1.000000 1.000000 1.000000
v -2.621458 0.528389 5.999623 1.000000 1.000000 1.000000 1.000000
v -0.045320 0.951490 -0.498855 1.000000 1.000000 1.000000 1.000000
v -0.111776 0.384494 -0.659761 1.000000 1.000000 1.000000 1.000000
v -0.111776 0.384494 -0.659761 1.000000 1.000000 1.000000 1.000000
v 0.087713 0.903553 -0.449031 1.000000 1.000000 1.000000 1.000000
v -2.488442 0.480452 6.049507 1.000000 1.000000 1.000000 1.000000
v -0.045320 0.951490 -0.498855 1.000000 1.000000 1.000000 1.000000
v -2.621458 0.528389 5.999623 1.000000 1.000000 1.000000 1.000000
v -2.488442 0.480452 6.049507 1.000000 1.000000 1.000000 1.000000
v 0.087713 0.903553 -0.449031 1.000000 1.000000 1.000000 1.000000
v -2.771855 0.000000 6.101357 1.000000 1.000000 1.000000 1.000000
v -0.111776 0.384494 -0.659761 1.000000 1.000000 1.000000 1.000000
v -2.488442 0.480452 6.049507 1.000000 1.000000 1.000000 1.000000
v -2.771855 0.000000 6.101357 1.000000 1.000000 1.000000 1.000000
v -2.621458 0.528389 5.999623 1.000000 1.000000 1.000000 1.000000
v -0.111776 0.384494 -0.659761 1.000000 1.000000 1.000000 1.000000
v -2.901201 0.543611 6.976186 1.000000 1.000000 1.000000 1.000000
v -2.771855 0.000000 6.101357 1.000000 1.000000 1.000000 1.000000
v -2.488442 0.480452 6.049507 1.000000 1.000000 1.000000 1.000000
v -2.621458 0.528389 5.999623 1.000000 1.000000 1.000000 1.000000
v -2.771855 0.000000 6.101357 1.000000 1.000000 1.000000 1.000000
v -2.901201 0.543611 6.976186 1.000000 1.000000 1.000000 1.000000
v -2.621458 0.528389 5.999623 1.000000 1.000000 1.000000 1.000000
v -2.901201 0.543611 6.976186 1.000000 1.000000 1.000000 1.000000
v -2.488442 0.480452 6.049507 1.000000 1.000000 1.000000 1.000000
vt 0.533200 0.482400
vt 0.810500 0.482400
vt 0.810500 0.459000
vt 0.810500 0.459000
vt 0.810500 0.482400
vt 0.533200 0.482400
vt 0.533200 0.482400
vt 0.810500 0.482400
vt 0.810500 0.482400
vt 0.533200 0.482400
vt 0.533200 0.459000
vt 0.810500 0.459000
vt 0.533200 0.482400
vt 0.533200 0.459000
vt 0.533200 0.482400
vt 0.810500 0.459000
vt 0.041000 0.529300
vt 0.306600 0.529300
vt 0.310500 0.502000
vt 0.310500 0.502000
vt 0.306600 0.529300
vt 0.041000 0.529300
vt 0.306600 0.529300
vt 0.041000 0.529300
vt 0.041000 0.529300
vt 0.306600 0.529300
vt 0.033200 0.505900
vt 0.310500 0.502000
vt 0.041000 0.529300
vt 0.033200 0.505900
vt 0.041000 0.529300
vt 0.310500 0.502000
vt 0.002000 0.529300
vt 0.033200 0.505900
vt 0.041000 0.529300
vt 0.041000 0.529300
vt 0.033200 0.505900
vt 0.002000 0.529300
vt 0.041000 0.529300
vt 0.002000 0.529300
vt 0.041000 0.529300
vn -0.915310 0.160002 -0.369604
vn -0.915310 0.160002 -0.369604
vn -0.915310 0.160002 -0.369604
vn 0.834818 -0.473110 0.281506
vn 0.834818 -0.473110 0.281506
vn 0.834818 -0.473110 0.281506
vn 0.230288 0.931552 0.281386
vn 0.230288 0.931552 0.281386
vn 0.230288 0.931552 0.281386
vn 0.230288 0.931552 0.281386
vn 0.848031 -0.443616 0.289911
vn 0.848031 -0.443616 0.289911
vn 0.848031 -0.443616 0.289911
vn -0.908484 0.209196 -0.361793
vn -0.908484 0.209196 -0.361793
vn -0.908484 0.209196 -0.361793
vn -0.914163 0.206192 -0.348986
vn -0.914163 0.206192 -0.348986
vn -0.914163 0.206192 -0.348986
vn 0.841202 -0.446901 0.304401
vn 0.841202 -0.446901 0.304401
vn 0.841202 -0.446901 0.304401
vn 0.276603 0.945611 0.171202
vn 0.276603 0.945611 0.171202
vn 0.276603 0.945611 0.171202
vn 0.276603 0.945611 0.171202
vn 0.834920 -0.459911 0.302307
vn 0.834920 -0.459911 0.302307
vn 0.834920 -0.459911 0.302307
vn -0.916682 0.193596 -0.349593
vn -0.916682 0.193596 -0.349593
vn -0.916682 0.193596 -0.349593
vn 0.810678 -0.435988 0.390789
vn 0.810678 -0.435988 0.390789
vn 0.810678 -0.435988 0.390789
vn -0.938030 0.214607 -0.272109
vn -0.938030 0.214607 -0.272109
vn -0.938030 0.214607 -0.272109
vn 0.313089 0.946766 0.074897
vn 0.313089 0.946766 0.074897
vn 0.313089 0.946766 0.074897
f 1/1/1 2/2/2 3/3/3
f 4/4/4 5/5/5 6/6/6
f 7/7/7 8/8/8 9/9/9
f 7/7/7 9/9/9 10/10/10
f 11/11/11 12/12/12 13/13/13
f 14/14/14 15/15/15 16/16/16
f 17/17/17 18/18/18 19/19/19
f 20/20/20 21/21/21 22/22/22
f 23/23/23 24/24/24 25/25/25
f 23/23/23 25/25/25 26/26/26
f 27/27/27 28/28/28 29/29/29
f 30/30/30 31/31/31 32/32/32
f 33/33/33 34/34/34 35/35/35
f 36/36/36 37/37/37 38/38/38
f 39/39/39 40/40/40 41/41/41
