# generated by the editor's model importer
v 6.403954 0.000000 -0.767521 1.000000 1.000000 1.000000 1.000000
v 4.453922 0.799500 -0.641216 1.000000 1.000000 1.000000 1.000000
v 4.918905 1.788378 -0.046050 1.000000 1.000000 1.000000 1.000000
v 6.403954 0.000000 -0.767521 1.000000 1.000000 1.000000 1.000000
v 4.918905 1.788378 -0.046050 1.000000 1.000000 1.000000 1.000000
v 4.695017 0.618467 0.301767 1.000000 1.000000 1.000000 1.000000
v 3.960573 2.407389 0.002287 1.000000 1.000000 1.000000 1.000000
v 4.918905 1.788378 -0.046050 1.000000 1.000000 1.000000 1.000000
v 4.453922 0.799500 -0.641216 1.000000 1.000000 1.000000 1.000000
v 4.453922 0.799500 -0.641216 1.000000 1.000000 1.000000 1.000000
v 3.462565 1.463060 -0.365964 1.000000 1.000000 1.000000 1.000000
v 3.960573 2.407389 0.002287 1.000000 1.000000 1.000000 1.000000
v 4.695017 0.618467 0.301767 1.000000 1.000000 1.000000 1.000000
v 4.918905 1.788378 -0.046050 1.000000 1.000000 1.000000 1.000000
v 4.104259 2.299501 0.564267 1.000000 1.000000 1.000000 1.000000
v 4.104259 2.299501 0.564267 1.000000 1.000000 1.000000 1.000000
v 4.918905 1.788378 -0.046050 1.000000 1.000000 1.000000 1.000000
v 3.960573 2.407389 0.002287 1.000000 1.000000 1.000000 1.000000
v 4.104259 2.299501 0.564267 1.000000 1.000000 1.000000 1.000000
v 3.752365 1.245455 0.767521 1.000000 1.000000 1.000000 1.000000
v 4.695017 0.618467 0.301767 1.000000 1.000000 1.000000 1.000000
v -4.453922 0.799500 -0.641216 1.000000 1.000000 1.000000 1.000000
v -3.960573 2.407389 0.002287 1.000000 1.000000 1.000000 1.000000
v -3.462565 1.463060 -0.365964 1.000000 1.000000 1.000000 1.000000
v -3.960573 2.407389 0.002287 1.000000 1.000000 1.000000 1.000000
v -4.453922 0.799500 -0.641216 1.000000 1.000000 1.000000 1.000000
v -4.918905 1.788378 -0.046050 1.000000 1.000000 1.000000 1.000000
v -6.403954 0.000000 -0.767521 1.000000 1.000000 1.000000 1.000000
v -4.918905 1.788378 -0.046050 1.000000 1.000000 1.000000 1.000000
v -4.453922 0.799500 -0.641216 1.000000 1.000000 1.000000 1.000000
v -4.104259 2.299501 0.564267 1.000000 1.000000 1.000000 1.000000
v -3.960573 2.407389 0.002287 1.000000 1.000000 1.000000 1.000000
v -4.918905 1.788378 -0.046050 1.000000 1.000000 1.000000 1.000000
v -6.403954 0.000000 -0.767521 1.000000 1.000000 1.000000 1.000000
v -4.695017 0.618467 0.301767 1.000000 1.000000 1.000000 1.000000
v -4.918905 1.788378 -0.046050 1.000000 1.000000 1.000000 1.000000
v -4.695017 0.618467 0.301767 1.000000 1.000000 1.000000 1.000000
v -4.104259 2.299501 0.564267 1.000000 1.000000 1.000000 1.000000
v -4.918905 1.788378 -0.046050 1.000000 1.000000 1.000000 1.000000
v -4.104259 2.299501 0.564267 1.000000 1.000000 1.000000 1.000000
v -4.695017 0.618467 0.301767 1.000000 1.000000 1.000000 1.000000
v -3.752365 1.245455 0.767521 1.000000 1.000000 1.000000 1.000000
vt 0.201200 0.552700
vt 0.138700 0.611300
vt 0.169900 0.650400
vt 0.201200 0.552700
vt 0.169900 0.650400
vt 0.138700 0.611300
vt 0.142600 0.689500
vt 0.169900 0.650400
vt 0.138700 0.611300
vt 0.138700 0.611300
vt 0.111300 0.654300
vt 0.142600 0.689500
vt 0.138700 0.611300
vt 0.169900 0.650400
vt 0.142600 0.689500
vt 0.142600 0.689500
vt 0.169900 0.650400
vt 0.142600 0.689500
vt 0.142600 0.689500
vt 0.111300 0.654300
vt 0.138700 0.611300
vt 0.138700 0.611300
vt 0.142600 0.689500
vt 0.111300 0.654300
vt 0.142600 0.689500
vt 0.138700 0.611300
vt 0.169900 0.650400
vt 0.201200 0.552700
vt 0.169900 0.650400
vt 0.138700 0.611300
vt 0.142600 0.689500
vt 0.142600 0.689500
vt 0.169900 0.650400
vt 0.201200 0.552700
vt 0.138700 0.611300
vt 0.169900 0.650400
vt 0.138700 0.611300
vt 0.142600 0.689500
vt 0.169900 0.650400
vt 0.142600 0.689500
vt 0.138700 0.611300
vt 0.111300 0.654300
vn 0.133600 0.464199 -0.875597
vn 0.133600 0.464199 -0.875597
vn 0.133600 0.464199 -0.875597
vn 0.560299 0.135700 0.817099
vn 0.560299 0.135700 0.817099
vn 0.560299 0.135700 0.817099
vn 0.227799 0.421198 -0.877895
vn 0.227799 0.421198 -0.877895
vn 0.227799 0.421198 -0.877895
vn -0.011400 0.368486 -0.929564
vn -0.011400 0.368486 -0.929564
vn -0.011400 0.368486 -0.929564
vn 0.637596 0.104899 0.763195
vn 0.637596 0.104899 0.763195
vn 0.637596 0.104899 0.763195
vn 0.543204 0.839307 0.022200
vn 0.543204 0.839307 0.022200
vn 0.543204 0.839307 0.022200
vn 0.453709 0.020300 0.890918
vn 0.453709 0.020300 0.890918
vn 0.453709 0.020300 0.890918
vn 0.011400 0.368486 -0.929564
vn 0.011400 0.368486 -0.929564
vn 0.011400 0.368486 -0.929564
vn -0.227799 0.421198 -0.877895
vn -0.227799 0.421198 -0.877895
vn -0.227799 0.421198 -0.877895
vn -0.133600 0.464199 -0.875597
vn -0.133600 0.464199 -0.875597
vn -0.133600 0.464199 -0.875597
vn -0.543204 0.839307 0.022200
vn -0.543204 0.839307 0.022200
vn -0.543204 0.839307 0.022200
vn -0.560299 0.135700 0.817099
vn -0.560299 0.135700 0.817099
vn -0.560299 0.135700 0.817099
vn -0.637596 0.104899 0.763195
vn -0.637596 0.104899 0.763195
vn -0.637596 0.104899 0.763195
vn -0.453709 0.020300 0.890918
vn -0.453709 0.020300 0.890918
vn -0.453709 0.020300 0.890918
f 1/1/1 2/2/2 3/3/3
f 4/4/4 5/5/5 6/6/6
f 7/7/7 8/8/8 9/9/9
f 10/10/10 11/11/11 12/12/12
f 13/13/13 14/14/14 15/15/15
f 16/16/16 17/17/17 18/18/18
f 19/19/19 20/20/20 21/21/21
f 22/22/22 23/23/23 24/24/24
f 25/25/25 26/26/26 27/27/27
f 28/28/28 29/29/29 30/30/30
f 31/31/31 32/32/32 33/33/33
f 34/34/34 35/35/35 36/36/36
f 37/37/37 38/38/38 39/39/39
f 40/40/40 41/41/41 42/42/42
