# generated by tools/editor_import_glb.py
v -0.999311 0.000000 2.000000 1.000000 1.000000 1.000000 1.000000
v -0.999311 0.000000 2.000000 1.000000 1.000000 1.000000 1.000000
v -0.999311 0.000000 -2.000000 1.000000 1.000000 1.000000 1.000000
v -0.999311 0.000000 -2.000000 1.000000 1.000000 1.000000 1.000000
v -0.999311 3.000244 -2.000000 1.000000 1.000000 1.000000 1.000000
v -0.999311 3.000244 -2.000000 1.000000 1.000000 1.000000 1.000000
v -0.999311 0.198778 2.000000 1.000000 1.000000 1.000000 1.000000
v -0.999311 0.198778 2.000000 1.000000 1.000000 1.000000 1.000000
v -0.999311 3.000244 -1.734962 1.000000 1.000000 1.000000 1.000000
v -0.999311 0.198778 1.626504 1.000000 1.000000 1.000000 1.000000
v -0.999311 0.198778 1.626504 1.000000 1.000000 1.000000 1.000000
v -0.999311 0.198778 1.626504 1.000000 1.000000 1.000000 1.000000
v -0.999311 0.451938 1.626504 1.000000 1.000000 1.000000 1.000000
v -0.999311 0.451938 1.626504 1.000000 1.000000 1.000000 1.000000
v -0.999311 0.478900 1.253008 1.000000 1.000000 1.000000 1.000000
v -0.999311 0.478900 1.253008 1.000000 1.000000 1.000000 1.000000
v -0.999311 0.478900 1.253008 1.000000 1.000000 1.000000 1.000000
v -0.999311 0.759023 1.253008 1.000000 1.000000 1.000000 1.000000
v -0.999311 0.759023 1.253008 1.000000 1.000000 1.000000 1.000000
v -0.999311 0.759023 0.879511 1.000000 1.000000 1.000000 1.000000
v -0.999311 0.759023 0.879511 1.000000 1.000000 1.000000 1.000000
v -0.999311 0.759023 0.879511 1.000000 1.000000 1.000000 1.000000
v -0.999311 1.039145 0.879511 1.000000 1.000000 1.000000 1.000000
v -0.999311 1.039145 0.879511 1.000000 1.000000 1.000000 1.000000
v -0.999311 1.039145 0.506015 1.000000 1.000000 1.000000 1.000000
v -0.999311 1.039145 0.506015 1.000000 1.000000 1.000000 1.000000
v -0.999311 1.039145 0.506015 1.000000 1.000000 1.000000 1.000000
v -0.999311 1.319267 0.506015 1.000000 1.000000 1.000000 1.000000
v -0.999311 1.319267 0.506015 1.000000 1.000000 1.000000 1.000000
v -0.999311 1.319267 0.132519 1.000000 1.000000 1.000000 1.000000
v -0.999311 1.319267 0.132519 1.000000 1.000000 1.000000 1.000000
v -0.999311 1.319267 0.132519 1.000000 1.000000 1.000000 1.000000
v -0.999311 1.599389 0.132519 1.000000 1.000000 1.000000 1.000000
v -0.999311 1.599389 0.132519 1.000000 1.000000 1.000000 1.000000
v -0.999311 1.599389 -0.240977 1.000000 1.000000 1.000000 1.000000
v -0.999311 1.599389 -0.240977 1.000000 1.000000 1.000000 1.000000
v -0.999311 1.599389 -0.240977 1.000000 1.000000 1.000000 1.000000
v -0.999311 1.855350 -0.240977 1.000000 1.000000 1.000000 1.000000
v -0.999311 1.855350 -0.240977 1.000000 1.000000 1.000000 1.000000
v -0.999311 1.879511 -0.614473 1.000000 1.000000 1.000000 1.000000
v -0.999311 1.879511 -0.614473 1.000000 1.000000 1.000000 1.000000
v -0.999311 1.879511 -0.614473 1.000000 1.000000 1.000000 1.000000
v -0.999311 2.159633 -0.614473 1.000000 1.000000 1.000000 1.000000
v -0.999311 2.159633 -0.614473 1.000000 1.000000 1.000000 1.000000
v -0.999311 2.159633 -0.987970 1.000000 1.000000 1.000000 1.000000
v -0.999311 2.159633 -0.987970 1.000000 1.000000 1.000000 1.000000
v -0.999311 2.159633 -0.987970 1.000000 1.000000 1.000000 1.000000
v -0.999311 2.439756 -0.987970 1.000000 1.000000 1.000000 1.000000
v -0.999311 2.439756 -0.987970 1.000000 1.000000 1.000000 1.000000
v -0.999311 2.439756 -1.361466 1.000000 1.000000 1.000000 1.000000
v -0.999311 2.439756 -1.361466 1.000000 1.000000 1.000000 1.000000
v -0.999311 2.439756 -1.361466 1.000000 1.000000 1.000000 1.000000
v -0.999311 2.679868 -1.361466 1.000000 1.000000 1.000000 1.000000
v -0.999311 2.679868 -1.361466 1.000000 1.000000 1.000000 1.000000
v -0.999311 2.719878 -1.734962 1.000000 1.000000 1.000000 1.000000
v -0.999311 2.719878 -1.734962 1.000000 1.000000 1.000000 1.000000
v 1.000689 0.000000 -2.000000 1.000000 1.000000 1.000000 1.000000
v 1.000689 0.000000 -2.000000 1.000000 1.000000 1.000000 1.000000
v 1.000689 3.000244 -2.000000 1.000000 1.000000 1.000000 1.000000
v 1.000689 3.000244 -2.000000 1.000000 1.000000 1.000000 1.000000
v 1.000689 0.000000 2.000000 1.000000 1.000000 1.000000 1.000000
v 1.000689 0.000000 2.000000 1.000000 1.000000 1.000000 1.000000
v 1.000689 3.000244 -1.734962 1.000000 1.000000 1.000000 1.000000
v 1.000689 2.719878 -1.734962 1.000000 1.000000 1.000000 1.000000
v 1.000689 2.719878 -1.734962 1.000000 1.000000 1.000000 1.000000
v 1.000689 2.719878 -1.361466 1.000000 1.000000 1.000000 1.000000
v 1.000689 2.719878 -1.361466 1.000000 1.000000 1.000000 1.000000
v 1.000689 2.439756 -1.361466 1.000000 1.000000 1.000000 1.000000
v 1.000689 2.439756 -1.361466 1.000000 1.000000 1.000000 1.000000
v 1.000689 2.439756 -1.361466 1.000000 1.000000 1.000000 1.000000
v 1.000689 2.465069 -0.987970 1.000000 1.000000 1.000000 1.000000
v 1.000689 2.465069 -0.987970 1.000000 1.000000 1.000000 1.000000
v 1.000689 2.159633 -0.987970 1.000000 1.000000 1.000000 1.000000
v 1.000689 2.159633 -0.987970 1.000000 1.000000 1.000000 1.000000
v 1.000689 2.159633 -0.987970 1.000000 1.000000 1.000000 1.000000
v 1.000689 2.159633 -0.614473 1.000000 1.000000 1.000000 1.000000
v 1.000689 2.159633 -0.614473 1.000000 1.000000 1.000000 1.000000
v 1.000689 1.879511 -0.614473 1.000000 1.000000 1.000000 1.000000
v 1.000689 1.879511 -0.614473 1.000000 1.000000 1.000000 1.000000
v 1.000689 1.879511 -0.614473 1.000000 1.000000 1.000000 1.000000
v 1.000689 1.879511 -0.240977 1.000000 1.000000 1.000000 1.000000
v 1.000689 1.879511 -0.240977 1.000000 1.000000 1.000000 1.000000
v 1.000689 1.599389 -0.240977 1.000000 1.000000 1.000000 1.000000
v 1.000689 1.599389 -0.240977 1.000000 1.000000 1.000000 1.000000
v 1.000689 1.599389 -0.240977 1.000000 1.000000 1.000000 1.000000
v 1.000689 1.599389 0.132519 1.000000 1.000000 1.000000 1.000000
v 1.000689 1.599389 0.132519 1.000000 1.000000 1.000000 1.000000
v 1.000689 1.319267 0.132519 1.000000 1.000000 1.000000 1.000000
v 1.000689 1.319267 0.132519 1.000000 1.000000 1.000000 1.000000
v 1.000689 1.319267 0.132519 1.000000 1.000000 1.000000 1.000000
v 1.000689 1.286382 0.506015 1.000000 1.000000 1.000000 1.000000
v 1.000689 1.286382 0.506015 1.000000 1.000000 1.000000 1.000000
v 1.000689 1.039145 0.506015 1.000000 1.000000 1.000000 1.000000
v 1.000689 1.039145 0.506015 1.000000 1.000000 1.000000 1.000000
v 1.000689 1.039145 0.506015 1.000000 1.000000 1.000000 1.000000
v 1.000689 1.039145 0.879511 1.000000 1.000000 1.000000 1.000000
v 1.000689 1.039145 0.879511 1.000000 1.000000 1.000000 1.000000
v 1.000689 0.759023 0.879511 1.000000 1.000000 1.000000 1.000000
v 1.000689 0.759023 0.879511 1.000000 1.000000 1.000000 1.000000
v 1.000689 0.759023 0.879511 1.000000 1.000000 1.000000 1.000000
v 1.000689 0.759023 1.253008 1.000000 1.000000 1.000000 1.000000
v 1.000689 0.759023 1.253008 1.000000 1.000000 1.000000 1.000000
v 1.000689 0.478900 1.253008 1.000000 1.000000 1.000000 1.000000
v 1.000689 0.478900 1.253008 1.000000 1.000000 1.000000 1.000000
v 1.000689 0.478900 1.253008 1.000000 1.000000 1.000000 1.000000
v 1.000689 0.478900 1.626504 1.000000 1.000000 1.000000 1.000000
v 1.000689 0.478900 1.626504 1.000000 1.000000 1.000000 1.000000
v 1.000689 0.198778 1.626504 1.000000 1.000000 1.000000 1.000000
v 1.000689 0.198778 1.626504 1.000000 1.000000 1.000000 1.000000
v 1.000689 0.198778 1.626504 1.000000 1.000000 1.000000 1.000000
v 1.000689 0.198778 2.000000 1.000000 1.000000 1.000000 1.000000
v 1.000689 0.198778 2.000000 1.000000 1.000000 1.000000 1.000000
v 0.000689 0.000000 -2.000000 1.000000 1.000000 1.000000 1.000000
v 0.000689 2.998539 -2.000000 1.000000 1.000000 1.000000 1.000000
v 0.869503 0.000000 2.000000 1.000000 1.000000 1.000000 1.000000
v 0.869503 2.701998 -1.734962 1.000000 1.000000 1.000000 1.000000
v 0.869503 2.701998 -1.734962 1.000000 1.000000 1.000000 1.000000
v 0.869503 2.701998 -1.361466 1.000000 1.000000 1.000000 1.000000
v 0.869503 2.701998 -1.361466 1.000000 1.000000 1.000000 1.000000
v 0.869503 2.421876 -1.361466 1.000000 1.000000 1.000000 1.000000
v 0.869503 2.421876 -1.361466 1.000000 1.000000 1.000000 1.000000
v 0.869503 2.421876 -1.361466 1.000000 1.000000 1.000000 1.000000
v 0.869503 2.421876 -1.361466 1.000000 1.000000 1.000000 1.000000
v 0.869503 2.434532 -0.987970 1.000000 1.000000 1.000000 1.000000
v 0.869503 2.434532 -0.987970 1.000000 1.000000 1.000000 1.000000
v 0.869503 2.141753 -0.987970 1.000000 1.000000 1.000000 1.000000
v 0.869503 2.141753 -0.987970 1.000000 1.000000 1.000000 1.000000
v 0.869503 2.141753 -0.987970 1.000000 1.000000 1.000000 1.000000
v 0.869503 2.152465 -0.614473 1.000000 1.000000 1.000000 1.000000
v 0.869503 2.152465 -0.614473 1.000000 1.000000 1.000000 1.000000
v 0.869503 1.861631 -0.614473 1.000000 1.000000 1.000000 1.000000
v 0.869503 1.861631 -0.614473 1.000000 1.000000 1.000000 1.000000
v 0.869503 1.861631 -0.614473 1.000000 1.000000 1.000000 1.000000
v 0.869503 1.861631 -0.240977 1.000000 1.000000 1.000000 1.000000
v 0.869503 1.861631 -0.240977 1.000000 1.000000 1.000000 1.000000
v 0.869503 1.581509 -0.240977 1.000000 1.000000 1.000000 1.000000
v 0.869503 1.581509 -0.240977 1.000000 1.000000 1.000000 1.000000
v 0.869503 1.581509 -0.240977 1.000000 1.000000 1.000000 1.000000
v 0.869503 1.581509 0.132519 1.000000 1.000000 1.000000 1.000000
v 0.869503 1.581509 0.132519 1.000000 1.000000 1.000000 1.000000
v 0.869503 1.301387 0.132519 1.000000 1.000000 1.000000 1.000000
v 0.869503 1.301387 0.132519 1.000000 1.000000 1.000000 1.000000
v 0.869503 1.301387 0.132519 1.000000 1.000000 1.000000 1.000000
v 0.869503 1.301387 0.132519 1.000000 1.000000 1.000000 1.000000
v 0.869503 1.284944 0.506015 1.000000 1.000000 1.000000 1.000000
v 0.869503 1.284944 0.506015 1.000000 1.000000 1.000000 1.000000
v 0.869503 1.021265 0.506015 1.000000 1.000000 1.000000 1.000000
v 0.869503 1.021265 0.506015 1.000000 1.000000 1.000000 1.000000
v 0.869503 1.021265 0.506015 1.000000 1.000000 1.000000 1.000000
v 0.869503 1.021265 0.879511 1.000000 1.000000 1.000000 1.000000
v 0.869503 1.021265 0.879511 1.000000 1.000000 1.000000 1.000000
v 0.869503 0.725163 0.879511 1.000000 1.000000 1.000000 1.000000
v 0.869503 0.725163 0.879511 1.000000 1.000000 1.000000 1.000000
v 0.869503 0.725163 0.879511 1.000000 1.000000 1.000000 1.000000
v 0.869503 0.741143 1.253008 1.000000 1.000000 1.000000 1.000000
v 0.869503 0.741143 1.253008 1.000000 1.000000 1.000000 1.000000
v 0.869503 0.461020 1.253008 1.000000 1.000000 1.000000 1.000000
v 0.869503 0.461020 1.253008 1.000000 1.000000 1.000000 1.000000
v 0.869503 0.461020 1.253008 1.000000 1.000000 1.000000 1.000000
v 0.869503 0.461020 1.626504 1.000000 1.000000 1.000000 1.000000
v 0.869503 0.461020 1.626504 1.000000 1.000000 1.000000 1.000000
v 0.869503 0.180898 1.626504 1.000000 1.000000 1.000000 1.000000
v 0.869503 0.180898 1.626504 1.000000 1.000000 1.000000 1.000000
v 0.869503 0.180898 1.626504 1.000000 1.000000 1.000000 1.000000
v 0.869503 0.180898 2.000000 1.000000 1.000000 1.000000 1.000000
v 0.869503 0.180898 2.000000 1.000000 1.000000 1.000000 1.000000
v -0.868125 0.000000 2.000000 1.000000 1.000000 1.000000 1.000000
v -0.868125 2.701998 -1.734962 1.000000 1.000000 1.000000 1.000000
v -0.868125 2.701998 -1.734962 1.000000 1.000000 1.000000 1.000000
v -0.868125 2.681993 -1.361466 1.000000 1.000000 1.000000 1.000000
v -0.868125 2.681993 -1.361466 1.000000 1.000000 1.000000 1.000000
v -0.868125 2.421876 -1.361466 1.000000 1.000000 1.000000 1.000000
v -0.868125 2.421876 -1.361466 1.000000 1.000000 1.000000 1.000000
v -0.868125 2.421876 -1.361466 1.000000 1.000000 1.000000 1.000000
v -0.868125 2.421876 -0.987970 1.000000 1.000000 1.000000 1.000000
v -0.868125 2.421876 -0.987970 1.000000 1.000000 1.000000 1.000000
v -0.868125 2.141753 -0.987970 1.000000 1.000000 1.000000 1.000000
v -0.868125 2.141753 -0.987970 1.000000 1.000000 1.000000 1.000000
v -0.868125 2.141753 -0.987970 1.000000 1.000000 1.000000 1.000000
v -0.868125 2.152465 -0.614473 1.000000 1.000000 1.000000 1.000000
v -0.868125 2.152465 -0.614473 1.000000 1.000000 1.000000 1.000000
v -0.868125 1.861631 -0.614473 1.000000 1.000000 1.000000 1.000000
v -0.868125 1.861631 -0.614473 1.000000 1.000000 1.000000 1.000000
v -0.868125 1.861631 -0.614473 1.000000 1.000000 1.000000 1.000000
v -0.868125 1.849551 -0.240977 1.000000 1.000000 1.000000 1.000000
v -0.868125 1.849551 -0.240977 1.000000 1.000000 1.000000 1.000000
v -0.868125 1.849551 -0.240977 1.000000 1.000000 1.000000 1.000000
v -0.868125 1.581509 -0.240977 1.000000 1.000000 1.000000 1.000000
v -0.868125 1.581509 -0.240977 1.000000 1.000000 1.000000 1.000000
v -0.868125 1.581509 -0.240977 1.000000 1.000000 1.000000 1.000000
v -0.868125 1.581509 0.132519 1.000000 1.000000 1.000000 1.000000
v -0.868125 1.581509 0.132519 1.000000 1.000000 1.000000 1.000000
v -0.868125 1.301387 0.132519 1.000000 1.000000 1.000000 1.000000
v -0.868125 1.301387 0.132519 1.000000 1.000000 1.000000 1.000000
v -0.868125 1.301387 0.132519 1.000000 1.000000 1.000000 1.000000
v -0.868125 1.301387 0.506015 1.000000 1.000000 1.000000 1.000000
v -0.868125 1.301387 0.506015 1.000000 1.000000 1.000000 1.000000
v -0.868125 1.021265 0.506015 1.000000 1.000000 1.000000 1.000000
v -0.868125 1.021265 0.506015 1.000000 1.000000 1.000000 1.000000
v -0.868125 1.021265 0.506015 1.000000 1.000000 1.000000 1.000000
v -0.868125 1.021265 0.879511 1.000000 1.000000 1.000000 1.000000
v -0.868125 1.021265 0.879511 1.000000 1.000000 1.000000 1.000000
v -0.868125 0.725163 0.879511 1.000000 1.000000 1.000000 1.000000
v -0.868125 0.725163 0.879511 1.000000 1.000000 1.000000 1.000000
v -0.868125 0.725163 0.879511 1.000000 1.000000 1.000000 1.000000
v -0.868125 0.741143 1.253008 1.000000 1.000000 1.000000 1.000000
v -0.868125 0.741143 1.253008 1.000000 1.000000 1.000000 1.000000
v -0.868125 0.461020 1.253008 1.000000 1.000000 1.000000 1.000000
v -0.868125 0.461020 1.253008 1.000000 1.000000 1.000000 1.000000
v -0.868125 0.461020 1.253008 1.000000 1.000000 1.000000 1.000000
v -0.868125 0.447539 1.626504 1.000000 1.000000 1.000000 1.000000
v -0.868125 0.447539 1.626504 1.000000 1.000000 1.000000 1.000000
v -0.868125 0.180898 1.626504 1.000000 1.000000 1.000000 1.000000
v -0.868125 0.180898 1.626504 1.000000 1.000000 1.000000 1.000000
v -0.868125 0.180898 1.626504 1.000000 1.000000 1.000000 1.000000
v -0.868125 0.180898 2.000000 1.000000 1.000000 1.000000 1.000000
v -0.868125 0.180898 2.000000 1.000000 1.000000 1.000000 1.000000
v -1.000689 2.915073 -1.711589 1.000000 1.000000 1.000000 1.000000
v -1.000689 2.915073 -1.711589 1.000000 1.000000 1.000000 1.000000
v -1.000689 2.915073 -1.711589 1.000000 1.000000 1.000000 1.000000
v -1.000689 2.875062 -1.382535 1.000000 1.000000 1.000000 1.000000
v -1.000689 2.875062 -1.382535 1.000000 1.000000 1.000000 1.000000
v -1.000689 2.875062 -1.382535 1.000000 1.000000 1.000000 1.000000
v -1.000689 2.634950 -1.338092 1.000000 1.000000 1.000000 1.000000
v -1.000689 2.634950 -1.338092 1.000000 1.000000 1.000000 1.000000
v -1.000689 2.634950 -1.338092 1.000000 1.000000 1.000000 1.000000
v -1.000689 2.634950 -1.009039 1.000000 1.000000 1.000000 1.000000
v -1.000689 2.634950 -1.009039 1.000000 1.000000 1.000000 1.000000
v -1.000689 2.634950 -1.009039 1.000000 1.000000 1.000000 1.000000
v -1.000689 2.354828 -0.964596 1.000000 1.000000 1.000000 1.000000
v -1.000689 2.354828 -0.964596 1.000000 1.000000 1.000000 1.000000
v -1.000689 2.354828 -0.964596 1.000000 1.000000 1.000000 1.000000
v -1.000689 2.354828 -0.635542 1.000000 1.000000 1.000000 1.000000
v -1.000689 2.354828 -0.635542 1.000000 1.000000 1.000000 1.000000
v -1.000689 2.354828 -0.635542 1.000000 1.000000 1.000000 1.000000
v -1.000689 2.074706 -0.591100 1.000000 1.000000 1.000000 1.000000
v -1.000689 2.074706 -0.591100 1.000000 1.000000 1.000000 1.000000
v -1.000689 2.074706 -0.591100 1.000000 1.000000 1.000000 1.000000
v -1.000689 2.050545 -0.262046 1.000000 1.000000 1.000000 1.000000
v -1.000689 2.050545 -0.262046 1.000000 1.000000 1.000000 1.000000
v -1.000689 2.050545 -0.262046 1.000000 1.000000 1.000000 1.000000
v -1.000689 1.794584 -0.217604 1.000000 1.000000 1.000000 1.000000
v -1.000689 1.794584 -0.217604 1.000000 1.000000 1.000000 1.000000
v -1.000689 1.794584 -0.217604 1.000000 1.000000 1.000000 1.000000
v -1.000689 1.794584 0.111450 1.000000 1.000000 1.000000 1.000000
v -1.000689 1.794584 0.111450 1.000000 1.000000 1.000000 1.000000
v -1.000689 1.794584 0.111450 1.000000 1.000000 1.000000 1.000000
v -1.000689 1.514462 0.155893 1.000000 1.000000 1.000000 1.000000
v -1.000689 1.514462 0.155893 1.000000 1.000000 1.000000 1.000000
v -1.000689 1.514462 0.155893 1.000000 1.000000 1.000000 1.000000
v -1.000689 1.514462 0.484947 1.000000 1.000000 1.000000 1.000000
v -1.000689 1.514462 0.484947 1.000000 1.000000 1.000000 1.000000
v -1.000689 1.514462 0.484947 1.000000 1.000000 1.000000 1.000000
v -1.000689 1.234340 0.529389 1.000000 1.000000 1.000000 1.000000
v -1.000689 1.234340 0.529389 1.000000 1.000000 1.000000 1.000000
v -1.000689 1.234340 0.529389 1.000000 1.000000 1.000000 1.000000
v -1.000689 1.234340 0.858443 1.000000 1.000000 1.000000 1.000000
v -1.000689 1.234340 0.858443 1.000000 1.000000 1.000000 1.000000
v -1.000689 1.234340 0.858443 1.000000 1.000000 1.000000 1.000000
v -1.000689 0.954217 0.902885 1.000000 1.000000 1.000000 1.000000
v -1.000689 0.954217 0.902885 1.000000 1.000000 1.000000 1.000000
v -1.000689 0.954217 0.902885 1.000000 1.000000 1.000000 1.000000
v -1.000689 0.954217 1.231939 1.000000 1.000000 1.000000 1.000000
v -1.000689 0.954217 1.231939 1.000000 1.000000 1.000000 1.000000
v -1.000689 0.954217 1.231939 1.000000 1.000000 1.000000 1.000000
v -1.000689 0.674095 1.276381 1.000000 1.000000 1.000000 1.000000
v -1.000689 0.674095 1.276381 1.000000 1.000000 1.000000 1.000000
v -1.000689 0.674095 1.276381 1.000000 1.000000 1.000000 1.000000
v -1.000689 0.647133 1.605435 1.000000 1.000000 1.000000 1.000000
v -1.000689 0.647133 1.605435 1.000000 1.000000 1.000000 1.000000
v -1.000689 0.647133 1.605435 1.000000 1.000000 1.000000 1.000000
v -1.000689 0.393973 1.649877 1.000000 1.000000 1.000000 1.000000
v -1.000689 0.393973 1.649877 1.000000 1.000000 1.000000 1.000000
v -1.000689 0.393973 1.649877 1.000000 1.000000 1.000000 1.000000
v -1.000689 0.393973 1.978931 1.000000 1.000000 1.000000 1.000000
v -1.000689 0.393973 1.978931 1.000000 1.000000 1.000000 1.000000
v -1.000689 0.393973 1.978931 1.000000 1.000000 1.000000 1.000000
v 0.868125 2.897193 -1.711589 1.000000 1.000000 1.000000 1.000000
v 0.868125 2.897193 -1.711589 1.000000 1.000000 1.000000 1.000000
v 0.868125 2.897193 -1.711589 1.000000 1.000000 1.000000 1.000000
v 0.999311 2.915073 -1.711589 1.000000 1.000000 1.000000 1.000000
v 0.999311 2.915073 -1.711589 1.000000 1.000000 1.000000 1.000000
v 0.999311 2.915073 -1.711589 1.000000 1.000000 1.000000 1.000000
v 0.868125 2.897193 -1.382535 1.000000 1.000000 1.000000 1.000000
v 0.868125 2.897193 -1.382535 1.000000 1.000000 1.000000 1.000000
v 0.868125 2.897193 -1.382535 1.000000 1.000000 1.000000 1.000000
v 0.999311 2.915073 -1.382535 1.000000 1.000000 1.000000 1.000000
v 0.999311 2.915073 -1.382535 1.000000 1.000000 1.000000 1.000000
v 0.999311 2.915073 -1.382535 1.000000 1.000000 1.000000 1.000000
v 0.868125 2.617070 -1.338092 1.000000 1.000000 1.000000 1.000000
v 0.868125 2.617070 -1.338092 1.000000 1.000000 1.000000 1.000000
v 0.868125 2.617070 -1.338092 1.000000 1.000000 1.000000 1.000000
v 0.999311 2.634950 -1.338092 1.000000 1.000000 1.000000 1.000000
v 0.999311 2.634950 -1.338092 1.000000 1.000000 1.000000 1.000000
v 0.999311 2.634950 -1.338092 1.000000 1.000000 1.000000 1.000000
v 0.868125 2.629727 -1.009039 1.000000 1.000000 1.000000 1.000000
v 0.868125 2.629727 -1.009039 1.000000 1.000000 1.000000 1.000000
v 0.868125 2.629727 -1.009039 1.000000 1.000000 1.000000 1.000000
v 0.868125 2.629727 -1.009039 1.000000 1.000000 1.000000 1.000000
v 0.999311 2.660264 -1.009039 1.000000 1.000000 1.000000 1.000000
v 0.999311 2.660264 -1.009039 1.000000 1.000000 1.000000 1.000000
v 0.999311 2.660264 -1.009039 1.000000 1.000000 1.000000 1.000000
v 0.868125 2.336948 -0.964596 1.000000 1.000000 1.000000 1.000000
v 0.868125 2.336948 -0.964596 1.000000 1.000000 1.000000 1.000000
v 0.868125 2.336948 -0.964596 1.000000 1.000000 1.000000 1.000000
v 0.999311 2.354828 -0.964596 1.000000 1.000000 1.000000 1.000000
v 0.999311 2.354828 -0.964596 1.000000 1.000000 1.000000 1.000000
v 0.999311 2.354828 -0.964596 1.000000 1.000000 1.000000 1.000000
v 0.868125 2.347660 -0.635542 1.000000 1.000000 1.000000 1.000000
v 0.868125 2.347660 -0.635542 1.000000 1.000000 1.000000 1.000000
v 0.868125 2.347660 -0.635542 1.000000 1.000000 1.000000 1.000000
v 0.999311 2.354828 -0.635542 1.000000 1.000000 1.000000 1.000000
v 0.999311 2.354828 -0.635542 1.000000 1.000000 1.000000 1.000000
v 0.999311 2.354828 -0.635542 1.000000 1.000000 1.000000 1.000000
v 0.868125 2.056826 -0.591100 1.000000 1.000000 1.000000 1.000000
v 0.868125 2.056826 -0.591100 1.000000 1.000000 1.000000 1.000000
v 0.868125 2.056826 -0.591100 1.000000 1.000000 1.000000 1.000000
v 0.999311 2.074706 -0.591100 1.000000 1.000000 1.000000 1.000000
v 0.999311 2.074706 -0.591100 1.000000 1.000000 1.000000 1.000000
v 0.999311 2.074706 -0.591100 1.000000 1.000000 1.000000 1.000000
v 0.868125 2.056826 -0.262046 1.000000 1.000000 1.000000 1.000000
v 0.868125 2.056826 -0.262046 1.000000 1.000000 1.000000 1.000000
v 0.868125 2.056826 -0.262046 1.000000 1.000000 1.000000 1.000000
v 0.999311 2.074706 -0.262046 1.000000 1.000000 1.000000 1.000000
v 0.999311 2.074706 -0.262046 1.000000 1.000000 1.000000 1.000000
v 0.999311 2.074706 -0.262046 1.000000 1.000000 1.000000 1.000000
v 0.868125 1.776704 -0.217604 1.000000 1.000000 1.000000 1.000000
v 0.868125 1.776704 -0.217604 1.000000 1.000000 1.000000 1.000000
v 0.868125 1.776704 -0.217604 1.000000 1.000000 1.000000 1.000000
v 0.999311 1.794584 -0.217604 1.000000 1.000000 1.000000 1.000000
v 0.999311 1.794584 -0.217604 1.000000 1.000000 1.000000 1.000000
v 0.999311 1.794584 -0.217604 1.000000 1.000000 1.000000 1.000000
v 0.868125 1.776704 0.111450 1.000000 1.000000 1.000000 1.000000
v 0.868125 1.776704 0.111450 1.000000 1.000000 1.000000 1.000000
v 0.868125 1.776704 0.111450 1.000000 1.000000 1.000000 1.000000
v 0.999311 1.794584 0.111450 1.000000 1.000000 1.000000 1.000000
v 0.999311 1.794584 0.111450 1.000000 1.000000 1.000000 1.000000
v 0.999311 1.794584 0.111450 1.000000 1.000000 1.000000 1.000000
v 0.868125 1.496582 0.155893 1.000000 1.000000 1.000000 1.000000
v 0.868125 1.496582 0.155893 1.000000 1.000000 1.000000 1.000000
v 0.868125 1.496582 0.155893 1.000000 1.000000 1.000000 1.000000
v 0.999311 1.514462 0.155893 1.000000 1.000000 1.000000 1.000000
v 0.999311 1.514462 0.155893 1.000000 1.000000 1.000000 1.000000
v 0.999311 1.514462 0.155893 1.000000 1.000000 1.000000 1.000000
v 0.868125 1.480139 0.484947 1.000000 1.000000 1.000000 1.000000
v 0.868125 1.480139 0.484947 1.000000 1.000000 1.000000 1.000000
v 0.868125 1.480139 0.484947 1.000000 1.000000 1.000000 1.000000
v 0.868125 1.480139 0.484947 1.000000 1.000000 1.000000 1.000000
v 0.999311 1.481576 0.484947 1.000000 1.000000 1.000000 1.000000
v 0.999311 1.481576 0.484947 1.000000 1.000000 1.000000 1.000000
v 0.999311 1.481576 0.484947 1.000000 1.000000 1.000000 1.000000
v 0.868125 1.216460 0.529389 1.000000 1.000000 1.000000 1.000000
v 0.868125 1.216460 0.529389 1.000000 1.000000 1.000000 1.000000
v 0.868125 1.216460 0.529389 1.000000 1.000000 1.000000 1.000000
v 0.999311 1.234340 0.529389 1.000000 1.000000 1.000000 1.000000
v 0.999311 1.234340 0.529389 1.000000 1.000000 1.000000 1.000000
v 0.999311 1.234340 0.529389 1.000000 1.000000 1.000000 1.000000
v 0.868125 1.216460 0.858443 1.000000 1.000000 1.000000 1.000000
v 0.868125 1.216460 0.858443 1.000000 1.000000 1.000000 1.000000
v 0.868125 1.216460 0.858443 1.000000 1.000000 1.000000 1.000000
v 0.999311 1.234340 0.858443 1.000000 1.000000 1.000000 1.000000
v 0.999311 1.234340 0.858443 1.000000 1.000000 1.000000 1.000000
v 0.999311 1.234340 0.858443 1.000000 1.000000 1.000000 1.000000
v 0.868125 0.920358 0.902885 1.000000 1.000000 1.000000 1.000000
v 0.868125 0.920358 0.902885 1.000000 1.000000 1.000000 1.000000
v 0.868125 0.920358 0.902885 1.000000 1.000000 1.000000 1.000000
v 0.999311 0.954217 0.902885 1.000000 1.000000 1.000000 1.000000
v 0.999311 0.954217 0.902885 1.000000 1.000000 1.000000 1.000000
v 0.999311 0.954217 0.902885 1.000000 1.000000 1.000000 1.000000
v 0.868125 0.936337 1.231939 1.000000 1.000000 1.000000 1.000000
v 0.868125 0.936337 1.231939 1.000000 1.000000 1.000000 1.000000
v 0.868125 0.936337 1.231939 1.000000 1.000000 1.000000 1.000000
v 0.999311 0.954217 1.231939 1.000000 1.000000 1.000000 1.000000
v 0.999311 0.954217 1.231939 1.000000 1.000000 1.000000 1.000000
v 0.999311 0.954217 1.231939 1.000000 1.000000 1.000000 1.000000
v 0.868125 0.656215 1.276381 1.000000 1.000000 1.000000 1.000000
v 0.868125 0.656215 1.276381 1.000000 1.000000 1.000000 1.000000
v 0.868125 0.656215 1.276381 1.000000 1.000000 1.000000 1.000000
v 0.999311 0.674095 1.276381 1.000000 1.000000 1.000000 1.000000
v 0.999311 0.674095 1.276381 1.000000 1.000000 1.000000 1.000000
v 0.999311 0.674095 1.276381 1.000000 1.000000 1.000000 1.000000
v 0.868125 0.656215 1.605435 1.000000 1.000000 1.000000 1.000000
v 0.868125 0.656215 1.605435 1.000000 1.000000 1.000000 1.000000
v 0.868125 0.656215 1.605435 1.000000 1.000000 1.000000 1.000000
v 0.999311 0.674095 1.605435 1.000000 1.000000 1.000000 1.000000
v 0.999311 0.674095 1.605435 1.000000 1.000000 1.000000 1.000000
v 0.999311 0.674095 1.605435 1.000000 1.000000 1.000000 1.000000
v 0.868125 0.376093 1.649877 1.000000 1.000000 1.000000 1.000000
v 0.868125 0.376093 1.649877 1.000000 1.000000 1.000000 1.000000
v 0.868125 0.376093 1.649877 1.000000 1.000000 1.000000 1.000000
v 0.999311 0.393973 1.649877 1.000000 1.000000 1.000000 1.000000
v 0.999311 0.393973 1.649877 1.000000 1.000000 1.000000 1.000000
v 0.999311 0.393973 1.649877 1.000000 1.000000 1.000000 1.000000
v 0.868125 0.376093 1.978931 1.000000 1.000000 1.000000 1.000000
v 0.868125 0.376093 1.978931 1.000000 1.000000 1.000000 1.000000
v 0.868125 0.376093 1.978931 1.000000 1.000000 1.000000 1.000000
v 0.999311 0.393973 1.978931 1.000000 1.000000 1.000000 1.000000
v 0.999311 0.393973 1.978931 1.000000 1.000000 1.000000 1.000000
v 0.999311 0.393973 1.978931 1.000000 1.000000 1.000000 1.000000
v -0.869503 2.897193 -1.711589 1.000000 1.000000 1.000000 1.000000
v -0.869503 2.897193 -1.711589 1.000000 1.000000 1.000000 1.000000
v -0.869503 2.897193 -1.711589 1.000000 1.000000 1.000000 1.000000
v -0.869503 2.877188 -1.382535 1.000000 1.000000 1.000000 1.000000
v -0.869503 2.877188 -1.382535 1.000000 1.000000 1.000000 1.000000
v -0.869503 2.877188 -1.382535 1.000000 1.000000 1.000000 1.000000
v -0.869503 2.617070 -1.338092 1.000000 1.000000 1.000000 1.000000
v -0.869503 2.617070 -1.338092 1.000000 1.000000 1.000000 1.000000
v -0.869503 2.617070 -1.338092 1.000000 1.000000 1.000000 1.000000
v -0.869503 2.617070 -1.009039 1.000000 1.000000 1.000000 1.000000
v -0.869503 2.617070 -1.009039 1.000000 1.000000 1.000000 1.000000
v -0.869503 2.617070 -1.009039 1.000000 1.000000 1.000000 1.000000
v -0.869503 2.336948 -0.964596 1.000000 1.000000 1.000000 1.000000
v -0.869503 2.336948 -0.964596 1.000000 1.000000 1.000000 1.000000
v -0.869503 2.336948 -0.964596 1.000000 1.000000 1.000000 1.000000
v -0.869503 2.347660 -0.635542 1.000000 1.000000 1.000000 1.000000
v -0.869503 2.347660 -0.635542 1.000000 1.000000 1.000000 1.000000
v -0.869503 2.347660 -0.635542 1.000000 1.000000 1.000000 1.000000
v -0.869503 2.056826 -0.591100 1.000000 1.000000 1.000000 1.000000
v -0.869503 2.056826 -0.591100 1.000000 1.000000 1.000000 1.000000
v -0.869503 2.056826 -0.591100 1.000000 1.000000 1.000000 1.000000
v -0.869503 2.056826 -0.591100 1.000000 1.000000 1.000000 1.000000
v -0.869503 2.044746 -0.262046 1.000000 1.000000 1.000000 1.000000
v -0.869503 2.044746 -0.262046 1.000000 1.000000 1.000000 1.000000
v -0.869503 2.044746 -0.262046 1.000000 1.000000 1.000000 1.000000
v -0.869503 1.776704 -0.217604 1.000000 1.000000 1.000000 1.000000
v -0.869503 1.776704 -0.217604 1.000000 1.000000 1.000000 1.000000
v -0.869503 1.776704 -0.217604 1.000000 1.000000 1.000000 1.000000
v -0.869503 1.776704 0.111450 1.000000 1.000000 1.000000 1.000000
v -0.869503 1.776704 0.111450 1.000000 1.000000 1.000000 1.000000
v -0.869503 1.776704 0.111450 1.000000 1.000000 1.000000 1.000000
v -0.869503 1.496582 0.155893 1.000000 1.000000 1.000000 1.000000
v -0.869503 1.496582 0.155893 1.000000 1.000000 1.000000 1.000000
v -0.869503 1.496582 0.155893 1.000000 1.000000 1.000000 1.000000
v -0.869503 1.496582 0.484947 1.000000 1.000000 1.000000 1.000000
v -0.869503 1.496582 0.484947 1.000000 1.000000 1.000000 1.000000
v -0.869503 1.496582 0.484947 1.000000 1.000000 1.000000 1.000000
v -0.869503 1.216460 0.529389 1.000000 1.000000 1.000000 1.000000
v -0.869503 1.216460 0.529389 1.000000 1.000000 1.000000 1.000000
v -0.869503 1.216460 0.529389 1.000000 1.000000 1.000000 1.000000
v -0.869503 1.216460 0.858443 1.000000 1.000000 1.000000 1.000000
v -0.869503 1.216460 0.858443 1.000000 1.000000 1.000000 1.000000
v -0.869503 1.216460 0.858443 1.000000 1.000000 1.000000 1.000000
v -0.869503 0.920358 0.902885 1.000000 1.000000 1.000000 1.000000
v -0.869503 0.920358 0.902885 1.000000 1.000000 1.000000 1.000000
v -0.869503 0.920358 0.902885 1.000000 1.000000 1.000000 1.000000
v -0.869503 0.936337 1.231939 1.000000 1.000000 1.000000 1.000000
v -0.869503 0.936337 1.231939 1.000000 1.000000 1.000000 1.000000
v -0.869503 0.936337 1.231939 1.000000 1.000000 1.000000 1.000000
v -0.869503 0.656215 1.276381 1.000000 1.000000 1.000000 1.000000
v -0.869503 0.656215 1.276381 1.000000 1.000000 1.000000 1.000000
v -0.869503 0.656215 1.276381 1.000000 1.000000 1.000000 1.000000
v -0.869503 0.642734 1.605435 1.000000 1.000000 1.000000 1.000000
v -0.869503 0.642734 1.605435 1.000000 1.000000 1.000000 1.000000
v -0.869503 0.642734 1.605435 1.000000 1.000000 1.000000 1.000000
v -0.869503 0.376093 1.649877 1.000000 1.000000 1.000000 1.000000
v -0.869503 0.376093 1.649877 1.000000 1.000000 1.000000 1.000000
v -0.869503 0.376093 1.649877 1.000000 1.000000 1.000000 1.000000
v -0.869503 0.376093 1.978931 1.000000 1.000000 1.000000 1.000000
v -0.869503 0.376093 1.978931 1.000000 1.000000 1.000000 1.000000
v -0.869503 0.376093 1.978931 1.000000 1.000000 1.000000 1.000000
vt 0.474581 0.001660
vt 0.888736 0.720146
vt 0.001660 0.001660
vt 0.238120 0.480077
vt 0.001660 0.476758
vt 0.238120 0.955175
vt 0.474581 0.032995
vt 0.857401 0.720146
vt 0.032995 0.476758
vt 0.430422 0.032995
vt 0.560364 0.480077
vt 0.304661 0.936559
vt 0.430423 0.072903
vt 0.520462 0.480794
vt 0.386264 0.077154
vt 0.832166 0.716538
vt 0.806195 0.960395
vt 0.386264 0.121312
vt 0.876325 0.716538
vt 0.342105 0.121312
vt 0.728549 0.480222
vt 0.276012 0.935824
vt 0.342105 0.165471
vt 0.684390 0.480222
vt 0.297947 0.165471
vt 0.244484 0.716481
vt 0.966430 0.959733
vt 0.297947 0.209630
vt 0.288631 0.717449
vt 0.253788 0.209630
vt 0.659156 0.956462
vt 0.341676 0.961324
vt 0.253788 0.253788
vt 0.703315 0.956462
vt 0.209630 0.253788
vt 0.642659 0.480077
vt 0.954141 0.453547
vt 0.209630 0.294138
vt 0.602314 0.480727
vt 0.165471 0.297947
vt 0.748180 0.716538
vt 0.370365 0.964573
vt 0.165471 0.342105
vt 0.792339 0.716538
vt 0.121312 0.342105
vt 0.478643 0.480077
vt 0.466708 0.961367
vt 0.121312 0.386264
vt 0.434490 0.480822
vt 0.077154 0.386264
vt 0.391514 0.480077
vt 0.634464 0.961315
vt 0.077154 0.424115
vt 0.353676 0.481086
vt 0.032995 0.430423
vt 0.988454 0.425541
vt 0.001660 0.480077
vt 0.950822 0.001660
vt 0.001660 0.955175
vt 0.950822 0.476758
vt 0.888736 0.956607
vt 0.477900 0.001660
vt 0.919486 0.476758
vt 0.130261 0.989389
vt 0.919486 0.430423
vt 0.353676 0.717631
vt 0.875328 0.430423
vt 0.036032 0.989389
vt 0.397819 0.716454
vt 0.875328 0.386264
vt 0.434491 0.717317
vt 0.831169 0.390254
vt 0.133580 0.961220
vt 0.482633 0.716504
vt 0.831169 0.342105
vt 0.792339 0.480077
vt 0.787010 0.342105
vt 0.054878 0.989389
vt 0.748180 0.480077
vt 0.787010 0.297947
vt 0.602315 0.717218
vt 0.742852 0.297947
vt 0.092570 0.989389
vt 0.646468 0.716507
vt 0.742852 0.253788
vt 0.703315 0.720001
vt 0.698693 0.253788
vt 0.017186 0.989389
vt 0.659156 0.720001
vt 0.698693 0.209630
vt 0.288632 0.480931
vt 0.654535 0.204445
vt 0.111415 0.989389
vt 0.249667 0.480077
vt 0.654535 0.165471
vt 0.684390 0.716682
vt 0.610376 0.165471
vt 0.322811 0.935664
vt 0.728549 0.716682
vt 0.610376 0.121312
vt 0.876325 0.480077
vt 0.566217 0.121312
vt 0.485554 0.989373
vt 0.832166 0.480077
vt 0.566217 0.077154
vt 0.520463 0.717293
vt 0.522059 0.077154
vt 0.073724 0.989389
vt 0.564614 0.716500
vt 0.522059 0.032995
vt 0.857400 0.956607
vt 0.477900 0.032995
vt 0.119890 0.480077
vt 0.119890 0.953086
vt 0.888736 0.941097
vt 0.481982 0.816045
vt 0.114734 0.992115
vt 0.481982 0.860204
vt 0.356080 0.702051
vt 0.567974 0.768535
vt 0.567974 0.768535
vt 0.020505 0.992115
vt 0.400223 0.700874
vt 0.567974 0.812739
vt 0.439042 0.701728
vt 0.790697 0.811722
vt 0.149107 0.958494
vt 0.485190 0.700949
vt 0.790697 0.767531
vt 0.791209 0.495587
vt 0.649738 0.910948
vt 0.039351 0.992115
vt 0.745362 0.495587
vt 0.649738 0.955107
vt 0.604883 0.701665
vt 0.821468 0.862551
vt 0.077043 0.992115
vt 0.649036 0.700954
vt 0.821468 0.906710
vt 0.700496 0.735512
vt 0.482091 0.720963
vt 0.482091 0.720963
vt 0.001660 0.992115
vt 0.656337 0.735512
vt 0.482091 0.765197
vt 0.288066 0.496433
vt 0.481982 0.911000
vt 0.095889 0.992114
vt 0.246509 0.495522
vt 0.481982 0.955159
vt 0.687209 0.701172
vt 0.537122 0.765216
vt 0.338357 0.930429
vt 0.733886 0.701172
vt 0.537122 0.720986
vt 0.873506 0.495587
vt 0.821469 0.910029
vt 0.470027 0.992098
vt 0.829348 0.495587
vt 0.821469 0.954187
vt 0.523002 0.701735
vt 0.567893 0.816058
vt 0.058197 0.992115
vt 0.567154 0.700941
vt 0.567893 0.860217
vt 0.860219 0.941097
vt 0.888736 0.735656
vt 0.972957 0.422652
vt 0.618967 0.720853
vt 0.353755 0.496600
vt 0.618967 0.765124
vt 0.394745 0.495506
vt 0.618967 0.958426
vt 0.567893 0.907694
vt 0.437570 0.496283
vt 0.567893 0.863536
vt 0.481723 0.495537
vt 0.451211 0.958478
vt 0.790697 0.815041
vt 0.791209 0.701028
vt 0.790697 0.859232
vt 0.745362 0.701028
vt 0.385862 0.967462
vt 0.790697 0.720012
vt 0.603478 0.496220
vt 0.790697 0.764212
vt 0.790697 0.764212
vt 0.645727 0.495540
vt 0.969638 0.456436
vt 0.618967 0.863471
vt 0.700496 0.940952
vt 0.618967 0.907629
vt 0.656337 0.940952
vt 0.357173 0.964213
vt 0.618967 0.815993
vt 0.286154 0.701881
vt 0.618967 0.860152
vt 0.242006 0.700913
vt 0.981927 0.962622
vt 0.537122 0.911013
vt 0.687209 0.495732
vt 0.537122 0.955172
vt 0.733886 0.495732
vt 0.260523 0.930426
vt 0.618967 0.768444
vt 0.873506 0.701028
vt 0.618967 0.812674
vt 0.829348 0.701028
vt 0.790697 0.957506
vt 0.451211 0.768516
vt 0.521434 0.496289
vt 0.451211 0.812726
vt 0.563461 0.495534
vt 0.289164 0.933670
vt 0.451211 0.863523
vt 0.860219 0.735656
vt 0.451211 0.907681
vt 0.035759 0.461194
vt 0.988454 0.456436
vt 0.289164 0.761001
vt 0.074663 0.454886
vt 0.322811 0.481744
vt 0.289342 0.721589
vt 0.079917 0.417035
vt 0.634464 0.992210
vt 0.524441 0.929834
vt 0.118821 0.417035
vt 0.403621 0.481199
vt 0.524441 0.968738
vt 0.124076 0.372877
vt 0.466708 0.992262
vt 0.370365 0.888100
vt 0.162980 0.372876
vt 0.823210 0.716693
vt 0.370365 0.849196
vt 0.168234 0.328718
vt 0.370365 0.933678
vt 0.370365 0.845877
vt 0.207139 0.324909
vt 0.571445 0.481067
vt 0.370591 0.806787
vt 0.212393 0.284559
vt 0.954141 0.422652
vt 0.761626 0.967950
vt 0.251297 0.284559
vt 0.734186 0.956607
vt 0.761626 0.929046
vt 0.256552 0.240401
vt 0.341676 0.930429
vt 0.386129 0.891455
vt 0.295456 0.240401
vt 0.319492 0.718270
vt 0.386129 0.930359
vt 0.300710 0.196242
vt 0.966430 0.928838
vt 0.505357 0.929834
vt 0.339614 0.196242
vt 0.653519 0.480077
vt 0.505357 0.968738
vt 0.344869 0.152083
vt 0.276012 0.966719
vt 0.289164 0.845716
vt 0.383773 0.152083
vt 0.907196 0.716682
vt 0.289164 0.806812
vt 0.389027 0.107925
vt 0.806195 0.991290
vt 0.304927 0.764320
vt 0.427932 0.103674
vt 0.489593 0.481191
vt 0.304690 0.803455
vt 0.433186 0.063766
vt 0.304661 0.967454
vt 0.587209 0.929774
vt 0.472090 0.063766
vt 0.826529 0.720001
vt 0.587209 0.968678
vt 0.451211 0.818808
vt 0.963111 0.928838
vt 0.114734 0.961220
vt 0.947347 0.928838
vt 0.130261 0.958494
vt 0.916723 0.461194
vt 0.451211 0.857713
vt 0.963111 0.967742
vt 0.325215 0.702694
vt 0.947347 0.967742
vt 0.322811 0.718273
vt 0.877819 0.461194
vt 0.537359 0.772685
vt 0.370365 0.760842
vt 0.020505 0.961220
vt 0.386128 0.760698
vt 0.036032 0.958494
vt 0.872564 0.417035
vt 0.537122 0.811639
vt 0.537122 0.811639
vt 0.370365 0.721887
vt 0.408172 0.702054
vt 0.386602 0.721592
vt 0.403621 0.717643
vt 0.833660 0.421025
vt 0.821340 0.807785
vt 0.289164 0.930351
vt 0.149107 0.989389
vt 0.304928 0.930315
vt 0.133580 0.992114
vt 0.828406 0.372876
vt 0.821541 0.768844
vt 0.289377 0.891411
vt 0.822080 0.495757
vt 0.304928 0.891411
vt 0.823210 0.480247
vt 0.789501 0.372876
vt 0.618967 0.913712
vt 0.422704 0.968728
vt 0.039351 0.961220
vt 0.438468 0.968728
vt 0.054878 0.958494
vt 0.784247 0.328718
vt 0.618967 0.952616
vt 0.422704 0.929824
vt 0.574013 0.701981
vt 0.438468 0.929824
vt 0.571445 0.717534
vt 0.745343 0.328718
vt 0.790697 0.865314
vt 0.606292 0.929774
vt 0.077043 0.961220
vt 0.590528 0.929774
vt 0.092570 0.958494
vt 0.740088 0.284559
vt 0.790697 0.904219
vt 0.606292 0.968678
vt 0.731367 0.735693
vt 0.590528 0.968678
vt 0.734186 0.720183
vt 0.701184 0.284559
vt 0.451211 0.721918
vt 0.370365 0.803152
vt 0.001660 0.961220
vt 0.386127 0.803424
vt 0.017186 0.958494
vt 0.695930 0.240401
vt 0.451519 0.760907
vt 0.451519 0.760907
vt 0.370365 0.764161
vt 0.318926 0.497274
vt 0.385877 0.764176
vt 0.319492 0.481772
vt 0.657026 0.235216
vt 0.451211 0.913764
vt 0.419385 0.929824
vt 0.095889 0.961220
vt 0.403621 0.929824
vt 0.111415 0.958494
vt 0.651771 0.196242
vt 0.451211 0.952668
vt 0.419385 0.968728
vt 0.656337 0.700991
vt 0.403621 0.968728
vt 0.653519 0.716501
vt 0.612867 0.196242
vt 0.567686 0.760705
vt 0.289164 0.888092
vt 0.338357 0.961324
vt 0.305567 0.888015
vt 0.322811 0.966558
vt 0.607613 0.152083
vt 0.567985 0.721720
vt 0.289803 0.849111
vt 0.904378 0.495768
vt 0.305567 0.849111
vt 0.907196 0.480258
vt 0.568708 0.152083
vt 0.790697 0.912792
vt 0.257204 0.930426
vt 0.470027 0.961203
vt 0.241439 0.930426
vt 0.485554 0.958478
vt 0.563454 0.107925
vt 0.790697 0.951696
vt 0.257204 0.969330
vt 0.492133 0.702109
vt 0.241439 0.969330
vt 0.489593 0.717667
vt 0.524550 0.107925
vt 0.537122 0.818821
vt 0.758307 0.929046
vt 0.058197 0.961220
vt 0.742543 0.929046
vt 0.073724 0.958494
vt 0.519295 0.063766
vt 0.537122 0.857726
vt 0.758307 0.967950
vt 0.829348 0.940916
vt 0.742543 0.967950
vt 0.826529 0.956426
vt 0.480391 0.063766
vt 0.972957 0.453547
vt 0.304924 0.760621
vt 0.649857 0.721418
vt 0.322890 0.497258
vt 0.304856 0.721589
vt 0.649483 0.760448
vt 0.618967 0.989321
vt 0.508676 0.929834
vt 0.537122 0.904931
vt 0.406701 0.496659
vt 0.508676 0.968738
vt 0.537122 0.866027
vt 0.451211 0.989373
vt 0.386129 0.888136
vt 0.821340 0.818978
vt 0.822080 0.701183
vt 0.385916 0.849196
vt 0.821541 0.857919
vt 0.385862 0.936567
vt 0.386128 0.845693
vt 0.821559 0.721448
vt 0.821559 0.721448
vt 0.572608 0.496560
vt 0.386128 0.806742
vt 0.821333 0.760398
vt 0.969638 0.425541
vt 0.777390 0.967950
vt 0.649738 0.866234
vt 0.731367 0.941097
vt 0.777390 0.929046
vt 0.649738 0.905138
vt 0.357173 0.933318
vt 0.370365 0.891455
vt 0.649738 0.818756
vt 0.317014 0.702702
vt 0.370365 0.930359
vt 0.649738 0.857661
vt 0.981927 0.931727
vt 0.489593 0.929834
vt 0.567893 0.913777
vt 0.656337 0.495587
vt 0.489593 0.968738
vt 0.567893 0.952681
vt 0.260523 0.961321
vt 0.305567 0.845792
vt 0.649531 0.772955
vt 0.904378 0.701172
vt 0.304928 0.806812
vt 0.649830 0.811939
vt 0.790697 0.988401
vt 0.289164 0.764531
vt 0.482079 0.769797
vt 0.490565 0.496686
vt 0.289164 0.803493
vt 0.481827 0.808759
vt 0.289164 0.964565
vt 0.571445 0.929774
vt 0.481982 0.866286
vt 0.829348 0.735512
vt 0.571445 0.968678
vt 0.481982 0.905190
vn -1.000000 0.000000 0.000000
vn 0.000000 0.000000 1.000000
vn -1.000000 0.000000 0.000000
vn 0.000000 0.000000 -1.000000
vn -1.000000 0.000000 0.000000
vn 0.000000 0.000000 -1.000000
vn -0.999994 -0.003467 -0.000000
vn 0.008194 0.060089 0.998159
vn -1.000000 0.000000 0.000000
vn -0.999994 -0.003467 -0.000000
vn 0.000000 0.000000 1.000000
vn 0.016249 0.118958 -0.992766
vn -0.999995 -0.003200 -0.000200
vn 0.001899 0.055431 0.998461
vn -0.999994 -0.003333 -0.000300
vn 0.000000 0.000000 1.000000
vn 0.016249 0.118958 -0.992766
vn -0.999994 -0.003467 -0.000000
vn 0.008194 0.060089 0.998159
vn -0.999994 -0.003467 -0.000000
vn 0.000000 0.000000 1.000000
vn 0.030704 0.119096 -0.992408
vn -0.999994 -0.003467 -0.000000
vn 0.008194 0.060089 0.998159
vn -0.999994 -0.003467 -0.000000
vn 0.000000 0.000000 1.000000
vn 0.016249 0.118958 -0.992766
vn -0.999994 -0.003467 -0.000000
vn 0.008194 0.060089 0.998159
vn -0.999994 -0.003467 -0.000000
vn 0.000000 0.000000 1.000000
vn 0.016249 0.118958 -0.992766
vn -0.999994 -0.003467 -0.000000
vn 0.008194 0.060089 0.998159
vn -0.999994 -0.003467 -0.000000
vn 0.000000 0.000000 1.000000
vn 0.016249 0.118958 -0.992766
vn -0.999995 -0.003200 -0.000200
vn 0.002498 0.055962 0.998430
vn -0.999994 -0.003333 -0.000200
vn 0.000000 0.000000 1.000000
vn 0.016249 0.118958 -0.992766
vn -0.999994 -0.003467 -0.000000
vn 0.003098 0.056361 0.998406
vn -0.999994 -0.003333 -0.000000
vn 0.000000 0.000000 1.000000
vn 0.016249 0.118958 -0.992766
vn -0.999994 -0.003467 -0.000000
vn 0.008194 0.060089 0.998159
vn -0.999994 -0.003467 -0.000000
vn 0.000000 0.000000 1.000000
vn 0.016249 0.118958 -0.992766
vn -0.999995 -0.003200 -0.000300
vn -0.000899 0.053167 0.998585
vn -0.999994 -0.003333 -0.000400
vn 0.016249 0.118958 -0.992766
vn 0.000000 0.000000 -1.000000
vn 1.000000 0.000000 0.000000
vn 0.000000 0.000000 -1.000000
vn 1.000000 0.000000 0.000000
vn 0.000000 0.000000 1.000000
vn 1.000000 0.000000 0.000000
vn 1.000000 0.000000 0.000000
vn -0.016149 0.118827 -0.992784
vn 0.999994 0.003467 0.000000
vn -0.008193 0.059817 0.998176
vn 0.999994 0.003467 0.000000
vn -0.016149 0.118827 -0.992784
vn 0.000000 0.000000 1.000000
vn 0.999994 0.003467 -0.000200
vn -0.014887 0.063945 0.997842
vn 0.999993 0.003600 -0.000300
vn -0.016149 0.118827 -0.992784
vn 0.000000 0.000000 1.000000
vn 0.999994 0.003467 0.000000
vn -0.003098 0.056228 0.998413
vn 0.999994 0.003467 0.000000
vn -0.016149 0.118827 -0.992784
vn 0.000000 0.000000 1.000000
vn 0.999994 0.003467 0.000000
vn -0.008193 0.059817 0.998176
vn 0.999994 0.003467 0.000000
vn -0.016149 0.118827 -0.992784
vn 0.000000 0.000000 1.000000
vn 0.999994 0.003467 0.000000
vn -0.008193 0.059817 0.998176
vn 0.999994 0.003467 0.000000
vn -0.016149 0.118827 -0.992784
vn 0.000000 0.000000 1.000000
vn 0.999994 0.003333 0.000300
vn -0.000600 0.054230 0.998528
vn 0.999995 0.003200 0.000300
vn -0.016149 0.118827 -0.992784
vn 0.000000 0.000000 1.000000
vn 0.999994 0.003467 0.000000
vn -0.008193 0.059817 0.998176
vn 0.999994 0.003467 0.000000
vn -0.030607 0.118572 -0.992474
vn 0.000000 0.000000 1.000000
vn 0.999994 0.003333 0.000000
vn -0.008193 0.059817 0.998176
vn 0.999994 0.003467 0.000000
vn -0.016149 0.118827 -0.992784
vn 0.000000 0.000000 1.000000
vn 0.999994 0.003467 0.000000
vn -0.008193 0.059817 0.998176
vn 0.999994 0.003467 0.000000
vn -0.016149 0.118827 -0.992784
vn 0.000000 0.000000 1.000000
vn 0.999994 0.003467 0.000000
vn -0.008193 0.059817 0.998176
vn 0.999994 0.003467 0.000000
vn 0.000000 0.000000 -1.000000
vn 0.000000 0.000000 -1.000000
vn 0.000000 0.000000 1.000000
vn -0.999975 -0.007066 -0.000000
vn -0.016149 0.118827 -0.992784
vn -0.999975 -0.007066 -0.000000
vn -0.004399 0.031993 0.999478
vn -0.999975 -0.007066 0.000200
vn -0.999975 -0.007066 0.000300
vn -0.016149 0.118827 -0.992784
vn 0.000000 0.000000 1.000000
vn -0.999975 -0.007066 0.000200
vn -0.006799 0.029329 0.999547
vn -0.999975 -0.007066 0.000200
vn -0.016149 0.118827 -0.992784
vn 0.000000 0.000000 1.000000
vn -0.999975 -0.007066 0.000200
vn -0.001899 0.034390 0.999407
vn -0.999975 -0.007066 -0.000000
vn -0.016149 0.118827 -0.992784
vn 0.000000 0.000000 1.000000
vn -0.999975 -0.007066 -0.000000
vn -0.004399 0.031993 0.999478
vn -0.999975 -0.007066 -0.000000
vn -0.016149 0.118827 -0.992784
vn 0.000000 0.000000 1.000000
vn -0.999975 -0.007066 -0.000000
vn -0.004399 0.031993 0.999478
vn -0.999975 -0.007066 -0.000400
vn -0.999975 -0.007066 -0.000300
vn -0.016149 0.118827 -0.992784
vn 0.000000 0.000000 1.000000
vn -0.999975 -0.007066 -0.000300
vn -0.000600 0.035592 0.999366
vn -0.999975 -0.007066 -0.000000
vn -0.016149 0.118827 -0.992784
vn 0.000000 0.000000 1.000000
vn -0.999975 -0.007066 -0.000000
vn -0.004399 0.031993 0.999478
vn -0.999975 -0.007066 0.000300
vn -0.030607 0.118572 -0.992474
vn 0.000000 0.000000 1.000000
vn -0.999975 -0.007066 0.000300
vn -0.004399 0.031993 0.999478
vn -0.999975 -0.007066 -0.000000
vn -0.016149 0.118827 -0.992784
vn 0.000000 0.000000 1.000000
vn -0.999975 -0.007066 -0.000000
vn -0.004399 0.031993 0.999478
vn -0.999975 -0.007066 -0.000000
vn -0.016149 0.118827 -0.992784
vn 0.000000 0.000000 1.000000
vn -0.999975 -0.007066 -0.000000
vn -0.004399 0.031993 0.999478
vn 0.000000 0.000000 1.000000
vn 0.016249 0.118958 -0.992766
vn 0.999975 0.007066 0.000400
vn -0.000600 0.036257 0.999342
vn 0.999975 0.007066 0.000400
vn 0.000000 0.000000 1.000000
vn 0.016249 0.118958 -0.992766
vn 0.999975 0.007066 0.000000
vn 0.004399 0.031860 0.999483
vn 0.999975 0.007066 0.000000
vn 0.000000 0.000000 1.000000
vn 0.016249 0.118958 -0.992766
vn 0.999975 0.007066 -0.000200
vn 0.001899 0.034257 0.999411
vn 0.999975 0.007066 -0.000200
vn 0.000000 0.000000 1.000000
vn 0.016249 0.118958 -0.992766
vn 0.999975 0.007066 0.000200
vn 0.001500 0.034523 0.999403
vn 0.999975 0.007066 0.000200
vn 0.999975 0.007066 0.000300
vn 0.000000 0.000000 1.000000
vn 0.016249 0.118958 -0.992766
vn 0.999975 0.007066 0.000000
vn 0.004399 0.031860 0.999483
vn 0.999975 0.007066 0.000000
vn 0.000000 0.000000 1.000000
vn 0.016249 0.118958 -0.992766
vn 0.999975 0.007066 0.000000
vn 0.004399 0.031860 0.999483
vn 0.999975 0.007066 0.000000
vn 0.000000 0.000000 1.000000
vn 0.016249 0.118958 -0.992766
vn 0.999975 0.007066 0.000000
vn 0.004399 0.031860 0.999483
vn 0.999975 0.007066 0.000000
vn 0.000000 0.000000 1.000000
vn 0.030704 0.119096 -0.992408
vn 0.999975 0.007066 -0.000300
vn 0.004399 0.031860 0.999483
vn 0.999975 0.007066 -0.000300
vn 0.000000 0.000000 1.000000
vn 0.016249 0.118958 -0.992766
vn 0.999975 0.007066 0.000300
vn 0.001200 0.034789 0.999394
vn 0.999975 0.007066 0.000300
vn 0.000000 0.000000 1.000000
vn 0.016249 0.118958 -0.992766
vn 0.999975 0.007066 0.000000
vn 0.004399 0.031860 0.999483
vn 0.999975 0.007066 0.000000
vn -0.999976 -0.006933 -0.000800
vn 0.016249 0.118958 -0.992766
vn 0.059670 0.994095 0.090635
vn -0.999975 -0.007066 -0.000800
vn -0.001696 0.107332 0.994222
vn 0.059670 0.994095 0.090635
vn -0.999975 -0.007066 -0.000000
vn 0.016249 0.118958 -0.992766
vn 0.135046 0.990839 0.000000
vn -0.999975 -0.007066 -0.000000
vn 0.014663 0.107463 0.994101
vn 0.135046 0.990839 0.000000
vn -0.999975 -0.007066 -0.000000
vn 0.016249 0.118958 -0.992766
vn 0.094988 0.995347 -0.016183
vn -0.999975 -0.007066 -0.000000
vn 0.005885 0.107331 0.994206
vn 0.094988 0.995347 -0.016183
vn -0.999976 -0.006933 -0.000500
vn 0.016249 0.118958 -0.992766
vn 0.089784 0.994455 0.054759
vn -0.999975 -0.007066 -0.000500
vn 0.004788 0.107331 0.994212
vn 0.089784 0.994455 0.054759
vn -0.999975 -0.007066 -0.000000
vn 0.016249 0.118958 -0.992766
vn 0.135046 0.990839 0.000000
vn -0.999975 -0.007066 -0.000000
vn 0.014663 0.107463 0.994101
vn 0.135046 0.990839 0.000000
vn -0.999975 -0.007066 -0.000000
vn 0.016249 0.118958 -0.992766
vn 0.135046 0.990839 0.000000
vn -0.999975 -0.007066 -0.000000
vn 0.014663 0.107463 0.994101
vn 0.135046 0.990839 0.000000
vn -0.999975 -0.007066 -0.000000
vn 0.016249 0.118958 -0.992766
vn 0.135046 0.990839 0.000000
vn -0.999975 -0.007066 -0.000000
vn 0.014663 0.107463 0.994101
vn 0.135046 0.990839 0.000000
vn -0.999975 -0.007066 -0.000000
vn 0.030704 0.119096 -0.992408
vn 0.193435 0.980824 -0.023818
vn -0.999975 -0.007066 -0.000000
vn 0.014663 0.107463 0.994101
vn 0.193455 0.980820 -0.023820
vn -0.999976 -0.006933 -0.000600
vn 0.016249 0.118958 -0.992766
vn 0.084427 0.994551 0.061155
vn -0.999975 -0.007066 -0.000500
vn 0.003591 0.107332 0.994217
vn 0.084427 0.994551 0.061155
vn -0.999975 -0.007066 -0.000000
vn 0.016249 0.118958 -0.992766
vn 0.135046 0.990839 0.000000
vn -0.999975 -0.007066 -0.000000
vn 0.014663 0.107463 0.994101
vn 0.135046 0.990839 0.000000
vn -0.999975 -0.007066 -0.000000
vn -0.135046 0.990839 0.000000
vn -0.016149 0.118827 -0.992784
vn -0.135046 0.990839 0.000000
vn -0.016149 0.118827 -0.992784
vn 0.999975 0.007066 0.000000
vn -0.999975 -0.007066 -0.000000
vn -0.135046 0.990839 0.000000
vn -0.014564 0.107200 0.994131
vn -0.135046 0.990839 0.000000
vn -0.014564 0.107200 0.994131
vn 0.999975 0.007066 0.000000
vn -0.999975 -0.007066 0.000300
vn -0.181219 0.981810 -0.056655
vn -0.016149 0.118827 -0.992784
vn -0.181219 0.981810 -0.056655
vn -0.016149 0.118827 -0.992784
vn 0.999975 0.007066 -0.000500
vn -0.999975 -0.007066 0.000200
vn -0.999975 -0.007066 0.000300
vn -0.181219 0.981810 -0.056655
vn -0.024938 0.107068 0.993939
vn -0.181219 0.981810 -0.056655
vn -0.024938 0.107068 0.993939
vn 0.999975 0.007066 -0.000500
vn -0.999975 -0.007066 0.000200
vn -0.094988 0.995347 -0.016183
vn -0.016149 0.118827 -0.992784
vn -0.094988 0.995347 -0.016183
vn -0.016149 0.118827 -0.992784
vn 0.999975 0.007066 0.000000
vn -0.999975 -0.007066 0.000200
vn -0.094988 0.995347 -0.016183
vn -0.005885 0.107331 0.994206
vn -0.094988 0.995347 -0.016183
vn -0.005885 0.107331 0.994206
vn 0.999975 0.007066 0.000000
vn -0.999975 -0.007066 -0.000000
vn -0.135046 0.990839 0.000000
vn -0.016149 0.118827 -0.992784
vn -0.135046 0.990839 0.000000
vn -0.016149 0.118827 -0.992784
vn 0.999975 0.007066 0.000000
vn -0.999975 -0.007066 -0.000000
vn -0.135046 0.990839 0.000000
vn -0.014564 0.107200 0.994131
vn -0.135046 0.990839 0.000000
vn -0.014564 0.107200 0.994131
vn 0.999975 0.007066 0.000000
vn -0.999975 -0.007066 -0.000000
vn -0.135046 0.990839 0.000000
vn -0.016149 0.118827 -0.992784
vn -0.135046 0.990839 0.000000
vn -0.016149 0.118827 -0.992784
vn 0.999975 0.007066 0.000000
vn -0.999975 -0.007066 -0.000000
vn -0.135046 0.990839 0.000000
vn -0.014564 0.107200 0.994131
vn -0.135046 0.990839 0.000000
vn -0.014564 0.107200 0.994131
vn 0.999975 0.007066 0.000000
vn -0.999975 -0.007066 -0.000400
vn -0.073211 0.994525 0.074567
vn -0.016149 0.118827 -0.992784
vn -0.073211 0.994525 0.074567
vn -0.016149 0.118827 -0.992784
vn 0.999975 0.007066 0.000700
vn -0.999975 -0.007066 -0.000400
vn -0.999975 -0.007066 -0.000300
vn -0.073211 0.994525 0.074567
vn -0.001197 0.107333 0.994222
vn -0.073211 0.994525 0.074567
vn -0.001197 0.107333 0.994222
vn 0.999974 0.007200 0.000700
vn -0.999975 -0.007066 -0.000000
vn -0.135046 0.990839 0.000000
vn -0.016149 0.118827 -0.992784
vn -0.135046 0.990839 0.000000
vn -0.016149 0.118827 -0.992784
vn 0.999975 0.007066 0.000000
vn -0.999975 -0.007066 -0.000000
vn -0.135046 0.990839 0.000000
vn -0.014564 0.107200 0.994131
vn -0.135046 0.990839 0.000000
vn -0.014564 0.107200 0.994131
vn 0.999975 0.007066 0.000000
vn -0.999975 -0.007066 0.000300
vn -0.193435 0.980824 -0.023818
vn -0.030607 0.118572 -0.992474
vn -0.193455 0.980820 -0.023820
vn -0.030607 0.118572 -0.992474
vn 0.999975 0.007066 0.000000
vn -0.999975 -0.007066 0.000300
vn -0.193435 0.980824 -0.023818
vn -0.014564 0.107200 0.994131
vn -0.193455 0.980820 -0.023820
vn -0.014564 0.107200 0.994131
vn 0.999975 0.007066 0.000000
vn -0.999975 -0.007066 -0.000000
vn -0.135046 0.990839 0.000000
vn -0.016149 0.118827 -0.992784
vn -0.135046 0.990839 0.000000
vn -0.016149 0.118827 -0.992784
vn 0.999975 0.007066 0.000000
vn -0.999975 -0.007066 -0.000000
vn -0.135046 0.990839 0.000000
vn -0.014564 0.107200 0.994131
vn -0.135046 0.990839 0.000000
vn -0.014564 0.107200 0.994131
vn 0.999975 0.007066 0.000000
vn -0.999975 -0.007066 -0.000000
vn -0.135046 0.990839 0.000000
vn -0.016149 0.118827 -0.992784
vn -0.135046 0.990839 0.000000
vn -0.016149 0.118827 -0.992784
vn 0.999975 0.007066 0.000000
vn -0.999975 -0.007066 -0.000000
vn -0.135046 0.990839 0.000000
vn -0.014564 0.107200 0.994131
vn -0.135046 0.990839 0.000000
vn -0.014564 0.107200 0.994131
vn 0.999975 0.007066 0.000000
vn 0.016249 0.118958 -0.992766
vn 0.059670 0.994095 0.090635
vn 0.999975 0.007066 0.000400
vn -0.001696 0.107332 0.994222
vn 0.059670 0.994095 0.090635
vn 0.999975 0.007066 0.000400
vn 0.016249 0.118958 -0.992766
vn 0.135046 0.990839 0.000000
vn 0.999975 0.007066 0.000000
vn 0.014663 0.107463 0.994101
vn 0.135046 0.990839 0.000000
vn 0.999975 0.007066 0.000000
vn 0.016249 0.118958 -0.992766
vn 0.094988 0.995347 -0.016183
vn 0.999975 0.007066 -0.000200
vn 0.005885 0.107331 0.994206
vn 0.094988 0.995347 -0.016183
vn 0.999975 0.007066 -0.000200
vn 0.016249 0.118958 -0.992766
vn 0.089784 0.994455 0.054759
vn 0.999975 0.007066 0.000200
vn 0.999975 0.007066 0.000300
vn 0.004788 0.107331 0.994212
vn 0.089784 0.994455 0.054759
vn 0.999975 0.007066 0.000300
vn 0.016249 0.118958 -0.992766
vn 0.135046 0.990839 0.000000
vn 0.999975 0.007066 0.000000
vn 0.014663 0.107463 0.994101
vn 0.135046 0.990839 0.000000
vn 0.999975 0.007066 0.000000
vn 0.016249 0.118958 -0.992766
vn 0.135046 0.990839 0.000000
vn 0.999975 0.007066 0.000000
vn 0.014663 0.107463 0.994101
vn 0.135046 0.990839 0.000000
vn 0.999975 0.007066 0.000000
vn 0.016249 0.118958 -0.992766
vn 0.135046 0.990839 0.000000
vn 0.999975 0.007066 0.000000
vn 0.014663 0.107463 0.994101
vn 0.135046 0.990839 0.000000
vn 0.999975 0.007066 0.000000
vn 0.030704 0.119096 -0.992408
vn 0.193455 0.980820 -0.023820
vn 0.999975 0.007066 -0.000300
vn 0.014663 0.107463 0.994101
vn 0.193435 0.980824 -0.023818
vn 0.999975 0.007066 -0.000300
vn 0.016249 0.118958 -0.992766
vn 0.084427 0.994551 0.061155
vn 0.999975 0.007066 0.000300
vn 0.003591 0.107332 0.994217
vn 0.084427 0.994551 0.061155
vn 0.999975 0.007066 0.000300
vn 0.016249 0.118958 -0.992766
vn 0.135046 0.990839 0.000000
vn 0.999975 0.007066 0.000000
vn 0.014663 0.107463 0.994101
vn 0.135046 0.990839 0.000000
vn 0.999975 0.007066 0.000000
f 25/25/25 23/23/23 257/257/257
f 25/25/25 257/257/257 254/254/254
f 3/3/3 1/1/1 7/7/7
f 10/10/10 13/13/13 15/15/15
f 3/3/3 7/7/7 10/10/10
f 9/9/9 5/5/5 3/3/3
f 50/50/50 53/53/53 55/55/55
f 55/55/55 9/9/9 3/3/3
f 3/3/3 10/10/10 15/15/15
f 15/15/15 18/18/18 20/20/20
f 20/20/20 23/23/23 25/25/25
f 25/25/25 28/28/28 30/30/30
f 30/30/30 33/33/33 35/35/35
f 35/35/35 38/38/38 40/40/40
f 40/40/40 43/43/43 45/45/45
f 45/45/45 48/48/48 50/50/50
f 50/50/50 55/55/55 3/3/3
f 3/3/3 15/15/15 20/20/20
f 20/20/20 25/25/25 30/30/30
f 35/35/35 40/40/40 45/45/45
f 20/20/20 30/30/30 35/35/35
f 45/45/45 50/50/50 3/3/3
f 3/3/3 20/20/20 35/35/35
f 35/35/35 45/45/45 3/3/3
f 156/156/156 101/101/101 374/374/374
f 156/156/156 374/374/374 372/372/372
f 170/170/170 54/54/54 51/51/51
f 170/170/170 51/51/51 172/172/172
f 178/178/178 47/47/47 231/231/231
f 178/178/178 231/231/231 412/412/412
f 175/175/175 49/49/49 46/46/46
f 175/175/175 46/46/46 177/177/177
f 197/197/197 195/195/195 433/433/433
f 197/197/197 433/433/433 436/436/436
f 180/180/180 44/44/44 41/41/41
f 180/180/180 41/41/41 182/182/182
f 120/120/120 124/124/124 296/296/296
f 121/121/121 297/297/297 290/290/290
f 185/185/185 39/39/39 36/36/36
f 185/185/185 36/36/36 188/188/188
f 98/98/98 153/153/153 366/366/366
f 98/98/98 366/366/366 368/368/368
f 191/191/191 34/34/34 31/31/31
f 191/191/191 31/31/31 193/193/193
f 49/49/49 175/175/175 409/409/409
f 49/49/49 409/409/409 228/228/228
f 196/196/196 29/29/29 26/26/26
f 196/196/196 26/26/26 198/198/198
f 30/30/30 28/28/28 251/251/251
f 30/30/30 251/251/251 248/248/248
f 201/201/201 24/24/24 21/21/21
f 201/201/201 21/21/21 203/203/203
f 151/151/151 96/96/96 362/362/362
f 151/151/151 362/362/362 360/360/360
f 206/206/206 19/19/19 16/16/16
f 206/206/206 16/16/16 208/208/208
f 173/173/173 52/52/52 225/225/225
f 173/173/173 225/225/225 406/406/406
f 211/211/211 14/14/14 11/11/11
f 211/211/211 11/11/11 213/213/213
f 67/67/67 65/65/65 283/283/283
f 67/67/67 283/283/283 289/289/289
f 167/167/167 216/216/216 8/8/8
f 167/167/167 8/8/8 2/2/2
f 4/4/4 6/6/6 114/114/114
f 4/4/4 114/114/114 113/113/113
f 110/110/110 112/112/112 62/62/62
f 58/58/58 60/60/60 63/63/63
f 65/65/65 67/67/67 70/70/70
f 58/58/58 63/63/63 65/65/65
f 110/110/110 62/62/62 58/58/58
f 105/105/105 107/107/107 110/110/110
f 100/100/100 102/102/102 105/105/105
f 95/95/95 97/97/97 100/100/100
f 90/90/90 92/92/92 95/95/95
f 85/85/85 87/87/87 90/90/90
f 80/80/80 82/82/82 85/85/85
f 75/75/75 77/77/77 80/80/80
f 70/70/70 72/72/72 75/75/75
f 58/58/58 65/65/65 70/70/70
f 105/105/105 110/110/110 58/58/58
f 90/90/90 95/95/95 100/100/100
f 100/100/100 105/105/105 58/58/58
f 58/58/58 70/70/70 75/75/75
f 75/75/75 80/80/80 85/85/85
f 85/85/85 90/90/90 100/100/100
f 58/58/58 75/75/75 85/85/85
f 58/58/58 85/85/85 100/100/100
f 113/113/113 114/114/114 59/59/59
f 113/113/113 59/59/59 57/57/57
f 202/202/202 200/200/200 439/439/439
f 202/202/202 439/439/439 442/442/442
f 116/116/116 118/118/118 284/284/284
f 116/116/116 284/284/284 278/278/278
f 66/66/66 119/119/119 123/123/123
f 66/66/66 123/123/123 69/69/69
f 93/93/93 148/148/148 354/354/354
f 93/93/93 354/354/354 356/356/356
f 71/71/71 125/125/125 128/128/128
f 71/71/71 128/128/128 74/74/74
f 54/54/54 170/170/170 403/403/403
f 54/54/54 403/403/403 222/222/222
f 76/76/76 130/130/130 133/133/133
f 76/76/76 133/133/133 79/79/79
f 35/35/35 33/33/33 245/245/245
f 35/35/35 245/245/245 242/242/242
f 81/81/81 135/135/135 138/138/138
f 81/81/81 138/138/138 84/84/84
f 146/146/146 91/91/91 350/350/350
f 146/146/146 350/350/350 348/348/348
f 86/86/86 140/140/140 144/144/144
f 86/86/86 144/144/144 89/89/89
f 168/168/168 56/56/56 219/219/219
f 168/168/168 219/219/219 400/400/400
f 91/91/91 146/146/146 149/149/149
f 91/91/91 149/149/149 94/94/94
f 72/72/72 70/70/70 295/295/295
f 72/72/72 295/295/295 302/302/302
f 96/96/96 151/151/151 154/154/154
f 96/96/96 154/154/154 99/99/99
f 207/207/207 205/205/205 445/445/445
f 207/207/207 445/445/445 448/448/448
f 101/101/101 156/156/156 159/159/159
f 101/101/101 159/159/159 104/104/104
f 106/106/106 161/161/161 164/164/164
f 106/106/106 164/164/164 109/109/109
f 88/88/88 143/143/143 341/341/341
f 88/88/88 341/341/341 343/343/343
f 61/61/61 111/111/111 166/166/166
f 61/61/61 166/166/166 115/115/115
f 401/401/401 220/220/220 223/223/223
f 401/401/401 223/223/223 404/404/404
f 407/407/407 226/226/226 229/229/229
f 407/407/407 229/229/229 410/410/410
f 413/413/413 232/232/232 235/235/235
f 413/413/413 235/235/235 416/416/416
f 419/419/419 238/238/238 241/241/241
f 419/419/419 241/241/241 423/423/423
f 426/426/426 244/244/244 247/247/247
f 426/426/426 247/247/247 429/429/429
f 432/432/432 250/250/250 253/253/253
f 432/432/432 253/253/253 435/435/435
f 438/438/438 256/256/256 259/259/259
f 438/438/438 259/259/259 441/441/441
f 444/444/444 262/262/262 265/265/265
f 444/444/444 265/265/265 447/447/447
f 450/450/450 268/268/268 271/271/271
f 450/450/450 271/271/271 453/453/453
f 456/456/456 274/274/274 277/277/277
f 456/456/456 277/277/277 459/459/459
f 281/281/281 279/279/279 285/285/285
f 281/281/281 285/285/285 287/287/287
f 293/293/293 291/291/291 298/298/298
f 293/293/293 298/298/298 300/300/300
f 306/306/306 304/304/304 310/310/310
f 306/306/306 310/310/310 312/312/312
f 318/318/318 316/316/316 322/322/322
f 318/318/318 322/322/322 324/324/324
f 330/330/330 328/328/328 334/334/334
f 330/330/330 334/334/334 336/336/336
f 342/342/342 340/340/340 347/347/347
f 342/342/342 347/347/347 349/349/349
f 355/355/355 353/353/353 359/359/359
f 355/355/355 359/359/359 361/361/361
f 367/367/367 365/365/365 371/371/371
f 367/367/367 371/371/371 373/373/373
f 379/379/379 377/377/377 383/383/383
f 379/379/379 383/383/383 385/385/385
f 391/391/391 389/389/389 395/395/395
f 391/391/391 395/395/395 397/397/397
f 44/44/44 180/180/180 415/415/415
f 44/44/44 415/415/415 234/234/234
f 103/103/103 158/158/158 378/378/378
f 103/103/103 378/378/378 380/380/380
f 126/126/126 129/129/129 309/309/309
f 126/126/126 309/309/309 303/303/303
f 192/192/192 190/190/190 427/427/427
f 192/192/192 427/427/427 430/430/430
f 183/183/183 42/42/42 237/237/237
f 183/183/183 237/237/237 418/418/418
f 161/161/161 106/106/106 386/386/386
f 161/161/161 386/386/386 384/384/384
f 20/20/20 18/18/18 263/263/263
f 20/20/20 263/263/263 260/260/260
f 39/39/39 185/185/185 422/422/422
f 39/39/39 422/422/422 240/240/240
f 108/108/108 163/163/163 390/390/390
f 108/108/108 390/390/390 392/392/392
f 131/131/131 134/134/134 321/321/321
f 131/131/131 321/321/321 315/315/315
f 186/186/186 184/184/184 420/420/420
f 187/187/187 421/421/421 424/424/424
f 189/189/189 37/37/37 243/243/243
f 189/189/189 243/243/243 425/425/425
f 166/166/166 111/111/111 398/398/398
f 166/166/166 398/398/398 396/396/396
f 15/15/15 13/13/13 269/269/269
f 15/15/15 269/269/269 266/266/266
f 34/34/34 191/191/191 428/428/428
f 34/34/34 428/428/428 246/246/246
f 136/136/136 139/139/139 333/333/333
f 136/136/136 333/333/333 327/327/327
f 181/181/181 179/179/179 414/414/414
f 181/181/181 414/414/414 417/417/417
f 194/194/194 32/32/32 249/249/249
f 194/194/194 249/249/249 431/431/431
f 112/112/112 110/110/110 393/393/393
f 112/112/112 393/393/393 399/399/399
f 10/10/10 7/7/7 275/275/275
f 10/10/10 275/275/275 272/272/272
f 29/29/29 196/196/196 434/434/434
f 29/29/29 434/434/434 252/252/252
f 142/142/142 145/145/145 346/346/346
f 141/141/141 345/345/345 339/339/339
f 176/176/176 174/174/174 408/408/408
f 176/176/176 408/408/408 411/411/411
f 199/199/199 27/27/27 255/255/255
f 199/199/199 255/255/255 437/437/437
f 107/107/107 105/105/105 381/381/381
f 107/107/107 381/381/381 387/387/387
f 24/24/24 201/201/201 440/440/440
f 24/24/24 440/440/440 258/258/258
f 147/147/147 150/150/150 358/358/358
f 147/147/147 358/358/358 352/352/352
f 171/171/171 169/169/169 402/402/402
f 171/171/171 402/402/402 405/405/405
f 204/204/204 22/22/22 261/261/261
f 204/204/204 261/261/261 443/443/443
f 102/102/102 100/100/100 369/369/369
f 102/102/102 369/369/369 375/375/375
f 19/19/19 206/206/206 446/446/446
f 19/19/19 446/446/446 264/264/264
f 152/152/152 155/155/155 370/370/370
f 152/152/152 370/370/370 364/364/364
f 64/64/64 117/117/117 280/280/280
f 64/64/64 280/280/280 282/282/282
f 209/209/209 17/17/17 267/267/267
f 209/209/209 267/267/267 449/449/449
f 97/97/97 95/95/95 357/357/357
f 97/97/97 357/357/357 363/363/363
f 119/119/119 66/66/66 288/288/288
f 119/119/119 288/288/288 286/286/286
f 14/14/14 211/211/211 452/452/452
f 14/14/14 452/452/452 270/270/270
f 157/157/157 160/160/160 382/382/382
f 157/157/157 382/382/382 376/376/376
f 68/68/68 122/122/122 292/292/292
f 68/68/68 292/292/292 294/294/294
f 214/214/214 12/12/12 273/273/273
f 214/214/214 273/273/273 455/455/455
f 92/92/92 90/90/90 344/344/344
f 92/92/92 344/344/344 351/351/351
f 125/125/125 71/71/71 301/301/301
f 125/125/125 301/301/301 299/299/299
f 55/55/55 53/53/53 221/221/221
f 55/55/55 221/221/221 218/218/218
f 8/8/8 216/216/216 458/458/458
f 8/8/8 458/458/458 276/276/276
f 162/162/162 165/165/165 394/394/394
f 162/162/162 394/394/394 388/388/388
f 73/73/73 127/127/127 305/305/305
f 73/73/73 305/305/305 307/307/307
f 87/87/87 85/85/85 332/332/332
f 87/87/87 332/332/332 338/338/338
f 130/130/130 76/76/76 313/313/313
f 130/130/130 313/313/313 311/311/311
f 50/50/50 48/48/48 227/227/227
f 50/50/50 227/227/227 224/224/224
f 78/78/78 132/132/132 317/317/317
f 78/78/78 317/317/317 319/319/319
f 217/217/217 215/215/215 457/457/457
f 217/217/217 457/457/457 460/460/460
f 82/82/82 80/80/80 320/320/320
f 82/82/82 320/320/320 326/326/326
f 135/135/135 81/81/81 325/325/325
f 135/135/135 325/325/325 323/323/323
f 45/45/45 43/43/43 233/233/233
f 45/45/45 233/233/233 230/230/230
f 83/83/83 137/137/137 329/329/329
f 83/83/83 329/329/329 331/331/331
f 212/212/212 210/210/210 451/451/451
f 212/212/212 451/451/451 454/454/454
f 77/77/77 75/75/75 308/308/308
f 77/77/77 308/308/308 314/314/314
f 140/140/140 86/86/86 337/337/337
f 140/140/140 337/337/337 335/335/335
f 40/40/40 38/38/38 239/239/239
f 40/40/40 239/239/239 236/236/236
