# generated by the editor's model importer
v 2.425143 0.390723 -1.003332 1.000000 1.000000 1.000000 1.000000
v 1.800102 0.000000 -1.220781 1.000000 1.000000 1.000000 1.000000
v 0.350014 3.281223 -0.725473 1.000000 1.000000 1.000000 1.000000
v 2.600150 4.303537 -0.079791 1.000000 1.000000 1.000000 1.000000
v 2.425143 0.390723 -1.003332 1.000000 1.000000 1.000000 1.000000
v 0.350014 3.281223 -0.725473 1.000000 1.000000 1.000000 1.000000
v 0.500024 2.353222 -0.115986 1.000000 1.000000 1.000000 1.000000
v 0.350014 3.281223 -0.725473 1.000000 1.000000 1.000000 1.000000
v 1.800102 0.000000 -1.220781 1.000000 1.000000 1.000000 1.000000
v 0.500024 2.353222 -0.115986 1.000000 1.000000 1.000000 1.000000
v -0.500024 2.353222 -0.115986 1.000000 1.000000 1.000000 1.000000
v -0.350014 3.281223 -0.725473 1.000000 1.000000 1.000000 1.000000
v 0.350014 3.281223 -0.725473 1.000000 1.000000 1.000000 1.000000
v -0.600034 6.932070 0.236539 1.000000 1.000000 1.000000 1.000000
v 0.600034 6.932070 0.236539 1.000000 1.000000 1.000000 1.000000
v 0.350014 3.281223 -0.725473 1.000000 1.000000 1.000000 1.000000
v -0.350014 3.281223 -0.725473 1.000000 1.000000 1.000000 1.000000
v -1.800102 0.000000 -1.220781 1.000000 1.000000 1.000000 1.000000
v -2.425143 0.390723 -1.003332 1.000000 1.000000 1.000000 1.000000
v -0.350014 3.281223 -0.725473 1.000000 1.000000 1.000000 1.000000
v 0.350014 3.281223 -0.725473 1.000000 1.000000 1.000000 1.000000
v 0.600034 6.932070 0.236539 1.000000 1.000000 1.000000 1.000000
v 2.600150 4.303537 -0.079791 1.000000 1.000000 1.000000 1.000000
v -1.800102 0.000000 -1.220781 1.000000 1.000000 1.000000 1.000000
v -0.350014 3.281223 -0.725473 1.000000 1.000000 1.000000 1.000000
v -0.500024 2.353222 -0.115986 1.000000 1.000000 1.000000 1.000000
v -2.425143 0.390723 -1.003332 1.000000 1.000000 1.000000 1.000000
v -2.600150 4.303537 -0.079791 1.000000 1.000000 1.000000 1.000000
v -0.350014 3.281223 -0.725473 1.000000 1.000000 1.000000 1.000000
v 0.600034 6.932070 0.236539 1.000000 1.000000 1.000000 1.000000
v 1.600092 7.689075 1.220782 1.000000 1.000000 1.000000 1.000000
v 2.600150 4.303537 -0.079791 1.000000 1.000000 1.000000 1.000000
v -0.350014 3.281223 -0.725473 1.000000 1.000000 1.000000 1.000000
v -2.600150 4.303537 -0.079791 1.000000 1.000000 1.000000 1.000000
v -0.600034 6.932070 0.236539 1.000000 1.000000 1.000000 1.000000
v -2.600150 4.303537 -0.079791 1.000000 1.000000 1.000000 1.000000
v -1.600092 7.689075 1.220782 1.000000 1.000000 1.000000 1.000000
v -0.600034 6.932070 0.236539 1.000000 1.000000 1.000000 1.000000
vt 0.005900 0.709000
vt 0.033200 0.693400
vt 0.087900 0.822300
vt 0.002000 0.861300
vt 0.005900 0.709000
vt 0.087900 0.822300
vt 0.080100 0.787100
vt 0.087900 0.822300
vt 0.033200 0.693400
vt 0.080100 0.787100
vt 0.119100 0.787100
vt 0.115200 0.822300
vt 0.087900 0.822300
vt 0.123000 0.966800
vt 0.076200 0.966800
vt 0.087900 0.822300
vt 0.115200 0.822300
vt 0.169900 0.693400
vt 0.193400 0.709000
vt 0.115200 0.822300
vt 0.087900 0.822300
vt 0.076200 0.966800
vt 0.002000 0.861300
vt 0.169900 0.693400
vt 0.115200 0.822300
vt 0.119100 0.787100
vt 0.193400 0.709000
vt 0.201200 0.861300
vt 0.115200 0.822300
vt 0.076200 0.966800
vt 0.041000 0.998000
vt 0.002000 0.861300
vt 0.115200 0.822300
vt 0.201200 0.861300
vt 0.123000 0.966800
vt 0.201200 0.861300
vt 0.162100 0.998000
vt 0.123000 0.966800
vn 0.189700 0.228001 -0.955002
vn 0.189700 0.228001 -0.955002
vn 0.189700 0.228001 -0.955002
vn 0.176095 0.218694 -0.959773
vn 0.176095 0.218694 -0.959773
vn 0.176095 0.218694 -0.959773
vn -0.886582 -0.345393 -0.307694
vn -0.886582 -0.345393 -0.307694
vn -0.886582 -0.345393 -0.307694
vn 0.000000 -0.549010 -0.835816
vn 0.000000 -0.549010 -0.835816
vn 0.000000 -0.549010 -0.835816
vn 0.000000 -0.549010 -0.835816
vn -0.000000 0.254798 -0.966994
vn -0.000000 0.254798 -0.966994
vn -0.000000 0.254798 -0.966994
vn -0.000000 0.254798 -0.966994
vn -0.189700 0.228001 -0.955002
vn -0.189700 0.228001 -0.955002
vn -0.189700 0.228001 -0.955002
vn 0.165093 0.240690 -0.956459
vn 0.165093 0.240690 -0.956459
vn 0.165093 0.240690 -0.956459
vn 0.886582 -0.345393 -0.307694
vn 0.886582 -0.345393 -0.307694
vn 0.886582 -0.345393 -0.307694
vn -0.176095 0.218694 -0.959773
vn -0.176095 0.218694 -0.959773
vn -0.176095 0.218694 -0.959773
vn 0.444499 0.432599 -0.784398
vn 0.444499 0.432599 -0.784398
vn 0.444499 0.432599 -0.784398
vn -0.165093 0.240690 -0.956459
vn -0.165093 0.240690 -0.956459
vn -0.165093 0.240690 -0.956459
vn -0.444499 0.432599 -0.784398
vn -0.444499 0.432599 -0.784398
vn -0.444499 0.432599 -0.784398
f 1/1/1 2/2/2 3/3/3
f 4/4/4 5/5/5 6/6/6
f 7/7/7 8/8/8 9/9/9
f 10/10/10 11/11/11 12/12/12
f 10/10/10 12/12/12 13/13/13
f 14/14/14 15/15/15 16/16/16
f 14/14/14 16/16/16 17/17/17
f 18/18/18 19/19/19 20/20/20
f 21/21/21 22/22/22 23/23/23
f 24/24/24 25/25/25 26/26/26
f 27/27/27 28/28/28 29/29/29
f 30/30/30 31/31/31 32/32/32
f 33/33/33 34/34/34 35/35/35
f 36/36/36 37/37/37 38/38/38
