# generated by the editor's model importer
v 0.702695 0.700180 -1.582877 1.000000 1.000000 1.000000 1.000000
v 0.525331 0.764095 -1.649349 1.000000 1.000000 1.000000 1.000000
v 0.675653 1.401030 -1.433970 1.000000 1.000000 1.000000 1.000000
v 0.853019 1.337115 -1.367498 1.000000 1.000000 1.000000 1.000000
v -0.853018 0.063916 1.367499 1.000000 1.000000 1.000000 1.000000
v 0.525331 0.764095 -1.649349 1.000000 1.000000 1.000000 1.000000
v 0.702695 0.700180 -1.582877 1.000000 1.000000 1.000000 1.000000
v -0.675653 0.000000 1.433971 1.000000 1.000000 1.000000 1.000000
v -0.675653 0.000000 1.433971 1.000000 1.000000 1.000000 1.000000
v 0.702695 0.700180 -1.582877 1.000000 1.000000 1.000000 1.000000
v 0.853019 1.337115 -1.367498 1.000000 1.000000 1.000000 1.000000
v -0.525330 0.636935 1.649349 1.000000 1.000000 1.000000 1.000000
v 0.853019 1.337115 -1.367498 1.000000 1.000000 1.000000 1.000000
v 0.675653 1.401030 -1.433970 1.000000 1.000000 1.000000 1.000000
v -0.702694 0.700851 1.582878 1.000000 1.000000 1.000000 1.000000
v -0.525330 0.636935 1.649349 1.000000 1.000000 1.000000 1.000000
v 0.675653 1.401030 -1.433970 1.000000 1.000000 1.000000 1.000000
v 0.525331 0.764095 -1.649349 1.000000 1.000000 1.000000 1.000000
v -0.853018 0.063916 1.367499 1.000000 1.000000 1.000000 1.000000
v -0.702694 0.700851 1.582878 1.000000 1.000000 1.000000 1.000000
v -0.675653 0.000000 1.433971 1.000000 1.000000 1.000000 1.000000
v -0.525330 0.636935 1.649349 1.000000 1.000000 1.000000 1.000000
v -0.702694 0.700851 1.582878 1.000000 1.000000 1.000000 1.000000
v -0.853018 0.063916 1.367499 1.000000 1.000000 1.000000 1.000000
vt 0.763700 0.127000
vt 0.763700 0.127000
vt 0.763700 0.154300
vt 0.763700 0.154300
vt 0.627000 0.127000
vt 0.763700 0.127000
vt 0.763700 0.127000
vt 0.627000 0.127000
vt 0.627000 0.127000
vt 0.763700 0.127000
vt 0.763700 0.154300
vt 0.627000 0.154300
vt 0.763700 0.154300
vt 0.763700 0.154300
vt 0.627000 0.154300
vt 0.627000 0.154300
vt 0.763700 0.154300
vt 0.763700 0.127000
vt 0.627000 0.127000
vt 0.627000 0.154300
vt 0.627000 0.127000
vt 0.627000 0.154300
vt 0.627000 0.154300
vt 0.627000 0.127000
vn 0.407396 0.204798 -0.889992
vn 0.407396 0.204798 -0.889992
vn 0.407396 0.204798 -0.889992
vn 0.407396 0.204798 -0.889992
vn -0.215897 -0.924789 -0.313296
vn -0.215897 -0.924789 -0.313296
vn -0.215897 -0.924789 -0.313296
vn -0.215897 -0.924789 -0.313296
vn 0.887316 -0.321306 0.330806
vn 0.887316 -0.321306 0.330806
vn 0.887316 -0.321306 0.330806
vn 0.887316 -0.321306 0.330806
vn 0.215897 0.924789 0.313296
vn 0.215897 0.924789 0.313296
vn 0.215897 0.924789 0.313296
vn 0.215897 0.924789 0.313296
vn -0.887316 0.321306 -0.330806
vn -0.887316 0.321306 -0.330806
vn -0.887316 0.321306 -0.330806
vn -0.887316 0.321306 -0.330806
vn -0.407396 -0.204798 0.889992
vn -0.407396 -0.204798 0.889992
vn -0.407396 -0.204798 0.889992
vn -0.407396 -0.204798 0.889992
f 1/1/1 2/2/2 3/3/3
f 1/1/1 3/3/3 4/4/4
f 5/5/5 6/6/6 7/7/7
f 5/5/5 7/7/7 8/8/8
f 9/9/9 10/10/10 11/11/11
f 9/9/9 11/11/11 12/12/12
f 13/13/13 14/14/14 15/15/15
f 13/13/13 15/15/15 16/16/16
f 17/17/17 18/18/18 19/19/19
f 17/17/17 19/19/19 20/20/20
f 21/21/21 22/22/22 23/23/23
f 21/21/21 23/23/23 24/24/24
