# generated by the editor's model importer
v 0.689081 0.367283 0.487706 1.000000 1.000000 1.000000 1.000000
v 0.402600 0.121097 0.487706 1.000000 1.000000 1.000000 1.000000
v 0.689081 0.121097 0.487706 1.000000 1.000000 1.000000 1.000000
v 0.402600 0.367283 0.487706 1.000000 1.000000 1.000000 1.000000
v 0.401996 0.488380 0.322421 1.000000 1.000000 1.000000 1.000000
v 0.689546 0.487488 -0.003523 1.000000 1.000000 1.000000 1.000000
v 0.402134 0.487488 -0.003523 1.000000 1.000000 1.000000 1.000000
v 0.689685 0.488380 0.322421 1.000000 1.000000 1.000000 1.000000
v 0.402600 0.367283 0.487706 1.000000 1.000000 1.000000 1.000000
v 0.689081 0.367283 0.487706 1.000000 1.000000 1.000000 1.000000
v 0.401996 0.000000 0.322421 1.000000 1.000000 1.000000 1.000000
v 0.402134 0.487488 -0.003523 1.000000 1.000000 1.000000 1.000000
v 0.402134 0.000893 -0.003523 1.000000 1.000000 1.000000 1.000000
v 0.402600 0.121097 0.487706 1.000000 1.000000 1.000000 1.000000
v 0.402600 0.367283 0.487706 1.000000 1.000000 1.000000 1.000000
v 0.689685 0.000000 0.322421 1.000000 1.000000 1.000000 1.000000
v 0.402134 0.000893 -0.003523 1.000000 1.000000 1.000000 1.000000
v 0.689546 0.000893 -0.003523 1.000000 1.000000 1.000000 1.000000
v 0.401996 0.000000 0.322421 1.000000 1.000000 1.000000 1.000000
v 0.689081 0.121097 0.487706 1.000000 1.000000 1.000000 1.000000
v 0.402600 0.121097 0.487706 1.000000 1.000000 1.000000 1.000000
v 0.689685 0.488380 0.322421 1.000000 1.000000 1.000000 1.000000
v 0.689546 0.000893 -0.003523 1.000000 1.000000 1.000000 1.000000
v 0.689546 0.487488 -0.003523 1.000000 1.000000 1.000000 1.000000
v 0.689081 0.121097 0.487706 1.000000 1.000000 1.000000 1.000000
v 0.689081 0.367283 0.487706 1.000000 1.000000 1.000000 1.000000
v 0.402134 0.487488 -0.003523 1.000000 1.000000 1.000000 1.000000
v 0.652615 0.447341 -0.003996 1.000000 1.000000 1.000000 1.000000
v 0.439066 0.447341 -0.003996 1.000000 1.000000 1.000000 1.000000
v 0.652615 0.447341 -0.003996 1.000000 1.000000 1.000000 1.000000
v 0.402134 0.000893 -0.003523 1.000000 1.000000 1.000000 1.000000
v 0.439066 0.447341 -0.003996 1.000000 1.000000 1.000000 1.000000
v 0.439066 0.041039 -0.003996 1.000000 1.000000 1.000000 1.000000
v 0.439066 0.447341 -0.003996 1.000000 1.000000 1.000000 1.000000
v 0.689546 0.000893 -0.003523 1.000000 1.000000 1.000000 1.000000
v 0.439066 0.041039 -0.003996 1.000000 1.000000 1.000000 1.000000
v 0.652615 0.041039 -0.003996 1.000000 1.000000 1.000000 1.000000
v 0.439066 0.041039 -0.003996 1.000000 1.000000 1.000000 1.000000
v 0.689546 0.487488 -0.003523 1.000000 1.000000 1.000000 1.000000
v 0.652615 0.041039 -0.003996 1.000000 1.000000 1.000000 1.000000
v 0.652615 0.447341 -0.003996 1.000000 1.000000 1.000000 1.000000
v 0.652615 0.041039 -0.003996 1.000000 1.000000 1.000000 1.000000
v 0.637916 0.424027 0.117208 1.000000 1.000000 1.000000 1.000000
v 0.453765 0.424027 0.117208 1.000000 1.000000 1.000000 1.000000
v 0.453765 0.424027 0.117208 1.000000 1.000000 1.000000 1.000000
v 0.453765 0.064353 0.117208 1.000000 1.000000 1.000000 1.000000
v 0.453765 0.064353 0.117208 1.000000 1.000000 1.000000 1.000000
v 0.637916 0.064353 0.117208 1.000000 1.000000 1.000000 1.000000
v 0.637916 0.064353 0.117208 1.000000 1.000000 1.000000 1.000000
v 0.637916 0.424027 0.117208 1.000000 1.000000 1.000000 1.000000
v 0.637916 0.424027 0.117208 1.000000 1.000000 1.000000 1.000000
v 0.453765 0.064353 0.117208 1.000000 1.000000 1.000000 1.000000
v 0.453765 0.424027 0.117208 1.000000 1.000000 1.000000 1.000000
v 0.637916 0.064353 0.117208 1.000000 1.000000 1.000000 1.000000
v 0.439112 0.464074 -0.487705 1.000000 1.000000 1.000000 1.000000
v 0.439140 0.431874 0.011211 1.000000 1.000000 1.000000 1.000000
v 0.439140 0.471391 0.013344 1.000000 1.000000 1.000000 1.000000
v 0.439114 0.439152 -0.485899 1.000000 1.000000 1.000000 1.000000
v 0.439112 0.464074 -0.487705 1.000000 1.000000 1.000000 1.000000
v 0.652568 0.464074 -0.487705 1.000000 1.000000 1.000000 1.000000
v 0.439114 0.439152 -0.485899 1.000000 1.000000 1.000000 1.000000
v 0.439140 0.431874 0.011211 1.000000 1.000000 1.000000 1.000000
v 0.652567 0.439152 -0.485899 1.000000 1.000000 1.000000 1.000000
v 0.652541 0.431874 0.011211 1.000000 1.000000 1.000000 1.000000
v 0.439114 0.439152 -0.485899 1.000000 1.000000 1.000000 1.000000
v 0.652567 0.439152 -0.485899 1.000000 1.000000 1.000000 1.000000
v 0.439114 0.439152 -0.485899 1.000000 1.000000 1.000000 1.000000
v 0.652541 0.431874 0.011211 1.000000 1.000000 1.000000 1.000000
v 0.652567 0.439152 -0.485899 1.000000 1.000000 1.000000 1.000000
v 0.652568 0.464074 -0.487705 1.000000 1.000000 1.000000 1.000000
v 0.652540 0.471391 0.013344 1.000000 1.000000 1.000000 1.000000
v 0.439140 0.471391 0.013344 1.000000 1.000000 1.000000 1.000000
v 0.652541 0.431874 0.011211 1.000000 1.000000 1.000000 1.000000
v 0.652540 0.471391 0.013344 1.000000 1.000000 1.000000 1.000000
v 0.439140 0.431874 0.011211 1.000000 1.000000 1.000000 1.000000
v 0.652541 0.431874 0.011211 1.000000 1.000000 1.000000 1.000000
v 0.439140 0.471391 0.013344 1.000000 1.000000 1.000000 1.000000
v 0.652540 0.471391 0.013344 1.000000 1.000000 1.000000 1.000000
v 0.652568 0.464074 -0.487705 1.000000 1.000000 1.000000 1.000000
v 0.439112 0.464074 -0.487705 1.000000 1.000000 1.000000 1.000000
v 0.439140 0.471391 0.013344 1.000000 1.000000 1.000000 1.000000
v 0.439112 0.024308 -0.487705 1.000000 1.000000 1.000000 1.000000
v 0.439140 0.056507 0.011211 1.000000 1.000000 1.000000 1.000000
v 0.439114 0.049229 -0.485899 1.000000 1.000000 1.000000 1.000000
v 0.439140 0.016990 0.013344 1.000000 1.000000 1.000000 1.000000
v 0.652568 0.024308 -0.487705 1.000000 1.000000 1.000000 1.000000
v 0.439112 0.024308 -0.487705 1.000000 1.000000 1.000000 1.000000
v 0.439114 0.049229 -0.485899 1.000000 1.000000 1.000000 1.000000
v 0.439114 0.049229 -0.485899 1.000000 1.000000 1.000000 1.000000
v 0.652567 0.049229 -0.485899 1.000000 1.000000 1.000000 1.000000
v 0.652567 0.049229 -0.485899 1.000000 1.000000 1.000000 1.000000
v 0.439114 0.049229 -0.485899 1.000000 1.000000 1.000000 1.000000
v 0.439140 0.056507 0.011211 1.000000 1.000000 1.000000 1.000000
v 0.652541 0.056507 0.011211 1.000000 1.000000 1.000000 1.000000
v 0.652568 0.024308 -0.487705 1.000000 1.000000 1.000000 1.000000
v 0.652541 0.056507 0.011211 1.000000 1.000000 1.000000 1.000000
v 0.652540 0.016990 0.013344 1.000000 1.000000 1.000000 1.000000
v 0.652567 0.049229 -0.485899 1.000000 1.000000 1.000000 1.000000
v 0.652541 0.056507 0.011211 1.000000 1.000000 1.000000 1.000000
v 0.439140 0.056507 0.011211 1.000000 1.000000 1.000000 1.000000
v 0.439140 0.016990 0.013344 1.000000 1.000000 1.000000 1.000000
v 0.439140 0.016990 0.013344 1.000000 1.000000 1.000000 1.000000
v 0.652540 0.016990 0.013344 1.000000 1.000000 1.000000 1.000000
v 0.652541 0.056507 0.011211 1.000000 1.000000 1.000000 1.000000
v 0.439112 0.024308 -0.487705 1.000000 1.000000 1.000000 1.000000
v 0.652540 0.016990 0.013344 1.000000 1.000000 1.000000 1.000000
v 0.439140 0.016990 0.013344 1.000000 1.000000 1.000000 1.000000
v 0.652568 0.024308 -0.487705 1.000000 1.000000 1.000000 1.000000
v -0.652568 0.024308 -0.487705 1.000000 1.000000 1.000000 1.000000
v -0.439112 0.024308 -0.487705 1.000000 1.000000 1.000000 1.000000
v -0.652540 0.016990 0.013344 1.000000 1.000000 1.000000 1.000000
v -0.439140 0.016990 0.013344 1.000000 1.000000 1.000000 1.000000
v -0.439140 0.016990 0.013344 1.000000 1.000000 1.000000 1.000000
v -0.652541 0.056507 0.011211 1.000000 1.000000 1.000000 1.000000
v -0.652540 0.016990 0.013344 1.000000 1.000000 1.000000 1.000000
v -0.652541 0.056507 0.011211 1.000000 1.000000 1.000000 1.000000
v -0.439140 0.016990 0.013344 1.000000 1.000000 1.000000 1.000000
v -0.439140 0.056507 0.011211 1.000000 1.000000 1.000000 1.000000
v -0.652567 0.049229 -0.485899 1.000000 1.000000 1.000000 1.000000
v -0.652568 0.024308 -0.487705 1.000000 1.000000 1.000000 1.000000
v -0.652541 0.056507 0.011211 1.000000 1.000000 1.000000 1.000000
v -0.652540 0.016990 0.013344 1.000000 1.000000 1.000000 1.000000
v -0.652541 0.056507 0.011211 1.000000 1.000000 1.000000 1.000000
v -0.439140 0.056507 0.011211 1.000000 1.000000 1.000000 1.000000
v -0.652567 0.049229 -0.485899 1.000000 1.000000 1.000000 1.000000
v -0.439114 0.049229 -0.485899 1.000000 1.000000 1.000000 1.000000
v -0.439114 0.049229 -0.485899 1.000000 1.000000 1.000000 1.000000
v -0.652568 0.024308 -0.487705 1.000000 1.000000 1.000000 1.000000
v -0.652567 0.049229 -0.485899 1.000000 1.000000 1.000000 1.000000
v -0.439114 0.049229 -0.485899 1.000000 1.000000 1.000000 1.000000
v -0.439112 0.024308 -0.487705 1.000000 1.000000 1.000000 1.000000
v -0.439140 0.016990 0.013344 1.000000 1.000000 1.000000 1.000000
v -0.439112 0.024308 -0.487705 1.000000 1.000000 1.000000 1.000000
v -0.439140 0.056507 0.011211 1.000000 1.000000 1.000000 1.000000
v -0.439114 0.049229 -0.485899 1.000000 1.000000 1.000000 1.000000
v -0.439140 0.471391 0.013344 1.000000 1.000000 1.000000 1.000000
v -0.439112 0.464074 -0.487705 1.000000 1.000000 1.000000 1.000000
v -0.652540 0.471391 0.013344 1.000000 1.000000 1.000000 1.000000
v -0.652568 0.464074 -0.487705 1.000000 1.000000 1.000000 1.000000
v -0.439140 0.431874 0.011211 1.000000 1.000000 1.000000 1.000000
v -0.439140 0.471391 0.013344 1.000000 1.000000 1.000000 1.000000
v -0.652541 0.431874 0.011211 1.000000 1.000000 1.000000 1.000000
v -0.439140 0.471391 0.013344 1.000000 1.000000 1.000000 1.000000
v -0.652540 0.471391 0.013344 1.000000 1.000000 1.000000 1.000000
v -0.652541 0.431874 0.011211 1.000000 1.000000 1.000000 1.000000
v -0.652540 0.471391 0.013344 1.000000 1.000000 1.000000 1.000000
v -0.652568 0.464074 -0.487705 1.000000 1.000000 1.000000 1.000000
v -0.652541 0.431874 0.011211 1.000000 1.000000 1.000000 1.000000
v -0.652567 0.439152 -0.485899 1.000000 1.000000 1.000000 1.000000
v -0.652568 0.464074 -0.487705 1.000000 1.000000 1.000000 1.000000
v -0.439114 0.439152 -0.485899 1.000000 1.000000 1.000000 1.000000
v -0.652567 0.439152 -0.485899 1.000000 1.000000 1.000000 1.000000
v -0.652567 0.439152 -0.485899 1.000000 1.000000 1.000000 1.000000
v -0.439114 0.439152 -0.485899 1.000000 1.000000 1.000000 1.000000
v -0.439140 0.431874 0.011211 1.000000 1.000000 1.000000 1.000000
v -0.652541 0.431874 0.011211 1.000000 1.000000 1.000000 1.000000
v -0.439112 0.464074 -0.487705 1.000000 1.000000 1.000000 1.000000
v -0.439114 0.439152 -0.485899 1.000000 1.000000 1.000000 1.000000
v -0.439114 0.439152 -0.485899 1.000000 1.000000 1.000000 1.000000
v -0.439112 0.464074 -0.487705 1.000000 1.000000 1.000000 1.000000
v -0.439140 0.431874 0.011211 1.000000 1.000000 1.000000 1.000000
v -0.439140 0.471391 0.013344 1.000000 1.000000 1.000000 1.000000
v -0.637916 0.064353 0.117208 1.000000 1.000000 1.000000 1.000000
v -0.637916 0.424027 0.117208 1.000000 1.000000 1.000000 1.000000
v -0.453765 0.064353 0.117208 1.000000 1.000000 1.000000 1.000000
v -0.453765 0.424027 0.117208 1.000000 1.000000 1.000000 1.000000
v -0.637916 0.424027 0.117208 1.000000 1.000000 1.000000 1.000000
v -0.637916 0.064353 0.117208 1.000000 1.000000 1.000000 1.000000
v -0.652615 0.447341 -0.003996 1.000000 1.000000 1.000000 1.000000
v -0.637916 0.064353 0.117208 1.000000 1.000000 1.000000 1.000000
v -0.652615 0.041039 -0.003996 1.000000 1.000000 1.000000 1.000000
v -0.637916 0.064353 0.117208 1.000000 1.000000 1.000000 1.000000
v -0.453765 0.064353 0.117208 1.000000 1.000000 1.000000 1.000000
v -0.652615 0.041039 -0.003996 1.000000 1.000000 1.000000 1.000000
v -0.439066 0.041039 -0.003996 1.000000 1.000000 1.000000 1.000000
v -0.453765 0.064353 0.117208 1.000000 1.000000 1.000000 1.000000
v -0.453765 0.424027 0.117208 1.000000 1.000000 1.000000 1.000000
v -0.439066 0.041039 -0.003996 1.000000 1.000000 1.000000 1.000000
v -0.439066 0.447341 -0.003996 1.000000 1.000000 1.000000 1.000000
v -0.453765 0.424027 0.117208 1.000000 1.000000 1.000000 1.000000
v -0.637916 0.424027 0.117208 1.000000 1.000000 1.000000 1.000000
v -0.439066 0.447341 -0.003996 1.000000 1.000000 1.000000 1.000000
v -0.652615 0.447341 -0.003996 1.000000 1.000000 1.000000 1.000000
v -0.652615 0.041039 -0.003996 1.000000 1.000000 1.000000 1.000000
v -0.689546 0.487488 -0.003523 1.000000 1.000000 1.000000 1.000000
v -0.689546 0.487488 -0.003523 1.000000 1.000000 1.000000 1.000000
v -0.689546 0.000893 -0.003523 1.000000 1.000000 1.000000 1.000000
v -0.439066 0.041039 -0.003996 1.000000 1.000000 1.000000 1.000000
v -0.689546 0.000893 -0.003523 1.000000 1.000000 1.000000 1.000000
v -0.689546 0.000893 -0.003523 1.000000 1.000000 1.000000 1.000000
v -0.402134 0.000893 -0.003523 1.000000 1.000000 1.000000 1.000000
v -0.439066 0.447341 -0.003996 1.000000 1.000000 1.000000 1.000000
v -0.402134 0.000893 -0.003523 1.000000 1.000000 1.000000 1.000000
v -0.402134 0.000893 -0.003523 1.000000 1.000000 1.000000 1.000000
v -0.402134 0.487488 -0.003523 1.000000 1.000000 1.000000 1.000000
v -0.652615 0.447341 -0.003996 1.000000 1.000000 1.000000 1.000000
v -0.402134 0.487488 -0.003523 1.000000 1.000000 1.000000 1.000000
v -0.402134 0.487488 -0.003523 1.000000 1.000000 1.000000 1.000000
v -0.689546 0.487488 -0.003523 1.000000 1.000000 1.000000 1.000000
v -0.689081 0.121097 0.487706 1.000000 1.000000 1.000000 1.000000
v -0.689081 0.367283 0.487706 1.000000 1.000000 1.000000 1.000000
v -0.689685 0.000000 0.322421 1.000000 1.000000 1.000000 1.000000
v -0.689685 0.488380 0.322421 1.000000 1.000000 1.000000 1.000000
v -0.402600 0.121097 0.487706 1.000000 1.000000 1.000000 1.000000
v -0.689081 0.121097 0.487706 1.000000 1.000000 1.000000 1.000000
v -0.401996 0.000000 0.322421 1.000000 1.000000 1.000000 1.000000
v -0.402600 0.367283 0.487706 1.000000 1.000000 1.000000 1.000000
v -0.402600 0.121097 0.487706 1.000000 1.000000 1.000000 1.000000
v -0.401996 0.488380 0.322421 1.000000 1.000000 1.000000 1.000000
v -0.401996 0.000000 0.322421 1.000000 1.000000 1.000000 1.000000
v -0.689081 0.367283 0.487706 1.000000 1.000000 1.000000 1.000000
v -0.402600 0.367283 0.487706 1.000000 1.000000 1.000000 1.000000
v -0.689685 0.488380 0.322421 1.000000 1.000000 1.000000 1.000000
v -0.402600 0.367283 0.487706 1.000000 1.000000 1.000000 1.000000
v -0.689081 0.367283 0.487706 1.000000 1.000000 1.000000 1.000000
v -0.689081 0.121097 0.487706 1.000000 1.000000 1.000000 1.000000
v -0.689081 0.367283 0.487706 1.000000 1.000000 1.000000 1.000000
v -0.689685 0.488380 0.322421 1.000000 1.000000 1.000000 1.000000
v -0.689685 0.000000 0.322421 1.000000 1.000000 1.000000 1.000000
v 0.689081 0.367283 0.487706 1.000000 1.000000 1.000000 1.000000
v 0.689685 0.000000 0.322421 1.000000 1.000000 1.000000 1.000000
v 0.689685 0.488380 0.322421 1.000000 1.000000 1.000000 1.000000
vt 0.698030 0.585130
vt 0.790950 0.504000
vt 0.790950 0.585130
vt 0.698030 0.504000
vt 0.674370 0.454460
vt 0.599000 0.355910
vt 0.674370 0.355910
vt 0.599000 0.454460
vt 0.674370 0.501950
vt 0.599000 0.501950
vt 0.814370 0.454460
vt 0.674370 0.355910
vt 0.814370 0.355910
vt 0.790950 0.504000
vt 0.698030 0.504000
vt 0.674370 0.454460
vt 0.599000 0.355910
vt 0.674370 0.355910
vt 0.599000 0.454460
vt 0.674370 0.501950
vt 0.599000 0.501950
vt 0.814370 0.454460
vt 0.674370 0.355910
vt 0.814370 0.355910
vt 0.698030 0.504000
vt 0.790950 0.504000
vt 0.674370 0.355910
vt 0.599000 0.342230
vt 0.674370 0.342230
vt 0.599000 0.342230
vt 0.814370 0.355910
vt 0.674370 0.342230
vt 0.814370 0.342230
vt 0.674370 0.342230
vt 0.674370 0.355910
vt 0.599000 0.342230
vt 0.674370 0.342230
vt 0.599000 0.342230
vt 0.814370 0.355910
vt 0.674370 0.342230
vt 0.814370 0.342230
vt 0.674370 0.342230
vt 0.599000 0.327840
vt 0.674370 0.327840
vt 0.674370 0.327840
vt 0.814370 0.327840
vt 0.599000 0.327840
vt 0.674370 0.327840
vt 0.674370 0.327840
vt 0.814370 0.327840
vt 0.814000 0.328000
vt 0.674000 0.265740
vt 0.814000 0.265740
vt 0.674000 0.328000
vt 0.573000 0.340000
vt 0.583000 0.495000
vt 0.573000 0.495000
vt 0.583000 0.340000
vt 0.573000 0.494890
vt 0.573000 0.339750
vt 0.586540 0.494890
vt 0.572980 0.493500
vt 0.493440 0.340110
vt 0.493440 0.493500
vt 0.572980 0.340110
vt 0.586540 0.339750
vt 0.572980 0.340110
vt 0.586540 0.494890
vt 0.586540 0.339750
vt 0.573000 0.339750
vt 0.573000 0.494890
vt 0.572980 0.493500
vt 0.493440 0.493500
vt 0.493440 0.493500
vt 0.572980 0.493500
vt 0.493440 0.493500
vt 0.572980 0.493500
vt 0.493440 0.493500
vt 0.493440 0.340110
vt 0.572980 0.340110
vt 0.572980 0.493500
vt 0.583000 0.340000
vt 0.573000 0.495000
vt 0.573000 0.340000
vt 0.583000 0.495000
vt 0.586540 0.339750
vt 0.586540 0.494890
vt 0.573000 0.494890
vt 0.572980 0.340110
vt 0.573000 0.339750
vt 0.493440 0.340110
vt 0.572980 0.340110
vt 0.572980 0.493500
vt 0.493440 0.493500
vt 0.586540 0.339750
vt 0.573000 0.494890
vt 0.586540 0.494890
vt 0.573000 0.339750
vt 0.493440 0.493500
vt 0.572980 0.493500
vt 0.572980 0.493500
vt 0.572980 0.493500
vt 0.493440 0.493500
vt 0.493440 0.493500
vt 0.572980 0.340110
vt 0.493440 0.493500
vt 0.572980 0.493500
vt 0.493440 0.340110
vt 0.493440 0.340110
vt 0.572980 0.340110
vt 0.493440 0.493500
vt 0.572980 0.493500
vt 0.572980 0.493500
vt 0.493440 0.493500
vt 0.493440 0.493500
vt 0.493440 0.493500
vt 0.572980 0.493500
vt 0.572980 0.493500
vt 0.573000 0.339750
vt 0.586540 0.339750
vt 0.573000 0.494890
vt 0.586540 0.494890
vt 0.493440 0.493500
vt 0.572980 0.493500
vt 0.493440 0.340110
vt 0.572980 0.340110
vt 0.572980 0.340110
vt 0.586540 0.339750
vt 0.573000 0.339750
vt 0.573000 0.494890
vt 0.586540 0.494890
vt 0.583000 0.495000
vt 0.583000 0.340000
vt 0.573000 0.495000
vt 0.573000 0.340000
vt 0.572980 0.493500
vt 0.572980 0.340110
vt 0.493440 0.493500
vt 0.493440 0.340110
vt 0.572980 0.493500
vt 0.572980 0.493500
vt 0.493440 0.493500
vt 0.572980 0.493500
vt 0.493440 0.493500
vt 0.493440 0.493500
vt 0.573000 0.494890
vt 0.573000 0.339750
vt 0.586540 0.494890
vt 0.586540 0.339750
vt 0.573000 0.339750
vt 0.572980 0.340110
vt 0.586540 0.339750
vt 0.493440 0.340110
vt 0.572980 0.340110
vt 0.572980 0.493500
vt 0.493440 0.493500
vt 0.573000 0.494890
vt 0.586540 0.494890
vt 0.583000 0.340000
vt 0.573000 0.340000
vt 0.583000 0.495000
vt 0.573000 0.495000
vt 0.674000 0.328000
vt 0.814000 0.328000
vt 0.674000 0.265740
vt 0.814000 0.265740
vt 0.814370 0.327840
vt 0.674370 0.327840
vt 0.814370 0.342230
vt 0.674370 0.327840
vt 0.674370 0.342230
vt 0.674370 0.327840
vt 0.599000 0.327840
vt 0.674370 0.342230
vt 0.599000 0.342230
vt 0.814370 0.327840
vt 0.674370 0.327840
vt 0.814370 0.342230
vt 0.674370 0.342230
vt 0.674370 0.327840
vt 0.599000 0.327840
vt 0.674370 0.342230
vt 0.599000 0.342230
vt 0.674370 0.342230
vt 0.814370 0.355910
vt 0.814370 0.355910
vt 0.674370 0.355910
vt 0.599000 0.342230
vt 0.674370 0.355910
vt 0.674370 0.355910
vt 0.599000 0.355910
vt 0.674370 0.342230
vt 0.814370 0.355910
vt 0.814370 0.355910
vt 0.674370 0.355910
vt 0.599000 0.342230
vt 0.674370 0.355910
vt 0.674370 0.355910
vt 0.599000 0.355910
vt 0.698030 0.504000
vt 0.790950 0.504000
vt 0.674370 0.454460
vt 0.814370 0.454460
vt 0.599000 0.501950
vt 0.674370 0.501950
vt 0.599000 0.454460
vt 0.698030 0.504000
vt 0.790950 0.504000
vt 0.674370 0.454460
vt 0.814370 0.454460
vt 0.599000 0.501950
vt 0.674370 0.501950
vt 0.599000 0.454460
vt 0.698030 0.504000
vt 0.698030 0.585130
vt 0.790950 0.585130
vt 0.599000 0.501950
vt 0.599000 0.454460
vt 0.674370 0.454460
vt 0.599000 0.501950
vt 0.674370 0.454460
vt 0.599000 0.454460
vn 0.616702 0.355401 0.702402
vn -0.616702 -0.355401 0.702402
vn 0.616702 -0.355401 0.702402
vn -0.616702 0.355401 0.702402
vn -0.643380 0.727777 0.237493
vn 0.578516 0.577716 -0.575816
vn -0.578516 0.577716 -0.575816
vn 0.643380 0.727777 0.237493
vn -0.616702 0.355401 0.702402
vn 0.616702 0.355401 0.702402
vn -0.643380 -0.727777 0.237493
vn -0.578516 0.577716 -0.575816
vn -0.578516 -0.577716 -0.575816
vn -0.616702 -0.355401 0.702402
vn -0.616702 0.355401 0.702402
vn 0.643380 -0.727777 0.237493
vn -0.578516 -0.577716 -0.575816
vn 0.578516 -0.577716 -0.575816
vn -0.643380 -0.727777 0.237493
vn 0.616702 -0.355401 0.702402
vn -0.616702 -0.355401 0.702402
vn 0.643380 0.727777 0.237493
vn 0.578516 -0.577716 -0.575816
vn 0.578516 0.577716 -0.575816
vn 0.616702 -0.355401 0.702402
vn 0.616702 0.355401 0.702402
vn -0.578516 0.577716 -0.575816
vn -0.243600 -0.254100 -0.935998
vn 0.243694 -0.254093 -0.935975
vn -0.243600 -0.254100 -0.935998
vn -0.578516 -0.577716 -0.575816
vn 0.243694 -0.254093 -0.935975
vn 0.243600 0.254100 -0.935998
vn 0.243694 -0.254093 -0.935975
vn 0.578516 -0.577716 -0.575816
vn 0.243600 0.254100 -0.935998
vn -0.243694 0.254093 -0.935975
vn 0.243600 0.254100 -0.935998
vn 0.578516 0.577716 -0.575816
vn -0.243694 0.254093 -0.935975
vn -0.243600 -0.254100 -0.935998
vn -0.243694 0.254093 -0.935975
vn -0.546404 -0.518904 -0.657405
vn 0.546404 -0.518904 -0.657405
vn 0.546404 -0.518904 -0.657405
vn 0.546404 0.518904 -0.657405
vn 0.546404 0.518904 -0.657405
vn -0.546404 0.518904 -0.657405
vn -0.546404 0.518904 -0.657405
vn -0.546404 -0.518904 -0.657405
vn -0.546404 -0.518904 -0.657405
vn 0.546404 0.518904 -0.657405
vn 0.546404 -0.518904 -0.657405
vn -0.546404 0.518904 -0.657405
vn -0.574415 0.553115 -0.603416
vn -0.579423 -0.595723 0.556222
vn -0.573803 0.567603 0.590403
vn -0.582015 -0.591316 -0.558215
vn -0.574415 0.553115 -0.603416
vn 0.574415 0.553115 -0.603416
vn -0.582015 -0.591316 -0.558215
vn -0.579423 -0.595723 0.556222
vn 0.582082 -0.591281 -0.558182
vn 0.579423 -0.595723 0.556222
vn -0.582015 -0.591316 -0.558215
vn 0.582082 -0.591281 -0.558182
vn -0.582015 -0.591316 -0.558215
vn 0.579423 -0.595723 0.556222
vn 0.582082 -0.591281 -0.558182
vn 0.574415 0.553115 -0.603416
vn 0.573803 0.567603 0.590403
vn -0.573803 0.567603 0.590403
vn 0.579423 -0.595723 0.556222
vn 0.573803 0.567603 0.590403
vn -0.579423 -0.595723 0.556222
vn 0.579423 -0.595723 0.556222
vn -0.573803 0.567603 0.590403
vn 0.573803 0.567603 0.590403
vn 0.574415 0.553115 -0.603416
vn -0.574415 0.553115 -0.603416
vn -0.573803 0.567603 0.590403
vn -0.574415 -0.553115 -0.603416
vn -0.579423 0.595723 0.556222
vn -0.582015 0.591316 -0.558215
vn -0.573803 -0.567603 0.590403
vn 0.574415 -0.553115 -0.603416
vn -0.574415 -0.553115 -0.603416
vn -0.582015 0.591316 -0.558215
vn -0.582015 0.591316 -0.558215
vn 0.582082 0.591281 -0.558182
vn 0.582082 0.591281 -0.558182
vn -0.582015 0.591316 -0.558215
vn -0.579423 0.595723 0.556222
vn 0.579423 0.595723 0.556222
vn 0.574415 -0.553115 -0.603416
vn 0.579423 0.595723 0.556222
vn 0.573803 -0.567603 0.590403
vn 0.582082 0.591281 -0.558182
vn 0.579423 0.595723 0.556222
vn -0.579423 0.595723 0.556222
vn -0.573803 -0.567603 0.590403
vn -0.573803 -0.567603 0.590403
vn 0.573803 -0.567603 0.590403
vn 0.579423 0.595723 0.556222
vn -0.574415 -0.553115 -0.603416
vn 0.573803 -0.567603 0.590403
vn -0.573803 -0.567603 0.590403
vn 0.574415 -0.553115 -0.603416
vn -0.574415 -0.553115 -0.603416
vn 0.574415 -0.553115 -0.603416
vn -0.573803 -0.567603 0.590403
vn 0.573803 -0.567603 0.590403
vn 0.573803 -0.567603 0.590403
vn -0.579423 0.595723 0.556222
vn -0.573803 -0.567603 0.590403
vn -0.579423 0.595723 0.556222
vn 0.573803 -0.567603 0.590403
vn 0.579423 0.595723 0.556222
vn -0.582082 0.591281 -0.558182
vn -0.574415 -0.553115 -0.603416
vn -0.579423 0.595723 0.556222
vn -0.573803 -0.567603 0.590403
vn -0.579423 0.595723 0.556222
vn 0.579423 0.595723 0.556222
vn -0.582082 0.591281 -0.558182
vn 0.582015 0.591316 -0.558215
vn 0.582015 0.591316 -0.558215
vn -0.574415 -0.553115 -0.603416
vn -0.582082 0.591281 -0.558182
vn 0.582015 0.591316 -0.558215
vn 0.574415 -0.553115 -0.603416
vn 0.573803 -0.567603 0.590403
vn 0.574415 -0.553115 -0.603416
vn 0.579423 0.595723 0.556222
vn 0.582015 0.591316 -0.558215
vn 0.573803 0.567603 0.590403
vn 0.574415 0.553115 -0.603416
vn -0.573803 0.567603 0.590403
vn -0.574415 0.553115 -0.603416
vn 0.579423 -0.595723 0.556222
vn 0.573803 0.567603 0.590403
vn -0.579423 -0.595723 0.556222
vn 0.573803 0.567603 0.590403
vn -0.573803 0.567603 0.590403
vn -0.579423 -0.595723 0.556222
vn -0.573803 0.567603 0.590403
vn -0.574415 0.553115 -0.603416
vn -0.579423 -0.595723 0.556222
vn -0.582082 -0.591281 -0.558182
vn -0.574415 0.553115 -0.603416
vn 0.582015 -0.591316 -0.558215
vn -0.582082 -0.591281 -0.558182
vn -0.582082 -0.591281 -0.558182
vn 0.582015 -0.591316 -0.558215
vn 0.579423 -0.595723 0.556222
vn -0.579423 -0.595723 0.556222
vn 0.574415 0.553115 -0.603416
vn 0.582015 -0.591316 -0.558215
vn 0.582015 -0.591316 -0.558215
vn 0.574415 0.553115 -0.603416
vn 0.579423 -0.595723 0.556222
vn 0.573803 0.567603 0.590403
vn 0.546404 0.518904 -0.657405
vn 0.546404 -0.518904 -0.657405
vn -0.546404 0.518904 -0.657405
vn -0.546404 -0.518904 -0.657405
vn 0.546404 -0.518904 -0.657405
vn 0.546404 0.518904 -0.657405
vn 0.243600 -0.254100 -0.935998
vn 0.546404 0.518904 -0.657405
vn 0.243694 0.254093 -0.935975
vn 0.546404 0.518904 -0.657405
vn -0.546404 0.518904 -0.657405
vn 0.243694 0.254093 -0.935975
vn -0.243600 0.254100 -0.935998
vn -0.546404 0.518904 -0.657405
vn -0.546404 -0.518904 -0.657405
vn -0.243600 0.254100 -0.935998
vn -0.243694 -0.254093 -0.935975
vn -0.546404 -0.518904 -0.657405
vn 0.546404 -0.518904 -0.657405
vn -0.243694 -0.254093 -0.935975
vn 0.243600 -0.254100 -0.935998
vn 0.243694 0.254093 -0.935975
vn -0.578516 0.577716 -0.575816
vn -0.578516 0.577716 -0.575816
vn -0.578516 -0.577716 -0.575816
vn -0.243600 0.254100 -0.935998
vn -0.578516 -0.577716 -0.575816
vn -0.578516 -0.577716 -0.575816
vn 0.578516 -0.577716 -0.575816
vn -0.243694 -0.254093 -0.935975
vn 0.578516 -0.577716 -0.575816
vn 0.578516 -0.577716 -0.575816
vn 0.578516 0.577716 -0.575816
vn 0.243600 -0.254100 -0.935998
vn 0.578516 0.577716 -0.575816
vn 0.578516 0.577716 -0.575816
vn -0.578516 0.577716 -0.575816
vn -0.616702 -0.355401 0.702402
vn -0.616702 0.355401 0.702402
vn -0.643380 -0.727777 0.237493
vn -0.643380 0.727777 0.237493
vn 0.616702 -0.355401 0.702402
vn -0.616702 -0.355401 0.702402
vn 0.643380 -0.727777 0.237493
vn 0.616702 0.355401 0.702402
vn 0.616702 -0.355401 0.702402
vn 0.643380 0.727777 0.237493
vn 0.643380 -0.727777 0.237493
vn -0.616702 0.355401 0.702402
vn 0.616702 0.355401 0.702402
vn -0.643380 0.727777 0.237493
vn 0.616702 0.355401 0.702402
vn -0.616702 0.355401 0.702402
vn -0.616702 -0.355401 0.702402
vn -0.616702 0.355401 0.702402
vn -0.643380 0.727777 0.237493
vn -0.643380 -0.727777 0.237493
vn 0.616702 0.355401 0.702402
vn 0.643380 -0.727777 0.237493
vn 0.643380 0.727777 0.237493
f 1/1/1 2/2/2 3/3/3
f 4/4/4 2/2/2 1/1/1
f 15/15/15 5/5/5 2/2/2
f 5/5/5 6/6/6 7/7/7
f 8/8/8 6/6/6 5/5/5
f 9/9/9 8/8/8 5/5/5
f 5/5/5 12/12/12 11/11/11
f 14/14/14 5/5/5 11/11/11
f 27/27/27 6/6/6 28/28/28
f 29/29/29 28/28/28 43/43/43
f 29/29/29 7/7/7 30/30/30
f 44/44/44 29/29/29 43/43/43
f 11/11/11 12/12/12 13/13/13
f 31/31/31 12/12/12 32/32/32
f 33/33/33 32/32/32 45/45/45
f 33/33/33 13/13/13 34/34/34
f 46/46/46 33/33/33 45/45/45
f 10/10/10 8/8/8 9/9/9
f 16/16/16 17/17/17 18/18/18
f 19/19/19 17/17/17 16/16/16
f 20/20/20 19/19/19 16/16/16
f 25/25/25 16/16/16 26/26/26
f 23/23/23 22/22/22 16/16/16
f 35/35/35 17/17/17 36/36/36
f 37/37/37 36/36/36 47/47/47
f 37/37/37 18/18/18 38/38/38
f 48/48/48 37/37/37 47/47/47
f 22/22/22 23/23/23 24/24/24
f 39/39/39 23/23/23 40/40/40
f 41/41/41 40/40/40 49/49/49
f 41/41/41 24/24/24 42/42/42
f 50/50/50 41/41/41 49/49/49
f 21/21/21 19/19/19 20/20/20
f 51/51/51 52/52/52 53/53/53
f 54/54/54 52/52/52 51/51/51
f 55/55/55 56/56/56 57/57/57
f 58/58/58 56/56/56 55/55/55
f 59/59/59 60/60/60 61/61/61
f 60/60/60 66/66/66 67/67/67
f 62/62/62 63/63/63 64/64/64
f 63/63/63 62/62/62 65/65/65
f 68/68/68 69/69/69 70/70/70
f 71/71/71 68/68/68 70/70/70
f 72/72/72 73/73/73 74/74/74
f 75/75/75 76/76/76 77/77/77
f 78/78/78 79/79/79 80/80/80
f 81/81/81 78/78/78 80/80/80
f 82/82/82 83/83/83 84/84/84
f 85/85/85 83/83/83 82/82/82
f 86/86/86 87/87/87 88/88/88
f 89/89/89 90/90/90 86/86/86
f 91/91/91 92/92/92 93/93/93
f 94/94/94 91/91/91 93/93/93
f 95/95/95 96/96/96 97/97/97
f 98/98/98 96/96/96 95/95/95
f 99/99/99 100/100/100 101/101/101
f 102/102/102 103/103/103 104/104/104
f 105/105/105 106/106/106 107/107/107
f 108/108/108 106/106/106 105/105/105
f 109/109/109 110/110/110 111/111/111
f 110/110/110 112/112/112 111/111/111
f 113/113/113 114/114/114 115/115/115
f 116/116/116 117/117/117 118/118/118
f 119/119/119 120/120/120 121/121/121
f 120/120/120 122/122/122 121/121/121
f 123/123/123 124/124/124 125/125/125
f 125/125/125 124/124/124 126/126/126
f 127/127/127 128/128/128 129/129/129
f 128/128/128 130/130/130 131/131/131
f 132/132/132 133/133/133 134/134/134
f 133/133/133 135/135/135 134/134/134
f 136/136/136 137/137/137 138/138/138
f 138/138/138 137/137/137 139/139/139
f 140/140/140 141/141/141 142/142/142
f 143/143/143 144/144/144 145/145/145
f 146/146/146 147/147/147 148/148/148
f 148/148/148 147/147/147 149/149/149
f 150/150/150 151/151/151 152/152/152
f 157/157/157 158/158/158 150/150/150
f 153/153/153 154/154/154 155/155/155
f 155/155/155 156/156/156 153/153/153
f 159/159/159 160/160/160 161/161/161
f 160/160/160 162/162/162 161/161/161
f 163/163/163 164/164/164 165/165/165
f 164/164/164 166/166/166 165/165/165
f 167/167/167 168/168/168 169/169/169
f 169/169/169 170/170/170 171/171/171
f 169/169/169 184/184/184 185/185/185
f 186/186/186 171/171/171 187/187/187
f 203/203/203 185/185/185 187/187/187
f 187/187/187 202/202/202 203/203/203
f 200/200/200 201/201/201 202/202/202
f 205/205/205 202/202/202 206/206/206
f 206/206/206 202/202/202 191/191/191
f 202/202/202 189/189/189 191/191/191
f 204/204/204 205/205/205 206/206/206
f 190/190/190 175/175/175 191/191/191
f 174/174/174 173/173/173 175/175/175
f 172/172/172 173/173/173 174/174/174
f 174/174/174 188/188/188 189/189/189
f 176/176/176 177/177/177 178/178/178
f 178/178/178 177/177/177 179/179/179
f 178/178/178 192/192/192 193/193/193
f 210/210/210 193/193/193 195/195/195
f 208/208/208 210/210/210 209/209/209
f 209/209/209 210/210/210 195/195/195
f 194/194/194 179/179/179 195/195/195
f 207/207/207 208/208/208 209/209/209
f 212/212/212 209/209/209 213/213/213
f 213/213/213 209/209/209 199/199/199
f 209/209/209 197/197/197 199/199/199
f 214/214/214 215/215/215 208/208/208
f 215/215/215 216/216/216 208/208/208
f 198/198/198 183/183/183 199/199/199
f 182/182/182 181/181/181 183/183/183
f 180/180/180 181/181/181 182/182/182
f 182/182/182 196/196/196 197/197/197
f 211/211/211 212/212/212 213/213/213
f 217/217/217 218/218/218 219/219/219
f 220/220/220 221/221/221 222/222/222
