# generated by the editor's model importer
v 0.925056 0.694090 0.022593 1.000000 1.000000 1.000000 1.000000
v 1.600093 1.084593 -1.821468 1.000000 1.000000 1.000000 1.000000
v 1.500092 2.355198 -0.580825 1.000000 1.000000 1.000000 1.000000
v -1.600093 1.084593 -1.821468 1.000000 1.000000 1.000000 1.000000
v -0.925056 0.694090 0.022593 1.000000 1.000000 1.000000 1.000000
v -1.500092 2.355198 -0.580825 1.000000 1.000000 1.000000 1.000000
v 1.050063 3.122896 0.919773 1.000000 1.000000 1.000000 1.000000
v 0.925056 0.694090 0.022593 1.000000 1.000000 1.000000 1.000000
v 1.500092 2.355198 -0.580825 1.000000 1.000000 1.000000 1.000000
v 0.200006 0.462402 1.027065 1.000000 1.000000 1.000000 1.000000
v 0.925056 0.694090 0.022593 1.000000 1.000000 1.000000 1.000000
v 1.050063 3.122896 0.919773 1.000000 1.000000 1.000000 1.000000
v 0.500034 0.000000 0.701465 1.000000 1.000000 1.000000 1.000000
v 0.925056 0.694090 0.022593 1.000000 1.000000 1.000000 1.000000
v 0.200006 0.462402 1.027065 1.000000 1.000000 1.000000 1.000000
v 0.500034 0.000000 0.701465 1.000000 1.000000 1.000000 1.000000
v 0.200014 0.183960 1.176961 1.000000 1.000000 1.000000 1.000000
v -0.200014 0.183960 1.176961 1.000000 1.000000 1.000000 1.000000
v -0.500034 0.000000 0.701465 1.000000 1.000000 1.000000 1.000000
v -0.925056 0.694090 0.022593 1.000000 1.000000 1.000000 1.000000
v -1.050063 3.122896 0.919773 1.000000 1.000000 1.000000 1.000000
v -1.500092 2.355198 -0.580825 1.000000 1.000000 1.000000 1.000000
v 0.200014 0.183960 1.176961 1.000000 1.000000 1.000000 1.000000
v 0.200006 0.462402 1.027065 1.000000 1.000000 1.000000 1.000000
v -0.200006 0.462402 1.027065 1.000000 1.000000 1.000000 1.000000
v -0.200014 0.183960 1.176961 1.000000 1.000000 1.000000 1.000000
v -0.200006 0.462402 1.027065 1.000000 1.000000 1.000000 1.000000
v -0.925056 0.694090 0.022593 1.000000 1.000000 1.000000 1.000000
v -0.500034 0.000000 0.701465 1.000000 1.000000 1.000000 1.000000
v -1.050063 3.122896 0.919773 1.000000 1.000000 1.000000 1.000000
v -0.925056 0.694090 0.022593 1.000000 1.000000 1.000000 1.000000
v -0.200006 0.462402 1.027065 1.000000 1.000000 1.000000 1.000000
v 0.200006 0.462402 1.027065 1.000000 1.000000 1.000000 1.000000
v 0.200014 0.183960 1.176961 1.000000 1.000000 1.000000 1.000000
v 0.500034 0.000000 0.701465 1.000000 1.000000 1.000000 1.000000
v 1.050063 3.122896 0.919773 1.000000 1.000000 1.000000 1.000000
v 0.000000 1.642027 1.684704 1.000000 1.000000 1.000000 1.000000
v 0.200006 0.462402 1.027065 1.000000 1.000000 1.000000 1.000000
v -0.500034 0.000000 0.701465 1.000000 1.000000 1.000000 1.000000
v -0.200014 0.183960 1.176961 1.000000 1.000000 1.000000 1.000000
v -0.200006 0.462402 1.027065 1.000000 1.000000 1.000000 1.000000
v 0.200006 0.462402 1.027065 1.000000 1.000000 1.000000 1.000000
v 0.000000 1.642027 1.684704 1.000000 1.000000 1.000000 1.000000
v -0.200006 0.462402 1.027065 1.000000 1.000000 1.000000 1.000000
v 0.000000 1.642027 1.684704 1.000000 1.000000 1.000000 1.000000
v -1.050063 3.122896 0.919773 1.000000 1.000000 1.000000 1.000000
v -0.200006 0.462402 1.027065 1.000000 1.000000 1.000000 1.000000
v 1.050063 3.122896 0.919773 1.000000 1.000000 1.000000 1.000000
v 0.000000 3.482273 1.821469 1.000000 1.000000 1.000000 1.000000
v 0.000000 1.642027 1.684704 1.000000 1.000000 1.000000 1.000000
v 0.000000 1.642027 1.684704 1.000000 1.000000 1.000000 1.000000
v 0.000000 3.482273 1.821469 1.000000 1.000000 1.000000 1.000000
v -1.050063 3.122896 0.919773 1.000000 1.000000 1.000000 1.000000
vt 0.931600 0.611300
vt 0.998000 0.638700
vt 0.943400 0.681600
vt 0.998000 0.638700
vt 0.931600 0.611300
vt 0.943400 0.681600
vt 0.880900 0.701200
vt 0.931600 0.611300
vt 0.943400 0.681600
vt 0.892600 0.595700
vt 0.931600 0.611300
vt 0.880900 0.701200
vt 0.908200 0.580100
vt 0.931600 0.611300
vt 0.892600 0.595700
vt 0.908200 0.580100
vt 0.888700 0.584000
vt 0.888700 0.584000
vt 0.908200 0.580100
vt 0.931600 0.611300
vt 0.880900 0.701200
vt 0.943400 0.681600
vt 0.888700 0.584000
vt 0.892600 0.595700
vt 0.892600 0.595700
vt 0.888700 0.584000
vt 0.892600 0.595700
vt 0.931600 0.611300
vt 0.908200 0.580100
vt 0.880900 0.701200
vt 0.931600 0.611300
vt 0.892600 0.595700
vt 0.892600 0.595700
vt 0.888700 0.584000
vt 0.908200 0.580100
vt 0.880900 0.701200
vt 0.861300 0.634800
vt 0.892600 0.595700
vt 0.908200 0.580100
vt 0.888700 0.584000
vt 0.892600 0.595700
vt 0.892600 0.595700
vt 0.861300 0.634800
vt 0.892600 0.595700
vt 0.861300 0.634800
vt 0.880900 0.701200
vt 0.892600 0.595700
vt 0.880900 0.701200
vt 0.845700 0.705100
vt 0.861300 0.634800
vt 0.861300 0.634800
vt 0.845700 0.705100
vt 0.880900 0.701200
vn 0.930927 -0.215006 0.295208
vn 0.930927 -0.215006 0.295208
vn 0.930927 -0.215006 0.295208
vn -0.930927 -0.215006 0.295208
vn -0.930927 -0.215006 0.295208
vn -0.930927 -0.215006 0.295208
vn 0.912186 -0.182497 0.366894
vn 0.912186 -0.182497 0.366894
vn 0.912186 -0.182497 0.366894
vn 0.812730 -0.238209 0.531720
vn 0.812730 -0.238209 0.531720
vn 0.812730 -0.238209 0.531720
vn 0.796378 0.096297 0.597084
vn 0.796378 0.096297 0.597084
vn 0.796378 0.096297 0.597084
vn 0.000000 -0.932638 0.360815
vn 0.000000 -0.932638 0.360815
vn 0.000000 -0.932638 0.360815
vn 0.000000 -0.932638 0.360815
vn -0.912186 -0.182497 0.366894
vn -0.912186 -0.182497 0.366894
vn -0.912186 -0.182497 0.366894
vn 0.000000 0.474010 0.880519
vn 0.000000 0.474010 0.880519
vn 0.000000 0.474010 0.880519
vn 0.000000 0.474010 0.880519
vn -0.796378 0.096297 0.597084
vn -0.796378 0.096297 0.597084
vn -0.796378 0.096297 0.597084
vn -0.812730 -0.238209 0.531720
vn -0.812730 -0.238209 0.531720
vn -0.812730 -0.238209 0.531720
vn 0.860130 0.241808 0.449116
vn 0.860130 0.241808 0.449116
vn 0.860130 0.241808 0.449116
vn 0.755610 -0.216503 0.618208
vn 0.755610 -0.216503 0.618208
vn 0.755610 -0.216503 0.618208
vn -0.860130 0.241808 0.449116
vn -0.860130 0.241808 0.449116
vn -0.860130 0.241808 0.449116
vn 0.000000 -0.486925 0.873444
vn 0.000000 -0.486925 0.873444
vn 0.000000 -0.486925 0.873444
vn -0.755610 -0.216503 0.618208
vn -0.755610 -0.216503 0.618208
vn -0.755610 -0.216503 0.618208
vn 0.639104 -0.057000 0.767005
vn 0.639104 -0.057000 0.767005
vn 0.639104 -0.057000 0.767005
vn -0.639104 -0.057000 0.767005
vn -0.639104 -0.057000 0.767005
vn -0.639104 -0.057000 0.767005
f 1/1/1 2/2/2 3/3/3
f 4/4/4 5/5/5 6/6/6
f 7/7/7 8/8/8 9/9/9
f 10/10/10 11/11/11 12/12/12
f 13/13/13 14/14/14 15/15/15
f 16/16/16 17/17/17 18/18/18
f 16/16/16 18/18/18 19/19/19
f 20/20/20 21/21/21 22/22/22
f 23/23/23 24/24/24 25/25/25
f 23/23/23 25/25/25 26/26/26
f 27/27/27 28/28/28 29/29/29
f 30/30/30 31/31/31 32/32/32
f 33/33/33 34/34/34 35/35/35
f 36/36/36 37/37/37 38/38/38
f 39/39/39 40/40/40 41/41/41
f 42/42/42 43/43/43 44/44/44
f 45/45/45 46/46/46 47/47/47
f 48/48/48 49/49/49 50/50/50
f 51/51/51 52/52/52 53/53/53
