# generated by tools/editor_import_glb.py
v 0.260243 1.104509 -0.259494 1.000000 1.000000 1.000000 1.000000
v 0.260243 1.104509 -0.259494 1.000000 1.000000 1.000000 1.000000
v 0.260243 1.104509 -0.259494 1.000000 1.000000 1.000000 1.000000
v 0.260243 1.104509 -0.259494 1.000000 1.000000 1.000000 1.000000
v -0.253974 1.105492 -0.241043 1.000000 1.000000 1.000000 1.000000
v -0.253974 1.105492 -0.241043 1.000000 1.000000 1.000000 1.000000
v -0.253974 1.105492 -0.241043 1.000000 1.000000 1.000000 1.000000
v -0.253974 1.105492 -0.241043 1.000000 1.000000 1.000000 1.000000
v -0.248429 1.099167 0.267321 1.000000 1.000000 1.000000 1.000000
v -0.248429 1.099167 0.267321 1.000000 1.000000 1.000000 1.000000
v -0.248429 1.099167 0.267321 1.000000 1.000000 1.000000 1.000000
v -0.248429 1.099167 0.267321 1.000000 1.000000 1.000000 1.000000
v 0.248824 1.101193 0.246032 1.000000 1.000000 1.000000 1.000000
v 0.248824 1.101193 0.246032 1.000000 1.000000 1.000000 1.000000
v 0.248824 1.101193 0.246032 1.000000 1.000000 1.000000 1.000000
v 0.248824 1.101193 0.246032 1.000000 1.000000 1.000000 1.000000
v 0.364877 0.354129 -0.382924 1.000000 1.000000 1.000000 1.000000
v 0.364877 0.354129 -0.382924 1.000000 1.000000 1.000000 1.000000
v 0.364877 0.354129 -0.382924 1.000000 1.000000 1.000000 1.000000
v 0.364877 0.354129 -0.382924 1.000000 1.000000 1.000000 1.000000
v 0.365007 0.371876 0.380154 1.000000 1.000000 1.000000 1.000000
v 0.365007 0.371876 0.380154 1.000000 1.000000 1.000000 1.000000
v 0.365007 0.371876 0.380154 1.000000 1.000000 1.000000 1.000000
v 0.365007 0.371876 0.380154 1.000000 1.000000 1.000000 1.000000
v -0.382594 0.349220 -0.377164 1.000000 1.000000 1.000000 1.000000
v -0.382594 0.349220 -0.377164 1.000000 1.000000 1.000000 1.000000
v -0.382594 0.349220 -0.377164 1.000000 1.000000 1.000000 1.000000
v -0.382594 0.349220 -0.377164 1.000000 1.000000 1.000000 1.000000
v -0.376693 0.361354 0.373611 1.000000 1.000000 1.000000 1.000000
v -0.376693 0.361354 0.373611 1.000000 1.000000 1.000000 1.000000
v -0.376693 0.361354 0.373611 1.000000 1.000000 1.000000 1.000000
v -0.376693 0.361354 0.373611 1.000000 1.000000 1.000000 1.000000
v -0.257395 0.407977 0.263762 1.000000 1.000000 1.000000 1.000000
v -0.257395 0.407977 0.263762 1.000000 1.000000 1.000000 1.000000
v -0.257395 0.407977 0.263762 1.000000 1.000000 1.000000 1.000000
v -0.257395 0.407977 0.263762 1.000000 1.000000 1.000000 1.000000
v 0.260243 0.396071 -0.263343 1.000000 1.000000 1.000000 1.000000
v 0.260243 0.396071 -0.263343 1.000000 1.000000 1.000000 1.000000
v 0.260243 0.396071 -0.263343 1.000000 1.000000 1.000000 1.000000
v 0.260243 0.396071 -0.263343 1.000000 1.000000 1.000000 1.000000
v 0.264931 0.395168 0.278202 1.000000 1.000000 1.000000 1.000000
v 0.264931 0.395168 0.278202 1.000000 1.000000 1.000000 1.000000
v 0.264931 0.395168 0.278202 1.000000 1.000000 1.000000 1.000000
v 0.264931 0.395168 0.278202 1.000000 1.000000 1.000000 1.000000
v -0.259127 0.395404 -0.259922 1.000000 1.000000 1.000000 1.000000
v -0.259127 0.395404 -0.259922 1.000000 1.000000 1.000000 1.000000
v -0.259127 0.395404 -0.259922 1.000000 1.000000 1.000000 1.000000
v -0.259127 0.395404 -0.259922 1.000000 1.000000 1.000000 1.000000
v -0.288257 1.131490 0.287735 1.000000 1.000000 1.000000 1.000000
v -0.288257 1.131490 0.287735 1.000000 1.000000 1.000000 1.000000
v -0.288257 1.131490 0.287735 1.000000 1.000000 1.000000 1.000000
v -0.288257 1.131490 0.287735 1.000000 1.000000 1.000000 1.000000
v -0.285774 1.073939 0.290143 1.000000 1.000000 1.000000 1.000000
v -0.285774 1.073939 0.290143 1.000000 1.000000 1.000000 1.000000
v -0.285774 1.073939 0.290143 1.000000 1.000000 1.000000 1.000000
v -0.285774 1.073939 0.290143 1.000000 1.000000 1.000000 1.000000
v 0.285030 1.069691 0.280990 1.000000 1.000000 1.000000 1.000000
v 0.285030 1.069691 0.280990 1.000000 1.000000 1.000000 1.000000
v 0.285030 1.069691 0.280990 1.000000 1.000000 1.000000 1.000000
v 0.285030 1.069691 0.280990 1.000000 1.000000 1.000000 1.000000
v 0.289241 1.119750 0.297438 1.000000 1.000000 1.000000 1.000000
v 0.289241 1.119750 0.297438 1.000000 1.000000 1.000000 1.000000
v 0.289241 1.119750 0.297438 1.000000 1.000000 1.000000 1.000000
v 0.289241 1.119750 0.297438 1.000000 1.000000 1.000000 1.000000
v -0.287121 1.123907 -0.276357 1.000000 1.000000 1.000000 1.000000
v -0.287121 1.123907 -0.276357 1.000000 1.000000 1.000000 1.000000
v -0.287121 1.123907 -0.276357 1.000000 1.000000 1.000000 1.000000
v -0.287121 1.123907 -0.276357 1.000000 1.000000 1.000000 1.000000
v -0.287121 1.123907 -0.276357 1.000000 1.000000 1.000000 1.000000
v -0.280872 1.076209 -0.284635 1.000000 1.000000 1.000000 1.000000
v -0.280872 1.076209 -0.284635 1.000000 1.000000 1.000000 1.000000
v -0.280872 1.076209 -0.284635 1.000000 1.000000 1.000000 1.000000
v -0.280872 1.076209 -0.284635 1.000000 1.000000 1.000000 1.000000
v 0.279409 1.077525 -0.291625 1.000000 1.000000 1.000000 1.000000
v 0.279409 1.077525 -0.291625 1.000000 1.000000 1.000000 1.000000
v 0.279409 1.077525 -0.291625 1.000000 1.000000 1.000000 1.000000
v 0.279409 1.077525 -0.291625 1.000000 1.000000 1.000000 1.000000
v 0.279899 1.133707 -0.279085 1.000000 1.000000 1.000000 1.000000
v 0.279899 1.133707 -0.279085 1.000000 1.000000 1.000000 1.000000
v 0.279899 1.133707 -0.279085 1.000000 1.000000 1.000000 1.000000
v 0.279899 1.133707 -0.279085 1.000000 1.000000 1.000000 1.000000
v -0.282213 0.433520 0.281158 1.000000 1.000000 1.000000 1.000000
v -0.282213 0.433520 0.281158 1.000000 1.000000 1.000000 1.000000
v -0.282213 0.433520 0.281158 1.000000 1.000000 1.000000 1.000000
v -0.282213 0.433520 0.281158 1.000000 1.000000 1.000000 1.000000
v -0.300740 0.417401 -0.292425 1.000000 1.000000 1.000000 1.000000
v -0.300740 0.417401 -0.292425 1.000000 1.000000 1.000000 1.000000
v -0.300740 0.417401 -0.292425 1.000000 1.000000 1.000000 1.000000
v -0.300740 0.417401 -0.292425 1.000000 1.000000 1.000000 1.000000
v 0.286249 0.436944 0.285838 1.000000 1.000000 1.000000 1.000000
v 0.286249 0.436944 0.285838 1.000000 1.000000 1.000000 1.000000
v 0.286249 0.436944 0.285838 1.000000 1.000000 1.000000 1.000000
v 0.286249 0.436944 0.285838 1.000000 1.000000 1.000000 1.000000
v 0.292599 0.424717 -0.286646 1.000000 1.000000 1.000000 1.000000
v 0.292599 0.424717 -0.286646 1.000000 1.000000 1.000000 1.000000
v 0.292599 0.424717 -0.286646 1.000000 1.000000 1.000000 1.000000
v 0.292599 0.424717 -0.286646 1.000000 1.000000 1.000000 1.000000
v 0.387955 0.104404 -0.360474 1.000000 1.000000 1.000000 1.000000
v 0.387955 0.104404 -0.360474 1.000000 1.000000 1.000000 1.000000
v 0.387955 0.104404 -0.360474 1.000000 1.000000 1.000000 1.000000
v 0.387955 0.104404 -0.360474 1.000000 1.000000 1.000000 1.000000
v 0.373998 0.103865 0.376402 1.000000 1.000000 1.000000 1.000000
v 0.373998 0.103865 0.376402 1.000000 1.000000 1.000000 1.000000
v 0.373998 0.103865 0.376402 1.000000 1.000000 1.000000 1.000000
v 0.373998 0.103865 0.376402 1.000000 1.000000 1.000000 1.000000
v -0.374482 0.102575 -0.374889 1.000000 1.000000 1.000000 1.000000
v -0.374482 0.102575 -0.374889 1.000000 1.000000 1.000000 1.000000
v -0.374482 0.102575 -0.374889 1.000000 1.000000 1.000000 1.000000
v -0.374482 0.102575 -0.374889 1.000000 1.000000 1.000000 1.000000
v -0.386219 0.111001 0.380388 1.000000 1.000000 1.000000 1.000000
v -0.386219 0.111001 0.380388 1.000000 1.000000 1.000000 1.000000
v -0.386219 0.111001 0.380388 1.000000 1.000000 1.000000 1.000000
v -0.386219 0.111001 0.380388 1.000000 1.000000 1.000000 1.000000
v -0.446529 0.000000 -0.446530 1.000000 1.000000 1.000000 1.000000
v -0.446529 0.000000 -0.446530 1.000000 1.000000 1.000000 1.000000
v -0.446529 0.000000 0.446530 1.000000 1.000000 1.000000 1.000000
v -0.446529 0.000000 0.446530 1.000000 1.000000 1.000000 1.000000
v 0.446529 0.000000 -0.446530 1.000000 1.000000 1.000000 1.000000
v 0.446529 0.000000 -0.446530 1.000000 1.000000 1.000000 1.000000
v 0.446529 0.101412 -0.446530 1.000000 1.000000 1.000000 1.000000
v 0.446529 0.101412 -0.446530 1.000000 1.000000 1.000000 1.000000
v 0.446529 0.101412 -0.446530 1.000000 1.000000 1.000000 1.000000
v 0.446529 0.101412 -0.446530 1.000000 1.000000 1.000000 1.000000
v 0.446529 0.101412 0.446530 1.000000 1.000000 1.000000 1.000000
v 0.446529 0.101412 0.446530 1.000000 1.000000 1.000000 1.000000
v 0.446529 0.101412 0.446530 1.000000 1.000000 1.000000 1.000000
v 0.446529 0.101412 0.446530 1.000000 1.000000 1.000000 1.000000
v 0.446529 0.000000 0.446530 1.000000 1.000000 1.000000 1.000000
v 0.446529 0.000000 0.446530 1.000000 1.000000 1.000000 1.000000
v -0.446529 0.101412 -0.446530 1.000000 1.000000 1.000000 1.000000
v -0.446529 0.101412 -0.446530 1.000000 1.000000 1.000000 1.000000
v -0.446529 0.101412 -0.446530 1.000000 1.000000 1.000000 1.000000
v -0.446529 0.101412 -0.446530 1.000000 1.000000 1.000000 1.000000
v -0.446529 0.101412 0.446530 1.000000 1.000000 1.000000 1.000000
v -0.446529 0.101412 0.446530 1.000000 1.000000 1.000000 1.000000
v -0.446529 0.101412 0.446530 1.000000 1.000000 1.000000 1.000000
v -0.446529 0.101412 0.446530 1.000000 1.000000 1.000000 1.000000
v 0.255926 1.902851 -0.256782 1.000000 1.000000 1.000000 1.000000
v 0.255926 1.902851 -0.256782 1.000000 1.000000 1.000000 1.000000
v 0.255926 1.902851 -0.256782 1.000000 1.000000 1.000000 1.000000
v 0.255926 1.902851 -0.256782 1.000000 1.000000 1.000000 1.000000
v -0.250309 1.895446 -0.253893 1.000000 1.000000 1.000000 1.000000
v -0.250309 1.895446 -0.253893 1.000000 1.000000 1.000000 1.000000
v -0.250309 1.895446 -0.253893 1.000000 1.000000 1.000000 1.000000
v -0.250309 1.895446 -0.253893 1.000000 1.000000 1.000000 1.000000
v -0.257891 1.897931 0.258287 1.000000 1.000000 1.000000 1.000000
v -0.257891 1.897931 0.258287 1.000000 1.000000 1.000000 1.000000
v -0.257891 1.897931 0.258287 1.000000 1.000000 1.000000 1.000000
v -0.257891 1.897931 0.258287 1.000000 1.000000 1.000000 1.000000
v 0.250481 1.895871 0.266916 1.000000 1.000000 1.000000 1.000000
v 0.250481 1.895871 0.266916 1.000000 1.000000 1.000000 1.000000
v 0.250481 1.895871 0.266916 1.000000 1.000000 1.000000 1.000000
v 0.250481 1.895871 0.266916 1.000000 1.000000 1.000000 1.000000
v 0.382151 2.626395 -0.377488 1.000000 1.000000 1.000000 1.000000
v 0.382151 2.626395 -0.377488 1.000000 1.000000 1.000000 1.000000
v 0.382151 2.626395 -0.377488 1.000000 1.000000 1.000000 1.000000
v 0.382151 2.626395 -0.377488 1.000000 1.000000 1.000000 1.000000
v 0.385234 2.645572 0.365235 1.000000 1.000000 1.000000 1.000000
v 0.385234 2.645572 0.365235 1.000000 1.000000 1.000000 1.000000
v 0.385234 2.645572 0.365235 1.000000 1.000000 1.000000 1.000000
v 0.385234 2.645572 0.365235 1.000000 1.000000 1.000000 1.000000
v -0.376213 2.634104 -0.372053 1.000000 1.000000 1.000000 1.000000
v -0.376213 2.634104 -0.372053 1.000000 1.000000 1.000000 1.000000
v -0.376213 2.634104 -0.372053 1.000000 1.000000 1.000000 1.000000
v -0.376213 2.634104 -0.372053 1.000000 1.000000 1.000000 1.000000
v -0.372787 2.642618 0.368904 1.000000 1.000000 1.000000 1.000000
v -0.372787 2.642618 0.368904 1.000000 1.000000 1.000000 1.000000
v -0.372787 2.642618 0.368904 1.000000 1.000000 1.000000 1.000000
v -0.372787 2.642618 0.368904 1.000000 1.000000 1.000000 1.000000
v -0.259308 2.600795 0.262413 1.000000 1.000000 1.000000 1.000000
v -0.259308 2.600795 0.262413 1.000000 1.000000 1.000000 1.000000
v -0.259308 2.600795 0.262413 1.000000 1.000000 1.000000 1.000000
v -0.259308 2.600795 0.262413 1.000000 1.000000 1.000000 1.000000
v 0.250333 2.598857 -0.258655 1.000000 1.000000 1.000000 1.000000
v 0.250333 2.598857 -0.258655 1.000000 1.000000 1.000000 1.000000
v 0.250333 2.598857 -0.258655 1.000000 1.000000 1.000000 1.000000
v 0.250333 2.598857 -0.258655 1.000000 1.000000 1.000000 1.000000
v 0.259525 2.597925 0.267478 1.000000 1.000000 1.000000 1.000000
v 0.259525 2.597925 0.267478 1.000000 1.000000 1.000000 1.000000
v 0.259525 2.597925 0.267478 1.000000 1.000000 1.000000 1.000000
v 0.259525 2.597925 0.267478 1.000000 1.000000 1.000000 1.000000
v -0.260460 2.602891 -0.260437 1.000000 1.000000 1.000000 1.000000
v -0.260460 2.602891 -0.260437 1.000000 1.000000 1.000000 1.000000
v -0.260460 2.602891 -0.260437 1.000000 1.000000 1.000000 1.000000
v -0.260460 2.602891 -0.260437 1.000000 1.000000 1.000000 1.000000
v -0.276862 1.878435 0.276473 1.000000 1.000000 1.000000 1.000000
v -0.276862 1.878435 0.276473 1.000000 1.000000 1.000000 1.000000
v -0.276862 1.878435 0.276473 1.000000 1.000000 1.000000 1.000000
v -0.276862 1.878435 0.276473 1.000000 1.000000 1.000000 1.000000
v -0.276862 1.878435 0.276473 1.000000 1.000000 1.000000 1.000000
v -0.287818 1.926666 0.288229 1.000000 1.000000 1.000000 1.000000
v -0.287818 1.926666 0.288229 1.000000 1.000000 1.000000 1.000000
v -0.287818 1.926666 0.288229 1.000000 1.000000 1.000000 1.000000
v -0.287818 1.926666 0.288229 1.000000 1.000000 1.000000 1.000000
v 0.294126 1.912725 0.295625 1.000000 1.000000 1.000000 1.000000
v 0.294126 1.912725 0.295625 1.000000 1.000000 1.000000 1.000000
v 0.294126 1.912725 0.295625 1.000000 1.000000 1.000000 1.000000
v 0.294126 1.912725 0.295625 1.000000 1.000000 1.000000 1.000000
v 0.300620 1.871056 0.278865 1.000000 1.000000 1.000000 1.000000
v 0.300620 1.871056 0.278865 1.000000 1.000000 1.000000 1.000000
v 0.300620 1.871056 0.278865 1.000000 1.000000 1.000000 1.000000
v 0.300620 1.871056 0.278865 1.000000 1.000000 1.000000 1.000000
v -0.275907 1.876768 -0.280145 1.000000 1.000000 1.000000 1.000000
v -0.275907 1.876768 -0.280145 1.000000 1.000000 1.000000 1.000000
v -0.275907 1.876768 -0.280145 1.000000 1.000000 1.000000 1.000000
v -0.275907 1.876768 -0.280145 1.000000 1.000000 1.000000 1.000000
v -0.281624 1.934544 -0.286434 1.000000 1.000000 1.000000 1.000000
v -0.281624 1.934544 -0.286434 1.000000 1.000000 1.000000 1.000000
v -0.281624 1.934544 -0.286434 1.000000 1.000000 1.000000 1.000000
v -0.281624 1.934544 -0.286434 1.000000 1.000000 1.000000 1.000000
v 0.278153 1.926074 -0.293586 1.000000 1.000000 1.000000 1.000000
v 0.278153 1.926074 -0.293586 1.000000 1.000000 1.000000 1.000000
v 0.278153 1.926074 -0.293586 1.000000 1.000000 1.000000 1.000000
v 0.278153 1.926074 -0.293586 1.000000 1.000000 1.000000 1.000000
v 0.280738 1.878470 -0.283641 1.000000 1.000000 1.000000 1.000000
v 0.280738 1.878470 -0.283641 1.000000 1.000000 1.000000 1.000000
v 0.280738 1.878470 -0.283641 1.000000 1.000000 1.000000 1.000000
v 0.280738 1.878470 -0.283641 1.000000 1.000000 1.000000 1.000000
v -0.287861 2.573800 0.287792 1.000000 1.000000 1.000000 1.000000
v -0.287861 2.573800 0.287792 1.000000 1.000000 1.000000 1.000000
v -0.287861 2.573800 0.287792 1.000000 1.000000 1.000000 1.000000
v -0.287861 2.573800 0.287792 1.000000 1.000000 1.000000 1.000000
v -0.275300 2.574963 -0.286882 1.000000 1.000000 1.000000 1.000000
v -0.275300 2.574963 -0.286882 1.000000 1.000000 1.000000 1.000000
v -0.275300 2.574963 -0.286882 1.000000 1.000000 1.000000 1.000000
v -0.275300 2.574963 -0.286882 1.000000 1.000000 1.000000 1.000000
v 0.294865 2.573373 0.298220 1.000000 1.000000 1.000000 1.000000
v 0.294865 2.573373 0.298220 1.000000 1.000000 1.000000 1.000000
v 0.294865 2.573373 0.298220 1.000000 1.000000 1.000000 1.000000
v 0.294865 2.573373 0.298220 1.000000 1.000000 1.000000 1.000000
v 0.285706 2.582176 -0.292027 1.000000 1.000000 1.000000 1.000000
v 0.285706 2.582176 -0.292027 1.000000 1.000000 1.000000 1.000000
v 0.285706 2.582176 -0.292027 1.000000 1.000000 1.000000 1.000000
v 0.285706 2.582176 -0.292027 1.000000 1.000000 1.000000 1.000000
v 0.382651 2.888110 -0.366130 1.000000 1.000000 1.000000 1.000000
v 0.382651 2.888110 -0.366130 1.000000 1.000000 1.000000 1.000000
v 0.382651 2.888110 -0.366130 1.000000 1.000000 1.000000 1.000000
v 0.382651 2.888110 -0.366130 1.000000 1.000000 1.000000 1.000000
v 0.386818 2.897081 0.376391 1.000000 1.000000 1.000000 1.000000
v 0.386818 2.897081 0.376391 1.000000 1.000000 1.000000 1.000000
v 0.386818 2.897081 0.376391 1.000000 1.000000 1.000000 1.000000
v 0.386818 2.897081 0.376391 1.000000 1.000000 1.000000 1.000000
v -0.374656 2.897761 -0.392330 1.000000 1.000000 1.000000 1.000000
v -0.374656 2.897761 -0.392330 1.000000 1.000000 1.000000 1.000000
v -0.374656 2.897761 -0.392330 1.000000 1.000000 1.000000 1.000000
v -0.374656 2.897761 -0.392330 1.000000 1.000000 1.000000 1.000000
v -0.376040 2.910608 0.387239 1.000000 1.000000 1.000000 1.000000
v -0.376040 2.910608 0.387239 1.000000 1.000000 1.000000 1.000000
v -0.376040 2.910608 0.387239 1.000000 1.000000 1.000000 1.000000
v -0.376040 2.910608 0.387239 1.000000 1.000000 1.000000 1.000000
v -0.446529 3.003109 -0.446530 1.000000 1.000000 1.000000 1.000000
v -0.446529 3.003109 -0.446530 1.000000 1.000000 1.000000 1.000000
v -0.446529 3.003109 -0.446530 1.000000 1.000000 1.000000 1.000000
v -0.446529 3.003109 0.446530 1.000000 1.000000 1.000000 1.000000
v -0.446529 3.003109 0.446530 1.000000 1.000000 1.000000 1.000000
v -0.446529 3.003109 0.446530 1.000000 1.000000 1.000000 1.000000
v 0.446529 3.003109 -0.446530 1.000000 1.000000 1.000000 1.000000
v 0.446529 3.003109 -0.446530 1.000000 1.000000 1.000000 1.000000
v 0.446529 3.003109 -0.446530 1.000000 1.000000 1.000000 1.000000
v 0.446529 2.899011 -0.446530 1.000000 1.000000 1.000000 1.000000
v 0.446529 2.899011 -0.446530 1.000000 1.000000 1.000000 1.000000
v 0.446529 2.899011 -0.446530 1.000000 1.000000 1.000000 1.000000
v 0.446529 2.899011 -0.446530 1.000000 1.000000 1.000000 1.000000
v 0.446529 2.899011 0.446530 1.000000 1.000000 1.000000 1.000000
v 0.446529 2.899011 0.446530 1.000000 1.000000 1.000000 1.000000
v 0.446529 2.899011 0.446530 1.000000 1.000000 1.000000 1.000000
v 0.446529 2.899011 0.446530 1.000000 1.000000 1.000000 1.000000
v 0.446529 3.003109 0.446530 1.000000 1.000000 1.000000 1.000000
v 0.446529 3.003109 0.446530 1.000000 1.000000 1.000000 1.000000
v 0.446529 3.003109 0.446530 1.000000 1.000000 1.000000 1.000000
v -0.446529 2.899011 -0.446530 1.000000 1.000000 1.000000 1.000000
v -0.446529 2.899011 -0.446530 1.000000 1.000000 1.000000 1.000000
v -0.446529 2.899011 -0.446530 1.000000 1.000000 1.000000 1.000000
v -0.446529 2.899011 -0.446530 1.000000 1.000000 1.000000 1.000000
v -0.446529 2.899011 0.446530 1.000000 1.000000 1.000000 1.000000
v -0.446529 2.899011 0.446530 1.000000 1.000000 1.000000 1.000000
v -0.446529 2.899011 0.446530 1.000000 1.000000 1.000000 1.000000
v -0.446529 2.899011 0.446530 1.000000 1.000000 1.000000 1.000000
vt 0.473920 0.899245
vt 0.036580 0.814501
vt 0.036580 0.814501
vt 0.165407 0.692960
vt 0.404418 0.897507
vt 0.038739 0.883989
vt 0.404418 0.897507
vt 0.038739 0.883989
vt 0.404440 0.828799
vt 0.107446 0.883588
vt 0.107446 0.883588
vt 0.404440 0.828799
vt 0.104892 0.816382
vt 0.471645 0.830945
vt 0.104892 0.816382
vt 0.233716 0.693936
vt 0.365917 0.706996
vt 0.528676 0.582309
vt 0.365917 0.706996
vt 0.710387 0.106375
vt 0.365917 0.603868
vt 0.568867 0.790548
vt 0.365917 0.603868
vt 0.710387 0.003219
vt 0.561913 0.791788
vt 0.264941 0.706181
vt 0.264941 0.706181
vt 0.528676 0.683332
vt 0.562428 0.690311
vt 0.265737 0.604716
vt 0.265737 0.604716
vt 0.571230 0.690323
vt 0.853753 0.837993
vt 0.281705 0.619566
vt 0.338447 0.803447
vt 0.281705 0.619566
vt 0.351655 0.690829
vt 0.781839 0.768781
vt 0.351655 0.690829
vt 0.164153 0.788697
vt 0.267844 0.805319
vt 0.352318 0.617641
vt 0.352318 0.617641
vt 0.237340 0.789379
vt 0.782985 0.838952
vt 0.281484 0.690341
vt 0.281484 0.690341
vt 0.782985 0.838952
vt 0.695968 0.771754
vt 0.110179 0.888892
vt 0.239117 0.686114
vt 0.110179 0.888892
vt 0.660010 0.317123
vt 0.399440 0.825769
vt 0.342065 0.713435
vt 0.399440 0.825769
vt 0.264941 0.714165
vt 0.476584 0.826168
vt 0.238425 0.698219
vt 0.238425 0.698219
vt 0.161046 0.686521
vt 0.111865 0.810902
vt 0.111865 0.810902
vt 0.752289 0.516265
vt 0.772207 0.772394
vt 0.772207 0.772394
vt 0.033945 0.888393
vt 0.033945 0.888393
vt 0.695968 0.664203
vt 0.737688 0.317732
vt 0.400939 0.903437
vt 0.400939 0.903437
vt 0.756805 0.112728
vt 0.476641 0.903559
vt 0.832527 0.113493
vt 0.161046 0.696568
vt 0.161046 0.696568
vt 0.033945 0.811750
vt 0.772599 0.662876
vt 0.033945 0.811750
vt 0.674383 0.513904
vt 0.660202 0.403680
vt 0.856136 0.841252
vt 0.341770 0.799988
vt 0.341770 0.799988
vt 0.737688 0.406782
vt 0.778646 0.844555
vt 0.753023 0.201729
vt 0.778646 0.844555
vt 0.264941 0.799679
vt 0.264941 0.799679
vt 0.238425 0.783735
vt 0.238425 0.783735
vt 0.833206 0.201729
vt 0.778646 0.764360
vt 0.161049 0.784792
vt 0.161049 0.784792
vt 0.681605 0.671293
vt 0.562428 0.579441
vt 0.681605 0.671293
vt 0.744191 0.104115
vt 0.605075 0.792098
vt 0.679721 0.571706
vt 0.679721 0.571706
vt 0.746584 0.004564
vt 0.528581 0.791851
vt 0.578597 0.673242
vt 0.578597 0.673242
vt 0.562013 0.682458
vt 0.528581 0.689771
vt 0.576985 0.571168
vt 0.605075 0.689363
vt 0.576985 0.571168
vt 0.015848 0.538126
vt 0.653571 0.328923
vt 0.015848 0.417432
vt 0.386382 0.542124
vt 0.653564 0.208234
vt 0.619714 0.208234
vt 0.689529 0.682923
vt 0.639859 0.208234
vt 0.689529 0.682923
vt 0.633420 0.208234
vt 0.372677 0.662812
vt 0.689529 0.562229
vt 0.689529 0.562229
vt 0.633419 0.328928
vt 0.386383 0.662812
vt 0.619714 0.328928
vt 0.029554 0.538126
vt 0.568867 0.682924
vt 0.568867 0.682924
vt 0.639865 0.328923
vt 0.029554 0.417432
vt 0.568867 0.562229
vt 0.372677 0.542124
vt 0.568867 0.562229
vt 0.268578 0.883539
vt 0.641451 0.803544
vt 0.641451 0.803544
vt 0.268578 0.883539
vt 0.107213 0.804463
vt 0.269089 0.815165
vt 0.269089 0.815165
vt 0.573037 0.804691
vt 0.037993 0.804130
vt 0.338311 0.814256
vt 0.572785 0.873918
vt 0.236619 0.582484
vt 0.641478 0.874325
vt 0.167909 0.581725
vt 0.641478 0.874325
vt 0.339355 0.882951
vt 0.660010 0.208234
vt 0.611514 0.791986
vt 0.660010 0.208234
vt 0.688919 0.791684
vt 0.760388 0.208250
vt 0.753023 0.003581
vt 0.760388 0.208250
vt 0.687541 0.691282
vt 0.668275 0.106437
vt 0.660248 0.310684
vt 0.660248 0.310684
vt 0.611514 0.689487
vt 0.667777 0.006294
vt 0.760388 0.310682
vt 0.760388 0.310682
vt 0.753023 0.106016
vt 0.037435 0.709141
vt 0.746070 0.295396
vt 0.164758 0.799314
vt 0.746070 0.295396
vt 0.675983 0.226200
vt 0.232350 0.870956
vt 0.675983 0.226200
vt 0.232350 0.870956
vt 0.234868 0.799884
vt 0.747094 0.225305
vt 0.747094 0.225305
vt 0.234868 0.799884
vt 0.108097 0.708859
vt 0.675408 0.295204
vt 0.675408 0.295204
vt 0.163331 0.869961
vt 0.696982 0.670796
vt 0.696982 0.670796
vt 0.340772 0.811758
vt 0.239117 0.585155
vt 0.239117 0.585155
vt 0.033945 0.800259
vt 0.033945 0.800259
vt 0.568867 0.878008
vt 0.822884 0.404581
vt 0.647465 0.878139
vt 0.744230 0.406465
vt 0.647465 0.878139
vt 0.479218 0.819330
vt 0.161067 0.584974
vt 0.161067 0.584974
vt 0.340957 0.889806
vt 0.750405 0.414711
vt 0.772207 0.670642
vt 0.265547 0.811758
vt 0.265547 0.811758
vt 0.697488 0.562460
vt 0.111609 0.799192
vt 0.111609 0.799192
vt 0.758867 0.501649
vt 0.568867 0.800339
vt 0.834533 0.501926
vt 0.644464 0.798537
vt 0.644464 0.798537
vt 0.399574 0.817843
vt 0.264941 0.886961
vt 0.772718 0.562229
vt 0.264941 0.886961
vt 0.674383 0.413250
vt 0.034004 0.712802
vt 0.034004 0.712802
vt 0.822891 0.317123
vt 0.161046 0.795818
vt 0.111670 0.712639
vt 0.111670 0.712639
vt 0.758728 0.415096
vt 0.161349 0.873501
vt 0.744127 0.317180
vt 0.239793 0.795818
vt 0.239793 0.795818
vt 0.479218 0.730045
vt 0.834533 0.413250
vt 0.237100 0.875552
vt 0.237100 0.875552
vt 0.399440 0.729171
vt 0.511447 0.612903
vt 0.646890 0.791679
vt 0.511447 0.612903
vt 0.653570 0.789721
vt 0.512035 0.713253
vt 0.787013 0.003219
vt 0.512035 0.713253
vt 0.653570 0.689363
vt 0.703948 0.108590
vt 0.409148 0.609362
vt 0.647131 0.689363
vt 0.409148 0.609362
vt 0.703948 0.003219
vt 0.408997 0.714719
vt 0.789243 0.106289
vt 0.408997 0.714719
vt 0.154607 0.535669
vt 0.233996 0.536139
vt 0.033945 0.702420
vt 0.154607 0.414975
vt 0.035993 0.416047
vt 0.033945 0.581725
vt 0.233989 0.415450
vt 0.154607 0.702419
vt 0.386746 0.414992
vt 0.520108 0.602037
vt 0.248058 0.415450
vt 0.520108 0.602037
vt 0.372678 0.414992
vt 0.520108 0.722732
vt 0.050062 0.536735
vt 0.520108 0.722732
vt 0.372677 0.535685
vt 0.035994 0.536735
vt 0.154607 0.581725
vt 0.386745 0.535685
vt 0.140539 0.535669
vt 0.399440 0.602037
vt 0.248064 0.536139
vt 0.399440 0.602037
vt 0.140539 0.414975
vt 0.399440 0.722732
vt 0.050061 0.416047
vt 0.399440 0.722732
vn -0.014300 0.803301 -0.595401
vn -0.006600 -0.756296 -0.654196
vn 0.625911 -0.779814 -0.011200
vn 0.725856 0.687759 0.010999
vn -0.648172 0.761467 0.006400
vn -0.571316 -0.820723 0.003300
vn -0.014300 0.803301 -0.595401
vn -0.006600 -0.756296 -0.654196
vn -0.648172 0.761467 0.006400
vn -0.571316 -0.820723 0.003300
vn -0.001100 -0.815977 0.578084
vn 0.021500 0.713215 0.700615
vn -0.001100 -0.815977 0.578084
vn 0.021500 0.713215 0.700615
vn 0.625911 -0.779814 -0.011200
vn 0.725906 0.687706 0.011000
vn -0.006700 0.937364 -0.348287
vn 0.005900 -0.049398 -0.998762
vn 0.302516 0.953050 -0.013401
vn 0.998034 0.062102 0.008500
vn -0.003500 0.949683 0.313194
vn -0.001700 0.005800 0.999982
vn 0.302516 0.953050 -0.013401
vn 0.998034 0.062102 0.008500
vn -0.999988 0.002800 -0.003900
vn -0.356607 0.934118 -0.016000
vn -0.006700 0.937364 -0.348287
vn 0.005900 -0.049398 -0.998762
vn -0.999988 0.002800 -0.003900
vn -0.356607 0.934118 -0.016000
vn -0.003500 0.949683 0.313194
vn -0.001700 0.005800 0.999982
vn -0.586508 -0.809311 0.032000
vn -0.356607 0.934118 -0.016000
vn -0.019400 -0.349391 0.936776
vn -0.003500 0.949683 0.313194
vn -0.006700 0.937364 -0.348287
vn 0.006700 -0.739987 -0.672588
vn 0.302487 0.953059 -0.013399
vn 0.796110 -0.605108 0.007300
vn -0.019400 -0.349391 0.936776
vn -0.003500 0.949683 0.313194
vn 0.302516 0.953050 -0.013401
vn 0.796110 -0.605108 0.007300
vn -0.586508 -0.809311 0.032000
vn -0.356607 0.934118 -0.016000
vn -0.006700 0.937364 -0.348287
vn 0.006700 -0.739987 -0.672588
vn -0.999884 0.015100 -0.001900
vn -0.571316 -0.820723 0.003300
vn -0.010100 0.020101 0.999747
vn -0.001100 -0.815977 0.578084
vn -0.999855 0.012399 0.011699
vn -0.648172 0.761467 0.006400
vn 0.003900 -0.003200 0.999987
vn 0.021500 0.713215 0.700615
vn 0.003900 -0.003200 0.999987
vn 0.021500 0.713215 0.700615
vn 0.725856 0.687759 0.010999
vn 0.999937 0.011200 0.000600
vn -0.010100 0.020101 0.999747
vn -0.001100 -0.815977 0.578084
vn 0.625911 -0.779814 -0.011200
vn 0.999630 -0.008600 -0.025801
vn -0.999887 0.014900 -0.001800
vn -0.999884 0.015100 -0.001900
vn -0.571316 -0.820723 0.003300
vn -0.006600 -0.756296 -0.654196
vn -0.005500 -0.005500 -0.999970
vn -0.999855 0.012399 0.011699
vn -0.648172 0.761467 0.006400
vn -0.014300 0.803301 -0.595401
vn -0.001100 0.002100 -0.999997
vn -0.014300 0.803301 -0.595401
vn -0.001100 0.002100 -0.999997
vn 0.725809 0.687808 0.011000
vn 0.999937 0.011200 0.000600
vn -0.006600 -0.756296 -0.654196
vn -0.005600 -0.005600 -0.999969
vn 0.625911 -0.779814 -0.011200
vn 0.999630 -0.008600 -0.025801
vn -0.999855 0.012399 0.011699
vn -0.586508 -0.809311 0.032000
vn -0.019400 -0.349391 0.936776
vn 0.003900 -0.003200 0.999987
vn -0.999855 0.012399 0.011699
vn -0.586508 -0.809311 0.032000
vn -0.001000 0.002000 -0.999998
vn 0.006700 -0.739987 -0.672588
vn -0.019400 -0.349391 0.936776
vn 0.003900 -0.003200 0.999987
vn 0.796110 -0.605108 0.007300
vn 0.999937 0.011200 0.000600
vn -0.001100 0.002100 -0.999997
vn 0.006700 -0.739987 -0.672588
vn 0.796110 -0.605108 0.007300
vn 0.999938 0.011100 0.000700
vn -0.000900 0.999654 -0.026299
vn 0.005900 -0.049398 -0.998762
vn 0.041601 0.999134 0.000700
vn 0.998034 0.062102 0.008500
vn -0.001700 0.005800 0.999982
vn 0.004500 0.996145 0.087604
vn 0.041601 0.999134 0.000700
vn 0.998034 0.062102 0.008500
vn -0.999988 0.002800 -0.003900
vn -0.080702 0.996722 -0.005700
vn -0.000900 0.999654 -0.026299
vn 0.005900 -0.049398 -0.998762
vn -0.999988 0.002800 -0.003900
vn -0.080702 0.996722 -0.005700
vn -0.001700 0.005800 0.999982
vn 0.004500 0.996145 0.087604
vn -1.000000 0.000000 0.000000
vn 0.000000 0.000000 -1.000000
vn -1.000000 0.000000 0.000000
vn 0.000000 0.000000 1.000000
vn 0.000000 0.000000 -1.000000
vn 1.000000 0.000000 0.000000
vn -0.000900 0.999654 -0.026299
vn 0.000000 0.000000 -1.000000
vn 0.041601 0.999134 0.000700
vn 1.000000 0.000000 0.000000
vn 0.000000 0.000000 1.000000
vn 0.004500 0.996145 0.087604
vn 0.041601 0.999134 0.000700
vn 1.000000 0.000000 0.000000
vn 0.000000 0.000000 1.000000
vn 1.000000 0.000000 0.000000
vn -1.000000 0.000000 0.000000
vn -0.080702 0.996722 -0.005700
vn -0.000900 0.999654 -0.026299
vn 0.000000 0.000000 -1.000000
vn -1.000000 0.000000 0.000000
vn -0.080702 0.996722 -0.005700
vn 0.000000 0.000000 1.000000
vn 0.004500 0.996145 0.087604
vn -0.010400 0.776830 -0.629624
vn -0.007000 -0.744210 -0.667909
vn 0.517781 -0.855268 -0.020499
vn 0.549308 0.835612 0.003800
vn -0.741945 -0.670341 -0.012701
vn -0.649616 0.760219 -0.008100
vn -0.010400 0.776830 -0.629624
vn -0.007000 -0.744210 -0.667909
vn -0.741895 -0.670396 -0.012700
vn -0.649616 0.760219 -0.008100
vn -0.020600 -0.787004 0.616603
vn -0.003500 0.560705 0.828008
vn -0.020600 -0.787004 0.616603
vn -0.003500 0.560705 0.828008
vn 0.517825 -0.855241 -0.020501
vn 0.549308 0.835612 0.003800
vn -0.009700 -0.968789 -0.247697
vn 0.013500 -0.016999 -0.999764
vn 0.281104 -0.959613 0.011100
vn 0.999981 -0.003800 -0.004800
vn -0.000400 -0.915955 0.401280
vn 0.009100 -0.056597 0.998356
vn 0.281104 -0.959613 0.011100
vn 0.999981 -0.003900 -0.004800
vn -0.999994 -0.003200 0.001400
vn -0.303714 -0.952745 0.005900
vn -0.009700 -0.968789 -0.247697
vn 0.013500 -0.016999 -0.999764
vn -0.999994 -0.003200 0.001400
vn -0.303685 -0.952754 0.005900
vn -0.000400 -0.915955 0.401280
vn 0.009100 -0.056597 0.998356
vn -0.784586 0.619989 -0.006300
vn -0.303685 -0.952754 0.005900
vn -0.007300 0.736021 0.676919
vn -0.000400 -0.915955 0.401280
vn -0.009700 -0.968789 -0.247697
vn -0.004300 0.800892 -0.598794
vn 0.281104 -0.959613 0.011100
vn 0.503691 0.863884 -0.000700
vn -0.007300 0.736021 0.676919
vn -0.000400 -0.915955 0.401280
vn 0.281104 -0.959613 0.011100
vn 0.503691 0.863884 -0.000700
vn -0.784586 0.619989 -0.006300
vn -0.303685 -0.952754 0.005900
vn -0.009700 -0.968789 -0.247697
vn -0.004300 0.800892 -0.598794
vn -0.999887 0.014900 -0.001800
vn -0.999884 0.015100 -0.001900
vn -0.649616 0.760219 -0.008100
vn -0.010100 0.020101 0.999747
vn -0.003500 0.560705 0.828008
vn -0.999855 0.004900 -0.016299
vn -0.741895 -0.670396 -0.012700
vn -0.020600 -0.787004 0.616603
vn -0.015100 -0.001800 0.999884
vn -0.020600 -0.787004 0.616603
vn -0.015300 -0.001600 0.999882
vn 0.517825 -0.855241 -0.020501
vn 0.999752 -0.006200 -0.021399
vn -0.010100 0.020101 0.999747
vn -0.003500 0.560705 0.828008
vn 0.549308 0.835612 0.003800
vn 0.999630 -0.008600 -0.025801
vn -0.999887 0.014900 -0.001800
vn -0.649616 0.760219 -0.008100
vn -0.010400 0.776830 -0.629624
vn -0.005600 -0.005600 -0.999969
vn -0.999857 0.004800 -0.016199
vn -0.741990 -0.670291 -0.012700
vn -0.011000 0.001000 -0.999939
vn -0.007000 -0.744210 -0.667909
vn -0.011100 0.000800 -0.999938
vn -0.007000 -0.744210 -0.667909
vn 0.517825 -0.855241 -0.020501
vn 0.999752 -0.006200 -0.021399
vn -0.010400 0.776830 -0.629624
vn -0.005600 -0.005500 -0.999969
vn 0.549308 0.835612 0.003800
vn 0.999630 -0.008600 -0.025801
vn -0.999855 0.004900 -0.016299
vn -0.784586 0.619989 -0.006300
vn -0.015300 -0.001600 0.999882
vn -0.007300 0.736021 0.676919
vn -0.999855 0.004900 -0.016299
vn -0.784586 0.619989 -0.006300
vn -0.010800 0.001100 -0.999941
vn -0.004300 0.800892 -0.598794
vn -0.015500 -0.001500 0.999879
vn -0.007300 0.736021 0.676919
vn 0.503691 0.863884 -0.000700
vn 0.999752 -0.006200 -0.021399
vn -0.011000 0.001000 -0.999939
vn -0.004300 0.800892 -0.598794
vn 0.503691 0.863884 -0.000700
vn 0.999755 -0.006100 -0.021299
vn -0.004400 -0.995959 -0.089696
vn 0.013500 -0.016999 -0.999764
vn 0.103699 -0.994595 0.005200
vn 0.999981 -0.003800 -0.004800
vn -0.008600 -0.997131 -0.075202
vn 0.009100 -0.056597 0.998356
vn 0.103699 -0.994595 0.005200
vn 0.999981 -0.003800 -0.004800
vn -0.999994 -0.003200 0.001400
vn -0.004400 -0.995959 -0.089696
vn 0.013500 -0.016999 -0.999764
vn 0.072801 -0.997317 0.007700
vn -0.999994 -0.003200 0.001400
vn -0.008600 -0.997131 -0.075202
vn 0.009100 -0.056597 0.998356
vn 0.072801 -0.997317 0.007700
vn -1.000000 0.000000 0.000000
vn 0.000000 0.000000 -1.000000
vn 0.000000 1.000000 0.000000
vn -1.000000 0.000000 0.000000
vn 0.000000 0.000000 1.000000
vn 0.000000 1.000000 0.000000
vn 0.000000 0.000000 -1.000000
vn 0.000000 1.000000 0.000000
vn 1.000000 0.000000 0.000000
vn -0.004400 -0.995959 -0.089696
vn 0.000000 0.000000 -1.000000
vn 0.103699 -0.994595 0.005200
vn 1.000000 0.000000 0.000000
vn -0.008600 -0.997131 -0.075202
vn 0.000000 0.000000 1.000000
vn 0.103699 -0.994595 0.005200
vn 1.000000 0.000000 0.000000
vn 0.000000 0.000000 1.000000
vn 0.000000 1.000000 0.000000
vn 1.000000 0.000000 0.000000
vn -1.000000 0.000000 0.000000
vn -0.004400 -0.995959 -0.089696
vn 0.000000 0.000000 -1.000000
vn 0.072801 -0.997317 0.007700
vn -1.000000 0.000000 0.000000
vn -0.008600 -0.997131 -0.075202
vn 0.000000 0.000000 1.000000
vn 0.072801 -0.997317 0.007700
f 26/26/26 30/30/30 34/34/34
f 26/26/26 34/34/34 46/46/46
f 17/17/17 27/27/27 47/47/47
f 17/17/17 47/47/47 37/37/37
f 31/31/31 21/21/21 42/42/42
f 31/31/31 42/42/42 36/36/36
f 23/23/23 19/19/19 39/39/39
f 23/23/23 39/39/39 43/43/43
f 102/102/102 22/22/22 32/32/32
f 102/102/102 32/32/32 112/112/112
f 110/110/110 29/29/29 25/25/25
f 110/110/110 25/25/25 106/106/106
f 101/101/101 20/20/20 24/24/24
f 101/101/101 24/24/24 105/105/105
f 109/109/109 28/28/28 18/18/18
f 109/109/109 18/18/18 99/99/99
f 88/88/88 73/73/73 75/75/75
f 88/88/88 75/75/75 94/94/94
f 97/97/97 77/77/77 60/60/60
f 97/97/97 60/60/60 93/93/93
f 186/186/186 203/203/203 65/65/65
f 187/187/187 66/66/66 49/49/49
f 199/199/199 189/189/189 51/51/51
f 199/199/199 51/51/51 61/61/61
f 91/91/91 57/57/57 55/55/55
f 91/91/91 55/55/55 85/85/85
f 218/218/218 202/202/202 64/64/64
f 218/218/218 64/64/64 81/81/81
f 68/68/68 78/78/78 2/2/2
f 68/68/68 2/2/2 8/8/8
f 14/14/14 12/12/12 56/56/56
f 14/14/14 56/56/56 58/58/58
f 9/9/9 5/5/5 71/71/71
f 9/9/9 71/71/71 54/54/54
f 4/4/4 16/16/16 59/59/59
f 4/4/4 59/59/59 76/76/76
f 7/7/7 1/1/1 74/74/74
f 7/7/7 74/74/74 72/72/72
f 82/82/82 53/53/53 70/70/70
f 82/82/82 70/70/70 86/86/86
f 80/80/80 63/63/63 15/15/15
f 80/80/80 15/15/15 3/3/3
f 50/50/50 67/67/67 6/6/6
f 50/50/50 6/6/6 10/10/10
f 62/62/62 52/52/52 11/11/11
f 62/62/62 11/11/11 13/13/13
f 33/33/33 83/83/83 87/87/87
f 33/33/33 87/87/87 45/45/45
f 41/41/41 90/90/90 84/84/84
f 41/41/41 84/84/84 35/35/35
f 40/40/40 96/96/96 92/92/92
f 40/40/40 92/92/92 44/44/44
f 48/48/48 89/89/89 95/95/95
f 48/48/48 95/95/95 38/38/38
f 108/108/108 98/98/98 120/120/120
f 108/108/108 120/120/120 132/132/132
f 111/111/111 107/107/107 131/131/131
f 111/111/111 131/131/131 135/135/135
f 115/115/115 133/133/133 121/121/121
f 115/115/115 121/121/121 118/118/118
f 119/119/119 123/123/123 127/127/127
f 119/119/119 127/127/127 129/129/129
f 116/116/116 134/134/134 130/130/130
f 116/116/116 130/130/130 114/114/114
f 128/128/128 124/124/124 136/136/136
f 128/128/128 136/136/136 117/117/117
f 103/103/103 113/113/113 137/137/137
f 103/103/103 137/137/137 125/125/125
f 100/100/100 104/104/104 126/126/126
f 100/100/100 126/126/126 122/122/122
f 163/163/163 183/183/183 171/171/171
f 163/163/163 171/171/171 167/167/167
f 154/154/154 174/174/174 184/184/184
f 154/154/154 184/184/184 164/164/164
f 168/168/168 173/173/173 179/179/179
f 168/168/168 179/179/179 158/158/158
f 160/160/160 180/180/180 176/176/176
f 160/160/160 176/176/176 156/156/156
f 240/240/240 249/249/249 169/169/169
f 240/240/240 169/169/169 159/159/159
f 247/247/247 243/243/243 162/162/162
f 247/247/247 162/162/162 166/166/166
f 238/238/238 242/242/242 161/161/161
f 238/238/238 161/161/161 157/157/157
f 245/245/245 236/236/236 155/155/155
f 245/245/245 155/155/155 165/165/165
f 225/225/225 231/231/231 211/211/211
f 225/225/225 211/211/211 209/209/209
f 234/234/234 230/230/230 198/198/198
f 234/234/234 198/198/198 214/214/214
f 227/227/227 221/221/221 194/194/194
f 227/227/227 194/194/194 196/196/196
f 205/205/205 144/144/144 138/138/138
f 205/205/205 138/138/138 215/215/215
f 150/150/150 195/195/195 193/193/193
f 150/150/150 193/193/193 148/148/148
f 146/146/146 192/192/192 208/208/208
f 146/146/146 208/208/208 142/142/142
f 140/140/140 213/213/213 197/197/197
f 140/140/140 197/197/197 152/152/152
f 145/145/145 210/210/210 212/212/212
f 145/145/145 212/212/212 139/139/139
f 219/219/219 223/223/223 207/207/207
f 219/219/219 207/207/207 191/191/191
f 217/217/217 141/141/141 153/153/153
f 217/217/217 153/153/153 201/201/201
f 188/188/188 147/147/147 143/143/143
f 188/188/188 143/143/143 204/204/204
f 200/200/200 151/151/151 149/149/149
f 200/200/200 149/149/149 190/190/190
f 170/170/170 182/182/182 224/224/224
f 170/170/170 224/224/224 220/220/220
f 178/178/178 172/172/172 222/222/222
f 178/178/178 222/222/222 228/228/228
f 177/177/177 181/181/181 229/229/229
f 177/177/177 229/229/229 233/233/233
f 185/185/185 175/175/175 232/232/232
f 185/185/185 232/232/232 226/226/226
f 244/244/244 272/272/272 260/260/260
f 244/244/244 260/260/260 235/235/235
f 250/250/250 278/278/278 274/274/274
f 250/250/250 274/274/274 246/246/246
f 252/252/252 257/257/257 261/261/261
f 252/252/252 261/261/261 273/273/273
f 259/259/259 270/270/270 267/267/267
f 259/259/259 267/267/267 263/263/263
f 254/254/254 251/251/251 271/271/271
f 254/254/254 271/271/271 275/275/275
f 268/268/268 255/255/255 277/277/277
f 268/268/268 277/277/277 265/265/265
f 253/253/253 256/256/256 269/269/269
f 253/253/253 269/269/269 258/258/258
f 239/239/239 264/264/264 276/276/276
f 239/239/239 276/276/276 248/248/248
f 237/237/237 262/262/262 266/266/266
f 237/237/237 266/266/266 241/241/241
f 206/206/206 216/216/216 79/79/79
f 206/206/206 79/79/79 69/69/69
