# generated by the editor's model importer
v -194.540588 262.574829 131.065613 1.000000 1.000000 1.000000 1.000000
v 52.845085 157.019531 -308.956421 1.000000 1.000000 1.000000 1.000000
v -123.648628 1.728027 52.686401 1.000000 1.000000 1.000000 1.000000
v 15.288040 409.176270 -297.980957 1.000000 1.000000 1.000000 1.000000
v -63.158768 271.215820 308.956421 1.000000 1.000000 1.000000 1.000000
v -123.648628 1.728027 52.686401 1.000000 1.000000 1.000000 1.000000
v 15.903221 0.000000 112.905090 1.000000 1.000000 1.000000 1.000000
v -206.383026 272.989502 247.153046 1.000000 1.000000 1.000000 1.000000
v 184.219238 407.084229 -225.084656 1.000000 1.000000 1.000000 1.000000
v 52.845085 157.019531 -308.956421 1.000000 1.000000 1.000000 1.000000
v 15.288040 409.176270 -297.980957 1.000000 1.000000 1.000000 1.000000
v 161.181396 155.677979 -262.207703 1.000000 1.000000 1.000000 1.000000
v 16.077759 380.167236 272.334595 1.000000 1.000000 1.000000 1.000000
v -231.810394 383.237061 165.367188 1.000000 1.000000 1.000000 1.000000
v 16.077759 380.167236 272.334595 1.000000 1.000000 1.000000 1.000000
v -48.369972 592.138306 -190.642487 1.000000 1.000000 1.000000 1.000000
v -231.810394 383.237061 165.367188 1.000000 1.000000 1.000000 1.000000
v 153.612976 589.637085 -103.483856 1.000000 1.000000 1.000000 1.000000
v 153.612976 589.637085 -103.483856 1.000000 1.000000 1.000000 1.000000
v -48.369972 592.138306 -190.642487 1.000000 1.000000 1.000000 1.000000
v 52.845085 157.019531 -308.956421 1.000000 1.000000 1.000000 1.000000
v 161.181396 155.677979 -262.207703 1.000000 1.000000 1.000000 1.000000
v 12.950981 260.005371 220.601288 1.000000 1.000000 1.000000 1.000000
v 161.181396 155.677979 -262.207703 1.000000 1.000000 1.000000 1.000000
v 184.219238 407.084229 -225.084656 1.000000 1.000000 1.000000 1.000000
v 15.903221 0.000000 112.905090 1.000000 1.000000 1.000000 1.000000
v -231.810394 383.237061 165.367188 1.000000 1.000000 1.000000 1.000000
v -206.383026 272.989502 247.153046 1.000000 1.000000 1.000000 1.000000
v -48.369972 592.138306 -190.642487 1.000000 1.000000 1.000000 1.000000
v -276.349396 519.411499 -146.515488 1.000000 1.000000 1.000000 1.000000
v -276.349396 519.411499 -146.515488 1.000000 1.000000 1.000000 1.000000
v 16.077759 380.167236 272.334595 1.000000 1.000000 1.000000 1.000000
v -63.158768 271.215820 308.956421 1.000000 1.000000 1.000000 1.000000
v 153.612976 589.637085 -103.483856 1.000000 1.000000 1.000000 1.000000
v 276.349396 512.567017 91.982208 1.000000 1.000000 1.000000 1.000000
v 276.349396 512.567017 91.982208 1.000000 1.000000 1.000000 1.000000
vt 0.140725 0.781350
vt 0.000100 0.839944
vt 0.140725 0.839944
vt 0.000100 0.789163
vt 0.984475 0.609475
vt 0.937600 0.683694
vt 0.984475 0.683694
vt 0.937600 0.609475
vt 0.687600 0.351663
vt 0.734475 0.402444
vt 0.734475 0.351663
vt 0.687600 0.402444
vt 0.984475 0.593850
vt 0.937600 0.593850
vt 0.125100 0.933694
vt 0.046975 0.843850
vt 0.039163 0.933694
vt 0.117288 0.843850
vt 0.687600 0.312600
vt 0.734475 0.312600
vt 0.937600 0.683694
vt 0.976663 0.683694
vt 0.140725 0.781350
vt 0.000100 0.839944
vt 0.000100 0.789163
vt 0.140725 0.839944
vt 0.140725 0.750100
vt 0.171975 0.769631
vt 0.000100 0.750100
vt 0.039163 0.750100
vt 0.000100 0.871194
vt 0.140725 0.750100
vt 0.171975 0.769631
vt 0.000100 0.750100
vt 0.039163 0.750100
vt 0.171975 0.871194
vn -0.932941 -0.291116 -0.211830
vn -0.212254 -0.449491 -0.867701
vn -0.603192 -0.796458 -0.042593
vn -0.175191 0.138486 -0.974746
vn 0.047825 -0.121171 0.991479
vn -0.603192 -0.796458 -0.042593
vn 0.428045 -0.809229 0.402400
vn -0.756592 -0.111210 0.644361
vn 0.832163 0.125986 -0.540030
vn -0.212254 -0.449491 -0.867701
vn -0.175191 0.138486 -0.974746
vn 0.767367 -0.461685 -0.444967
vn 0.249695 0.396064 0.883621
vn -0.805780 0.409135 0.428168
vn 0.249695 0.396064 0.883621
vn -0.113024 0.918313 -0.379378
vn -0.805780 0.409135 0.428168
vn 0.372669 0.912298 -0.169794
vn 0.372669 0.912298 -0.169794
vn -0.113024 0.918313 -0.379378
vn -0.212254 -0.449491 -0.867701
vn 0.767367 -0.461685 -0.444967
vn 0.787861 -0.312426 0.530721
vn 0.767367 -0.461685 -0.444967
vn 0.832163 0.125986 -0.540030
vn 0.428045 -0.809229 0.402400
vn -0.805780 0.409135 0.428168
vn -0.756592 -0.111210 0.644361
vn -0.113024 0.918313 -0.379378
vn -0.877483 0.355108 -0.322371
vn -0.877483 0.355108 -0.322371
vn 0.249695 0.396064 0.883621
vn 0.047825 -0.121171 0.991479
vn 0.372669 0.912298 -0.169794
vn 0.843731 0.333793 0.420358
vn 0.843731 0.333793 0.420358
f 1/1/1 2/2/2 3/3/3
f 2/2/2 1/1/1 4/4/4
f 27/27/27 1/1/1 28/28/28
f 28/28/28 1/1/1 3/3/3
f 27/27/27 30/30/30 1/1/1
f 1/1/1 30/30/30 4/4/4
f 29/29/29 4/4/4 30/30/30
f 5/5/5 6/6/6 7/7/7
f 6/6/6 5/5/5 8/8/8
f 13/13/13 8/8/8 5/5/5
f 21/21/21 7/7/7 6/6/6
f 7/7/7 21/21/21 22/22/22
f 8/8/8 13/13/13 14/14/14
f 9/9/9 10/10/10 11/11/11
f 10/10/10 9/9/9 12/12/12
f 11/11/11 19/19/19 9/9/9
f 19/19/19 11/11/11 20/20/20
f 15/15/15 16/16/16 17/17/17
f 16/16/16 15/15/15 18/18/18
f 15/15/15 36/36/36 18/18/18
f 31/31/31 17/17/17 16/16/16
f 23/23/23 24/24/24 25/25/25
f 24/24/24 23/23/23 26/26/26
f 23/23/23 32/32/32 33/33/33
f 23/23/23 33/33/33 26/26/26
f 35/35/35 32/32/32 23/23/23
f 35/35/35 23/23/23 25/25/25
f 25/25/25 34/34/34 35/35/35
