# generated by the editor's model importer
v 244.273026 336.217041 -2.117218 1.000000 1.000000 1.000000 1.000000
v -39.259827 454.420898 -189.272247 1.000000 1.000000 1.000000 1.000000
v 177.352264 477.632812 -18.247681 1.000000 1.000000 1.000000 1.000000
v 89.647888 309.900879 -125.792267 1.000000 1.000000 1.000000 1.000000
v -129.649658 48.701904 -149.663269 1.000000 1.000000 1.000000 1.000000
v -73.751099 249.531006 -138.840027 1.000000 1.000000 1.000000 1.000000
v -103.421722 151.805176 -245.307648 1.000000 1.000000 1.000000 1.000000
v -83.626831 194.295166 -6.997375 1.000000 1.000000 1.000000 1.000000
v 44.779602 119.648438 -251.334625 1.000000 1.000000 1.000000 1.000000
v -73.751099 249.531006 -138.840027 1.000000 1.000000 1.000000 1.000000
v 76.130829 259.274170 -100.116913 1.000000 1.000000 1.000000 1.000000
v -103.421722 151.805176 -245.307648 1.000000 1.000000 1.000000 1.000000
v 162.764038 303.064697 45.392731 1.000000 1.000000 1.000000 1.000000
v 49.567230 154.746582 -22.880707 1.000000 1.000000 1.000000 1.000000
v 122.915558 166.361816 134.215164 1.000000 1.000000 1.000000 1.000000
v -45.899017 218.194092 167.018250 1.000000 1.000000 1.000000 1.000000
v 49.567230 154.746582 -22.880707 1.000000 1.000000 1.000000 1.000000
v 122.915558 166.361816 134.215164 1.000000 1.000000 1.000000 1.000000
v 19.366699 16.876831 -156.165375 1.000000 1.000000 1.000000 1.000000
v 19.366699 16.876831 -156.165375 1.000000 1.000000 1.000000 1.000000
v 139.853912 451.716797 208.744019 1.000000 1.000000 1.000000 1.000000
v 88.021210 262.864014 293.236298 1.000000 1.000000 1.000000 1.000000
v 206.209274 310.935059 224.346832 1.000000 1.000000 1.000000 1.000000
v 21.665863 403.645752 277.633484 1.000000 1.000000 1.000000 1.000000
v -4.654327 282.211426 -281.642792 1.000000 1.000000 1.000000 1.000000
v -143.467834 215.084717 10.086258 1.000000 1.000000 1.000000 1.000000
v -219.023010 195.020264 -156.691559 1.000000 1.000000 1.000000 1.000000
v 89.647888 309.900879 -125.792267 1.000000 1.000000 1.000000 1.000000
v 244.273026 336.217041 -2.117218 1.000000 1.000000 1.000000 1.000000
v -113.551483 190.677490 206.451538 1.000000 1.000000 1.000000 1.000000
v -113.551483 190.677490 206.451538 1.000000 1.000000 1.000000 1.000000
v 206.209274 310.935059 224.346832 1.000000 1.000000 1.000000 1.000000
v 88.021210 262.864014 293.236298 1.000000 1.000000 1.000000 1.000000
v 244.273026 336.217041 -2.117218 1.000000 1.000000 1.000000 1.000000
v -244.273010 330.077881 -219.428131 1.000000 1.000000 1.000000 1.000000
v -4.654327 282.211426 -281.642792 1.000000 1.000000 1.000000 1.000000
v -219.023010 195.020264 -156.691559 1.000000 1.000000 1.000000 1.000000
v -117.934082 381.464355 -293.068573 1.000000 1.000000 1.000000 1.000000
v -228.360718 377.507080 -79.049133 1.000000 1.000000 1.000000 1.000000
v -117.934082 381.464355 -293.068573 1.000000 1.000000 1.000000 1.000000
v -244.273010 330.077881 -219.428131 1.000000 1.000000 1.000000 1.000000
v -39.259827 454.420898 -189.272247 1.000000 1.000000 1.000000 1.000000
v -228.360718 377.507080 -79.049133 1.000000 1.000000 1.000000 1.000000
v -20.073914 573.145264 -86.139374 1.000000 1.000000 1.000000 1.000000
v -219.770996 491.921631 30.260056 1.000000 1.000000 1.000000 1.000000
v -50.023865 552.255615 104.689423 1.000000 1.000000 1.000000 1.000000
v 21.665863 403.645752 277.633484 1.000000 1.000000 1.000000 1.000000
v -219.770996 491.921631 30.260056 1.000000 1.000000 1.000000 1.000000
v -180.472229 332.093262 190.321075 1.000000 1.000000 1.000000 1.000000
v -50.023865 552.255615 104.689423 1.000000 1.000000 1.000000 1.000000
v -113.551483 190.677490 206.451538 1.000000 1.000000 1.000000 1.000000
v 88.021210 262.864014 293.236298 1.000000 1.000000 1.000000 1.000000
v -143.467834 215.084717 10.086258 1.000000 1.000000 1.000000 1.000000
v -228.360718 377.507080 -79.049133 1.000000 1.000000 1.000000 1.000000
v -4.654327 282.211426 -281.642792 1.000000 1.000000 1.000000 1.000000
v -219.023010 195.020264 -156.691559 1.000000 1.000000 1.000000 1.000000
v -143.467834 215.084717 10.086258 1.000000 1.000000 1.000000 1.000000
v -228.360718 377.507080 -79.049133 1.000000 1.000000 1.000000 1.000000
v 89.647888 309.900879 -125.792267 1.000000 1.000000 1.000000 1.000000
v 109.351959 275.680664 187.228149 1.000000 1.000000 1.000000 1.000000
v 109.351959 275.680664 187.228149 1.000000 1.000000 1.000000 1.000000
v -57.345398 0.000000 -293.236298 1.000000 1.000000 1.000000 1.000000
v -57.345398 0.000000 -293.236298 1.000000 1.000000 1.000000 1.000000
v 17.919983 280.726562 -83.983490 1.000000 1.000000 1.000000 1.000000
v -69.294678 245.253418 -33.147797 1.000000 1.000000 1.000000 1.000000
v -18.216858 713.217285 271.577515 1.000000 1.000000 1.000000 1.000000
v 57.529816 418.232666 256.729095 1.000000 1.000000 1.000000 1.000000
v 103.989960 437.129639 229.648407 1.000000 1.000000 1.000000 1.000000
v -50.023865 552.255615 104.689423 1.000000 1.000000 1.000000 1.000000
v -18.216858 713.217285 271.577515 1.000000 1.000000 1.000000 1.000000
v -50.023865 552.255615 104.689423 1.000000 1.000000 1.000000 1.000000
v 57.529816 418.232666 256.729095 1.000000 1.000000 1.000000 1.000000
v -244.273010 330.077881 -219.428131 1.000000 1.000000 1.000000 1.000000
vt 0.539163 0.933694
vt 0.437600 0.898538
vt 0.531350 0.906350
vt 0.468850 0.933694
vt 0.054788 0.273538
vt 0.000100 0.234475
vt 0.000100 0.273538
vt 0.046975 0.218850
vt 0.054788 0.273538
vt 0.000100 0.234475
vt 0.046975 0.218850
vt 0.000100 0.273538
vt 0.046975 0.175881
vt 0.109475 0.222756
vt 0.109475 0.183694
vt 0.046975 0.175881
vt 0.109475 0.222756
vt 0.109475 0.183694
vt 0.109475 0.273538
vt 0.109475 0.273538
vt 0.593850 0.902444
vt 0.609475 0.933694
vt 0.609475 0.933694
vt 0.593850 0.902444
vt 0.859475 0.429788
vt 0.750100 0.410256
vt 0.750100 0.429788
vt 0.859475 0.410256
vt 0.859475 0.390725
vt 0.750100 0.390725
vt 0.750100 0.433694
vt 0.859475 0.375100
vt 0.750100 0.375100
vt 0.859475 0.433694
vt 0.859475 0.375100
vt 0.750100 0.433694
vt 0.859475 0.433694
vt 0.750100 0.375100
vt 0.296975 0.875100
vt 0.187600 0.875100
vt 0.187600 0.875100
vt 0.296975 0.875100
vt 0.437600 0.898538
vt 0.468850 0.875100
vt 0.468850 0.875100
vt 0.531350 0.875100
vt 0.593850 0.902444
vt 0.468850 0.875100
vt 0.531350 0.906350
vt 0.531350 0.875100
vt 0.539163 0.933694
vt 0.609475 0.933694
vt 0.468850 0.933694
vt 0.437600 0.898538
vt 0.187600 0.933694
vt 0.187600 0.933694
vt 0.296975 0.929788
vt 0.296975 0.875100
vt 0.296975 0.929788
vt 0.109475 0.156350
vt 0.109475 0.156350
vt 0.054788 0.308694
vt 0.054788 0.308694
vt 0.000100 0.211038
vt 0.000100 0.211038
vt 0.375100 0.656350
vt 0.484475 0.746194
vt 0.484475 0.746194
vt 0.375100 0.746194
vt 0.375100 0.656350
vt 0.375100 0.746194
vt 0.484475 0.746194
vt 0.187600 0.875100
vn 0.912053 -0.296261 -0.283529
vn 0.114535 0.687529 -0.717067
vn 0.724883 0.626786 -0.285804
vn 0.665649 -0.497798 -0.555975
vn -0.812347 -0.515974 0.271777
vn -0.575357 0.686651 -0.444381
vn -0.613011 0.441761 -0.655031
vn -0.884309 -0.278534 0.374722
vn 0.716298 0.139318 -0.683746
vn -0.575357 0.686651 -0.444381
vn 0.715564 0.440296 -0.542317
vn -0.613011 0.441761 -0.655031
vn 0.952779 -0.230907 -0.197215
vn 0.521782 -0.832878 0.184549
vn 0.541482 -0.751735 0.376419
vn -0.307780 -0.822058 0.479054
vn 0.521782 -0.832878 0.184549
vn 0.541482 -0.751735 0.376419
vn 0.511658 -0.818359 0.261714
vn 0.511658 -0.818359 0.261714
vn 0.531296 0.651207 0.541898
vn 0.269397 -0.541377 0.796452
vn 0.821125 -0.316828 0.474735
vn -0.107637 0.392492 0.913435
vn 0.492369 -0.399798 -0.773133
vn -0.379609 -0.923577 0.053877
vn -0.546046 -0.821132 -0.166058
vn 0.665649 -0.497798 -0.555975
vn 0.912053 -0.296261 -0.283529
vn -0.361094 -0.813563 0.455771
vn -0.361094 -0.813563 0.455771
vn 0.821125 -0.316828 0.474735
vn 0.269397 -0.541377 0.796452
vn 0.912053 -0.296261 -0.283529
vn -0.835181 0.149159 -0.529362
vn 0.492369 -0.399798 -0.773133
vn -0.546046 -0.821132 -0.166058
vn -0.217944 0.399912 -0.890265
vn -0.964195 0.250026 -0.088406
vn -0.217944 0.399912 -0.890265
vn -0.835181 0.149159 -0.529362
vn 0.114535 0.687529 -0.717067
vn -0.964195 0.250026 -0.088406
vn 0.024158 0.912652 -0.408023
vn -0.817930 0.569236 0.083430
vn -0.162377 0.918071 0.361634
vn -0.107637 0.392492 0.913435
vn -0.817930 0.569236 0.083430
vn -0.799818 0.007208 0.600199
vn -0.162377 0.918071 0.361634
vn -0.361094 -0.813563 0.455771
vn 0.269397 -0.541377 0.796452
vn -0.379609 -0.923577 0.053877
vn -0.964195 0.250026 -0.088406
vn 0.492369 -0.399798 -0.773133
vn -0.546046 -0.821132 -0.166058
vn -0.379609 -0.923577 0.053877
vn -0.964195 0.250026 -0.088406
vn 0.665649 -0.497798 -0.555975
vn 0.587449 -0.292946 0.754378
vn 0.587449 -0.292946 0.754378
vn -0.135867 -0.661968 -0.737115
vn -0.135867 -0.661968 -0.737115
vn 0.148658 0.819487 -0.553481
vn -0.946660 0.310497 0.086179
vn -0.178765 0.924722 0.336054
vn -0.033704 -0.058848 0.997698
vn 0.815684 0.284533 0.503687
vn -0.162377 0.918071 0.361634
vn -0.178765 0.924722 0.336054
vn -0.162377 0.918071 0.361634
vn -0.033704 -0.058848 0.997698
vn -0.835181 0.149159 -0.529362
f 1/1/1 2/2/2 3/3/3
f 2/2/2 1/1/1 4/4/4
f 3/3/3 23/23/23 1/1/1
f 43/43/43 44/44/44 2/2/2
f 3/3/3 2/2/2 44/44/44
f 3/3/3 46/46/46 21/21/21
f 46/46/46 3/3/3 44/44/44
f 23/23/23 3/3/3 21/21/21
f 21/21/21 22/22/22 23/23/23
f 22/22/22 21/21/21 24/24/24
f 46/46/46 24/24/24 21/21/21
f 45/45/45 46/46/46 44/44/44
f 44/44/44 43/43/43 45/45/45
f 5/5/5 6/6/6 7/7/7
f 6/6/6 5/5/5 8/8/8
f 17/17/17 5/5/5 20/20/20
f 5/5/5 17/17/17 8/8/8
f 7/7/7 62/62/62 5/5/5
f 5/5/5 62/62/62 20/20/20
f 8/8/8 65/65/65 6/6/6
f 17/17/17 16/16/16 8/8/8
f 16/16/16 65/65/65 8/8/8
f 16/16/16 17/17/17 18/18/18
f 61/61/61 16/16/16 18/18/18
f 9/9/9 10/10/10 11/11/11
f 10/10/10 9/9/9 12/12/12
f 11/11/11 19/19/19 9/9/9
f 9/9/9 63/63/63 12/12/12
f 19/19/19 63/63/63 9/9/9
f 10/10/10 64/64/64 11/11/11
f 13/13/13 14/14/14 11/11/11
f 19/19/19 11/11/11 14/14/14
f 64/64/64 13/13/13 11/11/11
f 14/14/14 13/13/13 15/15/15
f 13/13/13 60/60/60 15/15/15
f 25/25/25 26/26/26 27/27/27
f 26/26/26 25/25/25 28/28/28
f 26/26/26 29/29/29 30/30/30
f 29/29/29 26/26/26 28/28/28
f 31/31/31 32/32/32 33/33/33
f 32/32/32 31/31/31 34/34/34
f 35/35/35 36/36/36 37/37/37
f 36/36/36 35/35/35 38/38/38
f 39/39/39 40/40/40 41/41/41
f 40/40/40 39/39/39 42/42/42
f 40/40/40 42/42/42 55/55/55
f 42/42/42 59/59/59 55/55/55
f 47/47/47 48/48/48 49/49/49
f 48/48/48 47/47/47 50/50/50
f 51/51/51 47/47/47 49/49/49
f 47/47/47 51/51/51 52/52/52
f 54/54/54 49/49/49 48/48/48
f 53/53/53 49/49/49 54/54/54
f 49/49/49 53/53/53 51/51/51
f 56/56/56 57/57/57 58/58/58
f 58/58/58 73/73/73 56/56/56
f 66/66/66 67/67/67 68/68/68
f 69/69/69 66/66/66 68/68/68
f 70/70/70 71/71/71 72/72/72
