# generated by the editor's model importer
v 1.341186 2.003175 0.107289 1.000000 1.000000 1.000000 1.000000
v 1.085367 2.139587 0.093747 1.000000 1.000000 1.000000 1.000000
v 0.927486 2.004066 0.093079 1.000000 1.000000 1.000000 1.000000
v 1.149376 1.886403 0.103188 1.000000 1.000000 1.000000 1.000000
v 0.780300 1.872207 0.092813 1.000000 1.000000 1.000000 1.000000
v 0.969041 1.775504 0.099728 1.000000 1.000000 1.000000 1.000000
v 0.752303 2.229457 0.070000 1.000000 1.000000 1.000000 1.000000
v 0.639809 2.080521 0.075031 1.000000 1.000000 1.000000 1.000000
v 0.534829 1.932790 0.080110 1.000000 1.000000 1.000000 1.000000
v 0.811652 1.676353 0.097549 1.000000 1.000000 1.000000 1.000000
v 0.654506 1.747676 0.093349 1.000000 1.000000 1.000000 1.000000
v 0.566296 1.623788 0.094414 1.000000 1.000000 1.000000 1.000000
v 0.698310 1.603608 0.096088 1.000000 1.000000 1.000000 1.000000
v 0.444872 1.787470 0.085285 1.000000 1.000000 1.000000 1.000000
v 0.378827 1.643177 0.090436 1.000000 1.000000 1.000000 1.000000
v -0.046868 1.661418 0.076932 1.000000 1.000000 1.000000 1.000000
v 0.170435 1.656171 0.084699 1.000000 1.000000 1.000000 1.000000
v 0.206315 1.810123 0.074983 1.000000 1.000000 1.000000 1.000000
v -0.044965 1.817865 0.063551 1.000000 1.000000 1.000000 1.000000
v 0.254143 1.965723 0.064498 1.000000 1.000000 1.000000 1.000000
v -0.042083 1.976431 0.048730 1.000000 1.000000 1.000000 1.000000
v -0.038547 2.136410 0.032950 1.000000 1.000000 1.000000 1.000000
v 0.309936 2.122419 0.053502 1.000000 1.000000 1.000000 1.000000
v 0.369712 2.279666 0.042248 1.000000 1.000000 1.000000 1.000000
v -0.034686 2.297096 0.016690 1.000000 1.000000 1.000000 1.000000
v 1.529319 1.082892 0.044155 1.000000 1.000000 1.000000 1.000000
v 1.324944 1.079846 0.052071 1.000000 1.000000 1.000000 1.000000
v 1.281710 0.865559 0.032616 1.000000 1.000000 1.000000 1.000000
v 1.474823 0.838977 0.022411 1.000000 1.000000 1.000000 1.000000
v 1.212277 0.667820 0.013685 1.000000 1.000000 1.000000 1.000000
v 1.390849 0.613551 0.002098 1.000000 1.000000 1.000000 1.000000
v 1.121353 1.077017 0.060016 1.000000 1.000000 1.000000 1.000000
v 1.088823 0.890301 0.042665 1.000000 1.000000 1.000000 1.000000
v 1.034529 0.718449 0.024970 1.000000 1.000000 1.000000 1.000000
v 1.267080 0.414681 -0.017643 1.000000 1.000000 1.000000 1.000000
v 1.107125 0.493972 -0.004768 1.000000 1.000000 1.000000 1.000000
v 0.956731 0.351359 -0.022793 1.000000 1.000000 1.000000 1.000000
v 1.093197 0.250433 -0.037670 1.000000 1.000000 1.000000 1.000000
v 0.950908 0.568251 0.007720 1.000000 1.000000 1.000000 1.000000
v 0.826761 0.447091 -0.008266 1.000000 1.000000 1.000000 1.000000
v 0.623396 0.594674 0.016071 1.000000 1.000000 1.000000 1.000000
v 0.709785 0.532434 0.005559 1.000000 1.000000 1.000000 1.000000
v 0.802169 0.632505 0.019434 1.000000 1.000000 1.000000 1.000000
v 0.652080 0.676064 0.028614 1.000000 1.000000 1.000000 1.000000
v 0.858428 0.761799 0.035650 1.000000 1.000000 1.000000 1.000000
v 0.681658 0.792815 0.045080 1.000000 1.000000 1.000000 1.000000
v 0.704638 0.926903 0.061679 1.000000 1.000000 1.000000 1.000000
v 0.896390 0.911363 0.052404 1.000000 1.000000 1.000000 1.000000
v 0.919327 1.074618 0.068021 1.000000 1.000000 1.000000 1.000000
v 0.719651 1.072866 0.076115 1.000000 1.000000 1.000000 1.000000
v -1.120607 0.314183 -0.082684 1.000000 1.000000 1.000000 1.000000
v -0.903041 0.186828 -0.093937 1.000000 1.000000 1.000000 1.000000
v -0.802450 0.293458 -0.069618 1.000000 1.000000 1.000000 1.000000
v -0.992521 0.402106 -0.060368 1.000000 1.000000 1.000000 1.000000
v -0.708099 0.397505 -0.046024 1.000000 1.000000 1.000000 1.000000
v -0.870645 0.485866 -0.039076 1.000000 1.000000 1.000000 1.000000
v -0.642243 0.091435 -0.102806 1.000000 1.000000 1.000000 1.000000
v -0.573178 0.213746 -0.076222 1.000000 1.000000 1.000000 1.000000
v -0.508808 0.335141 -0.049968 1.000000 1.000000 1.000000 1.000000
v -0.761190 0.561296 -0.019833 1.000000 1.000000 1.000000 1.000000
v -0.626226 0.496382 -0.023879 1.000000 1.000000 1.000000 1.000000
v -0.571417 0.595700 -0.003108 1.000000 1.000000 1.000000 1.000000
v -0.680613 0.616652 -0.005863 1.000000 1.000000 1.000000 1.000000
v -0.453830 0.454702 -0.024370 1.000000 1.000000 1.000000 1.000000
v -0.415026 0.573560 0.000442 1.000000 1.000000 1.000000 1.000000
v -0.045389 0.548709 0.007242 1.000000 1.000000 1.000000 1.000000
v -0.236708 0.557134 0.004017 1.000000 1.000000 1.000000 1.000000
v -0.256547 0.427340 -0.023246 1.000000 1.000000 1.000000 1.000000
v -0.044632 0.414761 -0.020611 1.000000 1.000000 1.000000 1.000000
v -0.283793 0.295599 -0.050992 1.000000 1.000000 1.000000 1.000000
v -0.043502 0.278045 -0.048724 1.000000 1.000000 1.000000 1.000000
v -0.042123 0.139484 -0.077009 1.000000 1.000000 1.000000 1.000000
v -0.315977 0.162560 -0.079060 1.000000 1.000000 1.000000 1.000000
v -0.350631 0.028871 -0.107288 1.000000 1.000000 1.000000 1.000000
v -0.040620 0.000000 -0.105381 1.000000 1.000000 1.000000 1.000000
v -1.529858 1.102983 -0.040531 1.000000 1.000000 1.000000 1.000000
v -1.337571 1.095582 -0.019550 1.000000 1.000000 1.000000 1.000000
v -1.364794 1.316359 -0.014114 1.000000 1.000000 1.000000 1.000000
v -1.564654 1.354234 -0.034046 1.000000 1.000000 1.000000 1.000000
v -1.359690 1.535954 -0.010586 1.000000 1.000000 1.000000 1.000000
v -1.561466 1.604852 -0.029182 1.000000 1.000000 1.000000 1.000000
v -1.146285 1.088627 0.001151 1.000000 1.000000 1.000000 1.000000
v -1.166337 1.281074 0.005639 1.000000 1.000000 1.000000 1.000000
v -1.160886 1.471691 0.007810 1.000000 1.000000 1.000000 1.000000
v -1.499770 1.835747 -0.025272 1.000000 1.000000 1.000000 1.000000
v -1.304596 1.737693 -0.007820 1.000000 1.000000 1.000000 1.000000
v -1.181850 1.904892 -0.004673 1.000000 1.000000 1.000000 1.000000
v -1.359043 2.027826 -0.021648 1.000000 1.000000 1.000000 1.000000
v -1.116371 1.645935 0.009195 1.000000 1.000000 1.000000 1.000000
v -1.014819 1.788461 0.011626 1.000000 1.000000 1.000000 1.000000
v -0.761747 1.609586 0.037490 1.000000 1.000000 1.000000 1.000000
v -0.868111 1.685038 0.026572 1.000000 1.000000 1.000000 1.000000
v -0.942041 1.566771 0.025336 1.000000 1.000000 1.000000 1.000000
v -0.774128 1.512763 0.040496 1.000000 1.000000 1.000000 1.000000
v -0.968025 1.416694 0.025801 1.000000 1.000000 1.000000 1.000000
v -0.780472 1.377164 0.043270 1.000000 1.000000 1.000000 1.000000
v -0.779245 1.228634 0.043893 1.000000 1.000000 1.000000 1.000000
v -0.970686 1.250968 0.025034 1.000000 1.000000 1.000000 1.000000
v -0.956999 1.082564 0.021291 1.000000 1.000000 1.000000 1.000000
v -0.770713 1.077840 0.040591 1.000000 1.000000 1.000000 1.000000
v 0.491816 0.688255 0.033501 1.000000 1.000000 1.000000 1.000000
v 0.505134 0.577342 0.014178 1.000000 1.000000 1.000000 1.000000
v 0.321040 0.684497 0.035537 1.000000 1.000000 1.000000 1.000000
v 0.337499 0.560774 0.011916 1.000000 1.000000 1.000000 1.000000
v 0.501901 0.806443 0.052614 1.000000 1.000000 1.000000 1.000000
v 0.319927 0.809480 0.057897 1.000000 1.000000 1.000000 1.000000
v 0.150002 0.550576 0.009739 1.000000 1.000000 1.000000 1.000000
v 0.139415 0.680213 0.036168 1.000000 1.000000 1.000000 1.000000
v -0.045650 0.678968 0.034750 1.000000 1.000000 1.000000 1.000000
v 0.136507 0.808722 0.060576 1.000000 1.000000 1.000000 1.000000
v -0.045653 0.808001 0.059774 1.000000 1.000000 1.000000 1.000000
v -0.045844 1.072242 0.093830 1.000000 1.000000 1.000000 1.000000
v -0.045638 0.938271 0.080180 1.000000 1.000000 1.000000 1.000000
v 0.137888 0.938486 0.080824 1.000000 1.000000 1.000000 1.000000
v 0.140168 1.071890 0.094771 1.000000 1.000000 1.000000 1.000000
v 0.324620 0.938184 0.077128 1.000000 1.000000 1.000000 1.000000
v 0.329881 1.071727 0.091076 1.000000 1.000000 1.000000 1.000000
v 0.523105 1.071978 0.084329 1.000000 1.000000 1.000000 1.000000
v 0.513792 0.935083 0.070333 1.000000 1.000000 1.000000 1.000000
v -0.605152 1.496475 0.054566 1.000000 1.000000 1.000000 1.000000
v -0.638893 1.628410 0.045371 1.000000 1.000000 1.000000 1.000000
v -0.429692 1.499886 0.067506 1.000000 1.000000 1.000000 1.000000
v -0.461853 1.646084 0.055882 1.000000 1.000000 1.000000 1.000000
v -0.597592 1.359301 0.060098 1.000000 1.000000 1.000000 1.000000
v -0.416160 1.354965 0.075265 1.000000 1.000000 1.000000 1.000000
v -0.261071 1.657572 0.066865 1.000000 1.000000 1.000000 1.000000
v -0.242328 1.504974 0.079274 1.000000 1.000000 1.000000 1.000000
v -0.047466 1.507798 0.088394 1.000000 1.000000 1.000000 1.000000
v -0.232951 1.356018 0.087756 1.000000 1.000000 1.000000 1.000000
v -0.047200 1.357840 0.096193 1.000000 1.000000 1.000000 1.000000
v -0.046513 1.212376 0.098586 1.000000 1.000000 1.000000 1.000000
v -0.229359 1.211583 0.090742 1.000000 1.000000 1.000000 1.000000
v -0.227966 1.072556 0.086665 1.000000 1.000000 1.000000 1.000000
v -0.410890 1.211994 0.078106 1.000000 1.000000 1.000000 1.000000
v -0.408169 1.073292 0.074553 1.000000 1.000000 1.000000 1.000000
v -0.588427 1.074902 0.058770 1.000000 1.000000 1.000000 1.000000
v -0.593416 1.216660 0.062037 1.000000 1.000000 1.000000 1.000000
v 0.725328 1.225244 0.086093 1.000000 1.000000 1.000000 1.000000
v 0.525455 1.214931 0.092268 1.000000 1.000000 1.000000 1.000000
v 0.330472 1.211228 0.097585 1.000000 1.000000 1.000000 1.000000
v 0.722758 1.373760 0.092337 1.000000 1.000000 1.000000 1.000000
v 0.526492 1.357655 0.095590 1.000000 1.000000 1.000000 1.000000
v 0.333377 1.354295 0.098444 1.000000 1.000000 1.000000 1.000000
v 0.139957 1.211317 0.100279 1.000000 1.000000 1.000000 1.000000
v 0.141861 1.355811 0.099200 1.000000 1.000000 1.000000 1.000000
v 0.150485 1.504415 0.093389 1.000000 1.000000 1.000000 1.000000
v 0.345578 1.498531 0.095441 1.000000 1.000000 1.000000 1.000000
v 0.531866 1.493860 0.095733 1.000000 1.000000 1.000000 1.000000
v 0.713028 1.508142 0.095571 1.000000 1.000000 1.000000 1.000000
v -0.755140 0.935451 0.031590 1.000000 1.000000 1.000000 1.000000
v -0.578427 0.940371 0.048685 1.000000 1.000000 1.000000 1.000000
v -0.402281 0.941174 0.063133 1.000000 1.000000 1.000000 1.000000
v -0.733418 0.806099 0.019093 1.000000 1.000000 1.000000 1.000000
v -0.567131 0.815085 0.033858 1.000000 1.000000 1.000000 1.000000
v -0.397770 0.814678 0.045758 1.000000 1.000000 1.000000 1.000000
v -0.225189 0.939820 0.073957 1.000000 1.000000 1.000000 1.000000
v -0.223844 0.811152 0.054616 1.000000 1.000000 1.000000 1.000000
v -0.226746 0.684330 0.030637 1.000000 1.000000 1.000000 1.000000
v -0.399179 0.692846 0.024339 1.000000 1.000000 1.000000 1.000000
v -0.558257 0.701064 0.016366 1.000000 1.000000 1.000000 1.000000
v -0.706437 0.694422 0.005297 1.000000 1.000000 1.000000 1.000000
v -1.132115 0.540106 -0.049591 1.000000 1.000000 1.000000 1.000000
v -1.282525 0.472635 -0.071049 1.000000 1.000000 1.000000 1.000000
v -1.230185 0.703994 -0.038433 1.000000 1.000000 1.000000 1.000000
v -1.398341 0.659025 -0.059700 1.000000 1.000000 1.000000 1.000000
v -0.985425 0.603403 -0.029037 1.000000 1.000000 1.000000 1.000000
v -1.063091 0.745841 -0.017782 1.000000 1.000000 1.000000 1.000000
v -1.477603 0.870194 -0.049305 1.000000 1.000000 1.000000 1.000000
v -1.295686 0.890306 -0.028038 1.000000 1.000000 1.000000 1.000000
v -1.114290 0.908899 -0.007188 1.000000 1.000000 1.000000 1.000000
v -0.933935 0.924454 0.012827 1.000000 1.000000 1.000000 1.000000
v -0.898120 0.781447 0.001636 1.000000 1.000000 1.000000 1.000000
v -0.846180 0.658356 -0.010289 1.000000 1.000000 1.000000 1.000000
v 0.751573 0.247324 -0.040436 1.000000 1.000000 1.000000 1.000000
v 0.858883 0.128874 -0.058842 1.000000 1.000000 1.000000 1.000000
v 0.506688 0.179146 -0.056291 1.000000 1.000000 1.000000 1.000000
v 0.580740 0.047970 -0.078773 1.000000 1.000000 1.000000 1.000000
v 0.650888 0.362350 -0.022166 1.000000 1.000000 1.000000 1.000000
v 0.437702 0.308909 -0.033751 1.000000 1.000000 1.000000 1.000000
v 0.275371 0.005689 -0.095081 1.000000 1.000000 1.000000 1.000000
v 0.237111 0.144106 -0.068951 1.000000 1.000000 1.000000 1.000000
v 0.201618 0.281645 -0.042790 1.000000 1.000000 1.000000 1.000000
v 0.171659 0.417427 -0.016570 1.000000 1.000000 1.000000 1.000000
v 0.378846 0.435848 -0.011098 1.000000 1.000000 1.000000 1.000000
v 0.563450 0.470532 -0.004170 1.000000 1.000000 1.000000 1.000000
v -0.973788 2.020874 0.000000 1.000000 1.000000 1.000000 1.000000
v -1.118760 2.161999 -0.017642 1.000000 1.000000 1.000000 1.000000
v -0.700494 2.093127 0.007177 1.000000 1.000000 1.000000 1.000000
v -0.802333 2.246265 -0.011253 1.000000 1.000000 1.000000 1.000000
v -0.838258 1.883925 0.016932 1.000000 1.000000 1.000000 1.000000
v -0.605202 1.941498 0.024959 1.000000 1.000000 1.000000 1.000000
v -0.433171 2.288630 -0.000476 1.000000 1.000000 1.000000 1.000000
v -0.382052 2.129143 0.017834 1.000000 1.000000 1.000000 1.000000
v -0.334171 1.970345 0.035554 1.000000 1.000000 1.000000 1.000000
v -0.292764 1.812924 0.052095 1.000000 1.000000 1.000000 1.000000
v -0.523006 1.792885 0.041448 1.000000 1.000000 1.000000 1.000000
v -0.721610 1.755333 0.032441 1.000000 1.000000 1.000000 1.000000
v 1.281893 1.720884 0.100899 1.000000 1.000000 1.000000 1.000000
v 1.492039 1.813335 0.104428 1.000000 1.000000 1.000000 1.000000
v 1.343210 1.521775 0.089455 1.000000 1.000000 1.000000 1.000000
v 1.559378 1.586035 0.089836 1.000000 1.000000 1.000000 1.000000
v 1.079534 1.634216 0.097974 1.000000 1.000000 1.000000 1.000000
v 1.130255 1.461823 0.089496 1.000000 1.000000 1.000000 1.000000
v 1.564654 1.337233 0.068188 1.000000 1.000000 1.000000 1.000000
v 1.351503 1.303341 0.072098 1.000000 1.000000 1.000000 1.000000
v 1.139679 1.271807 0.076234 1.000000 1.000000 1.000000 1.000000
v 0.930512 1.244987 0.080824 1.000000 1.000000 1.000000 1.000000
v 0.923725 1.410483 0.090381 1.000000 1.000000 1.000000 1.000000
v 0.892748 1.559114 0.096258 1.000000 1.000000 1.000000 1.000000
vt 0.612829 0.921002
vt 0.560384 0.948649
vt 0.528275 0.920803
vt 0.573751 0.896970
vt 0.498357 0.893717
vt 0.537018 0.874149
vt 0.492115 0.966791
vt 0.469346 0.936197
vt 0.448116 0.905867
vt 0.504973 0.853751
vt 0.472812 0.868154
vt 0.454947 0.842775
vt 0.481907 0.838791
vt 0.429958 0.876064
vt 0.416681 0.846526
vt 0.329873 0.849701
vt 0.374174 0.848924
vt 0.381226 0.880429
vt 0.329928 0.881697
vt 0.390705 0.912330
vt 0.330161 0.914184
vt 0.330514 0.947004
vt 0.401806 0.944499
vt 0.413722 0.976808
vt 0.330928 0.980000
vt 0.652106 0.732679
vt 0.610347 0.732016
vt 0.601726 0.688047
vt 0.641208 0.682627
vt 0.587744 0.647428
vt 0.624274 0.636337
vt 0.568755 0.731393
vt 0.562299 0.693088
vt 0.551393 0.657774
vt 0.599200 0.595413
vt 0.566455 0.611634
vt 0.535905 0.582132
vt 0.563872 0.561448
vt 0.534484 0.626831
vt 0.509276 0.601759
vt 0.467630 0.632061
vt 0.485317 0.619277
vt 0.504058 0.639986
vt 0.473392 0.648884
vt 0.515396 0.666630
vt 0.479294 0.672958
vt 0.483829 0.700530
vt 0.522982 0.697374
vt 0.527496 0.730856
vt 0.486738 0.730449
vt 0.111913 0.571730
vt 0.156394 0.545650
vt 0.176984 0.567945
vt 0.138147 0.590167
vt 0.196286 0.589683
vt 0.163091 0.607723
vt 0.209681 0.526126
vt 0.223805 0.551670
vt 0.236962 0.577001
vt 0.185478 0.623526
vt 0.213026 0.610318
vt 0.224232 0.630982
vt 0.201945 0.635113
vt 0.248195 0.601922
vt 0.256123 0.626653
vt 0.331418 0.621995
vt 0.292457 0.623506
vt 0.288421 0.596493
vt 0.331616 0.594132
vt 0.282873 0.569047
vt 0.331890 0.565681
vt 0.332216 0.536833
vt 0.276314 0.541308
vt 0.269248 0.513415
vt 0.332568 0.507778
vt 0.027506 0.732869
vt 0.067045 0.731822
vt 0.061125 0.776888
vt 0.020000 0.784186
vt 0.061769 0.821766
vt 0.020219 0.835432
vt 0.106343 0.730864
vt 0.101928 0.770121
vt 0.102676 0.809049
vt 0.032393 0.882751
vt 0.072629 0.863095
vt 0.097362 0.897519
vt 0.060757 0.922314
vt 0.111411 0.844719
vt 0.131854 0.874038
vt 0.184082 0.837973
vt 0.162140 0.853182
vt 0.147299 0.828893
vt 0.181789 0.818190
vt 0.142319 0.798217
vt 0.180805 0.790529
vt 0.181366 0.760268
vt 0.142108 0.764408
vt 0.145188 0.730081
vt 0.183363 0.729559
vt 0.440704 0.651322
vt 0.443533 0.628391
vt 0.405916 0.650468
vt 0.409383 0.624828
vt 0.442627 0.675724
vt 0.405566 0.676304
vt 0.371200 0.622563
vt 0.368957 0.649484
vt 0.331322 0.649082
vt 0.368267 0.676076
vt 0.331265 0.675787
vt 0.331043 0.729856
vt 0.331195 0.702544
vt 0.368438 0.702753
vt 0.368778 0.729984
vt 0.406385 0.702778
vt 0.407319 0.730081
vt 0.446657 0.730215
vt 0.444904 0.702184
vt 0.216375 0.815175
vt 0.209150 0.842037
vt 0.252193 0.816167
vt 0.245264 0.845948
vt 0.218245 0.787238
vt 0.255293 0.786676
vt 0.286207 0.848609
vt 0.290384 0.817493
vt 0.330058 0.818348
vt 0.292611 0.787185
vt 0.330377 0.787826
vt 0.330738 0.758296
vt 0.293605 0.757859
vt 0.294079 0.729642
vt 0.256658 0.757625
vt 0.257425 0.729447
vt 0.220651 0.729383
vt 0.219400 0.758217
vt 0.487760 0.761591
vt 0.447010 0.759376
vt 0.407312 0.758481
vt 0.487108 0.791907
vt 0.447097 0.788464
vt 0.407763 0.787594
vt 0.368587 0.758312
vt 0.368804 0.787677
vt 0.370351 0.817938
vt 0.410087 0.816986
vt 0.448062 0.816236
vt 0.485003 0.819324
vt 0.186679 0.700514
vt 0.222802 0.701951
vt 0.258723 0.702518
vt 0.191169 0.674052
vt 0.225138 0.676286
vt 0.259670 0.676572
vt 0.294744 0.702592
vt 0.295061 0.676178
vt 0.294485 0.649947
vt 0.259374 0.651414
vt 0.226939 0.652802
vt 0.196685 0.651127
vt 0.109578 0.618380
vt 0.078749 0.604125
vt 0.089434 0.651864
vt 0.054933 0.642201
vt 0.139623 0.631759
vt 0.123690 0.660878
vt 0.038502 0.685327
vt 0.075870 0.689913
vt 0.113098 0.694183
vt 0.150073 0.697821
vt 0.157478 0.668596
vt 0.168119 0.643395
vt 0.494133 0.560386
vt 0.516156 0.536020
vt 0.444208 0.545904
vt 0.459434 0.518799
vt 0.473473 0.584059
vt 0.430024 0.572722
vt 0.397103 0.509480
vt 0.389208 0.538208
vt 0.381884 0.566749
vt 0.375694 0.594926
vt 0.417916 0.598972
vt 0.455530 0.606348
vt 0.139626 0.921676
vt 0.109569 0.950296
vt 0.195318 0.937024
vt 0.174065 0.968243
vt 0.167722 0.893903
vt 0.215211 0.906126
vt 0.249450 0.977649
vt 0.260319 0.944994
vt 0.270512 0.912505
vt 0.279363 0.880327
vt 0.232399 0.875850
vt 0.191916 0.867818
vt 0.600962 0.863276
vt 0.643807 0.882350
vt 0.613657 0.822596
vt 0.657757 0.835886
vt 0.559709 0.845392
vt 0.570216 0.810191
vt 0.659070 0.784882
vt 0.615552 0.777857
vt 0.572311 0.771311
vt 0.529621 0.765728
vt 0.528091 0.799554
vt 0.521638 0.829890
vn -0.018018 -0.002141 0.999835
vn -0.039594 0.040102 0.998411
vn -0.039574 0.043368 0.998275
vn -0.020037 0.003669 0.999793
vn -0.032745 0.038080 0.998738
vn -0.016083 0.003170 0.999866
vn -0.052878 0.070898 0.996081
vn -0.050661 0.071157 0.996178
vn -0.042979 0.064348 0.997002
vn -0.011833 0.003225 0.999925
vn -0.025195 0.031654 0.999181
vn -0.014463 0.021697 0.999660
vn -0.008504 0.003513 0.999958
vn -0.033505 0.055021 0.997923
vn -0.020897 0.043886 0.998818
vn -0.040996 0.076752 0.996207
vn -0.029087 0.064389 0.997501
vn -0.039616 0.074720 0.996417
vn -0.045119 0.086244 0.995252
vn -0.047970 0.083151 0.995382
vn -0.048132 0.093182 0.994485
vn -0.050230 0.097503 0.993967
vn -0.054421 0.089019 0.994542
vn -0.057363 0.090319 0.994260
vn -0.051113 0.098980 0.993776
vn 0.037947 -0.097072 0.994554
vn 0.038070 -0.095647 0.994687
vn 0.037385 -0.102759 0.994004
vn 0.037682 -0.101080 0.994164
vn 0.030082 -0.113753 0.993053
vn 0.030959 -0.110535 0.993390
vn 0.038093 -0.092587 0.994976
vn 0.037302 -0.106083 0.993657
vn 0.029729 -0.119942 0.992336
vn 0.019306 -0.124642 0.992014
vn 0.017964 -0.128394 0.991560
vn 0.002711 -0.147160 0.989109
vn 0.004095 -0.143404 0.989656
vn 0.018224 -0.134540 0.990741
vn 0.004974 -0.150893 0.988538
vn 0.010682 -0.160765 0.986935
vn 0.007955 -0.155900 0.987741
vn 0.019149 -0.141941 0.989690
vn 0.019426 -0.152297 0.988144
vn 0.029781 -0.127487 0.991393
vn 0.029887 -0.137497 0.990051
vn 0.038003 -0.115483 0.992582
vn 0.037492 -0.110238 0.993198
vn 0.038396 -0.088852 0.995305
vn 0.039136 -0.084647 0.995642
vn -0.064246 -0.158701 0.985234
vn -0.045955 -0.181104 0.982390
vn -0.044888 -0.182549 0.982172
vn -0.061798 -0.162268 0.984810
vn -0.046266 -0.182076 0.982195
vn -0.061498 -0.163826 0.984571
vn -0.033270 -0.193918 0.980453
vn -0.033270 -0.194203 0.980397
vn -0.035080 -0.193583 0.980457
vn -0.061016 -0.165323 0.984350
vn -0.048313 -0.180871 0.982319
vn -0.053409 -0.178216 0.982541
vn -0.060900 -0.167150 0.984049
vn -0.038037 -0.192385 0.980582
vn -0.043509 -0.190746 0.980675
vn -0.018355 -0.202690 0.979071
vn -0.031959 -0.200261 0.979221
vn -0.028832 -0.199695 0.979434
vn -0.020176 -0.200367 0.979513
vn -0.027248 -0.199385 0.979542
vn -0.022431 -0.198941 0.979755
vn -0.024616 -0.198227 0.979847
vn -0.026500 -0.199213 0.979598
vn -0.026362 -0.199142 0.979616
vn -0.025668 -0.197979 0.979870
vn -0.108909 -0.049375 0.992825
vn -0.108448 -0.050453 0.992821
vn -0.103370 -0.025757 0.994309
vn -0.103243 -0.025735 0.994323
vn -0.092967 -0.002073 0.995667
vn -0.092550 -0.002355 0.995705
vn -0.106766 -0.049730 0.993040
vn -0.102007 -0.021611 0.994549
vn -0.092269 0.002335 0.995731
vn -0.079430 0.021230 0.996614
vn -0.079626 0.022047 0.996581
vn -0.064411 0.048496 0.996744
vn -0.064944 0.046233 0.996817
vn -0.080387 0.024639 0.996459
vn -0.067542 0.047679 0.996577
vn -0.073104 0.046472 0.996241
vn -0.070799 0.047105 0.996378
vn -0.081339 0.027611 0.996304
vn -0.080888 0.033265 0.996168
vn -0.091455 0.007360 0.995782
vn -0.090122 0.014080 0.995831
vn -0.097878 -0.012451 0.995121
vn -0.100156 -0.017067 0.994825
vn -0.104069 -0.049636 0.993331
vn -0.100356 -0.050968 0.993645
vn 0.017287 -0.166775 0.985843
vn 0.006905 -0.171381 0.985181
vn 0.011317 -0.180860 0.983444
vn 0.001824 -0.184597 0.982813
vn 0.027677 -0.149925 0.988310
vn 0.019756 -0.161338 0.986701
vn -0.006025 -0.196554 0.980474
vn 0.000273 -0.191832 0.981428
vn -0.017494 -0.196225 0.980403
vn 0.004955 -0.168946 0.985613
vn -0.017907 -0.170766 0.985149
vn -0.022455 -0.067510 0.997466
vn -0.019632 -0.127004 0.991708
vn 0.007169 -0.128217 0.991720
vn 0.006231 -0.071756 0.997403
vn 0.025204 -0.125970 0.991714
vn 0.025620 -0.075901 0.996786
vn 0.036375 -0.080236 0.996112
vn 0.035273 -0.121285 0.991991
vn -0.076991 0.043868 0.996066
vn -0.068353 0.056993 0.996032
vn -0.068760 0.054906 0.996121
vn -0.061949 0.068887 0.995699
vn -0.085591 0.022795 0.996070
vn -0.074530 0.030719 0.996746
vn -0.053214 0.077354 0.995583
vn -0.055415 0.061909 0.996542
vn -0.036011 0.060494 0.997519
vn -0.056332 0.034692 0.997809
vn -0.030867 0.032322 0.999001
vn -0.026237 -0.009603 0.999610
vn -0.055538 -0.006130 0.998438
vn -0.052810 -0.062940 0.996619
vn -0.077517 -0.005886 0.996974
vn -0.076338 -0.058209 0.995381
vn -0.092262 -0.053977 0.994271
vn -0.091617 -0.008320 0.995760
vn 0.031400 -0.054228 0.998035
vn 0.029272 -0.040270 0.998760
vn 0.019667 -0.027260 0.999435
vn 0.017974 -0.031740 0.999335
vn 0.016180 -0.012616 0.999790
vn 0.008559 0.006558 0.999942
vn 0.001496 -0.016801 0.999858
vn -0.006655 0.022355 0.999728
vn -0.017388 0.048611 0.998666
vn -0.005815 0.029224 0.999556
vn 0.000637 0.007197 0.999974
vn 0.003583 -0.013074 0.999908
vn -0.095092 -0.092534 0.991158
vn -0.086035 -0.102551 0.991000
vn -0.070332 -0.113013 0.991101
vn -0.083889 -0.126123 0.988461
vn -0.075057 -0.140105 0.987288
vn -0.061339 -0.154423 0.986099
vn -0.048077 -0.121678 0.991405
vn -0.042339 -0.165469 0.985306
vn -0.036700 -0.191984 0.980712
vn -0.051781 -0.180789 0.982158
vn -0.063182 -0.166253 0.984057
vn -0.071051 -0.151965 0.985829
vn -0.080724 -0.135149 0.987531
vn -0.083058 -0.131071 0.987888
vn -0.096270 -0.106067 0.989688
vn -0.098021 -0.102371 0.989905
vn -0.078843 -0.138953 0.987155
vn -0.093802 -0.110511 0.989439
vn -0.107149 -0.074593 0.991441
vn -0.106044 -0.077343 0.991349
vn -0.103825 -0.080498 0.991333
vn -0.100188 -0.085176 0.991316
vn -0.089766 -0.116455 0.989131
vn -0.075896 -0.143503 0.986735
vn -0.010483 -0.165671 0.986125
vn -0.010848 -0.163666 0.986456
vn -0.018710 -0.180320 0.983430
vn -0.020378 -0.179417 0.983562
vn -0.005988 -0.166814 0.985970
vn -0.013244 -0.180480 0.983490
vn -0.025417 -0.191114 0.981239
vn -0.023399 -0.191535 0.981207
vn -0.018479 -0.191897 0.981241
vn -0.012604 -0.193412 0.981037
vn -0.006592 -0.181803 0.983313
vn -0.000653 -0.169175 0.985586
vn -0.052066 0.072198 0.996030
vn -0.051412 0.071001 0.996150
vn -0.045824 0.088227 0.995046
vn -0.044034 0.088583 0.995095
vn -0.057020 0.068567 0.996016
vn -0.050593 0.083750 0.995202
vn -0.043405 0.098130 0.994227
vn -0.045013 0.096889 0.994277
vn -0.047644 0.092693 0.994554
vn -0.050453 0.086187 0.995001
vn -0.055801 0.077361 0.995440
vn -0.062046 0.064163 0.996009
vn 0.001918 -0.037106 0.999310
vn 0.002394 -0.040008 0.999197
vn 0.018950 -0.066334 0.997617
vn 0.018774 -0.068709 0.997460
vn 0.002727 -0.031800 0.999491
vn 0.018285 -0.057660 0.998169
vn 0.031172 -0.088421 0.995595
vn 0.031454 -0.085796 0.995816
vn 0.030873 -0.077399 0.996522
vn 0.030719 -0.066930 0.997285
vn 0.017982 -0.046777 0.998744
vn 0.003900 -0.025098 0.999677
f 1/1/1 2/2/2 3/3/3
f 1/1/1 3/3/3 4/4/4
f 4/4/4 3/3/3 5/5/5
f 4/4/4 5/5/5 6/6/6
f 2/2/2 7/7/7 8/8/8
f 2/2/2 8/8/8 3/3/3
f 3/3/3 8/8/8 9/9/9
f 3/3/3 9/9/9 5/5/5
f 10/10/10 11/11/11 12/12/12
f 10/10/10 12/12/12 13/13/13
f 11/11/11 14/14/14 15/15/15
f 11/11/11 15/15/15 12/12/12
f 6/6/6 5/5/5 11/11/11
f 6/6/6 11/11/11 10/10/10
f 5/5/5 9/9/9 14/14/14
f 5/5/5 14/14/14 11/11/11
f 16/16/16 17/17/17 18/18/18
f 16/16/16 18/18/18 19/19/19
f 19/19/19 18/18/18 20/20/20
f 19/19/19 20/20/20 21/21/21
f 17/17/17 15/15/15 14/14/14
f 17/17/17 14/14/14 18/18/18
f 18/18/18 14/14/14 9/9/9
f 18/18/18 9/9/9 20/20/20
f 22/22/22 23/23/23 24/24/24
f 22/22/22 24/24/24 25/25/25
f 23/23/23 8/8/8 7/7/7
f 23/23/23 7/7/7 24/24/24
f 21/21/21 20/20/20 23/23/23
f 21/21/21 23/23/23 22/22/22
f 20/20/20 9/9/9 8/8/8
f 20/20/20 8/8/8 23/23/23
f 26/26/26 27/27/27 28/28/28
f 26/26/26 28/28/28 29/29/29
f 29/29/29 28/28/28 30/30/30
f 29/29/29 30/30/30 31/31/31
f 27/27/27 32/32/32 33/33/33
f 27/27/27 33/33/33 28/28/28
f 28/28/28 33/33/33 34/34/34
f 28/28/28 34/34/34 30/30/30
f 35/35/35 36/36/36 37/37/37
f 35/35/35 37/37/37 38/38/38
f 36/36/36 39/39/39 40/40/40
f 36/36/36 40/40/40 37/37/37
f 31/31/31 30/30/30 36/36/36
f 31/31/31 36/36/36 35/35/35
f 30/30/30 34/34/34 39/39/39
f 30/30/30 39/39/39 36/36/36
f 41/41/41 42/42/42 43/43/43
f 41/41/41 43/43/43 44/44/44
f 44/44/44 43/43/43 45/45/45
f 44/44/44 45/45/45 46/46/46
f 42/42/42 40/40/40 39/39/39
f 42/42/42 39/39/39 43/43/43
f 43/43/43 39/39/39 34/34/34
f 43/43/43 34/34/34 45/45/45
f 47/47/47 48/48/48 49/49/49
f 47/47/47 49/49/49 50/50/50
f 48/48/48 33/33/33 32/32/32
f 48/48/48 32/32/32 49/49/49
f 46/46/46 45/45/45 48/48/48
f 46/46/46 48/48/48 47/47/47
f 45/45/45 34/34/34 33/33/33
f 45/45/45 33/33/33 48/48/48
f 51/51/51 52/52/52 53/53/53
f 51/51/51 53/53/53 54/54/54
f 54/54/54 53/53/53 55/55/55
f 54/54/54 55/55/55 56/56/56
f 52/52/52 57/57/57 58/58/58
f 52/52/52 58/58/58 53/53/53
f 53/53/53 58/58/58 59/59/59
f 53/53/53 59/59/59 55/55/55
f 60/60/60 61/61/61 62/62/62
f 60/60/60 62/62/62 63/63/63
f 61/61/61 64/64/64 65/65/65
f 61/61/61 65/65/65 62/62/62
f 56/56/56 55/55/55 61/61/61
f 56/56/56 61/61/61 60/60/60
f 55/55/55 59/59/59 64/64/64
f 55/55/55 64/64/64 61/61/61
f 66/66/66 67/67/67 68/68/68
f 66/66/66 68/68/68 69/69/69
f 69/69/69 68/68/68 70/70/70
f 69/69/69 70/70/70 71/71/71
f 67/67/67 65/65/65 64/64/64
f 67/67/67 64/64/64 68/68/68
f 68/68/68 64/64/64 59/59/59
f 68/68/68 59/59/59 70/70/70
f 72/72/72 73/73/73 74/74/74
f 72/72/72 74/74/74 75/75/75
f 73/73/73 58/58/58 57/57/57
f 73/73/73 57/57/57 74/74/74
f 71/71/71 70/70/70 73/73/73
f 71/71/71 73/73/73 72/72/72
f 70/70/70 59/59/59 58/58/58
f 70/70/70 58/58/58 73/73/73
f 76/76/76 77/77/77 78/78/78
f 76/76/76 78/78/78 79/79/79
f 79/79/79 78/78/78 80/80/80
f 79/79/79 80/80/80 81/81/81
f 77/77/77 82/82/82 83/83/83
f 77/77/77 83/83/83 78/78/78
f 78/78/78 83/83/83 84/84/84
f 78/78/78 84/84/84 80/80/80
f 85/85/85 86/86/86 87/87/87
f 85/85/85 87/87/87 88/88/88
f 86/86/86 89/89/89 90/90/90
f 86/86/86 90/90/90 87/87/87
f 81/81/81 80/80/80 86/86/86
f 81/81/81 86/86/86 85/85/85
f 80/80/80 84/84/84 89/89/89
f 80/80/80 89/89/89 86/86/86
f 91/91/91 92/92/92 93/93/93
f 91/91/91 93/93/93 94/94/94
f 94/94/94 93/93/93 95/95/95
f 94/94/94 95/95/95 96/96/96
f 92/92/92 90/90/90 89/89/89
f 92/92/92 89/89/89 93/93/93
f 93/93/93 89/89/89 84/84/84
f 93/93/93 84/84/84 95/95/95
f 97/97/97 98/98/98 99/99/99
f 97/97/97 99/99/99 100/100/100
f 98/98/98 83/83/83 82/82/82
f 98/98/98 82/82/82 99/99/99
f 96/96/96 95/95/95 98/98/98
f 96/96/96 98/98/98 97/97/97
f 95/95/95 84/84/84 83/83/83
f 95/95/95 83/83/83 98/98/98
f 41/41/41 44/44/44 101/101/101
f 41/41/41 101/101/101 102/102/102
f 102/102/102 101/101/101 103/103/103
f 102/102/102 103/103/103 104/104/104
f 44/44/44 46/46/46 105/105/105
f 44/44/44 105/105/105 101/101/101
f 101/101/101 105/105/105 106/106/106
f 101/101/101 106/106/106 103/103/103
f 107/107/107 108/108/108 109/109/109
f 107/107/107 109/109/109 66/66/66
f 108/108/108 110/110/110 111/111/111
f 108/108/108 111/111/111 109/109/109
f 104/104/104 103/103/103 108/108/108
f 104/104/104 108/108/108 107/107/107
f 103/103/103 106/106/106 110/110/110
f 103/103/103 110/110/110 108/108/108
f 112/112/112 113/113/113 114/114/114
f 112/112/112 114/114/114 115/115/115
f 115/115/115 114/114/114 116/116/116
f 115/115/115 116/116/116 117/117/117
f 113/113/113 111/111/111 110/110/110
f 113/113/113 110/110/110 114/114/114
f 114/114/114 110/110/110 106/106/106
f 114/114/114 106/106/106 116/116/116
f 118/118/118 119/119/119 47/47/47
f 118/118/118 47/47/47 50/50/50
f 119/119/119 105/105/105 46/46/46
f 119/119/119 46/46/46 47/47/47
f 117/117/117 116/116/116 119/119/119
f 117/117/117 119/119/119 118/118/118
f 116/116/116 106/106/106 105/105/105
f 116/116/116 105/105/105 119/119/119
f 91/91/91 94/94/94 120/120/120
f 91/91/91 120/120/120 121/121/121
f 121/121/121 120/120/120 122/122/122
f 121/121/121 122/122/122 123/123/123
f 94/94/94 96/96/96 124/124/124
f 94/94/94 124/124/124 120/120/120
f 120/120/120 124/124/124 125/125/125
f 120/120/120 125/125/125 122/122/122
f 126/126/126 127/127/127 128/128/128
f 126/126/126 128/128/128 16/16/16
f 127/127/127 129/129/129 130/130/130
f 127/127/127 130/130/130 128/128/128
f 123/123/123 122/122/122 127/127/127
f 123/123/123 127/127/127 126/126/126
f 122/122/122 125/125/125 129/129/129
f 122/122/122 129/129/129 127/127/127
f 112/112/112 131/131/131 132/132/132
f 112/112/112 132/132/132 133/133/133
f 133/133/133 132/132/132 134/134/134
f 133/133/133 134/134/134 135/135/135
f 131/131/131 130/130/130 129/129/129
f 131/131/131 129/129/129 132/132/132
f 132/132/132 129/129/129 125/125/125
f 132/132/132 125/125/125 134/134/134
f 136/136/136 137/137/137 97/97/97
f 136/136/136 97/97/97 100/100/100
f 137/137/137 124/124/124 96/96/96
f 137/137/137 96/96/96 97/97/97
f 135/135/135 134/134/134 137/137/137
f 135/135/135 137/137/137 136/136/136
f 134/134/134 125/125/125 124/124/124
f 134/134/134 124/124/124 137/137/137
f 50/50/50 138/138/138 139/139/139
f 50/50/50 139/139/139 118/118/118
f 118/118/118 139/139/139 140/140/140
f 118/118/118 140/140/140 117/117/117
f 138/138/138 141/141/141 142/142/142
f 138/138/138 142/142/142 139/139/139
f 139/139/139 142/142/142 143/143/143
f 139/139/139 143/143/143 140/140/140
f 115/115/115 144/144/144 131/131/131
f 115/115/115 131/131/131 112/112/112
f 144/144/144 145/145/145 130/130/130
f 144/144/144 130/130/130 131/131/131
f 117/117/117 140/140/140 144/144/144
f 117/117/117 144/144/144 115/115/115
f 140/140/140 143/143/143 145/145/145
f 140/140/140 145/145/145 144/144/144
f 16/16/16 128/128/128 146/146/146
f 16/16/16 146/146/146 17/17/17
f 17/17/17 146/146/146 147/147/147
f 17/17/17 147/147/147 15/15/15
f 128/128/128 130/130/130 145/145/145
f 128/128/128 145/145/145 146/146/146
f 146/146/146 145/145/145 143/143/143
f 146/146/146 143/143/143 147/147/147
f 12/12/12 148/148/148 149/149/149
f 12/12/12 149/149/149 13/13/13
f 148/148/148 142/142/142 141/141/141
f 148/148/148 141/141/141 149/149/149
f 15/15/15 147/147/147 148/148/148
f 15/15/15 148/148/148 12/12/12
f 147/147/147 143/143/143 142/142/142
f 147/147/147 142/142/142 148/148/148
f 100/100/100 150/150/150 151/151/151
f 100/100/100 151/151/151 136/136/136
f 136/136/136 151/151/151 152/152/152
f 136/136/136 152/152/152 135/135/135
f 150/150/150 153/153/153 154/154/154
f 150/150/150 154/154/154 151/151/151
f 151/151/151 154/154/154 155/155/155
f 151/151/151 155/155/155 152/152/152
f 133/133/133 156/156/156 113/113/113
f 133/133/133 113/113/113 112/112/112
f 156/156/156 157/157/157 111/111/111
f 156/156/156 111/111/111 113/113/113
f 135/135/135 152/152/152 156/156/156
f 135/135/135 156/156/156 133/133/133
f 152/152/152 155/155/155 157/157/157
f 152/152/152 157/157/157 156/156/156
f 66/66/66 109/109/109 158/158/158
f 66/66/66 158/158/158 67/67/67
f 67/67/67 158/158/158 159/159/159
f 67/67/67 159/159/159 65/65/65
f 109/109/109 111/111/111 157/157/157
f 109/109/109 157/157/157 158/158/158
f 158/158/158 157/157/157 155/155/155
f 158/158/158 155/155/155 159/159/159
f 62/62/62 160/160/160 161/161/161
f 62/62/62 161/161/161 63/63/63
f 160/160/160 154/154/154 153/153/153
f 160/160/160 153/153/153 161/161/161
f 65/65/65 159/159/159 160/160/160
f 65/65/65 160/160/160 62/62/62
f 159/159/159 155/155/155 154/154/154
f 159/159/159 154/154/154 160/160/160
f 51/51/51 54/54/54 162/162/162
f 51/51/51 162/162/162 163/163/163
f 163/163/163 162/162/162 164/164/164
f 163/163/163 164/164/164 165/165/165
f 54/54/54 56/56/56 166/166/166
f 54/54/54 166/166/166 162/162/162
f 162/162/162 166/166/166 167/167/167
f 162/162/162 167/167/167 164/164/164
f 168/168/168 169/169/169 77/77/77
f 168/168/168 77/77/77 76/76/76
f 169/169/169 170/170/170 82/82/82
f 169/169/169 82/82/82 77/77/77
f 165/165/165 164/164/164 169/169/169
f 165/165/165 169/169/169 168/168/168
f 164/164/164 167/167/167 170/170/170
f 164/164/164 170/170/170 169/169/169
f 100/100/100 99/99/99 171/171/171
f 100/100/100 171/171/171 150/150/150
f 150/150/150 171/171/171 172/172/172
f 150/150/150 172/172/172 153/153/153
f 99/99/99 82/82/82 170/170/170
f 99/99/99 170/170/170 171/171/171
f 171/171/171 170/170/170 167/167/167
f 171/171/171 167/167/167 172/172/172
f 161/161/161 173/173/173 60/60/60
f 161/161/161 60/60/60 63/63/63
f 173/173/173 166/166/166 56/56/56
f 173/173/173 56/56/56 60/60/60
f 153/153/153 172/172/172 173/173/173
f 153/153/153 173/173/173 161/161/161
f 172/172/172 167/167/167 166/166/166
f 172/172/172 166/166/166 173/173/173
f 38/38/38 37/37/37 174/174/174
f 38/38/38 174/174/174 175/175/175
f 175/175/175 174/174/174 176/176/176
f 175/175/175 176/176/176 177/177/177
f 37/37/37 40/40/40 178/178/178
f 37/37/37 178/178/178 174/174/174
f 174/174/174 178/178/178 179/179/179
f 174/174/174 179/179/179 176/176/176
f 180/180/180 181/181/181 72/72/72
f 180/180/180 72/72/72 75/75/75
f 181/181/181 182/182/182 71/71/71
f 181/181/181 71/71/71 72/72/72
f 177/177/177 176/176/176 181/181/181
f 177/177/177 181/181/181 180/180/180
f 176/176/176 179/179/179 182/182/182
f 176/176/176 182/182/182 181/181/181
f 66/66/66 69/69/69 183/183/183
f 66/66/66 183/183/183 107/107/107
f 107/107/107 183/183/183 184/184/184
f 107/107/107 184/184/184 104/104/104
f 69/69/69 71/71/71 182/182/182
f 69/69/69 182/182/182 183/183/183
f 183/183/183 182/182/182 179/179/179
f 183/183/183 179/179/179 184/184/184
f 102/102/102 185/185/185 42/42/42
f 102/102/102 42/42/42 41/41/41
f 185/185/185 178/178/178 40/40/40
f 185/185/185 40/40/40 42/42/42
f 104/104/104 184/184/184 185/185/185
f 104/104/104 185/185/185 102/102/102
f 184/184/184 179/179/179 178/178/178
f 184/184/184 178/178/178 185/185/185
f 88/88/88 87/87/87 186/186/186
f 88/88/88 186/186/186 187/187/187
f 187/187/187 186/186/186 188/188/188
f 187/187/187 188/188/188 189/189/189
f 87/87/87 90/90/90 190/190/190
f 87/87/87 190/190/190 186/186/186
f 186/186/186 190/190/190 191/191/191
f 186/186/186 191/191/191 188/188/188
f 192/192/192 193/193/193 22/22/22
f 192/192/192 22/22/22 25/25/25
f 193/193/193 194/194/194 21/21/21
f 193/193/193 21/21/21 22/22/22
f 189/189/189 188/188/188 193/193/193
f 189/189/189 193/193/193 192/192/192
f 188/188/188 191/191/191 194/194/194
f 188/188/188 194/194/194 193/193/193
f 16/16/16 19/19/19 195/195/195
f 16/16/16 195/195/195 126/126/126
f 126/126/126 195/195/195 196/196/196
f 126/126/126 196/196/196 123/123/123
f 19/19/19 21/21/21 194/194/194
f 19/19/19 194/194/194 195/195/195
f 195/195/195 194/194/194 191/191/191
f 195/195/195 191/191/191 196/196/196
f 121/121/121 197/197/197 92/92/92
f 121/121/121 92/92/92 91/91/91
f 197/197/197 190/190/190 90/90/90
f 197/197/197 90/90/90 92/92/92
f 123/123/123 196/196/196 197/197/197
f 123/123/123 197/197/197 121/121/121
f 196/196/196 191/191/191 190/190/190
f 196/196/196 190/190/190 197/197/197
f 1/1/1 4/4/4 198/198/198
f 1/1/1 198/198/198 199/199/199
f 199/199/199 198/198/198 200/200/200
f 199/199/199 200/200/200 201/201/201
f 4/4/4 6/6/6 202/202/202
f 4/4/4 202/202/202 198/198/198
f 198/198/198 202/202/202 203/203/203
f 198/198/198 203/203/203 200/200/200
f 204/204/204 205/205/205 27/27/27
f 204/204/204 27/27/27 26/26/26
f 205/205/205 206/206/206 32/32/32
f 205/205/205 32/32/32 27/27/27
f 201/201/201 200/200/200 205/205/205
f 201/201/201 205/205/205 204/204/204
f 200/200/200 203/203/203 206/206/206
f 200/200/200 206/206/206 205/205/205
f 50/50/50 49/49/49 207/207/207
f 50/50/50 207/207/207 138/138/138
f 138/138/138 207/207/207 208/208/208
f 138/138/138 208/208/208 141/141/141
f 49/49/49 32/32/32 206/206/206
f 49/49/49 206/206/206 207/207/207
f 207/207/207 206/206/206 203/203/203
f 207/207/207 203/203/203 208/208/208
f 149/149/149 209/209/209 10/10/10
f 149/149/149 10/10/10 13/13/13
f 209/209/209 202/202/202 6/6/6
f 209/209/209 6/6/6 10/10/10
f 141/141/141 208/208/208 209/209/209
f 141/141/141 209/209/209 149/149/149
f 208/208/208 203/203/203 202/202/202
f 208/208/208 202/202/202 209/209/209
