# generated by the editor's model importer
v -26.975403 188.514908 -282.161316 1.000000 1.000000 1.000000 1.000000
v -257.806091 5.420380 -209.721756 1.000000 1.000000 1.000000 1.000000
v -247.006287 184.209335 -179.375961 1.000000 1.000000 1.000000 1.000000
v 68.325500 5.885010 -363.886719 1.000000 1.000000 1.000000 1.000000
v -199.126282 4.058624 -15.107285 1.000000 1.000000 1.000000 1.000000
v -247.006287 184.209335 -179.375961 1.000000 1.000000 1.000000 1.000000
v -257.806091 5.420380 -209.721756 1.000000 1.000000 1.000000 1.000000
v -196.894958 174.036728 -11.723465 1.000000 1.000000 1.000000 1.000000
v 250.950317 185.966812 39.365829 1.000000 1.000000 1.000000 1.000000
v 142.170227 1.724518 257.429138 1.000000 1.000000 1.000000 1.000000
v 343.431213 3.342987 -42.578018 1.000000 1.000000 1.000000 1.000000
v 115.248779 180.862030 243.718445 1.000000 1.000000 1.000000 1.000000
v 435.496948 6.749969 -590.048645 1.000000 1.000000 1.000000 1.000000
v 343.431213 3.342987 -42.578018 1.000000 1.000000 1.000000 1.000000
v 68.325500 5.885010 -363.886719 1.000000 1.000000 1.000000 1.000000
v 626.705200 4.983185 -366.727722 1.000000 1.000000 1.000000 1.000000
v 449.475098 131.689819 -583.913940 1.000000 1.000000 1.000000 1.000000
v 626.705200 4.983185 -366.727722 1.000000 1.000000 1.000000 1.000000
v 435.496948 6.749969 -590.048645 1.000000 1.000000 1.000000 1.000000
v 623.773743 130.079269 -380.342529 1.000000 1.000000 1.000000 1.000000
v -40.436401 2.592316 170.233887 1.000000 1.000000 1.000000 1.000000
v -199.126282 4.058624 -15.107285 1.000000 1.000000 1.000000 1.000000
v -42.757690 172.612488 168.300552 1.000000 1.000000 1.000000 1.000000
v -199.126282 4.058624 -15.107285 1.000000 1.000000 1.000000 1.000000
v -40.436401 2.592316 170.233887 1.000000 1.000000 1.000000 1.000000
v -196.894958 174.036728 -11.723465 1.000000 1.000000 1.000000 1.000000
v -40.436401 2.592316 170.233887 1.000000 1.000000 1.000000 1.000000
v 115.248779 180.862030 243.718445 1.000000 1.000000 1.000000 1.000000
v -42.757690 172.612488 168.300552 1.000000 1.000000 1.000000 1.000000
v 142.170227 1.724518 257.429138 1.000000 1.000000 1.000000 1.000000
v 626.705200 4.983185 -366.727722 1.000000 1.000000 1.000000 1.000000
v 623.773743 130.079269 -380.342529 1.000000 1.000000 1.000000 1.000000
v 435.496948 6.749969 -590.048645 1.000000 1.000000 1.000000 1.000000
v 449.475098 131.689819 -583.913940 1.000000 1.000000 1.000000 1.000000
v 407.941620 338.382965 -371.624329 1.000000 1.000000 1.000000 1.000000
v 407.941620 338.382965 -371.624329 1.000000 1.000000 1.000000 1.000000
v -205.406311 4.196594 -34.742508 1.000000 1.000000 1.000000 1.000000
v -626.705139 4.651367 2.122147 1.000000 1.000000 1.000000 1.000000
v -253.258728 5.318390 -195.185226 1.000000 1.000000 1.000000 1.000000
v -217.360168 173.495712 -77.144241 1.000000 1.000000 1.000000 1.000000
v -239.337830 174.008606 -150.477158 1.000000 1.000000 1.000000 1.000000
v -626.705139 4.651367 2.122147 1.000000 1.000000 1.000000 1.000000
v -205.406311 4.196594 -34.742508 1.000000 1.000000 1.000000 1.000000
v -217.360168 173.495712 -77.144241 1.000000 1.000000 1.000000 1.000000
v -257.806091 5.420380 -209.721756 1.000000 1.000000 1.000000 1.000000
v -26.975403 188.514908 -282.161316 1.000000 1.000000 1.000000 1.000000
v -247.006287 184.209335 -179.375961 1.000000 1.000000 1.000000 1.000000
v -196.894958 174.036728 -11.723465 1.000000 1.000000 1.000000 1.000000
v -119.446716 206.320862 78.882858 1.000000 1.000000 1.000000 1.000000
v 407.941620 338.382965 -371.624329 1.000000 1.000000 1.000000 1.000000
v 407.941620 338.382965 -371.624329 1.000000 1.000000 1.000000 1.000000
v 128.507385 1.790802 250.697021 1.000000 1.000000 1.000000 1.000000
v -123.320190 0.000000 590.048645 1.000000 1.000000 1.000000 1.000000
v -22.652893 2.507935 178.703705 1.000000 1.000000 1.000000 1.000000
v 142.170227 1.724518 257.429138 1.000000 1.000000 1.000000 1.000000
v 18.723511 171.314270 198.588715 1.000000 1.000000 1.000000 1.000000
v 87.797363 170.985825 231.599106 1.000000 1.000000 1.000000 1.000000
v -22.652893 2.507935 178.703705 1.000000 1.000000 1.000000 1.000000
v -123.320190 0.000000 590.048645 1.000000 1.000000 1.000000 1.000000
v 18.723511 171.314270 198.588715 1.000000 1.000000 1.000000 1.000000
v -64.500061 2.814667 142.128876 1.000000 1.000000 1.000000 1.000000
v -443.378113 2.057861 354.618103 1.000000 1.000000 1.000000 1.000000
v -175.713013 3.842285 12.238144 1.000000 1.000000 1.000000 1.000000
v -94.785522 174.093231 107.539459 1.000000 1.000000 1.000000 1.000000
v -144.863831 174.555954 49.050644 1.000000 1.000000 1.000000 1.000000
v -443.378113 2.057861 354.618103 1.000000 1.000000 1.000000 1.000000
v -64.500061 2.814667 142.128876 1.000000 1.000000 1.000000 1.000000
v -94.785522 174.093231 107.539459 1.000000 1.000000 1.000000 1.000000
v -119.446716 206.320862 78.882858 1.000000 1.000000 1.000000 1.000000
v 115.248779 180.862030 243.718445 1.000000 1.000000 1.000000 1.000000
v 250.950317 185.966812 39.365829 1.000000 1.000000 1.000000 1.000000
v -42.757690 172.612488 168.300552 1.000000 1.000000 1.000000 1.000000
v -119.446716 206.320862 78.882858 1.000000 1.000000 1.000000 1.000000
v 407.941620 338.382965 -371.624329 1.000000 1.000000 1.000000 1.000000
vt 0.617288 0.714944
vt 0.500100 0.746194
vt 0.500100 0.714944
vt 0.679788 0.746194
vt 0.312600 0.871194
vt 0.421975 0.812600
vt 0.421975 0.871194
vt 0.312600 0.812600
vt 0.617288 0.714944
vt 0.500100 0.746194
vt 0.679788 0.746194
vt 0.500100 0.714944
vt 0.859475 0.808694
vt 0.765725 0.750100
vt 0.765725 0.808694
vt 0.859475 0.750100
vt 0.359475 0.289163
vt 0.250100 0.308694
vt 0.359475 0.308694
vt 0.250100 0.289163
vt 0.687600 0.765725
vt 0.687600 0.789163
vt 0.296975 0.820413
vt 0.187600 0.871194
vt 0.296975 0.871194
vt 0.187600 0.820413
vt 0.312600 0.871194
vt 0.421975 0.812600
vt 0.312600 0.812600
vt 0.421975 0.871194
vt 0.921975 0.746194
vt 0.921975 0.714944
vt 0.921975 0.746194
vt 0.921975 0.714944
vt 0.921975 0.687600
vt 0.921975 0.687600
vt 0.671975 0.121194
vt 0.375100 0.121194
vt 0.671975 0.121194
vt 0.671975 0.062600
vt 0.671975 0.062600
vt 0.375100 0.121194
vt 0.671975 0.121194
vt 0.671975 0.062600
vt 0.687600 0.808694
vt 0.312600 0.808694
vt 0.187600 0.808694
vt 0.187600 0.773538
vt 0.187600 0.750100
vt 0.484475 0.750100
vt 0.304787 0.250100
vt 0.671975 0.121194
vt 0.375100 0.121194
vt 0.671975 0.121194
vt 0.687600 0.750100
vt 0.671975 0.062600
vt 0.671975 0.062600
vt 0.671975 0.121194
vt 0.375100 0.121194
vt 0.671975 0.062600
vt 0.671975 0.121194
vt 0.375100 0.121194
vt 0.671975 0.121194
vt 0.671975 0.062600
vt 0.671975 0.062600
vt 0.375100 0.121194
vt 0.671975 0.121194
vt 0.671975 0.062600
vt 0.234475 0.812600
vt 0.187600 0.808694
vt 0.312600 0.808694
vt 0.187600 0.777444
vt 0.187600 0.750100
vt 0.484475 0.750100
vn -0.432966 0.660679 -0.613224
vn -0.753519 -0.534689 -0.382515
vn -0.723006 0.640295 -0.259395
vn -0.365863 -0.670721 -0.645196
vn -0.659665 -0.663217 0.353532
vn -0.723006 0.640295 -0.259395
vn -0.753519 -0.534689 -0.382515
vn -0.750100 0.573623 0.329101
vn 0.544709 0.650277 0.529558
vn 0.260646 -0.543633 0.797826
vn 0.570054 -0.683634 0.455722
vn 0.152450 0.632327 0.759553
vn 0.087086 -0.569075 -0.817661
vn 0.570054 -0.683634 0.455722
vn -0.365863 -0.670721 -0.645196
vn 0.817087 -0.575226 0.038509
vn 0.184642 0.348275 -0.919028
vn 0.817087 -0.575226 0.038509
vn 0.087086 -0.569075 -0.817661
vn 0.938986 0.342285 -0.033862
vn -0.455615 -0.664623 0.592192
vn -0.659665 -0.663217 0.353532
vn -0.436058 0.571334 0.695292
vn -0.659665 -0.663217 0.353532
vn -0.455615 -0.664623 0.592192
vn -0.750100 0.573623 0.329101
vn -0.455615 -0.664623 0.592192
vn 0.152450 0.632327 0.759553
vn -0.436058 0.571334 0.695292
vn 0.260646 -0.543633 0.797826
vn 0.817087 -0.575226 0.038509
vn 0.938986 0.342285 -0.033862
vn 0.087086 -0.569075 -0.817661
vn 0.184642 0.348275 -0.919028
vn 0.226678 0.955892 -0.186783
vn 0.226678 0.955892 -0.186783
vn 0.071593 -0.559922 0.825446
vn -0.946006 -0.167653 0.277426
vn -0.389401 -0.549957 -0.738861
vn -0.196054 0.763933 0.614793
vn -0.494208 0.774177 -0.395486
vn -0.946006 -0.167653 0.277426
vn 0.071593 -0.559922 0.825446
vn -0.196054 0.763933 0.614793
vn -0.753519 -0.534689 -0.382515
vn -0.432966 0.660679 -0.613224
vn -0.723006 0.640295 -0.259395
vn -0.750100 0.573623 0.329101
vn -0.535108 0.705079 0.465320
vn 0.226678 0.955892 -0.186783
vn 0.226678 0.955892 -0.186783
vn 0.666571 -0.560287 0.491692
vn -0.419284 -0.172407 0.891334
vn -0.809629 -0.551270 -0.201499
vn 0.260646 -0.543633 0.797826
vn -0.632198 0.767456 0.106475
vn 0.321055 0.767275 0.555169
vn -0.809629 -0.551270 -0.201499
vn -0.419284 -0.172407 0.891334
vn -0.632198 0.767456 0.106475
vn 0.405978 -0.560358 0.721928
vn -0.748762 -0.167936 0.641212
vn -0.656588 -0.549971 -0.516163
vn 0.073332 0.766969 0.637480
vn -0.613451 0.772705 -0.163111
vn -0.748762 -0.167936 0.641212
vn 0.405978 -0.560358 0.721928
vn 0.073332 0.766969 0.637480
vn -0.535108 0.705079 0.465320
vn 0.152450 0.632327 0.759553
vn 0.544709 0.650277 0.529558
vn -0.436058 0.571334 0.695292
vn -0.535108 0.705079 0.465320
vn 0.226678 0.955892 -0.186783
f 1/1/1 2/2/2 3/3/3
f 2/2/2 1/1/1 4/4/4
f 1/1/1 33/33/33 4/4/4
f 33/33/33 1/1/1 34/34/34
f 1/1/1 36/36/36 34/34/34
f 5/5/5 6/6/6 7/7/7
f 6/6/6 5/5/5 8/8/8
f 9/9/9 10/10/10 11/11/11
f 10/10/10 9/9/9 12/12/12
f 9/9/9 31/31/31 32/32/32
f 31/31/31 9/9/9 11/11/11
f 35/35/35 9/9/9 32/32/32
f 13/13/13 14/14/14 15/15/15
f 14/14/14 13/13/13 16/16/16
f 21/21/21 15/15/15 14/14/14
f 55/55/55 21/21/21 14/14/14
f 15/15/15 21/21/21 22/22/22
f 22/22/22 45/45/45 15/15/15
f 17/17/17 18/18/18 19/19/19
f 18/18/18 17/17/17 20/20/20
f 20/20/20 17/17/17 51/51/51
f 23/23/23 24/24/24 25/25/25
f 24/24/24 23/23/23 26/26/26
f 69/69/69 26/26/26 23/23/23
f 27/27/27 28/28/28 29/29/29
f 28/28/28 27/27/27 30/30/30
f 37/37/37 38/38/38 39/39/39
f 38/38/38 40/40/40 41/41/41
f 39/39/39 38/38/38 41/41/41
f 42/42/42 43/43/43 44/44/44
f 46/46/46 47/47/47 48/48/48
f 46/46/46 48/48/48 49/49/49
f 46/46/46 49/49/49 50/50/50
f 52/52/52 53/53/53 54/54/54
f 53/53/53 52/52/52 57/57/57
f 56/56/56 53/53/53 57/57/57
f 58/58/58 59/59/59 60/60/60
f 61/61/61 62/62/62 63/63/63
f 62/62/62 64/64/64 65/65/65
f 63/63/63 62/62/62 65/65/65
f 66/66/66 67/67/67 68/68/68
f 70/70/70 71/71/71 72/72/72
f 72/72/72 71/71/71 73/73/73
f 73/73/73 71/71/71 74/74/74
