# generated by tools/editor_import_glb.py
v 0.454520 0.000000 -0.151507 1.000000 1.000000 1.000000 1.000000
v 0.454520 0.000000 -0.151507 1.000000 1.000000 1.000000 1.000000
v 0.454520 0.000000 -0.151507 1.000000 1.000000 1.000000 1.000000
v 0.454520 0.000000 0.151507 1.000000 1.000000 1.000000 1.000000
v 0.454520 0.000000 0.151507 1.000000 1.000000 1.000000 1.000000
v 0.454520 0.000000 0.151507 1.000000 1.000000 1.000000 1.000000
v -0.454520 0.000000 -0.151507 1.000000 1.000000 1.000000 1.000000
v -0.454520 0.000000 -0.151507 1.000000 1.000000 1.000000 1.000000
v -0.454520 0.000000 0.151507 1.000000 1.000000 1.000000 1.000000
v -0.454520 0.000000 0.151507 1.000000 1.000000 1.000000 1.000000
v 0.151507 0.000000 0.454520 1.000000 1.000000 1.000000 1.000000
v 0.151507 0.000000 0.454520 1.000000 1.000000 1.000000 1.000000
v 0.151507 0.000000 -0.454520 1.000000 1.000000 1.000000 1.000000
v 0.151507 0.000000 -0.454520 1.000000 1.000000 1.000000 1.000000
v -0.151507 0.000000 0.454520 1.000000 1.000000 1.000000 1.000000
v -0.151507 0.000000 0.454520 1.000000 1.000000 1.000000 1.000000
v -0.151507 0.000000 0.454520 1.000000 1.000000 1.000000 1.000000
v -0.151507 0.000000 -0.454520 1.000000 1.000000 1.000000 1.000000
v -0.151507 0.000000 -0.454520 1.000000 1.000000 1.000000 1.000000
v -0.151507 0.000000 -0.454520 1.000000 1.000000 1.000000 1.000000
v 0.151507 1.052605 -0.454520 1.000000 1.000000 1.000000 1.000000
v 0.151507 1.052605 -0.454520 1.000000 1.000000 1.000000 1.000000
v 0.151507 1.052605 -0.454520 1.000000 1.000000 1.000000 1.000000
v 0.151507 1.052605 -0.454520 1.000000 1.000000 1.000000 1.000000
v -0.151507 1.052605 -0.454520 1.000000 1.000000 1.000000 1.000000
v -0.151507 1.052605 -0.454520 1.000000 1.000000 1.000000 1.000000
v -0.151507 1.052605 -0.454520 1.000000 1.000000 1.000000 1.000000
v -0.151507 1.052605 -0.454520 1.000000 1.000000 1.000000 1.000000
v -0.151507 1.052605 -0.454520 1.000000 1.000000 1.000000 1.000000
v 0.454520 1.052605 -0.151507 1.000000 1.000000 1.000000 1.000000
v 0.454520 1.052605 -0.151507 1.000000 1.000000 1.000000 1.000000
v 0.454520 1.052605 -0.151507 1.000000 1.000000 1.000000 1.000000
v 0.454520 1.052605 -0.151507 1.000000 1.000000 1.000000 1.000000
v 0.454520 1.052605 -0.151507 1.000000 1.000000 1.000000 1.000000
v 0.454520 1.052605 0.151507 1.000000 1.000000 1.000000 1.000000
v 0.454520 1.052605 0.151507 1.000000 1.000000 1.000000 1.000000
v 0.454520 1.052605 0.151507 1.000000 1.000000 1.000000 1.000000
v 0.454520 1.052605 0.151507 1.000000 1.000000 1.000000 1.000000
v 0.454520 1.052605 0.151507 1.000000 1.000000 1.000000 1.000000
v 0.151507 1.052605 0.454520 1.000000 1.000000 1.000000 1.000000
v 0.151507 1.052605 0.454520 1.000000 1.000000 1.000000 1.000000
v 0.151507 1.052605 0.454520 1.000000 1.000000 1.000000 1.000000
v 0.151507 1.052605 0.454520 1.000000 1.000000 1.000000 1.000000
v -0.151507 1.052605 0.454520 1.000000 1.000000 1.000000 1.000000
v -0.151507 1.052605 0.454520 1.000000 1.000000 1.000000 1.000000
v -0.151507 1.052605 0.454520 1.000000 1.000000 1.000000 1.000000
v -0.151507 1.052605 0.454520 1.000000 1.000000 1.000000 1.000000
v -0.151507 1.052605 0.454520 1.000000 1.000000 1.000000 1.000000
v -0.454520 1.052605 0.151507 1.000000 1.000000 1.000000 1.000000
v -0.454520 1.052605 0.151507 1.000000 1.000000 1.000000 1.000000
v -0.454520 1.052605 0.151507 1.000000 1.000000 1.000000 1.000000
v -0.454520 1.052605 0.151507 1.000000 1.000000 1.000000 1.000000
v -0.454520 1.052605 -0.151507 1.000000 1.000000 1.000000 1.000000
v -0.454520 1.052605 -0.151507 1.000000 1.000000 1.000000 1.000000
v -0.454520 1.052605 -0.151507 1.000000 1.000000 1.000000 1.000000
v -0.454520 1.052605 -0.151507 1.000000 1.000000 1.000000 1.000000
v -0.424309 0.042724 0.181717 1.000000 1.000000 1.000000 1.000000
v -0.424309 0.042724 0.181717 1.000000 1.000000 1.000000 1.000000
v -0.424309 0.042724 0.181717 1.000000 1.000000 1.000000 1.000000
v -0.181717 0.042724 0.424309 1.000000 1.000000 1.000000 1.000000
v -0.181717 0.042724 0.424309 1.000000 1.000000 1.000000 1.000000
v -0.181717 0.042724 0.424309 1.000000 1.000000 1.000000 1.000000
v -0.181717 0.042724 0.424309 1.000000 1.000000 1.000000 1.000000
v -0.181717 1.009881 0.424309 1.000000 1.000000 1.000000 1.000000
v -0.181717 1.009881 0.424309 1.000000 1.000000 1.000000 1.000000
v -0.181717 1.009881 0.424309 1.000000 1.000000 1.000000 1.000000
v -0.181717 1.009881 0.424309 1.000000 1.000000 1.000000 1.000000
v -0.424309 1.009881 0.181717 1.000000 1.000000 1.000000 1.000000
v -0.424309 1.009881 0.181717 1.000000 1.000000 1.000000 1.000000
v -0.424309 1.009881 0.181717 1.000000 1.000000 1.000000 1.000000
v 0.424309 0.042724 -0.181717 1.000000 1.000000 1.000000 1.000000
v 0.424309 0.042724 -0.181717 1.000000 1.000000 1.000000 1.000000
v 0.424309 0.042724 -0.181717 1.000000 1.000000 1.000000 1.000000
v 0.424309 0.042724 -0.181717 1.000000 1.000000 1.000000 1.000000
v 0.181717 0.042724 -0.424309 1.000000 1.000000 1.000000 1.000000
v 0.181717 0.042724 -0.424309 1.000000 1.000000 1.000000 1.000000
v 0.181717 0.042724 -0.424309 1.000000 1.000000 1.000000 1.000000
v 0.181717 1.009881 -0.424309 1.000000 1.000000 1.000000 1.000000
v 0.181717 1.009881 -0.424309 1.000000 1.000000 1.000000 1.000000
v 0.181717 1.009881 -0.424309 1.000000 1.000000 1.000000 1.000000
v 0.424309 1.009881 -0.181717 1.000000 1.000000 1.000000 1.000000
v 0.424309 1.009881 -0.181717 1.000000 1.000000 1.000000 1.000000
v 0.424309 1.009881 -0.181717 1.000000 1.000000 1.000000 1.000000
v 0.424309 1.009881 -0.181717 1.000000 1.000000 1.000000 1.000000
v -0.181717 0.042724 -0.424309 1.000000 1.000000 1.000000 1.000000
v -0.181717 0.042724 -0.424309 1.000000 1.000000 1.000000 1.000000
v -0.181717 0.042724 -0.424309 1.000000 1.000000 1.000000 1.000000
v -0.181717 0.042724 -0.424309 1.000000 1.000000 1.000000 1.000000
v -0.424309 0.042724 -0.181717 1.000000 1.000000 1.000000 1.000000
v -0.424309 0.042724 -0.181717 1.000000 1.000000 1.000000 1.000000
v -0.424309 0.042724 -0.181717 1.000000 1.000000 1.000000 1.000000
v -0.424309 1.009881 -0.181717 1.000000 1.000000 1.000000 1.000000
v -0.424309 1.009881 -0.181717 1.000000 1.000000 1.000000 1.000000
v -0.424309 1.009881 -0.181717 1.000000 1.000000 1.000000 1.000000
v -0.181717 1.009881 -0.424309 1.000000 1.000000 1.000000 1.000000
v -0.181717 1.009881 -0.424309 1.000000 1.000000 1.000000 1.000000
v -0.181717 1.009881 -0.424309 1.000000 1.000000 1.000000 1.000000
v -0.181717 1.009881 -0.424309 1.000000 1.000000 1.000000 1.000000
v 0.181717 0.042724 0.424309 1.000000 1.000000 1.000000 1.000000
v 0.181717 0.042724 0.424309 1.000000 1.000000 1.000000 1.000000
v 0.181717 0.042724 0.424309 1.000000 1.000000 1.000000 1.000000
v 0.424309 0.042724 0.181717 1.000000 1.000000 1.000000 1.000000
v 0.424309 0.042724 0.181717 1.000000 1.000000 1.000000 1.000000
v 0.424309 0.042724 0.181717 1.000000 1.000000 1.000000 1.000000
v 0.424309 0.042724 0.181717 1.000000 1.000000 1.000000 1.000000
v 0.424309 1.009881 0.181717 1.000000 1.000000 1.000000 1.000000
v 0.424309 1.009881 0.181717 1.000000 1.000000 1.000000 1.000000
v 0.424309 1.009881 0.181717 1.000000 1.000000 1.000000 1.000000
v 0.424309 1.009881 0.181717 1.000000 1.000000 1.000000 1.000000
v 0.181717 1.009881 0.424309 1.000000 1.000000 1.000000 1.000000
v 0.181717 1.009881 0.424309 1.000000 1.000000 1.000000 1.000000
v 0.181717 1.009881 0.424309 1.000000 1.000000 1.000000 1.000000
v -0.412411 0.042724 0.169819 1.000000 1.000000 1.000000 1.000000
v -0.412411 0.042724 0.169819 1.000000 1.000000 1.000000 1.000000
v -0.412411 0.042724 0.169819 1.000000 1.000000 1.000000 1.000000
v -0.169819 0.042724 0.412411 1.000000 1.000000 1.000000 1.000000
v -0.169819 0.042724 0.412411 1.000000 1.000000 1.000000 1.000000
v -0.169819 0.042724 0.412411 1.000000 1.000000 1.000000 1.000000
v -0.412411 1.009881 0.169819 1.000000 1.000000 1.000000 1.000000
v -0.412411 1.009881 0.169819 1.000000 1.000000 1.000000 1.000000
v -0.412411 1.009881 0.169819 1.000000 1.000000 1.000000 1.000000
v -0.169819 1.009881 0.412411 1.000000 1.000000 1.000000 1.000000
v -0.169819 1.009881 0.412411 1.000000 1.000000 1.000000 1.000000
v -0.169819 1.009881 0.412411 1.000000 1.000000 1.000000 1.000000
v 0.412411 0.042724 -0.169819 1.000000 1.000000 1.000000 1.000000
v 0.412411 0.042724 -0.169819 1.000000 1.000000 1.000000 1.000000
v 0.412411 0.042724 -0.169819 1.000000 1.000000 1.000000 1.000000
v 0.169819 0.042724 -0.412411 1.000000 1.000000 1.000000 1.000000
v 0.169819 0.042724 -0.412411 1.000000 1.000000 1.000000 1.000000
v 0.169819 0.042724 -0.412411 1.000000 1.000000 1.000000 1.000000
v 0.412411 1.009881 -0.169819 1.000000 1.000000 1.000000 1.000000
v 0.412411 1.009881 -0.169819 1.000000 1.000000 1.000000 1.000000
v 0.412411 1.009881 -0.169819 1.000000 1.000000 1.000000 1.000000
v 0.169819 1.009881 -0.412411 1.000000 1.000000 1.000000 1.000000
v 0.169819 1.009881 -0.412411 1.000000 1.000000 1.000000 1.000000
v 0.169819 1.009881 -0.412411 1.000000 1.000000 1.000000 1.000000
v -0.169819 0.042724 -0.412411 1.000000 1.000000 1.000000 1.000000
v -0.169819 0.042724 -0.412411 1.000000 1.000000 1.000000 1.000000
v -0.169819 0.042724 -0.412411 1.000000 1.000000 1.000000 1.000000
v -0.412411 0.042724 -0.169819 1.000000 1.000000 1.000000 1.000000
v -0.412411 0.042724 -0.169819 1.000000 1.000000 1.000000 1.000000
v -0.412411 0.042724 -0.169819 1.000000 1.000000 1.000000 1.000000
v -0.169819 1.009881 -0.412411 1.000000 1.000000 1.000000 1.000000
v -0.169819 1.009881 -0.412411 1.000000 1.000000 1.000000 1.000000
v -0.169819 1.009881 -0.412411 1.000000 1.000000 1.000000 1.000000
v -0.412411 1.009881 -0.169819 1.000000 1.000000 1.000000 1.000000
v -0.412411 1.009881 -0.169819 1.000000 1.000000 1.000000 1.000000
v -0.412411 1.009881 -0.169819 1.000000 1.000000 1.000000 1.000000
v 0.169819 0.042724 0.412411 1.000000 1.000000 1.000000 1.000000
v 0.169819 0.042724 0.412411 1.000000 1.000000 1.000000 1.000000
v 0.169819 0.042724 0.412411 1.000000 1.000000 1.000000 1.000000
v 0.412411 0.042724 0.169819 1.000000 1.000000 1.000000 1.000000
v 0.412411 0.042724 0.169819 1.000000 1.000000 1.000000 1.000000
v 0.412411 0.042724 0.169819 1.000000 1.000000 1.000000 1.000000
v 0.169819 1.009881 0.412411 1.000000 1.000000 1.000000 1.000000
v 0.169819 1.009881 0.412411 1.000000 1.000000 1.000000 1.000000
v 0.169819 1.009881 0.412411 1.000000 1.000000 1.000000 1.000000
v 0.412411 1.009881 0.169819 1.000000 1.000000 1.000000 1.000000
v 0.412411 1.009881 0.169819 1.000000 1.000000 1.000000 1.000000
v 0.412411 1.009881 0.169819 1.000000 1.000000 1.000000 1.000000
v 0.115739 1.050973 -0.354128 1.000000 1.000000 1.000000 1.000000
v 0.115739 1.050973 -0.354128 1.000000 1.000000 1.000000 1.000000
v 0.115739 1.050973 -0.354128 1.000000 1.000000 1.000000 1.000000
v 0.115739 1.050973 -0.354128 1.000000 1.000000 1.000000 1.000000
v -0.115739 1.050973 -0.354128 1.000000 1.000000 1.000000 1.000000
v -0.115739 1.050973 -0.354128 1.000000 1.000000 1.000000 1.000000
v -0.115739 1.050973 -0.354128 1.000000 1.000000 1.000000 1.000000
v -0.115739 1.050973 -0.354128 1.000000 1.000000 1.000000 1.000000
v -0.354128 1.050973 -0.115739 1.000000 1.000000 1.000000 1.000000
v -0.354128 1.050973 -0.115739 1.000000 1.000000 1.000000 1.000000
v -0.354128 1.050973 -0.115739 1.000000 1.000000 1.000000 1.000000
v -0.354128 1.050973 -0.115739 1.000000 1.000000 1.000000 1.000000
v -0.354128 1.050973 0.115739 1.000000 1.000000 1.000000 1.000000
v -0.354128 1.050973 0.115739 1.000000 1.000000 1.000000 1.000000
v -0.354128 1.050973 0.115739 1.000000 1.000000 1.000000 1.000000
v -0.354128 1.050973 0.115739 1.000000 1.000000 1.000000 1.000000
v -0.115739 1.050973 0.354128 1.000000 1.000000 1.000000 1.000000
v -0.115739 1.050973 0.354128 1.000000 1.000000 1.000000 1.000000
v -0.115739 1.050973 0.354128 1.000000 1.000000 1.000000 1.000000
v -0.115739 1.050973 0.354128 1.000000 1.000000 1.000000 1.000000
v 0.115739 1.050973 0.354128 1.000000 1.000000 1.000000 1.000000
v 0.115739 1.050973 0.354128 1.000000 1.000000 1.000000 1.000000
v 0.115739 1.050973 0.354128 1.000000 1.000000 1.000000 1.000000
v 0.115739 1.050973 0.354128 1.000000 1.000000 1.000000 1.000000
v 0.354128 1.050973 0.115739 1.000000 1.000000 1.000000 1.000000
v 0.354128 1.050973 0.115739 1.000000 1.000000 1.000000 1.000000
v 0.354128 1.050973 0.115739 1.000000 1.000000 1.000000 1.000000
v 0.354128 1.050973 0.115739 1.000000 1.000000 1.000000 1.000000
v 0.354128 1.050973 -0.115739 1.000000 1.000000 1.000000 1.000000
v 0.354128 1.050973 -0.115739 1.000000 1.000000 1.000000 1.000000
v 0.354128 1.050973 -0.115739 1.000000 1.000000 1.000000 1.000000
v 0.354128 1.050973 -0.115739 1.000000 1.000000 1.000000 1.000000
v 0.115739 1.033601 -0.354128 1.000000 1.000000 1.000000 1.000000
v 0.115739 1.033601 -0.354128 1.000000 1.000000 1.000000 1.000000
v 0.115739 1.033601 -0.354128 1.000000 1.000000 1.000000 1.000000
v -0.115739 1.033601 -0.354128 1.000000 1.000000 1.000000 1.000000
v -0.115739 1.033601 -0.354128 1.000000 1.000000 1.000000 1.000000
v -0.115739 1.033601 -0.354128 1.000000 1.000000 1.000000 1.000000
v 0.354128 1.033601 -0.115739 1.000000 1.000000 1.000000 1.000000
v 0.354128 1.033601 -0.115739 1.000000 1.000000 1.000000 1.000000
v 0.354128 1.033601 -0.115739 1.000000 1.000000 1.000000 1.000000
v -0.354128 1.033601 -0.115739 1.000000 1.000000 1.000000 1.000000
v -0.354128 1.033601 -0.115739 1.000000 1.000000 1.000000 1.000000
v -0.354128 1.033601 -0.115739 1.000000 1.000000 1.000000 1.000000
v -0.354128 1.033601 0.115739 1.000000 1.000000 1.000000 1.000000
v -0.354128 1.033601 0.115739 1.000000 1.000000 1.000000 1.000000
v -0.354128 1.033601 0.115739 1.000000 1.000000 1.000000 1.000000
v -0.115739 1.033601 0.354128 1.000000 1.000000 1.000000 1.000000
v -0.115739 1.033601 0.354128 1.000000 1.000000 1.000000 1.000000
v -0.115739 1.033601 0.354128 1.000000 1.000000 1.000000 1.000000
v 0.115739 1.033601 0.354128 1.000000 1.000000 1.000000 1.000000
v 0.115739 1.033601 0.354128 1.000000 1.000000 1.000000 1.000000
v 0.115739 1.033601 0.354128 1.000000 1.000000 1.000000 1.000000
v 0.354128 1.033601 0.115739 1.000000 1.000000 1.000000 1.000000
v 0.354128 1.033601 0.115739 1.000000 1.000000 1.000000 1.000000
v 0.354128 1.033601 0.115739 1.000000 1.000000 1.000000 1.000000
vt 0.672947 0.317647
vt 0.763106 0.158081
vt 0.672947 0.317647
vt 0.649067 0.565664
vt 0.718027 0.317647
vt 0.718027 0.317647
vt 0.723766 0.756132
vt 0.723766 0.756132
vt 0.678687 0.756132
vt 0.678687 0.756132
vt 0.694146 0.565664
vt 0.694146 0.565664
vt 0.718027 0.158081
vt 0.718027 0.158081
vt 0.633608 0.756132
vt 0.739226 0.565664
vt 0.739226 0.565664
vt 0.672947 0.158081
vt 0.768846 0.756132
vt 0.672947 0.158081
vt 0.761111 0.854730
vt 0.718027 0.001485
vt 0.761111 0.854730
vt 0.718027 0.001485
vt 0.672947 0.001485
vt 0.768846 0.599536
vt 0.672947 0.001485
vt 0.729235 0.886606
vt 0.729235 0.886606
vt 0.761111 0.790978
vt 0.761111 0.790978
vt 0.672947 0.161051
vt 0.763106 0.001485
vt 0.672947 0.161051
vt 0.729235 0.759102
vt 0.729235 0.759102
vt 0.649067 0.409068
vt 0.718027 0.161051
vt 0.718027 0.161051
vt 0.665484 0.759102
vt 0.694146 0.409068
vt 0.665484 0.759102
vt 0.694146 0.409068
vt 0.633608 0.599536
vt 0.739226 0.409068
vt 0.739226 0.409068
vt 0.633608 0.790978
vt 0.633608 0.790978
vt 0.678687 0.599536
vt 0.678687 0.599536
vt 0.633608 0.854730
vt 0.633608 0.854730
vt 0.723766 0.599536
vt 0.723766 0.599536
vt 0.665484 0.886606
vt 0.665484 0.886606
vt 0.674193 0.749776
vt 0.709892 0.371657
vt 0.787805 0.743420
vt 0.746690 0.552952
vt 0.638102 0.749776
vt 0.743720 0.559308
vt 0.709892 0.320617
vt 0.746690 0.409068
vt 0.638102 0.605892
vt 0.743720 0.415424
vt 0.723342 0.320617
vt 0.674193 0.605892
vt 0.723342 0.371657
vt 0.787805 0.599536
vt 0.789290 0.552952
vt 0.717869 0.320617
vt 0.668453 0.311291
vt 0.758611 0.151725
vt 0.717869 0.371657
vt 0.722521 0.151725
vt 0.771815 0.743420
vt 0.726312 0.371657
vt 0.722521 0.007841
vt 0.771815 0.599536
vt 0.789290 0.409068
vt 0.726312 0.320617
vt 0.668453 0.167407
vt 0.758611 0.007841
vt 0.668453 0.151725
vt 0.764351 0.749776
vt 0.763351 0.304935
vt 0.731785 0.371657
vt 0.728261 0.749776
vt 0.731785 0.320617
vt 0.776555 0.743420
vt 0.728261 0.605892
vt 0.701450 0.320617
vt 0.776555 0.599536
vt 0.668453 0.007841
vt 0.764351 0.605892
vt 0.763351 0.161051
vt 0.701450 0.371657
vt 0.739761 0.320617
vt 0.620691 0.571520
vt 0.689652 0.559308
vt 0.781295 0.743420
vt 0.739761 0.371657
vt 0.653561 0.559308
vt 0.722521 0.311291
vt 0.781295 0.599536
vt 0.704419 0.371657
vt 0.653561 0.415424
vt 0.722521 0.167407
vt 0.704419 0.320617
vt 0.620691 0.427636
vt 0.689652 0.415424
vt 0.784551 0.552952
vt 0.712396 0.371657
vt 0.786035 0.743420
vt 0.748460 0.552952
vt 0.748460 0.552952
vt 0.712396 0.320617
vt 0.784551 0.409068
vt 0.720839 0.371657
vt 0.786035 0.599536
vt 0.748460 0.409068
vt 0.748460 0.409068
vt 0.720839 0.320617
vt 0.787520 0.552952
vt 0.715366 0.320617
vt 0.802166 0.145369
vt 0.715366 0.371657
vt 0.766076 0.145369
vt 0.773586 0.743420
vt 0.787520 0.409068
vt 0.728815 0.320617
vt 0.802166 0.001485
vt 0.728815 0.371657
vt 0.766076 0.001485
vt 0.773586 0.599536
vt 0.761581 0.304935
vt 0.761581 0.304935
vt 0.734288 0.371657
vt 0.725491 0.304935
vt 0.734288 0.320617
vt 0.778325 0.743420
vt 0.761581 0.161051
vt 0.761581 0.161051
vt 0.698946 0.371657
vt 0.725491 0.161051
vt 0.698946 0.320617
vt 0.778325 0.599536
vt 0.737258 0.320617
vt 0.618921 0.571520
vt 0.802411 0.304935
vt 0.783065 0.743420
vt 0.737258 0.371657
vt 0.766321 0.304935
vt 0.706923 0.320617
vt 0.618921 0.427636
vt 0.802411 0.161051
vt 0.783065 0.599536
vt 0.706923 0.371657
vt 0.766321 0.161051
vt 0.792260 0.409068
vt 0.746788 0.847931
vt 0.693392 0.390519
vt 0.746788 0.847931
vt 0.693392 0.356082
vt 0.722437 0.872282
vt 0.722437 0.872282
vt 0.693392 0.356082
vt 0.672282 0.872282
vt 0.672282 0.872282
vt 0.693392 0.320617
vt 0.742731 0.355054
vt 0.647931 0.847931
vt 0.647931 0.847931
vt 0.687838 0.390519
vt 0.742731 0.320617
vt 0.687838 0.355054
vt 0.647931 0.797776
vt 0.647931 0.797776
vt 0.687838 0.355054
vt 0.792260 0.514435
vt 0.672282 0.773425
vt 0.687838 0.320617
vt 0.672282 0.773425
vt 0.792260 0.478970
vt 0.792260 0.478970
vt 0.722437 0.773425
vt 0.722437 0.773425
vt 0.792260 0.444533
vt 0.792260 0.444533
vt 0.746788 0.797776
vt 0.746788 0.797776
vt 0.794845 0.409068
vt 0.695977 0.390519
vt 0.862938 0.833608
vt 0.695977 0.356082
vt 0.838587 0.857958
vt 0.695977 0.356082
vt 0.794845 0.444533
vt 0.794845 0.444533
vt 0.862938 0.783452
vt 0.788432 0.857958
vt 0.695977 0.320617
vt 0.745315 0.355054
vt 0.764081 0.833608
vt 0.690423 0.390519
vt 0.745315 0.320617
vt 0.690423 0.355054
vt 0.764081 0.783452
vt 0.690423 0.355054
vt 0.794845 0.514435
vt 0.690423 0.320617
vt 0.788432 0.759102
vt 0.794845 0.478970
vt 0.794845 0.478970
vt 0.838587 0.759102
vn 0.707107 0.000000 -0.707107
vn 0.707107 0.000000 -0.707107
vn 1.000000 0.000000 0.000000
vn 0.707107 0.000000 0.707107
vn 0.707107 0.000000 0.707107
vn 1.000000 0.000000 0.000000
vn -1.000000 0.000000 0.000000
vn -0.707107 0.000000 -0.707107
vn -1.000000 0.000000 0.000000
vn -0.707107 0.000000 0.707107
vn 0.000000 0.000000 1.000000
vn 0.707107 0.000000 0.707107
vn 0.000000 0.000000 -1.000000
vn 0.707107 0.000000 -0.707107
vn -0.707107 0.000000 0.707107
vn -0.707107 0.000000 0.707107
vn 0.000000 0.000000 1.000000
vn -0.707107 0.000000 -0.707107
vn -0.707107 0.000000 -0.707107
vn 0.000000 0.000000 -1.000000
vn -0.011999 0.999856 0.011999
vn 0.000000 0.000000 -1.000000
vn 0.000000 0.999867 0.016299
vn 0.707107 0.000000 -0.707107
vn -0.707107 0.000000 -0.707107
vn -0.707107 0.000000 -0.707107
vn 0.000000 0.000000 -1.000000
vn 0.000000 0.999867 0.016299
vn 0.011999 0.999856 0.011999
vn -0.016299 0.999867 0.000000
vn -0.011999 0.999856 0.011999
vn 0.707107 0.000000 -0.707107
vn 0.707107 0.000000 -0.707107
vn 1.000000 0.000000 0.000000
vn -0.016299 0.999867 0.000000
vn -0.011999 0.999856 -0.011999
vn 0.707107 0.000000 0.707107
vn 0.707107 0.000000 0.707107
vn 1.000000 0.000000 0.000000
vn -0.011999 0.999856 -0.011999
vn 0.000000 0.000000 1.000000
vn 0.000000 0.999867 -0.016299
vn 0.707107 0.000000 0.707107
vn -0.707107 0.000000 0.707107
vn -0.707107 0.000000 0.707107
vn 0.000000 0.000000 1.000000
vn 0.000000 0.999867 -0.016299
vn 0.011999 0.999856 -0.011999
vn -1.000000 0.000000 0.000000
vn -0.707107 0.000000 0.707107
vn 0.011999 0.999856 -0.011999
vn 0.016299 0.999867 0.000000
vn -1.000000 0.000000 0.000000
vn -0.707107 0.000000 -0.707107
vn 0.011999 0.999856 0.011999
vn 0.016299 0.999867 0.000000
vn -0.707107 0.000000 0.707107
vn 0.000000 1.000000 0.000000
vn 0.707107 0.000000 0.707107
vn -0.707107 0.000000 -0.707107
vn -0.707107 0.000000 0.707107
vn -0.707107 0.000000 0.707107
vn 0.000000 1.000000 0.000000
vn -0.707107 0.000000 -0.707107
vn -0.707107 0.000000 0.707107
vn -0.707107 0.000000 0.707107
vn -0.000000 -1.000000 -0.000000
vn -0.707107 0.000000 0.707107
vn 0.000000 -1.000000 0.000000
vn 0.707107 0.000000 0.707107
vn -0.707107 0.000000 -0.707107
vn 0.000000 1.000000 0.000000
vn 0.707107 0.000000 -0.707107
vn 0.707107 0.000000 -0.707107
vn 0.000000 1.000000 0.000000
vn 0.707107 0.000000 -0.707107
vn 0.707107 0.000000 0.707107
vn -0.000000 -1.000000 -0.000000
vn 0.707107 0.000000 -0.707107
vn 0.707107 0.000000 0.707107
vn -0.707107 0.000000 -0.707107
vn -0.000000 -1.000000 -0.000000
vn 0.707107 0.000000 -0.707107
vn 0.707107 0.000000 -0.707107
vn -0.707107 0.000000 -0.707107
vn -0.707107 0.000000 -0.707107
vn -0.707107 0.000000 0.707107
vn 0.000000 1.000000 0.000000
vn -0.707107 -0.000000 -0.707107
vn 0.000000 1.000000 0.000000
vn 0.707107 0.000000 -0.707107
vn -0.707107 0.000000 -0.707107
vn 0.000000 -1.000000 0.000000
vn 0.707107 0.000000 -0.707107
vn -0.707107 0.000000 -0.707107
vn -0.707107 0.000000 -0.707107
vn -0.707107 0.000000 0.707107
vn 0.000000 -1.000000 0.000000
vn 0.000000 1.000000 0.000000
vn 0.707107 0.000000 -0.707107
vn 0.707107 0.000000 0.707107
vn -0.707107 0.000000 0.707107
vn 0.000000 1.000000 0.000000
vn 0.707107 0.000000 0.707107
vn 0.707107 0.000000 0.707107
vn -0.707107 0.000000 0.707107
vn -0.000000 -1.000000 -0.000000
vn 0.707107 0.000000 0.707107
vn 0.707107 0.000000 0.707107
vn -0.000000 -1.000000 -0.000000
vn 0.707107 0.000000 -0.707107
vn 0.707107 0.000000 0.707107
vn -0.707107 0.000000 0.707107
vn 0.000000 1.000000 0.000000
vn 0.707107 0.000000 0.707107
vn -0.707107 0.000000 -0.707107
vn -0.707107 0.000000 0.707107
vn 0.000000 1.000000 0.000000
vn -0.707107 0.000000 0.707107
vn 0.000000 -1.000000 0.000000
vn 0.707107 0.000000 0.707107
vn -0.707107 0.000000 -0.707107
vn -0.707107 0.000000 0.707107
vn -0.000000 -1.000000 -0.000000
vn -0.707107 0.000000 -0.707107
vn 0.000000 1.000000 0.000000
vn 0.707107 0.000000 -0.707107
vn 0.000000 1.000000 0.000000
vn 0.707107 0.000000 -0.707107
vn 0.707107 0.000000 0.707107
vn -0.707107 0.000000 -0.707107
vn 0.000000 -1.000000 0.000000
vn 0.707107 0.000000 -0.707107
vn 0.000000 -1.000000 0.000000
vn 0.707107 0.000000 -0.707107
vn 0.707107 0.000000 0.707107
vn -0.707107 0.000000 -0.707107
vn -0.707107 0.000000 0.707107
vn 0.000000 1.000000 0.000000
vn -0.707107 0.000000 -0.707107
vn 0.000000 1.000000 0.000000
vn 0.707107 0.000000 -0.707107
vn -0.707107 0.000000 -0.707107
vn -0.707107 0.000000 0.707107
vn 0.000000 -1.000000 0.000000
vn -0.707107 0.000000 -0.707107
vn 0.000000 -1.000000 0.000000
vn 0.707107 0.000000 -0.707107
vn 0.000000 1.000000 0.000000
vn 0.707107 0.000000 -0.707107
vn 0.707107 0.000000 0.707107
vn -0.707107 0.000000 0.707107
vn 0.000000 1.000000 0.000000
vn 0.707107 0.000000 0.707107
vn 0.000000 -1.000000 0.000000
vn 0.707107 0.000000 -0.707107
vn 0.707107 0.000000 0.707107
vn -0.707107 0.000000 0.707107
vn 0.000000 -1.000000 0.000000
vn 0.707107 0.000000 0.707107
vn -0.707107 0.000000 0.707107
vn -0.011999 0.999856 0.011999
vn 0.000000 0.000000 1.000000
vn 0.000000 0.999867 0.016299
vn 0.000000 0.000000 1.000000
vn 0.000000 0.999867 0.016299
vn 0.011999 0.999856 0.011999
vn 0.707107 0.000000 0.707107
vn 0.011999 0.999856 0.011999
vn 0.016299 0.999867 0.000000
vn 0.707107 0.000000 0.707107
vn 1.000000 0.000000 0.000000
vn 0.011999 0.999856 -0.011999
vn 0.016299 0.999867 0.000000
vn 0.707107 0.000000 -0.707107
vn 1.000000 0.000000 0.000000
vn 0.000000 0.000000 -1.000000
vn 0.000000 0.999867 -0.016299
vn 0.011999 0.999856 -0.011999
vn 0.707107 0.000000 -0.707107
vn -0.707107 0.000000 -0.707107
vn -0.011999 0.999856 -0.011999
vn 0.000000 0.000000 -1.000000
vn 0.000000 0.999867 -0.016299
vn -1.000000 0.000000 0.000000
vn -0.707107 0.000000 -0.707107
vn -0.016299 0.999867 0.000000
vn -0.011999 0.999856 -0.011999
vn -1.000000 0.000000 0.000000
vn -0.707107 0.000000 0.707107
vn -0.016299 0.999867 0.000000
vn -0.011999 0.999856 0.011999
vn -0.707107 0.000000 0.707107
vn 0.000000 0.000000 1.000000
vn 0.000000 1.000000 0.000000
vn 0.000000 0.000000 1.000000
vn 0.000000 1.000000 0.000000
vn 0.707107 0.000000 0.707107
vn -1.000000 0.000000 0.000000
vn -0.707107 0.000000 0.707107
vn 0.000000 1.000000 0.000000
vn 0.000000 1.000000 0.000000
vn 0.707107 0.000000 0.707107
vn 1.000000 0.000000 0.000000
vn 0.000000 1.000000 0.000000
vn 0.707107 0.000000 -0.707107
vn 1.000000 0.000000 0.000000
vn 0.000000 0.000000 -1.000000
vn 0.000000 1.000000 0.000000
vn 0.707107 0.000000 -0.707107
vn -0.707107 0.000000 -0.707107
vn 0.000000 0.000000 -1.000000
vn 0.000000 1.000000 0.000000
vn -1.000000 0.000000 0.000000
vn -0.707107 0.000000 -0.707107
vn 0.000000 1.000000 0.000000
f 67/67/67 69/69/69 120/120/120
f 67/67/67 120/120/120 124/124/124
f 111/111/111 100/100/100 150/150/150
f 111/111/111 150/150/150 156/156/156
f 77/77/77 80/80/80 136/136/136
f 77/77/77 136/136/136 130/130/130
f 97/97/97 87/87/87 138/138/138
f 97/97/97 138/138/138 144/144/144
f 17/17/17 11/11/11 41/41/41
f 17/17/17 41/41/41 46/46/46
f 13/13/13 20/20/20 27/27/27
f 13/13/13 27/27/27 22/22/22
f 7/7/7 9/9/9 49/49/49
f 7/7/7 49/49/49 53/53/53
f 6/6/6 3/3/3 34/34/34
f 6/6/6 34/34/34 39/39/39
f 177/177/177 183/183/183 212/212/212
f 177/177/177 212/212/212 208/208/208
f 10/10/10 15/15/15 61/61/61
f 10/10/10 61/61/61 57/57/57
f 16/16/16 45/45/45 66/66/66
f 16/16/16 66/66/66 62/62/62
f 44/44/44 50/50/50 68/68/68
f 44/44/44 68/68/68 65/65/65
f 50/50/50 10/10/10 57/57/57
f 50/50/50 57/57/57 68/68/68
f 2/2/2 14/14/14 76/76/76
f 2/2/2 76/76/76 74/74/74
f 14/14/14 24/24/24 79/79/79
f 14/14/14 79/79/79 76/76/76
f 24/24/24 33/33/33 84/84/84
f 24/24/24 84/84/84 79/79/79
f 32/32/32 1/1/1 73/73/73
f 32/32/32 73/73/73 83/83/83
f 19/19/19 8/8/8 89/89/89
f 19/19/19 89/89/89 86/86/86
f 8/8/8 54/54/54 92/92/92
f 8/8/8 92/92/92 89/89/89
f 54/54/54 26/26/26 96/96/96
f 54/54/54 96/96/96 92/92/92
f 25/25/25 18/18/18 85/85/85
f 25/25/25 85/85/85 95/95/95
f 12/12/12 4/4/4 104/104/104
f 12/12/12 104/104/104 101/101/101
f 5/5/5 38/38/38 109/109/109
f 5/5/5 109/109/109 105/105/105
f 37/37/37 43/43/43 112/112/112
f 37/37/37 112/112/112 108/108/108
f 43/43/43 12/12/12 101/101/101
f 43/43/43 101/101/101 112/112/112
f 113/113/113 117/117/117 123/123/123
f 113/113/113 123/123/123 119/119/119
f 127/127/127 129/129/129 135/135/135
f 127/127/127 135/135/135 133/133/133
f 137/137/137 140/140/140 146/146/146
f 137/137/137 146/146/146 143/143/143
f 151/151/151 154/154/154 160/160/160
f 151/151/151 160/160/160 157/157/157
f 91/91/91 94/94/94 148/148/148
f 91/91/91 148/148/148 142/142/142
f 78/78/78 82/82/82 132/132/132
f 78/78/78 132/132/132 134/134/134
f 102/102/102 106/106/106 158/158/158
f 102/102/102 158/158/158 152/152/152
f 93/93/93 98/98/98 145/145/145
f 93/93/93 145/145/145 147/147/147
f 107/107/107 110/110/110 155/155/155
f 107/107/107 155/155/155 159/159/159
f 58/58/58 63/63/63 118/118/118
f 58/58/58 118/118/118 114/114/114
f 72/72/72 75/75/75 128/128/128
f 72/72/72 128/128/128 126/126/126
f 70/70/70 59/59/59 115/115/115
f 70/70/70 115/115/115 121/121/121
f 88/88/88 90/90/90 141/141/141
f 88/88/88 141/141/141 139/139/139
f 81/81/81 71/71/71 125/125/125
f 81/81/81 125/125/125 131/131/131
f 99/99/99 103/103/103 153/153/153
f 99/99/99 153/153/153 149/149/149
f 60/60/60 64/64/64 122/122/122
f 60/60/60 122/122/122 116/116/116
f 23/23/23 28/28/28 166/166/166
f 23/23/23 166/166/166 164/164/164
f 29/29/29 55/55/55 169/169/169
f 29/29/29 169/169/169 167/167/167
f 56/56/56 52/52/52 174/174/174
f 56/56/56 174/174/174 170/170/170
f 51/51/51 48/48/48 179/179/179
f 51/51/51 179/179/179 173/173/173
f 47/47/47 42/42/42 184/184/184
f 47/47/47 184/184/184 178/178/178
f 40/40/40 36/36/36 188/188/188
f 40/40/40 188/188/188 182/182/182
f 35/35/35 30/30/30 191/191/191
f 35/35/35 191/191/191 187/187/187
f 31/31/31 21/21/21 162/162/162
f 31/31/31 162/162/162 192/192/192
f 201/201/201 195/195/195 197/197/197
f 197/197/197 202/202/202 205/205/205
f 205/205/205 209/209/209 213/213/213
f 213/213/213 216/216/216 201/201/201
f 201/201/201 197/197/197 205/205/205
f 205/205/205 213/213/213 201/201/201
f 172/172/172 176/176/176 207/207/207
f 172/172/172 207/207/207 204/204/204
f 190/190/190 161/161/161 193/193/193
f 190/190/190 193/193/193 200/200/200
f 181/181/181 186/186/186 215/215/215
f 181/181/181 215/215/215 211/211/211
f 175/175/175 180/180/180 210/210/210
f 175/175/175 210/210/210 206/206/206
f 168/168/168 171/171/171 203/203/203
f 168/168/168 203/203/203 198/198/198
f 163/163/163 165/165/165 196/196/196
f 163/163/163 196/196/196 194/194/194
f 185/185/185 189/189/189 199/199/199
f 185/185/185 199/199/199 214/214/214
