# generated by the editor's model importer
v 4.729435 0.357651 -0.560292 1.000000 1.000000 1.000000 1.000000
v 4.819767 0.440001 0.393863 1.000000 1.000000 1.000000 1.000000
v 4.400508 0.243093 0.553278 1.000000 1.000000 1.000000 1.000000
v 3.967935 0.000000 -0.270715 1.000000 1.000000 1.000000 1.000000
v 3.694605 0.589378 -0.262448 1.000000 1.000000 1.000000 1.000000
v 4.169232 0.741796 0.560292 1.000000 1.000000 1.000000 1.000000
v 4.588491 0.938707 0.400877 1.000000 1.000000 1.000000 1.000000
v 4.456115 0.947031 -0.551996 1.000000 1.000000 1.000000 1.000000
v -3.694605 0.589378 -0.262448 1.000000 1.000000 1.000000 1.000000
v -4.456115 0.947031 -0.551996 1.000000 1.000000 1.000000 1.000000
v -4.588491 0.938707 0.400877 1.000000 1.000000 1.000000 1.000000
v -4.169232 0.741796 0.560292 1.000000 1.000000 1.000000 1.000000
v -4.729435 0.357651 -0.560292 1.000000 1.000000 1.000000 1.000000
v -3.967935 0.000000 -0.270715 1.000000 1.000000 1.000000 1.000000
v -4.400508 0.243093 0.553278 1.000000 1.000000 1.000000 1.000000
v -4.819767 0.440001 0.393863 1.000000 1.000000 1.000000 1.000000
vt 0.591800 0.396500
vt 0.584000 0.353500
vt 0.560500 0.353500
vt 0.548800 0.396500
vt 0.548800 0.396500
vt 0.560500 0.353500
vt 0.584000 0.353500
vt 0.591800 0.396500
vt 0.548800 0.396500
vt 0.591800 0.396500
vt 0.584000 0.353500
vt 0.560500 0.353500
vt 0.591800 0.396500
vt 0.548800 0.396500
vt 0.560500 0.353500
vt 0.584000 0.353500
vn 0.436087 -0.899172 0.036299
vn 0.436087 -0.899172 0.036299
vn 0.436087 -0.899172 0.036299
vn 0.436087 -0.899172 0.036299
vn -0.404208 0.912418 0.064101
vn -0.404208 0.912418 0.064101
vn -0.404208 0.912418 0.064101
vn -0.404208 0.912418 0.064101
vn 0.404208 0.912418 0.064101
vn 0.404208 0.912418 0.064101
vn 0.404208 0.912418 0.064101
vn 0.404208 0.912418 0.064101
vn -0.436087 -0.899172 0.036299
vn -0.436087 -0.899172 0.036299
vn -0.436087 -0.899172 0.036299
vn -0.436087 -0.899172 0.036299
f 1/1/1 2/2/2 3/3/3
f 1/1/1 3/3/3 4/4/4
f 5/5/5 6/6/6 7/7/7
f 5/5/5 7/7/7 8/8/8
f 9/9/9 10/10/10 11/11/11
f 9/9/9 11/11/11 12/12/12
f 13/13/13 14/14/14 15/15/15
f 13/13/13 15/15/15 16/16/16
