# generated by the editor's model importer
v 4.917054 1.693952 -0.063462 1.000000 1.000000 1.000000 1.000000
v 5.507434 1.971231 -0.287959 1.000000 1.000000 1.000000 1.000000
v 5.029210 3.005494 -0.269331 1.000000 1.000000 1.000000 1.000000
v 4.438825 2.728215 -0.044850 1.000000 1.000000 1.000000 1.000000
v 4.917054 1.693952 -0.063462 1.000000 1.000000 1.000000 1.000000
v 5.927156 0.000000 0.287959 1.000000 1.000000 1.000000 1.000000
v 6.389187 0.217002 0.112307 1.000000 1.000000 1.000000 1.000000
v 5.507434 1.971231 -0.287959 1.000000 1.000000 1.000000 1.000000
v -4.917054 1.693952 -0.063462 1.000000 1.000000 1.000000 1.000000
v -4.438825 2.728215 -0.044850 1.000000 1.000000 1.000000 1.000000
v -5.029210 3.005494 -0.269331 1.000000 1.000000 1.000000 1.000000
v -5.507434 1.971231 -0.287959 1.000000 1.000000 1.000000 1.000000
v -4.917054 1.693952 -0.063462 1.000000 1.000000 1.000000 1.000000
v -5.507434 1.971231 -0.287959 1.000000 1.000000 1.000000 1.000000
v -6.389187 0.217002 0.112307 1.000000 1.000000 1.000000 1.000000
v -5.927156 0.000000 0.287959 1.000000 1.000000 1.000000 1.000000
vt 0.955100 0.853500
vt 0.982400 0.853500
vt 0.982400 0.896500
vt 0.955100 0.896500
vt 0.955100 0.853500
vt 0.959000 0.775400
vt 0.978500 0.775400
vt 0.982400 0.853500
vt 0.955100 0.853500
vt 0.955100 0.896500
vt 0.982400 0.896500
vt 0.982400 0.853500
vt 0.955100 0.853500
vt 0.982400 0.853500
vt 0.978500 0.775400
vt 0.959000 0.775400
vn 0.301907 0.122603 0.945421
vn 0.301907 0.122603 0.945421
vn 0.301907 0.122603 0.945421
vn 0.301907 0.122603 0.945421
vn 0.204807 0.314410 0.926931
vn 0.204807 0.314410 0.926931
vn 0.204807 0.314410 0.926931
vn 0.204807 0.314410 0.926931
vn -0.301907 0.122603 0.945421
vn -0.301907 0.122603 0.945421
vn -0.301907 0.122603 0.945421
vn -0.301907 0.122603 0.945421
vn -0.204807 0.314410 0.926931
vn -0.204807 0.314410 0.926931
vn -0.204807 0.314410 0.926931
vn -0.204807 0.314410 0.926931
f 1/1/1 2/2/2 3/3/3
f 1/1/1 3/3/3 4/4/4
f 5/5/5 6/6/6 7/7/7
f 5/5/5 7/7/7 8/8/8
f 9/9/9 10/10/10 11/11/11
f 9/9/9 11/11/11 12/12/12
f 13/13/13 14/14/14 15/15/15
f 13/13/13 15/15/15 16/16/16
