# generated by the editor's model importer
v 292.552307 0.000000 -59.414536 1.000000 1.000000 1.000000 1.000000
v -137.652557 389.199951 -275.858978 1.000000 1.000000 1.000000 1.000000
v -224.205048 507.957153 -139.479401 1.000000 1.000000 1.000000 1.000000
v 275.645874 64.617554 156.540894 1.000000 1.000000 1.000000 1.000000
v -292.552277 398.264038 10.243988 1.000000 1.000000 1.000000 1.000000
v 91.546509 18.146118 275.859009 1.000000 1.000000 1.000000 1.000000
vt 0.500100 0.683694
vt 0.500100 0.562600
vt 0.554788 0.562600
vt 0.554788 0.683694
vt 0.609475 0.562600
vt 0.609475 0.683694
vn 0.704706 0.692878 -0.152674
vn 0.704623 0.692295 -0.155671
vn 0.544160 0.794393 0.269869
vn 0.544023 0.792894 0.274514
vn 0.255278 0.718447 0.647045
vn 0.247608 0.710517 0.658677
f 1/1/1 2/2/2 3/3/3
f 3/3/3 4/4/4 1/1/1
f 5/5/5 4/4/4 3/3/3
f 4/4/4 5/5/5 6/6/6
