# generated by the editor's model importer
v 4.606400 0.367554 -0.578609 1.000000 1.000000 1.000000 1.000000
v 4.086221 0.280817 -0.934649 1.000000 1.000000 1.000000 1.000000
v 3.175974 2.651590 -0.563600 1.000000 1.000000 1.000000 1.000000
v 3.175974 2.651590 -0.563600 1.000000 1.000000 1.000000 1.000000
v 4.086221 0.280817 -0.934649 1.000000 1.000000 1.000000 1.000000
v 3.794343 0.033260 -0.435057 1.000000 1.000000 1.000000 1.000000
v 4.606400 0.367554 -0.578609 1.000000 1.000000 1.000000 1.000000
v 4.018579 2.814438 -0.065463 1.000000 1.000000 1.000000 1.000000
v 4.588859 0.221609 -0.087692 1.000000 1.000000 1.000000 1.000000
v 4.018579 2.814438 -0.065463 1.000000 1.000000 1.000000 1.000000
v 4.606400 0.367554 -0.578609 1.000000 1.000000 1.000000 1.000000
v 3.175974 2.651590 -0.563600 1.000000 1.000000 1.000000 1.000000
v 2.659070 2.254778 0.174900 1.000000 1.000000 1.000000 1.000000
v 3.794343 0.033260 -0.435057 1.000000 1.000000 1.000000 1.000000
v 4.050535 0.000000 0.007470 1.000000 1.000000 1.000000 1.000000
v 2.659070 2.254778 0.174900 1.000000 1.000000 1.000000 1.000000
v 3.175974 2.651590 -0.563600 1.000000 1.000000 1.000000 1.000000
v 3.794343 0.033260 -0.435057 1.000000 1.000000 1.000000 1.000000
v 4.018579 2.814438 -0.065463 1.000000 1.000000 1.000000 1.000000
v 3.995041 2.566931 0.774966 1.000000 1.000000 1.000000 1.000000
v 4.588859 0.221609 -0.087692 1.000000 1.000000 1.000000 1.000000
v 3.091743 2.195078 0.934649 1.000000 1.000000 1.000000 1.000000
v 2.659070 2.254778 0.174900 1.000000 1.000000 1.000000 1.000000
v 4.050535 0.000000 0.007470 1.000000 1.000000 1.000000 1.000000
v -3.175974 2.651590 -0.563600 1.000000 1.000000 1.000000 1.000000
v -3.794343 0.033260 -0.435057 1.000000 1.000000 1.000000 1.000000
v -4.086221 0.280817 -0.934649 1.000000 1.000000 1.000000 1.000000
v -4.606400 0.367554 -0.578609 1.000000 1.000000 1.000000 1.000000
v -3.175974 2.651590 -0.563600 1.000000 1.000000 1.000000 1.000000
v -4.086221 0.280817 -0.934649 1.000000 1.000000 1.000000 1.000000
v -2.659070 2.254778 0.174900 1.000000 1.000000 1.000000 1.000000
v -3.794343 0.033260 -0.435057 1.000000 1.000000 1.000000 1.000000
v -3.175974 2.651590 -0.563600 1.000000 1.000000 1.000000 1.000000
v -4.018579 2.814438 -0.065463 1.000000 1.000000 1.000000 1.000000
v -3.175974 2.651590 -0.563600 1.000000 1.000000 1.000000 1.000000
v -4.606400 0.367554 -0.578609 1.000000 1.000000 1.000000 1.000000
v -2.659070 2.254778 0.174900 1.000000 1.000000 1.000000 1.000000
v -4.050535 0.000000 0.007470 1.000000 1.000000 1.000000 1.000000
v -3.794343 0.033260 -0.435057 1.000000 1.000000 1.000000 1.000000
v -4.606400 0.367554 -0.578609 1.000000 1.000000 1.000000 1.000000
v -4.588859 0.221609 -0.087692 1.000000 1.000000 1.000000 1.000000
v -4.018579 2.814438 -0.065463 1.000000 1.000000 1.000000 1.000000
v -3.091743 2.195078 0.934649 1.000000 1.000000 1.000000 1.000000
v -4.050535 0.000000 0.007470 1.000000 1.000000 1.000000 1.000000
v -2.659070 2.254778 0.174900 1.000000 1.000000 1.000000 1.000000
v -4.018579 2.814438 -0.065463 1.000000 1.000000 1.000000 1.000000
v -4.588859 0.221609 -0.087692 1.000000 1.000000 1.000000 1.000000
v -3.995041 2.566931 0.774966 1.000000 1.000000 1.000000 1.000000
vt 0.252000 0.400400
vt 0.267600 0.400400
vt 0.279300 0.498000
vt 0.279300 0.498000
vt 0.267600 0.400400
vt 0.252000 0.400400
vt 0.252000 0.400400
vt 0.255900 0.498000
vt 0.228500 0.400400
vt 0.255900 0.498000
vt 0.252000 0.400400
vt 0.279300 0.498000
vt 0.255900 0.498000
vt 0.252000 0.400400
vt 0.228500 0.400400
vt 0.255900 0.498000
vt 0.279300 0.498000
vt 0.252000 0.400400
vt 0.255900 0.498000
vt 0.220700 0.498000
vt 0.228500 0.400400
vt 0.220700 0.498000
vt 0.255900 0.498000
vt 0.228500 0.400400
vt 0.279300 0.498000
vt 0.252000 0.400400
vt 0.267600 0.400400
vt 0.252000 0.400400
vt 0.279300 0.498000
vt 0.267600 0.400400
vt 0.255900 0.498000
vt 0.252000 0.400400
vt 0.279300 0.498000
vt 0.255900 0.498000
vt 0.279300 0.498000
vt 0.252000 0.400400
vt 0.255900 0.498000
vt 0.228500 0.400400
vt 0.252000 0.400400
vt 0.252000 0.400400
vt 0.228500 0.400400
vt 0.255900 0.498000
vt 0.220700 0.498000
vt 0.228500 0.400400
vt 0.255900 0.498000
vt 0.255900 0.498000
vt 0.228500 0.400400
vt 0.220700 0.498000
vn 0.498911 0.317707 -0.806318
vn 0.498911 0.317707 -0.806318
vn 0.498911 0.317707 -0.806318
vn -0.792959 -0.215289 -0.569971
vn -0.792959 -0.215289 -0.569971
vn -0.792959 -0.215289 -0.569971
vn 0.972124 0.213005 0.098002
vn 0.972124 0.213005 0.098002
vn 0.972124 0.213005 0.098002
vn 0.446400 0.285100 -0.848201
vn 0.446400 0.285100 -0.848201
vn 0.446400 0.285100 -0.848201
vn -0.764410 -0.501807 0.404805
vn -0.764410 -0.501807 0.404805
vn -0.764410 -0.501807 0.404805
vn -0.745674 -0.207193 -0.633278
vn -0.745674 -0.207193 -0.633278
vn -0.745674 -0.207193 -0.633278
vn 0.972857 0.213191 0.089996
vn 0.972857 0.213191 0.089996
vn 0.972857 0.213191 0.089996
vn -0.767393 -0.503095 0.397496
vn -0.767393 -0.503095 0.397496
vn -0.767393 -0.503095 0.397496
vn 0.792959 -0.215289 -0.569971
vn 0.792959 -0.215289 -0.569971
vn 0.792959 -0.215289 -0.569971
vn -0.498911 0.317707 -0.806318
vn -0.498911 0.317707 -0.806318
vn -0.498911 0.317707 -0.806318
vn 0.745674 -0.207193 -0.633278
vn 0.745674 -0.207193 -0.633278
vn 0.745674 -0.207193 -0.633278
vn -0.446400 0.285100 -0.848201
vn -0.446400 0.285100 -0.848201
vn -0.446400 0.285100 -0.848201
vn 0.764410 -0.501807 0.404805
vn 0.764410 -0.501807 0.404805
vn 0.764410 -0.501807 0.404805
vn -0.972124 0.213005 0.098002
vn -0.972124 0.213005 0.098002
vn -0.972124 0.213005 0.098002
vn 0.767393 -0.503095 0.397496
vn 0.767393 -0.503095 0.397496
vn 0.767393 -0.503095 0.397496
vn -0.972857 0.213191 0.089996
vn -0.972857 0.213191 0.089996
vn -0.972857 0.213191 0.089996
f 1/1/1 2/2/2 3/3/3
f 4/4/4 5/5/5 6/6/6
f 7/7/7 8/8/8 9/9/9
f 10/10/10 11/11/11 12/12/12
f 13/13/13 14/14/14 15/15/15
f 16/16/16 17/17/17 18/18/18
f 19/19/19 20/20/20 21/21/21
f 22/22/22 23/23/23 24/24/24
f 25/25/25 26/26/26 27/27/27
f 28/28/28 29/29/29 30/30/30
f 31/31/31 32/32/32 33/33/33
f 34/34/34 35/35/35 36/36/36
f 37/37/37 38/38/38 39/39/39
f 40/40/40 41/41/41 42/42/42
f 43/43/43 44/44/44 45/45/45
f 46/46/46 47/47/47 48/48/48
