# generated by tools/editor_import_glb.py
v 1.000000 2.000000 -1.000000 0.800000 0.800000 0.800000 1.000000
v 1.000000 2.000000 -1.000000 0.800000 0.800000 0.800000 1.000000
v 1.000000 2.000000 -1.000000 0.800000 0.800000 0.800000 1.000000
v 1.000000 0.000000 -1.000000 0.800000 0.800000 0.800000 1.000000
v 1.000000 0.000000 -1.000000 0.800000 0.800000 0.800000 1.000000
v 1.000000 0.000000 -1.000000 0.800000 0.800000 0.800000 1.000000
v 1.000000 2.000000 1.000000 0.800000 0.800000 0.800000 1.000000
v 1.000000 2.000000 1.000000 0.800000 0.800000 0.800000 1.000000
v 1.000000 2.000000 1.000000 0.800000 0.800000 0.800000 1.000000
v 1.000000 0.000000 1.000000 0.800000 0.800000 0.800000 1.000000
v 1.000000 0.000000 1.000000 0.800000 0.800000 0.800000 1.000000
v 1.000000 0.000000 1.000000 0.800000 0.800000 0.800000 1.000000
v -1.000000 2.000000 -1.000000 0.800000 0.800000 0.800000 1.000000
v -1.000000 2.000000 -1.000000 0.800000 0.800000 0.800000 1.000000
v -1.000000 2.000000 -1.000000 0.800000 0.800000 0.800000 1.000000
v -1.000000 0.000000 -1.000000 0.800000 0.800000 0.800000 1.000000
v -1.000000 0.000000 -1.000000 0.800000 0.800000 0.800000 1.000000
v -1.000000 0.000000 -1.000000 0.800000 0.800000 0.800000 1.000000
v -1.000000 2.000000 1.000000 0.800000 0.800000 0.800000 1.000000
v -1.000000 2.000000 1.000000 0.800000 0.800000 0.800000 1.000000
v -1.000000 2.000000 1.000000 0.800000 0.800000 0.800000 1.000000
v -1.000000 0.000000 1.000000 0.800000 0.800000 0.800000 1.000000
v -1.000000 0.000000 1.000000 0.800000 0.800000 0.800000 1.000000
v -1.000000 0.000000 1.000000 0.800000 0.800000 0.800000 1.000000
vt 0.625000 0.500000
vt 0.625000 0.500000
vt 0.625000 0.500000
vt 0.375000 0.500000
vt 0.375000 0.500000
vt 0.375000 0.500000
vt 0.625000 0.750000
vt 0.625000 0.750000
vt 0.625000 0.750000
vt 0.375000 0.750000
vt 0.375000 0.750000
vt 0.375000 0.750000
vt 0.625000 0.250000
vt 0.625000 0.250000
vt 0.875000 0.500000
vt 0.375000 0.250000
vt 0.125000 0.500000
vt 0.375000 0.250000
vt 0.625000 0.000000
vt 0.625000 1.000000
vt 0.875000 0.750000
vt 0.375000 0.000000
vt 0.125000 0.750000
vt 0.375000 1.000000
vn 0.000000 0.000000 -1.000000
vn 0.000000 1.000000 0.000000
vn 1.000000 0.000000 0.000000
vn 0.000000 -1.000000 0.000000
vn 0.000000 0.000000 -1.000000
vn 1.000000 0.000000 0.000000
vn 0.000000 0.000000 1.000000
vn 0.000000 1.000000 0.000000
vn 1.000000 0.000000 0.000000
vn 0.000000 -1.000000 0.000000
vn 0.000000 0.000000 1.000000
vn 1.000000 0.000000 0.000000
vn -1.000000 0.000000 0.000000
vn 0.000000 0.000000 -1.000000
vn 0.000000 1.000000 0.000000
vn -1.000000 0.000000 0.000000
vn 0.000000 -1.000000 0.000000
vn 0.000000 0.000000 -1.000000
vn -1.000000 0.000000 0.000000
vn 0.000000 0.000000 1.000000
vn 0.000000 1.000000 0.000000
vn -1.000000 0.000000 0.000000
vn 0.000000 -1.000000 0.000000
vn 0.000000 0.000000 1.000000
f 2/2/2 15/15/15 21/21/21
f 2/2/2 21/21/21 8/8/8
f 11/11/11 7/7/7 20/20/20
f 11/11/11 20/20/20 24/24/24
f 22/22/22 19/19/19 13/13/13
f 22/22/22 13/13/13 16/16/16
f 17/17/17 4/4/4 10/10/10
f 17/17/17 10/10/10 23/23/23
f 6/6/6 3/3/3 9/9/9
f 6/6/6 9/9/9 12/12/12
f 18/18/18 14/14/14 1/1/1
f 18/18/18 1/1/1 5/5/5
