# generated by the editor's model importer
v 6.564301 2.144967 -0.530072 1.000000 1.000000 1.000000 1.000000
v 5.753167 1.795886 -0.340581 1.000000 1.000000 1.000000 1.000000
v 5.989169 1.064387 0.242079 1.000000 1.000000 1.000000 1.000000
v 6.564301 2.144967 -0.530072 1.000000 1.000000 1.000000 1.000000
v 5.989169 1.064387 0.242079 1.000000 1.000000 1.000000 1.000000
v 6.954315 1.223364 0.173317 1.000000 1.000000 1.000000 1.000000
v 5.989169 1.064387 0.242079 1.000000 1.000000 1.000000 1.000000
v 6.626370 0.587654 0.530072 1.000000 1.000000 1.000000 1.000000
v 6.954315 1.223364 0.173317 1.000000 1.000000 1.000000 1.000000
v -6.685551 1.860818 -0.473374 1.000000 1.000000 1.000000 1.000000
v -6.008250 0.620916 -0.170300 1.000000 1.000000 1.000000 1.000000
v -5.860620 1.569641 -0.249507 1.000000 1.000000 1.000000 1.000000
v -6.685551 1.860818 -0.473374 1.000000 1.000000 1.000000 1.000000
v -6.954315 0.669708 -0.425397 1.000000 1.000000 1.000000 1.000000
v -6.008250 0.620916 -0.170300 1.000000 1.000000 1.000000 1.000000
v -6.008250 0.620916 -0.170300 1.000000 1.000000 1.000000 1.000000
v -6.954315 0.669708 -0.425397 1.000000 1.000000 1.000000 1.000000
v -6.509917 0.000000 -0.319685 1.000000 1.000000 1.000000 1.000000
vt 0.310500 0.396500
vt 0.275400 0.396500
vt 0.267600 0.361300
vt 0.310500 0.396500
vt 0.267600 0.361300
vt 0.306600 0.349600
vt 0.267600 0.361300
vt 0.279300 0.330100
vt 0.306600 0.349600
vt 0.310500 0.396500
vt 0.267600 0.361300
vt 0.275400 0.396500
vt 0.310500 0.396500
vt 0.306600 0.349600
vt 0.267600 0.361300
vt 0.267600 0.361300
vt 0.306600 0.349600
vt 0.279300 0.330100
vn -0.075904 0.606128 0.791737
vn -0.075904 0.606128 0.791737
vn -0.075904 0.606128 0.791737
vn -0.040901 0.595217 0.802523
vn -0.040901 0.595217 0.802523
vn -0.040901 0.595217 0.802523
vn -0.020100 0.497201 0.867402
vn -0.020100 0.497201 0.867402
vn -0.020100 0.497201 0.867402
vn -0.221999 0.115399 0.968194
vn -0.221999 0.115399 0.968194
vn -0.221999 0.115399 0.968194
vn -0.254494 0.096198 0.962278
vn -0.254494 0.096198 0.962278
vn -0.254494 0.096198 0.962278
vn -0.261307 -0.021101 0.965025
vn -0.261307 -0.021101 0.965025
vn -0.261307 -0.021101 0.965025
f 1/1/1 2/2/2 3/3/3
f 4/4/4 5/5/5 6/6/6
f 7/7/7 8/8/8 9/9/9
f 10/10/10 11/11/11 12/12/12
f 13/13/13 14/14/14 15/15/15
f 16/16/16 17/17/17 18/18/18
