# generated by the editor's model importer
v 492.002380 477.572876 175.947571 1.000000 1.000000 1.000000 1.000000
v -492.002380 983.100098 -85.007668 1.000000 1.000000 1.000000 1.000000
v 450.049011 0.000000 -188.282990 1.000000 1.000000 1.000000 1.000000
v -108.373779 1103.293213 241.188049 1.000000 1.000000 1.000000 1.000000
v 411.232239 125.136963 -241.188049 1.000000 1.000000 1.000000 1.000000
v -492.002380 983.100098 -85.007668 1.000000 1.000000 1.000000 1.000000
v -401.824249 972.737061 -152.679810 1.000000 1.000000 1.000000 1.000000
v 450.049011 0.000000 -188.282990 1.000000 1.000000 1.000000 1.000000
v 446.736389 519.357300 60.020729 1.000000 1.000000 1.000000 1.000000
v 450.049011 0.000000 -188.282990 1.000000 1.000000 1.000000 1.000000
v 411.232239 125.136963 -241.188049 1.000000 1.000000 1.000000 1.000000
v 492.002380 477.572876 175.947571 1.000000 1.000000 1.000000 1.000000
v -82.706360 1070.246094 116.913857 1.000000 1.000000 1.000000 1.000000
v -108.373779 1103.293213 241.188049 1.000000 1.000000 1.000000 1.000000
v -401.824249 972.737061 -152.679810 1.000000 1.000000 1.000000 1.000000
v -492.002380 983.100098 -85.007668 1.000000 1.000000 1.000000 1.000000
vt 0.000100 0.449319
vt 0.109475 0.312600
vt 0.109475 0.496194
vt 0.000100 0.332131
vt 0.109475 0.480569
vt 0.109475 0.312600
vt 0.109475 0.320413
vt 0.109475 0.496194
vt 0.468850 0.445413
vt 0.375100 0.496194
vt 0.375100 0.480569
vt 0.484475 0.449319
vt 0.468850 0.339944
vt 0.484475 0.332131
vt 0.375100 0.320413
vt 0.375100 0.312600
vn -0.456586 -0.513821 0.726304
vn -0.456586 -0.513821 0.726304
vn -0.456586 -0.513821 0.726304
vn -0.456586 -0.513821 0.726304
vn 0.296896 -0.105426 -0.949072
vn -0.410764 0.643063 -0.646331
vn -0.259129 0.384784 -0.885886
vn 0.640116 -0.123178 -0.758339
vn 0.761285 0.506680 -0.404625
vn 0.640116 -0.123178 -0.758339
vn 0.296896 -0.105426 -0.949072
vn 0.880201 0.436301 -0.186784
vn 0.407024 0.829885 -0.381603
vn 0.387297 0.908006 -0.159769
vn -0.259129 0.384784 -0.885886
vn -0.410764 0.643063 -0.646331
f 1/1/1 2/2/2 3/3/3
f 2/2/2 1/1/1 4/4/4
f 5/5/5 6/6/6 7/7/7
f 6/6/6 5/5/5 8/8/8
f 9/9/9 10/10/10 11/11/11
f 10/10/10 9/9/9 12/12/12
f 13/13/13 12/12/12 9/9/9
f 11/11/11 13/13/13 9/9/9
f 13/13/13 11/11/11 15/15/15
f 12/12/12 13/13/13 14/14/14
f 15/15/15 14/14/14 13/13/13
f 14/14/14 15/15/15 16/16/16
