# generated by the editor's model importer
v 1.300078 0.480467 -1.733630 1.000000 1.000000 1.000000 1.000000
v 1.300073 1.374302 -1.787524 1.000000 1.000000 1.000000 1.000000
v 2.100117 0.788084 0.039794 1.000000 1.000000 1.000000 1.000000
v 2.100122 0.000000 0.176800 1.000000 1.000000 1.000000 1.000000
v 1.300078 0.480467 -1.733630 1.000000 1.000000 1.000000 1.000000
v 2.100117 0.788084 0.039794 1.000000 1.000000 1.000000 1.000000
v -2.100117 0.788084 0.039794 1.000000 1.000000 1.000000 1.000000
v -1.300073 1.374302 -1.787524 1.000000 1.000000 1.000000 1.000000
v -1.300078 0.480467 -1.733630 1.000000 1.000000 1.000000 1.000000
v 2.100122 0.000000 0.176800 1.000000 1.000000 1.000000 1.000000
v 2.100117 0.788084 0.039794 1.000000 1.000000 1.000000 1.000000
v 1.500087 1.243467 1.787524 1.000000 1.000000 1.000000 1.000000
v -2.100122 0.000000 0.176800 1.000000 1.000000 1.000000 1.000000
v -2.100117 0.788084 0.039794 1.000000 1.000000 1.000000 1.000000
v -1.300078 0.480467 -1.733630 1.000000 1.000000 1.000000 1.000000
v 2.100117 0.788084 0.039794 1.000000 1.000000 1.000000 1.000000
v 1.500092 2.002903 1.543851 1.000000 1.000000 1.000000 1.000000
v 1.500087 1.243467 1.787524 1.000000 1.000000 1.000000 1.000000
v -1.500087 1.243467 1.787524 1.000000 1.000000 1.000000 1.000000
v -2.100117 0.788084 0.039794 1.000000 1.000000 1.000000 1.000000
v -2.100122 0.000000 0.176800 1.000000 1.000000 1.000000 1.000000
v -2.100117 0.788084 0.039794 1.000000 1.000000 1.000000 1.000000
v -1.500087 1.243467 1.787524 1.000000 1.000000 1.000000 1.000000
v -1.500092 2.002903 1.543851 1.000000 1.000000 1.000000 1.000000
vt 0.669900 0.517600
vt 0.666000 0.552700
vt 0.603500 0.517600
vt 0.603500 0.490200
vt 0.669900 0.517600
vt 0.603500 0.517600
vt 0.603500 0.517600
vt 0.666000 0.552700
vt 0.669900 0.517600
vt 0.603500 0.490200
vt 0.603500 0.517600
vt 0.533200 0.525400
vt 0.603500 0.490200
vt 0.603500 0.517600
vt 0.669900 0.517600
vt 0.603500 0.517600
vt 0.537100 0.552700
vt 0.533200 0.525400
vt 0.533200 0.525400
vt 0.603500 0.517600
vt 0.603500 0.490200
vt 0.603500 0.517600
vt 0.533200 0.525400
vt 0.537100 0.552700
vn 0.912878 -0.024599 -0.407490
vn 0.912878 -0.024599 -0.407490
vn 0.912878 -0.024599 -0.407490
vn 0.913784 -0.069599 -0.400193
vn 0.913784 -0.069599 -0.400193
vn 0.913784 -0.069599 -0.400193
vn -0.912878 -0.024599 -0.407490
vn -0.912878 -0.024599 -0.407490
vn -0.912878 -0.024599 -0.407490
vn 0.948670 0.054198 0.311590
vn 0.948670 0.054198 0.311590
vn 0.948670 0.054198 0.311590
vn -0.913784 -0.069599 -0.400193
vn -0.913784 -0.069599 -0.400193
vn -0.913784 -0.069599 -0.400193
vn 0.948860 0.096496 0.300587
vn 0.948860 0.096496 0.300587
vn 0.948860 0.096496 0.300587
vn -0.948670 0.054198 0.311590
vn -0.948670 0.054198 0.311590
vn -0.948670 0.054198 0.311590
vn -0.948860 0.096496 0.300587
vn -0.948860 0.096496 0.300587
vn -0.948860 0.096496 0.300587
f 1/1/1 2/2/2 3/3/3
f 4/4/4 5/5/5 6/6/6
f 7/7/7 8/8/8 9/9/9
f 10/10/10 11/11/11 12/12/12
f 13/13/13 14/14/14 15/15/15
f 16/16/16 17/17/17 18/18/18
f 19/19/19 20/20/20 21/21/21
f 22/22/22 23/23/23 24/24/24
