# generated by tools/editor_import_glb.py
v -1.000000 0.000000 -1.000000 1.000000 1.000000 1.000000 1.000000
v -1.000000 0.000000 1.000000 1.000000 1.000000 1.000000 1.000000
v 1.000000 0.000000 -1.000000 1.000000 1.000000 1.000000 1.000000
v 1.000000 0.000000 1.000000 1.000000 1.000000 1.000000 1.000000
vt 0.000000 1.000000
vt 0.000000 0.500000
vt 0.500000 1.000000
vt 0.500000 0.500000
vn 0.000000 1.000000 0.000000
vn 0.000000 1.000000 0.000000
vn 0.000000 1.000000 0.000000
vn 0.000000 1.000000 0.000000
f 2/2/2 4/4/4 3/3/3
f 2/2/2 3/3/3 1/1/1
