# HumanoidBase_NotOverlapping -- baked by tools/blend_to_obj.py
# extended OBJ: v x y z r g b a (linear vertex colour)
o HumanoidBase_NotOverlapping
v 0.063671 1.740666 -0.056890 0.6038 0.6038 0.6038 1.0000
v 0.002304 1.790602 -0.033979 0.6038 0.6038 0.6038 1.0000
v 0.061906 1.772336 -0.023534 0.6038 0.6038 0.6038 1.0000
v 0.056890 1.589553 0.021330 0.6038 0.6038 0.6038 1.0000
v 0.052156 1.640234 0.115389 0.6038 0.6038 0.6038 1.0000
v 0.033559 1.578675 0.097133 0.6038 0.6038 0.6038 1.0000
v 0.002304 1.741329 0.130461 0.6038 0.6038 0.6038 1.0000
v 0.058835 1.772448 0.074547 0.6038 0.6038 0.6038 1.0000
v 0.002304 1.787526 0.090171 0.6038 0.6038 0.6038 1.0000
v 0.079710 1.656519 0.023550 0.6038 0.6038 0.6038 1.0000
v 0.063671 1.732428 0.115700 0.6038 0.6038 0.6038 1.0000
v 0.066259 1.664327 -0.056323 0.6038 0.6038 0.6038 1.0000
v 0.083392 1.735472 0.024209 0.6038 0.6038 0.6038 1.0000
v 0.072392 1.776272 0.024365 0.6038 0.6038 0.6038 1.0000
v 0.002304 1.572734 0.074935 0.6038 0.6038 0.6038 1.0000
v 0.040059 1.578353 0.057527 0.6038 0.6038 0.6038 1.0000
v 0.050665 1.590919 -0.026004 0.6038 0.6038 0.6038 1.0000
v 0.002304 1.799919 0.026102 0.6038 0.6038 0.6038 1.0000
v 0.109158 1.185901 -0.043573 0.6038 0.6038 0.6038 1.0000
v 0.162347 1.055571 0.018207 0.6038 0.6038 0.6038 1.0000
v 0.109258 1.047071 -0.069609 0.6038 0.6038 0.6038 1.0000
v 0.096202 1.176244 0.111431 0.6038 0.6038 0.6038 1.0000
v 0.002304 1.043801 0.131569 0.6038 0.6038 0.6038 1.0000
v 0.108484 1.046749 0.110929 0.6038 0.6038 0.6038 1.0000
v 0.002304 1.187284 -0.065766 0.6038 0.6038 0.6038 1.0000
v 0.002304 1.051762 -0.101602 0.6038 0.6038 0.6038 1.0000
v 0.138175 1.180867 0.037230 0.6038 0.6038 0.6038 1.0000
v 0.137268 1.292634 -0.075546 0.6038 0.6038 0.6038 1.0000
v 0.171145 1.352789 -0.008270 0.6038 0.6038 0.6038 1.0000
v 0.002304 1.316401 0.150795 0.6038 0.6038 0.6038 1.0000
v 0.002304 1.174300 0.142636 0.6038 0.6038 0.6038 1.0000
v 0.002304 1.292634 -0.078249 0.6038 0.6038 0.6038 1.0000
v 0.137268 1.317163 0.102258 0.6038 0.6038 0.6038 1.0000
v 0.151875 1.418825 -0.098568 0.6038 0.6038 0.6038 1.0000
v 0.002304 1.422346 0.125264 0.6038 0.6038 0.6038 1.0000
v 0.002304 1.422077 -0.093996 0.6038 0.6038 0.6038 1.0000
v 0.156850 1.420391 0.085777 0.6038 0.6038 0.6038 1.0000
v 0.002304 0.974452 -0.105609 0.6038 0.6038 0.6038 1.0000
v 0.002304 0.931527 0.123294 0.6038 0.6038 0.6038 1.0000
v 0.081518 0.905636 0.118913 0.6038 0.6038 0.6038 1.0000
v 0.002304 0.835207 0.000000 0.6038 0.6038 0.6038 1.0000
v 0.084271 0.906400 -0.076308 0.6038 0.6038 0.6038 1.0000
v 0.002304 0.835207 0.000000 0.6038 0.6038 0.6038 1.0000
v 0.002304 0.835207 0.000000 0.6038 0.6038 0.6038 1.0000
v 0.124455 0.550164 0.076688 0.6038 0.6038 0.6038 1.0000
v 0.081518 0.905636 0.118913 0.6038 0.6038 0.6038 1.0000
v 0.119319 0.543199 -0.048282 0.6038 0.6038 0.6038 1.0000
v 0.074710 0.541140 0.006686 0.6038 0.6038 0.6038 1.0000
v 0.668561 1.125673 -0.062090 0.6038 0.6038 0.6038 1.0000
v 0.747549 1.118483 -0.016164 0.6038 0.6038 0.6038 1.0000
v 0.722769 1.092498 -0.067804 0.6038 0.6038 0.6038 1.0000
v 0.179585 0.945139 0.018077 0.6038 0.6038 0.6038 1.0000
v 0.125110 0.460322 -0.062984 0.6038 0.6038 0.6038 1.0000
v 0.136082 0.082812 0.007654 0.6038 0.6038 0.6038 1.0000
v 0.072049 0.477677 0.009362 0.6038 0.6038 0.6038 1.0000
v 0.187360 0.509409 -0.001081 0.6038 0.6038 0.6038 1.0000
v 0.135415 0.463138 0.067659 0.6038 0.6038 0.6038 1.0000
v 0.196033 0.477677 -0.002316 0.6038 0.6038 0.6038 1.0000
v 0.129833 0.510913 0.079499 0.6038 0.6038 0.6038 1.0000
v 0.121680 0.510239 -0.052728 0.6038 0.6038 0.6038 1.0000
v 0.125110 0.460322 -0.062984 0.6038 0.6038 0.6038 1.0000
v 0.121680 0.510239 -0.052728 0.6038 0.6038 0.6038 1.0000
v 0.073356 0.509409 0.007985 0.6038 0.6038 0.6038 1.0000
v 0.198853 0.082812 0.002573 0.6038 0.6038 0.6038 1.0000
v 0.161128 0.082812 -0.044935 0.6038 0.6038 0.6038 1.0000
v 0.166566 0.082812 0.036171 0.6038 0.6038 0.6038 1.0000
v 0.178683 0.541140 -0.000117 0.6038 0.6038 0.6038 1.0000
v 0.119319 0.543199 -0.048282 0.6038 0.6038 0.6038 1.0000
v 0.166566 0.082812 0.036171 0.6038 0.6038 0.6038 1.0000
v 0.232106 0.030172 0.121543 0.6038 0.6038 0.6038 1.0000
v 0.198853 0.082812 0.002573 0.6038 0.6038 0.6038 1.0000
v 0.134401 0.030172 0.130959 0.6038 0.6038 0.6038 1.0000
v 0.175419 0.030172 0.158643 0.6038 0.6038 0.6038 1.0000
v 0.233842 -0.000111 0.143485 0.6038 0.6038 0.6038 1.0000
v 0.136138 -0.000111 0.152901 0.6038 0.6038 0.6038 1.0000
v 0.177155 -0.000111 0.180584 0.6038 0.6038 0.6038 1.0000
v 0.161128 0.082812 -0.044935 0.6038 0.6038 0.6038 1.0000
v 0.196163 0.030172 -0.031410 0.6038 0.6038 0.6038 1.0000
v 0.159268 0.030172 -0.068433 0.6038 0.6038 0.6038 1.0000
v 0.161128 0.082812 -0.044935 0.6038 0.6038 0.6038 1.0000
v 0.133392 0.030172 -0.026329 0.6038 0.6038 0.6038 1.0000
v 0.136082 0.082812 0.007654 0.6038 0.6038 0.6038 1.0000
v 0.199527 -0.000111 -0.045376 0.6038 0.6038 0.6038 1.0000
v 0.159268 -0.000111 -0.068433 0.6038 0.6038 0.6038 1.0000
v 0.159268 0.030172 -0.068433 0.6038 0.6038 0.6038 1.0000
v 0.127873 -0.000111 -0.039592 0.6038 0.6038 0.6038 1.0000
v 0.127873 -0.000111 -0.039592 0.6038 0.6038 0.6038 1.0000
v 0.199527 -0.000111 -0.045376 0.6038 0.6038 0.6038 1.0000
v 0.136138 -0.000111 0.152901 0.6038 0.6038 0.6038 1.0000
v 0.233842 -0.000111 0.143485 0.6038 0.6038 0.6038 1.0000
v 0.177155 -0.000111 0.180584 0.6038 0.6038 0.6038 1.0000
v 0.159268 -0.000111 -0.068433 0.6038 0.6038 0.6038 1.0000
v 0.055855 1.513410 0.051245 0.6038 0.6038 0.6038 1.0000
v 0.002304 1.506772 0.067439 0.6038 0.6038 0.6038 1.0000
v 0.061732 1.529860 -0.048319 0.6038 0.6038 0.6038 1.0000
v 0.207671 1.501409 -0.023636 0.6038 0.6038 0.6038 1.0000
v 0.077504 1.532751 0.006359 0.6038 0.6038 0.6038 1.0000
v 0.061732 1.529860 -0.048319 0.6038 0.6038 0.6038 1.0000
v 0.055855 1.513410 0.051245 0.6038 0.6038 0.6038 1.0000
v 0.002304 1.506772 0.067439 0.6038 0.6038 0.6038 1.0000
v 0.077504 1.532751 0.006359 0.6038 0.6038 0.6038 1.0000
v 0.207671 1.501409 -0.023636 0.6038 0.6038 0.6038 1.0000
v 0.156850 1.420391 0.085777 0.6038 0.6038 0.6038 1.0000
v 0.210133 1.389121 0.065634 0.6038 0.6038 0.6038 1.0000
v 0.210133 1.389121 -0.086134 0.6038 0.6038 0.6038 1.0000
v 0.151875 1.418825 -0.098568 0.6038 0.6038 0.6038 1.0000
v 0.266603 1.459717 -0.018957 0.6038 0.6038 0.6038 1.0000
v 0.171145 1.352789 -0.008270 0.6038 0.6038 0.6038 1.0000
v 0.171145 1.352789 -0.008270 0.6038 0.6038 0.6038 1.0000
v 0.403905 1.292311 0.028963 0.6038 0.6038 0.6038 1.0000
v 0.436003 1.318710 -0.018088 0.6038 0.6038 0.6038 1.0000
v 0.399755 1.293545 -0.057327 0.6038 0.6038 0.6038 1.0000
v 0.403684 1.254479 -0.016984 0.6038 0.6038 0.6038 1.0000
v 0.439652 1.272633 0.038283 0.6038 0.6038 0.6038 1.0000
v 0.427647 1.278074 -0.068908 0.6038 0.6038 0.6038 1.0000
v 0.403684 1.254479 -0.016984 0.6038 0.6038 0.6038 1.0000
v 0.538462 1.269540 -0.017627 0.6038 0.6038 0.6038 1.0000
v 0.640937 1.146459 -0.053414 0.6038 0.6038 0.6038 1.0000
v 0.506232 1.186181 -0.017551 0.6038 0.6038 0.6038 1.0000
v 0.627140 1.128672 -0.017326 0.6038 0.6038 0.6038 1.0000
v 0.640937 1.146459 0.024762 0.6038 0.6038 0.6038 1.0000
v 0.653550 1.169490 -0.016164 0.6038 0.6038 0.6038 1.0000
v 0.506232 1.186181 -0.017551 0.6038 0.6038 0.6038 1.0000
v 0.787810 1.064677 -0.016164 0.6038 0.6038 0.6038 1.0000
v 0.717991 1.097610 0.031317 0.6038 0.6038 0.6038 1.0000
v 0.781041 1.017192 0.027050 0.6038 0.6038 0.6038 1.0000
v 0.807871 1.009882 -0.017690 0.6038 0.6038 0.6038 1.0000
v 0.653550 1.169490 -0.016164 0.6038 0.6038 0.6038 1.0000
v 0.640937 1.146459 0.024762 0.6038 0.6038 0.6038 1.0000
v 0.776713 1.030360 -0.067232 0.6038 0.6038 0.6038 1.0000
v 0.640937 1.146459 -0.053414 0.6038 0.6038 0.6038 1.0000
v 0.682145 1.097457 0.040525 0.6038 0.6038 0.6038 1.0000
v 0.781041 1.017192 0.027050 0.6038 0.6038 0.6038 1.0000
v 0.781096 1.016384 -0.017326 0.6038 0.6038 0.6038 1.0000
v 0.807871 1.009882 -0.017690 0.6038 0.6038 0.6038 1.0000
v 0.776713 1.030360 -0.067232 0.6038 0.6038 0.6038 1.0000
v 0.719606 1.077239 -0.017326 0.6038 0.6038 0.6038 1.0000
v 0.722769 1.092498 -0.067804 0.6038 0.6038 0.6038 1.0000
v 0.682145 1.097457 0.040525 0.6038 0.6038 0.6038 1.0000
v 0.640937 1.146459 0.024762 0.6038 0.6038 0.6038 1.0000
v 0.682484 1.085980 0.012652 0.6038 0.6038 0.6038 1.0000
v 0.627140 1.128672 -0.017326 0.6038 0.6038 0.6038 1.0000
v 0.640937 1.146459 -0.053414 0.6038 0.6038 0.6038 1.0000
v 0.654880 1.113243 -0.017326 0.6038 0.6038 0.6038 1.0000
v 0.668561 1.125673 -0.062090 0.6038 0.6038 0.6038 1.0000
v 0.717991 1.097610 0.031317 0.6038 0.6038 0.6038 1.0000
v 0.002304 1.636882 0.131739 0.6038 0.6038 0.6038 1.0000
v 0.002304 1.567736 0.109821 0.6038 0.6038 0.6038 1.0000
v 0.002304 1.742943 -0.074475 0.6038 0.6038 0.6038 1.0000
v 0.002304 1.586556 -0.038625 0.6038 0.6038 0.6038 1.0000
v 0.002304 1.526273 -0.059677 0.6038 0.6038 0.6038 1.0000
v 0.721238 1.042978 0.054047 0.6038 0.6038 0.6038 1.0000
v 0.721094 1.037887 0.042784 0.6038 0.6038 0.6038 1.0000
v 0.721238 1.042978 0.054047 0.6038 0.6038 0.6038 1.0000
v 0.732856 1.050251 0.046157 0.6038 0.6038 0.6038 1.0000
v 0.732856 1.050251 0.046157 0.6038 0.6038 0.6038 1.0000
v 0.721238 1.042978 0.054047 0.6038 0.6038 0.6038 1.0000
v 0.002304 1.656461 -0.071636 0.6038 0.6038 0.6038 1.0000
v 0.179585 0.945139 0.018077 0.6038 0.6038 0.6038 1.0000
v 0.084271 0.906400 -0.076308 0.6038 0.6038 0.6038 1.0000
v -0.059062 1.740666 -0.056890 0.6038 0.6038 0.6038 1.0000
v 0.002304 1.790602 -0.033979 0.6038 0.6038 0.6038 1.0000
v 0.002304 1.742943 -0.074475 0.6038 0.6038 0.6038 1.0000
v -0.047548 1.640234 0.115389 0.6038 0.6038 0.6038 1.0000
v -0.052282 1.589553 0.021330 0.6038 0.6038 0.6038 1.0000
v -0.028950 1.578675 0.097133 0.6038 0.6038 0.6038 1.0000
v -0.054226 1.772448 0.074547 0.6038 0.6038 0.6038 1.0000
v -0.059062 1.732428 0.115700 0.6038 0.6038 0.6038 1.0000
v -0.075102 1.656519 0.023550 0.6038 0.6038 0.6038 1.0000
v -0.061650 1.664327 -0.056323 0.6038 0.6038 0.6038 1.0000
v -0.078784 1.735472 0.024209 0.6038 0.6038 0.6038 1.0000
v -0.057297 1.772336 -0.023534 0.6038 0.6038 0.6038 1.0000
v 0.002304 1.572734 0.074935 0.6038 0.6038 0.6038 1.0000
v -0.046056 1.590919 -0.026004 0.6038 0.6038 0.6038 1.0000
v 0.002304 1.799919 0.026102 0.6038 0.6038 0.6038 1.0000
v -0.067784 1.776272 0.024365 0.6038 0.6038 0.6038 1.0000
v -0.104549 1.185901 -0.043573 0.6038 0.6038 0.6038 1.0000
v -0.157738 1.055571 0.018207 0.6038 0.6038 0.6038 1.0000
v -0.133567 1.180867 0.037230 0.6038 0.6038 0.6038 1.0000
v -0.091593 1.176244 0.111431 0.6038 0.6038 0.6038 1.0000
v 0.002304 1.187284 -0.065766 0.6038 0.6038 0.6038 1.0000
v -0.104649 1.047071 -0.069609 0.6038 0.6038 0.6038 1.0000
v -0.103876 1.046749 0.110929 0.6038 0.6038 0.6038 1.0000
v -0.132660 1.292634 -0.075546 0.6038 0.6038 0.6038 1.0000
v 0.002304 1.292634 -0.078249 0.6038 0.6038 0.6038 1.0000
v -0.132660 1.317163 0.102258 0.6038 0.6038 0.6038 1.0000
v -0.166537 1.352789 -0.008270 0.6038 0.6038 0.6038 1.0000
v -0.147267 1.418825 -0.098568 0.6038 0.6038 0.6038 1.0000
v 0.002304 1.422077 -0.093996 0.6038 0.6038 0.6038 1.0000
v -0.152242 1.420391 0.085777 0.6038 0.6038 0.6038 1.0000
v 0.002304 0.974452 -0.105609 0.6038 0.6038 0.6038 1.0000
v 0.002304 1.051762 -0.101602 0.6038 0.6038 0.6038 1.0000
v -0.076910 0.905636 0.118913 0.6038 0.6038 0.6038 1.0000
v -0.079663 0.906400 -0.076308 0.6038 0.6038 0.6038 1.0000
v 0.002304 0.835207 0.000000 0.6038 0.6038 0.6038 1.0000
v -0.119847 0.550164 0.076688 0.6038 0.6038 0.6038 1.0000
v 0.002304 0.835207 0.000000 0.6038 0.6038 0.6038 1.0000
v -0.076910 0.905636 0.118913 0.6038 0.6038 0.6038 1.0000
v -0.114710 0.543199 -0.048282 0.6038 0.6038 0.6038 1.0000
v -0.079663 0.906400 -0.076308 0.6038 0.6038 0.6038 1.0000
v -0.742941 1.118483 -0.016164 0.6038 0.6038 0.6038 1.0000
v -0.663952 1.125673 -0.062090 0.6038 0.6038 0.6038 1.0000
v -0.718161 1.092498 -0.067804 0.6038 0.6038 0.6038 1.0000
v -0.174977 0.945139 0.018077 0.6038 0.6038 0.6038 1.0000
v -0.131473 0.082812 0.007654 0.6038 0.6038 0.6038 1.0000
v -0.120502 0.460322 -0.062984 0.6038 0.6038 0.6038 1.0000
v -0.067441 0.477677 0.009362 0.6038 0.6038 0.6038 1.0000
v -0.182752 0.509409 -0.001081 0.6038 0.6038 0.6038 1.0000
v -0.130806 0.463138 0.067659 0.6038 0.6038 0.6038 1.0000
v -0.125225 0.510913 0.079499 0.6038 0.6038 0.6038 1.0000
v -0.068747 0.509409 0.007985 0.6038 0.6038 0.6038 1.0000
v -0.117072 0.510239 -0.052728 0.6038 0.6038 0.6038 1.0000
v -0.191425 0.477677 -0.002316 0.6038 0.6038 0.6038 1.0000
v -0.117072 0.510239 -0.052728 0.6038 0.6038 0.6038 1.0000
v -0.194244 0.082812 0.002573 0.6038 0.6038 0.6038 1.0000
v -0.120502 0.460322 -0.062984 0.6038 0.6038 0.6038 1.0000
v -0.070102 0.541140 0.006686 0.6038 0.6038 0.6038 1.0000
v -0.174075 0.541140 -0.000117 0.6038 0.6038 0.6038 1.0000
v -0.114710 0.543199 -0.048282 0.6038 0.6038 0.6038 1.0000
v -0.227497 0.030172 0.121543 0.6038 0.6038 0.6038 1.0000
v -0.161958 0.082812 0.036171 0.6038 0.6038 0.6038 1.0000
v -0.194244 0.082812 0.002573 0.6038 0.6038 0.6038 1.0000
v -0.129793 0.030172 0.130959 0.6038 0.6038 0.6038 1.0000
v -0.131473 0.082812 0.007654 0.6038 0.6038 0.6038 1.0000
v -0.229234 -0.000111 0.143485 0.6038 0.6038 0.6038 1.0000
v -0.170810 0.030172 0.158643 0.6038 0.6038 0.6038 1.0000
v -0.131529 -0.000111 0.152901 0.6038 0.6038 0.6038 1.0000
v -0.156519 0.082812 -0.044935 0.6038 0.6038 0.6038 1.0000
v -0.191555 0.030172 -0.031410 0.6038 0.6038 0.6038 1.0000
v -0.128784 0.030172 -0.026329 0.6038 0.6038 0.6038 1.0000
v -0.156519 0.082812 -0.044935 0.6038 0.6038 0.6038 1.0000
v -0.154660 0.030172 -0.068433 0.6038 0.6038 0.6038 1.0000
v -0.194919 -0.000111 -0.045376 0.6038 0.6038 0.6038 1.0000
v -0.123264 -0.000111 -0.039592 0.6038 0.6038 0.6038 1.0000
v -0.154660 0.030172 -0.068433 0.6038 0.6038 0.6038 1.0000
v -0.123264 -0.000111 -0.039592 0.6038 0.6038 0.6038 1.0000
v -0.131529 -0.000111 0.152901 0.6038 0.6038 0.6038 1.0000
v -0.194919 -0.000111 -0.045376 0.6038 0.6038 0.6038 1.0000
v -0.229234 -0.000111 0.143485 0.6038 0.6038 0.6038 1.0000
v -0.172547 -0.000111 0.180584 0.6038 0.6038 0.6038 1.0000
v -0.154660 -0.000111 -0.068433 0.6038 0.6038 0.6038 1.0000
v -0.051247 1.513410 0.051245 0.6038 0.6038 0.6038 1.0000
v -0.057123 1.529860 -0.048319 0.6038 0.6038 0.6038 1.0000
v -0.203062 1.501409 -0.023636 0.6038 0.6038 0.6038 1.0000
v -0.072895 1.532751 0.006359 0.6038 0.6038 0.6038 1.0000
v -0.057123 1.529860 -0.048319 0.6038 0.6038 0.6038 1.0000
v -0.035450 1.578353 0.057527 0.6038 0.6038 0.6038 1.0000
v 0.002304 1.506772 0.067439 0.6038 0.6038 0.6038 1.0000
v -0.051247 1.513410 0.051245 0.6038 0.6038 0.6038 1.0000
v -0.072895 1.532751 0.006359 0.6038 0.6038 0.6038 1.0000
v -0.203062 1.501409 -0.023636 0.6038 0.6038 0.6038 1.0000
v -0.205525 1.389121 0.065634 0.6038 0.6038 0.6038 1.0000
v -0.152242 1.420391 0.085777 0.6038 0.6038 0.6038 1.0000
v -0.147267 1.418825 -0.098568 0.6038 0.6038 0.6038 1.0000
v -0.205525 1.389121 -0.086134 0.6038 0.6038 0.6038 1.0000
v -0.261994 1.459717 -0.018957 0.6038 0.6038 0.6038 1.0000
v -0.166537 1.352789 -0.008270 0.6038 0.6038 0.6038 1.0000
v -0.166537 1.352789 -0.008270 0.6038 0.6038 0.6038 1.0000
v -0.399297 1.292311 0.028963 0.6038 0.6038 0.6038 1.0000
v -0.395147 1.293545 -0.057327 0.6038 0.6038 0.6038 1.0000
v -0.431394 1.318710 -0.018088 0.6038 0.6038 0.6038 1.0000
v -0.435044 1.272633 0.038283 0.6038 0.6038 0.6038 1.0000
v -0.399076 1.254479 -0.016984 0.6038 0.6038 0.6038 1.0000
v -0.423038 1.278074 -0.068908 0.6038 0.6038 0.6038 1.0000
v -0.399076 1.254479 -0.016984 0.6038 0.6038 0.6038 1.0000
v -0.636329 1.146459 -0.053414 0.6038 0.6038 0.6038 1.0000
v -0.533854 1.269540 -0.017627 0.6038 0.6038 0.6038 1.0000
v -0.501623 1.186181 -0.017551 0.6038 0.6038 0.6038 1.0000
v -0.636329 1.146459 0.024762 0.6038 0.6038 0.6038 1.0000
v -0.501623 1.186181 -0.017551 0.6038 0.6038 0.6038 1.0000
v -0.783202 1.064677 -0.016164 0.6038 0.6038 0.6038 1.0000
v -0.713382 1.097610 0.031317 0.6038 0.6038 0.6038 1.0000
v -0.803263 1.009882 -0.017690 0.6038 0.6038 0.6038 1.0000
v -0.776432 1.017192 0.027050 0.6038 0.6038 0.6038 1.0000
v -0.648941 1.169490 -0.016164 0.6038 0.6038 0.6038 1.0000
v -0.636329 1.146459 0.024762 0.6038 0.6038 0.6038 1.0000
v -0.772105 1.030360 -0.067232 0.6038 0.6038 0.6038 1.0000
v -0.636329 1.146459 -0.053414 0.6038 0.6038 0.6038 1.0000
v -0.677536 1.097457 0.040525 0.6038 0.6038 0.6038 1.0000
v -0.776432 1.017192 0.027050 0.6038 0.6038 0.6038 1.0000
v -0.803263 1.009882 -0.017690 0.6038 0.6038 0.6038 1.0000
v -0.776487 1.016384 -0.017326 0.6038 0.6038 0.6038 1.0000
v -0.772105 1.030360 -0.067232 0.6038 0.6038 0.6038 1.0000
v -0.714997 1.077239 -0.017326 0.6038 0.6038 0.6038 1.0000
v -0.713382 1.097610 0.031317 0.6038 0.6038 0.6038 1.0000
v -0.677536 1.097457 0.040525 0.6038 0.6038 0.6038 1.0000
v -0.677876 1.085980 0.012652 0.6038 0.6038 0.6038 1.0000
v -0.636329 1.146459 0.024762 0.6038 0.6038 0.6038 1.0000
v -0.622532 1.128672 -0.017326 0.6038 0.6038 0.6038 1.0000
v -0.650272 1.113243 -0.017326 0.6038 0.6038 0.6038 1.0000
v -0.636329 1.146459 -0.053414 0.6038 0.6038 0.6038 1.0000
v -0.663952 1.125673 -0.062090 0.6038 0.6038 0.6038 1.0000
v -0.718161 1.092498 -0.067804 0.6038 0.6038 0.6038 1.0000
v 0.002304 1.656461 -0.071636 0.6038 0.6038 0.6038 1.0000
v 0.002304 1.586556 -0.038625 0.6038 0.6038 0.6038 1.0000
v 0.002304 1.526273 -0.059677 0.6038 0.6038 0.6038 1.0000
v -0.716629 1.042978 0.054047 0.6038 0.6038 0.6038 1.0000
v -0.716486 1.037887 0.042784 0.6038 0.6038 0.6038 1.0000
v -0.716629 1.042978 0.054047 0.6038 0.6038 0.6038 1.0000
v -0.728248 1.050251 0.046157 0.6038 0.6038 0.6038 1.0000
v -0.716629 1.042978 0.054047 0.6038 0.6038 0.6038 1.0000
v -0.174977 0.945139 0.018077 0.6038 0.6038 0.6038 1.0000
v -0.079663 0.906400 -0.076308 0.6038 0.6038 0.6038 1.0000
v 0.084271 0.906400 -0.076308 0.6038 0.6038 0.6038 1.0000
v 0.161128 0.082812 -0.044935 0.6038 0.6038 0.6038 1.0000
v 0.159268 -0.000111 -0.068433 0.6038 0.6038 0.6038 1.0000
v 0.002304 1.526273 -0.059677 0.6038 0.6038 0.6038 1.0000
v 0.627140 1.128672 -0.017326 0.6038 0.6038 0.6038 1.0000
v 0.002304 1.787526 0.090171 0.6038 0.6038 0.6038 1.0000
v -0.156519 0.082812 -0.044935 0.6038 0.6038 0.6038 1.0000
v -0.161958 0.082812 0.036171 0.6038 0.6038 0.6038 1.0000
v -0.156519 0.082812 -0.044935 0.6038 0.6038 0.6038 1.0000
v -0.172547 -0.000111 0.180584 0.6038 0.6038 0.6038 1.0000
v -0.154660 -0.000111 -0.068433 0.6038 0.6038 0.6038 1.0000
v -0.154660 -0.000111 -0.068433 0.6038 0.6038 0.6038 1.0000
v 0.002304 1.526273 -0.059677 0.6038 0.6038 0.6038 1.0000
v -0.648941 1.169490 -0.016164 0.6038 0.6038 0.6038 1.0000
v -0.622532 1.128672 -0.017326 0.6038 0.6038 0.6038 1.0000
v -0.622532 1.128672 -0.017326 0.6038 0.6038 0.6038 1.0000
v -0.728248 1.050251 0.046157 0.6038 0.6038 0.6038 1.0000
vt 0.902519 0.121119
vt 0.907540 0.043609
vt 0.875875 0.097504
vt 0.842004 0.278805
vt 0.756355 0.201873
vt 0.746867 0.261244
vt 0.713070 0.103021
vt 0.797632 0.097996
vt 0.761272 0.050704
vt 0.840456 0.196773
vt 0.770222 0.132789
vt 0.911814 0.183405
vt 0.839445 0.131212
vt 0.838456 0.099046
vt 0.741000 0.298902
vt 0.789531 0.279246
vt 0.900748 0.270433
vt 0.835879 0.026661
vt 0.213381 0.553443
vt 0.304233 0.583175
vt 0.295839 0.523750
vt 0.238541 0.653959
vt 0.315202 0.709547
vt 0.312908 0.645904
vt 0.195626 0.488473
vt 0.276219 0.459832
vt 0.230586 0.603824
vt 0.152201 0.566310
vt 0.139647 0.605565
vt 0.169546 0.709547
vt 0.240243 0.709547
vt 0.136090 0.500301
vt 0.163771 0.647910
vt 0.105244 0.585549
vt 0.120427 0.709547
vt 0.064707 0.526594
vt 0.122479 0.644058
vt 0.321747 0.447739
vt 0.384677 0.709547
vt 0.398063 0.659100
vt 0.482527 0.709547
vt 0.374131 0.489707
vt 0.426074 0.428057
vt 0.524799 0.594707
vt 0.690398 0.515285
vt 0.484139 0.520072
vt 0.703316 0.605458
vt 0.697782 0.565451
vt 0.246664 0.420573
vt 0.276973 0.384473
vt 0.245137 0.384505
vt 0.370770 0.574025
vt 0.750126 0.606732
vt 0.949003 0.535019
vt 0.732689 0.560510
vt 0.722813 0.462518
vt 0.738716 0.514136
vt 0.740315 0.463692
vt 0.712221 0.514697
vt 0.720490 0.415321
vt 0.750417 0.412917
vt 0.721430 0.605478
vt 0.715356 0.563027
vt 0.951744 0.488261
vt 0.955292 0.455029
vt 0.948931 0.512861
vt 0.703387 0.461054
vt 0.702271 0.416137
vt 0.833004 0.674692
vt 0.785944 0.651376
vt 0.845265 0.654789
vt 0.785932 0.693105
vt 0.773663 0.676321
vt 0.768914 0.644967
vt 0.768823 0.699916
vt 0.755772 0.677058
vt 0.874637 0.645677
vt 0.850601 0.623373
vt 0.876148 0.616516
vt 0.874483 0.699310
vt 0.852157 0.721571
vt 0.846539 0.690263
vt 0.850002 0.606472
vt 0.872934 0.601548
vt 0.876148 0.728299
vt 0.851900 0.738394
vt 0.902846 0.723048
vt 0.936625 0.719687
vt 0.890437 0.632918
vt 0.936625 0.629045
vt 0.907157 0.616594
vt 0.919867 0.733798
vt 0.053776 0.673628
vt 0.061606 0.709547
vt 0.036962 0.605348
vt 0.099043 0.615602
vt 0.856844 0.344005
vt 0.914777 0.348758
vt 0.805666 0.359033
vt 0.750435 0.367682
vt 0.050089 0.640286
vt 0.349205 0.012650
vt 0.276820 0.011931
vt 0.282590 0.044912
vt 0.404862 0.044790
vt 0.410144 0.011931
vt 0.347649 0.048252
vt 0.236486 0.054395
vt 0.451841 0.048755
vt 0.311513 0.171670
vt 0.349790 0.174205
vt 0.384954 0.167965
vt 0.412911 0.181131
vt 0.314598 0.194059
vt 0.383454 0.185927
vt 0.281597 0.186180
vt 0.350832 0.231555
vt 0.379129 0.308191
vt 0.411141 0.241653
vt 0.400779 0.309066
vt 0.327835 0.310635
vt 0.354180 0.306848
vt 0.288310 0.247455
vt 0.276664 0.352773
vt 0.307702 0.387170
vt 0.303087 0.332876
vt 0.276097 0.322969
vt 0.279095 0.439803
vt 0.306117 0.438078
vt 0.247323 0.340246
vt 0.252755 0.440255
vt 0.319663 0.403952
vt 0.395208 0.318343
vt 0.416341 0.325127
vt 0.421084 0.312143
vt 0.439130 0.337655
vt 0.403347 0.368285
vt 0.429538 0.378757
vt 0.357810 0.397921
vt 0.369841 0.431038
vt 0.372511 0.389274
vt 0.393732 0.426801
vt 0.414407 0.426148
vt 0.392657 0.409706
vt 0.418845 0.409862
vt 0.376032 0.366886
vt 0.713070 0.203951
vt 0.713070 0.272672
vt 0.958117 0.096679
vt 0.961538 0.268624
vt 0.981802 0.337330
vt 0.340590 0.367299
vt 0.345444 0.363407
vt 0.335430 0.369279
vt 0.327268 0.365970
vt 0.351690 0.357217
vt 0.343697 0.357407
vt 0.972846 0.188073
vt 0.472239 0.442730
vt 0.500279 0.373302
vt 0.523621 0.121118
vt 0.518600 0.043609
vt 0.468023 0.096679
vt 0.669784 0.201872
vt 0.584135 0.278805
vt 0.679273 0.261244
vt 0.628508 0.097996
vt 0.655918 0.132789
vt 0.585683 0.196772
vt 0.514326 0.183405
vt 0.586695 0.131211
vt 0.550265 0.097504
vt 0.685139 0.298902
vt 0.525391 0.270433
vt 0.590261 0.026661
vt 0.587684 0.099045
vt 0.213381 0.865650
vt 0.304233 0.835918
vt 0.230587 0.815269
vt 0.238541 0.765135
vt 0.195626 0.930621
vt 0.295839 0.895343
vt 0.312908 0.773190
vt 0.152201 0.852783
vt 0.136090 0.918792
vt 0.163771 0.771183
vt 0.139648 0.813528
vt 0.105244 0.833544
vt 0.064707 0.892499
vt 0.122479 0.775036
vt 0.321747 0.971355
vt 0.276219 0.959262
vt 0.398063 0.759993
vt 0.374131 0.929387
vt 0.426074 0.991037
vt 0.693289 0.832814
vt 0.525450 0.758242
vt 0.486979 0.834029
vt 0.703579 0.742304
vt 0.505698 0.686337
vt 0.189509 0.381380
vt 0.220523 0.416876
vt 0.221339 0.380785
vt 0.370770 0.845068
vt 0.951211 0.805566
vt 0.750332 0.739669
vt 0.734247 0.786378
vt 0.727225 0.884616
vt 0.741620 0.832558
vt 0.715120 0.832768
vt 0.716848 0.784367
vt 0.726276 0.931860
vt 0.744686 0.882934
vt 0.721685 0.741757
vt 0.955311 0.852225
vt 0.756261 0.933393
vt 0.699211 0.782455
vt 0.707851 0.886645
vt 0.708041 0.931575
vt 0.786334 0.651289
vt 0.833393 0.674604
vt 0.845655 0.654702
vt 0.786322 0.693018
vt 0.846929 0.690176
vt 0.769304 0.644880
vt 0.774053 0.676233
vt 0.769213 0.699829
vt 0.875026 0.645590
vt 0.850991 0.623286
vt 0.852547 0.721484
vt 0.874873 0.699223
vt 0.876538 0.616428
vt 0.850392 0.606385
vt 0.852290 0.738306
vt 0.876538 0.728211
vt 0.902887 0.723199
vt 0.890478 0.633070
vt 0.936666 0.719838
vt 0.936666 0.629197
vt 0.907197 0.616746
vt 0.919908 0.733949
vt 0.053776 0.745465
vt 0.036962 0.813746
vt 0.099043 0.803492
vt 0.569295 0.344005
vt 0.511362 0.348757
vt 0.636609 0.279246
vt 0.675704 0.367682
vt 0.620473 0.359033
vt 0.050089 0.778807
vt 0.115116 0.012650
vt 0.181731 0.044912
vt 0.187501 0.011931
vt 0.054177 0.011931
vt 0.059460 0.044790
vt 0.116672 0.048252
vt 0.227835 0.054395
vt 0.012481 0.048755
vt 0.152808 0.171670
vt 0.079367 0.167965
vt 0.114531 0.174205
vt 0.149723 0.194059
vt 0.051410 0.181131
vt 0.080867 0.185927
vt 0.182724 0.186180
vt 0.085192 0.308191
vt 0.113489 0.231555
vt 0.053180 0.241653
vt 0.136486 0.310635
vt 0.176011 0.247455
vt 0.189195 0.349680
vt 0.158839 0.384681
vt 0.189175 0.319871
vt 0.162385 0.330307
vt 0.188477 0.436741
vt 0.161427 0.435548
vt 0.218283 0.336578
vt 0.214821 0.436674
vt 0.147211 0.401695
vt 0.076346 0.329295
vt 0.050620 0.322503
vt 0.055062 0.335592
vt 0.031992 0.347593
vt 0.067063 0.379038
vt 0.094402 0.378266
vt 0.111906 0.409711
vt 0.097408 0.400729
vt 0.099118 0.442544
vt 0.075330 0.437759
vt 0.076798 0.420693
vt 0.054677 0.436631
vt 0.050613 0.420248
vt 0.040638 0.388906
vt 0.453294 0.188072
vt 0.464602 0.268624
vt 0.444338 0.337329
vt 0.129825 0.379493
vt 0.125062 0.375491
vt 0.130765 0.367339
vt 0.118960 0.369159
vt 0.126947 0.369533
vt 0.477333 0.911684
vt 0.507380 0.980267
vt 0.507147 0.667157
vt 0.955112 0.566482
vt 0.872782 0.743132
vt 0.013924 0.574440
vt 0.303779 0.313700
vt 0.664868 0.050703
vt 0.956402 0.773939
vt 0.951783 0.827717
vt 0.959824 0.885340
vt 0.756162 0.676971
vt 0.873324 0.601460
vt 0.873172 0.743044
vt 0.013924 0.844653
vt 0.110142 0.306848
vt 0.063542 0.309067
vt 0.160542 0.313700
vt 0.138860 0.363871
vn 0.664890 0.296120 -0.685736
vn 0.000000 0.882606 -0.470113
vn 0.642766 0.679546 -0.353652
vn 0.990289 -0.056529 0.127011
vn 0.696559 -0.221867 0.682334
vn 0.590481 -0.687724 0.422337
vn -0.000000 0.375265 0.926918
vn 0.618567 0.692700 0.370867
vn 0.000000 0.857204 0.514977
vn 0.981428 -0.189946 0.026839
vn 0.677028 0.257011 0.689622
vn 0.710623 -0.190754 -0.677221
vn 0.992303 0.123496 0.009148
vn 0.748175 0.663331 0.015074
vn 0.000000 -0.838822 0.544406
vn 0.740206 -0.469968 0.480858
vn 0.776264 -0.007855 -0.630359
vn -0.000000 0.999884 0.015228
vn 0.623946 -0.070905 -0.778244
vn 0.989422 0.144604 -0.011567
vn 0.584855 0.088611 -0.806283
vn 0.595947 -0.052880 0.801281
vn 0.000000 -0.049966 0.998751
vn 0.568780 0.021437 0.822210
vn 0.000000 0.048539 -0.998821
vn 0.000000 0.154358 -0.988015
vn 0.991278 -0.043057 0.124556
vn 0.575951 -0.275018 -0.769835
vn 0.608622 -0.792483 -0.039353
vn 0.000000 0.091496 0.995805
vn 0.000000 -0.070896 0.997484
vn 0.000000 -0.164198 -0.986427
vn 0.708260 -0.041135 0.704752
vn 0.234072 0.083165 -0.968656
vn -0.000000 0.368303 0.929706
vn -0.000000 0.121681 -0.992569
vn 0.486413 0.236684 0.841061
vn 0.000000 -0.168979 -0.985620
vn 0.000000 -0.359526 0.933135
vn 0.199790 -0.238414 0.950391
vn 0.000000 -0.924540 -0.381086
vn 0.257175 -0.210802 -0.943093
vn 0.000000 -0.924540 -0.381086
vn 0.000000 -0.924540 -0.381086
vn 0.011040 -0.045990 0.998881
vn 0.199790 -0.238414 0.950391
vn -0.089322 -0.004160 -0.995994
vn -0.994424 -0.099626 -0.034580
vn -0.180534 -0.048816 -0.982357
vn 0.661071 0.750192 0.014019
vn -0.058308 -0.049005 -0.997095
vn 0.999940 0.008125 -0.007344
vn -0.127349 0.029041 -0.991433
vn -0.987037 0.145433 0.067870
vn -0.995671 -0.071212 0.059729
vn 0.964824 0.239418 -0.108594
vn 0.076142 -0.127008 0.988975
vn 0.986299 0.143081 -0.082107
vn 0.054852 -0.043421 0.997550
vn -0.124402 0.157555 -0.979643
vn -0.127349 0.029041 -0.991433
vn -0.124402 0.157555 -0.979643
vn -0.999365 0.032454 -0.014744
vn 0.950012 0.290185 -0.115193
vn -0.095055 0.268145 -0.958677
vn 0.011578 0.702739 0.711354
vn 0.980571 0.132543 -0.144615
vn -0.089322 -0.004160 -0.995994
vn 0.011578 0.702739 0.711354
vn 0.819609 0.518355 0.244026
vn 0.950012 0.290185 -0.115193
vn -0.781202 0.503932 0.368478
vn -0.015612 0.735401 0.677452
vn 0.756235 -0.440971 0.483376
vn -0.700705 -0.471527 0.535421
vn 0.006165 -0.362034 0.932145
vn -0.095055 0.268145 -0.958677
vn 0.845207 0.268028 -0.462370
vn -0.109137 0.287346 -0.951589
vn -0.095055 0.268145 -0.958677
vn -0.937190 0.236557 -0.256352
vn -0.987037 0.145433 0.067870
vn 0.697805 -0.525040 -0.487238
vn -0.089371 -0.595276 -0.798536
vn -0.109137 0.287346 -0.951589
vn -0.784031 -0.533189 -0.317814
vn -0.784031 -0.533189 -0.317814
vn 0.697805 -0.525040 -0.487238
vn -0.700705 -0.471527 0.535421
vn 0.756235 -0.440971 0.483376
vn 0.006165 -0.362034 0.932145
vn -0.089371 -0.595276 -0.798536
vn 0.435364 0.430613 0.790589
vn -0.000000 0.311175 0.950353
vn 0.340547 0.544222 -0.766714
vn 0.509172 0.853663 -0.109561
vn 0.682109 0.700033 0.211379
vn 0.340547 0.544222 -0.766714
vn 0.435364 0.430613 0.790589
vn -0.000000 0.311175 0.950353
vn 0.682109 0.700033 0.211379
vn 0.509172 0.853663 -0.109561
vn 0.486413 0.236684 0.841061
vn 0.135411 -0.213261 0.967566
vn 0.052545 -0.245510 -0.967969
vn 0.234072 0.083165 -0.968656
vn 0.594603 0.802933 -0.041798
vn 0.608622 -0.792483 -0.039353
vn 0.608622 -0.792483 -0.039353
vn -0.002901 -0.043982 0.999028
vn 0.492249 0.869591 -0.038761
vn -0.086533 -0.044844 -0.995239
vn -0.512923 -0.858341 -0.012698
vn -0.105437 0.033911 0.993848
vn -0.164557 0.040708 -0.985527
vn -0.512923 -0.858341 -0.012698
vn 0.556958 0.829818 -0.034646
vn -0.021741 -0.035179 -0.999144
vn -0.493227 -0.869587 -0.023360
vn -0.516575 -0.852276 -0.082317
vn -0.060839 0.054375 0.996665
vn 0.574218 0.818551 -0.015782
vn -0.493227 -0.869587 -0.023360
vn 0.850592 0.523687 0.047384
vn 0.539965 0.261481 0.800041
vn 0.145202 -0.551193 0.821647
vn 0.786748 -0.615136 -0.051332
vn 0.574218 0.818551 -0.015782
vn -0.060839 0.054375 0.996665
vn 0.152138 -0.402176 -0.902833
vn -0.021741 -0.035179 -0.999144
vn -0.450061 -0.086058 0.888842
vn 0.145202 -0.551193 0.821647
vn -0.471126 -0.877186 -0.092649
vn 0.786748 -0.615136 -0.051332
vn 0.152138 -0.402176 -0.902833
vn -0.652086 -0.758115 -0.006806
vn -0.058308 -0.049005 -0.997095
vn -0.450061 -0.086058 0.888842
vn -0.060839 0.054375 0.996665
vn -0.255064 -0.808326 -0.530615
vn -0.516575 -0.852276 -0.082317
vn -0.021741 -0.035179 -0.999144
vn -0.439534 -0.823820 -0.357952
vn -0.180534 -0.048816 -0.982357
vn 0.539965 0.261481 0.800041
vn -0.000000 -0.173920 0.984760
vn 0.000000 -0.822041 0.569428
vn 0.000000 0.326628 -0.945153
vn 0.000000 -0.017837 -0.999841
vn 0.000000 0.320659 -0.947195
vn -0.040888 -0.495323 0.867746
vn -0.004064 -0.947814 -0.318797
vn -0.040888 -0.495323 0.867746
vn 0.997184 -0.049269 0.056546
vn 0.997184 -0.049269 0.056546
vn -0.040888 -0.495323 0.867746
vn 0.000000 -0.243142 -0.969991
vn 0.999940 0.008125 -0.007344
vn 0.257175 -0.210802 -0.943093
vn -0.664890 0.296120 -0.685736
vn 0.000000 0.882606 -0.470113
vn 0.000000 0.326628 -0.945153
vn -0.696559 -0.221867 0.682334
vn -0.990289 -0.056529 0.127011
vn -0.590481 -0.687724 0.422337
vn -0.618566 0.692700 0.370867
vn -0.677028 0.257011 0.689622
vn -0.981428 -0.189945 0.026839
vn -0.710623 -0.190754 -0.677221
vn -0.992303 0.123496 0.009148
vn -0.642766 0.679546 -0.353652
vn 0.000000 -0.838822 0.544406
vn -0.776264 -0.007855 -0.630359
vn -0.000000 0.999884 0.015228
vn -0.748175 0.663330 0.015074
vn -0.623946 -0.070905 -0.778244
vn -0.989422 0.144604 -0.011567
vn -0.991278 -0.043057 0.124555
vn -0.595947 -0.052880 0.801281
vn 0.000000 0.048539 -0.998821
vn -0.584855 0.088611 -0.806283
vn -0.568780 0.021437 0.822210
vn -0.575951 -0.275018 -0.769835
vn 0.000000 -0.164198 -0.986427
vn -0.708260 -0.041135 0.704752
vn -0.608622 -0.792483 -0.039353
vn -0.234073 0.083165 -0.968656
vn -0.000000 0.121681 -0.992569
vn -0.486413 0.236684 0.841061
vn 0.000000 -0.168979 -0.985620
vn 0.000000 0.154358 -0.988015
vn -0.199790 -0.238414 0.950391
vn -0.257175 -0.210802 -0.943093
vn 0.000000 -0.924540 -0.381086
vn -0.011040 -0.045990 0.998881
vn 0.000000 -0.924540 -0.381086
vn -0.199790 -0.238414 0.950391
vn 0.089322 -0.004160 -0.995994
vn -0.257175 -0.210802 -0.943093
vn -0.661071 0.750192 0.014019
vn 0.180534 -0.048816 -0.982357
vn 0.058308 -0.049005 -0.997095
vn -0.999940 0.008125 -0.007344
vn 0.987037 0.145433 0.067870
vn 0.127349 0.029041 -0.991433
vn 0.995671 -0.071212 0.059729
vn -0.964825 0.239418 -0.108594
vn -0.076142 -0.127008 0.988975
vn -0.054852 -0.043421 0.997550
vn 0.999365 0.032454 -0.014744
vn 0.124402 0.157555 -0.979643
vn -0.986299 0.143081 -0.082107
vn 0.124402 0.157555 -0.979643
vn -0.950012 0.290185 -0.115193
vn 0.127349 0.029041 -0.991433
vn 0.994424 -0.099626 -0.034580
vn -0.980571 0.132544 -0.144615
vn 0.089322 -0.004160 -0.995994
vn -0.819609 0.518355 0.244026
vn -0.011578 0.702739 0.711354
vn -0.950012 0.290185 -0.115193
vn 0.781202 0.503932 0.368478
vn 0.987037 0.145433 0.067870
vn -0.756235 -0.440971 0.483376
vn 0.015612 0.735401 0.677452
vn 0.700705 -0.471527 0.535421
vn 0.095055 0.268145 -0.958677
vn -0.845207 0.268028 -0.462370
vn 0.937190 0.236557 -0.256352
vn 0.095055 0.268145 -0.958677
vn 0.109137 0.287346 -0.951589
vn -0.697805 -0.525040 -0.487238
vn 0.784031 -0.533189 -0.317813
vn 0.109137 0.287346 -0.951589
vn 0.784031 -0.533189 -0.317813
vn 0.700705 -0.471527 0.535421
vn -0.697805 -0.525040 -0.487238
vn -0.756235 -0.440971 0.483376
vn -0.006165 -0.362034 0.932145
vn 0.089371 -0.595276 -0.798536
vn -0.435364 0.430613 0.790589
vn -0.340547 0.544222 -0.766714
vn -0.509172 0.853663 -0.109561
vn -0.682109 0.700033 0.211379
vn -0.340547 0.544222 -0.766714
vn -0.740206 -0.469968 0.480858
vn -0.000000 0.311175 0.950353
vn -0.435364 0.430613 0.790589
vn -0.682109 0.700033 0.211379
vn -0.509172 0.853663 -0.109561
vn -0.135411 -0.213261 0.967566
vn -0.486413 0.236684 0.841061
vn -0.234073 0.083165 -0.968656
vn -0.052545 -0.245510 -0.967969
vn -0.594603 0.802933 -0.041798
vn -0.608622 -0.792483 -0.039353
vn -0.608622 -0.792483 -0.039353
vn 0.002901 -0.043982 0.999028
vn 0.086533 -0.044844 -0.995239
vn -0.492249 0.869591 -0.038760
vn 0.105437 0.033911 0.993848
vn 0.512923 -0.858341 -0.012698
vn 0.164557 0.040708 -0.985527
vn 0.512923 -0.858341 -0.012698
vn 0.021742 -0.035179 -0.999144
vn -0.556958 0.829818 -0.034646
vn 0.493227 -0.869587 -0.023359
vn 0.060839 0.054375 0.996665
vn 0.493227 -0.869587 -0.023359
vn -0.850592 0.523687 0.047384
vn -0.539965 0.261482 0.800041
vn -0.786748 -0.615136 -0.051332
vn -0.145202 -0.551193 0.821646
vn -0.574218 0.818551 -0.015782
vn 0.060839 0.054375 0.996665
vn -0.152139 -0.402176 -0.902833
vn 0.021742 -0.035179 -0.999144
vn 0.450060 -0.086058 0.888842
vn -0.145202 -0.551193 0.821646
vn -0.786748 -0.615136 -0.051332
vn 0.471126 -0.877186 -0.092649
vn -0.152139 -0.402176 -0.902833
vn 0.652086 -0.758115 -0.006806
vn -0.539965 0.261482 0.800041
vn 0.450060 -0.086058 0.888842
vn 0.255064 -0.808326 -0.530614
vn 0.060839 0.054375 0.996665
vn 0.516575 -0.852276 -0.082317
vn 0.439534 -0.823820 -0.357952
vn 0.021742 -0.035179 -0.999144
vn 0.180534 -0.048816 -0.982357
vn 0.058308 -0.049005 -0.997095
vn 0.000000 -0.243142 -0.969991
vn 0.000000 -0.017837 -0.999841
vn 0.000000 0.320659 -0.947195
vn 0.040887 -0.495324 0.867746
vn 0.004063 -0.947814 -0.318797
vn 0.040887 -0.495324 0.867746
vn -0.997184 -0.049268 0.056546
vn 0.040887 -0.495324 0.867746
vn -0.999940 0.008125 -0.007344
vn -0.257175 -0.210802 -0.943093
vn 0.257175 -0.210802 -0.943093
vn -0.095055 0.268145 -0.958677
vn -0.089371 -0.595276 -0.798536
vn 0.000000 0.320659 -0.947195
vn -0.516575 -0.852276 -0.082317
vn 0.000000 0.857204 0.514977
vn 0.095055 0.268145 -0.958677
vn -0.011578 0.702739 0.711354
vn 0.095055 0.268145 -0.958677
vn -0.006165 -0.362034 0.932145
vn 0.089371 -0.595276 -0.798536
vn 0.089371 -0.595276 -0.798536
vn 0.000000 0.320659 -0.947195
vn -0.574218 0.818551 -0.015782
vn 0.516575 -0.852276 -0.082317
vn 0.516575 -0.852276 -0.082317
vn -0.997184 -0.049268 0.056546
f 1/1/1 2/2/2 3/3/3
f 4/4/4 5/5/5 6/6/6
f 7/7/7 8/8/8 9/9/9
f 10/10/10 11/11/11 5/5/5
f 4/4/4 12/12/12 10/10/10
f 13/13/13 8/8/8 11/11/11
f 13/13/13 3/3/3 14/14/14
f 6/6/6 15/15/15 16/16/16
f 4/4/4 17/17/17 12/12/12
f 3/3/3 18/18/18 14/14/14
f 18/18/18 8/8/8 14/14/14
f 19/19/19 20/20/20 21/21/21
f 22/22/22 23/23/23 24/24/24
f 25/25/25 21/21/21 26/26/26
f 27/27/27 24/24/24 20/20/20
f 27/27/27 28/28/28 29/29/29
f 22/22/22 30/30/30 31/31/31
f 19/19/19 32/32/32 28/28/28
f 27/27/27 33/33/33 22/22/22
f 29/29/29 28/28/28 34/34/34
f 33/33/33 35/35/35 30/30/30
f 28/28/28 36/36/36 34/34/34
f 33/33/33 29/29/29 37/37/37
f 21/21/21 38/38/38 26/26/26
f 24/24/24 39/39/39 40/40/40
f 39/39/39 41/41/41 40/40/40
f 42/42/42 43/43/43 38/38/38
f 44/44/44 45/45/45 46/46/46
f 44/44/44 47/47/47 48/48/48
f 49/49/49 50/50/50 51/51/51
f 52/52/52 21/21/21 20/20/20
f 53/53/53 54/54/54 55/55/55
f 56/56/56 57/57/57 58/58/58
f 59/59/59 55/55/55 57/57/57
f 60/60/60 58/58/58 61/61/61
f 62/62/62 55/55/55 63/63/63
f 57/57/57 64/64/64 58/58/58
f 61/61/61 64/64/64 65/65/65
f 57/57/57 54/54/54 66/66/66
f 47/47/47 63/63/63 48/48/48
f 67/67/67 60/60/60 68/68/68
f 45/45/45 63/63/63 59/59/59
f 67/67/67 59/59/59 56/56/56
f 69/69/69 70/70/70 71/71/71
f 69/69/69 72/72/72 73/73/73
f 73/73/73 74/74/74 70/70/70
f 73/73/73 75/75/75 76/76/76
f 77/77/77 78/78/78 79/79/79
f 80/80/80 81/81/81 82/82/82
f 79/79/79 83/83/83 84/84/84
f 85/85/85 86/86/86 81/81/81
f 71/71/71 70/70/70 78/78/78
f 82/82/82 81/81/81 72/72/72
f 83/83/83 70/70/70 74/74/74
f 72/72/72 86/86/86 75/75/75
f 87/87/87 88/88/88 89/89/89
f 90/90/90 91/91/91 89/89/89
f 89/89/89 88/88/88 90/90/90
f 92/92/92 88/88/88 87/87/87
f 35/35/35 93/93/93 94/94/94
f 36/36/36 95/95/95 34/34/34
f 93/93/93 35/35/35 37/37/37
f 96/96/96 93/93/93 37/37/37
f 96/96/96 34/34/34 95/95/95
f 17/17/17 97/97/97 98/98/98
f 97/97/97 16/16/16 99/99/99
f 16/16/16 100/100/100 99/99/99
f 93/93/93 96/96/96 101/101/101
f 101/101/101 96/96/96 95/95/95
f 102/102/102 103/103/103 104/104/104
f 102/102/102 105/105/105 106/106/106
f 107/107/107 102/102/102 104/104/104
f 107/107/107 105/105/105 102/102/102
f 108/108/108 104/104/104 103/103/103
f 106/106/106 105/105/105 109/109/109
f 108/108/108 110/110/110 104/104/104
f 107/107/107 110/110/110 111/111/111
f 109/109/109 112/112/112 113/113/113
f 107/107/107 112/112/112 105/105/105
f 111/111/111 110/110/110 114/114/114
f 113/113/113 112/112/112 115/115/115
f 112/112/112 111/111/111 115/115/115
f 110/110/110 116/116/116 114/114/114
f 117/117/117 118/118/118 115/115/115
f 119/119/119 118/118/118 120/120/120
f 117/117/117 121/121/121 122/122/122
f 123/123/123 121/121/121 114/114/114
f 114/114/114 116/116/116 123/123/123
f 111/111/111 114/114/114 117/117/117
f 113/113/113 115/115/115 119/119/119
f 115/115/115 111/111/111 117/117/117
f 124/124/124 125/125/125 126/126/126
f 127/127/127 124/124/124 126/126/126
f 125/125/125 128/128/128 129/129/129
f 51/51/51 124/124/124 130/130/130
f 127/127/127 130/130/130 124/124/124
f 131/131/131 128/128/128 49/49/49
f 125/125/125 129/129/129 132/132/132
f 133/133/133 134/134/134 135/135/135
f 136/136/136 135/135/135 134/134/134
f 133/133/133 137/137/137 134/134/134
f 136/136/136 137/137/137 138/138/138
f 139/139/139 140/140/140 141/141/141
f 142/142/142 141/141/141 140/140/140
f 143/143/143 144/144/144 142/142/142
f 141/141/141 142/142/142 144/144/144
f 137/137/137 145/145/145 138/138/138
f 146/146/146 141/141/141 144/144/144
f 144/144/144 137/137/137 146/146/146
f 12/12/12 13/13/13 10/10/10
f 6/6/6 147/147/147 148/148/148
f 12/12/12 149/149/149 1/1/1
f 5/5/5 7/7/7 147/147/147
f 150/150/150 98/98/98 151/151/151
f 141/141/141 152/152/152 139/139/139
f 146/146/146 153/153/153 141/141/141
f 125/125/125 154/154/154 155/155/155
f 156/156/156 157/157/157 153/153/153
f 16/16/16 4/4/4 6/6/6
f 17/17/17 158/158/158 12/12/12
f 159/159/159 45/45/45 67/67/67
f 160/160/160 67/67/67 68/68/68
f 52/52/52 24/24/24 40/40/40
f 161/161/161 162/162/162 163/163/163
f 164/164/164 165/165/165 166/166/166
f 7/7/7 167/167/167 168/168/168
f 168/168/168 169/169/169 164/164/164
f 165/165/165 169/169/169 170/170/170
f 167/167/167 171/171/171 168/168/168
f 171/171/171 172/172/172 161/161/161
f 166/166/166 173/173/173 148/148/148
f 165/165/165 170/170/170 174/174/174
f 172/172/172 175/175/175 162/162/162
f 167/167/167 175/175/175 176/176/176
f 177/177/177 178/178/178 179/179/179
f 180/180/180 23/23/23 31/31/31
f 181/181/181 182/182/182 177/177/177
f 179/179/179 183/183/183 180/180/180
f 179/179/179 184/184/184 177/177/177
f 30/30/30 180/180/180 31/31/31
f 177/177/177 185/185/185 181/181/181
f 186/186/186 179/179/179 180/180/180
f 187/187/187 188/188/188 184/184/184
f 35/35/35 186/186/186 30/30/30
f 184/184/184 189/189/189 185/185/185
f 186/186/186 190/190/190 187/187/187
f 191/191/191 182/182/182 192/192/192
f 183/183/183 39/39/39 23/23/23
f 39/39/39 193/193/193 41/41/41
f 194/194/194 191/191/191 195/195/195
f 196/196/196 197/197/197 198/198/198
f 197/197/197 199/199/199 200/200/200
f 201/201/201 202/202/202 203/203/203
f 182/182/182 204/204/204 178/178/178
f 205/205/205 206/206/206 207/207/207
f 208/208/208 209/209/209 210/210/210
f 210/210/210 207/207/207 211/211/211
f 212/212/212 213/213/213 208/208/208
f 207/207/207 214/214/214 211/211/211
f 215/215/215 209/209/209 213/213/213
f 216/216/216 215/215/215 213/213/213
f 209/209/209 205/205/205 207/207/207
f 211/211/211 199/199/199 217/217/217
f 212/212/212 218/218/218 219/219/219
f 196/196/196 211/211/211 217/217/217
f 218/218/218 210/210/210 196/196/196
f 220/220/220 221/221/221 222/222/222
f 221/221/221 223/223/223 224/224/224
f 225/225/225 226/226/226 220/220/220
f 226/226/226 227/227/227 223/223/223
f 228/228/228 229/229/229 222/222/222
f 230/230/230 231/231/231 224/224/224
f 232/232/232 233/233/233 229/229/229
f 234/234/234 235/235/235 230/230/230
f 222/222/222 229/229/229 220/220/220
f 224/224/224 223/223/223 230/230/230
f 220/220/220 233/233/233 225/225/225
f 223/223/223 234/234/234 230/230/230
f 236/236/236 237/237/237 238/238/238
f 239/239/239 237/237/237 240/240/240
f 237/237/237 239/239/239 238/238/238
f 241/241/241 236/236/236 238/238/238
f 35/35/35 94/94/94 242/242/242
f 243/243/243 189/189/189 188/188/188
f 242/242/242 190/190/190 35/35/35
f 244/244/244 190/190/190 242/242/242
f 244/244/244 243/243/243 188/188/188
f 245/245/245 174/174/174 246/246/246
f 245/245/245 247/247/247 165/165/165
f 248/248/248 247/247/247 249/249/249
f 242/242/242 250/250/250 244/244/244
f 250/250/250 243/243/243 244/244/244
f 251/251/251 252/252/252 253/253/253
f 251/251/251 254/254/254 255/255/255
f 256/256/256 252/252/252 251/251/251
f 256/256/256 251/251/251 255/255/255
f 257/257/257 253/253/253 252/252/252
f 254/254/254 258/258/258 255/255/255
f 259/259/259 257/257/257 252/252/252
f 256/256/256 259/259/259 252/252/252
f 258/258/258 260/260/260 255/255/255
f 260/260/260 256/256/256 255/255/255
f 261/261/261 262/262/262 259/259/259
f 263/263/263 264/264/264 260/260/260
f 260/260/260 264/264/264 261/261/261
f 259/259/259 262/262/262 265/265/265
f 266/266/266 267/267/267 264/264/264
f 268/268/268 266/266/266 264/264/264
f 267/267/267 269/269/269 262/262/262
f 269/269/269 270/270/270 262/262/262
f 262/262/262 270/270/270 265/265/265
f 261/261/261 267/267/267 262/262/262
f 263/263/263 268/268/268 264/264/264
f 264/264/264 267/267/267 261/261/261
f 271/271/271 272/272/272 201/201/201
f 273/273/273 274/274/274 271/271/271
f 275/275/275 272/272/272 276/276/276
f 271/271/271 203/203/203 277/277/277
f 273/273/273 271/271/271 277/277/277
f 278/278/278 202/202/202 275/275/275
f 272/272/272 279/279/279 276/276/276
f 280/280/280 281/281/281 282/282/282
f 283/283/283 282/282/282 281/281/281
f 280/280/280 284/284/284 285/285/285
f 283/283/283 284/284/284 282/282/282
f 286/286/286 287/287/287 288/288/288
f 289/289/289 288/288/288 287/287/287
f 290/290/290 291/291/291 289/289/289
f 287/287/287 290/290/290 289/289/289
f 292/292/292 284/284/284 293/293/293
f 285/285/285 290/290/290 287/287/287
f 290/290/290 285/285/285 284/284/284
f 171/171/171 170/170/170 169/169/169
f 147/147/147 166/166/166 148/148/148
f 170/170/170 163/163/163 294/294/294
f 7/7/7 164/164/164 147/147/147
f 246/246/246 295/295/295 296/296/296
f 297/297/297 287/287/287 286/286/286
f 298/298/298 285/285/285 287/287/287
f 272/272/272 299/299/299 279/279/279
f 300/300/300 298/298/298 301/301/301
f 247/247/247 166/166/166 165/165/165
f 294/294/294 174/174/174 170/170/170
f 196/196/196 302/302/302 218/218/218
f 303/303/303 218/218/218 302/302/302
f 204/204/204 183/183/183 178/178/178
f 1/1/1 149/149/149 2/2/2
f 4/4/4 10/10/10 5/5/5
f 7/7/7 11/11/11 8/8/8
f 10/10/10 13/13/13 11/11/11
f 13/13/13 14/14/14 8/8/8
f 13/13/13 1/1/1 3/3/3
f 6/6/6 148/148/148 15/15/15
f 3/3/3 2/2/2 18/18/18
f 18/18/18 9/9/9 8/8/8
f 19/19/19 27/27/27 20/20/20
f 22/22/22 31/31/31 23/23/23
f 25/25/25 19/19/19 21/21/21
f 27/27/27 22/22/22 24/24/24
f 27/27/27 19/19/19 28/28/28
f 22/22/22 33/33/33 30/30/30
f 19/19/19 25/25/25 32/32/32
f 27/27/27 29/29/29 33/33/33
f 33/33/33 37/37/37 35/35/35
f 28/28/28 32/32/32 36/36/36
f 21/21/21 42/42/42 38/38/38
f 24/24/24 23/23/23 39/39/39
f 44/44/44 48/48/48 45/45/45
f 44/44/44 304/304/304 47/47/47
f 49/49/49 128/128/128 50/50/50
f 52/52/52 42/42/42 21/21/21
f 53/53/53 305/305/305 54/54/54
f 56/56/56 59/59/59 57/57/57
f 59/59/59 63/63/63 55/55/55
f 60/60/60 56/56/56 58/58/58
f 62/62/62 53/53/53 55/55/55
f 57/57/57 66/66/66 64/64/64
f 61/61/61 58/58/58 64/64/64
f 57/57/57 55/55/55 54/54/54
f 47/47/47 62/62/62 63/63/63
f 67/67/67 56/56/56 60/60/60
f 45/45/45 48/48/48 63/63/63
f 67/67/67 45/45/45 59/59/59
f 69/69/69 73/73/73 70/70/70
f 69/69/69 82/82/82 72/72/72
f 73/73/73 76/76/76 74/74/74
f 73/73/73 72/72/72 75/75/75
f 77/77/77 71/71/71 78/78/78
f 80/80/80 85/85/85 81/81/81
f 79/79/79 78/78/78 83/83/83
f 85/85/85 306/306/306 86/86/86
f 83/83/83 78/78/78 70/70/70
f 72/72/72 81/81/81 86/86/86
f 36/36/36 307/307/307 95/95/95
f 17/17/17 4/4/4 97/97/97
f 97/97/97 4/4/4 16/16/16
f 16/16/16 15/15/15 100/100/100
f 108/108/108 116/116/116 110/110/110
f 107/107/107 104/104/104 110/110/110
f 109/109/109 105/105/105 112/112/112
f 107/107/107 111/111/111 112/112/112
f 117/117/117 122/122/122 118/118/118
f 119/119/119 115/115/115 118/118/118
f 117/117/117 114/114/114 121/121/121
f 123/123/123 308/308/308 121/121/121
f 124/124/124 50/50/50 125/125/125
f 125/125/125 50/50/50 128/128/128
f 51/51/51 50/50/50 124/124/124
f 133/133/133 146/146/146 137/137/137
f 136/136/136 134/134/134 137/137/137
f 143/143/143 145/145/145 144/144/144
f 137/137/137 144/144/144 145/145/145
f 12/12/12 1/1/1 13/13/13
f 6/6/6 5/5/5 147/147/147
f 12/12/12 158/158/158 149/149/149
f 5/5/5 11/11/11 7/7/7
f 150/150/150 17/17/17 98/98/98
f 141/141/141 153/153/153 152/152/152
f 146/146/146 156/156/156 153/153/153
f 125/125/125 132/132/132 154/154/154
f 17/17/17 150/150/150 158/158/158
f 159/159/159 46/46/46 45/45/45
f 160/160/160 159/159/159 67/67/67
f 52/52/52 20/20/20 24/24/24
f 161/161/161 172/172/172 162/162/162
f 164/164/164 169/169/169 165/165/165
f 7/7/7 309/309/309 167/167/167
f 168/168/168 171/171/171 169/169/169
f 167/167/167 176/176/176 171/171/171
f 171/171/171 176/176/176 172/172/172
f 166/166/166 247/247/247 173/173/173
f 172/172/172 176/176/176 175/175/175
f 167/167/167 309/309/309 175/175/175
f 177/177/177 182/182/182 178/178/178
f 180/180/180 183/183/183 23/23/23
f 181/181/181 192/192/192 182/182/182
f 179/179/179 178/178/178 183/183/183
f 179/179/179 187/187/187 184/184/184
f 30/30/30 186/186/186 180/180/180
f 177/177/177 184/184/184 185/185/185
f 186/186/186 187/187/187 179/179/179
f 35/35/35 190/190/190 186/186/186
f 184/184/184 188/188/188 189/189/189
f 191/191/191 194/194/194 182/182/182
f 183/183/183 193/193/193 39/39/39
f 196/196/196 217/217/217 197/197/197
f 197/197/197 217/217/217 199/199/199
f 201/201/201 275/275/275 202/202/202
f 182/182/182 194/194/194 204/204/204
f 205/205/205 310/310/310 206/206/206
f 208/208/208 213/213/213 209/209/209
f 210/210/210 209/209/209 207/207/207
f 212/212/212 216/216/216 213/213/213
f 207/207/207 206/206/206 214/214/214
f 215/215/215 311/311/311 209/209/209
f 216/216/216 312/312/312 215/215/215
f 209/209/209 311/311/311 205/205/205
f 211/211/211 214/214/214 199/199/199
f 212/212/212 208/208/208 218/218/218
f 196/196/196 210/210/210 211/211/211
f 218/218/218 208/208/208 210/210/210
f 220/220/220 226/226/226 221/221/221
f 221/221/221 226/226/226 223/223/223
f 225/225/225 313/313/313 226/226/226
f 226/226/226 313/313/313 227/227/227
f 228/228/228 232/232/232 229/229/229
f 230/230/230 235/235/235 231/231/231
f 232/232/232 314/314/314 233/233/233
f 234/234/234 315/315/315 235/235/235
f 220/220/220 229/229/229 233/233/233
f 223/223/223 227/227/227 234/234/234
f 243/243/243 316/316/316 189/189/189
f 245/245/245 165/165/165 174/174/174
f 245/245/245 249/249/249 247/247/247
f 248/248/248 173/173/173 247/247/247
f 259/259/259 265/265/265 257/257/257
f 256/256/256 261/261/261 259/259/259
f 258/258/258 263/263/263 260/260/260
f 260/260/260 261/261/261 256/256/256
f 266/266/266 317/317/317 267/267/267
f 268/268/268 318/318/318 266/266/266
f 267/267/267 317/317/317 269/269/269
f 269/269/269 319/319/319 270/270/270
f 271/271/271 274/274/274 272/272/272
f 275/275/275 201/201/201 272/272/272
f 271/271/271 201/201/201 203/203/203
f 280/280/280 282/282/282 284/284/284
f 283/283/283 293/293/293 284/284/284
f 290/290/290 292/292/292 291/291/291
f 292/292/292 290/290/290 284/284/284
f 171/171/171 161/161/161 170/170/170
f 147/147/147 164/164/164 166/166/166
f 170/170/170 161/161/161 163/163/163
f 7/7/7 168/168/168 164/164/164
f 246/246/246 174/174/174 295/295/295
f 297/297/297 298/298/298 287/287/287
f 298/298/298 300/300/300 285/285/285
f 272/272/272 320/320/320 299/299/299
f 294/294/294 295/295/295 174/174/174
f 196/196/196 198/198/198 302/302/302
f 303/303/303 219/219/219 218/218/218
f 204/204/204 193/193/193 183/183/183
