# generated by convert.py (per-primitive gltf_to_obj)
v 0.000000 -0.052629 -0.145350
v 0.000000 -0.052629 -0.145350
v 0.000000 -0.052629 -0.145350
v 0.000000 -0.052629 -0.145350
v 0.000000 0.052629 -0.145350
v 0.000000 0.052629 -0.145350
v 0.000000 0.052629 -0.145350
v 0.000000 0.052629 -0.145350
v 0.125877 -0.052629 -0.072675
v 0.125877 -0.052629 -0.072675
v 0.125877 -0.052629 -0.072675
v 0.125877 -0.052629 -0.072675
v 0.125877 0.052629 -0.072675
v 0.125877 0.052629 -0.072675
v 0.125877 0.052629 -0.072675
v 0.125877 0.052629 -0.072675
v 0.125877 -0.052629 0.072675
v 0.125877 -0.052629 0.072675
v 0.125877 -0.052629 0.072675
v 0.125877 -0.052629 0.072675
v 0.125877 0.052629 0.072675
v 0.125877 0.052629 0.072675
v 0.125877 0.052629 0.072675
v 0.125877 0.052629 0.072675
v 0.000000 -0.052629 0.145350
v 0.000000 -0.052629 0.145350
v 0.000000 -0.052629 0.145350
v 0.000000 -0.052629 0.145350
v 0.000000 0.052629 0.145350
v 0.000000 0.052629 0.145350
v 0.000000 0.052629 0.145350
v 0.000000 0.052629 0.145350
v -0.125877 -0.052629 0.072675
v -0.125877 -0.052629 0.072675
v -0.125877 -0.052629 0.072675
v -0.125877 -0.052629 0.072675
v -0.125877 0.052629 0.072675
v -0.125877 0.052629 0.072675
v -0.125877 0.052629 0.072675
v -0.125877 0.052629 0.072675
v -0.125877 -0.052629 -0.072675
v -0.125877 -0.052629 -0.072675
v -0.125877 -0.052629 -0.072675
v -0.125877 -0.052629 -0.072675
v -0.125877 0.052629 -0.072675
v -0.125877 0.052629 -0.072675
v -0.125877 0.052629 -0.072675
v -0.125877 0.052629 -0.072675
v 0.020190 0.080884 -0.011657
v 0.020190 0.080884 -0.011657
v 0.020190 0.080884 -0.011657
v 0.000000 0.080884 -0.023313
v 0.000000 0.080884 -0.023313
v 0.000000 0.080884 -0.023313
v 0.020190 0.080884 0.011657
v 0.020190 0.080884 0.011657
v 0.020190 0.080884 0.011657
v 0.000000 0.080884 0.023313
v 0.000000 0.080884 0.023313
v 0.000000 0.080884 0.023313
v -0.020190 0.080884 0.011657
v -0.020190 0.080884 0.011657
v -0.020190 0.080884 0.011657
v -0.020190 0.080884 -0.011657
v -0.020190 0.080884 -0.011657
v -0.020190 0.080884 -0.011657
v 0.091723 0.088522 -0.052956
v 0.091723 0.088522 -0.052956
v 0.091723 0.088522 -0.052956
v 0.091723 0.088522 -0.052956
v 0.000000 0.088522 -0.105913
v 0.000000 0.088522 -0.105913
v 0.000000 0.088522 -0.105913
v 0.000000 0.088522 -0.105913
v 0.091723 0.088522 0.052956
v 0.091723 0.088522 0.052956
v 0.091723 0.088522 0.052956
v 0.091723 0.088522 0.052956
v 0.000000 0.088522 0.105913
v 0.000000 0.088522 0.105913
v 0.000000 0.088522 0.105913
v 0.000000 0.088522 0.105913
v -0.091723 0.088522 0.052956
v -0.091723 0.088522 0.052956
v -0.091723 0.088522 0.052956
v -0.091723 0.088522 0.052956
v -0.091723 0.088522 -0.052956
v -0.091723 0.088522 -0.052956
v -0.091723 0.088522 -0.052956
v -0.091723 0.088522 -0.052956
v 0.000000 -0.071656 -0.048122
v 0.000000 -0.071656 -0.048122
v 0.000000 -0.071656 -0.048122
v 0.041675 -0.071656 -0.024061
v 0.041675 -0.071656 -0.024061
v 0.041675 -0.071656 -0.024061
v 0.041675 -0.071656 0.024061
v 0.041675 -0.071656 0.024061
v 0.041675 -0.071656 0.024061
v 0.000000 -0.071656 0.048122
v 0.000000 -0.071656 0.048122
v 0.000000 -0.071656 0.048122
v -0.041675 -0.071656 0.024061
v -0.041675 -0.071656 0.024061
v -0.041675 -0.071656 0.024061
v -0.041675 -0.071656 -0.024061
v -0.041675 -0.071656 -0.024061
v -0.041675 -0.071656 -0.024061
v 0.000000 -0.081212 -0.106717
v 0.000000 -0.081212 -0.106717
v 0.000000 -0.081212 -0.106717
v 0.000000 -0.081212 -0.106717
v 0.092420 -0.081212 -0.053359
v 0.092420 -0.081212 -0.053359
v 0.092420 -0.081212 -0.053359
v 0.092420 -0.081212 -0.053359
v 0.092420 -0.081212 0.053359
v 0.092420 -0.081212 0.053359
v 0.092420 -0.081212 0.053359
v 0.092420 -0.081212 0.053359
v 0.000000 -0.081212 0.106717
v 0.000000 -0.081212 0.106717
v 0.000000 -0.081212 0.106717
v 0.000000 -0.081212 0.106717
v -0.092420 -0.081212 0.053359
v -0.092420 -0.081212 0.053359
v -0.092420 -0.081212 0.053359
v -0.092420 -0.081212 0.053359
v -0.092420 -0.081212 -0.053359
v -0.092420 -0.081212 -0.053359
v -0.092420 -0.081212 -0.053359
v -0.092420 -0.081212 -0.053359
v 0.000000 0.000000 -0.156353
v 0.000000 0.000000 -0.156353
v 0.000000 0.000000 -0.156353
v 0.000000 0.000000 -0.156353
v 0.135406 0.000000 -0.078176
v 0.135406 0.000000 -0.078176
v 0.135406 0.000000 -0.078176
v 0.135406 0.000000 -0.078176
v 0.135406 0.000000 0.078176
v 0.135406 0.000000 0.078176
v 0.135406 0.000000 0.078176
v 0.135406 0.000000 0.078176
v 0.000000 0.000000 0.156353
v 0.000000 0.000000 0.156353
v 0.000000 0.000000 0.156353
v 0.000000 0.000000 0.156353
v -0.135406 0.000000 0.078176
v -0.135406 0.000000 0.078176
v -0.135406 0.000000 0.078176
v -0.135406 0.000000 0.078176
v -0.135406 0.000000 -0.078176
v -0.135406 0.000000 -0.078176
v -0.135406 0.000000 -0.078176
v -0.135406 0.000000 -0.078176
v -0.018981 0.074228 -0.001436
v 0.019833 0.074228 -0.001436
v -0.018981 0.139060 -0.001436
v -0.018981 0.139060 -0.001436
v 0.019833 0.139060 -0.001436
v 0.019833 0.139060 -0.001436
v 0.002119 0.072521 0.018809
v 0.002119 0.072521 -0.020005
v 0.002119 0.137353 0.018809
v 0.002119 0.137353 0.018809
v 0.002119 0.137353 -0.020005
v 0.002119 0.137353 -0.020005
v -0.029535 0.149749 0.000636
v 0.009279 0.149749 0.000636
v -0.008436 0.148042 0.020881
v -0.008436 0.148042 -0.017933
vt 0.226208 0.843055
vt 0.226208 0.843055
vt 0.222748 0.836998
vt 0.222748 0.836998
vt 0.223792 0.944232
vt 0.223792 0.944232
vt 0.227351 0.937393
vt 0.227351 0.937393
vt 0.148440 0.855410
vt 0.148440 0.855410
vt 0.148440 0.855410
vt 0.148440 0.855410
vt 0.147851 0.929472
vt 0.147851 0.929472
vt 0.147851 0.929472
vt 0.147851 0.929472
vt 0.086001 0.855417
vt 0.086001 0.855417
vt 0.086001 0.855417
vt 0.086001 0.855417
vt 0.084657 0.929115
vt 0.084657 0.929115
vt 0.084657 0.929115
vt 0.084657 0.929115
vt 0.011245 0.836998
vt 0.011245 0.836998
vt 0.007784 0.843055
vt 0.007784 0.843055
vt 0.006642 0.937393
vt 0.006642 0.937393
vt 0.010200 0.944232
vt 0.010200 0.944232
vt 0.085553 0.855410
vt 0.085553 0.855410
vt 0.085553 0.855410
vt 0.085553 0.855410
vt 0.086142 0.929472
vt 0.086142 0.929472
vt 0.086142 0.929472
vt 0.086142 0.929472
vt 0.147991 0.855417
vt 0.147991 0.855417
vt 0.147991 0.855417
vt 0.147991 0.855417
vt 0.149336 0.929115
vt 0.149336 0.929115
vt 0.149336 0.929115
vt 0.149336 0.929115
vt 0.297020 0.912393
vt 0.172274 0.902782
vt 0.112999 0.886899
vt 0.306747 0.933249
vt 0.172274 0.902782
vt 0.112999 0.886899
vt 0.274093 0.910387
vt 0.153524 0.972757
vt 0.172274 0.902782
vt 0.260892 0.929237
vt 0.112999 0.886899
vt 0.094249 0.956874
vt 0.270619 0.950096
vt 0.172274 0.902782
vt 0.112999 0.886899
vt 0.293546 0.952102
vt 0.112999 0.886899
vt 0.172274 0.902782
vt 0.145159 0.969281
vt 0.145159 0.969281
vt 0.153524 0.972757
vt 0.094249 0.956874
vt 0.153524 0.972757
vt 0.207211 0.985821
vt 0.094249 0.956874
vt 0.212349 0.985080
vt 0.085128 0.971544
vt 0.085128 0.971544
vt 0.172274 0.902782
vt 0.153524 0.972757
vt 0.094249 0.956874
vt 0.021644 0.985080
vt 0.112999 0.886899
vt 0.026781 0.985821
vt 0.153524 0.972757
vt 0.094249 0.956874
vt 0.088834 0.969281
vt 0.088834 0.969281
vt 0.094249 0.956874
vt 0.153524 0.972757
vt 0.148865 0.971544
vt 0.148865 0.971544
vt 0.132222 0.900756
vt 0.155455 0.919544
vt 0.155455 0.919544
vt 0.116978 0.909287
vt 0.129423 0.934113
vt 0.129423 0.934113
vt 0.101910 0.900490
vt 0.103690 0.919090
vt 0.103690 0.919090
vt 0.101969 0.882930
vt 0.103791 0.889101
vt 0.103791 0.889101
vt 0.117315 0.874381
vt 0.129998 0.874502
vt 0.129998 0.874502
vt 0.132340 0.883279
vt 0.155658 0.889697
vt 0.155658 0.889697
vt 0.187458 0.937911
vt 0.210809 0.801557
vt 0.186981 0.938727
vt 0.206577 0.801557
vt 0.147705 0.817904
vt 0.147705 0.817904
vt 0.129025 0.970997
vt 0.129025 0.970997
vt 0.088681 0.820523
vt 0.088681 0.820523
vt 0.071609 0.937351
vt 0.071609 0.937351
vt 0.072227 0.869703
vt 0.027416 0.801557
vt 0.071609 0.870842
vt 0.023184 0.801557
vt 0.130553 0.837563
vt 0.130553 0.837563
vt 0.086287 0.817904
vt 0.086287 0.817904
vt 0.187786 0.871586
vt 0.187786 0.871586
vt 0.145311 0.820523
vt 0.145311 0.820523
vt 0.229628 0.894283
vt 0.229628 0.894283
vt 0.229628 0.886304
vt 0.229628 0.886304
vt 0.149225 0.892526
vt 0.149225 0.892526
vt 0.149225 0.892526
vt 0.149225 0.892526
vt 0.084247 0.892064
vt 0.084247 0.892064
vt 0.084247 0.892064
vt 0.084247 0.892064
vt 0.004365 0.886304
vt 0.004365 0.886304
vt 0.004365 0.894283
vt 0.004365 0.894283
vt 0.084768 0.892526
vt 0.084768 0.892526
vt 0.084768 0.892526
vt 0.084768 0.892526
vt 0.149746 0.892064
vt 0.149746 0.892064
vt 0.149746 0.892064
vt 0.149746 0.892064
vt 0.260420 0.899595
vt 0.312294 0.899595
vt 0.260420 0.986241
vt 0.260420 0.986241
vt 0.312294 0.986241
vt 0.312294 0.986241
vt 0.260650 0.897313
vt 0.312524 0.897313
vt 0.260650 0.983959
vt 0.260650 0.983959
vt 0.312524 0.983959
vt 0.312524 0.983959
vt 0.246314 1.000526
vt 0.298188 1.000526
vt 0.257880 0.998244
vt 0.309754 0.998244
vn 0.324807 -0.760316 -0.562512
vn 0.491984 -0.178194 -0.852173
vn -0.324807 -0.760316 -0.562512
vn -0.491984 -0.178194 -0.852173
vn 0.362208 0.689316 -0.627414
vn 0.491984 0.178194 -0.852173
vn -0.362208 0.689316 -0.627414
vn -0.491984 0.178194 -0.852173
vn 0.324807 -0.760316 -0.562512
vn 0.491984 -0.178194 -0.852173
vn 0.649588 -0.760286 0.000000
vn 0.983995 -0.178199 0.000000
vn 0.362208 0.689316 -0.627414
vn 0.491984 0.178194 -0.852173
vn 0.724440 0.689338 0.000000
vn 0.983995 0.178199 0.000000
vn 0.324807 -0.760316 0.562512
vn 0.491984 -0.178194 0.852173
vn 0.649588 -0.760286 0.000000
vn 0.983995 -0.178199 0.000000
vn 0.362208 0.689316 0.627414
vn 0.491984 0.178194 0.852173
vn 0.724440 0.689338 0.000000
vn 0.983995 0.178199 0.000000
vn 0.324807 -0.760316 0.562512
vn 0.491984 -0.178194 0.852173
vn -0.324807 -0.760316 0.562512
vn -0.491984 -0.178194 0.852173
vn 0.362208 0.689316 0.627414
vn 0.491984 0.178194 0.852173
vn -0.362208 0.689316 0.627414
vn -0.491984 0.178194 0.852173
vn -0.324807 -0.760316 0.562512
vn -0.491984 -0.178194 0.852173
vn -0.649588 -0.760286 0.000000
vn -0.983995 -0.178199 0.000000
vn -0.362208 0.689316 0.627414
vn -0.491984 0.178194 0.852173
vn -0.724440 0.689338 0.000000
vn -0.983995 0.178199 0.000000
vn -0.324807 -0.760316 -0.562512
vn -0.491984 -0.178194 -0.852173
vn -0.649588 -0.760286 0.000000
vn -0.983995 -0.178199 0.000000
vn -0.362208 0.689316 -0.627414
vn -0.491984 0.178194 -0.852173
vn -0.724440 0.689338 0.000000
vn -0.983995 0.178199 0.000000
vn 0.000000 1.000000 0.000000
vn -0.053103 0.994351 0.091905
vn -0.106205 0.994344 0.000000
vn 0.000000 1.000000 0.000000
vn 0.053103 0.994351 0.091905
vn -0.053103 0.994351 0.091905
vn 0.000000 1.000000 0.000000
vn -0.053103 0.994351 -0.091905
vn -0.106205 0.994344 0.000000
vn 0.000000 1.000000 0.000000
vn 0.053103 0.994351 -0.091905
vn -0.053103 0.994351 -0.091905
vn 0.000000 1.000000 0.000000
vn 0.053103 0.994351 -0.091905
vn 0.106205 0.994344 0.000000
vn 0.000000 1.000000 0.000000
vn 0.053103 0.994351 0.091905
vn 0.106205 0.994344 0.000000
vn 0.362208 0.689316 -0.627414
vn 0.724440 0.689338 0.000000
vn -0.053103 0.994351 0.091905
vn -0.106205 0.994344 0.000000
vn 0.053103 0.994351 0.091905
vn 0.362208 0.689316 -0.627414
vn -0.053103 0.994351 0.091905
vn -0.362208 0.689316 -0.627414
vn 0.362208 0.689316 0.627414
vn 0.724440 0.689338 0.000000
vn -0.053103 0.994351 -0.091905
vn -0.106205 0.994344 0.000000
vn 0.053103 0.994351 -0.091905
vn 0.362208 0.689316 0.627414
vn -0.053103 0.994351 -0.091905
vn -0.362208 0.689316 0.627414
vn 0.053103 0.994351 -0.091905
vn 0.106205 0.994344 0.000000
vn -0.362208 0.689316 0.627414
vn -0.724440 0.689338 0.000000
vn 0.053103 0.994351 0.091905
vn 0.106205 0.994344 0.000000
vn -0.362208 0.689316 -0.627414
vn -0.724440 0.689338 0.000000
vn 0.000000 -1.000000 0.000000
vn 0.092502 -0.982724 0.160304
vn -0.092502 -0.982724 0.160304
vn 0.000000 -1.000000 0.000000
vn -0.092502 -0.982724 0.160304
vn -0.185104 -0.982719 0.000000
vn 0.000000 -1.000000 0.000000
vn -0.092502 -0.982724 -0.160304
vn -0.185104 -0.982719 0.000000
vn 0.000000 -1.000000 0.000000
vn 0.092502 -0.982724 -0.160304
vn -0.092502 -0.982724 -0.160304
vn 0.000000 -1.000000 0.000000
vn 0.092502 -0.982724 -0.160304
vn 0.185104 -0.982719 0.000000
vn 0.000000 -1.000000 0.000000
vn 0.092502 -0.982724 0.160304
vn 0.185104 -0.982719 0.000000
vn 0.092502 -0.982724 0.160304
vn 0.324807 -0.760316 -0.562512
vn -0.092502 -0.982724 0.160304
vn -0.324807 -0.760316 -0.562512
vn 0.324807 -0.760316 -0.562512
vn 0.649588 -0.760286 0.000000
vn -0.092502 -0.982724 0.160304
vn -0.185104 -0.982719 0.000000
vn 0.324807 -0.760316 0.562512
vn 0.649588 -0.760286 0.000000
vn -0.092502 -0.982724 -0.160304
vn -0.185104 -0.982719 0.000000
vn 0.092502 -0.982724 -0.160304
vn 0.324807 -0.760316 0.562512
vn -0.092502 -0.982724 -0.160304
vn -0.324807 -0.760316 0.562512
vn 0.092502 -0.982724 -0.160304
vn 0.185104 -0.982719 0.000000
vn -0.324807 -0.760316 0.562512
vn -0.649588 -0.760286 0.000000
vn 0.092502 -0.982724 0.160304
vn 0.185104 -0.982719 0.000000
vn -0.324807 -0.760316 -0.562512
vn -0.649588 -0.760286 0.000000
vn 0.491984 0.178194 -0.852173
vn 0.491984 -0.178194 -0.852173
vn -0.491984 0.178194 -0.852173
vn -0.491984 -0.178194 -0.852173
vn 0.491984 0.178194 -0.852173
vn 0.491984 -0.178194 -0.852173
vn 0.983995 0.178199 0.000000
vn 0.983995 -0.178199 0.000000
vn 0.491984 0.178194 0.852173
vn 0.491984 -0.178194 0.852173
vn 0.983995 0.178199 0.000000
vn 0.983995 -0.178199 0.000000
vn 0.491984 0.178194 0.852173
vn 0.491984 -0.178194 0.852173
vn -0.491984 0.178194 0.852173
vn -0.491984 -0.178194 0.852173
vn -0.491984 0.178194 0.852173
vn -0.491984 -0.178194 0.852173
vn -0.983995 0.178199 0.000000
vn -0.983995 -0.178199 0.000000
vn -0.491984 0.178194 -0.852173
vn -0.491984 -0.178194 -0.852173
vn -0.983995 0.178199 0.000000
vn -0.983995 -0.178199 0.000000
vn 0.000000 0.000000 1.000000
vn 0.000000 0.000000 1.000000
vn 0.000000 0.000000 1.000000
vn 0.000000 -0.190401 0.981706
vn 0.000000 0.000000 1.000000
vn 0.000000 -0.190401 0.981706
vn 1.000000 0.000000 0.000000
vn 1.000000 0.000000 0.000000
vn 0.711543 0.702643 0.000000
vn 1.000000 0.000000 0.000000
vn 0.711543 0.702643 0.000000
vn 1.000000 0.000000 0.000000
vn 0.000000 -0.190401 0.981706
vn 0.000000 -0.190401 0.981706
vn 0.711543 0.702643 0.000000
vn 0.711543 0.702643 0.000000
f 133/133/133 6/6/6 14/14/14
f 133/133/133 14/14/14 137/137/137
f 139/139/139 16/16/16 24/24/24
f 139/139/139 24/24/24 143/143/143
f 141/141/141 22/22/22 30/30/30
f 141/141/141 30/30/30 145/145/145
f 147/147/147 32/32/32 38/38/38
f 147/147/147 38/38/38 149/149/149
f 47/47/47 39/39/39 86/86/86
f 47/47/47 86/86/86 90/90/90
f 151/151/151 40/40/40 48/48/48
f 151/151/151 48/48/48 155/155/155
f 153/153/153 46/46/46 8/8/8
f 153/153/153 8/8/8 135/135/135
f 17/17/17 25/25/25 122/122/122
f 17/17/17 122/122/122 117/117/117
f 55/55/55 49/49/49 52/52/52
f 52/52/52 64/64/64 61/61/61
f 61/61/61 58/58/58 55/55/55
f 52/52/52 61/61/61 55/55/55
f 13/13/13 5/5/5 72/72/72
f 13/13/13 72/72/72 67/67/67
f 29/29/29 21/21/21 75/75/75
f 29/29/29 75/75/75 80/80/80
f 7/7/7 45/45/45 89/89/89
f 7/7/7 89/89/89 74/74/74
f 37/37/37 31/31/31 82/82/82
f 37/37/37 82/82/82 85/85/85
f 23/23/23 15/15/15 68/68/68
f 23/23/23 68/68/68 76/76/76
f 54/54/54 50/50/50 69/69/69
f 54/54/54 69/69/69 73/73/73
f 51/51/51 57/57/57 78/78/78
f 51/51/51 78/78/78 70/70/70
f 56/56/56 60/60/60 81/81/81
f 56/56/56 81/81/81 77/77/77
f 59/59/59 62/62/62 83/83/83
f 59/59/59 83/83/83 79/79/79
f 63/63/63 66/66/66 88/88/88
f 63/63/63 88/88/88 84/84/84
f 65/65/65 53/53/53 71/71/71
f 65/65/65 71/71/71 87/87/87
f 106/106/106 91/91/91 94/94/94
f 94/94/94 97/97/97 100/100/100
f 100/100/100 103/103/103 106/106/106
f 94/94/94 100/100/100 106/106/106
f 41/41/41 3/3/3 112/112/112
f 41/41/41 112/112/112 131/131/131
f 27/27/27 33/33/33 127/127/127
f 27/27/27 127/127/127 124/124/124
f 11/11/11 19/19/19 118/118/118
f 11/11/11 118/118/118 114/114/114
f 35/35/35 43/43/43 132/132/132
f 35/35/35 132/132/132 128/128/128
f 1/1/1 9/9/9 113/113/113
f 1/1/1 113/113/113 110/110/110
f 95/95/95 93/93/93 111/111/111
f 95/95/95 111/111/111 115/115/115
f 99/99/99 96/96/96 116/116/116
f 99/99/99 116/116/116 120/120/120
f 102/102/102 98/98/98 119/119/119
f 102/102/102 119/119/119 123/123/123
f 104/104/104 101/101/101 121/121/121
f 104/104/104 121/121/121 125/125/125
f 108/108/108 105/105/105 126/126/126
f 108/108/108 126/126/126 130/130/130
f 92/92/92 107/107/107 129/129/129
f 92/92/92 129/129/129 109/109/109
f 42/42/42 154/154/154 136/136/136
f 42/42/42 136/136/136 4/4/4
f 36/36/36 152/152/152 156/156/156
f 36/36/36 156/156/156 44/44/44
f 28/28/28 148/148/148 150/150/150
f 28/28/28 150/150/150 34/34/34
f 18/18/18 142/142/142 146/146/146
f 18/18/18 146/146/146 26/26/26
f 12/12/12 140/140/140 144/144/144
f 12/12/12 144/144/144 20/20/20
f 2/2/2 134/134/134 138/138/138
f 2/2/2 138/138/138 10/10/10
f 157/157/157 158/158/158 161/161/161
f 157/157/157 161/161/161 159/159/159
f 163/163/163 164/164/164 168/168/168
f 163/163/163 168/168/168 166/166/166
f 165/165/165 167/167/167 172/172/172
f 165/165/165 172/172/172 171/171/171
f 160/160/160 162/162/162 170/170/170
f 160/160/160 170/170/170 169/169/169
