# generated by convert.py (per-primitive gltf_to_obj)
v -0.183175 0.954017 -0.182991
v -0.183175 0.954017 -0.182991
v -0.183175 0.954017 -0.182991
v -0.000676 0.954017 -0.258585
v -0.000676 0.954017 -0.258585
v -0.000676 0.954017 -0.258585
v -0.258769 0.954017 -0.000492
v -0.258769 0.954017 -0.000492
v -0.258769 0.954017 -0.000492
v -0.183175 0.954017 0.182008
v -0.183175 0.954017 0.182008
v -0.183175 0.954017 0.182008
v -0.000676 0.954017 0.257602
v -0.000676 0.954017 0.257602
v -0.000676 0.954017 0.257602
v 0.181824 0.954017 0.182008
v 0.181824 0.954017 0.182008
v 0.181824 0.954017 0.182008
v 0.257418 0.954017 -0.000492
v 0.257418 0.954017 -0.000492
v 0.257418 0.954017 -0.000492
v 0.181824 0.954017 -0.182991
v 0.181824 0.954017 -0.182991
v 0.181824 0.954017 -0.182991
v -0.198068 1.039261 -0.197884
v -0.198068 1.039261 -0.197884
v -0.198068 1.039261 -0.197884
v -0.204158 1.024812 -0.203974
v -0.204158 1.024812 -0.203974
v -0.204158 1.024812 -0.203974
v -0.204158 1.024812 -0.203974
v -0.000676 1.024812 -0.288259
v -0.000676 1.024812 -0.288259
v -0.000676 1.024812 -0.288259
v -0.000676 1.024812 -0.288259
v -0.000676 1.039261 -0.279646
v -0.000676 1.039261 -0.279646
v -0.000676 1.039261 -0.279646
v -0.279830 1.039261 -0.000492
v -0.279830 1.039261 -0.000492
v -0.279830 1.039261 -0.000492
v -0.288444 1.024812 -0.000492
v -0.288444 1.024812 -0.000492
v -0.288444 1.024812 -0.000492
v -0.288444 1.024812 -0.000492
v -0.198068 1.039261 0.196900
v -0.198068 1.039261 0.196900
v -0.198068 1.039261 0.196900
v -0.204158 1.024812 0.202991
v -0.204158 1.024812 0.202991
v -0.204158 1.024812 0.202991
v -0.204158 1.024812 0.202991
v -0.000676 1.039261 0.278663
v -0.000676 1.039261 0.278663
v -0.000676 1.039261 0.278663
v -0.000676 1.024812 0.287276
v -0.000676 1.024812 0.287276
v -0.000676 1.024812 0.287276
v -0.000676 1.024812 0.287276
v 0.196716 1.039261 0.196900
v 0.196716 1.039261 0.196900
v 0.196716 1.039261 0.196900
v 0.202807 1.024812 0.202991
v 0.202807 1.024812 0.202991
v 0.202807 1.024812 0.202991
v 0.202807 1.024812 0.202991
v 0.278479 1.039261 -0.000492
v 0.278479 1.039261 -0.000492
v 0.278479 1.039261 -0.000492
v 0.287092 1.024812 -0.000492
v 0.287092 1.024812 -0.000492
v 0.287092 1.024812 -0.000492
v 0.287092 1.024812 -0.000492
v 0.196716 1.039261 -0.197884
v 0.196716 1.039261 -0.197884
v 0.196716 1.039261 -0.197884
v 0.202807 1.024812 -0.203974
v 0.202807 1.024812 -0.203974
v 0.202807 1.024812 -0.203974
v 0.202807 1.024812 -0.203974
vt 0.513607 1.053797
vt 0.513607 1.327109
vt 0.648687 1.327109
vt 0.581789 1.082039
vt 0.581789 1.327109
vt 0.581789 1.327109
vt 0.485365 0.985616
vt 0.580506 1.327109
vt 0.580506 1.327109
vt 0.513607 0.917435
vt 0.513607 1.327109
vt 0.512324 1.327109
vt 0.581789 0.889193
vt 0.581789 1.327109
vt 0.581789 1.327109
vt 0.649970 0.917435
vt 0.649970 1.327109
vt 0.512324 1.327109
vt 0.678212 0.985616
vt 0.580506 1.327109
vt 0.580506 1.327109
vt 0.649970 1.053797
vt 0.649970 1.327109
vt 0.648687 1.327109
vt 0.508043 1.059361
vt 0.508043 1.358956
vt 0.654251 1.358956
vt 0.505768 1.353558
vt 0.505768 1.353558
vt 0.656526 1.353558
vt 0.656526 1.353558
vt 0.581789 1.353558
vt 0.581789 1.353558
vt 0.581789 1.353558
vt 0.581789 1.353558
vt 0.581789 1.089908
vt 0.581789 1.358956
vt 0.581789 1.358956
vt 0.477497 0.985616
vt 0.580506 1.358956
vt 0.580506 1.358956
vt 0.580506 1.353558
vt 0.580506 1.353558
vt 0.580506 1.353558
vt 0.580506 1.353558
vt 0.508043 0.911871
vt 0.508043 1.358956
vt 0.506760 1.358956
vt 0.505768 1.353558
vt 0.505768 1.353558
vt 0.504485 1.353558
vt 0.504485 1.353558
vt 0.581789 0.881325
vt 0.581789 1.358956
vt 0.581789 1.358956
vt 0.581789 1.353558
vt 0.581789 1.353558
vt 0.581789 1.353558
vt 0.581789 1.353558
vt 0.655534 0.911871
vt 0.655534 1.358956
vt 0.506760 1.358956
vt 0.657809 1.353558
vt 0.657809 1.353558
vt 0.504485 1.353558
vt 0.504485 1.353558
vt 0.686080 0.985616
vt 0.580506 1.358956
vt 0.580506 1.358956
vt 0.580506 1.353558
vt 0.580506 1.353558
vt 0.580506 1.353558
vt 0.580506 1.353558
vt 0.655534 1.059361
vt 0.655534 1.358956
vt 0.654251 1.358956
vt 0.657809 1.353558
vt 0.657809 1.353558
vt 0.656526 1.353558
vt 0.656526 1.353558
vn 0.000000 1.000000 0.000000
vn 0.356908 0.361108 0.861520
vn 0.861520 0.361108 0.356908
vn 0.000000 1.000000 0.000000
vn 0.356908 0.361108 0.861520
vn -0.356908 0.361108 0.861520
vn 0.000000 1.000000 0.000000
vn 0.861520 0.361108 0.356908
vn 0.861520 0.361108 -0.356908
vn 0.000000 1.000000 0.000000
vn 0.356908 0.361108 -0.861520
vn 0.861520 0.361108 -0.356908
vn 0.000000 1.000000 0.000000
vn 0.356908 0.361108 -0.861520
vn -0.356908 0.361108 -0.861520
vn 0.000000 1.000000 0.000000
vn -0.356908 0.361108 -0.861520
vn -0.861520 0.361108 -0.356908
vn 0.000000 1.000000 0.000000
vn -0.861520 0.361108 0.356908
vn -0.861520 0.361108 -0.356908
vn 0.000000 1.000000 0.000000
vn -0.356908 0.361108 0.861520
vn -0.861520 0.361108 0.356908
vn 0.000000 -1.000000 0.000000
vn 0.335194 -0.482391 0.809286
vn 0.809286 -0.482391 0.335194
vn 0.335194 -0.482391 0.809286
vn 0.356908 0.361108 0.861520
vn 0.809286 -0.482391 0.335194
vn 0.861520 0.361108 0.356908
vn 0.335194 -0.482391 0.809286
vn 0.356908 0.361108 0.861520
vn -0.335194 -0.482391 0.809286
vn -0.356908 0.361108 0.861520
vn 0.000000 -1.000000 0.000000
vn 0.335194 -0.482391 0.809286
vn -0.335194 -0.482391 0.809286
vn 0.000000 -1.000000 0.000000
vn 0.809286 -0.482391 0.335194
vn 0.809286 -0.482391 -0.335194
vn 0.809286 -0.482391 0.335194
vn 0.809286 -0.482391 -0.335194
vn 0.861520 0.361108 0.356908
vn 0.861520 0.361108 -0.356908
vn 0.000000 -1.000000 0.000000
vn 0.335194 -0.482391 -0.809286
vn 0.809286 -0.482391 -0.335194
vn 0.335194 -0.482391 -0.809286
vn 0.356908 0.361108 -0.861520
vn 0.809286 -0.482391 -0.335194
vn 0.861520 0.361108 -0.356908
vn 0.000000 -1.000000 0.000000
vn 0.335194 -0.482391 -0.809286
vn -0.335194 -0.482391 -0.809286
vn 0.335194 -0.482391 -0.809286
vn 0.356908 0.361108 -0.861520
vn -0.335194 -0.482391 -0.809286
vn -0.356908 0.361108 -0.861520
vn 0.000000 -1.000000 0.000000
vn -0.335194 -0.482391 -0.809286
vn -0.809286 -0.482391 -0.335194
vn -0.335194 -0.482391 -0.809286
vn -0.356908 0.361108 -0.861520
vn -0.809286 -0.482391 -0.335194
vn -0.861520 0.361108 -0.356908
vn 0.000000 -1.000000 0.000000
vn -0.809286 -0.482391 0.335194
vn -0.809286 -0.482391 -0.335194
vn -0.809286 -0.482391 0.335194
vn -0.809286 -0.482391 -0.335194
vn -0.861520 0.361108 0.356908
vn -0.861520 0.361108 -0.356908
vn 0.000000 -1.000000 0.000000
vn -0.335194 -0.482391 0.809286
vn -0.809286 -0.482391 0.335194
vn -0.335194 -0.482391 0.809286
vn -0.356908 0.361108 0.861520
vn -0.809286 -0.482391 0.335194
vn -0.861520 0.361108 0.356908
f 33/33/33 29/29/29 2/2/2
f 33/33/33 2/2/2 5/5/5
f 66/66/66 73/73/73 21/21/21
f 66/66/66 21/21/21 18/18/18
f 50/50/50 57/57/57 14/14/14
f 50/50/50 14/14/14 11/11/11
f 78/78/78 35/35/35 6/6/6
f 78/78/78 6/6/6 23/23/23
f 45/45/45 52/52/52 12/12/12
f 45/45/45 12/12/12 9/9/9
f 72/72/72 80/80/80 24/24/24
f 72/72/72 24/24/24 20/20/20
f 59/59/59 64/64/64 17/17/17
f 59/59/59 17/17/17 15/15/15
f 31/31/31 44/44/44 8/8/8
f 31/31/31 8/8/8 3/3/3
f 4/4/4 1/1/1 7/7/7
f 7/7/7 10/10/10 13/13/13
f 13/13/13 16/16/16 19/19/19
f 19/19/19 22/22/22 4/4/4
f 4/4/4 7/7/7 13/13/13
f 13/13/13 19/19/19 4/4/4
f 28/28/28 32/32/32 37/37/37
f 28/28/28 37/37/37 26/26/26
f 42/42/42 30/30/30 27/27/27
f 42/42/42 27/27/27 40/40/40
f 51/51/51 43/43/43 41/41/41
f 51/51/51 41/41/41 48/48/48
f 56/56/56 49/49/49 47/47/47
f 56/56/56 47/47/47 54/54/54
f 63/63/63 58/58/58 55/55/55
f 63/63/63 55/55/55 61/61/61
f 71/71/71 65/65/65 62/62/62
f 71/71/71 62/62/62 69/69/69
f 79/79/79 70/70/70 68/68/68
f 79/79/79 68/68/68 76/76/76
f 34/34/34 77/77/77 75/75/75
f 34/34/34 75/75/75 38/38/38
f 39/39/39 25/25/25 36/36/36
f 36/36/36 74/74/74 67/67/67
f 67/67/67 60/60/60 53/53/53
f 53/53/53 46/46/46 39/39/39
f 39/39/39 36/36/36 67/67/67
f 67/67/67 53/53/53 39/39/39
