# generated by convert.py (per-primitive gltf_to_obj)
v 0.000000 -0.500000 0.576963
v 0.000000 6.100000 0.159242
v 4.000000 5.100000 -0.295256
v 3.500000 0.000000 0.122464
v 3.500000 0.000000 0.122464
v 4.000000 5.100000 -0.295256
v 3.624072 5.100000 0.127781
v 3.124072 0.000000 0.545502
v 0.000000 -7.100000 0.326294
v 3.000000 -5.100000 -0.128204
v 2.624072 -5.100000 0.294833
v 0.000000 -7.100000 0.749332
v 4.000000 5.100000 -0.295256
v 0.000000 6.100000 0.159242
v 0.000000 6.100000 0.582279
v 3.624072 5.100000 0.127781
v 3.124072 0.000000 0.545502
v 3.624072 5.100000 0.127781
v 0.000000 6.100000 0.582279
v 0.000000 -0.500000 1.000000
v 2.624072 -5.100000 0.294833
v 3.124072 0.000000 0.545502
v 0.000000 -0.500000 1.000000
v 0.000000 -7.100000 0.749332
v 3.000000 -5.100000 -0.128204
v 3.500000 0.000000 0.122464
v 3.124072 0.000000 0.545502
v 2.624072 -5.100000 0.294833
v 0.000000 -7.100000 0.326294
v 0.000000 -0.500000 0.576963
v 3.500000 0.000000 0.122464
v 3.000000 -5.100000 -0.128204
v 0.000000 -0.500000 0.576963
v -3.500000 0.000000 0.122464
v -4.000000 5.100000 -0.295256
v 0.000000 6.100000 0.159242
v -3.500000 0.000000 0.122464
v -3.124072 0.000000 0.545502
v -3.624072 5.100000 0.127781
v -4.000000 5.100000 -0.295256
v 0.000000 -7.100000 0.326294
v 0.000000 -7.100000 0.749332
v -2.624072 -5.100000 0.294833
v -3.000000 -5.100000 -0.128204
v -4.000000 5.100000 -0.295256
v -3.624072 5.100000 0.127781
v 0.000000 6.100000 0.582279
v 0.000000 6.100000 0.159242
v -3.124072 0.000000 0.545502
v 0.000000 -0.500000 1.000000
v 0.000000 6.100000 0.582279
v -3.624072 5.100000 0.127781
v -2.624072 -5.100000 0.294833
v 0.000000 -7.100000 0.749332
v 0.000000 -0.500000 1.000000
v -3.124072 0.000000 0.545502
v -3.000000 -5.100000 -0.128204
v -2.624072 -5.100000 0.294833
v -3.124072 0.000000 0.545502
v -3.500000 0.000000 0.122464
v 0.000000 -7.100000 0.326294
v -3.000000 -5.100000 -0.128204
v -3.500000 0.000000 0.122464
v 0.000000 -0.500000 0.576963
vt 0.244144 0.640422
vt 0.244144 0.940592
vt 0.061077 0.896596
vt 0.084130 0.664370
vt 0.076262 0.640694
vt 0.053920 0.447798
vt 0.075294 0.448019
vt 0.097635 0.640915
vt 0.166725 0.940597
vt 0.079723 0.834439
vt 0.101097 0.834661
vt 0.180387 0.932313
vt 0.053920 0.447798
vt 0.168219 0.340653
vt 0.180387 0.351007
vt 0.075294 0.448019
vt 0.653721 0.667520
vt 0.653721 0.978088
vt 0.320050 0.978088
vt 0.320050 0.667520
vt 0.653721 0.357252
vt 0.653721 0.667520
vt 0.320050 0.667520
vt 0.320050 0.357252
vt 0.079723 0.834439
vt 0.076262 0.640694
vt 0.097635 0.640915
vt 0.101097 0.834661
vt 0.240451 0.340658
vt 0.244144 0.640422
vt 0.084130 0.664370
vt 0.103292 0.432285
vt 0.244144 0.640422
vt 0.084130 0.664370
vt 0.061077 0.896596
vt 0.244144 0.940592
vt 0.076262 0.640694
vt 0.097635 0.640915
vt 0.075294 0.448019
vt 0.053920 0.447798
vt 0.166725 0.940597
vt 0.180387 0.932313
vt 0.101097 0.834661
vt 0.079723 0.834439
vt 0.053920 0.447798
vt 0.075294 0.448019
vt 0.180387 0.351007
vt 0.168219 0.340653
vt 0.653721 0.667520
vt 0.320050 0.667520
vt 0.320050 0.978088
vt 0.653721 0.978088
vt 0.653721 0.357252
vt 0.320050 0.357252
vt 0.320050 0.667520
vt 0.653721 0.667520
vt 0.079723 0.834439
vt 0.101097 0.834661
vt 0.097635 0.640915
vt 0.076262 0.640694
vt 0.240451 0.340658
vt 0.103292 0.432285
vt 0.084130 0.664370
vt 0.244144 0.640422
vn -0.124356 -0.065383 -0.990081
vn -0.124356 -0.065383 -0.990081
vn -0.124356 -0.065383 -0.990081
vn -0.124356 -0.065383 -0.990081
vn 0.747368 -0.018874 0.664142
vn 0.747368 -0.018874 0.664142
vn 0.747368 -0.018874 0.664142
vn 0.747368 -0.018874 0.664142
vn 0.587163 -0.766275 0.260889
vn 0.587163 -0.766275 0.260889
vn 0.587163 -0.766275 0.260889
vn 0.587163 -0.766275 0.260889
vn 0.265091 0.957002 0.117785
vn 0.265091 0.957002 0.117785
vn 0.265091 0.957002 0.117785
vn 0.265091 0.957002 0.117785
vn 0.137923 0.064678 0.988329
vn 0.137923 0.064678 0.988329
vn 0.137923 0.064678 0.988329
vn 0.137923 0.064678 0.988329
vn 0.177050 -0.049685 0.982947
vn 0.177050 -0.049685 0.982947
vn 0.177050 -0.049685 0.982947
vn 0.177050 -0.049685 0.982947
vn 0.743342 -0.105344 0.660564
vn 0.743342 -0.105344 0.660564
vn 0.743342 -0.105344 0.660564
vn 0.743342 -0.105344 0.660564
vn -0.156780 0.048967 -0.986419
vn -0.156780 0.048967 -0.986419
vn -0.156780 0.048967 -0.986419
vn -0.156780 0.048967 -0.986419
vn 0.124356 -0.065383 -0.990081
vn 0.124356 -0.065383 -0.990081
vn 0.124356 -0.065383 -0.990081
vn 0.124356 -0.065383 -0.990081
vn -0.747368 -0.018874 0.664142
vn -0.747368 -0.018874 0.664142
vn -0.747368 -0.018874 0.664142
vn -0.747368 -0.018874 0.664142
vn -0.587163 -0.766275 0.260889
vn -0.587163 -0.766275 0.260889
vn -0.587163 -0.766275 0.260889
vn -0.587163 -0.766275 0.260889
vn -0.265091 0.957002 0.117785
vn -0.265091 0.957002 0.117785
vn -0.265091 0.957002 0.117785
vn -0.265091 0.957002 0.117785
vn -0.137923 0.064678 0.988329
vn -0.137923 0.064678 0.988329
vn -0.137923 0.064678 0.988329
vn -0.137923 0.064678 0.988329
vn -0.177050 -0.049685 0.982947
vn -0.177050 -0.049685 0.982947
vn -0.177050 -0.049685 0.982947
vn -0.177050 -0.049685 0.982947
vn -0.743342 -0.105344 0.660564
vn -0.743342 -0.105344 0.660564
vn -0.743342 -0.105344 0.660564
vn -0.743342 -0.105344 0.660564
vn 0.156780 0.048967 -0.986419
vn 0.156780 0.048967 -0.986419
vn 0.156780 0.048967 -0.986419
vn 0.156780 0.048967 -0.986419
f 1/1/1 2/2/2 3/3/3
f 1/1/1 3/3/3 4/4/4
f 5/5/5 6/6/6 7/7/7
f 5/5/5 7/7/7 8/8/8
f 9/9/9 10/10/10 11/11/11
f 9/9/9 11/11/11 12/12/12
f 13/13/13 14/14/14 15/15/15
f 13/13/13 15/15/15 16/16/16
f 17/17/17 18/18/18 19/19/19
f 17/17/17 19/19/19 20/20/20
f 21/21/21 22/22/22 23/23/23
f 21/21/21 23/23/23 24/24/24
f 25/25/25 26/26/26 27/27/27
f 25/25/25 27/27/27 28/28/28
f 29/29/29 30/30/30 31/31/31
f 29/29/29 31/31/31 32/32/32
f 33/33/33 34/34/34 35/35/35
f 33/33/33 35/35/35 36/36/36
f 37/37/37 38/38/38 39/39/39
f 37/37/37 39/39/39 40/40/40
f 41/41/41 42/42/42 43/43/43
f 41/41/41 43/43/43 44/44/44
f 45/45/45 46/46/46 47/47/47
f 45/45/45 47/47/47 48/48/48
f 49/49/49 50/50/50 51/51/51
f 49/49/49 51/51/51 52/52/52
f 53/53/53 54/54/54 55/55/55
f 53/53/53 55/55/55 56/56/56
f 57/57/57 58/58/58 59/59/59
f 57/57/57 59/59/59 60/60/60
f 61/61/61 62/62/62 63/63/63
f 61/61/61 63/63/63 64/64/64
