# generated by convert.py (per-primitive gltf_to_obj)
v -0.100000 0.000000 0.100000
v -0.100000 0.000000 0.100000
v -0.100000 0.000000 0.100000
v -0.100000 2.000000 0.100000
v -0.100000 2.000000 0.100000
v -0.100000 2.000000 0.100000
v -0.100000 0.000000 -0.100000
v -0.100000 0.000000 -0.100000
v -0.100000 0.000000 -0.100000
v -0.100000 2.000000 -0.100000
v -0.100000 2.000000 -0.100000
v -0.100000 2.000000 -0.100000
v 0.100000 0.000000 0.100000
v 0.100000 0.000000 0.100000
v 0.100000 0.000000 0.100000
v 0.100000 2.000000 0.100000
v 0.100000 2.000000 0.100000
v 0.100000 2.000000 0.100000
v 0.100000 0.000000 -0.100000
v 0.100000 0.000000 -0.100000
v 0.100000 0.000000 -0.100000
v 0.100000 2.000000 -0.100000
v 0.100000 2.000000 -0.100000
v 0.100000 2.000000 -0.100000
v -0.075050 1.398413 0.100000
v -0.075050 1.398413 0.100000
v -0.075050 1.398413 0.100000
v -0.075050 1.398413 -0.100000
v -0.075050 1.398413 -0.100000
v -0.075050 1.398413 -0.100000
v 0.124950 1.398413 -0.100000
v 0.124950 1.398413 -0.100000
v 0.124950 1.398413 -0.100000
v 0.124950 1.398413 0.100000
v 0.124950 1.398413 0.100000
v 0.124950 1.398413 0.100000
vt 0.936206 0.497838
vt 0.934785 0.548421
vt 0.935354 0.497849
vt 0.936206 0.593350
vt 0.934785 0.548421
vt 0.935354 0.593331
vt 0.936206 0.497838
vt 0.934785 0.557969
vt 0.946738 0.497849
vt 0.936206 0.593350
vt 0.934785 0.557969
vt 0.946738 0.593331
vt 0.947594 0.497838
vt 0.946173 0.548421
vt 0.935357 0.497859
vt 0.947594 0.593350
vt 0.946173 0.548421
vt 0.935357 0.593341
vt 0.947594 0.497838
vt 0.946173 0.557969
vt 0.946742 0.497859
vt 0.947594 0.593350
vt 0.946173 0.557969
vt 0.946742 0.593341
vt 0.936206 0.564607
vt 0.935354 0.564597
vt 0.935354 0.564597
vt 0.936206 0.564607
vt 0.946738 0.564597
vt 0.946738 0.564597
vt 0.947594 0.564607
vt 0.946742 0.564607
vt 0.946742 0.564607
vt 0.947594 0.564607
vt 0.935357 0.564607
vt 0.935357 0.564607
vn 0.000000 0.000000 1.000000
vn 0.000000 -1.000000 0.000000
vn -0.999842 0.017801 0.000000
vn 0.000000 0.000000 1.000000
vn 0.000000 1.000000 0.000000
vn -0.999143 -0.041402 0.000000
vn 0.000000 0.000000 -1.000000
vn 0.000000 -1.000000 0.000000
vn -0.999842 0.017801 0.000000
vn 0.000000 0.000000 -1.000000
vn 0.000000 1.000000 0.000000
vn -0.999143 -0.041402 0.000000
vn 0.000000 0.000000 1.000000
vn 0.000000 -1.000000 0.000000
vn 0.999842 -0.017801 0.000000
vn 0.000000 0.000000 1.000000
vn 0.000000 1.000000 0.000000
vn 0.999143 0.041402 0.000000
vn 0.000000 0.000000 -1.000000
vn 0.000000 -1.000000 0.000000
vn 0.999842 -0.017801 0.000000
vn 0.000000 0.000000 -1.000000
vn 0.000000 1.000000 0.000000
vn 0.999143 0.041402 0.000000
vn 0.000000 0.000000 1.000000
vn -0.999143 -0.041402 0.000000
vn -0.999842 0.017801 0.000000
vn 0.000000 0.000000 -1.000000
vn -0.999143 -0.041402 0.000000
vn -0.999842 0.017801 0.000000
vn 0.000000 0.000000 -1.000000
vn 0.999143 0.041402 0.000000
vn 0.999842 -0.017801 0.000000
vn 0.000000 0.000000 1.000000
vn 0.999143 0.041402 0.000000
vn 0.999842 -0.017801 0.000000
f 26/26/26 6/6/6 12/12/12
f 26/26/26 12/12/12 29/29/29
f 28/28/28 10/10/10 22/22/22
f 28/28/28 22/22/22 31/31/31
f 32/32/32 24/24/24 18/18/18
f 32/32/32 18/18/18 35/35/35
f 34/34/34 16/16/16 4/4/4
f 34/34/34 4/4/4 25/25/25
f 8/8/8 20/20/20 14/14/14
f 8/8/8 14/14/14 2/2/2
f 23/23/23 11/11/11 5/5/5
f 23/23/23 5/5/5 17/17/17
f 13/13/13 34/34/34 25/25/25
f 13/13/13 25/25/25 1/1/1
f 21/21/21 33/33/33 36/36/36
f 21/21/21 36/36/36 15/15/15
f 7/7/7 28/28/28 31/31/31
f 7/7/7 31/31/31 19/19/19
f 3/3/3 27/27/27 30/30/30
f 3/3/3 30/30/30 9/9/9
