# Cube -- imported by tools/import_asset_pack.py from SawedOff.fbx
o __pending__
v 0.071367 -0.002068 0.016091
v 0.137170 0.047953 0.016091
v 0.071367 0.048061 0.016091
v -0.006272 0.048096 -0.016091
v -0.006272 0.004415 -0.016091
v -0.006272 0.048096 0.016091
v 0.137170 -0.002068 -0.016091
v 0.171133 0.042809 -0.016091
v 0.171133 -0.002068 -0.016091
v 0.071367 -0.002068 -0.016091
v 0.008571 0.003176 0.016091
v 0.008571 0.003176 -0.016091
v 0.071367 -0.002068 -0.016091
v 0.137170 -0.002068 0.016091
v 0.071367 -0.002068 0.016091
v 0.071367 0.056434 0.008633
v 0.137170 0.056434 -0.008633
v 0.071367 0.056434 -0.008633
v 0.137170 -0.002068 0.016091
v 0.171133 0.042809 0.016091
v -0.006272 0.056434 -0.008633
v 0.008571 0.056434 0.008633
v 0.008571 0.056434 -0.008633
v 0.008571 0.048090 0.016091
v -0.006272 0.004415 0.016091
v 0.008571 0.003176 0.016091
v 0.008571 0.003176 -0.016091
v 0.071367 0.048061 -0.016091
v 0.071367 -0.002068 -0.016091
v 0.171133 -0.002068 0.016091
v 0.195993 0.030204 0.016091
v 0.137170 0.056434 0.008633
v 0.171133 0.051482 -0.008633
v 0.137170 0.056434 -0.008633
v 0.137170 -0.002068 -0.016091
v 0.171133 -0.002068 0.016091
v 0.195993 0.030204 -0.016091
v 0.187783 -0.002068 -0.016091
v 0.187783 -0.002068 -0.016091
v 0.205402 -0.007157 0.016091
v 0.187783 -0.002068 0.016091
v 0.171133 0.051482 0.008633
v 0.198020 0.038174 -0.008633
v 0.171133 0.051482 -0.008633
v 0.171133 -0.002068 -0.016091
v 0.187783 -0.002068 0.016091
v 0.218316 0.014263 -0.016091
v 0.205402 -0.007157 -0.016091
v 0.218316 0.014263 0.016091
v 0.236683 -0.032368 0.016091
v 0.256869 0.004005 0.016091
v 0.236683 -0.032368 -0.016091
v 0.187783 -0.002068 0.016091
v 0.198020 0.038174 0.008633
v 0.222463 0.021142 -0.008633
v 0.198020 0.038174 -0.008633
v 0.260910 0.011286 0.008633
v 0.272981 0.014859 -0.008633
v 0.260910 0.011286 -0.008633
v 0.222463 0.021142 0.008633
v 0.260910 0.011286 -0.008633
v 0.222463 0.021142 -0.008633
v 0.205402 -0.007157 -0.016091
v 0.236683 -0.032368 0.016091
v 0.205402 -0.007157 0.016091
v 0.271112 0.007733 -0.016091
v 0.252849 -0.061894 -0.016091
v 0.266653 -0.058967 -0.016091
v 0.280798 -0.048875 0.016091
v 0.266653 -0.058967 0.016091
v 0.236683 -0.032368 -0.016091
v 0.252849 -0.061894 0.016091
v 0.236683 -0.032368 0.016091
v 0.266653 -0.058967 -0.016091
v 0.271112 0.007733 0.016091
v 0.279278 0.019150 0.008633
v 0.285575 0.023442 -0.008633
v 0.279278 0.019150 -0.008633
v 0.294347 0.001315 0.016091
v 0.294842 -0.020705 0.016091
v 0.294347 0.001315 -0.016091
v 0.285110 0.016408 0.016091
v 0.294842 -0.020705 0.016091
v 0.294347 0.001315 0.016091
v 0.285575 0.023442 0.008633
v 0.294160 0.009641 -0.008633
v 0.285575 0.023442 -0.008633
v 0.272981 0.014859 0.008633
v 0.272981 0.014859 -0.008633
v 0.266653 -0.058967 0.016091
v 0.278117 0.011969 0.016091
v 0.285110 0.016408 -0.016091
v 0.294842 -0.020705 -0.016091
v 0.280798 -0.048875 -0.016091
v 0.252849 -0.061894 0.016091
v 0.266653 -0.058967 -0.016091
v 0.266653 -0.058967 0.016091
v 0.278117 0.011969 -0.016091
v 0.280798 -0.048875 -0.016091
v 0.294842 -0.020705 0.016091
v 0.280798 -0.048875 0.016091
v 0.280798 -0.048875 0.016091
v 0.092641 -0.007763 -0.003937
v 0.077580 -0.005820 -0.003937
v 0.092997 -0.006978 -0.003937
v 0.093174 -0.002647 -0.003937
v 0.111589 0.001706 -0.003937
v 0.111589 -0.004844 -0.003937
v 0.111589 -0.016531 0.003937
v 0.123755 -0.018536 0.003937
v 0.111589 -0.011361 0.003937
v 0.111589 0.001706 0.003937
v 0.093174 -0.002647 0.003937
v 0.111589 -0.004844 0.003937
v 0.111589 -0.016531 -0.003937
v 0.092641 -0.007763 0.003937
v 0.092641 -0.007763 -0.003937
v 0.093352 0.001706 -0.003937
v 0.111589 0.001706 0.003937
v 0.111589 0.001706 -0.003937
v 0.077936 0.002864 0.003937
v 0.077757 -0.001489 -0.003937
v 0.077757 -0.001489 0.003937
v 0.093352 0.001706 0.003937
v 0.077757 -0.001489 0.003937
v 0.093352 0.001706 -0.003937
v 0.077936 0.002864 0.003937
v 0.093352 0.001706 0.003937
v 0.092641 -0.007763 0.003937
v 0.077225 -0.006606 -0.003937
v 0.092641 -0.007763 -0.003937
v 0.122809 -0.008342 -0.003937
v 0.134708 -0.001360 0.003937
v 0.122809 -0.008342 0.003937
v 0.111589 -0.016531 -0.003937
v 0.121265 -0.022850 0.003937
v 0.111589 -0.016531 0.003937
v 0.111589 0.001706 0.003937
v 0.121857 0.001904 -0.003937
v 0.111589 0.001706 -0.003937
v 0.121857 0.001904 -0.003937
v 0.122809 -0.008342 -0.003937
v 0.111589 -0.016531 -0.003937
v 0.123755 -0.018536 -0.003937
v 0.121265 -0.022850 -0.003937
v 0.131474 -0.025335 -0.003937
v 0.130903 -0.028414 -0.003937
v 0.092641 -0.007763 0.003937
v 0.077580 -0.005820 0.003937
v 0.077225 -0.006606 0.003937
v 0.077580 -0.005820 0.003937
v 0.077225 -0.006606 -0.003937
v 0.077225 -0.006606 0.003937
v 0.122809 -0.008342 0.003937
v 0.111589 -0.011361 -0.003937
v 0.077757 -0.001489 -0.003937
v 0.131474 -0.025335 0.003937
v 0.143065 -0.029443 -0.003937
v 0.131474 -0.025335 -0.003937
v 0.121265 -0.022850 0.003937
v 0.131474 -0.025335 0.003937
v 0.121265 -0.022850 -0.003937
v 0.130903 -0.028414 0.003937
v 0.121265 -0.022850 0.003937
v 0.123755 -0.018536 0.003937
v 0.131474 -0.025335 -0.003937
v 0.123755 -0.018536 -0.003937
v 0.142494 -0.032522 -0.003937
v 0.158737 -0.032900 0.003937
v 0.142494 -0.032522 0.003937
v 0.130903 -0.028414 -0.003937
v 0.142494 -0.032522 0.003937
v 0.130903 -0.028414 0.003937
v 0.130903 -0.028414 0.003937
v 0.143065 -0.029443 0.003937
v 0.143065 -0.029443 -0.003937
v 0.142494 -0.032522 -0.003937
v 0.158737 -0.032900 0.003937
v 0.167704 -0.025830 0.003937
v 0.157547 -0.030003 0.003937
v 0.142494 -0.032522 0.003937
v 0.157547 -0.030003 -0.003937
v 0.158737 -0.032900 -0.003937
v 0.143065 -0.029443 0.003937
v 0.157547 -0.030003 -0.003937
v 0.143065 -0.029443 -0.003937
v 0.167704 -0.025830 0.003937
v 0.171937 -0.017741 -0.003937
v 0.167704 -0.025830 -0.003937
v 0.168894 -0.028727 -0.003937
v 0.157547 -0.030003 0.003937
v 0.167704 -0.025830 -0.003937
v 0.157547 -0.030003 -0.003937
v 0.158737 -0.032900 -0.003937
v 0.168894 -0.028727 0.003937
v 0.158737 -0.032900 0.003937
v 0.177125 -0.018340 0.003937
v 0.169302 -0.009083 0.003937
v 0.171937 -0.017741 0.003937
v 0.168894 -0.028727 -0.003937
v 0.177125 -0.018340 0.003937
v 0.168894 -0.028727 0.003937
v 0.167704 -0.025830 -0.003937
v 0.177125 -0.018340 -0.003937
v 0.093352 0.001706 -0.003937
v 0.077936 0.002864 -0.003937
v 0.121857 0.001904 0.003937
v 0.122809 -0.008342 -0.003937
v 0.123755 -0.018536 0.003937
v 0.123755 -0.018536 -0.003937
v 0.092997 -0.006978 0.003937
v 0.077580 -0.005820 -0.003937
v 0.077580 -0.005820 0.003937
v 0.135539 0.005046 -0.003937
v 0.134708 -0.001360 0.003937
v 0.134708 -0.001360 -0.003937
v 0.134708 -0.001360 0.003937
v 0.135539 0.005046 0.003937
v 0.134708 -0.001360 -0.003937
v 0.121857 0.001904 0.003937
v 0.135539 0.005046 -0.003937
v 0.121857 0.001904 -0.003937
v 0.169302 -0.009083 -0.003937
v 0.183934 0.000631 -0.003937
v 0.181346 -0.009270 -0.003937
v 0.171937 -0.017741 0.003937
v 0.169302 -0.009083 -0.003937
v 0.171937 -0.017741 -0.003937
v 0.177125 -0.018340 -0.003937
v 0.181346 -0.009270 0.003937
v 0.177125 -0.018340 0.003937
v 0.156394 0.000270 -0.003937
v 0.183934 0.000631 0.003937
v 0.183934 0.000631 -0.003937
v 0.169302 -0.009083 0.003937
v 0.156394 0.000270 -0.003937
v 0.169302 -0.009083 -0.003937
v 0.183934 0.000631 0.003937
v 0.190107 0.002107 -0.003937
v 0.183934 0.000631 -0.003937
v 0.183934 0.000631 0.003937
v 0.156394 0.000270 0.003937
v 0.193279 -0.002447 -0.003937
v 0.190107 0.002107 0.003937
v 0.193279 -0.002447 0.003937
v 0.181346 -0.009270 -0.003937
v 0.193279 -0.002447 0.003937
v 0.181346 -0.009270 0.003937
v 0.193279 -0.002447 0.003937
v 0.190107 0.002107 0.003937
v 0.193279 -0.002447 -0.003937
v 0.008571 0.056434 0.008633
v -0.006272 0.048096 0.016091
v 0.008571 0.048090 0.016091
v 0.071367 0.056434 -0.008633
v 0.008571 0.048090 -0.016091
v 0.008571 0.056434 -0.008633
v 0.071367 0.048061 0.016091
v 0.137170 0.056434 0.008633
v 0.071367 0.056434 0.008633
v 0.071367 0.048061 -0.016091
v 0.137170 0.056434 -0.008633
v 0.137170 0.047953 -0.016091
v 0.137170 0.047953 0.016091
v 0.171133 0.051482 0.008633
v 0.137170 0.056434 0.008633
v 0.137170 0.047953 -0.016091
v 0.171133 0.051482 -0.008633
v 0.171133 0.042809 -0.016091
v 0.171133 0.042809 0.016091
v 0.198020 0.038174 0.008633
v 0.171133 0.051482 0.008633
v 0.171133 0.042809 -0.016091
v 0.198020 0.038174 -0.008633
v 0.195993 0.030204 -0.016091
v 0.222463 0.021142 0.008633
v 0.195993 0.030204 0.016091
v 0.218316 0.014263 0.016091
v 0.195993 0.030204 -0.016091
v 0.222463 0.021142 -0.008633
v 0.218316 0.014263 -0.016091
v 0.256869 0.004005 0.016091
v 0.222463 0.021142 0.008633
v 0.218316 0.014263 0.016091
v 0.256869 0.004005 -0.016091
v 0.222463 0.021142 -0.008633
v 0.260910 0.011286 -0.008633
v 0.260910 0.011286 -0.008633
v 0.271112 0.007733 -0.016091
v 0.256869 0.004005 -0.016091
v 0.260910 0.011286 0.008633
v 0.271112 0.007733 0.016091
v 0.272981 0.014859 0.008633
v 0.272981 0.014859 0.008633
v 0.278117 0.011969 0.016091
v 0.279278 0.019150 0.008633
v 0.278117 0.011969 -0.016091
v 0.272981 0.014859 -0.008633
v 0.279278 0.019150 -0.008633
v 0.279278 0.019150 0.008633
v 0.285110 0.016408 0.016091
v 0.285575 0.023442 0.008633
v 0.285110 0.016408 -0.016091
v 0.279278 0.019150 -0.008633
v 0.285575 0.023442 -0.008633
v 0.285110 0.016408 0.016091
v 0.294160 0.009641 0.008633
v 0.285575 0.023442 0.008633
v 0.285110 0.016408 -0.016091
v 0.294160 0.009641 -0.008633
v 0.294347 0.001315 -0.016091
v 0.137170 0.047953 -0.016091
v 0.008571 0.056434 -0.008633
v -0.006272 0.048096 -0.016091
v -0.006272 0.056434 -0.008633
v 0.071367 0.056434 0.008633
v 0.008571 0.048090 0.016091
v 0.071367 0.048061 0.016091
v -0.006272 0.004415 -0.016091
v 0.008571 0.048090 -0.016091
v -0.004198 0.002264 0.016091
v 0.006137 0.001024 0.016091
v -0.001221 0.000943 0.016091
v 0.002567 -0.000296 0.016091
v -0.004198 0.002264 -0.016091
v 0.008571 0.003176 0.016091
v 0.006137 0.001024 -0.016091
v 0.008571 0.003176 -0.016091
v -0.006272 0.004415 -0.016091
v -0.004198 0.002264 0.016091
v -0.006272 0.004415 0.016091
v 0.002567 -0.000296 -0.016091
v -0.001221 0.000943 0.016091
v -0.001221 0.000943 -0.016091
v -0.004198 0.002264 -0.016091
v -0.001221 0.000943 0.016091
v -0.004198 0.002264 0.016091
v 0.006137 0.001024 0.016091
v 0.002567 -0.000296 -0.016091
v 0.006137 0.001024 -0.016091
v 0.006137 0.001024 -0.016091
v -0.001221 0.000943 -0.016091
v 0.000106 0.043335 -0.013397
v -0.305158 0.033862 -0.009473
v -0.305158 0.043335 -0.013397
v 0.000106 0.033862 -0.009473
v -0.305158 0.029938 0.000000
v -0.305158 0.033862 -0.009473
v 0.000106 0.029938 0.000000
v -0.305158 0.033862 0.009473
v -0.305158 0.029938 0.000000
v 0.000106 0.033862 0.009473
v -0.305158 0.043335 0.013397
v -0.305158 0.033862 0.009473
v 0.000106 0.043335 0.013397
v -0.305158 0.052808 0.009473
v -0.305158 0.043335 0.013397
v 0.000106 0.052808 0.009473
v -0.305158 0.056732 0.000000
v -0.305158 0.052808 0.009473
v 0.000106 0.043335 0.013397
v 0.000106 0.033862 0.009473
v 0.000106 0.029938 0.000000
v 0.000106 0.056732 -0.000000
v -0.305158 0.052808 -0.009473
v -0.305158 0.056732 0.000000
v -0.305158 0.052808 -0.009473
v 0.000106 0.043335 -0.013397
v -0.305158 0.043335 -0.013397
v -0.305158 0.043335 0.013397
v -0.305158 0.049162 0.005827
v -0.305158 0.043335 0.008241
v -0.287190 0.018468 -0.009718
v -0.004300 0.011597 -0.006871
v -0.287190 0.011597 -0.006871
v -0.004300 0.011597 -0.006871
v -0.287190 0.008750 0.000000
v -0.287190 0.011597 -0.006871
v -0.287190 0.008750 0.000000
v -0.004300 0.011597 0.006871
v -0.287190 0.011597 0.006871
v -0.004300 0.011597 0.006871
v -0.287190 0.018468 0.009718
v -0.287190 0.011597 0.006871
v -0.004300 0.018468 0.009718
v -0.287190 0.025339 0.006871
v -0.287190 0.018468 0.009718
v -0.004300 0.025339 0.006871
v -0.287190 0.028186 0.000000
v -0.287190 0.025339 0.006871
v -0.004300 0.028186 0.000000
v -0.004300 0.018468 0.009718
v -0.004300 0.008750 0.000000
v -0.004300 0.028186 0.000000
v -0.287190 0.025339 -0.006871
v -0.287190 0.028186 0.000000
v -0.004300 0.025339 -0.006871
v -0.287190 0.018468 -0.009718
v -0.287190 0.025339 -0.006871
v -0.287190 0.025339 0.006871
v -0.287190 0.018468 0.011034
v -0.287190 0.018468 0.009718
v -0.287190 0.011597 -0.006871
v -0.287190 0.007434 0.000000
v -0.287190 0.010666 -0.007802
v -0.287190 0.025339 -0.006871
v -0.287190 0.029502 0.000000
v -0.287190 0.028186 0.000000
v -0.287190 0.011597 0.006871
v -0.287190 0.010666 0.007802
v -0.287190 0.026270 0.007802
v -0.287190 0.008750 0.000000
v -0.287190 0.018468 -0.009718
v -0.287190 0.018468 -0.011034
v -0.287190 0.026270 -0.007802
v -0.197794 0.041792 0.002613
v -0.197794 0.023303 -0.002613
v -0.197794 0.023303 0.002613
v -0.197794 0.041792 -0.002613
v -0.004253 0.023303 -0.002613
v -0.197794 0.023303 -0.002613
v -0.004253 0.041792 -0.002613
v -0.004253 0.023303 0.002613
v -0.004253 0.023303 -0.002613
v -0.004253 0.041792 0.002613
v -0.197794 0.023303 0.002613
v -0.004253 0.023303 0.002613
v -0.004253 0.023303 -0.002613
v -0.197794 0.023303 0.002613
v -0.197794 0.023303 -0.002613
v -0.197794 0.041792 -0.002613
v -0.004253 0.041792 0.002613
v -0.004253 0.041792 -0.002613
v -0.287190 0.010666 0.007802
v -0.293623 0.007471 0.000000
v -0.287190 0.007434 0.000000
v -0.293623 0.026244 -0.007776
v -0.298737 0.018468 -0.008174
v -0.298737 0.024248 -0.005780
v -0.287190 0.026270 0.007802
v -0.293623 0.029465 0.000000
v -0.293623 0.026244 0.007776
v -0.287190 0.010666 0.007802
v -0.293623 0.018468 0.010997
v -0.293623 0.010692 0.007776
v -0.287190 0.029502 0.000000
v -0.293623 0.026244 -0.007776
v -0.293623 0.029465 0.000000
v -0.287190 0.007434 0.000000
v -0.293623 0.010692 -0.007776
v -0.287190 0.010666 -0.007802
v -0.287190 0.026270 0.007802
v -0.293623 0.018468 0.010997
v -0.287190 0.018468 0.011034
v -0.287190 0.026270 -0.007802
v -0.293623 0.018468 -0.010997
v -0.293623 0.026244 -0.007776
v -0.287190 0.010666 -0.007802
v -0.293623 0.018468 -0.010997
v -0.287190 0.018468 -0.011034
v -0.298737 0.012688 0.005780
v -0.301077 0.014324 0.000000
v -0.298737 0.010294 0.000000
v -0.293623 0.026244 0.007776
v -0.298737 0.026642 0.000000
v -0.298737 0.024248 0.005780
v -0.293623 0.010692 0.007776
v -0.298737 0.018468 0.008174
v -0.298737 0.012688 0.005780
v -0.293623 0.007471 0.000000
v -0.298737 0.012688 -0.005780
v -0.293623 0.010692 -0.007776
v -0.293623 0.026244 -0.007776
v -0.298737 0.026642 0.000000
v -0.293623 0.029465 0.000000
v -0.293623 0.026244 0.007776
v -0.298737 0.018468 0.008174
v -0.293623 0.018468 0.010997
v -0.293623 0.010692 0.007776
v -0.298737 0.010294 0.000000
v -0.293623 0.007471 0.000000
v -0.293623 0.010692 -0.007776
v -0.298737 0.018468 -0.008174
v -0.293623 0.018468 -0.010997
v -0.301077 0.015538 -0.002930
v -0.301077 0.015538 0.002930
v -0.301077 0.021398 0.002930
v -0.298737 0.012688 -0.005780
v -0.301077 0.018468 -0.004144
v -0.298737 0.018468 -0.008174
v -0.298737 0.024248 -0.005780
v -0.301077 0.018468 -0.004144
v -0.301077 0.021398 -0.002930
v -0.298737 0.024248 0.005780
v -0.301077 0.022612 0.000000
v -0.301077 0.021398 0.002930
v -0.298737 0.012688 0.005780
v -0.301077 0.018468 0.004144
v -0.301077 0.015538 0.002930
v -0.298737 0.012688 -0.005780
v -0.301077 0.014324 0.000000
v -0.301077 0.015538 -0.002930
v -0.298737 0.026642 0.000000
v -0.301077 0.021398 -0.002930
v -0.301077 0.022612 0.000000
v -0.298737 0.024248 0.005780
v -0.301077 0.018468 0.004144
v -0.298737 0.018468 0.008174
v -0.305158 0.043335 -0.008241
v -0.290324 0.049162 -0.005827
v -0.305158 0.049162 -0.005827
v -0.305158 0.052808 -0.009473
v -0.305158 0.043335 -0.008241
v -0.305158 0.049162 -0.005827
v -0.305158 0.033862 -0.009473
v -0.305158 0.043335 -0.013397
v -0.305158 0.029938 0.000000
v -0.305158 0.037508 0.005827
v -0.305158 0.035094 0.000000
v -0.305158 0.052808 0.009473
v -0.305158 0.051576 0.000000
v -0.305158 0.033862 0.009473
v -0.305158 0.056732 0.000000
v -0.305158 0.037508 -0.005827
v -0.290324 0.037508 0.005827
v -0.290324 0.049162 0.005827
v -0.290324 0.049162 -0.005827
v -0.305158 0.051576 0.000000
v -0.290324 0.049162 0.005827
v -0.305158 0.049162 0.005827
v -0.305158 0.037508 0.005827
v -0.290324 0.043335 0.008241
v -0.290324 0.037508 0.005827
v -0.305158 0.037508 -0.005827
v -0.290324 0.035094 -0.000000
v -0.290324 0.037508 -0.005827
v -0.305158 0.049162 -0.005827
v -0.290324 0.051576 -0.000000
v -0.305158 0.051576 0.000000
v -0.305158 0.049162 0.005827
v -0.290324 0.043335 0.008241
v -0.305158 0.043335 0.008241
v -0.305158 0.035094 0.000000
v -0.290324 0.037508 0.005827
v -0.290324 0.035094 -0.000000
v -0.305158 0.043335 -0.008241
v -0.290324 0.037508 -0.005827
v -0.290324 0.043335 -0.008241
v -0.284417 0.038372 0.014055
v -0.284417 0.019883 -0.017509
v -0.284417 0.019883 0.017509
v -0.284417 0.038372 -0.014055
v -0.112354 0.019883 -0.017509
v -0.284417 0.019883 -0.017509
v -0.112354 0.038372 -0.014055
v -0.112354 0.019883 0.017509
v -0.112354 0.019883 -0.017509
v -0.112354 0.038372 0.014055
v -0.284417 0.019883 0.017509
v -0.112354 0.019883 0.017509
v -0.284417 0.019883 0.017509
v -0.112354 0.006803 0.017509
v -0.112354 0.019883 0.017509
v -0.284417 0.038372 -0.014055
v -0.112354 0.038372 0.014055
v -0.112354 0.038372 -0.014055
v -0.284417 0.006803 -0.017509
v -0.284417 -0.002581 0.009661
v -0.284417 0.006803 0.017509
v -0.112354 0.019883 -0.017509
v -0.284417 0.006803 -0.017509
v -0.284417 0.019883 -0.017509
v -0.112354 0.006803 -0.017509
v -0.284417 -0.002581 0.009661
v -0.112354 -0.007271 0.002707
v -0.112354 -0.002581 0.009661
v -0.284417 0.006803 0.017509
v -0.112354 -0.002581 0.009661
v -0.112354 0.006803 0.017509
v -0.112354 0.006803 -0.017509
v -0.284417 -0.002581 -0.009661
v -0.284417 0.006803 -0.017509
v -0.112354 0.006803 0.017509
v -0.112354 -0.002581 -0.009661
v -0.112354 -0.007271 -0.002707
v -0.284417 -0.007271 0.002707
v -0.284417 -0.007271 -0.002707
v -0.112354 -0.002581 -0.009661
v -0.284417 -0.007271 -0.002707
v -0.284417 -0.002581 -0.009661
v -0.112354 -0.002581 0.009661
v -0.112354 -0.007271 -0.002707
v -0.284417 -0.002581 -0.009661
v -0.284417 -0.007271 0.002707
v 0.158183 -0.009461 0.001881
v 0.159063 -0.014480 -0.001399
v 0.159063 -0.014480 0.001399
v 0.159063 -0.014480 -0.001399
v 0.161946 -0.009461 -0.001881
v 0.161860 -0.014480 -0.001399
v 0.161946 -0.009461 -0.001881
v 0.161860 -0.014480 0.001399
v 0.161860 -0.014480 -0.001399
v 0.161946 -0.009461 0.001881
v 0.159063 -0.014480 0.001399
v 0.161860 -0.014480 0.001399
v 0.159063 -0.014480 -0.001399
v 0.159348 -0.018757 0.001215
v 0.159063 -0.014480 0.001399
v 0.158183 -0.009461 0.001881
v 0.160914 -0.004779 0.001881
v 0.153501 -0.004541 0.001881
v 0.160914 -0.004779 -0.001881
v 0.163213 0.000095 0.001881
v 0.160914 -0.004779 0.001881
v 0.158183 -0.009461 -0.001881
v 0.160914 -0.004779 -0.001881
v 0.161946 -0.009461 -0.001881
v 0.161946 -0.009461 -0.001881
v 0.160914 -0.004779 0.001881
v 0.161946 -0.009461 0.001881
v 0.158183 -0.009461 0.001881
v 0.153501 -0.004541 -0.001881
v 0.158183 -0.009461 -0.001881
v 0.147071 -0.000143 -0.001881
v 0.163213 0.000095 0.001881
v 0.163213 0.000095 -0.001881
v 0.153501 -0.004541 0.001881
v 0.147071 -0.000143 -0.001881
v 0.153501 -0.004541 -0.001881
v 0.163213 0.000095 0.001881
v 0.147071 -0.000143 0.001881
v 0.153501 -0.004541 -0.001881
v 0.163213 0.000095 -0.001881
v 0.159348 -0.018757 0.001215
v 0.159131 -0.023236 0.000461
v 0.161574 -0.019727 0.001215
v 0.161860 -0.014480 0.001399
v 0.161574 -0.019727 -0.001215
v 0.161860 -0.014480 -0.001399
v 0.161860 -0.014480 0.001399
v 0.159348 -0.018757 0.001215
v 0.161574 -0.019727 0.001215
v 0.161860 -0.014480 -0.001399
v 0.159348 -0.018757 -0.001215
v 0.159063 -0.014480 -0.001399
v 0.159131 -0.023236 0.000461
v 0.156413 -0.026125 -0.000188
v 0.159131 -0.023236 -0.000461
v 0.159348 -0.018757 -0.001215
v 0.159131 -0.023236 -0.000461
v 0.158286 -0.022868 -0.000461
v 0.161574 -0.019727 0.001215
v 0.159131 -0.023236 -0.000461
v 0.161574 -0.019727 -0.001215
v 0.159348 -0.018757 -0.001215
v 0.158286 -0.022868 0.000461
v 0.159348 -0.018757 0.001215
v 0.156069 -0.025975 -0.000188
v 0.156413 -0.026125 0.000188
v 0.156069 -0.025975 0.000188
v 0.158286 -0.022868 -0.000461
v 0.156069 -0.025975 0.000188
v 0.158286 -0.022868 0.000461
v 0.158286 -0.022868 0.000461
v 0.156413 -0.026125 0.000188
v 0.159131 -0.023236 0.000461
v 0.158286 -0.022868 -0.000461
v 0.156413 -0.026125 -0.000188
v 0.156069 -0.025975 -0.000188
v -0.006272 0.004415 0.016091
v -0.006272 0.056434 0.008633
v -0.006272 0.056434 -0.008633
v 0.071367 -0.002068 0.016091
v 0.137170 0.056434 0.008633
v -0.006272 0.056434 0.008633
v -0.006272 0.048096 0.016091
v 0.171133 0.051482 0.008633
v 0.205402 -0.007157 -0.016091
v 0.198020 0.038174 0.008633
v 0.187783 -0.002068 -0.016091
v 0.205402 -0.007157 0.016091
v 0.256869 0.004005 -0.016091
v 0.222463 0.021142 0.008633
v 0.272981 0.014859 0.008633
v 0.260910 0.011286 0.008633
v 0.236683 -0.032368 -0.016091
v 0.280798 -0.048875 -0.016091
v 0.252849 -0.061894 -0.016091
v 0.252849 -0.061894 0.016091
v 0.285575 0.023442 0.008633
v 0.294842 -0.020705 -0.016091
v 0.294160 0.009641 -0.008633
v 0.294160 0.009641 0.008633
v 0.294160 0.009641 0.008633
v 0.294347 0.001315 -0.016091
v 0.252849 -0.061894 -0.016091
v 0.294842 -0.020705 -0.016091
v 0.077225 -0.006606 -0.003937
v 0.111589 -0.016531 0.003937
v 0.093352 0.001706 0.003937
v 0.077936 0.002864 -0.003937
v 0.077936 0.002864 0.003937
v 0.077936 0.002864 -0.003937
v 0.077225 -0.006606 0.003937
v 0.134708 -0.001360 -0.003937
v 0.121265 -0.022850 -0.003937
v 0.121857 0.001904 0.003937
v 0.077580 -0.005820 -0.003937
v 0.143065 -0.029443 0.003937
v 0.130903 -0.028414 -0.003937
v 0.131474 -0.025335 0.003937
v 0.158737 -0.032900 -0.003937
v 0.142494 -0.032522 -0.003937
v 0.168894 -0.028727 0.003937
v 0.157547 -0.030003 0.003937
v 0.171937 -0.017741 0.003937
v 0.167704 -0.025830 0.003937
v 0.168894 -0.028727 -0.003937
v 0.181346 -0.009270 0.003937
v 0.177125 -0.018340 -0.003937
v 0.171937 -0.017741 -0.003937
v 0.122809 -0.008342 0.003937
v 0.135539 0.005046 0.003937
v 0.135539 0.005046 -0.003937
v 0.135539 0.005046 0.003937
v 0.156394 0.000270 -0.003937
v 0.169302 -0.009083 0.003937
v 0.181346 -0.009270 -0.003937
v 0.156394 0.000270 0.003937
v 0.156394 0.000270 0.003937
v 0.190107 0.002107 0.003937
v 0.190107 0.002107 -0.003937
v 0.193279 -0.002447 -0.003937
v 0.190107 0.002107 -0.003937
v -0.006272 0.056434 0.008633
v 0.071367 0.048061 -0.016091
v 0.137170 0.047953 0.016091
v 0.071367 0.056434 -0.008633
v 0.171133 0.042809 0.016091
v 0.137170 0.056434 -0.008633
v 0.195993 0.030204 0.016091
v 0.171133 0.051482 -0.008633
v 0.198020 0.038174 0.008633
v 0.198020 0.038174 -0.008633
v 0.260910 0.011286 0.008633
v 0.218316 0.014263 -0.016091
v 0.272981 0.014859 -0.008633
v 0.256869 0.004005 0.016091
v 0.271112 0.007733 0.016091
v 0.271112 0.007733 -0.016091
v 0.278117 0.011969 0.016091
v 0.278117 0.011969 -0.016091
v 0.294347 0.001315 0.016091
v 0.285575 0.023442 -0.008633
v 0.008571 0.048090 -0.016091
v 0.008571 0.056434 0.008633
v -0.006272 0.048096 -0.016091
v 0.006137 0.001024 0.016091
v -0.004198 0.002264 -0.016091
v 0.002567 -0.000296 0.016091
v -0.001221 0.000943 -0.016091
v 0.002567 -0.000296 0.016091
v 0.002567 -0.000296 -0.016091
v 0.000106 0.033862 -0.009473
v 0.000106 0.029938 0.000000
v 0.000106 0.033862 0.009473
v 0.000106 0.043335 0.013397
v 0.000106 0.052808 0.009473
v 0.000106 0.056732 -0.000000
v 0.000106 0.033862 -0.009473
v 0.000106 0.043335 -0.013397
v 0.000106 0.052808 -0.009473
v 0.000106 0.056732 -0.000000
v 0.000106 0.052808 0.009473
v 0.000106 0.052808 -0.009473
v 0.000106 0.052808 -0.009473
v -0.004300 0.018468 -0.009718
v -0.004300 0.008750 0.000000
v -0.004300 0.008750 0.000000
v -0.004300 0.018468 0.009718
v -0.004300 0.025339 0.006871
v -0.004300 0.028186 0.000000
v -0.004300 0.011597 -0.006871
v -0.004300 0.018468 -0.009718
v -0.004300 0.025339 -0.006871
v -0.004300 0.025339 0.006871
v -0.004300 0.011597 0.006871
v -0.004300 0.025339 -0.006871
v -0.004300 0.018468 -0.009718
v -0.197794 0.041792 -0.002613
v -0.004253 0.041792 -0.002613
v -0.004253 0.041792 0.002613
v -0.197794 0.041792 0.002613
v -0.004253 0.023303 0.002613
v -0.197794 0.041792 0.002613
v -0.293623 0.010692 0.007776
v -0.293623 0.018468 -0.010997
v -0.287190 0.029502 0.000000
v -0.287190 0.018468 0.011034
v -0.287190 0.026270 -0.007802
v -0.293623 0.007471 0.000000
v -0.293623 0.026244 0.007776
v -0.287190 0.018468 -0.011034
v -0.293623 0.010692 -0.007776
v -0.301077 0.015538 0.002930
v -0.293623 0.029465 0.000000
v -0.293623 0.018468 0.010997
v -0.298737 0.010294 0.000000
v -0.298737 0.024248 -0.005780
v -0.298737 0.024248 0.005780
v -0.298737 0.012688 0.005780
v -0.298737 0.012688 -0.005780
v -0.301077 0.021398 -0.002930
v -0.301077 0.018468 -0.004144
v -0.301077 0.014324 0.000000
v -0.301077 0.018468 0.004144
v -0.301077 0.022612 0.000000
v -0.301077 0.015538 -0.002930
v -0.298737 0.018468 -0.008174
v -0.298737 0.026642 0.000000
v -0.298737 0.018468 0.008174
v -0.298737 0.010294 0.000000
v -0.298737 0.024248 -0.005780
v -0.301077 0.021398 0.002930
v -0.290324 0.043335 -0.008241
v -0.290324 0.043335 -0.008241
v -0.290324 0.037508 -0.005827
v -0.290324 0.035094 -0.000000
v -0.290324 0.043335 0.008241
v -0.290324 0.051576 -0.000000
v -0.290324 0.051576 -0.000000
v -0.305158 0.043335 0.008241
v -0.305158 0.035094 0.000000
v -0.290324 0.049162 -0.005827
v -0.290324 0.049162 0.005827
v -0.305158 0.037508 0.005827
v -0.305158 0.037508 -0.005827
v -0.284417 0.038372 -0.014055
v -0.112354 0.038372 -0.014055
v -0.112354 0.038372 0.014055
v -0.284417 0.038372 0.014055
v -0.284417 0.006803 0.017509
v -0.284417 0.038372 0.014055
v -0.112354 0.006803 -0.017509
v -0.284417 -0.007271 0.002707
v -0.284417 -0.002581 0.009661
v -0.112354 -0.002581 -0.009661
v -0.112354 -0.007271 0.002707
v -0.112354 -0.007271 -0.002707
v -0.112354 -0.007271 0.002707
v -0.284417 -0.007271 -0.002707
v 0.158183 -0.009461 -0.001881
v 0.158183 -0.009461 -0.001881
v 0.161946 -0.009461 0.001881
v 0.158183 -0.009461 0.001881
v 0.159348 -0.018757 -0.001215
v 0.161946 -0.009461 0.001881
v 0.163213 0.000095 -0.001881
v 0.160914 -0.004779 -0.001881
v 0.153501 -0.004541 0.001881
v 0.147071 -0.000143 0.001881
v 0.147071 -0.000143 0.001881
v 0.147071 -0.000143 -0.001881
v 0.158286 -0.022868 0.000461
v 0.161574 -0.019727 0.001215
v 0.159063 -0.014480 0.001399
v 0.161574 -0.019727 -0.001215
v 0.156413 -0.026125 0.000188
v 0.161574 -0.019727 -0.001215
v 0.159131 -0.023236 0.000461
v 0.158286 -0.022868 -0.000461
v 0.156413 -0.026125 -0.000188
v 0.156069 -0.025975 -0.000188
v 0.156069 -0.025975 0.000188
v 0.159131 -0.023236 -0.000461
vt 0.101526 0.838708
vt 0.007676 0.717560
vt 0.008589 0.839556
vt 0.185960 0.162822
vt 0.185960 0.081837
vt 0.126295 0.162822
vt 0.234041 0.696969
vt 0.317307 0.759854
vt 0.234103 0.759937
vt 0.888113 0.130890
vt 0.828448 0.247722
vt 0.888113 0.247722
vt 0.112447 0.406570
vt 0.052782 0.284570
vt 0.052782 0.406570
vt 0.006924 0.284570
vt 0.038935 0.406570
vt 0.038935 0.284570
vt 0.100412 0.716713
vt 0.016637 0.654508
vt 0.038935 0.140624
vt 0.006924 0.168143
vt 0.038935 0.168143
vt 0.009600 0.955979
vt 0.090821 0.982757
vt 0.092867 0.955218
vt 0.243527 0.458533
vt 0.326861 0.574877
vt 0.233920 0.574969
vt 0.099837 0.653748
vt 0.039586 0.608206
vt 0.323716 0.140435
vt 0.291706 0.076801
vt 0.291706 0.140435
vt 0.112447 0.284570
vt 0.052782 0.221602
vt 0.293981 0.805968
vt 0.234134 0.790807
vt 0.900112 0.734259
vt 0.934114 0.674594
vt 0.900112 0.674594
vt 0.933971 0.105000
vt 0.901961 0.049379
vt 0.901961 0.105000
vt 0.112447 0.221602
vt 0.052782 0.190732
vt 0.264467 0.847386
vt 0.224730 0.823483
vt 0.068761 0.566549
vt 0.154903 0.531708
vt 0.087126 0.494900
vt 0.178046 0.881524
vt 0.099555 0.622879
vt 0.953360 0.513721
vt 0.921350 0.458485
vt 0.921350 0.513721
vt 0.940122 0.587233
vt 0.963462 0.555223
vt 0.940122 0.555223
vt 0.932123 0.901494
vt 0.900112 0.827909
vt 0.900112 0.901494
vt 0.667011 0.121888
vt 0.607346 0.047401
vt 0.607346 0.121888
vt 0.252458 0.945282
vt 0.123334 0.911550
vt 0.932329 0.601081
vt 0.900113 0.660746
vt 0.932329 0.660746
vt 0.740524 0.121888
vt 0.680859 0.059479
vt 0.680859 0.121888
vt 0.128786 0.937137
vt 0.079974 0.468558
vt 0.140423 0.035978
vt 0.126295 0.067989
vt 0.140423 0.067989
vt 0.843889 0.117042
vt 0.884725 0.117042
vt 0.843889 0.057377
vt 0.063655 0.442753
vt 0.132295 0.424082
vt 0.091479 0.425373
vt 0.277081 0.047799
vt 0.246947 0.079809
vt 0.277081 0.079809
vt 0.154552 0.035978
vt 0.154552 0.067989
vt 0.203707 0.475696
vt 0.072002 0.455642
vt 0.268566 0.971219
vt 0.199776 0.989331
vt 0.147524 0.963344
vt 0.900112 0.527568
vt 0.926274 0.587233
vt 0.926274 0.527568
vt 0.260324 0.958263
vt 0.754372 0.121888
vt 0.812730 0.062223
vt 0.754372 0.062223
vt 0.184757 0.449643
vt 0.167160 0.377913
vt 0.169255 0.405990
vt 0.168650 0.377334
vt 0.176686 0.377437
vt 0.186581 0.343779
vt 0.174454 0.343125
vt 0.251335 0.341960
vt 0.253834 0.319236
vt 0.241765 0.342475
vt 0.217572 0.343779
vt 0.227467 0.377437
vt 0.229699 0.343125
vt 0.948895 0.263074
vt 0.934295 0.301782
vt 0.948895 0.301782
vt 0.542160 0.046593
vt 0.527561 0.080404
vt 0.542160 0.080404
vt 0.959681 0.206370
vt 0.974280 0.198293
vt 0.959681 0.198293
vt 0.219391 0.377542
vt 0.226862 0.406094
vt 0.168400 0.039326
vt 0.182999 0.067989
vt 0.182999 0.039326
vt 0.947819 0.076337
vt 0.962419 0.105000
vt 0.962419 0.076337
vt 0.709307 0.020053
vt 0.723906 0.045631
vt 0.723906 0.020053
vt 0.261547 0.033951
vt 0.246947 0.012525
vt 0.246947 0.033951
vt 0.527561 0.013704
vt 0.542160 0.032745
vt 0.542160 0.013704
vt 0.187971 0.324788
vt 0.169097 0.322005
vt 0.152818 0.341960
vt 0.150319 0.319236
vt 0.142085 0.323416
vt 0.138503 0.304269
vt 0.132745 0.305018
vt 0.236993 0.377913
vt 0.234898 0.405990
vt 0.236388 0.406570
vt 0.326553 0.391970
vt 0.328151 0.406570
vt 0.328151 0.391970
vt 0.235056 0.322005
vt 0.162388 0.342475
vt 0.177291 0.406094
vt 0.106670 0.037459
vt 0.092070 0.014660
vt 0.092070 0.037459
vt 0.262068 0.323416
vt 0.265651 0.304269
vt 0.621946 0.033554
vt 0.607346 0.012920
vt 0.607346 0.033554
vt 0.981808 0.474388
vt 0.967208 0.455318
vt 0.967208 0.474388
vt 0.914712 0.294039
vt 0.900112 0.263916
vt 0.900112 0.294039
vt 0.916561 0.035531
vt 0.901961 0.012731
vt 0.901961 0.035531
vt 0.271409 0.305018
vt 0.272100 0.282400
vt 0.132053 0.282400
vt 0.126295 0.283149
vt 0.276938 0.253040
vt 0.262954 0.237145
vt 0.271694 0.255533
vt 0.277858 0.283149
vt 0.132460 0.255533
vt 0.127216 0.253040
vt 0.768972 0.048375
vt 0.754372 0.021504
vt 0.754372 0.048375
vt 0.947962 0.675964
vt 0.962562 0.692890
vt 0.962562 0.675964
vt 0.135955 0.234652
vt 0.934337 0.915387
vt 0.948937 0.935747
vt 0.948937 0.915387
vt 0.635794 0.013194
vt 0.650393 0.033554
vt 0.650393 0.013194
vt 0.248148 0.220450
vt 0.231791 0.235857
vt 0.247558 0.230114
vt 0.964744 0.748139
vt 0.979344 0.772710
vt 0.979344 0.748139
vt 0.141199 0.237145
vt 0.156005 0.220450
vt 0.184763 0.377542
vt 0.185368 0.406198
vt 0.216182 0.324788
vt 0.199808 0.032671
vt 0.214408 0.013689
vt 0.199808 0.013689
vt 0.235503 0.377334
vt 0.974280 0.190256
vt 0.959681 0.190256
vt 0.959643 0.119115
vt 0.971620 0.133715
vt 0.971620 0.119115
vt 0.220944 0.300673
vt 0.209001 0.299772
vt 0.183210 0.300673
vt 0.680859 0.019604
vt 0.695459 0.045631
vt 0.695459 0.019604
vt 0.172362 0.235857
vt 0.191806 0.209736
vt 0.173218 0.213540
vt 0.955162 0.382076
vt 0.969762 0.398856
vt 0.969762 0.382076
vt 0.967000 0.601422
vt 0.981600 0.619969
vt 0.981600 0.601422
vt 0.948895 0.315630
vt 0.934295 0.366695
vt 0.948895 0.366695
vt 0.945971 0.828162
vt 0.960571 0.857715
vt 0.960571 0.828162
vt 0.138063 0.007531
vt 0.126295 0.022130
vt 0.138063 0.022130
vt 0.212347 0.209736
vt 0.215764 0.260686
vt 0.992852 0.719660
vt 0.982564 0.734259
vt 0.992852 0.734259
vt 0.967208 0.488236
vt 0.981808 0.513721
vt 0.981808 0.488236
vt 0.217114 0.192129
vt 0.209001 0.198455
vt 0.187040 0.192129
vt 0.947966 0.706737
vt 0.968703 0.734259
vt 0.968716 0.706740
vt 0.312495 0.154283
vt 0.291761 0.270712
vt 0.312511 0.270709
vt 0.586306 0.413261
vt 0.565575 0.291251
vt 0.565516 0.413251
vt 0.291916 0.406570
vt 0.312646 0.284560
vt 0.291706 0.284570
vt 0.920929 0.811792
vt 0.900112 0.750428
vt 0.900112 0.814061
vt 0.565779 0.144857
vt 0.586595 0.083492
vt 0.565516 0.081172
vt 0.920083 0.359563
vt 0.900112 0.311074
vt 0.900112 0.366695
vt 0.902325 0.240590
vt 0.922296 0.192101
vt 0.901961 0.188914
vt 0.921018 0.384972
vt 0.940889 0.434844
vt 0.941314 0.383989
vt 0.902386 0.169703
vt 0.922258 0.119831
vt 0.901961 0.118848
vt 0.920490 0.919111
vt 0.900598 0.988925
vt 0.920490 0.993076
vt 0.092070 0.102919
vt 0.111962 0.172733
vt 0.112447 0.099150
vt 0.053255 0.153550
vt 0.071023 0.170183
vt 0.071023 0.142889
vt 0.109839 0.061969
vt 0.092070 0.078601
vt 0.110311 0.085302
vt 0.795925 0.040878
vt 0.782820 0.029095
vt 0.783954 0.048375
vt 0.980105 0.641467
vt 0.967000 0.653250
vt 0.978971 0.660746
vt 0.841246 0.037548
vt 0.828448 0.024503
vt 0.828448 0.043529
vt 0.870364 0.024503
vt 0.857565 0.037548
vt 0.870364 0.043529
vt 0.950896 0.803386
vt 0.935039 0.783928
vt 0.935146 0.814061
vt 0.934337 0.982401
vt 0.950194 0.962943
vt 0.934337 0.949594
vt 0.326780 0.696877
vt 0.968569 0.034967
vt 0.947832 0.062489
vt 0.968573 0.062486
vt 0.565532 0.160974
vt 0.586266 0.277403
vt 0.586321 0.160977
vt 0.245798 0.431012
vt 0.326798 0.458451
vt 0.094775 0.978875
vt 0.096897 0.959694
vt 0.097172 0.973334
vt 0.099406 0.966290
vt 0.241813 0.434861
vt 0.456026 0.339749
vt 0.462049 0.280083
vt 0.456026 0.280083
vt 0.456026 0.266236
vt 0.461567 0.206571
vt 0.456026 0.206571
vt 0.907502 0.513721
vt 0.900113 0.454055
vt 0.900113 0.513721
vt 0.456026 0.413261
vt 0.462064 0.353596
vt 0.456026 0.353596
vt 0.900112 0.440208
vt 0.907170 0.380543
vt 0.900112 0.380543
vt 0.239534 0.454025
vt 0.239370 0.440383
vt 0.574488 0.993076
vt 0.593498 0.427109
vt 0.574488 0.427109
vt 0.508771 0.993076
vt 0.527781 0.427109
vt 0.508771 0.427109
vt 0.494923 0.427109
vt 0.475912 0.993076
vt 0.494923 0.993076
vt 0.377335 0.993076
vt 0.396344 0.427109
vt 0.377333 0.427109
vt 0.429206 0.427109
vt 0.410194 0.993076
vt 0.429204 0.993076
vt 0.363485 0.427109
vt 0.344471 0.993076
vt 0.363481 0.993076
vt 0.390366 0.047951
vt 0.376924 0.034509
vt 0.357913 0.034509
vt 0.560640 0.427109
vt 0.541629 0.993076
vt 0.560640 0.993076
vt 0.462064 0.993076
vt 0.443054 0.427109
vt 0.443054 0.993076
vt 0.404214 0.047951
vt 0.413046 0.063304
vt 0.413046 0.051610
vt 0.814600 0.993076
vt 0.800811 0.468593
vt 0.800811 0.993076
vt 0.745536 0.993076
vt 0.759325 0.468593
vt 0.745536 0.468593
vt 0.731688 0.993076
vt 0.717899 0.468593
vt 0.717899 0.993076
vt 0.607348 0.993076
vt 0.621136 0.468593
vt 0.607346 0.468593
vt 0.648776 0.468593
vt 0.634985 0.993076
vt 0.648774 0.993076
vt 0.704051 0.468593
vt 0.690261 0.993076
vt 0.704051 0.993076
vt 0.199808 0.070059
vt 0.223348 0.079809
vt 0.233099 0.056269
vt 0.786963 0.468593
vt 0.773173 0.993076
vt 0.786963 0.993076
vt 0.676413 0.468593
vt 0.662624 0.993076
vt 0.676413 0.993076
vt 0.511458 0.054609
vt 0.502641 0.042604
vt 0.501707 0.044859
vt 0.478167 0.068399
vt 0.475912 0.053675
vt 0.475912 0.069333
vt 0.501707 0.078149
vt 0.513713 0.069333
vt 0.511458 0.068399
vt 0.487918 0.044859
vt 0.486984 0.042604
vt 0.513713 0.053675
vt 0.478167 0.054609
vt 0.487918 0.078149
vt 0.486984 0.080404
vt 0.502641 0.080404
vt 0.936105 0.175066
vt 0.945795 0.140787
vt 0.936105 0.140787
vt 0.828448 0.634247
vt 0.862727 0.993076
vt 0.862727 0.634247
vt 0.936143 0.247722
vt 0.945833 0.213442
vt 0.936143 0.213442
vt 0.828448 0.261569
vt 0.862727 0.620399
vt 0.862727 0.261569
vt 0.886265 0.634247
vt 0.876575 0.993076
vt 0.886265 0.993076
vt 0.886265 0.261569
vt 0.876575 0.620399
vt 0.886265 0.620399
vt 0.032700 0.028304
vt 0.044627 0.012673
vt 0.032700 0.012647
vt 0.987953 0.557781
vt 0.977310 0.544180
vt 0.977310 0.555778
vt 0.006924 0.012647
vt 0.018852 0.028278
vt 0.018852 0.012673
vt 0.058475 0.012647
vt 0.070403 0.028278
vt 0.070403 0.012673
vt 0.988194 0.105000
vt 0.976267 0.089369
vt 0.976267 0.104973
vt 0.988337 0.677232
vt 0.976410 0.692863
vt 0.988337 0.692890
vt 0.501688 0.028756
vt 0.513616 0.013125
vt 0.501688 0.013099
vt 0.986346 0.857715
vt 0.974418 0.842084
vt 0.974418 0.857688
vt 0.487840 0.013099
vt 0.475912 0.028730
vt 0.487840 0.028756
vt 0.410477 0.020661
vt 0.418631 0.011922
vt 0.410477 0.009062
vt 0.565516 0.007940
vt 0.576159 0.021542
vt 0.576159 0.009943
vt 0.168400 0.009874
vt 0.179042 0.023475
vt 0.179042 0.011876
vt 0.993064 0.017432
vt 0.982421 0.031034
vt 0.993064 0.033037
vt 0.988143 0.885890
vt 0.977500 0.899492
vt 0.988143 0.901494
vt 0.977310 0.587233
vt 0.987953 0.573632
vt 0.977310 0.571629
vt 0.982421 0.062489
vt 0.993064 0.048887
vt 0.982421 0.046884
vt 0.991347 0.424603
vt 0.980704 0.438205
vt 0.991347 0.440208
vt 0.962015 0.011082
vt 0.951977 0.006924
vt 0.947819 0.016961
vt 0.321862 0.009275
vt 0.313708 0.018014
vt 0.321862 0.020873
vt 0.299860 0.020873
vt 0.291706 0.012134
vt 0.291706 0.018014
vt 0.432479 0.009062
vt 0.440633 0.017802
vt 0.440633 0.011922
vt 0.344471 0.009062
vt 0.352625 0.017801
vt 0.352625 0.011922
vt 0.991764 0.398856
vt 0.983610 0.390117
vt 0.983610 0.395997
vt 0.374627 0.020661
vt 0.366473 0.011922
vt 0.366473 0.017802
vt 0.388475 0.020661
vt 0.396629 0.011922
vt 0.388475 0.009062
vt 0.971337 0.175066
vt 0.959643 0.147563
vt 0.959643 0.175066
vt 0.436667 0.080404
vt 0.441278 0.063304
vt 0.433009 0.071573
vt 0.450110 0.047951
vt 0.450110 0.066962
vt 0.436667 0.034509
vt 0.421315 0.043341
vt 0.433009 0.043341
vt 0.404214 0.066962
vt 0.421315 0.071573
vt 0.417657 0.034509
vt 0.417657 0.080404
vt 0.441278 0.051610
vt 0.311669 0.034721
vt 0.291706 0.042990
vt 0.299975 0.062953
vt 0.959681 0.220218
vt 0.971375 0.247722
vt 0.971375 0.220218
vt 0.964042 0.951725
vt 0.975736 0.924222
vt 0.964042 0.924222
vt 0.974437 0.274279
vt 0.962743 0.301782
vt 0.974437 0.301782
vt 0.975736 0.993076
vt 0.964043 0.965573
vt 0.964042 0.993076
vt 0.964744 0.786558
vt 0.976438 0.814061
vt 0.976438 0.786558
vt 0.962743 0.366695
vt 0.974437 0.339191
vt 0.962743 0.339191
vt 0.955162 0.440208
vt 0.966856 0.412704
vt 0.955162 0.412704
vt 0.206210 0.178281
vt 0.264731 0.144002
vt 0.199808 0.144002
vt 0.673312 0.135736
vt 0.708184 0.454745
vt 0.708184 0.135736
vt 0.013326 0.126776
vt 0.071846 0.092497
vt 0.006924 0.092497
vt 0.722032 0.135736
vt 0.756904 0.454745
vt 0.756904 0.135736
vt 0.344471 0.413261
vt 0.368722 0.094252
vt 0.344471 0.094252
vt 0.659464 0.135736
vt 0.607346 0.454745
vt 0.659464 0.454745
vt 0.264731 0.119751
vt 0.214357 0.102354
vt 0.199808 0.119751
vt 0.770752 0.454745
vt 0.795003 0.135736
vt 0.770752 0.135736
vt 0.006924 0.068246
vt 0.475912 0.413261
vt 0.491464 0.094252
vt 0.475912 0.094252
vt 0.419097 0.413261
vt 0.441776 0.094252
vt 0.419097 0.094252
vt 0.382570 0.413261
vt 0.405249 0.094252
vt 0.382570 0.094252
vt 0.071846 0.068246
vt 0.021473 0.050849
vt 0.551668 0.094252
vt 0.541629 0.413261
vt 0.551668 0.413261
vt 0.505312 0.413261
vt 0.520863 0.094252
vt 0.505312 0.094252
vt 0.057297 0.050849
vt 0.034366 0.042152
vt 0.250182 0.102354
vt 0.227250 0.093657
vt 0.962743 0.325078
vt 0.968824 0.315630
vt 0.963638 0.315630
vt 0.456112 0.011312
vt 0.461457 0.020661
vt 0.461298 0.011312
vt 0.985185 0.175066
vt 0.991265 0.165760
vt 0.986080 0.165760
vt 0.983566 0.325077
vt 0.988912 0.315729
vt 0.983726 0.315729
vt 0.814037 0.383989
vt 0.809192 0.376043
vt 0.808851 0.383989
vt 0.565619 0.057738
vt 0.574224 0.062929
vt 0.574868 0.049193
vt 0.936143 0.189602
vt 0.943119 0.199594
vt 0.943119 0.189602
vt 0.963549 0.891908
vt 0.954944 0.897099
vt 0.963652 0.898883
vt 0.985223 0.238833
vt 0.992199 0.247722
vt 0.992199 0.238833
vt 0.940122 0.528783
vt 0.947098 0.541375
vt 0.947098 0.528783
vt 0.953152 0.630815
vt 0.946176 0.660746
vt 0.953152 0.660746
vt 0.946176 0.602523
vt 0.953152 0.616967
vt 0.953152 0.602523
vt 0.583197 0.067324
vt 0.583197 0.037393
vt 0.954300 0.883363
vt 0.945971 0.901494
vt 0.813354 0.340420
vt 0.810404 0.332521
vt 0.808851 0.340420
vt 0.814037 0.454745
vt 0.809192 0.445003
vt 0.808851 0.454745
vt 0.808851 0.431153
vt 0.813510 0.423219
vt 0.809382 0.421420
vt 0.814037 0.407570
vt 0.809377 0.399637
vt 0.808851 0.407572
vt 0.328261 0.335217
vt 0.327059 0.327863
vt 0.326553 0.335217
vt 0.808851 0.318673
vt 0.811801 0.310774
vt 0.810093 0.310774
vt 0.813354 0.362196
vt 0.810249 0.354268
vt 0.808851 0.362196
vt 0.813354 0.296926
vt 0.810249 0.289053
vt 0.808851 0.296926
vt 0.327249 0.292395
vt 0.326553 0.293091
vt 0.327249 0.293091
vt 0.328261 0.314016
vt 0.327059 0.306939
vt 0.326553 0.314016
vt 0.328162 0.356095
vt 0.326553 0.349299
vt 0.326553 0.356670
vt 0.326553 0.377548
vt 0.328162 0.370751
vt 0.327506 0.370517
vt 0.126295 0.081837
vt 0.140123 0.178281
vt 0.172133 0.178281
vt 0.828448 0.130890
vt 0.006924 0.406570
vt 0.006924 0.140624
vt 0.009838 0.983497
vt 0.323716 0.076801
vt 0.934114 0.734259
vt 0.933971 0.049379
vt 0.112447 0.190732
vt 0.108692 0.590128
vt 0.245521 0.918883
vt 0.953360 0.458485
vt 0.963462 0.587233
vt 0.932123 0.827909
vt 0.667011 0.047401
vt 0.900113 0.601081
vt 0.740524 0.059479
vt 0.209367 0.501238
vt 0.126295 0.035978
vt 0.884725 0.057377
vt 0.828448 0.071204
vt 0.828448 0.103215
vt 0.246947 0.047799
vt 0.240601 0.988372
vt 0.900112 0.587233
vt 0.812730 0.121888
vt 0.167765 0.406570
vt 0.934295 0.263074
vt 0.527561 0.046593
vt 0.974280 0.206370
vt 0.218786 0.406198
vt 0.168400 0.067989
vt 0.947819 0.105000
vt 0.709307 0.045631
vt 0.261547 0.012525
vt 0.527561 0.032745
vt 0.326553 0.406570
vt 0.106670 0.014660
vt 0.621946 0.012920
vt 0.981808 0.455318
vt 0.914712 0.263916
vt 0.916561 0.012731
vt 0.268199 0.234652
vt 0.768972 0.021504
vt 0.947962 0.692890
vt 0.934337 0.935747
vt 0.635794 0.033554
vt 0.230936 0.213540
vt 0.964744 0.772710
vt 0.156595 0.230114
vt 0.214408 0.032671
vt 0.959643 0.133715
vt 0.195153 0.299772
vt 0.680859 0.045631
vt 0.188390 0.260686
vt 0.955162 0.398856
vt 0.967000 0.619969
vt 0.934295 0.315630
vt 0.945971 0.857715
vt 0.126295 0.007531
vt 0.982564 0.719660
vt 0.967208 0.513721
vt 0.195153 0.198455
vt 0.947962 0.734256
vt 0.291706 0.154285
vt 0.586515 0.291261
vt 0.312705 0.406560
vt 0.921191 0.748107
vt 0.586595 0.147126
vt 0.920447 0.307887
vt 0.922296 0.247722
vt 0.921018 0.440208
vt 0.922258 0.175066
vt 0.900112 0.915342
vt 0.092070 0.176884
vt 0.052782 0.176884
vt 0.092070 0.051307
vt 0.795925 0.021445
vt 0.967000 0.633817
vt 0.842482 0.018273
vt 0.856330 0.018273
vt 0.950896 0.770580
vt 0.950088 0.993076
vt 0.947819 0.034970
vt 0.565516 0.277401
vt 0.326784 0.430932
vt 0.462049 0.339749
vt 0.461567 0.266236
vt 0.907502 0.454055
vt 0.462064 0.413261
vt 0.907170 0.440208
vt 0.237079 0.447408
vt 0.593498 0.993076
vt 0.527781 0.993076
vt 0.475912 0.427109
vt 0.396346 0.993076
vt 0.410195 0.427109
vt 0.344475 0.427109
vt 0.344471 0.047951
vt 0.344471 0.066962
vt 0.357913 0.080404
vt 0.376924 0.080404
vt 0.390366 0.066962
vt 0.541629 0.427109
vt 0.462064 0.427109
vt 0.814600 0.468593
vt 0.759325 0.993076
vt 0.731688 0.468593
vt 0.621137 0.993076
vt 0.634987 0.468593
vt 0.690261 0.468593
vt 0.223348 0.046519
vt 0.209559 0.046519
vt 0.199808 0.056269
vt 0.209559 0.079809
vt 0.233099 0.070059
vt 0.773173 0.468593
vt 0.662624 0.468593
vt 0.945795 0.175066
vt 0.828448 0.993076
vt 0.945833 0.247722
vt 0.828448 0.620399
vt 0.876575 0.634247
vt 0.876575 0.261569
vt 0.044627 0.028278
vt 0.987953 0.542177
vt 0.006924 0.028304
vt 0.058475 0.028304
vt 0.988194 0.089342
vt 0.976410 0.677259
vt 0.513616 0.028730
vt 0.986346 0.842058
vt 0.475912 0.013125
vt 0.418631 0.017801
vt 0.565516 0.023545
vt 0.168400 0.025478
vt 0.982421 0.019435
vt 0.977500 0.887893
vt 0.987953 0.585231
vt 0.993064 0.060486
vt 0.980704 0.426606
vt 0.957857 0.021119
vt 0.962015 0.016961
vt 0.957857 0.006924
vt 0.947819 0.011082
vt 0.951977 0.021119
vt 0.313708 0.012134
vt 0.299860 0.009274
vt 0.432479 0.020661
vt 0.344471 0.020661
vt 0.991764 0.387258
vt 0.374627 0.009062
vt 0.396629 0.017802
vt 0.971337 0.147563
vt 0.311669 0.062953
vt 0.319938 0.054684
vt 0.319938 0.042990
vt 0.299975 0.034721
vt 0.291706 0.054684
vt 0.959681 0.247722
vt 0.975736 0.951725
vt 0.962743 0.274279
vt 0.975737 0.965573
vt 0.964744 0.814061
vt 0.974437 0.366695
vt 0.966856 0.440208
vt 0.258329 0.178281
vt 0.673312 0.454745
vt 0.065444 0.126776
vt 0.722032 0.454745
vt 0.368722 0.413261
vt 0.607346 0.135736
vt 0.795003 0.454745
vt 0.491464 0.413261
vt 0.441776 0.413261
vt 0.405249 0.413261
vt 0.541629 0.094252
vt 0.520863 0.413261
vt 0.044405 0.042152
vt 0.237289 0.093657
vt 0.969719 0.325078
vt 0.454481 0.020661
vt 0.992160 0.175066
vt 0.990542 0.325077
vt 0.813696 0.376043
vt 0.565516 0.064713
vt 0.936143 0.199594
vt 0.985223 0.247722
vt 0.940122 0.541375
vt 0.946176 0.630815
vt 0.946176 0.616967
vt 0.945971 0.871563
vt 0.812113 0.332521
vt 0.813696 0.445003
vt 0.814037 0.431155
vt 0.813505 0.397837
vt 0.327755 0.327863
vt 0.813354 0.318673
vt 0.811957 0.354268
vt 0.811957 0.289053
vt 0.326553 0.292395
vt 0.327755 0.306939
vt 0.327208 0.349065
vt 0.328162 0.378122
vn -0.029826 -0.715608 0.697865
vn 0.028055 0.366390 0.930038
vn 0.000112 0.355797 0.934563
vn -0.634890 0.275696 -0.721738
vn -0.718840 -0.290057 -0.631773
vn -0.634885 0.275698 0.721742
vn 0.000000 -0.707111 -0.707103
vn 0.127085 0.369442 -0.920523
vn 0.000000 -0.707096 -0.707118
vn -0.029826 -0.715598 -0.697876
vn 0.185937 -0.560410 0.807074
vn 0.185933 -0.560416 -0.807071
vn -0.029826 -0.715598 -0.697876
vn 0.000000 -0.707095 0.707119
vn -0.029826 -0.715608 0.697865
vn 0.000073 0.912459 0.409167
vn 0.065576 0.912204 -0.404454
vn 0.000073 0.912463 -0.409159
vn 0.000000 -0.707095 0.707119
vn 0.127085 0.369443 0.920523
vn -0.625719 0.712088 -0.318446
vn 0.000049 0.912807 0.408392
vn 0.000049 0.912802 -0.408402
vn 0.000090 0.356594 0.934259
vn -0.718833 -0.290056 0.631781
vn 0.185937 -0.560410 0.807074
vn 0.185933 -0.560416 -0.807071
vn 0.000112 0.355797 -0.934563
vn -0.029826 -0.715598 -0.697876
vn 0.000000 -0.707110 0.707104
vn 0.201121 0.327875 0.923065
vn 0.065574 0.912205 0.404453
vn 0.267539 0.879782 -0.392947
vn 0.065576 0.912204 -0.404454
vn 0.000000 -0.707111 -0.707103
vn 0.000000 -0.707110 0.707104
vn 0.201121 0.327875 -0.923065
vn -0.094250 -0.665899 -0.740065
vn -0.094250 -0.665899 -0.740065
vn -0.303037 -0.582377 0.754324
vn -0.094251 -0.665895 0.740068
vn 0.267537 0.879783 0.392945
vn 0.467361 0.794163 -0.388432
vn 0.267539 0.879782 -0.392947
vn 0.000000 -0.707096 -0.707118
vn -0.094251 -0.665895 0.740068
vn 0.142476 0.296687 -0.944287
vn -0.303044 -0.582386 -0.754315
vn 0.142476 0.296688 0.944287
vn -0.504145 -0.421790 0.753612
vn 0.016178 0.326969 0.944897
vn -0.504151 -0.421787 -0.753610
vn -0.094251 -0.665895 0.740068
vn 0.467361 0.794163 0.388432
vn 0.378445 0.827112 -0.415531
vn 0.467361 0.794163 -0.388432
vn -0.043100 0.918328 0.393467
vn -0.418378 0.846810 -0.328438
vn -0.043102 0.918325 -0.393474
vn 0.378447 0.827109 0.415534
vn -0.043102 0.918325 -0.393474
vn 0.378445 0.827112 -0.415531
vn -0.303044 -0.582386 -0.754315
vn -0.504145 -0.421790 0.753612
vn -0.303037 -0.582377 0.754324
vn -0.147297 0.376488 -0.914637
vn -0.335604 -0.730889 -0.594282
vn 0.301037 -0.684485 -0.663971
vn 0.573631 -0.489851 0.656501
vn 0.301039 -0.684495 0.663959
vn -0.504151 -0.421787 -0.753610
vn -0.335633 -0.730878 0.594280
vn -0.504145 -0.421790 0.753612
vn 0.301037 -0.684485 -0.663971
vn -0.147297 0.376488 0.914637
vn -0.532480 0.787842 0.309467
vn 0.185380 0.928960 -0.320418
vn -0.532480 0.787842 -0.309467
vn 0.705271 0.103933 0.701278
vn 0.735874 -0.164568 0.656815
vn 0.705264 0.103933 -0.701285
vn 0.163195 0.518799 0.839175
vn 0.735874 -0.164568 0.656815
vn 0.705271 0.103933 0.701278
vn 0.185385 0.928962 0.320408
vn 0.923254 0.332908 -0.191768
vn 0.185380 0.928960 -0.320418
vn -0.418377 0.846809 0.328444
vn -0.418378 0.846810 -0.328438
vn 0.301039 -0.684495 0.663959
vn -0.244686 0.386078 0.889423
vn 0.163195 0.518799 -0.839175
vn 0.735863 -0.164562 -0.656829
vn 0.573643 -0.489857 -0.656487
vn -0.335633 -0.730878 0.594280
vn 0.301037 -0.684485 -0.663971
vn 0.301039 -0.684495 0.663959
vn -0.244686 0.386077 -0.889423
vn 0.573643 -0.489857 -0.656487
vn 0.735874 -0.164568 0.656815
vn 0.573631 -0.489851 0.656501
vn 0.573631 -0.489851 0.656501
vn -0.166441 -0.640721 -0.749515
vn -0.640594 0.151973 -0.752691
vn 0.000000 -0.000000 -1.000000
vn 0.000000 -0.000000 -1.000000
vn -0.006777 0.704906 -0.709269
vn -0.000000 -0.000000 -1.000000
vn -0.334412 -0.603572 0.723788
vn 0.534375 0.271871 0.800331
vn 0.000000 0.000000 1.000000
vn -0.006778 0.704904 0.709270
vn 0.000000 0.000000 1.000000
vn 0.000000 0.000000 1.000000
vn -0.334411 -0.603566 -0.723794
vn -0.166436 -0.640707 0.749529
vn -0.166441 -0.640721 -0.749515
vn 0.026162 0.697981 -0.715638
vn -0.006778 0.704904 0.709270
vn -0.006777 0.704906 -0.709269
vn -0.543786 0.610722 0.575600
vn -0.706515 0.028918 -0.707107
vn -0.706515 0.028918 0.707107
vn 0.026162 0.697995 0.715625
vn -0.706515 0.028918 0.707107
vn 0.026162 0.697981 -0.715638
vn -0.543786 0.610722 0.575600
vn 0.026162 0.697995 0.715625
vn -0.166436 -0.640707 0.749529
vn -0.711884 -0.422315 -0.561133
vn -0.166441 -0.640721 -0.749515
vn 0.469025 -0.240482 -0.849814
vn 0.654173 -0.432905 0.620202
vn 0.469017 -0.240487 0.849817
vn -0.334411 -0.603566 -0.723794
vn -0.373414 -0.607622 0.700969
vn -0.334412 -0.603572 0.723788
vn -0.006778 0.704904 0.709270
vn -0.083367 0.677215 -0.731047
vn -0.006777 0.704906 -0.709269
vn -0.083367 0.677215 -0.731047
vn 0.469025 -0.240482 -0.849814
vn -0.334411 -0.603566 -0.723794
vn 0.534363 0.271864 -0.800341
vn -0.373415 -0.607623 -0.700967
vn 0.333792 0.567914 -0.752368
vn -0.304261 -0.659783 -0.687104
vn -0.166436 -0.640707 0.749529
vn -0.640600 0.151973 0.752686
vn -0.711875 -0.422336 0.561129
vn -0.640600 0.151973 0.752686
vn -0.711884 -0.422315 -0.561133
vn -0.711875 -0.422336 0.561129
vn 0.469017 -0.240487 0.849817
vn -0.000000 -0.000000 -1.000000
vn -0.706515 0.028918 -0.707107
vn 0.333787 0.567911 0.752372
vn 0.126259 0.657759 -0.742571
vn 0.333792 0.567914 -0.752368
vn -0.373414 -0.607622 0.700969
vn 0.333787 0.567911 0.752372
vn -0.373415 -0.607623 -0.700967
vn -0.304263 -0.659785 0.687101
vn -0.373414 -0.607622 0.700969
vn 0.534375 0.271871 0.800331
vn 0.333792 0.567914 -0.752368
vn 0.534363 0.271864 -0.800341
vn -0.133794 -0.727246 -0.673211
vn 0.136337 -0.735453 0.663717
vn -0.133793 -0.727253 0.673203
vn -0.304261 -0.659783 -0.687104
vn -0.133793 -0.727253 0.673203
vn -0.304263 -0.659785 0.687101
vn -0.304263 -0.659785 0.687101
vn 0.126259 0.657754 0.742575
vn 0.126259 0.657759 -0.742571
vn -0.133794 -0.727246 -0.673211
vn 0.136337 -0.735453 0.663717
vn -0.410589 0.450349 0.792845
vn -0.113891 0.641955 0.758237
vn -0.133793 -0.727253 0.673203
vn -0.113890 0.641953 -0.758238
vn 0.136337 -0.735455 -0.663715
vn 0.126259 0.657754 0.742575
vn -0.113890 0.641953 -0.758238
vn 0.126259 0.657759 -0.742571
vn -0.410589 0.450349 0.792845
vn -0.593156 0.055536 -0.803169
vn -0.410574 0.450346 -0.792854
vn 0.454753 -0.604116 -0.654404
vn -0.113891 0.641955 0.758237
vn -0.410574 0.450346 -0.792854
vn -0.113890 0.641953 -0.758238
vn 0.136337 -0.735455 -0.663715
vn 0.454749 -0.604113 0.654409
vn 0.136337 -0.735453 0.663717
vn 0.622646 -0.384189 0.681697
vn -0.502982 -0.358792 0.786306
vn -0.593158 0.055524 0.803169
vn 0.454753 -0.604116 -0.654404
vn 0.622646 -0.384189 0.681697
vn 0.454749 -0.604113 0.654409
vn -0.410574 0.450346 -0.792854
vn 0.622653 -0.384192 -0.681689
vn 0.026162 0.697981 -0.715638
vn -0.543787 0.610730 -0.575590
vn -0.083366 0.677206 0.731055
vn 0.469025 -0.240482 -0.849814
vn 0.534375 0.271871 0.800331
vn 0.534363 0.271864 -0.800341
vn 0.000000 0.000000 1.000000
vn -0.640594 0.151973 -0.752691
vn -0.640600 0.151973 0.752686
vn 0.556437 0.612970 -0.560933
vn 0.654173 -0.432905 0.620202
vn 0.654163 -0.432912 -0.620208
vn 0.654173 -0.432905 0.620202
vn 0.556408 0.612992 0.560938
vn 0.654163 -0.432912 -0.620208
vn -0.083366 0.677206 0.731055
vn 0.556437 0.612970 -0.560933
vn -0.083367 0.677215 -0.731047
vn -0.502996 -0.358800 -0.786293
vn -0.084050 0.675175 -0.732853
vn 0.458727 -0.421781 -0.782094
vn -0.593158 0.055524 0.803169
vn -0.502996 -0.358800 -0.786293
vn -0.593156 0.055536 -0.803169
vn 0.622653 -0.384192 -0.681689
vn 0.458736 -0.421786 0.782086
vn 0.622646 -0.384189 0.681697
vn -0.800108 0.253588 -0.543618
vn -0.084053 0.675174 0.732854
vn -0.084050 0.675175 -0.732853
vn -0.502982 -0.358792 0.786306
vn -0.800108 0.253588 -0.543618
vn -0.502996 -0.358800 -0.786293
vn -0.084053 0.675174 0.732854
vn 0.284838 0.747895 -0.599600
vn -0.084050 0.675175 -0.732853
vn -0.084053 0.675174 0.732854
vn -0.800112 0.253608 0.543603
vn 0.799657 -0.180042 -0.572829
vn 0.284854 0.747887 0.599603
vn 0.799652 -0.180046 0.572836
vn 0.458727 -0.421781 -0.782094
vn 0.799652 -0.180046 0.572836
vn 0.458736 -0.421786 0.782086
vn 0.799652 -0.180046 0.572836
vn 0.284854 0.747887 0.599603
vn 0.799657 -0.180042 -0.572829
vn 0.000049 0.912807 0.408392
vn -0.634885 0.275698 0.721742
vn 0.000090 0.356594 0.934259
vn 0.000073 0.912463 -0.409159
vn 0.000090 0.356594 -0.934260
vn 0.000049 0.912802 -0.408402
vn 0.000112 0.355797 0.934563
vn 0.065574 0.912205 0.404453
vn 0.000073 0.912459 0.409167
vn 0.000112 0.355797 -0.934563
vn 0.065576 0.912204 -0.404454
vn 0.028055 0.366390 -0.930038
vn 0.028055 0.366390 0.930038
vn 0.267537 0.879783 0.392945
vn 0.065574 0.912205 0.404453
vn 0.028055 0.366390 -0.930038
vn 0.267539 0.879782 -0.392947
vn 0.127085 0.369442 -0.920523
vn 0.127085 0.369443 0.920523
vn 0.467361 0.794163 0.388432
vn 0.267537 0.879783 0.392945
vn 0.127085 0.369442 -0.920523
vn 0.467361 0.794163 -0.388432
vn 0.201121 0.327875 -0.923065
vn 0.378447 0.827109 0.415534
vn 0.201121 0.327875 0.923065
vn 0.142476 0.296688 0.944287
vn 0.201121 0.327875 -0.923065
vn 0.378445 0.827112 -0.415531
vn 0.142476 0.296687 -0.944287
vn 0.016178 0.326969 0.944897
vn 0.378447 0.827109 0.415534
vn 0.142476 0.296688 0.944287
vn 0.016178 0.326968 -0.944897
vn 0.378445 0.827112 -0.415531
vn -0.043102 0.918325 -0.393474
vn -0.043102 0.918325 -0.393474
vn -0.147297 0.376488 -0.914637
vn 0.016178 0.326968 -0.944897
vn -0.043100 0.918328 0.393467
vn -0.147297 0.376488 0.914637
vn -0.418377 0.846809 0.328444
vn -0.418377 0.846809 0.328444
vn -0.244686 0.386078 0.889423
vn -0.532480 0.787842 0.309467
vn -0.244686 0.386077 -0.889423
vn -0.418378 0.846810 -0.328438
vn -0.532480 0.787842 -0.309467
vn -0.532480 0.787842 0.309467
vn 0.163195 0.518799 0.839175
vn 0.185385 0.928962 0.320408
vn 0.163195 0.518799 -0.839175
vn -0.532480 0.787842 -0.309467
vn 0.185380 0.928960 -0.320418
vn 0.163195 0.518799 0.839175
vn 0.923255 0.332903 0.191769
vn 0.185385 0.928962 0.320408
vn 0.163195 0.518799 -0.839175
vn 0.923254 0.332908 -0.191768
vn 0.705264 0.103933 -0.701285
vn 0.028055 0.366390 -0.930038
vn 0.000049 0.912802 -0.408402
vn -0.634890 0.275696 -0.721738
vn -0.625719 0.712088 -0.318446
vn 0.000073 0.912459 0.409167
vn 0.000090 0.356594 0.934259
vn 0.000112 0.355797 0.934563
vn -0.718840 -0.290057 -0.631773
vn 0.000090 0.356594 -0.934260
vn -0.427522 -0.610927 0.666328
vn 0.382058 -0.638640 0.667960
vn -0.257570 -0.670367 0.695892
vn 0.014601 -0.768231 0.640006
vn -0.427521 -0.610928 -0.666328
vn 0.185937 -0.560410 0.807074
vn 0.382059 -0.638641 -0.667959
vn 0.185933 -0.560416 -0.807071
vn -0.718840 -0.290057 -0.631773
vn -0.427522 -0.610927 0.666328
vn -0.718833 -0.290056 0.631781
vn 0.014601 -0.768233 -0.640004
vn -0.257570 -0.670367 0.695892
vn -0.257569 -0.670365 -0.695895
vn -0.427521 -0.610928 -0.666328
vn -0.257570 -0.670367 0.695892
vn -0.427522 -0.610927 0.666328
vn 0.382058 -0.638640 0.667960
vn 0.014601 -0.768233 -0.640004
vn 0.382059 -0.638641 -0.667959
vn 0.382059 -0.638641 -0.667959
vn -0.257569 -0.670365 -0.695895
vn 0.630259 0.000000 -0.776385
vn -0.630258 -0.548986 -0.548988
vn -0.630248 -0.000000 -0.776394
vn 0.630253 -0.548993 -0.548989
vn -0.630271 -0.776375 -0.000004
vn -0.630258 -0.548986 -0.548988
vn 0.630229 -0.776409 0.000002
vn -0.630245 -0.548996 0.548994
vn -0.630271 -0.776375 -0.000004
vn 0.630253 -0.548989 0.548992
vn -0.630270 -0.000002 0.776376
vn -0.630245 -0.548996 0.548994
vn 0.630262 0.000002 0.776383
vn -0.630258 0.548986 0.548990
vn -0.630270 -0.000002 0.776376
vn 0.630267 0.548984 0.548981
vn -0.630245 0.776396 0.000004
vn -0.630258 0.548986 0.548990
vn 0.630262 0.000002 0.776383
vn 0.630253 -0.548989 0.548992
vn 0.630229 -0.776409 0.000002
vn 0.630245 0.776396 -0.000002
vn -0.630269 0.548982 -0.548981
vn -0.630245 0.776396 0.000004
vn -0.630269 0.548982 -0.548981
vn 0.630259 0.000000 -0.776385
vn -0.630248 -0.000000 -0.776394
vn -0.630270 -0.000002 0.776376
vn -0.804200 -0.420278 -0.420272
vn -0.804195 -0.000000 -0.594366
vn 0.804180 -0.000000 -0.594385
vn 0.630251 -0.548992 -0.548991
vn 0.804190 -0.420288 -0.420282
vn 0.630251 -0.548992 -0.548991
vn 0.804189 -0.594373 -0.000006
vn 0.804190 -0.420288 -0.420282
vn 0.804189 -0.594373 -0.000006
vn 0.630251 -0.548992 0.548992
vn 0.804184 -0.420291 0.420291
vn 0.630251 -0.548992 0.548992
vn 0.804191 -0.000001 0.594371
vn 0.804184 -0.420291 0.420291
vn 0.630250 0.000002 0.776392
vn 0.804186 0.420287 0.420290
vn 0.804191 -0.000001 0.594371
vn 0.630253 0.548992 0.548989
vn 0.804187 0.594377 -0.000000
vn 0.804186 0.420287 0.420290
vn 0.630255 0.776388 -0.000002
vn 0.630250 0.000002 0.776392
vn 0.630249 -0.776393 0.000000
vn 0.630255 0.776388 -0.000002
vn 0.804187 0.420290 -0.420286
vn 0.804187 0.594377 -0.000000
vn 0.630268 0.548981 -0.548984
vn 0.804180 -0.000000 -0.594385
vn 0.804187 0.420290 -0.420286
vn 0.804186 0.420287 0.420290
vn 0.628060 0.000000 0.778165
vn 0.804191 -0.000001 0.594371
vn 0.804190 -0.420288 -0.420282
vn 0.628053 -0.778171 -0.000009
vn 0.628054 -0.550248 -0.550250
vn 0.804187 0.420290 -0.420286
vn 0.628053 0.778171 -0.000007
vn 0.804187 0.594377 -0.000000
vn 0.804184 -0.420291 0.420291
vn 0.628047 -0.550254 0.550253
vn 0.628047 0.550253 0.550253
vn 0.804189 -0.594373 -0.000006
vn 0.804180 -0.000000 -0.594385
vn 0.628059 -0.000000 -0.778165
vn 0.628053 0.550247 -0.550253
vn -0.577332 0.577359 0.577359
vn -0.577332 -0.577359 -0.577359
vn -0.577346 -0.577353 0.577353
vn -0.577346 0.577353 -0.577353
vn 0.577346 -0.577353 -0.577352
vn -0.577332 -0.577359 -0.577359
vn 0.577332 0.577359 -0.577359
vn 0.577332 -0.577359 0.577359
vn 0.577346 -0.577353 -0.577352
vn 0.577346 0.577353 0.577352
vn -0.577346 -0.577353 0.577353
vn 0.577332 -0.577359 0.577359
vn 0.577346 -0.577353 -0.577352
vn -0.577346 -0.577353 0.577353
vn -0.577332 -0.577359 -0.577359
vn -0.577346 0.577353 -0.577353
vn 0.577346 0.577353 0.577352
vn 0.577332 0.577359 -0.577359
vn 0.628047 -0.550254 0.550253
vn -0.238783 -0.971073 -0.000001
vn 0.628053 -0.778171 -0.000009
vn -0.238786 0.686655 -0.686649
vn -0.668005 -0.000000 -0.744157
vn -0.668008 0.526193 -0.526200
vn 0.628047 0.550253 0.550253
vn -0.238780 0.971074 0.000005
vn -0.238787 0.686651 0.686652
vn 0.628047 -0.550254 0.550253
vn -0.238777 -0.000000 0.971074
vn -0.238787 -0.686652 0.686651
vn 0.628053 0.778171 -0.000007
vn -0.238786 0.686655 -0.686649
vn -0.238780 0.971074 0.000005
vn 0.628053 -0.778171 -0.000009
vn -0.238783 -0.686653 -0.686651
vn 0.628054 -0.550248 -0.550250
vn 0.628047 0.550253 0.550253
vn -0.238777 -0.000000 0.971074
vn 0.628060 0.000000 0.778165
vn 0.628053 0.550247 -0.550253
vn -0.238779 -0.000000 -0.971074
vn -0.238786 0.686655 -0.686649
vn 0.628054 -0.550248 -0.550250
vn -0.238779 -0.000000 -0.971074
vn 0.628059 -0.000000 -0.778165
vn -0.668011 -0.526193 0.526196
vn -0.947957 -0.318398 -0.000000
vn -0.668005 -0.744157 -0.000001
vn -0.238787 0.686651 0.686652
vn -0.668008 0.744154 -0.000002
vn -0.668011 0.526193 0.526196
vn -0.238787 -0.686652 0.686651
vn -0.668003 0.000000 0.744158
vn -0.668011 -0.526193 0.526196
vn -0.238783 -0.971073 -0.000001
vn -0.668011 -0.526195 -0.526194
vn -0.238783 -0.686653 -0.686651
vn -0.238786 0.686655 -0.686649
vn -0.668008 0.744154 -0.000002
vn -0.238780 0.971074 0.000005
vn -0.238787 0.686651 0.686652
vn -0.668003 0.000000 0.744158
vn -0.238777 -0.000000 0.971074
vn -0.238787 -0.686652 0.686651
vn -0.668005 -0.744157 -0.000001
vn -0.238783 -0.971073 -0.000001
vn -0.238783 -0.686653 -0.686651
vn -0.668005 -0.000000 -0.744157
vn -0.238779 -0.000000 -0.971074
vn -0.947957 -0.225141 -0.225142
vn -0.947956 -0.225144 0.225143
vn -0.947957 0.225141 0.225142
vn -0.668011 -0.526195 -0.526194
vn -0.947957 -0.000000 -0.318398
vn -0.668005 -0.000000 -0.744157
vn -0.668008 0.526193 -0.526200
vn -0.947957 -0.000000 -0.318398
vn -0.947957 0.225142 -0.225143
vn -0.668011 0.526193 0.526196
vn -0.947957 0.318399 -0.000002
vn -0.947957 0.225141 0.225142
vn -0.668011 -0.526193 0.526196
vn -0.947957 -0.000000 0.318399
vn -0.947956 -0.225144 0.225143
vn -0.668011 -0.526195 -0.526194
vn -0.947957 -0.318398 -0.000000
vn -0.947957 -0.225141 -0.225142
vn -0.668008 0.744154 -0.000002
vn -0.947957 0.225142 -0.225143
vn -0.947957 0.318399 -0.000002
vn -0.668011 0.526193 0.526196
vn -0.947957 -0.000000 0.318399
vn -0.668003 0.000000 0.744158
vn -0.804203 -0.000000 0.594354
vn -0.630256 -0.548994 0.548984
vn -0.804198 -0.420274 0.420281
vn -0.630269 0.548982 -0.548981
vn -0.804203 -0.000000 0.594354
vn -0.804198 -0.420274 0.420281
vn -0.630258 -0.548986 -0.548988
vn -0.630248 -0.000000 -0.776394
vn -0.630271 -0.776375 -0.000004
vn -0.804200 0.420279 -0.420271
vn -0.804200 0.594360 -0.000000
vn -0.630258 0.548986 0.548990
vn -0.804199 -0.594361 0.000006
vn -0.630245 -0.548996 0.548994
vn -0.630245 0.776396 0.000004
vn -0.804198 0.420275 0.420279
vn -0.630268 0.548977 -0.548987
vn -0.630263 -0.548980 -0.548990
vn -0.630256 -0.548994 0.548984
vn -0.804199 -0.594361 0.000006
vn -0.630263 -0.548980 -0.548990
vn -0.804200 -0.420278 -0.420272
vn -0.804200 0.420279 -0.420271
vn -0.630276 -0.000001 -0.776371
vn -0.630268 0.548977 -0.548987
vn -0.804198 0.420275 0.420279
vn -0.630279 0.776369 -0.000006
vn -0.630272 0.548985 0.548975
vn -0.804198 -0.420274 0.420281
vn -0.630264 -0.776381 -0.000006
vn -0.804199 -0.594361 0.000006
vn -0.804200 -0.420278 -0.420272
vn -0.630276 -0.000001 -0.776371
vn -0.804195 -0.000000 -0.594366
vn -0.804200 0.594360 -0.000000
vn -0.630268 0.548977 -0.548987
vn -0.630279 0.776369 -0.000006
vn -0.804203 -0.000000 0.594354
vn -0.630272 0.548985 0.548975
vn -0.630252 -0.000001 0.776391
vn -0.587677 0.622422 0.516940
vn -0.686929 0.066994 -0.723630
vn -0.686931 0.066994 0.723628
vn -0.587683 0.622414 -0.516941
vn 0.686931 0.066993 -0.723628
vn -0.686929 0.066994 -0.723630
vn 0.587677 0.622422 -0.516940
vn 0.686929 0.066994 0.723630
vn 0.686931 0.066993 -0.723628
vn 0.587684 0.622415 0.516941
vn -0.686931 0.066994 0.723628
vn 0.686929 0.066994 0.723630
vn -0.686931 0.066994 0.723628
vn 0.637751 -0.262836 0.724010
vn 0.686929 0.066994 0.723630
vn -0.587683 0.622414 -0.516941
vn 0.587684 0.622415 0.516941
vn 0.587677 0.622422 -0.516940
vn -0.637751 -0.262836 -0.724010
vn -0.676915 -0.546586 0.492980
vn -0.637749 -0.262841 0.724010
vn 0.686931 0.066993 -0.723628
vn -0.637751 -0.262836 -0.724010
vn -0.686929 0.066994 -0.723630
vn 0.637749 -0.262841 -0.724010
vn -0.676915 -0.546586 0.492980
vn 0.646831 -0.729307 0.222983
vn 0.676897 -0.546597 0.492993
vn -0.637749 -0.262841 0.724010
vn 0.676897 -0.546597 0.492993
vn 0.637751 -0.262836 0.724010
vn 0.637749 -0.262841 -0.724010
vn -0.676897 -0.546597 -0.492993
vn -0.637751 -0.262836 -0.724010
vn 0.637751 -0.262836 0.724010
vn 0.676915 -0.546586 -0.492980
vn 0.646827 -0.729311 -0.222980
vn -0.646827 -0.729311 0.222981
vn -0.646830 -0.729307 -0.222983
vn 0.676915 -0.546586 -0.492980
vn -0.646830 -0.729307 -0.222983
vn -0.676897 -0.546597 -0.492993
vn 0.676897 -0.546597 0.492993
vn 0.646827 -0.729311 -0.222980
vn -0.676897 -0.546597 -0.492993
vn -0.646827 -0.729311 0.222981
vn -0.543500 -0.308544 0.780646
vn -0.692452 -0.135821 -0.708564
vn -0.692450 -0.135819 0.708567
vn -0.692452 -0.135821 -0.708564
vn 0.719386 0.039213 -0.693503
vn 0.716023 -0.072880 -0.694262
vn 0.719386 0.039213 -0.693503
vn 0.716022 -0.072880 0.694263
vn 0.716023 -0.072880 -0.694262
vn 0.719385 0.039210 0.693504
vn -0.692450 -0.135819 0.708567
vn 0.716022 -0.072880 0.694263
vn -0.692452 -0.135821 -0.708564
vn -0.667399 -0.013722 0.744574
vn -0.692450 -0.135819 0.708567
vn -0.543500 -0.308544 0.780646
vn 0.612452 -0.068839 0.787505
vn -0.441868 -0.519261 0.731520
vn 0.612448 -0.068845 -0.787507
vn 0.698089 0.449775 0.557112
vn 0.612452 -0.068839 0.787505
vn -0.543510 -0.308547 -0.780638
vn 0.612448 -0.068845 -0.787507
vn 0.719386 0.039213 -0.693503
vn 0.719386 0.039213 -0.693503
vn 0.612452 -0.068839 0.787505
vn 0.719385 0.039210 0.693504
vn -0.543500 -0.308544 0.780646
vn -0.441868 -0.519265 -0.731517
vn -0.543510 -0.308547 -0.780638
vn -0.803984 0.242182 -0.543099
vn 0.698089 0.449775 0.557112
vn 0.698070 0.449807 -0.557110
vn -0.441868 -0.519261 0.731520
vn -0.803984 0.242182 -0.543099
vn -0.441868 -0.519265 -0.731517
vn 0.698089 0.449775 0.557112
vn -0.803993 0.242183 0.543086
vn -0.441868 -0.519265 -0.731517
vn 0.698070 0.449807 -0.557110
vn -0.667399 -0.013722 0.744574
vn 0.527625 -0.534110 0.660559
vn 0.683335 -0.298374 0.666352
vn 0.716022 -0.072880 0.694263
vn 0.683343 -0.298384 -0.666341
vn 0.716023 -0.072880 -0.694262
vn 0.716022 -0.072880 0.694263
vn -0.667399 -0.013722 0.744574
vn 0.683335 -0.298374 0.666352
vn 0.716023 -0.072880 -0.694262
vn -0.667382 -0.013727 -0.744589
vn -0.692452 -0.135821 -0.708564
vn 0.527625 -0.534110 0.660559
vn 0.153006 -0.806096 -0.571663
vn 0.527626 -0.534113 -0.660556
vn -0.667382 -0.013727 -0.744589
vn 0.527626 -0.534113 -0.660556
vn -0.651776 0.191931 -0.733724
vn 0.683335 -0.298374 0.666352
vn 0.527626 -0.534113 -0.660556
vn 0.683343 -0.298384 -0.666341
vn -0.667382 -0.013727 -0.744589
vn -0.651778 0.191935 0.733721
vn -0.667399 -0.013722 0.744574
vn -0.805085 -0.231911 -0.545945
vn 0.152987 -0.806105 0.571656
vn -0.805090 -0.231876 0.545953
vn -0.651776 0.191931 -0.733724
vn -0.805090 -0.231876 0.545953
vn -0.651778 0.191935 0.733721
vn -0.651778 0.191935 0.733721
vn 0.152987 -0.806105 0.571656
vn 0.527625 -0.534110 0.660559
vn -0.651776 0.191931 -0.733724
vn 0.153006 -0.806096 -0.571663
vn -0.805085 -0.231911 -0.545945
vn -0.718833 -0.290056 0.631781
vn -0.625721 0.712082 0.318453
vn -0.625719 0.712088 -0.318446
vn -0.029826 -0.715608 0.697865
vn 0.065574 0.912205 0.404453
vn -0.625721 0.712082 0.318453
vn -0.634885 0.275698 0.721742
vn 0.267537 0.879783 0.392945
vn -0.303044 -0.582386 -0.754315
vn 0.467361 0.794163 0.388432
vn -0.094250 -0.665899 -0.740065
vn -0.303037 -0.582377 0.754324
vn 0.016178 0.326968 -0.944897
vn 0.378447 0.827109 0.415534
vn -0.418377 0.846809 0.328444
vn -0.043100 0.918328 0.393467
vn -0.504151 -0.421787 -0.753610
vn 0.573643 -0.489857 -0.656487
vn -0.335604 -0.730889 -0.594282
vn -0.335633 -0.730878 0.594280
vn 0.185385 0.928962 0.320408
vn 0.735863 -0.164562 -0.656829
vn 0.923254 0.332908 -0.191768
vn 0.923255 0.332903 0.191769
vn 0.923255 0.332903 0.191769
vn 0.705264 0.103933 -0.701285
vn -0.335604 -0.730889 -0.594282
vn 0.735863 -0.164562 -0.656829
vn -0.711884 -0.422315 -0.561133
vn -0.334412 -0.603572 0.723788
vn 0.026162 0.697995 0.715625
vn -0.543787 0.610730 -0.575590
vn -0.543786 0.610722 0.575600
vn -0.543787 0.610730 -0.575590
vn -0.711875 -0.422336 0.561129
vn 0.654163 -0.432912 -0.620208
vn -0.373415 -0.607623 -0.700967
vn -0.083366 0.677206 0.731055
vn -0.640594 0.151973 -0.752691
vn 0.126259 0.657754 0.742575
vn -0.304261 -0.659783 -0.687104
vn 0.333787 0.567911 0.752372
vn 0.136337 -0.735455 -0.663715
vn -0.133794 -0.727246 -0.673211
vn 0.454749 -0.604113 0.654409
vn -0.113891 0.641955 0.758237
vn -0.593158 0.055524 0.803169
vn -0.410589 0.450349 0.792845
vn 0.454753 -0.604116 -0.654404
vn 0.458736 -0.421786 0.782086
vn 0.622653 -0.384192 -0.681689
vn -0.593156 0.055536 -0.803169
vn 0.469017 -0.240487 0.849817
vn 0.556408 0.612992 0.560938
vn 0.556437 0.612970 -0.560933
vn 0.556408 0.612992 0.560938
vn -0.800108 0.253588 -0.543618
vn -0.502982 -0.358792 0.786306
vn 0.458727 -0.421781 -0.782094
vn -0.800112 0.253608 0.543603
vn -0.800112 0.253608 0.543603
vn 0.284854 0.747887 0.599603
vn 0.284838 0.747895 -0.599600
vn 0.799657 -0.180042 -0.572829
vn 0.284838 0.747895 -0.599600
vn -0.625721 0.712082 0.318453
vn 0.000112 0.355797 -0.934563
vn 0.028055 0.366390 0.930038
vn 0.000073 0.912463 -0.409159
vn 0.127085 0.369443 0.920523
vn 0.065576 0.912204 -0.404454
vn 0.201121 0.327875 0.923065
vn 0.267539 0.879782 -0.392947
vn 0.467361 0.794163 0.388432
vn 0.467361 0.794163 -0.388432
vn -0.043100 0.918328 0.393467
vn 0.142476 0.296687 -0.944287
vn -0.418378 0.846810 -0.328438
vn 0.016178 0.326969 0.944897
vn -0.147297 0.376488 0.914637
vn -0.147297 0.376488 -0.914637
vn -0.244686 0.386078 0.889423
vn -0.244686 0.386077 -0.889423
vn 0.705271 0.103933 0.701278
vn 0.185380 0.928960 -0.320418
vn 0.000090 0.356594 -0.934260
vn 0.000049 0.912807 0.408392
vn -0.634890 0.275696 -0.721738
vn 0.382058 -0.638640 0.667960
vn -0.427521 -0.610928 -0.666328
vn 0.014601 -0.768231 0.640006
vn -0.257569 -0.670365 -0.695895
vn 0.014601 -0.768231 0.640006
vn 0.014601 -0.768233 -0.640004
vn 0.630253 -0.548993 -0.548989
vn 0.630229 -0.776409 0.000002
vn 0.630253 -0.548989 0.548992
vn 0.630262 0.000002 0.776383
vn 0.630267 0.548984 0.548981
vn 0.630245 0.776396 -0.000002
vn 0.630253 -0.548993 -0.548989
vn 0.630259 0.000000 -0.776385
vn 0.630270 0.548981 -0.548981
vn 0.630245 0.776396 -0.000002
vn 0.630267 0.548984 0.548981
vn 0.630270 0.548981 -0.548981
vn 0.630270 0.548981 -0.548981
vn 0.630264 0.000001 -0.776381
vn 0.630249 -0.776393 0.000000
vn 0.630249 -0.776393 0.000000
vn 0.630250 0.000002 0.776392
vn 0.630253 0.548992 0.548989
vn 0.630255 0.776388 -0.000002
vn 0.630251 -0.548992 -0.548991
vn 0.630264 0.000001 -0.776381
vn 0.630268 0.548981 -0.548984
vn 0.630253 0.548992 0.548989
vn 0.630251 -0.548992 0.548992
vn 0.630268 0.548981 -0.548984
vn 0.630264 0.000001 -0.776381
vn -0.577346 0.577353 -0.577353
vn 0.577332 0.577359 -0.577359
vn 0.577346 0.577353 0.577352
vn -0.577332 0.577359 0.577359
vn 0.577332 -0.577359 0.577359
vn -0.577332 0.577359 0.577359
vn -0.238787 -0.686652 0.686651
vn -0.238779 -0.000000 -0.971074
vn 0.628053 0.778171 -0.000007
vn 0.628060 0.000000 0.778165
vn 0.628053 0.550247 -0.550253
vn -0.238783 -0.971073 -0.000001
vn -0.238787 0.686651 0.686652
vn 0.628059 -0.000000 -0.778165
vn -0.238783 -0.686653 -0.686651
vn -0.947956 -0.225144 0.225143
vn -0.238780 0.971074 0.000005
vn -0.238777 -0.000000 0.971074
vn -0.668005 -0.744157 -0.000001
vn -0.668008 0.526193 -0.526200
vn -0.668011 0.526193 0.526196
vn -0.668011 -0.526193 0.526196
vn -0.668011 -0.526195 -0.526194
vn -0.947957 0.225142 -0.225143
vn -0.947957 -0.000000 -0.318398
vn -0.947957 -0.318398 -0.000000
vn -0.947957 -0.000000 0.318399
vn -0.947957 0.318399 -0.000002
vn -0.947957 -0.225141 -0.225142
vn -0.668005 -0.000000 -0.744157
vn -0.668008 0.744154 -0.000002
vn -0.668003 0.000000 0.744158
vn -0.668005 -0.744157 -0.000001
vn -0.668008 0.526193 -0.526200
vn -0.947957 0.225141 0.225142
vn -0.630252 -0.000001 0.776391
vn -0.630252 -0.000001 0.776391
vn -0.630272 0.548985 0.548975
vn -0.630279 0.776369 -0.000006
vn -0.630276 -0.000001 -0.776371
vn -0.630264 -0.776381 -0.000006
vn -0.630264 -0.776381 -0.000006
vn -0.804195 -0.000000 -0.594366
vn -0.804200 0.594360 -0.000000
vn -0.630256 -0.548994 0.548984
vn -0.630263 -0.548980 -0.548990
vn -0.804200 0.420279 -0.420271
vn -0.804198 0.420275 0.420279
vn -0.587683 0.622414 -0.516941
vn 0.587677 0.622422 -0.516940
vn 0.587684 0.622415 0.516941
vn -0.587677 0.622422 0.516940
vn -0.637749 -0.262841 0.724010
vn -0.587677 0.622422 0.516940
vn 0.637749 -0.262841 -0.724010
vn -0.646827 -0.729311 0.222981
vn -0.676915 -0.546586 0.492980
vn 0.676915 -0.546586 -0.492980
vn 0.646831 -0.729307 0.222983
vn 0.646827 -0.729311 -0.222980
vn 0.646831 -0.729307 0.222983
vn -0.646830 -0.729307 -0.222983
vn -0.543510 -0.308547 -0.780638
vn -0.543510 -0.308547 -0.780638
vn 0.719385 0.039210 0.693504
vn -0.543500 -0.308544 0.780646
vn -0.667382 -0.013727 -0.744589
vn 0.719385 0.039210 0.693504
vn 0.698070 0.449807 -0.557110
vn 0.612448 -0.068845 -0.787507
vn -0.441868 -0.519261 0.731520
vn -0.803993 0.242183 0.543086
vn -0.803993 0.242183 0.543086
vn -0.803984 0.242182 -0.543099
vn -0.651778 0.191935 0.733721
vn 0.683335 -0.298374 0.666352
vn -0.692450 -0.135819 0.708567
vn 0.683343 -0.298384 -0.666341
vn 0.152987 -0.806105 0.571656
vn 0.683343 -0.298384 -0.666341
vn 0.527625 -0.534110 0.660559
vn -0.651776 0.191931 -0.733724
vn 0.153006 -0.806096 -0.571663
vn -0.805085 -0.231911 -0.545945
vn -0.805090 -0.231876 0.545953
vn 0.527626 -0.534113 -0.660556
f 1/1/1 2/2/2 3/3/3
f 4/4/4 5/5/5 6/6/6
f 7/7/7 8/8/8 9/9/9
f 10/10/10 11/11/11 12/12/12
f 13/13/13 14/14/14 15/15/15
f 16/16/16 17/17/17 18/18/18
f 19/19/19 20/20/20 2/2/2
f 21/21/21 22/22/22 23/23/23
f 24/24/24 25/25/25 26/26/26
f 27/27/27 28/28/28 29/29/29
f 30/30/30 31/31/31 20/20/20
f 32/32/32 33/33/33 34/34/34
f 35/35/35 36/36/36 14/14/14
f 9/9/9 37/37/37 38/38/38
f 39/39/39 40/40/40 41/41/41
f 42/42/42 43/43/43 44/44/44
f 45/45/45 46/46/46 36/36/36
f 38/38/38 47/47/47 48/48/48
f 49/49/49 50/50/50 51/51/51
f 47/47/47 52/52/52 48/48/48
f 53/53/53 49/49/49 31/31/31
f 54/54/54 55/55/55 56/56/56
f 57/57/57 58/58/58 59/59/59
f 60/60/60 61/61/61 62/62/62
f 63/63/63 64/64/64 65/65/65
f 52/52/52 66/66/66 67/67/67
f 68/68/68 69/69/69 70/70/70
f 71/71/71 72/72/72 73/73/73
f 66/66/66 74/74/74 67/67/67
f 50/50/50 75/75/75 51/51/51
f 76/76/76 77/77/77 78/78/78
f 79/79/79 80/80/80 81/81/81
f 82/82/82 83/83/83 84/84/84
f 85/85/85 86/86/86 87/87/87
f 88/88/88 78/78/78 89/89/89
f 75/75/75 90/90/90 91/91/91
f 92/92/92 93/93/93 94/94/94
f 95/95/95 96/96/96 97/97/97
f 98/98/98 94/94/94 74/74/74
f 99/99/99 100/100/100 101/101/101
f 91/91/91 102/102/102 82/82/82
f 103/103/103 104/104/104 105/105/105
f 106/106/106 107/107/107 108/108/108
f 109/109/109 110/110/110 111/111/111
f 112/112/112 113/113/113 114/114/114
f 115/115/115 116/116/116 117/117/117
f 118/118/118 119/119/119 120/120/120
f 121/121/121 122/122/122 123/123/123
f 124/124/124 125/125/125 113/113/113
f 126/126/126 127/127/127 128/128/128
f 129/129/129 130/130/130 131/131/131
f 132/132/132 133/133/133 134/134/134
f 135/135/135 136/136/136 137/137/137
f 138/138/138 139/139/139 140/140/140
f 108/108/108 141/141/141 142/142/142
f 143/143/143 144/144/144 145/145/145
f 145/145/145 146/146/146 147/147/147
f 148/148/148 149/149/149 150/150/150
f 151/151/151 152/152/152 153/153/153
f 111/111/111 148/148/148 109/109/109
f 111/111/111 154/154/154 114/114/114
f 103/103/103 155/155/155 143/143/143
f 106/106/106 104/104/104 156/156/156
f 157/157/157 158/158/158 159/159/159
f 160/160/160 161/161/161 110/110/110
f 162/162/162 163/163/163 164/164/164
f 165/165/165 166/166/166 167/167/167
f 168/168/168 169/169/169 170/170/170
f 171/171/171 172/172/172 173/173/173
f 174/174/174 175/175/175 161/161/161
f 147/147/147 176/176/176 177/177/177
f 178/178/178 179/179/179 180/180/180
f 181/181/181 180/180/180 175/175/175
f 177/177/177 182/182/182 183/183/183
f 184/184/184 185/185/185 186/186/186
f 187/187/187 188/188/188 189/189/189
f 182/182/182 190/190/190 183/183/183
f 191/191/191 192/192/192 193/193/193
f 194/194/194 195/195/195 196/196/196
f 197/197/197 198/198/198 199/199/199
f 200/200/200 201/201/201 202/202/202
f 179/179/179 197/197/197 199/199/199
f 203/203/203 204/204/204 190/190/190
f 205/205/205 156/156/156 206/206/206
f 114/114/114 207/207/207 112/112/112
f 155/155/155 142/142/142 144/144/144
f 208/208/208 209/209/209 210/210/210
f 113/113/113 149/149/149 211/211/211
f 123/123/123 212/212/212 213/213/213
f 114/114/114 211/211/211 111/111/111
f 105/105/105 108/108/108 155/155/155
f 214/214/214 215/215/215 216/216/216
f 207/207/207 217/217/217 218/218/218
f 141/141/141 219/219/219 142/142/142
f 220/220/220 221/221/221 222/222/222
f 223/223/223 224/224/224 225/225/225
f 204/204/204 223/223/223 225/225/225
f 226/226/226 227/227/227 228/228/228
f 229/229/229 230/230/230 231/231/231
f 232/232/232 233/233/233 234/234/234
f 235/235/235 236/236/236 237/237/237
f 238/238/238 239/239/239 240/240/240
f 198/198/198 241/241/241 242/242/242
f 243/243/243 244/244/244 245/245/245
f 246/246/246 247/247/247 248/248/248
f 241/241/241 249/249/249 250/250/250
f 224/224/224 251/251/251 225/225/225
f 252/252/252 253/253/253 254/254/254
f 255/255/255 256/256/256 257/257/257
f 258/258/258 259/259/259 260/260/260
f 261/261/261 262/262/262 263/263/263
f 264/264/264 265/265/265 266/266/266
f 267/267/267 268/268/268 269/269/269
f 270/270/270 271/271/271 272/272/272
f 273/273/273 274/274/274 275/275/275
f 276/276/276 277/277/277 278/278/278
f 279/279/279 280/280/280 281/281/281
f 282/282/282 283/283/283 284/284/284
f 285/285/285 286/286/286 287/287/287
f 288/288/288 289/289/289 290/290/290
f 291/291/291 292/292/292 293/293/293
f 294/294/294 295/295/295 296/296/296
f 297/297/297 298/298/298 299/299/299
f 300/300/300 301/301/301 302/302/302
f 303/303/303 304/304/304 305/305/305
f 306/306/306 307/307/307 308/308/308
f 309/309/309 310/310/310 311/311/311
f 29/29/29 312/312/312 7/7/7
f 313/313/313 314/314/314 315/315/315
f 316/316/316 317/317/317 318/318/318
f 319/319/319 320/320/320 27/27/27
f 3/3/3 26/26/26 1/1/1
f 23/23/23 16/16/16 18/18/18
f 26/26/26 321/321/321 322/322/322
f 322/322/322 323/323/323 324/324/324
f 27/27/27 325/325/325 319/319/319
f 326/326/326 327/327/327 328/328/328
f 329/329/329 330/330/330 331/331/331
f 332/332/332 333/333/333 334/334/334
f 335/335/335 336/336/336 337/337/337
f 338/338/338 339/339/339 340/340/340
f 341/341/341 342/342/342 325/325/325
f 343/343/343 344/344/344 345/345/345
f 346/346/346 347/347/347 348/348/348
f 349/349/349 350/350/350 351/351/351
f 352/352/352 353/353/353 354/354/354
f 355/355/355 356/356/356 357/357/357
f 358/358/358 359/359/359 360/360/360
f 361/361/361 362/362/362 363/363/363
f 364/364/364 365/365/365 366/366/366
f 367/367/367 368/368/368 369/369/369
f 370/370/370 371/371/371 372/372/372
f 373/373/373 374/374/374 375/375/375
f 376/376/376 377/377/377 378/378/378
f 379/379/379 380/380/380 381/381/381
f 382/382/382 383/383/383 384/384/384
f 385/385/385 386/386/386 387/387/387
f 388/388/388 389/389/389 390/390/390
f 391/391/391 392/392/392 393/393/393
f 394/394/394 395/395/395 396/396/396
f 397/397/397 398/398/398 399/399/399
f 400/400/400 401/401/401 402/402/402
f 403/403/403 404/404/404 405/405/405
f 406/406/406 407/407/407 408/408/408
f 409/409/409 401/401/401 410/410/410
f 408/408/408 411/411/411 400/400/400
f 409/409/409 404/404/404 412/412/412
f 413/413/413 405/405/405 414/414/414
f 413/413/413 415/415/415 406/406/406
f 416/416/416 417/417/417 418/418/418
f 419/419/419 420/420/420 421/421/421
f 422/422/422 423/423/423 424/424/424
f 425/425/425 426/426/426 427/427/427
f 428/428/428 429/429/429 430/430/430
f 431/431/431 432/432/432 433/433/433
f 434/434/434 435/435/435 436/436/436
f 437/437/437 438/438/438 439/439/439
f 440/440/440 441/441/441 442/442/442
f 443/443/443 444/444/444 445/445/445
f 446/446/446 447/447/447 448/448/448
f 449/449/449 450/450/450 451/451/451
f 452/452/452 453/453/453 454/454/454
f 455/455/455 456/456/456 457/457/457
f 458/458/458 459/459/459 460/460/460
f 461/461/461 462/462/462 463/463/463
f 464/464/464 465/465/465 466/466/466
f 467/467/467 468/468/468 469/469/469
f 470/470/470 471/471/471 472/472/472
f 473/473/473 474/474/474 475/475/475
f 476/476/476 477/477/477 478/478/478
f 479/479/479 480/480/480 481/481/481
f 482/482/482 483/483/483 484/484/484
f 485/485/485 486/486/486 487/487/487
f 488/488/488 489/489/489 490/490/490
f 491/491/491 492/492/492 493/493/493
f 494/494/494 495/495/495 496/496/496
f 497/497/497 498/498/498 499/499/499
f 500/500/500 501/501/501 502/502/502
f 503/503/503 504/504/504 505/505/505
f 506/506/506 507/507/507 508/508/508
f 509/509/509 510/510/510 511/511/511
f 512/512/512 513/513/513 514/514/514
f 515/515/515 513/513/513 516/516/516
f 517/517/517 518/518/518 519/519/519
f 520/520/520 521/521/521 371/371/371
f 370/370/370 518/518/518 522/522/522
f 512/512/512 521/521/521 523/523/523
f 517/517/517 524/524/524 515/515/515
f 525/525/525 526/526/526 527/527/527
f 528/528/528 529/529/529 530/530/530
f 531/531/531 532/532/532 533/533/533
f 534/534/534 535/535/535 536/536/536
f 537/537/537 538/538/538 539/539/539
f 540/540/540 541/541/541 542/542/542
f 543/543/543 544/544/544 545/545/545
f 546/546/546 547/547/547 548/548/548
f 549/549/549 550/550/550 551/551/551
f 552/552/552 553/553/553 554/554/554
f 555/555/555 556/556/556 557/557/557
f 558/558/558 559/559/559 560/560/560
f 561/561/561 562/562/562 563/563/563
f 564/564/564 565/565/565 566/566/566
f 567/567/567 568/568/568 569/569/569
f 570/570/570 571/571/571 572/572/572
f 550/550/550 569/569/569 551/551/551
f 556/556/556 573/573/573 557/557/557
f 574/574/574 575/575/575 576/576/576
f 577/577/577 578/578/578 579/579/579
f 580/580/580 581/581/581 582/582/582
f 583/583/583 584/584/584 573/573/573
f 585/585/585 586/586/586 587/587/587
f 588/588/588 589/589/589 590/590/590
f 591/591/591 592/592/592 584/584/584
f 593/593/593 594/594/594 568/568/568
f 595/595/595 596/596/596 597/597/597
f 598/598/598 599/599/599 600/600/600
f 601/601/601 602/602/602 603/603/603
f 604/604/604 605/605/605 606/606/606
f 607/607/607 608/608/608 609/609/609
f 610/610/610 611/611/611 612/612/612
f 613/613/613 614/614/614 615/615/615
f 616/616/616 617/617/617 618/618/618
f 619/619/619 620/620/620 621/621/621
f 622/622/622 623/623/623 624/624/624
f 625/625/625 626/626/626 627/627/627
f 628/628/628 629/629/629 630/630/630
f 612/612/612 631/631/631 632/632/632
f 633/633/633 634/634/634 617/617/617
f 635/635/635 636/636/636 637/637/637
f 638/638/638 639/639/639 640/640/640
f 641/641/641 642/642/642 643/643/643
f 644/644/644 645/645/645 646/646/646
f 647/647/647 648/648/648 649/649/649
f 650/650/650 651/651/651 652/652/652
f 653/653/653 654/654/654 655/655/655
f 656/656/656 657/657/657 658/658/658
f 659/659/659 660/660/660 661/661/661
f 662/662/662 663/663/663 664/664/664
f 665/665/665 666/666/666 667/667/667
f 668/668/668 669/669/669 670/670/670
f 1/1/1 19/19/19 2/2/2
f 5/5/5 671/671/671 6/6/6
f 6/6/6 672/672/672 673/673/673
f 673/673/673 4/4/4 6/6/6
f 7/7/7 312/312/312 8/8/8
f 10/10/10 674/674/674 11/11/11
f 13/13/13 35/35/35 14/14/14
f 16/16/16 675/675/675 17/17/17
f 19/19/19 30/30/30 20/20/20
f 21/21/21 676/676/676 22/22/22
f 24/24/24 677/677/677 25/25/25
f 27/27/27 320/320/320 28/28/28
f 30/30/30 53/53/53 31/31/31
f 32/32/32 678/678/678 33/33/33
f 35/35/35 45/45/45 36/36/36
f 9/9/9 8/8/8 37/37/37
f 39/39/39 679/679/679 40/40/40
f 42/42/42 680/680/680 43/43/43
f 45/45/45 681/681/681 46/46/46
f 38/38/38 37/37/37 47/47/47
f 49/49/49 682/682/682 50/50/50
f 47/47/47 683/683/683 52/52/52
f 53/53/53 682/682/682 49/49/49
f 54/54/54 684/684/684 55/55/55
f 57/57/57 685/685/685 58/58/58
f 60/60/60 686/686/686 61/61/61
f 63/63/63 687/687/687 64/64/64
f 52/52/52 683/683/683 66/66/66
f 68/68/68 688/688/688 69/69/69
f 71/71/71 689/689/689 72/72/72
f 66/66/66 98/98/98 74/74/74
f 50/50/50 690/690/690 75/75/75
f 76/76/76 691/691/691 77/77/77
f 80/80/80 692/692/692 81/81/81
f 81/81/81 693/693/693 694/694/694
f 694/694/694 79/79/79 81/81/81
f 82/82/82 102/102/102 83/83/83
f 85/85/85 695/695/695 86/86/86
f 88/88/88 76/76/76 78/78/78
f 75/75/75 690/690/690 90/90/90
f 92/92/92 696/696/696 93/93/93
f 95/95/95 697/697/697 96/96/96
f 98/98/98 92/92/92 94/94/94
f 99/99/99 698/698/698 100/100/100
f 91/91/91 90/90/90 102/102/102
f 103/103/103 699/699/699 104/104/104
f 106/106/106 205/205/205 107/107/107
f 109/109/109 160/160/160 110/110/110
f 112/112/112 124/124/124 113/113/113
f 115/115/115 700/700/700 116/116/116
f 118/118/118 701/701/701 119/119/119
f 121/121/121 702/702/702 122/122/122
f 124/124/124 703/703/703 125/125/125
f 126/126/126 704/704/704 127/127/127
f 129/129/129 705/705/705 130/130/130
f 132/132/132 706/706/706 133/133/133
f 135/135/135 707/707/707 136/136/136
f 138/138/138 708/708/708 139/139/139
f 108/108/108 107/107/107 141/141/141
f 143/143/143 155/155/155 144/144/144
f 145/145/145 144/144/144 146/146/146
f 148/148/148 211/211/211 149/149/149
f 151/151/151 709/709/709 152/152/152
f 111/111/111 211/211/211 148/148/148
f 111/111/111 110/110/110 154/154/154
f 103/103/103 105/105/105 155/155/155
f 106/106/106 105/105/105 104/104/104
f 157/157/157 710/710/710 158/158/158
f 160/160/160 174/174/174 161/161/161
f 162/162/162 711/711/711 163/163/163
f 165/165/165 712/712/712 166/166/166
f 168/168/168 713/713/713 169/169/169
f 171/171/171 714/714/714 172/172/172
f 174/174/174 181/181/181 175/175/175
f 147/147/147 146/146/146 176/176/176
f 178/178/178 715/715/715 179/179/179
f 181/181/181 178/178/178 180/180/180
f 177/177/177 176/176/176 182/182/182
f 184/184/184 716/716/716 185/185/185
f 187/187/187 717/717/717 188/188/188
f 182/182/182 203/203/203 190/190/190
f 191/191/191 718/718/718 192/192/192
f 194/194/194 719/719/719 195/195/195
f 197/197/197 720/720/720 198/198/198
f 200/200/200 721/721/721 201/201/201
f 179/179/179 715/715/715 197/197/197
f 203/203/203 722/722/722 204/204/204
f 205/205/205 106/106/106 156/156/156
f 114/114/114 154/154/154 207/207/207
f 155/155/155 108/108/108 142/142/142
f 208/208/208 723/723/723 209/209/209
f 113/113/113 125/125/125 149/149/149
f 123/123/123 122/122/122 212/212/212
f 114/114/114 113/113/113 211/211/211
f 105/105/105 106/106/106 108/108/108
f 214/214/214 724/724/724 215/215/215
f 207/207/207 154/154/154 217/217/217
f 141/141/141 725/725/725 219/219/219
f 220/220/220 726/726/726 221/221/221
f 223/223/223 727/727/727 224/224/224
f 204/204/204 722/722/722 223/223/223
f 226/226/226 728/728/728 227/227/227
f 229/229/229 729/729/729 230/230/230
f 232/232/232 730/730/730 233/233/233
f 235/235/235 731/731/731 236/236/236
f 238/238/238 732/732/732 239/239/239
f 198/198/198 720/720/720 241/241/241
f 243/243/243 733/733/733 244/244/244
f 246/246/246 734/734/734 247/247/247
f 241/241/241 720/720/720 249/249/249
f 224/224/224 735/735/735 251/251/251
f 252/252/252 736/736/736 253/253/253
f 255/255/255 737/737/737 256/256/256
f 258/258/258 738/738/738 259/259/259
f 261/261/261 739/739/739 262/262/262
f 264/264/264 740/740/740 265/265/265
f 267/267/267 741/741/741 268/268/268
f 270/270/270 742/742/742 271/271/271
f 273/273/273 743/743/743 274/274/274
f 276/276/276 744/744/744 277/277/277
f 279/279/279 745/745/745 280/280/280
f 282/282/282 746/746/746 283/283/283
f 285/285/285 747/747/747 286/286/286
f 288/288/288 748/748/748 289/289/289
f 291/291/291 749/749/749 292/292/292
f 294/294/294 750/750/750 295/295/295
f 297/297/297 751/751/751 298/298/298
f 300/300/300 752/752/752 301/301/301
f 303/303/303 753/753/753 304/304/304
f 306/306/306 754/754/754 307/307/307
f 309/309/309 755/755/755 310/310/310
f 29/29/29 28/28/28 312/312/312
f 313/313/313 756/756/756 314/314/314
f 316/316/316 757/757/757 317/317/317
f 319/319/319 758/758/758 320/320/320
f 3/3/3 24/24/24 26/26/26
f 23/23/23 22/22/22 16/16/16
f 26/26/26 25/25/25 321/321/321
f 322/322/322 321/321/321 323/323/323
f 27/27/27 341/341/341 325/325/325
f 326/326/326 759/759/759 327/327/327
f 329/329/329 760/760/760 330/330/330
f 332/332/332 761/761/761 333/333/333
f 335/335/335 762/762/762 336/336/336
f 338/338/338 763/763/763 339/339/339
f 341/341/341 764/764/764 342/342/342
f 343/343/343 765/765/765 344/344/344
f 346/346/346 766/766/766 347/347/347
f 349/349/349 767/767/767 350/350/350
f 352/352/352 768/768/768 353/353/353
f 355/355/355 769/769/769 356/356/356
f 358/358/358 770/770/770 359/359/359
f 363/363/363 771/771/771 772/772/772
f 772/772/772 773/773/773 363/363/363
f 773/773/773 774/774/774 363/363/363
f 774/774/774 775/775/775 363/363/363
f 775/775/775 361/361/361 363/363/363
f 364/364/364 776/776/776 365/365/365
f 367/367/367 777/777/777 368/368/368
f 370/370/370 520/520/520 371/371/371
f 373/373/373 778/778/778 374/374/374
f 376/376/376 779/779/779 377/377/377
f 379/379/379 780/780/780 380/380/380
f 382/382/382 781/781/781 383/383/383
f 385/385/385 782/782/782 386/386/386
f 388/388/388 783/783/783 389/389/389
f 393/393/393 784/784/784 785/785/785
f 785/785/785 786/786/786 393/393/393
f 786/786/786 391/391/391 393/393/393
f 391/391/391 787/787/787 392/392/392
f 392/392/392 788/788/788 393/393/393
f 394/394/394 789/789/789 395/395/395
f 397/397/397 790/790/790 398/398/398
f 400/400/400 411/411/411 401/401/401
f 403/403/403 412/412/412 404/404/404
f 406/406/406 415/415/415 407/407/407
f 409/409/409 402/402/402 401/401/401
f 408/408/408 407/407/407 411/411/411
f 409/409/409 410/410/410 404/404/404
f 413/413/413 403/403/403 405/405/405
f 413/413/413 414/414/414 415/415/415
f 416/416/416 791/791/791 417/417/417
f 419/419/419 792/792/792 420/420/420
f 422/422/422 793/793/793 423/423/423
f 425/425/425 794/794/794 426/426/426
f 428/428/428 795/795/795 429/429/429
f 431/431/431 796/796/796 432/432/432
f 434/434/434 797/797/797 435/435/435
f 437/437/437 798/798/798 438/438/438
f 440/440/440 799/799/799 441/441/441
f 443/443/443 800/800/800 444/444/444
f 446/446/446 801/801/801 447/447/447
f 449/449/449 802/802/802 450/450/450
f 452/452/452 803/803/803 453/453/453
f 455/455/455 804/804/804 456/456/456
f 458/458/458 805/805/805 459/459/459
f 461/461/461 806/806/806 462/462/462
f 464/464/464 807/807/807 465/465/465
f 467/467/467 808/808/808 468/468/468
f 470/470/470 809/809/809 471/471/471
f 473/473/473 810/810/810 474/474/474
f 476/476/476 811/811/811 477/477/477
f 479/479/479 812/812/812 480/480/480
f 482/482/482 813/813/813 483/483/483
f 814/814/814 815/815/815 485/485/485
f 485/485/485 816/816/816 486/486/486
f 486/486/486 817/817/817 487/487/487
f 487/487/487 818/818/818 814/814/814
f 814/814/814 485/485/485 487/487/487
f 488/488/488 819/819/819 489/489/489
f 491/491/491 820/820/820 492/492/492
f 494/494/494 821/821/821 495/495/495
f 497/497/497 822/822/822 498/498/498
f 500/500/500 823/823/823 501/501/501
f 503/503/503 824/824/824 504/504/504
f 506/506/506 825/825/825 507/507/507
f 509/509/509 826/826/826 510/510/510
f 512/512/512 516/516/516 513/513/513
f 515/515/515 524/524/524 513/513/513
f 517/517/517 522/522/522 518/518/518
f 520/520/520 523/523/523 521/521/521
f 370/370/370 372/372/372 518/518/518
f 512/512/512 514/514/514 521/521/521
f 517/517/517 519/519/519 524/524/524
f 527/527/527 827/827/827 828/828/828
f 828/828/828 829/829/829 527/527/527
f 829/829/829 525/525/525 527/527/527
f 525/525/525 830/830/830 526/526/526
f 526/526/526 831/831/831 527/527/527
f 528/528/528 832/832/832 529/529/529
f 531/531/531 833/833/833 532/532/532
f 534/534/534 834/834/834 535/535/535
f 537/537/537 835/835/835 538/538/538
f 540/540/540 836/836/836 541/541/541
f 543/543/543 837/837/837 544/544/544
f 546/546/546 838/838/838 547/547/547
f 549/549/549 839/839/839 550/550/550
f 552/552/552 840/840/840 553/553/553
f 555/555/555 841/841/841 556/556/556
f 558/558/558 842/842/842 559/559/559
f 561/561/561 843/843/843 562/562/562
f 564/564/564 844/844/844 565/565/565
f 567/567/567 593/593/593 568/568/568
f 570/570/570 845/845/845 571/571/571
f 550/550/550 567/567/567 569/569/569
f 556/556/556 583/583/583 573/573/573
f 574/574/574 846/846/846 575/575/575
f 577/577/577 847/847/847 578/578/578
f 580/580/580 848/848/848 581/581/581
f 583/583/583 591/591/591 584/584/584
f 585/585/585 849/849/849 586/586/586
f 588/588/588 850/850/850 589/589/589
f 591/591/591 851/851/851 592/592/592
f 593/593/593 852/852/852 594/594/594
f 595/595/595 853/853/853 596/596/596
f 598/598/598 854/854/854 599/599/599
f 601/601/601 855/855/855 602/602/602
f 604/604/604 856/856/856 605/605/605
f 607/607/607 857/857/857 608/608/608
f 610/610/610 858/858/858 611/611/611
f 613/613/613 859/859/859 614/614/614
f 616/616/616 633/633/633 617/617/617
f 619/619/619 860/860/860 620/620/620
f 622/622/622 861/861/861 623/623/623
f 625/625/625 862/862/862 626/626/626
f 628/628/628 863/863/863 629/629/629
f 612/612/612 611/611/611 631/631/631
f 633/633/633 864/864/864 634/634/634
f 635/635/635 865/865/865 636/636/636
f 638/638/638 866/866/866 639/639/639
f 641/641/641 867/867/867 642/642/642
f 644/644/644 868/868/868 645/645/645
f 647/647/647 869/869/869 648/648/648
f 650/650/650 870/870/870 651/651/651
f 653/653/653 871/871/871 654/654/654
f 656/656/656 872/872/872 657/657/657
f 659/659/659 873/873/873 660/660/660
f 662/662/662 874/874/874 663/663/663
f 665/665/665 875/875/875 666/666/666
f 668/668/668 876/876/876 669/669/669
